<svg class="icon" width="100.05" height="78.733" version="1.1" viewBox="0 0 256.13 201.56" xmlns="http://www.w3.org/2000/svg"><g stroke-width=".26244"><path d="m188.95 89.58h-55.988a5.5876 5.5876 0 01-4.5518-2.3459l-55.988-78.383a5.5988 5.5988 0 014.5518-8.8516h22.395c1.3548 0 2.6705.49269 3.6839 1.3885l89.58 78.383a5.5988 5.5988 0 01-3.684 9.809z" fill="#b3b3b3"/><path d="m99.365 201.56h-22.395a5.5988 5.5988 0 01-4.6582-8.706l55.988-83.981a5.5988 5.5988 0 014.6582-2.4914h61.586a5.6044 5.6044 0 013.7007 9.7979l-95.179 83.981a5.5988 5.5988 0 01-3.7007 1.3996z" fill="#e6e6e6"/><path d="m211.34 61.586h-156.79c-3.0793 0-6.9984-1.9988-8.8348-4.5742l-21.466-30.043c-1.8028-2.5251-5.7443-4.5742-8.9132-4.5742h-11.097c-3.1185 0-4.9045 2.4243-4.0031 5.3524l19.103 62.079c.907 2.9562 3.9807 6.2874 6.8137 7.4183l45.652 18.263c2.8554 1.1422 7.6871 2.066 10.75 2.066h128.79c22.395 0 44.79-13.997 44.79-27.994 0-13.997-22.395-27.994-44.79-27.994z" fill="#d8d8d8"/></g><g fill="#5b5b5b" stroke-width=".26244"><path d="m96.566 86.781m-8.3981 0a8.3982 8.3982 0 1016.796 0 8.3982 8.3982 0 10-16.796 0z"/><path d="m141.36 86.781m-8.3981 0a8.3981 8.3981 0 1016.796 0 8.3981 8.3981 0 10-16.796 0z"/><path d="m186.15 86.781m-8.3981 0a8.3982 8.3982 0 1016.796 0 8.3982 8.3982 0 10-16.796 0z"/></g></svg>
