<?xml version="1.0" encoding="UTF-8" standalone="no"?>
<!-- Uploaded to: SVG Repo, www.svgrepo.com, Generator: SVG Repo Mixer Tools -->

<svg
   width="122.5"
   height="140"
   viewBox="0 0 156.8 179.2"
   class="icon"
   version="1.1"
   id="svg470"
   sodipodi:docname="washing-machine-svgrepo-com.svg"
   inkscape:version="1.2.2 (732a01da63, 2022-12-09)"
   xmlns:inkscape="http://www.inkscape.org/namespaces/inkscape"
   xmlns:sodipodi="http://sodipodi.sourceforge.net/DTD/sodipodi-0.dtd"
   xmlns="http://www.w3.org/2000/svg"
   xmlns:svg="http://www.w3.org/2000/svg">
  <defs
     id="defs474" />
  <sodipodi:namedview
     id="namedview472"
     pagecolor="#ffffff"
     bordercolor="#000000"
     borderopacity="0.25"
     inkscape:showpageshadow="2"
     inkscape:pageopacity="0.0"
     inkscape:pagecheckerboard="0"
     inkscape:deskcolor="#d1d1d1"
     showgrid="false"
     inkscape:zoom="1.04625"
     inkscape:cx="349.82079"
     inkscape:cy="400.4779"
     inkscape:window-width="1920"
     inkscape:window-height="1017"
     inkscape:window-x="1912"
     inkscape:window-y="-8"
     inkscape:window-maximized="1"
     inkscape:current-layer="svg470" />
  <path
     d="m 156.8,168 a 11.2,11.2 0 0 1 -11.2,11.2 H 11.2 A 11.2,11.2 0 0 1 0,168 V 11.2 A 11.2,11.2 0 0 1 11.2,0 h 134.4 a 11.2,11.2 0 0 1 11.2,11.2 z"
     fill="#eaeaea"
     id="path454"
     style="stroke-width:0.175" />
  <path
     d="m 137.2,19.6 m -8.4,0 a 8.4,8.4 0 1 0 16.8,0 8.4,8.4 0 1 0 -16.8,0 z"
     fill="#3aad73"
     id="path456"
     style="stroke-width:0.175" />
  <path
     d="m 78.4,112 m -44.8,0 a 44.8,44.8 0 1 0 89.6,0 44.8,44.8 0 1 0 -89.6,0 z"
     fill="#469fcc"
     id="path458"
     style="stroke-width:0.175" />
  <path
     d="m 78.4,72.8 c 23.7944,0 43.2096,18.5696 44.66,42 0.0616,-0.9296 0.14,-1.8536 0.14,-2.8 a 44.8,44.8 0 0 0 -89.6,0 c 0,0.9464 0.084,1.8704 0.14,2.8 1.4504,-23.4304 20.8656,-42 44.66,-42 z"
     fill=""
     id="path460"
     style="stroke-width:0.175" />
  <path
     d="m 78.4,56 c -30.9232,0 -56,25.0768 -56,56 0,30.9232 25.0768,56 56,56 30.9232,0 56,-25.0768 56,-56 0,-30.9232 -25.0768,-56 -56,-56 z m 0,100.8 a 44.8,44.8 0 1 1 0,-89.6 44.8,44.8 0 0 1 0,89.6 z"
     fill="#434854"
     id="path462"
     style="stroke-width:0.175" />
  <path
     d="M 105.6608,96.7792 93.7832,84.9016 a 2.8,2.8 0 0 0 -3.9592,3.9592 l 11.8776,11.8776 a 2.8,2.8 0 0 0 3.9592,-3.9592 z M 82.0456,88.7208 A 2.8,2.8 0 0 0 78.0864,92.68 l 19.796,19.796 a 2.8,2.8 0 0 0 3.9592,-3.9592 z"
     fill="#ffffff"
     id="path464"
     style="stroke-width:0.175" />
  <path
     d="M 56,19.6 A 8.4,8.4 0 0 1 47.6,28 h -28 a 8.4,8.4 0 0 1 0,-16.8 h 28 a 8.4,8.4 0 0 1 8.4,8.4 z"
     fill="#434854"
     id="path466"
     style="stroke-width:0.175" />
  <path
     d="m 47.6,27.9944 h -28 a 8.3776,8.3776 0 0 1 -7.8848,-5.6 8.3048,8.3048 0 0 0 -0.5152,2.8 8.4,8.4 0 0 0 8.4,8.4 h 28 a 8.4,8.4 0 0 0 8.4,-8.4 c 0,-0.9856 -0.2016,-1.9208 -0.5152,-2.8 -1.1592,3.2536 -4.2336,5.6 -7.8848,5.6 z M 0,39.2 h 156.8 v 5.6 H 0 Z M 145.0848,22.3944 c -1.1592,3.2536 -4.2336,5.6 -7.8848,5.6 -3.6512,0 -6.7256,-2.3464 -7.8848,-5.6 a 8.3048,8.3048 0 0 0 -0.5152,2.8 8.4,8.4 0 0 0 16.8,0 c 0,-0.9856 -0.2016,-1.9208 -0.5152,-2.8 z"
     fill=""
     id="path468"
     style="stroke-width:0.175" />
</svg>
