<svg width="122.5" height="140" viewBox="0 0 156.8 179.2" class="prefix__icon" xmlns="http://www.w3.org/2000/svg"><path d="M156.8 168a11.2 11.2 0 01-11.2 11.2H11.2A11.2 11.2 0 010 168V11.2A11.2 11.2 0 0111.2 0h134.4a11.2 11.2 0 0111.2 11.2z" fill="#eaeaea"/><path d="M128.79999999999998 19.6a8.4 8.4 0 1016.8 0 8.4 8.4 0 10-16.8 0z" fill="#3aad73"/><path d="M33.60000000000001 112a44.8 44.8 0 1089.6 0 44.8 44.8 0 10-89.6 0z" fill="#469fcc"/><path d="M78.4 72.8c23.794 0 43.21 18.57 44.66 42 .062-.93.14-1.854.14-2.8a44.8 44.8 0 00-89.6 0c0 .946.084 1.87.14 2.8 1.45-23.43 20.866-42 44.66-42z"/><path d="M78.4 56c-30.923 0-56 25.077-56 56s25.077 56 56 56 56-25.077 56-56-25.077-56-56-56zm0 100.8a44.8 44.8 0 110-89.6 44.8 44.8 0 010 89.6z" fill="#434854"/><path d="M105.66 96.78L93.784 84.901a2.8 2.8 0 00-3.959 3.959l11.878 11.877a2.8 2.8 0 003.959-3.959zm-23.614-8.06a2.8 2.8 0 00-3.96 3.96l19.796 19.796a2.8 2.8 0 003.96-3.96z" fill="#fff"/><path d="M56 19.6a8.4 8.4 0 01-8.4 8.4h-28a8.4 8.4 0 010-16.8h28a8.4 8.4 0 018.4 8.4z" fill="#434854"/><path d="M47.6 27.994h-28a8.378 8.378 0 01-7.885-5.6 8.305 8.305 0 00-.515 2.8 8.4 8.4 0 008.4 8.4h28a8.4 8.4 0 008.4-8.4c0-.985-.202-1.92-.515-2.8-1.16 3.254-4.234 5.6-7.885 5.6zM0 39.2h156.8v5.6H0zm145.085-16.806c-1.16 3.254-4.234 5.6-7.885 5.6s-6.726-2.346-7.885-5.6a8.305 8.305 0 00-.515 2.8 8.4 8.4 0 0016.8 0c0-.985-.202-1.92-.515-2.8z"/></svg>