<svg xmlns="http://www.w3.org/2000/svg" width="108.696" height="138.149" viewBox="0 0 139.131 176.83" xmlns:v="https://vecta.io/nano"><path d="M139.131 165.176v4.938c0 3.714-3.022 6.716-6.716 6.716h-121.6a6.71 6.71 0 0 1-6.716-6.716v-4.938c0-5.452 4.444-9.896 9.896-9.896h.336c-.533-2.114-.81-4.286-.81-6.479 0-3.22.593-6.42 1.738-9.403l-4.681-4.681c-14.104-14.104-14.104-37.077 0-51.18.77-.77 1.817-1.205 2.904-1.205s2.133.435 2.904 1.205l14.736 14.736c.217-1.58.533-3.161.928-4.701s.909-3.062 1.481-4.563c-3.733-6.499-5.748-13.906-5.788-21.63v-9.6l-.178-43.99a13.38 13.38 0 0 1 3.911-9.541c2.528-2.548 5.906-3.97 9.501-3.99h.059c3.575 0 6.953 1.383 9.482 3.911L61.62 15.17c3.141-.731 6.42-1.126 9.778-1.146h.178a44.44 44.44 0 0 1 9.62 1.047L92.178 3.99C94.707 1.442 98.084.02 101.679 0h.059c3.575 0 6.953 1.383 9.482 3.911 2.548 2.528 3.97 5.906 3.99 9.501l.178 44.247v9.363c.02 7.842-1.995 15.388-5.807 22.005 1.857 4.721 2.785 9.719 2.785 14.854v20.148c4.444 1.62 8.435 4.444 11.457 8.178a26.35 26.35 0 0 1 5.847 16.533c0 2.193-.277 4.385-.81 6.479h.336c5.491.04 9.936 4.484 9.936 9.956z" fill="#633"/><path d="M130.894 165.176v3.437h-18.489v-35.496c5.472 3.18 9.067 9.126 9.067 15.664 0 3.022-.751 6.005-2.193 8.632-.691 1.284-.672 2.825.079 4.069a4.12 4.12 0 0 0 3.536 2.015h6.321a1.68 1.68 0 0 1 1.679 1.679z" fill="#b2abac"/><path d="M107.21 57.699v9.659c-.079 19.536-15.961 35.378-35.457 35.457h-.138c-19.556 0-35.516-15.882-35.595-35.457v-9.561c.02-10.41 4.543-19.812 11.753-26.331l5.59-.02h.079c5.906 0 11.496 2.607 15.328 7.151.731.869 1.778 1.323 2.825 1.323.83 0 1.679-.296 2.39-.869.158-.138.316-.296.454-.454 1.916-2.272 4.267-4.069 6.874-5.274a19.88 19.88 0 0 1 8.454-1.877l5.788.02a30.82 30.82 0 0 1 1.165 1.106c6.696 6.696 10.43 15.605 10.489 25.126z" fill="#fff"/><path d="M107.032 13.472l.079 18.667a44.09 44.09 0 0 0-4.642-5.393c-3.714-3.674-7.941-6.617-12.563-8.731l8.138-8.217a5.24 5.24 0 0 1 7.407-.02c1.007.968 1.56 2.291 1.58 3.694z" fill="#b2abac"/><path d="M104.168 103.921v64.672H93.008V129.66c0-2.272-1.837-4.109-4.109-4.109s-4.109 1.837-4.109 4.109v38.933H58.38V129.66c0-2.272-1.837-4.109-4.109-4.109s-4.109 1.837-4.109 4.109v38.933h-11.18l-.02-64.672c0-2.272.237-4.523.691-6.716l1.067 1.106a43.55 43.55 0 0 0 30.854 12.701h.178c11.714-.059 22.696-4.662 30.933-12.958.277-.257.514-.533.77-.81.494 2.193.711 4.405.711 6.677z" fill="#fff"/><path d="M88.781 41.205a4.43 4.43 0 0 1 4.425 4.425 4.42 4.42 0 0 1-4.425 4.425 4.43 4.43 0 0 1-4.425-4.425c0-2.43 1.995-4.425 4.425-4.425zm-3.576 26.311c1.778 1.027 2.39 3.279 1.363 5.057-1.225 2.133-3.141 3.714-5.373 4.563v9.086c0 5.274-4.306 9.58-9.58 9.58s-9.58-4.306-9.58-9.58v-9.086c-2.232-.849-4.148-2.43-5.373-4.563-1.027-1.778-.415-4.03 1.363-5.057s4.03-.415 5.057 1.363c.553.948 1.561 1.541 2.667 1.541s2.114-.593 2.667-1.541c1.027-1.778 3.279-2.39 5.057-1.363a3.61 3.61 0 0 1 1.363 1.363 3.08 3.08 0 0 0 2.647 1.541h.02a3.11 3.11 0 0 0 2.667-1.541c.988-1.778 3.259-2.39 5.037-1.363z" fill="#633"/><path d="M71.615 22.242c4.484.02 8.77.83 12.721 2.351-4.741.948-9.146 3.121-12.78 6.361a27.46 27.46 0 0 0-12.682-6.341c3.97-1.521 8.257-2.351 12.741-2.37z" fill="#b2abac"/><path d="M73.413 52.425c2.272 0 4.109 1.837 4.109 4.109s-1.837 4.109-4.109 4.109h-3.674c-2.272 0-4.109-1.837-4.109-4.109s1.837-4.109 4.109-4.109z" fill="#633"/><path d="M73.768 77.136v9.086c0 1.205-.968 2.173-2.173 2.173s-2.173-.968-2.173-2.173v-9.086c.77-.296 1.501-.672 2.173-1.126.691.454 1.422.83 2.173 1.126z" fill="#fe6865"/><path d="M54.371 41.363a4.42 4.42 0 1 1 0 8.849 4.42 4.42 0 1 1 0-8.849z" fill="#633"/><path d="M44.751 10.015l8.237 8.178c-6.854 3.22-12.741 8.178-17.106 14.301l-.079-18.746c0-1.402.533-2.726 1.521-3.714s2.291-1.541 3.694-1.56h.02c1.422.02 2.726.553 3.714 1.541zM30.746 168.593h-18.43v-3.437a1.68 1.68 0 0 1 1.679-1.679h6.321c1.462 0 2.805-.77 3.536-2.015s.77-2.805.079-4.069c-1.442-2.627-2.193-5.61-2.193-8.632 0-2.785.652-5.452 1.817-7.862.158-.336.336-.652.514-.988 1.58-2.785 3.872-5.136 6.657-6.756.02.02.02 30.558.02 35.437zm0-59.101v14.598c-4.326 1.6-8.217 4.346-11.2 7.941l-3.161-3.161c-9.916-9.916-10.825-25.482-2.706-36.425z" fill="#b2abac"/></svg>