<svg width="119.574" height="140" xmlns="http://www.w3.org/2000/svg"><g clip-rule="evenodd" fill-rule="evenodd"><path fill="#b07e09" d="M23.86 110.575l-1.92-.987-3.015 5.44 2.407 1.444zM89.083 114.668l-.416-.115.055-3.01h1.082l.962 1.682-.235 1.017 2.159 3.437.015 1.838-2.78 2.13.6-3.848-.926.17zM100.164 66.115l-2.515-2.204 1.909-.506 7.179 4.674-.08 2.956-2.385-2.46-1.854-1.297zM84.72 23.353l-.83-9.457-.497-4.48 1.825-1.992s2.655 3.816 1.991 4.48c-.663.664-.663 6.14-.663 6.14l.497 3.65-2.324 1.66zM70.853 35.38s-.072-4.59-1.22-4.66c-1.146-.072-1.648 1.935-1.362 3.37l.287 1.434 2.294-.144zM73.218 30.504l-1.864-4.589s.788-1.075 1.577-.86c.788.215 2.51 1.649 2.51 2.51 0 .86-.36 2.796-.646 3.083-.286.287-1.578-.144-1.578-.144zM41.812 34.448l-2.439 1.936s-2.079-4.733-3.083-5.736c-1.004-1.004-1.362-2.08-1.362-2.08l.86-.645-2.51-3.585 2.438.071-1.218-5.234 2.724 1.793s.861-1.22.861-2.152c0-.932 1.864 1.076 1.864 1.076l-.502.717-.359 2.653 1.506 7.529.574 3.083.948.605M77.766 92.987s-6.254 14.85-20.849 14.142c-14.595-.708-18.368-15.99-18.864-17.072-.495-1.082-1.19-23.234-1.19-23.234s-.1-13.032 5.26-15.456c5.362-2.425 18.467-1.92 18.467-1.92s13.106.707 15.587 2.93c2.482 2.223 5.758 7.779 5.857 12.527.1 4.747-1.389 19.294-2.283 22.325-.892 3.035-1.984 5.76-1.984 5.76zM39.631 7.168h.931c.395 1.905-.47 5.07-.62 7.448-1.011-1.596-.692-5.4-.31-7.448z"/><path d="M84.013 20.203c.97-.142.992.663.931 1.552-.962.052-1.398-1.093-.932-1.552z"/><path d="M38.7 21.134c.755.195.165 1.568-.62 1.241.05-.36-.07-.552-.311-.62.07-.447.927-.109.931-.621zM52.047 22.996c-.23 1.943-.56 3.785-1.862 4.655-.789-1.81-.098-4.584 1.864-4.655zM87.12 22.996v1.552c-.878.256-.804-.437-1.553-.31-.045-.977.797-1.067 1.553-1.242zM88.667 24.548c.732 1.26-1.04 2.676-1.552 3.725.423.715.544 1.731 1.863 1.551-.367 1.806-1.899 2.447-2.483 4.035-.145.662.443.591.93.62-1.766.965-3.32 3.66-4.965 3.725.37-5.023 2.52-10.924 6.207-13.656zM68.183 28.893c-3.954-.375-7.435-1.868-11.794-.931 1.729-3.273 10.6-1.994 11.793.93z" fill="#b07e09"/><path d="M54.216 33.549c.172-.967.254-2.023.621-2.794 1.152.317.766 3.102-.621 2.794z"/><path d="M72.842 35.1c3.053 3.377 5.716 11.202 2.793 16.76-5.309-.878-11.062 1.104-16.139.62-2.036-.194-4.441-1.226-6.828-1.862-3.507-.936-6.612-.794-8.069-3.103.133-6.281 1.327-11.501 5.276-13.966 2.555 1.617 5.168 1.048 8.69.93 5.165-.168 9.388 2.667 14.277.624zM42.114 34.48c1.393.262 2.489.821 2.794 2.172-.882.67-.965 2.14-1.552 3.103-2.107-1.535-3.359-3.147-1.242-5.276zM80.907 37.893c.985 1.04.842 3.701-.62 4.035-1.984-1.131-3.457-4.16.62-4.035zM36.217 50.926c-3.965 3.69-10.49 4.822-14.276 8.69-.622-1.55-.923-3.422-1.242-5.276 5.037-.045 10.468-2.35 15.518-3.416z" fill="#b07e09"/><path d="M44.287 51.547c.749.718-1.554 2.189-1.862 3.415-1.211 4.807 1.212 9.948 1.552 13.966.43 5.085-1.168 11.643 0 17.07-1.851-6.646-1.033-17.31-2.483-24.83-.659-3.416-.735-8.335 2.793-9.623z"/><path d="M55.459 53.1c1.503.51 5.243.783 8.38.621-.265 2.218-1.622 3.345-2.794 4.656-3.787.165-5.66-1.583-5.59-5.276z" fill="#b07e09"/><path d="M72.842 54.032c.009-.302.38-.24.62-.31 2.446.038 2.735 2.23 4.036 3.414.567 4.761-1.372 8.288-2.173 12.414-1.531 7.896.91 17.224-3.103 22.657-1.02-2.336 1.755-5.479 2.172-8.38.387-2.69-.58-6.994-.31-10.552.631-8.397 5.926-16.522-1.243-19.247z"/><path d="M79.36 54.032c2.493-.01 4.16.805 3.724 3.725-1.013-.642-1.986-1.325-2.173-2.793-1.159-.332-.884.77-1.862.62-.095-.721.055-1.192.316-1.553zM20.7 58.065c-.21.72-1.032.831-1.242 1.552-.744.123.172-1.414-.931-.931.043-.887 1.295-.566 2.172-.622zM17.906 58.997c-.255.883-.7 1.575-1.552 1.862.09-.19.772-1.195 0-1.242.046-.676.782-.666 1.552-.62zM15.733 59.929c-.21.72-1.031.83-1.242 1.551-.42-.096-.257-.777-.31-1.241.878.255.805-.436 1.552-.311zM11.078 61.17h1.552c-.116 1.022-1.65.627-1.552 1.863-.69-.13-.243-1.648 0-1.864zM9.837 62.103c-2.16.636-3.27 3.62-5.587 3.103.21-2.685 2.635-3.156 5.587-3.1zM103.255 66.446c.556-.04.655.38 1.241.31.088.812-.113 1.336-.93 1.242.125-.747-.566-.676-.311-1.553zM107.293 68.62c2.34 1.282 5.403 1.84 6.207 4.656-2.745.325-4.443-2.981-6.207-4.654zM36.838 84.14c.485 1.426.022 2.364-.31 3.724-1.112-.337-1.948-.949-2.794-1.552.003-2.264 1.116-2.52 3.104-2.174zM34.355 87.551c-.955 4.807-4.432 11.228-4.344 17.07-3.926.822-3.899-2.309-6.518-2.793 4.647-4.28 5.581-9.873 9.931-14.587.25.17.504.33.931.316zM81.529 88.172c1.25 1.354-.417 5.401-2.483 4.346 1.778-.496 1.182-3.372 2.485-4.344zM25.355 104.003c.906.334 1.005 1.478.931 2.793-1.218.183-.365-1.704-1.862-1.242.278-.55.749-.907.93-1.553zM23.803 107.104c1.569-.155.838 2.333.62 3.103-1.207-.26-1.724-2.304-.62-3.106zM88.357 109.588c1.502.141.774 2.088-.31 2.173-.246-1.077.465-1.197.31-2.174zM18.837 115.795c2.196.208.086 1.327-.31 2.483-.855 2.494-1.085 5.688-3.104 6.828-2.458-3.276 1.99-6.903 3.414-9.313zM92.394 121.38c1.445 1.978 5.486 7.48 2.173 9.312-1.738-2.09-1.608-6.052-2.174-9.313z" fill="#b07e09"/><path d="M39.32 16.168c.841.617 1.201-1.892 2.794-1.552.714 1.016-1.439 1.314-1.862 2.172.096.421.777.258 1.242.31-.203.936-1.22 1.058-1.552 1.863.095.421.777.257 1.24.31-.283.544-.576 1.078-1.551.931-.407 1.338 1.478.385 1.241 1.552-.407.317-1.143.305-1.551.621.731 3.82 1.523 7.581 2.173 11.484 1.262-2.247 3.368 1.192 4.655 1.862 1.655-.816 2.978-4.612 5.276-2.794.704-1.261.774-3.157 2.483-3.414-1.238-.922-1.857.199-2.793 0-4.047-.856-1.993-9.719 2.483-6.828.153 2.222-1.346 2.793-1.862 4.345.19 1.099 2.134-.229 3.104.62 3.533-3.678 13.773-2.555 15.208 2.173.697.178 2.762-.316 2.792-.31-1.99-.4 1.601.46.932.93 1.57-1.103 1.761-5.847-1.863-4.344-.01 1.355.857 1.833.93 3.103-1.135-1.12-2.404-3.316-1.24-4.966 1.478-.03 2.318.579 3.413.931.809 2.284.522 3.546.31 5.897-1.242 1.598-3.498.416-4.965-.31-.323.243 1.52 2.593.31 3.724-1.355-.093-.044-2.852-1.242-3.104-1.486.389-.678 2.07-.62 3.414 1.865.314 2.648-.455 4.034-.62 1.824.763 2.381 2.792 3.414 4.345 1.625-.444 2.135-2.004 4.656-1.552 1.721-4.033 2.234-8.316 5.276-11.483-.424-.922-1.33-1.36-2.173-1.862.864-.999 2.37-1.355 2.794-2.794-.468-.541-1.34.318-1.863-.62-.272-.997.805-.644.931-1.242-.395-1.686-1.777 1.066-2.172-.62.203-1.719 2.326.195 2.172-1.552-.605-1.075-1.24.38-1.862.31-.056-.875-1.475-.387-1.242-1.552h1.552c-1.265-1.695-.703-3.649-1.242-5.586-.825-2.976-3.882-4.87-3.724-7.45 1.844 1.364 2.542 3.873 4.035 5.587.97-2.63-2.115-3.882-2.793-5.896 2.869 1.494 5.585 4.736 5.897 7.759-.997.273-.426-1.023-1.242-.931-.633.09-.609.84-1.242.93.11 2.27.629 4.131 1.552 5.587.647-.594.002-2.48 1.242-2.483-.27-.453-.246-1.202-1.242-.93.45-.483.653-1.21.931-1.863 2.173 1.779-.664 6.565 1.242 7.449-1.172 2.025.666 3.564 0 5.897.273.55 1.246-.798 2.173-.621 1.568 1.634-.763 3.45-.931 5.276-.052.673 1.1.14 1.552.31-.33 1.738-.969 3.17-2.173 4.035.075.546.534.707 1.242.62-2.007 2.442-4.246 4.652-6.828 6.518-.24 3.07-2.26 4.362-4.345 5.587.212 3.109-.628 5.166-1.552 7.138.309.415.838.61.93 1.242 6.175-1.569 10.536 2.794 16.76 3.103-.382 2.081 1.75 2.83 4.035 3.104-.189 2.36 2.71 1.634 3.724 2.793-.128 1.19-1.814-.41-2.172.93 2.729.184 2.523 2.807 5.586 2.173.583.549-.369.907.31 1.552 5.98.228 7.775 4.641 12.104 6.518.06 2.209 2.956 4.595.311 5.896-.733-2.266-1.15-4.85-3.414-5.586-.292 2.172 3.549 5.45 1.552 8.38-1.675-1.843-.953-6.082-3.103-7.448-3.486-.343-3.75-3.906-6.518-4.966-.633.194-.087 1.568-1.242 1.241-.094-.94-.96-1.109-.62-2.482.407.11.488.546.93.62-.098-.72.05-1.191.311-1.552-.361.051-.553-.068-.62-.31-1.057.081-.879 1.398-1.553 1.862-.649-.282-.946-.916-.93-1.862-1.174-.45-.596.852-1.552.62-.848-.938.224-1.838.62-2.483-.034-.586-1.026-.215-.931-.93-.573.668-.287 2.195-1.862 1.862.055-1.061 1.035-2.224.31-3.104-1.301.25-2.073 1.03-2.793 1.862.216 2.616 2.425 4.766 2.172 6.828-3.86-6.176-8.327-11.743-15.207-14.898-.298 1.565-1.204 2.52-2.483 3.104 3.03 5.077.967 13.42-.31 20.173-.704 3.725.991 5.288 1.862 8.07.3.955-.002 2.145.31 3.103.753 2.313 2.821 3.97 4.035 5.897-.594 2.508 1.32 3.943 2.483 5.586-.034.587-1.026.215-.93.93.772 1.401 1.342 3.003 2.482 4.036-.263.668-.764 1.098-1.862.93.007 2.033 3.01 3.467.93 4.967 1.727 1.206 3.07 4.33 3.104 6.207 3.277 4.03 5.721 12.932 3.414 19.553-.867-1.674.061-6.017-.931-8.38-3.512.522-1.595 6.474-4.345 7.759 2.12-6.22.297-10.97 0-18.312-.273.865-1.54.737-1.552 1.862-1.5-.775-.057-2.87 0-4.034 1.248-.18-.155.918.31 1.862.508.587 1.214-1.252 2.173-1.242-.732-2.815-3.274-.245-4.345-.31.337-1.112.484-2.412.93-3.414.695.134.126 1.53.31 2.173.503-.429.764-1.098 1.863-.931-.052-1.19-1.122-1.361-1.552-2.173-1.205.037-.96 1.522-2.173 1.552.493-1.059.641-2.463.931-3.724.691.13.243 1.646 0 1.862.909.08.954-.701 1.863-.62-.554-.585-.84-1.437-1.552-1.863-1.047-.077-.9 1.857-1.863.93.48-.635.48-2.777 0-3.413-3.642.703-2.586 6.104-4.345 8.69-.744-8.218.564-20.44-4.345-25.45-1.598 5.09-5.526 5.667-6.828 9.932-1.025-.624-1.73.257-2.173 1.552-1.136-.23-.158-1.993 0-2.793-1.547.144-1.293 1.8-.93 3.103-2.02.606-3.77.715-4.656 2.173-1.099-.104-.763-.854-1.862-.31-.003-2.119 1.985-1.917 2.482-2.793-2.014-.477-4.486 1.53-6.207-.932 2.606.33 2.982-1.57 5.897-.93-.401 1.228 1.021.634.62 1.862 1.71.035 3.196-3.706 5.587-2.483.028-.847-.517-.625 0-1.241 7.305-3.84 9.798-15.744 10.863-28.244.683-8.025-1.819-17.942-7.139-18.932-1.92-.357-6.236-.1-7.448.31-2.71.917-2.054 4.82-4.346 6.208-1.073-.246-1.31.344-1.862.62-.764 14.651-1.641 29.188-2.793 43.452-2.972.116-3.903.105-5.897-.621-.846.285.434.97 0 1.862 1.962.28 2.192.41 3.414.621.673.052.14-1.101.31-1.552h1.553c-.153 1.015.828 2.151.31 3.414.649-.132.822.213 1.242.31.828-.8-.715-.326-.311-1.552 1.068.033.999-1.07 1.862-1.242-.412 1.934.691.425 1.241 1.242.4 1.537-2.57-.296-2.172 1.242.574.172 1.41-.366 2.794-.621-1.655 4.079-6.706-.082-8.38.931-.17-.45.362-1.604-.31-1.552-1.49-.052.665 1.092-.312 1.552-1.43-.67-3.413-1.265-3.103-2.793h-2.173c-.946-2.526-2.611-2.613-3.724-4.655 3.559 1.407 8.047 1.884 12.104 2.792 1.338-5.953 2.129-18.68 2.173-28.553.02-4.808 1.36-10.038.62-13.966-2.632-1.403-4.566-3.503-4.655-7.45-2.809-1.016-8.18-2.948-11.174-1.24-9.51 5.426-4.641 31.45-3.724 41.899 1.349 2.064 3.361 3.466 4.035 6.207-3.35-2.238-5.45-5.724-5.897-10.863-.367.357-1.097.351-1.862.31-3.566 7.09-5.3 16.012-6.208 25.76-1.228-2.288-.478-6.556-2.172-8.38-.705.33-.118 1.952-.31 2.794-.73-.099-.696-.961-1.242-1.242-1.436.602.065 2.269-.31 3.725-.847.225-.626-.617-1.242-.621-1.162.286-.405 2.493-.62 3.724-.195-1.93-2.38.063-2.174-2.172-1.134-.1-1.233.835-1.551 1.552.02.91.71 1.153 1.241 1.552.744.123-.172-1.413.931-.931.428.4.307 1.348.31 2.173-.548.576-.905-.135-1.551-.31-1.408 5.11-4.264 8.77-5.587 13.966-.991-1.182.622-4.967-1.241-5.276-2.212.684-.97 4.823-2.794 5.896-.219-10.357 6.805-13.472 9.622-20.794.83.411 1.115 1.368 1.862 1.862 1.254-.765.343-2.465-.62-2.793.118-2.503 4.552-6.41 0-7.138.728-2.557 3.054-2.996 4.034-4.656.142-.24-.623-.592-.62-.62.086-1.175 1.807-2.03 2.482-2.794.258-3.26 2.291-4.744 4.035-6.517.528-3.197 2.056-5.394 4.345-6.828.886-7.377-1.655-18.669 2.173-24.519-.904-1.165-2.003-2.136-2.793-3.414-6.272 2.936-12.518 5.897-16.45 11.173-.48-1.214 1.65-2.482 1.553-4.345-1.023.84-1.695 2.029-3.104 2.483-.127-.748.567-.675.31-1.552-.674.566-1.564.919-1.862 1.862-1.126-1.096-1.519-.02-2.482.621-.663.145-.591-.443-.621-.93-1.267.49-1.34 2.176-3.103 2.172-.04-.557.38-.655.31-1.242-3.76 1.89-5.897 3.505-7.449 7.449-1.766-1.37 2.282-4.264.621-5.587C2.91 66.548.8 68.06.213 70.17c-1.258-4.053 3.433-4.84 4.344-7.759 2.768-1.784 7.108-1.997 10.553-3.103.516-.975-1.155-1.269-.311-1.552 1.853 1.76 2.739-.899 5.276-.31.143-1.695-.389-2.715-1.552-3.104-.155-1.57 2.333-.84 3.104-.62 5.503-2.256 12.005-3.514 18.622-4.656.206.828.932 1.136 1.552 1.552 1.197-.044 1.434-1.049 2.793-.932-2.457-1.81-.647-4.608-1.241-7.138-.45-1.917-2.621-2.856-3.725-4.656-1.06-1.728-1.574-4.065-2.793-5.896-1.065-1.599-2.457-2.531-3.104-4.035.36-.26.832-.41 1.552-.31-.885-1.185-2.073-2.066-2.794-3.415.312-1.234 1.87-.297 2.794-.31-.284-1.993-1.716-2.837-1.552-5.276.944-.014 1.206.655 1.862.93-1.28 1.425 1.204 2.676.62 5.277-.948.224-1.13-.318-1.862-.31.063 1.315 3.836 3.07 1.242 4.034 1.659 1.859 3.011 4.024 4.034 6.518.772.048.961-.488 1.552-.62-2.365-4.05-1.78-11.048-4.966-14.277.873 1.921 1.866-1.899 1.862.31.557.04.655-.38 1.242-.31.297-1.125-1.34-.316-1.552-.931 1.062-5.51.025-15.128 4.673-19.27 1.42 1.729-2.264 2.896-1.552 5.897 1.531-1.676 2.325-4.09 4.656-4.966-2.732 3.268-4.36 7.64-4.345 13.656-.895.667-2.321.304-1.863 1.552zm.622-1.552c.15-2.379 1.015-5.543.62-7.448h-.93c-.382 2.049-.701 5.852.31 7.448zm-2.173 7.139c.242.068.361.26.311.62.785.327 1.376-1.046.62-1.241-.004.512-.86.174-.93.62zm12.415 5.896c1.302-.87 1.632-2.712 1.862-4.655-1.962.071-2.653 2.844-1.864 4.655zm35.382-3.414c.748-.126.675.567 1.552.31v-1.551c-.756.175-1.598.265-1.553 1.241zM82.46 38.204c1.645-.066 3.2-2.76 4.966-3.725-.488-.03-1.076.042-.931-.62.585-1.588 2.117-2.23 2.483-4.035-1.318.18-1.44-.837-1.862-1.552.511-1.048 2.284-2.464 1.552-3.725-3.687 2.733-5.836 8.634-6.207 13.657zM56.39 27.962c4.359-.937 7.841.556 11.794.93-1.192-2.924-10.064-4.203-11.793-.93zm11.793 6.828c-.711-1.422-.009-3.04 0-4.655-4.114-2.517-14.245-2.418-15.518 2.482 3.191 2.714 11.782-.542 15.52 2.173zm-9.618-.31c-3.523.116-6.135.686-8.69-.931-3.949 2.465-5.143 7.685-5.277 13.966 1.457 2.31 4.562 2.168 8.07 3.103 2.386.637 4.791 1.668 6.828 1.862 5.077.484 10.83-1.498 16.139-.62 2.922-5.558.26-13.383-2.794-16.76-4.889 2.045-9.112-.79-14.277-.62zm-15.209 5.275c.587-.964.67-2.433 1.552-3.103-.305-1.35-1.4-1.91-2.793-2.173-2.118 2.13-.866 3.741 1.241 5.276zm36.935 2.173c1.463-.334 1.606-2.995.62-4.035-4.082-.126-2.61 2.904-.62 4.035zm-40.66 12.104c-.464-.052-1.145.111-1.24-.31.549-1.21 1.167-2.35 2.482-2.794-.758-.69-1.76-1.137-3.414-.931.34 1.374-.526 1.543-.62 2.483.665.636 1.932 3.071 2.792 1.553zm-18.932.31c.319 1.855.62 3.726 1.242 5.277 3.787-3.868 10.31-5 14.276-8.69-5.05 1.067-10.48 3.371-15.518 3.416zm40.345 4.034c1.172-1.311 2.529-2.438 2.793-4.656-3.136.162-6.876-.111-8.38-.62-.064 3.692 1.81 5.44 5.591 5.275zm18.005-2.79c.977.149.702-.953 1.862-.621.186 1.469 1.159 2.151 2.172 2.793.437-2.92-1.23-3.735-3.724-3.725-.266.36-.416.832-.316 1.553zm4.964.931c5.103 1.83 8.03 5.833 12.415 8.38.121-1.43 1.13-1.975 2.483-2.173-3.745-3.807-9.049-6.056-15.208-7.448-.025.54.07.961.31 1.242zm-65.485 2.17c1.103-.483.188 1.053.931.93.21-.72 1.032-.83 1.242-1.552-.878.056-2.13-.265-2.173.622zm-2.173.93c.773.048.091 1.052 0 1.242.852-.286 1.298-.979 1.552-1.862-.77-.045-1.506-.055-1.552.621zm-2.172.622c.053.464-.11 1.146.31 1.242.21-.72 1.032-.831 1.242-1.552-.748-.125-.674.566-1.552.31zm-3.104 2.795c-.098-1.236 1.436-.84 1.552-1.862H11.08c-.243.216-.69 1.734 0 1.864zm-6.828 2.17c2.317.516 3.428-2.468 5.587-3.104-2.951-.05-5.377.421-5.587 3.106zm29.485 21.105c.845.603 1.681 1.215 2.793 1.552.332-1.36.795-2.299.31-3.725-1.988-.345-3.1-.09-3.103 2.17zm-.31.932c-4.35 4.714-5.284 10.307-9.932 14.587 2.62.484 2.593 3.615 6.518 2.793-.088-5.843 3.39-12.263 4.345-17.07-.427.01-.682-.15-.931-.316zm45.624 5.275c2.067 1.055 3.733-2.992 2.483-4.346-1.307.972-.711 3.848-2.485 4.344zm5.275 17.072c2.015-.26 3.1-1.452 5.276-1.552-2.613-5.73-3.46-11.346-7.448-15.518-.397.017-.43.398-.931.31-.344 2 1.142 2.168.93 4.036-.977.15-.232-1.424-.93-1.552.561 4.007 2.926 8.857 3.106 14.277zm-59.9-4.037c1.498-.463.645 1.424 1.863 1.242.074-1.316-.025-2.46-.931-2.794-.182.651-.653 1.007-.931 1.553zm0 4.659c.219-.77.95-3.259-.62-3.104-1.104.802-.587 2.846.62 3.106zm63.627 1.553c1.085-.086 1.813-2.032.31-2.173.15.977-.56 1.097-.31 2.174zm-72.628 13.345c2.019-1.14 2.248-4.333 3.103-6.828.396-1.156 2.506-2.275.31-2.483-1.423 2.41-5.872 6.037-3.413 9.313zm79.14 5.586c3.314-1.832-.727-7.334-2.172-9.311.571 3.261.441 7.224 2.174 9.313zm9.003-62.695c.818.094 1.019-.43.93-1.241-.586.07-.684-.35-1.24-.311-.256.877.435.807.31 1.553zm9.934 5.275c-.804-2.816-3.868-3.373-6.207-4.655 1.763 1.673 3.461 4.98 6.207 4.654z"/><path d="M52.668 32.617c1.274-4.9 11.405-5 15.519-2.482-.01 1.616-.712 3.233 0 4.655-3.743-2.715-12.334.541-15.52-2.173zm2.17-1.862c-.368.77-.45 1.826-.621 2.793 1.387.309 1.773-2.476.621-2.793zM36.838 52.48c.095-.94.96-1.11.62-2.484 1.655-.206 2.657.24 3.415.931-1.315.444-1.933 1.584-2.483 2.794.096.421.777.257 1.241.31-.86 1.518-2.127-.917-2.793-1.553zM81.218 95.311c.699.129-.047 1.701.93 1.552.212-1.867-1.274-2.036-.93-4.035.5.088.534-.293.93-.31 3.99 4.171 4.836 9.788 7.45 15.518-2.178.1-3.262 1.29-5.277 1.552-.18-5.42-2.545-10.27-3.106-14.277zM83.703 55.275c6.16 1.392 11.463 3.641 15.207 7.448-1.353.198-2.361.742-2.483 2.173-4.384-2.547-7.312-6.55-12.414-8.38-.24-.28-.336-.701-.31-1.242z" fill="#b07e09"/></g></svg>