<?xml version="1.0" encoding="UTF-8" standalone="no"?>
<!-- Generator: Adobe Illustrator 13.0.2, SVG Export Plug-In . SVG Version: 6.00 Build 14948)  -->

<svg
   id="Layer_1_xA0_Image_1_"
   xml:space="preserve"
   viewBox="0 0 119.57402 140"
   version="1.1"
   y="0px"
   x="0px"
   sodipodi:docname="johnny-automatic-chafer-bug.svg"
   width="119.57402"
   height="140"
   inkscape:version="1.2.2 (732a01da63, 2022-12-09)"
   xmlns:inkscape="http://www.inkscape.org/namespaces/inkscape"
   xmlns:sodipodi="http://sodipodi.sourceforge.net/DTD/sodipodi-0.dtd"
   xmlns="http://www.w3.org/2000/svg"
   xmlns:svg="http://www.w3.org/2000/svg"
   xmlns:rdf="http://www.w3.org/1999/02/22-rdf-syntax-ns#"
   xmlns:cc="http://creativecommons.org/ns#"
   xmlns:dc="http://purl.org/dc/elements/1.1/"><defs
   id="defs668" /><sodipodi:namedview
   id="namedview666"
   pagecolor="#ffffff"
   bordercolor="#000000"
   borderopacity="0.25"
   inkscape:showpageshadow="2"
   inkscape:pageopacity="0.0"
   inkscape:pagecheckerboard="0"
   inkscape:deskcolor="#d1d1d1"
   showgrid="false"
   inkscape:zoom="2.995555"
   inkscape:cx="119.51041"
   inkscape:cy="139.87391"
   inkscape:window-width="1920"
   inkscape:window-height="1017"
   inkscape:window-x="1912"
   inkscape:window-y="-8"
   inkscape:window-maximized="1"
   inkscape:current-layer="Layer_1_xA0_Image_1_" />
<g
   id="g661"
   transform="matrix(0.50095719,0,0,0.50095719,0.00274661,0.02905552)">
	<polygon
   style="clip-rule:evenodd;fill:#b07e09;fill-rule:evenodd"
   points="47.622,220.67 43.792,218.7 37.773,229.56 42.577,232.44 "
   id="polygon571" />
	<polygon
   style="clip-rule:evenodd;fill:#b07e09;fill-rule:evenodd"
   points="177.82,228.84 176.99,228.61 177.1,222.6 179.26,222.6 181.18,225.96 180.71,227.99 185.02,234.85 185.05,238.52 179.5,242.77 180.7,235.09 178.85,235.43 "
   id="polygon573" />
	<polygon
   style="clip-rule:evenodd;fill:#b07e09;fill-rule:evenodd"
   points="199.94,131.92 194.92,127.52 198.73,126.51 213.06,135.84 212.9,141.74 208.14,136.83 204.44,134.24 "
   id="polygon575" />
	<path
   style="clip-rule:evenodd;fill:#b07e09;fill-rule:evenodd"
   d="m 169.11,46.559 -1.656,-18.879 -0.993,-8.943 3.644,-3.975 c 0,0 5.3,7.618 3.975,8.943 -1.325,1.325 -1.325,12.255 -1.325,12.255 l 0.993,7.287 -4.64,3.312 z"
   id="path577" />
	<path
   style="clip-rule:evenodd;fill:#b07e09;fill-rule:evenodd"
   d="m 141.43,70.567 c 0,0 -0.144,-9.161 -2.434,-9.304 -2.29,-0.143 -3.292,3.865 -2.72,6.728 0.572,2.863 0.572,2.863 0.572,2.863 l 4.58,-0.287 z"
   id="path579" />
	<path
   style="clip-rule:evenodd;fill:#b07e09;fill-rule:evenodd"
   d="m 146.15,60.834 -3.721,-9.161 c 0,0 1.574,-2.146 3.148,-1.717 1.574,0.429 5.01,3.292 5.01,5.009 0,1.717 -0.716,5.582 -1.288,6.155 -0.572,0.573 -3.15,-0.286 -3.15,-0.286 z"
   id="path581" />
	<path
   style="clip-rule:evenodd;fill:#b07e09;fill-rule:evenodd"
   d="m 83.458,68.707 -4.867,3.864 c 0,0 -4.151,-9.447 -6.155,-11.451 -2.004,-2.004 -2.719,-4.151 -2.719,-4.151 l 1.717,-1.288 -5.01,-7.157 4.867,0.143 -2.433,-10.449 5.439,3.579 c 0,0 1.718,-2.433 1.718,-4.294 0,-1.861 3.721,2.147 3.721,2.147 l -1.002,1.431 -0.716,5.296 3.006,15.029 1.145,6.154 1.893,1.208"
   id="path583" />
	<path
   style="clip-rule:evenodd;fill:#b07e09;fill-rule:evenodd"
   d="m 155.23,185.56 c 0,0 -12.485,29.644 -41.619,28.231 -29.134,-1.413 -36.665,-31.918 -37.655,-34.079 -0.99,-2.161 -2.378,-46.38 -2.378,-46.38 0,0 -0.199,-26.013 10.503,-30.853 10.702,-4.84 36.862,-3.831 36.862,-3.831 0,0 26.161,1.411 31.115,5.848 4.954,4.437 11.494,15.528 11.692,25.005 0.198,9.477 -2.773,38.515 -4.558,44.565 -1.78,6.06 -3.96,11.5 -3.96,11.5 z"
   id="path585" />
	<g
   id="g659">
		<path
   style="clip-rule:evenodd;fill:#b07e09;fill-rule:evenodd"
   d="m 79.106,14.25 h 1.858 C 81.752,18.053 80.025,24.37 79.725,29.119 77.707,25.932 78.345,18.34 79.106,14.25 Z"
   id="path587" />
		<path
   style="clip-rule:evenodd;fill-rule:evenodd"
   d="m 167.7,40.27 c 1.936,-0.283 1.98,1.324 1.858,3.098 -1.92,0.104 -2.79,-2.18 -1.86,-3.098 z"
   id="path589" />
		<path
   style="clip-rule:evenodd;fill:#b07e09;fill-rule:evenodd"
   d="m 77.247,42.129 c 1.507,0.389 0.328,3.13 -1.239,2.478 0.101,-0.72 -0.137,-1.103 -0.62,-1.239 0.141,-0.892 1.85,-0.216 1.859,-1.239 z"
   id="path591" />
		<path
   style="clip-rule:evenodd;fill:#b07e09;fill-rule:evenodd"
   d="m 103.89,45.846 c -0.458,3.879 -1.119,7.555 -3.717,9.293 -1.575,-3.615 -0.196,-9.151 3.72,-9.293 z"
   id="path593" />
		<path
   style="clip-rule:evenodd;fill:#b07e09;fill-rule:evenodd"
   d="m 173.9,45.846 v 3.098 c -1.751,0.512 -1.604,-0.873 -3.098,-0.62 -0.09,-1.948 1.59,-2.128 3.1,-2.478 z"
   id="path595" />
		<path
   style="clip-rule:evenodd;fill:#b07e09;fill-rule:evenodd"
   d="m 176.99,48.944 c 1.461,2.516 -2.076,5.341 -3.098,7.435 0.844,1.428 1.086,3.457 3.718,3.098 -0.732,3.604 -3.79,4.883 -4.957,8.054 -0.289,1.322 0.886,1.18 1.859,1.239 -3.526,1.924 -6.63,7.304 -9.913,7.435 0.74,-10.028 5.03,-21.807 12.39,-27.261 z"
   id="path597" />
		<path
   style="clip-rule:evenodd;fill:#b07e09;fill-rule:evenodd"
   d="m 136.1,57.617 c -7.892,-0.748 -14.842,-3.729 -23.542,-1.858 3.45,-6.534 21.16,-3.981 23.54,1.858 z"
   id="path599" />
		<path
   style="clip-rule:evenodd;fill-rule:evenodd"
   d="m 108.22,66.911 c 0.342,-1.93 0.506,-4.038 1.239,-5.576 2.3,0.633 1.53,6.191 -1.24,5.576 z"
   id="path601" />
		<path
   style="clip-rule:evenodd;fill:#b07e09;fill-rule:evenodd"
   d="m 145.4,70.008 c 6.095,6.741 11.41,22.361 5.576,33.455 -10.598,-1.751 -22.082,2.205 -32.216,1.239 -4.066,-0.388 -8.866,-2.447 -13.63,-3.717 -7.002,-1.868 -13.2,-1.585 -16.108,-6.195 0.266,-12.538 2.65,-22.958 10.532,-27.879 5.101,3.229 10.316,2.092 17.347,1.858 10.31,-0.337 18.74,5.323 28.5,1.244 z"
   id="path603" />
		<path
   style="clip-rule:evenodd;fill:#b07e09;fill-rule:evenodd"
   d="m 84.062,68.769 c 2.78,0.524 4.968,1.641 5.576,4.337 -1.759,1.338 -1.926,4.27 -3.098,6.195 -4.205,-3.065 -6.704,-6.282 -2.478,-10.532 z"
   id="path605" />
		<path
   style="clip-rule:evenodd;fill:#b07e09;fill-rule:evenodd"
   d="m 161.5,75.584 c 1.966,2.075 1.681,7.388 -1.239,8.054 -3.96,-2.258 -6.9,-8.306 1.24,-8.054 z"
   id="path607" />
		<path
   style="clip-rule:evenodd;fill:#b07e09;fill-rule:evenodd"
   d="m 72.291,101.6 c -7.916,7.366 -20.939,9.625 -28.499,17.347 -1.24,-3.096 -1.842,-6.832 -2.478,-10.532 10.055,-0.09 20.895,-4.69 30.977,-6.82 z"
   id="path609" />
		<path
   style="clip-rule:evenodd;fill-rule:evenodd"
   d="m 88.399,102.84 c 1.495,1.432 -3.101,4.368 -3.717,6.815 -2.417,9.597 2.42,19.859 3.098,27.88 0.857,10.151 -2.331,23.242 0,34.074 -3.695,-13.267 -2.062,-34.552 -4.956,-49.563 -1.315,-6.82 -1.467,-16.64 5.575,-19.21 z"
   id="path611" />
		<path
   style="clip-rule:evenodd;fill:#b07e09;fill-rule:evenodd"
   d="m 110.7,105.94 c 3,1.017 10.467,1.562 16.727,1.239 -0.528,4.428 -3.236,6.676 -5.575,9.293 -7.56,0.33 -11.3,-3.16 -11.16,-10.53 z"
   id="path613" />
		<path
   style="clip-rule:evenodd;fill-rule:evenodd"
   d="m 145.4,107.8 c 0.018,-0.603 0.759,-0.481 1.239,-0.62 4.881,0.076 5.459,4.454 8.055,6.815 1.133,9.505 -2.739,16.544 -4.337,24.781 -3.057,15.762 1.817,34.383 -6.195,45.227 -2.035,-4.663 3.504,-10.936 4.336,-16.728 0.772,-5.369 -1.156,-13.96 -0.619,-21.064 1.26,-16.76 11.83,-32.98 -2.48,-38.42 z"
   id="path615" />
		<path
   style="clip-rule:evenodd;fill:#b07e09;fill-rule:evenodd"
   d="m 158.41,107.8 c 4.977,-0.02 8.306,1.607 7.435,7.435 -2.023,-1.281 -3.965,-2.644 -4.337,-5.576 -2.314,-0.662 -1.766,1.539 -3.717,1.239 -0.19,-1.44 0.11,-2.38 0.63,-3.1 z"
   id="path617" />
		<path
   style="clip-rule:evenodd;fill:#b07e09;fill-rule:evenodd"
   d="m 41.314,115.85 c -0.419,1.439 -2.059,1.659 -2.478,3.098 -1.485,0.246 0.343,-2.822 -1.859,-1.859 0.086,-1.77 2.585,-1.13 4.337,-1.24 z"
   id="path619" />
		<path
   style="clip-rule:evenodd;fill:#b07e09;fill-rule:evenodd"
   d="m 35.738,117.71 c -0.508,1.764 -1.398,3.145 -3.098,3.717 0.181,-0.38 1.542,-2.385 0,-2.478 0.091,-1.35 1.561,-1.33 3.098,-1.24 z"
   id="path621" />
		<path
   style="clip-rule:evenodd;fill:#b07e09;fill-rule:evenodd"
   d="m 31.401,119.57 c -0.419,1.439 -2.059,1.659 -2.479,3.098 -0.841,-0.192 -0.514,-1.551 -0.619,-2.479 1.752,0.51 1.606,-0.87 3.098,-0.62 z"
   id="path623" />
		<path
   style="clip-rule:evenodd;fill:#b07e09;fill-rule:evenodd"
   d="m 22.108,122.05 h 3.098 c -0.232,2.039 -3.293,1.25 -3.098,3.717 -1.379,-0.26 -0.485,-3.29 0,-3.72 z"
   id="path625" />
		<path
   style="clip-rule:evenodd;fill:#b07e09;fill-rule:evenodd"
   d="m 19.63,123.91 c -4.31,1.27 -6.527,7.225 -11.152,6.195 0.419,-5.36 5.261,-6.3 11.152,-6.19 z"
   id="path627" />
		<path
   style="clip-rule:evenodd;fill:#b07e09;fill-rule:evenodd"
   d="m 206.11,132.58 c 1.11,-0.079 1.307,0.758 2.478,0.62 0.175,1.62 -0.226,2.665 -1.858,2.478 0.25,-1.49 -1.13,-1.35 -0.62,-3.1 z"
   id="path629" />
		<path
   style="clip-rule:evenodd;fill:#b07e09;fill-rule:evenodd"
   d="m 214.17,136.92 c 4.67,2.559 10.785,3.672 12.391,9.293 -5.48,0.65 -8.87,-5.95 -12.39,-9.29 z"
   id="path631" />
		<path
   style="clip-rule:evenodd;fill:#b07e09;fill-rule:evenodd"
   d="m 73.53,167.9 c 0.967,2.847 0.043,4.72 -0.62,7.435 -2.219,-0.673 -3.888,-1.895 -5.576,-3.098 0.006,-4.52 2.227,-5.03 6.196,-4.34 z"
   id="path633" />
		<path
   style="clip-rule:evenodd;fill:#b07e09;fill-rule:evenodd"
   d="m 68.574,174.71 c -1.907,9.596 -8.848,22.412 -8.673,34.075 -7.836,1.641 -7.782,-4.609 -13.011,-5.576 9.277,-8.543 11.142,-19.708 19.825,-29.118 0.498,0.34 1.006,0.66 1.859,0.63 z"
   id="path635" />
		<path
   style="clip-rule:evenodd;fill:#b07e09;fill-rule:evenodd"
   d="m 162.74,175.95 c 2.495,2.702 -0.831,10.781 -4.956,8.674 3.55,-0.99 2.36,-6.73 4.96,-8.67 z"
   id="path637" />
		<path
   style="clip-rule:evenodd;fill:#b07e09;fill-rule:evenodd"
   d="m 50.607,207.55 c 1.81,0.668 2.006,2.95 1.859,5.576 -2.431,0.365 -0.729,-3.401 -3.717,-2.479 0.556,-1.1 1.495,-1.81 1.858,-3.1 z"
   id="path639" />
		<path
   style="clip-rule:evenodd;fill:#b07e09;fill-rule:evenodd"
   d="m 47.509,213.74 c 3.132,-0.309 1.674,4.657 1.239,6.195 -2.41,-0.52 -3.442,-4.6 -1.239,-6.2 z"
   id="path641" />
		<path
   style="clip-rule:evenodd;fill:#b07e09;fill-rule:evenodd"
   d="m 176.37,218.7 c 2.999,0.281 1.545,4.167 -0.619,4.337 -0.49,-2.15 0.93,-2.39 0.62,-4.34 z"
   id="path643" />
		<path
   style="clip-rule:evenodd;fill:#b07e09;fill-rule:evenodd"
   d="m 37.597,231.09 c 4.383,0.414 0.171,2.649 -0.62,4.956 -1.707,4.979 -2.166,11.354 -6.195,13.63 -4.908,-6.54 3.972,-13.78 6.815,-18.59 z"
   id="path645" />
		<path
   style="clip-rule:evenodd;fill:#b07e09;fill-rule:evenodd"
   d="m 184.43,242.24 c 2.884,3.946 10.95,14.929 4.337,18.586 -3.47,-4.17 -3.21,-12.08 -4.34,-18.59 z"
   id="path647" />
		<path
   style="clip-rule:evenodd;fill-rule:evenodd"
   d="m 78.486,32.216 c 1.677,1.232 2.396,-3.776 5.576,-3.098 1.424,2.029 -2.873,2.623 -3.717,4.336 0.191,0.841 1.551,0.514 2.478,0.62 -0.404,1.868 -2.433,2.11 -3.098,3.717 0.191,0.841 1.551,0.514 2.478,0.62 -0.566,1.086 -1.152,2.152 -3.098,1.858 -0.812,2.67 2.95,0.768 2.478,3.098 -0.813,0.633 -2.283,0.608 -3.097,1.24 1.46,7.626 3.04,15.133 4.337,22.923 2.52,-4.485 6.725,2.38 9.293,3.717 3.303,-1.628 5.944,-9.206 10.532,-5.576 1.406,-2.518 1.545,-6.303 4.957,-6.815 -2.471,-1.842 -3.707,0.396 -5.576,0 -8.078,-1.71 -3.979,-19.401 4.957,-13.63 0.305,4.435 -2.687,5.574 -3.717,8.673 0.378,2.193 4.259,-0.457 6.195,1.239 7.054,-7.343 27.494,-5.102 30.358,4.337 1.393,0.354 5.515,-0.632 5.575,-0.62 -3.972,-0.799 3.195,0.919 1.859,1.858 3.135,-2.204 3.516,-11.673 -3.718,-8.673 -0.021,2.706 1.711,3.659 1.858,6.195 -2.268,-2.237 -4.801,-6.62 -2.478,-9.913 2.952,-0.062 4.628,1.155 6.814,1.858 1.614,4.559 1.042,7.078 0.62,11.771 -2.481,3.19 -6.983,0.83 -9.913,-0.62 -0.644,0.487 3.034,5.177 0.62,7.435 -2.706,-0.186 -0.089,-5.693 -2.479,-6.195 -2.968,0.775 -1.355,4.13 -1.239,6.815 3.723,0.625 5.286,-0.909 8.054,-1.239 3.641,1.523 4.752,5.574 6.815,8.674 3.243,-0.887 4.261,-4 9.293,-3.098 3.436,-8.05 4.46,-16.6 10.532,-22.923 -0.846,-1.839 -2.656,-2.713 -4.337,-3.717 1.725,-1.993 4.73,-2.704 5.576,-5.576 -0.933,-1.081 -2.673,0.634 -3.718,-1.239 -0.543,-1.989 1.607,-1.284 1.859,-2.478 -0.789,-3.367 -3.548,2.128 -4.337,-1.239 0.405,-3.43 4.643,0.39 4.337,-3.098 -1.209,-2.145 -2.475,0.758 -3.718,0.62 -0.111,-1.747 -2.944,-0.772 -2.478,-3.098 h 3.098 c -2.526,-3.383 -1.405,-7.284 -2.479,-11.152 -1.648,-5.939 -7.751,-9.721 -7.435,-14.869 3.681,2.722 5.074,7.73 8.054,11.152 1.939,-5.252 -4.221,-7.75 -5.575,-11.771 5.727,2.982 11.149,9.454 11.771,15.488 -1.99,0.545 -0.849,-2.042 -2.478,-1.858 -1.264,0.182 -1.215,1.676 -2.479,1.858 0.218,4.532 1.255,8.246 3.098,11.152 1.291,-1.187 0.004,-4.952 2.479,-4.957 -0.541,-0.905 -0.492,-2.399 -2.479,-1.858 0.896,-0.963 1.304,-2.415 1.858,-3.717 4.338,3.55 -1.325,13.104 2.479,14.869 -2.339,4.042 1.33,7.115 0,11.771 0.545,1.099 2.488,-1.593 4.337,-1.239 3.131,3.262 -1.522,6.888 -1.858,10.532 -0.104,1.343 2.197,0.281 3.098,0.619 -0.66,3.47 -1.933,6.328 -4.337,8.054 0.149,1.09 1.065,1.412 2.479,1.239 -4.007,4.874 -8.476,9.285 -13.63,13.01 -0.479,6.13 -4.51,8.707 -8.674,11.152 0.424,6.206 -1.252,10.313 -3.098,14.25 0.617,0.828 1.674,1.216 1.858,2.478 12.325,-3.131 21.03,5.578 33.455,6.195 -0.762,4.154 3.495,5.65 8.054,6.195 -0.376,4.713 5.411,3.263 7.435,5.576 -0.256,2.376 -3.621,-0.819 -4.336,1.858 5.447,0.366 5.037,5.603 11.151,4.337 1.163,1.095 -0.737,1.809 0.619,3.098 11.938,0.454 15.519,9.264 24.162,13.01 0.118,4.41 5.9,9.174 0.62,11.771 -1.464,-4.525 -2.295,-9.683 -6.815,-11.151 -0.583,4.336 7.084,10.877 3.098,16.728 -3.343,-3.679 -1.902,-12.141 -6.195,-14.869 -6.958,-0.683 -7.486,-7.796 -13.01,-9.913 -1.264,0.389 -0.174,3.131 -2.479,2.479 -0.189,-1.876 -1.917,-2.214 -1.239,-4.956 0.813,0.219 0.975,1.091 1.858,1.238 -0.197,-1.437 0.1,-2.378 0.62,-3.097 -0.721,0.101 -1.103,-0.137 -1.239,-0.62 -2.108,0.163 -1.753,2.79 -3.098,3.717 -1.296,-0.562 -1.889,-1.828 -1.858,-3.717 -2.343,-0.897 -1.189,1.702 -3.098,1.239 -1.692,-1.874 0.449,-3.671 1.238,-4.957 -0.068,-1.17 -2.048,-0.43 -1.858,-1.858 -1.143,1.335 -0.573,4.383 -3.717,3.717 0.109,-2.118 2.066,-4.438 0.619,-6.196 -2.598,0.5 -4.138,2.057 -5.576,3.717 0.431,5.222 4.841,9.514 4.337,13.63 -7.705,-12.327 -16.623,-23.44 -30.357,-29.738 -0.594,3.124 -2.403,5.031 -4.956,6.195 6.05,10.135 1.93,26.788 -0.619,40.27 -1.406,7.435 1.979,10.556 3.717,16.108 0.597,1.907 -0.003,4.282 0.619,6.195 1.503,4.616 5.631,7.923 8.055,11.771 -1.186,5.007 2.635,7.871 4.956,11.151 -0.068,1.171 -2.048,0.43 -1.858,1.858 1.542,2.796 2.681,5.993 4.956,8.055 -0.525,1.333 -1.525,2.191 -3.717,1.858 0.014,4.057 6.009,6.919 1.858,9.913 3.445,2.407 6.127,8.645 6.195,12.391 6.541,8.044 11.42,25.814 6.814,39.031 -1.731,-3.342 0.123,-12.012 -1.858,-16.728 -7.011,1.042 -3.184,12.924 -8.674,15.488 4.234,-12.417 0.593,-21.899 0,-36.553 -0.545,1.726 -3.073,1.47 -3.098,3.717 -2.993,-1.548 -0.113,-5.729 0,-8.054 2.492,-0.36 -0.308,1.833 0.62,3.717 1.013,1.172 2.422,-2.499 4.337,-2.478 -1.461,-5.62 -6.536,-0.49 -8.674,-0.62 0.673,-2.219 0.967,-4.815 1.858,-6.814 1.386,0.267 0.251,3.053 0.62,4.337 1.002,-0.856 1.524,-2.192 3.717,-1.859 -0.104,-2.374 -2.24,-2.716 -3.098,-4.337 -2.405,0.073 -1.918,3.039 -4.337,3.098 0.983,-2.113 1.279,-4.916 1.858,-7.434 1.379,0.26 0.485,3.287 0,3.717 1.814,0.161 1.904,-1.4 3.718,-1.239 -1.105,-1.166 -1.676,-2.867 -3.098,-3.717 -2.089,-0.153 -1.797,3.706 -3.718,1.858 0.959,-1.269 0.959,-5.546 0,-6.815 -7.271,1.403 -5.162,12.185 -8.673,17.348 -1.486,-16.405 1.125,-40.803 -8.674,-50.803 -3.19,10.161 -11.031,11.311 -13.63,19.825 -2.046,-1.246 -3.453,0.513 -4.337,3.098 -2.268,-0.459 -0.316,-3.977 0,-5.575 -3.088,0.288 -2.581,3.594 -1.858,6.195 -4.031,1.209 -7.523,1.427 -9.294,4.337 -2.193,-0.207 -1.522,-1.705 -3.717,-0.62 -0.005,-4.228 3.964,-3.826 4.956,-5.575 -4.022,-0.951 -8.955,3.056 -12.391,-1.859 5.202,0.659 5.953,-3.133 11.771,-1.858 -0.8,2.452 2.039,1.266 1.239,3.718 3.413,0.069 6.378,-7.399 11.151,-4.957 0.056,-1.69 -1.032,-1.247 0,-2.478 14.583,-7.665 19.559,-31.427 21.685,-56.379 1.364,-16.02 -3.63,-35.815 -14.25,-37.792 -3.834,-0.713 -12.448,-0.199 -14.869,0.62 -5.409,1.829 -4.099,9.62 -8.674,12.391 -2.142,-0.491 -2.615,0.688 -3.717,1.239 -1.525,29.246 -3.277,58.264 -5.576,86.736 -5.932,0.233 -7.791,0.211 -11.771,-1.239 -1.688,0.57 0.866,1.938 0,3.718 3.917,0.559 4.375,0.816 6.815,1.239 1.344,0.104 0.281,-2.198 0.62,-3.098 h 3.098 c -0.305,2.026 1.653,4.294 0.62,6.814 1.295,-0.263 1.641,0.425 2.478,0.62 1.654,-1.599 -1.426,-0.652 -0.62,-3.098 2.132,0.066 1.994,-2.137 3.717,-2.479 -0.823,3.86 1.38,0.848 2.478,2.479 0.797,3.068 -5.133,-0.591 -4.336,2.478 1.145,0.344 2.815,-0.73 5.576,-1.239 -3.303,8.142 -13.386,-0.164 -16.728,1.859 -0.339,-0.9 0.724,-3.202 -0.62,-3.098 -2.971,-0.104 1.329,2.18 -0.62,3.098 -2.855,-1.339 -6.813,-2.525 -6.195,-5.576 h -4.337 c -1.89,-5.042 -5.213,-5.215 -7.435,-9.293 7.104,2.809 16.064,3.761 24.162,5.575 2.672,-11.884 4.25,-37.29 4.337,-56.997 0.042,-9.598 2.715,-20.039 1.239,-27.88 -5.255,-2.799 -9.116,-6.992 -9.293,-14.869 -5.606,-2.029 -16.328,-5.887 -22.304,-2.478 -18.986,10.832 -9.266,62.779 -7.435,83.638 2.693,4.122 6.71,6.92 8.054,12.391 -6.685,-4.467 -10.877,-11.426 -11.771,-21.684 -0.732,0.713 -2.19,0.701 -3.717,0.619 -7.117,14.154 -10.579,31.963 -12.391,51.422 -2.453,-4.568 -0.955,-13.088 -4.337,-16.728 -1.406,0.659 -0.236,3.895 -0.62,5.576 -1.455,-0.197 -1.387,-1.918 -2.478,-2.479 -2.866,1.202 0.131,4.529 -0.62,7.435 -1.69,0.451 -1.247,-1.23 -2.478,-1.239 -2.319,0.572 -0.808,4.976 -1.239,7.435 -0.387,-3.852 -4.751,0.124 -4.337,-4.336 -2.264,-0.2 -2.462,1.667 -3.098,3.098 0.042,1.816 1.417,2.301 2.479,3.098 1.484,0.245 -0.344,-2.822 1.858,-1.859 0.854,0.799 0.613,2.691 0.62,4.337 -1.095,1.15 -1.809,-0.269 -3.098,-0.619 -2.81,10.201 -8.512,17.509 -11.152,27.879 -1.979,-2.358 1.242,-9.915 -2.478,-10.532 -4.416,1.367 -1.937,9.629 -5.576,11.771 -0.437,-20.675 13.583,-26.894 19.206,-41.509 1.656,0.821 2.226,2.73 3.717,3.717 2.503,-1.527 0.685,-4.922 -1.239,-5.576 0.237,-4.997 9.089,-12.795 0,-14.249 1.455,-5.104 6.098,-5.98 8.054,-9.293 0.284,-0.481 -1.244,-1.183 -1.239,-1.239 0.174,-2.345 3.608,-4.053 4.957,-5.576 0.514,-6.507 4.573,-9.47 8.054,-13.01 1.054,-6.381 4.103,-10.767 8.674,-13.63 1.768,-14.726 -3.305,-37.266 4.337,-48.944 -1.805,-2.326 -3.998,-4.263 -5.576,-6.815 -12.52,5.86 -24.988,11.771 -32.835,22.304 -0.959,-2.423 3.292,-4.955 3.098,-8.674 -2.042,1.675 -3.384,4.05 -6.195,4.957 -0.254,-1.493 1.131,-1.347 0.619,-3.098 -1.347,1.13 -3.123,1.833 -3.717,3.717 -2.248,-2.188 -3.033,-0.041 -4.956,1.239 -1.322,0.29 -1.18,-0.885 -1.239,-1.858 -2.53,0.98 -2.676,4.345 -6.195,4.337 -0.079,-1.111 0.758,-1.307 0.62,-2.479 -7.506,3.773 -11.772,6.996 -14.869,14.869 -3.527,-2.736 4.555,-8.512 1.239,-11.152 -0.813,2.684 -5.022,5.701 -6.195,9.913 -2.51,-8.09 6.854,-9.663 8.673,-15.488 5.525,-3.562 14.188,-3.986 21.064,-6.195 1.031,-1.946 -2.304,-2.532 -0.62,-3.098 3.698,3.513 5.467,-1.794 10.532,-0.62 0.285,-3.383 -0.776,-5.419 -3.098,-6.195 -0.309,-3.132 4.657,-1.675 6.195,-1.239 10.986,-4.502 23.965,-7.012 37.173,-9.293 0.412,1.653 1.861,2.269 3.098,3.098 2.39,-0.088 2.863,-2.093 5.576,-1.859 -4.904,-3.613 -1.292,-9.2 -2.478,-14.25 -0.899,-3.826 -5.232,-5.7 -7.435,-9.293 -2.114,-3.45 -3.141,-8.115 -5.576,-11.771 -2.125,-3.191 -4.904,-5.052 -6.196,-8.054 0.719,-0.52 1.661,-0.817 3.098,-0.62 C 68.66,52.77 66.288,51.012 64.849,48.32 65.472,45.857 68.583,47.726 70.425,47.7 69.859,43.723 67,42.038 67.327,37.168 c 1.886,-0.027 2.409,1.308 3.717,1.859 -2.556,2.843 2.404,5.34 1.239,10.532 -1.893,0.447 -2.258,-0.634 -3.717,-0.62 0.126,2.626 7.657,6.131 2.478,8.054 3.312,3.71 6.011,8.033 8.054,13.011 1.541,0.096 1.918,-0.974 3.098,-1.239 -4.722,-8.082 -3.555,-22.053 -9.913,-28.499 1.741,3.836 3.724,-3.789 3.717,0.62 1.111,0.079 1.307,-0.758 2.478,-0.62 0.593,-2.245 -2.674,-0.63 -3.098,-1.858 C 77.501,27.41 75.431,8.211 84.709,-0.058 87.544,3.393 80.188,5.722 81.611,11.713 84.667,8.367 86.252,3.55 90.904,1.8 85.45,8.324 82.2,17.051 82.231,29.06 c -1.787,1.332 -4.633,0.607 -3.718,3.098 z m 1.24,-3.097 C 80.025,24.37 81.752,18.053 80.965,14.25 h -1.858 c -0.762,4.09 -1.4,11.682 0.619,14.869 z m -4.337,14.249 c 0.483,0.137 0.72,0.519 0.62,1.239 1.567,0.652 2.746,-2.089 1.239,-2.478 -0.01,1.023 -1.719,0.347 -1.859,1.239 z m 24.781,11.771 c 2.599,-1.738 3.259,-5.414 3.717,-9.293 -3.916,0.142 -5.295,5.678 -3.72,9.293 z m 70.63,-6.815 c 1.493,-0.253 1.347,1.131 3.098,0.62 v -3.098 c -1.51,0.35 -3.19,0.53 -3.1,2.478 z m -6.2,27.88 c 3.283,-0.131 6.387,-5.511 9.913,-7.435 -0.974,-0.059 -2.148,0.083 -1.859,-1.239 1.167,-3.17 4.225,-4.45 4.957,-8.054 -2.632,0.359 -2.874,-1.67 -3.718,-3.098 1.021,-2.093 4.559,-4.919 3.098,-7.435 -7.36,5.455 -11.65,17.234 -12.39,27.261 z M 112.56,55.759 c 8.7,-1.871 15.651,1.11 23.542,1.858 -2.38,-5.839 -20.09,-8.392 -23.54,-1.858 z m 23.54,13.63 c -1.42,-2.838 -0.018,-6.067 0,-9.293 -8.212,-5.024 -28.435,-4.826 -30.977,4.956 6.37,5.417 23.52,-1.082 30.98,4.337 z m -19.2,-0.62 c -7.031,0.233 -12.246,1.371 -17.347,-1.858 -7.882,4.922 -10.266,15.341 -10.532,27.879 2.908,4.61 9.105,4.328 16.108,6.195 4.764,1.271 9.564,3.33 13.63,3.717 10.134,0.966 21.618,-2.991 32.216,-1.239 5.834,-11.094 0.519,-26.714 -5.576,-33.455 -9.76,4.082 -18.19,-1.578 -28.5,-1.236 z M 86.541,79.301 c 1.172,-1.926 1.338,-4.857 3.098,-6.195 -0.608,-2.696 -2.796,-3.812 -5.576,-4.337 -4.227,4.25 -1.728,7.467 2.478,10.532 z m 73.729,4.337 c 2.92,-0.666 3.205,-5.979 1.239,-8.054 -8.15,-0.252 -5.21,5.796 -1.24,8.054 z M 79.106,107.8 c -0.927,-0.105 -2.287,0.221 -2.478,-0.62 1.097,-2.414 2.331,-4.69 4.956,-5.576 -1.512,-1.379 -3.512,-2.27 -6.815,-1.859 0.678,2.743 -1.049,3.081 -1.239,4.957 1.329,1.27 3.859,6.13 5.576,3.1 z m -37.792,0.62 c 0.636,3.701 1.238,7.436 2.478,10.532 7.56,-7.722 20.583,-9.981 28.499,-17.347 -10.082,2.13 -20.922,6.73 -30.977,6.82 z m 80.536,8.05 c 2.339,-2.617 5.047,-4.865 5.575,-9.293 -6.26,0.323 -13.727,-0.222 -16.727,-1.239 -0.13,7.37 3.61,10.86 11.16,10.53 z m 35.94,-5.57 c 1.951,0.299 1.402,-1.901 3.717,-1.239 0.372,2.933 2.313,4.295 4.337,5.576 0.871,-5.828 -2.458,-7.455 -7.435,-7.435 -0.53,0.72 -0.83,1.66 -0.63,3.1 z m 9.91,1.86 c 10.185,3.652 16.03,11.643 24.782,16.728 0.242,-2.855 2.254,-3.942 4.956,-4.337 -7.476,-7.601 -18.062,-12.09 -30.357,-14.869 -0.05,1.08 0.14,1.92 0.62,2.48 z m -130.72,4.33 c 2.202,-0.963 0.374,2.104 1.859,1.859 0.419,-1.439 2.059,-1.659 2.478,-3.098 -1.752,0.11 -4.251,-0.53 -4.337,1.24 z m -4.337,1.86 c 1.542,0.093 0.181,2.098 0,2.478 1.7,-0.572 2.59,-1.954 3.098,-3.717 -1.537,-0.09 -3.007,-0.11 -3.098,1.24 z m -4.336,1.24 c 0.105,0.927 -0.222,2.287 0.619,2.479 0.419,-1.439 2.059,-1.659 2.479,-3.098 -1.493,-0.25 -1.347,1.13 -3.098,0.62 z m -6.196,5.58 c -0.196,-2.468 2.866,-1.678 3.098,-3.717 h -3.098 c -0.485,0.43 -1.379,3.46 0,3.72 z m -13.63,4.33 c 4.625,1.03 6.842,-4.925 11.152,-6.195 -5.891,-0.1 -10.733,0.84 -11.152,6.2 z m 58.856,42.13 c 1.688,1.203 3.357,2.425 5.576,3.098 0.663,-2.715 1.587,-4.588 0.62,-7.435 -3.969,-0.69 -6.19,-0.18 -6.196,4.33 z m -0.619,1.86 c -8.684,9.41 -10.548,20.575 -19.825,29.118 5.229,0.967 5.175,7.217 13.011,5.576 -0.175,-11.663 6.767,-24.479 8.673,-34.075 -0.853,0.02 -1.361,-0.3 -1.859,-0.63 z m 91.075,10.53 c 4.125,2.107 7.451,-5.972 4.956,-8.674 -2.61,1.94 -1.42,7.68 -4.96,8.67 z m 10.53,34.08 c 4.022,-0.521 6.187,-2.899 10.532,-3.098 -5.217,-11.438 -6.907,-22.649 -14.869,-30.977 -0.792,0.034 -0.858,0.794 -1.858,0.619 -0.687,3.99 2.28,4.327 1.858,8.055 -1.952,0.299 -0.464,-2.841 -1.858,-3.098 1.12,8 5.84,17.68 6.2,28.5 z m -119.57,-8.06 c 2.988,-0.923 1.286,2.844 3.717,2.479 0.147,-2.626 -0.049,-4.908 -1.859,-5.576 -0.363,1.3 -1.302,2.01 -1.858,3.1 z m 0,9.3 c 0.435,-1.538 1.893,-6.504 -1.239,-6.195 -2.204,1.6 -1.172,5.68 1.239,6.2 z m 127.01,3.1 c 2.164,-0.17 3.618,-4.056 0.619,-4.337 0.3,1.95 -1.12,2.19 -0.62,4.34 z m -144.98,26.64 c 4.03,-2.276 4.488,-8.65 6.195,-13.63 0.791,-2.307 5.002,-4.542 0.62,-4.956 -2.843,4.81 -11.723,12.05 -6.815,18.59 z m 157.98,11.15 c 6.613,-3.657 -1.453,-14.64 -4.337,-18.586 1.14,6.51 0.88,14.42 4.34,18.59 z m 17.97,-125.15 c 1.633,0.187 2.033,-0.858 1.858,-2.478 -1.171,0.139 -1.367,-0.698 -2.478,-0.62 -0.51,1.75 0.87,1.61 0.62,3.1 z m 19.83,10.53 c -1.605,-5.621 -7.721,-6.734 -12.391,-9.293 3.52,3.34 6.91,9.94 12.39,9.29 z"
   id="path649" />
		<path
   style="clip-rule:evenodd;fill:#b07e09;fill-rule:evenodd"
   d="m 105.13,65.052 c 2.542,-9.782 22.765,-9.98 30.977,-4.956 -0.018,3.226 -1.42,6.455 0,9.293 -7.47,-5.419 -24.62,1.08 -30.98,-4.337 z m 4.33,-3.718 c -0.733,1.539 -0.897,3.646 -1.239,5.576 2.77,0.616 3.54,-4.942 1.24,-5.576 z"
   id="path651" />
		<path
   style="clip-rule:evenodd;fill:#b07e09;fill-rule:evenodd"
   d="m 73.53,104.7 c 0.189,-1.875 1.917,-2.213 1.239,-4.957 3.303,-0.411 5.303,0.479 6.815,1.859 -2.625,0.885 -3.859,3.162 -4.956,5.576 0.191,0.841 1.551,0.514 2.478,0.62 -1.717,3.03 -4.247,-1.83 -5.576,-3.1 z"
   id="path653" />
		<path
   style="clip-rule:evenodd;fill:#b07e09;fill-rule:evenodd"
   d="m 162.12,190.2 c 1.395,0.257 -0.094,3.396 1.858,3.098 0.422,-3.728 -2.545,-4.064 -1.858,-8.055 1,0.175 1.066,-0.585 1.858,-0.619 7.962,8.327 9.652,19.539 14.869,30.977 -4.346,0.198 -6.51,2.577 -10.532,3.098 -0.36,-10.82 -5.08,-20.5 -6.2,-28.5 z"
   id="path655" />
		<path
   style="clip-rule:evenodd;fill:#b07e09;fill-rule:evenodd"
   d="m 167.08,110.28 c 12.296,2.779 22.882,7.269 30.357,14.869 -2.702,0.395 -4.714,1.481 -4.956,4.337 -8.752,-5.085 -14.598,-13.076 -24.782,-16.728 -0.48,-0.56 -0.67,-1.4 -0.62,-2.48 z"
   id="path657" />
	</g>
</g>
<metadata
   id="metadata663"><rdf:RDF><cc:Work><dc:format>image/svg+xml</dc:format><dc:type
         rdf:resource="http://purl.org/dc/dcmitype/StillImage" /><cc:license
         rdf:resource="http://creativecommons.org/licenses/publicdomain/" /><dc:publisher><cc:Agent
           rdf:about="http://openclipart.org/"><dc:title>Openclipart</dc:title></cc:Agent></dc:publisher><dc:title>chafer bug</dc:title><dc:date>2007-10-02T03:00:10</dc:date><dc:description>DIRECTIONS FOR COLLECTING AND\nPRESERVING INSECTS.\n\nBY C. V. RILEY, M. A., PH. D.,\n\n1892</dc:description><dc:source>https://openclipart.org/detail/6572/chafer-bug-by-johnny_automatic-6572</dc:source><dc:creator><cc:Agent><dc:title>johnny_automatic</dc:title></cc:Agent></dc:creator><dc:subject><rdf:Bag><rdf:li>animal</rdf:li><rdf:li>chafer</rdf:li><rdf:li>externalsource</rdf:li><rdf:li>insect</rdf:li></rdf:Bag></dc:subject></cc:Work><cc:License
       rdf:about="http://creativecommons.org/licenses/publicdomain/"><cc:permits
         rdf:resource="http://creativecommons.org/ns#Reproduction" /><cc:permits
         rdf:resource="http://creativecommons.org/ns#Distribution" /><cc:permits
         rdf:resource="http://creativecommons.org/ns#DerivativeWorks" /></cc:License></rdf:RDF></metadata></svg>
