<svg xmlns="http://www.w3.org/2000/svg" xmlns:xlink="http://www.w3.org/1999/xlink" width="145.952" height="107.103" viewBox="0 0 186.818 137.092" xmlns:v="https://vecta.io/nano"><path d="M186.818 64.711c0 6.106-4.543 11.129-10.316 11.588l-.083 48.101c0 6.44-5.252 11.692-11.692 11.692h-19.778c-5.335 0-9.941-3.189-12.004-7.753h-14.443c-7.273 0-13.192-5.919-13.192-13.192 0-.271.021-.542.021-.813-6.106-.146-12.192-.771-18.257-1.855-3.168 9.462-11.588 16.277-21.529 17.402a11.11 11.11 0 0 1-1.48.083c-2.772 0-5.419-.896-7.628-2.459-4.731 5.835-11.942 9.587-20.028 9.587-7.273 0-13.192-5.919-13.192-13.192 0-4.252 2.063-8.253 5.523-10.733 2.501-1.792 4.001-4.835 4.022-8.128l.125-16.902a3.73 3.73 0 0 1 .313-1.459c-9.024-1.959-17.215-6.502-23.175-12.88C3.564 66.879 0 58.125 0 49.143 0 41.786 2.313 34.7 6.711 28.531c-1.438-2.959-2.209-6.398-2.209-9.941C4.502 8.17 10.775 0 18.799 0c3.981 0 7.649 2.042 10.275 5.606 4.543-2.147 9.503-3.251 14.547-3.251S53.624 3.48 58.167 5.606C60.814 2.042 64.482 0 68.442 0c7.211 0 13.026 6.607 14.109 15.527l43.349.042c8.336.396 18.361 4.022 27.718 10.045 11.838 7.628 20.091 17.882 22.258 27.239.063.083.104.167.146.25 6.023.229 10.796 5.356 10.796 11.608z" fill="#633"/><path d="M176.544 60.626c1.646.459 2.855 2.105 2.855 4.085s-1.23 3.647-2.876 4.106z" fill="#fff"/><path d="M149.659 31.845c11.463 7.399 19.445 17.986 19.424 25.78l-.062 66.795a4.28 4.28 0 0 1-4.272 4.272H144.97c-3.189 0-5.773-2.584-5.773-5.773s2.584-5.773 5.773-5.773h4.085a3.72 3.72 0 0 0 3.71-3.71c0-1.521-.917-2.834-2.23-3.397-7.565-3.689-14.339-8.691-20.049-14.693a69.95 69.95 0 0 1-13.651-20.841c-6.69-15.735-7.399-33.366-1.98-49.643.208-.625.25-1.292.125-1.897h9.92c7.148.104 16.173 3.355 24.759 8.878z" fill="#b2abac"/><path d="M142.865 82.092c1.376 1.521 1.271 3.856-.25 5.231-.709.646-1.605.959-2.501.959-1 0-2.001-.417-2.751-1.209-4.502-4.96-8.128-10.587-10.754-16.756a59.21 59.21 0 0 1-4.335-16.423c-.229-2.042 1.23-3.876 3.251-4.106 2.042-.229 3.876 1.23 4.106 3.251.563 4.96 1.855 9.774 3.793 14.38a53.08 53.08 0 0 0 9.441 14.672z" fill="#633"/><path d="M137.175 110.77l1.125.771c-3.355 1.98-5.773 5.398-6.377 9.42h-13.401c-3.189 0-5.773-2.584-5.773-5.773a4.02 4.02 0 0 1 .083-.875c3.856-.146 7.711-.5 11.546-1.042.333-.042 8.857-1.501 12.796-2.501z" fill="#b2abac"/><path d="M129.693 104.851l-6.148 1.021c-12.817 1.813-25.759 1.355-38.472-1.355-4.085-.854-8.149-1.938-12.15-3.272a117.64 117.64 0 0 0 7.961-31.928c4.168-6.044 6.44-13.046 6.44-20.216 0-7.357-2.313-14.443-6.711-20.612.834-1.709 1.438-3.605 1.792-5.585h25.28c-5.835 17.882-5.002 37.18 2.334 54.437 4.481 10.629 11.233 19.986 19.674 27.51zM73.298 31.157c4.314 5.294 6.607 11.504 6.607 17.965 0 7.211-2.772 13.984-8.024 19.611-2.959 3.168-6.607 5.794-10.671 7.732 1.709-2.042 2.709-4.668 2.709-7.544 0-1.834-1.501-3.335-3.335-3.335s-3.335 1.501-3.335 3.335a5.17 5.17 0 0 1-5.169 5.169 5.17 5.17 0 0 1-5.169-5.169v-1.709a7.08 7.08 0 0 0 1.917-1.376l2.626-2.626c1.313-1.313 1.313-3.418 0-4.71a3.31 3.31 0 0 0-4.71 0l-2.626 2.626c-.25.25-.646.25-.875 0L40.617 58.5c-1.313-1.313-3.418-1.313-4.71 0a3.31 3.31 0 0 0 0 4.71l2.626 2.626a7.34 7.34 0 0 0 1.73 1.292v1.813a5.17 5.17 0 0 1-5.169 5.169 5.17 5.17 0 0 1-5.169-5.169c0-1.834-1.501-3.335-3.335-3.335s-3.335 1.501-3.335 3.335c0 2.793.98 5.356 2.605 7.399-3.939-1.938-7.482-4.502-10.358-7.586-5.252-5.606-8.024-12.38-8.024-19.611 0-6.461 2.293-12.692 6.607-17.965l1.751-2.147-1.542-2.293c-1.48-2.167-2.293-5.085-2.293-8.17 0-5.94 3.21-11.171 6.878-11.171 2.105 0 4.21 1.792 5.544 4.689l1.73 3.814 3.564-2.188c4.21-2.584 9.045-3.939 13.984-3.939s9.774 1.355 13.984 3.939l3.564 2.188L63 12.107c1.313-2.897 3.439-4.689 5.544-4.689 3.668 0 6.878 5.21 6.878 11.171 0 3.084-.813 5.981-2.293 8.17l-1.542 2.293z" fill="#fff"/><path d="M74.944 45.35c.479 3.981-.729 7.524-3.314 9.712-1.813 1.542-4.043 2.272-6.461 2.272-4.377 0-9.295-2.418-13.088-6.878-2.647-3.105-4.335-6.773-4.752-10.316-.479-3.981.729-7.524 3.314-9.733 5.085-4.314 13.672-2.293 19.549 4.606 2.647 3.126 4.335 6.794 4.752 10.337z" fill="#633"/><path d="M79.8 110.936a18.41 18.41 0 0 1-15.068 11.588c-.188.021-3.564.229-4.46-1.417a25.67 25.67 0 0 0 1.917-9.754v-6.211a119.98 119.98 0 0 0 17.611 5.794zm-7.795-32.407a108.8 108.8 0 0 1-6.044 20.153 122.52 122.52 0 0 1-5.877-2.584c-.479-.229-1.021-.354-1.584-.354a3.72 3.72 0 0 0-3.71 3.71v11.9c0 10.108-8.232 18.34-18.34 18.34-3.189 0-5.773-2.584-5.773-5.773 0-1.855.896-3.626 2.418-4.71 4.418-3.168 7.086-8.461 7.107-14.109l.104-14.401c1.042.25 2.147.396 3.272.396a13.59 13.59 0 0 0 9.899-4.272c6.836-1.396 13.213-4.252 18.528-8.295zm-3.688-32.387c.125 1.021.146 2.876-1.021 3.856-2.272 1.938-7.232-.438-10.15-3.856-1.771-2.084-2.959-4.564-3.209-6.773-.125-1.021-.146-2.876 1.021-3.856.563-.479 1.292-.688 2.126-.688 2.501 0 5.856 1.98 8.045 4.543 1.751 2.084 2.918 4.543 3.189 6.773z" fill="#b2abac"/><use xlink:href="#B" fill="#633"/><path d="M49.81 80.55c-1.146 2.293-3.501 3.856-6.231 3.856s-5.085-1.584-6.231-3.856a11.86 11.86 0 0 0 6.231-3.397 11.86 11.86 0 0 0 6.231 3.397z" fill="#fff"/><path d="M36.722 30.428c2.584 2.188 3.793 5.752 3.314 9.733-.417 3.543-2.105 7.211-4.752 10.316-3.793 4.46-8.712 6.878-13.088 6.878-2.418 0-4.648-.729-6.461-2.272-2.584-2.188-3.793-5.752-3.314-9.712.417-3.543 2.105-7.211 4.752-10.316 5.877-6.94 14.464-8.962 19.549-4.627z" fill="#633"/><path d="M32.387 35.492c1.167 1 1.146 2.855 1.021 3.856-.271 2.209-1.438 4.689-3.21 6.773-2.918 3.418-7.878 5.794-10.15 3.856-1.167-1-1.146-2.855-1.021-3.856.271-2.209 1.438-4.689 3.21-6.773 2.188-2.563 5.544-4.543 8.045-4.543.813 0 1.542.208 2.105.688z" fill="#b2abac"/><use xlink:href="#B" x="-32.199" fill="#633"/><defs ><path id="B" d="M59.772 37.68a3.72 3.72 0 0 1 3.71 3.71 3.72 3.72 0 0 1-3.71 3.71c-2.042 0-3.71-1.646-3.71-3.71a3.72 3.72 0 0 1 3.71-3.71z"/></defs></svg>