<svg version="1.1" xmlns="http://www.w3.org/2000/svg" xmlns:xlink="http://www.w3.org/1999/xlink" width="145.952" height="107.103" viewBox="0,0,145.952,107.103"><g transform="translate(-167.024,-126.4485)"><g data-paper-data="{&quot;isPaintingLayer&quot;:true}" fill-rule="nonzero" stroke="none" stroke-width="1" stroke-linecap="butt" stroke-linejoin="miter" stroke-miterlimit="10" stroke-dasharray="" stroke-dashoffset="0" style="mix-blend-mode: normal"><path d="M175.4584,167.93517c0.03281,-0.06484 0.06484,-0.13047 0.11406,-0.19531c1.69297,-7.31015 8.14065,-15.32108 17.38911,-21.28044c7.31018,-4.70546 15.14223,-7.53827 21.65475,-7.84765l33.86651,-0.03281c0.8461,-6.96874 5.38908,-12.13045 11.02269,-12.13045c3.09376,0 5.95939,1.59531 8.02737,4.37968c3.54923,-1.66094 7.42346,-2.53984 11.3641,-2.53984c3.94064,0 7.81565,0.8625 11.36488,2.53984c2.05157,-2.78437 4.9172,-4.37968 8.02737,-4.37968c6.26877,0 11.16956,6.38281 11.16956,14.52342c0,2.76797 -0.60235,5.45468 -1.72579,7.7664c3.43595,4.81953 5.24298,10.35546 5.24298,16.10311c0,7.01718 -2.78438,13.85623 -7.83205,19.2617c-4.65626,4.98281 -11.0555,8.53202 -18.10552,10.06249c0.15745,0.3596 0.24063,0.7473 0.24453,1.13984l0.09766,13.20467c0.01641,2.57265 1.18828,4.94999 3.1422,6.34999c2.70313,1.9375 4.31486,5.06328 4.31486,8.38515c0,5.68202 -4.62423,10.30624 -10.30628,10.30624c-6.31721,0 -11.95082,-2.93125 -15.64692,-7.48984c-1.72579,1.22109 -3.79376,1.92109 -5.95939,1.92109c-0.38643,0.00415 -0.77271,-0.01751 -1.15625,-0.06484c-7.76643,-0.87891 -14.34457,-6.20312 -16.81958,-13.5953c-4.7383,0.84687 -9.493,1.33515 -14.26332,1.44922c0,0.21172 0.01641,0.42344 0.01641,0.63516c0,5.68202 -4.62423,10.30624 -10.30628,10.30624h-11.28363c-1.61172,3.56562 -5.21017,6.05702 -9.37815,6.05702h-15.45161c-5.03127,0 -9.1344,-4.10312 -9.1344,-9.13436l-0.06484,-37.57886c-4.51017,-0.35859 -8.0594,-4.28281 -8.0594,-9.05311c0,-4.88437 3.72892,-8.88983 8.4344,-9.06874z" data-paper-data="{&quot;index&quot;:null}" fill="#663333"/><path d="M175.06699,180.21172c-1.28594,-0.35859 -2.24688,-1.66094 -2.24688,-3.20781c0,-1.54687 0.94453,-2.83281 2.23048,-3.1914z" data-paper-data="{&quot;index&quot;:null}" fill="#ffffff"/><path d="M196.05456,151.32581c6.70783,-4.31484 13.75863,-6.85468 19.34303,-6.93593h7.75002c-0.09766,0.47266 -0.06484,0.99375 0.09766,1.48203c4.23361,12.71639 3.6797,26.49059 -1.54688,38.78355c-2.55201,6.02179 -6.16425,11.53658 -10.66488,16.28201c-4.46095,4.68906 -9.75315,8.59686 -15.66333,11.47889c-1.02578,0.43984 -1.74219,1.46562 -1.74219,2.6539c0.00429,1.59898 1.29946,2.89414 2.89845,2.89843h3.19142c2.49141,0 4.51017,2.01875 4.51017,4.51015c0,2.4914 -2.01876,4.51015 -4.51017,4.51015h-15.45239c-1.84183,-0.00344 -3.33407,-1.49567 -3.33751,-3.3375l-0.04844,-52.18353c-0.01641,-6.08906 6.21955,-14.36014 15.17505,-20.1406z" data-paper-data="{&quot;index&quot;:null}" fill="#b2abac"/><path d="M201.36238,190.58202c3.07401,-3.38785 5.56627,-7.26098 7.3758,-11.46249c1.51407,-3.59843 2.52345,-7.35937 2.96329,-11.23436c0.17969,-1.5789 1.6125,-2.71875 3.20782,-2.53984c1.57891,0.17969 2.71876,1.6125 2.53985,3.20781c-0.50641,4.41736 -1.64705,8.73863 -3.38673,12.83045c-2.05157,4.81953 -4.88439,9.21561 -8.40159,13.09061c-0.58594,0.61875 -1.36797,0.94453 -2.14923,0.94453c-0.7,0 -1.4,-0.24453 -1.95391,-0.74922c-1.18828,-1.07422 -1.27032,-2.89843 -0.19531,-4.08671z" data-paper-data="{&quot;index&quot;:null}" fill="#663333"/><path d="M205.80849,212.98746c3.07735,0.78125 9.73675,1.92109 9.9969,1.9539c2.9961,0.42344 6.00783,0.7 9.02034,0.81406c0.04653,0.22481 0.06828,0.45404 0.06484,0.68359c0,2.4914 -2.01876,4.51015 -4.51017,4.51015h-10.46956c-0.47188,-3.14218 -2.36094,-5.81249 -4.98205,-7.35937l0.87891,-0.60234z" data-paper-data="{&quot;index&quot;:null}" fill="#b2abac"/><path d="M227.0234,186.87109c5.73127,-13.48202 6.38205,-28.55856 1.82344,-42.52886h19.75006c0.27656,1.54687 0.74844,3.02812 1.4,4.36328c-3.43595,4.81953 -5.24298,10.35546 -5.24298,16.10311c0,5.60156 1.77501,11.07186 5.03127,15.79373c0.89435,8.56489 2.98801,16.96159 6.21955,24.94372c-3.12579,1.04219 -6.3008,1.88906 -9.49222,2.55625c-9.93206,2.11719 -20.04303,2.475 -30.05634,1.05859l-4.80314,-0.79766c6.59455,-5.87812 11.86957,-13.18827 15.37036,-21.49216zM257.04849,149.14535l-1.20469,-1.7914c-1.15625,-1.71015 -1.79141,-3.97343 -1.79141,-6.38281c0,-4.65703 2.50782,-8.72733 5.37345,-8.72733c1.64454,0 3.30548,1.4 4.33126,3.66328l1.36797,2.96328l2.78438,-1.70937c3.28907,-2.01875 7.06643,-3.07734 10.92503,-3.07734c3.85861,0 7.63596,1.05859 10.92503,3.07734l2.78438,1.70937l1.35157,-2.97968c1.04219,-2.26328 2.68673,-3.66328 4.33126,-3.66328c2.86563,0 5.37345,4.08671 5.37345,8.72733c0,2.41015 -0.63516,4.68984 -1.79141,6.38281l-1.20469,1.7914l1.36797,1.67734c3.37032,4.11953 5.16173,8.98749 5.16173,14.03514c0,5.64921 -2.16563,10.94139 -6.26877,15.32108c-2.24688,2.40937 -5.01486,4.41249 -8.09221,5.92656c1.26954,-1.59609 2.03516,-3.59843 2.03516,-5.78046c0,-1.43281 -1.17266,-2.60547 -2.60548,-2.60547c-1.43282,0 -2.60548,1.17265 -2.60548,2.60547c-0.00043,2.2301 -1.80818,4.03785 -4.03829,4.03828c-2.23011,-0.00043 -4.03786,-1.80818 -4.03829,-4.03828v-1.4164c0.49782,-0.26799 0.95327,-0.60813 1.35157,-1.00937l2.05157,-2.05156c0.49192,-0.48585 0.76879,-1.14845 0.76879,-1.83984c0,-0.69139 -0.27687,-1.35399 -0.76879,-1.83984c-1.00938,-1.02578 -2.65391,-1.02578 -3.6797,0l-2.05157,2.05156c-0.17891,0.19531 -0.48828,0.19531 -0.6836,0l-2.05157,-2.05156c-0.48585,-0.49191 -1.14845,-0.76878 -1.83985,-0.76878c-0.6914,0 -1.354,0.27687 -1.83985,0.76878c-1.02578,1.00937 -1.02578,2.6539 0,3.67968l2.05157,2.05156c0.43557,0.43959 0.94182,0.80297 1.49766,1.075v1.33515c-0.00043,2.2301 -1.80818,4.03785 -4.03829,4.03828c-2.23011,-0.00043 -4.03786,-1.80818 -4.03829,-4.03828c0,-1.43281 -1.17266,-2.60547 -2.60548,-2.60547c-1.43282,0 -2.60548,1.17265 -2.60548,2.60547c0,2.24687 0.78125,4.29843 2.11641,5.89374c-3.17501,-1.51406 -6.02502,-3.56562 -8.33674,-6.04062c-4.10314,-4.39609 -6.26877,-9.68749 -6.26877,-15.32108c0,-5.04765 1.79141,-9.89921 5.16173,-14.03514z" data-paper-data="{&quot;index&quot;:null}" fill="#ffffff"/><path d="M258.13834,153.80237c4.59142,-5.38984 11.30003,-6.96874 15.2727,-3.59843c2.01954,1.72578 2.96329,4.49374 2.58907,7.6039c-0.32578,2.76797 -1.64454,5.63359 -3.71251,8.05937c-2.96329,3.48437 -6.80549,5.37343 -10.22503,5.37343c-1.88907,0 -3.63126,-0.57031 -5.04767,-1.775c-2.01954,-1.70937 -2.96329,-4.47734 -2.58907,-7.58749c0.32578,-2.76797 1.64454,-5.63359 3.71251,-8.07577z" data-paper-data="{&quot;index&quot;:null}" fill="#663333"/><path d="M264.3907,208.59059v4.85234c-0.00207,2.61342 0.50669,5.20205 1.49766,7.6203c-0.7,1.28594 -3.33751,1.12344 -3.48439,1.10703c-5.29891,-0.6019 -9.8298,-4.08635 -11.77191,-9.05311c4.6961,-1.15173 9.29604,-2.6651 13.75863,-4.52656zM256.72193,187.79999c4.15236,3.15859 9.1344,5.38984 14.47504,6.48046c2.00744,2.13121 4.80584,3.33888 7.73362,3.3375c0.87891,0 1.74219,-0.11406 2.55626,-0.30937l0.08125,11.25077c0.01641,4.41249 2.10079,8.54765 5.55236,11.02264c1.18907,0.84687 1.88907,2.23047 1.88907,3.67968c0,2.4914 -2.01876,4.51015 -4.51017,4.51015c-7.8969,0 -14.32817,-6.43124 -14.32817,-14.32811v-9.29686c-0.00429,-1.59898 -1.29946,-2.89414 -2.89845,-2.89843c-0.43985,0 -0.86328,0.09766 -1.2375,0.27656c-1.51258,0.71291 -3.04358,1.38605 -4.59142,2.01875c-2.07891,-5.0833 -3.66026,-10.35612 -4.72189,-15.74451zM259.6024,162.49611c0.21172,-1.74219 1.12344,-3.66328 2.49141,-5.2914c1.71016,-2.00234 4.33126,-3.54921 6.28518,-3.54921c0.65156,0 1.2211,0.16328 1.66094,0.5375c0.91172,0.76562 0.89532,2.21484 0.79766,3.0125c-0.19531,1.72578 -1.12344,3.66328 -2.50704,5.2914c-2.27969,2.67031 -6.15471,4.52656 -7.92971,3.0125c-0.91172,-0.76562 -0.89532,-2.21484 -0.79766,-3.0125z" data-paper-data="{&quot;index&quot;:null}" fill="#b2abac"/><path d="M269.17743,158.7844c0,1.6125 -1.30313,2.89843 -2.89845,2.89843c-1.59899,-0.00429 -2.89415,-1.29945 -2.89845,-2.89843c0.00429,-1.59898 1.29946,-2.89414 2.89845,-2.89843c1.59899,0.00429 2.89415,1.29945 2.89845,2.89843z" data-paper-data="{&quot;index&quot;:null}" fill="#663333"/><path d="M278.9298,186.72421c1.31374,1.36076 3.01248,2.28687 4.86798,2.6539c-0.89532,1.775 -2.73516,3.0125 -4.86798,3.0125c-2.13282,0 -3.97267,-1.22109 -4.86798,-3.0125c1.85551,-0.36703 3.55424,-1.29314 4.86798,-2.6539z" data-paper-data="{&quot;index&quot;:null}" fill="#ffffff"/><path d="M299.55955,153.83519c2.06797,2.42578 3.38673,5.2914 3.71251,8.05937c0.37422,3.09375 -0.57031,5.87812 -2.58907,7.58749c-1.41641,1.20547 -3.1586,1.775 -5.04767,1.775c-3.41876,0 -7.26174,-1.88906 -10.22503,-5.37343c-2.06797,-2.42578 -3.38673,-5.2914 -3.71251,-8.05937c-0.37422,-3.11015 0.57031,-5.89452 2.58907,-7.6039c3.97267,-3.38671 10.68128,-1.80703 15.2727,3.61484z" data-paper-data="{&quot;index&quot;:null}" fill="#663333"/><path d="M287.67358,154.17737c0.43985,-0.375 1.00938,-0.5375 1.64454,-0.5375c1.95391,0 4.57579,1.54687 6.28518,3.54921c1.38438,1.62812 2.2961,3.56562 2.50782,5.2914c0.09766,0.78203 0.11406,2.23125 -0.79766,3.0125c-1.77501,1.51406 -5.65002,-0.34219 -7.92971,-3.0125c-1.38438,-1.62812 -2.2961,-3.56562 -2.50782,-5.2914c-0.09766,-0.78203 -0.11406,-2.23125 0.79766,-3.0125z" data-paper-data="{&quot;index&quot;:null}" fill="#b2abac"/><path d="M294.33298,158.7844c0,1.6125 -1.30313,2.89843 -2.89845,2.89843c-1.59899,-0.00429 -2.89415,-1.29945 -2.89845,-2.89843c0.00429,-1.59898 1.29946,-2.89414 2.89845,-2.89843c1.59899,0.00429 2.89415,1.29945 2.89845,2.89843z" data-paper-data="{&quot;index&quot;:null}" fill="#663333"/></g></g></svg>