<svg version="1.1" xmlns="http://www.w3.org/2000/svg" xmlns:xlink="http://www.w3.org/1999/xlink" width="95.34283" height="140.47662" viewBox="0,0,95.34283,140.47662"><g transform="translate(-192.32858,-109.76169)"><g data-paper-data="{&quot;isPaintingLayer&quot;:true}" fill-rule="nonzero" stroke="none" stroke-width="1" stroke-linecap="butt" stroke-linejoin="miter" stroke-miterlimit="10" stroke-dasharray="" stroke-dashoffset="0" style="mix-blend-mode: normal"><path d="M195.25671,240.20392c8.33282,0 15.10625,-6.77267 15.12188,-15.10549v-66.37745c0,-12.79064 4.8836,-24.88832 13.76719,-34.07115c8.31719,-8.58439 19.27969,-13.76721 31.10939,-14.7594c0.66172,-0.09453 2.64688,-0.14141 2.77266,-0.12578c3.29219,0.15703 6.39531,1.38594 8.88438,3.49688c9.65547,0.53516 17.86251,6.96173 20.63516,16.32112c0.29922,0.99219 0.04688,2.06328 -0.64609,2.81954c-0.70859,0.75625 -1.74844,1.10235 -2.75625,0.89766c-1.66993,-0.33442 -3.36879,-0.50321 -5.07188,-0.50391c-4.11233,0.00853 -8.16489,0.98514 -11.82969,2.85079c-0.09453,0.04688 -2.70938,1.71641 -3.07188,2.07891c0,0 -0.01563,0 -0.01563,0.01563c0,0.01563 0,0.01563 -0.01563,0.03125c-3.02422,3.0086 -4.69375,7.02501 -4.69375,11.29377c0,4.25313 1.66953,8.26954 4.69375,11.29377c9.82891,9.82892 15.24766,22.88675 15.24766,36.77974c0,13.87658 -5.41875,26.95082 -15.24766,36.77974c-0.23594,0.23594 -0.47188,0.47266 -0.72422,0.69297c3.39928,0.66435 5.85389,3.64033 5.85938,7.10392v1.27578c-0.00216,4.00102 -3.24508,7.24395 -7.2461,7.24611h-29.70704c-6.06485,0 -11.16797,-4.22188 -12.49141,-9.8922h-4.91485c-4.85156,3.08672 -10.475,5.05626 -16.49219,5.57579l-0.01563,-0.09453c-1.04248,0.1586 -2.09553,0.23747 -3.15,0.23594c-1.62266,0 -2.92969,-1.30703 -2.92969,-2.92969c0,-1.62266 1.30703,-2.92969 2.92969,-2.92969z" data-paper-data="{&quot;index&quot;:null}" fill="#663333"/><path d="M216.23875,217.23748c3.33906,-0.33047 6.5211,-1.2125 9.45078,-2.53594c-1.33906,7.56095 -5.43438,14.17658 -11.19922,18.77581c1.15347,-2.64308 1.74871,-5.49589 1.74844,-8.3797z" data-paper-data="{&quot;index&quot;:null}" fill="#ffffff"/><path d="M216.23875,158.72176c0,-11.26252 4.30078,-21.91019 12.11329,-29.95942c7.23906,-7.51097 16.96449,-12.13028 27.36017,-12.99533h0.04688l1.88984,-0.11016c2.26486,0.07653 4.41592,1.01129 6.01719,2.61485c1.73281,1.71641 2.69375,4.00079 2.69375,6.4422c0.00145,2.17529 -0.78161,4.27813 -2.20547,5.92267c-2.29922,1.08672 -4.00078,2.83516 -4.20547,3.03985l-0.01563,0.01563c-4.07874,4.08108 -6.36311,9.61924 -6.34766,15.38909c-0.01036,5.79986 2.29781,11.36328 6.41094,15.45237c8.68811,8.63547 13.56029,20.38791 13.53047,32.63755c0,12.31799 -4.78828,23.89535 -13.51485,32.62193l-0.01563,0.01563c-3.02422,3.02422 -7.025,4.69376 -11.29375,4.70938h-26.69923c5.87578,-6.23829 9.59297,-14.53909 9.9711,-23.67504c6.88281,-5.51251 11.30938,-13.97112 11.30938,-23.45394v-29.2352c0,-1.62266 -1.30703,-2.92969 -2.92969,-2.92969c-1.62266,0 -2.92969,1.30703 -2.92969,2.92969v29.2188c0,12.30158 -9.26172,22.493 -21.18594,23.94222v-52.59461z" data-paper-data="{&quot;index&quot;:null}" fill="#b2abac"/><path d="M263.39892,241.74689v1.27578c0,0.75625 -0.61406,1.37031 -1.37031,1.37031h-29.72345c-2.78828,0 -5.21406,-1.65391 -6.31641,-4.03204h36.03986c0.75625,0 1.38594,0.61406 1.37031,1.38594z" data-paper-data="{&quot;index&quot;:null}" fill="#ffcc66"/><path d="M259.72939,122.14514c0,1.62266 -1.30703,2.92969 -2.92969,2.92969c-1.62266,0 -2.92969,-1.30703 -2.92969,-2.92969c0,-1.62266 1.30703,-2.92969 2.92969,-2.92969c1.61447,0.00854 2.92115,1.31522 2.92969,2.92969zM255.25673,213.56794c0.66067,-1.13261 1.25997,-2.29992 1.79531,-3.49688c3.14087,-7.23421 3.53859,-15.36492 1.11875,-22.87113c-0.24235,-0.73933 -0.17897,-1.54487 0.176,-2.23721c0.35497,-0.69234 0.97207,-1.21398 1.71385,-1.44873c0.73933,-0.24235 1.54487,-0.17898 2.23721,0.176c0.69234,0.35497 1.21398,0.97207 1.44873,1.71385c2.85041,8.86711 2.38005,18.46808 -1.32344,27.0141c-0.61484,1.40156 -1.32344,2.80313 -2.11094,4.12657c-0.52938,0.89771 -1.49376,1.44883 -2.53594,1.44922c-0.50391,0 -1.00781,-0.14141 -1.48047,-0.40938c-1.40234,-0.81875 -1.85859,-2.61485 -1.03984,-4.01641z" data-paper-data="{&quot;index&quot;:null}" fill="#663333"/><path d="M279.97002,126.9178c-2.70938,-0.07891 -5.41875,0.20469 -8.06485,0.81875c0.20469,-0.99219 0.31484,-2.01563 0.31484,-3.05547c-0.00222,-1.54474 -0.24119,-3.08002 -0.70859,-4.55235c3.48125,1.27578 6.45781,3.65469 8.4586,6.78907z" data-paper-data="{&quot;index&quot;:null}" fill="#ffcc66"/></g></g></svg>