<svg xmlns="http://www.w3.org/2000/svg" width="95.343" height="140.476" viewBox="0 0 122.039 179.809" xmlns:v="https://vecta.io/nano"><path d="M118.288 166.966c2.077 0 3.75 1.673 3.75 3.75s-1.673 3.75-3.75 3.75a26.55 26.55 0 0 1-4.032-.302l-.02.121c-7.702-.665-14.9-3.186-21.11-7.137h-6.291c-1.694 7.258-8.226 12.662-15.989 12.662H32.821a9.28 9.28 0 0 1-9.275-9.275v-1.633a9.28 9.28 0 0 1 7.5-9.093c-.323-.282-.625-.585-.927-.887-12.581-12.581-19.517-29.316-19.517-47.078 0-17.783 6.936-34.497 19.517-47.078 3.871-3.871 6.008-9.012 6.008-14.456 0-5.464-2.137-10.605-6.008-14.456-.02-.02-.02-.02-.02-.04s-.02-.02-.02-.02c-.464-.464-3.811-2.601-3.932-2.661a33.53 33.53 0 0 0-15.142-3.649 33.13 33.13 0 0 0-6.492.645c-1.29.262-2.621-.181-3.528-1.149-.887-.968-1.21-2.339-.827-3.609C3.707 13.391 14.212 5.165 26.571 4.48 29.757 1.778 33.729.205 37.943.004c.161-.02 2.702.04 3.549.161 15.142 1.27 29.174 7.904 39.82 18.892 11.371 11.754 17.622 27.239 17.622 43.611v84.963c.02 10.666 8.69 19.335 19.356 19.335z" fill="#633"/><path d="M91.433 147.63a26.81 26.81 0 0 0 2.238 10.726c-7.379-5.887-12.621-14.355-14.335-24.033 3.75 1.694 7.823 2.823 12.097 3.246z" fill="#fff"/><path d="M91.433 62.667v67.321c-15.263-1.855-27.118-14.9-27.118-30.646V61.942c0-2.077-1.673-3.75-3.75-3.75s-3.75 1.673-3.75 3.75v37.421c0 12.138 5.666 22.965 14.476 30.021.484 11.694 5.242 22.319 12.763 30.304H49.879c-5.464-.02-10.585-2.157-14.456-6.028l-.02-.02c-11.17-11.17-17.299-25.989-17.299-41.756a58.7 58.7 0 0 1 17.319-41.776 27.82 27.82 0 0 0 8.206-19.779 27.76 27.76 0 0 0-8.125-19.698l-.02-.02c-.262-.262-2.44-2.5-5.383-3.891a11.57 11.57 0 0 1-2.823-7.581c0-3.125 1.23-6.049 3.448-8.246a11.43 11.43 0 0 1 7.702-3.347l2.419.141h.06a54.97 54.97 0 0 1 35.021 16.634c10 10.303 15.505 23.932 15.505 38.348z" fill="#b2abac"/><path d="M32.822 167.167h46.131c-1.411 3.044-4.516 5.161-8.085 5.161H32.822c-.968 0-1.754-.786-1.754-1.754v-1.633c-.02-.988.786-1.774 1.754-1.774z" fill="#fc6"/><path d="M39.515 12.101c2.077 0 3.75 1.673 3.75 3.75s-1.673 3.75-3.75 3.75-3.75-1.673-3.75-3.75a3.77 3.77 0 0 1 3.75-3.75zm1.976 120.771c1.048 1.794.464 4.093-1.331 5.141-.605.343-1.25.524-1.895.524a3.77 3.77 0 0 1-3.246-1.855c-1.008-1.694-1.915-3.488-2.702-5.282a49.14 49.14 0 0 1-1.694-34.578 3.73 3.73 0 0 1 4.718-2.419 3.73 3.73 0 0 1 2.419 4.718 41.52 41.52 0 0 0 1.432 29.275 46.83 46.83 0 0 0 2.298 4.476z" fill="#633"/><path d="M20.684 13.27a19.35 19.35 0 0 0-.907 5.827c0 1.331.141 2.641.403 3.911-3.387-.786-6.855-1.149-10.323-1.048 2.561-4.012 6.371-7.057 10.827-8.69z" fill="#fc6"/></svg>