<svg xmlns="http://www.w3.org/2000/svg" width="135.865" height="70.705" viewBox="0 0 173.907 90.502" xmlns:v="https://vecta.io/nano"><path d="M173.888 22.436c.019.272.019 14.562.019 14.562 0 9.254-7.524 16.778-16.778 16.778-3.655 0-7.096-1.167-9.915-3.247a34.85 34.85 0 0 1-15.67 18.917c1.128 5.191 1.633 10.032-.894 14.037-2.003 3.15-5.56 5.249-10.907 6.396-1.905.408-3.655.622-5.269.622-2.877 0-5.308-.661-7.291-2.003-4.18-2.78-5.619-7.816-6.746-13.415H61.164c-8.749 0-17.07-2.489-24.263-7.252-3.947 5.891-9.643 9.293-15.806 9.293-5.852 0-11.276-3.033-15.262-8.535C2.061 63.458 0 56.634 0 49.441s2.061-14.018 5.813-19.17c4.005-5.502 9.429-8.535 15.262-8.535 5.852 0 11.354 3.15 15.301 8.574 10.265-7.952 21.619-14.231 33.809-18.684 13.57-4.958 27.821-7.524 42.383-7.66A23.04 23.04 0 0 1 125.575 0h25.061c6.085 0 11.84 2.333 16.195 6.552 4.336 4.219 6.844 9.857 7.057 15.884z" fill="#633"/><path d="M166.869 22.728l.019 14.29a9.76 9.76 0 0 1-9.74 9.74c-3.363 0-6.416-1.711-8.204-4.511-.058-.078-1.439-3.752-1.439-6.941 0-1.944-.972-3.733-2.897-4.044-1.925-.331-3.733.972-4.044 2.877-.156.914-.233 1.847-.233 2.78 0 2.333.486 4.608 1.4 6.707-1.244 7.641-5.541 14.29-11.86 18.586-.058-.233-1.361-7.68-6.26-15.048-1.069-1.614-3.344-1.925-4.919-.797s-1.925 3.344-.797 4.919c2.216 3.072 3.966 7.213 4.919 11.665.331 1.555.7 3.052 1.03 4.491 1.264 5.288 2.372 9.876.855 12.287-.914 1.458-3.072 2.547-6.416 3.266s-5.774.603-7.193-.35c-2.372-1.575-3.247-6.202-4.238-11.548l-.894-4.511c-.953-4.452-1.05-8.943-.272-12.657.389-1.905-.836-3.772-2.722-4.161-1.905-.389-3.772.836-4.161 2.722-.972 4.724-.875 10.09.292 15.573v.019H61.183a36.67 36.67 0 0 1-23.175-8.127c-.214-.156-.428-.311-.68-.428-1.75-.836-3.849-.097-4.685 1.672-2.664 5.599-6.98 8.943-11.529 8.943-3.538 0-6.941-2.003-9.585-5.638-2.877-3.966-4.472-9.313-4.472-15.029 0-5.735 1.594-11.062 4.472-15.048 2.644-3.636 6.046-5.638 9.585-5.638 4.355 0 8.574 3.13 11.237 8.36.894 1.73 3.013 2.411 4.744 1.536.233-.117.642-.428.642-.428 10.46-8.652 22.203-15.379 34.898-20.025 13.123-4.802 26.946-7.252 41.081-7.252.797 0 1.516-.272 2.119-.7a16.22 16.22 0 0 1 9.76-3.247h25.061c8.788 0 15.903 6.882 16.215 15.69z" fill="#4ec8d8"/><path d="M144.55 10.712a4.02 4.02 0 0 1 4.024 4.024c0 2.236-1.808 4.044-4.024 4.044a4.04 4.04 0 0 1-4.044-4.044c.019-2.216 1.828-4.024 4.044-4.024zm-43.18 13.104c.311 1.925-1.011 3.733-2.916 4.024C86.925 29.688 75.94 33.576 65.83 39.37c-.544.311-1.147.467-1.75.467a3.51 3.51 0 0 1-1.75-6.571c10.849-6.221 22.63-10.401 35.015-12.384 1.925-.292 3.713 1.03 4.024 2.936z" fill="#633"/></svg>