<svg version="1.1" xmlns="http://www.w3.org/2000/svg" xmlns:xlink="http://www.w3.org/1999/xlink" width="140" height="140" viewBox="0,0,140,140"><g transform="translate(-170,-110)"><g data-paper-data="{&quot;isPaintingLayer&quot;:true}" fill-rule="nonzero" stroke="none" stroke-width="1" stroke-linecap="butt" stroke-linejoin="miter" stroke-miterlimit="10" stroke-dasharray="" stroke-dashoffset="0" style="mix-blend-mode: normal"><path d="M209.66667,133.33333v0c3.86599,0 7,3.13401 7,7v100.33334h-14v-100.33334c0,-3.86599 3.13401,-7 7,-7z" fill="#98856e"/><path d="M240,189.33333v-79.33333h70v79.33333z" fill="#bea182"/><path d="M240,189.33333v-79.33333h63v79.33333z" fill="#fdd7ad"/><path d="M242.33333,170.66667l7,7l-7,7h-53.66667v-14z" fill="#98856e"/><path d="M188.66667,184.66667v-14h46.66667l7,7l-7,7z" fill="#cbb292"/><path d="M242.33333,147.33333l7,7l-7,7h-53.66667v-14z" fill="#98856e"/><path d="M188.66667,161.33333v-14h46.66667l7,7l-7,7z" fill="#cbb292"/><path d="M230.66667,194v14h-53.66667l-7,-7l7,-7z" fill="#98856e"/><path d="M177,208l-7,-7l7,-7h44.33333v14z" fill="#cbb292"/><path d="M275,180l-18.15333,-30.33333c-1.84902,-3.07232 -2.83264,-6.58755 -2.84667,-10.17333v-0.23333c0.02305,-5.25314 2.11952,-10.28468 5.83333,-14v0c3.71532,-3.71381 8.74686,-5.81029 14,-5.83333h2.14667c5.25314,0.02305 10.28468,2.11952 14,5.83333v0c3.71381,3.71532 5.81029,8.74686 5.83333,14v0.23333c0.04251,3.56839 -0.8763,7.08244 -2.66,10.17333z" fill="#cc4b4c"/><path d="M263.33333,140.33333c0,-6.44332 5.22334,-11.66667 11.66667,-11.66667c6.44332,0 11.66667,5.22334 11.66667,11.66667c0,6.44332 -5.22334,11.66667 -11.66667,11.66667c-6.44332,0 -11.66667,-5.22334 -11.66667,-11.66667z" fill="#662626"/><path d="M263.33333,140.33333c0,-6.12116 3.65634,-11.08333 8.16667,-11.08333c4.51033,0 8.16667,4.96218 8.16667,11.08333c0,6.12116 -3.65634,11.08333 -8.16667,11.08333c-4.51033,0 -8.16667,-4.96218 -8.16667,-11.08333z" fill="#993839"/><path d="M170,250v-9.33333h140v9.33333z" fill="#5f443e"/><path d="M170,250v-9.33333h133v9.33333z" fill="#7f5b53"/><path d="M255.26,240.66667c-0.8341,-1.41307 -1.26954,-3.02582 -1.26,-4.66667c0,-5.15466 4.17868,-9.33333 9.33333,-9.33333c0.02483,-3.87071 2.43628,-7.3244 6.06146,-8.68125c3.62518,-1.35685 7.71167,-0.33525 10.27187,2.56792c2.5602,-2.90317 6.64669,-3.92478 10.27187,-2.56792c3.62518,1.35685 6.03663,4.81054 6.06146,8.68125c5.15466,0 9.33333,4.17868 9.33333,9.33333c0.00954,1.64085 -0.4259,3.2536 -1.26,4.66667" fill="#559264"/><path d="M304.05,240.66667h-48.76667c1.66135,-2.87759 4.72728,-4.65494 8.05,-4.66667c0.02483,-3.87071 2.43628,-7.3244 6.06146,-8.68125c3.62518,-1.35685 7.71167,-0.33525 10.27187,2.56792c2.5602,-2.90317 6.64669,-3.92478 10.27187,-2.56792c3.62518,1.35685 6.03663,4.81054 6.06146,8.68125c3.32272,0.01173 6.38865,1.78908 8.05,4.66667z" fill="#71c285"/><path d="M227.26,240.66667c-0.8341,-1.41307 -1.26954,-3.02582 -1.26,-4.66667c0,-5.15466 4.17868,-9.33333 9.33333,-9.33333c0.02483,-3.87071 2.43628,-7.3244 6.06146,-8.68125c3.62518,-1.35685 7.71167,-0.33525 10.27187,2.56792c2.5602,-2.90317 6.64669,-3.92478 10.27187,-2.56792c3.62518,1.35685 6.03663,4.81054 6.06146,8.68125c5.15466,0 9.33333,4.17868 9.33333,9.33333c0.00954,1.64085 -0.4259,3.2536 -1.26,4.66667" fill="#559264"/><path d="M276.05,240.66667h-48.76667c1.66135,-2.87759 4.72728,-4.65494 8.05,-4.66667c0.02483,-3.87071 2.43628,-7.3244 6.06146,-8.68125c3.62518,-1.35685 7.71167,-0.33525 10.27187,2.56792c2.5602,-2.90317 6.64669,-3.92478 10.27187,-2.56792c3.62518,1.35685 6.03663,4.81054 6.06146,8.68125c3.32272,0.01173 6.38865,1.78908 8.05,4.66667z" fill="#71c285"/></g></g></svg>