<svg version="1.1" xmlns="http://www.w3.org/2000/svg" xmlns:xlink="http://www.w3.org/1999/xlink" width="82.72035" height="139.70763" viewBox="0,0,82.72035,139.70763"><g transform="translate(-198.63982,-110.00336)"><g data-paper-data="{&quot;isPaintingLayer&quot;:true}" fill-rule="nonzero" stroke="none" stroke-width="1" stroke-linecap="butt" stroke-linejoin="miter" stroke-miterlimit="10" stroke-dasharray="" stroke-dashoffset="0" style="mix-blend-mode: normal"><path d="M241.82761,249.31051c-0.83787,-0.19652 -2.02459,-0.53166 -2.637,-0.74189c-1.01885,-0.3519 -1.32337,-0.3839 -3.57952,-0.37323c-2.76953,0.01219 -4.62503,-0.28335 -6.83395,-1.09075c-3.80087,-1.38629 -6.96496,-4.12383 -8.71839,-7.54081c-0.55604,-1.08313 -0.66115,-1.51121 -0.40827,-1.66812c0.07769,-0.04723 0.77084,0.02133 1.53863,0.15386c1.55996,0.26964 2.3963,0.19804 3.16714,-0.27116c0.5926,-0.36104 1.36039,-1.44113 1.15778,-1.62851c-0.07617,-0.07008 -0.85919,-0.58955 -1.73819,-1.15626c-4.89467,-3.14886 -8.24461,-6.49271 -10.09249,-10.07116c-0.90033,-1.74429 -1.5691,-3.69271 -1.34363,-3.91817c0.17976,-0.17824 0.16453,-0.18128 4.12383,0.72666c2.78477,0.6383 4.10403,0.70381 4.57933,0.22851c0.17214,-0.17214 0.29249,-0.41893 0.26659,-0.54995c-0.0259,-0.12949 -0.90185,-0.67639 -1.94538,-1.21262c-5.42633,-2.79391 -10.4124,-7.21785 -13.02503,-11.55495c-0.6185,-1.02829 -0.66725,-1.37106 -0.23003,-1.60413c0.89423,-0.47835 2.35974,-0.35495 5.82242,0.49053c1.06942,0.2605 1.98346,0.43569 2.03069,0.38694c0.18128,-0.17976 -0.28487,-0.71295 -2.74211,-3.12905c-3.4383,-3.38194 -5.09119,-5.40044 -6.92688,-8.45027c-0.88662,-1.47465 -2.17084,-4.10707 -2.90359,-5.95495c-0.58955,-1.48531 -0.49967,-1.69249 0.66725,-1.5432c1.37715,0.17671 1.95452,0.37628 4.25484,1.48226c2.51055,1.20501 3.26311,1.34211 4.24266,0.77236c0.76017,-0.44178 0.7556,-0.58803 -0.26355,-8.4259c-0.66268,-5.10185 -0.68248,-6.5506 -0.0914,-6.5506c0.72514,0 2.60653,1.72296 5.57258,5.10337c2.81066,3.20218 4.40109,4.64331 4.7469,4.2975c0.03961,-0.03961 0.20566,-0.63373 0.36866,-1.31926c0.57737,-2.41458 1.72296,-4.27465 2.63243,-4.27312c0.50577,0.00152 1.25985,0.52709 1.79456,1.25071c1.85245,2.50903 3.67595,9.36888 3.40479,12.80566c-0.10968,1.3802 0.12644,3.516 0.48292,4.3691c0.29249,0.70076 0.79674,1.22633 1.17454,1.22633c0.52405,0 1.40914,-1.1136 1.9012,-2.39021c0.52405,-1.36192 0.7617,-1.4975 1.64984,-0.94908c1.31317,0.81197 2.49684,3.65462 2.87175,6.89793c0.05682,0.49206 0.15462,0.83482 0.21754,0.7617c0.06276,-0.0716 0.26888,-0.71447 0.45778,-1.4259c0.4168,-1.57062 0.87032,-2.43743 1.27508,-2.43743c0.48215,0 2.37695,2.07029 3.83347,4.18934c1.29367,1.88139 2.71606,3.57998 2.99865,3.57998c0.21785,0 0.14533,-4.53362 -0.10481,-6.55365c-0.69573,-5.6198 -2.34816,-9.9889 -7.60555,-20.10577c-1.15382,-2.22111 -2.12498,-4.06746 -2.16002,-4.10403c-0.03351,-0.03808 -0.163,0.07769 -0.2864,0.25441c-0.29706,0.42503 -1.16692,0.70076 -1.78085,0.5667c-0.68248,-0.14929 -1.6346,-0.81197 -1.71991,-1.19587c-0.03808,-0.17671 -0.08836,-2.28814 -0.11121,-4.69358c-0.03047,-3.2494 -0.08836,-4.42089 -0.23003,-4.56257c-0.10511,-0.10359 -0.19195,-0.12492 -0.19499,-0.04418c-0.00152,0.07922 -0.33819,2.16474 -0.74799,4.63569c-0.70229,4.22285 -0.76931,4.51077 -1.14864,4.83678c-0.69619,0.59869 -2.25462,0.35952 -2.66442,-0.40827c-0.25136,-0.46768 -0.1889,-1.25071 0.37933,-4.71643c0.29402,-1.79304 0.50729,-3.28749 0.47378,-3.31948c-0.05332,-0.05484 -0.53471,1.20805 -1.94233,5.11251c-0.57127,1.57976 -0.91251,2.0185 -1.77171,2.27595c-1.1593,0.34733 -2.47552,-0.4296 -2.47552,-1.45941c0,-0.29402 0.44635,-1.83874 0.99478,-3.43221c0.5469,-1.59347 0.96888,-2.97062 0.93993,-3.05898c-0.02894,-0.08988 -0.7617,1.0938 -1.62699,2.62786c-1.31469,2.33232 -1.65745,2.83047 -2.08553,3.0346c-0.48444,0.23156 -0.54842,0.22546 -1.19739,-0.08836c-0.80435,-0.39151 -1.33906,-1.14712 -1.20805,-1.7062c0.04875,-0.21023 0.57127,-1.25985 1.16083,-2.33384c0.58955,-1.07399 1.04353,-1.98041 1.01001,-2.01545c-0.03504,-0.03351 -0.75713,0.77693 -1.60566,1.8037c-0.84853,1.02524 -1.70163,2.01088 -1.8951,2.19064c-0.99021,0.91861 -2.32622,0.17824 -2.85332,-1.57824c-0.37323,-1.24766 -0.33058,-1.37106 1.15169,-3.21284c0.63221,-0.78455 1.12122,-1.45637 1.08618,-1.48988c-0.03504,-0.03504 -0.86681,0.62002 -1.84788,1.45637c-0.98107,0.83634 -1.95452,1.563 -2.16322,1.6148c-1.27965,0.32144 -2.61262,-1.75647 -1.7778,-2.7741c0.14472,-0.17671 1.94233,-1.74581 3.99587,-3.48705c4.32492,-3.66986 4.2259,-3.57998 4.02176,-3.57998c-0.08683,0 -2.27291,1.23395 -4.85963,2.74211c-3.37432,1.9667 -4.8383,2.74211 -5.17954,2.74211c-0.73732,0 -1.59956,-1.04048 -1.59956,-1.92709c0,-0.44635 0.40218,-1.66659 0.66268,-2.00631c0.08379,-0.10968 1.76866,-1.16387 3.74298,-2.33993c4.363,-2.59891 4.31882,-2.57149 4.23808,-2.65223c-0.03504,-0.03656 -1.80675,0.59412 -3.93645,1.4c-5.07291,1.91948 -5.13384,1.93928 -5.66551,1.71839c-0.92775,-0.3839 -1.36039,-2.25158 -0.67943,-2.92492c0.20413,-0.20261 2.12818,-1.01001 4.76061,-1.99717c4.02786,-1.51273 4.98912,-1.91491 4.558,-1.91491c-0.66115,0 -8.06638,1.48531 -9.84113,1.97432c-1.22786,0.33819 -2.3963,0.61545 -2.59282,0.61545c-1.17758,0 -1.93319,-2.14037 -1.08618,-3.07573c0.13711,-0.15234 0.73732,-0.41741 1.33145,-0.58651c0.59412,-0.17062 1.25071,-0.4037 1.46094,-0.51948c0.21023,-0.11578 0.8272,-0.28792 1.37106,-0.38237c0.99325,-0.17367 7.62764,-1.9469 7.75256,-2.07334c0.13254,-0.13101 -0.95822,-0.05941 -5.95038,0.39151c-6.15604,0.55452 -6.09053,0.55452 -6.62067,0.0975c-0.37171,-0.31991 -0.43112,-0.50577 -0.5469,-1.71382c-0.07008,-0.74494 -0.16605,-1.7062 -0.21328,-2.13732c-0.09597,-0.88814 0.19652,-1.64679 0.69924,-1.80522c0.29859,-0.09597 0.29859,-0.10359 -0.03656,-0.55756c-0.27116,-0.36714 -0.33058,-0.62155 -0.28945,-1.24766c0.06094,-0.95365 0.05332,-1.20044 -0.05484,-2.08096c-0.06094,-0.49358 -0.00914,-0.83634 0.18738,-1.21872c0.52252,-1.01763 0.40065,-1.01763 7.28335,-0.00152c6.02046,0.88814 6.91164,0.99935 6.75169,0.83787c-0.04266,-0.04113 -2.7741,-1.00087 -6.06921,-2.12971c-3.79782,-1.3025 -6.12252,-2.17693 -6.34799,-2.38868c-0.26659,-0.24984 -0.35343,-0.49815 -0.35343,-1.00087c0,-1.22024 0.63983,-2.02002 1.61632,-2.02002c0.59565,0 0.67639,-0.04875 0.98259,-0.59412c0.32601,-0.58041 0.82111,-0.92927 1.32078,-0.92927c0.13711,0 2.32927,1.17301 4.87334,2.60805c2.54407,1.43504 4.6555,2.57911 4.69206,2.54102c0.03808,-0.03656 -1.76409,-1.57062 -4.00501,-3.40783c-2.23939,-1.83721 -4.22742,-3.50533 -4.4148,-3.70642c-1.08466,-1.15473 0.58651,-3.484 1.96823,-2.74363c0.17062,0.0914 2.22416,1.73667 4.56409,3.65615c2.33993,1.91948 4.29445,3.4901 4.34472,3.4901c0.27726,0 -1.7321,-2.23177 -5.46137,-6.06921c-2.4161,-2.48618 -3.64091,-3.85571 -3.70337,-4.14363c-0.11121,-0.50881 0.17214,-1.1203 0.7876,-1.69112c0.63069,-0.58575 1.02372,-0.65765 1.68792,-0.30879c0.31534,0.16483 0.78607,0.37948 1.04657,0.47697c0.32601,0.12172 1.36039,1.21217 3.30424,3.4805c2.82133,3.2951 4.86877,5.45071 4.29597,4.52296c-0.15539,-0.25136 -1.81284,-2.67661 -3.68357,-5.38977c-2.35669,-3.4188 -3.39869,-5.05584 -3.39565,-5.33234c0.01828,-1.27721 1.8296,-2.33384 2.71012,-1.57991c0.17062,0.1467 1.92709,2.6114 3.90446,5.47721c1.97584,2.86551 3.65919,5.25114 3.73993,5.30141c0.1691,0.10359 0.05484,-0.15386 -3.10316,-6.96908c-2.42829,-5.24185 -2.61719,-5.8052 -2.15865,-6.4598c0.51491,-0.73428 1.91034,-1.04048 2.50141,-0.54888c0.17671,0.1467 1.0481,1.84331 1.93776,3.7704c0.89119,1.92709 1.68945,3.57236 1.77628,3.65615c0.10664,0.10313 0.13406,0.07845 0.08379,-0.07617c-0.03961,-0.12568 -0.43874,-1.48135 -0.88662,-3.01267c-0.78912,-2.70296 -0.80588,-2.79893 -0.5728,-3.28947c0.4296,-0.90139 1.98041,-1.32353 2.70555,-0.73641c0.26202,0.21129 0.66572,1.3805 1.77171,5.13186c0.78912,2.67188 1.46703,4.89162 1.50816,4.93123c0.13558,0.13558 0.0716,-0.5012 -0.53624,-5.30964c-0.33362,-2.63928 -0.60783,-4.91752 -0.60783,-5.06285c-0.00152,-0.14533 0.19042,-0.47972 0.42655,-0.74311c0.34429,-0.38588 0.57737,-0.49343 1.19587,-0.55299c0.68553,-0.06581 0.82263,-0.02651 1.25375,0.36242l0.48292,0.43615l0.67639,5.39038c0.37018,2.96453 0.70381,5.42024 0.74037,5.4568c0.08531,0.08531 0.21632,-2.13732 0.40675,-6.96252c0.08531,-2.13656 0.23156,-4.07615 0.32448,-4.31045c0.44331,-1.11086 3.24026,-1.17058 3.53428,-0.07541c0.05027,0.19195 0.09902,2.71393 0.10664,5.60457c0.00914,3.1807 0.06703,5.10551 0.14625,4.87547c0.07312,-0.21023 0.48139,-2.53264 0.90794,-5.16187c0.42655,-2.62938 0.84655,-4.91447 0.93415,-5.07824c0.0876,-0.16376 0.39624,-0.39669 0.68583,-0.51765c0.93689,-0.39151 2.20222,0.16361 2.4286,1.06546c0.05119,0.20368 -0.29447,2.74409 -0.7681,5.64524c-0.47347,2.90146 -0.83924,5.38764 -0.81273,5.52474c0.02666,0.13711 0.8368,-2.07182 1.80035,-4.90746c0.96355,-2.83595 1.87545,-5.31375 2.02657,-5.50631c0.40629,-0.51734 1.33099,-0.75393 2.07532,-0.5309c0.67212,0.20139 1.38187,0.94161 1.38294,1.4422c0.00046,0.1822 -0.79308,2.57774 -1.76348,5.3235c-0.97025,2.74546 -1.74185,5.05798 -1.71443,5.13719c0.02727,0.07922 1.14651,-1.85854 2.48709,-4.3074c1.34059,-2.4481 2.6207,-4.63965 2.84464,-4.87014c0.50059,-0.51506 1.1724,-0.55025 1.90165,-0.09948c0.53669,0.3318 0.9664,0.98487 0.9664,1.46916c0,0.15417 -1.20618,2.47125 -2.68057,5.14953c-1.47434,2.67661 -2.74942,4.99674 -2.83351,5.15365c-0.39273,0.73123 0.42427,-0.21328 3.5195,-4.07051c3.4741,-4.32842 3.69027,-4.57018 4.23397,-4.73578c0.75911,-0.2311 2.02612,0.91952 2.02612,1.84026c0,0.65232 -0.08912,0.78257 -3.78853,5.53099c-1.59621,2.04897 -2.86977,3.75822 -2.82986,3.79782c0.03976,0.04113 0.29402,-0.13558 0.56518,-0.39151c2.73023,-2.57301 6.63499,-6.04331 6.92398,-6.15452c1.07293,-0.40675 2.53447,1.33906 2.08995,2.49684c-0.04723,0.12339 -1.83173,1.81893 -3.96524,3.76583c-2.13367,1.94842 -3.84901,3.57236 -3.81214,3.60892c0.03687,0.03656 1.92481,-1.10598 4.19543,-2.53798c2.27062,-1.43351 4.31166,-2.67661 4.5356,-2.76192c0.4881,-0.18585 1.19754,0.05789 1.42864,0.48901c0.20977,0.39304 0.40568,0.36257 1.56422,-0.24222c0.88799,-0.46311 1.06592,-0.50577 1.47891,-0.36257c0.97147,0.33972 1.5691,1.92557 1.03042,2.73602c-0.13528,0.20413 -2.62679,1.73972 -5.70923,3.52057c-3.0081,1.73667 -5.60411,3.26007 -5.76894,3.38498c-0.27992,0.21023 -0.26955,0.21785 0.15732,0.09597c0.25136,-0.0716 3.01891,-1.06333 6.15025,-2.20435c3.13134,-1.14102 5.82729,-2.07334 5.99106,-2.07334c0.44392,0 1.14072,0.77998 1.33267,1.49293c0.20733,0.76931 0.0847,1.31926 -0.37521,1.6803c-0.19195,0.15082 -3.04633,1.25528 -6.34311,2.45419c-5.62575,2.0444 -6.61016,2.442 -6.0625,2.4481c0.12141,0.00152 3.00886,-0.45854 6.41639,-1.02372c4.81378,-0.79674 6.29162,-0.99325 6.62677,-0.87595c0.82172,0.28487 1.24827,1.91491 0.73641,2.81219c-0.12035,0.20871 -0.22089,0.60631 -0.22394,0.88357c-0.00762,0.73123 -0.38085,1.34211 -0.93719,1.53711c-0.31656,0.10968 -2.39066,0.17367 -5.9839,0.18433c-3.02485,0.00762 -5.67099,0.06398 -5.88046,0.12339l-0.38085,0.10816l0.38085,0.0914c0.20947,0.0518 2.95158,0.52405 6.09358,1.05114c5.47554,0.92013 5.73086,0.97802 6.14949,1.39086c0.40309,0.39761 0.43203,0.49967 0.37156,1.33297c-0.06764,0.93384 -0.36074,1.44875 -0.95151,1.66964c-0.24862,0.09293 -0.29021,0.2407 -0.26233,0.93384c0.02026,0.50424 -0.05667,0.99173 -0.19865,1.25832c-0.21404,0.40065 -0.20855,0.46311 0.07206,0.81959c0.74524,0.94755 0.1304,2.61415 -1.10553,2.99499c-0.17793,0.05484 -0.26659,0.23765 -0.26659,0.54995c0,0.98716 -0.70945,1.98041 -1.41615,1.98041c-0.15493,0 -2.33704,-0.7617 -4.84912,-1.69402c-2.51193,-0.93079 -4.60294,-1.65745 -4.64651,-1.61328c-0.14969,0.14929 3.06888,2.41153 5.63961,3.96235c2.79208,1.68487 2.98707,1.89053 2.98707,3.15495c0,0.74037 -0.30041,1.37563 -0.85539,1.81284c-0.82172,0.64592 -1.04368,0.54538 -4.61177,-2.09467c-1.75053,-1.29489 -4.99217,-3.32709 -5.11297,-3.20522c-0.03158,0.03199 1.54487,1.73362 3.5032,3.78107c1.95832,2.04744 3.64518,3.92884 3.74877,4.17867c0.16635,0.40065 0.14442,0.53166 -0.19058,1.13188c-0.45412,0.81349 -1.26807,1.34211 -1.84376,1.19739c-0.25334,-0.06398 -1.90516,-1.67573 -4.55145,-4.4407c-2.28464,-2.38868 -4.1837,-4.31273 -4.22026,-4.27617c-0.07754,0.07769 -0.22836,-0.13863 3.6598,5.242c1.65639,2.29119 3.05395,4.33406 3.10559,4.54124c0.0518,0.20566 0.05789,0.69619 0.01356,1.08923c-0.06749,0.60022 -0.18326,0.80588 -0.72376,1.28575c-0.70393,0.62459 -1.35654,0.74342 -1.91902,0.34886c-0.17383,-0.12187 -1.69843,-2.27748 -3.38803,-4.79108c-1.6896,-2.5136 -3.13713,-4.60979 -3.2165,-4.65854c-0.07937,-0.05027 0.856,1.95299 2.07882,4.44831c3.0541,6.23373 2.88775,5.81632 2.57896,6.46681c-0.29005,0.61088 -1.20348,1.19434 -1.87225,1.19434c-0.69787,0 -1.12868,-0.59869 -2.56022,-3.55713c-0.72361,-1.49597 -1.35079,-2.6827 -1.39391,-2.64004c-0.04311,0.04266 0.3158,1.16387 0.7978,2.48923c0.48185,1.32688 0.87854,2.63395 0.88128,2.90511c0.00335,0.33362 -0.12873,0.63373 -0.40629,0.92318c-0.22622,0.23613 -0.41132,0.60022 -0.41132,0.81045c0,0.83634 -1.4879,1.66202 -2.41306,1.33906c-0.6281,-0.21785 -0.75819,-0.48749 -1.60642,-3.32405c-0.97909,-3.27378 -1.10461,-3.28444 -0.48581,-0.04113c0.19697,1.03286 0.32205,2.02764 0.27787,2.20892c-0.10115,0.42046 -0.6348,1.01915 -0.90733,1.01915c-0.11365,0 -0.24146,0.08988 -0.28396,0.20109c-0.0425,0.10968 1.0778,2.49227 2.48953,5.2938c3.21711,6.3815 4.29384,9.00479 5.80764,14.14168c0.08988,0.3062 0.17854,0.15234 0.52968,-0.91404c0.51277,-1.55691 0.86712,-2.30337 1.13584,-2.39021c0.3155,-0.10207 1.57793,1.31926 2.06847,2.33079c0.24361,0.5012 0.77902,1.8037 1.18986,2.89293c0.7287,1.93166 0.94213,2.3506 1.11092,2.1815c0.12659,-0.12644 0.49556,-2.41001 0.75697,-4.68596c0.62733,-5.46137 2.18927,-10.30881 4.84409,-15.03286c1.45469,-2.58825 1.61861,-2.66899 2.36842,-1.16997c0.64059,1.28118 0.88372,2.15408 1.24187,4.46355c0.38709,2.4938 0.69665,3.20827 1.62805,3.75365c0.60098,0.35343 0.72422,0.37628 1.05038,0.20261c0.20322,-0.10968 1.92953,-1.70468 3.83682,-3.54494c5.65637,-5.45985 6.25506,-5.93667 6.70751,-5.34407c0.39761,0.52252 0.13101,3.21284 -0.73275,7.37019c-0.79217,3.81306 -1.10903,6.55974 -0.77998,6.76387c0.09445,0.05789 0.84091,-0.14625 1.65898,-0.45397c2.36583,-0.88966 4.02481,-0.87748 4.43917,0.02894c0.35647,0.78303 0.07008,2.56997 -0.63373,3.95626c-0.99325,1.95756 -3.61654,5.38368 -5.33188,6.96496c-0.43721,0.40218 -1.38629,1.14102 -2.10838,1.6407c-2.68422,1.86007 -3.95169,3.79782 -3.02851,4.63417c0.42655,0.38694 1.59347,0.46007 2.72535,0.1691c1.62089,-0.41436 1.69402,-0.37018 1.69402,1.06181c0,1.6864 -1.21719,3.74908 -3.57693,6.06159c-1.47769,1.44875 -3.34233,2.87008 -4.92422,3.75365c-0.64516,0.36104 -1.91354,1.08466 -2.81859,1.60871c-0.9052,0.52252 -2.22477,1.2111 -2.93254,1.53101c-0.70777,0.31839 -1.28681,0.63373 -1.28681,0.69924c0,0.2148 1.99626,0.12797 4.41785,-0.19195c2.68194,-0.35343 3.51249,-0.30163 4.07097,0.25745c0.31839,0.31839 0.36104,0.46616 0.27421,0.93993c-0.17976,0.98564 -0.81425,1.82807 -3.10239,4.11926c-2.34283,2.3445 -3.9881,3.61806 -6.52257,5.04853c-1.32337,0.74646 -1.55158,0.9445 -2.43195,2.11295c-0.9864,1.30707 -1.15839,1.80979 -0.73808,2.15865c0.37262,0.30925 1.58494,0.34886 2.7022,0.08836c1.28666,-0.30163 2.09208,-0.70533 2.59556,-1.30403c0.21465,-0.25441 0.46189,-0.46311 0.54949,-0.46311c0.25791,0 0.38709,0.74494 0.38329,2.20892c-0.00442,1.68183 -0.32982,2.48313 -1.719,4.22742c-0.92531,1.16083 -0.97573,1.19739 -3.18542,2.30185c-2.83184,1.41371 -4.67134,2.13885 -6.63774,2.61567c-2.16764,0.52557 -5.54638,0.521 -7.7946,-0.00914zM236.20369,167.93075c-0.26812,-1.44418 -0.54385,-2.67813 -0.61088,-2.74211c-0.06855,-0.06551 -0.08988,0.67029 -0.05027,1.6346c0.06551,1.55691 0.12644,1.86768 0.55452,2.80152c0.26507,0.57737 0.50729,1.02372 0.53928,0.99021c0.03199,-0.03351 -0.163,-1.24157 -0.43264,-2.68422z" fill="#ede6a0"/><path d="M243.56855,249.46285c-1.57991,-0.24679 -3.54083,-0.73732 -4.57232,-1.14407c-0.64729,-0.25441 -1.13356,-0.29859 -3.28155,-0.29859c-1.93471,0 -2.87617,-0.07312 -4.04004,-0.30925c-5.33036,-1.08618 -9.48618,-4.14211 -11.64635,-8.56148c-0.23308,-0.47835 -0.37628,-0.92013 -0.31534,-0.98107c0.06094,-0.06094 0.67791,-0.02894 1.37106,0.0716c1.65441,0.23917 2.12971,0.23003 2.81066,-0.05484c0.85767,-0.358 1.86159,-1.4457 1.86159,-2.01545c0,-0.07465 -0.66877,-0.55147 -1.48531,-1.06028c-4.50468,-2.80305 -8.08313,-6.18041 -9.97367,-9.41306c-1.12122,-1.91643 -2.11295,-4.64026 -1.68945,-4.64026c0.07922,0 1.30555,0.27878 2.72383,0.62002c1.65593,0.39913 3.09706,0.65049 4.02633,0.70076c1.3284,0.07312 1.47465,0.05332 1.78999,-0.24527c0.34581,-0.33058 0.43112,-0.70838 0.22546,-1.0161c-0.06094,-0.0914 -0.95517,-0.59565 -1.98498,-1.1197c-3.33624,-1.69554 -6.29619,-3.84353 -8.85397,-6.42263c-1.59042,-1.60413 -3.60892,-4.14516 -4.27769,-5.38977c-0.36561,-0.67791 -0.37018,-0.716 -0.10359,-0.91251c0.73428,-0.54081 2.28052,-0.43417 5.5086,0.37628c3.44135,0.86529 3.4185,0.69467 -0.42807,-3.1062c-3.16714,-3.12905 -4.28988,-4.44374 -5.92601,-6.94516c-1.56757,-2.39935 -4.07813,-7.521 -4.07813,-8.32231c0,-0.28183 1.18368,-0.27421 2.28509,0.01371c0.46007,0.12187 1.74886,0.68248 2.86246,1.24766c2.31556,1.17454 3.10163,1.31012 4.22133,0.72361c0.59108,-0.30925 0.61088,-0.34429 0.65506,-1.18672c0.02437,-0.47835 -0.13406,-2.25462 -0.3519,-3.94712c-1.20196,-9.28509 -1.23243,-10.15495 -0.34124,-9.74973c0.76474,0.34886 2.43134,1.94385 4.53362,4.33863c2.8,3.19151 3.58455,4.0111 4.36757,4.55495c0.66572,0.46464 1.02982,0.55147 1.19434,0.2864c0.05332,-0.08683 0.26507,-0.78912 0.46921,-1.56148c0.65811,-2.48618 1.55082,-3.91665 2.44505,-3.91665c1.02829,0 2.59891,2.42372 3.60283,5.56039c0.99782,3.11687 1.35125,5.26942 1.39848,8.53101c0.0457,3.04374 0.22546,4.08575 0.86072,4.97998c0.85767,1.20501 2.04744,0.43264 3.0148,-1.95909c0.52709,-1.30403 0.79521,-1.38477 1.73515,-0.51795c1.19434,1.09989 2.0124,3.27378 2.43286,6.45005c0.10527,0.79978 0.25106,1.38172 0.33774,1.35125c0.08379,-0.03047 0.24024,-0.37323 0.34764,-0.7617c0.56168,-2.03373 0.96873,-3.20218 1.1756,-3.3728c0.53212,-0.44178 1.88246,0.95212 4.27587,4.41328c1.33587,1.93166 2.46668,3.2037 2.84936,3.2037c0.40507,0 0.47347,-0.90642 0.28716,-3.79782c-0.45687,-7.08988 -1.61617,-10.65158 -6.84644,-21.03351c-1.7094,-3.39412 -3.16729,-6.23221 -3.23889,-6.30838c-0.07617,-0.08074 -0.31839,0.06246 -0.58041,0.34276c-0.37628,0.4037 -0.56061,0.48139 -1.14102,0.48139c-0.74494,0 -1.67573,-0.44483 -1.93166,-0.92165c-0.08531,-0.15996 -0.14929,-2.00479 -0.14929,-4.363c0,-2.33536 -0.06855,-4.32644 -0.15843,-4.65092c-0.14929,-0.54081 -0.38847,-0.84091 -0.54385,-0.68553c-0.03961,0.03961 -0.41132,2.15408 -0.8272,4.69967c-0.71447,4.38433 -0.77541,4.64483 -1.16235,4.98455c-0.32753,0.28792 -0.52557,0.34429 -0.9963,0.2803c-0.76322,-0.10207 -1.3086,-0.46768 -1.43199,-0.96126c-0.05637,-0.22089 0.17824,-2.1099 0.53166,-4.30054c0.65658,-4.06746 0.73123,-4.75604 0.48444,-4.50925c-0.07922,0.07922 -0.75408,1.81589 -1.4975,3.85876c-0.80131,2.20131 -1.4914,3.85876 -1.69554,4.07051c-0.92165,0.95822 -3.0605,0.40522 -3.0605,-0.79217c0,-0.18128 0.54842,-1.96061 1.21872,-3.95626c0.67029,-1.99412 1.21872,-3.73079 1.21872,-3.85876c0,-0.44331 -0.38847,0.14929 -2.1358,3.26007c-0.93993,1.67573 -1.81589,3.16561 -1.94385,3.31338c-0.47378,0.54081 -1.89967,0.13558 -2.32622,-0.66115c-0.29554,-0.55147 -0.07617,-1.18215 1.15626,-3.33776c2.12514,-3.71708 2.04135,-3.86638 -0.46768,-0.83787c-2.99347,3.61349 -3.21284,3.75517 -4.26703,2.7802c-0.58498,-0.54233 -1.0938,-1.94995 -0.93232,-2.58215c0.04875,-0.19347 0.81197,-1.24157 1.69402,-2.33079c2.33384,-2.87922 2.22111,-2.93406 -0.7556,-0.37171c-2.56692,2.2074 -2.83199,2.3704 -3.45354,2.11295c-0.55452,-0.23003 -1.19282,-1.13493 -1.19282,-1.69249c0,-0.22699 0.15386,-0.58194 0.34276,-0.7876c0.18738,-0.20718 2.27138,-2.02155 4.6296,-4.03243c2.35669,-2.0124 4.33254,-3.73232 4.38738,-3.82372c0.05637,-0.0914 0.03047,-0.16453 -0.05637,-0.16453c-0.08836,0 -2.46638,1.34516 -5.28466,2.99042c-2.81828,1.64527 -5.31817,3.06507 -5.5543,3.15343c-0.31991,0.12187 -0.52252,0.11273 -0.79826,-0.03656c-0.40827,-0.21785 -1.01763,-1.19434 -1.01763,-1.63003c0,-0.38542 0.46159,-1.60413 0.72666,-1.91643c0.11882,-0.14168 2.19978,-1.43504 4.62046,-2.87312c2.4222,-1.43808 4.44222,-2.67661 4.48792,-2.75125c0.19195,-0.31077 -0.61697,-0.04875 -5.22524,1.69097c-2.66137,1.00544 -5.0272,1.82807 -5.25724,1.82807c-0.53471,0.00152 -0.96279,-0.42807 -1.19282,-1.19587c-0.22089,-0.74037 -0.09445,-1.31774 0.35647,-1.61023c0.18738,-0.12339 2.51208,-1.04353 5.16431,-2.04744c5.01959,-1.89815 5.6518,-2.16474 5.35778,-2.26224c-0.36561,-0.12339 -8.91795,1.51882 -11.38433,2.18455c-2.84875,0.76931 -3.07573,0.7617 -3.52209,-0.09902c-0.33515,-0.65049 -0.33058,-1.60871 0.01066,-1.98651c0.15082,-0.16605 0.65658,-0.40675 1.12274,-0.53624c0.46768,-0.12949 1.15778,-0.36104 1.53558,-0.51491c0.37628,-0.15234 1.22786,-0.38847 1.89206,-0.52405c1.70163,-0.34733 8.51273,-2.21959 8.68792,-2.38868c0.24222,-0.23308 -0.98716,-0.16605 -7.2407,0.39913c-3.27987,0.29554 -6.08292,0.49967 -6.23069,0.45245c-0.59565,-0.1889 -0.82873,-0.66725 -0.84853,-1.73819c-0.01371,-0.69162 -0.10359,-1.15473 -0.27269,-1.39543c-0.14777,-0.21023 -0.25288,-0.65658 -0.25288,-1.06333c0,-0.78455 0.36409,-1.26137 1.10446,-1.4457c0.23003,-0.05637 0.41893,-0.12492 0.41893,-0.15082c0,-0.02742 -0.20871,-0.25745 -0.46311,-0.51186c-0.44635,-0.44635 -0.46159,-0.50881 -0.4555,-1.80065c0.00457,-0.73732 0.00762,-1.61328 0.00457,-1.94842c-0.00305,-0.8272 0.40979,-1.35887 1.10141,-1.41828c0.29706,-0.02437 3.35756,0.36866 6.80196,0.87595c3.4444,0.50729 6.44853,0.92318 6.67552,0.92318c1.01915,0 -0.37476,-0.57584 -6.28553,-2.59587c-6.55822,-2.24091 -6.92231,-2.41306 -6.92231,-3.2753c0,-0.59869 0.44483,-1.53711 0.8272,-1.74124c0.20871,-0.11121 0.54385,-0.14777 0.81502,-0.08836c0.42198,0.09293 0.49053,0.04723 0.81654,-0.53166c0.43569,-0.77541 1.0222,-1.1197 1.55843,-0.91556c0.20871,0.07922 2.56844,1.38172 5.24505,2.89445c2.67508,1.51121 4.94799,2.74973 5.05005,2.74973c0.10207,0 0.16148,-0.06398 0.13406,-0.14015c-0.02742,-0.07769 -2.10686,-1.8296 -4.62046,-3.89227c-2.5136,-2.0642 -4.69053,-3.8938 -4.83678,-4.06746c-0.37476,-0.44026 -0.3321,-1.02677 0.12492,-1.69859c0.4235,-0.62307 0.99782,-0.92927 1.46551,-0.77998c0.163,0.0518 2.50141,1.90272 5.19782,4.11469c5.98237,4.90533 6.18194,5.01502 3.53885,1.94385c-0.87443,-1.01763 -3.13667,-3.43221 -5.0272,-5.3654c-3.07269,-3.14429 -3.43373,-3.56779 -3.43373,-4.01719c0,-1.22131 1.38629,-2.19826 2.21806,-1.563c0.16148,0.12431 0.5469,0.29691 0.85462,0.38359c0.46616,0.13116 0.98411,0.65689 3.11991,3.16287c2.62633,3.08487 5.47203,6.13014 5.72797,6.13014c0.22242,0 -0.19956,-0.64744 -4.07661,-6.25354c-1.98803,-2.87449 -3.68052,-5.41933 -3.76279,-5.6553c-0.19652,-0.56213 0.20109,-1.25863 0.9704,-1.70194c1.02829,-0.59291 1.01458,-0.60753 5.40958,5.75158c2.19217,3.17323 4.13297,5.91382 4.31273,6.09053l0.32753,0.32144l-0.29249,-0.7617c-0.15996,-0.41893 -1.57062,-3.516 -3.1321,-6.88057c-1.563,-3.36518 -2.84113,-6.30259 -2.84113,-6.5276c0,-0.90063 1.57519,-1.74566 2.33079,-1.2504c0.23308,0.15264 1.02982,1.68884 2.38259,4.59197c2.7086,5.81175 2.81828,5.87421 1.30403,0.73184c-1.01763,-3.45506 -1.10903,-3.94666 -0.82568,-4.47543c0.18585,-0.3484 1.01306,-0.73885 1.56453,-0.73885c0.82873,0 0.94908,0.27238 2.61262,5.9059c0.87291,2.95478 1.65593,5.49123 1.74124,5.63595c0.28335,0.48749 0.17824,-0.80283 -0.51034,-6.27532c-0.40065,-3.1778 -0.62155,-5.44827 -0.54842,-5.63656c0.41589,-1.08862 2.31708,-1.27462 2.73297,-0.26751c0.09293,0.22501 0.50424,3.07132 0.91556,6.32514c0.41132,3.25382 0.78607,5.95632 0.83482,6.00507c0.04875,0.04875 0.12339,0.05484 0.163,0.01371c0.04113,-0.04113 0.17976,-2.67356 0.30773,-5.85197c0.12797,-3.17795 0.26812,-6.06022 0.3123,-6.40496c0.11425,-0.88433 0.61393,-1.31073 1.63917,-1.39558c0.70076,-0.05819 0.87138,-0.01554 1.2568,0.31671l0.44788,0.3842l0.04266,6.183c0.02742,3.85282 0.09902,6.18361 0.19042,6.18361c0.08074,0 0.14777,-0.03351 0.14777,-0.07465c0,-0.04113 0.41132,-2.61262 0.91404,-5.71486c0.50226,-3.10224 0.91358,-5.71136 0.91358,-5.79774c0,-0.08653 0.16818,-0.32555 0.37384,-0.53121c0.65811,-0.65795 2.20283,-0.37171 2.52183,0.46723c0.10207,0.26842 -0.12949,2.02551 -0.84442,6.40984c-0.54172,3.32192 -0.98487,6.18285 -0.98487,6.35652c0,0.7617 0.4299,-0.31991 2.2886,-5.76057c1.08115,-3.16485 2.07943,-5.8797 2.21837,-6.0331c0.7617,-0.84183 2.4746,-0.60205 2.89552,0.40507c0.11624,0.27848 0.18113,0.59565 0.14396,0.70518c-0.03702,0.10938 -0.96172,2.75171 -2.05506,5.87193c-1.09319,3.12052 -1.98757,5.75752 -1.98757,5.85959c0,0.42503 0.54339,-0.4753 3.18709,-5.28618c1.51943,-2.76557 2.93589,-5.18198 3.14779,-5.37058c0.47911,-0.42655 0.87184,-0.4328 1.53254,-0.02437c1.27682,0.78912 1.21393,1.01641 -1.7874,6.46133c-2.65025,4.80783 -3.49025,6.3876 -3.49025,6.56431c0,0.25898 0.77845,-0.65658 4.15628,-4.88857c2.00585,-2.5136 3.78411,-4.69069 3.95153,-4.83739c0.51666,-0.45214 1.14818,-0.33896 1.81208,0.32494c0.42442,0.42442 0.59153,0.72057 0.59153,1.04886c0,0.50973 -0.21678,0.81288 -4.77066,6.66272c-1.56544,2.01088 -2.84631,3.70947 -2.84631,3.77497c-0.00015,0.22089 0.52511,-0.17519 1.9146,-1.4457c6.63637,-6.06768 6.62905,-6.06159 7.06109,-6.06159c0.86361,0 1.79456,1.14864 1.61023,1.98651c-0.07221,0.32905 -1.15443,1.41066 -4.23702,4.23504c-4.13983,3.79173 -4.81439,4.44222 -4.61314,4.44222c0.21587,0 1.01732,-0.48292 5.41125,-3.26159c3.18481,-2.0124 4.6104,-2.83199 4.92803,-2.83199c0.30559,0 0.58971,0.15234 0.8988,0.48292l0.45184,0.48444l1.03652,-0.56061c0.57021,-0.30773 1.21095,-0.55909 1.42376,-0.55909c0.83604,0 1.61297,1.61632 1.16037,2.41306c-0.13985,0.24679 -2.34131,1.61023 -6.41898,3.97606c-6.06601,3.51904 -6.79008,3.96997 -6.3815,3.96997c0.10655,0 3.0509,-1.03743 6.54298,-2.30642c7.38511,-2.68118 7.01615,-2.56235 7.45428,-2.40087c0.89637,0.3321 1.28605,2.1358 0.58102,2.69032c-0.20383,0.16148 -3.25443,1.34059 -6.77911,2.62176c-3.52468,1.28118 -6.40847,2.39021 -6.40847,2.46181c-0.00005,0.29249 1.72555,0.0914 7.57021,-0.879c5.81937,-0.96583 6.14187,-1.00392 6.50642,-0.76474c0.58803,0.38542 0.79521,1.35277 0.49663,2.30947c-0.13101,0.41893 -0.2733,1.03591 -0.31702,1.37106c-0.12355,0.94603 -0.47682,1.1395 -2.12407,1.15778c-6.85223,0.07617 -11.37367,0.23156 -11.53728,0.39456c-0.23933,0.23917 -0.54551,0.17519 6.71589,1.41219c5.95602,1.01458 6.18072,1.06485 6.52927,1.47008c0.50622,0.58803 0.40507,1.78085 -0.19469,2.29728c-0.22485,0.19347 -0.51201,0.3519 -0.63815,0.3519c-0.1854,0 -0.20977,0.13101 -0.1272,0.68096c0.07251,0.48444 0.02407,0.8988 -0.16712,1.43047c-0.26568,0.73885 -0.26477,0.7556 0.05941,1.16692c0.38755,0.49358 0.41391,0.94603 0.09872,1.70011c-0.26873,0.64287 -0.62337,0.9506 -1.10279,0.95669c-0.2899,0.00457 -0.34276,0.08836 -0.34276,0.54385c0,1.09989 -0.59184,1.95452 -1.3383,1.93319c-0.22744,-0.00762 -2.47018,-0.77998 -4.98379,-1.71687c-5.19021,-1.93471 -5.40805,-2.00631 -5.40805,-1.80979c-0.00005,0.14625 2.70905,2.19978 4.34168,3.29053c0.50272,0.33515 1.75236,1.10294 2.77684,1.70468c1.02464,0.60174 1.9338,1.22786 2.02063,1.38934c0.30605,0.5728 0.35388,1.60109 0.09765,2.09619c-0.30361,0.58651 -0.95045,1.10598 -1.3738,1.10294c-0.17717,-0.00152 -1.4876,-0.85615 -2.91197,-1.89815c-2.71378,-1.98651 -6.3556,-4.25789 -6.66363,-4.15582c-0.09911,0.03351 1.39424,1.70163 3.31856,3.70642c4.47406,4.66007 4.48762,4.67682 4.48762,5.31513c0,0.75713 -0.83086,1.60566 -1.57291,1.60566c-0.51841,0 -0.7914,-0.25593 -5.3034,-4.95103c-2.61628,-2.72383 -4.81301,-4.95103 -4.88157,-4.95103c-0.06855,0 -0.12339,0.05027 -0.12172,0.11425c0.00152,0.06246 1.76668,2.54712 3.92274,5.52231l3.91985,5.40805l-0.02803,0.91251c-0.0262,0.85462 -0.06703,0.94908 -0.6415,1.48531c-0.66044,0.61545 -1.1214,0.71143 -1.65106,0.33972c-0.1825,-0.12797 -1.88459,-2.54407 -3.78244,-5.36997c-3.33029,-4.95865 -4.02755,-5.92296 -4.02755,-5.57563c0,0.08988 1.26823,2.7482 2.81828,5.90773c1.55661,3.17323 2.81828,5.93058 2.81828,6.15909c0,0.57432 -0.3289,0.98716 -1.042,1.3086c-1.18627,0.53624 -1.23395,0.48139 -3.38773,-3.842c-2.7351,-5.49184 -2.92949,-5.55734 -1.05449,-0.35495c0.67029,1.86007 1.21872,3.57388 1.21872,3.80696c0,0.25593 -0.15127,0.5667 -0.38085,0.78303c-0.22318,0.20871 -0.38085,0.52709 -0.38085,0.76627c0,0.8272 -1.22374,1.55082 -2.20527,1.30403c-0.52176,-0.13101 -0.65476,-0.44788 -1.82229,-4.35386c-0.5632,-1.88292 -1.08511,-3.52818 -1.15961,-3.65615c-0.27101,-0.46159 -0.14472,0.69924 0.38847,3.56779c0.29325,1.57671 0.53319,3.05288 0.53319,3.27835c0,0.44635 -0.47637,0.97497 -1.02829,1.14255c-0.1886,0.05637 -0.34276,0.15539 -0.34276,0.21785c0,0.06398 0.79628,1.65288 1.76973,3.53275c3.38559,6.53689 5.24124,10.81763 6.23556,14.38542c0.71539,2.5654 0.66847,2.43439 0.80877,2.27138c0.06627,-0.07617 0.34459,-0.83787 0.61819,-1.69097c0.27375,-0.8531 0.58666,-1.67269 0.69543,-1.82198c0.5207,-0.71143 1.74231,0.83177 2.79406,3.52971c1.18749,3.04527 1.43047,3.57693 1.63841,3.57693c0.41695,0 0.60128,-0.83482 1.05937,-4.7926c0.64973,-5.61523 2.25721,-10.47486 5.12973,-15.50664c0.51415,-0.90185 1.01336,-1.63765 1.10934,-1.63765c0.20901,0 0.69589,0.83787 1.13569,1.95604c0.17626,0.44788 0.4919,1.87682 0.70152,3.17628c0.20962,1.29793 0.49038,2.57758 0.62383,2.84113c0.46372,0.91861 1.33526,1.62394 2.00707,1.62394c0.29645,0 1.64786,-1.2309 6.38714,-5.81023c2.93254,-2.83504 3.91513,-3.59064 4.27312,-3.29358c0.38999,0.32448 0.1173,2.96453 -0.73885,7.1234c-0.7815,3.80392 -1.08313,6.54603 -0.76779,7.00762c0.13863,0.20109 0.24374,0.19499 0.88509,-0.05332c1.52339,-0.58803 3.15343,-1.01306 3.88161,-1.01306c0.97802,0 1.64679,0.58346 1.64679,1.43961c0,2.65223 -4.45136,8.89358 -8.11513,11.37671c-3.22503,2.18607 -4.52144,4.45288 -2.99499,5.24048c0.55909,0.28945 1.4198,0.28335 2.75734,-0.02133c1.26137,-0.2864 1.33906,-0.23613 1.34211,0.88662c0.00305,0.88966 -0.43874,2.09619 -1.19434,3.26768c-1.25985,1.9469 -4.44831,4.86725 -6.71939,6.15147c-2.49136,1.40914 -3.36579,1.90729 -4.19467,2.39325c-0.50272,0.29402 -1.56529,0.82568 -2.36126,1.18215c-0.79597,0.35495 -1.44723,0.70686 -1.44723,0.77998c0,0.26355 2.64355,0.2148 5.05341,-0.09597c2.88257,-0.37018 3.67534,-0.29554 3.98078,0.37628c0.12949,0.28335 0.1173,0.54538 -0.04875,1.10141c-0.17062,0.57127 -0.56503,1.10598 -1.81436,2.45876c-0.87778,0.9506 -2.09634,2.17236 -2.70783,2.71469c-1.30829,1.16083 -3.84992,2.90054 -5.31284,3.63787c-0.9314,0.46768 -1.13584,0.66115 -2.03526,1.91795c-1.19769,1.67421 -1.2891,2.16017 -0.47149,2.50141c1.32124,0.55147 4.15643,-0.13254 5.19584,-1.25375c0.19454,-0.21023 0.41771,-0.34276 0.49587,-0.29402c0.23704,0.14625 0.35236,1.94233 0.18159,2.82894c-0.21465,1.11513 -0.59656,1.8555 -1.6081,3.11991c-0.94329,1.17758 -1.84803,1.74581 -5.12866,3.22503c-4.2914,1.93319 -7.28015,2.48313 -10.64427,1.95909zM236.34842,167.57732c-0.38085,-2.04135 -0.7617,-3.78107 -0.84396,-3.86333c-0.10054,-0.10054 -0.15082,0.65049 -0.15082,2.21349v2.36583l0.61393,1.41828c0.33819,0.77845 0.69619,1.563 0.79354,1.73972c0.36546,0.66115 0.27467,-0.19195 -0.41269,-3.87399z" fill="#e2d75d"/><path d="M244.03653,249.45828c-1.61129,-0.21328 -3.30897,-0.62155 -5.0272,-1.20958c-1.04581,-0.358 -1.27798,-0.38237 -2.74165,-0.29249c-5.51164,0.33667 -11.1025,-1.9667 -14.27269,-5.88183c-1.30555,-1.61023 -2.53493,-3.9654 -2.06572,-3.95473c0.06246,0.00152 0.69771,0.09902 1.41066,0.21632c1.55996,0.25593 2.54712,0.1173 3.31034,-0.46464c0.57584,-0.44026 1.10446,-1.20958 1.10446,-1.61328c0.00152,-0.16605 -0.72818,-0.73732 -2.01697,-1.57976c-5.14755,-3.3667 -8.31926,-6.62067 -10.09097,-10.35299c-0.61697,-1.29946 -1.18215,-2.93254 -1.07704,-3.10468c0.04266,-0.06855 1.1593,0.13558 2.48009,0.45245c4.19391,1.00392 5.61371,1.11055 6.20174,0.46007c0.15386,-0.17062 0.2407,-0.46616 0.21175,-0.72209c-0.04113,-0.36561 -0.21175,-0.51338 -1.11513,-0.96431c-5.94124,-2.97062 -10.62111,-6.9802 -13.63286,-11.68139c-0.98868,-1.5432 -0.91099,-1.65136 1.18368,-1.64374c1.19434,0.00305 1.91338,0.11425 3.71708,0.56975c3.05136,0.77236 3.33624,0.61697 1.82807,-0.99782c-0.48596,-0.521 -1.76104,-1.80522 -2.83199,-2.8518c-3.20979,-3.13972 -5.32122,-5.96409 -7.15386,-9.57149c-0.93536,-1.84178 -2.22873,-4.78498 -2.22873,-5.07138c0,-0.07465 0.22851,-0.13406 0.50881,-0.13406c1.02067,0 2.86398,0.60936 4.6555,1.54015c2.15103,1.11665 3.05898,1.28879 4.07356,0.77236c1.03286,-0.52709 1.02677,-0.50272 0.75713,-3.03156c-0.13254,-1.23852 -0.4494,-3.86333 -0.70381,-5.83156c-0.46616,-3.60892 -0.62307,-5.82546 -0.42503,-6.0235c0.40979,-0.40979 2.25919,1.18063 4.96322,4.26551c3.29815,3.76431 4.9815,5.2877 5.49184,4.97236c0.10207,-0.06398 0.358,-0.76017 0.56975,-1.55082c0.99935,-3.74298 2.18455,-4.81697 3.6333,-3.29815c1.15626,1.21262 2.24853,3.87095 3.14429,7.65201c0.41893,1.76257 0.48292,2.35669 0.58955,5.40805c0.10207,2.93711 0.16453,3.54494 0.43874,4.24875c0.95669,2.45571 2.50446,1.93471 3.68509,-1.24004c0.17976,-0.48292 0.39913,-0.87595 0.48749,-0.87595c0.36561,0 1.22176,0.67943 1.66202,1.31926c0.90033,1.3086 1.62394,3.74298 1.88444,6.33428c0.05637,0.56366 0.16316,1.06333 0.23719,1.10903c0.07404,0.0457 0.24542,-0.31382 0.381,-0.79826c0.97025,-3.46877 1.136,-3.8161 1.72707,-3.62873c0.50577,0.15996 2.00677,1.8951 3.36945,3.89532c1.38705,2.03526 3.04131,3.88161 3.37569,3.76888c0.26827,-0.0914 0.26339,-4.37824 -0.00762,-6.6679c-0.63663,-5.38063 -2.07425,-9.30794 -6.91393,-18.8901c-2.8163,-5.57867 -3.27027,-6.37236 -3.41347,-5.98694c-0.03808,0.10054 -0.20566,0.35647 -0.37323,0.57127c-0.53166,0.67639 -2.03983,0.44331 -2.63547,-0.40675c-0.20109,-0.2864 -0.23765,-0.96126 -0.23765,-4.33711c0,-3.66986 -0.0259,-4.06594 -0.31687,-4.84135c-0.17976,-0.48139 -0.40827,-0.84244 -0.53319,-0.84244c-0.11882,0 -0.21632,0.03961 -0.21632,0.08988c0,0.44483 -1.55691,9.43591 -1.67116,9.64918c-0.20566,0.38542 -0.81349,0.50729 -1.54168,0.31077c-1.05419,-0.28335 -1.05571,-0.32905 -0.2148,-5.56344c1.0161,-6.33732 0.83177,-6.41197 -1.29793,-0.52557c-0.77388,2.1358 -1.46855,4.00348 -1.5432,4.14973c-0.18738,0.358 -0.93079,0.72514 -1.4716,0.72514c-0.60783,0 -1.46551,-0.60479 -1.52035,-1.07247c-0.02437,-0.20566 0.57584,-2.21197 1.33297,-4.45745c0.75713,-2.24548 1.37715,-4.1482 1.37715,-4.22742c0,-0.08074 -0.09445,-0.14472 -0.20718,-0.14472c-0.11425,0 -1.0679,1.52492 -2.11904,3.38955c-2.22873,3.95321 -2.4222,4.22742 -2.98433,4.22742c-0.74646,0 -1.54625,-0.70533 -1.54472,-1.36192c0,-0.2148 0.68096,-1.60718 1.51425,-3.09554c0.83177,-1.48683 1.55539,-2.84113 1.60871,-3.00871c0.25898,-0.81654 -0.53319,-0.06855 -2.74516,2.59434c-1.41066,1.69706 -2.54864,2.93254 -2.7482,2.98281c-0.36409,0.0914 -1.10903,-0.22699 -1.42742,-0.61088c-0.19804,-0.23917 -0.43569,-1.01153 -0.5728,-1.8555c-0.06703,-0.41893 0.13101,-0.72818 1.84331,-2.86094c1.05419,-1.31469 1.91795,-2.45724 1.91795,-2.5395c0,-0.38237 -0.57432,0.01371 -2.9691,2.05354c-1.42133,1.20958 -2.69946,2.23025 -2.84113,2.26681c-0.5728,0.14929 -1.65441,-0.89271 -1.65441,-1.59347c0,-0.44026 0.55299,-0.96431 5.33036,-5.05005c4.15125,-3.54951 5.21001,-4.60979 4.23656,-4.23961c-0.19652,0.07465 -2.76801,1.54625 -5.71273,3.27073c-2.94472,1.72296 -5.53145,3.1778 -5.74625,3.23264c-0.31382,0.07769 -0.48292,0.00152 -0.83939,-0.37933c-0.60479,-0.64744 -0.68248,-1.14407 -0.33972,-2.14494l0.28792,-0.83787l4.92514,-2.97062c2.7086,-1.6346 4.95256,-3.05745 4.98455,-3.16104c0.03199,-0.10511 -0.05789,-0.19042 -0.19804,-0.19042c-0.14168,0 -2.63243,0.89423 -5.53449,1.98651c-2.90207,1.09227 -5.44157,1.9667 -5.64418,1.94233c-0.74646,-0.0914 -1.36953,-1.67269 -0.90337,-2.29423c0.11425,-0.15234 2.58977,-1.16997 5.68683,-2.33993c5.35778,-2.02002 6.16975,-2.38716 5.70054,-2.56692c-0.37933,-0.14625 -9.51208,1.57062 -12.14755,2.28357c-2.34603,0.63373 -2.54712,0.66572 -2.88074,0.44635c-0.42198,-0.27573 -0.65049,-0.80435 -0.65049,-1.49597c0,-0.74342 0.27116,-0.98107 1.52339,-1.33145c0.62764,-0.17671 1.21872,-0.38237 1.31317,-0.45854c0.09445,-0.07617 0.83634,-0.27878 1.64984,-0.45092c2.15256,-0.45702 9.51817,-2.50598 9.71621,-2.7025c0.12187,-0.12339 0.09902,-0.19499 -0.08531,-0.26659c-0.13863,-0.05332 -3.34385,0.18128 -7.12035,0.521c-4.45593,0.39913 -6.99391,0.56975 -7.22242,0.48139c-0.4555,-0.17214 -0.75408,-1.05571 -0.62612,-1.85245c0.08988,-0.56518 -0.18433,-1.32688 -0.40065,-1.11055c-0.14625,0.14472 -0.29402,-1.00849 -0.19042,-1.47922c0.05484,-0.24984 0.13863,-0.41741 0.18433,-0.37018c0.04723,0.04723 0.16453,-0.02437 0.26355,-0.15843c0.10968,-0.15082 0.521,-0.2803 1.08161,-0.34124c0.49663,-0.05332 0.89271,-0.16453 0.879,-0.24831c-0.01219,-0.08379 -0.31991,-0.23917 -0.68553,-0.34276c-0.36409,-0.10511 -0.73732,-0.29402 -0.83025,-0.41893c-0.10054,-0.13711 -0.17062,-1.01763 -0.17519,-2.22263c-0.00914,-2.25615 0.12339,-2.57758 1.0679,-2.57606c0.27116,0 3.50686,0.44635 7.19042,0.99021c4.03243,0.59565 6.75016,0.93384 6.83395,0.85005c0.20871,-0.20871 -0.02133,-0.47378 -0.6383,-0.73275c-0.30316,-0.12797 -3.19151,-1.13798 -6.41654,-2.24396c-3.22655,-1.10598 -6.01893,-2.09314 -6.20631,-2.19369c-0.44635,-0.23917 -0.58041,-0.81959 -0.358,-1.55996c0.23003,-0.76779 0.72666,-1.10294 1.43656,-0.9704c0.49358,0.09293 0.55299,0.06246 0.79217,-0.40979c0.39151,-0.77084 0.68553,-1.042 1.12884,-1.042c0.23765,0 2.23025,1.02982 4.88857,2.52731c5.46594,3.07878 5.90468,3.30577 6.19565,3.19304c0.19499,-0.07465 0.19804,-0.12644 0.02437,-0.33667c-0.11273,-0.13558 -2.28052,-1.95452 -4.81697,-4.04157c-2.53645,-2.08705 -4.71948,-3.9593 -4.85201,-4.16192c-0.33972,-0.51948 -0.15234,-1.18215 0.4951,-1.75038c0.39304,-0.34581 0.62307,-0.44331 0.86529,-0.36866c0.37933,0.11578 0.26812,0.02742 6.11948,4.83983c2.42982,1.99717 4.5062,3.66834 4.61436,3.71251c0.33819,0.13711 0.38847,-0.08379 0.11273,-0.50424c-0.54081,-0.8272 -3.24331,-3.8679 -5.40196,-6.07987c-4.75909,-4.87943 -4.88553,-5.02416 -4.88553,-5.55582c0,-0.35647 0.14168,-0.63541 0.51795,-1.01062c0.60631,-0.60677 0.84396,-0.63236 1.76714,-0.18966c0.37628,0.18098 0.7876,0.37476 0.91404,0.43082c0.12492,0.05591 1.34516,1.39863 2.71164,2.98448c4.08575,4.74233 6.26115,6.98629 6.52165,6.72579c0.14015,-0.14015 -0.15234,-0.58955 -4.33254,-6.642c-4.29902,-6.22612 -4.37367,-6.36733 -3.69271,-7.09156c0.55756,-0.59367 1.15626,-0.77967 1.59042,-0.4948c0.19956,0.13101 2.19674,2.89841 4.43917,6.14979c4.22133,6.12557 4.6037,6.64048 4.81545,6.50947c0.1889,-0.11578 -0.14929,-0.8988 -3.42459,-7.9506c-1.64679,-3.54189 -2.99195,-6.59767 -2.99195,-6.79099c0,-0.53319 0.9765,-1.31865 1.63917,-1.31865c0.15843,0 0.42655,0.15432 0.59869,0.34276c0.17062,0.1886 1.21719,2.30931 2.32775,4.71262c2.07639,4.49691 2.37193,5.05904 2.58825,4.92651c0.17214,-0.10664 0.00609,-0.78303 -1.14864,-4.6657c-0.55909,-1.88276 -0.9765,-3.55896 -0.94908,-3.82403c0.05332,-0.53593 0.55909,-0.98289 1.27051,-1.12198c0.93689,-0.18326 1.01763,-0.0099 2.82285,6.10729c1.76561,5.98755 1.87682,6.31965 2.12057,6.31965c0.24984,0 0.19195,-0.70229 -0.53624,-6.39887c-0.37933,-2.97443 -0.69771,-5.71197 -0.70533,-6.08368c-0.01828,-0.88707 0.37323,-1.22862 1.40914,-1.22862c0.60326,0 0.78303,0.06444 0.96126,0.34276c0.14015,0.21845 0.50272,2.60881 0.99782,6.58868c0.42807,3.43587 0.81502,6.36535 0.86072,6.51312c0.08531,0.27573 0.29554,0.3519 0.42046,0.14929c0.03961,-0.06398 0.18281,-2.95996 0.31839,-6.43589c0.13558,-3.47593 0.31382,-6.57299 0.39761,-6.88209c0.0914,-0.34231 0.26964,-0.59976 0.45397,-0.65841c0.16757,-0.05301 0.26964,-0.15249 0.22699,-0.22104c-0.11273,-0.18205 0.93689,-0.34566 1.46703,-0.22897c0.25136,0.05499 0.41589,0.13924 0.36866,0.18723c-0.04875,0.04814 0.03199,0.22013 0.17824,0.38222c0.24527,0.26964 0.27116,0.85386 0.3123,6.82953c0.03808,5.60609 0.07617,6.53536 0.26659,6.53536c0.12187,0 0.22242,-0.03047 0.22242,-0.06703c0,-0.43417 2.02337,-12.30918 2.15012,-12.61767c0.19545,-0.47545 0.67532,-0.65156 1.3869,-0.50927c0.71097,0.14213 1.03271,0.50592 1.03271,1.16783c0,0.31428 -0.44559,3.28962 -0.99021,6.61169c-1.02372,6.2447 -1.0909,6.78551 -0.8432,6.78551c0.23902,0 0.34474,-0.27878 2.3701,-6.24653c1.06653,-3.142 2.03069,-5.93789 2.14296,-6.21332c0.53532,-1.31454 2.95691,-1.04307 2.95691,0.33149c0,0.25806 -0.95974,3.19365 -2.13275,6.52348c-1.17301,3.33045 -2.13275,6.12435 -2.13275,6.20966c0,0.23917 0.2311,0.18585 0.48977,-0.10968c0.12766,-0.14777 1.56087,-2.69032 3.18466,-5.65332c1.64131,-2.99439 3.10407,-5.48788 3.29388,-5.61523c0.66953,-0.44894 2.01972,0.34886 2.01972,1.19328c0,0.29523 -0.97848,2.22157 -2.87526,5.66048c-3.60633,6.53993 -3.68067,6.68161 -3.57769,6.84766c0.14686,0.23765 0.6156,-0.29706 4.36422,-4.98455c2.00997,-2.5136 3.86394,-4.79351 4.12017,-5.0659c0.62869,-0.66831 1.18398,-0.66146 1.86844,0.02285c0.94161,0.94176 1.06409,0.71996 -3.93996,7.13162c-3.31628,4.25027 -3.71069,4.79869 -3.55713,4.95256c0.15371,0.15386 0.75195,-0.35343 4.96703,-4.20457c4.57521,-4.18172 4.66235,-4.23504 5.43334,-3.40783c0.56335,0.60326 0.70198,1.05419 0.47225,1.53406c-0.10588,0.21937 -2.0089,2.06572 -4.2291,4.10098c-4.68322,4.29293 -5.12089,4.71795 -4.99262,4.84592c0.18799,0.1889 0.75606,-0.13558 5.61996,-3.20979c3.20035,-2.02155 5.07595,-3.11687 5.33889,-3.11839c0.26492,-0.00152 0.53867,0.15691 0.78988,0.4555c0.2116,0.25136 0.45991,0.45702 0.55193,0.45702c0.09217,0 0.62855,-0.25136 1.19206,-0.55909c1.26655,-0.69162 1.70803,-0.63983 2.16231,0.24984c0.39776,0.77998 0.38755,1.24766 -0.03626,1.63765c-0.1886,0.17214 -3.15343,1.93776 -6.58868,3.92274c-3.43526,1.98346 -6.3812,3.73841 -6.54633,3.89989c-0.29849,0.29097 -0.29782,0.29402 0.09704,0.29402c0.21867,0 3.41225,-1.09684 7.09704,-2.43743c3.68464,-1.34059 6.91286,-2.43743 7.17351,-2.43743c0.33835,0 0.54598,0.10968 0.72514,0.38237c0.33956,0.51795 0.44422,1.60261 0.18692,1.93624c-0.11334,0.14625 -3.13637,1.32688 -6.87569,2.68575c-3.67047,1.33449 -6.71071,2.46333 -6.75626,2.50903c-0.04566,0.0457 -0.03776,0.15539 0.01746,0.24527c0.20578,0.33362 1.99489,0.14168 7.98762,-0.8531l6.1533,-1.02067l0.33956,0.39456c0.46616,0.54081 0.60022,1.36649 0.32296,1.98498c-0.12111,0.27269 -0.25608,0.79521 -0.29919,1.16235c-0.14198,1.20958 0.2215,1.14255 -7.09125,1.31317c-5.21336,0.12187 -6.57421,0.19499 -6.78063,0.36561c-0.14774,0.12339 -0.20113,0.27269 -0.12478,0.34886c0.07338,0.07312 3.10971,0.64287 6.74742,1.26746c5.78174,0.99173 6.64764,1.17454 6.88072,1.45941c0.57478,0.70076 0.16118,2.16931 -0.67486,2.39173c-0.38298,0.10207 -0.49267,0.20566 -0.45153,0.42503c0.1435,0.77084 0.05774,1.73819 -0.18723,2.11143c-0.25639,0.39151 -0.25288,0.41589 0.12507,0.86529c0.43996,0.52252 0.48566,0.97802 0.17306,1.72601c-0.22927,0.54842 -0.63099,0.84548 -1.14544,0.84548c-0.25852,0 -0.31458,0.09597 -0.31458,0.53776c0,0.59565 -0.36729,1.59499 -0.65338,1.7778c-0.40218,0.25441 -1.08877,0.05484 -5.80246,-1.69249c-5.82607,-2.16017 -5.57898,-2.08248 -5.57898,-1.78694c-0.00005,0.43264 3.60009,3.06355 6.82176,4.9876c1.14955,0.68705 2.23726,1.3802 2.41732,1.54168c1.06424,0.95669 0.10283,3.53885 -1.14239,3.06812c-0.22196,-0.08379 -1.46612,-0.94298 -2.76481,-1.90729c-2.83306,-2.10686 -6.79145,-4.51839 -7.02712,-4.28379c-0.19027,0.19042 0.42099,0.88205 4.89467,5.52992c3.58363,3.7247 3.61425,3.77802 2.72596,4.78955c-0.35754,0.40675 -0.59245,0.53928 -0.9637,0.53928c-0.41391,0 -0.66862,-0.18585 -1.62196,-1.18368c-4.52631,-4.73624 -9.02733,-9.32775 -9.14296,-9.32775c-0.07587,0 -0.13802,0.09597 -0.13802,0.2148c0,0.11882 1.82457,2.74059 4.05467,5.82699c2.22995,3.0864 4.10692,5.74929 4.1709,5.91687c0.16818,0.44026 -0.0585,1.70011 -0.36683,2.04135c-0.41604,0.46007 -1.11034,0.69314 -1.51326,0.51034c-0.20027,-0.0914 -1.82945,-2.37345 -3.90355,-5.46746c-1.95802,-2.92187 -3.75974,-5.56801 -4.00394,-5.88183c-0.46067,-0.59412 -0.723,-0.72361 -0.723,-0.36104c0,0.11578 1.37106,2.96757 3.04679,6.3358c1.72631,3.47029 3.04679,6.30533 3.04679,6.54146c0,0.48901 -0.48916,1.00087 -1.18977,1.24461c-0.86696,0.30163 -1.05998,0.03808 -3.27286,-4.46812c-1.12137,-2.28357 -2.18485,-4.3234 -2.36309,-4.5321l-0.32418,-0.38085l-0.00503,0.34429c-0.00274,0.1889 0.64622,2.14951 1.4422,4.35843c0.79597,2.2074 1.44723,4.15582 1.44723,4.32797c0,0.17367 -0.17138,0.51795 -0.38085,0.76627c-0.20947,0.24984 -0.38085,0.56823 -0.38085,0.70838c0,0.4555 -0.31885,0.86529 -0.84533,1.08466c-0.70503,0.29402 -1.19053,0.27116 -1.50283,-0.07465c-0.14442,-0.15996 -0.80268,-2.10229 -1.46261,-4.31578c-1.23654,-4.14973 -1.47861,-4.8383 -1.69798,-4.8383c-0.22211,0 -0.14701,0.58955 0.56884,4.47421c0.38801,2.10381 0.65628,3.95626 0.60357,4.16496c-0.0649,0.25898 -0.28533,0.45245 -0.69756,0.61545c-0.33149,0.12949 -0.60266,0.27878 -0.60266,0.32905c0,0.0518 0.69573,1.42894 1.54625,3.06202c3.49893,6.71665 5.59162,11.51534 6.6094,15.15626c0.30453,1.08923 0.58163,2.07029 0.61576,2.17998c0.10603,0.34124 0.35328,0.04418 0.52115,-0.62612c0.24527,-0.97954 0.92942,-2.74668 1.15885,-2.99195c0.17595,-0.1889 0.29021,-0.12949 0.81252,0.41893c0.68477,0.72057 1.42459,2.16779 2.19628,4.2975c0.7351,2.02916 1.03033,2.60501 1.30927,2.55169c0.33439,-0.06551 0.54522,-0.8272 0.83314,-3.01175c0.58453,-4.43765 0.76413,-5.51012 1.2373,-7.39608c0.27436,-1.0938 0.75058,-2.67051 1.0583,-3.50381c1.07674,-2.91882 3.70413,-7.99021 4.13861,-7.99021c0.2541,0 1.06379,1.70316 1.33998,2.81828c0.12446,0.50272 0.33439,1.66812 0.46646,2.58977c0.30894,2.1556 0.75941,3.13667 1.72205,3.74755c0.38313,0.24222 0.76185,0.44178 0.84168,0.44178c0.26096,0 1.50664,-1.09684 3.9852,-3.50686c5.22677,-5.08357 6.39217,-6.07225 6.73798,-5.72492c0.32905,0.33058 0.01219,3.14581 -0.81349,7.22089c-0.92927,4.58847 -1.11055,6.50642 -0.65506,6.96344c0.22242,0.22394 0.31382,0.21328 1.0877,-0.13101c1.86616,-0.82416 3.6272,-1.14255 4.44527,-0.79978c0.76627,0.31991 0.95517,0.8074 0.73123,1.87835c-0.38999,1.85854 -2.03373,4.57323 -4.49706,7.4296c-1.52339,1.76409 -2.19978,2.38259 -3.67291,3.35299c-2.8457,1.87682 -4.19543,4.08575 -3.08183,5.04396c0.34429,0.29706 0.58955,0.36257 1.36801,0.36257c0.52252,0 1.32383,-0.09902 1.78237,-0.22089c0.75408,-0.19956 0.85158,-0.19652 1.02372,0.02894c0.48139,0.63069 -0.0259,2.52884 -1.11208,4.16344c-1.4198,2.1358 -4.64483,4.98607 -7.26446,6.41959c-0.65506,0.35952 -1.9047,1.07095 -2.777,1.58128c-0.8723,0.51186 -2.27595,1.22938 -3.11915,1.59652c-0.8432,0.36714 -1.53299,0.75408 -1.53299,0.86072c0,0.27269 2.97351,0.24984 4.95103,-0.03656c3.08396,-0.44635 4.18979,-0.25441 4.18979,0.72514c0,0.93079 -0.61164,1.78694 -2.95706,4.14211c-2.43164,2.44048 -4.06564,3.70185 -6.52699,5.04091c-1.29032,0.70076 -1.49232,0.87595 -2.43835,2.11447c-1.27706,1.67269 -1.37822,1.9926 -0.79079,2.49684c0.40964,0.35343 0.51415,0.37018 1.81314,0.29859c1.5304,-0.08379 2.8585,-0.56061 3.63254,-1.30098c0.60692,-0.58041 0.74266,-0.28183 0.67684,1.4914c-0.0652,1.758 -0.3059,2.35517 -1.60703,3.98977l-0.93293,1.17149l-2.4807,1.21567c-3.12783,1.53101 -4.18248,1.93928 -6.3652,2.46485c-2.15256,0.51795 -3.59933,0.61393 -5.48422,0.36561zM237.33146,172.11704c-0.0064,-0.57127 -1.68076,-9.0185 -1.81482,-9.15256c-0.08683,-0.08683 -0.20718,-0.10968 -0.26659,-0.05027c-0.05941,0.05941 -0.08988,1.31774 -0.06703,2.79543l0.04113,2.68727l0.66115,1.38324c0.36409,0.7617 0.76779,1.6407 0.8953,1.95604c0.22333,0.54842 0.55528,0.77693 0.55086,0.38085z" fill="#dacd2f"/><path d="M244.03653,249.45828c-1.61129,-0.21328 -3.30897,-0.62155 -5.0272,-1.20958c-1.04581,-0.358 -1.27798,-0.38237 -2.74165,-0.29249c-5.51164,0.33667 -11.1025,-1.9667 -14.27269,-5.88183c-1.30555,-1.61023 -2.53493,-3.9654 -2.06572,-3.95473c0.06246,0.00152 0.69771,0.09902 1.41066,0.21632c1.55996,0.25593 2.54712,0.1173 3.31034,-0.46464c0.57584,-0.44026 1.10446,-1.20958 1.10446,-1.61328c0.00152,-0.16605 -0.72818,-0.73732 -2.01697,-1.57976c-5.14755,-3.3667 -8.31926,-6.62067 -10.09097,-10.35299c-0.61697,-1.29946 -1.18215,-2.93254 -1.07704,-3.10468c0.04266,-0.06855 1.1593,0.13558 2.48009,0.45245c4.19391,1.00392 5.61371,1.11055 6.20174,0.46007c0.15386,-0.17062 0.2407,-0.46616 0.21175,-0.72209c-0.04113,-0.36561 -0.21175,-0.51338 -1.11513,-0.96431c-5.94124,-2.97062 -10.62111,-6.9802 -13.63286,-11.68139c-0.98868,-1.5432 -0.91099,-1.65136 1.18368,-1.64374c1.19434,0.00305 1.91338,0.11425 3.71708,0.56975c3.05136,0.77236 3.33624,0.61697 1.82807,-0.99782c-0.48596,-0.521 -1.76104,-1.80522 -2.83199,-2.8518c-3.20979,-3.13972 -5.32122,-5.96409 -7.15386,-9.57149c-0.93536,-1.84178 -2.22873,-4.78498 -2.22873,-5.07138c0,-0.07465 0.22851,-0.13406 0.50881,-0.13406c1.02067,0 2.86398,0.60936 4.6555,1.54015c2.15103,1.11665 3.05898,1.28879 4.07356,0.77236c1.03286,-0.52709 1.02677,-0.50272 0.75713,-3.03156c-0.13254,-1.23852 -0.4494,-3.86333 -0.70381,-5.83156c-0.46616,-3.60892 -0.62307,-5.82546 -0.42503,-6.0235c0.40979,-0.40979 2.25919,1.18063 4.96322,4.26551c3.29815,3.76431 4.9815,5.2877 5.49184,4.97236c0.10207,-0.06398 0.358,-0.76017 0.56975,-1.55082c0.99935,-3.74298 2.18455,-4.81697 3.6333,-3.29815c1.15626,1.21262 2.24853,3.87095 3.14429,7.65201c0.41893,1.76257 0.48292,2.35669 0.58955,5.40805c0.10207,2.93711 0.16453,3.54494 0.43874,4.24875c0.95669,2.45571 2.50446,1.93471 3.68509,-1.24004c0.17976,-0.48292 0.39913,-0.87595 0.48749,-0.87595c0.36561,0 1.22176,0.67943 1.66202,1.31926c0.90033,1.3086 1.62394,3.74298 1.88444,6.33428c0.05637,0.56366 0.16316,1.06333 0.23719,1.10903c0.07404,0.0457 0.24542,-0.31382 0.381,-0.79826c0.97025,-3.46877 1.136,-3.8161 1.72707,-3.62873c0.50577,0.15996 2.00677,1.8951 3.36945,3.89532c1.38705,2.03526 3.04131,3.88161 3.37569,3.76888c0.26827,-0.0914 0.26339,-4.37824 -0.00762,-6.6679c-0.67624,-5.71578 -2.26514,-9.89597 -7.9768,-20.98934l-2.21806,-4.30816l-0.11121,-3.49924c-0.07465,-2.36583 -0.05941,-3.49924 0.0457,-3.49924c0.08683,0 0.4494,0.66725 0.8074,1.48531c0.8042,1.83112 1.20958,2.53493 1.20927,2.09467c-0.00015,-0.16757 -0.45504,-2.56692 -1.01123,-5.33188c-0.55604,-2.76496 -1.042,-5.29227 -1.08313,-5.61371c-0.1173,-0.94755 0.13406,-4.51077 0.2864,-4.05985c0.33058,0.97954 3.803,18.70881 3.73293,19.05919c-0.06033,0.30163 0.29371,1.11513 1.45865,3.35147c3.49055,6.69989 5.58446,11.50316 6.60148,15.14102c0.30453,1.08923 0.58163,2.07029 0.61576,2.17998c0.10603,0.34124 0.35328,0.04418 0.52115,-0.62612c0.24527,-0.97954 0.92942,-2.74668 1.15885,-2.99195c0.17595,-0.1889 0.29021,-0.12949 0.81252,0.41893c0.68477,0.72057 1.42459,2.16779 2.19628,4.2975c0.7351,2.02916 1.03033,2.60501 1.30927,2.55169c0.33439,-0.06551 0.54522,-0.8272 0.83314,-3.01175c0.58453,-4.43765 0.76413,-5.51012 1.2373,-7.39608c0.27436,-1.0938 0.75058,-2.67051 1.0583,-3.50381c1.07674,-2.91882 3.70413,-7.99021 4.13861,-7.99021c0.2541,0 1.06379,1.70316 1.33998,2.81828c0.12446,0.50272 0.33439,1.66812 0.46646,2.58977c0.30894,2.1556 0.75941,3.13667 1.72205,3.74755c0.38313,0.24222 0.76185,0.44178 0.84168,0.44178c0.26096,0 1.50664,-1.09684 3.9852,-3.50686c5.22677,-5.08357 6.39217,-6.07225 6.73798,-5.72492c0.32905,0.33058 0.01219,3.14581 -0.81349,7.22089c-0.92927,4.58847 -1.11055,6.50642 -0.65506,6.96344c0.22242,0.22394 0.31382,0.21328 1.0877,-0.13101c1.86616,-0.82416 3.6272,-1.14255 4.44527,-0.79978c0.76627,0.31991 0.95517,0.8074 0.73123,1.87835c-0.38999,1.85854 -2.03373,4.57323 -4.49706,7.4296c-1.52339,1.76409 -2.19978,2.38259 -3.67291,3.35299c-2.8457,1.87682 -4.19543,4.08575 -3.08183,5.04396c0.34429,0.29706 0.58955,0.36257 1.36801,0.36257c0.52252,0 1.32383,-0.09902 1.78237,-0.22089c0.75408,-0.19956 0.85158,-0.19652 1.02372,0.02894c0.48139,0.63069 -0.0259,2.52884 -1.11208,4.16344c-1.4198,2.1358 -4.64483,4.98607 -7.26446,6.41959c-0.65506,0.35952 -1.9047,1.07095 -2.777,1.58128c-0.8723,0.51186 -2.27595,1.22938 -3.11915,1.59652c-0.8432,0.36714 -1.53299,0.75408 -1.53299,0.86072c0,0.27269 2.97351,0.24984 4.95103,-0.03656c3.08396,-0.44635 4.18979,-0.25441 4.18979,0.72514c0,0.93079 -0.61164,1.78694 -2.95706,4.14211c-2.43164,2.44048 -4.06564,3.70185 -6.52699,5.04091c-1.29032,0.70076 -1.49232,0.87595 -2.43835,2.11447c-1.27706,1.67269 -1.37822,1.9926 -0.79079,2.49684c0.40964,0.35343 0.51415,0.37018 1.81314,0.29859c1.5304,-0.08379 2.8585,-0.56061 3.63254,-1.30098c0.60692,-0.58041 0.74266,-0.28183 0.67684,1.4914c-0.0652,1.758 -0.3059,2.35517 -1.60703,3.98977l-0.93293,1.17149l-2.4807,1.21567c-3.12783,1.53101 -4.18248,1.93928 -6.3652,2.46485c-2.15256,0.51795 -3.59933,0.61393 -5.48422,0.36561zM238.42587,176.52727c-0.08988,-0.10816 -0.2672,-0.60479 -0.39395,-1.10446l-0.23049,-0.90642l0.08303,0.74342c0.09247,0.8272 0.3356,1.46551 0.55863,1.46551c0.08501,0 0.07785,-0.08379 -0.01721,-0.19804zM237.73912,173.94511c-0.0422,-0.10511 -0.07678,-0.0198 -0.07678,0.19042c0,0.20871 0.03458,0.29402 0.07678,0.19042c0.0422,-0.10511 0.0422,-0.27726 0,-0.38085zM233.2087,177.20366c-0.33972,-0.27573 -0.36714,-0.42655 -0.46768,-2.48009c-0.05941,-1.20348 -0.11425,-2.59891 -0.12339,-3.10163c-0.01371,-0.74951 -0.04723,-0.86224 -0.18585,-0.62307c-0.11425,0.19804 -0.1432,1.08923 -0.08683,2.78172c0.04723,1.40457 0.02285,2.52579 -0.05484,2.57301c-0.07922,0.04875 -0.13558,-1.61632 -0.13558,-3.97301c0,-4.02481 -0.00457,-4.06746 -0.40065,-5.05767l-0.39913,-0.99935l0.2605,-1.61632c0.14168,-0.88966 0.36561,-1.98955 0.4951,-2.44657c0.20566,-0.72514 0.21175,-1.2111 0.0518,-3.87704c-0.10207,-1.67726 -0.21023,-4.50925 -0.24374,-6.29467c-0.06094,-3.29053 -0.16453,-3.9136 -0.64135,-3.8222c-0.13558,0.0259 -4.15125,4.82916 -8.92252,10.67291c-8.98803,11.00805 -9.0901,11.11926 -9.0901,9.85332c0,-0.32144 0.47378,-1.02829 1.86616,-2.78172c4.52905,-5.70664 7.521,-9.6568 7.4037,-9.7741c-0.03351,-0.03199 -2.86551,2.33841 -6.29467,5.26638c-5.54059,4.73014 -6.26115,5.29837 -6.46376,5.09576c-0.49053,-0.49053 -0.02437,-0.9963 4.49859,-4.87943c2.43896,-2.09467 4.77737,-4.11774 5.1963,-4.49402c0.41893,-0.3778 1.60871,-1.14559 2.64614,-1.70773c1.03743,-0.56366 2.10533,-1.18063 2.37345,-1.37106c0.7099,-0.50881 3.22807,-3.84657 3.04222,-4.03243c-0.0457,-0.04418 -4.7926,2.67203 -10.54951,6.03721c-10.11077,5.91077 -10.70794,6.22459 -10.7247,5.63808c-0.00152,-0.0457 0.12492,-0.45702 0.28183,-0.91404l0.28335,-0.83177l4.78651,-2.89445c2.6309,-1.59195 5.02263,-3.04831 5.3136,-3.23721c0.29097,-0.1889 1.07856,-0.52252 1.74886,-0.74494c1.89358,-0.62459 2.90968,-1.12731 5.65789,-2.80152c2.61262,-1.59195 3.42612,-1.97584 4.1802,-1.97584c0.65049,0 1.17911,-0.30163 1.53254,-0.87291l0.31839,-0.51643l-0.34886,-0.37171c-0.19195,-0.20566 -0.52557,-0.37323 -0.74189,-0.37476c-0.93841,-0.00609 -26.16126,4.59456 -26.6716,4.86572c-0.684,0.36257 -2.12971,0.79217 -2.30337,0.68553c-0.19347,-0.11882 -0.163,-0.57432 0.05789,-0.87443c0.10359,-0.14168 0.66877,-0.39456 1.25375,-0.56061c0.58498,-0.16757 1.27051,-0.40065 1.52339,-0.521c0.25288,-0.11882 0.89576,-0.29554 1.43047,-0.39151c1.13645,-0.20413 8.39543,-2.16017 9.61719,-2.58977c0.61088,-0.2148 1.59042,-0.33972 3.61502,-0.45702c4.83373,-0.28183 10.4185,-1.13188 10.79173,-1.64222c0.16605,-0.22699 0.25136,-0.22851 1.03439,-0.01066c1.01458,0.28183 1.20501,0.19499 1.87225,-0.86072c0.23765,-0.3778 0.50729,-0.68705 0.59565,-0.68705c0.08836,0 0.34124,0.18738 0.55909,0.41893l0.39761,0.41893l-0.90185,1.12274c-0.49663,0.61697 -0.90185,1.2111 -0.90185,1.31926c0,0.22546 0.78303,0.92318 1.17911,1.04962c0.14777,0.0457 0.35343,0.22089 0.45702,0.38694c0.13711,0.21785 0.31687,4.07508 0.65354,13.96801c0.47682,14.03351 0.49663,15.4518 0.20871,15.54625c-0.09293,0.03047 -0.33058,-0.07617 -0.53014,-0.23765zM242.6085,176.5943c-0.14792,-0.16453 -0.81471,-2.12971 -1.48211,-4.3691c-0.6674,-2.23939 -1.27417,-4.18477 -1.34851,-4.3234c-0.26157,-0.48901 -4.25058,-13.50642 -4.41358,-14.4037c-0.17367,-0.95365 -0.05484,-3.84657 0.14929,-3.63025c0.11425,0.12035 7.84564,26.05005 7.93993,26.62894c0.0684,0.41893 -0.49526,0.48292 -0.84503,0.0975zM227.09425,176.17993c-0.14777,-0.32296 -0.05484,-1.18672 0.52862,-4.91295c0.38847,-2.48618 0.81349,-5.35016 0.94603,-6.36474c0.13101,-1.01458 0.33819,-2.22263 0.45854,-2.68422c0.30011,-1.15169 1.79304,-4.9556 1.86311,-4.74538c0.03199,0.09293 -0.63069,4.39652 -1.4716,9.5654c-0.84244,5.16736 -1.52949,9.42677 -1.52949,9.46485c0,0.03808 -0.13863,0.07008 -0.30773,0.07008c-0.18433,0 -0.38085,-0.15996 -0.48749,-0.39304zM221.98326,174.87134c-0.10359,-0.10359 -0.1889,-0.32905 -0.1889,-0.49967c-0.00152,-0.17214 0.61088,-2.16322 1.36039,-4.42546c1.54168,-4.6555 3.60131,-11.31121 3.74908,-12.11099c0.08988,-0.4951 0.08226,-0.51186 -0.12339,-0.22851c-0.12187,0.16757 -2.05354,3.56017 -4.29445,7.54081c-2.23939,3.97911 -4.13145,7.29706 -4.20305,7.37323c-0.20566,0.21937 -0.60022,-0.20413 -0.60022,-0.6444c0,-0.21632 0.60936,-1.49445 1.3543,-2.83808c0.74494,-1.34363 1.83264,-3.36975 2.41763,-4.50011c1.74124,-3.37432 2.50903,-4.53972 4.4407,-6.74712c1.01153,-1.15626 1.93624,-2.28662 2.05506,-2.5136c0.26507,-0.50577 1.88139,-2.25462 1.98651,-2.14951c0.15082,0.15234 -7.33362,21.84396 -7.55147,21.88814c-0.11882,0.02285 -0.30011,-0.04266 -0.40218,-0.14472zM247.8825,174.35795c-0.19225,-0.13558 -1.21308,-2.00174 -2.39493,-4.37976c-1.13295,-2.28052 -2.53904,-5.03634 -3.12464,-6.12557c-0.58559,-1.08923 -1.20927,-2.35822 -1.38583,-2.81828c-0.38283,-0.99935 -1.35628,-4.67073 -1.35308,-5.10337c0.00122,-0.16757 1.08359,1.88901 2.40514,4.57019c6.83166,13.85832 6.80363,13.79891 6.57116,13.94516c-0.29554,0.18738 -0.3286,0.18281 -0.71782,-0.08836zM252.40043,172.00583c-0.134,-0.07922 -1.97112,-2.70098 -4.0827,-5.82546c-2.11143,-3.12448 -4.23534,-6.22764 -4.71978,-6.89793c-1.74307,-2.41153 -5.31665,-7.62916 -5.57974,-8.14559c-0.14777,-0.28945 -0.8138,-1.27661 -1.48059,-2.19369c-1.36039,-1.87378 -1.57976,-2.49837 -1.01458,-2.89445c0.28183,-0.19652 0.38999,-0.20871 0.53319,-0.05789c0.54385,0.57584 17.1778,25.52753 17.18694,25.78346c0.01149,0.34124 -0.44675,0.46768 -0.8428,0.23156zM213.66659,170.25088c-0.04875,-0.12644 -0.02133,-0.22851 0.05941,-0.22851c0.08074,0 0.14777,0.10207 0.14777,0.22851c0,0.29249 -0.09597,0.29249 -0.20718,0zM253.92839,165.26176c-1.45857,-1.52949 -3.92899,-4.0827 -5.48971,-5.67465c-2.25752,-2.30337 -3.03018,-3.20218 -3.77878,-4.39956c-0.51765,-0.8272 -0.90779,-1.53711 -0.86696,-1.57824c0.22226,-0.22089 1.97508,1.50968 9.43819,9.32013c4.65291,4.87029 4.83069,5.11251 3.76172,5.11251c-0.33667,0 -0.90078,-0.51186 -3.06446,-2.7802zM259.56358,163.01628c-1.25177,-0.84701 -1.44052,-1.08313 -0.43234,-0.54081c0.55147,0.29554 1.21993,0.53928 1.48531,0.53928c0.50942,0 0.6476,0.20871 0.24146,0.36409c-0.4136,0.15843 -0.60052,0.10664 -1.29443,-0.36257zM251.2783,155.53946c-5.52703,-3.34842 -10.2494,-6.27639 -10.49391,-6.5049c-0.5667,-0.53014 -1.80553,-2.1876 -1.70788,-2.28509c0.04067,-0.04113 0.40279,0.13558 0.80481,0.39456c0.40187,0.25745 1.05845,0.61393 1.4588,0.79064c0.4005,0.17671 1.80522,1.02524 3.12159,1.88444c1.31652,0.85919 3.45613,2.20283 4.75482,2.98585c1.29865,0.7815 4.04081,2.46181 6.09358,3.73384c2.05277,1.27203 4.22163,2.60044 4.81972,2.95386c0.59793,0.35343 1.20303,0.76931 1.3444,0.92622c0.26949,0.29706 0.27345,1.09227 0.00564,1.16844c-0.08379,0.02285 -4.67454,-2.69793 -10.20157,-6.04788zM204.35316,156.161c-0.163,-0.26507 0.04723,-0.89119 0.35647,-1.05571c0.15234,-0.08226 2.5395,-1.00239 5.30446,-2.0444c2.76344,-1.04353 5.35169,-2.04592 5.74929,-2.2272c0.72971,-0.3321 4.52601,-0.97802 5.24048,-0.88966c0.22699,0.02742 -2.8975,1.27356 -7.90947,3.15647c-4.55647,1.7123 -8.36344,3.13972 -8.45941,3.17171c-0.09597,0.03351 -0.22242,-0.01676 -0.28183,-0.11121zM252.73009,151.961c-10.15815,-3.89075 -11.97983,-4.67225 -12.16461,-5.22677c-0.03153,-0.09445 0.68522,0.09293 1.59286,0.41893c12.70847,4.558 21.6444,7.86529 21.80283,8.06638c0.25045,0.32144 0.17824,0.8531 -0.11974,0.88509c-0.12568,0.01371 -5.12577,-1.85092 -11.11134,-4.14363zM248.98833,147.46394c-8.88139,-3.34233 -16.24701,-6.06159 -16.36736,-6.04178c-0.12035,0.0198 -0.35952,0.32448 -0.53319,0.67639c-0.20718,0.42198 -0.41893,0.6444 -0.6185,0.65201c-0.7099,0.02742 -31.6988,-2.94929 -31.82067,-3.05593c-0.23003,-0.20261 0.04875,-0.90642 0.41284,-1.04505c0.21937,-0.08379 2.63243,0.06094 6.50947,0.38847c8.99565,0.7617 9.14342,0.62916 0.67639,-0.60022c-3.93798,-0.5728 -7.2803,-1.07399 -7.42655,-1.11513c-0.358,-0.09902 -0.33972,-0.61393 0.02742,-0.81045c0.46007,-0.24679 0.74646,-0.21632 7.84091,0.83177c4.28988,0.63526 6.75169,0.93689 6.86137,0.84548c0.19042,-0.15691 2.15408,0.45854 4.73166,1.48226c0.83787,0.33362 2.01697,0.71752 2.61872,0.8531c1.17606,0.26507 3.09402,0.33515 3.09402,0.11273c0,-0.07465 -0.4296,-0.53014 -0.95212,-1.01306l-0.95212,-0.879l-6.85528,-2.33384c-15.37867,-5.23591 -15.00544,-5.10185 -15.00544,-5.40196c0,-0.3839 0.53166,-0.63678 1.08161,-0.51643c0.27116,0.05941 0.54233,0.0259 0.67182,-0.08226c0.17519,-0.14472 0.55604,-0.03961 1.88292,0.521c1.82807,0.77084 9.86094,3.75365 10.22655,3.7963c0.64592,0.07617 0.15082,-0.46768 -2.19826,-2.41001c-6.63439,-5.48575 -7.17062,-5.95343 -7.31382,-6.36322c-0.10968,-0.31687 -0.0914,-0.4753 0.07465,-0.64135c0.19195,-0.19347 1.0161,0.43112 6.48662,4.92361c3.44744,2.83047 6.42873,5.24962 6.62677,5.37454c0.59565,0.37933 2.3765,1.08618 2.57301,1.02067c0.10359,-0.03504 -0.50424,-0.88509 -1.40152,-1.95909c-0.87138,-1.04505 -1.7519,-2.13885 -1.95604,-2.43134c-0.73885,-1.05876 -3.28596,-3.93036 -5.47051,-6.16975c-4.70881,-4.82764 -4.88553,-5.02873 -4.88553,-5.53297c0,-0.57584 0.23613,-0.7457 0.5926,-0.4235c0.14777,0.13406 0.46921,0.24527 0.71447,0.24831c0.39761,0.00457 1.34211,1.05876 9.12818,10.19608c9.43134,11.07203 8.79761,10.43678 10.62568,10.62263c0.97802,0.09902 1.15626,-0.11121 0.55147,-0.65354c-0.17824,-0.15996 -0.72209,-0.80435 -1.20653,-1.43199c-0.48444,-0.62916 -1.98498,-2.3765 -3.33471,-3.88466c-1.46551,-1.6407 -2.92492,-3.45658 -3.63025,-4.51991c-0.64744,-0.9765 -3.02394,-4.46507 -5.27856,-7.75103c-4.1482,-6.04422 -4.42242,-6.53658 -3.92122,-7.03778c0.13711,-0.13771 0.24527,-0.10984 0.45854,0.11928c0.15386,0.16437 2.80457,3.96616 5.89097,8.44951c7.59108,11.02481 8.31926,12.06529 8.39695,11.9876c0.09293,-0.09445 -0.61545,-1.83874 -2.08553,-5.13232c-0.69162,-1.55082 -1.44266,-3.29815 -1.66964,-3.88466c-0.22699,-0.58651 -1.76257,-3.97301 -3.41393,-7.52374c-1.93928,-4.17334 -2.98281,-6.59219 -2.95386,-6.83989c0.04418,-0.35693 0.47987,-0.79597 0.63373,-0.63693c0.03808,0.03885 3.03765,6.48037 6.66638,14.31504c3.62873,7.8333 6.6679,14.29554 6.75626,14.35952c0.40522,0.29554 0.89423,0.30468 1.08923,0.0198c0.50729,-0.74037 0.71295,-0.84091 1.64831,-0.80283c0.59108,0.02437 0.92622,-0.0259 0.96583,-0.1432c0.03351,-0.10054 -0.08226,-0.17976 -0.2605,-0.17976c-0.31991,0 -0.32144,-0.02133 -0.23917,-3.16104c0.0457,-1.73972 0.11578,-3.72927 0.15691,-4.42242c0.07465,-1.24157 1.00849,-7.06703 1.29946,-8.10751c0.08379,-0.29402 0.59412,-3.24178 1.13645,-6.55121c0.54187,-3.30958 1.06196,-6.20357 1.1555,-6.43116c0.17793,-0.4328 0.68461,-0.69939 0.90688,-0.47713c0.07129,0.07129 -0.71813,5.3395 -1.75465,11.7076c-1.03591,6.36779 -1.8555,11.60522 -1.82198,11.63874c0.10359,0.10511 0.6642,-1.27661 1.84331,-4.54429c0.62155,-1.72448 1.36298,-3.71708 1.64755,-4.42851c0.28442,-0.71295 1.377,-3.83134 2.42799,-6.93206c1.34805,-3.97652 2.00616,-5.71502 2.23467,-5.90316c0.32037,-0.26355 1.14102,-0.38161 0.99341,-0.14289c-0.07922,0.12827 -9.23375,26.99913 -9.23375,27.10272c0,0.33667 2.52579,-2.46181 3.46786,-3.842c0.34292,-0.50272 1.89937,-2.4222 3.45872,-4.26551c1.55935,-1.84331 4.48716,-5.40805 6.50627,-7.92165c4.2457,-5.28618 4.4896,-5.561 4.93473,-5.561c0.96857,0 0.87656,0.12873 -8.33114,11.63782c-5.28405,6.60392 -8.95939,11.32492 -8.91369,11.44831c0.12339,0.32144 1.3124,0.86681 1.71961,0.78912c0.19987,-0.03808 0.40111,-0.00914 0.44681,0.06551c0.10466,0.1691 1.51654,0.89119 1.74307,0.89119c0.1985,0 2.04409,-1.10446 3.63467,-2.17541c1.44433,-0.97193 2.42601,-1.40457 5.42405,-2.38868c1.34059,-0.44026 5.46198,-1.88901 9.1588,-3.22198c3.69667,-1.33145 6.93343,-2.42067 7.19256,-2.42067c0.32189,0 0.52527,0.10054 0.6415,0.31687c0.09338,0.17519 0.13391,0.35343 0.08973,0.39761c-0.06764,0.06855 -22.94233,8.4259 -23.05963,8.4259c-0.02239,0 -0.04037,0.06855 -0.04037,0.15234c0,0.08379 0.22089,0.15234 0.49084,0.15234c0.93079,0 6.89991,-0.92318 7.91145,-1.22329c0.58649,-0.17367 1.45338,-0.30011 2.05658,-0.29706c0.58727,0.00152 3.72028,-0.44178 7.17336,-1.01458c5.94749,-0.98868 6.13989,-1.01001 6.43634,-0.74189c0.77998,0.70533 1.04657,0.64135 -10.92929,2.64918c-6.17935,1.03591 -11.62929,1.94995 -12.11099,2.03373c-0.48185,0.08226 -0.87595,0.19652 -0.87595,0.25441c0,0.23308 4.09062,1.93928 7.54081,3.14733c0.3351,0.11578 3.70353,0.72666 7.48535,1.35582c3.78183,0.62916 6.97745,1.18368 7.10131,1.2309c0.29417,0.11273 0.58712,0.76474 0.47499,1.05724c-0.05454,0.14168 -0.21251,0.20109 -0.41497,0.15691c-0.17976,-0.03961 -1.80065,-0.3519 -3.60207,-0.69162c-1.80141,-0.34124 -3.4124,-0.65811 -3.57998,-0.70533c-0.23978,-0.06855 -0.26614,-0.0457 -0.124,0.10359c0.09933,0.10511 1.77887,0.8272 3.73232,1.60566c1.9533,0.77998 3.71069,1.55691 3.90522,1.73058c0.43097,0.38085 0.40187,0.99021 -0.0489,1.02677c-0.16757,0.01371 -7.57127,-2.71164 -16.45267,-6.05397zM258.00332,146.03042c-4.34213,-0.7815 -7.93095,-1.45637 -7.97513,-1.50054c-0.08287,-0.08379 0.52207,-0.26659 1.85443,-0.56061c0.54336,-0.12035 0.93628,-0.12187 1.37107,-0.00609c0.33513,0.08836 3.42017,0.63983 6.85543,1.22481c5.51591,0.93841 6.27776,1.10141 6.51891,1.39543c0.38557,0.46921 0.27452,0.81045 -0.27421,0.84244c-0.25075,0.01523 -4.00851,-0.61393 -8.35049,-1.39543zM199.40289,145.49876c0,-0.30316 0.11273,-0.52709 0.34276,-0.67334c0.46616,-0.30011 12.04548,-1.46703 14.53471,-1.46398c1.77628,0.00152 5.12622,0.36104 5.76453,0.62002c0.16757,0.06855 0.22546,0.12797 0.12797,0.13254c-0.09597,0.00609 -4.75299,0.42198 -10.34842,0.9247c-5.59391,0.50272 -10.22807,0.91404 -10.29663,0.91404c-0.06855,0 -0.12492,-0.20413 -0.12492,-0.45397zM198.79353,142.97602c0,-0.2346 0.04418,-0.38085 0.09902,-0.32753c0.05484,0.05484 0.17671,-0.00609 0.27269,-0.13711c0.11121,-0.15234 0.60326,-0.29097 1.38324,-0.38694c1.01915,-0.12644 1.73515,-0.08683 4.56409,0.25898c1.84483,0.22546 3.48857,0.45854 3.6531,0.51948c0.16453,0.06094 -1.20653,0.15539 -3.04679,0.21023c-1.84026,0.05484 -4.15125,0.14168 -5.13536,0.19347l-1.78999,0.09445zM238.25555,140.91029c0.32113,-0.60326 1.2958,-1.85702 1.84224,-2.3704c0.28168,-0.26355 1.54533,-1.08618 2.80823,-1.82807c4.99186,-2.92949 6.33519,-3.7445 11.07051,-6.71513c3.13042,-1.96366 5.05935,-3.08335 5.31436,-3.08487c0.53776,-0.00305 0.8761,0.39151 0.57691,0.67182c-0.27832,0.26202 -21.19956,13.45919 -21.54538,13.59173c-0.23277,0.08988 -0.24009,0.06094 -0.06688,-0.26507zM231.43349,138.30072c-0.24679,-0.3062 -0.90185,-1.67878 -1.00239,-2.09924c-0.05027,-0.21023 -0.38999,-0.90642 -0.7556,-1.54777c-0.83177,-1.45941 -0.91708,-1.87378 -1.41066,-6.82938c-0.22089,-2.22111 -0.70838,-6.52775 -1.08313,-9.57134c-0.74799,-6.06372 -0.78912,-6.62296 -0.51034,-6.95887c0.19347,-0.23323 0.76474,-0.31885 0.75713,-0.11349c-0.01219,0.30346 2.78324,22.53711 2.85789,22.73667c0.14472,0.38694 0.30163,-0.85005 0.49053,-3.88466c0.0975,-1.59195 0.24222,-3.64091 0.31839,-4.5519c0.07769,-0.91251 0.24679,-4.37367 0.37628,-7.69345c0.13101,-3.31978 0.3062,-6.29238 0.38999,-6.60575c0.11121,-0.41756 0.25441,-0.59534 0.53471,-0.66572c0.21023,-0.05271 0.4037,-0.07053 0.43112,-0.03961c0.07312,0.08561 -1.0877,27.86746 -1.16844,27.94668c-0.03808,0.03961 -0.14015,-0.01676 -0.22546,-0.12339zM242.2112,136.05066c0.10923,-0.21023 0.91632,-1.3284 1.7938,-2.48466c1.08572,-1.43199 1.93837,-2.38107 2.66945,-2.97062c0.59077,-0.47682 2.89552,-2.53188 5.12181,-4.56714c3.59399,-3.28444 4.09869,-3.69423 4.50346,-3.65615c0.27939,0.02742 0.47408,0.14015 0.50333,0.29554c0.03153,0.16605 -2.32318,2.4161 -7.01462,6.70294c-3.88405,3.54799 -7.22257,6.58868 -7.41878,6.75626l-0.35678,0.30468zM239.40023,132.16601c0.25227,-1.12884 1.20561,-4.17106 1.48013,-4.72252c0.16651,-0.33515 0.52679,-0.95212 0.8007,-1.37106c0.27391,-0.41893 1.77734,-3.09249 3.34096,-5.94124c2.66945,-4.8639 3.21314,-5.71669 3.64076,-5.7109c0.73153,0.00975 0.64318,0.19911 -4.16816,8.93288c-2.62359,4.76366 -4.86618,8.79761 -4.98348,8.96518c-0.19819,0.28335 -0.20596,0.27269 -0.1109,-0.15234zM260.91666,128.38799l-0.24207,-0.50729l1.09441,-0.58651c0.83711,-0.44788 1.19145,-0.56213 1.5074,-0.48292c0.74281,0.18738 0.50881,0.59869 -0.75545,1.3284c-0.64272,0.37018 -1.21201,0.69314 -1.26533,0.716c-0.05317,0.02133 -0.20566,-0.1889 -0.33896,-0.46768zM226.2381,127.02455c-0.64897,-1.05114 -2.43286,-4.87029 -2.52731,-5.4111c-0.05484,-0.3123 -0.58041,-2.20192 -1.16844,-4.19802c-0.59565,-2.02581 -1.04657,-3.83621 -1.02067,-4.09778c0.0457,-0.45626 0.46464,-0.89362 0.6642,-0.6936c0.05484,0.05484 0.98716,3.103 2.07029,6.77378c1.08313,3.67047 2.06725,6.99909 2.18455,7.39822c0.11882,0.39761 0.1889,0.72361 0.15843,0.72361c-0.03047,0 -0.19195,-0.22394 -0.36104,-0.4951z" fill="#deba2f"/><path d="M244.03653,249.45828c-1.61129,-0.21328 -3.30897,-0.62155 -5.0272,-1.20958c-1.04581,-0.358 -1.27798,-0.38237 -2.74165,-0.29249c-5.51164,0.33667 -11.1025,-1.9667 -14.27269,-5.88183c-1.30555,-1.61023 -2.53493,-3.9654 -2.06572,-3.95473c0.06246,0.00152 0.69771,0.09902 1.41066,0.21632c1.55996,0.25593 2.54712,0.1173 3.31034,-0.46464c0.57584,-0.44026 1.10446,-1.20958 1.10446,-1.61328c0.00152,-0.16605 -0.72818,-0.73732 -2.01697,-1.57976c-5.14755,-3.3667 -8.31926,-6.62067 -10.09097,-10.35299c-0.61697,-1.29946 -1.18215,-2.93254 -1.07704,-3.10468c0.04266,-0.06855 1.1593,0.13558 2.48009,0.45245c4.19391,1.00392 5.61371,1.11055 6.20174,0.46007c0.15386,-0.17062 0.2407,-0.46616 0.21175,-0.72209c-0.04113,-0.36561 -0.21175,-0.51338 -1.11513,-0.96431c-5.94124,-2.97062 -10.62111,-6.9802 -13.63286,-11.68139c-0.98868,-1.5432 -0.91099,-1.65136 1.18368,-1.64374c1.19434,0.00305 1.91338,0.11425 3.71708,0.56975c3.05136,0.77236 3.33624,0.61697 1.82807,-0.99782c-0.48596,-0.521 -1.76104,-1.80522 -2.83199,-2.8518c-3.20979,-3.13972 -5.32122,-5.96409 -7.15386,-9.57149c-0.93536,-1.84178 -2.22873,-4.78498 -2.22873,-5.07138c0,-0.07465 0.22851,-0.13406 0.50881,-0.13406c1.02067,0 2.86398,0.60936 4.6555,1.54015c2.15103,1.11665 3.05898,1.28879 4.07356,0.77236c1.03286,-0.52709 1.02677,-0.50272 0.75713,-3.03156c-0.13254,-1.23852 -0.4494,-3.86333 -0.70381,-5.83156c-0.46616,-3.60892 -0.62307,-5.82546 -0.42503,-6.0235c0.40979,-0.40979 2.25919,1.18063 4.96322,4.26551c3.29815,3.76431 4.9815,5.2877 5.49184,4.97236c0.10207,-0.06398 0.358,-0.76017 0.56975,-1.55082c0.99935,-3.74298 2.18455,-4.81697 3.6333,-3.29815c1.15626,1.21262 2.24853,3.87095 3.14429,7.65201c0.41893,1.76257 0.48292,2.35669 0.58955,5.40805c0.10207,2.93711 0.16453,3.54494 0.43874,4.24875c0.95669,2.45571 2.50446,1.93471 3.68509,-1.24004c0.17976,-0.48292 0.39913,-0.87595 0.48749,-0.87595c0.36561,0 1.22176,0.67943 1.66202,1.31926c0.90033,1.3086 1.62394,3.74298 1.88444,6.33428c0.05637,0.56366 0.16316,1.06333 0.23719,1.10903c0.07404,0.0457 0.24542,-0.31382 0.381,-0.79826c0.97025,-3.46877 1.136,-3.8161 1.72707,-3.62873c0.50577,0.15996 2.00677,1.8951 3.36945,3.89532c1.38705,2.03526 3.04131,3.88161 3.37569,3.76888c0.16102,-0.05484 0.20246,-0.60326 0.19332,-2.56844c-0.02483,-5.3654 -0.87885,-9.30947 -3.22274,-14.88357c-0.84929,-2.02002 -2.49273,-5.36844 -6.52257,-13.28553l-0.65811,-1.29489l-0.03808,-3.35147c-0.02285,-2.00174 0.0198,-3.34538 0.10511,-3.33471c0.07769,0.01066 0.49206,0.8074 0.92013,1.77171c0.56609,1.27508 0.86879,2.22568 1.10766,3.47943c0.33682,1.76866 0.67182,2.42524 1.23928,2.42524c0.14,0 0.36257,0.11882 0.49449,0.26659c0.13208,0.14625 1.39513,2.56235 2.80686,5.36997c2.77547,5.51774 4.43415,9.44505 5.30797,12.56801c0.30483,1.08923 0.58209,2.07029 0.61621,2.17998c0.10603,0.34124 0.35328,0.04418 0.52115,-0.62612c0.24527,-0.97954 0.92942,-2.74668 1.15885,-2.99195c0.17595,-0.1889 0.29021,-0.12949 0.81252,0.41893c0.68477,0.72057 1.42459,2.16779 2.19628,4.2975c0.7351,2.02916 1.03033,2.60501 1.30927,2.55169c0.33439,-0.06551 0.54522,-0.8272 0.83314,-3.01175c0.58453,-4.43765 0.76413,-5.51012 1.2373,-7.39608c0.27436,-1.0938 0.75058,-2.67051 1.0583,-3.50381c1.07674,-2.91882 3.70413,-7.99021 4.13861,-7.99021c0.2541,0 1.06379,1.70316 1.33998,2.81828c0.12446,0.50272 0.33439,1.66812 0.46646,2.58977c0.30894,2.1556 0.75941,3.13667 1.72205,3.74755c0.38313,0.24222 0.76185,0.44178 0.84168,0.44178c0.26096,0 1.50664,-1.09684 3.9852,-3.50686c5.22677,-5.08357 6.39217,-6.07225 6.73798,-5.72492c0.32905,0.33058 0.01219,3.14581 -0.81349,7.22089c-0.92927,4.58847 -1.11055,6.50642 -0.65506,6.96344c0.22242,0.22394 0.31382,0.21328 1.0877,-0.13101c1.86616,-0.82416 3.6272,-1.14255 4.44527,-0.79978c0.76627,0.31991 0.95517,0.8074 0.73123,1.87835c-0.38999,1.85854 -2.03373,4.57323 -4.49706,7.4296c-1.52339,1.76409 -2.19978,2.38259 -3.67291,3.35299c-2.8457,1.87682 -4.19543,4.08575 -3.08183,5.04396c0.34429,0.29706 0.58955,0.36257 1.36801,0.36257c0.52252,0 1.32383,-0.09902 1.78237,-0.22089c0.75408,-0.19956 0.85158,-0.19652 1.02372,0.02894c0.48139,0.63069 -0.0259,2.52884 -1.11208,4.16344c-1.4198,2.1358 -4.64483,4.98607 -7.26446,6.41959c-0.65506,0.35952 -1.9047,1.07095 -2.777,1.58128c-0.8723,0.51186 -2.27595,1.22938 -3.11915,1.59652c-0.8432,0.36714 -1.53299,0.75408 -1.53299,0.86072c0,0.27269 2.97351,0.24984 4.95103,-0.03656c3.08396,-0.44635 4.18979,-0.25441 4.18979,0.72514c0,0.93079 -0.61164,1.78694 -2.95706,4.14211c-2.43164,2.44048 -4.06564,3.70185 -6.52699,5.04091c-1.29032,0.70076 -1.49232,0.87595 -2.43835,2.11447c-1.27706,1.67269 -1.37822,1.9926 -0.79079,2.49684c0.40964,0.35343 0.51415,0.37018 1.81314,0.29859c1.5304,-0.08379 2.8585,-0.56061 3.63254,-1.30098c0.60692,-0.58041 0.74266,-0.28183 0.67684,1.4914c-0.0652,1.758 -0.3059,2.35517 -1.60703,3.98977l-0.93293,1.17149l-2.4807,1.21567c-3.12783,1.53101 -4.18248,1.93928 -6.3652,2.46485c-2.15256,0.51795 -3.59933,0.61393 -5.48422,0.36561zM231.79956,167.35643l-0.43112,-0.91404l0.26202,-1.67573c0.47987,-3.08487 0.70076,-2.76801 0.64135,0.91861l-0.04113,2.5852z" fill="#2eac27"/><path d="M246.78565,249.04849c-0.07632,-0.1889 -0.35023,-1.50816 -0.6086,-2.93254c-0.25837,-1.42437 -0.50546,-2.74973 -0.54903,-2.9432c-0.07465,-0.33362 -0.14305,-0.29706 -1.14788,0.60936c-0.58773,0.52862 -1.52781,1.29184 -2.08918,1.69402c-0.56122,0.40218 -1.08009,0.85919 -1.15306,1.0161c-0.15143,0.32753 -0.863,0.66572 -1.23715,0.58955c-0.16864,-0.03504 -1.05267,-1.88292 -2.68575,-5.61219c-1.3383,-3.05898 -3.43449,-7.82263 -4.65626,-10.5876c-1.22176,-2.76496 -6.4988,-13.78063 -11.72557,-24.47791l-9.50446,-19.45071l-0.44788,-3.24788c-0.24527,-1.78694 -0.55604,-3.98063 -0.69162,-4.87486c-0.18585,-1.22786 -0.20566,-1.70468 -0.07617,-1.94538c0.12797,-0.23917 0.23308,-0.28183 0.4296,-0.17671c0.58194,0.31534 2.88531,2.60958 4.73014,4.71186c3.06812,3.49619 4.58694,4.80783 5.26942,4.54581c0.12187,-0.04723 0.29706,-0.38085 0.38694,-0.74037c0.46311,-1.84331 1.1136,-3.64091 1.52492,-4.20914c0.38847,-0.53471 0.54538,-0.63526 0.98868,-0.63526c1.38324,0 2.96148,3.01785 4.14363,7.92165c0.49663,2.05658 0.54081,2.44962 0.65049,5.71273c0.10359,3.07116 0.15996,3.61045 0.45397,4.37519c0.5926,1.53863 1.66355,1.94538 2.61719,0.99478c0.41589,-0.41589 1.19587,-1.86464 1.55691,-2.89445c0.0518,-0.14777 0.16605,-0.26659 0.25441,-0.26659c0.36104,0 1.55386,1.31774 1.98194,2.18912c0.54233,1.10598 1.14407,3.65462 1.29793,5.49336c0.07312,0.88662 0.19499,1.42285 0.37171,1.6407c0.25441,0.31382 0.27878,0.25441 0.83055,-2.02459c0.65872,-2.72078 0.76794,-3.03308 1.05861,-3.03308c0.36257,0 1.92207,1.80827 3.61837,4.19695c2.28662,3.21893 3.46938,4.22133 3.7346,3.16561c0.12979,-0.51795 -0.03748,-4.90076 -0.25197,-6.60087c-0.68157,-5.40501 -2.08675,-9.20131 -7.02087,-18.97084l-3.15602,-6.24897l-0.04113,-3.07878c-0.02285,-1.69249 -0.00609,-3.11382 0.03808,-3.158c0.20718,-0.20718 1.53116,3.38346 1.81162,4.9099c0.33439,1.82046 0.57249,2.29576 1.21536,2.42372c0.24557,0.04875 0.51049,0.16757 0.58849,0.26202c0.07785,0.09445 1.26518,2.39935 2.63837,5.12318c3.26494,6.47443 4.58892,9.66442 5.62773,13.55822c0.25715,0.96279 0.52207,1.82046 0.58894,1.90424c0.22561,0.28335 0.90307,5.57715 0.91069,7.11882c0.00107,0.22242 0.10252,0.24984 0.66115,0.17214c1.84453,-0.25136 2.8195,1.70011 2.63502,5.27704c-0.10621,2.05963 -0.36662,3.1321 -1.10145,4.53819c-0.81136,1.55386 -0.88796,2.87008 -0.18872,3.24331c0.42841,0.23003 1.31489,-0.03047 1.96076,-0.5728c0.36072,-0.30316 2.32622,-4.1025 8.15595,-15.76104l7.6802,-15.36039l3.40631,-3.43069c3.83743,-3.86485 4.06137,-4.00501 4.05985,-2.55321c-0.00152,1.19434 -0.33819,3.34538 -1.0938,6.96953c-0.72818,3.49924 -0.87443,5.78585 -0.39913,6.26268c0.24222,0.24222 0.34276,0.22546 1.67726,-0.28487c1.84483,-0.70686 3.16104,-0.9506 3.86333,-0.71904c0.28792,0.09445 0.52405,0.23917 0.52405,0.32144c0,0.08226 0.06855,0.10816 0.15234,0.05637c0.34124,-0.21175 0.22699,1.31926 -0.16148,2.16931c-0.163,0.35495 -0.29554,0.70076 -0.29554,0.76931c0,0.06703 -0.3778,0.76017 -0.83787,1.54015c-1.64831,2.78934 -4.52144,6.06159 -6.46986,7.37171c-2.81676,1.89206 -4.19543,3.63634 -3.87704,4.90533c0.23308,0.92318 1.85245,1.26137 3.72318,0.77541c0.93384,-0.24222 1.05724,-0.17214 1.06028,0.60631c0.00457,0.73275 -0.41741,1.9667 -1.02372,3.00261c-1.18672,2.02916 -5.23439,5.59848 -7.80938,6.88879c-0.46083,0.23003 -1.45713,0.7876 -2.2141,1.237c-0.75682,0.45092 -2.19018,1.19282 -3.18511,1.65136c-1.94004,0.89271 -2.15621,1.03134 -1.99748,1.28879c0.15082,0.24374 3.69134,0.20261 5.41628,-0.06246c1.83798,-0.28335 3.35771,-0.29402 3.72638,-0.02437c0.22424,0.16453 0.26385,0.33515 0.19378,0.85005c-0.1173,0.87748 -0.63876,1.57976 -2.77761,3.74298c-2.43317,2.46028 -4.58877,4.07203 -7.21465,5.39891c-0.77312,0.38999 -1.0583,0.66572 -1.98559,1.92405c-0.64592,0.87595 -1.08268,1.61937 -1.08268,1.84026c0,0.20566 0.17717,0.54995 0.39365,0.76627c0.38115,0.38085 0.44072,0.39151 1.87484,0.32296c1.62622,-0.07922 2.89856,-0.52405 3.70627,-1.29641c0.36501,-0.34886 0.42625,-0.36561 0.51354,-0.13863c0.05439,0.1432 0.07038,0.85767 0.0355,1.5889c-0.07556,1.57976 -0.33621,2.19978 -1.59119,3.78564c-0.85615,1.08161 -0.87885,1.09684 -3.39245,2.31099c-2.81889,1.36039 -4.52768,2.00022 -6.33504,2.37345c-0.66801,0.13711 -1.28163,0.31687 -1.36344,0.39913c-0.08165,0.08226 -0.37628,0.14929 -0.6546,0.14929c-0.38207,0 -0.53989,-0.08379 -0.6447,-0.34276zM236.56017,216.58037c0.88707,-1.46855 1.68929,-3.27073 1.68335,-3.78107c-0.0067,-0.58194 -1.01717,-4.32949 -1.10126,-4.0827c-0.13177,0.38542 -0.55467,3.04222 -0.72681,4.57018c-0.08988,0.79521 -0.29706,2.06115 -0.46007,2.81066c-0.30163,1.38172 -0.35038,1.75952 -0.23156,1.75952c0.03656,0 0.41284,-0.57432 0.83634,-1.27661zM231.7828,166.95273c-0.21937,-0.54842 -0.23003,-0.78303 -0.0716,-1.78999c0.29554,-1.89053 0.43264,-1.76257 0.43874,0.4037c0.00152,1.10903 -0.02285,2.0185 -0.05484,2.0185c-0.03351,0 -0.17367,-0.28487 -0.3123,-0.63221z" fill="#22881d"/><path d="M247.16345,249.24501c-0.04951,-0.08074 -0.35632,-1.60566 -0.68172,-3.38955c-0.3254,-1.7839 -0.6319,-3.41545 -0.68126,-3.62416c-0.09658,-0.41132 0.40339,-1.23547 0.6185,-1.02067c0.0649,0.06551 0.44118,1.87987 0.83619,4.03395c0.72087,3.93036 0.72971,4.13602 0.17991,4.14363c-0.09978,0.00152 -0.22196,-0.06246 -0.27162,-0.1432zM239.78596,246.30638c-0.5533,-1.28422 -21.85767,-50.36344 -25.59304,-58.95843c-2.10076,-4.83983 -3.88313,-9.07029 -3.95778,-9.40087c-0.1691,-0.7556 0.10359,-1.24766 0.54385,-0.97802c0.16453,0.10207 3.25092,7.05027 7.71143,17.3667c4.08879,9.45876 10.80087,24.97911 14.91556,34.48966c4.11362,9.50903 7.50775,17.39717 7.54218,17.52818c0.03824,0.14472 -0.09262,0.30773 -0.3356,0.41893c-0.54065,0.24527 -0.51201,0.26202 -0.82583,-0.46616zM257.15114,244.85915c-0.28686,-1.09227 -1.08039,-4.28683 -1.08039,-4.34929c0,-0.03504 0.43569,-0.10359 0.96827,-0.15386c1.04078,-0.0975 2.54712,-0.68248 3.10468,-1.20653c0.18905,-0.17671 0.39532,-0.26964 0.45854,-0.20718c0.06307,0.06398 0.10511,0.65963 0.09323,1.32383c-0.01706,0.96279 -0.10146,1.37106 -0.41436,2.00479c-0.67715,1.3741 -2.31693,3.15952 -2.90207,3.15952c-0.04281,0 -0.14533,-0.25745 -0.2279,-0.57127zM246.36428,234.19082c-1.6832,-3.45049 -1.82107,-3.68052 -2.20877,-3.68509c-0.25837,-0.00305 -0.47682,-0.12339 -0.58194,-0.31991c-0.12918,-0.2407 -0.21587,-0.27421 -0.37308,-0.14472c-0.15615,0.12949 -0.27604,0.09445 -0.50561,-0.15234c-0.41345,-0.44483 -0.51293,-1.07856 -0.39608,-2.52731l0.09963,-1.23395l-2.39706,-4.9099c-1.93776,-3.96844 -2.38015,-4.99369 -2.30931,-5.34712c0.11456,-0.5728 1.664,-3.98215 2.06633,-4.54733l0.31184,-0.43874l-0.83482,-4.47421c-0.45915,-2.46028 -0.83513,-4.73319 -0.83543,-5.04853c-0.00076,-0.65049 0.37506,-0.93993 0.67898,-0.52557c0.09826,0.13558 0.54675,2.3049 0.99691,4.82307l0.81837,4.57933l0.56838,0.60936c0.43919,0.47073 0.62124,0.84244 0.80192,1.63765c0.45382,1.99869 0.7198,3.78868 0.79765,5.37149c0.14564,2.95691 0.26751,2.94777 1.13828,-0.08074c0.74266,-2.58368 1.32505,-5.6716 1.45956,-7.7358c0.07129,-1.09532 0.16696,-1.60109 0.32464,-1.71687c0.18235,-0.13558 0.21937,-0.62459 0.20078,-2.66137c-0.06947,-7.60479 -1.37365,-11.8124 -7.24359,-23.3765l-3.09371,-6.09358l-0.09902,-3.04679c-0.08226,-2.5654 -0.06551,-3.00718 0.10664,-2.78934c0.43264,0.5469 1.32551,3.15952 1.56666,4.58237c0.27756,1.63765 0.56701,2.16322 1.27691,2.31861c0.53182,0.1173 0.79887,0.57889 3.78609,6.55212c2.28707,4.57171 3.89684,8.45027 4.67972,11.27312c0.30209,1.08923 0.64226,2.28814 0.75591,2.66594c0.31016,1.02829 0.68797,3.7963 0.78912,5.77976c0.04936,0.96888 0.15417,1.84178 0.23293,1.94233c0.09491,0.12035 0.39761,0.15234 0.90002,0.09293c0.68339,-0.08226 0.80024,-0.04875 1.20309,0.33667c0.74672,0.716 0.98893,1.69706 0.97761,3.9593c-0.01207,2.41153 -0.23034,3.321 -1.27342,5.30903l-0.76468,1.45789l-0.14731,-0.56518c-0.08089,-0.31077 -0.30346,-1.16997 -0.49434,-1.90881c-0.40522,-1.56605 -0.54538,-1.53101 -0.97314,0.24831c-0.44971,1.87073 -1.34729,4.73624 -2.86368,9.14342l-1.45911,4.24113l0.2375,1.16692c0.13071,0.64287 0.29615,1.22938 0.36775,1.30555c0.18098,0.19195 1.72966,-1.00544 2.27458,-1.758c0.43798,-0.60479 0.80542,-1.46703 0.99097,-2.32622c0.08044,-0.37323 0.12675,-0.40827 0.29219,-0.22851c0.25882,0.28183 0.76033,1.59499 1.18779,3.10925c0.49099,1.73819 0.46281,4.11621 -0.07541,6.38455c-0.29402,1.24004 -0.49267,1.76257 -0.77922,2.04897l-0.38481,0.3839zM255.02493,236.50638c-0.79734,-3.02546 -1.54548,-6.23983 -1.48729,-6.39064c0.12949,-0.33819 3.08625,-2.46333 3.81169,-2.74059c0.55832,-0.21328 0.78973,-0.2346 1.07902,-0.10359c0.44514,0.20413 0.84777,0.78607 0.97634,1.41523c0.08851,0.43264 0.14823,0.35495 0.91053,-1.19129l0.81593,-1.65288l2.00189,-0.2605c3.30028,-0.43112 3.84215,-0.41589 4.08331,0.11273c0.32144,0.70686 -0.42366,1.83721 -2.74455,4.16496c-2.25021,2.25767 -4.02908,3.61502 -6.52577,4.97845c-1.07095,0.58498 -1.74002,1.0679 -2.15789,1.55691l-0.6057,0.70838zM251.67286,223.30311c-0.60266,-2.36736 -1.09365,-4.33863 -1.09107,-4.38128c0.00256,-0.04266 0.30124,-0.05332 0.6637,-0.02437c0.87061,0.06855 1.93547,-0.43569 2.82635,-1.33906c0.51171,-0.51795 1.83051,-2.76039 5.24764,-8.91795c11.15384,-20.10424 15.5432,-27.9086 15.91795,-28.30316c0.43417,-0.46007 0.98411,-0.50424 1.06333,-0.08531c0.0259,0.13711 -4.58237,8.52187 -10.24316,18.63112c-5.66017,10.10925 -10.29084,18.42699 -10.29053,18.4864c0.0003,0.05789 0.17169,0.44331 0.38085,0.85615c0.97985,1.93014 -0.03839,5.63656 -2.29652,8.35582c-0.46762,0.56366 -0.90241,1.02524 -0.96626,1.02524c-0.06386,0 -0.60919,-1.93776 -1.21186,-4.30359zM265.98926,216.14316c1.68564,-3.3728 3.08564,-6.15604 3.11153,-6.18498c0.02742,-0.02894 0.15386,0.15234 0.28335,0.4037c0.41132,0.79369 1.88749,1.0222 3.64853,0.56366c0.48139,-0.12644 0.91556,-0.22851 0.96279,-0.22851c0.04723,0 0.05941,0.43417 0.0259,0.96583c-0.04418,0.6901 -0.20109,1.24766 -0.54538,1.94233c-1.03286,2.08857 -3.78716,4.85963 -6.68131,6.71817c-0.61713,0.39761 -3.63634,1.95147 -3.79021,1.95147c-0.04357,0 1.29961,-2.76039 2.98479,-6.13166zM232.84019,206.57776c-1.67573,-3.44135 -3.06964,-6.32057 -3.09859,-6.39978c-0.02742,-0.08074 0.2407,-0.14472 0.59565,-0.14472c0.55299,0 0.72666,-0.08683 1.21567,-0.60022c0.33972,-0.358 0.77388,-1.09532 1.07247,-1.82807c0.27726,-0.67639 0.58194,-1.22786 0.67791,-1.22786c0.37476,0 1.35277,1.16997 1.83721,2.19674c1.24004,2.63395 1.84529,8.50207 1.20348,11.66616c-0.12797,0.62764 -0.28335,1.46855 -0.34581,1.86768l-0.11121,0.72666zM273.96881,200.15513l3.25854,-6.5963l0.66115,-0.25136c0.36409,-0.13863 1.04962,-0.30011 1.52339,-0.35952c0.79064,-0.09902 0.89423,-0.07617 1.24461,0.27421c0.23917,0.23917 0.40979,0.31687 0.4555,0.20718c0.03961,-0.09597 0.0716,0.23613 0.07312,0.73885c0,0.58955 -0.04113,0.80588 -0.1173,0.61088c-0.0975,-0.24831 -0.13711,-0.19499 -0.23003,0.29554c-0.2605,1.38781 -2.02002,4.20914 -4.16344,6.67704c-1.54015,1.77171 -2.33993,2.49532 -3.76888,3.42002c-0.58651,0.37933 -1.32078,0.88966 -1.63156,1.13341c-0.53014,0.41741 -0.36409,0.03808 2.69489,-6.14995zM224.87588,190.29724l-3.24026,-6.61306l0.24679,-0.85005c0.30316,-1.04353 0.90642,-2.09924 1.32688,-2.3247c0.72514,-0.38694 1.81436,0.71904 2.75887,2.80152c0.67029,1.47617 1.06181,2.69184 1.63003,5.06834c0.42198,1.75952 0.48292,2.30947 0.55147,4.95103c0.04266,1.63308 0.0518,3.10773 0.02133,3.2753c-0.03199,0.18585 -1.31926,-2.279 -3.2951,-6.30838zM231.84998,166.79582c-0.13406,-0.2864 -0.15386,-0.66877 -0.06855,-1.29489l0.12339,-0.88662l0.12492,1.14255c0.1432,1.31621 0.0914,1.61632 -0.17976,1.03896z" fill="#1d7319"/></g></g></svg>