<svg version="1.0" width="82.72" height="140" xmlns="http://www.w3.org/2000/svg"><path d="M0 70V0h82.72v140H0V70z" fill="#fefefd"/><path d="M43.188 139.31a33.584 33.584 0 01-2.637-.741c-1.02-.352-1.324-.384-3.58-.374-2.77.013-4.625-.283-6.834-1.09-3.8-1.387-6.965-4.124-8.718-7.541-.556-1.083-.661-1.511-.408-1.668.077-.048.77.021 1.538.154 1.56.27 2.397.198 3.167-.272.593-.36 1.36-1.44 1.158-1.628-.076-.07-.859-.59-1.738-1.156-4.895-3.15-8.245-6.493-10.092-10.072-.9-1.744-1.57-3.692-1.344-3.918.18-.178.164-.181 4.124.727 2.784.638 4.104.704 4.579.228.172-.172.293-.418.267-.55-.026-.129-.902-.676-1.946-1.212-5.426-2.794-10.412-7.218-13.025-11.555-.618-1.028-.667-1.371-.23-1.604.894-.479 2.36-.355 5.823.49 1.069.26 1.983.436 2.03.387.182-.18-.285-.713-2.742-3.129-3.438-3.382-5.091-5.4-6.927-8.45-.886-1.475-2.17-4.107-2.903-5.955-.59-1.485-.5-1.692.667-1.543 1.377.177 1.954.376 4.255 1.482 2.51 1.205 3.263 1.342 4.242.772.76-.441.756-.588-.263-8.425-.663-5.102-.683-6.551-.091-6.551.725 0 2.606 1.723 5.572 5.103 2.81 3.203 4.401 4.644 4.747 4.298.04-.04.206-.634.369-1.32.577-2.414 1.723-4.274 2.632-4.273.506.002 1.26.528 1.795 1.251 1.852 2.51 3.676 9.369 3.404 12.806-.11 1.38.127 3.516.483 4.369.293.7.797 1.226 1.175 1.226.524 0 1.409-1.113 1.901-2.39.524-1.362.762-1.497 1.65-.949 1.313.812 2.497 3.655 2.872 6.898.056.492.154.835.217.762.063-.072.27-.715.458-1.426.417-1.57.87-2.438 1.275-2.438.482 0 2.377 2.07 3.834 4.19 1.293 1.881 2.716 3.58 2.998 3.58.218 0 .146-4.534-.105-6.554-.695-5.62-2.348-9.989-7.605-20.106-1.154-2.221-2.125-4.067-2.16-4.104-.034-.038-.163.078-.287.255-.297.425-1.167.7-1.78.566-.683-.15-1.635-.812-1.72-1.196-.038-.176-.089-2.288-.112-4.693-.03-3.25-.088-4.421-.23-4.563-.105-.103-.192-.125-.195-.044-.001.08-.338 2.165-.748 4.636-.702 4.223-.769 4.51-1.148 4.837-.696.598-2.255.359-2.665-.409-.251-.467-.189-1.25.38-4.716.294-1.793.507-3.288.473-3.32-.053-.055-.534 1.208-1.942 5.113-.571 1.58-.912 2.018-1.772 2.276-1.159.347-2.475-.43-2.475-1.46 0-.294.446-1.838.995-3.432.547-1.593.969-2.97.94-3.059-.03-.09-.762 1.094-1.627 2.628-1.315 2.332-1.658 2.83-2.086 3.035-.484.231-.548.225-1.197-.089-.805-.391-1.34-1.147-1.208-1.706.048-.21.571-1.26 1.16-2.334.59-1.074 1.044-1.98 1.01-2.015-.035-.034-.757.777-1.605 1.804-.849 1.025-1.702 2.01-1.895 2.19-.99.919-2.326.178-2.854-1.578-.373-1.248-.33-1.371 1.152-3.213.632-.784 1.121-1.456 1.086-1.49-.035-.035-.867.62-1.848 1.457-.98.836-1.954 1.563-2.163 1.614-1.28.322-2.612-1.756-1.778-2.774.145-.176 1.943-1.746 3.996-3.487 4.325-3.67 4.226-3.58 4.022-3.58-.087 0-2.273 1.234-4.86 2.742-3.374 1.967-4.838 2.742-5.18 2.742-.736 0-1.599-1.04-1.599-1.927 0-.446.402-1.666.663-2.006.084-.11 1.769-1.164 3.743-2.34 4.363-2.599 4.319-2.571 4.238-2.652-.035-.037-1.807.594-3.936 1.4-5.073 1.92-5.134 1.94-5.666 1.718-.928-.384-1.36-2.251-.68-2.925.205-.202 2.129-1.01 4.761-1.997 4.028-1.513 4.99-1.915 4.558-1.915-.66 0-8.066 1.486-9.84 1.975-1.229.338-2.397.615-2.594.615-1.177 0-1.933-2.14-1.086-3.076.137-.152.737-.417 1.332-.586.594-.17 1.25-.404 1.46-.52.21-.115.828-.288 1.372-.382.993-.174 7.627-1.947 7.752-2.073.133-.131-.958-.06-5.95.391-6.156.555-6.09.555-6.62.098-.373-.32-.432-.506-.548-1.714a180.4 180.4 0 00-.213-2.138c-.096-.888.196-1.646.7-1.805.298-.096.298-.103-.037-.557-.272-.367-.331-.622-.29-1.248.061-.954.053-1.2-.055-2.08-.06-.495-.009-.837.188-1.22.522-1.017.4-1.017 7.283-.001 6.02.888 6.912 1 6.752.838-.043-.041-2.774-1.001-6.07-2.13-3.797-1.303-6.122-2.177-6.348-2.389-.266-.25-.353-.498-.353-1 0-1.22.64-2.02 1.616-2.02.596 0 .677-.05.983-.595.326-.58.821-.929 1.32-.929.138 0 2.33 1.173 4.874 2.608 2.544 1.435 4.656 2.58 4.692 2.541.038-.036-1.764-1.57-4.005-3.408-2.24-1.837-4.227-3.505-4.415-3.706-1.084-1.155.587-3.484 1.969-2.744.17.092 2.224 1.737 4.564 3.656 2.34 1.92 4.294 3.49 4.344 3.49.278 0-1.732-2.231-5.461-6.069-2.416-2.486-3.64-3.855-3.703-4.143-.112-.51.172-1.12.787-1.692.63-.585 1.024-.657 1.688-.308.316.165.786.38 1.047.477.326.121 1.36 1.212 3.304 3.48 2.821 3.295 4.869 5.45 4.296 4.523-.155-.251-1.813-2.676-3.684-5.39-2.356-3.418-3.398-5.055-3.395-5.332.018-1.277 1.83-2.334 2.71-1.58.17.147 1.927 2.612 3.904 5.477 1.976 2.866 3.66 5.251 3.74 5.302.17.103.055-.154-3.103-6.97-2.428-5.241-2.617-5.805-2.159-6.46.515-.733 1.91-1.04 2.502-.548.177.147 1.048 1.843 1.938 3.77.89 1.927 1.69 3.573 1.776 3.657.107.103.134.078.084-.077-.04-.125-.439-1.481-.887-3.012-.789-2.703-.806-2.8-.573-3.29.43-.901 1.98-1.323 2.706-.736.262.211.666 1.38 1.772 5.132.789 2.672 1.467 4.891 1.508 4.93.135.137.071-.5-.537-5.309-.333-2.639-.607-4.917-.607-5.063-.002-.145.19-.48.426-.743.344-.386.578-.493 1.196-.553.686-.065.823-.026 1.254.363l.483.436.676 5.39c.37 2.965.704 5.42.74 5.457.086.085.217-2.137.407-6.962.086-2.137.232-4.077.325-4.31.443-1.112 3.24-1.171 3.534-.076.05.192.099 2.714.107 5.604.009 3.181.067 5.106.146 4.876.073-.21.481-2.533.908-5.162.426-2.63.846-4.915.934-5.078.088-.164.396-.397.686-.518.937-.392 2.202.164 2.428 1.065.052.204-.294 2.745-.768 5.646-.473 2.901-.839 5.387-.812 5.524.026.138.836-2.071 1.8-4.907.963-2.836 1.875-5.314 2.026-5.506.407-.518 1.331-.754 2.076-.531.672.201 1.382.941 1.383 1.442 0 .182-.793 2.578-1.764 5.323-.97 2.746-1.742 5.058-1.714 5.138.027.079 1.146-1.859 2.487-4.308 1.34-2.448 2.62-4.64 2.845-4.87.5-.515 1.172-.55 1.901-.1.537.332.967.985.967 1.47 0 .154-1.207 2.471-2.681 5.15-1.474 2.676-2.75 4.996-2.833 5.153-.393.731.424-.213 3.519-4.07 3.474-4.329 3.69-4.57 4.234-4.736.76-.231 2.026.92 2.026 1.84 0 .652-.089.783-3.788 5.53-1.597 2.05-2.87 3.76-2.83 3.799.04.04.294-.136.565-.392 2.73-2.573 6.635-6.043 6.924-6.154 1.073-.407 2.534 1.339 2.09 2.497-.047.123-1.832 1.818-3.965 3.765-2.134 1.949-3.85 3.573-3.813 3.61.037.036 1.925-1.107 4.196-2.539 2.27-1.433 4.312-2.676 4.535-2.762.489-.185 1.198.058 1.43.49.209.392.405.362 1.563-.243.888-.463 1.066-.506 1.48-.362.97.34 1.568 1.925 1.03 2.736-.136.204-2.627 1.74-5.71 3.52-3.008 1.737-5.604 3.26-5.769 3.385-.28.21-.27.218.158.096.251-.071 3.019-1.063 6.15-2.204 3.131-1.141 5.827-2.074 5.991-2.074.444 0 1.14.78 1.333 1.493.207.77.084 1.32-.375 1.68-.192.152-3.047 1.256-6.344 2.455-5.625 2.044-6.61 2.442-6.062 2.448.121.002 3.009-.459 6.416-1.024 4.814-.796 6.292-.993 6.627-.876.822.285 1.248 1.915.737 2.813-.12.208-.221.606-.224.883-.008.731-.381 1.342-.938 1.537-.316.11-2.39.174-5.983.185-3.025.007-5.671.064-5.881.123l-.38.108.38.091c.21.052 2.952.525 6.094 1.052 5.475.92 5.73.978 6.15 1.39.402.398.431.5.37 1.333-.067.934-.36 1.45-.95 1.67-.25.093-.291.24-.263.934.02.504-.057.992-.199 1.258-.214.4-.208.463.072.82.745.947.13 2.614-1.105 2.995-.178.055-.267.238-.267.55 0 .987-.71 1.98-1.416 1.98-.155 0-2.337-.761-4.85-1.694-2.511-.93-4.602-1.657-4.646-1.613-.15.15 3.07 2.411 5.64 3.962 2.792 1.685 2.987 1.89 2.987 3.155 0 .74-.3 1.376-.855 1.813-.822.646-1.044.545-4.612-2.095-1.75-1.294-4.992-3.327-5.113-3.205-.032.032 1.545 1.734 3.503 3.781 1.958 2.048 3.645 3.93 3.749 4.179.166.4.144.532-.19 1.132-.455.813-1.269 1.342-1.844 1.197-.254-.064-1.906-1.676-4.552-4.44-2.285-2.39-4.184-4.313-4.22-4.277-.078.078-.229-.138 3.66 5.242 1.656 2.292 3.054 4.334 3.105 4.542.052.205.058.696.014 1.089-.068.6-.184.806-.724 1.286-.704.624-1.357.743-1.919.348-.174-.121-1.698-2.277-3.388-4.79-1.69-2.514-3.137-4.61-3.217-4.66-.079-.05.856 1.954 2.08 4.45 3.053 6.233 2.887 5.815 2.578 6.466-.29.61-1.203 1.194-1.872 1.194-.698 0-1.129-.598-2.56-3.557-.724-1.496-1.351-2.683-1.394-2.64-.043.043.316 1.164.798 2.49.482 1.326.878 2.633.88 2.904.004.334-.128.634-.405.924-.227.236-.412.6-.412.81 0 .836-1.488 1.662-2.413 1.34-.628-.219-.758-.488-1.606-3.325-.98-3.274-1.105-3.284-.486-.041.197 1.033.322 2.028.278 2.209-.101.42-.635 1.019-.907 1.019a.33.33 0 00-.284.201c-.043.11 1.077 2.492 2.49 5.294 3.216 6.381 4.293 9.005 5.807 14.142.09.306.178.152.53-.914.512-1.557.867-2.304 1.135-2.39.316-.103 1.578 1.319 2.069 2.33.243.501.779 1.804 1.19 2.893.728 1.932.942 2.35 1.11 2.182.127-.127.496-2.41.758-4.686.627-5.462 2.189-10.31 4.844-15.033 1.454-2.589 1.618-2.67 2.368-1.17.64 1.28.884 2.154 1.242 4.463.387 2.494.697 3.209 1.628 3.754.601.353.724.376 1.05.203.204-.11 1.93-1.705 3.837-3.545 5.657-5.46 6.255-5.937 6.708-5.344.397.522.13 3.212-.733 7.37-.792 3.813-1.11 6.56-.78 6.764.094.057.84-.147 1.659-.454 2.366-.89 4.025-.878 4.44.029.356.783.07 2.57-.635 3.956-.993 1.957-3.616 5.383-5.332 6.965-.437.402-1.386 1.14-2.108 1.64-2.684 1.86-3.952 3.798-3.028 4.635.426.387 1.593.46 2.725.169 1.62-.415 1.694-.37 1.694 1.062 0 1.686-1.217 3.749-3.577 6.061-1.478 1.449-3.342 2.87-4.924 3.754-.645.36-1.914 1.084-2.819 1.608-.905.523-2.225 1.212-2.932 1.532-.708.318-1.287.633-1.287.699 0 .215 1.996.128 4.418-.192 2.682-.354 3.512-.302 4.07.257.32.319.362.466.275.94-.18.986-.814 1.828-3.102 4.12-2.343 2.344-3.989 3.618-6.523 5.048-1.323.746-1.552.944-2.432 2.113-.986 1.307-1.158 1.81-.738 2.159.373.309 1.585.348 2.702.088 1.287-.302 2.092-.705 2.596-1.304.214-.255.462-.463.55-.463.257 0 .386.745.382 2.209-.004 1.682-.33 2.483-1.719 4.227-.925 1.161-.975 1.198-3.185 2.302-2.832 1.414-4.671 2.139-6.638 2.616-2.167.525-5.546.52-7.794-.01zm-5.624-81.38c-.268-1.443-.544-2.677-.611-2.741-.069-.066-.09.67-.05 1.634.065 1.557.126 1.868.554 2.802.265.577.508 1.023.54.99.032-.034-.163-1.242-.433-2.684z" fill="#ede6a0"/><path d="M44.929 139.463c-1.58-.247-3.541-.737-4.573-1.144-.647-.255-1.133-.299-3.281-.299-1.935 0-2.876-.073-4.04-.31-5.33-1.085-9.486-4.141-11.647-8.56-.233-.479-.376-.92-.315-.982.061-.06.678-.029 1.371.072 1.655.24 2.13.23 2.81-.055.859-.358 1.862-1.446 1.862-2.015 0-.075-.668-.552-1.485-1.06-4.505-2.804-8.083-6.181-9.974-9.414-1.12-1.916-2.112-4.64-1.689-4.64.08 0 1.306.279 2.724.62 1.656.4 3.097.65 4.026.7 1.329.074 1.475.054 1.79-.244.346-.331.431-.709.226-1.016-.061-.092-.956-.596-1.985-1.12-3.337-1.696-6.297-3.844-8.854-6.423-1.59-1.604-3.61-4.145-4.278-5.39-.366-.677-.37-.716-.104-.912.735-.54 2.28-.434 5.509.376 3.441.865 3.418.695-.428-3.106-3.167-3.13-4.29-4.444-5.926-6.945-1.568-2.4-4.078-7.521-4.078-8.322 0-.282 1.183-.275 2.285.013.46.122 1.749.683 2.862 1.248 2.316 1.174 3.102 1.31 4.222.723.59-.309.61-.344.655-1.186.024-.479-.134-2.255-.352-3.947-1.202-9.285-1.233-10.155-.341-9.75.764.349 2.43 1.944 4.533 4.339 2.8 3.191 3.585 4.01 4.368 4.555.665.464 1.03.551 1.194.286.053-.087.265-.79.47-1.562.657-2.486 1.55-3.916 2.444-3.916 1.029 0 2.6 2.424 3.603 5.56.998 3.117 1.351 5.27 1.399 8.531.045 3.044.225 4.086.86 4.98.858 1.205 2.048.433 3.015-1.959.527-1.304.795-1.385 1.735-.518 1.195 1.1 2.013 3.274 2.433 6.45.105.8.251 1.382.338 1.351.084-.03.24-.373.348-.761.561-2.034.968-3.202 1.175-3.373.532-.442 1.883.952 4.276 4.413 1.336 1.932 2.467 3.204 2.85 3.204.404 0 .473-.907.287-3.798-.457-7.09-1.617-10.651-6.847-21.033-1.71-3.395-3.167-6.233-3.239-6.309-.076-.08-.318.063-.58.343-.376.404-.56.481-1.141.481-.745 0-1.676-.444-1.932-.921-.085-.16-.15-2.005-.15-4.363 0-2.336-.068-4.327-.158-4.651-.149-.541-.388-.841-.543-.686-.04.04-.412 2.154-.828 4.7-.714 4.384-.775 4.645-1.162 4.984-.328.288-.526.345-.996.28-.764-.101-1.309-.467-1.432-.96-.057-.221.178-2.11.531-4.301.657-4.068.732-4.756.485-4.51-.08.08-.754 1.817-1.498 3.86-.801 2.2-1.491 3.858-1.695 4.07-.922.958-3.06.405-3.06-.792 0-.181.548-1.96 1.218-3.956.67-1.995 1.219-3.731 1.219-3.86 0-.443-.389.15-2.136 3.26-.94 1.677-1.816 3.166-1.944 3.314-.474.541-1.9.136-2.326-.66-.296-.552-.076-1.183 1.156-3.339 2.125-3.717 2.041-3.866-.468-.838-2.993 3.614-3.212 3.756-4.267 2.78-.585-.542-1.093-1.95-.932-2.581.049-.194.812-1.242 1.694-2.331 2.334-2.88 2.221-2.934-.756-.372-2.566 2.207-2.832 2.37-3.453 2.113-.555-.23-1.193-1.135-1.193-1.693 0-.227.154-.581.343-.787.187-.207 2.271-2.022 4.63-4.033 2.356-2.012 4.332-3.732 4.387-3.823.056-.092.03-.165-.057-.165-.088 0-2.466 1.345-5.284 2.99-2.818 1.646-5.318 3.066-5.554 3.154-.32.122-.523.113-.799-.037-.408-.217-1.017-1.194-1.017-1.63 0-.385.461-1.604.726-1.916.12-.142 2.2-1.435 4.62-2.873 2.423-1.438 4.443-2.677 4.489-2.751.192-.311-.617-.05-5.226 1.69-2.66 1.006-5.027 1.829-5.257 1.829-.535.001-.963-.428-1.193-1.196-.22-.74-.094-1.318.357-1.61.187-.124 2.512-1.044 5.164-2.048 5.02-1.898 5.652-2.165 5.358-2.262-.366-.123-8.918 1.519-11.384 2.184-2.85.77-3.076.762-3.522-.099-.336-.65-.331-1.608.01-1.986.151-.166.657-.407 1.123-.536.468-.13 1.158-.361 1.536-.515.376-.153 1.227-.389 1.892-.524 1.701-.348 8.512-2.22 8.687-2.389.243-.233-.987-.166-7.24.4-3.28.295-6.083.499-6.23.452-.597-.19-.83-.668-.85-1.739-.013-.691-.103-1.154-.272-1.395-.148-.21-.253-.657-.253-1.063 0-.785.364-1.262 1.104-1.446.23-.056.42-.125.42-.15 0-.028-.21-.258-.464-.513-.446-.446-.461-.509-.455-1.8.004-.738.007-1.614.004-1.949-.003-.827.41-1.359 1.102-1.418.297-.024 3.357.369 6.802.876 3.444.507 6.448.923 6.675.923 1.02 0-.375-.576-6.285-2.596-6.558-2.24-6.923-2.413-6.923-3.275 0-.599.445-1.537.828-1.741.208-.112.543-.148.815-.089.422.093.49.048.816-.531.436-.776 1.022-1.12 1.559-.916.208.08 2.568 1.382 5.245 2.895 2.675 1.51 4.948 2.75 5.05 2.75.102 0 .161-.065.134-.14-.028-.079-2.107-1.83-4.62-3.893C9.292 18.43 7.115 16.6 6.97 16.427c-.375-.44-.333-1.026.124-1.698.424-.623.998-.93 1.466-.78.163.052 2.501 1.903 5.198 4.115 5.982 4.905 6.182 5.015 3.539 1.943-.875-1.017-3.137-3.432-5.028-5.365-3.072-3.144-3.433-3.568-3.433-4.017 0-1.222 1.386-2.198 2.218-1.563.161.124.547.297.854.383.467.132.984.657 3.12 3.163 2.627 3.085 5.472 6.13 5.728 6.13.223 0-.2-.647-4.076-6.253C14.692 9.61 13 7.065 12.917 6.83c-.197-.563.2-1.26.97-1.702 1.029-.593 1.015-.608 5.41 5.751 2.192 3.173 4.133 5.914 4.313 6.09l.327.322-.292-.762c-.16-.418-1.571-3.516-3.132-6.88C18.95 6.284 17.67 3.346 17.67 3.12c0-.9 1.576-1.745 2.331-1.25.233.153 1.03 1.689 2.383 4.592 2.708 5.812 2.818 5.874 1.304.732-1.018-3.455-1.11-3.947-.826-4.476.186-.348 1.013-.739 1.565-.739.828 0 .949.273 2.612 5.906.873 2.955 1.656 5.492 1.741 5.636.284.488.179-.803-.51-6.275-.4-3.178-.621-5.448-.548-5.637.416-1.088 2.317-1.274 2.733-.267.093.225.504 3.071.915 6.325.412 3.254.786 5.956.835 6.005.049.049.123.055.163.014.041-.041.18-2.674.308-5.852.128-3.178.268-6.06.312-6.405.114-.884.614-1.31 1.64-1.396.7-.058.87-.015 1.256.317l.448.384.043 6.183c.027 3.853.099 6.184.19 6.184.08 0 .148-.034.148-.075 0-.041.411-2.612.914-5.715.502-3.102.913-5.711.913-5.797 0-.087.169-.326.374-.532.658-.658 2.203-.371 2.522.468.102.268-.13 2.025-.844 6.41-.542 3.321-.985 6.182-.985 6.356 0 .762.43-.32 2.288-5.76 1.082-3.165 2.08-5.88 2.219-6.034.761-.842 2.474-.602 2.895.405.117.279.181.596.144.706-.037.109-.961 2.751-2.055 5.871-1.093 3.121-1.987 5.758-1.987 5.86 0 .425.543-.475 3.187-5.286 1.52-2.766 2.936-5.182 3.148-5.37.479-.427.871-.434 1.532-.025 1.277.789 1.214 1.016-1.787 6.461-2.65 4.808-3.49 6.388-3.49 6.565 0 .259.778-.657 4.156-4.889 2.006-2.514 3.784-4.69 3.951-4.837.517-.453 1.148-.34 1.812.325.425.424.592.72.592 1.048 0 .51-.217.813-4.77 6.663-1.566 2.011-2.847 3.71-2.847 3.775 0 .221.525-.175 1.914-1.446 6.637-6.067 6.63-6.061 7.062-6.061.863 0 1.794 1.148 1.61 1.986-.072.33-1.155 1.41-4.237 4.235-4.14 3.792-4.815 4.443-4.613 4.443.215 0 1.017-.483 5.41-3.262 3.186-2.012 4.611-2.832 4.929-2.832.305 0 .59.152.899.483l.452.484 1.036-.56c.57-.308 1.211-.56 1.424-.56.836 0 1.613 1.617 1.16 2.414-.14.246-2.341 1.61-6.419 3.976-6.066 3.519-6.79 3.97-6.381 3.97.106 0 3.05-1.038 6.543-2.307 7.385-2.68 7.016-2.562 7.454-2.4.896.332 1.286 2.135.581 2.69-.204.161-3.254 1.34-6.78 2.621-3.524 1.282-6.408 2.39-6.408 2.462 0 .293 1.726.092 7.57-.879 5.82-.966 6.142-1.004 6.507-.764.588.385.795 1.352.497 2.309a9.959 9.959 0 00-.317 1.371c-.124.946-.477 1.14-2.124 1.158-6.853.076-11.374.231-11.538.394-.239.24-.545.176 6.716 1.413 5.956 1.014 6.18 1.064 6.53 1.47.506.588.405 1.78-.195 2.297-.225.193-.512.352-.638.352-.186 0-.21.13-.128.68.073.485.024.9-.167 1.431-.265.74-.264.756.06 1.167.387.494.414.946.098 1.7-.268.643-.623.95-1.102.957-.29.005-.343.088-.343.544 0 1.1-.592 1.954-1.338 1.933-.228-.008-2.47-.78-4.984-1.717-5.19-1.935-5.408-2.006-5.408-1.81 0 .147 2.709 2.2 4.341 3.29a75.924 75.924 0 002.777 1.706c1.025.601 1.934 1.227 2.02 1.389.307.573.355 1.601.099 2.096-.304.587-.95 1.106-1.374 1.103-.177-.001-1.488-.856-2.912-1.898-2.714-1.987-6.356-4.258-6.664-4.156-.099.034 1.394 1.702 3.319 3.707 4.474 4.66 4.487 4.676 4.487 5.315 0 .757-.83 1.605-1.573 1.605-.518 0-.791-.256-5.303-4.95-2.616-2.725-4.813-4.952-4.882-4.952-.068 0-.123.05-.121.114.001.063 1.766 2.548 3.922 5.523l3.92 5.408-.028.912c-.026.855-.067.95-.641 1.486-.66.615-1.122.711-1.651.34-.183-.129-1.885-2.545-3.783-5.37-3.33-4.96-4.027-5.924-4.027-5.576 0 .09 1.268 2.748 2.818 5.908 1.557 3.173 2.818 5.93 2.818 6.159 0 .574-.329.987-1.042 1.308-1.186.536-1.234.482-3.387-3.842-2.736-5.492-2.93-5.557-1.055-.355.67 1.86 1.219 3.574 1.219 3.807 0 .256-.151.567-.381.783-.223.209-.38.527-.38.767 0 .827-1.225 1.55-2.206 1.304-.522-.131-.655-.448-1.822-4.354-.564-1.883-1.086-3.529-1.16-3.656-.271-.462-.145.699.388 3.567.294 1.577.534 3.053.534 3.279 0 .446-.477.975-1.029 1.142-.188.057-.342.156-.342.218 0 .064.796 1.653 1.77 3.533 3.385 6.537 5.24 10.817 6.235 14.385.715 2.566.668 2.435.809 2.272.066-.077.344-.838.618-1.691.274-.853.586-1.673.695-1.822.52-.712 1.743.831 2.794 3.53 1.188 3.045 1.43 3.576 1.639 3.576.417 0 .601-.835 1.059-4.792.65-5.616 2.257-10.475 5.13-15.507.514-.902 1.013-1.638 1.11-1.638.208 0 .695.838 1.135 1.956.176.448.492 1.877.701 3.177.21 1.298.49 2.577.624 2.84.464.92 1.335 1.625 2.007 1.625.297 0 1.648-1.231 6.387-5.81 2.933-2.835 3.915-3.591 4.273-3.294.39.324.118 2.965-.738 7.123-.782 3.804-1.083 6.546-.768 7.008.138.201.244.195.885-.053 1.523-.588 3.153-1.013 3.882-1.013.978 0 1.646.583 1.646 1.44 0 2.651-4.451 8.893-8.115 11.376-3.225 2.186-4.521 4.453-2.995 5.24.56.29 1.42.284 2.758-.02 1.26-.287 1.339-.237 1.342.886.003.89-.44 2.096-1.195 3.267-1.26 1.947-4.448 4.868-6.72 6.152a322.357 322.357 0 00-4.194 2.393c-.502.294-1.565.826-2.361 1.182-.796.355-1.447.707-1.447.78 0 .264 2.643.215 5.053-.096 2.883-.37 3.676-.295 3.981.377.13.283.117.545-.049 1.101-.17.571-.565 1.106-1.814 2.459-.878.95-2.096 2.172-2.708 2.714-1.308 1.161-3.85 2.901-5.313 3.638-.931.468-1.136.661-2.035 1.918-1.198 1.674-1.29 2.16-.472 2.502 1.322.551 4.157-.133 5.196-1.254.195-.21.418-.343.496-.294.237.146.353 1.942.182 2.829-.215 1.115-.597 1.855-1.608 3.12-.944 1.177-1.848 1.746-5.129 3.225-4.291 1.933-7.28 2.483-10.644 1.959zm-7.22-81.886c-.381-2.041-.762-3.78-.844-3.863-.1-.1-.151.65-.151 2.213v2.366l.614 1.419c.338.778.696 1.563.793 1.74.366.66.275-.193-.412-3.875z" fill="#e2d75d"/><path d="M45.397 139.458c-1.612-.213-3.31-.621-5.027-1.21-1.046-.357-1.278-.382-2.742-.292-5.512.337-11.103-1.966-14.273-5.882-1.305-1.61-2.535-3.965-2.066-3.954.063.001.698.099 1.411.216 1.56.256 2.547.117 3.31-.465.576-.44 1.105-1.21 1.105-1.613.001-.166-.728-.737-2.017-1.58-5.148-3.366-8.32-6.62-10.091-10.353-.617-1.3-1.182-2.932-1.077-3.104.043-.069 1.16.135 2.48.452 4.194 1.004 5.614 1.11 6.202.46.154-.17.24-.466.211-.722-.04-.366-.211-.513-1.115-.964-5.94-2.97-10.62-6.98-13.632-11.682-.99-1.543-.911-1.651 1.183-1.643 1.195.003 1.914.114 3.717.57 3.052.772 3.337.616 1.828-.998a117.754 117.754 0 00-2.832-2.852c-3.21-3.14-5.32-5.964-7.154-9.572-.935-1.842-2.228-4.785-2.228-5.071 0-.075.228-.134.509-.134 1.02 0 2.864.61 4.655 1.54 2.151 1.117 3.06 1.289 4.074.772 1.032-.527 1.026-.502.757-3.031-.133-1.239-.45-3.864-.704-5.832-.466-3.609-.623-5.825-.425-6.023.41-.41 2.26 1.18 4.963 4.265 3.298 3.765 4.982 5.288 5.492 4.973.102-.064.358-.76.57-1.551 1-3.743 2.184-4.817 3.633-3.298 1.156 1.212 2.249 3.87 3.144 7.652.42 1.762.483 2.356.59 5.408.102 2.937.164 3.545.439 4.248.956 2.456 2.504 1.935 3.685-1.24.18-.483.399-.876.487-.876.366 0 1.222.68 1.662 1.32.9 1.308 1.624 3.743 1.885 6.334.056.564.163 1.063.237 1.109.074.046.245-.314.38-.798.971-3.469 1.137-3.816 1.728-3.629.506.16 2.007 1.895 3.37 3.895 1.386 2.036 3.04 3.882 3.375 3.77.268-.092.263-4.379-.008-6.669-.636-5.38-2.074-9.308-6.913-18.89-2.817-5.578-3.27-6.372-3.414-5.987-.038.1-.206.357-.373.572-.532.676-2.04.443-2.636-.407-.2-.287-.237-.961-.237-4.337 0-3.67-.026-4.066-.317-4.842-.18-.481-.408-.842-.533-.842-.12 0-.217.04-.217.09 0 .445-1.557 9.436-1.67 9.649-.207.385-.814.507-1.543.31-1.054-.283-1.055-.328-.214-5.563 1.016-6.337.831-6.412-1.298-.525-.774 2.136-1.469 4.003-1.543 4.15-.188.357-.931.725-1.472.725-.608 0-1.466-.605-1.52-1.073-.025-.206.575-2.212 1.333-4.457.757-2.246 1.377-4.149 1.377-4.228 0-.08-.095-.144-.207-.144-.115 0-1.068 1.524-2.12 3.39-2.228 3.952-2.422 4.227-2.984 4.227-.746 0-1.546-.706-1.545-1.362 0-.215.681-1.608 1.515-3.096.831-1.487 1.555-2.841 1.608-3.009.26-.816-.533-.068-2.745 2.595-1.41 1.697-2.548 2.932-2.748 2.982-.364.092-1.109-.226-1.427-.61-.198-.24-.436-1.012-.573-1.856-.067-.419.13-.728 1.843-2.86 1.054-1.316 1.918-2.458 1.918-2.54 0-.383-.574.013-2.969 2.053-1.421 1.21-2.7 2.23-2.841 2.267-.573.15-1.655-.893-1.655-1.593 0-.44.553-.965 5.33-5.05 4.152-3.55 5.21-4.61 4.237-4.24-.196.075-2.768 1.546-5.712 3.27-2.945 1.724-5.532 3.178-5.747 3.233-.313.078-.483.002-.839-.38-.605-.647-.682-1.143-.34-2.144l.288-.838 4.925-2.97c2.709-1.635 4.953-3.058 4.985-3.162.032-.105-.058-.19-.198-.19-.142 0-2.633.894-5.535 1.987C9.46 46.8 6.921 47.675 6.718 47.65c-.746-.092-1.37-1.673-.903-2.294.114-.153 2.59-1.17 5.687-2.34 5.357-2.02 6.17-2.387 5.7-2.567-.38-.146-9.512 1.57-12.147 2.283-2.346.634-2.547.666-2.881.447-.422-.276-.65-.805-.65-1.496 0-.744.27-.981 1.523-1.332.627-.176 1.219-.382 1.313-.458.094-.076.836-.279 1.65-.451 2.152-.457 9.518-2.506 9.716-2.703.122-.123.099-.195-.085-.266-.139-.054-3.344.181-7.12.52-4.457.4-6.995.57-7.223.482-.456-.172-.754-1.056-.626-1.852.09-.566-.185-1.327-.4-1.11-.147.144-.295-1.01-.191-1.48.055-.25.138-.418.184-.37.047.047.165-.025.264-.159.11-.15.52-.28 1.081-.341.497-.053.893-.164.88-.248-.013-.084-.32-.24-.686-.343-.364-.105-.738-.294-.83-.419-.101-.137-.171-1.018-.176-2.223-.009-2.256.124-2.577 1.068-2.576.271 0 3.507.447 7.19.99 4.033.596 6.75.934 6.835.85.208-.208-.022-.473-.639-.732-.303-.128-3.191-1.138-6.416-2.244-3.227-1.106-6.02-2.093-6.207-2.194-.446-.239-.58-.82-.358-1.56.23-.768.727-1.103 1.437-.97.494.093.553.062.792-.41.392-.77.686-1.042 1.129-1.042.238 0 2.23 1.03 4.889 2.527 5.465 3.08 5.904 3.306 6.195 3.193.195-.074.198-.126.025-.336-.113-.136-2.281-1.955-4.817-4.042-2.537-2.087-4.72-3.96-4.852-4.162-.34-.52-.153-1.182.495-1.75.393-.346.623-.443.865-.369.38.116.268.028 6.12 4.84 2.43 1.997 4.506 3.668 4.614 3.713.338.137.388-.084.113-.505-.541-.827-3.244-3.868-5.402-6.08-4.76-4.879-4.886-5.024-4.886-5.555 0-.357.142-.636.518-1.011.606-.607.844-.632 1.767-.19.376.181.788.375.914.431.125.056 1.345 1.399 2.712 2.985 4.086 4.742 6.261 6.986 6.521 6.725.14-.14-.152-.59-4.332-6.642-4.3-6.226-4.374-6.367-3.693-7.091.558-.594 1.156-.78 1.59-.495.2.131 2.197 2.898 4.44 6.15 4.221 6.125 4.604 6.64 4.815 6.51.19-.116-.149-.9-3.424-7.951-1.647-3.542-2.992-6.598-2.992-6.791 0-.533.976-1.319 1.639-1.319.158 0 .426.154.599.343.17.188 1.217 2.31 2.327 4.712 2.077 4.497 2.372 5.06 2.589 4.927.172-.107.006-.783-1.15-4.666-.558-1.882-.976-3.559-.948-3.824.053-.536.559-.983 1.27-1.122.937-.183 1.018-.01 2.823 6.108 1.766 5.987 1.877 6.32 2.12 6.32.25 0 .193-.703-.535-6.4-.38-2.974-.698-5.712-.706-6.083-.018-.887.373-1.229 1.41-1.229.603 0 .782.064.96.343.14.218.503 2.609.998 6.588.429 3.436.815 6.366.861 6.514.085.275.296.352.42.149.04-.064.183-2.96.319-6.436s.314-6.573.398-6.882c.091-.342.27-.6.454-.658.167-.054.27-.153.227-.222-.113-.182.936-.345 1.467-.228.251.054.415.139.368.187-.048.048.032.22.179.382.245.27.27.854.312 6.83.038 5.606.076 6.535.266 6.535.122 0 .223-.03.223-.067 0-.434 2.023-12.31 2.15-12.618.195-.475.675-.651 1.387-.51.71.143 1.033.507 1.033 1.169 0 .314-.446 3.29-.99 6.611-1.024 6.245-1.092 6.786-.844 6.786.24 0 .345-.279 2.37-6.247 1.067-3.142 2.03-5.938 2.143-6.213.536-1.314 2.957-1.043 2.957.332 0 .258-.96 3.193-2.133 6.523-1.173 3.33-2.132 6.124-2.132 6.21 0 .239.23.186.49-.11.127-.148 1.56-2.69 3.184-5.653 1.641-2.995 3.104-5.488 3.294-5.616.67-.448 2.02.35 2.02 1.194 0 .295-.979 2.221-2.876 5.66-3.606 6.54-3.68 6.682-3.577 6.848.147.238.615-.297 4.364-4.985 2.01-2.513 3.864-4.793 4.12-5.066.629-.668 1.184-.661 1.869.023.941.942 1.064.72-3.94 7.132-3.317 4.25-3.711 4.799-3.558 4.952.154.154.752-.353 4.967-4.204 4.576-4.182 4.663-4.235 5.434-3.408.563.603.702 1.054.472 1.534-.106.22-2.009 2.066-4.229 4.101-4.683 4.293-5.12 4.718-4.993 4.846.188.189.756-.136 5.62-3.21 3.2-2.021 5.076-3.117 5.34-3.118.264-.002.538.157.79.455.21.252.459.457.551.457.092 0 .629-.251 1.192-.559 1.267-.691 1.708-.64 2.162.25.398.78.388 1.248-.036 1.638-.188.172-3.153 1.937-6.589 3.922-3.435 1.984-6.38 3.739-6.546 3.9-.298.291-.298.294.097.294.219 0 3.412-1.096 7.097-2.437 3.685-1.34 6.913-2.437 7.174-2.437.338 0 .546.11.725.382.34.518.444 1.602.187 1.936-.114.146-3.137 1.327-6.876 2.686-3.67 1.334-6.71 2.463-6.756 2.509-.046.046-.038.155.017.245.206.334 1.995.142 7.988-.853l6.153-1.02.34.394c.466.54.6 1.366.323 1.985a4.855 4.855 0 00-.3 1.162c-.141 1.21.222 1.143-7.09 1.313-5.214.122-6.575.195-6.781.366-.148.123-.202.273-.125.349.073.073 3.11.643 6.747 1.267 5.782.992 6.648 1.175 6.881 1.46.575.7.161 2.17-.675 2.392-.383.102-.493.205-.451.425.143.77.057 1.738-.188 2.111-.256.391-.253.416.125.865.44.523.486.978.173 1.726-.229.549-.63.846-1.145.846-.258 0-.315.096-.315.538 0 .595-.367 1.595-.653 1.777-.402.255-1.089.055-5.802-1.692-5.826-2.16-5.58-2.083-5.58-1.787 0 .433 3.6 3.063 6.822 4.987 1.15.688 2.238 1.38 2.418 1.542 1.064.957.103 3.539-1.143 3.068-.222-.084-1.466-.943-2.764-1.907-2.834-2.107-6.792-4.518-7.028-4.284-.19.19.421.882 4.895 5.53 3.584 3.725 3.614 3.778 2.726 4.79-.358.406-.592.539-.964.539-.414 0-.668-.186-1.622-1.184-4.526-4.736-9.027-9.327-9.143-9.327-.075 0-.138.096-.138.214 0 .12 1.825 2.74 4.055 5.827 2.23 3.087 4.107 5.75 4.171 5.917.168.44-.059 1.7-.367 2.042-.416.46-1.11.693-1.513.51-.2-.092-1.83-2.374-3.904-5.468-1.958-2.921-3.76-5.568-4.004-5.881-.46-.595-.723-.724-.723-.361 0 .115 1.371 2.967 3.047 6.335 1.726 3.47 3.047 6.306 3.047 6.542 0 .489-.49 1-1.19 1.244-.867.302-1.06.038-3.273-4.468-1.121-2.283-2.185-4.323-2.363-4.532l-.324-.38-.005.344c-.003.189.646 2.15 1.442 4.358.796 2.207 1.447 4.156 1.447 4.328 0 .174-.17.518-.38.766-.21.25-.381.569-.381.709 0 .455-.32.865-.846 1.084-.705.294-1.19.271-1.502-.074-.145-.16-.803-2.103-1.463-4.316-1.237-4.15-1.479-4.838-1.698-4.838-.222 0-.147.59.569 4.474.388 2.104.656 3.956.603 4.165-.064.259-.285.452-.697.615-.332.13-.603.279-.603.33 0 .051.696 1.428 1.546 3.061 3.5 6.717 5.592 11.516 6.61 15.157.304 1.089.581 2.07.616 2.18.106.34.353.044.52-.627.246-.98.93-2.746 1.16-2.992.176-.188.29-.129.812.42.685.72 1.425 2.167 2.196 4.297.735 2.03 1.03 2.605 1.31 2.552.334-.066.545-.828.833-3.012.584-4.438.764-5.51 1.237-7.396.274-1.094.75-2.67 1.058-3.504 1.077-2.919 3.705-7.99 4.139-7.99.254 0 1.064 1.703 1.34 2.818.124.503.334 1.668.466 2.59.31 2.155.76 3.136 1.722 3.747.384.243.762.442.842.442.261 0 1.507-1.097 3.985-3.507 5.227-5.083 6.393-6.072 6.738-5.725.33.33.013 3.146-.813 7.221-.93 4.589-1.11 6.507-.655 6.964.222.224.314.213 1.087-.131 1.867-.824 3.628-1.143 4.446-.8.766.32.955.807.731 1.878-.39 1.859-2.034 4.573-4.497 7.43-1.523 1.764-2.2 2.382-3.673 3.353-2.846 1.877-4.195 4.086-3.082 5.044.344.297.59.362 1.368.362.523 0 1.324-.099 1.783-.22.754-.2.851-.197 1.023.028.482.631-.026 2.53-1.112 4.164-1.42 2.136-4.645 4.986-7.264 6.42-.655.359-1.905 1.07-2.777 1.58a35.42 35.42 0 01-3.12 1.597c-.843.367-1.532.754-1.532.861 0 .273 2.973.25 4.95-.037 3.085-.446 4.19-.254 4.19.726 0 .93-.611 1.786-2.957 4.142-2.431 2.44-4.065 3.701-6.527 5.04-1.29.701-1.492.877-2.438 2.115-1.277 1.673-1.378 1.993-.79 2.497.409.353.513.37 1.812.298 1.53-.083 2.859-.56 3.633-1.3.607-.58.743-.282.677 1.49-.065 1.759-.306 2.356-1.607 3.99l-.933 1.172-2.48 1.216c-3.129 1.53-4.183 1.94-6.366 2.465-2.153.518-3.6.614-5.484.365zm-6.705-77.341c-.007-.571-1.681-9.018-1.815-9.153-.087-.086-.207-.11-.267-.05-.06.06-.09 1.318-.067 2.796l.041 2.687.661 1.383c.365.762.768 1.64.896 1.956.223.549.555.777.55.381z" fill="#dacd2f"/><path d="M45.397 139.458c-1.612-.213-3.31-.621-5.027-1.21-1.046-.357-1.278-.382-2.742-.292-5.512.337-11.103-1.966-14.273-5.882-1.305-1.61-2.535-3.965-2.066-3.954.063.001.698.099 1.411.216 1.56.256 2.547.117 3.31-.465.576-.44 1.105-1.21 1.105-1.613.001-.166-.728-.737-2.017-1.58-5.148-3.366-8.32-6.62-10.091-10.353-.617-1.3-1.182-2.932-1.077-3.104.043-.069 1.16.135 2.48.452 4.194 1.004 5.614 1.11 6.202.46.154-.17.24-.466.211-.722-.04-.366-.211-.513-1.115-.964-5.94-2.97-10.62-6.98-13.632-11.682-.99-1.543-.911-1.651 1.183-1.643 1.195.003 1.914.114 3.717.57 3.052.772 3.337.616 1.828-.998a117.754 117.754 0 00-2.832-2.852c-3.21-3.14-5.32-5.964-7.154-9.572-.935-1.842-2.228-4.785-2.228-5.071 0-.075.228-.134.509-.134 1.02 0 2.864.61 4.655 1.54 2.151 1.117 3.06 1.289 4.074.772 1.032-.527 1.026-.502.757-3.031-.133-1.239-.45-3.864-.704-5.832-.466-3.609-.623-5.825-.425-6.023.41-.41 2.26 1.18 4.963 4.265 3.298 3.765 4.982 5.288 5.492 4.973.102-.064.358-.76.57-1.551 1-3.743 2.184-4.817 3.633-3.298 1.156 1.212 2.249 3.87 3.144 7.652.42 1.762.483 2.356.59 5.408.102 2.937.164 3.545.439 4.248.956 2.456 2.504 1.935 3.685-1.24.18-.483.399-.876.487-.876.366 0 1.222.68 1.662 1.32.9 1.308 1.624 3.743 1.885 6.334.056.564.163 1.063.237 1.109.074.046.245-.314.38-.798.971-3.469 1.137-3.816 1.728-3.629.506.16 2.007 1.895 3.37 3.895 1.386 2.036 3.04 3.882 3.375 3.77.268-.092.263-4.379-.008-6.669-.676-5.715-2.265-9.896-7.976-20.989l-2.218-4.308-.112-3.5c-.074-2.365-.059-3.499.046-3.499.087 0 .45.668.807 1.486.805 1.83 1.21 2.535 1.21 2.094 0-.167-.455-2.567-1.011-5.332-.557-2.765-1.042-5.292-1.084-5.613-.117-.948.134-4.511.287-4.06.33.98 3.803 18.709 3.733 19.06-.06.3.293 1.114 1.458 3.35 3.49 6.7 5.585 11.504 6.602 15.142.304 1.089.581 2.07.616 2.18.106.34.353.044.52-.627.246-.98.93-2.746 1.16-2.992.176-.188.29-.129.812.42.685.72 1.425 2.167 2.196 4.297.735 2.03 1.03 2.605 1.31 2.552.334-.066.545-.828.833-3.012.584-4.438.764-5.51 1.237-7.396.274-1.094.75-2.67 1.058-3.504 1.077-2.919 3.705-7.99 4.139-7.99.254 0 1.064 1.703 1.34 2.818.124.503.334 1.668.466 2.59.31 2.155.76 3.136 1.722 3.747.384.243.762.442.842.442.261 0 1.507-1.097 3.985-3.507 5.227-5.083 6.393-6.072 6.738-5.725.33.33.013 3.146-.813 7.221-.93 4.589-1.11 6.507-.655 6.964.222.224.314.213 1.087-.131 1.867-.824 3.628-1.143 4.446-.8.766.32.955.807.731 1.878-.39 1.859-2.034 4.573-4.497 7.43-1.523 1.764-2.2 2.382-3.673 3.353-2.846 1.877-4.195 4.086-3.082 5.044.344.297.59.362 1.368.362.523 0 1.324-.099 1.783-.22.754-.2.851-.197 1.023.028.482.631-.026 2.53-1.112 4.164-1.42 2.136-4.645 4.986-7.264 6.42-.655.359-1.905 1.07-2.777 1.58a35.42 35.42 0 01-3.12 1.597c-.843.367-1.532.754-1.532.861 0 .273 2.973.25 4.95-.037 3.085-.446 4.19-.254 4.19.726 0 .93-.611 1.786-2.957 4.142-2.431 2.44-4.065 3.701-6.527 5.04-1.29.701-1.492.877-2.438 2.115-1.277 1.673-1.378 1.993-.79 2.497.409.353.513.37 1.812.298 1.53-.083 2.859-.56 3.633-1.3.607-.58.743-.282.677 1.49-.065 1.759-.306 2.356-1.607 3.99l-.933 1.172-2.48 1.216c-3.129 1.53-4.183 1.94-6.366 2.465-2.153.518-3.6.614-5.484.365zm-5.611-72.93c-.09-.109-.267-.606-.394-1.105l-.23-.907.083.744c.092.827.335 1.465.558 1.465.085 0 .078-.083-.017-.198zm-.687-2.583c-.042-.105-.076-.02-.076.19s.034.295.076.191a.589.589 0 000-.38zm-4.53 3.259c-.34-.276-.367-.427-.468-2.48-.06-1.204-.114-2.6-.123-3.102-.014-.75-.047-.862-.186-.623-.114.198-.143 1.09-.087 2.782.047 1.404.023 2.525-.055 2.573-.079.048-.135-1.617-.135-3.973 0-4.025-.005-4.068-.401-5.058l-.4-1 .261-1.616c.142-.89.366-1.99.496-2.446.205-.725.211-1.211.051-3.877-.102-1.678-.21-4.51-.243-6.295-.061-3.29-.165-3.914-.642-3.822-.135.026-4.151 4.829-8.922 10.673-8.988 11.008-9.09 11.119-9.09 9.853 0-.321.473-1.028 1.866-2.782 4.529-5.706 7.52-9.657 7.403-9.774-.033-.032-2.865 2.339-6.294 5.267-5.54 4.73-6.261 5.298-6.464 5.095-.49-.49-.024-.996 4.499-4.88a665.758 665.758 0 005.196-4.493c.419-.378 1.609-1.146 2.646-1.708 1.037-.564 2.105-1.18 2.373-1.37.71-.51 3.229-3.847 3.043-4.033-.046-.045-4.793 2.672-10.55 6.037-10.11 5.91-10.708 6.224-10.725 5.638-.001-.046.125-.457.282-.914l.284-.832 4.786-2.894a598.554 598.554 0 005.314-3.238c.29-.188 1.078-.522 1.749-.744 1.893-.625 2.91-1.128 5.658-2.802 2.612-1.592 3.426-1.976 4.18-1.976.65 0 1.179-.301 1.532-.873l.319-.516-.35-.372c-.191-.206-.525-.373-.741-.375-.939-.006-26.161 4.595-26.672 4.866-.684.363-2.13.792-2.303.686-.194-.12-.163-.575.058-.875.103-.141.669-.394 1.254-.56.585-.168 1.27-.401 1.523-.521.253-.12.896-.296 1.43-.392 1.137-.204 8.396-2.16 9.618-2.59.61-.215 1.59-.34 3.615-.457 4.833-.282 10.418-1.132 10.791-1.642.166-.227.252-.228 1.035-.01 1.014.281 1.205.194 1.872-.861.238-.378.507-.687.596-.687.088 0 .34.187.559.419l.397.418-.902 1.123c-.496.617-.901 1.211-.901 1.32 0 .225.783.923 1.179 1.05.148.045.353.22.457.386.137.218.317 4.075.653 13.968.477 14.034.497 15.452.209 15.546-.093.03-.33-.076-.53-.237zm9.4-.61c-.148-.164-.815-2.13-1.482-4.369-.668-2.24-1.275-4.185-1.349-4.323-.262-.49-4.25-13.507-4.414-14.404-.173-.954-.054-3.846.15-3.63.114.12 7.845 26.05 7.94 26.629.068.419-.496.483-.845.097zm-15.515-.414c-.147-.323-.054-1.187.529-4.913.389-2.486.814-5.35.946-6.365.131-1.014.338-2.222.459-2.684.3-1.152 1.793-4.956 1.863-4.745.032.093-.631 4.396-1.472 9.565a1909.9 1909.9 0 00-1.53 9.465c0 .038-.138.07-.307.07-.184 0-.38-.16-.488-.393zm-5.11-1.309c-.104-.103-.19-.329-.19-.5-.001-.171.611-2.163 1.36-4.425 1.543-4.655 3.602-11.311 3.75-12.11.09-.496.082-.513-.123-.23-.122.168-2.054 3.56-4.295 7.542-2.24 3.979-4.131 7.297-4.203 7.373-.206.22-.6-.204-.6-.645 0-.216.61-1.494 1.354-2.838.745-1.343 1.833-3.37 2.418-4.5 1.741-3.374 2.509-4.54 4.44-6.747 1.012-1.156 1.937-2.287 2.056-2.514.265-.505 1.881-2.254 1.986-2.15.15.153-7.334 21.845-7.551 21.89-.12.022-.3-.044-.403-.146zm25.899-.513c-.193-.136-1.213-2.002-2.395-4.38-1.133-2.28-2.54-5.036-3.125-6.125-.585-1.09-1.21-2.359-1.386-2.819-.383-.999-1.356-4.67-1.353-5.103.001-.168 1.084 1.889 2.405 4.57 6.832 13.858 6.804 13.8 6.571 13.945-.295.188-.328.183-.717-.088zm4.518-2.352c-.134-.08-1.972-2.701-4.083-5.826-2.112-3.124-4.235-6.227-4.72-6.898-1.743-2.411-5.317-7.629-5.58-8.145-.147-.29-.813-1.277-1.48-2.194-1.36-1.874-1.58-2.498-1.015-2.894.282-.197.39-.209.533-.058.544.576 17.178 25.527 17.187 25.783.012.342-.446.468-.842.232zM15.027 60.25c-.049-.127-.022-.229.06-.229.08 0 .147.102.147.229 0 .292-.096.292-.207 0zm40.262-4.99a692.916 692.916 0 00-5.49-5.674c-2.258-2.303-3.03-3.202-3.779-4.4-.518-.827-.908-1.537-.867-1.578.222-.22 1.975 1.51 9.438 9.32 4.653 4.87 4.831 5.113 3.762 5.113-.337 0-.9-.512-3.064-2.78zm5.635-2.245c-1.252-.847-1.44-1.083-.433-.54.552.295 1.22.539 1.486.539.51 0 .647.208.241.364-.413.158-.6.106-1.294-.363zm-8.286-7.477c-5.527-3.348-10.249-6.276-10.493-6.504-.567-.53-1.806-2.188-1.708-2.286.04-.04.402.136.804.395.402.257 1.059.614 1.46.79.4.177 1.805 1.026 3.12 1.885 1.317.86 3.457 2.203 4.756 2.986 1.298.781 4.04 2.462 6.093 3.734a437.46 437.46 0 004.82 2.954c.598.353 1.203.769 1.344.926.27.297.274 1.092.006 1.168-.084.023-4.674-2.698-10.202-6.048zm-46.925.622c-.163-.265.048-.891.357-1.056.152-.082 2.54-1.002 5.304-2.044 2.764-1.044 5.352-2.046 5.75-2.227.73-.332 4.526-.978 5.24-.89.227.027-2.897 1.274-7.91 3.157a3095.04 3095.04 0 01-8.459 3.171c-.096.034-.222-.017-.282-.111zm48.377-4.2c-10.158-3.89-11.98-4.672-12.164-5.227-.032-.094.685.093 1.593.42 12.708 4.557 21.644 7.864 21.802 8.066.25.321.179.853-.12.885-.125.013-5.125-1.851-11.11-4.144zm-3.741-4.497c-8.882-3.342-16.248-6.062-16.368-6.042-.12.02-.36.325-.533.677-.207.422-.419.644-.619.652-.71.027-31.698-2.95-31.82-3.056-.23-.203.049-.907.413-1.045.219-.084 2.632.06 6.51.388 8.995.762 9.143.63.675-.6-3.937-.573-7.28-1.074-7.426-1.115-.358-.1-.34-.614.027-.81.46-.248.747-.217 7.841.831 4.29.635 6.752.937 6.862.846.19-.157 2.154.458 4.731 1.482.838.333 2.017.717 2.619.853 1.176.265 3.094.335 3.094.113 0-.075-.43-.53-.952-1.013l-.952-.88-6.855-2.333C2.216 21.176 2.59 21.31 2.59 21.01c0-.384.532-.637 1.082-.517.27.06.542.026.671-.082.176-.145.557-.04 1.883.521 1.828.77 9.861 3.754 10.227 3.796.646.077.15-.467-2.198-2.41-6.635-5.485-7.17-5.953-7.314-6.363-.11-.317-.092-.475.075-.641.191-.194 1.016.43 6.486 4.923 3.448 2.83 6.429 5.25 6.627 5.375.596.38 2.376 1.086 2.573 1.02.104-.034-.504-.884-1.402-1.958-.871-1.046-1.751-2.14-1.956-2.432-.738-1.059-3.286-3.93-5.47-6.17-4.709-4.827-4.886-5.028-4.886-5.533 0-.575.236-.745.593-.423.148.134.47.245.714.248.398.005 1.343 1.059 9.129 10.196 9.43 11.072 8.797 10.437 10.625 10.623.978.099 1.157-.111.552-.654-.179-.16-.722-.804-1.207-1.432-.484-.629-1.985-2.376-3.335-3.884-1.465-1.64-2.924-3.457-3.63-4.52a978.732 978.732 0 00-5.278-7.751c-4.149-6.044-4.423-6.537-3.922-7.038.138-.138.246-.11.459.12.154.164 2.805 3.966 5.891 8.449 7.591 11.025 8.32 12.065 8.397 11.987.093-.094-.616-1.838-2.086-5.132-.691-1.55-1.442-3.298-1.67-3.885-.226-.586-1.762-3.973-3.413-7.523-1.94-4.174-2.983-6.592-2.954-6.84.044-.357.48-.796.634-.637.038.039 3.037 6.48 6.666 14.315 3.629 7.833 6.668 14.295 6.756 14.36.406.295.895.304 1.09.02.507-.741.713-.842 1.648-.804.59.025.926-.025.966-.143.033-.1-.083-.18-.26-.18-.32 0-.322-.02-.24-3.16.046-1.74.116-3.73.157-4.423.075-1.242 1.008-7.067 1.3-8.107.083-.294.594-3.242 1.136-6.552.542-3.31 1.062-6.203 1.155-6.43.178-.434.685-.7.907-.478.072.071-.718 5.34-1.754 11.708-1.036 6.367-1.856 11.605-1.822 11.638.103.105.664-1.276 1.843-4.544a193.23 193.23 0 011.647-4.428c.285-.713 1.377-3.832 2.428-6.932 1.348-3.977 2.007-5.716 2.235-5.904.32-.263 1.141-.381.994-.143-.08.129-9.234 27-9.234 27.103 0 .337 2.526-2.462 3.468-3.842.343-.503 1.899-2.422 3.458-4.265a497.636 497.636 0 006.507-7.922c4.245-5.286 4.49-5.561 4.934-5.561.969 0 .877.129-8.33 11.638-5.285 6.604-8.96 11.325-8.914 11.448.123.322 1.312.867 1.72.79.199-.039.4-.01.446.065.105.169 1.516.891 1.743.891.198 0 2.044-1.105 3.635-2.175 1.444-.972 2.426-1.405 5.424-2.39 1.34-.44 5.462-1.888 9.159-3.221 3.696-1.332 6.933-2.42 7.192-2.42.322 0 .525.1.642.316.093.175.133.354.09.398-.068.068-22.943 8.426-23.06 8.426-.023 0-.04.068-.04.152 0 .084.22.152.49.152.93 0 6.9-.923 7.912-1.223a8.151 8.151 0 012.056-.297c.587.001 3.72-.442 7.174-1.015 5.947-.988 6.14-1.01 6.436-.742.78.706 1.046.642-10.93 2.65-6.179 1.036-11.629 1.95-12.11 2.033-.482.083-.876.197-.876.255 0 .233 4.09 1.939 7.54 3.147.336.116 3.704.727 7.486 1.356 3.782.63 6.977 1.184 7.101 1.23.294.114.587.766.475 1.058-.054.142-.212.201-.415.157-.18-.04-1.8-.352-3.602-.692-1.801-.34-3.412-.658-3.58-.705-.24-.069-.266-.046-.124.104.1.105 1.779.827 3.732 1.605 1.954.78 3.711 1.557 3.906 1.73.43.382.401.991-.05 1.028-.167.013-7.57-2.712-16.452-6.054zm9.014-1.434c-4.342-.781-7.93-1.456-7.975-1.5-.082-.084.522-.267 1.855-.56.543-.121.936-.123 1.37-.007.336.089 3.421.64 6.856 1.225 5.516.938 6.278 1.101 6.52 1.395.385.47.274.81-.275.843-.25.015-4.009-.614-8.35-1.396zM.763 35.5c0-.303.113-.527.343-.674.466-.3 12.045-1.467 14.535-1.464 1.776.002 5.126.361 5.764.62.168.069.226.128.128.133-.096.006-4.753.422-10.348.925-5.594.502-10.228.914-10.297.914-.069 0-.125-.204-.125-.454zm-.61-2.523c0-.235.045-.38.1-.328.055.055.176-.006.272-.137.112-.152.604-.29 1.384-.387 1.019-.126 1.735-.086 4.564.26 1.845.225 3.488.458 3.653.519.164.06-1.207.155-3.047.21-1.84.055-4.151.142-5.135.194l-1.79.094zm39.463-2.066c.32-.603 1.296-1.857 1.842-2.37.282-.264 1.545-1.086 2.808-1.828 4.992-2.93 6.335-3.745 11.07-6.715 3.131-1.964 5.06-3.084 5.315-3.085.538-.003.876.391.577.672-.278.262-21.2 13.459-21.545 13.591-.233.09-.24.061-.067-.265zm-6.822-2.61c-.247-.305-.902-1.678-1.003-2.099-.05-.21-.39-.906-.755-1.547-.832-1.46-.917-1.874-1.411-6.83-.22-2.22-.708-6.527-1.083-9.571-.748-6.064-.79-6.623-.51-6.959.193-.233.764-.319.757-.113-.013.303 2.783 22.537 2.858 22.736.144.387.301-.85.49-3.884.098-1.592.242-3.641.318-4.552.078-.913.247-4.374.377-7.694.13-3.32.306-6.292.39-6.605.11-.418.254-.596.534-.666.21-.053.404-.07.432-.04.073.086-1.088 27.868-1.169 27.947-.038.04-.14-.017-.225-.124zm10.777-2.25c.11-.21.917-1.328 1.794-2.484 1.086-1.432 1.939-2.381 2.67-2.97.59-.477 2.895-2.532 5.121-4.568 3.594-3.284 4.1-3.694 4.504-3.656.28.028.474.14.503.296.032.166-2.323 2.416-7.014 6.703a1781.653 1781.653 0 01-7.42 6.756l-.356.305zm-2.81-3.884c.252-1.129 1.205-4.171 1.48-4.723.166-.335.526-.952.8-1.37.274-.42 1.778-3.093 3.341-5.942 2.67-4.864 3.213-5.717 3.641-5.71.731.009.643.198-4.168 8.932-2.624 4.764-4.866 8.798-4.984 8.965-.198.284-.206.273-.11-.152zm21.516-3.778l-.242-.507 1.094-.587c.837-.448 1.192-.562 1.508-.483.742.188.508.599-.756 1.329-.643.37-1.212.693-1.265.716-.053.021-.206-.19-.34-.468zm-34.679-1.363c-.649-1.052-2.433-4.87-2.527-5.412-.055-.312-.58-2.201-1.168-4.198-.596-2.025-1.047-3.836-1.021-4.097.046-.457.464-.894.664-.694.055.055.987 3.103 2.07 6.774l2.185 7.398c.119.398.189.724.158.724-.03 0-.192-.224-.36-.495z" fill="#deba2f"/><path d="M45.397 139.458c-1.612-.213-3.31-.621-5.027-1.21-1.046-.357-1.278-.382-2.742-.292-5.512.337-11.103-1.966-14.273-5.882-1.305-1.61-2.535-3.965-2.066-3.954.063.001.698.099 1.411.216 1.56.256 2.547.117 3.31-.465.576-.44 1.105-1.21 1.105-1.613.001-.166-.728-.737-2.017-1.58-5.148-3.366-8.32-6.62-10.091-10.353-.617-1.3-1.182-2.932-1.077-3.104.043-.069 1.16.135 2.48.452 4.194 1.004 5.614 1.11 6.202.46.154-.17.24-.466.211-.722-.04-.366-.211-.513-1.115-.964-5.94-2.97-10.62-6.98-13.632-11.682-.99-1.543-.911-1.651 1.183-1.643 1.195.003 1.914.114 3.717.57 3.052.772 3.337.616 1.828-.998a117.754 117.754 0 00-2.832-2.852c-3.21-3.14-5.32-5.964-7.154-9.572-.935-1.842-2.228-4.785-2.228-5.071 0-.075.228-.134.509-.134 1.02 0 2.864.61 4.655 1.54 2.151 1.117 3.06 1.289 4.074.772 1.032-.527 1.026-.502.757-3.031-.133-1.239-.45-3.864-.704-5.832-.466-3.609-.623-5.825-.425-6.023.41-.41 2.26 1.18 4.963 4.265 3.298 3.765 4.982 5.288 5.492 4.973.102-.064.358-.76.57-1.551 1-3.743 2.184-4.817 3.633-3.298 1.156 1.212 2.249 3.87 3.144 7.652.42 1.762.483 2.356.59 5.408.102 2.937.164 3.545.439 4.248.956 2.456 2.504 1.935 3.685-1.24.18-.483.399-.876.487-.876.366 0 1.222.68 1.662 1.32.9 1.308 1.624 3.743 1.885 6.334.056.564.163 1.063.237 1.109.074.046.245-.314.38-.798.971-3.469 1.137-3.816 1.728-3.629.506.16 2.007 1.895 3.37 3.895 1.386 2.036 3.04 3.882 3.375 3.77.161-.056.203-.604.193-2.57-.024-5.365-.878-9.309-3.222-14.883-.85-2.02-2.493-5.368-6.523-13.285l-.658-1.295-.038-3.352c-.023-2.001.02-3.345.105-3.334.078.01.492.807.92 1.771.566 1.275.869 2.226 1.108 3.48.337 1.768.672 2.425 1.24 2.425.14 0 .362.119.494.267.132.146 1.395 2.562 2.806 5.37 2.776 5.517 4.435 9.445 5.308 12.568.305 1.089.582 2.07.617 2.18.106.34.353.044.52-.627.246-.98.93-2.746 1.16-2.992.176-.188.29-.129.812.42.685.72 1.425 2.167 2.196 4.297.735 2.03 1.03 2.605 1.31 2.552.334-.066.545-.828.833-3.012.584-4.438.764-5.51 1.237-7.396.274-1.094.75-2.67 1.058-3.504 1.077-2.919 3.705-7.99 4.139-7.99.254 0 1.064 1.703 1.34 2.818.124.503.334 1.668.466 2.59.31 2.155.76 3.136 1.722 3.747.384.243.762.442.842.442.261 0 1.507-1.097 3.985-3.507 5.227-5.083 6.393-6.072 6.738-5.725.33.33.013 3.146-.813 7.221-.93 4.589-1.11 6.507-.655 6.964.222.224.314.213 1.087-.131 1.867-.824 3.628-1.143 4.446-.8.766.32.955.807.731 1.878-.39 1.859-2.034 4.573-4.497 7.43-1.523 1.764-2.2 2.382-3.673 3.353-2.846 1.877-4.195 4.086-3.082 5.044.344.297.59.362 1.368.362.523 0 1.324-.099 1.783-.22.754-.2.851-.197 1.023.028.482.631-.026 2.53-1.112 4.164-1.42 2.136-4.645 4.986-7.264 6.42-.655.359-1.905 1.07-2.777 1.58a35.42 35.42 0 01-3.12 1.597c-.843.367-1.532.754-1.532.861 0 .273 2.973.25 4.95-.037 3.085-.446 4.19-.254 4.19.726 0 .93-.611 1.786-2.957 4.142-2.431 2.44-4.065 3.701-6.527 5.04-1.29.701-1.492.877-2.438 2.115-1.277 1.673-1.378 1.993-.79 2.497.409.353.513.37 1.812.298 1.53-.083 2.859-.56 3.633-1.3.607-.58.743-.282.677 1.49-.065 1.759-.306 2.356-1.607 3.99l-.933 1.172-2.48 1.216c-3.129 1.53-4.183 1.94-6.366 2.465-2.153.518-3.6.614-5.484.365zM33.16 57.356l-.431-.914.262-1.675c.48-3.085.7-2.768.641.918l-.041 2.585z" fill="#2eac27"/><path d="M48.146 139.048c-.076-.188-.35-1.508-.609-2.932-.258-1.424-.505-2.75-.549-2.943-.074-.334-.143-.297-1.148.61a29.54 29.54 0 01-2.089 1.693c-.561.402-1.08.86-1.153 1.016-.151.328-.863.666-1.237.59-.169-.035-1.053-1.883-2.686-5.612a3815.092 3815.092 0 00-4.656-10.588c-1.222-2.765-6.499-13.78-11.726-24.478l-9.504-19.45-.448-3.248a471.97 471.97 0 00-.692-4.875c-.185-1.228-.205-1.705-.076-1.946.128-.239.233-.282.43-.176.582.315 2.885 2.61 4.73 4.711 3.068 3.497 4.587 4.808 5.27 4.546.121-.047.296-.38.386-.74.463-1.843 1.114-3.641 1.525-4.21.389-.534.546-.635.989-.635 1.383 0 2.961 3.018 4.144 7.922.496 2.057.54 2.45.65 5.713.104 3.071.16 3.61.454 4.375.593 1.539 1.664 1.945 2.617.995.416-.416 1.196-1.865 1.557-2.895.052-.147.166-.266.255-.266.36 0 1.553 1.318 1.981 2.189.543 1.106 1.145 3.655 1.298 5.493.074.887.195 1.423.372 1.64.255.315.279.255.83-2.024.66-2.72.769-3.033 1.06-3.033.362 0 1.921 1.809 3.618 4.197 2.286 3.22 3.469 4.222 3.734 3.166.13-.518-.037-4.9-.252-6.601-.681-5.405-2.086-9.201-7.02-18.97l-3.157-6.25-.04-3.079c-.024-1.692-.007-3.113.037-3.158.208-.207 1.532 3.384 1.812 4.91.334 1.82.572 2.296 1.215 2.424.246.049.51.168.589.262.078.094 1.265 2.4 2.638 5.123 3.265 6.475 4.59 9.665 5.628 13.558.257.963.522 1.82.589 1.905.225.283.903 5.577.91 7.118.002.223.103.25.662.173 1.844-.252 2.82 1.7 2.635 5.277-.106 2.06-.367 3.132-1.102 4.538-.811 1.554-.888 2.87-.188 3.243.428.23 1.314-.03 1.96-.573.361-.303 2.327-4.102 8.156-15.76l7.68-15.361 3.407-3.43c3.837-3.866 4.061-4.006 4.06-2.554-.002 1.194-.339 3.345-1.094 6.97-.728 3.499-.875 5.785-.4 6.262.243.242.343.226 1.678-.285 1.845-.706 3.161-.95 3.863-.719.288.095.524.24.524.322 0 .082.069.108.153.056.34-.212.227 1.32-.162 2.17-.163.354-.295.7-.295.769 0 .067-.378.76-.838 1.54-1.649 2.79-4.522 6.062-6.47 7.372-2.817 1.892-4.196 3.636-3.877 4.905.233.923 1.852 1.261 3.723.775.934-.242 1.057-.172 1.06.607.005.732-.417 1.966-1.023 3.002-1.187 2.03-5.235 5.599-7.81 6.89-.46.23-1.457.787-2.214 1.236-.757.451-2.19 1.193-3.185 1.651-1.94.893-2.156 1.032-1.997 1.29.15.243 3.69.202 5.416-.063 1.838-.284 3.358-.294 3.726-.025.224.165.264.336.194.85-.117.878-.639 1.58-2.778 3.743-2.433 2.46-4.588 4.072-7.214 5.4-.773.39-1.059.665-1.986 1.923-.646.876-1.083 1.62-1.083 1.84 0 .206.178.55.394.767.381.38.44.391 1.875.323 1.626-.08 2.899-.524 3.706-1.297.365-.348.426-.365.514-.138.054.143.07.858.035 1.589-.075 1.58-.336 2.2-1.59 3.785-.857 1.082-.88 1.097-3.393 2.311-2.82 1.36-4.528 2-6.335 2.374-.668.137-1.282.317-1.364.399-.082.082-.376.15-.654.15-.383 0-.54-.085-.645-.344zM37.92 106.58c.887-1.468 1.69-3.27 1.684-3.78-.007-.583-1.017-4.33-1.102-4.083-.131.385-.554 3.042-.726 4.57-.09.795-.297 2.06-.46 2.81-.302 1.382-.35 1.76-.232 1.76.037 0 .413-.574.836-1.277zm-4.777-49.627c-.22-.549-.23-.783-.072-1.79.296-1.89.433-1.763.44.403 0 1.11-.024 2.019-.056 2.019-.033 0-.173-.285-.312-.632z" fill="#22881d"/><path d="M48.524 139.245c-.05-.08-.357-1.606-.682-3.39a205.587 205.587 0 00-.681-3.624c-.097-.411.403-1.235.618-1.02.065.065.441 1.88.836 4.034.721 3.93.73 4.136.18 4.143a.345.345 0 01-.271-.143zm-7.378-2.939c-.553-1.284-21.858-50.363-25.593-58.958-2.1-4.84-3.883-9.07-3.958-9.4-.169-.757.104-1.249.544-.979.165.102 3.251 7.05 7.712 17.367 4.088 9.459 10.8 24.979 14.915 34.49 4.114 9.508 7.508 17.397 7.542 17.528.039.144-.092.307-.335.419-.54.245-.512.262-.826-.467zm17.365-1.447c-.287-1.092-1.08-4.287-1.08-4.35 0-.034.436-.103.968-.153 1.041-.098 2.547-.682 3.105-1.207.189-.176.395-.27.458-.207.063.064.106.66.094 1.324-.017.963-.102 1.371-.415 2.005-.677 1.374-2.317 3.16-2.902 3.16-.043 0-.145-.258-.228-.572zm-10.787-10.668c-1.683-3.45-1.82-3.68-2.208-3.685-.259-.003-.477-.124-.582-.32-.13-.24-.216-.274-.373-.145-.156.13-.276.095-.506-.152-.413-.445-.513-1.079-.396-2.528l.1-1.234-2.397-4.91c-1.938-3.968-2.38-4.993-2.31-5.347.115-.572 1.664-3.982 2.067-4.547l.311-.439-.834-4.474c-.46-2.46-.836-4.733-.836-5.048 0-.65.375-.94.68-.526.097.136.546 2.305.996 4.823l.818 4.58.569.609c.439.47.621.842.802 1.637.454 2 .72 3.79.797 5.372.146 2.957.268 2.948 1.139-.08.742-2.584 1.325-5.672 1.46-7.737.07-1.095.166-1.6.324-1.716.182-.136.22-.625.2-2.662-.069-7.605-1.373-11.812-7.243-23.376l-3.094-6.094-.099-3.047c-.082-2.565-.065-3.007.107-2.789.433.547 1.325 3.16 1.567 4.582.277 1.638.567 2.164 1.276 2.319.532.117.8.579 3.787 6.552 2.287 4.572 3.896 8.45 4.68 11.273.301 1.09.642 2.288.755 2.666.31 1.028.688 3.796.79 5.78.049.969.154 1.842.232 1.942.095.12.398.153.9.093.684-.082.8-.049 1.203.337.747.716.99 1.697.978 3.96-.012 2.41-.23 3.32-1.273 5.308l-.765 1.458-.147-.565-.495-1.909c-.405-1.566-.545-1.53-.973.248-.45 1.871-1.347 4.737-2.864 9.144l-1.459 4.24.238 1.168c.13.643.296 1.23.368 1.305.18.192 1.73-1.005 2.274-1.758.438-.604.806-1.467.991-2.326.08-.373.127-.408.292-.228.26.282.76 1.595 1.188 3.109.491 1.738.463 4.116-.075 6.384-.294 1.24-.493 1.763-.78 2.05l-.384.383zm8.661 2.315c-.797-3.025-1.545-6.24-1.487-6.39.13-.338 3.086-2.464 3.812-2.74.558-.214.79-.235 1.079-.104.445.204.847.786.976 1.415.088.432.148.355.91-1.192l.816-1.652 2.002-.26c3.3-.432 3.842-.417 4.084.112.321.707-.424 1.837-2.745 4.165-2.25 2.257-4.03 3.615-6.526 4.978-1.07.585-1.74 1.068-2.158 1.557l-.605.709zm-3.352-13.203c-.603-2.367-1.094-4.339-1.091-4.381.003-.043.301-.053.664-.025.87.069 1.935-.435 2.826-1.339.512-.518 1.83-2.76 5.248-8.918 11.153-20.104 15.543-27.908 15.918-28.303.434-.46.984-.504 1.063-.085.026.137-4.582 8.522-10.243 18.631-5.66 10.11-10.291 18.427-10.29 18.486 0 .058.17.444.38.857.98 1.93-.038 5.636-2.296 8.355-.468.564-.903 1.026-.967 1.026-.064 0-.609-1.938-1.212-4.304zm14.316-7.16c1.686-3.373 3.086-6.156 3.112-6.185.027-.029.154.153.283.404.412.794 1.888 1.022 3.649.564.481-.127.915-.229.963-.229.047 0 .06.434.026.966-.045.69-.202 1.248-.546 1.942-1.033 2.089-3.787 4.86-6.681 6.718-.617.398-3.636 1.952-3.79 1.952-.044 0 1.3-2.76 2.984-6.132zM34.2 96.578a834.248 834.248 0 01-3.098-6.4c-.028-.08.24-.145.595-.145.553 0 .727-.087 1.216-.6.34-.358.774-1.095 1.073-1.828.277-.676.582-1.228.677-1.228.375 0 1.353 1.17 1.838 2.197 1.24 2.634 1.845 8.502 1.203 11.666a52.27 52.27 0 00-.346 1.868l-.11.726zm41.129-6.423l3.259-6.596.66-.252c.365-.138 1.05-.3 1.524-.36.79-.098.894-.075 1.245.275.239.24.41.317.455.207.04-.096.072.236.073.74 0 .589-.04.805-.117.61-.097-.248-.137-.195-.23.296-.26 1.387-2.02 4.209-4.163 6.677-1.54 1.771-2.34 2.495-3.77 3.42-.586.379-1.32.89-1.63 1.133-.531.417-.365.038 2.694-6.15zm-49.093-9.858l-3.24-6.613.247-.85c.303-1.043.906-2.1 1.326-2.325.726-.387 1.815.72 2.76 2.802.67 1.476 1.061 2.692 1.63 5.068.421 1.76.482 2.31.55 4.951.043 1.633.053 3.108.022 3.276-.032.185-1.32-2.28-3.295-6.309zm6.974-23.501c-.134-.287-.154-.669-.068-1.295l.123-.887.125 1.143c.143 1.316.091 1.616-.18 1.039z" fill="#1d7319"/></svg>