<?xml version="1.0" encoding="UTF-8" standalone="no"?>
<svg
   width="140"
   height="86.96949"
   version="1.1"
   id="svg4127"
   sodipodi:docname="1536745806.svg"
   inkscape:version="1.2.2 (732a01da63, 2022-12-09)"
   xmlns:inkscape="http://www.inkscape.org/namespaces/inkscape"
   xmlns:sodipodi="http://sodipodi.sourceforge.net/DTD/sodipodi-0.dtd"
   xmlns="http://www.w3.org/2000/svg"
   xmlns:svg="http://www.w3.org/2000/svg">
  <defs
     id="defs4131" />
  <sodipodi:namedview
     id="namedview4129"
     pagecolor="#ffffff"
     bordercolor="#000000"
     borderopacity="0.25"
     inkscape:showpageshadow="2"
     inkscape:pageopacity="0.0"
     inkscape:pagecheckerboard="0"
     inkscape:deskcolor="#d1d1d1"
     showgrid="false"
     inkscape:zoom="0.41323731"
     inkscape:cx="738.07469"
     inkscape:cy="440.4249"
     inkscape:window-width="1920"
     inkscape:window-height="1017"
     inkscape:window-x="1912"
     inkscape:window-y="-8"
     inkscape:window-maximized="1"
     inkscape:current-layer="svg4127" />
  <g
     id="g4125"
     transform="matrix(0.09676917,0,0,0.09676917,-69.821449,-28.186913)">
    <title
       id="title4083">Layer 7</title>
    <g
       transform="matrix(2.16435,0,0,2.16435,-1669.66,-853.1)"
       id="imagebot_372">
      <path
         id="imagebot_373"
         d="m 1470.354,532.29 c 9.11,-3.5 19.04,-3.29 28.65,-3.28 10.36,0.1 20.73,-0.3 31.08,0.45 14.52,1 28.97,2.8 43.37,4.85 12.38,1.27 24.55,3.9 36.78,6.11 9.25,1.32 18.22,4.04 27.38,5.83 11.45,1.95 22.69,4.97 34.15,6.93 18.44,4.09 36.91,8.25 54.87,14.2 11.8,4.13 23.78,8.58 33.83,16.23 6.42,4.91 11.18,12.24 12.25,20.33 0.55,7.13 0.44,14.44 -1.62,21.35 -5.47,19.38 -16.15,36.76 -27.89,52.93 -23.24,33.87 -46.85,67.84 -75.82,97.15 -8.64,7.29 -16.96,15.8 -27.87,19.55 -1.79,0.49 -4.18,0.88 -4.53,3.09 -1.61,5.17 -6.14,8.56 -10.26,11.7 -4.98,3.58 -10.44,6.36 -15.87,9.17 -1.33,3.25 -1.47,6.89 -2.84,10.16 -6.69,16.96 -15.15,33.15 -23.88,49.14 -3.8,6.46 -7.31,13.12 -11.84,19.11 -2.9,3.91 -7.98,4.73 -12.4,5.72 -15.12,2.9 -30.59,2.59 -45.9,3.29 -8.3,0.43 -17.2,-0.22 -24.7,3.99 -5.43,2.63 -9.41,7.25 -13.81,11.22 -3.65,5.51 -7.68,11.14 -13.65,14.32 -18.48,8.49 -39.3,8.49 -59.19,7.41 -6.81,-0.83 -13.67,-1.4 -20.4,-2.75 -2.54,-0.34 -3.42,-3.15 -4.81,-4.91 -4.24,-6.88 -9.53,-13.23 -12.33,-20.89 -0.36,-1.4 -1.31,-2.57 -2.64,-3.08 -2.1,-1.17 -4.25,-2.23 -6.48,-3.06 -2.14,-1.08 -4.59,-0.77 -6.75,-0.01 -20.94,5.47 -43.01,2.68 -63.83,-1.96 -3.43,-1 -7.24,-1.59 -10.05,-3.92 -3.02,-3.87 -2.89,-9.28 -5.77,-13.24 -6.03,-3.87 -13.63,-3.42 -20.44,-2.52 -2.61,0.31 -5.15,0.93 -7.64,1.74 -8.23,2.64 -16.87,4.26 -25.54,3.44 -11.76,-0.95 -23.4,-3.2 -34.81,-6.16 -2.65,-0.65 -5.22,-1.74 -7.34,-3.46 -0.07,-0.07 -0.22,-0.21 -0.3,-0.27 -12.08,-14.49 -19.7,-32.01 -27.67,-48.93 -3.56,-7.28 -6.26,-14.97 -9.9,-22.19 -5.73,-3.65 -12.67,-5.2 -17.95,-9.55 -1.18,-1.11 -2.56,-1.95 -4.06,-2.48 -3.03,-1.42 -5.69,-4.04 -6.82,-7.21 -0.59,-4.22 3.38,-7.07 6.19,-9.52 12.76,-9.37 27.31,-15.89 41.65,-22.41 2.44,-1.03 2.77,-4.03 3.91,-6.13 7.49,-18.63 25.04,-32.04 44.29,-36.65 1.02,0.16 1.95,-0.06 2.81,-0.68 6.8,-2.1 14.09,-2.13 21.12,-1.38 7.55,0.91 14.17,4.86 20.81,8.28 8.01,-3.46 16.21,-6.47 24.61,-8.82 3.78,-4.23 6.63,-9.27 10.83,-13.17 7.89,-8.29 17.74,-14.94 28.8,-18.14 6.09,-1.81 12.54,-3.35 18.92,-2.2 6.22,0.77 12.02,3.22 17.94,5.13 9.12,-13.01 17.36,-26.62 26.2,-39.82 3.7,-4.86 7.04,-10 9.99,-15.35 12.07,-17.29 22.58,-35.65 35.28,-52.52 2.66,-3.33 4.9,-7.06 8.08,-9.92 1.15,-0.81 2.08,-1.9 2.7,-3.18 3.09,-4.79 7.45,-8.61 11.35,-12.74 8.661,-8.35 18.311,-16.19 29.76,-20.32 m 10.48,1.68 c -10.73,0.94 -20.12,7 -28.38,13.49 -12.16,9.85 -22.23,21.96 -31.53,34.46 -11.77,15.85 -21.82,32.87 -32.84,49.22 -12.51,19 -24.98,38.01 -37.36,57.08 2.98,2.19 6.18,4.04 9.18,6.22 8.2,-12.94 16.38,-25.89 24.9,-38.62 10.9,-16 23,-31.12 33.92,-47.1 12.08,-16.83 23.96,-33.84 37.32,-49.69 5.27,-5.47 10.11,-12.53 18,-14.22 21.79,-3.96 44.09,-2.31 66,-0.4 13.4,1.45 26.84,2.7 40.09,5.31 37.33,7.81 74.99,14.05 112.04,23.18 17.34,4.58 34.96,8.81 51.15,16.73 4.76,2.62 10.2,5.92 11.29,11.72 2.42,11.75 -2.07,23.38 -5.88,34.32 -7.69,18.8 -18.11,36.44 -30.61,52.44 -3.42,4.27 -7.21,8.22 -10.38,12.68 -13.74,18.43 -27.73,36.72 -43.39,53.58 -11.04,11.49 -22.71,23.13 -37.51,29.63 3.47,2.17 6.45,5.05 8.34,8.74 11.05,-4.15 20.18,-11.9 28.69,-19.86 12.93,-12.48 24.43,-26.35 35.49,-40.48 11.84,-15.31 23.11,-31.06 33.99,-47.06 10.66,-15.35 22.08,-30.44 29.15,-47.88 3.66,-8.01 5.94,-16.63 6.57,-25.41 0.28,-7.79 -1.59,-16.15 -7.3,-21.8 -8.88,-8.82 -20.9,-13.29 -32.36,-17.7 -30.38,-10.37 -62.06,-16.02 -93.41,-22.56 -27.99,-6.62 -56.41,-11.25 -84.96,-14.61 -23.32,-2.01 -46.859,-4.15 -70.21,-1.41 m -2.809,14.18 c 13.68,16.36 27.8,32.47 39.42,50.42 2.23,3.25 3.3,7.18 5.56,10.38 11.52,2.95 23.43,3.93 35.11,6.11 13.58,2.44 27.28,4.12 40.83,6.79 22.3,4.11 44.29,9.69 66.44,14.55 10.53,1.76 20.95,4.64 31.68,4.87 3.56,0.26 6.45,-2.12 9.4,-3.76 8.19,-5.03 16.18,-10.41 23.87,-16.18 7.49,-5.84 15.41,-11.79 20.04,-20.3 -1.12,-1.96 -2.42,-3.88 -4.36,-5.08 -8.09,-5.38 -17.48,-8.18 -26.56,-11.37 -35.72,-10.83 -72.48,-17.51 -109.03,-24.77 -10.38,-1.54 -20.53,-4.14 -30.8,-6.2 -21.42,-3.32 -42.95,-6.28 -64.63,-6.94 -12.33,-0.02 -24.781,-0.72 -36.97,1.48 m -18.21,12.72 c -22.93,27.13 -41.81,57.35 -63.49,85.45 -11.55,16.57 -22.73,33.44 -33.04,50.81 6.28,6.37 12.17,13.15 16.77,20.86 4.6,-3.47 9.18,-7.11 14.52,-9.4 11.03,-5.08 23.91,-6.03 35.58,-2.68 7.15,1.88 13.54,5.59 19.7,9.58 10.22,-19.38 23.07,-37.2 35.3,-55.34 11.12,-16.39 22.95,-32.34 33.38,-49.19 -0.57,-5.17 -4.3,-9.33 -6.78,-13.74 -11.78,-16.92 -24.93,-32.87 -38.69,-48.19 -5.31,2.84 -9.38,7.34 -13.25,11.84 m 253.31,77.22 c -3.13,2.25 -6.91,3.7 -9.67,6.36 -12.18,26.43 -25,52.59 -38.69,78.29 -10.08,18.51 -20.35,37.02 -32.84,54.05 6.73,-3.57 12.45,-8.74 18.08,-13.81 16.9,-15.9 31.37,-34.15 45.44,-52.54 5.64,-7.34 10.89,-15.01 17.1,-21.91 11.72,-14.23 21.42,-30.09 29.21,-46.79 4.68,-10.78 9.14,-22.01 9.37,-33.93 -10.7,12.32 -24.431,21.45 -38,30.28 m -190.98,-25.13 c -12.34,19.51 -26.08,38.09 -38.96,57.24 -10.45,15.67 -21.56,31.04 -30.04,47.9 4.61,4.66 9.38,9.23 13.08,14.69 6.84,9.24 11.37,19.92 14.76,30.84 5.29,-7.75 11.5,-14.96 19.08,-20.57 15.06,-11.86 36.61,-16.4 54.51,-8.53 16.57,7.68 27.41,23.72 33.77,40.31 9.9,0.79 19.77,2.42 29.22,5.53 2.05,0.56 4.86,1.65 6.56,-0.27 6.19,-7.32 11.4,-15.39 16.55,-23.46 11.24,-18.13 21.28,-36.98 31.07,-55.92 9.1,-18.35 18.52,-36.57 26.59,-55.39 -13.85,-0.65 -27.47,-3.52 -40.93,-6.69 -20.51,-4.36 -40.84,-9.57 -61.47,-13.35 -12.39,-1.78 -24.67,-4.19 -37.03,-6.1 -12.331,-1.57 -24.561,-3.89 -36.76,-6.23 m -222.941,79.28 c -18.07,10.59 -29.97,29.28 -36.49,48.78 1.79,3.54 3.95,6.89 5.86,10.38 1.97,3.54 3.05,7.5 5.1,11.01 14.12,-14.3 36.06,-20.17 55.45,-14.84 7.52,2.1 14.49,5.68 20.85,10.19 7.22,-13.47 15.96,-26.25 26.98,-36.91 -4.65,-8.08 -10.58,-15.44 -17.65,-21.53 -8.86,-7.46 -19.69,-12.9 -31.25,-14.39 -10.139,-1.11 -20.049,2.62 -28.85,7.31 m 88.801,24.79 c -15.09,11.28 -26.34,26.98 -34.87,43.61 9.5,8.2 16.24,19.14 20.97,30.66 2.38,-2.91 5.7,-5.12 7.7,-8.29 3.17,-1.8 5.97,-4.13 9.02,-6.12 15.51,-9.55 35.09,-12.25 52.61,-7.29 9.96,2.97 18.24,9.58 25.31,16.97 1.84,-4.35 3.58,-8.77 6.03,-12.82 1.19,-2.42 3.56,-4.84 2.57,-7.73 -2.94,-11.52 -8.18,-22.48 -15.25,-32.04 -4.18,-5.26 -8.5,-10.77 -14.34,-14.26 v -0.61 c -10.47,-7.78 -23.57,-12.28 -36.68,-10.69 -8.42,0.21 -16.241,3.93 -23.07,8.61 m -187.76,4.43 c -12.34,3.66 -24.06,10.49 -31.96,20.84 -11.26,14.17 -14.91,32.95 -14.14,50.7 4.98,2.26 10.23,3.88 15.42,5.61 8.31,2.3 16.3,5.75 24.79,7.39 6.74,2.81 13.86,4.51 20.83,6.63 9.79,3.16 19.7,5.95 29.46,9.22 4.06,-20.26 11.75,-40.47 25.7,-56.03 -3.26,-8.53 -6.91,-17.24 -12.8,-24.27 -7.69,-11.38 -19.66,-20.52 -33.51,-22.45 -8.01,-1.59 -16.03,0.54 -23.79,2.36 m 49.359,4.8 c 3.28,3.63 6.93,6.95 9.9,10.87 2.57,-5.77 5.06,-11.58 7.89,-17.23 -6.219,1.22 -12.009,3.85 -17.79,6.36 m 249.97,22.35 c -12.84,10.98 -21.71,25.89 -27.95,41.41 0.87,2.87 3.26,5.03 4.59,7.72 5.99,10.36 9.55,21.87 12.37,33.44 0.39,2.94 0.77,5.9 1.3,8.84 33.18,-12.91 67.01,-24.05 100.1,-37.19 -0.12,-15.06 -5.53,-29.74 -13.28,-42.5 -4.69,-7.11 -10.15,-14.11 -17.64,-18.41 -0.62,-1.1 -1.9,-1.48 -2.88,-2.08 -6.9,-3.27 -14.44,-5.68 -22.15,-5.31 -12.68,0.49 -24.94,5.79 -34.46,14.08 m -212.509,8.5 c -8.45,4.92 -15.16,12.32 -20.67,20.31 -9.01,13.74 -14.84,29.43 -17.83,45.54 13.28,4.99 26.63,9.94 40.44,13.31 11.08,3.93 22.64,6.28 33.88,9.72 8.65,2.07 17.22,4.57 25.96,6.29 3.25,-20.37 10.01,-40.57 22.37,-57.28 -1.91,-5.23 -4.53,-10.14 -7.17,-15.03 -0.75,-1.18 -1.36,-2.54 -2.57,-3.29 -3.49,-6.28 -8.74,-11.43 -14.38,-15.79 -16.771,-13.25 -41.741,-14.78 -60.03,-3.78 m -163.831,22.16 c -5.22,3.24 -11.12,6.25 -14.35,11.7 4.67,6.15 12.11,8.99 18.72,12.5 10.92,5 22.12,9.35 33.4,13.48 41.54,14.89 83.96,27.12 126.25,39.66 20.12,5.4 40.53,9.63 60.86,14.18 11.81,2.02 23.4,5.17 35.26,6.99 9.19,1.65 18.31,3.91 27.67,4.42 13.25,0.84 26.88,0.73 39.65,-3.36 9.55,-2.56 17.46,-8.8 26.5,-12.61 39.69,-17.67 80.6,-32.43 121.25,-47.72 9.89,-3.17 19.15,-8.29 27.31,-14.71 2.71,-2.5 6.54,-5.47 5.34,-9.67 -1.6,-4.34 -6.09,-6.68 -10.14,-8.27 -9.82,-4.25 -20.54,-5.5 -31.05,-6.76 0.73,2.93 1.57,5.83 2.36,8.76 4.35,0.85 9.37,0.88 12.77,4.13 2.15,1.76 1.61,5.09 -0.13,6.94 -2.76,2.84 -6.46,4.47 -10.02,6.02 -42.39,17.58 -86.57,30.6 -128.5,49.35 -4.77,2.25 -9.29,5.01 -14.24,6.84 -10.46,4.37 -21.93,5.3 -33.14,5.55 -14.93,-0.08 -29.84,-1.82 -44.41,-5.04 -6.72,-1.62 -13.56,-2.64 -20.33,-3.97 -23.5,-5.15 -46.67,-11.64 -69.79,-18.27 -9.73,-3.2 -19.67,-5.75 -29.14,-9.7 -31.12,-10.91 -63.13,-19.04 -94.3,-29.79 -6.38,-1.95 -12.65,-4.32 -18.58,-7.38 -2.93,-1.35 -2.78,-5.3 -1.69,-7.82 2.24,-3.52 6.32,-5.18 9.8,-7.21 0.66,-4.38 1.61,-8.72 2.16,-13.12 -10.03,4.54 -20,9.27 -29.49,14.88 m 273.771,-1.23 c -18.89,9.71 -30.66,28.88 -37.55,48.34 -2.76,8.8 -5.92,17.67 -6.34,26.97 9.18,1.32 18.15,3.73 27.27,5.43 9.26,1.35 18.48,3.14 27.86,3.56 17.03,1.17 35.18,0.01 50.33,-8.62 8.83,-4.63 18.13,-8.26 27.32,-12.12 -1.3,-12.56 -4.92,-24.83 -10.23,-36.26 -3.6,-7.1 -7.78,-14.07 -13.66,-19.51 -3.47,-3.92 -7.88,-6.85 -12.41,-9.38 -16.42,-8.17 -36.48,-6.49 -52.59,1.59 m -253.11,10.65 c 2,1.14 4.06,2.19 6.21,3.05 0.08,-3.16 0.09,-6.32 0.01,-9.47 -2.631,1.42 -5.73,3.17 -6.22,6.42 m 449.459,3.6 c 0.26,2.76 0.56,5.52 0.82,8.29 3.04,-1.38 7.88,-2.19 7.99,-6.36 -2.83,-1.07 -5.84,-1.55 -8.81,-1.93 m -453.66,20.95 c 1.79,5.87 4.89,11.21 7.12,16.91 5.7,12.41 11.57,24.77 18.53,36.53 3.38,5.1 6.41,10.77 11.55,14.35 3.84,1.59 8.05,2.06 12.09,3.01 11.11,2.58 22.48,4.73 33.94,4.17 3.74,-0.37 7.49,-0.95 11.07,-2.18 9.96,-3.39 20.77,-4.78 31.15,-2.61 -5.55,-11.82 -13.19,-22.51 -19.86,-33.7 -1.44,-2.82 -5.07,-2.85 -7.79,-3.4 -9.91,-3.8 -20.3,-6.11 -30.29,-9.69 -22.76,-7.04 -45.279,-14.84 -67.51,-23.39 m 427.741,21.26 c -6.74,2.03 -13.08,5.16 -19.76,7.35 -19.6,7.64 -39.26,15.12 -58.54,23.54 -2.95,15.43 -5.01,31.2 -10.91,45.87 5.93,-4.38 12.81,-7.72 20.23,-8.44 10.3,-0.9 20.67,-0.76 30.99,-1.44 5.87,0.18 11.75,-0.16 17.6,-0.77 6.21,-0.78 12.75,-1.21 18.36,-4.24 4.32,-3.88 6.66,-9.38 9.79,-14.17 7.02,-12.17 13.47,-24.65 19.59,-37.29 3.46,-7.86 7.35,-15.59 9.44,-23.96 -12.41,4.11 -24.6,8.85 -36.79,13.55 m -317.111,15.44 c 5.28,9.22 11.43,17.95 16.29,27.43 4.22,7.27 6.61,15.38 9.93,23.06 17.65,5.33 36.13,7.92 54.58,6.86 5.04,-0.27 10.01,-1.19 14.91,-2.34 4.21,-1.05 8.53,-0.21 12.69,0.71 -4.58,-10.17 -7.93,-20.92 -12.29,-31.12 -3.94,-1.04 -7.93,-1.97 -11.93,-2.64 -8.34,-1.65 -16.59,-3.68 -24.84,-5.67 -20.119,-4.13 -39.609,-10.69 -59.34,-16.29 m 203.9,32.14 -0.4,0.38 c -8.5,1.97 -17.08,3.9 -25.85,4.01 -25.92,1.21 -51.02,-6.37 -76.31,-10.77 4.18,12.82 9.08,25.46 15.11,37.54 3.8,8.41 9.25,15.91 14.44,23.5 18.08,2.22 36.67,4.56 54.71,1.27 5.11,-0.26 10.18,-1.26 15.02,-2.96 4.19,-1.49 8.6,-3.03 11.84,-6.24 6.77,-6.6 10.58,-15.48 13.74,-24.23 3.59,-12.11 6.48,-24.46 7.8,-37.04 -10.49,3.94 -19.669,10.52 -30.1,14.54 z"
         stroke-width="0.5"
         stroke="#000000" />
      <path
         id="imagebot_374"
         d="m 1480.834,533.97 c 23.35,-2.74 46.89,-0.6 70.21,1.41 28.55,3.36 56.97,7.99 84.96,14.61 31.35,6.54 63.03,12.19 93.41,22.56 11.46,4.41 23.48,8.88 32.36,17.7 5.71,5.65 7.58,14.01 7.3,21.8 -0.63,8.78 -2.91,17.4 -6.57,25.41 -7.07,17.44 -18.49,32.53 -29.15,47.88 -10.88,16 -22.15,31.75 -33.99,47.06 -11.06,14.13 -22.56,28 -35.49,40.48 -8.51,7.96 -17.64,15.71 -28.69,19.86 -1.89,-3.69 -4.87,-6.57 -8.34,-8.74 14.8,-6.5 26.47,-18.14 37.51,-29.63 15.66,-16.86 29.65,-35.15 43.39,-53.58 3.17,-4.46 6.96,-8.41 10.38,-12.68 12.5,-16 22.92,-33.64 30.61,-52.44 3.81,-10.94 8.3,-22.57 5.88,-34.32 -1.09,-5.8 -6.53,-9.1 -11.29,-11.72 -16.19,-7.92 -33.81,-12.15 -51.15,-16.73 -37.05,-9.13 -74.71,-15.37 -112.04,-23.18 -13.25,-2.61 -26.69,-3.86 -40.09,-5.31 -21.91,-1.91 -44.21,-3.56 -66,0.4 -7.89,1.69 -12.73,8.75 -18,14.22 -13.36,15.85 -25.24,32.86 -37.32,49.69 -10.92,15.98 -23.02,31.1 -33.92,47.1 -8.52,12.73 -16.7,25.68 -24.9,38.62 -3,-2.18 -6.2,-4.03 -9.18,-6.22 12.38,-19.07 24.85,-38.08 37.36,-57.08 11.02,-16.35 21.07,-33.37 32.84,-49.22 9.3,-12.5 19.37,-24.61 31.53,-34.46 8.26,-6.49 17.65,-12.55 28.38,-13.49 z"
         stroke-width="0.5"
         stroke="#dddcd9"
         fill="#dddcd9" />
      <path
         id="imagebot_375"
         d="m 1478.025,548.15 c 12.19,-2.2 24.64,-1.5 36.97,-1.48 21.68,0.66 43.21,3.62 64.63,6.94 10.27,2.06 20.42,4.66 30.8,6.2 36.55,7.26 73.31,13.94 109.03,24.77 9.08,3.19 18.47,5.99 26.56,11.37 1.94,1.2 3.24,3.12 4.36,5.08 -4.63,8.51 -12.55,14.46 -20.04,20.3 -7.69,5.77 -15.68,11.15 -23.87,16.18 -2.95,1.64 -5.84,4.02 -9.4,3.76 -10.73,-0.23 -21.15,-3.11 -31.68,-4.87 -22.15,-4.86 -44.14,-10.44 -66.44,-14.55 -13.55,-2.67 -27.25,-4.35 -40.83,-6.79 -11.68,-2.18 -23.59,-3.16 -35.11,-6.11 -2.26,-3.2 -3.33,-7.13 -5.56,-10.38 -11.621,-17.95 -25.741,-34.06 -39.42,-50.42 z"
         stroke-width="0.5"
         stroke="#adaaa3"
         fill="#adaaa3" />
      <path
         id="imagebot_376"
         d="m 1459.815,560.87 c 3.87,-4.5 7.94,-9 13.25,-11.84 13.76,15.32 26.91,31.27 38.69,48.19 2.48,4.41 6.21,8.57 6.78,13.74 -10.43,16.85 -22.26,32.8 -33.38,49.19 -12.23,18.14 -25.08,35.96 -35.3,55.34 -6.16,-3.99 -12.55,-7.7 -19.7,-9.58 -11.67,-3.35 -24.55,-2.4 -35.58,2.68 -5.34,2.29 -9.92,5.93 -14.52,9.4 -4.6,-7.71 -10.49,-14.49 -16.77,-20.86 10.31,-17.37 21.49,-34.24 33.04,-50.81 21.68,-28.1 40.56,-58.32 63.49,-85.45 z"
         stroke-width="0.5"
         stroke="#adaaa3"
         fill="#adaaa3" />
      <path
         id="imagebot_377"
         d="m 1426.545,568.53 c -1.16,-1.42 1.12,-4.16 2.7,-3.18 -0.62,1.28 -1.551,2.37 -2.7,3.18 z"
         stroke-width="0.5"
         stroke="#919191"
         fill="#919191" />
      <path
         id="imagebot_378"
         d="m 1713.125,638.09 c 13.57,-8.83 27.3,-17.96 38,-30.28 -0.23,11.92 -4.69,23.15 -9.37,33.93 -7.79,16.7 -17.49,32.56 -29.21,46.79 -6.21,6.9 -11.46,14.57 -17.1,21.91 -14.07,18.39 -28.54,36.64 -45.44,52.54 -5.63,5.07 -11.35,10.24 -18.08,13.81 12.49,-17.03 22.76,-35.54 32.84,-54.05 13.69,-25.7 26.51,-51.86 38.69,-78.29 2.759,-2.66 6.54,-4.11 9.67,-6.36 z"
         stroke-width="0.5"
         stroke="#adaaa3"
         fill="#adaaa3" />
      <path
         id="imagebot_379"
         d="m 1522.145,612.96 c 12.2,2.34 24.43,4.66 36.76,6.23 12.36,1.91 24.64,4.32 37.03,6.1 20.63,3.78 40.96,8.99 61.47,13.35 13.46,3.17 27.08,6.04 40.93,6.69 -8.07,18.82 -17.49,37.04 -26.59,55.39 -9.79,18.94 -19.83,37.79 -31.07,55.92 -5.15,8.07 -10.36,16.14 -16.55,23.46 -1.7,1.92 -4.51,0.83 -6.56,0.27 -9.45,-3.11 -19.32,-4.74 -29.22,-5.53 -6.36,-16.59 -17.2,-32.63 -33.77,-40.31 -17.9,-7.87 -39.45,-3.33 -54.51,8.53 -7.58,5.61 -13.79,12.82 -19.08,20.57 -3.39,-10.92 -7.92,-21.6 -14.76,-30.84 -3.7,-5.46 -8.47,-10.03 -13.08,-14.69 8.48,-16.86 19.59,-32.23 30.04,-47.9 12.88,-19.15 26.62,-37.73 38.96,-57.24 z"
         stroke-width="0.5"
         stroke="#adaaa3"
         fill="#adaaa3" />
      <path
         id="imagebot_380"
         d="m 1373.194,646.32 c 3.11,-5.22 5.73,-10.94 9.99,-15.35 -2.95,5.35 -6.289,10.49 -9.99,15.35 z"
         stroke-width="0.5"
         stroke="#919191"
         fill="#919191" />
      <path
         id="imagebot_381"
         d="m 1299.204,692.24 c 8.8,-4.69 18.71,-8.42 28.85,-7.31 11.56,1.49 22.39,6.93 31.25,14.39 -0.68,0.32 -2.05,0.95 -2.74,1.27 -1.42,5.09 -2.32,10.41 -4.96,15.06 -3.22,5.78 -6.49,11.53 -9.62,17.36 -3.17,5.7 -7.04,11.31 -12.86,14.56 -19.39,-5.33 -41.33,0.54 -55.45,14.84 -2.05,-3.51 -3.13,-7.47 -5.1,-11.01 -1.91,-3.49 -4.07,-6.84 -5.86,-10.38 6.52,-19.5 18.421,-38.19 36.49,-48.78 z"
         stroke-width="0.5"
         stroke="#f7d77f"
         fill="#f7d77f" />
      <path
         id="imagebot_382"
         d="m 1356.565,700.59 c 0.69,-0.32 2.06,-0.95 2.74,-1.27 7.07,6.09 13,13.45 17.65,21.53 -11.02,10.66 -19.76,23.44 -26.98,36.91 -6.36,-4.51 -13.33,-8.09 -20.85,-10.19 5.82,-3.25 9.69,-8.86 12.86,-14.56 3.13,-5.83 6.4,-11.58 9.62,-17.36 2.64,-4.65 3.54,-9.97 4.96,-15.06 z"
         stroke-width="0.5"
         stroke="#dec172"
         fill="#dec172" />
      <path
         id="imagebot_383"
         d="m 1388.005,717.03 c 6.83,-4.68 14.65,-8.4 23.07,-8.61 13.11,-1.59 26.21,2.91 36.68,10.69 v 0.61 c -0.07,7.15 1.06,14.58 -1.7,21.41 -2.63,6.75 -5.91,13.62 -11.45,18.47 -4.85,4.18 -11.69,3.6 -17.64,3.37 -7.46,-0.33 -15.77,-1.73 -22.4,2.59 -5.9,4.29 -11.35,10.05 -12.76,17.45 -2,3.17 -5.32,5.38 -7.7,8.29 -4.73,-11.52 -11.47,-22.46 -20.97,-30.66 8.53,-16.63 19.78,-32.33 34.87,-43.61 z"
         stroke-width="0.5"
         stroke="#f7d77f"
         fill="#f7d77f" />
      <path
         id="imagebot_384"
         d="m 1201.155,717.12 c 0.53,-1.69 1.47,-1.91 2.81,-0.68 -0.861,0.62 -1.79,0.84 -2.81,0.68 z"
         stroke-width="0.5"
         stroke="#453c23"
         fill="#453c23"
         opacity="0.51" />
      <path
         id="imagebot_385"
         d="m 1200.245,721.46 c 7.76,-1.82 15.78,-3.95 23.79,-2.36 13.85,1.93 25.82,11.07 33.51,22.45 -2.18,-1.01 -4.37,-1.98 -6.5,-3.05 -0.99,7.07 -2,14.22 -4.64,20.9 -6.23,16.51 -18.96,30.24 -34.46,38.52 -5.72,3.01 -12.12,4.55 -17.59,8.08 -8.49,-1.64 -16.48,-5.09 -24.79,-7.39 -5.19,-1.73 -10.44,-3.35 -15.42,-5.61 -0.77,-17.75 2.88,-36.53 14.14,-50.7 7.9,-10.35 19.62,-17.18 31.96,-20.84 z"
         stroke-width="0.5"
         stroke="#f7d77f"
         fill="#f7d77f" />
      <path
         id="imagebot_386"
         d="m 1249.604,726.26 c 5.78,-2.51 11.57,-5.14 17.79,-6.36 -2.83,5.65 -5.32,11.46 -7.89,17.23 -2.969,-3.92 -6.619,-7.24 -9.9,-10.87 z"
         stroke-width="0.5"
         stroke="#c7c7c4"
         fill="#c7c7c4" />
      <path
         id="imagebot_387"
         d="m 1447.755,719.72 c 5.84,3.49 10.16,9 14.34,14.26 7.07,9.56 12.31,20.52 15.25,32.04 0.99,2.89 -1.38,5.31 -2.57,7.73 -2.45,4.05 -4.19,8.47 -6.03,12.82 -7.07,-7.39 -15.35,-14 -25.31,-16.97 -17.52,-4.96 -37.1,-2.26 -52.61,7.29 -3.05,1.99 -5.85,4.32 -9.02,6.12 1.41,-7.4 6.86,-13.16 12.76,-17.45 6.63,-4.32 14.94,-2.92 22.4,-2.59 5.95,0.23 12.79,0.81 17.64,-3.37 5.54,-4.85 8.82,-11.72 11.45,-18.47 2.76,-6.83 1.63,-14.26 1.7,-21.41 z"
         stroke-width="0.5"
         stroke="#dec172"
         fill="#dec172" />
      <path
         id="imagebot_388"
         d="m 1499.574,748.61 c 9.52,-8.29 21.78,-13.59 34.46,-14.08 7.71,-0.37 15.25,2.04 22.15,5.31 0.98,0.6 2.26,0.98 2.88,2.08 0.8,8.01 2.29,16.02 1.68,24.11 -0.59,7.65 -0.24,15.54 -2.79,22.89 -2.81,8.61 -8.34,16.05 -14.38,22.66 -5.68,4.49 -13.36,4.73 -20.01,6.98 -11.8,3.77 -24.51,5.59 -34.98,12.62 -2.82,-11.57 -6.38,-23.08 -12.37,-33.44 -1.33,-2.69 -3.72,-4.85 -4.59,-7.72 6.241,-15.52 15.11,-30.43 27.95,-41.41 z"
         stroke-width="0.5"
         stroke="#f7d77f"
         fill="#f7d77f" />
      <path
         id="imagebot_389"
         d="m 1251.045,738.5 c 2.13,1.07 4.32,2.04 6.5,3.05 5.89,7.03 9.54,15.74 12.8,24.27 -13.95,15.56 -21.64,35.77 -25.7,56.03 -9.76,-3.27 -19.67,-6.06 -29.46,-9.22 -6.97,-2.12 -14.09,-3.82 -20.83,-6.63 5.47,-3.53 11.87,-5.07 17.59,-8.08 15.5,-8.28 28.23,-22.01 34.46,-38.52 2.64,-6.68 3.65,-13.83 4.64,-20.9 z"
         stroke-width="0.5"
         stroke="#dec172"
         fill="#dec172" />
      <path
         id="imagebot_390"
         d="m 1559.065,741.92 c 7.49,4.3 12.95,11.3 17.64,18.41 7.75,12.76 13.16,27.44 13.28,42.5 -33.09,13.14 -66.92,24.28 -100.1,37.19 -0.53,-2.94 -0.91,-5.9 -1.3,-8.84 10.47,-7.03 23.18,-8.85 34.98,-12.62 6.65,-2.25 14.33,-2.49 20.01,-6.98 6.04,-6.61 11.57,-14.05 14.38,-22.66 2.55,-7.35 2.2,-15.24 2.79,-22.89 0.609,-8.09 -0.88,-16.1 -1.68,-24.11 z"
         stroke-width="0.5"
         stroke="#dec172"
         fill="#dec172" />
      <path
         id="imagebot_391"
         d="m 1287.065,757.11 c 18.29,-11 43.26,-9.47 60.03,3.78 5.64,4.36 10.89,9.51 14.38,15.79 -4.86,-2.6 -7.71,-7.58 -12.15,-10.72 0.67,6.65 1.91,13.37 0.78,20.05 -1.63,14.09 -8.26,27.71 -19.35,36.75 -6.83,6.05 -15.79,9.19 -24.75,10.25 -5.75,0.65 -11.34,2.19 -17,3.26 -13.81,-3.37 -27.16,-8.32 -40.44,-13.31 2.99,-16.11 8.82,-31.8 17.83,-45.54 5.51,-7.99 12.22,-15.39 20.67,-20.31 z"
         stroke-width="0.5"
         stroke="#f7d77f"
         fill="#f7d77f" />
      <path
         id="imagebot_392"
         d="m 1123.234,779.27 c 9.49,-5.61 19.46,-10.34 29.49,-14.88 -0.55,4.4 -1.5,8.74 -2.16,13.12 -3.48,2.03 -7.56,3.69 -9.8,7.21 -1.09,2.52 -1.24,6.47 1.69,7.82 5.93,3.06 12.2,5.43 18.58,7.38 31.17,10.75 63.18,18.88 94.3,29.79 9.47,3.95 19.41,6.5 29.14,9.7 23.12,6.63 46.29,13.12 69.79,18.27 6.77,1.33 13.61,2.35 20.33,3.97 14.57,3.22 29.48,4.96 44.41,5.04 11.21,-0.25 22.68,-1.18 33.14,-5.55 4.95,-1.83 9.47,-4.59 14.24,-6.84 41.93,-18.75 86.11,-31.77 128.5,-49.35 3.56,-1.55 7.26,-3.18 10.02,-6.02 1.74,-1.85 2.28,-5.18 0.13,-6.94 -3.4,-3.25 -8.42,-3.28 -12.77,-4.13 -0.79,-2.93 -1.63,-5.83 -2.36,-8.76 10.51,1.26 21.23,2.51 31.05,6.76 4.05,1.59 8.54,3.93 10.14,8.27 1.2,4.2 -2.63,7.17 -5.34,9.67 -8.16,6.42 -17.42,11.54 -27.31,14.71 -40.65,15.29 -81.56,30.05 -121.25,47.72 -9.04,3.81 -16.95,10.05 -26.5,12.61 -12.77,4.09 -26.4,4.2 -39.65,3.36 -9.36,-0.51 -18.48,-2.77 -27.67,-4.42 -11.86,-1.82 -23.45,-4.97 -35.26,-6.99 -20.33,-4.55 -40.74,-8.78 -60.86,-14.18 -42.29,-12.54 -84.71,-24.77 -126.25,-39.66 -11.28,-4.13 -22.48,-8.48 -33.4,-13.48 -6.61,-3.51 -14.05,-6.35 -18.72,-12.5 3.231,-5.45 9.131,-8.46 14.35,-11.7 z"
         stroke-width="0.5"
         stroke="#dddcd9"
         fill="#dddcd9" />
      <path
         id="imagebot_393"
         d="m 1349.324,765.96 c 4.44,3.14 7.29,8.12 12.15,10.72 1.21,0.75 1.82,2.11 2.57,3.29 2.64,4.89 5.26,9.8 7.17,15.03 -12.36,16.71 -19.12,36.91 -22.37,57.28 -8.74,-1.72 -17.31,-4.22 -25.96,-6.29 -11.24,-3.44 -22.8,-5.79 -33.88,-9.72 5.66,-1.07 11.25,-2.61 17,-3.26 8.96,-1.06 17.92,-4.2 24.75,-10.25 11.09,-9.04 17.72,-22.66 19.35,-36.75 1.13,-6.68 -0.109,-13.4 -0.78,-20.05 z"
         stroke-width="0.5"
         stroke="#dec172"
         fill="#dec172" />
      <path
         id="imagebot_394"
         d="m 1397.005,778.04 c 16.11,-8.08 36.17,-9.76 52.59,-1.59 4.53,2.53 8.94,5.46 12.41,9.38 -1.29,8.63 0.41,17.55 -2.17,26.01 -2.91,9.94 -9.7,18.04 -15.9,26.1 -4.59,6.15 -10.95,10.69 -17.66,14.27 -4.96,2.61 -10.43,4.1 -15.38,6.73 -1.48,0.57 -2.03,2.09 -2.65,3.4 -9.38,-0.42 -18.6,-2.21 -27.86,-3.56 -9.12,-1.7 -18.09,-4.11 -27.27,-5.43 0.42,-9.3 3.58,-18.17 6.34,-26.97 6.889,-19.46 18.66,-38.63 37.55,-48.34 z"
         stroke-width="0.5"
         stroke="#f7d77f"
         fill="#f7d77f" />
      <path
         id="imagebot_395"
         d="m 1143.895,788.69 c 0.49,-3.25 3.59,-5 6.22,-6.42 0.08,3.15 0.07,6.31 -0.01,9.47 -2.151,-0.86 -4.21,-1.91 -6.21,-3.05 z"
         stroke-width="0.5"
         stroke="#dfdedb"
         fill="#dfdedb" />
      <path
         id="imagebot_396"
         d="m 1462.005,785.83 c 5.88,5.44 10.06,12.41 13.66,19.51 5.31,11.43 8.93,23.7 10.23,36.26 -9.19,3.86 -18.49,7.49 -27.32,12.12 -15.15,8.63 -33.3,9.79 -50.33,8.62 0.62,-1.31 1.17,-2.83 2.65,-3.4 4.95,-2.63 10.42,-4.12 15.38,-6.73 6.71,-3.58 13.07,-8.12 17.66,-14.27 6.2,-8.06 12.99,-16.16 15.9,-26.1 2.58,-8.46 0.879,-17.38 2.17,-26.01 z"
         stroke-width="0.5"
         stroke="#dec172"
         fill="#dec172" />
      <path
         id="imagebot_397"
         d="m 1593.354,792.29 c 2.97,0.38 5.98,0.86 8.81,1.93 -0.11,4.17 -4.95,4.98 -7.99,6.36 -0.259,-2.77 -0.559,-5.53 -0.82,-8.29 z"
         stroke-width="0.5"
         stroke="#dfdedb"
         fill="#dfdedb" />
      <path
         id="imagebot_398"
         d="m 1634.984,798.01 c 0.35,-2.21 2.74,-2.6 4.53,-3.09 -0.129,1.48 -2.999,3.81 -4.53,3.09 z"
         stroke-width="0.5"
         stroke="#adaaa3"
         fill="#adaaa3" />
      <path
         id="imagebot_399"
         d="m 1111.935,799.04 c 1.5,0.53 2.88,1.37 4.06,2.48 -1.45,1.03 -5.19,-0.52 -4.06,-2.48 z"
         stroke-width="0.5"
         stroke="#919191"
         fill="#919191" />
      <path
         id="imagebot_400"
         d="m 1139.694,813.24 c 22.23,8.55 44.75,16.35 67.51,23.39 9.99,3.58 20.38,5.89 30.29,9.69 -3.51,0.03 -7.01,0.02 -10.5,-0.11 2.58,7.43 6.67,14.7 6.11,22.82 -0.36,7.6 -6.05,13.29 -10.18,19.18 -11.46,0.56 -22.83,-1.59 -33.94,-4.17 -4.04,-0.95 -8.25,-1.42 -12.09,-3.01 -5.14,-3.58 -8.17,-9.25 -11.55,-14.35 -6.96,-11.76 -12.83,-24.12 -18.53,-36.53 -2.23,-5.7 -5.33,-11.04 -7.12,-16.91 z"
         stroke-width="0.5"
         stroke="#dddcd9"
         fill="#dddcd9" />
      <path
         id="imagebot_401"
         d="m 1567.435,834.5 c 12.19,-4.7 24.38,-9.44 36.79,-13.55 -2.09,8.37 -5.98,16.1 -9.44,23.96 -6.12,12.64 -12.57,25.12 -19.59,37.29 -3.13,4.79 -5.47,10.29 -9.79,14.17 -5.61,3.03 -12.15,3.46 -18.36,4.24 -5.85,0.61 -11.73,0.95 -17.6,0.77 3.06,-5.16 8.47,-8.14 12.2,-12.71 8.68,-10.5 14.44,-23.05 19.35,-35.66 2.31,-6.11 5.06,-12.1 6.44,-18.51 z"
         stroke-width="0.5"
         stroke="#c6c6c3"
         fill="#c6c6c3" />
      <path
         id="imagebot_402"
         d="m 1547.675,841.85 c 6.68,-2.19 13.02,-5.32 19.76,-7.35 -1.38,6.41 -4.13,12.4 -6.44,18.51 -4.91,12.61 -10.67,25.16 -19.35,35.66 -3.73,4.57 -9.14,7.55 -12.2,12.71 -10.32,0.68 -20.69,0.54 -30.99,1.44 -7.42,0.72 -14.3,4.06 -20.23,8.44 5.9,-14.67 7.96,-30.44 10.91,-45.87 19.28,-8.42 38.939,-15.9 58.54,-23.54 z"
         stroke-width="0.5"
         stroke="#dddcd9"
         fill="#dddcd9" />
      <path
         id="imagebot_403"
         d="m 1226.995,846.21 c 3.49,0.13 6.99,0.14 10.5,0.11 2.72,0.55 6.35,0.58 7.79,3.4 6.67,11.19 14.31,21.88 19.86,33.7 -10.38,-2.17 -21.19,-0.78 -31.15,2.61 -3.58,1.23 -7.33,1.81 -11.07,2.18 4.13,-5.89 9.82,-11.58 10.18,-19.18 0.56,-8.12 -3.531,-15.39 -6.11,-22.82 z"
         stroke-width="0.5"
         stroke="#c6c6c3"
         fill="#c6c6c3" />
      <path
         id="imagebot_404"
         d="m 1250.324,849.94 c 19.73,5.6 39.22,12.16 59.34,16.29 8.25,1.99 16.5,4.02 24.84,5.67 -1.45,0.43 -2.86,0.93 -4.26,1.42 3.62,10.92 5.4,23.01 0.88,33.97 -18.45,1.06 -36.93,-1.53 -54.58,-6.86 -3.32,-7.68 -5.71,-15.79 -9.93,-23.06 -4.859,-9.48 -11.01,-18.21 -16.29,-27.43 z"
         stroke-width="0.5"
         stroke="#dddcd9"
         fill="#dddcd9" />
      <path
         id="imagebot_405"
         d="m 1454.224,882.08 c 10.43,-4.02 19.61,-10.6 30.1,-14.54 -1.32,12.58 -4.21,24.93 -7.8,37.04 -3.16,8.75 -6.97,17.63 -13.74,24.23 -3.24,3.21 -7.65,4.75 -11.84,6.24 -4.84,1.7 -9.91,2.7 -15.02,2.96 4.75,-6.91 11.45,-12.62 14.29,-20.72 4.1,-11.13 3.43,-23.19 3.61,-34.83 z"
         stroke-width="0.5"
         stroke="#c6c6c3"
         fill="#c6c6c3" />
      <path
         id="imagebot_406"
         d="m 1334.505,871.9 c 4,0.67 7.99,1.6 11.93,2.64 4.36,10.2 7.71,20.95 12.29,31.12 -4.16,-0.92 -8.48,-1.76 -12.69,-0.71 -4.9,1.15 -9.87,2.07 -14.91,2.34 4.52,-10.96 2.74,-23.05 -0.88,-33.97 1.4,-0.49 2.81,-0.99 4.26,-1.42 z"
         stroke-width="0.5"
         stroke="#c6c6c3"
         fill="#c6c6c3" />
      <path
         id="imagebot_407"
         d="m 1351.665,875.7 c 25.29,4.4 50.39,11.98 76.31,10.77 8.77,-0.11 17.35,-2.04 25.85,-4.01 -0.18,11.64 0.49,23.7 -3.61,34.83 -2.84,8.1 -9.54,13.81 -14.29,20.72 -18.04,3.29 -36.63,0.95 -54.71,-1.27 -5.19,-7.59 -10.64,-15.09 -14.44,-23.5 -6.03,-12.08 -10.931,-24.72 -15.11,-37.54 z"
         stroke-width="0.5"
         stroke="#dddcd9"
         fill="#dddcd9" />
      <path
         id="imagebot_408"
         d="m 1171.515,882.19 c 0.08,0.06 0.23,0.2 0.3,0.27 -0.07,-0.07 -0.221,-0.21 -0.3,-0.27 z"
         stroke-width="0.5"
         stroke="#5c5c5a"
         fill="#5c5c5a"
         opacity="0.48" />
      <path
         id="imagebot_409"
         d="m 1239.505,888.64 c 2.49,-0.81 5.03,-1.43 7.64,-1.74 -2.181,1.7 -5.041,1.57 -7.64,1.74 z"
         stroke-width="0.5"
         stroke="#353534"
         fill="#353534"
         opacity="0.53" />
      <path
         id="imagebot_410"
         d="m 1347.234,908.54 c 2.16,-0.76 4.61,-1.07 6.75,0.01 -1.919,1.16 -4.859,1.11 -6.75,-0.01 z"
         stroke-width="0.5"
         stroke="#1c1c1c"
         fill="#1c1c1c"
         opacity="0.56" />
      <path
         id="imagebot_411"
         d="m 1360.464,911.61 c 1.33,0.51 2.28,1.68 2.64,3.08 -1.5,0.82 -3.62,-1.73 -2.64,-3.08 z"
         stroke-width="0.5"
         stroke="#494948"
         fill="#494948"
         opacity="0.68" />
    </g>
  </g>
</svg>
