<svg xmlns="http://www.w3.org/2000/svg" width="126.359" height="142.808" viewBox="-9.31 0 19.117 21.605" xmlns:v="https://vecta.io/nano"><style><![CDATA[.B{opacity:.1}.C{fill:#312449}.D{fill:#f0f5f9}.E{font-family:SegoeUI, Segoe UI}.F{stroke-width:1.806}]]></style><g transform="matrix(.186674 0 0 .186674 -32.141162 -39.621404)"><ellipse cx="173.508" cy="279.074" rx="51.203" ry="48.911" fill="#ec3d1e"/><path d="M173.508 327.986c28.279 0 51.2-21.9 51.2-48.912a47.845 47.845 0 0 0-16.873-36.287 47.532 47.532 0 0 1 13.216 32.794c0 27.013-26.65 51.9-54.929 51.9" opacity=".2" style="mix-blend-mode:darken"/><text font-size="7.588" opacity=".5" class="D E"><tspan x="189.893" y="230.629">Z</tspan></text><text font-size="11.163" opacity=".4" class="D E"><tspan x="194.258" y="225.181">Z</tspan></text><text font-size="13.863" opacity=".3" class="D E"><tspan x="199.529" y="221.956">Z</tspan></text><g fill="none" stroke="#1c142a" stroke-linecap="round" stroke-miterlimit="10"><path d="M152.3 284.463a8.934 8.934 0 0 1 3.88-.583c3.035 0 3.881.583 3.881.583" class="F"/><path d="M180.517 304.9s-1.925 1.053-7.009 1.053c-5.48 0-7.008-1.053-7.008-1.053" stroke-width="2.709"/><path d="M186.957 284.463a8.937 8.937 0 0 1 3.881-.583c3.034 0 3.88.583 3.88.583" class="F"/></g><g opacity=".8" class="C"><circle cx="157.958" cy="245.813" r="3.77" style="mix-blend-mode:darken" class="B"/><path d="M155.332 245.813a3.76 3.76 0 0 1 3.2-3.712 3.721 3.721 0 0 0-.572-.058 3.77 3.77 0 1 0 0 7.539 3.849 3.849 0 0 0 .572-.057 3.761 3.761 0 0 1-3.2-3.712z" style="mix-blend-mode:darken" class="B"/></g><g opacity=".8" class="C"><circle cx="214.497" cy="273.126" r="3.643" style="mix-blend-mode:darken" class="B"/><path d="M211.96 273.125a3.633 3.633 0 0 1 3.089-3.587 3.587 3.587 0 0 0-.553-.055 3.643 3.643 0 0 0 0 7.285 3.587 3.587 0 0 0 .553-.056 3.633 3.633 0 0 1-3.089-3.587z" style="mix-blend-mode:darken" class="B"/></g><g opacity=".8" class="C"><circle cx="150.546" cy="303.311" r="3.643" style="mix-blend-mode:darken" class="B"/><path d="M148.009 303.311a3.633 3.633 0 0 1 3.089-3.587 3.587 3.587 0 0 0-.553-.056 3.643 3.643 0 0 0 0 7.285 3.587 3.587 0 0 0 .553-.055 3.633 3.633 0 0 1-3.089-3.587z" style="mix-blend-mode:darken" class="B"/></g><g class="C"><path d="M183.988 247.054l-5.868 5.417-.731 6.546 5.019 7.448 7.449-2.094 2.821 4.464 4.762-4.749c.542-.782 1.783-8.681 1.783-9.019s-1.535-6.772-1.783-6.772-7.7.913-8.035.964-3.611.513-3.611 0a20.721 20.721 0 0 0-.339-2.205z" style="mix-blend-mode:darken" class="B"/><path d="M191.286 249.259l6.268-.767c-.048-.117-.089-.2-.114-.2-.248 0-7.7.913-8.035.964l-1.492.177a14.352 14.352 0 0 0 3.373-.174zm-12.016 9.758l.731-6.546 5.517-5.093-.063-.324h-1.467l-5.868 5.417-.731 6.546 5.019 7.448 1.581-.445zm12.467 5.354l-1.6.449 2.538 4.015 1.175-1.116zm-4.937 45.205l-4.141 1.6-.516 1.934 3.542 2.2 5.255-.618 1.991 1.318 3.36-1.4a9.972 9.972 0 0 0 1.259-2.664 9.283 9.283 0 0 0-1.259-2c-.175 0-5.43.27-5.669.285a13 13 0 0 1-2.548 0 3 3 0 0 0-.239-.651z" style="mix-blend-mode:darken" class="B"/><path d="M191.953 310.227l4.422-.227c-.034-.034-.062-.058-.08-.058-.175 0-5.43.27-5.669.285l-1.053.052c.527.058 2.18-.039 2.38-.052zm-8.479 2.882l.516-1.934 3.893-1.5-.044-.1H186.8l-4.141 1.6-.516 1.934 3.542 2.2 1.115-.131zm8.797 1.581l-1.126.132 1.79 1.186.829-.329zM128.7 268.6l-3.923 5.018-.488 6.063 3.355 6.9 4.978-1.94 1.886 4.136 3.183-4.4a78.945 78.945 0 0 0 1.192-8.355 61.527 61.527 0 0 0-1.192-6.272c-.166 0-5.144.845-5.371.893s-2.413.475-2.413 0-.227-2.043-.227-2.043z" style="mix-blend-mode:darken" class="B"/><path d="M133.576 270.644l4.189-.711c-.033-.109-.06-.182-.076-.182-.166 0-5.144.845-5.371.893l-1 .163a6.991 6.991 0 0 0 2.258-.163zm-8.032 9.038l.489-6.063 3.687-4.718-.042-.3h-.98l-3.923 5.018-.488 6.063 3.355 6.9 1.057-.412zm8.333 4.959l-1.067.416 1.7 3.72.785-1.034z" style="mix-blend-mode:darken" class="B"/></g></g></svg>