<svg width="114.015" height="140" xmlns="http://www.w3.org/2000/svg"><path d="M56.363 114.658c-3.226 0-6.453.538-9.68 1.614 3.789 7.578 2.574 13.48-2.178 17.72 2.207.345 4.117.775 7.583 1.735 1.74.358 3.49.562 5.257.74 4.87.04 8.105-.564 12.531-1.17-6.084-4.298-8.028-10.632-3.834-19.021-3.226-1.076-6.453-1.614-9.68-1.614z" fill="#633d01"/><path d="M56.38 114.25c-2.888 0-5.777.561-8.666 1.685 3.392 7.916 2.304 14.08-1.95 18.51 1.976.36 3.687.81 6.789 1.812 1.558.374 3.124.587 4.706.773 4.36.042 7.256-.589 11.218-1.222-5.444-4.492-7.186-11.11-3.43-19.873-2.889-1.124-5.777-1.685-8.666-1.685z" fill="#8f5902"/><path d="M57.009 0c-.323 0-.646.323-.86.968-.43 2.151.43 29.257-16.35 35.71 0 3.144 4.592 2.83 7.906 1.6-3.561 5.482-8.79 10.214-16.51 12.598 0 5.184 12.906 2.592 16.133 0v.014c-4.417 7.6-11.422 14.438-22.641 17.627 0 4.044 7.423 3.963 13.458 2.568C32.04 78.403 23.583 84.56 11.831 87.88c0 6.24 12.789 5.424 21.526 2.878C25.644 99.062 14.932 106.063 0 109.823c0 7.43 24.802 8.703 38.507 6.561 5.494.719 11.796 1.13 18.5 1.13 6.705 0 13.007-.411 18.501-1.13 13.705 2.142 38.507.87 38.507-6.561-14.932-3.76-25.644-10.758-33.357-19.065 8.738 2.543 21.525 3.36 21.525-2.879-11.735-3.314-20.184-9.461-26.286-16.766 6.012 1.366 13.325 1.42 13.325-2.595-11.135-3.164-18.125-9.92-22.548-17.451.009-.064.014-.122.014-.188 3.227 2.591 16.134 5.183 16.134 0-7.72-2.385-12.95-7.118-16.51-12.599 3.313 1.23 7.905 1.544 7.905-1.6-16.78-6.453-15.92-33.559-16.35-35.71-.214-.645-.537-.968-.86-.968z" fill="#316004"/><path d="M57.009 4.786c-.039.624-.06 1.113-.121 1.856-.245 2.981-.706 6.827-1.694 10.837-1.909 7.74-5.856 16.176-14.117 19.832a.974.974 0 00.201.242c.24.195.703.377 1.345.443 1.283.132 3.165-.213 4.692-.78a1.126 1.126 0 011.331 1.681c-3.511 5.405-8.675 10.129-16.094 12.692.028.04.02.11.054.148.193.226.536.456 1.035.632.999.353 2.597.45 4.316.296 3.439-.307 7.488-1.71 8.672-2.662a1.126 1.126 0 011.829.874 1.126 1.126 0 01-.162.578c-4.394 7.562-11.398 14.424-22.319 17.815.12.227.313.418.605.618.557.38 1.506.691 2.703.834 2.393.285 5.68-.064 8.605-.74a1.126 1.126 0 011.116 1.829c-6.068 7.274-14.468 13.42-25.95 16.86.186.712.648 1.201 1.466 1.668 1.091.621 2.824 1.02 4.867 1.142 4.087.246 9.402-.56 13.66-1.801a1.126 1.126 0 011.13 1.842c-7.67 8.26-18.301 15.221-32.887 19.092.124.308.314.608.618.927.557.587 1.454 1.182 2.636 1.708 2.362 1.052 5.816 1.845 9.707 2.326 7.783.963 17.364.74 24.08-.31a1.126 1.126 0 01.323 0c5.439.712 11.694 1.117 18.352 1.117 6.659 0 12.915-.405 18.353-1.116a1.126 1.126 0 01.323 0c6.716 1.05 16.297 1.272 24.08.309 3.891-.482 7.344-1.274 9.707-2.326 1.182-.526 2.078-1.121 2.635-1.708.304-.32.495-.619.619-.927-14.586-3.87-25.217-10.833-32.887-19.092a1.126 1.126 0 011.13-1.842c4.257 1.24 9.573 2.047 13.66 1.801 2.043-.122 3.776-.52 4.866-1.142.819-.467 1.281-.956 1.466-1.668-11.466-3.435-19.857-9.572-25.922-16.833a1.126 1.126 0 011.116-1.829c2.912.662 6.162.99 8.524.7 1.18-.146 2.115-.457 2.662-.834.287-.199.487-.379.605-.605C77.1 65.907 70.108 59.126 65.706 51.63a1.126 1.126 0 01-.148-.713c.005-.035 0-.03 0-.04a1.126 1.126 0 011.829-.874c1.185.952 5.233 2.355 8.672 2.662 1.72.154 3.317.057 4.316-.296.499-.176.842-.406 1.035-.632.033-.039.026-.107.054-.147-7.419-2.564-12.583-7.288-16.094-12.693a1.126 1.126 0 011.331-1.68c1.527.566 3.409.912 4.692.78.642-.067 1.106-.25 1.345-.444a.974.974 0 00.202-.242c-8.257-3.653-12.206-12.09-14.112-19.83-.99-4.01-1.45-7.856-1.696-10.837-.06-.743-.081-1.232-.12-1.855z" fill="#4e9a06"/><path d="M41.937 133.568a24.406 24.406 0 00-2.366-.162c-6.367-.4-12.929.267-18.85 3.308-.343 2.411 3.561-.449 4.84-.646 6.329-2.768 12.853-2.286 19.737-1.304 3.275.617 4.573 1.423 7.435 1.936 2.717.608 5.468.734 8.216.565 3.523-.174 7.29-.909 10.77-1.447 4.759-.638 13.353-1.012 19.777 2.254 1.195.69 5.002 3.355 4.8.927-5.735-3.378-12.256-4.426-18.635-4.396-1.1-.046-2.198-.001-3.294.094-7.104.72-10.655 1.76-17.021 1.707-1.768-.177-3.517-.38-5.258-.739-4.706-1.303-6.537-1.65-10.15-2.098z" fill="#312c29"/><path d="M49.905 42.829c1.343-2.337 1.644-4.594 1.045-6.506a17.81 17.81 0 01-1.64 3.792c-3.09 5.376-8.718 9.759-14.538 11.83 6.156-.742 12.394-4.349 15.133-9.116zM48.421 58.236c1.779-2.9 2.177-5.7 1.384-8.072a21.392 21.392 0 01-2.173 4.706C43.54 61.538 36.087 66.976 28.38 69.545c8.151-.92 16.412-5.394 20.04-11.309zM38.396 78.741c2.202-2.8 2.859-5.6 2.156-8.05-.657 1.504-1.558 3.043-2.778 4.596-5.064 6.442-13.78 11.403-22.558 13.449 9.15-.35 18.69-4.28 23.18-9.994zM56.273 24.776c.761-2.64.527-4.952-.5-6.708a18.526 18.526 0 01-.712 4.156c-1.75 6.072-6.202 11.762-11.378 15.203 5.812-2.202 11.038-7.266 12.59-12.651z" fill="#316004"/><path d="M54.72 56.54c.815-2.595.346-4.787-1.13-6.375 0 1.258-.191 2.603-.643 4.042-1.876 5.97-7.329 11.82-13.894 15.582 7.489-2.633 14.004-7.953 15.667-13.248zM65.756 58.236c-1.779-2.9-2.177-5.7-1.384-8.072a21.392 21.392 0 002.173 4.706c4.09 6.668 11.545 12.106 19.251 14.675-8.151-.92-16.412-5.394-20.04-11.309z" fill="#316004"/><path d="M58.863 56.54c-.815-2.595-.345-4.787 1.13-6.375 0 1.258.191 2.603.643 4.042 1.876 5.97 7.329 11.82 13.894 15.582-7.489-2.633-14.003-7.953-15.667-13.248zM46.003 77.627c1.437-2.641 1.564-5.037.59-6.934-.325 1.336-.853 2.738-1.65 4.203-3.305 6.075-9.938 11.513-17.072 14.574 7.71-1.73 15.2-6.455 18.132-11.843zM53.369 76.973c1.164-2.553 1.024-4.714-.178-6.282-.182 1.239-.56 2.563-1.205 3.979-2.677 5.874-8.806 11.617-15.711 15.301 7.639-2.57 14.72-7.788 17.094-12.998zM74.464 78.741c-2.202-2.8-2.858-5.6-2.156-8.05.657 1.504 1.558 3.043 2.779 4.596 5.063 6.442 13.779 11.403 22.557 13.449-9.149-.35-18.69-4.28-23.18-9.994z" fill="#316004"/><path d="M66.853 77.627c-1.437-2.641-1.564-5.037-.59-6.934.325 1.336.853 2.738 1.65 4.203 3.305 6.075 9.938 11.513 17.072 14.574-7.71-1.73-15.2-6.455-18.132-11.843zM59.487 76.973c-1.164-2.553-1.024-4.714.178-6.282.182 1.239.56 2.563 1.205 3.979 2.677 5.874 8.806 11.617 15.711 15.301-7.639-2.57-14.72-7.788-17.094-12.998zM63.828 42.829c-1.343-2.337-1.643-4.594-1.045-6.506a17.81 17.81 0 001.641 3.792c3.09 5.376 8.718 9.759 14.537 11.83-6.155-.742-12.393-4.349-15.133-9.116z" fill="#316004"/><path d="M58.334 40.196c-.357-1.668.186-2.993 1.407-3.873a7.128 7.128 0 00.1 2.552c.821 3.835 4.264 7.85 8.708 10.65-5.221-2.166-9.486-5.928-10.215-9.33zM57.835 24.776c-.761-2.64-.527-4.952.5-6.708.071 1.307.29 2.692.712 4.156 1.75 6.072 6.202 11.762 11.378 15.203-5.812-2.202-11.038-7.266-12.59-12.651zM82.677 102.095c-2.948-3.372-4.39-7.1-4.408-10.662a32.905 32.905 0 004.025 5.728c6.782 7.758 16.697 12.615 25.839 13.417-9.016 1.635-19.44-1.602-25.456-8.483z" fill="#316004"/><path d="M75.273 101.768c-2.158-3.328-2.968-6.62-2.564-9.476a30.664 30.664 0 002.814 5.444c4.963 7.657 12.986 13.658 20.816 16.248-8.01-.612-16.664-5.425-21.066-12.216zM65.592 100.206c-1.82-3.296-2.26-6.33-1.503-8.772a27.07 27.07 0 002.24 5.269c4.187 7.582 11.713 14.232 19.45 17.848-8.156-1.907-16.474-7.62-20.187-14.344z" fill="#316004"/><path d="M58.386 98.515c-1.093-2.917-.749-5.314.741-6.984.098 1.39.41 2.89 1.016 4.508 2.513 6.71 8.929 13.497 16.398 18.039-8.392-3.347-15.926-9.61-18.156-15.563zM30.512 102.095c2.948-3.372 4.39-7.1 4.408-10.662a32.905 32.905 0 01-4.025 5.728c-6.782 7.758-16.697 12.615-25.839 13.417 9.016 1.635 19.44-1.602 25.456-8.483z" fill="#316004"/><path d="M37.919 101.768c2.158-3.328 2.968-6.62 2.563-9.476a30.664 30.664 0 01-2.813 5.444c-4.963 7.657-12.986 13.658-20.816 16.248 8.009-.612 16.664-5.425 21.066-12.216zM47.6 100.206c1.82-3.296 2.26-6.33 1.503-8.772a27.07 27.07 0 01-2.241 5.269c-4.186 7.582-11.713 14.232-19.449 17.848 8.156-1.907 16.473-7.62 20.186-14.344z" fill="#316004"/><path d="M54.806 98.7c1.092-3.044.749-5.545-.741-7.287-.098 1.45-.411 3.015-1.017 4.703-2.513 7.003-8.928 14.084-16.397 18.823 8.392-3.493 15.926-10.028 18.155-16.239z" fill="#316004"/><path d="M52.1 121.19c-.313-1.87-1.013-3.034-1.946-3.473.3.765.55 1.65.723 2.687.72 4.298.066 9.8-1.503 14.429 2.185-4.272 3.364-9.831 2.726-13.644zM55.387 121.676c-.295-1.902-.984-3.073-1.915-3.495.293.773.533 1.672.697 2.727.677 4.374-.034 10.018-1.654 14.797 2.235-4.432 3.473-10.15 2.872-14.03z" fill="#633d01"/><path d="M55.529 40.196c.357-1.668-.186-2.993-1.407-3.873.115.78.098 1.628-.1 2.552-.822 3.835-4.264 7.85-8.708 10.65 5.221-2.166 9.486-5.928 10.215-9.33z" fill="#316004"/></svg>