<svg width="499.088" height="529.134" xmlns="http://www.w3.org/2000/svg"><g transform="translate(-205.202 -43.875)"><path d="M328.214 490.201c-17.241 9.485-26.8 43.406-13.127 57.556 6.192 6.409 18.562-9.55 26.254-5.049 6.43 3.764.21 18.294 7.068 21.206 7.899 3.353 14.816-12.82 23.224-11.108 7.478 1.523 7.62 18.429 15.147 17.166 18.308-3.07 28.77-34.545 21.205-51.497-11.503-25.77-55.054-41.876-79.77-28.277zM583.729 490.201c17.24 9.485 26.8 43.406 13.127 57.556-6.193 6.409-18.563-9.55-26.254-5.049-6.43 3.764-.21 18.294-7.068 21.206-7.9 3.353-14.816-12.82-23.225-11.108-7.477 1.523-7.62 18.429-15.146 17.166-18.308-3.07-28.771-34.545-21.205-51.497 11.498-25.762 55.053-41.872 79.771-28.273z" fill="#ffc800"/><path d="M451.403 43.875c-22.647 14.99-16.036 44.285-9.618 61.187-.018 0-.035.017-.053.026-3.62-10.04-11.52-22.911-29.705-29.895-10.25 17.043-4.884 29.176 3.016 37.041-47.83 19.263-89.012 70.687-116.149 127.03-26.882 7.724-76.07 25.733-89.704 56.903-19.053 43.56 36.36 157.227 36.36 157.227s6.19-94.22 19.237-131.028c2.911-8.242 7.128-17.168 11.916-26.085-7.865 26.295-12.197 51.696-12.197 73.458 0 96.85 85.26 175.358 190.404 175.358 105.145 0 190.404-78.508 190.404-175.358 0-21.385-4.182-46.26-11.784-72.064 4.472 8.453 8.409 16.887 11.18 24.69 13.037 36.809 19.21 131.029 19.21 131.029s55.43-113.668 36.387-157.227c-13.573-31.02-62.366-49.012-89.328-56.798-28.811-59.876-73.492-114.211-125.162-130.335 7.006-9.338 11.399-27.247 5.971-40.91-21.578 3.161-27.312 20.738-27.97 36.464l-.718-.052c-2.49-13.28 2.91-40.421-11.697-60.661z" color="#000"/><path d="M455.437 304.41s-82.481 14.85-92.897 45.438c-28.265 82.995 92.897 223.16 92.897 223.16V308.456" fill="#ff0"/><path d="M454.718 304.41s82.48 14.85 92.896 45.438c28.265 82.995-92.896 223.16-92.896 223.16V308.456" fill="#ffc800"/><ellipse transform="rotate(25)" cx="433.485" cy="164.927" rx="25.244" ry="44.429" color="#000" fill="red"/><ellipse transform="scale(-1 1) rotate(25.001)" cx="-393.852" cy="550.735" rx="25.244" ry="44.429" color="#000" fill="red"/><ellipse cx="401.923" cy="228.169" rx="26.254" ry="37.866" color="#000" fill="#fff"/><ellipse cx="405.457" cy="244.013" rx="10.602" ry="15.652" color="#000"/><ellipse cx="510.163" cy="227.714" rx="26.254" ry="37.866" color="#000" fill="#fff"/><ellipse cx="513.697" cy="243.558" rx="10.602" ry="15.652" color="#000"/></g></svg>