<svg width="103.306" height="120" xmlns="http://www.w3.org/2000/svg"><path d="M46.748 3.002h56.558v29.441H46.748z"/><path d="M51.138 0h47.778v29.441H51.138z"/><path d="M46.748 16.173h24.276v29.442H46.748z"/><path d="M46.748 39.674h42.354v5.94H46.748z"/><path fill="#fff" d="M56.658 7.704h5.63v5.629h-5.63z"/><path d="M46.748 16.173h19.11V75.83h-19.11z"/><path d="M46.748 59.188H77.48v5.94H46.748z"/><path d="M72.832 59.302h4.648V70.15h-4.648zM42.245 48.972h19.11v37.705h-19.11z"/><path d="M33.238 54.226h22.469V91.93H33.238z"/><path d="M25.733 59.48h19.11v37.705h-19.11z"/><path d="M26.993 64.733h10.345v37.705H26.993zM42.245 64.733h6.972v37.705h-6.972z"/><path d="M45.344 64.733h3.873V120h-3.873z"/><path d="M45.344 116.126h10.588V120H45.344zM25.83 64.733h3.873v44.936H25.83z"/><path d="M25.83 105.796h10.588v3.874H25.83zM19.488 64.733h10.345v32.958H19.488z"/><path d="M13.443 64.733h8.885v27.844h-8.885z"/><path d="M8.938 59.471h7.385v27.102H8.938z"/><path d="M3.684 54.217h7.386V81.32H3.684z"/><path d="M0 48.963h4.314v27.103H0z"/></svg>