<svg xmlns="http://www.w3.org/2000/svg" width="137.175" height="134.011" viewBox="0 0 175.584 171.534" xmlns:v="https://vecta.io/nano"><path d="M171.808 22.579a3.78 3.78 0 0 1 3.776 3.776 58.9 58.9 0 0 1-8.629 30.699c-9.333 15.242-25.123 25.436-42.693 27.705a26.93 26.93 0 0 1-.372 2.191c-2.641 12.19-13.637 21.033-26.12 21.033-1.507 0-3.033-.137-4.559-.391a3.81 3.81 0 0 1-2.954-2.544c-.45-1.33-.117-2.778.841-3.796 3.385-3.581 5.263-8.257 5.263-13.187 0-.939-.059-1.878-.196-2.798H73.881c-1.037 6.476-4.441 12.346-9.666 16.474a28.4 28.4 0 0 1-3.718 2.446 3.72 3.72 0 0 1-1.859.489c-.724 0-1.428-.196-2.074-.607-1.174-.763-1.624-2.133-1.702-3.522-.254-4.07-1.213-7.846-1.467-8.472-.665.548-1.076.939-1.683 1.546 0 0 0 .02-.02.02-5.968 5.987-8.922 14.166-8.237 22.462 13.07-1.8 26.414 2.211 36.314 11.094 1.057.959 2.035 1.917 2.994 2.954 1.154 1.252 1.311 3.131.411 4.578a3.78 3.78 0 0 1-4.324 1.585c-9.079-2.817-19.077-1.996-27.647 2.211-3.267 8.961-3.013 18.998.763 27.725a3.78 3.78 0 0 1-1.115 4.461c-.685.548-1.526.822-2.348.822-2.152 0-4.441-2.446-5.498-3.385-10.252-9.216-15.711-22.677-14.831-36.393A58.96 58.96 0 0 1 0 81.511c0-32.46 26.414-58.874 58.874-58.874h12.855c-2.622-5.831-6.281-11.231-10.761-15.809-1.467-1.487-1.428-3.894.059-5.341C61.652.88 62.415.528 63.217.43 65.604.137 68.089 0 70.613 0c18.744 0 36.079 8.218 47.917 22.657h53.278z" fill="#633"/><path d="M116.828 30.327l51.047-.176c-.587 7.983-3.033 15.692-7.122 22.54h-21.522c-2.015 0-3.776 1.526-3.913 3.541a3.78 3.78 0 0 0 3.776 4.031h16.103c-8.766 9.939-21.151 16.24-34.514 17.277-2.074 0-3.757 1.683-3.776 3.776a18.44 18.44 0 0 1-.45 4.031c-1.663 7.631-7.885 13.442-15.418 14.772 1.878-3.698 2.857-7.807 2.857-12.053 0-2.622-.372-5.205-1.115-7.67a3.78 3.78 0 0 0-3.62-2.7l-28.899.039c-1.976.078-3.581 1.683-3.62 3.698-.098 4.52-2.544 9.802-5.459 13.09-1.076-5.263-2.935-10.096-3.15-10.409-1.194-1.722-3.541-2.152-5.263-.959a35.91 35.91 0 0 0-6.418 5.107 35.97 35.97 0 0 0-9.763 33.047c.391 1.78 1.957 2.994 3.698 2.994.274 0 1.096-.157 1.252-.215 8.452-1.859 17.198-.743 24.77 3.013-6.907.235-13.755 2.035-19.898 5.341-1.135.607-1.624 1.663-1.741 1.937-2.622 6.476-3.698 13.481-3.189 20.348a37.72 37.72 0 0 1-5.635-24.438c.02-.157.02-.313.02-.47.059-1.389-.646-2.759-1.937-3.483-16.279-9.059-26.394-26.257-26.394-44.884 0-28.292 23.009-51.321 51.321-51.321 0 0 18.666.274 19.585-.196 1.878-.939 3.052-2.798 2.387-4.774-2.113-6.32-5.283-12.307-9.313-17.648 16.709.274 32.088 8.022 42.301 21.327.763.978 1.878 1.487 3.013 1.487z" fill="#4ec8d8"/><path d="M147.8 37.293c1.957 0 3.561 1.585 3.561 3.561a3.55 3.55 0 0 1-3.561 3.561c-1.957 0-3.561-1.585-3.561-3.561s1.604-3.561 3.561-3.561zm-28.136 2.641c1.781 1.096 2.348 3.424 1.252 5.205-1.82 2.954-1.82 6.77 0 9.724 1.096 1.78.528 4.109-1.252 5.205-.626.372-1.311.567-1.976.567-1.272 0-2.524-.646-3.228-1.8-3.326-5.439-3.326-12.19 0-17.629 1.096-1.8 3.424-2.367 5.205-1.272zm-14.4 0c1.781 1.096 2.348 3.424 1.252 5.205-1.82 2.954-1.82 6.77 0 9.724 1.096 1.78.528 4.109-1.252 5.205-.626.372-1.291.567-1.976.567-1.272 0-2.524-.646-3.228-1.8-3.326-5.439-3.326-12.19 0-17.629 1.096-1.8 3.424-2.367 5.205-1.272zm-53.278 3.581a3.78 3.78 0 0 1-2.602 4.676C37.508 51.576 28.37 61.143 25.279 73.078c-.88 3.385-4.285 2.837-4.578 2.759a3.79 3.79 0 0 1-2.759-4.598c3.639-14.577 14.909-26.199 29.368-30.327 1.996-.567 4.089.587 4.676 2.602z" fill="#633"/></svg>