<svg xmlns="http://www.w3.org/2000/svg" width="138.383" height="142.966" viewBox="0 0 11.071 11.437" xmlns:v="https://vecta.io/nano"><path d="M2.833 3.771a2.012 2.012 0 0 1 .754-1.382 4.494 4.494 0 0 1 1.444-.809c.07-.023.226-.053.226-.053s-.04-.366.045-.421a1.082 1.082 0 0 1 .326-.077L5.614.788s-.287-.07-.326-.319.157-.566.622-.441a.443.443 0 0 1 .311.652.485.485 0 0 1-.219.107l-.015.256s.272 0 .279.04 0 .458 0 .458.916.062 1.509.69a3.394 3.394 0 0 1 .754 1.399v.109s1.337.147 2.042.754a1.307 1.307 0 0 1 .351 1.631 3.176 3.176 0 0 1-1.352 1.32 5.927 5.927 0 0 1-1.203.52l.828 2.353c-.04.179-.543.683-1.546.894s-2.159.396-3.583-.055-1.429-.839-1.397-1.003.645-2.135.645-2.135-1.32-.256-2.176-.971S-.05 5.698.006 5.353s.473-.801 1.103-1.12 1.724-.462 1.724-.462z" fill="#1d1d1b"/><path d="M5.646.209a.315.315 0 0 1 .407.287c0 .245-.443.204-.507.092a.281.281 0 0 1 .1-.379z" fill="#cbe7f5"/><path d="M5.518 1.235c.058 0 .541-.028.553.03a.651.651 0 0 1 0 .232c-.017.011-.594.011-.594.011s-.011-.279.041-.273z" fill="#f2910d"/><path d="M3.24 3.92c-.021-.021-.036-.566.477-1.131s1.118-.932 1.899-.979a2.68 2.68 0 0 1 1.997.805 2.546 2.546 0 0 1 .537 1.218c.017.14.036.164 0 .189s-.449.198-.449.198l-.85-.553c-.025.013-.117.121-.092.134s.815.466.775.488a1.262 1.262 0 0 1-.304.081c-.023 0-.566-.377-.611-.377s-.147.07-.117.098.566.292.494.345-1.35.157-2.329-.036-1.307-.345-1.427-.481z" fill="#e7413e"/><g fill="#1d1d1b"><path d="M3.842 3.73a1.218 1.218 0 0 1 .243-.822c.292-.432.566-.577.607-.566s.092.172.092.172a1.165 1.165 0 0 0-.566.53c-.189.39-.158.728-.209.754s-.141-.023-.168-.068zm3.232-.334c.045-.045.915.485.896.543s-.064.092-.092.087a12.68 12.68 0 0 1-.867-.477.285.285 0 0 1 .064-.153z"/><path d="M7.136 3.17c-.011-.017.025-.111.072-.1a5.267 5.267 0 0 1 .783.485c0 .053 0 .104-.041.104a7.773 7.773 0 0 1-.813-.488z"/><path d="M7.289 2.732c.025 0 .396.153.402.209s.023.1 0 .1a2.418 2.418 0 0 1-.413-.189c-.019-.021-.041-.121.011-.121z"/></g><path d="M3.251 4.318a6.023 6.023 0 0 0 1.782.483 6.866 6.866 0 0 0 2.431-.117 4.797 4.797 0 0 0 .745-.251c.017.013.041.677-.064.822s-.892.477-2.263.466-2.263-.377-2.387-.46a.468.468 0 0 1-.198-.204c-.011-.053-.087-.722-.045-.739z" fill="#fab900"/><path d="M3.915 4.801a.339.339 0 0 1 .492.251c.064.296-.407.366-.575.256a.29.29 0 0 1 .083-.507z" fill="#1d1d1b"/><path d="M4.049 4.952c.081 0 .239.123.151.217a.204.204 0 0 1-.29-.019.145.145 0 0 1 .14-.198z" fill="#cbe7f5"/><path d="M5.675 4.993c.126-.051.49.041.513.321s-.377.377-.624.251-.179-.454.111-.571z" fill="#1d1d1b"/><path d="M5.767 5.153c.075-.017.211.07.206.164s-.134.162-.275.111-.098-.238.07-.275z" fill="#cbe7f5"/><path d="M7.247 4.823c.126-.074.549-.134.652.077s.047.436-.238.46-.409-.053-.473-.153a.262.262 0 0 1 .058-.385z" fill="#1d1d1b"/><path d="M7.381 4.929c.081-.066.377-.011.377.087s-.047.223-.29.158-.145-.198-.087-.245z" fill="#cbe7f5"/><path d="M8.647 4.177a2.534 2.534 0 0 1 1.252.292c.658.326.85.605.85.833a1.092 1.092 0 0 1-.273.605 5.625 5.625 0 0 1-.541.377.822.822 0 0 1-.251.092L8.839 6c-.04-.009-.14.094-.094.134s.775.304.735.345-.73.251-1.886.349-2.71.17-4.243-.106S.809 5.919.67 5.785s-.437-.321.041-.786 1.28-.754 1.548-.85a3.179 3.179 0 0 1 .549-.126s0 .803.128 1.026.339.492.99.69a7.456 7.456 0 0 0 2.22.304 6.532 6.532 0 0 0 1.824-.322 1.167 1.167 0 0 0 .613-.541 1.203 1.203 0 0 0 .081-.53 2.863 2.863 0 0 1-.017-.471z" fill="#e7413e"/><path d="M8.954 5.587A9.46 9.46 0 0 1 9.98 6c0 .025-.028.083-.081.072s-1.043-.353-1.048-.368.083-.111.104-.117zm.168-.209s.1-.123.128-.123 1.113.477 1.09.519-.017.064-.058.064a17.67 17.67 0 0 1-1.16-.46zm.113-.566c.417.16.824.345 1.218.554 0 .017 0 .064-.025.07s-1.229-.421-1.258-.454.04-.158.064-.17zm.215-.224c-.026-.017.017-.123.064-.111a3.75 3.75 0 0 1 .605.239c0 .034 0 .092-.028.087a18.28 18.28 0 0 1-.641-.215zM1.27 5.604a.36.36 0 0 1 0-.454 1.7 1.7 0 0 1 .735-.541c.045.017.098.087.057.106s-.524.273-.611.477.064.29.064.338-.198.111-.245.075z" fill="#1d1d1b"/><path d="M.77 6.206c.04-.045.488.313 1.32.536s1.522.424 3.323.487 2.546-.104 3.262-.243 1.369-.415 1.405-.377-.321.332-.864.583a7.498 7.498 0 0 1-3.206.754 9.736 9.736 0 0 1-3.771-.617C1.351 6.973.698 6.285.77 6.206z" fill="#a42116"/><g fill="#cbe7f5"><path d="M3.759 8.08a1.352 1.352 0 0 1 .53.094c-.013.034-.351 1.544-.315 1.561s.081.058.098.034.351-1.561.396-1.561.321.058.641.089l.683.058.023 1.478c-.03.569-.017.73 0 .735a4.354 4.354 0 0 0 .164-1.201V8.361c.036-.017.162.011.43-.036l.473-.064.355 1.037c.1.283.215.758.215.758h.064a8.595 8.595 0 0 0-.238-1.043l-.234-.769a4.875 4.875 0 0 0 .536-.087l.426-.094.781 2.191c.006.075-.39.368-.796.513a5.691 5.691 0 0 1-.788.204l-.198-1.065c-.106-.454-.134-.566-.173-.577a.132.132 0 0 0-.094.023l.228 1.096a3.426 3.426 0 0 1 .07.566 9.08 9.08 0 0 1-1.282.109 4.631 4.631 0 0 1-1.026-.081c.013-.023.281-1.712.256-1.731s-.151-.04-.157-.011-.471 1.625-.496 1.631a6.368 6.368 0 0 1-.82-.285c-.298-.128-.449-.209-.46-.273s.626-2.255.709-2.291z"/><path d="M4.434 10.948c-.092-.019.315-1.043.349-1.043s.025.028.025.057a9.308 9.308 0 0 1-.223 1.05c-.034 0-.123-.058-.151-.064z"/></g></svg>