<svg width="140" height="36.232" xmlns="http://www.w3.org/2000/svg"><defs><linearGradient id="prefix__a" y2="126.28" gradientUnits="userSpaceOnUse" x2="235.58" y1="126.28" x1="5.63"><stop offset="0"/><stop offset="1" stop-color="#58595b"/></linearGradient><linearGradient id="prefix__b" y2="126.28" gradientUnits="userSpaceOnUse" x2="234.87" y1="126.28" x1="6.338"><stop offset="0" stop-color="#6d6e70"/><stop offset="1" stop-color="#bbbdbf"/></linearGradient><linearGradient id="prefix__c" y2="125.26" gradientUnits="userSpaceOnUse" x2="234.05" y1="125.26" x1="6.363"><stop offset="0" stop-color="#a2a4a5"/><stop offset="1" stop-color="#d0d2d3"/></linearGradient><linearGradient id="prefix__d" y2="98.229" gradientUnits="userSpaceOnUse" x2="119.78" y1="152.37" x1="119.78"><stop offset="0"/><stop offset=".143" stop-color="#020202"/><stop offset=".219" stop-color="#0a0a0a"/><stop offset=".279" stop-color="#171718"/><stop offset=".331" stop-color="#2a2a2b"/><stop offset=".378" stop-color="#424344"/><stop offset=".42" stop-color="#5f6062"/><stop offset=".436" stop-color="#6d6e70"/><stop offset="1" stop-color="#fff"/></linearGradient><linearGradient id="prefix__f" y2="148.95" gradientUnits="userSpaceOnUse" x2="120.61" y1="103.26" x1="120.61"><stop offset="0"/><stop offset=".461" stop-color="#6d6e70"/><stop offset="1" stop-color="#fff"/></linearGradient><linearGradient id="prefix__g" y2="187.33" gradientUnits="userSpaceOnUse" x2="60.751" y1="63.687" x1="181.98"><stop offset="0"/><stop offset=".122" stop-color="#030303"/><stop offset=".195" stop-color="#0b0b0b"/><stop offset=".255" stop-color="#191919"/><stop offset=".309" stop-color="#2d2d2e"/><stop offset=".357" stop-color="#474848"/><stop offset=".403" stop-color="#676868"/><stop offset=".446" stop-color="#8d8e8f"/><stop offset=".485" stop-color="#b8b9ba"/><stop offset=".521" stop-color="#e6e7e8"/><stop offset=".546" stop-color="#c7c8c9"/><stop offset=".588" stop-color="#99999a"/><stop offset=".633" stop-color="#707071"/><stop offset=".68" stop-color="#4d4d4e"/><stop offset=".729" stop-color="#313131"/><stop offset=".781" stop-color="#1b1b1b"/><stop offset=".839" stop-color="#0c0c0c"/><stop offset=".905" stop-color="#030303"/><stop offset="1"/></linearGradient><linearGradient id="prefix__h" y2="105.75" gradientUnits="userSpaceOnUse" x2="120.61" y1="148.1" x1="120.61"><stop offset="0" stop-color="#ff9c00"/><stop offset=".21" stop-color="#ff9000"/><stop offset=".591" stop-color="#ff7000"/><stop offset="1" stop-color="#ff4700"/></linearGradient><linearGradient id="prefix__i" y2="128.26" gradientUnits="userSpaceOnUse" x2="120.6" y1="105.42" x1="120.6"><stop offset="0" stop-color="#ffaa87"/><stop offset="1" stop-color="#ff9530"/></linearGradient><radialGradient id="prefix__e" gradientUnits="userSpaceOnUse" cy="97.841" cx="126.36" r="128.22"><stop offset=".145" stop-color="#fff"/><stop offset=".57" stop-color="#d4d4d4"/><stop offset="1" stop-color="#f3f3f3"/></radialGradient></defs><path d="M235.58 143.58c0 6.878-5.576 12.454-12.452 12.454H18.088c-6.88 0-12.456-5.576-12.456-12.454v-34.601c0-6.878 5.576-12.456 12.456-12.456h205.04c6.876 0 12.452 5.578 12.452 12.456z" fill="url(#prefix__a)" transform="matrix(.60883 0 0 .60883 -3.429 -58.766)"/><path d="M234.87 143.17c0 6.714-5.446 12.16-12.16 12.16H18.5c-6.714 0-12.161-5.446-12.161-12.16v-33.775c0-6.716 5.447-12.158 12.161-12.158h204.21c6.714 0 12.16 5.442 12.16 12.158z" fill="url(#prefix__b)" transform="matrix(.60883 0 0 .60883 -3.429 -58.766)"/><path d="M234.05 140.6c0 7.006-5.362 12.683-11.982 12.683H18.338c-6.612 0-11.978-5.677-11.978-12.683v-30.672c0-7.01 5.366-12.689 11.978-12.689h203.72c6.62 0 11.982 5.679 11.982 12.689V140.6z" fill="url(#prefix__c)" transform="matrix(.60883 0 0 .60883 -3.429 -58.766)"/><path d="M6.363 134.67v4.155c0 6.722 4.527 13.029 11.804 13.029h203.22c5.981 0 11.805-6.307 11.805-13.029v-6.754c-15.86 6.62-214.28 6.19-226.84 2.6z" fill="url(#prefix__d)" transform="matrix(.60883 0 0 .60883 -3.429 -58.766)"/><path d="M233.19 132.07v-22.665c0-6.72-5.285-12.17-11.805-12.17H18.175c-6.52 0-11.804 5.451-11.804 12.17v25.265c12.557 3.593 210.97 4.018 226.83-2.6z" fill="url(#prefix__e)" transform="matrix(.60883 0 0 .60883 -3.429 -58.766)"/><path d="M228.67 139.57c0 5.278-4.284 9.561-9.569 9.561H22.111a9.559 9.559 0 01-9.564-9.561V113a9.56 9.56 0 019.564-9.567h197c5.285 0 9.569 4.282 9.569 9.567v26.566z" fill="url(#prefix__f)" transform="matrix(.60883 0 0 .60883 -3.429 -58.766)"/><path d="M228.01 139.18c0 5.125-4.155 9.281-9.285 9.281H22.495c-5.123 0-9.281-4.157-9.281-9.281v-25.795c0-5.127 4.159-9.284 9.281-9.284h196.23a9.283 9.283 0 019.285 9.284z" fill="url(#prefix__g)" transform="matrix(.60883 0 0 .60883 -3.429 -58.766)"/><path d="M227.31 138.77c0 4.967-4.034 8.992-8.998 8.992H22.902c-4.964 0-8.994-4.025-8.994-8.992v-24.98c0-4.963 4.029-8.99 8.994-8.99h195.42c4.964 0 8.998 4.027 8.998 8.99v24.981z" fill="url(#prefix__h)" transform="matrix(.60883 0 0 .60883 -3.429 -58.766)"/><path d="M226.64 119.55c0 4.813-3.899 8.718-8.714 8.718H23.286c-4.811 0-8.719-3.906-8.719-8.718v-5.372c0-4.811 3.908-8.712 8.719-8.712h194.64a8.712 8.712 0 018.714 8.712z" fill="url(#prefix__i)" transform="matrix(.60883 0 0 .60883 -3.429 -58.766)"/></svg>