<svg version="1.1" xmlns="http://www.w3.org/2000/svg" xmlns:xlink="http://www.w3.org/1999/xlink" width="61.62231" height="65.57387" viewBox="0,0,61.62231,65.57387"><g transform="translate(-209.79304,-144.40453)"><g data-paper-data="{&quot;isPaintingLayer&quot;:true}" fill-rule="nonzero" stroke="none" stroke-width="1" stroke-linecap="butt" stroke-linejoin="miter" stroke-miterlimit="10" stroke-dasharray="" stroke-dashoffset="0" style="mix-blend-mode: normal"><path d="M240.4816,144.40453c1.67179,0.30482 3.42356,1.21635 4.00873,2.9127c0.27942,0.86553 0.20233,1.86569 -0.27372,2.64938c0.39234,0.16746 0.79215,0.31896 1.20234,0.43938c0.78745,-1.34156 2.3662,-2.05856 3.87523,-2.17145c0.08843,-0.00212 0.17663,-0.00309 0.26475,-0.00353c0.26434,-0.00132 0.52781,0.00285 0.79453,0.00073c1.71319,0.12042 3.47342,1.09509 4.1094,2.75465c0.05927,0.18346 0.10819,0.37076 0.13642,0.5608c0.05645,0.31608 0.05645,0.63127 0,0.94738c-0.04892,0.36127 -0.1806,0.69995 -0.31796,1.03488c4.15644,1.18634 8.13882,3.13934 11.35729,6.05957c2.97856,2.73499 5.53658,6.34755 5.77649,10.50963v0.26254c-0.07715,2.65116 -1.56539,5.16506 -3.85341,6.50476c-0.68114,4.03423 -1.25606,8.09084 -1.829,12.14191c-0.88247,5.74826 -1.77801,11.50217 -2.51748,17.26549c-0.58612,0.90692 -1.72551,1.22294 -2.69642,1.5795c-1.27102,0.38573 -2.58051,0.62474 -3.87693,0.90698c-0.89846,0.1684 -1.80351,0.30485 -2.71137,0.40645c-1.27572,0.13924 -2.54768,0.31799 -3.83092,0.36691c-0.77992,0.16652 -1.5843,0.14671 -2.37551,0.19375c-1.44412,0.07338 -2.88909,0.15902 -4.33603,0.16185c-0.0461,0.00188 -0.13839,0.00473 -0.18449,0.00661l-0.04513,0.08276h-4.21862l0.03117,-0.08938c-0.72724,-0.01505 -1.45456,-0.00468 -2.18086,-0.0075c-0.96902,0.01035 -1.93889,-0.01414 -2.90602,-0.06777c-1.25784,-0.11854 -2.52227,-0.16182 -3.7773,-0.31046c-1.00665,-0.01882 -2.00493,-0.15144 -3.005,-0.26151c-1.35192,-0.22015 -2.71043,-0.39893 -4.05953,-0.63695c-0.95303,-0.16088 -1.90982,-0.35474 -2.81486,-0.70001c-1.07345,-0.37632 -2.40364,-0.64529 -3.04432,-1.67829c-0.0969,-1.42248 -0.39049,-2.82521 -0.52596,-4.24487c-1.27007,-8.36556 -2.49584,-16.73864 -3.76873,-25.10326c-1.3237,-0.95209 -2.88542,-2.02365 -3.09522,-3.77918v-0.08749c0.11948,-1.52315 1.05849,-2.77629 1.96542,-3.94476c-0.09456,-0.27871 -0.03621,-0.42843 0.15566,-0.43659c0.06396,-0.00272 0.14274,0.01038 0.23564,0.03954c5.51306,-5.37194 12.72615,-8.90557 17.40849,-15.1327c1.83832,-2.24944 2.31342,-5.84705 0.43277,-8.08802c1.6605,0.45158 3.31997,0.93797 4.91274,1.59935c0.67079,-1.50998 2.27673,-2.35293 3.83845,-2.64364zM249.29424,148.23458c0.2205,-0.01117 0.44067,-0.02709 0.66135,-0.02646c0.13242,0.00038 0.26492,0.00673 0.39793,0.02367c-0.35558,0.00282 -0.7055,-0.00567 -1.05924,0.00279z" fill="#ed92b1"/><path d="M238.74222,144.4047h1.73963c1.67179,0.30482 3.42356,1.21635 4.00873,2.91261c-0.59364,3.54116 -4.71612,5.03984 -7.88283,4.1395c-1.58525,-0.76204 -2.41982,-2.77243 -1.70388,-4.40848c0.67079,-1.50998 2.27673,-2.35293 3.83845,-2.64364zM238.70252,145.21241c-0.21346,0.00524 -0.42326,0.03252 -0.62342,0.0832c-1.33595,0.12607 -2.70281,1.50433 -2.16562,2.88824c0.94738,2.3727 5.14512,2.23148 5.75852,-0.3303c0.19841,-1.63567 -1.47536,-2.67775 -2.96953,-2.6411zM249.55818,148.23097c0.26434,-0.00132 0.52781,0.00285 0.79453,0.00073c1.71319,0.12042 3.47342,1.09509 4.1094,2.75465c-0.46758,3.44147 -4.50255,4.87342 -7.53192,4.0775c-1.12046,-0.59458 -1.94368,-1.74047 -1.96344,-3.03595c0.04328,-0.56448 0.18628,-1.12039 0.45158,-1.62184c0.78745,-1.34156 2.3662,-2.05856 3.87523,-2.17145c0.08843,-0.00212 0.17663,-0.00309 0.26475,-0.00353zM248.96155,148.9828c-0.21415,0.00079 -0.42516,0.02511 -0.62636,0.07497c-1.44223,0.12419 -2.80348,1.70011 -2.00756,3.1226c1.16282,1.87124 4.62025,1.74047 5.37759,-0.4131c0.41207,-1.64056 -1.24467,-2.78993 -2.74336,-2.78447zM239.88761,152.85717c1.87087,0.0239 3.93958,0.94399 4.56051,2.81825c-0.50709,3.43293 -4.54959,4.84877 -7.56955,3.98982c-0.69434,-0.34151 -1.17044,-0.98116 -1.58439,-1.61525c-0.26342,-0.57671 -0.30952,-1.21278 -0.30105,-1.84029c0.21074,-1.13742 1.03393,-2.05093 1.99637,-2.64364c0.78556,-0.40078 1.63708,-0.68296 2.52707,-0.70178c0.12248,-0.00635 0.2463,-0.0088 0.37103,-0.0072zM239.0734,153.61511c-0.21127,-0.00575 -0.41918,0.01202 -0.61711,0.05542c-1.35381,0.13077 -2.76603,1.36509 -2.24013,2.83462c0.91916,2.18739 4.6306,2.16095 5.49143,-0.05557c0.48649,-1.60274 -1.15539,-2.79417 -2.63423,-2.83443z" fill="#ff0000"/><path d="M238.70313,145.2125c1.49398,-0.03669 3.16766,1.00543 2.96915,2.6411c-0.6134,2.56178 -4.81114,2.70299 -5.75852,0.3303c-0.53719,-1.38391 0.82969,-2.76218 2.16562,-2.88824c0.20015,-0.05069 0.40996,-0.07797 0.62342,-0.0832zM249.95562,148.20814c0.13241,0.00038 0.26492,0.00673 0.39793,0.02367c-0.35558,0.00282 -0.7055,-0.00567 -1.05924,0.00279c0.2205,-0.01117 0.44067,-0.02709 0.66135,-0.02646zM248.96219,148.98282c1.49906,-0.00555 3.15597,1.14382 2.74355,2.78447c-0.75734,2.15344 -4.21467,2.28431 -5.3775,0.41307c-0.79591,-1.42248 0.56532,-2.99841 2.00756,-3.1226c0.20121,-0.04986 0.41221,-0.07418 0.62636,-0.07497zM254.59961,152.49459c0.00847,-0.31514 -0.00094,-0.63221 0,-0.94738c0.05645,0.31608 0.05645,0.63127 0,0.94738zM239.07362,153.61531c1.47884,0.04027 3.12073,1.23169 2.63423,2.83443c-0.86083,2.21648 -4.57227,2.24292 -5.49143,0.05557c-0.5259,-1.46952 0.88632,-2.70385 2.24013,-2.83462c0.19792,-0.04339 0.40584,-0.06117 0.61711,-0.05542z" fill="#ff8080"/><path d="M229.99124,145.44912c1.6605,0.45158 3.32007,0.93797 4.91284,1.59935c-0.71595,1.63604 0.11854,3.64643 1.70378,4.40848l-0.00282,0.07717c0.02728,0.66326 -0.26915,1.58618 0.3847,2.03212c-0.96243,0.5927 -1.78563,1.50621 -1.99637,2.64364c-0.49392,-1.37638 -0.8947,-2.87874 -1.8656,-4.00864c-3.98051,8.56595 -13.66318,11.86438 -19.64946,18.6494c-0.83637,0.9963 -0.72347,2.56273 0.13453,3.51387c1.82326,2.15254 4.92789,2.57025 7.57529,2.23063c8.6366,-1.0584 14.97935,-10.0938 14.10629,-18.54497c0.41395,0.6341 0.89009,1.27374 1.58439,1.61525c0.43273,0.23708 0.87579,0.4611 1.34618,0.61445c-0.47698,5.89888 -3.57775,11.45231 -8.27138,15.0358c0.19569,1.55231 2.02836,2.29178 3.41038,2.53074c5.62408,1.23818 10.92264,-3.44792 12.02619,-8.75589c0.70936,-3.48555 0.35938,-7.38525 -1.42531,-10.49081c0.64821,-0.81097 0.82593,-1.94463 0.48348,-2.92399c-0.66232,-1.99922 -2.97188,-2.9127 -4.93156,-2.8111c0.46946,-0.01411 -0.00661,-0.46943 -0.20888,-0.57198c1.05087,0.06303 2.09797,-0.16464 3.04065,-0.62563c0.32554,0.47415 0.70372,0.90777 1.10355,1.32078c5.22048,5.64383 6.69753,14.8467 2.42255,21.44638c0.31046,1.73106 1.72072,3.21555 3.50635,3.39994c3.53175,0.49015 7.54415,-1.29068 9.05224,-4.63709c1.3322,-2.54485 1.30679,-5.64581 0.29356,-8.29697c-1.35945,-3.75189 -4.12153,-6.81804 -7.17724,-9.29892c1.11484,-0.36597 2.10635,-1.06959 2.73198,-2.07154c4.15644,1.18625 8.13882,3.13934 11.35729,6.05957c2.97856,2.73489 5.53658,6.34755 5.77649,10.50963v0.26254c-0.07715,2.65116 -1.56548,5.16497 -3.8535,6.50466c-0.13171,0.09126 -0.26351,0.18243 -0.39146,0.27651c-0.54566,0.28977 -1.11193,0.53625 -1.66417,0.80908c-1.0885,0.36127 -2.18359,0.76307 -3.33983,0.81952c-1.06874,0.14018 -2.13758,-0.20515 -3.07273,-0.70001c-1.30206,-1.79504 -2.78476,0.15053 -4.33519,0.59741c-1.40931,0.41301 -2.84506,0.73756 -4.3127,0.8401c-1.73577,0.2813 -3.5213,-0.3114 -4.80925,-1.49116c-0.44127,-0.55131 -0.8167,-1.14768 -1.21748,-1.72721c-1.08286,1.0885 -2.37071,1.92016 -3.69347,2.68315c-1.61817,0.63035 -3.32393,1.03384 -5.0644,1.0837c-1.55984,0.07432 -3.09898,-0.20219 -4.61743,-0.52112c-1.47517,-0.40642 -2.97847,-1.11296 -3.68218,-2.56367c-0.47322,0.1129 -0.88717,0.39131 -1.30771,0.62651c-1.22209,0.47601 -2.46874,0.88435 -3.7614,1.12143c-1.24279,0.12324 -2.50148,0.30202 -3.74804,0.11481c-1.03017,-0.05739 -1.99072,-0.45726 -2.99926,-0.62284c-0.76769,-0.42433 -1.58157,-0.75358 -2.36055,-1.1553c-0.09972,-0.05927 -0.19851,-0.11854 -0.29635,-0.17875c-1.3237,-0.95209 -2.88542,-2.02365 -3.09522,-3.77918v-0.08749c0.11948,-1.52315 1.05849,-2.77629 1.96542,-3.94476c0.13171,-0.13077 0.26054,-0.26439 0.39131,-0.39704c5.51306,-5.37194 12.72615,-8.90557 17.40849,-15.1327c1.83832,-2.24944 2.31342,-5.84705 0.43277,-8.08802zM244.2168,149.96666c0.39234,0.16746 0.79215,0.31896 1.20234,0.43938c-0.2653,0.50144 -0.40831,1.05736 -0.45158,1.62184c-0.67455,-0.24931 -1.34901,-0.50983 -2.0546,-0.65753c0.4967,-0.40454 0.93035,-0.88341 1.30385,-1.40367zM254.13938,155.30561c3.09616,2.90141 5.93915,6.56017 6.92981,10.82856c0.85236,3.19682 0.42524,6.87816 -1.74988,9.46911c-0.14394,0.70371 0.99828,0.88896 1.44986,1.17496c3.41227,1.07345 7.19888,-1.46284 8.29867,-4.70765c0.74511,-3.58904 -0.94823,-7.23472 -3.32656,-9.85578c-3.1018,-3.33042 -7.19615,-5.78486 -11.60189,-6.90911z" fill="#e9779d"/><path d="M244.49052,147.31733c0.27942,0.86553 0.20233,1.86569 -0.27372,2.64938c-0.37346,0.52023 -0.80711,0.99913 -1.30385,1.40367c-0.1891,0.0969 -0.37632,0.19851 -0.56448,0.29635c-0.94268,0.46099 -1.98978,0.68866 -3.04065,0.62563c-0.95585,0 -1.85619,-0.351 -2.70291,-0.75837l0.00282,-0.07717c3.16672,0.90034 7.28919,-0.59835 7.88283,-4.1395zM254.46298,150.98646c0.05927,0.18346 0.10819,0.37076 0.13642,0.5608c-0.00094,0.31514 0.00847,0.63221 0,0.94738c-0.04892,0.36127 -0.1806,0.69995 -0.31796,1.03488c-0.62563,1.00195 -1.61713,1.70557 -2.73198,2.07154c-1.53256,0.49388 -3.2496,0.32181 -4.61846,-0.53714c3.02936,0.79591 7.06444,-0.63598 7.53201,-4.0775zM244.44825,155.67536c0.34245,0.97937 0.16472,2.11303 -0.48348,2.92399c-1.31617,1.69156 -3.72941,2.22508 -5.73989,1.68036c-0.47036,-0.15335 -0.91342,-0.37737 -1.34618,-0.61445c3.01995,0.85895 7.06246,-0.55686 7.56955,-3.98982z" fill="#cc0000"/><path d="M211.91411,168.63019c0.06396,-0.00272 0.14274,0.01038 0.23564,0.03954c-0.13077,0.13265 -0.2596,0.26627 -0.39131,0.39704c-0.09455,-0.27871 -0.0362,-0.42843 0.15567,-0.43659zM212.88827,176.8782c0.09784,0.06021 0.19663,0.11948 0.29635,0.17875c0.69431,0.65385 1.43471,1.35945 2.3661,1.64451c0.01035,0.03857 0.03013,0.11666 0.03954,0.15523c1.24467,7.98548 2.53639,15.96342 3.81963,23.94231c-0.93515,-0.21074 -1.83371,-0.55136 -2.75286,-0.81761c-1.27007,-8.36556 -2.49584,-16.73864 -3.76873,-25.10326zM228.13673,178.28659c0.60023,1.12237 1.58994,2.13551 2.90706,2.3105c0.0207,0.03575 0.06406,0.10816 0.0857,0.14391c0.67831,7.89422 1.41778,15.78467 2.07445,23.67889c-1.19199,-0.07056 -2.67845,0.23144 -3.6851,-0.14112c-1.08944,-8.36744 -2.2184,-16.74899 -3.15167,-25.13524c0.62375,-0.21074 1.18437,-0.56348 1.76954,-0.85701zM256.79053,178.43064c0.61058,0.49952 1.19763,1.03478 1.92111,1.3697c-0.92951,6.08601 -2.11585,12.13438 -3.12156,18.21004c-0.01129,0.03669 -0.03301,0.10905 -0.04336,0.1448c-1.30865,0.7103 -2.59283,1.50245 -3.98897,2.02553c0.98972,-6.84523 2.08763,-13.67729 3.09804,-20.5197c0.76675,-0.30673 1.41035,-0.84295 2.13476,-1.23056zM265.31787,178.64032c-0.4958,4.38223 -1.49681,8.70707 -2.09986,13.08177c-0.03011,0.09408 -0.05924,0.1901 -0.08747,0.28606c-1.29454,1.14683 -2.39818,2.56452 -3.89593,3.45827c0.88999,-5.16779 1.94002,-10.30924 2.7745,-15.48644l0.07424,-0.03116c1.11672,-0.33116 2.21002,-0.7469 3.23455,-1.30855zM250.25671,180.83231c-0.79874,6.95907 -1.62193,13.91531 -2.41126,20.87532c-1.23621,0.54381 -2.57223,0.95209 -3.89593,1.20234c0.51838,-7.76533 1.01709,-15.53254 1.59851,-23.29316c1.32276,1.0499 3.0303,1.54949 4.70868,1.21551zM218.852,180.00909c1.19105,0.31234 2.44598,0.31334 3.65866,0.13083c1.27572,7.97419 2.50252,15.96531 3.6851,23.9536c-1.17788,-0.10067 -2.33882,-0.34051 -3.50917,-0.49951c-0.02916,-0.02822 -0.08843,-0.0857 -0.1176,-0.11392c-1.1346,-7.83307 -2.74421,-15.63226 -3.71699,-23.47098zM240.75283,180.23876c-0.18251,7.82272 -0.13915,15.65202 -0.39881,23.47286c-1.22021,0.29823 -2.47806,0.43274 -3.73026,0.50612c-0.31517,-7.60633 -0.63036,-15.21737 -0.86274,-22.82653c1.72072,-0.01129 3.46298,-0.34527 4.99177,-1.15247zM242.10345,209.87756c0.36667,-0.00091 0.73335,0.00432 1.10026,0.01808l-0.04513,0.08276h-4.21862l0.03116,-0.08938c0.43273,-0.00188 0.8645,0.02734 1.29915,0.03205c0.61086,-0.02352 1.22189,-0.042 1.83305,-0.04351z" fill="#e9c0af"/><path d="M244.41904,176.29015c0.40082,0.57953 0.77625,1.1759 1.21748,1.72721c0.00753,0.47231 -0.0932,0.93327 -0.17787,1.3952c-0.53343,-0.50803 -0.86741,-1.16461 -1.24655,-1.7846c-1.03864,1.00759 -2.11773,2.01518 -3.45931,2.61071c-0.00941,-0.42336 -0.01967,-0.84389 -0.0272,-1.26537c1.32276,-0.76299 2.61061,-1.59465 3.69347,-2.68315zM267.17032,177.14245c-0.42524,0.57295 -1.00947,1.01709 -1.6812,1.2617c0.00564,-0.15053 0.00952,-0.30208 0.01705,-0.45261c0.55225,-0.27283 1.11851,-0.51932 1.66417,-0.80908zM226.05385,177.59874c0.12324,0.51085 0.22764,1.02547 0.31326,1.54479c-1.21457,0.54852 -2.52519,0.9042 -3.85642,0.9964c-0.01976,-0.47984 -0.08282,-0.95877 -0.21829,-1.41976c1.29265,-0.23705 2.5393,-0.64539 3.7614,-1.12143zM259.0936,178.07103c0.93515,0.49486 2.00399,0.84019 3.07273,0.70001c0.10255,0.39045 -0.0368,0.78735 -0.0829,1.17778l-0.07424,0.03116c-1.09132,0.23896 -2.25132,0.24076 -3.29749,-0.17978c0.12419,-0.57765 0.24925,-1.15436 0.38191,-1.72918zM215.54508,178.21211c1.00853,0.16558 1.96909,0.56545 2.99926,0.62284c0.06962,0.36878 0.13547,0.73937 0.16464,1.11381c-1.11767,-0.1176 -2.10644,-0.65282 -3.11874,-1.09217c-0.00941,-0.03857 -0.02919,-0.11666 -0.03954,-0.15523c-0.00565,-0.1637 -0.00465,-0.32646 -0.00559,-0.48921zM254.75834,178.6684c-0.03857,0.32928 -0.06591,0.66232 -0.1026,0.99254c-1.38109,0.64915 -2.88627,1.00853 -4.39907,1.17129c0.08185,-0.43838 0.12883,-0.88247 0.18904,-1.3237c1.46764,-0.10255 2.90339,-0.42709 4.3127,-0.8401zM231.04378,179.53592c1.51844,0.31893 3.05759,0.59544 4.61743,0.52112c0.05739,0.44216 0.08476,0.88821 0.09981,1.33414c-1.57019,0.03669 -3.12062,-0.24751 -4.63154,-0.65017c-0.02164,-0.03575 -0.065,-0.10816 -0.0857,-0.14391c-0.00188,-0.35471 -0.00094,-0.70842 0,-1.06122z" fill="#b1816c"/><path d="M267.56183,176.86587c-0.68114,4.03423 -1.25606,8.09084 -1.829,12.14191c-0.95209,0.49392 -1.46952,2.04153 -2.51475,2.7142c0.60305,-4.3747 1.60406,-8.69954 2.09986,-13.08177c0.05645,-0.07903 0.11372,-0.15706 0.17111,-0.23608c0.67173,-0.24461 1.25596,-0.68876 1.6812,-1.2617c0.12795,-0.09408 0.25974,-0.18525 0.39146,-0.27651zM244.21205,177.62803c0.37914,0.61998 0.71312,1.27657 1.24655,1.7846c0.02258,0.0508 0.0668,0.15338 0.08938,0.20418c-0.58141,7.76063 -1.08013,15.52784 -1.59851,23.29316c1.3237,-0.25025 2.65972,-0.65856 3.89593,-1.20234c0.78933,-6.96001 1.61252,-13.91625 2.41126,-20.87532c1.5128,-0.16276 3.01798,-0.52214 4.39907,-1.17129c-1.01041,6.84241 -2.10832,13.67447 -3.09804,20.5197c1.39614,-0.52308 2.68033,-1.31523 3.98897,-2.02553c-0.62657,3.60504 -1.25596,7.20932 -1.85807,10.81821c-0.08279,0.19757 0.10069,0.18346 0.24181,0.19286c-1.27572,0.13924 -2.54768,0.31799 -3.83092,0.36691c0.33492,-3.06135 0.97005,-6.08798 1.35108,-9.14087c-1.22398,0.32081 -2.38407,0.94832 -3.56947,1.41778c-0.33775,2.479 -0.58335,4.97784 -0.85994,7.46625c-0.32643,0.69054 0.37541,0.38846 0.7028,0.45056c-1.44412,0.07338 -2.88909,0.15902 -4.33603,0.16185c0.22391,-2.27673 0.3847,-4.56559 0.52582,-6.84514c-1.02735,0.01693 -2.00013,0.46276 -3.02184,0.57095c-0.75546,-0.11007 -0.443,0.79601 -0.52391,1.20243c0.08467,1.7019 -0.18822,3.40474 -0.0979,5.10382c-0.43461,-0.0047 -0.86638,-0.03393 -1.29915,-0.03205c-0.72724,-0.01505 -1.45456,-0.00468 -2.18086,-0.0075c-0.03481,-1.86842 -0.00376,-3.75189 -0.22109,-5.60902c-1.10449,0.04422 -2.21172,0.09873 -3.31339,0.18434c0.1891,1.75082 0.06865,3.73035 0.62842,5.35699c-1.25784,-0.11854 -2.52227,-0.16182 -3.7773,-0.31046c-0.01411,-1.44883 -0.31799,-2.87498 -0.45629,-4.3144c-0.01317,-1.61727 -2.37739,-0.61914 -3.38216,-1.03873c0.20886,1.7019 0.39602,3.4339 0.83349,5.09159c-1.35192,-0.22015 -2.71043,-0.39893 -4.05953,-0.63695c0.16088,-0.04798 0.45355,-0.07532 0.37734,-0.31428c-0.21638,-1.56925 -0.56077,-3.12053 -0.73294,-4.69636c1.17035,0.15899 2.33129,0.39884 3.50917,0.49951c-1.18258,-7.9883 -2.40938,-15.97942 -3.6851,-23.9536c1.33123,-0.09224 2.64185,-0.44791 3.85642,-0.9964c0.93327,8.38625 2.06222,16.7678 3.15167,25.13524c1.00665,0.37256 2.49311,0.07056 3.6851,0.14112c-0.65668,-7.89422 -1.39614,-15.78467 -2.07445,-23.67889c1.51092,0.40266 3.06135,0.68687 4.63154,0.65017c0.23238,7.60916 0.54757,15.2202 0.86274,22.82653c1.2522,-0.07338 2.51004,-0.20789 3.73026,-0.50612c0.25966,-7.82084 0.2163,-15.65014 0.39881,-23.47286c1.34157,-0.59552 2.42067,-1.60312 3.45931,-2.61071zM215.59023,178.85656c1.0123,0.43931 2.00107,0.97457 3.11874,1.09217l0.14303,0.06027c0.97269,7.83871 2.58239,15.63791 3.71699,23.47098c-1.05745,-0.07526 -2.06222,-0.46384 -3.11121,-0.59932c0.18346,1.68402 0.54187,3.34453 0.76954,5.02385c-1.07345,-0.37632 -2.40364,-0.64529 -3.04432,-1.67829c-0.0969,-1.42248 -0.39049,-2.82521 -0.52596,-4.24487c0.91916,0.26625 1.81771,0.60687 2.75286,0.81761c-1.28325,-7.97889 -2.57496,-15.95684 -3.81963,-23.94231zM258.71164,179.79993c1.04616,0.42054 2.20617,0.41874 3.29749,0.17978c-0.83449,5.1772 -1.88451,10.31865 -2.7745,15.48644c1.49775,-0.89376 2.60139,-2.31144 3.89593,-3.45827c-0.80344,5.28821 -2.03504,10.54068 -2.61174,15.84488c-1.27102,0.38573 -2.58051,0.62474 -3.87693,0.90698c1.02453,-4.31449 1.70275,-8.70801 2.53441,-13.06295c-1.26161,0.63504 -2.26158,1.75938 -3.58622,2.31351c1.00571,-6.07566 2.19205,-12.12404 3.12156,-18.21004z" fill="#dda187"/><path d="M227.36147,176.97213c0.70372,1.45071 2.20701,2.15724 3.68218,2.56367c-0.00094,0.35283 -0.00188,0.70654 0,1.06122c-1.31711,-0.17499 -2.30683,-1.18813 -2.90706,-2.3105c-0.58518,0.29353 -1.1458,0.64627 -1.76954,0.85701c-0.08561,-0.51932 -0.19001,-1.03393 -0.31326,-1.54479c0.42054,-0.2352 0.83449,-0.51362 1.30771,-0.62651zM213.18461,177.0569c0.77898,0.40175 1.59286,0.731 2.36055,1.1553c0.00094,0.16276 -0.00006,0.32552 0.00559,0.48921c-0.93139,-0.28506 -1.67179,-0.99066 -2.3661,-1.64451zM257.82351,177.32413c0.43873,-0.00975 0.86318,0.18596 1.27007,0.74691c-0.13265,0.57483 -0.25772,1.15153 -0.38191,1.72918c-0.72347,-0.33492 -1.31053,-0.87014 -1.92111,-1.3697c-0.72441,0.38764 -1.36801,0.92386 -2.13476,1.23056c0.03669,-0.33022 0.06403,-0.66326 0.1026,-0.99254c1.06592,-0.30764 2.09986,-1.32276 3.06511,-1.3444zM265.50615,177.9516c-0.00753,0.15053 -0.0114,0.30208 -0.01705,0.45261c-0.05739,0.07903 -0.11466,0.15706 -0.17111,0.23608c-1.02453,0.56162 -2.11783,0.97739 -3.23455,1.30855c0.0461,-0.39045 0.18545,-0.78735 0.0829,-1.17778c1.15624,-0.05645 2.25132,-0.45825 3.33983,-0.81952zM245.63654,178.01742c1.28795,1.17976 3.07349,1.77246 4.80925,1.49116c-0.06021,0.44121 -0.10719,0.88529 -0.18904,1.3237c-1.67838,0.33398 -3.38592,-0.16558 -4.70868,-1.21551c-0.02258,-0.0508 -0.0668,-0.15338 -0.08938,-0.20418c0.08467,-0.46196 0.18539,-0.92292 0.17787,-1.3952zM222.29259,178.72013c0.13547,0.46099 0.19854,0.93995 0.21829,1.41976c-1.21269,0.18251 -2.46761,0.18152 -3.65866,-0.13083l-0.14303,-0.06027c-0.02916,-0.37443 -0.09502,-0.74502 -0.16464,-1.11381c1.24655,0.18722 2.50525,0.00844 3.74804,-0.11481zM240.72558,178.9733c0.00753,0.42148 0.01779,0.84201 0.0272,1.26537c-1.52879,0.8072 -3.27105,1.14119 -4.99177,1.15247c-0.01505,-0.44592 -0.04242,-0.89197 -0.09981,-1.33414c1.74047,-0.04986 3.44623,-0.45337 5.0644,-1.0837z" fill="#ba9a8c"/><path d="M265.73283,189.00798c-0.88247,5.74826 -1.7781,11.50217 -2.51757,17.26549c-0.58612,0.90692 -1.72551,1.22294 -2.69642,1.5795c0.57671,-5.30421 1.8083,-10.55667 2.61174,-15.84488c0.02822,-0.09596 0.05736,-0.19198 0.08747,-0.28606c1.04522,-0.67267 1.56266,-2.22028 2.51475,-2.7142zM259.17625,195.69687c-0.83166,4.35494 -1.50988,8.74846 -2.53441,13.06295c-0.89846,0.1684 -1.80351,0.30485 -2.71137,0.40645c-0.14112,-0.00941 -0.3246,0.0047 -0.24181,-0.19286c0.60211,-3.6088 1.2315,-7.21308 1.85807,-10.81821c0.01035,-0.03575 0.03207,-0.10811 0.04336,-0.1448c1.32464,-0.55413 2.32461,-1.67847 3.58622,-2.31351zM251.45055,200.39228c-0.38102,3.05288 -1.01615,6.07952 -1.35108,9.14087c-0.77992,0.16652 -1.5843,0.14671 -2.37551,0.19375c-0.3274,-0.06209 -1.02926,0.23999 -0.7028,-0.45056c0.27659,-2.48841 0.5222,-4.98725 0.85994,-7.46625c1.1854,-0.46946 2.3455,-1.09697 3.56947,-1.41778zM219.45788,202.88069c1.04899,0.13547 2.05376,0.52405 3.11121,0.59932c0.02916,0.02822 0.08843,0.0857 0.1176,0.11392c0.17217,1.57583 0.51655,3.12711 0.73294,4.69636c0.0762,0.23896 -0.21647,0.2663 -0.37734,0.31428c-0.95303,-0.16088 -1.90982,-0.35474 -2.81486,-0.70001c-0.22767,-1.67932 -0.58609,-3.33983 -0.76954,-5.02385zM243.91392,203.0436c-0.14112,2.27955 -0.30191,4.56841 -0.52582,6.84514c-0.0461,0.00188 -0.13838,0.00473 -0.18448,0.00661c-0.97843,-0.03669 -1.95591,-0.0122 -2.9334,0.02543c-0.09032,-1.69908 0.18257,-3.40192 0.0979,-5.10382c0.08091,-0.4064 -0.23155,-1.3125 0.52391,-1.20243c1.0217,-0.10819 1.99449,-0.55402 3.02184,-0.57095zM226.26834,204.14993c1.00477,0.41963 3.36899,-0.5785 3.38216,1.03873c0.1383,1.43942 0.44217,2.86557 0.45629,4.3144c-1.00665,-0.01882 -2.00493,-0.15144 -3.005,-0.26151c-0.43747,-1.65768 -0.62463,-3.38969 -0.83349,-5.09159zM236.56904,204.27233c0.21732,1.85713 0.18628,3.7406 0.22109,5.60902c-0.96902,0.01035 -1.93889,-0.01414 -2.90602,-0.06777c-0.55977,-1.62664 -0.43932,-3.60616 -0.62842,-5.35699c1.10167,-0.08561 2.20889,-0.14012 3.31339,-0.18434z" fill="#d89173"/></g></g></svg>