<svg width="128.091" height="140" xmlns="http://www.w3.org/2000/svg"><g transform="matrix(.4451 0 0 .4451 -1.558 -287.585)"><g fill="#668000"><path d="M204.44 814.47l45.719 20.219 15.375 45.281 25.75 15.969-30.719-12-15.25-44.812-43.32-19.16 2.438-5.5zM206.81 857.94l39.656 30.469-11.406 45.344 23.688 26.906-30-25.156 10.906-44.656-36.5-28.156 3.656-4.75zM248.44 705.44l-25.572 17.225-5.3 39.67.027.053-.053.053-32.833 26.711-3.207-3.948 31.27-25.44 5.352-40.04 30.315-14.283z" opacity=".8"/></g><g fill="#668000"><path d="M90.344 814.47l-45.719 20.22-15.375 45.28L3.5 895.94l30.719-12 15.25-44.812 43.312-19.156-2.438-5.5zM87.969 857.94l-39.657 30.47 11.407 45.34-23.688 26.906 30-25.156-10.906-44.656 36.5-28.156-3.656-4.75zM46.344 705.44l25.572 17.225 5.3 39.67-.027.053.053.053 32.833 26.711 3.207-3.948-31.27-25.44-5.352-40.04-30.315-14.283z" opacity=".8"/></g><path d="M77.031 805.22c-3.61 12.295-5.594 25.733-5.594 39.844 0 57.96 33.6 105 75 105s75-47.04 75-105c0-14.111-2.014-27.548-5.625-39.844H77.032z" fill="red"/><ellipse transform="rotate(90 -104.64 587.46) scale(.44043)" cx="152.668" cy="765.219" rx="85.525" ry="52.857" fill="#2a7fff"/><path d="M137.33 805.22c-2.103 12.295-3.258 25.733-3.258 39.844 0 57.96 19.57 105 43.685 105 24.114 0 43.685-47.04 43.685-105 0-14.111-1.173-27.548-3.277-39.844H137.33z" opacity=".8" fill="#ffd42a"/><path d="M74.588 805.22c-2.103 12.295-3.258 25.733-3.258 39.844 0 57.96 19.57 105 43.685 105 24.114 0 43.685-47.04 43.685-105 0-14.111-1.173-27.548-3.277-39.844H74.587z" opacity=".8" fill="#ffd42a"/><path d="M145.92 756.48c-29.97 0-56.003 19.744-69.25 48.724 15.603 9.337 40.458 15.365 68.469 15.365 28.758 0 54.212-6.372 69.719-16.136-13.353-28.561-39.233-47.954-68.938-47.954zM205.75 646.12c-28.842 0-52.25 31.274-52.25 69.808 0 4.332.309 8.578.875 12.692h2.094c-.452-3.648-.719-7.37-.719-11.189 0-37.704 22.904-68.305 51.125-68.305 28.034 0 50.825 30.193 51.125 67.553.002-.251 0-.5 0-.752 0-38.534-23.408-69.808-52.25-69.808zM83.751 646.12c28.842 0 52.25 31.274 52.25 69.808 0 4.332-.309 8.578-.875 12.692h-2.094c.452-3.648.719-7.37.719-11.189 0-37.704-22.904-68.305-51.125-68.305-28.034 0-50.825 30.193-51.125 67.553-.002-.251 0-.5 0-.752 0-38.534 23.408-69.808 52.25-69.808z" opacity=".8" fill="#668000"/></g></svg>