<?xml version="1.0" encoding="UTF-8" standalone="no"?>
<!-- Created with Inkscape (http://www.inkscape.org/) -->

<svg
   id="svg3593"
   sodipodi:docname="nature-insect.svg"
   viewBox="0 0 128.09124 140"
   version="1.1"
   inkscape:version="1.2.2 (732a01da63, 2022-12-09)"
   width="128.09125"
   height="140"
   xmlns:inkscape="http://www.inkscape.org/namespaces/inkscape"
   xmlns:sodipodi="http://sodipodi.sourceforge.net/DTD/sodipodi-0.dtd"
   xmlns="http://www.w3.org/2000/svg"
   xmlns:svg="http://www.w3.org/2000/svg"
   xmlns:rdf="http://www.w3.org/1999/02/22-rdf-syntax-ns#"
   xmlns:cc="http://creativecommons.org/ns#"
   xmlns:dc="http://purl.org/dc/elements/1.1/">
  <defs
     id="defs837" />
  <title
     id="title3642">Insect Beetle</title>
  <sodipodi:namedview
     id="base"
     bordercolor="#666666"
     inkscape:pageshadow="2"
     inkscape:window-y="-8"
     pagecolor="#ffffff"
     inkscape:window-height="1017"
     inkscape:window-maximized="1"
     inkscape:zoom="0.17397461"
     inkscape:window-x="1912"
     showgrid="false"
     borderopacity="1.0"
     inkscape:current-layer="layer1"
     inkscape:cx="793.21919"
     inkscape:cy="459.83721"
     inkscape:window-width="1920"
     inkscape:pageopacity="0.0"
     inkscape:document-units="px"
     inkscape:showpageshadow="2"
     inkscape:pagecheckerboard="0"
     inkscape:deskcolor="#d1d1d1" />
  <g
     id="layer1"
     inkscape:label="Layer 1"
     inkscape:groupmode="layer"
     transform="translate(-35.35545,-173.76234)">
    <g
       id="g3848"
       transform="matrix(0.44509512,0,0,0.44509512,33.797617,-113.82229)">
      <g
         id="g3826">
        <path
           id="path3820"
           sodipodi:nodetypes="cccccccc"
           style="opacity:0.8;fill:#668000"
           d="m 204.44,814.47 45.719,20.219 15.375,45.281 25.75,15.969 -30.719,-12 -15.25,-44.812 -43.32,-19.16 2.4375,-5.5 z" />
        <path
           id="path3822"
           sodipodi:nodetypes="cccccccc"
           style="opacity:0.8;fill:#668000"
           d="m 206.81,857.94 39.656,30.469 -11.406,45.344 23.688,26.906 -30,-25.156 10.906,-44.656 -36.5,-28.156 3.6562,-4.75 z" />
        <path
           id="path3824"
           style="opacity:0.8;fill:#668000"
           d="m 248.44,705.44 -25.572,17.225 -5.2999,39.67 0.0265,0.053 -0.053,0.053 -32.833,26.711 -3.2064,-3.9484 31.269,-25.439 5.3529,-40.041 30.315,-14.283 z" />
      </g>
      <g
         id="g3831">
        <path
           id="path3795"
           sodipodi:nodetypes="cccccccc"
           style="opacity:0.8;fill:#668000"
           d="M 90.344,814.47 44.625,834.69 29.25,879.97 3.5,895.94 l 30.719,-12 15.25,-44.812 43.312,-19.156 -2.4375,-5.5 z" />
        <path
           id="path3793"
           sodipodi:nodetypes="cccccccc"
           style="opacity:0.8;fill:#668000"
           d="m 87.969,857.94 -39.657,30.47 11.407,45.34 -23.688,26.906 30,-25.156 -10.906,-44.656 36.5,-28.156 -3.6562,-4.75 z" />
        <path
           id="path3797"
           style="opacity:0.8;fill:#668000"
           d="m 46.344,705.44 25.572,17.225 5.2999,39.67 -0.0265,0.053 0.053,0.053 32.833,26.711 3.2064,-3.9484 -31.269,-25.439 -5.3529,-40.041 -30.315,-14.283 z" />
      </g>
      <path
         id="path3774"
         style="fill:#ff0000"
         d="m 77.031,805.22 c -3.6109,12.295 -5.5938,25.733 -5.5938,39.844 0,57.96 33.6,105 75,105 41.4,0 75,-47.04 75,-105 0,-14.111 -2.0141,-27.548 -5.625,-39.844 h -138.78 z" />
      <ellipse
         id="path3784"
         style="fill:#2a7fff"
         transform="matrix(0,0.44043,-0.44043,0,482.82,692.1)"
         cx="152.66751"
         cy="765.2193"
         rx="85.524651"
         ry="52.857143" />
      <path
         id="path3787"
         style="opacity:0.8;fill:#ffd42a"
         d="m 137.33,805.22 c -2.1033,12.295 -3.2582,25.733 -3.2582,39.844 0,57.96 19.571,105 43.685,105 24.114,0 43.685,-47.04 43.685,-105 0,-14.111 -1.1731,-27.548 -3.2764,-39.844 h -80.836 z" />
      <path
         id="path3789"
         style="opacity:0.8;fill:#ffd42a"
         d="m 74.588,805.22 c -2.1033,12.295 -3.2582,25.733 -3.2582,39.844 0,57.96 19.571,105 43.685,105 24.114,0 43.685,-47.04 43.685,-105 0,-14.111 -1.1731,-27.548 -3.2764,-39.844 h -80.836 z" />
      <path
         id="path3782"
         style="opacity:0.8;fill:#668000"
         d="m 145.92,756.48 c -29.97,0 -56.003,19.744 -69.25,48.724 15.603,9.3365 40.458,15.365 68.469,15.365 28.758,0 54.212,-6.3716 69.719,-16.136 -13.353,-28.561 -39.233,-47.954 -68.938,-47.954 z" />
      <path
         id="path3836"
         style="opacity:0.8;fill:#668000"
         d="m 205.75,646.12 c -28.842,0 -52.25,31.274 -52.25,69.808 0,4.3322 0.3088,8.5777 0.875,12.692 h 2.0938 c -0.45179,-3.6482 -0.71875,-7.3702 -0.71875,-11.189 0,-37.704 22.904,-68.305 51.125,-68.305 28.034,0 50.825,30.193 51.125,67.553 0.002,-0.25128 0,-0.49962 0,-0.75151 0,-38.534 -23.408,-69.808 -52.25,-69.808 z" />
      <path
         id="path3846"
         style="opacity:0.8;fill:#668000"
         d="m 83.751,646.12 c 28.842,0 52.25,31.274 52.25,69.808 0,4.3322 -0.3088,8.5777 -0.875,12.692 h -2.0938 c 0.45179,-3.6482 0.71875,-7.3702 0.71875,-11.189 0,-37.704 -22.904,-68.305 -51.125,-68.305 -28.034,0 -50.825,30.193 -51.125,67.553 -0.002,-0.25128 0,-0.49962 0,-0.75151 0,-38.534 23.408,-69.808 52.25,-69.808 z" />
    </g>
  </g>
  <metadata
     id="metadata834">
    <rdf:RDF>
      <cc:Work>
        <dc:format>image/svg+xml</dc:format>
        <dc:type
           rdf:resource="http://purl.org/dc/dcmitype/StillImage" />
        <cc:license
           rdf:resource="http://creativecommons.org/licenses/publicdomain/" />
        <dc:publisher>
          <cc:Agent
             rdf:about="http://openclipart.org/">
            <dc:title>Openclipart</dc:title>
          </cc:Agent>
        </dc:publisher>
        <dc:title>Insect</dc:title>
        <dc:date>2010-04-20T22:23:56</dc:date>
        <dc:description />
        <dc:source>https://openclipart.org/detail/49309/insect-by-sheikh_tuhin</dc:source>
        <dc:creator>
          <cc:Agent>
            <dc:title>sheikh_tuhin</dc:title>
          </cc:Agent>
        </dc:creator>
        <dc:subject>
          <rdf:Bag>
            <rdf:li>insect</rdf:li>
            <rdf:li>nature</rdf:li>
          </rdf:Bag>
        </dc:subject>
      </cc:Work>
      <cc:License
         rdf:about="http://creativecommons.org/licenses/publicdomain/">
        <cc:permits
           rdf:resource="http://creativecommons.org/ns#Reproduction" />
        <cc:permits
           rdf:resource="http://creativecommons.org/ns#Distribution" />
        <cc:permits
           rdf:resource="http://creativecommons.org/ns#DerivativeWorks" />
      </cc:License>
    </rdf:RDF>
  </metadata>
</svg>
