<svg width="140" height="104.663" viewBox="0 0 179.2 133.968" class="prefix__icon" xmlns="http://www.w3.org/2000/svg"><path d="M152.106 1.685c-30.68-9.104-110.15 17.95-110.15 99.133h110.23s30.6-90.029-.08-99.133z" fill="#a4a9ad"/><path d="M162.007 10.51H97.46a108.2 108.2 0 00-10.18 5.738h76.82c-.538-2.092-1.235-4.024-2.092-5.737z"/><path d="M164.617 18.48c-11.535-11.536-42.673-8.786-70.405 7.45-4.204-2.072-8.208-4.183-12.033-6.215-22.193 16.057-40.223 42.434-40.223 81.103h110.23s18.248-53.69 12.431-82.339z"/><path d="M164.617 26.727C141.985 4.096 43.988 36.47 43.988 117.652h110.23s33.03-68.293 10.399-90.925z" fill="#a4a9ad"/><path d="M172.207 44.717H79.111a107.908 107.908 0 00-6.395 5.738h99.81c0-1.953-.12-3.865-.319-5.738z"/><path d="M148.918 40.075c-18.149 0-33.29-4.562-46.458-10.3-29.883 14.384-58.492 43.988-58.492 87.857h110.23s16.754-34.645 18.228-62.775c-2.908-8.726-9.861-14.782-23.508-14.782z"/><path d="M142.822 46.191c-62.815 0-89.849-54.806-121.864-22.79-32.015 32.014-.219 101.941-.219 101.941h133.14c0 .02 38.33-79.15-11.057-79.15z" fill="#d1d3d3"/><path d="M11.216 97.232h153.062a127.01 127.01 0 001.435-5.738H9.86c.439 1.953.877 3.865 1.355 5.738zM166.63 61.93H6.694c-.04 1.912-.04 3.825.02 5.737h161.03a34.42 34.42 0 00-1.115-5.737zM88.753 32.365H14.105a44.943 44.943 0 00-2.81 5.738h90.408c-4.543-1.773-8.846-3.726-12.95-5.738z"/><path d="M179.2 132.414c0 .857-.697 1.554-1.554 1.554H1.554A1.556 1.556 0 010 132.414v-5.518c0-.857.697-1.554 1.554-1.554h176.092c.857 0 1.554.697 1.554 1.554z" fill="#a4a9ad"/><path d="M81.82 125.362V90.199c0-3.147-2.59-5.737-5.737-5.737H51.997c-3.148 0-5.738 2.59-5.738 5.737v35.163z" fill="#333e48"/><path d="M168.103 125.362v-23.747c0-3.985-3.048-7.232-6.773-7.232h-34.744c-3.726 0-6.774 3.267-6.774 7.232v23.747z" fill="#218649"/><path d="M148.898 125.362V107.69c0-2.968-2.43-5.379-5.379-5.379H107.6c-2.968 0-5.378 2.43-5.378 5.379v17.67z" fill="#00ad68"/></svg>