<svg version="1.1" xmlns="http://www.w3.org/2000/svg" xmlns:xlink="http://www.w3.org/1999/xlink" width="102.65099" height="98.37499" viewBox="0,0,102.65099,98.37499"><defs><radialGradient cx="239.99351" cy="219.63015" r="71.99941" gradientUnits="userSpaceOnUse" id="color-1"><stop offset="0" stop-color="#000000"/><stop offset="1" stop-color="#000000" stop-opacity="0"/></radialGradient><radialGradient cx="223.62395" cy="148.34146" r="73.38711" gradientUnits="userSpaceOnUse" id="color-2"><stop offset="0" stop-color="#000000" stop-opacity="0"/><stop offset="1" stop-color="#000000" stop-opacity="0.57196"/></radialGradient><radialGradient cx="263.88678" cy="162.24204" r="17.28955" gradientUnits="userSpaceOnUse" id="color-3"><stop offset="0" stop-color="#000000" stop-opacity="0"/><stop offset="1" stop-color="#000000" stop-opacity="0.57196"/></radialGradient><radialGradient cx="235.37199" cy="162.24204" r="17.28955" gradientUnits="userSpaceOnUse" id="color-4"><stop offset="0" stop-color="#000000" stop-opacity="0"/><stop offset="1" stop-color="#000000" stop-opacity="0.57196"/></radialGradient></defs><g transform="translate(-188.67448,-129.81098)"><g data-paper-data="{&quot;isPaintingLayer&quot;:true}" fill-rule="nonzero" stroke="none" stroke-width="1" stroke-linecap="butt" stroke-linejoin="miter" stroke-miterlimit="10" stroke-dasharray="" stroke-dashoffset="0" style="mix-blend-mode: normal"><path d="M291.32548,219.63156c0,4.72325 -22.9908,8.55441 -51.32549,8.55441c-28.33469,0 -51.32549,-3.83115 -51.32549,-8.55441c0,-4.72325 22.9908,-8.55441 51.32549,-8.55441c28.33469,0 51.32549,3.83116 51.32549,8.55441z" fill="url(#color-1)"/><path d="M286.33995,176.14753c0,3.45742 -0.37782,26.7754 -1.09782,30.01896c-1.76079,8.88236 -7.47087,13.99363 -16.0467,15.93977c-3.98494,0.74139 -8.51879,-15.55482 -13.4376,-15.64749c-4.9188,-0.09268 -10.22256,16.02532 -15.75443,16.02532c-5.56038,0 -10.88552,-16.12512 -15.82571,-16.05383c-4.94019,0.07842 -9.4883,16.35324 -13.48037,15.58334c-9.03919,-1.49703 -13.77264,-7.68474 -15.9968,-16.13938c-0.67722,-3.15088 -1.03366,-26.37618 -1.03366,-29.72667c0,-25.57778 20.75877,-46.33655 46.33654,-46.33655c25.57777,0 46.33655,20.75877 46.33655,46.33655z" fill="#f5d054"/><path d="M245.14558,130.13324l-3.06005,3.06004l-3.34005,-3.35005c0.42001,-0.01 0.83001,-0.03 1.25001,-0.03c1.74003,0 3.47005,0.13 5.15008,0.32001zM249.14563,140.28338l-7.0601,7.0601l-7.0601,-7.0601l7.0601,-7.0901zM256.24573,133.19328l7.0601,7.0901l-7.0601,7.0601l-7.1001,-7.0601zM255.55572,132.50327c0.34,0.12 0.67001,0.25001 1.00002,0.37001l-0.31001,0.32zM265.86587,137.69334c2.79004,1.88002 5.35008,4.08006 7.6601,6.50009l-3.16004,3.15004l-7.06009,-7.0601zM277.43602,154.41358l-7.0701,7.0901l-7.06009,-7.0901l7.06009,-7.0701zM279.64606,152.19355c1.61002,2.65004 2.95004,5.47008 4.00006,8.44012l-6.21009,-6.22009zM277.43602,168.56378l-7.0701,7.0701l-7.06009,-7.0701l7.06009,-7.0601zM284.08612,161.94368c1.22001,3.78006 1.99003,7.79011 2.19003,11.93017l-1.75002,1.76002l-7.0901,-7.0701zM286.33615,177.4439c-0.01,2.01003 -0.1,5.99008 -0.22,10.72015l-1.59002,1.62002l-7.0901,-7.0901l7.0901,-7.0601zM286.05615,191.3141c-0.12,4.40006 -0.3,8.64012 -0.5,11.56016l-1.03002,1.04001l-7.0901,-7.0701l7.0901,-7.06009zM285.43613,204.81429c-0.06,0.58001 -0.13,1.06001 -0.19,1.35002c-0.70001,3.49005 -2.00003,6.41008 -3.84006,8.78012l-3.97006,-3.97006l7.0901,-7.0601zM270.36593,218.06447l-7.06009,-7.0901l7.06009,-7.0601l7.0701,7.0601zM273.18597,220.87451c-1.25002,0.5 -2.56004,0.90001 -3.97006,1.22002c-0.65001,0.13 -1.32002,-0.2 -2.00003,-0.84001l3.15004,-3.19004zM261.68581,212.5944c-1.90003,-3.24005 -3.87006,-6.08009 -5.91009,-6.12009c-1.90002,-0.04 -3.84005,2.35004 -5.84008,5.28008l-0.79001,-0.78001l7.1001,-7.0601l7.0601,7.0601zM242.08553,218.06447l-7.0601,-7.0901l7.0601,-7.0601l7.0601,7.0601zM244.05556,220.0345c-1.33002,1.47002 -2.70004,2.47003 -4.06006,2.47003c-0.61001,0 -1.18001,-0.22 -1.78002,-0.56l3.87006,-3.88005zM231.74539,214.25442c-2.24003,-3.41005 -4.42006,-6.78009 -6.53009,-7.6201l2.75004,-2.72004l7.0601,7.0601zM220.86524,196.84417l7.1001,-7.06009l7.0601,7.06009l-7.0601,7.0701zM213.80514,203.91427l-7.0601,-7.0701l7.0601,-7.06009l7.0601,7.06009zM219.86522,209.97436c-1.05002,1.53002 -2.08002,3.34005 -3.09004,5.12007l-2.97004,2.97004l-7.0601,-7.0901l7.0601,-7.0601zM214.55515,218.81448c-1.34002,2.04003 -2.61004,3.43005 -3.84005,3.19004c-0.25,-0.04 -0.48001,-0.08 -0.72001,-0.13l3.81005,-3.81006zM200.64496,217.06446c-2.36004,-2.35003 -4.06006,-5.39007 -5.24008,-8.90013l4.24006,-4.25006l7.1001,7.0601zM194.18487,198.4442c-0.04,-1.00001 -0.09001,-1.98003 -0.13001,-3.07005l5.59008,-5.59007l7.1001,7.06009l-7.1001,7.0701zM193.77486,183.91399c-0.01,-0.80001 -0.02,-1.66003 -0.03,-2.38004l5.90008,-5.90008l7.1001,7.0601l-7.1001,7.0901zM194.08486,170.0638c0.16,-1.22001 0.37,-2.43004 0.63001,-3.62005l4.93007,-4.94007l7.1001,7.0601l-7.1001,7.0701zM197.02491,158.87364c1.31002,-3.26004 2.98004,-6.34009 4.97007,-9.18013l4.75007,4.72007l-7.1001,7.0901zM213.80514,147.34348l7.0601,7.0701l-7.0601,7.0901l-7.0601,-7.0901zM208.58507,142.13341c2.48003,-2.29003 5.20008,-4.30006 8.13012,-6.00009l4.15006,4.15006l-7.0601,7.0601zM227.96534,133.19328l7.0601,7.0901l-7.0601,7.0601l-7.1001,-7.0601zM226.58532,131.81326c1.22001,-0.37 2.46003,-0.70001 3.72005,-0.97002l-2.34003,2.35003zM235.02544,154.41358l-7.0601,7.0901l-7.1001,-7.0901l7.1001,-7.0701zM242.08553,147.34348l7.0601,7.0701l-7.0601,7.0901l-7.0601,-7.0901zM256.24573,147.34348l7.0601,7.0701l-7.0601,7.0901l-7.1001,-7.0901zM263.30583,168.56378l-7.0601,7.0701l-7.1001,-7.0701l7.1001,-7.0601zM263.30583,182.69398l-7.0601,7.0901l-7.1001,-7.0901l7.1001,-7.0601zM270.36593,175.63388l7.0701,7.0601l-7.0701,7.0901l-7.06009,-7.0901zM277.43602,196.84417l-7.0701,7.0701l-7.06009,-7.0701l7.06009,-7.06009zM256.24573,203.91427l-7.1001,-7.0701l7.1001,-7.06009l7.0601,7.06009zM242.08553,203.91427l-7.0601,-7.0701l7.0601,-7.06009l7.0601,7.06009zM235.02544,182.69398l7.0601,-7.0601l7.0601,7.0601l-7.0601,7.0901zM227.96534,189.78408l-7.1001,-7.0901l7.1001,-7.0601l7.0601,7.0601zM213.80514,189.78408l-7.0601,-7.0901l7.0601,-7.0601l7.0601,7.0601zM206.74504,168.56378l7.0601,-7.0601l7.0601,7.0601l-7.0601,7.0701zM227.96534,161.50367l7.0601,7.0601l-7.0601,7.0701l-7.1001,-7.0701zM242.08553,161.50367l7.0601,7.0601l-7.0601,7.0701l-7.0601,-7.0701z" fill="#ff00ff"/><path d="M286.33995,176.14753c0,3.45742 -0.37782,26.7754 -1.09782,30.01896c-1.76079,8.88236 -7.47087,13.99363 -16.0467,15.93977c-3.98494,0.74139 -8.51879,-15.55482 -13.4376,-15.64749c-4.9188,-0.09268 -10.22256,16.02532 -15.75443,16.02532c-5.56038,0 -10.88552,-16.12512 -15.82571,-16.05383c-4.94019,0.07842 -9.4883,16.35324 -13.48037,15.58334c-9.03919,-1.49703 -13.77264,-7.68474 -15.9968,-16.13938c-0.67722,-3.15088 -1.03366,-26.37618 -1.03366,-29.72667c0,-25.57778 20.75877,-46.33655 46.33654,-46.33655c25.57777,0 46.33655,20.75877 46.33655,46.33655z" fill="url(#color-2)"/><g><path d="M257.11228,167.95107c0,-6.10246 4.94702,-11.04948 11.04949,-11.04948c6.10246,0 11.04949,4.94702 11.04949,11.04948c0,6.10246 -4.94702,11.04949 -11.04949,11.04949c-6.10246,0 -11.04949,-4.94702 -11.04949,-11.04949z" fill="#ffffff"/><path d="M257.11228,167.95107c0,-6.10246 4.94702,-11.04948 11.04949,-11.04948c6.10246,0 11.04949,4.94702 11.04949,11.04948c0,6.10246 -4.94702,11.04949 -11.04949,11.04949c-6.10246,0 -11.04949,-4.94702 -11.04949,-11.04949z" fill="url(#color-3)"/><path d="M264.95357,168.66077c0,-3.7402 3.03203,-6.77223 6.77223,-6.77223c3.7402,0 6.77223,3.03203 6.77223,6.77223c0,3.7402 -3.03203,6.77223 -6.77223,6.77223c-3.7402,0 -6.77223,-3.03203 -6.77223,-6.77223z" fill="#000000"/></g><g><path d="M228.59749,167.95107c0,-6.10246 4.94702,-11.04948 11.04949,-11.04948c6.10246,0 11.04948,4.94702 11.04948,11.04948c0,6.10246 -4.94702,11.04949 -11.04948,11.04949c-6.10246,0 -11.04949,-4.94702 -11.04949,-11.04949z" fill="#ffffff"/><path d="M228.59749,167.95107c0,-6.10246 4.94702,-11.04948 11.04949,-11.04948c6.10246,0 11.04948,4.94702 11.04948,11.04948c0,6.10246 -4.94702,11.04949 -11.04948,11.04949c-6.10246,0 -11.04949,-4.94702 -11.04949,-11.04949z" fill="url(#color-4)"/><path d="M236.43877,168.66077c0,-3.7402 3.03203,-6.77223 6.77223,-6.77223c3.7402,0 6.77222,3.03203 6.77222,6.77223c0,3.7402 -3.03203,6.77223 -6.77222,6.77223c-3.7402,0 -6.77223,-3.03203 -6.77223,-6.77223z" fill="#000000"/></g><path d="M219.09227,152.5444c-7.15008,7.32118 -14.54967,11.70533 -16.51719,9.78058c-1.97465,-1.92475 2.23128,-9.43127 9.37424,-16.75244c7.15008,-7.32118 14.54968,-11.6982 16.5172,-9.77345c1.97465,1.92475 -2.23129,9.42414 -9.37424,16.74532z" fill-opacity="0.62745" fill="#ffffff"/><path d="M277.60458,213.93091c-3.38049,4.09607 -7.47823,6.30617 -9.14965,4.92675c-1.67142,-1.37942 -0.27873,-5.822 3.10176,-9.91807c3.38049,-4.09607 7.47824,-6.30617 9.14965,-4.92675c1.67142,1.37942 0.27872,5.822 -3.10177,9.91807z" fill-opacity="0.43439" fill="#ffffff"/></g></g></svg>