<?xml version="1.0" encoding="UTF-8" standalone="no"?>
<!-- Created with Inkscape (http://www.inkscape.org/) -->

<svg
   id="svg2"
   sodipodi:docname="nicubunu_Game_baddie_Squared.svg"
   inkscape:export-filename="/home/nicu/Desktop/pacman/pacman.png"
   viewBox="0 0 117.02638 108.00936"
   sodipodi:version="0.32"
   inkscape:export-xdpi="90"
   version="1.0"
   inkscape:output_extension="org.inkscape.output.svg.inkscape"
   inkscape:export-ydpi="90"
   inkscape:version="1.2.2 (732a01da63, 2022-12-09)"
   width="117.02637"
   height="108.00936"
   xmlns:inkscape="http://www.inkscape.org/namespaces/inkscape"
   xmlns:sodipodi="http://sodipodi.sourceforge.net/DTD/sodipodi-0.dtd"
   xmlns:xlink="http://www.w3.org/1999/xlink"
   xmlns="http://www.w3.org/2000/svg"
   xmlns:svg="http://www.w3.org/2000/svg"
   xmlns:rdf="http://www.w3.org/1999/02/22-rdf-syntax-ns#"
   xmlns:cc="http://creativecommons.org/ns#"
   xmlns:dc="http://purl.org/dc/elements/1.1/">
  <defs
     id="defs4">
    <linearGradient
       id="linearGradient2315">
      <stop
         id="stop2317"
         style="stop-color:#000000;stop-opacity:0"
         offset="0" />
      <stop
         id="stop2319"
         style="stop-color:#000000;stop-opacity:.57196"
         offset="1" />
    </linearGradient>
    <filter
       id="filter3730"
       height="1.6816748"
       width="1.6960537"
       y="-0.34083741"
       x="-0.34802687"
       inkscape:collect="always">
      <feGaussianBlur
         id="feGaussianBlur3732"
         stdDeviation="5.4650567"
         inkscape:collect="always" />
    </filter>
    <filter
       id="filter4065"
       height="1.7379839"
       width="2.811415"
       y="-0.36899194"
       x="-0.90570748"
       inkscape:collect="always">
      <feGaussianBlur
         id="feGaussianBlur4067"
         stdDeviation="4.1511594"
         inkscape:collect="always" />
    </filter>
    <filter
       id="filter4112"
       height="1.6802"
       width="1.1400412"
       y="-0.34009998"
       x="-0.070020583"
       inkscape:collect="always">
      <feGaussianBlur
         id="feGaussianBlur4114"
         stdDeviation="3.9678331"
         inkscape:collect="always" />
    </filter>
    <radialGradient
       id="radialGradient3349"
       gradientUnits="userSpaceOnUse"
       cy="506.35001"
       cx="210.89"
       gradientTransform="matrix(1.4028,1.6439e-6,-1.4521e-7,0.20588,-89.845,403.11)"
       r="68"
       inkscape:collect="always">
      <stop
         id="stop4074"
         style="stop-color:#000000"
         offset="0" />
      <stop
         id="stop4076"
         style="stop-color:#000000;stop-opacity:0"
         offset="1" />
    </radialGradient>
    <radialGradient
       id="radialGradient3351"
       xlink:href="#linearGradient2315"
       gradientUnits="userSpaceOnUse"
       cy="497.95999"
       cx="216.99001"
       gradientTransform="matrix(0.7158,1.4128,-1.3538,0.68592,735.84,-155.77)"
       r="65"
       inkscape:collect="always" />
    <radialGradient
       id="radialGradient3353"
       xlink:href="#linearGradient2315"
       gradientUnits="userSpaceOnUse"
       cy="409.85999"
       cx="233.5"
       gradientTransform="matrix(0.3871,1.5161,-1.4234,0.36342,726.51,-93.107)"
       r="15.5"
       inkscape:collect="always" />
    <radialGradient
       inkscape:collect="always"
       xlink:href="#linearGradient2315"
       id="radialGradient1770"
       gradientUnits="userSpaceOnUse"
       gradientTransform="matrix(0.3871,1.5161,-1.4234,0.36342,726.51,-93.107)"
       cx="233.5"
       cy="409.85999"
       r="15.5" />
  </defs>
  <sodipodi:namedview
     id="base"
     inkscape:zoom="0.721875"
     height="640px"
     borderopacity="1.0"
     inkscape:current-layer="layer1"
     inkscape:cx="250.73593"
     inkscape:cy="-42.943723"
     showgrid="false"
     width="128px"
     inkscape:guide-bbox="true"
     showguides="true"
     bordercolor="#666666"
     inkscape:window-x="1912"
     guidetolerance="10"
     objecttolerance="10"
     inkscape:window-y="-8"
     inkscape:window-width="1920"
     inkscape:pageopacity="0.0"
     inkscape:pageshadow="2"
     pagecolor="#ffffff"
     gridtolerance="10000"
     inkscape:document-units="px"
     inkscape:window-height="1017"
     inkscape:showpageshadow="2"
     inkscape:pagecheckerboard="0"
     inkscape:deskcolor="#d1d1d1"
     inkscape:window-maximized="1">
    <inkscape:grid
       id="grid3194"
       originy="-21.80945"
       originx="-5.4832217"
       spacingy="1"
       spacingx="1"
       type="xygrid" />
  </sodipodi:namedview>
  <g
     id="layer1"
     inkscape:label="Layer 1"
     inkscape:groupmode="layer"
     transform="translate(-238.90323,-33.54445)">
    <g
       id="g3321"
       transform="matrix(0.71287,0,0,0.71287,148.43,-234.5)">
      <g
         id="g3496">
        <path
           id="path3323"
           style="fill:url(#radialGradient3349);filter:url(#filter4112)"
           transform="matrix(1.0588,0,0,0.85714,-9.1176,72.48)"
           d="m 274,507.36 c 0,7.73 -30.46,14 -68,14 -37.54,0 -68,-6.27 -68,-14 0,-7.73 30.46,-14 68,-14 37.54,0 68,6.27 68,14 z" />
        <path
           id="path3325"
           d="m 305,531.36 c 0,4.85 -0.53,37.56 -1.54,42.11 -2.47,12.46 -10.48,19.63 -22.51,22.36 -5.59,1.04 -11.95,-21.82 -18.85,-21.95 -6.9,-0.13 -14.34,22.48 -22.1,22.48 -7.8,0 -15.27,-22.62 -22.2,-22.52 -6.93,0.11 -13.31,22.94 -18.91,21.86 -12.68,-2.1 -19.32,-10.78 -22.44,-22.64 -0.95,-4.42 -1.45,-37 -1.45,-41.7 0,-35.88 29.12,-65 65,-65 35.88,0 65,29.12 65,65 z"
           sodipodi:nodetypes="cccsssccssc"
           style="fill:#f5d054"
           transform="translate(-31,-85)" />
        <path
           id="rect3469"
           d="m 432.47,142.56 c -0.42,0 -0.83,0.02 -1.25,0.03 l 3.34,3.35 3.06,-3.06 c -1.68,-0.19 -3.41,-0.32 -5.15,-0.32 z m 2.09,3.38 -7.06,7.09 7.06,7.06 7.06,-7.06 z m 7.06,7.09 7.1,7.06 7.06,-7.06 -7.06,-7.09 z m 7.1,-7.09 0.31,-0.32 c -0.33,-0.12 -0.66,-0.25 -1,-0.37 z m 7.06,7.09 7.06,7.06 3.16,-3.15 c -2.31,-2.42 -4.87,-4.62 -7.66,-6.5 z m 7.06,7.06 -7.06,7.07 7.06,7.09 7.07,-7.09 z m 7.07,7.07 6.21,6.22 c -1.05,-2.97 -2.39,-5.79 -4,-8.44 z m -7.07,7.09 -7.06,7.06 7.06,7.07 7.07,-7.07 z m 7.07,7.06 7.09,7.07 1.75,-1.76 c -0.2,-4.14 -0.97,-8.15 -2.19,-11.93 z m 7.09,7.07 -7.09,7.06 7.09,7.09 1.59,-1.62 c 0.12,-4.73 0.21,-8.71 0.22,-10.72 z m 0,14.15 -7.09,7.06 7.09,7.07 1.03,-1.04 c 0.2,-2.92 0.38,-7.16 0.5,-11.56 z m 0,14.13 -7.09,7.06 3.97,3.97 c 1.84,-2.37 3.14,-5.29 3.84,-8.78 0.06,-0.29 0.13,-0.77 0.19,-1.35 z m -7.09,7.06 -7.07,-7.06 -7.06,7.06 7.06,7.09 z m -7.07,7.09 -3.15,3.19 c 0.68,0.64 1.35,0.97 2,0.84 1.41,-0.32 2.72,-0.72 3.97,-1.22 z m -7.06,-7.09 -7.06,-7.06 -7.1,7.06 0.79,0.78 c 2,-2.93 3.94,-5.32 5.84,-5.28 2.04,0.04 4.01,2.88 5.91,6.12 z m -14.16,0 -7.06,-7.06 -7.06,7.06 7.06,7.09 z m -7.06,7.09 -3.87,3.88 c 0.6,0.34 1.17,0.56 1.78,0.56 1.36,0 2.73,-1 4.06,-2.47 z m -7.06,-7.09 -7.06,-7.06 -2.75,2.72 c 2.11,0.84 4.29,4.21 6.53,7.62 z m -7.06,-7.06 7.06,-7.07 -7.06,-7.06 -7.1,7.06 z m -7.1,-7.07 -7.06,-7.06 -7.06,7.06 7.06,7.07 z m -7.06,7.07 -7.06,7.06 7.06,7.09 2.97,-2.97 c 1.01,-1.78 2.04,-3.59 3.09,-5.12 z m 0,14.15 -3.81,3.81 c 0.24,0.05 0.47,0.09 0.72,0.13 1.23,0.24 2.5,-1.15 3.84,-3.19 z m -7.06,-7.09 -7.1,-7.06 -4.24,4.25 c 1.18,3.51 2.88,6.55 5.24,8.9 z m -7.1,-7.06 7.1,-7.07 -7.1,-7.06 -5.59,5.59 c 0.04,1.09 0.09,2.07 0.13,3.07 z m 0,-14.13 7.1,-7.09 -7.1,-7.06 -5.9,5.9 c 0.01,0.72 0.02,1.58 0.03,2.38 z m 0,-14.15 7.1,-7.07 -7.1,-7.06 -4.93,4.94 c -0.26,1.19 -0.47,2.4 -0.63,3.62 z m 0,-14.13 7.1,-7.09 -4.75,-4.72 c -1.99,2.84 -3.66,5.92 -4.97,9.18 z m 7.1,-7.09 7.06,7.09 7.06,-7.09 -7.06,-7.07 z m 7.06,-7.07 7.06,-7.06 -4.15,-4.15 c -2.93,1.7 -5.65,3.71 -8.13,6 z m 7.06,-7.06 7.1,7.06 7.06,-7.06 -7.06,-7.09 z m 7.1,-7.09 2.34,-2.35 c -1.26,0.27 -2.5,0.6 -3.72,0.97 z m 0,14.15 -7.1,7.07 7.1,7.09 7.06,-7.09 z m 7.06,7.07 7.06,7.09 7.06,-7.09 -7.06,-7.07 z m 14.12,0 7.1,7.09 7.06,-7.09 -7.06,-7.07 z m 7.1,7.09 -7.1,7.06 7.1,7.07 7.06,-7.07 z m 0,14.13 -7.1,7.06 7.1,7.09 7.06,-7.09 z m 7.06,7.06 7.06,7.09 7.07,-7.09 -7.07,-7.06 z m 7.06,7.09 -7.06,7.06 7.06,7.07 7.07,-7.07 z m -7.06,7.06 -7.06,-7.06 -7.1,7.06 7.1,7.07 z m -14.16,0 -7.06,-7.06 -7.06,7.06 7.06,7.07 z m -7.06,-7.06 7.06,-7.09 -7.06,-7.06 -7.06,7.06 z m -7.06,-7.09 -7.06,-7.06 -7.1,7.06 7.1,7.09 z m -14.16,0 -7.06,-7.06 -7.06,7.06 7.06,7.09 z m -7.06,-7.06 7.06,-7.07 -7.06,-7.06 -7.06,7.06 z m 7.06,-7.07 7.1,7.07 7.06,-7.07 -7.06,-7.06 z m 14.16,0 7.06,7.07 7.06,-7.07 -7.06,-7.06 z"
           style="fill:#ff00ff"
           transform="matrix(1.4028,0,0,1.4028,-397.68,181.38)" />
        <path
           id="path3327"
           style="fill:url(#radialGradient3351)"
           sodipodi:nodetypes="cccsssccssc"
           transform="translate(-31,-85)"
           d="m 305,531.36 c 0,4.85 -0.53,37.56 -1.54,42.11 -2.47,12.46 -10.48,19.63 -22.51,22.36 -5.59,1.04 -11.95,-21.82 -18.85,-21.95 -6.9,-0.13 -14.34,22.48 -22.1,22.48 -7.8,0 -15.27,-22.62 -22.2,-22.52 -6.93,0.11 -13.31,22.94 -18.91,21.86 -12.68,-2.1 -19.32,-10.78 -22.44,-22.64 -0.95,-4.42 -1.45,-37 -1.45,-41.7 0,-35.88 29.12,-65 65,-65 35.88,0 65,29.12 65,65 z" />
        <g
           id="g3329"
           transform="translate(5,10)">
          <circle
             id="path3331"
             style="fill:#ffffff"
             transform="translate(4,7)"
             cx="239.5"
             cy="417.86218"
             r="15.5" />
          <circle
             id="path3333"
             style="fill:url(#radialGradient1770)"
             transform="translate(4,7)"
             cx="239.5"
             cy="417.86218"
             r="15.5" />
          <circle
             id="path3335"
             style="fill:#000000"
             transform="matrix(0.6129,0,0,0.6129,101.71,169.75)"
             cx="239.5"
             cy="417.86218"
             r="15.5" />
        </g>
        <g
           id="g3337"
           transform="translate(-35,10)">
          <circle
             id="path3339"
             style="fill:#ffffff"
             transform="translate(4,7)"
             cx="239.5"
             cy="417.86218"
             r="15.5" />
          <circle
             id="path3341"
             style="fill:url(#radialGradient3353)"
             transform="translate(4,7)"
             cx="239.5"
             cy="417.86218"
             r="15.5" />
          <circle
             id="path3343"
             style="fill:#000000"
             transform="matrix(0.6129,0,0,0.6129,101.71,169.75)"
             cx="239.5"
             cy="417.86218"
             r="15.5" />
        </g>
        <path
           id="path3345"
           style="fill:#ffffff;fill-opacity:0.62745;filter:url(#filter3730)"
           d="m 180.01,413.25 c -10.03,10.27 -20.41,16.42 -23.17,13.72 -2.77,-2.7 3.13,-13.23 13.15,-23.5 10.03,-10.27 20.41,-16.41 23.17,-13.71 2.77,2.7 -3.13,13.22 -13.15,23.49 z" />
        <path
           id="path3347"
           style="fill:#ffffff;fill-opacity:0.43439;filter:url(#filter4065)"
           transform="rotate(39.532819,265.34902,500.25775)"
           d="m 262,501.86 c 0,7.45 -2.46,13.5 -5.5,13.5 -3.04,0 -5.5,-6.05 -5.5,-13.5 0,-7.45 2.46,-13.5 5.5,-13.5 3.04,0 5.5,6.05 5.5,13.5 z" />
      </g>
    </g>
  </g>
  <metadata
     id="metadata733">
    <rdf:RDF>
      <cc:Work>
        <dc:format>image/svg+xml</dc:format>
        <dc:type
           rdf:resource="http://purl.org/dc/dcmitype/StillImage" />
        <cc:license
           rdf:resource="http://creativecommons.org/licenses/publicdomain/" />
        <dc:publisher>
          <cc:Agent
             rdf:about="http://openclipart.org/">
            <dc:title>Openclipart</dc:title>
          </cc:Agent>
        </dc:publisher>
        <dc:title>Game baddie: Squared</dc:title>
        <dc:date>2008-02-04T15:16:22</dc:date>
        <dc:description>Bad guy for arcade games, inspired from the classic Pac-Man: square (diamond) texture</dc:description>
        <dc:source>https://openclipart.org/detail/12580/game-baddie:-squared-by-nicubunu</dc:source>
        <dc:creator>
          <cc:Agent>
            <dc:title>nicubunu</dc:title>
          </cc:Agent>
        </dc:creator>
        <dc:subject>
          <rdf:Bag>
            <rdf:li>arcade</rdf:li>
            <rdf:li>baddie</rdf:li>
            <rdf:li>funny</rdf:li>
            <rdf:li>game</rdf:li>
          </rdf:Bag>
        </dc:subject>
      </cc:Work>
      <cc:License
         rdf:about="http://creativecommons.org/licenses/publicdomain/">
        <cc:permits
           rdf:resource="http://creativecommons.org/ns#Reproduction" />
        <cc:permits
           rdf:resource="http://creativecommons.org/ns#Distribution" />
        <cc:permits
           rdf:resource="http://creativecommons.org/ns#DerivativeWorks" />
      </cc:License>
    </rdf:RDF>
  </metadata>
</svg>
