<svg version="1.0" width="117.026" height="108.009" xmlns:xlink="http://www.w3.org/1999/xlink" xmlns="http://www.w3.org/2000/svg"><defs><radialGradient id="prefix__b" gradientUnits="userSpaceOnUse" cy="506.35" cx="210.89" gradientTransform="matrix(1.4028 0 0 .20588 -89.845 403.11)" r="68"><stop offset="0"/><stop offset="1" stop-opacity="0"/></radialGradient><radialGradient id="prefix__d" xlink:href="#prefix__a" gradientUnits="userSpaceOnUse" cy="497.96" cx="216.99" gradientTransform="matrix(.7158 1.4128 -1.3538 .68592 735.84 -155.77)" r="65"/><radialGradient id="prefix__f" xlink:href="#prefix__a" gradientUnits="userSpaceOnUse" cy="409.86" cx="233.5" gradientTransform="matrix(.3871 1.5161 -1.4234 .36342 726.51 -93.107)" r="15.5"/><radialGradient xlink:href="#prefix__a" id="prefix__e" gradientUnits="userSpaceOnUse" gradientTransform="matrix(.3871 1.5161 -1.4234 .36342 726.51 -93.107)" cx="233.5" cy="409.86" r="15.5"/><filter id="prefix__g" height="1.682" width="1.696" y="-.341" x="-.348"><feGaussianBlur stdDeviation="5.465"/></filter><filter id="prefix__h" height="1.738" width="2.811" y="-.369" x="-.906"><feGaussianBlur stdDeviation="4.151"/></filter><filter id="prefix__c" height="1.68" width="1.14" y="-.34" x="-.07"><feGaussianBlur stdDeviation="3.968"/></filter><linearGradient id="prefix__a"><stop offset="0" stop-opacity="0"/><stop offset="1" stop-opacity=".572"/></linearGradient></defs><path transform="matrix(.75479 0 0 .61103 -96.973 -216.376)" d="M274 507.36c0 7.73-30.46 14-68 14s-68-6.27-68-14 30.46-14 68-14 68 6.27 68 14z" fill="url(#prefix__b)" filter="url(#prefix__c)"/><path d="M104.853 50.152c0 3.458-.378 26.776-1.098 30.02-1.76 8.882-7.47 13.993-16.046 15.939-3.985.741-8.52-15.555-13.438-15.648-4.919-.092-10.223 16.026-15.754 16.026-5.56 0-10.886-16.125-15.826-16.054-4.94.078-9.488 16.353-13.48 15.583-9.04-1.497-13.773-7.684-15.997-16.14-.678-3.15-1.034-26.375-1.034-29.726 0-25.578 20.759-46.336 46.337-46.336 25.577 0 46.336 20.758 46.336 46.336z" fill="#f5d054"/><path d="M58.509 3.818c-.42 0-.83.02-1.25.03l3.34 3.35 3.06-3.06c-1.68-.19-3.41-.32-5.15-.32zm2.09 3.38l-7.06 7.09 7.06 7.06 7.06-7.06zm7.06 7.09l7.1 7.06 7.06-7.06-7.06-7.09zm7.1-7.09l.31-.32c-.33-.12-.66-.25-1-.37zm7.06 7.09l7.06 7.06 3.16-3.15c-2.31-2.42-4.87-4.62-7.66-6.5zm7.06 7.06l-7.06 7.07 7.06 7.09 7.07-7.09zm7.07 7.07l6.21 6.22a45.336 45.336 0 00-4-8.44zm-7.07 7.09l-7.06 7.06 7.06 7.07 7.07-7.07zm7.07 7.06l7.09 7.07 1.75-1.76c-.2-4.14-.97-8.15-2.19-11.93zm7.09 7.07l-7.09 7.06 7.09 7.09 1.59-1.62c.12-4.73.21-8.71.22-10.72zm0 14.15l-7.09 7.06 7.09 7.071 1.03-1.04c.2-2.92.38-7.16.5-11.56zm0 14.131l-7.09 7.06 3.97 3.97c1.84-2.37 3.14-5.29 3.84-8.78.06-.29.13-.77.19-1.35zm-7.09 7.06l-7.07-7.06-7.06 7.06 7.06 7.09zm-7.07 7.09l-3.15 3.19c.68.64 1.35.97 2 .84 1.41-.32 2.72-.72 3.97-1.22zm-7.06-7.09l-7.06-7.06-7.1 7.06.79.78c2-2.93 3.94-5.32 5.84-5.28 2.04.04 4.01 2.88 5.91 6.12zm-14.16 0l-7.06-7.06-7.06 7.06 7.06 7.09zm-7.06 7.09l-3.87 3.88c.6.34 1.17.56 1.78.56 1.36 0 2.73-1 4.06-2.47zm-7.06-7.09l-7.06-7.06-2.75 2.72c2.11.84 4.29 4.21 6.53 7.62zm-7.06-7.06l7.06-7.07-7.06-7.06-7.1 7.06zm-7.1-7.07l-7.06-7.06-7.06 7.06 7.06 7.07zm-7.06 7.07l-7.06 7.06 7.06 7.09 2.97-2.97c1.01-1.78 2.04-3.59 3.09-5.12zm0 14.15l-3.81 3.81c.24.05.47.09.72.13 1.23.24 2.5-1.15 3.84-3.19zm-7.06-7.09l-7.1-7.06-4.24 4.25c1.18 3.51 2.88 6.55 5.24 8.9zm-7.1-7.06l7.1-7.07-7.1-7.06-5.59 5.59c.04 1.09.09 2.07.13 3.07zm0-14.13l7.1-7.09-7.1-7.06-5.901 5.9.03 2.38zm0-14.15l7.1-7.07-7.1-7.06-4.93 4.94c-.26 1.19-.47 2.4-.63 3.62zm0-14.13l7.1-7.09-4.75-4.72a45.672 45.672 0 00-4.97 9.18zm7.1-7.09l7.06 7.09 7.06-7.09-7.06-7.07zm7.06-7.07l7.06-7.06-4.15-4.151a46.01 46.01 0 00-8.13 6zm7.06-7.06l7.1 7.06 7.06-7.06-7.06-7.091zm7.1-7.091l2.34-2.35c-1.26.27-2.5.6-3.72.97zm0 14.15l-7.1 7.07 7.1 7.09 7.06-7.09zm7.06 7.07l7.06 7.09 7.06-7.09-7.06-7.07zm14.12 0l7.1 7.09 7.06-7.09-7.06-7.07zm7.1 7.09l-7.1 7.06 7.1 7.07 7.06-7.07zm0 14.13l-7.1 7.06 7.1 7.09 7.06-7.09zm7.06 7.06l7.06 7.09 7.07-7.09-7.07-7.06zm7.06 7.09l-7.06 7.06 7.06 7.071 7.07-7.07zm-7.06 7.06l-7.06-7.06-7.1 7.06 7.1 7.071zm-14.16 0l-7.06-7.06-7.06 7.06 7.06 7.071zm-7.06-7.06l7.06-7.09-7.06-7.06-7.06 7.06zm-7.06-7.09l-7.06-7.06-7.1 7.06 7.1 7.09zm-14.16 0l-7.06-7.06-7.06 7.06 7.06 7.09zm-7.06-7.06l7.06-7.07-7.06-7.06-7.06 7.06zm7.06-7.07l7.1 7.07 7.06-7.07-7.06-7.06zm14.16 0l7.06 7.07 7.06-7.07-7.06-7.06z" fill="#f0f"/><path transform="translate(-112.572 -328.638) scale(.71287)" d="M305 531.36c0 4.85-.53 37.56-1.54 42.11-2.47 12.46-10.48 19.63-22.51 22.36-5.59 1.04-11.95-21.82-18.85-21.95-6.9-.13-14.34 22.48-22.1 22.48-7.8 0-15.27-22.62-22.2-22.52-6.93.11-13.31 22.94-18.91 21.86-12.68-2.1-19.32-10.78-22.44-22.64-.95-4.42-1.45-37-1.45-41.7 0-35.88 29.12-65 65-65 35.88 0 65 29.12 65 65z" fill="url(#prefix__d)"/><g transform="translate(-86.909 -260.916) scale(.71287)"><circle transform="translate(4 7)" cx="239.5" cy="417.862" r="15.5" fill="#fff"/><circle transform="translate(4 7)" cx="239.5" cy="417.862" r="15.5" fill="url(#prefix__e)"/><circle transform="translate(101.71 169.75) scale(.6129)" cx="239.5" cy="417.862" r="15.5"/></g><g transform="translate(-115.424 -260.916) scale(.71287)"><circle transform="translate(4 7)" cx="239.5" cy="417.862" r="15.5" fill="#fff"/><circle transform="translate(4 7)" cx="239.5" cy="417.862" r="15.5" fill="url(#prefix__f)"/><circle transform="translate(101.71 169.75) scale(.6129)" cx="239.5" cy="417.862" r="15.5"/></g><path d="M180.01 413.25c-10.03 10.27-20.41 16.42-23.17 13.72-2.77-2.7 3.13-13.23 13.15-23.5 10.03-10.27 20.41-16.41 23.17-13.71 2.77 2.7-3.13 13.22-13.15 23.49z" fill="#fff" fill-opacity=".627" filter="url(#prefix__g)" transform="translate(-90.473 -268.044) scale(.71287)"/><path transform="rotate(39.533 516.87 96.715) scale(.71287)" d="M262 501.86c0 7.45-2.46 13.5-5.5 13.5s-5.5-6.05-5.5-13.5 2.46-13.5 5.5-13.5 5.5 6.05 5.5 13.5z" fill="#fff" fill-opacity=".434" filter="url(#prefix__h)"/></svg>