<?xml version="1.0" encoding="UTF-8"?>
<svg width="23.745mm" height="37.042mm" version="1.1" viewBox="0 0 84.135 131.25" xmlns="http://www.w3.org/2000/svg"><g transform="translate(0 195.64)"><g transform="matrix(.10517 0 0 .10517 0 -175.06)"><path d="m20 192.36h760v10h-760z" fill="#faa"/><path d="m20 202.36h760v800h-760z" fill="#ffd5d5"/><path d="m710 122.36h70v80h-70z" fill="#ffd5d5"/><path d="m720 117.36h50v85h-50z" fill="#faa"/><path d="m20 122.36h70v80h-70z" fill="#ffd5d5"/><path d="m30 117.36h50v85h-50z" fill="#faa"/><path d="m0 1002.4h800v50h-800z" fill="#1a1a1a"/><path d="m5 932.36h790v70h-790z" fill="#1a1a1a"/><path d="m5 912.36h790v20h-790z" fill="#faa"/><path d="m5 919.36h790v6h-790z" fill="#ffd5d5"/><path d="m250 157.36h300v755h-300z" fill="#ff8080"/><path d="m258 147.36h284v765h-284z" fill="#faa"/><path d="m320 7.3622h160v905h-160z" fill="#ff8080"/><path d="m333.1-42.638h133.8v955h-133.8z" fill="#faa"/><path d="m275 117.36h58v795h-58z" fill="#ffd5d5"/><path d="m280 111.36h48v801h-48z" fill="#faa"/><path d="m467 117.36h58v795h-58z" fill="#ffd5d5"/><path d="m472 111.36h48v801h-48z" fill="#faa"/><path d="m280 702.36h240v350h-240v-120z" fill="#1a1a1a"/><path d="m330 912.36v-180h140v180z" fill="#008080"/><path d="m470 882.36v20h-140v-20z" fill="#1a1a1a"/><path d="m330 1052.4v-120h140v120z" fill="#520"/><g><path d="m470 902.36v30h-140v-30z"/><path d="m380 962.36v90h-10v-90z"/><path d="m380 932.36v120h-10v-120z"/><path d="m430 932.36v120h-10v-120z"/><path d="m382 1042.4v10h-14v-10z"/><path d="m432 1042.4v10h-14v-10z"/></g><path d="m5 158.36h30v754h-30z" fill="#faa"/><path d="m7 155.36h26v757h-26z" fill="#ffd5d5"/><path d="m9 153.36h22v759h-22z" fill="#faa"/><path d="m11 151.36h18v761h-18z" fill="#ffd5d5"/><path d="m75 158.36h30v754h-30z" fill="#faa"/><path d="m77 155.36h26v757h-26z" fill="#ffd5d5"/><path d="m79 153.36h22v759h-22z" fill="#faa"/><path d="m81 151.36h18v761h-18z" fill="#ffd5d5"/><path d="m695 158.36h30v754h-30z" fill="#faa"/><path d="m697 155.36h26v757h-26z" fill="#ffd5d5"/><path d="m699 153.36h22v759h-22z" fill="#faa"/><path d="m701 151.36h18v761h-18z" fill="#ffd5d5"/><path d="m765 158.36h30v754h-30z" fill="#faa"/><path d="m767 155.36h26v757h-26z" fill="#ffd5d5"/><path d="m769 153.36h22v759h-22z" fill="#faa"/><path d="m771 151.36h18v761h-18z" fill="#ffd5d5"/><g fill="#ff8080"><path d="m46 82.362h18v200h-18z"/><path d="m736 82.362h18v200h-18z"/><path d="m388-92.638h24v795h-24z"/></g><g transform="translate(95)"><path d="m238 642.36h55v60h-55z"/><g fill="#aef"><path d="m240 664.36h15v36h-15z"/><path d="m276 664.36h15v36h-15z"/><path d="m258 664.36h15v36h-15z"/><path d="m240 644.36h15v18h-15z"/><path d="m258 644.36h15v18h-15z"/><path d="m276 644.36h15v18h-15z"/></g></g><g transform="translate(105)"><path d="m307 642.36h55v60h-55z"/><g fill="#aef"><path d="m309 664.36h15v36h-15z"/><path d="m345 664.36h15v36h-15z"/><path d="m327 664.36h15v36h-15z"/><path d="m309 644.36h15v18h-15z"/><path d="m327 644.36h15v18h-15z"/><path d="m345 644.36h15v18h-15z"/></g></g><g transform="translate(95)"><path d="m238 522.36h55v60h-55z"/><g fill="#aef"><path d="m240 544.36h15v36h-15z"/><path d="m276 544.36h15v36h-15z"/><path d="m258 544.36h15v36h-15z"/><path d="m240 524.36h15v18h-15z"/><path d="m258 524.36h15v18h-15z"/><path d="m276 524.36h15v18h-15z"/></g></g><g transform="translate(105)"><path d="m307 522.36h55v60h-55z"/><g fill="#aef"><path d="m309 544.36h15v36h-15z"/><path d="m345 544.36h15v36h-15z"/><path d="m327 544.36h15v36h-15z"/><path d="m309 524.36h15v18h-15z"/><path d="m327 524.36h15v18h-15z"/><path d="m345 524.36h15v18h-15z"/></g></g><g transform="translate(95)"><path d="m238 402.36h55v60h-55z"/><g fill="#aef"><path d="m240 424.36h15v36h-15z"/><path d="m276 424.36h15v36h-15z"/><path d="m258 424.36h15v36h-15z"/><path d="m240 404.36h15v18h-15z"/><path d="m258 404.36h15v18h-15z"/><path d="m276 404.36h15v18h-15z"/></g></g><g transform="translate(105)"><path d="m307 402.36h55v60h-55z"/><g fill="#aef"><path d="m309 424.36h15v36h-15z"/><path d="m345 424.36h15v36h-15z"/><path d="m327 424.36h15v36h-15z"/><path d="m309 404.36h15v18h-15z"/><path d="m327 404.36h15v18h-15z"/><path d="m345 404.36h15v18h-15z"/></g></g><g transform="translate(95)"><path d="m238 282.36h55v60h-55z"/><g fill="#aef"><path d="m240 304.36h15v36h-15z"/><path d="m276 304.36h15v36h-15z"/><path d="m258 304.36h15v36h-15z"/><path d="m240 284.36h15v18h-15z"/><path d="m258 284.36h15v18h-15z"/><path d="m276 284.36h15v18h-15z"/></g></g><g transform="translate(105)"><path d="m307 282.36h55v60h-55z"/><g fill="#aef"><path d="m309 304.36h15v36h-15z"/><path d="m345 304.36h15v36h-15z"/><path d="m327 304.36h15v36h-15z"/><path d="m309 284.36h15v18h-15z"/><path d="m327 284.36h15v18h-15z"/><path d="m345 284.36h15v18h-15z"/></g></g><g transform="translate(243)"><path d="m307 282.36h55v60h-55z"/><g fill="#aef"><path d="m309 304.36h15v36h-15z"/><path d="m345 304.36h15v36h-15z"/><path d="m327 304.36h15v36h-15z"/><path d="m309 284.36h15v18h-15z"/><path d="m327 284.36h15v18h-15z"/><path d="m345 284.36h15v18h-15z"/></g></g><g transform="translate(333)"><path d="m307 282.36h55v60h-55z"/><g fill="#aef"><path d="m309 304.36h15v36h-15z"/><path d="m345 304.36h15v36h-15z"/><path d="m327 304.36h15v36h-15z"/><path d="m309 284.36h15v18h-15z"/><path d="m327 284.36h15v18h-15z"/><path d="m345 284.36h15v18h-15z"/></g></g><g transform="translate(-202)"><path d="m307 282.36h55v60h-55z"/><g fill="#aef"><path d="m309 304.36h15v36h-15z"/><path d="m345 304.36h15v36h-15z"/><path d="m327 304.36h15v36h-15z"/><path d="m309 284.36h15v18h-15z"/><path d="m327 284.36h15v18h-15z"/><path d="m345 284.36h15v18h-15z"/></g></g><g transform="translate(-112)"><path d="m307 282.36h55v60h-55z"/><g fill="#aef"><path d="m309 304.36h15v36h-15z"/><path d="m345 304.36h15v36h-15z"/><path d="m327 304.36h15v36h-15z"/><path d="m309 284.36h15v18h-15z"/><path d="m327 284.36h15v18h-15z"/><path d="m345 284.36h15v18h-15z"/></g></g><g transform="translate(243,120)"><path d="m307 282.36h55v60h-55z"/><g fill="#aef"><path d="m309 304.36h15v36h-15z"/><path d="m345 304.36h15v36h-15z"/><path d="m327 304.36h15v36h-15z"/><path d="m309 284.36h15v18h-15z"/><path d="m327 284.36h15v18h-15z"/><path d="m345 284.36h15v18h-15z"/></g></g><g transform="translate(333,120)"><path d="m307 282.36h55v60h-55z"/><g fill="#aef"><path d="m309 304.36h15v36h-15z"/><path d="m345 304.36h15v36h-15z"/><path d="m327 304.36h15v36h-15z"/><path d="m309 284.36h15v18h-15z"/><path d="m327 284.36h15v18h-15z"/><path d="m345 284.36h15v18h-15z"/></g></g><g transform="translate(-202,120)"><path d="m307 282.36h55v60h-55z"/><g fill="#aef"><path d="m309 304.36h15v36h-15z"/><path d="m345 304.36h15v36h-15z"/><path d="m327 304.36h15v36h-15z"/><path d="m309 284.36h15v18h-15z"/><path d="m327 284.36h15v18h-15z"/><path d="m345 284.36h15v18h-15z"/></g></g><g transform="translate(-112,120)"><path d="m307 282.36h55v60h-55z"/><g fill="#aef"><path d="m309 304.36h15v36h-15z"/><path d="m345 304.36h15v36h-15z"/><path d="m327 304.36h15v36h-15z"/><path d="m309 284.36h15v18h-15z"/><path d="m327 284.36h15v18h-15z"/><path d="m345 284.36h15v18h-15z"/></g></g><g transform="translate(243,240)"><path d="m307 282.36h55v60h-55z"/><g fill="#aef"><path d="m309 304.36h15v36h-15z"/><path d="m345 304.36h15v36h-15z"/><path d="m327 304.36h15v36h-15z"/><path d="m309 284.36h15v18h-15z"/><path d="m327 284.36h15v18h-15z"/><path d="m345 284.36h15v18h-15z"/></g></g><g transform="translate(333,240)"><path d="m307 282.36h55v60h-55z"/><g fill="#aef"><path d="m309 304.36h15v36h-15z"/><path d="m345 304.36h15v36h-15z"/><path d="m327 304.36h15v36h-15z"/><path d="m309 284.36h15v18h-15z"/><path d="m327 284.36h15v18h-15z"/><path d="m345 284.36h15v18h-15z"/></g></g><g transform="translate(-202,240)"><path d="m307 282.36h55v60h-55z"/><g fill="#aef"><path d="m309 304.36h15v36h-15z"/><path d="m345 304.36h15v36h-15z"/><path d="m327 304.36h15v36h-15z"/><path d="m309 284.36h15v18h-15z"/><path d="m327 284.36h15v18h-15z"/><path d="m345 284.36h15v18h-15z"/></g></g><g transform="translate(-112,240)"><path d="m307 282.36h55v60h-55z"/><g fill="#aef"><path d="m309 304.36h15v36h-15z"/><path d="m345 304.36h15v36h-15z"/><path d="m327 304.36h15v36h-15z"/><path d="m309 284.36h15v18h-15z"/><path d="m327 284.36h15v18h-15z"/><path d="m345 284.36h15v18h-15z"/></g></g><g transform="translate(243,360)"><path d="m307 282.36h55v60h-55z"/><g fill="#aef"><path d="m309 304.36h15v36h-15z"/><path d="m345 304.36h15v36h-15z"/><path d="m327 304.36h15v36h-15z"/><path d="m309 284.36h15v18h-15z"/><path d="m327 284.36h15v18h-15z"/><path d="m345 284.36h15v18h-15z"/></g></g><g transform="translate(333,360)"><path d="m307 282.36h55v60h-55z"/><g fill="#aef"><path d="m309 304.36h15v36h-15z"/><path d="m345 304.36h15v36h-15z"/><path d="m327 304.36h15v36h-15z"/><path d="m309 284.36h15v18h-15z"/><path d="m327 284.36h15v18h-15z"/><path d="m345 284.36h15v18h-15z"/></g></g><g transform="translate(-202,360)"><path d="m307 282.36h55v60h-55z"/><g fill="#aef"><path d="m309 304.36h15v36h-15z"/><path d="m345 304.36h15v36h-15z"/><path d="m327 304.36h15v36h-15z"/><path d="m309 284.36h15v18h-15z"/><path d="m327 284.36h15v18h-15z"/><path d="m345 284.36h15v18h-15z"/></g></g><g transform="translate(-112,360)"><path d="m307 282.36h55v60h-55z"/><g fill="#aef"><path d="m309 304.36h15v36h-15z"/><path d="m345 304.36h15v36h-15z"/><path d="m327 304.36h15v36h-15z"/><path d="m309 284.36h15v18h-15z"/><path d="m327 284.36h15v18h-15z"/><path d="m345 284.36h15v18h-15z"/></g></g><g transform="translate(100)"><path d="m5 772.36h55v110h-55z"/><g fill="#aef"><path d="m7 794.36h15v86h-15z"/><path d="m43 794.36h15v86h-15z"/><path d="m25 794.36h15v86h-15z"/><path d="m7 774.36h15v18h-15z"/><path d="m25 774.36h15v18h-15z"/><path d="m43 774.36h15v18h-15z"/></g><path d="m95 772.36h55v110h-55z"/><g fill="#aef"><path d="m97 794.36h15v86h-15z"/><path d="m133 794.36h15v86h-15z"/><path d="m115 794.36h15v86h-15z"/><path d="m97 774.36h15v18h-15z"/><path d="m115 774.36h15v18h-15z"/><path d="m133 774.36h15v18h-15z"/></g></g><path d="m162.5 178.36h30v734h-30z" fill="#faa"/><path d="m168.5 172.36h18v740h-18z" fill="#ff8080"/><path d="m607.5 178.36h30v734h-30z" fill="#faa"/><path d="m613.5 172.36h18v740h-18z" fill="#ff8080"/><g transform="translate(545)"><path d="m5 772.36h55v110h-55z"/><g fill="#aef"><path d="m7 794.36h15v86h-15z"/><path d="m43 794.36h15v86h-15z"/><path d="m25 794.36h15v86h-15z"/><path d="m7 774.36h15v18h-15z"/><path d="m25 774.36h15v18h-15z"/><path d="m43 774.36h15v18h-15z"/></g><path d="m95 772.36h55v110h-55z"/><g fill="#aef"><path d="m97 794.36h15v86h-15z"/><path d="m133 794.36h15v86h-15z"/><path d="m115 794.36h15v86h-15z"/><path d="m97 774.36h15v18h-15z"/><path d="m115 774.36h15v18h-15z"/><path d="m133 774.36h15v18h-15z"/></g></g><path d="m35 282.36h40v60h-40z"/><g fill="#aef"><path d="m37 304.36h17v36h-17z"/><path d="m56 304.36h17v36h-17z"/><path d="m37 284.36h17v18h-17z"/><path d="m56 284.36h17v18h-17z"/></g><path d="m392-122.64h16v825h-16z" fill="#ffd5d5"/><path d="m35 402.36h40v60h-40z"/><g fill="#aef"><path d="m37 424.36h17v36h-17z"/><path d="m56 424.36h17v36h-17z"/><path d="m37 404.36h17v18h-17z"/><path d="m56 404.36h17v18h-17z"/></g><path d="m35 522.36h40v60h-40z"/><g fill="#aef"><path d="m37 544.36h17v36h-17z"/><path d="m56 544.36h17v36h-17z"/><path d="m37 524.36h17v18h-17z"/><path d="m56 524.36h17v18h-17z"/></g><path d="m35 642.36h40v60h-40z"/><g fill="#aef"><path d="m37 664.36h17v36h-17z"/><path d="m56 664.36h17v36h-17z"/><path d="m37 644.36h17v18h-17z"/><path d="m56 644.36h17v18h-17z"/></g><path d="m35 772.36h40v110h-40z"/><g fill="#aef"><path d="m37 794.36h17v86h-17z"/><path d="m56 794.36h17v86h-17z"/><path d="m37 774.36h17v18h-17z"/><path d="m56 774.36h17v18h-17z"/></g><path d="m725 282.36h40v60h-40z"/><g fill="#aef"><path d="m727 304.36h17v36h-17z"/><path d="m746 304.36h17v36h-17z"/><path d="m727 284.36h17v18h-17z"/><path d="m746 284.36h17v18h-17z"/></g><path d="m725 402.36h40v60h-40z"/><g fill="#aef"><path d="m727 424.36h17v36h-17z"/><path d="m746 424.36h17v36h-17z"/><path d="m727 404.36h17v18h-17z"/><path d="m746 404.36h17v18h-17z"/></g><path d="m725 522.36h40v60h-40z"/><g fill="#aef"><path d="m727 544.36h17v36h-17z"/><path d="m746 544.36h17v36h-17z"/><path d="m727 524.36h17v18h-17z"/><path d="m746 524.36h17v18h-17z"/></g><path d="m725 642.36h40v60h-40z"/><g fill="#aef"><path d="m727 664.36h17v36h-17z"/><path d="m746 664.36h17v36h-17z"/><path d="m727 644.36h17v18h-17z"/><path d="m746 644.36h17v18h-17z"/></g><path d="m725 772.36h40v110h-40z"/><g fill="#aef"><path d="m727 794.36h17v86h-17z"/><path d="m746 794.36h17v86h-17z"/><path d="m727 774.36h17v18h-17z"/><path d="m746 774.36h17v18h-17z"/></g><g fill="#ff8080"><path d="m129.5 202.36h6v80h-6z"/><path d="m219.5 202.36h6v80h-6z"/><path d="m573.5 202.36h6v80h-6z"/><path d="m663.5 202.36h6v80h-6z"/></g><path d="m348-47.638h25v330h-25z" fill="#faa"/><path d="m348-47.638h5v330h-5z" fill="#ff8080"/><path d="m368-47.638h5v330h-5z" fill="#ff8080"/><path d="m427-47.638h25v330h-25z" fill="#faa"/><path d="m427-47.638h5v330h-5z" fill="#ff8080"/><path d="m447-47.638h5v330h-5z" fill="#ff8080"/><g fill="#acf"><path d="m353 12.362h15v64h-15z"/><path d="m353 92.362h15v64h-15z"/><path d="m432 12.362h15v64h-15z"/><path d="m432 92.362h15v64h-15z"/></g><g transform="translate(-202,660)"><path d="m307 282.36h55v60h-55z"/><g fill="#aef"><path d="m309 304.36h15v36h-15z"/><path d="m345 304.36h15v36h-15z"/><path d="m327 304.36h15v36h-15z"/><path d="m309 284.36h15v18h-15z"/><path d="m327 284.36h15v18h-15z"/><path d="m345 284.36h15v18h-15z"/></g></g><g transform="translate(243 660)"><path d="m307 282.36h55v60h-55z"/><g fill="#aef"><path d="m309 304.36h15v36h-15z"/><path d="m345 304.36h15v36h-15z"/><path d="m327 304.36h15v36h-15z"/><path d="m309 284.36h15v18h-15z"/><path d="m327 284.36h15v18h-15z"/><path d="m345 284.36h15v18h-15z"/></g></g><g transform="translate(333 660)"><path d="m307 282.36h55v60h-55z"/><g fill="#aef"><path d="m309 304.36h15v36h-15z"/><path d="m345 304.36h15v36h-15z"/><path d="m327 304.36h15v36h-15z"/><path d="m309 284.36h15v18h-15z"/><path d="m327 284.36h15v18h-15z"/><path d="m345 284.36h15v18h-15z"/></g></g><g transform="translate(-112 660)"><path d="m307 282.36h55v60h-55z"/><g fill="#aef"><path d="m309 304.36h15v36h-15z"/><path d="m345 304.36h15v36h-15z"/><path d="m327 304.36h15v36h-15z"/><path d="m309 284.36h15v18h-15z"/><path d="m327 284.36h15v18h-15z"/><path d="m345 284.36h15v18h-15z"/></g></g><path d="m404 42.362h-8l4e-3 -230c-0.648-0.8645-1.0019-1.9172-1.0039-3 0-2.7614 2.2386-5 5-5s5 2.2386 5 5c-2e-3 1.0828-0.35591 2.1355-1.0039 3z" fill="#28170b"/><path d="m392-37.638h16v50h-16z" fill="#f55"/><path d="m392-65.638h16v10h-16z" fill="#f55"/><g fill="#1a1a1a"><path d="m392-1.6378h16v8h-16z"/><path d="m392-11.638h16v8h-16z"/><path d="m392-21.638h16v8h-16z"/><path d="m392-31.638h16v8h-16z"/></g><g fill="#fd5"><path d="m392-30.638h16v6h-16z"/><path d="m392-20.638h16v6h-16z"/><path d="m392-10.638h16v6h-16z"/><path d="m392-0.6378h16v6h-16z"/></g><path d="m392-64.638h16v8h-16z" fill="#1a1a1a"/><path d="m392-63.638h16v6h-16z" fill="#fd5"/></g></g></svg>
