<svg version="1.1" xmlns="http://www.w3.org/2000/svg" xmlns:xlink="http://www.w3.org/1999/xlink" width="102.6528" height="121.66159" viewBox="0,0,102.6528,121.66159"><defs><radialGradient cx="239.99352" cy="229.36561" r="72.00067" gradientUnits="userSpaceOnUse" id="color-1"><stop offset="0" stop-color="#000000"/><stop offset="1" stop-color="#000000" stop-opacity="0"/></radialGradient><radialGradient cx="223.60852" cy="158.08467" r="73.39036" gradientUnits="userSpaceOnUse" id="color-2"><stop offset="0" stop-color="#000000" stop-opacity="0"/><stop offset="1" stop-color="#000000" stop-opacity="0.57196"/></radialGradient><radialGradient cx="263.89006" cy="171.97731" r="17.28955" gradientUnits="userSpaceOnUse" id="color-3"><stop offset="0" stop-color="#000000" stop-opacity="0"/><stop offset="1" stop-color="#000000" stop-opacity="0.57196"/></radialGradient><radialGradient cx="238.22154" cy="176.9674" r="17.28955" gradientUnits="userSpaceOnUse" id="color-4"><stop offset="0" stop-color="#000000" stop-opacity="0"/><stop offset="1" stop-color="#000000" stop-opacity="0.57196"/></radialGradient><radialGradient cx="226.75122" cy="143.10187" r="33.87004" gradientUnits="userSpaceOnUse" id="color-5"><stop offset="0" stop-color="#000000" stop-opacity="0"/><stop offset="1" stop-color="#000000" stop-opacity="0.57196"/></radialGradient><radialGradient cx="226.70965" cy="131.44195" r="34.56005" gradientUnits="userSpaceOnUse" id="color-6"><stop offset="0" stop-color="#000000" stop-opacity="0"/><stop offset="1" stop-color="#000000" stop-opacity="0.57196"/></radialGradient><radialGradient cx="242.07175" cy="134.84393" r="15.11439" gradientUnits="userSpaceOnUse" id="color-7"><stop offset="0" stop-color="#000000" stop-opacity="0"/><stop offset="1" stop-color="#000000" stop-opacity="0.57196"/></radialGradient><radialGradient cx="229.518" cy="117.91046" r="10.50234" gradientUnits="userSpaceOnUse" id="color-8"><stop offset="0" stop-color="#000000" stop-opacity="0"/><stop offset="1" stop-color="#000000" stop-opacity="0.57196"/></radialGradient><radialGradient cx="232.65415" cy="150.13431" r="24.63393" gradientUnits="userSpaceOnUse" id="color-9"><stop offset="0" stop-color="#000000" stop-opacity="0"/><stop offset="1" stop-color="#000000" stop-opacity="0.57196"/></radialGradient><radialGradient cx="227.87177" cy="196.57137" r="61.29875" gradientUnits="userSpaceOnUse" id="color-10"><stop offset="0" stop-color="#000000" stop-opacity="0"/><stop offset="1" stop-color="#000000" stop-opacity="0.57196"/></radialGradient><radialGradient cx="274.25095" cy="209.75799" r="12.19545" gradientUnits="userSpaceOnUse" id="color-11"><stop offset="0" stop-color="#000000" stop-opacity="0"/><stop offset="1" stop-color="#000000" stop-opacity="0.57196"/></radialGradient></defs><g transform="translate(-188.6736,-116.25985)"><g data-paper-data="{&quot;isPaintingLayer&quot;:true}" stroke="none" stroke-width="1" stroke-linecap="butt" stroke-linejoin="miter" stroke-miterlimit="10" stroke-dasharray="" stroke-dashoffset="0" style="mix-blend-mode: normal"><path d="M291.3264,229.36702c0,4.72326 -22.99121,8.55442 -51.3264,8.55442c-28.33519,0 -51.3264,-3.83116 -51.3264,-8.55442c0,-4.72326 22.99121,-8.55442 51.3264,-8.55442c28.33519,0 51.3264,3.83116 51.3264,8.55442z" fill="url(#color-1)" fill-rule="nonzero"/><path d="M286.3412,185.87984c0,3.453 -0.38,26.775 -1.1,30.015c-1.76,8.88 -7.47,14 -16.05,15.94c-3.98,0.74 -8.51,-15.56 -13.43,-15.65c-4.92,-0.09 -10.23,16.03 -15.76,16.03c-5.56,0 -10.89,-16.13 -15.83,-16.05c-4.93,0.07 -9.48,16.35 -13.48,15.58c-9.04,-1.5 -13.77,-7.69 -15.99,-16.14c-0.68,-3.15 -1.04,-26.376 -1.04,-29.725c0,-25.577 20.76,-46.336 46.34,-46.336c25.58,0 46.34,20.759 46.34,46.336z" fill="#484889" fill-rule="nonzero"/><path d="M286.3412,185.87984c0,3.453 -0.38,26.775 -1.1,30.015c-1.76,8.88 -7.47,14 -16.05,15.94c-3.98,0.74 -8.51,-15.56 -13.43,-15.65c-4.92,-0.09 -10.23,16.03 -15.76,16.03c-5.56,0 -10.89,-16.13 -15.83,-16.05c-4.93,0.07 -9.48,16.35 -13.48,15.58c-9.04,-1.5 -13.77,-7.69 -15.99,-16.14c-0.68,-3.15 -1.04,-26.376 -1.04,-29.725c0,-25.577 20.76,-46.336 46.34,-46.336c25.58,0 46.34,20.759 46.34,46.336z" fill="url(#color-2)" fill-rule="nonzero"/><g fill-rule="nonzero"><path d="M279.21453,177.68479c0,6.10246 -4.94702,11.04949 -11.04949,11.04949c-6.10246,0 -11.04948,-4.94702 -11.04948,-11.04949c0,-6.10246 4.94702,-11.04949 11.04948,-11.04949c6.10246,0 11.04949,4.94702 11.04949,11.04949z" fill="#ffffff"/><path d="M279.21453,177.68479c0,6.10246 -4.94702,11.04949 -11.04949,11.04949c-6.10246,0 -11.04948,-4.94702 -11.04948,-11.04949c0,-6.10246 4.94702,-11.04949 11.04948,-11.04949c6.10246,0 11.04949,4.94702 11.04949,11.04949z" fill="url(#color-3)"/><path d="M278.5013,178.39509c0,3.7402 -3.03203,6.77223 -6.77223,6.77223c-3.7402,0 -6.77223,-3.03203 -6.77223,-6.77223c0,-3.7402 3.03203,-6.77223 6.77223,-6.77223c3.7402,0 6.77223,3.03203 6.77223,6.77223z" fill="#000000"/></g><g fill-rule="nonzero"><path d="M250.69453,177.68479c0,6.10246 -4.94702,11.04949 -11.04949,11.04949c-6.10246,0 -11.04948,-4.94702 -11.04948,-11.04949c0,-6.10246 4.94702,-11.04949 11.04948,-11.04949c6.10246,0 11.04949,4.94702 11.04949,11.04949z" fill="#ffffff"/><path d="M250.69453,177.68479c0,6.10246 -4.94702,11.04949 -11.04949,11.04949c-6.10246,0 -11.04948,-4.94702 -11.04948,-11.04949c0,-6.10246 4.94702,-11.04949 11.04948,-11.04949c6.10246,0 11.04949,4.94702 11.04949,11.04949z" fill="url(#color-4)"/><path d="M249.9813,178.39509c0,3.7402 -3.03203,6.77223 -6.77223,6.77223c-3.7402,0 -6.77223,-3.03203 -6.77223,-6.77223c0,-3.7402 3.03203,-6.77223 6.77223,-6.77223c3.7402,0 6.77223,3.03203 6.77223,6.77223z" fill="#000000"/></g><path d="M213.3212,155.69384c-0.95,33.414 18.24,51.091 38.18,57.011c8.38,2.03 37.63,6.93 34.28,-9.85l0.2,-4.486c7.1,19.716 -14.85,19.726 -34.76,15.296c-26.42,-7.6 -43.88,-24.397 -42.89,-58.334z" fill="#cacaca" fill-rule="evenodd"/><path d="M219.33493,162.27837c-7.15009,7.32117 -14.54968,11.70533 -16.5172,9.78058c-1.97465,-1.92475 2.23128,-9.43127 9.37424,-16.75245c7.15009,-7.32117 14.54968,-11.6982 16.5172,-9.77345c1.97465,1.92475 -2.23128,9.42414 -9.37424,16.74532z" fill-opacity="0.62745" fill="#ffffff" fill-rule="nonzero"/><path d="M277.59982,223.65997c-3.38044,4.09601 -7.47813,6.30608 -9.14953,4.92668c-1.67139,-1.3794 -0.27871,-5.82192 3.10172,-9.91793c3.38044,-4.09601 7.47813,-6.30608 9.14953,-4.92667c1.67139,1.3794 0.27871,5.82191 -3.10172,9.91792z" fill-opacity="0.43439" fill="#ffffff" fill-rule="nonzero"/><path d="M213.0312,145.38784c15.79,-13.574 26.89,-8.984 43.27,-3.266c8.17,2.855 12.93,6.82 12.95,6.833c-9.54,0.344 -8.34,11.711 -16.03,14.166c-12.56,2.104 -26.85,-7.093 -49.02,-7.577c3.04,-4.991 3.77,-5.798 8.83,-10.156z" fill="#343462" fill-rule="evenodd"/><path d="M213.0312,145.38784c15.79,-13.574 26.89,-8.984 43.27,-3.266c8.17,2.855 12.93,6.82 12.95,6.833c-9.54,0.344 -8.34,11.711 -16.03,14.166c-12.56,2.104 -26.85,-7.093 -49.02,-7.577c3.04,-4.991 3.77,-5.798 8.83,-10.156z" fill="url(#color-5)" fill-rule="evenodd"/><path d="M230.8212,119.62784c19.57,-3.977 30.77,29.243 28.22,29.585c-15.79,15.59 -37.97,1.051 -48.79,-0.263c-1.28,-0.279 3.62,-25.881 20.57,-29.322z" fill="#343462" fill-rule="evenodd"/><path d="M230.8212,119.62784c19.57,-3.977 30.77,29.243 28.22,29.585c-15.79,15.59 -37.97,1.051 -48.79,-0.263c-1.28,-0.279 3.62,-25.881 20.57,-29.322z" fill="url(#color-6)" fill-rule="evenodd"/><g fill-rule="nonzero"><path d="M247.80518,147.08365l-2.41086,-2.80427l-3.70807,0.838l0.27841,-3.68706l-3.21394,-2.02863l2.80367,-2.40969l-0.838,-3.70807l3.68589,0.27781l2.03039,-3.21451l2.40969,2.80367l3.70807,-0.838l-0.27841,3.68706l3.21394,2.02863l-2.80251,2.41029l0.838,3.70807l-3.68706,-0.27841z" fill="#cccccc"/><g><path d="M251.847,137.86534c0.33828,2.44538 -1.36986,4.70198 -3.81524,5.04026c-2.44538,0.33828 -4.70198,-1.36986 -5.04026,-3.81524c-0.33828,-2.44538 1.36986,-4.70198 3.81524,-5.04026c2.44538,-0.33828 4.70198,1.36986 5.04026,3.81524z" fill="#808080"/><path d="M250.68316,137.96004c0.25493,1.84289 -1.03235,3.54351 -2.87524,3.79844c-1.84289,0.25493 -3.54351,-1.03235 -3.79844,-2.87524c-0.25493,-1.84289 1.03235,-3.54351 2.87524,-3.79844c1.84289,-0.25493 3.54351,1.03235 3.79844,2.87524z" fill="#cccccc"/></g><path d="M247.80518,147.08365l-2.41086,-2.80427l-3.70807,0.838l0.27841,-3.68706l-3.21394,-2.02863l2.80367,-2.40969l-0.838,-3.70807l3.68589,0.27781l2.03039,-3.21451l2.40969,2.80367l3.70807,-0.838l-0.27841,3.68706l3.21394,2.02863l-2.80251,2.41029l0.838,3.70807l-3.68706,-0.27841z" fill="url(#color-7)"/></g><path d="M226.3412,121.09984c0,0 0.14,-5.131 4.89,-4.827c4.76,0.303 7.12,3.575 7.01,5.221c-0.1,1.646 -3.4,1.618 -3.4,1.618c0,0 -6.4,-3.346 -8.5,-2.012z" fill="#cacaca" fill-rule="evenodd"/><path d="M226.3412,121.09984c0,0 0.14,-5.131 4.89,-4.827c4.76,0.303 7.12,3.575 7.01,5.221c-0.1,1.646 -3.4,1.618 -3.4,1.618c0,0 -6.4,-3.346 -8.5,-2.012z" fill="url(#color-8)" fill-rule="evenodd"/><path d="M259.0412,149.19884c-15.8,15.59 -37.99,1.075 -48.81,-0.239c-0.26,-0.057 -0.24,-1.232 0.07,-3.002c10.9,1.474 32.89,15.714 48.58,0.225c0.08,-0.01 0.15,-0.04 0.2,-0.112c0.44,1.874 0.43,3.065 -0.04,3.128z" fill="#b3b3b3" fill-rule="evenodd"/><path d="M259.0412,149.19884c-15.8,15.59 -37.99,1.075 -48.81,-0.239c-0.26,-0.057 -0.24,-1.232 0.07,-3.002c10.9,1.474 32.89,15.714 48.58,0.225c0.08,-0.01 0.15,-0.04 0.2,-0.112c0.44,1.874 0.43,3.065 -0.04,3.128z" fill="url(#color-9)" fill-rule="evenodd"/><path d="M221.7899,133.30744c-1.21849,1.87364 -2.69856,3.39121 -3.87172,3.96981c-1.17316,0.5786 -1.85698,0.12826 -1.7888,-1.17805c0.06818,-1.30631 0.87776,-3.26545 2.11777,-5.12491c1.21849,-1.87364 2.69856,-3.39121 3.87172,-3.96981c1.17316,-0.5786 1.85698,-0.12826 1.7888,1.17805c-0.06818,1.30631 -0.87776,3.26545 -2.11777,5.12491z" fill-opacity="0.50943" fill="#ffffff" fill-rule="nonzero"/><path d="M213.3212,155.69384c-0.95,33.414 18.24,51.091 38.18,57.011c8.38,2.03 37.63,6.93 34.28,-9.85l0.2,-4.486c7.1,19.716 -14.85,19.726 -34.76,15.296c-26.42,-7.6 -43.88,-24.397 -42.89,-58.334z" fill="url(#color-10)" fill-rule="evenodd"/><g><path d="M287.1842,214.33184c-0.16,3.09 -2.13,5.343 -4.42,5.041l-4.3,0.433c-2.29,-0.302 -3.88,-3.041 -3.85,-6.146c0.07,-6.427 -4.7,-7.257 -3.9,-8.169c0.79,-0.909 5.94,0.189 8.43,1.347l4.19,1.349c2.29,0.302 4,3.056 3.85,6.145z" fill="#808000" fill-rule="nonzero"/><path d="M282.8942,214.75784c-0.16,3.09 -2.14,5.352 -4.43,5.05c-2.29,-0.302 -4.05,-3.059 -3.87,-6.144c0.33,-5.364 -3.41,-6.738 -2.38,-7.633c0.74,-0.642 5.86,2.457 6.81,2.583c2.29,0.302 4.02,3.055 3.87,6.144z" fill="#ffff00" fill-rule="nonzero"/><path d="M276.3042,207.40484l4.93,0.146l1.63,0.983l-4.18,-0.242z" fill="#000000" fill-rule="evenodd"/><path d="M287.1842,214.33184c-0.16,3.09 -2.13,5.343 -4.42,5.041l-4.3,0.433c-2.29,-0.302 -3.88,-3.041 -3.85,-6.146c0.07,-6.427 -4.7,-7.257 -3.9,-8.169c0.79,-0.909 5.94,0.189 8.43,1.347l4.19,1.349c2.29,0.302 4,3.056 3.85,6.145z" fill="url(#color-11)" fill-rule="nonzero"/></g></g></g></svg>