<?xml version="1.0" encoding="UTF-8" standalone="no"?>
<svg
   id="svg2"
   viewBox="0 0 117.02843 127.48031"
   version="1.0"
   sodipodi:docname="nicubunu_Game_baddie_Policeman.svg"
   width="117.02843"
   height="127.48031"
   inkscape:version="1.2.2 (732a01da63, 2022-12-09)"
   xmlns:inkscape="http://www.inkscape.org/namespaces/inkscape"
   xmlns:sodipodi="http://sodipodi.sourceforge.net/DTD/sodipodi-0.dtd"
   xmlns:xlink="http://www.w3.org/1999/xlink"
   xmlns="http://www.w3.org/2000/svg"
   xmlns:svg="http://www.w3.org/2000/svg"
   xmlns:rdf="http://www.w3.org/1999/02/22-rdf-syntax-ns#"
   xmlns:cc="http://creativecommons.org/ns#"
   xmlns:dc="http://purl.org/dc/elements/1.1/">
  <sodipodi:namedview
     id="namedview491"
     pagecolor="#ffffff"
     bordercolor="#000000"
     borderopacity="0.25"
     inkscape:showpageshadow="2"
     inkscape:pageopacity="0.0"
     inkscape:pagecheckerboard="0"
     inkscape:deskcolor="#d1d1d1"
     showgrid="false"
     inkscape:zoom="6.5390625"
     inkscape:cx="58.571087"
     inkscape:cy="61.782557"
     inkscape:window-width="1920"
     inkscape:window-height="1017"
     inkscape:window-x="1912"
     inkscape:window-y="-8"
     inkscape:window-maximized="1"
     inkscape:current-layer="svg2" />
  <defs
     id="defs4">
    <linearGradient
       id="linearGradient2315">
      <stop
         id="stop2317"
         stop-opacity="0"
         offset="0" />
      <stop
         id="stop2319"
         stop-opacity=".57196"
         offset="1" />
    </linearGradient>
    <filter
       id="filter3730"
       y="-0.34083741"
       width="1.6960537"
       x="-0.34802687"
       height="1.6816748">
      <feGaussianBlur
         id="feGaussianBlur3732"
         stdDeviation="5.4650567" />
    </filter>
    <filter
       id="filter4065"
       y="-0.36899194"
       width="2.811415"
       x="-0.90570748"
       height="1.7379839">
      <feGaussianBlur
         id="feGaussianBlur4067"
         stdDeviation="4.1511594" />
    </filter>
    <filter
       id="filter4112"
       y="-0.34009998"
       width="1.1400412"
       x="-0.070020583"
       height="1.6802">
      <feGaussianBlur
         id="feGaussianBlur4114"
         stdDeviation="3.9678331" />
    </filter>
    <filter
       id="filter3300"
       y="-0.16967897"
       width="2.006452"
       x="-0.50322599"
       height="1.3393579">
      <feGaussianBlur
         id="feGaussianBlur3302"
         stdDeviation="0.88957773" />
    </filter>
    <radialGradient
       id="radialGradient3376"
       gradientUnits="userSpaceOnUse"
       cy="506.35001"
       cx="210.89"
       gradientTransform="matrix(1.4028,1.6439e-6,-1.4521e-7,0.20588,-89.845,403.11)"
       r="68">
      <stop
         id="stop4074"
         offset="0" />
      <stop
         id="stop4076"
         stop-opacity="0"
         offset="1" />
    </radialGradient>
    <radialGradient
       id="radialGradient3378"
       xlink:href="#linearGradient2315"
       gradientUnits="userSpaceOnUse"
       cy="497.95999"
       cx="216.99001"
       gradientTransform="matrix(0.51027,1.0072,-0.96511,0.48897,650.89,-406.14)"
       r="65" />
    <radialGradient
       id="radialGradient3380"
       xlink:href="#linearGradient2315"
       gradientUnits="userSpaceOnUse"
       cy="409.85999"
       cx="233.5"
       gradientTransform="matrix(0.3871,1.5161,-1.4234,0.36342,726.51,-93.107)"
       r="15.5" />
    <radialGradient
       id="radialGradient3384"
       xlink:href="#linearGradient2315"
       gradientUnits="userSpaceOnUse"
       cy="52.394001"
       cx="351.42999"
       gradientTransform="matrix(1.0366,0.10006,-0.058104,0.6019,-77.078,-25.783)"
       r="32.522999" />
    <radialGradient
       id="radialGradient3386"
       xlink:href="#linearGradient2315"
       gradientUnits="userSpaceOnUse"
       cy="14.848"
       cx="48.034"
       gradientTransform="matrix(1.402,0.048165,-0.027291,0.79442,217.19,15.148)"
       r="24.636" />
    <radialGradient
       id="radialGradient3388"
       xlink:href="#linearGradient2315"
       gradientUnits="userSpaceOnUse"
       cy="39.907001"
       cx="-36.728001"
       gradientTransform="matrix(1.7898,-0.46552,0.36354,1.3977,13.553,-32.295)"
       r="6.2294002" />
    <radialGradient
       id="radialGradient3390"
       xlink:href="#linearGradient2315"
       gradientUnits="userSpaceOnUse"
       cy="13.514"
       cx="283.06"
       gradientTransform="matrix(1.7328,0.32809,-0.22196,1.1723,-200.55,-92.986)"
       r="5.9551001" />
    <radialGradient
       id="radialGradient3392"
       xlink:href="#linearGradient2315"
       gradientUnits="userSpaceOnUse"
       cy="34.991001"
       cx="54.825001"
       gradientTransform="matrix(0.99796,0.063796,-0.014867,0.23257,235.88,36.314)"
       r="24.634001" />
    <radialGradient
       id="radialGradient3394"
       xlink:href="#linearGradient2315"
       gradientUnits="userSpaceOnUse"
       cy="97.676003"
       cx="285.29001"
       gradientTransform="matrix(1.5502,-0.04196,0.049183,1.817,-161.77,-71.12)"
       r="39.528" />
    <radialGradient
       id="radialGradient3396"
       xlink:href="#linearGradient2315"
       gradientUnits="userSpaceOnUse"
       cy="50.119999"
       cx="384.19"
       gradientTransform="matrix(1.3389,0.16312,-0.127,1.0423,-123.24,-64.858)"
       r="9.0417004" />
    <radialGradient
       inkscape:collect="always"
       xlink:href="#linearGradient2315"
       id="radialGradient2332"
       gradientUnits="userSpaceOnUse"
       gradientTransform="matrix(0.3871,1.5161,-1.4234,0.36342,726.51,-93.107)"
       cx="233.5"
       cy="409.85999"
       r="15.5" />
  </defs>
  <g
     id="layer1"
     transform="translate(-238.90458,-14.075006)">
    <g
       id="g3339"
       transform="translate(-8.2e-6)">
      <path
         id="path4069"
         filter="url(#filter4112)"
         transform="matrix(0.7548,0,0,0.61103,141.93,-182.83)"
         fill="url(#radialGradient3376)"
         d="m 274,507.36 c 0,7.73 -30.46,14 -68,14 -37.54,0 -68,-6.27 -68,-14 0,-7.73 30.46,-14 68,-14 37.54,0 68,6.27 68,14 z"
         style="fill:url(#radialGradient3376)" />
      <path
         id="path2327"
         fill="#484889"
         d="m 343.76,83.695 c 0,3.453 -0.38,26.775 -1.1,30.015 -1.76,8.88 -7.47,14 -16.05,15.94 -3.98,0.74 -8.51,-15.56 -13.43,-15.65 -4.92,-0.09 -10.23,16.03 -15.76,16.03 -5.56,0 -10.89,-16.13 -15.83,-16.05 -4.93,0.07 -9.48,16.35 -13.48,15.58 -9.04,-1.5 -13.77,-7.69 -15.99,-16.14 -0.68,-3.15 -1.04,-26.376 -1.04,-29.725 0,-25.577 20.76,-46.336 46.34,-46.336 25.58,0 46.34,20.759 46.34,46.336 z" />
      <path
         id="path2340"
         fill="url(#radialGradient3378)"
         d="m 343.76,83.695 c 0,3.453 -0.38,26.775 -1.1,30.015 -1.76,8.88 -7.47,14 -16.05,15.94 -3.98,0.74 -8.51,-15.56 -13.43,-15.65 -4.92,-0.09 -10.23,16.03 -15.76,16.03 -5.56,0 -10.89,-16.13 -15.83,-16.05 -4.93,0.07 -9.48,16.35 -13.48,15.58 -9.04,-1.5 -13.77,-7.69 -15.99,-16.14 -0.68,-3.15 -1.04,-26.376 -1.04,-29.725 0,-25.577 20.76,-46.336 46.34,-46.336 25.58,0 46.34,20.759 46.34,46.336 z"
         style="fill:url(#radialGradient3378)" />
      <g
         id="g2352"
         transform="matrix(0.71287,0,0,0.71287,152,-227.37)">
        <path
           id="path2344"
           transform="translate(4,7)"
           fill="#ffffff"
           d="m 255,417.86 a 15.5,15.5 0 1 1 -31,0 15.5,15.5 0 1 1 31,0 z" />
        <path
           id="path2346"
           transform="translate(4,7)"
           fill="url(#radialGradient3380)"
           d="m 255,417.86 a 15.5,15.5 0 1 1 -31,0 15.5,15.5 0 1 1 31,0 z"
           style="fill:url(#radialGradient2332)" />
        <path
           id="path2350"
           transform="matrix(0.6129,0,0,0.6129,101.71,169.75)"
           d="m 255,417.86 a 15.5,15.5 0 1 1 -31,0 15.5,15.5 0 1 1 31,0 z" />
      </g>
      <g
         id="g2357"
         transform="matrix(0.71287,0,0,0.71287,123.48,-227.37)">
        <path
           id="path2359"
           transform="translate(4,7)"
           fill="#ffffff"
           d="m 255,417.86 a 15.5,15.5 0 1 1 -31,0 15.5,15.5 0 1 1 31,0 z" />
        <path
           id="path2361"
           transform="translate(4,7)"
           fill="url(#radialGradient3380)"
           d="m 255,417.86 a 15.5,15.5 0 1 1 -31,0 15.5,15.5 0 1 1 31,0 z"
           style="fill:url(#radialGradient3380)" />
        <path
           id="path2363"
           transform="matrix(0.6129,0,0,0.6129,101.71,169.75)"
           d="m 255,417.86 a 15.5,15.5 0 1 1 -31,0 15.5,15.5 0 1 1 31,0 z" />
      </g>
      <path
         id="path3315"
         fill-rule="evenodd"
         fill="#cacaca"
         d="m 265.75,53.146 c -0.99,33.937 16.47,50.734 42.89,58.334 19.91,4.43 41.86,4.42 34.76,-15.296 l -0.2,4.486 c 3.35,16.78 -25.9,11.88 -34.28,9.85 -19.94,-5.92 -39.13,-23.597 -38.18,-57.011 z" />
      <path
         id="path2371"
         d="m 180.01,413.25 c -10.03,10.27 -20.41,16.42 -23.17,13.72 -2.77,-2.7 3.13,-13.23 13.15,-23.5 10.03,-10.27 20.41,-16.41 23.17,-13.71 2.77,2.7 -3.13,13.22 -13.15,23.49 z"
         fill-opacity="0.62745"
         transform="matrix(0.71287,0,0,0.71287,148.43,-234.5)"
         filter="url(#filter3730)"
         fill="#ffffff" />
      <path
         id="path3734"
         d="m 262,501.86 c 0,7.45 -2.46,13.5 -5.5,13.5 -3.04,0 -5.5,-6.05 -5.5,-13.5 0,-7.45 2.46,-13.5 5.5,-13.5 3.04,0 5.5,6.05 5.5,13.5 z"
         fill-opacity="0.43439"
         transform="matrix(0.5498,0.45375,-0.45375,0.5498,418.69,-273.33)"
         filter="url(#filter4065)"
         fill="#ffffff" />
      <path
         id="path2432"
         fill-rule="evenodd"
         fill="#343462"
         d="m 261.62,53.359 c 22.17,0.484 36.46,9.681 49.02,7.577 7.69,-2.455 6.49,-13.822 16.03,-14.166 -0.02,-0.013 -4.78,-3.978 -12.95,-6.833 -16.38,-5.718 -27.48,-10.308 -43.27,3.266 -5.06,4.358 -5.79,5.165 -8.83,10.156 z" />
      <path
         id="path3254"
         fill-rule="evenodd"
         fill="url(#radialGradient3384)"
         d="m 261.62,53.359 c 22.17,0.484 36.46,9.681 49.02,7.577 7.69,-2.455 6.49,-13.822 16.03,-14.166 -0.02,-0.013 -4.78,-3.978 -12.95,-6.833 -16.38,-5.718 -27.48,-10.308 -43.27,3.266 -5.06,4.358 -5.79,5.165 -8.83,10.156 z"
         style="fill:url(#radialGradient3384)" />
      <path
         id="path2436"
         fill-rule="evenodd"
         fill="#343462"
         d="m 267.67,46.765 c 10.82,1.314 33,15.853 48.79,0.263 2.55,-0.342 -8.65,-33.562 -28.22,-29.585 -16.95,3.441 -21.85,29.043 -20.57,29.322 z" />
      <path
         id="path3212"
         fill-rule="evenodd"
         fill="url(#radialGradient3386)"
         d="m 267.67,46.765 c 10.82,1.314 33,15.853 48.79,0.263 2.55,-0.342 -8.65,-33.562 -28.22,-29.585 -16.95,3.441 -21.85,29.043 -20.57,29.322 z"
         style="fill:url(#radialGradient3386)" />
      <g
         id="g3232"
         transform="matrix(0.99057,-0.13703,0.13703,0.99057,83.492,12.494)">
        <path
           id="path3216"
           d="m -29.538,46.899 -2.609,-1.067 -2.226,1.855 -1.09,-2.599 -2.885,-0.262 1.067,-2.608 -1.855,-2.226 2.598,-1.09 0.263,-2.886 2.608,1.067 2.226,-1.855 1.09,2.599 2.885,0.262 -1.066,2.608 1.855,2.226 -2.599,1.09 z"
           fill="#cccccc"
           transform="matrix(1.0754,0.75152,-0.75152,1.0754,282.21,34.246)" />
        <g
           id="g3228">
          <path
             id="path3220"
             transform="matrix(0.94521,0,0,0.94521,230.63,12.576)"
             fill="#808080"
             d="m -10.753,43.725 a 4.729,4.729 0 1 1 -9.458,0 4.729,4.729 0 1 1 9.458,0 z" />
          <path
             id="path3222"
             transform="matrix(0.71233,0,0,0.71233,226.96,22.693)"
             fill="#cccccc"
             d="m -10.753,43.725 a 4.729,4.729 0 1 1 -9.458,0 4.729,4.729 0 1 1 9.458,0 z" />
        </g>
        <path
           id="path3224"
           transform="matrix(1.0754,0.75152,-0.75152,1.0754,282.21,34.246)"
           fill="url(#radialGradient3388)"
           d="m -29.538,46.899 -2.609,-1.067 -2.226,1.855 -1.09,-2.599 -2.885,-0.262 1.067,-2.608 -1.855,-2.226 2.598,-1.09 0.263,-2.886 2.608,1.067 2.226,-1.855 1.09,2.599 2.885,0.262 -1.066,2.608 1.855,2.226 -2.599,1.09 z"
           style="fill:url(#radialGradient3388)" />
      </g>
      <path
         id="path3239"
         fill-rule="evenodd"
         fill="#cacaca"
         d="m 283.76,18.915 c 0,0 0.14,-5.131 4.89,-4.827 4.76,0.303 7.12,3.575 7.01,5.221 -0.1,1.646 -3.4,1.618 -3.4,1.618 0,0 -6.4,-3.346 -8.5,-2.012 z" />
      <path
         id="path3241"
         fill-rule="evenodd"
         fill="url(#radialGradient3390)"
         d="m 283.76,18.915 c 0,0 0.14,-5.131 4.89,-4.827 4.76,0.303 7.12,3.575 7.01,5.221 -0.1,1.646 -3.4,1.618 -3.4,1.618 0,0 -6.4,-3.346 -8.5,-2.012 z"
         style="fill:url(#radialGradient3390)" />
      <path
         id="path3245"
         fill-rule="evenodd"
         fill="#b3b3b3"
         d="m 316.5,43.886 c -0.05,0.072 -0.12,0.102 -0.2,0.112 -15.69,15.489 -37.68,1.249 -48.58,-0.225 -0.31,1.77 -0.33,2.945 -0.07,3.002 10.82,1.314 33.01,15.829 48.81,0.239 0.47,-0.063 0.48,-1.254 0.04,-3.128 z" />
      <path
         id="path3250"
         fill-rule="evenodd"
         fill="url(#radialGradient3392)"
         d="m 316.5,43.886 c -0.05,0.072 -0.12,0.102 -0.2,0.112 -15.69,15.489 -37.68,1.249 -48.58,-0.225 -0.31,1.77 -0.33,2.945 -0.07,3.002 10.82,1.314 33.01,15.829 48.81,0.239 0.47,-0.063 0.48,-1.254 0.04,-3.128 z"
         style="fill:url(#radialGradient3392)" />
      <path
         id="path3258"
         d="m 49.497,21.58 a 2.1213,6.1872 0 1 1 -4.242,0 2.1213,6.1872 0 1 1 4.242,0 z"
         fill-opacity="0.50943"
         transform="matrix(0.83516,0.55001,-0.55001,0.83516,249.74,-14.124)"
         filter="url(#filter3300)"
         fill="#ffffff" />
      <path
         id="path3323"
         fill-rule="evenodd"
         fill="url(#radialGradient3394)"
         d="m 265.75,53.146 c -0.99,33.937 16.47,50.734 42.89,58.334 19.91,4.43 41.86,4.42 34.76,-15.296 l -0.2,4.486 c 3.35,16.78 -25.9,11.88 -34.28,9.85 -19.94,-5.92 -39.13,-23.597 -38.18,-57.011 z"
         style="fill:url(#radialGradient3394)" />
      <g
         id="g3331"
         transform="translate(-53.117,57.522)">
        <path
           id="path3307"
           fill="#808000"
           d="m 393.87,48.48 -4.19,-1.349 c -2.49,-1.158 -7.64,-2.256 -8.43,-1.347 -0.8,0.912 3.97,1.742 3.9,8.169 -0.03,3.105 1.56,5.844 3.85,6.146 l 4.3,-0.433 c 2.29,0.302 4.26,-1.951 4.42,-5.041 0.15,-3.089 -1.56,-5.843 -3.85,-6.145 z" />
        <path
           id="path3305"
           fill="#ffff00"
           d="m 393.43,55.051 c -0.16,3.09 -2.14,5.352 -4.43,5.05 -2.29,-0.302 -4.05,-3.059 -3.87,-6.144 0.33,-5.364 -3.41,-6.738 -2.38,-7.633 0.74,-0.642 5.86,2.457 6.81,2.583 2.29,0.302 4.02,3.055 3.87,6.144 z" />
        <path
           id="path3313"
           fill-rule="evenodd"
           d="m 386.84,47.698 4.93,0.146 1.63,0.983 -4.18,-0.242 z" />
        <path
           id="path3327"
           fill="url(#radialGradient3396)"
           d="m 393.87,48.48 -4.19,-1.349 c -2.49,-1.158 -7.64,-2.256 -8.43,-1.347 -0.8,0.912 3.97,1.742 3.9,8.169 -0.03,3.105 1.56,5.844 3.85,6.146 l 4.3,-0.433 c 2.29,0.302 4.26,-1.951 4.42,-5.041 0.15,-3.089 -1.56,-5.843 -3.85,-6.145 z"
           style="fill:url(#radialGradient3396)" />
      </g>
    </g>
  </g>
  <metadata
     id="metadata488">
    <rdf:RDF>
      <cc:Work>
        <dc:format>image/svg+xml</dc:format>
        <dc:type
           rdf:resource="http://purl.org/dc/dcmitype/StillImage" />
        <cc:license
           rdf:resource="http://creativecommons.org/licenses/publicdomain/" />
        <dc:publisher>
          <cc:Agent
             rdf:about="http://openclipart.org/">
            <dc:title>Openclipart</dc:title>
          </cc:Agent>
        </dc:publisher>
        <dc:title>Game baddie:  Policeman</dc:title>
        <dc:date>2008-02-04T15:11:25</dc:date>
        <dc:description>Bad guy for arcade games, inspired from the classic Pac-Man: a policeman</dc:description>
        <dc:source>http://openclipart.org/detail/12572/game-baddie:--policeman-by-nicubunu</dc:source>
        <dc:creator>
          <cc:Agent>
            <dc:title>nicubunu</dc:title>
          </cc:Agent>
        </dc:creator>
        <dc:subject>
          <rdf:Bag>
            <rdf:li>arcade</rdf:li>
            <rdf:li>baddie</rdf:li>
            <rdf:li>clip art</rdf:li>
            <rdf:li>clipart</rdf:li>
            <rdf:li>funny</rdf:li>
            <rdf:li>game</rdf:li>
            <rdf:li>image</rdf:li>
            <rdf:li>job</rdf:li>
            <rdf:li>media</rdf:li>
            <rdf:li>png</rdf:li>
            <rdf:li>police</rdf:li>
            <rdf:li>policeman</rdf:li>
            <rdf:li>public domain</rdf:li>
            <rdf:li>svg</rdf:li>
          </rdf:Bag>
        </dc:subject>
      </cc:Work>
      <cc:License
         rdf:about="http://creativecommons.org/licenses/publicdomain/">
        <cc:permits
           rdf:resource="http://creativecommons.org/ns#Reproduction" />
        <cc:permits
           rdf:resource="http://creativecommons.org/ns#Distribution" />
        <cc:permits
           rdf:resource="http://creativecommons.org/ns#DerivativeWorks" />
      </cc:License>
    </rdf:RDF>
  </metadata>
</svg>
