<svg xmlns="http://www.w3.org/2000/svg" width="143.511" height="131.214" viewBox="0 0 183.694 167.953" xmlns:v="https://vecta.io/nano"><path d="M20.806 85.912l-3.483 2.305-7.29 6.811m9.387-9.478l-5.218 4.402-5.555 4.713m74.543 50.511c.129-5.348-2.175-17.972 6.668-26.893 9.103-9.206 27.722-11.861 28.939-12.883 3.289-2.991 4.623-6.824 5.581-10.747-9.206 3.043-22.362-6.914-30.04-23.113-4.843-10.229-2.085-24.938-.518-32.487-5.438-1.385-10.773-.932-16.198 3.638-4.389 3.716-8.222 15.836-17.441 25.133C47.233 80.902 29.04 81.109 21.673 85.317c-2.771 1.269-6.28 3.82-9.672 7.238a46.484 46.484 0 0 0-4.856 5.801 34.637 34.637 0 0 0 3.133 45.694l14.023 13.881a34.701 34.701 0 0 0 44.529 3.587c2.02-1.217 4.428-3.03 6.85-5.296 4.92-4.597 8.106-9.349 7.51-11.045z" fill="#d94437"/><path d="M80.212 120.872c.738-1.398 2.81-4.713 7.691-9.633 4.26-4.338 16.017-7.355 16.587-7.834 1.567-1.411 1.139-3.587 1.58-5.451-4.351 1.437-15.305-8.753-18.93-16.392-2.279-4.817-3.379-7.678-2.628-11.239-2.551-.647-2.512.207-5.063 2.37-2.072 1.748-3.872 7.458-8.222 11.848-6.28 6.345-16.108 7.639-18.037 8.895l-5.309 3.328c-6.578 6.539-6.578 17.364-.168 23.695l6.604 6.552a16.354 16.354 0 0 0 23.1-.129z" fill="#fbe9eb"/><path d="M80.445 108.908l-9.789-9.672 87.478-86.209 7.614 7.536z" fill="#5b4037"/><path d="M159.546 32.293l-15.939-8.895L168.856 0l14.839 7.847z" fill="#5a4035"/><path d="M44.695 111.394l20.497 20.29-5.749 5.827-20.497-20.303zm10.941-11.058l20.497 20.277-6.241 6.306-20.51-20.277z" fill="#4b5359"/></svg>