<svg xmlns="http://www.w3.org/2000/svg" xmlns:xlink="http://www.w3.org/1999/xlink" viewBox="0 0 130 120"><path fill="#DC4437" d="M0 0h130v120H0z"/><path fill="#FCBE1F" d="M85 60c0 11-9 20-20 20s-20-9-20-20 9-20 20-20 20 9 20 20z"/><defs><path id="prefix__a" d="M0 0h130v120H0z"/></defs><clipPath id="prefix__b"><use xlink:href="#prefix__a" overflow="visible"/></clipPath><g clip-path="url(#prefix__b)" fill="#FCBE1F"><path d="M65 0v60M77.5 0L65 60 52.5 0z"/></g><g clip-path="url(#prefix__b)" fill="#FCBE1F"><path d="M65 120V60M52.5 120L65 60l12.5 60z"/></g><g clip-path="url(#prefix__b)" fill="#FCBE1F"><path d="M130 60H65M130 72.5L65 60l65-12.5z"/></g><g clip-path="url(#prefix__b)" fill="#FCBE1F"><path d="M0 60h65M0 47.5L65 60 0 72.5z"/></g><g clip-path="url(#prefix__b)" fill="#FCBE1F"><path d="M130 0L65 60M138.5 9.2L65 60l56.5-69.2z"/></g><g clip-path="url(#prefix__b)" fill="#FCBE1F"><path d="M0 120l65-60M-8.5 110.8L65 60 8.5 129.2z"/></g><g clip-path="url(#prefix__b)" fill="#FCBE1F"><path d="M130 120L65 60M121.5 129.2L65 60l73.5 50.8z"/></g><g clip-path="url(#prefix__b)" fill="#FCBE1F"><path d="M0 0l65 60M8.5-9.2L65 60-8.5 9.2z"/></g></svg>