<?xml version="1.0" encoding="UTF-8" standalone="no"?>
<!-- Uploaded to: SVG Repo, www.svgrepo.com, Generator: SVG Repo Mixer Tools -->

<svg
   width="137.88606"
   height="139.30951"
   viewBox="0 0 11.030885 11.144761"
   version="1.1"
   id="svg44"
   sodipodi:docname="1a1d4cc38f6167618b6eb700afbef5ba.svg"
   inkscape:version="1.2.2 (732a01da63, 2022-12-09)"
   xmlns:inkscape="http://www.inkscape.org/namespaces/inkscape"
   xmlns:sodipodi="http://sodipodi.sourceforge.net/DTD/sodipodi-0.dtd"
   xmlns="http://www.w3.org/2000/svg"
   xmlns:svg="http://www.w3.org/2000/svg">
  <defs
     id="defs48" />
  <sodipodi:namedview
     id="namedview46"
     pagecolor="#ffffff"
     bordercolor="#000000"
     borderopacity="0.25"
     inkscape:showpageshadow="2"
     inkscape:pageopacity="0.0"
     inkscape:pagecheckerboard="0"
     inkscape:deskcolor="#d1d1d1"
     showgrid="false"
     inkscape:zoom="1.04625"
     inkscape:cx="324.01434"
     inkscape:cy="327.83751"
     inkscape:window-width="1920"
     inkscape:window-height="1017"
     inkscape:window-x="1912"
     inkscape:window-y="-8"
     inkscape:window-maximized="1"
     inkscape:current-layer="svg44" />
  <path
     d="M 2.0378639,2.7896277 0.8867535,1.8147943 A 0.53520262,0.53520262 0 0 1 0.1880167,1.7616988 C -0.1475468,1.4346306 -0.0243653,0.80597995 0.4811039,0.58510265 0.986573,0.36422535 1.5684997,0.41732085 1.7553958,0.76350355 1.942292,1.1096861 1.5791188,1.4006494 1.5791188,1.4006494 L 2.6665146,2.1652246 A 5.35415,5.35415 0 0 1 4.6565342,0.95252345 c 1.257301,-0.424764 3.141129,0.24848695 3.398112,0.36317315 0.256982,0.1146863 0.486354,0.248487 0.486354,0.248487 l 0.603165,-0.5394503 c 0,0 -0.318573,-0.55856455 0.184773,-0.85589935 a 1.085272,1.085272 0 0 1 1.4994158,0.3376873 C 11.200023,1.0544668 11.030117,1.6024123 10.562877,1.7086033 A 1.0746529,1.0746529 0 0 1 9.7388352,1.5493168 l -0.539451,0.56706 c 0,0 0.787938,0.6541365 0.9111188,2.0537338 A 8.0025535,8.0025535 0 0 1 9.6241482,7.7360045 c -0.329192,0.768823 -0.707232,1.503664 -0.707232,1.503664 0,0 0.751833,-0.150791 1.1404918,0.284592 0.388659,0.435383 0.477859,0.7603285 0.592546,0.7964335 0.114686,0.03611 0.231496,0.04248 0.125305,0.246363 a 0.65201272,0.65201272 0 0 1 -0.603165,0.273973 1.3995973,1.3995973 0 0 0 -0.5925458,-0.0531 c -0.142296,0.0531 -0.637146,0.310078 -1.140491,0.0892 -0.503345,-0.220877 -0.681746,-0.256982 -0.955719,-0.212382 -0.273973,0.0446 -0.849528,0.371669 -1.425083,0.344059 a 2.8013185,2.8013185 0 0 1 -0.911119,-0.212378 c -0.07221,0 -0.530955,0.380164 -1.06191,0.346183 C 3.5542713,11.108632 3.5181664,10.90262 3.110393,10.93023 c -0.4077735,0.02761 -0.955719,0.167782 -1.2105774,0.184772 -0.2548584,0.01699 -0.6562604,0.0361 -0.7794419,-0.03398 -0.1231816,-0.07009 -0.1231816,-0.620155 0.1677818,-0.983328 a 1.7797611,1.7797611 0 0 1 1.0619099,-0.6817475 4.4600219,4.4600219 0 0 1 0.849528,0.0361 c 0.036105,0 -0.8665185,-1.274292 -1.380483,-2.797071 C 1.305146,5.1322015 1.4835469,3.6391556 2.0378639,2.7896277 Z"
     fill="#1d1d1b"
     id="path2"
     style="stroke-width:0.212382" />
  <path
     d="m 9.2418612,9.5985945 c -0.496974,-0.07009 -0.913243,0.4502505 -0.966338,0.4948505 -0.0531,0.0446 -0.212382,-0.1146865 -0.246363,-0.1677825 -0.03398,-0.0531 0,-0.0446 0.08708,-0.195391 a 2.7609659,2.7609659 0 0 1 0.452374,-0.424764 2.0558577,2.0558577 0 0 1 0.0892,-0.265478 c 0.0531,-0.125305 0.40565,-0.868642 0.637146,-1.486674 a 9.6803712,9.6803712 0 0 0 0.471488,-3.003081 C 9.7473302,3.505355 9.3947762,2.4625594 8.2967612,1.9209853 7.1987462,1.3794112 6.2621422,1.0905717 4.8179442,1.3815351 3.3737466,1.6724984 3.0126972,2.337254 3.0126972,2.337254 L 3.6604623,2.8342279 C 3.7539104,2.9043139 3.0615451,3.6837559 2.9553541,3.6497747 2.9128777,3.6370318 2.3182081,3.0890863 2.3182081,3.0890863 a 2.0792197,2.0792197 0 0 0 -0.318573,0.7879372 c -0.1231815,0.550069 -0.1146862,1.486674 0.2230011,2.682385 0.3376874,1.19571 1.2573014,2.786451 1.2573014,2.786451 a 4.9357575,4.9357575 0 0 1 0.5521936,-0.159286 0.39290669,0.39290669 0 0 1 0.318573,0.07221 c 0,0 0.0531,0.140172 -0.01062,0.167781 a 6.9427674,6.9427674 0 0 1 -0.8219178,0.318573 c -0.424764,0.131677 -0.6987368,-0.02761 -1.2573014,0.0446 -0.5585647,0.07221 -0.8155469,0.8707665 -0.8155469,0.9642145 0,0.09345 0.3100777,0.06159 0.6095363,0.03398 0.2994587,-0.02761 0.6987368,-0.265477 0.9387285,-0.273973 0.2399916,-0.0085 0.4608689,0.159287 1.0258053,0.178401 a 1.3082731,1.3082731 0 0 0 0.911118,-0.293087 c 0.186897,-0.0977 0.435384,-0.5479465 0.762452,-0.6371465 0.327068,-0.0892 0.477859,-0.01699 0.813423,0.0892 a 1.5631315,1.5631315 0 0 0 0.751832,0 0.16778177,0.16778177 0 0 1 0.142296,0.0446 c 0.0531,0.04248 -0.150791,0.3355635 -0.505469,0.4247645 -0.354678,0.0892 -1.157482,-0.193268 -1.274292,-0.167782 -0.11681,0.02549 -0.167782,0.265477 -0.131677,0.301582 a 2.7885756,2.7885756 0 0 0 0.991824,0.142296 c 0.441755,-0.01911 0.813423,-0.301582 1.405969,-0.318573 0.592546,-0.01699 0.911119,0.307954 1.06191,0.352554 0.150791,0.0446 0.371668,-0.0977 0.53945,-0.150791 0.167782,-0.05309 0.5500688,0 0.5946698,-0.04248 0.0446,-0.04248 -0.3461828,-0.7730715 -0.8410328,-0.8389095 z"
     fill="#696a9b"
     id="path4"
     style="stroke-width:0.212382" />
  <path
     d="m 8.7979832,1.6385173 c 0.02761,-0.016991 0.620155,-0.5755552 0.620155,-0.5755552 0,0 -0.335564,-0.42476395 0.0892,-0.70723205 0.424764,-0.282468 0.9812048,-0.01699 1.2020818,0.3801638 C 10.930298,1.1330481 10.64783,1.5068404 10.390847,1.4792308 10.133865,1.4516208 9.8429022,1.2498582 9.7367112,1.2944584 9.6305202,1.3390584 9.1165562,1.91249 9.0719552,1.9039948 A 2.0622292,2.0622292 0 0 1 8.7979832,1.6385173 Z"
     fill="#92a0d1"
     id="path6"
     style="stroke-width:0.212382" />
  <path
     d="m 2.9404874,3.7368514 a 1.002443,1.002443 0 0 0 0.9111187,-0.0446 1.4208355,1.4208355 0 0 0 0.5139641,-0.6987367 0.13380066,0.13380066 0 0 1 0.159287,0.053095 c 0.0446,0.061591 -0.08071,0.5118406 -0.424764,0.7603275 A 1.0937673,1.0937673 0 0 1 3.2675556,4.0639196 c -0.282468,-0.019114 -0.3355635,-0.019114 -0.3801637,-0.07221 -0.0446,-0.053095 0.016991,-0.2548584 0.053095,-0.2548582 z"
     fill="#1d1d1b"
     id="path8"
     style="stroke-width:0.212382" />
  <path
     d="m 2.6049238,4.8858375 c 0.040353,-0.05947 0.1762771,0 0.1677818,0.08071 a 1.3040254,1.3040254 0 0 0 0.061591,0.751832 c 0.1507912,0.397154 0.2293725,0.407773 0.1953914,0.469364 -0.033981,0.06159 -0.1507912,0.123182 -0.212382,0.08708 a 1.7563991,1.7563991 0 0 1 -0.2718489,-0.71148 1.0066906,1.0066906 0 0 1 0.059467,-0.677499 z"
     fill="#1d1d1b"
     id="path10"
     style="stroke-width:0.212382" />
  <path
     d="m 4.8689162,5.0005245 a 0.82191831,0.82191831 0 0 1 0.318573,-0.486355 c 0.284592,-0.212382 0.452373,-0.229373 0.496974,-0.212382 0.0446,0.01699 0.09557,0.106191 0.06159,0.150791 -0.03398,0.0446 -0.310077,0.04885 -0.496974,0.26123 -0.186896,0.212382 -0.184772,0.388659 -0.229372,0.397154 -0.0446,0.0085 -0.106191,-0.08283 -0.150791,-0.110438 z"
     fill="#1d1d1b"
     id="path12"
     style="stroke-width:0.212382" />
  <path
     d="m 7.3559092,3.7092417 a 0.94934751,0.94934751 0 0 1 0.637146,0.2399917 c 0.310077,0.2654771 0.354678,0.4948501 0.318573,0.5394501 a 0.40352579,0.40352579 0 0 1 -0.150791,0.078581 0.78581337,0.78581337 0 0 0 -0.290964,-0.490602 1.6990559,1.6990559 0 0 0 -0.522459,-0.176277 c -0.0361,-0.00425 -0.0446,-0.1550389 0.0085,-0.1911438 z"
     fill="#1d1d1b"
     id="path14"
     style="stroke-width:0.212382" />
  <path
     d="m 6.1347122,5.4783835 c 0.242116,-0.09982 0.558565,0.106191 0.601041,0.488479 0.04248,0.382287 -0.04248,0.637146 -0.299458,0.637146 -0.256982,0 -0.513965,-0.337688 -0.558565,-0.55007 a 0.46299274,0.46299274 0 0 1 0.256982,-0.575555 z"
     fill="#1d1d1b"
     id="path16"
     style="stroke-width:0.212382" />
  <path
     d="m 6.2132942,5.7332425 c 0.129553,-0.0531 0.299458,0.05734 0.32282,0.261229 0.02336,0.203887 -0.02336,0.337688 -0.16141,0.341935 -0.138048,0.0042 -0.273973,-0.180524 -0.299459,-0.293087 a 0.25061075,0.25061075 0 0 1 0.138049,-0.310077 z"
     fill="#cbe7f5"
     id="path18"
     style="stroke-width:0.212382" />
  <path
     d="m 7.4790902,5.1067155 c 0.252735,-0.167782 0.496974,0.02761 0.488479,0.575555 a 1.0215574,1.0215574 0 0 1 -0.584051,0.902623 0.27609659,0.27609659 0 0 1 -0.378039,-0.290963 c 0,-0.293087 0.235744,-1.027929 0.473611,-1.187215 z"
     fill="#1d1d1b"
     id="path20"
     style="stroke-width:0.212382" />
  <path
     d="m 7.6128912,5.3021065 c 0.09345,-0.02761 0.248487,0.310078 0.07858,0.664756 -0.169905,0.354678 -0.344058,0.388659 -0.388659,0.361049 -0.0446,-0.02761 -0.02549,-0.273973 0.06159,-0.556441 0.08708,-0.282468 0.159287,-0.441754 0.248487,-0.469364 z"
     fill="#cbe7f5"
     id="path22"
     style="stroke-width:0.212382" />
  <g
     fill="#1d1d1b"
     id="g40"
     transform="matrix(0.21238199,0,0,0.21238199,-1.277419,-1.2328873)">
    <path
       d="m 31.65,39.85 c 0.75,-0.15 1.25,0.55 2.08,1.42 0.83,0.87 0.84,1.5 2.21,1.63 1.37,0.13 1.92,-0.17 2,0.12 0.08,0.29 0.17,0.46 -0.12,0.67 -0.29,0.21 -2.09,1.25 -5.17,0.08 -3.08,-1.17 -3.58,-3.37 -1,-3.92 z"
       id="path24" />
    <path
       d="m 48.44,34.9 c 0.23,-0.14 1.59,0.83 1.46,1.16 -0.13,0.33 -0.08,0.42 -0.33,0.42 A 3.84,3.84 0 0 1 47.86,35.6 c -0.13,-0.29 0.29,-0.54 0.58,-0.7 z"
       id="path26" />
    <path
       d="m 46.23,37.27 c 0.14,-0.1 2.55,0.79 2.55,1.17 0,0.38 -0.21,0.79 -0.42,0.79 a 12.17,12.17 0 0 1 -2.67,-1 2.42,2.42 0 0 1 0.54,-0.96 z"
       id="path28" />
    <path
       d="m 45.32,39.85 c 0.37,-0.06 3,1.59 3,1.84 0,0.25 -0.09,0.46 -0.3,0.46 -0.21,0 -3.25,-1.25 -3.25,-1.59 a 0.83,0.83 0 0 1 0.55,-0.71 z"
       id="path30" />
    <path
       d="m 43.86,42.19 c 0.27,-0.27 3.37,1.75 3.37,2 0,0.25 -0.12,0.46 -0.33,0.46 a 17,17 0 0 1 -3.37,-1.71 c -0.09,-0.25 0.2,-0.63 0.33,-0.75 z"
       id="path32" />
    <path
       d="m 42.57,44.27 c 0.24,-0.08 3.71,2.13 3.66,2.46 a 0.75,0.75 0 0 1 -0.29,0.5 31.8,31.8 0 0 1 -4,-1.92 1.94,1.94 0 0 1 0.63,-1.04 z"
       id="path34" />
    <path
       d="m 41.19,47 c 0,0 3.88,2.08 3.79,2.29 -0.09,0.21 0,0.38 -0.33,0.38 -0.33,0 -3.75,-1.13 -3.87,-1.46 C 40.66,47.88 40.94,47 41.19,47 Z"
       id="path36" />
    <path
       d="m 40.23,49.31 c 0.29,-0.09 2.17,1.13 2.05,1.42 -0.12,0.29 -0.09,0.42 -0.3,0.33 a 13.75,13.75 0 0 1 -2.37,-1 2,2 0 0 1 0.62,-0.75 z"
       id="path38" />
  </g>
  <path
     d="M 3.3248988,2.9382951 C 2.7748294,2.5453884 1.2775364,1.4091447 1.2860316,1.3645445 1.2945269,1.3199443 1.5854902,1.1691531 1.4792992,0.93978055 1.3731083,0.71040805 1.0290494,0.67855075 0.7805625,0.73589385 0.2772172,0.85907545 0.1094354,1.4091447 0.3557985,1.5854218 0.6021616,1.7616988 0.8612676,1.5493168 0.939849,1.5599358 1.01843,1.5705548 2.5921809,2.9191806 2.991459,3.2781062 Z"
     fill="#92a0d1"
     id="path42"
     style="stroke-width:0.212382" />
</svg>
