<?xml version="1.0" encoding="UTF-8" standalone="no"?>
<!-- Uploaded to: SVG Repo, www.svgrepo.com, Generator: SVG Repo Mixer Tools -->

<svg
   width="140"
   height="115.25438"
   viewBox="0 0 179.2 147.52561"
   class="icon"
   version="1.1"
   id="svg1210"
   sodipodi:docname="houses-svgrepo-com.svg"
   inkscape:version="1.2.2 (732a01da63, 2022-12-09)"
   xmlns:inkscape="http://www.inkscape.org/namespaces/inkscape"
   xmlns:sodipodi="http://sodipodi.sourceforge.net/DTD/sodipodi-0.dtd"
   xmlns="http://www.w3.org/2000/svg"
   xmlns:svg="http://www.w3.org/2000/svg">
  <defs
     id="defs1214" />
  <sodipodi:namedview
     id="namedview1212"
     pagecolor="#ffffff"
     bordercolor="#000000"
     borderopacity="0.25"
     inkscape:showpageshadow="2"
     inkscape:pageopacity="0.0"
     inkscape:pagecheckerboard="0"
     inkscape:deskcolor="#d1d1d1"
     showgrid="false"
     inkscape:zoom="1.04625"
     inkscape:cx="350.77658"
     inkscape:cy="288.64994"
     inkscape:window-width="1920"
     inkscape:window-height="1017"
     inkscape:window-x="1912"
     inkscape:window-y="-8"
     inkscape:window-maximized="1"
     inkscape:current-layer="svg1210" />
  <path
     d="m 59.12021,50.31815 c 0,2.21926 -1.8194,4.01866 -4.01866,4.01866 H 26.31119 c -2.219256,0 -4.018654,-1.81939 -4.018654,-4.01866 V 8.73208 c 0,-2.21926 1.819391,-4.01866 4.018654,-4.01866 h 28.79036 c 2.21926,0 4.01866,1.81939 4.01866,4.01866 z"
     fill="#d68231"
     id="path1162"
     style="stroke-width:0.199933" />
  <path
     d="M 22.292536,11.61111 H 43.52543 V 21.82769 H 22.292536 Z M 37.88731,27.38583 h 21.2329 v 10.21658 h -21.2329 z"
     fill=""
     id="path1164"
     style="stroke-width:0.199933" />
  <path
     d="m 14.895013,53.05724 v 83.39207 H 164.30499 V 53.05724 L 89.61,6.43285 Z"
     fill="#d1d3d3"
     id="path1166"
     style="stroke-width:0.199933" />
  <path
     d="M 89.61,6.43285 14.895013,53.05724 V 69.97157 L 89.61,23.34718 164.30499,69.97157 V 53.05724 Z"
     fill=""
     id="path1168"
     style="stroke-width:0.199933" />
  <path
     d="m 143.0721,69.23182 h 21.23289 V 79.4484 H 143.0721 Z m -29.07027,46.38447 h 21.23289 v 10.21658 H 114.00183 Z M 87.79061,69.05188 H 109.0235 V 79.26846 H 87.79061 Z M 14.895013,94.00353 H 36.127904 V 104.2201 H 14.895013 Z M 31.589423,57.39578 H 52.82231 V 67.61236 H 31.589423 Z"
     fill=""
     id="path1170"
     style="stroke-width:0.199933" />
  <path
     d="m 71.35611,86.26612 h 36.48778 v 50.18319 H 71.35611 Z"
     fill="#d68231"
     id="path1172"
     style="stroke-width:0.199933" />
  <path
     d="m 89.61,104.26009 m -7.13761,0 a 7.1376102,7.1376102 0 1 0 14.27522,0 7.1376102,7.1376102 0 1 0 -14.27522,0 z"
     fill="#ffffff"
     id="path1174"
     style="stroke-width:0.199933" />
  <path
     d="m 89.61,43.80033 m -15.19492,0 a 15.194915,15.194915 0 1 0 30.38983,0 15.194915,15.194915 0 1 0 -30.38983,0 z"
     fill="#ffffff"
     id="path1176"
     style="stroke-width:0.199933" />
  <path
     d="m 89.61,28.60542 c -8.39719,0 -15.19492,6.79773 -15.19492,15.19491 0,0.9197 0.08,1.8194 0.23992,2.67911 1.25958,-7.11762 7.4775,-12.51581 14.955,-12.51581 7.47749,0 13.69541,5.39819 14.95499,12.51581 0.15995,-0.87971 0.23992,-1.75941 0.23992,-2.67911 0,-8.39718 -6.81772,-15.19491 -15.19491,-15.19491 z"
     fill=""
     id="path1178"
     style="stroke-width:0.199933" />
  <path
     d="M 104.80491,40.78135 H 92.62899 V 28.60542 H 86.59101 V 40.78135 H 74.41508 v 6.03797 h 12.17593 v 12.17593 h 6.03798 V 46.81932 h 12.17592 z"
     fill="#d68231"
     id="path1180"
     style="stroke-width:0.199933" />
  <path
     d="m 89.61,31.62441 c -6.71775,0 -12.17593,5.45817 -12.17593,12.17592 0,6.71776 5.45818,12.17593 12.17593,12.17593 6.71775,0 12.17592,-5.45817 12.17592,-12.17593 0,-6.71775 -5.45817,-12.17592 -12.17592,-12.17592 z m 0,30.38983 c -10.03664,0 -18.2139,-8.17727 -18.2139,-18.21391 0,-10.03663 8.17726,-18.2139 18.2139,-18.2139 10.03664,0 18.2139,8.17727 18.2139,18.2139 0,10.03664 -8.17726,18.21391 -18.2139,18.21391 z"
     fill="#ffb819"
     id="path1182"
     style="stroke-width:0.199933" />
  <path
     d="m 71.35611,86.26612 h 36.48778 v 6.33787 H 71.35611 Z"
     fill=""
     id="path1184"
     style="stroke-width:0.199933" />
  <path
     d="m 125.03813,74.27013 h 26.11126 v 29.51012 h -26.11126 z"
     fill="#ffffff"
     id="path1186"
     style="stroke-width:0.199933" />
  <path
     d="m 125.03813,74.27013 h 26.11126 v 6.49783 h -26.11126 z"
     fill=""
     id="path1188"
     style="stroke-width:0.199933" />
  <path
     d="m 125.03813,86.0062 h 26.11126 v 6.03798 h -26.11126 z"
     fill="#d68231"
     id="path1190"
     style="stroke-width:0.199933" />
  <path
     d="M 128.05712,100.76126 H 148.1304 V 77.28912 h -20.07328 z m 23.09227,6.03798 h -26.11126 c -1.65944,0 -3.01898,-1.35954 -3.01898,-3.01899 V 74.27013 c 0,-1.65944 1.35954,-3.01899 3.01898,-3.01899 h 26.11126 c 1.65945,0 3.01899,1.35955 3.01899,3.01899 v 29.51012 c 0,1.65945 -1.35954,3.01899 -3.01899,3.01899 z"
     fill="#ffb819"
     id="path1192"
     style="stroke-width:0.199933" />
  <path
     d="m 179.2,145.54627 c 0,1.09963 -0.8997,1.97934 -1.97934,1.97934 H 1.979337 C 0.879705,147.52561 0,146.62591 0,145.54627 v -7.09763 c 0,-1.09963 0.899699,-1.97933 1.979337,-1.97933 H 177.22066 c 1.09963,0 1.97934,0.8997 1.97934,1.97933 z"
     fill="#00ad68"
     id="path1194"
     style="stroke-width:0.199933" />
  <path
     d="m 59.85996,136.44931 h 59.46009 v 11.0763 H 59.85996 Z"
     fill="#333e48"
     id="path1196"
     style="stroke-width:0.199933" />
  <path
     d="m 171.40261,63.83363 c -1.15961,0 -2.33922,-0.3199 -3.39886,-0.97967 L 89.61,14.0303 11.196251,62.87395 C 8.177262,64.75332 4.198594,63.83363 2.319223,60.81464 0.439853,57.79565 1.359545,53.81698 4.378534,51.93761 L 86.19114,0.97467 c 2.07931,-1.29956 4.71842,-1.29956 6.81772,0 l 81.81261,50.96294 c 3.01899,1.87937 3.93868,5.85804 2.05931,8.87703 -1.2196,1.93935 -3.31889,3.01899 -5.47817,3.01899 z"
     fill="#ffb819"
     id="path1198"
     style="stroke-width:0.199933" />
  <path
     d="m 173.02207,136.44931 c 0,-13.21557 -10.71641,-23.91199 -23.912,-23.91199 -13.21557,0 -23.91199,10.71641 -23.91199,23.91199 z m -166.844139,0 c 0,-13.21557 10.716412,-23.91199 23.911994,-23.91199 13.195585,0 23.911995,10.71641 23.911995,23.91199 z"
     fill="#218649"
     id="path1200"
     style="stroke-width:0.199933" />
  <path
     d="M 29.470133,73.87027 H 55.58139 v 29.51012 H 29.470133 Z"
     fill="#ffffff"
     id="path1202"
     style="stroke-width:0.199933" />
  <path
     d="M 29.470133,73.87027 H 55.58139 v 6.49782 H 29.470133 Z"
     fill=""
     id="path1204"
     style="stroke-width:0.199933" />
  <path
     d="M 29.470133,85.60634 H 55.58139 v 6.03798 H 29.470133 Z"
     fill="#d68231"
     id="path1206"
     style="stroke-width:0.199933" />
  <path
     d="M 32.489122,100.3614 H 52.5624 V 76.88926 H 32.489122 Z m 23.092268,6.03798 H 29.470133 c -1.659445,0 -3.018989,-1.35955 -3.018989,-3.01899 V 73.87027 c 0,-1.65945 1.359544,-3.01899 3.018989,-3.01899 H 55.58139 c 1.65944,0 3.01899,1.35954 3.01899,3.01899 v 29.51012 c 0,1.65944 -1.35955,3.01899 -3.01899,3.01899 z"
     fill="#ffb819"
     id="path1208"
     style="stroke-width:0.199933" />
</svg>
