<svg width="140" height="139.721" viewBox="0 0 179.2 178.843" class="prefix__icon" xmlns="http://www.w3.org/2000/svg"><path d="M86.8 21.45l-70 69.994v87.399h145.6v-81.8z" fill="#eaeaea"/><path d="M44.8 117.243H84v61.6H44.8z" fill="#434854"/><path d="M95.2 111.643H112v16.8H95.2zm22.4 0h16.8v16.8h-16.8zm0-22.4h16.8v16.8h-16.8zm-22.4 0H112v16.8H95.2z" fill="#469fcc"/><path d="M95.2 89.243H112v5.6H95.2zm22.4 0h16.8v5.6h-16.8zm-22.4 22.4H112v5.6H95.2zm22.4 0h16.8v5.6h-16.8z"/><path d="M86.8 10.843l-70 72.8v16.8l70-70 75.6 75.6v-16.8z"/><path d="M177.2 88.084L94.719 5.6l-3.959-3.96a5.594 5.594 0 00-7.918 0l-3.96 3.96L2 82.484a5.594 5.594 0 000 7.918l3.96 3.96a5.594 5.594 0 007.918 0L86.8 21.448l78.518 78.518a5.594 5.594 0 007.918 0l3.96-3.96a5.606 5.606 0 00.005-7.923z" fill="#ef4d4d"/><path d="M41.692 178.843a22.165 22.165 0 003.108-11.2 22.4 22.4 0 00-44.8 0c0 4.099 1.182 7.89 3.108 11.2zm115.108-33.6a22.355 22.355 0 00-20.34 13.132 16.598 16.598 0 00-7.66-1.932 16.8 16.8 0 00-16.8 16.8c0 1.977.403 3.841 1.03 5.6h63.068a22.215 22.215 0 003.102-11.2 22.4 22.4 0 00-22.4-22.4z" fill="#3aad73"/><path d="M136.46 158.375a16.598 16.598 0 00-7.66-1.932 16.8 16.8 0 00-16.8 16.8c0 1.977.403 3.841 1.03 5.6h24.478a22.165 22.165 0 01-3.108-11.2c0-3.315.767-6.435 2.06-9.268z"/></svg>