<svg xmlns="http://www.w3.org/2000/svg" viewBox="0 0 130 120" xmlns:v="https://vecta.io/nano"><path fill="#2a66b7" d="M0 0h130v120H0z"/><path fill="#fcbe1f" d="M130 120V0H39l91 120"/><path d="M21 8l2.8 5.9 6.2 1-4.5 4.6 1.1 6.5-5.6-3.1-5.6 3.1 1.1-6.5-4.5-4.6 6.2-1zm16 21.3l2.8 6 6.2.9-4.5 4.6 1.1 6.5-5.6-3-5.6 3 1.1-6.5-4.5-4.6 6.2-.9zm16 21.4l2.8 5.9 6.2.9-4.5 4.7 1.1 6.5-5.6-3.1-5.6 3.1 1.1-6.5-4.5-4.7 6.2-.9zM69 72l2.8 5.9 6.2 1-4.5 4.6 1.1 6.5-5.6-3.1-5.6 3.1 1.1-6.5-4.5-4.6 6.2-1zm16 21.3l2.8 6 6.2.9-4.5 4.6 1.1 6.5-5.6-3-5.6 3 1.1-6.5-4.5-4.6 6.2-.9z" fill="#fff"/></svg>