<?xml version="1.0" encoding="UTF-8" standalone="no"?>
<svg
   version="1.1"
   x="0"
   y="0"
   width="43.191689"
   height="140"
   viewBox="0 0 43.191689 140.00001"
   id="svg628"
   sodipodi:docname="tbw6.svg"
   inkscape:version="1.2.2 (732a01da63, 2022-12-09)"
   xmlns:inkscape="http://www.inkscape.org/namespaces/inkscape"
   xmlns:sodipodi="http://sodipodi.sourceforge.net/DTD/sodipodi-0.dtd"
   xmlns="http://www.w3.org/2000/svg"
   xmlns:svg="http://www.w3.org/2000/svg">
  <sodipodi:namedview
     id="namedview630"
     pagecolor="#ffffff"
     bordercolor="#000000"
     borderopacity="0.25"
     inkscape:showpageshadow="2"
     inkscape:pageopacity="0.0"
     inkscape:pagecheckerboard="0"
     inkscape:deskcolor="#d1d1d1"
     showgrid="false"
     inkscape:zoom="0.67056564"
     inkscape:cx="192.3749"
     inkscape:cy="624.84561"
     inkscape:window-width="1920"
     inkscape:window-height="1017"
     inkscape:window-x="1912"
     inkscape:window-y="-8"
     inkscape:window-maximized="1"
     inkscape:current-layer="svg628" />
  <defs
     id="defs298">
    <linearGradient
       id="Gradient_1"
       gradientUnits="userSpaceOnUse"
       x1="377.76599"
       y1="15.763"
       x2="377.76599"
       y2="77.258003"
       gradientTransform="matrix(0.999,-0.049,-0.049,-0.999,-109.794,976.214)">
      <stop
         offset="0.004"
         stop-color="#FFF5E0"
         id="stop186" />
      <stop
         offset="0.726"
         stop-color="#FFF5E0"
         id="stop188" />
      <stop
         offset="1"
         stop-color="#FFEEC9"
         id="stop190" />
    </linearGradient>
    <linearGradient
       id="Gradient_2"
       gradientUnits="userSpaceOnUse"
       x1="263.88"
       y1="21.399"
       x2="263.88"
       y2="82.894997"
       gradientTransform="matrix(-0.999,-0.049,0.049,-0.999,396.195,976.214)">
      <stop
         offset="0.004"
         stop-color="#FFF5E0"
         id="stop193" />
      <stop
         offset="0.726"
         stop-color="#FFF5E0"
         id="stop195" />
      <stop
         offset="1"
         stop-color="#FFEEC9"
         id="stop197" />
    </linearGradient>
    <linearGradient
       id="Gradient_3"
       gradientUnits="userSpaceOnUse"
       x1="-298.79199"
       y1="1527.0699"
       x2="-319.73401"
       y2="1610.842"
       gradientTransform="matrix(0.988,0.152,0.152,-0.988,97.199,1820.001)">
      <stop
         offset="0.004"
         stop-color="#FFF5E0"
         id="stop200" />
      <stop
         offset="0.726"
         stop-color="#FFF5E0"
         id="stop202" />
      <stop
         offset="1"
         stop-color="#FFEEC9"
         id="stop204" />
    </linearGradient>
    <linearGradient
       id="Gradient_4"
       gradientUnits="userSpaceOnUse"
       x1="-323.311"
       y1="1539.194"
       x2="-340.87601"
       y2="1609.191"
       gradientTransform="matrix(0.988,0.152,0.152,-0.988,97.199,1820.001)">
      <stop
         offset="0.004"
         stop-color="#FFF5E0"
         id="stop207" />
      <stop
         offset="0.726"
         stop-color="#FFF5E0"
         id="stop209" />
      <stop
         offset="1"
         stop-color="#FFEEC9"
         id="stop211" />
    </linearGradient>
    <linearGradient
       id="Gradient_5"
       gradientUnits="userSpaceOnUse"
       x1="-310.70499"
       y1="1542.356"
       x2="-328.20401"
       y2="1612.356"
       gradientTransform="matrix(0.988,0.152,0.152,-0.988,97.199,1820.001)">
      <stop
         offset="0.004"
         stop-color="#FFF5E0"
         id="stop214" />
      <stop
         offset="0.726"
         stop-color="#FFF5E0"
         id="stop216" />
      <stop
         offset="1"
         stop-color="#FFEEC9"
         id="stop218" />
    </linearGradient>
    <linearGradient
       id="Gradient_6"
       gradientUnits="userSpaceOnUse"
       x1="-298.94101"
       y1="1545.297"
       x2="-316.44101"
       y2="1615.295"
       gradientTransform="matrix(0.988,0.152,0.152,-0.988,97.199,1820.001)">
      <stop
         offset="0.004"
         stop-color="#FFF5E0"
         id="stop221" />
      <stop
         offset="0.726"
         stop-color="#FFF5E0"
         id="stop223" />
      <stop
         offset="1"
         stop-color="#FFEEC9"
         id="stop225" />
    </linearGradient>
    <linearGradient
       id="Gradient_7"
       gradientUnits="userSpaceOnUse"
       x1="-294.50101"
       y1="1546.406"
       x2="-312"
       y2="1616.4041"
       gradientTransform="matrix(0.988,0.152,0.152,-0.988,97.199,1820.001)">
      <stop
         offset="0.004"
         stop-color="#FFF5E0"
         id="stop228" />
      <stop
         offset="0.726"
         stop-color="#FFF5E0"
         id="stop230" />
      <stop
         offset="1"
         stop-color="#FFEEC9"
         id="stop232" />
    </linearGradient>
    <linearGradient
       id="Gradient_8"
       gradientUnits="userSpaceOnUse"
       x1="232.748"
       y1="979.78601"
       x2="232.748"
       y2="1030.786"
       gradientTransform="matrix(1,0,0,-1,-32.065,1240.59)">
      <stop
         offset="0.004"
         stop-color="#FFF5E0"
         id="stop235" />
      <stop
         offset="0.726"
         stop-color="#FFF5E0"
         id="stop237" />
      <stop
         offset="1"
         stop-color="#FFEEC9"
         id="stop239" />
    </linearGradient>
    <linearGradient
       id="Gradient_9"
       gradientUnits="userSpaceOnUse"
       x1="204.994"
       y1="1110.402"
       x2="161.994"
       y2="1110.402"
       gradientTransform="matrix(1,0,0,-1,-32.065,1240.59)">
      <stop
         offset="0.004"
         stop-color="#FFF5E0"
         id="stop242" />
      <stop
         offset="0.726"
         stop-color="#FFF5E0"
         id="stop244" />
      <stop
         offset="1"
         stop-color="#FFE9BA"
         id="stop246" />
    </linearGradient>
    <linearGradient
       id="Gradient_10"
       gradientUnits="userSpaceOnUse"
       x1="-7374.854"
       y1="1110.402"
       x2="-7417.854"
       y2="1110.402"
       gradientTransform="rotate(180,-3573.0525,620.295)">
      <stop
         offset="0.004"
         stop-color="#FFF5E0"
         id="stop249" />
      <stop
         offset="0.726"
         stop-color="#FFF5E0"
         id="stop251" />
      <stop
         offset="1"
         stop-color="#FFE9BA"
         id="stop253" />
    </linearGradient>
    <linearGradient
       id="Gradient_11"
       gradientUnits="userSpaceOnUse"
       x1="233"
       y1="1061.3149"
       x2="233"
       y2="1186.403"
       gradientTransform="matrix(1,0,0,-1,-32.065,1240.59)">
      <stop
         offset="0.004"
         stop-color="#FFF5E0"
         id="stop256" />
      <stop
         offset="0.726"
         stop-color="#FFF5E0"
         id="stop258" />
      <stop
         offset="1"
         stop-color="#FFEEC9"
         id="stop260" />
    </linearGradient>
    <linearGradient
       id="Gradient_12"
       gradientUnits="userSpaceOnUse"
       x1="334.54401"
       y1="756.54401"
       x2="283.20999"
       y2="748.54401"
       gradientTransform="matrix(1,0,0,-1,-32.065,1240.59)">
      <stop
         offset="0.004"
         stop-color="#FFF5E0"
         id="stop263" />
      <stop
         offset="0.726"
         stop-color="#FFF5E0"
         id="stop265" />
      <stop
         offset="1"
         stop-color="#FFEEC9"
         id="stop267" />
    </linearGradient>
    <linearGradient
       id="Gradient_13"
       gradientUnits="userSpaceOnUse"
       x1="330.065"
       y1="785.271"
       x2="278.73401"
       y2="777.271"
       gradientTransform="matrix(1,0,0,-1,-32.065,1240.59)">
      <stop
         offset="0.004"
         stop-color="#FFF5E0"
         id="stop270" />
      <stop
         offset="0.726"
         stop-color="#FFF5E0"
         id="stop272" />
      <stop
         offset="1"
         stop-color="#FFEEC9"
         id="stop274" />
    </linearGradient>
    <linearGradient
       id="Gradient_14"
       gradientUnits="userSpaceOnUse"
       x1="332.14001"
       y1="771.966"
       x2="280.80701"
       y2="763.966"
       gradientTransform="matrix(1,0,0,-1,-32.065,1240.59)">
      <stop
         offset="0.004"
         stop-color="#FFF5E0"
         id="stop277" />
      <stop
         offset="0.726"
         stop-color="#FFF5E0"
         id="stop279" />
      <stop
         offset="1"
         stop-color="#FFEEC9"
         id="stop281" />
    </linearGradient>
    <linearGradient
       id="Gradient_15"
       gradientUnits="userSpaceOnUse"
       x1="333.92999"
       y1="760.48798"
       x2="282.59601"
       y2="752.48798"
       gradientTransform="matrix(1,0,0,-1,-32.065,1240.59)">
      <stop
         offset="0.004"
         stop-color="#FFF5E0"
         id="stop284" />
      <stop
         offset="0.726"
         stop-color="#FFF5E0"
         id="stop286" />
      <stop
         offset="1"
         stop-color="#FFEEC9"
         id="stop288" />
    </linearGradient>
    <linearGradient
       id="Gradient_16"
       gradientUnits="userSpaceOnUse"
       x1="335.74799"
       y1="748.815"
       x2="284.41501"
       y2="740.815"
       gradientTransform="matrix(1,0,0,-1,-32.065,1240.59)">
      <stop
         offset="0.004"
         stop-color="#FFF5E0"
         id="stop291" />
      <stop
         offset="0.726"
         stop-color="#FFF5E0"
         id="stop293" />
      <stop
         offset="1"
         stop-color="#FFEEC9"
         id="stop295" />
    </linearGradient>
  </defs>
  <g
     id="_x2A_D女性スーツ-注意-バスト_1_"
     transform="matrix(0.11216151,0,0,0.11216151,-3.0530445e-5,0)">
    <g
       id="path835">
      <path
         d="m 383.335,401.7 c 0.3,-2.2 -0.3,-5.2 -2.6,-10.9 -2.6,-6.4 -31.9,-51.5 -35.6,-57.6 -2.3,-3.9 -9.8,-24.2 -12.7,-29.9 -1.7,-3.3 -7.3,-6.6 -8.2,-8.4 -6.1,-11.2 -6.8,-20.2 -11.5,-25.7 -7.5,-8.8 -14.9,-8 -16,-7.8 -1.9,-0.6 -41.3,-13.6 -52.7,-17.4 -4.2,-4 -10.7,-10.1 -12.1,-11.6 -2.1,-2.4 -3.7,-2.7 -9.1,-4.3 l 0.1,0.1 c -2.7,-4 -5.3,-7.7 -5.9,-7.9 -0.5,-4.9 -0.5,-15.2 -0.5,-16.1 v -4.5 c 16.3,-7.4 30.8,-23.9 37.5,-33.1 4.4,-6 7.2,-13.6 8.9,-21.5 4.1,-3.1 10.4,-9.4 10.4,-19.1 0,-3.2 -0.5,-5.6 -1.3,-7.4 2.8,3.5 2.1,6.2 1.8,7.1 2.5,-5.2 2.5,-13.7 0.2,-23.8 0.7,-3.5 1.3,-7.1 1.8,-10.8 6,-50.4 -19.7,-89.6 -74.1,-89.6 -0.4,0 -0.7,0 -1.1,0 -0.4,0 -0.7,0 -1.1,0 -54.4,0 -80.1,39.2 -74.1,89.6 0.7,6.3 1.9,12.4 3.5,18.3 0.4,2.4 0.9,4.8 1.5,7.2 -1.3,1.9 -2.3,4.9 -2.3,9.3 0,9.7 6.3,16 10.4,19.1 1.7,7.9 4.5,15.5 8.9,21.5 6.7,9.2 21.1,25.6 37.3,33 v 4.6 c 0,1 0,15.6 -0.8,18.2 -0.2,-1 -0.2,-1.7 -0.1,-2.2 -0.5,0 -3.1,3.7 -5.8,7.8 -5.4,1.6 -6.9,1.9 -9.1,4.3 -1.4,1.6 -8.2,7.8 -12.3,11.9 -12.5,4.1 -52.1,17.2 -52.1,17.2 v 0 c -1,0.3 -8.9,3.1 -14.9,13.1 -3.7,6.1 -1.9,15.3 -5,27.7 -2.2,9 -5.3,22.9 -9,38.8 -11.1,-26.3 -24.4,-57.6 -27.1,-64.5 -0.4,-1.1 -1.9,-1.3 -4.1,-0.8 l -2.2,-6.4 c 3.2,-4.3 14.1,-23.4 14,-28.5 -0.1,-5.1 -1.4,-20.4 -1.4,-20.4 0,0 0.5,-36 0.4,-54.4 -0.1,-15 -8.9,-13.8 -10.1,0.7 -1,11.5 -1.8,28.3 -2.5,39.2 -0.8,3 -0.9,5.8 -0.9,5.8 l -0.2,5.2 c -0.2,0.1 -0.5,0.3 -0.9,0.4 0,-2.8 -0.1,-5.1 -0.5,-6.1 -1.1,-3.1 -9.6,-3.5 -10.9,0.1 -0.4,1.1 -0.7,4.1 -0.8,7.5 h -0.1 c 0,-1.2 0,-2.1 -0.1,-2.7 -0.4,-3 -9,-3.9 -10.4,-0.1 -0.2,0.6 -0.4,1.8 -0.6,3.3 -0.1,0 -0.2,0 -0.4,0 -0.1,-0.7 -0.3,-1.2 -0.6,-1.4 -4.1,-2.9 -9.1,-1.3 -11.5,0.6 -2.5,1.9 -3,13.5 -3,13.5 l 0.1,-0.1 c 0,0.6 -0.1,1.2 -0.1,1.8 -2.3,25.8 12.9,40.1 12.9,40.1 l 1.2,3.6 h -0.1 c 0,0 1.3,4.2 3.3,10.4 -9.2,5.9 -16,12.1 -12,13.5 0.1,0 0.1,0 0.2,0 -0.2,0 -0.5,0 -0.7,0 0,0 23,57.1 37.1,95.5 7.1,19.3 13.5,26.7 18,35.7 9.1,18 10.9,23.3 20,22.3 21.5,-2.4 30.6,-38 35.3,-52.4 5.2,-14.8 8.6,-27.9 10.9,-38.5 1.5,25.4 3.6,55.8 4.4,61.3 1.5,9.2 0,20 -4.8,37.8 -0.2,0.6 -0.4,1.3 -0.6,2.1 -0.9,0.4 -1.5,0.8 -1.6,1.3 l -4.7,16.6 c -0.6,2.3 -0.7,4.3 -0.3,5.5 -8.8,31.1 -21.8,76.4 -21.3,77.1 0.1,0.2 1.7,0.3 4.2,0.5 -1.5,8.9 -2.4,17.5 -2.4,25 0,6.1 0.3,13.5 0.8,22 0.1,23.3 3.3,56.2 11.5,113 3.2,26.2 6.3,49.1 8.1,61.9 5,36.5 10.3,74.9 10.3,74.9 0,0 0.6,0.1 1.9,0.2 0.3,2.7 0.6,5.2 0.8,7.5 0.5,29.5 0.5,57.9 -2.7,98.9 -2.6,33.3 4.9,76.6 8,121.1 0.2,3.2 1.8,44.1 1.4,51.8 -0.3,5.5 -0.9,24 -1.3,33.7 -1.5,4.2 -3.8,10.6 -6.1,17.2 -1.3,2.9 -7.9,18.3 -10.5,26.3 -3.7,11.5 -4.6,16.3 -4,18.3 0.1,0.3 0.3,0.6 0.5,0.8 0,0.5 0.1,1 0.3,1.3 1.9,3.1 19.1,6.8 27.1,6.8 8,0 22.6,-3.1 23.5,-4.3 0.3,-0.5 0.4,-1.2 0.3,-1.8 1,-1.9 0.6,-4.8 0.6,-9.8 0,-9.8 0.2,-29.8 0.2,-29.8 0,0 0.7,-13.5 -0.3,-18.2 -0.8,-3.9 -1.8,-5.5 -2.1,-5.8 0,-1.2 0,-2.4 0,-3.5 0.1,-2.2 1.5,-6.3 1.5,-7 0,-2.4 -4.2,-8 -4.5,-8.4 l 4.1,-67.9 c 0,0 5.2,-42 8.3,-79.3 2.7,-32.5 -3.6,-60.8 3.3,-104.2 1.2,-7.9 2.3,-24.3 2.4,-28.9 v 0 c 0.5,-3.7 1,-7.9 1.4,-12.5 4.7,0.1 9.6,0.1 14.8,0.1 5,0 9.8,0 14.3,-0.1 0.4,4.5 0.9,8.7 1.4,12.5 v 0 c 0.1,4.6 1.2,21 2.4,28.9 6.9,43.4 0.6,71.7 3.3,104.2 3.1,37.4 8.3,79.3 8.3,79.3 l 4.1,67.9 c -0.3,0.4 -4.5,6 -4.5,8.4 0,0.7 1.4,4.8 1.5,7 0,1 0,2.2 0,3.5 -0.3,0.3 -1.3,1.9 -2.1,5.8 -0.9,4.7 -0.3,18.2 -0.3,18.2 0,0 0.1,20 0.2,29.8 0,5 -0.4,8 0.6,9.8 -0.1,0.7 0,1.4 0.3,1.8 0.9,1.2 15.5,4.3 23.5,4.3 8,0 25.3,-3.7 27.1,-6.8 0.2,-0.4 0.3,-0.8 0.3,-1.3 0.3,-0.3 0.4,-0.5 0.5,-0.8 0.6,-2 -0.2,-6.8 -4,-18.3 -2.6,-8 -9.2,-23.4 -10.5,-26.3 -2.3,-6.6 -4.6,-13.1 -6.1,-17.2 -0.3,-9.7 -1,-28.2 -1.3,-33.7 -0.3,-7.7 1.2,-48.6 1.4,-51.8 3,-44.5 10.6,-87.8 8,-121.1 -3.2,-40.9 -3.2,-69.4 -2.7,-98.9 0.2,-2.3 0.5,-4.8 0.8,-7.5 1.6,-0.1 2.4,-0.2 2.4,-0.2 0,0 5.3,-38.4 10.3,-74.9 2.3,-16.6 6.7,-49.9 10.9,-85.3 4.9,-36.2 7.3,-61 8,-79.8 0.9,-12.6 1.5,-23.5 1.5,-31.9 0,-7.6 -0.9,-16.1 -2.3,-25 2.9,-0.2 4.8,-0.4 4.9,-0.6 0.3,-0.5 -6.4,-24.6 -13.5,-49.7 4.6,1.2 9.6,0.9 11.2,0.5 1.9,-0.5 5.7,-5.2 8.8,-12.4 l 5.9,-7.2 -0.3,-0.5 c 6.2,4.4 12.4,8.5 16.1,10.6 11.5,-18.1 35.1,-71.6 40.5,-81.5 4.2,-7.7 9.3,-17.3 11.4,-21.6 0.1,-0.3 0.3,-0.5 0.4,-0.8 0.4,-0.8 0.6,-1.3 0.5,-1.4 z m -257.7,815.7 c -0.1,0.5 -0.3,1.1 -0.5,1.7 1.2,-5.6 5.8,-18.5 7.8,-23.8 -3.4,9.8 -6.7,19.5 -7.3,22.1 z m 44.6,-25.1 c -0.2,-2 -0.3,-3.2 -0.3,-3.2 0,0 -0.1,-1 -0.2,-2.5 0.2,1.7 0.4,3.7 0.5,5.7 z m 1.8,-954.7 v 0 l 0.1,-0.2 c -0.1,0.1 -0.1,0.1 -0.1,0.2 z m 56.6,-0.6 0.4,0.5 v 0 c -0.2,-0.1 -0.3,-0.3 -0.4,-0.5 z m 2,952 c 0,0 -0.1,1.2 -0.3,3.2 0.1,-2 0.3,-4 0.5,-5.8 -0.1,1.6 -0.2,2.6 -0.2,2.6 z m 44.7,30.1 c -0.2,-0.7 -0.4,-1.3 -0.5,-1.7 -0.6,-2.6 -3.9,-12.3 -7.3,-22 2,5.2 6.6,18.1 7.8,23.7 z m 54.9,-814.1 -2.7,12.4 c 0,0 -27.2,50.9 -32,63.1 0.1,0.5 0.7,1.2 1.7,2.2 l -2.3,4 c -2.6,-3.7 -9.6,-15.1 -9.6,-15.1 0,0 -1.1,-3.6 -2.5,-4.7 -0.2,-0.1 -7.4,-5.9 -9.4,-7.6 0,0 -0.1,-0.1 -0.3,-0.2 -3.9,-15.4 -5.1,-25.2 -3.7,-33.8 1.3,-8 5.1,-70 6.1,-90.8 10.7,11.4 44.5,47.7 58.2,66.3 z m -56.3,-279.2 c -0.1,0.1 -0.1,0.2 -0.2,0.3 0.1,0.1 0.1,-0.1 0.2,-0.3 z"
         fill="#666666"
         id="path300" />
      <path
         d="m 383.335,401.7 c 0.3,-2.2 -0.3,-5.2 -2.6,-10.9 -2.6,-6.4 -31.9,-51.5 -35.6,-57.6 -2.3,-3.9 -9.8,-24.2 -12.7,-29.9 -1.7,-3.3 -7.3,-6.6 -8.2,-8.4 -6.1,-11.2 -6.8,-20.2 -11.5,-25.7 -7.5,-8.8 -14.9,-8 -16,-7.8 -1.9,-0.6 -41.3,-13.6 -52.7,-17.4 -4.2,-4 -10.7,-10.1 -12.1,-11.6 -2.1,-2.4 -3.7,-2.7 -9.1,-4.3 l 0.1,0.1 c -2.7,-4 -5.3,-7.7 -5.9,-7.9 -0.5,-4.9 -0.5,-15.2 -0.5,-16.1 v -4.5 c 16.3,-7.4 30.8,-23.9 37.5,-33.1 4.4,-6 7.2,-13.6 8.9,-21.5 4.1,-3.1 10.4,-9.4 10.4,-19.1 0,-3.2 -0.5,-5.6 -1.3,-7.4 2.8,3.5 2.1,6.2 1.8,7.1 2.5,-5.2 2.5,-13.7 0.2,-23.8 0.7,-3.5 1.3,-7.1 1.8,-10.8 6,-50.4 -19.7,-89.6 -74.1,-89.6 -0.4,0 -0.7,0 -1.1,0 -0.4,0 -0.7,0 -1.1,0 -54.4,0 -80.1,39.2 -74.1,89.6 0.7,6.3 1.9,12.4 3.5,18.3 0.4,2.4 0.9,4.8 1.5,7.2 -1.3,1.9 -2.3,4.9 -2.3,9.3 0,9.7 6.3,16 10.4,19.1 1.7,7.9 4.5,15.5 8.9,21.5 6.7,9.2 21.1,25.6 37.3,33 v 4.6 c 0,1 0,15.6 -0.8,18.2 -0.2,-1 -0.2,-1.7 -0.1,-2.2 -0.5,0 -3.1,3.7 -5.8,7.8 -5.4,1.6 -6.9,1.9 -9.1,4.3 -1.4,1.6 -8.2,7.8 -12.3,11.9 -12.5,4.1 -52.1,17.2 -52.1,17.2 v 0 c -1,0.3 -8.9,3.1 -14.9,13.1 -3.7,6.1 -1.9,15.3 -5,27.7 -2.2,9 -5.3,22.9 -9,38.8 -11.1,-26.3 -24.4,-57.6 -27.1,-64.5 -0.4,-1.1 -1.9,-1.3 -4.1,-0.8 l -2.2,-6.4 c 3.2,-4.3 14.1,-23.4 14,-28.5 -0.1,-5.1 -1.4,-20.4 -1.4,-20.4 0,0 0.5,-36 0.4,-54.4 -0.1,-15 -8.9,-13.8 -10.1,0.7 -1,11.5 -1.8,28.3 -2.5,39.2 -0.8,3 -0.9,5.8 -0.9,5.8 l -0.2,5.2 c -0.2,0.1 -0.5,0.3 -0.9,0.4 0,-2.8 -0.1,-5.1 -0.5,-6.1 -1.1,-3.1 -9.6,-3.5 -10.9,0.1 -0.4,1.1 -0.7,4.1 -0.8,7.5 h -0.1 c 0,-1.2 0,-2.1 -0.1,-2.7 -0.4,-3 -9,-3.9 -10.4,-0.1 -0.2,0.6 -0.4,1.8 -0.6,3.3 -0.1,0 -0.2,0 -0.4,0 -0.1,-0.7 -0.3,-1.2 -0.6,-1.4 -4.1,-2.9 -9.1,-1.3 -11.5,0.6 -2.5,1.9 -3,13.5 -3,13.5 l 0.1,-0.1 c 0,0.6 -0.1,1.2 -0.1,1.8 -2.3,25.8 12.9,40.1 12.9,40.1 l 1.2,3.6 h -0.1 c 0,0 1.3,4.2 3.3,10.4 -9.2,5.9 -16,12.1 -12,13.5 0.1,0 0.1,0 0.2,0 -0.2,0 -0.5,0 -0.7,0 0,0 23,57.1 37.1,95.5 7.1,19.3 13.5,26.7 18,35.7 9.1,18 10.9,23.3 20,22.3 21.5,-2.4 30.6,-38 35.3,-52.4 5.2,-14.8 8.6,-27.9 10.9,-38.5 1.5,25.4 3.6,55.8 4.4,61.3 1.5,9.2 0,20 -4.8,37.8 -0.2,0.6 -0.4,1.3 -0.6,2.1 -0.9,0.4 -1.5,0.8 -1.6,1.3 l -4.7,16.6 c -0.6,2.3 -0.7,4.3 -0.3,5.5 -8.8,31.1 -21.8,76.4 -21.3,77.1 0.1,0.2 1.7,0.3 4.2,0.5 -1.5,8.9 -2.4,17.5 -2.4,25 0,6.1 0.3,13.5 0.8,22 0.1,23.3 3.3,56.2 11.5,113 3.2,26.2 6.3,49.1 8.1,61.9 5,36.5 10.3,74.9 10.3,74.9 0,0 0.6,0.1 1.9,0.2 0.3,2.7 0.6,5.2 0.8,7.5 0.5,29.5 0.5,57.9 -2.7,98.9 -2.6,33.3 4.9,76.6 8,121.1 0.2,3.2 1.8,44.1 1.4,51.8 -0.3,5.5 -0.9,24 -1.3,33.7 -1.5,4.2 -3.8,10.6 -6.1,17.2 -1.3,2.9 -7.9,18.3 -10.5,26.3 -3.7,11.5 -4.6,16.3 -4,18.3 0.1,0.3 0.3,0.6 0.5,0.8 0,0.5 0.1,1 0.3,1.3 1.9,3.1 19.1,6.8 27.1,6.8 8,0 22.6,-3.1 23.5,-4.3 0.3,-0.5 0.4,-1.2 0.3,-1.8 1,-1.9 0.6,-4.8 0.6,-9.8 0,-9.8 0.2,-29.8 0.2,-29.8 0,0 0.7,-13.5 -0.3,-18.2 -0.8,-3.9 -1.8,-5.5 -2.1,-5.8 0,-1.2 0,-2.4 0,-3.5 0.1,-2.2 1.5,-6.3 1.5,-7 0,-2.4 -4.2,-8 -4.5,-8.4 l 4.1,-67.9 c 0,0 5.2,-42 8.3,-79.3 2.7,-32.5 -3.6,-60.8 3.3,-104.2 1.2,-7.9 2.3,-24.3 2.4,-28.9 v 0 c 0.5,-3.7 1,-7.9 1.4,-12.5 4.7,0.1 9.6,0.1 14.8,0.1 5,0 9.8,0 14.3,-0.1 0.4,4.5 0.9,8.7 1.4,12.5 v 0 c 0.1,4.6 1.2,21 2.4,28.9 6.9,43.4 0.6,71.7 3.3,104.2 3.1,37.4 8.3,79.3 8.3,79.3 l 4.1,67.9 c -0.3,0.4 -4.5,6 -4.5,8.4 0,0.7 1.4,4.8 1.5,7 0,1 0,2.2 0,3.5 -0.3,0.3 -1.3,1.9 -2.1,5.8 -0.9,4.7 -0.3,18.2 -0.3,18.2 0,0 0.1,20 0.2,29.8 0,5 -0.4,8 0.6,9.8 -0.1,0.7 0,1.4 0.3,1.8 0.9,1.2 15.5,4.3 23.5,4.3 8,0 25.3,-3.7 27.1,-6.8 0.2,-0.4 0.3,-0.8 0.3,-1.3 0.3,-0.3 0.4,-0.5 0.5,-0.8 0.6,-2 -0.2,-6.8 -4,-18.3 -2.6,-8 -9.2,-23.4 -10.5,-26.3 -2.3,-6.6 -4.6,-13.1 -6.1,-17.2 -0.3,-9.7 -1,-28.2 -1.3,-33.7 -0.3,-7.7 1.2,-48.6 1.4,-51.8 3,-44.5 10.6,-87.8 8,-121.1 -3.2,-40.9 -3.2,-69.4 -2.7,-98.9 0.2,-2.3 0.5,-4.8 0.8,-7.5 1.6,-0.1 2.4,-0.2 2.4,-0.2 0,0 5.3,-38.4 10.3,-74.9 2.3,-16.6 6.7,-49.9 10.9,-85.3 4.9,-36.2 7.3,-61 8,-79.8 0.9,-12.6 1.5,-23.5 1.5,-31.9 0,-7.6 -0.9,-16.1 -2.3,-25 2.9,-0.2 4.8,-0.4 4.9,-0.6 0.3,-0.5 -6.4,-24.6 -13.5,-49.7 4.6,1.2 9.6,0.9 11.2,0.5 1.9,-0.5 5.7,-5.2 8.8,-12.4 l 5.9,-7.2 -0.3,-0.5 c 6.2,4.4 12.4,8.5 16.1,10.6 11.5,-18.1 35.1,-71.6 40.5,-81.5 4.2,-7.7 9.3,-17.3 11.4,-21.6 0.1,-0.3 0.3,-0.5 0.4,-0.8 0.4,-0.8 0.6,-1.3 0.5,-1.4 z m -257.7,815.7 c -0.1,0.5 -0.3,1.1 -0.5,1.7 1.2,-5.6 5.8,-18.5 7.8,-23.8 -3.4,9.8 -6.7,19.5 -7.3,22.1 z m 44.6,-25.1 c -0.2,-2 -0.3,-3.2 -0.3,-3.2 0,0 -0.1,-1 -0.2,-2.5 0.2,1.7 0.4,3.7 0.5,5.7 z m 1.8,-954.7 v 0 l 0.1,-0.2 c -0.1,0.1 -0.1,0.1 -0.1,0.2 z m 56.6,-0.6 0.4,0.5 v 0 c -0.2,-0.1 -0.3,-0.3 -0.4,-0.5 z m 2,952 c 0,0 -0.1,1.2 -0.3,3.2 0.1,-2 0.3,-4 0.5,-5.8 -0.1,1.6 -0.2,2.6 -0.2,2.6 z m 44.7,30.1 c -0.2,-0.7 -0.4,-1.3 -0.5,-1.7 -0.6,-2.6 -3.9,-12.3 -7.3,-22 2,5.2 6.6,18.1 7.8,23.7 z m 54.9,-814.1 -2.7,12.4 c 0,0 -27.2,50.9 -32,63.1 0.1,0.5 0.7,1.2 1.7,2.2 l -2.3,4 c -2.6,-3.7 -9.6,-15.1 -9.6,-15.1 0,0 -1.1,-3.6 -2.5,-4.7 -0.2,-0.1 -7.4,-5.9 -9.4,-7.6 0,0 -0.1,-0.1 -0.3,-0.2 -3.9,-15.4 -5.1,-25.2 -3.7,-33.8 1.3,-8 5.1,-70 6.1,-90.8 10.7,11.4 44.5,47.7 58.2,66.3 z m -56.3,-279.2 c -0.1,0.1 -0.1,0.2 -0.2,0.3 0.1,0.1 0.1,-0.1 0.2,-0.3 z"
         fill-opacity="0"
         stroke="#666666"
         stroke-width="3"
         id="path302" />
    </g>
    <g
       id="g1135">
      <g
         id="polygon837">
        <path
           d="m 160.435,243.1 -55.8,18.4 22.5,70.6 73.6,20.4 73.5,-20.4 22.5,-70.6 -55.8,-18.4 -40.2,0.8 z"
           fill="#9ea7b5"
           id="path305" />
        <path
           d="m 160.435,243.1 -55.8,18.4 22.5,70.6 73.6,20.4 73.5,-20.4 22.5,-70.6 -55.8,-18.4 -40.2,0.8 z"
           fill-opacity="0"
           stroke="#666666"
           stroke-width="1.5"
           stroke-linecap="round"
           stroke-linejoin="round"
           id="path307" />
      </g>
      <g
         id="g854">
        <path
           d="m 277.435,791.1 c 20.8,-131.8 23.9,-173.2 19.9,-204.6 -4,-31.4 -19.4,-74.3 -19.4,-74.3 -2.9,-12.7 -66.6,99.2 -66.6,99.2 0,0 -10.1,16.2 -6.8,37.8 5,32.7 3.5,77.5 5.5,118.1 1.5,30 2.3,82.9 6.1,110.5 v 0 c 0.1,4.6 1.2,21 2.4,28.9 6.9,43.4 0.6,71.7 3.3,104.2 3.1,37.4 8.3,79.3 8.3,79.3 l 5.1,83.4 25.7,8.6 c 0,0 -1.1,-32.2 -1.5,-39.9 -0.3,-7.7 1.2,-48.6 1.4,-51.8 3,-44.5 10.6,-87.8 8,-121.1 -3.2,-40.9 -3.2,-69.4 -2.7,-98.9 1.9,-17.2 5.6,-43.3 11.3,-79.4 z"
           fill="url(#Gradient_1)"
           id="path846"
           style="fill:url(#Gradient_1)" />
        <path
           d="m 277.435,791.1 c 20.8,-131.8 23.9,-173.2 19.9,-204.6 -4,-31.4 -19.4,-74.3 -19.4,-74.3 -2.9,-12.7 -66.6,99.2 -66.6,99.2 0,0 -10.1,16.2 -6.8,37.8 5,32.7 3.5,77.5 5.5,118.1 1.5,30 2.3,82.9 6.1,110.5 v 0 c 0.1,4.6 1.2,21 2.4,28.9 6.9,43.4 0.6,71.7 3.3,104.2 3.1,37.4 8.3,79.3 8.3,79.3 l 5.1,83.4 25.7,8.6 c 0,0 -1.1,-32.2 -1.5,-39.9 -0.3,-7.7 1.2,-48.6 1.4,-51.8 3,-44.5 10.6,-87.8 8,-121.1 -3.2,-40.9 -3.2,-69.4 -2.7,-98.9 1.9,-17.2 5.6,-43.3 11.3,-79.4 z"
           fill-opacity="0"
           stroke="#666666"
           stroke-width="1.5"
           stroke-linecap="round"
           stroke-linejoin="round"
           id="path850" />
      </g>
      <g
         id="g871">
        <path
           d="m 189.135,611.5 c 0,0 -63.7,-112 -66.6,-99.2 0,0 -15.4,42.9 -19.4,74.3 -4,31.4 -0.9,72.7 19.9,204.6 5.7,36.1 9.4,62.2 11.2,79.6 0.5,29.5 0.5,57.9 -2.7,98.9 -2.6,33.3 4.9,76.6 8,121.1 0.2,3.2 1.8,44.1 1.4,51.8 -0.3,7.7 -1.5,39.9 -1.5,39.9 l 25.7,-8.6 5.1,-83.4 c 0,0 5.2,-42 8.3,-79.3 2.7,-32.5 -3.6,-60.8 3.3,-104.2 1.2,-7.9 2.3,-24.3 2.4,-28.9 v 0 c 3.8,-27.6 4.6,-80.6 6.1,-110.6 2,-40.6 0.6,-85.4 5.5,-118.1 3.4,-21.7 -6.7,-37.9 -6.7,-37.9 z"
           fill="url(#Gradient_2)"
           id="path863"
           style="fill:url(#Gradient_2)" />
        <path
           d="m 189.135,611.5 c 0,0 -63.7,-112 -66.6,-99.2 0,0 -15.4,42.9 -19.4,74.3 -4,31.4 -0.9,72.7 19.9,204.6 5.7,36.1 9.4,62.2 11.2,79.6 0.5,29.5 0.5,57.9 -2.7,98.9 -2.6,33.3 4.9,76.6 8,121.1 0.2,3.2 1.8,44.1 1.4,51.8 -0.3,7.7 -1.5,39.9 -1.5,39.9 l 25.7,-8.6 5.1,-83.4 c 0,0 5.2,-42 8.3,-79.3 2.7,-32.5 -3.6,-60.8 3.3,-104.2 1.2,-7.9 2.3,-24.3 2.4,-28.9 v 0 c 3.8,-27.6 4.6,-80.6 6.1,-110.6 2,-40.6 0.6,-85.4 5.5,-118.1 3.4,-21.7 -6.7,-37.9 -6.7,-37.9 z"
           fill-opacity="0"
           stroke="#666666"
           stroke-width="1.5"
           stroke-linecap="round"
           stroke-linejoin="round"
           id="path867" />
      </g>
      <g
         id="path873">
        <path
           d="m 300.135,591.2 c 0,-43.9 -29.7,-119.8 -29.7,-119.8 l -70,-13.7 -69.9,13.7 c 0,0 -29.7,75.9 -29.7,119.8 0,43.9 15.4,160.5 20.4,197 5,36.5 10.3,74.9 10.3,74.9 0,0 26,2.5 68.9,2.5 43,0 68.9,-2.5 68.9,-2.5 0,0 5.3,-38.4 10.3,-74.9 5.1,-36.5 20.5,-153.1 20.5,-197 z"
           fill="#9ea7b5"
           id="path316" />
        <path
           d="m 300.135,591.2 c 0,-43.9 -29.7,-119.8 -29.7,-119.8 l -70,-13.7 -69.9,13.7 c 0,0 -29.7,75.9 -29.7,119.8 0,43.9 15.4,160.5 20.4,197 5,36.5 10.3,74.9 10.3,74.9 0,0 26,2.5 68.9,2.5 43,0 68.9,-2.5 68.9,-2.5 0,0 5.3,-38.4 10.3,-74.9 5.1,-36.5 20.5,-153.1 20.5,-197 z"
           fill-opacity="0"
           stroke="#666666"
           stroke-width="1.5"
           stroke-linecap="round"
           stroke-linejoin="round"
           id="path318" />
      </g>
      <g
         id="g891">
        <g
           id="path875">
          <path
             d="m 166.135,1158.3 c 0,0 4.6,6 4.6,8.5 0,0.7 -1.4,4.8 -1.5,7 -0.2,5.5 0.6,15.2 0.6,15.2 0,0 5.3,48.3 -3.9,48.4 -9,0 -39.9,-1 -44.3,-1 -4.4,0 3,-14.5 4,-19.1 1.2,-5.8 15.7,-45.7 15.7,-45.7"
             fill="#fff5e0"
             id="path321" />
          <path
             d="m 166.135,1158.3 c 0,0 4.6,6 4.6,8.5 0,0.7 -1.4,4.8 -1.5,7 -0.2,5.5 0.6,15.2 0.6,15.2 0,0 5.3,48.3 -3.9,48.4 -9,0 -39.9,-1 -44.3,-1 -4.4,0 3,-14.5 4,-19.1 1.2,-5.8 15.7,-45.7 15.7,-45.7"
             fill-opacity="0"
             stroke="#666666"
             stroke-width="1.5"
             stroke-linecap="round"
             stroke-linejoin="round"
             id="path323" />
        </g>
        <g
           id="g881">
          <g
             id="path877">
            <path
               d="m 120.835,1234.2 c 0,0 -1.9,4.2 -0.8,6 1.9,3.1 19.1,6.8 27.1,6.8 8,0 22.6,-3.1 23.5,-4.3 0.9,-1.2 -0.3,-4 -0.3,-4 z"
               fill="#7f7f7f"
               id="path326" />
            <path
               d="m 120.835,1234.2 c 0,0 -1.9,4.2 -0.8,6 1.9,3.1 19.1,6.8 27.1,6.8 8,0 22.6,-3.1 23.5,-4.3 0.9,-1.2 -0.3,-4 -0.3,-4 z"
               fill-opacity="0"
               stroke="#666666"
               stroke-width="1.5"
               stroke-linecap="round"
               stroke-linejoin="round"
               id="path328" />
          </g>
          <g
             id="path879">
            <path
               d="m 133.835,1193 c 0,0 -10.1,27.1 -8.8,28.7 0.9,1.1 13,-1.8 22.9,-2.5 9.5,-0.7 15.9,1.4 18.4,-1.1 3.4,-3.4 4.9,-20.3 3.4,-31.6 -0.9,-6.8 -0.5,-9.3 -0.5,-9.3 0,0 1.3,1.4 2.2,5.9 0.9,4.7 0.3,18.2 0.3,18.2 0,0 -0.1,20 -0.2,29.8 0,6.4 0.7,9.5 -1.8,11.2 -1.2,0.8 -15.1,2.5 -21.7,2.5 -6.6,0 -27.5,-2.4 -28.9,-6.6 -0.6,-2 0.2,-6.8 4,-18.3 2.8,-9 10.7,-26.9 10.7,-26.9 z"
               fill="#7f7f7f"
               id="path331" />
            <path
               d="m 133.835,1193 c 0,0 -10.1,27.1 -8.8,28.7 0.9,1.1 13,-1.8 22.9,-2.5 9.5,-0.7 15.9,1.4 18.4,-1.1 3.4,-3.4 4.9,-20.3 3.4,-31.6 -0.9,-6.8 -0.5,-9.3 -0.5,-9.3 0,0 1.3,1.4 2.2,5.9 0.9,4.7 0.3,18.2 0.3,18.2 0,0 -0.1,20 -0.2,29.8 0,6.4 0.7,9.5 -1.8,11.2 -1.2,0.8 -15.1,2.5 -21.7,2.5 -6.6,0 -27.5,-2.4 -28.9,-6.6 -0.6,-2 0.2,-6.8 4,-18.3 2.8,-9 10.7,-26.9 10.7,-26.9 z"
               fill-opacity="0"
               stroke="#666666"
               stroke-width="1.5"
               stroke-linecap="round"
               stroke-linejoin="round"
               id="path333" />
          </g>
        </g>
        <g
           id="path883">
          <path
             d="m 234.335,1158.3 c 0,0 -4.6,6 -4.6,8.5 0,0.7 1.4,4.8 1.5,7 0.2,5.5 -0.6,15.2 -0.6,15.2 0,0 -5.3,48.3 3.9,48.4 9,0 39.9,-1 44.3,-1 4.4,0 -3,-14.5 -4,-19.1 -1.2,-5.8 -15.7,-45.7 -15.7,-45.7"
             fill="#fff5e0"
             id="path337" />
          <path
             d="m 234.335,1158.3 c 0,0 -4.6,6 -4.6,8.5 0,0.7 1.4,4.8 1.5,7 0.2,5.5 -0.6,15.2 -0.6,15.2 0,0 -5.3,48.3 3.9,48.4 9,0 39.9,-1 44.3,-1 4.4,0 -3,-14.5 -4,-19.1 -1.2,-5.8 -15.7,-45.7 -15.7,-45.7"
             fill-opacity="0"
             stroke="#666666"
             stroke-width="1.5"
             stroke-linecap="round"
             stroke-linejoin="round"
             id="path339" />
        </g>
        <g
           id="g889">
          <g
             id="path885">
            <path
               d="m 279.735,1234.2 c 0,0 1.9,4.2 0.8,6 -1.9,3.1 -19.1,6.8 -27.1,6.8 -8,0 -22.6,-3.1 -23.5,-4.3 -0.9,-1.2 0.3,-4 0.3,-4 z"
               fill="#7f7f7f"
               id="path342" />
            <path
               d="m 279.735,1234.2 c 0,0 1.9,4.2 0.8,6 -1.9,3.1 -19.1,6.8 -27.1,6.8 -8,0 -22.6,-3.1 -23.5,-4.3 -0.9,-1.2 0.3,-4 0.3,-4 z"
               fill-opacity="0"
               stroke="#666666"
               stroke-width="1.5"
               stroke-linecap="round"
               stroke-linejoin="round"
               id="path344" />
          </g>
          <g
             id="path887">
            <path
               d="m 266.735,1193 c 0,0 10.1,27.1 8.8,28.7 -0.9,1.1 -13,-1.8 -22.9,-2.5 -9.5,-0.7 -15.9,1.4 -18.4,-1.1 -3.4,-3.4 -4.9,-20.3 -3.4,-31.6 0.9,-6.8 0.5,-9.3 0.5,-9.3 0,0 -1.3,1.4 -2.2,5.9 -0.9,4.7 -0.3,18.2 -0.3,18.2 0,0 0.1,20 0.2,29.8 0,6.4 -0.7,9.5 1.8,11.2 1.2,0.8 15.1,2.5 21.7,2.5 6.6,0 27.5,-2.4 28.9,-6.6 0.6,-2 -0.2,-6.8 -4,-18.3 -2.9,-9 -10.7,-26.9 -10.7,-26.9 z"
               fill="#7f7f7f"
               id="path347" />
            <path
               d="m 266.735,1193 c 0,0 10.1,27.1 8.8,28.7 -0.9,1.1 -13,-1.8 -22.9,-2.5 -9.5,-0.7 -15.9,1.4 -18.4,-1.1 -3.4,-3.4 -4.9,-20.3 -3.4,-31.6 0.9,-6.8 0.5,-9.3 0.5,-9.3 0,0 -1.3,1.4 -2.2,5.9 -0.9,4.7 -0.3,18.2 -0.3,18.2 0,0 0.1,20 0.2,29.8 0,6.4 -0.7,9.5 1.8,11.2 1.2,0.8 15.1,2.5 21.7,2.5 6.6,0 27.5,-2.4 28.9,-6.6 0.6,-2 -0.2,-6.8 -4,-18.3 -2.9,-9 -10.7,-26.9 -10.7,-26.9 z"
               fill-opacity="0"
               stroke="#666666"
               stroke-width="1.5"
               stroke-linecap="round"
               stroke-linejoin="round"
               id="path349" />
          </g>
        </g>
      </g>
      <g
         id="path893">
        <path
           d="m 272.235,331 c 0,0 50,52.6 63.8,73.1 3.9,5.8 37.7,12.4 45.6,1.3 2.3,-3.3 2.8,-5.3 -0.9,-14.6 -2.6,-6.4 -31.9,-51.5 -35.6,-57.6 -2.3,-3.9 -9.8,-24.2 -12.7,-29.9 -1.7,-3.3 -7.3,-6.6 -8.2,-8.4 -6.1,-11.2 -6.8,-20.2 -11.5,-25.7 -8.1,-9.6 -16.2,-7.8 -16.2,-7.8 l -12.1,-3.8"
           fill="#9ea7b5"
           id="path354" />
        <path
           d="m 272.235,331 c 0,0 50,52.6 63.8,73.1 3.9,5.8 37.7,12.4 45.6,1.3 2.3,-3.3 2.8,-5.3 -0.9,-14.6 -2.6,-6.4 -31.9,-51.5 -35.6,-57.6 -2.3,-3.9 -9.8,-24.2 -12.7,-29.9 -1.7,-3.3 -7.3,-6.6 -8.2,-8.4 -6.1,-11.2 -6.8,-20.2 -11.5,-25.7 -8.1,-9.6 -16.2,-7.8 -16.2,-7.8 l -12.1,-3.8"
           fill-opacity="0"
           stroke="#666666"
           stroke-width="1.5"
           stroke-linecap="round"
           stroke-linejoin="round"
           id="path356" />
      </g>
      <g
         id="path895">
        <path
           d="m 132.035,337.7 c 0,0 -3.2,42.7 -27.5,95.2 -5,10.8 -48.2,-14.1 -41.4,-40.1 1.8,-6.7 6.6,-13.2 8.3,-20.2 1.1,-4.4 -1,-9.1 0,-13.4 5.5,-23 10.3,-44.7 13.3,-57 3,-12.4 1.3,-21.5 5,-27.7 6.4,-10.8 15.1,-13.2 15.1,-13.2 l 10.5,-3.2"
           fill="#9ea7b5"
           id="path359" />
        <path
           d="m 132.035,337.7 c 0,0 -3.2,42.7 -27.5,95.2 -5,10.8 -48.2,-14.1 -41.4,-40.1 1.8,-6.7 6.6,-13.2 8.3,-20.2 1.1,-4.4 -1,-9.1 0,-13.4 5.5,-23 10.3,-44.7 13.3,-57 3,-12.4 1.3,-21.5 5,-27.7 6.4,-10.8 15.1,-13.2 15.1,-13.2 l 10.5,-3.2"
           fill-opacity="0"
           stroke="#666666"
           stroke-width="1.5"
           stroke-linecap="round"
           stroke-linejoin="round"
           id="path361" />
      </g>
      <g
         id="path897">
        <path
           d="m 7.035,301.5 c -9.2,-3.4 39.2,-31.7 41.6,-24.9 2.4,6.8 -20.5,32.7 -41.6,24.9 z"
           fill="#9ea7b5"
           id="path364" />
        <path
           d="m 7.035,301.5 c -9.2,-3.4 39.2,-31.7 41.6,-24.9 2.4,6.8 -20.5,32.7 -41.6,24.9 z"
           fill-opacity="0"
           stroke="#666666"
           stroke-width="1.5"
           stroke-linecap="round"
           stroke-linejoin="round"
           id="path366" />
      </g>
      <g
         id="g948">
        <g
           id="path899">
          <path
             d="m 87.935,448.3 c -5.4,1.3 -25.1,-34.8 -31.7,-50.4 -6.6,-15.6 -16.8,-50.5 -23.9,-70 -5.8,-15.9 -16.7,-50.3 -16.7,-50.3 l 26.6,-7.3 c 0,0 12.8,32.3 19.3,48 6.6,15.6 30,51.1 32.5,73.7"
             fill="#fff5e0"
             id="path369" />
          <path
             d="m 87.935,448.3 c -5.4,1.3 -25.1,-34.8 -31.7,-50.4 -6.6,-15.6 -16.8,-50.5 -23.9,-70 -5.8,-15.9 -16.7,-50.3 -16.7,-50.3 l 26.6,-7.3 c 0,0 12.8,32.3 19.3,48 6.6,15.6 30,51.1 32.5,73.7"
             fill-opacity="0"
             stroke="#666666"
             stroke-width="1.5"
             stroke-linecap="round"
             stroke-linejoin="round"
             id="path371" />
        </g>
        <g
           id="g946">
          <g
             id="path908">
            <path
               d="m 21.935,296.9 -7.3,-22.9 c 0,0 -15.2,-14.4 -12.9,-40.1 0.2,-1.7 0.2,-3.6 0.4,-5.5 0.7,-6.4 5.1,-10 5.1,-10 l 2.9,1.3 c 0,0 30.8,-0.6 31.6,-2.7 0.8,-2.1 2.1,-32.4 3.5,-50 1.2,-14.5 10,-15.7 10.1,-0.7 0.1,18.4 -0.4,54.4 -0.4,54.4 0,0 1.4,15.3 1.4,20.4 0.1,5.1 -10.8,24.2 -14,28.5 l 2.7,7.6"
               fill="url(#Gradient_3)"
               id="path374"
               style="fill:url(#Gradient_3)" />
            <path
               d="m 21.935,296.9 -7.3,-22.9 c 0,0 -15.2,-14.4 -12.9,-40.1 0.2,-1.7 0.2,-3.6 0.4,-5.5 0.7,-6.4 5.1,-10 5.1,-10 l 2.9,1.3 c 0,0 30.8,-0.6 31.6,-2.7 0.8,-2.1 2.1,-32.4 3.5,-50 1.2,-14.5 10,-15.7 10.1,-0.7 0.1,18.4 -0.4,54.4 -0.4,54.4 0,0 1.4,15.3 1.4,20.4 0.1,5.1 -10.8,24.2 -14,28.5 l 2.7,7.6"
               fill-opacity="0"
               stroke="#666666"
               stroke-width="1.5"
               stroke-linecap="round"
               stroke-linejoin="round"
               id="path376" />
          </g>
          <g
             id="path917">
            <path
               d="m 6.635,223.2 c -0.2,3.8 -0.2,8.7 0.1,9.5 0.6,1.8 1.1,3.9 2.8,4.8 0.8,0.4 5,0.7 6,-0.5 1,-1.2 1.4,-2.2 1.2,-3 -0.2,-0.8 1.5,-14.7 -0.3,-16 -4.1,-2.9 -9.1,-1.3 -11.5,0.6 -2.5,1.9 -3,13.5 -3,13.5"
               fill="url(#Gradient_4)"
               id="path379"
               style="fill:url(#Gradient_4)" />
            <path
               d="m 6.635,223.2 c -0.2,3.8 -0.2,8.7 0.1,9.5 0.6,1.8 1.1,3.9 2.8,4.8 0.8,0.4 5,0.7 6,-0.5 1,-1.2 1.4,-2.2 1.2,-3 -0.2,-0.8 1.5,-14.7 -0.3,-16 -4.1,-2.9 -9.1,-1.3 -11.5,0.6 -2.5,1.9 -3,13.5 -3,13.5"
               fill-opacity="0"
               stroke="#666666"
               stroke-width="1.5"
               stroke-linecap="round"
               stroke-linejoin="round"
               id="path381" />
          </g>
          <g
             id="path926">
            <path
               d="m 27.635,232.7 c 0,0 1.1,-13.4 0.6,-16.5 -0.4,-3 -9,-3.9 -10.4,-0.1 -0.9,2.3 -1.3,14.9 -1,17.8 0.1,0.7 1.8,4 4,4.2 3,0.3 5.1,0 6,-1.2 0.8,-1.2 0.8,-4.2 0.8,-4.2 z"
               fill="url(#Gradient_5)"
               id="path384"
               style="fill:url(#Gradient_5)" />
            <path
               d="m 27.635,232.7 c 0,0 1.1,-13.4 0.6,-16.5 -0.4,-3 -9,-3.9 -10.4,-0.1 -0.9,2.3 -1.3,14.9 -1,17.8 0.1,0.7 1.8,4 4,4.2 3,0.3 5.1,0 6,-1.2 0.8,-1.2 0.8,-4.2 0.8,-4.2 z"
               fill-opacity="0"
               stroke="#666666"
               stroke-width="1.5"
               stroke-linecap="round"
               stroke-linejoin="round"
               id="path386" />
          </g>
          <g
             id="path935">
            <path
               d="m 39.335,229.2 c 1.4,-5.6 1.7,-15.4 0.8,-17.9 -1.1,-3.1 -9.6,-3.5 -10.9,0.1 -0.9,2.5 -1.1,15.6 -0.9,18.8 0,0.8 0.6,5.7 2.9,6.1 3,0.4 5.1,0.6 6,-0.6 0.9,-1.2 2.1,-6.5 2.1,-6.5 z"
               fill="url(#Gradient_6)"
               id="path389"
               style="fill:url(#Gradient_6)" />
            <path
               d="m 39.335,229.2 c 1.4,-5.6 1.7,-15.4 0.8,-17.9 -1.1,-3.1 -9.6,-3.5 -10.9,0.1 -0.9,2.5 -1.1,15.6 -0.9,18.8 0,0.8 0.6,5.7 2.9,6.1 3,0.4 5.1,0.6 6,-0.6 0.9,-1.2 2.1,-6.5 2.1,-6.5 z"
               fill-opacity="0"
               stroke="#666666"
               stroke-width="1.5"
               stroke-linecap="round"
               stroke-linejoin="round"
               id="path391" />
          </g>
          <g
             id="path944">
            <path
               d="m 27.235,258.9 c 0.1,-4.7 2.8,-10.4 5.2,-16.6 4.1,-10 8.5,-14.1 8.5,-14.1 l 0.7,-16.5 c 0,0 0.7,-12.9 7,-13.6 6.3,-0.7 3.1,13.1 3.3,17.8 0.2,4 2.6,15.2 2.4,23.2"
               fill="url(#Gradient_7)"
               id="path394"
               style="fill:url(#Gradient_7)" />
            <path
               d="m 27.235,258.9 c 0.1,-4.7 2.8,-10.4 5.2,-16.6 4.1,-10 8.5,-14.1 8.5,-14.1 l 0.7,-16.5 c 0,0 0.7,-12.9 7,-13.6 6.3,-0.7 3.1,13.1 3.3,17.8 0.2,4 2.6,15.2 2.4,23.2"
               fill-opacity="0"
               stroke="#666666"
               stroke-width="1.5"
               stroke-linecap="round"
               stroke-linejoin="round"
               id="path396" />
          </g>
        </g>
      </g>
      <g
         id="path950">
        <path
           d="m 116.835,402.6 c -4.7,14.5 -13.8,50.1 -35.3,52.4 -9.1,1 -10.9,-4.3 -20,-22.3 -4.6,-9 -11,-16.4 -18,-35.7 -14.1,-38.4 -37.1,-95.5 -37.1,-95.5 16,1.8 39.6,-17.5 42.2,-24.9 5,12.4 43.4,102.9 43.4,102.9"
           fill="#9ea7b5"
           id="path401" />
        <path
           d="m 116.835,402.6 c -4.7,14.5 -13.8,50.1 -35.3,52.4 -9.1,1 -10.9,-4.3 -20,-22.3 -4.6,-9 -11,-16.4 -18,-35.7 -14.1,-38.4 -37.1,-95.5 -37.1,-95.5 16,1.8 39.6,-17.5 42.2,-24.9 5,12.4 43.4,102.9 43.4,102.9"
           fill-opacity="0"
           stroke="#666666"
           stroke-width="1.5"
           stroke-linecap="round"
           stroke-linejoin="round"
           id="path403" />
      </g>
      <g
         id="path959">
        <path
           d="m 236.935,249.3 c -13.1,-7.4 -15.3,-17.3 -19.5,-26.5 -0.9,-1.9 -0.9,-17.4 -0.9,-18.4 v -9.1 h -31.7 v 9.1 c 0,1.1 0,16.5 -0.9,18.4 -4.2,9.2 -6.4,19.2 -19.5,26.5 -4.1,2.3 36,29.9 36,29.9 0,0 40.6,-27.6 36.5,-29.9 z"
           fill="url(#Gradient_8)"
           id="path406"
           style="fill:url(#Gradient_8)" />
        <path
           d="m 236.935,249.3 c -13.1,-7.4 -15.3,-17.3 -19.5,-26.5 -0.9,-1.9 -0.9,-17.4 -0.9,-18.4 v -9.1 h -31.7 v 9.1 c 0,1.1 0,16.5 -0.9,18.4 -4.2,9.2 -6.4,19.2 -19.5,26.5 -4.1,2.3 36,29.9 36,29.9 0,0 40.6,-27.6 36.5,-29.9 z"
           fill-opacity="0"
           stroke="#666666"
           stroke-width="1.5"
           stroke-linecap="round"
           stroke-linejoin="round"
           id="path408" />
      </g>
      <g
         id="path961">
        <path
           d="m 201.835,1.7 c -0.4,0 -0.7,0 -1.1,0 -0.4,0 -0.7,0 -1.1,0 -54.4,0 -80.1,39.2 -74.1,89.6 0.7,6.3 1.9,12.4 3.5,18.3 6.1,35.3 29.3,62.9 58.7,69.7 3.9,1 7.9,1.6 11.8,1.6 0.4,0 0.7,0 1.1,0 0.4,0 0.7,0 1.1,0 4,0 7.9,-0.6 11.8,-1.6 29.4,-6.8 52.7,-34.5 58.7,-69.7 1.6,-5.9 2.8,-12 3.5,-18.3 6.2,-50.4 -19.5,-89.6 -73.9,-89.6 z"
           fill="#967b4a"
           id="path411" />
        <path
           d="m 201.835,1.7 c -0.4,0 -0.7,0 -1.1,0 -0.4,0 -0.7,0 -1.1,0 -54.4,0 -80.1,39.2 -74.1,89.6 0.7,6.3 1.9,12.4 3.5,18.3 6.1,35.3 29.3,62.9 58.7,69.7 3.9,1 7.9,1.6 11.8,1.6 0.4,0 0.7,0 1.1,0 0.4,0 0.7,0 1.1,0 4,0 7.9,-0.6 11.8,-1.6 29.4,-6.8 52.7,-34.5 58.7,-69.7 1.6,-5.9 2.8,-12 3.5,-18.3 6.2,-50.4 -19.5,-89.6 -73.9,-89.6 z"
           fill-opacity="0"
           stroke="#666666"
           stroke-width="1.5"
           stroke-linecap="round"
           stroke-linejoin="round"
           id="path413" />
      </g>
      <g
         id="path970">
        <path
           d="m 138.235,113 c 0,0 -10,-1.2 -10,13.1 0,14.3 13.8,21.3 13.8,21.3 z"
           fill="url(#Gradient_9)"
           id="path416"
           style="fill:url(#Gradient_9)" />
        <path
           d="m 138.235,113 c 0,0 -10,-1.2 -10,13.1 0,14.3 13.8,21.3 13.8,21.3 z"
           fill-opacity="0"
           stroke="#666666"
           stroke-width="1.5"
           stroke-linecap="round"
           stroke-linejoin="round"
           id="path418" />
      </g>
      <g
         id="path979">
        <path
           d="m 263.435,113 c 0,0 10,-1.2 10,13.1 0,14.3 -13.8,21.3 -13.8,21.3 z"
           fill="url(#Gradient_10)"
           id="path421"
           style="fill:url(#Gradient_10)" />
        <path
           d="m 263.435,113 c 0,0 10,-1.2 10,13.1 0,14.3 -13.8,21.3 -13.8,21.3 z"
           fill-opacity="0"
           stroke="#666666"
           stroke-width="1.5"
           stroke-linecap="round"
           stroke-linejoin="round"
           id="path423" />
      </g>
      <g
         id="path988">
        <path
           d="m 202.635,37.7 v 0 c -0.4,0 -0.7,0 -1.1,0 -0.1,0 -0.2,0 -0.3,0 v 0 c -0.1,0 -0.2,0 -0.4,0 -0.1,0 -0.2,0 -0.4,0 v 0 c -0.1,0 -0.2,0 -0.3,0 -0.4,0 -0.7,0 -1.1,0 v 0 c -53.5,1.1 -63.3,41.2 -63.3,60.7 0,0 0.6,8.8 0.6,23.1 0,14.3 2.4,33.1 11.3,45.2 8.9,12.1 31,36.8 53.3,36.8 22.2,0 44.4,-24.7 53.3,-36.8 8.9,-12.1 11.3,-30.9 11.3,-45.2 0,-14.3 0.6,-23.1 0.6,-23.1 -0.2,-19.6 -9.9,-59.7 -63.5,-60.7 z"
           fill="url(#Gradient_11)"
           id="path426"
           style="fill:url(#Gradient_11)" />
        <path
           d="m 202.635,37.7 v 0 c -0.4,0 -0.7,0 -1.1,0 -0.1,0 -0.2,0 -0.3,0 v 0 c -0.1,0 -0.2,0 -0.4,0 -0.1,0 -0.2,0 -0.4,0 v 0 c -0.1,0 -0.2,0 -0.3,0 -0.4,0 -0.7,0 -1.1,0 v 0 c -53.5,1.1 -63.3,41.2 -63.3,60.7 0,0 0.6,8.8 0.6,23.1 0,14.3 2.4,33.1 11.3,45.2 8.9,12.1 31,36.8 53.3,36.8 22.2,0 44.4,-24.7 53.3,-36.8 8.9,-12.1 11.3,-30.9 11.3,-45.2 0,-14.3 0.6,-23.1 0.6,-23.1 -0.2,-19.6 -9.9,-59.7 -63.5,-60.7 z"
           fill-opacity="0"
           stroke="#666666"
           stroke-width="1.5"
           stroke-linecap="round"
           stroke-linejoin="round"
           id="path428" />
      </g>
      <g
         id="path990">
        <path
           d="m 167.635,44.9 c 0,0 -25.2,16.7 -32.6,68.5 0,0 -13.9,-58.9 25.4,-81.5"
           fill="#967b4a"
           id="path431" />
        <path
           d="m 167.635,44.9 c 0,0 -25.2,16.7 -32.6,68.5 0,0 -13.9,-58.9 25.4,-81.5"
           fill-opacity="0"
           stroke="#666666"
           stroke-width="1.5"
           stroke-linecap="round"
           stroke-linejoin="round"
           id="path433" />
      </g>
      <g
         id="path992">
        <path
           d="m 165.535,46.2 c 0,0 29.8,27.6 100.3,67.4 11.5,6.5 7.9,12.5 7.9,12.5 12.9,-24.6 -36,-131.4 -104.6,-100.2"
           fill="#967b4a"
           id="path436" />
        <path
           d="m 165.535,46.2 c 0,0 29.8,27.6 100.3,67.4 11.5,6.5 7.9,12.5 7.9,12.5 12.9,-24.6 -36,-131.4 -104.6,-100.2"
           fill-opacity="0"
           stroke="#666666"
           stroke-width="1.5"
           stroke-linecap="round"
           stroke-linejoin="round"
           id="path438" />
      </g>
      <g
         id="g998">
        <path
           d="m 194.335,156.4 3.3,0.5"
           fill-opacity="0"
           stroke="#666666"
           stroke-width="1.5"
           stroke-linecap="round"
           stroke-linejoin="round"
           id="line994" />
        <path
           d="m 207.135,156.4 -3.3,0.5"
           fill-opacity="0"
           stroke="#666666"
           stroke-width="1.5"
           stroke-linecap="round"
           stroke-linejoin="round"
           id="line996" />
      </g>
      <path
         d="m 169.735,34.5 c 0,0 58.7,49.7 91,69.3"
         fill-opacity="0"
         stroke="#666666"
         stroke-width="1.5"
         stroke-linecap="round"
         stroke-linejoin="round"
         id="path1000" />
      <path
         d="m 155.335,120.1 c 0,0 4.1,-11.6 15.2,-11.6 11.1,0 14.3,11.6 14.3,11.6 0,0 -7.2,6.7 -20.1,3.7 -5.4,-1.3 -9.4,-3.7 -9.4,-3.7 z"
         fill="#ffffff"
         id="path1002" />
      <g
         id="g1012">
        <g
           id="path1004">
          <path
             d="m 163.135,117.1 c 0,4.4 3.6,8.1 8.1,8.1 4.5,0 8.1,-3.6 8.1,-8.1 0,-4.4 -3.6,-8.1 -8.1,-8.1 -4.5,0 -8.1,3.7 -8.1,8.1 z"
             fill="#000000"
             id="path446" />
          <path
             d="m 163.135,117.1 c 0,4.4 3.6,8.1 8.1,8.1 4.5,0 8.1,-3.6 8.1,-8.1 0,-4.4 -3.6,-8.1 -8.1,-8.1 -4.5,0 -8.1,3.7 -8.1,8.1 z"
             fill-opacity="0"
             stroke="#666666"
             stroke-width="1.5"
             stroke-linecap="round"
             stroke-linejoin="round"
             id="path448" />
        </g>
        <g
           id="path1006">
          <path
             d="m 163.735,117.1 c 0,4.1 3.3,7.4 7.4,7.4 4.1,0 7.4,-3.3 7.4,-7.4 0,-4.1 -3.3,-7.4 -7.4,-7.4 -4,0 -7.4,3.3 -7.4,7.4 z"
             fill="#a1895c"
             id="path451" />
          <path
             d="m 163.735,117.1 c 0,4.1 3.3,7.4 7.4,7.4 4.1,0 7.4,-3.3 7.4,-7.4 0,-4.1 -3.3,-7.4 -7.4,-7.4 -4,0 -7.4,3.3 -7.4,7.4 z"
             fill-opacity="0"
             stroke="#666666"
             stroke-width="1.5"
             stroke-linecap="round"
             stroke-linejoin="round"
             id="path453" />
        </g>
        <g
           id="path1008">
          <path
             d="m 167.635,117.1 c 0,2 1.6,3.6 3.6,3.6 2,0 3.6,-1.6 3.6,-3.6 0,-2 -1.6,-3.6 -3.6,-3.6 -2,0 -3.6,1.6 -3.6,3.6 z"
             fill="#666666"
             id="path456" />
          <path
             d="m 167.635,117.1 c 0,2 1.6,3.6 3.6,3.6 2,0 3.6,-1.6 3.6,-3.6 0,-2 -1.6,-3.6 -3.6,-3.6 -2,0 -3.6,1.6 -3.6,3.6 z"
             fill-opacity="0"
             stroke="#666666"
             stroke-width="1.5"
             stroke-linecap="round"
             stroke-linejoin="round"
             id="path458" />
        </g>
        <path
           d="m 169.935,114.8 c 0,0.7 0.5,1.2 1.2,1.2 0.7,0 1.2,-0.5 1.2,-1.2 0,-0.7 -0.5,-1.2 -1.2,-1.2 -0.6,0 -1.2,0.5 -1.2,1.2 z"
           fill="#ffffff"
           id="path1010" />
      </g>
      <g
         id="path1014">
        <path
           d="m 164.035,108.6 c 0,0 -1.4,-1.3 -2.8,-4.7 0.9,2.6 3.3,4.4 3.3,4.4 l -0.5,0.3"
           fill="#fff8e8"
           id="path463" />
        <path
           d="m 164.035,108.6 c 0,0 -1.4,-1.3 -2.8,-4.7 0.9,2.6 3.3,4.4 3.3,4.4 l -0.5,0.3"
           fill-opacity="0"
           stroke="#666666"
           stroke-width="1.5"
           stroke-linecap="round"
           stroke-linejoin="round"
           id="path465" />
      </g>
      <g
         id="path1016">
        <path
           d="m 158.935,112.8 c 0,0 -1.8,-0.6 -4.4,-3.1 1.9,2 4.9,2.7 4.9,2.7 l -0.5,0.4"
           fill="#fff8e8"
           id="path468" />
        <path
           d="m 158.935,112.8 c 0,0 -1.8,-0.6 -4.4,-3.1 1.9,2 4.9,2.7 4.9,2.7 l -0.5,0.4"
           fill-opacity="0"
           stroke="#666666"
           stroke-width="1.5"
           stroke-linecap="round"
           stroke-linejoin="round"
           id="path470" />
      </g>
      <g
         id="path1018">
        <path
           d="m 171.735,107.1 c 0,0 -1.1,-1.6 -1.7,-5.1 0.4,2.7 2.3,5 2.3,5 l -0.6,0.1"
           fill="#fff8e8"
           id="path473" />
        <path
           d="m 171.735,107.1 c 0,0 -1.1,-1.6 -1.7,-5.1 0.4,2.7 2.3,5 2.3,5 l -0.6,0.1"
           fill-opacity="0"
           stroke="#666666"
           stroke-width="1.5"
           stroke-linecap="round"
           stroke-linejoin="round"
           id="path475" />
      </g>
      <g
         id="path1020">
        <path
           d="m 155.335,118.4 c 0,0 4.2,-11.1 15.4,-11.1 11.1,0 14.1,11.1 14.1,11.1 0,0 -4.4,-10.2 -13.3,-10.2 -7.4,-0.1 -16.2,10.2 -16.2,10.2 z"
           fill="#666666"
           id="path478" />
        <path
           d="m 155.335,118.4 c 0,0 4.2,-11.1 15.4,-11.1 11.1,0 14.1,11.1 14.1,11.1 0,0 -4.4,-10.2 -13.3,-10.2 -7.4,-0.1 -16.2,10.2 -16.2,10.2 z"
           fill-opacity="0"
           stroke="#666666"
           stroke-width="1.5"
           stroke-linecap="round"
           stroke-linejoin="round"
           id="path480" />
      </g>
      <path
         d="m 246.035,120.1 c 0,0 -4.1,-11.6 -15.2,-11.6 -11.1,0 -14.3,11.6 -14.3,11.6 0,0 7.2,6.7 20.1,3.7 5.5,-1.3 9.4,-3.7 9.4,-3.7 z"
         fill="#ffffff"
         id="path1022" />
      <g
         id="g1032">
        <g
           id="path1024">
          <path
             d="m 238.335,117.1 c 0,4.4 -3.6,8.1 -8.1,8.1 -4.4,0 -8.1,-3.6 -8.1,-8.1 0,-4.4 3.6,-8.1 8.1,-8.1 4.4,0 8.1,3.7 8.1,8.1 z"
             fill="#000000"
             id="path484" />
          <path
             d="m 238.335,117.1 c 0,4.4 -3.6,8.1 -8.1,8.1 -4.4,0 -8.1,-3.6 -8.1,-8.1 0,-4.4 3.6,-8.1 8.1,-8.1 4.4,0 8.1,3.7 8.1,8.1 z"
             fill-opacity="0"
             stroke="#666666"
             stroke-width="1.5"
             stroke-linecap="round"
             stroke-linejoin="round"
             id="path486" />
        </g>
        <g
           id="path1026">
          <path
             d="m 237.635,117.1 c 0,4.1 -3.3,7.4 -7.4,7.4 -4.1,0 -7.4,-3.3 -7.4,-7.4 0,-4.1 3.3,-7.4 7.4,-7.4 4.1,0 7.4,3.3 7.4,7.4 z"
             fill="#a1895c"
             id="path489" />
          <path
             d="m 237.635,117.1 c 0,4.1 -3.3,7.4 -7.4,7.4 -4.1,0 -7.4,-3.3 -7.4,-7.4 0,-4.1 3.3,-7.4 7.4,-7.4 4.1,0 7.4,3.3 7.4,7.4 z"
             fill-opacity="0"
             stroke="#666666"
             stroke-width="1.5"
             stroke-linecap="round"
             stroke-linejoin="round"
             id="path491" />
        </g>
        <g
           id="path1028">
          <path
             d="m 233.835,117.1 c 0,2 -1.6,3.6 -3.6,3.6 -2,0 -3.6,-1.6 -3.6,-3.6 0,-2 1.6,-3.6 3.6,-3.6 2,0 3.6,1.6 3.6,3.6 z"
             fill="#666666"
             id="path494" />
          <path
             d="m 233.835,117.1 c 0,2 -1.6,3.6 -3.6,3.6 -2,0 -3.6,-1.6 -3.6,-3.6 0,-2 1.6,-3.6 3.6,-3.6 2,0 3.6,1.6 3.6,3.6 z"
             fill-opacity="0"
             stroke="#666666"
             stroke-width="1.5"
             stroke-linecap="round"
             stroke-linejoin="round"
             id="path496" />
        </g>
        <path
           d="m 231.435,114.8 c 0,0.7 -0.5,1.2 -1.2,1.2 -0.7,0 -1.2,-0.5 -1.2,-1.2 0,-0.7 0.5,-1.2 1.2,-1.2 0.7,0 1.2,0.5 1.2,1.2 z"
           fill="#ffffff"
           id="path1030" />
      </g>
      <g
         id="path1034">
        <path
           d="m 237.435,108.6 c 0,0 1.4,-1.3 2.8,-4.7 -0.9,2.6 -3.3,4.4 -3.3,4.4 l 0.5,0.3"
           fill="#fff8e8"
           id="path501" />
        <path
           d="m 237.435,108.6 c 0,0 1.4,-1.3 2.8,-4.7 -0.9,2.6 -3.3,4.4 -3.3,4.4 l 0.5,0.3"
           fill-opacity="0"
           stroke="#666666"
           stroke-width="1.5"
           stroke-linecap="round"
           stroke-linejoin="round"
           id="path503" />
      </g>
      <g
         id="path1036">
        <path
           d="m 242.435,112.8 c 0,0 1.8,-0.6 4.4,-3.1 -1.9,2 -4.9,2.7 -4.9,2.7 l 0.5,0.4"
           fill="#fff8e8"
           id="path506" />
        <path
           d="m 242.435,112.8 c 0,0 1.8,-0.6 4.4,-3.1 -1.9,2 -4.9,2.7 -4.9,2.7 l 0.5,0.4"
           fill-opacity="0"
           stroke="#666666"
           stroke-width="1.5"
           stroke-linecap="round"
           stroke-linejoin="round"
           id="path508" />
      </g>
      <g
         id="path1038">
        <path
           d="m 229.635,107.1 c 0,0 1.1,-1.6 1.7,-5.1 -0.4,2.7 -2.3,5 -2.3,5 l 0.6,0.1"
           fill="#fff8e8"
           id="path511" />
        <path
           d="m 229.635,107.1 c 0,0 1.1,-1.6 1.7,-5.1 -0.4,2.7 -2.3,5 -2.3,5 l 0.6,0.1"
           fill-opacity="0"
           stroke="#666666"
           stroke-width="1.5"
           stroke-linecap="round"
           stroke-linejoin="round"
           id="path513" />
      </g>
      <g
         id="path1040">
        <path
           d="m 246.035,118.4 c 0,0 -4.2,-11.1 -15.4,-11.1 -11.1,0 -14.1,11.1 -14.1,11.1 0,0 4.4,-10.2 13.3,-10.2 7.4,-0.1 16.2,10.2 16.2,10.2 z"
           fill="#666666"
           id="path516" />
        <path
           d="m 246.035,118.4 c 0,0 -4.2,-11.1 -15.4,-11.1 -11.1,0 -14.1,11.1 -14.1,11.1 0,0 4.4,-10.2 13.3,-10.2 7.4,-0.1 16.2,10.2 16.2,10.2 z"
           fill-opacity="0"
           stroke="#666666"
           stroke-width="1.5"
           stroke-linecap="round"
           stroke-linejoin="round"
           id="path518" />
      </g>
      <path
         d="m 152.635,93.8 c 0,0 4.8,-1.5 12,-0.5 7.2,1 18.2,6.2 18.2,6.2"
         fill-opacity="0"
         stroke="#666666"
         stroke-width="1.5"
         stroke-linecap="round"
         stroke-linejoin="round"
         id="path1042" />
      <path
         d="m 249.035,93.8 c 0,0 -4.8,-1.5 -12,-0.5 -7.2,1 -18.2,6.2 -18.2,6.2"
         fill-opacity="0"
         stroke="#666666"
         stroke-width="1.5"
         stroke-linecap="round"
         stroke-linejoin="round"
         id="path1044" />
      <g
         id="g1050">
        <g
           id="path1046">
          <path
             d="m 195.435,190.7 c 0,0 3.2,2.4 5.6,2.4 2.5,0 5.6,-2.4 5.6,-2.4"
             fill="#fff5e0"
             id="path523" />
          <path
             d="m 195.435,190.7 c 0,0 3.2,2.4 5.6,2.4 2.5,0 5.6,-2.4 5.6,-2.4"
             fill-opacity="0"
             stroke="#666666"
             stroke-width="1.5"
             stroke-linecap="round"
             stroke-linejoin="round"
             id="path525" />
        </g>
        <g
           id="path1048">
          <path
             d="m 209.935,178.1 c -0.3,-2.1 -4.3,-10.8 -5.9,-10.9 -1.6,-0.1 -1.8,0.1 -3.2,0.1 -1.4,0 -1.6,-0.2 -3.2,-0.1 -1.6,0.1 -5.6,8.8 -5.9,10.9 -0.3,2.6 3.9,6.2 9.1,6.2 5.2,0.1 9.4,-3.6 9.1,-6.2 z"
             fill="#ffd9c9"
             id="path528" />
          <path
             d="m 209.935,178.1 c -0.3,-2.1 -4.3,-10.8 -5.9,-10.9 -1.6,-0.1 -1.8,0.1 -3.2,0.1 -1.4,0 -1.6,-0.2 -3.2,-0.1 -1.6,0.1 -5.6,8.8 -5.9,10.9 -0.3,2.6 3.9,6.2 9.1,6.2 5.2,0.1 9.4,-3.6 9.1,-6.2 z"
             fill-opacity="0"
             stroke="#666666"
             stroke-width="1.5"
             stroke-linecap="round"
             stroke-linejoin="round"
             id="path530" />
        </g>
      </g>
      <g
         id="g1060">
        <g
           id="polygon1052">
          <path
             d="m 166.435,246.8 7.8,82.8 26.2,61.9 26.3,-61.9 7.8,-82.8 -34.1,9.2 z"
             fill="#ffffff"
             id="path534" />
          <path
             d="m 166.435,246.8 7.8,82.8 26.2,61.9 26.3,-61.9 7.8,-82.8 -34.1,9.2 z"
             fill-opacity="0"
             stroke="#666666"
             stroke-width="1.5"
             stroke-linecap="round"
             stroke-linejoin="round"
             id="path536" />
        </g>
        <g
           id="g1058">
          <g
             id="path1054">
            <path
               d="m 184.035,220.4 c -1.1,4.3 11.3,34.2 16.5,35.6 0,0 -17.4,28.9 -18.5,27.1 -18,-30.2 -10.9,-44.1 -10.9,-44.1 0,0 11.8,-18.6 12.9,-18.6 z"
               fill="#ffffff"
               id="path539" />
            <path
               d="m 184.035,220.4 c -1.1,4.3 11.3,34.2 16.5,35.6 0,0 -17.4,28.9 -18.5,27.1 -18,-30.2 -10.9,-44.1 -10.9,-44.1 0,0 11.8,-18.6 12.9,-18.6 z"
               fill-opacity="0"
               stroke="#666666"
               stroke-width="1.5"
               stroke-linecap="round"
               stroke-linejoin="round"
               id="path541" />
          </g>
          <g
             id="path1056">
            <path
               d="m 216.935,220.4 c 1.1,4.3 -11.3,34.2 -16.5,35.6 0,0 17.4,28.9 18.5,27.1 18,-30.2 10.9,-44.1 10.9,-44.1 0,0 -11.8,-18.6 -12.9,-18.6 z"
               fill="#ffffff"
               id="path544" />
            <path
               d="m 216.935,220.4 c 1.1,4.3 -11.3,34.2 -16.5,35.6 0,0 17.4,28.9 18.5,27.1 18,-30.2 10.9,-44.1 10.9,-44.1 0,0 -11.8,-18.6 -12.9,-18.6 z"
               fill-opacity="0"
               stroke="#666666"
               stroke-width="1.5"
               stroke-linecap="round"
               stroke-linejoin="round"
               id="path546" />
          </g>
        </g>
      </g>
      <g
         id="path1062">
        <path
           d="m 219.935,332.1 -5.3,22.9 c 0,0 -11.5,25.5 -13.5,28.3 -2,2.7 -6.4,17.9 -7.3,24.1 -0.4,2.5 -0.6,31.7 0.8,52.7 1.4,20.9 16.1,72.2 24.9,94.8 6.3,16.1 19.6,13.1 29,13.1 7.5,0 53.5,-1.4 54.1,-2.3 0.6,-0.9 -23.7,-84.8 -28.4,-102.5 -4.7,-17.7 -6.2,-28.5 -4.8,-37.8 1.4,-9.3 6.3,-90.4 6.3,-97.1"
           fill="#9ea7b5"
           id="path551" />
        <path
           d="m 219.935,332.1 -5.3,22.9 c 0,0 -11.5,25.5 -13.5,28.3 -2,2.7 -6.4,17.9 -7.3,24.1 -0.4,2.5 -0.6,31.7 0.8,52.7 1.4,20.9 16.1,72.2 24.9,94.8 6.3,16.1 19.6,13.1 29,13.1 7.5,0 53.5,-1.4 54.1,-2.3 0.6,-0.9 -23.7,-84.8 -28.4,-102.5 -4.7,-17.7 -6.2,-28.5 -4.8,-37.8 1.4,-9.3 6.3,-90.4 6.3,-97.1"
           fill-opacity="0"
           stroke="#666666"
           stroke-width="1.5"
           stroke-linecap="round"
           stroke-linejoin="round"
           id="path553" />
      </g>
      <g
         id="path1064">
        <path
           d="m 222.735,228.1 c 5.4,1.6 6.9,1.9 9.1,4.3 1.8,2 12.2,11.4 14.9,14.4 5.7,6.4 16.3,16 16.3,16 l -14.7,2.2 14.4,10.8 c -8.2,53.2 -66.8,117 -66.8,117 0,0 14.1,-32.1 20.8,-59.5 6.7,-27.3 11.2,-43.5 13,-58.4 1.8,-15.5 -0.8,-37.5 -0.8,-37.5 z"
           fill="#9ea7b5"
           id="path556" />
        <path
           d="m 222.735,228.1 c 5.4,1.6 6.9,1.9 9.1,4.3 1.8,2 12.2,11.4 14.9,14.4 5.7,6.4 16.3,16 16.3,16 l -14.7,2.2 14.4,10.8 c -8.2,53.2 -66.8,117 -66.8,117 0,0 14.1,-32.1 20.8,-59.5 6.7,-27.3 11.2,-43.5 13,-58.4 1.8,-15.5 -0.8,-37.5 -0.8,-37.5 z"
           fill-opacity="0"
           stroke="#666666"
           stroke-width="1.5"
           stroke-linecap="round"
           stroke-linejoin="round"
           id="path558" />
      </g>
      <g
         id="path1066">
        <path
           d="m 181.735,332.1 5.3,22.9 c 0,0 11.5,25.5 13.5,28.3 2,2.7 6.4,17.9 7.3,24.1 0.4,2.5 0.6,31.7 -0.8,52.7 -1.4,20.9 -16.1,72.2 -24.9,94.8 -6.3,16.1 -19.6,13.1 -29,13.1 -7.5,0 -53.5,-1.4 -54.1,-2.3 -0.6,-0.9 23.7,-84.8 28.4,-102.5 4.7,-17.7 6.2,-28.5 4.8,-37.8 -1.4,-9.3 -6.3,-90.4 -6.3,-97.1"
           fill="#9ea7b5"
           id="path561" />
        <path
           d="m 181.735,332.1 5.3,22.9 c 0,0 11.5,25.5 13.5,28.3 2,2.7 6.4,17.9 7.3,24.1 0.4,2.5 0.6,31.7 -0.8,52.7 -1.4,20.9 -16.1,72.2 -24.9,94.8 -6.3,16.1 -19.6,13.1 -29,13.1 -7.5,0 -53.5,-1.4 -54.1,-2.3 -0.6,-0.9 23.7,-84.8 28.4,-102.5 4.7,-17.7 6.2,-28.5 4.8,-37.8 -1.4,-9.3 -6.3,-90.4 -6.3,-97.1"
           fill-opacity="0"
           stroke="#666666"
           stroke-width="1.5"
           stroke-linecap="round"
           stroke-linejoin="round"
           id="path563" />
      </g>
      <g
         id="path1068">
        <path
           d="m 178.135,228.1 c -5.4,1.6 -6.9,1.9 -9.1,4.3 -1.8,2 -12.2,11.4 -14.9,14.4 -5.7,6.4 -16.3,16 -16.3,16 l 14.7,2.2 -14.4,10.8 c 8.2,53.2 62.3,107.3 62.3,107.3 0,0 -9.6,-22.4 -16.2,-49.8 -6.7,-27.3 -11.2,-43.5 -13,-58.4 -1.8,-15.5 0.8,-37.5 0.8,-37.5 z"
           fill="#9ea7b5"
           id="path566" />
        <path
           d="m 178.135,228.1 c -5.4,1.6 -6.9,1.9 -9.1,4.3 -1.8,2 -12.2,11.4 -14.9,14.4 -5.7,6.4 -16.3,16 -16.3,16 l 14.7,2.2 -14.4,10.8 c 8.2,53.2 62.3,107.3 62.3,107.3 0,0 -9.6,-22.4 -16.2,-49.8 -6.7,-27.3 -11.2,-43.5 -13,-58.4 -1.8,-15.5 0.8,-37.5 0.8,-37.5 z"
           fill-opacity="0"
           stroke="#666666"
           stroke-width="1.5"
           stroke-linecap="round"
           stroke-linejoin="round"
           id="path568" />
      </g>
      <g
         id="g1078">
        <g
           id="path1070">
          <path
             d="m 168.935,477.1 c -1.2,4.1 -3.8,7.7 -6,8 l -40.7,5 c -2.1,0.3 -2.9,-2.9 -1.7,-7 l 4.7,-16.6 c 1.2,-4.1 49.5,-10.1 48.3,-5.9 z"
             fill="#9ea7b5"
             id="path571" />
          <path
             d="m 168.935,477.1 c -1.2,4.1 -3.8,7.7 -6,8 l -40.7,5 c -2.1,0.3 -2.9,-2.9 -1.7,-7 l 4.7,-16.6 c 1.2,-4.1 49.5,-10.1 48.3,-5.9 z"
             fill-opacity="0"
             stroke="#666666"
             stroke-width="1.5"
             stroke-linecap="round"
             stroke-linejoin="round"
             id="path573" />
        </g>
        <g
           id="path1072">
          <path
             d="m 232.035,477.1 c 1.2,4.1 3.8,7.7 6,8 l 40.7,5 c 2.1,0.3 2.9,-2.9 1.7,-7 l -4.7,-16.6 c -1.2,-4.1 -49.5,-10.1 -48.3,-5.9 z"
             fill="#9ea7b5"
             id="path576" />
          <path
             d="m 232.035,477.1 c 1.2,4.1 3.8,7.7 6,8 l 40.7,5 c 2.1,0.3 2.9,-2.9 1.7,-7 l -4.7,-16.6 c -1.2,-4.1 -49.5,-10.1 -48.3,-5.9 z"
             fill-opacity="0"
             stroke="#666666"
             stroke-width="1.5"
             stroke-linecap="round"
             stroke-linejoin="round"
             id="path578" />
        </g>
        <g
           id="path1074">
          <path
             d="m 204.035,409.5 c 0,1.9 -1.6,3.5 -3.5,3.5 -1.9,0 -3.5,-1.6 -3.5,-3.5 0,-1.9 1.6,-3.5 3.5,-3.5 1.9,0 3.5,1.5 3.5,3.5 z"
             fill="#9ea7b5"
             id="path581" />
          <path
             d="m 204.035,409.5 c 0,1.9 -1.6,3.5 -3.5,3.5 -1.9,0 -3.5,-1.6 -3.5,-3.5 0,-1.9 1.6,-3.5 3.5,-3.5 1.9,0 3.5,1.5 3.5,3.5 z"
             fill-opacity="0"
             stroke="#666666"
             stroke-width="1.5"
             stroke-linecap="round"
             stroke-linejoin="round"
             id="path583" />
        </g>
        <g
           id="path1076">
          <path
             d="m 204.035,442.9 c 0,1.9 -1.6,3.5 -3.5,3.5 -1.9,0 -3.5,-1.6 -3.5,-3.5 0,-1.9 1.6,-3.5 3.5,-3.5 1.9,0 3.5,1.6 3.5,3.5 z"
             fill="#9ea7b5"
             id="path586" />
          <path
             d="m 204.035,442.9 c 0,1.9 -1.6,3.5 -3.5,3.5 -1.9,0 -3.5,-1.6 -3.5,-3.5 0,-1.9 1.6,-3.5 3.5,-3.5 1.9,0 3.5,1.6 3.5,3.5 z"
             fill-opacity="0"
             stroke="#666666"
             stroke-width="1.5"
             stroke-linecap="round"
             stroke-linejoin="round"
             id="path588" />
        </g>
      </g>
      <g
         id="g1084">
        <path
           d="m 104.635,264.3 20.8,62.2"
           fill-opacity="0"
           stroke="#666666"
           stroke-width="1.5"
           stroke-linecap="round"
           stroke-linejoin="round"
           id="line1080" />
        <path
           d="m 296.735,264.3 -20.7,62.2"
           fill-opacity="0"
           stroke="#666666"
           stroke-width="1.5"
           stroke-linecap="round"
           stroke-linejoin="round"
           id="line1082" />
      </g>
      <g
         id="g1131">
        <g
           id="path1093">
          <path
             d="m 300.335,477 -5.4,9.7 c -2.6,-3.7 -9.6,-15.1 -9.6,-15.1 0,0 -1.1,-3.6 -2.5,-4.7 -0.2,-0.1 -7.4,-5.9 -9.4,-7.6 -1.9,-1.2 -3.1,-2.3 -3.1,-2.3 0,0 -1.3,42.6 0.8,44.6 3.7,3.6 8.6,5.8 8.6,5.8 0,0 2.3,5 4.6,6.5 5.2,3.5 13.7,3.1 16,2.5 1.9,-0.5 5.7,-5.2 8.8,-12.4 l 5.9,-7.2"
             fill="url(#Gradient_12)"
             id="path595"
             style="fill:url(#Gradient_12)" />
          <path
             d="m 300.335,477 -5.4,9.7 c -2.6,-3.7 -9.6,-15.1 -9.6,-15.1 0,0 -1.1,-3.6 -2.5,-4.7 -0.2,-0.1 -7.4,-5.9 -9.4,-7.6 -1.9,-1.2 -3.1,-2.3 -3.1,-2.3 0,0 -1.3,42.6 0.8,44.6 3.7,3.6 8.6,5.8 8.6,5.8 0,0 2.3,5 4.6,6.5 5.2,3.5 13.7,3.1 16,2.5 1.9,-0.5 5.7,-5.2 8.8,-12.4 l 5.9,-7.2"
             fill-opacity="0"
             stroke="#666666"
             stroke-width="1.5"
             stroke-linecap="round"
             stroke-linejoin="round"
             id="path597" />
        </g>
        <g
           id="path1102">
          <path
             d="m 273.535,459.3 c 0,0 -13.3,-10.4 -16.2,-9.9 -2.9,0.5 -11.5,5.7 -16.9,7.1 -3.3,0.9 -1.2,6.7 3.4,6.7 4.6,0 15.5,-3.5 15.5,-3.5 l 12.2,12"
             fill="url(#Gradient_13)"
             id="path600"
             style="fill:url(#Gradient_13)" />
          <path
             d="m 273.535,459.3 c 0,0 -13.3,-10.4 -16.2,-9.9 -2.9,0.5 -11.5,5.7 -16.9,7.1 -3.3,0.9 -1.2,6.7 3.4,6.7 4.6,0 15.5,-3.5 15.5,-3.5 l 12.2,12"
             fill-opacity="0"
             stroke="#666666"
             stroke-width="1.5"
             stroke-linecap="round"
             stroke-linejoin="round"
             id="path602" />
        </g>
        <g
           id="path1111">
          <path
             d="m 274.235,470.2 c 0,0 -10.8,-5.7 -13.6,-4.9 -2.9,0.8 -21.1,5.8 -26.3,8 -2.8,1.2 -0.1,6.8 4.5,6 4.6,-0.8 22.7,-4.5 22.7,-4.5 l 14.2,7.1"
             fill="url(#Gradient_14)"
             id="path605"
             style="fill:url(#Gradient_14)" />
          <path
             d="m 274.235,470.2 c 0,0 -10.8,-5.7 -13.6,-4.9 -2.9,0.8 -21.1,5.8 -26.3,8 -2.8,1.2 -0.1,6.8 4.5,6 4.6,-0.8 22.7,-4.5 22.7,-4.5 l 14.2,7.1"
             fill-opacity="0"
             stroke="#666666"
             stroke-width="1.5"
             stroke-linecap="round"
             stroke-linejoin="round"
             id="path607" />
        </g>
        <g
           id="path1120">
          <path
             d="m 275.835,481.9 c 0,0 -10,-3.5 -12.9,-2.7 -2.9,0.8 -19.4,6.1 -25.2,7.8 -2.3,0.7 -0.5,6.8 4.1,6.3 4.6,-0.5 20.9,-5.8 20.9,-5.8 l 12.1,3.8"
             fill="url(#Gradient_15)"
             id="path610"
             style="fill:url(#Gradient_15)" />
          <path
             d="m 275.835,481.9 c 0,0 -10,-3.5 -12.9,-2.7 -2.9,0.8 -19.4,6.1 -25.2,7.8 -2.3,0.7 -0.5,6.8 4.1,6.3 4.6,-0.5 20.9,-5.8 20.9,-5.8 l 12.1,3.8"
             fill-opacity="0"
             stroke="#666666"
             stroke-width="1.5"
             stroke-linecap="round"
             stroke-linejoin="round"
             id="path612" />
        </g>
        <g
           id="path1129">
          <path
             d="m 274.835,491.3 c 0,0 -9.7,2.2 -12.5,3.1 -2.9,0.8 -10.7,1.8 -16,3.3 -3.3,0.9 -0.3,6.8 4.3,6.1 4.6,-0.7 10.9,-2.1 10.9,-2.1 l 11,-0.1"
             fill="url(#Gradient_16)"
             id="path615"
             style="fill:url(#Gradient_16)" />
          <path
             d="m 274.835,491.3 c 0,0 -9.7,2.2 -12.5,3.1 -2.9,0.8 -10.7,1.8 -16,3.3 -3.3,0.9 -0.3,6.8 4.3,6.1 4.6,-0.7 10.9,-2.1 10.9,-2.1 l 11,-0.1"
             fill-opacity="0"
             stroke="#666666"
             stroke-width="1.5"
             stroke-linecap="round"
             stroke-linejoin="round"
             id="path617" />
        </g>
      </g>
      <g
         id="path1133">
        <path
           d="m 383.535,401.7 c 0,0.7 -6.9,13.9 -12.3,23.8 -5.4,9.9 -29,63.4 -40.5,81.5 -9.2,-5.2 -34.1,-23 -35.2,-26.5 4.8,-12.1 32,-63.1 32,-63.1 l 2.7,-12.4 5.9,-6.7"
           fill="#9ea7b5"
           id="path621" />
        <path
           d="m 383.535,401.7 c 0,0.7 -6.9,13.9 -12.3,23.8 -5.4,9.9 -29,63.4 -40.5,81.5 -9.2,-5.2 -34.1,-23 -35.2,-26.5 4.8,-12.1 32,-63.1 32,-63.1 l 2.7,-12.4 5.9,-6.7"
           fill-opacity="0"
           stroke="#666666"
           stroke-width="1.5"
           stroke-linecap="round"
           stroke-linejoin="round"
           id="path623" />
      </g>
    </g>
  </g>
</svg>
