<svg width="43.192" height="140" xmlns="http://www.w3.org/2000/svg"><defs><linearGradient id="prefix__a" gradientUnits="userSpaceOnUse" x1="377.766" y1="15.763" x2="377.766" y2="77.258" gradientTransform="scale(1 -1) rotate(2.8 19855.888 -2727.358)"><stop offset=".004" stop-color="#FFF5E0"/><stop offset=".726" stop-color="#FFF5E0"/><stop offset="1" stop-color="#FFEEC9"/></linearGradient><linearGradient id="prefix__b" gradientUnits="userSpaceOnUse" x1="263.88" y1="21.399" x2="263.88" y2="82.895" gradientTransform="rotate(-177.44 210.041 483.203)"><stop offset=".004" stop-color="#FFF5E0"/><stop offset=".726" stop-color="#FFF5E0"/><stop offset="1" stop-color="#FFEEC9"/></linearGradient><linearGradient id="prefix__c" gradientUnits="userSpaceOnUse" x1="-298.792" y1="1527.07" x2="-319.734" y2="1610.842" gradientTransform="matrix(.988 .152 .152 -.988 97.199 1820.001)"><stop offset=".004" stop-color="#FFF5E0"/><stop offset=".726" stop-color="#FFF5E0"/><stop offset="1" stop-color="#FFEEC9"/></linearGradient><linearGradient id="prefix__d" gradientUnits="userSpaceOnUse" x1="-323.311" y1="1539.194" x2="-340.876" y2="1609.191" gradientTransform="matrix(.988 .152 .152 -.988 97.199 1820.001)"><stop offset=".004" stop-color="#FFF5E0"/><stop offset=".726" stop-color="#FFF5E0"/><stop offset="1" stop-color="#FFEEC9"/></linearGradient><linearGradient id="prefix__e" gradientUnits="userSpaceOnUse" x1="-310.705" y1="1542.356" x2="-328.204" y2="1612.356" gradientTransform="matrix(.988 .152 .152 -.988 97.199 1820.001)"><stop offset=".004" stop-color="#FFF5E0"/><stop offset=".726" stop-color="#FFF5E0"/><stop offset="1" stop-color="#FFEEC9"/></linearGradient><linearGradient id="prefix__f" gradientUnits="userSpaceOnUse" x1="-298.941" y1="1545.297" x2="-316.441" y2="1615.295" gradientTransform="matrix(.988 .152 .152 -.988 97.199 1820.001)"><stop offset=".004" stop-color="#FFF5E0"/><stop offset=".726" stop-color="#FFF5E0"/><stop offset="1" stop-color="#FFEEC9"/></linearGradient><linearGradient id="prefix__g" gradientUnits="userSpaceOnUse" x1="-294.501" y1="1546.406" x2="-312" y2="1616.404" gradientTransform="matrix(.988 .152 .152 -.988 97.199 1820.001)"><stop offset=".004" stop-color="#FFF5E0"/><stop offset=".726" stop-color="#FFF5E0"/><stop offset="1" stop-color="#FFEEC9"/></linearGradient><linearGradient id="prefix__h" gradientUnits="userSpaceOnUse" x1="232.748" y1="979.786" x2="232.748" y2="1030.786" gradientTransform="matrix(1 0 0 -1 -32.065 1240.59)"><stop offset=".004" stop-color="#FFF5E0"/><stop offset=".726" stop-color="#FFF5E0"/><stop offset="1" stop-color="#FFEEC9"/></linearGradient><linearGradient id="prefix__i" gradientUnits="userSpaceOnUse" x1="204.994" y1="1110.402" x2="161.994" y2="1110.402" gradientTransform="matrix(1 0 0 -1 -32.065 1240.59)"><stop offset=".004" stop-color="#FFF5E0"/><stop offset=".726" stop-color="#FFF5E0"/><stop offset="1" stop-color="#FFE9BA"/></linearGradient><linearGradient id="prefix__j" gradientUnits="userSpaceOnUse" x1="-7374.854" y1="1110.402" x2="-7417.854" y2="1110.402" gradientTransform="rotate(180 -3573.052 620.295)"><stop offset=".004" stop-color="#FFF5E0"/><stop offset=".726" stop-color="#FFF5E0"/><stop offset="1" stop-color="#FFE9BA"/></linearGradient><linearGradient id="prefix__k" gradientUnits="userSpaceOnUse" x1="233" y1="1061.315" x2="233" y2="1186.403" gradientTransform="matrix(1 0 0 -1 -32.065 1240.59)"><stop offset=".004" stop-color="#FFF5E0"/><stop offset=".726" stop-color="#FFF5E0"/><stop offset="1" stop-color="#FFEEC9"/></linearGradient><linearGradient id="prefix__l" gradientUnits="userSpaceOnUse" x1="334.544" y1="756.544" x2="283.21" y2="748.544" gradientTransform="matrix(1 0 0 -1 -32.065 1240.59)"><stop offset=".004" stop-color="#FFF5E0"/><stop offset=".726" stop-color="#FFF5E0"/><stop offset="1" stop-color="#FFEEC9"/></linearGradient><linearGradient id="prefix__m" gradientUnits="userSpaceOnUse" x1="330.065" y1="785.271" x2="278.734" y2="777.271" gradientTransform="matrix(1 0 0 -1 -32.065 1240.59)"><stop offset=".004" stop-color="#FFF5E0"/><stop offset=".726" stop-color="#FFF5E0"/><stop offset="1" stop-color="#FFEEC9"/></linearGradient><linearGradient id="prefix__n" gradientUnits="userSpaceOnUse" x1="332.14" y1="771.966" x2="280.807" y2="763.966" gradientTransform="matrix(1 0 0 -1 -32.065 1240.59)"><stop offset=".004" stop-color="#FFF5E0"/><stop offset=".726" stop-color="#FFF5E0"/><stop offset="1" stop-color="#FFEEC9"/></linearGradient><linearGradient id="prefix__o" gradientUnits="userSpaceOnUse" x1="333.93" y1="760.488" x2="282.596" y2="752.488" gradientTransform="matrix(1 0 0 -1 -32.065 1240.59)"><stop offset=".004" stop-color="#FFF5E0"/><stop offset=".726" stop-color="#FFF5E0"/><stop offset="1" stop-color="#FFEEC9"/></linearGradient><linearGradient id="prefix__p" gradientUnits="userSpaceOnUse" x1="335.748" y1="748.815" x2="284.415" y2="740.815" gradientTransform="matrix(1 0 0 -1 -32.065 1240.59)"><stop offset=".004" stop-color="#FFF5E0"/><stop offset=".726" stop-color="#FFF5E0"/><stop offset="1" stop-color="#FFEEC9"/></linearGradient></defs><path d="M42.995 45.055c.034-.246-.033-.583-.291-1.222-.292-.718-3.578-5.777-3.993-6.46-.258-.438-1.1-2.715-1.425-3.354-.19-.37-.818-.74-.92-.943-.684-1.256-.762-2.265-1.29-2.882-.84-.987-1.67-.897-1.794-.875-.213-.067-4.632-1.525-5.91-1.952-.472-.448-1.2-1.132-1.358-1.3-.235-.27-.415-.304-1.02-.483l.01.011c-.302-.448-.594-.863-.661-.886-.056-.55-.056-1.705-.056-1.806V22.4c1.828-.83 3.454-2.681 4.206-3.713.493-.673.807-1.525.998-2.411.46-.348 1.167-1.055 1.167-2.143 0-.359-.056-.628-.146-.83.314.393.235.696.202.797.28-.584.28-1.537.022-2.67.079-.392.146-.796.202-1.211.673-5.653-2.21-10.05-8.311-10.05h-.247c-6.101 0-8.984 4.397-8.311 10.05.078.707.213 1.39.393 2.052.044.27.1.539.168.808-.146.213-.258.55-.258 1.043 0 1.088.706 1.795 1.166 2.142.19.886.505 1.739.999 2.412.751 1.032 2.366 2.871 4.183 3.701v.516c0 .112 0 1.75-.09 2.042a.64.64 0 01-.01-.247c-.057 0-.349.415-.651.875-.606.18-.774.213-1.021.482-.157.18-.92.875-1.38 1.335-1.402.46-5.843 1.929-5.843 1.929-.112.033-.998.348-1.671 1.47-.415.683-.214 1.715-.561 3.106-.247 1.01-.595 2.568-1.01 4.352-1.245-2.95-2.736-6.46-3.04-7.235-.044-.123-.212-.145-.46-.09l-.246-.717c.359-.482 1.582-2.625 1.57-3.197-.01-.572-.157-2.288-.157-2.288s.056-4.038.045-6.101c-.011-1.683-.998-1.548-1.133.078-.112 1.29-.202 3.174-.28 4.397-.09.336-.101.65-.101.65l-.022.584c-.023.01-.056.033-.101.044 0-.314-.012-.572-.056-.684-.124-.347-1.077-.392-1.223.012-.045.123-.079.46-.09.84h-.01c0-.134 0-.235-.012-.302-.045-.337-1.01-.438-1.167-.011a2.514 2.514 0 00-.067.37h-.045c-.011-.079-.033-.135-.067-.157-.46-.325-1.02-.146-1.29.067-.28.213-.336 1.514-.336 1.514L.205 26c0 .067-.01.135-.01.202-.258 2.894 1.446 4.498 1.446 4.498l.135.403h-.011s.146.471.37 1.167C1.103 32.93.34 33.626.789 33.783h.022-.078s2.58 6.404 4.161 10.711C5.69 46.66 6.408 47.49 6.913 48.5c1.02 2.019 1.223 2.613 2.243 2.5 2.412-.268 3.432-4.261 3.96-5.876.583-1.66.964-3.13 1.222-4.319.168 2.85.404 6.259.494 6.876.168 1.032 0 2.243-.539 4.24a3.233 3.233 0 00-.067.235c-.101.045-.168.09-.18.146l-.527 1.862c-.067.258-.078.482-.033.617-.987 3.488-2.445 8.569-2.39 8.647.012.023.191.034.472.056-.168.999-.27 1.963-.27 2.804 0 .685.034 1.515.09 2.468.012 2.613.37 6.303 1.29 12.674.36 2.939.707 5.507.909 6.943.56 4.094 1.155 8.401 1.155 8.401s.067.011.213.022c.034.303.067.584.09.842.056 3.308.056 6.494-.303 11.092-.292 3.735.55 8.592.897 13.583.023.359.202 4.946.157 5.81-.033.617-.1 2.692-.146 3.78-.168.471-.426 1.189-.684 1.93-.146.324-.886 2.052-1.177 2.949-.415 1.29-.516 1.828-.45 2.053a.244.244 0 00.057.09.28.28 0 00.034.145c.213.348 2.142.763 3.04.763.896 0 2.534-.348 2.635-.483a.312.312 0 00.034-.201c.112-.214.067-.539.067-1.1 0-1.099.022-3.342.022-3.342s.079-1.514-.033-2.041c-.09-.438-.202-.617-.236-.65v-.393c.011-.247.168-.707.168-.786 0-.269-.47-.897-.504-.942l.46-7.616s.583-4.71.93-8.894c.303-3.645-.403-6.82.37-11.687.135-.886.259-2.726.27-3.242.056-.415.112-.886.157-1.402.527.012 1.077.012 1.66.012.56 0 1.099 0 1.604-.012.045.505.1.976.157 1.402.011.516.134 2.356.269 3.242.774 4.868.067 8.042.37 11.687.348 4.195.931 8.894.931 8.894l.46 7.616c-.034.045-.505.673-.505.942 0 .079.157.539.168.786v.392c-.033.034-.145.213-.235.65-.101.528-.034 2.042-.034 2.042s.011 2.243.023 3.342c0 .561-.045.898.067 1.1-.011.078 0 .157.034.201.1.135 1.738.483 2.635.483.898 0 2.838-.415 3.04-.763a.31.31 0 00.034-.146.198.198 0 00.056-.09c.067-.224-.023-.762-.449-2.052-.292-.897-1.032-2.625-1.178-2.95-.258-.74-.516-1.47-.684-1.93a260.372 260.372 0 00-.146-3.779c-.033-.864.135-5.451.157-5.81.337-4.991 1.19-9.848.898-13.583-.36-4.587-.36-7.784-.303-11.092.022-.258.056-.539.09-.842.179-.01.269-.022.269-.022s.594-4.307 1.155-8.4c.258-1.863.752-5.598 1.223-9.568.55-4.06.818-6.842.897-8.95.1-1.414.168-2.637.168-3.579 0-.852-.1-1.806-.258-2.804.325-.022.539-.045.55-.067.033-.056-.718-2.76-1.514-5.575.516.135 1.076.101 1.256.057.213-.057.64-.584.987-1.391l.662-.808-.034-.056c.695.494 1.39.953 1.806 1.189 1.29-2.03 3.937-8.03 4.542-9.141a81.3 81.3 0 001.279-2.423c.011-.033.034-.056.045-.09.045-.09.067-.145.056-.157zm-28.904 91.49a1.73 1.73 0 01-.056.191c.135-.628.65-2.075.875-2.67-.381 1.1-.751 2.188-.819 2.48zm5.003-2.815c-.023-.224-.034-.359-.034-.359s-.011-.112-.022-.28c.022.19.045.415.056.64zm.202-107.08l.01-.023c-.01.011-.01.011-.01.023zm6.348-.068l.045.056c-.023-.01-.034-.033-.045-.056zm.224 106.778s-.01.135-.033.359c.01-.224.033-.449.056-.65-.011.179-.023.291-.023.291zm5.014 3.376c-.022-.078-.045-.146-.056-.19-.067-.292-.438-1.38-.819-2.468.224.583.74 2.03.875 2.658zm6.158-91.31l-.303 1.39s-3.051 5.71-3.59 7.078c.012.056.08.134.191.246l-.258.449c-.291-.415-1.076-1.694-1.076-1.694s-.124-.403-.28-.527c-.023-.011-.83-.662-1.055-.852 0 0-.011-.011-.034-.023-.437-1.727-.572-2.826-.415-3.79.146-.898.572-7.852.684-10.185 1.2 1.279 4.992 5.35 6.528 7.436zM30.725 14.11c-.011.011-.011.022-.022.034.01.01.01-.012.022-.034z" fill="#666"/><path d="M42.995 45.055c.034-.246-.033-.583-.291-1.222-.292-.718-3.578-5.777-3.993-6.46-.258-.438-1.1-2.715-1.425-3.354-.19-.37-.818-.74-.92-.943-.684-1.256-.762-2.265-1.29-2.882-.84-.987-1.67-.897-1.794-.875-.213-.067-4.632-1.525-5.91-1.952-.472-.448-1.2-1.132-1.358-1.3-.235-.27-.415-.304-1.02-.483l.01.011c-.302-.448-.594-.863-.661-.886-.056-.55-.056-1.705-.056-1.806V22.4c1.828-.83 3.454-2.681 4.206-3.713.493-.673.807-1.525.998-2.411.46-.348 1.167-1.055 1.167-2.143 0-.359-.056-.628-.146-.83.314.393.235.696.202.797.28-.584.28-1.537.022-2.67.079-.392.146-.796.202-1.211.673-5.653-2.21-10.05-8.311-10.05h-.247c-6.101 0-8.984 4.397-8.311 10.05.078.707.213 1.39.393 2.052.044.27.1.539.168.808-.146.213-.258.55-.258 1.043 0 1.088.706 1.795 1.166 2.142.19.886.505 1.739.999 2.412.751 1.032 2.366 2.871 4.183 3.701v.516c0 .112 0 1.75-.09 2.042a.64.64 0 01-.01-.247c-.057 0-.349.415-.651.875-.606.18-.774.213-1.021.482-.157.18-.92.875-1.38 1.335-1.402.46-5.843 1.929-5.843 1.929h0c-.112.033-.998.348-1.671 1.47-.415.683-.214 1.715-.561 3.106-.247 1.01-.595 2.568-1.01 4.352-1.245-2.95-2.736-6.46-3.04-7.235-.044-.123-.212-.145-.46-.09l-.246-.717c.359-.482 1.582-2.625 1.57-3.197-.01-.572-.157-2.288-.157-2.288s.056-4.038.045-6.101c-.011-1.683-.998-1.548-1.133.078-.112 1.29-.202 3.174-.28 4.397-.09.336-.101.65-.101.65l-.022.584c-.023.01-.056.033-.101.044 0-.314-.012-.572-.056-.684-.124-.347-1.077-.392-1.223.012-.045.123-.079.46-.09.84h-.01c0-.134 0-.235-.012-.302-.045-.337-1.01-.438-1.167-.011a2.514 2.514 0 00-.067.37h-.045c-.011-.079-.033-.135-.067-.157-.46-.325-1.02-.146-1.29.067-.28.213-.336 1.514-.336 1.514L.205 26c0 .067-.01.135-.01.202-.258 2.894 1.446 4.498 1.446 4.498l.135.403h-.011s.146.471.37 1.167C1.103 32.93.34 33.626.789 33.783h.022-.078s2.58 6.404 4.161 10.711C5.69 46.66 6.408 47.49 6.913 48.5c1.02 2.019 1.223 2.613 2.243 2.5 2.412-.268 3.432-4.261 3.96-5.876.583-1.66.964-3.13 1.222-4.319.168 2.85.404 6.259.494 6.876.168 1.032 0 2.243-.539 4.24a3.233 3.233 0 00-.067.235c-.101.045-.168.09-.18.146l-.527 1.862c-.067.258-.078.482-.033.617-.987 3.488-2.445 8.569-2.39 8.647.012.023.191.034.472.056-.168.999-.27 1.963-.27 2.804 0 .685.034 1.515.09 2.468.012 2.613.37 6.303 1.29 12.674.36 2.939.707 5.507.909 6.943.56 4.094 1.155 8.401 1.155 8.401s.067.011.213.022c.034.303.067.584.09.842.056 3.308.056 6.494-.303 11.092-.292 3.735.55 8.592.897 13.583.023.359.202 4.946.157 5.81-.033.617-.1 2.692-.146 3.78-.168.471-.426 1.189-.684 1.93-.146.324-.886 2.052-1.177 2.949-.415 1.29-.516 1.828-.45 2.053a.244.244 0 00.057.09.28.28 0 00.034.145c.213.348 2.142.763 3.04.763.896 0 2.534-.348 2.635-.483a.312.312 0 00.034-.201c.112-.214.067-.539.067-1.1 0-1.099.022-3.342.022-3.342s.079-1.514-.033-2.041c-.09-.438-.202-.617-.236-.65v-.393c.011-.247.168-.707.168-.786 0-.269-.47-.897-.504-.942l.46-7.616s.583-4.71.93-8.894c.303-3.645-.403-6.82.37-11.687.135-.886.259-2.726.27-3.242h0c.056-.415.112-.886.157-1.402.527.012 1.077.012 1.66.012.56 0 1.099 0 1.604-.012.045.505.1.976.157 1.402h0c.011.516.134 2.356.269 3.242.774 4.868.067 8.042.37 11.687.348 4.195.931 8.894.931 8.894l.46 7.616c-.034.045-.505.673-.505.942 0 .079.157.539.168.786v.392c-.033.034-.145.213-.235.65-.101.528-.034 2.042-.034 2.042s.011 2.243.023 3.342c0 .561-.045.898.067 1.1-.011.078 0 .157.034.201.1.135 1.738.483 2.635.483.898 0 2.838-.415 3.04-.763a.31.31 0 00.034-.146.198.198 0 00.056-.09c.067-.224-.023-.762-.449-2.052-.292-.897-1.032-2.625-1.178-2.95-.258-.74-.516-1.47-.684-1.93a260.372 260.372 0 00-.146-3.779c-.033-.864.135-5.451.157-5.81.337-4.991 1.19-9.848.898-13.583-.36-4.587-.36-7.784-.303-11.092.022-.258.056-.539.09-.842.179-.01.269-.022.269-.022s.594-4.307 1.155-8.4c.258-1.863.752-5.598 1.223-9.568.55-4.06.818-6.842.897-8.95.1-1.414.168-2.637.168-3.579 0-.852-.1-1.806-.258-2.804.325-.022.539-.045.55-.067.033-.056-.718-2.76-1.514-5.575.516.135 1.076.101 1.256.057.213-.057.64-.584.987-1.391l.662-.808-.034-.056c.695.494 1.39.953 1.806 1.189 1.29-2.03 3.937-8.03 4.542-9.141a81.3 81.3 0 001.279-2.423c.011-.033.034-.056.045-.09.045-.09.067-.145.056-.157zm-28.904 91.49a1.73 1.73 0 01-.056.191c.135-.628.65-2.075.875-2.67-.381 1.1-.751 2.188-.819 2.48zm5.003-2.815c-.023-.224-.034-.359-.034-.359s-.011-.112-.022-.28c.022.19.045.415.056.64zm.202-107.08h0l.01-.023c-.01.011-.01.011-.01.023zm6.348-.068l.045.056h0c-.023-.01-.034-.033-.045-.056zm.224 106.778s-.01.135-.033.359c.01-.224.033-.449.056-.65-.011.179-.023.291-.023.291zm5.014 3.376c-.022-.078-.045-.146-.056-.19-.067-.292-.438-1.38-.819-2.468.224.583.74 2.03.875 2.658zm6.158-91.31l-.303 1.39s-3.051 5.71-3.59 7.078c.012.056.08.134.191.246l-.258.449c-.291-.415-1.076-1.694-1.076-1.694s-.124-.403-.28-.527c-.023-.011-.83-.662-1.055-.852 0 0-.011-.011-.034-.023-.437-1.727-.572-2.826-.415-3.79.146-.898.572-7.852.684-10.185 1.2 1.279 4.992 5.35 6.528 7.436zM30.725 14.11c-.011.011-.011.022-.022.034.01.01.01-.012.022-.034z" stroke="#666" stroke-width=".33648" fill="none"/><g><path d="M17.995 27.266l-6.259 2.064 2.524 7.919 8.255 2.288 8.244-2.288 2.523-7.919-6.258-2.064-4.51.09z" fill="#9ea7b5"/><path d="M17.995 27.266l-6.259 2.064 2.524 7.919 8.255 2.288 8.244-2.288 2.523-7.919-6.258-2.064-4.51.09z" stroke="#666" stroke-width=".16824" stroke-linecap="round" stroke-linejoin="round" fill="none"/><path d="M277.435 791.1c20.8-131.8 23.9-173.2 19.9-204.6-4-31.4-19.4-74.3-19.4-74.3-2.9-12.7-66.6 99.2-66.6 99.2s-10.1 16.2-6.8 37.8c5 32.7 3.5 77.5 5.5 118.1 1.5 30 2.3 82.9 6.1 110.5.1 4.6 1.2 21 2.4 28.9 6.9 43.4.6 71.7 3.3 104.2 3.1 37.4 8.3 79.3 8.3 79.3l5.1 83.4 25.7 8.6s-1.1-32.2-1.5-39.9c-.3-7.7 1.2-48.6 1.4-51.8 3-44.5 10.6-87.8 8-121.1-3.2-40.9-3.2-69.4-2.7-98.9 1.9-17.2 5.6-43.3 11.3-79.4z" fill="url(#prefix__a)" transform="scale(.11216)"/><path d="M31.117 88.731c2.333-14.783 2.681-19.426 2.233-22.948-.45-3.522-2.176-8.334-2.176-8.334-.326-1.424-7.47 11.127-7.47 11.127s-1.133 1.817-.763 4.24c.56 3.667.392 8.692.617 13.246.168 3.364.258 9.298.684 12.393h0c.011.516.135 2.356.27 3.242.773 4.868.066 8.042.37 11.687.347 4.195.93 8.894.93 8.894l.572 9.355 2.883.964s-.124-3.611-.168-4.475c-.034-.864.134-5.451.157-5.81.336-4.991 1.189-9.848.897-13.583-.359-4.587-.359-7.784-.303-11.092.213-1.93.628-4.857 1.267-8.906z" stroke="#666" stroke-width=".16824" stroke-linecap="round" stroke-linejoin="round" fill="none"/><path d="M189.135 611.5s-63.7-112-66.6-99.2c0 0-15.4 42.9-19.4 74.3-4 31.4-.9 72.7 19.9 204.6 5.7 36.1 9.4 62.2 11.2 79.6.5 29.5.5 57.9-2.7 98.9-2.6 33.3 4.9 76.6 8 121.1.2 3.2 1.8 44.1 1.4 51.8-.3 7.7-1.5 39.9-1.5 39.9l25.7-8.6 5.1-83.4s5.2-42 8.3-79.3c2.7-32.5-3.6-60.8 3.3-104.2 1.2-7.9 2.3-24.3 2.4-28.9 3.8-27.6 4.6-80.6 6.1-110.6 2-40.6.6-85.4 5.5-118.1 3.4-21.7-6.7-37.9-6.7-37.9z" fill="url(#prefix__b)" transform="scale(.11216)"/><path d="M21.214 68.587s-7.145-12.562-7.47-11.127c0 0-1.728 4.812-2.176 8.334-.449 3.522-.101 8.154 2.232 22.948.64 4.05 1.054 6.977 1.256 8.928.056 3.309.056 6.494-.303 11.093-.291 3.735.55 8.592.897 13.583.023.359.202 4.946.157 5.81l-.168 4.475 2.883-.965.572-9.354s.583-4.71.93-8.894c.304-3.646-.403-6.82.37-11.688.135-.886.259-2.725.27-3.241h0c.426-3.096.516-9.04.684-12.405.225-4.554.068-9.579.617-13.246.381-2.434-.751-4.251-.751-4.251z" stroke="#666" stroke-width=".16824" stroke-linecap="round" stroke-linejoin="round" fill="none"/><path d="M33.664 66.31c0-4.924-3.332-13.437-3.332-13.437l-7.85-1.537-7.841 1.537S11.31 61.386 11.31 66.31c0 4.924 1.727 18.002 2.288 22.096.56 4.094 1.155 8.4 1.155 8.4s2.916.281 7.728.281c4.823 0 7.728-.28 7.728-.28s.594-4.307 1.155-8.401c.572-4.094 2.3-17.172 2.3-22.096z" fill="#9ea7b5"/><path d="M33.664 66.31c0-4.924-3.332-13.437-3.332-13.437l-7.85-1.537-7.841 1.537S11.31 61.386 11.31 66.31c0 4.924 1.727 18.002 2.288 22.096.56 4.094 1.155 8.4 1.155 8.4s2.916.281 7.728.281c4.823 0 7.728-.28 7.728-.28s.594-4.307 1.155-8.401c.572-4.094 2.3-17.172 2.3-22.096z" stroke="#666" stroke-width=".16824" stroke-linecap="round" stroke-linejoin="round" fill="none"/><path d="M18.634 129.917s.516.673.516.953c0 .079-.157.538-.168.785-.023.617.067 1.705.067 1.705s.594 5.417-.438 5.429c-1.009 0-4.475-.113-4.968-.113-.494 0 .336-1.626.448-2.142.135-.65 1.761-5.126 1.761-5.126" fill="#fff5e0"/><path d="M18.634 129.917s.516.673.516.953c0 .079-.157.538-.168.785-.023.617.067 1.705.067 1.705s.594 5.417-.438 5.429c-1.009 0-4.475-.113-4.968-.113-.494 0 .336-1.626.448-2.142.135-.65 1.761-5.126 1.761-5.126" stroke="#666" stroke-width=".16824" stroke-linecap="round" stroke-linejoin="round" fill="none"/><path d="M13.553 138.43s-.213.47-.09.673c.213.347 2.143.762 3.04.762.897 0 2.535-.347 2.636-.482.1-.134-.034-.449-.034-.449z" fill="#7f7f7f"/><path d="M13.553 138.43s-.213.47-.09.673c.213.347 2.143.762 3.04.762.897 0 2.535-.347 2.636-.482.1-.134-.034-.449-.034-.449z" stroke="#666" stroke-width=".16824" stroke-linecap="round" stroke-linejoin="round" fill="none"/><path d="M15.011 133.809s-1.133 3.04-.987 3.219c.101.123 1.458-.202 2.569-.28 1.065-.08 1.783.156 2.063-.124.382-.381.55-2.277.382-3.544-.101-.763-.056-1.043-.056-1.043s.145.157.246.661c.101.527.034 2.042.034 2.042s-.011 2.243-.022 3.342c0 .718.078 1.066-.202 1.256-.135.09-1.694.28-2.434.28-.74 0-3.085-.269-3.242-.74-.067-.224.023-.762.449-2.052.314-1.01 1.2-3.017 1.2-3.017z" fill="#7f7f7f"/><path d="M15.011 133.809s-1.133 3.04-.987 3.219c.101.123 1.458-.202 2.569-.28 1.065-.08 1.783.156 2.063-.124.382-.381.55-2.277.382-3.544-.101-.763-.056-1.043-.056-1.043s.145.157.246.661c.101.527.034 2.042.034 2.042s-.011 2.243-.022 3.342c0 .718.078 1.066-.202 1.256-.135.09-1.694.28-2.434.28-.74 0-3.085-.269-3.242-.74-.067-.224.023-.762.449-2.052.314-1.01 1.2-3.017 1.2-3.017z" stroke="#666" stroke-width=".16824" stroke-linecap="round" stroke-linejoin="round" fill="none"/><path d="M26.283 129.917s-.516.673-.516.953c0 .079.157.538.169.785.022.617-.068 1.705-.068 1.705s-.594 5.417.438 5.429c1.01 0 4.475-.113 4.969-.113.493 0-.337-1.626-.45-2.142-.134-.65-1.76-5.126-1.76-5.126" fill="#fff5e0"/><path d="M26.283 129.917s-.516.673-.516.953c0 .079.157.538.169.785.022.617-.068 1.705-.068 1.705s-.594 5.417.438 5.429c1.01 0 4.475-.113 4.969-.113.493 0-.337-1.626-.45-2.142-.134-.65-1.76-5.126-1.76-5.126" stroke="#666" stroke-width=".16824" stroke-linecap="round" stroke-linejoin="round" fill="none"/><path d="M31.375 138.43s.214.47.09.673c-.213.347-2.142.762-3.04.762-.897 0-2.534-.347-2.635-.482-.101-.134.033-.449.033-.449z" fill="#7f7f7f"/><path d="M31.375 138.43s.214.47.09.673c-.213.347-2.142.762-3.04.762-.897 0-2.534-.347-2.635-.482-.101-.134.033-.449.033-.449z" stroke="#666" stroke-width=".16824" stroke-linecap="round" stroke-linejoin="round" fill="none"/><path d="M29.917 133.809s1.133 3.04.987 3.219c-.1.123-1.458-.202-2.568-.28-1.066-.08-1.783.156-2.064-.124-.381-.381-.55-2.277-.381-3.544.1-.763.056-1.043.056-1.043s-.146.157-.247.661c-.1.527-.034 2.042-.034 2.042s.012 2.243.023 3.342c0 .718-.079 1.066.202 1.256.134.09 1.693.28 2.434.28.74 0 3.084-.269 3.241-.74.067-.224-.022-.762-.449-2.052-.325-1.01-1.2-3.017-1.2-3.017z" fill="#7f7f7f"/><path d="M29.917 133.809s1.133 3.04.987 3.219c-.1.123-1.458-.202-2.568-.28-1.066-.08-1.783.156-2.064-.124-.381-.381-.55-2.277-.381-3.544.1-.763.056-1.043.056-1.043s-.146.157-.247.661c-.1.527-.034 2.042-.034 2.042s.012 2.243.023 3.342c0 .718-.079 1.066.202 1.256.134.09 1.693.28 2.434.28.74 0 3.084-.269 3.241-.74.067-.224-.022-.762-.449-2.052-.325-1.01-1.2-3.017-1.2-3.017z" stroke="#666" stroke-width=".16824" stroke-linecap="round" stroke-linejoin="round" fill="none"/><path d="M30.534 37.125s5.608 5.9 7.156 8.2c.438.65 4.229 1.39 5.115.145.258-.37.314-.594-.101-1.637-.292-.718-3.578-5.777-3.993-6.46-.258-.438-1.1-2.715-1.425-3.354-.19-.37-.818-.74-.92-.943-.684-1.256-.762-2.265-1.29-2.882-.908-1.077-1.816-.875-1.816-.875l-1.357-.426" fill="#9ea7b5"/><path d="M30.534 37.125s5.608 5.9 7.156 8.2c.438.65 4.229 1.39 5.115.145.258-.37.314-.594-.101-1.637-.292-.718-3.578-5.777-3.993-6.46-.258-.438-1.1-2.715-1.425-3.354-.19-.37-.818-.74-.92-.943-.684-1.256-.762-2.265-1.29-2.882-.908-1.077-1.816-.875-1.816-.875l-1.357-.426" stroke="#666" stroke-width=".16824" stroke-linecap="round" stroke-linejoin="round" fill="none"/><path d="M14.81 37.877s-.36 4.79-3.085 10.678c-.561 1.211-5.406-1.582-4.644-4.498.202-.751.74-1.48.931-2.266.124-.493-.112-1.02 0-1.503.617-2.58 1.155-5.013 1.492-6.393.336-1.39.146-2.411.56-3.107.719-1.211 1.694-1.48 1.694-1.48l1.178-.36" fill="#9ea7b5"/><path d="M14.81 37.877s-.36 4.79-3.085 10.678c-.561 1.211-5.406-1.582-4.644-4.498.202-.751.74-1.48.931-2.266.124-.493-.112-1.02 0-1.503.617-2.58 1.155-5.013 1.492-6.393.336-1.39.146-2.411.56-3.107.719-1.211 1.694-1.48 1.694-1.48l1.178-.36" stroke="#666" stroke-width=".16824" stroke-linecap="round" stroke-linejoin="round" fill="none"/><path d="M.789 33.817c-1.032-.382 4.397-3.556 4.666-2.793.27.763-2.3 3.668-4.666 2.793z" fill="#9ea7b5"/><path d="M.789 33.817c-1.032-.382 4.397-3.556 4.666-2.793.27.763-2.3 3.668-4.666 2.793z" stroke="#666" stroke-width=".16824" stroke-linecap="round" stroke-linejoin="round" fill="none"/><path d="M9.863 50.282c-.606.146-2.815-3.903-3.556-5.653-.74-1.75-1.884-5.664-2.68-7.851-.65-1.784-1.873-5.642-1.873-5.642l2.983-.819s1.436 3.623 2.165 5.384c.74 1.75 3.365 5.731 3.645 8.266" fill="#fff5e0"/><path d="M9.863 50.282c-.606.146-2.815-3.903-3.556-5.653-.74-1.75-1.884-5.664-2.68-7.851-.65-1.784-1.873-5.642-1.873-5.642l2.983-.819s1.436 3.623 2.165 5.384c.74 1.75 3.365 5.731 3.645 8.266" stroke="#666" stroke-width=".16824" stroke-linecap="round" stroke-linejoin="round" fill="none"/><path d="M21.935 296.9l-7.3-22.9s-15.2-14.4-12.9-40.1c.2-1.7.2-3.6.4-5.5.7-6.4 5.1-10 5.1-10l2.9 1.3s30.8-.6 31.6-2.7c.8-2.1 2.1-32.4 3.5-50 1.2-14.5 10-15.7 10.1-.7.1 18.4-.4 54.4-.4 54.4s1.4 15.3 1.4 20.4c.1 5.1-10.8 24.2-14 28.5l2.7 7.6" fill="url(#prefix__c)" transform="scale(.11216)"/><path d="M2.46 33.3l-.819-2.568S-.063 29.117.195 26.235c.022-.191.022-.404.044-.617a1.795 1.795 0 01.572-1.122l.326.146s3.454-.067 3.544-.303c.09-.235.236-3.634.393-5.608.134-1.626 1.121-1.761 1.132-.079.012 2.064-.044 6.102-.044 6.102s.157 1.716.157 2.288c.01.572-1.212 2.714-1.57 3.197l.302.852" stroke="#666" stroke-width=".16824" stroke-linecap="round" stroke-linejoin="round" fill="none"/><path d="M6.635 223.2c-.2 3.8-.2 8.7.1 9.5.6 1.8 1.1 3.9 2.8 4.8.8.4 5 .7 6-.5s1.4-2.2 1.2-3c-.2-.8 1.5-14.7-.3-16-4.1-2.9-9.1-1.3-11.5.6-2.5 1.9-3 13.5-3 13.5" fill="url(#prefix__d)" transform="scale(.11216)"/><path d="M.744 25.034c-.022.427-.022.976.011 1.066.068.202.124.437.314.538.09.045.561.079.673-.056.113-.134.157-.246.135-.336-.022-.09.168-1.649-.034-1.795-.46-.325-1.02-.146-1.29.068-.28.213-.336 1.514-.336 1.514" stroke="#666" stroke-width=".16824" stroke-linecap="round" stroke-linejoin="round" fill="none"/><path d="M27.635 232.7s1.1-13.4.6-16.5c-.4-3-9-3.9-10.4-.1-.9 2.3-1.3 14.9-1 17.8.1.7 1.8 4 4 4.2 3 .3 5.1 0 6-1.2.8-1.2.8-4.2.8-4.2z" fill="url(#prefix__e)" transform="scale(.11216)"/><path d="M3.1 26.1s.123-1.503.067-1.85c-.045-.337-1.01-.438-1.167-.012-.1.258-.145 1.671-.112 1.997.011.078.202.448.449.47.336.034.572 0 .673-.134.09-.135.09-.471.09-.471z" stroke="#666" stroke-width=".16824" stroke-linecap="round" stroke-linejoin="round" fill="none"/><path d="M39.335 229.2c1.4-5.6 1.7-15.4.8-17.9-1.1-3.1-9.6-3.5-10.9.1-.9 2.5-1.1 15.6-.9 18.8 0 .8.6 5.7 2.9 6.1 3 .4 5.1.6 6-.6.9-1.2 2.1-6.5 2.1-6.5z" fill="url(#prefix__f)" transform="scale(.11216)"/><path d="M4.412 25.707c.157-.628.19-1.727.09-2.007-.124-.348-1.077-.393-1.223.01-.1.281-.123 1.75-.1 2.11 0 .09.066.639.324.684.337.045.572.067.673-.068.101-.134.236-.729.236-.729z" stroke="#666" stroke-width=".16824" stroke-linecap="round" stroke-linejoin="round" fill="none"/><path d="M27.235 258.9c.1-4.7 2.8-10.4 5.2-16.6 4.1-10 8.5-14.1 8.5-14.1l.7-16.5s.7-12.9 7-13.6c6.3-.7 3.1 13.1 3.3 17.8.2 4 2.6 15.2 2.4 23.2" fill="url(#prefix__g)" transform="scale(.11216)"/><path d="M3.055 29.039c.01-.528.314-1.167.583-1.862.46-1.122.953-1.582.953-1.582l.079-1.85s.078-1.447.785-1.526c.707-.078.348 1.47.37 1.997.023.448.292 1.705.27 2.602" stroke="#666" stroke-width=".16824" stroke-linecap="round" stroke-linejoin="round" fill="none"/><path d="M13.104 45.156c-.527 1.627-1.547 5.62-3.959 5.877-1.02.113-1.223-.482-2.243-2.5-.516-1.01-1.234-1.84-2.02-4.005-1.58-4.307-4.16-10.711-4.16-10.711 1.794.202 4.441-1.963 4.733-2.793.56 1.39 4.868 11.541 4.868 11.541" fill="#9ea7b5"/><path d="M13.104 45.156c-.527 1.627-1.547 5.62-3.959 5.877-1.02.113-1.223-.482-2.243-2.5-.516-1.01-1.234-1.84-2.02-4.005-1.58-4.307-4.16-10.711-4.16-10.711 1.794.202 4.441-1.963 4.733-2.793.56 1.39 4.868 11.541 4.868 11.541" stroke="#666" stroke-width=".16824" stroke-linecap="round" stroke-linejoin="round" fill="none"/><path d="M236.935 249.3c-13.1-7.4-15.3-17.3-19.5-26.5-.9-1.9-.9-17.4-.9-18.4v-9.1h-31.7v9.1c0 1.1 0 16.5-.9 18.4-4.2 9.2-6.4 19.2-19.5 26.5-4.1 2.3 36 29.9 36 29.9s40.6-27.6 36.5-29.9z" fill="url(#prefix__h)" transform="scale(.11216)"/><path d="M26.575 27.962c-1.47-.83-1.716-1.94-2.187-2.972-.101-.214-.101-1.952-.101-2.064v-1.02H20.73v1.02c0 .123 0 1.85-.1 2.064-.472 1.031-.718 2.153-2.188 2.972-.46.258 4.038 3.353 4.038 3.353s4.554-3.095 4.094-3.353z" stroke="#666" stroke-width=".16824" stroke-linecap="round" stroke-linejoin="round" fill="none"/><path d="M22.638.19h-.247c-6.101 0-8.984 4.397-8.31 10.05.078.707.212 1.391.392 2.053.684 3.96 3.286 7.055 6.584 7.818.437.112.886.179 1.323.179h.247a5.3 5.3 0 001.323-.18c3.298-.762 5.911-3.869 6.584-7.817.18-.662.314-1.346.393-2.053C31.622 4.587 28.74.19 22.638.19z" fill="#967b4a"/><path d="M22.638.19h-.247c-6.101 0-8.984 4.397-8.31 10.05.078.707.212 1.391.392 2.053.684 3.96 3.286 7.055 6.584 7.818.437.112.886.179 1.323.179h.247a5.3 5.3 0 001.323-.18c3.298-.762 5.911-3.869 6.584-7.817.18-.662.314-1.346.393-2.053C31.622 4.587 28.74.19 22.638.19z" stroke="#666" stroke-width=".16824" stroke-linecap="round" stroke-linejoin="round" fill="none"/><g><path d="M138.235 113s-10-1.2-10 13.1c0 14.3 13.8 21.3 13.8 21.3z" fill="url(#prefix__i)" transform="scale(.11216)"/><path d="M15.505 12.674s-1.122-.134-1.122 1.47c0 1.603 1.548 2.389 1.548 2.389z" stroke="#666" stroke-width=".16824" stroke-linecap="round" stroke-linejoin="round" fill="none"/></g><g><path d="M263.435 113s10-1.2 10 13.1c0 14.3-13.8 21.3-13.8 21.3z" fill="url(#prefix__j)" transform="scale(.11216)"/><path d="M29.547 12.674s1.122-.134 1.122 1.47c0 1.603-1.548 2.389-1.548 2.389z" stroke="#666" stroke-width=".16824" stroke-linecap="round" stroke-linejoin="round" fill="none"/></g><g><path d="M202.635 37.7h-3.6c-53.5 1.1-63.3 41.2-63.3 60.7 0 0 .6 8.8.6 23.1s2.4 33.1 11.3 45.2c8.9 12.1 31 36.8 53.3 36.8 22.2 0 44.4-24.7 53.3-36.8 8.9-12.1 11.3-30.9 11.3-45.2 0-14.3.6-23.1.6-23.1-.2-19.6-9.9-59.7-63.5-60.7z" fill="url(#prefix__k)" transform="scale(.11216)"/><path d="M22.728 4.228h0-.157 0-.09 0-.157 0c-6 .124-7.1 4.622-7.1 6.809 0 0 .068.987.068 2.59 0 1.605.269 3.713 1.267 5.07.998 1.357 3.477 4.128 5.978 4.128 2.49 0 4.98-2.77 5.978-4.128.999-1.357 1.268-3.465 1.268-5.07 0-1.603.067-2.59.067-2.59-.022-2.199-1.11-6.696-7.122-6.809z" stroke="#666" stroke-width=".16824" stroke-linecap="round" stroke-linejoin="round" fill="none"/></g><g><path d="M18.802 5.036s-2.826 1.873-3.656 7.683c0 0-1.56-6.606 2.849-9.141" fill="#967b4a"/><path d="M18.802 5.036s-2.826 1.873-3.656 7.683c0 0-1.56-6.606 2.849-9.141" stroke="#666" stroke-width=".16824" stroke-linecap="round" stroke-linejoin="round" fill="none"/></g><g><path d="M18.567 5.182s3.342 3.096 11.25 7.56c1.29.729.886 1.402.886 1.402 1.446-2.76-4.038-14.738-11.733-11.239" fill="#967b4a"/><path d="M18.567 5.182s3.342 3.096 11.25 7.56c1.29.729.886 1.402.886 1.402 1.446-2.76-4.038-14.738-11.733-11.239" stroke="#666" stroke-width=".16824" stroke-linecap="round" stroke-linejoin="round" fill="none"/></g><g stroke="#666" stroke-width="1.5" stroke-linecap="round" stroke-linejoin="round" fill="none"><path d="M21.797 17.542l.37.056M23.233 17.542l-.37.056" stroke-width=".16824"/></g><path d="M19.038 3.87s6.584 5.574 10.206 7.772" stroke="#666" stroke-width=".16824" stroke-linecap="round" stroke-linejoin="round" fill="none"/><path d="M17.423 13.47s.46-1.3 1.704-1.3c1.245 0 1.604 1.3 1.604 1.3s-.807.752-2.254.416a4.161 4.161 0 01-1.054-.415z" fill="#fff"/><g><path d="M18.297 13.134c0 .494.404.909.909.909a.905.905 0 00.908-.909.912.912 0 00-.908-.908.912.912 0 00-.909.908z"/><path d="M18.297 13.134c0 .494.404.909.909.909a.905.905 0 00.908-.909.912.912 0 00-.908-.908.912.912 0 00-.909.908z" stroke="#666" stroke-width=".16824" stroke-linecap="round" stroke-linejoin="round" fill="none"/><path d="M18.365 13.134c0 .46.37.83.83.83.46 0 .83-.37.83-.83 0-.46-.37-.83-.83-.83-.449 0-.83.37-.83.83z" fill="#a1895c"/><path d="M18.365 13.134c0 .46.37.83.83.83.46 0 .83-.37.83-.83 0-.46-.37-.83-.83-.83-.449 0-.83.37-.83.83z" stroke="#666" stroke-width=".16824" stroke-linecap="round" stroke-linejoin="round" fill="none"/><g><path d="M18.802 13.134c0 .224.18.404.404.404.224 0 .404-.18.404-.404a.402.402 0 00-.404-.404.402.402 0 00-.404.404z" fill="#666"/><path d="M18.802 13.134c0 .224.18.404.404.404.224 0 .404-.18.404-.404a.402.402 0 00-.404-.404.402.402 0 00-.404.404z" stroke="#666" stroke-width=".16824" stroke-linecap="round" stroke-linejoin="round" fill="none"/></g><path d="M19.06 12.876a.13.13 0 00.135.135.13.13 0 00.134-.135.13.13 0 00-.134-.134.136.136 0 00-.135.134z" fill="#fff"/></g><g><path d="M18.398 12.18s-.157-.145-.314-.526c.101.291.37.493.37.493l-.056.034" fill="#fff8e8"/><path d="M18.398 12.18s-.157-.145-.314-.526c.101.291.37.493.37.493l-.056.034" stroke="#666" stroke-width=".16824" stroke-linecap="round" stroke-linejoin="round" fill="none"/></g><g><path d="M17.826 12.652s-.202-.067-.493-.348c.213.224.55.303.55.303l-.057.045" fill="#fff8e8"/><path d="M17.826 12.652s-.202-.067-.493-.348c.213.224.55.303.55.303l-.057.045" stroke="#666" stroke-width=".16824" stroke-linecap="round" stroke-linejoin="round" fill="none"/></g><g><path d="M19.262 12.012s-.123-.179-.19-.572c.044.303.257.561.257.561l-.067.011" fill="#fff8e8"/><path d="M19.262 12.012s-.123-.179-.19-.572c.044.303.257.561.257.561l-.067.011" stroke="#666" stroke-width=".16824" stroke-linecap="round" stroke-linejoin="round" fill="none"/></g><g><path d="M17.423 13.28s.47-1.245 1.727-1.245c1.245 0 1.581 1.245 1.581 1.245s-.493-1.144-1.491-1.144c-.83-.011-1.817 1.144-1.817 1.144z" fill="#666"/><path d="M17.423 13.28s.47-1.245 1.727-1.245c1.245 0 1.581 1.245 1.581 1.245s-.493-1.144-1.491-1.144c-.83-.011-1.817 1.144-1.817 1.144z" stroke="#666" stroke-width=".16824" stroke-linecap="round" stroke-linejoin="round" fill="none"/></g><path d="M27.596 13.47s-.46-1.3-1.705-1.3-1.604 1.3-1.604 1.3.807.752 2.254.416a3.947 3.947 0 001.055-.415z" fill="#fff"/><g><path d="M26.732 13.134a.912.912 0 01-.909.909.912.912 0 01-.908-.909c0-.493.404-.908.908-.908a.92.92 0 01.909.908z"/><path d="M26.732 13.134a.912.912 0 01-.909.909.912.912 0 01-.908-.909c0-.493.404-.908.908-.908a.92.92 0 01.909.908z" stroke="#666" stroke-width=".16824" stroke-linecap="round" stroke-linejoin="round" fill="none"/><path d="M26.653 13.134c0 .46-.37.83-.83.83-.46 0-.83-.37-.83-.83 0-.46.37-.83.83-.83.46 0 .83.37.83.83z" fill="#a1895c"/><path d="M26.653 13.134c0 .46-.37.83-.83.83-.46 0-.83-.37-.83-.83 0-.46.37-.83.83-.83.46 0 .83.37.83.83z" stroke="#666" stroke-width=".16824" stroke-linecap="round" stroke-linejoin="round" fill="none"/><g><path d="M26.227 13.134c0 .224-.18.404-.404.404a.402.402 0 01-.403-.404c0-.224.18-.404.403-.404.225 0 .404.18.404.404z" fill="#666"/><path d="M26.227 13.134c0 .224-.18.404-.404.404a.402.402 0 01-.403-.404c0-.224.18-.404.403-.404.225 0 .404.18.404.404z" stroke="#666" stroke-width=".16824" stroke-linecap="round" stroke-linejoin="round" fill="none"/></g><path d="M25.958 12.876a.13.13 0 01-.135.135.13.13 0 01-.134-.135.13.13 0 01.134-.134.13.13 0 01.135.134z" fill="#fff"/></g><g><path d="M26.631 12.18s.157-.145.314-.526c-.1.291-.37.493-.37.493l.056.034" fill="#fff8e8"/><path d="M26.631 12.18s.157-.145.314-.526c-.1.291-.37.493-.37.493l.056.034" stroke="#666" stroke-width=".16824" stroke-linecap="round" stroke-linejoin="round" fill="none"/></g><g><path d="M27.192 12.652s.202-.067.493-.348c-.213.224-.55.303-.55.303l.057.045" fill="#fff8e8"/><path d="M27.192 12.652s.202-.067.493-.348c-.213.224-.55.303-.55.303l.057.045" stroke="#666" stroke-width=".16824" stroke-linecap="round" stroke-linejoin="round" fill="none"/></g><g><path d="M25.756 12.012s.124-.179.19-.572c-.044.303-.257.561-.257.561l.067.011" fill="#fff8e8"/><path d="M25.756 12.012s.124-.179.19-.572c-.044.303-.257.561-.257.561l.067.011" stroke="#666" stroke-width=".16824" stroke-linecap="round" stroke-linejoin="round" fill="none"/></g><g><path d="M27.596 13.28s-.471-1.245-1.728-1.245c-1.245 0-1.581 1.245-1.581 1.245s.493-1.144 1.492-1.144c.83-.011 1.817 1.144 1.817 1.144z" fill="#666"/><path d="M27.596 13.28s-.471-1.245-1.728-1.245c-1.245 0-1.581 1.245-1.581 1.245s.493-1.144 1.492-1.144c.83-.011 1.817 1.144 1.817 1.144z" stroke="#666" stroke-width=".16824" stroke-linecap="round" stroke-linejoin="round" fill="none"/></g><path d="M17.12 10.52s.538-.167 1.346-.055c.807.112 2.041.695 2.041.695M27.932 10.52s-.538-.167-1.346-.055c-.807.112-2.041.695-2.041.695" stroke="#666" stroke-width=".16824" stroke-linecap="round" stroke-linejoin="round" fill="none"/><g><path d="M21.92 21.39s.36.268.628.268c.28 0 .628-.269.628-.269" fill="#fff5e0"/><path d="M21.92 21.39s.36.268.628.268c.28 0 .628-.269.628-.269" stroke="#666" stroke-width=".16824" stroke-linecap="round" stroke-linejoin="round" fill="none"/><g><path d="M23.547 19.976c-.034-.236-.483-1.211-.662-1.223-.18-.01-.202.012-.36.012-.156 0-.179-.023-.358-.012-.18.012-.628.987-.662 1.223-.033.292.438.695 1.02.695.584.012 1.055-.403 1.022-.695z" fill="#ffd9c9"/><path d="M23.547 19.976c-.034-.236-.483-1.211-.662-1.223-.18-.01-.202.012-.36.012-.156 0-.179-.023-.358-.012-.18.012-.628.987-.662 1.223-.033.292.438.695 1.02.695.584.012 1.055-.403 1.022-.695z" stroke="#666" stroke-width=".16824" stroke-linecap="round" stroke-linejoin="round" fill="none"/></g></g><g><path d="M18.668 27.681l.874 9.287 2.94 6.943 2.949-6.943.875-9.287-3.825 1.032z" fill="#fff"/><path d="M18.668 27.681l.874 9.287 2.94 6.943 2.949-6.943.875-9.287-3.825 1.032z" stroke="#666" stroke-width=".16824" stroke-linecap="round" stroke-linejoin="round" fill="none"/><g><path d="M20.642 24.72c-.124.483 1.267 3.836 1.85 3.993 0 0-1.951 3.242-2.075 3.04-2.019-3.387-1.222-4.946-1.222-4.946s1.323-2.087 1.447-2.087z" fill="#fff"/><path d="M20.642 24.72c-.124.483 1.267 3.836 1.85 3.993 0 0-1.951 3.242-2.075 3.04-2.019-3.387-1.222-4.946-1.222-4.946s1.323-2.087 1.447-2.087z" stroke="#666" stroke-width=".16824" stroke-linecap="round" stroke-linejoin="round" fill="none"/><g><path d="M24.332 24.72c.123.483-1.268 3.836-1.85 3.993 0 0 1.95 3.242 2.074 3.04 2.019-3.387 1.223-4.946 1.223-4.946s-1.324-2.087-1.447-2.087z" fill="#fff"/><path d="M24.332 24.72c.123.483-1.268 3.836-1.85 3.993 0 0 1.95 3.242 2.074 3.04 2.019-3.387 1.223-4.946 1.223-4.946s-1.324-2.087-1.447-2.087z" stroke="#666" stroke-width=".16824" stroke-linecap="round" stroke-linejoin="round" fill="none"/></g></g></g><g><path d="M24.668 37.249l-.594 2.568s-1.29 2.86-1.514 3.175c-.225.302-.718 2.007-.82 2.703-.044.28-.067 3.555.09 5.91.158 2.345 1.806 8.099 2.793 10.633.707 1.806 2.199 1.47 3.253 1.47.841 0 6-.157 6.068-.258.067-.101-2.658-9.512-3.185-11.497-.528-1.985-.696-3.196-.539-4.24.157-1.043.707-10.139.707-10.89" fill="#9ea7b5"/><path d="M24.668 37.249l-.594 2.568s-1.29 2.86-1.514 3.175c-.225.302-.718 2.007-.82 2.703-.044.28-.067 3.555.09 5.91.158 2.345 1.806 8.099 2.793 10.633.707 1.806 2.199 1.47 3.253 1.47.841 0 6-.157 6.068-.258.067-.101-2.658-9.512-3.185-11.497-.528-1.985-.696-3.196-.539-4.24.157-1.043.707-10.139.707-10.89" stroke="#666" stroke-width=".16824" stroke-linecap="round" stroke-linejoin="round" fill="none"/></g><g><path d="M24.982 25.584c.606.18.774.213 1.02.482.203.225 1.37 1.279 1.672 1.615.64.718 1.828 1.795 1.828 1.795l-1.648.247 1.615 1.211c-.92 5.967-7.493 13.123-7.493 13.123s1.582-3.6 2.333-6.674c.752-3.062 1.257-4.879 1.458-6.55.202-1.738-.09-4.206-.09-4.206z" fill="#9ea7b5"/><path d="M24.982 25.584c.606.18.774.213 1.02.482.203.225 1.37 1.279 1.672 1.615.64.718 1.828 1.795 1.828 1.795l-1.648.247 1.615 1.211c-.92 5.967-7.493 13.123-7.493 13.123s1.582-3.6 2.333-6.674c.752-3.062 1.257-4.879 1.458-6.55.202-1.738-.09-4.206-.09-4.206z" stroke="#666" stroke-width=".16824" stroke-linecap="round" stroke-linejoin="round" fill="none"/></g><g><path d="M20.384 37.249l.594 2.568s1.29 2.86 1.514 3.175c.225.302.718 2.007.82 2.703.044.28.066 3.555-.09 5.91-.158 2.345-1.806 8.099-2.793 10.633-.707 1.806-2.199 1.47-3.253 1.47-.841 0-6-.157-6.068-.258-.067-.101 2.658-9.512 3.185-11.497.527-1.985.696-3.196.539-4.24-.157-1.043-.707-10.139-.707-10.89" fill="#9ea7b5"/><path d="M20.384 37.249l.594 2.568s1.29 2.86 1.514 3.175c.225.302.718 2.007.82 2.703.044.28.066 3.555-.09 5.91-.158 2.345-1.806 8.099-2.793 10.633-.707 1.806-2.199 1.47-3.253 1.47-.841 0-6-.157-6.068-.258-.067-.101 2.658-9.512 3.185-11.497.527-1.985.696-3.196.539-4.24-.157-1.043-.707-10.139-.707-10.89" stroke="#666" stroke-width=".16824" stroke-linecap="round" stroke-linejoin="round" fill="none"/></g><g><path d="M19.98 25.584c-.606.18-.774.213-1.02.482-.203.225-1.37 1.279-1.672 1.615-.64.718-1.828 1.795-1.828 1.795l1.649.247-1.616 1.211c.92 5.967 6.988 12.035 6.988 12.035s-1.077-2.512-1.817-5.586c-.751-3.062-1.256-4.879-1.458-6.55-.202-1.738.09-4.206.09-4.206z" fill="#9ea7b5"/><path d="M19.98 25.584c-.606.18-.774.213-1.02.482-.203.225-1.37 1.279-1.672 1.615-.64.718-1.828 1.795-1.828 1.795l1.649.247-1.616 1.211c.92 5.967 6.988 12.035 6.988 12.035s-1.077-2.512-1.817-5.586c-.751-3.062-1.256-4.879-1.458-6.55-.202-1.738.09-4.206.09-4.206z" stroke="#666" stroke-width=".16824" stroke-linecap="round" stroke-linejoin="round" fill="none"/></g><g><path d="M18.948 53.512c-.135.46-.426.864-.673.898l-4.565.56c-.236.034-.325-.325-.19-.785l.527-1.862c.134-.46 5.552-1.132 5.417-.661z" fill="#9ea7b5"/><path d="M18.948 53.512c-.135.46-.426.864-.673.898l-4.565.56c-.236.034-.325-.325-.19-.785l.527-1.862c.134-.46 5.552-1.132 5.417-.661z" stroke="#666" stroke-width=".16824" stroke-linecap="round" stroke-linejoin="round" fill="none"/><path d="M26.025 53.512c.135.46.427.864.673.898l4.565.56c.236.034.326-.325.191-.785l-.527-1.862c-.135-.46-5.552-1.132-5.418-.661z" fill="#9ea7b5"/><path d="M26.025 53.512c.135.46.427.864.673.898l4.565.56c.236.034.326-.325.191-.785l-.527-1.862c-.135-.46-5.552-1.132-5.418-.661z" stroke="#666" stroke-width=".16824" stroke-linecap="round" stroke-linejoin="round" fill="none"/><g><path d="M22.885 45.93c0 .213-.18.393-.393.393a.397.397 0 01-.392-.393c0-.213.18-.392.392-.392a.39.39 0 01.393.392z" fill="#9ea7b5"/><path d="M22.885 45.93c0 .213-.18.393-.393.393a.397.397 0 01-.392-.393c0-.213.18-.392.392-.392a.39.39 0 01.393.392z" stroke="#666" stroke-width=".16824" stroke-linecap="round" stroke-linejoin="round" fill="none"/></g><g><path d="M22.885 49.676c0 .213-.18.393-.393.393a.397.397 0 01-.392-.393c0-.213.18-.392.392-.392.213 0 .393.18.393.392z" fill="#9ea7b5"/><path d="M22.885 49.676c0 .213-.18.393-.393.393a.397.397 0 01-.392-.393c0-.213.18-.392.392-.392.213 0 .393.18.393.392z" stroke="#666" stroke-width=".16824" stroke-linecap="round" stroke-linejoin="round" fill="none"/></g></g><g stroke="#666" stroke-width="1.5" stroke-linecap="round" stroke-linejoin="round" fill="none"><path d="M11.736 29.644l2.333 6.977M33.282 29.644l-2.322 6.977" stroke-width=".16824"/></g><g><path d="M300.335 477l-5.4 9.7c-2.6-3.7-9.6-15.1-9.6-15.1s-1.1-3.6-2.5-4.7c-.2-.1-7.4-5.9-9.4-7.6-1.9-1.2-3.1-2.3-3.1-2.3s-1.3 42.6.8 44.6c3.7 3.6 8.6 5.8 8.6 5.8s2.3 5 4.6 6.5c5.2 3.5 13.7 3.1 16 2.5 1.9-.5 5.7-5.2 8.8-12.4l5.9-7.2" fill="url(#prefix__l)" transform="scale(.11216)"/><path d="M33.686 53.501l-.606 1.088c-.291-.415-1.076-1.694-1.076-1.694s-.124-.403-.28-.527c-.023-.011-.83-.662-1.055-.852-.213-.135-.348-.258-.348-.258s-.146 4.778.09 5.002c.415.404.964.65.964.65s.258.562.516.73c.584.392 1.537.348 1.795.28.213-.056.64-.583.987-1.39l.662-.808" stroke="#666" stroke-width=".16824" stroke-linecap="round" stroke-linejoin="round" fill="none"/><path d="M273.535 459.3s-13.3-10.4-16.2-9.9c-2.9.5-11.5 5.7-16.9 7.1-3.3.9-1.2 6.7 3.4 6.7s15.5-3.5 15.5-3.5l12.2 12" fill="url(#prefix__m)" transform="scale(.11216)"/><path d="M30.68 51.516s-1.492-1.167-1.817-1.11c-.325.055-1.29.639-1.895.796-.37.1-.135.751.38.751.517 0 1.74-.392 1.74-.392l1.368 1.346" stroke="#666" stroke-width=".16824" stroke-linecap="round" stroke-linejoin="round" fill="none"/><path d="M274.235 470.2s-10.8-5.7-13.6-4.9c-2.9.8-21.1 5.8-26.3 8-2.8 1.2-.1 6.8 4.5 6 4.6-.8 22.7-4.5 22.7-4.5l14.2 7.1" fill="url(#prefix__n)" transform="scale(.11216)"/><path d="M30.759 52.738s-1.212-.639-1.526-.55c-.325.09-2.366.651-2.95.898-.314.135-.01.763.505.673.516-.09 2.546-.505 2.546-.505l1.593.797" stroke="#666" stroke-width=".16824" stroke-linecap="round" stroke-linejoin="round" fill="none"/><g><path d="M275.835 481.9s-10-3.5-12.9-2.7c-2.9.8-19.4 6.1-25.2 7.8-2.3.7-.5 6.8 4.1 6.3s20.9-5.8 20.9-5.8l12.1 3.8" fill="url(#prefix__o)" transform="scale(.11216)"/><path d="M30.938 54.05s-1.122-.392-1.447-.302c-.325.09-2.176.684-2.826.875-.258.078-.056.762.46.706.515-.056 2.344-.65 2.344-.65l1.357.426" stroke="#666" stroke-width=".16824" stroke-linecap="round" stroke-linejoin="round" fill="none"/></g><g><path d="M274.835 491.3s-9.7 2.2-12.5 3.1c-2.9.8-10.7 1.8-16 3.3-3.3.9-.3 6.8 4.3 6.1 4.6-.7 10.9-2.1 10.9-2.1l11-.1" fill="url(#prefix__p)" transform="scale(.11216)"/><path d="M30.826 55.105s-1.088.247-1.402.348c-.325.09-1.2.202-1.795.37-.37.1-.033.762.483.684.516-.079 1.222-.236 1.222-.236l1.234-.01" stroke="#666" stroke-width=".16824" stroke-linecap="round" stroke-linejoin="round" fill="none"/></g></g><g><path d="M43.018 45.055c0 .079-.774 1.56-1.38 2.67-.605 1.11-3.252 7.11-4.542 9.14-1.032-.582-3.825-2.579-3.948-2.971.538-1.358 3.589-7.078 3.589-7.078l.303-1.39.661-.752" fill="#9ea7b5"/><path d="M43.018 45.055c0 .079-.774 1.56-1.38 2.67-.605 1.11-3.252 7.11-4.542 9.14-1.032-.582-3.825-2.579-3.948-2.971.538-1.358 3.589-7.078 3.589-7.078l.303-1.39.661-.752" stroke="#666" stroke-width=".16824" stroke-linecap="round" stroke-linejoin="round" fill="none"/></g></g></svg>