<svg width="98.824" height="140" xmlns="http://www.w3.org/2000/svg"><defs><clipPath clipPathUnits="userSpaceOnUse" id="prefix__a"><path d="M0 398h398V0H0z"/></clipPath></defs><g clip-path="url(#prefix__a)" fill-rule="evenodd" transform="matrix(.44122 0 0 -.44122 -44.383 160.993)"><path d="M214.66 361.343c31.541 0 57.11-25.569 57.11-57.111 0-15.996-6.58-30.453-17.175-40.82l54.132-25.179c32.725-15.223 9.658-64.756-23.163-49.491l-26.031 12.108v-44.971l12.925-52.807 7.396 1.811c31.312 7.664 42.899-39.674 11.585-47.338l-7.396-1.809-30.275-7.412c-13.877-3.396-27.967 5.153-31.364 19.031l-7.744 31.639-7.744-31.639c-3.397-13.878-17.486-22.427-31.364-19.031l-30.277 7.412-7.396 1.809c-31.313 7.664-19.726 55.002 11.586 47.338l7.396-1.811 12.925 52.807v44.971l-26.032-12.108c-32.819-15.265-55.886 34.268-23.16 49.491l54.131 25.179c-10.597 10.367-17.175 24.824-17.175 40.82 0 31.542 25.569 57.111 57.11 57.111" fill="#e6e6e6"/><path d="M210.498 364.88c31.541 0 57.109-25.568 57.109-57.11 0-15.996-6.579-30.453-17.174-40.821l54.131-25.178c32.726-15.223 9.659-64.757-23.16-49.492l-26.033 12.108v-44.971l12.925-52.807 7.396 1.811c31.312 7.664 42.899-39.674 11.586-47.336l-7.395-1.811-30.278-7.412c-13.876-3.396-27.966 5.153-31.363 19.032l-7.744 31.64-7.744-31.64c-3.397-13.879-17.487-22.428-31.364-19.032l-30.277 7.412-7.396 1.811c-31.312 7.662-19.726 55 11.586 47.336l7.397-1.811 12.924 52.807v44.971l-26.032-12.108c-32.82-15.265-55.886 34.269-23.16 49.492l54.131 25.178c-10.596 10.368-17.175 24.825-17.175 40.821 0 31.542 25.569 57.11 57.11 57.11" fill="#db8229"/><path d="M266.971 112.02l1.325-5.411 4.18 1.024a4.086 4.086 0 00-5.251-4.221l-3.063.918a4.903 4.903 0 01-3.358-.174c-1.017-.435-1.889-1.234-2.441-2.324a12.68 12.68 0 00-5.114-5.307 12.666 12.666 0 00-7.186-1.591c-1.095.084-2.111-.155-2.944-.661-.836-.503-1.527-1.296-1.964-2.312a12.641 12.641 0 00-5.045-5.803 12.705 12.705 0 00-7.48-1.826c-1.176.082-2.275-.23-3.154-.838-.882-.609-1.564-1.531-1.904-2.664l-.962-3.213a4.086 4.086 0 00-5.367-2.644l-1.779 7.271.281.938a13.04 13.04 0 005.077 7.015 13.055 13.055 0 008.366 2.282 4.512 4.512 0 012.666.664 4.499 4.499 0 011.798 2.06 13.03 13.03 0 005.24 6.039 13.03 13.03 0 007.799 1.83c.91-.07 1.804.141 2.575.573a4.5 4.5 0 011.807 1.9 13.065 13.065 0 006.513 6.121 13.071 13.071 0 008.929.492z" fill="#bf6c19"/><path d="M208.625 362.382c-30.163 0-54.612-24.45-54.612-54.612 0-14.746 5.888-28.727 16.424-39.035l2.583-2.527-57.407-26.703c-8.25-3.837-13.796-10.648-14.353-19.895-.273-4.533.724-9.124 2.681-13.211 1.835-3.834 4.543-7.286 7.934-9.863 7.493-5.694 16.411-5.89 24.791-1.991l29.583 13.759v-49.189l-13.59-55.525-9.823 2.404c-7.845 1.92-15.455.272-20.945-5.853-2.592-2.891-4.391-6.475-5.312-10.237-.92-3.763-.978-7.769-.016-11.527 2.041-7.969 8.03-12.947 15.875-14.867l37.672-9.221c6.059-1.484 12.395-.486 17.723 2.746 5.329 3.233 9.139 8.393 10.621 14.451l10.171 41.555 10.171-41.555c1.482-6.058 5.291-11.218 10.621-14.451 5.327-3.232 11.664-4.23 17.723-2.746l37.672 9.221c7.845 1.92 13.835 6.898 15.876 14.867.961 3.76.904 7.768-.018 11.529-.921 3.762-2.719 7.34-5.308 10.233-5.49 6.125-13.103 7.773-20.949 5.855l-9.822-2.404L251 159.115v49.189l29.584-13.759c8.38-3.899 17.298-3.703 24.792 1.991 3.39 2.577 6.098 6.029 7.934 9.863 1.955 4.087 2.953 8.678 2.679 13.211-.556 9.247-6.103 16.058-14.351 19.895l-57.409 26.703 2.584 2.527c10.536 10.308 16.424 24.289 16.424 39.035 0 30.162-24.45 54.612-54.612 54.612" fill="#eb9238"/><path d="M272.007 105.404l-6.29-1.541 1.508-.451a4.087 4.087 0 014.782 1.992m-56.156-21.886l2.141-8.75a4.088 4.088 0 014.618 2.849l.962 3.213c.34 1.133 1.022 2.055 1.904 2.664.879.608 1.978.92 3.154.838a12.705 12.705 0 017.48 1.826 12.641 12.641 0 015.045 5.803c.437 1.016 1.128 1.809 1.964 2.312.833.506 1.849.745 2.944.661 2.541-.2 5.039.386 7.186 1.591a12.68 12.68 0 015.114 5.307c.552 1.09 1.424 1.889 2.441 2.324a4.903 4.903 0 003.358.174l.266-.08-2.071 8.465a13.055 13.055 0 01-4.771-1.049 13.065 13.065 0 01-6.513-6.121 4.5 4.5 0 00-1.807-1.9 4.556 4.556 0 00-2.575-.573 13.03 13.03 0 01-7.799-1.83 13.03 13.03 0 01-5.24-6.039 4.499 4.499 0 00-1.798-2.06 4.512 4.512 0 00-2.666-.664 13.055 13.055 0 01-8.366-2.282 13.032 13.032 0 01-4.971-6.679" fill="#db8229"/><path d="M207.48 360.348c-28.178 0-51.018-22.839-51.018-51.017 0-13.776 5.498-26.834 15.344-36.467l6.299-6.162-62.121-28.894c-7.037-3.274-11.803-8.929-12.281-16.853-.236-3.923.642-7.907 2.335-11.442 1.589-3.32 3.931-6.322 6.867-8.555 6.401-4.864 13.973-4.909 21.1-1.593l34.694 16.137v-55.26l-14.547-59.439-13.315 3.26c-6.514 1.595-12.833.349-17.414-4.76-2.197-2.451-3.717-5.504-4.497-8.694-.78-3.185-.841-6.593-.026-9.781 1.71-6.678 6.707-10.666 13.248-12.265l37.673-9.221c5.13-1.258 10.49-.412 15.003 2.326 4.513 2.74 7.739 7.103 8.993 12.234l13.663 55.819 13.662-55.819c1.257-5.131 4.482-9.494 8.993-12.234 4.514-2.738 9.875-3.584 15.006-2.326l37.671 9.221c6.542 1.599 11.538 5.587 13.248 12.265.817 3.19.754 6.598-.026 9.785-.78 3.188-2.3 6.237-4.494 8.686-4.581 5.113-10.902 6.357-17.417 4.764l-13.314-3.26-14.548 59.439v55.26l34.695-16.137c7.126-3.316 14.698-3.271 21.099 1.593 2.936 2.233 5.278 5.235 6.868 8.555 1.692 3.535 2.571 7.519 2.334 11.442-.477 7.924-5.243 13.579-12.28 16.853l-62.122 28.894 6.299 6.162c9.846 9.633 15.344 22.691 15.344 36.467 0 28.178-22.839 51.017-51.018 51.017" fill="#ffa54a"/><path d="M217.851 87.348l2.952-12.057a4.068 4.068 0 011.807 2.326l.962 3.213c.34 1.133 1.022 2.055 1.904 2.664.879.608 1.978.92 3.154.838a12.705 12.705 0 017.48 1.826 12.641 12.641 0 015.045 5.803c.437 1.016 1.128 1.809 1.964 2.312.833.506 1.849.745 2.944.661 2.541-.2 5.039.386 7.186 1.591a12.68 12.68 0 015.114 5.307 4.994 4.994 0 001.72 1.938l-1.983 8.103a13.065 13.065 0 01-7.027-6.328 4.5 4.5 0 00-1.807-1.9 4.556 4.556 0 00-2.575-.573 13.03 13.03 0 01-7.799-1.83 13.03 13.03 0 01-5.24-6.039 4.499 4.499 0 00-1.798-2.06 4.512 4.512 0 00-2.666-.664 13.055 13.055 0 01-8.366-2.282 12.932 12.932 0 01-2.971-2.849" fill="#eb9238"/><path d="M167.275 281.554c-16.071 30.083-6.207 60.589 21.715 71.983-21.267-21.179-27.639-43.589-21.715-71.983m-58.71-73.946c-9.232 19.013.518 26.335 21.314 34.705-16.671-11.646-21.645-18.526-21.314-34.705m11.641-122.733c1.291 20.643 16.066 19.744 37.382 12.801-20.257 1.785-27.241-.19-37.382-12.801" fill="#ffce9c"/><path d="M161.544 202.489l-8.189-3.808a3.913 3.913 0 00-.243 2.689l.835 3.115c.294 1.098.201 2.195-.212 3.139a4.723 4.723 0 01-2.156 2.277 12.2 12.2 0 00-5.195 5.268 12.16 12.16 0 00-1.198 7.294c.156 1.051-.008 2.047-.437 2.883-.427.832-1.138 1.541-2.076 2.024a12.174 12.174 0 00-5.073 4.931 12.178 12.178 0 00-1.504 6.921c.098 1.168-.211 2.263-.822 3.132a4.72 4.72 0 01-2.66 1.837l-2.967.795a3.914 3.914 0 00-2.382 1.823l9.259 4.307a12.54 12.54 0 007.407-12.539 4.331 4.331 0 01.521-2.466 4.368 4.368 0 011.815-1.767 12.536 12.536 0 005.456-5.434 12.52 12.52 0 001.236-7.584 4.326 4.326 0 01.43-2.593 4.364 4.364 0 011.846-1.888 12.55 12.55 0 005.69-6.088 12.537 12.537 0 00.619-8.268" fill="#c26f1b"/><path d="M138.383 250.097L128.5 245.5a3.934 3.934 0 011.147-.514l2.967-.795a4.72 4.72 0 002.66-1.837c.611-.869.92-1.964.822-3.132a12.178 12.178 0 011.504-6.921 12.174 12.174 0 015.073-4.931c.938-.483 1.649-1.192 2.076-2.024.429-.836.593-1.832.437-2.883a12.16 12.16 0 011.198-7.294 12.2 12.2 0 015.195-5.268 4.723 4.723 0 002.156-2.277c.413-.944.506-2.041.212-3.139l-.582-2.173 8.595 3.998a12.482 12.482 0 01-1.035 4.447 12.55 12.55 0 01-5.69 6.088 4.364 4.364 0 00-1.846 1.888 4.326 4.326 0 00-.43 2.593 12.52 12.52 0 01-1.236 7.584 12.536 12.536 0 01-5.456 5.434 4.368 4.368 0 00-1.815 1.767 4.331 4.331 0 00-.521 2.466 12.54 12.54 0 01-5.548 11.52" fill="#db8229"/><path d="M139.885 248.925l-9.114-4.239 1.843-.495a4.72 4.72 0 002.66-1.837c.611-.869.92-1.964.822-3.132a12.178 12.178 0 011.504-6.921 12.174 12.174 0 015.073-4.931c.938-.483 1.649-1.192 2.076-2.024.429-.836.593-1.832.437-2.883a12.16 12.16 0 011.198-7.294 12.2 12.2 0 015.195-5.268 4.808 4.808 0 001.753-1.548l7.145 3.324a12.574 12.574 0 01-5.242 5.168 4.364 4.364 0 00-1.846 1.888 4.326 4.326 0 00-.43 2.593 12.52 12.52 0 01-1.236 7.584 12.536 12.536 0 01-5.456 5.434 4.368 4.368 0 00-1.815 1.767 4.331 4.331 0 00-.521 2.466 12.54 12.54 0 01-4.046 10.348" fill="#eb9238"/><path d="M127.462 243.946a3.927 3.927 0 002.027 7.588l2.968-.794a12.555 12.555 0 007.054-4.91 12.548 12.548 0 002.235-8.293 4.337 4.337 0 012.337-4.233 12.546 12.546 0 005.455-5.435 12.524 12.524 0 001.237-7.583 4.326 4.326 0 01.429-2.593 4.357 4.357 0 011.845-1.888 12.559 12.559 0 005.691-6.089 12.536 12.536 0 00.611-8.3l-.834-3.113a3.927 3.927 0 10-7.589 2.027l.834 3.114c.294 1.098.201 2.195-.212 3.139-.411.941-1.153 1.751-2.156 2.278a12.184 12.184 0 00-5.195 5.268 12.155 12.155 0 00-1.198 7.293c.155 1.051-.008 2.048-.438 2.884-.427.831-1.137 1.541-2.075 2.024a12.168 12.168 0 00-5.073 4.931 12.181 12.181 0 00-1.504 6.92c.099 1.168-.211 2.264-.822 3.132a4.714 4.714 0 01-2.659 1.837z" fill="#ffebd6"/><path d="M129.208 247.127l2.967-.795a7.051 7.051 0 003.96-2.747c.955-1.359 1.375-3.011 1.236-4.662a9.886 9.886 0 011.221-5.6 9.844 9.844 0 014.103-3.99c1.312-.676 2.404-1.712 3.08-3.03.676-1.317.885-2.825.67-4.283a9.846 9.846 0 01.97-5.902 9.874 9.874 0 014.204-4.264c1.421-.745 2.56-1.929 3.204-3.403.646-1.477.744-3.119.328-4.672l-.834-3.113a1.606 1.606 0 011.135-1.962 1.61 1.61 0 011.964 1.136l.834 3.115a10.205 10.205 0 01-.494 6.766 10.236 10.236 0 01-4.643 4.963 6.676 6.676 0 00-2.836 2.891 6.667 6.667 0 00-.657 3.987 10.211 10.211 0 01-1.006 6.182 10.218 10.218 0 01-4.45 4.43 6.691 6.691 0 00-2.786 2.706 6.692 6.692 0 00-.803 3.787 10.226 10.226 0 01-1.822 6.763 10.226 10.226 0 01-5.753 4.001l-2.967.795a1.607 1.607 0 01-1.962-1.135 1.608 1.608 0 011.137-1.964" fill="#fff"/><path d="M267.526 198.733l8.191-3.809c.382.811.491 1.756.242 2.69l-.835 3.114c-.294 1.097-.201 2.195.212 3.139a4.718 4.718 0 002.157 2.278 12.2 12.2 0 015.195 5.268 12.156 12.156 0 011.197 7.294c-.156 1.05.008 2.047.437 2.883.427.831 1.139 1.541 2.076 2.024a12.166 12.166 0 015.073 4.93 12.172 12.172 0 011.504 6.921c-.098 1.168.211 2.264.822 3.132a4.722 4.722 0 002.66 1.838l2.967.795a3.915 3.915 0 012.383 1.822l-9.259 4.307a12.508 12.508 0 01-5.172-4.245 12.548 12.548 0 01-2.235-8.294 4.346 4.346 0 00-2.337-4.232 12.54 12.54 0 01-5.455-5.435 12.517 12.517 0 01-1.237-7.583 4.325 4.325 0 00-.429-2.593 4.356 4.356 0 00-1.847-1.888 12.568 12.568 0 01-5.69-6.088 12.55 12.55 0 01-.62-8.268" fill="#c26f1b"/><path d="M290.689 246.34l9.882-4.597a3.908 3.908 0 00-1.147-.513l-2.967-.795a4.722 4.722 0 01-2.66-1.838c-.611-.868-.92-1.964-.822-3.132a12.172 12.172 0 00-1.504-6.921 12.166 12.166 0 00-5.073-4.93c-.937-.483-1.649-1.193-2.076-2.024-.429-.836-.593-1.833-.437-2.883a12.156 12.156 0 00-1.197-7.294 12.2 12.2 0 00-5.195-5.268 4.718 4.718 0 01-2.157-2.278c-.413-.944-.506-2.042-.212-3.139l.583-2.173-8.595 3.998a12.503 12.503 0 001.034 4.448 12.568 12.568 0 005.69 6.088 4.356 4.356 0 011.847 1.888c.398.783.563 1.685.429 2.593a12.517 12.517 0 001.237 7.583 12.54 12.54 0 005.455 5.435 4.345 4.345 0 012.337 4.232 12.548 12.548 0 002.235 8.294 12.482 12.482 0 003.313 3.226" fill="#db8229"/><path d="M289.187 245.168l9.114-4.24-1.844-.493a4.722 4.722 0 01-2.66-1.838c-.611-.868-.92-1.964-.822-3.132a12.172 12.172 0 00-1.504-6.921 12.166 12.166 0 00-5.073-4.93c-.937-.483-1.649-1.193-2.076-2.024-.429-.836-.593-1.833-.437-2.883a12.156 12.156 0 00-1.197-7.294 12.2 12.2 0 00-5.195-5.268 4.828 4.828 0 01-1.754-1.548l-7.145 3.324a12.585 12.585 0 005.242 5.168 4.356 4.356 0 011.847 1.888c.398.783.563 1.685.429 2.593a12.517 12.517 0 001.237 7.583 12.54 12.54 0 005.455 5.435 4.345 4.345 0 012.337 4.232 12.548 12.548 0 004.046 10.348" fill="#eb9238"/><path d="M297.272 242.554a3.929 3.929 0 012.781 4.808 3.929 3.929 0 01-4.809 2.78l-2.967-.795a12.536 12.536 0 01-9.289-13.203 4.336 4.336 0 00-2.338-4.232 12.544 12.544 0 01-5.454-5.435 12.51 12.51 0 01-1.237-7.583 4.315 4.315 0 00-.43-2.594 4.344 4.344 0 00-1.845-1.887 12.55 12.55 0 01-5.69-6.088 12.537 12.537 0 01-.611-8.302l.835-3.113a3.927 3.927 0 117.589 2.028l-.835 3.115c-.294 1.097-.201 2.194.211 3.138.412.94 1.153 1.75 2.157 2.279a12.185 12.185 0 015.194 5.267 12.155 12.155 0 011.198 7.293c-.155 1.051.009 2.048.438 2.884.427.831 1.138 1.541 2.075 2.024a12.146 12.146 0 015.072 4.93 12.146 12.146 0 011.504 6.921c-.096 1.168.213 2.264.824 3.132a4.719 4.719 0 002.659 1.837z" fill="#ffebd6"/><path d="M295.521 245.422l-2.966-.796a7.045 7.045 0 01-3.96-2.746c-.954-1.359-1.374-3.011-1.237-4.662a9.885 9.885 0 00-1.22-5.6 9.855 9.855 0 00-4.104-3.991c-1.311-.675-2.402-1.712-3.079-3.029s-.885-2.825-.67-4.284a9.85 9.85 0 00-.97-5.901 9.874 9.874 0 00-4.204-4.264c-1.42-.746-2.559-1.93-3.204-3.403-.646-1.476-.744-3.119-.328-4.673l.835-3.113a1.605 1.605 0 00-3.101-.825l-.834 3.115a10.216 10.216 0 00.496 6.767 10.226 10.226 0 004.642 4.962 6.678 6.678 0 012.837 2.891 6.657 6.657 0 01.655 3.986 10.235 10.235 0 001.006 6.183 10.218 10.218 0 004.451 4.429 6.708 6.708 0 012.787 2.707 6.7 6.7 0 01.803 3.787 10.22 10.22 0 001.821 6.763 10.227 10.227 0 005.752 4.001l2.967.794a1.605 1.605 0 001.962-1.134 1.607 1.607 0 00-1.137-1.964" fill="#fff"/><path d="M205.723 83.023l-2.252-9.201a4.09 4.09 0 00-4.364 2.887l-.962 3.213c-.34 1.133-1.022 2.055-1.904 2.664-.878.607-1.977.92-3.154.838a12.69 12.69 0 00-7.479 1.826 12.638 12.638 0 00-5.046 5.805c-.437 1.013-1.127 1.806-1.964 2.312-.832.504-1.849.744-2.943.658a12.66 12.66 0 00-7.187 1.594 12.658 12.658 0 00-5.114 5.305c-.551 1.088-1.424 1.889-2.439 2.324a4.91 4.91 0 01-3.36.174l-3.062-.918a4.086 4.086 0 00-5.137 4.924l3.344-.819 1.027 4.198 1.477.443c3.051.916 6.19.682 8.928-.492a13.063 13.063 0 006.512-6.121 4.522 4.522 0 011.808-1.901 4.527 4.527 0 012.574-.57 13.05 13.05 0 007.8-1.832 13.029 13.029 0 005.239-6.037 4.491 4.491 0 011.798-2.063 4.515 4.515 0 012.666-.662 13.06 13.06 0 008.366-2.283 13.018 13.018 0 004.828-6.266" fill="#bf6c19"/><path d="M154.481 111.033l-1.822-7.443-2.826.691a4.089 4.089 0 014.66-1.777l3.062.918a4.91 4.91 0 003.36-.174c1.015-.435 1.888-1.236 2.439-2.324a12.658 12.658 0 015.114-5.305 12.66 12.66 0 017.187-1.594c1.094.086 2.111-.154 2.943-.658.837-.506 1.527-1.299 1.964-2.312a12.638 12.638 0 015.046-5.805 12.69 12.69 0 017.479-1.826c1.177.082 2.276-.231 3.154-.838.882-.609 1.564-1.531 1.904-2.664l.962-3.213a4.15 4.15 0 01.402-.914l2.984 12.189a13.06 13.06 0 01-9.964 3.588 4.515 4.515 0 00-2.666.662 4.491 4.491 0 00-1.798 2.063 13.029 13.029 0 01-5.239 6.037 13.05 13.05 0 01-7.8 1.832 4.527 4.527 0 00-2.574.57 4.522 4.522 0 00-1.808 1.901 13.063 13.063 0 01-6.512 6.121 13.057 13.057 0 01-8.928.492z" fill="#db8229"/><path d="M156.8 111.623l-2.226-9.096 2.981.895a4.91 4.91 0 003.36-.174c1.015-.435 1.888-1.236 2.439-2.324a12.658 12.658 0 015.114-5.305 12.66 12.66 0 017.187-1.594c1.094.086 2.111-.154 2.943-.658.837-.506 1.527-1.299 1.964-2.312a12.638 12.638 0 015.046-5.805 12.69 12.69 0 017.479-1.826 4.946 4.946 0 002.897-.672l1.973 8.059c-1.689.617-3.529.89-5.428.761a4.515 4.515 0 00-2.666.662 4.491 4.491 0 00-1.798 2.063 13.029 13.029 0 01-5.239 6.037 13.05 13.05 0 01-7.8 1.832 4.527 4.527 0 00-2.574.57 4.522 4.522 0 00-1.808 1.901 13.063 13.063 0 01-6.512 6.121 13.014 13.014 0 01-7.332.865" fill="#eb9238"/><path d="M155.757 105.91a4.087 4.087 0 10-2.352 7.826l3.063.918a13.045 13.045 0 0015.44-6.613 4.53 4.53 0 011.808-1.9 4.539 4.539 0 012.575-.571 13.047 13.047 0 007.799-1.83 13.03 13.03 0 005.24-6.039 4.502 4.502 0 011.797-2.062 4.531 4.531 0 012.666-.662 13.07 13.07 0 008.366-2.282 13.036 13.036 0 005.077-7.015l.963-3.213a4.086 4.086 0 10-7.827-2.352l-.964 3.213c-.339 1.131-1.02 2.053-1.902 2.664-.878.608-1.979.918-3.154.838a12.696 12.696 0 00-7.48 1.824 12.652 12.652 0 00-5.045 5.805c-.438 1.016-1.128 1.807-1.964 2.314-.833.504-1.85.743-2.945.659a12.633 12.633 0 00-7.186 1.591 12.687 12.687 0 00-5.114 5.307c-.551 1.086-1.423 1.889-2.439 2.324-1.02.438-2.2.522-3.359.172z" fill="#ffebd6"/><path d="M155.564 109.68l3.063.918a7.325 7.325 0 005.007-.268c1.588-.682 2.863-1.914 3.642-3.453a10.285 10.285 0 014.142-4.289 10.258 10.258 0 015.813-1.293c1.532.119 3.064-.201 4.384-.998 1.318-.797 2.328-2.018 2.933-3.428a10.255 10.255 0 014.085-4.695 10.298 10.298 0 016.054-1.479c1.665.118 3.321-.308 4.697-1.259 1.378-.956 2.362-2.356 2.844-3.959l.961-3.213a1.675 1.675 0 012.078-1.118 1.677 1.677 0 011.118 2.081l-.964 3.214a10.616 10.616 0 01-4.136 5.721 10.64 10.64 0 01-6.823 1.856 6.96 6.96 0 00-4.092 1.011 6.945 6.945 0 00-2.76 3.17 10.645 10.645 0 01-4.268 4.926 10.674 10.674 0 01-6.363 1.49 6.937 6.937 0 00-3.945.873 6.97 6.97 0 00-2.781 2.914 10.642 10.642 0 01-5.309 4.993 10.638 10.638 0 01-7.28.398l-3.063-.918a1.67 1.67 0 01-1.116-2.076 1.674 1.674 0 012.079-1.119" fill="#fff"/><path d="M265.247 105.91a4.088 4.088 0 015.091 2.736 4.087 4.087 0 01-2.738 5.09l-3.062.918a13.048 13.048 0 01-15.441-6.613 4.516 4.516 0 00-4.382-2.471 13.061 13.061 0 01-7.8-1.83 13.038 13.038 0 01-5.241-6.039 4.494 4.494 0 00-1.796-2.062 4.53 4.53 0 00-2.667-.662 13.061 13.061 0 01-8.365-2.282 13.036 13.036 0 01-5.077-7.015l-.963-3.213a4.087 4.087 0 017.827-2.352l.963 3.213c.34 1.131 1.022 2.053 1.903 2.664.878.608 1.979.92 3.154.838a12.676 12.676 0 017.479 1.826 12.641 12.641 0 015.047 5.803c.436 1.016 1.127 1.807 1.963 2.314.834.502 1.849.743 2.944.659a12.617 12.617 0 017.186 1.593 12.666 12.666 0 015.115 5.305c.551 1.088 1.424 1.889 2.44 2.324a4.906 4.906 0 003.359.174z" fill="#ffebd6"/><path d="M265.439 109.68l-3.061.918a7.328 7.328 0 01-5.008-.268c-1.588-.682-2.862-1.914-3.641-3.453a10.29 10.29 0 00-4.142-4.291 10.273 10.273 0 00-5.814-1.291c-1.531.119-3.065-.201-4.382-.998-1.319-.797-2.328-2.018-2.935-3.426a10.242 10.242 0 00-4.084-4.697 10.298 10.298 0 00-6.052-1.479c-1.667.118-3.322-.308-4.699-1.259-1.378-.956-2.362-2.356-2.843-3.959l-.964-3.213a1.672 1.672 0 00-2.076-1.118 1.676 1.676 0 00-1.118 2.081l.963 3.214a10.633 10.633 0 004.137 5.721 10.638 10.638 0 006.822 1.856 6.954 6.954 0 014.092 1.011 6.936 6.936 0 012.761 3.17 10.639 10.639 0 004.268 4.926 10.67 10.67 0 006.362 1.49 6.947 6.947 0 013.947.873 6.956 6.956 0 012.78 2.914 10.638 10.638 0 005.309 4.993 10.638 10.638 0 007.28.398l3.062-.918a1.67 1.67 0 001.117-2.076 1.675 1.675 0 00-2.081-1.119" fill="#fff"/><path d="M186.807 307.208c3.639 0 6.607 2.967 6.607 6.606 0 3.641-2.968 6.608-6.607 6.608-3.64 0-6.608-2.967-6.608-6.608 0-3.639 2.968-6.606 6.608-6.606" fill="#eb9238"/><path d="M185.662 308.301c3.381 0 6.139 2.757 6.139 6.138s-2.758 6.139-6.139 6.139c-3.381 0-6.138-2.758-6.138-6.139 0-3.381 2.757-6.138 6.138-6.138" fill="#57310b"/><path d="M184.206 311.532a3.904 3.904 0 013.896 3.896 3.904 3.904 0 01-3.896 3.895 3.904 3.904 0 01-3.896-3.895 3.904 3.904 0 013.896-3.896" fill="#6b3f12"/><path d="M183.659 313.558a2.473 2.473 0 012.468 2.468 2.473 2.473 0 01-2.468 2.469 2.474 2.474 0 01-2.469-2.469 2.473 2.473 0 012.469-2.468" fill="#805020"/><path d="M187.301 316.183c.573 0 1.041.467 1.041 1.041 0 .572-.468 1.04-1.041 1.04a1.044 1.044 0 01-1.041-1.04c0-.574.469-1.041 1.041-1.041M186.995 313.283a.97.97 0 01.968.968.97.97 0 01-.968.969.97.97 0 01-.969-.969.97.97 0 01.969-.968" fill="#dba772"/><path d="M228.046 307.208c3.64 0 6.606 2.967 6.606 6.606 0 3.641-2.966 6.608-6.606 6.608-3.639 0-6.608-2.967-6.608-6.608 0-3.639 2.969-6.606 6.608-6.606" fill="#eb9238"/><path d="M226.901 308.301c3.38 0 6.139 2.757 6.139 6.138s-2.759 6.139-6.139 6.139c-3.38 0-6.138-2.758-6.138-6.139 0-3.381 2.758-6.138 6.138-6.138" fill="#57310b"/><path d="M225.444 311.532a3.903 3.903 0 013.896 3.896 3.902 3.902 0 01-3.896 3.895 3.904 3.904 0 01-3.896-3.895 3.904 3.904 0 013.896-3.896" fill="#6b3f12"/><path d="M224.897 313.558a2.473 2.473 0 012.469 2.468 2.473 2.473 0 01-2.469 2.469 2.473 2.473 0 01-2.468-2.469 2.473 2.473 0 012.468-2.468" fill="#805020"/><path d="M228.539 316.183c.574 0 1.041.467 1.041 1.041 0 .572-.467 1.04-1.041 1.04-.571 0-1.04-.468-1.04-1.04 0-.574.469-1.041 1.04-1.041M228.233 313.283a.97.97 0 01.969.968.969.969 0 11-.969-.968" fill="#dba772"/><path d="M207.292 203.483c3.64 0 6.608 2.971 6.608 6.61 0 3.638-2.968 6.607-6.608 6.607-3.639 0-6.606-2.969-6.606-6.607 0-3.639 2.967-6.61 6.606-6.61" fill="#eb9238"/><path d="M206.148 204.578c3.381 0 6.139 2.757 6.139 6.138 0 3.382-2.758 6.138-6.139 6.138-3.38 0-6.138-2.756-6.138-6.138 0-3.381 2.758-6.138 6.138-6.138" fill="#57310b"/><path d="M204.691 207.808a3.904 3.904 0 013.896 3.897 3.904 3.904 0 01-3.896 3.896 3.904 3.904 0 01-3.895-3.896 3.904 3.904 0 013.895-3.897" fill="#6b3f12"/><path d="M204.146 209.835a2.472 2.472 0 012.467 2.468 2.472 2.472 0 01-2.467 2.468 2.472 2.472 0 01-2.469-2.468 2.472 2.472 0 012.469-2.468" fill="#805020"/><path d="M207.787 212.46c.573 0 1.04.468 1.04 1.04 0 .573-.467 1.041-1.04 1.041a1.043 1.043 0 01-1.041-1.041c0-.572.468-1.04 1.041-1.04M207.48 209.56a.97.97 0 01.969.968.97.97 0 01-.969.969.97.97 0 01-.968-.969.97.97 0 01.968-.968" fill="#dba772"/><path d="M207.292 189.025a6.607 6.607 0 10.002-13.214 6.607 6.607 0 00-.002 13.214" fill="#eb9238"/><path d="M206.148 189.182a6.139 6.139 0 100-12.278 6.139 6.139 0 000 12.278" fill="#57310b"/><path d="M204.691 187.928a3.897 3.897 0 000-7.793 3.897 3.897 0 000 7.793" fill="#6b3f12"/><path d="M204.146 187.098a2.468 2.468 0 10-.002-4.936 2.468 2.468 0 00.002 4.936" fill="#805020"/><path d="M207.787 186.867a1.04 1.04 0 100-2.08 1.04 1.04 0 000 2.08M207.48 183.823a.968.968 0 10.002-1.936.968.968 0 00-.002 1.936" fill="#dba772"/><path d="M207.292 148.139c3.64 0 6.608 2.966 6.608 6.605 0 3.641-2.968 6.61-6.608 6.61-3.639 0-6.606-2.969-6.606-6.61 0-3.639 2.967-6.605 6.606-6.605" fill="#eb9238"/><path d="M206.148 149.23c3.381 0 6.139 2.758 6.139 6.139 0 3.381-2.758 6.139-6.139 6.139-3.38 0-6.138-2.758-6.138-6.139 0-3.381 2.758-6.139 6.138-6.139" fill="#57310b"/><path d="M204.691 152.463a3.903 3.903 0 013.896 3.894 3.904 3.904 0 01-3.896 3.897 3.903 3.903 0 01-3.895-3.897 3.903 3.903 0 013.895-3.894" fill="#6b3f12"/><path d="M204.146 154.488a2.474 2.474 0 012.467 2.469 2.474 2.474 0 01-2.467 2.469 2.474 2.474 0 01-2.469-2.469 2.474 2.474 0 012.469-2.469" fill="#805020"/><path d="M207.787 157.113c.573 0 1.04.469 1.04 1.039a1.041 1.041 0 01-2.081 0c0-.57.468-1.039 1.041-1.039M207.48 154.213a.97.97 0 01.969.969.97.97 0 01-.969.968.97.97 0 01-.968-.968.97.97 0 01.968-.969" fill="#dba772"/><path d="M186.72 277.388a4.453 4.453 0 103.842 8.034c5.616-2.688 11.1-3.997 16.454-3.98 5.309.016 10.56 1.349 15.752 3.945a4.452 4.452 0 003.983-7.964c-6.433-3.215-13.01-4.866-19.735-4.888-6.682-.021-13.448 1.576-20.296 4.853" fill="#eb9238"/><path d="M185.942 279.447a4.453 4.453 0 003.841 8.034c5.617-2.688 11.101-3.997 16.454-3.98 5.311.017 10.563 1.35 15.753 3.945a4.453 4.453 0 003.983-7.963c-6.432-3.217-13.009-4.868-19.736-4.889-6.681-.021-13.446 1.576-20.295 4.853" fill="#ffebd6"/><path d="M186.674 283.205c6.059-2.899 12.507-4.639 19.252-4.617 6.567.021 12.804 1.702 18.668 4.634a2.05 2.05 0 01.916 2.748 2.05 2.05 0 01-2.75.916c-5.273-2.636-10.906-4.179-16.82-4.198-6.124-.02-11.999 1.583-17.499 4.215a2.048 2.048 0 11-1.767-3.698" fill="#fff"/><path d="M175.75 262.274c6.504 0 17.762-4.251 21.882-10.126 1.593 4.54 5.916 7.795 10.999 7.795 5.24 0 9.673-3.459 11.139-8.218 3.862 6.093 15.507 10.549 22.166 10.549 8.068 0 5.765-6.541 5.765-14.608 0-8.069 2.303-14.609-5.765-14.609-6.826 0-18.888 4.681-22.441 11.008-1.691-4.348-5.918-7.43-10.864-7.43-4.784 0-8.896 2.884-10.69 7.009-3.838-6.113-15.517-10.587-22.191-10.587-8.068 0-5.764 6.54-5.764 14.609 0 8.067-2.304 14.608 5.764 14.608" fill="#eb9238"/><path d="M174.398 265.188c6.504 0 17.76-4.251 21.882-10.126 1.593 4.54 5.914 7.794 10.998 7.794 5.242 0 9.673-3.459 11.139-8.218 3.862 6.093 15.507 10.55 22.167 10.55 8.068 0 5.764-6.541 5.764-14.61 0-8.068 2.304-14.608-5.764-14.608-6.826 0-18.89 4.681-22.441 11.009-1.692-4.348-5.918-7.43-10.865-7.43-4.785 0-8.894 2.883-10.689 7.007-3.839-6.111-15.518-10.586-22.191-10.586-8.068 0-5.764 6.54-5.764 14.608 0 8.069-2.304 14.61 5.764 14.61" fill="#c30"/><path d="M194.417 252.791l-1.706 2.432c-3.348 4.772-13.465 8.702-19.145 8.702-.462 0-1.945-.051-2.284-.486-.447-.576-.448-2.485-.439-3.171.035-2.538.302-5.056.302-7.609 0-2.552-.267-5.07-.302-7.608-.009-.686-.008-2.595.439-3.171.339-.435 1.822-.485 2.284-.485 5.679 0 16.235 4.046 19.359 9.021zm20.825.175l-.852 2.768a8.312 8.312 0 01-15.786.302l-1.082-3.078 1.3-2.986a8.313 8.313 0 0115.372.299zm3.81-.178l1.174-2.091c2.894-5.154 13.863-9.302 19.526-9.302.461 0 1.945.05 2.283.485.447.576.448 2.485.439 3.171-.036 2.538-.302 5.056-.302 7.608 0 2.553.266 5.071.302 7.609.009.686.008 2.595-.439 3.171-.338.435-1.822.486-2.283.486-5.701 0-16.208-4.051-19.343-8.996z" fill="#eb4e1a"/><path d="M185.719 255.481c-2.184 2.274-7.208 4.402-11.021 5.261.09-1.747.215-3.492.215-5.248 0-1.753-.124-3.494-.214-5.238 3.789.864 8.882 2.973 11.02 5.225m21.728.534l-.276.9a2.698 2.698 0 01-5.118.094l-.349-.997.419-.964a2.696 2.696 0 014.985.095zm16.443-.521c1.444-1.473 4.386-2.947 5.859-3.573 1.423-.604 3.334-1.278 5.17-1.689-.091 1.751-.215 3.501-.215 5.262 0 1.752.124 3.493.214 5.237-3.797-.864-8.894-2.98-11.028-5.237" fill="#f56231"/></g></svg>