<svg xmlns="http://www.w3.org/2000/svg" width="137.235" height="136.737" viewBox="0 0 175.661 175.023" xmlns:v="https://vecta.io/nano"><path d="M175.661 116.58c0 9.793-3.46 19.194-9.753 26.622-3.89 18.51-20.23 31.821-39.268 31.821H56.918C25.527 175.023 0 149.496 0 118.105c0-9.206 2.248-18.139 6.372-26.114s10.105-14.972 17.631-20.308c.684-.469 1.486-.762 2.385-.762 2.267 0 4.105 1.837 4.105 4.105 0 10.829 8.796 19.644 19.624 19.683h68.919L91.397 67.07c-7.388-7.388-11.454-17.181-11.454-27.619C79.943 18.009 97.3.555 118.703.379c2.443-.332 16.946-1.916 25.605 5.277.215.176 10.829 10.086 11.161 10.399 3.792 3.792 5.883 8.835 5.883 14.21a20 20 0 0 1-.743 5.414l9.03 13.585a8.33 8.33 0 0 1-.332 11.415c-1.583 1.564-3.655 2.443-5.883 2.443-2.072 0-4.007-.743-5.532-2.111l-16.086-10.692c-5.317.137-10.692-1.798-14.757-5.864l-6.607-6.607c-.43-.43-.997-.665-1.603-.665-1.173 0-2.131.86-2.248 2.013-.02.098-.02.176-.02.235 0 .821.391 1.368.704 1.701l46.715 46.715a3.19 3.19 0 0 1 .332.391c7.31 7.682 11.337 17.709 11.337 28.342z" fill="#633"/><path d="M167.432 116.58a32.8 32.8 0 0 1-8.424 21.989 4.17 4.17 0 0 0-.997 2.013c-2.756 15.187-15.95 26.192-31.391 26.192H56.918c-26.837 0-48.689-21.833-48.689-48.689 0-13.409 5.551-26.153 15.148-35.281 3.323 11.415 13.76 19.82 26.153 20.093.098 0 .195.019.293.019h79.123c1.055 0 2.111-.41 2.912-1.212a4.13 4.13 0 0 0 0-5.825L97.203 61.265a30.63 30.63 0 0 1-9.03-21.813c0-17.005 13.839-30.844 30.844-30.844.215 0 4.007-.547 8.131-.313 3.636.195 8.678.997 11.923 3.714.059.059 10.399 9.675 10.574 9.871 2.248 2.248 3.479 5.219 3.479 8.385 0 .977-.117 1.916-.332 2.834l-8.053-8.053a4.13 4.13 0 0 0-5.825 0 4.13 4.13 0 0 0 0 5.825l9.128 9.128c-4.613 3.225-11.044 2.776-15.148-1.349l-6.626-6.607c-1.974-1.974-4.613-3.069-7.408-3.069-5.395 0-9.89 4.046-10.418 9.402a10.18 10.18 0 0 0-.059 1.075c0 3.831 1.955 6.352 3.127 7.506l45.992 46.011a3.92 3.92 0 0 0 .274.313c6.216 6.216 9.656 14.503 9.656 23.299z" fill="#fff"/><path d="M162.975 54.111c.156.235.332.45.508.625-.02 0-11.493-7.525-11.493-7.525 1.231-.782 2.385-1.681 3.46-2.756a21.96 21.96 0 0 0 .645-.684z" fill="#fc6"/><path d="M142.276 130.771c2.267 0 4.105 1.837 4.105 4.105 0 13.526-11.004 24.53-24.53 24.53H86.1c-23.631 0-42.845-19.214-42.845-42.845v-2.091c0-2.267 1.837-4.105 4.105-4.105h60.984c2.267 0 4.105 1.837 4.105 4.105s-1.837 4.105-4.105 4.105H51.543c1.055 18.158 16.145 32.603 34.557 32.603h35.75a16.32 16.32 0 0 0 16.301-16.301c0-2.267 1.837-4.105 4.124-4.105z" fill="#633"/></svg>