<?xml version="1.0" encoding="UTF-8" standalone="no"?>
<!-- Created with Inkscape (http://www.inkscape.org/) -->

<svg
   id="svg2"
   sodipodi:docname="nicubunu_Game_baddie_Girl.svg"
   inkscape:export-filename="/home/nicu/Desktop/pacman/pacman.png"
   viewBox="0 0 120.66969 114.14883"
   sodipodi:version="0.32"
   inkscape:export-xdpi="90"
   version="1.0"
   inkscape:output_extension="org.inkscape.output.svg.inkscape"
   inkscape:export-ydpi="90"
   inkscape:version="1.2.2 (732a01da63, 2022-12-09)"
   width="120.66969"
   height="114.14883"
   xmlns:inkscape="http://www.inkscape.org/namespaces/inkscape"
   xmlns:sodipodi="http://sodipodi.sourceforge.net/DTD/sodipodi-0.dtd"
   xmlns:xlink="http://www.w3.org/1999/xlink"
   xmlns="http://www.w3.org/2000/svg"
   xmlns:svg="http://www.w3.org/2000/svg"
   xmlns:rdf="http://www.w3.org/1999/02/22-rdf-syntax-ns#"
   xmlns:cc="http://creativecommons.org/ns#"
   xmlns:dc="http://purl.org/dc/elements/1.1/">
  <defs
     id="defs4">
    <linearGradient
       id="linearGradient2315">
      <stop
         id="stop2317"
         style="stop-color:#000000;stop-opacity:0"
         offset="0" />
      <stop
         id="stop2319"
         style="stop-color:#000000;stop-opacity:.57196"
         offset="1" />
    </linearGradient>
    <filter
       id="filter3730"
       height="1.6816748"
       width="1.6960537"
       y="-0.34083741"
       x="-0.34802687"
       inkscape:collect="always">
      <feGaussianBlur
         id="feGaussianBlur3732"
         stdDeviation="5.4650567"
         inkscape:collect="always" />
    </filter>
    <filter
       id="filter4065"
       height="1.7379839"
       width="2.811415"
       y="-0.36899194"
       x="-0.90570748"
       inkscape:collect="always">
      <feGaussianBlur
         id="feGaussianBlur4067"
         stdDeviation="4.1511594"
         inkscape:collect="always" />
    </filter>
    <filter
       id="filter4112"
       height="1.6802"
       width="1.1400412"
       y="-0.34009998"
       x="-0.070020583"
       inkscape:collect="always">
      <feGaussianBlur
         id="feGaussianBlur4114"
         stdDeviation="3.9678331"
         inkscape:collect="always" />
    </filter>
    <radialGradient
       id="radialGradient4616"
       gradientUnits="userSpaceOnUse"
       cy="506.35001"
       cx="210.89"
       gradientTransform="matrix(1.4028,1.6439e-6,-1.4521e-7,0.20588,-89.845,403.11)"
       r="68"
       inkscape:collect="always">
      <stop
         id="stop4074"
         style="stop-color:#000000"
         offset="0" />
      <stop
         id="stop4076"
         style="stop-color:#000000;stop-opacity:0"
         offset="1" />
    </radialGradient>
    <radialGradient
       id="radialGradient4618"
       xlink:href="#linearGradient2315"
       gradientUnits="userSpaceOnUse"
       cy="458.26999"
       cx="85.914001"
       gradientTransform="matrix(0.53827,1.5836,-2.1115,0.7177,1003.6,-8.43)"
       r="23.445"
       inkscape:collect="always" />
    <radialGradient
       id="radialGradient4626"
       xlink:href="#linearGradient2315"
       gradientUnits="userSpaceOnUse"
       cy="409.85999"
       cx="233.5"
       gradientTransform="matrix(0.3871,1.5161,-1.4234,0.36342,726.51,-93.107)"
       r="15.5"
       inkscape:collect="always" />
    <radialGradient
       id="radialGradient4639"
       xlink:href="#linearGradient2315"
       gradientUnits="userSpaceOnUse"
       cy="469.07001"
       cx="236.47"
       gradientTransform="matrix(1.4254,-0.11753,0.038397,0.46571,-28.241,25.037)"
       r="13.809"
       inkscape:collect="always" />
    <radialGradient
       id="radialGradient4662"
       xlink:href="#linearGradient2315"
       gradientUnits="userSpaceOnUse"
       cy="497.95999"
       cx="216.99001"
       gradientTransform="matrix(0.51027,1.0072,-0.96511,0.48897,665.78,-290.53)"
       r="65"
       inkscape:collect="always" />
    <filter
       id="filter4705"
       inkscape:collect="always"
       x="-0.062065263"
       y="-0.058073317"
       width="1.1241305"
       height="1.1161466">
      <feGaussianBlur
         id="feGaussianBlur4707"
         stdDeviation="0.31601563"
         inkscape:collect="always" />
    </filter>
    <radialGradient
       inkscape:collect="always"
       xlink:href="#linearGradient2315"
       id="radialGradient1441"
       gradientUnits="userSpaceOnUse"
       gradientTransform="matrix(0.53827,1.5836,-2.1115,0.7177,1003.6,-8.43)"
       cx="85.914001"
       cy="458.26999"
       r="23.445" />
    <radialGradient
       inkscape:collect="always"
       xlink:href="#linearGradient2315"
       id="radialGradient1443"
       gradientUnits="userSpaceOnUse"
       gradientTransform="matrix(0.53827,1.5836,-2.1115,0.7177,1003.6,-8.43)"
       cx="85.914001"
       cy="458.26999"
       r="23.445" />
    <radialGradient
       inkscape:collect="always"
       xlink:href="#linearGradient2315"
       id="radialGradient1445"
       gradientUnits="userSpaceOnUse"
       gradientTransform="matrix(0.53827,1.5836,-2.1115,0.7177,1003.6,-8.43)"
       cx="85.914001"
       cy="458.26999"
       r="23.445" />
    <radialGradient
       inkscape:collect="always"
       xlink:href="#linearGradient2315"
       id="radialGradient1447"
       gradientUnits="userSpaceOnUse"
       gradientTransform="matrix(0.3871,1.5161,-1.4234,0.36342,726.51,-93.107)"
       cx="233.5"
       cy="409.85999"
       r="15.5" />
    <radialGradient
       inkscape:collect="always"
       xlink:href="#linearGradient2315"
       id="radialGradient1449"
       gradientUnits="userSpaceOnUse"
       gradientTransform="matrix(0.53827,1.5836,-2.1115,0.7177,1003.6,-8.43)"
       cx="85.914001"
       cy="458.26999"
       r="23.445" />
    <radialGradient
       inkscape:collect="always"
       xlink:href="#linearGradient2315"
       id="radialGradient1451"
       gradientUnits="userSpaceOnUse"
       gradientTransform="matrix(0.53827,1.5836,-2.1115,0.7177,1003.6,-8.43)"
       cx="85.914001"
       cy="458.26999"
       r="23.445" />
  </defs>
  <sodipodi:namedview
     id="base"
     inkscape:zoom="0.721875"
     height="640px"
     borderopacity="1.0"
     inkscape:current-layer="layer1"
     inkscape:cx="249.35065"
     inkscape:cy="-138.52814"
     showgrid="false"
     width="128px"
     inkscape:guide-bbox="true"
     showguides="true"
     bordercolor="#666666"
     inkscape:window-x="1912"
     guidetolerance="10"
     objecttolerance="10"
     inkscape:window-y="-8"
     inkscape:window-width="1920"
     inkscape:pageopacity="0.0"
     inkscape:pageshadow="2"
     pagecolor="#ffffff"
     gridtolerance="10000"
     inkscape:document-units="px"
     inkscape:window-height="1017"
     inkscape:showpageshadow="2"
     inkscape:pagecheckerboard="0"
     inkscape:deskcolor="#d1d1d1"
     inkscape:window-maximized="1">
    <inkscape:grid
       id="grid3194"
       originy="-15.672482"
       originx="-7.2610328"
       spacingy="1"
       spacingx="1"
       type="xygrid" />
  </sodipodi:namedview>
  <g
     id="layer1"
     inkscape:label="Layer 1"
     inkscape:groupmode="layer"
     transform="translate(-240.68103,-27.407482)">
    <g
       id="g4713"
       transform="translate(-9.4823,-115.61)">
      <path
         id="path3698"
         style="fill:url(#radialGradient4616);filter:url(#filter4112)"
         transform="matrix(0.7548,0,0,0.61103,156.83,-67.219)"
         d="m 274,507.36 c 0,7.73 -30.46,14 -68,14 -37.54,0 -68,-6.27 -68,-14 0,-7.73 30.46,-14 68,-14 37.54,0 68,6.27 68,14 z" />
      <g
         id="g3779"
         transform="matrix(0.39176,0,0,0.39176,316.23,-14.988)">
        <circle
           id="path3781"
           style="fill:#80b0fa"
           transform="translate(-1.154e-8,-43.279)"
           cx="95.257401"
           cy="470.04587"
           r="23.444727" />
        <circle
           id="path3783"
           style="fill:url(#radialGradient1441)"
           transform="translate(-1.154e-8,-43.279)"
           cx="95.257401"
           cy="470.04587"
           r="23.444727" />
      </g>
      <g
         id="g3763"
         transform="matrix(0.51378,0,0,0.51378,297.76,-60.219)">
        <circle
           id="path3765"
           style="fill:#80b0fa"
           transform="translate(-1.154e-8,-43.279)"
           cx="95.257401"
           cy="470.04587"
           r="23.444727" />
        <circle
           id="path3767"
           style="fill:url(#radialGradient1443)"
           transform="translate(-1.154e-8,-43.279)"
           cx="95.257401"
           cy="470.04587"
           r="23.444727" />
      </g>
      <g
         id="g3747"
         transform="matrix(0.71287,0,0,0.71287,270.41,-135.39)">
        <circle
           id="path3749"
           style="fill:#80b0fa"
           transform="translate(-1.154e-8,-43.279)"
           cx="95.257401"
           cy="470.04587"
           r="23.444727" />
        <circle
           id="path3751"
           style="fill:url(#radialGradient1445)"
           transform="translate(-1.154e-8,-43.279)"
           cx="95.257401"
           cy="470.04587"
           r="23.444727" />
      </g>
      <path
         id="path3700"
         sodipodi:nodetypes="cccsssccssc"
         style="fill:#80b0fa"
         d="m 358.65,199.31 c 0,3.45 -0.37,26.78 -1.09,30.01 -1.76,8.89 -7.47,14 -16.05,15.95 -3.98,0.74 -8.52,-15.56 -13.44,-15.65 -4.91,-0.09 -10.22,16.03 -15.75,16.03 -5.56,0 -10.89,-16.13 -15.83,-16.06 -4.94,0.08 -9.48,16.36 -13.48,15.58 -9.04,-1.5 -13.77,-7.68 -16,-16.14 -0.67,-3.15 -1.03,-26.37 -1.03,-29.72 0,-25.58 20.76,-46.34 46.34,-46.34 25.58,0 46.33,20.76 46.33,46.34 z" />
      <path
         id="path4709"
         style="fill:#000000;fill-opacity:0.5354;fill-rule:evenodd;filter:url(#filter4705)"
         d="m 318.83,171.35 c -4.8,2.72 -7.67,6.01 -8.31,9.84 l 3.47,0.16 c 0.62,-3.72 0.8,-6.53 5.38,-9.13 z m 2.1,4.59 c -2.47,1.32 -5.19,3.88 -5.5,5.94 l 3.12,0.84 c 0.26,-1.7 0.76,-4.79 2.85,-5.9 z m 1.78,4.78 c -1.59,0.59 -2.84,1.61 -3.34,3.13 l 1.68,0.56 c 0.28,-1.32 0.57,-2.68 1.69,-3.28 z" />
      <path
         id="path3702"
         sodipodi:nodetypes="cccsssccssc"
         style="fill:url(#radialGradient4662)"
         d="m 358.65,199.31 c 0,3.45 -0.37,26.78 -1.09,30.01 -1.76,8.89 -7.47,14 -16.05,15.95 -3.98,0.74 -8.52,-15.56 -13.44,-15.65 -4.91,-0.09 -10.22,16.03 -15.75,16.03 -5.56,0 -10.89,-16.13 -15.83,-16.06 -4.94,0.08 -9.48,16.36 -13.48,15.58 -9.04,-1.5 -13.77,-7.68 -16,-16.14 -0.67,-3.15 -1.03,-26.37 -1.03,-29.72 0,-25.58 20.76,-46.34 46.34,-46.34 25.58,0 46.33,20.76 46.33,46.34 z" />
      <path
         id="path4691"
         style="fill:#000000;fill-opacity:0.5354;fill-rule:evenodd;filter:url(#filter4705)"
         d="m 348.08,171.35 c -4.8,2.72 -7.67,6.01 -8.31,9.84 l 3.47,0.16 c 0.62,-3.72 0.8,-6.53 5.38,-9.13 z m 2.1,4.59 c -2.47,1.32 -5.19,3.88 -5.5,5.94 l 3.12,0.84 c 0.26,-1.7 0.76,-4.79 2.85,-5.9 z m 1.78,4.78 c -1.59,0.59 -2.84,1.61 -3.34,3.13 l 1.68,0.56 c 0.28,-1.32 0.57,-2.68 1.69,-3.28 z" />
      <path
         id="path4576"
         d="m 113.25,158.91 c -4.8,2.72 -7.67,6.01 -8.31,9.84 l 3.47,0.16 c 0.62,-3.72 0.79,-6.53 5.37,-9.13 z m 2.09,4.59 c -2.46,1.31 -5.19,3.88 -5.5,5.94 l 3.13,0.84 c 0.25,-1.7 0.76,-4.79 2.84,-5.9 z m 1.78,4.78 c -1.59,0.58 -2.84,1.6 -3.34,3.13 l 1.69,0.56 c 0.28,-1.32 0.57,-2.68 1.69,-3.28 z"
         style="fill:#000000;fill-rule:evenodd"
         transform="translate(233.42,11.735)" />
      <g
         id="g3704"
         transform="matrix(0.71287,0,0,0.71287,166.89,-111.76)">
        <circle
           id="path3706"
           style="fill:#ffffff"
           transform="translate(4,7)"
           cx="239.5"
           cy="417.86218"
           r="15.5" />
        <circle
           id="path3708"
           style="fill:url(#radialGradient1447)"
           transform="translate(4,7)"
           cx="239.5"
           cy="417.86218"
           r="15.5" />
        <circle
           id="path3710"
           style="fill:#000000"
           transform="matrix(0.6129,0,0,0.6129,101.71,169.75)"
           cx="239.5"
           cy="417.86218"
           r="15.5" />
      </g>
      <path
         id="path4711"
         style="fill:#000000;fill-rule:evenodd"
         d="m 317.42,170.64 c -4.8,2.73 -7.67,6.01 -8.31,9.84 l 3.47,0.16 c 0.62,-3.72 0.79,-6.53 5.37,-9.12 z m 2.09,4.59 c -2.46,1.32 -5.19,3.88 -5.5,5.94 l 3.13,0.85 c 0.25,-1.7 0.76,-4.8 2.84,-5.91 z m 1.79,4.79 c -1.6,0.58 -2.85,1.6 -3.35,3.12 l 1.69,0.56 c 0.28,-1.32 0.57,-2.68 1.69,-3.28 z" />
      <g
         id="g3712"
         transform="matrix(0.71287,0,0,0.71287,138.38,-111.76)">
        <circle
           id="path3714"
           style="fill:#ffffff"
           transform="translate(4,7)"
           cx="239.5"
           cy="417.86218"
           r="15.5" />
        <circle
           id="path3716"
           style="fill:url(#radialGradient4626)"
           transform="translate(4,7)"
           cx="239.5"
           cy="417.86218"
           r="15.5" />
        <circle
           id="path3718"
           style="fill:#000000"
           transform="matrix(0.6129,0,0,0.6129,101.71,169.75)"
           cx="239.5"
           cy="417.86218"
           r="15.5" />
      </g>
      <path
         id="path3720"
         style="fill:#ffffff;fill-opacity:0.62745;filter:url(#filter3730)"
         transform="matrix(0.71287,0,0,0.71287,163.33,-118.89)"
         d="m 180.01,413.25 c -10.03,10.27 -20.41,16.42 -23.17,13.72 -2.77,-2.7 3.13,-13.23 13.15,-23.5 10.03,-10.27 20.41,-16.41 23.17,-13.71 2.77,2.7 -3.13,13.22 -13.15,23.49 z" />
      <path
         id="path3722"
         style="fill:#ffffff;fill-opacity:0.43439;filter:url(#filter4065)"
         transform="matrix(0.5498,0.45375,-0.45375,0.5498,433.59,-157.72)"
         d="m 262,501.86 c 0,7.45 -2.46,13.5 -5.5,13.5 -3.04,0 -5.5,-6.05 -5.5,-13.5 0,-7.45 2.46,-13.5 5.5,-13.5 3.04,0 5.5,6.05 5.5,13.5 z" />
      <g
         id="g3741"
         transform="matrix(0.71287,0,0,0.71287,211.81,-129.73)">
        <circle
           id="path3735"
           style="fill:#80b0fa"
           transform="translate(-1.154e-8,-43.279)"
           cx="95.257401"
           cy="470.04587"
           r="23.444727" />
        <circle
           id="path3737"
           style="fill:url(#radialGradient1449)"
           transform="translate(-1.154e-8,-43.279)"
           cx="95.257401"
           cy="470.04587"
           r="23.444727" />
      </g>
      <g
         id="g3755"
         transform="matrix(0.51378,0,0,0.51378,219.18,-53.051)">
        <circle
           id="path3757"
           style="fill:#80b0fa"
           transform="translate(-1.154e-8,-43.279)"
           cx="95.257401"
           cy="470.04587"
           r="23.444727" />
        <circle
           id="path3759"
           style="fill:url(#radialGradient1451)"
           transform="translate(-1.154e-8,-43.279)"
           cx="95.257401"
           cy="470.04587"
           r="23.444727" />
      </g>
      <g
         id="g3771"
         transform="matrix(0.39176,0,0,0.39176,222.03,-7.3035)">
        <circle
           id="path3773"
           style="fill:#80b0fa"
           transform="translate(-1.154e-8,-43.279)"
           cx="95.257401"
           cy="470.04587"
           r="23.444727" />
        <circle
           id="path3775"
           style="fill:url(#radialGradient4618)"
           transform="translate(-1.154e-8,-43.279)"
           cx="95.257401"
           cy="470.04587"
           r="23.444727" />
      </g>
      <path
         id="path3789"
         sodipodi:nodetypes="cccc"
         style="fill:#ff0000;fill-rule:evenodd"
         d="m 317.17,215.58 c 4.24,-2.46 10.97,-6 14.58,-0.99 2.36,-5.22 6.58,-3.12 11.13,-0.33 -2.85,4.77 -13.22,9.45 -25.71,1.32 z" />
      <path
         id="path3791"
         sodipodi:nodetypes="cccc"
         style="fill:url(#radialGradient4639);fill-rule:evenodd"
         d="m 317.17,215.58 c 4.24,-2.46 10.97,-6 14.58,-0.99 2.36,-5.22 6.58,-3.12 11.13,-0.33 -2.85,4.77 -13.22,9.45 -25.71,1.32 z" />
    </g>
  </g>
  <metadata
     id="metadata418">
    <rdf:RDF>
      <cc:Work>
        <dc:format>image/svg+xml</dc:format>
        <dc:type
           rdf:resource="http://purl.org/dc/dcmitype/StillImage" />
        <cc:license
           rdf:resource="http://creativecommons.org/licenses/publicdomain/" />
        <dc:publisher>
          <cc:Agent
             rdf:about="http://openclipart.org/">
            <dc:title>Openclipart</dc:title>
          </cc:Agent>
        </dc:publisher>
        <dc:title>Game baddie: Girl</dc:title>
        <dc:date>2008-02-04T15:06:34</dc:date>
        <dc:description>Bad guy for arcade games, inspired from the classic Pac-Man: a girl</dc:description>
        <dc:source>https://openclipart.org/detail/12564/game-baddie:-girl-by-nicubunu</dc:source>
        <dc:creator>
          <cc:Agent>
            <dc:title>nicubunu</dc:title>
          </cc:Agent>
        </dc:creator>
        <dc:subject>
          <rdf:Bag>
            <rdf:li>arcade</rdf:li>
            <rdf:li>baddie</rdf:li>
            <rdf:li>funny</rdf:li>
            <rdf:li>game</rdf:li>
          </rdf:Bag>
        </dc:subject>
      </cc:Work>
      <cc:License
         rdf:about="http://creativecommons.org/licenses/publicdomain/">
        <cc:permits
           rdf:resource="http://creativecommons.org/ns#Reproduction" />
        <cc:permits
           rdf:resource="http://creativecommons.org/ns#Distribution" />
        <cc:permits
           rdf:resource="http://creativecommons.org/ns#DerivativeWorks" />
      </cc:License>
    </rdf:RDF>
  </metadata>
</svg>
