<svg version="1.1" xmlns="http://www.w3.org/2000/svg" xmlns:xlink="http://www.w3.org/1999/xlink" width="113.48187" height="108.33012" viewBox="0,0,113.48187,108.33012"><defs><radialGradient cx="241.81415" cy="222.69987" r="72.00068" gradientUnits="userSpaceOnUse" id="color-1"><stop offset="0" stop-color="#000000"/><stop offset="1" stop-color="#000000" stop-opacity="0"/></radialGradient><radialGradient cx="277.93757" cy="126.81288" r="15.36233" gradientUnits="userSpaceOnUse" id="color-2"><stop offset="0" stop-color="#000000" stop-opacity="0"/><stop offset="1" stop-color="#000000" stop-opacity="0.57196"/></radialGradient><radialGradient cx="269.49857" cy="132.00601" r="20.14718" gradientUnits="userSpaceOnUse" id="color-3"><stop offset="0" stop-color="#000000" stop-opacity="0"/><stop offset="1" stop-color="#000000" stop-opacity="0.57196"/></radialGradient><radialGradient cx="258.51533" cy="139.10792" r="27.95422" gradientUnits="userSpaceOnUse" id="color-4"><stop offset="0" stop-color="#000000" stop-opacity="0"/><stop offset="1" stop-color="#000000" stop-opacity="0.57196"/></radialGradient><radialGradient cx="225.41915" cy="151.41794" r="73.39036" gradientUnits="userSpaceOnUse" id="color-5"><stop offset="0" stop-color="#000000" stop-opacity="0"/><stop offset="1" stop-color="#000000" stop-opacity="0.57196"/></radialGradient><radialGradient cx="265.70069" cy="165.31058" r="17.28955" gradientUnits="userSpaceOnUse" id="color-6"><stop offset="0" stop-color="#000000" stop-opacity="0"/><stop offset="1" stop-color="#000000" stop-opacity="0.57196"/></radialGradient><radialGradient cx="237.19069" cy="165.31058" r="17.28955" gradientUnits="userSpaceOnUse" id="color-7"><stop offset="0" stop-color="#000000" stop-opacity="0"/><stop offset="1" stop-color="#000000" stop-opacity="0.57196"/></radialGradient><radialGradient cx="199.91533" cy="144.76791" r="27.95422" gradientUnits="userSpaceOnUse" id="color-8"><stop offset="0" stop-color="#000000" stop-opacity="0"/><stop offset="1" stop-color="#000000" stop-opacity="0.57196"/></radialGradient><radialGradient cx="190.91857" cy="139.17401" r="20.14718" gradientUnits="userSpaceOnUse" id="color-9"><stop offset="0" stop-color="#000000" stop-opacity="0"/><stop offset="1" stop-color="#000000" stop-opacity="0.57196"/></radialGradient><radialGradient cx="183.73757" cy="134.49738" r="15.36233" gradientUnits="userSpaceOnUse" id="color-10"><stop offset="0" stop-color="#000000" stop-opacity="0"/><stop offset="1" stop-color="#000000" stop-opacity="0.57196"/></radialGradient><radialGradient cx="256.33605" cy="195.60338" r="19.75014" gradientUnits="userSpaceOnUse" id="color-11"><stop offset="0" stop-color="#000000" stop-opacity="0"/><stop offset="1" stop-color="#000000" stop-opacity="0.57196"/></radialGradient></defs><g transform="translate(-179.66515,-122.92558)"><g data-paper-data="{&quot;isPaintingLayer&quot;:true}" stroke="none" stroke-width="1" stroke-linecap="butt" stroke-linejoin="miter" stroke-miterlimit="10" stroke-dasharray="" stroke-dashoffset="0" style="mix-blend-mode: normal"><path d="M293.14703,222.70129c0,4.72326 -22.99121,8.55442 -51.3264,8.55442c-28.33519,0 -51.3264,-3.83116 -51.3264,-8.55442c0,-4.72326 22.99121,-8.55442 51.3264,-8.55442c28.33519,0 51.3264,3.83116 51.3264,8.55442z" fill="url(#color-1)" fill-rule="nonzero"/><g fill-rule="nonzero"><path d="M273.86516,132.1103c0,-5.07258 4.11214,-9.18471 9.18471,-9.18471c5.07257,0 9.18471,4.11214 9.18471,9.18471c0,5.07258 -4.11213,9.1847 -9.18471,9.1847c-5.07257,0 -9.18471,-4.11213 -9.18471,-9.1847z" fill="#80b0fa"/><path d="M273.86516,132.1103c0,-5.07258 4.11214,-9.18471 9.18471,-9.18471c5.07257,0 9.18471,4.11214 9.18471,9.18471c0,5.07258 -4.11213,9.1847 -9.18471,9.1847c-5.07257,0 -9.18471,-4.11213 -9.18471,-9.1847z" fill="url(#color-2)"/></g><g fill-rule="nonzero"><path d="M264.15774,138.95339c0,-6.65251 5.39292,-12.04543 12.04543,-12.04543c6.65251,0 12.04543,5.39292 12.04543,12.04543c0,6.65251 -5.39292,12.04543 -12.04543,12.04543c-6.65251,0 -12.04543,-5.39292 -12.04543,-12.04543z" fill="#80b0fa"/><path d="M264.15774,138.95339c0,-6.65251 5.39292,-12.04543 12.04543,-12.04543c6.65251,0 12.04543,5.39292 12.04543,12.04543c0,6.65251 -5.39292,12.04543 -12.04543,12.04543c-6.65251,0 -12.04543,-5.39292 -12.04543,-12.04543z" fill="url(#color-3)"/></g><g fill-rule="nonzero"><path d="M251.10493,148.7474c0,-9.23036 7.48268,-16.71304 16.71304,-16.71304c9.23036,0 16.71304,7.48269 16.71304,16.71304c0,9.23036 -7.48268,16.71304 -16.71304,16.71304c-9.23036,0 -16.71304,-7.48268 -16.71304,-16.71304z" fill="#80b0fa"/><path d="M251.10493,148.7474c0,-9.23036 7.48268,-16.71304 16.71304,-16.71304c9.23036,0 16.71304,7.48269 16.71304,16.71304c0,9.23036 -7.48268,16.71304 -16.71304,16.71304c-9.23036,0 -16.71304,-7.48268 -16.71304,-16.71304z" fill="url(#color-4)"/></g><path d="M288.15182,179.21811c0,3.45 -0.37,26.78 -1.09,30.01c-1.76,8.89 -7.47,14 -16.05,15.95c-3.98,0.74 -8.52,-15.56 -13.44,-15.65c-4.91,-0.09 -10.22,16.03 -15.75,16.03c-5.56,0 -10.89,-16.13 -15.83,-16.06c-4.94,0.08 -9.48,16.36 -13.48,15.58c-9.04,-1.5 -13.77,-7.68 -16,-16.14c-0.67,-3.15 -1.03,-26.37 -1.03,-29.72c0,-25.58 20.76,-46.34 46.34,-46.34c25.58,0 46.33,20.76 46.33,46.34z" fill="#80b0fa" fill-rule="nonzero"/><path d="M248.87183,152.12811c-4.58,2.6 -4.76,5.41 -5.38,9.13l-3.47,-0.16c0.64,-3.83 3.51,-7.12 8.31,-9.84zM250.90183,156.72811c-2.09,1.11 -2.59,4.2 -2.85,5.9l-3.12,-0.84c0.31,-2.06 3.03,-4.62 5.5,-5.94zM252.24183,161.03811c-1.12,0.6 -1.41,1.96 -1.69,3.28l-1.68,-0.56c0.5,-1.52 1.75,-2.54 3.34,-3.13z" fill-opacity="0.5354" fill="#000000" fill-rule="evenodd"/><path d="M288.15182,179.21811c0,3.45 -0.37,26.78 -1.09,30.01c-1.76,8.89 -7.47,14 -16.05,15.95c-3.98,0.74 -8.52,-15.56 -13.44,-15.65c-4.91,-0.09 -10.22,16.03 -15.75,16.03c-5.56,0 -10.89,-16.13 -15.83,-16.06c-4.94,0.08 -9.48,16.36 -13.48,15.58c-9.04,-1.5 -13.77,-7.68 -16,-16.14c-0.67,-3.15 -1.03,-26.37 -1.03,-29.72c0,-25.58 20.76,-46.34 46.34,-46.34c25.58,0 46.33,20.76 46.33,46.34z" fill="url(#color-5)" fill-rule="nonzero"/><path d="M278.12183,152.12811c-4.58,2.6 -4.76,5.41 -5.38,9.13l-3.47,-0.16c0.64,-3.83 3.51,-7.12 8.31,-9.84zM280.15182,156.72811c-2.09,1.11 -2.59,4.2 -2.85,5.9l-3.12,-0.84c0.31,-2.06 3.03,-4.62 5.5,-5.94zM281.49183,161.03811c-1.12,0.6 -1.41,1.96 -1.69,3.28l-1.68,-0.56c0.5,-1.52 1.75,-2.54 3.34,-3.13z" fill-opacity="0.5354" fill="#000000" fill-rule="evenodd"/><path d="M276.70183,151.42311c-4.58,2.6 -4.75,5.41 -5.37,9.13l-3.47,-0.16c0.64,-3.83 3.51,-7.12 8.31,-9.84zM278.73183,156.0231c-2.08,1.11 -2.59,4.2 -2.84,5.9l-3.13,-0.84c0.31,-2.06 3.04,-4.63 5.5,-5.94zM280.08182,160.3331c-1.12,0.6 -1.41,1.96 -1.69,3.28l-1.69,-0.56c0.5,-1.53 1.75,-2.55 3.34,-3.13z" fill="#000000" fill-rule="evenodd"/><g fill-rule="nonzero"><path d="M258.92618,171.01961c0,-6.10246 4.94702,-11.04949 11.04949,-11.04949c6.10246,0 11.04949,4.94702 11.04949,11.04949c0,6.10246 -4.94702,11.04948 -11.04949,11.04948c-6.10246,0 -11.04949,-4.94702 -11.04949,-11.04948z" fill="#ffffff"/><path d="M258.92618,171.01961c0,-6.10246 4.94702,-11.04949 11.04949,-11.04949c6.10246,0 11.04949,4.94702 11.04949,11.04949c0,6.10246 -4.94702,11.04948 -11.04949,11.04948c-6.10246,0 -11.04949,-4.94702 -11.04949,-11.04948z" fill="url(#color-6)"/><path d="M266.76747,171.72931c0,-3.7402 3.03203,-6.77223 6.77223,-6.77223c3.7402,0 6.77222,3.03203 6.77222,6.77223c0,3.7402 -3.03202,6.77223 -6.77222,6.77223c-3.7402,0 -6.77223,-3.03203 -6.77223,-6.77223z" fill="#000000"/></g><path d="M247.45183,151.4281c-4.58,2.59 -4.75,5.4 -5.37,9.12l-3.47,-0.16c0.64,-3.83 3.51,-7.11 8.31,-9.84zM249.48183,156.01811c-2.08,1.11 -2.59,4.21 -2.84,5.91l-3.13,-0.85c0.31,-2.06 3.04,-4.62 5.5,-5.94zM250.83183,160.32811c-1.12,0.6 -1.41,1.96 -1.69,3.28l-1.69,-0.56c0.5,-1.52 1.75,-2.54 3.35,-3.12z" fill="#000000" fill-rule="evenodd"/><g fill-rule="nonzero"><path d="M230.41619,171.01961c0,-6.10246 4.94702,-11.04949 11.04948,-11.04949c6.10246,0 11.04949,4.94702 11.04949,11.04949c0,6.10246 -4.94702,11.04948 -11.04949,11.04948c-6.10246,0 -11.04948,-4.94702 -11.04948,-11.04948z" fill="#ffffff"/><path d="M230.41619,171.01961c0,-6.10246 4.94702,-11.04949 11.04948,-11.04949c6.10246,0 11.04949,4.94702 11.04949,11.04949c0,6.10246 -4.94702,11.04948 -11.04949,11.04948c-6.10246,0 -11.04948,-4.94702 -11.04948,-11.04948z" fill="url(#color-7)"/><path d="M238.25747,171.72931c0,-3.7402 3.03203,-6.77223 6.77223,-6.77223c3.7402,0 6.77223,3.03203 6.77223,6.77223c0,3.7402 -3.03203,6.77223 -6.77223,6.77223c-3.7402,0 -6.77223,-3.03203 -6.77223,-6.77223z" fill="#000000"/></g><path d="M221.15555,155.61163c-7.15008,7.32118 -14.54968,11.70533 -16.5172,9.78058c-1.97465,-1.92475 2.23129,-9.43127 9.37424,-16.75244c7.15008,-7.32118 14.54968,-11.6982 16.5172,-9.77345c1.97465,1.92475 -2.23129,9.42414 -9.37425,16.74532z" fill-opacity="0.62745" fill="#ffffff" fill-rule="nonzero"/><path d="M279.42045,216.99324c-3.38043,4.09601 -7.47814,6.30607 -9.14953,4.92667c-1.67139,-1.3794 -0.27871,-5.82191 3.10173,-9.91792c3.38043,-4.09601 7.47814,-6.30607 9.14952,-4.92667c1.67139,1.3794 0.27872,5.82191 -3.10172,9.91792z" fill-opacity="0.43439" fill="#ffffff" fill-rule="nonzero"/><g fill-rule="nonzero"><path d="M192.50493,154.40741c0,-9.23036 7.48268,-16.71305 16.71304,-16.71305c9.23036,0 16.71304,7.48269 16.71304,16.71305c0,9.23036 -7.48269,16.71304 -16.71304,16.71304c-9.23036,0 -16.71304,-7.48268 -16.71304,-16.71304z" fill="#80b0fa"/><path d="M192.50493,154.40741c0,-9.23036 7.48268,-16.71305 16.71304,-16.71305c9.23036,0 16.71304,7.48269 16.71304,16.71305c0,9.23036 -7.48269,16.71304 -16.71304,16.71304c-9.23036,0 -16.71304,-7.48268 -16.71304,-16.71304z" fill="url(#color-8)"/></g><g fill-rule="nonzero"><path d="M185.57774,146.12139c0,-6.65251 5.39292,-12.04543 12.04543,-12.04543c6.65251,0 12.04544,5.39292 12.04544,12.04543c0,6.65251 -5.39293,12.04543 -12.04544,12.04543c-6.65251,0 -12.04543,-5.39292 -12.04543,-12.04543z" fill="#80b0fa"/><path d="M185.57774,146.12139c0,-6.65251 5.39292,-12.04543 12.04543,-12.04543c6.65251,0 12.04544,5.39292 12.04544,12.04543c0,6.65251 -5.39293,12.04543 -12.04544,12.04543c-6.65251,0 -12.04543,-5.39292 -12.04543,-12.04543z" fill="url(#color-9)"/></g><g fill-rule="nonzero"><path d="M179.66516,139.7948c0,-5.07258 4.11213,-9.18471 9.18471,-9.18471c5.07258,0 9.18471,4.11213 9.18471,9.18471c0,5.07258 -4.11213,9.18471 -9.18471,9.18471c-5.07258,0 -9.18471,-4.11213 -9.18471,-9.18471z" fill="#80b0fa"/><path d="M179.66516,139.7948c0,-5.07258 4.11213,-9.18471 9.18471,-9.18471c5.07258,0 9.18471,4.11213 9.18471,9.18471c0,5.07258 -4.11213,9.18471 -9.18471,9.18471c-5.07258,0 -9.18471,-4.11213 -9.18471,-9.18471z" fill="url(#color-10)"/></g><path d="M246.67183,195.48811c4.24,-2.46 10.97,-6 14.58,-0.99c2.36,-5.22 6.58,-3.12 11.13,-0.33c-2.85,4.77 -13.22,9.45 -25.71,1.32z" fill="#ff0000" fill-rule="evenodd"/><path d="M246.67183,195.48811c4.24,-2.46 10.97,-6 14.58,-0.99c2.36,-5.22 6.58,-3.12 11.13,-0.33c-2.85,4.77 -13.22,9.45 -25.71,1.32z" fill="url(#color-11)" fill-rule="evenodd"/></g></g></svg>