<?xml version="1.0" encoding="UTF-8" standalone="no"?>
<!-- Uploaded to: SVG Repo, www.svgrepo.com, Generator: SVG Repo Mixer Tools -->

<svg
   width="140"
   height="101.1617"
   viewBox="0 0 179.2 129.48697"
   class="icon"
   version="1.1"
   id="svg322"
   sodipodi:docname="stadium-svgrepo-com.svg"
   inkscape:version="1.2.2 (732a01da63, 2022-12-09)"
   xmlns:inkscape="http://www.inkscape.org/namespaces/inkscape"
   xmlns:sodipodi="http://sodipodi.sourceforge.net/DTD/sodipodi-0.dtd"
   xmlns="http://www.w3.org/2000/svg"
   xmlns:svg="http://www.w3.org/2000/svg">
  <defs
     id="defs326" />
  <sodipodi:namedview
     id="namedview324"
     pagecolor="#ffffff"
     bordercolor="#000000"
     borderopacity="0.25"
     inkscape:showpageshadow="2"
     inkscape:pageopacity="0.0"
     inkscape:pagecheckerboard="0"
     inkscape:deskcolor="#d1d1d1"
     showgrid="false"
     inkscape:zoom="1.04625"
     inkscape:cx="347.9092"
     inkscape:cy="251.37395"
     inkscape:window-width="1920"
     inkscape:window-height="1017"
     inkscape:window-x="1912"
     inkscape:window-y="-8"
     inkscape:window-maximized="1"
     inkscape:current-layer="svg322" />
  <path
     d="M 52.16452,14.16641 23.891994,3.4763 v 21.38021 z"
     fill="#0071ce"
     id="path288"
     style="stroke-width:0.200942" />
  <path
     d="m 23.891994,3.4763 v 21.38021 l 8.178336,-3.0945 V 6.5708 Z"
     fill=""
     id="path290"
     style="stroke-width:0.200942" />
  <path
     d="m 23.891994,41.41413 c -1.587441,0 -2.87347,-1.28603 -2.87347,-2.87347 V 2.87347 C 21.018524,1.28603 22.304553,0 23.891994,0 c 1.587441,0 2.873469,1.28603 2.873469,2.87347 v 35.68728 c -0.02009,1.58744 -1.306122,2.85338 -2.873469,2.85338 z"
     fill="#333e48"
     id="path292"
     style="stroke-width:0.200942" />
  <path
     d="M 108.93061,14.16641 80.65808,3.4763 v 21.38021 z"
     fill="#ffb819"
     id="path294"
     style="stroke-width:0.200942" />
  <path
     d="m 80.65808,3.4763 v 21.38021 l 8.17834,-3.0945 V 6.5708 Z"
     fill=""
     id="path296"
     style="stroke-width:0.200942" />
  <path
     d="m 80.65808,41.41413 c -1.58744,0 -2.87346,-1.28603 -2.87346,-2.87347 V 2.87347 C 77.78462,1.28603 79.07064,0 80.65808,0 c 1.58745,0 2.87347,1.28603 2.87347,2.87347 v 35.68728 c -0.0201,1.58744 -1.28602,2.85338 -2.87347,2.85338 z"
     fill="#333e48"
     id="path298"
     style="stroke-width:0.200942" />
  <path
     d="M 165.7168,14.16641 137.42418,3.4763 v 21.38021 z"
     fill="#7cdfa8"
     id="path300"
     style="stroke-width:0.200942" />
  <path
     d="m 137.42418,3.4763 v 21.38021 l 8.17833,-3.0945 V 6.5708 Z"
     fill=""
     id="path302"
     style="stroke-width:0.200942" />
  <path
     d="m 137.42418,41.41413 c -1.58745,0 -2.87347,-1.28603 -2.87347,-2.87347 V 2.87347 C 134.55071,1.28603 135.83673,0 137.42418,0 c 1.58744,0 2.87347,1.28603 2.87347,2.87347 v 35.68728 c 0,1.58744 -1.28603,2.85338 -2.87347,2.85338 z"
     fill="#333e48"
     id="path304"
     style="stroke-width:0.200942" />
  <path
     d="M 159.70863,51.76264 H 19.491366 l 9.223234,73.42417 h 121.7708 z"
     fill="#a4a9ad"
     id="path306"
     style="stroke-width:0.200942" />
  <path
     d="m 24.253689,89.57991 2.290738,18.24552 H 152.67567 l 2.29074,-18.24552 z"
     fill="#0071ce"
     id="path308"
     style="stroke-width:0.200942" />
  <path
     d="m 19.491366,51.76264 1.386499,11.01161 H 158.32214 l 1.38649,-11.01161 z"
     fill=""
     id="path310"
     style="stroke-width:0.200942" />
  <path
     d="M 161.11523,46.77928 V 112.4471 L 129.3865,45.53344 126.79435,46.75918 124.2022,45.53344 92.47347,112.4471 V 46.77928 H 86.74662 V 112.4471 L 55.0179,45.53344 52.42575,46.75918 49.83359,45.53344 18.104867,112.4471 V 46.77928 h -5.726845 v 78.40753 c 0,1.34631 0.924333,2.51178 2.230455,2.7931 0.200942,0.0402 0.421978,0.0804 0.62292,0.0804 1.085087,0 2.10989,-0.62292 2.592151,-1.64772 L 49.55228,59.4989 v 65.66782 h 5.72684 V 59.519 l 31.72873,66.91365 c 0.48226,1.00471 1.48697,1.64773 2.59215,1.64773 1.10518,0 2.10989,-0.64302 2.59215,-1.64773 L 123.92088,59.519 v 65.66781 h 5.72684 V 59.519 l 31.72873,66.91365 c 0.48226,1.02481 1.50707,1.64773 2.59215,1.64773 0.20094,0 0.42198,-0.0201 0.62292,-0.0804 1.30613,-0.30141 2.23046,-1.44678 2.23046,-2.79309 V 46.77926 Z"
     fill="#333e48"
     id="path312"
     style="stroke-width:0.200942" />
  <path
     d="m 121.24835,51.76264 -4.30016,9.06248 h 6.34977 l 0.62292,-1.32622 v 1.32622 h 5.72684 V 59.4989 l 0.62292,1.32622 h 6.34977 l -4.30016,-9.08258 h -11.0719 z m 39.86688,0 v 9.06248 h 5.72684 v -9.08258 h -5.72684 z m -114.23548,0 -4.30016,9.06248 h 6.34977 l 0.62292,-1.32622 v 1.32622 h 5.72684 V 59.4989 l 0.62292,1.32622 h 6.34977 l -4.30016,-9.08258 h -11.0719 z m -34.521822,9.06248 h 5.726844 v -9.08258 h -5.726844 z m 74.368602,0 h 5.72685 v -9.08258 h -5.72685 z"
     fill=""
     id="path314"
     style="stroke-width:0.200942" />
  <path
     d="M 163.9686,54.45526 H 15.231397 c -5.284772,0 -9.564835,-4.28006 -9.564835,-9.56484 0,-5.28477 4.280063,-9.56483 9.564835,-9.56483 H 163.9686 c 5.28478,0 9.56484,4.28006 9.56484,9.56483 0,5.28478 -4.28006,9.56484 -9.56484,9.56484 z"
     fill="#00b3e3"
     id="path316"
     style="stroke-width:0.200942" />
  <path
     d="m 179.2,127.93972 c 0,0.84395 -0.7033,1.54725 -1.54725,1.54725 H 1.547253 C 0.703297,129.48697 0,128.78367 0,127.93972 v -5.52591 c 0,-0.84395 0.703297,-1.54725 1.547253,-1.54725 H 177.65275 c 0.84395,0 1.54725,0.7033 1.54725,1.54725 z"
     fill="#218649"
     id="path318"
     style="stroke-width:0.200942" />
  <path
     d="m 40.8113,120.88666 c 0,-9.14286 -7.414754,-16.55762 -16.557611,-16.55762 -9.142857,0 -16.557614,7.41476 -16.557614,16.55762 z"
     fill="#00ad68"
     id="path320"
     style="stroke-width:0.200942" />
</svg>
