<svg width="140" height="101.162" viewBox="0 0 179.2 129.487" class="prefix__icon" xmlns="http://www.w3.org/2000/svg"><path d="M52.165 14.166L23.892 3.476v21.38z" fill="#0071ce"/><path d="M23.892 3.476v21.38l8.178-3.094V6.571z"/><path d="M23.892 41.414a2.873 2.873 0 01-2.873-2.873V2.873a2.873 2.873 0 115.746 0v35.688a2.882 2.882 0 01-2.873 2.853z" fill="#333e48"/><path d="M108.93 14.166L80.659 3.476v21.38z" fill="#ffb819"/><path d="M80.658 3.476v21.38l8.178-3.094V6.571z"/><path d="M80.658 41.414a2.873 2.873 0 01-2.873-2.873V2.873a2.873 2.873 0 115.747 0v35.688a2.869 2.869 0 01-2.874 2.853z" fill="#333e48"/><path d="M165.717 14.166l-28.293-10.69v21.38z" fill="#7cdfa8"/><path d="M137.424 3.476v21.38l8.179-3.094V6.571z"/><path d="M137.424 41.414a2.873 2.873 0 01-2.873-2.873V2.873a2.873 2.873 0 115.747 0v35.688a2.856 2.856 0 01-2.874 2.853z" fill="#333e48"/><path d="M159.709 51.763H19.49l9.224 73.424h121.77z" fill="#a4a9ad"/><path d="M24.254 89.58l2.29 18.245h126.132l2.29-18.245z" fill="#0071ce"/><path d="M19.491 51.763l1.387 11.011h137.444l1.387-11.011z"/><path d="M161.115 46.78v65.667l-31.728-66.914-2.593 1.226-2.592-1.226-31.729 66.914V46.78h-5.726v65.668l-31.73-66.914-2.591 1.226-2.592-1.226-31.73 66.914V46.78h-5.726v78.408c0 1.346.924 2.512 2.23 2.793.201.04.422.08.623.08a2.87 2.87 0 002.593-1.647l31.728-66.914v65.668h5.727V59.519l31.729 66.914a2.882 2.882 0 002.592 1.647c1.105 0 2.11-.643 2.592-1.647l31.729-66.914v65.668h5.727V59.519l31.728 66.914a2.87 2.87 0 002.593 1.647c.2 0 .422-.02.623-.08a2.86 2.86 0 002.23-2.793V46.779z" fill="#333e48"/><path d="M121.248 51.763l-4.3 9.062h6.35l.623-1.326v1.326h5.727V59.5l.623 1.326h6.35l-4.3-9.082h-11.073zm39.867 0v9.062h5.727v-9.082h-5.727zm-114.235 0l-4.3 9.062h6.35l.622-1.326v1.326h5.727V59.5l.623 1.326h6.35l-4.3-9.082H46.88zm-34.522 9.062h5.727v-9.082h-5.727zm74.369 0h5.726v-9.082h-5.726z"/><path d="M163.969 54.455H15.23a9.562 9.562 0 01-9.564-9.565 9.562 9.562 0 019.564-9.564H163.97a9.562 9.562 0 019.564 9.564 9.562 9.562 0 01-9.564 9.565z" fill="#00b3e3"/><path d="M179.2 127.94c0 .844-.703 1.547-1.547 1.547H1.547A1.561 1.561 0 010 127.94v-5.526c0-.844.703-1.547 1.547-1.547h176.106c.844 0 1.547.703 1.547 1.547z" fill="#218649"/><path d="M40.811 120.887c0-9.143-7.414-16.558-16.557-16.558-9.143 0-16.558 7.415-16.558 16.558z" fill="#00ad68"/></svg>