<svg version="1.1" xmlns="http://www.w3.org/2000/svg" xmlns:xlink="http://www.w3.org/1999/xlink" width="140" height="120.79777" viewBox="0,0,140,120.79777"><defs><linearGradient x1="232.95316" y1="164.50033" x2="227.29778" y2="114.32677" gradientUnits="userSpaceOnUse" id="color-1"><stop offset="0" stop-color="#ffffff"/><stop offset="0.0527" stop-color="#fffefd"/><stop offset="0.0801" stop-color="#fff8f5"/><stop offset="0.1016" stop-color="#fef0e7"/><stop offset="0.1202" stop-color="#fce3d4"/><stop offset="0.1368" stop-color="#fad2bb"/><stop offset="0.152" stop-color="#f7bd9c"/><stop offset="0.1661" stop-color="#f3a178"/><stop offset="0.1791" stop-color="#ee8151"/><stop offset="0.1879" stop-color="#ea6737"/></linearGradient><linearGradient x1="216.96067" y1="152.87585" x2="212.99746" y2="161.03234" gradientUnits="userSpaceOnUse" id="color-2"><stop offset="0" stop-color="#cf0038"/><stop offset="0.0606" stop-color="#e30d2d"/><stop offset="0.0864" stop-color="#c5404c"/><stop offset="0.1212" stop-color="#915e7d"/><stop offset="0.2061" stop-color="#a5acd4"/><stop offset="0.3181" stop-color="#80a29f"/><stop offset="0.4695" stop-color="#429250"/><stop offset="0.5367" stop-color="#0b8d2f"/><stop offset="1" stop-color="#9778b0"/></linearGradient><linearGradient x1="210.73024" y1="144.4565" x2="231.7672" y2="149.3873" gradientUnits="userSpaceOnUse" id="color-3"><stop offset="0.7152" stop-color="#554894"/><stop offset="0.7996" stop-color="#8d80b6"/><stop offset="0.8959" stop-color="#cac3df"/><stop offset="0.9652" stop-color="#f0eef6"/><stop offset="1" stop-color="#ffffff"/></linearGradient><linearGradient x1="215.89989" y1="174.59433" x2="198.94375" y2="127.03532" gradientUnits="userSpaceOnUse" id="color-4"><stop offset="0" stop-color="#ffffff"/><stop offset="0.0527" stop-color="#fffefd"/><stop offset="0.0801" stop-color="#fff8f5"/><stop offset="0.1016" stop-color="#fef0e7"/><stop offset="0.1202" stop-color="#fce3d4"/><stop offset="0.1368" stop-color="#fad2bb"/><stop offset="0.152" stop-color="#f7bd9c"/><stop offset="0.1661" stop-color="#f3a178"/><stop offset="0.1791" stop-color="#ee8151"/><stop offset="0.1879" stop-color="#ea6737"/></linearGradient><linearGradient x1="197.67639" y1="166.92601" x2="195.67907" y2="175.77181" gradientUnits="userSpaceOnUse" id="color-5"><stop offset="0" stop-color="#cf0038"/><stop offset="0.0606" stop-color="#e30d2d"/><stop offset="0.0864" stop-color="#c5404c"/><stop offset="0.1212" stop-color="#915e7d"/><stop offset="0.2061" stop-color="#a5acd4"/><stop offset="0.3181" stop-color="#80a29f"/><stop offset="0.4695" stop-color="#429250"/><stop offset="0.5367" stop-color="#0b8d2f"/><stop offset="1" stop-color="#9778b0"/></linearGradient><linearGradient x1="189.68894" y1="160.15088" x2="211.29633" y2="160.15088" gradientUnits="userSpaceOnUse" id="color-6"><stop offset="0.7152" stop-color="#554894"/><stop offset="0.7996" stop-color="#8d80b6"/><stop offset="0.8959" stop-color="#cac3df"/><stop offset="0.9652" stop-color="#f0eef6"/><stop offset="1" stop-color="#ffffff"/></linearGradient><linearGradient x1="263.54933" y1="177.62934" x2="285.01994" y2="131.93218" gradientUnits="userSpaceOnUse" id="color-7"><stop offset="0" stop-color="#ffffff"/><stop offset="0.0527" stop-color="#fffefd"/><stop offset="0.0801" stop-color="#fff8f5"/><stop offset="0.1016" stop-color="#fef0e7"/><stop offset="0.1202" stop-color="#fce3d4"/><stop offset="0.1368" stop-color="#fad2bb"/><stop offset="0.152" stop-color="#f7bd9c"/><stop offset="0.1661" stop-color="#f3a178"/><stop offset="0.1791" stop-color="#ee8151"/><stop offset="0.1879" stop-color="#ea6737"/></linearGradient><linearGradient x1="282.42794" y1="171.75744" x2="283.56137" y2="180.75462" gradientUnits="userSpaceOnUse" id="color-8"><stop offset="0" stop-color="#cf0038"/><stop offset="0.0606" stop-color="#e30d2d"/><stop offset="0.0864" stop-color="#c5404c"/><stop offset="0.1212" stop-color="#915e7d"/><stop offset="0.2061" stop-color="#a5acd4"/><stop offset="0.3181" stop-color="#80a29f"/><stop offset="0.4695" stop-color="#429250"/><stop offset="0.5367" stop-color="#0b8d2f"/><stop offset="1" stop-color="#9778b0"/></linearGradient><linearGradient x1="291.03215" y1="165.78573" x2="269.52649" y2="163.69848" gradientUnits="userSpaceOnUse" id="color-9"><stop offset="0.7152" stop-color="#554894"/><stop offset="0.7996" stop-color="#8d80b6"/><stop offset="0.8959" stop-color="#cac3df"/><stop offset="0.9652" stop-color="#f0eef6"/><stop offset="1" stop-color="#ffffff"/></linearGradient></defs><g transform="translate(-170,-118.51634)"><g data-paper-data="{&quot;isPaintingLayer&quot;:true}" fill-rule="nonzero" stroke-width="1" stroke-linecap="butt" stroke-linejoin="miter" stroke-miterlimit="10" stroke-dasharray="" stroke-dashoffset="0" style="mix-blend-mode: normal"><g><path d="M231.05167,186.18852c-0.05814,-0.33289 -3.69991,1.69396 -9.68912,-4.42089c-5.98922,-6.11485 -5.77243,-27.02181 -7.07591,-42.80946c-1.30349,-15.78765 3.55318,-6.5664 10.44422,1.02544c6.89104,7.59129 16.01581,31.23581 14.45794,36.10036c-1.11237,3.47376 -5.0232,7.44603 -5.0232,7.44603" fill="#396242" stroke="none"/><path d="M239.19832,237.52997c-2.23209,2.9107 -3.48477,-0.03668 -3.48477,-0.03852c0.78316,-4.75946 -1.4858,-33.58051 -3.35858,-47.53957c-1.8726,-13.95925 -17.02199,-56.48625 -17.02199,-56.48625c0,0 0.08785,0.21697 0.25182,0.62469c2.06885,5.14278 16.24085,40.6379 18.98465,54.60081c2.9615,15.07254 4.62887,48.83811 4.62887,48.83811z" fill="#97ad79" stroke="#517044"/><path d="M234.96781,169.80387c0.70136,3.08512 -2.91877,9.34633 -2.91877,9.34633" fill="none" stroke="#a0af79"/><path d="M230.44972,180.94578c0,0 -7.32462,-1.17638 -9.50645,-3.03322" fill="none" stroke="#a0af79"/><path d="M228.67432,174.42743c0,0 -6.7986,-0.38149 -9.86153,-3.32337" fill="none" stroke="#a0af79"/><path d="M226.58713,167.38086c0,0 -5.81479,-1.03259 -8.79005,-4.35798" fill="none" stroke="#a0af79"/><path d="M223.88919,158.78632c0,0 -6.58163,-1.63821 -7.28096,-4.9469" fill="none" stroke="#a0af79"/><path d="M225.04961,144.50684c1.71616,2.52004 -3.55116,6.9655 -3.55116,6.9655c0,0 -2.07527,-0.38387 -4.83374,-3.13482" fill="none" stroke="#a0af79"/><path d="M219.1389,144.44558c0,0 -3.38444,-0.33619 -3.8967,-2.17578" fill="none" stroke="#a0af79"/><path d="M233.65351,165.32008c1.5443,3.43323 -3.62929,7.50986 -3.62929,7.50986" fill="none" stroke="#a0af79"/><path d="M231.41115,158.86464c0.68943,4.14486 -3.24304,8.53273 -3.24304,8.53273" fill="none" stroke="#a0af79"/><path d="M228.91202,151.54883c0.13004,4.31451 -4.00492,6.76063 -4.00492,6.76063" fill="none" stroke="#a0af79"/></g><g><path d="M231.21343,163.65674l-3.84058,-0.8987c0.96932,-0.04328 -0.08767,-6.07744 -0.08767,-6.07744c-2.72362,0.52382 -23.35712,-6.59226 -23.35712,-6.59226c25.70933,-1.51789 24.52983,4.46546 24.81338,4.46124c0.28337,-0.00422 0.46898,-4.41098 5.27355,-15.78783c4.80476,-11.37685 12.01823,-17.59734 12.01823,-17.59734c-1.10926,1.71781 -0.93979,6.41986 -0.93979,6.41986c0.18561,14.87702 -28.92247,39.18438 -15.52152,26.99778c13.40095,-12.1866 27.53517,-18.88377 27.53517,-18.88377c0,0 -0.00037,-0.00018 -6.53321,9.48811c-6.53284,9.48829 -14.18612,7.48216 -18.57932,9.34872c-4.39319,1.86637 -0.78187,9.12257 -0.78187,9.12257z" fill="url(#color-1)" stroke="#517044"/><path d="M190.07777,146.29196c0.52088,-0.08987 38.35629,10.54601 43.03138,15.31464c4.67454,4.769 3.52328,12.69336 3.52328,12.69336c-2.4254,-3.81802 -3.49449,-1.66682 -3.85544,-4.64758c-0.36077,-2.98076 -2.4795,-2.98314 -2.4795,-2.98314c-7.59679,-1.63968 -40.21972,-20.37672 -40.21972,-20.37672z" fill="url(#color-2)" stroke="none"/><path d="M227.37212,156.93756c0,0 -1.84216,-3.89322 -4.23803,-5.72621c-2.39587,-1.83335 -9.88867,-14.46821 -10.49539,-14.89298c0,0 8.14867,10.74024 12.13488,11.81575c3.98621,1.07569 1.55567,4.81503 -0.89559,2.61578l3.58638,3.38371c0,0 -2.0606,-3.23478 -0.40772,-2.77974c1.65288,0.45467 3.14931,4.70077 2.80395,6.17409" fill="url(#color-3)" stroke="#517044"/><path d="M231.92396,156.52489c0,0 2.45768,3.25734 8.72476,19.5147c6.26745,16.25736 -0.57994,54.30552 -0.57994,54.30552l-1.87499,-0.43945l0.03631,-0.55646c0.03631,-0.55573 0,0 1.94303,-25.16369c1.94285,-25.16479 -2.52334,-26.89214 -2.788,-27.87264c-0.26466,-0.98014 -3.67203,-6.93561 -2.52719,-8.50393c1.14447,-1.56833 -2.93546,-11.28405 -2.93546,-11.28405z" fill="#97ad79" stroke="#517044"/></g><g><path d="M248.35592,182.45523c0,0 -3.3208,-4.47738 -3.93962,-8.07182c-0.86679,-5.03402 11.45498,-27.17936 19.33496,-33.73989c7.87998,-6.56053 13.97007,-15.01733 10.4853,0.43578c-3.48477,15.45311 -6.17519,36.1884 -12.95618,41.41188c-6.78118,5.2233 -10.10583,2.70968 -10.20964,3.03138" fill="#396242" stroke="none"/><path d="M235.86762,235.23113c0,0 6.34319,-33.208 11.37043,-47.72115c4.65785,-13.44644 23.62489,-46.62803 26.38703,-51.43334c0.21917,-0.38112 0.33637,-0.58361 0.33637,-0.58361c0,0 -20.91044,40.01064 -24.70334,53.57372c-3.79436,13.56345 -10.04604,41.7897 -9.93214,46.61152c-0.00183,0.00183 -1.65251,2.74563 -3.45726,-0.44752z" fill="#97ad79" stroke="#517044"/><path d="M251.05937,178.4129c0,0 -2.715,-6.70359 -1.59144,-9.66124" fill="none" stroke="#a0af79"/><path d="M262.23025,178.7291c-2.41861,1.53568 -9.83567,1.68296 -9.83567,1.68296" fill="none" stroke="#a0af79"/><path d="M265.28529,172.28319c-3.44185,2.48757 -10.22761,1.92047 -10.22761,1.92047" fill="none" stroke="#a0af79"/><path d="M267.41614,164.42229c-3.40847,2.87989 -9.3102,3.09429 -9.3102,3.09429" fill="none" stroke="#a0af79"/><path d="M269.86831,155.4934c-1.15254,3.17958 -7.89795,3.88717 -7.89795,3.88717" fill="none" stroke="#a0af79"/><path d="M270.57591,150.03589c-3.1141,2.34085 -5.22257,2.43273 -5.22257,2.43273c0,0 -4.59843,-5.13416 -2.54865,-7.39119" fill="none" stroke="#a0af79"/><path d="M272.82963,144.22641c-0.76316,1.75045 -4.16118,1.61308 -4.16118,1.61308" fill="none" stroke="#a0af79"/><path d="M253.94439,172.43561c0,0 -4.55698,-4.75597 -2.55048,-7.94142" fill="none" stroke="#a0af79"/><path d="M256.53596,167.313c0,0 -3.28467,-4.8917 -2.02612,-8.90065" fill="none" stroke="#a0af79"/><path d="M261.02948,158.76615c0,0 -3.75493,-2.99708 -3.0268,-7.25162" fill="none" stroke="#a0af79"/></g><g><path d="M214.01354,174.16772h-3.94329c0.93392,-0.26319 -1.47241,-5.89696 -1.47241,-5.89696c-2.53288,1.13163 -48.93073,6.25828 -24.24665,-1.08725c24.68408,-7.34552 24.90142,-1.25103 25.17653,-1.31981c0.27511,-0.06878 -0.55004,-4.40163 1.53128,-16.57466c2.08132,-12.17339 7.68465,-19.87602 7.68465,-19.87602c-0.68778,1.92561 0.55023,6.46498 0.55023,6.46498c3.57629,14.44381 -19.21574,44.75341 -8.9498,29.82961c10.26594,-14.92379 22.49876,-24.67032 22.49876,-24.67032c0,0 0,0 -4.19529,10.72887c-4.19529,10.72887 -12.10443,10.52253 -15.95565,13.34244c-3.8514,2.81973 1.32073,9.06021 1.32073,9.06021z" fill="url(#color-4)" stroke="#517044"/><path d="M170.00073,166.65254c0.48787,-0.20542 39.75203,1.51312 45.39002,5.08776c5.63964,3.57629 6.32742,11.55421 6.32742,11.55421c-3.23258,-3.16362 -3.78262,-0.82534 -4.8143,-3.64507c-1.03149,-2.81973 -3.09484,-2.33846 -3.09484,-2.33846c-7.77103,0.13756 -43.80904,-10.66009 -43.80904,-10.66009z" fill="url(#color-5)" stroke="none"/><path d="M208.73962,168.50332c0,0 -2.68217,-3.36995 -5.43312,-4.60778c-2.75113,-1.23801 -12.92977,-11.82932 -13.61756,-12.10443c0,0 10.38498,8.59692 14.51149,8.7343c4.12652,0.13756 2.61358,4.33285 -0.27511,2.75113l4.26407,2.47584c0,0 -2.74453,-2.67905 -1.03149,-2.61339c1.71304,0.06548 4.13899,3.858 4.13899,5.37113" fill="url(#color-6)" stroke="#517044"/><path d="M213.07632,167.06265c0,0 3.13629,2.61174 12.94866,17.00934c9.81237,14.39759 11.82987,53.00515 11.82987,53.00515h-1.92579c0,0 0,0 -0.0917,-0.55023c-0.0917,-0.55023 0,0.00073 -3.85159,-24.9436c-3.85159,-24.94434 -8.59417,-25.60663 -9.07562,-26.50074c-0.48145,-0.89393 -5.15801,-5.91457 -4.40145,-7.7028c0.75638,-1.78805 -5.4333,-10.3162 -5.4333,-10.3162z" fill="#97ad79" stroke="#517044"/></g><g><path d="M265.46797,177.38948c0,0 5.75078,-5.71153 2.19008,-8.89019c-3.56107,-3.17884 -11.45297,-3.73769 -14.59219,-14.82182l-3.13904,-11.08395c0,0 11.23416,10.88275 20.0099,26.72817c8.77575,15.84542 -10.98069,-16.52385 -6.02571,-30.55408c0,0 1.67067,-4.39851 1.17217,-6.38153c0,0 4.83319,8.20791 5.72859,20.52528c0.89522,12.31719 -0.34463,16.55008 -0.07777,16.64509c0.26723,0.09501 1.07221,-5.95015 24.9326,3.74631c0,0 -21.82565,0.11041 -24.23748,-1.26057c0,0 -2.93913,5.3748 -2.0351,5.72712l-3.92495,-0.38332z" fill="url(#color-7)" stroke="#517044"/><path d="M309.99964,174.15965c0,0 -36.91286,7.26501 -44.63438,6.37731c0,0 -2.00704,-0.67825 -3.30594,2.02869c-1.29945,2.70693 -1.62097,0.3261 -5.14407,3.16289c0,0 1.45517,-7.87448 7.41412,-10.8888c5.95895,-3.01341 45.20661,-0.93172 45.67064,-0.67861z" fill="url(#color-8)" stroke="none"/><path d="M268.71706,172.01909c0.14654,-1.50615 2.92739,-5.04631 4.63896,-4.94599c1.7112,0.09996 -1.27928,2.50133 -1.27928,2.50133l4.48306,-2.05216c-3.02771,1.29523 -4.12853,-3.0268 -0.00789,-2.76489c4.12065,0.26209 15.28749,-7.29142 15.28749,-7.29142c-0.71108,0.20744 -11.86527,9.76579 -14.72314,10.73217c-2.85788,0.9662 -5.85258,4.06141 -5.85258,4.06141" fill="url(#color-9)" stroke="#517044"/><path d="M267.08564,170.40711c0,0 -6.98458,7.89025 -6.40464,9.74304c0.58031,1.85316 -4.55936,6.3984 -5.12499,7.24135c-0.56545,0.84368 -5.35004,1.04451 -11.59364,25.49933c-6.2436,24.45482 -6.09926,23.91651 -6.2436,24.45573l-0.14453,0.53867l-1.91681,-0.18598c0,0 5.7385,-38.23157 16.89599,-51.61492c11.15749,-13.38334 14.53148,-15.67779 14.53148,-15.67779z" fill="#97ad79" stroke="#517044"/></g></g></g></svg>