<svg width="140" height="122.5" viewBox="0 0 179.2 156.8" class="prefix__icon" xmlns="http://www.w3.org/2000/svg"><path d="M100.8 11.2a5.6 5.6 0 00-5.6-5.6 5.6 5.6 0 10-11.2 0 5.6 5.6 0 00-5.6 5.6v5.6H84v28h11.2v-28h5.6z" fill="#dae2e5"/><path d="M5.6 56v89.6a5.6 5.6 0 005.6 5.6H168a5.6 5.6 0 005.6-5.6V56z" fill="#eaca44"/><path d="M112 112V84a5.6 5.6 0 10-11.2 0v28a5.6 5.6 0 1011.2 0z" fill="#434854"/><path d="M106.4 117.6a5.6 5.6 0 01-5.6-5.6v5.6a5.6 5.6 0 1011.2 0V112a5.6 5.6 0 01-5.6 5.6z"/><path d="M78.4 112V84a5.6 5.6 0 10-11.2 0v28a5.6 5.6 0 1011.2 0z" fill="#434854"/><path d="M72.8 117.6a5.6 5.6 0 01-5.6-5.6v5.6a5.6 5.6 0 1011.2 0V112a5.6 5.6 0 01-5.6 5.6z"/><path d="M140 151.2h22.4v5.6H140zm-123.2 0h22.4v5.6H16.8zM0 44.8h179.2V56H0z" fill="#434854"/><path d="M5.6 56h168v5.6H5.6z"/><path d="M72.8 39.2a5.6 5.6 0 00-5.6 5.6h11.2a5.6 5.6 0 00-5.6-5.6z" fill="#469fcc"/><path d="M106.4 39.2a5.6 5.6 0 00-5.6 5.6H112a5.6 5.6 0 00-5.6-5.6z" fill="#ef4d4d"/><path d="M84 16.8h11.2v5.6H84z"/><path d="M95.2 5.6H84a5.6 5.6 0 00-5.6 5.6v5.6a5.6 5.6 0 015.6-5.6h11.2a5.6 5.6 0 015.6 5.6v-5.6a5.6 5.6 0 00-5.6-5.6z" fill="#fff"/></svg>