<svg xmlns="http://www.w3.org/2000/svg" width="137.529" height="132.032" viewBox="0 0 11.002 10.563" xmlns:v="https://vecta.io/nano"><path d="M2.569 1.847A4.694 4.694 0 0 1 4.672.607c1.247-.31 2.245-.19 2.922.238s.88.831.88.831l.447-.333S8.482.298 9.409.049s1.105.511 1.068 1.105-.447.713-.606.738a1.732 1.732 0 0 1-.511-.084l-.509.76a2.954 2.954 0 0 1 .281 1.181 7.131 7.131 0 0 1-.021 1.061l.705.285c.023 0 .555-.19.745-.032s.135.302.135.302.38 0 .293.333a.523.523 0 0 1-.317.395.221.221 0 0 1 .095.293.502.502 0 0 1-.622.215 1.215 1.215 0 0 1-.443-.603 1.521 1.521 0 0 1-.055-.293l-.603-.19-.705 2.312-.34 1.11s.736 0 .823.363.08.935 0 .99-.951.127-1.599.127-.863-.15-.855-.253 0-1.435-.048-1.458a3.084 3.084 0 0 0-.76 0c-.317.03-.548.118-.555.19s.048 1.386 0 1.473-1.188.181-1.933.19-.871 0-.871-.08-.127-.951.12-1.086a3.612 3.612 0 0 1 .894-.19L2.398 6.97l-.451-1.316-.618.184s.055.308-.095.42-.428.19-.57 0A.471.471 0 0 1 .6 5.862a.523.523 0 0 1-.253-.458c.04-.278.15-.38.215-.413a.5.5 0 0 1 .165-.015s.165-.31.399-.247a.302.302 0 0 1 .247.255l.428-.16a3.106 3.106 0 0 1-.025-1.331 2.205 2.205 0 0 1 .435-.998l-.838-.878a1.038 1.038 0 0 1-.785.175C.176 1.687-.204 1.277.125.651S1.507-.031 1.765.326s0 .823 0 .823z" fill="#1d1d1b"/><path d="M.997 5.149l-.105-.165s.04-.19.2-.12.19.302.213.293.475-.181.5-.133.103.458.103.458-.76.19-.76.238.063.31-.04.397-.253.095-.285.03-.055-.221 0-.23.11-.038.11-.063-.015-.135-.015-.135-.19.065-.285-.04-.175-.395-.076-.466a.262.262 0 0 1 .293-.017c.036.048.148-.048.148-.048z" fill="#ddc07c"/><path d="M1.725 5.157c.015.025.055.135.015.16a.447.447 0 0 1-.15.023s-.07-.103-.04-.125a.819.819 0 0 1 .175-.057z" fill="#1d1d1b"/><path d="M1.028.326c.329-.061.61.078.658.38s-.348.76-.618.871-.633.087-.783-.143-.2-.935.743-1.108z" fill="#fab900"/><path d="M1.697 1.317a7.081 7.081 0 0 1 .76.721.951.951 0 0 1-.143.245l-.779-.738.162-.228z" fill="#ddc07c"/><path d="M9.472.279c.268-.087.728-.04.831.586s-.285.863-.673.785a.669.669 0 0 1-.546-.738C9.1.564 9.25.349 9.472.279z" fill="#fab900"/><path d="M9.02 1.497c.025.032.23.19.207.222l-.435.57a3.76 3.76 0 0 1-.19-.42c.008-.023.418-.373.418-.373z" fill="#ddc07c"/><path d="M4.22 1.031C4.683.819 5.868.666 6.691.794s1.66 1.116 1.85 1.814a9.555 9.555 0 0 1 .255 1.441s-.69-.411-.722-.38-.038.143-.015.16.721.316.738.38 0 .49 0 .49a6.409 6.409 0 0 0-.69-.3c-.015.023-.087.118 0 .143a4.336 4.336 0 0 1 .658.38c0 .03-.063.513-.063.513l-.548-.285c-.025.008-.055.112-.023.12s.546.317.538.365-.698 2.249-.724 2.257a4.019 4.019 0 0 1-.413-.175s-.063.112-.032.127.405.165.38.205-.072.19-.072.19a2.487 2.487 0 0 0-.443-.205c-.025.023-.065.08-.025.11a4.506 4.506 0 0 1 .441.207c0 .03 0 .158-.023.158a4.234 4.234 0 0 0-.479-.198c-.04.015-.087.095-.04.125s.468.207.46.255a1.013 1.013 0 0 1-.072.165 4.291 4.291 0 0 0-.428-.245c-.023 0-.055.118-.032.135a2.572 2.572 0 0 1 .38.245c0 .023-.506.055-.513.118a.363.363 0 0 0 0 .175c.015.032.57 0 .918.048s.5.04.515.127.055.625 0 .641-1.086 0-1.346-.015-.405-.063-.405-.11l-.055-1.521c-.04-.048-.618-.12-1.086-.095a2.661 2.661 0 0 0-.848.19 1.631 1.631 0 0 0-.245-.2c-.032 0-.11.057-.087.095s.238.215.238.238a.76.76 0 0 1-.015.095 3.876 3.876 0 0 0-.57-.355c-.032.023-.07.118-.032.143a5.559 5.559 0 0 1 .595.443c0 .04.015.23.015.23s-.498-.333-.53-.285-.04.15-.015.167.53.238.538.293a4.268 4.268 0 0 1 0 .713c-.03.04-2.019.19-2.044.11s-.023-.665.032-.705 1.228-.19 1.243-.23.015-.143-.023-.15-.262 0-.27-.015-1.053-2.686-1.283-3.652-.317-2.249.375-3.16 1.002-1.03 1.572-1.291z" fill="#8ec480"/><path d="M5.75 1.395c.063 0 .063.19.038.19a2.12 2.12 0 0 0-1.291.357c-.641.443-.713.603-.76.586s-.133-.048-.118-.087a2.67 2.67 0 0 1 2.123-1.053zm2.011.625c.154.041.296.12.413.23 0 .04 0 .112-.04.087a3.08 3.08 0 0 1-.38-.19c-.017-.032-.032-.095.008-.127zm.128.532s.53.213.57.323.063.135.015.127c-.21-.081-.412-.181-.603-.3-.008-.04-.008-.135.017-.15zm.095.593a3.64 3.64 0 0 1 .586.325c.015.055.07.135 0 .103a5.51 5.51 0 0 1-.61-.293.59.59 0 0 1 .025-.135z" fill="#1d1d1b"/><path d="M9.147 4.999l.705.3c.025.008.38-.165.57-.11s.143.158.125.205-.07.143-.03.175.04.055.063.055.103-.118.167-.078a.221.221 0 0 1 .023.293 1.008 1.008 0 0 1-.3.23c-.032 0-.048.095-.015.118s.205.08.165.15a.3.3 0 0 1-.46.087c-.228-.19-.3-.698-.308-.736a.462.462 0 0 0-.095-.175 6.827 6.827 0 0 1-.665-.215 5.63 5.63 0 0 1 .055-.3z" fill="#ddc07c"/><path d="M5.607 6.615c.03 0 .696.08 1.179-.158s.778-.618.84-.603.15.11.135.143a1.901 1.901 0 0 1-.88.793c-.601.268-1.196.293-1.243.245s-.11-.405-.03-.42zM5.25 2.638c.705-.156 1.726.04 2.123.88s.293 1.964-.625 2.487-2.148.508-2.719-.04-.981-2.834 1.22-3.327z" fill="#1d1d1b"/><path d="M5.296 2.891c.608-.135 1.49.034 1.833.76s.253 1.696-.54 2.146-1.85.437-2.346-.034-.848-2.449 1.053-2.873z" fill="#e6e4da"/><path d="M5.396 3.938a.57.57 0 0 1 .452 1.017c-.278.158-.648.154-.821-.011a.622.622 0 0 1 .369-1.006z" fill="#1d1d1b"/><path d="M5.543 4.128a.304.304 0 0 1 .302.087c.078.095-.19.316-.222.3s-.222-.31-.08-.388z" fill="#e6e4da"/></svg>