<?xml version="1.0" encoding="UTF-8" standalone="no"?>
<!-- Generator: Adobe Illustrator 12.0.0, SVG Export Plug-In . SVG Version: 6.00 Build 51448)  -->

<svg
   id="Layer_1"
   space="preserve"
   sodipodi:docname="Anonymous-Architetto----Anatra.svg"
   viewBox="0 0 140 118.82424"
   sodipodi:version="0.32"
   version="1.1"
   inkscape:version="1.2.2 (732a01da63, 2022-12-09)"
   width="140"
   height="118.82423"
   xmlns:inkscape="http://www.inkscape.org/namespaces/inkscape"
   xmlns:sodipodi="http://sodipodi.sourceforge.net/DTD/sodipodi-0.dtd"
   xmlns="http://www.w3.org/2000/svg"
   xmlns:svg="http://www.w3.org/2000/svg"
   xmlns:rdf="http://www.w3.org/1999/02/22-rdf-syntax-ns#"
   xmlns:cc="http://creativecommons.org/ns#"
   xmlns:dc="http://purl.org/dc/elements/1.1/">
  <defs
     id="defs2135" />
  <sodipodi:namedview
     id="base"
     bordercolor="#666666"
     inkscape:pageshadow="2"
     inkscape:window-width="1920"
     pagecolor="#ffffff"
     inkscape:zoom="1.0179556"
     inkscape:window-x="-8"
     borderopacity="1.0"
     inkscape:current-layer="Layer_1"
     inkscape:cx="208.26056"
     inkscape:cy="175.84264"
     inkscape:window-y="-8"
     inkscape:window-height="1017"
     inkscape:pageopacity="0.0"
     inkscape:showpageshadow="2"
     inkscape:pagecheckerboard="0"
     inkscape:deskcolor="#d1d1d1"
     showgrid="false"
     inkscape:window-maximized="1" />
  <path
     id="path3"
     style="clip-rule:evenodd;fill-rule:evenodd;stroke-width:0.335992"
     d="m 65.890032,117.51526 c -2.193354,0.50701 -3.770162,0.10449 -5.925213,0.96732 -1.38227,0.55337 -2.748412,0.30104 -4.232151,0.16127 -4.206615,-0.39647 -8.916882,-0.0806 -13.382211,-0.0806 -1.11482,0 -8.070183,-2.3217 -8.142085,-2.98226 -0.235867,-2.16782 6.761831,-2.94665 6.610299,-6.52865 -0.04737,-1.11617 -1.607048,-0.39815 -1.451148,-1.53145 0.125325,-0.9092 1.44846,-1.47433 2.176554,-1.69273 2.597552,-0.77916 5.630212,1.56975 8.222724,2.01528 2.272983,0.39042 4.631309,-0.0911 6.288083,-0.32255 2.44098,-0.3407 3.934798,1.63594 5.80392,-0.96732 1.366478,-1.90306 4.602078,-9.439351 3.063572,-10.800454 C 63.598569,94.581809 57.653869,95.278992 55.651358,94.947032 47.53044,93.600378 39.657484,91.124455 32.192422,87.692973 28.575136,86.030486 25.083846,83.921131 22.276972,81.003379 18.700677,77.285968 14.648618,74.588963 11.555143,70.686756 7.8021166,65.952633 5.1948214,61.536359 4.6222917,55.211316 3.9792037,48.110805 5.6779774,41.210545 10.910039,36.189821 c 2.152698,-2.065676 4.806024,-4.382003 7.37636,-5.924204 1.242834,-0.745566 3.996285,-2.166474 4.151513,-3.828625 0.322216,-3.44761 -6.113368,-3.79973 -8.383999,-3.868944 C 10.458802,22.458515 6.9110668,23.145618 3.1708078,23.616006 -2.4170693,24.318565 0.63474281,20.459701 2.8482558,18.215948 8.9465042,12.03807 13.404105,-0.05090943 23.732152,1.6130154e-4 32.130263,0.04182426 40.261261,7.1907185 41.346178,15.878118 c 0.482484,3.862224 -0.02688,7.515126 -1.168915,11.203306 -0.535235,1.729013 -1.167235,3.571591 -1.7737,5.239118 -0.886346,2.436275 -3.173441,5.238781 0.362871,5.238781 9.042879,0 17.829061,0.149517 27.44951,0.725406 9.455813,0.566146 18.717422,4.477089 27.489492,7.656914 2.608975,0.94548 5.425929,3.0629 8.464304,3.0629 4.29934,0 8.96056,0.187147 13.22093,-0.523811 2.60024,-0.434101 7.56082,-0.926329 10.07673,-0.120957 5.51295,1.764628 -3.93883,5.105393 -6.08649,5.964187 -6.41307,2.564625 5.33689,3.114979 7.21542,4.271798 3.96537,2.441652 -3.8377,0.764045 -5.15915,1.047622 0.8813,0.691471 0.89609,2.03275 1.57177,2.216873 1.98403,0.539939 4.13941,0.891386 6.1268,1.289536 1.04695,0.209659 11.39684,1.204194 10.84279,2.780667 -0.35514,1.010663 -7.60719,1.887601 -8.86783,2.256856 -2.23098,0.653168 -4.36621,1.468619 -6.36838,2.417796 -2.47122,1.171603 -5.66281,0.915577 -8.06145,1.93464 -3.21376,1.365134 -6.33983,4.063483 -9.43196,6.125127 -2.24274,1.495835 -5.24315,1.916497 -7.738892,2.90196 -2.754796,1.087605 -5.108417,2.98327 -7.673377,4.137065 -4.981413,2.2414 -8.52646,4.815432 -13.407411,6.985267 -1.387981,0.617216 -3.991581,1.373869 -4.796281,2.499105 -0.412933,0.577234 -1.004279,2.996038 -1.37051,3.868608 -0.992855,2.366728 -3.494985,6.499418 -3.305149,9.027088 0.164971,2.19739 4.134377,6.34587 0.725405,7.41534 -1.155475,0.36253 -1.623847,-0.9643 -2.660381,-0.32256 -0.323896,0.20059 0.162956,1.60033 -0.725406,2.17656 -0.09744,0.0504 -0.302393,0.11759 -0.40991,0.15119" />
  <path
     id="path5"
     style="clip-rule:evenodd;fill:#ff7f00;fill-rule:evenodd;stroke-width:0.335992"
     d="m 65.56748,116.55096 c -0.97068,0.21638 -1.909441,-0.11793 -2.902296,0 -1.448796,0.17203 -2.804858,1.1753 -4.111194,1.37017 -0.954888,0.14246 -3.046772,-0.60243 -4.27247,-0.56413 -5.050626,0.15792 -11.451603,1.24855 -15.800679,-0.96732 -1.389997,-0.70793 -3.206704,-1.41855 -0.806044,-2.17655 1.653751,-0.52213 3.548408,0.75732 5.64298,0.88702 3.719092,0.23015 8.402815,0.27081 11.931063,-0.48349 2.485331,-0.53154 4.112874,-1.73943 0.96732,-2.3375 -2.55488,-0.48584 -5.059362,-0.0403 -7.658257,-0.80571 -0.931369,-0.27417 -5.494472,-3.31153 -5.804256,-2.01527 -0.157244,0.65787 4.325892,2.68087 5.159152,2.90196 2.341862,0.62124 4.545631,1.19209 6.932851,1.04762 v 0.16094 c -2.673821,0.87694 -6.391233,0.44317 -9.431621,0.40285 -1.305328,-0.0175 -2.728924,0.33297 -3.950254,-0.24158 -2.052909,-0.96564 -1.243841,-0.27081 -0.644768,-2.17655 0.575554,-1.83082 1.614104,-2.44736 0.322216,-4.51371 2.98999,-1.71793 5.063394,1.68936 7.336042,2.65971 2.032413,0.86753 6.608619,1.30566 8.948129,1.12826 5.46356,-0.41327 7.296059,-7.04676 8.545276,-12.331568 0.546658,-2.312294 1.156147,-9.374167 5.320763,-7.495973 0.188492,0.08501 0.393111,-0.07425 0.564466,-0.08064 -0.726413,2.073068 1.354719,4.378979 0.16094,6.448015 -1.998142,3.463736 -1.934639,-0.929689 -2.579743,-2.09558 -1.499195,0.697519 -0.66728,3.009477 -0.16094,4.029884 0.388742,0.783532 1.032502,0.03259 1.209234,1.128262 0.219738,1.36581 -1.362111,2.53707 -1.773364,3.70767 -0.290297,0.82553 -0.902138,3.32867 -0.887018,3.78797 0.05645,1.72834 2.457779,3.97579 2.17689,5.48103 -0.25737,1.37857 -1.573785,1.20655 -2.499106,0.16094 -1.069126,-1.20823 0.207643,-4.74723 -0.967656,-4.1915 -2.785371,1.32381 1.145731,5.53379 -0.957576,7.17679" />
  <path
     id="path7"
     style="clip-rule:evenodd;fill-rule:evenodd;stroke-width:0.335992"
     d="m 61.055112,115.90586 c -2.187306,-0.61487 1.058374,-2.18731 0,0" />
  <path
     id="path9"
     style="clip-rule:evenodd;fill-rule:evenodd;stroke-width:0.335992"
     d="m 62.425958,115.26075 c -0.489204,-0.25938 -0.841995,-0.59 -0.96732,-1.12792 1.716917,-1.0147 2.600575,-0.1176 0.967656,1.12893" />
  <path
     id="path11"
     style="clip-rule:evenodd;fill-rule:evenodd;stroke-width:0.335992"
     d="m 59.52299,116.38968 c -2.550176,-0.91389 0.913897,-2.06635 0,0" />
  <path
     id="path13"
     style="clip-rule:evenodd;fill-rule:evenodd;stroke-width:0.335992"
     d="m 62.506596,111.87396 c -1.617464,0.31045 -0.979752,-1.15514 -0.161276,-1.53179 1.414525,-0.64846 0.960936,1.12893 0.161276,1.53212" />
  <path
     id="path15"
     style="clip-rule:evenodd;fill-rule:evenodd;stroke-width:0.335992"
     d="m 63.874082,110.18056 c -2.096588,-1.28013 1.653079,-1.97227 0,0" />
  <path
     id="path17"
     style="clip-rule:evenodd;fill-rule:evenodd;stroke-width:0.335992"
     d="m 64.922376,107.84542 c -1.673239,-1.36077 1.266688,-1.56573 0,0" />
  <path
     id="path19"
     style="clip-rule:evenodd;fill:#996633;fill-rule:evenodd;stroke-width:0.335992"
     d="m 58.877886,109.53881 c -2.01427,0.49895 -5.76864,0.49727 -7.255403,-0.48349 1.656438,-0.25266 3.931102,0.33465 5.078513,0.0806 0.748254,-0.16564 -0.194875,-1.18907 1.128596,-0.96732 0.853419,0.14112 1.236449,0.80974 1.044934,1.37085" />
  <path
     id="path21"
     style="clip-rule:evenodd;fill-rule:evenodd;stroke-width:0.335992"
     d="m 66.051308,106.39393 c -2.802171,-0.86686 1.155811,-2.19066 0,0" />
  <path
     id="path23"
     style="clip-rule:evenodd;fill-rule:evenodd;stroke-width:0.335992"
     d="m 66.938326,104.45862 c -0.860475,-0.39445 -1.769332,-1.74111 0,-1.53145 -0.407558,-0.76337 0.115917,-3.457354 1.047958,-2.82099 1.326495,0.90584 -0.10315,3.05383 -0.806044,2.90163 0.02957,0.11256 -0.08433,0.10348 -0.161276,0.0803 0.453588,0.78622 0.02352,0.93742 -0.08064,1.37085" />
  <path
     id="path25"
     style="clip-rule:evenodd;fill:#ffffcc;fill-rule:evenodd;stroke-width:0.335992"
     d="m 73.953831,93.57921 c -0.880298,0.161948 -1.043926,-0.400502 -0.806044,-1.450476 0.328936,-1.449803 0.861483,-0.6404 1.612424,-1.370173 0.304409,-0.296009 -0.103149,-0.911546 0.0803,-1.047622 0.155228,-0.115582 1.099701,-0.142461 1.20957,-0.322552 0.409574,-0.671984 1.171267,-0.595378 0.322216,-1.450476 1.271393,-0.711295 6.712441,-3.051812 6.368722,-4.755626 -0.382359,-1.895665 -2.449043,0.243258 -1.289872,-1.69239 1.141363,-1.906081 2.084828,-0.504323 1.531786,-2.418132 -0.151532,-0.525155 -1.068118,-0.244602 -1.209234,-0.886682 -0.02285,-0.104493 0.724734,-0.892058 0.805708,-1.289536 0.281897,-1.382269 0.126333,-1.966895 -0.16094,-3.304478 -0.484836,-2.256183 -0.709951,-0.992519 0.725406,-1.692725 0.475764,-0.231835 1.170931,-0.06418 1.612424,-0.16094 0.571185,-0.125325 -0.06384,-0.960265 1.047958,-1.047622 1.582856,-0.124317 3.661301,2.540432 4.514719,2.417795 1.736741,-0.249305 0.0635,-2.043837 0.0803,-3.143201 0.02654,-1.734389 0.433094,-0.58597 1.854338,0.241914 2.055261,1.197138 1.443084,1.133299 2.257192,-0.08064 0.342376,-0.510372 -1.077861,-1.14506 -0.0803,-1.370174 0.666944,-0.150525 0.939097,0.88265 1.450812,1.128596 2.290791,1.101044 0.843003,0.859802 1.693062,-0.887018 0.424357,-0.871899 -0.822844,-1.166227 0.402854,-1.209234 0.395798,-0.01378 1.53481,1.339598 1.854338,1.531786 1.47803,0.888698 3.80914,1.271728 5.4817,1.450812 2.78033,0.297688 7.32093,-0.124317 9.59324,1.289535 -1.95211,1.660471 -4.68742,3.742947 -7.49698,5.400058 -3.54606,2.091884 -7.585016,2.80889 -11.44724,4.674652 -7.929403,3.833665 -13.560623,7.717728 -22.017532,11.453955" />
  <path
     id="path27"
     style="clip-rule:evenodd;fill:#d59758;fill-rule:evenodd;stroke-width:0.335992"
     d="m 135.86365,65.772542 c -3.72111,0.748253 -8.60206,-1.101045 -12.0117,0.0803 2.34556,0.293993 4.80602,0.351447 6.85255,0.96732 v 0.16094 c -1.76631,0.426709 -11.63539,0.443845 -12.0117,-0.564466 -0.13205,0.522803 -0.75061,0.839979 -1.77337,0.886682 0.0269,0.08064 0,0.107517 -0.0806,0.08064 0.7832,0.229482 1.97362,0.336663 2.82166,0.402854 -1.19546,0.446533 -3.39956,0.494915 -4.91757,0.725742 3.01754,0.717342 6.52798,0.261737 9.27068,0.72507 V 69.3989 c -2.37378,0.599745 -6.20442,-1.095669 -8.30336,0.0803 2.05089,0.400502 3.98688,0.756653 5.88489,1.12826 -0.006,0.0034 -0.19185,0.08836 -0.0806,0.161276 -3.12069,0.719022 -7.18215,-0.309785 -10.39927,-0.645104 -1.51533,-0.157916 -3.47315,0.09072 -4.83694,-0.322216 -2.54917,-0.771773 -0.68038,-0.193532 0.56447,-0.886682 1.3994,-0.778829 2.25585,-1.185715 4.59502,-1.854002 2.01931,-0.576562 1.69239,-1.268369 2.9023,-2.015278 1.04762,-0.646784 2.77092,-0.224779 3.86961,-0.886682 1.41889,-0.854763 0.41697,-1.584873 2.17689,-1.853666 2.37781,-0.363207 6.27397,1.36715 8.30336,1.773028 1.41117,0.282233 7.64616,0.950856 7.33571,1.612088 -0.003,0.01344 -0.14112,0.06384 -0.15792,0.08064" />
  <path
     id="path29"
     style="clip-rule:evenodd;fill:#e4bc96;fill-rule:evenodd;stroke-width:0.335992"
     d="M 65.083652,94.546866 C 57.711995,95.078741 51.028449,92.580979 44.043183,91.081449 37.643886,89.707243 31.861134,86.762612 26.791692,83.424535 21.207511,79.747778 15.405607,73.874644 10.749435,68.352286 5.7445038,62.415985 4.7109935,55.398464 5.9931376,48.121893 7.7547418,38.123117 15.03736,35.692218 21.713178,29.01976 c 3.417371,-3.415691 1.089621,-4.754954 -2.297511,-6.689594 -0.888698,-0.507683 -6.040793,-0.512387 -6.247764,-0.886682 -0.537923,-0.973368 1.772356,-1.634935 1.854338,-2.49877 0.143804,-1.520026 -1.974287,-2.354293 -2.499106,-3.667349 -0.617889,-1.546569 -1.283824,-3.563527 -1.128596,-5.037522 0.465684,-4.4196344 5.564693,-6.6506189 9.351319,-8.5435958 3.270543,-1.63493542 8.331585,-0.070558 11.366598,1.7730279 3.671044,2.2303125 3.94387,5.5841811 4.595021,8.6242339 0.727758,3.398219 1.594953,4.49456 1.128596,8.140741 -0.08064,-0.02688 -0.107517,0 -0.08064,0.08064 -1.148419,-0.645104 -1.19277,1.948752 -1.773364,2.820986 -0.143804,-0.0803 -0.146156,-0.264761 -0.241914,-0.322216 -0.694158,0.669967 -1.012006,2.120107 -1.934639,2.901624 -0.103822,-0.09105 -0.08265,-0.393446 -0.161276,-0.483492 -1.141028,1.172611 -1.244513,3.295406 -2.418468,4.594014 0.116589,-0.763373 0.217386,-1.85501 0.08064,-2.579072 -1.124228,1.174291 -1.324815,3.597462 -2.095916,5.238781 -0.609153,1.297264 -0.495588,2.398981 -1.37051,1.370174 -0.580258,-0.682399 1.139348,-3.299102 -0.322552,-1.370174 -0.842331,1.111461 -0.9858,2.65971 -1.93464,3.707668 -1.854674,2.048205 -11.399861,11.332663 -8.303362,13.863016 0.456613,0.37295 2.303895,0.20865 2.902296,0.241914 -1.166563,1.798227 0.679375,1.338926 0.96732,2.337493 0.188492,0.653504 -1.17933,0.823516 -0.08064,2.014942 0.634016,0.687439 1.996127,0.316169 2.74102,0.806044 0.102478,0.0672 0.590337,1.685334 0.644768,1.773364 0.136413,0.220747 0.949512,-0.417973 1.128596,-0.08064 0.110541,0.208315 -0.390758,0.759005 -0.241914,0.96732 0.425365,0.594369 0.627296,1.455852 1.128596,2.09558 1.35539,1.730357 3.71506,3.683812 5.64298,4.029884 1.682982,0.302056 2.634174,-0.42671 4.353107,-0.56413 1.177987,-0.09408 2.394949,0.489204 4.030892,0.0803 1.76698,-0.441157 3.214432,-0.922297 4.514384,-0.241578 0.560098,0.293321 0.504323,1.364462 1.128596,1.773028 1.12322,0.73515 2.980246,0.230826 4.27247,0.483492 2.821657,0.552706 5.491783,0.966984 8.504956,0.966984 1.837538,0 3.170081,1.081893 4.715979,1.209234 0.810748,0.06686 1.788819,-0.71835 2.499106,-0.725406 0.277865,-0.003 1.308351,0.704238 1.854338,0.725406 3.484233,0.136076 8.262706,-1.089957 11.366597,1.611752 1.439724,1.252912 2.547825,5.421225 2.17689,6.689929 -0.17606,0.602433 -1.51633,1.390334 -1.451148,2.014942 0.08635,0.829228 1.864418,1.186723 1.854338,1.531786 -0.03091,1.035862 -2.50885,0.933721 -2.821322,2.014606 -0.456613,1.578153 1.348335,0.710958 1.450812,1.450812 -0.0289,-0.208315 0.690799,0.360183 0.564466,0.322216 -2.406036,1.373198 -3.877008,3.138498 -6.04617,4.433074 0.06418,-0.0383 -1.35539,0.480804 -1.450812,0.56413 -0.245946,0.215706 -0.569506,1.452828 -0.564466,1.450812 -1.547241,0.551698 -3.607878,-0.278537 -5.240125,-0.08064 -0.320536,0.03864 -1.12826,0.725742 -1.12826,0.725742 -1.583529,-0.05544 -5.594597,-2.89692 -6.207446,-0.887018 -1.216626,-0.664256 -2.524977,0.22713 -3.869616,0 -1.283488,-0.216715 -2.109019,-0.987144 -3.143874,-0.886682 0.523139,-0.05074 -0.804364,1.02175 -1.451147,1.12826 -2.102972,0.346743 -4.063819,-1.762277 -5.965532,-2.095244 -2.409732,-0.422342 -1.52305,0.09945 0.08064,1.047622 1.86173,1.100372 4.252982,1.586888 6.368386,1.773028 2.273319,0.200251 5.663475,0.175051 7.094127,0.16094 2.81561,-0.04032 9.609361,-0.83662 5.483384,3.61527" />
  <path
     id="path31"
     style="clip-rule:evenodd;fill:#8b5c29;fill-rule:evenodd;stroke-width:0.335992"
     d="m 112.24344,65.772542 c -4.42871,1.239473 -7.49766,1.383277 -9.91579,-1.692726 2.59856,1.022086 1.28215,-0.909529 0.48349,-2.256856 3.32229,-1.94304 5.03417,-2.859961 8.94847,-2.49877 2.44971,0.226123 6.66607,-0.742541 7.81953,0.805708 0.15489,0.207979 0.67098,0.450565 0.88668,0.645104 -2.30658,0.953208 -2.33312,1.85333 -3.54706,2.579072 -2.28138,1.367486 -3.92438,0.325912 -4.67364,2.41914" />
  <path
     id="path33"
     style="clip-rule:evenodd;fill:#d59758;fill-rule:evenodd;stroke-width:0.335992"
     d="m 102.57024,69.47853 c -1.35102,-0.83662 -3.125731,-1.673575 -4.836936,-3.304478 -1.174963,-1.11986 -1.943712,-2.548161 -3.063236,-3.949582 3.188225,-0.571858 7.614912,3.800402 10.479582,5.561334 -0.98446,0.470388 -1.46157,1.320447 -2.57706,1.696758" />
  <path
     id="path35"
     style="clip-rule:evenodd;fill:#8b5c29;fill-rule:evenodd;stroke-width:0.335992"
     d="m 95.800008,68.188322 c -0.480804,-0.201259 -8.926626,-6.071033 -9.190043,-4.433074 -0.267114,1.663159 6.707065,1.847282 5.884893,4.997204 -0.0803,-0.02688 -0.107181,0 -0.0803,0.08064 -1.393021,-0.812092 -5.965867,-3.866928 -5.885229,-2.014942 0.004,0.0924 2.362021,3.219808 2.741019,3.868944 -1.555641,-0.192188 -3.933118,-1.122548 -5.240125,-1.612088 -0.938425,-0.351448 -3.739587,-1.988063 -2.095916,0.483156 -0.08064,-0.02688 -0.107517,0 -0.08064,0.08064 -2.01427,-0.669968 -4.226103,-1.401085 -6.570317,-2.337494 -3.070627,-1.22637 -3.813169,-0.445861 -5.683298,-0.322216 -0.861819,0.05712 -1.53313,-0.227131 -2.33783,-0.322216 -0.417638,-0.04905 -0.536243,-0.790925 -0.96732,-0.806044 -0.497604,-0.01781 -0.939097,0.663247 -1.450812,0.644768 -2.994022,-0.106846 -6.891861,-0.353463 -9.996424,-0.72507 -1.711541,-0.204955 -3.039716,-0.408902 -5.159151,-0.725742 -0.869547,-0.130029 -2.431572,-0.04771 -3.143874,-0.56413 -0.525827,-0.381351 0.05275,-1.308688 -0.725406,-1.853666 -2.40066,-1.680966 -9.286137,0.935401 -12.495193,0.886682 -2.061645,-0.03158 -3.992589,-1.2808 -5.320428,-2.820986 -1.170259,-1.357742 -1.699782,-2.238712 -1.289872,-3.788306 1.957823,-1.255936 3.773858,0.06115 6.126472,0.644768 2.08046,0.516419 4.652476,0.551363 6.610299,0.08064 1.52641,-0.366903 2.378821,-0.763709 3.788978,-1.208898 1.580169,-0.498611 2.858281,-1.576808 4.353108,-1.854002 1.477355,-0.273833 3.83904,0.07862 5.562677,-0.08064 2.523298,-0.232842 5.512615,0.290633 8.545276,0 2.816282,-0.270137 3.559495,-0.987479 5.804256,-1.773363 1.565721,-0.548003 7.62869,-1.077526 7.335705,-1.611752 -0.592017,-1.079542 -2.740684,-0.313817 -3.547064,-1.289536 2.385877,-0.341368 5.035843,-0.660896 7.01349,-0.886682 2.175546,-0.248298 2.804522,-1.188403 4.595022,-1.612088 3.818209,-0.903146 8.11823,2.390916 10.963743,4.835928 1.076181,0.924649 2.667102,2.260887 3.30515,3.224175 0.915577,1.382606 0.327592,2.816954 0.483492,3.0629 0.541283,0.851739 3.473144,1.241825 3.385784,3.78797 -1.87819,-0.848379 -5.137308,-1.093989 -7.335702,-1.692726 -2.374117,-0.646784 -4.616189,-1.296256 -6.933187,-2.095244 -2.185626,-0.753629 -5.82576,-3.115314 -7.738896,-3.143202 -2.555216,-0.0373 -0.631328,0.638049 0.645104,1.208898 3.309518,1.491803 19.28928,5.906733 16.130959,11.699229" />
  <path
     id="path37"
     style="clip-rule:evenodd;fill:#d59758;fill-rule:evenodd;stroke-width:0.335992"
     d="m 117.56554,57.873378 c -0.85308,0.102814 -6.78299,1.634264 -5.80425,-0.40319 1.01133,-2.106667 5.83617,-0.460308 5.80593,0.40319" />
  <path
     id="path39"
     style="clip-rule:evenodd;fill:#8b5c29;fill-rule:evenodd;stroke-width:0.335992"
     d="m 104.10236,59.80869 c -0.49055,0.322552 -1.09869,0.498948 -1.77336,0.644768 0.0292,-2.130523 4.19284,-4.196536 5.32076,-5.964188 1.68197,-2.636862 -0.18278,-2.528001 -1.53179,-4.433073 1.96589,-0.561106 6.87574,1.308015 6.53,2.740347 -0.49055,2.02939 -6.87439,6.094889 -8.54427,7.008786" />
  <path
     id="path41"
     style="clip-rule:evenodd;fill:#5a3d1c;fill-rule:evenodd;stroke-width:0.335992"
     d="m 118.04937,53.76084 c -1.31641,-0.194875 1.10508,-1.285504 1.12826,-2.176217 0.0292,-1.124564 -1.20654,-1.389998 -2.01528,-2.014942 2.274,-0.475092 6.4114,-0.701887 8.62592,0 v 0.161276 c -2.11339,1.505242 -5.10035,2.570336 -7.73789,4.031899" />
  <path
     id="path43"
     style="clip-rule:evenodd;fill:#e4bc96;fill-rule:evenodd;stroke-width:0.335992"
     d="m 112.72727,55.77679 c -0.78824,0.360519 -1.5123,0.570514 -2.17656,0.886682 0.0514,-0.08366 0.007,-0.167996 -0.0806,-0.161276 1.06207,-0.963624 3.73153,-2.683229 3.95026,-3.868943 0.28593,-1.548922 -1.31037,-1.595289 -2.49911,-2.579072 2.30826,-0.971352 3.73152,0.627632 5.4817,1.370174 -0.72574,1.535481 -3.42039,3.927742 -4.677,4.354451" />
  <path
     id="path45"
     style="clip-rule:evenodd;fill:#e4bc96;fill-rule:evenodd;stroke-width:0.335992"
     d="m 100.95748,59.244224 c -0.36892,-0.298024 -0.69315,-0.898442 -0.88702,-1.370174 1.45216,-1.085589 4.54765,-2.391588 4.03056,-4.19116 -0.34608,-1.204866 -3.2729,-2.716492 -3.86962,-3.627029 2.25786,0.157916 6.95771,0.811755 6.77158,3.143201 -0.14784,1.871474 -4.86852,4.925638 -6.04449,6.04113" />
  <path
     id="path47"
     style="clip-rule:evenodd;fill:#d59758;fill-rule:evenodd;stroke-width:0.335992"
     d="m 99.428718,56.744446 c -1.323135,-1.893985 -4.314469,-4.40149 -5.562678,-6.528653 2.82905,-1.577481 4.812409,0.541282 6.93285,2.014942 2.07139,1.439724 2.41645,1.28416 1.1286,2.901623 -0.57455,0.722382 -1.70684,1.313728 -2.49642,1.6094" />
  <path
     id="path49"
     style="clip-rule:evenodd;fill-rule:evenodd;stroke-width:0.335992"
     d="m 73.470003,66.095094 c -1.434348,0.103485 -2.55656,-0.859467 -3.466426,-0.96732 -0.626624,-0.07425 -3.230895,1.521034 -1.289871,-0.322216 1.317087,-1.249889 5.120512,0.624944 4.757641,1.290208" />
  <path
     id="path51"
     style="clip-rule:evenodd;fill-rule:evenodd;stroke-width:0.335992"
     d="m 78.304923,63.756592 c -1.067781,0.197899 -6.222901,-0.523811 -6.288084,-0.72507 -0.827883,-2.569328 5.426266,0.1559 6.771576,0.483492 -0.181435,0.0504 -0.349431,0.137757 -0.483828,0.241914" />
  <path
     id="path53"
     style="clip-rule:evenodd;fill-rule:evenodd;stroke-width:0.335992"
     d="m 78.869389,61.82128 c -1.210578,0.02722 -4.935717,-0.432421 -4.917574,-1.612088 0.01478,-0.930025 4.619213,1.027463 5.481704,1.370174 -0.231834,0.0672 -0.366231,0.147836 -0.561106,0.241914" />
  <path
     id="path55"
     style="clip-rule:evenodd;fill-rule:evenodd;stroke-width:0.335992"
     d="m 80.804701,59.00231 c -1.728677,-0.215706 -5.965868,-0.01982 -3.869616,-1.612088 1.104741,-0.839307 2.769579,0.429398 4.51472,1.12826 v 0.161276 c -0.218395,0.107518 -0.379671,0.174716 -0.645104,0.322552" />
  <path
     id="path57"
     style="clip-rule:evenodd;fill:#5a3d1c;fill-rule:evenodd;stroke-width:0.335992"
     d="m 96.687026,48.764645 c -1.323135,-0.05645 -2.971846,0.522131 -4.030556,0.40319 -1.477691,-0.166316 -2.850889,-1.267025 -4.51472,-2.014942 -3.834,-1.723637 -8.258674,-3.324974 -11.931063,-4.59435 -1.805283,-0.623936 -5.174943,-1.594616 -7.174765,-0.966984 0.584961,0.833931 2.773275,0.756317 4.030555,1.047958 2.033086,0.47106 3.973774,1.472987 5.884894,2.176218 0.580594,0.213355 3.219472,0.713646 3.305486,1.370174 0.01882,0.143132 -2.521281,1.609064 -2.902296,1.692726 -1.161187,0.254345 -2.134891,-0.126669 -3.385788,0 -1.210242,0.122637 -2.484658,0.746573 -3.788642,0.806044 -3.373356,0.153884 -5.69741,-0.173708 -2.095916,2.256856 -2.825689,1.365806 -6.34957,2.56664 -9.834811,2.820985 -2.103308,0.153549 -3.511449,-0.343719 -5.159488,-0.483492 -1.609736,-0.136412 -2.118763,0.603105 -3.627701,0.805708 -1.517003,0.203611 -2.556561,-0.741533 -3.788642,-0.56413 -1.357743,0.195212 -2.408052,1.500203 -3.547064,1.854002 -2.317334,0.719694 -4.620557,1.493147 -7.255404,1.53145 -4.699179,0.06821 -7.173421,-2.08046 -11.769787,-0.886682 -0.156236,-1.000247 0.816124,-1.303647 1.693062,-1.692726 -0.08064,0.02688 -0.107517,0 -0.08064,-0.08064 -1.20285,-0.07593 -2.760843,0.483492 -3.950254,0 -2.027709,-0.824523 0.237882,-0.702894 0.08064,-2.014941 -0.135405,-1.131284 -3.106579,-0.611505 -0.483492,-1.934304 1.889953,-0.953209 4.619213,-0.415958 1.451148,-0.725406 -3.0461,-0.297689 -7.078,0.224778 -4.998212,-3.546392 1.417549,-2.57 4.973685,-3.792338 7.900508,-4.674988 4.3437,-1.310031 8.061111,-2.952359 12.737107,-2.901624 -0.805708,2.255176 4.472721,-0.80974 6.126808,-0.56413 0.519779,0.07694 0.697854,0.915241 1.37051,1.047622 0.507347,0.100126 1.397053,-0.222762 2.015278,-0.241914 1.600664,-0.04906 3.046436,0.205627 4.595021,0.322552 4.93807,0.372279 10.394574,0.15422 15.478128,0.56413 3.765794,0.303401 6.497742,1.201842 9.996087,2.256856 4.024844,1.213938 7.583667,2.5868 11.124683,3.868608 1.498523,0.540946 7.287659,2.311622 6.528318,3.060884" />
  <path
     id="path59"
     style="clip-rule:evenodd;fill-rule:evenodd;stroke-width:0.335992"
     d="m 37.192985,50.780595 c -0.320872,-0.151869 -0.516083,-0.09341 -0.564466,-0.483492 1.346655,-0.633009 2.525314,-1.227714 3.950254,-1.370174 -0.544306,0.903817 -2.190665,1.370846 -3.386796,1.854674" />
  <path
     id="path61"
     style="clip-rule:evenodd;fill-rule:evenodd;stroke-width:0.335992"
     d="m 32.919844,52.232078 c -0.432758,0.0252 -0.56077,0.06787 -0.96732,-0.08064 1.477691,-1.027127 2.948326,-2.387221 4.595021,-2.579072 -0.695502,0.940776 -2.41578,1.804275 -3.628037,2.661053" />
  <path
     id="path63"
     style="clip-rule:evenodd;fill:#d59758;fill-rule:evenodd;stroke-width:0.335992"
     d="m 35.096397,37.804597 c -3.972765,0.384375 -9.14334,2.655006 -13.140297,4.110522 0.281897,-1.060054 0.969,-2.667102 1.7737,-3.304478 2.01259,-1.594952 1.132964,0.811756 1.773364,0.644768 1.258625,-0.327592 1.242497,-2.838793 1.93464,-3.546392 0.927673,-0.948168 1.61612,-0.198907 2.499106,-1.934304 2.352277,-4.622573 5.867422,-7.0696 8.222723,-11.606159 0.51306,-0.988151 1.19949,-3.012165 1.209234,-4.513712 0.01176,-1.833506 -1.176643,-3.806113 -0.564466,-5.158479 3.891455,5.114128 0.676687,14.185567 -1.450812,19.827539 -0.631664,1.679286 -1.132292,4.212663 -2.257864,5.486071" />
  <path
     id="path65"
     style="clip-rule:evenodd;fill-rule:evenodd;stroke-width:0.335992"
     d="m 29.93691,19.990992 c -1.875506,0.604785 -4.61451,1.548922 -6.691274,1.208898 -1.358078,-0.222426 -2.145979,-0.697855 -3.224512,-0.966984 -1.055013,-0.263417 -2.541441,-0.576898 -3.143874,-1.370174 -1.301295,-1.712885 3.058196,0.56077 3.950254,0.886682 2.028382,0.740526 4.074571,0.47946 6.449024,0.402854 -0.611169,-1.922544 0.982439,-0.415622 2.176554,-0.966984 -0.462325,-1.149091 1.557993,-1.453836 2.660382,-2.014942 0.373286,0.870555 -1.670551,2.248456 -2.176554,2.82065" />
  <path
     id="path67"
     style="clip-rule:evenodd;fill-rule:evenodd;stroke-width:0.335992"
     d="m 32.758568,16.525238 c -4.996532,0.328936 3.53396,-2.124475 0,0" />
  <path
     id="path69"
     style="clip-rule:evenodd;fill-rule:evenodd;stroke-width:0.335992"
     d="m 33.080784,14.91315 c -1.23645,-0.340023 -0.718015,-0.745229 0.322552,-1.12826 v -0.161276 c -0.276186,-0.20361 -0.307769,-0.399494 -0.564466,-0.644767 1.086597,-0.708607 2.017293,-0.296009 0.806044,0.644767 0.635024,0.681056 0.362871,1.092981 -0.56413,1.289536" />
  <path
     id="path71"
     style="clip-rule:evenodd;fill-rule:evenodd;stroke-width:0.335992"
     d="m 33.564612,12.092165 c -0.503988,-0.35044 -0.72843,-0.855771 -0.806044,-1.612088 0.990503,-0.6178889 1.9044,1.026118 0.806044,1.612088" />
  <path
     id="path73"
     style="clip-rule:evenodd;fill:#edb500;fill-rule:evenodd;stroke-width:0.335992"
     d="m 11.395547,21.60308 c -2.1439624,0.180764 -4.1458006,0.532211 -6.2880834,0.644768 0.2990326,-1.233425 2.495746,-2.376805 4.0308918,-2.820986 1.1413636,-0.33028 1.8573616,-0.251994 2.4991056,-0.161276 -0.170012,-0.02385 -0.167996,0.968664 1.128596,0.40319 -0.01579,0.07896 -0.03696,0.191851 0.08064,0.16094 -0.391095,0.87425 -0.825532,1.405117 -1.451148,1.773364" />
  <path
     id="path75"
     style="clip-rule:evenodd;fill-rule:evenodd;stroke-width:0.335992"
     d="m 32.033162,9.9965848 c -0.601425,-1.2586247 1.078197,-0.8624906 0,0" />
  <path
     id="path77"
     style="clip-rule:evenodd;fill:#ffbf00;fill-rule:evenodd;stroke-width:0.335992"
     d="M 13.088609,18.056688 C 9.3856452,17.57958 7.1177016,19.542107 4.4626956,21.19989 1.7021883,22.923527 0.16032261,22.445747 2.4474178,19.749078 c 1.686006,-1.988062 4.50464,-5.280781 6.3683856,-7.414999 1.2048656,-1.379582 1.2109136,-1.623512 1.9349756,-0.322552 0.821499,1.475675 1.259296,3.833664 1.93464,5.158479 0.205627,0.403526 0.38135,0.554387 0.40319,0.886682" />
  <path
     id="path79"
     style="clip-rule:evenodd;fill-rule:evenodd;stroke-width:0.335992"
     d="m 33.322698,8.5457728 c -3.151266,-1.1568192 1.189074,-2.1883135 0,0" />
  <path
     id="path81"
     style="clip-rule:evenodd;fill-rule:evenodd;stroke-width:0.335992"
     d="m 31.146144,7.5787889 c -0.821836,0.0037 -2.65299,-1.0533338 -1.854002,-1.6927259 0.345399,-0.2765211 1.890961,1.084581 2.418468,1.3701739 -0.194876,0.2452739 -0.32692,0.1878193 -0.564466,0.322552" />
  <path
     id="path83"
     style="clip-rule:evenodd;fill-rule:evenodd;stroke-width:0.335992"
     d="M 7.1230775,16.84779 C 6.3731441,16.175807 7.7013191,15.188328 8.6548634,14.832848 8.7271016,15.715162 7.9919519,16.295084 7.1230775,16.84779" />
  <path
     id="path85"
     style="clip-rule:evenodd;fill-rule:evenodd;stroke-width:0.335992"
     d="M 27.921632,6.6114689 C 25.17826,6.2677495 25.306273,4.517569 28.324822,6.208615 28.207897,6.3651871 28.039901,6.4649766 27.921632,6.6114689" />
  <path
     id="path87"
     style="clip-rule:evenodd;fill-rule:evenodd;stroke-width:0.335992"
     d="M 17.522354,10.883267 C 14.190325,10.967597 13.77168,7.8522861 16.31312,6.5308309 16.708247,6.32554 20.469001,5.482537 20.908142,5.724787 c 0.761693,0.4203255 -0.916921,1.9396798 -1.451148,2.6600458 -0.751949,1.0136868 -0.921961,1.9826862 -1.93464,2.4984342" />
  <path
     id="path89"
     style="clip-rule:evenodd;fill:#ffffff;fill-rule:evenodd;stroke-width:0.335992"
     d="m 16.87725,10.077223 c -1.84997,-0.1868116 -1.067109,-2.8952402 0.644768,-2.8209861 2.105324,0.09139 0.386391,2.5028018 -0.644768,2.8209861" />
  <path
     id="path91"
     style="clip-rule:evenodd;fill-rule:evenodd;stroke-width:0.335992"
     d="M 24.535844,5.724787 C 22.400617,6.2109669 22.137536,4.7903942 20.98878,4.0320611 c 0.868539,-0.203947 2.108012,-0.017136 3.143874,0.161276 -0.31516,0.6645914 0.154556,1.0173827 0.887018,1.2895359 -0.129021,0.1186051 -0.301049,0.1028134 -0.483828,0.241914" />
  <path
     id="path93"
     style="clip-rule:evenodd;fill-rule:evenodd;stroke-width:0.335992"
     d="m 16.87725,9.3518168 c -1.655094,-0.199915 -1.627207,-2.5622723 0,-2.5790719 1.799236,-0.018479 1.685671,2.3549655 0,2.5790719" />
  <path
     id="path95"
     style="fill:none;stroke-width:0;stroke-miterlimit:10"
     d="m 16.87725,9.3518168 c -1.655094,-0.199915 -1.627207,-2.5622723 0,-2.5790719 1.793188,-0.018479 1.676599,2.3539575 0,2.5790719" />
  <path
     id="path97"
     style="clip-rule:evenodd;fill:#ffffff;fill-rule:evenodd;stroke-width:0.335992"
     d="m 17.522354,8.3038589 c -1.007639,-1.1470755 0.919274,-1.3137274 0,0" />
  <path
     id="path99"
     style="fill:none;stroke-width:0;stroke-miterlimit:10"
     d="m 17.522354,8.3038589 c -1.007639,-1.1470755 0.919274,-1.3137274 0,0" />
  <metadata
     id="metadata2132">
    <rdf:RDF>
      <cc:Work>
        <dc:format>image/svg+xml</dc:format>
        <dc:type
           rdf:resource="http://purl.org/dc/dcmitype/StillImage" />
        <cc:license
           rdf:resource="http://creativecommons.org/licenses/publicdomain/" />
        <dc:publisher>
          <cc:Agent
             rdf:about="http://openclipart.org/">
            <dc:title>Openclipart</dc:title>
          </cc:Agent>
        </dc:publisher>
        <dc:title>Architetto -- Anatra</dc:title>
        <dc:date>2006-12-26T00:00:00</dc:date>
        <dc:description />
        <dc:source>https://openclipart.org/detail/24747/-by--24747</dc:source>
        <dc:creator>
          <cc:Agent>
            <dc:title>Anonymous</dc:title>
          </cc:Agent>
        </dc:creator>
      </cc:Work>
      <cc:License
         rdf:about="http://creativecommons.org/licenses/publicdomain/">
        <cc:permits
           rdf:resource="http://creativecommons.org/ns#Reproduction" />
        <cc:permits
           rdf:resource="http://creativecommons.org/ns#Distribution" />
        <cc:permits
           rdf:resource="http://creativecommons.org/ns#DerivativeWorks" />
      </cc:License>
    </rdf:RDF>
  </metadata>
</svg>
