<svg width="140" height="118.824" xmlns="http://www.w3.org/2000/svg"><path d="M65.89 117.515c-2.193.507-3.77.105-5.925.968-1.382.553-2.749.3-4.232.16-4.207-.396-8.917-.08-13.383-.08-1.114 0-8.07-2.321-8.142-2.982-.235-2.168 6.762-2.947 6.61-6.529-.047-1.116-1.606-.398-1.45-1.531.125-.91 1.448-1.474 2.176-1.693 2.598-.779 5.63 1.57 8.223 2.015 2.273.39 4.631-.09 6.288-.322 2.44-.34 3.935 1.636 5.804-.967 1.366-1.903 4.602-9.44 3.063-10.8-1.323-1.172-7.268-.475-9.27-.807-8.122-1.347-15.995-3.823-23.46-7.254-3.617-1.663-7.108-3.772-9.915-6.69-3.576-3.717-7.628-6.414-10.722-10.316-3.753-4.734-6.36-9.15-6.933-15.476-.643-7.1 1.056-14 6.288-19.021 2.153-2.066 4.806-4.382 7.376-5.924 1.243-.746 3.997-2.167 4.152-3.829.322-3.448-6.113-3.8-8.384-3.869-3.595-.11-7.143.578-10.883 1.048-5.588.703-2.536-3.156-.323-5.4C8.947 12.038 13.404-.051 23.732 0c8.398.042 16.53 7.19 17.614 15.878.483 3.862-.027 7.515-1.169 11.203a116.985 116.985 0 01-1.773 5.24c-.887 2.436-3.174 5.238.362 5.238 9.043 0 17.83.15 27.45.726 9.456.566 18.717 4.477 27.49 7.657 2.608.945 5.425 3.063 8.464 3.063 4.3 0 8.96.187 13.22-.524 2.6-.434 7.561-.927 10.077-.121 5.513 1.764-3.938 5.105-6.086 5.964-6.413 2.565 5.337 3.115 7.215 4.272 3.966 2.441-3.837.764-5.159 1.047.881.692.896 2.033 1.572 2.217 1.984.54 4.14.892 6.127 1.29 1.047.21 11.397 1.204 10.843 2.78-.356 1.011-7.608 1.888-8.868 2.257a43.272 43.272 0 00-6.369 2.418c-2.47 1.172-5.662.916-8.061 1.935-3.214 1.365-6.34 4.063-9.432 6.125-2.243 1.496-5.243 1.916-7.739 2.902-2.755 1.087-5.108 2.983-7.673 4.137-4.982 2.241-8.527 4.815-13.408 6.985-1.388.617-3.991 1.374-4.796 2.5-.413.577-1.004 2.995-1.37 3.868-.993 2.367-3.496 6.5-3.306 9.027.165 2.197 4.135 6.346.726 7.415-1.156.363-1.624-.964-2.66-.322-.325.2.162 1.6-.726 2.176-.098.05-.302.118-.41.151" clip-rule="evenodd" fill-rule="evenodd"/><path d="M65.567 116.551c-.97.216-1.909-.118-2.902 0-1.449.172-2.805 1.175-4.111 1.37-.955.143-3.047-.602-4.272-.564-5.051.158-11.452 1.249-15.801-.967-1.39-.708-3.207-1.419-.806-2.177 1.654-.522 3.548.757 5.643.887 3.719.23 8.403.271 11.93-.483 2.486-.532 4.114-1.74.968-2.338-2.555-.486-5.06-.04-7.658-.806-.931-.274-5.495-3.311-5.804-2.015-.158.658 4.326 2.681 5.159 2.902 2.342.621 4.545 1.192 6.933 1.048v.16c-2.674.878-6.392.444-9.432.404-1.305-.018-2.729.333-3.95-.242-2.053-.966-1.244-.27-.645-2.177.576-1.83 1.614-2.447.322-4.513 2.99-1.718 5.064 1.69 7.336 2.66 2.033.867 6.609 1.305 8.948 1.128 5.464-.414 7.296-7.047 8.546-12.332.546-2.312 1.156-9.374 5.32-7.496.189.085.394-.074.565-.08-.727 2.073 1.355 4.378.16 6.448-1.997 3.463-1.934-.93-2.579-2.096-1.5.697-.667 3.01-.16 4.03.388.783 1.032.032 1.208 1.128.22 1.366-1.362 2.537-1.773 3.708-.29.825-.902 3.328-.887 3.788.056 1.728 2.458 3.976 2.177 5.48-.257 1.38-1.574 1.207-2.5.162-1.068-1.209.208-4.748-.967-4.192-2.785 1.324 1.146 5.534-.957 7.177" clip-rule="evenodd" fill="#ff7f00" fill-rule="evenodd"/><path d="M61.055 115.906c-2.187-.615 1.058-2.187 0 0M62.426 115.26c-.49-.259-.842-.59-.967-1.127 1.717-1.015 2.6-.118.967 1.129M59.523 116.39c-2.55-.914.914-2.067 0 0M62.507 111.874c-1.618.31-.98-1.155-.162-1.532 1.415-.648.961 1.13.162 1.532M63.874 110.18c-2.097-1.28 1.653-1.972 0 0M64.922 107.845c-1.673-1.36 1.267-1.565 0 0" clip-rule="evenodd" fill-rule="evenodd"/><path d="M58.878 109.539c-2.014.499-5.769.497-7.256-.484 1.657-.252 3.932.335 5.079.08.748-.165-.195-1.188 1.129-.966.853.14 1.236.81 1.045 1.37" clip-rule="evenodd" fill="#963" fill-rule="evenodd"/><path d="M66.051 106.394c-2.802-.867 1.156-2.19 0 0M66.938 104.459c-.86-.395-1.769-1.741 0-1.532-.407-.763.116-3.457 1.048-2.82 1.327.905-.103 3.053-.806 2.9.03.113-.084.104-.161.081.454.786.023.938-.08 1.371" clip-rule="evenodd" fill-rule="evenodd"/><path d="M73.954 93.58c-.88.161-1.044-.401-.806-1.451.329-1.45.861-.64 1.612-1.37.305-.296-.103-.912.08-1.048.156-.116 1.1-.143 1.21-.323.41-.672 1.171-.595.322-1.45 1.272-.711 6.713-3.052 6.369-4.756-.382-1.895-2.449.244-1.29-1.692 1.142-1.906 2.085-.504 1.532-2.418-.152-.525-1.068-.245-1.21-.887-.022-.104.725-.892.806-1.29.282-1.382.127-1.966-.16-3.304-.485-2.256-.71-.992.725-1.693.476-.231 1.17-.064 1.612-.16.571-.126-.064-.96 1.048-1.048 1.583-.125 3.662 2.54 4.515 2.418 1.737-.25.063-2.044.08-3.144.027-1.734.433-.586 1.855.242 2.055 1.197 1.443 1.134 2.257-.08.342-.51-1.078-1.145-.08-1.37.666-.151.939.882 1.45 1.128 2.291 1.101.843.86 1.693-.887.425-.872-.822-1.166.403-1.21.396-.013 1.535 1.34 1.855 1.533 1.478.888 3.809 1.271 5.481 1.45 2.78.298 7.321-.124 9.594 1.29-1.953 1.66-4.688 3.743-7.497 5.4-3.547 2.092-7.585 2.809-11.448 4.675-7.93 3.833-13.56 7.717-22.017 11.454" clip-rule="evenodd" fill="#ffc" fill-rule="evenodd"/><path d="M135.864 65.773c-3.721.748-8.602-1.102-12.012.08 2.346.294 4.806.351 6.852.967v.161c-1.766.427-11.635.444-12.011-.564-.132.522-.75.84-1.774.886.027.081 0 .108-.08.081.783.23 1.973.337 2.821.403-1.195.446-3.4.495-4.917.726 3.017.717 6.528.261 9.27.725v.16c-2.373.6-6.204-1.095-8.303.081 2.051.4 3.987.757 5.885 1.128-.006.004-.192.089-.08.162-3.121.719-7.183-.31-10.4-.645-1.515-.158-3.473.09-4.837-.323-2.549-.771-.68-.193.565-.886 1.4-.78 2.256-1.186 4.595-1.854 2.02-.577 1.692-1.269 2.902-2.016 1.048-.646 2.771-.224 3.87-.886 1.419-.855.417-1.585 2.177-1.854 2.377-.363 6.274 1.367 8.303 1.773 1.411.282 7.646.951 7.336 1.612-.003.014-.141.064-.158.08" clip-rule="evenodd" fill="#d59758" fill-rule="evenodd"/><path d="M65.084 94.547c-7.372.532-14.056-1.966-21.04-3.466-6.4-1.374-12.183-4.318-17.252-7.656-5.584-3.677-11.386-9.55-16.043-15.073-5.004-5.936-6.038-12.954-4.756-20.23 1.762-9.999 9.044-12.43 15.72-19.102 3.418-3.416 1.09-4.755-2.297-6.69-.889-.508-6.041-.512-6.248-.887-.538-.973 1.772-1.634 1.854-2.498.144-1.52-1.974-2.355-2.499-3.668-.618-1.546-1.284-3.563-1.128-5.037.465-4.42 5.564-6.65 9.35-8.544 3.271-1.635 8.332-.07 11.367 1.773 3.671 2.23 3.944 5.584 4.595 8.625.728 3.398 1.595 4.494 1.13 8.14-.082-.027-.108 0-.082.08-1.148-.644-1.192 1.95-1.773 2.822-.144-.08-.146-.265-.242-.322-.694.67-1.012 2.12-1.934 2.901-.104-.09-.083-.393-.162-.483-1.14 1.172-1.244 3.295-2.418 4.594.116-.764.217-1.855.08-2.58-1.124 1.175-1.324 3.598-2.096 5.24-.609 1.297-.495 2.398-1.37 1.37-.58-.683 1.14-3.3-.323-1.37-.842 1.111-.985 2.66-1.934 3.707-1.855 2.048-11.4 11.333-8.304 13.863.457.373 2.304.209 2.903.242-1.167 1.798.68 1.339.967 2.338.189.653-1.18.823-.08 2.015.633.687 1.996.316 2.74.806.103.067.59 1.685.645 1.773.137.22.95-.418 1.129-.08.11.208-.391.758-.242.967.425.594.627 1.455 1.128 2.095 1.356 1.73 3.716 3.684 5.643 4.03 1.683.302 2.635-.427 4.354-.564 1.178-.094 2.395.49 4.03.08 1.767-.44 3.215-.922 4.515-.241.56.293.504 1.364 1.128 1.773 1.124.735 2.98.23 4.273.483 2.822.553 5.492.967 8.505.967 1.837 0 3.17 1.082 4.716 1.21.81.066 1.789-.719 2.499-.726.278-.003 1.308.704 1.854.725 3.485.137 8.263-1.09 11.367 1.612 1.44 1.253 2.548 5.421 2.177 6.69-.176.603-1.517 1.39-1.451 2.015.086.83 1.864 1.187 1.854 1.532-.031 1.036-2.509.934-2.821 2.014-.457 1.579 1.348.711 1.45 1.451-.028-.208.691.36.565.322-2.406 1.374-3.877 3.139-6.046 4.434.064-.039-1.356.48-1.451.564-.246.215-.57 1.453-.565 1.45-1.547.552-3.607-.278-5.24-.08-.32.038-1.128.726-1.128.726-1.583-.056-5.595-2.897-6.207-.887-1.217-.665-2.525.227-3.87 0-1.283-.217-2.109-.988-3.144-.887.523-.05-.804 1.022-1.451 1.128-2.103.347-4.064-1.762-5.966-2.095-2.41-.422-1.523.1.081 1.048 1.862 1.1 4.253 1.586 6.368 1.773 2.274.2 5.664.175 7.095.16 2.815-.04 9.609-.836 5.483 3.616" clip-rule="evenodd" fill="#e4bc96" fill-rule="evenodd"/><path d="M112.243 65.773c-4.428 1.239-7.497 1.383-9.915-1.693 2.598 1.022 1.282-.91.483-2.257 3.322-1.943 5.034-2.86 8.949-2.499 2.45.226 6.666-.742 7.82.806.154.208.67.45.886.645-2.307.953-2.333 1.853-3.547 2.58-2.282 1.367-3.925.325-4.674 2.418" clip-rule="evenodd" fill="#8b5c29" fill-rule="evenodd"/><path d="M102.57 69.479c-1.35-.837-3.125-1.674-4.837-3.305-1.175-1.12-1.943-2.548-3.063-3.95 3.188-.571 7.615 3.8 10.48 5.562-.985.47-1.462 1.32-2.577 1.697" clip-rule="evenodd" fill="#d59758" fill-rule="evenodd"/><path d="M95.8 68.188c-.48-.2-8.927-6.07-9.19-4.433-.267 1.663 6.707 1.848 5.885 4.997-.08-.026-.107 0-.08.081-1.393-.812-5.966-3.867-5.886-2.015.004.093 2.362 3.22 2.741 3.87-1.555-.193-3.933-1.123-5.24-1.613-.938-.351-3.74-1.988-2.096.483-.08-.027-.107 0-.08.08-2.015-.67-4.226-1.4-6.57-2.337-3.071-1.226-3.814-.446-5.684-.322-.862.057-1.533-.227-2.338-.322-.417-.05-.536-.791-.967-.806-.498-.018-.94.663-1.45.645-2.995-.107-6.893-.354-9.997-.725-1.712-.205-3.04-.41-5.16-.726-.869-.13-2.431-.048-3.143-.564-.526-.382.052-1.309-.726-1.854-2.4-1.681-9.286.935-12.495.887-2.062-.032-3.993-1.281-5.32-2.821-1.17-1.358-1.7-2.239-1.29-3.789 1.958-1.256 3.774.062 6.126.645 2.08.517 4.653.552 6.61.08 1.527-.366 2.38-.763 3.79-1.208 1.58-.499 2.858-1.577 4.353-1.854 1.477-.274 3.839.079 5.562-.08 2.524-.234 5.513.29 8.546 0 2.816-.27 3.559-.988 5.804-1.774 1.566-.548 7.628-1.078 7.336-1.612-.593-1.08-2.741-.314-3.548-1.29 2.386-.34 5.036-.66 7.014-.886 2.175-.248 2.804-1.188 4.595-1.612 3.818-.903 8.118 2.39 10.964 4.836 1.076.924 2.667 2.26 3.305 3.224.915 1.383.327 2.817.483 3.063.542.852 3.473 1.242 3.386 3.788-1.878-.849-5.137-1.094-7.336-1.693-2.374-.647-4.616-1.296-6.933-2.095-2.185-.754-5.826-3.115-7.739-3.143-2.555-.038-.631.638.645 1.209 3.31 1.491 19.29 5.906 16.131 11.699" clip-rule="evenodd" fill="#8b5c29" fill-rule="evenodd"/><path d="M117.566 57.873c-.854.103-6.783 1.635-5.805-.403 1.012-2.106 5.836-.46 5.806.403" clip-rule="evenodd" fill="#d59758" fill-rule="evenodd"/><path d="M104.102 59.809c-.49.322-1.098.499-1.773.644.03-2.13 4.193-4.196 5.32-5.964 1.683-2.637-.182-2.528-1.531-4.433 1.966-.56 6.876 1.308 6.53 2.74-.49 2.03-6.874 6.095-8.544 7.01" clip-rule="evenodd" fill="#8b5c29" fill-rule="evenodd"/><path d="M118.05 53.76c-1.317-.194 1.104-1.285 1.128-2.175.029-1.125-1.207-1.39-2.016-2.015 2.274-.475 6.412-.702 8.626 0v.161c-2.113 1.505-5.1 2.57-7.738 4.032" clip-rule="evenodd" fill="#5a3d1c" fill-rule="evenodd"/><path d="M112.727 55.777c-.788.36-1.512.57-2.176.886.051-.083.007-.168-.08-.16 1.061-.964 3.73-2.684 3.95-3.87.285-1.549-1.311-1.595-2.5-2.579 2.309-.971 3.732.628 5.482 1.37-.726 1.536-3.42 3.928-4.677 4.355M100.957 59.244c-.368-.298-.693-.898-.887-1.37 1.453-1.086 4.548-2.392 4.031-4.191-.346-1.205-3.273-2.717-3.87-3.627 2.258.158 6.958.812 6.772 3.143-.148 1.872-4.869 4.926-6.045 6.041" clip-rule="evenodd" fill="#e4bc96" fill-rule="evenodd"/><path d="M99.429 56.744c-1.323-1.894-4.315-4.401-5.563-6.528 2.83-1.578 4.812.541 6.933 2.015 2.071 1.44 2.416 1.284 1.128 2.901-.574.723-1.706 1.314-2.496 1.61" clip-rule="evenodd" fill="#d59758" fill-rule="evenodd"/><path d="M73.47 66.095c-1.434.104-2.557-.86-3.466-.967-.627-.074-3.231 1.52-1.29-.322 1.317-1.25 5.12.625 4.757 1.29M78.305 63.757c-1.068.197-6.223-.524-6.288-.725-.828-2.57 5.426.155 6.771.483-.181.05-.349.138-.483.242M78.87 61.821c-1.211.028-4.936-.432-4.918-1.612.015-.93 4.619 1.028 5.482 1.37-.232.068-.367.148-.562.242M80.805 59.002c-1.729-.215-5.966-.02-3.87-1.612 1.105-.84 2.77.43 4.515 1.128v.162c-.219.107-.38.174-.645.322" clip-rule="evenodd" fill-rule="evenodd"/><path d="M96.687 48.765c-1.323-.057-2.972.522-4.03.403-1.478-.166-2.851-1.267-4.515-2.015-3.834-1.724-8.259-3.325-11.931-4.594-1.806-.624-5.175-1.595-7.175-.967.585.833 2.773.756 4.03 1.048 2.034.47 3.974 1.473 5.885 2.176.581.213 3.22.713 3.306 1.37.019.143-2.521 1.609-2.902 1.693-1.162.254-2.135-.127-3.386 0-1.21.122-2.485.746-3.789.806-3.373.154-5.697-.174-2.096 2.257-2.825 1.365-6.35 2.566-9.835 2.82-2.103.154-3.511-.343-5.16-.483-1.609-.136-2.118.603-3.627.806-1.517.203-2.556-.742-3.788-.564-1.358.195-2.408 1.5-3.547 1.854-2.318.72-4.621 1.493-7.256 1.531-4.7.068-7.173-2.08-11.77-.887-.156-1 .816-1.303 1.693-1.692-.08.027-.107 0-.08-.081-1.203-.076-2.761.484-3.95 0-2.028-.825.237-.703.08-2.015-.135-1.131-3.106-.611-.483-1.934 1.89-.953 4.619-.416 1.45-.726-3.045-.297-7.077.225-4.997-3.546 1.417-2.57 4.973-3.792 7.9-4.675 4.344-1.31 8.061-2.952 12.737-2.902-.806 2.256 4.473-.81 6.127-.564.52.077.698.915 1.37 1.048.508.1 1.398-.223 2.016-.242 1.6-.05 3.046.206 4.595.322 4.938.373 10.394.155 15.478.565 3.766.303 6.498 1.201 9.996 2.256 4.025 1.214 7.584 2.587 11.125 3.87 1.498.54 7.287 2.31 6.528 3.06" clip-rule="evenodd" fill="#5a3d1c" fill-rule="evenodd"/><path d="M37.193 50.78c-.32-.151-.516-.093-.564-.483 1.346-.633 2.525-1.228 3.95-1.37-.545.904-2.19 1.37-3.387 1.855M32.92 52.232c-.433.025-.56.068-.967-.08 1.477-1.028 2.948-2.388 4.595-2.58-.696.941-2.416 1.805-3.628 2.661" clip-rule="evenodd" fill-rule="evenodd"/><path d="M35.096 37.805c-3.972.384-9.143 2.655-13.14 4.11.282-1.06.97-2.667 1.774-3.304 2.012-1.595 1.133.811 1.773.644 1.259-.327 1.243-2.838 1.935-3.546.927-.948 1.616-.199 2.499-1.934 2.352-4.623 5.867-7.07 8.223-11.606.513-.989 1.2-3.013 1.209-4.514.012-1.834-1.177-3.806-.565-5.159 3.892 5.114.677 14.186-1.45 19.828-.632 1.68-1.133 4.213-2.258 5.486" clip-rule="evenodd" fill="#d59758" fill-rule="evenodd"/><path d="M29.937 19.991c-1.876.605-4.615 1.549-6.691 1.209-1.358-.223-2.146-.698-3.225-.967-1.055-.264-2.541-.577-3.144-1.37-1.301-1.713 3.058.56 3.95.886 2.029.74 4.075.48 6.45.403-.612-1.922.982-.415 2.176-.967-.462-1.149 1.558-1.454 2.66-2.015.374.87-1.67 2.249-2.176 2.821M32.759 16.525c-4.997.33 3.534-2.124 0 0M33.08 14.913c-1.236-.34-.717-.745.323-1.128v-.161c-.276-.204-.307-.4-.564-.645 1.086-.709 2.017-.296.806.645.635.68.363 1.093-.564 1.29M33.565 12.092c-.504-.35-.729-.856-.806-1.612.99-.618 1.904 1.026.806 1.612" clip-rule="evenodd" fill-rule="evenodd"/><path d="M11.396 21.603c-2.144.18-4.146.532-6.289.645.3-1.234 2.496-2.377 4.031-2.821 1.142-.33 1.858-.252 2.5-.161-.17-.024-.169.968 1.128.403-.016.079-.037.192.08.16-.39.875-.825 1.406-1.45 1.774" clip-rule="evenodd" fill="#edb500" fill-rule="evenodd"/><path d="M32.033 9.997c-.601-1.259 1.078-.863 0 0" clip-rule="evenodd" fill-rule="evenodd"/><path d="M13.089 18.057c-3.703-.477-5.971 1.485-8.626 3.143-2.76 1.724-4.303 1.246-2.016-1.45a803.762 803.762 0 016.369-7.416c1.205-1.38 1.21-1.623 1.935-.322.821 1.475 1.26 3.833 1.934 5.158.206.404.382.554.404.887" clip-rule="evenodd" fill="#ffbf00" fill-rule="evenodd"/><path d="M33.323 8.546c-3.152-1.157 1.189-2.189 0 0M31.146 7.579c-.822.003-2.653-1.054-1.854-1.693.346-.276 1.891 1.085 2.419 1.37-.195.246-.327.188-.565.323M7.123 16.848c-.75-.672.578-1.66 1.532-2.015.072.882-.663 1.462-1.532 2.015M27.922 6.611c-2.744-.343-2.616-2.093.403-.402-.117.156-.285.256-.403.402M17.522 10.883c-3.332.085-3.75-3.03-1.209-4.352.395-.205 4.156-1.048 4.595-.806.762.42-.917 1.94-1.451 2.66-.752 1.014-.922 1.983-1.935 2.498" clip-rule="evenodd" fill-rule="evenodd"/><path d="M16.877 10.077c-1.85-.187-1.067-2.895.645-2.82 2.105.09.386 2.502-.645 2.82" clip-rule="evenodd" fill="#fff" fill-rule="evenodd"/><path d="M24.536 5.725c-2.135.486-2.398-.935-3.547-1.693.868-.204 2.108-.017 3.144.161-.316.665.154 1.018.887 1.29-.13.118-.301.103-.484.242M16.877 9.352c-1.655-.2-1.627-2.562 0-2.58 1.8-.018 1.686 2.356 0 2.58" clip-rule="evenodd" fill-rule="evenodd"/><path d="M16.877 9.352c-1.655-.2-1.627-2.562 0-2.58 1.793-.018 1.677 2.355 0 2.58" fill="none"/><path d="M17.522 8.304c-1.007-1.147.92-1.314 0 0" clip-rule="evenodd" fill="#fff" fill-rule="evenodd"/><path d="M17.522 8.304c-1.007-1.147.92-1.314 0 0" fill="none"/></svg>