<svg width="132.328" height="91.622" viewBox="0 0 169.379 117.276" class="prefix__icon" xmlns="http://www.w3.org/2000/svg"><path d="M30.203 114.212a3.075 3.075 0 01-3.064 3.064H12.615a3.075 3.075 0 01-3.064-3.064v-3.461a3.075 3.075 0 013.064-3.064h14.524a3.075 3.075 0 013.064 3.064z" fill="#a4a9ad"/><path d="M144.51 63.47v26.345H24.85V63.47h-9.966v44.217h9.967V95.262h119.658v12.425h9.967V63.47z" fill="#333e48"/><path d="M139.157 114.212a3.075 3.075 0 003.064 3.064h14.525a3.075 3.075 0 003.064-3.064v-3.461a3.075 3.075 0 00-3.064-3.064H142.22a3.075 3.075 0 00-3.064 3.064z" fill="#a4a9ad"/><path d="M14.884 9.002h9.967v51.31h-9.967zm129.625 0h9.967v51.31h-9.967z" fill="#333e48"/><path d="M169.38 64.926c0-2.534-2.081-4.596-4.596-4.596H4.596C2.06 60.33 0 62.41 0 64.926v8.813c0 2.535 2.08 4.596 4.596 4.596h160.188c2.534 0 4.595-2.08 4.595-4.596z" fill="#ffb819"/><path d="M160.415 31.83c0-2.535-2.08-4.596-4.596-4.596H13.541c-2.534 0-4.595 2.08-4.595 4.596v8.813c0 2.534 2.08 4.595 4.595 4.595H155.82c2.534 0 4.596-2.08 4.596-4.595z" fill="#d68231"/><path d="M146.892 36.236a2.61 2.61 0 105.22 0 2.61 2.61 0 10-5.22 0zM17.267 36.236a2.61 2.61 0 105.22 0 2.61 2.61 0 10-5.22 0z" fill="#333e48"/><path d="M160.415 4.596c0-2.535-2.08-4.596-4.596-4.596H13.541c-2.534 0-4.595 2.08-4.595 4.596v8.813c0 2.534 2.08 4.596 4.595 4.596H155.82c2.534 0 4.596-2.08 4.596-4.596z" fill="#d68231"/><path d="M146.892 9.002a2.61 2.61 0 105.22 0 2.61 2.61 0 10-5.22 0zM17.267 9.002a2.61 2.61 0 105.22 0 2.61 2.61 0 10-5.22 0z" fill="#333e48"/></svg>