<svg xmlns="http://www.w3.org/2000/svg" width="136.391" height="54.73" viewBox="0 0 174.58 70.054" xmlns:v="https://vecta.io/nano"><g fill="#eab528"><path d="M151.554 20.52l-116.848-.765-.062 10.396a17.989 17.989 0 0 1 13.186-5.766h56.288c7.346 0 13.643 4.408 16.569 10.779l30.768.21z"/><path d="M8.013 20.137h116.835v8.001H8.013z"/></g><path d="M118.885 35.299c0-7.914-7.852-9.198-15.162-9.198H47.769c-5.161 0-13.581-1.037-16.89 2.42l-2.901 6.223" fill="#c59829"/><path d="M0 14.31h8.001v17.52H0z" fill="#eab528"/><path d="M56.597 9.865h7.42v54.782h-7.42zm11.964 0h7.42v54.782h-7.42zm11.976 0h7.42v54.782h-7.42z" fill="#a57a27"/><g fill="#eab528"><path d="M41.324 68.77l-6.729-9.001 82.475.086-8.692 9.346z"/><path d="M104.118 70.054H47.83c-12.297 0-22.298-10.174-22.298-22.681v-4.309c0-5.865 2.198-11.421 6.186-15.668l5.828 5.47a14.816 14.816 0 0 0-4.013 10.198v4.321c0 8.087 6.42 14.668 14.297 14.668h56.288c7.902 0 14.31-6.581 14.31-14.668v-4.321c-.025-2.272-3.235-15.359-4.111-17.26l7.284-3.334c1.235 2.692 4.828 17.001 4.828 20.594v4.321c0 12.495-10.013 22.668-22.31 22.668zm70.462-19.508l-42.163-22.965L174.358 4.21zM52.436 8.075h39.299v3.902H52.436z"/></g><path d="M170.864 0h3.704v54.769h-3.704z" fill="#e1b12f"/></svg>