<svg xmlns="http://www.w3.org/2000/svg" viewBox="0 0 130 120" xmlns:v="https://vecta.io/nano"><path fill="#fff" d="M0 0h130v120H0z"/><path fill="#109d59" d="M101.7 79.6c-2.5 5.3-6.8 10.2-11.2 14.1-3.5 3-7.1 5.7-11.1 7.9-2.7 1.5-5.5 2.8-8.3 4l-3.6 1.5c-.4.2-.9.4-1.3.5-.2.1-.7-.3-.9-.3-3.5-1.4-7-2.8-10.4-4.6a70.17 70.17 0 0 1-14.8-10.6c-2.2-2.1-4.3-4.4-6.1-6.9-.8-1.1-1.6-2.3-2.4-3.5-.5-.8-1.4-1.9-1.5-2.9-.1-1.3 2.1-.2 2.5 0 1.5.5 3 1.1 4.4 1.6 9.9 3.5 19.7 7.4 29.4 11.2h-1.1l30.1-11.5c1.5-.5 2.9-1 4.4-1.6.3-.1.7-.2 1-.4 1.4-.3 1.2 1 .9 1.5z"/><path fill="#e9742f" d="M62.8 69.4c-14.7 9-29.7 7.1-33.1 5.4s-9.8-12.7-9.8-12.7l90.3-49.7c0 0-7.3 32.2-47.4 57z"/></svg>