<svg xmlns="http://www.w3.org/2000/svg" width="137.015" height="128.113" viewBox="0 -7 177.777 166.227" xmlns:v="https://vecta.io/nano"><path d="M146.881 41.49c0 16.84-32.047 29.071-71.596 29.071S3.69 58.33 3.69 41.49c0-16.828 32.047-30.475 71.596-30.475s71.596 13.646 71.596 30.475z" fill="#cdd6d9"/><path d="M74.85 6.139C33.511 6.139.012 22.774.012 43.268c0 20.506 33.499 37.129 74.838 37.129 41.327 0 74.826-16.623 74.826-37.129-.012-20.506-33.499-37.129-74.826-37.129zm.436 62.486c-38.98 0-71.015-9.775-71.015-26.083s31.6-29.519 70.579-29.519 70.579 13.211 70.579 29.519-31.164 26.083-70.144 26.083zm70.955 34.019v8.311c.847 1.948 1.307 3.956 1.307 6.037 0 17.578-32.362 28.987-72.273 28.987S3 134.583 3 116.993c0-2.081.46-4.089 1.307-6.037v-8.311C.677 107.315 0 112.795 0 118.142c0 22.127 32.955 41.085 75.273 41.085s75.213-19.345 75.213-41.472c.012-5.347-.605-10.453-4.246-15.11z" fill="#506a76"/><path d="M147.16 53.007h-.992c-4.9 14.675-34.903 25.974-71.184 25.974-36.294 0-66.285-11.312-71.172-25.974h-.242v62.341a13.2 13.2 0 0 0-.472 3.424 13.04 13.04 0 0 0 .472 3.412v.085h.024c4.138 15.026 34.515 26.7 71.39 26.7s67.265-11.675 71.39-26.7h.774V53.007z" fill="#82b24d"/><path d="M171.15-6.769c2.311-.871 5.069.798 6.17 3.738 1.113 2.928.121 6.013-2.202 6.872L81.552 38.852c-2.299.859-5.057-.811-6.158-3.738s-.121-6.013 2.19-6.872z" fill="#9e867d"/><path d="M69.878 29.694a14.469 14.469 0 1 0 28.938 0 14.469 14.469 0 1 0-28.938 0z" fill="#755448"/><path d="M39.209 80.493V67.367l-21.365-7.96v13.126l5.71 2.843v59.752l-5.71-2.819v13.126l21.365 7.973v-13.138l-5.722-1.415V79.078zm73.265-.423V66.944l21.365-7.96v13.138l-5.722 2.831v59.752l5.722-2.831v13.138l-21.365 7.973v-13.15l5.722-1.391V78.654zM85.52 82.465v-13.84H64.168v13.84h5.71v62.934h-5.71v13.816H85.52v-13.816h-5.722V82.465z" fill="#34464e"/></svg>