<svg xmlns="http://www.w3.org/2000/svg" viewBox="0 0 130 120"><path fill="#2A66B7" d="M20.2 120h26.1V95.8zM46.3 0H20.6l25.7 23.9zM0 78.7v22.7l24.6-22.7zM130 101.8V78.7h-24.9zM0 18.2v23.1h24.9zM130 41.3V18.6l-24.6 22.7zM83.7 120h25.7L83.7 96.1zM109.8 0H83.7v24.2z"/><g fill="#DC4437"><path d="M85.1 78.7h-1.4v7.8l36 33.5H130v-8.6L94.8 78.7zM44.9 41.3h1.4v-7.8L10.3 0H0v8.6l35.2 32.7zM34.9 78.7L0 110.9v9.1h9.8l36.5-33.7v-7.6h-1.5zM120.2 0L83.7 33.7v7.6h11.4L130 9.1V0z"/><path d="M76.7 0H53.3v48.3H0v23.4h53.3V120h23.4V71.7H130V48.3H76.7z"/></g><g fill="#FFF"><path d="M95.1 41.3H83.7v-7.6L120.2 0h-10.4L83.7 24.2V0h-7v48.3H130v-7h-24.6L130 18.6V9.1zM46.3 23.9L20.6 0H10.3l36 33.5v7.8H35.2L0 8.6v9.6l24.9 23.1H0v7h53.3V0h-7zM76.7 71.7V120h7V96.1l25.7 23.9h10.3l-36-33.5v-7.8h11.1l35.2 32.7v-9.6l-24.9-23.1H130v-7H92.5zM0 71.7v7h24.6L0 101.4v9.5l34.9-32.2h11.4v7.6L9.8 120h10.4l26.1-24.2V120h7V71.7h-.9z"/></g></svg>