<?xml version="1.0" encoding="UTF-8" standalone="no"?>
<!-- Uploaded to: SVG Repo, www.svgrepo.com, Generator: SVG Repo Mixer Tools -->

<svg
   width="140"
   height="140"
   viewBox="0 0 11.2 11.2"
   version="1.1"
   id="svg978"
   sodipodi:docname="hobbies-leisure-svgrepo-com.svg"
   inkscape:version="1.2.2 (732a01da63, 2022-12-09)"
   xmlns:inkscape="http://www.inkscape.org/namespaces/inkscape"
   xmlns:sodipodi="http://sodipodi.sourceforge.net/DTD/sodipodi-0.dtd"
   xmlns="http://www.w3.org/2000/svg"
   xmlns:svg="http://www.w3.org/2000/svg">
  <sodipodi:namedview
     id="namedview980"
     pagecolor="#ffffff"
     bordercolor="#000000"
     borderopacity="0.25"
     inkscape:showpageshadow="2"
     inkscape:pageopacity="0.0"
     inkscape:pagecheckerboard="0"
     inkscape:deskcolor="#d1d1d1"
     showgrid="false"
     inkscape:zoom="1.04625"
     inkscape:cx="374.67145"
     inkscape:cy="375.62724"
     inkscape:window-width="1920"
     inkscape:window-height="1017"
     inkscape:window-x="1912"
     inkscape:window-y="-8"
     inkscape:window-maximized="1"
     inkscape:current-layer="svg978" />
  <defs
     id="defs921">
    <style
       id="style919">.cls-1{fill:#665949;}.cls-2{fill:#98856e;}.cls-3{fill:#cbb292;}.cls-4{fill:#5f443e;}.cls-5{fill:#7f5b53;}.cls-6{fill:#336292;}.cls-7{fill:#4482c3;}</style>
  </defs>
  <title
     id="title923" />
  <g
     data-name="Layer 24"
     id="Layer_24"
     transform="matrix(0.18666667,0,0,0.18666667,-0.37333334,-0.37333334)">
    <rect
       class="cls-1"
       height="21"
       width="2"
       x="13"
       y="17"
       id="rect925" />
    <rect
       class="cls-1"
       height="21"
       width="2"
       x="25"
       y="17"
       id="rect927" />
    <rect
       class="cls-1"
       height="21"
       width="2"
       x="37"
       y="17"
       id="rect929" />
    <rect
       class="cls-1"
       height="21"
       width="2"
       x="49"
       y="17"
       id="rect931" />
    <path
       class="cls-2"
       d="m 48,14 v 2 a 2,2 0 0 0 2,2 v 0 a 2,2 0 0 0 2,-2 v -2"
       id="path933" />
    <path
       class="cls-3"
       d="M 49,17.72 A 2,2 0 0 0 50,16 v -2 h -2 v 2 a 2,2 0 0 0 1,1.72 z"
       id="path935" />
    <path
       class="cls-2"
       d="m 36,14 v 2 a 2,2 0 0 0 2,2 v 0 a 2,2 0 0 0 2,-2 v -2"
       id="path937" />
    <path
       class="cls-3"
       d="M 37,17.72 A 2,2 0 0 0 38,16 v -2 h -2 v 2 a 2,2 0 0 0 1,1.72 z"
       id="path939" />
    <path
       class="cls-2"
       d="m 24,14 v 2 a 2,2 0 0 0 2,2 v 0 a 2,2 0 0 0 2,-2 v -2"
       id="path941" />
    <path
       class="cls-3"
       d="M 25,17.72 A 2,2 0 0 0 26,16 v -2 h -2 v 2 a 2,2 0 0 0 1,1.72 z"
       id="path943" />
    <path
       class="cls-2"
       d="m 12,14 v 2 a 2,2 0 0 0 2,2 v 0 a 2,2 0 0 0 2,-2 v -2"
       id="path945" />
    <path
       class="cls-3"
       d="M 13,17.72 A 2,2 0 0 0 14,16 v -2 h -2 v 2 a 2,2 0 0 0 1,1.72 z"
       id="path947" />
    <rect
       class="cls-4"
       height="4"
       width="48"
       x="8"
       y="10"
       id="rect949" />
    <rect
       class="cls-5"
       height="4"
       width="45"
       x="8"
       y="10"
       id="rect951" />
    <rect
       class="cls-6"
       height="4"
       width="16"
       x="12"
       y="38"
       id="rect953" />
    <rect
       class="cls-7"
       height="4"
       width="13"
       x="12"
       y="38"
       id="rect955" />
    <rect
       class="cls-6"
       height="4"
       width="16"
       x="36"
       y="38"
       id="rect957" />
    <rect
       class="cls-7"
       height="4"
       width="13"
       x="36"
       y="38"
       id="rect959" />
    <path
       class="cls-3"
       d="M 56,58 V 4 a 2,2 0 0 1 2,-2 v 0 a 2,2 0 0 1 2,2 v 54"
       id="path961" />
    <path
       class="cls-3"
       d="M 4,58 V 4 A 2,2 0 0 1 6,2 v 0 a 2,2 0 0 1 2,2 v 54"
       id="path963" />
    <rect
       class="cls-2"
       height="6"
       width="4"
       x="4"
       y="46"
       id="rect965" />
    <rect
       class="cls-1"
       height="6"
       width="4"
       x="4"
       y="52"
       id="rect967" />
    <rect
       class="cls-2"
       height="6"
       width="4"
       x="56"
       y="46"
       id="rect969" />
    <rect
       class="cls-1"
       height="6"
       width="4"
       x="56"
       y="52"
       id="rect971" />
    <rect
       class="cls-4"
       height="4"
       width="60"
       x="2"
       y="58"
       id="rect973" />
    <rect
       class="cls-5"
       height="4"
       width="56"
       x="2"
       y="58"
       id="rect975" />
  </g>
</svg>
