<svg version="1.1" xmlns="http://www.w3.org/2000/svg" xmlns:xlink="http://www.w3.org/1999/xlink" width="140" height="140" viewBox="0,0,140,140"><g transform="translate(-170,-110)"><g data-paper-data="{&quot;isPaintingLayer&quot;:true}" fill-rule="nonzero" stroke="none" stroke-width="1" stroke-linecap="butt" stroke-linejoin="miter" stroke-miterlimit="10" stroke-dasharray="" stroke-dashoffset="0" style="mix-blend-mode: normal"><path d="M195.66667,194v-49h4.66667v49z" fill="#665949"/><path d="M223.66667,194v-49h4.66667v49z" fill="#665949"/><path d="M251.66667,194v-49h4.66667v49z" fill="#665949"/><path d="M279.66667,194v-49h4.66667v49z" fill="#665949"/><path d="M286.66667,138v4.66667c0,2.57733 -2.08934,4.66667 -4.66667,4.66667v0c-2.57733,0 -4.66667,-2.08934 -4.66667,-4.66667v-4.66667" fill="#98856e"/><path d="M277.33333,142.66667v-4.66667h4.66667v4.66667c-0.01,1.65718 -0.89813,3.18476 -2.33333,4.01333c-1.43521,-0.82858 -2.32333,-2.35615 -2.33333,-4.01333z" fill="#cbb292"/><path d="M258.66667,138v4.66667c0,2.57733 -2.08934,4.66667 -4.66667,4.66667v0c-2.57733,0 -4.66667,-2.08934 -4.66667,-4.66667v-4.66667" fill="#98856e"/><path d="M249.33333,142.66667v-4.66667h4.66667v4.66667c-0.01,1.65718 -0.89813,3.18476 -2.33333,4.01333c-1.43521,-0.82858 -2.32333,-2.35615 -2.33333,-4.01333z" fill="#cbb292"/><path d="M230.66667,138v4.66667c0,2.57733 -2.08934,4.66667 -4.66667,4.66667v0c-2.57733,0 -4.66667,-2.08934 -4.66667,-4.66667v-4.66667" fill="#98856e"/><path d="M221.33333,142.66667v-4.66667h4.66667v4.66667c-0.01,1.65718 -0.89813,3.18476 -2.33333,4.01333c-1.43521,-0.82858 -2.32333,-2.35615 -2.33333,-4.01333z" fill="#cbb292"/><path d="M202.66667,138v4.66667c0,2.57733 -2.08934,4.66667 -4.66667,4.66667v0c-2.57733,0 -4.66667,-2.08934 -4.66667,-4.66667v-4.66667" fill="#98856e"/><path d="M193.33333,142.66667v-4.66667h4.66667v4.66667c-0.01,1.65718 -0.89813,3.18476 -2.33333,4.01333c-1.43521,-0.82858 -2.32333,-2.35615 -2.33333,-4.01333z" fill="#cbb292"/><path d="M184,138v-9.33333h112v9.33333z" fill="#5f443e"/><path d="M184,138v-9.33333h105v9.33333z" fill="#7f5b53"/><path d="M193.33333,203.33333v-9.33333h37.33333v9.33333z" fill="#336292"/><path d="M193.33333,203.33333v-9.33333h30.33333v9.33333z" fill="#4482c3"/><path d="M249.33333,203.33333v-9.33333h37.33333v9.33333z" fill="#336292"/><path d="M249.33333,203.33333v-9.33333h30.33333v9.33333z" fill="#4482c3"/><path d="M296,240.66667v-126c0,-2.57733 2.08934,-4.66667 4.66667,-4.66667v0c2.57733,0 4.66667,2.08934 4.66667,4.66667v126" fill="#cbb292"/><path d="M174.66667,240.66667v-126c0,-2.57733 2.08934,-4.66667 4.66667,-4.66667v0c2.57733,0 4.66667,2.08934 4.66667,4.66667v126" fill="#cbb292"/><path d="M174.66667,226.66667v-14h9.33333v14z" fill="#98856e"/><path d="M174.66667,240.66667v-14h9.33333v14z" fill="#665949"/><path d="M296,226.66667v-14h9.33333v14z" fill="#98856e"/><path d="M296,240.66667v-14h9.33333v14z" fill="#665949"/><path d="M170,250v-9.33333h140v9.33333z" fill="#5f443e"/><path d="M170,250v-9.33333h130.66667v9.33333z" fill="#7f5b53"/></g></g></svg>