<svg xmlns="http://www.w3.org/2000/svg" width="141.829" height="138.732" viewBox="0 0 11.346 11.099" xmlns:v="https://vecta.io/nano"><path d="M3.788 3.297a8.051 8.051 0 0 1-.9-.733c-.142-.186-.549-.663-.593-.6s-.379.636-.458.636a8.898 8.898 0 0 1-.909-.678.712.712 0 0 1-.831-.328c-.345-.511.301-1.04.847-.97s.354.742.354.742.229.167.246.142.371-.591.602-.574.706.555.706.555.451-.053.663.159.176.53.265.54.466.114.466.114.371-1.218 1.271-1.352 2.375 1.544 2.375 1.544.496-1.023.636-1.059.822.424.847.398.663-.761.663-.761a.572.572 0 0 1 .042-.82.714.714 0 0 1 1.246.326c.167.619-.75.786-.75.786L9.578 2.68c-.106.028-.689-.248-.706-.212s-.309.82-.309.82a4.517 4.517 0 0 1 .979 2.394c.106 1.394 0 2.242-.881 2.665a5.36 5.36 0 0 1-1.642.538l-.54.053.081.379.672.097a.39.39 0 0 1 .405-.282c.326.017.284.441.157.553a.322.322 0 0 1-.362.019c-.061-.044-.131-.106-.131-.106h-.591a4.091 4.091 0 0 1 0 .574l-.028.078.019.212s.555.036.555.178-.176.36-.273.352a1.153 1.153 0 0 1-.424-.15c-.017-.042-.061-.547-.061-.547h-.142a3.095 3.095 0 0 1 .028.574c-.036.036-.54.292-.636.212s-.195-.424-.114-.451.572-.07.572-.095.011-.212.011-.212-.195-.114-.195-.254l-.017-.345a.271.271 0 0 0-.231.159 1.979 1.979 0 0 0-.114.212s.106.354-.142.424-.53-.248-.405-.485.396-.081.396-.081a2.407 2.407 0 0 1 .379-.451 1.778 1.778 0 0 1 .176-.097l.044-.424s-1.138.15-1.924-.159-1.422-.803-1.377-1.996.983-3.53.983-3.53z" fill="#1d1d1b"/><path d="M5.349 10.058c.064-.047.176.195.106.248s-.273-.123-.106-.248zm2.189-.784c.131 0 .212.034.212.148s-.159.159-.212.117-.07-.265 0-.265z" fill="#a42116"/><path d="M6.294 9.176c.044-.068.309.767.248.847a.337.337 0 0 1-.318.044 3.797 3.797 0 0 1 .07-.892z" fill="#e7413e"/><path d="M.627.93c.227 0 .449-.017.485.256s-.142.424-.449.468a.35.35 0 0 1-.371-.39C.309 1.17.406.939.627.93z" fill="#f2910d"/><path d="M1.315 1.663c.038 0 .256.212.326.15s.566-.655.6-.636.549.636.636.608.256-.131.362-.078.248.131.265.229.028.494.159.521.468.044.46.089-.239.511-.239.511a1.542 1.542 0 0 1-.794-.636c-.335-.502-.53-.697-.669-.758s-.195-.089-.248-.036-.265.549-.388.566-.61-.371-.61-.424.089-.097.142-.106zm6.752.945s.443-1.006.557-.945.636.46.725.424.828-.909.873-.883.106.036.081.072l-.816 1.138c-.038-.008-.636-.318-.686-.254s-.388.936-.424.883l-.309-.434z" fill="#fab900"/><path d="M10.487.269c.504-.133.68.29.574.547a.483.483 0 0 1-.811.089c-.265-.328.127-.608.237-.636z" fill="#f2910d"/><path d="M5.536 1.293c.4-.133 1.439.555 2.479 1.907s1.157 3.097 1.123 3.089-.39-.256-.424-.248-.081.117-.053.142.449.256.458.318-.017.239-.017.301a.424.424 0 0 1-.017.114 3.775 3.775 0 0 0-.557-.307c-.025.028-.114.159-.07.178a3.246 3.246 0 0 1 .591.36.96.96 0 0 1-.106.248l-.036.044-.6-.424s-.186.089-.106.159.636.424.6.485-.193.22-.193.22a4.297 4.297 0 0 0-.604-.424c-.061 0-.14.081-.106.114s.566.443.53.468-.229.133-.229.133l-.477-.337c-.036-.008-.114.044-.114.081s.449.335.424.352a1.581 1.581 0 0 1-.424.133c-.028-.038-.282-.309-.377-.309s-.142.053-.106.089.326.248.29.273-1.553.301-2.409.15S3.61 8.24 3.343 7.49s.15-2.347.61-3.504.919-2.462 1.583-2.693z" fill="#e7413e"/><g fill="#1d1d1b"><path d="M3.902 7.216c.051-.036.212.044.15.097s-.159.114-.186.212-.044.14-.089.131c-.026-.005-.048-.019-.063-.041s-.02-.048-.015-.074c.032-.127.104-.241.203-.326z"/><path d="M4.334 7.551c.072 0 .167.282.46.345s.636.095.678.193c.013.059 0 .12-.035.169a.21.21 0 0 1-.149.087 2.02 2.02 0 0 1-.864-.343c-.212-.186-.265-.451-.089-.451zm.672-4.739c-.013-.025.017-.142.159-.487s.388-.424.441-.371.07.106.036.142a.75.75 0 0 0-.371.388c-.089.265-.072.301-.117.337s-.117.044-.148-.008zm-.318 1.129c-.013-.055.318-.335.9-.521s1.023-.15 1.032-.061a.93.93 0 0 1-.025.229 1.87 1.87 0 0 0-1.017.097c-.485.212-.731.407-.775.407s-.106-.106-.114-.15z"/><path d="M5.915 4.066c.9-.233 1.96.424 2.119 1.21s-.169 1.879-1.458 2.049-1.968-.337-2.119-1.176.157-1.758 1.458-2.083z"/></g><path d="M5.972 4.339c.744-.193 1.617.35 1.742.998S7.58 6.89 6.521 7.032s-1.625-.278-1.742-.97.121-1.447 1.193-1.722z" fill="#e6e4da"/><path d="M6.061 4.78c.498-.129 1.085.233 1.167.669a.915.915 0 0 1-.805 1.133c-.714.093-1.091-.186-1.169-.65s.089-.968.807-1.153z" fill="#1d1d1b"/><path d="M6.286 5.079c.1-.049.511.239.449.337s-.477.123-.521.078-.053-.352.072-.415z" fill="#e6e4da"/></svg>