<?xml version="1.0" encoding="UTF-8"?>
<svg width="141.83" height="138.73" version="1.1" viewBox="0 0 11.346 11.099" xmlns="http://www.w3.org/2000/svg"><g stroke-width=".21187"><path d="m3.7877 3.2969a8.0509 8.0509 0 0 1-0.90043-0.73305c-0.14195-0.18644-0.54873-0.66314-0.59322-0.59958-0.044492 0.06356-0.37924 0.6356-0.45763 0.6356a8.8984 8.8984 0 0 1-0.9089-0.67797 0.71187 0.71187 0 0 1-0.83051-0.32839c-0.34534-0.5106 0.30085-1.0403 0.84746-0.97034 0.54661 0.069916 0.35382 0.74153 0.35382 0.74153s0.22881 0.16737 0.24576 0.14195c0.016949-0.025424 0.37076-0.5911 0.6017-0.57416 0.23093 0.016949 0.70551 0.55509 0.70551 0.55509s0.45127-0.052966 0.66314 0.1589c0.21187 0.21187 0.17585 0.52966 0.26483 0.54026 0.088984 0.010593 0.4661 0.11441 0.4661 0.11441s0.37076-1.2182 1.2712-1.3517c0.90043-0.13348 2.375 1.5445 2.375 1.5445s0.49576-1.0233 0.6356-1.0593c0.13983-0.036017 0.82204 0.42373 0.84746 0.39831 0.02542-0.025424 0.66314-0.7606 0.66314-0.7606a0.57204 0.57204 0 0 1 0.04237-0.81992 0.71399 0.71399 0 0 1 1.2458 0.32627c0.16737 0.61865-0.75 0.78602-0.75 0.78602s-0.89195 1.2881-0.99789 1.3157c-0.10593 0.027542-0.68856-0.24788-0.70551-0.21187-0.01695 0.036017-0.30932 0.81992-0.30932 0.81992a4.517 4.517 0 0 1 0.97882 2.3941c0.10593 1.3941 0 2.2415-0.88136 2.6653a5.3602 5.3602 0 0 1-1.642 0.53814c-0.21187 0.02754-0.54026 0.05297-0.54026 0.05297l0.08051 0.37924 0.67161 0.09746a0.38983 0.38983 0 0 1 0.40466-0.28178c0.32627 0.01695 0.2839 0.44068 0.15678 0.55297a0.32204 0.32204 0 0 1-0.36229 0.01907c-0.06144-0.04449-0.13136-0.10593-0.13136-0.10593h-0.5911a4.0911 4.0911 0 0 1 0 0.57416l-0.02754 0.07839 0.01907 0.21187s0.55509 0.03602 0.55509 0.17797c0 0.14195-0.17585 0.36017-0.27331 0.3517a1.1525 1.1525 0 0 1-0.42373-0.15043c-0.016949-0.04237-0.061441-0.54661-0.061441-0.54661h-0.14195a3.0954 3.0954 0 0 1 0.02754 0.57416c-0.03602 0.03602-0.54026 0.29237-0.6356 0.21186-0.09534-0.08051-0.19492-0.42373-0.11441-0.45127 0.08051-0.02754 0.57204-0.06992 0.57204-0.09534s0.01059-0.21186 0.01059-0.21186-0.19492-0.11441-0.19492-0.25424c0-0.13983-0.01695-0.34534-0.01695-0.34534a0.27119 0.27119 0 0 0-0.23093 0.1589 1.9788 1.9788 0 0 0-0.11441 0.21187s0.10593 0.35382-0.14195 0.42373c-0.24788 0.06992-0.52966-0.24788-0.40466-0.48517 0.125-0.23729 0.39619-0.08051 0.39619-0.08051a2.4068 2.4068 0 0 1 0.37924-0.45127 1.7776 1.7776 0 0 1 0.17585-0.09746l0.04449-0.42373s-1.1377 0.15042-1.9237-0.1589c-0.78601-0.30932-1.4216-0.80297-1.3771-1.9958 0.044492-1.1928 0.98306-3.5297 0.98306-3.5297z" fill="#1d1d1b"/><path d="m5.3492 10.058c0.06356-0.04661 0.17585 0.19492 0.10593 0.24788-0.06992 0.05297-0.27331-0.12288-0.10593-0.24788z" fill="#a42116"/><path d="m7.5377 9.2736c0.13136 0 0.21187 0.0339 0.21187 0.1483 0 0.11441-0.1589 0.1589-0.21187 0.11653-0.05297-0.04237-0.06991-0.26483 0-0.26483z" fill="#a42116"/><path d="m6.2941 9.1762c0.04449-0.0678 0.30932 0.76695 0.24788 0.84746a0.33687 0.33687 0 0 1-0.3178 0.04449 3.7966 3.7966 0 0 1 0.06992-0.89195z" fill="#e7413e"/><path d="m0.62667 0.93038c0.2267 0 0.44915-0.016949 0.48517 0.25636 0.036017 0.27331-0.14195 0.42373-0.44916 0.46822a0.34958 0.34958 0 0 1-0.37076-0.38983c0.016949-0.095339 0.11441-0.32627 0.33475-0.33475z" fill="#f2910d"/><path d="m1.3152 1.6634c0.038136 0 0.25636 0.21187 0.32627 0.15042 0.069916-0.061441 0.56568-0.65466 0.59958-0.6356 0.033898 0.019068 0.54873 0.6356 0.6356 0.60805 0.086865-0.027543 0.25636-0.13136 0.36229-0.07839 0.10593 0.052966 0.24788 0.13136 0.26483 0.22881 0.016949 0.097458 0.027543 0.49365 0.1589 0.52119 0.13136 0.027542 0.46822 0.044492 0.45975 0.088983-0.00847 0.044492-0.23941 0.5106-0.23941 0.5106a1.5424 1.5424 0 0 1-0.7945-0.6356c-0.33475-0.50212-0.52966-0.69704-0.6695-0.75848s-0.19492-0.088984-0.24788-0.036017-0.26483 0.54873-0.38771 0.56568c-0.12288 0.016949-0.61017-0.37076-0.61017-0.42373 0-0.052966 0.088984-0.097458 0.14195-0.10593z" fill="#fab900"/><path d="m8.0674 2.6084s0.4428-1.0064 0.55721-0.94492c0.11441 0.061441 0.6356 0.45975 0.72458 0.42373 0.08898-0.036017 0.82839-0.9089 0.87289-0.88348 0.04449 0.025424 0.10593 0.036017 0.08051 0.072034-0.02542 0.036017-0.77755 1.1462-0.81568 1.1377-0.03814-0.00847-0.6356-0.3178-0.68644-0.25424-0.05085 0.06356-0.38771 0.93645-0.42373 0.88348-0.03602-0.052966-0.30932-0.43432-0.30932-0.43432z" fill="#fab900"/><path d="m10.487 0.26936c0.50424-0.13348 0.68009 0.29026 0.57416 0.54661a0.48305 0.48305 0 0 1-0.81144 0.088983c-0.26483-0.32839 0.12712-0.60805 0.23729-0.6356z" fill="#f2910d"/><path d="m5.5356 1.2927c0.40043-0.13348 1.4386 0.55509 2.4788 1.9068 1.0403 1.3517 1.1568 3.0975 1.1229 3.089-0.0339-0.0085-0.38983-0.25636-0.42373-0.24788-0.0339 0.0085-0.08051 0.11653-0.05297 0.14195 0.02754 0.02542 0.44916 0.25636 0.45763 0.3178 0.0085 0.06144-0.01695 0.23941-0.01695 0.30085a0.42373 0.42373 0 0 1-0.01695 0.11441 3.7754 3.7754 0 0 0-0.55721-0.3072c-0.02542 0.02754-0.11441 0.1589-0.06991 0.17797a3.2458 3.2458 0 0 1 0.5911 0.36017 0.95975 0.95975 0 0 1-0.10593 0.24788l-0.03602 0.04449-0.59958-0.42373s-0.18644 0.08898-0.10593 0.1589c0.08051 0.06992 0.6356 0.42373 0.59958 0.48517-0.03602 0.06144-0.1928 0.22034-0.1928 0.22034a4.2966 4.2966 0 0 0-0.60382-0.42373c-0.06144 0-0.13983 0.08051-0.10593 0.11441 0.0339 0.0339 0.56568 0.4428 0.52966 0.46822-0.03602 0.02542-0.22882 0.13348-0.22882 0.13348s-0.44068-0.32839-0.4767-0.33687c-0.03602-0.0085-0.11441 0.04449-0.11441 0.08051s0.44916 0.33475 0.42373 0.3517a1.5805 1.5805 0 0 1-0.42373 0.13348c-0.02754-0.03814-0.28178-0.30932-0.37712-0.30932s-0.14195 0.05297-0.10593 0.08898c0.03602 0.03602 0.32627 0.24788 0.29026 0.27331-0.03602 0.02542-1.553 0.30085-2.4089 0.15042-0.85593-0.15042-1.3962-0.3644-1.6631-1.1144s0.15042-2.3475 0.61017-3.5043c0.45975-1.1568 0.9195-2.4619 1.5826-2.6928z" fill="#e7413e"/></g><g transform="matrix(.21187 0 0 .21187 -1.1064 -1.2307)" fill="#1d1d1b"><path d="m23.64 39.87c0.24-0.17 1 0.21 0.71 0.46s-0.75 0.54-0.88 1-0.21 0.66-0.42 0.62a0.46 0.46 0 0 1-0.37-0.54 3 3 0 0 1 0.96-1.54z"/><path d="m25.68 41.45c0.34 0 0.79 1.33 2.17 1.63s3 0.45 3.2 0.91a1 1 0 0 1-0.87 1.21 9.56 9.56 0 0 1-4.08-1.62c-1-0.88-1.25-2.13-0.42-2.13z"/><path d="m28.85 19.08c-0.06-0.12 0.08-0.67 0.75-2.3s1.83-2 2.08-1.75 0.33 0.5 0.17 0.67a3.56 3.56 0 0 0-1.75 1.83c-0.42 1.25-0.34 1.42-0.55 1.59s-0.55 0.21-0.7-0.04z"/><path d="m27.35 24.41c-0.06-0.26 1.5-1.58 4.25-2.46s4.83-0.71 4.87-0.29a4.22 4.22 0 0 1-0.12 1.08 8.8 8.8 0 0 0-4.8 0.46c-2.29 1-3.45 1.92-3.66 1.92s-0.5-0.5-0.54-0.71z"/><path d="m33.14 25c4.25-1.1 9.25 2 10 5.71s-0.8 8.87-6.88 9.67-9.29-1.59-10-5.55 0.74-8.3 6.88-9.83z"/></g><g stroke-width=".21187"><path d="m5.972 4.3393c0.74365-0.1928 1.6165 0.34958 1.7415 0.99789 0.125 0.64831-0.13348 1.553-1.1928 1.6949-1.0593 0.14195-1.625-0.27754-1.7415-0.97034-0.11653-0.6928 0.12076-1.447 1.1928-1.7225z" fill="#e6e4da"/><path d="m6.061 4.78c0.49788-0.12924 1.0848 0.23305 1.1674 0.6695a0.91526 0.91526 0 0 1-0.80509 1.1335c-0.71399 0.09322-1.0911-0.18644-1.1695-0.65043-0.07839-0.46399 0.08898-0.96823 0.80721-1.1525z" fill="#1d1d1b"/><path d="m6.2856 5.0787c0.09958-0.04873 0.5106 0.23941 0.44916 0.33687-0.06144 0.09746-0.4767 0.12288-0.52119 0.07839-0.04449-0.04449-0.05297-0.3517 0.07203-0.41526z" fill="#e6e4da"/></g></svg>
