<svg version="1.1" xmlns="http://www.w3.org/2000/svg" xmlns:xlink="http://www.w3.org/1999/xlink" width="111.82705" height="116.24165" viewBox="0,0,111.82705,116.24165"><defs><radialGradient cx="189.33014" cy="199.12945" r="14.05826" gradientUnits="userSpaceOnUse" id="color-1"><stop offset="0" stop-color="#000000" stop-opacity="0"/><stop offset="1" stop-color="#000000" stop-opacity="0.57196"/></radialGradient><radialGradient cx="240.98674" cy="226.65563" r="72.00067" gradientUnits="userSpaceOnUse" id="color-2"><stop offset="0" stop-color="#000000"/><stop offset="1" stop-color="#000000" stop-opacity="0"/></radialGradient><radialGradient cx="224.60175" cy="155.3747" r="73.39036" gradientUnits="userSpaceOnUse" id="color-3"><stop offset="0" stop-color="#000000" stop-opacity="0"/><stop offset="1" stop-color="#000000" stop-opacity="0.57196"/></radialGradient><radialGradient cx="264.88328" cy="169.26734" r="17.28955" gradientUnits="userSpaceOnUse" id="color-4"><stop offset="0" stop-color="#000000" stop-opacity="0"/><stop offset="1" stop-color="#000000" stop-opacity="0.57196"/></radialGradient><radialGradient cx="236.36328" cy="169.26734" r="17.28955" gradientUnits="userSpaceOnUse" id="color-5"><stop offset="0" stop-color="#000000" stop-opacity="0"/><stop offset="1" stop-color="#000000" stop-opacity="0.57196"/></radialGradient><radialGradient cx="219.56698" cy="139.47058" r="81.0057" gradientUnits="userSpaceOnUse" id="color-6"><stop offset="0" stop-color="#000000" stop-opacity="0"/><stop offset="1" stop-color="#000000" stop-opacity="0.57196"/></radialGradient><radialGradient cx="231.36944" cy="125.47853" r="32.04827" gradientUnits="userSpaceOnUse" id="color-7"><stop offset="0" stop-color="#000000" stop-opacity="0"/><stop offset="1" stop-color="#000000" stop-opacity="0.57196"/></radialGradient><radialGradient cx="230.24198" cy="138.59082" r="32.07765" gradientUnits="userSpaceOnUse" id="color-8"><stop offset="0" stop-color="#000000" stop-opacity="0"/><stop offset="1" stop-color="#000000" stop-opacity="0.57196"/></radialGradient><radialGradient cx="224.11405" cy="194.39472" r="74.49043" gradientUnits="userSpaceOnUse" id="color-9"><stop offset="0" stop-color="#000000" stop-opacity="0"/><stop offset="1" stop-color="#000000" stop-opacity="0.57196"/></radialGradient><radialGradient cx="186.9394" cy="175.73118" r="10.34359" gradientUnits="userSpaceOnUse" id="color-10"><stop offset="0" stop-color="#000000" stop-opacity="0"/><stop offset="1" stop-color="#000000" stop-opacity="0.57196"/></radialGradient><radialGradient cx="184.1189" cy="183.26649" r="14.8584" gradientUnits="userSpaceOnUse" id="color-11"><stop offset="0" stop-color="#000000" stop-opacity="0"/><stop offset="1" stop-color="#000000" stop-opacity="0.57196"/></radialGradient><radialGradient cx="191.43341" cy="178.64714" r="6.68879" gradientUnits="userSpaceOnUse" id="color-12"><stop offset="0" stop-color="#000000" stop-opacity="0"/><stop offset="1" stop-color="#000000" stop-opacity="0.57196"/></radialGradient></defs><g transform="translate(-180.49257,-118.96981)"><g data-paper-data="{&quot;isPaintingLayer&quot;:true}" stroke="none" stroke-width="1" stroke-linecap="butt" stroke-linejoin="miter" stroke-miterlimit="10" stroke-dasharray="" stroke-dashoffset="0" style="mix-blend-mode: normal"><g fill-rule="nonzero"><path d="M197.6586,211.14155l-3.59565,-1.21329l-2.16183,3.13751l-2.16183,-3.82546l-3.59565,0.06907l0.53836,-4.19672l-2.92318,-3.03983l2.92318,-2.1096l-0.53836,-4.36804l3.59565,1.21329l2.16183,-3.13751l2.16183,3.82546l3.59565,-0.06907l-0.53836,4.19672l2.92318,3.03983l-2.92318,2.1096z" fill="#4d4d4d"/><path d="M188.05425,202.69975c0,-2.61028 1.77671,-4.44363 3.9684,-4.09491c2.19169,0.34872 3.9684,2.74747 3.9684,5.35775c0,2.61028 -1.77671,4.44363 -3.9684,4.09491c-2.19169,-0.34872 -3.9684,-2.74747 -3.9684,-5.35775z" fill="#1a1a1a"/><path d="M197.6586,211.14155l-3.59565,-1.21329l-2.16183,3.13751l-2.16183,-3.82546l-3.59565,0.06907l0.53836,-4.19672l-2.92318,-3.03983l2.92318,-2.1096l-0.53836,-4.36804l3.59565,1.21329l2.16183,-3.13751l2.16183,3.82546l3.59565,-0.06907l-0.53836,4.19672l2.92318,3.03983l-2.92318,2.1096z" fill="url(#color-1)"/></g><path d="M292.31962,226.65705c0,4.72326 -22.99121,8.55442 -51.3264,8.55442c-28.33519,0 -51.3264,-3.83116 -51.3264,-8.55442c0,-4.72326 22.99121,-8.55442 51.3264,-8.55442c28.33519,0 51.3264,3.83116 51.3264,8.55442z" fill="url(#color-2)" fill-rule="nonzero"/><path d="M287.33442,183.16987c0,3.453 -0.38,26.775 -1.1,30.015c-1.76,8.88 -7.47,14 -16.05,15.94c-3.98,0.74 -8.51,-15.56 -13.43,-15.65c-4.92,-0.09 -10.23,16.03 -15.76,16.03c-5.56,0 -10.89,-16.13 -15.83,-16.05c-4.93,0.07 -9.48,16.35 -13.48,15.58c-9.04,-1.5 -13.77,-7.69 -15.99,-16.14c-0.68,-3.15 -1.04,-26.376 -1.04,-29.725c0,-25.577 20.76,-46.336 46.34,-46.336c25.58,0 46.34,20.759 46.34,46.336z" fill="#726fd6" fill-rule="nonzero"/><path d="M287.33442,183.16987c0,3.453 -0.38,26.775 -1.1,30.015c-1.76,8.88 -7.47,14 -16.05,15.94c-3.98,0.74 -8.51,-15.56 -13.43,-15.65c-4.92,-0.09 -10.23,16.03 -15.76,16.03c-5.56,0 -10.89,-16.13 -15.83,-16.05c-4.93,0.07 -9.48,16.35 -13.48,15.58c-9.04,-1.5 -13.77,-7.69 -15.99,-16.14c-0.68,-3.15 -1.04,-26.376 -1.04,-29.725c0,-25.577 20.76,-46.336 46.34,-46.336c25.58,0 46.34,20.759 46.34,46.336z" fill="url(#color-3)" fill-rule="nonzero"/><g fill-rule="nonzero"><path d="M258.10878,174.97637c0,-6.10246 4.94702,-11.04949 11.04949,-11.04949c6.10246,0 11.04949,4.94702 11.04949,11.04949c0,6.10246 -4.94702,11.04949 -11.04949,11.04949c-6.10246,0 -11.04949,-4.94702 -11.04949,-11.04949z" fill="#ffffff"/><path d="M258.10878,174.97637c0,-6.10246 4.94702,-11.04949 11.04949,-11.04949c6.10246,0 11.04949,4.94702 11.04949,11.04949c0,6.10246 -4.94702,11.04949 -11.04949,11.04949c-6.10246,0 -11.04949,-4.94702 -11.04949,-11.04949z" fill="url(#color-4)"/><path d="M265.95006,175.68607c0,-3.7402 3.03203,-6.77223 6.77223,-6.77223c3.7402,0 6.77223,3.03203 6.77223,6.77223c0,3.7402 -3.03203,6.77223 -6.77223,6.77223c-3.7402,0 -6.77223,-3.03203 -6.77223,-6.77223z" fill="#000000"/></g><g fill-rule="nonzero"><path d="M229.58878,174.97637c0,-6.10246 4.94702,-11.04949 11.04949,-11.04949c6.10246,0 11.04949,4.94702 11.04949,11.04949c0,6.10246 -4.94702,11.04949 -11.04949,11.04949c-6.10246,0 -11.04949,-4.94702 -11.04949,-11.04949z" fill="#ffffff"/><path d="M229.58878,174.97637c0,-6.10246 4.94702,-11.04949 11.04949,-11.04949c6.10246,0 11.04949,4.94702 11.04949,11.04949c0,6.10246 -4.94702,11.04949 -11.04949,11.04949c-6.10246,0 -11.04949,-4.94702 -11.04949,-11.04949z" fill="url(#color-5)"/><path d="M237.43006,175.68607c0,-3.7402 3.03203,-6.77223 6.77223,-6.77223c3.7402,0 6.77223,3.03203 6.77223,6.77223c0,3.7402 -3.03203,6.77223 -6.77223,6.77223c-3.7402,0 -6.77223,-3.03203 -6.77223,-6.77223z" fill="#000000"/></g><path d="M220.32815,159.56839c-7.15009,7.32117 -14.54968,11.70533 -16.5172,9.78058c-1.97465,-1.92475 2.23128,-9.43127 9.37424,-16.75245c7.15009,-7.32117 14.54968,-11.6982 16.5172,-9.77345c1.97465,1.92475 -2.23128,9.42414 -9.37424,16.74532z" fill-opacity="0.62745" fill="#ffffff" fill-rule="nonzero"/><path d="M278.59304,220.94999c-3.38044,4.09601 -7.47813,6.30608 -9.14952,4.92668c-1.67139,-1.3794 -0.27871,-5.82192 3.10172,-9.91793c3.38044,-4.09601 7.47813,-6.30608 9.14952,-4.92667c1.67139,1.3794 0.27871,5.82191 -3.10173,9.91792z" fill-opacity="0.43439" fill="#ffffff" fill-rule="nonzero"/><g><path d="M256.09489,134.79281c4.07966,-1.70485 8.33363,-1.66673 13.85125,-3.68205c7.62009,-2.91949 15.88836,-4.89669 15.75764,4.04154c-3.03388,10.30537 -15.08223,13.0778 -24.46165,16.46027c-12.40784,4.11779 -24.59782,2.98485 -37.22898,0.61004c-9.16154,-1.99898 -17.93091,-3.15915 -25.96497,-8.17022c-9.88052,-7.82707 -4.62979,-14.82078 6.97737,-9.80427c7.64733,3.69294 14.12904,0.4303 19.00938,1.95541c10.75201,13.01789 30.97059,-11.1115 32.05995,-1.41073z" fill="#c4b07e" fill-rule="evenodd"/><path d="M256.09489,134.79281c4.07966,-1.70485 8.33363,-1.66673 13.85125,-3.68205c7.62009,-2.91949 15.88836,-4.89669 15.75764,4.04154c-3.03388,10.30537 -15.08223,13.0778 -24.46165,16.46027c-12.40784,4.11779 -24.59782,2.98485 -37.22898,0.61004c-9.16154,-1.99898 -17.93091,-3.15915 -25.96497,-8.17022c-9.88052,-7.82707 -4.62979,-14.82078 6.97737,-9.80427c7.64733,3.69294 14.12904,0.4303 19.00938,1.95541c13.64972,6.35099 22.27203,3.67115 32.05995,-1.41073z" fill="url(#color-6)" fill-rule="evenodd"/><path d="M256.09489,134.79281c4.60801,8.69856 -34.08072,14.44495 -32.05995,1.41073c3.26809,-4.50452 -0.18519,-13.14316 6.10588,-16.14981c6.87933,-1.26911 14.22708,-1.16017 14.37959,3.89447c0.09804,-4.11779 -0.78434,-4.76052 6.24205,-4.97839c5.39235,2.32034 4.73328,10.97533 5.33243,15.823z" fill="#c4b07e" fill-rule="evenodd"/><path d="M256.09489,134.79281c4.60801,8.69856 -34.08072,14.44495 -32.05995,1.41073c3.26809,-4.50452 -0.18519,-13.14316 6.10588,-16.14981c6.87933,-1.26911 14.22708,-1.16017 14.37959,3.89447c0.09804,-4.11779 -0.78434,-4.76052 6.24205,-4.97839c5.39235,2.32034 4.73328,10.97533 5.33243,15.823z" fill="url(#color-7)" fill-rule="evenodd"/><path d="M256.44348,134.66209c4.60801,8.69856 -34.43476,14.57568 -32.41944,1.54145c-0.13072,-0.57736 -0.06536,-0.43575 0.4194,-0.66451c4.21583,7.40222 28.53042,4.00341 31.67868,-2.17328c0.32681,0.22332 0.77889,0.61004 0.32136,1.29634z" fill="#552200" fill-rule="evenodd"/><path d="M256.44348,134.66209c4.60801,8.69856 -34.43476,14.57568 -32.41944,1.54145c-0.13072,-0.57736 -0.06536,-0.43575 0.4194,-0.66451c4.21583,7.40222 28.53042,4.00341 31.67868,-2.17328c0.32681,0.22332 0.77889,0.61004 0.32136,1.29634z" fill="url(#color-8)" fill-rule="evenodd"/><path d="M227.99967,126.05931c0.60663,-0.96292 2.62865,-0.62557 4.51631,0.7535c1.88766,1.37907 2.92615,3.27762 2.31952,4.24055c-0.60663,0.96292 -2.62865,0.62557 -4.51631,-0.7535c-1.88766,-1.37907 -2.92615,-3.27762 -2.31952,-4.24055z" fill-opacity="0.73004" fill="#ffffff" fill-rule="nonzero"/></g><path d="M194.46942,179.23987c20.843,20.251 64.613,24.338 92.895,6.574c1.37,1.588 2.16,2.419 -0.18,3.542c-12.222,7.459 -10.06,22.254 -25.501,36.194c-23.744,-34.145 -42.059,-16.942 -67.214,-44.961c-1.009,-0.663 0.159,-1.386 0,-1.349z" fill="#ff0000" fill-rule="evenodd"/><path d="M194.46942,179.23987c20.843,20.251 64.613,24.338 92.895,6.574c1.37,1.588 2.16,2.419 -0.18,3.542c-12.222,7.459 -10.06,22.254 -25.501,36.194c-23.744,-34.145 -42.059,-16.942 -67.214,-44.961c-1.009,-0.663 0.159,-1.386 0,-1.349z" fill="url(#color-9)" fill-rule="evenodd"/><path d="M193.38442,178.92487c-0.33,4.24 -11.2,-1.869 -11.15,-2.272c10.27,-4.563 11.29,0.519 11.15,2.272z" fill="#ff0000" fill-rule="evenodd"/><path d="M193.38442,178.92487c-0.33,4.24 -11.2,-1.869 -11.15,-2.272c10.27,-4.563 11.29,0.519 11.15,2.272z" fill="url(#color-10)" fill-rule="evenodd"/><path d="M180.49442,186.45987c-0.17,-0.506 11.46,-11.111 13,-5.75c0.64,2.215 0.75,9 -13,5.75z" fill="#ff0000" fill-rule="evenodd"/><path d="M180.49442,186.45987c-0.17,-0.506 11.46,-11.111 13,-5.75c0.64,2.215 0.75,9 -13,5.75z" fill="url(#color-11)" fill-rule="evenodd"/><path d="M189.86942,179.89737c0,-2.03655 1.65095,-3.6875 3.6875,-3.6875c2.03655,0 3.6875,1.65095 3.6875,3.6875c0,2.03655 -1.65095,3.6875 -3.6875,3.6875c-2.03655,0 -3.6875,-1.65095 -3.6875,-3.6875z" fill="#ff0000" fill-rule="nonzero"/><path d="M189.86942,179.89737c0,-2.03655 1.65095,-3.6875 3.6875,-3.6875c2.03655,0 3.6875,1.65095 3.6875,3.6875c0,2.03655 -1.65095,3.6875 -3.6875,3.6875c-2.03655,0 -3.6875,-1.65095 -3.6875,-3.6875z" fill="url(#color-12)" fill-rule="nonzero"/></g></g></svg>