<?xml version="1.0" encoding="UTF-8" standalone="no"?>
<!-- Uploaded to: SVG Repo, www.svgrepo.com, Generator: SVG Repo Mixer Tools -->

<svg
   width="140"
   height="140"
   viewBox="0 0 11.2 11.2"
   version="1.1"
   id="svg1170"
   sodipodi:docname="architecture-buildings-3-svgrepo-com.svg"
   inkscape:version="1.2.2 (732a01da63, 2022-12-09)"
   xmlns:inkscape="http://www.inkscape.org/namespaces/inkscape"
   xmlns:sodipodi="http://sodipodi.sourceforge.net/DTD/sodipodi-0.dtd"
   xmlns="http://www.w3.org/2000/svg"
   xmlns:svg="http://www.w3.org/2000/svg">
  <sodipodi:namedview
     id="namedview1172"
     pagecolor="#ffffff"
     bordercolor="#000000"
     borderopacity="0.25"
     inkscape:showpageshadow="2"
     inkscape:pageopacity="0.0"
     inkscape:pagecheckerboard="0"
     inkscape:deskcolor="#d1d1d1"
     showgrid="false"
     inkscape:zoom="1.04625"
     inkscape:cx="374.67145"
     inkscape:cy="375.62724"
     inkscape:window-width="1920"
     inkscape:window-height="1017"
     inkscape:window-x="1912"
     inkscape:window-y="-8"
     inkscape:window-maximized="1"
     inkscape:current-layer="svg1170" />
  <defs
     id="defs1073">
    <style
       id="style1071">.cls-1{fill:#ccc;}.cls-2{fill:#e6e6e6;}.cls-3{fill:#98856e;}.cls-4{fill:#cbb292;}.cls-5{fill:#849eb4;}.cls-6{fill:#b0d3f0;}.cls-7{fill:#993839;}.cls-8{fill:#cc4b4c;}.cls-9{fill:#ad392d;}.cls-10{fill:#e64c3c;}.cls-11{fill:#5f443e;}.cls-12{fill:#7f5b53;}</style>
  </defs>
  <title
     id="title1075" />
  <g
     data-name="Layer 9"
     id="Layer_9"
     transform="matrix(0.18666667,0,0,0.18666667,-0.37333334,-0.37333334)">
    <rect
       class="cls-1"
       height="6"
       width="10"
       x="46"
       y="12"
       id="rect1077" />
    <rect
       class="cls-2"
       height="6"
       width="7"
       x="46"
       y="12"
       id="rect1079" />
    <rect
       class="cls-1"
       height="6"
       width="10"
       x="8"
       y="12"
       id="rect1081" />
    <rect
       class="cls-2"
       height="6"
       width="7"
       x="8"
       y="12"
       id="rect1083" />
    <rect
       class="cls-2"
       height="22"
       width="52"
       x="6"
       y="18"
       id="rect1085" />
    <rect
       class="cls-3"
       height="12"
       width="12"
       x="26"
       y="26"
       id="rect1087" />
    <rect
       class="cls-4"
       height="12"
       width="9"
       x="26"
       y="26"
       id="rect1089" />
    <rect
       class="cls-5"
       height="4"
       width="4"
       x="10"
       y="22"
       id="rect1091" />
    <rect
       class="cls-6"
       height="4"
       width="2"
       x="10"
       y="22"
       id="rect1093" />
    <rect
       class="cls-5"
       height="4"
       width="4"
       x="10"
       y="30"
       id="rect1095" />
    <rect
       class="cls-6"
       height="4"
       width="2"
       x="10"
       y="30"
       id="rect1097" />
    <rect
       class="cls-5"
       height="4"
       width="4"
       x="18"
       y="30"
       id="rect1099" />
    <rect
       class="cls-6"
       height="4"
       width="2"
       x="18"
       y="30"
       id="rect1101" />
    <rect
       class="cls-5"
       height="4"
       width="4"
       x="18"
       y="22"
       id="rect1103" />
    <rect
       class="cls-6"
       height="4"
       width="2"
       x="18"
       y="22"
       id="rect1105" />
    <rect
       class="cls-5"
       height="4"
       width="4"
       x="42"
       y="22"
       id="rect1107" />
    <rect
       class="cls-6"
       height="4"
       width="2"
       x="42"
       y="22"
       id="rect1109" />
    <rect
       class="cls-5"
       height="4"
       width="4"
       x="42"
       y="30"
       id="rect1111" />
    <rect
       class="cls-6"
       height="4"
       width="2"
       x="42"
       y="30"
       id="rect1113" />
    <rect
       class="cls-5"
       height="4"
       width="4"
       x="50"
       y="30"
       id="rect1115" />
    <rect
       class="cls-6"
       height="4"
       width="2"
       x="50"
       y="30"
       id="rect1117" />
    <rect
       class="cls-5"
       height="4"
       width="4"
       x="50"
       y="22"
       id="rect1119" />
    <rect
       class="cls-6"
       height="4"
       width="2"
       x="50"
       y="22"
       id="rect1121" />
    <rect
       class="cls-1"
       height="18"
       width="56"
       x="4"
       y="40"
       id="rect1123" />
    <rect
       class="cls-3"
       height="10"
       width="8"
       x="28"
       y="48"
       id="rect1125" />
    <rect
       class="cls-4"
       height="10"
       width="5"
       x="28"
       y="48"
       id="rect1127" />
    <rect
       class="cls-5"
       height="8"
       width="6"
       x="8"
       y="46"
       id="rect1129" />
    <rect
       class="cls-6"
       height="8"
       width="3"
       x="8"
       y="46"
       id="rect1131" />
    <rect
       class="cls-5"
       height="8"
       width="6"
       x="50"
       y="46"
       id="rect1133" />
    <rect
       class="cls-6"
       height="8"
       width="3"
       x="50"
       y="46"
       id="rect1135" />
    <rect
       class="cls-7"
       height="4"
       width="12"
       x="6"
       y="8"
       id="rect1137" />
    <rect
       class="cls-8"
       height="4"
       width="9"
       x="6"
       y="8"
       id="rect1139" />
    <rect
       class="cls-7"
       height="4"
       width="12"
       x="46"
       y="8"
       id="rect1141" />
    <rect
       class="cls-8"
       height="4"
       width="9"
       x="46"
       y="8"
       id="rect1143" />
    <rect
       class="cls-9"
       height="16"
       width="28"
       x="18"
       y="2"
       id="rect1145" />
    <rect
       class="cls-10"
       height="16"
       width="25"
       x="18"
       y="2"
       id="rect1147" />
    <rect
       class="cls-3"
       height="16"
       width="4"
       x="18"
       y="42"
       id="rect1149" />
    <rect
       class="cls-4"
       height="16"
       width="2"
       x="18"
       y="42"
       id="rect1151" />
    <rect
       class="cls-3"
       height="16"
       width="4"
       x="42"
       y="42"
       id="rect1153" />
    <rect
       class="cls-4"
       height="16"
       width="2"
       x="42"
       y="42"
       id="rect1155" />
    <rect
       class="cls-9"
       height="4"
       width="32"
       x="16"
       y="38"
       id="rect1157" />
    <rect
       class="cls-10"
       height="4"
       width="29"
       x="16"
       y="38"
       id="rect1159" />
    <rect
       class="cls-11"
       height="4"
       width="60"
       x="2"
       y="58"
       id="rect1161" />
    <rect
       class="cls-12"
       height="4"
       width="57"
       x="2"
       y="58"
       id="rect1163" />
    <rect
       class="cls-2"
       height="10"
       width="2"
       x="31"
       y="5"
       id="rect1165" />
    <rect
       class="cls-2"
       height="2"
       width="10"
       x="27"
       y="9"
       id="rect1167" />
  </g>
</svg>
