<svg width="140" height="140" viewBox="0 0 11.2 11.2" version="1.1" id="prefix__svg1061" xmlns="http://www.w3.org/2000/svg"><defs id="prefix__defs976"><style id="style974">.prefix__cls-1{fill:#b49313}.prefix__cls-2{fill:#f0c419}.prefix__cls-3{fill:#ccc}.prefix__cls-4{fill:#f2f2f2}.prefix__cls-7{fill:#993839}.prefix__cls-8{fill:#cc4b4c}.prefix__cls-9{fill:#b0d3f0}.prefix__cls-10{fill:#849eb4}.prefix__cls-15{fill:#999}</style></defs><g data-name="Layer 30" id="prefix__Layer_30" transform="matrix(.18667 0 0 .18667 -.373 -.373)"><path class="prefix__cls-1" id="prefix__rect980" d="M50 16h8v6h-8z"/><path class="prefix__cls-2" id="prefix__rect982" d="M50 16h5v6h-5z"/><path class="prefix__cls-1" id="prefix__rect984" d="M6 16h8v6H6z"/><path class="prefix__cls-2" id="prefix__rect986" d="M6 16h5v6H6z"/><path class="prefix__cls-3" id="prefix__rect988" d="M22 12h20v46H22z"/><path class="prefix__cls-4" id="prefix__rect990" d="M22 12h17v46H22z"/><path class="prefix__cls-1" id="prefix__rect992" d="M27 38h10v4H27z"/><path class="prefix__cls-2" id="prefix__rect994" d="M27 38h7v4h-7z"/><path d="M26 58v-6a6 6 0 016-6 6 6 0 016 6v6" id="prefix__path996" fill="#98856e"/><path d="M30.5 46.2A6 6 0 0026 52v6h9v-6a6 6 0 00-4.5-5.8z" id="prefix__path998" fill="#cbb292"/><path class="prefix__cls-3" id="prefix__rect1000" d="M42 28h16v30H42z"/><path class="prefix__cls-4" id="prefix__rect1002" d="M42 28h13v30H42z"/><path class="prefix__cls-3" id="prefix__rect1004" d="M6 28h16v30H6z"/><path class="prefix__cls-4" id="prefix__rect1006" d="M6 28h13v30H6z"/><path class="prefix__cls-7" id="prefix__rect1008" d="M6 54h16v4H6z"/><path class="prefix__cls-8" id="prefix__rect1010" d="M6 54h13v4H6z"/><path class="prefix__cls-7" id="prefix__rect1012" d="M42 54h16v4H42z"/><path class="prefix__cls-8" id="prefix__rect1014" d="M42 54h13v4H42z"/><path class="prefix__cls-9" id="prefix__rect1016" d="M10 32h4v6h-4z"/><path class="prefix__cls-10" id="prefix__rect1018" d="M14 32h4v6h-4z"/><path class="prefix__cls-9" id="prefix__rect1020" d="M14 38h4v6h-4z"/><path class="prefix__cls-10" id="prefix__rect1022" d="M10 38h4v6h-4z"/><path class="prefix__cls-9" id="prefix__rect1024" d="M10 44h4v6h-4z"/><path class="prefix__cls-10" id="prefix__rect1026" d="M14 44h4v6h-4z"/><path class="prefix__cls-10" id="prefix__rect1028" d="M46 44h4v6h-4z"/><path class="prefix__cls-9" id="prefix__rect1030" d="M50 44h4v6h-4z"/><path class="prefix__cls-10" id="prefix__rect1032" d="M50 38h4v6h-4z"/><path class="prefix__cls-9" id="prefix__rect1034" d="M46 38h4v6h-4z"/><path class="prefix__cls-10" id="prefix__rect1036" d="M46 32h4v6h-4z"/><path class="prefix__cls-9" id="prefix__rect1038" d="M50 32h4v6h-4z"/><circle cx="32" cy="22" r="6" id="prefix__circle1040" fill="#559264"/><ellipse cx="30.5" cy="22" rx="4.5" ry="5.8" id="prefix__ellipse1042" fill="#71c285"/><path class="prefix__cls-7" id="prefix__polyline1044" d="M22 12L32 2l10 10"/><path class="prefix__cls-8" id="prefix__polygon1046" d="M22 12h17l-8.5-8.5z"/><path id="prefix__rect1048" fill="#5f443e" d="M2 58h60v4H2z"/><path id="prefix__rect1050" fill="#7f5b53" d="M2 58h57v4H2z"/><path class="prefix__cls-15" id="prefix__rect1052" d="M33 52h2v2h-2z"/><path class="prefix__cls-15" d="M33.29 24.71l-2-2A1 1 0 0131 22v-3h2v2.59l1.71 1.7z" id="prefix__path1054"/><path class="prefix__cls-15" id="prefix__rect1056" d="M13 16h2v12h-2z"/><path class="prefix__cls-15" id="prefix__rect1058" d="M49 16h2v12h-2z"/></g></svg>