<svg version="1.1" xmlns="http://www.w3.org/2000/svg" xmlns:xlink="http://www.w3.org/1999/xlink" width="140" height="140" viewBox="0,0,140,140"><g transform="translate(-170,-110)"><g data-paper-data="{&quot;isPaintingLayer&quot;:true}" fill-rule="nonzero" stroke="none" stroke-width="1" stroke-linecap="butt" stroke-linejoin="miter" stroke-miterlimit="10" stroke-dasharray="" stroke-dashoffset="0" style="mix-blend-mode: normal"><path d="M272.66667,147.33333v-14h23.33333v14z" fill="#cccccc"/><path d="M272.66667,147.33333v-14h16.33333v14z" fill="#e6e6e6"/><path d="M184,147.33333v-14h23.33333v14z" fill="#cccccc"/><path d="M184,147.33333v-14h16.33333v14z" fill="#e6e6e6"/><path d="M179.33333,198.66667v-51.33333h121.33334v51.33333z" fill="#e6e6e6"/><path d="M226,194v-28h28v28z" fill="#98856e"/><path d="M226,194v-28h21v28z" fill="#cbb292"/><path d="M188.66667,166v-9.33333h9.33333v9.33333z" fill="#849eb4"/><path d="M188.66667,166v-9.33333h4.66667v9.33333z" fill="#b0d3f0"/><path d="M188.66667,184.66667v-9.33333h9.33333v9.33333z" fill="#849eb4"/><path d="M188.66667,184.66667v-9.33333h4.66667v9.33333z" fill="#b0d3f0"/><path d="M207.33333,184.66667v-9.33333h9.33333v9.33333z" fill="#849eb4"/><path d="M207.33333,184.66667v-9.33333h4.66667v9.33333z" fill="#b0d3f0"/><path d="M207.33333,166v-9.33333h9.33333v9.33333z" fill="#849eb4"/><path d="M207.33333,166v-9.33333h4.66667v9.33333z" fill="#b0d3f0"/><path d="M263.33333,166v-9.33333h9.33333v9.33333z" fill="#849eb4"/><path d="M263.33333,166v-9.33333h4.66667v9.33333z" fill="#b0d3f0"/><path d="M263.33333,184.66667v-9.33333h9.33333v9.33333z" fill="#849eb4"/><path d="M263.33333,184.66667v-9.33333h4.66667v9.33333z" fill="#b0d3f0"/><path d="M282,184.66667v-9.33333h9.33333v9.33333z" fill="#849eb4"/><path d="M282,184.66667v-9.33333h4.66667v9.33333z" fill="#b0d3f0"/><path d="M282,166v-9.33333h9.33333v9.33333z" fill="#849eb4"/><path d="M282,166v-9.33333h4.66667v9.33333z" fill="#b0d3f0"/><path d="M174.66667,240.66667v-42h130.66667v42z" fill="#cccccc"/><path d="M230.66667,240.66667v-23.33333h18.66667v23.33333z" fill="#98856e"/><path d="M230.66667,240.66667v-23.33333h11.66667v23.33333z" fill="#cbb292"/><path d="M184,231.33333v-18.66667h14v18.66667z" fill="#849eb4"/><path d="M184,231.33333v-18.66667h7v18.66667z" fill="#b0d3f0"/><path d="M282,231.33333v-18.66667h14v18.66667z" fill="#849eb4"/><path d="M282,231.33333v-18.66667h7v18.66667z" fill="#b0d3f0"/><path d="M179.33333,133.33333v-9.33333h28v9.33333z" fill="#993839"/><path d="M179.33333,133.33333v-9.33333h21v9.33333z" fill="#cc4b4c"/><path d="M272.66667,133.33333v-9.33333h28v9.33333z" fill="#993839"/><path d="M272.66667,133.33333v-9.33333h21v9.33333z" fill="#cc4b4c"/><path d="M207.33333,147.33333v-37.33333h65.33333v37.33333z" fill="#ad392d"/><path d="M207.33333,147.33333v-37.33333h58.33333v37.33333z" fill="#e64c3c"/><path d="M207.33333,240.66667v-37.33333h9.33333v37.33333z" fill="#98856e"/><path d="M207.33333,240.66667v-37.33333h4.66667v37.33333z" fill="#cbb292"/><path d="M263.33333,240.66667v-37.33333h9.33333v37.33333z" fill="#98856e"/><path d="M263.33333,240.66667v-37.33333h4.66667v37.33333z" fill="#cbb292"/><path d="M202.66667,203.33333v-9.33333h74.66667v9.33333z" fill="#ad392d"/><path d="M202.66667,203.33333v-9.33333h67.66667v9.33333z" fill="#e64c3c"/><path d="M170,250v-9.33333h140v9.33333z" fill="#5f443e"/><path d="M170,250v-9.33333h133v9.33333z" fill="#7f5b53"/><path d="M237.66667,140.33333v-23.33333h4.66667v23.33333z" fill="#e6e6e6"/><path d="M228.33333,131v-4.66667h23.33333v4.66667z" fill="#e6e6e6"/></g></g></svg>