<?xml version="1.0" encoding="UTF-8" standalone="no"?>
<svg
   version="1.1"
   x="0"
   y="0"
   width="70.088219"
   height="140"
   viewBox="0 0 70.088219 140"
   id="svg751"
   sodipodi:docname="thirstyboy-0044935snihzk.svg"
   inkscape:version="1.2.2 (732a01da63, 2022-12-09)"
   xmlns:inkscape="http://www.inkscape.org/namespaces/inkscape"
   xmlns:sodipodi="http://sodipodi.sourceforge.net/DTD/sodipodi-0.dtd"
   xmlns="http://www.w3.org/2000/svg"
   xmlns:svg="http://www.w3.org/2000/svg">
  <defs
     id="defs755" />
  <sodipodi:namedview
     id="namedview753"
     pagecolor="#ffffff"
     bordercolor="#000000"
     borderopacity="0.25"
     inkscape:showpageshadow="2"
     inkscape:pageopacity="0.0"
     inkscape:pagecheckerboard="0"
     inkscape:deskcolor="#d1d1d1"
     showgrid="false"
     inkscape:zoom="3.2568093"
     inkscape:cx="61.409797"
     inkscape:cy="125.27599"
     inkscape:window-width="1920"
     inkscape:window-height="1017"
     inkscape:window-x="1912"
     inkscape:window-y="-8"
     inkscape:window-maximized="1"
     inkscape:current-layer="svg751" />
  <g
     id="Layer_1"
     transform="matrix(0.56627721,0,0,0.56627721,-2.0059558,-1.9559534)">
    <path
       d="m 21.837,223.423 c -1.176,1.766 -2.986,5.024 -2.736,6.524 0.25,1.5 3.273,5.513 4.023,6.513 0.75,1 3.963,6.963 5.213,8.963 1.25,2 6.5,4.75 10.75,4.5 4.25,-0.25 5.75,-3 6,-4.75 0.25,-1.75 -3,-6.5 -3,-6.5 0,0 -18.75,-17.5 -20.25,-15.25"
       fill="#c9d7e1"
       id="path638" />
    <path
       d="m 21.837,223.423 c -1.176,1.766 -2.986,5.024 -2.736,6.524 0.25,1.5 3.273,5.513 4.023,6.513 0.75,1 3.963,6.963 5.213,8.963 1.25,2 6.5,4.75 10.75,4.5 4.25,-0.25 5.75,-3 6,-4.75 0.25,-1.75 -3,-6.5 -3,-6.5 0,0 -18.75,-17.5 -20.25,-15.25 z"
       fill-opacity="0"
       stroke="#1a1919"
       stroke-width="1.487"
       stroke-linecap="round"
       stroke-linejoin="round"
       id="path640" />
    <path
       d="m 53.335,226.333 c -1.145,0.764 -2.24,3.62 -1.476,5.53 0.764,1.908 4.236,4.867 6.145,6.394 1.91,1.527 5,8.666 12,8.666 5.822,0 7.666,-3.666 7.333,-5.666 -0.198,-1.191 -4,-5.668 -6.453,-8.519 -1.954,-2.274 -17.549,-6.405 -17.549,-6.405"
       fill="#c9d7e1"
       id="path642" />
    <path
       d="m 53.335,226.333 c -1.145,0.764 -2.24,3.62 -1.476,5.53 0.764,1.908 4.236,4.867 6.145,6.394 1.91,1.527 5,8.666 12,8.666 5.822,0 7.666,-3.666 7.333,-5.666 -0.198,-1.191 -4,-5.668 -6.453,-8.519 -1.954,-2.274 -17.549,-6.405 -17.549,-6.405 z"
       fill-opacity="0"
       stroke="#1a1919"
       stroke-width="1.487"
       stroke-linecap="round"
       stroke-linejoin="round"
       id="path644" />
    <path
       d="m 46.82,189.986 c 0,1.757 -3.162,7.731 -4.217,9.84 -1.055,2.108 -7.38,22.138 -7.028,23.542 0.351,1.407 3.864,13.354 5.27,15.462 -1.405,2.46 -5.269,3.515 -8.432,1.054 -3.163,-2.459 -5.273,-5.975 -5.975,-7.027 -0.702,-1.055 -4.567,-5.975 -4.567,-7.731 -0.352,-1.758 1.405,-3.514 1.405,-3.514 0,0 2.459,-19.677 5.622,-26.706 0.352,-1.054 2.46,-7.731 2.46,-7.731 0,0 14.057,3.514 15.462,2.811"
       fill="#f4bb9d"
       id="path646" />
    <path
       d="m 46.82,189.986 c 0,1.757 -3.162,7.731 -4.217,9.84 -1.055,2.108 -7.38,22.138 -7.028,23.542 0.351,1.407 3.864,13.354 5.27,15.462 -1.405,2.46 -5.269,3.515 -8.432,1.054 -3.163,-2.459 -5.273,-5.975 -5.975,-7.027 -0.702,-1.055 -4.567,-5.975 -4.567,-7.731 -0.352,-1.758 1.405,-3.514 1.405,-3.514 0,0 2.459,-19.677 5.622,-26.706 0.352,-1.054 2.46,-7.731 2.46,-7.731 0,0 14.057,3.514 15.462,2.811 z"
       fill-opacity="0"
       stroke="#1a1919"
       stroke-width="1.5"
       stroke-linecap="round"
       stroke-linejoin="round"
       id="path648" />
    <path
       d="m 37.075,215.902 c -1.09,3.818 -1.877,6.942 -1.748,7.466 0.344,1.407 4.01,11.305 6.76,15.305 -1.38,2.459 -6.759,3.672 -9.869,1.211 -3.108,-2.459 -5.69,-7.157 -6.381,-8.211 -0.69,-1.054 -3.98,-4.791 -3.98,-6.547 -0.346,-1.758 1.381,-3.514 1.381,-3.514 0,0 0.525,-4.273 1.4,-9.548 2.152,1.466 8.315,4.804 12.437,3.838"
       fill="#fffffe"
       id="path650" />
    <path
       d="m 37.075,215.902 c -1.09,3.818 -1.877,6.942 -1.748,7.466 0.344,1.407 4.01,11.305 6.76,15.305 -1.38,2.459 -6.759,3.672 -9.869,1.211 -3.108,-2.459 -5.69,-7.157 -6.381,-8.211 -0.69,-1.054 -3.98,-4.791 -3.98,-6.547 -0.346,-1.758 1.381,-3.514 1.381,-3.514 0,0 0.525,-4.273 1.4,-9.548 2.152,1.466 8.315,4.804 12.437,3.838 z"
       fill-opacity="0"
       stroke="#1a1919"
       stroke-width="1.487"
       stroke-linecap="round"
       stroke-linejoin="round"
       id="path652" />
    <path
       d="m 72.12,189.636 c 0,1.757 -1.407,7.379 -2.46,10.19 -1.054,2.109 -3.865,23.896 -3.162,26.355 0,0 2.634,5.233 2.986,6.639 0.351,1.406 -1.932,7.417 -9.312,2.146 -1.406,-1.055 -5.622,-4.568 -6.325,-6.326 -0.703,-1.756 -0.351,-3.865 -0.351,-3.865 0.703,-4.569 -0.001,-21.786 3.162,-26.705 0.703,-2.812 1.054,-11.597 1.054,-11.597 l 14.408,3.163"
       fill="#f4bb9d"
       id="path654" />
    <path
       d="m 72.12,189.636 c 0,1.757 -1.407,7.379 -2.46,10.19 -1.054,2.109 -3.865,23.896 -3.162,26.355 0,0 2.634,5.233 2.986,6.639 0.351,1.406 -1.932,7.417 -9.312,2.146 -1.406,-1.055 -5.622,-4.568 -6.325,-6.326 -0.703,-1.756 -0.351,-3.865 -0.351,-3.865 0.703,-4.569 -0.001,-21.786 3.162,-26.705 0.703,-2.812 1.054,-11.597 1.054,-11.597 z"
       fill-opacity="0"
       stroke="#1a1919"
       stroke-width="1.5"
       stroke-linecap="round"
       stroke-linejoin="round"
       id="path656" />
    <path
       d="m 67.439,215.749 c -0.733,5.006 -1.219,9.52 -0.957,10.575 0,0 3.655,5.271 3.96,6.687 0.305,1.417 -3.375,7.395 -10.574,1.881 -1.37,-1.102 -5.467,-4.754 -6.111,-6.533 -0.644,-1.78 -0.222,-3.875 -0.222,-3.875 0.348,-1.85 0.533,-5.805 0.855,-10.167 2.926,2.206 9.695,4.077 13.049,1.432"
       fill="#fffffe"
       id="path658" />
    <path
       d="m 67.439,215.749 c -0.733,5.006 -1.219,9.52 -0.957,10.575 0,0 3.655,5.271 3.96,6.687 0.305,1.417 -3.375,7.395 -10.574,1.881 -1.37,-1.102 -5.467,-4.754 -6.111,-6.533 -0.644,-1.78 -0.222,-3.875 -0.222,-3.875 0.348,-1.85 0.533,-5.805 0.855,-10.167 2.926,2.206 9.695,4.077 13.049,1.432 z m 2.572,-16.977 c 0,0 -1.406,1.054 -2.46,1.054"
       fill-opacity="0"
       stroke="#1a1919"
       stroke-width="1.487"
       stroke-linecap="round"
       stroke-linejoin="round"
       id="path660" />
    <path
       d="m 38.386,198.419 4.568,-0.702"
       fill-opacity="0"
       stroke="#1a1919"
       stroke-width="1.5"
       stroke-linecap="round"
       stroke-linejoin="round"
       id="path662" />
    <path
       d="m 54.007,187.859 c 0.363,1.05 0.363,1.05 0.363,1.05 0,0 11.985,3.745 19.687,0.856 1.015,-3.875 1.224,-17.935 1.547,-20.749 0.323,-2.815 2.328,-13.026 2.655,-15.489 0.326,-2.463 -49.211,-1.26 -49.211,-1.26 -0.337,1.41 -0.245,10.545 -0.216,13.356 0.028,2.811 -2.949,21.115 -2.949,21.115 0.369,1.754 7.441,5.254 12.706,5.494 6.328,0.288 10.879,-1.516 11.929,-1.877 l 1.377,-2.826 1.661,-9.504 1.005,-4.931 0.437,8.43 -0.991,6.335"
       fill="#6588a6"
       id="path664" />
    <g
       id="g672">
      <path
         d="m 54.007,187.859 c 0.363,1.05 0.363,1.05 0.363,1.05 0,0 11.985,3.745 19.687,0.856 1.015,-3.875 1.224,-17.935 1.547,-20.749 0.323,-2.815 2.328,-13.026 2.655,-15.489 0.326,-2.463 -49.211,-1.26 -49.211,-1.26 -0.337,1.41 -0.245,10.545 -0.216,13.356 0.028,2.811 -2.949,21.115 -2.949,21.115 0.369,1.754 7.441,5.254 12.706,5.494 6.328,0.288 10.879,-1.516 11.929,-1.877 l 1.377,-2.826 1.661,-9.504 1.005,-4.931 0.437,8.43 z m 0.543,-21.768 c 0,0 1.055,4.568 0,7.027 m -0.351,0.704 c 0,0 6.325,-3.514 7.73,-6.676"
         fill-opacity="0"
         stroke="#1a1919"
         stroke-width="1.5"
         stroke-linecap="round"
         stroke-linejoin="round"
         id="path666" />
      <path
         d="m 7.087,30.423 c -1.25,0.5 -5.25,8 -0.5,20 4.75,12 21.5,15.5 21.5,15.5 l 41.75,-29 c 2,-4.5 3.25,-20.25 -5.5,-26.75 -3.5,-4.25 -45.5,-17 -56.25,16.25 l -1.75,-1.5 c 0,0 -0.25,5 0.75,5.5"
         fill="#50341d"
         id="path668" />
      <path
         d="m 7.087,30.423 c -1.25,0.5 -5.25,8 -0.5,20 4.75,12 21.5,15.5 21.5,15.5 l 41.75,-29 c 2,-4.5 3.25,-20.25 -5.5,-26.75 -3.5,-4.25 -45.5,-17 -56.25,16.25 l -1.75,-1.5 c 0,0 -0.25,5 0.75,5.5 z"
         fill-opacity="0"
         stroke="#1a1919"
         stroke-width="1.5"
         stroke-linecap="round"
         stroke-linejoin="round"
         id="path670" />
    </g>
    <path
       d="m 102.691,67.701 c 2.811,6.676 5.622,24.246 5.622,24.246 0,0 -1.055,3.513 -4.568,4.92 -3.514,1.406 -17.921,-0.704 -18.975,-2.459 -0.702,-1.055 0,-9.489 0.352,-10.895 0.351,-1.405 1.053,-1.404 2.459,-1.404 1.054,-0.352 5.623,0.35 5.623,0.35 -0.703,-1.053 -1.407,-11.245 -1.407,-13.704 0,0 -5.27,-1.758 -5.27,-3.513 0,-1.758 3.162,-7.38 3.162,-7.38 l 0.351,-4.216 c 0,0 2.11,-3.516 2.812,-1.758 0.702,1.758 0.352,4.92 0.352,4.92 l 1.053,2.107 5.271,-5.269 c 0,0 -2.109,-9.137 -1.405,-10.543 0.703,-1.405 6.675,-1.757 7.73,-0.352 1.055,1.407 5.271,7.38 4.568,10.543 -0.702,3.162 -0.351,8.784 -2.108,10.893 -1.757,2.108 -5.622,3.514 -5.622,3.514"
       fill="#f4bb9d"
       id="path674" />
    <path
       d="m 102.691,67.701 c 2.811,6.676 5.622,24.246 5.622,24.246 0,0 -1.055,3.513 -4.568,4.92 -3.514,1.406 -17.921,-0.704 -18.975,-2.459 -0.702,-1.055 0,-9.489 0.352,-10.895 0.351,-1.405 1.053,-1.404 2.459,-1.404 1.054,-0.352 5.623,0.35 5.623,0.35 -0.703,-1.053 -1.407,-11.245 -1.407,-13.704 0,0 -5.27,-1.758 -5.27,-3.513 0,-1.758 3.162,-7.38 3.162,-7.38 l 0.351,-4.216 c 0,0 2.11,-3.516 2.812,-1.758 0.702,1.758 0.352,4.92 0.352,4.92 l 1.053,2.107 5.271,-5.269 c 0,0 -2.109,-9.137 -1.405,-10.543 0.703,-1.405 6.675,-1.757 7.73,-0.352 1.055,1.407 5.271,7.38 4.568,10.543 -0.702,3.162 -0.351,8.784 -2.108,10.893 -1.757,2.108 -5.622,3.514 -5.622,3.514 z"
       fill-opacity="0"
       stroke="#1a1919"
       stroke-width="1.5"
       stroke-linecap="round"
       stroke-linejoin="round"
       id="path676" />
    <path
       d="m 34.52,75.431 c 0,0 -7.028,5.974 -8.434,10.542 -0.703,2.46 -0.35,7.731 2.812,17.569 3.162,9.84 -2.46,40.762 -3.515,45.33 l -0.702,3.163 c 4.919,4.217 22.824,7.379 37.95,7.379 8.785,0 17.57,-3.162 18.624,-3.513 1.055,-4.919 2.812,-48.845 -1.053,-59.386 1.053,0.352 5.662,2.342 7.419,2.342 -0.703,-1.055 -0.321,-12.83 1.604,-17.802 -1.757,-0.702 -19.917,-8.084 -26.242,-6.679 -1.054,-0.35 -5.271,-1.052 -5.271,-1.052 0,0 -21.787,-0.001 -23.192,2.107"
       fill="#f5ed67"
       id="path678" />
    <path
       d="m 34.52,75.431 c 0,0 -7.028,5.974 -8.434,10.542 -0.703,2.46 -0.35,7.731 2.812,17.569 3.162,9.84 -2.46,40.762 -3.515,45.33 l -0.702,3.163 c 4.919,4.217 22.824,7.379 37.95,7.379 8.785,0 17.57,-3.162 18.624,-3.513 1.055,-4.919 2.812,-48.845 -1.053,-59.386 1.053,0.352 5.662,2.342 7.419,2.342 -0.703,-1.055 -0.321,-12.83 1.604,-17.802 -1.757,-0.702 -19.917,-8.084 -26.242,-6.679 -1.054,-0.35 -5.271,-1.052 -5.271,-1.052 0,0 -21.787,-0.001 -23.192,2.107 z"
       fill-opacity="0"
       stroke="#1a1919"
       stroke-width="1.5"
       stroke-linecap="round"
       stroke-linejoin="round"
       id="path680" />
    <path
       d="m 36.337,72.423 c 0.25,1.25 -2,3.75 -2,3.75 3.25,0.5 16.75,1.75 24.5,-2.75 0,0 -4.75,-1.75 -5.5,-3.25 -0.75,-1.5 -17,2.25 -17,2.25"
       fill="#f4bb9d"
       id="path682" />
    <path
       d="m 36.337,72.423 c 0.25,1.25 -2,3.75 -2,3.75 3.25,0.5 16.75,1.75 24.5,-2.75 0,0 -4.75,-1.75 -5.5,-3.25 -0.75,-1.5 -17,2.25 -17,2.25 z"
       fill-opacity="0"
       stroke="#1a1919"
       stroke-width="1.5"
       stroke-linecap="round"
       stroke-linejoin="round"
       id="path684" />
    <g
       id="g690">
      <path
         d="m 55.337,14.423 c 2.5,0.5 5.5,1.5 7.5,3.75 1.532,1.723 3.5,4.25 4.75,9.75 1.561,6.865 5.274,11.278 6.25,18.5 1.25,9.25 -2.51,23.692 -19.5,27.5 -14.5,3.25 -28.336,-3.67 -31.25,-5.75 -1.75,-1.25 -3.25,-3.5 -3.25,-3.5 -0.75,1.25 -2.385,2.496 -8,0.25 -5,-2 -14,-17 -0.25,-16.25 0.75,1.75 7,10.5 9.25,12 0,0 -2.75,-8.75 -3,-16.75 2.5,-1.75 11.5,-14 6,-21.75 1.5,-2.25 8.25,-8.75 9.25,3.5 1,0 4.5,-2 5,-3.5 l 0.25,1 c 1.25,0.25 3.5,-0.75 4.5,-1.75 l 0.25,1 c 1.458,0 4.099,0.237 7,-2.966 0.083,-0.091 0.166,-0.186 0.25,-0.284 v 1.5 c 1.25,-0.5 6.25,-1.5 5,-6.25"
         fill="#f4bb9d"
         id="path686" />
      <path
         d="m 55.337,14.423 c 2.5,0.5 5.5,1.5 7.5,3.75 1.532,1.723 3.5,4.25 4.75,9.75 1.561,6.865 5.274,11.278 6.25,18.5 1.25,9.25 -2.51,23.692 -19.5,27.5 -14.5,3.25 -28.336,-3.67 -31.25,-5.75 -1.75,-1.25 -3.25,-3.5 -3.25,-3.5 -0.75,1.25 -2.385,2.496 -8,0.25 -5,-2 -14,-17 -0.25,-16.25 0.75,1.75 7,10.5 9.25,12 0,0 -2.75,-8.75 -3,-16.75 2.5,-1.75 11.5,-14 6,-21.75 1.5,-2.25 8.25,-8.75 9.25,3.5 1,0 4.5,-2 5,-3.5 l 0.25,1 c 1.25,0.25 3.5,-0.75 4.5,-1.75 l 0.25,1 c 1.458,0 4.099,0.237 7,-2.966 0.083,-0.091 0.166,-0.186 0.25,-0.284 v 1.5 c 1.25,-0.5 6.25,-1.5 5,-6.25 z"
         fill-opacity="0"
         stroke="#1a1919"
         stroke-width="1.5"
         stroke-linecap="round"
         stroke-linejoin="round"
         id="path688" />
    </g>
    <path
       d="m 50.837,44.673 c 1.25,-0.75 5.75,-0.75 5.75,-0.75 l -2,2.25"
       fill-opacity="0"
       stroke="#1a1919"
       stroke-width="1.5"
       stroke-linecap="round"
       stroke-linejoin="round"
       id="path692" />
    <path
       d="m 40.023,41.99 c 0.598,1.984 0.439,3.785 -0.354,4.023 -0.792,0.24 -1.92,-1.174 -2.518,-3.157 -0.598,-1.984 -0.44,-3.784 0.353,-4.023 0.793,-0.24 1.921,1.174 2.519,3.157"
       fill="#1a1919"
       id="path694" />
    <path
       d="m 74.51,44.747 c 0.424,2.45 -2.099,4.931 -5.637,5.543 -3.537,0.614 -6.748,-0.875 -7.172,-3.324 -0.424,-2.449 2.099,-4.93 5.636,-5.543 3.537,-0.613 6.748,0.875 7.173,3.324"
       fill="#ec9477"
       id="path696" />
    <path
       d="m 62.523,37.24 c 0.598,1.984 0.439,3.785 -0.354,4.023 -0.793,0.24 -1.92,-1.174 -2.518,-3.157 -0.598,-1.984 -0.44,-3.784 0.353,-4.023 0.793,-0.24 1.921,1.174 2.519,3.157"
       fill="#1a1919"
       id="path698" />
    <path
       d="m 30.337,26.673 c -1,-0.75 -2,2.5 -1.5,6.25"
       fill-opacity="0"
       stroke="#1a1919"
       stroke-width="1.5"
       stroke-linecap="round"
       stroke-linejoin="round"
       id="path700" />
    <path
       d="m 26.837,45.923 c -1,4.5 -4.747,14.805 0.75,14.5 4.5,-0.25 1.75,-7.5 1.75,-8.5"
       fill="#b1d4e6"
       id="path702" />
    <path
       d="m 26.837,45.923 c -1,4.5 -4.747,14.805 0.75,14.5 4.5,-0.25 1.75,-7.5 1.75,-8.5"
       fill-opacity="0"
       stroke="#1a1919"
       stroke-width="1.5"
       stroke-linecap="round"
       stroke-linejoin="round"
       id="path704" />
    <path
       d="M 55.226,56.197 52.5,56.839 c 0,0 -1.443,1.283 -0.161,2.727 1.283,1.443 3.207,1.122 3.207,1.122 l -0.32,-4.491"
       fill="#c4675a"
       id="path706" />
    <path
       d="m 53.496,56.456 c 0,0 -1.407,0.704 -2.46,2.109 -1.054,1.405 -2.811,2.108 -2.811,2.108 m 2.901,-1.405 1.927,1.954 m 7.284,-42.049 c 0,0 2,-0.25 3,2"
       fill-opacity="0"
       stroke="#1a1919"
       stroke-width="1.5"
       stroke-linecap="round"
       stroke-linejoin="round"
       id="path708" />
    <path
       d="m 54.755,52.687 4.692,-0.748 1.73,10.863 -4.69,0.747 C 53.301,61.97 52.018,55.236 54.755,52.687"
       fill="#fffffe"
       id="path710" />
    <path
       d="m 54.755,52.687 4.692,-0.748 1.73,10.863 -4.69,0.747 C 53.301,61.97 52.018,55.236 54.755,52.687 Z"
       fill-opacity="0"
       stroke="#1a1919"
       stroke-width="1.5"
       stroke-linecap="round"
       stroke-linejoin="round"
       id="path712" />
    <path
       d="m 108.542,37.54 c -1.981,-1.175 -4.733,-0.948 -6.211,-0.689 -1.478,0.26 -19.078,4.103 -19.078,4.103 -0.986,0.174 -3.319,1.862 -4.174,2.774 -0.856,0.91 0,0 0,0 -1.95,-1.11 -5.193,-0.409 -6.592,-0.103 l -7.981,1.939 c -1.195,0.443 -2.746,1.342 -3.522,2.279 -0.774,0.937 -0.774,0.937 -0.774,0.937 -2.266,6.436 -0.15,14.96 3.11,17.225 0,0 -2.035,-0.941 1.061,0.59 1.061,0.591 2.83,1.068 3.775,0.918 0,0 6.72,-0.311 8.135,-0.537 1.415,-0.225 4.255,-0.678 5.671,-2.422 0,0 0.286,0.207 1.391,0.791 1.107,0.584 2.952,1.049 3.94,0.892 0,0 17.894,-2.092 19.375,-2.327 1.482,-0.237 4.158,-0.917 5.65,-2.672 L 108.542,37.54"
       fill="#fffffe"
       id="path714" />
    <path
       d="m 104.262,43.419 2.388,14.983 c -1.492,1.756 -4.168,2.436 -5.65,2.672 -1.481,0.236 -19.376,2.328 -19.376,2.328 -0.987,0.157 -2.833,-0.309 -3.939,-0.892 -1.104,-0.583 -1.391,-0.79 -1.391,-0.79 -1.416,1.743 -4.256,2.195 -5.671,2.422 -1.416,0.225 -2.463,-12.223 2.028,-14.308 4.491,-2.085 4.01,0.16 7.056,0.482 3.047,0.32 8.179,-3.85 10.746,-5.613 2.566,-1.764 10.459,-8.983 13.809,-1.284"
       fill="#bce2ee"
       id="path716" />
    <path
       d="m 109.93,46.253 2.388,14.985 c -1.492,1.755 -4.168,2.435 -5.65,2.672 -1.481,0.235 -19.375,2.327 -19.375,2.327 -0.988,0.157 -2.833,-0.308 -3.94,-0.892 -1.105,-0.584 -1.391,-0.791 -1.391,-0.791 -1.416,1.744 -4.256,2.197 -5.671,2.422 -1.415,0.226 -8.135,0.537 -8.135,0.537 -0.945,0.15 -2.714,-0.327 -3.775,-0.918 -3.096,-1.531 -1.061,-0.59 -1.061,-0.59 -0.398,-0.277 -0.778,-0.646 -1.137,-1.095 -1.108,-1.386 -1.997,-3.521 -2.491,-5.954 1.788,-0.834 14.136,-4.202 18.627,-6.287 4.491,-2.085 4.01,0.16 7.057,0.481 3.046,0.321 8.178,-3.85 10.745,-5.614 2.566,-1.763 10.459,-8.98 13.809,-1.283"
       fill="#8fd1e9"
       id="path718" />
    <path
       d="m 68.156,67.513 c 0,0 6.72,-0.311 8.135,-0.537 1.415,-0.225 4.255,-0.678 5.671,-2.422 0,0 0.286,0.207 1.391,0.791 1.107,0.584 2.952,1.049 3.94,0.892 0,0 17.894,-2.092 19.375,-2.327 1.482,-0.237 4.158,-0.917 5.65,-2.672 L 108.542,37.54 c -1.981,-1.175 -4.733,-0.948 -6.211,-0.689 -1.478,0.26 -19.078,4.103 -19.078,4.103 -0.986,0.174 -3.319,1.862 -4.174,2.774 -0.856,0.91 0,0 0,0 -1.95,-1.11 -5.193,-0.409 -6.592,-0.103 l -7.981,1.939 c -1.195,0.443 -2.746,1.342 -3.522,2.279 -0.774,0.937 -0.774,0.937 -0.774,0.937 -2.266,6.436 -0.15,14.96 3.11,17.225 0.726,0.616 2.971,1.418 2.971,1.418 l 1.865,0.09 M 85.888,55.827 c 0,0 9.213,-0.96 9.835,-1.82 0.624,-0.858 0.388,-2.34 -0.432,-2.716 -0.819,-0.376 -4.276,0.175 -4.276,0.175 m -2.778,-7.91 c 0.74,-0.118 7.406,-1.18 8.068,-1.792 0.662,-0.612 1.167,-2.212 1.167,-2.212 m -9.417,23.525 c 0.989,-0.158 10.577,-1.938 11.929,-1.394 1.352,0.544 2.953,1.049 2.251,1.414"
       fill-opacity="0"
       stroke="#1a1919"
       stroke-width="1.5"
       stroke-linecap="round"
       stroke-linejoin="round"
       id="path720" />
    <path
       d="m 105.728,37.35 c 4.772,-0.761 9.527,4.189 10.621,11.056 1.094,6.867 -1.887,13.05 -6.659,13.81 -4.773,0.76 -9.53,-4.19 -10.622,-11.056 -1.094,-6.868 1.889,-13.05 6.66,-13.81"
       fill="#fffffe"
       id="path722" />
    <path
       d="m 112.417,40.018 c 2.314,1.532 3.385,4.954 3.932,8.388 1.094,6.867 -1.887,13.05 -6.659,13.81 -4.773,0.76 -9.53,-4.19 -10.622,-11.056 -0.684,-4.293 0.226,-8.317 2.168,-10.918 1.3,0.56 5.308,-0.082 5.308,-0.082 0,0 4.69,-0.926 5.873,-0.142"
       fill="#8fd1e9"
       id="path724" />
    <path
       d="m 105.728,37.35 c 4.772,-0.761 9.527,4.189 10.621,11.056 1.094,6.867 -1.887,13.05 -6.659,13.81 -4.773,0.76 -9.53,-4.19 -10.622,-11.056 -1.094,-6.868 1.889,-13.05 6.66,-13.81 z m 0.93,4.241 c 3.141,-0.5 5.854,2.963 6.575,7.486 0.721,4.522 -0.824,8.389 -3.967,8.89 -3.142,0.501 -5.854,-2.964 -6.575,-7.485 -0.72,-4.522 0.826,-8.389 3.967,-8.891 z"
       fill-opacity="0"
       stroke="#1a1919"
       stroke-width="1.5"
       stroke-linecap="round"
       stroke-linejoin="round"
       id="path726" />
    <path
       d="m 48.927,83.513 c -3.162,2.109 -7.379,12.65 -4.568,21.084 3.163,-0.703 4.919,-3.865 5.622,-6.324 0.703,-2.461 3.163,-14.76 -1.054,-14.76"
       fill="#c8b762"
       id="path728" />
    <path
       d="m 48.927,83.513 c -3.162,2.109 -7.379,12.65 -4.568,21.084 3.163,-0.703 4.919,-3.865 5.622,-6.324 0.703,-2.461 3.163,-14.76 -1.054,-14.76 z m 28.463,4.568 c 0,0 2.461,7.38 3.163,9.489 M 93.204,82.459 c 0.19,1.161 0.35,2.445 0.702,3.515 M 18.356,26.939 c 0.703,3.514 -1.405,15.11 -3.162,18.273 0,0 1.07,0.234 2.643,-1.289 m -7.563,-3.982 c 0,1.876 -0.586,5.385 1.757,9.136 m 2.46,10.893 c -1.757,-0.703 -3.162,-1.756 -2.46,-3.162 0.703,-1.406 0.352,-2.108 -1.054,-2.46 -1.406,-0.352 -2.46,0 -2.46,1.054 M 37.683,13.235 c 1.405,0.702 3.114,6.425 0.703,9.135 m 4.919,-8.433 c 0.703,1.055 2.578,4.078 -0.468,7.486 m 7.848,-7.134 c 0,0 1.616,2.606 -0.598,5.168"
       fill-opacity="0"
       stroke="#1a1919"
       stroke-width="1.5"
       stroke-linecap="round"
       stroke-linejoin="round"
       id="path730" />
    <path
       d="m 44.847,51.329 c 0.424,2.45 -2.099,4.93 -5.637,5.543 -3.537,0.614 -6.748,-0.875 -7.172,-3.324 -0.424,-2.449 2.099,-4.93 5.636,-5.543 3.537,-0.613 6.748,0.875 7.173,3.324"
       fill="#ec9477"
       id="path732" />
    <path
       d="m 66.087,52.423 0.25,3.5 c 0,-1.5 1,-6 1.5,-7.5 0.5,-1.5 2,-2 2,-2 v 2.25 c 0,0 1.5,-4 3.25,-5 2.001,-1.143 3.25,-1 3.25,-1 l -0.25,1.75 c 0.5,-0.75 2.75,-2.25 3.75,-2 1,0.25 1.5,0.75 0.75,1.75 -0.75,1 -1.75,4.25 -1.75,4.25 1,-1.75 3,-3.5 4.5,-3.75 1.5,-0.25 2,1.25 1.5,2 -0.5,0.75 -1.5,1.5 -2,2.25 -0.5,0.75 -2,5 -1.75,6.5 0.25,1 1.75,5.75 1.5,8.75 -0.25,3 -1,3 -3.5,5.5 -1.5,5.25 -7,22 -14,27.75 -7,5.75 -25.25,0.5 -25.25,0.5 -0.75,-3.5 1.5,-11.75 4,-13.75 0.75,0.25 11.25,1 12.75,1.5 1,-2 9.5,-15.25 11.5,-17.5 l -2,-5.5 c -0.75,-0.25 -2,-3.25 -2.75,-4.5 -0.75,-1.25 -0.25,-4.25 0.25,-5.75 0.75,-1.5 2.25,-1.25 2.5,0"
       fill="#f4bb9d"
       id="path734" />
    <path
       d="m 66.087,52.423 0.25,3.5 c 0,-1.5 1,-6 1.5,-7.5 0.5,-1.5 2,-2 2,-2 v 2.25 c 0,0 1.5,-4 3.25,-5 2.001,-1.143 3.25,-1 3.25,-1 l -0.25,1.75 c 0.5,-0.75 2.75,-2.25 3.75,-2 1,0.25 1.5,0.75 0.75,1.75 -0.75,1 -1.75,4.25 -1.75,4.25 1,-1.75 3,-3.5 4.5,-3.75 1.5,-0.25 2,1.25 1.5,2 -0.5,0.75 -1.5,1.5 -2,2.25 -0.5,0.75 -2,5 -1.75,6.5 0.25,1 1.75,5.75 1.5,8.75 -0.25,3 -1,3 -3.5,5.5 -1.5,5.25 -7,22 -14,27.75 -7,5.75 -25.25,0.5 -25.25,0.5 -0.75,-3.5 1.5,-11.75 4,-13.75 0.75,0.25 11.25,1 12.75,1.5 1,-2 9.5,-15.25 11.5,-17.5 l -2,-5.5 c -0.75,-0.25 -2,-3.25 -2.75,-4.5 -0.75,-1.25 -0.25,-4.25 0.25,-5.75 0.75,-1.5 2.25,-1.25 2.5,0 z"
       fill-opacity="0"
       stroke="#1a1919"
       stroke-width="1.5"
       stroke-linecap="round"
       stroke-linejoin="round"
       id="path736" />
    <path
       d="m 68.837,68.173 c 0.75,-0.5 6,-0.5 6.75,0 m -5.75,-19.5 c 0,0 -1.25,3.75 -0.75,5.25 m 7,-9.5 c 0,0 -2,2.75 -2.25,3.5 -0.25,0.75 -0.5,4.75 -0.5,4.75 m 5.5,-4.25 c 0,0 -2,3 -2,3.75"
       fill-opacity="0"
       stroke="#1a1919"
       stroke-width="1.5"
       stroke-linecap="round"
       stroke-linejoin="round"
       id="path738" />
    <path
       d="m 25.033,82.459 c 1.757,-1.757 6.675,-4.217 23.894,1.054 -3.162,2.109 -7.379,12.65 -4.568,21.084 0,0 -18.623,-2.459 -21.435,-10.189 -2.811,-7.732 1.213,-11.053 2.109,-11.949"
       fill="#f5ed67"
       id="path740" />
    <path
       d="m 25.033,82.459 c 1.757,-1.757 6.675,-4.217 23.894,1.054 -3.162,2.109 -7.379,12.65 -4.568,21.084 0,0 -18.623,-2.459 -21.435,-10.189 -2.811,-7.732 1.213,-11.053 2.109,-11.949 z"
       fill-opacity="0"
       stroke="#1a1919"
       stroke-width="1.5"
       stroke-linecap="round"
       stroke-linejoin="round"
       id="path742" />
    <path
       d="m 118.004,71.923 c 4.666,3.333 11.333,9.333 7.333,11.333 -4,2 -6.001,0 -6.667,-3.333 -0.666,-3.334 -2,-6 -2,-6"
       fill="#b1d4e6"
       id="path744" />
    <path
       d="m 118.004,71.923 c 4.666,3.333 11.333,9.333 7.333,11.333 -4,2 -6.001,0 -6.667,-3.333 -0.666,-3.334 -2,-6 -2,-6"
       fill-opacity="0"
       stroke="#1a1919"
       stroke-width="1.5"
       stroke-linecap="round"
       stroke-linejoin="round"
       id="path746" />
    <path
       d="m 96.67,47.255 c 0,1.106 -0.895,2 -2,2 -1.104,0 -2,-0.894 -2,-2 0,-1.103 0.896,-2 2,-2 1.105,0 2,0.897 2,2"
       fill="#fffffe"
       id="path748" />
  </g>
</svg>
