<svg width="70.088" height="140" xmlns="http://www.w3.org/2000/svg"><path d="M10.36 124.563c-.666 1-1.691 2.845-1.55 3.695.142.85 1.854 3.122 2.279 3.688.424.566 2.244 3.943 2.952 5.075.707 1.133 3.68 2.69 6.087 2.549 2.407-.142 3.256-1.7 3.398-2.69.141-.991-1.699-3.68-1.699-3.68s-10.618-9.91-11.467-8.637" fill="#c9d7e1"/><path d="M10.36 124.563c-.666 1-1.691 2.845-1.55 3.695.142.85 1.854 3.122 2.279 3.688.424.566 2.244 3.943 2.952 5.075.707 1.133 3.68 2.69 6.087 2.549 2.407-.142 3.256-1.7 3.398-2.69.141-.991-1.699-3.68-1.699-3.68s-10.618-9.91-11.467-8.637z" stroke="#1a1919" stroke-width=".8420583600000001" stroke-linecap="round" stroke-linejoin="round" fill="none"/><path d="M28.196 126.211c-.648.433-1.268 2.05-.835 3.132.432 1.08 2.398 2.756 3.48 3.62 1.081.865 2.83 4.908 6.795 4.908 3.297 0 4.34-2.076 4.152-3.209-.112-.674-2.265-3.21-3.654-4.824-1.106-1.287-9.938-3.627-9.938-3.627" fill="#c9d7e1"/><path d="M28.196 126.211c-.648.433-1.268 2.05-.835 3.132.432 1.08 2.398 2.756 3.48 3.62 1.081.865 2.83 4.908 6.795 4.908 3.297 0 4.34-2.076 4.152-3.209-.112-.674-2.265-3.21-3.654-4.824-1.106-1.287-9.938-3.627-9.938-3.627z" stroke="#1a1919" stroke-width=".8420583600000001" stroke-linecap="round" stroke-linejoin="round" fill="none"/><path d="M24.507 105.629c0 .995-1.79 4.378-2.388 5.572-.597 1.194-4.179 12.536-3.98 13.331.2.797 2.188 7.562 2.985 8.756-.796 1.393-2.984 1.99-4.775.597-1.791-1.393-2.986-3.384-3.384-3.98-.397-.597-2.586-3.383-2.586-4.377-.2-.996.796-1.99.796-1.99s1.392-11.143 3.183-15.123c.2-.597 1.393-4.378 1.393-4.378s7.96 1.99 8.756 1.592" fill="#f4bb9d"/><path d="M24.507 105.629c0 .995-1.79 4.378-2.388 5.572-.597 1.194-4.179 12.536-3.98 13.331.2.797 2.188 7.562 2.985 8.756-.796 1.393-2.984 1.99-4.775.597-1.791-1.393-2.986-3.384-3.384-3.98-.397-.597-2.586-3.383-2.586-4.377-.2-.996.796-1.99.796-1.99s1.392-11.143 3.183-15.123c.2-.597 1.393-4.378 1.393-4.378s7.96 1.99 8.756 1.592z" stroke="#1a1919" stroke-width=".8494200000000001" stroke-linecap="round" stroke-linejoin="round" fill="none"/><path d="M18.989 120.304c-.617 2.162-1.063 3.932-.99 4.228.195.797 2.27 6.402 3.828 8.667-.782 1.393-3.828 2.08-5.589.686-1.76-1.393-3.222-4.053-3.613-4.65-.39-.597-2.254-2.713-2.254-3.707-.196-.996.782-1.99.782-1.99s.297-2.42.793-5.407c1.219.83 4.709 2.72 7.043 2.173" fill="#fffffe"/><path d="M18.989 120.304c-.617 2.162-1.063 3.932-.99 4.228.195.797 2.27 6.402 3.828 8.667-.782 1.393-3.828 2.08-5.589.686-1.76-1.393-3.222-4.053-3.613-4.65-.39-.597-2.254-2.713-2.254-3.707-.196-.996.782-1.99.782-1.99s.297-2.42.793-5.407c1.219.83 4.709 2.72 7.043 2.173z" stroke="#1a1919" stroke-width=".8420583600000001" stroke-linecap="round" stroke-linejoin="round" fill="none"/><path d="M38.834 105.43c0 .996-.797 4.18-1.393 5.771-.597 1.194-2.189 13.532-1.79 14.924 0 0 1.49 2.964 1.69 3.76.199.796-1.094 4.2-5.273 1.215-.796-.597-3.184-2.587-3.582-3.582-.398-.995-.198-2.189-.198-2.189.398-2.587-.001-12.337 1.79-15.122.398-1.593.597-6.568.597-6.568l8.159 1.792" fill="#f4bb9d"/><path d="M38.834 105.43c0 .996-.797 4.18-1.393 5.771-.597 1.194-2.189 13.532-1.79 14.924 0 0 1.49 2.964 1.69 3.76.199.796-1.094 4.2-5.273 1.215-.796-.597-3.184-2.587-3.582-3.582-.398-.995-.198-2.189-.198-2.189.398-2.587-.001-12.337 1.79-15.122.398-1.593.597-6.568.597-6.568z" stroke="#1a1919" stroke-width=".8494200000000001" stroke-linecap="round" stroke-linejoin="round" fill="none"/><path d="M36.183 120.218c-.415 2.835-.69 5.39-.542 5.988 0 0 2.07 2.985 2.243 3.787.172.802-1.911 4.187-5.988 1.065-.776-.624-3.096-2.692-3.46-3.7-.365-1.007-.126-2.194-.126-2.194.197-1.047.302-3.287.484-5.757 1.657 1.25 5.49 2.309 7.39.81" fill="#fffffe"/><path d="M36.183 120.218c-.415 2.835-.69 5.39-.542 5.988 0 0 2.07 2.985 2.243 3.787.172.802-1.911 4.187-5.988 1.065-.776-.624-3.096-2.692-3.46-3.7-.365-1.007-.126-2.194-.126-2.194.197-1.047.302-3.287.484-5.757 1.657 1.25 5.49 2.309 7.39.81zm1.457-9.614s-.797.597-1.393.597" stroke="#1a1919" stroke-width=".8420583600000001" stroke-linecap="round" stroke-linejoin="round" fill="none"/><path d="M19.731 110.404l2.587-.397" stroke="#1a1919" stroke-width=".8494200000000001" stroke-linecap="round" stroke-linejoin="round" fill="none"/><path d="M28.577 104.424l.206.595s6.786 2.12 11.148.485c.575-2.195.693-10.157.876-11.75.183-1.594 1.318-7.376 1.503-8.771.185-1.395-27.867-.714-27.867-.714-.19.799-.138 5.972-.122 7.564.016 1.591-1.67 11.957-1.67 11.957.209.993 4.214 2.975 7.195 3.11 3.584.164 6.16-.858 6.755-1.062l.78-1.6.94-5.382.57-2.793.247 4.774-.561 3.587" fill="#6588a6"/><path d="M28.577 104.424l.206.595s6.786 2.12 11.148.485c.575-2.195.693-10.157.876-11.75.183-1.594 1.318-7.376 1.503-8.771.185-1.395-27.867-.714-27.867-.714-.19.799-.138 5.972-.122 7.564.016 1.591-1.67 11.957-1.67 11.957.209.993 4.214 2.975 7.195 3.11 3.584.164 6.16-.858 6.755-1.062l.78-1.6.94-5.382.57-2.793.247 4.774zm.307-12.326s.598 2.586 0 3.979m-.198.398s3.581-1.99 4.377-3.78" stroke="#1a1919" stroke-width=".8494200000000001" stroke-linecap="round" stroke-linejoin="round" fill="none"/><path d="M2.007 15.272c-.708.283-2.973 4.53-.283 11.325 2.69 6.796 12.175 8.778 12.175 8.778l23.642-16.422c1.133-2.549 1.84-11.467-3.114-15.148C32.445 1.398 8.66-5.822 2.574 13.007l-.991-.85s-.142 2.832.424 3.115" fill="#50341d"/><path d="M2.007 15.272c-.708.283-2.973 4.53-.283 11.325 2.69 6.796 12.175 8.778 12.175 8.778l23.642-16.422c1.133-2.549 1.84-11.467-3.114-15.148C32.445 1.398 8.66-5.822 2.574 13.007l-.991-.85s-.142 2.832.424 3.115z" stroke="#1a1919" stroke-width=".8494200000000001" stroke-linecap="round" stroke-linejoin="round" fill="none"/><path d="M56.146 36.382c1.591 3.78 3.183 13.73 3.183 13.73s-.597 1.989-2.587 2.786c-1.99.796-10.148-.399-10.745-1.393-.397-.597 0-5.373.2-6.17.198-.795.596-.794 1.392-.794.597-.2 3.184.198 3.184.198-.398-.597-.796-6.368-.796-7.76 0 0-2.985-.996-2.985-1.99 0-.995 1.79-4.179 1.79-4.179l.2-2.387s1.194-1.991 1.592-.996c.398.996.2 2.786.2 2.786l.596 1.193 2.984-2.983s-1.194-5.175-.795-5.97c.398-.796 3.78-.996 4.377-.2.598.797 2.985 4.18 2.587 5.97-.398 1.79-.199 4.974-1.194 6.169-.995 1.193-3.183 1.99-3.183 1.99" fill="#f4bb9d"/><path d="M56.146 36.382c1.591 3.78 3.183 13.73 3.183 13.73s-.597 1.989-2.587 2.786c-1.99.796-10.148-.399-10.745-1.393-.397-.597 0-5.373.2-6.17.198-.795.596-.794 1.392-.794.597-.2 3.184.198 3.184.198-.398-.597-.796-6.368-.796-7.76 0 0-2.985-.996-2.985-1.99 0-.995 1.79-4.179 1.79-4.179l.2-2.387s1.194-1.991 1.592-.996c.398.996.2 2.786.2 2.786l.596 1.193 2.984-2.983s-1.194-5.175-.795-5.97c.398-.796 3.78-.996 4.377-.2.598.797 2.985 4.18 2.587 5.97-.398 1.79-.199 4.974-1.194 6.169-.995 1.193-3.183 1.99-3.183 1.99z" stroke="#1a1919" stroke-width=".8494200000000001" stroke-linecap="round" stroke-linejoin="round" fill="none"/><path d="M17.542 40.759s-3.98 3.383-4.776 5.97c-.398 1.393-.198 4.377 1.592 9.949s-1.393 23.082-1.99 25.669l-.398 1.791c2.786 2.388 12.925 4.179 21.49 4.179 4.975 0 9.95-1.791 10.547-1.99.597-2.785 1.592-27.66-.596-33.629.596.2 3.206 1.327 4.2 1.327-.397-.598-.181-7.266.91-10.081-.996-.398-11.28-4.578-14.861-3.783-.597-.198-2.985-.595-2.985-.595s-12.337 0-13.133 1.193" fill="#f5ed67"/><path d="M17.542 40.759s-3.98 3.383-4.776 5.97c-.398 1.393-.198 4.377 1.592 9.949s-1.393 23.082-1.99 25.669l-.398 1.791c2.786 2.388 12.925 4.179 21.49 4.179 4.975 0 9.95-1.791 10.547-1.99.597-2.785 1.592-27.66-.596-33.629.596.2 3.206 1.327 4.2 1.327-.397-.598-.181-7.266.91-10.081-.996-.398-11.28-4.578-14.861-3.783-.597-.198-2.985-.595-2.985-.595s-12.337 0-13.133 1.193z" stroke="#1a1919" stroke-width=".8494200000000001" stroke-linecap="round" stroke-linejoin="round" fill="none"/><path d="M18.57 39.056c.142.707-1.132 2.123-1.132 2.123 1.84.283 9.485.991 13.874-1.557 0 0-2.69-.991-3.114-1.84-.425-.85-9.627 1.274-9.627 1.274" fill="#f4bb9d"/><path d="M18.57 39.056c.142.707-1.132 2.123-1.132 2.123 1.84.283 9.485.991 13.874-1.557 0 0-2.69-.991-3.114-1.84-.425-.85-9.627 1.274-9.627 1.274z" stroke="#1a1919" stroke-width=".8494200000000001" stroke-linecap="round" stroke-linejoin="round" fill="none"/><path d="M29.33 6.211c1.416.284 3.115.85 4.247 2.124.868.976 1.982 2.407 2.69 5.521.884 3.888 2.987 6.387 3.54 10.476.707 5.238-1.422 13.417-11.043 15.573-8.211 1.84-16.046-2.078-17.696-3.256-.991-.708-1.84-1.982-1.84-1.982-.425.708-1.351 1.413-4.53.141-2.832-1.132-7.929-9.626-.143-9.202.425.991 3.964 5.946 5.239 6.796 0 0-1.558-4.955-1.7-9.485 1.416-.991 6.513-7.928 3.398-12.317.85-1.274 4.672-4.955 5.238 1.982.567 0 2.549-1.132 2.832-1.982l.141.566c.708.142 1.982-.424 2.549-.99l.141.566c.826 0 2.321.134 3.964-1.68.047-.051.094-.105.142-.16v.849c.708-.283 3.539-.85 2.831-3.54" fill="#f4bb9d"/><path d="M29.33 6.211c1.416.284 3.115.85 4.247 2.124.868.976 1.982 2.407 2.69 5.521.884 3.888 2.987 6.387 3.54 10.476.707 5.238-1.422 13.417-11.043 15.573-8.211 1.84-16.046-2.078-17.696-3.256-.991-.708-1.84-1.982-1.84-1.982-.425.708-1.351 1.413-4.53.141-2.832-1.132-7.929-9.626-.143-9.202.425.991 3.964 5.946 5.239 6.796 0 0-1.558-4.955-1.7-9.485 1.416-.991 6.513-7.928 3.398-12.317.85-1.274 4.672-4.955 5.238 1.982.567 0 2.549-1.132 2.832-1.982l.141.566c.708.142 1.982-.424 2.549-.99l.141.566c.826 0 2.321.134 3.964-1.68.047-.051.094-.105.142-.16v.849c.708-.283 3.539-.85 2.831-3.54z" stroke="#1a1919" stroke-width=".8494200000000001" stroke-linecap="round" stroke-linejoin="round" fill="none"/><path d="M26.782 23.341c.708-.424 3.256-.424 3.256-.424l-1.133 1.274" stroke="#1a1919" stroke-width=".8494200000000001" stroke-linecap="round" stroke-linejoin="round" fill="none"/><path d="M20.658 21.822c.339 1.124.249 2.143-.2 2.278-.449.136-1.088-.665-1.426-1.788-.339-1.123-.25-2.142.2-2.278.449-.136 1.088.665 1.426 1.788" fill="#1a1919"/><path d="M40.187 23.383c.24 1.388-1.188 2.793-3.192 3.14-2.003.347-3.821-.496-4.061-1.883-.24-1.387 1.189-2.792 3.191-3.14 2.003-.346 3.822.496 4.062 1.883" fill="#ec9477"/><path d="M33.4 19.132c.338 1.124.248 2.144-.201 2.278-.45.136-1.087-.664-1.426-1.787-.339-1.124-.25-2.143.2-2.279.449-.135 1.088.665 1.426 1.788" fill="#1a1919"/><path d="M15.173 13.148c-.566-.424-1.132 1.416-.85 3.54" stroke="#1a1919" stroke-width=".8494200000000001" stroke-linecap="round" stroke-linejoin="round" fill="none"/><path d="M13.191 24.05c-.566 2.547-2.688 8.383.425 8.21 2.548-.141.99-4.247.99-4.813" fill="#b1d4e6"/><path d="M13.191 24.05c-.566 2.547-2.688 8.383.425 8.21 2.548-.141.99-4.247.99-4.813" stroke="#1a1919" stroke-width=".8494200000000001" stroke-linecap="round" stroke-linejoin="round" fill="none"/><path d="M29.267 29.867l-1.543.364s-.818.726-.092 1.544c.727.817 1.816.635 1.816.635l-.18-2.543" fill="#c4675a"/><path d="M28.288 30.014s-.797.398-1.393 1.194c-.597.796-1.592 1.194-1.592 1.194m1.643-.796l1.09 1.107M32.163 8.9s1.132-.141 1.698 1.133" stroke="#1a1919" stroke-width=".8494200000000001" stroke-linecap="round" stroke-linejoin="round" fill="none"/><path d="M29 27.88l2.658-.424.98 6.151-2.657.423c-1.804-.894-2.53-4.707-.98-6.15" fill="#fffffe"/><path d="M29 27.88l2.658-.424.98 6.151-2.657.423c-1.804-.894-2.53-4.707-.98-6.15z" stroke="#1a1919" stroke-width=".8494200000000001" stroke-linecap="round" stroke-linejoin="round" fill="none"/><path d="M59.459 19.302c-1.122-.665-2.68-.537-3.517-.39-.837.147-10.804 2.323-10.804 2.323-.558.099-1.88 1.055-2.363 1.571-.485.516 0 0 0 0-1.105-.628-2.941-.231-3.733-.058l-4.52 1.098c-.676.25-1.555.76-1.994 1.29l-.438.531c-1.284 3.645-.085 8.472 1.76 9.754 0 0-1.152-.533.602.334.6.335 1.602.605 2.137.52 0 0 3.806-.176 4.607-.304.801-.127 2.41-.384 3.211-1.371 0 0 .162.117.788.447.627.331 1.672.594 2.231.506 0 0 10.133-1.185 10.972-1.318.839-.134 2.354-.52 3.2-1.513l-2.14-13.42" fill="#fffffe"/><path d="M57.035 22.631l1.353 8.485c-.845.994-2.36 1.38-3.2 1.513-.839.134-10.972 1.318-10.972 1.318-.56.09-1.604-.175-2.23-.505-.626-.33-.788-.447-.788-.447-.802.987-2.41 1.243-3.212 1.371-.802.128-1.395-6.921 1.149-8.102 2.543-1.18 2.27.09 3.995.273 1.726.181 4.632-2.18 6.086-3.179 1.453-.999 5.922-5.087 7.82-.727" fill="#bce2ee"/><path d="M60.245 24.236l1.352 8.486c-.845.994-2.36 1.379-3.2 1.513-.838.133-10.97 1.318-10.97 1.318-.56.088-1.605-.175-2.232-.506-.626-.33-.788-.447-.788-.447-.802.987-2.41 1.244-3.211 1.371-.801.128-4.607.304-4.607.304-.535.085-1.537-.185-2.137-.52-1.754-.867-.601-.334-.601-.334a3.126 3.126 0 01-.644-.62c-.628-.785-1.131-1.994-1.41-3.372 1.012-.472 8.004-2.379 10.547-3.56 2.543-1.18 2.271.09 3.997.273 1.724.181 4.63-2.18 6.084-3.18 1.453-.998 5.923-5.085 7.82-.726" fill="#8fd1e9"/><path d="M36.59 36.275s3.805-.176 4.606-.304c.801-.127 2.41-.384 3.211-1.371 0 0 .162.117.788.447.627.331 1.672.594 2.231.506 0 0 10.133-1.185 10.972-1.318.839-.134 2.354-.52 3.2-1.513l-2.14-13.42c-1.12-.665-2.68-.537-3.516-.39-.837.147-10.804 2.323-10.804 2.323-.558.099-1.88 1.055-2.363 1.571-.485.516 0 0 0 0-1.105-.628-2.941-.231-3.733-.058l-4.52 1.098c-.676.25-1.555.76-1.994 1.29l-.438.531c-1.284 3.645-.085 8.472 1.76 9.754.412.349 1.683.803 1.683.803l1.056.051m10.041-6.617s5.218-.544 5.57-1.031c.353-.486.22-1.325-.245-1.538-.464-.213-2.421.1-2.421.1m-1.573-4.48c.419-.067 4.193-.668 4.568-1.015.375-.347.661-1.253.661-1.253m-5.332 13.322c.56-.09 5.99-1.097 6.755-.79.765.309 1.672.595 1.274.801" stroke="#1a1919" stroke-width=".8494200000000001" stroke-linecap="round" stroke-linejoin="round" fill="none"/><path d="M57.865 19.195c2.703-.431 5.395 2.372 6.015 6.26.62 3.889-1.069 7.39-3.771 7.82-2.703.43-5.397-2.372-6.015-6.26-.62-3.89 1.07-7.39 3.771-7.82" fill="#fffffe"/><path d="M61.653 20.705c1.31.868 1.917 2.806 2.227 4.75.62 3.889-1.069 7.39-3.771 7.82-2.703.43-5.397-2.372-6.015-6.26-.387-2.431.128-4.71 1.228-6.183.736.317 3.005-.046 3.005-.046s2.656-.525 3.326-.08" fill="#8fd1e9"/><path d="M57.865 19.195c2.703-.431 5.395 2.372 6.015 6.26.62 3.889-1.069 7.39-3.771 7.82-2.703.43-5.397-2.372-6.015-6.26-.62-3.89 1.07-7.39 3.771-7.82zm.527 2.401c1.779-.283 3.315 1.678 3.723 4.24.409 2.56-.466 4.75-2.246 5.033-1.78.284-3.315-1.678-3.723-4.238-.408-2.56.467-4.75 2.246-5.035z" stroke="#1a1919" stroke-width=".8494200000000001" stroke-linecap="round" stroke-linejoin="round" fill="none"/><path d="M25.7 45.336c-1.79 1.194-4.178 7.163-2.586 11.939 1.79-.398 2.785-2.189 3.183-3.581.398-1.394 1.791-8.358-.597-8.358" fill="#c8b762"/><path d="M25.7 45.336c-1.79 1.194-4.178 7.163-2.586 11.939 1.79-.398 2.785-2.189 3.183-3.581.398-1.394 1.791-8.358-.597-8.358zm16.118 2.586l1.791 5.374m7.164-8.557c.108.657.199 1.384.398 1.99M8.389 13.3c.398 1.99-.796 8.556-1.79 10.348 0 0 .605.132 1.496-.73m-4.283-2.255c0 1.062-.332 3.05.995 5.173M6.2 32.004c-.995-.398-1.79-.995-1.393-1.79.398-.797.2-1.195-.597-1.394-.796-.2-1.393 0-1.393.597M19.333 5.539c.796.397 1.763 3.638.398 5.173m2.786-4.776c.398.598 1.46 2.31-.265 4.24m4.444-4.04s.915 1.475-.339 2.926" stroke="#1a1919" stroke-width=".8494200000000001" stroke-linecap="round" stroke-linejoin="round" fill="none"/><path d="M23.39 27.11c.24 1.388-1.189 2.792-3.192 3.14-2.003.347-3.821-.496-4.062-1.883-.24-1.387 1.189-2.792 3.192-3.139s3.821.496 4.062 1.882" fill="#ec9477"/><path d="M35.418 27.73l.141 1.982c0-.85.566-3.398.85-4.247.283-.85 1.132-1.133 1.132-1.133v1.274s.85-2.265 1.84-2.83c1.134-.648 1.84-.567 1.84-.567l-.14.99c.283-.424 1.557-1.273 2.123-1.132.566.142.85.425.425.991-.425.566-.991 2.407-.991 2.407.566-.991 1.698-1.982 2.548-2.124a.767.767 0 01.85 1.133c-.284.425-.85.85-1.133 1.274-.283.425-1.133 2.831-.991 3.68.141.567.99 3.257.85 4.956-.142 1.699-.567 1.699-1.983 3.114-.85 2.973-3.964 12.458-7.928 15.714-3.964 3.257-14.298.284-14.298.284-.425-1.982.85-6.654 2.265-7.787.425.142 6.37.567 7.22.85.566-1.133 5.38-8.636 6.512-9.91l-1.132-3.115c-.425-.141-1.133-1.84-1.558-2.548-.424-.708-.141-2.407.142-3.256.425-.85 1.274-.708 1.416 0" fill="#f4bb9d"/><path d="M35.418 27.73l.141 1.982c0-.85.566-3.398.85-4.247.283-.85 1.132-1.133 1.132-1.133v1.274s.85-2.265 1.84-2.83c1.134-.648 1.84-.567 1.84-.567l-.14.99c.283-.424 1.557-1.273 2.123-1.132.566.142.85.425.425.991-.425.566-.991 2.407-.991 2.407.566-.991 1.698-1.982 2.548-2.124a.767.767 0 01.85 1.133c-.284.425-.85.85-1.133 1.274-.283.425-1.133 2.831-.991 3.68.141.567.99 3.257.85 4.956-.142 1.699-.567 1.699-1.983 3.114-.85 2.973-3.964 12.458-7.928 15.714-3.964 3.257-14.298.284-14.298.284-.425-1.982.85-6.654 2.265-7.787.425.142 6.37.567 7.22.85.566-1.133 5.38-8.636 6.512-9.91l-1.132-3.115c-.425-.141-1.133-1.84-1.558-2.548-.424-.708-.141-2.407.142-3.256.425-.85 1.274-.708 1.416 0z" stroke="#1a1919" stroke-width=".8494200000000001" stroke-linecap="round" stroke-linejoin="round" fill="none"/><path d="M36.975 36.649c.425-.283 3.398-.283 3.822 0m-3.256-11.043s-.708 2.124-.425 2.973m3.964-5.38s-1.132 1.558-1.274 1.983c-.141.424-.283 2.69-.283 2.69m3.115-2.407s-1.133 1.699-1.133 2.123" stroke="#1a1919" stroke-width=".8494200000000001" stroke-linecap="round" stroke-linejoin="round" fill="none"/><path d="M12.17 44.739c.995-.995 3.78-2.388 13.53.597-1.79 1.194-4.178 7.163-2.586 11.939 0 0-10.546-1.393-12.139-5.77-1.591-4.378.687-6.259 1.195-6.766" fill="#f5ed67"/><path d="M12.17 44.739c.995-.995 3.78-2.388 13.53.597-1.79 1.194-4.178 7.163-2.586 11.939 0 0-10.546-1.393-12.139-5.77-1.591-4.378.687-6.259 1.195-6.766z" stroke="#1a1919" stroke-width=".8494200000000001" stroke-linecap="round" stroke-linejoin="round" fill="none"/><path d="M64.817 38.772c2.642 1.888 6.418 5.285 4.153 6.418-2.266 1.133-3.399 0-3.776-1.887a15.073 15.073 0 00-1.132-3.398" fill="#b1d4e6"/><path d="M64.817 38.772c2.642 1.888 6.418 5.285 4.153 6.418-2.266 1.133-3.399 0-3.776-1.887a15.073 15.073 0 00-1.132-3.398" stroke="#1a1919" stroke-width=".8494200000000001" stroke-linecap="round" stroke-linejoin="round" fill="none"/><path d="M52.736 24.803a1.132 1.132 0 11-2.264.002 1.132 1.132 0 012.264-.002" fill="#fffffe"/></svg>