<svg xmlns="http://www.w3.org/2000/svg" width="139.496" height="124.744" viewBox="0 0 178.554 159.673" xmlns:v="https://vecta.io/nano"><g fill="#eab528"><path d="M79.287 85.141l38.918 52.281-43.347-61.088c.942 3.08 2.393 6.071 4.429 8.807z"/><path d="M132.865 101.533l13.897 18.644c3.233 4.378 4.085 9.227 1.909 10.856-2.176 1.642-6.605-.598-9.838-4.963L80.979 48.31l-.013.013L43.754 0 29.106 10.907 76.487 80.47a31.053 31.053 0 0 1-.42-2.431l42.15 59.395 7.801 10.499a29.106 29.106 0 0 0 34.413 9.558 29.131 29.131 0 0 0 12.37-44.352L153.47 87.177c-8.769-11.823-8.043 7.458-20.604 14.356z"/><path d="M158.28 61.991l-25.122.026-.382 39.758 25.568-.178z"/><path d="M128.462 62.118h35.125v8.145h-35.125zM45.917 15.514l-30.9 1.871-2.164-11.492L43.016.191z"/></g><path d="M21.075 16.888l-19.332.458L0 8.132l18.759-3.538z" fill="#435861"/><path d="M58.3 26.204l5.358-3.996 5.32 7.152-5.345 3.983zm11.581 15.565l5.345-3.983 5.332 7.14-5.345 3.996zm11.581 15.577l5.867-4.352 4.709 6.338-5.854 4.365zm11.607 15.59l5.867-4.352 4.696 6.325-5.88 4.352zm11.607 15.565l7.178-5.32 6.72 9.061-7.178 5.332zm15.119 20.337l7.14-5.32 6.745 9.074-7.14 5.32zm23.366-6.911l7.152-5.307 6.732 9.074-7.165 5.307zm9.838 13.197l7.152-5.294 6.707 9.061-7.152 5.294z" fill="#b99240"/></svg>