<?xml version="1.0" encoding="UTF-8" standalone="no"?>
<!-- Created with Inkscape (http://www.inkscape.org/) -->

<svg
   id="svg2"
   sodipodi:docname="sailing-boat.svg"
   viewBox="0 0 108.8523 140"
   version="1.1"
   inkscape:version="1.2.2 (732a01da63, 2022-12-09)"
   width="108.85229"
   height="140"
   xmlns:inkscape="http://www.inkscape.org/namespaces/inkscape"
   xmlns:sodipodi="http://sodipodi.sourceforge.net/DTD/sodipodi-0.dtd"
   xmlns="http://www.w3.org/2000/svg"
   xmlns:svg="http://www.w3.org/2000/svg"
   xmlns:rdf="http://www.w3.org/1999/02/22-rdf-syntax-ns#"
   xmlns:cc="http://creativecommons.org/ns#"
   xmlns:dc="http://purl.org/dc/elements/1.1/">
  <defs
     id="defs247" />
  <sodipodi:namedview
     id="base"
     bordercolor="#666666"
     inkscape:pageshadow="2"
     inkscape:window-y="-8"
     fit-margin-left="0"
     pagecolor="#ffffff"
     inkscape:window-height="1017"
     inkscape:window-maximized="1"
     inkscape:zoom="0.54702742"
     inkscape:window-x="1912"
     showgrid="false"
     borderopacity="1.0"
     inkscape:current-layer="layer1"
     inkscape:cx="149.90108"
     inkscape:cy="261.41286"
     fit-margin-top="0"
     fit-margin-right="0"
     fit-margin-bottom="0"
     inkscape:window-width="1920"
     inkscape:pageopacity="0.0"
     inkscape:document-units="px"
     inkscape:showpageshadow="2"
     inkscape:pagecheckerboard="0"
     inkscape:deskcolor="#d1d1d1" />
  <g
     id="layer1"
     inkscape:label="Livello 1"
     inkscape:groupmode="layer"
     transform="translate(-144.48752,-232.95209)">
    <g
       id="g3859"
       transform="matrix(0.21774907,0,0,0.21774907,117.84386,188.37668)">
      <path
         id="path3768"
         d="m 385.84,214.34 c 0,0 3.9756,0.45957 10.73,1.0145 6.7548,0.55526 18.261,8.1737 27.406,1.5888 18.185,-13.094 24.094,-2.8587 36.903,-0.0244 14.264,3.1583 26.559,-1.6654 39.222,-3.8094 0,0 3.9587,9.7302 -22.13,24.719 0,0 23.945,25.535 42.793,29.21 0,0 -18.307,-4.3885 -24.583,-3.5844 -6.2763,0.80401 -15.295,5.5514 -26.265,6.6234 -10.97,1.072 -22.906,-5.2308 -40.52,-9.3271 -13.762,-3.2005 -26.771,9.9397 -42.379,9.9397 z"
         sodipodi:nodetypes="cssscccssscc"
         style="fill:#ffff00"
         inkscape:connector-curvature="0" />
      <path
         id="path3770"
         d="m 125.53,618.04 256.91,-1.7309 c 0,0 -92.403,-211.12 -4.0906,-385.92 0,0 -240.64,172.89 -252.82,387.65 z"
         sodipodi:nodetypes="cccc"
         style="fill:#99ffff;stroke:#99ffff;stroke-width:6.232px"
         inkscape:connector-curvature="0" />
      <path
         id="path3772"
         sodipodi:nodetypes="cccc"
         style="fill:#99ffff;stroke:#99ffff;stroke-width:6.232px"
         inkscape:connector-curvature="0"
         d="m 594.18,613.12 -209.64,2.2084 c 0,0 53.994,-136.27 -2.8033,-332.74 0,0 200.26,115.77 212.44,330.53 z" />
      <rect
         id="rect2998"
         style="fill:#a05a2c"
         ry="8.1408005"
         height="458.94"
         width="18.099001"
         y="204.71001"
         x="370.26001" />
      <path
         id="path3782"
         d="m 140,653.81 h 119.66 119.66 119.66 119.66 c 0,0 -2.2159,12.865 -8.3712,31.9 -6.1554,19.035 -16.25,44.241 -32.008,68.924 -15.758,24.683 -37.178,48.842 -65.985,65.785 -52.056,24.232 -98.808,24.857 -145,23.959 -21.097,-0.49248 -49.689,-3.447 -79.665,-13.295 -30,-9.84 -61.36,-26.58 -88,-54.65 -26.63,-28.07 -48.55,-67.46 -59.62,-122.61 z"
         sodipodi:nodetypes="cssscssccssc"
         style="fill:#ff0000;stroke:#ff0000;stroke-width:6.0951px"
         inkscape:connector-curvature="0" />
      <g
         id="g3790"
         transform="matrix(6.0951,0,0,6.0951,-1290.3,-2843.1)">
        <circle
           id="path3784"
           style="fill:#ffffff;stroke-width:0"
           transform="matrix(0.59893,0,0,0.59893,100.64,235.18)"
           cx="255.94173"
           cy="581.35834"
           r="5.0089607" />
        <circle
           id="path3786"
           style="fill:#ffffff;stroke-width:0"
           transform="matrix(0.59893,0,0,0.59893,120.64,235.18)"
           cx="255.94173"
           cy="581.35834"
           r="5.0089607" />
        <circle
           id="path3788"
           style="fill:#ffffff;stroke-width:0"
           transform="matrix(0.59893,0,0,0.59893,140.64,235.18)"
           cx="255.94173"
           cy="581.35834"
           r="5.0089607" />
      </g>
    </g>
  </g>
  <metadata
     id="metadata244">
    <rdf:RDF>
      <cc:Work>
        <dc:format>image/svg+xml</dc:format>
        <dc:type
           rdf:resource="http://purl.org/dc/dcmitype/StillImage" />
        <cc:license
           rdf:resource="http://creativecommons.org/licenses/publicdomain/" />
        <dc:publisher>
          <cc:Agent
             rdf:about="http://openclipart.org/">
            <dc:title>Openclipart</dc:title>
          </cc:Agent>
        </dc:publisher>
      </cc:Work>
      <cc:License
         rdf:about="http://creativecommons.org/licenses/publicdomain/">
        <cc:permits
           rdf:resource="http://creativecommons.org/ns#Reproduction" />
        <cc:permits
           rdf:resource="http://creativecommons.org/ns#Distribution" />
        <cc:permits
           rdf:resource="http://creativecommons.org/ns#DerivativeWorks" />
      </cc:License>
    </rdf:RDF>
  </metadata>
</svg>
