<?xml version="1.0" encoding="UTF-8" standalone="no"?>
<!-- Created with Inkscape (http://www.inkscape.org/) -->

<svg
   width="140"
   height="88.104599"
   viewBox="0 0 139.99999 88.104601"
   id="svg2"
   version="1.1"
   inkscape:version="1.2.2 (732a01da63, 2022-12-09)"
   sodipodi:docname="crabe.svg"
   xmlns:inkscape="http://www.inkscape.org/namespaces/inkscape"
   xmlns:sodipodi="http://sodipodi.sourceforge.net/DTD/sodipodi-0.dtd"
   xmlns="http://www.w3.org/2000/svg"
   xmlns:svg="http://www.w3.org/2000/svg"
   xmlns:rdf="http://www.w3.org/1999/02/22-rdf-syntax-ns#"
   xmlns:cc="http://creativecommons.org/ns#"
   xmlns:dc="http://purl.org/dc/elements/1.1/">
  <defs
     id="defs4" />
  <sodipodi:namedview
     id="base"
     pagecolor="#ffffff"
     bordercolor="#666666"
     borderopacity="1.0"
     inkscape:pageopacity="0.0"
     inkscape:pageshadow="2"
     inkscape:zoom="0.74612403"
     inkscape:cx="385.99481"
     inkscape:cy="225.16364"
     inkscape:document-units="px"
     inkscape:current-layer="layer1"
     showgrid="false"
     units="px"
     inkscape:window-width="1920"
     inkscape:window-height="1017"
     inkscape:window-x="-8"
     inkscape:window-y="-8"
     inkscape:window-maximized="1"
     inkscape:showpageshadow="2"
     inkscape:pagecheckerboard="0"
     inkscape:deskcolor="#d1d1d1" />
  <metadata
     id="metadata7">
    <rdf:RDF>
      <cc:Work
         rdf:about="">
        <dc:format>image/svg+xml</dc:format>
        <dc:type
           rdf:resource="http://purl.org/dc/dcmitype/StillImage" />
        <dc:title />
      </cc:Work>
    </rdf:RDF>
  </metadata>
  <g
     inkscape:label="Layer 1"
     inkscape:groupmode="layer"
     id="layer1"
     transform="translate(-16.318921,-630.63959)">
    <path
       style="fill:#d45500;fill-rule:evenodd;stroke:#000000;stroke-width:0.232693px;stroke-linecap:butt;stroke-linejoin:miter;stroke-opacity:1"
       d="m 70.351735,656.0549 c 0,0 -0.815236,7.3151 0,10.80196 0.818224,3.49963 4.754183,9.49263 4.754183,9.49263 l 4.159909,-1.96399 c 0,0 -4.50456,-5.46208 -5.645592,-8.83797 -1.041992,-3.08288 -0.891409,-9.81997 -0.891409,-9.81997 z"
       id="path4262"
       inkscape:connector-curvature="0"
       sodipodi:nodetypes="caccacc" />
    <path
       style="fill:#d45500;fill-rule:evenodd;stroke:#000000;stroke-width:0.232693px;stroke-linecap:butt;stroke-linejoin:miter;stroke-opacity:1"
       d="m 98.73326,654.90325 c 0,0 0.815237,7.31511 0,10.80197 -0.818224,3.49963 -4.754182,9.49263 -4.754182,9.49263 l -4.159909,-1.96399 c 0,0 4.504563,-5.46209 5.645591,-8.83797 1.041992,-3.08288 0.891409,-9.81997 0.891409,-9.81997 z"
       id="path4262-9"
       inkscape:connector-curvature="0"
       sodipodi:nodetypes="caccacc" />
    <path
       style="fill:#d45500;fill-rule:evenodd;stroke:#000000;stroke-width:0.232693px;stroke-linecap:butt;stroke-linejoin:miter;stroke-opacity:1"
       d="m 48.36364,660.63755 10.696909,13.74795 -5.645591,5.89197 -10.399774,-19.63992 z"
       id="path4140"
       inkscape:connector-curvature="0" />
    <path
       style="fill:#d45500;fill-rule:evenodd;stroke:#000000;stroke-width:0.232693px;stroke-linecap:butt;stroke-linejoin:miter;stroke-opacity:1"
       d="m 117.97461,658.36001 -10.69691,13.74795 5.64559,5.89198 10.39978,-19.63993 z"
       id="path4140-8"
       inkscape:connector-curvature="0" />
    <path
       style="fill:#d45500;fill-rule:evenodd;stroke:#000000;stroke-width:0.232693px;stroke-linecap:butt;stroke-linejoin:miter;stroke-opacity:1"
       d="m 117.00216,681.91414 c 0,0 12.707,-9.38924 19.611,-8.18331 8.28039,1.44635 19.61101,17.34861 19.61101,17.34861 0,0 -12.45284,-12.29572 -20.20528,-12.76596 -6.68772,-0.40565 -18.42246,8.83797 -18.42246,8.83797 z"
       id="path4162"
       inkscape:connector-curvature="0"
       sodipodi:nodetypes="cacacc" />
    <path
       style="fill:#aa4400;fill-rule:evenodd;stroke:#000000;stroke-width:0.232693px;stroke-linecap:butt;stroke-linejoin:miter;stroke-opacity:1"
       d="m 114.6407,689.67594 c 0,0 12.6606,-9.00443 19.611,-8.1833 6.69235,0.79065 16.93678,12.11129 16.93678,12.11129 0,0 -11.26023,-7.66339 -17.53105,-7.52864 -6.69657,0.1439 -18.42246,8.83797 -18.42246,8.83797 z"
       id="path4162-3"
       inkscape:connector-curvature="0"
       sodipodi:nodetypes="cacacc" />
    <path
       style="fill:#d45500;fill-rule:evenodd;stroke:#000000;stroke-width:0.232693px;stroke-linecap:butt;stroke-linejoin:miter;stroke-opacity:1"
       d="m 112.56074,699.49591 c 0,0 12.75442,-9.68201 19.61101,-8.18331 6.52942,1.4272 14.55968,15.05728 14.55968,15.05728 0,0 -9.20731,-9.98356 -15.15396,-10.47463 -6.6791,-0.55155 -18.42245,8.83797 -18.42245,8.83797 z"
       id="path4162-5"
       inkscape:connector-curvature="0"
       sodipodi:nodetypes="cacacc" />
    <path
       style="fill:#d45500;fill-rule:evenodd;stroke:#000000;stroke-width:0.232693px;stroke-linecap:butt;stroke-linejoin:miter;stroke-opacity:1"
       d="m 108.40083,707.35188 c 0,0 12.7222,-9.49045 19.61101,-8.1833 5.8865,1.11696 13.66827,12.76595 13.66827,12.76595 0,0 -8.90541,-7.97827 -14.26254,-8.1833 -6.69381,-0.2562 -18.42246,8.83796 -18.42246,8.83796 z"
       id="path4162-8"
       inkscape:connector-curvature="0"
       sodipodi:nodetypes="cacacc" />
    <path
       style="fill:#d45500;fill-rule:evenodd;stroke:#000000;stroke-width:0.232693px;stroke-linecap:butt;stroke-linejoin:miter;stroke-opacity:1"
       d="m 55.635685,682.45875 c 0,0 -12.707001,-9.38923 -19.611004,-8.1833 -8.280396,1.44634 -19.611006,17.3486 -19.611006,17.3486 0,0 12.45284,-12.29572 20.205277,-12.76596 6.687716,-0.40565 18.422459,8.83798 18.422459,8.83798 z"
       id="path4162-89"
       inkscape:connector-curvature="0"
       sodipodi:nodetypes="cacacc" />
    <path
       style="fill:#d45500;fill-rule:evenodd;stroke:#000000;stroke-width:0.232693px;stroke-linecap:butt;stroke-linejoin:miter;stroke-opacity:1"
       d="m 57.99714,692.83922 c 0,0 -12.660604,-9.00444 -19.611004,-8.18331 -6.692344,0.79065 -16.936775,12.11129 -16.936775,12.11129 0,0 11.26023,-7.66339 17.531049,-7.52864 6.696573,0.1439 18.42246,8.83797 18.42246,8.83797 z"
       id="path4162-3-0"
       inkscape:connector-curvature="0"
       sodipodi:nodetypes="cacacc" />
    <path
       style="fill:#d45500;fill-rule:evenodd;stroke:#000000;stroke-width:0.232693px;stroke-linecap:butt;stroke-linejoin:miter;stroke-opacity:1"
       d="m 60.077096,700.04052 c 0,0 -12.754416,-9.682 -19.611004,-8.1833 -6.529424,1.42719 -14.559683,15.05728 -14.559683,15.05728 0,0 9.207314,-9.98356 15.153957,-10.47463 6.679109,-0.55156 18.422457,8.83797 18.422457,8.83797 z"
       id="path4162-5-6"
       inkscape:connector-curvature="0"
       sodipodi:nodetypes="cacacc" />
    <path
       style="fill:#d45500;fill-rule:evenodd;stroke:#000000;stroke-width:0.232693px;stroke-linecap:butt;stroke-linejoin:miter;stroke-opacity:1"
       d="m 64.237008,707.89649 c 0,0 -12.722194,-9.49045 -19.611004,-8.1833 -5.886506,1.11696 -13.668277,12.76595 -13.668277,12.76595 0,0 8.911801,-7.82975 14.262548,-8.1833 7.29012,-0.4817 20.502416,8.51064 20.502416,8.51064 z"
       id="path4162-8-4"
       inkscape:connector-curvature="0"
       sodipodi:nodetypes="cacacc" />
    <ellipse
       style="opacity:1;fill:#ffff00;fill-opacity:1;fill-rule:nonzero;stroke:#000000;stroke-width:2.32693;stroke-linecap:round;stroke-linejoin:round;stroke-miterlimit:4;stroke-dasharray:none;stroke-dashoffset:0;stroke-opacity:1"
       id="path4227"
       cx="72.877396"
       cy="650.3266"
       rx="6.3884335"
       ry="6.382977" />
    <ellipse
       style="opacity:1;fill:#ff0000;fill-opacity:1;fill-rule:nonzero;stroke:#000000;stroke-width:1.12645;stroke-linecap:round;stroke-linejoin:round;stroke-miterlimit:4;stroke-dasharray:none;stroke-dashoffset:0;stroke-opacity:1"
       id="path4227-4"
       cx="75.105911"
       cy="651.1449"
       rx="3.0975461"
       ry="3.0849941" />
    <ellipse
       style="opacity:1;fill:#ffff00;fill-opacity:1;fill-rule:nonzero;stroke:#000000;stroke-width:2.32693;stroke-linecap:round;stroke-linejoin:round;stroke-miterlimit:4;stroke-dasharray:none;stroke-dashoffset:0;stroke-opacity:1"
       id="path4227-9"
       cx="-97.98542"
       cy="649.83557"
       rx="6.3884335"
       ry="6.382977"
       transform="scale(-1,1)" />
    <ellipse
       style="opacity:1;fill:#ff0000;fill-opacity:1;fill-rule:nonzero;stroke:#000000;stroke-width:1.12645;stroke-linecap:round;stroke-linejoin:round;stroke-miterlimit:4;stroke-dasharray:none;stroke-dashoffset:0;stroke-opacity:1"
       id="path4227-4-1"
       cx="-95.756897"
       cy="650.65393"
       rx="3.0975461"
       ry="3.0849941"
       transform="scale(-1,1)" />
    <path
       style="fill:#ff6600;fill-rule:evenodd;stroke:#000000;stroke-width:0.232693px;stroke-linecap:butt;stroke-linejoin:miter;stroke-opacity:1"
       d="M 59.060549,713.01069 C 52.347771,709.46402 48.368912,698.9165 48.36364,690.42477 c -0.0057,-9.22356 3.907381,-20.87877 11.588321,-24.54991 13.915718,-6.65109 35.332091,-6.04577 50.216059,-0.65466 7.4942,2.71446 10.99009,14.22899 11.29118,22.91325 0.27751,8.00396 -3.03255,17.22208 -8.91409,21.93125 -12.44465,9.96406 -37.091182,11.60736 -53.484561,2.94599 z"
       id="path4136"
       inkscape:connector-curvature="0"
       sodipodi:nodetypes="sassass" />
    <path
       style="fill:none;fill-rule:evenodd;stroke:#000000;stroke-width:1.90808;stroke-linecap:butt;stroke-linejoin:miter;stroke-miterlimit:4;stroke-dasharray:none;stroke-opacity:1"
       d="m 61.437644,682.89613 c 0,0 13.83571,10.1415 21.69096,10.1473 8.388511,0.006 23.176646,-10.80196 23.176646,-10.80196"
       id="path4160"
       inkscape:connector-curvature="0"
       sodipodi:nodetypes="cac" />
    <path
       style="fill:#d45500;fill-rule:evenodd;stroke:#000000;stroke-width:0.232693px;stroke-linecap:butt;stroke-linejoin:miter;stroke-opacity:1"
       d="m 23.404179,633.14165 c 0,0 -1.858228,16.38062 1.782819,22.91325 3.048875,5.47017 9.049932,9.61615 14.856821,10.14729 4.160892,0.38059 9.159985,-1.49575 11.588321,-5.23731 2.885462,-4.44589 2.004232,-11.04053 0.891409,-16.36661 -0.815681,-3.90393 -5.348456,-10.47463 -5.348456,-10.47463 l -4.457045,14.72995 z"
       id="path4138"
       inkscape:connector-curvature="0"
       sodipodi:nodetypes="caaaaccc" />
    <path
       style="fill:#d45500;fill-rule:evenodd;stroke:#000000;stroke-width:0.232693px;stroke-linecap:butt;stroke-linejoin:miter;stroke-opacity:1"
       d="m 142.93407,630.86411 c 0,0 1.85823,16.38062 -1.78282,22.91325 -3.04887,5.47017 -9.04993,9.61616 -14.85682,10.1473 -4.16089,0.38058 -9.15998,-1.49576 -11.58832,-5.23732 -2.88546,-4.44589 -2.00423,-11.04052 -0.89141,-16.36661 0.81568,-3.90393 5.34846,-10.47463 5.34846,-10.47463 l 4.45704,14.72995 z"
       id="path4138-8"
       inkscape:connector-curvature="0"
       sodipodi:nodetypes="caaaaccc" />
  </g>
</svg>
