<svg width="140" height="140" viewBox="0 0 11.2 11.2" version="1.1" id="prefix__svg964" xmlns="http://www.w3.org/2000/svg"><defs id="prefix__defs867"><style id="style865">.prefix__cls-1{fill:#98856e}.prefix__cls-2{fill:#cbb292}.prefix__cls-4{fill:#993839}.prefix__cls-7{fill:#ccc}.prefix__cls-8{fill:#f2f2f2}.prefix__cls-9{fill:#b49313}.prefix__cls-10{fill:#f0c419}.prefix__cls-11{fill:#559264}.prefix__cls-12{fill:#71c285}.prefix__cls-13{fill:#cc4b4c}</style></defs><g data-name="Layer 28" id="prefix__Layer_28" transform="matrix(.18667 0 0 .18667 -.373 -.373)"><path class="prefix__cls-1" id="prefix__rect871" d="M4 12h56v46H4z"/><path class="prefix__cls-2" id="prefix__rect873" d="M4 12h53v46H4z"/><path d="M42 58V41a7 7 0 017-7 7 7 0 017 7v17" id="prefix__path875" fill="#732a2b"/><path class="prefix__cls-4" d="M47.5 34.17A7 7 0 0042 41v17h11V41a7 7 0 00-5.5-6.83z" id="prefix__path877"/><path id="prefix__rect879" fill="#5f443e" d="M2 58h60v4H2z"/><path id="prefix__rect881" fill="#7f5b53" d="M2 58h56v4H2z"/><path class="prefix__cls-7" id="prefix__rect883" d="M8 30h28v24H8z"/><path class="prefix__cls-8" id="prefix__rect885" d="M8 30h25v24H8z"/><path class="prefix__cls-9" id="prefix__rect887" d="M12 36h4v6h-4z"/><path class="prefix__cls-10" id="prefix__rect889" d="M12 36h2v6h-2z"/><path class="prefix__cls-1" id="prefix__rect891" d="M20 36h4v6h-4z"/><path class="prefix__cls-2" id="prefix__rect893" d="M20 36h2v6h-2z"/><path class="prefix__cls-11" id="prefix__rect895" d="M20 48h4v6h-4z"/><path class="prefix__cls-12" id="prefix__rect897" d="M20 48h2v6h-2z"/><path class="prefix__cls-11" id="prefix__rect899" d="M28 48h4v6h-4z"/><path class="prefix__cls-12" id="prefix__rect901" d="M28 48h2v6h-2z"/><path class="prefix__cls-9" id="prefix__rect903" d="M24 34h4v8h-4z"/><path class="prefix__cls-10" id="prefix__rect905" d="M24 34h2v8h-2z"/><path class="prefix__cls-11" id="prefix__rect907" d="M16 34h4v8h-4z"/><path class="prefix__cls-12" id="prefix__rect909" d="M16 34h2v8h-2z"/><path class="prefix__cls-4" id="prefix__rect911" d="M8 34h4v8H8z"/><path class="prefix__cls-13" id="prefix__rect913" d="M8 34h2v8H8z"/><path class="prefix__cls-1" id="prefix__rect915" d="M16 46h4v8h-4z"/><path class="prefix__cls-2" id="prefix__rect917" d="M16 46h2v8h-2z"/><path class="prefix__cls-4" id="prefix__rect919" d="M24 46h4v8h-4z"/><path class="prefix__cls-13" id="prefix__rect921" d="M24 46h2v8h-2z"/><path class="prefix__cls-1" id="prefix__rect923" d="M32 46h4v8h-4z"/><path class="prefix__cls-2" id="prefix__rect925" d="M32 46h2v8h-2z"/><path class="prefix__cls-4" d="M32 12h10v9a5 5 0 01-5 5 5 5 0 01-5-5z" id="prefix__path927"/><path class="prefix__cls-13" d="M35.5 25.75A5 5 0 0039 21v-9h-7v9a5 5 0 003.5 4.75z" id="prefix__path929"/><path class="prefix__cls-4" d="M22 12h10v9a5 5 0 01-5 5 5 5 0 01-5-5z" id="prefix__path931"/><path class="prefix__cls-13" d="M25.5 25.75A5 5 0 0029 21v-9h-7v9a5 5 0 003.5 4.75z" id="prefix__path933"/><circle class="prefix__cls-7" cx="32" cy="13" r="11" id="prefix__circle935"/><ellipse class="prefix__cls-8" cx="30.5" cy="13" rx="9.5" ry="10.89" id="prefix__ellipse937"/><path class="prefix__cls-1" id="prefix__rect939" d="M31 8h6v10h-6z"/><path class="prefix__cls-2" id="prefix__rect941" d="M27 8h4v10h-4z"/><path class="prefix__cls-4" d="M52 12h10v9a5 5 0 01-5 5 5 5 0 01-5-5z" id="prefix__path943"/><path class="prefix__cls-13" d="M55.5 25.75A5 5 0 0059 21v-9h-7v9a5 5 0 003.5 4.75z" id="prefix__path945"/><path class="prefix__cls-4" d="M42 12h10v9a5 5 0 01-5 5 5 5 0 01-5-5z" id="prefix__path947"/><path class="prefix__cls-13" d="M45.5 25.75A5 5 0 0049 21v-9h-7v9a5 5 0 003.5 4.75z" id="prefix__path949"/><path class="prefix__cls-4" d="M12 12h10v9a5 5 0 01-5 5 5 5 0 01-5-5z" id="prefix__path951"/><path class="prefix__cls-13" d="M15.5 25.75A5 5 0 0019 21v-9h-7v9a5 5 0 003.5 4.75z" id="prefix__path953"/><path class="prefix__cls-4" d="M2 12h10v9a5 5 0 01-5 5 5 5 0 01-5-5z" id="prefix__path955"/><path class="prefix__cls-13" d="M5.5 25.75A5 5 0 009 21v-9H2v9a5 5 0 003.5 4.75z" id="prefix__path957"/><path id="prefix__rect959" fill="#666" d="M8 41h28v2H8z"/><path class="prefix__cls-7" id="prefix__rect961" d="M45 45h2v4h-2z"/></g></svg>