<svg version="1.1" xmlns="http://www.w3.org/2000/svg" xmlns:xlink="http://www.w3.org/1999/xlink" width="140" height="140" viewBox="0,0,140,140"><g transform="translate(-170,-110)"><g data-paper-data="{&quot;isPaintingLayer&quot;:true}" fill-rule="nonzero" stroke="none" stroke-width="1" stroke-linecap="butt" stroke-linejoin="miter" stroke-miterlimit="10" stroke-dasharray="" stroke-dashoffset="0" style="mix-blend-mode: normal"><path d="M174.66667,240.66667v-107.33334h130.66667v107.33334z" fill="#98856e"/><path d="M174.66667,240.66667v-107.33334h123.66667v107.33334z" fill="#cbb292"/><path d="M263.33333,240.66667v-39.66667c0,-9.02065 7.31268,-16.33333 16.33333,-16.33333v0c9.02065,0 16.33333,7.31268 16.33333,16.33333v39.66667" fill="#732a2b"/><path d="M289,201v39.66667h-25.66667v-39.66667c0.0081,-7.66552 5.34588,-14.29406 12.83333,-15.93667c7.48746,1.64261 12.82523,8.27115 12.83333,15.93667z" fill="#993839"/><path d="M170,250v-9.33333h140v9.33333z" fill="#5f443e"/><path d="M170,250v-9.33333h130.66667v9.33333z" fill="#7f5b53"/><path d="M184,231.33333v-56h65.33333v56z" fill="#cccccc"/><path d="M184,231.33333v-56h58.33333v56z" fill="#f2f2f2"/><path d="M193.33333,203.33333v-14h9.33333v14z" fill="#b49313"/><path d="M193.33333,203.33333v-14h4.66667v14z" fill="#f0c419"/><path d="M212,203.33333v-14h9.33333v14z" fill="#98856e"/><path d="M212,203.33333v-14h4.66667v14z" fill="#cbb292"/><path d="M212,231.33333v-14h9.33333v14z" fill="#559264"/><path d="M212,231.33333v-14h4.66667v14z" fill="#71c285"/><path d="M230.66667,231.33333v-14h9.33333v14z" fill="#559264"/><path d="M230.66667,231.33333v-14h4.66667v14z" fill="#71c285"/><path d="M221.33333,203.33333v-18.66667h9.33333v18.66667z" fill="#b49313"/><path d="M221.33333,203.33333v-18.66667h4.66667v18.66667z" fill="#f0c419"/><path d="M202.66667,203.33333v-18.66667h9.33333v18.66667z" fill="#559264"/><path d="M202.66667,203.33333v-18.66667h4.66667v18.66667z" fill="#71c285"/><path d="M184,203.33333v-18.66667h9.33333v18.66667z" fill="#993839"/><path d="M184,203.33333v-18.66667h4.66667v18.66667z" fill="#cc4b4c"/><path d="M202.66667,231.33333v-18.66667h9.33333v18.66667z" fill="#98856e"/><path d="M202.66667,231.33333v-18.66667h4.66667v18.66667z" fill="#cbb292"/><path d="M221.33333,231.33333v-18.66667h9.33333v18.66667z" fill="#993839"/><path d="M221.33333,231.33333v-18.66667h4.66667v18.66667z" fill="#cc4b4c"/><path d="M240,231.33333v-18.66667h9.33333v18.66667z" fill="#98856e"/><path d="M240,231.33333v-18.66667h4.66667v18.66667z" fill="#cbb292"/><path d="M240,133.33333h23.33333v21c0,6.44332 -5.22334,11.66667 -11.66667,11.66667v0c-6.44332,0 -11.66667,-5.22334 -11.66667,-11.66667z" fill="#993839"/><path d="M240,154.33333v-21h16.33333v21c-0.02002,5.07807 -3.32245,9.55994 -8.16667,11.08333c-4.84422,-1.52339 -8.14665,-6.00527 -8.16667,-11.08333z" fill="#cc4b4c"/><path d="M216.66667,133.33333h23.33333v21c0,6.44332 -5.22334,11.66667 -11.66667,11.66667v0c-6.44332,0 -11.66667,-5.22334 -11.66667,-11.66667z" fill="#993839"/><path d="M216.66667,154.33333v-21h16.33333v21c-0.02002,5.07807 -3.32245,9.55994 -8.16667,11.08333c-4.84422,-1.52339 -8.14665,-6.00527 -8.16667,-11.08333z" fill="#cc4b4c"/><path d="M214.33333,135.66667c0,-14.17531 11.49136,-25.66667 25.66667,-25.66667c14.17531,0 25.66667,11.49136 25.66667,25.66667c0,14.17531 -11.49136,25.66667 -25.66667,25.66667c-14.17531,0 -25.66667,-11.49136 -25.66667,-25.66667z" fill="#cccccc"/><path d="M214.33333,135.66667c0,-14.03356 9.92435,-25.41 22.16667,-25.41c12.24231,0 22.16667,11.37644 22.16667,25.41c0,14.03356 -9.92435,25.41 -22.16667,25.41c-12.24231,0 -22.16667,-11.37644 -22.16667,-25.41z" fill="#f2f2f2"/><path d="M237.66667,147.33333v-23.33333h14v23.33333z" fill="#98856e"/><path d="M228.33333,147.33333v-23.33333h9.33333v23.33333z" fill="#cbb292"/><path d="M286.66667,133.33333h23.33333v21c0,6.44332 -5.22334,11.66667 -11.66667,11.66667v0c-6.44332,0 -11.66667,-5.22334 -11.66667,-11.66667z" fill="#993839"/><path d="M286.66667,154.33333v-21h16.33333v21c-0.02002,5.07807 -3.32245,9.55994 -8.16667,11.08333c-4.84422,-1.52339 -8.14665,-6.00527 -8.16667,-11.08333z" fill="#cc4b4c"/><path d="M263.33333,133.33333h23.33333v21c0,6.44332 -5.22334,11.66667 -11.66667,11.66667v0c-6.44332,0 -11.66667,-5.22334 -11.66667,-11.66667z" fill="#993839"/><path d="M263.33333,154.33333v-21h16.33333v21c-0.02002,5.07807 -3.32245,9.55994 -8.16667,11.08333c-4.84422,-1.52339 -8.14665,-6.00527 -8.16667,-11.08333z" fill="#cc4b4c"/><path d="M193.33333,133.33333h23.33333v21c0,6.44332 -5.22334,11.66667 -11.66667,11.66667v0c-6.44332,0 -11.66667,-5.22334 -11.66667,-11.66667z" fill="#993839"/><path d="M193.33333,154.33333v-21h16.33333v21c-0.02002,5.07807 -3.32245,9.55994 -8.16667,11.08333c-4.84422,-1.52339 -8.14665,-6.00527 -8.16667,-11.08333z" fill="#cc4b4c"/><path d="M170,133.33333h23.33333v21c0,6.44332 -5.22334,11.66667 -11.66667,11.66667v0c-6.44332,0 -11.66667,-5.22334 -11.66667,-11.66667z" fill="#993839"/><path d="M170,154.33333v-21h16.33333v21c-0.02002,5.07807 -3.32245,9.55994 -8.16667,11.08333c-4.84422,-1.52339 -8.14665,-6.00527 -8.16667,-11.08333z" fill="#cc4b4c"/><path d="M184,205.66667v-4.66667h65.33333v4.66667z" fill="#666666"/><path d="M270.33333,219.66667v-9.33333h4.66667v9.33333z" fill="#cccccc"/></g></g></svg>