<svg width="140" height="140" viewBox="0 0 179.2 179.2" class="prefix__icon" xmlns="http://www.w3.org/2000/svg"><path d="M39.2 16.8H140v162.4H39.2z" fill="#eaeaea"/><path d="M50.4 16.8h11.2v117.6H50.4zm22.4 0H84v117.6H72.8zm22.4 0h11.2v117.6H95.2zm22.4 0h11.2v117.6h-11.2z" fill="#469fcc"/><path d="M50.4 145.6h11.2v33.6H50.4zm22.4 0H84v33.6H72.8zm22.4 0h11.2v33.6H95.2zm22.4 0h11.2v33.6h-11.2z" fill="#434854"/><path d="M151.2 11.547c0 2.901-2.352 5.253-5.253 5.253H33.253A5.253 5.253 0 0128 11.547V5.253C28 2.352 30.352 0 33.253 0h112.7a5.252 5.252 0 015.247 5.253z" fill="#ef4d4d"/><path d="M39.2 16.8h11.2v5.6H39.2zm22.4 0h11.2v5.6H61.6zm22.4 0h11.2v5.6H84zm22.4 0h11.2v5.6h-11.2zm22.4 0H140v5.6h-11.2z"/><path d="M50.4 16.8h11.2v5.6H50.4zm22.4 0H84v5.6H72.8zm22.4 0h11.2v5.6H95.2zm22.4 0h11.2v5.6h-11.2z"/><path d="M41.692 179.2A22.165 22.165 0 0044.8 168 22.4 22.4 0 000 168c0 4.1 1.182 7.89 3.108 11.2zM156.8 145.6a22.355 22.355 0 00-20.34 13.132 16.598 16.598 0 00-7.66-1.932 16.8 16.8 0 00-16.8 16.8c0 1.977.403 3.842 1.03 5.6h63.068A22.215 22.215 0 00179.2 168a22.4 22.4 0 00-22.4-22.4z" fill="#3aad73"/><path d="M136.46 158.732a16.598 16.598 0 00-7.66-1.932 16.8 16.8 0 00-16.8 16.8c0 1.977.403 3.842 1.03 5.6h24.478A22.165 22.165 0 01134.4 168c0-3.315.767-6.434 2.06-9.268z"/></svg>