<svg xmlns="http://www.w3.org/2000/svg" width="143.818" height="110.561" viewBox="0 0 184.087 141.519" xmlns:v="https://vecta.io/nano"><path d="M184.086 132.962c0 4.713-3.742 8.557-8.34 8.557H8.34a8.467 8.467 0 0 1-8.34-8.557V57.394c0-4.738 3.742-8.557 8.34-8.557h167.406c4.598 0 8.34 3.819 8.34 8.557z" fill="#d94437"/><path d="M184.086 71.328V57.394a8.442 8.442 0 0 0-8.34-8.557H8.34a8.442 8.442 0 0 0-8.34 8.557V71.34h184.085z" fill="#cdd6d9"/><path d="M9.119 106.155a24.827 24.827 0 1 0 49.655 0 24.827 24.827 0 1 0-49.655 0z" fill="#435861"/><path d="M33.947 133.192a27.05 27.05 0 0 1-27.024-27.037c0-14.891 12.12-27.024 27.024-27.024a27.075 27.075 0 0 1 27.037 27.024 27.075 27.075 0 0 1-27.037 27.037zm0-49.667c-12.478 0-22.618 10.153-22.618 22.618s10.14 22.631 22.618 22.631 22.618-10.153 22.618-22.618-10.14-22.631-22.618-22.631z" fill="#d1cecf"/><path d="M28.66 106.155a5.287 5.287 0 1 0 10.575 0 5.287 5.287 0 1 0-10.575 0z" fill="#aab5bb"/><path d="M123.831 106.155a24.827 24.827 0 1 0 49.655 0 24.827 24.827 0 1 0-49.655 0z" fill="#435861"/><path d="M148.671 133.192a27.075 27.075 0 0 1-27.037-27.037c0-14.891 12.133-27.024 27.037-27.024s27.024 12.133 27.024 27.024a27.075 27.075 0 0 1-27.024 27.037zm0-49.667c-12.478 0-22.618 10.153-22.618 22.618s10.153 22.618 22.618 22.618 22.618-10.153 22.618-22.618-10.166-22.618-22.618-22.618z" fill="#d1cecf"/><path d="M143.384 106.155a5.275 5.275 0 1 0 10.549 0 5.275 5.275 0 1 0-10.549 0z" fill="#aab5bb"/><path d="M74.445 94.622h35.172v12.197H74.445zM60.728 55.146h61.775v8.097H60.728z" fill="#435861"/><path d="M25.799 0h132.183v12.222H25.799z" fill="#d94437"/><path d="M17.715 0h8.084v61.762h-8.084zm140.267 0h8.084v61.762h-8.084z" fill="#cdd6d9"/><path d="M74.445 111.442h8.71v9.63h-8.71zm13.244 0h8.697v9.63h-8.697zm13.231 0h8.71v9.63h-8.71z" fill="#a52224"/></svg>