<svg version="1.1" xmlns="http://www.w3.org/2000/svg" xmlns:xlink="http://www.w3.org/1999/xlink" width="127.30111" height="139.99885" viewBox="0,0,127.30111,139.99885"><defs><linearGradient x1="218.48938" y1="206.26471" x2="221.76894" y2="197.86568" gradientUnits="userSpaceOnUse" id="color-1"><stop offset="0" stop-color="#9e7d1c"/><stop offset="1" stop-color="#ffbf00" stop-opacity="0"/></linearGradient><radialGradient cx="256.03608" cy="196.0324" r="60.74734" gradientUnits="userSpaceOnUse" id="color-2"><stop offset="0" stop-color="#b88cf2"/><stop offset="1" stop-color="#290050"/></radialGradient><linearGradient x1="284.26422" y1="158.35518" x2="294.90615" y2="148.5526" gradientUnits="userSpaceOnUse" id="color-3"><stop offset="0" stop-color="#ffa800"/><stop offset="1" stop-color="#ffd800"/></linearGradient><linearGradient x1="285.25366" y1="163.48299" x2="282.98296" y2="169.13608" gradientUnits="userSpaceOnUse" id="color-4"><stop offset="0" stop-color="#ffa800"/><stop offset="1" stop-color="#ffd800"/></linearGradient><linearGradient x1="218.14474" y1="187.96026" x2="271.50447" y2="209.18854" gradientUnits="userSpaceOnUse" id="color-5"><stop offset="0" stop-color="#b88cf2"/><stop offset="1" stop-color="#ffffff"/></linearGradient><radialGradient cx="271.32505" cy="137.34227" r="7.53195" gradientUnits="userSpaceOnUse" id="color-6"><stop offset="0" stop-color="#ffffff"/><stop offset="1" stop-color="#000000"/></radialGradient><linearGradient x1="214.59836" y1="206.82057" x2="217.87793" y2="198.42154" gradientUnits="userSpaceOnUse" id="color-7"><stop offset="0" stop-color="#ffbf00"/><stop offset="1" stop-color="#ffbf00" stop-opacity="0"/></linearGradient><linearGradient x1="221.79118" y1="137.10189" x2="195.94927" y2="178.40781" gradientUnits="userSpaceOnUse" id="color-8"><stop offset="0" stop-color="#b88cf2" stop-opacity="0"/><stop offset="1" stop-color="#290050"/></linearGradient><linearGradient x1="228.70329" y1="150.3647" x2="216.30763" y2="181.34553" gradientUnits="userSpaceOnUse" id="color-9"><stop offset="0" stop-color="#b88cf2" stop-opacity="0"/><stop offset="1" stop-color="#290050"/></linearGradient><linearGradient x1="238.1001" y1="160.94271" x2="236.13791" y2="179.91141" gradientUnits="userSpaceOnUse" id="color-10"><stop offset="0" stop-color="#b88cf2" stop-opacity="0"/><stop offset="1" stop-color="#290050"/></linearGradient><linearGradient x1="229.63713" y1="162.16004" x2="228.36422" y2="179.00258" gradientUnits="userSpaceOnUse" id="color-11"><stop offset="0" stop-color="#b88cf2" stop-opacity="0"/><stop offset="1" stop-color="#290050"/></linearGradient></defs><g transform="translate(-176.54422,-110.00027)"><g data-paper-data="{&quot;isPaintingLayer&quot;:true}" stroke-miterlimit="10" stroke-dasharray="" stroke-dashoffset="0" style="mix-blend-mode: normal"><path d="M217.78065,199.80284c0,0 2.38186,0.2557 4.25511,7.01217c-3.53527,2.65423 -3.90214,38.29872 -3.90214,38.29872l15.95595,4.05221h-24.64125l7.97658,-4.23009c0,0 1.59532,-38.62667 0.53363,-45.18581" data-paper-data="{&quot;index&quot;:null}" fill="url(#color-1)" fill-rule="evenodd" stroke="none" stroke-width="0.27793" stroke-linecap="butt" stroke-linejoin="miter"/><path d="M222.03576,206.81501c-3.53527,2.65423 -3.90214,38.29872 -3.90214,38.29872l15.95595,4.05221h-24.64125l7.97658,-4.23009c0,0 1.59532,-38.62667 0.53363,-45.18581" data-paper-data="{&quot;index&quot;:null}" fill="none" fill-rule="nonzero" stroke="#000000" stroke-width="0.55464" stroke-linecap="butt" stroke-linejoin="miter"/><path d="M254.54242,111.8353c30.11924,6.66476 28.57951,31.08922 28.57951,31.08922l-5.51412,15.04156l5.01385,11.03103c-1.5036,27.07869 -46.81449,38.9185 -74.5352,39.02967c-18.68243,0.075 -31.07254,-0.98665 -31.26431,-30.50556c-0.37799,-57.41195 46.39759,-72.6147 77.72027,-65.68592z" data-paper-data="{&quot;index&quot;:null}" fill="url(#color-2)" fill-rule="evenodd" stroke="none" stroke-width="0.27793" stroke-linecap="butt" stroke-linejoin="miter"/><path d="M181.65535,176.46786c-8.89376,-9.53577 16.02265,-32.11756 40.03299,-39.5355c-30.85853,12.34842 -41.47545,34.14367 -40.03299,39.5355z" data-paper-data="{&quot;index&quot;:null}" fill-opacity="0.65165" fill="#000000" fill-rule="evenodd" stroke="none" stroke-width="0.27793" stroke-linecap="butt" stroke-linejoin="miter"/><path d="M303.18012,167.99656c0,0 -16.04488,-9.27729 -25.57231,-10.03048l5.51412,-15.04156c0,0 10.65583,6.76759 20.05819,25.07204z" data-paper-data="{&quot;index&quot;:null}" fill="url(#color-3)" fill-rule="evenodd" stroke="none" stroke-width="0.27793" stroke-linecap="butt" stroke-linejoin="miter"/><path d="M299.92,166.11498c-8.1489,-0.37521 -17.29834,2.88213 -17.29834,2.88213l-5.01385,-11.03103c6.01717,-0.12507 22.31219,8.1489 22.31219,8.1489z" data-paper-data="{&quot;index&quot;:null}" fill="url(#color-4)" fill-rule="evenodd" stroke="none" stroke-width="0.27793" stroke-linecap="butt" stroke-linejoin="miter"/><path d="M218.14474,207.37087c5.92824,-4.44966 39.7106,-26.14485 51.94229,-17.32058c-8.33234,7.97658 -36.50885,16.95927 -51.94229,17.32058z" data-paper-data="{&quot;index&quot;:null}" fill="url(#color-5)" fill-rule="evenodd" stroke="none" stroke-width="0.27793" stroke-linecap="butt" stroke-linejoin="miter"/><path d="M254.54242,111.8353c30.11924,6.66476 28.57951,31.08922 28.57951,31.08922l-5.51412,15.04156l5.01385,11.03103c-1.5036,27.07869 -46.81449,38.9185 -74.5352,39.02967c-18.68243,0.075 -31.07254,-0.98665 -31.26431,-30.50556c-0.37799,-57.41195 46.39759,-72.6147 77.72027,-65.68592z" data-paper-data="{&quot;index&quot;:null}" fill="none" fill-rule="nonzero" stroke="#000000" stroke-width="0.55586" stroke-linecap="butt" stroke-linejoin="miter"/><path d="M283.12193,142.92452c0,0 10.65583,6.76759 20.05819,25.07204c0,0 -13.79087,-7.64862 -23.19046,-9.78034" data-paper-data="{&quot;index&quot;:null}" fill="none" fill-rule="nonzero" stroke="#000000" stroke-width="0.55586" stroke-linecap="butt" stroke-linejoin="miter"/><path d="M282.62166,168.99711c0,0 8.7131,-3.32126 16.85922,-2.94605" data-paper-data="{&quot;index&quot;:null}" fill="none" fill-rule="nonzero" stroke="#000000" stroke-width="0.55586" stroke-linecap="butt" stroke-linejoin="miter"/><path d="M270.07472,137.36323c0.58614,-3.66552 2.5588,-5.71262 4.41972,-4.58649c1.86091,1.12613 2.9143,5.00444 2.3601,8.68927c-0.5542,3.68484 -2.50879,5.79849 -4.37922,4.73559c-1.87043,-1.0629 -2.95736,-4.90493 -2.43525,-8.60801" data-paper-data="{&quot;index&quot;:null}" fill="url(#color-6)" fill-rule="evenodd" stroke="#000000" stroke-width="1" stroke-linecap="round" stroke-linejoin="round"/><path d="M213.88964,200.3587c0,0 2.38185,0.2557 4.2551,7.01217c-3.53527,2.65423 -3.90213,38.29872 -3.90213,38.29872l15.95594,4.05221h-24.64125l7.97659,-4.23009c0,0 1.59531,-38.62667 0.53362,-45.18581" data-paper-data="{&quot;index&quot;:null}" fill="url(#color-7)" fill-rule="evenodd" stroke="none" stroke-width="0.27793" stroke-linecap="butt" stroke-linejoin="miter"/><path d="M270.2649,189.89743c-12.23168,-8.82427 -46.19192,13.02378 -52.12016,17.47344c-3.53527,2.65423 -3.90213,38.29872 -3.90213,38.29872l15.95594,4.05221h-24.64125l7.97659,-4.23009c0,0 1.59531,-38.62667 0.53362,-45.18581" data-paper-data="{&quot;index&quot;:null}" fill="none" fill-rule="nonzero" stroke="#000000" stroke-width="0.55464" stroke-linecap="butt" stroke-linejoin="miter"/><path d="M244.36185,177.56013c-18.4323,5.78649 -58.12066,8.14056 -62.7065,-1.09227c-6.23397,-12.54852 24.62179,-34.51331 40.03299,-39.5355c34.55779,-8.56858 42.87344,-13.54074 35.24983,25.99199c0,0 -5.26955,12.34286 -12.57632,14.63578z" data-paper-data="{&quot;index&quot;:null}" fill="url(#color-8)" fill-rule="evenodd" stroke="none" stroke-width="0.27793" stroke-linecap="butt" stroke-linejoin="miter"/><path d="M256.93817,162.92435c0,0 -5.26955,12.34286 -12.57632,14.63578c-18.4323,5.78649 -58.12066,8.14056 -62.7065,-1.09227c-6.23397,-12.54852 24.62179,-34.51331 40.03299,-39.5355" data-paper-data="{&quot;index&quot;:null}" fill="none" fill-rule="nonzero" stroke="#000000" stroke-width="0.61675" stroke-linecap="butt" stroke-linejoin="miter"/><path d="M192.64469,181.96531c-10.61414,-7.99882 13.18776,-30.52502 33.47385,-35.81402c-19.06875,6.67587 -37.84013,24.56899 -33.47385,35.81402z" data-paper-data="{&quot;index&quot;:null}" fill-opacity="0.65165" fill="#000000" fill-rule="evenodd" stroke="none" stroke-width="0.27793" stroke-linecap="butt" stroke-linejoin="miter"/><path d="M244.36185,177.56013c-18.4323,5.78649 -49.61045,7.07887 -51.71716,4.40518c-8.66585,-11.01435 18.06265,-30.79183 33.47385,-35.81402c42.1814,-17.96538 30.81963,16.77306 30.81963,16.77306c0,0 -5.26955,12.34286 -12.57632,14.63578z" data-paper-data="{&quot;index&quot;:null}" fill="url(#color-9)" fill-rule="evenodd" stroke="none" stroke-width="0.27793" stroke-linecap="butt" stroke-linejoin="miter"/><path d="M256.93817,162.92435c0,0 -5.26955,12.34286 -12.57632,14.63578c-18.4323,5.78649 -49.61045,7.07887 -51.71716,4.40518c-8.66585,-11.01435 18.06265,-30.79183 33.47385,-35.81402" data-paper-data="{&quot;index&quot;:null}" fill="none" fill-rule="nonzero" stroke="#000000" stroke-width="0.61675" stroke-linecap="butt" stroke-linejoin="miter"/><path d="M235.8711,153.95c-27.40387,10.66694 -34.46607,22.40669 -31.70067,30.14147c-7.60971,-2.54583 0.15564,-21.57012 31.70067,-30.14147z" data-paper-data="{&quot;index&quot;:null}" fill-opacity="0.65165" fill="#000000" fill-rule="evenodd" stroke="none" stroke-width="0.27793" stroke-linecap="butt" stroke-linejoin="miter"/><path d="M256.93817,162.92435c0,0 -5.26955,12.34286 -12.57632,14.63578c-18.4323,5.78649 -39.75229,7.19282 -40.19142,6.53134c-7.43184,-11.14498 16.28946,-25.1165 31.70067,-30.14147" data-paper-data="{&quot;index&quot;:null}" fill="url(#color-10)" fill-rule="evenodd" stroke="none" stroke-width="0.27793" stroke-linecap="butt" stroke-linejoin="miter"/><path d="M256.93817,162.92435c0,0 -5.26955,12.34286 -12.57632,14.63578c-18.4323,5.78649 -39.75229,7.19282 -40.19142,6.53134c-7.43184,-11.14498 16.28946,-25.1165 31.70067,-30.14147" data-paper-data="{&quot;index&quot;:null}" fill="none" fill-rule="nonzero" stroke="#000000" stroke-width="0.61675" stroke-linecap="butt" stroke-linejoin="miter"/><path d="M245.54861,159.62254c-12.42346,4.46077 -34.15756,18.58238 -24.69961,23.93809c-16.42287,-2.09003 7.78203,-20.4195 24.69961,-23.93809z" data-paper-data="{&quot;index&quot;:null}" fill-opacity="0.65165" fill="#000000" fill-rule="evenodd" stroke="none" stroke-width="0.27793" stroke-linecap="butt" stroke-linejoin="miter"/><path d="M256.93817,162.92435c0,0 -5.692,11.28116 -12.57632,14.63578c-4.95826,2.41798 -21.84528,6.66197 -24.06037,5.82262c-12.52352,-4.74982 10.08606,-18.73524 25.49727,-23.76021" data-paper-data="{&quot;index&quot;:null}" fill="url(#color-11)" fill-rule="evenodd" stroke="none" stroke-width="0.27793" stroke-linecap="butt" stroke-linejoin="miter"/><path d="M256.93817,162.92435c0,0 -4.45243,10.74754 -11.33675,14.10493c-4.95827,2.41799 -23.08485,7.19282 -25.29994,6.35347c-12.52352,-4.74982 10.08606,-18.73524 25.49727,-23.76021" data-paper-data="{&quot;index&quot;:null}" fill="none" fill-rule="nonzero" stroke="#000000" stroke-width="0.61675" stroke-linecap="butt" stroke-linejoin="miter"/></g></g></svg>