<svg version="1.1" xmlns="http://www.w3.org/2000/svg" xmlns:xlink="http://www.w3.org/1999/xlink" width="127.30111" height="139.99885" viewBox="0,0,127.30111,139.99885"><defs><linearGradient x1="261.70426" y1="206.26559" x2="258.4247" y2="197.86656" gradientUnits="userSpaceOnUse" id="color-1"><stop offset="0" stop-color="#9e7d1c"/><stop offset="1" stop-color="#ffbf00" stop-opacity="0"/></linearGradient><radialGradient cx="224.15756" cy="196.03328" r="60.74734" gradientUnits="userSpaceOnUse" id="color-2"><stop offset="0" stop-color="#b88cf2"/><stop offset="1" stop-color="#290050"/></radialGradient><linearGradient x1="195.92942" y1="158.35606" x2="185.28749" y2="148.55348" gradientUnits="userSpaceOnUse" id="color-3"><stop offset="0" stop-color="#ffa800"/><stop offset="1" stop-color="#ffd800"/></linearGradient><linearGradient x1="194.93998" y1="163.48387" x2="197.21068" y2="169.13696" gradientUnits="userSpaceOnUse" id="color-4"><stop offset="0" stop-color="#ffa800"/><stop offset="1" stop-color="#ffd800"/></linearGradient><linearGradient x1="262.0489" y1="187.96114" x2="208.68917" y2="209.18942" gradientUnits="userSpaceOnUse" id="color-5"><stop offset="0" stop-color="#b88cf2"/><stop offset="1" stop-color="#ffffff"/></linearGradient><radialGradient cx="208.86859" cy="137.34315" r="7.53195" gradientUnits="userSpaceOnUse" id="color-6"><stop offset="0" stop-color="#ffffff"/><stop offset="1" stop-color="#000000"/></radialGradient><linearGradient x1="265.59528" y1="206.82145" x2="262.31571" y2="198.42242" gradientUnits="userSpaceOnUse" id="color-7"><stop offset="0" stop-color="#ffbf00"/><stop offset="1" stop-color="#ffbf00" stop-opacity="0"/></linearGradient><linearGradient x1="258.40246" y1="137.10277" x2="284.24437" y2="178.40869" gradientUnits="userSpaceOnUse" id="color-8"><stop offset="0" stop-color="#b88cf2" stop-opacity="0"/><stop offset="1" stop-color="#290050"/></linearGradient><linearGradient x1="251.49035" y1="150.36558" x2="263.88601" y2="181.34641" gradientUnits="userSpaceOnUse" id="color-9"><stop offset="0" stop-color="#b88cf2" stop-opacity="0"/><stop offset="1" stop-color="#290050"/></linearGradient><linearGradient x1="242.09354" y1="160.94359" x2="244.05573" y2="179.91229" gradientUnits="userSpaceOnUse" id="color-10"><stop offset="0" stop-color="#b88cf2" stop-opacity="0"/><stop offset="1" stop-color="#290050"/></linearGradient><linearGradient x1="250.55651" y1="162.16092" x2="251.82942" y2="179.00346" gradientUnits="userSpaceOnUse" id="color-11"><stop offset="0" stop-color="#b88cf2" stop-opacity="0"/><stop offset="1" stop-color="#290050"/></linearGradient></defs><g transform="translate(-176.34831,-110.00115)"><g data-paper-data="{&quot;isPaintingLayer&quot;:true}" stroke-miterlimit="10" stroke-dasharray="" stroke-dashoffset="0" style="mix-blend-mode: normal"><path d="M262.23511,199.75092c-1.06169,6.55914 0.53363,45.18581 0.53363,45.18581l7.97658,4.23009h-24.64125l15.95595,-4.05221c0,0 -0.36687,-35.64449 -3.90214,-38.29872c1.87325,-6.75647 4.25511,-7.01217 4.25511,-7.01217" fill="url(#color-1)" fill-rule="evenodd" stroke="none" stroke-width="0.27793" stroke-linecap="butt" stroke-linejoin="miter"/><path d="M262.23511,199.75092c-1.06169,6.55914 0.53363,45.18581 0.53363,45.18581l7.97658,4.23009h-24.64125l15.95595,-4.05221c0,0 -0.36687,-35.64449 -3.90214,-38.29872" fill="none" fill-rule="nonzero" stroke="#000000" stroke-width="0.55464" stroke-linecap="butt" stroke-linejoin="miter"/><path d="M303.37149,177.5221c-0.19177,29.51891 -12.58188,30.58056 -31.26431,30.50556c-27.72071,-0.11117 -73.0316,-11.95098 -74.5352,-39.02967l5.01385,-11.03103l-5.51412,-15.04156c0,0 -1.53973,-24.42446 28.57951,-31.08922c31.32268,-6.92878 78.09826,8.27397 77.72027,65.68592z" fill="url(#color-2)" fill-rule="evenodd" stroke="none" stroke-width="0.27793" stroke-linecap="butt" stroke-linejoin="miter"/><path d="M258.5053,136.93324c24.01034,7.41794 48.92675,29.99973 40.03299,39.5355c1.44246,-5.39183 -9.17446,-27.18708 -40.03299,-39.5355z" fill-opacity="0.65165" fill="#000000" fill-rule="evenodd" stroke="none" stroke-width="0.27793" stroke-linecap="butt" stroke-linejoin="miter"/><path d="M197.07171,142.9254l5.51412,15.04156c-9.52743,0.75319 -25.57231,10.03048 -25.57231,10.03048c9.40236,-18.30445 20.05819,-25.07204 20.05819,-25.07204z" fill="url(#color-3)" fill-rule="evenodd" stroke="none" stroke-width="0.27793" stroke-linecap="butt" stroke-linejoin="miter"/><path d="M202.58583,157.96696l-5.01385,11.03103c0,0 -9.14944,-3.25734 -17.29834,-2.88213c0,0 16.29502,-8.27397 22.31219,-8.1489z" fill="url(#color-4)" fill-rule="evenodd" stroke="none" stroke-width="0.27793" stroke-linecap="butt" stroke-linejoin="miter"/><path d="M210.10661,190.05117c12.23169,-8.82427 46.01405,12.87092 51.94229,17.32058c-15.43344,-0.36131 -43.60995,-9.344 -51.94229,-17.32058z" fill="url(#color-5)" fill-rule="evenodd" stroke="none" stroke-width="0.27793" stroke-linecap="butt" stroke-linejoin="miter"/><path d="M303.37149,177.5221c-0.19177,29.51891 -12.58188,30.58056 -31.26431,30.50556c-27.72071,-0.11117 -73.0316,-11.95098 -74.5352,-39.02967l5.01385,-11.03103l-5.51412,-15.04156c0,0 -1.53973,-24.42446 28.57951,-31.08922c31.32268,-6.92878 78.09826,8.27397 77.72027,65.68592z" fill="none" fill-rule="nonzero" stroke="#000000" stroke-width="0.55586" stroke-linecap="butt" stroke-linejoin="miter"/><path d="M200.20398,158.2171c-9.39959,2.13172 -23.19046,9.78034 -23.19046,9.78034c9.40236,-18.30445 20.05819,-25.07204 20.05819,-25.07204" fill="none" fill-rule="nonzero" stroke="#000000" stroke-width="0.55586" stroke-linecap="butt" stroke-linejoin="miter"/><path d="M180.71276,166.05194c8.14612,-0.37521 16.85922,2.94605 16.85922,2.94605" fill="none" fill-rule="nonzero" stroke="#000000" stroke-width="0.55586" stroke-linecap="butt" stroke-linejoin="miter"/><path d="M210.15357,137.59447c0.52211,3.70308 -0.56482,7.54511 -2.43525,8.60801c-1.87043,1.0629 -3.82502,-1.05075 -4.37922,-4.73559c-0.5542,-3.68483 0.49919,-7.56314 2.3601,-8.68927c1.86092,-1.12613 3.83358,0.92097 4.41972,4.58649" fill="url(#color-6)" fill-rule="evenodd" stroke="#000000" stroke-width="1" stroke-linecap="round" stroke-linejoin="round"/><path d="M266.12613,200.30678c-1.06169,6.55914 0.53362,45.18581 0.53362,45.18581l7.97659,4.23009h-24.64125l15.95594,-4.05221c0,0 -0.36686,-35.64449 -3.90213,-38.29872c1.87325,-6.75647 4.2551,-7.01217 4.2551,-7.01217" fill="url(#color-7)" fill-rule="evenodd" stroke="none" stroke-width="0.27793" stroke-linecap="butt" stroke-linejoin="miter"/><path d="M266.12613,200.30678c-1.06169,6.55914 0.53362,45.18581 0.53362,45.18581l7.97659,4.23009h-24.64125l15.95594,-4.05221c0,0 -0.36686,-35.64449 -3.90213,-38.29872c-5.92824,-4.44966 -39.88848,-26.29771 -52.12016,-17.47344" fill="none" fill-rule="nonzero" stroke="#000000" stroke-width="0.55464" stroke-linecap="butt" stroke-linejoin="miter"/><path d="M223.25547,162.92523c-7.62361,-39.53273 0.69204,-34.56057 35.24983,-25.99199c15.4112,5.02219 46.26696,26.98698 40.03299,39.5355c-4.58584,9.23283 -44.2742,6.87876 -62.7065,1.09227c-7.30677,-2.29292 -12.57632,-14.63578 -12.57632,-14.63578z" fill="url(#color-8)" fill-rule="evenodd" stroke="none" stroke-width="0.27793" stroke-linecap="butt" stroke-linejoin="miter"/><path d="M258.5053,136.93324c15.4112,5.02219 46.26696,26.98698 40.03299,39.5355c-4.58584,9.23283 -44.2742,6.87876 -62.7065,1.09227c-7.30677,-2.29292 -12.57632,-14.63578 -12.57632,-14.63578" fill="none" fill-rule="nonzero" stroke="#000000" stroke-width="0.61675" stroke-linecap="butt" stroke-linejoin="miter"/><path d="M254.0751,146.15217c20.28609,5.289 44.08799,27.8152 33.47385,35.81402c4.36628,-11.24503 -14.4051,-29.13815 -33.47385,-35.81402z" fill-opacity="0.65165" fill="#000000" fill-rule="evenodd" stroke="none" stroke-width="0.27793" stroke-linecap="butt" stroke-linejoin="miter"/><path d="M223.25547,162.92523c0,0 -11.36177,-34.73844 30.81963,-16.77306c15.4112,5.02219 42.1397,24.79967 33.47385,35.81402c-2.10671,2.67369 -33.28486,1.38131 -51.71716,-4.40518c-7.30677,-2.29292 -12.57632,-14.63578 -12.57632,-14.63578z" fill="url(#color-9)" fill-rule="evenodd" stroke="none" stroke-width="0.27793" stroke-linecap="butt" stroke-linejoin="miter"/><path d="M254.0751,146.15217c15.4112,5.02219 42.1397,24.79967 33.47385,35.81402c-2.10671,2.67369 -33.28486,1.38131 -51.71716,-4.40518c-7.30677,-2.29292 -12.57632,-14.63578 -12.57632,-14.63578" fill="none" fill-rule="nonzero" stroke="#000000" stroke-width="0.61675" stroke-linecap="butt" stroke-linejoin="miter"/><path d="M276.02321,184.09235c2.7654,-7.73478 -4.2968,-19.47453 -31.70067,-30.14147c31.54503,8.57135 39.31038,27.59564 31.70067,30.14147z" fill-opacity="0.65165" fill="#000000" fill-rule="evenodd" stroke="none" stroke-width="0.27793" stroke-linecap="butt" stroke-linejoin="miter"/><path d="M244.32254,153.95088c15.41121,5.02497 39.13251,18.99649 31.70067,30.14147c-0.43913,0.66148 -21.75912,-0.74485 -40.19142,-6.53134c-7.30677,-2.29292 -12.57632,-14.63578 -12.57632,-14.63578" fill="url(#color-10)" fill-rule="evenodd" stroke="none" stroke-width="0.27793" stroke-linecap="butt" stroke-linejoin="miter"/><path d="M244.32254,153.95088c15.41121,5.02497 39.13251,18.99649 31.70067,30.14147c-0.43913,0.66148 -21.75912,-0.74485 -40.19142,-6.53134c-7.30677,-2.29292 -12.57632,-14.63578 -12.57632,-14.63578" fill="none" fill-rule="nonzero" stroke="#000000" stroke-width="0.61675" stroke-linecap="butt" stroke-linejoin="miter"/><path d="M259.34464,183.56151c9.45795,-5.35571 -12.27615,-19.47732 -24.69961,-23.93809c16.91758,3.51859 41.12248,21.84806 24.69961,23.93809z" fill-opacity="0.65165" fill="#000000" fill-rule="evenodd" stroke="none" stroke-width="0.27793" stroke-linecap="butt" stroke-linejoin="miter"/><path d="M234.39489,159.62342c15.41121,5.02497 38.02079,19.01039 25.49727,23.76021c-2.21509,0.83935 -19.10211,-3.40464 -24.06037,-5.82262c-6.88432,-3.35462 -12.57632,-14.63578 -12.57632,-14.63578" fill="url(#color-11)" fill-rule="evenodd" stroke="none" stroke-width="0.27793" stroke-linecap="butt" stroke-linejoin="miter"/><path d="M234.39489,159.62342c15.41121,5.02497 38.02079,19.01039 25.49727,23.76021c-2.21509,0.83935 -20.34167,-3.93548 -25.29994,-6.35347c-6.88432,-3.35739 -11.33675,-14.10493 -11.33675,-14.10493" fill="none" fill-rule="nonzero" stroke="#000000" stroke-width="0.61675" stroke-linecap="butt" stroke-linejoin="miter"/></g></g></svg>