<svg version="1.0" width="127.303" height="140" xmlns:xlink="http://www.w3.org/1999/xlink" xmlns="http://www.w3.org/2000/svg"><defs><linearGradient id="prefix__b"><stop offset="0" stop-color="#b88cf2" stop-opacity="0"/><stop offset="1" stop-color="#290050"/></linearGradient><linearGradient id="prefix__a"><stop offset="0" stop-color="#ffa800"/><stop offset="1" stop-color="#ffd800"/></linearGradient><linearGradient id="prefix__e" y2="347.35" xlink:href="#prefix__a" gradientUnits="userSpaceOnUse" x2="152.45" y1="382.62" x1="190.74" gradientTransform="matrix(.27793 0 0 .27793 86.855 150.648)"/><linearGradient id="prefix__f" y2="421.41" xlink:href="#prefix__a" gradientUnits="userSpaceOnUse" x2="195.35" y1="401.07" x1="187.18" gradientTransform="matrix(.27793 0 0 .27793 86.855 150.648)"/><linearGradient id="prefix__g" y2="565.52" gradientUnits="userSpaceOnUse" x2="236.65" y1="489.14" x1="428.64" gradientTransform="matrix(.27793 0 0 .27793 86.855 150.648)"><stop offset="0" stop-color="#b88cf2"/><stop offset="1" stop-color="#fff"/></linearGradient><linearGradient id="prefix__i" y2="526.78" gradientUnits="userSpaceOnUse" x2="429.6" y1="557" x1="441.4" gradientTransform="matrix(.27793 0 0 .27793 86.855 150.648)"><stop offset="0" stop-color="#ffbf00"/><stop offset="1" stop-color="#ffbf00" stop-opacity="0"/></linearGradient><linearGradient id="prefix__c" y2="526.78" gradientUnits="userSpaceOnUse" x2="429.6" gradientTransform="matrix(.27793 0 0 .27793 82.964 150.092)" y1="557" x1="441.4"><stop offset="0" stop-color="#9e7d1c"/><stop offset="1" stop-color="#ffbf00" stop-opacity="0"/></linearGradient><linearGradient id="prefix__j" y2="454.77" xlink:href="#prefix__b" gradientUnits="userSpaceOnUse" x2="508.5" y1="306.15" x1="415.52" gradientTransform="matrix(.27793 0 0 .27793 86.855 150.648)"/><linearGradient id="prefix__k" y2="465.34" xlink:href="#prefix__b" gradientUnits="userSpaceOnUse" x2="435.25" y1="353.87" x1="390.65" gradientTransform="matrix(.27793 0 0 .27793 86.855 150.648)"/><linearGradient id="prefix__m" y2="456.91" xlink:href="#prefix__b" gradientUnits="userSpaceOnUse" x2="391.87" y1="396.31" x1="387.29" gradientTransform="matrix(.27793 0 0 .27793 86.855 150.648)"/><linearGradient id="prefix__l" y2="460.18" xlink:href="#prefix__b" gradientUnits="userSpaceOnUse" x2="363.9" y1="391.93" x1="356.84" gradientTransform="matrix(.27793 0 0 .27793 86.855 150.648)"/><radialGradient id="prefix__h" gradientUnits="userSpaceOnUse" cy="321.28" cx="251.37" gradientTransform="matrix(-.01439 -.56784 .28716 -.00728 64.166 381.052)" r="13.26"><stop offset="0" stop-color="#fff"/><stop offset="1"/></radialGradient><radialGradient id="prefix__d" gradientUnits="userSpaceOnUse" cy="543.27" cx="296.74" gradientTransform="matrix(.2469 .19977 -.24592 .30394 228.43 70.262)" r="191.27"><stop offset="0" stop-color="#b88cf2"/><stop offset="1" stop-color="#290050"/></radialGradient></defs><path d="M206.351 298.437s-2.382.256-4.255 7.012c3.535 2.654 3.902 38.299 3.902 38.299l-15.956 4.052h24.642l-7.977-4.23s-1.595-38.627-.534-45.186" fill="url(#prefix__c)" fill-rule="evenodd" transform="translate(-120.287 -208.633)"/><path d="M81.81 96.816c3.535 2.654 3.902 38.299 3.902 38.299l-15.956 4.052h24.641l-7.977-4.23s-1.595-38.627-.533-45.186" fill="none" stroke="#000" stroke-width=".555"/><path d="M169.59 210.47c-30.12 6.664-28.58 31.089-28.58 31.089l5.514 15.041-5.014 11.031c1.504 27.079 46.815 38.919 74.535 39.03 18.683.075 31.073-.987 31.265-30.506.378-57.411-46.398-72.614-77.72-65.685z" fill="url(#prefix__d)" fill-rule="evenodd" transform="translate(-120.287 -208.633)"/><path d="M82.157 26.933c24.01 7.418 48.927 30 40.033 39.536 1.442-5.392-9.174-27.187-40.033-39.536z" fill-opacity=".652" fill-rule="evenodd"/><path d="M141.01 241.559l5.514 15.041c-9.527.753-25.572 10.03-25.572 10.03 9.402-18.304 20.058-25.071 20.058-25.071z" fill="url(#prefix__e)" fill-rule="evenodd" transform="translate(-120.287 -208.633)"/><path d="M146.524 256.6l-5.014 11.031s-9.15-3.257-17.298-2.882c0 0 16.295-8.274 22.312-8.149z" fill="url(#prefix__f)" fill-rule="evenodd" transform="translate(-120.287 -208.633)"/><path d="M154.045 288.685c12.232-8.825 46.014 12.87 51.942 17.32-15.433-.361-43.61-9.344-51.942-17.32z" fill="url(#prefix__g)" fill-rule="evenodd" transform="translate(-120.287 -208.633)"/><path d="M49.303 1.836c-30.12 6.665-28.58 31.09-28.58 31.09l5.515 15.041-5.014 11.031c1.503 27.079 46.814 38.918 74.535 39.03 18.682.075 31.072-.987 31.264-30.506.378-57.412-46.397-72.615-77.72-65.686z" fill="none" stroke="#000" stroke-width=".556"/><path d="M23.856 48.217c-9.4 2.132-23.19 9.78-23.19 9.78 9.402-18.304 20.057-25.072 20.057-25.072M21.224 58.998s-8.713-3.321-16.86-2.946" fill="none" stroke="#000" stroke-width=".556"/><path d="M154.092 236.228a3.546 7.003 0 01-2.435 8.608 3.546 7.003 0 01-4.38-4.736 3.546 7.003 0 012.36-8.689 3.546 7.003 0 014.42 4.586" fill="url(#prefix__h)" fill-rule="evenodd" stroke="#000" stroke-linecap="round" stroke-linejoin="round" transform="translate(-120.287 -208.633)"/><path d="M210.242 298.993s-2.382.256-4.255 7.012c3.535 2.654 3.902 38.299 3.902 38.299l-15.956 4.052h24.642l-7.977-4.23s-1.595-38.627-.534-45.186" fill="url(#prefix__i)" fill-rule="evenodd" transform="translate(-120.287 -208.633)"/><path d="M33.58 79.898c12.232-8.824 46.192 13.024 52.12 17.474 3.536 2.654 3.903 38.298 3.903 38.298l-15.956 4.053h24.641l-7.977-4.23s-1.595-38.627-.533-45.186" fill="none" stroke="#000" stroke-width=".555"/><path d="M167.194 261.559c-7.624-39.533.692-34.561 35.25-25.992 15.41 5.022 46.267 26.987 40.033 39.535-4.586 9.233-44.275 6.879-62.707 1.092-7.307-2.293-12.576-14.635-12.576-14.635z" fill="url(#prefix__j)" fill-rule="evenodd" transform="translate(-120.287 -208.633)"/><path d="M82.157 26.933c15.411 5.022 46.267 26.987 40.033 39.536-4.586 9.233-44.274 6.878-62.707 1.092-7.306-2.293-12.576-14.636-12.576-14.636" fill="none" stroke="#000" stroke-width=".617"/><path d="M77.727 36.152c20.286 5.29 44.088 27.815 33.474 35.814 4.366-11.245-14.405-29.138-33.474-35.814z" fill-opacity=".652" fill-rule="evenodd"/><path d="M167.194 261.559s-11.362-34.739 30.82-16.773c15.41 5.022 42.139 24.8 33.473 35.814-2.107 2.673-33.285 1.38-51.717-4.406-7.307-2.293-12.576-14.635-12.576-14.635z" fill="url(#prefix__k)" fill-rule="evenodd" transform="translate(-120.287 -208.633)"/><path d="M77.727 36.152c15.411 5.022 42.14 24.8 33.474 35.814-2.107 2.674-33.285 1.381-51.718-4.405-7.306-2.293-12.576-14.636-12.576-14.636" fill="none" stroke="#000" stroke-width=".617"/><path d="M99.675 74.092c2.765-7.734-4.297-19.474-31.7-30.141 31.544 8.571 39.31 27.596 31.7 30.141z" fill-opacity=".652" fill-rule="evenodd"/><path d="M188.26 252.584c15.412 5.025 39.133 18.997 31.701 30.142-.439.661-21.759-.745-40.191-6.532-7.307-2.293-12.576-14.635-12.576-14.635" fill="url(#prefix__l)" fill-rule="evenodd" transform="translate(-120.287 -208.633)"/><path d="M67.974 43.95c15.411 5.026 39.133 18.997 31.7 30.142-.438.662-21.758-.745-40.19-6.531-7.307-2.293-12.577-14.636-12.577-14.636" fill="none" stroke="#000" stroke-width=".617"/><path d="M82.996 73.562c9.458-5.356-12.276-19.478-24.7-23.939 16.918 3.519 41.123 21.848 24.7 23.939z" fill-opacity=".652" fill-rule="evenodd"/><path d="M178.333 258.257c15.411 5.025 38.02 19.01 25.497 23.76-2.215.84-19.102-3.405-24.06-5.823-6.884-3.354-12.576-14.635-12.576-14.635" fill="url(#prefix__m)" fill-rule="evenodd" transform="translate(-120.287 -208.633)"/><path d="M58.047 49.623c15.41 5.025 38.02 19.01 25.497 23.76-2.215.84-20.342-3.935-25.3-6.353-6.884-3.357-11.337-14.105-11.337-14.105" fill="none" stroke="#000" stroke-width=".617"/></svg>