<svg width="84.493" height="140" viewBox="0 0 79.212 131.25" xmlns:xlink="http://www.w3.org/1999/xlink" xmlns="http://www.w3.org/2000/svg"><defs><linearGradient id="prefix__k" y2="76.099" xlink:href="#prefix__a" gradientUnits="userSpaceOnUse" x2="155.33" y1="85.492" x1="165.55"/><linearGradient id="prefix__a"><stop offset="0" stop-color="#b98663"/><stop offset="1" stop-color="#b98663" stop-opacity="0"/></linearGradient><linearGradient id="prefix__l" y2="32.778" xlink:href="#prefix__b" gradientUnits="userSpaceOnUse" x2="190.84" y1="67.726" x1="241.07"/><linearGradient id="prefix__b"><stop offset="0" stop-color="#d9a66d"/><stop offset="1" stop-color="#d9a66d" stop-opacity="0"/></linearGradient><linearGradient gradientTransform="matrix(1.4306 0 0 1.15476 -504.122 394.632)" id="prefix__g" y2="77.928" xlink:href="#prefix__c" gradientUnits="userSpaceOnUse" x2="156.07" y1="74.75" x1="160"/><linearGradient id="prefix__c"><stop offset="0" stop-color="#e2a986"/><stop offset="1" stop-color="#e2a986" stop-opacity="0"/></linearGradient><linearGradient gradientTransform="matrix(.0619 0 0 .06284 306.36 451.78)" id="prefix__e" y2="48.542" xlink:href="#prefix__a" gradientUnits="userSpaceOnUse" x2="200.85" y1="60.694" x1="202.2"/><linearGradient gradientTransform="matrix(.78902 0 0 .78902 112.065 412.966)" id="prefix__d" y2="118.38" gradientUnits="userSpaceOnUse" x2="196.56" y1="120.5" x1="196.61"><stop offset="0" stop-color="#eac093"/><stop offset="1" stop-color="#c78066"/></linearGradient><linearGradient gradientTransform="matrix(1.4306 0 0 1.15476 30.24 394.632)" y2="77.928" x2="156.07" y1="74.75" x1="160" gradientUnits="userSpaceOnUse" id="prefix__f" xlink:href="#prefix__c"/><linearGradient xlink:href="#prefix__a" id="prefix__i" gradientUnits="userSpaceOnUse" x1="165.55" y1="85.492" x2="155.33" y2="76.099"/><linearGradient xlink:href="#prefix__b" id="prefix__j" gradientUnits="userSpaceOnUse" x1="241.07" y1="67.726" x2="190.84" y2="32.778"/><filter id="prefix__n" height="1.486" width="1.124" y="-.243" x="-.062"><feGaussianBlur stdDeviation="5.424"/></filter><filter id="prefix__m" x="-.029" y="-.089" width="1.058" height="1.179"><feGaussianBlur stdDeviation="3.043"/></filter><filter id="prefix__h" height="2.213" width="2.213" y="-.606" x="-.606"><feGaussianBlur stdDeviation="2.617"/></filter></defs><g transform="translate(-228.198 -425.495)"><g transform="matrix(.28567 0 0 .28567 161.64 457.539)"><circle r="7.955" cy="14.784" cx="218.319" transform="translate(-233.63 -129.65) scale(2.762)" fill="#ececec" stroke="#ccc"/><path d="M369.04-109.77c-10.85 0-19.7 8.57-19.7 19.175 0 6.201 3.06 11.736 7.73 15.251-1.27-2.669-1.93-5.627-1.93-8.758 0-11.561 9.56-20.908 21.39-20.908 2.22 0 4.4.29 6.41.9-3.56-3.5-8.45-5.66-13.9-5.66z" fill="#fff"/></g><path d="M267.16 504.68c-5.279 0-9.624 4.01-10.142 9.15l-.072 1.428c-.172 3.268-.743 4.645-1.785 7.625a13.257 13.257 0 00-1.196 3.562c8.669.571 17.45.708 26.406.126a13.502 13.502 0 00-.562-2.134l-.866-1.929c-1.239-3.073-1.288-4.213-1.598-7.284.004-.12.009-.237.009-.357 0-5.628-4.568-10.187-10.195-10.187z" fill="#c83737" stroke="#820a0a" stroke-width=".788"/><circle r="3.241" cy="505.224" cx="267.191" fill="url(#prefix__d)" stroke="#810000" stroke-width=".789"/><ellipse ry="34.91" rx="36.178" cy="471.221" cx="267.486" fill="#eac093" stroke="#b98663" stroke-width=".854"/><ellipse ry="2.603" rx="2.565" cy="455.963" cx="318.784" transform="rotate(6.26) skewX(-.018)" fill="#eac093" stroke="url(#prefix__e)" stroke-width=".789"/><ellipse ry="3.67" rx="2.81" cy="480.949" cx="256.327" fill="url(#prefix__f)"/><ellipse ry="2.508" rx="1.55" cy="481.9" cx="257.586"/><ellipse ry=".495" rx=".425" cy="480.84" cx="257.057" fill="#fff" stroke="#fff" stroke-width=".574"/><ellipse ry="3.67" rx="2.81" cy="480.949" cx="-278.036" transform="scale(-1 1)" fill="url(#prefix__g)"/><ellipse ry="2.508" rx="1.55" cy="481.9" cx="-276.777" transform="scale(-1 1)"/><ellipse ry=".495" rx=".425" cy="480.911" cx="-276.235" transform="scale(-1 1)" fill="#fff" stroke="#fff" stroke-width=".574"/><circle r="5.179" cy="89.607" cx="173.393" transform="matrix(.78902 0 0 .78902 148.38 417.568)" fill="#e29b86" filter="url(#prefix__h)"/><circle r="5.179" cy="89.607" cx="173.393" transform="matrix(-.78902 0 0 -.78902 386.578 558.971)" fill="#e29b86" filter="url(#prefix__h)"/><path d="M278.31 536.54c-2.161 5.434-3.767 10.867-4.602 16.298l2.972 3.188.095.585-6.046-.014c.083-1.097.782-2.374.865-4.045-.686-4.356-1.951-7.382-3.11-10.65l9.826-5.362z" fill-rule="evenodd" stroke="#000" stroke-width=".267"/><path d="M253.965 526.436c-.15.8-.232 1.629-.232 2.471 0 7.413 6.015 13.427 13.426 13.427 7.411 0 13.427-6.014 13.427-13.427 0-.8-.077-1.585-.215-2.348-8.958.583-17.736.449-26.406-.123z" stroke="#000" stroke-width=".429"/><path d="M279.265 522.908h-24.212M277.984 518.195h-21.65M277.558 514.053h-20.37M276.134 509.91h-17.95" fill="none" stroke="#820a0a" stroke-width=".788"/><path d="M267.48 436.316c-19.97 0-36.17 15.635-36.17 34.906 0 1.958.168 3.877.488 5.748l9.938-8.623 17.996-7.999 13.426-.571 9.427 3.999s9.428 4.285 10.285 5.428c.857 1.142 7.427 7.141 7.427 7.141l2.42 2.83c.617-2.555.945-5.218.945-7.954 0-19.27-16.211-34.906-36.182-34.906z" fill="#ececec" stroke="#ccc" stroke-width=".854"/><path d="M232.063 467.355c1.408-13.761 12.252-25.844 26.375-29.39 1.981-.499 6.51-1.174 7.878-1.176.465 0 .5.577.5 8.14v8.142l-1.642.002c-1.96.002-7.19.892-9.784 1.665-7.415 2.207-14.108 6.149-21.399 12.6l-2.117 1.874.189-1.857z" fill="#fd5" stroke="#dab619" stroke-width=".788"/><path d="M301.525 467.727c-.786-.705-2.65-2.212-4.142-3.348-8.95-6.813-18.205-10.609-27.353-11.218l-2.642-.176V436.71l2.5.203c3.442.279 6.634.917 9.439 1.889 11.3 3.915 19.642 12.72 22.723 23.983.491 1.798 1.182 5.961 1.015 6.12-.061.057-.754-.472-1.54-1.177z" fill="#bcd35f" stroke="#879a3a" stroke-width=".788"/><g transform="matrix(.28567 0 0 .28567 281.998 457.539)"><circle r="41.429" cy="66.571" cx="200.714" transform="matrix(-.24852 -.33228 -.1271 .32945 -109.94 135.48)" fill="#eac093" stroke="url(#prefix__i)" stroke-width="5.877"/><circle r="41.429" cy="66.571" cx="200.714" transform="matrix(.1093 .14302 .02316 -.18631 -190.38 78.7)" fill="url(#prefix__j)"/></g><g transform="matrix(-.28567 0 0 .28567 253.27 457.539)"><circle r="41.429" cy="66.571" cx="200.714" transform="matrix(-.24852 -.33228 -.1271 .32945 -109.94 135.48)" fill="#eac093" stroke="url(#prefix__k)" stroke-width="5.877"/><circle r="41.429" cy="66.571" cx="200.714" transform="matrix(.1093 .14302 .02316 -.18631 -190.38 78.7)" fill="url(#prefix__l)"/></g><path d="M366.583 586.5c5.702 10.916 18.723 1.746 27.553 4.375 1.62 10.468 15.949 17.846 24.05 7.762 7.952-4.363 14.746 5.631 19.396 11.112 5.52 7.31 15.037 8.523 23.33 6.155 8.273-.046-9.832 19.6 3.995 17.011 5.47-5.213 12.52.977 6.016 6.23-2.932 3.58-3.275 10.71 1.63 3.78 6.725-9.354 16.42-18.74 15.688-31.179-7.831-15.666-21.927-28.916-39.488-32.409a169.645 169.645 0 00-34.527-4.912c-11.666-1.26-21.825-7.865-33.74-7.268-21.148-2.442-44.27-6.998-63.945 3.85-11.187 5.177-18.784 15.971-30.854 19.524-13.49 6.248-29.96 5.243-41.76 15.295-10.38 4.753-7.48 20.017 2.81 22.08 3.27 5.145 7.05 14.18 14.61 12.17-5.15-3.117-6.66-10.797 1.03-6.607 10.78-.654 3.04-13.947 6.41-16.987 6.93-1.4 14.26-4.107 16.67-10.33 9.81.646 23.22 3.572 24.42-9.678 8.886-8.45 22.832 1.686 31.904-6.566 6.562-6.863 16.54-6.224 24.802-3.409z" transform="matrix(.28567 0 0 .28567 163.01 303.945)" fill="#de996f" fill-rule="evenodd" filter="url(#prefix__m)"/><path d="M267.73 469.204c1.63 3.118 5.349.499 7.871 1.25.463 2.99 4.557 5.098 6.87 2.217 2.272-1.246 4.213 1.609 5.542 3.174 1.577 2.088 4.295 2.435 6.664 1.759 2.364-.013-2.808 5.599 1.141 4.86 1.563-1.49 3.577.278 1.72 1.78-.838 1.021-.936 3.058.465 1.079 1.92-2.672 4.69-5.354 4.481-8.907-2.237-4.475-6.264-8.26-11.28-9.258a48.463 48.463 0 00-9.863-1.403c-3.333-.36-6.235-2.247-9.639-2.077-6.041-.697-12.646-1.999-18.267 1.1-3.196 1.479-5.366 4.563-8.814 5.577-3.854 1.785-8.559 1.498-11.93 4.37-2.965 1.358-2.136 5.718.803 6.307.934 1.47 2.014 4.051 4.174 3.476-1.471-.89-1.903-3.083.294-1.886 3.08-.187.868-3.985 1.831-4.853 1.98-.4 4.074-1.173 4.762-2.951 2.803.184 6.633 1.02 6.976-2.765 2.539-2.414 6.523.482 9.114-1.875 1.875-1.961 4.725-1.778 7.085-.974z" fill-rule="evenodd" stroke="#000" stroke-width=".286"/><path d="M267.73 469.204c1.63 3.118 5.349.499 7.871 1.25.463 2.99 4.557 5.098 6.87 2.217 2.272-1.246 4.213 1.609 5.542 3.174 1.577 2.088 4.295 2.435 6.664 1.759 2.364-.013-2.808 5.599 1.141 4.86 1.563-1.49 3.577.278 1.72 1.78-.838 1.021-.936 3.058.465 1.079 1.92-2.672 4.69-5.354 4.481-8.907-2.237-4.475-6.264-8.26-11.28-9.258a48.463 48.463 0 00-9.863-1.403c-3.333-.36-6.235-2.247-9.639-2.077-6.041-.697-12.646-1.999-18.267 1.1-3.196 1.479-5.366 4.563-8.814 5.577-3.854 1.785-8.559 1.498-11.93 4.37-2.965 1.358-2.136 5.718.803 6.307.934 1.47 2.014 4.051 4.174 3.476-1.471-.89-1.903-3.083.294-1.886 3.08-.187.868-3.985 1.831-4.853 1.98-.4 4.074-1.173 4.762-2.951 2.803.184 6.633 1.02 6.976-2.765 2.539-2.414 6.523.482 9.114-1.875 1.875-1.961 4.725-1.778 7.085-.974z" fill="none" stroke="#4b4b4b" stroke-width=".788"/><path d="M305.02 482.343l1.574-1.34.413-8.192-1.698-2.52c-24.407-21.826-51.395-22.2-75.014 0l-1.697 3.36.195 6.353 1.45 2.48c23.803-21.556 50.37-21.19 74.777-.141z" fill="#ececec" fill-rule="evenodd" stroke="#ccc" stroke-width=".794"/><path d="M255.915 536.54c2.16 5.434 3.767 10.867 4.602 16.298l-2.972 3.188-.095.585 6.045-.014c-.082-1.097-.781-2.374-.864-4.045.686-4.356 1.95-7.382 3.11-10.65z" fill-rule="evenodd" stroke="#000" stroke-width=".267"/><path d="M47.344 248.69c22.794 32.33 61.226 53.59 104.78 53.59 43.56 0 82.02-21.26 104.82-53.59-25.59 25.44-63.08 41.5-104.82 41.5-41.73 0-79.193-16.06-104.78-41.5z" transform="matrix(.28567 0 0 .26435 224.024 425.084)" fill="#e0a075" filter="url(#prefix__n)"/><g fill-rule="evenodd"><path d="M253.025 515.283l-3.762 9.67-.69.736.18 1.138-.324 8.5 1.963-.293.082-5.376.337 1.56 1.382-.559-.07-2.141-.627-1.695s1.011-7.788 5.96-11.207z" fill="#eac093" stroke="#b98663" stroke-width=".7884491999999999"/><path d="M257.778 512.23l.93 2.584c-4.948 3.419-7.212 12.01-7.212 12.01l.626 1.695.07 2.141-.544.22.11-1.633-1.086-3.135c1.04-6.401 5.29-11.817 7.106-13.882zm-7.8 16.899l.487 1.063-.074 4.842-.879.134.217-3.77zm.711 1.557l.233.487-.112.046z" fill="#df9f75"/><path d="M258.68 514.964c-.952.658-1.777 1.352-2.533 2.292l-3.36-1.835 3.32-4.435 3.92-3.432" fill="#c83737" stroke="#820a0a" stroke-width=".7884491999999999"/></g><path d="M278.872 492.627h-22.568c.189.023 9.349 6.436 22.568 0z" fill="#d35f5f" fill-rule="evenodd" stroke="#e08662" stroke-width=".286"/><g fill-rule="evenodd"><path d="M281.035 515.157l3.762 9.67.69.736-.18 1.138.324 8.5-1.963-.293-.082-5.376-.337 1.56-1.382-.559.07-2.141.626-1.695s-1.01-7.788-5.958-11.207z" fill="#eac093" stroke="#b98663" stroke-width=".7884491999999999"/><path d="M276.282 512.104l-.93 2.584c4.948 3.419 7.212 12.01 7.212 12.01l-.626 1.695-.07 2.14.544.222-.11-1.634 1.086-3.135c-1.04-6.401-5.29-11.817-7.106-13.882zm7.8 16.898l-.487 1.064.074 4.842.879.134-.217-3.77zm-.711 1.558l-.234.487.113.046z" fill="#df9f75"/><path d="M275.38 514.838c.952.658 1.777 1.352 2.533 2.292l3.36-1.835-3.32-4.435-3.92-3.433" fill="#c83737" stroke="#820a0a" stroke-width=".7884491999999999"/></g></g></svg>