<svg width="140" height="124.914" xmlns="http://www.w3.org/2000/svg"><g stroke="#8b3c1b" stroke-width=".5" fill="none"><path d="M66.831 106.595l2.228 11.138 4.455 2.228M73.514 117.733H69.06M73.514 115.505l-4.455 2.228" stroke-width="1.113835"/></g><path fill="#f95" d="M11.14 68.724c4.455 11.139 19.791 21.25 28.96 15.594 12.124-7.151 19.262-20.593 19.602-34.73C61.788 33.68 62.855 14.063 77.97 4.123c14.582-8.642 34.504-2.919 40.41 14.029 5.423 15.566 4.143 41.661 4.143 52.8.391 18.08-8.118 30.347-25.008 36.719-17.759 6.7-37.652 5.836-55.496 1.445-11.847-2.916-20.937-8.546-30.88-15.888C6.945 90.13.001 82.09.001 70.95c2.228 4.456 4.455 4.456 6.683 4.456 0-2.228 4.455-6.683 4.455-6.683z"/><path fill="teal" d="M60.843 40.656c-.39 2.987-.743 5.943-1.114 8.771-.34 14.136-7.506 27.588-19.63 34.738-9.169 5.657-24.505-4.455-28.96-15.593 0 0-4.456 2.227-4.456 6.683-2.228 0-4.4-1.031-6.683-4.456 0 11.139 6.943 19.18 11.138 22.277 5 3.691 9.801 6.978 14.828 9.676 14.133 1.56 36.41-.668 47.548-9.579 4.455-4.455 6.683-11.138 4.455-22.276 4.455 8.91-2.228 24.504-4.455 28.96 13.28-1.66 22.276-20.05 22.276-35.643 4.456-4.456 4.43-10.688 4.456-15.594-14.07-1.178-31.206 2.384-39.403-7.867z"/><path d="M92.797 0c-5.088.018-10.271 1.338-14.828 4.038C63.8 13.357 62.04 31.133 60.148 46.433c12.107 4.773 34.751 4.412 62.653 1.462-.18-10.446-1.167-21.652-4.455-29.795C114.806 6.266 103.99-.04 92.796 0z" fill="teal"/><path d="M86.555 19.938c5.366-9.097 22.292-4.012 21.121 6.73-.775 9.68-15.66 14.157-21.062 5.683-2.515-3.593-2.839-8.865-.058-12.413z" fill="#fff"/><path d="M102.474 25.285a5.57 5.57 0 11-11.138 0 5.57 5.57 0 0111.138 0z"/><path stroke="#8b3c1b" stroke-width="1.113835" fill="none" d="M55.693 108.822l2.228 13.366 4.455 2.228M62.376 122.188H57.92M62.376 119.96l-4.455 2.228"/><path d="M98.019 24.17a2.228 2.228 0 11-4.456 0 2.228 2.228 0 014.456 0z" fill="#fff"/><path fill="#f60" d="M118.068 17.488C124.312 17.732 140 18.809 140 27.72c-8.565.891-10.793.891-17.476 3.119 0 0 12.853-1.669 15.594-2.228-.605 5.732-9.512 11.363-15.24 13.195-1.216-4.39-5.435-12.582-4.81-24.333z"/></svg>