<svg version="1.1" xmlns="http://www.w3.org/2000/svg" xmlns:xlink="http://www.w3.org/1999/xlink" width="104.08373" height="140" viewBox="0,0,104.08373,140"><defs><clipPath id="clip-1"><path d="M292.04187,250h-104.08373v-140h104.08373z" fill="none"/></clipPath></defs><g transform="translate(-187.95813,-110)"><g data-paper-data="{&quot;isPaintingLayer&quot;:true}" fill-rule="nonzero" stroke="none" stroke-width="1" stroke-linecap="butt" stroke-linejoin="miter" stroke-miterlimit="10" stroke-dasharray="" stroke-dashoffset="0" style="mix-blend-mode: normal"><g clip-path="url(#clip-1)" data-paper-data="{&quot;index&quot;:null}"><path d="M278.21778,182.13775c0.35805,0.18757 0.70589,0.38335 0.6949,0.86638c-0.08846,0.15083 -0.23729,0.23119 -0.37958,0.31565c-1.32276,0.78524 -2.56062,1.69302 -3.78127,2.62455c-1.95928,1.49502 -3.83821,3.07827 -5.38306,5.0178c-0.46171,0.57969 -0.4505,0.67736 0.06815,1.21011c0.15494,0.15905 0.31166,0.31621 0.47059,0.47115c0.94862,0.92398 1.71466,1.98581 2.35718,3.13876c0.12508,0.22431 0.27248,0.49934 -0.03541,0.68369c-0.30944,0.18513 -0.4636,-0.08557 -0.61776,-0.29312c-0.06615,-0.0889 -0.11632,-0.18879 -0.17436,-0.28347c-0.48469,-0.7898 -0.96194,-1.61267 -1.64574,-2.2241c-1.0878,-0.9727 -1.76638,-2.15584 -2.216,-3.50868c-0.05805,-0.17447 -0.13485,-0.34484 -0.21432,-0.51144c-0.47314,-0.99146 -1.0242,-1.9322 -1.88004,-2.64819c-0.42076,-0.35195 -0.89146,-0.63252 -1.47171,-0.404c-0.55095,0.21698 -0.71388,0.71233 -0.81355,1.23697c-0.04895,0.25738 -0.03418,0.51488 0.00988,0.77248c0.09112,0.53175 0.23652,1.04629 0.47692,1.53098c0.28158,0.56771 0.47437,1.16549 0.58169,1.78814c0.29923,1.73675 0.2959,3.49426 0.33408,5.24777c0.02264,1.03852 0.10832,2.0665 0.36771,3.07439c0.07736,0.30067 0.05527,0.58058 -0.07125,0.86371c-0.44506,0.99612 -0.91022,1.98303 -1.37626,2.96917c-1.43786,3.04264 -2.918,6.06509 -4.37795,9.0973c-0.10555,0.21909 -0.16859,0.44606 -0.204,0.68713c-0.16104,1.09757 -0.26049,2.20224 -0.39046,3.30336c-0.2384,2.01822 -0.40078,4.04532 -0.47814,6.07308c-0.0677,1.7736 -0.04051,3.55164 -0.00533,5.32746c0.02531,1.27415 0.19245,2.54164 0.39923,3.80025c0.0475,0.28968 0.13163,0.54384 0.49912,0.55383c1.11222,0.02886 2.22155,0.04218 3.28526,-0.36515c0.22253,-0.08546 0.44284,-0.202 0.69324,-0.10322c0.23718,0.17425 0.16959,0.36515 0.02897,0.55938c-0.16249,0.16537 -0.37703,0.22864 -0.58613,0.29967c-1.02409,0.34961 -2.07882,0.48613 -3.15796,0.44839c-0.42708,-0.01554 -0.46304,0.03774 -0.26493,0.4151c0.34162,0.65039 0.94651,0.89346 1.61477,1.04329c0.40955,0.09323 0.8484,0.06104 1.22576,0.28746c0.00799,0.25416 -0.21188,0.25749 -0.36626,0.33186c-1.81899,0.24861 -3.021,-0.54273 -3.52766,-2.32743c-0.06393,-0.25083 -0.11121,-0.505 -0.15649,-0.76027c-0.31143,-1.75029 -0.36582,-3.51945 -0.48225,-5.28972c-0.11365,-1.72587 0.04007,-3.43288 0.08679,-5.14432c0.05427,-1.98914 0.25383,-3.97806 0.50899,-5.95643c0.16293,-1.26383 0.25516,-2.53753 0.51754,-3.78738c0.06426,-0.306 0.09134,-0.6656 0.34484,-0.85939c0.36915,-0.28224 0.49601,-0.66971 0.64163,-1.06827c0.27792,-0.76038 0.26804,-0.81199 -0.44362,-1.1353c-1.43075,-0.65006 -2.86939,-1.28569 -4.36385,-1.77449c-0.5858,-0.19168 -0.90633,-0.53952 -1.11588,-1.11122c-0.75417,-2.05673 -1.73697,-4.00181 -3.04142,-5.76886c-1.03208,-1.3979 -2.21667,-2.6614 -3.85797,-3.32611c-1.36938,-0.55472 -2.7453,-1.09868 -4.12811,-1.62354c-0.59978,-0.2434 -1.20889,-0.46094 -1.81289,-0.69157c-0.26604,-0.10155 -0.43619,-0.06304 -0.42753,0.26881c0.03618,1.39668 -0.40011,2.69758 -0.84096,3.99093c-0.57648,1.69125 -1.39346,3.26018 -2.52976,4.64965c-0.48691,0.59534 -0.69379,0.64052 -1.24951,0.27126c-4.83134,-3.20957 -9.26567,-6.90671 -13.42064,-10.9457c-0.15594,-0.15161 -0.33985,-0.29501 -0.34096,-0.54662c0.16915,-0.31998 0.39201,-0.57725 0.7666,-0.65716c0.17081,-0.00377 0.32842,0.05128 0.48369,0.11165c1.41821,0.5515 2.87905,0.94918 4.37417,1.22731c1.61877,0.30122 3.24831,0.49823 4.88961,0.64274c2.17738,0.19168 4.35531,0.18724 6.53568,0.1889c0.36016,0.00022 0.504,-0.15649 0.48724,-0.50333c-0.01709,-0.3525 0.05405,-0.70012 0.07403,-1.04995c0.02686,-0.46859 0.28147,-0.65361 0.71588,-0.6636c0.6111,-0.01398 1.21588,-0.09911 1.81922,-0.18358c3.38726,-0.47437 6.5813,-1.54407 9.5983,-3.14864c4.71558,-2.5079 8.30639,-6.12879 10.70108,-10.90641c1.77604,-3.54354 2.61944,-7.33935 2.82477,-11.27445c0.14007,-2.68504 -0.0788,-5.35809 -0.58391,-8.00217c-0.70655,-3.69803 -1.87116,-7.26743 -3.0493,-10.83372c-1.2767,-3.86474 -3.10857,-7.43302 -5.63434,-10.63205c-1.18214,-1.49724 -2.43043,-2.93276 -3.98716,-4.06785c-0.31399,-0.22897 -0.5303,-0.24384 -0.79335,0.07014c-0.43874,0.52376 -0.87803,1.04895 -1.3878,1.50978c-2.45174,2.21611 -5.21325,3.93999 -8.24468,5.24854c-5.64888,2.43842 -11.59732,3.4513 -17.6977,3.75208c-0.42553,0.02098 -0.54418,-0.12786 -0.41254,-0.5363c0.15882,-0.49279 0.34074,-0.97859 0.49157,-1.47382c0.37192,-1.22032 0.59579,-2.4635 0.58091,-3.74076c-0.11454,-0.01254 -0.14573,0.0364 -0.17936,0.07858c-3.98338,4.99371 -7.51238,10.26934 -9.96989,16.19968c-0.56438,1.36205 -1.12964,2.72932 -0.99712,4.27606c0.07869,0.9181 0.01043,1.84841 0.02209,2.77216c0.00011,1.93131 0.00033,3.86374 -0.00178,5.79727c-0.01909,0.92542 0.00078,1.84996 -0.01521,2.77405c-0.00477,0.27747 0.12175,0.7262 -0.19623,0.77182c-0.30988,0.04451 -0.33796,-0.41621 -0.41476,-0.6868c-0.68169,-2.40046 -1.37537,-4.79793 -2.00889,-7.21138c-0.37115,-1.41377 -1.17792,-2.5069 -2.34563,-3.32145c-1.48425,-1.0353 -3.08904,-1.51244 -4.85431,-0.70811c-1.82987,0.83386 -2.6746,2.70035 -2.57627,4.66352c0.11066,2.20712 1.05872,4.06751 2.88282,5.38783c1.4595,1.0565 3.05086,1.47748 4.80592,0.75694c0.06837,-0.02808 0.1384,-0.05205 0.20888,-0.07458c0.18813,-0.06004 0.36959,-0.07403 0.49434,0.11609c0.10866,0.16548 0.06182,0.32342 -0.06937,0.4505c-0.19057,0.18457 -0.16293,0.38813 -0.09612,0.61388c0.8424,2.84431 1.90112,5.59716 3.37494,8.18253c1.17881,2.06783 2.57938,3.9724 4.26718,5.644c1.39402,1.38059 2.9483,2.57682 4.64521,3.57772c0.81443,0.48036 0.9535,0.89535 0.65672,1.84818c-0.38358,0.09012 -0.49645,-0.22475 -0.66948,-0.44873c-0.02686,-0.49101 -0.36737,-0.72076 -0.74484,-0.94895c-3.00369,-1.81677 -5.45443,-4.2159 -7.45944,-7.08796c-2.18359,-3.12788 -3.63821,-6.59106 -4.72412,-10.22317c-0.13119,-0.43874 -0.28679,-0.63929 -0.80045,-0.58369c-1.29291,0.13985 -2.54641,-0.0212 -3.68194,-0.73064c-2.61955,-1.63642 -3.89182,-3.99437 -3.85752,-7.08529c0.04151,-3.7361 3.61146,-6.18518 7.09939,-4.86241c0.68536,0.25994 1.26893,0.67592 1.87515,1.06272c1.14862,1.01333 1.99835,2.19558 2.36006,3.72767c0.31843,1.34818 0.74673,2.67105 1.13042,4.00392c0.07292,0.2535 0.1434,0.50589 0.097,0.77437c0.05805,-2.48692 -0.16371,-4.96796 -0.13341,-7.45433c0.00921,-0.75672 0.04007,-1.51466 -0.08968,-2.26916c-0.06626,-0.3858 0.01321,-0.76915 0.13219,-1.14673c0.83164,-2.63942 1.97305,-5.14754 3.29636,-7.56798c2.32177,-4.24665 5.05076,-8.2226 8.14735,-11.94338c0.23363,-0.28069 0.41143,-0.84485 0.82076,-0.68314c0.37337,0.14761 0.28247,0.71055 0.30877,1.11033c0.10733,1.6292 -0.16493,3.20502 -0.67037,4.74921c-0.19434,0.5939 -0.1212,0.68857 0.50511,0.62198c1.39579,-0.14828 2.79703,-0.24029 4.18893,-0.43064c5.04177,-0.68935 9.89386,-1.99835 14.40022,-4.42168c2.72577,-1.46583 5.19305,-3.26728 7.17631,-5.67685c0.45605,-0.55406 0.58325,-0.5626 1.19391,-0.14351c1.55517,1.06749 2.83754,2.42155 4.031,3.86374c1.46394,1.76883 2.69458,3.6977 3.81834,5.71669c0.15461,-2.28492 -0.1596,-4.48206 -0.8525,-6.62924c-0.93752,-2.90568 -2.52766,-5.41591 -4.63589,-7.6065c-0.28835,-0.29967 -0.41798,-0.59457 -0.39345,-1.0302c0.05916,-1.05162 0.10178,-2.11378 -0.00089,-3.16018c-0.43641,-4.44499 -2.71456,-7.655 -6.65388,-9.70407c-2.78393,-1.44818 -5.77685,-2.13564 -8.88575,-2.38759c-0.35794,-0.02908 -0.36393,0.14495 -0.29967,0.40156c0.16637,0.66371 0.33618,1.32676 0.49645,1.99202c0.16038,0.66493 0.36404,1.3201 0.46893,1.99769c0.02131,0.13818 0.0788,0.31044 -0.08912,0.39734c-0.12808,0.06626 -0.25106,-0.02508 -0.36005,-0.08957c-0.33408,-0.19745 -0.65284,-0.41887 -0.99679,-0.60189c-2.90624,-1.54663 -6.04489,-2.16461 -9.29541,-2.23875c-1.39935,-0.03185 -2.80269,0.13929 -4.19104,0.35938c-0.88414,0.14007 -0.88591,0.14995 -0.3131,0.85772c0.4192,0.51776 0.82709,1.04474 1.20301,1.5938c0.27015,0.39468 0.18058,0.5575 -0.29301,0.60311c-0.23896,0.02309 -0.48014,0.00599 -0.71998,0.03352c-2.93332,0.33685 -5.79982,0.97193 -8.57399,1.98503c-4.55031,1.66183 -8.61194,4.07861 -11.82351,7.77853c-0.35239,0.40589 -0.70012,0.82143 -1.03408,1.33209c0.78813,0.03141 1.47171,0.00122 2.15429,0.02075c0.26482,0.00766 0.63297,-0.10699 0.74706,0.197c0.09589,0.25594 -0.21243,0.44351 -0.3929,0.61832c-1.0383,1.00589 -1.97094,2.10246 -2.83321,3.26107c-1.25817,1.76561 -2.37771,3.60713 -3.2493,5.60171c-1.64274,3.7593 -2.46506,7.70439 -2.66151,11.77889c-0.09601,1.99036 -0.01809,3.98527 0.18147,5.97774c0.31854,3.1786 0.96693,6.28307 1.90068,9.33071c1.41444,4.61635 3.36529,9.00063 5.78373,13.17691c0.9252,1.5979 1.87671,3.1806 2.94475,4.79038c0.22065,-0.71998 0.36715,-1.38425 0.56737,-2.0322c0.08457,-0.27359 0.06104,-0.67947 0.39234,-0.73763c0.38469,-0.0677 0.4535,0.37037 0.61088,0.61632c0.36859,0.57592 0.708,1.17071 1.06083,1.75695c1.10034,1.82809 2.19192,3.66163 3.35818,5.58661c0.08324,-1.03186 0.14195,-1.9504 0.20511,-2.86884c0.01332,-0.19312 -0.0374,-0.45317 0.20888,-0.51732c0.19434,-0.05072 0.33097,0.13685 0.44384,0.28247c0.40766,0.52609 0.82387,1.04685 1.21255,1.58625c0.35305,0.49001 0.84607,0.88613 1.03064,1.49213c-0.09523,0.42564 -0.38968,0.6737 -0.75938,0.85495c-0.3323,-0.41754 -0.6646,-0.83497 -1.06194,-1.33431c-0.1101,1.54019 -0.21143,2.95774 -0.32242,4.50969c-1.90512,-3.17328 -3.73577,-6.22258 -5.61492,-9.35246c-0.29024,1.06105 -0.54928,2.00779 -0.80711,2.95008c-0.20366,-0.02153 -0.22109,-0.17869 -0.28824,-0.2757c-3.87439,-5.60238 -7.18097,-11.48921 -9.42649,-17.96152c-2.38137,-6.86376 -3.47949,-13.85472 -2.55995,-21.09462c0.78935,-6.21581 3.14409,-11.76624 7.24201,-16.54464c0.09822,-0.11443 0.27248,-0.19168 0.25305,-0.42664c-0.8807,0 -1.75562,0 -2.64841,0c0.90178,-1.74763 3.19814,-4.41313 5.23423,-6.08207c4.02023,-3.29514 8.68342,-5.19693 13.70632,-6.31714c1.41988,-0.31676 2.85663,-0.54029 4.40425,-0.73907c-0.87115,-0.98813 -1.74596,-1.85307 -2.44408,-2.88482c5.51392,-1.43064 10.90985,-1.40245 16.23121,0.96549c-0.2919,-1.1797 -0.54174,-2.29325 -0.85151,-3.38993c-0.12109,-0.42864 -0.01254,-0.49279 0.38469,-0.48691c3.28804,0.04917 6.47441,0.62609 9.50429,1.91389c6.26531,2.66295 9.25912,7.62326 8.73103,14.40966c-0.02242,0.28713 0.09478,0.44518 0.26149,0.62209c1.06749,1.13364 2.02998,2.35096 2.81378,3.69737c2.29957,3.95009 3.45319,8.13824 2.57338,12.73195c-0.0434,0.22675 0.05039,0.39756 0.12852,0.57858c1.05972,2.4544 2.01078,4.95065 2.91046,7.46787c2.18026,6.09994 3.1422,12.34016 2.14985,18.79771c-0.85239,5.54666 -3.04753,10.47911 -6.96254,14.54706c-4.87884,5.0693 -10.93816,7.73924 -17.87029,8.55478c-0.20799,0.02442 -0.52919,-0.08757 -0.48391,0.32875c0.03607,0.33175 -0.15538,0.70189 0.40466,0.86083c1.56239,0.44351 3.0887,1.01788 4.65786,1.43242c2.31245,0.61088 4.04831,1.99214 5.4774,3.83521c1.49413,1.92676 2.58038,4.07706 3.44342,6.34578c0.10056,0.26449 0.2414,0.41787 0.50744,0.51776c1.57349,0.5909 3.10668,1.27759 4.61391,2.01888c0.35195,0.17303 0.48347,0.12142 0.64029,-0.22753c1.03486,-2.30202 2.07604,-4.60159 3.15064,-6.88518c0.25328,-0.5383 0.33674,-1.01588 0.20489,-1.61622c-0.38713,-1.76206 -0.2778,-3.56806 -0.34828,-5.35798c-0.05827,-1.4827 -0.20932,-2.94009 -0.90034,-4.30015c-0.40899,-0.80489 -0.51366,-1.69269 -0.41432,-2.59381c0.23829,-2.16106 2.16983,-3.05807 3.96907,-1.84452c0.59113,0.39867 1.05328,0.92398 1.45351,1.50811c0.5181,0.75594 0.91088,1.58103 1.32099,2.46395c2.07715,-2.51634 4.63555,-4.3997 7.21593,-6.25521c0.71754,-0.51599 1.44407,-1.02354 2.24219,-1.41466" fill="#2f201b"/><path d="M221.81012,192.90354c-0.4878,-0.08935 -0.67148,-0.41055 -0.61865,-0.86937c0.04118,-0.35727 -0.08923,-0.41554 -0.40489,-0.32953c-0.44162,0.12042 -0.87026,0.28824 -1.32387,0.36515c-0.22941,-0.03951 -0.44051,-0.01942 -0.59501,0.18202c-0.50289,0.28113 -1.06183,0.42353 -1.59202,0.63685c-3.09325,1.13697 -6.13457,2.40524 -9.18642,3.6472c-1.98348,0.81277 -4.01235,1.52032 -5.90238,2.54941c-0.11476,0.06249 -0.2343,0.11032 -0.36937,0.10377c-0.40855,-0.19268 -0.4949,0.11165 -0.59978,0.38613c-0.36771,0.36682 -0.81421,0.63386 -1.22165,0.95073c-1.8938,1.47315 -3.40369,3.25574 -4.50037,5.40093c-1.05073,2.0554 -1.77327,4.22345 -2.28903,6.45954c-1.35406,5.87075 -2.36128,11.80542 -3.20413,17.76884c-0.13119,0.92898 -0.17059,1.8746 -0.45039,2.78027c-0.20255,0.1909 -0.38358,0.38291 -0.03785,0.606c-0.0091,0.64706 -0.11898,1.28525 -0.23052,1.91788c-0.08591,0.48724 0.0303,0.76027 0.50755,0.92898c0.78258,0.27858 1.5605,0.56715 2.36339,0.78358c3.35563,0.90123 6.76654,1.51278 10.20718,1.97893c0.8747,0.11876 1.76738,0.10433 2.62577,0.3485c0.21876,0.15982 0.43541,0.39845 0.66338,0.01554c0.51599,-0.07991 1.02121,0.08546 1.53919,0.06659c0.84651,-0.03108 0.87381,-0.02331 1.01588,-0.88014c0.12675,-0.7636 0.29878,-1.51943 0.42498,-2.28304c0.03763,-0.22753 0.03984,-0.48946 0.29312,-0.62154c0.17348,-0.02886 0.31099,0.03441 0.42087,0.16648c0.1141,0.20977 0.09356,0.43175 0.05006,0.65039c-0.1939,0.98003 -0.37936,1.96117 -0.54473,2.94564c-0.08069,0.48169 -0.30378,0.78247 -0.83419,0.77692c-0.35328,-0.00444 -0.43685,0.18757 -0.36515,0.51055c0.0798,0.35849 0.23308,0.70589 0.18968,1.08658c-0.12309,0.26637 -0.30189,0.54384 0.14062,0.69368c0.20078,0.3596 0.30167,0.74473 0.27769,1.15983c-0.11021,0.20644 -0.24562,0.42176 0.14018,0.4828c0.25982,0.41732 0.33596,0.88791 0.40222,1.36072c-0.03862,0.15538 -0.15627,0.25194 -0.26293,0.35627c-1.00223,0.88236 -2.05817,1.70479 -3.08271,2.68482c4.02145,0.01221 7.955,-0.00888 11.88988,0.01554c0.06604,-0.04884 0.12542,-0.10655 0.18369,-0.16537c0.08735,-0.09545 0.18568,-0.1798 0.2899,-0.25638c2.0281,-1.48725 3.7866,-3.28083 5.64277,-4.96452c0.38402,-0.3485 0.52675,-0.73474 0.41976,-1.23308c-0.04184,-0.19423 -0.11143,-0.39956 0.05416,-0.57714c0.17592,-0.0222 0.23385,0.10988 0.29978,0.23086c0.06659,0.17647 0.06559,0.36182 0.0626,0.54495c-0.00455,0.27303 0.1252,0.44173 0.36193,0.56382c1.89968,0.98336 3.45186,2.42399 5.01469,3.84576c0.26338,0.23974 0.51388,0.39068 0.86704,0.34295c0.08124,0.05105 0.10433,0.1232 0.07581,0.2131c-0.20489,0.2919 -0.31765,0.61377 -0.37059,0.96893c-0.0515,0.34517 0.08091,0.47836 0.41155,0.47947c1.08747,0.00555 2.17493,-0.00666 3.2624,0.00777c0.23718,0.00222 0.39401,-0.07325 0.41166,-0.33297c0.08291,-1.22642 0.04462,-2.42399 -0.77492,-3.4573c-0.17148,0.1232 -0.27292,0.32964 -0.50489,0.32742c-0.09567,-0.01554 -0.15416,-0.07103 -0.17492,-0.16537c0.19134,-0.48169 0.56737,-0.88014 0.46094,-1.48614c-0.1727,-0.98114 -0.1576,-1.98781 -0.31399,-2.97339c-0.11565,-0.72809 -0.27914,-1.43952 -0.59046,-2.12654c-0.43874,-0.96893 -1.15284,-1.76361 -1.60501,-2.717c-0.09345,-0.2919 -0.25783,-0.54162 -0.4535,-0.77248c-1.21988,-1.62598 -2.61611,-3.07772 -4.24709,-4.30192c-0.34329,-0.25749 -0.7999,-0.40733 -0.96482,-0.86793c-0.02309,-0.13985 -0.01543,-0.27414 0.06548,-0.39734c0.16793,-0.13985 0.31099,-0.03996 0.44851,0.05216c1.57493,1.06549 3.00835,2.29192 4.23289,3.75253c0.94462,1.03885 1.70401,2.20867 2.41189,3.41512c0.04273,0.06437 0.08635,0.12764 0.12553,0.19423c0.05327,0.08768 0.10377,0.17758 0.15139,0.2697c0.26704,0.64928 0.74207,1.212 0.81876,1.94119c-0.18091,0.25083 -0.1828,0.42731 0.1838,0.45394c0.48302,0.65483 0.5676,1.45617 0.80445,2.20202c0.07736,0.27747 0.09822,0.56826 0.19911,0.83907c0.1323,0.37958 0.15705,0.78247 0.25161,1.16871c0.26537,1.36405 0.25405,2.74475 0.24506,4.12656c-0.00178,0.27081 -0.05838,0.55494 0.10733,0.808c0.15627,0.17314 0.36648,0.14651 0.56804,0.14651c5.01214,0.00111 10.02427,0.00111 15.03652,0c0.20078,0 0.41132,0.03108 0.58103,-0.12653c0.24617,-0.42509 0.06571,-0.89346 0.13163,-1.33741c0.00988,-2.12321 0.00211,-4.24643 0.00566,-6.37075c0.00044,-0.22309 -0.01521,-0.44173 -0.08002,-0.65594c-0.02542,-0.12653 -0.04018,-0.25527 -0.04073,-0.38513c-0.01354,-2.72699 -0.0465,-5.4562 0.01731,-8.18319c0.02209,-0.94784 0.12009,-1.9079 0.37592,-2.83576c0.1606,-0.18979 0.3111,-0.40622 0.60722,-0.21754c0.12841,0.22531 0.09933,0.46504 0.06293,0.70367c-0.29223,1.90901 -0.36604,3.82023 -0.05805,5.73589c-0.02064,0.26859 0.15993,0.34185 0.37126,0.3929c0.28679,0.07103 0.57692,0.1232 0.86727,0.17425c1.79768,0.32187 3.60391,0.56049 5.43356,0.59157c1.50667,0.02553 3.02566,0.14761 4.40392,-0.67037c0.23652,-0.06215 0.65983,0.15982 0.57836,-0.38069c0.02664,-0.10988 0.09079,-0.19867 0.16693,-0.27969c0.61876,-0.65816 1.10545,-1.4029 1.51866,-2.20756c0.27303,-0.53275 0.41998,-1.13541 0.84329,-1.58714c0.33996,-0.04551 0.22264,-0.23197 0.12841,-0.41177c-0.06226,-0.18757 0.03307,-0.35294 0.07958,-0.5383c-0.67659,0.95561 -2.4816,2.37516 -3.50003,2.75474c-0.13507,0.05105 -0.27303,0.1343 -0.40955,0.00111c0.07148,-0.15649 0.19978,-0.31632 -0.03274,-0.45061c0.02031,-0.20089 0.19123,-0.25638 0.33186,-0.33408c1.20201,-0.66038 2.27804,-1.46838 3.14986,-2.54497c0.24784,-0.30522 0.45283,-0.67703 0.83907,-0.85794c0.39634,-0.0222 0.37958,-0.2808 0.32375,-0.5616c0.01121,-0.05438 0.0222,-0.11099 0.05117,-0.1576c1.34196,-2.17205 2.17627,-4.56274 3.00691,-6.95566c1.56328,-4.50203 2.87372,-9.0872 4.44665,-13.58701c0.26093,-0.74629 0.6,-1.3696 1.28625,-1.79668c0.32597,-0.20289 0.59923,-0.49301 0.90733,-0.72664c0.79557,-0.603 1.3858,-1.44174 2.26028,-1.95162c0.23097,-0.06715 0.53008,-0.06127 0.47215,-0.43785c0.2222,-0.52475 0.74218,-0.75739 1.1141,-1.13497c2.06938,-2.10035 4.49593,-3.71313 7.03857,-5.17063c0.67281,-0.38569 1.38181,-0.71588 1.9999,-1.18969c0.57215,-0.43874 0.85206,-1.02742 0.69335,-1.75262c-0.16171,-0.73841 -0.74484,-1.00944 -1.40667,-1.16649c-0.23241,-0.05516 -0.48435,0.00766 -0.70567,-0.1172c-0.1798,-0.39201 -0.30222,-0.06104 -0.44373,0.03285c-0.55938,0.28091 -1.17837,0.41055 -1.72965,0.7232c-1.0939,0.62054 -2.10823,1.36039 -3.15929,2.04474c-0.93641,0.60955 -0.96693,0.60123 -1.8241,-0.07392c-1.86838,-1.47182 -3.60724,-3.10835 -5.60537,-4.41557c-0.12242,-0.08013 -0.2485,-0.16393 -0.28957,-0.32042c0.00411,-0.17636 0.09612,-0.30766 0.21776,-0.42353c0.39756,-0.19323 0.56538,-0.70633 1.06227,-0.75916c0.15561,0.07847 0.25616,0.1959 0.26715,0.37703c-0.01398,0.13674 -0.07902,0.25871 -0.1818,0.33263c-0.38668,0.27803 -0.26637,0.47548 0.07037,0.68513c0.51776,0.32242 0.99446,0.705 1.44718,1.11122c0.3616,0.32453 0.65783,0.34606 1.05484,0.02675c0.90567,-0.7282 1.84896,-1.40956 2.8119,-2.06195c0.19634,-0.13296 0.38424,-0.29479 0.64507,-0.28435c0.20522,0.06016 0.34373,0.17525 0.33829,0.40977c-0.11332,0.25538 -0.3555,0.37048 -0.56959,0.50899c-0.94773,0.61277 -1.81622,1.33397 -2.73487,1.98592c-0.33707,0.23918 -0.3333,0.39257 -0.0121,0.65528c0.64329,0.5262 1.30911,1.0252 1.9362,1.57027c0.31621,0.27481 0.60444,0.29845 0.94274,0.05228c0.19301,-0.1404 0.40611,-0.2555 0.60877,-0.38424c0.98125,-0.62353 1.87871,-1.39135 2.95696,-1.84619c0.95062,-0.40111 1.75739,-1.01133 2.58115,-1.60201c0.4616,-0.33097 0.79401,-0.77492 0.94196,-1.3322c0.18935,-0.71299 -0.12719,-1.34485 -0.81166,-1.61766c-0.39945,-0.15916 -0.80778,-0.22031 -1.24651,-0.13219c-0.95461,0.1919 -1.83276,0.5575 -2.66539,1.05417c-0.26315,0.15705 -0.50045,0.39312 -0.84562,0.36759c-0.16282,-0.05105 -0.30533,-0.12764 -0.37503,-0.29689c0.1111,-0.44529 0.55139,-0.50322 0.85606,-0.71144c1.07448,-0.73441 2.12122,-1.48037 2.2473,-2.93743c0.41687,-0.26382 -0.09245,-0.40011 -0.09279,-0.61843c-0.00067,-0.3101 -0.2737,-0.21121 -0.4636,-0.21121c-1.08314,-0.34584 -2.07149,-0.05672 -3.00868,0.4798c-1.2484,0.71455 -2.39403,1.57726 -3.51124,2.48082c-0.2656,0.21465 -0.49201,0.50455 -0.86127,0.56649c-0.17858,-0.06115 -0.28014,-0.18491 -0.30267,-0.37303c0.01831,-0.20122 0.14406,-0.34284 0.28857,-0.45472c1.25029,-0.9676 2.44231,-2.01733 3.85985,-2.75097c0.3828,-0.04761 0.33286,-0.24684 0.17181,-0.48524c-0.0444,-0.12198 -0.04806,-0.2434 0.0071,-0.36449c0.01987,-0.10866 0.2212,-0.0384 0.18635,-0.17714c-0.01287,-0.05117 -0.12031,-0.03307 -0.18191,-0.05405c-0.29423,-0.38158 -0.70112,-0.61943 -1.10201,-0.86482c-0.26449,-0.38003 -0.50888,-0.18291 -0.75317,0.02531c-0.70766,0.21609 -1.39657,0.47758 -2.05151,0.82609c-0.14262,0.07581 -0.2939,0.16759 -0.47026,0.08446c-0.22131,-0.25638 -0.44251,-0.51277 -0.66371,-0.76915c0.80267,-0.53763 1.6554,-0.98014 2.60535,-1.17426c1.20445,-0.24617 2.44863,-0.19911 3.11812,0.95084c0.4323,0.74285 0.79579,0.8191 1.55895,0.72465c1.61378,-0.19967 2.87572,0.97903 2.79059,2.47449c-0.01865,0.32642 -0.11732,0.64828 -0.18358,0.99601c1.27482,-0.0071 2.42244,0.30233 2.95296,1.59946c0.54629,1.33542 -0.02331,2.42854 -0.97925,3.40103c0.15516,0.06926 0.27248,0.11732 0.38591,0.17281c1.55872,0.76283 2.04053,2.51145 1.10689,3.97317c-0.42642,0.66749 -1.0666,1.05739 -1.73897,1.41766c-3.22655,1.72898 -6.19339,3.80802 -8.80418,6.39384c-1.3252,1.31244 -2.6584,2.62743 -4.17728,3.72545c-0.31754,0.22952 -0.50267,0.51099 -0.62897,0.87237c-1.22343,3.49925 -2.28781,7.05022 -3.44875,10.56956c-0.98713,2.99248 -1.85884,6.03801 -3.32167,8.84158c-0.6858,1.31411 -1.25284,2.64486 -1.708,4.04998c-0.53752,1.65928 -1.33209,3.20313 -2.52721,4.50392c-0.84596,0.92121 -1.83364,1.61932 -3.11645,1.75584c-1.41844,0.15094 -2.8412,0.1454 -4.26596,0.06437c-1.82576,-0.10322 -3.6321,-0.35849 -5.47085,-0.68369c0,0.18535 -0.00388,0.33075 0.00055,0.47614c0.12508,4.06441 0.24595,8.12881 0.3848,12.19322c0.01299,0.3818 -0.0202,0.5383 -0.4767,0.53608c-5.91814,-0.01998 -11.83639,-0.01887 -17.75452,-0.01665c-13.8707,0.00555 -27.74129,0.00333 -41.61187,0.0444c-0.90977,0.00222 -1.40922,-0.25971 -1.76672,-1.07992c-1.54907,-3.54942 -2.16994,-7.26865 -2.1079,-11.11884c0.00366,-0.22864 0.04684,-0.3929 -0.22608,-0.53275c-0.93808,-0.48169 -0.92986,-0.49834 -0.76249,-1.57049c0.01143,-0.07325 0.02264,-0.14651 0.0323,-0.21976c0.83852,-6.33856 1.71133,-12.67158 3.01023,-18.93722c0.607,-2.92821 1.17459,-5.86586 2.22843,-8.67942c1.97638,-5.27751 5.53312,-8.98542 10.83571,-10.99387c3.79748,-1.4383 7.6116,-2.83032 11.4315,-4.20747c0.73341,-0.26438 1.46494,-0.53374 2.21189,-0.80611c-0.82598,-1.16505 -1.61444,-2.27715 -2.40279,-3.38926c0.22342,-0.2626 0.44684,-0.52509 0.67037,-0.78769c0.09612,-0.04484 0.18879,-0.01498 0.24673,0.0545c0.4161,0.49845 0.90056,0.94851 1.13464,1.57781c-0.08801,0.29112 -0.0495,0.48613 0.32309,0.42819c0.40822,0.22719 0.63241,0.59623 0.78669,1.01921c-0.14528,0.39978 0.09478,0.44795 0.39823,0.43863c0.24295,0.13874 0.48657,0.12042 0.74152,0.02364c0.30921,-0.11743 0.62409,-0.22919 0.95051,-0.28191c0.43996,-0.07114 0.63696,-0.29523 0.60733,-0.75128c-0.01598,-0.24628 -0.06915,-0.5202 0.14107,-0.73164c0.16471,0.14806 0.32941,0.29612 0.49401,0.44407c0.24528,0.09745 0.13851,0.30744 0.12975,0.46604c-0.03962,0.71166 -0.19157,1.44652 0.51243,1.96217c-0.23929,0.19234 -0.47869,0.38458 -0.71799,0.57692" fill="#2f201b"/></g><path d="M221.88593,189.89841c0.01343,-0.18391 0.00477,-0.37281 0.04428,-0.55095c0.1273,-0.57392 -0.10943,-0.88425 -0.61965,-1.16793c-1.35895,-0.7555 -2.60035,-1.68869 -3.76252,-2.72455c-4.57506,-4.07817 -7.08219,-9.35157 -8.75012,-15.11333c-0.05572,-0.19212 -0.00899,-0.26171 0.15083,-0.33663c0.14972,-0.07014 0.32453,-0.17059 0.20932,-0.37581c-0.13163,-0.23408 -0.31843,-0.09756 -0.48025,-0.02353c-1.41544,0.64784 -2.82255,0.54218 -4.16163,-0.16437c-2.42466,-1.27926 -3.68371,-3.36673 -3.84032,-6.06486c-0.10233,-1.76483 0.47303,-3.34209 1.97959,-4.40192c3.05851,-2.15163 6.98507,0.42953 7.83669,3.06406c0.87814,2.71611 1.56361,5.49461 2.33365,8.24568c0.03874,0.1384 0.03152,0.30711 0.20444,0.37636c0.12453,-1.15062 -0.01476,-2.27738 0.04994,-3.40202c0.24939,0.06082 0.14129,0.26571 0.14384,0.40411c0.01299,0.72098 0.004,1.4423 0.02042,2.16328c-0.05638,-2.78593 -0.17492,-5.57108 -0.12353,-8.35856c0.002,-0.10844 0.02264,-0.22364 -0.06071,-0.31721c-0.00988,-1.05295 -0.00189,-2.10656 -0.03629,-3.15874c-0.02031,-0.62143 0.07481,-1.211 0.29412,-1.78703c0.32775,-0.86083 0.62176,-1.73597 0.98447,-2.58171c2.50879,-5.84999 6.04866,-11.05669 10.01873,-15.99247c0.02486,-0.03085 0.09079,-0.02875 0.15916,-0.04817c0.11099,2.10945 -0.45894,4.06108 -1.2009,6.00449c2.31989,-0.08557 4.58161,-0.28247 6.83091,-0.62298c4.64698,-0.70356 9.12871,-1.95074 13.31675,-4.12323c2.84209,-1.47415 5.44277,-3.28593 7.50661,-5.77241c0.32109,-0.38691 0.50433,-0.42187 0.88747,-0.11621c3.57273,2.85041 6.12014,6.50183 8.04746,10.57678c1.58603,3.35352 2.61145,6.92691 3.64997,10.48554c1.57271,5.38939 2.24397,10.85014 1.26671,16.42732c-1.53753,8.77399 -6.26365,15.19313 -14.29035,19.11769c-3.26773,1.59779 -6.72713,2.5352 -10.36335,2.78337c-0.37203,0.02542 -0.64784,0.06404 -0.604,0.55916c0.03718,0.42031 -0.03541,0.84917 -0.02253,1.27304c0.00921,0.30289 -0.11521,0.36571 -0.3909,0.37148c-3.25785,0.06737 -6.50682,-0.03807 -9.73903,-0.48014c-2.34774,-0.3212 -4.63866,-0.86871 -6.847,-1.73941c-0.66194,-0.19179 -0.76027,-0.66649 -0.67792,-1.27082c0.05183,-0.38036 0.02642,-0.77115 0.03563,-1.15739" data-paper-data="{&quot;index&quot;:null}" fill="#fbe4db"/><path d="M208.95564,159.04512c-0.31665,-0.29756 -0.38402,-0.70888 -0.48624,-1.09868c-0.71699,-2.73498 -1.02431,-5.50115 -0.79923,-8.33614c0.15993,-2.01456 0.46293,-3.99626 0.92354,-5.9592c0.65561,-2.79381 1.65229,-5.48173 2.53232,-8.20606c0.35727,-1.106 0.73031,-2.21101 0.67936,-3.40524c-0.01865,-0.43508 -0.15339,-0.78236 -0.46515,-1.08247c-1.07359,-1.03342 -2.36484,-1.40101 -3.81779,-1.23752c-1.76128,0.19811 -3.33943,0.90323 -4.84255,1.80412c-0.18435,0.11054 -0.35217,0.2838 -0.60289,0.21565c0.03196,-0.08446 0.04451,-0.1848 0.09878,-0.25083c0.88846,-1.08325 1.76383,-2.17793 2.78748,-3.1422c0.13541,-0.12753 0.34529,-0.22209 0.34329,-0.49001c-0.91621,0 -1.82077,0.00189 -2.72522,-0.00266c-0.10089,-0.00044 -0.23996,0.05816 -0.29456,-0.06937c-0.0475,-0.11088 0.04184,-0.20777 0.10943,-0.29501c1.25795,-1.62265 2.67039,-3.09725 4.28383,-4.36763c2.04042,-1.60667 4.28538,-2.86806 6.66487,-3.90425c3.40447,-1.48248 6.96942,-2.3372 10.6417,-2.79026c0.32187,-0.03973 0.85084,0.13285 0.92354,-0.08468c0.10899,-0.32642 -0.33441,-0.59756 -0.54684,-0.88735c-0.45206,-0.61643 -0.92187,-1.21977 -1.40112,-1.85051c4.52989,-1.08625 10.95913,-0.84496 15.96838,2.44752c-0.38224,-1.55218 -0.73896,-3.04908 -1.12576,-4.53833c-0.10022,-0.38591 0.05017,-0.49856 0.36227,-0.40145c0.53929,0.16781 1.09646,0.10766 1.64252,0.18191c2.67216,0.36327 5.23101,1.07026 7.61871,2.33842c2.32321,1.23386 4.17928,2.95363 5.35964,5.33223c1.01566,2.04663 1.36272,4.23566 1.22476,6.50016c-0.0616,1.01211 -0.08202,1.96994 0.91566,2.59813c0.11554,0.07281 0.1677,0.24007 0.26415,0.3505c1.6696,1.91178 2.91578,4.06363 3.74087,6.46786c0.4929,1.43619 0.79956,2.9119 0.94618,4.41213c0.09356,0.95661 0.01754,1.92976 0.01754,2.90901c-0.20788,-0.04095 -0.2232,-0.16659 -0.27281,-0.25805c-1.66572,-3.06406 -3.64731,-5.89217 -6.19517,-8.29718c-0.56371,-0.53208 -1.18824,-0.98935 -1.81577,-1.44108c-0.2606,-0.18757 -0.44262,-0.22409 -0.70755,0.11543c-1.03652,1.32842 -2.25418,2.49036 -3.60857,3.49148c-4.30558,3.18238 -9.17499,5.05287 -14.37869,6.14844c-1.78137,0.37503 -3.57872,0.63541 -5.38162,0.85872c-1.02054,0.12631 -2.05207,0.16382 -3.07883,0.23907c-0.30167,0.02209 -0.45183,-0.04062 -0.32575,-0.40855c0.34018,-0.99279 0.64729,-2.00146 0.75006,-3.04897c0.10311,-1.05084 0.15616,-2.10923 -0.12475,-3.2311c-1.78026,2.04241 -3.34242,4.13399 -4.82335,6.28396c-2.71811,3.94631 -5.13511,8.06133 -6.78551,12.58323c-0.30034,0.82276 -0.76971,1.63531 -0.61998,2.55185c0.11188,0.68413 0.07791,1.36172 0.0879,2.0423c0.01498,1.01721 -0.07825,2.04363 0.02741,3.05008c0.16859,1.60667 0.00943,3.20802 0.05128,4.82002c-0.39312,-1.18314 -0.71799,-2.38126 -1.07903,-3.5684c-0.4202,-1.38125 -0.607,-2.86284 -1.65917,-3.98349c-0.34029,-0.36249 -0.66804,-0.73674 -1.00156,-1.10556" data-paper-data="{&quot;index&quot;:null}" fill="#542b06"/><path d="M275.88957,189.66301c-0.30899,0.05438 -0.50911,-0.33419 -0.87226,-0.2151c0.16959,0.26981 0.54984,0.25838 0.64429,0.56182c1.90989,1.2726 3.62511,2.79347 5.40593,4.231c0.43019,0.34717 0.85717,0.89845 1.32554,0.94374c0.50289,0.04861 0.97692,-0.51399 1.45517,-0.82309c1.38958,-0.89834 2.69048,-1.96039 4.35508,-2.34852c0.14417,-0.10078 0.29123,-0.14773 0.44728,-0.02386c0.64151,0.01687 1.29635,0.04218 1.78692,0.51832c0.83242,0.80766 0.70167,2.02421 -0.30267,2.7453c-0.46205,0.33175 -0.9777,0.59135 -1.47881,0.86593c-3.21057,1.75873 -6.13412,3.89748 -8.68142,6.53668c-0.03474,0.27004 -0.25261,0.3485 -0.45916,0.43863c-1.25917,1.11144 -2.44885,2.30446 -3.83588,3.26573c-0.16404,0.11365 -0.20144,0.29845 -0.26604,0.47148c-0.85017,2.27727 -1.55318,4.60359 -2.30523,6.9136c-0.67814,2.08281 -1.31344,4.18017 -2.02466,6.25144c-0.97825,2.84941 -1.85451,5.74622 -3.522,8.30451c-0.01398,0.25971 -0.14739,0.43508 -0.38202,0.5383c-1.17592,1.52942 -2.5483,2.82799 -4.31324,3.66374c-1.30001,0.47281 -2.63265,0.69701 -4.02101,0.58158c-0.31976,-0.02664 -0.44051,-0.1343 -0.49379,-0.44617c-0.23629,-1.38736 -0.38591,-2.78138 -0.44074,-4.1876c-0.17203,-4.40958 0.16859,-8.79319 0.70089,-13.16448c0.09689,-0.79557 0.10366,-1.607 0.47492,-2.37105c1.83609,-3.77794 3.63499,-7.57387 5.45609,-11.35914c0.26049,-0.54129 0.46859,-1.05051 0.18435,-1.66572c-0.13374,-0.28946 -0.12264,-0.64939 -0.1596,-0.97936c-0.18313,-1.63786 -0.1141,-3.28704 -0.2151,-4.92878c-0.08413,-1.37004 -0.2646,-2.70957 -0.88724,-3.96796c-0.38879,-0.78602 -0.57803,-1.63464 -0.34373,-2.52555c0.28802,-1.09535 1.14651,-1.45351 2.12155,-0.87004c0.63441,0.37958 1.08536,0.9393 1.47326,1.55484c0.72176,1.1454 1.23242,2.38881 1.68769,3.65708c0.06881,0.19168 0.12298,0.37714 0.29246,0.51943c1.24707,1.04685 2.19647,2.33631 3.02267,3.72633c0.09423,0.15838 0.16227,0.44928 0.42686,0.3121c0.30722,-0.15938 0.08091,-0.37703 -0.02198,-0.55539c-0.79856,-1.38458 -1.73864,-2.65929 -2.9493,-3.71546c-0.35927,-0.31332 -0.46882,-0.58513 -0.11931,-1.01177c1.06915,-1.30523 2.20879,-2.53432 3.51257,-3.61113c2.01,-1.66028 4.09559,-3.21445 6.31359,-4.58749c0.82331,-0.407 1.62743,-0.86271 2.55363,-1.00989c0.26271,-0.15794 0.52209,-0.17514 0.77681,0.01787c0.46615,0.17381 0.88047,0.41221 1.10545,0.88669c0.06371,0.06615 0.07592,0.13885 0.02741,0.21898c-0.00455,0.14684 -0.00899,0.29379 -0.01343,0.44063c0.07791,0.25339 -0.02508,0.4272 -0.24207,0.55106c-1.45229,0.91588 -2.83665,1.92266 -4.1138,3.07294c-0.60222,0.71455 -1.28436,1.33686 -2.09236,1.81411c-0.38114,0.18957 -0.5707,0.62842 -0.99357,0.76371" data-paper-data="{&quot;index&quot;:null}" fill="#fbe4db"/><path d="M208.95564,159.04512c-0.2232,-0.00411 -0.37237,-0.16693 -0.52731,-0.28313c-0.64817,-0.48602 -1.37548,-0.77337 -2.15906,-0.94351c-3.19115,-0.69268 -5.7632,1.52376 -6.06253,4.56186c-0.25294,2.56717 0.66205,4.74943 2.55507,6.49528c1.40933,1.29979 3.09381,1.83875 4.99427,1.55484c0.41576,-0.06215 0.56016,0.0141 0.66993,0.38824c0.56127,1.91122 1.23775,3.77817 2.04519,5.60326c1.24929,2.82377 2.89703,5.38473 4.95986,7.66998c1.57637,1.74641 3.39326,3.22433 5.43079,4.40681c0.41865,0.24295 0.59978,0.49934 0.53008,0.95561c-0.00921,1.36483 -0.00932,1.36461 -1.29257,1.77948c-0.15705,0.05083 -0.3242,0.08357 -0.46782,0.16016c-0.31909,0.17015 -0.57503,0.10866 -0.79523,-0.16382c-0.20566,-0.07692 -0.28524,-0.24839 -0.3333,-0.44362c-0.24295,-0.3454 -0.44917,-0.71932 -0.77659,-0.99901c-0.22653,-0.06127 -0.31676,-0.22497 -0.33352,-0.44384c-0.40589,-0.58558 -0.80134,-1.17959 -1.33075,-1.66649c0.00033,-0.14107 -0.0879,-0.2333 -0.16904,-0.33696c-0.64629,-0.82564 -1.28414,-1.65795 -1.93231,-2.48215c-0.1505,-0.19157 -0.22309,-0.46926 -0.54296,-0.53896c-0.04306,1.21954 -0.13019,2.41334 -0.28602,3.74365c-1.72277,-2.86673 -3.37306,-5.61292 -5.11114,-8.50517c-0.32475,1.16616 -0.60189,2.16173 -0.89901,3.22877c-0.09112,-0.1283 -0.1434,-0.19723 -0.1909,-0.26937c-1.104,-1.67959 -2.14563,-3.39692 -3.13732,-5.14543c-1.46816,-2.5887 -2.83831,-5.23134 -3.90336,-8.00828c-1.11422,-2.90524 -2.13076,-5.84844 -2.77361,-8.90839c-0.59101,-2.81356 -0.98081,-5.6471 -1.0282,-8.52182c-0.02797,-1.69513 0.00078,-3.38704 0.20033,-5.07884c0.17259,-1.46228 0.39623,-2.91334 0.74618,-4.33821c0.67126,-2.73232 1.62976,-5.36142 3.05707,-7.79984c0.603,-1.03009 1.18336,-2.07793 1.98514,-2.97661c1.6009,-1.05006 3.28793,-1.86539 5.21769,-2.14019c1.69546,-0.24151 3.12999,0.17925 4.32456,1.413c0.23274,0.24029 0.32165,0.50922 0.34429,0.84285c0.08158,1.20889 -0.26216,2.3362 -0.63108,3.4563c-1.41011,4.28139 -2.95474,8.52171 -3.40624,13.05937c-0.1869,1.87815 -0.24972,3.74753 -0.05716,5.61814c0.17725,1.72055 0.54629,3.40902 1.08658,5.05609" data-paper-data="{&quot;index&quot;:null}" fill="#3b0d00"/><path d="M252.34355,228.6369c-0.16193,-0.16648 -0.12986,-0.37292 -0.11754,-0.57492c0.08302,-1.36294 0.12597,-2.7281 0.18779,-4.09215c0.03529,-0.78025 -0.1283,-1.54718 -0.1131,-2.32299c0.02708,-1.38869 -0.1252,-2.76739 -0.26515,-4.14332c-0.3515,-3.45519 -0.92287,-6.87453 -1.816,-10.23604c-0.00966,-0.1727 -0.04939,-0.33896 -0.09101,-0.50566c-0.02209,-0.15649 -0.08868,-0.28957 -0.203,-0.39812c-0.90689,-1.14729 -1.88126,-2.23997 -2.76184,-3.40891c-0.10433,-0.24617 -0.24517,-0.45905 -0.50855,-0.56016c-0.12142,-0.04395 -0.204,-0.12719 -0.24906,-0.24806c-0.1454,-0.32386 -0.44684,-0.50888 -0.67403,-0.76016c-0.35749,-0.31676 -0.62309,-0.73763 -1.07082,-0.95317c-0.09423,-0.04595 -0.17925,-0.10433 -0.2475,-0.18513c-0.15527,-0.25139 -0.35949,-0.43707 -0.65972,-0.49212c-0.08513,-0.03441 -0.16382,-0.0818 -0.23918,-0.13541c-1.61489,-1.14907 -1.61821,-1.14962 -1.32776,-3.13299c0.03552,-0.2424 -0.04473,-0.53008 0.21421,-0.70866c1.16904,0.44962 2.32566,0.93619 3.51057,1.3393c1.38414,0.47092 2.53398,1.26527 3.51546,2.32555c1.96583,2.12377 3.23665,4.65431 4.23766,7.33347c0.15305,0.40966 0.37092,0.62509 0.77514,0.75894c1.68348,0.55772 3.30657,1.2666 4.9158,2.00956c0.36105,0.1667 0.53108,0.33086 0.32153,0.7444c-0.18224,0.3596 -0.29534,0.7545 -0.4353,1.13519c-0.03774,0.10266 -0.06138,0.27925 -0.16892,0.25383c-0.40267,-0.09512 -0.35461,0.22686 -0.41288,0.42442c-0.34673,1.17493 -0.40555,2.39591 -0.56404,3.60136c-0.43097,3.27938 -0.66083,6.57452 -0.71033,9.87977c-0.03984,2.65929 0.1202,5.31192 0.64174,7.93014c-0.0061,0.30078 -0.26704,0.31965 -0.45861,0.39512c-1.51022,0.59157 -3.05974,1.06438 -4.63045,1.46394c-0.22553,0.0566 -0.55339,0.27081 -0.66793,-0.1798c-0.17281,-1.4484 -0.36782,-2.89347 -0.13052,-4.35631c0.11798,-0.72698 0.20489,-1.46061 0.20333,-2.20091" data-paper-data="{&quot;index&quot;:null}" fill="#ee4f0a"/><path d="M243.90697,199.67052c0.23141,0.12686 0.39845,0.32298 0.56182,0.52287c0.07192,0.04784 0.14384,0.09567 0.21565,0.1434c0.38935,0.26915 0.68857,0.63508 1.02787,0.95783c0.23596,0.28324 0.57048,0.47725 0.74107,0.81954c0.0778,0.07814 0.15572,0.15627 0.23352,0.2343c0.24806,0.13063 0.44584,0.30844 0.54384,0.57992c0.93386,1.12232 1.86783,2.24463 2.80169,3.36695c-0.02553,0.05006 -0.06426,0.08468 -0.11842,0.10122c-0.18457,0.03141 -0.29967,-0.08457 -0.41599,-0.19745c-0.31443,-0.36027 -0.61854,-0.72964 -0.97304,-1.05217c-0.25305,-0.36682 -0.5676,-0.67792 -0.88502,-0.98658c-0.77182,-0.74396 -1.53952,-1.49213 -2.26483,-2.28248c-0.28002,-0.25161 -0.53918,-0.52642 -0.83719,-0.7585c-0.1232,-0.08635 -0.24007,-0.18047 -0.34828,-0.28513c-0.08957,-0.08757 -0.18047,-0.1737 -0.27259,-0.25838c-0.47348,-0.38114 -0.93641,-0.77614 -1.4423,-1.11644c-0.27847,-0.18724 -0.45972,-0.19634 -0.52797,0.19712c-0.05971,0.34462 -0.16737,0.68014 -0.24673,1.02121c-0.03463,0.12819 -0.07647,0.2545 -0.11399,0.3818c-0.73197,2.42133 -1.76994,4.69304 -3.28837,6.73035c-0.11532,0.17303 -0.26227,0.31987 -0.39412,0.47925c-0.2303,0.29456 -0.44074,0.60422 -0.68513,0.88747c-0.1687,0.15427 -0.30966,0.34007 -0.51654,0.45028c-0.07436,0.02719 -0.15072,0.03496 -0.22897,0.02275c-0.35849,-0.10766 -0.52553,-0.46316 -0.8292,-0.64129c-0.20932,-0.14018 -0.37958,-0.32442 -0.56038,-0.49656c-0.21598,-0.21043 -0.40966,-0.4454 -0.6626,-0.61643c-0.20977,-0.13929 -0.37947,-0.32409 -0.5606,-0.49568c-0.21365,-0.20777 -0.40511,-0.43963 -0.65383,-0.60977c-0.16648,-0.11221 -0.31121,-0.24984 -0.45405,-0.38946c-0.17725,-0.17525 -0.34085,-0.36571 -0.55139,-0.50489c-0.14584,-0.09512 -0.26482,-0.21898 -0.37559,-0.35172c-0.25172,-0.22386 -0.48646,-0.46748 -0.76016,-0.66604c-0.40111,-0.40777 -0.87226,-0.73452 -1.29335,-1.1191c-0.1909,-0.19512 -0.37281,-0.40045 -0.60356,-0.55172c-0.9737,-0.85372 -1.92843,-1.72965 -2.93587,-2.54464c-0.19234,-0.19368 -0.37492,-0.39767 -0.59568,-0.56105c-0.34784,-0.3131 -0.71688,-0.60067 -1.07992,-0.89523c-0.18924,-0.19023 -0.36937,-0.39001 -0.58691,-0.54984c-0.29756,-0.25339 -0.59157,-0.51121 -0.89002,-0.76371c-0.19623,-0.13796 -0.34717,-0.44551 -0.65439,-0.18013c-1.62598,1.1393 -3.27161,2.2463 -4.74221,3.60125c-0.42264,0.38946 -0.80167,0.84984 -1.30001,1.16216c-0.5272,0.35827 -0.9545,0.81776 -1.33808,1.32143c-0.08768,0.16748 -0.24939,0.26759 -0.36937,0.40389c-0.96782,1.10001 -1.86861,2.23964 -2.04818,3.7684c-0.00977,0.05749 -0.02386,0.11476 -0.04462,0.16937c-0.08935,0.92542 -0.1636,1.85284 -0.13285,2.78493c-0.00877,0.43352 -0.01565,0.86738 0.00344,1.30112c0.0071,0.39856 0.00111,0.79712 0.00067,1.19579c-0.01287,0.35472 -0.04861,0.71077 0.0646,1.05739c0.04539,0.68136 0.09212,1.3625 0.15439,2.04241c-0.02397,0.25805 -0.00777,0.51232 0.0707,0.76038c0.28557,2.44441 0.5565,4.89094 0.89401,7.32825c0.06415,0.46504 0.12975,0.94784 -0.02475,1.41622c-0.19756,0.12209 -0.39112,0.11765 -0.58025,-0.01887c-0.26626,-0.50944 -0.22309,-1.07548 -0.29157,-1.61821c-0.30833,-2.44619 -0.60888,-4.89349 -0.83996,-7.34856c0.02642,-0.26182 0.00666,-0.5192 -0.07159,-0.77082c-0.0364,-0.18113 -0.01487,-0.36948 -0.04784,-0.54817c-0.1677,-0.90778 -0.001,-1.83586 -0.17281,-2.74253c-0.05816,-0.90478 -0.03862,-1.80967 -0.00899,-2.71523c0.11177,-0.3404 0.08624,-0.69224 0.10422,-1.04163c0.05905,-1.14762 0.2111,-2.26406 0.79091,-3.30047c0.94973,-1.69746 2.21578,-3.12089 3.64642,-4.41491c0.25206,-0.15094 0.44506,-0.36793 0.64862,-0.57303c1.51566,-1.24374 3.07905,-2.42333 4.70836,-3.51446c0.57281,-0.38358 0.57248,-0.38391 0.05871,-0.82853c-0.17447,-0.16859 -0.37459,-0.30777 -0.54063,-0.48558c-0.11132,-0.11809 -0.22564,-0.23252 -0.36438,-0.31876c-0.15805,-0.09956 -0.28924,-0.23075 -0.42109,-0.36105c-0.10999,-0.11621 -0.22453,-0.22708 -0.36216,-0.31055c-0.11987,-0.07625 -0.2283,-0.16704 -0.32997,-0.26604c-0.13407,-0.13341 -0.26338,-0.27214 -0.42253,-0.37736c-0.11743,-0.07913 -0.22697,-0.16781 -0.32753,-0.2677c-0.11066,-0.11443 -0.22364,-0.22619 -0.36094,-0.30933c-0.15749,-0.09778 -0.28691,-0.22864 -0.41787,-0.35749c-0.11021,-0.11676 -0.22608,-0.22686 -0.3636,-0.31121c-0.10056,-0.06604 -0.19534,-0.13929 -0.27314,-0.23208c-0.04595,-0.05993 -0.07758,-0.12442 -0.06659,-0.20322c0.5121,-0.2101 1.0242,-0.42031 1.53631,-0.63042c0.15594,-0.13896 0.33607,-0.19734 0.54396,-0.16271c0.54151,-0.15871 1.08725,-0.30433 1.62288,-0.4808c0.37314,-0.12298 0.46282,0.09157 0.35117,0.33974c-0.24795,0.5505 0.10699,0.79457 0.44884,1.06815c0.08324,0.097 0.15938,0.20122 0.25061,0.29001c4.15653,4.04076 8.59285,7.74035 13.4,10.98788c0.73241,0.49479 0.74718,0.50766 1.27337,-0.19101c1.94208,-2.57871 3.14986,-5.44377 3.32544,-8.69785c0.01643,-0.30378 0.04329,-0.43829 0.39401,-0.28813c0.64185,0.27481 1.32409,0.45106 1.94763,0.77448c-0.08546,0.72831 -0.16826,1.45695 -0.25827,2.1847c-0.02508,0.202 -0.08357,0.45727 0.09767,0.55972c0.59113,0.33408 1.04585,0.86116 1.66638,1.14718" data-paper-data="{&quot;index&quot;:null}" fill="#fefefe"/><path d="M223.45919,193.54639c2.05595,0.60467 4.13255,1.04585 6.2501,1.28525c1.34885,0.15239 2.70202,0.36349 4.05386,0.36826c1.6171,0.00555 3.22877,0.27825 4.85509,0.04484c0.77115,-0.11066 0.88624,0.09956 0.72686,0.88491c-0.24196,1.19213 -0.54995,2.36894 -0.98769,3.50336c-0.51898,1.34518 -1.16194,2.62632 -2.08215,3.75708c-0.20866,0.25638 -0.34795,0.24739 -0.58236,0.08557c-1.90778,-1.31766 -3.78838,-2.67216 -5.58439,-4.13966c-1.28103,-1.04673 -2.56506,-2.09092 -3.81501,-3.17405c-0.97104,-0.84152 -1.89147,-1.74152 -2.83432,-2.61556" data-paper-data="{&quot;index&quot;:null}" fill="#3f2e2f"/><path d="M258.02772,233.51485c0.16038,1.07992 0.80123,1.7403 1.81633,2.06439c0.51499,0.16315 1.0494,0.17647 1.58525,0.15094c0.07103,-0.15316 0.40411,0.13097 0.36016,-0.21532c-0.57514,0.00444 -1.13131,-0.12431 -1.68181,-0.26526c-0.66571,-0.16981 -1.13553,-0.58713 -1.39146,-1.22864c-0.05205,-0.13097 -0.18968,-0.27192 -0.09834,-0.40844c0.09634,-0.1454 0.26737,-0.04773 0.40788,-0.03663c1.34019,0.09767 2.63642,-0.0788 3.87339,-0.62265c1.67582,-0.61044 2.93276,-1.79136 4.19215,-3.21312c-0.13074,0.4495 -0.21143,0.72587 -0.29212,1.00334c0.05572,0.17647 0.00899,0.31965 -0.14306,0.42731c-0.67104,1.48059 -1.34663,2.96007 -2.54075,4.11879c-0.05705,0.22309 -0.18924,0.35627 -0.43041,0.3596c-0.7878,0.53497 -1.65773,0.7292 -2.60857,0.77359c-1.07248,0.04884 -2.14008,0.02997 -3.20602,-0.03663c-1.76816,-0.10988 -3.51579,-0.38846 -5.2501,-0.7525c-0.26659,-0.0566 -0.40622,-0.15427 -0.34961,-0.43952c0.17547,0.2475 0.40311,0.10433 0.59579,0.05549c0.64096,-0.16204 1.28525,-0.31965 1.91056,-0.53164c1.09413,-0.37181 2.22488,-0.64706 3.25075,-1.20312" data-paper-data="{&quot;index&quot;:null}" fill="#e24905"/><path d="M213.0802,167.25861c-0.00666,-2.03609 -0.01332,-4.07229 -0.01998,-6.10837c0.17403,0.14229 0.1121,0.34051 0.1131,0.51765c0.00544,0.92409 -0.01077,1.84863 0.00688,2.7725c0.01532,0.809 -0.00122,1.61511 0.08047,2.42821c0.10022,0.99701 0.02386,2.01167 0.02386,3.01867c-0.10788,-0.27581 -0.09079,-0.55195 -0.11132,-0.8252c-0.04528,-0.60056 0.11732,-1.21189 -0.09301,-1.80345" data-paper-data="{&quot;index&quot;:null}" fill="#fae6e0"/><path d="M261.4293,235.73019c0.08624,-0.12875 0.30111,-0.04107 0.36016,-0.21532c0.13618,0.01554 0.31277,-0.06659 0.42442,0.21532c-0.29889,0 -0.54174,0 -0.78458,0" data-paper-data="{&quot;index&quot;:null}" fill="#b6673e"/><path d="M244.04803,200.54678c0.02886,0.11754 0.07847,0.20944 0.22453,0.18335c0.10644,0.09822 0.21277,0.19656 0.3192,0.29479c0.26016,0.2737 0.46138,0.61343 0.84229,0.75184c0.76083,0.75661 1.52177,1.51322 2.28259,2.26983c0.17181,0.44806 0.61765,0.66982 0.86915,1.05206c0.42342,0.26071 0.72165,0.64174 0.9999,1.04185c0.07547,0.29412 0.37159,0.37747 0.54784,0.57414c0.03085,0.0434 0.05339,0.09134 0.06493,0.14318c0.04717,0.16937 0.08346,0.34185 0.10943,0.51576c0.53175,2.14497 0.92664,4.31668 1.21599,6.50738c0.25838,1.95673 0.46127,3.91823 0.58547,5.88984c0.09168,1.45428 0.14162,2.91046 0.16926,4.36441c0.02064,1.08214 -0.07026,2.17205 -0.1131,3.25863c-0.0192,0.48613 0.00189,1.00223 -0.24762,1.4595c-0.04129,0.37514 -0.07059,0.7525 -0.12619,1.12543c-0.16326,1.09768 -0.25705,2.19536 -0.24162,3.30857c0.03208,2.32632 0.02719,4.65486 0.0374,6.9823c0.08069,0.17647 0.04195,0.36404 0.04229,0.54606c0.00322,1.7514 -0.00311,3.5028 0.00555,5.25531c0.00222,0.43952 -0.05816,0.88236 0.04184,1.31966c0.00011,0.47836 0.00011,0.95561 0.00022,1.43397c-0.18735,0.11987 -0.39579,0.05882 -0.59312,0.05993c-4.49804,0.00333 -8.99608,0.00222 -13.49578,0.00333c-0.37803,-0.02331 -0.24895,-0.1909 -0.0697,-0.30633c0.37148,-0.23863 0.76438,-0.44506 1.1484,-0.66371c1.2201,-0.69812 2.39835,-1.45839 3.38182,-2.47394c0.64151,-0.66149 1.12221,-1.41289 1.06727,-2.40179c-0.05194,-0.93563 -0.52364,-1.66705 -1.07082,-2.37738c-0.4394,-0.57048 -0.98813,-1.03663 -1.45673,-1.57493c-0.01865,-0.05882 -0.03097,-0.11987 -0.03452,-0.18202c-0.02031,-0.64373 -0.02075,-1.28858 -0.004,-1.93342c0.01432,-0.54939 -0.09345,-1.10545 0.08313,-1.64596c0.13818,-0.17425 0.32853,-0.16981 0.5232,-0.15316c0.28125,0.06215 0.56094,0.14761 0.84707,0.02331c0.16504,-0.19201 0.13696,-0.40067 0.05205,-0.61488c-0.03663,-0.02775 -0.07525,-0.05216 -0.11421,-0.07658c-0.15927,-0.08657 -0.36826,-0.06881 -0.48602,-0.23974c-0.17958,-0.28191 -0.42808,-0.04994 -0.63918,-0.08768c-0.47181,-0.05771 -0.93364,-0.18646 -1.41932,-0.16981c-0.37115,0.01221 -0.53275,0.15649 -0.52986,0.53053c0.00544,0.71699 0.00644,1.43397 -0.00144,2.15096c-0.00311,0.27303 0.04107,0.55605 -0.12697,0.80245c-0.05683,0.04884 -0.11521,0.04994 -0.1747,0.00555c-0.03307,-0.05993 -0.0444,-0.12431 -0.03341,-0.19201c0.02442,-1.07215 -0.01088,-2.14541 0.01199,-3.21756c-0.00888,1.03108 -0.00599,2.06328 -0.00832,3.09547c-0.09356,0.2808 -0.28236,0.16093 -0.42975,0.08213c-0.2525,-0.1343 -0.505,-0.27636 -0.68025,-0.5161c-0.16482,-0.4939 -0.03929,-1.06105 -0.38136,-1.50945c-0.16293,-0.14318 -0.25949,-0.32742 -0.32342,-0.53164c-0.05738,-0.18868 -0.14473,-0.34739 -0.37359,-0.35627c-0.19179,-0.04773 -0.34995,-0.14318 -0.45161,-0.31965c-0.15416,-0.23308 -0.35361,-0.08546 -0.53796,-0.06548c-0.69701,-0.01998 -1.35306,0.14651 -1.98037,0.43952c-1.23997,-0.1687 -2.3857,-0.63597 -3.52988,-1.10878c-0.11465,-0.11876 -0.23152,-0.2353 -0.34362,-0.35738c-1.25606,-1.36072 -2.62555,-2.58604 -4.22068,-3.54276c-0.24651,0.03552 -0.41532,-0.12764 -0.60234,-0.23974c-1.04707,-0.63042 -2.14097,-1.16205 -3.27994,-1.60601c-2.33198,-0.91122 -4.75231,-1.36072 -7.24878,-1.43508c-0.19723,-0.00555 -0.41499,0.02664 -0.55172,-0.17758c-0.10244,-0.81244 -0.21687,-1.62376 -0.30389,-2.43731c-0.09467,-0.88569 -0.09556,-1.78803 -0.26093,-2.65862c-0.22664,-1.19457 -0.3252,-2.39747 -0.43175,-3.60258c-0.0848,-0.22786 0.01865,-0.4757 -0.0747,-0.70267c-0.08258,-0.68491 -0.15971,-1.37027 -0.14651,-2.06195c-0.09379,-0.34307 0.02275,-0.70067 -0.07192,-1.04363c-0.00588,-0.4111 -0.01176,-0.8222 -0.01765,-1.2332c0.08491,-0.44129 0.09423,-0.88236 -0.00444,-1.32298c-0.0323,-0.97848 0.01476,-1.95118 0.21132,-2.91312c0.08291,0.04706 0.04206,0.14107 0.07836,0.20577c-0.02519,-0.08135 0.00089,-0.16804 -0.03285,-0.25072c-0.02753,-0.06759 -0.0121,0.03108 -0.03541,-0.03907c0.11343,-1.27826 0.85506,-2.25052 1.55706,-3.24953c0.26193,-0.3727 0.68502,-0.57958 0.91022,-0.97659c0.46637,-0.40156 0.90056,-0.8353 1.30168,-1.30201c0.10921,-0.01987 0.2454,-0.0313 0.28424,-0.1414c0.2202,-0.62387 0.83242,-0.87026 1.27182,-1.25561c1.42332,-1.24785 2.95385,-2.36672 4.55742,-3.37938c0.29534,-0.12198 0.50078,0.08946 0.73408,0.19767c0.34096,0.23629 0.66138,0.49612 0.93452,0.81055c0.1788,0.17081 0.2697,0.44817 0.57104,0.47026c0.33852,0.3535 0.7979,0.57093 1.0939,0.97215c0.17836,0.17159 0.26992,0.44828 0.57093,0.47115c0.99357,0.87814 1.98714,1.75628 2.9806,2.63432c0.17625,0.17536 0.27181,0.4474 0.57048,0.47603c0.41343,0.42375 0.94418,0.71765 1.31499,1.18858c0.22142,0.23985 0.39279,0.53685 0.73208,0.6424c0.12653,0.11776 0.25317,0.23563 0.37969,0.3535c0.17092,0.20255 0.3101,0.44196 0.59545,0.51121c0.13452,0.12664 0.26904,0.25339 0.40355,0.38003c0.21099,0.21421 0.34728,0.51499 0.6808,0.58735c0.18013,0.17325 0.36038,0.34662 0.54063,0.51998c0.20877,0.23729 0.37681,0.52098 0.706,0.62165c0.17126,0.16338 0.34251,0.32686 0.51377,0.49024c0.2353,0.24318 0.39778,0.56926 0.76094,0.66649c0.07458,-0.01521 0.14917,-0.03041 0.22375,-0.04551c0.22209,-0.08613 0.36737,-0.24251 0.43263,-0.47237c0.2919,-0.21776 0.35727,-0.63497 0.70644,-0.80245c0.11043,-0.15794 0.34462,-0.23208 0.32431,-0.47858c0.36837,-0.5656 0.74962,-1.12332 1.10245,-1.69846c0.97692,-1.59224 1.63786,-3.32511 2.23187,-5.08639c0.0677,-0.09578 0.1717,-0.18113 0.09345,-0.31965c0.12187,-0.54884 0.24384,-1.09757 0.3717,-1.6736c0.77093,0.47148 1.47726,0.94729 2.08692,1.55384" data-paper-data="{&quot;index&quot;:null}" fill="#ee4f0a"/><path d="M213.07176,225.95097c-0.39812,0.29523 -0.86838,0.27747 -1.32365,0.2808c-0.60844,0.00444 -0.71865,-0.14096 -0.62598,-0.73696c0.16149,-1.03885 0.43652,-2.05995 0.47248,-3.11767c0.00144,-0.04218 0.01865,-0.05438 0.04084,-0.03774c0.05882,0.04551 -0.00866,-0.07214 -0.04584,-0.00333c-0.02464,0.19312 -0.02963,0.38846 -0.06781,0.57936c-0.82209,4.11435 -1.56572,8.24424 -2.36339,12.36414c-0.03796,0.19645 -0.03874,0.41066 -0.2202,0.55161c-0.21887,1.111 -0.45894,2.21977 -0.64607,3.33632c-0.07281,0.43508 -0.24473,0.58935 -0.68092,0.55605c-0.69412,-0.05216 -1.3918,-0.05771 -2.08803,-0.08324c-0.15261,0.12764 -0.30022,0.06992 -0.44717,-0.01221c-3.33488,-0.37292 -6.65466,-0.84351 -9.93393,-1.56827c-1.89047,-0.41732 -3.76962,-0.87348 -5.5774,-1.58825c-0.41066,-0.16204 -0.55849,-0.36182 -0.47337,-0.81355c0.1394,-0.7414 0.2091,-1.49613 0.3081,-2.24419c-0.11998,-0.1576 -0.06826,-0.30633 0.0263,-0.45172c0.27558,-1.29857 0.38813,-2.62155 0.57992,-3.93344c0.80289,-5.49061 1.74874,-10.95547 2.98437,-16.36717c0.44373,-1.94352 1.01555,-3.84809 1.81544,-5.67996c1.3767,-3.15241 3.52267,-5.64721 6.39583,-7.52592c0.13818,-0.18546 0.29001,-0.34862 0.54962,-0.33441c0.18213,-0.08735 0.36604,-0.17126 0.54618,-0.2626c1.86283,-0.94462 3.8038,-1.70401 5.75831,-2.43132c0.59767,-0.21288 1.20401,-0.07048 1.80856,-0.05006c1.0141,0.0343 2.02932,-0.03474 3.04386,0.04662c1.43653,0.11521 2.87305,0.07203 4.31235,0.01188c1.32443,-0.05538 2.64808,-0.18158 3.97639,-0.12064c0.13197,0.04573 0.27525,0.05683 0.39723,0.13208c0.74396,0.53197 0.74385,0.53186 -0.01576,1.04829c-1.63009,1.10844 -3.21235,2.28026 -4.71824,3.55341c-0.29667,0.0313 -0.39379,0.30078 -0.56937,0.4767c-0.89923,0.91288 -1.81444,1.80934 -2.61722,2.81378c-1.12709,1.41044 -1.80545,2.98204 -1.83564,4.80881c-0.00555,0.33008 -0.05683,0.65938 -0.0869,0.98902c-0.13219,-0.19767 -0.04118,-0.40877 -0.07492,-0.57581c0.00022,1.49679 -0.00011,3.03243 0.00022,4.50037c0.04717,-0.32575 -0.07547,-0.72254 0.07259,-1.11211c0.07403,1.11022 0.14817,2.22055 0.2222,3.33077c0.09001,0.22431 -0.01365,0.46915 0.07325,0.69379c0.06282,0.56649 0.12353,1.13319 0.18868,1.69946c0.27903,2.42599 0.55927,4.8522 0.83907,7.27731" data-paper-data="{&quot;index&quot;:null}" fill="#ee4f0a"/><path d="M217.61253,248.60154c-0.21865,0.15538 -0.42464,0.03108 -0.62908,-0.03441c-0.73774,-0.23863 -1.47115,-0.49168 -2.20879,-0.73142c-0.12786,-0.04994 -0.25849,-0.09212 -0.38835,-0.13541c-0.18025,-0.06437 -0.36071,-0.12764 -0.54529,-0.17758c-1.50778,-0.55938 -3.04031,-1.04662 -4.56474,-1.55828c-0.20622,-0.06881 -0.43841,-0.10877 -0.54251,-0.34406c-0.14595,-0.44839 -0.29179,-0.89679 -0.43774,-1.34518c-0.13641,-0.11987 -0.19301,-0.26082 -0.11399,-0.43619c-0.04917,-0.43286 -0.15427,-0.85128 -0.31632,-1.25528c-0.17114,-0.14318 -0.20844,-0.31743 -0.12442,-0.52054c-0.12187,-0.61155 -0.24384,-1.2231 -0.37792,-1.89569c0.30611,0 0.58036,0.00222 0.8545,0c0.22664,-0.00222 0.37781,-0.07658 0.42153,-0.3363c0.21732,-1.28969 0.44806,-2.57716 0.67403,-3.86574c-0.0323,-0.84129 0.02919,-1.64596 0.84251,-2.15651c0.202,-0.15427 0.42498,-0.28191 0.5959,-0.47503c0.05316,-0.05438 0.11232,-0.10211 0.18013,-0.13763c0.22542,-0.10766 0.4373,-0.2353 0.604,-0.4262c0.05405,-0.05438 0.11454,-0.09989 0.18391,-0.1343c0.4091,-0.15427 0.73585,-0.44728 1.11155,-0.65705c0.21776,-0.1121 0.40566,-0.27969 0.64862,-0.34295c0.1656,-0.03774 0.32886,-0.01221 0.49379,0.01332c2.65085,0.40622 5.11747,1.3918 7.57686,2.40068c0.34806,0.14318 0.54817,0.41621 0.69035,0.7525c0.25827,0.61155 0.50089,1.22864 0.73308,1.85018c0.09911,0.30633 0.19601,0.61266 0.31432,0.91122c0.25694,0.8979 0.50777,1.80024 0.65128,2.72255c0.06171,0.39623 0.30056,0.81244 0.02719,1.22531c0.01243,0.16426 0.00855,0.33297 0.04007,0.4939c0.11465,0.58713 -0.04695,1.01888 -0.51377,1.44618c-1.92366,1.75917 -3.76973,3.60491 -5.88073,5.14987" data-paper-data="{&quot;index&quot;:null}" fill="#fefefe"/><path d="M198.47043,248.89122c-1.88647,0 -3.77317,-0.01221 -5.65942,0.00999c-0.37603,0.00444 -0.56227,-0.12542 -0.71743,-0.44839c-0.65861,-1.37404 -1.09912,-2.81911 -1.38037,-4.30747c-0.3838,-2.02998 -0.78702,-4.0633 -0.62109,-6.15321c0.02642,-0.33297 0.09401,-0.38957 0.42653,-0.28191c1.69113,0.54384 3.43499,0.86238 5.18495,1.14762c2.20668,0.36071 4.42312,0.64817 6.644,0.90456c0.22509,0.02664 0.42708,0.01221 0.49346,0.36848c0.51177,2.7392 1.04118,5.47618 1.61289,8.20428c0.1121,0.53497 -0.04895,0.56937 -0.49057,0.56382c-1.83087,-0.01887 -3.66196,-0.00777 -5.49294,-0.00777" data-paper-data="{&quot;index&quot;:null}" fill="#fbe4db"/><path d="M232.94162,245.07876c-0.17436,0.37514 -0.53519,0.56382 -0.82798,0.82021c-0.17303,0.16981 -0.36105,0.31965 -0.56049,0.45616c-0.14617,0.12098 -0.304,0.22753 -0.45616,0.34074c-0.1808,0.16204 -0.37925,0.29301 -0.61754,0.35516c-0.26116,0.23197 -0.44751,0.20533 -0.71643,-0.06104c-1.41721,-1.40512 -2.8786,-2.77916 -4.64676,-3.727c-0.69124,-0.3707 -1.04451,-0.76804 -0.96682,-1.53386c-0.26016,-1.42398 -0.50566,-2.85019 -0.9393,-4.23644c-0.08502,-0.29634 -0.18136,-0.58935 -0.30799,-0.87126c-0.19689,-0.61266 -0.43763,-1.21089 -0.70178,-1.7958c-0.15561,-0.34406 -0.06004,-0.55161 0.21166,-0.75028c0.7434,-0.54273 1.44829,-1.13763 2.1978,-1.6726c0.35683,-0.25416 0.66072,-0.59046 1.09346,-0.73253c0.24928,0.00222 0.45883,0.15094 0.69767,0.1909c0.33829,0.14651 0.64185,0.35294 0.95151,0.54828c1.13897,0.72032 2.08292,1.66816 3.04031,2.60157c0.13807,0.21199 0.31931,0.39068 0.46038,0.60045c0.38302,0.57048 0.7989,1.12099 1.14119,1.71367c0.47814,0.82909 0.89923,1.67926 1.06949,2.6493c0.199,1.1343 0.26881,2.27749 0.38446,3.41845c0.0646,0.63818 0.0707,1.2464 -0.50666,1.68592" data-paper-data="{&quot;index&quot;:null}" fill="#fefefe"/><path d="M222.9644,236.58591c0.04195,0.10988 -0.00022,0.15427 -0.11288,0.14318c-0.26238,-0.64706 -0.53807,-1.28858 -0.78103,-1.94341c-0.11154,-0.29967 -0.28502,-0.48613 -0.58558,-0.60045c-1.10234,-0.41954 -2.18559,-0.89124 -3.29858,-1.27859c-1.54985,-0.5394 -3.11734,-1.03108 -4.77063,-1.15539c-0.12719,0.04994 -0.16238,-0.03996 -0.19623,-0.12986c-0.19678,-1.20201 -0.6111,-2.35074 -0.86926,-3.53832c-0.13363,-0.61377 -0.03474,-0.82465 0.56238,-0.97226c1.1625,-0.28635 2.33764,-0.50167 3.54886,-0.41843c0.06415,-0.00555 0.12531,0.00888 0.18646,0c-0.06127,-0.01665 -0.1232,0.00555 -0.18391,-0.00333c-1.54308,-0.0333 -3.08537,-0.2131 -4.63167,-0.00888c-0.40011,0.05327 -0.6515,0.19312 -0.7262,0.61155c-0.35661,1.99891 -0.74096,3.99226 -1.09624,5.99117c-0.02508,0.14096 -0.14018,0.34185 0.13152,0.39623c0.08779,0.01998 0.16138,0.05327 0.14573,0.16537c-0.54973,0.32298 -0.77093,0.82243 -0.81099,1.43952c-0.01498,0.22975 -0.10622,0.45394 -0.16271,0.68147c-0.12508,-0.0444 -0.25017,-0.0899 -0.37514,-0.1343c0.02353,-0.20089 0.03507,-0.40511 0.07225,-0.60378c0.61077,-3.26085 1.22165,-6.52169 1.83986,-9.78143c0.20777,-1.09435 0.43619,-2.18648 0.67004,-3.35297c0.26371,0.42398 0.25494,0.78358 0.18235,1.1565c-0.16193,0.83242 -0.30344,1.66816 -0.47625,2.49835c-0.06071,0.2919 0.02841,0.36515 0.30111,0.33741c0.51388,-0.05216 1.02931,-0.0899 1.54407,-0.1343c0.17581,-0.00333 0.3515,-0.00666 0.52709,-0.00999c1.51111,0.03774 3.01545,0.14983 4.49582,0.47059c2.57693,0.55605 5.00503,1.47726 7.18696,2.98781c-0.00666,0.16204 -0.01332,0.3252 -0.02009,0.48724c-0.25416,0.10211 -0.42043,-0.0899 -0.59978,-0.19756c-0.74152,-0.44506 -1.49113,-0.87348 -2.1938,-1.21089c0.79301,0.45283 1.5948,1.04107 2.29569,1.74807c0.40644,0.40955 0.95084,0.72032 1.10844,1.34074c-0.01088,0.09101 -0.07137,0.13541 -0.15316,0.15982c-1.08569,0.8302 -2.16539,1.66816 -3.26174,2.48393c-0.25217,0.18868 -0.30411,0.33852 -0.16404,0.62931c0.27059,0.5616 0.52509,1.1343 0.67126,1.74585" data-paper-data="{&quot;index&quot;:null}" fill="#2f201b"/><path d="M238.48073,237.29069c0.04051,0.05993 0.05849,0.12653 0.05383,0.19867c0.00133,1.90568 0,3.81135 0.00244,5.71592c0.001,-1.47615 -0.00455,-2.95341 0.00533,-4.42956c0.00277,-0.42176 -0.06548,-0.84684 0.05117,-1.26416c0.03285,0 0.06559,0.00111 0.09845,0.00111c0.2434,0.23863 0.18124,0.54939 0.18313,0.83685c0.01021,1.64263 -0.003,3.28526 0.00688,4.93012c0.27359,0.28635 1.06849,0.26859 1.38691,-0.02664c0.07725,-1.19424 0.00888,-2.39403 0.0414,-3.59159c0.0071,-0.26082 -0.0697,-0.56937 0.25494,-0.72698c0.05738,0.04773 0.08324,0.10877 0.07758,0.18313c0.00355,1.38292 -0.00166,2.76695 0.00411,4.15098c-0.001,-0.62931 -0.01299,-1.25972 0.00388,-1.88903c0.01976,-0.73474 -0.07658,-1.47282 0.05649,-2.20423c0.66948,0.30744 1.02753,0.93896 1.49124,1.45395c1.15228,1.28081 1.37837,2.78582 0.62209,4.0633c-0.46815,0.79135 -1.17093,1.36183 -1.88614,1.91677c-1.11033,0.86127 -2.35596,1.5039 -3.56229,2.20978c-0.81366,0.11099 -1.6272,0.1121 -2.44086,0c0.05683,-1.73919 0.01876,-3.47395 -0.21798,-5.19982c0.15228,-0.16537 0.36682,-0.15094 0.55983,-0.18202c0.74318,-0.11876 1.25007,-0.55938 1.63364,-1.17315c0.11576,-0.18535 0.19312,-0.3929 0.33041,-0.56604c0.05194,-0.07658 0.07947,-0.16315 0.08258,-0.25638c0.02364,-0.72809 0.02664,-1.45617 0.09911,-2.18537c0.0606,-0.61044 0.09223,-1.24085 -0.0515,-1.85462c-0.02697,-0.2353 -0.07925,-0.47503 0.12187,-0.66926c0.35605,0.14096 0.606,0.46948 0.99146,0.55827" data-paper-data="{&quot;index&quot;:null}" fill="#e24905"/><path d="M283.31372,189.41839c0.30022,-0.35583 0.65128,-0.63397 1.12032,-0.73142c0.76016,-0.36926 1.46205,-0.85295 2.26051,-1.14718c0.74962,-0.27625 1.50179,-0.5151 2.31678,-0.30355c0.96383,0.25006 1.42121,1.11533 1.0807,2.0554c-0.2101,0.5798 -0.64107,0.96849 -1.10434,1.34829c-1.36649,1.12054 -3.07916,1.65961 -4.49082,2.70457c-0.57714,0.42742 -1.19624,0.79834 -1.79824,1.19202c-0.13585,0.0889 -0.25705,0.19057 -0.44007,0.03996c-0.93142,-0.7666 -1.87327,-1.52032 -2.83432,-2.29702c1.29479,-1.04163 2.60202,-1.93797 3.88949,-2.86107" data-paper-data="{&quot;index&quot;:null}" fill="#fbe4db"/><path d="M277.11811,189.262c0.12264,-0.40589 0.50533,-0.58291 0.78891,-0.82453c0.41377,-0.35239 0.74396,-0.82975 1.30279,-0.99546c0.14595,-0.10921 0.29501,-0.21454 0.43741,-0.3283c1.38125,-1.10389 2.73942,-2.24253 4.35087,-3.0119c0.85317,-0.40733 1.73031,-0.63774 2.65662,-0.22153c0.48957,0.11842 0.57881,0.48891 0.57681,0.91666c0.06104,0.85384 -0.37292,1.46982 -0.94019,2.04352c-0.65617,0.6636 -1.48769,1.06871 -2.23842,1.59269c-0.27514,0.35583 -0.64651,0.5616 -1.07004,0.68602c-1.27892,0.77126 -2.44652,1.69913 -3.63155,2.60113c-0.22742,0.17303 -0.3727,0.20333 -0.60411,0.00444c-0.47448,-0.40788 -0.97792,-0.78247 -1.47404,-1.16483c-0.26216,-0.202 -0.6969,-0.35095 -0.75816,-0.59745c-0.06992,-0.28091 0.44662,-0.40977 0.60311,-0.70045" data-paper-data="{&quot;index&quot;:null}" fill="#fbe4db"/><path d="M234.71333,243.61926c-0.07791,-0.36959 -0.15583,-0.73918 -0.23385,-1.10878c-0.07991,-0.13208 -0.03796,-0.22531 0.09467,-0.28857c0.4707,0.00111 0.63952,-0.26859 0.64684,-0.70034c0.00533,-0.31077 -0.01243,-0.62154 -0.00422,-0.9323c-0.00078,-1.31633 0.00222,-2.63487 0.00022,-3.95453c-0.01099,-0.42509 0.05361,-0.85683 -0.11842,-1.26749c-0.33618,-0.29634 -0.41476,0.02775 -0.54662,0.22531c-0.04961,0.5161 -0.01487,1.03552 -0.02042,1.55273c-0.00022,0.82021 -0.00266,1.64041 0.00033,2.46173c-0.04173,0.68369 0.0818,1.37404 -0.08036,2.05329c-0.03774,0.07103 -0.09434,0.09323 -0.17026,0.06548c-0.24551,-0.75361 -0.40256,-1.5383 -0.77947,-2.2453c-0.14662,-0.10322 -0.19545,-0.24196 -0.14806,-0.41399c-0.23929,-0.71366 -0.60589,-1.3696 -0.94529,-2.03664c0.05549,-0.13319 -0.01776,-0.25083 -0.03896,-0.37625c-0.17248,-1.01222 0.21332,-1.91788 1.00345,-2.35962c0.64174,-0.44395 1.36094,-0.52165 2.11278,-0.44506c0.16349,-0.04218 0.29856,0.00666 0.41044,0.12875c0.16104,0.09878 0.32198,0.19645 0.48302,0.29412c0.24628,0.02442 0.35195,0.19312 0.41554,0.404c0.16571,0.0899 0.06715,0.39845 0.33541,0.40289c0.3161,0.75916 0.21521,1.57493 0.31809,2.36295c0.06593,0.8868 0.04906,1.7736 -0.02508,2.6604c-0.1141,0.51832 -0.00921,1.04662 -0.06981,1.56716c-0.02053,0.06326 -0.05228,0.11987 -0.09501,0.17092c-0.42153,1.20312 -1.27815,1.7847 -2.54497,1.77915" data-paper-data="{&quot;index&quot;:null}" fill="#fefefe"/><path d="M208.05541,196.42732c1.70423,-0.70067 3.40358,-1.41355 5.11414,-2.09813c1.36838,-0.54751 2.72189,-1.13663 4.13744,-1.5595c0.03385,0.04018 0.06759,0.08036 0.10144,0.12053c0.05183,0.1475 0.13097,0.26138 0.31021,0.2515c0.14373,0.07125 0.26537,0.1677 0.35072,0.30588c0.09612,0.17414 0.1899,0.35128 0.42775,0.35472c0.14617,0.0707 0.26604,0.17137 0.35339,0.30933c0.05261,0.14695 0.13274,0.26016 0.31099,0.25294c0.18313,0.10633 0.34495,0.23707 0.46893,0.41088c0.04861,0.15006 0.12852,0.26193 0.30788,0.25283c0.14373,0.07114 0.26515,0.16793 0.34961,0.30655c0.09712,0.17381 0.19234,0.34984 0.42864,0.35616c0.11665,0.103 0.2333,0.20611 0.35006,0.3091c0.01498,0.17525 0.27825,0.2293 0.21576,0.44229c-2.16861,0.04972 -4.33211,0.24373 -6.50327,0.22875c-0.82764,-0.00577 -1.65251,-0.07081 -2.47727,-0.09623c-1.41566,-0.04373 -2.83365,-0.01221 -4.24643,-0.14761" data-paper-data="{&quot;index&quot;:null}" fill="#e24905"/><path d="M208.51812,245.79686c0.24639,-0.06326 0.47326,0.01221 0.70123,0.09434c1.50922,0.54162 3.04264,1.01333 4.55353,1.55162c0.18546,0.05438 0.3636,0.12986 0.54662,0.1909c0.12786,0.04884 0.26349,0.07658 0.38846,0.1343c0.92798,0.30078 1.86261,0.5838 2.75962,0.97226c0.03607,0.2353 -0.12908,0.15649 -0.24351,0.15649c-3.91446,-0.00555 -7.82903,-0.00888 -11.74349,-0.01887c-0.13285,0 -0.29135,0.08102 -0.44007,-0.09989c1.16261,-0.99668 2.32011,-1.98892 3.47761,-2.98116" data-paper-data="{&quot;index&quot;:null}" fill="#fefefe"/><path d="M230.59743,247.1598c0.08846,-0.24861 0.36005,-0.30522 0.5111,-0.48724c0.1525,-0.11543 0.30122,-0.2353 0.45605,-0.34628c0.19922,-0.13874 0.36693,-0.31743 0.5636,-0.45838c0.29146,-0.24085 0.56693,-0.50167 0.88114,-0.71477c0.18013,-0.03441 0.27103,-0.18646 0.37403,-0.30744c0.16271,-0.1909 0.24617,-0.19201 0.39401,0.03219c0.77059,1.16649 0.80589,2.45618 0.67459,3.78027c-0.02031,0.20422 -0.13862,0.22642 -0.30211,0.22531c-1.27271,-0.00222 -2.5453,0 -3.81801,-0.00333c-0.11598,0 -0.30944,0.04884 -0.27858,-0.15316c0.08457,-0.55383 -0.10344,-1.20867 0.54418,-1.56716" data-paper-data="{&quot;index&quot;:null}" fill="#fefefe"/><path d="M250.24453,207.23052c-0.07359,-0.12253 -0.00344,-0.13163 0.09412,-0.11898c0.96482,3.65863 1.59568,7.37331 1.93187,11.1426c0.30877,3.4604 0.39523,6.91881 0.07303,10.38277c-0.14184,0.07214 -0.28369,0.14429 -0.42564,0.21643c0.06027,-1.43841 0.15638,-2.87683 0.17148,-4.31524c0.0182,-1.73586 -0.0626,-3.47062 -0.17925,-5.20381c-0.15139,-2.24752 -0.39179,-4.48539 -0.74107,-6.70971c-0.28302,-1.80201 -0.61454,-3.59625 -0.92454,-5.39405" data-paper-data="{&quot;index&quot;:null}" fill="#2f201b"/><path d="M225.26154,229.88663c0.16016,0.12098 0.31732,0.24639 0.4808,0.36293c1.84119,1.30967 3.4422,2.86018 4.74798,4.70925c0.00832,0.12542 -0.02597,0.1909 -0.16104,0.11543c-0.52342,-0.23308 -0.76238,-0.76693 -1.17814,-1.11211c-0.88425,-0.73364 -1.7807,-1.45284 -2.79292,-2.00889c-0.17492,-0.10766 -0.41932,-0.10322 -0.5232,-0.3252c-0.9878,-1.46394 -2.45474,-2.3907 -3.8502,-3.40624c1.19058,0.37736 2.21578,1.05661 3.27672,1.66483" data-paper-data="{&quot;index&quot;:null}" fill="#fdfdfd"/><path d="M232.40843,237.02986c-0.02153,-0.0566 -0.04295,-0.11321 -0.06448,-0.16981c-0.02408,-0.30633 -0.0505,-0.61266 0.01265,-0.91677c0.00444,-0.0222 0.01454,-0.02997 0.03396,-0.02331c0.07014,0.02442 -0.04395,-0.06548 -0.04939,-0.02775c-0.06726,0.29745 0.04706,0.57381 -0.07481,0.8302c-0.75572,-1.17648 -1.52465,-2.34408 -2.42055,-3.42289c0.51421,0.05438 0.98636,0.26193 1.47748,0.40178c0.68413,0.19423 1.32343,0.54495 2.04963,0.59268c-0.47226,0.45172 -0.81743,0.97337 -0.88502,1.64041c-0.03685,0.36404 -0.05361,0.73031 -0.07947,1.09546" data-paper-data="{&quot;index&quot;:null}" fill="#e24907"/><path d="M237.37218,248.81908c4.76841,0.00111 9.53681,0.00333 14.30522,0.00555c-0.12719,0.20866 -0.33363,0.11543 -0.50233,0.11543c-5.24655,0.00444 -10.4932,0.00333 -15.73986,-0.00222c-0.17037,-0.00111 -0.37581,0.08546 -0.50378,-0.11876c0.81355,0 1.6272,0 2.44075,0" data-paper-data="{&quot;index&quot;:null}" fill="#94735e"/><path d="M277.11811,189.262c-0.07836,-0.12087 -0.15661,-0.24184 -0.23496,-0.36271c0.65794,-0.65039 1.34862,-1.26283 2.09236,-1.81411c0.07814,0.11898 0.15616,0.23785 0.2343,0.35683c-0.69723,0.60666 -1.39446,1.21333 -2.09169,1.81999" data-paper-data="{&quot;index&quot;:null}" fill="#2f201b"/><path d="M208.51812,245.79686c0.07181,-0.05882 0.14373,-0.11765 0.21565,-0.17647c1.73864,0.5949 3.47739,1.1898 5.21602,1.7847c0.00844,0.11432 -0.03407,0.16204 -0.14906,0.11654c-0.12353,-0.03219 -0.24928,-0.05771 -0.37026,-0.09767c-1.63786,-0.54162 -3.27505,-1.08436 -4.91236,-1.62709" data-paper-data="{&quot;index&quot;:null}" fill="#403532"/><path d="M251.58749,240.26962c0.0293,0.10322 0.08402,0.20755 0.08424,0.31077c0.00544,2.26972 0.00488,4.54055 0.00544,6.81026c-0.08546,-0.08768 -0.08768,-0.19756 -0.08768,-0.30966c-0.00055,-2.27083 -0.00133,-4.54055 -0.002,-6.81137" data-paper-data="{&quot;index&quot;:null}" fill="#a9795c"/><path d="M224.14943,241.72912c-0.06082,-0.07325 -0.12164,-0.1454 -0.18247,-0.21754c-0.13718,-1.34851 -0.48424,-2.65374 -0.82376,-3.96008c-0.04251,-0.1121 0.00178,-0.15538 0.11465,-0.14429c0.45861,1.40734 0.80678,2.83687 0.89157,4.3219" data-paper-data="{&quot;index&quot;:null}" fill="#2f201b"/><path d="M284.0529,188.43314c0.1353,0.07225 0.29201,0.11232 0.38114,0.25383c-0.37348,0.24384 -0.74695,0.48768 -1.12032,0.73142c-0.11032,-0.09967 -0.22053,-0.19945 -0.33086,-0.29923c0.32842,-0.2727 0.67914,-0.51077 1.07004,-0.68602" data-paper-data="{&quot;index&quot;:null}" fill="#2f201b"/><path d="M214.62338,247.81352c-0.00877,-0.10655 0.02753,-0.15649 0.13929,-0.10766c0.94995,0.29856 1.8999,0.59712 2.84986,0.89568c-0.04828,0.04662 -0.09656,0.09212 -0.14495,0.13874c-0.97814,-0.21643 -1.90024,-0.60489 -2.8442,-0.92676" data-paper-data="{&quot;index&quot;:null}" fill="#2f201b"/><path d="M275.88957,189.66301c-0.07603,0.11554 -0.15194,0.23119 -0.22797,0.34673c-0.20932,-0.1101 -0.41976,-0.21809 -0.62753,-0.33097c-0.13874,-0.07536 -0.24961,-0.18113 -0.16826,-0.35106c0.08535,-0.17803 0.24839,-0.14329 0.37903,-0.07114c0.22209,0.12253 0.43053,0.2697 0.64473,0.40644" data-paper-data="{&quot;index&quot;:null}" fill="#2f201b"/><path d="M286.6547,183.88027c0.16682,-0.11898 0.44629,-0.15183 0.47825,0.00289c0.06559,0.31709 0.28513,0.52808 0.39434,0.80311c0.03574,0.08979 0.04229,0.24351 -0.09478,0.27092c-0.05416,0.01088 -0.13319,-0.10311 -0.201,-0.16027c-0.07392,-0.38003 -0.28424,-0.67426 -0.57681,-0.91666" data-paper-data="{&quot;index&quot;:null}" fill="#2f201b"/><path d="M232.13895,245.94114c-0.09922,0.0333 -0.12542,-0.00222 -0.09179,-0.09545c0.26815,-0.29079 0.54307,-0.57381 0.89446,-0.76693c0.02753,0.01998 0.05006,0.04551 0.0677,0.07436c-0.21077,0.35072 -0.52975,0.58158 -0.87037,0.78802" data-paper-data="{&quot;index&quot;:null}" fill="#504846"/><path d="M218.83629,191.23017c-0.15261,0.16593 -0.33485,0.15472 -0.46249,0.00533c-0.15261,-0.17891 0.00344,-0.32153 0.12919,-0.44895c0.20011,0.08102 0.24107,0.28158 0.3333,0.44362" data-paper-data="{&quot;index&quot;:null}" fill="#2f201b"/><path d="M281.43512,181.89702c0.31088,-0.45217 0.48114,-0.44828 0.77681,0.01787c-0.25894,-0.00599 -0.51787,-0.01188 -0.77681,-0.01787" data-paper-data="{&quot;index&quot;:null}" fill="#2f201b"/><path d="M217.72641,189.78754c-0.15261,0.1656 -0.33485,0.1545 -0.46249,0.00511c-0.15272,-0.1788 0.00355,-0.32131 0.12897,-0.44895c0.11121,0.14795 0.22231,0.2959 0.33352,0.44384" data-paper-data="{&quot;index&quot;:null}" fill="#2f201b"/><path d="M267.56165,228.3006c0.24984,0.46282 0.201,0.53164 -0.38202,0.5383c0.1273,-0.17869 0.25472,-0.35849 0.38202,-0.5383" data-paper-data="{&quot;index&quot;:null}" fill="#2f201b"/><path d="M201.2013,199.45565c0.02508,-0.55694 0.10488,-0.60544 0.54962,-0.33441c-0.16005,0.1495 -0.33652,0.27203 -0.54962,0.33441" data-paper-data="{&quot;index&quot;:null}" fill="#2f201b"/><path d="M233.50178,239.48049c-0.12064,0.18313 -0.29046,0.18091 -0.37991,0.01443c-0.11165,-0.20644 0.00788,-0.36404 0.23186,-0.42842c0.07248,0.12986 0.1616,0.25305 0.14806,0.41399" data-paper-data="{&quot;index&quot;:null}" fill="#2f201b"/><path d="M283.33136,183.46118c0.23352,0.03141 0.23008,0.20477 0.19823,0.36726c-0.05183,0.26415 -0.2757,0.16304 -0.44029,0.1838c0.08069,-0.18369 0.16138,-0.36737 0.24207,-0.55106" data-paper-data="{&quot;index&quot;:null}" fill="#2f201b"/><path d="M264.11534,235.28956c0.14606,0.12653 0.16582,0.27747 0.03019,0.41066c-0.15938,0.15538 -0.32076,0.09212 -0.46071,-0.05105c0.14351,-0.11987 0.28702,-0.23974 0.43053,-0.3596" data-paper-data="{&quot;index&quot;:null}" fill="#2f201b"/><path d="M207.86573,242.58374c-0.1697,0.16204 -0.28691,0.02997 -0.32631,-0.10211c-0.05039,-0.16981 -0.07969,-0.38402 0.20189,-0.41843c0.11288,0.15649 0.13152,0.33519 0.12442,0.52054" data-paper-data="{&quot;index&quot;:null}" fill="#2f201b"/><path d="M205.5232,239.64032c0.05705,0.06881 0.16193,0.13985 0.16038,0.20755c-0.00233,0.11099 -0.12897,0.09656 -0.21898,0.10544c-0.24207,0.02442 -0.30489,-0.16204 -0.38857,-0.3252c0.14906,0.00444 0.29812,0.00777 0.44717,0.01221" data-paper-data="{&quot;index&quot;:null}" fill="#2f201b"/><path d="M288.20332,192.01286c0.08124,-0.15372 0.12653,-0.34739 0.36027,-0.33563c0.09945,0.00499 0.24107,-0.03085 0.24795,0.11565c0.00289,0.06271 -0.10389,0.13063 -0.16093,0.19612c-0.14906,0.00799 -0.29812,0.01587 -0.44728,0.02386" data-paper-data="{&quot;index&quot;:null}" fill="#2f201b"/><path d="M208.29603,244.2752c-0.09467,0.11654 -0.22875,0.16759 -0.29479,0.01332c-0.07558,-0.17536 -0.11665,-0.39623 0.1808,-0.4495c0.10089,0.12875 0.13063,0.27636 0.11399,0.43619" data-paper-data="{&quot;index&quot;:null}" fill="#2f201b"/><path d="M189.39943,233.41385c-0.06915,0.05549 -0.14129,0.16093 -0.20699,0.15649c-0.11132,-0.00666 -0.09201,-0.1343 -0.09978,-0.2242c-0.02109,-0.24307 0.1697,-0.30189 0.33308,-0.38402c-0.00877,0.15094 -0.01754,0.30078 -0.0263,0.45172" data-paper-data="{&quot;index&quot;:null}" fill="#2f201b"/><path d="M266.79916,230.74346c0.29001,0.07103 0.24184,0.28857 0.15616,0.45949c-0.07636,0.15205 -0.2081,0.07658 -0.29911,-0.03219c0.04773,-0.14318 0.09534,-0.28524 0.14295,-0.42731" data-paper-data="{&quot;index&quot;:null}" fill="#2f201b"/><path d="M230.49032,234.95881c0.16393,0.19423 0.4121,0.34074 0.36282,0.65261c-0.23363,-0.12098 -0.45861,-0.25194 -0.52387,-0.53719c0.05372,-0.03885 0.10744,-0.07658 0.16104,-0.11543" data-paper-data="{&quot;index&quot;:null}" fill="#e3e3e4"/><path d="M283.31738,182.80158c0.10189,-0.12497 0.22497,-0.1586 0.30588,-0.00233c0.05627,0.10844 0.08091,0.27547 -0.02986,0.36049c-0.13541,0.10389 -0.15882,-0.09989 -0.24861,-0.13918c-0.0091,-0.07303 -0.0182,-0.14595 -0.02741,-0.21898" data-paper-data="{&quot;index&quot;:null}" fill="#2f201b"/><path d="M279.97462,202.65523c0.28202,0.60167 -0.20877,0.39434 -0.45916,0.43863c0.1232,-0.17747 0.27192,-0.32819 0.45916,-0.43863" data-paper-data="{&quot;index&quot;:null}" fill="#2f201b"/><path d="M230.59743,247.1598c-0.03929,-0.03663 -0.07858,-0.07214 -0.11798,-0.10877c0.18901,-0.14429 0.37814,-0.28857 0.56715,-0.43286c0.06837,0.00999 0.11243,0.04773 0.12864,0.11543c-0.17181,0.17092 -0.34839,0.33408 -0.57781,0.4262" data-paper-data="{&quot;index&quot;:null}" fill="#5c5654"/><path d="M232.34395,236.86005c-0.02586,-0.04551 -0.05172,-0.09101 -0.07747,-0.13652c0,-0.28302 0,-0.56493 0,-0.84795c0.02586,0.00222 0.05161,0.00444 0.07747,0.00666c0,0.32631 0,0.6515 0,0.97781" data-paper-data="{&quot;index&quot;:null}" fill="#e0351e"/><path d="M234.37326,241.72912c0.07092,0.00888 0.12275,0.04773 0.16293,0.10544c0.03241,0.05882 0.05361,0.12098 0.06759,0.18646c0.01498,0.08435 0.04817,0.16981 -0.00932,0.25194c-0.03829,0.0788 -0.07658,0.15871 -0.11498,0.23752c-0.14562,-0.24085 -0.14895,-0.51943 -0.19823,-0.78469c0.03074,-0.00222 0.06138,-0.00111 0.09201,0.00333" data-paper-data="{&quot;index&quot;:null}" fill="#d5c6be"/><path d="M218.84328,192.13916c0.11598,-0.27259 0.30289,-0.30844 0.54396,-0.16271c-0.18136,0.05427 -0.3626,0.10844 -0.54396,0.16271" data-paper-data="{&quot;index&quot;:null}" fill="#2f201b"/><path d="M227.6509,163.36457c1.40079,0.02819 2.6786,0.42198 3.8058,1.27348c1.26216,0.9535 1.23874,2.72322 -0.0707,3.53865c-1.97671,1.23098 -4.82545,0.92542 -6.57208,-0.57059c-1.5504,-1.32787 -1.11688,-2.92444 0.43219,-3.70624c0.74396,-0.37559 1.55761,-0.55317 2.40479,-0.5353" data-paper-data="{&quot;index&quot;:null}" fill="#f9d1d0"/><path d="M258.30187,167.91555c-0.48358,0.08857 -0.99712,-0.03074 -1.45573,-0.26249c-0.96072,-0.48558 -1.41855,-1.33775 -0.67292,-2.39314c0.8444,-1.19524 3.13032,-1.85928 4.48117,-1.40512c0.70755,0.23785 1.32065,0.5878 1.44385,1.36394c0.12198,0.76871 -0.32853,1.35251 -0.91954,1.77249c-0.83808,0.59545 -1.75817,1.00911 -2.87683,0.92431" data-paper-data="{&quot;index&quot;:null}" fill="#f9d1d0"/><path d="M251.9784,175.42738c0.04495,-0.02264 0.09001,-0.04539 0.13496,-0.06804c0.53896,0.98158 1.07237,1.96639 1.62043,2.94298c0.15894,0.28324 0.00067,0.3959 -0.20633,0.52054c-0.90422,0.54451 -1.8443,1.00756 -2.85452,1.32665c-2.90446,0.91732 -5.88229,1.43231 -8.91861,1.59935c-4.42634,0.24362 -8.74635,-0.2202 -12.83984,-2.05862c-2.18381,-0.98081 -4.09404,-2.34797 -5.72635,-4.1048c-0.25117,-0.27037 -0.30511,-0.45861 -0.00178,-0.72365c0.34739,-0.30344 0.65572,-0.65128 0.98658,-0.97415c0.1293,-0.12608 0.26715,-0.29856 0.46116,-0.09023c0.17558,0.18846 -0.0061,0.29978 -0.11254,0.41266c-0.20278,0.21532 -0.40056,0.44007 -0.62931,0.62509c-0.32153,0.25994 -0.34573,0.43596 -0.02431,0.76238c3.12877,3.17727 7.01559,4.75131 11.33827,5.41358c3.65563,0.55994 7.30217,0.40267 10.92706,-0.24673c2.23431,-0.40023 4.45031,-0.8868 6.49295,-1.95806c0.50222,-0.26349 0.66149,-0.46349 0.36615,-1.01577c-0.40333,-0.75384 -0.74973,-1.54563 -1.01399,-2.36317" data-paper-data="{&quot;index&quot;:null}" fill="#2f201b"/><path d="M229.39265,151.99478c-0.06415,-0.62209 0.06704,-1.11477 0.19967,-1.60301c0.4929,-1.81367 1.27082,-3.47794 2.74908,-4.70093c1.24241,-1.02787 2.65108,-1.54752 4.26885,-0.96827c0.92942,0.33286 1.68192,1.14207 2.35052,2.417c-0.19423,0.01054 -0.28424,-0.15594 -0.41266,-0.2434c-2.48293,-1.69069 -4.59804,-1.4231 -6.5591,0.84684c-0.86416,1.00023 -1.4716,2.16051 -2.04696,3.33987c-0.13985,0.28679 -0.25017,0.59712 -0.54939,0.91188" data-paper-data="{&quot;index&quot;:null}" fill="#2f201b"/><path d="M235.05684,158.05798c0.04173,-0.03862 0.08735,-0.04617 0.13751,-0.01709c0.104,0.0788 0.17192,0.19368 0.27325,0.27414c0.2192,0.1737 0.44728,0.17536 0.65284,-0.0091c0.16915,-0.15183 0.20278,-0.3555 0.08657,-0.55394c-0.13274,-0.22675 -0.32797,-0.34939 -0.60333,-0.26093c-0.12231,0.03929 -0.22442,0.12952 -0.35594,0.14684c-0.08657,-0.01698 -0.14972,-0.05006 -0.10788,-0.15605c0.11754,-0.65572 0.30045,-1.28802 0.67581,-1.84907c0.19967,-0.29856 0.43552,-0.59079 0.82853,-0.55195c0.39734,0.0394 0.59279,0.37736 0.69224,0.71443c0.49279,1.66871 0.31177,3.27405 -0.53397,4.79504c-0.17292,0.31088 -0.42276,0.5929 -0.82065,0.56293c-0.43585,-0.03285 -0.5919,-0.40267 -0.72065,-0.74851c-0.28302,-0.76061 -0.26404,-1.55318 -0.20433,-2.34674" data-paper-data="{&quot;index&quot;:null}" fill="#2f201b"/><path d="M252.46242,158.92936c0.12464,0.04251 0.20533,0.15294 0.32065,0.2091c0.24884,0.1212 0.46615,0.07569 0.63264,-0.14517c0.13674,-0.18136 0.13607,-0.37869 0.00089,-0.56038c-0.16504,-0.22176 -0.38269,-0.26748 -0.63241,-0.15083c-0.11587,0.05416 -0.2,0.16238 -0.32842,0.19612c-0.1273,-0.78358 0.22653,-1.43675 0.59157,-2.07471c0.18324,-0.32009 0.44395,-0.6353 0.87104,-0.56915c0.38957,0.06038 0.54862,0.40056 0.67048,0.73785c0.32287,0.89357 0.28757,1.81333 0.15916,2.7301c-0.11043,0.78835 -0.31476,1.55617 -0.81566,2.20068c-0.46193,0.59434 -1.01022,0.54484 -1.33075,-0.12642c-0.37758,-0.79068 -0.37037,-1.64563 -0.31987,-2.49336c0.00921,-0.15383 0.11399,0.03851 0.18069,0.04617" data-paper-data="{&quot;index&quot;:null}" fill="#2f201b"/><path d="M258.14437,150.04294c0.00699,0.1586 0.17026,0.35849 -0.11621,0.43963c-0.45727,-1.1686 -0.9343,-2.33054 -1.70135,-3.33732c-0.66371,-0.87104 -1.34585,-0.98014 -2.25651,-0.36848c-0.40023,0.26881 -0.7565,0.60278 -1.17803,0.94385c0.01077,-0.18746 -0.01232,-0.32542 0.03008,-0.43907c0.37004,-0.99124 0.99635,-1.77205 2.07893,-1.94408c0.98913,-0.15716 1.6696,0.44928 2.1968,1.21866c0.1545,0.22542 0.27303,0.48014 0.37769,0.73397c0.36282,0.88058 0.51232,1.80767 0.56859,2.75285" data-paper-data="{&quot;index&quot;:null}" fill="#2f201b"/><path d="M205.13985,159.93469c0.80522,0.12542 1.53298,0.49723 2.14552,1.09435c0.94807,0.9242 1.5272,2.0645 1.92599,3.30913c0.19678,0.61432 0.1909,0.61166 -0.45339,0.71588c-0.55095,0.08923 -1.06749,0.28091 -1.21544,0.88869c-0.14573,0.59812 0.11498,1.08047 0.58247,1.45606c0.08602,0.06903 0.18047,0.12797 0.27248,0.18946c0.12131,0.08091 0.28735,0.15205 0.1939,0.33585c-0.09756,0.19201 -0.26693,0.1505 -0.43208,0.0808c-0.62553,-0.26393 -1.13874,-1.10523 -1.1191,-1.8393c0.01931,-0.72764 0.40233,-1.26239 1.20334,-1.45517c0.52498,-0.12631 0.53252,-0.31332 0.34185,-0.73674c-0.75228,-1.67127 -1.59724,-3.2341 -3.64187,-3.58926c-0.15061,-0.02619 -0.23641,-0.12819 -0.20156,-0.27547c0.04273,-0.18102 0.19823,-0.19423 0.39789,-0.17425" data-paper-data="{&quot;index&quot;:null}" fill="#30211d"/><path d="M247.84118,165.05371c0.83796,-0.20855 1.66483,-0.45883 2.54053,-0.25339c0.43707,0.10244 0.71577,0.36715 0.8454,0.78735c0.13241,0.42886 0.1727,0.86516 0.08702,1.31233c-0.18235,0.95162 -0.66216,1.7494 -1.2706,2.48049c-0.12275,0.1475 -0.25383,0.39734 -0.48313,0.22531c-0.28613,-0.21465 -0.00499,-0.37925 0.11976,-0.53663c0.5676,-0.71565 1.04407,-1.47526 1.18503,-2.40057c0.13874,-0.91111 -0.18369,-1.37093 -1.08835,-1.48236c-0.64029,-0.07902 -1.28691,-0.11254 -1.93564,-0.13252" data-paper-data="{&quot;index&quot;:null}" fill="#312420"/><path d="M252.46242,158.92936c-0.00222,-0.15039 -0.00444,-0.30078 -0.00666,-0.45128c0.12109,-0.36227 0.39234,-0.4848 0.73486,-0.39512c0.31354,0.08213 0.50167,0.31532 0.48524,0.65383c-0.01498,0.30921 -0.19911,0.52475 -0.4919,0.59568c-0.34351,0.08324 -0.61388,-0.03119 -0.72154,-0.40311" data-paper-data="{&quot;index&quot;:null}" fill="#fafafa"/><path d="M258.14437,150.04294c0.10744,0.15361 0.13951,0.35328 0.0818,0.49845c-0.0828,0.2081 -0.16038,0.07037 -0.198,-0.05882c0.18657,-0.10744 0.02508,-0.30699 0.11621,-0.43963" data-paper-data="{&quot;index&quot;:null}" fill="#9d9694"/><path d="M235.2574,157.59649c0.08335,0.18668 0.03518,0.33785 -0.12386,0.45916l-0.03829,0.00311l-0.0384,-0.00078c-0.01776,-0.19867 -0.06759,-0.40178 0.08302,-0.57614c0.03918,0.03818 0.07836,0.07647 0.11754,0.11465" data-paper-data="{&quot;index&quot;:null}" fill="#938d8b"/><path d="M244.68444,200.33679c0.52198,0.16482 0.78269,0.62553 1.12509,0.99357c-0.04062,0.04473 -0.08302,0.04872 -0.1273,0.00522c-0.3424,-0.32309 -0.75594,-0.57525 -0.99779,-0.99879" data-paper-data="{&quot;index&quot;:null}" fill="#ee311e"/><path d="M245.80954,201.33036c0.23996,0.24051 0.61643,0.3687 0.64385,0.7838c-0.25705,-0.25949 -0.5141,-0.51898 -0.77115,-0.77859c0.0424,-0.00166 0.08491,-0.00344 0.1273,-0.00522" data-paper-data="{&quot;index&quot;:null}" fill="#ee3f24"/><path d="M246.6869,202.34846c0.37625,0.01043 0.50467,0.25339 0.54384,0.58003c-0.18124,-0.19334 -0.36249,-0.38668 -0.54384,-0.58003" data-paper-data="{&quot;index&quot;:null}" fill="#ed2714"/><path d="M243.90697,199.67052c0.31132,0.04107 0.49124,0.2232 0.56194,0.52287c-0.23052,-0.12786 -0.45117,-0.26626 -0.56194,-0.52287" data-paper-data="{&quot;index&quot;:null}" fill="#ee341c"/><path d="M250.03909,206.76458c-0.10067,-0.12397 -0.19068,-0.25128 -0.13074,-0.42475c0.0414,-0.01476 0.08269,-0.02963 0.12397,-0.04428c0.12497,0.08857 0.21732,0.1949 0.19956,0.36193c-0.03185,0.04373 -0.03796,0.11232 -0.11154,0.11576c-0.02719,-0.002 -0.05427,-0.00488 -0.08124,-0.00866" data-paper-data="{&quot;index&quot;:null}" fill="#a28c80"/><path d="M250.23188,206.65748c0.03563,0.15139 0.07114,0.30267 0.10677,0.45405c-0.03141,0.03962 -0.06271,0.07936 -0.09412,0.11887c-0.12819,-0.12897 -0.10733,-0.29812 -0.1242,-0.45716c0.03729,-0.03851 0.07436,-0.07714 0.11154,-0.11576" data-paper-data="{&quot;index&quot;:null}" fill="#524540"/><path d="M211.75066,210.1372c-0.00067,0.93752 -0.00144,1.87493 -0.00211,2.81245c0,0.45483 0,0.90955 0,1.36438c-0.03319,-0.00067 -0.06648,-0.00122 -0.09967,-0.00178c0,-1.73531 0,-3.47073 0,-5.20603c0.03396,-0.00078 0.06781,-0.00155 0.10178,-0.00233c0,0.3444 0,0.68891 0,1.0333" data-paper-data="{&quot;index&quot;:null}" fill="#ee3d2a"/><path d="M214.97588,203.65479c0.36715,-0.50067 0.79645,-0.9393 1.30179,-1.30201c-0.30988,0.55794 -0.74385,0.99191 -1.30179,1.30201" data-paper-data="{&quot;index&quot;:null}" fill="#ee341a"/><path d="M247.71665,204.04658c0.31931,0.32631 0.71943,0.58569 0.86915,1.05206c-0.34351,-0.30611 -0.79845,-0.52031 -0.86915,-1.05206" data-paper-data="{&quot;index&quot;:null}" fill="#ee341f"/><path d="M244.59177,201.02492c0.32819,0.19756 0.60078,0.45727 0.84229,0.75184c-0.47958,-0.02775 -0.65827,-0.39279 -0.84229,-0.75184" data-paper-data="{&quot;index&quot;:null}" fill="#ee3822"/><path d="M235.71356,208.90345c0.30189,0.16704 0.52231,0.42708 0.76094,0.66649c-0.44806,-0.00022 -0.59989,-0.33852 -0.76094,-0.66649" data-paper-data="{&quot;index&quot;:null}" fill="#ee3017"/><path d="M231.16158,204.79709c0.28679,0.16548 0.5282,0.38258 0.73208,0.6424c-0.44595,0.01598 -0.5777,-0.32597 -0.73208,-0.6424" data-paper-data="{&quot;index&quot;:null}" fill="#ee3922"/><path d="M212.29162,212.20103c-0.05583,-0.44085 -0.04861,-0.88192 -0.00444,-1.32298c0.18213,0.44029 0.17503,0.88136 0.00444,1.32298" data-paper-data="{&quot;index&quot;:null}" fill="#ed2314"/><path d="M233.27237,206.68423c0.26981,0.14606 0.47359,0.3687 0.6808,0.58735c-0.42176,0.03008 -0.54962,-0.28058 -0.6808,-0.58735" data-paper-data="{&quot;index&quot;:null}" fill="#ee2f19"/><path d="M250.03909,206.76458c-0.24728,-0.13818 -0.47314,-0.2919 -0.4535,-0.62409c0.10755,0.06648 0.2151,0.13296 0.32276,0.19934c0.04362,0.14162 0.08724,0.28313 0.13074,0.42475" data-paper-data="{&quot;index&quot;:null}" fill="#ee3621"/><path d="M222.39104,197.57639c0.36504,-0.38091 0.53175,-0.02531 0.73408,0.19778c-0.24462,-0.06593 -0.48935,-0.13185 -0.73408,-0.19778" data-paper-data="{&quot;index&quot;:null}" fill="#ee3d28"/><path d="M234.4938,207.79156c0.28014,0.15627 0.50056,0.38036 0.70611,0.62165c-0.39934,-0.02087 -0.58691,-0.28258 -0.70611,-0.62165" data-paper-data="{&quot;index&quot;:null}" fill="#ee2d17"/><path d="M216.85981,201.04889c-0.17336,0.17847 -0.33385,0.37237 -0.56937,0.4767c0.10078,-0.26504 0.17969,-0.5565 0.56937,-0.4767" data-paper-data="{&quot;index&quot;:null}" fill="#ee3119"/><path d="M224.05964,198.58461c0.2323,0.10588 0.39767,0.2929 0.57104,0.47026c-0.39479,0.09157 -0.46582,-0.2101 -0.57104,-0.47026" data-paper-data="{&quot;index&quot;:null}" fill="#ee341c"/><path d="M225.72458,200.02702c0.23352,0.10477 0.39767,0.29345 0.57104,0.47126c-0.39423,0.09001 -0.46671,-0.20988 -0.57104,-0.47126" data-paper-data="{&quot;index&quot;:null}" fill="#ee331a"/><path d="M229.27611,203.13248c0.23585,0.104 0.39912,0.29479 0.57048,0.47603c-0.39046,0.08135 -0.46948,-0.21043 -0.57048,-0.47603" data-paper-data="{&quot;index&quot;:null}" fill="#ee3019"/><path d="M232.27336,205.79299c0.24584,0.11532 0.42398,0.30933 0.59557,0.51132c-0.34728,0.00289 -0.51621,-0.202 -0.59557,-0.51132" data-paper-data="{&quot;index&quot;:null}" fill="#ee2e17"/><path d="M212.38119,214.47785c-0.11077,-0.34196 -0.08724,-0.69312 -0.07192,-1.04374c0.17148,0.33774 0.07658,0.69379 0.07192,1.04374" data-paper-data="{&quot;index&quot;:null}" fill="#f1563f"/><path d="M221.06661,196.00013c0.1757,0.14906 0.3515,0.29812 0.5272,0.44706c-0.10377,-0.00166 -0.20766,-0.00322 -0.31155,-0.00477c-0.0212,-0.17214 -0.33607,-0.20111 -0.21565,-0.44229" data-paper-data="{&quot;index&quot;:null}" fill="#df270f"/><path d="M237.83733,208.24961c0.03862,-0.20655 0.19123,-0.33596 0.32431,-0.47858c0.12775,0.31931 -0.10633,0.39357 -0.32431,0.47858" data-paper-data="{&quot;index&quot;:null}" fill="#ee3521"/><path d="M236.69825,209.52443c0.14417,-0.15749 0.28835,-0.31487 0.43263,-0.47237c-0.02519,0.26626 -0.07236,0.51266 -0.43263,0.47237" data-paper-data="{&quot;index&quot;:null}" fill="#ed2712"/><path d="M218.06936,193.44761c0.14251,0.1182 0.28513,0.23652 0.42775,0.35472c-0.306,0.0788 -0.42409,-0.06903 -0.42775,-0.35472" data-paper-data="{&quot;index&quot;:null}" fill="#df280f"/><path d="M220.28791,195.33486c0.14284,0.11876 0.2858,0.2374 0.42864,0.35616c-0.30511,0.07647 -0.42331,-0.07181 -0.42864,-0.35616" data-paper-data="{&quot;index&quot;:null}" fill="#df2811"/><path d="M212.60239,217.24247c-0.09634,-0.22664 -0.09356,-0.46382 -0.0747,-0.70267c0.16404,0.21942 0.0889,0.46427 0.0747,0.70267" data-paper-data="{&quot;index&quot;:null}" fill="#f15d48"/><path d="M211.97075,216.28042c0.08857,0.22453 0.09545,0.45761 0.07325,0.6939c-0.1596,-0.21698 -0.08657,-0.45861 -0.07325,-0.6939" data-paper-data="{&quot;index&quot;:null}" fill="#f15e49"/><path d="M217.40842,192.89022c0.10344,0.0838 0.20688,0.1677 0.31021,0.2515c-0.25716,0.10588 -0.35605,0.01643 -0.31021,-0.2515" data-paper-data="{&quot;index&quot;:null}" fill="#df250f"/><path d="M218.8505,194.11165c0.10366,0.08424 0.20733,0.16859 0.31099,0.25294c-0.23485,0.07692 -0.36882,0.02974 -0.31099,-0.25294" data-paper-data="{&quot;index&quot;:null}" fill="#df250f"/><path d="M219.63042,194.77548c0.10266,0.08424 0.20522,0.16859 0.30788,0.25294c-0.2677,0.04872 -0.33108,-0.00344 -0.30788,-0.25294" data-paper-data="{&quot;index&quot;:null}" fill="#df230d"/><path d="M241.49596,200.98618c0.03108,-0.10655 0.06226,-0.2131 0.09345,-0.31965c0.17148,0.16582 0.14928,0.27503 -0.09345,0.31965" data-paper-data="{&quot;index&quot;:null}" fill="#ed2612"/><path d="M212.49851,207.96493c-0.01787,-0.03052 -0.01454,-0.0586 0.0101,-0.08413c0.1636,0.13319 0.13097,0.28546 0.04084,0.52176c-0.02297,-0.19745 -0.03696,-0.31754 -0.05094,-0.43763" data-paper-data="{&quot;index&quot;:null}" fill="#ed2314"/><path d="M244.04803,200.54678c0.07481,0.06115 0.14961,0.1222 0.22453,0.18335c-0.05483,0.12486 -0.13152,0.09434 -0.20378,0.02264c-0.0596,-0.05916 -0.15161,-0.12386 -0.02075,-0.20599" data-paper-data="{&quot;index&quot;:null}" fill="#ed2614"/><path d="M240.47098,243.49273c-0.54684,0.11099 -1.09413,0.10322 -1.64163,0.00555c-0.19456,-0.1576 -0.11066,-0.37625 -0.1121,-0.56826c-0.01321,-1.80579 -0.01798,-3.61157 -0.02531,-5.41736c0.00721,-1.08547 0.02864,-2.17094 0.01321,-3.25641c-0.00488,-0.34074 0.0939,-0.42065 0.43019,-0.43952c0.65628,-0.03663 1.27337,0.12764 1.90112,0.25194c0.16526,-0.03885 0.30344,0.0222 0.43241,0.11654c0.19223,0.07325 0.38435,0.14651 0.57659,0.21976c0.24196,0.80689 0.11854,0.9767 -0.68069,0.93674c-0.03496,-0.00111 -0.06926,-0.01776 -0.10389,-0.02664c-0.18768,-0.00777 -0.37536,-0.01554 -0.56316,-0.02331c-0.11876,0.67814 -0.01587,1.36183 -0.05627,2.04108c-0.0313,0.52942 0.09434,1.06438 -0.06948,1.58714c-0.09734,0.41843 -0.02753,0.8424 -0.04284,1.26416c-0.04018,1.10212 0.07048,2.20756 -0.05816,3.30857" data-paper-data="{&quot;index&quot;:null}" fill="#fefdfd"/><path d="M238.48184,237.40168c0.03685,-0.05216 0.07347,-0.04884 0.10988,0c0.00044,0.03663 0.001,0.07325 0.00178,0.10988c-0.00011,1.95229 -0.00011,3.90569 -0.00011,5.85909c-0.03718,-0.00111 -0.07436,-0.00111 -0.11154,-0.00111c0,-1.98892 0,-3.97894 0,-5.96786" data-paper-data="{&quot;index&quot;:null}" fill="#e1390b"/><path d="M240.62226,239.06762c0.02453,0 0.04906,-0.00111 0.07359,-0.00222c0.00311,0.03663 0.00688,0.07325 0.01143,0.10988c-0.00011,1.39957 -0.00011,2.79802 -0.00011,4.19759c-0.0283,-0.00111 -0.0566,-0.00111 -0.08491,-0.00111c0,-1.43508 0,-2.86906 0,-4.30414" data-paper-data="{&quot;index&quot;:null}" fill="#df200f"/><path d="M240.62226,239.06762c-0.01676,-0.04884 -0.03352,-0.09878 -0.05028,-0.14761c-0.00844,-1.13097 -0.01743,-2.26195 -0.02408,-3.39292c-0.00067,-0.10655 -0.0121,-0.22864 0.14995,-0.2353c-0.00067,1.25861 -0.00133,2.51611 -0.002,3.77361c-0.02453,0 -0.04906,0.00111 -0.07359,0.00222" data-paper-data="{&quot;index&quot;:null}" fill="#ed2214"/><path d="M237.13011,235.07868c0.36737,0.49723 0.35095,1.0777 0.35916,1.65373c-0.002,0.22198 -0.00388,0.44506 -0.00577,0.66815c-0.03785,0.03885 -0.07547,0.03996 -0.11299,-0.00111c-0.08013,-0.77359 -0.16027,-1.54718 -0.2404,-2.32077" data-paper-data="{&quot;index&quot;:null}" fill="#ed3816"/><path d="M238.48184,237.40168c-0.00044,-0.03663 -0.00078,-0.07436 -0.00111,-0.11099c0,-1.10212 0,-2.20423 0,-3.30635c0.03696,0.00111 0.07403,0.00111 0.11099,0.00111c0,1.13874 0,2.27749 0,3.41623c-0.03663,0 -0.07325,0 -0.10988,0" data-paper-data="{&quot;index&quot;:null}" fill="#ed3e0f"/><path d="M242.04547,234.40498c0.03785,0.00333 0.07569,0.00555 0.11354,0.00888c0.05949,0.28635 0.06226,0.57159 -0.00166,0.85794c-0.28846,0.22975 -0.59101,0.16648 -0.89646,0.04329c0.78491,-0.01887 0.78491,-0.01887 0.78536,-0.80134c0,-0.03552 -0.00055,-0.07214 -0.00078,-0.10877" data-paper-data="{&quot;index&quot;:null}" fill="#f0573d"/><path d="M240.0005,233.62917c0.00633,0.03441 0.01254,0.0677 0.01876,0.10211c-0.25472,0 -0.50944,0 -0.76405,0c-0.14395,0 -0.2879,0 -0.43175,0c0.04173,-0.07214 0.08713,-0.09989 0.13274,-0.09989c0.34806,-0.00444 0.69623,-0.00222 1.04429,-0.00222" data-paper-data="{&quot;index&quot;:null}" fill="#ed2314"/><path d="M242.15901,234.41386c0.14839,0.28635 0.15894,0.5727 -0.00178,0.85794c0.00044,-0.28635 0.00111,-0.57159 0.00178,-0.85794" data-paper-data="{&quot;index&quot;:null}" fill="#ed2214"/><path d="M241.03647,234.06869c0.20489,-0.18646 0.33641,-0.101 0.43252,0.11654c-0.15572,0.00444 -0.30022,-0.0333 -0.43252,-0.11654" data-paper-data="{&quot;index&quot;:null}" fill="#ed2414"/><path d="M236.37916,234.27179c0.35494,-0.08768 0.40278,0.13985 0.41565,0.404c-0.13851,-0.1343 -0.27703,-0.26859 -0.41565,-0.404" data-paper-data="{&quot;index&quot;:null}" fill="#ed2712"/><path d="M235.4857,233.84893c0.20444,-0.17203 0.35039,-0.15871 0.41044,0.12875c-0.13674,-0.04218 -0.27359,-0.08546 -0.41044,-0.12875" data-paper-data="{&quot;index&quot;:null}" fill="#ee2914"/><path d="M213.29296,231.64802c-0.13785,0.18868 -0.34218,0.29079 -0.53785,0.40289c-0.3717,0.2131 -0.71155,0.47503 -1.0797,0.69257c-0.0162,0.01554 -0.03263,0.03108 -0.04917,0.04662c-0.23197,0.1798 -0.50045,0.30855 -0.71565,0.51166c-0.02142,0.01332 -0.04162,0.02775 -0.06038,0.0444c-0.2091,0.1576 -0.43452,0.28746 -0.67559,0.38957c-0.16349,0.03441 -0.22619,0.2475 -0.43552,0.23863c0.00422,-0.07547 0.00067,-0.14761 0.01343,-0.21643c0.41033,-2.22754 0.82831,-4.45287 1.22731,-6.68152c0.06193,-0.34628 0.20611,-0.49057 0.56083,-0.52276c1.69546,-0.15649 3.38593,-0.16981 5.0724,0.09434c0.01287,0 0.02586,0.0111 0.03907,0.0333c0.01365,0.02331 0.00277,0.04773 -0.03296,0.07325c-1.30656,0.07769 -2.60612,0.19978 -3.8765,0.54384c-0.30855,0.08435 -0.40877,0.19534 -0.31321,0.53386c0.31454,1.11544 0.59035,2.24197 0.88347,3.36296c0.04051,0.15427 0.15572,0.30855 -0.01998,0.45283" data-paper-data="{&quot;index&quot;:null}" fill="#fefefe"/><path d="M212.73302,231.97322c0.05072,0.03108 0.11953,0.04107 0.13596,0.11321c-0.3919,0.22975 -0.70278,0.60711 -1.19346,0.65816c0.24662,-0.40289 0.68125,-0.54717 1.0575,-0.77137" data-paper-data="{&quot;index&quot;:null}" fill="#544d4a"/><path d="M223.14321,237.55151c-0.16371,-0.24972 -0.21055,-0.54162 -0.29168,-0.82243c0.03763,-0.04773 0.07525,-0.09545 0.11288,-0.14318c0.16726,0.24861 0.22941,0.53497 0.29345,0.82132c-0.03818,0.04773 -0.07647,0.09656 -0.11465,0.14429" data-paper-data="{&quot;index&quot;:null}" fill="#4c4542"/><path d="M211.62625,232.7901c-0.12941,0.32298 -0.40466,0.44284 -0.71554,0.51166c0.12952,-0.32298 0.36671,-0.49501 0.71554,-0.51166" data-paper-data="{&quot;index&quot;:null}" fill="#5b5654"/><path d="M210.85021,233.34615c-0.0889,0.27747 -0.34162,0.3707 -0.56305,0.49834c-0.03751,-0.03552 -0.07503,-0.07214 -0.11254,-0.10877c0.197,-0.17869 0.35106,-0.43175 0.67559,-0.38957" data-paper-data="{&quot;index&quot;:null}" fill="#5b5554"/><path d="M212.73302,231.97322c0.16693,-0.14318 0.34739,-0.26193 0.55994,-0.3252c0.04084,0.03441 0.0818,0.06881 0.12275,0.10322c-0.18224,0.1121 -0.36449,0.2242 -0.54673,0.33519c-0.04528,-0.03774 -0.09057,-0.07547 -0.13596,-0.11321" data-paper-data="{&quot;index&quot;:null}" fill="#534b48"/><path d="M213.94979,247.40508c0.16382,0.06104 0.32775,0.12209 0.49157,0.18313c-0.02275,0.07547 -0.10011,0.08213 -0.15272,0.11987c-0.1626,-0.06215 -0.32531,-0.12431 -0.48791,-0.18646c0.04972,-0.03885 0.09945,-0.07769 0.14906,-0.11654" data-paper-data="{&quot;index&quot;:null}" fill="#4e4745"/><path d="M214.44136,247.58822c0.11743,0.0111 0.24207,0.00222 0.32131,0.11765c-0.04639,0.03552 -0.0929,0.07214 -0.13929,0.10766c-0.11154,-0.03441 -0.2232,-0.06992 -0.33474,-0.10544c0.05094,-0.03996 0.10189,-0.07991 0.15272,-0.11987" data-paper-data="{&quot;index&quot;:null}" fill="#453c3a"/><path d="M231.0466,246.61817c0.1495,-0.12542 0.25905,-0.31077 0.48447,-0.32076c0.05394,-0.00333 0.07592,0.01887 0.06093,0.07325c-0.0848,0.18313 -0.25683,0.26637 -0.41676,0.36293c-0.04295,-0.03885 -0.08579,-0.07769 -0.12864,-0.11543" data-paper-data="{&quot;index&quot;:null}" fill="#4e4542"/><path d="M231.53107,246.29742c0.10255,-0.22975 0.306,-0.34517 0.5161,-0.45172c0.03063,0.03219 0.06115,0.06326 0.09179,0.09545c-0.14773,0.18757 -0.30555,0.36182 -0.54695,0.42953c-0.00677,-0.03663 -0.02708,-0.06104 -0.06093,-0.07325" data-paper-data="{&quot;index&quot;:null}" fill="#4b4340"/><path d="M226.35822,231.95324c-0.25738,0.04884 -0.41765,-0.17536 -0.63929,-0.22642c0.03874,-0.0333 0.07747,-0.06548 0.11609,-0.09878c0.17436,0.10877 0.34884,0.21643 0.5232,0.3252" data-paper-data="{&quot;index&quot;:null}" fill="#332621"/><path d="M216.61308,226.64798c0.13352,-0.00777 0.27226,-0.04218 0.39124,0.07214c-0.12431,0.1343 -0.25627,0.06548 -0.38513,0.03441c-0.00455,-0.03552 -0.00655,-0.07103 -0.0061,-0.10655" data-paper-data="{&quot;index&quot;:null}" fill="#d9dada"/><path d="M237.4835,237.40057c0.03596,0.07991 0.09867,0.15871 0.104,0.24085c0.08513,1.31633 -0.16171,2.62488 -0.1071,3.94121c0.00633,0.15205 -0.0687,0.23974 -0.22209,0.25749c0.00499,-0.03774 0.00999,-0.07436 0.01509,-0.1121c0.12098,-0.52609 -0.0303,-1.0666 0.08535,-1.5938c0.004,-0.91122 0.00788,-1.82243 0.01176,-2.73476c0.03763,0 0.07525,0.00111 0.11299,0.00111" data-paper-data="{&quot;index&quot;:null}" fill="#e13c09"/><path d="M240.47098,243.49273c-0.54651,0.202 -1.09379,0.19867 -1.64163,0.00555c0.54717,-0.00222 1.09446,-0.00333 1.64163,-0.00555" data-paper-data="{&quot;index&quot;:null}" fill="#df200f"/><path d="M234.50867,242.05765c-0.04595,-2.05329 -0.01632,-4.10769 -0.01987,-6.16098c-0.00089,-0.56715 0.08635,-0.64595 0.6646,-0.71033c0.29523,0.40733 0.23496,0.87348 0.21709,1.33297c-0.08746,1.4029 -0.09101,2.80468 0.00133,4.20758c-0.01054,0.38624 0.01321,0.77803 -0.04095,1.15761c-0.05982,0.42065 -0.28824,0.64373 -0.7363,0.38846c-0.02852,-0.07214 -0.05727,-0.14318 -0.08591,-0.21532" data-paper-data="{&quot;index&quot;:null}" fill="#e24907"/><path d="M234.50867,242.05765c-0.01287,-0.05771 -0.02586,-0.11432 -0.03874,-0.17092c-0.11831,-0.75139 0.04972,-1.51389 -0.08757,-2.26417c-0.04606,-0.85239 -0.05272,-1.70368 0.00355,-2.55496c0.13108,-0.55161 -0.04262,-1.12099 0.09534,-1.6726c0.32786,-0.40178 0.32786,-0.40178 0.67204,-0.20977c-0.70755,0.15538 -0.55383,0.71588 -0.55494,1.19535c-0.00388,1.69702 0.00122,3.39514 -0.00377,5.09216c-0.00055,0.19645 0.06726,0.40844 -0.08591,0.58491" data-paper-data="{&quot;index&quot;:null}" fill="#e13c0b"/><path d="M235.3705,236.51932c0.07869,1.4029 0.07825,2.80468 0.00133,4.20758c-0.12353,-0.08879 -0.10943,-0.22198 -0.10943,-0.3485c-0.00067,-1.16982 -0.00055,-2.33964 -0.00011,-3.50946c0.00011,-0.12764 -0.01387,-0.25971 0.10821,-0.34961" data-paper-data="{&quot;index&quot;:null}" fill="#df200f"/><path d="M234.46993,241.88673c-0.03219,-0.05327 -0.06448,-0.10544 -0.09667,-0.1576c0.003,-0.70256 0.00599,-1.40512 0.0091,-2.10656c0.2182,0.74695 0.0646,1.50945 0.08757,2.26417" data-paper-data="{&quot;index&quot;:null}" fill="#e24907"/><path d="M234.38592,237.0676c-0.01387,-0.56049 -0.08579,-1.12321 0.09534,-1.6726c-0.04795,0.55716 0.12187,1.12543 -0.09534,1.6726" data-paper-data="{&quot;index&quot;:null}" fill="#e24907"/><path d="M237.2734,241.72801c0.01221,-0.53164 -0.02009,-1.0666 0.08535,-1.59269c-0.02297,0.53164 0.11965,1.07104 -0.08535,1.59269" data-paper-data="{&quot;index&quot;:null}" fill="#e24905"/><path d="M235.2574,157.59649c0.30322,-0.37703 0.64551,-0.40178 0.99068,-0.07647c0.18313,0.17259 0.24972,0.40167 0.1404,0.65617c-0.11199,0.26082 -0.29723,0.41721 -0.58702,0.42398c-0.3747,0.00866 -0.56282,-0.21865 -0.66793,-0.54451c0.04129,-0.15305 0.08258,-0.30611 0.12386,-0.45916" data-paper-data="{&quot;index&quot;:null}" fill="#fbfbfb"/></g></g></svg>