<svg width="104.084" height="140" xmlns="http://www.w3.org/2000/svg"><defs><clipPath id="prefix__a"><path d="M.06.61h937.787V1262H.06z"/></clipPath></defs><g clip-path="url(#prefix__a)" fill="#2f201b" transform="matrix(.11099 0 0 .11099 -.007 -.068)"><path d="M124.614 650.566c7.191 3.524 13.737 8.097 20.202 12.746 23.249 16.718 46.3 33.687 65.015 56.359 3.695-7.955 7.234-15.389 11.902-22.2 3.606-5.263 7.77-9.996 13.096-13.588 16.211-10.934 33.614-2.852 35.761 16.619.895 8.119-.048 16.118-3.733 23.37-6.226 12.254-7.587 25.385-8.112 38.744-.635 16.127.35 32.399-3.138 48.275-1.188 5.409-.436 9.712 1.846 14.562 9.682 20.575 19.063 41.294 28.387 62.035 1.413 3.144 2.598 3.609 5.769 2.05 13.58-6.679 27.394-12.866 41.571-18.19 2.397-.9 3.666-2.282 4.572-4.665 7.776-20.441 17.563-39.815 31.025-57.175 12.876-16.606 28.516-29.051 49.351-34.555 14.138-3.735 27.89-8.91 41.967-12.906 5.046-1.432 3.321-4.767 3.646-7.756.408-3.751-2.486-2.742-4.36-2.962-62.458-7.348-117.052-31.404-161.01-77.078-35.274-36.652-55.052-81.093-62.732-131.068-8.941-58.182-.274-114.406 19.37-169.366 8.106-22.68 16.675-45.171 26.223-67.285.704-1.631 1.549-3.17 1.158-5.213-7.927-41.389 2.467-79.124 23.186-114.714 7.062-12.131 15.734-23.099 25.352-33.313 1.502-1.594 2.558-3.018 2.356-5.605C328.526 86.542 355.5 41.85 411.95 17.857 439.249 6.254 467.958 1.056 497.583.613c3.579-.053 4.557.525 3.466 4.387-2.791 9.881-5.042 19.914-7.672 30.543 47.945-21.335 96.562-21.589 146.242-8.699-6.29 9.296-14.172 17.089-22.021 25.992 13.944 1.791 26.889 3.805 39.682 6.659 45.256 10.093 87.271 27.228 123.493 56.917 18.345 15.037 39.035 39.053 47.16 54.799h-23.862c-.175 2.117 1.395 2.813 2.28 3.844 36.922 43.053 58.138 93.062 65.25 149.066 8.285 65.231-1.609 128.219-23.065 190.061-20.232 58.315-50.024 111.355-84.932 161.832-.605.874-.762 2.29-2.597 2.484l-7.272-26.58-50.59 84.265-2.905-40.632-9.568 12.022c-3.331-1.633-5.984-3.868-6.842-7.703 1.663-5.46 6.105-9.029 9.286-13.444 3.502-4.86 7.252-9.552 10.925-14.292 1.017-1.312 2.248-3.002 3.999-2.545 2.219.578 1.762 2.921 1.882 4.661.569 8.275 1.098 16.551 1.848 25.848 10.508-17.344 20.343-33.864 30.257-50.335 3.179-5.282 6.237-10.641 9.558-15.83 1.418-2.216 2.038-6.163 5.504-5.553 2.985.524 2.773 4.181 3.535 6.646 1.804 5.838 3.124 11.823 5.112 18.31 9.623-14.504 18.196-28.764 26.532-43.161 21.79-37.628 39.367-77.13 52.111-118.723 8.413-27.459 14.255-55.43 17.125-84.069 1.798-17.952 2.5-35.926 1.635-53.859-1.77-36.711-9.179-72.256-23.98-106.127-7.853-17.971-17.94-34.563-29.276-50.471-7.769-10.439-16.172-20.319-25.527-29.382-1.626-1.575-4.404-3.265-3.54-5.571 1.028-2.739 4.345-1.706 6.731-1.775 6.15-.176 12.309.096 19.41-.187-3.009-4.601-6.142-8.345-9.317-12.002-28.936-33.336-65.531-55.111-106.529-70.084-24.995-9.128-50.822-14.85-77.251-17.885-2.161-.248-4.334-.094-6.487-.302-4.267-.411-5.074-1.878-2.64-5.434 3.387-4.947 7.062-9.695 10.839-14.36 5.161-6.377 5.145-6.466-2.821-7.728-12.509-1.983-25.153-3.525-37.761-3.238-29.287.668-57.566 6.236-83.751 20.171-3.099 1.649-5.971 3.644-8.981 5.423-.982.581-2.09 1.404-3.244.807-1.513-.783-.995-2.335-.803-3.58.945-6.105 2.78-12.008 4.225-17.999 1.444-5.994 2.974-11.968 4.473-17.948.579-2.312.525-3.88-2.7-3.618-28.011 2.27-54.977 8.464-80.06 21.512-35.493 18.462-56.019 47.384-59.951 87.433-.925 9.428-.541 18.998-.008 28.473.221 3.925-.947 6.582-3.545 9.282-18.995 19.737-33.322 42.354-41.769 68.534-6.243 19.346-9.074 39.142-7.681 59.729 10.125-18.191 21.213-35.57 34.403-51.507 10.753-12.994 22.307-25.194 36.319-34.812 5.502-3.776 6.648-3.699 10.757 1.293 17.869 21.71 40.099 37.941 64.658 51.148 40.602 21.834 84.319 33.628 129.745 39.839 12.541 1.715 25.166 2.544 37.742 3.88 5.643.6 6.302-.253 4.551-5.604-4.554-13.913-7.007-28.111-6.04-42.79.237-3.602-.582-8.674 2.782-10.004 3.688-1.457 5.29 3.626 7.395 6.155 27.9 33.524 52.488 69.347 73.407 107.609 11.923 21.808 22.207 44.406 29.7 68.187 1.072 3.402 1.788 6.856 1.191 10.332-1.169 6.798-.891 13.627-.808 20.445.273 22.402-1.725 44.756-1.202 67.163-.418-2.419.217-4.693.874-6.977 3.457-12.009 7.316-23.928 10.185-36.075 3.259-13.804 10.915-24.456 21.264-33.586 5.462-3.485 10.72-7.233 16.895-9.575 31.426-11.918 63.591 10.148 63.965 43.81.309 27.849-11.154 49.094-34.756 63.838-10.231 6.392-21.525 7.843-33.174 6.583-4.628-.501-6.03 1.306-7.212 5.259-9.784 32.725-22.89 63.928-42.564 92.11-18.065 25.877-40.146 47.493-67.209 63.862-3.401 2.056-6.469 4.126-6.711 8.55-1.559 2.018-2.576 4.855-6.032 4.043-2.674-8.585-1.421-12.324 5.917-16.652 15.289-9.018 29.293-19.796 41.853-32.235 15.207-15.061 27.826-32.221 38.447-50.852 13.279-23.294 22.818-48.097 30.408-73.724.602-2.034.851-3.868-.866-5.531-1.182-1.145-1.604-2.568-.625-4.059 1.124-1.713 2.759-1.587 4.454-1.046.635.203 1.266.419 1.882.672 15.813 6.492 30.151 2.699 43.301-6.82 16.435-11.896 24.977-28.658 25.974-48.544.886-17.688-6.725-34.505-23.212-42.018-15.905-7.247-30.364-2.948-43.737 6.38-10.521 7.339-17.79 17.188-21.134 29.926-5.708 21.745-11.958 43.346-18.1 64.974-.692 2.438-.945 6.589-3.737 6.188-2.865-.411-1.725-4.454-1.768-6.954-.144-8.326.035-16.656-.137-24.994-.019-17.421-.017-34.832-.016-52.233.105-8.323-.51-16.705.199-24.977 1.194-13.936-3.899-26.255-8.984-38.527-22.142-53.432-53.938-100.965-89.828-145.958-.303-.38-.584-.821-1.616-.708-.134 11.508 1.883 22.709 5.234 33.704 1.359 4.462 2.998 8.839 4.429 13.279 1.186 3.68.117 5.021-3.717 4.832-54.964-2.71-108.559-11.836-159.455-33.806-27.313-11.79-52.194-27.322-74.284-47.289-4.593-4.152-8.551-8.884-12.504-13.603-2.37-2.829-4.319-2.695-7.148-.632-14.026 10.227-25.273 23.161-35.924 36.651-22.757 28.823-39.262 60.973-50.765 95.794-10.615 32.132-21.108 64.292-27.474 97.611-4.551 23.823-6.523 47.907-5.261 72.099 1.85 35.455 9.449 69.655 25.451 101.582 21.576 43.046 53.929 75.67 96.416 98.266 27.183 14.457 55.961 24.095 86.48 28.369 5.436.761 10.885 1.528 16.391 1.654 3.914.09 6.208 1.757 6.45 5.979.18 3.152.821 6.284.667 9.46-.151 3.125 1.145 4.537 4.39 4.535 19.645-.015 39.268.025 58.886-1.702 14.788-1.302 29.47-3.077 44.055-5.791 13.471-2.506 26.633-6.089 39.411-11.058 1.399-.544 2.819-1.04 4.358-1.006 3.375.72 5.383 3.038 6.907 5.921-.01 2.267-1.667 3.559-3.072 4.925-37.436 36.391-77.389 69.702-120.919 98.62-5.007 3.327-6.871 2.92-11.258-2.444-10.238-12.519-17.599-26.655-22.793-41.893-3.972-11.653-7.903-23.374-7.577-35.958.078-2.99-1.455-3.337-3.852-2.422-5.442 2.078-10.93 4.038-16.334 6.231-12.459 4.729-24.856 9.63-37.194 14.628-14.788 5.989-25.461 17.373-34.76 29.968-11.753 15.921-20.608 33.446-27.403 51.977-1.888 5.151-4.776 8.285-10.054 10.012-13.465 4.404-26.427 10.131-39.318 15.988-6.412 2.913-6.501 3.378-3.997 10.229 1.312 3.591 2.455 7.082 5.781 9.625 2.284 1.746 2.528 4.986 3.107 7.743 2.364 11.261 3.195 22.737 4.663 34.124 2.299 17.825 4.097 35.745 4.586 53.667.421 15.42 1.806 30.8.782 46.35-1.049 15.95-1.539 31.89-4.345 47.66-.408 2.3-.834 4.59-1.41 6.85-4.565 16.08-15.395 23.21-31.784 20.97-1.391-.67-3.372-.7-3.3-2.99 3.4-2.04 7.354-1.75 11.044-2.59 6.021-1.35 11.471-3.54 14.549-9.4 1.785-3.4 1.461-3.88-2.387-3.74-9.723.34-19.226-.89-28.453-4.04-1.884-.64-3.817-1.21-5.281-2.7-1.267-1.75-1.876-3.47.261-5.04 2.256-.89 4.241.16 6.246.93 9.584 3.67 19.579 3.55 29.6 3.29 3.311-.09 4.069-2.38 4.497-4.99 1.863-11.34 3.369-22.76 3.597-34.24.317-16 .562-32.02-.048-48-.697-18.27-2.16-36.534-4.308-54.718-1.171-9.921-2.067-19.874-3.518-29.763-.319-2.172-.887-4.217-1.838-6.191-13.154-27.32-26.49-54.552-39.445-81.966-4.199-8.885-8.39-17.777-12.4-26.752-1.14-2.551-1.339-5.073-.642-7.782 2.337-9.081 3.109-18.343 3.313-27.7.344-15.799.314-31.634 3.01-47.282a58.432 58.432 0 015.241-16.111c2.166-4.367 3.476-9.003 4.297-13.794.397-2.321.53-4.641.089-6.96-.898-4.727-2.366-9.19-7.33-11.145-5.228-2.059-9.469.469-13.26 3.64-7.711 6.451-12.676 14.927-16.939 23.86-.716 1.501-1.408 3.036-1.931 4.608-4.051 12.189-10.165 22.849-19.966 31.613-6.161 5.509-10.461 12.923-14.828 20.039-.523.853-.975 1.753-1.571 2.554-1.389 1.87-2.778 4.309-5.566 2.641-2.774-1.661-1.446-4.139-.319-6.16 5.789-10.388 12.691-19.955 21.238-28.28a232.47 232.47 0 004.24-4.245c4.673-4.8 4.774-5.68.614-10.903-13.919-17.475-30.848-31.74-48.501-45.21-10.998-8.393-22.151-16.572-34.069-23.647-1.282-.761-2.623-1.485-3.42-2.844-.099-4.352 3.035-6.116 6.261-7.806"/><path d="M632.843 747.565l-6.469-5.198c6.343-4.646 4.974-11.267 4.617-17.679-.079-1.429-1.041-3.321 1.169-4.199l4.451-4.001c1.894 1.905 1.415 4.373 1.271 6.592-.267 4.109 1.508 6.128 5.472 6.769 2.941.475 5.778 1.482 8.564 2.54 2.297.872 4.492 1.037 6.681-.213 2.734.084 4.897-.35 3.588-3.952 1.39-3.811 3.41-7.136 7.088-9.183 3.357.522 3.704-1.235 2.911-3.858 2.109-5.67 6.474-9.725 10.223-14.216.522-.626 1.357-.895 2.223-.491l6.04 7.097-21.649 30.537c6.73 2.454 13.321 4.881 19.929 7.263 34.417 12.408 68.782 24.95 102.997 37.909 47.776 18.096 79.822 51.504 97.629 99.054 9.495 25.35 14.609 51.818 20.078 78.201 11.703 56.453 19.567 113.513 27.122 170.623.087.66.188 1.32.291 1.98 1.508 9.66 1.582 9.81-6.87 14.15-2.459 1.26-2.07 2.74-2.037 4.8.559 34.69-5.035 68.2-18.992 100.18-3.221 7.39-7.721 9.75-15.918 9.73-124.973-.37-249.946-.35-374.92-.4-53.322-.02-106.645-.03-159.967.15-4.113.02-4.412-1.39-4.295-4.83 1.251-36.62 2.34-73.24 3.467-109.86.04-1.31.005-2.62.005-4.29-16.567 2.93-32.842 5.23-49.292 6.16-12.837.73-25.656.78-38.436-.58-11.558-1.23-20.457-7.52-28.079-15.82-10.768-11.72-17.927-25.63-22.77-40.58-4.101-12.66-9.21-24.65-15.389-36.49-13.18-25.26-21.034-52.7-29.928-79.662-10.46-31.709-20.05-63.703-31.073-95.231-1.138-3.256-2.806-5.792-5.667-7.86-13.685-9.893-25.697-21.741-37.637-33.566-23.523-23.298-50.254-42.03-79.325-57.608-6.058-3.246-11.826-6.759-15.668-12.773-8.412-13.17-4.071-28.925 9.973-35.798 1.022-.5 2.079-.933 3.477-1.557-8.613-8.762-13.745-18.611-8.823-30.643 4.78-11.687 15.12-14.475 26.606-14.411-.597-3.133-1.486-6.033-1.654-8.974C33.09 663.903 44.46 653.283 59 655.082c6.876.851 10.151.164 14.046-6.529 6.032-10.361 17.242-10.785 28.094-8.567 8.559 1.749 16.242 5.736 23.474 10.58l-5.98 6.93c-1.589.749-2.952-.078-4.237-.761-5.901-3.14-12.108-5.496-18.484-7.443-2.201-1.876-4.403-3.652-6.786-.228-3.612 2.211-7.278 4.354-9.929 7.792-.555.189-1.523.026-1.639.487-.314 1.25 1.5.617 1.679 1.596.497 1.091.464 2.185.064 3.284-1.451 2.148-1.901 3.943 1.548 4.372 12.772 6.61 23.512 16.068 34.777 24.786 1.302 1.008 2.435 2.284 2.6 4.097-.203 1.695-1.118 2.81-2.727 3.361-3.327-.558-5.367-3.17-7.76-5.104-10.066-8.141-20.388-15.914-31.636-22.352-8.444-4.834-17.349-7.439-27.108-4.323-1.711 0-4.171-.891-4.177 1.903-.003 1.967-4.592 3.195-.836 5.572 1.136 13.128 10.567 19.849 20.248 26.466 2.745 1.876 6.712 2.398 7.713 6.41-.628 1.525-1.912 2.215-3.379 2.675-3.11.23-5.248-1.897-7.619-3.312-7.502-4.475-15.414-7.769-24.015-9.498-3.953-.794-7.632-.243-11.231 1.191-6.167 2.458-9.019 8.151-7.313 14.575 1.333 5.021 4.328 9.021 8.487 12.003 7.422 5.322 14.691 10.82 23.256 14.434 9.715 4.098 17.801 11.016 26.642 16.634 1.826 1.16 3.746 2.197 5.485 3.462 3.048 2.218 5.645 2.005 8.494-.471 5.65-4.911 11.649-9.407 17.445-14.148 2.894-2.367 2.928-3.749-.109-5.904-8.277-5.874-16.102-12.372-24.641-17.893-1.929-1.248-4.111-2.285-5.132-4.586-.049-2.113 1.199-3.15 3.048-3.692 2.35-.094 4.043 1.364 5.812 2.562 8.676 5.878 17.175 12.017 25.335 18.578 3.577 2.877 6.246 2.683 9.504-.241 4.079-3.66 8.374-7.107 13.039-10.012 3.034-1.889 4.118-3.668.634-6.173-.926-.666-1.512-1.765-1.638-2.997.099-1.632 1.005-2.69 2.407-3.397 4.477.476 5.989 5.099 9.571 6.84 1.096 1.044 1.925 2.227 1.962 3.816-.37 1.41-1.506 2.165-2.609 2.887-18.003 11.778-33.67 26.523-50.504 39.784-7.723 6.083-7.998 6.158-16.435.666-9.47-6.166-18.609-12.832-28.465-18.423-4.967-2.817-10.544-3.985-15.584-6.516-1.275-.846-2.378-3.828-3.998-.296-1.994 1.125-4.264.559-6.358 1.056-5.963 1.415-11.217 3.857-12.674 10.51-1.43 6.534 1.092 11.838 6.247 15.791 5.569 4.269 11.957 7.244 18.019 10.719 22.909 13.132 44.772 27.663 63.417 46.587 3.351 3.402 8.036 5.498 10.038 10.226-.522 3.393 2.173 3.34 4.254 3.945 7.879 4.594 13.197 12.151 20.365 17.584 2.776 2.105 5.238 4.719 8.175 6.547 6.183 3.848 9.238 9.464 11.589 16.188 14.172 40.543 25.979 81.855 40.064 122.418 7.484 21.56 15.001 43.1 27.092 62.67.261.42.36.93.461 1.42-.503 2.53-.654 4.86 2.917 5.06 3.48 1.63 5.327 4.98 7.56 7.73 7.855 9.7 17.55 16.98 28.38 22.93 1.267.7 2.807 1.2 2.99 3.01-2.095 1.21-.939 2.65-.295 4.06-1.23 1.2-2.473.45-3.69-.01-9.176-3.42-25.439-16.21-31.535-24.82.419 1.67 1.278 3.16.717 4.85-.849 1.62-1.906 3.3 1.157 3.71 3.814 4.07 5.138 9.5 7.598 14.3 3.723 7.25 8.108 13.96 13.683 19.89.686.73 1.264 1.53 1.504 2.52-.734 4.87 3.08 2.87 5.211 3.43 12.418 7.37 26.104 6.27 39.679 6.04 16.485-.28 32.759-2.43 48.956-5.33 2.616-.46 5.23-.93 7.814-1.57 1.904-.46 3.531-1.12 3.345-3.54 2.775-17.26 2.11-34.48-.523-51.68-.328-2.15-.59-4.31.567-6.34 2.668-1.7 4.024.25 5.471 1.96 2.305 8.36 3.188 17.01 3.387 25.55.575 24.57.278 49.16.156 73.73a18.007 18.007 0 01-.367 3.47c-.584 1.93-.725 3.9-.721 5.91.032 19.14-.038 38.27.051 57.4.594 4-1.032 8.22 1.186 12.05 1.529 1.42 3.426 1.14 5.235 1.14 45.16.01 90.319.01 135.478 0 1.816 0 3.71.24 5.118-1.32 1.493-2.28.983-4.84.967-7.28-.081-12.45-.183-24.89 2.208-37.18.852-3.48 1.075-7.11 2.267-10.53.909-2.44 1.097-5.06 1.794-7.56 2.134-6.72 2.896-13.94 7.248-19.84 3.303-.24 3.286-1.83 1.656-4.09.691-6.57 4.971-11.64 7.377-17.49.429-.83.884-1.64 1.364-2.43.353-.6.746-1.17 1.131-1.75 6.378-10.87 13.22-21.41 21.731-30.77 11.033-13.16 23.948-24.21 38.138-33.81 1.239-.83 2.528-1.73 4.041-.47.729 1.11.798 2.32.59 3.58-1.486 4.15-5.6 5.5-8.693 7.82-14.695 11.03-27.275 24.11-38.266 38.76-1.763 2.08-3.244 4.33-4.086 6.96-4.074 8.59-10.508 15.75-14.461 24.48-2.805 6.19-4.278 12.6-5.32 19.16-1.409 8.88-1.273 17.95-2.829 26.79-.959 5.46 2.429 9.05 4.153 13.39-.187.85-.714 1.35-1.576 1.49-2.09.02-3.004-1.84-4.549-2.95-7.384 9.31-7.729 20.1-6.982 31.15.159 2.34 1.572 3.02 3.709 3 9.798-.13 19.596-.02 29.394-.07 2.979-.01 4.172-1.21 3.708-4.32-.477-3.2-1.493-6.1-3.339-8.73-.257-.81-.049-1.46.683-1.92 3.182.43 5.439-.93 7.812-3.09 14.081-12.81 28.066-25.79 45.182-34.65 2.133-1.1 3.302-2.62 3.261-5.08-.027-1.65-.036-3.32.564-4.91.594-1.09 1.116-2.28 2.701-2.08 1.492 1.6.865 3.45.488 5.2-.964 4.49.322 7.97 3.782 11.11 16.724 15.17 32.568 31.33 50.841 44.73.939.69 1.825 1.45 2.612 2.31.525.53 1.06 1.05 1.655 1.49 35.453-.22 70.894-.03 107.127-.14-9.231-8.83-18.745-16.24-27.775-24.19-.961-.94-2.021-1.81-2.369-3.21.597-4.26 1.283-8.5 3.624-12.26 3.476-.55 2.256-2.49 1.263-4.35-.216-3.74.693-7.21 2.502-10.45 3.987-1.35 2.376-3.85 1.267-6.25-.391-3.43.99-6.56 1.709-9.79.646-2.91-.107-4.64-3.29-4.6-4.779.05-6.789-2.66-7.516-7-1.49-8.87-3.161-17.71-4.908-26.54-.392-1.97-.577-3.97.451-5.86.99-1.19 2.229-1.76 3.792-1.5 2.282 1.19 2.302 3.55 2.641 5.6 1.137 6.88 2.687 13.69 3.829 20.57 1.28 7.72 1.526 7.65 9.153 7.93 4.667.17 9.219-1.32 13.868-.6 2.054 3.45 4.006 1.3 5.977-.14 7.734-2.2 15.777-2.07 23.658-3.14 31-4.2 61.732-9.71 91.966-17.83 7.234-1.95 14.243-4.55 21.294-7.06 4.3-1.52 5.347-3.98 4.573-8.37-1.005-5.7-1.995-11.45-2.077-17.28 3.115-2.01 1.484-3.74-.341-5.46-2.521-8.16-2.876-16.68-4.058-25.05-7.594-53.73-16.669-107.201-28.869-160.096-4.647-20.147-11.157-39.681-20.624-58.2-9.881-19.328-23.485-35.389-40.548-48.662-3.671-2.855-7.694-5.261-11.007-8.566-.945-2.473-1.723-5.215-5.404-3.479-1.217.059-2.294-.372-3.328-.935-17.029-9.272-35.309-15.647-53.18-22.97-27.497-11.19-54.899-22.617-82.769-32.861-4.777-1.922-9.813-3.205-14.344-5.738-1.392-1.815-3.294-1.996-5.361-1.64-4.087-.693-7.949-2.205-11.928-3.29-2.844-.775-4.019-.25-3.648 2.969.476 4.134-1.179 7.028-5.574 7.833"/></g><path d="M70.156 79.898c.01.387-.016.777.036 1.158.082.604-.016 1.079-.678 1.27-2.209.871-4.5 1.419-6.847 1.74-3.233.442-6.482.548-9.74.48-.275-.006-.4-.068-.39-.371.013-.424-.06-.853-.023-1.273.044-.495-.232-.534-.604-.56a27.697 27.697 0 01-10.363-2.783c-8.027-3.924-12.753-10.344-14.29-19.118-.978-5.577-.307-11.038 1.266-16.427 1.039-3.559 2.064-7.132 3.65-10.485 1.927-4.075 4.475-7.727 8.048-10.577.383-.306.566-.27.887.116 2.064 2.486 4.665 4.298 7.507 5.772 4.188 2.173 8.67 3.42 13.316 4.124 2.25.34 4.511.537 6.831.623-.742-1.944-1.312-3.895-1.2-6.005.068.02.134.017.159.048 3.97 4.936 7.51 10.143 10.018 15.993.363.845.657 1.72.985 2.581a4.53 4.53 0 01.294 1.788c-.034 1.052-.026 2.105-.036 3.158-.084.094-.063.209-.061.317.051 2.788-.067 5.573-.124 8.359.017-.721.008-1.442.02-2.163.003-.139-.105-.344.145-.404.064 1.124-.075 2.251.05 3.402.173-.07.165-.238.204-.377.77-2.75 1.456-5.53 2.334-8.245.851-2.635 4.778-5.216 7.836-3.064 1.507 1.06 2.082 2.637 1.98 4.401-.157 2.699-1.416 4.786-3.84 6.065-1.34.707-2.747.813-4.162.165-.162-.074-.349-.21-.48.023-.115.205.06.306.21.376.159.075.206.145.15.337-1.668 5.761-4.175 11.035-8.75 15.113-1.162 1.036-2.404 1.969-3.763 2.725-.51.283-.747.594-.62 1.167.04.179.032.368.045.551" fill="#fbe4db"/><path d="M83.086 49.045c-.333.369-.661.743-1.001 1.106-1.053 1.12-1.24 2.602-1.66 3.983-.36 1.187-.685 2.385-1.079 3.569.042-1.612-.117-3.214.052-4.82.105-1.007.012-2.033.027-3.05.01-.681-.024-1.359.088-2.043.15-.916-.32-1.729-.62-2.552-1.65-4.522-4.067-8.637-6.785-12.583-1.481-2.15-3.044-4.241-4.824-6.284-.28 1.122-.228 2.18-.125 3.231.103 1.048.41 2.056.75 3.05.127.367-.024.43-.325.408-1.027-.075-2.059-.113-3.079-.24-1.803-.223-3.6-.483-5.382-.858-5.203-1.096-10.073-2.966-14.378-6.148a18.505 18.505 0 01-3.609-3.492c-.265-.34-.447-.303-.707-.115-.628.451-1.253.909-1.816 1.44-2.548 2.406-4.53 5.234-6.195 8.298-.05.091-.065.217-.273.258 0-.98-.076-1.952.017-2.91a19.219 19.219 0 014.687-10.88c.097-.11.149-.277.265-.35.997-.628.977-1.586.915-2.598-.138-2.264.21-4.453 1.225-6.5 1.18-2.378 3.036-4.098 5.36-5.332C47 2.365 49.56 1.658 52.232 1.294c.546-.074 1.103-.014 1.643-.181.312-.098.462.015.362.401-.387 1.49-.743 2.986-1.126 4.538C58.121 2.76 64.55 2.52 69.08 3.605c-.48.63-.95 1.234-1.401 1.85-.213.29-.656.561-.547.888.072.217.601.045.923.084 3.673.453 7.237 1.308 10.642 2.79 2.38 1.037 4.624 2.298 6.665 3.905 1.613 1.27 3.026 2.745 4.284 4.367.067.088.157.185.11.295-.056.128-.195.07-.295.07-.905.004-1.81.003-2.726.003-.002.267.208.362.344.49 1.023.964 1.899 2.058 2.787 3.142.054.066.067.166.099.25-.25.069-.419-.105-.603-.215-1.503-.901-3.081-1.606-4.843-1.804-1.453-.164-2.744.204-3.817 1.237-.312.3-.447.648-.466 1.083-.05 1.194.323 2.299.68 3.405.88 2.724 1.877 5.412 2.532 8.206.46 1.963.764 3.945.924 5.96.225 2.834-.083 5.6-.8 8.335-.102.39-.17.802-.486 1.1" fill="#542b06"/><path d="M16.152 79.663c-.423-.135-.612-.574-.993-.764-.808-.477-1.49-1.1-2.093-1.814-1.277-1.15-2.661-2.157-4.113-3.073-.217-.124-.32-.297-.242-.55l-.014-.441c-.048-.08-.036-.153.027-.22.225-.474.64-.712 1.106-.886.255-.193.514-.176.777-.018.926.147 1.73.603 2.553 1.01 2.218 1.373 4.304 2.927 6.314 4.587 1.304 1.077 2.443 2.306 3.513 3.612.349.426.24.698-.12 1.011-1.21 1.056-2.15 2.331-2.95 3.716-.102.178-.328.396-.021.555.265.137.333-.154.427-.312.826-1.39 1.775-2.68 3.022-3.726.17-.143.224-.328.293-.52.455-1.268.966-2.511 1.688-3.657.388-.615.838-1.175 1.473-1.555.975-.583 1.833-.225 2.121.87.235.891.045 1.74-.343 2.526-.623 1.258-.803 2.598-.888 3.968-.1 1.642-.032 3.29-.215 4.929-.037.33-.026.69-.16.98-.283.614-.075 1.123.185 1.665 1.821 3.785 3.62 7.581 5.456 11.359.371.764.378 1.575.475 2.371.532 4.371.873 8.755.701 13.164a32.428 32.428 0 01-.44 4.188c-.054.312-.175.42-.495.446-1.388.116-2.72-.109-4.02-.581-1.765-.836-3.138-2.135-4.314-3.664-.234-.103-.368-.279-.382-.538-1.667-2.559-2.544-5.455-3.522-8.305-.711-2.071-1.346-4.169-2.024-6.251-.753-2.31-1.456-4.637-2.306-6.914-.064-.173-.102-.358-.266-.471-1.387-.962-2.576-2.155-3.836-3.266-.206-.09-.424-.169-.459-.439-2.547-2.639-5.47-4.778-8.681-6.536-.501-.275-1.017-.535-1.479-.866-1.004-.721-1.135-1.938-.303-2.746.49-.476 1.146-.501 1.787-.518.156-.124.303-.077.448.024 1.664.388 2.965 1.45 4.355 2.348.478.31.952.872 1.455.823.468-.045.895-.596 1.325-.943 1.781-1.438 3.496-2.959 5.406-4.231.095-.304.475-.292.645-.562-.364-.12-.564.27-.873.215" fill="#fbe4db"/><path d="M83.086 49.045a24.14 24.14 0 001.087-5.056c.192-1.87.13-3.74-.057-5.618-.452-4.538-1.996-8.778-3.407-13.06-.369-1.12-.712-2.247-.63-3.456.022-.333.11-.602.344-.843 1.194-1.233 2.629-1.654 4.324-1.413 1.93.275 3.617 1.09 5.218 2.14.802.9 1.382 1.947 1.985 2.977 1.427 2.439 2.386 5.068 3.057 7.8.35 1.425.574 2.876.746 4.338.2 1.692.229 3.384.2 5.08-.047 2.874-.437 5.707-1.028 8.52-.642 3.06-1.659 6.004-2.773 8.91-1.065 2.776-2.435 5.419-3.904 8.008a91.89 91.89 0 01-3.137 5.145c-.047.072-.1.141-.19.27l-.9-3.23-5.11 8.506a45.176 45.176 0 01-.287-3.744c-.32.07-.392.348-.543.54-.648.823-1.286 1.656-1.932 2.481-.081.104-.17.196-.17.337-.529.487-.924 1.081-1.33 1.667-.017.219-.107.382-.334.444-.327.28-.533.653-.776.999-.048.195-.128.366-.333.443-.22.273-.477.334-.796.164-.143-.077-.31-.11-.467-.16-1.284-.415-1.284-.415-1.293-1.78-.07-.456.111-.712.53-.955a22.518 22.518 0 005.43-4.407 28.689 28.689 0 004.96-7.67 45.527 45.527 0 002.046-5.603c.11-.374.254-.45.67-.389 1.9.284 3.585-.255 4.994-1.554 1.893-1.746 2.808-3.929 2.555-6.496-.3-3.038-2.871-5.254-6.062-4.562-.784.17-1.511.458-2.16.944-.154.116-.304.279-.527.283" fill="#3b0d00"/><path d="M39.698 118.637c-.001.74.086 1.474.204 2.2.237 1.464.042 2.909-.13 4.357-.115.45-.443.237-.669.18-1.57-.4-3.12-.872-4.63-1.464-.192-.076-.453-.094-.459-.395.522-2.618.682-5.271.642-7.93a85.61 85.61 0 00-.71-9.88c-.159-1.206-.218-2.426-.564-3.601-.059-.198-.01-.52-.413-.425-.108.026-.132-.151-.17-.254-.14-.38-.252-.775-.435-1.135-.21-.413-.04-.578.322-.744 1.61-.743 3.232-1.452 4.916-2.01.404-.134.622-.35.775-.759 1-2.679 2.272-5.21 4.238-7.333.981-1.06 2.13-1.855 3.515-2.326 1.185-.403 2.342-.89 3.51-1.34.26.18.18.467.215.71.29 1.983.287 1.984-1.328 3.133a1.174 1.174 0 01-.24.135c-.3.055-.504.24-.659.492a.74.74 0 01-.247.185c-.448.216-.714.637-1.071.953-.227.252-.529.437-.674.76a.4.4 0 01-.25.249c-.263.1-.404.314-.508.56-.88 1.169-1.855 2.261-2.762 3.409a.66.66 0 00-.203.398 2.712 2.712 0 00-.09.505c-.894 3.362-1.465 6.781-1.817 10.237-.14 1.375-.292 2.754-.265 4.143.015.776-.148 1.543-.113 2.323.062 1.364.105 2.729.188 4.092.012.202.044.408-.118.575" fill="#ee4f0a"/><path d="M48.135 89.67c.62-.285 1.075-.813 1.666-1.147.182-.102.123-.357.098-.56-.09-.727-.173-1.456-.258-2.184.623-.323 1.305-.5 1.947-.775.351-.15.378-.015.394.289.176 3.254 1.384 6.119 3.326 8.697.526.7.54.686 1.273.191 4.807-3.247 9.244-6.947 13.4-10.987.091-.09.168-.193.25-.29.343-.274.698-.518.45-1.069-.112-.248-.022-.462.35-.34.536.177 1.082.323 1.624.481a.627.627 0 01.544.163l1.536.63c.01.08-.02.144-.067.204a1.226 1.226 0 01-.273.232 1.81 1.81 0 00-.363.311c-.131.129-.26.26-.418.358a1.84 1.84 0 00-.361.309c-.1.1-.21.188-.328.268-.159.105-.288.244-.422.377a2.06 2.06 0 01-.33.266 1.779 1.779 0 00-.362.31c-.132.13-.263.262-.422.362-.138.086-.253.2-.364.318-.166.178-.366.317-.54.486-.514.445-.515.445.058.828a60.508 60.508 0 014.709 3.515c.203.205.396.422.648.573 1.43 1.294 2.697 2.717 3.647 4.415.58 1.036.731 2.153.79 3.3.018.35-.007.702.105 1.042.03.906.049 1.81-.01 2.715-.171.907-.004 1.835-.172 2.743-.033.178-.012.367-.048.548a1.92 1.92 0 00-.072.77c-.23 2.456-.531 4.903-.84 7.35-.068.542-.025 1.108-.291 1.617a.483.483 0 01-.58.02c-.155-.469-.09-.952-.025-1.417.337-2.437.608-4.884.894-7.328.078-.248.095-.502.07-.76.063-.68.11-1.362.155-2.043.113-.347.078-.703.065-1.057 0-.399-.007-.798 0-1.196.02-.434.013-.868.004-1.301.03-.932-.044-1.86-.133-2.785a.902.902 0 01-.045-.17c-.18-1.528-1.08-2.668-2.048-3.768-.12-.136-.282-.236-.37-.404-.383-.503-.81-.963-1.337-1.321-.499-.313-.878-.773-1.3-1.162-1.471-1.355-3.117-2.462-4.743-3.602-.307-.265-.458.043-.654.18-.298.253-.592.51-.89.764-.218.16-.398.36-.587.55-.363.295-.732.582-1.08.895-.22.164-.403.368-.595.561-1.008.815-1.963 1.691-2.936 2.545-.231.151-.413.357-.604.552-.421.384-.892.711-1.293 1.119-.274.198-.509.442-.76.666-.111.133-.23.256-.376.352-.21.139-.374.33-.551.504-.143.14-.288.278-.454.39-.25.17-.44.402-.654.61-.181.171-.351.356-.56.495-.254.171-.448.406-.664.617-.18.172-.35.356-.56.496-.304.178-.47.534-.83.642a.453.453 0 01-.228-.023c-.207-.11-.348-.296-.517-.45-.244-.284-.454-.593-.685-.888-.132-.16-.279-.306-.394-.48-1.518-2.036-2.556-4.308-3.288-6.73-.038-.127-.08-.253-.114-.381-.08-.341-.187-.677-.247-1.021-.068-.394-.25-.385-.528-.198-.506.34-.969.736-1.442 1.117-.092.085-.183.17-.273.258a2.859 2.859 0 01-.348.285c-.298.232-.557.507-.837.759-.726.79-1.493 1.538-2.265 2.282-.318.309-.632.62-.885.987-.355.322-.659.692-.973 1.052-.116.113-.232.229-.416.198a.192.192 0 01-.119-.102l2.802-3.367c.098-.271.296-.449.544-.58l.233-.234c.171-.342.506-.536.742-.82.339-.322.638-.688 1.027-.957l.216-.144c.163-.2.33-.396.562-.522" fill="#fefefe"/><path d="M68.583 83.546c-.943.874-1.864 1.774-2.835 2.616-1.25 1.083-2.534 2.127-3.815 3.174-1.796 1.467-3.676 2.822-5.584 4.14-.234.161-.374.17-.582-.086-.92-1.13-1.564-2.412-2.083-3.757-.437-1.134-.745-2.311-.987-3.503-.16-.786-.045-.996.727-.885 1.626.233 3.238-.04 4.855-.045 1.352-.005 2.705-.216 4.054-.368 2.117-.24 4.194-.68 6.25-1.286" fill="#3f2e2f"/><path d="M34.014 123.515c1.026.556 2.157.831 3.25 1.203.626.212 1.27.37 1.911.532.193.048.42.192.596-.056.057.285-.083.383-.35.44-1.734.364-3.481.642-5.25.752a29.69 29.69 0 01-3.205.037c-.951-.045-1.821-.239-2.61-.774-.24-.003-.372-.136-.43-.36-1.194-1.158-1.87-2.638-2.54-4.118-.152-.108-.199-.251-.143-.428l-.292-1.003c1.259 1.422 2.516 2.603 4.192 3.213 1.237.544 2.533.72 3.873.623.14-.011.312-.109.408.037.091.136-.046.277-.098.408-.256.641-.726 1.059-1.392 1.229-.55.14-1.106.27-1.682.265-.044.346.29.062.36.215.536.026 1.07.012 1.586-.15 1.015-.325 1.656-.985 1.816-2.065" fill="#e24905"/><path d="M78.962 57.259c-.21.591-.048 1.203-.093 1.803-.02.273-.004.55-.112.825 0-1.007-.076-2.021.024-3.018.082-.814.065-1.62.08-2.429.018-.923.002-1.848.008-2.772 0-.177-.061-.375.113-.518l-.02 6.109" fill="#fae6e0"/><path d="M30.613 125.73h-.785c.112-.282.288-.2.424-.215.06.174.274.086.36.215" fill="#b6673e"/><path d="M47.994 90.547c.61-.607 1.316-1.083 2.087-1.554l.371 1.674c-.078.138.026.223.094.32.594 1.76 1.255 3.493 2.232 5.086.353.575.734 1.132 1.102 1.698-.02.247.214.32.325.479.349.167.414.584.706.802.065.23.21.386.433.472l.223.046c.364-.097.526-.423.761-.667l.514-.49c.33-.1.497-.384.706-.621l.54-.52c.334-.073.47-.374.681-.588l.404-.38c.285-.07.425-.308.596-.511l.38-.354c.338-.105.51-.402.731-.642.371-.47.902-.765 1.315-1.188.299-.03.395-.301.57-.477l2.981-2.634c.301-.023.393-.3.571-.471.296-.401.756-.619 1.094-.972.302-.022.392-.3.571-.47a4.95 4.95 0 01.935-.81c.233-.11.438-.32.734-.199a36.272 36.272 0 014.557 3.38c.44.385 1.052.632 1.272 1.255.039.11.175.122.284.142.401.466.836.9 1.302 1.302.225.397.648.604.91.976.702 1 1.444 1.972 1.557 3.25-.023.07-.008-.029-.035.039-.034.083-.008.17-.033.25.036-.064-.005-.158.078-.205.197.962.244 1.935.212 2.913-.099.44-.09.882-.005 1.323l-.017 1.233c-.095.343.021.7-.072 1.044.013.692-.064 1.377-.147 2.062-.093.227.01.475-.075.702-.106 1.206-.205 2.408-.431 3.603-.166.87-.167 1.773-.261 2.659-.087.813-.202 1.625-.304 2.437-.137.204-.355.172-.552.178-2.496.074-4.917.523-7.249 1.435a21.425 21.425 0 00-3.28 1.606c-.187.112-.355.275-.602.24-1.595.956-2.964 2.181-4.22 3.542-.113.122-.23.239-.344.358-1.144.472-2.29.94-3.53 1.108-.627-.293-1.283-.46-1.98-.44-.185-.02-.384-.167-.538.066a.679.679 0 01-.452.32c-.229.009-.316.168-.374.356-.064.204-.16.389-.323.532-.342.448-.217 1.015-.381 1.51-.176.239-.428.381-.68.515-.148.08-.337.199-.43-.082-.003-1.032 0-2.064-.009-3.095.023 1.072-.012 2.145.012 3.217a.291.291 0 01-.033.192c-.06.045-.118.044-.175-.005-.168-.247-.124-.53-.127-.803-.008-.717-.007-1.434-.001-2.15.003-.375-.159-.519-.53-.531-.486-.017-.948.112-1.42.17-.21.037-.459-.195-.639.087-.117.171-.326.154-.486.24a1.552 1.552 0 00-.114.077c-.085.214-.113.423.052.615.286.124.566.038.847-.024.195-.016.385-.02.524.153.176.54.068 1.097.083 1.646.016.645.016 1.29-.004 1.934a.743.743 0 01-.035.182c-.468.538-1.017 1.004-1.457 1.575-.547.71-1.018 1.441-1.07 2.377-.055.989.425 1.74 1.067 2.402.983 1.015 2.162 1.776 3.382 2.474.384.218.777.425 1.148.664.18.115.308.283-.07.306-4.5-.001-8.997 0-13.495-.003-.198-.002-.406.06-.594-.06v-1.434c.1-.438.04-.88.043-1.32.008-1.753.002-3.504.005-5.255 0-.182-.038-.37.042-.546.01-2.328.006-4.656.038-6.983a20.487 20.487 0 00-.242-3.308c-.055-.373-.085-.75-.126-1.126-.25-.457-.228-.973-.248-1.46-.042-1.086-.133-2.176-.113-3.258.028-1.454.078-2.91.17-4.364.124-1.972.327-3.933.585-5.89.29-2.19.684-4.362 1.216-6.507.026-.174.062-.347.11-.516a.395.395 0 01.064-.143c.177-.197.473-.28.548-.575.278-.4.577-.78 1-1.041.252-.383.697-.604.87-1.052l2.282-2.27c.38-.139.582-.478.842-.752l.32-.295c.145.026.195-.066.224-.183" fill="#ee4f0a"/><path d="M78.97 115.951l.84-7.277c.064-.567.125-1.133.188-1.7.087-.224-.017-.47.073-.694l.222-3.33c.148.39.026.786.073 1.112v-4.5c-.034.166.057.378-.075.575-.03-.33-.081-.659-.087-.989-.03-1.827-.708-3.398-1.835-4.809-.803-1.004-1.718-1.9-2.618-2.813-.175-.176-.272-.446-.569-.477a56.415 56.415 0 00-4.718-3.554c-.76-.516-.76-.516-.016-1.048.122-.075.265-.086.397-.132 1.329-.06 2.652.065 3.977.12 1.439.06 2.876.104 4.312-.011 1.015-.081 2.03-.012 3.044-.047.604-.02 1.21-.163 1.808.05 1.955.728 3.896 1.487 5.759 2.432.18.091.364.175.546.262.26-.014.411.15.55.335 2.873 1.878 5.019 4.373 6.395 7.526.8 1.831 1.372 3.736 1.816 5.68 1.235 5.411 2.181 10.876 2.984 16.367.192 1.312.305 2.635.58 3.933.095.146.146.294.026.452.1.748.17 1.503.309 2.244.085.452-.063.652-.474.814-1.808.714-3.687 1.17-5.577 1.588-3.28.725-6.6 1.195-9.934 1.568-.147.082-.295.14-.447.012-.697.026-1.394.031-2.088.084-.437.033-.608-.121-.681-.556-.187-1.117-.427-2.226-.646-3.337-.182-.14-.183-.355-.22-.551-.798-4.12-1.542-8.25-2.364-12.365-.038-.19-.043-.386-.068-.579-.037-.069-.104.049-.046.003.023-.016.04-.004.041.038.036 1.058.311 2.079.473 3.118.092.596-.018.741-.626.737-.456-.004-.926.014-1.324-.281" fill="#ee4f0a"/><path d="M74.43 138.602c-2.112-1.545-3.958-3.391-5.881-5.15-.467-.428-.629-.86-.514-1.447.031-.16.027-.33.04-.493-.273-.413-.035-.83.027-1.226.144-.922.394-1.824.651-2.722.119-.299.216-.605.315-.911.232-.622.475-1.24.733-1.85.142-.337.342-.61.69-.753 2.46-1.01 4.926-1.995 7.577-2.4.165-.026.328-.052.494-.014.243.063.43.23.648.343.376.21.703.503 1.112.657.07.034.13.08.184.134.167.191.378.319.604.426a.722.722 0 01.18.138c.17.193.394.32.596.475.813.51.875 1.315.842 2.156.226 1.29.457 2.577.674 3.866.044.26.195.334.422.337.274.002.548 0 .854 0l-.377 1.895c.084.203.046.378-.125.52a4.816 4.816 0 00-.316 1.256c.079.175.022.316-.114.436l-.438 1.345c-.104.236-.336.276-.542.344-1.525.512-3.057 1-4.565 1.559-.185.05-.365.113-.545.177-.13.044-.26.086-.389.136-.737.24-1.47.493-2.209.731-.204.066-.41.19-.629.035" fill="#fefefe"/><path d="M93.571 138.891c-1.83 0-3.662-.01-5.493.008-.441.006-.602-.029-.49-.564a382.36 382.36 0 001.613-8.204c.066-.356.268-.342.493-.369 2.221-.256 4.438-.543 6.644-.904 1.75-.285 3.494-.604 5.185-1.148.333-.107.4-.05.427.282.166 2.09-.238 4.123-.621 6.153-.282 1.489-.722 2.934-1.38 4.308-.156.323-.342.453-.718.448-1.886-.022-3.773-.01-5.66-.01" fill="#fbe4db"/><path d="M59.1 135.079c-.577-.44-.571-1.048-.506-1.686.115-1.141.185-2.284.384-3.419.17-.97.591-1.82 1.07-2.649.342-.593.758-1.143 1.14-1.714.142-.21.323-.388.461-.6.957-.933 1.901-1.881 3.04-2.602.31-.195.614-.401.952-.548.239-.04.448-.189.698-.19.432.141.736.478 1.093.732.75.535 1.454 1.13 2.198 1.672.272.199.367.407.212.75a17.047 17.047 0 00-.702 1.796 6.47 6.47 0 00-.308.872c-.434 1.386-.68 2.812-.94 4.236.078.766-.275 1.163-.966 1.534-1.769.948-3.23 2.322-4.647 3.727-.27.266-.455.293-.717.061a1.49 1.49 0 01-.617-.355c-.152-.113-.31-.22-.456-.34a4.104 4.104 0 01-.56-.457c-.294-.256-.654-.445-.829-.82" fill="#fefefe"/><path d="M69.077 126.586c.147-.612.401-1.184.672-1.746.14-.29.088-.44-.164-.63-1.097-.815-2.176-1.653-3.262-2.483-.082-.025-.142-.069-.153-.16.157-.62.702-.931 1.108-1.34a10.8 10.8 0 012.296-1.749c-.703.338-1.452.766-2.194 1.211-.18.108-.346.3-.6.198l-.02-.488c2.182-1.51 4.61-2.431 7.187-2.987 1.48-.321 2.985-.433 4.496-.471l.527.01c.515.044 1.03.082 1.544.134.273.028.362-.045.301-.337-.173-.83-.314-1.666-.476-2.498-.073-.373-.081-.733.182-1.157.234 1.166.463 2.259.67 3.353.619 3.26 1.23 6.52 1.84 9.781.037.2.049.403.073.604l-.376.134c-.056-.227-.147-.451-.162-.681-.04-.617-.262-1.117-.811-1.44-.016-.112.058-.145.145-.165.272-.054.157-.255.132-.396-.355-1.999-.74-3.992-1.096-5.991-.075-.419-.326-.559-.726-.612-1.547-.204-3.09-.024-4.632.009-.06.009-.123-.013-.184.003.061.01.122-.005.186 0 1.212-.083 2.387.132 3.55.419.596.147.695.358.562.972-.259 1.188-.673 2.336-.87 3.538-.033.09-.069.18-.196.13-1.653.125-3.22.616-4.77 1.156-1.113.387-2.197.859-3.3 1.278-.3.115-.473.301-.585.6-.243.656-.518 1.297-.78 1.944-.113.011-.155-.033-.114-.143" fill="#2f201b"/><path d="M53.561 127.29c.386-.088.636-.417.992-.558.2.195.148.434.121.67-.143.613-.112 1.244-.051 1.854.072.73.075 1.458.1 2.186.002.093.03.18.082.256.137.173.214.38.33.566.384.614.89 1.054 1.634 1.173.193.031.407.017.56.182-.237 1.726-.275 3.46-.218 5.2a8.944 8.944 0 01-2.441 0c-1.207-.706-2.452-1.348-3.563-2.21-.715-.555-1.418-1.125-1.886-1.916-.756-1.278-.53-2.783.622-4.064.464-.515.822-1.146 1.492-1.454.133.732.036 1.47.056 2.205.017.629.005 1.26.004 1.889.006-1.384 0-2.769.004-4.151a.205.205 0 01.078-.184c.324.158.247.467.255.727.032 1.198-.036 2.398.041 3.592.318.295 1.113.313 1.387.027.01-1.645-.003-3.288.007-4.93.002-.288-.06-.599.183-.837l.098-.001c.117.417.049.842.052 1.264.01 1.476.004 2.953.005 4.43.002-1.905.001-3.811.002-5.717a.31.31 0 01.054-.198" fill="#e24905"/><path d="M8.728 79.418c1.288.923 2.595 1.82 3.89 2.861-.961.777-1.903 1.53-2.835 2.297-.183.151-.304.05-.44-.04-.602-.393-1.22-.764-1.798-1.192-1.412-1.044-3.124-1.584-4.49-2.704-.464-.38-.895-.769-1.105-1.348-.34-.94.117-1.806 1.08-2.056.816-.211 1.568.028 2.317.304.799.294 1.5.778 2.26 1.147.47.097.82.376 1.121.731M14.924 79.262c.156.29.673.42.603.7-.061.247-.496.396-.758.598-.496.382-1 .757-1.474 1.165-.232.199-.377.168-.604-.005-1.185-.902-2.353-1.83-3.632-2.6-.424-.125-.795-.331-1.07-.687-.75-.524-1.582-.929-2.238-1.593-.568-.573-1.002-1.19-.94-2.043-.003-.428.087-.798.576-.917.926-.416 1.804-.186 2.657.222 1.611.77 2.97 1.908 4.35 3.012.143.113.292.219.438.328.559.166.89.643 1.303.995.283.242.666.42.789.825" fill="#fbe4db"/><path d="M57.329 133.62c-1.267.005-2.124-.577-2.545-1.78a.508.508 0 01-.095-.17c-.061-.521.044-1.05-.07-1.568a16.872 16.872 0 01-.025-2.66c.103-.788.002-1.604.318-2.363.268-.005.17-.313.335-.403.064-.211.17-.38.416-.404l.483-.294a.39.39 0 01.41-.13c.752-.076 1.471.002 2.113.446.79.442 1.176 1.347 1.003 2.36-.02.125-.094.243-.039.376-.339.667-.706 1.323-.945 2.037a.352.352 0 01-.148.413c-.377.707-.534 1.492-.78 2.246-.075.028-.132.005-.17-.066-.162-.679-.038-1.37-.08-2.053.003-.821 0-1.642 0-2.462-.005-.517.03-1.036-.02-1.552-.132-.198-.21-.522-.547-.226-.172.41-.107.843-.118 1.268-.002 1.32 0 2.638 0 3.954.008.311-.01.622-.004.933.007.431.176.701.647.7.132.063.174.156.094.288l-.233 1.11" fill="#fefefe"/><path d="M83.986 86.427c-1.412.136-2.83.104-4.246.148-.825.025-1.65.09-2.477.096-2.171.015-4.335-.179-6.504-.229-.062-.213.201-.267.216-.442l.35-.309c.237-.006.332-.182.429-.356a.82.82 0 01.35-.307c.179.01.259-.102.307-.253a1.46 1.46 0 01.47-.41c.178.007.258-.106.31-.253a.84.84 0 01.354-.31c.238-.003.331-.18.428-.354a.83.83 0 01.35-.306c.18.01.259-.104.31-.252l.102-.12c1.415.423 2.769 1.012 4.137 1.56 1.71.684 3.41 1.397 5.114 2.097" fill="#e24905"/><path d="M83.524 135.797L87 138.778c-.148.18-.307.1-.44.1-3.914.01-7.829.013-11.743.019-.115 0-.28.079-.244-.157.897-.388 1.832-.671 2.76-.972.125-.058.26-.085.388-.134.183-.061.362-.137.547-.191 1.51-.538 3.044-1.01 4.554-1.552.227-.082.454-.157.7-.094M61.444 137.16c.648.358.46 1.013.545 1.567.03.202-.163.153-.279.153-1.273.003-2.545.001-3.818.003-.163.002-.282-.02-.302-.225-.131-1.324-.096-2.614.675-3.78.147-.224.23-.223.394-.032.103.12.193.273.374.307.314.213.59.474.88.715.197.14.365.32.564.458.155.111.304.231.456.347.151.182.423.238.511.487" fill="#fefefe"/><path d="M41.797 97.23c-.31 1.798-.641 3.593-.924 5.395a76.275 76.275 0 00-.741 6.71c-.117 1.732-.198 3.467-.18 5.203.016 1.439.112 2.877.172 4.315l-.426-.216c-.322-3.464-.235-6.922.073-10.383.337-3.77.967-7.484 1.932-11.142.098-.013.168-.004.094.119" fill="#2f201b"/><path d="M66.78 119.887c1.061-.609 2.086-1.288 3.277-1.665-1.395 1.015-2.862 1.942-3.85 3.406-.104.222-.348.218-.523.325-1.013.556-1.909 1.276-2.793 2.01-.416.344-.655.878-1.178 1.111-.135.076-.17.01-.161-.115 1.305-1.85 2.906-3.4 4.748-4.71.163-.116.32-.241.48-.362" fill="#fdfdfd"/><path d="M59.633 127.03c-.025-.365-.042-.732-.079-1.096-.068-.667-.413-1.188-.885-1.64.726-.048 1.365-.398 2.05-.593.49-.14.963-.347 1.477-.401-.896 1.078-1.665 2.246-2.42 3.422-.122-.256-.008-.532-.075-.83-.006-.038-.12.052-.05.028.02-.007.03.001.034.023.063.304.037.61.013.917l-.065.17" fill="#e24907"/><path d="M54.67 138.82h2.44c-.128.203-.333.117-.503.118-5.247.005-10.494.006-15.74.002-.169 0-.375.093-.503-.115 4.769-.003 9.537-.005 14.306-.006" fill="#94735e"/><path d="M14.924 79.262l-2.092-1.82.234-.357A19.525 19.525 0 0115.16 78.9l-.235.363" fill="#2f201b"/><path d="M83.524 135.797l-4.913 1.627c-.12.04-.246.065-.37.098-.115.045-.157-.003-.149-.117l5.216-1.785.216.177" fill="#403532"/><path d="M40.454 130.27l-.002 6.811c0 .112-.002.222-.087.31 0-2.27 0-4.54.005-6.81 0-.104.055-.208.084-.311" fill="#a9795c"/><path d="M67.892 131.73c.085-1.486.433-2.915.892-4.323.113-.01.157.032.115.145-.34 1.306-.687 2.611-.824 3.96l-.183.217M7.989 78.433c.39.175.742.413 1.07.686l-.33.3-1.121-.732c.089-.142.246-.182.381-.254M77.418 137.814c-.943.321-1.866.71-2.844.926l-.145-.138 2.85-.896c.112-.049.148.001.14.108M16.152 79.663c.215-.137.423-.284.645-.406.13-.073.294-.107.38.07.08.17-.03.276-.17.352-.207.113-.417.22-.627.33l-.228-.346M5.387 73.88c-.292.243-.503.537-.577.917-.067.057-.146.171-.2.16-.138-.027-.131-.18-.095-.27.109-.276.328-.487.394-.804.032-.155.311-.122.478-.003" fill="#2f201b"/><path d="M59.903 135.941c-.34-.206-.66-.437-.87-.788a.256.256 0 01.067-.074c.352.193.627.476.895.767.033.093.007.128-.092.095" fill="#504846"/><path d="M73.206 81.23c.092-.162.133-.362.333-.443.126.127.282.27.13.448-.129.15-.31.161-.463-.005M10.607 71.897l-.777.018c.296-.466.466-.47.777-.018M74.315 79.788l.334-.444c.125.127.282.27.129.449-.128.149-.31.16-.463-.005M24.48 118.3l.382.539c-.583-.007-.632-.076-.382-.538M90.84 89.456a1.372 1.372 0 01-.55-.335c.446-.27.525-.222.55.335M58.54 129.48c-.013-.16.076-.284.148-.413.224.064.344.221.232.428-.09.166-.26.169-.38-.015M8.71 73.461l.243.551c-.165-.02-.389.08-.44-.184-.033-.162-.036-.335.198-.367M27.927 125.29l.43.36c-.14.142-.301.206-.46.05-.136-.133-.117-.284.03-.41M84.176 132.584c-.007-.186.012-.364.125-.52.281.034.252.248.201.418-.039.132-.156.264-.326.102M86.519 129.64l.447-.012c-.084.163-.147.35-.389.325-.09-.009-.216.006-.219-.105-.001-.068.104-.139.16-.208M3.839 82.013l-.448-.024c-.057-.065-.164-.133-.16-.196.006-.147.148-.11.247-.116.234-.012.28.182.36.336M83.746 134.275a.58.58 0 01.114-.436c.297.053.256.274.18.45-.065.154-.2.103-.294-.014M102.642 123.414l-.026-.452c.164.082.354.141.333.384-.008.09.012.218-.1.224-.065.005-.137-.1-.207-.156M25.243 120.743l.143.428c-.091.109-.223.184-.3.032-.085-.171-.133-.389.157-.46" fill="#2f201b"/><path d="M61.552 124.959l.16.115c-.065.285-.29.416-.523.537-.05-.311.199-.458.363-.652" fill="#e3e3e4"/><path d="M8.724 72.802l-.027.219c-.09.039-.113.243-.249.139-.11-.085-.086-.252-.03-.36.082-.157.205-.123.306.002M12.067 92.655c.187.11.336.261.46.439-.251-.044-.742.163-.46-.439" fill="#2f201b"/><path d="M61.444 137.16c-.229-.092-.406-.255-.577-.426.016-.068.06-.106.128-.116l.567.433-.118.109" fill="#5c5654"/><path d="M59.698 126.86v-.978l.077-.006v.848l-.077.136" fill="#e0351e"/><path d="M57.669 131.73a.426.426 0 01.092-.004c-.05.265-.053.544-.199.784l-.115-.237c-.057-.082-.024-.168-.009-.252a.673.673 0 01.068-.186.228.228 0 01.163-.106" fill="#d5c6be"/><path d="M73.199 82.14l-.544-.164c.24-.145.428-.11.544.163" fill="#2f201b"/><path d="M64.391 53.365c.847-.018 1.66.16 2.405.535 1.549.782 1.982 2.378.432 3.706-1.747 1.496-4.595 1.802-6.572.57-1.31-.815-1.333-2.584-.07-3.538 1.126-.851 2.404-1.245 3.805-1.273M33.74 57.916c-1.119.084-2.039-.33-2.877-.925-.59-.42-1.041-1.004-.92-1.772.124-.776.737-1.126 1.444-1.364 1.351-.454 3.637.21 4.482 1.405.745 1.055.287 1.907-.673 2.393-.459.232-.972.351-1.456.263" fill="#f9d1d0"/><path d="M40.063 65.427c-.264.818-.61 1.61-1.014 2.364-.295.552-.136.752.367 1.015 2.042 1.072 4.258 1.558 6.493 1.958 3.624.65 7.271.807 10.927.247 4.322-.662 8.21-2.236 11.338-5.413.321-.327.297-.503-.024-.763-.23-.185-.427-.41-.63-.625-.106-.113-.288-.224-.112-.413.194-.208.332-.035.46.09.332.323.64.671.987.975.304.265.25.453-.001.723a17.559 17.559 0 01-5.727 4.105c-4.093 1.839-8.413 2.302-12.84 2.059-3.036-.167-6.014-.682-8.918-1.6-1.01-.319-1.95-.782-2.855-1.326-.207-.125-.365-.237-.206-.52.548-.977 1.082-1.962 1.62-2.944l.135.068M62.65 41.995c-.3-.315-.41-.625-.55-.912-.576-1.18-1.183-2.34-2.047-3.34-1.961-2.27-4.076-2.538-6.56-.847-.128.088-.218.254-.412.244.669-1.275 1.421-2.085 2.35-2.417 1.618-.58 3.027-.06 4.27.968 1.478 1.223 2.256 2.887 2.749 4.7.132.489.263.982.2 1.604M56.985 48.058c.06.794.079 1.586-.204 2.347-.13.346-.285.715-.721.748-.398.03-.648-.252-.82-.563-.846-1.52-1.027-3.126-.535-4.795.1-.337.295-.675.693-.714.393-.039.629.253.828.552.376.56.558 1.193.676 1.849.042.106-.021.139-.108.156-.131-.017-.234-.108-.356-.147-.275-.088-.47.034-.603.261a.417.417 0 00.086.554c.206.184.434.183.653.009.102-.08.17-.195.274-.274.05-.03.095-.022.137.017M39.58 48.93c.066-.008.17-.2.18-.047.05.848.058 1.703-.32 2.494-.32.67-.869.72-1.33.126-.501-.645-.706-1.412-.816-2.2-.129-.917-.164-1.837.159-2.73.122-.338.28-.678.67-.739.428-.066.688.25.872.57.365.637.718 1.29.591 2.074-.128-.034-.212-.142-.328-.196-.25-.117-.468-.07-.633.15a.436.436 0 00.001.561c.167.221.384.267.633.145.115-.056.196-.166.32-.209M33.897 40.043c.057-.945.206-1.872.57-2.753.104-.254.222-.508.377-.734.527-.77 1.207-1.376 2.197-1.219 1.082.172 1.708.953 2.079 1.945.042.113.019.251.03.439-.422-.341-.778-.675-1.178-.944-.911-.612-1.593-.503-2.257.368-.767 1.007-1.244 2.169-1.701 3.338-.287-.082-.123-.281-.117-.44" fill="#2f201b"/><path d="M86.902 49.935c.2-.02.355-.007.398.174.035.147-.051.25-.202.275-2.044.356-2.89 1.918-3.642 3.59-.19.423-.183.61.342.736.801.193 1.184.728 1.204 1.456.02.734-.494 1.575-1.12 1.839-.165.07-.334.111-.432-.08-.093-.185.073-.256.194-.337.092-.061.187-.12.273-.19.467-.375.728-.857.582-1.455-.148-.608-.664-.8-1.215-.889-.644-.104-.65-.102-.453-.716.398-1.244.977-2.385 1.925-3.309a3.903 3.903 0 012.146-1.094" fill="#30211d"/><path d="M44.2 55.054c-.648.02-1.295.053-1.935.132-.905.112-1.227.571-1.088 1.483.14.925.617 1.685 1.185 2.4.124.158.406.322.12.537-.23.172-.36-.078-.484-.226-.608-.73-1.088-1.528-1.27-2.48a2.676 2.676 0 01.087-1.312c.13-.42.408-.685.845-.788.876-.205 1.703.045 2.54.254" fill="#312420"/><path d="M39.58 48.93c-.108.371-.379.486-.722.402a.612.612 0 01-.492-.595c-.016-.339.172-.572.485-.654.343-.09.614.033.735.395l-.007.451" fill="#fafafa"/><path d="M33.897 40.043c.092.133-.07.332.117.44-.038.129-.116.266-.198.058-.058-.145-.026-.344.081-.498" fill="#9d9694"/><path d="M56.784 47.596l.118-.114c.15.174.1.377.083.576h-.038l-.039-.002c-.159-.122-.207-.273-.124-.46" fill="#938d8b"/><path d="M47.357 90.337c-.241.423-.655.675-.997.999-.045.043-.087.04-.128-.006.343-.368.603-.828 1.125-.993" fill="#ee311e"/><path d="M46.232 91.33l.128.006-.772.778c.028-.415.404-.543.644-.784" fill="#ee3f24"/><path d="M45.355 92.348l-.544.58c.04-.326.168-.57.544-.58" fill="#ed2714"/><path d="M48.135 89.67c-.11.257-.332.396-.562.523.07-.3.25-.481.562-.522" fill="#ee341c"/><path d="M42.003 96.765a1.244 1.244 0 01-.081.008c-.074-.003-.08-.072-.112-.116-.018-.167.075-.273.2-.361l.124.044c.06.173-.03.3-.131.425" fill="#a28c80"/><path d="M41.81 96.657c.037.04.074.078.112.116-.017.16.004.328-.125.457l-.094-.118.107-.455" fill="#524540"/><path d="M80.291 100.137v-1.033l.102.002v5.206l-.1.002v-1.364l-.002-2.813" fill="#ee3d2a"/><path d="M77.066 93.655a3.288 3.288 0 01-1.302-1.302c.506.362.935.801 1.302 1.302" fill="#ee341a"/><path d="M44.325 94.047c-.07.531-.525.746-.869 1.052.15-.467.55-.726.87-1.052" fill="#ee341f"/><path d="M47.45 91.025c-.184.359-.363.724-.842.752a3.29 3.29 0 01.842-.752" fill="#ee3822"/><path d="M56.328 98.903c-.16.328-.313.667-.76.667.238-.24.458-.5.76-.667" fill="#ee3017"/><path d="M60.88 94.797c-.154.317-.286.658-.732.642.204-.26.445-.476.732-.642" fill="#ee3922"/><path d="M79.75 102.201a1.72 1.72 0 01.005-1.323c.044.441.051.882-.005 1.323" fill="#ed2314"/><path d="M58.77 96.684c-.132.307-.26.618-.681.588.207-.22.41-.442.68-.588" fill="#ee2f19"/><path d="M42.003 96.765l.13-.425.323-.2c.02.333-.206.486-.453.625" fill="#ee3621"/><path d="M69.65 87.576l-.733.198c.202-.223.369-.579.734-.198" fill="#ee3d28"/><path d="M57.548 97.792c-.12.339-.307.6-.706.621.206-.241.426-.465.706-.621" fill="#ee2d17"/><path d="M75.182 91.049c.39-.08.469.212.57.477-.236-.105-.397-.299-.57-.477" fill="#ee3119"/><path d="M67.982 88.585c-.105.26-.176.561-.57.47.173-.177.338-.365.57-.47" fill="#ee341c"/><path d="M66.317 90.027c-.104.261-.177.561-.57.471.173-.178.337-.366.57-.471" fill="#ee331a"/><path d="M62.766 93.132c-.101.266-.18.558-.57.477.17-.182.334-.373.57-.477" fill="#ee3019"/><path d="M59.769 95.793c-.08.31-.249.514-.596.511.172-.202.35-.396.596-.511" fill="#ee2e17"/><path d="M79.66 104.478c-.004-.35-.099-.706.073-1.044.015.35.038.702-.072 1.044" fill="#f1563f"/><path d="M70.975 86c.12.241-.194.27-.215.442l-.312.005.527-.447" fill="#df270f"/><path d="M54.205 98.25c-.218-.085-.453-.16-.325-.479.133.143.286.272.325.479" fill="#ee3521"/><path d="M55.344 99.524c-.36.04-.408-.206-.433-.472l.433.472" fill="#ed2712"/><path d="M73.973 83.448c-.004.285-.122.433-.428.354l.428-.354" fill="#df280f"/><path d="M71.754 85.335c-.005.284-.124.432-.429.356l.429-.356" fill="#df2811"/><path d="M79.44 107.242c-.015-.238-.09-.483.074-.702.019.239.022.476-.075.702" fill="#f15d48"/><path d="M80.071 106.28c.013.236.086.477-.073.694-.022-.236-.015-.47.073-.694" fill="#f15e49"/><path d="M74.633 82.89c.046.268-.053.358-.31.252l.31-.252M73.191 84.112c.058.282-.076.33-.31.253l.31-.253" fill="#df250f"/><path d="M72.411 84.775c.024.25-.04.302-.307.253l.307-.253" fill="#df230d"/><path d="M50.546 90.986c-.243-.044-.265-.154-.094-.32l.094.32" fill="#ed2612"/><path d="M79.543 97.965l-.05.438c-.09-.237-.123-.389.04-.522.025.025.028.053.01.084" fill="#ed2314"/><path d="M47.994 90.547c.13.082.039.147-.02.206-.073.071-.15.102-.205-.023l.225-.183" fill="#ed2614"/><path d="M51.57 133.493c-.128-1.101-.017-2.207-.057-3.309-.016-.422.054-.846-.043-1.264-.164-.523-.038-1.058-.07-1.587-.04-.68.063-1.363-.056-2.041l-.563.023c-.035.009-.069.026-.104.027-.8.04-.923-.13-.68-.937l.576-.22c.129-.094.267-.155.432-.116.628-.125 1.245-.289 1.902-.252.336.019.435.099.43.44-.016 1.085.006 2.17.013 3.256-.007 1.805-.012 3.611-.025 5.417-.002.192.082.41-.112.568a4.344 4.344 0 01-1.642-.005" fill="#fefdfd"/><path d="M53.56 127.402v5.968h-.112v-5.858l.002-.11c.037-.05.073-.052.11 0" fill="#e1390b"/><path d="M51.42 129.068v4.304h-.085v-4.197l.011-.11.074.003" fill="#df200f"/><path d="M51.42 129.068a1.629 1.629 0 00-.074-.003l-.002-3.773c.162.006.15.129.15.235l-.024 3.393-.05.148" fill="#ed2214"/><path d="M54.912 125.079l-.24 2.32c-.038.042-.076.04-.114.002l-.005-.669c.008-.576-.009-1.156.359-1.653" fill="#ed3816"/><path d="M53.56 127.402h-.11v-3.417h.111v3.306l-.001.11" fill="#ed3e0f"/><path d="M49.996 124.405v.109c0 .782 0 .782.785.801-.305.123-.608.187-.896-.043a2.011 2.011 0 01-.002-.858l.113-.009" fill="#f0573d"/><path d="M52.041 123.63c.348 0 .697-.003 1.045.001.045 0 .09.028.132.1h-1.195l.018-.102" fill="#ed2314"/><path d="M49.883 124.414l.002.858c-.161-.285-.15-.572-.002-.858" fill="#ed2214"/><path d="M51.005 124.069a.754.754 0 01-.432.116c.096-.217.228-.303.432-.116" fill="#ed2414"/><path d="M55.663 124.272l-.416.404c.013-.264.06-.492.416-.404" fill="#ed2712"/><path d="M56.556 123.849l-.41.129c.06-.288.206-.301.41-.13" fill="#ee2914"/><path d="M78.749 121.648c-.176-.144-.06-.299-.02-.453.293-1.12.569-2.247.883-3.363.096-.338-.004-.45-.313-.534-1.27-.344-2.57-.466-3.876-.543-.036-.026-.047-.05-.033-.074.013-.022.026-.033.039-.033 1.686-.264 3.377-.25 5.072-.094.355.032.5.176.561.522.399 2.23.817 4.454 1.227 6.682.013.069.01.14.014.216-.21.01-.272-.204-.436-.238a3.178 3.178 0 01-.736-.434c-.215-.203-.483-.332-.715-.512a6.68 6.68 0 01-.05-.047c-.368-.217-.708-.479-1.08-.692-.195-.112-.4-.214-.537-.403" fill="#fefefe"/><path d="M79.309 121.973c.376.224.81.369 1.057.772-.49-.051-.801-.429-1.193-.659.016-.072.085-.082.136-.113" fill="#544d4a"/><path d="M68.899 127.552l-.115-.145c.064-.286.126-.572.293-.821l.113.143c-.08.28-.128.573-.291.823" fill="#4c4542"/><path d="M80.416 122.79c.348.017.586.189.715.512-.31-.07-.586-.189-.715-.512" fill="#5b5654"/><path d="M81.192 123.346c.324-.042.478.211.675.39l-.112.108c-.222-.127-.474-.22-.563-.498" fill="#5b5554"/><path d="M79.309 121.973l-.136.113c-.182-.11-.365-.223-.547-.335l.123-.103c.212.063.393.182.56.325" fill="#534b48"/><path d="M78.092 137.405l.15.117-.489.186c-.052-.038-.13-.044-.152-.12l.491-.183" fill="#4e4745"/><path d="M77.6 137.588l.153.12-.335.106c-.046-.036-.092-.073-.139-.108.08-.116.204-.107.322-.118" fill="#453c3a"/><path d="M60.995 136.618l-.128.116c-.16-.097-.332-.18-.417-.363-.015-.055.007-.077.06-.074.226.01.336.196.485.321" fill="#4e4542"/><path d="M60.51 136.297a.09.09 0 00-.06.074c-.242-.068-.4-.242-.547-.43l.092-.095c.21.106.413.222.516.451" fill="#4b4340"/><path d="M65.684 121.953l.523-.325.116.099c-.222.05-.382.275-.64.226" fill="#332621"/><path d="M75.429 116.648a.762.762 0 01-.006.107c-.13.03-.261.1-.385-.035.119-.114.257-.08.39-.072" fill="#d9dada"/><path d="M54.558 127.4h.113l.012 2.734c.116.527-.036 1.068.085 1.594l.016.112c-.154-.018-.229-.105-.223-.257.055-1.317-.192-2.625-.107-3.942.006-.082.068-.16.104-.24" fill="#e13c09"/><path d="M51.57 133.493l1.643.005a2.348 2.348 0 01-1.642-.005" fill="#df200f"/><path d="M57.533 132.058l-.086.215c-.448.255-.676.032-.736-.388-.054-.38-.03-.772-.041-1.158.092-1.403.089-2.805.001-4.208-.017-.46-.078-.925.217-1.333.579.065.666.144.665.71-.003 2.054.026 4.108-.02 6.162" fill="#e24907"/><path d="M57.533 132.058c-.153-.177-.085-.389-.086-.585-.005-1.697 0-3.395-.003-5.092-.002-.48.152-1.04-.555-1.196.344-.192.344-.192.672.21.138.552-.036 1.121.095 1.673.056.85.05 1.702.004 2.555-.138.75.03 1.512-.088 2.264l-.039.17" fill="#e13c0b"/><path d="M56.671 126.52c.122.09.108.221.109.349v3.51c0 .126.014.26-.11.348a37.953 37.953 0 01.001-4.208" fill="#df200f"/><path d="M57.572 131.887c.023-.755-.13-1.517.088-2.264l.009 2.106-.097.158M57.656 127.068c-.217-.548-.047-1.116-.095-1.673.18.55.109 1.112.095 1.673" fill="#e24907"/><path d="M54.768 131.728c-.205-.522-.062-1.061-.085-1.593.106.526.073 1.061.085 1.593" fill="#e24905"/><path d="M56.784 47.596l.124.46c-.105.326-.293.553-.668.544-.29-.007-.475-.163-.587-.424a.552.552 0 01.14-.656c.346-.325.688-.3.991.076" fill="#fbfbfb"/></svg>