<?xml version="1.0" encoding="UTF-8" standalone="no"?>
<svg
   version="1.1"
   x="0"
   y="0"
   width="104.08373"
   height="140"
   viewBox="0 0 104.08373 140"
   id="svg290"
   sodipodi:docname="1526868640.svg"
   inkscape:version="1.2.2 (732a01da63, 2022-12-09)"
   xmlns:inkscape="http://www.inkscape.org/namespaces/inkscape"
   xmlns:sodipodi="http://sodipodi.sourceforge.net/DTD/sodipodi-0.dtd"
   xmlns="http://www.w3.org/2000/svg"
   xmlns:svg="http://www.w3.org/2000/svg">
  <sodipodi:namedview
     id="namedview292"
     pagecolor="#ffffff"
     bordercolor="#000000"
     borderopacity="0.25"
     inkscape:showpageshadow="2"
     inkscape:pageopacity="0.0"
     inkscape:pagecheckerboard="0"
     inkscape:deskcolor="#d1d1d1"
     showgrid="false"
     inkscape:zoom="0.66323296"
     inkscape:cx="468.91517"
     inkscape:cy="631.75388"
     inkscape:window-width="1920"
     inkscape:window-height="1017"
     inkscape:window-x="1912"
     inkscape:window-y="-8"
     inkscape:window-maximized="1"
     inkscape:current-layer="svg290" />
  <defs
     id="defs5">
    <clipPath
       id="Clip_1">
      <path
         d="M 0.06,0.61 H 937.847 V 1262 H 0.06 Z"
         id="path2" />
    </clipPath>
  </defs>
  <g
     id="Layer_1"
     transform="matrix(0.11098867,0,0,0.11098867,-0.00665932,-0.06770309)">
    <g
       clip-path="url(#Clip_1)"
       id="g11">
      <path
         d="m 124.614,650.566 c 7.191,3.524 13.737,8.097 20.202,12.746 23.249,16.718 46.3,33.687 65.015,56.359 3.695,-7.955 7.234,-15.389 11.902,-22.2 3.606,-5.263 7.77,-9.996 13.096,-13.588 16.211,-10.934 33.614,-2.852 35.761,16.619 0.895,8.119 -0.048,16.118 -3.733,23.37 -6.226,12.254 -7.587,25.385 -8.112,38.744 -0.635,16.127 0.35,32.399 -3.138,48.275 -1.188,5.409 -0.436,9.712 1.846,14.562 9.682,20.575 19.063,41.294 28.387,62.035 1.413,3.144 2.598,3.609 5.769,2.05 13.58,-6.679 27.394,-12.866 41.571,-18.19 2.397,-0.9 3.666,-2.282 4.572,-4.665 7.776,-20.441 17.563,-39.815 31.025,-57.175 12.876,-16.606 28.516,-29.051 49.351,-34.555 14.138,-3.735 27.89,-8.91 41.967,-12.906 5.046,-1.432 3.321,-4.767 3.646,-7.756 0.408,-3.751 -2.486,-2.742 -4.36,-2.962 -62.458,-7.348 -117.052,-31.404 -161.01,-77.078 -35.274,-36.652 -55.052,-81.093 -62.732,-131.068 -8.941,-58.182 -0.274,-114.406 19.37,-169.366 8.106,-22.68 16.675,-45.171 26.223,-67.285 0.704,-1.631 1.549,-3.17 1.158,-5.213 -7.927,-41.389 2.467,-79.124 23.186,-114.714 7.062,-12.131 15.734,-23.099 25.352,-33.313 1.502,-1.594 2.558,-3.018 2.356,-5.605 C 328.526,86.542 355.5,41.85 411.95,17.857 439.249,6.254 467.958,1.056 497.583,0.613 501.162,0.56 502.14,1.138 501.049,5 c -2.791,9.881 -5.042,19.914 -7.672,30.543 47.945,-21.335 96.562,-21.589 146.242,-8.699 -6.29,9.296 -14.172,17.089 -22.021,25.992 13.944,1.791 26.889,3.805 39.682,6.659 45.256,10.093 87.271,27.228 123.493,56.917 18.345,15.037 39.035,39.053 47.16,54.799 -8.044,0 -15.927,0 -23.862,0 -0.175,2.117 1.395,2.813 2.28,3.844 36.922,43.053 58.138,93.062 65.25,149.066 8.285,65.231 -1.609,128.219 -23.065,190.061 -20.232,58.315 -50.024,111.355 -84.932,161.832 -0.605,0.874 -0.762,2.29 -2.597,2.484 -2.323,-8.49 -4.657,-17.02 -7.272,-26.58 -16.931,28.2 -33.425,55.674 -50.59,84.265 -1,-13.983 -1.913,-26.755 -2.905,-40.632 -3.58,4.499 -6.574,8.26 -9.568,12.022 -3.331,-1.633 -5.984,-3.868 -6.842,-7.703 1.663,-5.46 6.105,-9.029 9.286,-13.444 3.502,-4.86 7.252,-9.552 10.925,-14.292 1.017,-1.312 2.248,-3.002 3.999,-2.545 2.219,0.578 1.762,2.921 1.882,4.661 0.569,8.275 1.098,16.551 1.848,25.848 10.508,-17.344 20.343,-33.864 30.257,-50.335 3.179,-5.282 6.237,-10.641 9.558,-15.83 1.418,-2.216 2.038,-6.163 5.504,-5.553 2.985,0.524 2.773,4.181 3.535,6.646 1.804,5.838 3.124,11.823 5.112,18.31 9.623,-14.504 18.196,-28.764 26.532,-43.161 21.79,-37.628 39.367,-77.13 52.111,-118.723 8.413,-27.459 14.255,-55.43 17.125,-84.069 1.798,-17.952 2.5,-35.926 1.635,-53.859 -1.77,-36.711 -9.179,-72.256 -23.98,-106.127 -7.853,-17.971 -17.94,-34.563 -29.276,-50.471 -7.769,-10.439 -16.172,-20.319 -25.527,-29.382 -1.626,-1.575 -4.404,-3.265 -3.54,-5.571 1.028,-2.739 4.345,-1.706 6.731,-1.775 6.15,-0.176 12.309,0.096 19.41,-0.187 -3.009,-4.601 -6.142,-8.345 -9.317,-12.002 C 768.704,114.673 732.109,92.898 691.111,77.925 666.116,68.797 640.289,63.075 613.86,60.04 c -2.161,-0.248 -4.334,-0.094 -6.487,-0.302 -4.267,-0.411 -5.074,-1.878 -2.64,-5.434 3.387,-4.947 7.062,-9.695 10.839,-14.36 5.161,-6.377 5.145,-6.466 -2.821,-7.728 -12.509,-1.983 -25.153,-3.525 -37.761,-3.238 -29.287,0.668 -57.566,6.236 -83.751,20.171 -3.099,1.649 -5.971,3.644 -8.981,5.423 -0.982,0.581 -2.09,1.404 -3.244,0.807 -1.513,-0.783 -0.995,-2.335 -0.803,-3.58 0.945,-6.105 2.78,-12.008 4.225,-17.999 1.444,-5.994 2.974,-11.968 4.473,-17.948 0.579,-2.312 0.525,-3.88 -2.7,-3.618 -28.011,2.27 -54.977,8.464 -80.06,21.512 -35.493,18.462 -56.019,47.384 -59.951,87.433 -0.925,9.428 -0.541,18.998 -0.008,28.473 0.221,3.925 -0.947,6.582 -3.545,9.282 -18.995,19.737 -33.322,42.354 -41.769,68.534 -6.243,19.346 -9.074,39.142 -7.681,59.729 10.125,-18.191 21.213,-35.57 34.403,-51.507 10.753,-12.994 22.307,-25.194 36.319,-34.812 5.502,-3.776 6.648,-3.699 10.757,1.293 17.869,21.71 40.099,37.941 64.658,51.148 40.602,21.834 84.319,33.628 129.745,39.839 12.541,1.715 25.166,2.544 37.742,3.88 5.643,0.6 6.302,-0.253 4.551,-5.604 -4.554,-13.913 -7.007,-28.111 -6.04,-42.79 0.237,-3.602 -0.582,-8.674 2.782,-10.004 3.688,-1.457 5.29,3.626 7.395,6.155 27.9,33.524 52.488,69.347 73.407,107.609 11.923,21.808 22.207,44.406 29.7,68.187 1.072,3.402 1.788,6.856 1.191,10.332 -1.169,6.798 -0.891,13.627 -0.808,20.445 0.273,22.402 -1.725,44.756 -1.202,67.163 -0.418,-2.419 0.217,-4.693 0.874,-6.977 3.457,-12.009 7.316,-23.928 10.185,-36.075 3.259,-13.804 10.915,-24.456 21.264,-33.586 5.462,-3.485 10.72,-7.233 16.895,-9.575 31.426,-11.918 63.591,10.148 63.965,43.81 0.309,27.849 -11.154,49.094 -34.756,63.838 -10.231,6.392 -21.525,7.843 -33.174,6.583 -4.628,-0.501 -6.03,1.306 -7.212,5.259 -9.784,32.725 -22.89,63.928 -42.564,92.11 -18.065,25.877 -40.146,47.493 -67.209,63.862 -3.401,2.056 -6.469,4.126 -6.711,8.55 -1.559,2.018 -2.576,4.855 -6.032,4.043 -2.674,-8.585 -1.421,-12.324 5.917,-16.652 15.289,-9.018 29.293,-19.796 41.853,-32.235 15.207,-15.061 27.826,-32.221 38.447,-50.852 13.279,-23.294 22.818,-48.097 30.408,-73.724 0.602,-2.034 0.851,-3.868 -0.866,-5.531 -1.182,-1.145 -1.604,-2.568 -0.625,-4.059 1.124,-1.713 2.759,-1.587 4.454,-1.046 0.635,0.203 1.266,0.419 1.882,0.672 15.813,6.492 30.151,2.699 43.301,-6.82 16.435,-11.896 24.977,-28.658 25.974,-48.544 0.886,-17.688 -6.725,-34.505 -23.212,-42.018 -15.905,-7.247 -30.364,-2.948 -43.737,6.38 -10.521,7.339 -17.79,17.188 -21.134,29.926 -5.708,21.745 -11.958,43.346 -18.1,64.974 -0.692,2.438 -0.945,6.589 -3.737,6.188 -2.865,-0.411 -1.725,-4.454 -1.768,-6.954 -0.144,-8.326 0.035,-16.656 -0.137,-24.994 -0.019,-17.421 -0.017,-34.832 -0.016,-52.233 0.105,-8.323 -0.51,-16.705 0.199,-24.977 1.194,-13.936 -3.899,-26.255 -8.984,-38.527 -22.142,-53.432 -53.938,-100.965 -89.828,-145.958 -0.303,-0.38 -0.584,-0.821 -1.616,-0.708 -0.134,11.508 1.883,22.709 5.234,33.704 1.359,4.462 2.998,8.839 4.429,13.279 1.186,3.68 0.117,5.021 -3.717,4.832 -54.964,-2.71 -108.559,-11.836 -159.455,-33.806 -27.313,-11.79 -52.194,-27.322 -74.284,-47.289 -4.593,-4.152 -8.551,-8.884 -12.504,-13.603 -2.37,-2.829 -4.319,-2.695 -7.148,-0.632 -14.026,10.227 -25.273,23.161 -35.924,36.651 -22.757,28.823 -39.262,60.973 -50.765,95.794 -10.615,32.132 -21.108,64.292 -27.474,97.611 -4.551,23.823 -6.523,47.907 -5.261,72.099 1.85,35.455 9.449,69.655 25.451,101.582 21.576,43.046 53.929,75.67 96.416,98.266 27.183,14.457 55.961,24.095 86.48,28.369 5.436,0.761 10.885,1.528 16.391,1.654 3.914,0.09 6.208,1.757 6.45,5.979 0.18,3.152 0.821,6.284 0.667,9.46 -0.151,3.125 1.145,4.537 4.39,4.535 19.645,-0.015 39.268,0.025 58.886,-1.702 14.788,-1.302 29.47,-3.077 44.055,-5.791 13.471,-2.506 26.633,-6.089 39.411,-11.058 1.399,-0.544 2.819,-1.04 4.358,-1.006 3.375,0.72 5.383,3.038 6.907,5.921 -0.01,2.267 -1.667,3.559 -3.072,4.925 -37.436,36.391 -77.389,69.702 -120.919,98.62 -5.007,3.327 -6.871,2.92 -11.258,-2.444 -10.238,-12.519 -17.599,-26.655 -22.793,-41.893 -3.972,-11.653 -7.903,-23.374 -7.577,-35.958 0.078,-2.99 -1.455,-3.337 -3.852,-2.422 -5.442,2.078 -10.93,4.038 -16.334,6.231 -12.459,4.729 -24.856,9.63 -37.194,14.628 -14.788,5.989 -25.461,17.373 -34.76,29.968 -11.753,15.921 -20.608,33.446 -27.403,51.977 -1.888,5.151 -4.776,8.285 -10.054,10.012 -13.465,4.404 -26.427,10.131 -39.318,15.988 -6.412,2.913 -6.501,3.378 -3.997,10.229 1.312,3.591 2.455,7.082 5.781,9.625 2.284,1.746 2.528,4.986 3.107,7.743 2.364,11.261 3.195,22.737 4.663,34.124 2.299,17.825 4.097,35.745 4.586,53.667 0.421,15.42 1.806,30.8 0.782,46.35 -1.049,15.95 -1.539,31.89 -4.345,47.66 -0.408,2.3 -0.834,4.59 -1.41,6.85 -4.565,16.08 -15.395,23.21 -31.784,20.97 -1.391,-0.67 -3.372,-0.7 -3.3,-2.99 3.4,-2.04 7.354,-1.75 11.044,-2.59 6.021,-1.35 11.471,-3.54 14.549,-9.4 1.785,-3.4 1.461,-3.88 -2.387,-3.74 -9.723,0.34 -19.226,-0.89 -28.453,-4.04 -1.884,-0.64 -3.817,-1.21 -5.281,-2.7 -1.267,-1.75 -1.876,-3.47 0.261,-5.04 2.256,-0.89 4.241,0.16 6.246,0.93 9.584,3.67 19.579,3.55 29.6,3.29 3.311,-0.09 4.069,-2.38 4.497,-4.99 1.863,-11.34 3.369,-22.76 3.597,-34.24 0.317,-16 0.562,-32.02 -0.048,-48 -0.697,-18.27 -2.16,-36.534 -4.308,-54.718 -1.171,-9.921 -2.067,-19.874 -3.518,-29.763 -0.319,-2.172 -0.887,-4.217 -1.838,-6.191 -13.154,-27.32 -26.49,-54.552 -39.445,-81.966 -4.199,-8.885 -8.39,-17.777 -12.4,-26.752 -1.14,-2.551 -1.339,-5.073 -0.642,-7.782 2.337,-9.081 3.109,-18.343 3.313,-27.7 0.344,-15.799 0.314,-31.634 3.01,-47.282 0.967,-5.61 2.704,-10.996 5.241,-16.111 2.166,-4.367 3.476,-9.003 4.297,-13.794 0.397,-2.321 0.53,-4.641 0.089,-6.96 -0.898,-4.727 -2.366,-9.19 -7.33,-11.145 -5.228,-2.059 -9.469,0.469 -13.26,3.64 -7.711,6.451 -12.676,14.927 -16.939,23.86 -0.716,1.501 -1.408,3.036 -1.931,4.608 -4.051,12.189 -10.165,22.849 -19.966,31.613 -6.161,5.509 -10.461,12.923 -14.828,20.039 -0.523,0.853 -0.975,1.753 -1.571,2.554 -1.389,1.87 -2.778,4.309 -5.566,2.641 -2.774,-1.661 -1.446,-4.139 -0.319,-6.16 5.789,-10.388 12.691,-19.955 21.238,-28.28 1.432,-1.396 2.844,-2.812 4.24,-4.245 4.673,-4.8 4.774,-5.68 0.614,-10.903 -13.919,-17.475 -30.848,-31.74 -48.501,-45.21 -10.998,-8.393 -22.151,-16.572 -34.069,-23.647 -1.282,-0.761 -2.623,-1.485 -3.42,-2.844 -0.099,-4.352 3.035,-6.116 6.261,-7.806"
         fill="#2f201b"
         id="path7" />
      <path
         d="m 632.843,747.565 c -2.156,-1.733 -4.313,-3.465 -6.469,-5.198 6.343,-4.646 4.974,-11.267 4.617,-17.679 -0.079,-1.429 -1.041,-3.321 1.169,-4.199 1.483,-1.333 2.967,-2.667 4.451,-4.001 1.894,1.905 1.415,4.373 1.271,6.592 -0.267,4.109 1.508,6.128 5.472,6.769 2.941,0.475 5.778,1.482 8.564,2.54 2.297,0.872 4.492,1.037 6.681,-0.213 2.734,0.084 4.897,-0.35 3.588,-3.952 1.39,-3.811 3.41,-7.136 7.088,-9.183 3.357,0.522 3.704,-1.235 2.911,-3.858 2.109,-5.67 6.474,-9.725 10.223,-14.216 0.522,-0.626 1.357,-0.895 2.223,-0.491 2.014,2.366 4.027,4.731 6.04,7.097 -7.103,10.02 -14.207,20.04 -21.649,30.537 6.73,2.454 13.321,4.881 19.929,7.263 34.417,12.408 68.782,24.95 102.997,37.909 47.776,18.096 79.822,51.504 97.629,99.054 9.495,25.35 14.609,51.818 20.078,78.201 11.703,56.453 19.567,113.513 27.122,170.623 0.087,0.66 0.188,1.32 0.291,1.98 1.508,9.66 1.582,9.81 -6.87,14.15 -2.459,1.26 -2.07,2.74 -2.037,4.8 0.559,34.69 -5.035,68.2 -18.992,100.18 -3.221,7.39 -7.721,9.75 -15.918,9.73 -124.973,-0.37 -249.946,-0.35 -374.92,-0.4 -53.322,-0.02 -106.645,-0.03 -159.967,0.15 -4.113,0.02 -4.412,-1.39 -4.295,-4.83 1.251,-36.62 2.34,-73.24 3.467,-109.86 0.04,-1.31 0.005,-2.62 0.005,-4.29 -16.567,2.93 -32.842,5.23 -49.292,6.16 -12.837,0.73 -25.656,0.78 -38.436,-0.58 -11.558,-1.23 -20.457,-7.52 -28.079,-15.82 -10.768,-11.72 -17.927,-25.63 -22.77,-40.58 -4.101,-12.66 -9.21,-24.65 -15.389,-36.49 -13.18,-25.26 -21.034,-52.7 -29.928,-79.662 -10.46,-31.709 -20.05,-63.703 -31.073,-95.231 -1.138,-3.256 -2.806,-5.792 -5.667,-7.86 C 123.223,862.814 111.211,850.966 99.271,839.141 75.748,815.843 49.017,797.111 19.946,781.533 13.888,778.287 8.12,774.774 4.278,768.76 c -8.412,-13.17 -4.071,-28.925 9.973,-35.798 1.022,-0.5 2.079,-0.933 3.477,-1.557 -8.613,-8.762 -13.745,-18.611 -8.823,-30.643 4.78,-11.687 15.12,-14.475 26.606,-14.411 -0.597,-3.133 -1.486,-6.033 -1.654,-8.974 C 33.09,663.903 44.46,653.283 59,655.082 c 6.876,0.851 10.151,0.164 14.046,-6.529 6.032,-10.361 17.242,-10.785 28.094,-8.567 8.559,1.749 16.242,5.736 23.474,10.58 -1.993,2.31 -3.986,4.62 -5.98,6.93 -1.589,0.749 -2.952,-0.078 -4.237,-0.761 -5.901,-3.14 -12.108,-5.496 -18.484,-7.443 -2.201,-1.876 -4.403,-3.652 -6.786,-0.228 -3.612,2.211 -7.278,4.354 -9.929,7.792 -0.555,0.189 -1.523,0.026 -1.639,0.487 -0.314,1.25 1.5,0.617 1.679,1.596 0.497,1.091 0.464,2.185 0.064,3.284 -1.451,2.148 -1.901,3.943 1.548,4.372 12.772,6.61 23.512,16.068 34.777,24.786 1.302,1.008 2.435,2.284 2.6,4.097 -0.203,1.695 -1.118,2.81 -2.727,3.361 -3.327,-0.558 -5.367,-3.17 -7.76,-5.104 -10.066,-8.141 -20.388,-15.914 -31.636,-22.352 -8.444,-4.834 -17.349,-7.439 -27.108,-4.323 -1.711,0 -4.171,-0.891 -4.177,1.903 -0.003,1.967 -4.592,3.195 -0.836,5.572 1.136,13.128 10.567,19.849 20.248,26.466 2.745,1.876 6.712,2.398 7.713,6.41 -0.628,1.525 -1.912,2.215 -3.379,2.675 -3.11,0.23 -5.248,-1.897 -7.619,-3.312 -7.502,-4.475 -15.414,-7.769 -24.015,-9.498 -3.953,-0.794 -7.632,-0.243 -11.231,1.191 -6.167,2.458 -9.019,8.151 -7.313,14.575 1.333,5.021 4.328,9.021 8.487,12.003 7.422,5.322 14.691,10.82 23.256,14.434 9.715,4.098 17.801,11.016 26.642,16.634 1.826,1.16 3.746,2.197 5.485,3.462 3.048,2.218 5.645,2.005 8.494,-0.471 5.65,-4.911 11.649,-9.407 17.445,-14.148 2.894,-2.367 2.928,-3.749 -0.109,-5.904 -8.277,-5.874 -16.102,-12.372 -24.641,-17.893 -1.929,-1.248 -4.111,-2.285 -5.132,-4.586 -0.049,-2.113 1.199,-3.15 3.048,-3.692 2.35,-0.094 4.043,1.364 5.812,2.562 8.676,5.878 17.175,12.017 25.335,18.578 3.577,2.877 6.246,2.683 9.504,-0.241 4.079,-3.66 8.374,-7.107 13.039,-10.012 3.034,-1.889 4.118,-3.668 0.634,-6.173 -0.926,-0.666 -1.512,-1.765 -1.638,-2.997 0.099,-1.632 1.005,-2.69 2.407,-3.397 4.477,0.476 5.989,5.099 9.571,6.84 1.096,1.044 1.925,2.227 1.962,3.816 -0.37,1.41 -1.506,2.165 -2.609,2.887 -18.003,11.778 -33.67,26.523 -50.504,39.784 -7.723,6.083 -7.998,6.158 -16.435,0.666 -9.47,-6.166 -18.609,-12.832 -28.465,-18.423 -4.967,-2.817 -10.544,-3.985 -15.584,-6.516 -1.275,-0.846 -2.378,-3.828 -3.998,-0.296 -1.994,1.125 -4.264,0.559 -6.358,1.056 -5.963,1.415 -11.217,3.857 -12.674,10.51 -1.43,6.534 1.092,11.838 6.247,15.791 5.569,4.269 11.957,7.244 18.019,10.719 22.909,13.132 44.772,27.663 63.417,46.587 3.351,3.402 8.036,5.498 10.038,10.226 -0.522,3.393 2.173,3.34 4.254,3.945 7.879,4.594 13.197,12.151 20.365,17.584 2.776,2.105 5.238,4.719 8.175,6.547 6.183,3.848 9.238,9.464 11.589,16.188 14.172,40.543 25.979,81.855 40.064,122.418 7.484,21.56 15.001,43.1 27.092,62.67 0.261,0.42 0.36,0.93 0.461,1.42 -0.503,2.53 -0.654,4.86 2.917,5.06 3.48,1.63 5.327,4.98 7.56,7.73 7.855,9.7 17.55,16.98 28.38,22.93 1.267,0.7 2.807,1.2 2.99,3.01 -2.095,1.21 -0.939,2.65 -0.295,4.06 -1.23,1.2 -2.473,0.45 -3.69,-0.01 -9.176,-3.42 -25.439,-16.21 -31.535,-24.82 0.419,1.67 1.278,3.16 0.717,4.85 -0.849,1.62 -1.906,3.3 1.157,3.71 3.814,4.07 5.138,9.5 7.598,14.3 3.723,7.25 8.108,13.96 13.683,19.89 0.686,0.73 1.264,1.53 1.504,2.52 -0.734,4.87 3.08,2.87 5.211,3.43 12.418,7.37 26.104,6.27 39.679,6.04 16.485,-0.28 32.759,-2.43 48.956,-5.33 2.616,-0.46 5.23,-0.93 7.814,-1.57 1.904,-0.46 3.531,-1.12 3.345,-3.54 2.775,-17.26 2.11,-34.48 -0.523,-51.68 -0.328,-2.15 -0.59,-4.31 0.567,-6.34 2.668,-1.7 4.024,0.25 5.471,1.96 2.305,8.36 3.188,17.01 3.387,25.55 0.575,24.57 0.278,49.16 0.156,73.73 -0.005,1.17 -0.138,2.33 -0.367,3.47 -0.584,1.93 -0.725,3.9 -0.721,5.91 0.032,19.14 -0.038,38.27 0.051,57.4 0.594,4 -1.032,8.22 1.186,12.05 1.529,1.42 3.426,1.14 5.235,1.14 45.16,0.01 90.319,0.01 135.478,0 1.816,0 3.71,0.24 5.118,-1.32 1.493,-2.28 0.983,-4.84 0.967,-7.28 -0.081,-12.45 -0.183,-24.89 2.208,-37.18 0.852,-3.48 1.075,-7.11 2.267,-10.53 0.909,-2.44 1.097,-5.06 1.794,-7.56 2.134,-6.72 2.896,-13.94 7.248,-19.84 3.303,-0.24 3.286,-1.83 1.656,-4.09 0.691,-6.57 4.971,-11.64 7.377,-17.49 0.429,-0.83 0.884,-1.64 1.364,-2.43 0.353,-0.6 0.746,-1.17 1.131,-1.75 6.378,-10.87 13.22,-21.41 21.731,-30.77 11.033,-13.16 23.948,-24.21 38.138,-33.81 1.239,-0.83 2.528,-1.73 4.041,-0.47 0.729,1.11 0.798,2.32 0.59,3.58 -1.486,4.15 -5.6,5.5 -8.693,7.82 -14.695,11.03 -27.275,24.11 -38.266,38.76 -1.763,2.08 -3.244,4.33 -4.086,6.96 -4.074,8.59 -10.508,15.75 -14.461,24.48 -2.805,6.19 -4.278,12.6 -5.32,19.16 -1.409,8.88 -1.273,17.95 -2.829,26.79 -0.959,5.46 2.429,9.05 4.153,13.39 -0.187,0.85 -0.714,1.35 -1.576,1.49 -2.09,0.02 -3.004,-1.84 -4.549,-2.95 -7.384,9.31 -7.729,20.1 -6.982,31.15 0.159,2.34 1.572,3.02 3.709,3 9.798,-0.13 19.596,-0.02 29.394,-0.07 2.979,-0.01 4.172,-1.21 3.708,-4.32 -0.477,-3.2 -1.493,-6.1 -3.339,-8.73 -0.257,-0.81 -0.049,-1.46 0.683,-1.92 3.182,0.43 5.439,-0.93 7.812,-3.09 14.081,-12.81 28.066,-25.79 45.182,-34.65 2.133,-1.1 3.302,-2.62 3.261,-5.08 -0.027,-1.65 -0.036,-3.32 0.564,-4.91 0.594,-1.09 1.116,-2.28 2.701,-2.08 1.492,1.6 0.865,3.45 0.488,5.2 -0.964,4.49 0.322,7.97 3.782,11.11 16.724,15.17 32.568,31.33 50.841,44.73 0.939,0.69 1.825,1.45 2.612,2.31 0.525,0.53 1.06,1.05 1.655,1.49 35.453,-0.22 70.894,-0.03 107.127,-0.14 -9.231,-8.83 -18.745,-16.24 -27.775,-24.19 -0.961,-0.94 -2.021,-1.81 -2.369,-3.21 0.597,-4.26 1.283,-8.5 3.624,-12.26 3.476,-0.55 2.256,-2.49 1.263,-4.35 -0.216,-3.74 0.693,-7.21 2.502,-10.45 3.987,-1.35 2.376,-3.85 1.267,-6.25 -0.391,-3.43 0.99,-6.56 1.709,-9.79 0.646,-2.91 -0.107,-4.64 -3.29,-4.6 -4.779,0.05 -6.789,-2.66 -7.516,-7 -1.49,-8.87 -3.161,-17.71 -4.908,-26.54 -0.392,-1.97 -0.577,-3.97 0.451,-5.86 0.99,-1.19 2.229,-1.76 3.792,-1.5 2.282,1.19 2.302,3.55 2.641,5.6 1.137,6.88 2.687,13.69 3.829,20.57 1.28,7.72 1.526,7.65 9.153,7.93 4.667,0.17 9.219,-1.32 13.868,-0.6 2.054,3.45 4.006,1.3 5.977,-0.14 7.734,-2.2 15.777,-2.07 23.658,-3.14 31,-4.2 61.732,-9.71 91.966,-17.83 7.234,-1.95 14.243,-4.55 21.294,-7.06 4.3,-1.52 5.347,-3.98 4.573,-8.37 -1.005,-5.7 -1.995,-11.45 -2.077,-17.28 3.115,-2.01 1.484,-3.74 -0.341,-5.46 -2.521,-8.16 -2.876,-16.68 -4.058,-25.05 -7.594,-53.73 -16.669,-107.201 -28.869,-160.096 -4.647,-20.147 -11.157,-39.681 -20.624,-58.2 -9.881,-19.328 -23.485,-35.389 -40.548,-48.662 -3.671,-2.855 -7.694,-5.261 -11.007,-8.566 -0.945,-2.473 -1.723,-5.215 -5.404,-3.479 -1.217,0.059 -2.294,-0.372 -3.328,-0.935 -17.029,-9.272 -35.309,-15.647 -53.18,-22.97 -27.497,-11.19 -54.899,-22.617 -82.769,-32.861 -4.777,-1.922 -9.813,-3.205 -14.344,-5.738 -1.392,-1.815 -3.294,-1.996 -5.361,-1.64 -4.087,-0.693 -7.949,-2.205 -11.928,-3.29 -2.844,-0.775 -4.019,-0.25 -3.648,2.969 0.476,4.134 -1.179,7.028 -5.574,7.833"
         fill="#2f201b"
         id="path9" />
    </g>
    <path
       d="m 632.16,720.489 c 0.083,3.48 -0.146,7.001 0.321,10.428 0.742,5.445 -0.144,9.722 -6.108,11.45 -19.897,7.845 -40.538,12.778 -61.691,15.672 -29.122,3.983 -58.395,4.933 -87.748,4.326 -2.484,-0.052 -3.605,-0.618 -3.522,-3.347 0.116,-3.819 -0.538,-7.683 -0.203,-11.47 0.395,-4.461 -2.09,-4.809 -5.442,-5.038 -32.762,-2.236 -63.931,-10.682 -93.373,-25.078 -72.32,-35.36 -114.902,-93.196 -128.755,-172.249 -8.805,-50.25 -2.757,-99.451 11.413,-148.009 9.357,-32.063 18.596,-64.259 32.886,-94.474 17.365,-36.715 40.317,-69.614 72.507,-95.296 3.452,-2.754 5.103,-2.439 7.996,1.047 18.595,22.403 42.027,38.727 67.634,52.009 37.734,19.574 78.114,30.811 119.983,37.15 20.266,3.068 40.644,4.842 61.546,5.613 -6.685,-17.51 -11.82,-35.094 -10.82,-54.1 0.616,0.175 1.21,0.156 1.434,0.434 35.77,44.471 67.664,91.383 90.268,144.091 3.268,7.62 5.917,15.505 8.87,23.261 1.976,5.19 2.833,10.502 2.65,16.101 -0.31,9.48 -0.238,18.973 -0.327,28.46 -0.751,0.843 -0.565,1.881 -0.547,2.858 0.463,25.115 -0.605,50.209 -1.113,75.31 0.148,-6.496 0.067,-12.995 0.184,-19.491 0.023,-1.247 -0.951,-3.093 1.296,-3.641 0.583,10.133 -0.672,20.285 0.45,30.652 1.558,-0.624 1.493,-2.144 1.842,-3.391 6.938,-24.787 13.114,-49.821 21.026,-74.293 7.673,-23.737 43.051,-46.993 70.608,-27.607 13.574,9.549 18.758,23.76 17.836,39.661 -1.411,24.31 -12.755,43.118 -34.601,54.644 -12.065,6.366 -24.743,7.318 -37.496,1.481 -1.458,-0.667 -3.141,-1.897 -4.327,0.212 -1.038,1.849 0.537,2.754 1.886,3.386 1.44,0.675 1.861,1.302 1.359,3.033 -15.028,51.913 -37.617,99.426 -78.838,136.17 -10.471,9.333 -21.656,17.741 -33.9,24.548 -4.597,2.556 -6.73,5.352 -5.583,10.523 0.356,1.605 0.278,3.307 0.399,4.964"
       fill="#fbe4db"
       id="path13" />
    <path
       d="m 748.661,442.503 c -3.005,3.323 -5.958,6.695 -9.024,9.961 -9.48,10.097 -11.163,23.446 -14.949,35.891 -3.253,10.696 -6.18,21.491 -9.722,32.151 0.377,-14.524 -1.057,-28.952 0.462,-43.428 0.952,-9.068 0.112,-18.316 0.247,-27.481 0.09,-6.132 -0.216,-12.237 0.792,-18.401 1.349,-8.258 -2.88,-15.579 -5.586,-22.992 -14.87,-40.742 -36.647,-77.818 -61.137,-113.374 -13.343,-19.371 -27.418,-38.216 -43.458,-56.618 -2.531,10.108 -2.053,19.644 -1.124,29.112 0.926,9.438 3.693,18.526 6.758,27.471 1.136,3.315 -0.217,3.88 -2.935,3.681 -9.251,-0.678 -18.545,-1.016 -27.74,-2.154 -16.244,-2.012 -32.438,-4.358 -48.488,-7.737 -46.885,-9.871 -90.758,-26.724 -129.551,-55.397 -12.203,-9.02 -23.174,-19.489 -32.513,-31.458 -2.387,-3.059 -4.027,-2.73 -6.375,-1.04 -5.654,4.07 -11.281,8.19 -16.36,12.984 -22.956,21.669 -40.81,47.15 -55.818,74.757 -0.447,0.824 -0.585,1.956 -2.458,2.325 0,-8.823 -0.685,-17.591 0.158,-26.21 1.321,-13.517 4.084,-26.813 8.525,-39.753 7.434,-21.662 18.662,-41.05 33.705,-58.275 0.869,-0.995 1.339,-2.502 2.38,-3.158 8.989,-5.66 8.805,-14.29 8.25,-23.409 -1.243,-20.403 1.884,-40.126 11.035,-58.566 10.635,-21.431 27.358,-36.926 48.29,-48.043 21.513,-11.426 44.568,-17.796 68.644,-21.069 4.92,-0.669 9.94,-0.127 14.799,-1.639 2.812,-0.875 4.167,0.14 3.264,3.617 -3.485,13.418 -6.699,26.905 -10.143,40.89 45.133,-29.665 103.06,-31.839 143.874,-22.052 -4.318,5.683 -8.551,11.119 -12.624,16.673 -1.914,2.611 -5.909,5.054 -4.927,7.995 0.655,1.96 5.421,0.405 8.321,0.763 33.087,4.082 65.207,11.783 95.881,25.14 21.439,9.336 41.666,20.701 60.05,35.177 14.537,11.446 27.263,24.732 38.597,39.352 0.609,0.786 1.414,1.659 0.986,2.658 -0.492,1.149 -1.745,0.621 -2.654,0.625 -8.149,0.041 -16.299,0.024 -24.554,0.024 -0.018,2.414 1.873,3.266 3.093,4.415 9.223,8.688 17.11,18.551 25.115,28.311 0.489,0.595 0.602,1.499 0.89,2.26 -2.259,0.614 -3.771,-0.947 -5.432,-1.943 -13.543,-8.117 -27.762,-14.47 -43.631,-16.255 -13.091,-1.473 -24.725,1.839 -34.398,11.15 -2.809,2.704 -4.023,5.833 -4.191,9.753 -0.459,10.76 2.902,20.716 6.121,30.681 7.929,24.546 16.909,48.764 22.816,73.936 4.15,17.686 6.88,35.541 8.321,53.692 2.028,25.543 -0.741,50.466 -7.201,75.108 -0.921,3.512 -1.528,7.218 -4.381,9.899"
       fill="#542b06"
       id="path15" />
    <path
       d="m 145.591,718.368 c -3.81,-1.219 -5.518,-5.173 -8.952,-6.881 -7.28,-4.3 -13.426,-9.907 -18.852,-16.345 -11.507,-10.364 -23.98,-19.435 -37.065,-27.687 -1.955,-1.116 -2.883,-2.682 -2.181,-4.965 -0.04,-1.323 -0.08,-2.647 -0.121,-3.97 -0.437,-0.722 -0.327,-1.377 0.247,-1.973 2.027,-4.275 5.76,-6.423 9.96,-7.989 2.295,-1.739 4.632,-1.584 6.999,-0.161 8.345,1.326 15.59,5.432 23.008,9.099 19.984,12.371 38.775,26.374 56.885,41.333 11.747,9.702 22.015,20.776 31.648,32.536 3.149,3.844 2.162,6.293 -1.075,9.116 -10.908,9.516 -19.378,21.001 -26.573,33.476 -0.927,1.607 -2.966,3.568 -0.198,5.004 2.384,1.236 2.997,-1.385 3.846,-2.812 7.444,-12.524 15.998,-24.142 27.234,-33.574 1.527,-1.282 2.015,-2.953 2.635,-4.68 4.102,-11.427 8.703,-22.63 15.206,-32.95 3.495,-5.546 7.558,-10.589 13.274,-14.009 8.785,-5.257 16.52,-2.03 19.115,7.839 2.111,8.027 0.406,15.673 -3.097,22.755 -5.61,11.338 -7.236,23.407 -7.994,35.751 -0.91,14.792 -0.288,29.651 -1.938,44.408 -0.333,2.973 -0.233,6.216 -1.438,8.824 -2.561,5.543 -0.686,10.131 1.661,15.008 16.408,34.105 32.616,68.306 49.159,102.345 3.345,6.884 3.406,14.195 4.279,21.363 4.796,39.385 7.865,78.881 6.315,118.611 -0.494,12.67 -1.842,25.23 -3.971,37.73 -0.48,2.81 -1.568,3.78 -4.449,4.02 -12.509,1.04 -24.516,-0.98 -36.229,-5.24 -15.902,-7.53 -28.267,-19.23 -38.862,-33.01 -2.114,-0.93 -3.316,-2.51 -3.442,-4.85 -15.024,-23.05 -22.919,-49.15 -31.733,-74.823 -6.408,-18.662 -12.132,-37.559 -18.242,-56.325 -6.776,-20.813 -13.11,-41.773 -20.77,-62.291 -0.582,-1.559 -0.919,-3.224 -2.397,-4.248 -12.497,-8.661 -23.216,-19.41 -34.561,-29.424 -1.861,-0.812 -3.824,-1.519 -4.137,-3.952 -22.951,-23.779 -49.292,-43.049 -78.219,-58.895 -4.515,-2.474 -9.161,-4.813 -13.324,-7.802 -9.049,-6.497 -10.227,-17.458 -2.727,-24.735 4.42,-4.29 10.32,-4.518 16.1,-4.67 1.406,-1.116 2.731,-0.693 4.03,0.215 14.998,3.497 26.719,13.066 39.239,21.16 4.309,2.785 8.58,7.854 13.111,7.416 4.22,-0.408 8.067,-5.375 11.943,-8.503 16.045,-12.952 31.499,-26.655 48.707,-38.121 0.851,-2.734 4.277,-2.631 5.805,-5.062 -3.272,-1.073 -5.075,2.428 -7.859,1.938"
       fill="#fbe4db"
       id="path17" />
    <path
       d="m 748.661,442.503 c 4.868,-14.84 8.193,-30.053 9.79,-45.555 1.735,-16.854 1.169,-33.697 -0.515,-50.619 -4.068,-40.884 -17.985,-79.089 -30.69,-117.664 -3.324,-10.092 -6.421,-20.249 -5.686,-31.141 0.204,-3.006 1.005,-5.429 3.102,-7.594 10.763,-11.116 23.688,-14.907 38.964,-12.731 17.387,2.476 32.587,9.822 47.011,19.283 7.224,8.097 12.453,17.538 17.886,26.819 12.86,21.97 21.496,45.658 27.544,70.276 3.153,12.838 5.168,25.912 6.723,39.087 1.798,15.243 2.057,30.487 1.805,45.76 -0.427,25.901 -3.939,51.431 -9.264,76.781 -5.792,27.57 -14.951,54.088 -24.99,80.264 -9.596,25.02 -21.941,48.83 -35.169,72.154 -8.935,15.754 -18.32,31.227 -28.267,46.36 -0.428,0.65 -0.899,1.271 -1.72,2.427 -2.677,-9.614 -5.174,-18.584 -8.1,-29.091 -15.66,26.059 -30.529,50.802 -46.051,76.631 -1.404,-11.986 -2.189,-22.742 -2.577,-33.73 -2.882,0.628 -3.536,3.13 -4.892,4.856 -5.84,7.426 -11.587,14.925 -17.41,22.364 -0.731,0.934 -1.526,1.765 -1.523,3.036 -4.77,4.387 -8.333,9.739 -11.99,15.015 -0.151,1.972 -0.964,3.447 -3.005,3.999 -2.95,2.52 -4.808,5.889 -6.997,9.001 -0.433,1.759 -1.15,3.304 -3.003,3.997 -1.984,2.455 -4.29,3.009 -7.165,1.476 -1.294,-0.69 -2.8,-0.985 -4.215,-1.443 -11.562,-3.738 -11.563,-3.736 -11.646,-16.033 -0.628,-4.111 1.004,-6.421 4.776,-8.61 18.358,-10.654 34.728,-23.97 48.931,-39.705 18.586,-20.59 33.432,-43.664 44.688,-69.106 7.275,-16.444 13.37,-33.265 18.427,-50.485 0.989,-3.371 2.29,-4.058 6.036,-3.498 17.123,2.558 32.3,-2.298 44.998,-14.009 17.056,-15.73 25.3,-35.392 23.021,-58.522 -2.697,-27.373 -25.871,-47.343 -54.623,-41.102 -7.06,1.533 -13.613,4.122 -19.453,8.501 -1.396,1.047 -2.74,2.514 -4.751,2.551"
       fill="#3b0d00"
       id="path19" />
    <path
       d="m 357.739,1069.52 c -0.014,6.67 0.769,13.28 1.832,19.83 2.138,13.18 0.381,26.2 -1.176,39.25 -1.032,4.06 -3.986,2.13 -6.018,1.62 -14.152,-3.6 -28.113,-7.86 -41.72,-13.19 -1.726,-0.68 -4.077,-0.85 -4.132,-3.56 4.699,-23.59 6.141,-47.49 5.782,-71.45 -0.446,-29.78 -2.517,-59.469 -6.4,-89.016 -1.428,-10.861 -1.958,-21.862 -5.082,-32.448 -0.525,-1.78 -0.092,-4.681 -3.72,-3.824 -0.969,0.229 -1.182,-1.362 -1.522,-2.287 -1.261,-3.43 -2.28,-6.988 -3.922,-10.228 -1.888,-3.726 -0.356,-5.205 2.897,-6.707 14.499,-6.694 29.123,-13.081 44.291,-18.106 3.642,-1.206 5.605,-3.147 6.984,-6.838 9.019,-24.139 20.469,-46.939 38.181,-66.074 8.843,-9.553 19.203,-16.71 31.674,-20.953 10.676,-3.632 21.097,-8.016 31.63,-12.067 2.333,1.609 1.61,4.201 1.93,6.385 2.617,17.87 2.587,17.875 -11.963,28.228 -0.679,0.483 -1.388,0.91 -2.155,1.22 -2.705,0.496 -4.545,2.169 -5.944,4.434 -0.615,0.728 -1.381,1.254 -2.23,1.668 -4.034,1.942 -6.427,5.734 -9.648,8.588 -2.047,2.264 -4.763,3.931 -6.073,6.849 -0.406,1.089 -1.15,1.839 -2.244,2.235 -2.373,0.911 -3.642,2.829 -4.582,5.047 -7.934,10.532 -16.713,20.377 -24.884,30.714 -1.03,0.978 -1.63,2.177 -1.829,3.587 -0.375,1.502 -0.733,3 -0.82,4.556 -8.047,30.287 -13.195,61.095 -16.362,92.226 -1.261,12.397 -2.633,24.819 -2.389,37.331 0.137,6.99 -1.337,13.9 -1.019,20.93 0.557,12.29 0.944,24.59 1.692,36.87 0.111,1.82 0.4,3.68 -1.059,5.18"
       fill="#ee4f0a"
       id="path21" />
    <path
       d="m 433.752,808.535 c 5.591,-2.577 9.688,-7.326 15.014,-10.336 1.633,-0.923 1.106,-3.223 0.88,-5.043 -0.811,-6.557 -1.557,-13.122 -2.327,-19.684 5.618,-2.914 11.765,-4.502 17.548,-6.978 3.16,-1.353 3.402,-0.141 3.55,2.596 1.582,29.319 12.464,55.133 29.962,78.367 4.741,6.295 4.874,6.179 11.473,1.721 43.312,-29.26 83.283,-62.593 120.733,-99 0.822,-0.8 1.508,-1.739 2.258,-2.613 3.08,-2.465 6.278,-4.664 4.044,-9.624 -1.006,-2.236 -0.198,-4.169 3.164,-3.061 4.826,1.59 9.743,2.902 14.622,4.332 1.873,-0.312 3.496,0.214 4.901,1.466 4.614,1.893 9.228,3.787 13.842,5.68 0.099,0.71 -0.186,1.291 -0.6,1.831 -0.701,0.836 -1.555,1.496 -2.461,2.091 -1.239,0.76 -2.283,1.752 -3.276,2.804 -1.18,1.161 -2.346,2.34 -3.765,3.221 -1.237,0.749 -2.255,1.756 -3.252,2.787 -0.906,0.9 -1.893,1.699 -2.951,2.412 -1.434,0.948 -2.599,2.198 -3.807,3.4 -0.916,0.892 -1.893,1.71 -2.973,2.397 -1.24,0.752 -2.272,1.751 -3.263,2.798 -1.188,1.174 -2.37,2.356 -3.794,3.253 -1.25,0.777 -2.28,1.808 -3.283,2.872 -1.496,1.602 -3.299,2.856 -4.871,4.375 -4.629,4.006 -4.632,4.009 0.529,7.465 14.68,9.831 28.766,20.459 42.422,31.665 1.834,1.848 3.573,3.803 5.844,5.163 12.89,11.659 24.297,24.484 32.854,39.778 5.224,9.338 6.594,19.397 7.126,29.737 0.162,3.148 -0.068,6.318 0.939,9.385 0.267,8.159 0.443,16.312 -0.081,24.464 -1.548,8.169 -0.046,16.531 -1.557,24.71 -0.297,1.61 -0.103,3.307 -0.431,4.939 -0.705,2.267 -0.883,4.586 -0.645,6.945 -2.082,22.12 -4.79,44.17 -7.568,66.21 -0.617,4.89 -0.228,9.99 -2.627,14.58 -1.704,1.23 -3.448,1.27 -5.228,0.17 -1.392,-4.22 -0.801,-8.57 -0.223,-12.76 3.041,-21.96 5.482,-44.003 8.055,-66.027 0.707,-2.235 0.853,-4.526 0.637,-6.851 0.561,-6.126 0.982,-12.263 1.391,-18.402 1.02,-3.123 0.698,-6.331 0.582,-9.527 -0.004,-3.592 -0.058,-7.183 0.006,-10.774 0.172,-3.908 0.11,-7.817 0.031,-11.723 0.277,-8.398 -0.392,-16.754 -1.197,-25.092 -0.187,-0.492 -0.314,-1.008 -0.402,-1.526 -1.618,-13.774 -9.734,-24.042 -18.454,-33.953 -1.081,-1.228 -2.538,-2.13 -3.328,-3.639 -3.456,-4.538 -7.306,-8.678 -12.056,-11.906 -4.49,-2.814 -7.905,-6.962 -11.713,-10.471 -13.25,-12.208 -28.077,-22.182 -42.727,-32.447 -2.768,-2.391 -4.128,0.38 -5.896,1.623 -2.689,2.275 -5.338,4.598 -8.019,6.881 -1.96,1.44 -3.583,3.24 -5.288,4.954 -3.271,2.654 -6.596,5.245 -9.73,8.066 -1.989,1.472 -3.634,3.31 -5.367,5.055 -9.077,7.343 -17.679,15.235 -26.452,22.927 -2.079,1.363 -3.718,3.213 -5.438,4.971 -3.794,3.465 -8.039,6.409 -11.653,10.083 -2.466,1.789 -4.581,3.984 -6.849,6.001 -0.998,1.196 -2.07,2.312 -3.384,3.169 -1.897,1.254 -3.371,2.97 -4.968,4.549 -1.287,1.258 -2.591,2.498 -4.091,3.509 -2.241,1.533 -3.966,3.622 -5.891,5.494 -1.632,1.546 -3.161,3.211 -5.051,4.466 -2.279,1.541 -4.024,3.658 -5.97,5.554 -1.629,1.551 -3.163,3.211 -5.049,4.474 -2.736,1.605 -4.241,4.808 -7.471,5.778 -0.705,0.11 -1.393,0.04 -2.063,-0.205 -1.864,-0.993 -3.134,-2.667 -4.654,-4.057 -2.202,-2.552 -4.098,-5.342 -6.173,-7.996 -1.188,-1.436 -2.512,-2.759 -3.551,-4.318 -13.681,-18.356 -23.033,-38.824 -29.628,-60.64 -0.338,-1.147 -0.715,-2.285 -1.027,-3.44 -0.715,-3.073 -1.685,-6.096 -2.223,-9.201 -0.615,-3.545 -2.248,-3.463 -4.757,-1.776 -4.558,3.066 -8.729,6.625 -12.995,10.059 -0.83,0.763 -1.649,1.539 -2.456,2.328 -0.975,0.943 -2.028,1.791 -3.138,2.569 -2.685,2.091 -5.02,4.567 -7.543,6.834 -6.535,7.121 -13.452,13.862 -20.406,20.565 -2.86,2.781 -5.694,5.584 -7.974,8.889 -3.194,2.906 -5.934,6.234 -8.767,9.48 -1.048,1.017 -2.085,2.062 -3.748,1.779 -0.488,-0.149 -0.837,-0.461 -1.067,-0.912 8.414,-10.112 16.829,-20.224 25.243,-30.336 0.883,-2.446 2.665,-4.048 4.9,-5.225 0.701,-0.703 1.403,-1.407 2.104,-2.111 1.537,-3.084 4.551,-4.832 6.677,-7.384 3.057,-2.908 5.753,-6.205 9.261,-8.63 0.647,-0.43 1.295,-0.861 1.943,-1.292 1.472,-1.801 2.977,-3.568 5.062,-4.711"
       fill="#fefefe"
       id="path23" />
    <path
       d="m 617.985,753.357 c -8.495,7.875 -16.788,15.984 -25.537,23.566 -11.262,9.759 -22.831,19.167 -34.373,28.598 -16.182,13.222 -33.126,25.426 -50.315,37.298 -2.112,1.458 -3.367,1.539 -5.247,-0.771 -8.291,-10.188 -14.084,-21.731 -18.76,-33.851 -3.944,-10.221 -6.719,-20.824 -8.899,-31.565 -1.436,-7.076 -0.399,-8.97 6.549,-7.973 14.653,2.103 29.174,-0.354 43.744,-0.404 12.18,-0.043 24.372,-1.945 36.525,-3.318 19.079,-2.157 37.789,-6.132 56.313,-11.58"
       fill="#3f2e2f"
       id="path25" />
    <path
       d="m 306.525,1113.47 c 9.243,5.01 19.431,7.49 29.289,10.84 5.634,1.91 11.439,3.33 17.214,4.79 1.736,0.44 3.787,1.73 5.368,-0.5 0.51,2.57 -0.748,3.45 -3.15,3.96 -15.626,3.28 -31.372,5.79 -47.303,6.78 -9.604,0.6 -19.223,0.77 -28.886,0.33 -8.567,-0.4 -16.405,-2.15 -23.503,-6.97 -2.173,-0.03 -3.364,-1.23 -3.878,-3.24 -10.759,-10.44 -16.846,-23.77 -22.892,-37.11 -1.37,-0.97 -1.791,-2.26 -1.289,-3.85 -0.727,-2.5 -1.454,-4.99 -2.632,-9.04 11.347,12.81 22.672,23.45 37.771,28.95 11.145,4.9 22.824,6.49 34.899,5.61 1.266,-0.1 2.807,-0.98 3.675,0.33 0.823,1.23 -0.417,2.5 -0.886,3.68 -2.306,5.78 -6.539,9.54 -12.537,11.07 -4.96,1.27 -9.971,2.43 -15.153,2.39 -0.396,3.12 2.605,0.56 3.245,1.94 4.828,0.23 9.643,0.11 14.283,-1.36 9.146,-2.92 14.92,-8.87 16.365,-18.6"
       fill="#e24905"
       id="path27" />
    <path
       d="m 711.499,516.506 c -1.895,5.33 -0.43,10.838 -0.838,16.249 -0.185,2.462 -0.031,4.95 -1.003,7.435 0,-9.073 -0.688,-18.215 0.215,-27.198 0.736,-7.326 0.587,-14.589 0.725,-21.878 0.159,-8.324 0.013,-16.654 0.062,-24.98 0.009,-1.596 -0.549,-3.382 1.019,-4.664 -0.06,18.345 -0.12,36.691 -0.18,55.036"
       fill="#fae6e0"
       id="path29" />
    <path
       d="m 275.877,1133.43 c -2.188,0 -4.376,0 -7.069,0 1.006,-2.54 2.597,-1.8 3.824,-1.94 0.532,1.57 2.468,0.78 3.245,1.94"
       fill="#b6673e"
       id="path31" />
    <path
       d="m 432.481,816.43 c 5.493,-5.465 11.857,-9.752 18.803,-14 1.152,5.19 2.251,10.134 3.349,15.079 -0.705,1.248 0.232,2.017 0.842,2.88 5.352,15.869 11.307,31.482 20.109,45.828 3.179,5.182 6.614,10.207 9.933,15.303 -0.183,2.221 1.927,2.889 2.922,4.312 3.146,1.509 3.735,5.268 6.365,7.23 0.588,2.071 1.897,3.48 3.898,4.256 0.672,0.136 1.344,0.273 2.016,0.41 3.272,-0.876 4.736,-3.814 6.856,-6.005 1.543,-1.472 3.086,-2.945 4.629,-4.417 2.966,-0.907 4.48,-3.463 6.361,-5.601 1.624,-1.562 3.248,-3.124 4.871,-4.685 3.005,-0.652 4.233,-3.362 6.134,-5.292 1.212,-1.141 2.424,-2.283 3.636,-3.424 2.571,-0.624 3.825,-2.781 5.365,-4.606 1.14,-1.062 2.281,-2.124 3.421,-3.185 3.057,-0.951 4.601,-3.627 6.596,-5.788 3.341,-4.243 8.123,-6.891 11.848,-10.709 2.691,-0.258 3.552,-2.709 5.14,-4.289 8.951,-7.911 17.903,-15.823 26.855,-23.735 2.712,-0.206 3.537,-2.699 5.144,-4.245 2.667,-3.615 6.806,-5.574 9.856,-8.759 2.715,-0.199 3.534,-2.698 5.145,-4.237 2.461,-2.833 5.348,-5.174 8.42,-7.303 2.102,-0.975 3.953,-2.88 6.614,-1.781 14.448,9.124 28.238,19.205 41.062,30.448 3.959,3.472 9.475,5.692 11.459,11.313 0.35,0.992 1.577,1.095 2.561,1.274 3.614,4.205 7.526,8.113 11.728,11.731 2.029,3.577 5.841,5.441 8.201,8.799 6.325,9.001 13.007,17.761 14.029,29.278 -0.21,0.632 -0.071,-0.257 -0.319,0.352 -0.304,0.745 -0.069,1.526 -0.296,2.259 0.327,-0.583 -0.041,-1.43 0.706,-1.854 1.771,8.667 2.195,17.431 1.904,26.247 -0.889,3.97 -0.805,7.944 -0.04,11.92 -0.053,3.703 -0.106,7.407 -0.159,11.111 -0.853,3.09 0.197,6.312 -0.648,9.403 0.119,6.232 -0.576,12.407 -1.32,18.578 -0.841,2.045 0.091,4.278 -0.673,6.331 -0.96,10.858 -1.848,21.696 -3.89,32.459 -1.49,7.844 -1.498,15.974 -2.351,23.954 -0.784,7.33 -1.815,14.64 -2.738,21.96 -1.232,1.84 -3.194,1.55 -4.971,1.6 -22.493,0.67 -44.3,4.72 -65.311,12.93 -10.262,4 -20.118,8.79 -29.552,14.47 -1.685,1.01 -3.206,2.48 -5.427,2.16 -14.372,8.62 -26.711,19.66 -38.028,31.92 -1.01,1.1 -2.063,2.15 -3.096,3.22 -10.309,4.26 -20.632,8.47 -31.804,9.99 -5.652,-2.64 -11.563,-4.14 -17.843,-3.96 -1.661,-0.18 -3.458,-1.51 -4.847,0.59 -0.916,1.59 -2.341,2.45 -4.069,2.88 -2.062,0.08 -2.849,1.51 -3.366,3.21 -0.576,1.84 -1.446,3.5 -2.914,4.79 -3.082,4.04 -1.951,9.15 -3.436,13.6 -1.579,2.16 -3.854,3.44 -6.129,4.65 -1.328,0.71 -3.029,1.79 -3.872,-0.74 -0.021,-9.3 0.005,-18.6 -0.075,-27.89 0.206,9.66 -0.112,19.33 0.108,28.99 0.099,0.61 -0.003,1.19 -0.301,1.73 -0.536,0.4 -1.062,0.39 -1.574,-0.05 -1.514,-2.22 -1.116,-4.77 -1.144,-7.23 -0.071,-6.46 -0.062,-12.92 -0.013,-19.38 0.026,-3.37 -1.43,-4.67 -4.774,-4.78 -4.376,-0.15 -8.537,1.01 -12.788,1.53 -1.902,0.34 -4.141,-1.75 -5.759,0.79 -1.061,1.54 -2.944,1.38 -4.379,2.16 -0.351,0.22 -0.699,0.44 -1.029,0.69 -0.765,1.93 -1.018,3.81 0.469,5.54 2.578,1.12 5.098,0.35 7.632,-0.21 1.754,-0.15 3.469,-0.19 4.714,1.38 1.591,4.87 0.62,9.88 0.749,14.83 0.151,5.81 0.147,11.62 -0.036,17.42 -0.032,0.56 -0.143,1.11 -0.311,1.64 -4.222,4.85 -9.166,9.05 -13.125,14.19 -4.93,6.4 -9.18,12.99 -9.648,21.42 -0.495,8.91 3.836,15.68 9.616,21.64 8.861,9.15 19.477,16 30.47,22.29 3.46,1.97 7,3.83 10.347,5.98 1.615,1.04 2.778,2.55 -0.628,2.76 -40.542,-0.01 -81.069,0 -121.596,-0.03 -1.778,-0.01 -3.656,0.54 -5.344,-0.54 0.001,-4.31 0.001,-8.61 0.002,-12.92 0.901,-3.94 0.357,-7.93 0.377,-11.89 0.078,-15.79 0.021,-31.57 0.05,-47.35 0.003,-1.64 -0.346,-3.33 0.381,-4.92 0.092,-20.97 0.048,-41.95 0.337,-62.91 0.139,-10.03 -0.706,-19.92 -2.177,-29.81 -0.501,-3.36 -0.765,-6.76 -1.137,-10.14 -2.248,-4.12 -2.058,-8.77 -2.231,-13.15 -0.386,-9.79 -1.205,-19.61 -1.019,-29.36 0.249,-13.1 0.699,-26.22 1.525,-39.323 1.119,-17.764 2.947,-35.437 5.275,-53.067 2.607,-19.738 6.165,-39.305 10.956,-58.631 0.234,-1.567 0.561,-3.121 0.986,-4.647 0.104,-0.467 0.307,-0.899 0.585,-1.29 1.588,-1.772 4.256,-2.523 4.936,-5.173 2.507,-3.605 5.194,-7.038 9.009,-9.387 2.266,-3.444 6.283,-5.442 7.831,-9.479 6.855,-6.817 13.711,-13.634 20.566,-20.451 3.432,-1.247 5.245,-4.308 7.589,-6.774 0.959,-0.885 1.917,-1.771 2.876,-2.656 1.316,0.235 1.763,-0.593 2.023,-1.652"
       fill="#ee4f0a"
       id="path33" />
    <path
       d="m 711.575,1045.32 c 2.521,-21.85 5.046,-43.71 7.56,-65.568 0.587,-5.102 1.134,-10.208 1.7,-15.312 0.783,-2.024 -0.151,-4.23 0.66,-6.251 0.667,-10.003 1.335,-20.007 2.002,-30.01 1.334,3.51 0.229,7.085 0.654,10.02 0.003,-13.226 0,-27.062 0.002,-40.548 -0.304,1.505 0.516,3.407 -0.675,5.188 -0.271,-2.97 -0.733,-5.937 -0.783,-8.911 -0.272,-16.459 -6.384,-30.619 -16.539,-43.327 -7.233,-9.05 -15.479,-17.127 -23.581,-25.352 -1.582,-1.585 -2.457,-4.013 -5.13,-4.295 -13.568,-11.471 -27.824,-22.029 -42.511,-32.016 -6.844,-4.653 -6.845,-4.652 -0.142,-9.445 1.099,-0.678 2.39,-0.778 3.579,-1.19 11.968,-0.549 23.894,0.588 35.827,1.087 12.968,0.542 25.911,0.931 38.854,-0.107 9.141,-0.733 18.288,-0.111 27.425,-0.42 5.447,-0.184 10.91,-1.467 16.295,0.451 17.61,6.553 35.098,13.395 51.882,21.906 1.623,0.823 3.28,1.579 4.921,2.366 2.339,-0.128 3.707,1.342 4.952,3.013 25.887,16.927 45.222,39.405 57.626,67.808 7.207,16.505 12.359,33.665 16.357,51.176 11.133,48.759 19.655,97.997 26.889,147.467 1.728,11.82 2.742,23.74 5.225,35.44 0.852,1.31 1.318,2.65 0.237,4.07 0.892,6.74 1.52,13.54 2.776,20.22 0.767,4.07 -0.565,5.87 -4.265,7.33 -16.288,6.44 -33.219,10.55 -50.252,14.31 -29.546,6.53 -59.457,10.77 -89.504,14.13 -1.324,0.74 -2.654,1.26 -4.029,0.11 -6.273,0.23 -12.559,0.28 -18.813,0.75 -3.93,0.3 -5.479,-1.09 -6.135,-5.01 -1.686,-10.06 -3.849,-20.05 -5.821,-30.06 -1.635,-1.27 -1.642,-3.2 -1.984,-4.97 -7.187,-37.12 -13.887,-74.33 -21.294,-111.4 -0.344,-1.72 -0.389,-3.48 -0.611,-5.22 -0.335,-0.62 -0.943,0.44 -0.413,0.03 0.2,-0.15 0.355,-0.04 0.368,0.34 0.324,9.53 2.802,18.73 4.257,28.09 0.835,5.37 -0.158,6.68 -5.64,6.64 -4.102,-0.03 -8.339,0.13 -11.926,-2.53"
       fill="#ee4f0a"
       id="path35" />
    <path
       d="m 670.663,1249.4 c -19.02,-13.92 -35.653,-30.55 -52.985,-46.4 -4.206,-3.85 -5.662,-7.74 -4.629,-13.03 0.284,-1.45 0.249,-2.97 0.361,-4.45 -2.463,-3.72 -0.311,-7.47 0.245,-11.04 1.293,-8.31 3.553,-16.44 5.868,-24.53 1.066,-2.69 1.939,-5.45 2.832,-8.21 2.092,-5.6 4.278,-11.16 6.605,-16.67 1.281,-3.03 3.084,-5.49 6.22,-6.78 22.159,-9.09 44.383,-17.97 68.267,-21.63 1.486,-0.23 2.957,-0.46 4.449,-0.12 2.189,0.57 3.882,2.08 5.844,3.09 3.385,1.89 6.329,4.53 10.015,5.92 0.625,0.31 1.17,0.72 1.657,1.21 1.502,1.72 3.411,2.87 5.442,3.84 0.611,0.32 1.144,0.75 1.623,1.24 1.54,1.74 3.549,2.89 5.369,4.28 7.328,4.6 7.882,11.85 7.591,19.43 2.036,11.61 4.115,23.21 6.073,34.83 0.394,2.34 1.756,3.01 3.798,3.03 2.47,0.02 4.941,0 7.699,0 -1.208,6.06 -2.307,11.57 -3.405,17.08 0.757,1.83 0.421,3.4 -1.121,4.69 -1.46,3.64 -2.407,7.41 -2.85,11.31 0.712,1.58 0.202,2.85 -1.027,3.93 -1.315,4.04 -2.629,8.08 -3.944,12.12 -0.938,2.12 -3.03,2.48 -4.888,3.1 -13.735,4.61 -27.543,9 -41.128,14.04 -1.663,0.45 -3.289,1.02 -4.913,1.6 -1.17,0.39 -2.347,0.77 -3.499,1.22 -6.646,2.16 -13.254,4.44 -19.901,6.59 -1.842,0.59 -3.698,1.71 -5.668,0.31"
       fill="#fefefe"
       id="path37" />
    <path
       d="m 843.132,1252.01 c -16.497,0 -32.995,-0.1 -49.491,0.07 -3.979,0.05 -5.43,-0.26 -4.42,-5.08 5.151,-24.58 9.921,-49.24 14.532,-73.92 0.598,-3.21 2.418,-3.08 4.446,-3.32 20.01,-2.31 39.98,-4.9 59.862,-8.15 15.767,-2.57 31.479,-5.44 46.716,-10.34 2.996,-0.97 3.605,-0.46 3.843,2.54 1.495,18.83 -2.138,37.15 -5.596,55.44 -2.534,13.41 -6.503,26.43 -12.437,38.81 -1.398,2.91 -3.076,4.08 -6.464,4.04 -16.995,-0.2 -33.994,-0.09 -50.991,-0.09"
       fill="#fbe4db"
       id="path39" />
    <path
       d="m 532.549,1217.66 c -5.202,-3.96 -5.147,-9.44 -4.565,-15.19 1.042,-10.28 1.671,-20.58 3.464,-30.8 1.534,-8.74 5.328,-16.4 9.636,-23.87 3.084,-5.34 6.831,-10.3 10.282,-15.44 1.271,-1.89 2.904,-3.5 4.148,-5.41 8.626,-8.41 17.131,-16.95 27.393,-23.44 2.79,-1.76 5.525,-3.62 8.573,-4.94 2.152,-0.36 4.04,-1.7 6.286,-1.72 3.899,1.28 6.637,4.31 9.852,6.6 6.753,4.82 13.104,10.18 19.802,15.07 2.448,1.79 3.309,3.66 1.907,6.76 -2.38,5.27 -4.549,10.66 -6.323,16.18 -1.141,2.54 -2.009,5.18 -2.775,7.85 -3.907,12.49 -6.119,25.34 -8.463,38.17 0.7,6.9 -2.483,10.48 -8.711,13.82 -15.931,8.54 -29.098,20.92 -41.867,33.58 -2.423,2.4 -4.102,2.64 -6.455,0.55 -2.147,-0.56 -3.935,-1.74 -5.564,-3.2 -1.371,-1.02 -2.793,-1.98 -4.11,-3.07 -1.797,-1.23 -3.491,-2.58 -5.05,-4.11 -2.638,-2.31 -5.889,-4.01 -7.46,-7.39"
       fill="#fefefe"
       id="path41" />
    <path
       d="m 622.443,1141.14 c 1.317,-5.51 3.61,-10.67 6.048,-15.73 1.262,-2.62 0.794,-3.97 -1.478,-5.67 -9.878,-7.35 -19.606,-14.9 -29.388,-22.38 -0.737,-0.22 -1.282,-0.62 -1.38,-1.44 1.42,-5.59 6.325,-8.39 9.987,-12.08 6.315,-6.37 13.539,-11.67 20.684,-15.75 -6.331,3.04 -13.085,6.9 -19.766,10.91 -1.616,0.97 -3.114,2.7 -5.404,1.78 -0.061,-1.46 -0.121,-2.93 -0.181,-4.39 19.659,-13.61 41.536,-21.91 64.754,-26.92 13.338,-2.89 26.892,-3.9 40.507,-4.24 1.582,0.03 3.165,0.06 4.749,0.09 4.638,0.4 9.282,0.74 13.912,1.21 2.457,0.25 3.26,-0.41 2.713,-3.04 -1.557,-7.48 -2.832,-15.01 -4.291,-22.51 -0.654,-3.36 -0.733,-6.6 1.643,-10.42 2.107,10.51 4.165,20.35 6.037,30.21 5.57,29.37 11.074,58.75 16.577,88.13 0.335,1.79 0.439,3.63 0.651,5.44 -1.126,0.4 -2.253,0.81 -3.38,1.21 -0.509,-2.05 -1.331,-4.07 -1.466,-6.14 -0.361,-5.56 -2.354,-10.06 -7.307,-12.97 -0.141,-1.01 0.522,-1.31 1.313,-1.49 2.448,-0.49 1.411,-2.3 1.185,-3.57 -3.201,-18.01 -6.664,-35.97 -9.877,-53.98 -0.673,-3.77 -2.938,-5.03 -6.543,-5.51 -13.932,-1.84 -27.828,-0.22 -41.731,0.08 -0.547,0.08 -1.105,-0.12 -1.657,0.03 0.551,0.08 1.102,-0.05 1.68,0 10.913,-0.75 21.501,1.19 31.975,3.77 5.38,1.33 6.271,3.23 5.067,8.76 -2.326,10.7 -6.059,21.05 -7.832,31.88 -0.305,0.81 -0.622,1.62 -1.768,1.17 -14.896,1.12 -29.019,5.55 -42.983,10.41 -10.028,3.49 -19.788,7.74 -29.72,11.52 -2.708,1.03 -4.271,2.71 -5.276,5.41 -2.189,5.9 -4.673,11.68 -7.037,17.51 -1.015,0.1 -1.395,-0.3 -1.017,-1.29"
       fill="#2f201b"
       id="path43" />
    <path
       d="m 482.642,1147.49 c 3.473,-0.8 5.725,-3.76 8.933,-5.03 1.812,1.75 1.341,3.91 1.098,6.03 -1.295,5.53 -1.01,11.21 -0.464,16.71 0.653,6.57 0.68,13.13 0.893,19.69 0.028,0.84 0.276,1.62 0.744,2.31 1.237,1.56 1.934,3.43 2.977,5.1 3.456,5.53 8.023,9.5 14.719,10.57 1.739,0.28 3.672,0.15 5.044,1.64 -2.133,15.55 -2.476,31.18 -1.964,46.85 -7.331,1.01 -14.661,1 -21.992,0 -10.869,-6.36 -22.092,-12.15 -32.096,-19.91 -6.444,-5 -12.776,-10.14 -16.994,-17.27 -6.814,-11.51 -4.777,-25.07 5.605,-36.61 4.178,-4.64 7.404,-10.33 13.436,-13.1 1.199,6.59 0.331,13.24 0.509,19.86 0.152,5.67 0.044,11.35 0.035,17.02 0.052,-12.47 0.005,-24.94 0.037,-37.4 -0.051,-0.67 0.182,-1.22 0.699,-1.65 2.925,1.42 2.233,4.2 2.297,6.55 0.293,10.79 -0.323,21.6 0.373,32.36 2.869,2.66 10.031,2.82 12.496,0.24 0.089,-14.82 -0.03,-29.62 0.062,-44.42 0.017,-2.59 -0.543,-5.39 1.65,-7.54 0.296,0 0.591,-0.01 0.887,-0.01 1.051,3.76 0.436,7.59 0.461,11.39 0.089,13.3 0.039,26.61 0.048,39.91 0.022,-17.16 0.01,-34.33 0.022,-51.5 -0.042,-0.65 0.12,-1.25 0.485,-1.79"
       fill="#e24905"
       id="path45" />
    <path
       d="m 78.7,716.164 c 11.6,8.317 23.378,16.393 35.044,25.778 -8.659,6.998 -17.145,13.789 -25.537,20.696 -1.649,1.357 -2.741,0.441 -3.965,-0.36 -5.424,-3.547 -11.002,-6.889 -16.202,-10.74 -12.719,-9.415 -28.15,-14.272 -40.462,-24.368 -4.174,-3.422 -8.057,-6.924 -9.95,-12.148 -3.068,-8.47 1.053,-16.266 9.737,-18.519 7.343,-1.906 14.12,0.246 20.874,2.735 7.194,2.651 13.518,7.009 20.367,10.336 4.226,0.878 7.389,3.384 10.094,6.59"
       fill="#fbe4db"
       id="path47" />
    <path
       d="m 134.522,714.755 c 1.41,2.619 6.064,3.78 5.434,6.311 -0.552,2.221 -4.469,3.563 -6.831,5.383 -4.47,3.445 -9.006,6.82 -13.281,10.495 -2.085,1.792 -3.394,1.519 -5.443,-0.04 -10.677,-8.127 -21.197,-16.487 -32.72,-23.436 -3.816,-1.121 -7.162,-2.975 -9.641,-6.181 -6.764,-4.721 -14.256,-8.371 -20.168,-14.35 -5.111,-5.169 -9.021,-10.719 -8.471,-18.412 -0.018,-3.854 0.786,-7.192 5.197,-8.259 8.346,-3.75 16.249,-1.674 23.936,1.996 14.519,6.932 26.756,17.191 39.201,27.137 1.283,1.025 2.626,1.974 3.941,2.958 5.035,1.493 8.01,5.794 11.738,8.969 2.555,2.177 6.003,3.772 7.108,7.429"
       fill="#fbe4db"
       id="path49" />
    <path
       d="m 516.586,1204.51 c -11.414,0.05 -19.132,-5.19 -22.93,-16.03 -0.385,-0.46 -0.671,-0.97 -0.856,-1.54 -0.546,-4.69 0.399,-9.45 -0.629,-14.12 -0.668,-7.99 -0.82,-15.98 -0.226,-23.97 0.927,-7.1 0.018,-14.45 2.866,-21.29 2.417,-0.04 1.529,-2.82 3.022,-3.63 0.573,-1.9 1.525,-3.42 3.744,-3.64 1.451,-0.88 2.901,-1.76 4.352,-2.65 1.008,-1.1 2.225,-1.54 3.698,-1.16 6.774,-0.69 13.254,0.01 19.036,4.01 7.119,3.98 10.595,12.14 9.041,21.26 -0.191,1.13 -0.851,2.19 -0.351,3.39 -3.058,6.01 -6.361,11.92 -8.517,18.35 0.427,1.55 -0.013,2.8 -1.334,3.73 -3.396,6.37 -4.811,13.44 -7.023,20.23 -0.684,0.25 -1.194,0.05 -1.534,-0.59 -1.461,-6.12 -0.348,-12.34 -0.724,-18.5 0.027,-7.4 0.005,-14.79 0.003,-22.18 -0.05,-4.66 0.263,-9.34 -0.184,-13.99 -1.188,-1.78 -1.896,-4.7 -4.925,-2.03 -1.55,3.7 -0.968,7.59 -1.067,11.42 -0.018,11.89 0.009,23.77 0.002,35.63 0.074,2.8 -0.086,5.6 -0.038,8.4 0.066,3.89 1.587,6.32 5.828,6.31 1.195,0.57 1.573,1.41 0.853,2.6 -0.703,3.33 -1.405,6.66 -2.107,9.99"
       fill="#fefefe"
       id="path51" />
    <path
       d="m 756.772,779.314 c -12.729,1.22 -25.505,0.936 -38.26,1.33 -7.431,0.229 -14.863,0.815 -22.32,0.867 -19.562,0.135 -39.055,-1.613 -58.594,-2.061 -0.563,-1.919 1.809,-2.406 1.944,-3.985 1.052,-0.928 2.103,-1.857 3.154,-2.785 2.129,-0.057 2.987,-1.643 3.862,-3.209 0.761,-1.249 1.855,-2.121 3.15,-2.762 1.616,0.082 2.336,-0.926 2.774,-2.278 1.117,-1.566 2.575,-2.744 4.225,-3.702 1.606,0.065 2.328,-0.955 2.802,-2.279 0.787,-1.243 1.867,-2.15 3.184,-2.787 2.143,-0.031 2.988,-1.627 3.854,-3.196 0.769,-1.245 1.865,-2.114 3.16,-2.756 1.615,0.089 2.328,-0.937 2.795,-2.266 0.305,-0.362 0.609,-0.724 0.914,-1.086 12.754,3.81 24.949,9.118 37.278,14.051 15.412,6.168 30.723,12.591 46.078,18.904"
       fill="#e24905"
       id="path53" />
    <path
       d="m 752.603,1224.13 c 10.429,8.94 20.858,17.88 31.333,26.86 -1.34,1.63 -2.768,0.9 -3.965,0.9 -35.269,0.09 -70.539,0.12 -105.808,0.17 -1.031,0 -2.519,0.71 -2.194,-1.41 8.082,-3.5 16.503,-6.05 24.864,-8.76 1.126,-0.52 2.348,-0.77 3.5,-1.21 1.649,-0.55 3.254,-1.23 4.925,-1.72 13.613,-4.85 27.429,-9.1 41.027,-13.98 2.054,-0.74 4.098,-1.42 6.318,-0.85"
       fill="#fefefe"
       id="path55" />
    <path
       d="m 553.67,1236.41 c 5.835,3.23 4.141,9.13 4.903,14.12 0.278,1.82 -1.465,1.38 -2.51,1.38 -11.467,0.03 -22.933,0.01 -34.4,0.03 -1.473,0.01 -2.539,-0.19 -2.722,-2.03 -1.183,-11.93 -0.865,-23.55 6.078,-34.06 1.332,-2.02 2.084,-2.01 3.55,-0.29 0.928,1.09 1.747,2.46 3.37,2.77 2.831,1.92 5.313,4.27 7.939,6.44 1.772,1.27 3.283,2.88 5.078,4.13 1.395,1 2.735,2.08 4.109,3.12 1.361,1.64 3.808,2.15 4.605,4.39"
       fill="#fefefe"
       id="path57" />
    <path
       d="m 376.651,876.65 c -2.793,16.198 -5.78,32.364 -8.33,48.6 -3.147,20.041 -5.313,40.204 -6.677,60.454 -1.051,15.616 -1.779,31.246 -1.615,46.886 0.136,12.96 1.002,25.92 1.545,38.88 -1.279,-0.65 -2.557,-1.3 -3.835,-1.95 -2.903,-31.21 -2.124,-62.37 0.658,-93.548 3.029,-33.961 8.713,-67.43 17.406,-100.394 0.879,-0.114 1.511,-0.032 0.848,1.072"
       fill="#2f201b"
       id="path59" />
    <path
       d="m 601.746,1080.78 c 9.559,-5.48 18.796,-11.6 29.523,-15 -12.573,9.15 -25.79,17.5 -34.69,30.69 -0.936,2 -3.138,1.96 -4.714,2.93 -9.12,5.01 -17.197,11.49 -25.164,18.1 -3.746,3.11 -5.899,7.92 -10.615,10.02 -1.217,0.68 -1.526,0.09 -1.451,-1.04 11.765,-16.66 26.19,-30.63 42.779,-42.43 1.473,-1.05 2.889,-2.18 4.332,-3.27"
       fill="#fdfdfd"
       id="path61" />
    <path
       d="m 537.353,1145.14 c -0.233,-3.29 -0.384,-6.59 -0.716,-9.87 -0.609,-6.01 -3.719,-10.71 -7.974,-14.78 6.543,-0.43 12.303,-3.59 18.467,-5.34 4.425,-1.26 8.679,-3.13 13.312,-3.62 -8.072,9.72 -15,20.24 -21.809,30.84 -1.098,-2.31 -0.068,-4.8 -0.674,-7.48 -0.049,-0.34 -1.077,0.47 -0.445,0.25 0.175,-0.06 0.266,0.01 0.306,0.21 0.569,2.74 0.331,5.5 0.114,8.26 -0.194,0.51 -0.387,1.02 -0.581,1.53"
       fill="#e24907"
       id="path63" />
    <path
       d="m 492.63,1251.36 c 7.33,0 14.661,0 21.991,0 -1.153,1.84 -3.004,1.06 -4.539,1.07 -47.272,0.05 -94.544,0.06 -141.815,0.02 -1.52,0 -3.38,0.84 -4.526,-1.04 42.963,-0.02 85.926,-0.04 128.889,-0.05"
       fill="#94735e"
       id="path65" />
    <path
       d="m 134.522,714.755 c -6.282,-5.466 -12.564,-10.932 -18.846,-16.398 0.704,-1.072 1.407,-2.143 2.111,-3.215 6.701,4.967 12.924,10.485 18.852,16.345 -0.706,1.089 -1.411,2.179 -2.117,3.268"
       fill="#2f201b"
       id="path67" />
    <path
       d="m 752.603,1224.13 c -14.752,4.89 -29.503,9.78 -44.26,14.66 -1.09,0.36 -2.223,0.59 -3.336,0.88 -1.036,0.41 -1.419,-0.02 -1.343,-1.05 15.665,-5.36 31.331,-10.72 46.996,-16.08 0.648,0.53 1.296,1.06 1.943,1.59"
       fill="#403532"
       id="path69" />
    <path
       d="m 364.551,1174.33 c -0.006,20.46 -0.013,40.91 -0.018,61.37 0,1.01 -0.02,2 -0.79,2.79 0.005,-20.45 0,-40.91 0.049,-61.36 0.002,-0.93 0.495,-1.87 0.759,-2.8"
       fill="#a9795c"
       id="path71" />
    <path
       d="m 611.766,1187.48 c 0.764,-13.38 3.901,-26.26 8.033,-38.94 1.017,-0.1 1.416,0.29 1.033,1.3 -3.059,11.77 -6.186,23.53 -7.422,35.68 -0.548,0.65 -1.096,1.3 -1.644,1.96"
       fill="#2f201b"
       id="path73" />
    <path
       d="m 72.04,707.287 c 3.522,1.579 6.682,3.724 9.641,6.181 -0.994,0.899 -1.987,1.798 -2.981,2.696 -3.364,-2.196 -6.729,-4.393 -10.094,-6.59 0.803,-1.275 2.215,-1.636 3.434,-2.287"
       fill="#2f201b"
       id="path75" />
    <path
       d="m 697.595,1242.3 c -8.505,2.9 -16.813,6.4 -25.626,8.35 -0.436,-0.42 -0.871,-0.83 -1.306,-1.25 8.559,-2.69 17.118,-5.38 25.677,-8.07 1.007,-0.44 1.334,0.01 1.255,0.97"
       fill="#2f201b"
       id="path77" />
    <path
       d="m 145.591,718.368 c 1.93,-1.232 3.808,-2.558 5.809,-3.662 1.177,-0.65 2.646,-0.963 3.415,0.641 0.733,1.531 -0.266,2.484 -1.516,3.163 -1.872,1.017 -3.768,1.99 -5.654,2.982 -0.685,-1.041 -1.369,-2.083 -2.054,-3.124"
       fill="#2f201b"
       id="path79" />
    <path
       d="m 48.598,666.266 c -2.636,2.184 -4.531,4.835 -5.197,8.259 -0.611,0.515 -1.323,1.542 -1.811,1.444 -1.235,-0.247 -1.176,-1.632 -0.854,-2.441 0.984,-2.478 2.962,-4.379 3.553,-7.236 0.288,-1.394 2.806,-1.098 4.309,-0.026"
       fill="#2f201b"
       id="path81" />
    <path
       d="m 539.781,1225.43 c -3.069,-1.86 -5.943,-3.94 -7.842,-7.1 0.159,-0.26 0.362,-0.49 0.61,-0.67 3.166,1.74 5.643,4.29 8.059,6.91 0.303,0.84 0.067,1.16 -0.827,0.86"
       fill="#504846"
       id="path83" />
    <path
       d="m 659.637,732.488 c 0.831,-1.46 1.2,-3.267 3.003,-3.997 1.133,1.148 2.539,2.433 1.164,4.045 -1.15,1.346 -2.792,1.447 -4.167,-0.048"
       fill="#2f201b"
       id="path85" />
    <path
       d="m 95.626,648.397 c -2.333,0.054 -4.666,0.107 -6.999,0.161 2.664,-4.2 4.198,-4.235 6.999,-0.161"
       fill="#2f201b"
       id="path87" />
    <path
       d="m 669.637,719.49 c 1.002,-1.333 2.003,-2.666 3.005,-3.999 1.13,1.15 2.538,2.434 1.162,4.045 -1.15,1.346 -2.792,1.446 -4.167,-0.046"
       fill="#2f201b"
       id="path89" />
    <path
       d="m 220.625,1066.49 c 1.147,1.62 2.295,3.24 3.442,4.85 -5.253,-0.06 -5.693,-0.68 -3.442,-4.85"
       fill="#2f201b"
       id="path91" />
    <path
       d="m 818.527,806.599 c -1.92,-0.562 -3.51,-1.666 -4.952,-3.013 4.007,-2.442 4.726,-2.005 4.952,3.013"
       fill="#2f201b"
       id="path93" />
    <path
       d="m 527.502,1167.22 c -0.122,-1.45 0.681,-2.56 1.334,-3.73 2.018,0.58 3.095,2 2.089,3.86 -0.806,1.5 -2.336,1.52 -3.423,-0.13"
       fill="#2f201b"
       id="path95" />
    <path
       d="m 78.541,662.49 c 0.727,1.655 1.454,3.31 2.181,4.965 -1.483,-0.187 -3.5,0.724 -3.967,-1.656 -0.287,-1.464 -0.318,-3.026 1.786,-3.309"
       fill="#2f201b"
       id="path97" />
    <path
       d="m 251.676,1129.46 c 1.293,1.08 2.586,2.16 3.879,3.24 -1.261,1.29 -2.715,1.86 -4.151,0.46 -1.222,-1.2 -1.044,-2.56 0.272,-3.7"
       fill="#2f201b"
       id="path99" />
    <path
       d="m 758.481,1195.18 c -0.064,-1.67 0.104,-3.28 1.121,-4.69 2.537,0.31 2.273,2.24 1.819,3.77 -0.355,1.19 -1.411,2.38 -2.94,0.92"
       fill="#2f201b"
       id="path101" />
    <path
       d="m 779.587,1168.66 c 1.343,-0.04 2.686,-0.07 4.029,-0.11 -0.754,1.47 -1.32,3.15 -3.501,2.93 -0.811,-0.08 -1.952,0.05 -1.973,-0.95 -0.014,-0.61 0.931,-1.25 1.445,-1.87"
       fill="#2f201b"
       id="path103" />
    <path
       d="m 34.645,739.54 c -1.344,-0.072 -2.687,-0.143 -4.03,-0.215 -0.514,-0.59 -1.476,-1.202 -1.45,-1.767 0.062,-1.32 1.338,-0.997 2.234,-1.042 2.106,-0.106 2.514,1.639 3.246,3.024"
       fill="#2f201b"
       id="path105" />
    <path
       d="m 754.604,1210.42 c -0.15,-1.44 0.118,-2.77 1.027,-3.93 2.68,0.48 2.31,2.47 1.629,4.05 -0.595,1.39 -1.803,0.93 -2.656,-0.12"
       fill="#2f201b"
       id="path107" />
    <path
       d="m 924.861,1112.56 c -0.079,-1.36 -0.158,-2.71 -0.237,-4.07 1.472,0.74 3.191,1.27 3.001,3.46 -0.07,0.81 0.104,1.96 -0.899,2.02 -0.592,0.04 -1.242,-0.91 -1.865,-1.41"
       fill="#2f201b"
       id="path109" />
    <path
       d="m 227.495,1088.5 c 0.429,1.28 0.858,2.56 1.288,3.85 -0.82,0.98 -2.007,1.66 -2.695,0.29 -0.772,-1.54 -1.206,-3.5 1.407,-4.14"
       fill="#2f201b"
       id="path111" />
    <path
       d="m 554.635,1126.48 c 0.483,0.35 0.967,0.69 1.451,1.04 -0.588,2.57 -2.615,3.75 -4.72,4.84 -0.444,-2.81 1.792,-4.13 3.269,-5.88"
       fill="#e3e3e4"
       id="path113" />
    <path
       d="m 78.667,656.547 c -0.083,0.658 -0.165,1.315 -0.247,1.973 -0.809,0.354 -1.02,2.19 -2.24,1.254 -0.998,-0.766 -0.776,-2.271 -0.269,-3.248 0.729,-1.408 1.838,-1.105 2.756,0.021"
       fill="#2f201b"
       id="path115" />
    <path
       d="m 108.785,835.427 c 1.687,0.995 3.027,2.353 4.137,3.952 -2.256,-0.399 -6.678,1.469 -4.137,-3.952"
       fill="#2f201b"
       id="path117" />
    <path
       d="m 553.67,1236.41 c -2.067,-0.83 -3.658,-2.3 -5.206,-3.84 0.146,-0.61 0.543,-0.95 1.159,-1.04 1.703,1.3 3.407,2.6 5.11,3.9 -0.355,0.33 -0.709,0.65 -1.063,0.98"
       fill="#5c5654"
       id="path119" />
    <path
       d="m 537.934,1143.61 c 0,-2.94 0,-5.87 0,-8.81 0.233,-0.02 0.465,-0.04 0.698,-0.06 0,2.55 0,5.09 0,7.64 -0.232,0.41 -0.465,0.82 -0.698,1.23"
       fill="#e0351e"
       id="path121" />
    <path
       d="m 519.65,1187.48 c 0.276,-0.04 0.552,-0.05 0.829,-0.03 -0.444,2.39 -0.474,4.9 -1.786,7.07 -0.346,-0.71 -0.691,-1.43 -1.036,-2.14 -0.518,-0.74 -0.219,-1.51 -0.084,-2.27 0.126,-0.59 0.317,-1.15 0.609,-1.68 0.362,-0.52 0.829,-0.87 1.468,-0.95"
       fill="#d5c6be"
       id="path123" />
    <path
       d="m 659.574,740.678 c -1.634,-0.489 -3.267,-0.977 -4.901,-1.466 2.172,-1.313 3.856,-0.99 4.901,1.466"
       fill="#2f201b"
       id="path125" />
    <path
       d="m 580.218,481.421 c 7.633,-0.161 14.964,1.439 21.667,4.823 13.957,7.044 17.863,21.429 3.894,33.393 -15.737,13.479 -41.404,16.232 -59.214,5.141 -11.798,-7.347 -12.009,-23.292 -0.637,-31.883 10.156,-7.672 21.669,-11.22 34.29,-11.474"
       fill="#f9d1d0"
       id="path127" />
    <path
       d="m 304.055,522.425 c -10.079,0.764 -18.369,-2.963 -25.92,-8.328 -5.325,-3.784 -9.384,-9.044 -8.285,-15.97 1.11,-6.993 6.634,-10.146 13.009,-12.289 12.171,-4.092 32.767,1.891 40.375,12.66 6.718,9.509 2.593,17.187 -6.063,21.562 -4.132,2.088 -8.759,3.163 -13.116,2.365"
       fill="#f9d1d0"
       id="path129" />
    <path
       d="m 361.029,590.106 c -2.381,7.366 -5.502,14.5 -9.136,21.292 -2.661,4.976 -1.226,6.778 3.299,9.152 18.404,9.652 38.37,14.036 58.501,17.642 32.66,5.851 65.515,7.268 98.452,2.223 38.947,-5.967 73.967,-20.149 102.157,-48.776 2.896,-2.941 2.678,-4.527 -0.219,-6.869 -2.061,-1.667 -3.843,-3.692 -5.67,-5.632 -0.959,-1.017 -2.596,-2.02 -1.014,-3.718 1.748,-1.877 2.99,-0.323 4.155,0.813 2.981,2.909 5.759,6.043 8.889,8.777 2.733,2.388 2.247,4.084 -0.016,6.52 -14.707,15.829 -31.918,28.147 -51.594,36.984 -36.882,16.564 -75.805,20.743 -115.686,18.548 -27.357,-1.505 -54.187,-6.145 -80.356,-14.41 -9.102,-2.875 -17.572,-7.047 -25.719,-11.953 -1.865,-1.123 -3.291,-2.138 -1.859,-4.69 4.938,-8.799 9.744,-17.672 14.6,-26.516 0.405,0.204 0.811,0.409 1.216,0.613"
       fill="#2f201b"
       id="path131" />
    <path
       d="m 564.525,378.98 c -2.696,-2.836 -3.69,-5.632 -4.95,-8.216 -5.184,-10.626 -10.657,-21.08 -18.443,-30.092 -17.669,-20.452 -36.726,-22.863 -59.097,-7.63 -1.157,0.788 -1.968,2.288 -3.718,2.193 6.024,-11.487 12.804,-18.778 21.178,-21.777 14.576,-5.219 27.268,-0.537 38.462,8.724 13.319,11.019 20.328,26.014 24.769,42.355 1.195,4.399 2.377,8.838 1.799,14.443"
       fill="#2f201b"
       id="path133" />
    <path
       d="m 513.491,433.609 c 0.538,7.15 0.709,14.291 -1.841,21.144 -1.16,3.116 -2.566,6.448 -6.493,6.744 -3.585,0.27 -5.836,-2.271 -7.394,-5.072 -7.62,-13.704 -9.251,-28.168 -4.811,-43.203 0.896,-3.037 2.657,-6.082 6.237,-6.437 3.541,-0.35 5.666,2.283 7.465,4.973 3.382,5.055 5.03,10.752 6.089,16.66 0.377,0.955 -0.192,1.253 -0.972,1.406 -1.185,-0.156 -2.105,-0.969 -3.207,-1.323 -2.481,-0.797 -4.24,0.308 -5.436,2.351 -1.047,1.788 -0.744,3.623 0.78,4.991 1.852,1.662 3.907,1.647 5.882,0.082 0.913,-0.725 1.525,-1.76 2.462,-2.47 0.452,-0.262 0.863,-0.194 1.239,0.154"
       fill="#2f201b"
       id="path135" />
    <path
       d="m 356.668,441.46 c 0.601,-0.069 1.545,-1.802 1.628,-0.416 0.455,7.638 0.52,15.341 -2.882,22.465 -2.888,6.048 -7.828,6.494 -11.99,1.139 -4.513,-5.807 -6.354,-12.725 -7.349,-19.828 -1.157,-8.26 -1.475,-16.547 1.434,-24.598 1.098,-3.039 2.531,-6.104 6.041,-6.648 3.848,-0.596 6.197,2.244 7.848,5.128 3.289,5.748 6.477,11.633 5.33,18.693 -1.157,-0.304 -1.915,-1.279 -2.959,-1.767 -2.25,-1.051 -4.211,-0.639 -5.698,1.359 -1.218,1.637 -1.224,3.415 0.008,5.049 1.5,1.99 3.458,2.4 5.7,1.308 1.039,-0.506 1.766,-1.501 2.889,-1.884"
       fill="#2f201b"
       id="path137" />
    <path
       d="m 305.474,361.394 c 0.507,-8.516 1.854,-16.869 5.123,-24.803 0.943,-2.287 2.011,-4.582 3.403,-6.613 4.75,-6.932 10.881,-12.396 19.793,-10.98 9.754,1.55 15.397,8.585 18.731,17.516 0.382,1.024 0.174,2.267 0.271,3.956 -3.798,-3.073 -7.008,-6.082 -10.614,-8.504 -8.205,-5.511 -14.351,-4.528 -20.331,3.32 -6.911,9.071 -11.209,19.54 -15.329,30.069 -2.581,-0.731 -1.11,-2.532 -1.047,-3.961"
       fill="#2f201b"
       id="path139" />
    <path
       d="m 783.041,450.518 c 1.799,-0.18 3.2,-0.061 3.585,1.57 0.314,1.327 -0.459,2.246 -1.816,2.482 -18.422,3.2 -26.035,17.281 -32.813,32.339 -1.718,3.815 -1.65,5.5 3.08,6.638 7.217,1.737 10.668,6.555 10.842,13.111 0.177,6.614 -4.447,14.194 -10.083,16.572 -1.488,0.628 -3.014,1.002 -3.893,-0.728 -0.842,-1.656 0.654,-2.297 1.747,-3.026 0.829,-0.554 1.68,-1.085 2.455,-1.707 4.212,-3.384 6.561,-7.73 5.248,-13.119 -1.333,-5.476 -5.987,-7.203 -10.951,-8.007 -5.805,-0.939 -5.858,-0.915 -4.085,-6.45 3.593,-11.214 8.811,-21.488 17.353,-29.815 5.519,-5.38 12.076,-8.73 19.331,-9.86"
       fill="#30211d"
       id="path141" />
    <path
       d="m 398.305,496.64 c -5.845,0.18 -11.671,0.482 -17.44,1.194 -8.151,1.004 -11.056,5.147 -9.806,13.356 1.27,8.337 5.563,15.181 10.677,21.629 1.124,1.418 3.657,2.901 1.079,4.835 -2.066,1.55 -3.247,-0.701 -4.353,-2.03 -5.482,-6.587 -9.805,-13.775 -11.448,-22.349 -0.772,-4.029 -0.409,-7.96 0.784,-11.824 1.168,-3.786 3.679,-6.171 7.617,-7.094 7.89,-1.851 15.34,0.404 22.89,2.283"
       fill="#312420"
       id="path143" />
    <path
       d="m 356.668,441.46 c -0.97,3.351 -3.406,4.382 -6.501,3.632 -2.638,-0.639 -4.297,-2.581 -4.432,-5.367 -0.148,-3.05 1.547,-5.151 4.372,-5.891 3.086,-0.808 5.53,0.296 6.621,3.56 -0.02,1.356 -0.04,2.711 -0.06,4.066"
       fill="#fafafa"
       id="path145" />
    <path
       d="m 305.474,361.394 c 0.821,1.195 -0.634,2.993 1.047,3.961 -0.339,1.164 -1.038,2.405 -1.784,0.53 -0.52,-1.308 -0.231,-3.107 0.737,-4.491"
       fill="#9d9694"
       id="path147" />
    <path
       d="m 511.684,429.451 c 0.353,-0.344 0.706,-0.689 1.059,-1.033 1.357,1.571 0.908,3.401 0.748,5.191 l -0.346,0.007 -0.345,-0.028 c -1.433,-1.093 -1.867,-2.455 -1.116,-4.137"
       fill="#938d8b"
       id="path149" />
    <path
       d="m 426.747,814.538 c -2.179,3.816 -5.905,6.088 -8.99,8.999 -0.399,0.392 -0.781,0.356 -1.147,-0.047 3.085,-3.316 5.434,-7.467 10.137,-8.952"
       fill="#ee311e"
       id="path151" />
    <path
       d="m 416.61,823.49 c 0.382,0.016 0.765,0.032 1.147,0.047 -2.316,2.339 -4.632,4.677 -6.948,7.015 0.247,-3.74 3.639,-4.895 5.801,-7.062"
       fill="#ee3f24"
       id="path153" />
    <path
       d="m 408.705,832.663 c -1.634,1.742 -3.267,3.484 -4.9,5.226 0.353,-2.943 1.51,-5.132 4.9,-5.226"
       fill="#ed2714"
       id="path155" />
    <path
       d="m 433.752,808.535 c -0.998,2.312 -2.986,3.559 -5.063,4.711 0.637,-2.7 2.258,-4.341 5.063,-4.711"
       fill="#ee341c"
       id="path157" />
    <path
       d="m 378.502,872.452 c -0.243,0.034 -0.487,0.06 -0.732,0.078 -0.663,-0.031 -0.718,-0.649 -1.005,-1.043 -0.16,-1.505 0.672,-2.463 1.798,-3.261 0.372,0.132 0.744,0.266 1.117,0.399 0.54,1.563 -0.271,2.71 -1.178,3.827"
       fill="#a28c80"
       id="path159" />
    <path
       d="m 376.765,871.487 c 0.335,0.348 0.669,0.696 1.005,1.043 -0.152,1.433 0.036,2.957 -1.119,4.119 -0.283,-0.356 -0.565,-0.714 -0.848,-1.071 0.321,-1.364 0.641,-2.727 0.962,-4.091"
       fill="#524540"
       id="path161" />
    <path
       d="m 723.478,902.839 c 0,-3.103 0,-6.207 0,-9.31 0.306,0.007 0.611,0.014 0.917,0.021 0,15.635 0,31.271 0,46.906 -0.299,0.005 -0.599,0.01 -0.898,0.016 0,-4.098 0,-8.195 0,-12.293 -0.006,-8.447 -0.013,-16.893 -0.019,-25.34"
       fill="#ee3d2a"
       id="path163" />
    <path
       d="m 694.419,844.433 c -5.027,-2.794 -8.937,-6.704 -11.729,-11.731 4.553,3.268 8.421,7.22 11.729,11.731"
       fill="#ee341a"
       id="path165" />
    <path
       d="m 399.427,847.963 c -0.637,4.791 -4.736,6.721 -7.831,9.479 1.349,-4.202 4.954,-6.539 7.831,-9.479"
       fill="#ee341f"
       id="path167" />
    <path
       d="m 427.582,820.738 c -1.658,3.235 -3.268,6.524 -7.589,6.774 2.176,-2.654 4.632,-4.994 7.589,-6.774"
       fill="#ee3822"
       id="path169" />
    <path
       d="m 507.574,891.723 c -1.451,2.955 -2.819,6.003 -6.856,6.005 2.15,-2.157 4.136,-4.5 6.856,-6.005"
       fill="#ee3017"
       id="path171" />
    <path
       d="m 548.587,854.725 c -1.391,2.851 -2.578,5.932 -6.596,5.788 1.837,-2.341 4.012,-4.297 6.596,-5.788"
       fill="#ee3922"
       id="path173" />
    <path
       d="m 718.604,921.434 c -1.537,-3.979 -1.601,-7.953 0.04,-11.92 0.398,3.974 0.463,7.948 -0.04,11.92"
       fill="#ed2314"
       id="path175" />
    <path
       d="m 529.569,871.728 c -1.182,2.764 -2.334,5.563 -6.134,5.292 1.867,-1.97 3.703,-3.976 6.134,-5.292"
       fill="#ee2f19"
       id="path177" />
    <path
       d="m 378.502,872.452 c 0.392,-1.276 0.785,-2.551 1.178,-3.827 0.97,-0.598 1.939,-1.197 2.908,-1.796 0.177,2.993 -1.858,4.378 -4.086,5.623"
       fill="#ee3621"
       id="path179" />
    <path
       d="m 627.609,789.667 c -2.205,0.594 -4.41,1.188 -6.614,1.782 1.823,-2.01 3.325,-5.214 6.614,-1.782"
       fill="#ee3d28"
       id="path181" />
    <path
       d="m 518.564,881.705 c -1.074,3.055 -2.764,5.413 -6.362,5.601 1.852,-2.174 3.838,-4.193 6.362,-5.601"
       fill="#ee2d17"
       id="path183" />
    <path
       d="m 677.445,820.954 c 3.511,-0.719 4.222,1.907 5.13,4.295 -2.122,-0.94 -3.568,-2.687 -5.13,-4.295"
       fill="#ee3119"
       id="path185" />
    <path
       d="m 612.575,798.751 c -0.948,2.344 -1.588,5.062 -5.145,4.237 1.562,-1.598 3.052,-3.283 5.145,-4.237"
       fill="#ee341c"
       id="path187" />
    <path
       d="m 597.574,811.747 c -0.94,2.355 -1.593,5.057 -5.145,4.246 1.562,-1.602 3.041,-3.302 5.145,-4.246"
       fill="#ee331a"
       id="path189" />
    <path
       d="m 565.575,839.727 c -0.91,2.393 -1.622,5.022 -5.14,4.289 1.544,-1.633 3.015,-3.352 5.14,-4.289"
       fill="#ee3019"
       id="path191" />
    <path
       d="m 538.57,863.698 c -0.715,2.787 -2.237,4.633 -5.366,4.607 1.546,-1.82 3.151,-3.568 5.366,-4.607"
       fill="#ee2e17"
       id="path193" />
    <path
       d="m 717.797,941.948 c -0.042,-3.153 -0.897,-6.361 0.648,-9.404 0.138,3.159 0.35,6.323 -0.648,9.404"
       fill="#f1563f"
       id="path195" />
    <path
       d="m 639.542,775.465 c 1.085,2.173 -1.752,2.434 -1.943,3.985 -0.936,0.014 -1.872,0.028 -2.807,0.043 1.583,-1.342 3.167,-2.685 4.75,-4.028"
       fill="#df270f"
       id="path197" />
    <path
       d="m 488.439,885.832 c -1.964,-0.766 -4.073,-1.435 -2.922,-4.312 1.199,1.285 2.574,2.451 2.922,4.312"
       fill="#ee3521"
       id="path199" />
    <path
       d="m 498.702,897.318 c -3.246,0.363 -3.671,-1.857 -3.898,-4.256 1.3,1.419 2.599,2.837 3.898,4.256"
       fill="#ed2712"
       id="path201" />
    <path
       d="m 666.547,752.467 c -0.033,2.574 -1.097,3.906 -3.854,3.196 1.285,-1.065 2.57,-2.131 3.854,-3.196"
       fill="#df280f"
       id="path203" />
    <path
       d="m 646.558,769.471 c -0.048,2.562 -1.113,3.898 -3.862,3.209 1.287,-1.07 2.575,-2.139 3.862,-3.209"
       fill="#df2811"
       id="path205" />
    <path
       d="m 715.804,966.857 c -0.128,-2.148 -0.805,-4.354 0.673,-6.331 0.17,2.152 0.195,4.289 -0.673,6.331"
       fill="#f15d48"
       id="path207" />
    <path
       d="m 721.495,958.189 c 0.12,2.12 0.778,4.297 -0.66,6.252 -0.2,-2.129 -0.138,-4.229 0.66,-6.252"
       fill="#f15e49"
       id="path209" />
    <path
       d="m 672.502,747.445 c 0.413,2.414 -0.478,3.22 -2.795,2.266 0.931,-0.755 1.863,-1.511 2.795,-2.266"
       fill="#df250f"
       id="path211" />
    <path
       d="m 659.509,758.45 c 0.521,2.547 -0.686,2.972 -2.802,2.279 0.934,-0.76 1.868,-1.52 2.802,-2.279"
       fill="#df250f"
       id="path213" />
    <path
       d="m 652.482,764.431 c 0.209,2.248 -0.362,2.718 -2.774,2.279 0.925,-0.76 1.849,-1.52 2.774,-2.279"
       fill="#df230d"
       id="path215" />
    <path
       d="m 455.475,820.389 c -2.187,-0.402 -2.387,-1.386 -0.842,-2.88 0.281,0.96 0.562,1.92 0.842,2.88"
       fill="#ed2612"
       id="path217" />
    <path
       d="m 716.74,883.267 c -0.126,1.082 -0.252,2.164 -0.459,3.943 -0.812,-2.129 -1.106,-3.501 0.368,-4.701 0.222,0.23 0.252,0.483 0.091,0.758"
       fill="#ed2314"
       id="path219" />
    <path
       d="m 432.481,816.43 c 1.179,0.74 0.35,1.323 -0.187,1.856 -0.651,0.646 -1.342,0.921 -1.836,-0.204 0.675,-0.551 1.349,-1.101 2.023,-1.652"
       fill="#ed2614"
       id="path221" />
    <path
       d="m 464.71,1203.37 c -1.159,-9.92 -0.162,-19.88 -0.524,-29.81 -0.138,-3.8 0.491,-7.62 -0.386,-11.39 -1.476,-4.71 -0.344,-9.53 -0.626,-14.3 -0.364,-6.12 0.563,-12.28 -0.507,-18.39 -1.692,0.07 -3.383,0.14 -5.074,0.21 -0.312,0.08 -0.621,0.23 -0.936,0.24 -7.201,0.36 -8.313,-1.17 -6.133,-8.44 1.732,-0.66 3.463,-1.32 5.195,-1.98 1.162,-0.85 2.407,-1.4 3.896,-1.05 5.656,-1.12 11.216,-2.6 17.129,-2.27 3.03,0.17 3.92,0.89 3.876,3.96 -0.139,9.78 0.054,19.56 0.119,29.34 -0.066,16.27 -0.109,32.54 -0.228,48.81 -0.013,1.73 0.743,3.7 -1.01,5.12 -4.933,0.88 -9.864,0.95 -14.791,-0.05"
       fill="#fefdfd"
       id="path223" />
    <path
       d="m 482.632,1148.49 c 0,17.92 0,35.85 0,53.77 -0.335,0 -0.67,0 -1.005,0.01 0,-17.6 0,-35.2 -0.001,-52.79 0.007,-0.33 0.012,-0.66 0.016,-0.99 0.328,-0.44 0.658,-0.47 0.99,0"
       fill="#e1390b"
       id="path225" />
    <path
       d="m 463.347,1163.5 c 0,12.93 0,25.85 0,38.78 -0.255,0 -0.51,0 -0.765,0.01 0,-12.61 0,-25.21 -10e-4,-37.82 0.041,-0.33 0.075,-0.66 0.103,-0.99 0.221,0.01 0.442,0.02 0.663,0.02"
       fill="#df200f"
       id="path227" />
    <path
       d="m 463.347,1163.5 c -0.221,-0.01 -0.442,-0.02 -0.663,-0.02 -0.006,-11.33 -0.012,-22.66 -0.018,-34 1.46,0.06 1.357,1.16 1.351,2.12 -0.06,10.19 -0.141,20.38 -0.217,30.57 -0.151,0.44 -0.302,0.89 -0.453,1.33"
       fill="#ed2214"
       id="path229" />
    <path
       d="m 494.811,1127.56 c -0.722,6.97 -1.444,13.94 -2.166,20.91 -0.338,0.37 -0.677,0.36 -1.018,0.01 -0.017,-2.01 -0.034,-4.02 -0.052,-6.02 0.074,-5.19 -0.074,-10.42 3.236,-14.9"
       fill="#ed3816"
       id="path231" />
    <path
       d="m 482.632,1148.49 c -0.33,0 -0.66,0 -0.99,0 0,-10.26 0,-20.52 0,-30.78 0.333,0 0.667,0 1,-0.01 0,9.93 0,19.86 0,29.79 -0.003,0.33 -0.006,0.67 -0.01,1"
       fill="#ed3e0f"
       id="path233" />
    <path
       d="m 450.524,1121.49 c -0.002,0.33 -0.007,0.66 -0.007,0.98 0.004,7.05 0.004,7.05 7.076,7.22 -2.752,1.11 -5.478,1.68 -8.077,-0.39 -0.576,-2.58 -0.551,-5.15 -0.015,-7.73 0.341,-0.03 0.682,-0.05 1.023,-0.08"
       fill="#f0573d"
       id="path235" />
    <path
       d="m 468.949,1114.5 c 3.136,0 6.273,-0.02 9.409,0.02 0.411,0 0.82,0.25 1.196,0.9 -1.296,0 -2.593,0 -3.89,0 -2.294,0 -4.589,0 -6.884,0 0.056,-0.31 0.112,-0.61 0.169,-0.92"
       fill="#ed2314"
       id="path237" />
    <path
       d="m 449.501,1121.57 c 0.006,2.58 0.012,5.15 0.016,7.73 -1.448,-2.57 -1.353,-5.15 -0.016,-7.73"
       fill="#ed2214"
       id="path239" />
    <path
       d="m 459.615,1118.46 c -1.192,0.75 -2.494,1.09 -3.897,1.05 0.866,-1.96 2.051,-2.73 3.897,-1.05"
       fill="#ed2414"
       id="path241" />
    <path
       d="m 501.577,1120.29 c -1.249,1.22 -2.497,2.43 -3.745,3.64 0.116,-2.38 0.547,-4.43 3.745,-3.64"
       fill="#ed2712"
       id="path243" />
    <path
       d="m 509.627,1116.48 c -1.233,0.39 -2.466,0.78 -3.698,1.16 0.541,-2.59 1.856,-2.71 3.698,-1.16"
       fill="#ee2914"
       id="path245" />
    <path
       d="m 709.582,1096.65 c -1.583,-1.3 -0.545,-2.69 -0.18,-4.08 2.641,-10.1 5.126,-20.25 7.96,-30.3 0.861,-3.05 -0.042,-4.05 -2.822,-4.81 -11.446,-3.1 -23.155,-4.2 -34.927,-4.9 -0.322,-0.23 -0.42,-0.45 -0.297,-0.66 0.119,-0.2 0.236,-0.3 0.352,-0.3 15.195,-2.38 30.426,-2.26 45.702,-0.85 3.196,0.29 4.495,1.59 5.053,4.71 3.595,20.08 7.361,40.13 11.058,60.2 0.115,0.62 0.083,1.27 0.121,1.95 -1.886,0.08 -2.451,-1.84 -3.924,-2.15 -2.172,-0.92 -4.203,-2.09 -6.087,-3.51 -0.169,-0.15 -0.351,-0.28 -0.544,-0.4 -1.939,-1.83 -4.358,-2.99 -6.448,-4.61 -0.149,-0.14 -0.297,-0.28 -0.443,-0.42 -3.317,-1.96 -6.379,-4.32 -9.728,-6.24 -1.763,-1.01 -3.604,-1.93 -4.846,-3.63"
       fill="#fefefe"
       id="path247" />
    <path
       d="m 714.627,1099.58 c 3.39,2.02 7.306,3.32 9.528,6.95 -4.421,-0.46 -7.222,-3.86 -10.753,-5.93 0.148,-0.65 0.768,-0.74 1.225,-1.02"
       fill="#544d4a"
       id="path249" />
    <path
       d="m 620.832,1149.84 c -0.344,-0.43 -0.689,-0.87 -1.033,-1.3 0.577,-2.58 1.137,-5.16 2.644,-7.4 0.339,0.43 0.678,0.86 1.017,1.29 -0.731,2.53 -1.153,5.16 -2.628,7.41"
       fill="#4c4542"
       id="path251" />
    <path
       d="m 724.599,1106.94 c 3.143,0.15 5.28,1.7 6.447,4.61 -2.801,-0.62 -5.281,-1.7 -6.447,-4.61"
       fill="#5b5654"
       id="path253" />
    <path
       d="m 731.591,1111.95 c 2.924,-0.38 4.312,1.9 6.087,3.51 -0.338,0.33 -0.676,0.66 -1.014,0.98 -1.995,-1.15 -4.272,-1.99 -5.073,-4.49"
       fill="#5b5554"
       id="path255" />
    <path
       d="m 714.627,1099.58 c -0.409,0.34 -0.817,0.68 -1.225,1.02 -1.642,-1 -3.284,-2.01 -4.926,-3.02 0.369,-0.31 0.738,-0.62 1.106,-0.93 1.915,0.57 3.541,1.64 5.045,2.93"
       fill="#534b48"
       id="path257" />
    <path
       d="m 703.664,1238.62 c 0.447,0.35 0.895,0.7 1.343,1.05 -1.465,0.56 -2.931,1.12 -4.396,1.68 -0.474,-0.34 -1.171,-0.4 -1.376,-1.08 1.476,-0.55 2.953,-1.1 4.429,-1.65"
       fill="#4e4745"
       id="path259" />
    <path
       d="m 699.235,1240.27 c 0.458,0.36 0.917,0.72 1.376,1.08 -1.005,0.32 -2.011,0.64 -3.016,0.95 -0.418,-0.32 -0.837,-0.65 -1.255,-0.97 0.714,-1.04 1.837,-0.96 2.895,-1.06"
       fill="#453c3a"
       id="path261" />
    <path
       d="m 549.623,1231.53 c -0.386,0.34 -0.772,0.69 -1.159,1.04 -1.441,-0.87 -2.991,-1.62 -3.755,-3.27 -0.135,-0.49 0.063,-0.69 0.549,-0.66 2.031,0.09 3.018,1.76 4.365,2.89"
       fill="#4e4542"
       id="path263" />
    <path
       d="m 545.258,1228.64 c -0.305,0.11 -0.488,0.33 -0.549,0.66 -2.175,-0.61 -3.597,-2.18 -4.928,-3.87 0.276,-0.29 0.551,-0.57 0.827,-0.86 1.893,0.96 3.726,2 4.65,4.07"
       fill="#4b4340"
       id="path265" />
    <path
       d="m 591.865,1099.4 c 1.571,-0.98 3.143,-1.95 4.714,-2.93 0.348,0.3 0.697,0.59 1.046,0.89 -1.997,0.46 -3.441,2.48 -5.76,2.04"
       fill="#332621"
       id="path267" />
    <path
       d="m 679.668,1051.6 c 0.004,0.32 -0.014,0.64 -0.055,0.96 -1.161,0.28 -2.35,0.9 -3.47,-0.31 1.072,-1.03 2.322,-0.72 3.525,-0.65"
       fill="#d9dada"
       id="path269" />
    <path
       d="m 491.627,1148.48 c 0.34,0 0.679,-0.01 1.018,-0.01 0.035,8.22 0.07,16.43 0.106,24.64 1.042,4.75 -0.321,9.62 0.769,14.36 0.046,0.34 0.091,0.67 0.136,1.01 -1.382,-0.16 -2.058,-0.95 -2.001,-2.32 0.492,-11.86 -1.732,-23.65 -0.965,-35.51 0.048,-0.74 0.613,-1.45 0.937,-2.17"
       fill="#e13c09"
       id="path271" />
    <path
       d="m 464.71,1203.37 c 4.93,0.02 9.861,0.03 14.791,0.05 -4.936,1.74 -9.867,1.77 -14.791,-0.05"
       fill="#df200f"
       id="path273" />
    <path
       d="m 518.43,1190.44 c -0.258,0.65 -0.517,1.29 -0.774,1.94 -4.037,2.3 -6.095,0.29 -6.634,-3.5 -0.488,-3.42 -0.274,-6.95 -0.369,-10.43 0.832,-12.64 0.8,-25.27 0.012,-37.91 -0.161,-4.14 -0.704,-8.34 1.956,-12.01 5.21,0.58 5.996,1.29 5.988,6.4 -0.032,18.5 0.235,37.01 -0.179,55.51"
       fill="#e24907"
       id="path275" />
    <path
       d="m 518.43,1190.44 c -1.38,-1.59 -0.769,-3.5 -0.774,-5.27 -0.045,-15.29 0.001,-30.59 -0.034,-45.88 -0.01,-4.32 1.375,-9.37 -5,-10.77 3.101,-1.73 3.101,-1.73 6.055,1.89 1.243,4.97 -0.322,10.1 0.859,15.07 0.507,7.67 0.447,15.34 0.032,23.02 -1.237,6.76 0.277,13.63 -0.789,20.4 -0.116,0.51 -0.233,1.02 -0.349,1.54"
       fill="#e13c0b"
       id="path277" />
    <path
       d="m 510.665,1140.54 c 1.1,0.81 0.974,2 0.975,3.15 0.004,10.54 0.005,21.08 -10e-4,31.62 0,1.14 0.127,2.34 -0.986,3.14 -0.693,-12.64 -0.697,-25.27 0.012,-37.91"
       fill="#df200f"
       id="path279" />
    <path
       d="m 518.779,1188.9 c 0.207,-6.8 -1.177,-13.67 0.789,-20.4 0.028,6.32 0.055,12.65 0.082,18.98 -0.29,0.47 -0.581,0.94 -0.871,1.42"
       fill="#e24907"
       id="path281" />
    <path
       d="m 519.536,1145.48 c -1.957,-4.93 -0.427,-10.05 -0.859,-15.07 1.632,4.95 0.984,10.02 0.859,15.07"
       fill="#e24907"
       id="path283" />
    <path
       d="m 493.52,1187.47 c -1.847,-4.7 -0.562,-9.56 -0.769,-14.35 0.95,4.74 0.659,9.56 0.769,14.35"
       fill="#e24905"
       id="path285" />
    <path
       d="m 511.684,429.451 c 0.372,1.379 0.744,2.758 1.116,4.137 -0.947,2.936 -2.642,4.984 -6.018,4.906 -2.611,-0.061 -4.28,-1.47 -5.289,-3.82 -0.985,-2.293 -0.385,-4.357 1.265,-5.912 3.11,-2.931 6.194,-2.708 8.926,0.689"
       fill="#fbfbfb"
       id="path287" />
  </g>
</svg>
