<svg width="427.287" height="529.134" xmlns="http://www.w3.org/2000/svg"><g transform="translate(-586.393 -398.226) scale(1.09913)"><path d="M709.49 634.36c-52.179 58.119-79.276 133.28-157.55 150.42 36.484-51.177 59.831-84.058 84.507-138.7-19.364 50.569-30.95 101.51-86.01 107.62 27.343-41.796 52.721-67.763 68.551-114.73l92.256-8.282z" fill="#174d7c"/><path d="M816.378 605.277a117.785 179.458 0 01-117.247 179.456 117.785 179.458 0 01-118.317-177.82 117.785 179.458 0 01116.168-181.077A117.785 179.458 0 01816.36 602.004" fill="#fff" fill-opacity=".66"/><path d="M695.08 421.01v.031c-55.443 1.637-92.673 46.88-119.12 151.38-27.499 108.63-49.32 203.73 119.12 214.84.78.032.885.042 1.594 0 168.45-11.119 146.62-106.21 119.12-214.84-26.452-104.5-63.682-149.74-119.12-151.38-.54-.024-1.09-.025-1.594-.031z" fill="#45aaff"/><path d="M668.02 770.24l-6.192-.853-5.21 51.624c-76.616-44.878-80.467 1.202-78.946 14.969 34.262-2.441 61.632 3.388 90.233 7.74zM748.9 770.24l6.192-.853 5.21 51.624c62.742-33.637 74.397-15.027 78.946 14.969-34.262-2.441-61.632 3.388-90.233 7.74zM740.86 457.11c-31.392 9.258-35.137 71.3 29.01 66.456-5.49-3.342-28.652-15.174-29.818-27.402 26.045 13.849 58.615 19.246 92.457 18.886 4.498-20.205-39.301-77.593-91.649-57.94z" fill="#ffa200"/><path d="M654.4 470.21c28.461-22.591 50.374-13.254 49.06 7.361-1.57 11.457-22.182 18.461-49.06-7.361z" fill="#fff"/><path d="M640.82 362.31c11.593 16.526 28.925 26.39 30.062 48.531-17.292-20.073-36.839-32.606-59.312-35.406 10.147 15.736 21.541 18.057 30.156 43.75-52.16-6.747-76.056 37.347-108.22 66.594 35.976-15.821 73.532-32.069 93.656-43.719-46.359 68.687-73.286 161.38-70.031 239.5 28.517-4.227 56.809-7.746 72.875-36.875.51-12.71 2.785-15.286 9.972-23.985-1.046-9.283-7.557-19.349-17.979-4.94 1.58-11.38 5.274-8.834 8.755-16.08-2.463-5.229-5.972-24.038-27.435 6.005 5.19-24.082 16.002-45.032 26.312-62.188-11.358.44-30.66 15.104-41.812 48.812-3.897-95.022 55.05-187.32 150.81-159.53-4.417-21.873-28.074-44.772-58.375-61.47 12.35 18.243 15.054 26.397 18.719 46.813-7.6-35.945-35.075-42.698-58.156-55.812zM812.02 558.05c12.478 33.156 17.031 58.488 39.572 102.06 37.331 3.166 49.16 26.166 70.664 41.641-23.829-9.52-48.078-20.088-68.14-20.19 22.644 12.177 29.492 33.381 39.118 52.998-16.514-24.742-33.311-30.056-47.951-36.594 16.544 17.859 23.025 36.976 23.975 56.784-14.833-22.974-31.621-41.939-46.689-52.998-20.378-39.454-3.01-95.491-10.549-143.7z" fill="#174d7c"/><ellipse transform="translate(297.59 309.11) scale(.69562)" cx="556.047" cy="234.299" rx="18.843" ry="14.389" fill="#174d7c"/><path d="M697.968 473.487a4.834 4.742 0 01-4.812 4.743 4.834 4.742 0 01-4.856-4.7 4.834 4.742 0 014.768-4.784 4.834 4.742 0 014.899 4.655" fill="#fff"/></g></svg>