<svg version="1.1" xmlns="http://www.w3.org/2000/svg" xmlns:xlink="http://www.w3.org/1999/xlink" width="113.00001" height="140" viewBox="0,0,113.00001,140"><g transform="translate(-199.29941,-113.75369)"><g data-paper-data="{&quot;isPaintingLayer&quot;:true}" fill-rule="nonzero" stroke="none" stroke-width="1" stroke-linecap="butt" stroke-linejoin="miter" stroke-miterlimit="10" stroke-dasharray="" stroke-dashoffset="0" style="mix-blend-mode: normal"><path d="M250.45361,192.86911c-15.16714,16.9017 -23.04357,38.75941 -45.79589,43.74392c10.605,-14.88288 17.39139,-24.44506 24.56409,-40.33561c-5.62864,14.70607 -8.9964,29.52031 -25.00098,31.29717c7.94793,-12.15477 15.32469,-19.70629 19.92608,-33.36485l26.81654,-2.40862z" fill="#174d7c"/><path d="M281.52344,184.41147c0,28.72998 -15.23348,52.05688 -34.08097,52.1879c-18.84749,0.13102 -34.21991,-22.98313 -34.39181,-51.71191c-0.1719,-28.72878 14.92137,-52.2665 33.76729,-52.65954c18.84592,-0.39304 34.356,22.50642 34.69979,51.23162" fill-opacity="0.65957" fill="#ffffff"/><path d="M246.72826,130.83347c16.11445,0.47693 26.93629,13.63326 34.62524,44.0231c7.99357,31.59089 14.33901,59.24449 -34.62524,62.47802c-0.20616,0.01213 -0.23654,0.00936 -0.46328,0c-48.96134,-3.23092 -42.61852,-30.88713 -34.62524,-62.47802c7.68749,-30.38984 18.50933,-43.5471 34.62524,-44.0231v-0.00907c0.1465,0.0016 0.30643,0.00209 0.46328,0.00907z" fill="#45aaff"/><path d="M238.36591,253.75368c-8.3136,-1.26585 -16.26938,-2.96108 -26.2285,-2.2512c-0.44212,-4.00352 0.67727,-17.40422 22.94765,-4.35316l1.51433,-15.01287l1.79992,0.24819z" fill="#ffa200"/><path d="M261.90912,232.38463l1.79992,-0.24819l1.51433,15.01287c18.23755,-9.78204 21.62537,-4.37003 22.94765,4.35316c-9.95912,-0.70987 -17.9149,0.98536 -26.2285,2.2512z" fill="#ffa200"/><path d="M286.21219,158.17235c-9.83703,0.10469 -19.30433,-1.46482 -26.87496,-5.49227c0.33893,3.55605 7.07134,6.99682 8.66735,7.96883c-18.64595,1.40869 -17.55737,-16.63392 -8.43249,-19.32619c15.21627,-5.71533 27.94758,10.97379 26.6401,16.84964z" fill="#ffa200"/><path d="M234.44031,145.13235c8.27291,-6.56973 14.64248,-3.85442 14.26053,2.1407c-0.45613,3.33183 -6.44776,5.36868 -14.26053,-2.1407z" fill="#ffffff"/><path d="M230.49192,113.75369c6.70908,3.81371 14.69561,5.77756 16.90451,16.23079c-1.06532,-5.93722 -1.85102,-8.3085 -5.44115,-13.61349c8.80775,4.85569 15.68426,11.51499 16.96817,17.87592c-27.83506,-8.08166 -44.9695,18.75969 -43.83674,46.39322c3.2419,-9.80269 8.85222,-14.06708 12.15371,-14.19511c-2.99686,4.98917 -6.1397,11.08168 -7.64825,18.08501c6.23888,-8.73669 7.25892,-3.26681 7.97468,-1.74615c-1.01184,2.10714 -2.08533,1.36653 -2.5446,4.67596c3.02942,-4.19013 4.922,-1.26294 5.22605,1.43679c-2.0892,2.52977 -2.75069,3.2789 -2.89873,6.97512c-4.66999,8.47115 -12.89377,9.49431 -21.18296,10.72369c-0.94615,-22.71822 6.88086,-49.67445 20.35628,-69.64944c-5.84955,3.38796 -16.76615,8.11307 -27.22348,12.714c9.34928,-8.50537 16.29525,-21.32855 31.45688,-19.36633c-2.50417,-7.47183 -5.81612,-8.1468 -8.7656,-12.72302c6.53235,0.81427 12.21417,4.45902 17.24053,10.29649c-0.3305,-6.43887 -5.36848,-9.30743 -8.73828,-14.11339z" fill="#174d7c"/><path d="M280.25654,170.67726c3.62705,9.64216 4.95049,17.009 11.5026,29.68026c10.8512,0.92059 14.2896,7.60938 20.54028,12.1097c-6.9265,-2.76847 -13.97508,-5.84183 -19.80661,-5.87149c6.58205,3.54122 8.57259,9.70759 11.37063,15.41245c-4.80021,-7.19527 -9.68268,-8.74064 -13.93817,-10.64197c4.80893,5.19361 6.6928,10.75306 6.96894,16.51346c-4.31159,-6.68111 -9.19144,-12.19636 -13.57134,-15.41245c-5.92338,-11.47369 -0.8747,-27.76992 -3.06633,-41.78967z" fill="#174d7c"/><path d="M239.34673,145.68007c0,-1.60764 1.70584,-2.91089 3.81009,-2.91089c2.10426,0 3.81009,1.30325 3.81009,2.91089c0,1.60764 -1.70584,2.91089 -3.81009,2.91089c-2.10426,0 -3.81009,-1.30325 -3.81009,-2.91089z" fill="#174d7c"/><path d="M247.10436,146.08547c0,0.7592 -0.62519,1.37562 -1.39869,1.37909c-0.77351,0.00346 -1.40439,-0.60734 -1.41145,-1.36651c-0.00705,-0.75917 0.61238,-1.38116 1.38582,-1.39155c0.77344,-0.01039 1.40998,0.59474 1.42409,1.35382" fill="#ffffff"/></g></g></svg>