<svg width="113.761" height="140" enable-background="new 0 0 252 313" xmlns="http://www.w3.org/2000/svg"><filter id="prefix__b" x="-.48" y="-.48" width="1.96" height="1.96"><feGaussianBlur stdDeviation="4"/></filter><g transform="matrix(.46294 0 0 .46294 -2.597 -2.45)"><path d="M131.96 56.576h11.76c3.662 0 8.45-1.057 12.321 1.831 3.029 2.253 3.521 8.097 3.521 8.097 2.043-4.153 3.733-6.196 8.028-.21 7.464 10.282 15.705 20.563 18.168 28.027 2.396 7.112.212 12.323-6.197 14.013-8.237 2.042-37.953 4.083-49.079 4.083-11.128 0-40.775-2.041-49.013-4.083-6.479-1.69-8.663-6.901-6.197-14.013 2.464-7.463 10.704-17.745 18.097-28.027 4.297-5.985 8.803-3.873 10.563.634 0 0 .776-4.576 4.438-7.394 3.448-2.677 5.21-2.958 8.941-2.958h14.649z"/><path d="M116.045 57.209c1.057-11.55-7.043-13.732-15.844-16.689-14.225-4.789-10.281-11.76-11.338-15.704-1.268-4.859-5.775-3.873-4.154 2.675 1.69 6.619 5.562 9.93 12.816 13.662 6.969 3.592 16.901 3.029 16.901 15.422 0 1.691 1.619.634 1.619.634zM111.749 58.054c-2.465-3.732-8.662-5.985-10.141-4.999-1.831 1.336 1.69 3.45 1.69 4.788 0 3.45 2.463 6.125 2.463 6.125zM76.891 90.587l5.353-8.661-1.619-1.62c-1.268 4.084-9.508 6.972-7.465-1.689 2.112-8.662 10.351-25.139 7.887-36.688-2.466-11.55-5-15.563-5.352-18.521-.423-3.309-4.578-8.238-5.001-6.197 0-2.041-1.196-11.548-4.507-10.703-4.366.986 1.198 9.084 1.621 11.125-.776 4.507-1.621 3.733 1.69 7.395 3.309 3.732 10.491 14.083 6.97 21.9-8.237 18.098-7.393 31.689-6.97 35.421.422 3.732 7.393 8.238 7.393 8.238zM144.916 57.209c-.986-11.55 7.041-13.732 15.914-16.689 14.225-4.789 10.281-11.76 11.338-15.704 1.197-4.859 5.775-3.873 4.085 2.675-1.621 6.619-5.563 9.93-12.747 13.662-7.112 3.592-16.899 3.029-16.899 15.422-.001 1.691-1.691.634-1.691.634zM150.269 56.364c2.465-3.731 8.661-5.985 10.14-4.929 1.762 1.267-1.691 3.45-1.691 4.718 0 3.521-2.463 6.197-2.463 6.197zM184.068 90.587l-5.352-8.661 1.689-1.62c1.197 4.084 9.436 6.972 7.396-1.689-2.043-8.662-10.281-25.139-7.817-36.688 2.467-11.55 4.93-15.563 5.352-18.521.423-3.309 4.506-8.238 4.929-6.197 0-2.041 1.268-11.548 4.578-10.703 4.226.986-1.267 9.084-1.689 11.125.845 4.507 1.689 3.733-1.621 7.395-3.309 3.732-10.561 14.083-7.041 21.9 8.239 18.098 7.465 31.689 7.041 35.421-.423 3.732-7.465 8.238-7.465 8.238zM119.143 56.576c0-2.465 2.815-7.395 10.703-7.395 7.887 0 11.197 3.663 11.972 7.395z"/><path fill="#a6a6a6" d="M107.807 59.884c2.463-2.041 4.998-3.097 5.561-3.097 2.113 0 5.354 1.267 6.833 1.83 1.407.634 2.464.844.422 3.099-2.112 2.253-16.69 18.379-17.958 19.576-1.268 1.269-5.139 0-9.505 2.113-4.296 2.042-5.987 7.395-8.664 7.818h.845c-3.52.985-7.604 0-7.392-2.254 3.662-6.619 8.028-12.183 15.42-22.465 1.903-2.675 7.042-7.464 10.563.423.352-2.746 3.875-7.043 3.875-7.043z"/><path d="M114.144 56.998c.772 1.69 2.958 8.028 2.322 9.083l-3.871 3.874c-3.239-.14-8.873-1.972-8.663-3.028.562-4.576 5.987-10.351 10.212-9.929z"/><radialGradient id="prefix__a" cx="127.978" cy="208.549" r="111.519" fx="18.431" fy="229.428" gradientTransform="matrix(-.4797 .8774 -.8776 -.4798 372.399 196.318)" gradientUnits="userSpaceOnUse"><stop offset=".154" stop-color="#ffad00"/><stop offset=".505" stop-color="#a67803"/><stop offset=".845" stop-color="#554806"/><stop offset="1" stop-color="#353507"/></radialGradient><path fill="url(#prefix__a)" d="M130.058 306.632c52.814-6.619 105.558-87.039 66.827-171.118-6.266-13.52-11.549-25.562-26.406-22.252-14.86 3.311-30.492 2.465-45.349 2.465h3.308c-14.857 0-30.49.845-45.35-2.465-14.857-3.31-19.999 8.873-26.406 22.252-40.42 84.079 20.631 172.316 66.403 171.118 4.93-2.887 3.734-10.35 3.734-10.35s-2.888 7.887 3.239 10.35z"/><path d="M48.864 223.327c-2.041 3.31-18.942 32.18-12.394 54.432 1.339 4.367 1.69 5.776-2.041 6.198-3.732.423-16.9 5.353-15.282 8.664-6.125 2.886-15.632 10.702-4.506 14.787-2.886-2.889 1.268-9.437 4.506-11.126 2.113 4.998 5.775 1.689 8.241-2.468 4.507-7.533 10.351-10.702 14.857-10.279 4.578.422 4.437.845 2.888-5.776-6.197-25.982 4.999-46.193 4.999-46.193zM203.927 223.327c2.043 3.31 18.943 32.18 12.325 54.432-1.341 4.367-1.62 5.776 2.04 6.198 3.732.423 16.973 5.353 15.282 8.664 6.195 2.886 15.702 10.702 4.507 14.787 2.887-2.889-1.198-9.437-4.507-11.126-2.043 4.998-5.774 1.689-8.24-2.468-4.508-7.533-10.281-10.702-14.858-10.279-4.506.422-4.437.845-2.889-5.776 6.197-25.982-4.928-46.193-4.928-46.193zM175.831 113.262c13.661-.423 25.562 15.704 29.294 26.408 0 0 13.588 6.971 20.209 10.281 5.211 2.605 10.281 3.731 12.747 1.267 2.536-2.465 6.619 4.085 5.773 9.859 11.196-8.663-2.887-14.437-12.323-17.323-10.773-3.31-19.998-5.493-28.027-20.563-6.619-12.394-22.674-14.014-28.872-14.859l-.421.422c-17.325 5.774-82.883 3.24-95.277-.845-6.127.845-22.252 2.465-28.802 14.859-8.097 15.07-17.322 17.323-28.096 20.563-9.436 2.886-23.451 8.661-12.324 17.322-.846-5.773 3.311-12.323 5.774-9.859 2.466 2.464 7.536 1.338 12.748-1.267 6.618-3.311 20.208-10.281 20.208-10.281 3.733-10.704 15.705-26.831 29.294-26.409 6.551 1.69 38.309 3.311 48.238 2.466 21.83.425 46.194-2.041 49.857-2.041z"/><path fill="#a6a6a6" d="M156.678 58.617c-.496-.352-3.03-1.83-6.62-1.83-2.114 0-5.352 1.267-6.761 1.83-1.479.634-2.467.844-.423 3.099 2.042 2.253 16.688 18.379 17.956 19.576 1.198 1.269 5.143 0 9.437 2.113 4.365 2.042 5.986 7.395 8.662 7.818h-.775c3.45.985 7.605 0 7.396-2.254-3.733-6.619-8.028-12.183-15.492-22.465-1.832-2.675-6.973-7.464-10.494.423-.634-3.872-2.886-8.31-2.886-8.31z"/><path d="M149.353 56.998c-.846 1.69-2.958 8.028-2.394 9.083l3.944 3.874c3.167-.14 8.73-1.902 8.659-3.028-.703-9.014-5.139-10.422-10.209-9.929z"/><path d="M151.254 67.842c1.407 0 2.534-1.056 2.534-2.324 0-1.337-1.127-2.323-2.534-2.323-1.549 0-2.677.985-2.677 2.323 0 1.268 1.128 2.324 2.677 2.324z"/><path d="M151.254 67.49c1.127 0 2.185-.846 2.185-1.972s-1.058-1.972-2.185-1.972c-1.27 0-2.323.846-2.323 1.972s1.053 1.972 2.323 1.972z"/><path d="M151.254 67.208c.985 0 1.83-.705 1.83-1.69 0-.915-.845-1.689-1.83-1.689-1.128 0-1.973.775-1.973 1.689 0 .985.845 1.69 1.973 1.69z"/><path d="M151.254 66.927c.845 0 1.549-.634 1.549-1.409 0-.774-.704-1.409-1.549-1.409-.985 0-1.69.635-1.69 1.409-.001.775.705 1.409 1.69 1.409z"/><path d="M151.254 66.716c.703 0 1.339-.494 1.339-1.198 0-.705-.636-1.196-1.339-1.196-.774 0-1.408.492-1.408 1.196s.633 1.198 1.408 1.198z"/><path fill="none" stroke="#000" stroke-width=".071" d="M189.842 7.352c2.889-1.759 7.256-1.267 9.719 2.676M71.752 6.296c-2.958-1.76-7.254-1.267-9.719 2.676"/><path d="M7.599 158.612c2.113 2.042 5.774 4.929 8.663 2.042M247.587 156.993c-1.619 2.041-2.887 6.125-7.817 4.507M234.419 307.408c2.886.844 8.237-.423 8.66-2.467M9.29 303.745c2.465 2.464 5.351 4.93 10.28 2.887"/><path fill="#b2b2b2" d="M107.17 68.97c-1.898-.846-5.42-3.311-8.027-.776-2.181 2.184-17.604 22.042-18.518 23.028-.845.773 3.099.422 3.52.069 1.338-1.337 14.294-19.013 16.689-20.703 2.888-2.041 6.549-1.478 6.336-1.618z"/><path fill="#bfbfbf" d="M105.552 68.335c-1.761-1.268-5.069-3.662-7.604-1.056-2.254 2.183-18.45 22.041-18.872 23.308-.213.635 2.958 1.198 3.098 1.057 1.196-1.62 14.999-20.352 17.393-22.042 2.887-2.041 6.125-1.196 5.985-1.267z"/><path fill="#ccc" d="M104.003 67.49c-1.057-2.042-4.929-4.084-7.535-1.55-2.183 2.184-17.606 22.042-18.52 23.028-.845.774 1.618 2.464 2.041 2.041 1.339-1.408 15.773-21.054 18.168-22.674 2.889-2.042 5.987-.633 5.846-.845z"/><path fill="#d9d9d9" d="M77.948 88.968c3.662-6.619 8.028-12.183 15.42-22.465 1.903-2.675 7.042-7.464 10.563.423-1.899-1.479-4.366-1.901-7.674.563-4.015 3.03-16.268 23.52-18.309 21.479z"/><path fill="#b2b2b2" d="M156.254 68.97c1.972-.846 5.493-3.311 8.027-.776 2.323 2.325 17.747 22.183 18.591 23.028.773.773-3.099.422-3.52.069-1.409-1.337-14.366-19.013-16.692-20.703-2.885-2.041-6.619-1.478-6.406-1.618z"/><path fill="#bfbfbf" d="M157.944 68.476c1.759-1.196 5.07-3.59 7.676-.985 2.182 2.112 18.448 22.042 18.871 23.238.211.634-2.958 1.268-3.099 1.057-1.268-1.549-15.069-20.281-17.465-21.97-2.884-2.045-6.196-1.2-5.983-1.34z"/><path fill="#ccc" d="M159.493 67.49c.986-2.042 4.929-4.084 7.464-1.55 2.182 2.184 17.674 22.042 18.592 23.028.772.774-1.62 2.464-2.043 2.041-1.409-1.408-15.844-21.054-18.17-22.674-2.886-2.042-5.983-.633-5.843-.845z"/><path fill="#d9d9d9" d="M185.549 88.968c-3.733-6.619-8.028-12.183-15.492-22.465-1.832-2.675-5.987-7.464-10.494.423 1.831-1.479 4.365-1.901 7.605.563 4.015 3.03 16.338 23.52 18.381 21.479z"/><path fill="#111" d="M143.297 112.135c7.183 0 13.097-5.634 13.097-12.535 0-6.971-5.914-12.534-13.097-12.534-7.254 0-13.17 5.563-13.17 12.534 0 6.901 5.916 12.535 13.17 12.535z"/><path fill="#1a1a1a" d="M143.297 110.868c6.479 0 11.76-4.999 11.76-11.267 0-6.196-5.281-11.268-11.76-11.268-6.55 0-11.9 5.072-11.9 11.268-.001 6.268 5.35 11.267 11.9 11.267z"/><path fill="#333" d="M143.297 109.741c5.774 0 10.632-4.506 10.632-10.141 0-5.633-4.857-10.14-10.632-10.14-5.914 0-10.705 4.507-10.705 10.14 0 5.635 4.791 10.141 10.705 10.141z"/><path fill="#4d4d4d" d="M143.297 108.755c5.21 0 9.506-4.083 9.506-9.155 0-5.069-4.296-9.153-9.506-9.153-5.353 0-9.577 4.084-9.577 9.153 0 5.072 4.224 9.155 9.577 9.155z"/><path fill="#666" d="M143.297 107.77c4.718 0 8.592-3.591 8.592-8.169 0-4.507-3.874-8.238-8.592-8.238-4.789 0-8.591 3.731-8.591 8.238 0 4.578 3.802 8.169 8.591 8.169z"/><path fill="#7f7f7f" d="M143.297 106.996c4.294 0 7.745-3.31 7.745-7.395 0-4.084-3.451-7.393-7.745-7.393-4.296 0-7.817 3.309-7.817 7.393-.001 4.085 3.521 7.395 7.817 7.395z"/><path fill="#999" d="M143.297 106.291c3.802 0 6.972-3.028 6.972-6.69 0-3.731-3.17-6.689-6.972-6.689-3.875 0-7.042 2.958-7.042 6.689 0 3.662 3.167 6.69 7.042 6.69z"/><path fill="#b2b2b2" d="M143.297 105.587c3.449 0 6.197-2.676 6.197-5.987 0-3.309-2.748-5.984-6.197-5.984-3.521 0-6.338 2.676-6.338 5.984 0 3.311 2.817 5.987 6.338 5.987z"/><path fill="#ccc" d="M143.297 104.953c3.098 0 5.634-2.323 5.634-5.352 0-2.958-2.536-5.421-5.634-5.421-3.17 0-5.705 2.464-5.705 5.421 0 3.029 2.535 5.352 5.705 5.352z"/><path fill="#e5e5e5" d="M143.297 104.46c2.745 0 5.071-2.184 5.071-4.86s-2.326-4.858-5.071-4.858c-2.816 0-5.143 2.183-5.143 4.858 0 2.677 2.326 4.86 5.143 4.86z"/><path fill="#f2f2f2" d="M143.297 103.967c2.535 0 4.507-1.9 4.507-4.366 0-2.395-1.972-4.366-4.507-4.366-2.534 0-4.578 1.971-4.578 4.366 0 2.465 2.044 4.366 4.578 4.366z"/><path d="M96.258 225.087c10.28 0 18.658-8.38 18.658-18.659 0-10.282-8.378-18.732-18.658-18.732-10.282 0-18.663 8.45-18.663 18.732 0 10.279 8.381 18.659 18.663 18.659zM60.836 202.063c6.409 0 11.62-9.155 11.62-20.354 0-11.266-5.211-20.422-11.62-20.422-6.479 0-11.69 9.156-11.69 20.422 0 11.198 5.21 20.354 11.69 20.354zM93.44 277.973c6.479-4.225 7.394-14.156 2.181-22.253-5.279-8.168-14.788-11.337-21.266-7.112-6.479 4.225-7.465 14.225-2.182 22.322 5.212 8.096 14.788 11.267 21.267 7.043zM157.31 225.087c-10.351 0-18.661-8.38-18.661-18.659 0-10.282 8.311-18.732 18.661-18.732 10.281 0 18.662 8.45 18.662 18.732 0 10.279-8.381 18.659-18.662 18.659zM192.73 202.063c-6.409 0-11.688-9.155-11.688-20.354 0-11.266 5.279-20.422 11.688-20.422 6.479 0 11.69 9.156 11.69 20.422.001 11.198-5.211 20.354-11.69 20.354zM160.125 277.973c-6.478-4.225-7.464-14.156-2.181-22.253 5.21-8.168 14.789-11.337 21.267-7.112 6.407 4.225 7.393 14.225 2.182 22.322-5.281 8.096-14.789 11.267-21.268 7.043zM128.861 162.768c5.35-.423 9.857-2.958 13.873-7.396 7.955-8.801 7.745-22.111-.636-29.717-8.379-7.533-21.617-6.548-29.646 2.326-7.959 8.802-7.745 22.111.633 29.716 4.156 3.731 8.663 5.493 14.015 5.071.282-.213.704-1.268.845-1.69-.14.844.283 1.69.916 1.69z"/><path fill="none" stroke="#000" stroke-width="1.339" d="M128.015 128.121s-.845 156.259-1.617 166.116"/><path d="M130.482 125.233c1.616-2.958 2.884-4.929 3.942-7.253 1.055-2.253 1.478-2.465-1.833-2.465l-4.154.212-4.152-.212c-3.382 0-2.89.212-1.832 2.465 1.056 2.324 2.253 4.295 3.944 7.253 1.548 2.676 3.167 2.043 4.085 0z"/><path fill="#252525" d="M102.382 115.586s19.999.563 21.903-.071c1.406-.422-6.903 9.576-8.1 11.408-1.551 2.394-3.381 4.156-6.48-.493-3.167-4.647-8.801-10.844-7.323-10.844z"/><path fill="#404040" d="M104.003 116.432s17.042.422 18.661-.071c1.267-.422-5.845 8.169-6.903 9.718-1.335 2.042-2.884 3.451-5.491-.424-2.676-4.012-7.464-9.223-6.267-9.223z"/><path fill="#595959" d="M105.413 117.135s14.506.352 15.843-.14c1.055-.282-4.998 6.971-5.845 8.309-1.128 1.69-2.466 3.027-4.72-.352-2.253-3.38-6.336-7.817-5.278-7.817z"/><path fill="#737373" d="M106.606 117.699s12.326.351 13.452-.071c.986-.21-4.225 5.916-5.001 7.042-.914 1.48-2.041 2.535-3.943-.351-1.9-2.817-5.352-6.62-4.508-6.62z"/><path fill="#8c8c8c" d="M107.666 118.192s10.421.282 11.477 0c.776-.211-3.662 5-4.227 5.915-.844 1.268-1.83 2.184-3.448-.21-1.621-2.466-4.577-5.705-3.802-5.705z"/><path fill="#a6a6a6" d="M108.511 118.614s8.871.282 9.786 0c.636-.21-3.098 4.225-3.591 5.07-.775 1.057-1.548 1.831-2.888-.21-1.408-2.114-3.944-4.86-3.307-4.86z"/><path fill="#252525" d="M131.326 115.516s19.999.494 21.97-.141c1.408-.492-6.901 9.577-8.168 11.479-1.549 2.324-3.382 4.084-6.479-.563-3.097-4.648-8.803-10.775-7.323-10.775z"/><path fill="#404040" d="M133.017 116.291s17.041.422 18.658-.071c1.269-.352-5.843 8.099-6.9 9.717-1.336 2.044-2.887 3.521-5.492-.491-2.677-3.944-7.466-9.155-6.266-9.155z"/><path fill="#595959" d="M134.425 116.995s14.506.422 15.844-.07c1.057-.282-5 6.9-5.845 8.239-1.127 1.69-2.465 3.028-4.719-.353-2.254-3.38-6.339-7.816-5.28-7.816z"/><path fill="#737373" d="M135.62 117.628s12.323.282 13.451-.07c.913-.353-4.226 5.845-5.001 6.972-.915 1.479-2.041 2.535-3.943-.282-1.899-2.888-5.353-6.62-4.507-6.62z"/><path fill="#8c8c8c" d="M136.677 118.122s10.422.21 11.479-.072c.775-.281-3.662 4.93-4.226 5.916-.845 1.268-1.831 2.184-3.449-.211-1.621-2.465-4.579-5.633-3.804-5.633z"/><path fill="#a6a6a6" d="M137.592 118.544s8.803.21 9.719-.07c.633-.211-3.099 4.225-3.591 5.07-.775 1.058-1.549 1.831-2.89-.211-1.408-2.112-3.942-4.789-3.238-4.789z"/><path fill="none" stroke="#000" stroke-width=".071" d="M11.332 158.612c2.041 2.042 5.774 4.929 8.661 2.042M251.319 156.993c-1.69 2.041-2.889 6.125-7.818 4.507M238.081 307.408c2.887.844 8.309-.423 8.661-2.467M13.022 303.745c2.463 2.464 5.352 4.93 10.281 2.887"/><path fill="#252525" d="M130.482 306.632c36.686 3.24 109.71-77.108 66.402-171.118-6.266-13.52-11.549-25.562-26.406-22.252 15.702 1.267 41.548 47.815 35.491 95.629-5.774 45.35-33.802 89.854-75.067 89.854-8.238 0-.42 7.887-.42 7.887z"/><path fill="#252525" d="M123.085 306.632c-36.686 3.24-109.712-77.108-66.403-171.118 6.198-13.52 11.549-25.562 26.406-22.252-15.703 1.267-41.547 47.815-35.491 95.629 5.774 45.35 33.873 89.854 75.067 89.854 8.238 0 .421 7.887.421 7.887z"/><path fill="#fff" d="M78.581 114.107c-.492.776-13.239-1.901-24.788 31.337-2.323 6.479-1.196 10 2.466-.845 5.774-17.323 21.97-29.998 22.322-30.492z"/></g><g filter="url(#prefix__b)" transform="matrix(.46294 0 0 .46294 -2.597 -2.45)"><circle fill="#f8ffb8" cx="169" cy="141" r="10"/></g></svg>