<svg xmlns="http://www.w3.org/2000/svg" width="131.956" height="139.613" viewBox="0 0 168.904 178.704" xmlns:v="https://vecta.io/nano"><path d="M168.904 44.103v12.231c0 19.86-15.856 36.076-35.578 36.673a37 37 0 0 1 4.243 17.231c0 20.518-16.693 37.211-37.211 37.211H89.203v23.008h10.538c2.271 0 4.123 1.853 4.123 4.123s-1.853 4.123-4.123 4.123H85.079c-.956 0-1.813-.319-2.51-.857a4.11 4.11 0 0 1-2.51.857H65.398a4.12 4.12 0 0 1-4.123-4.123V147.43h-5.239C25.139 147.43 0 122.29 0 91.394V77.111c0-2.271 1.853-4.123 4.123-4.123h62.171L52.749 59.442C46.175 52.868 42.55 44.123 42.55 34.821s3.625-18.048 10.199-24.621S68.067 0 77.37 0s18.048 3.625 24.621 10.199a34.77 34.77 0 0 1 9.841 19.641h42.848c7.829.02 14.223 6.414 14.223 14.263z" fill="#633"/><path d="M160.677 54.143v2.171c0 15.697-12.769 28.466-28.466 28.466-7.57 0-14.701-2.948-20.08-8.287l-.04-.04-30.996-30.976c-1.873-1.873-1.215-4.084-.976-4.701.299-.757 1.235-2.53 3.606-2.669h70.936a5.98 5.98 0 0 1 6.016 6.016v1.813h-43.546c-2.271 0-4.123 1.853-4.123 4.123s1.853 4.123 4.123 4.123z" fill="#fc6"/><path d="M122.689 91.772a28.85 28.85 0 0 1 6.653 18.466c0 15.976-13.008 28.984-28.984 28.984H56.036c-26.354 0-47.809-21.434-47.809-47.809V81.255h67.988c1.673 0 3.167-.996 3.805-2.53s.279-3.307-.896-4.482L58.565 53.645a26.41 26.41 0 0 1-7.789-18.805 26.41 26.41 0 0 1 7.789-18.805A26.41 26.41 0 0 1 77.37 8.247a26.41 26.41 0 0 1 18.805 7.789 26.45 26.45 0 0 1 7.311 13.825l-20.179.02c-4.92.239-9.084 3.287-10.857 7.928-1.813 4.741-.737 9.9 2.829 13.486l30.936 30.936.06.06c4.621 4.602 10.259 7.829 16.414 9.482z" fill="#fff"/><path d="M95.298 105.756a4.12 4.12 0 0 1 4.123 4.123c0 5.956-2.311 11.554-6.534 15.777a22.23 22.23 0 0 1-15.777 6.534H60.617c-22.331 0-40.498-18.167-40.498-40.498 0-1.096.438-2.131 1.195-2.908.777-.777 1.813-1.195 2.908-1.195h44.562a4.12 4.12 0 0 1 4.123 4.123c0 2.271-1.853 4.123-4.123 4.123H28.586c2.032 15.856 15.617 28.167 32.012 28.167h16.494c3.765 0 7.311-1.474 9.96-4.123 2.669-2.669 4.123-6.195 4.123-9.96 0-2.311 1.853-4.163 4.123-4.163zM80.956 16.215c2.57 0 4.661 2.072 4.661 4.641a4.67 4.67 0 0 1-4.661 4.661c-2.57 0-4.661-2.072-4.661-4.661.02-2.55 2.092-4.641 4.661-4.641z" fill="#633"/><path d="M80.956 170.557V147.45H69.502v23.008c0-.02 11.175.02 11.454.1z" fill="#fff"/></svg>