<svg version="1.1" xmlns="http://www.w3.org/2000/svg" xmlns:xlink="http://www.w3.org/1999/xlink" width="140" height="47.43215" viewBox="0,0,140,47.43215"><g transform="translate(-170,-156.28393)"><g data-paper-data="{&quot;isPaintingLayer&quot;:true}" fill-rule="nonzero" stroke-dasharray="" stroke-dashoffset="0" style="mix-blend-mode: normal"><path d="M213.44726,195.45421l0.22229,2.40044l-1.11145,0.10436l-0.55572,-2.5048z" fill="#000000" stroke="none" stroke-width="0.21651" stroke-linecap="butt" stroke-linejoin="miter" stroke-miterlimit="10"/><path d="M302.09557,194.47803l0.22229,2.40044l-1.11144,0.10436l-0.55572,-2.5048z" fill="#000000" stroke="none" stroke-width="0.21651" stroke-linecap="butt" stroke-linejoin="miter" stroke-miterlimit="10"/><path d="M177.11388,179.94533c0.9279,0.3093 29.53808,-6.95924 28.91948,-6.64994c-0.6186,0.3093 37.57986,-17.01146 37.57986,-17.01146h42.37401l21.65095,15.92891l0.61859,19.79516l-9.27897,4.79414h-115.83259l-11.13477,-6.18599z" fill="#ff5555" stroke="none" stroke-width="0.21651" stroke-linecap="butt" stroke-linejoin="miter" stroke-miterlimit="10"/><path d="M301.34158,193.16802c-0.00471,0.87413 -0.12143,1.74451 -0.3476,2.59219l-2.01624,1.04195h-19.93537c-0.44404,-1.16597 -0.67303,-2.39515 -0.67701,-3.63414c-0.00005,-5.98779 5.14335,-10.84189 11.48811,-10.84197c6.34476,0.00008 11.48816,4.85418 11.48811,10.84197z" fill="#000000" stroke="none" stroke-width="0.21651" stroke-linecap="butt" stroke-linejoin="miter" stroke-miterlimit="10"/><path d="M212.72746,193.78625c-0.00285,1.02083 -0.15845,2.03615 -0.4622,3.01591h-22.05521c-0.30274,-0.97989 -0.45735,-1.99522 -0.45924,-3.01591c0.00021,-5.98778 5.14378,-10.84168 11.48854,-10.84154c6.34459,0.00008 11.48791,4.85392 11.48811,10.84154z" fill="#00ffff" stroke="none" stroke-width="0.21651" stroke-linecap="butt" stroke-linejoin="miter" stroke-miterlimit="10"/><path d="M283.51284,158.91298v12.06267l-71.13884,3.09299l30.77528,-15.46497c0.15465,-0.3093 40.36356,0.30931 40.36356,0.30931z" fill="none" stroke="#000000" stroke-width="0.21651" stroke-linecap="butt" stroke-linejoin="miter" stroke-miterlimit="10"/><path d="M299.83842,169.10886c-3.70087,0.19057 -14.2433,0.39989 -14.2433,0.39989l-0.31868,-10.2771c0,0 13.94338,9.41326 14.56198,9.87721z" fill="#d7eef4" stroke="#000000" stroke-width="0.21651" stroke-linecap="butt" stroke-linejoin="miter" stroke-miterlimit="10"/><path d="M178.50573,180.71857l6.03134,-0.15465l-2.47439,5.87669l-5.72204,-0.46395z" fill="#f2f2f2" stroke="#000000" stroke-width="0.21651" stroke-linecap="butt" stroke-linejoin="miter" stroke-miterlimit="10"/><path d="M179.12433,193.09055l3.55694,-0.77325l1.70114,3.24764l-2.47439,-0.3093z" fill="#ffdd55" stroke="#000000" stroke-width="0.21651" stroke-linecap="butt" stroke-linejoin="miter" stroke-miterlimit="10"/><path d="M212.19282,180.72634l-0.15465,2.4744l-4.17554,0.15465v-2.4744z" fill="#ffdd55" stroke="#000000" stroke-width="0.21651" stroke-linecap="butt" stroke-linejoin="miter" stroke-miterlimit="10"/><path d="M307.94748,181.80112l-4.63949,0.3093l-2.01045,-6.49529l6.34064,0.30931z" fill="#ff0000" stroke="#000000" stroke-width="0.21651" stroke-linecap="butt" stroke-linejoin="miter" stroke-miterlimit="10"/><path d="M301.29754,185.49396c0.63061,-0.15465 8.70246,-0.30931 8.70246,-0.30931l-0.25223,2.31975l-8.19798,-0.3093z" fill="#000000" stroke="none" stroke-width="0.21651" stroke-linecap="butt" stroke-linejoin="miter" stroke-miterlimit="10"/><path d="M171.39185,187.98711h8.50573l-2.31975,2.78369l-7.57783,-0.6186z" fill="#000000" stroke="none" stroke-width="0.21651" stroke-linecap="butt" stroke-linejoin="miter" stroke-miterlimit="10"/><path d="M239.43769,179.01743c1.08255,-0.15465 6.64994,-0.3093 6.64994,-0.3093l0.15465,1.5465h-7.11388z" fill="none" stroke="#000000" stroke-width="0.21651" stroke-linecap="butt" stroke-linejoin="miter" stroke-miterlimit="10"/><path d="M275.34293,177.69902c0.61861,-0.15465 5.78611,-0.264 5.78611,-0.264l-0.0906,1.27311l-6.03134,0.15465z" fill="none" stroke="#000000" stroke-width="0.21651" stroke-linecap="butt" stroke-linejoin="miter" stroke-miterlimit="10"/><path d="M224.59132,169.8931c1.08255,-0.9279 19.48586,-10.05223 19.48586,-10.05223l14.38242,-0.3093l-0.77325,10.98013l-32.32178,1.85579z" fill="#d7eef4" stroke="#000000" stroke-width="0.21651" stroke-linecap="butt" stroke-linejoin="miter" stroke-miterlimit="10"/><path d="M282.2944,160.0033l0.17341,9.5805l-22.15242,0.77325l-0.10935,-11.01766z" fill="#d7eef4" stroke="#000000" stroke-width="0.21651" stroke-linecap="butt" stroke-linejoin="miter" stroke-miterlimit="10"/><path d="M259.23284,172.05819c0,0 -1.1986,20.49108 -1.2372,21.41898c-2.6677,0.15464 -40.5182,0.38663 -40.5182,0.38663l-0.77325,-20.10446" fill="none" stroke="#000000" stroke-width="0.21651" stroke-linecap="butt" stroke-linejoin="miter" stroke-miterlimit="10"/><path d="M283.47417,170.93698l3.47962,4.44618c0,0 -5.39352,5.39323 -7.36519,8.35108c-1.97166,2.95785 -4.42684,8.89235 -4.42684,8.89235c0,0 -14.57573,0.69593 -17.12745,0.81192" fill="none" stroke="#000000" stroke-width="0.21651" stroke-linecap="butt" stroke-linejoin="miter" stroke-miterlimit="10"/><path d="M189.17656,180.25463c1.08255,0 50.87974,-3.7116 63.87031,-4.33019c12.99056,-0.61861 45.77629,-0.61861 45.77629,-0.61861" fill="none" stroke="#000000" stroke-width="0.21651" stroke-linecap="butt" stroke-linejoin="miter" stroke-miterlimit="10"/><path d="M190.83352,193.78647c0,-5.42358 4.6588,-9.82025 10.40571,-9.82025c5.74692,0 10.40571,4.39668 10.40571,9.82025c0,5.42358 -4.6588,9.82025 -10.40571,9.82025c-5.74692,0 -10.40571,-4.39668 -10.40571,-9.82025z" fill="#aaffbb" stroke="none" stroke-width="2.09895" stroke-linecap="round" stroke-linejoin="round" stroke-miterlimit="4"/><path d="M195.47301,193.78647c0,-3.00542 2.58163,-5.4418 5.76622,-5.4418c3.1846,0 5.76622,2.43637 5.76622,5.4418c0,3.00542 -2.58163,5.4418 -5.76622,5.4418c-3.1846,0 -5.76622,-2.43637 -5.76622,-5.4418z" fill="#e3dbdb" stroke="none" stroke-width="2.09895" stroke-linecap="round" stroke-linejoin="round" stroke-miterlimit="4"/><path d="M212.72746,193.78625c-0.00285,1.02083 -0.15845,2.03615 -0.4622,3.01591h-22.05521c-0.30274,-0.97989 -0.45735,-1.99522 -0.45924,-3.01591c0.00021,-5.98778 5.14378,-10.84168 11.48854,-10.84154c6.34459,0.00008 11.48791,4.85392 11.48811,10.84154z" fill="#000000" stroke="none" stroke-width="0.21651" stroke-linecap="butt" stroke-linejoin="miter" stroke-miterlimit="10"/><path d="M190.83352,193.78647c0,-5.42358 4.6588,-9.82025 10.40571,-9.82025c5.74692,0 10.40571,4.39668 10.40571,9.82025c0,5.42358 -4.6588,9.82025 -10.40571,9.82025c-5.74692,0 -10.40571,-4.39668 -10.40571,-9.82025z" fill="#666666" stroke="none" stroke-width="2.09895" stroke-linecap="round" stroke-linejoin="round" stroke-miterlimit="4"/><path d="M195.47301,193.78647c0,-3.00542 2.58163,-5.4418 5.76622,-5.4418c3.1846,0 5.76622,2.43637 5.76622,5.4418c0,3.00542 -2.58163,5.4418 -5.76622,5.4418c-3.1846,0 -5.76622,-2.43637 -5.76622,-5.4418z" fill="#e3dbdb" stroke="#000000" stroke-width="0.24549" stroke-linecap="round" stroke-linejoin="round" stroke-miterlimit="4"/><path d="M279.30075,193.89583c0,-5.42358 4.6588,-9.82025 10.40571,-9.82025c5.74692,0 10.40571,4.39668 10.40571,9.82025c0,5.42358 -4.6588,9.82025 -10.40571,9.82025c-5.74692,0 -10.40571,-4.39668 -10.40571,-9.82025z" fill="#666666" stroke="none" stroke-width="2.09895" stroke-linecap="round" stroke-linejoin="round" stroke-miterlimit="4"/><path d="M283.94024,193.78647c0,-3.00542 2.58163,-5.4418 5.76622,-5.4418c3.1846,0 5.76622,2.43637 5.76622,5.4418c0,3.00542 -2.58163,5.4418 -5.76622,5.4418c-3.1846,0 -5.76622,-2.43637 -5.76622,-5.4418z" fill="#e3dbdb" stroke="none" stroke-width="1.14562" stroke-linecap="round" stroke-linejoin="round" stroke-miterlimit="4"/><path d="M259.23284,172.05819l-0.0548,-13.55992" fill="none" stroke="#000000" stroke-width="0.21651" stroke-linecap="butt" stroke-linejoin="miter" stroke-miterlimit="10"/><path d="M225.69263,174.22651c0,0 -3.85893,0.72951 -5.60859,-1.23886c-1.74966,-1.96837 2.51514,-3.17126 3.06191,-3.49932z" fill="#666666" stroke="#000000" stroke-width="0.21651" stroke-linecap="butt" stroke-linejoin="miter" stroke-miterlimit="10"/></g></g></svg>