<?xml version="1.0" encoding="UTF-8" standalone="no"?>
<!-- Created with Inkscape (http://www.inkscape.org/) -->

<svg
   width="140mm"
   height="47.432148mm"
   viewBox="0 0 140 47.432148"
   version="1.1"
   id="svg8"
   sodipodi:docname="FX13_carred.svg"
   inkscape:version="1.2.2 (732a01da63, 2022-12-09)"
   xmlns:inkscape="http://www.inkscape.org/namespaces/inkscape"
   xmlns:sodipodi="http://sodipodi.sourceforge.net/DTD/sodipodi-0.dtd"
   xmlns="http://www.w3.org/2000/svg"
   xmlns:svg="http://www.w3.org/2000/svg"
   xmlns:rdf="http://www.w3.org/1999/02/22-rdf-syntax-ns#"
   xmlns:cc="http://creativecommons.org/ns#"
   xmlns:dc="http://purl.org/dc/elements/1.1/">
  <defs
     id="defs2" />
  <sodipodi:namedview
     id="base"
     pagecolor="#ffffff"
     bordercolor="#666666"
     borderopacity="1.0"
     inkscape:pageopacity="0.0"
     inkscape:pageshadow="2"
     inkscape:zoom="1.979899"
     inkscape:cx="334.36049"
     inkscape:cy="90.408652"
     inkscape:document-units="mm"
     inkscape:current-layer="layer1"
     showgrid="false"
     inkscape:snap-global="false"
     inkscape:window-width="1920"
     inkscape:window-height="1017"
     inkscape:window-x="1912"
     inkscape:window-y="-8"
     inkscape:window-maximized="1"
     fit-margin-top="0"
     fit-margin-left="0"
     fit-margin-right="0"
     fit-margin-bottom="0"
     inkscape:showpageshadow="2"
     inkscape:pagecheckerboard="0"
     inkscape:deskcolor="#d1d1d1" />
  <metadata
     id="metadata5">
    <rdf:RDF>
      <cc:Work
         rdf:about="">
        <dc:format>image/svg+xml</dc:format>
        <dc:type
           rdf:resource="http://purl.org/dc/dcmitype/StillImage" />
        <dc:title />
      </cc:Work>
    </rdf:RDF>
  </metadata>
  <g
     inkscape:label="Layer 1"
     inkscape:groupmode="layer"
     id="layer1"
     transform="translate(-22.867559,-101.39732)">
    <path
       style="fill:#000000;stroke:none;stroke-width:0.216509px;stroke-linecap:butt;stroke-linejoin:miter;stroke-opacity:1"
       d="m 64.869943,140.5676 0.555718,2.5048 1.111445,-0.10436 -0.222292,-2.40044 z"
       id="path4531-3-1"
       inkscape:connector-curvature="0" />
    <path
       style="fill:#000000;stroke:none;stroke-width:0.216509px;stroke-linecap:butt;stroke-linejoin:miter;stroke-opacity:1"
       d="m 153.51826,139.59142 0.55572,2.5048 1.11144,-0.10436 -0.22229,-2.40044 z"
       id="path4531-3"
       inkscape:connector-curvature="0" />
    <path
       style="fill:#ff5555;fill-opacity:1;stroke:none;stroke-width:0.216509px;stroke-linecap:butt;stroke-linejoin:miter;stroke-opacity:1"
       d="m 29.981441,125.05872 c 0.927899,0.3093 29.538084,-6.95924 28.919484,-6.64994 -0.618598,0.3093 37.579862,-17.01146 37.579862,-17.01146 H 138.8548 l 21.65095,15.92891 0.61859,19.79516 -9.27897,4.79414 H 36.012779 l -11.134774,-6.18599 z"
       id="path4485-5"
       inkscape:connector-curvature="0" />
    <path
       style="fill:#000000;fill-opacity:1;stroke:none;stroke-width:0.216509px;stroke-linecap:butt;stroke-linejoin:miter;stroke-opacity:1"
       d="m 142.72103,127.43944 a 11.488259,10.841893 0 0 0 -11.48811,10.84197 11.488259,10.841893 0 0 0 0.67701,3.63414 h 19.93537 l 2.01624,-1.04195 a 11.488259,10.841893 0 0 0 0.3476,-2.59219 11.488259,10.841893 0 0 0 -11.48811,-10.84197 z"
       id="path4485-3"
       inkscape:connector-curvature="0" />
    <path
       style="fill:#00ffff;fill-opacity:1;stroke:none;stroke-width:0.216509px;stroke-linecap:butt;stroke-linejoin:miter;stroke-opacity:1"
       d="m 54.106907,128.0581 a 11.488259,10.841893 0 0 0 -11.488535,10.84154 11.488259,10.841893 0 0 0 0.459238,3.01591 H 65.132822 A 11.488259,10.841893 0 0 0 65.59502,138.89964 11.488259,10.841893 0 0 0 54.106907,128.0581 Z"
       id="path4485"
       inkscape:connector-curvature="0" />
    <path
       style="fill:none;stroke:#000000;stroke-width:0.216509px;stroke-linecap:butt;stroke-linejoin:miter;stroke-opacity:1"
       d="m 96.016842,103.71706 -30.775281,15.46497 71.138839,-3.09299 v -12.06267 c 0,0 -40.208907,-0.61861 -40.363558,-0.30931 z"
       id="path4495"
       inkscape:connector-curvature="0" />
    <path
       style="fill:#d7eef4;fill-opacity:1;stroke:#000000;stroke-width:0.216509px;stroke-linecap:butt;stroke-linejoin:miter;stroke-opacity:1"
       d="m 138.144,104.34504 0.31868,10.2771 c 0,0 10.54243,-0.20932 14.2433,-0.39989 -0.6186,-0.46395 -14.56198,-9.87721 -14.56198,-9.87721 z"
       id="path4497"
       inkscape:connector-curvature="0"
       sodipodi:nodetypes="cccc" />
    <path
       style="fill:#f2f2f2;stroke:#000000;stroke-width:0.216509px;stroke-linecap:butt;stroke-linejoin:miter;stroke-opacity:1"
       d="m 31.37329,125.83196 6.031335,-0.15465 -2.474393,5.87669 -5.722037,-0.46395 z"
       id="path4499"
       inkscape:connector-curvature="0" />
    <path
       style="fill:#ffdd55;stroke:#000000;stroke-width:0.216509px;stroke-linecap:butt;stroke-linejoin:miter;stroke-opacity:1"
       d="m 31.991888,138.20394 3.556942,-0.77325 1.701145,3.24764 -2.474394,-0.3093 z"
       id="path4501"
       inkscape:connector-curvature="0" />
    <path
       style="fill:#ffdd55;fill-opacity:1;stroke:#000000;stroke-width:0.216509px;stroke-linecap:butt;stroke-linejoin:miter;stroke-opacity:1"
       d="m 60.730189,125.99438 v 2.4744 l 4.175539,-0.15465 0.154651,-2.4744 z"
       id="path4503"
       inkscape:connector-curvature="0" />
    <path
       style="fill:#ff0000;stroke:#000000;stroke-width:0.216509px;stroke-linecap:butt;stroke-linejoin:miter;stroke-opacity:1"
       d="m 160.50574,121.03783 -6.34064,-0.30931 2.01045,6.49529 4.63949,-0.3093 z"
       id="path4507"
       inkscape:connector-curvature="0" />
    <path
       style="fill:#000000;stroke:none;stroke-width:0.216509px;stroke-linecap:butt;stroke-linejoin:miter;stroke-opacity:1"
       d="m 154.1651,130.60735 c 0.63061,-0.15465 8.70246,-0.30931 8.70246,-0.30931 l -0.25223,2.31975 -8.19798,-0.3093 z"
       id="path4509"
       inkscape:connector-curvature="0" />
    <path
       style="fill:#000000;stroke:none;stroke-width:0.216509px;stroke-linecap:butt;stroke-linejoin:miter;stroke-opacity:1"
       d="m 24.259406,133.1005 h 8.505731 l -2.319746,2.78369 -7.577832,-0.6186 z"
       id="path4511"
       inkscape:connector-curvature="0" />
    <path
       style="fill:none;stroke:#000000;stroke-width:0.216509px;stroke-linecap:butt;stroke-linejoin:miter;stroke-opacity:1"
       d="m 92.305246,124.13082 c 1.08255,-0.15465 6.649936,-0.3093 6.649936,-0.3093 l 0.154651,1.5465 h -7.113882 z"
       id="path4515"
       inkscape:connector-curvature="0" />
    <path
       style="fill:none;stroke:#000000;stroke-width:0.216509px;stroke-linecap:butt;stroke-linejoin:miter;stroke-opacity:1"
       d="m 128.21049,122.81241 c 0.61861,-0.15465 5.78611,-0.264 5.78611,-0.264 l -0.0906,1.27311 -6.03134,0.15465 z"
       id="path4519"
       inkscape:connector-curvature="0"
       sodipodi:nodetypes="ccccc" />
    <path
       style="fill:#d7eef4;stroke:#000000;stroke-width:0.216509px;stroke-linecap:butt;stroke-linejoin:miter;stroke-opacity:1"
       d="m 77.458883,115.00649 c 1.082547,-0.9279 19.485858,-10.05223 19.485858,-10.05223 l 14.382419,-0.3093 -0.77325,10.98013 -32.321779,1.85579 z"
       id="path4521"
       inkscape:connector-curvature="0" />
    <path
       style="fill:#d7eef4;fill-opacity:1;stroke:#000000;stroke-width:0.216509px;stroke-linecap:butt;stroke-linejoin:miter;stroke-opacity:1"
       d="m 113.0736,104.45278 0.10935,11.01766 22.15242,-0.77325 -0.17341,-9.5805 z"
       id="path4523"
       inkscape:connector-curvature="0"
       sodipodi:nodetypes="ccccc" />
    <path
       style="fill:none;stroke:#000000;stroke-width:0.216509px;stroke-linecap:butt;stroke-linejoin:miter;stroke-opacity:1"
       d="M 69.571751,118.87273 70.345,138.97719 c 0,0 37.8505,-0.23199 40.5182,-0.38663 0.0386,-0.9279 1.2372,-21.41898 1.2372,-21.41898"
       id="path4525"
       inkscape:connector-curvature="0"
       sodipodi:nodetypes="cccc" />
    <path
       style="fill:none;stroke:#000000;stroke-width:0.216509px;stroke-linecap:butt;stroke-linejoin:miter;stroke-opacity:1"
       d="m 110.90187,138.5519 c 2.55172,-0.11599 17.12745,-0.81192 17.12745,-0.81192 0,0 2.45518,-5.9345 4.42684,-8.89235 1.97167,-2.95785 7.36519,-8.35108 7.36519,-8.35108 l -3.47962,-4.44618"
       id="path4527"
       inkscape:connector-curvature="0"
       sodipodi:nodetypes="cczcc" />
    <path
       style="fill:none;stroke:#000000;stroke-width:0.216509px;stroke-linecap:butt;stroke-linejoin:miter;stroke-opacity:1"
       d="m 42.044115,125.36802 c 1.082547,0 50.879736,-3.7116 63.870305,-4.33019 12.99056,-0.61861 45.77629,-0.61861 45.77629,-0.61861"
       id="path4529"
       inkscape:connector-curvature="0"
       sodipodi:nodetypes="csc" />
    <ellipse
       style="opacity:1;fill:#aaffbb;fill-opacity:1;stroke:none;stroke-width:2.09895;stroke-linecap:round;stroke-linejoin:round;stroke-miterlimit:4;stroke-dasharray:none;stroke-opacity:1"
       id="path4593"
       cx="54.106789"
       cy="138.89986"
       rx="10.405712"
       ry="9.8202534" />
    <ellipse
       style="opacity:1;fill:#e3dbdb;fill-opacity:1;stroke:none;stroke-width:2.09895;stroke-linecap:round;stroke-linejoin:round;stroke-miterlimit:4;stroke-dasharray:none;stroke-opacity:1"
       id="path4593-6"
       cx="54.106789"
       cy="138.89986"
       rx="5.7662225"
       ry="5.4417958" />
    <path
       inkscape:connector-curvature="0"
       style="fill:#000000;fill-opacity:1;stroke:none;stroke-width:0.216509px;stroke-linecap:butt;stroke-linejoin:miter;stroke-opacity:1"
       d="m 54.106907,128.0581 a 11.488259,10.841893 0 0 0 -11.488535,10.84154 11.488259,10.841893 0 0 0 0.459238,3.01591 H 65.132823 A 11.488259,10.841893 0 0 0 65.59502,138.89964 11.488259,10.841893 0 0 0 54.106907,128.0581 Z"
       id="path4485-36" />
    <ellipse
       style="opacity:1;fill:#666666;fill-opacity:1;stroke:none;stroke-width:2.09895;stroke-linecap:round;stroke-linejoin:round;stroke-miterlimit:4;stroke-dasharray:none;stroke-opacity:1"
       id="path4593-0"
       cx="54.106789"
       cy="138.89986"
       rx="10.405712"
       ry="9.8202534" />
    <ellipse
       style="opacity:1;fill:#e3dbdb;fill-opacity:1;stroke:#000000;stroke-width:0.245491;stroke-linecap:round;stroke-linejoin:round;stroke-miterlimit:4;stroke-dasharray:none;stroke-opacity:1"
       id="path4593-6-6"
       cx="54.106789"
       cy="138.89986"
       rx="5.7662225"
       ry="5.4417958" />
    <ellipse
       style="opacity:1;fill:#666666;fill-opacity:1;stroke:none;stroke-width:2.09895;stroke-linecap:round;stroke-linejoin:round;stroke-miterlimit:4;stroke-dasharray:none;stroke-opacity:1"
       id="path4593-0-2"
       cx="142.57402"
       cy="139.00922"
       rx="10.405712"
       ry="9.8202534" />
    <ellipse
       style="opacity:1;fill:#e3dbdb;fill-opacity:1;stroke:none;stroke-width:1.14562;stroke-linecap:round;stroke-linejoin:round;stroke-miterlimit:4;stroke-dasharray:none;stroke-opacity:1"
       id="path4593-6-6-6"
       cx="142.57402"
       cy="138.89986"
       rx="5.7662225"
       ry="5.4417958" />
    <path
       style="fill:none;stroke:#000000;stroke-width:0.216509px;stroke-linecap:butt;stroke-linejoin:miter;stroke-opacity:1"
       d="m 112.1004,117.17158 -0.0548,-13.55992"
       id="path4510"
       inkscape:connector-curvature="0" />
    <path
       style="fill:#666666;fill-opacity:1;stroke:#000000;stroke-width:0.216509px;stroke-linecap:butt;stroke-linejoin:miter;stroke-opacity:1"
       d="m 76.01351,114.60172 c -0.546768,0.32806 -4.811568,1.53095 -3.061907,3.49932 1.749661,1.96837 5.608589,1.23886 5.608589,1.23886 z"
       id="path4512"
       inkscape:connector-curvature="0" />
  </g>
</svg>
