<svg version="1.1" xmlns="http://www.w3.org/2000/svg" xmlns:xlink="http://www.w3.org/1999/xlink" width="140" height="47.43215" viewBox="0,0,140,47.43215"><g transform="translate(-170,-156.28393)"><g data-paper-data="{&quot;isPaintingLayer&quot;:true}" fill-rule="nonzero" stroke-dasharray="" stroke-dashoffset="0" style="mix-blend-mode: normal"><path d="M267.99762,195.45421l-0.55572,2.5048l-1.11145,-0.10436l0.22229,-2.40044z" data-paper-data="{&quot;index&quot;:null}" fill="#000000" stroke="none" stroke-width="0.21651" stroke-linecap="butt" stroke-linejoin="miter" stroke-miterlimit="10"/><path d="M179.3493,194.47803l-0.55572,2.5048l-1.11144,-0.10436l0.22229,-2.40044z" data-paper-data="{&quot;index&quot;:null}" fill="#000000" stroke="none" stroke-width="0.21651" stroke-linecap="butt" stroke-linejoin="miter" stroke-miterlimit="10"/><path d="M307.98956,190.61615l-11.13477,6.18599h-115.83259l-9.27897,-4.79414l0.61859,-19.79516l21.65095,-15.92891h42.37401c0,0 38.19846,17.32076 37.57986,17.01146c-0.6186,-0.3093 27.99158,6.95924 28.91948,6.64994z" data-paper-data="{&quot;index&quot;:null}" fill="#ff5555" stroke="none" stroke-width="0.21651" stroke-linecap="butt" stroke-linejoin="miter" stroke-miterlimit="10"/><path d="M190.14653,182.32605c6.34476,0.00008 11.48816,4.85418 11.48811,10.84197c-0.00398,1.23899 -0.23297,2.46817 -0.67701,3.63414h-19.93537l-2.01624,-1.04195c-0.22617,-0.84768 -0.34289,-1.71806 -0.3476,-2.59219c-0.00005,-5.98779 5.14335,-10.84189 11.48811,-10.84197z" data-paper-data="{&quot;index&quot;:null}" fill="#000000" stroke="none" stroke-width="0.21651" stroke-linecap="butt" stroke-linejoin="miter" stroke-miterlimit="10"/><path d="M278.76065,182.94471c6.34476,-0.00014 11.48833,4.85376 11.48854,10.84154c-0.00189,1.02069 -0.1565,2.03602 -0.45924,3.01591h-22.05521c-0.30375,-0.97976 -0.45935,-1.99508 -0.4622,-3.01591c0.0002,-5.98762 5.14352,-10.84146 11.48811,-10.84154z" data-paper-data="{&quot;index&quot;:null}" fill="#00ffff" stroke="none" stroke-width="0.21651" stroke-linecap="butt" stroke-linejoin="miter" stroke-miterlimit="10"/><path d="M236.85072,158.60367l30.77528,15.46497l-71.13884,-3.09299v-12.06267c0,0 40.20891,-0.61861 40.36356,-0.30931z" data-paper-data="{&quot;index&quot;:null}" fill="none" stroke="#000000" stroke-width="0.21651" stroke-linecap="butt" stroke-linejoin="miter" stroke-miterlimit="10"/><path d="M194.72356,159.23165l-0.31868,10.2771c0,0 -10.54243,-0.20932 -14.2433,-0.39989c0.6186,-0.46395 14.56198,-9.87721 14.56198,-9.87721z" data-paper-data="{&quot;index&quot;:null}" fill="#d7eef4" stroke="#000000" stroke-width="0.21651" stroke-linecap="butt" stroke-linejoin="miter" stroke-miterlimit="10"/><path d="M303.65936,185.97666l-5.72204,0.46395l-2.47439,-5.87669l6.03134,0.15465z" data-paper-data="{&quot;index&quot;:null}" fill="#f2f2f2" stroke="#000000" stroke-width="0.21651" stroke-linecap="butt" stroke-linejoin="miter" stroke-miterlimit="10"/><path d="M298.09198,195.25564l-2.47439,0.3093l1.70114,-3.24764l3.55694,0.77325z" data-paper-data="{&quot;index&quot;:null}" fill="#ffdd55" stroke="#000000" stroke-width="0.21651" stroke-linecap="butt" stroke-linejoin="miter" stroke-miterlimit="10"/><path d="M272.13737,180.88099v2.4744l-4.17554,-0.15465l-0.15465,-2.4744z" data-paper-data="{&quot;index&quot;:null}" fill="#ffdd55" stroke="#000000" stroke-width="0.21651" stroke-linecap="butt" stroke-linejoin="miter" stroke-miterlimit="10"/><path d="M172.36182,175.92444l6.34064,-0.30931l-2.01045,6.49529l-4.63949,-0.3093z" data-paper-data="{&quot;index&quot;:null}" fill="#ff0000" stroke="#000000" stroke-width="0.21651" stroke-linecap="butt" stroke-linejoin="miter" stroke-miterlimit="10"/><path d="M178.45021,187.19509l-8.19798,0.3093l-0.25223,-2.31975c0,0 8.07185,0.15466 8.70246,0.30931z" data-paper-data="{&quot;index&quot;:null}" fill="#000000" stroke="none" stroke-width="0.21651" stroke-linecap="butt" stroke-linejoin="miter" stroke-miterlimit="10"/><path d="M310,190.1522l-7.57783,0.6186l-2.31975,-2.78369h8.50573z" data-paper-data="{&quot;index&quot;:null}" fill="#000000" stroke="none" stroke-width="0.21651" stroke-linecap="butt" stroke-linejoin="miter" stroke-miterlimit="10"/><path d="M240.8716,180.25463h-7.11388l0.15465,-1.5465c0,0 5.56739,0.15465 6.64994,0.3093z" data-paper-data="{&quot;index&quot;:null}" fill="none" stroke="#000000" stroke-width="0.21651" stroke-linecap="butt" stroke-linejoin="miter" stroke-miterlimit="10"/><path d="M204.9929,178.86278l-6.03134,-0.15465l-0.0906,-1.27311c0,0 5.1675,0.10935 5.78611,0.264z" data-paper-data="{&quot;index&quot;:null}" fill="none" stroke="#000000" stroke-width="0.21651" stroke-linecap="butt" stroke-linejoin="miter" stroke-miterlimit="10"/><path d="M254.63543,172.36749l-32.32178,-1.85579l-0.77325,-10.98013l14.38242,0.3093c0,0 18.40331,9.12433 19.48586,10.05223z" data-paper-data="{&quot;index&quot;:null}" fill="#d7eef4" stroke="#000000" stroke-width="0.21651" stroke-linecap="butt" stroke-linejoin="miter" stroke-miterlimit="10"/><path d="M219.79396,159.33939l-0.10935,11.01766l-22.15242,-0.77325l0.17341,-9.5805z" data-paper-data="{&quot;index&quot;:null}" fill="#d7eef4" stroke="#000000" stroke-width="0.21651" stroke-linecap="butt" stroke-linejoin="miter" stroke-miterlimit="10"/><path d="M263.29581,173.75934l-0.77325,20.10446c0,0 -37.8505,-0.23199 -40.5182,-0.38663c-0.0386,-0.9279 -1.2372,-21.41898 -1.2372,-21.41898" data-paper-data="{&quot;index&quot;:null}" fill="none" stroke="#000000" stroke-width="0.21651" stroke-linecap="butt" stroke-linejoin="miter" stroke-miterlimit="10"/><path d="M221.96569,193.43851c-2.55172,-0.11599 -17.12745,-0.81192 -17.12745,-0.81192c0,0 -2.45518,-5.9345 -4.42684,-8.89235c-1.97167,-2.95785 -7.36519,-8.35108 -7.36519,-8.35108l3.47962,-4.44618" data-paper-data="{&quot;index&quot;:null}" fill="none" stroke="#000000" stroke-width="0.21651" stroke-linecap="butt" stroke-linejoin="miter" stroke-miterlimit="10"/><path d="M181.17684,175.30583c0,0 32.78573,0 45.77629,0.61861c12.99057,0.61859 62.78776,4.33019 63.87031,4.33019" data-paper-data="{&quot;index&quot;:null}" fill="none" stroke="#000000" stroke-width="0.21651" stroke-linecap="butt" stroke-linejoin="miter" stroke-miterlimit="10"/><path d="M278.76077,203.60672c-5.74691,0 -10.40571,-4.39667 -10.40571,-9.82025c0,-5.42357 4.65879,-9.82025 10.40571,-9.82025c5.74691,0 10.40571,4.39667 10.40571,9.82025c0,5.42357 -4.65879,9.82025 -10.40571,9.82025z" data-paper-data="{&quot;index&quot;:null}" fill="#aaffbb" stroke="none" stroke-width="2.09895" stroke-linecap="round" stroke-linejoin="round" stroke-miterlimit="4"/><path d="M278.76077,199.22827c-3.18459,0 -5.76622,-2.43638 -5.76622,-5.4418c0,-3.00543 2.58162,-5.4418 5.76622,-5.4418c3.18459,0 5.76622,2.43638 5.76622,5.4418c0,3.00543 -2.58162,5.4418 -5.76622,5.4418z" data-paper-data="{&quot;index&quot;:null}" fill="#e3dbdb" stroke="none" stroke-width="2.09895" stroke-linecap="round" stroke-linejoin="round" stroke-miterlimit="4"/><path d="M278.76065,182.94471c6.34476,-0.00014 11.48833,4.85376 11.48854,10.84154c-0.00189,1.02069 -0.1565,2.03602 -0.45924,3.01591h-22.05521c-0.30375,-0.97976 -0.45935,-1.99508 -0.4622,-3.01591c0.0002,-5.98762 5.14352,-10.84146 11.48811,-10.84154z" data-paper-data="{&quot;index&quot;:null}" fill="#000000" stroke="none" stroke-width="0.21651" stroke-linecap="butt" stroke-linejoin="miter" stroke-miterlimit="10"/><path d="M278.76077,203.60672c-5.74691,0 -10.40571,-4.39667 -10.40571,-9.82025c0,-5.42357 4.65879,-9.82025 10.40571,-9.82025c5.74691,0 10.40571,4.39667 10.40571,9.82025c0,5.42357 -4.65879,9.82025 -10.40571,9.82025z" data-paper-data="{&quot;index&quot;:null}" fill="#666666" stroke="none" stroke-width="2.09895" stroke-linecap="round" stroke-linejoin="round" stroke-miterlimit="4"/><path d="M278.76077,199.22827c-3.18459,0 -5.76622,-2.43638 -5.76622,-5.4418c0,-3.00543 2.58162,-5.4418 5.76622,-5.4418c3.18459,0 5.76622,2.43638 5.76622,5.4418c0,3.00543 -2.58162,5.4418 -5.76622,5.4418z" data-paper-data="{&quot;index&quot;:null}" fill="#e3dbdb" stroke="#000000" stroke-width="0.24549" stroke-linecap="round" stroke-linejoin="round" stroke-miterlimit="4"/><path d="M190.29354,203.71608c-5.74691,0 -10.40571,-4.39667 -10.40571,-9.82025c0,-5.42357 4.65879,-9.82025 10.40571,-9.82025c5.74691,0 10.40571,4.39667 10.40571,9.82025c0,5.42357 -4.65879,9.82025 -10.40571,9.82025z" data-paper-data="{&quot;index&quot;:null}" fill="#666666" stroke="none" stroke-width="2.09895" stroke-linecap="round" stroke-linejoin="round" stroke-miterlimit="4"/><path d="M190.29354,199.22827c-3.18459,0 -5.76622,-2.43638 -5.76622,-5.4418c0,-3.00543 2.58162,-5.4418 5.76622,-5.4418c3.18459,0 5.76622,2.43638 5.76622,5.4418c0,3.00543 -2.58162,5.4418 -5.76622,5.4418z" data-paper-data="{&quot;index&quot;:null}" fill="#e3dbdb" stroke="none" stroke-width="1.14562" stroke-linecap="round" stroke-linejoin="round" stroke-miterlimit="4"/><path d="M220.76716,172.05819l0.0548,-13.55992" data-paper-data="{&quot;index&quot;:null}" fill="none" stroke="#000000" stroke-width="0.21651" stroke-linecap="butt" stroke-linejoin="miter" stroke-miterlimit="10"/><path d="M256.85405,169.48833c0.54677,0.32806 4.81157,1.53095 3.06191,3.49932c-1.74966,1.96837 -5.60859,1.23886 -5.60859,1.23886z" data-paper-data="{&quot;index&quot;:null}" fill="#666666" stroke="#000000" stroke-width="0.21651" stroke-linecap="butt" stroke-linejoin="miter" stroke-miterlimit="10"/></g></g></svg>