<svg xmlns="http://www.w3.org/2000/svg" xmlns:xlink="http://www.w3.org/1999/xlink" height="82.509" width="140" xmlns:v="https://vecta.io/nano"><style><![CDATA[.B{stroke:#000}.C{fill:none}.D{stroke-width:2.133}.E{fill:#ccc}.F{stroke-width:1.067}.G{stroke-linecap:round}.H{fill:#a9a9a9}.I{fill:#b0c4de}.J{stroke:#daa520}.K{stroke-width:6.4}.L{fill:#9dbfbf}.M{stroke-width:3.2}.N{stroke-dasharray:4.26667, 4.26667}.O{stroke-width:4.267}]]></style><g transform="matrix(.117961 0 0 .131179 -11.739698 92.418033)"><path d="M797.079-1670.545l-9.174 77.167c62.433-20.148 133.212-20.421 197.235-15.649l-20.506-75.278zm-9.713 79.595l-6.476 65.295c75.732-21.693 155.809-20.153 225.565-14.57l-19.696-66.914zm-5.164 67.167l-9.158 62.579c81.045-17.284 164.518-20.002 248.406-20.224l-14.118-55.329zm14.338-148.921l11.332-92.277 131.4-11.872 24.823 90.928c-57.355-1.044-114.215-.289-167.555 13.221zm-23.114 213.789l.763 83.947c85.473-10.915 170.946-3.755 256.419-.381l-8.013-105.315zm-514.089-282.862l-10.885 85.531c42.53-16.091 94-14.431 126.636-9.444l-21.948-83.722zm-10.579 87.495l-9.158 86.236c55.4-14.225 113.11-15.039 159.881-9.73l-23.849-85.664zm-8.578 90.314l-8.364 66.914c58.671-17.73 121.222-20.429 185.633-15.919l-16.729-62.057zm-7.824 68.263l-7.285 63.946c67.618-15.465 141.046-21.057 203.98-14.84l-17.808-63.677zm286.004-274.402l-14.57 94.166c53.577-15.373 127.65-16.903 166.206-13.221l-25.093-90.118zm-26.442 176.729l-5.666 64.486c74.526-16.447 154.505-19.853 227.185-15.649l-20.506-63.407zm12.412-80.945l-13.221 79.865c62.744-18.432 144.01-23.873 201.282-14.84l-22.934-77.707zm-19.697 147.859l-5.126 65.295c84.124-16.744 166.482-22.107 249.849-19.697l-16.729-62.058zm-5.936 66.375l.809 94.975c85.869-16.436 163.951-25.005 261.991-12.681l-12.142-102.26z" transform="translate(0 1122.521)" fill="#f5f5f5" class="B F"/><g class="D H B"><path d="M319.187-197.627v-42.667h4.013l5.333 42.667"/><path d="M234.667-197.627v-42.667c21.333-10.667 64-10.667 85.333 0v42.667m-94.933-64v10.667h6.4l-3.2-10.667z"/></g><g class="E B D"><path d="M181.333-208.294v-42.667h53.333L256-241.084v32.79"/><path d="M181.333-208.294v-26.667H256v32"/></g><path d="M341.333-218.961v-32H384l10.667 5.333 10.667 16v10.667" class="B D H"/><rect width="21.333" height="48" x="341.333" y="-256.294" rx="5.333" fill="#d3d3d3" class="B D"/><path d="M181.333-197.627v-21.333h64 384l32 21.333z" class="B D E"/><path d="M373.333-250.694v10.667L384-229.361h21.333l-10.667-16L384-250.694z" class="B F L"/><g class="D H B"><path d="M789.333-201.116l21.333-21.333h10.667v21.333z"/><path d="M800-197.627v-21.333h74.667v21.333z"/></g><g class="F B"><path d="M366.593-220.428v-13.867h7.614v13.867z" class="L"/><path d="M372.074-226.828v2.133" class="C"/></g><g fill="#d3d3d3" class="D B"><rect width="21.333" height="21.333" x="170.667" y="-218.961" rx="5.333"/><path d="M320-197.627l21.333-21.333H352v21.333z"/></g><g class="F B"><path d="M256-225.36v6.4m21.334-6.4v6.4" class="C"/><use xlink:href="#B" class="E"/><path d="M266.667-225.36v6.4m10.666-6.4v6.4m21.334-6.4v6.4" class="C"/><use xlink:href="#B" x="21.333" class="E"/><path d="M288-225.36v6.4m10.666-6.4v6.4m21.334-6.4v6.4" class="C"/><path d="M298.666-225.361v3.2H320v-3.2z" class="E"/><path d="M309.333-225.36v6.4m10.667-6.4v6.4m21.334-6.4v6.4" class="C"/><use xlink:href="#B" x="64" class="E"/><path d="M330.667-225.36v6.4m10.666-6.4v6.4m21.334-6.4v6.4" class="C"/><use xlink:href="#B" x="85.333" class="E"/><path d="M352-225.36v6.4m10.666-6.4v6.4m21.334-6.4v6.4" class="C"/><path d="M362.666-225.361v3.2H384v-3.2z" class="E"/><path d="M373.333-225.36v6.4m10.667-6.4v6.4m21.334-6.4v6.4" class="C"/><use xlink:href="#B" x="128" class="E"/><path d="M394.667-225.36v6.4m10.666-6.4v6.4m21.334-6.4v6.4" class="C"/><use xlink:href="#B" x="149.333" class="E"/><path d="M416-225.36v6.4m10.666-6.4v6.4m21.334-6.4v6.4" class="C"/><path d="M426.666-225.361v3.2H448v-3.2z" class="E"/><path d="M437.333-225.36v6.4m10.667-6.4v6.4m21.334-6.4v6.4" class="C"/><use xlink:href="#B" x="192" class="E"/><path d="M458.667-225.36v6.4m10.666-6.4v6.4m21.334-6.4v6.4" class="C"/><use xlink:href="#B" x="213.333" class="E"/><path d="M480-225.36v6.4m10.666-6.4v6.4m21.334-6.4v6.4" class="C"/><path d="M490.666-225.361v3.2H512v-3.2z" class="E"/><path d="M501.333-225.36v6.4m10.667-6.4v6.4m21.334-6.4v6.4" class="C"/><use xlink:href="#B" x="256" class="E"/><path d="M522.667-225.36v6.4m10.666-6.4v6.4m21.334-6.4v6.4" class="C"/><use xlink:href="#B" x="277.333" class="E"/><path d="M544-225.36v6.4m10.666-6.4v6.4m21.334-6.4v6.4" class="C"/><path d="M554.666-225.361v3.2H576v-3.2z" class="E"/><path d="M565.333-225.36v6.4m10.667-6.4v6.4m21.334-6.4v6.4" class="C"/><use xlink:href="#B" x="320" class="E"/><path d="M586.667-225.36v6.4m10.666-6.4v6.4m21.334-6.4v6.4" class="C"/><use xlink:href="#B" x="341.333" class="E"/><path d="M608-225.36v6.4m10.666-6.4v6.4" class="C"/><path d="M618.666-225.361v3.2h10.667v-3.2z" class="E"/><path d="M629.333-225.36v6.4" class="C"/></g><g class="D"><g stroke="#696969" class="L"><circle cx="466.133" cy="-208.294" r="3.2"/><circle cx="487.467" cy="-208.294" r="3.2"/><circle cx="508.8" cy="-208.294" r="3.2"/><circle cx="530.133" cy="-208.294" r="3.2"/><circle cx="551.467" cy="-208.294" r="3.2"/><circle cx="572.8" cy="-208.294" r="3.2"/><circle cx="594.133" cy="-208.294" r="3.2"/><circle cx="434.133" cy="-208.294" r="3.2"/><circle cx="423.467" cy="-208.294" r="3.2"/><circle cx="402.133" cy="-208.294" r="3.2"/><circle cx="380.8" cy="-208.294" r="3.2"/><circle cx="295.467" cy="-208.294" r="3.2"/><circle cx="274.133" cy="-208.294" r="3.2"/><circle cx="252.8" cy="-208.294" r="3.2"/><circle cx="210.133" cy="-208.294" r="3.2"/><circle cx="316.8" cy="-208.294" r="3.2"/></g><path d="M440.386-197.628v-13.867H448v13.867z" class="B I"/></g><path d="M445.867-204.028v2.133" class="B C F"/><path d="M365.719-197.628v-13.867h7.614v13.867z" class="B D I"/><path d="M371.2-204.028v2.133" class="B C F"/><path d="M579.053-197.628v-13.867h7.614v13.867z" class="B D I"/><path d="M584.534-204.028v2.133" class="B C F"/><g transform="matrix(-1 0 0 1 1055.8528 -234.66666)" class="B"><use xlink:href="#C" class="D I"/><path d="M445.867 30.639v2.133" class="C F"/></g><g class="B"><path d="M195.053-201.894v-13.867h7.614v13.867z" class="D I"/><path d="M200.534-208.294v2.133" class="C F"/></g><g transform="matrix(-1 0 0 1 1262.7861 -241.06667)" class="B"><use xlink:href="#C" class="D H"/><path d="M445.867 30.639v2.133" class="C F"/></g><g transform="matrix(-1 0 0 1 1293.7195 -241.06667)" class="B"><use xlink:href="#C" class="D H"/><path d="M445.867 30.639v2.133" class="C F"/></g><g transform="matrix(-1 0 0 1 1311.8528 -241.06667)" class="B"><use xlink:href="#C" class="D H"/><path d="M445.867 30.639v2.133" class="C F"/></g><g transform="translate(0 1122.521)"><g class="B"><g class="C F N"><path d="M739.765-1568.007L607.44-1318.876m1.443.709l136.5-170.136m-133.936 168.787l87.988-74.177m108.444-374.397l57.194-39.313m.865.23l74.984 31.129"/><path d="M803.659-1766.477l-171.087 414.911m162.515-320.22l-159.955 327.957"/><path d="M791.518-1595.219l-160.226 250.875m151.954-174.957l-148.939 177.807m486.834 3.155l80.615 13.589 83.127-74.368"/><path d="M1128.683-1344.538l73.606 19.787 48.898-61.969"/><path d="M1132-1344.681l103.225-36.759m-194.848 43.754l240.218-60.416-240.407 55.702m-471.436-479.532l76.896 42.501m-76.896-41.434l-55.904 50.501m-213.963-8.901l59.296 29.168m-60.362-30.235l-43.637 38.235m-150.657 404.522l102.41-207.188m936.28 197.679l59.206 22.987 41.431-59.303"/><path d="M105.151-1335.653l149.473-405.625m376.622 398.756l141.103-119.01m-365.412 109.45l106.706-420.201"/><path d="M400.933-1352.523l96.116-323.969M402.4-1352.415l87.2-241.867m-87.467 243.201l77.333-177.067"/><path d="M396.533-1343.081l78.133-119.467m-371.199 121.6l142.4-314.133m-141.334 315.733L230.4-1566.015"/><path d="M104.533-1341.481l123.733-154.133m-121.599 154.666l118.4-91.733"/></g><path d="M298.033-1780.499l39.034 554.218m231.742-596.487l39.385 590.259m256.96-574.574l35.302 571.17m133.396-74.098l248.235-88.052" stroke-width="8.533" class="G"/><path d="M255.212-1741.328l103.719-7.148" class="G K"/><path d="M244.228-1653.277h1.889" stroke-width=".755" class="C"/><g class="G K"><path d="M244.767-1654.357l134.368-9.174m-147.858 99.832l174.301-11.602m-177 79.866l197.775-15.649"/><use xlink:href="#D"/><path d="M513.572-1770.281l133.933-8.967m-149.768 104.552l177.433-12.02m-185.14 92.798l208.028-14.57m-217.472 81.754l237.168-16.998m-242.834 83.373l257.674-19.697m75.278-285.195l132.479-11.602m-150.017 105.228l178.618-12.412m-185.903 92.817l202.631-16.459m-208.613 84.281l232.897-14.938m-242.834 78.247l256.055-19.427m164.048 116.105l14.3 38.853"/></g></g><path d="M298.033-1780.499l39.034 554.218" class="C G J O"/><path d="M118.933-1389.912h204.572" class="B G K"/><g class="C J G"><path d="M568.809-1822.768l39.385 590.259m256.96-574.574l35.302 571.17m133.396-74.098l248.235-88.052" class="O"/><path d="M1187.233-1363.411l14.3 38.853" class="D"/></g><path d="M255.212-1741.328l103.719-7.148m-114.164 94.119l134.368-9.174m-147.858 99.832l174.301-11.602m-177 79.866l197.775-15.649" class="D G J"/><use xlink:href="#D" class="D G J"/><path d="M206.438-1544.47l114.851 106.667" class="B G K"/><path d="M513.572-1770.281l133.933-8.967m-149.768 104.552l177.433-12.02m-185.14 92.798l208.028-14.57m-217.472 81.754l237.168-16.998m-242.834 83.373l257.674-19.697m75.278-285.195l132.479-11.602m-150.017 105.228l178.618-12.412m-185.903 92.817l202.631-16.459m-208.613 84.281l232.897-14.938m-242.834 78.247l256.055-19.427m-816.747-64.954l114.851 106.667m-202.356 47.891h204.572" class="D J G"/></g><g class="B"><g class="F"><g transform="translate(0 -933.543)" class="C N"><path d="M649.788 276.586L387.261 728.673"/><path d="M378.876 734.517l315.242-225.342"/><path d="M727.904 554.713L382.189 729.476m2.589.319l298.828-74.048"/><path d="M613.867 732.716L944 279.383m-325.333 452.8l351.467-361.6M630.138 747.221L986.345 447.19"/><path d="M1008.884 519.077L613.335 737.358m1.736.784l409.05-160.071M359.776 306.409L106.349 715.211m271.529-323.572L108.612 717.474"/><path d="M409.297 465.082L103.332 718.228"/><path d="M426.058 556.485L103.332 718.228"/><path d="M427.422 652.062l-323.335 63.903m196.11-409.148l287.649 212.508M306.298 392.906l286.074 190.499m6.224 116.557L313.773 480.075M106.667 714.583l188.685-440.028 274.285-37.131 297.048 12.203c137.559 128.014 297.611 274.079 418.458 407.659M568.597 274.669l313.039 245.316M578.817 373.74l306.172 208.233"/><path d="M868.267 284.716l410.994 365.837M872.203 378.72l403.239 269.322M881.067 455.383l354.476 216.632M875.755 456.559l266.234 250.722M582.914 449.933l315.239 264.766m-716.038 13.66l-65.436-63.018m268.784 65.638L206.23 510.795m785.605 145.208l-87.493 64.111m-3.771-.377l122.942-100.315"/><path d="M1048.404 572.658L903.211 719.359m163.672-171.214l-170.837 173.1m-506.1 8.674l47.518-49.78"/><path d="M386.945 729.076l293.369-283.419"/><path d="M388.077 730.961l276.021-363.369"/></g><g fill="#f5f5f5"><path d="M940.659 515.459l48.788 141.315 110.564 8.665z" transform="translate(0 -933.543)"/><path d="M946.171 494.414l75.251 125.744 144.112 7.633z" transform="translate(0 -933.543)"/><path d="M976.462 447.539l71.72 125.429 158.442 27.998zM610.325 306.531l64.33 154.35 140.622 7.565z" transform="translate(0 -933.543)"/><path d="M631.603 409.088l78.9 166.072 151.881-9.438zm344.037-31.106l90.896 170.919 139.585 34.902z" transform="translate(0 -933.543)"/><path d="M640.872 498.146L682.175 668.6l174.859 8.617zM353.026 342.724l45.141 133.099 139.159 2.394z" transform="translate(0 -933.543)"/><path d="M355.67 424.715l70.031 150.957 148.919-6.768z" transform="translate(0 -933.543)"/><path d="M374.858 524.18l61.661 155.519 130.452-5.829zm-170.591-11.464L117.522 663.14l205.411-.345-3.467-43.78z" transform="translate(0 -933.543)"/></g></g><g class="D"><g class="E"><use xlink:href="#E"/><use xlink:href="#E" x="64"/><use xlink:href="#E" x="117.333"/></g><use xlink:href="#F" class="H"/><g class="E"><use xlink:href="#E" x="181.333"/><use xlink:href="#E" x="384"/><use xlink:href="#E" x="458.667"/></g><use xlink:href="#F" x="387.933" y="0.133" class="H"/><use xlink:href="#E" x="181.333" class="E"/><use xlink:href="#F" x="121.267" y="0.133" class="H"/></g><g transform="translate(0 1122.521)"><g class="M"><path d="M157.175-1266.815l.386 56.879 33.421.191.041-47.03z" fill="#4d4d4d"/><path d="M157.326-1288.148l-.056 21.333 33.847 9.77.068-11.093z" class="C"/></g><path d="M101.333-1339.348l4.267 8.533c203.679 25.15 802.201 5.57 1004.205-10.667l1.603-8.533c-101.509 8.659-193.607 15.117-310.741 18-62.828 2.505-471.462 13.711-699.333-7.333z" fill="olive" class="D"/><g class="M"><path d="M106.667-1330.815l10.667 21.333 100.085 62.763c1.553 11.322 6.582 19.37-.857 33-3.362 6.16-10.418 5.076-26.694 5.571-9.6-1.067-11.413 1.921-9.848 5.267 273.584 7.636 821.638-.701 821.638-.701 48.163-6.83 42.082-49.477 65.002-74.97 32.132-35.74 68.899-37.99 74.675-63.862l-32 11.6v-10.667c-202.667 21.333-789.333 32-1002.667 10.667z" fill="#4d4d4d"/><path d="M167.816-1277.824l49.602 31.105c1.553 11.322 6.582 19.37-.857 33-3.362 6.16-10.418 5.076-26.694 5.571-9.6-1.067-11.413 1.921-9.848 5.267 273.584 7.636 821.638-.701 821.638-.701 48.163-6.83 42.082-49.477 65.002-74.97z" fill="#6c0000"/></g></g><g class="D E"><path d="M207.316-95.67c.082-2.516.546-5.491 1.067-8.533 1.025-.702 2.086-.808 3.2 0 .944 2.67.986 6.153 1.067 9.6-.346 5.991-5.949 5.673-5.333-1.067z"/><path d="M193.467-107.982l6.4-4.267h16l4.267 3.2v3.2l-4.267 2.133h-16z"/><path d="M200.934-112.248v8.533h14.933l4.267-2.133v-3.2l-4.267-3.2z"/><path d="M207.334-119.715c.082 2.516.546 5.491 1.067 8.533 1.025.702 2.086.808 3.2 0 .944-2.67.986-6.153 1.067-9.6-.346-5.991-5.949-5.673-5.333 1.067z"/></g><path d="M106.667-1330.815l10.667 21.333c203.179 18.773 785.224 9.878 987.733.086 15.604-7.517 33.145-18.103 36.267-32.086l-32 10.666v-10.667c-202.667 21.333-789.333 32-1002.667 10.667zm906.666-4.266c5.333-6.4 14.376-10.304 21.333-9.6v8.533z" transform="translate(0 1122.521)" fill="#333" class="M"/></g><g transform="translate(0 -933.543)" fill="#4a7474" stroke="#272727" class="D"><use xlink:href="#G"/><use xlink:href="#G" x="-21.333"/><use xlink:href="#G" x="-42.666"/><use xlink:href="#G" x="-64"/><use xlink:href="#G" x="-85.333"/><use xlink:href="#G" x="-106.666"/><use xlink:href="#G" x="-128"/><use xlink:href="#G" x="-149.333"/><use xlink:href="#G" x="-170.666"/><use xlink:href="#G" x="-192"/><use xlink:href="#G" x="-213.333"/><use xlink:href="#G" x="-234.666"/><use xlink:href="#G" x="-256"/><use xlink:href="#G" x="-277.333"/><use xlink:href="#G" x="-298.666"/><use xlink:href="#G" x="-341.333" y="-1.067"/><use xlink:href="#G" x="-384" y="-2.133"/><use xlink:href="#G" x="-405.333" y="-2.133"/><use xlink:href="#G" x="-425.6" y="-3.2"/><use xlink:href="#G" x="-468.266" y="-5.333"/><use xlink:href="#G" x="-490.666" y="-6.4"/><use xlink:href="#G" x="-532.266" y="-8.533"/><use xlink:href="#G" x="-553.6" y="-10.667"/><use xlink:href="#G" x="-510.933" y="-7.467"/><use xlink:href="#G" x="235.734" y="-7.467"/><use xlink:href="#G" x="257.067" y="-8.533"/><use xlink:href="#G" x="214.4" y="-7.467"/><use xlink:href="#G" x="21.334"/><use xlink:href="#G" x="42.667" y="-1.067"/><use xlink:href="#G" x="64" y="-1.067"/><use xlink:href="#G" x="86.4" y="-2.133"/><use xlink:href="#G" x="107.734" y="-3.2"/><use xlink:href="#G" x="128" y="-4.267"/><use xlink:href="#G" x="149.334" y="-5.333"/><use xlink:href="#G" x="171.734" y="-6.4"/><use xlink:href="#G" x="-448" y="-4.267"/><use xlink:href="#G" x="-318.933"/><use xlink:href="#G" y="21.333"/><use xlink:href="#G" x="-21.333" y="21.333"/><use xlink:href="#G" x="-42.666" y="21.333"/><use xlink:href="#G" x="-64" y="21.333"/><use xlink:href="#G" x="-85.333" y="21.333"/><use xlink:href="#G" x="-106.666" y="21.333"/><use xlink:href="#G" x="-128" y="21.333"/><use xlink:href="#G" x="-149.333" y="21.333"/><use xlink:href="#G" x="-170.666" y="21.333"/><use xlink:href="#G" x="-192" y="21.333"/><use xlink:href="#G" x="-213.333" y="21.333"/><use xlink:href="#G" x="-234.666" y="21.333"/><use xlink:href="#G" x="-256" y="21.333"/><use xlink:href="#G" x="-277.333" y="21.333"/><use xlink:href="#G" x="-298.666" y="21.333"/><use xlink:href="#G" x="-341.333" y="20.267"/><use xlink:href="#G" x="-384" y="19.2"/><use xlink:href="#G" x="-405.333" y="19.2"/><use xlink:href="#G" x="-425.6" y="18.133"/><use xlink:href="#G" x="-468.266" y="16"/><use xlink:href="#G" x="-490.666" y="14.933"/><use xlink:href="#G" x="21.334" y="21.333"/><use xlink:href="#G" x="42.667" y="20.267"/><use xlink:href="#G" x="64" y="20.267"/><use xlink:href="#G" x="86.4" y="19.2"/><use xlink:href="#G" x="107.734" y="18.133"/><use xlink:href="#G" x="128" y="17.067"/><use xlink:href="#G" x="149.334" y="16"/><use xlink:href="#G" x="171.734" y="14.933"/><use xlink:href="#G" x="-448" y="17.067"/><use xlink:href="#G" x="-318.933" y="21.333"/><use xlink:href="#G" x="193.067" y="14.933"/><use xlink:href="#G" x="193.067" y="-6.4"/><use xlink:href="#G" x="-362.666" y="-1.067"/><use xlink:href="#G" x="-362.666" y="20.267"/></g></g><defs ><path id="B" d="M256-225.361v3.2h21.333v-3.2z"/><path id="C" d="M440.386 37.039V23.173H448v13.867z"/><path id="D" d="M226.15-1431.219c3.507 0 210.456-14.57 210.456-14.57"/><path id="E" d="M419.2-185.864v-53.333h3.2v53.333"/><path id="F" d="M404.6-230.744l9.867 11.897 36.672.983 42.262-1.349 6.732-11.451z"/><path id="G" d="M702.933 748.716a3.2 3.2 0 0 1-6.4 0 3.2 3.2 0 0 1 6.4 0z"/></defs></svg>