<svg xmlns="http://www.w3.org/2000/svg" width="135.254" height="127.424" viewBox="0 0 173.125 163.102" xmlns:v="https://vecta.io/nano"><path d="M153.397 4.567l14.835 16.341-2.82 2.555-14.823-16.341zm-3.808 3.302l14.823 16.354-2.832 2.567-14.823-16.354z" fill="#5b4037"/><path d="M163.822 0l9.304 9.737-27.887 24.705-7.351-7.701z" fill="#b5612c"/><path d="M94.78 125.67a17.944 17.944 0 0 1 24.922-25.802l17.281-17.884c6.917-6.279 6.496-17.992-.94-26.163l-21.041-23.174c-7.424-8.195-19.065-9.749-25.946-3.471L69.545 44.662a17.932 17.932 0 0 1-27.525 22.97l-.554-.675-26.874 21.355c.181.169.362.325.53.518 7.906 8.725 7.026 22.403-1.988 30.598a22.861 22.861 0 0 1-6.134 3.953l29.393 32.394c7.436 8.195 19.053 9.749 25.958 3.483z" fill="#e88f22"/><path d="M15.11 88.83c-.169-.193-.349-.349-.53-.518l-9.665 7.665c-6.905 6.279-6.484 17.992.952 26.163l1.121 1.253c2.181-.964 4.266-2.266 6.134-3.953 9.026-8.207 9.906-21.885 1.988-30.61zm76.573-4.411L82.62 74.44l66.053-58.051 7.17 7.894zM80.632 98.543l6.134 3.29-18.27 32.454-4.833-2.603zM66.568 83.298l-2.687-6.423-34.057 15.04 2.109 5.062zm-26.452 43.384l-4.543-5.001-16.57 15.992 3.579 3.953z" fill="#5b4037"/></svg>