<svg width="127.333" height="140" xmlns="http://www.w3.org/2000/svg"><defs><clipPath clipPathUnits="userSpaceOnUse" id="prefix__a"><path d="M0 660h660V0H0z"/></clipPath></defs><g clip-path="url(#prefix__a)" transform="matrix(.25717 0 0 -.25717 -19.875 156.482)"><path d="M310.707 64.092c128.566 0 233.424 4.86 233.424 10.819 0 5.959-104.858 10.819-233.424 10.819-128.563 0-233.423-4.86-233.423-10.82 0-5.957 104.86-10.818 233.423-10.818" fill="#bf8e5e" fill-rule="evenodd"/><path d="M571.082 121a18.483 18.483 0 01-13.529 5.49c-5.28-.101-10-2.4-13.309-6.007a18.499 18.499 0 0113.531-5.49c5.279.102 10 2.401 13.307 6.007m-4.499-29.487a23.166 23.166 0 00-16.988 6.803 23.176 23.176 0 00-6.796 16.995c6.133.144 12.31-2.122 16.989-6.804a23.175 23.175 0 006.795-16.994" fill="#cfe35d" fill-rule="evenodd"/><path d="M490.594 226.068c42.32 0 76.629-34.309 76.629-76.629 0-42.322-34.31-76.63-76.63-76.63H342.09c-28.264 0-51.176 22.91-51.176 51.175 0 20.71 12.304 38.545 29.999 46.598a93.511 93.511 0 00-.156 5.312c0 50.663 41.069 91.733 91.734 91.733 32.15 0 60.432-16.54 76.812-41.575.43.007.859.016 1.292.016" fill="#94ab13" fill-rule="evenodd"/><path d="M538.725 209.063c17.38-14.05 28.498-35.535 28.498-59.623 0-42.322-34.31-76.63-76.63-76.63H342.09c-21.375 0-39.685 13.106-47.343 31.717 9.34-9.994 22.636-16.244 37.396-16.244 28.262 0 51.173 22.912 51.173 51.174a50.983 50.983 0 01-3.833 19.457c8.547-9.146 13.78-21.427 13.78-34.93a51.53 51.53 0 00-.968-9.942c49.44 1.4 89.088 41.914 89.088 91.692 0 14.191-3.223 27.63-8.975 39.624 19.484-16.822 31.817-41.703 31.817-69.464 0-35.496-20.16-66.28-49.655-81.532a76.705 76.705 0 0119.077-2.394c42.322 0 76.63 34.306 76.63 76.629 0 14.855-4.233 28.722-11.551 40.465" fill="#82970a" fill-rule="evenodd"/><path d="M340.315 72.81c-2.57 26.746-.84 52.594 7.502 77.067-8.04-14.834-14.357-31.88-16.027-54.902-4.207 22.166-6.024 44.33-4.775 66.496-6.09-19.781-9.596-39.78-10.23-60.016-.814 21.687-3.165 41.397-7.16 58.994-6.164-21.686-8.331-43.903-7.673-66.496-1.297 19.489-3.99 37.118-9.38 51.15 2.292-19.573-.913-39.876-5.453-60.36-.95 21.188-4.04 39.647-15.006 48.085 4.298-14.746 3.382-28.794.852-42.627-2.676 15.172-6.466 28.827-14.151 37.17 6.564-15.413 7.848-34.592 8.029-54.561z" fill="#bad526" fill-rule="evenodd"/><path d="M315.938 222.642V80.109h-25.89v142.533c0 21.872-9.91 39.713-22.063 39.713h-.36v75.726h70.736v-75.726h-.36c-12.151 0-22.062-17.841-22.062-39.713" fill="#663c12" fill-rule="evenodd"/><path d="M289.203 233.527c-2.642 16.608-11.162 28.827-21.218 28.827h-.36v75.727h70.736v-75.727h-.36c-10.056 0-18.576-12.219-21.218-28.827-4.554-.332-9.15-.508-13.79-.508-4.639 0-9.235.176-13.79.508" fill="#4d2b08" fill-rule="evenodd"/><path d="M126.876 489.893c9.988-1.29 19.451-6.509 25.881-15.27 6.428-8.76 8.565-19.355 6.798-29.27-9.989 1.29-19.452 6.508-25.881 15.27-6.429 8.762-8.566 19.354-6.798 29.27m-42.612-44.196c7.424-10.212 18.853-17.483 32.354-19.287 13.501-1.803 26.44 2.212 36.283 10.116-7.424 10.211-18.852 17.484-32.354 19.287-13.5 1.804-26.438-2.213-36.283-10.116M418.908 472.93c8.67-5.129 19.342-6.835 29.798-3.88 10.458 2.953 18.66 9.988 23.367 18.892-8.669 5.128-19.34 6.836-29.798 3.882-10.459-2.953-18.66-9.99-23.367-18.895" fill="#cfe35d" fill-rule="evenodd"/><path d="M302.994 256.322c90.292.001 163.936 73.645 163.936 163.938 0 90.292-73.644 163.937-163.936 163.937-90.294 0-163.937-73.645-163.937-163.937 0-90.293 73.643-163.938 163.937-163.938" fill="#94ab13" fill-rule="evenodd"/><path d="M413.179 541.646c33.019-29.99 53.75-73.267 53.75-121.386 0-90.54-73.395-163.937-163.936-163.938-71.937 0-133.045 46.337-155.124 110.788 29.11-26.437 67.768-42.55 110.188-42.55 90.54 0 163.937 73.398 163.937 163.939 0 18.602-3.106 36.478-8.815 53.147" fill="#82970a" fill-rule="evenodd"/><path d="M189.875 558.479c-.06-13.845 5.328-27.687 16.094-38.041 10.767-10.354 24.811-15.194 38.641-14.593.06 13.844-5.327 27.688-16.092 38.041-10.769 10.353-24.812 15.194-38.643 14.592m67.974 50.01c12.558-11.975 20.385-28.868 20.385-47.593 0-18.722-7.827-35.618-20.385-47.59-12.561 11.973-20.39 28.869-20.39 47.59 0 18.725 7.829 35.618 20.39 47.592M369.62 558.4c-6.696-7.524-10.42-17.669-9.53-28.5.888-10.83 6.22-20.23 14.053-26.559 6.697 7.523 10.422 17.667 9.532 28.498-.89 10.831-6.22 20.231-14.055 26.56m61.15-5.437c1.09-12.577-2.774-25.562-11.786-35.775-9.01-10.214-21.414-15.663-34.029-16.148-1.089 12.576 2.773 25.561 11.786 35.775 9.013 10.213 21.414 15.663 34.03 16.148M461.998 347.78c-7.089 7.155-16.978 11.51-27.844 11.3-10.865-.21-20.581-4.94-27.389-12.365 7.087-7.154 16.98-11.507 27.845-11.297 10.865.21 20.581 4.938 27.388 12.362m-9.262-60.69c-12.62-.296-25.336 4.371-34.965 14.006-9.626 9.636-14.287 22.354-13.982 34.975 12.622.296 25.337-4.37 34.966-14.005 9.629-9.636 14.289-22.355 13.981-34.976M184.383 287.89c3.904 9.283 11.457 17.015 21.615 20.877 10.157 3.86 20.938 3.099 30.023-1.247-3.905-9.282-11.456-17.014-21.615-20.875-10.156-3.861-20.936-3.1-30.023 1.246m31.245-52.848c11.819 4.436 21.875 13.514 27.208 26.046 5.338 12.534 4.914 26.073-.081 37.666-11.818-4.434-21.874-13.511-27.211-26.045-5.336-12.532-4.911-26.071.084-37.667M193.334 382.983c9.086-4.346 19.867-5.107 30.022-1.246 10.159 3.86 17.711 11.592 21.618 20.875-9.086 4.345-19.868 5.108-30.025 1.247-10.159-3.862-17.709-11.593-21.615-20.876M289.054 287.494c9.665 8.12 16.118 20.032 16.97 33.627.853 13.594-4.061 26.216-12.634 35.483-9.665-8.123-16.118-20.032-16.972-33.627-.852-13.594 4.06-26.217 12.636-35.483M380.518 421.04c7.29-6.948 17.304-11.015 28.158-10.494 10.855.523 20.432 5.53 27.023 13.146-7.293 6.948-17.304 11.015-28.16 10.493-10.853-.521-20.428-5.528-27.021-13.144M289.81 473.688c8.56-3.79 15.61-10.94 19.023-20.443 3.411-9.506 2.517-19.508-1.677-27.875-8.559 3.789-15.612 10.939-19.024 20.444-3.41 9.504-2.516 19.507 1.678 27.874m56.19 9.875c4.011-11.024 3.678-23.608-1.944-34.95-5.625-11.34-15.44-19.22-26.644-22.701-4.01 11.026-3.678 23.609 1.946 34.949 5.622 11.34 15.437 19.223 26.642 22.702M266.316 72.81c2.57 26.746.84 52.594-7.503 77.067 8.04-14.834 14.356-31.88 16.028-54.902 4.207 22.166 6.022 44.33 4.775 66.496 6.09-19.781 9.595-39.78 10.23-60.016.814 21.687 3.163 41.397 7.16 58.994 6.162-21.686 8.331-43.903 7.672-66.496 1.298 19.489 3.99 37.118 9.38 51.15-2.292-19.573.912-39.876 5.454-60.36.947 21.188 4.04 39.647 15.006 48.085-4.299-14.746-3.382-28.794-.853-42.627 2.676 15.172 6.467 28.827 14.151 37.17-6.564-15.413-7.847-34.592-8.029-54.561zM352.651 252.755a23.204 23.204 0 017.14-16.873 23.187 23.187 0 0117.138-6.472 23.196 23.196 0 01-7.138 16.872 23.193 23.193 0 01-17.14 6.473m30.148 22.182c5.573-5.311 9.044-12.805 9.044-21.111 0-8.303-3.47-15.797-9.044-21.108-5.57 5.31-9.043 12.805-9.043 21.108 0 8.306 3.473 15.8 9.043 21.11M389.999 113.557a21.787 21.787 0 0012.374 11.95 21.773 21.773 0 0017.19-.713 21.793 21.793 0 00-12.375-11.951 21.779 21.779 0 00-17.189.714M407.887 83.3c6.767 2.538 12.522 7.735 15.578 14.91 3.055 7.176 2.812 14.927-.046 21.566-6.769-2.54-12.524-7.738-15.579-14.911-3.056-7.175-2.814-14.928.047-21.565M486.758 268.853c-6.696-7.522-10.421-17.667-9.531-28.5.89-10.827 6.22-20.23 14.054-26.557 6.697 7.523 10.423 17.666 9.532 28.498-.89 10.83-6.22 20.23-14.055 26.559m61.15-5.437c1.089-12.576-2.774-25.56-11.786-35.774-9.011-10.214-21.413-15.663-34.03-16.148-1.087 12.576 2.774 25.56 11.787 35.775 9.013 10.214 21.415 15.662 34.029 16.147M501.69 111.526a24.263 24.263 0 017.494-17.64 24.273 24.273 0 0117.943-6.746c.017 6.424-2.493 12.845-7.497 17.641-5.003 4.797-11.523 7.033-17.94 6.745M360.6 170.17c7.61-3.64 16.64-4.276 25.149-1.042 8.507 3.234 14.83 9.709 18.104 17.484-7.61 3.64-16.641 4.278-25.148 1.043-8.507-3.234-14.832-9.71-18.104-17.484M532.347 168.781c7.952-2.516 16.878-1.897 24.762 2.44 7.883 4.336 13.184 11.546 15.315 19.608-7.951 2.514-16.877 1.897-24.761-2.44-7.882-4.337-13.184-11.546-15.316-19.608M434.543 182.738a19.133 19.133 0 0010.298-11.068 19.15 19.15 0 00-.906-15.09 19.14 19.14 0 00-10.301 11.067 19.145 19.145 0 00.909 15.091m30.423 5.348c2.17-5.969 1.99-12.783-1.055-18.923a23.986 23.986 0 00-14.424-12.29 23.993 23.993 0 001.053 18.922c3.045 6.137 8.359 10.405 14.426 12.291" fill="#cfe35d" fill-rule="evenodd"/></g></svg>