<svg xml:space="preserve" width="365.09" height="140mm" viewBox="0 0 96.597 140" id="prefix__svg2" version="1.1" xmlns="http://www.w3.org/2000/svg" clip-rule="evenodd" fill-rule="evenodd" image-rendering="optimizeQuality" shape-rendering="geometricPrecision" text-rendering="geometricPrecision"><defs id="prefix__defs4"><style type="text/css" id="style6">.prefix__str1{stroke:#1f1a17;stroke-width:.0762}.prefix__fil7{fill:#000}.prefix__fil11{fill:#9ff}.prefix__fil6{fill:#fcc}.prefix__fil9{fill:#ffdbdb}.prefix__fil3{fill:#ffe5e5}.prefix__fil5{fill:#fff}</style></defs><g id="prefix___245149584" transform="matrix(1.09888 0 0 1.09888 110.77 5.178)"><path d="M-63.948 112.605h15.181a11.99 11.99 0 002.365 4.614c4.237 5.128 11.876 5.855 17.005 1.617 3.82-3.156 5.196-8.2 3.9-12.686h1.714l-1.406-3.75c.501-.715.654-1.617.437-2.449a8.147 8.147 0 007.811-1.426c3.456-2.855 3.945-8.003 1.09-11.458a8.087 8.087 0 00-3.907-2.597l2.994-2.474-19.779-16.613-1.425-3.291c3.768-3.513 6.95-7.902 8.805-12.818.539 1.124 1.263 1.88 2.123 2.092 2.355.581 4.86-3.138 5.575-8.276.715-5.14-.623-9.804-2.979-10.385-1.176-.29-2.39.493-3.4 1.988C-29.956 21.831-39.687 11.65-51.95 9.496c2.193-2.676-.617-8.532-6.836-13.338 3.164 5.927 2.586 10.065 1.045 12.933-13.884.465-25.388 11.135-27.917 25.08-.925-1.151-1.985-1.72-3.015-1.466-2.356.58-3.694 5.246-2.979 10.385.715 5.138 3.22 8.857 5.575 8.276.72-.177 1.346-.737 1.847-1.576 1.99 4.987 5.34 9.41 9.258 12.896l-.587 1.357-21.375 17.953 2.994 2.474a8.087 8.087 0 00-3.907 2.597c-2.856 3.455-2.367 8.603 1.09 11.459 2.598 2.148 6.154 2.403 8.973.928a2.972 2.972 0 00.279 2.976l-1.395 3.72h1.683c-1.297 4.487.08 9.53 3.9 12.686 5.128 4.238 12.767 3.512 17.004-1.617a11.989 11.989 0 002.365-4.614z" id="prefix___245151024" fill="#191919" stroke="#1f1a17" stroke-width="2.2"/><g id="prefix__g148"><path class="prefix__fil11 prefix__str1" id="prefix___245150976" fill="#9ff" stroke="#1f1a17" stroke-width=".076" d="M-42.376 112.605l14.383-8.42h-56.696l14.382 8.42z"/><circle cy="0" cx="0" r="11.699" transform="matrix(-.53634 .4432 .4432 .53634 -22.125 92.251)" class="prefix__fil3 prefix__str1" id="prefix___245150928" fill="#ffe5e5" stroke="#1f1a17" stroke-width=".076"/><path class="prefix__fil11 prefix__str1" id="prefix___245150880" fill="#9ff" stroke="#1f1a17" stroke-width=".076" d="M-47.809 69.419l14.601 26.165 16.444-13.588-22.944-19.272z"/><circle cy="0" cx="0" r="11.699" transform="rotate(39.568 -174.017 -81.162) scale(.69577)" class="prefix__fil3 prefix__str1" id="prefix___245150832" fill="#ffe5e5" stroke="#1f1a17" stroke-width=".076"/><path class="prefix__fil11 prefix__str1" id="prefix___245150784" fill="#9ff" stroke="#1f1a17" stroke-width=".076" d="M-65.889 69.419l-14.602 26.165-16.443-13.588 22.944-19.272z"/><path class="prefix__str1" id="prefix___245150736" fill="#696" stroke="#1f1a17" stroke-width=".076" d="M-40.302 62.084l16.519 44.066H-88.9l16.519-44.066z"/><path class="prefix__fil11 prefix__str1" id="prefix___245150688" fill="#9ff" stroke="#1f1a17" stroke-width=".076" d="M-49.013 66.013l7.547 36.207h-29.751l7.547-36.207z"/><path class="prefix__str1" id="prefix___245150640" fill="#3c9" stroke="#1f1a17" stroke-width=".076" d="M-41.225 54.565l15.567 35.966h-61.366l15.567-35.966z"/><path class="prefix__str1" id="prefix___245150592" fill="#6fc" stroke="#1f1a17" stroke-width=".076" d="M-43.902 58.235l12.81 28.627h-50.499l12.81-28.627z"/><ellipse cy="0" cx="0" ry="10.015" rx="6.109" transform="matrix(-.70013 -.17248 -.12962 .93165 -25.742 42.036)" class="prefix__fil3 prefix__str1" id="prefix___245150544" fill="#ffe5e5" stroke="#1f1a17" stroke-width=".076"/><ellipse cy="0" cx="0" ry="10.015" rx="6.109" transform="matrix(-.53803 -.13255 -.0996 .71594 -26.245 43.093)" class="prefix__fil6 prefix__str1" id="prefix___245150496" fill="#fcc" stroke="#1f1a17" stroke-width=".076"/><ellipse cy="0" cx="0" ry="10.015" rx="6.109" transform="matrix(.70013 -.17248 .12962 .93165 -87.375 42.036)" class="prefix__fil3 prefix__str1" id="prefix___245150448" fill="#ffe5e5" stroke="#1f1a17" stroke-width=".076"/><ellipse cy="0" cx="0" ry="10.015" rx="6.109" transform="matrix(.53803 -.13255 .0996 .71594 -86.872 43.093)" class="prefix__fil6 prefix__str1" id="prefix___245150400" fill="#fcc" stroke="#1f1a17" stroke-width=".076"/><path d="M-56.796 9.073c16.183 0 29.382 13.87 29.382 30.874 0 17.005-17.409 30.874-29.382 30.874-11.973 0-29.382-13.869-29.382-30.873 0-17.005 13.199-30.875 29.382-30.875z" class="prefix__fil3 prefix__str1" id="prefix___245150352" fill="#ffe5e5" stroke="#1f1a17" stroke-width=".076"/><path d="M-56.522 37.449c-1.693 3.29-5.054 5.54-8.909 5.54-5.55 0-10.077-4.664-10.077-10.38 0-5.718 4.527-10.38 10.077-10.38 3.855 0 7.215 2.25 8.91 5.54 1.693-3.29 5.053-5.54 8.908-5.54 5.55 0 10.077 4.662 10.077 10.38 0 5.716-4.527 10.38-10.077 10.38-3.855 0-7.215-2.25-8.909-5.54z" class="prefix__fil5 prefix__str1" id="prefix___245150304" fill="#fff" stroke="#1f1a17" stroke-width=".076"/><ellipse ry="2.804" rx="4.206" cy="37.939" cx="-48.402" class="prefix__fil7 prefix__str1" id="prefix___245150256" fill="#000" stroke="#1f1a17" stroke-width=".076"/><ellipse ry="2.804" rx="4.206" cy="37.939" cx="-63.092" class="prefix__fil7 prefix__str1" id="prefix___245150208" fill="#000" stroke="#1f1a17" stroke-width=".076"/><path d="M-55.762 48.688c1.472 0 2.672 1.2 2.672 2.672 0 1.472-1.2 2.672-2.672 2.672a2.677 2.677 0 01-2.67-2.776c.054.994 1.034 1.959 2.264 1.959a2.276 2.276 0 002.261-2.261c0-1.215-.965-2.21-1.96-2.264a2.58 2.58 0 01.105-.002z" class="prefix__fil6 prefix__str1" id="prefix___245150160" fill="#fcc" stroke="#1f1a17" stroke-width=".076"/><ellipse ry="2.771" rx="5.571" cy="64.366" cx="-56.257" class="prefix__str1" id="prefix___245150112" fill="red" stroke="#1f1a17" stroke-width=".076"/><ellipse ry="5.613" rx="6.876" cy="54.787" cx="-71.919" class="prefix__fil9" id="prefix___245150040" fill="#ffdbdb"/><ellipse ry="5.613" rx="6.876" cy="54.787" cx="-41.325" class="prefix__fil9" id="prefix___245149968" fill="#ffdbdb"/><path d="M-75.82 31.521c0-5.717 5.475-10.38 10.265-10.38 4.79 0 7.35 2.25 9.075 5.54 1.725-3.29 5.148-5.54 9.075-5.54 5.654 0 10.265 4.663 10.265 10.38z" class="prefix__fil3 prefix__str1" id="prefix___245149920" fill="#ffe5e5" stroke="#1f1a17" stroke-width=".076"/><circle cy="0" cx="0" r="11.699" transform="matrix(.7959 .65768 -.65768 .7959 -75.623 109.525)" class="prefix__fil3 prefix__str1" id="prefix___245149872" fill="#ffe5e5" stroke="#1f1a17" stroke-width=".076"/><path d="M-64.902 95.752a4.666 4.666 0 01.623 6.556 4.666 4.666 0 01-6.555.624 4.621 4.621 0 01-1.34-1.821 3.68 3.68 0 01-5.367.753 3.648 3.648 0 01-.795-.92 3.359 3.359 0 01-4.347 1.454 2.962 2.962 0 01-4.305.584 2.962 2.962 0 01-.396-4.16 2.963 2.963 0 013.1-.957 3.356 3.356 0 015.764-.403 3.68 3.68 0 015.659-1.26c.352.292.637.636.85 1.013a4.666 4.666 0 017.109-1.463z" class="prefix__fil3 prefix__str1" id="prefix___245149824" fill="#ffe5e5" stroke="#1f1a17" stroke-width=".076"/><circle cy="0" cx="0" r="11.699" transform="matrix(-.7959 .65768 .65768 .7959 -37.091 109.525)" class="prefix__fil3 prefix__str1" id="prefix___245149776" fill="#ffe5e5" stroke="#1f1a17" stroke-width=".076"/><path d="M-47.812 95.752a4.666 4.666 0 00-.624 6.556 4.666 4.666 0 006.556.624 4.621 4.621 0 001.339-1.821 3.68 3.68 0 005.367.753c.323-.267.589-.58.795-.92a3.359 3.359 0 004.348 1.454 2.962 2.962 0 004.305.584 2.962 2.962 0 00.396-4.16 2.963 2.963 0 00-3.1-.957 3.356 3.356 0 00-5.764-.403 3.68 3.68 0 00-5.659-1.26 3.647 3.647 0 00-.85 1.013 4.666 4.666 0 00-7.108-1.463z" class="prefix__fil3 prefix__str1" id="prefix___245149728" fill="#ffe5e5" stroke="#1f1a17" stroke-width=".076"/><path d="M-53.587 64.18h1.648c.257 0 .468.27.468.601v1.001c-.59.49-1.475.884-2.532 1.118a.736.736 0 01-.051-.273v-1.846c0-.33.21-.601.467-.601z" class="prefix__fil5 prefix__str1" id="prefix___245149680" fill="#fff" stroke="#1f1a17" stroke-width=".076"/><path d="M-58.786-3.841c6.856 5.297 9.569 11.87 6.004 14.055-4.096 2.51 6.135 4.84-6.004 5.013-12.14.174 8.974-2.262 0-19.069z" class="prefix__str1" id="prefix___245149632" fill="#fc9" stroke="#1f1a17" stroke-width=".076"/></g></g></svg>