<?xml version="1.0" encoding="UTF-8" standalone="no"?>
<!-- Creator: CorelDRAW -->

<svg
   xml:space="preserve"
   width="96.596687mm"
   height="140mm"
   style="clip-rule:evenodd;fill-rule:evenodd;image-rendering:optimizeQuality;shape-rendering:geometricPrecision;text-rendering:geometricPrecision"
   viewBox="0 0 96.596687 140"
   id="svg2"
   version="1.1"
   inkscape:version="1.2.2 (732a01da63, 2022-12-09)"
   sodipodi:docname="1527808913.svg"
   xmlns:inkscape="http://www.inkscape.org/namespaces/inkscape"
   xmlns:sodipodi="http://sodipodi.sourceforge.net/DTD/sodipodi-0.dtd"
   xmlns="http://www.w3.org/2000/svg"
   xmlns:svg="http://www.w3.org/2000/svg"
   xmlns:rdf="http://www.w3.org/1999/02/22-rdf-syntax-ns#"
   xmlns:cc="http://creativecommons.org/ns#"
   xmlns:dc="http://purl.org/dc/elements/1.1/"><metadata
     id="metadata216"><rdf:RDF><cc:Work
         rdf:about=""><dc:format>image/svg+xml</dc:format><dc:type
           rdf:resource="http://purl.org/dc/dcmitype/StillImage" /><dc:title /></cc:Work></rdf:RDF></metadata><sodipodi:namedview
     pagecolor="#ffffff"
     bordercolor="#666666"
     borderopacity="1"
     objecttolerance="10"
     gridtolerance="10"
     guidetolerance="10"
     inkscape:pageopacity="0"
     inkscape:pageshadow="2"
     inkscape:window-width="1920"
     inkscape:window-height="1017"
     id="namedview214"
     showgrid="false"
     inkscape:zoom="0.78395062"
     inkscape:cx="340.58268"
     inkscape:cy="465.59055"
     inkscape:current-layer="svg2"
     showborder="false"
     fit-margin-top="0"
     fit-margin-left="0"
     fit-margin-right="0"
     fit-margin-bottom="0"
     inkscape:window-x="1912"
     inkscape:window-y="-8"
     inkscape:window-maximized="1"
     inkscape:showpageshadow="2"
     inkscape:pagecheckerboard="0"
     inkscape:deskcolor="#d1d1d1"
     inkscape:document-units="mm" /><defs
     id="defs4"><style
       type="text/css"
       id="style6"><![CDATA[
    .str1 {stroke:#1F1A17;stroke-width:0.0762}
    .str0 {stroke:#1F1A17;stroke-width:1.4111}
    .str2 {stroke:#1F1A17;stroke-width:2.2}
    .fil7 {fill:black}
    .fil18 {fill:#000066}
    .fil4 {fill:#00CCFF}
    .fil0 {fill:#191919}
    .fil13 {fill:#33CC99}
    .fil12 {fill:#669966}
    .fil14 {fill:#66FFCC}
    .fil16 {fill:#99FF99}
    .fil11 {fill:#99FFFF}
    .fil10 {fill:#CC6633}
    .fil15 {fill:#CCFFCC}
    .fil17 {fill:#E5E5E5}
    .fil8 {fill:red}
    .fil2 {fill:#FF99FF}
    .fil1 {fill:#FFCC99}
    .fil6 {fill:#FFCCCC}
    .fil9 {fill:#FFDBDB}
    .fil3 {fill:#FFE5E5}
    .fil5 {fill:white}
   ]]></style></defs><g
     id="_245149584"
     transform="matrix(1.0988831,0,0,1.0988831,110.76911,5.1779561)"><path
       style="fill:#191919;stroke:#1f1a17;stroke-width:2.2"
       inkscape:connector-curvature="0"
       d="m -63.9483,112.605 h 15.1813 c 0.4299,1.6441 1.2142,3.2218 2.3647,4.6141 4.2377,5.1283 11.8766,5.8547 17.0049,1.617 3.8197,-3.1563 5.1964,-8.1992 3.8998,-12.6865 h 1.7145 l -1.4054,-3.7491 c 0.5005,-0.7157 0.654,-1.6174 0.4368,-2.4494 2.5872,0.876 5.5585,0.4357 7.8108,-1.4259 3.4559,-2.8556 3.9453,-8.0032 1.0896,-11.4587 -1.056,-1.2778 -2.4256,-2.1494 -3.9068,-2.597 l 2.9938,-2.4738 -19.7787,-16.6126 -1.4246,-3.2915 c 3.7681,-3.5131 6.9494,-7.9013 8.8051,-12.8172 0.5384,1.124 1.2627,1.8799 2.1223,2.0919 2.3557,0.5809 4.8604,-3.1379 5.5754,-8.2766 0.715,-5.139 -0.6233,-9.804 -2.9787,-10.3846 -1.1765,-0.2898 -2.3903,0.4925 -3.3996,1.9881 -2.1138,-12.8626 -11.8453,-23.0431 -24.107,-25.1969 2.1931,-2.6764 -0.6167,-8.5319 -6.8363,-13.3379 3.1646,5.9264 2.5861,10.0644 1.0454,12.9327 -13.8843,0.4651 -25.3875,11.1347 -27.9171,25.0793 -0.9253,-1.1504 -1.9846,-1.7192 -3.0151,-1.4653 -2.3557,0.5806 -3.6936,5.2456 -2.9786,10.3846 0.7147,5.1387 3.2196,8.8575 5.5751,8.2766 0.7205,-0.1777 1.3458,-0.7376 1.8463,-1.5759 1.9909,4.9865 5.3406,9.4087 9.2581,12.896 l -0.5871,1.3564 -21.3748,17.9529 2.9939,2.4738 c -1.4813,0.4476 -2.851,1.3191 -3.9071,2.597 -2.8555,3.4559 -2.3664,8.6038 1.0897,11.4591 2.5991,2.1479 6.155,2.4035 8.9733,0.9283 -0.4493,0.965 -0.3418,2.1111 0.279,2.976 l -1.3943,3.7197 h 1.6828 c -1.2968,4.4873 0.0798,9.5304 3.8995,12.6866 5.128,4.2378 12.7675,3.5114 17.0049,-1.617 1.1506,-1.3924 1.9342,-2.97 2.3642,-4.6142 z"
       class="fil0 str2"
       id="_245151024" /><g
       id="g148"><polygon
         style="fill:#99ffff;stroke:#1f1a17;stroke-width:0.0762"
         points="-42.3759,112.605 -27.9934,104.185 -84.6894,104.185 -70.307,112.605 "
         class="fil11 str1"
         id="_245150976" /><circle
         style="fill:#ffe5e5;stroke:#1f1a17;stroke-width:0.0762"
         cy="0"
         cx="0"
         r="11.6986"
         transform="matrix(-0.536345,0.443202,0.443202,0.536345,-22.1255,92.2513)"
         class="fil3 str1"
         id="_245150928" /><polygon
         style="fill:#99ffff;stroke:#1f1a17;stroke-width:0.0762"
         points="-47.8093,69.4186 -33.2079,95.5835 -16.7644,81.9956 -39.7084,62.7245 "
         class="fil11 str1"
         id="_245150880" /><circle
         style="fill:#ffe5e5;stroke:#1f1a17;stroke-width:0.0762"
         cy="0"
         cx="0"
         r="11.6986"
         transform="matrix(0.536345,0.443202,-0.443202,0.536345,-91.5729,92.2513)"
         class="fil3 str1"
         id="_245150832" /><polygon
         style="fill:#99ffff;stroke:#1f1a17;stroke-width:0.0762"
         points="-65.8892,69.4186 -80.4906,95.5835 -96.934,81.9956 -73.99,62.7245 "
         class="fil11 str1"
         id="_245150784" /><polygon
         style="fill:#669966;stroke:#1f1a17;stroke-width:0.0762"
         points="-40.3018,62.0841 -23.7833,106.15 -88.8995,106.15 -72.3811,62.0841 "
         class="fil12 str1"
         id="_245150736" /><polygon
         style="fill:#99ffff;stroke:#1f1a17;stroke-width:0.0762"
         points="-49.013,66.0135 -41.4658,102.22 -71.2171,102.22 -63.6699,66.0135 "
         class="fil11 str1"
         id="_245150688" /><polygon
         style="fill:#33cc99;stroke:#1f1a17;stroke-width:0.0762"
         points="-41.2255,54.5653 -25.6584,90.5315 -87.0244,90.5315 -71.4573,54.5653 "
         class="fil13 str1"
         id="_245150640" /><polygon
         style="fill:#66ffcc;stroke:#1f1a17;stroke-width:0.0762"
         points="-43.9023,58.2353 -31.0919,86.8615 -81.591,86.8615 -68.7806,58.2353 "
         class="fil14 str1"
         id="_245150592" /><ellipse
         style="fill:#ffe5e5;stroke:#1f1a17;stroke-width:0.0762"
         cy="0"
         cx="0"
         ry="10.015"
         rx="6.1090999"
         transform="matrix(-0.700135,-0.172482,-0.12962,0.931651,-25.742,42.0359)"
         class="fil3 str1"
         id="_245150544" /><ellipse
         style="fill:#ffcccc;stroke:#1f1a17;stroke-width:0.0762"
         cy="0"
         cx="0"
         ry="10.015"
         rx="6.1090999"
         transform="matrix(-0.538032,-0.132547,-0.0996092,0.715944,-26.2451,43.0927)"
         class="fil6 str1"
         id="_245150496" /><ellipse
         style="fill:#ffe5e5;stroke:#1f1a17;stroke-width:0.0762"
         cy="0"
         cx="0"
         ry="10.015"
         rx="6.1090999"
         transform="matrix(0.700135,-0.172482,0.12962,0.931651,-87.3749,42.0359)"
         class="fil3 str1"
         id="_245150448" /><ellipse
         style="fill:#ffcccc;stroke:#1f1a17;stroke-width:0.0762"
         cy="0"
         cx="0"
         ry="10.015"
         rx="6.1090999"
         transform="matrix(0.538032,-0.132547,0.0996092,0.715944,-86.8719,43.0927)"
         class="fil6 str1"
         id="_245150400" /><path
         style="fill:#ffe5e5;stroke:#1f1a17;stroke-width:0.0762"
         inkscape:connector-curvature="0"
         d="m -56.7961,9.0734 c 16.1832,0 29.3821,13.8692 29.3821,30.8741 0,17.0048 -17.409,30.874 -29.3821,30.874 -11.973,0 -29.3821,-13.8692 -29.3821,-30.874 0,-17.0049 13.199,-30.8741 29.3821,-30.8741 z"
         class="fil3 str1"
         id="_245150352" /><path
         style="fill:#ffffff;stroke:#1f1a17;stroke-width:0.0762"
         inkscape:connector-curvature="0"
         d="m -56.5217,37.4485 c -1.6937,3.2897 -5.0544,5.5397 -8.9092,5.5398 -5.5501,-2e-4 -10.0766,-4.6629 -10.077,-10.38 6e-4,-5.7169 4.5269,-10.3798 10.077,-10.3798 3.8548,0 7.2154,2.25 8.9091,5.5398 1.6937,-3.2898 5.054,-5.5398 8.9089,-5.5398 5.55,0 10.0765,4.6628 10.0765,10.3799 0,5.717 -4.5265,10.3798 -10.0765,10.3798 -3.8549,0 -7.2152,-2.25 -8.9088,-5.5397 z"
         class="fil5 str1"
         id="_245150304" /><ellipse
         style="fill:#000000;stroke:#1f1a17;stroke-width:0.0762"
         ry="2.8039"
         rx="4.2058501"
         cy="37.9394"
         cx="-48.402401"
         class="fil7 str1"
         id="_245150256" /><ellipse
         style="fill:#000000;stroke:#1f1a17;stroke-width:0.0762"
         ry="2.8039"
         rx="4.2058501"
         cy="37.9394"
         cx="-63.091999"
         class="fil7 str1"
         id="_245150208" /><path
         style="fill:#ffcccc;stroke:#1f1a17;stroke-width:0.0762"
         inkscape:connector-curvature="0"
         d="m -55.7618,48.688 c 1.4719,0 2.672,1.2001 2.672,2.672 0,1.4719 -1.2001,2.672 -2.672,2.672 -1.4718,0 -2.672,-1.2001 -2.672,-2.672 0,-0.035 10e-4,-0.0699 0.0023,-0.1045 0.0538,0.9942 1.0337,1.9595 2.2636,1.9595 1.2299,0 2.2612,-1.0156 2.2612,-2.2612 0,-1.2143 -0.9652,-2.2099 -1.9594,-2.2636 0.0347,-0.0014 0.0693,-0.0022 0.1043,-0.0022 z"
         class="fil6 str1"
         id="_245150160" /><ellipse
         style="fill:#ff0000;stroke:#1f1a17;stroke-width:0.0762"
         ry="2.7713101"
         rx="5.5714798"
         cy="64.366402"
         cx="-56.256599"
         class="fil8 str1"
         id="_245150112" /><ellipse
         style="fill:#ffdbdb"
         ry="5.6134601"
         rx="6.8764901"
         cy="54.786598"
         cx="-71.9188"
         class="fil9"
         id="_245150040" /><ellipse
         style="fill:#ffdbdb"
         ry="5.6134601"
         rx="6.8764901"
         cy="54.786598"
         cx="-41.325401"
         class="fil9"
         id="_245149968" /><path
         style="fill:#ffe5e5;stroke:#1f1a17;stroke-width:0.0762"
         inkscape:connector-curvature="0"
         d="m -75.8201,31.5211 c 5e-4,-5.7169 5.4748,-10.3798 10.2649,-10.3798 4.7901,0 7.35,2.25 9.0753,5.5398 1.7252,-3.2898 5.1482,-5.5398 9.075,-5.5398 5.6534,0 10.2644,4.6628 10.2644,10.3799 z"
         class="fil3 str1"
         id="_245149920" /><circle
         style="fill:#ffe5e5;stroke:#1f1a17;stroke-width:0.0762"
         cy="0"
         cx="0"
         r="11.6986"
         transform="matrix(0.795902,0.657684,-0.657684,0.795902,-75.6232,109.525)"
         class="fil3 str1"
         id="_245149872" /><path
         style="fill:#ffe5e5;stroke:#1f1a17;stroke-width:0.0762"
         inkscape:connector-curvature="0"
         d="m -64.9022,95.7524 c 1.9769,1.6336 2.2572,4.5788 0.6234,6.5558 -1.6336,1.9768 -4.5787,2.2571 -6.5557,0.6234 -0.6102,-0.5042 -1.0585,-1.1338 -1.3389,-1.8209 -0.0612,0.0892 -0.1267,0.1766 -0.1968,0.2614 -1.2885,1.5594 -3.6111,1.7803 -5.1703,0.4919 -0.3233,-0.2672 -0.5888,-0.5791 -0.7954,-0.9192 -0.1021,0.1895 -0.2241,0.372 -0.3663,0.5441 -0.986,1.1934 -2.6356,1.527 -3.9812,0.9098 -0.0448,0.0639 -0.0926,0.1269 -0.1433,0.1881 -1.0372,1.2553 -2.9068,1.4332 -4.1618,0.396 -1.2553,-1.0372 -1.4329,-2.9069 -0.396,-4.1617 0.7714,-0.9336 2.0033,-1.271 3.1001,-0.9562 0.1118,-0.2254 0.2506,-0.4412 0.4175,-0.6431 1.1752,-1.4224 3.2939,-1.6237 4.7159,-0.4488 0.2472,0.2043 0.4575,0.4369 0.6302,0.6894 0.1274,-0.27 0.2899,-0.5284 0.4885,-0.7687 1.2884,-1.5594 3.6111,-1.7801 5.1703,-0.4919 0.3531,0.2918 0.6375,0.6366 0.8513,1.0136 0.1505,-0.2936 0.3343,-0.5753 0.5528,-0.8397 1.6336,-1.9768 4.5787,-2.257 6.5557,-0.6233 z"
         class="fil3 str1"
         id="_245149824" /><circle
         style="fill:#ffe5e5;stroke:#1f1a17;stroke-width:0.0762"
         cy="0"
         cx="0"
         r="11.6986"
         transform="matrix(-0.795902,0.657684,0.657684,0.795902,-37.0914,109.525)"
         class="fil3 str1"
         id="_245149776" /><path
         style="fill:#ffe5e5;stroke:#1f1a17;stroke-width:0.0762"
         inkscape:connector-curvature="0"
         d="m -47.8124,95.7524 c -1.9769,1.6336 -2.2572,4.5788 -0.6234,6.5558 1.6336,1.9768 4.5787,2.2571 6.5557,0.6234 0.6102,-0.5042 1.0585,-1.1338 1.3389,-1.8209 0.0612,0.0892 0.1267,0.1766 0.1968,0.2614 1.2885,1.5594 3.6111,1.7803 5.1703,0.4919 0.3233,-0.2672 0.5888,-0.5791 0.7954,-0.9192 0.1021,0.1895 0.2241,0.372 0.3663,0.5441 0.986,1.1934 2.6356,1.527 3.9812,0.9098 0.0448,0.0639 0.0926,0.1269 0.1433,0.1881 1.0372,1.2553 2.9068,1.4332 4.1618,0.396 1.2553,-1.0372 1.4329,-2.9069 0.396,-4.1617 -0.7714,-0.9336 -2.0033,-1.271 -3.1001,-0.9562 -0.1118,-0.2254 -0.2506,-0.4412 -0.4175,-0.6431 -1.1752,-1.4224 -3.2939,-1.6237 -4.7159,-0.4488 -0.2472,0.2043 -0.4575,0.4369 -0.6302,0.6894 -0.1274,-0.27 -0.2899,-0.5284 -0.4885,-0.7687 -1.2884,-1.5594 -3.6111,-1.7801 -5.1703,-0.4919 -0.3531,0.2918 -0.6375,0.6366 -0.8513,1.0136 -0.1505,-0.2936 -0.3343,-0.5753 -0.5528,-0.8397 -1.6336,-1.9768 -4.5787,-2.257 -6.5557,-0.6233 z"
         class="fil3 str1"
         id="_245149728" /><path
         style="fill:#ffffff;stroke:#1f1a17;stroke-width:0.0762"
         inkscape:connector-curvature="0"
         d="m -53.587,64.1797 h 1.6482 c 0.2571,0 0.4674,0.2708 0.4674,0.6015 v 1.0011 c -0.5895,0.4905 -1.4745,0.8835 -2.5313,1.1176 -0.0328,-0.0821 -0.0517,-0.1747 -0.0517,-0.2729 v -1.8458 c 0,-0.3309 0.2103,-0.6015 0.4674,-0.6015 z"
         class="fil5 str1"
         id="_245149680" /><path
         style="fill:#ffcc99;stroke:#1f1a17;stroke-width:0.0762"
         inkscape:connector-curvature="0"
         d="m -58.7864,-3.8415 c 6.8562,5.2979 9.5694,11.8709 6.0045,14.0551 -4.0964,2.5097 6.1353,4.8395 -6.0045,5.0137 -12.1398,0.1742 8.9744,-2.2624 0,-19.0688 z"
         class="fil1 str1"
         id="_245149632" /></g></g></svg>
