<?xml version="1.0" encoding="UTF-8"?>
<svg width="139.18" height="122.8" version="1.1" viewBox="0 0 11.135 9.8243" xmlns="http://www.w3.org/2000/svg"><g stroke-width=".20264"><path d="m4.4783 3.388a2.3405 2.3405 0 0 1-0.53699 0.75381h0.10942a0.98685 0.98685 0 0 1 0.20264-0.20264 1.457 1.457 0 0 1 0.18237-0.1155l0.081055-0.40528a0.37488 0.37488 0 0 0-0.038501-0.0304z" fill="#fff"/><path d="m1.2543 1.5399s0.40528-0.75179 1.0476-0.81055c0.64236-0.058765 1.5198 0.14387 1.84 0.55725 0.32017 0.41338 0.20264 1.3253 0.20264 1.3253l0.29585 0.077a0.39109 0.39109 0 0 1 0.46404-0.15198 0.34448 0.34448 0 0 1 0.26343 0.48025 0.42959 0.42959 0 0 1-0.18643 0.20264l-0.20264 0.86932s0.16819 0.09321 0.20264 0.18643a0.97063 0.97063 0 0 1 0.042554 0.22898s0.48836 0.05066 0.691 0.06687c0.20264 0.01621 0.46607 0.04255 0.46607 0.04255a0.77002 0.77002 0 0 1 0.23506-0.53294 0.81055 0.81055 0 0 1 0.5066-0.20264l0.35462-2.4053a0.68897 0.68897 0 0 1-0.26951-0.5836 0.47012 0.47012 0 0 1 0.65857-0.38704 0.65249 0.65249 0 0 1 0.2614 0.24519l1.2158-0.3303a0.49241 0.49241 0 0 1 0.40528-0.40528 0.46809 0.46809 0 0 1 0.57346 0.46404c0 0.27964-0.34651 0.43972-0.34651 0.43972l0.13577 1.5117a0.58157 0.58157 0 0 1 0.20264 0.14387 0.60791 0.60791 0 0 1 0.06687 0.21885 4.6404 4.6404 0 0 1 0.75179 0.05066c0.02634 0.04255-0.26951 1.5542-0.29585 1.6211-0.02634 0.06687-0.24519 0.07498-0.27761 0.03445-0.03242-0.04053-0.20264-1.0902-0.20264-1.0902s-0.72544 0.04255-0.72544 0.08511a6.3486 6.3486 0 0 1-0.13577 0.94429c-0.05066 0.06079-0.24519 0.04255-0.24519 0.04255s-0.42959-1.3415-0.40528-1.3921c0.02432-0.05066 0-0.11956 0.10942-0.13577 0.10942-0.01621 0.55725 0 0.55725 0a0.93416 0.93416 0 0 1 0.07903-0.37691 0.72342 0.72342 0 0 1 0.24519-0.16008l-0.10132-1.4813s-0.2533 0.026343-0.31611-0.1074c-0.06282-0.13374-0.05674-0.17022-0.05674-0.17022l-1.1084 0.31004a0.62007 0.62007 0 0 1-0.13171 0.43567 0.63426 0.63426 0 0 1-0.39312 0.1844l-0.34246 2.2797a0.79029 0.79029 0 0 1 0.45594 0.40528 1.8987 1.8987 0 0 1 0.077 0.57549 12.547 12.547 0 0 1 0.94227 1.1145 3.9758 3.9758 0 0 1 0.34246 0.55725s0.67681 0.10942 0.94429 1.0456a1.7832 1.7832 0 0 1-0.53294 1.8805c-0.33435 0.2918-0.78421 0.37488-1.6393 0.37488-0.85513 0-2.381 0.02432-4.1723-0.02026-1.7913-0.04458-2.4762-0.13982-2.8957-0.60791a1.7508 1.7508 0 0 1-0.20871-1.9818 2.0264 2.0264 0 0 1 0.98887-0.88553 1.5441 1.5441 0 0 1 0.36677-0.10132s0.69099-1.153 0.91187-1.3556a1.1773 1.1773 0 0 1 0.6687-0.35259 5.9211 5.9211 0 0 1 0.60791-0.03242 0.58562 0.58562 0 0 1 0.20264-0.27154 0.67884 0.67884 0 0 1 0.27356-0.13982l0.16414-0.79839a0.4762 0.4762 0 0 1-0.20264-0.18845 0.65857 0.65857 0 0 1-0.062818-0.17832l-0.31814-0.05066a2.0385 2.0385 0 0 1-0.82879 1.2158c-0.68492 0.44378-1.6089 0.17832-1.9251 0.0385a1.9737 1.9737 0 0 1-0.78623-0.86932 1.2989 1.2989 0 0 1 0-0.89363 1.6089 1.6089 0 0 1 0.22088-0.37285l-0.20264-0.15198a0.56941 0.56941 0 0 1-0.58157 0c-0.28572-0.19048-0.21682-0.48836-0.064844-0.68492 0.15198-0.19656 0.62818-0.34854 0.78016-0.13982a0.59576 0.59576 0 0 1 0.09524 0.44986z" fill="#1d1d1b"/><path d="m0.49647 1.1346c0.2614-0.046607 0.33638 0.089161 0.31004 0.28572a0.28167 0.28167 0 0 1-0.45594 0.22088c-0.27964-0.15198-0.0020264-0.48025 0.1459-0.50659z" fill="#cbe7f5"/><path d="m1.5522 1.6615s0.43162-0.52078 0.71531-0.59576c0.28369-0.074976 0.59576-0.062818 0.65249 0.29788a2.5917 2.5917 0 0 1-0.13374 0.93619z" fill="#e6e4da"/><path d="m1.2807 2.3059s0.94834 0.79839 0.93619 0.82474c-0.012158 0.02634-0.56333 0.46201-0.98685 0.13779-0.42351-0.32422 0-0.93011 0.05066-0.96253z" fill="#e6e4da"/><path d="m1.2483 1.8054c0.042554 0 1.1773 0.53902 1.1773 0.60791 0 0.0689-0.13171 0.38096-0.2148 0.3688a11.145 11.145 0 0 1-0.96253-0.84905c-0.056739-0.054712-0.056739-0.13374 0-0.12766z" fill="#cbe7f5"/><path d="m1.3557 2.5916c0.054712-0.03647 0.1074 0.08308 0.12158 0.1074 0.014185 0.02432-0.038501 0.08916 0.012158 0.20264 0.05066 0.11348 0.13171 0.15198 0.11956 0.19048-0.012158 0.0385-0.050659 0.08713-0.074976 0.08713a0.58157 0.58157 0 0 1-0.24722-0.26545 0.34854 0.34854 0 0 1 0.068897-0.32219z" fill="#1d1d1b"/><path d="m1.9149 1.6352a0.96253 0.96253 0 0 1 0.28572-0.27153 0.25938 0.25938 0 0 1 0.29788 0.062818c0.018237 0.056738-0.077002 0.15806-0.077002 0.15806a0.20264 0.20264 0 0 0-0.20264 0.018237c-0.074976 0.077002-0.089161 0.16008-0.13171 0.15198-0.042554-0.0081056-0.17224-0.093213-0.17224-0.11956z" fill="#1d1d1b"/><path d="m3.3699 1.2988a0.65857 0.65857 0 0 1 0.55725 0.52078c0.10132 0.42959 0.17022 0.93619-0.19048 1.463-0.3607 0.52686-0.68897 0.64439-1.0375 0.67073a1.767 1.767 0 0 1-0.69099-0.062818c-0.083081-0.0385-0.1459-0.13374-0.074976-0.16008a2.229 2.229 0 0 0 1.0314-0.97469c0.35462-0.67478 0.3688-1.4063 0.40528-1.457z" fill="#cbe7f5"/><path d="m3.382 2.2613s0.17224 0.020263 0.17832 0.050659a2.0892 2.0892 0 0 1-0.19048 0.68492c-0.13982 0.27761-0.24722 0.40528-0.30396 0.40528-0.056739 0-0.13374 0-0.13374-0.04458s0.2229-0.30396 0.32422-0.53091a4.304 4.304 0 0 0 0.12564-0.56536z" fill="#1d1d1b"/></g><g fill="#cbe7f5" stroke-width=".20264"><path d="m7.6638 0.70505c0.13779-0.046607 0.3222 0.068897 0.32827 0.30396 0.0061 0.23506-0.23303 0.41743-0.40528 0.30396-0.17224-0.11348-0.17022-0.52686 0.077-0.60791z"/><path d="m9.836 0.20454c0.13779-0.020264 0.26546 0.19048 0.2148 0.35462s-0.31611 0.23303-0.40527 0.11956c-0.08916-0.11348-0.0304-0.44378 0.19048-0.47417z"/><path d="m9.9374 2.6038c0.09929-0.01418 0.20264 0.11348 0.18237 0.20264-0.02026 0.08916-0.30396 0.08916-0.33435 0.05674a0.17427 0.17427 0 0 1 0.15198-0.25938z"/></g><g stroke-width=".20264"><path d="m9.1775 3.1549s0.60791-0.0689 1.0638-0.09524c0.45594-0.02634 0.67073-0.05066 0.66465 0-0.0061 0.05066-0.13374 0.75381-0.17832 0.74166-0.04458-0.01216-0.0689-0.60791-0.13982-0.62007a6.7134 6.7134 0 0 0-1.1895 0.12564c0 0.04458 0 0.51875-0.06282 0.52483-0.06282 0.0061-0.15806-0.61399-0.15806-0.67681z" fill="#e7413e"/><path d="m6.6445 4.5734a0.5532 0.5532 0 0 1 0.56333-0.48836c0.43567 0.02026 0.54307 0.55725 0.44175 0.59576a3.3658 3.3658 0 0 1-1.0051-0.1074z" fill="#cbe7f5"/><path d="m2.5411 6.1337c0.062818-0.07092 0.67073-1.0902 1.1267-1.2422 0.45594-0.15198 2.5391 0.01418 3.1915 0.077 0.65249 0.06282 0.76597 0.05066 0.98077 0.34246s0.67884 0.93619 0.62818 0.94227a0.38096 0.38096 0 0 1-0.15198-0.01824c-0.03242-0.01216-0.57144-0.70923-0.6221-0.71531-0.05066-0.0061-0.20264 0.05674-0.1763 0.10132 0.02634 0.04458 0.56333 0.56941 0.52483 0.57549a1.0537 1.0537 0 0 1-0.27761 0c-0.03242-0.01824-0.4377-0.56941-0.4762-0.5836-0.0385-0.01418-0.22088 0.04458-0.18845 0.08916 0.03242 0.04458 0.48025 0.4762 0.44175 0.49444a0.43364 0.43364 0 0 1-0.23303 0 4.7741 4.7741 0 0 0-0.35462-0.43162c-0.05674-0.01216-0.20264 0.0385-0.17224 0.09524 0.0304 0.05674 0.26748 0.31004 0.23506 0.31004z" fill="#85bfe9"/><path d="m3.1308 5.8075a6.7316 6.7316 0 0 1 0.53902-0.67073c0.024317 0 0.11956 0.02634 0.11956 0.06282a3.5137 3.5137 0 0 1-0.46201 0.64642 0.38704 0.38704 0 0 1-0.19656-0.0385z" fill="#1d1d1b"/><path d="m3.1551 6.4478a41.366 41.366 0 0 1 4.5208 0.10132c1.1652 0.13374 1.5887 0.24722 1.9129 0.81055 0.32422 0.56333 0.11348 1.5198-0.38096 1.844-0.49444 0.32422-3.6272 0.24519-4.9261 0.20264-1.2989-0.042554-2.5512-0.030395-3.0274-0.42554-0.4762-0.39514-0.46809-1.076-0.14995-1.5522 0.31814-0.4762 0.72747-0.90376 2.0507-0.98077z" fill="#e7413e"/><path d="m2.2614 6.8288c0.43567-0.11145 3.224-0.077 4.2939-0.06484 1.0699 0.01216 2.1581-0.02229 2.6221 0.29788 0.46404 0.32017 0.4377 0.86121 0.35462 1.3009-0.08308 0.43972-0.26748 0.78421-1.2361 0.85513-0.96861 0.07092-4.0528 0.10132-5.224 0-1.1712-0.10132-1.5259-0.20467-1.765-0.72545-0.23911-0.52078-0.064844-1.4043 0.95442-1.6637z" fill="#a42116"/></g><g fill="#e7413e" stroke-width=".20264"><path d="m2.5917 7.0436a0.94632 0.94632 0 0 1 0.99292 1.228c-0.20264 0.75381-1.3171 0.95037-1.8237 0.45594-0.50659-0.49444-0.46809-1.5704 0.83081-1.6839z"/><path d="m5.5219 7.0618a0.94834 0.94834 0 0 1 0.99495 1.228c-0.20264 0.75381-1.3171 0.95037-1.8237 0.45594s-0.46809-1.5704 0.82879-1.6839z"/><path d="m8.373 7.0618a0.94632 0.94632 0 0 1 0.99292 1.228c-0.20264 0.75381-1.3171 0.95037-1.8237 0.45594-0.5066-0.49444-0.46809-1.5704 0.83082-1.6839z"/></g><g transform="matrix(.20264 0 0 .20264 -.922 -1.5665)" fill="#1d1d1b"><path d="m15.9 45.64a2.18 2.18 0 0 1 3.28 1.5c0.53 1.82-2.06 3-3.41 1.63a2 2 0 0 1 0.13-3.13z"/><path d="m30.4 45.77a2.17 2.17 0 0 1 3.28 1.5c0.53 1.81-2.06 3-3.41 1.62a2 2 0 0 1 0.13-3.12z"/><path d="m44.71 45.64a2.18 2.18 0 0 1 3.29 1.5c0.53 1.82-2.06 3-3.4 1.63a2 2 0 0 1 0.11-3.13z"/></g></svg>
