<svg xmlns="http://www.w3.org/2000/svg" width="139.182" height="122.804" viewBox="0 0 11.135 9.824" xmlns:v="https://vecta.io/nano"><path d="M4.478 3.388a2.34 2.34 0 0 1-.537.754h.109a.987.987 0 0 1 .203-.203 1.457 1.457 0 0 1 .182-.116l.081-.405a.375.375 0 0 0-.039-.03z" fill="#fff"/><path d="M1.254 1.54S1.66.788 2.302.729s1.52.144 1.84.557.203 1.325.203 1.325l.296.077a.391.391 0 0 1 .464-.152.344.344 0 0 1 .263.48.43.43 0 0 1-.186.203l-.203.869s.168.093.203.186a.971.971 0 0 1 .043.229l.691.067.466.043a.77.77 0 0 1 .235-.533.811.811 0 0 1 .507-.203l.355-2.405a.689.689 0 0 1-.27-.584.47.47 0 0 1 .659-.387.652.652 0 0 1 .261.245l1.216-.33a.492.492 0 0 1 .405-.405.468.468 0 0 1 .573.464c0 .28-.347.44-.347.44l.136 1.512a.582.582 0 0 1 .203.144.608.608 0 0 1 .067.219 4.64 4.64 0 0 1 .752.051c.026.043-.27 1.554-.296 1.621s-.245.075-.278.034-.203-1.09-.203-1.09-.725.043-.725.085a6.349 6.349 0 0 1-.136.944c-.051.061-.245.043-.245.043l-.405-1.392c.024-.051 0-.12.109-.136s.557 0 .557 0a.934.934 0 0 1 .079-.377.723.723 0 0 1 .245-.16L9.735.932s-.253.026-.316-.107-.057-.17-.057-.17l-1.108.31a.62.62 0 0 1-.132.436.634.634 0 0 1-.393.184l-.342 2.28a.79.79 0 0 1 .456.405 1.899 1.899 0 0 1 .077.575 12.547 12.547 0 0 1 .942 1.115 3.976 3.976 0 0 1 .342.557s.677.109.944 1.046a1.783 1.783 0 0 1-.533 1.88c-.334.292-.784.375-1.639.375s-2.381.024-4.172-.02-2.476-.14-2.896-.608a1.751 1.751 0 0 1-.209-1.982 2.026 2.026 0 0 1 .989-.886 1.544 1.544 0 0 1 .367-.101s.691-1.153.912-1.356a1.177 1.177 0 0 1 .669-.353 5.921 5.921 0 0 1 .608-.032.586.586 0 0 1 .203-.272.679.679 0 0 1 .274-.14l.164-.798a.476.476 0 0 1-.203-.188.659.659 0 0 1-.063-.178L4.3 2.853a2.039 2.039 0 0 1-.829 1.216c-.685.444-1.609.178-1.925.038a1.974 1.974 0 0 1-.786-.869 1.299 1.299 0 0 1 0-.894 1.609 1.609 0 0 1 .221-.373L.778 1.82a.569.569 0 0 1-.582 0c-.286-.19-.217-.488-.065-.685S.76.786.912.995a.596.596 0 0 1 .095.45z" fill="#1d1d1b"/><path d="M.496 1.135c.261-.047.336.089.31.286a.282.282 0 0 1-.456.221c-.28-.152-.002-.48.146-.507z" fill="#cbe7f5"/><path d="M1.552 1.662s.432-.521.715-.596.596-.063.652.298a2.592 2.592 0 0 1-.134.936zm-.271.644l.936.825c-.012.026-.563.462-.987.138s0-.93.051-.963z" fill="#e6e4da"/><path d="M1.248 1.805c.043 0 1.177.539 1.177.608s-.132.381-.215.369a11.145 11.145 0 0 1-.963-.849c-.057-.055-.057-.134 0-.128z" fill="#cbe7f5"/><path d="M1.356 2.592c.055-.036.107.083.122.107s-.039.089.012.203.132.152.12.19-.051.087-.075.087a.582.582 0 0 1-.247-.265.349.349 0 0 1 .069-.322zm.559-.957a.963.963 0 0 1 .286-.272.259.259 0 0 1 .298.063c.018.057-.077.158-.077.158a.203.203 0 0 0-.203.018c-.075.077-.089.16-.132.152s-.172-.093-.172-.12z" fill="#1d1d1b"/><path d="M3.37 1.299a.659.659 0 0 1 .557.521c.101.43.17.936-.19 1.463s-.689.644-1.038.671a1.767 1.767 0 0 1-.691-.063c-.083-.038-.146-.134-.075-.16a2.229 2.229 0 0 0 1.031-.975c.355-.675.369-1.406.405-1.457z" fill="#cbe7f5"/><path d="M3.382 2.261s.172.02.178.051a2.089 2.089 0 0 1-.19.685c-.14.278-.247.405-.304.405s-.134 0-.134-.045.223-.304.324-.531a4.304 4.304 0 0 0 .126-.565z" fill="#1d1d1b"/><path d="M7.664.705c.138-.047.322.069.328.304s-.233.417-.405.304-.17-.527.077-.608zm2.172-.5c.138-.02.265.19.215.355s-.316.233-.405.12-.03-.444.19-.474zm.101 2.399c.099-.014.203.113.182.203s-.304.089-.334.057a.174.174 0 0 1 .152-.259z" fill="#cbe7f5"/><path d="M9.177 3.155l1.064-.095c.456-.026.671-.051.665 0s-.134.754-.178.742-.069-.608-.14-.62a6.713 6.713 0 0 0-1.189.126c0 .045 0 .519-.063.525s-.158-.614-.158-.677z" fill="#e7413e"/><path d="M6.644 4.573a.553.553 0 0 1 .563-.488c.436.02.543.557.442.596a3.366 3.366 0 0 1-1.005-.107z" fill="#cbe7f5"/><path d="M2.541 6.134c.063-.071.671-1.09 1.127-1.242s2.539.014 3.192.077.766.051.981.342l.628.942a.381.381 0 0 1-.152-.018c-.032-.012-.571-.709-.622-.715s-.203.057-.176.101.563.569.525.575a1.054 1.054 0 0 1-.278 0c-.032-.018-.438-.569-.476-.584s-.221.045-.188.089.48.476.442.494a.434.434 0 0 1-.233 0 4.774 4.774 0 0 0-.355-.432c-.057-.012-.203.038-.172.095s.267.31.235.31z" fill="#85bfe9"/><path d="M3.131 5.807a6.732 6.732 0 0 1 .539-.671c.024 0 .12.026.12.063a3.514 3.514 0 0 1-.462.646.387.387 0 0 1-.197-.038z" fill="#1d1d1b"/><path d="M3.155 6.448a41.366 41.366 0 0 1 4.521.101c1.165.134 1.589.247 1.913.811s.113 1.52-.381 1.844-3.627.245-4.926.203-2.551-.03-3.027-.426-.468-1.076-.15-1.552.727-.904 2.051-.981z" fill="#e7413e"/><path d="M2.261 6.829c.436-.111 3.224-.077 4.294-.065s2.158-.022 2.622.298.438.861.355 1.301-.267.784-1.236.855-4.053.101-5.224 0-1.526-.205-1.765-.725-.065-1.404.954-1.664z" fill="#a42116"/><path d="M2.592 7.044a.946.946 0 0 1 .993 1.228c-.203.754-1.317.95-1.824.456s-.468-1.57.831-1.684zm2.93.018a.948.948 0 0 1 .995 1.228c-.203.754-1.317.95-1.824.456s-.468-1.57.829-1.684zm2.851 0a.946.946 0 0 1 .993 1.228c-.203.754-1.317.95-1.824.456s-.468-1.57.831-1.684z" fill="#e7413e"/><path d="M2.3 7.682a.44.44 0 0 1 .665.304c.107.369-.417.608-.691.33-.094-.081-.145-.2-.14-.323s.066-.238.166-.311zm2.938.026a.44.44 0 0 1 .665.304c.107.367-.417.608-.691.328-.093-.081-.144-.199-.139-.322s.066-.237.165-.31zm2.9-.026a.44.44 0 0 1 .667.304c.107.369-.417.608-.689.33-.094-.08-.146-.199-.142-.323s.065-.238.164-.312z" fill="#1d1d1b"/></svg>