<svg xmlns="http://www.w3.org/2000/svg" width="138.029" height="137.329" viewBox="0 0 176.677 175.781" xmlns:v="https://vecta.io/nano"><path d="M87.874 151.057l-.892-.799c-6.164-6.364-4.021-18.453 4.78-26.987 8.348-8.108 16.616-13.3 23.019-8.055l5.698-6.191c10.345-10.052 11.37-25.802-1.531-39.089l-11.29-11.596c-12.901-13.287-28.664-12.728-39.009-2.676l-6.311 5.459a1.065 1.065 0 0 0 .226.2c6.164 6.364.932 15.258-7.868 23.805S33.754 95.473 27.59 89.109a11.716 11.716 0 0 1-1.704-2.263L6.581 103.567c-10.345 10.065-8.268 28.984 4.646 42.271l17.454 17.974c12.901 13.287 31.767 15.91 42.111 5.858z" fill="#f29417"/><path d="M145.363 21.422l11.516 11.849-69.298 69.471-13.593-13.966zM17.91 161.069l-3.941-3.888 25.416-30.369 8.481 8.348z" fill="#5b4037"/><path d="M163.083 2.21l13.593 14.059-26.96 26.055-13.593-14.059z" fill="#ba632b"/><path d="M165.786 20.743l8.694 9-5.219 5.033-8.681-9zm-8.987 8.76l8.681 8.987-5.219 5.033-8.681-9zM152.765 0l8.694 9-5.192 5.019-8.707-9zm-9.013 8.747l8.694 8.973-5.206 5.033-8.681-8.973z" fill="#5b4035"/><path d="M82.735 111.875l5.459 3.502-19.358 30.209-5.459-3.515zm-47.636 1.105l-3.355-5.565 30.755-18.506 3.342 5.578z" fill="#3d2622"/></svg>