<svg xmlns="http://www.w3.org/2000/svg" width="65.308" height="155.283" viewBox="0 0 83.594 198.762" xmlns:v="https://vecta.io/nano"><path d="M83.591 38.095c.067 1.64-.909 3.147-2.46 3.723a3.92 3.92 0 0 1-1.33.244 3.78 3.78 0 0 1-2.97-1.44c-.687-.864-1.396-1.684-2.172-2.46-3.479 6.471-9.684 11.191-16.953 12.72a24.43 24.43 0 0 1-1.64 2.039c9.042 6.427 14.56 16.953 14.56 28.122v34.904c0 9.02-3.457 17.529-9.751 24-4.765 4.898-10.748 8.2-17.263 9.64v44.965a4.21 4.21 0 0 1-4.211 4.211c-20.721 0-37.984-16.178-39.314-36.832C.044 161.132 0 141.941 0 141.941V32.067v-.111C0 14.338 14.338 0 31.956 0h13.873a18.02 18.02 0 0 1 11.213 3.9 37.99 37.99 0 0 1 17.95 12.011c5.252 6.316 8.222 13.984 8.598 22.183z" fill="#633"/><path d="M35.214 191.36v-39.69c-6.006-.155-11.79-1.884-16.887-4.964-3.103 1.308-6.427 2.194-9.906 2.593l.066 13.363c.953 14.826 12.366 26.726 26.726 28.698z" fill="#f8464e"/><path d="M63.779 15.646c4.144 3.058 7.468 7.158 9.596 11.834a36.08 36.08 0 0 0-9.441-4.211c.022 0-.044-6.848-.155-7.623zm4.787 17.773c-1.263 2.881-3.302 5.341-5.828 7.136.776-2.748 1.197-5.629 1.197-8.598v-.731a25.31 25.31 0 0 1 4.632 2.194z" fill="#fc6"/><path d="M62.228 81.043v34.904a25.93 25.93 0 0 1-7.357 18.15c-4.742 4.875-11.08 7.668-17.862 7.889-.022 0-.554.022-.82.022-3.191 0-6.316-.576-9.241-1.684 8.443-6.715 13.873-17.064 13.873-28.676V62.671c3.125-.909 6.05-2.26 8.687-4.011 7.845 4.676 12.72 13.252 12.72 22.383zm-6.67-62.981v3.435l-6.87-6.848c-1.573-1.573-3.391-2.77-5.385-3.612-1.994-.82-4.144-1.263-6.36-1.263-9.152 0-16.576 7.446-16.576 16.599 0 4.432 1.729 8.598 4.853 11.723L40.865 53.74c-2.748 1.13-5.762 1.751-8.909 1.751-12.964 0-23.491-10.504-23.557-23.446v-.111-.044C8.421 18.925 18.97 8.377 31.956 8.377h13.873c5.385.022 9.729 4.366 9.729 9.684z" fill="#f8464e"/><path d="M43.347 19.989l12.189 12.189c-.066 6.959-3.169 13.208-8.044 17.485L30.582 32.754c-1.706-1.706-2.637-3.967-2.637-6.382a9.03 9.03 0 0 1 9.02-9.02c2.416-.022 4.676.931 6.382 2.637z" fill="#fff"/><path d="M36.964 22.183c2.327 0 4.188 1.884 4.188 4.188a4.2 4.2 0 0 1-4.188 4.188 4.2 4.2 0 0 1-4.188-4.188c-.022-2.327 1.862-4.188 4.188-4.188z" fill="#633"/><path d="M32.421 111.536v.089c0 14.117-10.438 25.84-23.978 27.879v-14.936c9.507-1.086 18.061-5.873 23.978-13.031z" fill="#fc6"/><path d="M32.421 63.912v5.23c-1.618 12.765-11.568 22.671-23.978 24.51V53.541c5.828 6.36 14.648 10.371 23.978 10.371z" fill="#f8464e"/><path d="M32.399 89.242c-.066 1.839-.31 3.679-.731 5.474 0 .022-.022.044-.022.089-2.681 11.236-11.989 19.612-23.203 21.297v-14.006c9.529-1.086 18.017-5.806 23.956-12.853z" fill="#4ec8d8"/></svg>