<svg version="1.1" xmlns="http://www.w3.org/2000/svg" xmlns:xlink="http://www.w3.org/1999/xlink" width="145.14366" height="80.91556" viewBox="0,0,145.14366,80.91556"><g transform="translate(-167.42817,-139.54222)"><g data-paper-data="{&quot;isPaintingLayer&quot;:true}" fill-rule="nonzero" stroke="none" stroke-width="1" stroke-linecap="butt" stroke-linejoin="miter" stroke-miterlimit="10" stroke-dasharray="" stroke-dashoffset="0" style="mix-blend-mode: normal"><g data-paper-data="{&quot;index&quot;:null}" fill="#663333"><path d="M285.84839,199.6343c-9.3625,-10.63049 -9.3625,-26.67427 0.01641,-37.30476c12.92266,4.60001 20.87188,11.50783 20.87188,18.64379c0,7.08751 -7.76953,13.99534 -20.8875,18.66097zM243.16322,211.37026l-0.01641,-0.60156c2.53295,0.14933 5.06969,0.22514 7.60703,0.22734c2.76328,0 5.52656,-0.09766 8.25781,-0.26016c-3.69443,2.48632 -8.031,3.84708 -12.4836,3.9172c-0.89375,0.01641 -1.72266,-0.30859 -2.35703,-0.92656c-0.63359,-0.65 -0.99141,-1.47891 -1.00781,-2.35704zM220.21165,151.66546c-0.06484,-2.84454 4.24219,-6.11173 10.54922,-6.27423c11.91485,-0.30859 23.42344,1.93438 32.83516,6.22579c-4.17734,-0.42266 -8.45235,-0.63359 -12.825,-0.63359c-10.79297,0 -21.24532,1.3 -30.47813,3.80391zM219.00853,210.47573c-4.48672,0 -8.28985,-2.9586 -9.59063,-7.00626c4.64922,1.99922 9.94766,3.65704 15.76719,4.89298c-1.72266,1.34922 -3.88516,2.11329 -6.17656,2.11329zM184.77571,180.98974c0,-8.20861 -2.81172,-16.07581 -7.8836,-22.36645c7.68828,0.61797 14.51563,5.12032 18.12422,12.06096c0.14419,0.24014 0.3072,0.46846 0.4875,0.68281c1.12188,1.15391 2.95859,1.20313 4.12891,0.08125c4.12891,-3.98282 10.61406,-7.44455 18.72579,-9.99689c9.54141,-3.00704 20.75782,-4.60001 32.42891,-4.60001c9.11875,0 17.81563,0.94297 25.86172,2.81172c1.10547,0.26016 2.17813,0.52031 3.23438,0.8125c-9.15156,12.09377 -9.15156,28.95006 -0.01641,41.04383c-4.1125,1.12188 -8.51797,1.98282 -13.15,2.60079c-5.15313,0.68281 -10.51719,1.02422 -15.91328,1.02422c-6.79453,0 -13.44297,-0.53672 -19.76563,-1.60938c-13.76797,-2.32422 -25.21172,-7.0547 -31.38829,-13.00393c-1.15391,-1.12188 -3.00703,-1.08906 -4.12891,0.08125c-0.15836,0.16032 -0.29495,0.34078 -0.40625,0.53672c-0.03663,0.04884 -0.06416,0.10389 -0.08125,0.1625c0,0.01641 -0.01641,0.01641 -0.01641,0.03281c-3.59219,6.92423 -10.41953,11.41096 -18.09141,12.02893c5.03906,-6.30704 7.85078,-14.17425 7.85078,-22.38286z"/><path d="M167.52961,155.32328c0.29297,-1.08906 1.17031,-1.90235 2.29219,-2.11329c1.70625,-0.325 3.47813,-0.4875 5.26641,-0.4875c9.39531,0 17.99454,4.5836 23.24454,12.17502c4.19375,-3.25079 9.6875,-6.0797 16.17344,-8.32267l-0.12969,-4.7461c-0.16328,-6.63204 6.95703,-12.01252 16.23828,-12.25627c18.64375,-0.4875 36.52423,4.94142 48.03282,14.56409c9.65547,2.3086 17.86407,5.80314 23.74844,10.11096c6.64844,4.87579 10.17578,10.66252 10.17578,16.74222c0,10.1758 -9.72031,19.21332 -26.65782,24.77349c-5.28281,1.75547 -11.08594,3.07188 -17.2625,3.95001c-5.42969,6.69689 -13.37813,10.59846 -22.00938,10.74455h-0.1625c-2.38906,0 -4.63281,-0.91016 -6.35547,-2.56797c-1.74704,-1.69106 -2.7525,-4.00569 -2.79609,-6.43673l-0.01641,-1.18672c-1.78828,-0.19531 -3.56016,-0.42266 -5.31563,-0.68281c-2.94219,4.19376 -7.75313,6.71329 -12.9711,6.71329c-8.76172,0 -15.89766,-7.13595 -15.89766,-15.89769v-0.09766c-1.75547,-1.00781 -3.34844,-2.09688 -4.81172,-3.21876c-5.25,7.59142 -13.86563,12.17502 -23.24454,12.17502c-1.7875,0 -3.55938,-0.1625 -5.26641,-0.4875c-1.10547,-0.21172 -1.98281,-1.04063 -2.27578,-2.12969c-0.29219,-1.07266 0.06484,-2.22735 0.92656,-2.9586c6.66454,-5.65406 10.50659,-13.95202 10.50659,-22.69184c0,-8.73983 -3.84205,-17.03778 -10.50659,-22.69184c-0.86172,-0.73203 -1.21953,-1.88594 -0.92656,-2.97501z"/></g><g data-paper-data="{&quot;index&quot;:null}" fill="#4ec8d8"><path d="M218.81322,172.61863c-0.4875,-1.52813 0.37422,-3.16954 1.90156,-3.65704c8.77735,-2.77969 19.18047,-4.2422 30.05548,-4.2422c1.60938,0 2.92578,1.30078 2.92578,2.92579c0,1.60938 -1.30078,2.92579 -2.92578,2.92579c-10.28906,0 -20.075,1.36563 -28.2836,3.96641c-0.29297,0.09766 -0.58516,0.12969 -0.87813,0.12969c-1.27447,-0.01376 -2.39875,-0.83741 -2.79609,-2.04844z"/><path d="M176.89133,158.6225c7.68828,0.61719 14.51563,5.12032 18.09141,12.04455c0.14402,0.24025 0.30704,0.46858 0.4875,0.68281c1.12188,1.17031 2.975,1.20313 4.12891,0.08125c4.12891,-3.96641 10.61485,-7.42892 18.72579,-9.99689c9.54219,-3.00704 20.75782,-4.60001 32.42891,-4.60001c9.11953,0 17.81563,0.94219 25.86172,2.81172l3.23438,0.8125c-9.15156,12.09377 -9.15156,28.95006 -0.01641,41.04383c-4.1125,1.12188 -8.51719,1.98282 -13.15,2.60079c-5.15234,0.68281 -10.50078,1.02422 -15.91328,1.02422c-6.79453,0 -13.44219,-0.53672 -19.76563,-1.60938c-13.76797,-2.32422 -25.21172,-7.0547 -31.38829,-13.00393c-1.17031,-1.12188 -3.00703,-1.07266 -4.12891,0.08125c-0.1625,0.17891 -0.29219,0.35781 -0.40625,0.53672c-0.01641,0.04844 -0.04844,0.09766 -0.08125,0.1625c0,0.01641 -0.01641,0.01641 -0.01641,0.03281c-3.59219,6.92501 -10.41875,11.41096 -18.09141,12.02893c5.07188,-6.29064 7.8836,-14.15784 7.8836,-22.36645c0,-8.20861 -2.81172,-16.07581 -7.8836,-22.36645z"/></g><path d="M225.2015,208.36323c-1.76564,1.37339 -3.93967,2.11722 -6.17656,2.11329c-4.48672,0 -8.28985,-2.94219 -9.59063,-7.00626c4.64922,1.99922 9.94766,3.64141 15.76719,4.89298z" data-paper-data="{&quot;index&quot;:null}" fill="#92e4ea"/><path d="M220.71634,168.96159c8.79375,-2.77891 19.18047,-4.2422 30.03907,-4.2422c1.625,0 2.92578,1.31641 2.92578,2.92579c0,1.62578 -1.31641,2.92579 -2.92578,2.92579c-10.27344,0 -20.0586,1.36563 -28.2836,3.96641c-0.29297,0.08125 -0.58516,0.12969 -0.87813,0.12969c-1.23516,0 -2.38984,-0.79688 -2.77969,-2.04844c-0.48828,-1.52735 0.37344,-3.16954 1.90156,-3.65704z" data-paper-data="{&quot;index&quot;:null}" fill="#663333"/><path d="M230.76087,145.39045c11.91485,-0.30859 23.42344,1.95079 32.83516,6.22579c-4.2616,-0.42709 -8.54206,-0.63856 -12.825,-0.63359c-10.79375,0 -21.24532,1.31719 -30.47813,3.80391l-0.08125,-3.1211c-0.08125,-2.82813 4.24219,-6.11173 10.54922,-6.27423zM250.77025,210.94761c2.76328,0 5.52734,-0.08125 8.25781,-0.26016c-3.64063,2.45391 -7.94844,3.83594 -12.4836,3.9172c-0.87813,0.01641 -1.72344,-0.30859 -2.35703,-0.92656c-0.63359,-0.60156 -0.99141,-1.43047 -1.00781,-2.32422l-0.01641,-0.60156c2.50313,0.14688 5.03906,0.22813 7.60703,0.19531z" data-paper-data="{&quot;index&quot;:null}" fill="#92e4ea"/><path d="M286.32026,176.60066c0,-1.85313 1.51172,-3.36485 3.36484,-3.36485c1.85313,0 3.36484,1.51172 3.36484,3.36485c0,1.85313 -1.51172,3.36485 -3.36484,3.36485c-1.85313,0 -3.36484,-1.49532 -3.36484,-3.36485z" data-paper-data="{&quot;index&quot;:null}" fill="#663333"/><path d="M285.86557,162.32876c12.92266,4.60079 20.8711,11.52502 20.8711,18.66097c0,7.07111 -7.77031,13.97971 -20.88829,18.64457c-9.3625,-10.63049 -9.3625,-26.67427 0.01641,-37.30476z" data-paper-data="{&quot;index&quot;:null}" fill="#92e4ea"/><path d="M293.04995,176.60066c0,1.85836 -1.50649,3.36485 -3.36484,3.36485c-1.85835,0 -3.36484,-1.50649 -3.36484,-3.36485c0,-1.85836 1.50649,-3.36485 3.36484,-3.36485c1.85835,0 3.36484,1.50649 3.36484,3.36485z" data-paper-data="{&quot;index&quot;:null}" fill="#663333"/></g></g></svg>