<svg xmlns="http://www.w3.org/2000/svg" width="145.143" height="80.915" viewBox="0 0 185.783 103.571" xmlns:v="https://vecta.io/nano"><g fill="#633"><path d="M34.206 76.918c11.984-13.607 11.984-34.143-.021-47.75-16.541 5.888-26.716 14.73-26.716 23.864 0 9.072 9.945 17.914 26.736 23.886zM88.843 91.94l.021-.77a167.93 167.93 0 0 1-9.737.291c-3.537 0-7.074-.125-10.57-.333a29.45 29.45 0 0 0 15.979 5.014c1.144.021 2.205-.395 3.017-1.186.811-.832 1.269-1.893 1.29-3.017zm29.378-76.422c.083-3.641-5.43-7.823-13.503-8.031-15.251-.395-29.982 2.476-42.029 7.969 5.347-.541 10.819-.811 16.416-.811 13.815 0 27.194 1.664 39.012 4.869zm1.54 75.277c5.743 0 10.611-3.787 12.276-8.968-5.951 2.559-12.733 4.681-20.182 6.263 2.205 1.727 4.973 2.705 7.906 2.705zm43.818-37.742c0-10.507 3.599-20.577 10.091-28.629-9.841.791-18.58 6.554-23.199 15.438a6.78 6.78 0 0 1-.624.874c-1.436 1.477-3.787 1.54-5.285.104-5.285-5.098-13.586-9.529-23.969-12.796-12.213-3.849-26.57-5.888-41.509-5.888-11.672 0-22.804 1.207-33.103 3.599-1.415.333-2.788.666-4.14 1.04 11.714 15.48 11.714 37.056.021 52.536 5.264 1.436 10.903 2.538 16.832 3.329 6.596.874 13.462 1.311 20.369 1.311 8.697 0 17.207-.687 25.3-2.06 17.623-2.975 32.271-9.03 40.177-16.645 1.477-1.436 3.849-1.394 5.285.104a3.29 3.29 0 0 1 .52.687.65.65 0 0 1 .104.208c0 .021.021.021.021.042 4.598 8.863 13.337 14.606 23.157 15.397-6.45-8.073-10.049-18.143-10.049-28.65z"/><path d="M185.655 20.2c.375 1.394-.083 2.871-1.186 3.808a38.09 38.09 0 0 0 0 58.091c1.103.936 1.56 2.414 1.186 3.787-.375 1.394-1.498 2.455-2.913 2.726-2.185.416-4.453.624-6.741.624-12.005 0-23.033-5.867-29.753-15.584-1.873 1.436-3.912 2.83-6.159 4.12v.125c0 11.215-9.134 20.349-20.349 20.349-6.679 0-12.837-3.225-16.603-8.593-2.247.333-4.515.624-6.804.874l-.021 1.519a11.76 11.76 0 0 1-3.579 8.239c-2.205 2.122-5.077 3.287-8.135 3.287h-.208c-11.048-.187-21.222-5.181-28.172-13.753-7.906-1.124-15.334-2.809-22.096-5.056C12.442 77.646 0 66.078 0 53.053c0-7.782 4.515-15.189 13.025-21.43 7.532-5.514 18.039-9.987 30.398-12.942C58.154 6.364 81.041-.585 104.905.039c11.88.312 20.994 7.199 20.785 15.688l-.166 6.075c8.302 2.871 15.334 6.492 20.702 10.653 6.72-9.717 17.727-15.584 29.753-15.584 2.289 0 4.557.208 6.741.624 1.436.27 2.559 1.311 2.934 2.705z"/></g><g fill="#4ec8d8"><path d="M120.011 42.338c.624-1.956-.479-4.057-2.434-4.681-11.235-3.558-24.551-5.43-38.471-5.43-2.06 0-3.745 1.665-3.745 3.745 0 2.06 1.665 3.745 3.745 3.745 13.17 0 25.696 1.748 36.203 5.077.375.125.749.166 1.124.166a3.81 3.81 0 0 0 3.579-2.622z"/><path d="M173.67 24.424c-6.492 8.052-10.091 18.122-10.091 28.629s3.599 20.577 10.091 28.629c-9.821-.791-18.559-6.533-23.157-15.397 0-.021-.021-.021-.021-.042-.042-.083-.083-.146-.104-.208-.146-.229-.312-.458-.52-.687-1.436-1.477-3.787-1.54-5.285-.104-7.906 7.615-22.554 13.67-40.177 16.645-8.094 1.373-16.603 2.06-25.3 2.06-6.928 0-13.774-.437-20.369-1.311-5.93-.791-11.568-1.893-16.832-3.329 11.693-15.48 11.693-37.056-.021-52.536l4.14-1.04c10.299-2.393 21.43-3.599 33.103-3.599 14.939 0 29.295 2.039 41.509 5.888 10.382 3.287 18.684 7.719 23.969 12.796 1.477 1.436 3.849 1.394 5.285-.104a6.72 6.72 0 0 0 .624-.874c4.577-8.863 13.316-14.627 23.157-15.417z"/></g><path d="M132.016 81.828c-1.665 5.202-6.533 8.968-12.276 8.968a12.84 12.84 0 0 1-7.906-2.705c7.449-1.602 14.231-3.704 20.182-6.263z" fill="#92e4ea"/><path d="M117.576 37.657c1.956.624 3.059 2.726 2.434 4.681-.499 1.602-1.977 2.622-3.558 2.622-.375 0-.749-.062-1.124-.166-10.528-3.329-23.053-5.077-36.203-5.077-2.06 0-3.745-1.664-3.745-3.745 0-2.06 1.665-3.745 3.745-3.745 13.899 0 27.194 1.873 38.45 5.43z" fill="#633"/><path d="M104.718 7.487c8.073.208 13.607 4.411 13.503 8.031l-.104 3.995c-11.818-3.183-25.196-4.869-39.012-4.869a162.73 162.73 0 0 0-16.416.811c12.047-5.472 26.778-8.364 42.029-7.969zM88.843 91.149l-.021.77c-.021 1.144-.479 2.205-1.29 2.975-.811.791-1.893 1.207-3.017 1.186-5.805-.104-11.319-1.873-15.979-5.014 3.495.229 7.033.333 10.57.333 3.287.042 6.533-.062 9.737-.25z" fill="#92e4ea"/><path d="M33.602 47.435c0-2.372-1.935-4.307-4.307-4.307s-4.307 1.935-4.307 4.307 1.935 4.307 4.307 4.307 4.307-1.914 4.307-4.307z" fill="#633"/><path d="M34.185 29.168c12.005 13.607 12.005 34.143.021 47.75C17.415 70.947 7.469 62.104 7.469 53.053c0-9.134 10.174-17.997 26.715-23.886z" fill="#92e4ea"/><path d="M24.988 47.435a4.307 4.307 0 1 0 8.614 0 4.307 4.307 0 1 0-8.614 0z" fill="#633"/></svg>