<svg version="1.1" xmlns="http://www.w3.org/2000/svg" xmlns:xlink="http://www.w3.org/1999/xlink" width="140" height="117.34297" viewBox="0,0,140,117.34297"><g transform="translate(-170,-121.32851)"><g data-paper-data="{&quot;isPaintingLayer&quot;:true}" fill-rule="nonzero" stroke="none" stroke-width="1" stroke-linecap="butt" stroke-linejoin="miter" stroke-miterlimit="10" stroke-dasharray="" stroke-dashoffset="0" style="mix-blend-mode: normal"><path d="M215.16137,176.65474c-5.48941,2.08521 -10.73857,3.78584 -13.78112,1.69769c-3.06824,-3.527 1.90135,-7.67256 7.61309,-11.87525c-7.2849,0.737 -14.0886,1.30833 -13.58554,-3.59817c0.59897,-5.8422 6.23348,-6.61993 13.39438,-6.41093c-8.10171,-3.06477 -14.349,-5.97325 -11.14181,-12.10264c2.64564,-5.05616 7.56829,-2.19499 14.10547,4.14462c-3.49855,-4.00517 -6.60675,-7.68998 -7.01923,-9.9981c-1.37456,-7.69121 2.29782,-11.10106 8.56356,-9.75184c7.76039,1.67107 15.61131,19.6762 17.06235,33.78588l-6.35854,12.00929c-3.7057,0.38122 -5.87797,0.96952 -8.85261,2.09947z" data-paper-data="{&quot;index&quot;:null}" fill="#e7000d"/><g data-paper-data="{&quot;index&quot;:null}" fill="#000000"><path d="M211.15032,238.57488c-3.91597,0.45567 -7.12017,-0.72328 -9.31943,-3.05832c-1.73953,0.92226 -3.38928,1.65823 -4.744,1.78202c0.77267,-0.84181 2.22863,-1.71615 3.90115,-2.60078c-1.46195,-0.27624 -2.72677,-0.70784 -3.75668,-1.32447c1.27308,-0.2263 2.62279,-0.19011 4.04565,0.09632c-0.48589,-1.2883 -0.78535,-2.88347 -1.01139,-4.59952c1.13605,1.37717 1.9407,3.03048 2.38404,4.98483c1.54971,1.32681 3.4765,2.51708 5.85176,2.8175c6.09253,0.7706 15.28432,-5.38307 21.57359,-13.38766l1.56529,0.02409c-5.50372,7.24574 -13.86762,14.4954 -20.48997,15.26599z"/><path d="M210.11483,230.60398c-3.91598,0.45567 -7.12016,-0.72328 -9.31944,-3.05832c-1.73955,0.92226 -3.38928,1.65822 -4.744,1.782c0.77267,-0.84181 2.2286,-1.71614 3.90115,-2.60078c-1.46195,-0.27624 -2.72677,-0.70782 -3.75668,-1.32447c1.27308,-0.22628 2.6228,-0.1901 4.04568,0.09634c-0.4859,-1.2883 -0.78537,-2.88347 -1.01141,-4.59952c1.13605,1.37716 1.94073,3.03048 2.38404,4.98482c1.54971,1.32682 3.47653,2.51708 5.85176,2.81752c6.09254,0.7706 14.34835,-4.37318 20.63762,-12.37778l1.56529,0.02409c-5.5037,7.24573 -12.93164,13.48551 -19.554,14.2561z"/></g><path d="M292.50891,144.40505c5.01935,-1.22857 10.89717,-1.41789 17.17245,-1.12608c0.30427,0.01415 0.43287,0.39662 0.19616,0.58832c-3.75289,3.03911 -8.80346,5.77431 -14.73171,8.30397z" data-paper-data="{&quot;index&quot;:null}" fill="#fe5c00"/><path d="M297.2168,183.42878c-11.55902,30.14975 -43.34629,40.93816 -77.63802,40.64918c-28.49625,-1.32101 -50.06007,-33.79154 -49.5706,-58.02471c0.00966,-0.47778 0.61326,-0.68304 0.91145,-0.3096c5.42327,6.792 18.33881,10.08114 27.17866,6.80037c7.0558,-2.61864 10.61657,-11.5947 15.31568,-19.65032c4.04565,-6.93542 16.69632,-22.55941 31.49832,-28.80121c15.98997,-6.74276 35.50633,-1.54031 49.41479,19.93929c6.12603,11.93741 7.23988,25.03487 2.88973,39.39699z" data-paper-data="{&quot;index&quot;:null}" fill="#87c6c8"/><path d="M220.4457,186.19813c-3.73295,4.53286 -7.44795,8.61264 -11.12554,8.30803c-4.41343,-1.54133 -2.15358,-7.60562 0.72245,-14.08755c-5.96069,4.25245 -11.58566,8.1224 -13.58186,3.61219c-2.37686,-5.37033 2.13044,-8.83975 8.45254,-12.20921c-8.55523,1.35605 -15.42258,1.92827 -15.67692,-4.98483c-0.20981,-5.70263 5.48378,-5.65906 14.30426,-3.39545c-5.02418,-1.74319 -9.55054,-3.40175 -11.05331,-5.20155c-5.00755,-5.99736 -3.50935,-10.77951 2.60079,-12.71491c7.56772,-2.39709 23.31378,9.34529 31.57055,20.87846l0.43347,13.58183c-3.02895,2.16863 -4.6236,3.75667 -6.64644,6.21298z" data-paper-data="{&quot;index&quot;:null}" fill="#fc4742"/><path d="M273.26628,154.88451c-1.0606,-1.9563 0.64133,-4.93102 3.80138,-6.64422c3.16004,-1.7132 6.58155,-1.51613 7.64215,0.44017c1.0606,1.9563 -0.64133,4.93102 -3.80138,6.64422c-3.16004,1.7132 -6.58155,1.51613 -7.64215,-0.44017z" data-paper-data="{&quot;index&quot;:null}" fill="#febdd1" opacity="0.8"/><path d="M267.36688,148.8033c0.316,-0.18961 0.76673,-0.24123 1.12261,-0.30037c0.43369,-0.07206 0.87127,-0.11938 1.30939,-0.15432c0.08497,-0.00678 0.16998,-0.01307 0.25502,-0.01892c0.04298,-0.00313 0.08598,-0.00578 0.12902,-0.00795c0.0937,-0.0053 0.07966,-0.0373 0.11391,-0.11743c0.07846,-0.18352 0.1543,-0.37046 0.24607,-0.5478c0.08633,-0.16684 0.1851,-0.3284 0.27897,-0.49115c0.03582,-0.0621 0.07274,-0.12236 0.1127,-0.18185c0.1077,-0.15233 0.2875,-0.32911 0.35651,-0.50128c0.00599,-0.01492 0.0337,-0.02776 0.03547,-0.04318c0.0049,-0.04293 -0.08,-0.09366 -0.12137,-0.12866c-0.15158,-0.12827 -0.30423,-0.25529 -0.45808,-0.38083c-0.34616,-0.28251 -0.69757,-0.55996 -1.06313,-0.81711c-0.28253,-0.19876 -0.5889,-0.42502 -0.93125,-0.50267c0.50137,-0.02649 1.03623,0.21861 1.49413,0.3958c0.55362,0.21424 1.09755,0.45376 1.63608,0.70325c0.09244,0.04282 0.21351,-0.14611 0.28383,-0.21619c0.10084,-0.10049 0.20346,-0.1992 0.308,-0.29585c0.22726,-0.21015 0.46361,-0.41062 0.71013,-0.59786c0.11655,-0.08853 1.22892,-0.78322 1.2262,-0.7904c-0.35454,-0.93606 -0.70908,-1.8721 -1.06363,-2.80817c-0.00641,-0.01697 -0.01285,-0.03395 -0.01929,-0.05094c0.58362,0.79113 1.16724,1.58225 1.75086,2.37338c0.03497,0.04741 0.06993,0.09481 0.10491,0.14222c0.03716,0.05039 0.45661,-0.1283 0.53503,-0.15031c0.61137,-0.1716 1.24099,-0.25749 1.87594,-0.25059c0.1437,0.00156 0.28738,0.00635 0.43076,0.01622c0.01404,-0.12921 0.02679,-0.25856 0.03816,-0.38803c0.02828,-0.32184 0.04872,-0.64461 0.0546,-0.96767c0.00776,-0.42948 0.06106,-1.09545 -0.2389,-1.44951c0.23919,0.15723 0.36201,0.47248 0.4605,0.72892c0.14957,0.38945 0.25548,0.79589 0.34891,1.20193c0.04464,0.19403 0.08563,0.38889 0.12371,0.58432c0.0168,0.08623 0.03303,0.17257 0.0487,0.25902c0.02652,0.14636 0.02264,0.14738 0.17458,0.18161c0.39701,0.08943 0.7858,0.21398 1.16265,0.36737c1.23234,0.50158 2.28941,1.29955 3.2076,2.25164c-2.01048,-1.10148 -4.21617,-2.00947 -6.54862,-1.50339c-1.19211,0.25865 -2.27355,0.89494 -3.17938,1.699c-0.64744,0.5747 -1.27784,1.24121 -1.72933,1.98542c-0.7971,1.3139 -1.14945,2.86892 -1.02322,4.40397c0.07268,0.88384 0.26783,1.72531 0.53361,2.56938c0.22865,0.72618 0.58736,1.40299 0.92978,2.07955c-0.77179,-0.79181 -1.44865,-1.66971 -1.88688,-2.69354c-0.11466,-0.26792 -0.22052,-0.5336 -0.3143,-0.80959c-0.26299,-0.05665 -0.52962,-0.09823 -0.79647,-0.13179c-0.54906,-0.06902 -1.10324,-0.10082 -1.65003,-0.00136c0.65644,-0.42286 1.43464,-0.63908 2.19157,-0.80361c-0.23739,-1.06386 -0.23551,-2.21302 0.00565,-3.27471c0.01093,-0.0477 0.02157,-0.09547 0.03194,-0.1433c0.0187,-0.0986 -0.02275,-0.0722 -0.10997,-0.09184c-0.13848,-0.03119 -0.27725,-0.0611 -0.41635,-0.0894c-0.28024,-0.05701 -0.56185,-0.10702 -0.84498,-0.1474c-0.45222,-0.06448 -0.91184,-0.11087 -1.36356,-0.02519c0.04377,-0.02297 0.08753,-0.04592 0.13128,-0.06887c0.04196,-0.02517 -0.08353,0.04381 0,0z" data-paper-data="{&quot;index&quot;:null}" fill="#000000"/></g></g></svg>