<?xml version="1.0" encoding="UTF-8" standalone="no"?>
<svg
   version="1.1"
   id="Layer_1"
   x="0px"
   y="0px"
   viewBox="0 0 140 117.34297"
   enable-background="new 0 0 2560 1600"
   xml:space="preserve"
   sodipodi:docname="Cute-Bird.svg"
   width="140"
   height="117.34297"
   inkscape:version="1.2.2 (732a01da63, 2022-12-09)"
   xmlns:inkscape="http://www.inkscape.org/namespaces/inkscape"
   xmlns:sodipodi="http://sodipodi.sourceforge.net/DTD/sodipodi-0.dtd"
   xmlns="http://www.w3.org/2000/svg"
   xmlns:svg="http://www.w3.org/2000/svg"
   xmlns:rdf="http://www.w3.org/1999/02/22-rdf-syntax-ns#"
   xmlns:cc="http://creativecommons.org/ns#"
   xmlns:dc="http://purl.org/dc/elements/1.1/"><metadata
     id="metadata61"><rdf:RDF><cc:Work
         rdf:about=""><dc:format>image/svg+xml</dc:format><dc:type
           rdf:resource="http://purl.org/dc/dcmitype/StillImage" /><dc:title /></cc:Work></rdf:RDF></metadata><defs
     id="defs59" /><sodipodi:namedview
     pagecolor="#ffffff"
     bordercolor="#666666"
     borderopacity="1"
     objecttolerance="10"
     gridtolerance="10"
     guidetolerance="10"
     inkscape:pageopacity="0"
     inkscape:pageshadow="2"
     inkscape:window-width="1920"
     inkscape:window-height="1017"
     id="namedview57"
     showgrid="false"
     fit-margin-top="50"
     fit-margin-left="50"
     fit-margin-right="50"
     fit-margin-bottom="50"
     inkscape:zoom="0.121875"
     inkscape:cx="-1255.3846"
     inkscape:cy="746.66667"
     inkscape:window-x="-8"
     inkscape:window-y="-8"
     inkscape:window-maximized="1"
     inkscape:current-layer="Layer_1"
     inkscape:showpageshadow="2"
     inkscape:pagecheckerboard="0"
     inkscape:deskcolor="#d1d1d1" /><g
     id="g52"
     transform="matrix(0.08440079,0,0,0.08440079,-71.937904,-13.066497)"><path
       style="fill:#e7000d"
       inkscape:connector-curvature="0"
       id="path34"
       d="m 1871.119,785.4577 -75.3374,-142.2888 c 17.1923,-167.1748 110.2118,-380.5037 202.1587,-400.3029 74.2379,-15.9858 117.7491,24.4149 101.463,115.5421 -4.8872,27.3471 -41.7139,71.0056 -83.1655,118.4598 77.4539,-75.1131 135.7786,-109.0129 167.1248,-49.1064 37.9995,72.6224 -36.0198,107.0828 -132.0107,143.3949 84.844,-2.4763 151.603,6.7385 158.6997,75.9582 5.9604,58.1334 -74.6514,51.3641 -160.9646,42.632 67.6741,49.7945 126.5549,98.912 90.2017,140.7007 -36.0488,24.7409 -98.2421,4.5914 -163.2819,-20.1146 -35.2442,-13.3879 -60.9818,-20.3582 -104.8878,-24.875 z" /><g
       id="g40"><path
         inkscape:connector-curvature="0"
         id="path36"
         d="m 1780.7607,1363.1018 18.5459,-0.2854 c 74.5168,94.8403 183.4232,167.7504 255.6089,158.6201 28.1426,-3.5594 50.9717,-17.6621 69.333,-33.3824 5.2527,-23.1556 14.7864,-42.7444 28.2466,-59.0614 -2.6782,20.3322 -6.2263,39.2321 -11.9832,54.4962 16.8584,-3.3937 32.8501,-3.8224 47.9338,-1.1412 -12.2026,7.306 -27.1885,12.4196 -44.51,15.6926 19.8164,10.4813 37.0669,20.8406 46.2217,30.8146 -16.051,-1.4667 -35.5977,-10.1866 -56.208,-21.1138 -26.0574,27.6661 -64.0215,41.6346 -110.4188,36.2357 -78.4632,-9.1302 -177.5606,-95.0258 -242.7699,-180.875 z" /><path
         inkscape:connector-curvature="0"
         id="path38"
         d="m 1804.1191,1280.6261 18.5459,-0.2854 c 74.5168,94.8403 172.3335,155.785 244.5193,146.6548 28.1423,-3.5596 50.9717,-17.6621 69.333,-33.3826 5.2524,-23.1555 14.7864,-42.7444 28.2466,-59.0613 -2.6782,20.3322 -6.2263,39.2321 -11.9834,54.4962 16.8586,-3.3938 32.8503,-3.8224 47.9341,-1.1414 -12.2026,7.3062 -27.1885,12.4197 -44.51,15.6926 19.8167,10.4814 37.0669,20.8407 46.2217,30.8146 -16.051,-1.4666 -35.5974,-10.1865 -56.208,-21.1136 -26.0576,27.6661 -64.0215,41.6346 -110.4189,36.2357 -78.4633,-9.1302 -166.4712,-83.0605 -231.6803,-168.9096 z" /></g><path
       style="fill:#fe5c00"
       inkscape:connector-curvature="0"
       id="path42"
       d="m 1059.5753,428.231 c -59.4704,-14.5564 -129.1122,-16.7995 -203.4632,-13.342 -3.6051,0.1676 -5.1288,4.6993 -2.3242,6.9705 44.4651,36.0081 104.3054,68.4153 174.5447,98.3873 z" /><path
       style="fill:#87c6c8"
       inkscape:connector-curvature="0"
       id="path44"
       d="m 1038.0334,423.8085 c 164.7906,-254.4953 396.0249,-316.1351 585.4778,-236.2453 175.3774,73.9543 325.2655,259.071 373.1993,341.2434 55.6761,95.4448 97.8649,201.7952 181.4637,232.8215 104.7366,38.8713 257.7629,-0.0992 322.019,-80.5724 3.533,-4.4246 10.6846,-1.9927 10.7991,3.6682 5.7993,287.1201 -249.6938,671.8385 -587.3239,687.4901 -406.2964,3.4238 -782.9193,-124.3997 -919.8732,-481.6209 -51.5416,-170.1657 -38.3444,-325.3474 34.2382,-466.7846 z" /><path
       style="fill:#fc4742"
       inkscape:connector-curvature="0"
       id="path46"
       d="m 1834.6483,849.7922 5.1359,-160.9207 c 97.8282,-136.6476 284.3911,-275.7741 374.0552,-247.3728 72.3943,22.9311 90.1453,79.5911 30.8147,150.6492 -17.8052,21.3245 -71.4346,40.9755 -130.9622,61.6292 104.5071,-26.8197 171.9661,-27.336 169.4802,40.2301 -3.0134,81.908 -84.3794,75.1282 -185.7437,59.0614 74.9058,39.9221 128.3093,81.0286 100.1477,144.6575 -23.6514,53.438 -90.2974,7.5859 -160.921,-42.7981 34.0758,76.7994 60.851,148.6505 8.5597,166.9125 -43.573,3.609 -87.5892,-44.7291 -131.818,-98.4355 -23.967,-29.1029 -42.8608,-47.9184 -78.7485,-73.6128 z" /><ellipse
       style="opacity:0.8;fill:#febdd1"
       id="ellipse48"
       ry="77.116096"
       rx="47.740601"
       cy="515.62567"
       cx="1219.7921"
       enable-background="new    "
       transform="matrix(0.4766,-0.8791,0.8791,0.4766,185.1342,1342.2125)" /><path
       inkscape:connector-curvature="0"
       id="path50"
       d="m 1357.4639,480.3424 c -3.744,-2.2466 -9.0844,-2.8582 -13.301,-3.5589 -5.1385,-0.8538 -10.323,-1.4145 -15.514,-1.8284 -1.0068,-0.0803 -2.014,-0.1548 -3.0215,-0.2242 -0.5092,-0.0371 -1.0187,-0.0685 -1.5286,-0.0942 -1.1102,-0.0628 -0.9438,-0.4419 -1.3496,-1.3913 -0.9296,-2.1744 -1.8282,-4.3893 -2.9155,-6.4905 -1.0228,-1.9767 -2.1931,-3.8909 -3.3053,-5.8193 -0.4244,-0.7358 -0.8618,-1.4498 -1.3353,-2.1546 -1.2761,-1.8049 -3.4064,-3.8994 -4.224,-5.9393 -0.071,-0.1768 -0.3993,-0.3289 -0.4202,-0.5116 -0.058,-0.5086 0.9478,-1.1097 1.438,-1.5244 1.7959,-1.5198 3.6046,-3.0247 5.4274,-4.5122 4.1014,-3.3472 8.265,-6.6345 12.5962,-9.6813 3.3475,-2.3549 6.9774,-5.0357 11.0337,-5.9558 -5.9404,-0.3139 -12.2775,2.5901 -17.7028,4.6895 -6.5594,2.5384 -13.004,5.3762 -19.3846,8.3323 -1.0952,0.5073 -2.5297,-1.7311 -3.3629,-2.5615 -1.1948,-1.1906 -2.4106,-2.3602 -3.6492,-3.5053 -2.6926,-2.4899 -5.493,-4.8651 -8.4138,-7.0836 -1.3809,-1.0489 -14.5605,-9.2798 -14.5283,-9.3648 4.2007,-11.0906 8.4014,-22.1811 12.6021,-33.2718 0.076,-0.2011 0.1523,-0.4023 0.2286,-0.6035 -6.9149,9.3735 -13.8297,18.7469 -20.7446,28.1204 -0.4143,0.5617 -0.8286,1.1233 -1.243,1.685 -0.4403,0.597 -5.41,-1.5201 -6.3392,-1.7809 -7.2437,-2.0332 -14.7035,-3.0508 -22.2266,-2.969 -1.7026,0.0185 -3.405,0.0752 -5.1038,0.1922 -0.1663,-1.5309 -0.3174,-3.0635 -0.4521,-4.5975 -0.3351,-3.8132 -0.5773,-7.6375 -0.6469,-11.4652 -0.092,-5.0886 -0.7234,-12.9791 2.8306,-17.1741 -2.834,1.8629 -4.2892,5.5981 -5.4561,8.6364 -1.7721,4.6143 -3.027,9.4299 -4.134,14.2408 -0.5289,2.2989 -1.0146,4.6077 -1.4657,6.9232 -0.1991,1.0217 -0.3914,2.0446 -0.577,3.0689 -0.3142,1.7341 -0.2683,1.7462 -2.0685,2.1518 -4.7039,1.0596 -9.3103,2.5353 -13.7753,4.3527 -14.601,5.9428 -27.1254,15.3974 -38.0044,26.678 23.8206,-13.0506 49.9542,-23.8087 77.5896,-17.8125 14.1244,3.0646 26.9376,10.6034 37.67,20.1301 7.671,6.8092 15.1401,14.7061 20.4895,23.5237 9.4442,15.5674 13.619,33.9916 12.1234,52.1793 -0.8611,10.4719 -3.1733,20.4419 -6.3223,30.4426 -2.7091,8.6039 -6.9592,16.623 -11.0162,24.639 9.1443,-9.3816 17.1639,-19.7831 22.3562,-31.9137 1.3585,-3.1744 2.6128,-6.3222 3.7239,-9.5922 3.116,-0.6712 6.2751,-1.1639 9.4368,-1.5615 6.5054,-0.8178 13.0714,-1.1945 19.5499,-0.0161 -7.7776,-5.0102 -16.9979,-7.572 -25.9662,-9.5213 2.8127,-12.6049 2.7904,-26.2204 -0.067,-38.7995 -0.1295,-0.5652 -0.2556,-1.1311 -0.3784,-1.6978 -0.2216,-1.1682 0.2695,-0.8554 1.303,-1.0881 1.6407,-0.3695 3.2849,-0.7239 4.933,-1.0592 3.3203,-0.6755 6.6569,-1.268 10.0115,-1.7464 5.358,-0.764 10.8037,-1.3136 16.1558,-0.2984 -0.5186,-0.2722 -1.0371,-0.5441 -1.5554,-0.816 -0.4971,-0.2982 0.9897,0.5191 0,0 z" /></g></svg>
