<svg width="140" height="55.052" xmlns="http://www.w3.org/2000/svg"><defs><linearGradient id="prefix__i" y2="129.9" gradientUnits="userSpaceOnUse" x2="324.01" gradientTransform="matrix(.97368 0 0 .97368 46.324 573.97)" y1="109.34" x1="324.01"><stop offset="0" stop-color="#ffaa87"/><stop offset="1" stop-color="#ff9530"/></linearGradient><linearGradient id="prefix__h" y2="108.31" gradientUnits="userSpaceOnUse" x2="324.01" gradientTransform="matrix(.97368 0 0 .97368 46.324 573.97)" y1="149.11" x1="324.01"><stop offset="0" stop-color="#ff9c00"/><stop offset=".21" stop-color="#ff9000"/><stop offset=".591" stop-color="#ff7000"/><stop offset="1" stop-color="#ff4700"/></linearGradient><linearGradient id="prefix__g" y2="146.64" gradientUnits="userSpaceOnUse" x2="314.79" gradientTransform="matrix(.97368 0 0 .97368 46.324 573.97)" y1="98.829" x1="338.7"><stop offset="0"/><stop offset=".122" stop-color="#030303"/><stop offset=".195" stop-color="#0b0b0b"/><stop offset=".255" stop-color="#191919"/><stop offset=".309" stop-color="#2d2d2e"/><stop offset=".357" stop-color="#474848"/><stop offset=".403" stop-color="#676868"/><stop offset=".446" stop-color="#8d8e8f"/><stop offset=".485" stop-color="#b8b9ba"/><stop offset=".521" stop-color="#e6e7e8"/><stop offset=".546" stop-color="#c7c8c9"/><stop offset=".588" stop-color="#99999a"/><stop offset=".633" stop-color="#707071"/><stop offset=".68" stop-color="#4d4d4e"/><stop offset=".729" stop-color="#313131"/><stop offset=".781" stop-color="#1b1b1b"/><stop offset=".839" stop-color="#0c0c0c"/><stop offset=".905" stop-color="#030303"/><stop offset="1"/></linearGradient><linearGradient id="prefix__f" y2="149.62" gradientUnits="userSpaceOnUse" x2="324.01" gradientTransform="matrix(.97368 0 0 .97368 46.324 573.97)" y1="106.71" x1="324.01"><stop offset="0"/><stop offset=".461" stop-color="#6d6e70"/><stop offset="1" stop-color="#fff"/></linearGradient><linearGradient id="prefix__d" y2="100.32" gradientUnits="userSpaceOnUse" x2="324.01" gradientTransform="matrix(.97368 0 0 .97368 46.324 573.97)" y1="152.53" x1="324.01"><stop offset="0"/><stop offset=".143" stop-color="#020202"/><stop offset=".219" stop-color="#0a0a0a"/><stop offset=".279" stop-color="#171718"/><stop offset=".331" stop-color="#2a2a2b"/><stop offset=".378" stop-color="#424344"/><stop offset=".42" stop-color="#5f6062"/><stop offset=".436" stop-color="#6d6e70"/><stop offset="1" stop-color="#fff"/></linearGradient><linearGradient id="prefix__c" y2="127.52" gradientUnits="userSpaceOnUse" x2="394.99" gradientTransform="matrix(.97368 0 0 .97368 46.324 573.97)" y1="127.52" x1="253.03"><stop offset="0" stop-color="#a2a4a5"/><stop offset="1" stop-color="#d0d2d3"/></linearGradient><linearGradient id="prefix__b" y2="128.21" gradientUnits="userSpaceOnUse" x2="394.99" gradientTransform="matrix(.97368 0 0 .97368 46.324 573.97)" y1="128.21" x1="253.03"><stop offset="0" stop-color="#6d6e70"/><stop offset="1" stop-color="#bbbdbf"/></linearGradient><linearGradient id="prefix__a" y2="128.21" gradientUnits="userSpaceOnUse" x2="395.9" gradientTransform="matrix(.97368 0 0 .97368 46.324 573.97)" y1="128.21" x1="252.12"><stop offset="0"/><stop offset="1" stop-color="#58595b"/></linearGradient><radialGradient id="prefix__e" gradientUnits="userSpaceOnUse" cy="96.179" cx="323.6" gradientTransform="matrix(.97368 0 0 .97368 46.324 573.97)" r="127.24"><stop offset=".145" stop-color="#fff"/><stop offset=".57" stop-color="#d4d4d4"/><stop offset="1" stop-color="#f3f3f3"/></radialGradient></defs><path d="M431.806 698.806c0 15.202-12.322 27.527-27.529 27.527h-84.945c-15.204 0-27.526-12.326-27.526-27.527 0-15.202 12.321-27.525 27.526-27.525h84.945c15.207-.001 27.529 12.323 27.529 27.525z" fill="url(#prefix__a)" transform="translate(-291.806 -671.281)"/><path d="M430.92 698.806c0 14.733-12.203 26.677-27.257 26.677H319.95c-15.054 0-27.257-11.945-27.257-26.677 0-14.73 12.203-26.674 27.257-26.674h83.712c15.054 0 27.257 11.943 27.257 26.674z" fill="url(#prefix__b)" transform="translate(-291.806 -671.281)"/><path d="M430.92 698.806c0 14.733-15.519 24.846-27.257 25.34H319.95c-11.726-.494-27.257-10.607-27.257-25.34 0-14.73 12.203-26.674 27.257-26.674h83.712c15.054 0 27.257 11.943 27.257 26.674z" fill="url(#prefix__c)" transform="translate(-291.806 -671.281)"/><path d="M430.92 698.806c0 14.733-15.519 23.277-27.257 23.864H319.95c-11.726-.588-27.257-9.131-27.257-23.864 0-14.73 12.203-26.674 27.257-26.674h83.712c15.054 0 27.257 11.943 27.257 26.674z" fill="url(#prefix__d)" transform="translate(-291.806 -671.281)"/><path d="M403.657 672.137h-83.712c-15.054 0-27.257 11.943-27.257 26.674 0 1.4.142 2.739.406 4.02 26.867 1.007 15.208 1.551 45.06 1.551 32.44 0 63.554-.642 92.4-1.82.229-1.204.36-2.45.36-3.751 0-14.73-12.203-26.674-27.257-26.674z" fill="url(#prefix__e)" transform="translate(-291.806 -671.281)"/><path d="M404.28 677.872h-84.945c-11.542 0-20.933 9.392-20.933 20.931 0 11.543 9.392 20.934 20.933 20.934h84.945c11.544 0 20.932-9.392 20.932-20.934 0-11.539-9.388-20.931-20.932-20.931z" fill="url(#prefix__f)" transform="translate(-291.806 -671.281)"/><path d="M403.706 678.524h-83.799c-11.442 0-20.744 9.104-20.744 20.286 0 11.188 9.302 20.288 20.744 20.288h83.799c11.441 0 20.743-9.1 20.743-20.288 0-11.182-9.302-20.286-20.743-20.286z" fill="url(#prefix__g)" transform="translate(-291.806 -671.281)"/><path d="M403.014 679.225H320.59c-11.316 0-20.514 8.785-20.514 19.583 0 10.798 9.198 19.583 20.514 19.583h82.425c11.312 0 20.51-8.785 20.51-19.583 0-10.798-9.198-19.583-20.51-19.583z" fill="url(#prefix__h)" transform="translate(-291.806 -671.281)"/><path d="M400.064 679.848h-76.516c-14.518 0-19.521 8.338-19.521 12.888 0 5.762 8.757 8.021 19.521 8.021h76.516c10.769 0 19.525-1.472 19.525-7.239 0-6.801-6.073-13.67-19.525-13.67z" fill="url(#prefix__i)" transform="translate(-291.806 -671.281)"/></svg>