<svg width="96.25" height="140" viewBox="0 0 123.2 179.2" class="prefix__icon" xmlns="http://www.w3.org/2000/svg"><path d="M67.2 134.4H56v8.098l-33.998 21.24c3.444 1.82 5.824 5.354 5.959 9.481L56 155.702v8.255c1.652-.963 3.55-1.551 5.6-1.551s3.948.588 5.6 1.55v-8.254l28.04 17.523a11.144 11.144 0 015.952-9.481L67.2 142.498zM5.6 95.2h5.6v11.2H5.6zm106.4 0h5.6v11.2H112z" fill="#dae2e5"/><path d="M100.80000000000001 173.6a5.6 5.6 0 1011.2 0 5.6 5.6 0 10-11.2 0zM56 173.6a5.6 5.6 0 1011.2 0 5.6 5.6 0 10-11.2 0zM11.200000000000001 173.6a5.6 5.6 0 1011.2 0 5.6 5.6 0 10-11.2 0z" fill="#434854"/><path d="M100.8 106.4V11.2A11.2 11.2 0 0089.6 0h-56a11.2 11.2 0 00-11.2 11.2v95.2z" fill="#469fcc"/><path d="M56 134.4h11.2v5.6H56z"/><path d="M123.2 95.2V56a5.6 5.6 0 00-5.6-5.6H112a5.6 5.6 0 00-5.6 5.6v39.2zm-106.4 0V56a5.6 5.6 0 00-5.6-5.6H5.6A5.6 5.6 0 000 56v39.2z" fill="#434854"/><path d="M5.6 95.2h5.6v5.6H5.6zm106.4 0h5.6v5.6H112zM22.4 100.8h78.4v5.6H22.4z"/><path d="M117.6 106.4H5.6A5.6 5.6 0 000 112a22.4 22.4 0 0022.4 22.4h78.4a22.4 22.4 0 0022.4-22.4 5.6 5.6 0 00-5.6-5.6z" fill="#434854"/><path d="M72.80000000000001 22.4a5.6 5.6 0 1011.2 0 5.6 5.6 0 10-11.2 0zM56 44.8a5.6 5.6 0 1011.2 0 5.6 5.6 0 10-11.2 0zM39.199999999999996 22.4a5.6 5.6 0 1011.2 0 5.6 5.6 0 10-11.2 0zM72.80000000000001 67.2a5.6 5.6 0 1011.2 0 5.6 5.6 0 10-11.2 0zM39.199999999999996 67.2a5.6 5.6 0 1011.2 0 5.6 5.6 0 10-11.2 0z"/></svg>