<svg width="84.903" height="140" xmlns:xlink="http://www.w3.org/1999/xlink" xmlns="http://www.w3.org/2000/svg"><defs><filter id="prefix__g" height="1.422" width="1.18" color-interpolation-filters="sRGB" y="-.211" x="-.09"><feGaussianBlur stdDeviation="1.034"/></filter><filter id="prefix__h" color-interpolation-filters="sRGB" x="-.023" y="-.085" width="1.046" height="1.169"><feGaussianBlur stdDeviation=".143"/></filter><filter id="prefix__i" color-interpolation-filters="sRGB" x="-.023" y="-.085" width="1.046" height="1.169"><feGaussianBlur stdDeviation=".143"/></filter><filter id="prefix__j" height="1.812" width="1.094" color-interpolation-filters="sRGB" y="-.406" x="-.047"><feGaussianBlur stdDeviation=".71"/></filter><filter id="prefix__k" color-interpolation-filters="sRGB" x="-.026" y="-.062" width="1.053" height="1.123"><feGaussianBlur stdDeviation=".375"/></filter><filter id="prefix__f" color-interpolation-filters="sRGB" x="-.04" y="-.026" width="1.079" height="1.053"><feGaussianBlur stdDeviation=".268"/></filter><filter id="prefix__d" height="2.15" width="1.287" color-interpolation-filters="sRGB" y="-.412" x="-.144"><feGaussianBlur result="blur" stdDeviation="2" in="SourceAlpha"/><feColorMatrix values="1 0 0 0 0 0 1 0 0 0 0 0 1 0 0 0 0 0 0.5 0" result="bluralpha"/><feOffset result="offsetBlur" dy="4" in="bluralpha"/><feMerge><feMergeNode in="offsetBlur"/><feMergeNode in="SourceGraphic"/></feMerge></filter><filter id="prefix__l" x="-.005" y="-.007" width="1.01" height="1.014"><feGaussianBlur stdDeviation=".665"/></filter><linearGradient id="prefix__a"><stop offset="0" stop-color="#ebc99a"/><stop offset=".782" stop-color="#fcebd3"/><stop offset="1" stop-color="#fff"/></linearGradient><linearGradient id="prefix__c" y2="472.99" xlink:href="#prefix__a" gradientUnits="userSpaceOnUse" x2="53.08" gradientTransform="matrix(.55803 0 0 .6067 69.093 147.28)" y1="472.79" x1="38.529"/><linearGradient id="prefix__b" y2="472.99" xlink:href="#prefix__a" gradientUnits="userSpaceOnUse" x2="53.08" gradientTransform="matrix(.55803 0 0 .60053 -64.06 150.314)" y1="472.79" x1="38.529"/><linearGradient id="prefix__e" y2="868.73" gradientUnits="userSpaceOnUse" x2="262.33" y1="1047.4" x1="262.33" gradientTransform="matrix(.18506 0 0 .18506 18.858 244.301)"><stop offset="0" stop-color="#5a7ee4"/><stop offset="1" stop-color="#1b72d3"/></linearGradient></defs><g transform="translate(-23.14 -299.778)"><rect transform="scale(-1 1)" ry="0" height="15.261" width="10.064" y="423.41" x="-43.932" fill="url(#prefix__b)" stroke="#000" stroke-width=".29"/><rect ry="0" height="15.418" width="10.064" y="423.181" x="89.221" fill="url(#prefix__c)" stroke="#000" stroke-width=".292"/><path d="M64.346 401.736c-2.681-.635-5.405-2.595-6.565-4.726-.48-.881-.874-1.685-.874-1.787 0-.1.896-.05 1.99.114 4.402.66 11.948.767 14.79.21 1.522-.298 2.826-.486 2.896-.418.354.341-1.909 3.677-3.148 4.643-2.329 1.815-6.193 2.65-9.09 1.964z" fill="#fad8a8" stroke="#000" stroke-width=".18"/><path d="M72.402 962.21c-4.496 0-8.094 3.63-8.094 8.125 0 .996.175 1.933.5 2.813.63 0 1.725.121 3 .312 7.888 1.182 21.407 1.372 26.5.375 2.089-.409 3.906-.69 4.719-.75a8.06 8.06 0 00.469-2.75c0-4.496-3.598-8.125-8.094-8.125h-19z" transform="matrix(.55803 0 0 .55803 21.551 -147.967)" fill="#fad8a8" stroke="#000" stroke-width=".501" filter="url(#prefix__d)"/><path d="M50.516 395.102c-8.81 1.159-16.584 8.45-17.27 20.7-.061 1.097-1.638 11.347-1.489 12.402 1.999-.732 10.1 1.681 12.347 1.593l-.162 8.865h45.436l.131-8.968 11.339-2.132c.064-.699.058-9.051-.027-11.407-.387-10.727-5.231-22.43-18.854-22.113l-5.016.118c-.61 4.766-4.836 8.112-9.975 8.112-5.138 0-9.593-3.228-10.203-7.994z" fill="url(#prefix__e)" stroke="#000" stroke-width=".566"/><path d="M34.53 372.395l-.907-7.099s-.211-8.489-2.416-11.78c-.592-.884-3.097-.756-3.097-.756l-1.208-11.026c-1.386-.357-2.322.635-3.323 1.435 2.216-10.254 4.576-20.406 13.292-26.13-1.692-2.423-5.337-2.45-8.232-3.398 3.639-1.958 9.571-1.884 15.406-1.434-.833-2.54-4.736-4.734-7.703-6.496 3.908.79 8.01 1.717 10.95 5.211.281-3.448.581-7.187 4.23-9.062.29 1.844.003 3.462 1.208 4.758 3.56-2.726 6.642-5.915 13.518-6.495l-3.776 3.55c11.827.303 24.143 3.156 35.57 12.082-2.55-.053-4.94-.042-6.495.302 5.994 4.58 12.837 8.146 14.802 17.52-1.696-1.143-2.644-1.353-3.55-1.51 1.1 10.72-.001 19.322-4.908 27.64" fill="none" stroke="#000" stroke-width=".558"/><path d="M33.455 361.077c-.335-2.207-.981-4.476-2.028-6.826-.503-.53-.923-.554-1.359-.68 0 0-2.226.524-3.04 1.26-1.639 1.481-2.987 3.742-3.14 5.835-.259 2.308.622 5.651 1.49 7.63 2.7 4.64 4.916 5.574 7.367 7.053 1.949 1.057 2.61.982 3.705 1.146z" fill="#fff2e6" stroke="#000" stroke-width=".558"/><path d="M33.246 355.61c-.208 2.454-.14 5.122.27 7.897.599 4.073.486 7.749 2.05 10.517-.21.013-.204-.044-.417-.054-3.13-.15-8.373-4.8-9.213-9.321-1.073-5.777-.025-8.172 7.31-9.039z" fill="#fad8a8"/><path d="M49.471 361.66c2.05-2.019 4.801-3.75 5.695-6.243.822-1.961 1.591-3.94 1.364-6.244.014-.789-.217-1.6-.642-2.431-.654-.285-1.19-.151-1.684.131-1.865 2.547-3.54 5.25-4.171 8.807l-1.123 5.06L53 337.344c.56 2.223 1.281 4.512 1.444 6.572 2.425-3.063 3.814-4.104 4.894-4.535 2.776.132 5.316.598 5.775 4.01-1.55-1.472-3.103-2.85-4.733-1.775-1.15.431-2.299 1.198-3.449 3.023 1.037 1.051 1.77 2.103 2.166 3.154.125 3.117-.13 5.972-1.284 8.215-1.155 2.12-3.245 3.476-5.454 4.732z" transform="matrix(-.55803 0 0 .64515 62.856 139.051)" opacity=".435" filter="url(#prefix__f)"/><path d="M98.15 362.396c.335-2.207.982-4.476 2.028-6.825.504-.53.923-.554 1.36-.68 0 0 2.226.524 3.04 1.26 1.638 1.48 2.987 3.741 3.139 5.835.26 2.308-.622 5.65-1.49 7.63-2.699 4.64-4.915 5.574-7.366 7.052-1.949 1.058-2.61.983-3.705 1.147z" fill="#fff2e6" stroke="#000" stroke-width=".558"/><path d="M40.52 344.57s-2.694 2.102-3.287 2.584c-1.787 1.455-4.836 7.702-3.212 18.684 2.385 16.13 5.022 19.201 5.022 19.201 1.85 2.75 6.186 4.654 6.794 5.022 7.868 4.769 11.816 5.022 11.816 5.022s4.14.682 9.157.886c10.906.443 18.61-4.874 18.61-4.874s5.223-3.512 6.295-5.036c3.603-5.125 3.958-7.864 3.958-7.864s2.23-13.984 2.463-17.395c.33-4.835-.866-7.022-2.082-9.88-2.688-6.313-4.579-5.168-4.579-5.168l.59-9.896s.339-1.806-2.215-5.022c-1.249-1.573-4.256-3.926-5.908-5.022-1.808-1.2-6.646.296-6.646.296l3.692 5.76c-3.547-1.979-6.734-2.874-9.895-3.693l5.464 7.533c-7.698-4.033-16.544-7.757-26.585-9.453-4.179 1.597-8.27 3.294-9.748 7.976z" fill="#fff2e6"/><path d="M56.361 358.53a4.793 4.74 0 01-4.792 4.74 4.793 4.74 0 01-4.793-4.739 4.793 4.74 0 014.791-4.74 4.793 4.74 0 014.794 4.738l-4.793.002zM85.252 358.53a4.793 4.74 0 01-4.792 4.74 4.793 4.74 0 01-4.793-4.739 4.793 4.74 0 014.792-4.74 4.793 4.74 0 014.793 4.738l-4.792.002z"/><path d="M98.36 356.93c.208 2.453-.184 5.97-.593 8.746-.6 4.073-.487 6.333-1.728 9.667.21.014.205-.043.418-.053 3.129-.151 8.373-4.8 9.213-9.322 1.072-5.776.025-8.171-7.31-9.038z" fill="#fad8a8"/><path d="M40.52 344.57s-2.694 2.102-3.287 2.584c-1.787 1.455-4.836 7.702-3.212 18.684 2.385 16.13 5.022 19.201 5.022 19.201 1.85 2.75 6.186 4.654 6.794 5.022 7.868 4.769 11.816 5.022 11.816 5.022s4.14.682 9.157.886c10.906.443 18.61-4.874 18.61-4.874s5.947-4.474 6.79-5.931c4.6-4.851 5.485-22.23 5.915-24.976.177-1.75-.855-6.41-2.071-9.267-2.688-6.314-4.579-5.17-4.579-5.17l.59-9.895s.339-1.806-2.215-5.022c-1.249-1.573-4.256-3.926-5.908-5.021-1.808-1.2-6.646.295-6.646.295l3.692 5.76c-3.547-1.978-6.734-2.874-9.895-3.692 2.118 2.577 3.788 5.054 5.464 7.532-7.698-4.033-16.544-7.757-26.585-9.452-4.179 1.596-8.27 3.294-9.748 7.975z" fill="none" stroke="#000" stroke-width=".558"/><path d="M81.878 325.646c-.774-.005-4.038.477-4.156.62 0 0 .904 1.494 1.989 3.183 1.084 1.69 1.38 2.459 1.34 2.498-.04.04-.093.197-1.126-.32-1.032-.517-2.456-1.162-3.156-1.43-1.413-.54-4.725-1.542-4.801-1.466-.027.027 1.198 1.723 2.514 3.535 1.317 1.812 2.423 3.18 2.069 3.33-.384.162.175.047.058.145-.18.149-.51.01-2.77-1.115-7.594-3.775-14.191-6.122-21.518-7.638l-2.18-.453-1.57.662c-4.044 1.69-6.136 3.316-7.324 5.72l-.523 1.064.087 4.743c.053 2.609.132 5.001.175 5.319l.087.575-1.849 1.448c-1.431 1.12-1.848 1.522-1.848 1.779 0 .42 1.109 7.921 1.848 12.538.58 3.619 3.662 20.266 3.941 21.274.763 2.752 4.104 5.983 8.37 8.126 3.939 1.979 8.495 3.5 11.911 3.976 1.692.236 5.19.274 7.08.07 2.799-.301 5.496-1.2 9.522-3.174 4.376-2.145 6.977-4.356 8.492-7.236 1.452-2.76 1.884-4.06 2.372-6.976.936-5.593 2.37-15.243 3.07-20.717.444-3.488.868-6.386.94-6.435.17-.115-.97-1.879-1.656-2.564-.629-.628-1.06-.813-1.639-.697l-.436.087.087-1.116c.207-2.687.491-8.066.488-9.12-.002-.887-.072-1.342-.33-1.97-.811-1.97-2.19-3.64-4.657-5.65-2.89-2.356-3.356-2.606-4.9-2.616zm-31.597 27.621a4.7 4.7 0 01.576.018c3.964.393 8.924 2.595 8.893 6.766-.024 3.375-4.238 7.827-7.847 7.307-4.624-.668-7.85-6.023-8.597-8.999.702-2.508 4.051-5.035 6.976-5.092zm31.879.105c2.924.057 6.273 2.583 6.975 5.092-.747 2.976-3.973 8.33-8.597 8.998-3.609.521-7.822-3.932-7.847-7.306-.031-4.171 4.93-6.374 8.893-6.766.19-.02.38-.022.576-.018z" fill="#fad8a8"/><path d="M68.517 935.65c2.807 1.385 5.29 1.091 8.325 4.011 3.077 3.892 6.556 3.448 9.189.609 2.331-3.2 3.58-2.968 6.669-4.579 1.524-1.622 2.117-2.457 1.377-4.338a2.344 2.344 0 00-2.387-.474c-.602.81-1.6 1.363-3.317 2.518-2.56.881-5.288 1.256-7.726 1.439-4.869-.094-5.973-.605-8.876-1.668l-2.776-1.832c-.64-.722-1.542-.181-2.057.305-.215.959-.066 2.632 1.58 4.009z" transform="matrix(.55803 0 0 .55803 21.551 -147.967)" opacity=".933" fill="#cc9f6d" filter="url(#prefix__g)"/><path d="M60.082 372.278c.394.603-.091 2.148 3.364 1.95 1.206-.07 2.25 1.372 3.311 1.374 1.272.05 1.983-.824 2.937-1.375 1.194-.19 1.94-.09 2.483-.387.666-.364.962-1.203.962-1.562" fill="none" stroke="#000" stroke-width=".558"/><path d="M81.068 353.062c3.937 0 7.235 2.178 8.091 5.106-1.635-1.805-4.716-3.018-8.266-3.018-3.16 0-5.96.963-7.69 2.449 1.097-2.633 4.192-4.537 7.865-4.537zM51.314 352.986c-3.937 0-7.235 2.242-8.091 5.257 1.635-1.858 4.715-3.107 8.265-3.107 3.161 0 5.96.992 7.69 2.521-1.096-2.71-4.191-4.67-7.864-4.67z"/><path d="M97.066 920.55c.885 2.338 3.952 4.063 7.594 4.063 3.488 0 6.448-1.594 7.469-3.782-1.719 1.165-4.343 1.906-7.313 1.906-3.215 0-6.06-.853-7.75-2.187z" transform="matrix(.55803 0 0 .55803 21.551 -147.967)" opacity=".537" filter="url(#prefix__h)"/><path d="M62.894 920.26c-.885 2.338-3.952 4.063-7.594 4.063-3.488 0-6.448-1.593-7.469-3.782 1.719 1.165 4.343 1.906 7.313 1.906 3.215 0 6.06-.853 7.75-2.187z" transform="matrix(.55803 0 0 .55803 21.551 -147.967)" opacity=".537" filter="url(#prefix__i)"/><path d="M84.382 358.978a3.833 3.512 0 01-1.835 3.174 3.833 3.512 0 01-3.919.037 3.833 3.512 0 01-1.905-3.138l3.83.102z" fill="#7e7eb2"/><path d="M82.1 358.853a1.455 1.568 0 01-1.455 1.568 1.455 1.568 0 01-1.456-1.568 1.455 1.568 0 011.455-1.568 1.455 1.568 0 011.456 1.568h-1.455z"/><path d="M47.799 358.818a3.512 3.833 90 001.834 3.173 3.512 3.833 90 003.919.037 3.512 3.833 90 001.905-3.138l-3.83.102z" fill="#7e7eb2"/><path d="M50.266 358.466a1.455 1.568 0 001.455 1.568 1.455 1.568 0 001.455-1.567 1.455 1.568 0 00-1.455-1.568 1.455 1.568 0 00-1.455 1.567h1.455z"/><path d="M50.26 355.166a1.464 1.193-44.903 01.177 1.805 1.464 1.193-44.903 01-1.881.552 1.464 1.193-44.903 01-.177-1.805 1.464 1.193-44.903 011.88-.552l-.851 1.179zM51.58 355.627a.509.414-59.461 01.17.616.509.414-59.461 01-.597.304.509.414-59.461 01-.172-.615.509.414-59.461 01.598-.305l-.213.46zM79.48 355.166a1.464 1.193-44.903 01.177 1.805 1.464 1.193-44.903 01-1.88.552 1.464 1.193-44.903 01-.177-1.805 1.464 1.193-44.903 011.88-.552l-.851 1.179zM80.793 355.627a.509.414-59.461 01.171.616.509.414-59.461 01-.598.304.509.414-59.461 01-.172-.615.509.414-59.461 01.599-.305l-.214.46z" fill="#fff"/><path d="M50.526 366.373c-2.08-.461-3.428-1.436-4.96-3.584-.713-1.001-1.632-2.732-1.994-3.76-.275-.779-.16-1.001.916-1.772.84-.601 2.73-1.493 2.87-1.354.041.042-.055.375-.214.741-1.033 2.38-.07 4.988 2.29 6.202.888.457 2.671.556 3.72.208a4.705 4.705 0 002.738-2.407c.41-.835.482-1.146.482-2.1 0-.81-.088-1.317-.319-1.839-.175-.396-.319-.743-.319-.77 0-.028.281.05.625.17.954.337 2.186 1.088 2.609 1.59 1.337 1.589.669 4.669-1.524 7.029-.993 1.068-3.351 1.89-5.334 1.858-.374-.006-1.088-.101-1.586-.212z" fill="#fff"/><path d="M79.88 345.053c-.56.02-1.122.09-1.692.191-6.071 1.083-8.711 2.895-6.496 6.962 3.82-1.704 5.492-3.322 10.176-2.95 5.305.42 9.18 2.058 11.37 4.654.295-.044.977-.037 1.011-.086-.313-2.155-1.974-3.948-5.842-6.555-.933-.63-4.606-2.365-8.527-2.216zM52.358 344.903c.56.02 1.121.09 1.691.192 6.072 1.082 8.712 2.894 6.497 6.96-3.82-1.703-5.492-3.321-10.176-2.95-5.305.421-9.18 2.06-11.371 4.655-.294-.043-.977-.037-1.01-.086.313-2.155 1.974-3.947 5.841-6.555.934-.63 4.606-2.364 8.528-2.216z"/><path d="M78.734 366.679c-.935-.137-2.107-.54-2.608-.896-.119-.085-.266-.154-.328-.154-.061 0-.41-.314-.775-.697-1.745-1.833-2.542-3.897-2.2-5.696.137-.723.544-1.641.853-1.925.442-.405 2.515-1.456 2.635-1.336.016.016-.07.232-.192.48-.324.663-.456 1.263-.456 2.076 0 1.338.43 2.386 1.365 3.326.9.905 1.87 1.34 3.142 1.41 1.473.08 2.716-.388 3.733-1.409.917-.92 1.355-1.997 1.355-3.328 0-.99-.256-1.88-.752-2.616-.123-.18-.207-.329-.188-.329.019 0 .366.106.771.236 1.77.565 3.634 1.7 3.921 2.386.097.233.088.306-.127.949-.432 1.29-1.377 3.045-2.247 4.17-.91 1.18-2.223 2.454-2.524 2.454-.077 0-.335.1-.574.22-1.276.644-3.19.914-4.804.679z" fill="#fff"/><path d="M97.864 358.471c-.046-.207-.127-.853-.18-1.435-.14-1.525-.646-4.081-1.016-5.29-.175-.574-.731-1.782-1.2-2.696-.99-1.923-2.408-3.387-3.233-3.552-.367-.073-.688.165-.518-.425.002-.177.2-2.412.312-4.973.182-4.165.264-4.721.074-5.45-.614-2.36-2.292-4.622-5.53-7.196-2.864-2.275-3.498-2.572-5.977-2.29-1.176.132-3.449.668-3.63.76-.04.02.625 1.118 1.46 2.415.834 1.298 1.744 2.748 1.744 2.784 0 .037-.878-.446-1.397-.68-2.138-.963-7.708-2.491-8.18-2.644-.073.027 1.12 1.509 2.421 3.244 1.457 1.944 2.773 3.844 2.592 3.836.008.238-1.46-.72-2.531-1.229-7.72-3.666-13.962-5.766-21.016-7.22l-2.094-.433-1.568.649c-2.024.837-2.922 1.274-4.151 2.085-1.734 1.145-3.26 2.943-3.926 4.624-.305.772-.104.998-.01 5.595.055 2.617.15 4.87.188 5.078.06.331-.162.714-1.676 1.894-1.806 1.406-2.819 3.561-3.515 4.948-.929 1.848-1.632 3.272-1.902 6.09-.099 1.035-.119 1.562-.235 1.079-.656-2.726-1.498-4.565-2.11-5.016-.241-.124-.55-.271-.818-.307l-1.897-.251-.121-.773c-.046-.3-.29-2.465-.54-4.832-.252-2.367-.688-4.518-.53-4.87l-.26-.396-.378-.112c-.55 0-.837.018-1.307.286-.365.209-1.258.937-1.291.904-.11-.11 1.628-6.811 2.421-9.434 2.269-7.506 4.68-11.254 9.553-15.362.54-.456 1.272-.694 1.272-.759 0-.29-1.482-1.569-2.325-2.017-.524-.28-2.385-.852-2.928-.901-1.06-.097-2.602-.578-2.602-.638 0-.139 1.83-.611 3.356-.974 1.593-.378 6.602-.532 9.594-.253 1.244.116 2.094.168 2.12.144.026-.024-.07-.422-.335-.95-.622-1.234-2.026-2.545-3.941-3.801-.81-.532-2.191-1.373-2.156-1.39.041-.022 1.302.275 1.837.429 2.906.838 5.024 1.91 6.742 3.662.555.566.995 1.12.997 1.065.004-.099.057-.887.103-1.814.103-2.016.576-3.677 1.09-4.727.352-.723 1.438-2.207 2.59-2.632.058-.022.066.753.128 1.498.115 1.395.523 2.304 1.033 2.766.278.25.372.22 2.255-1.247 3.443-2.683 5.1-3.591 8.044-4.375 2.31-.615 3.574-1.114 1.706.614-.886.82-2.765 2.253-2.386 2.302.461.06.735.083 1.96.14 6.266.289 11.682 1.112 17.057 2.888 5.353 1.77 10.04 4.238 14.542 7.412l1.703 1.201-1.286-.072c-1.556.062-4.464.25-4.795.373-.286.105-.106.281 1.481 1.45 5.55 4.085 7.362 5.438 9.037 7.4 1.232 1.445 1.957 2.568 2.779 4.198.508 1.007 1.367 3.785 1.367 4.127 0 .033-.597-.364-1.033-.555-.879-.386-2.124-.477-2.248-.354-.043.043-.04.69.053 1.796.262 3.087.308 8.14.011 10.618-.58 4.839-1.648 8.657-3.71 12.753-.69 1.371-1.07 1.538-1.14 1.218zM64.251 384.959c-4.95-.09-7.265-.855-7.57-2.11 2.254.215 5.367.308 9.65.209 4.368.209 7.909-.003 10.485-.436-.082 1.592-2.902 2.467-10.094 2.32-.889.018-1.71.03-2.47.017z"/><path d="M250.08 704.28c-8.87-.16-13.019-1.532-13.567-3.781 4.04.386 9.618.553 17.293.375 7.828.374 14.173-.006 18.79-.781-.146 2.853-5.2 4.42-18.089 4.156a115.06 115.06 0 01-4.427.03z" transform="matrix(.55803 0 0 .51585 -75.303 20.954)" filter="url(#prefix__j)"/><path d="M81.208 839.11c-6.26-4.391-12.568-8.743-17.593-10.488 5.91-.045 11.745.158 17.119 1.895-2.217-2.155-4.602-3.948-7.51-6.023 9.118-.034 17.292 1.907 24.426 6.023-5.684-1.154-11.368-2.966-17.052-2.978l9.812 9.744c-5.865-2.548-11.73-4.667-17.593-5.954 2.652 2.219 4.91 3.41 8.39 7.781z" transform="matrix(.55803 0 0 .55803 21.551 -147.967)" fill="#7a4d2c" filter="url(#prefix__k)"/><path d="M49.471 361.66c2.05-2.019 4.801-3.75 5.695-6.243.822-1.961 1.591-3.94 1.364-6.244.014-.789-.217-1.6-.642-2.431-.654-.285-1.19-.151-1.684.131-1.865 2.547-3.54 5.25-4.171 8.807l-1.123 5.06L53 337.344c.56 2.223 1.281 4.512 1.444 6.572 2.425-3.063 3.814-4.104 4.894-4.535 2.776.132 5.316.598 5.775 4.01-1.55-1.472-3.103-2.85-4.733-1.775-1.15.431-2.299 1.198-3.449 3.023 1.037 1.051 1.77 2.103 2.166 3.154.125 3.117-.13 5.972-1.284 8.215-1.155 2.12-3.245 3.476-5.454 4.732z" transform="matrix(.55803 0 0 .64515 68.75 140.37)" opacity=".435" filter="url(#prefix__f)"/><path d="M159.44 1054.7l.441-54.298c6.128 5.066 12.235 10.005 17.212 7.62-16.815-15.84-27.245-41.328-38.395-65.727l-4.208 59.692-39.147-6.372c.452-84.827 14.959-100.85 25.923-123.34 13.894-21.548 35.032-40.362 81.204-47.391 35.7 34.389 71.037 42.043 111.43-.238 26.098 3.095 51.457 9.096 71.936 34.293 15.647 17.213 29.905 54.58 35.056 134.73l-37.578 7.363-6.304-61.121c-10.457 24.989-21.35 49.183-36.19 66.205 4.782 4.327 11.259-.238 17.213-6.668l-2.207 54.297z" transform="matrix(.18506 0 0 .18506 18.858 244.301)" opacity=".263" fill="#717171" filter="url(#prefix__l)"/><g fill="#fff"><path d="M67.44 421.688c-2.82-1.313-5.044-2.576-5.427-3.083-.255-.338-.933-2.207-1.897-5.232-.854-2.682-1.05-3.537-.876-3.82.19-.306.39-.29 1.501.12.52.192.977.303 1.017.247.04-.056.111-.424.159-.817.09-.75.405-1.199.839-1.199.128 0 .571.158.984.35 1.005.47 1.297.462 1.573-.043.127-.232.392-.465.625-.549.366-.131.5-.104 1.39.278 1.393.597 4.706 2.33 5.169 2.704.518.419.507.822-.08 2.824-.531 1.812-1.818 5.722-2.369 7.203-.383 1.029-.796 1.556-1.217 1.552-.135 0-.761-.242-1.392-.535zm.192-3.084c-1.17-3.612-1.806-5.293-2.11-5.576-.152-.141-.538-.413-.859-.603-.789-.469-4.358-2.272-4.497-2.272-.234 0-.087.642.64 2.8 1.332 3.947 1.382 3.995 1.72 1.672.208-1.428.299-1.57.704-1.105.575.66 4.064 5.545 4 5.6-.08.069-1.356-.47-3.149-1.327-1.329-.637-1.843-.785-1.843-.534 0 .269.558 1.048.96 1.342.822.599 4.927 2.572 5.087 2.445.06-.048-.234-1.147-.653-2.442zm1.218-3.523c-.009-3.62.078-3.38-1.561-4.309-1.639-.929-4.069-2.061-4.331-2.018-.334.056-.422 1.411-.117 1.814.208.276 1.1.687 2.303 1.061 1.743.543 2.738 2.152 2.97 4.802.135 1.545.314 2.132.579 1.902.122-.106.163-.966.158-3.252zm1.707 1.463c.907-2.5 1.51-4.474 1.51-4.947 0-.438-.037-.472-1.263-1.174-1.955-1.118-4.096-2.164-4.433-2.164-.32 0-.517.367-.423.79.027.123.633.532 1.41.952 1.584.854 2.042 1.251 2.256 1.952.085.28.344.68.575.889l.42.38-.435 1.423c-.44 1.435-.684 3.117-.509 3.513.143.323.276.083.891-1.614z"/><path d="M63.057 428.848c-.372-.089-9.752-4.925-10.48-5.402-.245-.161-.411-.34-.37-.399.042-.058.61-.408 1.265-.778a46.294 46.294 0 002.649-1.663c1.953-1.328 2.63-1.625 3.71-1.625.634 0 .988.07 1.415.278 1.035.505.897.994-.203.72-1.67-.417-2.135-.287-4.142 1.158-1.73 1.246-1.766 1.286-1.345 1.564.429.283 5.451 2.781 6.899 3.431.767.345 1.193.472 1.393.417.16-.044.97-.738 1.803-1.542.832-.804 1.72-1.547 1.971-1.65.262-.108.812-.189 1.285-.189h.826l.77-.825c.96-1.03 1.665-1.349 3.542-1.6 2.237-.3 2.173-.283 1.907-.537-.124-.12-.912-.577-1.75-1.017-1.877-.986-2.41-1.327-2.41-1.542 0-.493.632-.27 4.164 1.475 2.267 1.12 3.208 1.643 3.208 1.785 0 .051-1.46.85-3.242 1.775-1.783.925-3.403 1.804-3.599 1.952-.196.149-.574.564-.839.924-.703.954-1.102 1.16-2.238 1.162-1.09.001-1.65.197-3.723 1.301-1.487.793-1.954.95-2.466.827z"/><text style="line-height:0%" transform="matrix(.1328 0 0 .16638 23.123 289.578)" y="889.572" x="228.859" font-weight="700" font-family="Tahoma" letter-spacing="0" word-spacing="0"><tspan y="889.572" x="228.859" style="line-height:1.25" font-size="53.852">Clip Art</tspan></text></g></g></svg>