<?xml version="1.0" encoding="UTF-8" standalone="no"?>
<!-- Created with Inkscape (http://www.inkscape.org/) -->

<svg
   id="svg2"
   sodipodi:docname="comic-boy.svg"
   viewBox="0 0 84.902596 140"
   version="1.1"
   inkscape:version="1.2.2 (732a01da63, 2022-12-09)"
   width="84.902596"
   height="140"
   xmlns:inkscape="http://www.inkscape.org/namespaces/inkscape"
   xmlns:sodipodi="http://sodipodi.sourceforge.net/DTD/sodipodi-0.dtd"
   xmlns:xlink="http://www.w3.org/1999/xlink"
   xmlns="http://www.w3.org/2000/svg"
   xmlns:svg="http://www.w3.org/2000/svg"
   xmlns:rdf="http://www.w3.org/1999/02/22-rdf-syntax-ns#"
   xmlns:cc="http://creativecommons.org/ns#"
   xmlns:dc="http://purl.org/dc/elements/1.1/">
  <defs
     id="defs4">
    <linearGradient
       id="linearGradient4166">
      <stop
         id="stop4168"
         style="stop-color:#ebc99a"
         offset="0" />
      <stop
         id="stop4174"
         style="stop-color:#fcebd3"
         offset=".78174" />
      <stop
         id="stop4170"
         style="stop-color:#ffffff"
         offset="1" />
    </linearGradient>
    <filter
       id="filter3865"
       height="1.4222115"
       width="1.1802393"
       color-interpolation-filters="sRGB"
       y="-0.21110575"
       x="-0.090119625"
       inkscape:collect="always">
      <feGaussianBlur
         id="feGaussianBlur3867"
         stdDeviation="1.0338795"
         inkscape:collect="always" />
    </filter>
    <filter
       id="filter3915"
       inkscape:collect="always"
       color-interpolation-filters="sRGB"
       x="-0.022854621"
       y="-0.084738464"
       width="1.0457092"
       height="1.1694769">
      <feGaussianBlur
         id="feGaussianBlur3917"
         stdDeviation="0.1434375"
         inkscape:collect="always" />
    </filter>
    <filter
       id="filter3927"
       inkscape:collect="always"
       color-interpolation-filters="sRGB"
       x="-0.022854621"
       y="-0.084738464"
       width="1.0457092"
       height="1.1694769">
      <feGaussianBlur
         id="feGaussianBlur3929"
         stdDeviation="0.1434375"
         inkscape:collect="always" />
    </filter>
    <filter
       id="filter4041"
       height="1.8116078"
       width="1.0944215"
       color-interpolation-filters="sRGB"
       y="-0.40580391"
       x="-0.04721076"
       inkscape:collect="always">
      <feGaussianBlur
         id="feGaussianBlur4043"
         stdDeviation="0.70979409"
         inkscape:collect="always" />
    </filter>
    <filter
       id="filter4051"
       inkscape:collect="always"
       color-interpolation-filters="sRGB"
       x="-0.026448388"
       y="-0.061586766"
       width="1.0528968"
       height="1.1231735">
      <feGaussianBlur
         id="feGaussianBlur4053"
         stdDeviation="0.37507231"
         inkscape:collect="always" />
    </filter>
    <filter
       id="filter4073"
       inkscape:collect="always"
       color-interpolation-filters="sRGB"
       x="-0.039658306"
       y="-0.026427541"
       width="1.0793166"
       height="1.0528551">
      <feGaussianBlur
         id="feGaussianBlur4075"
         stdDeviation="0.26775471"
         inkscape:collect="always" />
    </filter>
    <filter
       id="filter4140"
       height="2.1498023"
       width="1.2870618"
       color-interpolation-filters="sRGB"
       y="-0.41167202"
       x="-0.14353088"
       inkscape:label="Drop shadow">
      <feGaussianBlur
         id="feGaussianBlur4142"
         result="blur"
         stdDeviation="2"
         in="SourceAlpha" />
      <feColorMatrix
         id="feColorMatrix4144"
         values="1 0 0 0 0 0 1 0 0 0 0 0 1 0 0 0 0 0 0.5 0 "
         type="matrix"
         result="bluralpha" />
      <feOffset
         id="feOffset4146"
         result="offsetBlur"
         dy="4"
         dx="0"
         in="bluralpha" />
      <feMerge
         id="feMerge4148">
        <feMergeNode
           id="feMergeNode4150"
           in="offsetBlur" />
        <feMergeNode
           id="feMergeNode4152"
           in="SourceGraphic" />
      </feMerge>
    </filter>
    <linearGradient
       id="linearGradient5071"
       y2="472.98999"
       xlink:href="#linearGradient4166"
       gradientUnits="userSpaceOnUse"
       x2="53.080002"
       gradientTransform="matrix(0.55802546,0,0,0.60669585,69.092611,147.28055)"
       y1="472.79001"
       x1="38.528999"
       inkscape:collect="always" />
    <linearGradient
       id="linearGradient5074"
       y2="472.98999"
       xlink:href="#linearGradient4166"
       gradientUnits="userSpaceOnUse"
       x2="53.080002"
       gradientTransform="matrix(0.55802546,0,0,0.6005334,-64.06087,150.31366)"
       y1="472.79001"
       x1="38.528999"
       inkscape:collect="always" />
    <filter
       id="filter5220"
       inkscape:collect="always"
       x="-0.0048995122"
       y="-0.0069332783"
       width="1.009799"
       height="1.0138666">
      <feGaussianBlur
         id="feGaussianBlur5222"
         stdDeviation="0.66459637"
         inkscape:collect="always" />
    </filter>
    <linearGradient
       id="linearGradient3075"
       y2="868.72998"
       gradientUnits="userSpaceOnUse"
       x2="262.32999"
       y1="1047.4"
       x1="262.32999"
       inkscape:collect="always"
       gradientTransform="matrix(0.18505852,0,0,0.18505852,18.858476,244.30118)">
      <stop
         id="stop3071"
         style="stop-color:#5a7ee4"
         offset="0" />
      <stop
         id="stop3073"
         style="stop-color:#1b72d3"
         offset="1" />
    </linearGradient>
  </defs>
  <sodipodi:namedview
     id="base"
     bordercolor="#666666"
     inkscape:pageshadow="2"
     inkscape:guide-bbox="true"
     pagecolor="#ffffff"
     inkscape:window-height="1017"
     inkscape:window-maximized="1"
     inkscape:zoom="0.60992949"
     inkscape:window-x="1912"
     showgrid="false"
     borderopacity="1.0"
     inkscape:current-layer="layer1"
     inkscape:cx="178.70918"
     inkscape:cy="221.33706"
     showguides="true"
     inkscape:window-y="-8"
     inkscape:window-width="1920"
     inkscape:pageopacity="0.0"
     inkscape:document-units="px"
     inkscape:showpageshadow="2"
     inkscape:pagecheckerboard="0"
     inkscape:deskcolor="#d1d1d1" />
  <g
     id="layer1"
     inkscape:label="Capa 1"
     inkscape:groupmode="layer"
     transform="translate(-23.140897,-299.77758)">
    <rect
       id="rect4176"
       style="fill:url(#linearGradient5074);stroke:#000000;stroke-width:0.290024"
       transform="scale(-1,1)"
       inkscape:export-ydpi="47.58791"
       inkscape:export-filename="C:\Documents and Settings\hernan\Escritorio\Gui98 3.png"
       ry="0"
       height="15.261407"
       width="10.064037"
       inkscape:export-xdpi="47.58791"
       y="423.41006"
       x="-43.932056" />
    <rect
       id="rect4156"
       style="fill:url(#linearGradient5071);stroke:#000000;stroke-width:0.291504"
       inkscape:export-ydpi="47.58791"
       inkscape:export-filename="C:\Documents and Settings\hernan\Escritorio\Gui98 3.png"
       ry="0"
       height="15.417966"
       width="10.064037"
       inkscape:export-xdpi="47.58791"
       y="423.1806"
       x="89.221428" />
    <path
       id="path4133"
       style="fill:#fad8a8;stroke:#000000;stroke-width:0.179777"
       d="m 64.34586,401.73602 c -2.680942,-0.6346 -5.404634,-2.59508 -6.565321,-4.72584 -0.480171,-0.88143 -0.87305,-1.68544 -0.87305,-1.78672 0,-0.10128 0.895202,-0.05 1.989379,0.11386 4.401802,0.6594 11.948488,0.76664 14.790247,0.21019 1.522273,-0.29808 2.825658,-0.48621 2.896351,-0.41809 0.353536,0.34068 -1.909064,3.67675 -3.148956,4.64294 -2.328406,1.81442 -6.192058,2.64911 -9.088594,1.96365 z"
       inkscape:export-ydpi="47.58791"
       inkscape:export-filename="C:\Documents and Settings\hernan\Escritorio\Gui98 3.png"
       inkscape:connector-curvature="0"
       inkscape:export-xdpi="47.58791" />
    <path
       id="rect4137"
       style="fill:#fad8a8;stroke:#000000;stroke-width:0.501;filter:url(#filter4140)"
       d="m 72.402,962.21 c -4.4959,0 -8.0938,3.6291 -8.0938,8.125 0,0.99566 0.17477,1.9326 0.5,2.8125 0.63048,6.6e-4 1.7252,0.12159 3,0.3125 7.8882,1.1816 21.407,1.3722 26.5,0.375 2.0886,-0.40895 3.9054,-0.68968 4.7188,-0.75 0.3102,-0.86181 0.46875,-1.7787 0.46875,-2.75 0,-4.4959 -3.5979,-8.125 -8.0938,-8.125 h -19 z"
       inkscape:export-ydpi="47.58791"
       inkscape:export-filename="C:\Documents and Settings\hernan\Escritorio\Gui98 3.png"
       inkscape:connector-curvature="0"
       transform="matrix(0.55802546,0,0,0.55802546,21.551078,-147.96736)"
       inkscape:export-xdpi="47.58791" />
    <path
       id="rect4083"
       style="fill:url(#linearGradient3075);stroke:#000000;stroke-width:0.56589"
       d="m 50.516437,395.10167 c -8.809526,1.15924 -16.584019,8.45125 -17.270216,20.70065 -0.06146,1.09713 -1.637879,11.3463 -1.488759,12.40151 1.998262,-0.73146 10.099939,1.68113 12.34692,1.59319 l -0.161997,8.86467 h 45.435568 l 0.131053,-8.96775 11.338724,-2.13169 c 0.0642,-0.69893 0.0578,-9.0514 -0.0272,-11.40719 -0.38685,-10.72748 -5.230678,-22.43095 -18.853761,-22.11265 l -5.015827,0.11762 c -0.610785,4.76581 -4.836319,8.11167 -9.974839,8.11167 -5.13852,0 -9.592693,-3.22816 -10.203572,-7.99416 z"
       inkscape:export-ydpi="47.58791"
       sodipodi:nodetypes="sscsccccsscscs"
       inkscape:export-filename="C:\Documents and Settings\hernan\Escritorio\Gui98 3.png"
       inkscape:connector-curvature="0"
       inkscape:export-xdpi="47.58791" />
    <path
       id="path3988"
       style="fill:none;stroke:#000000;stroke-width:0.558025px"
       d="m 34.529602,372.39499 -0.906232,-7.09884 c 0,0 -0.211596,-8.48901 -2.416679,-11.78102 -0.591207,-0.88265 -3.096214,-0.75518 -3.096214,-0.75518 L 26.90223,341.73416 c -1.386218,-0.35751 -2.322485,0.63472 -3.322911,1.43487 2.215706,-10.25409 4.575572,-20.4064 13.291458,-26.13026 -1.69162,-2.42242 -5.336347,-2.45018 -8.231588,-3.39768 3.638436,-1.95792 9.570857,-1.88389 15.405752,-1.4342 -0.832764,-2.539 -4.735648,-4.7338 -7.702876,-6.49555 3.907511,0.78971 8.010628,1.71664 10.950283,5.21087 0.281104,-3.44782 0.580954,-7.18674 4.229142,-9.06231 0.29056,1.84455 0.0033,3.4617 1.208321,4.75767 3.559971,-2.72517 6.642676,-5.91466 13.51797,-6.49463 l -3.775934,3.54942 c 11.827275,0.30366 24.142734,3.15691 35.570098,12.08303 -2.550662,-0.0536 -4.939952,-0.0427 -6.494629,0.30207 5.993676,4.57872 12.836774,8.1459 14.801724,17.52041 -1.69573,-1.14421 -2.64393,-1.35388 -3.54943,-1.51037 1.0994,10.72044 -0.002,19.32196 -4.908673,27.64034"
       inkscape:export-ydpi="47.58791"
       sodipodi:nodetypes="ccsccccccccccccccccc"
       inkscape:export-filename="C:\Documents and Settings\hernan\Escritorio\Gui98 3.png"
       inkscape:connector-curvature="0"
       inkscape:export-xdpi="47.58791" />
    <path
       id="path4077"
       style="fill:#fff2e6;stroke:#000000;stroke-width:0.558025"
       d="m 33.455337,361.07681 c -0.334845,-2.20682 -0.981365,-4.47619 -2.027871,-6.82533 -0.503748,-0.5303 -0.923072,-0.55412 -1.359348,-0.67968 0,0 -2.226439,0.52362 -3.040141,1.25914 -1.638527,1.48104 -2.987215,3.74207 -3.139148,5.83526 -0.259748,2.30787 0.621519,5.65077 1.489906,7.62978 2.698709,4.64016 4.91534,5.57433 7.36607,7.05258 1.949036,1.05759 2.610435,0.98266 3.705241,1.14657 z"
       inkscape:export-ydpi="47.58791"
       sodipodi:nodetypes="cccaccccc"
       inkscape:export-filename="C:\Documents and Settings\hernan\Escritorio\Gui98 3.png"
       inkscape:connector-curvature="0"
       inkscape:export-xdpi="47.58791" />
    <path
       id="path4079"
       style="fill:#fad8a8;stroke-width:0.185059"
       d="m 33.245851,355.61018 c -0.20821,2.45351 -0.139431,5.12187 0.269204,7.89719 0.599664,4.07277 0.487111,7.7484 2.051374,10.51651 -0.209856,0.0135 -0.20449,-0.0435 -0.417529,-0.0537 -3.128969,-0.15091 -8.373343,-4.80005 -9.212953,-9.3214 -1.072711,-5.7766 -0.02512,-8.17163 7.309996,-9.03863 z"
       inkscape:export-ydpi="47.58791"
       sodipodi:nodetypes="cscssc"
       inkscape:export-filename="C:\Documents and Settings\hernan\Escritorio\Gui98 3.png"
       inkscape:connector-curvature="0"
       inkscape:export-xdpi="47.58791" />
    <path
       id="path4081"
       style="opacity:0.43498;fill:#000000;filter:url(#filter4073)"
       d="m 49.471,361.66 c 2.0507,-2.0188 4.8011,-3.7509 5.6953,-6.2434 0.8218,-1.9608 1.5907,-3.9389 1.3637,-6.2434 0.01439,-0.78878 -0.21737,-1.601 -0.64174,-2.4316 -0.65395,-0.28438 -1.1902,-0.15074 -1.6845,0.13143 -1.8647,2.5469 -3.5399,5.2492 -4.1712,8.8065 l -1.123,5.0605 4.091,-23.396 c 0.55981,2.2228 1.2806,4.5116 1.4439,6.572 2.4249,-3.0633 3.814,-4.1042 4.8932,-4.5347 2.7764,0.13172 5.3165,0.59789 5.7756,4.0089 -1.5502,-1.471 -3.1033,-2.8485 -4.7328,-1.7745 -1.1498,0.43136 -2.2995,1.1986 -3.4493,3.0231 1.0373,1.0515 1.7702,2.1031 2.1658,3.1546 0.1255,3.1161 -0.13041,5.9718 -1.2835,8.215 -1.1553,2.1205 -3.2452,3.4752 -5.4547,4.7319 z"
       inkscape:export-ydpi="47.58791"
       sodipodi:nodetypes="ccccccccccccccccc"
       inkscape:export-filename="C:\Documents and Settings\hernan\Escritorio\Gui98 3.png"
       transform="matrix(-0.55802546,0,0,0.64515101,62.856139,139.051)"
       inkscape:connector-curvature="0"
       inkscape:export-xdpi="47.58791" />
    <path
       id="path4055"
       style="fill:#fff2e6;stroke:#000000;stroke-width:0.558025"
       d="m 98.1505,362.39628 c 0.334845,-2.20682 0.981366,-4.4762 2.02787,-6.82533 0.50375,-0.5303 0.92307,-0.55412 1.35935,-0.67968 0,0 2.22644,0.52362 3.04014,1.25914 1.63853,1.48104 2.98721,3.74206 3.13915,5.83526 0.25975,2.30787 -0.62152,5.65076 -1.48991,7.62978 -2.69871,4.64016 -4.91534,5.57433 -7.366067,7.05258 -1.949037,1.05759 -2.610436,0.98266 -3.705242,1.14657 z"
       inkscape:export-ydpi="47.58791"
       sodipodi:nodetypes="cccaccccc"
       inkscape:export-filename="C:\Documents and Settings\hernan\Escritorio\Gui98 3.png"
       inkscape:connector-curvature="0"
       inkscape:export-xdpi="47.58791" />
    <path
       id="path3969"
       style="fill:#fff2e6;stroke-width:0.185059"
       d="m 40.519576,344.56959 c 0,0 -2.693712,2.10264 -3.286269,2.58471 -1.787758,1.45473 -4.83632,7.70121 -3.212431,18.68351 2.385034,16.13044 5.021748,19.20167 5.021748,19.20167 1.849771,2.74886 6.186136,4.65312 6.794238,5.02175 7.867763,4.7684 11.815987,5.02175 11.815987,5.02175 0,0 4.139759,0.68237 9.157251,0.88621 10.905498,0.44303 18.609484,-4.87407 18.609484,-4.87407 0,0 5.223647,-3.51241 6.294951,-5.03582 3.60383,-5.12482 3.958032,-7.86406 3.958032,-7.86406 0,0 2.22977,-13.98413 2.463129,-17.39513 0.330773,-4.83484 -0.86563,-7.02204 -2.081909,-9.87916 -2.68779,-6.3142 -4.578718,-5.16943 -4.578718,-5.16943 l 0.5908,-9.89582 c 0,0 0.338139,-1.80583 -2.215521,-5.02174 -1.249219,-1.57321 -4.256716,-3.92639 -5.907993,-5.02175 -1.80804,-1.19939 -6.646377,0.29542 -6.646377,0.29542 l 3.692473,5.76032 c -3.547757,-1.97846 -6.734835,-2.87433 -9.89582,-3.69247 l 5.464779,7.53262 c -7.69825,-4.03298 -16.544417,-7.7571 -26.585508,-9.45279 -4.178436,1.59674 -8.268969,3.29404 -9.748142,7.97565 z"
       inkscape:export-ydpi="47.58791"
       sodipodi:nodetypes="csscscscscssccssccccccc"
       inkscape:export-filename="C:\Documents and Settings\hernan\Escritorio\Gui98 3.png"
       inkscape:connector-curvature="0"
       inkscape:export-xdpi="47.58791" />
    <path
       id="path3951"
       sodipodi:rx="4.7926664"
       sodipodi:ry="4.7392473"
       style="fill:#000000"
       sodipodi:type="arc"
       d="m 56.361079,358.53033 a 4.7926664,4.7392473 0 0 1 -4.792276,4.73925 4.7926664,4.7392473 0 0 1 -4.793057,-4.73847 4.7926664,4.7392473 0 0 1 4.791495,-4.74002 4.7926664,4.7392473 0 0 1 4.793838,4.7377 l -4.792666,0.002 z"
       inkscape:export-ydpi="47.58791"
       inkscape:export-filename="C:\Documents and Settings\hernan\Escritorio\Gui98 3.png"
       sodipodi:cy="358.53033"
       sodipodi:cx="51.568413"
       inkscape:export-xdpi="47.58791"
       sodipodi:end="6.2828594"
       sodipodi:start="0"
       sodipodi:arc-type="slice" />
    <path
       id="path3931"
       sodipodi:rx="4.7926664"
       sodipodi:ry="4.7392473"
       style="fill:#000000"
       sodipodi:type="arc"
       d="m 85.252414,358.53033 a 4.7926664,4.7392473 0 0 1 -4.792276,4.73925 4.7926664,4.7392473 0 0 1 -4.793057,-4.73847 4.7926664,4.7392473 0 0 1 4.791495,-4.74002 4.7926664,4.7392473 0 0 1 4.793837,4.7377 l -4.792666,0.002 z"
       inkscape:export-ydpi="47.58791"
       inkscape:export-filename="C:\Documents and Settings\hernan\Escritorio\Gui98 3.png"
       sodipodi:cy="358.53033"
       sodipodi:cx="80.459747"
       inkscape:export-xdpi="47.58791"
       sodipodi:end="6.2828594"
       sodipodi:start="0"
       sodipodi:arc-type="slice" />
    <path
       id="path4057"
       style="fill:#fad8a8;stroke-width:0.185059"
       d="m 98.359616,356.92965 c 0.20821,2.45351 -0.184038,5.97091 -0.592668,8.74642 -0.599664,4.07277 -0.487111,6.33326 -1.727836,9.66727 0.209857,0.0135 0.20449,-0.0435 0.417529,-0.0537 3.12897,-0.15091 8.373339,-4.80005 9.212949,-9.3214 1.07271,-5.7766 0.0251,-8.17163 -7.309992,-9.03863 z"
       inkscape:export-ydpi="47.58791"
       sodipodi:nodetypes="cscsscc"
       inkscape:export-filename="C:\Documents and Settings\hernan\Escritorio\Gui98 3.png"
       inkscape:connector-curvature="0"
       inkscape:export-xdpi="47.58791" />
    <path
       id="path6855"
       style="fill:none;stroke:#000000;stroke-width:0.558025px"
       d="m 40.519576,344.56959 c 0,0 -2.693712,2.10264 -3.286269,2.58471 -1.787758,1.45473 -4.83632,7.70121 -3.212431,18.68351 2.385034,16.13044 5.021748,19.20167 5.021748,19.20167 1.849771,2.74886 6.186136,4.65312 6.794238,5.02175 7.867763,4.7684 11.815987,5.02175 11.815987,5.02175 0,0 4.139759,0.68237 9.157251,0.88621 10.905498,0.44303 18.609484,-4.87407 18.609484,-4.87407 0,0 5.947041,-4.47398 6.790723,-5.93131 4.6,-4.85113 5.484764,-22.22923 5.914655,-24.9755 0.177514,-1.74956 -0.854933,-6.40987 -2.071175,-9.26699 -2.68779,-6.3142 -4.578718,-5.16943 -4.578718,-5.16943 l 0.5908,-9.89582 c 0,0 0.338139,-1.80583 -2.215521,-5.02174 -1.249219,-1.57321 -4.256716,-3.92639 -5.907993,-5.02175 -1.80804,-1.19939 -6.646377,0.29542 -6.646377,0.29542 l 3.692473,5.76032 c -3.547757,-1.97846 -6.734835,-2.87433 -9.89582,-3.69247 2.11818,2.57675 3.788333,5.05395 5.464779,7.53262 -7.69825,-4.03298 -16.544417,-7.7571 -26.585508,-9.45279 -4.178436,1.59674 -8.268969,3.29404 -9.748142,7.97565 z"
       inkscape:export-ydpi="47.58791"
       sodipodi:nodetypes="csscscscccsccssccccccc"
       inkscape:export-filename="C:\Documents and Settings\hernan\Escritorio\Gui98 3.png"
       inkscape:connector-curvature="0"
       inkscape:export-xdpi="47.58791" />
    <path
       id="path3007"
       style="fill:#fad8a8;stroke-width:0.185059"
       d="m 81.878305,325.64551 c -0.774692,-0.005 -4.038162,0.47778 -4.156785,0.61961 0,0 0.904659,1.49468 1.989009,3.18412 1.084406,1.68945 1.37987,2.45831 1.340083,2.4981 -0.03979,0.0398 -0.09297,0.19687 -1.125396,-0.32048 -1.032442,-0.51735 -2.456097,-1.1623 -3.156359,-1.42995 -1.413032,-0.54002 -4.725099,-1.54191 -4.800973,-1.46592 -0.02673,0.0267 1.197791,1.72304 2.51439,3.53517 1.316599,1.81204 2.422786,3.17949 2.068584,3.32957 -0.383367,0.16262 0.175569,0.0477 0.05774,0.14552 -0.178704,0.14831 -0.508967,0.009 -2.769401,-1.11498 -7.594247,-3.77519 -14.191398,-6.1221 -21.518605,-7.6381 l -2.179804,-0.45339 -1.569463,0.66265 c -4.044639,1.68898 -6.13617,3.31533 -7.324061,5.71979 l -0.523161,1.06376 0.08719,4.74323 c 0.05229,2.60859 0.131808,5.00121 0.174384,5.31877 l 0.08719,0.57547 -1.848475,1.4474 c -1.431354,1.11935 -1.848476,1.52226 -1.848476,1.77873 0,0.41953 1.108741,7.9218 1.848476,12.53827 0.579917,3.619 3.661382,20.26576 3.941006,21.27433 0.762644,2.75182 4.103673,5.98294 8.370382,8.12629 3.93823,1.97846 8.494556,3.50019 11.910551,3.97598 1.691472,0.23563 5.190522,0.27322 7.079969,0.0697 2.79827,-0.30131 5.495498,-1.20038 9.521446,-3.17375 4.376634,-2.14538 6.977076,-4.35665 8.492521,-7.2369 1.451802,-2.75922 1.883895,-4.05944 2.37171,-6.97541 0.935563,-5.59358 2.370784,-15.24327 3.069195,-20.7173 0.445029,-3.4878 0.86885,-6.38563 0.94167,-6.43486 0.169481,-0.11452 -0.971779,-1.87853 -1.656643,-2.56343 -0.628848,-0.62883 -1.059497,-0.81348 -1.639212,-0.69754 l -0.435961,0.0872 0.08719,-1.11607 c 0.207136,-2.68668 0.491071,-8.06596 0.488276,-9.12023 -0.0028,-0.8869 -0.07264,-1.34144 -0.331328,-1.97051 -0.810131,-1.97013 -2.188687,-3.63899 -4.656073,-5.65002 -2.889874,-2.35542 -3.356406,-2.60562 -4.900164,-2.6158 z m -31.596892,27.62183 c 0.194959,-0.004 0.385144,-0.002 0.575476,0.0174 3.963769,0.39278 8.924262,2.59507 8.893543,6.76611 -0.02483,3.37472 -4.238581,7.8276 -7.847222,7.30666 -4.624612,-0.66749 -7.849812,-6.02254 -8.597078,-8.99828 0.701908,-2.50847 4.051116,-5.03526 6.97541,-5.09208 z m 31.878181,0.10463 c 2.924294,0.0568 6.273483,2.58342 6.97541,5.09207 -0.747358,2.97574 -3.972651,8.33078 -8.597078,8.99829 -3.608826,0.52086 -7.822424,-3.93213 -7.847222,-7.30667 -0.03069,-4.17103 4.929959,-6.37341 8.893543,-6.76611 0.190332,-0.0189 0.380517,-0.0212 0.575476,-0.0174 z"
       inkscape:export-ydpi="47.58791"
       sodipodi:nodetypes="ccsssscsscscccccccccsssssssssscsscccsscccsscccccssscc"
       inkscape:export-filename="C:\Documents and Settings\hernan\Escritorio\Gui98 3.png"
       inkscape:connector-curvature="0"
       inkscape:export-xdpi="47.58791" />
    <path
       id="path3803"
       style="opacity:0.93274;fill:#cc9f6d;filter:url(#filter3865)"
       d="m 68.517,935.65 c 2.8073,1.3851 5.2895,1.0913 8.3254,4.011 3.0763,3.8918 6.5557,3.4482 9.1886,0.60899 2.331,-3.2002 3.5799,-2.968 6.6686,-4.5785 1.5246,-1.6223 2.1174,-2.4576 1.3779,-4.3386 -0.82148,-0.73223 -1.8066,-0.70099 -2.3875,-0.47366 -0.60205,0.80933 -1.5997,1.3623 -3.3165,2.518 -2.5597,0.88091 -5.2882,1.2556 -7.7266,1.4388 -4.8687,-0.0944 -5.9733,-0.60477 -8.8763,-1.6678 l -2.7751,-1.8327 c -0.641,-0.72126 -1.542,-0.18064 -2.0574,0.30544 -0.21534,0.95863 -0.066,2.6323 1.579,4.009 z"
       inkscape:export-ydpi="47.58791"
       sodipodi:nodetypes="ccccccccccccc"
       inkscape:export-filename="C:\Documents and Settings\hernan\Escritorio\Gui98 3.png"
       inkscape:connector-curvature="0"
       transform="matrix(0.55802546,0,0,0.55802546,21.551078,-147.96736)"
       inkscape:export-xdpi="47.58791" />
    <path
       id="path3801"
       style="fill:none;stroke:#000000;stroke-width:0.558025px"
       d="m 60.082112,372.2784 c 0.394212,0.60229 -0.09123,2.14779 3.364179,1.94904 1.205878,-0.0693 2.250497,1.37289 3.310882,1.37506 1.272074,0.0486 1.982532,-0.82431 2.937064,-1.37506 1.193387,-0.19091 1.940153,-0.0901 2.483115,-0.38714 0.665989,-0.36431 0.961286,-1.20303 0.961194,-1.56197"
       inkscape:export-ydpi="47.58791"
       sodipodi:nodetypes="csccsc"
       inkscape:export-filename="C:\Documents and Settings\hernan\Escritorio\Gui98 3.png"
       inkscape:connector-curvature="0"
       inkscape:export-xdpi="47.58791" />
    <path
       id="path3871"
       style="fill:#000000;stroke-width:0.185059"
       d="m 81.067748,353.06193 c 3.936935,0 7.235048,2.17777 8.091499,5.10632 -1.635418,-1.80477 -4.715846,-3.01831 -8.265824,-3.01831 -3.160614,0 -5.959809,0.96323 -7.690292,2.4487 1.096694,-2.63302 4.191761,-4.5369 7.864802,-4.5369 z"
       inkscape:export-ydpi="47.58791"
       inkscape:export-filename="C:\Documents and Settings\hernan\Escritorio\Gui98 3.png"
       inkscape:connector-curvature="0"
       inkscape:export-xdpi="47.58791" />
    <path
       id="path3874"
       style="fill:#000000;stroke-width:0.185059"
       d="m 51.314039,352.98605 c -3.936935,0 -7.235048,2.24217 -8.091498,5.25733 1.635417,-1.85817 4.715846,-3.1075 8.265824,-3.1075 3.160614,0 5.959809,0.99173 7.690291,2.52123 -1.096693,-2.71092 -4.19176,-4.67106 -7.864802,-4.67106 z"
       inkscape:export-ydpi="47.58791"
       inkscape:export-filename="C:\Documents and Settings\hernan\Escritorio\Gui98 3.png"
       inkscape:connector-curvature="0"
       inkscape:export-xdpi="47.58791" />
    <path
       id="path3878"
       style="opacity:0.53659;fill:#000000;filter:url(#filter3915)"
       d="m 97.066,920.55 c 0.8851,2.3383 3.952,4.0625 7.5938,4.0625 3.4882,0 6.4478,-1.593 7.4688,-3.7812 -1.7183,1.1648 -4.343,1.9062 -7.3125,1.9062 -3.2154,0 -6.0605,-0.8536 -7.75,-2.1875 z"
       inkscape:export-ydpi="47.58791"
       inkscape:export-filename="C:\Documents and Settings\hernan\Escritorio\Gui98 3.png"
       inkscape:connector-curvature="0"
       transform="matrix(0.55802546,0,0,0.55802546,21.551078,-147.96736)"
       inkscape:export-xdpi="47.58791" />
    <path
       id="path3881"
       style="opacity:0.53659;fill:#000000;filter:url(#filter3927)"
       d="m 62.894,920.26 c -0.8851,2.3383 -3.952,4.0625 -7.5938,4.0625 -3.4882,0 -6.4478,-1.593 -7.4688,-3.7812 1.7183,1.1648 4.343,1.9062 7.3125,1.9062 3.2154,0 6.0605,-0.8536 7.75,-2.1875 z"
       inkscape:export-ydpi="47.58791"
       inkscape:export-filename="C:\Documents and Settings\hernan\Escritorio\Gui98 3.png"
       transform="matrix(0.55802546,0,0,0.55802546,21.551078,-147.96736)"
       inkscape:connector-curvature="0"
       inkscape:export-xdpi="47.58791" />
    <path
       id="path3953"
       sodipodi:rx="3.8325808"
       sodipodi:ry="3.5116155"
       style="fill:#7e7eb2"
       sodipodi:type="arc"
       d="m 84.381508,358.9785 a 3.8325808,3.5116155 0 0 1 -1.834485,3.17325 3.8325808,3.5116155 0 0 1 -3.918935,0.037 3.8325808,3.5116155 0 0 1 -1.905426,-3.13795 l 3.830973,0.10172 z"
       inkscape:export-ydpi="47.58791"
       inkscape:export-filename="C:\Documents and Settings\hernan\Escritorio\Gui98 3.png"
       sodipodi:cy="359.1525"
       sodipodi:cx="80.553635"
       inkscape:export-xdpi="47.58791"
       sodipodi:end="3.1705633"
       sodipodi:start="6.233617"
       sodipodi:arc-type="slice" />
    <path
       id="path3955"
       sodipodi:rx="1.4551685"
       sodipodi:ry="1.567916"
       style="fill:#000000"
       sodipodi:type="arc"
       d="m 82.099738,358.85318 a 1.4551685,1.567916 0 0 1 -1.45505,1.56792 1.4551685,1.567916 0 0 1 -1.455287,-1.56766 1.4551685,1.567916 0 0 1 1.454813,-1.56818 1.4551685,1.567916 0 0 1 1.455524,1.56741 l -1.455169,5.1e-4 z"
       inkscape:export-ydpi="47.58791"
       inkscape:export-filename="C:\Documents and Settings\hernan\Escritorio\Gui98 3.png"
       sodipodi:cy="358.85318"
       sodipodi:cx="80.644569"
       inkscape:export-xdpi="47.58791"
       sodipodi:end="6.2828594"
       sodipodi:start="0"
       sodipodi:arc-type="slice" />
    <path
       id="path3957"
       sodipodi:rx="3.8325808"
       sodipodi:ry="3.5116155"
       style="fill:#7e7eb2"
       sodipodi:type="arc"
       d="m -47.798565,358.81752 a 3.8325808,3.5116155 0 0 1 -1.834484,3.17325 3.8325808,3.5116155 0 0 1 -3.918936,0.037 3.8325808,3.5116155 0 0 1 -1.905426,-3.13795 l 3.830973,0.10172 z"
       inkscape:export-ydpi="47.58791"
       inkscape:export-filename="C:\Documents and Settings\hernan\Escritorio\Gui98 3.png"
       transform="scale(-1,1)"
       sodipodi:cy="358.99152"
       sodipodi:cx="-51.626438"
       inkscape:export-xdpi="47.58791"
       sodipodi:end="3.1705633"
       sodipodi:start="6.233617"
       sodipodi:arc-type="slice" />
    <path
       id="path3959"
       sodipodi:rx="1.4551685"
       sodipodi:ry="1.567916"
       style="fill:#000000"
       sodipodi:type="arc"
       d="m -50.265767,358.46643 a 1.4551685,1.567916 0 0 1 -1.45505,1.56792 1.4551685,1.567916 0 0 1 -1.455287,-1.56766 1.4551685,1.567916 0 0 1 1.454812,-1.56818 1.4551685,1.567916 0 0 1 1.455525,1.56741 l -1.455169,5.1e-4 z"
       inkscape:export-ydpi="47.58791"
       inkscape:export-filename="C:\Documents and Settings\hernan\Escritorio\Gui98 3.png"
       transform="scale(-1,1)"
       sodipodi:cy="358.46643"
       sodipodi:cx="-51.720936"
       inkscape:export-xdpi="47.58791"
       sodipodi:end="6.2828594"
       sodipodi:start="0"
       sodipodi:arc-type="slice" />
    <path
       id="path3961"
       sodipodi:rx="1.4543761"
       sodipodi:ry="1.2047771"
       style="fill:#ffffff"
       sodipodi:type="arc"
       d="m -278.00891,249.58846 a 1.4543761,1.2047771 0 0 1 -1.45426,1.20477 1.4543761,1.2047771 0 0 1 -1.45449,-1.20458 1.4543761,1.2047771 0 0 1 1.45402,-1.20497 1.4543761,1.2047771 0 0 1 1.45473,1.20438 l -1.45438,4e-4 z"
       inkscape:export-ydpi="47.58791"
       inkscape:export-filename="C:\Documents and Settings\hernan\Escritorio\Gui98 3.png"
       transform="matrix(0.5858806,-0.81039739,0.85396561,0.52032945,0,0)"
       sodipodi:cy="249.58846"
       sodipodi:cx="-279.46329"
       inkscape:export-xdpi="47.58791"
       sodipodi:end="6.2828594"
       sodipodi:start="0"
       sodipodi:arc-type="slice" />
    <path
       id="path3963"
       sodipodi:rx="0.50733799"
       sodipodi:ry="0.41520646"
       style="fill:#ffffff"
       sodipodi:type="arc"
       d="m -310.7245,196.66551 a 0.50733799,0.41520646 0 0 1 -0.5073,0.41521 0.50733799,0.41520646 0 0 1 -0.50738,-0.41514 0.50733799,0.41520646 0 0 1 0.50721,-0.41527 0.50733799,0.41520646 0 0 1 0.50747,0.41507 l -0.50734,1.3e-4 z"
       inkscape:export-ydpi="47.58791"
       inkscape:export-filename="C:\Documents and Settings\hernan\Escritorio\Gui98 3.png"
       transform="matrix(0.42074707,-0.90717799,0.92703527,0.37497415,0,0)"
       sodipodi:cy="196.66551"
       sodipodi:cx="-311.23184"
       inkscape:export-xdpi="47.58791"
       sodipodi:end="6.2828594"
       sodipodi:start="0"
       sodipodi:arc-type="slice" />
    <path
       id="path3965"
       sodipodi:rx="1.4543761"
       sodipodi:ry="1.2047771"
       style="fill:#ffffff"
       sodipodi:type="arc"
       d="m -262.75726,273.34244 a 1.4543761,1.2047771 0 0 1 -1.45426,1.20477 1.4543761,1.2047771 0 0 1 -1.4545,-1.20458 1.4543761,1.2047771 0 0 1 1.45403,-1.20497 1.4543761,1.2047771 0 0 1 1.45473,1.20439 l -1.45438,3.9e-4 z"
       inkscape:export-ydpi="47.58791"
       inkscape:export-filename="C:\Documents and Settings\hernan\Escritorio\Gui98 3.png"
       transform="matrix(0.5858806,-0.81039739,0.85396561,0.52032945,0,0)"
       sodipodi:cy="273.34244"
       sodipodi:cx="-264.21164"
       inkscape:export-xdpi="47.58791"
       sodipodi:end="6.2828594"
       sodipodi:start="0"
       sodipodi:arc-type="slice" />
    <path
       id="path3967"
       sodipodi:rx="0.50733799"
       sodipodi:ry="0.41520646"
       style="fill:#ffffff"
       sodipodi:type="arc"
       d="m -299.75661,223.20023 a 0.50733799,0.41520646 0 0 1 -0.5073,0.4152 0.50733799,0.41520646 0 0 1 -0.50737,-0.41514 0.50733799,0.41520646 0 0 1 0.50721,-0.41527 0.50733799,0.41520646 0 0 1 0.50746,0.41507 l -0.50734,1.4e-4 z"
       inkscape:export-ydpi="47.58791"
       inkscape:export-filename="C:\Documents and Settings\hernan\Escritorio\Gui98 3.png"
       transform="matrix(0.42074707,-0.90717799,0.92703527,0.37497415,0,0)"
       sodipodi:cy="223.20023"
       sodipodi:cx="-300.26395"
       inkscape:export-xdpi="47.58791"
       sodipodi:end="6.2828594"
       sodipodi:start="0"
       sodipodi:arc-type="slice" />
    <path
       id="path3971"
       style="fill:#ffffff;stroke-width:0.185059"
       d="m 50.52569,366.37319 c -2.079317,-0.46161 -3.427839,-1.43632 -4.959568,-3.58459 -0.713475,-1.00074 -1.631717,-2.73165 -1.994376,-3.75946 -0.27483,-0.77895 -0.159757,-1.00158 0.915836,-1.77179 0.84011,-0.60159 2.730354,-1.49342 2.869888,-1.35398 0.04157,0.0416 -0.05441,0.37495 -0.213299,0.74085 -1.033441,2.37985 -0.07019,4.98788 2.290655,6.20223 0.88693,0.45621 2.670209,0.55579 3.71838,0.20762 1.192925,-0.39621 2.172032,-1.25701 2.738311,-2.40724 0.411071,-0.83502 0.482559,-1.14596 0.482559,-2.09912 0,-0.81017 -0.08798,-1.31773 -0.318856,-1.83969 -0.175378,-0.39645 -0.318856,-0.74315 -0.318856,-0.77045 0,-0.0273 0.280864,0.0495 0.624147,0.1706 0.953995,0.33658 2.186837,1.08783 2.60951,1.59009 1.336734,1.58862 0.668857,4.66847 -1.52416,7.02852 -0.992876,1.0685 -3.351225,1.89019 -5.334312,1.85836 -0.373818,-0.006 -1.087478,-0.1014 -1.585914,-0.21206 z"
       inkscape:export-ydpi="47.58791"
       inkscape:export-filename="C:\Documents and Settings\hernan\Escritorio\Gui98 3.png"
       inkscape:connector-curvature="0"
       inkscape:export-xdpi="47.58791" />
    <path
       id="path3978"
       style="fill:#000000;stroke-width:0.185059"
       d="m 79.879673,345.05259 c -0.560191,0.0212 -1.121325,0.0901 -1.691528,0.19184 -6.071585,1.08274 -8.71126,2.8945 -6.496479,6.96134 3.820533,-1.70405 5.491982,-3.32198 10.175998,-2.95039 5.305257,0.42092 9.180198,2.05878 11.370921,4.65497 0.294335,-0.0439 0.976738,-0.0373 1.010438,-0.0861 -0.313156,-2.155 -1.974205,-3.94785 -5.841928,-6.55569 -0.933527,-0.62946 -4.606106,-2.36413 -8.527496,-2.21571 z"
       inkscape:export-ydpi="47.58791"
       sodipodi:nodetypes="sscsccss"
       inkscape:export-filename="C:\Documents and Settings\hernan\Escritorio\Gui98 3.png"
       inkscape:connector-curvature="0"
       inkscape:export-xdpi="47.58791" />
    <path
       id="path3982"
       style="fill:#000000;stroke-width:0.185059"
       d="m 52.357769,344.9027 c 0.560191,0.0212 1.121326,0.0901 1.691528,0.19183 6.071585,1.08274 8.71126,2.8945 6.496479,6.96134 -3.820533,-1.70405 -5.491981,-3.32198 -10.175998,-2.95038 -5.305257,0.42091 -9.180198,2.05877 -11.37092,4.65496 -0.294336,-0.0439 -0.976739,-0.0373 -1.010439,-0.0861 0.313175,-2.15501 1.974205,-3.94785 5.841928,-6.5557 0.933528,-0.62946 4.606106,-2.36412 8.527496,-2.2157 z"
       inkscape:export-ydpi="47.58791"
       sodipodi:nodetypes="sscsccss"
       inkscape:export-filename="C:\Documents and Settings\hernan\Escritorio\Gui98 3.png"
       inkscape:connector-curvature="0"
       inkscape:export-xdpi="47.58791" />
    <path
       id="path3986"
       style="fill:#ffffff;stroke-width:0.185059"
       d="m 78.73416,366.67853 c -0.934804,-0.13634 -2.107446,-0.53898 -2.608214,-0.89564 -0.118621,-0.0845 -0.266041,-0.15359 -0.327591,-0.15359 -0.06155,0 -0.410682,-0.31395 -0.775839,-0.69767 -1.744214,-1.83287 -2.541039,-3.8964 -2.199791,-5.69573 0.137197,-0.72313 0.544424,-1.64136 0.853656,-1.92479 0.441865,-0.40508 2.514391,-1.45586 2.634679,-1.3357 0.01595,0.0159 -0.07032,0.23207 -0.191721,0.48025 -0.324149,0.66277 -0.455947,1.26254 -0.455947,2.07487 0,1.33866 0.429983,2.38652 1.364806,3.32606 0.900551,0.90512 1.869091,1.33982 3.141369,1.41002 1.473565,0.0813 2.716844,-0.38776 3.733,-1.40839 0.917002,-0.921 1.35535,-1.99734 1.35535,-3.32772 0,-0.99007 -0.25625,-1.88112 -0.752374,-2.61618 -0.122125,-0.18095 -0.206617,-0.32901 -0.18776,-0.32901 0.01886,0 0.366046,0.10598 0.771528,0.2355 1.768789,0.56506 3.634179,1.70038 3.920834,2.38633 0.09725,0.23275 0.08744,0.30563 -0.127605,0.94858 -0.431852,1.29115 -1.376521,3.04495 -2.24624,4.17029 -0.911247,1.1791 -2.222923,2.45443 -2.524198,2.45443 -0.07701,0 -0.335567,0.0987 -0.574589,0.21937 -1.275589,0.64393 -3.188743,0.9143 -4.803379,0.67881 z"
       inkscape:export-ydpi="47.58791"
       inkscape:export-filename="C:\Documents and Settings\hernan\Escritorio\Gui98 3.png"
       inkscape:connector-curvature="0"
       inkscape:export-xdpi="47.58791" />
    <path
       id="path3990"
       style="fill:#000000;stroke-width:0.185059"
       d="m 97.86366,358.47119 c -0.04537,-0.20768 -0.126205,-0.85338 -0.179592,-1.43487 -0.140077,-1.5255 -0.646484,-4.08165 -1.01586,-5.29083 -0.175293,-0.57383 -0.731426,-1.7815 -1.201104,-2.69519 -0.988472,-1.92313 -2.407242,-3.38749 -3.231862,-3.55238 -0.367064,-0.0734 -0.687807,0.16522 -0.518035,-0.42514 0.0017,-0.17652 0.200585,-2.41149 0.31212,-4.97233 0.181433,-4.1653 0.263875,-4.72159 0.07391,-5.4509 -0.614561,-2.3595 -2.29195,-4.62128 -5.531029,-7.19526 -2.863225,-2.2753 -3.497236,-2.57195 -5.975725,-2.29121 -1.176287,0.13325 -3.44912,0.66897 -3.631218,0.76057 -0.03969,0.02 0.625738,1.11853 1.460389,2.41575 0.834651,1.29723 1.744103,2.7472 1.744103,2.78384 0,0.0366 -0.877918,-0.44588 -1.397099,-0.67992 -2.137241,-0.96347 -7.707503,-2.49145 -8.180327,-2.64449 -0.07236,0.0271 1.120251,1.50917 2.421676,3.24463 1.457483,1.94367 2.773101,3.84311 2.591929,3.83552 0.0076,0.23782 -1.460056,-0.72017 -2.531415,-1.22899 -7.720457,-3.66638 -13.96137,-5.76587 -21.015246,-7.2208 l -2.093937,-0.43191 -1.568501,0.64863 c -2.0238,0.83688 -2.921889,1.27363 -4.150862,2.08524 -1.733813,1.14505 -3.260361,2.94299 -3.925647,4.62369 -0.30579,0.77245 -0.104558,0.99793 -0.0096,5.59506 0.05402,2.61673 0.148602,4.87074 0.186946,5.07838 0.06114,0.33116 -0.161615,0.71369 -1.676112,1.89352 -1.805523,1.40653 -2.818071,3.56126 -3.514446,4.94772 -0.928661,1.84881 -1.632087,3.27239 -1.901661,6.09102 -0.09897,1.03471 -0.119363,1.56109 -0.235543,1.07822 -0.655718,-2.72536 -1.497419,-4.56465 -2.110222,-5.01546 -0.240743,-0.1245 -0.549106,-0.27144 -0.817607,-0.30703 l -1.89685,-0.25132 -0.121402,-0.77344 c -0.04593,-0.30024 -0.289173,-2.46405 -0.540575,-4.83151 -0.251402,-2.36745 -0.687473,-4.51764 -0.528675,-4.87074 l -0.26121,-0.39539 -0.377575,-0.11211 c -0.549142,10e-4 -0.836927,0.0178 -1.306624,0.28632 -0.364954,0.20863 -1.258028,0.93691 -1.291135,0.90382 -0.109708,-0.1097 1.628404,-6.81089 2.421121,-9.43372 2.268632,-7.50579 4.67976,-11.25378 9.552351,-15.36245 0.541037,-0.45621 1.27211,-0.69334 1.27211,-0.75837 0,-0.28977 -1.481393,-1.56926 -2.324335,-2.01769 -0.523974,-0.27883 -2.384849,-0.85131 -2.92781,-0.90094 -1.06107,-0.097 -2.602663,-0.57764 -2.602663,-0.63766 0,-0.13907 1.829377,-0.61138 3.355851,-0.97357 1.593428,-0.3781 6.602703,-0.5326 9.594729,-0.25365 1.243316,0.11593 2.093382,0.16806 2.11966,0.14421 0.02623,-0.0238 -0.06965,-0.42164 -0.335381,-0.94924 -0.621779,-1.23447 -2.026021,-2.54603 -3.940637,-3.80202 -0.809982,-0.53131 -2.191277,-1.37253 -2.156116,-1.39063 0.04131,-0.0213 1.302479,0.27561 1.837002,0.42982 2.906344,0.83839 5.024523,1.91036 6.742052,3.66212 0.554879,0.56589 0.994726,1.119 0.997021,1.06501 0.0042,-0.099 0.05654,-0.88711 0.103498,-1.81429 0.102078,-2.01566 0.575606,-3.6773 1.088699,-4.72695 0.353221,-0.72267 1.43846,-2.20682 2.590264,-2.63209 0.05849,-0.0216 0.06656,0.75302 0.128121,1.49838 0.11517,1.39449 0.523253,2.3038 1.0337,2.7657 0.277348,0.251 0.371413,0.21998 2.254383,-1.24699 3.443569,-2.6828 5.100028,-3.59088 8.044494,-4.37442 2.310641,-0.61502 3.57385,-1.11453 1.705944,0.6136 -0.886523,0.8202 -2.765145,2.25327 -2.386145,2.30213 0.461351,0.0595 0.735515,0.0829 1.96088,0.13948 6.265341,0.28933 11.681079,1.11215 17.056289,2.88858 5.353373,1.76914 10.040165,4.23784 14.542268,7.41215 l 1.702872,1.20062 -1.286194,-0.0724 c -1.555953,0.0622 -4.464352,0.25053 -4.795421,0.37301 -0.285564,0.10563 -0.105876,0.28149 1.48156,1.4501 5.549905,4.08553 7.361996,5.43813 9.036966,7.40104 1.23212,1.44403 1.95644,2.56769 2.77865,4.19694 0.50832,1.00711 1.36762,3.78538 1.36762,4.12718 0,0.0327 -0.59713,-0.36409 -1.03325,-0.55534 -0.879,-0.38548 -2.12448,-0.47675 -2.24772,-0.35361 -0.0435,0.0435 -0.0409,0.69023 0.0528,1.79608 0.26204,3.08715 0.3081,8.14091 0.0108,10.61829 -0.58062,4.83873 -1.64854,8.65667 -3.71061,12.75294 -0.690268,1.37124 -1.069768,1.53726 -1.139516,1.21811 z"
       inkscape:export-ydpi="47.58791"
       sodipodi:nodetypes="csssscsssssssscscsscssssssssscsccscccsssssssssscssssssssssssssssssccssssssscsscc"
       inkscape:export-filename="C:\Documents and Settings\hernan\Escritorio\Gui98 3.png"
       inkscape:connector-curvature="0"
       inkscape:export-xdpi="47.58791" />
    <path
       id="path3995"
       style="fill:#000000;stroke-width:0.185059"
       d="m 64.251481,384.95861 c -4.949946,-0.0889 -7.265028,-0.85469 -7.570745,-2.11003 2.254383,0.2157 5.367068,0.30847 9.650062,0.20926 4.368306,0.20878 7.909031,-0.003 10.485231,-0.43596 -0.08163,1.59209 -2.901718,2.4672 -10.094387,2.31934 -0.888429,0.0189 -1.70872,0.0311 -2.470346,0.0174 z"
       inkscape:export-ydpi="47.58791"
       inkscape:export-filename="C:\Documents and Settings\hernan\Escritorio\Gui98 3.png"
       inkscape:connector-curvature="0"
       inkscape:export-xdpi="47.58791" />
    <path
       id="path4019"
       style="fill:#000000;filter:url(#filter4041)"
       d="m 250.08,704.28 c -8.8705,-0.15926 -13.019,-1.5316 -13.567,-3.7812 4.0399,0.38653 9.618,0.5528 17.293,0.375 7.8281,0.37414 14.173,-0.006 18.79,-0.78125 -0.14628,2.853 -5.2,4.4212 -18.089,4.1562 -1.5921,0.0338 -3.0621,0.0557 -4.4268,0.0312 z"
       inkscape:export-ydpi="47.58791"
       inkscape:export-filename="C:\Documents and Settings\hernan\Escritorio\Gui98 3.png"
       inkscape:connector-curvature="0"
       transform="matrix(0.55802546,0,0,0.51585063,-75.303,20.954055)"
       inkscape:export-xdpi="47.58791" />
    <path
       id="path4045"
       style="fill:#7a4d2c;filter:url(#filter4051)"
       d="m 81.208,839.11 c -6.2596,-4.3913 -12.568,-8.7426 -17.593,-10.488 5.9094,-0.0449 11.745,0.15764 17.119,1.8946 -2.2174,-2.1549 -4.6016,-3.9474 -7.5109,-6.0223 9.119,-0.0343 17.293,1.9066 24.427,6.0223 -5.6839,-1.154 -11.368,-2.9659 -17.052,-2.9773 l 9.8116,9.7439 c -5.8644,-2.5478 -11.729,-4.6669 -17.593,-5.9546 2.6527,2.219 4.9104,3.4111 8.3906,7.7816 z"
       inkscape:export-ydpi="47.58791"
       sodipodi:nodetypes="ccccccccc"
       inkscape:export-filename="C:\Documents and Settings\hernan\Escritorio\Gui98 3.png"
       inkscape:connector-curvature="0"
       transform="matrix(0.55802546,0,0,0.55802546,21.551078,-147.96736)"
       inkscape:export-xdpi="47.58791" />
    <path
       id="path4063"
       style="opacity:0.43498;fill:#000000;filter:url(#filter4073)"
       d="m 49.471,361.66 c 2.0507,-2.0188 4.8011,-3.7509 5.6953,-6.2434 0.8218,-1.9608 1.5907,-3.9389 1.3637,-6.2434 0.01439,-0.78878 -0.21737,-1.601 -0.64174,-2.4316 -0.65395,-0.28438 -1.1902,-0.15074 -1.6845,0.13143 -1.8647,2.5469 -3.5399,5.2492 -4.1712,8.8065 l -1.123,5.0605 4.091,-23.396 c 0.55981,2.2228 1.2806,4.5116 1.4439,6.572 2.4249,-3.0633 3.814,-4.1042 4.8932,-4.5347 2.7764,0.13172 5.3165,0.59789 5.7756,4.0089 -1.5502,-1.471 -3.1033,-2.8485 -4.7328,-1.7745 -1.1498,0.43136 -2.2995,1.1986 -3.4493,3.0231 1.0373,1.0515 1.7702,2.1031 2.1658,3.1546 0.1255,3.1161 -0.13041,5.9718 -1.2835,8.215 -1.1553,2.1205 -3.2452,3.4752 -5.4547,4.7319 z"
       inkscape:export-ydpi="47.58791"
       sodipodi:nodetypes="ccccccccccccccccc"
       inkscape:export-filename="C:\Documents and Settings\hernan\Escritorio\Gui98 3.png"
       inkscape:connector-curvature="0"
       transform="matrix(0.55802546,0,0,0.64515101,68.750253,140.37047)"
       inkscape:export-xdpi="47.58791" />
    <path
       id="path4186"
       style="opacity:0.26341;fill:#717171;filter:url(#filter5220)"
       d="m 159.44,1054.7 0.44134,-54.298 c 6.1272,5.0659 12.235,10.005 17.212,7.6208 -16.815,-15.841 -27.245,-41.329 -38.395,-65.728 l -4.2087,59.692 -39.147,-6.372 c 0.45216,-84.827 14.959,-100.85 25.923,-123.34 13.894,-21.548 35.032,-40.362 81.204,-47.391 35.7,34.389 71.037,42.043 111.43,-0.23822 26.098,3.0951 51.457,9.0962 71.936,34.293 15.647,17.213 29.905,54.581 35.056,134.73 l -37.578,7.36312 -6.3037,-61.12102 c -10.457,24.989 -21.35,49.183 -36.189,66.20502 4.781,4.3268 11.258,-0.2382 17.212,-6.66802 l -2.2066,54.29702 z"
       inkscape:export-ydpi="47.58791"
       sodipodi:nodetypes="ccccccccccccccccc"
       inkscape:export-filename="C:\Documents and Settings\hernan\Escritorio\Gui98 3.png"
       inkscape:connector-curvature="0"
       inkscape:export-xdpi="47.58791"
       transform="matrix(0.18505852,0,0,0.18505852,18.858476,244.30118)" />
    <g
       id="g3926"
       transform="matrix(0.1665101,0,0,0.13270176,23.122594,289.5776)">
      <g
         id="g3934">
        <path
           id="path3924"
           style="fill:#ffffff"
           inkscape:connector-curvature="0"
           d="m 266.15,995.54 c -16.927,-9.8872 -30.287,-19.41 -32.586,-23.228 -1.5338,-2.5467 -5.6031,-16.632 -11.392,-39.431 -5.1301,-20.204 -6.3093,-26.653 -5.2627,-28.78 1.1356,-2.3086 2.3404,-2.1881 9.0131,0.90122 3.1202,1.4446 5.869,2.2814 6.1086,1.8596 0.23958,-0.42174 0.66867,-3.1929 0.95354,-6.1582 0.54243,-5.6462 2.4302,-9.0307 5.0369,-9.0303 0.77146,10e-5 3.4316,1.1882 5.9114,2.6402 6.038,3.5355 7.7876,3.4747 9.4464,-0.32847 0.76376,-1.7511 2.3554,-3.5034 3.7552,-4.1342 2.1959,-0.98962 2.9983,-0.78881 8.3451,2.0885 8.3684,4.5033 28.265,17.567 31.044,20.382 3.1144,3.1554 3.0459,6.1962 -0.47927,21.277 -3.1914,13.653 -10.915,43.119 -14.227,54.281 -2.3008,7.7525 -4.7816,11.723 -7.3084,11.698 -0.81056,-0.008 -4.5716,-1.8244 -8.3579,-4.0359 z m 1.1551,-23.24 c -7.023,-27.214 -10.843,-39.883 -12.667,-42.013 -0.9142,-1.0676 -3.2359,-3.1144 -5.1594,-4.5484 -4.7383,-3.5325 -26.176,-17.12 -27.011,-17.12 -1.4045,0 -0.52152,4.8409 3.8486,21.099 7.9954,29.745 8.2945,30.11 10.327,12.603 1.2499,-10.763 1.7936,-11.833 4.23,-8.3247 3.451,4.97 24.402,41.779 24.018,42.197 -0.47713,0.5191 -8.1433,-3.5366 -18.91,-10.004 -7.9813,-4.7944 -11.067,-5.9157 -11.067,-4.022 0,2.0257 3.3491,7.897 5.7676,10.111 4.9327,4.5157 29.586,19.385 30.548,18.425 0.36043,-0.35986 -1.4059,-8.6414 -3.9251,-18.403 z m 7.3203,-26.542 c -0.0562,-27.277 0.4653,-25.471 -9.379,-32.474 -9.8414,-7.0004 -24.436,-15.531 -26.012,-15.204 -2.0042,0.41542 -2.5288,10.633 -0.70168,13.667 1.2513,2.0778 6.6055,5.1732 13.835,7.9985 10.463,4.089 16.44,16.216 17.833,36.183 0.81204,11.639 1.8864,16.065 3.4791,14.331 0.7312,-0.79604 0.98147,-7.2781 0.94597,-24.501 z m 10.246,11.023 c 5.4488,-18.843 9.0666,-33.719 9.0666,-37.282 0,-3.3008 -0.22049,-3.558 -7.5828,-8.8449 -11.737,-8.4285 -24.597,-16.304 -26.623,-16.304 -1.9235,0 -3.1042,2.7643 -2.5406,5.9484 0.16462,0.92995 3.8048,4.0113 8.4752,7.1741 9.5063,6.4377 12.261,9.4298 13.544,14.714 0.51115,2.104 2.0657,5.117 3.4547,6.6955 l 2.5253,2.87 -2.6194,10.718 c -2.6419,10.81 -4.1034,23.488 -3.0516,26.47 0.85843,2.4338 1.654,0.6261 5.351,-12.159 z" />
        <path
           id="path3922"
           style="fill:#ffffff"
           inkscape:connector-curvature="0"
           d="m 239.83,1049.5 c -2.2304,-0.6692 -58.564,-37.111 -62.932,-40.71 -1.4738,-1.2143 -2.4758,-2.5666 -2.2268,-3.005 0.24904,-0.4384 3.6682,-3.0756 7.5982,-5.8605 3.93,-2.7849 11.087,-8.426 15.905,-12.536 11.732,-10.008 15.796,-12.241 22.283,-12.241 3.8068,0 5.932,0.5232 8.4976,2.092 6.2189,3.8027 5.3887,7.4876 -1.2213,5.4202 -10.028,-3.1364 -12.817,-2.1576 -24.872,8.7292 -10.396,9.3887 -10.607,9.6961 -8.0788,11.789 2.5758,2.1329 32.738,20.956 41.432,25.857 4.6053,2.5956 7.1632,3.5548 8.3695,3.1382 0.95547,-0.3299 5.8271,-5.5579 10.826,-11.618 4.9987,-6.0599 10.326,-11.657 11.839,-12.438 1.5743,-0.8128 4.8725,-1.4198 7.7144,-1.4198 h 4.9643 l 4.6162,-6.216 c 5.7656,-7.7637 10.005,-10.167 21.277,-12.065 13.437,-2.2615 13.05,-2.1251 11.456,-4.0411 -0.75007,-0.90173 -5.4791,-4.3512 -10.509,-7.6654 -11.277,-7.4309 -14.474,-9.9968 -14.474,-11.619 0,-3.7135 3.7932,-2.0274 25.003,11.114 13.616,8.4362 19.265,12.38 19.265,13.45 0,0.39029 -8.7612,6.4127 -19.469,13.383 -10.708,6.9704 -20.434,13.589 -21.612,14.708 -1.1783,1.119 -3.446,4.2516 -5.0393,6.9613 -4.2252,7.1861 -6.6174,8.7446 -13.439,8.7552 -6.5488,0.011 -9.9135,1.486 -22.36,9.8078 -8.9288,5.9697 -11.739,7.1514 -14.812,6.2291 z" />
        <text
           id="text3930"
           style="font-weight:bold;line-height:0%;font-family:Tahoma;letter-spacing:0px;word-spacing:0px;fill:#ffffff"
           transform="scale(0.79757,1.2538)"
           xml:space="preserve"
           y="889.57196"
           x="228.85919">           <tspan
   id="tspan3932"
   y="889.57196"
   x="228.85919"
   sodipodi:role="line"
   style="font-size:53.852px;line-height:1.25">Clip Art</tspan>        </text>
      </g>
    </g>
  </g>
  <metadata
     id="metadata2092">
    <rdf:RDF>
      <cc:Work>
        <dc:format>image/svg+xml</dc:format>
        <dc:type
           rdf:resource="http://purl.org/dc/dcmitype/StillImage" />
        <cc:license
           rdf:resource="http://creativecommons.org/licenses/publicdomain/" />
        <dc:publisher>
          <cc:Agent
             rdf:about="http://openclipart.org/">
            <dc:title>Openclipart</dc:title>
          </cc:Agent>
        </dc:publisher>
        <dc:title>Comic-Boy</dc:title>
        <dc:date>2012-05-24T22:25:04</dc:date>
        <dc:description>un bonito avatar  para tu perfil</dc:description>
        <dc:source>https://openclipart.org/detail/170194/comic-boy-by-nadiesabe</dc:source>
        <dc:creator>
          <cc:Agent>
            <dc:title>nadiesabe</dc:title>
          </cc:Agent>
        </dc:creator>
        <dc:subject>
          <rdf:Bag>
            <rdf:li>avatar</rdf:li>
            <rdf:li>boy</rdf:li>
            <rdf:li>comic</rdf:li>
            <rdf:li>design</rdf:li>
            <rdf:li>diseño</rdf:li>
          </rdf:Bag>
        </dc:subject>
      </cc:Work>
      <cc:License
         rdf:about="http://creativecommons.org/licenses/publicdomain/">
        <cc:permits
           rdf:resource="http://creativecommons.org/ns#Reproduction" />
        <cc:permits
           rdf:resource="http://creativecommons.org/ns#Distribution" />
        <cc:permits
           rdf:resource="http://creativecommons.org/ns#DerivativeWorks" />
      </cc:License>
    </rdf:RDF>
  </metadata>
</svg>
