<svg width="69.653" height="140" xmlns="http://www.w3.org/2000/svg"><path d="M25.253 9.657l1.039 63.614c-3.895 1.611-7.79 2.596-11.684.779-1.756-3.92-3.347-8.83-4.414-16.877-2.848-4.523-9.215-2.768-8.05 1.817.614 31.68 3.038 25.21 4.934 28.042 13.864 2.868 12.155.026 19.214 1.039L24.215 140h30.638l-3.375-78.933c3.17 1.528 8.602 2.53 12.463-.779 3.371-4.538 2.679-13.47 2.596-20.771-.665-7.34-9.69-5.151-9.347-1.558-.161 3.127 1.417 9.033-.78 10.126-2.04 2.366-4.803-2.507-6.23-2.597l-2.337-36.09c-3.045-13.708-23.124-11.373-22.59.26z" fill="#250"/><path d="M29.927 6.022c2.366 46.165 1.552 88.514.52 130.603 4.343 23.128 4.583-135.536-.52-130.603zM35.901 5.762c2.984 45.804 3.547 87.823 3.947 129.582C43.636 158.29 39.477.867 35.901 5.762zM43.169 6.838c2.622 44.59 2.858 85.539 2.93 126.236 3.608 22.293.682-131.08-2.93-126.236z" fill="#338000"/><path d="M25.513 15.888l5.972-1.298-.52 2.596zM32.264 42.372l5.972-1.298-.52 2.596zM40.053 58.99l5.972-1.299-.52 2.597zM26.292 87.031l5.972-1.298-.52 2.597zM34.86 117.15l5.972-1.298-.52 2.597zM50.18 16.927l-5.972-1.299.519 2.597zM52.257 85.993l-5.972-1.298.519 2.596zM53.036 124.94l-5.972-1.298.519 2.596zM69.653 41.074l-5.972-1.298.52 2.596zM15.906 67.298L9.934 66l.52 2.597zM64.935 29.86l-5.214 5.813 3.384.919 1.83-6.732zM40.269 18.435l-5.215 5.813 3.385.92 1.83-6.733zM48.318 29.08l-5.214 5.814 3.384.92 1.83-6.733zM35.335 64.912l-5.214 5.813 3.385.92 1.83-6.733zM11.707 52.709l-5.214 5.813 3.385.919 1.83-6.732zM35.076 100.224l-5.214 5.813 3.384.92 1.83-6.733zM43.644 85.944l-5.214 5.813 3.384.919 1.83-6.732zM47.28.779l-5.215 5.813 3.384.92L47.28.778zM0 60.238l5.214 5.813-3.384.92L0 60.239zM4.414 75.817l5.214 5.813-3.384.92-1.83-6.733zM29.34 28.562l5.214 5.812-3.384.92-1.83-6.732zM33.494 1.558l5.215 5.813-3.385.92-1.83-6.733zM44.4 70.365l5.214 5.813-3.385.919-1.83-6.732zM56.084 42.582l5.214 5.813-3.384.92-1.83-6.732zM20.772 70.105l5.214 5.813-3.384.92-1.83-6.733z" fill="#8a916f"/><path d="M5.78 62.105c5.124 13.063 6.478 22.419 18.435 21.81-12.576.343-17.558-2.857-18.435-21.81zM64.72 44.969c-3.536 8.558-4.471 14.688-12.723 14.29 8.68.224 12.117-1.872 12.723-14.29z" fill="#338000"/></svg>