<svg version="1.1" xmlns="http://www.w3.org/2000/svg" xmlns:xlink="http://www.w3.org/1999/xlink" width="140.08067" height="122.65881" viewBox="0,0,140.08067,122.65881"><g transform="translate(-169.64141,-116.50312)"><g data-paper-data="{&quot;isPaintingLayer&quot;:true}" fill-rule="nonzero" stroke-width="0.0938" stroke-linecap="butt" stroke-linejoin="miter" stroke-miterlimit="10" stroke-dasharray="" stroke-dashoffset="0" style="mix-blend-mode: normal"><path d="M255.25108,119.30916c2.69895,4.34519 4.86454,8.99556 6.90695,13.67672c4.03162,9.44491 7.32831,19.2328 9.40572,29.29785c-3.86924,2.1824 -7.20792,5.3433 -9.45331,9.18734c-1.59585,2.70875 -2.63175,5.77166 -2.84873,8.91716c-0.19318,2.55616 0.20858,5.14452 1.12129,7.53689c-3.25749,-0.30937 -6.55419,-0.21838 -9.79068,0.27297c-1.73864,-3.53327 -3.66766,-6.96995 -5.74086,-10.31843c0.0308,-0.07979 0.09239,-0.23938 0.12459,-0.31917c0.88472,0.83012 1.55385,1.85063 2.29998,2.79974c0.63554,0.79513 1.19269,1.67704 2.01301,2.30138c-0.0266,-0.29957 -0.06299,-0.59494 -0.11619,-0.88752c-1.26408,-6.4296 -2.45257,-12.87459 -3.78944,-19.29019c-0.47736,-2.28599 -0.98971,-4.56497 -1.64205,-6.80756c0.55575,0.61454 0.94211,1.35507 1.37887,2.05361c2.87953,4.84075 5.59248,9.78088 8.4888,14.61323c0.47316,0.76573 0.90851,1.56505 1.50486,2.24679c-0.87352,-2.82354 -1.92202,-5.59388 -2.93552,-8.36981c-2.29019,-6.18182 -4.79455,-12.28245 -7.00774,-18.49227c-0.86512,-2.52116 -1.76523,-5.04513 -2.30978,-7.65868c0.61034,0.80772 0.97431,1.76243 1.42507,2.66255c3.74745,8.00725 7.23312,16.13629 11.03656,24.11834c0.54175,1.0723 1.00791,2.19639 1.72464,3.1679c-0.83572,-4.98913 -1.0443,-10.05666 -1.11989,-15.10738c-0.19598,-6.48419 0.12039,-12.98378 -0.37376,-19.45678c-0.17498,-2.53096 -0.35557,-5.06752 -0.78813,-7.56909c-0.27017,-1.56925 -0.82732,-3.06711 -1.19129,-4.61397c-0.44936,-1.83943 -0.74333,-3.71105 -1.0275,-5.57988c-0.06019,-0.38216 -0.0182,-0.76853 0.07699,-1.14089h0.37656c0.97291,0.70973 1.58605,1.77923 2.25099,2.75914z" data-paper-data="{&quot;index&quot;:null}" fill="#007eba" stroke="#007eba"/><path d="M194.3008,125.95714c4.11281,2.34478 7.93726,5.15852 11.6749,8.05204c8.39781,6.59198 16.26087,13.9077 23.13703,22.08573c5.69047,6.92375 11.01137,14.16667 15.73872,21.78476c2.07321,3.34849 4.00222,6.78516 5.74086,10.31843c1.30748,2.72134 2.48197,5.53508 3.1553,8.4874c0.30517,1.50626 0.57395,3.13711 0.0014,4.61397c-0.25198,0.58515 -0.74053,1.28368 -1.46846,1.18429c-1.13249,-0.06859 -2.24119,-0.33597 -3.35549,-0.54035c-3.03492,-0.58235 -6.15942,-1.0219 -9.24333,-0.56275c-2.39798,0.36117 -4.75955,1.44606 -6.3512,3.31489c-0.49275,0.55995 -0.83152,1.42787 -1.67424,1.51186c-1.95142,0.21418 -3.84824,-0.47316 -5.67227,-1.0737c-2.13761,-0.79933 -4.23182,-1.75684 -6.14964,-3.00132c-1.76802,-1.14229 -3.54867,-2.38818 -4.79455,-4.11561c-0.27297,-0.35277 0.14559,-0.68594 0.44096,-0.82592c1.56505,-0.75033 3.3555,-0.87212 4.91354,-1.63925c0.30379,-0.16378 0.76014,-0.48295 0.48857,-0.87212c-1.0639,-1.67704 -2.1544,-3.34009 -3.2029,-5.02973c-1.59305,-2.51556 -3.11611,-5.08012 -4.85614,-7.4991c1.13109,0.18758 2.1292,0.78813 3.1735,1.22628c1.0331,0.43536 2.02841,1.0205 3.1497,1.19829c-1.0653,-1.45306 -2.26919,-2.79974 -3.38908,-4.2122c-3.60746,-4.40959 -7.18693,-8.84577 -10.89098,-13.17556c-1.0975,-1.28928 -2.24259,-2.53936 -3.42828,-3.74885c0.75873,0.27297 1.43487,0.71953 2.1278,1.12129c4.76935,2.85293 9.44071,5.86965 14.21007,8.72398c0.86792,0.49835 1.71204,1.0471 2.63875,1.43067c-0.72373,-0.81192 -1.56785,-1.50206 -2.35738,-2.24819c-4.2486,-3.88464 -8.64559,-7.60409 -13.01598,-11.34874c-3.42968,-2.95092 -6.87056,-5.89905 -10.05946,-9.11035c-0.57395,-0.62854 -1.20949,-1.20669 -1.70924,-1.89822c0.90432,0.44376 1.68686,1.0891 2.50157,1.67144c7.00774,5.20191 13.8433,10.6278 20.87624,15.79612c1.0863,0.74893 2.1082,1.61405 3.31209,2.174c-3.40167,-4.36199 -6.16082,-9.17194 -8.85137,-13.99169c-2.48477,-4.43478 -4.80015,-8.96476 -7.38431,-13.34355c-1.71624,-2.77734 -3.42408,-5.57008 -5.38529,-8.18503c-1.20109,-1.63085 -2.75213,-2.95232 -4.06382,-4.48798c-1.0415,-1.20669 -2.01301,-2.47217 -2.97332,-3.74605c-0.25478,-0.36257 -0.56415,-0.74333 -0.55015,-1.21229c0.20858,-0.23798 0.53615,-0.14139 0.79933,-0.08119c0.97151,0.28137 1.86602,0.76853 2.74654,1.25428z" data-paper-data="{&quot;index&quot;:null}" fill="#009fe3" stroke="#009fe3"/><path d="M294.03444,163.82359c0.91691,0.77413 1.67284,1.70784 2.49454,2.57577c0.0378,0.05879 0.11479,0.17638 0.15259,0.23518c0.25198,0.43116 0.55715,0.82592 0.84412,1.23328c0.98691,1.45446 1.72604,3.06711 2.29578,4.72596c0.52355,1.83103 0.90991,3.71385 0.89872,5.62607c-0.52355,2.21739 -1.0471,4.43478 -1.57065,6.65218c-0.13439,0.55295 -0.22958,1.1185 -0.44096,1.65045c-0.80912,1.50066 -1.80023,2.90753 -2.96352,4.15481c-3.40168,3.68025 -8.03105,6.07123 -12.86899,7.23732c-2.46377,0.61454 -5.05213,0.89032 -7.56629,0.43116c-0.06999,1.15209 -0.0238,2.30418 0.0252,3.45628c0.0014,3.2071 -0.50395,6.4002 -1.30048,9.50231c-0.59774,2.19779 -1.23888,4.44458 -2.54776,6.34001c-1.32008,1.9668 -3.2043,3.48287 -5.22851,4.67836c-2.1264,1.24728 -4.40119,2.21599 -6.68017,3.14271c-3.2225,1.29628 -6.46739,2.53936 -9.6283,3.98123c-4.78335,2.19639 -9.88027,3.73765 -15.10598,4.41379c-1.71624,0.19318 -3.44088,0.36117 -5.17111,0.34997c-0.8707,0.0084 -1.74144,0.0112 -2.61076,-0.0462c-0.06999,-0.75033 -0.36957,-1.50206 -0.94771,-2.00321c-0.67334,-0.62994 -1.66444,-0.78393 -2.54636,-0.62854c-1.14649,0.18758 -2.1404,0.88892 -2.90193,1.73864c-2.52536,-0.61314 -5.00453,-1.49086 -7.25132,-2.80954c-1.45446,-0.86092 -2.83333,-1.89402 -3.91683,-3.2029c0.18198,-0.07699 0.35837,-0.15819 0.53335,-0.23938c-1.92201,-0.09239 -3.84683,0.05459 -5.77026,-0.0126c-1.0191,-0.06579 -2.01861,0.23098 -2.92853,0.67054c-3.12451,1.45586 -6.12163,3.1651 -9.23213,4.64896c-1.0863,0.49695 -2.181,1.0289 -3.36248,1.25988c-0.28277,0.06859 -0.56555,-0.0266 -0.83712,-0.10079c0.37518,-0.61734 0.99252,-1.01211 1.57347,-1.41247c2.64155,-1.76943 5.46509,-3.25189 8.08004,-5.06193c0.63414,-0.42556 1.26268,-0.87772 1.72604,-1.49506c-0.28277,-0.11899 -0.57115,-0.24918 -0.88752,-0.23238c-1.40127,0.0028 -2.78154,0.28977 -4.15901,0.52215c-2.21459,0.39336 -4.41659,0.85672 -6.61718,1.32568c-1.18849,0.27857 -2.40217,0.43816 -3.58226,0.75173c-1.49226,0.31917 -2.98592,0.62854 -4.48658,0.89452c-0.79373,0.12179 -1.60705,0.34435 -2.41057,0.16798c1.57625,-1.54687 3.66346,-2.40779 5.69327,-3.18332c3.14271,-1.16469 6.4114,-1.95142 9.5457,-3.13991c0.60474,-0.24638 1.18849,-0.53755 1.76383,-0.84412c0.72653,-0.40456 1.50906,-0.92951 1.74704,-1.77643c0.0308,-0.17358 0.14699,-0.41296 -0.0532,-0.52635c-0.30517,-0.25198 -0.69573,-0.36117 -1.0639,-0.48435c-1.21369,-0.36817 -2.46097,-0.61034 -3.69985,-0.87352c-4.55377,-0.92811 -9.14814,-1.64905 -13.69352,-2.62195c-1.17029,-0.28977 -2.40637,-0.46756 -3.45628,-1.0975c0.38356,-0.61594 1.16609,-0.65234 1.81143,-0.71953c1.82123,-0.10219 3.63824,0.12039 5.44829,0.27437c1.98081,0.19738 3.95743,0.41996 5.93544,0.64114c1.65886,0.13439 3.31909,0.31217 4.98493,0.28557c0.74753,-0.05599 1.59585,-0.0308 2.1712,-0.59214c-0.31077,-0.38216 -0.64814,-0.75033 -1.0653,-1.0163c-0.90012,-0.59074 -1.83803,-1.12549 -2.79974,-1.60705c-2.78154,-1.54684 -5.72266,-2.80814 -8.41041,-4.52018c-0.34437,-0.27017 -0.86652,-0.53055 -0.88052,-1.0219c0.35137,-0.22118 0.77973,-0.21978 1.17729,-0.21838c1.15769,0.0252 2.30138,0.23098 3.43808,0.43396c5.05073,0.92811 10.00486,2.30838 15.04299,3.29529c1.24588,0.21418 2.50157,0.50395 3.77125,0.37237c-0.10359,-0.42976 -0.28837,-0.84132 -0.60194,-1.16049c-2.77594,-3.00972 -6.00964,-5.54768 -8.92416,-8.41461c-0.53755,-0.54595 -1.1003,-1.0877 -1.46006,-1.77503c0.0168,-0.0518 0.0504,-0.15679 0.06859,-0.20858c0.95612,-0.0294 1.83803,0.38496 2.68075,0.78253c1.25148,0.59634 2.42737,1.33547 3.65786,1.97241c2.07461,0.98971 3.41148,2.97192 5.2957,4.2304c0.52495,0.35697 1.18569,0.43956 1.69944,0.81472c0.54595,0.42136 0.65094,1.18009 1.16889,1.62665c0.45776,0.39196 1.01211,0.65514 1.44886,1.0751c0.71113,0.66074 1.38727,1.35927 2.04101,2.07741c2.31118,-3.32609 5.14032,-6.26581 8.21443,-8.89337c1.91783,1.24448 4.01204,2.20199 6.14964,3.00132c1.82403,0.60056 3.72085,1.28788 5.67227,1.0737c0.84272,-0.08399 1.18149,-0.95191 1.67424,-1.51186c1.59165,-1.86882 3.95323,-2.95372 6.3512,-3.31489c3.08391,-0.45916 6.20842,-0.0196 9.24333,0.56275c1.1143,0.20438 2.22299,0.47176 3.35549,0.54035c0.72793,0.09939 1.21649,-0.59913 1.46846,-1.18429c0.57255,-1.47686 0.30377,-3.10771 -0.0014,-4.61397c-0.67334,-2.95232 -1.84783,-5.76606 -3.1553,-8.4874c3.2365,-0.49135 6.53319,-0.58235 9.79068,-0.27297c-0.91271,-2.39238 -1.31448,-4.98073 -1.12129,-7.53689c0.21698,-3.1455 1.25288,-6.20842 2.84873,-8.91716c2.24539,-3.84404 5.58408,-7.00494 9.45331,-9.18734c3.25329,-1.80863 6.93215,-2.96632 10.6712,-3.02372c4.33399,-0.08259 8.58959,1.69104 11.79949,4.56357M279.86217,168.65454c-2.26079,-0.0182 -4.52158,1.1185 -5.79546,2.99712c-0.61174,0.90292 -1.00791,1.96542 -1.0569,3.06011c-0.29117,0.08819 -0.28977,0.74473 0,0.84412c0.08819,1.62665 0.90572,3.1693 2.1152,4.2444c1.36067,1.21229 3.1973,1.85483 5.01573,1.81003c2.1222,-0.0448 4.236,-1.0373 5.52528,-2.74094c0.82732,-1.0835 1.30888,-2.44277 1.26128,-3.81044c0.0266,-1.56225 -0.64814,-3.09231 -1.71764,-4.2136c-1.36207,-1.44466 -3.36388,-2.25799 -5.3475,-2.19079z" data-paper-data="{&quot;index&quot;:null}" fill="#2daae1" stroke="#2daae1"/><g data-paper-data="{&quot;index&quot;:null}" fill="#ffffff" stroke="#ffffff"><path d="M297.58171,167.78942l-0.05599,0.07839c-0.28697,-0.40736 -0.59214,-0.80212 -0.84412,-1.23328l0.0182,-0.15399c0.57675,-0.13439 1.35367,0.11199 1.28228,0.83152c-0.12599,0.16378 -0.26458,0.32057 -0.40036,0.47736z"/><path d="M283.8798,171.98202c0.0154,1.0387 -1.1171,1.72884 -2.07041,1.63925c-0.98971,0.0126 -2.04101,-0.85112 -1.85623,-1.90522c0.23378,-1.13809 1.61405,-1.67984 2.64715,-1.32428c0.68874,0.20018 1.32148,0.83292 1.27948,1.59025z"/><path d="M278.99565,176.03044c-0.37516,0.55715 -1.37747,0.42696 -1.54685,-0.24498c-0.06159,-0.68314 0.86792,-1.0247 1.36347,-0.62714c0.28137,0.17778 0.40456,0.60054 0.18338,0.87212z"/></g><g data-paper-data="{&quot;index&quot;:null}" fill="#000000" stroke="#000000"><path d="M297.52572,167.86781l0.05599,-0.07839c0.13579,-0.15679 0.27437,-0.31357 0.40036,-0.47736c1.39427,1.33967 2.1782,3.35409 1.83943,5.2817c-0.56975,-1.65884 -1.30888,-3.27149 -2.29578,-4.72596z"/><path d="M285.20967,170.84533c1.0695,1.12129 1.74424,2.65135 1.71764,4.2136c0.0476,1.36767 -0.43396,2.72694 -1.26128,3.81044c-1.28928,1.70364 -3.40308,2.69615 -5.52528,2.74094c-1.81843,0.0448 -3.65506,-0.59774 -5.01573,-1.81003c-1.20949,-1.0751 -2.02701,-2.61775 -2.1152,-4.2444c0,-0.28137 0,-0.56275 0,-0.84412c0.049,-1.0947 0.44516,-2.1572 1.0569,-3.06011c1.27388,-1.87862 3.53467,-3.01532 5.79546,-2.99712c1.98361,-0.06719 3.98543,0.74613 5.3475,2.19079M282.60032,170.39177c-1.0331,-0.35557 -2.41337,0.18618 -2.64715,1.32428c-0.18478,1.0541 0.86652,1.91782 1.85623,1.90522c0.95331,0.08959 2.0858,-0.60054 2.07041,-1.63925c0.042,-0.75733 -0.59074,-1.39007 -1.27948,-1.59025M277.4488,175.78547c0.16938,0.67194 1.17169,0.80212 1.54685,0.24498c0.22118,-0.27157 0.09799,-0.69433 -0.18338,-0.87212c-0.49555,-0.39756 -1.42507,-0.05599 -1.36347,0.62714z"/></g><g data-paper-data="{&quot;index&quot;:null}" fill="#2997c7" stroke="#2997c7"><path d="M273.00982,175.55589c-0.28977,-0.09939 -0.29117,-0.75593 0,-0.84412c0,0.28137 0,0.56275 0,0.84412z"/><path d="M204.54504,210.00526c-1.26968,0.13159 -2.52536,-0.15819 -3.77125,-0.37237c-5.03813,-0.98691 -9.99226,-2.36718 -15.04299,-3.29529c-1.47966,-1.0849 -2.96912,-2.1586 -4.39419,-3.31349c-0.63274,-0.53895 -1.33128,-1.0625 -1.68264,-1.84083c0.35977,-0.18478 0.76853,-0.21138 1.15909,-0.13159c1.26688,0.23098 2.48337,0.66774 3.69565,1.0919c4.96113,1.80163 9.75988,4.01622 14.72242,5.81085c0.97711,0.31777 1.95842,0.71953 2.99852,0.73913c0.08679,-0.48295 -0.36537,-0.80772 -0.63694,-1.13949c-2.24259,-2.20759 -4.80015,-4.06102 -7.10293,-6.20282c-0.33037,-0.29817 -0.60614,-0.65234 -0.82872,-1.0373c0.45636,0.0028 0.90851,0.0518 1.35787,0.11619c2.91453,2.86693 6.14822,5.40489 8.92416,8.41461c0.31357,0.31917 0.49835,0.73073 0.60194,1.16049z"/><path d="M181.58719,210.03885c2.91453,0.66494 5.82905,1.40827 8.81917,1.62525c0.96171,0.48155 1.89962,1.0163 2.79974,1.60705c0.41716,0.26598 0.75453,0.63414 1.0653,1.0163c-0.57535,0.56135 -1.42367,0.53615 -2.1712,0.59214c-1.66584,0.0266 -3.32609,-0.15119 -4.98493,-0.28557c-4.87294,-1.65744 -9.83828,-3.03492 -14.69302,-4.74975c-0.93231,-0.35277 -1.90102,-0.66074 -2.73394,-1.22489v-0.34017c0.89452,-0.38916 1.88982,-0.24638 2.82494,-0.13159c3.06291,0.42556 6.06143,1.20809 9.07395,1.89122z"/><path d="M195.83365,219.47537c0.20018,0.11339 0.08399,0.35277 0.0532,0.52635c-0.23798,0.84692 -1.0205,1.37187 -1.74704,1.77643c-0.57535,0.30657 -1.15909,0.59774 -1.76383,0.84412c-6.11883,-0.27437 -12.23345,0.36677 -18.35368,0.36957c-0.77693,-0.0266 -1.60145,0.0532 -2.32378,-0.29537c1.0975,-0.45216 2.29718,-0.55155 3.45348,-0.77273c3.59486,-0.59914 7.20232,-1.15069 10.74679,-2.01161c1.77083,-0.44096 3.55147,-0.93091 5.17111,-1.79463c1.23888,0.26318 2.48617,0.50535 3.69985,0.87352c0.36817,0.12319 0.75873,0.23238 1.0639,0.48435z"/><path d="M197.55409,227.01086c-0.82872,-0.12039 -1.67144,-0.27717 -2.50576,-0.10079c-3.40728,0.56695 -6.68017,1.73444 -10.07625,2.35738c-0.95051,0.14839 -1.94862,0.35277 -2.88513,0.0168c0.47596,-0.79793 1.46146,-1.0135 2.23279,-1.42087c-0.07139,0.0056 -0.21418,0.0154 -0.28557,0.0196c1.18009,-0.31357 2.39378,-0.47316 3.58226,-0.75173c2.20059,-0.46894 4.40259,-0.9323 6.61718,-1.32568c1.37747,-0.23238 2.75774,-0.51935 4.15901,-0.52215c0.31637,-0.0168 0.60474,0.11339 0.88752,0.23238c-0.46336,0.61734 -1.0919,1.0695 -1.72604,1.49506z"/><path d="M209.49777,227.25862c-2.42317,0.72793 -4.99613,0.54875 -7.4837,0.34997c-0.22818,-0.01678 -0.45636,0.01261 -0.68174,0.06861c0.90991,-0.43956 1.90942,-0.73633 2.92853,-0.67054c1.92342,0.06719 3.84824,-0.07979 5.77026,0.0126c-0.17498,0.08119 -0.35137,0.16238 -0.53335,0.23936z"/></g><path d="M308.56788,182.22486c0.37097,0.16938 0.74333,0.33737 1.1073,0.51935v0.15679l-0.0014,-0.12459c-3.65646,1.24308 -7.29472,2.54496 -10.96517,3.74605c0.21138,-0.53195 0.30657,-1.0975 0.44096,-1.65045c0.52355,-2.21739 1.0471,-4.43478 1.57065,-6.65218c2.71015,1.12129 5.2845,2.53936 7.95825,3.74325c-0.0364,0.08679 -0.07419,0.17358 -0.11059,0.26178z" data-paper-data="{&quot;index&quot;:null}" fill="#ffed00" stroke="#ffed00"/><path d="M227.06193,234.16419c0.09239,1.24728 -0.37097,2.48057 -1.13109,3.45628c-0.14839,0.19458 -0.35557,0.33177 -0.55715,0.47036c-0.10639,-0.37656 -0.16238,-0.76713 -0.30237,-1.13109c-0.08539,-0.28837 -0.39756,-0.38076 -0.62994,-0.51795c-1.41527,0.72933 -2.44697,2.04521 -3.92943,2.65975c-0.0392,-0.08259 -0.11619,-0.25058 -0.15539,-0.33457c0.32057,-1.39287 1.20529,-2.56316 1.63225,-3.91683c0.14279,-0.35557 -0.15819,-0.76573 -0.52215,-0.80492c-0.40316,-0.0434 -0.81052,-0.021 -1.21649,-0.0336c0.11339,-0.26178 0.23939,-0.51795 0.41576,-0.74053c0.76153,-0.84972 1.75544,-1.55105 2.90193,-1.73864c0.88192,-0.15539 1.87302,-0.0014 2.54636,0.62854c0.57815,0.50115 0.87772,1.25288 0.94771,2.00321z" data-paper-data="{&quot;index&quot;:null}" fill="#fdc600" stroke="#fdc600"/><path d="M232.27504,236.43758c-0.86512,0.42556 -1.57765,1.0835 -2.33918,1.66304c-0.52075,0.39616 -1.0443,0.84832 -1.71484,0.94911c-0.06999,-0.77553 0.34997,-1.45166 0.65654,-2.1278c0.31777,-0.69294 0.70413,-1.36067 0.92531,-2.0928c0.08399,-0.21558 -0.07279,-0.41996 -0.13019,-0.61874c1.73024,0.0112 3.45488,-0.15679 5.17111,-0.34997c0.17498,1.55245 -0.39476,3.26449 -1.65324,4.236c-0.19878,-0.60054 -0.18478,-1.43627 -0.91551,-1.65884z" data-paper-data="{&quot;index&quot;:null}" fill="#f9ae00" stroke="#f9ae00"/></g></g></svg>