<?xml version="1.0" encoding="UTF-8" standalone="no"?>
<svg
   version="1.1"
   id="Layer_1"
   x="0px"
   y="0px"
   viewBox="-8 -7.76 140 122.56653"
   enable-background="new -8 -7.76 1016 985.52"
   xml:space="preserve"
   sodipodi:docname="1435464086.svg"
   width="140"
   height="122.56653"
   inkscape:version="1.2.2 (732a01da63, 2022-12-09)"
   xmlns:inkscape="http://www.inkscape.org/namespaces/inkscape"
   xmlns:sodipodi="http://sodipodi.sourceforge.net/DTD/sodipodi-0.dtd"
   xmlns="http://www.w3.org/2000/svg"
   xmlns:svg="http://www.w3.org/2000/svg"><defs
   id="defs1424" /><sodipodi:namedview
   id="namedview1422"
   pagecolor="#ffffff"
   bordercolor="#000000"
   borderopacity="0.25"
   inkscape:showpageshadow="2"
   inkscape:pageopacity="0.0"
   inkscape:pagecheckerboard="0"
   inkscape:deskcolor="#d1d1d1"
   showgrid="false"
   inkscape:zoom="0.88988553"
   inkscape:cx="500.06432"
   inkscape:cy="484.33196"
   inkscape:window-width="1920"
   inkscape:window-height="1017"
   inkscape:window-x="-8"
   inkscape:window-y="-8"
   inkscape:window-maximized="1"
   inkscape:current-layer="Layer_1" />
<g
   id="g1419"
   transform="matrix(0.13998687,0,0,0.13998687,-7.9934346,-7.7534346)">
	<g
   id="_x23_007ebaff">
		<path
   fill="#007eba"
   stroke="#007eba"
   stroke-width="0.0938"
   d="m 404.86,0 h 2.69 c 0.68,2.66 0.98,5.42 0.55,8.15 -2.03,13.35 -4.13,26.72 -7.34,39.86 -2.6,11.05 -6.58,21.75 -8.51,32.96 -3.09,17.87 -4.38,35.99 -5.63,54.07 -3.53,46.24 -1.27,92.67 -2.67,138.99 -0.54,36.08 -2.03,72.28 -8,107.92 5.12,-6.94 8.45,-14.97 12.32,-22.63 27.17,-57.02 52.07,-115.09 78.84,-172.29 3.22,-6.43 5.82,-13.25 10.18,-19.02 -3.89,18.67 -10.32,36.7 -16.5,54.71 -15.81,44.36 -33.7,87.94 -50.06,132.1 -7.24,19.83 -14.73,39.62 -20.97,59.79 4.26,-4.87 7.37,-10.58 10.75,-16.05 20.69,-34.52 40.07,-69.81 60.64,-104.39 3.12,-4.99 5.88,-10.28 9.85,-14.67 -4.66,16.02 -8.32,32.3 -11.73,48.63 -9.55,45.83 -18.04,91.87 -27.07,137.8 -0.38,2.09 -0.64,4.2 -0.83,6.34 5.86,-4.46 9.84,-10.76 14.38,-16.44 5.33,-6.78 10.11,-14.07 16.43,-20 0.23,0.57 0.67,1.71 0.89,2.28 -14.81,23.92 -28.59,48.47 -41.01,73.71 -23.12,-3.51 -46.67,-4.16 -69.94,-1.95 6.52,-17.09 9.39,-35.58 8.01,-53.84 -1.55,-22.47 -8.95,-44.35 -20.35,-63.7 -16.04,-27.46 -39.89,-50.04 -67.53,-65.63 14.84,-71.9 38.39,-141.82 67.19,-209.29 14.59,-33.44 30.06,-66.66 49.34,-97.7 4.75,-7 9.13,-14.64 16.08,-19.71 z"
   id="path1376" />
	</g>
	<g
   id="_x23_009fe3ff">
		<path
   fill="#009fe3"
   stroke="#009fe3"
   stroke-width="0.0938"
   d="m 843.8,58.24 c 1.88,-0.43 4.22,-1.12 5.71,0.58 0.1,3.35 -2.11,6.07 -3.93,8.66 -6.86,9.1 -13.8,18.14 -21.24,26.76 -9.3701,10.97 -20.45,20.41 -29.03,32.06 -14.01,18.68 -26.21,38.63 -38.47,58.47 -18.46,31.28 -35,63.64 -52.75,95.32 -19.22,34.43 -38.9301,68.79 -63.23,99.95 8.6,-4 15.9,-10.18 23.66,-15.53 50.24,-36.92 99.07,-75.68 149.13,-112.84 5.8199,-4.16 11.41,-8.77 17.87,-11.94 -3.57,4.94 -8.11,9.07 -12.21,13.56 -22.78,22.94 -47.36,44 -71.86,65.08 -31.22,26.75 -62.63,53.32 -92.98,81.07 -5.64,5.33 -11.67,10.26 -16.84,16.06 6.62,-2.74 12.65,-6.66 18.85,-10.22 34.07,-20.39 67.44,-41.94 101.51,-62.32 4.95,-2.87 9.78,-6.06 15.2,-8.01 -8.47,8.64 -16.65,17.57 -24.49,26.78 -26.46,30.93 -52.03,62.62 -77.8,94.12 -8,10.09 -16.6,19.71 -24.21,30.09 8.01,-1.27 15.12,-5.45 22.5,-8.56 7.46,-3.13 14.59,-7.42 22.67,-8.76 -12.43,17.28 -23.31,35.6 -34.69,53.57 -7.49,12.07 -15.28,23.95 -22.88,35.93 -1.94,2.78 1.32,5.06 3.4901,6.23 11.1299,5.48 23.92,6.35 35.1,11.71 2.11,1 5.1,3.38 3.15,5.9 -8.9,12.34 -21.6201,21.24 -34.25,29.4 -13.7,8.89 -28.66,15.73 -43.9301,21.44 -13.03,4.29 -26.58,9.2 -40.52,7.67 -6.02,-0.6 -8.44,-6.8 -11.96,-10.8 C 534,616.32 517.13,608.57 500,605.99 c -22.03,-3.28 -44.35,-0.14 -66.03,4.02 -7.96,1.46 -15.88,3.37 -23.97,3.86 -5.2,0.71 -8.69,-4.28 -10.49,-8.46 -4.09,-10.55 -2.17,-22.2 0.01,-32.96 4.81,-21.09 13.2,-41.19 22.54,-60.63 12.42,-25.24 26.2,-49.79 41.01,-73.71 33.77,-54.42 71.78,-106.16 112.43,-155.62 49.12,-58.42 105.29,-110.68 165.28,-157.77 26.7,-20.67 54.02,-40.77 83.4,-57.52 6.29,-3.47 12.68,-6.95 19.62,-8.96 z"
   id="path1379" />
	</g>
	<g
   id="_x23_2daae1ff">
		<path
   fill="#2daae1"
   stroke="#2daae1"
   stroke-width="0.0938"
   d="m 111.73,337.7 c 22.93,-20.52 53.33,-33.19 84.29,-32.6 26.71,0.41 52.99,8.68 76.23,21.6 27.64,15.59 51.49,38.17 67.53,65.63 11.4,19.35 18.8,41.23 20.35,63.7 1.38,18.26 -1.49,36.75 -8.01,53.84 23.27,-2.21 46.82,-1.56 69.94,1.95 -9.34,19.44 -17.73,39.54 -22.54,60.63 -2.18,10.76 -4.1,22.41 -0.01,32.96 1.8,4.1801 5.29,9.17 10.49,8.46 8.09,-0.49 16.01,-2.4 23.97,-3.86 21.68,-4.16 44,-7.3 66.03,-4.02 17.13,2.58 34,10.33 45.37,23.68 3.52,4 5.94,10.2 11.96,10.8 13.94,1.53 27.49,-3.3799 40.52,-7.67 15.27,-5.71 30.23,-12.55 43.9301,-21.44 21.96,18.77 42.17,39.77 58.68,63.53 4.67,-5.13 9.5,-10.12 14.58,-14.84 3.12,-3 7.08,-4.88 10.35,-7.68 3.7,-3.19 4.45,-8.61 8.35,-11.62 3.67,-2.68 8.39,-3.27 12.14,-5.82 13.46,-8.99 23.01,-23.15 37.83,-30.22 8.79,-4.55 17.19,-9.83 26.13,-14.09 6.02,-2.84 12.3199,-5.8 19.15,-5.59 0.13,0.37 0.37,1.12 0.49,1.49 -2.57,4.91 -6.59,8.78 -10.43,12.68 -20.82,20.48 -43.92,38.61 -63.75,60.11 -2.24,2.28 -3.56,5.22 -4.3,8.29 9.07,0.94 18.04,-1.13 26.94,-2.66 35.99,-7.05 71.38,-16.91 107.46,-23.54 8.12,-1.45 16.29,-2.92 24.56,-3.1 2.84,-0.01 5.9,-0.02 8.41,1.56 -0.1,3.51 -3.83,5.37 -6.29,7.3 -19.2,12.23 -40.21,21.2401 -60.08,32.29 -6.87,3.44 -13.57,7.26 -20,11.48 -2.98,1.9 -5.39,4.53 -7.61,7.26 4.11,4.01 10.17,3.83 15.51,4.23 11.9,0.19 23.7599,-1.08 35.61,-2.04 14.13,-1.58 28.25,-3.17 42.4,-4.58 12.9301,-1.1 25.91,-2.69 38.92,-1.96 4.61,0.48 10.2,0.74 12.94,5.14 -7.5,4.5 -16.33,5.77 -24.69,7.84 -32.47,6.95 -65.29,12.1 -97.82,18.73 -8.85,1.88 -17.76,3.61 -26.43,6.24 -2.63,0.88 -5.42,1.66 -7.6,3.46 -1.43,0.81 -0.6,2.52 -0.38,3.76 1.7,6.05 7.29,9.8 12.48,12.69 4.11,2.19 8.28,4.27 12.6,6.03 22.39,8.49 45.74,14.11 68.19,22.43 14.5,5.54 29.41,11.69 40.67,22.7401 -5.74,1.2599 -11.55,-0.33 -17.22,-1.2 -10.72,-1.9 -21.39,-4.11 -32.05,-6.39 -8.43,-2.24 -17.1,-3.38 -25.59,-5.37 -15.72,-3.35 -31.45,-6.66 -47.27,-9.47 -9.84,-1.66 -19.7,-3.71 -29.71,-3.73 -2.26,-0.12 -4.32,0.81 -6.34,1.66 3.31,4.41 7.8,7.64 12.33,10.68 18.68,12.93 38.85,23.52 57.72,36.16 4.15,2.86 8.56,5.68 11.2401,10.09 -1.94,0.53 -3.96,1.21 -5.98,0.72 -8.44,-1.65 -16.26,-5.45 -24.02,-9 -22.22,-10.6 -43.63,-22.81 -65.95,-33.21 -6.5,-3.14 -13.64,-5.26 -20.92,-4.79 -13.7401,0.48 -27.4901,-0.57 -41.22,0.09 1.25,0.58 2.51,1.16 3.81,1.71 -7.74,9.35 -17.59,16.73 -27.98,22.88 -16.05,9.42 -33.76,15.69 -51.8,20.07 -5.44,-6.07 -12.54,-11.08 -20.73,-12.42 -6.3,-1.11 -13.38,-0.01 -18.19,4.49 -4.13,3.58 -6.27,8.95 -6.77,14.31 -6.21,0.41 -12.4301,0.39 -18.65,0.33 -12.36,0.08 -24.68,-1.12 -36.94,-2.5 -37.33,-4.83 -73.74,-15.84 -107.91,-31.53 -22.58,-10.3 -45.76,-19.18 -68.78,-28.44 -16.28,-6.62 -32.53,-13.54 -47.72,-22.45 -14.46,-8.54 -27.92,-19.3701 -37.35,-33.42 -9.35,-13.54 -13.93,-29.59 -18.2,-45.29 -5.69,-22.16 -9.3,-44.97 -9.29,-67.88 0.35,-8.23 0.68,-16.46 0.18,-24.69 -17.96,3.28 -36.45,1.31 -54.05,-3.08 -34.56,-8.33 -67.63,-25.41 -91.93,-51.7 -8.31,-8.91 -15.39,-18.96 -21.17,-29.68 -1.51,-3.8 -2.19,-7.84 -3.15,-11.79 -3.74,-15.84 -7.48,-31.68 -11.22,-47.52 -0.08,-13.66 2.68,-27.11 6.42,-40.19 4.07,-11.85 9.35,-23.37 16.4,-33.76 2.05,-2.91 4.23,-5.73 6.03,-8.81 0.27,-0.42 0.82,-1.26 1.09,-1.68 C 99.78,349.9 105.18,343.23 111.73,337.7 m 63.04,50.16 c -7.64,8.01 -12.46,18.94 -12.27,30.1 -0.34,9.77 3.1,19.48 9.01,27.22 9.21,12.17 24.31,19.26 39.47,19.58 12.99,0.32 26.11,-4.27 35.83,-12.93 8.64,-7.68 14.48,-18.7 15.11,-30.32 2.07,-0.71 2.08,-5.4 0,-6.03 -0.35,-7.82 -3.18,-15.41 -7.55,-21.86 -9.1,-13.42 -25.25,-21.54 -41.4,-21.41 -14.17,-0.48 -28.47,5.33 -38.2,15.65 z"
   id="path1382" />
	</g>
	<g
   id="_x23_ffffffff">
		<path
   fill="#ffffff"
   stroke="#ffffff"
   stroke-width="0.0938"
   d="m 83.53,362.62 c -0.51,-5.14 5.04,-6.9 9.16,-5.94 l 0.13,1.1 c -1.8,3.08 -3.98,5.9 -6.03,8.81 l -0.4,-0.56 c -0.97,-1.12 -1.96,-2.24 -2.86,-3.41 z"
   id="path1385" />
		<path
   fill="#ffffff"
   stroke="#ffffff"
   stroke-width="0.0938"
   d="m 193.41,384.62 c 7.38,-2.54 17.24,1.33 18.91,9.46 1.32,7.53 -6.19,13.7 -13.26,13.61 -6.81,0.64 -14.9,-4.29 -14.79,-11.71 -0.3,-5.41 4.22,-9.93 9.14,-11.36 z"
   id="path1387" />
		<path
   fill="#ffffff"
   stroke="#ffffff"
   stroke-width="0.0938"
   d="m 220.47,418.67 c 3.54,-2.84 10.18,-0.4 9.74,4.48 -1.21,4.8 -8.37,5.73 -11.05,1.75 -1.58,-1.94 -0.7,-4.96 1.31,-6.23 z"
   id="path1389" />
	</g>
	<g
   id="_x23_000000ff">
		<path
   stroke="#000000"
   stroke-width="0.0938"
   d="m 70.39,400.35 c -2.42,-13.77 3.18,-28.16 13.14,-37.73 0.9,1.17 1.89,2.29 2.86,3.41 l 0.4,0.56 c -7.05,10.39 -12.33,21.91 -16.4,33.76 z"
   id="path1392" />
		<path
   stroke="#000000"
   stroke-width="0.0938"
   d="m 174.77,387.86 c 9.73,-10.32 24.03,-16.13 38.2,-15.65 16.15,-0.13 32.3,7.99 41.4,21.41 4.37,6.45 7.2,14.04 7.55,21.86 0,2.01 0,4.02 0,6.03 -0.63,11.62 -6.47,22.64 -15.11,30.32 -9.72,8.66 -22.84,13.25 -35.83,12.93 -15.16,-0.32 -30.26,-7.41 -39.47,-19.58 -5.91,-7.74 -9.35,-17.45 -9.01,-27.22 -0.19,-11.16 4.63,-22.09 12.27,-30.1 m 18.64,-3.24 c -4.92,1.43 -9.44,5.95 -9.14,11.36 -0.11,7.42 7.98,12.35 14.79,11.71 7.07,0.09 14.58,-6.08 13.26,-13.61 -1.67,-8.13 -11.53,-12 -18.91,-9.46 m 27.06,34.05 c -2.01,1.27 -2.89,4.29 -1.31,6.23 2.68,3.98 9.84,3.05 11.05,-1.75 0.44,-4.88 -6.2,-7.32 -9.74,-4.48 z"
   id="path1394" />
	</g>
	<g
   id="_x23_2997c7ff">
		<path
   fill="#2997c7"
   stroke="#2997c7"
   stroke-width="0.0938"
   d="m 261.92,415.48 c 2.08,0.63 2.07,5.32 0,6.03 0,-2.01 0,-4.02 0,-6.03 z"
   id="path1397" />
		<path
   fill="#2997c7"
   stroke="#2997c7"
   stroke-width="0.0938"
   d="m 755.3,659.31 c 19.83,-21.5 42.93,-39.63 63.75,-60.11 3.21,-0.46 6.44,-0.81 9.7,-0.83 -1.59,2.75 -3.56,5.28 -5.92,7.41 -16.45,15.3 -34.72,28.54 -50.74,44.31 -1.94,2.37 -5.17,4.69 -4.55,8.14 7.43,-0.14 14.44,-3.01 21.42,-5.28 35.45,-12.82 69.73,-28.64 105.17,-41.51 8.66,-3.03 17.35,-6.15 26.4,-7.8 2.79,-0.57 5.71,-0.38 8.28,0.94 -2.51,5.56 -7.5,9.3 -12.02,13.15 -10.18,8.25 -20.82,15.92 -31.39,23.67 -36.08,6.63 -71.47,16.49 -107.46,23.54 -8.9,1.53 -17.87,3.6 -26.94,2.66 0.74,-3.07 2.06,-6.01 4.3,-8.29 z"
   id="path1399" />
		<path
   fill="#2997c7"
   stroke="#2997c7"
   stroke-width="0.0938"
   d="m 979.82,654.33 c 6.68,-0.82 13.79,-1.84 20.18,0.94 v 2.43 c -5.95,4.03 -12.87,6.23 -19.53,8.75 -34.68,12.25 -70.15,22.09 -104.96,33.93 -11.85,0.96 -23.71,2.23 -35.61,2.04 -5.34,-0.4 -11.4,-0.22 -15.51,-4.23 2.22,-2.73 4.63,-5.36 7.61,-7.26 6.43,-4.22 13.13,-8.04 20,-11.48 21.36,-1.55 42.18,-6.86 63,-11.61 21.52,-4.88 42.94,-10.47 64.82,-13.51 z"
   id="path1401" />
		<path
   fill="#2997c7"
   stroke="#2997c7"
   stroke-width="0.0938"
   d="m 820.83,731.79 c 8.67,-2.63 17.58,-4.36 26.43,-6.24 11.57,6.17 24.29,9.67 36.94,12.82 25.32,6.15 51.09,10.09 76.77,14.37 8.26,1.58 16.83,2.29 24.67,5.52 -5.16,2.49 -11.05,1.92 -16.6,2.11 -43.72,-0.02 -87.4,-4.6 -131.11,-2.64 -4.32,-1.76 -8.49,-3.84 -12.6,-6.03 -5.19,-2.89 -10.78,-6.64 -12.48,-12.69 -0.22,-1.24 -1.05,-2.95 0.38,-3.76 2.18,-1.8 4.97,-2.58 7.6,-3.46 z"
   id="path1403" />
		<path
   fill="#2997c7"
   stroke="#2997c7"
   stroke-width="0.0938"
   d="m 788.61,778.4 c 2.02,-0.85 4.08,-1.78 6.34,-1.66 10.01,0.02 19.87,2.07 29.71,3.73 15.82,2.8101 31.55,6.1201 47.27,9.47 8.49,1.99 17.16,3.13 25.59,5.37 -0.51,-0.03 -1.53,-0.1 -2.04,-0.14 5.51,2.91 12.55,4.45 15.95,10.15 -6.69,2.4 -13.82,0.94 -20.61,-0.12 -24.26,-4.45 -47.64,-12.79 -71.98,-16.84 -5.96,-1.26 -11.98,-0.14 -17.9,0.72 -4.53,-3.04 -9.02,-6.27 -12.33,-10.68 z"
   id="path1405" />
		<path
   fill="#2997c7"
   stroke="#2997c7"
   stroke-width="0.0938"
   d="m 711.81,789.14 c 13.73,-0.66 27.48,0.39 41.22,-0.09 7.28,-0.47 14.42,1.65 20.92,4.79 -1.61,-0.4 -3.24,-0.61 -4.87,-0.4901 -17.77,1.42 -36.15,2.7 -53.46,-2.5 -1.3,-0.5499 -2.56,-1.1299 -3.81,-1.7099 z"
   id="path1407" />
	</g>
	<g
   id="_x23_ffed00ff">
		<path
   fill="#ffed00"
   stroke="#ffed00"
   stroke-width="0.0938"
   d="m 7.12,467.28 c 19.1,-8.6 37.49,-18.73 56.85,-26.74 3.74,15.84 7.48,31.68 11.22,47.52 0.96,3.95 1.64,7.99 3.15,11.79 C 52.12,491.27 26.13,481.97 0.01,473.09 L 0,473.98 v -1.12 c 2.6,-1.3 5.26,-2.5 7.91,-3.71 -0.26,-0.63 -0.53,-1.25 -0.79,-1.87 z"
   id="path1410" />
	</g>
	<g
   id="_x23_fdc600ff">
		<path
   fill="#fdc600"
   stroke="#fdc600"
   stroke-width="0.0938"
   d="m 596.92,825.87 c 4.81,-4.5 11.89,-5.6 18.19,-4.49 8.19,1.34 15.29,6.35 20.73,12.42 1.2599,1.59 2.16,3.42 2.97,5.29 -2.9,0.09 -5.81,-0.07 -8.69,0.24 -2.6,0.28 -4.75,3.21 -3.73,5.75 3.05,9.67 9.37,18.03 11.66,27.98 -0.28,0.6 -0.83,1.8 -1.11,2.39 -10.59,-4.39 -17.96,-13.79 -28.07,-19 -1.66,0.98 -3.89,1.64 -4.5,3.7 -1,2.6 -1.4,5.39 -2.16,8.08 -1.44,-0.99 -2.92,-1.97 -3.98,-3.36 -5.43,-6.97 -8.74,-15.78 -8.08,-24.69 0.5,-5.36 2.64,-10.73 6.77,-14.31 z"
   id="path1413" />
	</g>
	<g
   id="_x23_f9ae00ff">
		<path
   fill="#f9ae00"
   stroke="#f9ae00"
   stroke-width="0.0938"
   d="m 546.37,868.27 c -8.99,-6.94 -13.06,-19.17 -11.81,-30.26 12.26,1.38 24.58,2.58 36.94,2.5 -0.41,1.42 -1.53,2.88 -0.93,4.42 1.58,5.23 4.34,10 6.61,14.95 2.19,4.83 5.19,9.66 4.69,15.2 -4.79,-0.72 -8.53,-3.95 -12.25,-6.78 -5.44,-4.14 -10.53,-8.84 -16.71,-11.88 -5.22,1.59 -5.12,7.56 -6.54,11.85 z"
   id="path1416" />
	</g>
</g>
</svg>
