<svg viewBox="-8 -7.76 140 122.567" width="140" height="122.567" xmlns="http://www.w3.org/2000/svg"><path fill="#007eba" stroke="#007eba" stroke-width=".01315906" d="M48.682-7.753h.376c.095.372.137.758.077 1.14-.284 1.87-.578 3.74-1.027 5.58-.364 1.547-.921 3.045-1.192 4.614-.432 2.502-.613 5.038-.788 7.57-.494 6.472-.177 12.972-.373 19.456-.076 5.05-.285 10.118-1.12 15.108.716-.972 1.183-2.096 1.724-3.168 3.804-7.982 7.29-16.111 11.037-24.119.45-.9.815-1.855 1.425-2.662-.545 2.613-1.445 5.137-2.31 7.658-2.213 6.21-4.717 12.31-7.008 18.493-1.013 2.776-2.062 5.546-2.935 8.37.596-.682 1.032-1.482 1.505-2.247 2.896-4.833 5.609-9.773 8.489-14.613.436-.699.823-1.44 1.378-2.054-.652 2.242-1.164 4.521-1.642 6.807-1.337 6.416-2.525 12.861-3.79 19.29-.052.293-.089.589-.115.888.82-.624 1.377-1.506 2.013-2.301.746-.95 1.415-1.97 2.3-2.8l.124.32a121.671 121.671 0 00-5.74 10.318 40.072 40.072 0 00-9.791-.273c.912-2.393 1.314-4.981 1.121-7.537-.217-3.146-1.253-6.209-2.849-8.917-2.245-3.844-5.584-7.005-9.453-9.188 2.077-10.065 5.374-19.853 9.406-29.298 2.042-4.68 4.208-9.331 6.907-13.676.665-.98 1.278-2.05 2.25-2.76z"/><path fill="#009fe3" stroke="#009fe3" stroke-width=".01315906" d="M110.127.4c.264-.06.591-.157.8.08.014.47-.296.85-.55 1.213-.96 1.274-1.932 2.54-2.974 3.746-1.311 1.536-2.862 2.857-4.063 4.488-1.962 2.615-3.67 5.408-5.386 8.185-2.584 4.379-4.9 8.909-7.384 13.343-2.69 4.82-5.45 9.63-8.851 13.992 1.203-.56 2.225-1.425 3.312-2.174 7.033-5.168 13.868-10.594 20.876-15.796.815-.582 1.597-1.228 2.501-1.671-.5.691-1.135 1.27-1.709 1.898-3.189 3.211-6.63 6.16-10.06 9.11-4.37 3.745-8.767 7.464-13.015 11.349-.79.746-1.634 1.436-2.358 2.248.927-.383 1.771-.932 2.64-1.43 4.768-2.855 9.44-5.872 14.21-8.725.692-.401 1.368-.848 2.127-1.12a72.354 72.354 0 00-3.428 3.748c-3.704 4.33-7.284 8.766-10.891 13.176-1.12 1.412-2.324 2.759-3.39 4.212 1.122-.178 2.117-.763 3.15-1.199 1.045-.438 2.043-1.038 3.174-1.226-1.74 2.42-3.263 4.984-4.856 7.5-1.049 1.689-2.14 3.352-3.203 5.029-.272.39.185.708.488.872 1.558.767 3.349.89 4.914 1.64.295.14.714.473.44.825-1.245 1.728-3.026 2.974-4.794 4.116-1.917 1.244-4.012 2.202-6.15 3.001-1.823.6-3.72 1.288-5.672 1.074-.842-.084-1.181-.952-1.674-1.512-1.591-1.869-3.953-2.954-6.351-3.315-3.084-.459-6.208-.02-9.243.563-1.115.204-2.223.472-3.356.54-.728.1-1.216-.599-1.468-1.184-.573-1.477-.304-3.108.001-4.614.673-2.952 1.848-5.766 3.155-8.487a121.671 121.671 0 015.741-10.319c4.728-7.618 10.049-14.86 15.739-21.785 6.876-8.178 14.74-15.493 23.137-22.085 3.738-2.894 7.562-5.708 11.675-8.052.88-.486 1.775-.973 2.746-1.255z"/><path fill="#2daae1" stroke="#2daae1" stroke-width=".01315906" d="M7.647 39.52c3.21-2.872 7.466-4.646 11.8-4.563 3.739.057 7.418 1.215 10.671 3.023 3.87 2.183 7.208 5.344 9.453 9.188 1.596 2.708 2.632 5.771 2.849 8.917.193 2.556-.209 5.144-1.121 7.537a40.072 40.072 0 019.79.273c-1.307 2.721-2.482 5.535-3.155 8.487-.305 1.506-.574 3.137-.001 4.614.252.585.74 1.284 1.468 1.184 1.133-.068 2.241-.336 3.356-.54 3.035-.582 6.16-1.022 9.243-.563 2.398.361 4.76 1.446 6.351 3.315.493.56.832 1.428 1.674 1.512 1.952.214 3.849-.473 5.673-1.074 2.137-.8 4.232-1.757 6.15-3.001 3.073 2.627 5.903 5.567 8.214 8.893a34.847 34.847 0 012.04-2.077c.438-.42.992-.683 1.45-1.075.518-.447.623-1.205 1.169-1.627.513-.375 1.174-.458 1.699-.815 1.884-1.258 3.221-3.24 5.296-4.23 1.23-.637 2.406-1.376 3.658-1.972.842-.398 1.724-.812 2.68-.783l.069.209c-.36.687-.923 1.229-1.46 1.775-2.915 2.867-6.148 5.405-8.924 8.414-.314.32-.499.731-.602 1.16 1.27.132 2.525-.157 3.771-.372 5.038-.986 9.992-2.367 15.043-3.295 1.137-.203 2.28-.409 3.438-.434.398-.001.826-.003 1.177.219-.014.49-.536.751-.88 1.021-2.688 1.713-5.63 2.974-8.41 4.52-.962.482-1.9 1.017-2.8 1.608-.418.266-.755.634-1.066 1.016.576.561 1.424.536 2.172.592 1.665.027 3.326-.151 4.984-.285 1.978-.222 3.955-.444 5.936-.642 1.81-.154 3.627-.376 5.448-.274.646.067 1.428.104 1.812.72-1.05.63-2.286.807-3.457 1.097-4.545.973-9.14 1.694-13.693 2.622-1.239.263-2.486.505-3.7.874-.368.123-.759.232-1.064.484-.2.113-.084.353-.053.526.238.847 1.02 1.372 1.747 1.777.575.306 1.159.597 1.764.844 3.134 1.188 6.403 1.975 9.545 3.14 2.03.775 4.117 1.636 5.694 3.183-.804.176-1.617-.046-2.41-.168a129.66 129.66 0 01-4.487-.894c-1.18-.314-2.394-.474-3.583-.752-2.2-.47-4.402-.933-6.617-1.326-1.377-.232-2.758-.52-4.159-.522-.316-.017-.605.113-.887.232.463.618 1.092 1.07 1.726 1.495 2.615 1.81 5.438 3.293 8.08 5.062.58.4 1.198.795 1.573 1.413-.271.074-.554.17-.837.1-1.181-.23-2.276-.762-3.362-1.26-3.11-1.483-6.108-3.192-9.233-4.648-.91-.44-1.909-.737-2.928-.67-1.924.066-3.848-.08-5.77.012.175.081.351.162.533.24-1.084 1.308-2.462 2.341-3.917 3.202-2.247 1.319-4.726 2.196-7.251 2.81-.762-.85-1.756-1.551-2.902-1.739-.882-.155-1.873-.001-2.546.629-.579.5-.878 1.252-.948 2.003-.87.057-1.74.054-2.61.046-1.731.011-3.456-.157-5.172-.35-5.226-.676-10.323-2.217-15.106-4.414-3.16-1.442-6.406-2.685-9.628-3.981-2.28-.927-4.554-1.895-6.68-3.143-2.025-1.195-3.909-2.711-5.229-4.678-1.309-1.896-1.95-4.142-2.548-6.34-.796-3.102-1.302-6.295-1.3-9.502.049-1.153.095-2.305.025-3.457-2.514.46-5.103.184-7.566-.43-4.838-1.167-9.468-3.558-12.87-7.238a20.018 20.018 0 01-2.963-4.155c-.211-.532-.306-1.097-.44-1.65L.961 53.916c-.012-1.912.375-3.795.898-5.626.57-1.659 1.31-3.271 2.296-4.726.287-.407.592-.802.844-1.233l.153-.235c.821-.868 1.577-1.802 2.494-2.576m8.825 7.022c-1.07 1.121-1.744 2.651-1.718 4.213-.047 1.368.434 2.727 1.262 3.81 1.289 1.705 3.403 2.697 5.525 2.742 1.818.045 3.655-.598 5.016-1.81 1.21-1.075 2.027-2.618 2.115-4.245.29-.099.291-.755 0-.844-.05-1.094-.445-2.157-1.057-3.06-1.274-1.878-3.535-3.015-5.795-2.997-1.984-.067-3.986.746-5.348 2.19z"/><g fill="#fff" stroke="#fff" stroke-width=".094"><path d="M3.7 43.009c-.072-.72.705-.966 1.282-.832l.018.154c-.252.431-.557.826-.844 1.233l-.056-.078c-.136-.157-.274-.314-.4-.477zM19.081 46.088c1.034-.355 2.414.186 2.648 1.325.184 1.054-.867 1.917-1.857 1.905-.953.09-2.085-.6-2.07-1.64-.042-.757.59-1.39 1.28-1.59zM22.87 50.855c.495-.398 1.425-.056 1.363.627-.17.672-1.172.802-1.547.245-.221-.272-.098-.694.183-.872z" stroke-width=".01315906"/></g><g stroke="#000" stroke-width=".094"><path d="M1.86 48.29c-.339-1.927.445-3.942 1.84-5.281.126.163.264.32.4.477l.056.078C3.169 45.02 2.43 46.631 1.86 48.29zM16.472 46.542c1.362-1.445 3.364-2.258 5.348-2.19 2.26-.02 4.521 1.118 5.795 2.996.612.903 1.008 1.966 1.057 3.06v.844c-.088 1.627-.906 3.17-2.115 4.245-1.36 1.212-3.198 1.855-5.016 1.81-2.122-.045-4.236-1.037-5.525-2.741-.828-1.084-1.31-2.443-1.262-3.81-.026-1.563.649-3.093 1.718-4.214m2.61-.454c-.69.2-1.322.833-1.28 1.59-.015 1.04 1.117 1.73 2.07 1.64.99.012 2.041-.851 1.857-1.905-.234-1.139-1.614-1.68-2.648-1.325m3.788 4.767c-.28.178-.404.6-.183.872.375.557 1.378.427 1.547-.245.062-.683-.868-1.025-1.364-.627z" stroke-width=".01315906"/></g><g fill="#2997c7" stroke="#2997c7" stroke-width=".094"><path d="M28.672 50.408c.291.089.29.745 0 .844v-.844zM97.739 84.541c2.776-3.01 6.01-5.547 8.924-8.414.45-.065.901-.114 1.358-.116-.223.384-.499.739-.829 1.037-2.303 2.142-4.86 3.995-7.103 6.203-.272.331-.724.656-.637 1.14 1.04-.02 2.021-.422 2.999-.74 4.962-1.795 9.76-4.01 14.722-5.81 1.212-.425 2.429-.862 3.696-1.093.39-.08.799-.053 1.159.132-.352.778-1.05 1.302-1.683 1.84-1.425 1.156-2.914 2.23-4.394 3.314-5.05.928-10.005 2.309-15.043 3.295-1.246.215-2.502.504-3.771.373.103-.43.288-.842.602-1.16zM129.169 83.844c.935-.115 1.93-.257 2.824.132v.34c-.832.564-1.801.872-2.734 1.225-4.854 1.715-9.82 3.092-14.693 4.75-1.658.134-3.319.312-4.984.285-.748-.056-1.596-.03-2.172-.592.311-.382.648-.75 1.066-1.016.9-.591 1.838-1.126 2.8-1.607 2.99-.217 5.904-.96 8.819-1.626 3.012-.683 6.01-1.465 9.074-1.89zM106.912 94.688c1.214-.369 2.461-.61 3.7-.874 1.62.864 3.4 1.354 5.171 1.795 3.544.86 7.152 1.412 10.747 2.011 1.156.221 2.356.32 3.453.773-.722.349-1.547.269-2.324.295-6.12-.002-12.234-.644-18.353-.37a19.04 19.04 0 01-1.764-.843c-.727-.405-1.51-.93-1.747-1.777-.03-.173-.147-.413.053-.526.305-.252.696-.361 1.064-.484zM102.402 101.212c.282-.119.57-.249.887-.232 1.401.003 2.782.29 4.16.522 2.214.393 4.416.857 6.616 1.326 1.189.278 2.402.438 3.583.752a19.557 19.557 0 01-.286-.02c.771.407 1.757.623 2.233 1.42-.937.337-1.935.132-2.885-.016-3.396-.623-6.67-1.79-10.077-2.357-.834-.177-1.677-.02-2.505.1-.634-.425-1.263-.877-1.726-1.495zM91.65 102.716c1.923-.093 3.847.054 5.77-.013 1.02-.066 2.02.231 2.93.67a2.166 2.166 0 00-.682-.068c-2.488.199-5.06.378-7.484-.35a16.978 16.978 0 01-.533-.24z" stroke-width=".01315906"/></g><path fill="#ffed00" stroke="#ffed00" stroke-width=".01315906" d="M-6.997 57.66c2.674-1.204 5.248-2.622 7.959-3.744l1.57 6.653c.135.553.23 1.118.441 1.65-3.67-1.201-7.309-2.503-10.965-3.746l-.001.125v-.157c.364-.182.736-.35 1.107-.52l-.11-.261z"/><path fill="#fdc600" stroke="#fdc600" stroke-width=".01315906" d="M75.568 107.858c.673-.63 1.664-.784 2.546-.629 1.146.188 2.14.889 2.902 1.739.176.222.302.478.416.74-.406.013-.814-.01-1.217.034-.364.039-.665.45-.522.805.427 1.353 1.312 2.524 1.632 3.917l-.155.334c-1.483-.614-2.514-1.93-3.93-2.66-.232.138-.544.23-.63.518-.14.364-.196.755-.302 1.131-.202-.138-.409-.275-.557-.47-.76-.976-1.224-2.209-1.131-3.456.07-.75.37-1.502.948-2.003z"/><path fill="#f9ae00" stroke="#f9ae00" stroke-width=".01315906" d="M68.491 113.793c-1.258-.972-1.828-2.684-1.653-4.236 1.716.193 3.44.361 5.171.35-.057.199-.214.403-.13.619.221.732.607 1.4.925 2.092.307.677.727 1.353.657 2.128-.67-.1-1.194-.553-1.715-.949-.762-.58-1.474-1.237-2.34-1.663-.73.223-.716 1.058-.915 1.659z"/></svg>