<svg width="140" height="131.756" viewBox="0 0 179.2 168.648" class="prefix__icon" xmlns="http://www.w3.org/2000/svg"><path d="M139.696 5.106C138.254 2.303 134.51 0 131.346 0H47.854c-3.163 0-6.907 2.303-8.349 5.106l-17.32 33.857c-1.44 2.804-.02 5.106 3.124 5.106h128.564c3.163 0 4.565-2.302 3.123-5.106z" fill="#333e48"/><path d="M144.341 14.196H107.16v5.726h40.124zM31.936 19.942H72.06v-5.726H34.86z"/><path d="M18.66 39.784h141.9v124.56H18.66z" fill="#00b3e3"/><path d="M140.377 57.424h20.182v9.71h-20.182zm-27.611 44.07h20.182v9.71h-20.182zm-24.888-44.23h20.183v9.71H87.878zM18.661 80.95h20.182v9.711H18.661zm15.838-32.456H54.68v9.711H34.499zm29.813 66.995h20.182v9.71H64.312z"/><path d="M28.732 141.858h20.183v9.711H28.732z" fill="#5d5d5d"/><path d="M140.377 141.318h20.182v9.71h-20.182z"/><path d="M69.157 120.354h40.906v43.99H69.157z" fill="#fff"/><path d="M86.737 120.354h5.726v39.685h-5.726z"/><path d="M31.155 66.955h24.787v28.031H31.155z" fill="#fff"/><path d="M31.155 66.955h24.787v6.187H31.155z"/><path d="M31.155 78.087h24.787v5.727H31.155z" fill="#333e48"/><path d="M34.018 92.103h19.061V69.818H34.018zm21.924 5.726H31.155a2.863 2.863 0 01-2.863-2.863V66.935a2.863 2.863 0 012.863-2.863h24.787a2.863 2.863 0 012.864 2.863v28.031c.02 1.582-1.282 2.863-2.864 2.863z" fill="#0071ce"/><path d="M77.206 66.955h24.788v28.031H77.206z" fill="#fff"/><path d="M77.206 66.955h24.788v6.187H77.206z"/><path d="M77.206 78.087h24.788v5.727H77.206z" fill="#333e48"/><path d="M80.07 92.103h19.06V69.818H80.07zm21.924 5.726H77.206a2.863 2.863 0 01-2.863-2.863V66.935a2.863 2.863 0 012.863-2.863h24.788a2.863 2.863 0 012.863 2.863v28.031a2.863 2.863 0 01-2.863 2.863z" fill="#0071ce"/><path d="M123.258 66.955h24.787v28.031h-24.787z" fill="#fff"/><path d="M123.258 66.955h24.787v6.187h-24.787z"/><path d="M123.258 78.087h24.787v5.727h-24.787z" fill="#333e48"/><path d="M126.12 92.103h19.062V69.818h-19.061zm21.925 5.726h-24.787a2.863 2.863 0 01-2.864-2.863V66.935a2.863 2.863 0 012.864-2.863h24.787a2.863 2.863 0 012.863 2.863v28.031a2.863 2.863 0 01-2.863 2.863z" fill="#0071ce"/><path d="M31.155 106.339h24.787v28.031H31.155z" fill="#fff"/><path d="M31.155 106.339h24.787v6.187H31.155z"/><path d="M31.155 117.491h24.787v5.727H31.155z" fill="#333e48"/><path d="M34.018 131.487h19.061v-22.285H34.018zm21.924 5.746H31.155a2.863 2.863 0 01-2.863-2.863v-28.031a2.863 2.863 0 012.863-2.864h24.787a2.863 2.863 0 012.864 2.864v28.031c.02 1.582-1.282 2.863-2.864 2.863z" fill="#0071ce"/><path d="M123.258 106.339h24.787v28.031h-24.787z" fill="#fff"/><path d="M123.258 106.339h24.787v6.187h-24.787z"/><path d="M123.258 117.491h24.787v5.727h-24.787z" fill="#333e48"/><path d="M126.12 131.487h19.062v-22.285h-19.061zm21.925 5.746h-24.787a2.863 2.863 0 01-2.864-2.863v-28.031a2.863 2.863 0 012.864-2.864h24.787a2.863 2.863 0 012.863 2.864v28.031a2.863 2.863 0 01-2.863 2.863zm17.92-97.228a3.837 3.837 0 00-3.824-3.825H17.059a3.837 3.837 0 00-3.824 3.825v4.645a3.837 3.837 0 003.824 3.824h145.082a3.837 3.837 0 003.824-3.824z" fill="#0071ce"/><path d="M179.2 167.107c0 .84-.7 1.541-1.542 1.541H1.542c-.841 0-1.542-.7-1.542-1.541v-5.527c0-.84.7-1.541 1.542-1.541h176.096c.841 0 1.542.7 1.542 1.541v5.526z" fill="#333e48"/><path d="M57.004 160.019h65.212v8.61H57.004z" fill="#a4a9ad"/><path d="M96.107 6.147a2.863 2.863 0 00-2.863 2.863v6.207h-7.268V9.01a2.863 2.863 0 10-5.726 0v18.16a2.863 2.863 0 105.726 0v-6.207h7.268v6.207a2.863 2.863 0 105.726 0V9.01a2.863 2.863 0 00-2.863-2.863z" fill="#fff"/></svg>