<?xml version="1.0" encoding="UTF-8" standalone="no"?>
<!-- Uploaded to: SVG Repo, www.svgrepo.com, Generator: SVG Repo Mixer Tools -->

<svg
   width="140"
   height="131.75642"
   viewBox="0 0 179.2 168.64822"
   class="icon"
   version="1.1"
   id="svg1120"
   sodipodi:docname="hotel-svgrepo-com.svg"
   inkscape:version="1.2.2 (732a01da63, 2022-12-09)"
   xmlns:inkscape="http://www.inkscape.org/namespaces/inkscape"
   xmlns:sodipodi="http://sodipodi.sourceforge.net/DTD/sodipodi-0.dtd"
   xmlns="http://www.w3.org/2000/svg"
   xmlns:svg="http://www.w3.org/2000/svg">
  <defs
     id="defs1124" />
  <sodipodi:namedview
     id="namedview1122"
     pagecolor="#ffffff"
     bordercolor="#000000"
     borderopacity="0.25"
     inkscape:showpageshadow="2"
     inkscape:pageopacity="0.0"
     inkscape:pagecheckerboard="0"
     inkscape:deskcolor="#d1d1d1"
     showgrid="false"
     inkscape:zoom="1.04625"
     inkscape:cx="348.86499"
     inkscape:cy="329.7491"
     inkscape:window-width="1920"
     inkscape:window-height="1017"
     inkscape:window-x="1912"
     inkscape:window-y="-8"
     inkscape:window-maximized="1"
     inkscape:current-layer="svg1120" />
  <path
     d="M 139.69591,5.105698 C 138.2543,2.30257 134.51012,0 131.34659,0 H 47.85341 C 44.68988,0 40.9457,2.30257 39.50409,5.105698 L 22.18476,38.96349 c -1.441609,2.80312 -0.02002,5.10569 3.123486,5.10569 H 153.87173 c 3.16353,0 4.5651,-2.30257 3.12349,-5.10569 z"
     fill="#333e48"
     id="path1058"
     style="stroke-width:0.200223" />
  <path
     d="M 144.34109,14.19584 H 107.1596 v 5.72639 h 40.12478 z M 31.935642,19.94226 H 72.06042 V 14.21587 H 34.85891 Z"
     fill=""
     id="path1060"
     style="stroke-width:0.200223" />
  <path
     d="M 18.660827,39.7844 H 160.5592 V 164.34342 H 18.660827 Z"
     fill="#00b3e3"
     id="path1062"
     style="stroke-width:0.200223" />
  <path
     d="m 140.37667,57.42409 h 20.18253 v 9.71084 h -20.18253 z m -27.61082,44.06918 h 20.18253 v 9.71084 H 112.76585 Z M 87.87808,57.26391 h 20.18252 v 9.71084 H 87.87808 Z M 18.660827,80.95035 H 38.84335 v 9.71083 H 18.660827 Z M 34.498503,48.49412 H 54.68103 v 9.71084 H 34.498503 Z M 64.31178,115.48889 H 84.4943 v 9.71084 H 64.31178 Z"
     fill=""
     id="path1064"
     style="stroke-width:0.200223" />
  <path
     d="M 28.732067,141.85832 H 48.91459 v 9.71084 H 28.732067 Z"
     fill="#5d5d5d"
     id="path1066"
     style="stroke-width:0.200223" />
  <path
     d="m 140.37667,141.31772 h 20.18253 v 9.71084 h -20.18253 z"
     fill=""
     id="path1068"
     style="stroke-width:0.200223" />
  <path
     d="m 69.15718,120.35432 h 40.90566 v 43.9891 H 69.15718 Z"
     fill="#ffffff"
     id="path1070"
     style="stroke-width:0.200223" />
  <path
     d="m 86.7368,120.35432 h 5.7264 v 39.68429 h -5.7264 z"
     fill=""
     id="path1072"
     style="stroke-width:0.200223" />
  <path
     d="M 31.154771,66.95473 H 55.94244 V 94.98601 H 31.154771 Z"
     fill="#ffffff"
     id="path1074"
     style="stroke-width:0.200223" />
  <path
     d="M 31.154771,66.95473 H 55.94244 v 6.1869 H 31.154771 Z"
     fill=""
     id="path1076"
     style="stroke-width:0.200223" />
  <path
     d="M 31.154771,78.08715 H 55.94244 v 5.72639 H 31.154771 Z"
     fill="#333e48"
     id="path1078"
     style="stroke-width:0.200223" />
  <path
     d="M 34.017966,92.10279 H 53.07924 V 69.81792 H 34.017966 Z M 55.94244,97.82918 H 31.154771 c -1.581765,0 -2.863196,-1.28143 -2.863196,-2.86319 V 66.9347 c 0,-1.58176 1.281431,-2.86319 2.863196,-2.86319 H 55.94244 c 1.58176,0 2.86319,1.28143 2.86319,2.86319 v 28.03129 c 0.02,1.58176 -1.28143,2.86319 -2.86319,2.86319 z"
     fill="#0071ce"
     id="path1080"
     style="stroke-width:0.200223" />
  <path
     d="m 77.20617,66.95473 h 24.78766 V 94.98601 H 77.20617 Z"
     fill="#ffffff"
     id="path1082"
     style="stroke-width:0.200223" />
  <path
     d="m 77.20617,66.95473 h 24.78766 v 6.1869 H 77.20617 Z"
     fill=""
     id="path1084"
     style="stroke-width:0.200223" />
  <path
     d="m 77.20617,78.08715 h 24.78766 v 5.72639 H 77.20617 Z"
     fill="#333e48"
     id="path1086"
     style="stroke-width:0.200223" />
  <path
     d="M 80.06936,92.10279 H 99.13064 V 69.81792 H 80.06936 Z m 21.92447,5.72639 H 77.20617 c -1.58177,0 -2.8632,-1.28143 -2.8632,-2.86319 V 66.9347 c 0,-1.58176 1.28143,-2.86319 2.8632,-2.86319 h 24.78766 c 1.58177,0 2.8632,1.28143 2.8632,2.86319 v 28.03129 c 0,1.58176 -1.28143,2.86319 -2.8632,2.86319 z"
     fill="#0071ce"
     id="path1088"
     style="stroke-width:0.200223" />
  <path
     d="m 123.25756,66.95473 h 24.78767 v 28.03128 h -24.78767 z"
     fill="#ffffff"
     id="path1090"
     style="stroke-width:0.200223" />
  <path
     d="m 123.25756,66.95473 h 24.78767 v 6.1869 h -24.78767 z"
     fill=""
     id="path1092"
     style="stroke-width:0.200223" />
  <path
     d="m 123.25756,78.08715 h 24.78767 v 5.72639 h -24.78767 z"
     fill="#333e48"
     id="path1094"
     style="stroke-width:0.200223" />
  <path
     d="m 126.12076,92.10279 h 19.06127 V 69.81792 h -19.06127 z m 21.92447,5.72639 h -24.78767 c -1.58176,0 -2.86319,-1.28143 -2.86319,-2.86319 V 66.9347 c 0,-1.58176 1.28143,-2.86319 2.86319,-2.86319 h 24.78767 c 1.58176,0 2.86319,1.28143 2.86319,2.86319 v 28.03129 c 0,1.58176 -1.28143,2.86319 -2.86319,2.86319 z"
     fill="#0071ce"
     id="path1096"
     style="stroke-width:0.200223" />
  <path
     d="M 31.154771,106.33868 H 55.94244 v 28.03129 H 31.154771 Z"
     fill="#ffffff"
     id="path1098"
     style="stroke-width:0.200223" />
  <path
     d="M 31.154771,106.33868 H 55.94244 v 6.18691 H 31.154771 Z"
     fill=""
     id="path1100"
     style="stroke-width:0.200223" />
  <path
     d="M 31.154771,117.49113 H 55.94244 v 5.72639 H 31.154771 Z"
     fill="#333e48"
     id="path1102"
     style="stroke-width:0.200223" />
  <path
     d="M 34.017966,131.48675 H 53.07924 V 109.20188 H 34.017966 Z m 21.924474,5.74641 H 31.154771 c -1.581765,0 -2.863196,-1.28143 -2.863196,-2.86319 v -28.03129 c 0,-1.58176 1.281431,-2.86319 2.863196,-2.86319 H 55.94244 c 1.58176,0 2.86319,1.28143 2.86319,2.86319 v 28.03129 c 0.02,1.58176 -1.28143,2.86319 -2.86319,2.86319 z"
     fill="#0071ce"
     id="path1104"
     style="stroke-width:0.200223" />
  <path
     d="m 123.25756,106.33868 h 24.78767 v 28.03129 h -24.78767 z"
     fill="#ffffff"
     id="path1106"
     style="stroke-width:0.200223" />
  <path
     d="m 123.25756,106.33868 h 24.78767 v 6.18691 h -24.78767 z"
     fill=""
     id="path1108"
     style="stroke-width:0.200223" />
  <path
     d="m 123.25756,117.49113 h 24.78767 v 5.72639 h -24.78767 z"
     fill="#333e48"
     id="path1110"
     style="stroke-width:0.200223" />
  <path
     d="m 126.12076,131.48675 h 19.06127 v -22.28487 h -19.06127 z m 21.92447,5.74641 h -24.78767 c -1.58176,0 -2.86319,-1.28143 -2.86319,-2.86319 v -28.03129 c 0,-1.58176 1.28143,-2.86319 2.86319,-2.86319 h 24.78767 c 1.58176,0 2.86319,1.28143 2.86319,2.86319 v 28.03129 c 0,1.58176 -1.28143,2.86319 -2.86319,2.86319 z m 17.92,-97.22851 c 0,-2.10235 -1.72192,-3.82427 -3.82427,-3.82427 H 17.059039 c -2.102346,0 -3.824268,1.72192 -3.824268,3.82427 v 4.64518 c 0,2.10235 1.721922,3.82427 3.824268,3.82427 H 162.14096 c 2.10235,0 3.82427,-1.72192 3.82427,-3.82427 z"
     fill="#0071ce"
     id="path1112"
     style="stroke-width:0.200223" />
  <path
     d="m 179.2,167.1065 c 0,0.84094 -0.70078,1.54172 -1.54172,1.54172 H 1.541721 C 0.700782,168.64822 0,167.94744 0,167.1065 v -5.52616 c 0,-0.84094 0.700782,-1.54173 1.541721,-1.54173 H 177.63826 c 0.84094,0 1.54172,0.70079 1.54172,1.54173 v 5.52616 z"
     fill="#333e48"
     id="path1114"
     style="stroke-width:0.200223" />
  <path
     d="m 57.00362,160.01859 h 65.21278 v 8.60961 H 57.00362 Z"
     fill="#a4a9ad"
     id="path1116"
     style="stroke-width:0.200223" />
  <path
     d="m 96.10726,6.14686 c -1.58176,0 -2.86319,1.281431 -2.86319,2.863196 V 15.21698 H 85.97596 V 9.010056 c 0,-1.581765 -1.28143,-2.863196 -2.8632,-2.863196 -1.58177,0 -2.8632,1.281431 -2.8632,2.863196 V 27.17032 c 0,1.58177 1.28143,2.8632 2.8632,2.8632 1.58177,0 2.8632,-1.28143 2.8632,-2.8632 V 20.9634 h 7.26811 v 6.20692 c 0,1.58177 1.28143,2.8632 2.86319,2.8632 1.58177,0 2.8632,-1.28143 2.8632,-2.8632 V 9.010056 c 0,-1.581765 -1.28143,-2.863196 -2.8632,-2.863196 z"
     fill="#ffffff"
     id="path1118"
     style="stroke-width:0.200223" />
</svg>
