<svg xmlns="http://www.w3.org/2000/svg" xmlns:xlink="http://www.w3.org/1999/xlink" viewBox="0 0 130 120" xmlns:v="https://vecta.io/nano"><style><![CDATA[.B{clip-path:url(#B)}]]></style><path fill="#dc4437" d="M0 0h130v39H0z"/><path fill="#fff" d="M0 39h130v42H0z"/><path fill="#2a66b7" d="M0 81h130v39H0z"/><defs><path id="A" d="M95 81s-4.2 18-30 18-30-18-30-18V60 39h30 30v21 21z"/></defs><use xlink:href="#A" fill="#fff"/><clipPath id="B"><use xlink:href="#A"/></clipPath><g fill="#dc4437"><path d="M35 39h12v12H35zm24 0h12v12H59z" class="B"/><path d="M47 51h12v12H47z" class="B"/><path d="M59 63h12v12H59zm-24 0h12v12H35z" class="B"/><path d="M71 51.3h12v12H71z" class="B"/><path d="M83 63.3h12v12H83zm0 24h12v12H83zm-24 0h12v12H59zm-24 0h12v12H35zM83 39h12v12H83z" class="B"/><path d="M71 75.3h12v12H71zm-24 0h12v12H47z" class="B"/></g><path fill="#2a66b7" d="M35 24h60v15H35z"/></svg>