<svg width="140" height="105" viewBox="0 0 179.2 134.4" class="prefix__icon" xmlns="http://www.w3.org/2000/svg"><path d="M168 100.8H11.2V11.2A11.2 11.2 0 0122.4 0h134.4A11.2 11.2 0 01168 11.2z" fill="#eaeaea"/><path d="M168 44.8A11.2 11.2 0 00156.8 56v44.8H22.4V56A11.2 11.2 0 000 56v56a11.2 11.2 0 0011.2 11.2H168a11.2 11.2 0 0011.2-11.2V56A11.2 11.2 0 00168 44.8z" fill="#469fcc"/><path d="M16.8 123.2h22.4v11.2H16.8zm123.2 0h22.4v11.2H140z" fill="#434854"/><path d="M16.8 123.2h22.4v5.6H16.8zm123.2 0h22.4v5.6H140z"/><path d="M168 89.6a11.2 11.2 0 01-11.2 11.2H22.4a11.2 11.2 0 010-22.4h134.4A11.2 11.2 0 01168 89.6z" fill="#e6e6e6"/><path d="M156.8 100.8H22.4a11.183 11.183 0 01-10.808-8.4c-.23.896-.392 1.826-.392 2.8a11.2 11.2 0 0011.2 11.2h134.4A11.2 11.2 0 00168 95.2c0-.974-.162-1.904-.392-2.8a11.183 11.183 0 01-10.808 8.4zM22.4 72.8h134.4v5.6H22.4zM44.8 33.6a5.6 5.6 0 1011.2 0 5.6 5.6 0 10-11.2 0zM64.4 53.2a5.6 5.6 0 1011.2 0 5.6 5.6 0 10-11.2 0zM84 33.6a5.6 5.6 0 1011.2 0 5.6 5.6 0 10-11.2 0zM103.60000000000001 53.2a5.6 5.6 0 1011.2 0 5.6 5.6 0 10-11.2 0zM123.20000000000002 33.6a5.6 5.6 0 1011.2 0 5.6 5.6 0 10-11.2 0z"/></svg>