<svg xmlns="http://www.w3.org/2000/svg" width="107.644" height="142.551" viewBox="0 0 8.612 11.404" xmlns:v="https://vecta.io/nano"><path d="M.774 9.629S.501 7.19.831 5.776 1.496 3.7 2.065 3.272a3.994 3.994 0 0 1 1.205-.597s-.369-1.214-.54-1.261-.806.15-1.072-.039S.975.692.927.731.822.958.756.995a.979.979 0 0 1-.587-.08C.034.829-.098.706.103.565a1.639 1.639 0 0 1 .911-.191c.171.048.824.694.929.683s.893-.228 1.138.114.587 1.366.587 1.366a1.553 1.553 0 0 1 .59-.039 3.122 3.122 0 0 1 .606.087s.077-.788-.216-.911-.626-.027-.665-.369-.171-.683-.266-.683-.171.075-.351.093A.813.813 0 0 1 2.796.46c-.03-.096.096-.398.551-.455S4.36.46 4.39.744s0 .455.027.474.845.228.911.683a5.727 5.727 0 0 1 0 .797c.03 0 1.423.123 2.097 2.277a9.458 9.458 0 0 1 .332 4.062 1.236 1.236 0 0 1 .854 1.138c0 .881-.872 1.261-1.576 1.138s-1.403-.276-1.926-.2-.872.332-1.327.285-1.302-.499-2.001-.328-1.327.296-1.594-.171a.911.911 0 0 1 .587-1.271z" fill="#1d1d1b"/><path d="M.658 10.046c.184-.143.656-.141.665-.207a11.401 11.401 0 0 1-.162-3.122c.171-1.68.474-2.648 1.309-3.254s1.822-.551 2.657-.419 1.678 1.025 2.004 2.334.096 3.919.132 3.948.77.123.797.767-.33 1.025-1.013.863a5.849 5.849 0 0 0-1.917-.159c-.854.036-1.006.228-1.489.18s-.731-.455-1.614-.323-1.252.285-1.366.143-.312-.512-.002-.751z" fill="#c8db89"/><path d="M.87 10.408c.132-.121.307-.182.485-.171.171.018.426.057.408.141s0 .123-.096.123-.246-.123-.417-.036-.266.162-.314.15a.17.17 0 0 1-.066-.207zm2.486-.135c.066.014.228.228.426.228s.485-.066.503 0 .057.209 0 .228a1.75 1.75 0 0 1-.653-.036c-.134-.066-.389-.162-.398-.228s.075-.2.123-.191zm3.206.135a2.32 2.32 0 0 1 .656.018c.285.048.312.057.312.105s-.041.175-.075.175c-.175-.044-.353-.076-.533-.096-.171 0-.207.03-.303 0s-.084-.184-.057-.203zm-1.507-.932c.071 0 .501.599.444.626a.88.88 0 0 1-.228.039l-.378-.626c0-.039.091-.027.162-.039zm.483-.036c-.018-.075.132 0 .189.027a2.27 2.27 0 0 1 .296.635c-.039 0-.162.03-.2 0a6.07 6.07 0 0 1-.285-.663zm.512-.03c-.03-.091.171-.057.189-.036a2.61 2.61 0 0 1 .276.531c-.045.044-.111.059-.171.039a5.83 5.83 0 0 1-.294-.533zm.389-.198s.084-.096.141-.057c.186.172.346.37.476.587-.02.057-.134.096-.134.096a5.31 5.31 0 0 1-.483-.626zm.219-.455c-.034 0 .057-.171.105-.123a2.29 2.29 0 0 1 .36.455c0 .068.018.162 0 .162s-.428-.485-.464-.494zm-4.82-3.673c-.027-.027.048-.255.2-.635s.246-.512.321-.54.18 0 .171.036-.285.494-.369.683a2.97 2.97 0 0 0-.105.455.33.33 0 0 1-.219 0zm1.127.56c.296-.38.74-.437 1.526-.455s1.473.38 1.576 1.489-.656 1.728-1.892 1.623-1.557-.997-1.633-1.414.166-.911.424-1.243z" fill="#1d1d1b"/><path d="M4.461 5.597a1.138 1.138 0 0 1 1.207 1.091c.041.865-.751 1.309-1.555 1.225a1.264 1.264 0 0 1-1.091-1.234c-.011-.378.28-1.052 1.439-1.082z" fill="#cbe7f5"/><path d="M4.124 6.357a.553.553 0 0 1 .806.417c.057.455-.635.683-.938.369a.455.455 0 0 1 .132-.786z" fill="#1d1d1b"/></svg>