<svg viewBox="-498.591 -12.453 140 40.718" width="140" height="40.718" xmlns="http://www.w3.org/2000/svg"><g transform="matrix(.1018 0 0 .1018 -448.513 -11.382)"><linearGradient id="prefix__a" gradientUnits="userSpaceOnUse" x1="13572.058" y1="22186.797" x2="18260.959" y2="22186.797" gradientTransform="matrix(-.0053 .0292 .0289 .0052 -883.891 -450.676)"><stop offset="0" stop-color="#e1d8b2"/><stop offset="1" stop-color="#b2685a"/></linearGradient><path fill="url(#prefix__a)" d="M-138.976 97.234l-18.794 104.02-19.122-3.324-315.056-164.463 352.766-43.988 18.958 3.57z"/><linearGradient id="prefix__b" gradientUnits="userSpaceOnUse" x1="3975.095" y1="19258.58" x2="8034.831" y2="19258.58" gradientTransform="matrix(-.0096 .0533 .0556 .0101 -901.353 -433.163)"><stop offset="0" stop-color="#44e053"/><stop offset="1" stop-color="#194c19"/></linearGradient><path fill="url(#prefix__b)" d="M378.663 302.36c-.12-.18-.419-.274-.595-.25-.271-.34-.735-.525-1.112-.845-.247-.312-.673-.595-.99-.956-.45-.312-.672-.894-.898-1.255-.509-.489-.75-.969-1.1-1.597-.221-.586-.545-1.23-.668-1.916-.403-.562-.616-1.194-.87-2.01-.324-.793-.6-1.548-.747-2.34-.242-.98-.542-1.891-.665-2.659a41.418 41.418 0 00-.66-2.917c-.144-1.108-.35-2.019-.505-3.221-.14-1.15-.259-2.134-.423-3.349-.07-1.325-.197-2.29-.365-3.631.074-1.35-.037-2.65-.213-4.034-.148-1.35-.132-2.695-.156-3.816-.148-1.53-.107-2.987-.078-4.678-.086-1.362-.14-2.847-.02-4.489.044-1.411.003-2.958.081-4.698.004-1.645.025-3.332.029-4.961.103-1.793.287-3.508.357-5.211.172-1.69.27-3.541.378-5.33.086-1.892.262-3.693.414-5.503.213-1.925.258-3.812.57-5.642.19-2.023.374-4.108.546-5.815a95.97 95.97 0 01.78-6.097c.123-.96.254-1.99.357-3.09.094-.923.381-1.9.435-2.955.184-1.144.353-2.166.439-3.13.209-1.071.242-2.09.414-3.156.242-1.046.39-2.113.587-3.151.144-1.018.336-2.101.439-3.119.328-.976.345-2.142.533-3.18.206-1.026.44-1.998.66-3.188.16-1.096.395-2.216.543-3.308.209-.964.46-2.014.705-3.135.111-1.03.419-2.064.513-3.024.255-1.091.382-2.224.595-3.147.275-1.083.427-1.937.677-3.09.21-.964.39-2.15.6-3.077.365-.883.561-1.966.758-2.992.201-1.013.448-2.121.739-2.946.419-1.974.825-3.943 1.321-5.782.673-1.862 1.059-3.967 1.449-5.855.607-1.81 1.079-3.705 1.584-5.445.48-1.834 1.054-3.52 1.51-5.293.554-1.802 1.034-3.6 1.633-5.179.422-1.773 1.017-3.307 1.469-4.96.554-1.564 1.005-3.173 1.58-4.65.627-1.633 1.058-3.09 1.612-4.653.534-1.293 1.022-2.758 1.609-4.218.48-1.392 1.112-2.77 1.625-4.042.562-1.293.968-2.47 1.694-3.784.513-1.185 1.617-3.533 1.617-3.533.517-1.185 1.633-3.344 1.633-3.344.357-1.026.956-2.088 1.572-2.958.43-.952.927-1.904 1.448-2.63.517-1.084 1.096-1.913 1.613-2.713.513-.738 1.112-1.604 1.539-2.257.545-.632 1-1.35 1.448-1.867.628-.69 1.067-1.288 1.547-1.793.427-.443.993-.92 1.449-1.362.447-.497.906-.895 1.35-1.162.435-.188.952-.447 1.382-.857.464-.345.936-.406 1.334-.554.373-.14.977-.218 1.37-.263.239-.028.28-.037.6-.078.143-.016.377.046.656.009l-556.416-96.347c-.246-.062-.738-.173-1.013-.247-.382.05-.694-.016-1.178.046-.66.082-1.354.053-2.043.139-.825.222-1.47.304-2.233.398-.746.201-1.456.394-2.203.755-.767.337-1.53.554-2.212.895-.899.471-1.588.947-2.281 1.362-.698.464-1.498.907-2.265 1.452-.854.575-1.621 1.1-2.385 1.806-.767.55-1.46 1.12-2.187 1.953-.865.722-1.666 1.584-2.388 2.36-.866.767-1.535 1.522-2.306 2.457-.78.83-1.473 1.917-2.327 2.73 0 0-1.505 2.158-2.215 3.13 0 0-1.556 2.212-2.257 3.283-.698 1.108-1.625 2.322-2.278 3.525-.808 1.272-1.65 2.54-2.33 3.746-.657 1.416-1.301 2.716-2.196 4.173-.623 1.305-1.346 2.606-1.924 4.144-.874 1.453-1.486 2.901-2.089 4.498-.648 1.456-1.296 3.053-1.982 4.583a95.981 95.981 0 00-2.014 4.879c-.686 1.687-1.342 3.439-1.814 5.006-.66 1.756-1.28 3.496-1.781 5.285-.6 1.748-1.264 3.623-1.826 5.413-.55 1.797-.98 3.647-1.543 5.54-.238 1.103-.583 1.8-.886 2.888-.132.853-.333 1.891-.649 2.827-.287.915-.435 1.937-.652 2.86-.291 1.096-.59 2.031-.714 2.983-.275 1.084-.43 1.982-.69 2.988-.16 1.009-.496 2.043-.64 2.946-.082 1.038-.463 2.076-.553 3.102-.16.96-.415 2.035-.559 3.07-.192 1.025-.471 1.89-.562 3.077-.156.915-.353 1.92-.463 2.954-.238 1.071-.32 2.204-.497 3.065-.222.924-.291 2.048-.464 3.057-.147.96-.303 2.007-.373 2.963-.053.985-.213 1.978-.291 3.151-.18.788-.263 1.81-.361 2.766-.05 1.046-.144 1.957-.14 2.975-.324 1.924-.468 3.775-.5 5.736-.25 1.982-.239 3.76-.394 5.72-.062 1.786-.037 3.636-.169 5.355.029 1.904.033 3.681-.02 5.478.053 1.876.127 3.644.115 5.318.156 1.666.176 3.32.357 5.072.098 1.613.123 3.209.246 4.883.185 1.527.394 3.172.574 4.596.19 1.485.398 3.13.587 4.616.255 1.342.62 2.79.887 4.1.192 1.526.418 2.946.775 4.353.382 1.174.607 2.593.923 3.91.316 1.055.763 2.34 1.129 3.517.373 1.297.861 2.417 1.198 3.406.312 1.08.853 2.236 1.198 3.266.505.965.968 1.937 1.276 2.992.562.94 1.157 1.707 1.617 2.687.505.833.94 1.568 1.46 2.389.514.726 1.096 1.547 1.67 2.13.423.713 1.068 1.312 1.704 1.993.517.624 1.198 1.194 1.731 1.695.608.476 1.35.993 1.863 1.543.587.353 1.248.681 1.953 1.022.677.422 1.367.664 2.003.87.242.114.582.205.89.45.287.005.755.124 1.059.341l554.939 104.283c-.287-.246-.328-.246-.616-.287z"/><linearGradient id="prefix__c" gradientUnits="userSpaceOnUse" x1="6489.243" y1="30619.814" x2="6651.45" y2="31819.645" gradientTransform="matrix(-.0101 .0556 .0556 .0101 -896.866 -429.815)"><stop offset="0" stop-color="#da9ead"/><stop offset="1" stop-color="#db9184"/></linearGradient><path fill="url(#prefix__c)" d="M835.12 388.9c-7.468 3.062-12.297-7.398-13.668-27.824-1.555-21.35.62-53.032 7.066-88.846 6.41-35.49 15.437-65.904 24.366-85.535 8.547-18.65 16.75-26.754 22.613-21.083 5.425 4.986 7.998 21.01 7.854 42.2-.135 20.278-2.638 45.747-7.476 73.19-5.039 27.058-11.715 52.2-18.543 71.198-7.345 19.82-15.265 33.853-22.2 36.725z"/><linearGradient id="prefix__d" gradientUnits="userSpaceOnUse" x1="4284.516" y1="28242.238" x2="8337.92" y2="28242.238" gradientTransform="matrix(-.0101 .0556 .0556 .0101 -896.866 -429.825)"><stop offset="0" stop-color="#24d155"/><stop offset="1" stop-color="#133f14"/></linearGradient><path fill="url(#prefix__d)" d="M830.812 388.736c-.238-.119-.295-.176-.603-.352-.295-.144-.706-.427-1.124-.698-.263-.296-.76-.579-.969-1.059-.27-.394-.722-.792-.923-1.481-.382-.419-.66-.932-.899-1.465-.176-.505-.673-1.288-.915-1.986-.254-.624-.594-1.379-.718-2.019-.262-.808-.541-1.658-.71-2.638-.237-.809-.529-1.654-.652-2.639a28.782 28.782 0 01-.53-2.962c-.278-.998-.426-2.159-.578-3.365-.123-.997-.27-2.187-.447-3.57.016-1.05-.156-2.434-.25-3.623-.09-1.502-.156-2.717-.239-4.096 0-1.403-.082-2.9-.123-4.267-.061-1.518-.012-3.127-.14-4.555.083-1.56-.016-3.237.079-4.735.07-1.699.012-3.332.086-5.072.02-1.555.18-3.426.291-5.104-.106-1.835.132-3.657.255-5.45.14-1.666.279-3.586.414-5.584.05-1.798.197-3.714.497-5.762.094-1.85.361-3.766.41-5.995.324-1.94.517-3.922.657-5.937.349-1.924.632-4.198.78-6.098a28.21 28.21 0 01.64-3.262 18.627 18.627 0 01.254-3.32c.218-.919.394-2.06.431-3.16.25-1.05.386-2.178.517-3.294.168-.985.406-2.068.55-3.246.221-1.046.46-2.117.599-3.254.226-1.255.439-2.224.57-3.303.156-1.018.316-2.339.649-3.365.078-1.186.311-2.277.541-3.205.304-1.251.357-2.297.698-3.352.18-1.124.427-2.277.57-3.312.246-1.079.37-2.256.665-3.237.185-1.096.48-2.121.57-3.295.32-1.112.587-1.982.833-3.065.099-1.129.39-2.105.727-3.086.192-1.145.422-2.294.607-3.11.439-2.2 1.034-4.251 1.481-6.233.394-1.884.96-3.96 1.436-5.93.6-1.85 1.186-3.807 1.593-5.826.402-1.691 1.128-3.652 1.612-5.487.493-1.838.981-3.561 1.56-5.408.533-1.694 1.12-3.365 1.616-5.01.522-1.666 1.018-3.46 1.613-4.981.59-1.625 1.112-3.14 1.633-4.822.632-1.465 1.157-2.983 1.707-4.333a52.843 52.843 0 001.572-4.268c.562-1.424 1.112-2.704 1.752-3.902.48-1.391 1.596-3.64 1.596-3.64.484-1.403 1.67-3.57 1.67-3.57.595-1.058 1.125-2.084 1.436-3.18.624-1.083 1.154-1.924 1.818-2.77.353-1.021.981-1.932 1.473-2.531.587-.969.952-1.703 1.687-2.5.345-.656.87-1.386 1.403-2.014.46-.743.985-1.42 1.449-1.76.517-.726 1.026-1.223 1.584-1.576.209-.533.89-.845 1.358-1.128.5-.41.861-.644 1.42-1.075.385-.193.84-.316 1.28-.55.504-.107.829-.148 1.342-.214.18-.02.352-.045.541-.07.14-.016.468-.057.685-.085L417.711 85.736c-.398-.189-.636-.197-1.046-.254-.386.049-.764.02-1.043.053-.78.041-1.547.045-2.355.238-.603.074-1.276.16-2.146.406-.75.095-1.358.452-2.187.83-.726.196-1.473.524-2.2.812-.689.451-1.452 1.025-2.334 1.374-.784.472-1.482 1.067-2.306 1.63-.702.57-1.617 1.247-2.278 1.797-.865.705-1.44 1.341-2.26 2.211a20.23 20.23 0 00-2.446 2.368 53.532 53.532 0 01-2.368 2.585c-.693.878-1.39 2.01-2.294 2.856 0 0-1.456 2.17-2.117 3.369 0 0-1.69 2.228-2.601 3.467-.604 1.198-1.4 2.388-2.028 3.586-.738 1.318-1.563 2.585-2.347 3.985a95.111 95.111 0 00-2.203 4.267c-.66 1.305-1.457 2.852-2.163 4.309-.582 1.608-1.346 3.106-2.06 4.751-.636 1.588-1.399 3.131-1.977 4.699-.661 1.81-1.449 3.418-2.077 5.174-.57 1.769-1.243 3.484-1.912 5.166-.64 1.875-1.255 3.68-1.752 5.462-.595 1.912-1.305 3.849-1.842 5.712-.6 1.854-1.03 3.787-1.625 5.748a28.82 28.82 0 01-.83 3.135c-.11.817-.512 1.88-.684 2.844a19.25 19.25 0 00-.665 3.086 40.163 40.163 0 00-.776 3.098c-.254 1.063-.406 2.064-.664 3.221-.214.923-.534 1.904-.661 3.045-.201.964-.349 2.04-.681 3.081-.193 1.133-.324 2.224-.53 3.189-.25 1.079-.402 2.113-.644 3.13-.221 1.104-.422 2.167-.443 3.189a38.92 38.92 0 00-.443 3.102c-.263 1.112-.357 2.105-.521 3.352-.168.915-.222 1.806-.312 2.938-.25 1.15-.345 2.163-.558 3.065.045 1.178-.16 2.146-.152 3.205-.205.92-.312 2.011-.332 2.955-.25 2.137-.378 4.169-.526 6.233-.143 1.81-.184 3.816-.39 5.966-.04 1.88-.168 3.631-.139 5.585-.012 1.776-.144 3.631-.115 5.687-.008 1.78.062 3.55.168 5.31.074 1.78.103 3.492.193 5.318.086 1.768.193 3.442.328 4.973.181 1.863.255 3.418.452 5.006.197 1.6.394 3.131.574 4.559.329 1.604.513 3.036.772 4.682.234 1.313.525 2.827.825 4.12.32 1.407.673 2.765.98 3.996.218 1.358.612 2.72.911 3.681.37 1.288.813 2.552 1.297 3.668.32 1.231.681 2.352 1.219 3.468.402 1.066.906 2.019 1.313 2.954.533 1.005.964 1.888 1.48 2.942.374.767.945 1.662 1.605 2.56.489.731 1.01 1.437 1.506 2.216.558.768 1.071 1.31 1.625 1.945.587.612 1.285 1.199 1.798 1.748.648.616 1.227 1.05 1.8 1.482.653.488 1.355.833 1.917 1.21.677.402 1.35.546 2.023.924.283.119.505.225.882.443.567.09.8.061 1.03.147L831.47 388.9c-.205-.369-.37-.328-.616-.369z"/><linearGradient id="prefix__e" gradientUnits="userSpaceOnUse" x1="4628.825" y1="29905.525" x2="7418.693" y2="29699.125" gradientTransform="matrix(-.0101 .0556 .0556 .0101 -897.516 -429.935)"><stop offset="0" stop-color="#d58952"/><stop offset=".506" stop-color="#f5f28f"/><stop offset="1" stop-color="#d69846"/></linearGradient><path fill="url(#prefix__e)" d="M694.13 133.672c-.452.771-1.01 1.58-1.523 2.359-.66 1.026-1.108 1.916-1.641 2.885-.489 1.075-1.018 2.142-1.543 3.315-.64 1.018-1.112 2.154-1.736 3.324 0 0-1.149 2.486-1.744 3.787 0 0-1.018 2.594-1.555 3.989-.673 1.292-1.33 2.782-1.806 4.288a65.553 65.553 0 00-1.694 4.62 63.924 63.924 0 00-1.687 4.764c-.624 1.65-1.137 3.324-1.641 5.01-.718 1.871-1.231 3.492-1.875 5.404-.513 1.785-.993 3.632-1.642 5.54-.578 1.756-1.062 3.824-1.575 5.72-.702 1.867-1.145 3.874-1.683 6.007a195.3 195.3 0 00-1.65 6.213c-.607 2.138-.976 4.124-1.542 6.331-.575 2.056-1.059 4.354-1.547 6.656-.288 1.247-.509 2.167-.858 3.156-.119 1.177-.443 2.445-.64 3.47a138.899 138.899 0 01-.808 3.505c-.201 1.01-.419 2.335-.727 3.422-.14 1.088-.43 2.294-.664 3.488-.259 1.137-.423 2.5-.665 3.472-.168 1.321-.447 2.445-.616 3.689-.332 1.16-.43 2.195-.66 3.487-.193 1.248-.452 2.557-.612 3.538-.217 1.239-.39 2.548-.673 3.598-.098 1.28-.418 2.306-.594 3.504a22.72 22.72 0 01-.563 3.628c-.127 1.087-.381 2.179-.488 3.525-.254 1.017-.32 2.322-.714 3.27-.062 1.17-.156 2.511-.275 3.463-.172 1.268-.435 2.343-.566 3.48-.32 2.285-.616 4.423-.76 6.787-.336 2.1-.635 4.304-.869 6.434-.098 2.134-.394 4.23-.579 6.315-.246 2.093-.357 4.173-.64 6.262-.156 2.08-.287 4.099-.57 5.908-.058 2.13-.086 4.038-.255 5.84-.016 1.99-.172 3.787-.197 5.519-.143 1.797-.082 3.742-.135 5.523a59.864 59.864 0 00-.086 5.035c-.05 1.678-.18 3.348.033 5.014a49.43 49.43 0 00.057 4.436c.012 1.452.05 2.995.041 4.345.115 1.362.292 2.786.427 4.177.02 1.264.201 2.647.28 3.623.16 1.277.307 2.479.442 3.525.152 1.203.328 2.274.472 3.373.296.969.419 1.962.595 2.88.041.276.25.477.308.973l34.542 6.557c-.074-.562-.164-.952-.218-1.378-.283-.796-.434-2.003-.648-2.856-.205-.92-.365-2.2-.496-3.225-.271-1.084-.288-2.307-.44-3.509-.143-1.145-.303-2.42-.401-3.861-.062-1.321-.214-2.507-.226-4.017-.135-1.436-.255-2.823-.259-4.374-.053-1.547-.008-3.115-.053-4.768-.127-1.33-.049-3.025.017-4.678-.103-1.674.008-3.36-.004-5.236.028-1.69.155-3.262.233-5.224.021-1.826.111-3.631.288-5.531-.078-1.994.209-3.824.291-5.712.172-2.158.332-4.165.46-6.032.311-2.1.377-4.169.615-6.257.07-2.069.398-4.321.636-6.41.168-2.13.394-4.395.73-6.557.239-2.138.452-4.33.764-6.652.279-1.05.394-2.285.624-3.54.065-.908.344-2.102.41-3.333.254-1.095.34-2.195.46-3.463.184-1.116.43-2.27.61-3.455.112-1.194.403-2.216.514-3.484.238-1.165.422-2.363.64-3.693.135-1.005.447-2.207.587-3.446.279-1.05.525-2.41.693-3.66.189-1.146.427-2.335.542-3.517.32-1.162.541-2.306.742-3.513.234-1.075.472-2.495.653-3.693.381-.989.496-2.17.812-3.266.218-1.21.468-2.33.546-3.46.295-1.202.611-2.236.866-3.434.246-1.046.476-2.298.742-3.45.128-1.113.448-2.331.825-3.398.476-2.122.915-4.378 1.465-6.644.505-1.994 1.026-4.164 1.42-6.224.624-2.101 1.14-4.165 1.859-6.135.447-2.175.96-4.136 1.612-6.102.48-1.973.985-4.02 1.605-5.773.566-2.089 1.206-3.722 1.834-5.47.418-1.846 1.034-3.746 1.563-5.44.587-1.732 1.092-3.304 1.67-5.003a163.854 163.854 0 011.839-4.772c.484-1.641.98-3.258 1.65-4.67a156.682 156.682 0 011.616-4.222c.579-1.387 1.678-4.005 1.678-4.005.538-1.379 1.707-3.767 1.707-3.767.583-1.116 1.1-2.244 1.711-3.442a38.267 38.267 0 001.576-3.156c.657-.92 1.145-1.88 1.74-2.831.455-.833 1.096-1.695 1.584-2.544.164-.353.373-.587.714-.907l-34.723-6.098c-.123.575-.328.82-.574 1.067z"/><linearGradient id="prefix__f" gradientUnits="userSpaceOnUse" x1="7834.54" y1="31261.16" x2="5045.081" y2="31261.16" gradientTransform="matrix(-.0101 .0557 .0556 .0101 -896.626 -429.697)"><stop offset="0" stop-color="#da9ead"/><stop offset="1" stop-color="#dda486"/></linearGradient><path fill="url(#prefix__f)" d="M725.971 142.042c-.513 1.112-.964 2.06-1.535 3.254-.693 1.075-1.14 2.384-1.719 3.669 0 0-1.24 2.495-1.789 3.791 0 0-.96 2.557-1.773 4.108-.488 1.415-1.083 2.868-1.674 4.435-.512 1.515-1.17 2.996-1.661 4.658-.632 1.707-1.268 3.299-1.839 5.043-.492 1.838-1.116 3.471-1.641 5.326-.624 1.752-1.231 3.607-1.715 5.457-.677 1.802-1.244 3.817-1.81 5.557-.57 2.088-1.104 4.037-1.645 6.212-.628 2.097-1.235 3.952-1.637 6.122-.686 2.085-1.244 4.276-1.748 6.447-.612 2.076-1.112 4.382-1.609 6.56-.451 2.27-1.104 4.588-1.53 6.927-.337 1.227-.501 2.233-.792 3.39-.255 1.075-.546 2.281-.776 3.529-.254 1.095-.546 2.306-.718 3.553a43.642 43.642 0 00-.771 3.55 13.764 13.764 0 01-.792 3.43c-.156 1.375-.505 2.63-.653 3.693-.217 1.284-.39 2.569-.759 3.738-.156 1.293-.328 2.581-.673 3.878-.152 1.067-.381 2.302-.492 3.496-.357 1.272-.575 2.638-.747 3.783-.135 1.244-.464 2.27-.566 3.628a33.113 33.113 0 00-.57 3.746c-.177 1.23-.505 2.286-.58 3.48-.18 1.186-.463 2.486-.537 3.574-.246 1.12-.385 2.26-.57 3.623-.107 1.235-.324 2.269-.472 3.303-.398 2.437-.538 4.801-.94 7.103-.303 2.425-.484 4.407-.738 6.84-.271 2.212-.443 4.4-.673 6.492-.23 2.236-.579 4.345-.587 6.405-.287 2.171-.423 4.247-.616 6.258.008 1.957-.225 3.861-.36 6.003-.116 1.797-.128 3.792-.288 5.601a212.369 212.369 0 00-.221 5.642c-.111 1.748-.066 3.472-.087 5.212-.11 1.682-.008 3.331.037 5.1.008 1.584.033 3.217-.008 4.776.087 1.4.173 3.008.156 4.346.017 1.551.164 2.979.283 4.309.074 1.44.222 2.646.374 3.849.082 1.202.324 2.527.46 3.63l.426 3.382c.025.16.029.222.074.546l143.827 26.983c-.16-.032-.394-.008-.57-.209-.124.017-.431-.234-.55-.37-.39-.024-.784-.401-1.1-.594-.41-.234-.734-.616-1.034-1.145-.374-.287-.685-.69-.915-1.28-.476-.649-.616-1.1-.89-1.724-.423-.496-.682-1.025-.948-1.789-.353-.833-.48-1.49-.735-2.22-.25-.656-.554-1.65-.747-2.371a88.447 88.447 0 01-.603-2.865c-.279-1.009-.521-1.994-.644-2.983-.136-1.104-.246-1.965-.415-3.274-.156-1.24-.279-2.253-.435-3.455-.155-1.28-.188-2.442-.36-3.784-.017-1.362-.042-2.749-.206-4.103-.008-1.506-.012-2.958-.086-4.354-.123-1.473-.107-2.925-.061-4.538-.025-1.567-.07-3.114-.046-4.67.05-1.92.02-3.47.21-5.088-.086-1.834.004-3.303.082-5.297.09-1.588.25-3.496.307-5.273.148-1.855.263-3.541.472-5.585.033-1.883.255-3.865.357-5.76.316-1.958.51-4.039.645-5.93.2-2.093.472-4.19.68-6.168.194-2.006.46-4.177.78-6.163.087-1.022.243-2.093.427-3.168.103-1.017.193-2.088.435-3.208.099-1.125.353-2.056.427-3.234.14-1.091.373-2.285.484-3.192.246-1.198.32-2.208.57-3.353.185-1.145.374-2.26.432-3.151.238-1.21.529-2.204.64-3.39.258-1.083.336-2.256.615-3.516.144-.952.464-2.117.607-3.197.23-1.202.427-2.215.62-3.356.205-.932.509-2.13.611-3.18.275-1.202.489-2.126.8-3.328.095-1.03.444-2.076.546-3.102.234-1.12.427-2.163.715-3.238.2-.997.447-2.117.64-3.16.274-1.079.517-2.08.82-3.212.382-1.958.944-3.91 1.42-6.032.468-2.015 1.055-3.972 1.539-5.81.427-2.069.841-3.956 1.51-5.774.443-2.01.956-3.78 1.547-5.765.62-1.748 1.112-3.513 1.625-5.265.496-1.78.985-3.533 1.617-5.166.48-1.654 1.021-3.352 1.485-4.96a51.619 51.619 0 001.69-4.662c.608-1.482 1.08-3.033 1.667-4.51.628-1.453 1.108-2.856 1.744-4.16.55-1.47.94-2.688 1.497-3.981.677-1.309 1.642-3.816 1.642-3.816.586-1.137 1.813-3.312 1.813-3.312.456-1.144.956-2.154 1.461-3.393.657-.862 1.042-1.912 1.711-2.782.46-1.042.993-1.797 1.572-2.63.484-.899.976-1.465 1.473-2.425.533-.575 1.1-1.363 1.617-2.089.467-.673 1.01-1.198 1.456-1.695.468-.607.985-1.079 1.4-1.559.414-.382 1.079-.808 1.452-1.08.6-.405.854-.656 1.449-.836a2.949 2.949 0 011.3-.735c.562-.07.776-.27 1.38-.353.18-.02.352-.04.565.111.136-.02.353-.05.612-.082l-144.172-24.998c-.242.029-.337.214-.37.448a115.65 115.65 0 01-1.723 3.077z"/><linearGradient id="prefix__g" gradientUnits="userSpaceOnUse" x1="4516.857" y1="24487.879" x2="7305.877" y2="24281.334" gradientTransform="matrix(-.0098 .0544 .0556 .0101 -900.22 -431.639)"><stop offset="0" stop-color="#d58952"/><stop offset=".506" stop-color="#f5f28f"/><stop offset="1" stop-color="#d69846"/></linearGradient><path fill="url(#prefix__g)" d="M388.962 80.984c-.476.612-.98 1.44-1.44 2.392-.476.895-1.153 1.777-1.641 2.778-.522 1.063-1.071 1.917-1.675 3.066-.529 1.05-1.066 2.195-1.641 3.356 0 0-1.145 2.34-1.604 3.562 0 0-1.117 2.638-1.781 3.992-.57 1.19-1.116 2.602-1.597 4.038-.484 1.506-1.226 3.008-1.727 4.514-.53 1.514-1.198 3.16-1.678 4.665-.636 1.633-1.19 3.39-1.773 4.957-.546 1.797-1.042 3.537-1.62 5.269-.616 1.76-1.06 3.533-1.601 5.396-.665 1.859-1.178 3.763-1.744 5.609-.534 1.888-1.112 3.931-1.596 5.876-.521 2.068-1.12 4.05-1.568 6.093-.414 2.052-1.157 4.161-1.555 6.275a143.035 143.035 0 00-1.522 6.327 22.992 22.992 0 01-.772 3.25c-.119 1.309-.472 2.302-.743 3.45-.205 1.01-.43 2.114-.693 3.308-.18 1.112-.497 2.17-.624 3.312-.234 1.206-.447 2.367-.726 3.475-.337.98-.513 2.347-.698 3.418-.238 1.104-.451 2.343-.673 3.488-.168 1.247-.36 2.273-.599 3.541-.135 1.104-.46 2.224-.627 3.468-.255 1.095-.366 2.334-.616 3.483-.21 1.116-.443 2.224-.57 3.447-.132 1.137-.366 2.343-.468 3.406-.238 1.091-.406 2.33-.66 3.484-.083.997-.333 2.211-.395 3.426-.328 1.07-.32 2.277-.484 3.192-.254 1.256-.324 2.327-.533 3.46-.214 2.158-.542 4.308-.841 6.45-.214 2.269-.382 4.407-.673 6.43-.3 2.17-.448 4.173-.64 6.093-.201 2.04-.362 4.17-.493 6.2-.316 1.92-.34 3.923-.505 5.844-.114 2.01-.127 3.791-.266 5.687-.058 1.801-.206 3.627-.316 5.417-.054 1.71-.058 3.561-.082 5.178-.144 1.752-.12 3.418-.062 5.187-.09 1.46-.066 3.118-.02 4.665-.037 1.526-.037 2.959.073 4.567.165 1.297.177 2.88.288 4.091a34.72 34.72 0 00.287 4.067c.066 1.32.234 2.646.361 3.627.156 1.28.308 2.474.456 3.636.135 1.1.332 1.875.488 3.118.185.915.455 1.818.62 2.79.053.41.188.719.315 1.026l34.432 6.434a13.373 13.373 0 01-.197-1.198c-.296-.948-.485-2.043-.702-3.016-.127-.993-.34-2.06-.575-3.094-.147-1.161-.266-2.13-.422-3.332-.156-1.218-.308-2.429-.275-3.652-.197-1.53-.267-2.864-.373-4.074 0-1.404-.19-2.873-.312-4.23.061-1.458.012-2.96.008-4.408.057-1.78-.017-3.217-.008-4.85-.087-1.605-.12-3.316.032-5.064.017-1.686.12-3.405.144-5.137.135-1.916.115-3.796.189-5.531.148-1.855.238-3.702.32-5.671.152-1.978.34-4.058.611-5.872.082-1.99.185-4.14.464-6.06.18-2.139.365-4.063.718-6.152.12-2.072.472-4.255.628-6.483.275-2.142.513-4.304.796-6.327.103-1.375.386-2.393.476-3.525.185-1.141.259-2.2.505-3.345.057-1.173.205-2.265.529-3.344.11-1.239.32-2.277.484-3.525.107-1.009.402-2.166.653-3.405.057-1.129.295-2.097.488-3.525.16-1.01.377-2.29.513-3.398.246-1.149.443-2.298.677-3.442.14-1.182.422-2.397.603-3.509.254-1.108.443-2.339.616-3.54.246-1.092.603-2.315.627-3.53.44-.993.653-2.244.76-3.258.29-1.198.525-2.285.804-3.278.18-1.129.52-2.454.677-3.488.254-1.08.472-2.31.755-3.382.106-1 .447-2.121.82-3.192.435-2.117.952-4.239 1.285-6.344.636-2.097 1.136-4.222 1.653-6.241.394-2.113 1.141-4.042 1.527-6.15.644-1.909 1.157-3.85 1.699-5.832.607-1.912 1.153-3.758 1.584-5.584.599-1.872 1.148-3.66 1.64-5.556.547-1.7 1.105-3.542 1.753-5.13.579-1.625 1.161-3.373 1.711-4.887a82.711 82.711 0 011.609-4.76c.595-1.625 1.206-3.003 1.735-4.472.558-1.379 1.03-2.844 1.637-4.091.575-1.4 1.675-4.104 1.675-4.104.566-1.054 1.727-3.442 1.727-3.442.497-1.285 1.059-2.34 1.543-3.295.611-1.157 1.157-2.282 1.773-3.127.381-.989 1.1-1.929 1.563-2.716.538-.96 1.161-1.744 1.555-2.586.28-.365.489-.496.735-.853l-34.653-6.213c-.164.247-.328.616-.575.903z"/><linearGradient id="prefix__h" gradientUnits="userSpaceOnUse" x1="13612.381" y1="17783.537" x2="14870.686" y2="17711.316" gradientTransform="matrix(-.0053 .0292 .0289 .0052 -883.891 -450.676)"><stop offset="0" stop-color="#a2a2a2"/><stop offset="1"/></linearGradient><path fill="url(#prefix__h)" d="M-392.22 21.034l-99.728 12.441 91.05 47.55c-6.024-26.549.324-46.409 8.678-59.99z"/></g></svg>