<svg xmlns="http://www.w3.org/2000/svg" width="140.51" height="69.786" viewBox="0 0 179.85 89.326" xmlns:v="https://vecta.io/nano"><g fill="#633"><path d="M179.59 68.377c.18.561.26 1.142.26 1.722 0 3.204-2.604 5.808-5.808 5.808h-5.247c-2.143 0-4.126-1.142-5.227-2.984l-.18-.32c-6.008-12.097-18.106-19.608-31.605-19.608h-5.528c.08.32.16.641.26.961 1.502 6.049 2.243 12.137 2.243 18.126a69.06 69.06 0 0 1-.741 10.054h1.963a3.58 3.58 0 1 1 0 7.17h-19.107c-1.722 0-3.204-1.222-3.525-2.904a63.6 63.6 0 0 0-.821-3.725c-1.702-6.85-4.366-13.279-7.811-18.907H74.18c-3.285 4.206-7.751 7.33-12.778 9.013l-.721 9.373h2.423a3.58 3.58 0 1 1 0 7.17h-21.19c-1.843 0-3.385-1.402-3.565-3.245-.601-6.449-1.422-12.858-2.423-19.027-.981-6.008-2.163-11.897-3.485-17.505-.06-.28-.1-.561-.1-.821l.08-7.731h-4.326c-6.109 0-11.096 4.987-11.096 11.096 0 .441-.06.681-.22 1.242-.601 4.066-4.126 7.19-8.352 7.19-4.647 0-8.432-3.785-8.432-8.452V41.779c0-20.369 16.583-36.952 36.952-36.952h13.439c3.265 0 6.429-.581 9.433-1.742C64.807 1.081 70.255 0 75.943 0l14.36.02h.06a94.18 94.18 0 0 1 32.786 6.349c.941-.601 1.903-1.122 2.904-1.502 3.565-1.382 7.13-1.102 9.814.761 2.664 1.863 4.166 5.147 4.066 8.953 0 .1-.02.22-.02.32 2.363 1.522 4.667 3.144 6.89 4.867 15.702 12.257 27.359 29.522 32.786 48.609z"/><path d="M84.159 19.187a3.58 3.58 0 0 0-3.585-3.585h-4.667c-15.422 0-27.96 12.538-27.96 27.96a3.58 3.58 0 1 0 7.17 0c0-11.456 9.333-20.789 20.789-20.789h4.667c1.983 0 3.585-1.622 3.585-3.585z"/></g><path d="M172.24 68.757h-2.764c-3.465-6.669-8.632-12.317-14.981-16.343-6.79-4.306-14.621-6.569-22.692-6.569h-10.295c-.381 0-.761.06-1.122.18a3.58 3.58 0 0 0-2.283 4.526c.541 1.662 1.041 3.405 1.482 5.147 1.362 5.488 2.043 10.996 2.043 16.403 0 3.445-.28 6.83-.841 10.054h-6.99c-.1-.401-.18-.801-.28-1.202-3.124-12.618-9.313-24.054-17.445-32.226-1.402-1.402-3.665-1.402-5.067-.02-1.402 1.402-1.402 3.665-.02 5.067.901.901 1.763 1.843 2.584 2.824H78.186a27.09 27.09 0 0 0 1.682-11.036c-.12-1.983-1.782-3.485-3.785-3.365a3.57 3.57 0 0 0-3.365 3.785 19.8 19.8 0 0 1-15.482 20.529c-1.502.32-2.684 1.602-2.804 3.225l-.981 12.418h-8.312c-.581-5.508-1.302-10.976-2.163-16.263-.981-6.029-2.163-11.937-3.505-17.605v-4.707c0-20.068 16.323-36.411 36.411-36.411l14.26.02h.04c9.393.12 18.566 1.742 27.339 4.787-.841 1.582-.401 3.565 1.102 4.607 1.622 1.122 3.845.741 4.987-.881 1.362-1.943 3.165-3.445 4.947-4.146.621-.24 2.143-.721 3.104-.04s1.021 2.283 1.021 2.924c-.04 1.923-.841 4.126-2.203 6.069-1.142 1.622-.741 3.845.881 4.987a3.52 3.52 0 0 0 2.043.641c1.122 0 2.243-.521 2.924-1.522a22.06 22.06 0 0 0 1.482-2.443c1.542 1.041 3.044 2.143 4.506 3.265 14.16 10.976 24.735 26.317 29.922 43.321z" fill="#fc6"/><path d="M139.02 29.041a4.47 4.47 0 0 1 4.466 4.466 4.47 4.47 0 0 1-4.466 4.466 4.47 4.47 0 0 1-4.466-4.466 4.46 4.46 0 0 1 4.466-4.466zM80.577 15.602a3.58 3.58 0 1 1 0 7.17H75.91c-11.456 0-20.789 9.333-20.789 20.789a3.58 3.58 0 1 1-7.17 0c0-15.422 12.538-27.96 27.96-27.96z" fill="#633"/><path d="M36.932 11.977h8.993c-6.109 5.788-10.535 13.339-12.478 21.811h-5.408c-9.674.04-17.585 7.631-18.146 17.164-.12.34-.16.701-.16 1.102a1.29 1.29 0 0 1-1.282 1.282 1.29 1.29 0 0 1-1.282-1.282V41.779c-.02-16.443 13.339-29.802 29.762-29.802z" fill="#fc6"/></svg>