<svg version="1.1" xmlns="http://www.w3.org/2000/svg" xmlns:xlink="http://www.w3.org/1999/xlink" width="140" height="91.24818" viewBox="0,0,140,91.24818"><g transform="translate(-169.99975,-134.37548)"><g data-paper-data="{&quot;isPaintingLayer&quot;:true}" fill-rule="nonzero" stroke="none" stroke-width="1" stroke-linecap="butt" stroke-linejoin="miter" stroke-miterlimit="10" stroke-dasharray="" stroke-dashoffset="0" style="mix-blend-mode: normal"><path d="M200.9441,134.37794c0.74259,0.02114 1.50498,0.40489 1.53458,1.22758c0.84933,4.36026 2.38926,8.53426 4.158,12.59802c0.71012,1.58793 0.95702,3.82115 2.63919,4.70828c5.71793,-4.02376 8.30126,-10.94337 9.75704,-17.49223c3.30707,0.49091 4.34326,4.17241 5.15806,6.90185c3.97063,-3.29219 9.45191,2.65216 6.53766,6.4567c2.96993,-0.052 6.04323,2.06524 6.03635,5.26431c-0.00512,1.24233 1.44188,0.20102 2.03388,0.15001c14.39763,-4.31401 30.62513,1.94668 39.33827,13.97827c7.31562,5.86931 18.32362,6.98905 26.51673,2.30686c1.45304,-0.98294 2.79376,-2.3752 4.49802,-2.76144c1.04588,0.50403 0.94305,2.0531 0.64404,2.99938c-3.25299,11.03681 -15.43577,16.91537 -26.18551,17.55784c-0.86357,6.8484 -3.93879,13.82162 -9.82937,17.82185c1.33816,3.87431 3.51716,7.6987 5.46384,11.41923c1.24932,1.57865 2.25256,4.14197 0.46878,5.73314c-4.47114,2.31622 -9.86841,2.10404 -14.4914,0.34202c-1.88849,-0.11521 -1.0847,-3.52077 -3.27043,-2.7464c-2.67855,0.71307 -5.49072,0.3557 -8.05518,-0.54302c-0.739,-2.28365 -0.655,-4.94685 -1.36982,-7.15738c-3.0941,0.11346 -6.27828,0.32194 -9.34982,0.35101c-0.31155,3.23459 0.34012,6.64855 -0.29827,9.85706c-3.06546,2.60103 -7.51051,2.33983 -11.33313,2.17869c-1.99964,-0.32194 -4.48099,-0.51715 -5.79681,-2.26045c-0.43062,-0.47188 0.32935,-1.71047 -0.59655,-1.58059c-2.77792,0.28146 -6.63096,0.10193 -8.05726,-2.66864c0.36338,-4.1292 3.80332,-7.33883 4.49434,-11.37523c-0.43795,-1.10429 -1.87358,-1.57443 -2.71744,-2.4131c-1.17879,0.56616 -2.34369,1.83024 -3.76294,1.46809c-0.3709,-3.97912 -1.26439,-8.36193 -4.17128,-11.29635c-0.85429,-1.25801 -2.15185,-0.2916 -3.01537,0.35152c-9.10293,5.37744 -22.6181,2.18237 -27.27037,-7.66589c-1.0042,-1.04054 -0.33682,-3.92084 -2.50014,-3.28675c-2.55727,-0.31 -5.01757,1.22933 -7.36762,1.15357c-2.34734,-9.15574 0.57171,-20.18839 8.78419,-25.49751c0.93477,-0.94524 2.3731,-1.17602 3.34467,-1.9886c-0.73634,-3.49221 -2.49322,-7.37836 -0.69855,-10.87872c0.31538,-0.77878 1.2814,-1.13853 2.0398,-0.8283c2.21389,3.19107 3.08194,7.15658 5.60032,10.16716c3.41924,-0.20833 6.88648,-0.32994 10.27483,-0.82179c-1.09045,-5.41536 -2.05161,-11.00561 -1.6889,-16.58178c0.28894,-1.76634 0.53505,-3.72011 1.83531,-5.0635c0.16163,-0.04881 0.33871,-0.07713 0.52003,-0.08376c0.0491,-0.00176 0.0985,-0.00192 0.14801,-0.00048zM203.37375,160.69847c-0.06885,0.02806 -0.13686,0.0574 -0.20427,0.08825c0.06735,-0.03082 0.13549,-0.05997 0.20427,-0.08801v-0.00032zM241.96204,220.97957c0.01873,-1.14391 0.02482,-2.28844 0.01874,-3.433c0.00612,1.14455 -0.00073,2.28908 -0.01874,3.433z" fill="#fab415"/><path d="M254.58692,157.49829c2.79904,1.22887 4.61633,4.0924 4.97197,7.0889c-0.39794,3.07538 -1.54281,6.51987 -4.66075,7.81006c-4.44986,2.28349 -11.02859,-0.43827 -11.69347,-5.58865c-1.14487,-3.44212 1.25735,-7.26379 3.98839,-9.23191c1.97355,-0.46509 4.15512,-1.15754 6.13555,-0.50065c0.43855,0.10449 0.85848,0.24659 1.25834,0.42217zM269.3374,167.3872c3.65285,1.52585 4.97997,6.84408 1.78522,9.72201c-3.20771,3.04338 -8.92883,1.11559 -9.93225,-3.07762c-0.0392,-2.20093 0.4253,-4.86938 2.37534,-6.17957c1.36136,-0.53264 2.85164,-1.04083 4.32473,-0.84367c0.51469,0.06144 0.99836,0.19153 1.44696,0.37892zM257.05832,176.84725c2.98375,1.20455 3.10871,5.99827 0.10502,7.40172c-2.54991,1.27064 -6.04544,-0.65604 -5.89986,-3.60341c-0.25185,-2.56818 2.55247,-4.70172 4.97485,-4.02296c0.29376,0.04629 0.56712,0.12252 0.81997,0.22461zM246.09086,175.68357c1.21545,0.49251 2.11587,1.90894 1.38506,3.16179c-0.50099,1.56318 -2.65116,1.95711 -3.77254,0.82075c-1.71754,-1.37816 -0.09873,-4.62501 2.00156,-4.10456c0.13102,0.02997 0.26027,0.07115 0.38601,0.1221zM208.11772,160.76913c2.2501,0.97158 3.71602,3.60837 3.21555,6.0306c-0.35394,3.02994 -3.56037,5.52972 -6.59462,4.66156c-3.8597,-0.40194 -5.9597,-5.41744 -3.7639,-8.54755c1.03398,-2.26025 3.8727,-3.04175 6.13379,-2.45359c0.34999,0.06538 0.68756,0.17021 1.009,0.30901zM206.55402,164.4412c-0.14098,-0.05338 -0.29717,-0.08127 -0.46795,-0.07743c-2.07232,-0.56931 -2.11009,3.85578 0.0462,3.28659c1.73951,0.21121 1.7845,-2.69318 0.42175,-3.20915z" fill="#fccd63"/><path d="M309.1517,167.71642c1.0459,0.50414 0.94327,2.05292 0.64426,2.99922c-3.25331,11.03633 -15.43529,16.9146 -26.18551,17.55784c-0.86352,6.8484 -3.93895,13.82178 -9.82953,17.82185c1.33821,3.87415 3.51716,7.69854 5.46384,11.41907c1.2493,1.57857 2.25261,4.142 0.46884,5.73314c-4.47098,2.31614 -9.86809,2.10396 -14.49124,0.34205c-1.88843,-0.11518 -1.0848,-3.52069 -3.27043,-2.7464c-2.67855,0.71307 -5.49088,0.35567 -8.05518,-0.54306c-0.739,-2.28365 -0.65498,-4.94733 -1.36982,-7.15786c-3.0941,0.11347 -6.27812,0.32229 -9.34982,0.35136c-0.31155,3.23475 0.34012,6.64839 -0.29829,9.8569c-3.06546,2.60095 -7.51067,2.33982 -11.33329,2.17869c-1.99964,-0.32183 -4.48106,-0.51709 -5.79681,-2.26045c-0.4306,-0.47188 0.32938,-1.7105 -0.5965,-1.58067c-2.77792,0.28142 -6.63094,0.10191 -8.05726,-2.66864c0.36332,-4.1292 3.80326,-7.33883 4.49434,-11.37507c-0.43799,-1.10432 -1.87339,-1.57451 -2.71712,-2.41326c-1.17885,0.56616 -2.34382,1.83035 -3.7631,1.46817c-0.37079,-3.97912 -1.26441,-8.36209 -4.17128,-11.29635c-0.8544,-1.25807 -2.15212,-0.29181 -3.01553,0.35133c-9.09972,5.37312 -22.6157,2.17933 -27.26877,-7.66925c-1.00374,-1.04006 -0.33634,-3.92023 -2.49966,-3.28659c-2.55743,-0.31042 -5.01773,1.22887 -7.36778,1.15367c-2.34718,-9.15574 0.57154,-20.18839 8.78211,-25.49591c0.93477,-0.94527 2.37326,-1.17618 3.34483,-1.98876c-0.73631,-3.49221 -2.49294,-7.3782 -0.69841,-10.8784c0.31554,-0.77878 1.28159,-1.1388 2.03996,-0.82859c2.21373,3.19107 3.08194,7.15674 5.60032,10.16732c3.41924,-0.20833 6.88632,-0.32976 10.27451,-0.82162c-1.09041,-5.416 -2.05148,-11.00641 -1.68874,-16.58178c0.28899,-1.76634 0.53526,-3.72022 1.83547,-5.06366c0.86197,-0.26034 2.16364,0.06324 2.20253,1.14328c0.84934,4.36026 2.38926,8.53426 4.158,12.59802c0.71015,1.58793 0.95681,3.82103 2.63903,4.70812c5.71793,-4.02424 8.30112,-10.94369 9.75688,-17.49223c3.30707,0.49099 4.34345,4.17209 5.15838,6.90153c3.97063,-3.29235 9.45175,2.65232 6.5375,6.45686c2.96993,-0.05207 6.04323,2.06524 6.03651,5.26431c-0.00509,1.24233 1.44178,0.20107 2.03372,0.15006c14.39811,-4.3145 30.62577,1.94684 39.33987,13.97827c7.31594,5.86931 18.32426,6.98905 26.51673,2.30686c1.453,-0.98283 2.79344,-2.37502 4.4977,-2.76128M308.3392,169.29946c-7.9555,5.7941 -19.26031,6.97081 -28.00962,2.13261c0.93869,2.25309 1.89579,4.65724 1.78042,7.20795c-2.09948,-4.42794 -4.00279,-9.10406 -7.37947,-12.77484c-5.8389,-6.30661 -13.86864,-10.62463 -22.37729,-11.86038c-5.11245,-0.26178 -10.39004,0.10062 -15.19608,1.92523c-0.5549,0.86884 -1.07544,1.99308 -1.29819,2.94433c2.82048,2.83953 2.3899,8.27825 -1.22895,10.26013c2.4531,3.10098 2.34622,8.53298 -1.06091,10.92017c-0.01483,2.20893 1.30212,4.79292 -0.00597,7.02186c-1.06403,1.68426 -2.83456,2.56303 -4.76491,2.73824c0.34848,1.68266 0.56691,3.51317 -0.14125,5.14014c-1.06014,2.72832 -4.26089,4.02456 -6.9996,3.77558c0.00766,1.98348 -0.18151,4.03512 -1.6809,5.49648c2.20941,2.62432 5.85234,3.7015 8.93812,5.0275c0.87047,-1.87771 0.92052,-3.98264 1.25642,-5.98659c0.0987,-0.63191 0.90109,-0.2016 0.70332,0.32477c0.40162,6.37702 -2.32653,12.43369 -3.95623,18.46189c0.05655,1.93483 2.72624,1.47238 3.98071,2.15549c3.55605,0.47132 7.53371,0.6611 10.70942,-1.31177c0.46182,-0.50816 0.254,-1.28993 0.35564,-1.92059c0.09614,-6.10084 -0.12618,-12.21912 -0.93447,-18.26828c-0.04684,-0.36362 -0.06138,-1.43141 0.5616,-1.08208c1.08137,2.81857 1.24346,5.88483 1.30515,8.87284c0.09717,0.46902 -0.16303,1.36582 0.53683,1.43636c5.70273,-0.09159 11.68083,-0.05022 16.92898,-2.39486c-0.72955,-2.85825 -0.9598,-5.82322 -0.99367,-8.76276c-0.24867,-0.89703 0.72769,-0.61117 0.81072,-0.19009c0.92785,7.41836 2.65839,14.77383 5.19486,21.81409c4.02663,2.08124 9.04356,1.64458 13.02875,-0.30976c0.97532,-0.51464 1.02577,-1.67642 0.4838,-2.49967c-3.05106,-4.6822 -5.1339,-9.87514 -7.11033,-15.06393c-0.46499,-1.79227 -2.30701,-4.25433 -1.03849,-5.64113c1.21532,1.70154 1.30694,4.14825 2.68431,5.85011c4.43082,-3.78022 7.48043,-9.22567 8.67074,-14.89752c0.4638,-1.40844 -0.12016,-3.03426 0.7326,-4.31818c1.10981,-0.16023 0.26278,1.6753 1.27153,1.59166c3.64373,-0.09044 7.1985,-1.21801 10.57997,-2.50079c5.9405,-2.95377 12.21686,-6.99993 14.06801,-13.82242c-0.04192,-0.4678 0.31586,-1.54208 -0.40514,-1.49103M219.51852,137.16391c-0.03183,7.1745 -4.91132,13.18382 -10.05258,17.70505c-1.7641,2.92961 -5.54,3.36212 -8.63074,2.75376c-3.60597,0.66098 -7.31898,0.07658 -10.89951,0.79563c-1.71978,1.85067 -4.57258,1.63962 -6.82423,1.13043c-2.09452,1.10829 -4.0932,2.45855 -5.79697,4.1348c-5.68561,5.41632 -6.6719,13.91282 -6.01827,21.27166c5.62272,-2.10892 12.13318,-1.95692 17.90343,-0.19521c4.57034,1.17793 9.54887,3.21027 14.15426,1.01486c2.12572,-1.06344 4.31449,-3.56373 3.55316,-6.08196c-0.59675,-0.1236 -1.50655,-1.33414 -0.49008,-1.54864c2.01324,-0.08889 4.57802,1.86619 3.67413,4.07112c-0.98812,1.29872 -1.90667,-2.77248 -2.23117,-0.18131c-0.95767,4.76652 -6.48837,6.38438 -10.74958,5.79842c-5.27694,-0.88184 -10.36828,-2.90721 -15.77675,-2.94817c-1.01004,-0.33701 -0.66297,1.03829 -0.30874,1.47718c2.14892,3.49061 4.62187,7.17882 8.48801,8.92581c4.86124,2.0862 10.53981,2.44958 15.51834,0.54442c2.22013,-0.85013 4.1308,-2.3115 6.28852,-3.29139c1.1229,0.25329 -0.70958,1.10181 0.03806,1.50151c3.21635,2.77872 4.5625,7.03818 4.71195,11.17442c-0.17951,0.53251 0.62832,0.61135 0.83294,0.25875c1.13122,-1.73882 3.23859,-2.96546 3.21507,-5.28335c0.14288,-0.86732 -0.3636,-2.33758 0.83096,-2.59711c2.12604,0.13415 4.60443,-0.23661 5.8277,-2.20061c1.68746,-1.62234 0.64076,-4.08952 0.84819,-6.05844c1.75082,-0.86115 3.87062,-1.49138 4.87996,-3.3474c0.68191,-2.13517 0.24657,-4.51259 -1.09344,-6.25237c3.37843,-1.7721 5.13374,-7.21899 1.68954,-9.77706c-1.7953,-0.78261 0.85147,-1.34555 1.15271,-2.04684c3.00721,-1.92539 3.00065,-7.00217 -0.30923,-8.59603c-0.82614,-0.71423 0.74844,-0.95778 0.89322,-1.61162c0.59239,-1.98044 0.84509,-4.56251 -0.68561,-6.18773c-1.09653,-1.7305 -4.36425,-0.64618 -4.09,-3.14915c0.92549,-2.52143 -0.93426,-6.22533 -3.94247,-5.57633c-1.1069,-0.12088 -2.38398,1.94363 -3.14018,0.64785c-0.42602,-2.40286 -1.11315,-5.04062 -3.46036,-6.27269M201.22172,135.19966c-0.93045,0.11221 -1.00774,1.25537 -1.1922,1.96876c-0.86391,6.4055 -0.29685,12.97245 1.3963,19.19633c2.13276,0.93361 6.44981,0.47872 6.75719,-2.39518c-2.96401,-5.58577 -5.28206,-11.58981 -6.40213,-17.84425c-0.08685,-0.33557 -0.09172,-0.89721 -0.55912,-0.92482M183.72155,148.22511c-1.72682,1.71338 -0.77,4.45722 -0.55971,6.84712c0.31866,1.82843 1.27758,4.20009 3.55605,3.86855c0.7083,-0.66313 2.24621,-0.74121 1.83563,-2.08652c-2.14012,-2.53855 -3.15314,-6.13636 -4.83196,-8.62915M260.28437,211.13922c-1.97723,0.42516 -3.89622,1.11082 -5.87122,1.55089c-0.66589,0.10101 -0.42982,0.84967 -0.38049,1.29628c0.40639,1.85931 0.22385,3.86343 1.02931,5.61809c2.51102,0.55842 5.20478,0.42361 7.73581,0.00762c-0.90364,-2.67728 -1.21141,-6.14468 -2.51342,-8.47282M222.9318,208.39177c-1.80986,2.26493 -2.34798,6.0362 -4.11512,8.58099c-0.50632,0.49416 -0.30127,1.29041 -0.34471,1.92347c2.09004,1.61754 4.91868,1.83211 7.40875,1.55534c1.16493,-2.99506 2.25053,-6.31877 2.72992,-9.48616c-1.95355,-0.54944 -3.8135,-1.66666 -5.67889,-2.57375z" fill="#451a3b"/><path d="M308.56117,169.33253c0.41511,0.17782 0.14567,1.05161 0.18235,1.46095c-1.85115,6.82248 -8.12751,10.86848 -14.06801,13.82226c-3.38148,1.28273 -6.93624,2.41035 -10.57997,2.50079c-1.00875,0.08364 -0.16183,-1.7519 -1.27164,-1.59166c-0.85277,1.28408 -0.26885,2.9099 -0.73265,4.31834c-1.19015,5.67186 -4.2396,11.1173 -8.67042,14.89752c-1.37733,-1.70186 -1.469,-4.14857 -2.68431,-5.85011c-1.26844,1.3868 0.57343,3.84871 1.03841,5.64097c1.97643,5.18879 4.05927,10.38173 7.11033,15.06393c0.54198,0.82341 0.49153,1.98519 -0.48379,2.49983c-3.98519,1.9544 -9.00212,2.39107 -13.02875,0.30983c-2.53631,-7.04026 -4.26701,-14.39573 -5.19486,-21.81409c-0.08303,-0.42108 -1.05934,-0.70692 -0.81067,0.19011c0.03387,2.93937 0.26421,5.90435 0.99377,8.7626c-5.24798,2.34453 -11.22625,2.30312 -16.92898,2.3947c-0.69986,-0.07053 -0.43956,-0.96719 -0.53673,-1.43621c-0.06167,-2.98802 -0.22393,-6.05444 -1.30531,-8.873c-0.62299,-0.34932 -0.60832,0.71852 -0.56147,1.08214c0.80829,6.04916 1.03044,12.16744 0.93429,18.26828c-0.10164,0.63065 0.10623,1.41244 -0.35559,1.92059c-3.17586,1.97285 -7.15321,1.78297 -10.70926,1.31165c-1.25447,-0.68321 -3.92432,-0.22081 -3.98087,-2.15565c1.62969,-6.02692 4.35785,-12.08327 3.95623,-18.46029c0.19777,-0.52637 -0.60469,-0.95676 -0.70338,-0.32485c-0.33591,2.00412 -0.38573,4.10888 -1.2562,5.98659c-3.08578,-1.32616 -6.72887,-2.40318 -8.93828,-5.0275c1.49933,-1.46137 1.68856,-3.51301 1.6809,-5.49648c2.73888,0.24897 5.93962,-1.04742 6.99976,-3.77574c0.70817,-1.62698 0.48972,-3.45732 0.14124,-5.13998c1.93035,-0.17521 3.70089,-1.05398 4.76491,-2.73824c1.30809,-2.22893 -0.00893,-4.81292 0.00592,-7.02186c3.40698,-2.38718 3.51403,-7.81918 1.06093,-10.92017c3.6189,-1.98188 4.04932,-7.42092 1.22884,-10.26045c0.22275,-0.95142 0.74326,-2.0755 1.29815,-2.94433c4.80588,-1.82454 10.08378,-2.18701 15.19624,-1.92523c8.50881,1.23575 16.53839,5.55393 22.37729,11.86054c3.37667,3.67078 5.27998,8.34689 7.37947,12.77484c0.11553,-2.55087 -0.84157,-4.95501 -1.78026,-7.20811c8.7493,4.83821 20.05412,3.6615 28.00962,-2.13261c0.09013,-0.00638 0.16356,0.0047 0.22286,0.0301zM254.58698,157.49813c-0.39988,-0.17558 -0.81979,-0.31768 -1.25834,-0.42217c-1.98043,-0.65689 -4.162,0.03557 -6.13555,0.50065c-2.73097,1.96812 -5.1333,5.78978 -3.98839,9.23191c0.66484,5.15027 7.24362,7.87215 11.69347,5.58865c3.11794,-1.29016 4.26289,-4.73468 4.66075,-7.81006c-0.3557,-2.9965 -2.17293,-5.8599 -4.97197,-7.0889zM269.3374,167.38736c-0.4486,-0.18739 -0.93228,-0.31746 -1.44696,-0.37892c-1.47304,-0.19716 -2.96339,0.31103 -4.32473,0.84367c-1.95,1.31016 -2.41452,3.97864 -2.37534,6.17957c1.00342,4.19318 6.72455,6.12084 9.93225,3.07762c3.19474,-2.87793 1.86763,-8.19615 -1.78522,-9.72201zM257.05827,176.84715c-0.25286,-0.10209 -0.52622,-0.17832 -0.81997,-0.22461c-2.42238,-0.67876 -5.22664,1.45481 -4.97485,4.02296c-0.14561,2.94731 3.34995,4.87405 5.89986,3.60341c3.0038,-1.40328 2.87867,-6.19707 -0.10502,-7.40172zM246.09102,175.68372c-0.12574,-0.05095 -0.25499,-0.09213 -0.38601,-0.1221c-2.1004,-0.52051 -3.71909,2.72632 -2.00156,4.10456c1.12134,1.13632 3.27152,0.74243 3.77254,-0.82075c0.73075,-1.25287 -0.16961,-2.66929 -1.38506,-3.16179zM260.29281,211.14175c1.30203,2.32814 1.60964,5.79538 2.51326,8.47266c-2.53119,0.41599 -5.22478,0.55075 -7.73581,-0.00766c-0.80547,-1.75466 -0.6229,-3.75862 -1.02929,-5.61793c-0.04933,-0.44662 -0.28538,-1.19521 0.38052,-1.29622c1.97499,-0.44009 3.89414,-1.1257 5.87138,-1.55086zM222.93716,208.39591c1.86539,0.90693 3.72565,2.02415 5.67921,2.57359c-0.47955,3.16739 -1.56515,6.49126 -2.73008,9.48632c-2.49022,0.27672 -5.31887,0.06199 -7.40891,-1.55555c0.04344,-0.63309 -0.16153,-1.42916 0.34479,-1.92331c1.76698,-2.54479 2.30509,-6.31605 4.11496,-8.58099z" fill="#826875"/><path d="M219.52573,137.16901c2.34734,1.23194 3.03442,3.86967 3.46036,6.27269c0.75617,1.2958 2.03324,-0.76873 3.14018,-0.64785c3.00833,-0.64906 4.86796,3.05474 3.94247,5.57633c-0.27434,2.50303 2.99345,1.41872 4.09,3.14915c1.5307,1.62522 1.27799,4.20729 0.68561,6.18773c-0.14477,0.65385 -1.7193,0.89738 -0.89322,1.61162c3.30995,1.59382 3.31635,6.67063 0.30923,8.59603c-0.30123,0.70129 -2.94801,1.26422 -1.15271,2.04684c3.4442,2.55823 1.68874,8.00511 -1.68954,9.77706c1.34001,1.73978 1.7753,4.11704 1.09344,6.25237c-1.00927,1.85611 -3.12914,2.48623 -4.87996,3.3474c-0.20744,1.96892 0.83925,4.4361 -0.84819,6.05844c-1.22327,1.96412 -3.70165,2.33486 -5.8277,2.20061c-1.19456,0.25957 -0.68809,1.72986 -0.83096,2.59711c0.0235,2.3179 -2.0838,3.54453 -3.21507,5.28335c-0.20462,0.3526 -1.01244,0.27376 -0.83294,-0.25875c-0.14952,-4.1364 -1.49564,-8.3957 -4.71195,-11.17442c-0.74764,-0.3997 1.08483,-1.24822 -0.03806,-1.50151c-2.15772,0.97993 -4.06839,2.44126 -6.28852,3.29139c-4.97853,1.90523 -10.65709,1.54179 -15.51834,-0.54442c-3.86598,-1.74698 -6.33909,-5.4352 -8.48801,-8.92581c-0.35421,-0.43889 -0.70129,-1.81419 0.30874,-1.47718c5.40831,0.04097 10.49981,2.06636 15.77675,2.94817c4.26137,0.586 9.79192,-1.03185 10.74958,-5.79842c0.32459,-2.59103 1.24308,1.48002 2.23117,0.18131c0.90378,-2.20493 -1.6609,-4.16009 -3.67413,-4.07112c-1.01647,0.21449 -0.10668,1.42503 0.49008,1.54864c0.76144,2.51823 -1.42736,5.01854 -3.55316,6.08196c-4.60539,2.19533 -9.58391,0.16305 -14.15426,-1.01486c-5.77057,-1.7601 -12.28103,-1.91211 -17.90343,0.19681c-0.65401,-7.35883 0.33234,-15.85534 6.01843,-21.27006c1.70378,-1.67626 3.70245,-3.02642 5.79697,-4.1348c2.25165,0.50913 5.10445,0.72019 6.82423,-1.13043c3.58053,-0.71905 7.29354,-0.13464 10.89951,-0.79563c3.09074,0.60844 6.86648,0.1759 8.63074,-2.75376c5.1411,-4.52091 10.02074,-10.53022 10.05258,-17.70505M207.10892,160.46092c-2.26109,-0.58816 -5.09997,0.19336 -6.13395,2.45359c-2.19581,3.13011 -0.0958,8.1456 3.7639,8.54771c3.03426,0.86816 6.24084,-1.63178 6.59462,-4.66172c0.57198,-2.76832 -1.42456,-5.81666 -4.22456,-6.33957z" fill="#b6a1a9"/><path d="M206.08655,164.36422c1.82171,-0.04091 1.96555,3.51957 0.0461,3.28643c-2.15628,0.56919 -2.11836,-3.85575 -0.0461,-3.28643z" fill="#0b0906"/></g></g></svg>