<svg version="1.1" xmlns="http://www.w3.org/2000/svg" xmlns:xlink="http://www.w3.org/1999/xlink" width="139.99997" height="91.24819" viewBox="0,0,139.99997,91.24819"><g transform="translate(-170.00003,-134.37591)"><g data-paper-data="{&quot;isPaintingLayer&quot;:true}" fill-rule="nonzero" stroke="none" stroke-width="1" stroke-linecap="butt" stroke-linejoin="miter" stroke-miterlimit="10" stroke-dasharray="" stroke-dashoffset="0" style="mix-blend-mode: normal"><path d="M279.05589,134.3789c0.04951,-0.00144 0.09891,-0.00128 0.14801,0.00048c0.18132,0.00663 0.3584,0.03495 0.52003,0.08376c1.30026,1.34339 1.54637,3.29716 1.83531,5.0635c0.36271,5.57617 -0.59845,11.16642 -1.6889,16.58178c3.38835,0.49185 6.85559,0.61346 10.27483,0.82179c2.51838,-3.01058 3.38643,-6.97609 5.60032,-10.16716c0.7584,-0.31023 1.72442,0.04952 2.0398,0.8283c1.79467,3.50036 0.03779,7.38651 -0.69855,10.87872c0.97157,0.81258 2.4099,1.04336 3.34467,1.9886c8.21248,5.30912 11.13153,16.34177 8.78419,25.49751c-2.35005,0.07576 -4.81035,-1.46357 -7.36762,-1.15357c-2.16332,-0.63409 -1.49594,2.24621 -2.50014,3.28675c-4.65227,9.84826 -18.16744,13.04333 -27.27037,7.66589c-0.86352,-0.64312 -2.16108,-1.60953 -3.01537,-0.35152c-2.90689,2.93442 -3.80038,7.31723 -4.17128,11.29635c-1.41925,0.36215 -2.58415,-0.90193 -3.76294,-1.46809c-0.84386,0.83867 -2.27949,1.30881 -2.71744,2.4131c0.69102,4.0364 4.13096,7.24603 4.49434,11.37523c-1.4263,2.77057 -5.27934,2.9501 -8.05726,2.66864c-0.9259,-0.12988 -0.16593,1.10871 -0.59655,1.58059c-1.31582,1.7433 -3.79717,1.93851 -5.79681,2.26045c-3.82262,0.16114 -8.26767,0.42234 -11.33313,-2.17869c-0.63839,-3.20851 0.01328,-6.62247 -0.29827,-9.85706c-3.07154,-0.02907 -6.25572,-0.23755 -9.34982,-0.35101c-0.71482,2.21053 -0.63082,4.87373 -1.36982,7.15738c-2.56446,0.89872 -5.37663,1.25609 -8.05518,0.54302c-2.18573,-0.77437 -1.38194,2.63119 -3.27043,2.7464c-4.62299,1.76202 -10.02026,1.9742 -14.4914,-0.34202c-1.78378,-1.59117 -0.78054,-4.15449 0.46878,-5.73314c1.94668,-3.72053 4.12568,-7.54492 5.46384,-11.41923c-5.89058,-4.00023 -8.9658,-10.97345 -9.82937,-17.82185c-10.74974,-0.64247 -22.93252,-6.52103 -26.18551,-17.55784c-0.29901,-0.94628 -0.40184,-2.49535 0.64404,-2.99938c1.70426,0.38624 3.04498,1.7785 4.49802,2.76144c8.19311,4.68219 19.20111,3.56245 26.51673,-2.30686c8.71314,-12.03159 24.94064,-18.29228 39.33827,-13.97827c0.592,0.05101 2.039,1.09232 2.03388,-0.15001c-0.00688,-3.19907 3.06642,-5.31631 6.03635,-5.26431c-2.91425,-3.80454 2.56703,-9.74889 6.53766,-6.4567c0.8148,-2.72944 1.85099,-6.41094 5.15806,-6.90185c1.45578,6.54886 4.03911,13.46847 9.75704,17.49223c1.68217,-0.88713 1.92907,-3.12035 2.63919,-4.70828c1.76874,-4.06376 3.30867,-8.23776 4.158,-12.59802c0.0296,-0.82269 0.79199,-1.20644 1.53458,-1.22758zM276.62602,160.69882v0.00032c0.06878,0.02804 0.13692,0.05719 0.20427,0.08801c-0.06741,-0.03085 -0.13542,-0.06019 -0.20427,-0.08825zM238.01899,217.547c-0.00608,1.14456 0.00001,2.28909 0.01874,3.433c-0.01801,-1.14392 -0.02486,-2.28845 -0.01874,-3.433z" data-paper-data="{&quot;index&quot;:null}" fill="#fab415"/><path d="M225.41282,157.49864c0.39986,-0.17558 0.81979,-0.31768 1.25834,-0.42217c1.98043,-0.65689 4.162,0.03556 6.13555,0.50065c2.73104,1.96812 5.13326,5.78979 3.98839,9.23191c-0.66488,5.15038 -7.24361,7.87214 -11.69347,5.58865c-3.11794,-1.29019 -4.26281,-4.73468 -4.66075,-7.81006c0.35564,-2.9965 2.17293,-5.86003 4.97197,-7.0889zM210.66237,167.3877c0.4486,-0.18739 0.93227,-0.31748 1.44696,-0.37892c1.47309,-0.19716 2.96337,0.31103 4.32473,0.84367c1.95004,1.31019 2.41454,3.97864 2.37534,6.17957c-1.00342,4.19321 -6.72454,6.121 -9.93225,3.07762c-3.19475,-2.87793 -1.86763,-8.19616 1.78522,-9.72201zM222.94147,176.84764c0.25285,-0.10209 0.52621,-0.17832 0.81997,-0.22461c2.42238,-0.67876 5.2267,1.45478 4.97485,4.02296c0.14558,2.94737 -3.34995,4.87405 -5.89986,3.60341c-3.00369,-1.40345 -2.87873,-6.19717 0.10502,-7.40172zM233.90882,175.68408c0.12574,-0.05095 0.25499,-0.09213 0.38601,-0.1221c2.10029,-0.52045 3.7191,2.7264 2.00156,4.10456c-1.12138,1.13636 -3.27155,0.74243 -3.77254,-0.82075c-0.73081,-1.25285 0.16961,-2.66928 1.38506,-3.16179zM271.88223,160.76959c0.32144,-0.1388 0.65901,-0.24363 1.009,-0.30901c2.26109,-0.58816 5.09981,0.19334 6.13379,2.45359c2.1958,3.13011 0.0958,8.14561 -3.7639,8.54755c-3.03425,0.86816 -6.24068,-1.63162 -6.59462,-4.66156c-0.50047,-2.42223 0.96545,-5.05902 3.21555,-6.0306zM273.44575,164.44164c-1.36275,0.51597 -1.31776,3.42036 0.42175,3.20915c2.15629,0.56919 2.11852,-3.8559 0.0462,-3.28659c-0.17078,-0.00384 -0.32697,0.02405 -0.46795,0.07743z" data-paper-data="{&quot;index&quot;:null}" fill="#fccd63"/><path d="M170.84681,167.71494c1.70426,0.38626 3.0447,1.77845 4.4977,2.76128c8.19247,4.68219 19.20079,3.56245 26.51673,-2.30686c8.7141,-12.03143 24.94176,-18.29277 39.33987,-13.97827c0.59194,0.05101 2.03881,1.09227 2.03372,-0.15006c-0.00672,-3.19907 3.06658,-5.31638 6.03651,-5.26431c-2.91425,-3.80454 2.56687,-9.74921 6.5375,-6.45686c0.81493,-2.72944 1.85131,-6.41054 5.15838,-6.90153c1.45576,6.54854 4.03895,13.46799 9.75688,17.49223c1.68222,-0.88709 1.92888,-3.12019 2.63903,-4.70812c1.76874,-4.06376 3.30866,-8.23776 4.158,-12.59802c0.03889,-1.08004 1.34056,-1.40362 2.20253,-1.14328c1.30021,1.34344 1.54648,3.29732 1.83547,5.06366c0.36274,5.57537 -0.59833,11.16578 -1.68874,16.58178c3.38819,0.49186 6.85527,0.61329 10.27451,0.82162c2.51838,-3.01058 3.38659,-6.97625 5.60032,-10.16732c0.75837,-0.31021 1.72442,0.04981 2.03996,0.82859c1.79453,3.5002 0.0379,7.38619 -0.69841,10.8784c0.97157,0.81258 2.41006,1.04349 3.34483,1.98876c8.21057,5.30752 11.12929,16.34017 8.78211,25.49591c-2.35005,0.0752 -4.81035,-1.46409 -7.36778,-1.15367c-2.16332,-0.63364 -1.49592,2.24653 -2.49966,3.28659c-4.65307,9.84858 -18.16905,13.04237 -27.26877,7.66925c-0.86341,-0.64314 -2.16113,-1.6094 -3.01553,-0.35133c-2.90687,2.93426 -3.80049,7.31723 -4.17128,11.29635c-1.41928,0.36218 -2.58425,-0.90201 -3.7631,-1.46817c-0.84373,0.83875 -2.27913,1.30894 -2.71712,2.41326c0.69108,4.03624 4.13102,7.24587 4.49434,11.37507c-1.42632,2.77055 -5.27934,2.95006 -8.05726,2.66864c-0.92588,-0.12983 -0.1659,1.10879 -0.5965,1.58067c-1.31575,1.74336 -3.79717,1.93862 -5.79681,2.26045c-3.82262,0.16113 -8.26783,0.42226 -11.33329,-2.17869c-0.63841,-3.20851 0.01326,-6.62215 -0.29829,-9.8569c-3.0717,-0.02907 -6.25572,-0.23789 -9.34982,-0.35136c-0.71484,2.21053 -0.63082,4.87421 -1.36982,7.15786c-2.5643,0.89873 -5.37663,1.25613 -8.05518,0.54306c-2.18563,-0.77429 -1.382,2.63122 -3.27043,2.7464c-4.62315,1.76191 -10.02026,1.97409 -14.49124,-0.34205c-1.78377,-1.59114 -0.78046,-4.15457 0.46884,-5.73314c1.94668,-3.72053 4.12563,-7.54492 5.46384,-11.41907c-5.89058,-4.00007 -8.96601,-10.97345 -9.82953,-17.82185c-10.75022,-0.64324 -22.9322,-6.52151 -26.18551,-17.55784c-0.29901,-0.9463 -0.40164,-2.49508 0.64426,-2.99922M171.66014,169.30065c-0.721,-0.05105 -0.36322,1.02323 -0.40514,1.49103c1.85115,6.82249 8.12751,10.86865 14.06801,13.82242c3.38147,1.28278 6.93624,2.41035 10.57997,2.50079c1.00875,0.08364 0.16172,-1.75189 1.27153,-1.59166c0.85276,1.28392 0.2688,2.90974 0.7326,4.31818c1.19031,5.67185 4.23992,11.1173 8.67074,14.89752c1.37737,-1.70186 1.46899,-4.14857 2.68431,-5.85011c1.26852,1.3868 -0.5735,3.84886 -1.03849,5.64113c-1.97643,5.18879 -4.05927,10.38173 -7.11033,15.06393c-0.54197,0.82325 -0.49152,1.98503 0.4838,2.49967c3.98519,1.95434 9.00212,2.391 13.02875,0.30976c2.53647,-7.04026 4.26701,-14.39573 5.19486,-21.81409c0.08303,-0.42108 1.05939,-0.70694 0.81072,0.19009c-0.03387,2.93954 -0.26412,5.90451 -0.99367,8.76276c5.24815,2.34464 11.22625,2.30327 16.92898,2.39486c0.69986,-0.07054 0.43966,-0.96734 0.53683,-1.43636c0.06169,-2.98801 0.22378,-6.05427 1.30515,-8.87284c0.62298,-0.34933 0.60844,0.71846 0.5616,1.08208c-0.80829,6.04916 -1.03061,12.16744 -0.93447,18.26828c0.10164,0.63066 -0.10618,1.41243 0.35564,1.92059c3.17571,1.97287 7.15337,1.78309 10.70942,1.31177c1.25447,-0.68311 3.92416,-0.22066 3.98071,-2.15549c-1.6297,-6.0282 -4.35785,-12.08487 -3.95623,-18.46189c-0.19777,-0.52637 0.60462,-0.95668 0.70332,-0.32477c0.3359,2.00395 0.38595,4.10888 1.25642,5.98659c3.08578,-1.326 6.72871,-2.40318 8.93812,-5.0275c-1.49939,-1.46136 -1.68856,-3.513 -1.6809,-5.49648c-2.73871,0.24898 -5.93946,-1.04726 -6.9996,-3.77558c-0.70816,-1.62697 -0.48973,-3.45748 -0.14125,-5.14014c-1.93035,-0.17521 -3.70088,-1.05398 -4.76491,-2.73824c-1.30809,-2.22894 0.00886,-4.81293 -0.00597,-7.02186c-3.40713,-2.38719 -3.51401,-7.81919 -1.06091,-10.92017c-3.61885,-1.98188 -4.04943,-7.4206 -1.22895,-10.26013c-0.22275,-0.95125 -0.74329,-2.07549 -1.29819,-2.94433c-4.80604,-1.82461 -10.08363,-2.18701 -15.19608,-1.92523c-8.50865,1.23575 -16.53839,5.55377 -22.37729,11.86038c-3.37668,3.67078 -5.27999,8.3469 -7.37947,12.77484c-0.11537,-2.55071 0.84173,-4.95486 1.78042,-7.20795c-8.74931,4.8382 -20.05412,3.66149 -28.00962,-2.13261M260.48101,137.1666c-2.34721,1.23207 -3.03434,3.86983 -3.46036,6.27269c-0.7562,1.29578 -2.03328,-0.76873 -3.14018,-0.64785c-3.00821,-0.649 -4.86796,3.0549 -3.94247,5.57633c0.27425,2.50297 -2.99347,1.41865 -4.09,3.14915c-1.5307,1.62522 -1.278,4.20729 -0.68561,6.18773c0.14478,0.65384 1.71936,0.89739 0.89322,1.61162c-3.30988,1.59386 -3.31644,6.67064 -0.30923,8.59603c0.30124,0.70129 2.94801,1.26423 1.15271,2.04684c-3.4442,2.55807 -1.68889,8.00496 1.68954,9.77706c-1.34001,1.73978 -1.77535,4.1172 -1.09344,6.25237c1.00934,1.85602 3.12914,2.48625 4.87996,3.3474c0.20743,1.96892 -0.83927,4.4361 0.84819,6.05844c1.22327,1.964 3.70166,2.33476 5.8277,2.20061c1.19456,0.25953 0.68808,1.72979 0.83096,2.59711c-0.02352,2.31789 2.08385,3.54453 3.21507,5.28335c0.20462,0.3526 1.01245,0.27376 0.83294,-0.25875c0.14945,-4.13624 1.4956,-8.3957 4.71195,-11.17442c0.74764,-0.3997 -1.08484,-1.24822 0.03806,-1.50151c2.15772,0.97989 4.06839,2.44126 6.28852,3.29139c4.97853,1.90516 10.6571,1.54178 15.51834,-0.54442c3.86614,-1.74699 6.33909,-5.4352 8.48801,-8.92581c0.35423,-0.43889 0.7013,-1.81419 -0.30874,-1.47718c-5.40847,0.04096 -10.49981,2.06633 -15.77675,2.94817c-4.26121,0.58596 -9.79191,-1.0319 -10.74958,-5.79842c-0.3245,-2.59117 -1.24305,1.48003 -2.23117,0.18131c-0.90389,-2.20493 1.66089,-4.16001 3.67413,-4.07112c1.01647,0.2145 0.10667,1.42504 -0.49008,1.54864c-0.76133,2.51823 1.42744,5.01852 3.55316,6.08196c4.60539,2.19541 9.58392,0.16307 14.15426,-1.01486c5.77025,-1.76171 12.28071,-1.91371 17.90343,0.19521c0.65363,-7.35884 -0.33266,-15.85534 -6.01827,-21.27166c-1.70377,-1.67625 -3.70245,-3.02651 -5.79697,-4.1348c-2.25165,0.50919 -5.10445,0.72024 -6.82423,-1.13043c-3.58053,-0.71905 -7.29354,-0.13465 -10.89951,-0.79563c-3.09074,0.60836 -6.86664,0.17585 -8.63074,-2.75376c-5.14126,-4.52123 -10.02075,-10.53055 -10.05258,-17.70505M278.77801,135.20093c-0.4674,0.02761 -0.47227,0.58925 -0.55912,0.92482c-1.12007,6.25444 -3.43812,12.25848 -6.40213,17.84425c0.30738,2.8739 4.62443,3.32879 6.75719,2.39518c1.69315,-6.22388 2.26021,-12.79083 1.3963,-19.19633c-0.18446,-0.71339 -0.26175,-1.85655 -1.1922,-1.96876M296.27821,148.22554c-1.67882,2.49279 -2.69184,6.0906 -4.83196,8.62915c-0.41058,1.34531 1.12733,1.42339 1.83563,2.08652c2.27847,0.33154 3.23739,-2.04012 3.55605,-3.86855c0.21029,-2.3899 1.16711,-5.13374 -0.55971,-6.84712M219.71541,211.13971c-1.30201,2.32814 -1.60978,5.79554 -2.51342,8.47282c2.53103,0.41599 5.22479,0.5508 7.73581,-0.00762c0.80546,-1.75466 0.62292,-3.75878 1.02931,-5.61809c0.04933,-0.44661 0.2854,-1.19527 -0.38049,-1.29628c-1.975,-0.44007 -3.89399,-1.12573 -5.87122,-1.55089M257.06802,208.39209c-1.86539,0.90709 -3.72534,2.02431 -5.67889,2.57375c0.47939,3.16739 1.56499,6.4911 2.72992,9.48616c2.49007,0.27677 5.31871,0.0622 7.40875,-1.55534c-0.04344,-0.63306 0.16161,-1.42931 -0.34471,-1.92347c-1.76714,-2.54479 -2.30526,-6.31606 -4.11512,-8.58099z" data-paper-data="{&quot;index&quot;:null}" fill="#451a3b"/><path d="M171.43849,169.33296c0.0593,-0.0254 0.13273,-0.03648 0.22286,-0.0301c7.9555,5.79411 19.26032,6.97082 28.00962,2.13261c-0.93869,2.2531 -1.89579,4.65724 -1.78026,7.20811c2.09949,-4.42795 4.0028,-9.10406 7.37947,-12.77484c5.8389,-6.30661 13.86848,-10.62479 22.37729,-11.86054c5.11246,-0.26178 10.39036,0.10069 15.19624,1.92523c0.55489,0.86883 1.0754,1.99291 1.29815,2.94433c-2.82048,2.83953 -2.39006,8.27857 1.22884,10.26045c-2.4531,3.10099 -2.34605,8.53299 1.06093,10.92017c0.01485,2.20894 -1.30217,4.79293 0.00592,7.02186c1.06402,1.68426 2.83456,2.56303 4.76491,2.73824c-0.34848,1.68266 -0.56693,3.513 0.14124,5.13998c1.06014,2.72832 4.26088,4.02471 6.99976,3.77574c-0.00766,1.98347 0.18157,4.03511 1.6809,5.49648c-2.20941,2.62432 -5.8525,3.70134 -8.93828,5.0275c-0.87047,-1.87771 -0.92029,-3.98247 -1.2562,-5.98659c-0.09869,-0.63191 -0.90115,-0.20152 -0.70338,0.32485c-0.40162,6.37702 2.32654,12.43337 3.95623,18.46029c-0.05655,1.93484 -2.7264,1.47244 -3.98087,2.15565c-3.55605,0.47132 -7.5334,0.6612 -10.70926,-1.31165c-0.46182,-0.50815 -0.25395,-1.28994 -0.35559,-1.92059c-0.09615,-6.10084 0.126,-12.21912 0.93429,-18.26828c0.04685,-0.36362 0.06152,-1.43146 -0.56147,-1.08214c-1.08138,2.81856 -1.24364,5.88498 -1.30531,8.873c-0.09717,0.46902 0.16313,1.36568 -0.53673,1.43621c-5.70273,-0.09158 -11.681,-0.05017 -16.92898,-2.3947c0.72956,-2.85825 0.9599,-5.82323 0.99377,-8.7626c0.24867,-0.89703 -0.72764,-0.61119 -0.81067,-0.19011c-0.92785,7.41836 -2.65855,14.77383 -5.19486,21.81409c-4.02663,2.08124 -9.04356,1.64457 -13.02875,-0.30983c-0.97532,-0.51464 -1.02577,-1.67642 -0.48379,-2.49983c3.05106,-4.6822 5.1339,-9.87514 7.11033,-15.06393c0.46498,-1.79226 2.30685,-4.25417 1.03841,-5.64097c-1.21531,1.70154 -1.30698,4.14825 -2.68431,5.85011c-4.43082,-3.78022 -7.48027,-9.22566 -8.67042,-14.89752c-0.4638,-1.40844 0.12012,-3.03426 -0.73265,-4.31834c-1.10981,-0.16024 -0.26289,1.6753 -1.27164,1.59166c-3.64373,-0.09044 -7.19849,-1.21806 -10.57997,-2.50079c-5.9405,-2.95378 -12.21686,-6.99978 -14.06801,-13.82226c0.03668,-0.40934 -0.23276,-1.28313 0.18235,-1.46095zM225.41282,157.49864c-2.79904,1.229 -4.61627,4.0924 -4.97197,7.0889c0.39786,3.07538 1.54281,6.5199 4.66075,7.81006c4.44985,2.2835 11.02863,-0.43838 11.69347,-5.58865c1.14491,-3.44213 -1.25742,-7.26379 -3.98839,-9.23191c-1.97355,-0.46508 -4.15512,-1.15754 -6.13555,-0.50065c-0.43855,0.10449 -0.85846,0.24659 -1.25834,0.42217zM210.66237,167.38772c-3.65285,1.52586 -4.97996,6.84408 -1.78522,9.72201c3.2077,3.04322 8.92883,1.11556 9.93225,-3.07762c0.03918,-2.20093 -0.42534,-4.86941 -2.37534,-6.17957c-1.36134,-0.53264 -2.85169,-1.04083 -4.32473,-0.84367c-0.51468,0.06146 -0.99836,0.19153 -1.44696,0.37892zM222.94148,176.84762c-2.98369,1.20465 -3.10882,5.99844 -0.10502,7.40172c2.54991,1.27064 6.04547,-0.6561 5.89986,-3.60341c0.25179,-2.56815 -2.55247,-4.70172 -4.97485,-4.02296c-0.29375,0.04629 -0.56711,0.12252 -0.81997,0.22461zM233.90884,175.68407c-1.21545,0.4925 -2.11581,1.90892 -1.38506,3.16179c0.50102,1.56318 2.6512,1.95707 3.77254,0.82075c1.71753,-1.37824 0.09884,-4.62507 -2.00156,-4.10456c-0.13102,0.02997 -0.26027,0.07115 -0.38601,0.1221zM219.7069,211.14217c1.97724,0.42516 3.89639,1.11077 5.87138,1.55086c0.6659,0.10101 0.42985,0.8496 0.38052,1.29622c-0.40639,1.85931 -0.22382,3.86327 -1.02929,5.61793c-2.51103,0.55841 -5.20462,0.42365 -7.73581,0.00766c0.90362,-2.67728 1.21123,-6.14452 2.51326,-8.47266zM257.06264,208.3964c1.80987,2.26494 2.34798,6.0362 4.11496,8.58099c0.50632,0.49415 0.30135,1.29022 0.34479,1.92331c-2.09004,1.61754 -4.91869,1.83227 -7.40891,1.55555c-1.16493,-2.99506 -2.25053,-6.31893 -2.73008,-9.48632c1.95356,-0.54944 3.81382,-1.66666 5.67921,-2.57359z" data-paper-data="{&quot;index&quot;:null}" fill="#826875"/><path d="M260.47412,137.17038c0.03184,7.17483 4.91148,13.18414 10.05258,17.70505c1.76426,2.92966 5.54,3.3622 8.63074,2.75376c3.60597,0.66099 7.31898,0.07658 10.89951,0.79563c1.71978,1.85062 4.57258,1.63956 6.82423,1.13043c2.09452,1.10838 4.09319,2.45854 5.79697,4.1348c5.68609,5.41472 6.67244,13.91123 6.01843,21.27006c-5.6224,-2.10892 -12.13286,-1.95691 -17.90343,-0.19681c-4.57035,1.17791 -9.54887,3.21019 -14.15426,1.01486c-2.1258,-1.06342 -4.3146,-3.56373 -3.55316,-6.08196c0.59676,-0.12361 1.50655,-1.33415 0.49008,-1.54864c-2.01323,-0.08897 -4.57791,1.86619 -3.67413,4.07112c0.98809,1.29871 1.90658,-2.77234 2.23117,-0.18131c0.95766,4.76657 6.48821,6.38442 10.74958,5.79842c5.27694,-0.88181 10.36844,-2.9072 15.77675,-2.94817c1.01003,-0.33701 0.66295,1.03829 0.30874,1.47718c-2.14892,3.49061 -4.62203,7.17883 -8.48801,8.92581c-4.86125,2.08621 -10.53981,2.44965 -15.51834,0.54442c-2.22013,-0.85013 -4.1308,-2.31146 -6.28852,-3.29139c-1.12289,0.25329 0.70958,1.10181 -0.03806,1.50151c-3.21631,2.77872 -4.56243,7.03802 -4.71195,11.17442c0.1795,0.53251 -0.62832,0.61135 -0.83294,0.25875c-1.13127,-1.73882 -3.23857,-2.96545 -3.21507,-5.28335c-0.14287,-0.86725 0.3636,-2.33754 -0.83096,-2.59711c-2.12605,0.13425 -4.60443,-0.23649 -5.8277,-2.20061c-1.68744,-1.62234 -0.64075,-4.08952 -0.84819,-6.05844c-1.75082,-0.86117 -3.87069,-1.49129 -4.87996,-3.3474c-0.68186,-2.13533 -0.24657,-4.51259 1.09344,-6.25237c-3.37828,-1.77195 -5.13374,-7.21883 -1.68954,-9.77706c1.7953,-0.78262 -0.85148,-1.34555 -1.15271,-2.04684c-3.00712,-1.9254 -3.00072,-7.00221 0.30923,-8.59603c0.82608,-0.71424 -0.74845,-0.95777 -0.89322,-1.61162c-0.59238,-1.98044 -0.84509,-4.56251 0.68561,-6.18773c1.09655,-1.73043 4.36434,-0.64612 4.09,-3.14915c-0.92549,-2.52159 0.93414,-6.22539 3.94247,-5.57633c1.10694,-0.12088 2.38401,1.94365 3.14018,0.64785c0.42594,-2.40302 1.11302,-5.04075 3.46036,-6.27269M272.89084,160.46136c-2.8,0.52291 -4.79654,3.57125 -4.22456,6.33957c0.35378,3.02994 3.56036,5.52988 6.59462,4.66172c3.8597,-0.40211 5.95971,-5.4176 3.7639,-8.54771c-1.03398,-2.26023 -3.87286,-3.04175 -6.13395,-2.45359z" data-paper-data="{&quot;index&quot;:null}" fill="#b6a1a9"/><path d="M273.86712,167.65108c-1.91945,0.23314 -1.77561,-3.32734 0.0461,-3.28643c2.07226,-0.56932 2.11018,3.85562 -0.0461,3.28643z" data-paper-data="{&quot;index&quot;:null}" fill="#0b0906"/></g></g></svg>