<svg height="90.916" width="140pt" viewBox="0 0 140.005 68.188" xmlns="http://www.w3.org/2000/svg"><path d="M75.518-.007c-.878-.004-1.814.344-2.516.81-3.43 1.909-5.697 6.295-4.587 10.105-1.257.34-2.828.453-4.036.707-.236-3.797-3.714-6.49-7.287-6.892-1.281-.137-2.476.883-2.737 2.109-1.57 2.697-1.248 6.426.663 8.9 2.775 1.599-1.882 3.06-2.516 4.585-1.41-2.72-4.795-4.297-7.797-3.342-2.975 2.713-1.382 8.536 2.371 9.8-.325 1.198-1.684 2.194-2.263 3.444-1.255-2.235-4.368-3.704-6.732-2.36-.991 2.08-1.066 5.527 1.471 6.534.495.08-.049.853-.404.644-3.012 1.092-6.612.12-8.763-2.224-2.239-2.105-3.248-5.065-4.442-7.811-.965-1.426 1.669-1.47 1.803-2.784.789-1.611-1.087-2.58-2.441-2.472-1.607.285-1.737-1.704-2.126-2.776.346-.977 2.126-1.064 1.853-2.384.184-2.115-2.38-2.357-3.88-2.06-1.865-1.532-.269-3.313-.358-5.198-.617-1.724-2.746-1.035-3.943-.344-.955-.285-1.913-.809-2.73-1.326-.124-1.342.32-3.496-1.54-3.81-1.597.294-2.142 2.164-3.177 3.164-2.624.317-5.115 1.649-6.775 3.724-.11.138-.218.28-.32.425-1.88 2.926-2.754 6.532-2.086 9.97.918 1.457 2.709 1.812 4.3 1.707 2.786 1.856 6.6 2.904 9.763 1.36.428-.067.978-.59 1.34-.172.885 8.468 3.19 17.128 8.366 24.045 4.991 6.022 12.719 8.74 20.073 10.625.293 1.865-1.053 3.893-.516 5.83.693 2.079 3.188 2.16 4.97 2.456.223 4.277 5.777 3.258 8.599 2.59 2.006-2.488 3.12-5.56 4.538-8.397.42-.818.437-2.372 1.686-2.3 4.444-.115 8.846-.964 13.29-.93.957 1.785 1.298 3.834 2.228 5.64.838 2.694 4.248 3.788 6.733 2.786.91-.358 1.006.927 1.384 1.427 1.271 2.747 4.887 2.377 7.361 2.034 1.134-.36 3.294-1.044 2.658-2.629-.864-2.824-1.284-5.745-2.012-8.6-.052-.26-.076-.586.191-.74 7.655-.12 15.377.61 22.991-.556 6.874-1.123 13.66-3.658 18.957-8.31 1.257-.929 3.436-2.362 2.748-4.175-1.673-1.375-3.978.179-5.793.295-.75-1.36-1.623-3.744-3.651-3.263-1.312 1.075-1.05 2.71-1.365 4.144-.919.835-2.482.605-3.517.171.21-1.913-.735-4.082-2.505-4.923-2.115.32-3.79 2.433-3.75 4.599-.828 1.439-3.003.03-4.137-.244 1.104-2.114.978-5.727-1.543-6.796-2.485-.251-4.644 1.695-5.216 4.01-1.437-.54-2.865-2.106-3.996-3.168 2.576-1.483 4.787-5.472 2.712-8.248-2.584-1.081-6.177-.141-7.575 2.399-1.007-.909-1.647-2.3-2.513-3.338 3.643-.48 5.69-5.825 2.993-8.41-2.676-.752-6.096.103-7.298 2.86-.834-.775-1.536-1.697-2.23-2.596 3.55-1.263 4.17-5.868 2.988-8.99-.467-1.81-2.565-2.903-4.298-2.114-3.078.06-4.965 2.988-5.47 5.733-1.553-.69-3.318-1.612-4.74-2.414C81.88 9.055 80.32 3.964 77.506.99c-.487-.714-1.217-.992-1.99-.996zm9.268 15.254zm9.13 8.574z" fill="#0f6f9f"/><path d="M3.27 9.427a9.794 9.794 0 00-1.072 1.656C1.414 13.6.481 16.328 1.171 18.958c1.18 1.774 3.116.595 4.714 1.02 3.333-.716 6.685-1.915 8.991-4.554-.332-.446-1.049.155-1.232-.408.65-1.3 2.663-.91 3.343.116.114.739-.713.598-1.154.413-2.29 3.19-6.222 4.592-9.807 5.293 3.11 1.692 7.094 1.62 10.171-.136 1.344 9.269 3.172 19.439 9.965 26.506 6.392 6.024 15.255 8.352 23.776 9.232 1.268-4.79 1.334-10.135 3.65-14.697.244-.242 1.33-2.274 1.418-1.231-1.748 2.749-2.42 6.035-2.565 9.238-.263 1.454-1.015 2.904-.794 4.384-.51 3.959-1.448 7.858-1.943 11.798 1.732 1.61 4.328 1.416 6.424.916 2.142-1.7 2.823-4.49 4.043-6.813 2.514-6.22 5.274-13.647 2.412-20.27.472-.78 1.221.404 1.28.986 1.176 2.048.676 4.467.772 6.732.255 3.026-1.527 6.183-1.362 8.858 5.916-.835 11.855-1.395 17.823-1.523.376.02 1.212.32 1.092-.35-1.27-4.023-2.949-8.598-.962-12.67 1.028.792-.474 2.112-.104 3.158.297 4.998 2.248 9.819 3.734 14.463 1.94 2.372 1.735 6.529 5.29 7.38 1.941.217 4.103.068 5.861-.775.084-2.254-1.57-4.34-1.404-6.687-1.718-6.306-1.523-13.068-4.658-18.926 1.926.77 2.28 3.95 3.018 5.92.919 2.708 1.241 5.591 1.894 8.31 4.794.446 9.63.463 14.45.427 3.632.404 7.097-.866 10.696-1.045 3.897-1.097 8.064-2.001 11.493-4.3 2.715-1.691 5.696-3.232 7.427-6.048-.176-.286-.47-.708-.832-.537-2.79.512-5.337 1.996-8.21 2.109-1.948.08-3.867.343-5.782.634-4.36.256-8.816-.817-12.779-2.493-9.08-3.237-13.289-12.398-18.964-19.414-4.55-5.067-10.16-9.621-16.859-11.331-3.206-.623-6.515-.707-9.745-.144-9.603 2.967-15.444 11.897-21.322 19.377-2.272 3.295-6.443 5.334-10.421 4.223-4.073-1.01-6.472-4.634-7.978-8.23-.315-2.297-1.868-4.21-2.225-6.5-2.17-5.678-4.121-12.383-10.212-15.098-.937-.413-1.931.072-2.9-.21-2.87-.34-5.63 1.135-7.419 3.37zm4.25-.877c1.39-1.697 4.183-2.328 5.843-.647 2.502 1.67 1.671 6.125-1.251 6.81-3.368 1.244-6.667-2.916-4.722-5.996.042-.057.085-.113.13-.167zm51.55 9.114c1.736-2.095 5.832-.59 5.476 2.356-.104 2.07-2.824 3.741-4.589 2.377-1.487-.61-1.906-2.412-1.406-3.793.13-.37.307-.682.52-.94zm-4.35 5.699c.868-1.152 2.862-.723 3.45.584.598 1.336-.706 2.883-2.063 2.857-1.334-.15-2.39-1.835-1.618-3.032.063-.154.14-.29.23-.41zm-.023 8.126c.539-.636 1.676-.647 2.244.002.916.973-.081 2.807-1.369 2.62-.865-.251-1.639-1.335-1.106-2.205.052-.16.131-.3.23-.417zm6.73-6.29c1.296-1.679 4.197-1.818 5.547-.12 1.737 1.86.688 5.464-1.925 5.838-2.841.766-5.35-2.604-3.97-5.148.096-.206.213-.396.347-.57zm7.074-8.543c2.164-2.684 7.053-2.172 8.43 1.111 2.05 3.24-1.149 7.762-4.812 7.434-3.678-.052-6.25-4.713-4.105-7.793.14-.274.304-.524.487-.752zM45.208 57.145c-.127 2.06-2.004 4.96.637 6.137.693.58 2.907 1.457 3.053-.003.29-1.952.933-3.887.838-5.872-1.493.057-3.356-1.043-4.528-.262zM68.86 31.95c.934-1.193 3.375.17 2.54 1.671-.59 2.031-3.806.512-2.776-1.216.059-.181.139-.332.236-.455zm4.944-4.93c1.192-1.617 4.158-1.577 5.057.333 1.431 1.969-.454 5.027-2.856 4.703-2.032-.153-3.686-2.65-2.51-4.482.081-.203.186-.387.309-.555zm7.042-4.676c1.59-2.108 5.072-2.19 6.663.087 2.154 2.58-.344 7.09-3.632 6.526-2.802-.247-4.404-3.395-3.46-5.894.12-.261.264-.501.429-.72zm4.373 9.68c.544-.662 1.634-.802 2.353-.327.886.771.558 2.555-.64 2.812-1.238.334-2.458-1.221-1.814-2.346.03-.05.064-.096.1-.14zm4.165-3.724c1.452-1.874 4.9.582 3.128 2.521-1.2 2.362-5.063-.392-3.262-2.326a2.12 2.12 0 01.134-.195zM77.823 56.053a39.283 39.283 0 001.97 5.13c.646 2.199 3.966 3.281 5.795 2.01-1.322-2.303-2.137-4.844-3.09-7.287-1.455-.276-3.357-.17-4.675.147z" fill="#cddac4"/><path fill="#3e526d" d="M2.31 9.162c1.65-2.317 4.298-3.81 7.096-4.148 1.035-1 1.58-2.87 3.178-3.165 1.86.314 1.416 2.469 1.54 3.81.817.518 1.774 1.042 2.728 1.327 1.198-.691 3.328-1.38 3.944.344.09 1.885-1.506 3.666.36 5.198 1.499-.297 4.062-.055 3.875 2.058.274 1.32-1.506 1.408-1.852 2.385.389 1.071.518 3.06 2.125 2.775 1.354-.108 3.23.86 2.441 2.472-.134 1.314-2.768 1.358-1.803 2.784 1.194 2.746 2.204 5.706 4.442 7.81 2.151 2.345 5.751 3.317 8.763 2.225.356.209.9-.565.405-.644-2.538-1.007-2.463-4.454-1.472-6.534 2.364-1.344 5.477.124 6.733 2.36.578-1.25 1.938-2.246 2.263-3.444-3.753-1.264-5.346-7.087-2.371-9.8 3.001-.955 6.387.622 7.797 3.342.634-1.525 5.29-2.986 2.515-4.586-1.91-2.473-2.233-6.202-.663-8.9.262-1.225 1.456-2.245 2.737-2.107 3.573.402 7.051 3.094 7.288 6.89 1.208-.253 2.778-.365 4.035-.706-1.11-3.81 1.158-8.196 4.587-10.105 1.322-.878 3.47-1.337 4.507.187 2.815 2.974 4.372 8.065 1.46 11.54 1.422.801 3.187 1.724 4.74 2.413.505-2.745 2.393-5.673 5.47-5.733 1.733-.789 3.83.305 4.3 2.116 1.182 3.122.563 7.727-2.988 8.99.694.898 1.396 1.82 2.23 2.595 1.202-2.757 4.623-3.61 7.298-2.86 2.698 2.585.65 7.93-2.993 8.41.866 1.04 1.506 2.43 2.513 3.339 1.399-2.54 4.992-3.48 7.575-2.4 2.075 2.777-.136 6.765-2.712 8.25 1.131 1.061 2.56 2.627 3.996 3.166.573-2.314 2.731-4.26 5.217-4.009 2.52 1.069 2.646 4.682 1.543 6.796 1.133.274 3.308 1.682 4.137.243-.041-2.166 1.635-4.28 3.75-4.599 1.77.842 2.714 3.01 2.504 4.923 1.035.435 2.6.664 3.517-.17.316-1.434.053-3.07 1.365-4.145 2.029-.481 2.902 1.904 3.652 3.263 1.814-.116 4.12-1.67 5.792-.295.688 1.813-1.49 3.246-2.748 4.174-5.297 4.654-12.083 7.188-18.957 8.312-7.614 1.165-15.336.435-22.99.555-.268.154-.244.48-.192.74.728 2.856 1.148 5.776 2.012 8.6.636 1.585-1.524 2.27-2.658 2.63-2.474.342-6.09.712-7.36-2.035-.379-.5-.474-1.785-1.385-1.426-2.486 1.001-5.895-.094-6.732-2.787-.931-1.806-1.272-3.855-2.228-5.64-4.445-.034-8.847.815-13.291.93-1.25-.072-1.267 1.482-1.686 2.3-1.418 2.838-2.532 5.909-4.538 8.398-2.822.667-8.376 1.686-8.598-2.59-1.783-.297-4.278-.378-4.972-2.458-.536-1.936.81-3.964.517-5.829-7.354-1.885-15.083-4.603-20.073-10.625-5.177-6.917-7.48-15.576-8.367-24.045-.36-.418-.911.105-1.34.173-3.162 1.543-6.976.495-9.762-1.36-1.591.104-3.382-.251-4.3-1.708-.668-3.438.207-7.044 2.085-9.97m-.113 1.92C1.414 13.6.482 16.328 1.171 18.957c1.18 1.775 3.116.595 4.714 1.02 3.333-.716 6.686-1.914 8.991-4.554-.332-.446-1.048.155-1.231-.408.65-1.3 2.662-.91 3.343.116.113.74-.714.599-1.154.413-2.291 3.19-6.223 4.592-9.808 5.293 3.11 1.693 7.095 1.62 10.172-.136 1.344 9.27 3.17 19.439 9.965 26.507 6.391 6.023 15.254 8.351 23.775 9.23 1.268-4.788 1.335-10.134 3.65-14.696.245-.242 1.331-2.274 1.418-1.231-1.748 2.75-2.42 6.035-2.564 9.238-.264 1.454-1.016 2.904-.795 4.385-.51 3.958-1.447 7.857-1.942 11.798 1.731 1.609 4.328 1.415 6.423.915 2.142-1.7 2.823-4.49 4.043-6.813 2.515-6.22 5.274-13.647 2.412-20.27.473-.78 1.221.404 1.28.986 1.176 2.049.676 4.467.773 6.732.254 3.026-1.527 6.183-1.363 8.858 5.916-.835 11.856-1.395 17.825-1.523.376.02 1.212.32 1.092-.35-1.27-4.023-2.95-8.598-.962-12.67 1.028.792-.474 2.112-.104 3.158.296 4.998 2.248 9.819 3.733 14.463 1.94 2.372 1.736 6.529 5.29 7.381 1.942.217 4.104.067 5.862-.776.083-2.254-1.57-4.34-1.404-6.687-1.719-6.305-1.524-13.068-4.658-18.926 1.926.77 2.28 3.95 3.018 5.92.918 2.709 1.241 5.592 1.894 8.31 4.794.447 9.63.464 14.449.427 3.632.405 7.096-.866 10.695-1.045 3.897-1.096 8.065-2 11.494-4.3 2.714-1.69 5.695-3.232 7.426-6.048-.176-.286-.47-.707-.832-.537-2.79.512-5.337 1.996-8.209 2.11-1.949.078-3.868.343-5.783.633-4.36.256-8.816-.817-12.778-2.493-9.08-3.232-13.29-12.394-18.964-19.41-4.55-5.067-10.16-9.62-16.859-11.33-3.206-.623-6.515-.707-9.745-.145C56.15 15.47 50.309 24.4 44.43 31.88c-2.271 3.295-6.442 5.334-10.42 4.222-4.074-1.009-6.473-4.633-7.979-8.228-.314-2.298-1.868-4.211-2.225-6.501-2.169-5.678-4.12-12.384-10.212-15.099-.936-.413-1.93.072-2.9-.209-3.533-.418-6.898 1.912-8.49 5.025m8.602-6.452c.092.926 1.825.395 2.51.591.45-.81.182-2.137-.788-2.429-.855.232-1.196 1.223-1.722 1.838m6.93 2.663c-.374 1.012 1.736 3.005 2.283 1.63.79-1.465-1.131-2.782-2.284-1.63m3.9 6.102c.222 1.038.974 3.544 2.179 2.112 1.531-1.315-1.018-3.216-2.178-2.112m2.916 7.274c-.03.924.783 3.37 1.927 2.082 1.58-1.205-.746-3.009-1.927-2.082m20.004-2.068c-.524 2.067-.194 4.565 1.215 6.228 2.648 2.748 4.028-2.197 5.602-3.598-.3-2.82-4.85-4.6-6.817-2.63M55.429 6.631c-1.378 2.852-1.62 7.438 1.526 9.205 2.01-1.315 4.072-2.65 6.075-3.984.5-3.453-3.116-5.629-6.028-6.246-.621.13-1.253.45-1.573 1.025M38.782 28.826c-.638 1.629-.302 3.92 1.27 4.852 1.49.66 2.469-1.239 3.34-2.09 1.14-2.292-3.064-4.366-4.61-2.762M71.316 3.557c-1.45 2.016-2.953 4.87-1.79 7.318 2.811.201 5.602.608 8.326 1.261 2.912-3.05 1.635-8.36-1.543-10.785-1.911-.784-3.88.766-4.993 2.206M45.213 57.152c-.127 2.06-2.003 4.959.638 6.137.693.58 2.907 1.457 3.053-.003.29-1.952.933-3.887.838-5.872-1.493.057-3.357-1.042-4.529-.262m41.082-45.333c-.714 1.072-1.9 2.45-1.409 3.82 1.729 1.243 3.369 2.752 5.206 3.804 3.202-1.32 3.217-5.544 2.09-8.275-1.439-1.946-4.55-.965-5.887.651m7.643 11.437c-.312 1.542 1.656 2.939 2.614 4.11 2.972.02 4.343-3.92 3.055-6.203-2.007-.7-4.734.039-5.67 2.093M77.83 56.06a39.287 39.287 0 001.97 5.13c.646 2.2 3.965 3.282 5.795 2.01-1.322-2.302-2.138-4.844-3.091-7.287-1.455-.276-3.357-.169-4.674.147m23.038-24.252c-1.018 1.63.988 2.715 1.771 3.871 1.134 1.83 3.058-.033 3.54-1.33.534-1.153 1.405-3.262.094-4.178-1.913-.501-4.1.148-5.405 1.637m9.29 7.603c-1.731 2.379 1.688 3.51 3.492 3.68 1.801-.668 1.422-3.225.65-4.557-.874-2.021-3.344-.287-4.142.877m10.632 2.241c-.335.763-1.306 1.872-.541 2.626 1.229.337 2.57.285 3.822.073.838-1.148.211-2.876-.663-3.856-.989-.834-2.019.426-2.618 1.157m9.562-.207c-.178.695-.604 1.587-.204 2.26.808.433 1.902-.01 2.533-.564.28-1.062-1.502-3.02-2.329-1.696z"/><path fill="#f1f6eb" d="M7.39 8.717c1.34-1.821 4.26-2.55 5.973-.814 2.502 1.67 1.671 6.125-1.251 6.81-3.368 1.244-6.667-2.916-4.722-5.996m2.447 1.858c-.177 1.047 1.02 1.75 1.78.851.99-1.352-1.39-2.28-1.78-.851z"/><path fill="#0d0d0c" d="M9.837 10.575c.39-1.429 2.77-.501 1.78.851-.76.898-1.957.196-1.78-.851z"/><path fill="#458bc9" d="M59.071 17.664c-.213.258-.39.57-.52.94-.499 1.381-.08 3.183 1.407 3.793 1.765 1.364 4.485-.306 4.589-2.377.356-2.946-3.74-4.451-5.476-2.355zm-4.351 5.699c-.09.12-.168.255-.23.41-.772 1.196.283 2.882 1.617 3.031 1.357.026 2.661-1.521 2.063-2.857-.587-1.307-2.582-1.737-3.45-.584zm-.023 8.126c-.1.118-.179.257-.23.417-.533.87.24 1.954 1.106 2.205 1.288.187 2.284-1.647 1.369-2.62-.569-.649-1.706-.637-2.245-.002zm6.73-6.29a3.025 3.025 0 00-.348.57c-1.38 2.544 1.13 5.914 3.97 5.148 2.613-.374 3.662-3.977 1.926-5.839-1.35-1.697-4.251-1.558-5.548.121zm7.075-8.543a4.385 4.385 0 00-.488.752c-2.145 3.08.427 7.741 4.105 7.793 3.664.328 6.863-4.194 4.812-7.434-1.376-3.283-6.266-3.795-8.43-1.11zm.359 15.294a1.472 1.472 0 00-.236.455c-1.03 1.728 2.186 3.248 2.775 1.216.836-1.501-1.605-2.864-2.54-1.671zm4.944-4.93a2.495 2.495 0 00-.309.554c-1.176 1.833.478 4.329 2.51 4.482 2.402.323 4.287-2.734 2.856-4.703-.898-1.91-3.864-1.95-5.057-.334zm7.042-4.676a3.878 3.878 0 00-.429.719c-.943 2.499.658 5.647 3.46 5.895 3.288.564 5.786-3.946 3.633-6.527-1.592-2.277-5.074-2.195-6.664-.087zm4.373 9.68c-.036.043-.07.09-.101.138-.644 1.126.577 2.68 1.814 2.347 1.198-.257 1.526-2.04.64-2.812-.719-.475-1.809-.335-2.353.326zm4.165-3.724c-.047.06-.091.126-.134.195-1.8 1.934 2.062 4.688 3.262 2.326 1.773-1.939-1.675-4.395-3.128-2.52z"/></svg>