<svg width="77.455" height="140" xmlns="http://www.w3.org/2000/svg"><defs><filter id="prefix__c" color-interpolation-filters="sRGB" x="-.113" y="-.071" width="1.225" height="1.141"><feGaussianBlur stdDeviation="2.617"/></filter><filter id="prefix__i" height="1.623" width="1.272" color-interpolation-filters="sRGB" y="-.312" x="-.136"><feGaussianBlur stdDeviation="2.43"/></filter><filter id="prefix__h" height="1.917" width="1.258" color-interpolation-filters="sRGB" y="-.459" x="-.129"><feGaussianBlur stdDeviation="2.43"/></filter><filter id="prefix__g" height="2.175" width="1.214" color-interpolation-filters="sRGB" y="-.587" x="-.107"><feGaussianBlur stdDeviation="2.43"/></filter><filter id="prefix__f" height="2.218" width="1.241" color-interpolation-filters="sRGB" y="-.609" x="-.12"><feGaussianBlur stdDeviation="2.43"/></filter><filter id="prefix__e" height="2.884" width="1.268" color-interpolation-filters="sRGB" y="-.941" x="-.134"><feGaussianBlur stdDeviation="2.43"/></filter><filter id="prefix__m" height="2.619" width="1.205" color-interpolation-filters="sRGB" y="-.806" x="-.103"><feGaussianBlur stdDeviation="2.408"/></filter><filter id="prefix__l" height="2.42" width="1.216" color-interpolation-filters="sRGB" y="-.707" x="-.108"><feGaussianBlur stdDeviation="2.408"/></filter><filter id="prefix__k" height="2.795" width="1.276" color-interpolation-filters="sRGB" y="-.897" x="-.138"><feGaussianBlur stdDeviation="2.408"/></filter><filter id="prefix__j" height="2.15" width="1.257" color-interpolation-filters="sRGB" y="-.575" x="-.128"><feGaussianBlur stdDeviation="2.408"/></filter><filter id="prefix__q" height="2.724" width="1.181" color-interpolation-filters="sRGB" y="-.862" x="-.09"><feGaussianBlur stdDeviation="2.037"/></filter><filter id="prefix__p" height="2.841" width="1.239" color-interpolation-filters="sRGB" y="-.92" x="-.12"><feGaussianBlur stdDeviation="2.037"/></filter><filter id="prefix__o" height="2.405" width="1.26" color-interpolation-filters="sRGB" y="-.701" x="-.13"><feGaussianBlur stdDeviation="2.037"/></filter><filter id="prefix__n" height="2.564" width="1.205" color-interpolation-filters="sRGB" y="-.782" x="-.102"><feGaussianBlur stdDeviation="2.037"/></filter><filter id="prefix__d" color-interpolation-filters="sRGB" x="-.084" y="-.073" width="1.168" height="1.145"><feGaussianBlur stdDeviation="1.715"/></filter><filter id="prefix__b" color-interpolation-filters="sRGB" x="-.03" y="-.012" width="1.06" height="1.025"><feGaussianBlur stdDeviation="3.567"/></filter><filter id="prefix__r" height="1.211" width="1.247" color-interpolation-filters="sRGB" y="-.105" x="-.123"><feGaussianBlur stdDeviation="1.45"/></filter><radialGradient id="prefix__a" gradientUnits="userSpaceOnUse" cy="648.51" cx="344.35" gradientTransform="matrix(.12442 -.03878 .07767 .24919 -56.838 -75.867)" r="290.47"><stop offset="0" stop-color="#fff"/><stop offset="1" stop-color="#50adcb"/></radialGradient></defs><path d="M.457 33.662c3.4 2.706 2.932 3.735 2.334 5.357 7.183-3.956 14.967-9.83 22.362-10.171 6.77.112 12.416 3.142 22.404-5.114 1.97-8.177-.935-10.553-3.653-13.15 2.668-2.597 5.586-1.91 9.596-1.376.584.374 2.642 2.548.389 2.106 1.011.537 2.718 1.371 0 1.948 2.801-.278 2.941 1.326 1.045 1.847 1.207.558 4.188.673 1.146 2.293 1.338.742 2.611 1.516-.086 1.805 1.045.65 2.743 1.3.502 1.948 1.648.382 2.94 1.118.802 1.604 1.15.824.911 1.34 0 1.705-2.598.773-5.195 1.25-7.793-.244-1.805-.575-2.48.206-3.165.974-4.685 3.853-5.768 7.82-7.163 10.142-1.393 2.464-2.584 4.928-3.065 7.392-1.012 2.493-2.696 4.85-2.679 7.55-.807 1.964-.83 3.341-.73 4.626-1.663 4.24.095 6.77.486 9.984.288 2.484-1.166 3.034 2.923 9.741-.568 4.757 3.955 7.477 7.792 10.471 2.203 1.372 4.465 2.696 7.793 3.166.947.785 1.182 1.926 1.218 3.166-.568 2.273-.333 4.546.243 6.819-.508.709-1.504.931-.73 2.922-.74 1.351-.882 2.802-.244 4.383-1.394.03-1.408 2.362-1.461 4.627-2.09.51-1.243 2.856-1.705 4.384-1.187.767-1.142 1.946-.974 3.165-2.676.676-2.15 2.336-1.948 3.897-2.403.243-2.247 1.553-1.948 2.922-1.548-.183-1.966.538-1.218 2.192-.98-1.08-1.656-.945-1.948.73-.811-.134-1.623-1.08-2.435.244-1.193-.887-2.2-.461-3.166.243-1.12-.727-2.028-.4-2.922 0-3.258.166-3.786-.488-4.87-.974-3.494-2.374-2.866-4.406-3.897-6.575-.745-3.281.204-4.529.487-6.575 1.597-2.84 3.305-5.012 5.358-5.114 3.494-1.776 4.41-.261 5.357.244 3.492 1.932 3.176 3.102 4.627 4.626 1.864 1.051.78-2.455.244-5.114-.448-1.615-2.095-2.99-3.653-4.383-5.365-2.009-6.331.014-9.254.244-6.194 2.976-6.36 5.975-7.193 7.564-.602 2.096-1.8 5.254-1.746 7.792-.55 3.684.627 6.984 2.12 10.213 2.435 4.033 5.701 6.412 9.512 7.92 5.207 3.104 9.393.938 10.7.604 4.293-.273 5.88-2.913 8.524-4.627 2.656.793 2.164-1.038 2.192-2.435 2.38-.525 2.275-1.727 2.191-2.923.977-.565 2.685-.4 2.192-2.435 1.746-.18 1.757-1.901 1.461-3.896 1.683-.689 2.573-1.818 2.192-3.653 2.165-1.268 1.989-2.098.487-2.679 1.206-.63 2.506-1.197 1.704-3.166 1.82-1.646 1.925-2.95 1.462-4.14.427-1.274 1.748-2.038.73-4.14 1.776-.969 1.72-2.752 1.461-4.626 1.09-.976 1.248-2.218.73-3.653 1.625-1.762 1.067-4.148 1.218-6.331 1.076-1.896-.102-3.149-.487-4.627 1.453-.632 1.335-1.854.974-3.166-1.893-1.333-1.828-3.89-1.948-6.332.802-3.405 1.542-6.786 1.218-9.74.494-1.218.932-2.436.974-3.653-.48-1.542.112-3.085.243-4.627.856-1.374 1.566-3.038 2.192-4.87.514-.74 1.697-1.095.73-2.68 1.42-1.189 1.851-2.477.975-3.896 1.116-2.614.167-3.575-.974-4.383.766-1.664 2.901-3.237.487-5.114.478-1.907 2.244-3.906-.244-5.6.801-1.135 1.454-2.24 0-2.923 1.248-1.142.773-1.996-.73-2.679-.096-1.318 1.895-2.405-1.948-4.14.86-2.374-.33-3.87-2.68-4.87.8-1.663 1.705-3.351-2.19-3.896 1.316-1.946-.094-2.3-1.462-2.68 1.075-1.189.648-2.19-1.948-2.921-.081-1.218.499-2.766-2.192-2.68-1.217-1.782-2.435-3.026-3.653-.73-1.03-1.832-2.15-2.338-3.409-.73-.993-2.587-1.647-1.1-2.435-1.218-1.085-1.887-1.54-1.044-1.948 0-1.708-.885-1.805.072-1.948.974-.956-.746-1.909-1.477-2.192.244-1.296-.45-2.731-1.23-2.922.974-1.14-1.26-1.952-1.41-1.948 1.217-1.373-.15-2.713-.245-3.41.73-4.028 2.157-1.832 4.782-5.114 7.55-.928.558-1.464.332-1.704-.487-.058-1.396.996-4.7-.487-3.653-.569.14-1.137.933-1.705 2.679-1.425 3.049-1.054 4.301-1.461 6.332.168 1.725-.749 2.583-1.705 3.409-5.814 3.702-7.516 6.323-21.287 12.12z" fill="url(#prefix__a)" stroke="#154e73" stroke-width=".914" stroke-linecap="round" stroke-linejoin="round"/><path d="M67.457 62.961c.027-3.543 6.074-1.204 8.221-1.811 1.7.18.889 1.73.128 3.252.954.968 1.732 1.881-.244 1.948 1.338 1.916 2.038 3.57-.487 3.896 2.468 1.67 2.39 2.915.731 3.897-.186.803 2.516 2.539-.974 2.191.75 1.474 2.096 2.887-.472 3.296 2.31 3.509.775 3.167-.99 3.28-2.855-.097-4.838-.691-6.087-1.705-4.28-1.458-.739-15.343.174-18.243z" fill="#3c8ca7" stroke="#154e73" stroke-width=".914" stroke-linecap="round" stroke-linejoin="round"/><g transform="matrix(.12523 0 0 .12523 -6.748 -9.996)" stroke="#154e73" stroke-width="8" stroke-linecap="round" stroke-linejoin="round" filter="url(#prefix__b)" fill="none"><path d="M509.47 174.05c32.749 40.393 58.754 85.281 64.17 143.9-1.174 33.314-.03 67.401-11.667 97.227 2.255 20.333 7.782 41.485-3.89 58.336-.633 28.208-7.82 50.954-19.444 70.004.249 31.262-6.708 53.516-13.612 75.837 2.436 24.916 8.166 50.655 3.889 73.893"/><path d="M406.41 312.12c3.733 11.526 12.468 16.382 21.606 20.702 32.5 35.081 60.291 14.613 85.56 9.723 23.374.269 45.656-10.314 58.121-24.592 24.727 3.582 36.185-3.187 44.96-8.466"/><path d="M449.19 284.89c-10.335 12.333-19.915 25.044-19.445 42.78-19.911 18.582-36.674 38.618-33.057 68.059-26.375 23.221-23.513 42.544-23.335 62.225-7.883 21.89-15.697 43.761-3.89 60.281-6.98 32.681-5.63 64.435 3.89 95.283 4.9 24.504-8.466 39.113 36.946 85.56"/><path d="M367.52 378.23c9.628 8.433 18.058 21.059 31.113 17.501 23.761 21.488 52.504 21.385 81.671 19.445 27.074 16.056 54.993 25.632 87.504 0 25.593 3.639 38.619-6.101 50.107-13.042M341.43 429.12c5.197 12.503 13.231 22.216 31.113 29.168 34.761 20.274 60.297 13.545 82.476-.334 27.542 35.036 60.526 37.42 97.227 17.501 28.551 8.664 59.916-.123 66.94-12.945M320.85 514.35c7.825 19.54 22.482 24.736 48.614 5.834 16.865 31.263 44.332 32.235 73.893 27.224 39.231 11.153 66.659 2.636 95.283-3.89 17.311 9.076 34.622 11.63 51.933 4.223M318.91 596.02c16.28 15.801 28.275 40.707 58.336 27.224 23.41 10.459 43.731 4.967 63.482-4.694 31.68 14.279 61.494 12.824 91.394 5.833 10.793 7.752 27.881 6.415 55.135-20.585M347.48 684.43c17.732 6.806 46.617 26.364 60.871 8.82 30.172 18.285 44.194 8.308 60.281 1.944 33.89 16.935 43.712 2.88 61.872-2.868 19.07 13.714 34.744 5.885 47.023.924"/><path d="M496.53 279.49c11.383 19.027 17.994 39.115 12.945 61.794-12.423 24.199-25.611 48.092-29.168 75.837-6.936 12.29-8.22 20.058-23.335 38.891-8.971 26.953-22.663 42.577-23.335 89.449 2.511 21.733-11.968 31.702 11.667 68.059 5.986 26.575 5.682 53.151 23.335 79.726-4.107 33.594 17.578 48.765 38.439 64.524"/><path d="M402.15 753.39c42.038 10.236 75.311 16.12 101.03 1.41 39.094 5.507 63.617 1.871 73.551-13.057M478.36 806.03c26.871 12.211 58.407 27.154 102.85-.923M482.25 868.26c22.593 14.43 46.299 26.821 79.726 21.39M472.29 930.93c16.742 15.669 40.742 28.957 70.239 20.938M450.78 987.09c16.963 13.309 40.378 33.451 64.524 27.008M433.63 1056.9c4.887 21.622 30.182 27.371 50.558 36.946M396.69 1097.7c-.479 28.369 17.772 40.09 33.057 54.447M363.63 1103.5c-7.95 28.802-7.776 56.521 11.667 81.671M316.96 1107.4c-19.979 16.91-27.569 40.015-33.057 64.17M276.13 1097.7c-26.707-3.56-46.404 4.898-60.281 23.334M245.01 1041.3c-13.479-3.225-31.497-14.706-41.641-1.257M243.07 992.26c-1.06-19.03-10.4-23.87-24.26-20.94M289.74 947.98c-2.379-12.408-9.393-22.961-20.938-31.702M336.41 953.82c7.373-9.664 6.049-23.676 2.514-38.793"/></g><g transform="matrix(.12523 0 0 .12523 -6.748 -9.996)" stroke="#154e73" stroke-width="2.9" stroke-linecap="round" stroke-linejoin="round" filter="url(#prefix__c)" fill="none"><path d="M596.97 603.8c17.02-.397 35.174-16.666 50.558 5.834M589.2 636.86c19.039-4.546 37.57-13.157 58.336-3.89M587.25 658.25c28.959 1.198 49.972 9.207 66.114 21.39M584.74 698.73c15.182-8.461 67.585 2.242 62.225 8.368"/></g><path d="M239.18 120.57c22.127 8.159 15.572 20.56 18.07 33.981-4.232 19.088-13.718 22.839-29.168 21.39-21.568-5.13-17.139-15.63-19.681-31.113 7.034-23.092 20.277-27.632 30.779-24.258z" transform="matrix(.12523 0 0 .12523 0 -.005)" fill="#2d6a7e" filter="url(#prefix__d)"/><path d="M544.93 507.34c17.3-8.155 35.185-11.045 54.312-2.75" transform="matrix(.12523 0 0 .12523 0 -.005)" color="#000" fill="none" stroke="#154e73" stroke-width="2.9" stroke-linecap="round" stroke-linejoin="round" filter="url(#prefix__e)"/><path d="M538.06 541.03c20.167-10.706 40.333-16.273 60.5 2.063" transform="matrix(.12523 0 0 .12523 0 -.005)" color="#000" fill="none" stroke="#154e73" stroke-width="2.9" stroke-linecap="round" stroke-linejoin="round" filter="url(#prefix__f)"/><path d="M533.93 568.53c23.283-3.347 46.568-6.71 68.062 9.625" transform="matrix(.12523 0 0 .12523 0 -.005)" color="#000" fill="none" stroke="#154e73" stroke-width="2.9" stroke-linecap="round" stroke-linejoin="round" filter="url(#prefix__g)"/><path d="M531.87 597.41c21.365-.583 47.403 2.231 56.375 15.812" transform="matrix(.12523 0 0 .12523 0 -.005)" color="#000" fill="none" stroke="#154e73" stroke-width="2.9" stroke-linecap="round" stroke-linejoin="round" filter="url(#prefix__h)"/><path d="M533.24 630.41c22.349 4.312 47.111 6.747 53.625 23.375" transform="matrix(.12523 0 0 .12523 0 -.005)" color="#000" fill="none" stroke="#154e73" stroke-width="2.9" stroke-linecap="round" stroke-linejoin="round" filter="url(#prefix__i)"/><path d="M48.469 9.038c-1.455.032-2.98.513-4.036 1.523.762.973 1.767 1.787 2.451 2.833 1.065 1.504 1.66 3.373 1.54 5.238.065 1.624-.11 3.246-.458 4.822.104.441.715.161 1.022.336 1.094.239 2.056.92 3.2 1.006 1.658.265 3.34-.157 4.92-.63.29-.07.879-.32.5-.672-.138-.271-.67-.456-.578-.8.155-.363.806-.227.813-.658-.393-.435-1.15-.345-1.582-.737-.204-.382.388-.537.645-.622.356-.088.212-.492-.07-.578-.373-.303-.958-.47-1.16-.926.26-.5 1.05-.176 1.357-.597-.013-.462-.65-.543-.934-.826-.235-.121-.464-.429-.134-.608.276-.316.96-.39.976-.88-.333-.45-1.028-.41-1.506-.651-.239-.129-.934-.203-.746-.62.324-.383 1.105-.41 1.155-.99-.222-.471-.904-.347-1.338-.413-.274-.068-.863.066-.898-.337.13-.422.752-.366 1.073-.584.365-.143.107-.523-.156-.616-.303-.247-.9-.404-.923-.853.246-.287.97.064.926-.409-.398-.598-.85-1.301-1.647-1.334-1.457-.227-2.933-.435-4.412-.417z" color="#000" fill="#3c8ca7"/><g color="#000" fill="none" stroke="#154e73" stroke-width="2.9" stroke-linecap="round" stroke-linejoin="round"><path d="M427.45 180.01c13.254-11.775 32.04-15.253 56.294-10.528" filter="url(#prefix__j)" transform="matrix(.12523 0 0 .12523 -6.748 -9.996)"/><path d="M436.72 192.81c13.703-6.919 36.813-12.586 52.405-2.868" filter="url(#prefix__k)" transform="matrix(.12523 0 0 .12523 -6.748 -9.996)"/><path d="M440.13 221.98c18.038-3.146 30.001-12.919 66.96 4.577" filter="url(#prefix__l)" transform="matrix(.12523 0 0 .12523 -6.748 -9.996)"/><path d="M439.45 254.59c16.558-3.704 26.144-12.202 70.496 3.202" filter="url(#prefix__m)" transform="matrix(.12523 0 0 .12523 -6.748 -9.996)"/><path d="M415.94 167.75c15.118-11.814 39.719-7.378 61.875-6.875" filter="url(#prefix__n)" transform="matrix(.12523 0 0 .12523 -6.748 -9.996)"/><path d="M439.31 207.62c14.604-6.28 28.875-13.444 48.812-5.5" filter="url(#prefix__o)" transform="matrix(.12523 0 0 .12523 -6.748 -9.996)"/><path d="M444.12 235.12c17.646-6.55 35.292-11.488 52.938 0" filter="url(#prefix__p)" transform="matrix(.12523 0 0 .12523 -6.748 -9.996)"/><path d="M438.62 261.94c28.524 10.844 48.586 6.88 70.125 5.5" filter="url(#prefix__q)" transform="matrix(.12523 0 0 .12523 -6.748 -9.996)"/></g><path d="M294.529 228.1a14.098 16.529 0 01-7.628 21.489 14.098 16.529 0 01-18.393-8.762 14.098 16.529 0 017.319-21.638 14.098 16.529 0 0118.516 8.399" transform="matrix(.12523 0 0 .12523 -6.748 -10.117)" color="#000" fill="#1e4653" filter="url(#prefix__r)"/></svg>