<?xml version="1.0" encoding="UTF-8" standalone="no"?>
<svg
   version="1.1"
   width="70.14055"
   height="68.38221"
   viewBox="0,0,70.14055,68.38221"
   id="svg16"
   sodipodi:docname="test.svg"
   inkscape:version="1.2.2 (732a01da63, 2022-12-09)"
   xmlns:inkscape="http://www.inkscape.org/namespaces/inkscape"
   xmlns:sodipodi="http://sodipodi.sourceforge.net/DTD/sodipodi-0.dtd"
   xmlns="http://www.w3.org/2000/svg"
   xmlns:svg="http://www.w3.org/2000/svg">
  <defs
     id="defs20">
    <inkscape:path-effect
       effect="powerstroke"
       id="path-effect420"
       is_visible="true"
       lpeversion="1"
       offset_points="1.699411,2.8954207"
       not_jump="true"
       sort_points="true"
       interpolator_type="CentripetalCatmullRom"
       interpolator_beta="0.75"
       start_linecap_type="round"
       linejoin_type="spiro"
       miter_limit="4"
       scale_width="1"
       end_linecap_type="round" />
    <inkscape:path-effect
       effect="simplify"
       id="path-effect418"
       is_visible="true"
       lpeversion="1"
       steps="1"
       threshold="0.0047745358"
       smooth_angles="0"
       helper_size="0"
       simplify_individual_paths="false"
       simplify_just_coalesce="false"
       step="1" />
  </defs>
  <sodipodi:namedview
     id="namedview18"
     pagecolor="#ffffff"
     bordercolor="#000000"
     borderopacity="0.25"
     inkscape:showpageshadow="2"
     inkscape:pageopacity="0.0"
     inkscape:pagecheckerboard="0"
     inkscape:deskcolor="#d1d1d1"
     showgrid="false"
     inkscape:zoom="1.8316167"
     inkscape:cx="44.223225"
     inkscape:cy="-17.470904"
     inkscape:window-width="2560"
     inkscape:window-height="1377"
     inkscape:window-x="1912"
     inkscape:window-y="-8"
     inkscape:window-maximized="1"
     inkscape:current-layer="layer1" />
  <g
     transform="translate(-204.92973,-145.8089)"
     id="g14">
    <g
       data-paper-data="{&quot;isPaintingLayer&quot;:true}"
       fill-rule="evenodd"
       stroke="none"
       stroke-width="0.51203"
       stroke-linecap="butt"
       stroke-linejoin="miter"
       stroke-miterlimit="10"
       stroke-dasharray="none"
       stroke-dashoffset="0"
       style="mix-blend-mode:normal"
       id="g12"
       sodipodi:insensitive="true">
      <path
         d="m 262.00074,154.2827 c 1.16993,-0.34629 2.60396,0.72648 2.9039,2.17272 0.0733,0.35357 0.58352,3.05644 0.80934,4.28878 0.0625,0.34114 0.15566,0.80615 0.20708,1.03348 0.0512,0.22734 0.12111,0.57624 0.15512,0.77512 0.0338,0.19891 0.10315,0.57106 0.15406,0.82684 0.0509,0.25578 0.14166,0.74407 0.20207,1.0852 0.0604,0.34084 0.20656,1.14879 0.32526,1.79511 0.68074,3.70872 0.0446,4.63795 -4.7964,7.00721 -1.73686,0.85008 -3.25239,1.59803 -3.36846,1.66242 -0.11577,0.0642 -2.34542,1.15889 -4.95442,2.43265 -2.60889,1.2737 -5.88209,2.87228 -7.27366,3.55245 -1.39131,0.68021 -2.67204,1.30503 -2.84615,1.38831 -0.17383,0.0833 -0.95653,0.47303 -1.73923,0.86614 -2.47391,1.24242 -3.00102,1.27914 -3.92669,0.2744 -0.66291,-0.71921 -0.74496,-0.93908 -1.12351,-3.01194 -0.057,-0.31271 -0.1538,-0.83588 -0.21474,-1.16278 -0.0612,-0.32665 -0.15643,-0.83822 -0.21183,-1.13667 -0.0554,-0.29846 -0.17622,-0.93803 -0.26828,-1.42114 -0.0923,-0.48313 -0.21526,-1.13407 -0.27303,-1.44675 -0.058,-0.31271 -0.15063,-0.80097 -0.20629,-1.0852 -0.0934,-0.47873 -0.17807,-0.93236 -0.42419,-2.27359 -0.38305,-2.08504 -0.0227,-3.58508 1.15622,-4.81327 0.44617,-0.46469 24.51412,-12.45467 25.71388,-12.80976 m -3.62493,3.22925 c -0.21077,-0.29486 -0.47746,-0.29175 -0.76606,0.01 -0.28914,0.30154 -0.30813,0.89897 -0.0367,1.14 0.55794,0.49499 1.25965,-0.51005 0.80274,-1.1496 m -1.61978,0.76192 c -0.34689,-0.40963 -0.96946,-0.0349 -0.98765,0.5946 -0.0187,0.64605 0.52023,0.92123 0.93149,0.47561 0.22766,-0.24649 0.25826,-0.83149 0.0562,-1.0702 m 3.51564,0.20427 c -0.22742,-0.22293 -0.39044,-0.2038 -0.65926,0.0768 -0.44161,0.4609 -0.20843,1.36815 0.33212,1.29083 0.51389,-0.0737 0.72914,-0.97345 0.32711,-1.3676 m -5.21074,0.56117 c -0.253,-0.24829 -0.3076,-0.25269 -0.60464,-0.0489 -0.49042,0.33675 -0.35533,1.3922 0.1778,1.3922 0.52179,0 0.8249,-0.9533 0.42683,-1.3433 m -1.49357,0.96335 c -0.30315,-0.62201 -1.03623,-0.28526 -1.03623,0.47587 0,0.65975 0.43024,0.92924 0.84071,0.52682 0.28992,-0.28422 0.36299,-0.65895 0.19548,-1.00267 m 7.0805,0.37989 c -0.27279,-0.26741 -0.3762,-0.26043 -0.68986,0.0471 -0.31683,0.31063 -0.3498,0.87366 -0.066,1.12556 0.59647,0.52914 1.33062,-0.6091 0.75581,-1.17263 m 0.50576,2.33849 c -0.0531,-0.68432 -0.67272,-0.85397 -0.98136,-0.26871 -0.19998,0.37918 -0.19813,0.61683 0.007,0.90443 0.36193,0.50692 1.02855,0.0716 0.97394,-0.63571 m -8.89238,-0.14511 c -0.0915,-0.12828 -0.27515,-0.22966 -0.41549,-0.22966 -0.54211,0 -0.81725,1.06555 -0.35666,1.38159 0.5727,0.39337 1.20398,-0.54778 0.77214,-1.15192 m -6.85169,1.34354 c -0.0915,-0.12827 -0.27515,-0.22966 -0.41549,-0.22966 -0.46981,0 -0.80512,0.97811 -0.45347,1.3226 0.52548,0.5152 1.3116,-0.47378 0.86894,-1.09293 m 15.92809,0.18827 c -0.24084,-0.26094 -0.27989,-0.26146 -0.6099,-0.007 -0.49305,0.38019 -0.37646,1.34588 0.1625,1.34588 0.55847,0 0.85762,-0.89459 0.4474,-1.33891 m -8.76159,0.26121 c -0.33133,-0.32482 -0.8175,-0.11405 -0.9523,0.41302 -0.15193,0.59302 0.25853,1.10096 0.70145,0.86872 0.40071,-0.21027 0.55266,-0.98613 0.25087,-1.28173 m -8.92336,0.20507 c -0.29968,-0.20588 -0.35588,-0.20252 -0.59831,0.0352 -0.45559,0.44666 -0.31998,1.35416 0.20233,1.35416 0.58458,0 0.88452,-1.05388 0.39597,-1.38932 m 3.65259,0.31165 c -0.31129,-0.30543 -0.70856,-0.12854 -0.88425,0.39363 -0.2303,0.68432 0.26564,1.17053 0.78507,0.76992 0.31366,-0.24179 0.36958,-0.89845 0.0992,-1.16354 m -5.1433,0.61965 c -0.22741,-0.34036 -0.52102,-0.33777 -0.79749,0.007 -0.27381,0.34165 -0.27935,0.76889 -0.014,1.08571 0.46693,0.55707 1.22852,-0.46838 0.81145,-1.09242 m 19.64168,0.55443 c -0.1543,-0.28241 -0.67585,-0.26508 -0.88636,0.0297 -0.51654,0.72287 0.22844,1.62884 0.77688,0.94504 0.23874,-0.2974 0.27963,-0.66284 0.10948,-0.97474 m -21.31094,0.13076 c -0.51044,-0.5004 -1.29894,0.49141 -0.86894,1.09323 0.19887,0.27855 0.58377,0.29768 0.82093,0.0406 0.20392,-0.22083 0.23479,-0.95068 0.048,-1.13379 m 12.43908,0 c -0.35611,-0.34892 -1.0333,0.12077 -1.0333,0.71663 0,0.59949 0.50387,0.81622 0.97528,0.41949 0.21579,-0.18183 0.25457,-0.94323 0.058,-1.13616 m -5.20308,0.62234 c -0.34503,-0.48287 -0.99558,-0.0903 -0.99558,0.60076 0,0.73424 0.66872,0.93724 1.00269,0.3044 0.20023,-0.37968 0.19839,-0.61733 -0.007,-0.90518 m 14.3737,1.03141 c -0.57587,-0.5646 -1.32057,0.55136 -0.7964,1.19354 0.16724,0.20483 0.57957,0.15026 0.75869,-0.10061 0.19468,-0.27205 0.21683,-0.91758 0.0377,-1.09293 m -8.78735,0.31216 c -0.34982,-0.48984 -0.99532,-0.11304 -0.99532,0.58111 0,0.53668 0.31078,0.83254 0.67456,0.64167 0.45585,-0.23926 0.60832,-0.82037 0.32078,-1.22279 m -5.27209,0.4495 c -0.37115,-0.36387 -0.99373,0.0611 -0.99373,0.6784 0,0.29018 0.31416,0.70941 0.53179,0.70941 0.47696,0 0.82148,-1.0353 0.46192,-1.3878 m -8.70903,0.48645 c -0.1762,-0.36207 -0.59935,-0.43216 -0.86606,-0.14328 -0.22001,0.23846 -0.25246,0.87262 -0.0562,1.10434 0.41208,0.48671 1.21799,-0.35301 0.92227,-0.96105 m 14.26858,0.86562 c -0.61546,-0.54621 -1.34881,0.59127 -0.75581,1.17263 0.27279,0.26741 0.3762,0.26043 0.68986,-0.0471 0.31709,-0.31063 0.35006,-0.87366 0.0659,-1.12556 m -5.28186,0.45286 c -0.35615,-0.18698 -0.58645,-0.0939 -0.80831,0.3269 -0.24293,0.4606 0.0129,1.11621 0.4358,1.11621 0.50624,0 0.81831,-1.20932 0.37249,-1.44311 m 12.44994,0.0639 c -0.32133,-0.28499 -0.65,-0.1544 -0.85946,0.34138 -0.172,0.40731 -0.0601,0.80948 0.26565,0.95509 0.58723,0.26225 1.09689,-0.8501 0.59383,-1.29648 m -21.14453,0.39672 c -0.34292,-0.5131 -1.01063,-0.1857 -1.01063,0.49553 0,0.42209 0.1807,0.69365 0.46165,0.69365 0.50567,0 0.8481,-0.74147 0.54895,-1.18915 m 19.59173,0.48876 c -0.34823,-0.48727 -0.99558,-0.09 -0.99558,0.61061 0,0.69571 0.68722,0.89252 1.00589,0.28837 0.19705,-0.37372 0.19441,-0.61241 -0.0103,-0.89897 m -5.27213,0.44948 c -0.39939,-0.39185 -0.93649,-3e-4 -0.93649,0.68249 0,0.66363 0.40574,0.88062 0.84339,0.45156 0.30284,-0.2969 0.35085,-0.88137 0.0931,-1.13404 m 3.72988,0.48644 c -0.29521,-0.60674 -1.04386,-0.31111 -1.06524,0.42052 -0.0222,0.77097 0.66873,0.94215 1.01325,0.25112 0.16619,-0.33309 0.17305,-0.42283 0.052,-0.67163 m -8.89345,0.0974 c -0.21077,-0.29506 -0.47772,-0.2917 -0.76632,0.01 -0.29467,0.30725 -0.30787,0.89901 -0.0259,1.1491 0.53893,0.47848 1.23457,-0.53924 0.79218,-1.15864 m -8.78838,0.30121 c -0.28305,-0.51853 -1.06179,-0.0949 -1.06179,0.57778 0,0.50478 0.64657,0.8501 0.94071,0.50225 0.18809,-0.22189 0.25641,-0.83224 0.12108,-1.08 m 16.01154,0.28881 c -0.12798,-0.23406 -0.64711,-0.27233 -0.82623,-0.0608 -0.22265,0.26331 -0.26011,0.77382 -0.0768,1.04823 0.45058,0.67425 1.30187,-0.25679 0.903,-0.98741 m 9.56606,0.258 c 0.21814,-0.21388 0.32736,-0.1875 0.80985,0.19552 0.23793,0.18905 0.52045,0.37552 0.62809,0.41432 0.11765,0.0427 0.17149,0.1319 0.13507,0.22501 -0.0427,0.10863 0.01,0.15414 0.17938,0.15414 0.23875,0 1.33484,1.01666 1.33484,1.23804 0,0.0579 0.0712,0.10552 0.15828,0.10552 2.14506,1.35517 3.82514,5.1132 4.79774,7.23955 0.063,0.23044 0.1836,0.44456 0.26749,0.47613 0.0839,0.0315 0.15274,0.16604 0.15274,0.29871 0,0.13267 0.0472,0.27001 0.10526,0.30492 0.36773,0.94084 0.52813,1.89972 0.73788,2.94547 0,0.3411 0.0448,0.62016 0.0995,0.62016 0.0591,0 0.0967,0.83669 0.0926,2.06696 -0.0984,4.39131 -5.66468,9.1914 -8.91201,10.54642 -0.39305,0.12776 -0.84018,0.29509 -0.99424,0.3719 -0.1538,0.0768 -0.40442,0.13966 -0.55663,0.13966 -0.15247,0 -0.42973,0.0608 -0.61624,0.13526 -0.51283,0.20457 -1.80466,0.27724 -2.6058,0.14664 -0.14483,-0.0236 -0.35217,-0.0502 -0.4606,-0.059 -0.15934,-0.0132 -0.1137,-0.0957 0.23716,-0.42958 0.239,-0.22731 0.43747,-0.49473 0.44107,-0.5943 0.005,-0.1412 0.0272,-0.13111 0.10024,0.0468 l 0.0934,0.22759 0.65158,-0.32923 c 0.35827,-0.18129 0.72179,-0.43474 0.80805,-0.56354 0.086,-0.1288 0.2121,-0.23431 0.2799,-0.23431 0.47296,0 1.30421,-1.30527 1.54665,-2.42851 0.0736,-0.34109 0.22159,-0.74507 0.3287,-0.89741 0.86737,-1.23395 1.0805,-4.58517 0.44582,-7.00872 -0.45982,-1.75617 -1.72501,-4.64477 -2.26711,-5.17623 -0.0965,-0.0947 -0.2332,-0.42205 -0.30337,-0.72749 -0.0702,-0.30543 -0.17094,-0.72362 -0.22397,-0.92923 -0.0528,-0.20535 -0.0963,-0.4813 -0.0963,-0.61268 0,-0.23795 -0.10314,-0.60339 -0.39306,-1.39063 -0.0839,-0.22734 -0.33635,-0.67788 -0.56111,-1.0009 l -0.40862,-0.58783 c 0,0 -0.17059,0.09 -0.4081,-0.30517 -0.12215,-0.10397 -0.40231,-0.26405 -0.62232,-0.35587 -0.21999,-0.0921 -0.72229,-0.30207 -1.11614,-0.46682 -0.88213,-0.36882 -1.15174,-0.16552 2.76016,-2.08297 1.76195,-0.86377 3.2714,-1.63708 3.3545,-1.71829 m -16.54351,0.94315 c -0.62496,-0.42933 -1.26967,0.63829 -0.71438,1.18243 0.27305,0.26767 0.37646,0.26068 0.69012,-0.0468 0.3432,-0.33644 0.35534,-0.90828 0.0243,-1.13561 m -8.74716,0.27311 c -0.32025,-0.31422 -0.84102,-0.0375 -0.98373,0.52267 -0.15482,0.60859 0.52682,1.05414 0.93597,0.61112 0.20367,-0.22083 0.23453,-0.95068 0.0478,-1.13379 m 0.35561,1.90734 c -0.44663,-0.3965 -0.96683,-0.0424 -0.96683,0.65794 0,0.42464 0.15221,0.61783 0.48777,0.61783 0.52971,0 0.87634,-0.92327 0.47906,-1.27577 m 7.21338,0.60525 c -0.45058,-0.67425 -1.30187,0.25679 -0.903,0.98741 0.12793,0.23406 0.64711,0.27233 0.82623,0.0608 0.22291,-0.26331 0.26011,-0.77382 0.0768,-1.04823 m -1.64055,0.72702 c -0.35431,-0.41873 -0.99424,0.0272 -0.97554,0.67966 0.0264,0.90776 1.06153,0.76785 1.09661,-0.14819 0.008,-0.20456 -0.0467,-0.44379 -0.12108,-0.53146 m -5.15409,0.60721 c -0.22082,-0.47484 -0.87951,-0.25578 -1.03278,0.34397 -0.14008,0.54697 0.46427,1.07043 0.86235,0.74663 0.21132,-0.17199 0.30864,-0.79345 0.17041,-1.0906 m 3.65339,0.60184 c -0.0607,-0.69002 -0.75632,-0.78468 -1.02856,-0.14017 -0.17675,0.41847 -0.0641,0.81623 0.27409,0.96726 0.3833,0.17118 0.80197,-0.2876 0.75447,-0.8271 m -1.77117,0.38796 c -0.28253,-0.27698 -0.46851,-0.26018 -0.7302,0.0657 -0.28805,0.35872 -0.28831,0.90828 -0.001,1.10561 0.60778,0.41716 1.26967,-0.64319 0.73097,-1.17132 m -7.31218,6.69137 c -0.0427,-0.45804 0.0116,-0.5863 0.17886,-0.42233 0.0382,0.0375 0.34265,0.0784 0.67636,0.0905 0.3337,0.0121 0.91485,0.0822 1.29182,0.15543 0.37698,0.0735 0.96157,0.14043 1.2995,0.14897 2.42662,0.33033 6.13413,5.08653 7.30406,7.57191 0.038,0.15647 0.12979,0.35406 0.20418,0.43915 0.0744,0.0853 0.215,0.36438 0.31234,0.62016 0.0976,0.25578 0.25378,0.61451 0.3469,0.79684 0.0931,0.18259 0.13875,0.36182 0.1013,0.39854 -0.0375,0.0367 0.0195,0.15879 0.12636,0.27156 0.16276,0.17118 0.30522,0.57309 0.3775,1.065 0.008,0.0569 0.0702,0.23509 0.1377,0.39621 0.0671,0.16112 0.0992,0.33 0.0707,0.375 -0.0285,0.0453 0.0222,0.22708 0.11211,0.40423 0.14562,0.28604 0.18941,0.51752 0.29757,1.57115 0.015,0.14664 0.066,0.32742 0.11291,0.40242 0.26932,0.4266 0.0414,5.06713 -0.24877,5.06713 -0.0639,0 -0.10946,0.32199 -0.11528,0.81442 -0.003,0.2873 -0.32475,0.83041 -0.60913,1.02878 -0.13879,0.097 -0.18438,0.22733 -0.15301,0.43708 -0.0601,1.20067 -2.11564,2.45333 -1.90224,2.28213 -0.18862,0.13009 -0.4052,0.29561 -0.48143,0.36828 -2.02372,1.53928 -4.43468,2.38891 -7.27109,3.40748 -0.33741,0.3305 -3.65804,0.16177 -3.87805,-0.18738 -0.0314,-0.0494 -0.17331,-0.09 -0.31551,-0.09 -0.14245,0 -0.34109,-0.0416 -0.44187,-0.0928 -0.10077,-0.0512 -0.40917,-0.20225 -0.68563,-0.33596 l -0.5028,-0.24285 1.24067,-0.0603 c 2.10621,-0.10269 3.70087,-0.96777 4.74658,-2.57513 0.20341,-0.31271 0.5139,-0.73011 0.69012,-0.92796 1.98297,-2.22697 1.74582,-7.17232 -0.55611,-11.60258 -0.39228,-0.75441 -0.67032,-1.43923 -0.73442,-1.80855 -0.0567,-0.3269 -0.15459,-0.87338 -0.21764,-1.21451 -0.16435,-0.89175 -0.2958,-1.73251 -0.29941,-1.91174 -0.002,-0.0854 -0.0609,-0.35897 -0.13163,-0.60829 -0.0984,-0.34627 -0.0997,-0.49861 -0.006,-0.64602 0.0995,-0.15596 0.0926,-0.19268 -0.0361,-0.19268 -0.0981,0 -0.15907,-0.096 -0.15907,-0.24983 0,-0.13759 -0.0747,-0.53558 -0.16593,-0.88473 -0.12952,-0.4955 -0.13822,-0.66723 -0.0398,-0.78335 0.0894,-0.10553 0.0918,-0.14897 0.008,-0.14897 -0.0652,0 -0.11845,-0.13009 -0.11845,-0.2894 0,-0.15905 -0.0464,-0.33466 -0.10314,-0.39053 -0.0567,-0.0556 -0.12477,-0.35535 -0.15089,-0.66648 -0.0264,-0.31084 -0.0971,-0.72827 -0.15696,-0.92716 -0.0601,-0.19891 -0.12981,-0.5827 -0.15485,-0.8527 m -29.21711,9.3411 0.0789,-0.55424 0.65029,0.63183 c 0.35746,0.34734 0.70066,0.63157 0.76266,0.63157 0.062,0 0.20181,0.0967 0.31076,0.21492 0.10897,0.11793 0.39333,0.30182 0.63154,0.40811 0.23845,0.10656 0.49434,0.26561 0.56899,0.3538 0.0747,0.0879 0.19495,0.16009 0.26723,0.16009 0.0725,0 0.55293,0.24618 1.06761,0.54722 0.51495,0.30105 1.11192,0.62795 1.32665,0.72623 0.215,0.0985 0.41733,0.22087 0.44978,0.27208 0.0322,0.0512 0.51175,0.31218 1.0655,0.57985 0.55374,0.26766 1.06285,0.53895 1.13144,0.60283 0.0689,0.0639 0.45719,0.2757 0.86292,0.4707 0.406,0.195 0.80909,0.40889 0.89615,0.47535 0.0868,0.0662 0.44268,0.2713 0.79063,0.45569 0.34767,0.18414 0.65606,0.36727 0.68507,0.40656 0.0291,0.0396 0.40865,0.24724 0.84339,0.46164 2.49601,1.30522 3.1841,2.11671 3.59799,5.05248 0.0688,0.13371 0.0509,0.18104 -0.0691,0.18104 -0.0892,0 -0.18811,0.066 -0.21975,0.1469 -0.0868,0.22164 -0.34347,0.28785 -0.28649,0.074 -1.60641,-1.16021 -7.85595,-4.26468 -12.42777,-6.93851 -1.96267,-0.9961 -3.64229,-2.52912 -2.98412,-5.36009"
         fill="#242425"
         id="path2" />
      <path
         d="m 240.34064,145.80897 c 2.01929,0.0215 4.06275,0.35307 6.15,0.51671 0.48857,0 0.21371,0.21906 -1.04885,0.83639 -0.77008,0.3763 -1.39025,0.75208 -1.53614,0.93079 -0.27038,0.33078 -0.68455,0.38613 -1.52686,0.20431 -0.24323,-0.0525 -0.79772,-0.14845 -1.23273,-0.21311 -0.84628,-0.12572 -0.91459,-0.13786 -3.62514,-0.64011 -1.93789,-0.35897 -2.6971,-0.34604 -4.37224,0.0747 -0.75394,0.18931 -2.43887,0.90406 -0.51494,-0.0605 1.19589,-0.54237 2.62739,-1.24529 3.97944,-1.55797 0,-0.0502 0.49542,-0.0913 1.10084,-0.0913 m 5.81516,0.88016 c -0.20917,-0.31268 -0.52443,-0.33621 -0.72598,-0.0541 -0.081,0.11328 -0.17488,0.17871 -0.20893,0.1456 -0.11211,-0.11018 -0.49911,0.0727 -0.49911,0.23587 0,0.10501 -0.0673,0.14276 -0.196,0.10991 -0.4817,-0.12365 -0.67665,0.22578 -0.27145,0.48595 0.30997,0.19914 0.62864,0.0504 0.52391,-0.24388 -0.0322,-0.0905 0.0725,-0.0129 0.23241,0.1725 0.3295,0.38147 0.75343,0.45259 0.8368,0.14017 0.0353,-0.13216 0.11713,-0.17794 0.2543,-0.14276 0.24375,0.0623 0.54765,-0.15957 0.47458,-0.3463 -0.0417,-0.1063 0.002,-0.10992 0.20893,-0.0173 0.33793,0.15103 0.57693,-0.0336 0.40045,-0.30932 -0.15436,-0.24156 -0.57774,-0.2894 -0.7318,-0.0828 -0.11079,0.14845 -0.14324,0.13836 -0.29809,-0.0936 m 11.5313,8.09778 c 4.71562,-2.31729 5.69195,-2.76212 5.95628,-2.71272 3.48402,0.6489 4.54609,1.51473 5.05365,4.12144 0.0886,0.45469 0.2055,1.03605 0.25958,1.29184 0.0541,0.25578 0.15326,0.76735 0.22027,1.13667 0.0673,0.36958 0.16252,0.88115 0.21157,1.13692 0.0493,0.25578 0.14404,0.76735 0.21078,1.13667 0.0667,0.36958 0.16461,0.88114 0.21764,1.13692 0.0834,0.40297 0.30127,1.58722 0.63762,3.46224 0.36246,2.02089 0.32738,3.43481 -0.11317,4.54713 -0.9183,2.31855 -1.38466,2.71192 -5.7569,4.85539 -1.81393,0.88917 -3.35188,1.6803 -3.41756,1.75814 -0.1424,0.1681 -0.1118,0.18568 1.1589,0.67345 1.77514,0.68097 2.70923,1.78789 3.05243,3.61609 0.0691,0.36933 0.16621,0.88089 0.21526,1.13667 0.0493,0.25578 0.14008,0.74433 0.20181,1.0852 0.0615,0.34109 0.20734,1.13172 0.32421,1.75683 0.11662,0.62536 0.37778,2.06691 0.58012,3.20383 0.49148,2.76131 0.59912,3.33909 0.89141,4.78766 0.19046,0.94478 0.13929,2.86713 -0.0989,3.70973 -0.39331,1.39169 -0.7608,1.84916 -1.94103,2.4179 -0.98634,0.47509 -0.93279,0.46889 -1.26545,0.14276 -0.4439,-0.43504 -0.63489,-0.36594 -5.33289,1.93295 l -4.48012,2.19237 -1.26519,1.24552 c -1.36225,1.34151 -2.504,2.01342 -2.06978,1.21789 0.20286,-0.3714 0.43606,-2.19055 0.43606,-3.40117 0,-5.81467 -4.09037,-13.54644 -8.5251,-16.11461 -0.17305,-0.10034 -0.33662,-0.26431 -0.36326,-0.3644 -0.0417,-0.15645 -0.17223,-0.18079 -0.92989,-0.17302 -0.4846,0.005 -1.14224,-0.0403 -1.46117,-0.10035 -0.31871,-0.06 -0.92623,-0.16811 -1.34989,-0.24001 -0.88454,-0.15027 -0.99709,-0.10794 -1.17436,-1.18875 -0.62731,-3.80994 -1.37539,-7.08272 -2.05175,-11.17527 -1.89183,-7.08247 -0.73211,-7.63327 9.64876,-12.18041 3.67444,-1.8039 9.21887,-4.52723 12.32061,-6.05156 m 8.55884,-0.44056 c -0.56085,-0.28294 -1.00037,-0.34449 -1.54932,-0.21698 -0.85833,0.19901 -25.31311,12.2702 -25.80404,12.73703 -1.29868,1.23511 -1.71311,3.08634 -1.2351,5.51768 0.11581,0.58864 0.26195,1.34949 0.325,1.69036 0.0628,0.34114 0.15696,0.82942 0.20919,1.0852 0.0522,0.25578 0.16672,0.86045 0.25457,1.34356 1.17018,6.43347 1.28101,6.78335 2.35809,7.45321 0.39671,0.24672 0.59249,0.29767 1.14118,0.29767 h 0.6624 l 12.65704,-6.20966 c 11.88949,-5.83346 12.68879,-6.24259 13.17946,-6.74355 1.23856,-1.26461 1.5844,-3.01447 1.07606,-5.44242 -0.12477,-0.59692 -0.39542,-1.9919 -0.60119,-3.10038 -0.2055,-1.10849 -0.42155,-2.25936 -0.47985,-2.55781 -0.20075,-1.03009 -0.31471,-1.63192 -0.53288,-2.81617 -0.30387,-1.64899 -0.8352,-2.62116 -1.66035,-3.03755 m -46.50899,0.82045 c 0,0.13865 -0.31416,0.63287 -0.51624,0.81209 -0.12188,0.10811 -0.22159,0.24259 -0.22159,0.29845 -0.19154,0.28965 -0.36024,0.30873 0.0253,0.61369 0.36039,0.26947 0.51943,0.30542 3.13713,0.70577 0.37698,0.0577 0.94626,0.14845 1.26493,0.20147 0.31891,0.0533 0.92197,0.15155 1.34036,0.21854 0.8489,0.13629 0.86842,0.20068 0.15538,0.51646 -4.46492,1.97796 -6.60328,6.87285 -5.45654,12.49205 0.14483,0.71047 0.33925,1.71056 0.43158,2.22212 0.0926,0.51156 0.21027,1.16252 0.26143,1.44675 0.11633,0.64501 0.97973,5.23619 1.47699,7.85425 0.0538,0.28422 0.14404,0.74925 0.20049,1.03348 0.0562,0.28422 0.17885,0.93519 0.27277,1.44675 0.18097,0.98716 0.5152,2.75899 0.68193,3.6171 0.0554,0.28427 0.12899,0.67942 0.16356,0.87857 0.0631,0.36079 0.17253,0.96337 0.36141,1.98932 0.0549,0.29846 0.19944,1.05414 0.32104,1.67924 0.41366,2.12696 0.79114,4.14553 1.15967,6.20107 0.37775,2.106 0.52494,2.74843 0.91088,3.9787 0.20497,0.6538 0.40966,1.25899 0.45479,1.34538 1.24386,2.38138 1.69547,3.11254 2.07138,3.3541 0.35955,0.23096 0.32158,0.31243 -0.28332,0.60804 l -0.53633,0.26199 -0.59671,-0.2744 c -0.32842,-0.15103 -0.61278,-0.31112 -0.63205,-0.35612 -0.0195,-0.045 -0.10235,-0.0817 -0.18466,-0.0817 -0.082,0 -0.14931,-0.0352 -0.14931,-0.0781 0,-0.0429 -0.15406,-0.14457 -0.34267,-0.22604 -0.42841,-0.18517 -0.65133,-0.38716 -0.48645,-0.44095 0.086,-0.0282 0.0842,-0.17611 -0.007,-0.55086 -0.0686,-0.28189 -0.1612,-0.67529 -0.20576,-0.87417 -0.0752,-0.33463 -0.31709,-0.93801 -0.54818,-1.36811 -0.0533,-0.0986 -0.0966,-0.33727 -0.0966,-0.52995 -1.99127,-3.06796 -16.87518,-6.92695 -15.07438,-9.72968 0,-0.0848 -0.0475,-0.15414 -0.10552,-0.15414 -0.17807,0 -0.12662,-1.52665 0.0646,-1.9221 0.0937,-0.19319 0.21236,-0.35147 0.26354,-0.35147 0.0514,0 0.0934,-0.0494 0.0934,-0.10991 0,-0.0608 0.24351,-0.34239 0.54081,-0.62662 0.45244,-0.43161 0.54952,-0.59093 0.59331,-0.97292 0.81629,-6.68243 -1.91971,-13.69923 -2.81132,-21.58935 -1.47709,-7.5214 6.81637,-9.9449 11.66888,-13.46638 m 44.80314,25.00486 c -0.19416,-0.19035 -0.40072,-0.14768 -0.40072,0.0825 0,0.11379 0.048,0.20664 0.10631,0.20664 0.12636,0 0.0206,1.1372 -0.11976,1.28668 -0.0504,0.0541 -0.0918,0.22578 -0.0918,0.38147 0,0.15595 -0.042,0.30882 -0.0931,0.33958 -0.0512,0.031 -0.12531,0.34783 -0.16488,0.7037 -0.0396,0.35609 -0.1385,0.76371 -0.21948,0.90569 -0.19254,0.337 -0.19307,0.104 -0.002,-0.61319 0.61067,-2.28698 0.61675,-3.27261 0.0187,-3.07735 -0.17278,0.0564 -0.21868,0.39517 -0.0488,0.36052 0.17144,-0.0349 0.16406,0.48338 -0.0164,1.15995 -0.0683,0.25578 -0.14904,0.63959 -0.17938,0.85321 -0.0306,0.21363 -0.0979,0.41379 -0.14957,0.44535 -0.052,0.0313 -0.0944,0.2144 -0.0944,0.40656 0,0.19242 -0.0475,0.37839 -0.10526,0.41354 -0.058,0.0349 -0.10552,0.20974 -0.10552,0.38845 0,0.20351 -0.0369,0.28785 -0.0992,0.22629 -0.0623,-0.0616 0.0356,-0.65769 0.26195,-1.59676 0.44002,-1.82357 0.4474,-1.98831 0.0987,-2.17116 -0.31367,-0.16475 -0.58247,-0.0106 -0.33397,0.19138 0.1609,0.13087 0.12634,1.12191 -0.0451,1.30295 -0.0512,0.0541 -0.0931,0.2488 -0.0931,0.4332 0,0.18414 -0.0409,0.35949 -0.0905,0.38975 -0.0499,0.0303 -0.12108,0.30904 -0.15828,0.61991 -0.0749,0.62435 -0.24929,1.15711 -0.34742,1.06091 -0.0348,-0.0341 -0.006,-0.28475 0.0644,-0.55682 0.27622,-1.06813 0.53185,-2.35712 0.53185,-2.68014 0,-0.40162 -0.33028,-0.65302 -0.58538,-0.44561 -0.15511,0.12621 -0.10341,0.35173 0.0583,0.25397 0.18837,-0.1143 0.2005,0.14946 0.0388,0.83871 -0.0918,0.3913 -0.19047,0.89742 -0.21922,1.12475 -0.0285,0.22733 -0.0947,0.45751 -0.14667,0.51156 -0.052,0.0541 -0.0947,0.25164 -0.0947,0.43915 0,0.18776 -0.0472,0.34113 -0.10526,0.34113 -0.058,0 -0.10552,0.17199 -0.10552,0.3825 0,0.26277 -0.034,0.34889 -0.10868,0.2757 -0.0749,-0.0734 -0.0103,-0.50798 0.20656,-1.39013 0.46666,-1.89908 0.49252,-2.12875 0.26881,-2.37108 -0.31339,-0.33931 -0.75473,-0.17638 -0.46139,0.17018 0.1514,0.17896 0.13584,1.20699 -0.019,1.26209 -0.0533,0.0189 -0.0971,0.21388 -0.0971,0.4332 0,0.21906 -0.0475,0.42727 -0.10552,0.46242 -0.0577,0.0352 -0.10526,0.16241 -0.10526,0.28294 0,0.12054 -0.0459,0.3621 -0.10183,0.53641 -0.0559,0.17458 -0.13482,0.457 -0.1749,0.62743 -0.0454,0.19215 -0.0889,0.24621 -0.11423,0.14225 -0.0227,-0.0923 0.0762,-0.62718 0.22001,-1.18839 0.46983,-1.83749 0.48408,-2.44166 0.0602,-2.55054 -0.28306,-0.0727 -0.39966,0.20328 -0.15854,0.37604 0.17912,0.12855 0.0237,1.10823 -0.36484,2.29789 -0.0573,0.17455 -0.10367,0.44197 -0.10367,0.5943 0,0.15233 -0.0475,0.27699 -0.10552,0.27699 -0.058,0 -0.10552,0.16267 -0.10552,0.36156 0,0.19888 -0.0512,0.36182 -0.1137,0.36182 -0.12398,0 -0.11343,-0.0667 0.27119,-1.70536 0.39728,-1.69296 0.40994,-1.95908 0.1,-2.12176 -0.215,-0.11296 -0.28464,-0.11348 -0.39122,-0.003 -0.10266,0.10655 -0.10214,0.14454 0.002,0.18207 0.15986,0.0577 0.18519,1.27037 0.0264,1.27037 -0.058,0 -0.10552,0.18595 -0.10552,0.41328 0,0.22759 -0.0475,0.41354 -0.10526,0.41354 -0.058,0 -0.10552,0.18337 -0.10552,0.40733 0,0.22397 -0.0475,0.43606 -0.10552,0.47096 -0.0577,0.0352 -0.10526,0.22397 -0.10526,0.41949 0,0.19578 -0.0475,0.35561 -0.10552,0.35561 -0.14799,0 -0.13718,-0.09 0.14773,-1.2189 0.50647,-2.00721 0.42605,-2.90774 -0.21368,-2.38739 -0.20024,0.16293 -0.18204,0.33543 0.0269,0.25681 0.20682,-0.0778 0.16751,0.46838 -0.11845,1.64434 -0.1625,0.6688 -0.28781,1.22198 -0.43896,1.93785 -0.033,0.15621 -0.1042,0.28397 -0.15802,0.28397 -0.11449,0 -0.0398,-0.47509 0.23584,-1.49847 0.47747,-1.77183 0.41708,-2.6108 -0.172,-2.38916 -0.19338,0.0729 -0.19892,0.36311 -0.008,0.43475 0.15934,0.06 0.11845,0.9419 -0.052,1.12243 -0.0509,0.0541 -0.0926,0.24905 -0.0926,0.4332 0,0.18414 -0.0422,0.36076 -0.0942,0.39208 -0.0517,0.0315 -0.12108,0.23173 -0.15406,0.44535 -0.14377,0.9339 -0.20339,1.16253 -0.33028,1.26572 -0.15116,0.12309 -0.028,-0.54727 0.36088,-1.96271 0.33583,-1.22279 0.26803,-1.75683 -0.22291,-1.75683 -0.11133,0 -0.21419,0.10293 -0.25272,0.25319 -0.0557,0.21776 -0.0921,0.23612 -0.26274,0.13164 -0.25905,-0.15853 -0.53472,0.0551 -0.33001,0.25604 0.15276,0.14971 0.16965,1.07768 0.0211,1.16768 -0.058,0.0352 -0.10526,0.2444 -0.10526,0.46501 0,0.22061 -0.0475,0.43011 -0.10552,0.46501 -0.058,0.0352 -0.10552,0.22397 -0.10552,0.41949 0,0.19578 -0.0472,0.35561 -0.10526,0.35561 -0.058,0 -0.10552,0.18104 -0.10552,0.40242 0,0.23974 -0.0567,0.42361 -0.14034,0.45518 -0.10605,0.0399 -0.0799,-0.20275 0.10736,-0.99645 0.39096,-1.6552 0.47484,-2.14502 0.41074,-2.39537 -0.11742,-0.45906 -0.69408,-0.39026 -0.69408,0.0828 0,0.19451 -0.0137,0.19787 -0.18677,0.0443 -0.28833,-0.25577 -0.53341,-0.0652 -0.34954,0.27156 0.0847,0.1552 0.11528,0.4102 0.0781,0.65279 -0.1385,0.90855 -0.20234,1.17778 -0.29124,1.23183 -0.0515,0.0313 -0.0937,0.23716 -0.0937,0.45803 0,0.22061 -0.0475,0.42985 -0.10552,0.46501 -0.058,0.0352 -0.10552,0.21828 -0.10552,0.40682 0,0.18854 -0.071,0.40087 -0.15801,0.47147 -0.20735,0.1689 -0.20893,0.18108 0.16197,-1.21966 0.36853,-1.39119 0.45242,-2.03773 0.3002,-2.31653 -0.14851,-0.27181 -0.55714,-0.2038 -0.60119,0.10009 -0.0327,0.22578 -0.23003,0.33647 -0.23003,0.12905 0,-0.0569 -0.0947,-0.10319 -0.21078,-0.10319 -0.1406,0 -0.21078,0.0688 -0.21078,0.20664 0,0.11354 0.052,0.20665 0.11555,0.20665 0.18176,0 -0.0485,1.70406 -0.24665,1.82406 -0.10288,0.0623 -0.038,-0.89382 0.0899,-1.3278 0.0665,-0.22451 -0.32476,-0.61425 -0.53633,-0.53459 -0.0881,0.0331 -0.16039,0.1469 -0.16039,0.25267 0,0.12889 0.0525,0.17273 0.15802,0.13293 0.18519,-0.0696 0.23478,0.62742 0.0528,0.73785 -0.058,0.0352 -0.10552,0.22113 -0.10552,0.41329 0,0.19242 -0.0472,0.37838 -0.10526,0.41354 -0.058,0.0349 -0.10552,0.22113 -0.10552,0.41329 0,0.19216 -0.0425,0.37524 -0.0942,0.40656 -0.052,0.0316 -0.1187,0.23199 -0.14879,0.44535 -0.0301,0.21361 -0.1013,0.55114 -0.15854,0.75002 -0.23478,0.81725 -0.11924,-0.18027 0.13797,-1.18864 0.47719,-1.87194 0.4622,-2.42851 -0.0654,-2.42851 -0.21526,0 -0.2704,0.25397 -0.0802,0.36932 0.16907,0.10243 -0.17252,2.14479 -0.44371,2.65221 -0.0527,0.0985 -0.0958,0.32276 -0.0958,0.49811 0,0.17534 -0.0712,0.38871 -0.15828,0.47406 -0.18624,0.18257 -0.19573,0.11069 -0.0506,-0.37733 0.65003,-2.1851 0.64978,-3.64944 -0.001,-3.2553 -0.17121,0.10397 -0.12583,0.36337 0.0517,0.29639 0.18519,-0.0695 0.23478,0.62742 0.0528,0.73759 -0.058,0.0352 -0.10526,0.2444 -0.10526,0.46526 0,0.22061 -0.0475,0.42985 -0.10552,0.46501 -0.058,0.0352 -0.10552,0.22397 -0.10552,0.41949 0,0.19552 -0.0472,0.35561 -0.10526,0.35561 -0.058,0 -0.10552,0.18595 -0.10552,0.41328 0,0.22733 -0.0475,0.41354 -0.10526,0.41354 -0.058,0 -0.10552,0.1394 -0.10552,0.30983 0,0.17069 -0.0425,0.31009 -0.0942,0.31009 -0.0981,0 -0.0238,-0.44201 0.24322,-1.44675 0.43633,-1.64202 0.47088,-2.16701 0.15485,-2.36072 -0.28624,-0.17509 -0.51151,-0.003 -0.30891,0.23612 0.1406,0.16628 0.1042,0.44949 -0.26776,2.07287 -0.091,0.39802 -0.19176,0.88632 -0.2237,1.0852 -0.0512,0.31889 -0.3469,0.90313 -0.3469,0.68537 0,-0.046 0.14245,-0.68769 0.3163,-1.42553 0.44185,-1.87503 0.35849,-2.87693 -0.19469,-2.33486 -0.1675,0.16448 -0.1522,0.28475 0.0367,0.28475 0.18097,0 0.22555,0.56689 0.0525,0.67163 -0.0577,0.0352 -0.10526,0.2444 -0.10526,0.46501 0,0.22061 -0.0475,0.43011 -0.10552,0.46501 -0.0581,0.0352 -0.10526,0.22138 -0.10526,0.41354 0,0.19216 -0.0475,0.37813 -0.10552,0.41329 -0.058,0.0352 -0.10552,0.22112 -0.10552,0.41354 0,0.19216 -0.0472,0.37813 -0.10526,0.41329 -0.058,0.0352 -0.10552,0.20069 -0.10552,0.36777 0,0.17172 -0.0517,0.29277 -0.11845,0.27828 -0.19914,-0.0435 -0.2279,0.22759 -0.0319,0.3013 0.11713,0.044 0.24402,-0.003 0.35138,-0.12905 0.0944,-0.11146 0.26776,-0.18412 0.39623,-0.16629 0.15485,0.0217 0.25011,-0.0365 0.29704,-0.18104 0.053,-0.16421 0.12688,-0.19861 0.32263,-0.15052 0.2026,0.0499 0.27884,0.009 0.37829,-0.2056 0.10209,-0.21957 0.15247,-0.24544 0.27831,-0.14328 0.12372,0.10086 0.18862,0.0825 0.33503,-0.0947 0.1,-0.12078 0.29493,-0.23561 0.43343,-0.255 0.13849,-0.0194 0.3068,-0.14405 0.37406,-0.27698 0.0747,-0.14714 0.15035,-0.19759 0.19337,-0.12906 0.11713,0.18544 0.39069,0.12699 0.45005,-0.0962 0.0406,-0.15179 0.12979,-0.20093 0.32711,-0.18078 0.19152,0.0197 0.30627,-0.0396 0.39069,-0.20199 0.0849,-0.16321 0.15195,-0.19759 0.23241,-0.11871 0.0805,0.0786 0.17701,0.0481 0.33423,-0.10629 0.12188,-0.11949 0.31603,-0.21699 0.43131,-0.21699 0.11555,0 0.26828,-0.0915 0.33925,-0.20302 0.0923,-0.14528 0.19996,-0.18568 0.37644,-0.14225 0.19205,0.0473 0.2601,0.0116 0.30601,-0.16061 0.0441,-0.16477 0.12847,-0.21442 0.33028,-0.19371 0.18334,0.0186 0.30733,-0.0393 0.38251,-0.17897 0.0786,-0.14587 0.19653,-0.19709 0.40124,-0.17406 0.20708,0.0235 0.28992,-0.0135 0.28992,-0.12905 0,-0.16351 0.10526,-0.202 0.45584,-0.16604 0.11686,0.0119 0.21474,-0.0654 0.25009,-0.19759 0.0406,-0.15257 0.11449,-0.1999 0.24744,-0.15853 0.11581,0.0359 0.26855,-0.0243 0.3928,-0.15492 0.11897,-0.12518 0.27198,-0.18776 0.36932,-0.15129 0.10631,0.0401 0.22687,-0.0282 0.3345,-0.18906 0.12056,-0.1805 0.23795,-0.23869 0.41469,-0.2056 0.18466,0.0346 0.26117,-0.009 0.30522,-0.1738 0.0472,-0.17716 0.11133,-0.20716 0.32843,-0.15388 0.22106,0.0546 0.29203,0.0181 0.39412,-0.20173 0.0939,-0.20196 0.15802,-0.24104 0.26011,-0.15802 0.10077,0.0822 0.19548,0.0427 0.36985,-0.15414 0.17543,-0.19761 0.26908,-0.23638 0.3709,-0.15336 0.10367,0.0843 0.18809,0.0282 0.35112,-0.23406 0.11791,-0.18984 0.21473,-0.28707 0.215,-0.21595 5.3e-4,0.20121 0.35692,0.15181 0.49753,-0.0691 0.0805,-0.12646 0.20102,-0.17899 0.33292,-0.14535 0.14192,0.0365 0.25087,-0.0228 0.34716,-0.18931 0.0884,-0.15233 0.23768,-0.24233 0.4023,-0.24233 0.23689,0 0.28095,-0.0719 0.45901,-0.75158 0.20286,-0.77408 0.14931,-1.05702 -0.19996,-1.05702 -0.10184,0 -0.12085,-0.10268 -0.0715,-0.38742 0.12636,-0.72803 0.0968,-0.9018 -0.1596,-0.93751 -0.16487,-0.0228 -0.23715,-0.10319 -0.23715,-0.26354 0,-0.12672 -0.0567,-0.2863 -0.12636,-0.35432 m 0.19976,1.01288 c 0.0512,-0.11483 0.0804,-0.0916 0.11238,0.0892 0.0237,0.13448 -0.008,0.29509 -0.0712,0.35664 -0.063,0.0616 -0.11449,0.28889 -0.11449,0.50483 0,0.21595 -0.0475,0.39259 -0.10526,0.39259 -0.058,0 -0.10552,0.18621 -0.10552,0.41354 0,0.22733 -0.0475,0.41328 -0.10552,0.41328 -0.15644,0 0.1282,-1.58641 0.38963,-2.1701 m 0.16382,1.74644 0.1319,-0.35147 0.0341,0.35044 c 0.0214,0.21881 -0.028,0.41149 -0.13163,0.51313 -0.21528,0.21078 -0.22873,0.007 -0.0343,-0.51207 m -7.07429,1.34038 c 0.0696,-0.4474 0.17094,-0.81336 0.22476,-0.81336 0.10789,0 0.0491,0.65072 -0.11713,1.29184 -0.2266,0.87412 -0.45505,1.87604 -0.5123,2.24768 -0.0327,0.21311 -0.10103,0.38768 -0.15116,0.38768 -0.13085,0 -0.12056,-0.076 0.16857,-1.24708 0.14298,-0.5793 0.31735,-1.41957 0.38726,-1.86674 m 6.28242,-0.61816 c 0.0784,-0.29406 0.13343,-0.23535 0.13137,0.14069 -0.001,0.22835 -0.0309,0.29069 -0.0926,0.19527 -0.0499,-0.0776 -0.0675,-0.22863 -0.0388,-0.33596 m -7.61575,1.07071 c 0.0401,-0.29843 0.12108,-0.54257 0.17965,-0.54257 0.10209,0 0.0878,0.20325 -0.0813,1.16354 -0.0377,0.21362 -0.11053,0.41408 -0.16224,0.44535 -0.0514,0.0313 -0.0936,0.16733 -0.0936,0.30259 0,0.28215 -0.3833,1.90914 -0.46956,1.99372 -0.12214,0.11976 -0.0459,-0.36236 0.24824,-1.56726 0.16831,-0.68895 0.33874,-1.49691 0.37882,-1.79537 m -1.23697,0.18077 c 0.0425,-0.097 0.0823,-0.0246 0.10684,0.19397 0.0216,0.19216 -0.0116,0.39906 -0.0739,0.4601 -0.0623,0.0608 -0.11317,0.28474 -0.11317,0.49733 0,0.21259 -0.0425,0.41223 -0.0942,0.4438 -0.052,0.0313 -0.11924,0.23173 -0.14984,0.44535 -0.0921,0.64607 -0.29651,1.51557 -0.39465,1.68005 -0.17041,0.28472 -0.11185,-0.20562 0.15406,-1.29184 0.13902,-0.56844 0.30786,-1.31251 0.37486,-1.65364 0.0673,-0.34089 0.15274,-0.68978 0.18994,-0.77512 m -4.4358,2.12256 c -0.22951,-0.22502 -0.49331,-0.19915 -0.49331,0.0478 0,0.11354 0.0491,0.20664 0.10895,0.20664 0.11976,0 0.0258,1.00968 -0.11053,1.18839 -0.0435,0.0569 -0.10501,0.26613 -0.13665,0.46526 -0.1071,0.67214 -0.2113,0.9812 -0.36932,1.09525 -0.2084,0.15026 -0.0702,0.35147 0.24138,0.35147 0.39806,0 1.08526,-3.0355 0.75946,-3.3549 m -0.72518,0.27529 c -0.23927,-0.23431 -0.50624,-0.12879 -0.50624,0.19992 0,0.12319 0.0538,0.16603 0.15828,0.12673 0.22661,-0.0851 0.20234,0.24722 -0.0543,0.74067 -0.24243,0.46655 -0.21104,0.6639 0.10262,0.64087 0.36273,-0.0269 0.60516,-1.40875 0.29968,-1.70824 m 3.94884,0.23771 0.12372,-0.41329 0.0375,0.34889 c 0.0206,0.1919 -0.0135,0.39906 -0.0757,0.45984 -0.062,0.061 -0.11291,0.26768 -0.11291,0.45932 0,0.19164 -0.0712,0.41819 -0.15828,0.50354 -0.0868,0.0853 -0.15693,0.11691 -0.15538,0.0701 0.004,-0.13163 0.20419,-0.96956 0.3411,-1.42836"
         fill="#d1d1d1"
         id="path4" />
      <path
         d="m 247.78706,146.40878 c 0,-0.12078 0.81885,-0.10216 0.89615,0.0202 4.36739,0.68784 9.04298,1.29269 13.12382,2.36178 0,0.0486 0.34402,0.11974 0.76426,0.15802 5.88189,0.5455 6.08447,7.53301 8.51222,18.1951 0,0.25241 0.0475,0.48752 0.10526,0.52267 1.15535,4.22513 1.60033,9.53734 2.63538,14.20989 0,0.28421 0.0475,0.51671 0.10552,0.51671 0.058,0 0.10552,0.0931 0.10552,0.20664 0,0.1138 -0.0475,0.2069 -0.10552,0.2069 -0.058,0 -0.10552,-0.0931 -0.10552,-0.2069 0,-0.11354 -0.0472,-0.20664 -0.10526,-0.20664 -0.058,0 -0.10552,-0.0473 -0.10552,-0.10552 0,-0.218 -0.87951,-1.94255 -1.596,-3.13014 -1.26519,-2.09585 -3.50618,-4.55744 -5.13912,-5.64446 -0.82438,-0.54882 -0.83704,-0.58063 -0.40757,-1.02469 1.88276,-1.94563 2.17267,-3.84601 1.29502,-8.49068 -0.20946,-1.10823 -0.4263,-2.25936 -0.4817,-2.55781 -0.0554,-0.29846 -0.15301,-0.81002 -0.21684,-1.13667 -0.1501,-0.76941 -0.26195,-1.37644 -0.39517,-2.14454 -0.0591,-0.34114 -0.15723,-0.86664 -0.2179,-1.16768 -0.0609,-0.30128 -0.10236,-0.58031 -0.0918,-0.62016 0.0372,-0.14249 -0.36011,-1.32315 -0.62814,-1.86573 -0.60042,-1.21607 -1.48518,-1.89004 -2.9258,-2.22884 -0.40567,-0.0954 -0.98844,-0.24777 -1.29471,-0.33854 l -0.55689,-0.16526 -12.19851,5.98035 c -6.709,3.28934 -12.22205,6.00515 -12.25106,6.0354 -0.029,0.0303 -0.18598,0.12259 -0.34874,0.20483 -0.59171,0.29922 -1.79305,1.66995 -2.22357,2.5371 -0.22555,0.45469 -0.45086,0.90751 -0.50017,1.00605 -0.0496,0.0988 -0.0899,0.2638 -0.0899,0.36699 0,0.10293 -0.0393,0.23147 -0.0876,0.28552 -0.26089,0.29301 -0.48698,3.33137 -0.29335,3.94066 0.033,0.10344 0.11264,0.51363 0.17675,0.9114 0.0644,0.39802 0.15616,0.93286 0.20418,1.18864 0.16963,0.90392 0.33687,1.81476 0.42656,2.32531 0.0499,0.28422 0.13692,0.77252 0.19337,1.0852 0.0565,0.3124 0.19838,1.10303 0.31524,1.75683 0.21527,1.20127 0.46509,2.57615 0.65766,3.6171 0.24982,1.34952 0.31814,1.74132 0.40968,2.34986 0.086,0.57 0.29417,1.73147 0.63473,3.54083 0.0588,0.31265 0.31865,1.75425 0.5777,3.20383 0.47878,2.67873 1.04465,5.77113 1.21032,6.61424 0.0504,0.25578 0.14272,0.75571 0.20497,1.11106 0.26934,1.53368 0.33133,1.87583 0.47352,2.60953 1.1012,5.67602 -0.25168,8.96885 -4.10237,9.98627 -4.34678,1.14808 -10.09142,-4.35646 -11.44734,-10.96818 -0.096,-0.46923 -1.33641,-6.99256 -1.57673,-8.29369 -0.15271,-0.82684 -0.26141,-1.40897 -0.7861,-4.21145 -0.2659,-1.42114 -0.52468,-2.81616 -0.57481,-3.10038 -0.0501,-0.28425 -0.11503,-0.63313 -0.14404,-0.77512 -0.029,-0.14224 -0.10526,-0.51416 -0.16936,-0.82684 -0.10052,-0.48994 -0.98688,-5.20169 -1.27838,-6.79507 -0.0546,-0.29846 -0.14667,-0.79839 -0.20471,-1.11081 -0.0578,-0.31271 -0.1501,-0.8126 -0.20471,-1.11106 -0.0546,-0.29841 -0.22212,-1.17051 -0.37222,-1.93785 -0.82782,-4.23392 -0.92384,-5.28079 -0.63551,-6.92437 0.6642,-3.78444 2.24835,-5.95378 5.54979,-7.59969 l 1.40053,-0.69804 0.74153,0.11741 c 0.40784,0.0647 1.42928,0.23664 2.26999,0.38225 3.29216,0.5695 3.61056,0.46706 13.26859,-4.2712 8.65596,-4.2469 8.70078,-4.27302 7.86718,-4.61467 -0.20286,-0.083 -0.36906,-0.18984 -0.36906,-0.23742 0,-0.18467 -0.61706,-0.41666 -1.42294,-0.53459 -1.86085,-0.2726 -2.06901,-0.33078 -2.0347,-0.56743 0.0348,-0.23846 1.26967,-0.92508 2.74615,-1.52691 0.44927,-0.1831 0.81701,-0.37035 0.81701,-0.41587 m -7.90556,2.05746 c 0.37409,-0.13474 1.15967,-0.0758 1.15967,0.0869 0,0.35975 -1.63238,0.72156 -1.88879,0.41871 -0.14194,-0.16758 -0.0691,-0.21827 0.72912,-0.5056 m -14.10582,3.4144 c -0.0296,-0.15208 0.0454,-0.18047 0.47326,-0.17845 l 0.50861,0.003 -0.26354,0.20431 c -0.31099,0.24104 -0.66868,0.22708 -0.7183,-0.0282 m -2.04894,4.52859 c 0.32345,-0.17199 0.94941,-0.20794 1.17549,-0.0675 0.11185,0.0693 0.0425,0.14431 -0.2857,0.30854 -0.78745,0.39387 -1.64613,0.16138 -0.88981,-0.24104 m 33.9335,1.16353 c 0.3527,-0.38225 0.77425,-0.1645 0.77425,0.40009 0,0.34889 -0.30048,0.75441 -0.55874,0.75441 -0.39253,0 -0.54211,-0.80096 -0.21553,-1.1545 m -1.64264,0.80664 c 0.27329,-0.34062 0.46613,-0.34475 0.68667,-0.0147 0.1931,0.28886 0.1348,0.71044 -0.13902,1.00838 -0.50676,0.55116 -1.02804,-0.39488 -0.54766,-0.99363 m 3.63671,0.19997 c 0.21028,-0.20586 0.40707,-0.20586 0.61732,2.6e-4 0.35717,0.35013 0.0744,1.18112 -0.4023,1.18112 -0.48064,0 -0.62283,-0.78133 -0.215,-1.18142 m -5.22572,0.56124 c 0.38856,-0.38094 0.73782,-0.19138 0.73782,0.40009 0,0.5749 -0.48909,0.93932 -0.82227,0.61268 -0.20049,-0.19653 -0.15169,-0.7813 0.0844,-1.01277 m -1.61947,0.77587 c 0.51467,-0.50479 1.05388,0.33958 0.61201,0.95797 -0.23926,0.33518 -0.6244,0.29923 -0.78136,-0.0727 -0.13902,-0.32897 -0.0794,-0.64166 0.16936,-0.88528 m 7.22986,0.52191 c 0.44003,-0.30206 0.71438,-0.12412 0.71438,0.46371 0,0.47638 -0.29707,0.77198 -0.68089,0.67759 -0.37352,-0.0921 -0.39701,-0.892 -0.0335,-1.14132 m 0.29914,1.89967 c 0.27621,-0.27078 0.53421,-0.22267 0.70779,0.13216 0.19864,0.4063 -0.0654,1.01095 -0.4416,1.01095 -0.48486,0 -0.66082,-0.75597 -0.26618,-1.14313 m -8.75335,0.21051 c 0.27278,-0.26742 0.3783,-0.25759 0.58749,0.0553 0.20682,0.30932 0.13454,0.83745 -0.14245,1.04383 -0.61545,0.45802 -1.01825,-0.53717 -0.44503,-1.09914 m -6.96079,1.47515 c 0.42578,-0.68481 1.12828,-0.0153 0.73654,0.70219 -0.1947,0.35664 -0.49303,0.43992 -0.73309,0.20457 -0.26767,-0.2625 -0.26873,-0.48054 -0.004,-0.90675 m 16.07198,0.22786 c 0.30257,-0.29664 0.40493,-0.31139 0.62968,-0.0913 0.3638,0.3566 0.0731,1.18112 -0.41628,1.18112 -0.49595,0 -0.62943,-0.682 -0.21341,-1.08985 m -8.87747,0.26175 c 0.14585,-0.22914 0.49831,-0.27052 0.69141,-0.0812 0.31788,0.31139 -0.004,1.2194 -0.4321,1.2194 -0.37011,0 -0.53183,-0.71042 -0.25932,-1.13819 m -8.76517,0.22189 c 0.27328,-0.28759 0.52784,-0.24983 0.70037,0.10345 0.27728,0.56666 -0.31734,1.27866 -0.76395,0.91503 -0.22925,-0.18648 -0.19442,-0.74718 0.0636,-1.01848 m 3.52778,0.31915 c 0.31577,-0.44201 0.89007,-0.2033 0.89007,0.36983 0,0.26069 -0.39092,0.74406 -0.60197,0.74406 -0.40599,0 -0.58616,-0.69673 -0.28807,-1.11389 m -5.15516,0.47612 c 0.35296,-0.38225 0.77425,-0.1645 0.77425,0.40009 0,0.34889 -0.30022,0.75441 -0.55874,0.75441 -0.39253,0 -0.54185,-0.8007 -0.21552,-1.1545 m 19.59687,0.55729 c 0.32605,-0.45623 0.78656,-0.18519 0.78296,0.46113 -0.002,0.34734 -0.0815,0.47976 -0.3804,0.6339 -0.46561,0.24002 -0.76819,-0.58318 -0.40256,-1.095 m -21.13167,0.15927 c 0.27147,-0.22086 0.58882,-0.0918 0.68352,0.27828 0.0897,0.35046 -0.0332,0.65356 -0.3461,0.85478 -0.57957,0.37216 -0.89295,-0.68044 -0.3374,-1.13303 m 12.27679,0.15074 c 0.20943,-0.29327 0.63311,-0.30051 0.78981,-0.0134 0.21845,0.39983 -0.13346,1.12733 -0.54473,1.12733 -0.38647,0 -0.54053,-0.70035 -0.24507,-1.11389 m -5.0856,0.36828 c 0.41365,-0.25785 0.76846,0.12208 0.6574,0.70345 -0.0699,0.36518 -0.38434,0.61683 -0.64761,0.51777 -0.37141,-0.13991 -0.37853,-0.99156 -0.01,-1.22122 m 14.30718,1.17855 c 0.39149,-0.41227 0.78321,-0.1777 0.76477,0.45751 -0.0124,0.42803 -0.18677,0.65976 -0.49726,0.65976 -0.50149,0 -0.66821,-0.69572 -0.26749,-1.11727 m -8.90585,0.38224 c 0.36034,-0.68299 1.0966,-0.10678 0.79007,0.61839 -0.16724,0.39621 -0.47904,0.50613 -0.75101,0.26483 -0.24613,-0.2183 -0.25721,-0.46967 -0.0391,-0.88321 m -5.15515,0.40731 c 0.35797,-0.38795 0.77425,-0.16343 0.77425,0.41768 0,0.5749 -0.48909,0.93932 -0.82227,0.61268 -0.18412,-0.18052 -0.15484,-0.81077 0.048,-1.03035 m -8.81104,0.28991 c 0.27406,-0.34164 0.46611,-0.34475 0.68955,-0.0106 0.35879,0.53692 -0.18492,1.35986 -0.67559,1.02287 -0.29728,-0.20406 -0.30335,-0.65148 -0.014,-1.01226 m 14.39792,1.05336 c 0.34557,-0.37451 0.77425,-0.1658 0.77425,0.37707 0,0.59122 -0.48935,0.97993 -0.82227,0.65354 -0.18413,-0.18052 -0.15484,-0.81077 0.048,-1.0306 m -5.22214,0.46839 c 0.20392,-0.24078 0.65371,-0.1319 0.76688,0.18569 0.22185,0.6225 -0.49066,1.33165 -0.85576,0.85164 -0.16672,-0.21906 -0.11766,-0.79348 0.0889,-1.03737 m 12.4267,0.0662 c 0.25326,-0.24826 0.45402,-0.26274 0.63736,-0.0463 0.3187,0.3768 0.0195,1.18294 -0.43896,1.18294 -0.41337,0 -0.55134,-0.79063 -0.19838,-1.13667 m -21.18728,0.18492 c 0.28541,-0.22653 0.36007,-0.22964 0.5711,-0.0225 0.36246,0.35534 0.0731,1.18112 -0.4139,1.18112 -0.4635,0 -0.57588,-0.82631 -0.15723,-1.15864 m 19.6386,0.50175 c 0.43239,-0.17249 0.70542,0.0298 0.70542,0.52242 0,0.64087 -0.59039,0.96778 -0.903,0.49992 -0.18545,-0.27725 -0.0615,-0.91918 0.19759,-1.02237 m -5.3499,0.67993 c 0.31549,-0.44175 0.80563,-0.24001 0.80563,0.33156 0,0.6414 -0.60487,1.05055 -0.8605,0.58217 -0.15643,-0.28654 -0.1348,-0.64837 0.0549,-0.91372 m 3.5843,0.30977 c 0.22344,-0.31266 0.64946,-0.30284 0.79903,0.0186 0.14325,0.30806 0.005,0.76451 -0.28886,0.9559 -0.49174,0.32018 -0.89085,-0.44171 -0.51019,-0.97448 m -8.74766,0.13932 c 0.36088,-0.3538 0.78296,-0.12362 0.78296,0.42673 0,0.35923 -0.3023,0.75441 -0.57744,0.75441 -0.43896,0 -0.58063,-0.81336 -0.2055,-1.18112 m -8.81004,0.25108 c 0.24404,-0.23897 0.26224,-0.24259 0.53422,-0.0998 0.36507,0.19163 0.23584,1.12322 -0.17754,1.27865 -0.48592,0.18285 -0.77399,-0.76939 -0.35666,-1.17879 m 15.97648,0.33305 c 0.31948,-0.4477 0.78455,-0.22424 0.78455,0.37707 0,0.5749 -0.48909,0.93933 -0.82227,0.61268 -0.17781,-0.17456 -0.15724,-0.71715 0.0377,-0.98974 m -6.8517,1.34327 c 0.30813,-0.43138 0.78455,-0.22732 0.78455,0.33647 0,0.59122 -0.48909,0.97993 -0.82227,0.65329 -0.17808,-0.17431 -0.15724,-0.71689 0.0377,-0.98974 m -8.79675,0.24412 c 0.26697,-0.33285 0.50466,-0.31216 0.71887,0.0626 0.32417,0.56587 -0.28861,1.34381 -0.72283,0.91811 -0.27946,-0.27412 -0.27788,-0.62897 0.004,-0.9807 m 0.59258,1.66474 c 0.10235,-0.0261 0.19441,-0.053 0.20497,-0.0595 0.0103,-0.007 0.0934,0.061 0.1844,0.15026 0.40624,0.39857 -0.0831,1.43772 -0.55951,1.18789 -0.42867,-0.22502 -0.30443,-1.15736 0.17015,-1.27865 m 6.94908,0.73757 c 0.3527,-0.38225 0.77425,-0.1645 0.77425,0.40009 0,0.34863 -0.30048,0.75441 -0.55874,0.75441 -0.39253,0 -0.54211,-0.80096 -0.21553,-1.1545 m -1.62895,0.7674 c 0.13926,-0.1645 0.52997,-0.16786 0.69537,-0.006 0.32526,0.31912 0,1.11621 -0.45559,1.11621 -0.44846,0 -0.59724,-0.68822 -0.23979,-1.11056 m -5.18242,0.51004 c 0.25561,-0.26923 0.34821,-0.27958 0.56822,-0.0639 0.30601,0.30028 0.16883,1.07847 -0.21579,1.22304 -0.48592,0.18285 -0.76265,-0.72751 -0.35244,-1.15915 m 3.58009,0.29042 c 0.28014,-0.27464 0.48617,-0.26068 0.69141,0.0466 0.26193,0.3918 -0.0541,1.09035 -0.49331,1.09035 -0.41311,0 -0.55108,-0.79089 -0.19812,-1.13692 m -1.6134,0.80454 c 0.38886,-0.4213 0.89166,0.0494 0.72968,0.68304 -0.0897,0.34966 -0.51575,0.56355 -0.7471,0.37527 -0.21605,-0.17587 -0.2055,-0.81698 0.0174,-1.05828 m -12.01351,21.64741 c -0.21157,-0.21595 -0.42499,-0.33283 -0.59831,-0.32768 -0.148,0.004 -0.20972,0.0316 -0.13744,0.0603 0.0726,0.0287 0.1319,0.18957 0.1319,0.35768 0,0.39337 0.31551,0.99157 0.72361,1.37149 l 0.32104,0.29923 0.12425,-0.2669 c 0.15987,-0.34448 -0.0924,-1.01148 -0.56508,-1.49408"
         fill="#14c3e2"
         id="path6" />
      <path
         d="m 233.87056,147.78169 c 1.56138,-0.32411 2.28797,-0.25421 5.34989,0.25423 0.42841,0.0711 0.43579,0.19139 0.0222,0.35923 -0.37354,0.15183 -0.56137,0.44019 -0.47009,0.72209 0.20603,0.63678 2.68788,0.082 2.68788,-0.60076 0,-0.11872 0.0955,-0.13731 0.44793,-0.0872 5.36932,0.7658 5.34347,0.76037 5.67138,1.21193 0.12108,0.1663 0.2878,0.30259 0.3709,0.30259 0.0828,0 0.15089,0.0928 0.15089,0.20664 0,0.11354 -0.052,0.20664 -0.11555,0.20664 -0.0636,0 -0.24401,0.0897 -0.40097,0.1994 -0.15662,0.1094 -3.66249,1.85618 -7.79041,3.88147 -9.4451,4.63381 -9.33902,4.60123 -13.09239,4.02603 -1.01459,-0.15569 -2.12941,-0.30362 -2.47736,-0.32923 -0.34772,-0.0254 -0.67984,-0.0833 -0.73788,-0.12854 -0.12623,-0.0982 -3.01632,-0.64757 -5.48127,-1.04171 -1.04044,-0.1663 -1.21217,-0.24699 -1.21217,-0.5695 0,-0.4857 0.60197,-0.85498 4.55055,-2.79106 l 3.87156,-1.89856 0.2237,0.30802 c 0.38939,0.53613 0.55874,0.56329 1.2383,0.19914 1.18207,-0.6331 1.23457,-0.84751 0.2274,-0.9269 l -0.67693,-0.0533 3.32044,-1.6252 c 2.958,-1.44778 3.42993,-1.64718 4.32211,-1.82537 m 1.09583,4.60285 c -1.34726,-0.44999 -4.71418,0.27028 -5.67756,1.21476 -0.35584,0.34862 -0.33606,2.10571 0.0275,2.46209 0.14354,0.14067 2.55781,0.11792 2.70369,-0.0251 0.0554,-0.0543 0.23056,-0.0985 0.38963,-0.0985 0.15881,0 0.31473,-0.0414 0.34637,-0.0915 0.0319,-0.0502 0.28357,-0.12385 0.55977,-0.16371 0.54895,-0.0791 1.68674,-0.56951 2.19271,-0.94529 l 0.32026,-0.23768 -0.0934,-0.7536 c -0.13194,-1.06371 -0.19073,-1.16819 -0.76874,-1.36139 m -9.42536,3.70688 c -0.30469,-0.36001 -2.0181,-0.13707 -2.51853,0.32768 -0.71227,0.66156 0.65395,1.00556 1.83712,0.46268 0.72046,-0.33054 0.8972,-0.53563 0.68141,-0.79038 m 38.10715,28.6431 c -0.0979,-0.72749 0.0955,-0.54126 0.65343,0.629 1.25121,2.62549 1.83131,5.57228 1.51949,7.72091 -0.21421,1.47469 -0.53535,2.1404 -0.53947,1.11753 -0.001,-0.27002 -0.0741,-0.88631 -0.1625,-1.36942 -0.0886,-0.48313 -0.2551,-1.41341 -0.36985,-2.06696 -0.28625,-1.62697 -0.74051,-4.07436 -0.93994,-5.0641 -0.0514,-0.25578 -0.12398,-0.6908 -0.16118,-0.96701 m -25.98124,13.08444 c -0.004,-0.28472 0.13559,-0.09 0.51994,0.7234 1.58518,3.35485 1.91811,7.07312 0.83546,9.33116 -0.25138,0.52448 -0.45822,0.45493 -0.28358,-0.0952 0.26883,-0.84735 0.12794,-3.31647 -0.33107,-5.79952 -0.6392,-3.45729 -0.7387,-4.01619 -0.74076,-4.15972 m 23.11298,1.82594 c 0.38724,-0.21179 0.53628,-0.20222 0.58378,0.0375 -0.005,0.84397 -1.77251,1.43317 -2.49828,1.92083 -1.9771,1.06666 -4.26038,1.88007 -6.05572,2.86814 -0.13112,-0.0336 -0.47881,0.10293 -0.92727,0.36414 -0.93308,0.54336 -1.0692,0.47689 -0.40335,-0.19656 1.73624,-1.94452 6.09755,-2.99729 9.30099,-4.99404 m -31.08453,1.28925 c 0.21232,-0.54263 1.11717,0.51313 1.11717,1.3032 0,0.44432 -0.17515,0.46811 -0.57296,0.0784 -0.35612,-0.34917 -0.65316,-1.10331 -0.54421,-1.38159"
         fill="#7821e0"
         id="path8" />
      <path
         d="m 246.73524,146.42845 c 0.20479,-0.0393 0.69802,0.078 1.05416,-0.0194 0,0.0455 -0.36776,0.23276 -0.81701,0.41587 -1.47647,0.60182 -2.71132,1.28846 -2.74615,1.52691 -0.0343,0.23665 0.17383,0.29484 2.0347,0.56743 0.80594,0.11795 1.42294,0.34994 1.42294,0.53459 0,0.0476 0.16619,0.1544 0.36906,0.23742 0.41206,0.16888 0.43659,0.22784 0.21421,0.51621 -0.15091,0.19577 -0.15493,0.19474 -0.15802,-0.0318 -0.002,-0.13138 -0.0691,-0.2325 -0.15432,-0.2325 -0.0831,0 -0.24982,-0.1363 -0.3709,-0.30259 -0.32767,-0.45156 -0.30191,-0.44615 -5.67138,-1.21193 -0.35244,-0.0502 -0.44793,-0.0316 -0.44793,0.0872 0,0.68274 -2.48185,1.23749 -2.68788,0.60076 -0.0913,-0.2819 0.0965,-0.57027 0.47009,-0.72209 0.41364,-0.16784 0.40626,-0.28811 -0.0222,-0.35923 -4.14276,-0.68112 -4.39264,-1.24062 -12.99244,3.19635 l 0.67693,0.0533 c 1.00719,0.0794 0.95469,0.29381 -0.2274,0.9269 -0.67956,0.36414 -0.84892,0.33697 -1.2383,-0.19914 l -0.2237,-0.30802 c -3.45151,2.10903 -5.70971,2.28405 -8.42206,4.68962 0,0.32251 0.17177,0.4032 1.21217,0.5695 2.6345,0.4213 5.33847,0.94451 5.5503,1.07434 0.15698,0.096 -0.0253,0.21957 -1.1826,0.80381 -3.19633,1.61378 -4.76595,3.79408 -5.42202,7.53301 -0.28831,1.64358 -0.19233,2.6907 0.63551,6.92437 0.1501,0.76734 0.31761,1.6394 0.37222,1.93785 0.0546,0.29846 0.14694,0.79838 0.20471,1.11106 0.058,0.31245 0.1501,0.81235 0.20471,1.11081 0.2915,1.59358 1.17787,6.30498 1.27838,6.79507 0.0641,0.31271 0.14035,0.6846 0.16936,0.82684 0.029,0.14203 0.0939,0.49089 0.14404,0.77512 0.0501,0.28422 0.30891,1.67924 0.57481,3.10038 0.52467,2.80248 0.63336,3.3846 0.7861,4.21145 0.24029,1.30113 1.48071,7.82454 1.57673,8.29369 1.35602,6.61192 7.10097,12.11646 11.44734,10.96818 2.03599,-0.53798 3.35368,-1.72581 4.06332,-3.66241 0.13269,-0.36235 0.27143,-0.60002 0.31234,-0.53485 0.0435,0.0688 0.16778,-0.0791 0.30232,-0.35949 1.08368,-2.26031 0.74998,-5.97636 -0.83917,-9.33873 -0.2237,-0.4733 -0.44766,-0.83588 -0.49753,-0.80563 -0.0916,0.0556 -0.26358,-0.80179 -1.12644,-5.61971 -0.25982,-1.44958 -0.52072,-2.89115 -0.57981,-3.20383 -0.65845,-3.47332 -0.74075,-4.09764 -0.50175,-3.80565 0.0723,0.0884 0.4163,0.21129 0.76426,0.27311 0.34771,0.0615 0.94072,0.16733 1.31769,0.23483 0.37667,0.0678 1.08183,0.11964 1.56643,0.11509 0.7571,-0.007 0.88821,0.0179 0.92989,0.17431 0.0266,0.10009 0.1902,0.26406 0.36326,0.3644 2.21214,1.36174 4.38336,3.9542 5.96659,6.88497 2.19793,4.06906 3.13811,9.00305 2.12275,12.63045 -0.43421,0.79553 0.70753,0.1236 2.06978,-1.21789 l 1.26519,-1.24552 4.48012,-2.19237 c 4.6979,-2.29891 4.88891,-2.36796 5.33289,-1.93295 0.33267,0.32613 0.27909,0.33233 1.26545,-0.14276 1.18023,-0.56874 1.54771,-1.02626 1.94103,-2.4179 0.23822,-0.8426 0.28939,-2.765 0.0989,-3.70973 -0.29233,-1.44857 -0.39995,-2.0263 -0.89141,-4.78766 -0.20236,-1.13692 -0.46352,-2.57847 -0.58012,-3.20383 -0.11686,-0.62511 -0.26274,-1.41571 -0.32421,-1.75683 -0.0617,-0.34089 -0.15245,-0.82942 -0.20181,-1.0852 -0.0491,-0.25578 -0.14614,-0.76735 -0.21526,-1.13667 -0.34318,-1.8282 -1.27735,-2.93512 -3.05243,-3.61609 -1.27075,-0.48775 -1.30136,-0.50534 -1.1589,-0.67345 0.0657,-0.0778 1.60368,-0.86897 3.41756,-1.75814 4.37224,-2.14343 4.8386,-2.5368 5.7569,-4.85539 0.44055,-1.11232 0.47563,-2.52624 0.11317,-4.54713 -0.33636,-1.87507 -0.55426,-3.0593 -0.63762,-3.46224 -0.053,-0.25578 -0.1509,-0.76735 -0.21764,-1.13692 -0.0667,-0.36933 -0.16147,-0.88089 -0.21078,-1.13667 -0.0491,-0.25578 -0.1443,-0.76735 -0.21157,-1.13692 -0.067,-0.36933 -0.16619,-0.88089 -0.22027,-1.13667 -0.0541,-0.25578 -0.17094,-0.83717 -0.25958,-1.29184 -0.28439,-1.46018 -0.94334,-2.58317 -1.85453,-3.16039 -0.54921,-0.34758 -0.72412,-0.40551 -2.32697,-0.77017 l -1.13067,-0.25733 -0.86606,0.41173 c -0.47643,0.22656 -0.88559,0.39286 -0.90959,0.36957 -0.0238,-0.0236 0.41206,-0.26122 0.96869,-0.52838 l 1.01166,-0.48595 0.554,0.16422 c 0.30469,0.0905 0.8861,0.24234 1.29182,0.33777 1.44062,0.33882 2.32538,1.01277 2.9258,2.22884 0.26805,0.54257 0.66534,1.72322 0.62814,1.86573 -0.0106,0.0398 0.0309,0.31886 0.0918,0.62016 0.0607,0.30104 0.15881,0.82656 0.2179,1.16768 0.13322,0.76815 0.24507,1.37513 0.39517,2.14454 0.0638,0.32665 0.16144,0.83821 0.21684,1.13667 0.0554,0.29846 0.27224,1.44963 0.4817,2.55781 0.87765,4.64442 0.58775,6.54504 -1.29502,8.49068 -0.42948,0.44408 -0.41681,0.4759 0.40757,1.02469 2.66217,1.88856 5.89163,5.99025 7.15671,9.55188 0,0.14198 0.0472,0.25836 0.10526,0.25836 0.058,0 0.10552,0.14225 0.10552,0.31604 0,0.1844 -0.0441,0.28969 -0.10552,0.25216 -0.058,-0.0349 -0.10526,-0.17224 -0.10526,-0.30492 -1.135,-2.38658 -3.12482,-5.67653 -5.218,-8.01437 -0.087,0 -0.15828,-0.0476 -0.15828,-0.10552 0,-0.22138 -1.0961,-1.23804 -1.33484,-1.23804 -0.16934,0 -0.22215,-0.0455 -0.17938,-0.15414 0.0364,-0.0931 -0.0174,-0.18232 -0.13507,-0.22501 -0.10763,-0.0388 -0.39014,-0.22526 -0.62809,-0.41432 -0.48247,-0.38302 -0.59169,-0.40941 -0.80985,-0.19552 -0.0831,0.0812 -1.5926,0.85447 -3.3545,1.71829 -3.9119,1.91745 -3.64229,1.71417 -2.76016,2.08297 0.39387,0.16474 0.89613,0.37475 1.11614,0.46682 0.22002,0.0918 0.50018,0.2519 0.62232,0.35587 0.83463,0.39872 0.67482,0.65127 1.37781,1.89391 0.28992,0.78724 0.39306,1.1527 0.39306,1.39063 0,0.13138 0.0435,0.40734 0.0963,0.61268 0.053,0.20557 0.1538,0.62379 0.22397,0.92923 0.0702,0.30542 0.20682,0.63284 0.30337,0.72749 0.5421,0.53161 1.8073,3.42016 2.26711,5.17623 0.63472,2.42356 0.42158,5.77457 -0.44582,7.00872 -0.10711,0.15229 -0.25509,0.55628 -0.3287,0.89741 -0.2424,1.12323 -1.07365,2.42851 -1.54665,2.42851 -0.0678,0 -0.1939,0.10551 -0.2799,0.23431 -0.0863,0.12879 -0.4498,0.38224 -0.80805,0.56354 l -0.65158,0.32923 -0.0934,-0.22759 c -0.0731,-0.17795 -0.095,-0.18803 -0.10024,-0.0468 -0.004,0.0995 -0.20207,0.36697 -0.44107,0.5943 -0.35085,0.33389 -0.3965,0.4164 -0.23716,0.42958 0.10842,0.009 0.31577,0.0354 0.4606,0.059 0.80114,0.1306 2.09297,0.0579 2.6058,-0.14664 0.1865,-0.0745 0.46376,-0.13526 0.61624,-0.13526 0.15222,0 0.40283,-0.0628 0.55663,-0.13966 3.85341,-1.74113 3.56618,-1.32574 0.47062,0.24233 -0.12715,2.6e-4 -0.26038,0.0471 -0.29599,0.10397 -1.28899,0.4842 -2.86171,0.43721 -4.40124,0.36492 -0.35112,-0.0574 -0.50069,-0.0468 -0.50069,0.0351 -3.53276,2.06302 -7.99732,3.55401 -12.09134,5.58536 -0.43622,1.16743 -1.88787,2.69974 -3.131,3.80676 -0.0235,-0.0142 -0.18572,0.12104 -0.36061,0.30052 -1.96911,1.39881 -5.28075,2.74327 -7.6611,3.24444 -1.13855,0.1795 -3.53121,-0.0422 -3.53121,-0.32716 0,-0.0502 -0.11924,-0.0916 -0.26512,-0.0916 -0.14562,0 -0.34743,-0.0434 -0.44793,-0.0965 -0.10078,-0.0533 -0.33715,-0.1575 -0.52577,-0.23199 -0.18835,-0.0745 -0.34241,-0.17043 -0.34241,-0.21336 0,-0.0432 -0.095,-0.0781 -0.21104,-0.0781 -0.11581,0 -0.21078,-0.0466 -0.21078,-0.10345 0,-0.0569 -0.0915,-0.10345 -0.20312,-0.10345 -0.11185,0 -0.27461,-0.0696 -0.36167,-0.15492 -0.0868,-0.0853 -0.20893,-0.15491 -0.27093,-0.15491 -0.0623,0 -0.11291,-0.0465 -0.11291,-0.10345 0,-0.0569 -0.095,-0.10345 -0.21078,-0.10345 -0.11607,0 -0.21104,-0.0463 -0.21104,-0.10319 0,-0.0569 -0.071,-0.10345 -0.15802,-0.10345 -0.0871,0 -0.15802,-0.0465 -0.15802,-0.10319 0,-0.0569 -0.0733,-0.10345 -0.16276,-0.10345 -0.0892,0 -0.26433,-0.0931 -0.38858,-0.20664 -0.12451,-0.11379 -0.2886,-0.20664 -0.36457,-0.20664 -0.0762,0 -0.13823,-0.0396 -0.13823,-0.0877 0,-0.0484 -0.18994,-0.17173 -0.42181,-0.27414 -0.23188,-0.10242 -0.42237,-0.21414 -0.4234,-0.24828 -0.003,-0.12441 -0.60938,-0.73345 -0.72994,-0.73345 -0.068,0 -0.0947,-0.0465 -0.0588,-0.10345 0.0359,-0.0569 -0.0116,-0.10319 -0.10552,-0.10319 -0.0937,0 -0.14111,-0.0465 -0.10526,-0.10345 0.0356,-0.0569 0.0169,-0.10345 -0.0417,-0.10345 -0.11896,0 -0.50754,-0.36958 -0.74602,-0.70916 -0.34318,-0.47176 -3.37707,-3.54275 -4.11474,-9.67715 -0.36853,-2.05559 -0.74603,-4.07416 -1.15967,-6.20107 -0.12161,-0.62511 -0.26617,-1.38079 -0.32104,-1.67924 -0.18888,-1.02595 -0.29836,-1.62854 -0.36141,-1.98932 -0.0345,-0.19916 -0.10816,-0.59434 -0.16356,-0.87857 -0.16673,-0.85811 -0.50096,-2.62994 -0.68193,-3.6171 -0.0939,-0.51156 -0.21658,-1.16252 -0.27277,-1.44675 -0.0565,-0.28422 -0.14667,-0.74925 -0.20049,-1.03348 -0.49722,-2.61792 -1.36066,-7.20899 -1.47699,-7.85425 -0.0512,-0.28422 -0.16883,-0.93519 -0.26143,-1.44675 -0.0923,-0.51156 -0.28675,-1.5117 -0.43158,-2.22212 -1.14685,-5.6192 0.99146,-10.51409 5.45654,-12.49205 0.71305,-0.31577 0.69352,-0.38017 -0.15538,-0.51646 -0.4184,-0.067 -1.02142,-0.16526 -1.34036,-0.21854 -0.31871,-0.053 -0.88796,-0.1438 -1.26493,-0.20147 -2.6177,-0.40033 -2.77678,-0.43629 -3.13713,-0.70577 -0.31709,-0.2369 -0.3411,-0.28552 -0.19363,-0.3913 0.0926,-0.0662 0.16831,-0.1663 0.16831,-0.22242 0,-0.0559 0.1,-0.19035 0.22212,-0.29871 0.12214,-0.10812 0.31366,-0.37295 0.42604,-0.58839 4.4421,-2.30425 9.40146,-4.94682 14.63697,-7.39916 0.25168,-0.0577 1.00099,-0.44288 2.63538,-0.76012 1.12145,-0.19397 1.60419,-0.11816 2.44439,0.0712 0.67008,0.15102 2.38792,0.45516 4.14405,0.7337 0.5218,0.083 1.17762,0.19707 1.45751,0.25371 0.91696,0.18544 1.29183,0.13837 1.56566,-0.19681 0.14591,-0.1787 0.76611,-0.5545 1.53614,-0.93079 0.71016,-0.34731 1.29131,-0.67758 1.29131,-0.73396 m -3.9301,0.20715 c 0.20155,-0.28216 0.51678,-0.25862 0.72598,0.054 0.15485,0.23199 0.1873,0.24208 0.29809,0.0936 0.1541,-0.20664 0.57748,-0.1588 0.7318,0.0828 0.17648,0.2757 -0.0625,0.46035 -0.40045,0.30932 -0.20738,-0.0926 -0.25061,-0.089 -0.20893,0.0173 0.0731,0.18673 -0.23083,0.40863 -0.47458,0.3463 -0.13717,-0.0352 -0.21896,0.0106 -0.2543,0.14277 -0.0834,0.31242 -0.50731,0.24129 -0.8368,-0.14018 -0.15986,-0.18543 -0.26461,-0.26302 -0.23241,-0.1725 0.10474,0.29431 -0.21395,0.44303 -0.52391,0.24388 -0.40522,-0.26018 -0.21025,-0.60958 0.27145,-0.48595 0.12873,0.0328 0.196,-0.005 0.196,-0.10991 0,-0.16319 0.387,-0.34604 0.49911,-0.23587 0.034,0.0331 0.12795,-0.0323 0.20893,-0.1456 m -1.76219,1.91769 c 0,-0.16268 -0.78561,-0.22164 -1.15967,-0.0869 -0.79824,0.28732 -0.87105,0.33802 -0.72912,0.5056 0.25642,0.30287 1.88879,-0.059 1.88879,-0.41871 m 6.43337,2.06692 c 0.34611,-0.23973 0.52391,-0.315 0.52391,-0.22216 0,0.0535 -0.72757,0.47535 -0.8199,0.47535 -0.0385,0 0.0944,-0.11406 0.29599,-0.25319 m -20.98067,1.2892 0.26354,-0.20431 -0.50861,-0.003 c -0.42787,-0.002 -0.50278,0.0264 -0.47326,0.17845 0.0496,0.25526 0.40728,0.26922 0.7183,0.0282 m 6.21958,0.41713 c 1.26653,-0.23096 2.66281,-0.0119 2.84403,0.44587 0.0478,0.12102 0.12897,0.55915 0.18044,0.97373 l 0.0934,0.7536 -0.32026,0.23768 c -0.50598,0.37579 -1.64376,0.86615 -2.19271,0.94529 -0.27619,0.0398 -0.52783,0.11355 -0.55977,0.16371 -0.0317,0.0502 -0.18756,0.0916 -0.34637,0.0916 -0.15907,0 -0.33424,0.0442 -0.38963,0.0985 -0.12004,0.11768 -2.49187,0.17173 -2.67469,0.061 -0.0704,-0.0424 -0.10105,-0.14483 -0.0688,-0.22707 0.0325,-0.0825 0.0185,-0.12544 -0.0311,-0.0957 -0.0976,0.0592 -0.22136,-0.75775 -0.22291,-1.46923 -0.002,-0.87756 1.20898,-1.5272 3.68846,-1.97902 m 24.73549,1.15036 c 1.26836,-0.62329 1.40739,-0.68124 1.40739,-0.58606 0,0.0804 -2.55412,1.30088 -2.60926,1.24683 -0.0261,-0.0256 0.51469,-0.323 1.20187,-0.66077 m 4.62283,0.65347 c 1.60419,-0.37241 2.75673,0.79634 3.20968,3.25454 0.21816,1.18425 0.33213,1.78607 0.53288,2.81617 0.0583,0.29846 0.27435,1.44932 0.47985,2.55781 0.20576,1.10843 0.47642,2.50346 0.60119,3.10038 0.5083,2.4279 0.1625,4.17776 -1.07606,5.44242 -0.49048,0.50106 -1.29007,0.91018 -13.17946,6.74355 l -12.65704,6.20966 h -0.6624 c -0.54869,0 -0.74442,-0.051 -1.14118,-0.29767 -1.07709,-0.66976 -1.18786,-1.01979 -2.35809,-7.45321 -0.0879,-0.48313 -0.20234,-1.08778 -0.25457,-1.34356 -0.0522,-0.25578 -0.14641,-0.74407 -0.20919,-1.0852 -0.0631,-0.34084 -0.20919,-1.10172 -0.325,-1.69036 -0.47801,-2.43154 -0.0636,-4.28277 1.2351,-5.51768 0.49099,-0.46671 24.9456,-12.53789 25.80404,-12.73703 m -7.35946,0.69358 c 1.25226,-0.62147 1.40368,-0.68535 1.40368,-0.59172 0,0.0796 -2.5462,1.31097 -2.60081,1.25769 -0.0266,-0.0261 0.51206,-0.32588 1.19713,-0.66597 m 8.63724,-0.39437 c -0.9995,-0.4561 0.37352,-1.04505 -14.10322,6.04651 -13.87642,6.79734 -13.06627,6.33957 -13.76061,7.77647 -0.57297,1.18526 -0.65422,2.0219 -0.35454,3.65256 0.24612,1.34123 0.3308,1.79488 0.42419,2.27359 0.0557,0.28422 0.14826,0.77252 0.20629,1.0852 0.0578,0.31271 0.1807,0.96364 0.27303,1.44675 0.0921,0.48313 0.21289,1.12269 0.26828,1.42114 0.0554,0.29846 0.15063,0.81003 0.21183,1.13667 0.0609,0.3269 0.15776,0.8501 0.21474,1.16278 0.37852,2.07287 0.46059,2.29268 1.12351,3.01194 0.92572,1.00476 1.45277,0.96804 3.92669,-0.2744 0.7827,-0.39312 1.56539,-0.78286 1.73923,-0.86614 0.17409,-0.0833 1.45489,-0.70815 2.84615,-1.38831 1.39157,-0.68016 4.66467,-2.27874 7.27366,-3.55245 2.60895,-1.27375 4.83861,-2.36851 4.95442,-2.43265 0.11608,-0.0644 1.6316,-0.81235 3.36846,-1.66242 4.84097,-2.36906 5.47699,-3.29828 4.7964,-7.00721 -0.11871,-0.64632 -0.26486,-1.45425 -0.32526,-1.79511 -0.0604,-0.34114 -0.15117,-0.82942 -0.20207,-1.0852 -0.0509,-0.25578 -0.12031,-0.62796 -0.15406,-0.82684 -0.034,-0.19891 -0.10396,-0.54779 -0.15512,-0.77512 -0.0514,-0.22734 -0.14456,-0.69235 -0.20708,-1.03348 -0.22581,-1.23234 -0.736,-3.93524 -0.80934,-4.28878 -0.17094,-0.82396 -0.84447,-1.70071 -1.55592,-2.02554 m -12.01269,2.04578 c 1.47519,-0.72598 1.61738,-0.78673 1.61738,-0.69027 0,0.0799 -2.97463,1.50831 -3.02951,1.45478 -0.0261,-0.0256 0.60938,-0.36959 1.41213,-0.76451 m -27.74687,-0.40009 c 0.48831,-0.18336 1.7957,-0.17224 1.95556,0.0168 0.39068,0.46141 -0.98847,1.15452 -2.02548,1.01822 -0.95206,-0.12547 -0.91537,-0.66443 0.0699,-1.03504 m 1.31373,0.26813 c -0.34215,-0.21262 -1.4654,0.0256 -1.4654,0.31087 0,0.27291 0.63154,0.27162 1.17972,-0.003 0.32815,-0.16423 0.39755,-0.23923 0.2857,-0.30854 m 32.70777,1.17794 c 0.27304,-0.28501 0.53657,-0.30621 0.72783,-0.0582 0.1187,0.15388 0.11738,0.16138 -0.008,0.0515 -0.36696,-0.32069 -0.84365,0.0171 -0.84365,0.59768 0,0.41769 0.21473,0.67709 0.47853,0.57778 0.0949,-0.0357 0.13771,-0.0186 0.10051,0.0401 -0.0944,0.15 -0.27303,0.12492 -0.49173,-0.0688 -0.27144,-0.24103 -0.25244,-0.83845 0.0367,-1.14 m -14.74469,3.10425 c 6.23419,-3.06084 7.69974,-3.68258 7.69974,-3.57861 0,0.0282 -4.08928,1.96351 -7.62606,3.69731 -5.56003,2.72398 -8.42766,3.98217 -0.0741,-0.11871 m 15.57097,-2.66485 c 0,-0.14586 0.0237,-0.26509 0.0525,-0.26509 0.12398,0 0.0388,0.59767 -0.11106,0.78103 -0.15828,0.19395 -0.16013,0.19292 -0.0528,-0.0251 0.0612,-0.12414 0.11132,-0.345 0.11132,-0.49087 m 1.33428,0.43245 c 0.0638,-0.1019 0.26459,-0.096 0.44002,0.0129 0.0934,0.0582 0.0348,0.0835 -0.17411,0.076 -0.17305,-0.006 -0.29281,-0.0463 -0.26591,-0.089 m -31.90459,0.34114 c -0.64081,-0.11174 -0.0391,-0.12053 0.68507,-0.0101 0.43105,0.0659 0.4598,0.0816 0.15802,0.0866 -0.20284,0.003 -0.58218,-0.031 -0.84308,-0.0765 m 28.94063,0.17072 c 0.0404,-0.15879 0.0939,-0.26895 0.11871,-0.24466 0.0994,0.0975 -0.10315,0.58139 -0.31709,0.75881 -0.22426,0.18541 -0.22505,0.18515 -0.0515,-0.0184 0.0968,-0.11354 0.20917,-0.33673 0.24982,-0.49578 m -2.35281,0.0882 c 0.12873,-0.0884 0.28306,-0.15928 0.34241,-0.15776 0.0596,0.002 0.0135,0.054 -0.10236,0.11638 -0.11607,0.0621 -0.27013,0.18595 -0.34267,0.27492 -0.0726,0.089 -0.13164,0.10915 -0.13164,0.0447 0,-0.0647 0.10526,-0.18957 0.23426,-0.27828 m 0.73891,0.56277 c 0,-0.19912 0.0216,-0.28035 0.0483,-0.18104 0.0264,0.0996 0.0264,0.26225 0,0.36182 -0.0266,0.0993 -0.0483,0.0181 -0.0483,-0.18078 m 4.97738,0.0931 c 0.16092,-0.15 0.20101,-0.10733 0.058,0.0618 -0.0723,0.0854 -0.23214,0.14948 -0.3556,0.14302 -0.21261,-0.0114 -0.21341,-0.0145 -0.0134,-0.0618 0.11608,-0.0272 0.25589,-0.0916 0.31102,-0.14302 m -7.4267,0.21672 c 0.3134,-0.30699 0.84339,-0.21673 0.84339,0.1438 0,0.0564 -0.0638,0.0171 -0.14166,-0.0874 -0.18439,-0.24724 -0.62389,-0.14949 -0.7827,0.17405 -0.0636,0.12906 -0.11854,0.17664 -0.12267,0.10552 -0.004,-0.0711 0.0878,-0.22216 0.20366,-0.33596 m 2.21381,0.25837 c 0.072,-0.0851 0.15644,-0.15491 0.1873,-0.15491 0.0309,0 -0.0298,0.0931 -0.13454,0.20664 -0.23529,0.25475 -0.50912,0.26509 -0.69352,0.0259 -0.11896,-0.15388 -0.11764,-0.16164 0.008,-0.0517 0.19888,0.17406 0.47271,0.16293 0.63257,-0.0259 m 5.0452,0.26456 c 0.13691,-0.11716 0.29889,-0.21285 0.36009,-0.21285 0.12979,0 0.12346,0.005 -0.29282,0.24414 l -0.31604,0.18155 0.24877,-0.21285 m 0.77713,0.51056 c 0,-0.19886 0.0216,-0.28035 0.048,-0.18078 0.0266,0.0996 0.0266,0.26225 0,0.36182 -0.0264,0.0993 -0.048,0.0181 -0.048,-0.18104 m -1.05225,0.15517 c -0.001,-0.22733 0.0193,-0.33259 0.0457,-0.23379 0.0266,0.0988 0.0276,0.28474 0.003,0.41328 -0.0254,0.12854 -0.047,0.0479 -0.048,-0.17949 m 0.80938,0.42156 c 0.076,-0.0897 0.16356,-0.16319 0.19442,-0.16319 0.0309,0 -0.0298,0.0928 -0.1348,0.20665 -0.196,0.21259 -0.52417,0.27491 -0.62283,0.11819 -0.0309,-0.0486 0.0522,-0.068 0.18466,-0.0432 0.13876,0.0259 0.29889,-0.0241 0.37855,-0.11845 m -9.12325,1.13171 c 0.0963,-0.1438 0.22133,-0.26147 0.27778,-0.26147 0.0567,0 0.008,0.0928 -0.10763,0.20664 -0.11607,0.11379 -0.21104,0.26095 -0.21104,0.32716 0,0.0665 -0.0301,0.091 -0.0667,0.0551 -0.0369,-0.0362 0.0116,-0.18337 0.10763,-0.32742 m 0.75657,-0.0277 -0.17728,-0.28552 0.21711,0.24388 c 0.23347,0.2625 0.27646,0.59223 0.11001,0.84129 -0.0736,0.11017 -0.0846,0.0584 -0.038,-0.17974 0.0441,-0.22628 0.008,-0.42697 -0.11185,-0.61991 m 7.85734,0.28578 c 0.009,-0.22112 0.0235,-0.20819 0.0939,0.084 0.0952,0.39441 0.17807,0.49269 0.47484,0.56278 0.19496,0.0461 0.19338,0.0507 -0.0203,0.0618 -0.28094,0.0145 -0.56348,-0.35045 -0.54844,-0.70865 m -15.46595,1.08544 c 0.24111,-0.3605 0.30548,-0.32972 0.0881,0.0419 -0.0976,0.16681 -0.19678,0.28451 -0.22027,0.26147 -0.0235,-0.023 0.0361,-0.15958 0.13217,-0.30337 m 16.15475,0.15928 c 0.30971,-0.23871 0.41733,-0.26224 0.51204,-0.11198 0.0367,0.0579 -0.004,0.0763 -0.0944,0.0424 -0.0918,-0.0346 -0.27224,0.0512 -0.42709,0.20302 -0.14746,0.14456 -0.26828,0.22189 -0.26828,0.17199 0,-0.0502 0.12504,-0.18776 0.27778,-0.30544 m -15.23256,0.22959 c 0.0132,-0.26507 0.0182,-0.26843 0.062,-0.0416 0.0488,0.2527 -0.23768,0.7358 -0.48408,0.81624 -0.0723,0.0235 -0.01,-0.0761 0.13823,-0.22138 0.14826,-0.14533 0.27591,-0.39413 0.28385,-0.55318 m 6.69821,-0.0618 -0.22951,-0.0439 0.22977,-0.014 c 0.32735,-0.0202 0.56348,0.25679 0.54498,0.6393 l -0.0156,0.32845 -0.0464,-0.31009 c -0.057,-0.38302 -0.18598,-0.54311 -0.48328,-0.59975 m -9.0063,0.20356 c 0.25299,-0.0998 0.34294,-0.0621 0.13295,0.0559 -0.11607,0.0654 -0.27277,0.1919 -0.34848,0.28112 -0.1171,0.13862 -0.12132,0.12957 -0.0274,-0.061 0.0604,-0.12285 0.16989,-0.24696 0.24296,-0.27595 m 8.43234,0.55111 c 0,-0.19891 0.0219,-0.28035 0.0483,-0.18078 0.0266,0.0996 0.0266,0.26225 0,0.36182 -0.0264,0.0993 -0.0483,0.0181 -0.0483,-0.18104 m 9.6884,0.11871 c 0.0744,-0.1169 0.15668,-0.19165 0.18255,-0.1663 0.0261,0.0256 -0.0388,0.13966 -0.14403,0.25371 -0.19202,0.20794 -0.62677,0.28138 -0.72675,0.12259 -0.0293,-0.0466 0.0831,-0.0649 0.24982,-0.0409 0.22265,0.0321 0.33872,-0.0129 0.43843,-0.16914 m -19.89569,0.32069 c 0.24059,-0.27879 0.5131,-0.29871 0.70356,-0.0517 0.1187,0.15388 0.11764,0.16164 -0.008,0.0517 -0.20367,-0.17819 -0.4184,-0.1619 -0.67693,0.0515 -0.21893,0.18078 -0.21893,0.18078 -0.0184,-0.0515 m 2.34547,-0.001 c 0.0396,-0.15527 0.091,-0.22681 0.11396,-0.15931 0.14457,0.42544 -0.59171,0.82398 -0.90326,0.48906 -0.16463,-0.1769 -0.16437,-0.18001 0.007,-0.0535 0.2786,0.2056 0.69645,0.0579 0.78193,-0.27621 m 8.78581,-0.14899 c 0,-0.0647 0.0356,-0.0822 0.0791,-0.0396 0.0897,0.0882 -0.35509,0.47561 -0.53896,0.4694 -0.066,-0.002 0.0105,-0.0737 0.16988,-0.15853 0.1596,-0.0846 0.28992,-0.2069 0.28992,-0.2713 m -11.36025,0.74379 c 0,-0.19886 0.0216,-0.28035 0.0483,-0.18078 0.0264,0.0996 0.0264,0.26225 0,0.36182 -0.0266,0.0993 -0.0483,0.0181 -0.0483,-0.18104 m 19.74679,0.0231 c 0.0902,-0.12621 0.18784,-0.22966 0.21684,-0.22966 0.029,0 -0.0211,0.10345 -0.11133,0.22966 -0.21765,0.30462 -0.20842,0.78801 0.0203,1.05414 0.18413,0.21465 0.18413,0.21465 -0.0528,0.0178 -0.28147,-0.23356 -0.3155,-0.7327 -0.0731,-1.07202 m 0.74449,-0.12978 c -0.0446,-0.0833 -0.006,-0.0613 0.0849,0.0491 0.0913,0.11041 0.16066,0.34292 0.15406,0.51671 -0.0121,0.31448 -0.0127,0.31422 -0.0852,-0.0491 -0.0401,-0.20067 -0.10949,-0.43344 -0.15379,-0.51671 m -9.5447,0.37912 c 0.30526,-0.38044 0.94968,-0.32277 0.93783,0.0843 -0.002,0.0597 -0.0517,0.0272 -0.1108,-0.0724 -0.39332,-0.66233 -1.18024,0.27593 -0.82886,0.98873 0.10737,0.21804 0.10552,0.21881 -0.0528,0.0251 -0.2274,-0.27826 -0.20471,-0.70242 0.0546,-1.0257 m -10.02231,0.0228 c 0,-0.0675 0.0353,-0.0877 0.0789,-0.045 0.0921,0.0905 -0.35482,0.47354 -0.55215,0.47354 -0.0733,0 -0.19864,-0.0815 -0.27831,-0.18104 -0.13161,-0.16448 -0.12766,-0.16785 0.043,-0.0365 0.2113,0.16268 0.70856,0.0145 0.70856,-0.21104 m -2.57154,0.28193 c 0.1005,-0.25656 0.15802,-0.19139 0.0847,0.0957 -0.0414,0.16162 -2.7e-4,0.36567 0.10948,0.54257 l 0.17595,0.28345 -0.21684,-0.24414 c -0.22687,-0.25474 -0.26037,-0.4037 -0.15327,-0.67759 m 7.52609,0.0448 c 0.51653,-0.33205 1.0932,0.39494 0.73628,0.92847 -0.0741,0.11121 -0.0857,0.0636 -0.0403,-0.16811 0.0984,-0.50382 -0.11424,-0.79788 -0.52128,-0.72133 -0.23821,0.0448 -0.2878,0.0336 -0.17463,-0.039 m 5.91143,0.30028 c 0.007,-0.11896 0.019,-0.12025 0.0652,-0.007 0.0311,0.0768 -0.0538,0.23949 -0.18888,0.36156 -0.23162,0.20921 -0.23531,0.20947 -0.0652,0.007 0.0992,-0.11819 0.18424,-0.28087 0.18888,-0.36182 m -12.62767,0.28708 c 0.1282,-0.13061 0.25271,-0.22398 0.27646,-0.20716 0.0617,0.0432 -0.32183,0.4451 -0.42472,0.4451 -0.047,0 0.0198,-0.10707 0.14826,-0.23794 m 6.40653,0.35097 c 0.004,-0.10603 0.0409,-0.0812 0.10288,0.0701 0.12401,0.30207 0.33846,0.3794 0.64658,0.23251 0.23401,-0.11174 0.23586,-0.10967 0.0409,0.0437 -0.32446,0.25477 -0.80614,0.0437 -0.79032,-0.3463 m 6.18653,0.3732 -0.23742,-0.0447 0.23135,-0.0139 c 0.46904,-0.0287 0.69802,0.63077 0.39016,1.12268 -0.10655,0.17043 -0.13664,0.18802 -0.0881,0.0517 0.22896,-0.64372 0.12478,-1.03631 -0.29598,-1.11571 m -5.62352,0.67631 c 0.39541,-0.45778 0.91799,-0.17998 0.88899,0.47251 l -0.0166,0.38018 -0.0446,-0.3613 c -0.0765,-0.62199 -0.3854,-0.78984 -0.80959,-0.43966 -0.21894,0.18078 -0.21894,0.18052 -0.0182,-0.0517 m 13.96919,0.3101 c -0.11869,-0.15388 -0.11737,-0.16164 0.008,-0.0517 0.0813,0.0711 0.24745,0.12931 0.36906,0.12931 0.12188,0 0.28807,-0.0582 0.36932,-0.12931 0.12558,-0.10991 0.1269,-0.10216 0.008,0.0517 -0.0768,0.0996 -0.24665,0.18077 -0.3775,0.18077 -0.13058,0 -0.30047,-0.0812 -0.37723,-0.18077 m -14.19805,0.28423 c 0,-0.19886 0.0216,-0.28035 0.048,-0.18078 0.0266,0.0993 0.0266,0.26225 0,0.36156 -0.0264,0.0996 -0.048,0.0181 -0.048,-0.18078 m 5.39422,-0.0259 -0.20075,-0.2325 0.2332,0.19345 c 0.129,0.10681 0.30838,0.16499 0.40098,0.13035 0.0968,-0.0365 0.14034,-0.0199 0.10288,0.039 -0.10633,0.16888 -0.32344,0.11612 -0.53633,-0.13035 m 0.43924,0.70505 c 0.58062,-0.56924 1.22191,0.47716 0.66925,1.09217 l -0.21922,0.24388 0.16646,-0.25552 c 0.44606,-0.68435 -0.0293,-1.46565 -0.58934,-0.96857 -0.23529,0.20871 -0.25824,0.11457 -0.0271,-0.11199 m -0.24665,0.66444 c 0,-0.19887 0.0219,-0.28035 0.0483,-0.18104 0.0266,0.0996 0.0266,0.26225 0,0.36182 -0.0264,0.0996 -0.0483,0.0181 -0.0483,-0.18078 m 7.50656,-0.15338 c 0.3374,-0.25837 0.90774,0.0256 0.76317,0.37992 -0.0382,0.0931 -0.0577,0.083 -0.0636,-0.0331 -0.015,-0.30439 -0.29548,-0.44535 -0.61758,-0.31035 -0.26644,0.11172 -0.27224,0.10914 -0.082,-0.0365 m -12.73586,0.41558 c 0.1095,-0.27957 0.14458,-0.11819 0.0451,0.20793 -0.0509,0.16757 -0.0967,0.22733 -0.10183,0.13242 -0.005,-0.0947 0.0206,-0.24802 0.0567,-0.34035 m 12.38396,0.26044 c 0.01,-0.24311 0.0172,-0.23871 0.0886,0.0546 0.0427,0.17561 0.11267,0.38483 0.15512,0.46527 0.0427,0.0802 0.003,0.0556 -0.0884,-0.0546 -0.0913,-0.11043 -0.1612,-0.31966 -0.15538,-0.46526 m -1.27581,0.10213 c 0.23744,-0.1575 0.4841,-0.12957 0.64607,0.0727 0.13087,0.16373 0.12718,0.16761 -0.0385,0.0401 -0.11343,-0.0871 -0.29387,-0.11534 -0.47431,-0.0742 -0.21579,0.0491 -0.25035,0.0391 -0.13322,-0.0385 m 2.26574,0.12078 c 0.0578,-0.12778 0.12212,-0.18181 0.14324,-0.12001 0.0525,0.15466 -0.40469,0.61496 -0.60887,0.61293 -0.10077,-7.7e-4 -0.0625,-0.0525 0.0973,-0.13086 0.14509,-0.0714 0.31076,-0.23431 0.36826,-0.36207 m -21.33102,0.40655 c 0.0746,-0.11715 0.15669,-0.19191 0.18281,-0.1663 0.0259,0.0254 -0.0388,0.13966 -0.14404,0.25371 -0.19202,0.20768 -0.62677,0.28113 -0.72675,0.12259 -0.0293,-0.0466 0.0831,-0.0652 0.24955,-0.0411 0.22265,0.0321 0.33898,-0.0127 0.43844,-0.16888 m 13.75803,0.0704 c 0.1931,-0.20923 0.42841,-0.23897 0.66899,-0.0843 0.11343,0.0729 0.0652,0.0841 -0.17121,0.0398 -0.26618,-0.0502 -0.36193,-0.016 -0.50069,0.17819 -0.0942,0.13191 -0.17147,0.19837 -0.17147,0.14742 0,-0.0507 0.0786,-0.17742 0.17437,-0.28113 m 3.58428,0.30985 c 0.28125,-0.3044 0.88693,-0.1888 0.87636,0.16759 -0.002,0.0597 -0.0514,0.0272 -0.11053,-0.0724 -0.15065,-0.25318 -0.57957,-0.22628 -0.7761,0.0489 -0.0905,0.12647 -0.16435,0.18828 -0.16435,0.13733 0,-0.0507 0.0786,-0.17742 0.17463,-0.28138 m -8.65443,0.11146 c 0.0979,-0.15518 0.43292,-0.10552 0.58697,0.0871 0.1311,0.16369 0.12741,0.16757 -0.0391,0.0396 -0.1013,-0.0779 -0.2791,-0.11716 -0.39544,-0.0872 -0.11636,0.0298 -0.18493,0.0119 -0.15247,-0.0395 m -8.15158,0.83639 c 0,-0.19886 0.0219,-0.28035 0.0483,-0.18078 0.0266,0.0996 0.0266,0.26225 0,0.36182 -0.0264,0.0993 -0.0483,0.0179 -0.0483,-0.18104 m 16.02338,0.31009 c 0,-0.19891 0.0216,-0.28035 0.048,-0.18078 0.0266,0.0993 0.0266,0.26224 0,0.36155 -0.0264,0.0996 -0.048,0.0181 -0.048,-0.18077 m -8.2469,-0.13088 c 0,-0.0543 0.0894,0.009 0.19838,0.14147 0.17859,0.21621 0.22898,0.22759 0.50069,0.11328 0.27857,-0.11714 0.28622,-0.11481 0.0979,0.0295 -0.29755,0.22784 -0.79692,0.0497 -0.79692,-0.28423 m 8.01136,0.6993 c 0.072,-0.0854 0.15644,-0.15518 0.1873,-0.15518 0.0309,0 -0.0298,0.0931 -0.1348,0.2069 -0.23503,0.25474 -0.50886,0.26483 -0.69352,0.0259 -0.11869,-0.15388 -0.11737,-0.16164 0.008,-0.0517 0.19919,0.17406 0.47301,0.16293 0.63288,-0.0259 m -7.53131,0.38458 c 0.0902,-0.12621 0.19099,-0.22966 0.2237,-0.22966 0.0327,0 -0.002,0.0722 -0.0762,0.16061 -0.0747,0.0882 -0.16989,0.33232 -0.21157,0.54232 -0.0718,0.36234 -0.0765,0.36595 -0.0878,0.0693 -0.007,-0.17197 0.0617,-0.41611 0.15195,-0.54257 m 0.75817,-0.12647 c -0.11211,-0.12312 -0.1042,-0.12441 0.0528,-0.008 0.25535,0.18956 0.23689,0.75388 -0.0348,1.05596 l -0.21922,0.24414 0.16646,-0.25552 c 0.1997,-0.30619 0.21764,-0.83586 0.0348,-1.03656 m -9.76777,0.88139 c 0.006,-0.14768 0.0367,-0.11793 0.10314,0.10061 0.052,0.17043 0.17543,0.36802 0.27462,0.43915 0.0992,0.0711 0.12662,0.12931 0.0609,0.12931 -0.172,0 -0.44952,-0.42284 -0.4387,-0.66905 m 0.86421,0.43137 c 0.12847,-0.13087 0.25298,-0.22424 0.27673,-0.20742 0.0615,0.0432 -0.32184,0.44509 -0.42472,0.44509 -0.047,0 0.0198,-0.10707 0.14799,-0.23767 m -0.30548,0.91271 c 0.0963,-0.14405 0.25694,-0.25854 0.35692,-0.255 0.14139,0.005 0.13137,0.0264 -0.0459,0.0965 -0.1253,0.0497 -0.2601,0.18957 -0.29941,0.31138 -0.0393,0.12157 -0.0974,0.19577 -0.129,0.16501 -0.0317,-0.031 0.0214,-0.17406 0.11739,-0.31785 m 0.88821,0.30799 c -0.0229,-0.19164 -0.004,-0.32587 0.0417,-0.29794 0.25639,0.15522 -0.13111,1.17521 -0.44635,1.17521 -0.0512,0 0.0282,-0.11897 0.17648,-0.26432 0.20841,-0.20431 0.26008,-0.34345 0.22819,-0.61293 m 6.38751,0.17947 c 0.2406,-0.27854 0.51284,-0.29845 0.70356,-0.0515 0.1187,0.15362 0.11738,0.16138 -0.008,0.0515 -0.20393,-0.17794 -0.41866,-0.16164 -0.67719,0.0517 -0.21894,0.18077 -0.21894,0.18077 -0.0182,-0.0517 m -7.41533,0.29742 c 0.004,-0.11379 0.0375,-0.0931 0.10209,0.0644 0.0525,0.12776 0.15221,0.2325 0.22159,0.2325 0.0696,0 0.096,0.03 0.0588,0.0665 -0.10288,0.10061 -0.39013,-0.17225 -0.38251,-0.36337 m 7.18608,0.2969 c 0,-0.19891 0.0219,-0.28035 0.0483,-0.18077 0.0266,0.0993 0.0266,0.26224 0,0.36155 -0.0264,0.0996 -0.0483,0.0181 -0.0483,-0.18078 m -1.40314,0.18078 c 0.0768,-0.0993 0.24665,-0.18078 0.37723,-0.18078 0.13085,0 0.30073,0.0815 0.3775,0.18078 0.1187,0.15388 0.11738,0.16164 -0.008,0.0517 -0.0813,-0.0711 -0.24744,-0.12905 -0.36932,-0.12905 -0.12161,0 -0.2878,0.0579 -0.36906,0.12905 -0.12559,0.10991 -0.12691,0.10216 -0.008,-0.0517 m -4.58457,0.49837 c -0.0913,-0.0892 -0.1166,-0.16242 -0.0565,-0.16242 0.17516,0 0.34429,0.39958 0.29704,0.70269 -0.0403,0.25914 -0.0446,0.25578 -0.0594,-0.0494 -0.008,-0.18078 -0.0902,-0.40164 -0.18123,-0.49087 m 5.24682,0.46242 c 0.0707,-0.11119 0.14983,-0.1813 0.17595,-0.15569 0.0984,0.0965 -0.34557,0.46087 -0.56162,0.46087 -0.24217,0 -0.48116,-0.17897 -0.4759,-0.35639 0.002,-0.0597 0.0514,-0.0272 0.11054,0.0724 0.14405,0.24233 0.5912,0.22965 0.75107,-0.0212 m -2.54072,0.41483 c 0.01,-0.24337 0.0172,-0.23897 0.0886,0.0546 0.0427,0.17535 0.11266,0.38458 0.15511,0.46501 0.0425,0.0802 0.003,0.0556 -0.0886,-0.0546 -0.0913,-0.11043 -0.1612,-0.31966 -0.15512,-0.46501 m -1.33849,0.2263 c 0.11053,-0.12776 0.27646,-0.22877 0.36906,-0.22423 0.14274,0.007 0.14406,0.0165 0.0101,0.0652 -0.0871,0.0313 -0.25299,0.13216 -0.36906,0.22423 -0.20895,0.16604 -0.20921,0.16552 -0.0101,-0.0652 m 0.65158,-0.0349 c -0.0427,-0.0802 -0.003,-0.0556 0.0886,0.0548 0.0913,0.11018 0.16093,0.3194 0.15511,0.46501 -0.01,0.24311 -0.0171,0.23871 -0.0886,-0.0546 -0.0427,-0.17561 -0.11266,-0.38484 -0.15511,-0.46527 m 1.56751,0.22293 c 0.0385,-0.0608 0.0981,-0.11043 0.13269,-0.11043 0.0346,0 -0.0232,0.0928 -0.12794,0.20664 -0.10499,0.11379 -0.26644,0.20371 -0.35904,0.20017 -0.11475,-0.004 -0.0963,-0.0349 0.0583,-0.0962 0.12451,-0.0491 0.25776,-0.13914 0.29599,-0.20017 m -2.45573,0.41952 0.0169,-0.37501 0.0443,0.3613 c 0.0245,0.19887 0.1,0.43137 0.16778,0.51671 0.10711,0.1355 0.0992,0.13731 -0.0615,0.0137 -0.12238,-0.0944 -0.17885,-0.26766 -0.16751,-0.51671 m 19.16865,0.39991 c 0,-0.11354 0.0617,-0.20665 0.13718,-0.20665 0.20919,0 0.3899,0.2219 0.3899,0.47846 0,0.16035 0.0723,0.24076 0.23715,0.26354 0.25642,0.0357 0.28596,0.20946 0.1596,0.93751 -0.0493,0.28474 -0.0303,0.38742 0.0715,0.38742 0.34927,0 0.40282,0.28296 0.19996,1.05702 -0.17807,0.67968 -0.22212,0.75158 -0.45901,0.75158 -0.16461,0 -0.31392,0.09 -0.4023,0.24233 -0.0963,0.16653 -0.20524,0.22578 -0.34716,0.18931 -0.1319,-0.0336 -0.25246,0.0189 -0.33292,0.14535 -0.1406,0.22087 -0.49701,0.27027 -0.49753,0.0691 -2.6e-4,-0.0711 -0.0971,0.0261 -0.215,0.21595 -0.16303,0.26224 -0.24745,0.31837 -0.35112,0.23406 -0.10183,-0.083 -0.19547,-0.0442 -0.3709,0.15336 -0.17437,0.19682 -0.26908,0.23639 -0.36985,0.15414 -0.10209,-0.083 -0.16619,-0.044 -0.26011,0.15802 -0.10209,0.21981 -0.17305,0.2563 -0.39412,0.20173 -0.21711,-0.0533 -0.28119,-0.0233 -0.32843,0.15388 -0.0441,0.16501 -0.12056,0.20845 -0.30522,0.1738 -0.17675,-0.0331 -0.29414,0.0251 -0.41469,0.2056 -0.10763,0.16087 -0.22818,0.22916 -0.3345,0.18906 -0.0973,-0.0365 -0.25035,0.0261 -0.36932,0.15129 -0.12425,0.13062 -0.27699,0.19088 -0.3928,0.15492 -0.13295,-0.0414 -0.20684,0.006 -0.24744,0.15853 -0.0353,0.13216 -0.13322,0.20951 -0.25009,0.19759 -0.35059,-0.0359 -0.45584,0.002 -0.45584,0.16604 0,0.11562 -0.0828,0.15259 -0.28992,0.12905 -0.20471,-0.023 -0.32263,0.0282 -0.40124,0.17406 -0.0752,0.13967 -0.19917,0.1976 -0.38251,0.17897 -0.20181,-0.0207 -0.28623,0.029 -0.33028,0.19371 -0.0459,0.17222 -0.11396,0.20793 -0.30601,0.16061 -0.17648,-0.0435 -0.28411,-0.003 -0.37644,0.14225 -0.071,0.11147 -0.2237,0.20302 -0.33925,0.20302 -0.11528,0 -0.30944,0.0975 -0.43131,0.21699 -0.15723,0.15438 -0.25377,0.18492 -0.33423,0.10629 -0.0805,-0.0789 -0.14747,-0.0445 -0.23241,0.11871 -0.0844,0.16244 -0.19917,0.22164 -0.39069,0.20199 -0.19732,-0.0202 -0.28651,0.029 -0.32711,0.18078 -0.0594,0.22319 -0.33292,0.28164 -0.45005,0.0962 -0.043,-0.0685 -0.11871,-0.0181 -0.19337,0.12906 -0.0673,0.13293 -0.23557,0.25759 -0.37406,0.27698 -0.1385,0.0194 -0.33345,0.13422 -0.43343,0.255 -0.14641,0.17716 -0.21131,0.19552 -0.33503,0.0947 -0.12583,-0.10216 -0.17622,-0.0763 -0.27831,0.14328 -0.0995,0.21414 -0.17569,0.25551 -0.37829,0.2056 -0.19574,-0.0481 -0.26961,-0.0137 -0.32263,0.15052 -0.047,0.14457 -0.14219,0.20276 -0.29704,0.18104 -0.12847,-0.0179 -0.30179,0.0548 -0.39623,0.16629 -0.10736,0.12653 -0.23425,0.17305 -0.35138,0.12905 -0.19603,-0.0737 -0.16728,-0.34473 0.0319,-0.3013 0.0667,0.0145 0.11845,-0.10656 0.11845,-0.27828 0,-0.16708 0.0475,-0.33261 0.10552,-0.36777 0.058,-0.0352 0.10526,-0.22113 0.10526,-0.41329 0,-0.19242 0.0475,-0.37838 0.10552,-0.41354 0.058,-0.0352 0.10552,-0.22113 0.10552,-0.41329 0,-0.19215 0.0472,-0.37838 0.10526,-0.41354 0.058,-0.0349 0.10552,-0.2444 0.10552,-0.46501 0,-0.22061 0.0475,-0.42985 0.10526,-0.46501 0.17305,-0.10471 0.12847,-0.67163 -0.0525,-0.67163 -0.18889,0 -0.2042,-0.12026 -0.0367,-0.28475 0.55319,-0.54207 0.63655,0.45984 0.19469,2.33486 -0.17385,0.73785 -0.3163,1.37952 -0.3163,1.42553 0,0.21775 0.29574,-0.36648 0.3469,-0.68537 0.0319,-0.19891 0.13269,-0.68718 0.2237,-1.0852 0.37196,-1.62338 0.40836,-1.90657 0.26776,-2.07287 -0.2026,-0.23915 0.0227,-0.41121 0.30891,-0.23612 0.31603,0.1937 0.28148,0.7187 -0.15485,2.36072 -0.26697,1.00476 -0.34136,1.44675 -0.24322,1.44675 0.0517,0 0.0942,-0.1394 0.0942,-0.31009 0,-0.17043 0.0475,-0.30983 0.10552,-0.30983 0.0577,0 0.10526,-0.18621 0.10526,-0.41354 0,-0.22733 0.0475,-0.41328 0.10552,-0.41328 0.058,0 0.10526,-0.16009 0.10526,-0.35561 0,-0.19552 0.0475,-0.38433 0.10552,-0.41949 0.058,-0.0352 0.10552,-0.2444 0.10552,-0.46501 0,-0.22086 0.0472,-0.43011 0.10526,-0.46526 0.18202,-0.11016 0.13243,-0.80716 -0.0528,-0.73759 -0.17753,0.067 -0.22291,-0.19242 -0.0517,-0.29639 0.65076,-0.39418 0.65101,1.07015 0.001,3.2553 -0.14509,0.48802 -0.1356,0.55992 0.0506,0.37733 0.0871,-0.0853 0.15828,-0.29871 0.15828,-0.47406 0,-0.17535 0.043,-0.39958 0.0958,-0.49811 0.27119,-0.50742 0.61281,-2.5498 0.44371,-2.65221 -0.1902,-0.11535 -0.13507,-0.36932 0.0802,-0.36932 0.5276,0 0.54264,0.55657 0.0654,2.42851 -0.25721,1.00839 -0.37275,2.00589 -0.13797,1.18864 0.0572,-0.19891 0.12846,-0.5364 0.15854,-0.75002 0.0301,-0.21337 0.0968,-0.41379 0.14879,-0.44535 0.0517,-0.0313 0.0942,-0.2144 0.0942,-0.40656 0,-0.19216 0.0475,-0.37838 0.10552,-0.41329 0.0581,-0.0352 0.10526,-0.22112 0.10526,-0.41354 0,-0.19216 0.0475,-0.37813 0.10552,-0.41329 0.18202,-0.11041 0.13242,-0.80741 -0.0528,-0.73785 -0.10552,0.0398 -0.15802,-0.004 -0.15802,-0.13293 0,-0.10578 0.0723,-0.21959 0.16039,-0.25267 0.21159,-0.0796 0.60281,0.31011 0.53633,0.53459 -0.12793,0.43398 -0.19284,1.39013 -0.09,1.3278 0.19812,-0.11996 0.42841,-1.82406 0.24665,-1.82406 -0.0636,0 -0.11555,-0.0931 -0.11555,-0.20665 0,-0.13785 0.0702,-0.20664 0.21078,-0.20664 0.11608,0 0.21078,0.0463 0.21078,0.10319 0,0.20742 0.19732,0.0967 0.23003,-0.12905 0.044,-0.30389 0.45267,-0.3719 0.60119,-0.10009 0.15221,0.27881 0.0683,0.92539 -0.3002,2.31653 -0.3709,1.40069 -0.36932,1.38854 -0.16197,1.21966 0.0871,-0.0706 0.15801,-0.28294 0.15801,-0.47147 0,-0.18854 0.0475,-0.37166 0.10552,-0.40682 0.058,-0.0352 0.10552,-0.2444 0.10552,-0.46501 0,-0.22087 0.0422,-0.42671 0.0936,-0.45803 0.0889,-0.0541 0.15274,-0.32326 0.29124,-1.23183 0.0372,-0.24261 0.007,-0.49761 -0.0781,-0.65279 -0.18386,-0.33673 0.0612,-0.52734 0.34954,-0.27156 0.17306,0.1536 0.18677,0.15024 0.18677,-0.0443 0,-0.47302 0.57669,-0.54182 0.69408,-0.0828 0.0641,0.25033 -0.0198,0.74017 -0.41074,2.39537 -0.1873,0.79369 -0.21341,1.03631 -0.10736,0.99645 0.0836,-0.0316 0.14034,-0.21543 0.14034,-0.45518 0,-0.22138 0.0475,-0.40242 0.10552,-0.40242 0.0581,0 0.10526,-0.15983 0.10526,-0.35561 0,-0.19552 0.0475,-0.38433 0.10552,-0.41949 0.058,-0.0349 0.10552,-0.2444 0.10552,-0.46501 0,-0.22061 0.0472,-0.42985 0.10526,-0.46501 0.1485,-0.09 0.13162,-1.01794 -0.0211,-1.16768 -0.20472,-0.20095 0.071,-0.41457 0.33001,-0.25604 0.17068,0.10448 0.20709,0.0861 0.26274,-0.13164 0.0385,-0.15026 0.1414,-0.25319 0.25272,-0.25319 0.49093,0 0.55873,0.53404 0.22291,1.75683 -0.38885,1.41543 -0.51204,2.08581 -0.36088,1.96271 0.12688,-0.10319 0.1865,-0.33185 0.33028,-1.26572 0.033,-0.21362 0.10236,-0.41378 0.15406,-0.44535 0.052,-0.0313 0.0942,-0.20794 0.0942,-0.39208 0,-0.18414 0.0417,-0.37915 0.0926,-0.4332 0.17041,-0.18052 0.21131,-1.06243 0.052,-1.12243 -0.19071,-0.0716 -0.18517,-0.36182 0.008,-0.43475 0.58907,-0.22164 0.64948,0.61733 0.172,2.38916 -0.27567,1.02338 -0.35033,1.49847 -0.23584,1.49847 0.0538,0 0.12505,-0.12776 0.15802,-0.28397 0.15116,-0.71587 0.27646,-1.26906 0.43896,-1.93785 0.28596,-1.17597 0.32526,-1.72219 0.11845,-1.64434 -0.20892,0.0786 -0.22712,-0.0939 -0.0269,-0.25681 0.63971,-0.52035 0.72017,0.38019 0.21368,2.38739 -0.28491,1.1289 -0.29572,1.2189 -0.14773,1.2189 0.058,0 0.10552,-0.15983 0.10552,-0.35561 0,-0.19552 0.0475,-0.38433 0.10526,-0.41949 0.058,-0.0349 0.10552,-0.24699 0.10552,-0.47096 0,-0.22396 0.0475,-0.40733 0.10552,-0.40733 0.0577,0 0.10526,-0.18595 0.10526,-0.41354 0,-0.22733 0.0475,-0.41328 0.10552,-0.41328 0.15881,0 0.13348,-1.2127 -0.0264,-1.27037 -0.10415,-0.0375 -0.10468,-0.0755 -0.002,-0.18207 0.10658,-0.11075 0.17622,-0.11023 0.39122,0.003 0.30996,0.16269 0.2973,0.42878 -0.1,2.12176 -0.38462,1.63863 -0.39517,1.70536 -0.27119,1.70536 0.0625,0 0.1137,-0.16293 0.1137,-0.36182 0,-0.19889 0.0475,-0.36156 0.10552,-0.36156 0.058,0 0.10552,-0.12466 0.10552,-0.27699 0,-0.15231 0.0464,-0.41973 0.10367,-0.5943 0.38859,-1.1897 0.54395,-2.16935 0.36484,-2.29789 -0.24112,-0.17276 -0.12451,-0.44871 0.15854,-0.37604 0.42393,0.10885 0.40968,0.71299 -0.0601,2.55054 -0.14377,0.56121 -0.24268,1.09606 -0.22001,1.18839 0.0253,0.10396 0.0688,0.0499 0.11423,-0.14225 0.0401,-0.17044 0.11897,-0.45286 0.1749,-0.62743 0.0559,-0.17434 0.10183,-0.4159 0.10183,-0.53641 0,-0.12052 0.0475,-0.24778 0.10526,-0.28294 0.058,-0.0352 0.10552,-0.24337 0.10552,-0.46242 0,-0.21932 0.0438,-0.41431 0.0971,-0.4332 0.15487,-0.0551 0.17043,-1.08312 0.019,-1.26209 -0.29334,-0.34656 0.14799,-0.50949 0.46139,-0.17018 0.22371,0.24235 0.19785,0.47201 -0.26881,2.37108 -0.21686,0.8822 -0.28148,1.31668 -0.20656,1.39013 0.0747,0.0732 0.10868,-0.0129 0.10868,-0.2757 0,-0.21052 0.0475,-0.3825 0.10552,-0.3825 0.058,0 0.10526,-0.15336 0.10526,-0.34113 0,-0.1875 0.0427,-0.38509 0.0947,-0.43915 0.052,-0.0541 0.11818,-0.28423 0.14667,-0.51156 0.0288,-0.22734 0.12742,-0.73345 0.21922,-1.12475 0.16169,-0.68923 0.14956,-0.95303 -0.0388,-0.83871 -0.16171,0.0978 -0.21341,-0.12776 -0.0583,-0.25397 0.2551,-0.20743 0.58538,0.044 0.58538,0.44561 0,0.32306 -0.25564,1.61202 -0.53185,2.68014 -0.0702,0.27207 -0.0992,0.52267 -0.0644,0.55682 0.0981,0.0962 0.27251,-0.43661 0.34742,-1.06091 0.0372,-0.31085 0.10841,-0.58965 0.15828,-0.61991 0.0496,-0.0303 0.0905,-0.20561 0.0905,-0.38975 0,-0.1844 0.042,-0.37915 0.0931,-0.4332 0.17149,-0.18103 0.20605,-1.17208 0.0451,-1.30295 -0.24852,-0.20199 0.0203,-0.35613 0.33397,-0.19138 0.34874,0.18285 0.34136,0.34761 -0.0987,2.17116 -0.22635,0.93908 -0.32421,1.53521 -0.26195,1.59676 0.0623,0.0616 0.0992,-0.0228 0.0992,-0.22629 0,-0.17871 0.0475,-0.35355 0.10552,-0.38845 0.0577,-0.0352 0.10526,-0.22113 0.10526,-0.41354 0,-0.19216 0.0425,-0.37524 0.0944,-0.40656 0.0517,-0.0316 0.11897,-0.23173 0.14957,-0.44535 0.0303,-0.21366 0.11106,-0.59743 0.17938,-0.85321 0.18047,-0.67658 0.18785,-1.19486 0.0164,-1.15995 -0.1699,0.0346 -0.124,-0.30414 0.0488,-0.36052 0.59805,-0.19527 0.59202,0.79032 -0.0187,3.07735 -0.19156,0.71716 -0.19103,0.95018 0.002,0.61319 0.081,-0.14198 0.17991,-0.54956 0.21948,-0.90569 0.0396,-0.35585 0.11372,-0.67269 0.16488,-0.7037 0.0512,-0.0308 0.0931,-0.18362 0.0931,-0.33958 0,-0.15569 0.0414,-0.32742 0.0918,-0.38147 0.14032,-0.14951 0.24612,-1.28668 0.11976,-1.28668 -0.0583,0 -0.10631,-0.0928 -0.10631,-0.20664 m 0.64151,1.37601 c 0.0628,-0.0615 0.095,-0.22216 0.0712,-0.35664 -0.0575,-0.32639 -0.12795,-0.15804 -0.39385,0.94423 -0.2419,1.00219 -0.25457,1.13667 -0.10816,1.13667 0.058,0 0.10552,-0.18595 0.10552,-0.41328 0,-0.22733 0.0475,-0.41354 0.10552,-0.41354 0.0577,0 0.10526,-0.17664 0.10526,-0.39259 0,-0.21595 0.0514,-0.44328 0.11449,-0.50483 m 0.15697,1.8127 c 0.10366,-0.10166 0.15302,-0.29433 0.13163,-0.51313 l -0.0341,-0.35044 -0.1319,0.35147 c -0.1944,0.51878 -0.18095,0.72284 0.0343,0.51207 m -6.83984,0.45418 c 0.0968,-0.7883 -0.13823,-0.46115 -0.26855,0.37423 -0.0699,0.44716 -0.24428,1.28744 -0.38726,1.86674 -0.28913,1.17105 -0.29942,1.24708 -0.16857,1.24708 0.0501,0 0.11844,-0.17457 0.15116,-0.38768 0.0572,-0.3716 0.2857,-1.37351 0.5123,-2.24768 0.0588,-0.22734 0.1314,-0.61115 0.16092,-0.8527 m 6.14538,-0.10317 c 7.7e-4,-0.18492 -0.0166,-0.33595 -0.0388,-0.33595 -0.096,0 -0.13665,0.40293 -0.0538,0.53121 0.0617,0.0954 0.0916,0.0331 0.0926,-0.19527 m -7.52046,0.77514 c 0.0356,-0.23096 0.0166,-0.38768 -0.0469,-0.38768 -0.0586,0 -0.13956,0.24412 -0.17965,0.54257 -0.0401,0.29846 -0.21051,1.10641 -0.37882,1.79537 -0.29414,1.20493 -0.37038,1.68701 -0.24824,1.56726 0.0863,-0.0846 0.46956,-1.71156 0.46956,-1.99372 0,-0.13526 0.0422,-0.27128 0.0936,-0.30259 0.0886,-0.0535 0.15063,-0.31473 0.29045,-1.22122 m 10.5457,0.72097 c -0.70461,-1.47805 -0.83941,-1.38547 -0.49225,0.33802 0.19944,0.98974 0.65372,3.43708 0.93994,5.0641 0.11475,0.6536 0.28121,1.58384 0.36985,2.06696 0.0884,0.48313 0.16147,1.09941 0.1625,1.36942 0.004,1.02287 0.32526,0.35715 0.53947,-1.11753 0.3118,-2.14868 -0.26827,-5.09537 -1.51949,-7.72091 m -11.97648,0.2687 c 0.0623,-0.061 0.0955,-0.26794 0.0739,-0.4601 -0.0478,-0.42595 -0.13005,-0.26513 -0.29677,0.58111 -0.067,0.34109 -0.23584,1.0852 -0.37486,1.65364 -0.26591,1.08623 -0.32448,1.57658 -0.15406,1.29184 0.0981,-0.16451 0.30258,-1.03403 0.39465,-1.68005 0.0306,-0.21363 0.0979,-0.41404 0.14984,-0.44535 0.0517,-0.0315 0.0942,-0.23121 0.0942,-0.4438 0,-0.21259 0.0509,-0.43656 0.11317,-0.49733 m -16.52321,-0.0683 c -0.24217,-0.23745 -0.25615,0.50535 -0.024,1.27502 0.0599,0.19886 0.13058,0.61629 0.15696,0.92716 0.0261,0.31112 0.0942,0.61087 0.15089,0.66648 0.0567,0.0559 0.10314,0.23147 0.10314,0.39053 0,0.15931 0.0533,0.2894 0.11845,0.2894 0.0839,0 0.0815,0.0435 -0.008,0.14897 -0.0984,0.11612 -0.0897,0.28783 0.0398,0.78335 0.0913,0.34912 0.16593,0.74714 0.16593,0.88473 0,0.15388 0.0609,0.24983 0.15907,0.24983 0.12871,0 0.13557,0.0367 0.0361,0.19268 -0.0936,0.14739 -0.0923,0.29972 0.006,0.64602 0.0707,0.24932 0.13009,0.52294 0.13163,0.60829 0.003,0.17921 0.13507,1.01999 0.29941,1.91174 0.0631,0.34114 0.16092,0.88761 0.21764,1.21451 0.0641,0.36933 0.34215,1.05414 0.73442,1.80855 2.30194,4.4302 2.53908,9.37556 0.55611,11.60258 -0.17624,0.19785 -0.48672,0.61528 -0.69012,0.92796 -1.04571,1.60737 -2.64043,2.47246 -4.74658,2.57513 l -1.24067,0.0603 0.5028,0.24285 c 0.27648,0.13371 0.58487,0.28475 0.68563,0.33596 0.10077,0.0512 0.29942,0.0928 0.44187,0.0928 0.14219,0 0.28413,0.0406 0.31551,0.09 0.21999,0.34914 3.79233,0.39454 4.12973,0.064 3.47248,-1.25663 4.64303,-1.59287 7.01915,-3.28414 0.99105,-0.7974 1.73088,-1.45119 2.3837,-2.65039 -0.0314,-0.20974 0.0143,-0.34009 0.15301,-0.43708 0.28439,-0.19835 0.60552,-0.74145 0.60913,-1.02878 0.006,-0.49243 0.0514,-0.81442 0.11528,-0.81442 1.25679,-4.68225 -1.21909,-9.92636 -1.73088,-11.32225 -2.53738,-4.54774 -4.36384,-6.63783 -7.52354,-8.0573 -0.33792,-0.009 -0.92253,-0.0755 -1.2995,-0.14897 -0.37698,-0.0732 -0.95812,-0.14326 -1.29182,-0.15543 -0.33369,-0.0122 -0.63813,-0.053 -0.67636,-0.0905 m 11.56111,1.58546 c 0,-0.24697 0.2638,-0.27283 0.49331,-0.0478 0.32582,0.31942 -0.36139,3.3549 -0.75946,3.3549 -0.31155,0 -0.44978,-0.20121 -0.24138,-0.35147 0.15802,-0.11405 0.26222,-0.42307 0.36932,-1.09525 0.0316,-0.19914 0.0931,-0.40837 0.13665,-0.46526 0.1364,-0.1787 0.2303,-1.18839 0.11053,-1.18839 -0.0599,0 -0.10895,-0.0931 -0.10895,-0.20664 m -0.66767,0.17217 c 0.25641,-0.25164 0.56266,0.0739 0.56162,0.59768 -0.001,0.67164 -0.17464,1.14697 -0.42551,1.16561 -0.31366,0.023 -0.34505,-0.17431 -0.10262,-0.64087 0.25668,-0.49343 0.28095,-0.82576 0.0543,-0.74067 -0.16144,0.0608 -0.23109,-0.24156 -0.0878,-0.38173 m 4.47013,0.68819 c 0.0623,-0.0608 0.0963,-0.26793 0.0757,-0.45984 l -0.0375,-0.34889 -0.12372,0.41329 c -0.13691,0.45878 -0.33697,1.29672 -0.3411,1.42836 -0.002,0.0468 0.0686,0.0153 0.15538,-0.0701 0.0871,-0.0853 0.15828,-0.3119 0.15828,-0.50354 0,-0.19164 0.0509,-0.39828 0.11291,-0.45932 m 10.19772,11.67369 c -0.0182,-0.0921 -0.0805,-0.18001 -0.1385,-0.19527 -0.14379,-0.0385 -0.80039,0.32871 -0.72309,0.40423 -2.12316,0.94049 -5.02706,2.60292 -7.94704,3.79611 -0.0496,0.034 -0.0597,0.0501 -1.0758,0.9515 -0.66586,0.67346 -0.52969,0.73994 0.40335,0.19656 2.92791,-1.61924 6.96459,-2.61605 9.48132,-5.153 m -31.92131,1.0447 c 0,-0.0225 0.13032,-0.04 0.28965,-0.039 0.21104,0.001 0.24955,0.0266 0.14139,0.0936 -0.13427,0.0833 -0.43105,0.0458 -0.43105,-0.0546 m 9.41332,5.12674 c 0,-0.31266 0.0198,-0.4407 0.0438,-0.28423 0.0243,0.15619 0.0243,0.41197 0,0.56818 -0.024,0.15647 -0.0438,0.0284 -0.0438,-0.28397"
         fill="#7b7f85"
         id="path10" />
    </g>
    <g
       inkscape:groupmode="layer"
       id="layer1"
       inkscape:label="hareket"
       style="mix-blend-mode:normal"
       transform="translate(204.92973,145.8089)">
      <path
         style="fill:#ffffff;stroke-width:1.17961"
         d="m 8.1071777,29.147234 20.0749173,8.608008 -1.391331,-0.521697 0.198762,1.565092"
         id="path536" />
      <path
         style="fill:#ffffff;stroke-width:1.5393"
         d="M 2.7023926,36.289272 31.077515,47.68614 29.071194,50.766375 28.784576,49.842305"
         id="path538" />
      <path
         sodipodi:type="spiral"
         style="fill:none;fill-rule:evenodd;stroke:#ffffff;stroke-opacity:1"
         id="path599"
         sodipodi:cx="33.007793"
         sodipodi:cy="38.60561"
         sodipodi:expansion="1"
         sodipodi:revolution="3.0371468"
         sodipodi:radius="16.490562"
         sodipodi:argument="-17.98867"
         sodipodi:t0="0.87969983"
         d="m 38.24553,25.077426 c 7.943663,2.543703 12.105468,11.432334 9.556289,19.256019 -1.219077,3.741468 -3.836464,6.942465 -7.230115,8.925694"
         transform="matrix(0.77369112,0.02635076,0.12938155,0.88099197,-0.65476369,18.183543)"
         inkscape:transform-center-x="0.18767663"
         inkscape:transform-center-y="-0.03396184" />
      <path
         sodipodi:type="spiral"
         style="mix-blend-mode:normal;fill:none;fill-rule:evenodd;stroke:#ffffff;stroke-opacity:1"
         id="path599-9"
         sodipodi:cx="33.007793"
         sodipodi:cy="38.60561"
         sodipodi:expansion="1"
         sodipodi:revolution="3.0819724"
         sodipodi:radius="16.733948"
         sodipodi:argument="-17.98867"
         sodipodi:t0="0.86690474"
         d="m 38.245435,25.077396 c 7.943677,2.543648 12.105542,11.432247 9.556417,19.255946 -1.720134,5.279384 -6.185488,9.338986 -11.553825,10.689512"
         transform="matrix(0.77253115,0.04987927,0.10251615,0.8845207,26.162668,5.9445803)"
         inkscape:transform-center-x="0.037221714"
         inkscape:transform-center-y="-0.10919951" />
      <path
         sodipodi:type="spiral"
         style="mix-blend-mode:normal;fill:none;fill-rule:evenodd;stroke:#ffffff;stroke-opacity:1"
         id="path599-5"
         sodipodi:cx="33.007793"
         sodipodi:cy="38.60561"
         sodipodi:expansion="1"
         sodipodi:revolution="3.0819724"
         sodipodi:radius="16.733948"
         sodipodi:argument="-17.98867"
         sodipodi:t0="0.86690474"
         d="m 38.245435,25.077396 c 7.943677,2.543648 12.105542,11.432247 9.556417,19.255946 -1.720134,5.279384 -6.185488,9.338986 -11.553825,10.689512"
         transform="matrix(0.46817688,0.05603742,0.03952342,0.7381013,40.021255,13.628312)"
         inkscape:transform-center-x="-0.12899664"
         inkscape:transform-center-y="-0.16704014" />
      <path
         sodipodi:type="spiral"
         style="mix-blend-mode:normal;fill:none;fill-rule:evenodd;stroke:#ffffff;stroke-opacity:1"
         id="path599-5-3"
         sodipodi:cx="33.007793"
         sodipodi:cy="38.60561"
         sodipodi:expansion="1"
         sodipodi:revolution="3.0819724"
         sodipodi:radius="16.733948"
         sodipodi:argument="-17.98867"
         sodipodi:t0="0.86690474"
         d="m 38.245435,25.077396 c 7.943677,2.543648 12.105542,11.432247 9.556417,19.255946 -1.720134,5.279384 -6.185488,9.338986 -11.553825,10.689512"
         transform="matrix(0.49845983,0.10847857,-0.03043802,0.73524349,15.796483,23.238862)"
         inkscape:transform-center-x="0.27627339"
         inkscape:transform-center-y="-0.44371945" />
    </g>
  </g>
</svg>
