<?xml version="1.0" encoding="UTF-8" standalone="no"?>
<svg
   version="1.1"
   x="0"
   y="0"
   width="93.046921"
   height="140"
   viewBox="0 0 93.046918 140"
   id="svg2734"
   sodipodi:docname="mother-andbaby.svg"
   inkscape:version="1.2.2 (732a01da63, 2022-12-09)"
   xmlns:inkscape="http://www.inkscape.org/namespaces/inkscape"
   xmlns:sodipodi="http://sodipodi.sourceforge.net/DTD/sodipodi-0.dtd"
   xmlns="http://www.w3.org/2000/svg"
   xmlns:svg="http://www.w3.org/2000/svg">
  <sodipodi:namedview
     id="namedview2736"
     pagecolor="#ffffff"
     bordercolor="#000000"
     borderopacity="0.25"
     inkscape:showpageshadow="2"
     inkscape:pageopacity="0.0"
     inkscape:pagecheckerboard="0"
     inkscape:deskcolor="#d1d1d1"
     showgrid="false"
     inkscape:zoom="1.16691"
     inkscape:cx="238.23603"
     inkscape:cy="359.06798"
     inkscape:window-width="1920"
     inkscape:window-height="1017"
     inkscape:window-x="1912"
     inkscape:window-y="-8"
     inkscape:window-maximized="1"
     inkscape:current-layer="svg2734" />
  <defs
     id="defs2553">
    <linearGradient
       id="Gradient_1"
       gradientUnits="userSpaceOnUse"
       x1="860.84198"
       y1="811.59698"
       x2="937.24902"
       y2="811.59698"
       gradientTransform="matrix(0.524,0.852,-0.852,0.524,310.624,-682.291)">
      <stop
         offset="0"
         stop-color="#FDD2AE"
         id="stop2543" />
      <stop
         offset="1"
         stop-color="#FCB1A6"
         id="stop2545" />
    </linearGradient>
    <linearGradient
       id="Gradient_2"
       gradientUnits="userSpaceOnUse"
       x1="628.12799"
       y1="81.139999"
       x2="718.80798"
       y2="81.139999"
       gradientTransform="matrix(-0.1,0.995,0.995,0.1,133.369,-121.173)">
      <stop
         offset="0"
         stop-color="#FDD2AE"
         id="stop2548" />
      <stop
         offset="1"
         stop-color="#FCB1A6"
         id="stop2550" />
    </linearGradient>
  </defs>
  <g
     id="Layer_1"
     transform="matrix(0.19527304,0,0,0.19527304,0.04742459,-0.02248936)">
    <g
       id="g2731">
      <g
         id="g2559">
        <path
           d="m 426.712,142.113 c 0,0 81.314,32.824 27.602,106.678 0,0 -40.657,47.744 -16.039,63.037 0,0 8.952,5.222 25.737,-4.849 0,0 -27.975,41.776 -73.108,14.547 -28.721,-17.531 -16.785,-56.323 -15.666,-61.172 1.119,-5.222 51.474,-118.241 51.474,-118.241 z"
           fill="#5a3d1b"
           id="path2555" />
        <path
           d="m 426.712,142.113 c 0,0 81.314,32.824 27.602,106.678 0,0 -40.657,47.744 -16.039,63.037 0,0 8.952,5.222 25.737,-4.849 0,0 -27.975,41.776 -73.108,14.547 -28.721,-17.531 -16.785,-56.323 -15.666,-61.172 1.119,-5.222 51.474,-118.241 51.474,-118.241 z"
           fill-opacity="0"
           stroke="#000000"
           stroke-width="7.184"
           stroke-linecap="round"
           stroke-linejoin="round"
           stroke-miterlimit="10"
           id="path2557" />
      </g>
      <path
         d="m 426.712,210.372 c 0,0 -21.261,27.975 -30.586,58.561 -13.055,44.387 29.84,63.037 60.053,46.252 -55.577,14.547 -46.625,-40.657 -18.65,-74.973 37.3,-45.506 -5.222,-76.465 -5.222,-76.465"
         fill-opacity="0"
         stroke="#000000"
         stroke-width="2.915"
         stroke-linecap="round"
         stroke-linejoin="round"
         id="path2561" />
      <g
         id="g2567">
        <path
           d="m 421.49,209.253 c 0,0 44.387,-139.502 -70.124,-193.587 0,0 -44.014,-22.38 -101.456,-5.968 -22.753,6.714 -48.117,17.904 -69.005,46.252 0,0 -43.641,55.204 -20.515,118.241 z"
           fill="#5a3d1b"
           id="path2563" />
        <path
           d="m 421.49,209.253 c 0,0 44.387,-139.502 -70.124,-193.587 0,0 -44.014,-22.38 -101.456,-5.968 -22.753,6.714 -48.117,17.904 -69.005,46.252 0,0 -43.641,55.204 -20.515,118.241 z"
           fill-opacity="0"
           stroke="#000000"
           stroke-width="7.184"
           stroke-miterlimit="10"
           id="path2565" />
      </g>
      <path
         d="m 191.349,84.298 c 0,0 10.071,-37.3 24.618,-59.68"
         fill-opacity="0"
         stroke="#000000"
         stroke-width="7.184"
         stroke-linecap="round"
         stroke-miterlimit="10"
         id="path2569" />
      <path
         d="m 203.285,58.561 c 0,0 37.673,51.847 60.426,72.362"
         fill-opacity="0"
         stroke="#000000"
         stroke-width="2.915"
         stroke-linecap="round"
         stroke-linejoin="round"
         id="path2571" />
      <path
         d="m 209.626,35.808 c 0,0 145.843,86.163 209.626,148.454"
         fill-opacity="0"
         stroke="#000000"
         stroke-width="2.915"
         stroke-linecap="round"
         stroke-linejoin="round"
         id="path2573" />
      <path
         d="m 223.8,20.142 c 0,0 159.271,50.355 204.777,144.351"
         fill-opacity="0"
         stroke="#000000"
         stroke-width="2.915"
         stroke-linecap="round"
         stroke-linejoin="round"
         id="path2575" />
      <path
         d="m 249.91,9.698 c 0,0 105.559,6.714 173.818,85.044"
         fill-opacity="0"
         stroke="#000000"
         stroke-width="2.915"
         stroke-linecap="round"
         stroke-linejoin="round"
         id="path2577" />
      <path
         d="m 196.198,63.41 c 0,0 -17.158,4.103 -36.181,32.078"
         fill-opacity="0"
         stroke="#000000"
         stroke-width="2.915"
         stroke-linecap="round"
         stroke-linejoin="round"
         id="path2579" />
      <g
         id="g2585">
        <path
           d="m 145.47,713.922 22.753,-131.669 -0.746,-128.312 c 0,0 2.238,-98.099 10.817,-123.463 l 48.117,-10.817 58.934,1.865 c 0,0 63.41,17.531 91.012,39.165 0,0 -38.792,210.745 -33.943,218.951 3.73,6.341 30.586,129.431 30.586,129.431"
           fill="#fbb4b6"
           id="path2581" />
        <path
           d="m 145.47,713.922 22.753,-131.669 -0.746,-128.312 c 0,0 2.238,-98.099 10.817,-123.463 l 48.117,-10.817 58.934,1.865 c 0,0 63.41,17.531 91.012,39.165 0,0 -38.792,210.745 -33.943,218.951 3.73,6.341 30.586,129.431 30.586,129.431"
           fill-opacity="0"
           stroke="#000000"
           stroke-width="6.276"
           stroke-linecap="round"
           stroke-linejoin="round"
           id="path2583" />
      </g>
      <g
         id="g2591">
        <path
           d="m 227.157,307.352 v 17.158 l 21.634,16.785 33.943,-16.785 1.492,-17.904 z"
           fill="#fdcda5"
           id="path2587" />
        <path
           d="m 227.157,307.352 v 17.158 l 21.634,16.785 33.943,-16.785 1.492,-17.904 z"
           fill-opacity="0"
           stroke="#000000"
           stroke-width="7.184"
           stroke-linecap="round"
           stroke-linejoin="round"
           stroke-miterlimit="10"
           id="path2589" />
      </g>
      <g
         id="g2597">
        <path
           d="m 267.441,570.317 c -4.103,-0.746 -9.698,-1.492 -10.071,-7.833 -0.746,-11.936 0.373,-22.38 0.373,-22.38 -0.746,-33.943 -25.364,-45.506 -37.3,-49.236 -5.595,-3.357 -14.92,-10.444 -25.737,-27.229 17.158,4.476 32.078,4.476 41.03,4.476 3.73,-13.801 7.833,-29.84 7.833,-29.84 -26.483,-4.476 -57.815,-22.38 -75.346,-33.943 -1.119,-3.357 -2.238,-6.714 -3.357,-10.071 l -9.698,1.492 c -1.119,-0.746 -1.865,-1.119 -1.865,-1.119 0,0 -9.698,-7.833 -19.769,2.984 -0.746,0.746 -1.119,1.492 -1.492,1.865 L 74.6,408.808 58.188,454.314 c 0,6.714 -0.746,39.538 19.023,93.996 2.984,8.206 9.325,17.904 14.174,23.499 7.087,8.206 18.277,17.158 40.657,18.65 3.73,0.373 23.499,-2.238 28.348,-0.373 2.238,0.746 2.984,3.73 2.984,3.73 0,0 1.865,6.714 0.746,18.65 0,0 -1.492,19.396 11.563,20.888 17.904,1.865 45.133,-8.206 45.133,-8.206 11.563,-9.698 -1.492,-21.634 -11.936,-23.499 -4.476,-0.746 -10.444,-1.492 -11.19,-8.579 -1.119,-13.428 0.746,-24.991 0.746,-24.991 0,-2.611 -0.373,-5.222 -0.746,-7.46 0,0 0,0 0,0 3.357,0.746 21.261,-1.865 25.737,-0.373 1.865,0.746 2.611,3.357 2.611,3.357 0,0 1.492,5.968 0.373,16.785 0,0 -1.492,17.531 10.444,19.023 16.412,1.865 40.657,-7.46 40.657,-7.46 11.19,-8.952 -0.373,-20.142 -10.071,-21.634 z"
           fill="#9cdae9"
           id="path2593" />
        <path
           d="m 267.441,570.317 c -4.103,-0.746 -9.698,-1.492 -10.071,-7.833 -0.746,-11.936 0.373,-22.38 0.373,-22.38 -0.746,-33.943 -25.364,-45.506 -37.3,-49.236 -5.595,-3.357 -14.92,-10.444 -25.737,-27.229 17.158,4.476 32.078,4.476 41.03,4.476 3.73,-13.801 7.833,-29.84 7.833,-29.84 -26.483,-4.476 -57.815,-22.38 -75.346,-33.943 -1.119,-3.357 -2.238,-6.714 -3.357,-10.071 l -9.698,1.492 c -1.119,-0.746 -1.865,-1.119 -1.865,-1.119 0,0 -9.698,-7.833 -19.769,2.984 -0.746,0.746 -1.119,1.492 -1.492,1.865 L 74.6,408.808 58.188,454.314 c 0,6.714 -0.746,39.538 19.023,93.996 2.984,8.206 9.325,17.904 14.174,23.499 7.087,8.206 18.277,17.158 40.657,18.65 3.73,0.373 23.499,-2.238 28.348,-0.373 2.238,0.746 2.984,3.73 2.984,3.73 0,0 1.865,6.714 0.746,18.65 0,0 -1.492,19.396 11.563,20.888 17.904,1.865 45.133,-8.206 45.133,-8.206 11.563,-9.698 -1.492,-21.634 -11.936,-23.499 -4.476,-0.746 -10.444,-1.492 -11.19,-8.579 -1.119,-13.428 0.746,-24.991 0.746,-24.991 0,-2.611 -0.373,-5.222 -0.746,-7.46 0,0 0,0 0,0 3.357,0.746 21.261,-1.865 25.737,-0.373 1.865,0.746 2.611,3.357 2.611,3.357 0,0 1.492,5.968 0.373,16.785 0,0 -1.492,17.531 10.444,19.023 16.412,1.865 40.657,-7.46 40.657,-7.46 11.19,-8.952 -0.373,-20.142 -10.071,-21.634 z"
           fill-opacity="0"
           stroke="#000000"
           stroke-width="6.276"
           stroke-linecap="round"
           stroke-linejoin="round"
           id="path2595" />
      </g>
      <g
         id="g2603">
        <path
           d="m 126.447,496.09 c 4.103,0.373 4.849,5.968 1.119,8.206 -2.238,1.119 -18.65,5.595 -26.856,7.833 0,0 0,2.984 0.373,2.984 6.714,-0.746 29.094,-2.238 30.959,2.984 2.238,7.46 -20.515,4.849 -30.213,6.341 0,0 0.373,1.865 0.746,1.865 5.222,1.119 19.396,5.595 16.785,10.071 -1.492,2.611 -5.968,1.492 -9.698,1.119 l -13.801,-2.611 -9.698,2.611 c -7.46,2.984 -11.563,3.357 -16.039,1.865 0,0 -11.936,0 -14.547,-18.65 -2.611,-18.65 2.611,-22.007 2.611,-22.007 5.968,-7.087 11.563,-23.872 14.92,-22.753 14.174,3.73 -3.357,16.412 0.746,21.634 8.579,0 13.428,-1.492 19.769,-4.849 8.206,-4.476 11.19,-8.206 16.412,-10.817 5.222,-2.238 6.714,2.984 4.476,4.849 -4.476,4.476 -9.325,8.579 -17.158,14.174 0,0.746 0,2.611 0.746,2.611 z"
           fill="url(#Gradient_1)"
           id="path2599"
           style="fill:url(#Gradient_1)" />
        <path
           d="m 126.447,496.09 c 4.103,0.373 4.849,5.968 1.119,8.206 -2.238,1.119 -18.65,5.595 -26.856,7.833 0,0 0,2.984 0.373,2.984 6.714,-0.746 29.094,-2.238 30.959,2.984 2.238,7.46 -20.515,4.849 -30.213,6.341 0,0 0.373,1.865 0.746,1.865 5.222,1.119 19.396,5.595 16.785,10.071 -1.492,2.611 -5.968,1.492 -9.698,1.119 l -13.801,-2.611 -9.698,2.611 c -7.46,2.984 -11.563,3.357 -16.039,1.865 0,0 -11.936,0 -14.547,-18.65 -2.611,-18.65 2.611,-22.007 2.611,-22.007 5.968,-7.087 11.563,-23.872 14.92,-22.753 14.174,3.73 -3.357,16.412 0.746,21.634 8.579,0 13.428,-1.492 19.769,-4.849 8.206,-4.476 11.19,-8.206 16.412,-10.817 5.222,-2.238 6.714,2.984 4.476,4.849 -4.476,4.476 -9.325,8.579 -17.158,14.174 0,0.746 0,2.611 0.746,2.611 z"
           fill-opacity="0"
           stroke="#000000"
           stroke-width="6.276"
           stroke-linecap="round"
           stroke-linejoin="round"
           stroke-miterlimit="10"
           id="path2601" />
      </g>
      <g
         id="g2613">
        <g
           id="g2609">
          <path
             d="m 244.315,438.275 c 0,0 26.483,1.119 27.229,18.65 0.746,17.531 -26.856,18.277 -36.927,8.952 -10.071,-9.325 9.698,-27.602 9.698,-27.602 z"
             fill="#ffff6b"
             id="path2605" />
          <path
             d="m 244.315,438.275 c 0,0 26.483,1.119 27.229,18.65 0.746,17.531 -26.856,18.277 -36.927,8.952 -10.071,-9.325 9.698,-27.602 9.698,-27.602 z"
             fill-opacity="0"
             stroke="#000000"
             stroke-width="6.276"
             stroke-miterlimit="10"
             id="path2607" />
        </g>
        <path
           d="m 246.926,452.449 c 0,0 11.19,5.595 14.547,1.119 3.73,-4.476 -4.849,-10.817 -9.698,-11.936"
           fill-opacity="0"
           stroke="#000000"
           stroke-width="2.914"
           stroke-linecap="round"
           stroke-linejoin="round"
           id="path2611" />
      </g>
      <path
         d="m 171.58,512.502 c 0,0 22.007,5.968 23.872,28.348"
         fill-opacity="0"
         stroke="#000000"
         stroke-width="6.276"
         stroke-linecap="round"
         stroke-linejoin="round"
         id="path2615" />
      <path
         d="m 142.859,434.918 c 0,1.865 -1.492,3.357 -3.357,3.357 -1.865,0 -3.357,-1.492 -3.357,-3.357 0,-1.865 1.492,-3.357 3.357,-3.357 1.865,0 3.357,1.492 3.357,3.357 z"
         fill="#000000"
         id="path2617" />
      <path
         d="m 151.811,447.973 c 0,1.854 -1.503,3.357 -3.357,3.357 -1.854,0 -3.357,-1.503 -3.357,-3.357 0,-1.854 1.503,-3.357 3.357,-3.357 1.854,0 3.357,1.503 3.357,3.357 z"
         fill="#000000"
         id="path2619" />
      <g
         id="g2625">
        <path
           d="m 171.953,430.442 c 0,0 5.595,17.158 13.428,23.499"
           fill="#ffff96"
           id="path2621" />
        <path
           d="m 171.953,430.442 c 0,0 5.595,17.158 13.428,23.499"
           fill-opacity="0"
           stroke="#000000"
           stroke-width="6.276"
           stroke-linecap="round"
           stroke-linejoin="round"
           id="path2623" />
      </g>
      <g
         id="g2631">
        <path
           d="m 165.239,140.248 c 0,0 -22.38,-13.428 -33.57,-0.746 -11.19,12.682 -3.73,42.149 28.721,53.339"
           fill="#f5caa5"
           id="path2627" />
        <path
           d="m 165.239,140.248 c 0,0 -22.38,-13.428 -33.57,-0.746 -11.19,12.682 -3.73,42.149 28.721,53.339"
           fill-opacity="0"
           stroke="#000000"
           stroke-width="7.184"
           stroke-linecap="round"
           stroke-linejoin="round"
           stroke-miterlimit="10"
           id="path2629" />
      </g>
      <g
         id="g2637">
        <path
           d="m 164.12,117.122 c 0,0 -26.483,35.808 -21.261,101.829 4.103,48.117 51.474,107.424 135.026,98.099 62.291,-7.087 97.353,-40.284 113.765,-82.06 0,0 48.863,-5.968 41.03,-44.014 -4.849,-23.872 -30.959,-15.293 -44.76,-4.103 0,0 -45.133,-24.991 -72.362,-46.252 -5.968,-4.476 -54.085,-37.673 -62.664,-51.101 -3.73,-5.595 16.412,47.371 10.071,44.014 -26.11,-13.428 -51.474,-29.84 -71.616,-49.609 0,0.373 -11.19,6.341 -27.229,33.197 z"
           fill="#fdcda5"
           id="path2633" />
        <path
           d="m 164.12,117.122 c 0,0 -26.483,35.808 -21.261,101.829 4.103,48.117 51.474,107.424 135.026,98.099 62.291,-7.087 97.353,-40.284 113.765,-82.06 0,0 48.863,-5.968 41.03,-44.014 -4.849,-23.872 -30.959,-15.293 -44.76,-4.103 0,0 -45.133,-24.991 -72.362,-46.252 -5.968,-4.476 -54.085,-37.673 -62.664,-51.101 -3.73,-5.595 16.412,47.371 10.071,44.014 -26.11,-13.428 -51.474,-29.84 -71.616,-49.609 0,0.373 -11.19,6.341 -27.229,33.197 z"
           fill-opacity="0"
           stroke="#000000"
           stroke-width="7.184"
           stroke-linecap="round"
           stroke-linejoin="round"
           stroke-miterlimit="10"
           id="path2635" />
      </g>
      <path
         d="m 291.686,254.759 c 0,0 -1.492,2.611 -5.222,6.341 -3.357,3.73 -8.952,8.206 -17.158,11.19 -7.833,2.984 -18.65,4.103 -28.348,0.373 -9.698,-3.73 -17.531,-11.936 -20.142,-22.753 0,0 -0.746,-5.968 -4.476,-2.984 -3.357,2.611 -0.373,7.46 -0.373,7.46 0,0 1.119,2.611 3.73,6.341 2.611,3.73 7.46,8.579 15.293,12.309 7.833,3.73 18.65,5.595 29.467,2.984 11.19,-2.238 21.634,-8.952 29.094,-18.65 0,0 8.952,-7.46 7.833,-11.19 -0.373,-1.119 -2.238,-2.611 -3.357,-3.357 -1.865,-0.746 -3.73,-0.373 -4.476,1.865 0,4.476 -1.119,8.206 -1.865,10.071 z"
         fill="#000000"
         id="path2639" />
      <path
         d="m 218.205,192.095 c -0.373,3.73 -11.563,5.595 -24.245,3.73 -13.055,-1.865 -23.126,-6.341 -22.38,-10.071 0.373,-3.73 11.563,-5.595 24.245,-3.73 13.055,1.492 23.126,5.968 22.38,10.071 z"
         fill="#fba7a6"
         opacity="0.7"
         id="path2641" />
      <g
         id="g2647">
        <path
           d="m 205.523,159.271 c 0,0 -0.746,8.579 -2.984,19.396"
           fill="#ffffff"
           id="path2643" />
        <path
           d="m 205.523,159.271 c 0,0 -0.746,8.579 -2.984,19.396"
           fill-opacity="0"
           stroke="#000000"
           stroke-width="9.089"
           stroke-linecap="round"
           stroke-linejoin="round"
           id="path2645" />
      </g>
      <path
         d="m 340.549,205.15 c -0.373,3.73 -11.19,5.968 -24.245,4.849 -13.055,-1.119 -23.126,-5.222 -23.126,-8.952 0.373,-3.73 11.19,-5.968 24.245,-4.849 13.428,0.746 23.499,4.849 23.126,8.952 z"
         fill="#fba7a6"
         opacity="0.7"
         id="path2649" />
      <g
         id="g2655">
        <path
           d="m 312.947,176.802 c 0,0 -0.746,7.087 -2.611,19.396"
           fill="#ffffff"
           id="path2651" />
        <path
           d="m 312.947,176.802 c 0,0 -0.746,7.087 -2.611,19.396"
           fill-opacity="0"
           stroke="#000000"
           stroke-width="9.683"
           stroke-linecap="round"
           stroke-linejoin="round"
           id="path2653" />
      </g>
      <path
         d="m 249.164,189.857 c 1.492,10.071 -17.904,1.119 -16.412,10.817 1.119,6.341 14.92,7.087 19.769,7.46"
         fill-opacity="0"
         stroke="#000000"
         stroke-width="5.883"
         stroke-linecap="round"
         stroke-linejoin="round"
         id="path2657" />
      <g
         id="g2663">
        <path
           d="M 248.791,341.295 227.157,324.51 v -10.071 l -22.007,10.817 v 43.641 z"
           fill="#ffffff"
           id="path2659" />
        <path
           d="M 248.791,341.295 227.157,324.51 v -10.071 l -22.007,10.817 v 43.641 z"
           fill-opacity="0"
           stroke="#000000"
           stroke-width="6.276"
           stroke-linecap="round"
           stroke-linejoin="round"
           id="path2661" />
      </g>
      <g
         id="g2669">
        <path
           d="m 152.184,593.07 -26.483,7.087 c -3.73,0.373 -14.174,-2.984 -17.158,-4.849 -5.595,-3.73 14.174,-4.476 15.666,-5.222 0.373,0 0,-0.746 0,-0.746 -11.936,3.357 -24.618,5.222 -26.11,-4.849 -1.119,-6.714 13.801,-3.73 21.634,-6.341 0.746,0 0,0 0,0 -11.563,0.746 -19.396,1.865 -22.753,1.865 -5.595,0 -9.325,-7.46 -6.714,-10.444 4.103,-4.849 7.087,-3.73 13.428,-3.73 4.476,0 7.833,-0.746 13.055,-2.611 1.119,-0.373 -0.373,-2.238 -0.746,-3.357 -11.936,-1.865 -19.396,-4.103 -27.229,-6.714 -3.73,-0.746 -4.476,-7.833 2.611,-7.833 7.46,-0.373 12.682,2.611 24.618,2.984 8.952,0.373 19.023,-1.119 28.721,-5.595 1.492,-8.579 -17.904,-27.229 -2.238,-32.078 4.103,-1.119 9.698,11.19 18.277,21.634 l 12.309,11.936 c 0,0 33.57,-9.325 33.57,-9.325 l 2.984,15.293 -2.238,17.904 -24.991,8.952 z"
           fill="url(#Gradient_2)"
           id="path2665"
           style="fill:url(#Gradient_2)" />
        <path
           d="m 152.184,593.07 -26.483,7.087 c -3.73,0.373 -14.174,-2.984 -17.158,-4.849 -5.595,-3.73 14.174,-4.476 15.666,-5.222 0.373,0 0,-0.746 0,-0.746 -11.936,3.357 -24.618,5.222 -26.11,-4.849 -1.119,-6.714 13.801,-3.73 21.634,-6.341 0.746,0 0,0 0,0 -11.563,0.746 -19.396,1.865 -22.753,1.865 -5.595,0 -9.325,-7.46 -6.714,-10.444 4.103,-4.849 7.087,-3.73 13.428,-3.73 4.476,0 7.833,-0.746 13.055,-2.611 1.119,-0.373 -0.373,-2.238 -0.746,-3.357 -11.936,-1.865 -19.396,-4.103 -27.229,-6.714 -3.73,-0.746 -4.476,-7.833 2.611,-7.833 7.46,-0.373 12.682,2.611 24.618,2.984 8.952,0.373 19.023,-1.119 28.721,-5.595 1.492,-8.579 -17.904,-27.229 -2.238,-32.078 4.103,-1.119 9.698,11.19 18.277,21.634 l 12.309,11.936 c 0,0 33.57,-9.325 33.57,-9.325 l 2.984,15.293 -2.238,17.904 -24.991,8.952 z"
           fill-opacity="0"
           stroke="#000000"
           stroke-width="6.276"
           stroke-linecap="round"
           stroke-linejoin="round"
           stroke-miterlimit="10"
           id="path2667" />
      </g>
      <g
         id="g2675">
        <path
           d="m 324.51,407.316 -5.222,99.218 -136.891,29.094 12.682,44.014 157.779,-32.451 c 0,0 16.039,-4.103 13.055,-23.499 L 376.73,360.691"
           fill="#fbb4b6"
           id="path2671" />
        <path
           d="m 324.51,407.316 -5.222,99.218 -136.891,29.094 12.682,44.014 157.779,-32.451 c 0,0 16.039,-4.103 13.055,-23.499 L 376.73,360.691"
           fill-opacity="0"
           stroke="#000000"
           stroke-width="6.276"
           stroke-linecap="round"
           stroke-linejoin="round"
           id="path2673" />
      </g>
      <g
         id="g2681">
        <path
           d="m 248.791,341.295 36.554,28.721 17.904,-40.284 -17.158,-15.293 -0.746,7.087 z"
           fill="#ffffff"
           id="path2677" />
        <path
           d="m 248.791,341.295 36.554,28.721 17.904,-40.284 -17.158,-15.293 -0.746,7.087 z"
           fill-opacity="0"
           stroke="#000000"
           stroke-width="6.276"
           stroke-linecap="round"
           stroke-linejoin="round"
           id="path2679" />
      </g>
      <g
         id="g2687">
        <path
           d="m 199.555,452.076 c 0,0 23.872,-11.19 32.824,3.73 8.952,15.293 -15.666,28.721 -28.348,25.364 -13.055,-3.357 -4.476,-29.094 -4.476,-29.094 z"
           fill="#ffff6b"
           id="path2683" />
        <path
           d="m 199.555,452.076 c 0,0 23.872,-11.19 32.824,3.73 8.952,15.293 -15.666,28.721 -28.348,25.364 -13.055,-3.357 -4.476,-29.094 -4.476,-29.094 z"
           fill-opacity="0"
           stroke="#000000"
           stroke-width="6.276"
           stroke-miterlimit="10"
           id="path2685" />
      </g>
      <g
         id="g2693">
        <path
           d="m 90.639,491.987 c 53.712,10.817 99.218,-0.746 116.749,-8.952 -2.238,-14.174 -5.222,-33.57 -5.222,-33.57 -39.165,10.817 -116.749,0.746 -116.749,0.746"
           fill="#9cdae9"
           id="path2689" />
        <path
           d="m 90.639,491.987 c 53.712,10.817 99.218,-0.746 116.749,-8.952 -2.238,-14.174 -5.222,-33.57 -5.222,-33.57 -39.165,10.817 -116.749,0.746 -116.749,0.746"
           fill-opacity="0"
           stroke="#000000"
           stroke-width="6.276"
           stroke-linecap="round"
           stroke-linejoin="round"
           id="path2691" />
      </g>
      <g
         id="g2699">
        <path
           d="m 205.523,329.732 c -1.492,-8.952 -9.698,-11.936 -19.023,-10.071 -0.373,0 -0.746,0.373 -1.119,0.373 -6.714,-22.753 -14.174,-33.943 -14.174,-33.943 C 134.28,232.752 73.108,256.624 73.108,256.624 -2.611,274.901 7.833,343.16 7.833,343.16 c 0.373,9.698 4.103,20.888 7.46,30.586 -4.476,1.119 -8.206,3.73 -10.444,7.833 -4.103,7.833 -0.746,18.277 7.833,22.753 5.595,2.984 12.309,2.611 17.158,-0.373 36.554,49.609 95.488,30.213 95.488,30.213 l 16.785,-6.341 c 45.879,-21.261 48.863,-55.577 49.236,-76.465 0.373,0 0.746,0 1.119,0 9.325,-1.119 14.92,-12.682 13.055,-21.634 z"
           fill="#fdcda5"
           id="path2695" />
        <path
           d="m 205.523,329.732 c -1.492,-8.952 -9.698,-11.936 -19.023,-10.071 -0.373,0 -0.746,0.373 -1.119,0.373 -6.714,-22.753 -14.174,-33.943 -14.174,-33.943 C 134.28,232.752 73.108,256.624 73.108,256.624 -2.611,274.901 7.833,343.16 7.833,343.16 c 0.373,9.698 4.103,20.888 7.46,30.586 -4.476,1.119 -8.206,3.73 -10.444,7.833 -4.103,7.833 -0.746,18.277 7.833,22.753 5.595,2.984 12.309,2.611 17.158,-0.373 36.554,49.609 95.488,30.213 95.488,30.213 l 16.785,-6.341 c 45.879,-21.261 48.863,-55.577 49.236,-76.465 0.373,0 0.746,0 1.119,0 9.325,-1.119 14.92,-12.682 13.055,-21.634 z"
           fill-opacity="0"
           stroke="#000000"
           stroke-width="6.673"
           stroke-linecap="round"
           stroke-linejoin="round"
           stroke-miterlimit="10"
           id="path2697" />
      </g>
      <g
         id="g2705">
        <path
           d="m 25.364,284.972 c 0,0 38.046,45.133 110.781,26.11 0,0 -12.309,-5.222 -12.309,-20.515 0,-10.444 9.698,-27.229 22.753,-29.094 0,0 -12.682,-22.38 -60.426,-17.158 -41.776,4.849 -58.934,27.229 -60.799,40.657 z"
           fill="#5a3d1b"
           id="path2701" />
        <path
           d="m 25.364,284.972 c 0,0 38.046,45.133 110.781,26.11 0,0 -12.309,-5.222 -12.309,-20.515 0,-10.444 9.698,-27.229 22.753,-29.094 0,0 -12.682,-22.38 -60.426,-17.158 -41.776,4.849 -58.934,27.229 -60.799,40.657 z"
           fill-opacity="0"
           stroke="#000000"
           stroke-width="6.673"
           stroke-linecap="round"
           stroke-linejoin="round"
           stroke-miterlimit="10"
           id="path2703" />
      </g>
      <path
         d="m 139.875,377.476 c -2.238,-1.865 -4.103,0.746 -4.476,1.119 v 0 c -2.238,5.222 -6.341,9.698 -10.817,12.309 -4.476,2.611 -9.325,3.357 -13.428,2.984 -8.206,-0.746 -11.936,-3.73 -11.936,-3.357 l -0.746,-0.373 c -0.373,0 -2.238,-1.119 -3.73,1.119 -1.492,2.238 1.865,3.73 2.238,3.73 v 0 0 0 0 c 0,0 5.595,1.865 14.174,1.492 4.103,-0.373 9.325,-1.492 14.174,-3.73 4.849,-2.238 10.071,-5.968 14.174,-10.444 v 0 0 c 0.373,-0.746 2.238,-3.73 0.373,-4.849 z"
         fill="#000000"
         id="path2707" />
      <path
         d="m 165.612,345.398 c 0.746,2.611 -6.341,6.714 -15.666,8.579 -9.325,1.865 -17.531,1.119 -17.904,-1.492 -0.746,-2.611 6.341,-6.714 15.666,-8.579 9.325,-1.865 17.531,-1.119 17.904,1.492 z"
         fill="#fba7a6"
         opacity="0.7"
         id="path2709" />
      <g
         id="g2715">
        <path
           d="m 140.248,331.597 c 0,0 1.119,4.849 2.238,14.174"
           fill="#ffffff"
           id="path2711" />
        <path
           d="m 140.248,331.597 c 0,0 1.119,4.849 2.238,14.174"
           fill-opacity="0"
           stroke="#000000"
           stroke-width="7.069"
           stroke-linecap="round"
           stroke-linejoin="round"
           id="path2713" />
      </g>
      <path
         d="m 48.117,371.135 c 0.746,2.611 8.579,2.984 17.904,0.746 9.325,-2.238 16.039,-6.341 15.666,-8.952 -0.746,-2.611 -8.579,-2.984 -17.904,-0.746 -9.325,1.865 -16.039,5.968 -15.666,8.952 z"
         fill="#fba7a6"
         opacity="0.7"
         id="path2717" />
      <g
         id="g2723">
        <path
           d="m 65.275,347.636 c 0,0 1.119,4.849 4.103,13.428"
           fill="#ffffff"
           id="path2719" />
        <path
           d="m 65.275,347.636 c 0,0 1.119,4.849 4.103,13.428"
           fill-opacity="0"
           stroke="#000000"
           stroke-width="7.069"
           stroke-linecap="round"
           stroke-linejoin="round"
           id="path2721" />
      </g>
      <path
         d="m 106.678,359.199 c 0,0 5.968,-5.595 7.46,2.984"
         fill-opacity="0"
         stroke="#000000"
         stroke-width="4.707"
         stroke-linecap="round"
         stroke-linejoin="round"
         stroke-miterlimit="10"
         id="path2725" />
      <path
         d="m 126.074,248.791 c 0,0 -42.895,37.673 8.579,62.291"
         fill-opacity="0"
         stroke="#000000"
         stroke-width="2.915"
         stroke-linecap="round"
         stroke-linejoin="round"
         id="path2727" />
      <path
         d="m 58.934,254.386 c 0,0 3.357,54.831 77.211,57.069 0,0 -64.529,-9.698 -48.117,-63.783"
         fill-opacity="0"
         stroke="#000000"
         stroke-width="2.915"
         stroke-linecap="round"
         stroke-linejoin="round"
         id="path2729" />
    </g>
  </g>
</svg>
