<svg width="93.047" height="140" xmlns="http://www.w3.org/2000/svg"><defs><linearGradient id="prefix__a" gradientUnits="userSpaceOnUse" x1="860.842" y1="811.597" x2="937.249" y2="811.597" gradientTransform="rotate(58.4 765.548 -63.118)"><stop offset="0" stop-color="#FDD2AE"/><stop offset="1" stop-color="#FCB1A6"/></linearGradient><linearGradient id="prefix__b" gradientUnits="userSpaceOnUse" x1="628.128" y1="81.14" x2="718.808" y2="81.14" gradientTransform="scale(-1 1) rotate(84.26 .296 -134.307)"><stop offset="0" stop-color="#FDD2AE"/><stop offset="1" stop-color="#FCB1A6"/></linearGradient></defs><path d="M83.373 27.728s15.878 6.41 5.39 20.832c0 0-7.94 9.323-3.132 12.31 0 0 1.748 1.019 5.025-.948 0 0-5.462 8.158-14.276 2.84-5.608-3.422-3.277-10.997-3.059-11.944.219-1.02 10.052-23.09 10.052-23.09z" fill="#5a3d1b"/><path d="M83.373 27.728s15.878 6.41 5.39 20.832c0 0-7.94 9.323-3.132 12.31 0 0 1.748 1.019 5.025-.948 0 0-5.462 8.158-14.276 2.84-5.608-3.422-3.277-10.997-3.059-11.944.219-1.02 10.052-23.09 10.052-23.09z" stroke="#000" stroke-width="1.4028196800000001" stroke-linecap="round" stroke-linejoin="round" stroke-miterlimit="10" fill="none"/><path d="M83.373 41.057S79.22 46.52 77.4 52.493c-2.55 8.667 5.827 12.31 11.727 9.032-10.853 2.84-9.105-7.94-3.642-14.64 7.284-8.887-1.02-14.932-1.02-14.932" stroke="#000" stroke-width=".56921205" stroke-linecap="round" stroke-linejoin="round" fill="none"/><path d="M82.353 40.839S91.021 13.598 68.66 3.037c0 0-8.595-4.37-19.812-1.166-4.443 1.311-9.396 3.496-13.475 9.032 0 0-8.522 10.78-4.006 23.09z" fill="#5a3d1b"/><path d="M82.353 40.839S91.021 13.598 68.66 3.037c0 0-8.595-4.37-19.812-1.166-4.443 1.311-9.396 3.496-13.475 9.032 0 0-8.522 10.78-4.006 23.09z" stroke="#000" stroke-width="1.4028196800000001" stroke-miterlimit="10" fill="none"/><path d="M37.413 16.439s1.966-7.284 4.807-11.654" stroke="#000" stroke-width="1.4028196800000001" stroke-linecap="round" stroke-miterlimit="10" fill="none"/><path d="M39.744 11.413s7.356 10.124 11.8 14.13M40.982 6.97S69.46 23.795 81.916 35.959M43.75 3.91s31.1 9.834 39.987 28.189M48.848 1.871S69.461 3.182 82.79 18.478M38.36 12.36s-3.35.801-7.066 6.264" stroke="#000" stroke-width=".56921205" stroke-linecap="round" stroke-linejoin="round" fill="none"/><path d="M28.454 139.387l4.443-25.711-.146-25.056s.437-19.156 2.112-24.109l9.396-2.112 11.509.364S68.15 66.186 73.54 70.41c0 0-7.575 41.153-6.628 42.755.728 1.238 5.972 25.274 5.972 25.274" fill="#fbb4b6"/><path d="M28.454 139.387l4.443-25.711-.146-25.056s.437-19.156 2.112-24.109l9.396-2.112 11.509.364S68.15 66.186 73.54 70.41c0 0-7.575 41.153-6.628 42.755.728 1.238 5.972 25.274 5.972 25.274" stroke="#000" stroke-width="1.22551452" stroke-linecap="round" stroke-linejoin="round" fill="none"/><path d="M44.405 59.995v3.35l4.225 3.278 6.628-3.277.291-3.497z" fill="#fdcda5"/><path d="M44.405 59.995v3.35l4.225 3.278 6.628-3.277.291-3.497z" stroke="#000" stroke-width="1.4028196800000001" stroke-linecap="round" stroke-linejoin="round" stroke-miterlimit="10" fill="none"/><path d="M52.271 111.345c-.8-.146-1.893-.291-1.966-1.53-.146-2.33.073-4.37.073-4.37-.146-6.628-4.953-8.886-7.284-9.614-1.093-.656-2.913-2.04-5.026-5.317 3.35.874 6.264.874 8.012.874.729-2.695 1.53-5.827 1.53-5.827-5.172-.874-11.29-4.37-14.713-6.628l-.656-1.967-1.893.291a3.784 3.784 0 00-.365-.218s-1.893-1.53-3.86.583c-.146.145-.218.29-.291.364l-11.217 1.82-3.205 8.887c0 1.31-.146 7.72 3.715 18.355.582 1.602 1.82 3.496 2.767 4.588 1.384 1.603 3.57 3.35 7.94 3.642.728.073 4.588-.437 5.535-.073.437.146.583.729.583.729s.364 1.31.146 3.642c0 0-.292 3.787 2.258 4.078 3.496.365 8.813-1.602 8.813-1.602 2.258-1.894-.292-4.224-2.33-4.589-.875-.145-2.04-.291-2.186-1.675-.219-2.622.146-4.88.146-4.88 0-.51-.073-1.02-.146-1.457.655.146 4.152-.364 5.026-.073.364.146.51.656.51.656s.29 1.165.072 3.278c0 0-.291 3.423 2.04 3.714 3.205.365 7.939-1.456 7.939-1.456 2.185-1.749-.073-3.934-1.967-4.225z" fill="#9cdae9"/><path d="M52.271 111.345c-.8-.146-1.893-.291-1.966-1.53-.146-2.33.073-4.37.073-4.37-.146-6.628-4.953-8.886-7.284-9.614-1.093-.656-2.913-2.04-5.026-5.317 3.35.874 6.264.874 8.012.874.729-2.695 1.53-5.827 1.53-5.827-5.172-.874-11.29-4.37-14.713-6.628l-.656-1.967-1.893.291a3.784 3.784 0 00-.365-.218s-1.893-1.53-3.86.583c-.146.145-.218.29-.291.364l-11.217 1.82-3.205 8.887c0 1.31-.146 7.72 3.715 18.355.582 1.602 1.82 3.496 2.767 4.588 1.384 1.603 3.57 3.35 7.94 3.642.728.073 4.588-.437 5.535-.073.437.146.583.729.583.729s.364 1.31.146 3.642c0 0-.292 3.787 2.258 4.078 3.496.365 8.813-1.602 8.813-1.602 2.258-1.894-.292-4.224-2.33-4.589-.875-.145-2.04-.291-2.186-1.675-.219-2.622.146-4.88.146-4.88 0-.51-.073-1.02-.146-1.457 0 0 0 0 0 0 .655.146 4.152-.364 5.026-.073.364.146.51.656.51.656s.29 1.165.072 3.278c0 0-.291 3.423 2.04 3.714 3.205.365 7.939-1.456 7.939-1.456 2.185-1.749-.073-3.934-1.967-4.225z" stroke="#000" stroke-width="1.22551452" stroke-linecap="round" stroke-linejoin="round" fill="none"/><path d="M126.447 496.09c4.103.373 4.849 5.968 1.119 8.206-2.238 1.119-18.65 5.595-26.856 7.833 0 0 0 2.984.373 2.984 6.714-.746 29.094-2.238 30.959 2.984 2.238 7.46-20.515 4.849-30.213 6.341 0 0 .373 1.865.746 1.865 5.222 1.119 19.396 5.595 16.785 10.071-1.492 2.611-5.968 1.492-9.698 1.119l-13.801-2.611-9.698 2.611c-7.46 2.984-11.563 3.357-16.039 1.865 0 0-11.936 0-14.547-18.65-2.611-18.65 2.611-22.007 2.611-22.007 5.968-7.087 11.563-23.872 14.92-22.753 14.174 3.73-3.357 16.412.746 21.634 8.579 0 13.428-1.492 19.769-4.849 8.206-4.476 11.19-8.206 16.412-10.817 5.222-2.238 6.714 2.984 4.476 4.849-4.476 4.476-9.325 8.579-17.158 14.174 0 .746 0 2.611.746 2.611z" fill="url(#prefix__a)" transform="matrix(.19527 0 0 .19527 .047 -.022)"/><path d="M24.74 96.85c.8.073.946 1.166.218 1.603-.437.218-3.642 1.092-5.245 1.53 0 0 0 .582.073.582 1.311-.145 5.681-.437 6.046.583.437 1.457-4.006.947-5.9 1.238 0 0 .073.364.146.364 1.02.219 3.787 1.093 3.277 1.967-.291.51-1.165.291-1.894.218l-2.695-.51-1.893.51c-1.457.583-2.258.656-3.132.365 0 0-2.331 0-2.84-3.642-.51-3.642.509-4.298.509-4.298 1.165-1.384 2.258-4.661 2.913-4.443 2.768.729-.655 3.205.146 4.225 1.675 0 2.622-.291 3.86-.947 1.603-.874 2.186-1.602 3.205-2.112 1.02-.437 1.311.582.874.947-.874.874-1.82 1.675-3.35 2.767 0 .146 0 .51.146.51z" stroke="#000" stroke-width="1.22551452" stroke-linecap="round" stroke-linejoin="round" stroke-miterlimit="10" fill="none"/><path d="M47.756 85.56s5.171.22 5.317 3.643c.145 3.423-5.245 3.569-7.211 1.748-1.967-1.821 1.894-5.39 1.894-5.39z" fill="#ffff6b"/><path d="M47.756 85.56s5.171.22 5.317 3.643c.145 3.423-5.245 3.569-7.211 1.748-1.967-1.821 1.894-5.39 1.894-5.39z" stroke="#000" stroke-width="1.22551452" stroke-miterlimit="10" fill="none"/><path d="M48.265 88.329s2.186 1.092 2.841.218c.728-.874-.947-2.112-1.894-2.33" stroke="#000" stroke-width=".56901678" stroke-linecap="round" stroke-linejoin="round" fill="none"/><path d="M33.552 100.055s4.298 1.166 4.662 5.536" stroke="#000" stroke-width="1.22551452" stroke-linecap="round" stroke-linejoin="round" fill="none"/><path d="M27.944 84.905a.653.653 0 01-.656.656.653.653 0 01-.655-.656c0-.364.291-.655.655-.655.365 0 .656.291.656.655zM29.692 87.455a.656.656 0 11-1.311 0 .656.656 0 011.311 0z"/><path d="M33.625 84.031s1.093 3.35 2.622 4.589" fill="#ffff96"/><path d="M33.625 84.031s1.093 3.35 2.622 4.589" stroke="#000" stroke-width="1.22551452" stroke-linecap="round" stroke-linejoin="round" fill="none"/><path d="M32.314 27.364s-4.37-2.622-6.555-.146c-2.185 2.477-.729 8.231 5.608 10.416" fill="#f5caa5"/><path d="M32.314 27.364s-4.37-2.622-6.555-.146c-2.185 2.477-.729 8.231 5.608 10.416" stroke="#000" stroke-width="1.4028196800000001" stroke-linecap="round" stroke-linejoin="round" stroke-miterlimit="10" fill="none"/><path d="M32.096 22.848s-5.172 6.993-4.152 19.885c.801 9.396 10.051 20.977 26.367 19.156 12.164-1.384 19.01-7.867 22.215-16.024 0 0 9.542-1.166 8.012-8.595-.947-4.662-6.045-2.986-8.74-.801 0 0-8.814-4.88-14.13-9.032-1.166-.874-10.562-7.357-12.237-9.979-.729-1.092 3.205 9.25 1.966 8.595-5.098-2.622-10.051-5.827-13.984-9.687 0 .073-2.185 1.238-5.317 6.482z" fill="#fdcda5"/><path d="M32.096 22.848s-5.172 6.993-4.152 19.885c.801 9.396 10.051 20.977 26.367 19.156 12.164-1.384 19.01-7.867 22.215-16.024 0 0 9.542-1.166 8.012-8.595-.947-4.662-6.045-2.986-8.74-.801 0 0-8.814-4.88-14.13-9.032-1.166-.874-10.562-7.357-12.237-9.979-.729-1.092 3.205 9.25 1.966 8.595-5.098-2.622-10.051-5.827-13.984-9.687 0 .073-2.185 1.238-5.317 6.482z" stroke="#000" stroke-width="1.4028196800000001" stroke-linecap="round" stroke-linejoin="round" stroke-miterlimit="10" fill="none"/><path d="M57.006 49.725s-.292.51-1.02 1.238c-.655.729-1.748 1.603-3.35 2.185-1.53.583-3.642.802-5.536.073-1.894-.728-3.423-2.33-3.933-4.443 0 0-.146-1.165-.874-.582-.656.51-.073 1.456-.073 1.456s.218.51.728 1.238c.51.729 1.457 1.676 2.987 2.404s3.641 1.093 5.754.583c2.185-.437 4.224-1.748 5.681-3.642 0 0 1.748-1.457 1.53-2.185-.073-.219-.437-.51-.656-.656-.364-.145-.728-.073-.874.364 0 .875-.218 1.603-.364 1.967z"/><path d="M42.657 37.488c-.073.729-2.258 1.093-4.734.729-2.55-.364-4.516-1.238-4.37-1.967.072-.728 2.257-1.092 4.734-.728 2.55.291 4.516 1.165 4.37 1.966z" fill="#fba7a6" opacity=".7"/><path d="M40.18 31.079s-.145 1.675-.582 3.787" fill="#fff"/><path d="M40.18 31.079s-.145 1.675-.582 3.787" stroke="#000" stroke-width="1.7748090300000001" stroke-linecap="round" stroke-linejoin="round" fill="none"/><path d="M66.547 40.038c-.072.728-2.185 1.165-4.734.947-2.55-.219-4.516-1.02-4.516-1.748.073-.729 2.185-1.166 4.735-.947 2.622.145 4.588.947 4.515 1.748z" fill="#fba7a6" opacity=".7"/><path d="M61.158 34.502s-.146 1.384-.51 3.788" fill="#fff"/><path d="M61.158 34.502s-.146 1.384-.51 3.788" stroke="#000" stroke-width="1.89079941" stroke-linecap="round" stroke-linejoin="round" fill="none"/><path d="M48.702 37.051c.292 1.967-3.496.219-3.204 2.113.218 1.238 2.913 1.384 3.86 1.456" stroke="#000" stroke-width="1.14877341" stroke-linecap="round" stroke-linejoin="round" fill="none"/><path d="M48.63 66.623l-4.225-3.277v-1.967l-4.297 2.112v8.522z" fill="#fff"/><path d="M48.63 66.623l-4.225-3.277v-1.967l-4.297 2.112v8.522z" stroke="#000" stroke-width="1.22551452" stroke-linecap="round" stroke-linejoin="round" fill="none"/><path d="M152.184 593.07l-26.483 7.087c-3.73.373-14.174-2.984-17.158-4.849-5.595-3.73 14.174-4.476 15.666-5.222.373 0 0-.746 0-.746-11.936 3.357-24.618 5.222-26.11-4.849-1.119-6.714 13.801-3.73 21.634-6.341.746 0 0 0 0 0-11.563.746-19.396 1.865-22.753 1.865-5.595 0-9.325-7.46-6.714-10.444 4.103-4.849 7.087-3.73 13.428-3.73 4.476 0 7.833-.746 13.055-2.611 1.119-.373-.373-2.238-.746-3.357-11.936-1.865-19.396-4.103-27.229-6.714-3.73-.746-4.476-7.833 2.611-7.833 7.46-.373 12.682 2.611 24.618 2.984 8.952.373 19.023-1.119 28.721-5.595 1.492-8.579-17.904-27.229-2.238-32.078 4.103-1.119 9.698 11.19 18.277 21.634l12.309 11.936 33.57-9.325 2.984 15.293-2.238 17.904-24.991 8.952z" fill="url(#prefix__b)" transform="matrix(.19527 0 0 .19527 .047 -.022)"/><path d="M29.765 115.788l-5.172 1.384c-.728.073-2.767-.583-3.35-.947-1.093-.728 2.768-.874 3.06-1.02.072 0 0-.145 0-.145-2.332.655-4.808 1.02-5.1-.947-.218-1.311 2.695-.729 4.225-1.238.146 0 0 0 0 0-2.258.145-3.787.364-4.443.364-1.093 0-1.82-1.457-1.311-2.04.801-.947 1.384-.728 2.622-.728.874 0 1.53-.146 2.55-.51.218-.073-.073-.437-.146-.655-2.331-.365-3.788-.802-5.317-1.311-.729-.146-.874-1.53.51-1.53 1.456-.073 2.476.51 4.807.583a12.219 12.219 0 005.608-1.093c.291-1.675-3.496-5.317-.437-6.264.801-.218 1.894 2.185 3.57 4.225l2.403 2.33 6.555-1.82.583 2.986-.437 3.496-4.88 1.748z" stroke="#000" stroke-width="1.22551452" stroke-linecap="round" stroke-linejoin="round" stroke-miterlimit="10" fill="none"/><g><path d="M63.415 79.515l-1.02 19.375-26.73 5.681 2.476 8.595 30.81-6.337s3.132-.801 2.55-4.589l2.112-31.83" fill="#fbb4b6"/><path d="M63.415 79.515l-1.02 19.375-26.73 5.681 2.476 8.595 30.81-6.337s3.132-.801 2.55-4.589l2.112-31.83" stroke="#000" stroke-width="1.22551452" stroke-linecap="round" stroke-linejoin="round" fill="none"/></g><g><path d="M48.63 66.623l7.138 5.609 3.496-7.867-3.35-2.986-.146 1.384z" fill="#fff"/><path d="M48.63 66.623l7.138 5.609 3.496-7.867-3.35-2.986-.146 1.384z" stroke="#000" stroke-width="1.22551452" stroke-linecap="round" stroke-linejoin="round" fill="none"/></g><g><path d="M39.015 88.256s4.662-2.185 6.41.728c1.748 2.986-3.06 5.609-5.536 4.953-2.55-.655-.874-5.681-.874-5.681z" fill="#ffff6b"/><path d="M39.015 88.256s4.662-2.185 6.41.728c1.748 2.986-3.06 5.609-5.536 4.953-2.55-.655-.874-5.681-.874-5.681z" stroke="#000" stroke-width="1.22551452" stroke-miterlimit="10" fill="none"/></g><g><path d="M17.747 96.05c10.488 2.112 19.374-.146 22.798-1.749-.437-2.768-1.02-6.555-1.02-6.555-7.648 2.112-22.798.146-22.798.146" fill="#9cdae9"/><path d="M17.747 96.05c10.488 2.112 19.374-.146 22.798-1.749-.437-2.768-1.02-6.555-1.02-6.555-7.648 2.112-22.798.146-22.798.146" stroke="#000" stroke-width="1.22551452" stroke-linecap="round" stroke-linejoin="round" fill="none"/></g><g><path d="M40.18 64.365c-.29-1.748-1.893-2.33-3.714-1.966-.073 0-.146.073-.219.073-1.31-4.444-2.767-6.629-2.767-6.629-7.211-10.415-19.157-5.754-19.157-5.754C-.462 53.66 1.577 66.987 1.577 66.987c.073 1.894.801 4.08 1.457 5.973-.874.219-1.603.728-2.04 1.53-.8 1.53-.145 3.569 1.53 4.443 1.092.582 2.403.51 3.35-.073 7.138 9.687 18.647 5.9 18.647 5.9l3.277-1.239c8.96-4.151 9.542-10.852 9.615-14.931h.218c1.821-.219 2.914-2.477 2.55-4.225z" fill="#fdcda5"/><path d="M40.18 64.365c-.29-1.748-1.893-2.33-3.714-1.966-.073 0-.146.073-.219.073-1.31-4.444-2.767-6.629-2.767-6.629-7.211-10.415-19.157-5.754-19.157-5.754C-.462 53.66 1.577 66.987 1.577 66.987c.073 1.894.801 4.08 1.457 5.973-.874.219-1.603.728-2.04 1.53-.8 1.53-.145 3.569 1.53 4.443 1.092.582 2.403.51 3.35-.073 7.138 9.687 18.647 5.9 18.647 5.9l3.277-1.239c8.96-4.151 9.542-10.852 9.615-14.931h.218c1.821-.219 2.914-2.477 2.55-4.225z" stroke="#000" stroke-width="1.30303671" stroke-linecap="round" stroke-linejoin="round" stroke-miterlimit="10" fill="none"/></g><g><path d="M5 55.625s7.43 8.813 21.633 5.098c0 0-2.404-1.02-2.404-4.006 0-2.039 1.894-5.317 4.443-5.68 0 0-2.476-4.371-11.8-3.351C8.716 48.633 5.366 53.003 5 55.625z" fill="#5a3d1b"/><path d="M5 55.625s7.43 8.813 21.633 5.098c0 0-2.404-1.02-2.404-4.006 0-2.039 1.894-5.317 4.443-5.68 0 0-2.476-4.371-11.8-3.351C8.716 48.633 5.366 53.003 5 55.625z" stroke="#000" stroke-width="1.30303671" stroke-linecap="round" stroke-linejoin="round" stroke-miterlimit="10" fill="none"/></g><path d="M27.361 73.688c-.437-.364-.801.146-.874.219a5.256 5.256 0 01-2.112 2.404 4.44 4.44 0 01-2.622.582c-1.603-.145-2.331-.728-2.331-.655l-.146-.073c-.072 0-.437-.219-.728.218s.364.729.437.729c0 0 1.093.364 2.768.291a8.692 8.692 0 002.768-.728 9.064 9.064 0 002.767-2.04c.073-.145.437-.728.073-.947z"/><path d="M32.387 67.424c.146.51-1.238 1.311-3.06 1.676-1.82.364-3.422.218-3.495-.292-.146-.51 1.238-1.31 3.059-1.675 1.82-.364 3.423-.218 3.496.291z" fill="#fba7a6" opacity=".7"/><g><path d="M27.434 64.73s.219.946.437 2.767" fill="#fff"/><path d="M27.434 64.73s.219.946.437 2.767" stroke="#000" stroke-width="1.38036363" stroke-linecap="round" stroke-linejoin="round" fill="none"/></g><path d="M9.443 72.45c.146.51 1.676.583 3.497.146 1.82-.437 3.132-1.238 3.059-1.748-.146-.51-1.676-.583-3.496-.146-1.821.364-3.132 1.165-3.06 1.748z" fill="#fba7a6" opacity=".7"/><g><path d="M12.794 67.861s.218.947.801 2.623" fill="#fff"/><path d="M12.794 67.861s.218.947.801 2.623" stroke="#000" stroke-width="1.38036363" stroke-linecap="round" stroke-linejoin="round" fill="none"/></g><path d="M20.879 70.12s1.165-1.093 1.456.582" stroke="#000" stroke-width=".91913589" stroke-linecap="round" stroke-linejoin="round" stroke-miterlimit="10" fill="none"/><path d="M24.666 48.56s-8.376 7.356 1.676 12.163M11.556 49.652s.655 10.707 15.077 11.144c0 0-12.6-1.893-9.396-12.455" stroke="#000" stroke-width=".56921205" stroke-linecap="round" stroke-linejoin="round" fill="none"/></svg>