<?xml version="1.0" encoding="UTF-8" standalone="no"?>
<!-- Uploaded to: SVG Repo, www.svgrepo.com, Generator: SVG Repo Mixer Tools -->

<svg
   width="126.02497"
   height="163.55692"
   viewBox="0 0 78.765607 102.22307"
   version="1.1"
   id="svg38"
   sodipodi:docname="4b6dc4f3dfa1b6eb8f58604887d3bb0d.svg"
   inkscape:version="1.2.2 (732a01da63, 2022-12-09)"
   xmlns:inkscape="http://www.inkscape.org/namespaces/inkscape"
   xmlns:sodipodi="http://sodipodi.sourceforge.net/DTD/sodipodi-0.dtd"
   xmlns="http://www.w3.org/2000/svg"
   xmlns:svg="http://www.w3.org/2000/svg">
  <defs
     id="defs42" />
  <sodipodi:namedview
     id="namedview40"
     pagecolor="#ffffff"
     bordercolor="#000000"
     borderopacity="0.25"
     inkscape:showpageshadow="2"
     inkscape:pageopacity="0.0"
     inkscape:pagecheckerboard="0"
     inkscape:deskcolor="#d1d1d1"
     showgrid="false"
     inkscape:zoom="1.04625"
     inkscape:cx="218.87694"
     inkscape:cy="284.82676"
     inkscape:window-width="1920"
     inkscape:window-height="1017"
     inkscape:window-x="1912"
     inkscape:window-y="-8"
     inkscape:window-maximized="1"
     inkscape:current-layer="svg38" />
  <g
     style="isolation:isolate"
     id="g36"
     transform="matrix(0.28735444,0,0,0.28735444,-32.455357,-20.725958)">
    <path
       d="m 303.278,121.459 a 55.833,55.833 0 0 1 -46.2,14.611 55.949,55.949 0 0 1 63.667,-59.814 55.835,55.835 0 0 1 -17.467,45.203 z"
       fill="#7bb82f"
       id="path2" />
    <path
       d="m 320.914,81.06 a 55.943,55.943 0 0 0 -59.057,55.482 q -2.4,-0.133 -4.783,-0.472 a 55.948,55.948 0 0 1 63.667,-59.814 q 0.189,2.399 0.173,4.804 z"
       fill="#ffffff"
       opacity="0.4"
       id="path4" />
    <path
       d="m 303.277,121.46 a 55.835,55.835 0 0 1 -46.2,14.61 56.3,56.3 0 0 1 0.15,-10.442 q 0.041,0.959 0.116,1.917 A 55.943,55.943 0 0 0 320.86,78.174 55.8,55.8 0 0 1 303.277,121.46 Z"
       fill="#4ead34"
       id="path6" />
    <path
       d="m 303.278,121.459 a 55.833,55.833 0 0 1 -46.2,14.611 55.949,55.949 0 0 1 63.667,-59.814 55.835,55.835 0 0 1 -17.467,45.203 z"
       fill="none"
       stroke="#262a5d"
       stroke-miterlimit="10"
       stroke-width="7.119"
       id="path8" />
    <path
       d="m 255.782,132.861 a 246.275,246.275 0 0 1 47.779,-40.3 242.674,242.674 0 0 0 -42.273,44.815 z"
       fill="#262a5d"
       id="path10" />
    <path
       d="m 252.523,179.249 q 0.173,-3.165 0.1,-6.317 c -0.009,-0.525 -0.017,-1.049 -0.045,-1.574 l -0.07,-1.57 c -0.077,-1.045 -0.13,-2.089 -0.244,-3.128 -0.179,-2.08 -0.486,-4.143 -0.812,-6.191 l -0.287,-1.53 c -0.1,-0.509 -0.182,-1.019 -0.3,-1.523 l -0.336,-1.514 c -0.058,-0.251 -0.107,-0.5 -0.171,-0.755 l -0.194,-0.749 a 79,79 0 0 0 -3.916,-11.646 l -0.6,-1.4 -0.648,-1.385 -0.322,-0.69 -0.162,-0.344 -0.174,-0.339 -0.693,-1.353 -0.347,-0.675 -0.369,-0.664 -0.735,-1.325 c -0.245,-0.441 -0.516,-0.868 -0.772,-1.3 -0.256,-0.432 -0.51,-0.868 -0.784,-1.292 a 79.676,79.676 0 0 0 -15.634,-18.089 q -2.271,-1.938 -4.655,-3.722 -2.384,-1.784 -4.89,-3.376 -2.495,-1.6 -5.078,-3.016 c -1.722,-0.941 -3.454,-1.807 -5.224,-2.612 l 10.045,-18.3 c 2.069,1.3 4.1,2.688 6.05,4.128 1.95,1.44 3.85,2.947 5.688,4.511 1.838,1.564 3.619,3.185 5.339,4.866 1.72,1.681 3.374,3.425 4.972,5.214 1.598,1.789 3.115,3.651 4.582,5.542 0.717,0.962 1.447,1.908 2.129,2.894 0.342,0.49 0.7,0.97 1.028,1.469 l 1,1.492 c 0.337,0.493 0.645,1.007 0.965,1.511 0.32,0.504 0.642,1.006 0.942,1.522 0.6,1.032 1.222,2.05 1.782,3.1 0.285,0.523 0.575,1.043 0.854,1.569 l 0.809,1.592 0.4,0.8 0.38,0.807 0.756,1.614 c 0.251,0.537 0.475,1.089 0.712,1.632 0.237,0.543 0.475,1.086 0.692,1.637 l 0.647,1.655 0.322,0.826 0.3,0.836 0.588,1.671 0.147,0.417 0.134,0.422 0.265,0.844 0.529,1.685 0.469,1.7 a 90.3,90.3 0 0 1 2.656,13.767 l 0.1,0.866 c 0.033,0.288 0.051,0.579 0.078,0.868 l 0.147,1.735 c 0.056,0.577 0.075,1.157 0.108,1.736 l 0.089,1.733 c 0.058,2.314 0.085,4.621 -0.023,6.92 -0.03,1.15 -0.123,2.3 -0.194,3.441 l -0.152,1.713 c -0.047,0.571 -0.113,1.14 -0.18,1.708 q -0.387,3.411 -1.022,6.771 z"
       fill="#f39a25"
       id="path12" />
    <path
       d="m 259.925,176.332 q -0.274,1.886 -0.63,3.756 l -6.771,-0.84 q 0.169,-3.163 0.1,-6.317 c -0.009,-0.524 -0.017,-1.048 -0.045,-1.573 l -0.07,-1.571 c -0.077,-1.045 -0.131,-2.088 -0.244,-3.127 -0.179,-2.081 -0.485,-4.144 -0.812,-6.192 l -0.287,-1.53 c -0.1,-0.508 -0.181,-1.017 -0.3,-1.521 l -0.337,-1.514 c -0.057,-0.253 -0.107,-0.5 -0.171,-0.755 l -0.193,-0.75 a 79.114,79.114 0 0 0 -3.916,-11.646 l -0.6,-1.405 -0.648,-1.38 -0.323,-0.689 -0.162,-0.345 -0.173,-0.338 -0.694,-1.355 -0.346,-0.675 -0.368,-0.663 -0.735,-1.325 c -0.246,-0.441 -0.518,-0.868 -0.774,-1.3 -0.256,-0.432 -0.509,-0.869 -0.782,-1.292 a 79.711,79.711 0 0 0 -15.636,-18.09 q -2.269,-1.936 -4.654,-3.722 -2.385,-1.786 -4.89,-3.375 -2.5,-1.6 -5.078,-3.015 c -1.722,-0.942 -3.454,-1.808 -5.225,-2.613 l 10.047,-18.3 c 0.141,0.088 0.281,0.178 0.422,0.27 l -6.7,12.2 c 1.829,0.831 3.621,1.727 5.4,2.7 1.779,0.973 3.53,2.013 5.25,3.116 1.72,1.103 3.409,2.267 5.056,3.491 1.647,1.224 3.248,2.513 4.814,3.849 a 82.434,82.434 0 0 1 16.166,18.7 c 0.283,0.437 0.537,0.89 0.81,1.336 0.273,0.446 0.546,0.891 0.8,1.346 l 0.761,1.37 0.381,0.686 0.359,0.7 0.716,1.4 0.18,0.35 0.167,0.355 0.334,0.714 0.671,1.427 0.616,1.453 a 81.421,81.421 0 0 1 4.049,12.041 l 0.2,0.774 c 0.065,0.26 0.117,0.521 0.177,0.781 l 0.347,1.565 c 0.125,0.522 0.211,1.05 0.313,1.575 l 0.3,1.581 c 0.336,2.119 0.654,4.252 0.839,6.4 0.117,1.074 0.172,2.152 0.251,3.234 l 0.074,1.623 c 0.029,0.542 0.038,1.085 0.047,1.628 q 0.066,3.256 -0.107,6.532 z"
       fill="#f39a25"
       opacity="0.5"
       style="mix-blend-mode:multiply"
       id="path14" />
    <path
       d="m 252.523,179.249 q 0.173,-3.165 0.1,-6.317 c -0.009,-0.525 -0.017,-1.049 -0.045,-1.574 l -0.07,-1.57 c -0.077,-1.045 -0.13,-2.089 -0.244,-3.128 -0.179,-2.08 -0.486,-4.143 -0.812,-6.191 l -0.287,-1.53 c -0.1,-0.509 -0.182,-1.019 -0.3,-1.523 l -0.336,-1.514 c -0.058,-0.251 -0.107,-0.5 -0.171,-0.755 l -0.194,-0.749 a 79,79 0 0 0 -3.916,-11.646 l -0.6,-1.4 -0.648,-1.385 -0.322,-0.69 -0.162,-0.344 -0.174,-0.339 -0.693,-1.353 -0.347,-0.675 -0.369,-0.664 -0.735,-1.325 c -0.245,-0.441 -0.516,-0.868 -0.772,-1.3 -0.256,-0.432 -0.51,-0.868 -0.784,-1.292 a 79.676,79.676 0 0 0 -15.634,-18.089 q -2.271,-1.938 -4.655,-3.722 -2.384,-1.784 -4.89,-3.376 -2.495,-1.6 -5.078,-3.016 c -1.722,-0.941 -3.454,-1.807 -5.224,-2.612 l 10.045,-18.3 c 2.069,1.3 4.1,2.688 6.05,4.128 1.95,1.44 3.85,2.947 5.688,4.511 1.838,1.564 3.619,3.185 5.339,4.866 1.72,1.681 3.374,3.425 4.972,5.214 1.598,1.789 3.115,3.651 4.582,5.542 0.717,0.962 1.447,1.908 2.129,2.894 0.342,0.49 0.7,0.97 1.028,1.469 l 1,1.492 c 0.337,0.493 0.645,1.007 0.965,1.511 0.32,0.504 0.642,1.006 0.942,1.522 0.6,1.032 1.222,2.05 1.782,3.1 0.285,0.523 0.575,1.043 0.854,1.569 l 0.809,1.592 0.4,0.8 0.38,0.807 0.756,1.614 c 0.251,0.537 0.475,1.089 0.712,1.632 0.237,0.543 0.475,1.086 0.692,1.637 l 0.647,1.655 0.322,0.826 0.3,0.836 0.588,1.671 0.147,0.417 0.134,0.422 0.265,0.844 0.529,1.685 0.469,1.7 a 90.3,90.3 0 0 1 2.656,13.767 l 0.1,0.866 c 0.033,0.288 0.051,0.579 0.078,0.868 l 0.147,1.735 c 0.056,0.577 0.075,1.157 0.108,1.736 l 0.089,1.733 c 0.058,2.314 0.085,4.621 -0.023,6.92 -0.03,1.15 -0.123,2.3 -0.194,3.441 l -0.152,1.713 c -0.047,0.571 -0.113,1.14 -0.18,1.708 q -0.387,3.411 -1.022,6.771 z"
       fill="none"
       stroke="#262a5d"
       stroke-miterlimit="10"
       stroke-width="7.119"
       id="path16" />
    <path
       d="M 371.28,220.082 C 365.861,209.689 345.5,174.767 303.6,164 a 100.923,100.923 0 0 0 -39.141,-2.075 104.386,104.386 0 0 1 -28.911,0 A 100.923,100.923 0 0 0 196.4,164 c -41.9,10.765 -62.264,45.687 -67.683,56.08 -26.843,51.471 -2.187,105.342 5.8,122.8 14,30.584 50.036,85.176 91.855,81.22 a 47.154,47.154 0 0 0 10.592,-2.265 40.874,40.874 0 0 1 26.063,0 47.157,47.157 0 0 0 10.591,2.265 c 41.82,3.956 77.859,-50.636 91.856,-81.22 7.993,-17.456 32.649,-71.327 5.806,-122.798 z"
       fill="#e00817"
       id="path18" />
    <path
       d="M 371.28,220.082 C 365.861,209.689 345.5,174.767 303.6,164 a 100.923,100.923 0 0 0 -39.141,-2.075 104.386,104.386 0 0 1 -28.911,0 A 100.923,100.923 0 0 0 196.4,164 c -41.9,10.765 -62.264,45.687 -67.683,56.08 -26.843,51.471 -2.187,105.342 5.8,122.8 14,30.584 50.036,85.176 91.855,81.22 a 47.154,47.154 0 0 0 10.592,-2.265 40.874,40.874 0 0 1 26.063,0 47.157,47.157 0 0 0 10.591,2.265 c 41.82,3.956 77.859,-50.636 91.856,-81.22 7.993,-17.456 32.649,-71.327 5.806,-122.798 z"
       fill="#e00817"
       id="path20" />
    <path
       d="m 337.567,180.272 a 96.812,96.812 0 0 0 -25.927,-10.889 100.656,100.656 0 0 0 -39.069,-2.07 103.951,103.951 0 0 1 -28.861,0 100.712,100.712 0 0 0 -39.079,2.07 c -41.829,10.745 -62.15,45.606 -67.565,55.987 -26.8,51.377 -2.186,105.158 5.789,122.584 9.537,20.838 29.321,52.824 54.2,69.789 -28.765,-14.895 -51.942,-51.75 -62.524,-74.869 -7.994,-17.454 -32.647,-71.323 -5.809,-122.8 5.425,-10.39 25.784,-45.309 67.69,-56.073 a 100.829,100.829 0 0 1 39.136,-2.08 104.3,104.3 0 0 0 28.909,0 100.879,100.879 0 0 1 39.146,2.08 97.918,97.918 0 0 1 33.964,16.271 z"
       fill="#ffffff"
       opacity="0.3"
       id="path22" />
    <g
       opacity="0.3"
       id="g26">
      <path
         d="m 184.989,216.529 c -4.491,10.669 -10.292,18.5 -14.374,17.528 -4.043,-0.979 -6.028,-10.681 -3.011,-21.885 2.98,-11.215 11.043,-19.267 16.558,-17.739 5.553,1.525 5.279,11.445 0.827,22.096 z"
         fill="#ffffff"
         id="path24" />
    </g>
    <g
       opacity="0.3"
       id="g30">
      <path
         d="m 183.893,292.2 c 1.355,23.877 1.114,44.466 -7.032,47.419 -7.93,3 -22.122,-16.478 -23.93,-45.1 -1.9,-28.609 9.846,-50.77 18.158,-48.982 8.479,1.683 11.165,22.817 12.804,46.663 z"
         fill="#ffffff"
         id="path28" />
    </g>
    <path
       d="m 365.479,342.874 c -13.994,30.586 -50.034,85.183 -91.854,81.225 a 47.671,47.671 0 0 1 -10.592,-2.262 40.827,40.827 0 0 0 -26.061,0 47.916,47.916 0 0 1 -10.592,2.263 c -28.87,2.731 -54.99,-22.449 -73,-48.367 16.592,18.729 37.305,33.308 59.667,31.2 a 47.3,47.3 0 0 0 10.62,-2.271 40.929,40.929 0 0 1 26.139,0 47.307,47.307 0 0 0 10.62,2.271 c 41.935,3.959 78.071,-50.781 92.1,-81.445 8.013,-17.5 32.733,-71.523 5.818,-123.13 -0.786,-1.5 -1.888,-3.527 -3.317,-5.923 a 122.324,122.324 0 0 1 16.247,23.646 c 26.852,51.47 2.19,105.339 -5.795,122.793 z"
       fill="#bb1822"
       opacity="0.75"
       id="path32" />
    <path
       d="M 371.28,220.082 C 365.861,209.689 345.5,174.767 303.6,164 a 100.923,100.923 0 0 0 -39.141,-2.075 104.386,104.386 0 0 1 -28.911,0 A 100.923,100.923 0 0 0 196.4,164 c -41.9,10.765 -62.264,45.687 -67.683,56.08 -26.843,51.471 -2.187,105.342 5.8,122.8 14,30.584 50.036,85.176 91.855,81.22 a 47.154,47.154 0 0 0 10.592,-2.265 40.874,40.874 0 0 1 26.063,0 47.157,47.157 0 0 0 10.591,2.265 c 41.82,3.956 77.859,-50.636 91.856,-81.22 7.993,-17.456 32.649,-71.327 5.806,-122.798 z"
       fill="none"
       stroke="#262a5d"
       stroke-miterlimit="10"
       stroke-width="7.119"
       id="path34" />
  </g>
</svg>
