<svg version="1.1" xmlns="http://www.w3.org/2000/svg" xmlns:xlink="http://www.w3.org/1999/xlink" width="140" height="86.34354" viewBox="0,0,140,86.34354"><defs><linearGradient x1="233.81862" y1="189.50186" x2="231.83393" y2="182.75396" gradientUnits="userSpaceOnUse" id="color-1"><stop offset="0" stop-color="#420000"/><stop offset="0.0822" stop-color="#5e0000"/><stop offset="0.2161" stop-color="#840000"/><stop offset="0.3554" stop-color="#a40000"/><stop offset="0.4991" stop-color="#bd0000"/><stop offset="0.6493" stop-color="#ce0000"/><stop offset="0.8101" stop-color="#d90000"/><stop offset="1" stop-color="#dc0000"/></linearGradient><linearGradient x1="243.85179" y1="189.64414" x2="245.90974" y2="182.73188" gradientUnits="userSpaceOnUse" id="color-2"><stop offset="0" stop-color="#830000"/><stop offset="0.1406" stop-color="#a80000"/><stop offset="0.2921" stop-color="#c70000"/><stop offset="0.4499" stop-color="#e00000"/><stop offset="0.6148" stop-color="#f10000"/><stop offset="0.7914" stop-color="#fc0000"/><stop offset="1" stop-color="#ff0000"/></linearGradient><radialGradient cx="225.48478" cy="149.04329" r="7.1932" gradientUnits="userSpaceOnUse" id="color-3"><stop offset="0.0056" stop-color="#ffffff"/><stop offset="0.5354" stop-color="#fffdfd"/><stop offset="0.7263" stop-color="#fff6f7"/><stop offset="0.8623" stop-color="#ffebec"/><stop offset="0.9715" stop-color="#ffdadc"/><stop offset="1" stop-color="#ffd4d7"/></radialGradient><radialGradient cx="225.55967" cy="145.97787" r="5.92819" gradientUnits="userSpaceOnUse" id="color-4"><stop offset="0.0056" stop-color="#ffffff"/><stop offset="0.5354" stop-color="#fffdfd"/><stop offset="0.7263" stop-color="#fff6f7"/><stop offset="0.8623" stop-color="#ffebec"/><stop offset="0.9715" stop-color="#ffdadc"/><stop offset="1" stop-color="#ffd4d7"/></radialGradient><radialGradient cx="225.78991" cy="143.32049" r="4.39548" gradientUnits="userSpaceOnUse" id="color-5"><stop offset="0.0056" stop-color="#ffffff"/><stop offset="0.5354" stop-color="#fffdfd"/><stop offset="0.7263" stop-color="#fff6f7"/><stop offset="0.8623" stop-color="#ffebec"/><stop offset="0.9715" stop-color="#ffdadc"/><stop offset="1" stop-color="#ffd4d7"/></radialGradient><radialGradient cx="224.56966" cy="140.43593" r="4.87214" gradientUnits="userSpaceOnUse" id="color-6"><stop offset="0.0056" stop-color="#ffffff"/><stop offset="0.5506" stop-color="#ff0000"/><stop offset="0.6135" stop-color="#fc0000"/><stop offset="0.6637" stop-color="#f20000"/><stop offset="0.7095" stop-color="#e10000"/><stop offset="0.7527" stop-color="#c90000"/><stop offset="0.7941" stop-color="#ab0000"/><stop offset="0.8335" stop-color="#860000"/><stop offset="0.8427" stop-color="#7c0000"/></radialGradient><radialGradient cx="276.67058" cy="153.16617" r="7.19334" gradientUnits="userSpaceOnUse" id="color-7"><stop offset="0.0056" stop-color="#ffffff"/><stop offset="0.5354" stop-color="#fffdfd"/><stop offset="0.7263" stop-color="#fff6f7"/><stop offset="0.8623" stop-color="#ffebec"/><stop offset="0.9715" stop-color="#ffdadc"/><stop offset="1" stop-color="#ffd4d7"/></radialGradient><radialGradient cx="276.74831" cy="150.09975" r="5.92831" gradientUnits="userSpaceOnUse" id="color-8"><stop offset="0.0056" stop-color="#ffffff"/><stop offset="0.5354" stop-color="#fffdfd"/><stop offset="0.7263" stop-color="#fff6f7"/><stop offset="0.8623" stop-color="#ffebec"/><stop offset="0.9715" stop-color="#ffdadc"/><stop offset="1" stop-color="#ffd4d7"/></radialGradient><radialGradient cx="276.9788" cy="147.44313" r="4.39548" gradientUnits="userSpaceOnUse" id="color-9"><stop offset="0.0056" stop-color="#ffffff"/><stop offset="0.5354" stop-color="#fffdfd"/><stop offset="0.7263" stop-color="#fff6f7"/><stop offset="0.8623" stop-color="#ffebec"/><stop offset="0.9715" stop-color="#ffdadc"/><stop offset="1" stop-color="#ffd4d7"/></radialGradient><radialGradient cx="275.76556" cy="144.56307" r="4.87214" gradientUnits="userSpaceOnUse" id="color-10"><stop offset="0.0056" stop-color="#ffffff"/><stop offset="0.5506" stop-color="#ff0000"/><stop offset="0.6135" stop-color="#fc0000"/><stop offset="0.6637" stop-color="#f20000"/><stop offset="0.7095" stop-color="#e10000"/><stop offset="0.7527" stop-color="#c90000"/><stop offset="0.7941" stop-color="#ab0000"/><stop offset="0.8335" stop-color="#860000"/><stop offset="0.8427" stop-color="#7c0000"/></radialGradient><radialGradient cx="204.52824" cy="157.97545" r="7.19334" gradientUnits="userSpaceOnUse" id="color-11"><stop offset="0.0056" stop-color="#ffffff"/><stop offset="0.5354" stop-color="#fffdfd"/><stop offset="0.7263" stop-color="#fff6f7"/><stop offset="0.8623" stop-color="#ffebec"/><stop offset="0.9715" stop-color="#ffdadc"/><stop offset="1" stop-color="#ffd4d7"/></radialGradient><radialGradient cx="204.60286" cy="154.9123" r="5.92819" gradientUnits="userSpaceOnUse" id="color-12"><stop offset="0.0056" stop-color="#ffffff"/><stop offset="0.5354" stop-color="#fffdfd"/><stop offset="0.7263" stop-color="#fff6f7"/><stop offset="0.8623" stop-color="#ffebec"/><stop offset="0.9715" stop-color="#ffdadc"/><stop offset="1" stop-color="#ffd4d7"/></radialGradient><radialGradient cx="204.83796" cy="152.25218" r="4.39557" gradientUnits="userSpaceOnUse" id="color-13"><stop offset="0.0056" stop-color="#ffffff"/><stop offset="0.5354" stop-color="#fffdfd"/><stop offset="0.7263" stop-color="#fff6f7"/><stop offset="0.8623" stop-color="#ffebec"/><stop offset="0.9715" stop-color="#ffdadc"/><stop offset="1" stop-color="#ffd4d7"/></radialGradient><radialGradient cx="203.61254" cy="149.36677" r="4.87214" gradientUnits="userSpaceOnUse" id="color-14"><stop offset="0.0056" stop-color="#ffffff"/><stop offset="0.5506" stop-color="#ff0000"/><stop offset="0.6135" stop-color="#fc0000"/><stop offset="0.6637" stop-color="#f20000"/><stop offset="0.7095" stop-color="#e10000"/><stop offset="0.7527" stop-color="#c90000"/><stop offset="0.7941" stop-color="#ab0000"/><stop offset="0.8335" stop-color="#860000"/><stop offset="0.8427" stop-color="#7c0000"/></radialGradient><radialGradient cx="263.23845" cy="162.77768" r="7.19362" gradientUnits="userSpaceOnUse" id="color-15"><stop offset="0.0056" stop-color="#ffffff"/><stop offset="0.5354" stop-color="#fffdfd"/><stop offset="0.7263" stop-color="#fff6f7"/><stop offset="0.8623" stop-color="#ffebec"/><stop offset="0.9715" stop-color="#ffdadc"/><stop offset="1" stop-color="#ffd4d7"/></radialGradient><radialGradient cx="263.46464" cy="159.72687" r="5.92795" gradientUnits="userSpaceOnUse" id="color-16"><stop offset="0.0056" stop-color="#ffffff"/><stop offset="0.5354" stop-color="#fffdfd"/><stop offset="0.7263" stop-color="#fff6f7"/><stop offset="0.8623" stop-color="#ffebec"/><stop offset="0.9715" stop-color="#ffdadc"/><stop offset="1" stop-color="#ffd4d7"/></radialGradient><radialGradient cx="263.8598" cy="157.08069" r="4.39593" gradientUnits="userSpaceOnUse" id="color-17"><stop offset="0.0056" stop-color="#ffffff"/><stop offset="0.5354" stop-color="#fffdfd"/><stop offset="0.7263" stop-color="#fff6f7"/><stop offset="0.8623" stop-color="#ffebec"/><stop offset="0.9715" stop-color="#ffdadc"/><stop offset="1" stop-color="#ffd4d7"/></radialGradient><radialGradient cx="262.76696" cy="154.13378" r="4.87214" gradientUnits="userSpaceOnUse" id="color-18"><stop offset="0.0056" stop-color="#ffffff"/><stop offset="0.5506" stop-color="#ff0000"/><stop offset="0.6135" stop-color="#fc0000"/><stop offset="0.6637" stop-color="#f20000"/><stop offset="0.7095" stop-color="#e10000"/><stop offset="0.7527" stop-color="#c90000"/><stop offset="0.7941" stop-color="#ab0000"/><stop offset="0.8335" stop-color="#860000"/><stop offset="0.8427" stop-color="#7c0000"/></radialGradient><radialGradient cx="252.45307" cy="148.01242" r="7.19334" gradientUnits="userSpaceOnUse" id="color-19"><stop offset="0.0056" stop-color="#ffffff"/><stop offset="0.5354" stop-color="#fffdfd"/><stop offset="0.7263" stop-color="#fff6f7"/><stop offset="0.8623" stop-color="#ffebec"/><stop offset="0.9715" stop-color="#ffdadc"/><stop offset="1" stop-color="#ffd4d7"/></radialGradient><radialGradient cx="252.53008" cy="144.94762" r="5.92831" gradientUnits="userSpaceOnUse" id="color-20"><stop offset="0.0056" stop-color="#ffffff"/><stop offset="0.5354" stop-color="#fffdfd"/><stop offset="0.7263" stop-color="#fff6f7"/><stop offset="0.8623" stop-color="#ffebec"/><stop offset="0.9715" stop-color="#ffdadc"/><stop offset="1" stop-color="#ffd4d7"/></radialGradient><radialGradient cx="252.76163" cy="142.29021" r="4.39557" gradientUnits="userSpaceOnUse" id="color-21"><stop offset="0.0056" stop-color="#ffffff"/><stop offset="0.5354" stop-color="#fffdfd"/><stop offset="0.7263" stop-color="#fff6f7"/><stop offset="0.8623" stop-color="#ffebec"/><stop offset="0.9715" stop-color="#ffdadc"/><stop offset="1" stop-color="#ffd4d7"/></radialGradient><radialGradient cx="251.53528" cy="139.40545" r="4.87214" gradientUnits="userSpaceOnUse" id="color-22"><stop offset="0.0056" stop-color="#ffffff"/><stop offset="0.5506" stop-color="#ff0000"/><stop offset="0.6135" stop-color="#fc0000"/><stop offset="0.6637" stop-color="#f20000"/><stop offset="0.7095" stop-color="#e10000"/><stop offset="0.7527" stop-color="#c90000"/><stop offset="0.7941" stop-color="#ab0000"/><stop offset="0.8335" stop-color="#860000"/><stop offset="0.8427" stop-color="#7c0000"/></radialGradient></defs><g transform="translate(-170,-136.82823)"><g data-paper-data="{&quot;isPaintingLayer&quot;:true}" fill-rule="nonzero" stroke-linecap="butt" stroke-linejoin="miter" stroke-miterlimit="10" stroke-dasharray="" stroke-dashoffset="0" style="mix-blend-mode: normal"><path d="M309.64419,202.94663c0,11.17012 -31.26076,20.22514 -69.8221,20.22514c-38.56133,0 -69.8221,-9.05539 -69.8221,-20.22514c0,-11.16975 31.26076,-20.22514 69.8221,-20.22514c38.56133,0 69.8221,9.05539 69.8221,20.22514z" fill="#00a7b3" stroke="none" stroke-width="1"/><path d="M239.82768,223.13265c-38.56133,0 -69.8221,-9.05502 -69.8221,-20.22514c0,-11.17012 31.26076,-20.22514 69.8221,-20.22514c38.56133,0 69.8221,9.05521 69.8221,20.22514c0,11.16993 -31.26076,20.22514 -69.8221,20.22514z" fill="#00a8b3" stroke="none" stroke-width="1"/><path d="M239.83327,223.09353c-38.56133,0 -69.8221,-9.05502 -69.8221,-20.22514c0,-11.17012 31.26076,-20.22514 69.8221,-20.22514c38.56133,0 69.8221,9.05521 69.8221,20.22514c0,11.16993 -31.26076,20.22514 -69.8221,20.22514z" fill="#00a9b4" stroke="none" stroke-width="1"/><path d="M239.83886,223.05441c-38.56133,0 -69.8221,-9.05502 -69.8221,-20.22514c0,-11.17012 31.26076,-20.22514 69.8221,-20.22514c38.56133,0 69.8221,9.05521 69.8221,20.22514c0,11.16993 -31.26076,20.22514 -69.8221,20.22514z" fill="#00aab4" stroke="none" stroke-width="1"/><path d="M239.84445,223.01529c-38.56133,0 -69.8221,-9.05502 -69.8221,-20.22514c0,-11.17012 31.26076,-20.22514 69.8221,-20.22514c38.56133,0 69.8221,9.05521 69.8221,20.22514c0,11.16993 -31.26076,20.22514 -69.8221,20.22514z" fill="#00abb4" stroke="none" stroke-width="1"/><path d="M239.85004,222.97617c-38.56133,0 -69.8221,-9.05483 -69.8221,-20.22514c0,-11.17031 31.26076,-20.22514 69.8221,-20.22514c38.56133,0 69.8221,9.05539 69.8221,20.22514c0,11.16975 -31.26076,20.22514 -69.8221,20.22514z" fill="#00acb4" stroke="none" stroke-width="1"/><path d="M239.85563,222.93705c-38.56133,0 -69.8221,-9.05502 -69.8221,-20.22514c0,-11.17012 31.26076,-20.22514 69.8221,-20.22514c38.56133,0 69.8221,9.05539 69.8221,20.22514c0,11.16975 -31.26076,20.22514 -69.8221,20.22514z" fill="#00adb5" stroke="none" stroke-width="1"/><path d="M239.86122,222.89979c-38.56133,0 -69.8221,-9.05502 -69.8221,-20.22514c0,-11.17012 31.26076,-20.227 69.8221,-20.227c38.56133,0 69.8221,9.05521 69.8221,20.22514c0,11.16993 -31.26076,20.227 -69.8221,20.227z" fill="#00aeb5" stroke="none" stroke-width="1"/><path d="M239.8668,222.86067c-38.56133,0 -69.8221,-9.05502 -69.8221,-20.22514c0,-11.17012 31.26076,-20.227 69.8221,-20.227c38.56133,0 69.8221,9.05539 69.8221,20.22514c0,11.16975 -31.26076,20.227 -69.8221,20.227z" fill="#00afb5" stroke="none" stroke-width="1"/><path d="M239.87239,222.82155c-38.56133,0 -69.8221,-9.05502 -69.8221,-20.22514c0,-11.17012 31.26076,-20.22514 69.8221,-20.22514c38.56133,0 69.8221,9.05521 69.8221,20.22514c0,11.16993 -31.26076,20.22514 -69.8221,20.22514z" fill="#00b0b6" stroke="none" stroke-width="1"/><path d="M239.87798,222.78243c-38.56133,0 -69.8221,-9.05502 -69.8221,-20.22514c0,-11.17012 31.26076,-20.22514 69.8221,-20.22514c38.56133,0 69.8221,9.05521 69.8221,20.22514c0,11.16993 -31.26076,20.22514 -69.8221,20.22514z" fill="#00b1b6" stroke="none" stroke-width="1"/><path d="M239.88357,222.74331c-38.56133,0 -69.8221,-9.05502 -69.8221,-20.22514c0,-11.17012 31.26076,-20.22514 69.8221,-20.22514c38.56133,0 69.8221,9.05521 69.8221,20.22514c0,11.16993 -31.26076,20.22514 -69.8221,20.22514z" fill="#00b2b6" stroke="none" stroke-width="1"/><path d="M239.88916,222.70419c-38.56133,0 -69.8221,-9.05502 -69.8221,-20.22514c0,-11.17012 31.26076,-20.22514 69.8221,-20.22514c38.56133,0 69.8221,9.05521 69.8221,20.22514c0,11.16993 -31.26076,20.22514 -69.8221,20.22514z" fill="#00b3b6" stroke="none" stroke-width="1"/><path d="M239.89475,222.66507c-38.56133,0 -69.8221,-9.05502 -69.8221,-20.22514c0,-11.17012 31.26076,-20.22514 69.8221,-20.22514c38.56133,0 69.8221,9.05521 69.8221,20.22514c0,11.16993 -31.26076,20.22514 -69.8221,20.22514z" fill="#00b4b7" stroke="none" stroke-width="1"/><path d="M239.90034,222.62595c-38.56133,0 -69.8221,-9.05502 -69.8221,-20.22514c0,-11.17012 31.26076,-20.22514 69.8221,-20.22514c38.56133,0 69.8221,9.05521 69.8221,20.22514c0,11.16993 -31.26076,20.22514 -69.8221,20.22514z" fill="#00b5b7" stroke="none" stroke-width="1"/><path d="M239.90592,222.58683c-38.56133,0 -69.8221,-9.05483 -69.8221,-20.22514c0,-11.17031 31.26076,-20.22514 69.8221,-20.22514c38.56133,0 69.8221,9.05539 69.8221,20.22514c0,11.16975 -31.26076,20.22514 -69.8221,20.22514z" fill="#00b6b7" stroke="none" stroke-width="1"/><path d="M239.91151,222.54771c-38.56133,0 -69.8221,-9.05502 -69.8221,-20.22514c0,-11.17012 31.26076,-20.22514 69.8221,-20.22514c38.56133,0 69.8221,9.05521 69.8221,20.22514c0,11.16993 -31.26076,20.22514 -69.8221,20.22514z" fill="#00b7b8" stroke="none" stroke-width="1"/><path d="M239.9171,222.50859c-38.56133,0 -69.8221,-9.05502 -69.8221,-20.22514c0,-11.17012 31.26076,-20.22514 69.8221,-20.22514c38.56133,0 69.8221,9.05521 69.8221,20.22514c0,11.16993 -31.26076,20.22514 -69.8221,20.22514z" fill="#00b8b8" stroke="none" stroke-width="1"/><path d="M239.92269,222.46947c-38.56133,0 -69.8221,-9.05483 -69.8221,-20.22514c0,-11.17031 31.26076,-20.22514 69.8221,-20.22514c38.56133,0 69.8221,9.05539 69.8221,20.22514c0,11.16975 -31.26076,20.22514 -69.8221,20.22514z" fill="#00b9b8" stroke="none" stroke-width="1"/><path d="M239.92828,222.43035c-38.56133,0 -69.8221,-9.05502 -69.8221,-20.22514c0,-11.17012 31.26076,-20.22514 69.8221,-20.22514c38.56133,0 69.8221,9.05521 69.8221,20.22514c0,11.16993 -31.26076,20.22514 -69.8221,20.22514z" fill="#00bab8" stroke="none" stroke-width="1"/><path d="M239.93387,222.39309c-38.56133,0 -69.8221,-9.05502 -69.8221,-20.22514c0,-11.17012 31.26076,-20.22514 69.8221,-20.22514c38.56133,0 69.8221,9.05521 69.8221,20.22514c0,11.16993 -31.26076,20.22514 -69.8221,20.22514z" fill="#00bbb9" stroke="none" stroke-width="1"/><path d="M239.93946,222.35211c-38.56133,0 -69.8221,-9.05483 -69.8221,-20.22514c0,-11.17031 31.26076,-20.22514 69.8221,-20.22514c38.56133,0 69.8221,9.05539 69.8221,20.22514c0,11.16975 -31.26076,20.22514 -69.8221,20.22514z" fill="#00bcb9" stroke="none" stroke-width="1"/><path d="M239.94504,222.31485c-38.56133,0 -69.8221,-9.05502 -69.8221,-20.22514c0,-11.17012 31.26076,-20.22514 69.8221,-20.22514c38.56133,0 69.8221,9.05521 69.8221,20.22514c0,11.16993 -31.26076,20.22514 -69.8221,20.22514z" fill="#00bdb9" stroke="none" stroke-width="1"/><path d="M239.95063,222.27573c-38.56133,0 -69.8221,-9.05502 -69.8221,-20.22514c0,-11.17012 31.26076,-20.22514 69.8221,-20.22514c38.56133,0 69.8221,9.05521 69.8221,20.22514c0,11.16993 -31.26076,20.22514 -69.8221,20.22514z" fill="#00beb9" stroke="none" stroke-width="1"/><path d="M239.95622,222.23661c-38.56133,0 -69.8221,-9.05483 -69.8221,-20.22514c0,-11.17031 31.26076,-20.22514 69.8221,-20.22514c38.56133,0 69.8221,9.05521 69.8221,20.22514c0,11.16993 -31.26076,20.22514 -69.8221,20.22514z" fill="#00bfba" stroke="none" stroke-width="1"/><path d="M239.96181,222.19749c-38.56133,0 -69.8221,-9.05483 -69.8221,-20.22514c0,-11.17031 31.26076,-20.22514 69.8221,-20.22514c38.56133,0 69.8221,9.05539 69.8221,20.22514c0,11.16975 -31.26076,20.22514 -69.8221,20.22514z" fill="#00c0ba" stroke="none" stroke-width="1"/><path d="M239.9674,222.15837c-38.56133,0 -69.8221,-9.05502 -69.8221,-20.22514c0,-11.17012 31.26076,-20.22514 69.8221,-20.22514c38.56133,0 69.8221,9.05521 69.8221,20.22514c0,11.16993 -31.26076,20.22514 -69.8221,20.22514z" fill="#00c1ba" stroke="none" stroke-width="1"/><path d="M239.97299,222.11925c-38.56133,0 -69.8221,-9.05502 -69.8221,-20.22514c0,-11.17012 31.26076,-20.22514 69.8221,-20.22514c38.56133,0 69.8221,9.05521 69.8221,20.22514c0,11.16993 -31.26076,20.22514 -69.8221,20.22514z" fill="#00c2bb" stroke="none" stroke-width="1"/><path d="M239.97858,222.08013c-38.56133,0 -69.8221,-9.05483 -69.8221,-20.22514c0,-11.17031 31.26076,-20.22514 69.8221,-20.22514c38.56133,0 69.8221,9.05539 69.8221,20.22514c0,11.16975 -31.26076,20.22514 -69.8221,20.22514z" fill="#00c3bb" stroke="none" stroke-width="1"/><path d="M239.98416,222.04101c-38.56133,0 -69.8221,-9.05502 -69.8221,-20.22514c0,-11.17012 31.26076,-20.22514 69.8221,-20.22514c38.56133,0 69.8221,9.05521 69.8221,20.22514c0,11.16993 -31.26076,20.22514 -69.8221,20.22514z" fill="#00c4bb" stroke="none" stroke-width="1"/><path d="M239.98975,222.00189c-38.56133,0 -69.8221,-9.05502 -69.8221,-20.22514c0,-11.17012 31.26076,-20.22514 69.8221,-20.22514c38.56133,0 69.8221,9.05521 69.8221,20.22514c0,11.16993 -31.26076,20.22514 -69.8221,20.22514z" fill="#00c5bb" stroke="none" stroke-width="1"/><path d="M239.99534,221.96277c-38.56133,0 -69.8221,-9.05483 -69.8221,-20.22514c0,-11.17031 31.26076,-20.22514 69.8221,-20.22514c38.56133,0 69.8221,9.05539 69.8221,20.22514c0,11.16975 -31.26076,20.22514 -69.8221,20.22514z" fill="#00c6bc" stroke="none" stroke-width="1"/><path d="M240.00093,221.92365c-38.56133,0 -69.8221,-9.05483 -69.8221,-20.22514c0,-11.16993 31.26076,-20.22514 69.8221,-20.22514c38.56133,0 69.8221,9.05539 69.8221,20.22514c0,11.17161 -31.26076,20.22514 -69.8221,20.22514z" fill="#00c7bc" stroke="none" stroke-width="1"/><path d="M240.00652,221.88453c-38.56133,0 -69.8221,-9.05502 -69.8221,-20.22514c0,-11.17012 31.26076,-20.22514 69.8221,-20.22514c38.56133,0 69.8221,9.05521 69.8221,20.22514c0,11.16993 -31.26076,20.22514 -69.8221,20.22514z" fill="#00c7bc" stroke="none" stroke-width="1"/><path d="M240.01211,221.84541c-38.56133,0 -69.8221,-9.05483 -69.8221,-20.22514c0,-11.17031 31.26076,-20.22514 69.8221,-20.22514c38.56133,0 69.8221,9.05539 69.8221,20.22514c0,11.16975 -31.26076,20.22514 -69.8221,20.22514z" fill="#00c8bd" stroke="none" stroke-width="1"/><path d="M240.0177,221.80815c-38.56133,0 -69.8221,-9.05483 -69.8221,-20.22514c0,-11.17031 31.26076,-20.22514 69.8221,-20.22514c38.56133,0 69.8221,9.05539 69.8221,20.22514c0,11.16975 -31.26076,20.22514 -69.8221,20.22514z" fill="#00c9bd" stroke="none" stroke-width="1"/><path d="M240.02329,221.76903c-38.56133,0 -69.8221,-9.05502 -69.8221,-20.22514c0,-11.17012 31.26076,-20.22514 69.8221,-20.22514c38.56133,0 69.8221,9.05521 69.8221,20.22514c0,11.16993 -31.26076,20.22514 -69.8221,20.22514z" fill="#00cabd" stroke="none" stroke-width="1"/><path d="M240.02887,221.72991c-38.56133,0 -69.8221,-9.05483 -69.8221,-20.22514c0,-11.17031 31.26076,-20.22514 69.8221,-20.22514c38.56133,0 69.8221,9.05539 69.8221,20.22514c0,11.16975 -31.26076,20.22514 -69.8221,20.22514z" fill="#00cbbd" stroke="none" stroke-width="1"/><path d="M240.03446,221.69079c-38.56133,0 -69.8221,-9.05483 -69.8221,-20.22514c0,-11.17031 31.26076,-20.22514 69.8221,-20.22514c38.56133,0 69.8221,9.05539 69.8221,20.22514c0,11.16975 -31.26076,20.22514 -69.8221,20.22514z" fill="#00ccbe" stroke="none" stroke-width="1"/><path d="M240.04005,221.65167c-38.56133,0 -69.8221,-9.05502 -69.8221,-20.22514c0,-11.17012 31.26076,-20.22514 69.8221,-20.22514c38.56133,0 69.8221,9.05521 69.8221,20.22514c0,11.16993 -31.26076,20.22514 -69.8221,20.22514z" fill="#00cdbe" stroke="none" stroke-width="1"/><path d="M240.04564,221.61255c-38.56133,0 -69.8221,-9.05502 -69.8221,-20.22514c0,-11.17012 31.26076,-20.22514 69.8221,-20.22514c38.56133,0 69.8221,9.05539 69.8221,20.22514c0,11.16975 -31.26076,20.22514 -69.8221,20.22514z" fill="#00cebe" stroke="none" stroke-width="1"/><path d="M240.05123,221.57343c-38.56133,0 -69.8221,-9.05483 -69.8221,-20.22514c0,-11.17031 31.26076,-20.22514 69.8221,-20.22514c38.56133,0 69.8221,9.05539 69.8221,20.22514c0,11.16975 -31.26076,20.22514 -69.8221,20.22514z" fill="#00cfbf" stroke="none" stroke-width="1"/><path d="M240.05682,221.53431c-38.56133,0 -69.8221,-9.05483 -69.8221,-20.22514c0,-11.17031 31.26076,-20.22514 69.8221,-20.22514c38.56133,0 69.8221,9.05539 69.8221,20.22514c0,11.16975 -31.26076,20.22514 -69.8221,20.22514z" fill="#00d0bf" stroke="none" stroke-width="1"/><path d="M240.06241,221.49519c-38.56133,0 -69.8221,-9.05502 -69.8221,-20.22514c0,-11.17012 31.2589,-20.22514 69.8221,-20.22514c38.5632,0 69.8221,9.05521 69.8221,20.22514c0,11.16993 -31.26076,20.22514 -69.8221,20.22514z" fill="#00d1bf" stroke="none" stroke-width="1"/><path d="M240.06799,221.45607c-38.56133,0 -69.8221,-9.05483 -69.8221,-20.22514c0,-11.17031 31.2589,-20.22514 69.8221,-20.22514c38.56133,0 69.8221,9.05539 69.8221,20.22514c0,11.16975 -31.26076,20.22514 -69.8221,20.22514z" fill="#00d2bf" stroke="none" stroke-width="1"/><path d="M240.07358,221.41695c-38.56133,0 -69.8221,-9.05483 -69.8221,-20.22514c0,-11.17031 31.26076,-20.22514 69.8221,-20.22514c38.56133,0 69.8221,9.05539 69.8221,20.22514c0,11.16975 -31.26076,20.22514 -69.8221,20.22514z" fill="#00d3c0" stroke="none" stroke-width="1"/><path d="M240.07917,221.37783c-38.56133,0 -69.8221,-9.05502 -69.8221,-20.22514c0,-11.17012 31.26076,-20.22514 69.8221,-20.22514c38.56133,0 69.8221,9.05521 69.8221,20.22514c0,11.16993 -31.26076,20.22514 -69.8221,20.22514z" fill="#00d4c0" stroke="none" stroke-width="1"/><path d="M240.08476,221.33871c-38.56133,0 -69.8221,-9.05483 -69.8221,-20.22514c0,-11.17031 31.26076,-20.22514 69.8221,-20.22514c38.56133,0 69.8221,9.05539 69.8221,20.22514c0,11.16975 -31.26076,20.22514 -69.8221,20.22514z" fill="#00d5c0" stroke="none" stroke-width="1"/><path d="M240.09035,221.30145c-38.56133,0 -69.8221,-9.05483 -69.8221,-20.22514c0,-11.17031 31.26076,-20.22514 69.8221,-20.22514c38.56133,0 69.8221,9.05539 69.8221,20.22514c0,11.16975 -31.26076,20.22514 -69.8221,20.22514z" fill="#00d6c1" stroke="none" stroke-width="1"/><path d="M240.09594,221.26233c-38.56133,0 -69.8221,-9.05502 -69.8221,-20.22514c0,-11.17012 31.26076,-20.22514 69.8221,-20.22514c38.56133,0 69.8221,9.05521 69.8221,20.22514c0,11.16993 -31.26076,20.22514 -69.8221,20.22514z" fill="#00d7c1" stroke="none" stroke-width="1"/><path d="M240.09966,221.22321c-38.56133,0 -69.8221,-9.05483 -69.8221,-20.22514c0,-11.17031 31.26076,-20.22514 69.8221,-20.22514c38.56133,0 69.8221,9.05539 69.8221,20.22514c0,11.16975 -31.2589,20.22514 -69.8221,20.22514z" fill="#00d8c1" stroke="none" stroke-width="1"/><path d="M240.10711,221.18409c-38.56133,0 -69.8221,-9.05483 -69.8221,-20.22514c0,-11.17031 31.26076,-20.22514 69.8221,-20.22514c38.56133,0 69.8221,9.05539 69.8221,20.22514c0,11.16975 -31.26076,20.22514 -69.8221,20.22514z" fill="#00d9c1" stroke="none" stroke-width="1"/><path d="M240.11084,221.14497c-38.56133,0 -69.8221,-9.05483 -69.8221,-20.22514c0,-11.17031 31.26076,-20.22514 69.8221,-20.22514c38.56133,0 69.8221,9.05539 69.8221,20.22514c0,11.16975 -31.2589,20.22514 -69.8221,20.22514z" fill="#00dac2" stroke="none" stroke-width="1"/><path d="M240.11829,221.10585c-38.56133,0 -69.8221,-9.05483 -69.8221,-20.22514c0,-11.17031 31.26076,-20.22514 69.8221,-20.22514c38.56133,0 69.8221,9.05539 69.8221,20.22514c0,11.16975 -31.26076,20.22514 -69.8221,20.22514z" fill="#00dbc2" stroke="none" stroke-width="1"/><path d="M240.12202,221.06673c-38.56133,0 -69.8221,-9.05483 -69.8221,-20.22514c0,-11.17031 31.26076,-20.22514 69.8221,-20.22514c38.56133,0 69.8221,9.05539 69.8221,20.22514c0,11.16975 -31.2589,20.22514 -69.8221,20.22514z" fill="#00dcc2" stroke="none" stroke-width="1"/><path d="M240.12947,221.02761c-38.56133,0 -69.8221,-9.05483 -69.8221,-20.22514c0,-11.17031 31.26076,-20.22514 69.8221,-20.22514c38.56133,0 69.8221,9.05539 69.8221,20.22514c0,11.16975 -31.26076,20.22514 -69.8221,20.22514z" fill="#00ddc2" stroke="none" stroke-width="1"/><path d="M240.13319,220.98849c-38.56133,0 -69.8221,-9.05483 -69.8221,-20.22514c0,-11.17031 31.26076,-20.22514 69.8221,-20.22514c38.56133,0 69.8221,9.05521 69.8221,20.22514c0,11.16993 -31.2589,20.22514 -69.8221,20.22514z" fill="#00dec3" stroke="none" stroke-width="1"/><path d="M240.14065,220.94937c-38.56133,0 -69.8221,-9.05483 -69.8221,-20.22514c0,-11.17031 31.26076,-20.22514 69.8221,-20.22514c38.56133,0 69.8221,9.05539 69.8221,20.22514c0,11.16975 -31.26076,20.22514 -69.8221,20.22514z" fill="#00dfc3" stroke="none" stroke-width="1"/><path d="M240.14437,220.91025c-38.56133,0 -69.8221,-9.05483 -69.8221,-20.22514c0,-11.17031 31.26076,-20.22514 69.8221,-20.22514c38.56133,0 69.8221,9.05539 69.8221,20.22514c0,11.16975 -31.26076,20.22514 -69.8221,20.22514z" fill="#00e0c3" stroke="none" stroke-width="1"/><path d="M240.14996,220.87113c-38.56133,0 -69.8221,-9.05502 -69.8221,-20.22514c0,-11.17012 31.26076,-20.22514 69.8221,-20.22514c38.56133,0 69.8221,9.05521 69.8221,20.22514c0,11.16993 -31.2589,20.22514 -69.8221,20.22514z" fill="#00e1c4" stroke="none" stroke-width="1"/><path d="M240.15555,220.83201c-38.56133,0 -69.8221,-9.05483 -69.8221,-20.22514c0,-11.17031 31.26076,-20.22514 69.8221,-20.22514c38.56133,0 69.8221,9.05539 69.8221,20.22514c0,11.16975 -31.2589,20.22514 -69.8221,20.22514z" fill="#00e2c4" stroke="none" stroke-width="1"/><path d="M240.16114,220.79289c-38.56133,0 -69.8221,-9.05483 -69.8221,-20.22514c0,-11.17031 31.26076,-20.22514 69.8221,-20.22514c38.56133,0 69.8221,9.05539 69.8221,20.22514c0,11.16975 -31.2589,20.22514 -69.8221,20.22514z" fill="#00e3c4" stroke="none" stroke-width="1"/><path d="M240.16673,220.75377c-38.56133,0 -69.8221,-9.05483 -69.8221,-20.22514c0,-11.17031 31.26076,-20.22514 69.8221,-20.22514c38.56133,0 69.8221,9.05539 69.8221,20.22514c0,11.16975 -31.2589,20.22514 -69.8221,20.22514z" fill="#00e4c4" stroke="none" stroke-width="1"/><path d="M240.17231,220.71651c-38.56133,0 -69.8221,-9.05483 -69.8221,-20.22514c0,-11.17031 31.26076,-20.22514 69.8221,-20.22514c38.56133,0 69.8221,9.05539 69.8221,20.22514c0,11.16975 -31.2589,20.22514 -69.8221,20.22514z" fill="#00e5c5" stroke="none" stroke-width="1"/><path d="M310,200.45225c0,11.17012 -31.26076,20.22514 -69.8221,20.22514c-38.56133,0 -69.8221,-9.05539 -69.8221,-20.22514c0,-11.16975 31.26076,-20.22514 69.8221,-20.22514c38.56133,0 69.8221,9.05539 69.8221,20.22514z" fill="#00e6c5" stroke="none" stroke-width="1"/><path d="M297.39771,200.8714c0,8.31844 -25.70383,15.06183 -57.40982,15.06183c-31.70599,0 -57.40982,-6.7432 -57.40982,-15.06183c0,-8.31807 25.70383,-15.06183 57.40982,-15.06183c31.70785,-0.00186 57.40982,6.74171 57.40982,15.06128z" fill="#00a7b3" stroke="none" stroke-width="1"/><path d="M293.97748,195.99441c0,7.46134 -24.01794,13.51007 -53.64683,13.51007c-29.62889,0 -53.64683,-6.04873 -53.64683,-13.50951c0,-7.46171 24.01794,-13.51025 53.64683,-13.51025c29.62889,0 53.64683,6.04873 53.64683,13.50951z" fill="#ff9999" stroke="none" stroke-width="1"/><path d="M186.68886,195.76342c0,-7.46171 24.01794,-13.51025 53.64683,-13.51025c29.62889,0 53.64683,6.04873 53.64683,13.51025c0,7.46134 -24.01794,13.51007 -53.64683,13.51007c-29.62889,0 -53.64683,-6.04873 -53.64683,-13.50951z" fill="#ff9a9a" stroke="none" stroke-width="1"/><path d="M186.69426,195.53056c0,-7.46171 24.01794,-13.51025 53.64683,-13.51025c29.62889,0 53.64683,6.04873 53.64683,13.51025c0,7.46134 -24.01794,13.51007 -53.64683,13.51007c-29.62889,0 -53.64683,-6.04873 -53.64683,-13.50951z" fill="#ff9a9b" stroke="none" stroke-width="1"/><path d="M186.69985,195.29956c0,-7.46171 24.01794,-13.51025 53.64683,-13.51025c29.62889,0 53.64683,6.04873 53.64683,13.51025c0,7.46134 -24.01794,13.51007 -53.64683,13.51007c-29.62889,0 -53.64683,-6.04873 -53.64683,-13.50951z" fill="#ff9b9c" stroke="none" stroke-width="1"/><path d="M186.70507,195.0667c0,-7.46171 24.01794,-13.51025 53.64683,-13.51025c29.62889,0 53.64683,6.04873 53.64683,13.51025c0,7.46134 -24.01794,13.51007 -53.64683,13.51007c-29.62889,0 -53.64683,-6.04686 -53.64683,-13.50951z" fill="#ff9c9d" stroke="none" stroke-width="1"/><path d="M186.71066,194.83571c0,-7.46171 24.01794,-13.51025 53.64683,-13.51025c29.62889,0 53.64683,6.04873 53.64683,13.51025c0,7.46134 -24.01794,13.51007 -53.64683,13.51007c-29.62889,0 -53.64683,-6.04873 -53.64683,-13.50951z" fill="#ff9c9e" stroke="none" stroke-width="1"/><path d="M186.71606,194.60285c0,-7.46171 24.01794,-13.51025 53.64683,-13.51025c29.62889,0 53.64683,6.04873 53.64683,13.51025c0,7.46134 -24.01794,13.51007 -53.64683,13.51007c-29.62703,0.00186 -53.64683,-6.04686 -53.64683,-13.50951z" fill="#ff9d9f" stroke="none" stroke-width="1"/><path d="M186.72146,194.37186c0,-7.46171 24.01794,-13.51025 53.64683,-13.51025c29.62889,0 53.64683,6.04873 53.64683,13.51025c0,7.46134 -24.01794,13.51007 -53.64683,13.51007c-29.62703,0 -53.64683,-6.04873 -53.64683,-13.50951z" fill="#ff9ea0" stroke="none" stroke-width="1"/><path d="M186.72686,194.14086c0,-7.46171 24.01794,-13.51025 53.64683,-13.51025c29.62889,0 53.64683,6.04873 53.64683,13.51025c0,7.46134 -24.01794,13.51007 -53.64683,13.51007c-29.62889,0 -53.64683,-6.04873 -53.64683,-13.50951z" fill="#ff9fa1" stroke="none" stroke-width="1"/><path d="M186.73227,193.908c0,-7.46171 24.01794,-13.51025 53.64683,-13.51025c29.62889,0 53.64683,6.04873 53.64683,13.51025c0,7.46134 -24.01794,13.51007 -53.64683,13.51007c-29.62889,0 -53.64683,-6.04873 -53.64683,-13.50951z" fill="#ff9fa2" stroke="none" stroke-width="1"/><path d="M186.73767,193.67701c0,-7.46171 24.01794,-13.51025 53.64683,-13.51025c29.62889,0 53.64683,6.04873 53.64683,13.51025c0,7.46134 -24.01794,13.51007 -53.64683,13.51007c-29.62889,0 -53.64683,-6.04873 -53.64683,-13.50951z" fill="#ffa0a3" stroke="none" stroke-width="1"/><path d="M186.74307,193.44415c0,-7.46171 24.01794,-13.51025 53.64683,-13.51025c29.62889,0 53.64683,6.04873 53.64683,13.51025c0,7.46134 -24.01794,13.51007 -53.64683,13.51007c-29.62889,0.00186 -53.64683,-6.04686 -53.64683,-13.50951z" fill="#ffa1a4" stroke="none" stroke-width="1"/><path d="M186.74847,193.21315c0,-7.46171 24.01794,-13.51025 53.64683,-13.51025c29.62889,0 53.64683,6.04873 53.64683,13.51025c0,7.46134 -24.01794,13.51007 -53.64683,13.51007c-29.62889,0 -53.64683,-6.04873 -53.64683,-13.50951z" fill="#ffa1a5" stroke="none" stroke-width="1"/><path d="M186.75406,192.98216c0,-7.46171 24.01794,-13.51025 53.64683,-13.51025c29.62889,0 53.64683,6.04873 53.64683,13.51025c0,7.46134 -24.01794,13.51007 -53.64683,13.51007c-29.62889,0 -53.64683,-6.04873 -53.64683,-13.50951z" fill="#ffa2a6" stroke="none" stroke-width="1"/><path d="M186.75928,192.7493c0,-7.46171 24.01794,-13.51025 53.64683,-13.51025c29.62889,0 53.64683,6.04873 53.64683,13.51025c0,7.46134 -24.01794,13.51007 -53.64683,13.51007c-29.62889,0 -53.64683,-6.04873 -53.64683,-13.50951z" fill="#ffa3a7" stroke="none" stroke-width="1"/><path d="M186.76487,192.5183c0,-7.46171 24.01794,-13.51025 53.64683,-13.51025c29.62889,0 53.64683,6.04873 53.64683,13.51025c0,7.46134 -24.01794,13.51007 -53.64683,13.51007c-29.62889,0 -53.64683,-6.04873 -53.64683,-13.50951z" fill="#ffa3a8" stroke="none" stroke-width="1"/><path d="M186.77008,192.28544c0,-7.46171 24.01794,-13.51025 53.64683,-13.51025c29.62889,0 53.64683,6.04873 53.64683,13.51025c0,7.46134 -24.01794,13.51007 -53.64683,13.51007c-29.62703,0.00186 -53.64683,-6.04686 -53.64683,-13.50951z" fill="#ffa4a9" stroke="none" stroke-width="1"/><path d="M186.77567,192.05445c0,-7.46171 24.01794,-13.51025 53.64683,-13.51025c29.62889,0 53.64683,6.04873 53.64683,13.51025c0,7.46134 -24.01794,13.51007 -53.64683,13.51007c-29.62703,0 -53.64683,-6.04873 -53.64683,-13.50951z" fill="#ffa5aa" stroke="none" stroke-width="1"/><path d="M186.78107,191.82345c0,-7.46171 24.01794,-13.51025 53.64683,-13.51025c29.62889,0 53.64683,6.04873 53.64683,13.51025c0,7.46134 -24.01794,13.51007 -53.64683,13.51007c-29.62889,0 -53.64683,-6.04873 -53.64683,-13.50951z" fill="#ffa6ab" stroke="none" stroke-width="1"/><path d="M186.78648,191.5906c0,-7.46171 24.01794,-13.51025 53.64683,-13.51025c29.62889,0 53.64683,6.04873 53.64683,13.51025c0,7.46134 -24.01794,13.51007 -53.64683,13.51007c-29.62889,0 -53.64683,-6.04873 -53.64683,-13.50951z" fill="#ffa6ac" stroke="none" stroke-width="1"/><path d="M186.79188,191.3596c0,-7.46171 24.01794,-13.51025 53.64683,-13.51025c29.62889,0 53.64683,6.04873 53.64683,13.51025c0,7.46134 -24.01794,13.51007 -53.64683,13.51007c-29.62889,0 -53.64683,-6.04873 -53.64683,-13.50951z" fill="#ffa7ad" stroke="none" stroke-width="1"/><path d="M186.79728,191.12674c0,-7.46171 24.01794,-13.51025 53.64683,-13.51025c29.62889,0 53.64683,6.04873 53.64683,13.51025c0,7.46134 -24.01794,13.51007 -53.64683,13.51007c-29.62889,0.00186 -53.64683,-6.04686 -53.64683,-13.50951z" fill="#ffa8ae" stroke="none" stroke-width="1"/><path d="M186.80268,190.89575c0,-7.46171 24.01794,-13.51025 53.64683,-13.51025c29.62889,0 53.64683,6.04873 53.64683,13.51025c0,7.46134 -24.01794,13.51007 -53.64683,13.51007c-29.62889,0 -53.64683,-6.04873 -53.64683,-13.50951z" fill="#ffa8af" stroke="none" stroke-width="1"/><path d="M186.80827,190.66475c0,-7.46171 24.01794,-13.51025 53.64683,-13.51025c29.62889,0 53.64683,6.04873 53.64683,13.51025c0,7.46134 -24.01794,13.51007 -53.64683,13.51007c-29.62889,0 -53.64683,-6.04873 -53.64683,-13.50951z" fill="#ffa9b0" stroke="none" stroke-width="1"/><path d="M186.81349,190.43189c0,-7.46171 24.01794,-13.51025 53.64683,-13.51025c29.62889,0 53.64683,6.04873 53.64683,13.51025c0,7.46134 -24.01794,13.51007 -53.64683,13.51007c-29.62889,0 -53.64683,-6.04873 -53.64683,-13.50951z" fill="#ffaab1" stroke="none" stroke-width="1"/><path d="M186.81908,190.2009c0,-7.46171 24.01794,-13.51025 53.64683,-13.51025c29.62889,0 53.64683,6.04873 53.64683,13.51025c0,7.46134 -24.01794,13.51007 -53.64683,13.51007c-29.62889,0 -53.64683,-6.04873 -53.64683,-13.50951z" fill="#ffaab2" stroke="none" stroke-width="1"/><path d="M186.82429,189.96804c0,-7.46171 24.01794,-13.51025 53.64683,-13.51025c29.62889,0 53.64683,6.04873 53.64683,13.51025c0,7.46134 -24.01794,13.51007 -53.64683,13.51007c-29.62703,0.00186 -53.64683,-6.04686 -53.64683,-13.50951z" fill="#ffabb3" stroke="none" stroke-width="1"/><path d="M186.82988,189.73704c0,-7.46171 24.01794,-13.51025 53.64683,-13.51025c29.62889,0 53.64683,6.04873 53.64683,13.51025c0,7.46134 -24.01794,13.51007 -53.64683,13.51007c-29.62889,0 -53.64683,-6.04873 -53.64683,-13.50951z" fill="#ffacb4" stroke="none" stroke-width="1"/><path d="M186.83528,189.50419c0,-7.46171 24.01794,-13.51025 53.64683,-13.51025c29.62889,0 53.64683,6.04873 53.64683,13.51025c0,7.46134 -24.01794,13.51007 -53.64683,13.51007c-29.62889,0 -53.64683,-6.04686 -53.64683,-13.50951z" fill="#ffadb5" stroke="none" stroke-width="1"/><path d="M186.84068,189.27319c0,-7.46171 24.01794,-13.51025 53.64683,-13.51025c29.62889,0 53.64683,6.04873 53.64683,13.51025c0,7.46134 -24.01794,13.51007 -53.64683,13.51007c-29.62889,0 -53.64683,-6.04873 -53.64683,-13.50951z" fill="#ffadb6" stroke="none" stroke-width="1"/><path d="M186.84609,189.04219c0,-7.46171 24.01794,-13.51025 53.64683,-13.51025c29.62889,0 53.64683,6.04873 53.64683,13.51025c0,7.46134 -24.01794,13.51007 -53.64683,13.51007c-29.62889,0 -53.64683,-6.04873 -53.64683,-13.50951z" fill="#ffaeb7" stroke="none" stroke-width="1"/><path d="M186.85149,188.80934c0,-7.46171 24.01794,-13.51025 53.64683,-13.51025c29.62889,0 53.64683,6.04873 53.64683,13.51025c0,7.46134 -24.01794,13.51007 -53.64683,13.51007c-29.62889,0 -53.64683,-6.04873 -53.64683,-13.50951z" fill="#ffafb8" stroke="none" stroke-width="1"/><path d="M186.85689,188.57834c0,-7.46153 24.01794,-13.51007 53.64683,-13.51007c29.62889,0 53.64683,6.04873 53.64683,13.51007c0,7.46134 -24.01794,13.51025 -53.64683,13.51025c-29.62889,0 -53.64683,-6.04873 -53.64683,-13.50951z" fill="#ffafb8" stroke="none" stroke-width="1"/><path d="M186.86229,188.34548c0,-7.46153 24.01794,-13.51007 53.64683,-13.51007c29.62889,0 53.64683,6.04873 53.64683,13.51007c0,7.46134 -24.01794,13.51025 -53.64683,13.51025c-29.62889,0 -53.64683,-6.04686 -53.64683,-13.50951z" fill="#ffb0b9" stroke="none" stroke-width="1"/><path d="M186.8677,188.11449c0,-7.46153 24.01794,-13.51007 53.64683,-13.51007c29.62889,0 53.64683,6.04873 53.64683,13.51007c0,7.46134 -24.01794,13.51025 -53.64683,13.51025c-29.62889,0 -53.64683,-6.04873 -53.64683,-13.50951z" fill="#ffb1ba" stroke="none" stroke-width="1"/><path d="M186.87328,187.88163c0,-7.46153 24.01794,-13.51007 53.64683,-13.51007c29.62889,0 53.64683,6.04873 53.64683,13.51007c0,7.46134 -24.01794,13.51025 -53.64683,13.51025c-29.62889,0.00186 -53.64683,-6.04686 -53.64683,-13.50951z" fill="#ffb1bb" stroke="none" stroke-width="1"/><path d="M186.8785,187.65063c0,-7.46153 24.01794,-13.51025 53.64683,-13.51025c29.62889,0 53.64683,6.04873 53.64683,13.51025c0,7.46153 -24.01794,13.51025 -53.64683,13.51025c-29.62703,0 -53.64683,-6.04873 -53.64683,-13.50951z" fill="#ffb2bc" stroke="none" stroke-width="1"/><path d="M186.88409,187.41964c0,-7.46153 24.01794,-13.51025 53.64683,-13.51025c29.62889,0 53.64683,6.04873 53.64683,13.51025c0,7.46153 -24.01794,13.51025 -53.64683,13.51025c-29.62889,0 -53.64683,-6.04873 -53.64683,-13.50951z" fill="#ffb3bd" stroke="none" stroke-width="1"/><path d="M186.88949,187.18678c0,-7.46153 24.01794,-13.51025 53.64683,-13.51025c29.62889,0 53.64683,6.04873 53.64683,13.51025c0,7.46153 -24.01794,13.51025 -53.64683,13.51025c-29.62889,0 -53.64683,-6.04873 -53.64683,-13.50951z" fill="#ffb4be" stroke="none" stroke-width="1"/><path d="M186.89489,186.95578c0,-7.46153 24.01794,-13.51025 53.64683,-13.51025c29.62889,0 53.64683,6.04873 53.64683,13.51025c0,7.46153 -24.01794,13.51025 -53.64683,13.51025c-29.62703,0 -53.64683,-6.04873 -53.64683,-13.50951z" fill="#ffb4bf" stroke="none" stroke-width="1"/><path d="M186.9003,186.72293c0,-7.46153 24.01794,-13.51025 53.64683,-13.51025c29.62889,0 53.64683,6.04873 53.64683,13.51025c0,7.46153 -24.01794,13.51025 -53.64683,13.51025c-29.62703,0.00186 -53.64683,-6.04686 -53.64683,-13.50951z" fill="#ffb5c0" stroke="none" stroke-width="1"/><path d="M186.9057,186.49193c0,-7.46153 24.01794,-13.51025 53.64683,-13.51025c29.62889,0 53.64683,6.04873 53.64683,13.51025c0,7.46153 -24.01794,13.51025 -53.64683,13.51025c-29.62889,0 -53.64683,-6.04873 -53.64683,-13.50951z" fill="#ffb6c1" stroke="none" stroke-width="1"/><path d="M186.9111,186.26093c0,-7.46153 24.01794,-13.51025 53.64683,-13.51025c29.62889,0 53.64683,6.04873 53.64683,13.51025c0,7.46153 -24.01794,13.51025 -53.64683,13.51025c-29.62889,0 -53.64683,-6.04873 -53.64683,-13.50951z" fill="#ffb6c2" stroke="none" stroke-width="1"/><path d="M186.9165,186.02808c0,-7.46153 24.01794,-13.51025 53.64683,-13.51025c29.62889,0 53.64683,6.04873 53.64683,13.51025c0,7.46153 -24.01794,13.51025 -53.64683,13.51025c-29.62889,0 -53.64683,-6.04873 -53.64683,-13.50951z" fill="#ffb7c3" stroke="none" stroke-width="1"/><path d="M186.92191,185.79708c0,-7.46153 24.01794,-13.51025 53.64683,-13.51025c29.62889,0 53.64683,6.04873 53.64683,13.51025c0,7.46153 -24.01794,13.51025 -53.64683,13.51025c-29.62889,0 -53.64683,-6.04873 -53.64683,-13.50951z" fill="#ffb8c4" stroke="none" stroke-width="1"/><path d="M186.92731,185.56422c0,-7.46153 24.01794,-13.51025 53.64683,-13.51025c29.62889,0 53.64683,6.04873 53.64683,13.51025c0,7.46153 -24.01794,13.51025 -53.64683,13.51025c-29.62889,0.00186 -53.64683,-6.04686 -53.64683,-13.50951z" fill="#ffb8c5" stroke="none" stroke-width="1"/><path d="M186.93271,185.33323c0,-7.46153 24.01794,-13.51025 53.64683,-13.51025c29.62889,0 53.64683,6.04873 53.64683,13.51025c0,7.46153 -24.01794,13.51025 -53.64683,13.51025c-29.62889,0 -53.64683,-6.04873 -53.64683,-13.50951z" fill="#ffb9c6" stroke="none" stroke-width="1"/><path d="M186.9383,185.10037c0,-7.46153 24.01794,-13.51025 53.64683,-13.51025c29.62889,0 53.64683,6.04873 53.64683,13.51025c0,7.46153 -24.01794,13.51025 -53.64683,13.51025c-29.62889,0 -53.64683,-6.04686 -53.64683,-13.50951z" fill="#ffbac7" stroke="none" stroke-width="1"/><path d="M186.9437,184.86937c0,-7.46153 24.01794,-13.51025 53.64683,-13.51025c29.62889,0 53.64683,6.04873 53.64683,13.51025c0,7.46153 -24.01794,13.51025 -53.64683,13.51025c-29.62889,0.00186 -53.64683,-6.04873 -53.64683,-13.50951z" fill="#ffbbc8" stroke="none" stroke-width="1"/><path d="M186.9491,184.63838c0,-7.46153 24.01794,-13.51025 53.64683,-13.51025c29.62889,0 53.64683,6.04873 53.64683,13.51025c0,7.46153 -24.01794,13.50951 -53.64683,13.50951c-29.62703,0 -53.64683,-6.04873 -53.64683,-13.50951z" fill="#ffbbc9" stroke="none" stroke-width="1"/><path d="M186.95451,184.40552c0,-7.46153 24.01794,-13.51025 53.64683,-13.51025c29.62889,0 53.64683,6.04873 53.64683,13.51025c0,7.46153 -24.01794,13.51025 -53.64683,13.51025c-29.62703,0.00186 -53.64683,-6.04686 -53.64683,-13.50951z" fill="#ffbcca" stroke="none" stroke-width="1"/><path d="M186.95991,184.17452c0,-7.46153 24.01794,-13.51025 53.64683,-13.51025c29.62889,0 53.64683,6.04873 53.64683,13.51025c0,7.46153 -24.01794,13.51025 -53.64683,13.51025c-29.62889,0 -53.64683,-6.04873 -53.64683,-13.50951z" fill="#ffbdcb" stroke="none" stroke-width="1"/><path d="M186.96531,183.94167c0,-7.46153 24.01794,-13.51025 53.64683,-13.51025c29.62889,0 53.64683,6.04873 53.64683,13.51025c0,7.46153 -24.01794,13.51025 -53.64683,13.51025c-29.62889,0 -53.64683,-6.04686 -53.64683,-13.50951z" fill="#ffbdcc" stroke="none" stroke-width="1"/><path d="M186.97071,183.71067c0,-7.46153 24.01794,-13.51025 53.64683,-13.51025c29.62889,0 53.64683,6.04873 53.64683,13.51025c0,7.46153 -24.01794,13.51025 -53.64683,13.51025c-29.62889,0 -53.64683,-6.04873 -53.64683,-13.50951z" fill="#ffbecd" stroke="none" stroke-width="1"/><path d="M186.97612,183.47781c0,-7.46153 24.01794,-13.51025 53.64683,-13.51025c29.62889,0 53.64683,6.04873 53.64683,13.51025c0,7.46153 -24.01794,13.51137 -53.64683,13.51137c-29.62889,0 -53.64683,-6.04873 -53.64683,-13.51137z" fill="#ffbfce" stroke="none" stroke-width="1"/><path d="M186.98152,183.24682c0,-7.46153 24.01794,-13.51025 53.64683,-13.51025c29.62889,0 53.64683,6.04873 53.64683,13.51025c0,7.46153 -24.01794,13.51025 -53.64683,13.51025c-29.62889,0.00186 -53.64683,-6.04686 -53.64683,-13.50951z" fill="#ffbfcf" stroke="none" stroke-width="1"/><path d="M186.98711,183.01582c0,-7.46153 24.01794,-13.51025 53.64683,-13.51025c29.62889,0 53.64683,6.04873 53.64683,13.51025c0,7.46153 -24.01794,13.51025 -53.64683,13.51025c-29.62889,0 -53.64683,-6.04873 -53.64683,-13.50951z" fill="#ffc0d0" stroke="none" stroke-width="1"/><path d="M186.99232,182.78296c0,-7.46153 24.01794,-13.51025 53.64683,-13.51025c29.62889,0 53.64683,6.04873 53.64683,13.51025c0,7.46153 -24.01794,13.51025 -53.64683,13.51025c-29.62889,0 -53.64683,-6.04686 -53.64683,-13.50951z" fill="#ffc1d1" stroke="none" stroke-width="1"/><path d="M186.99791,182.55197c0,-7.46153 24.01794,-13.51025 53.64683,-13.51025c29.62889,0 53.64683,6.04873 53.64683,13.51025c0,7.46153 -24.01794,13.51025 -53.64683,13.51025c-29.62889,0 -53.64683,-6.04873 -53.64683,-13.50951z" fill="#ffc2d2" stroke="none" stroke-width="1"/><path d="M187.00331,182.31911c0,-7.46153 24.01794,-13.51025 53.64683,-13.51025c29.62889,0 53.64683,6.04873 53.64683,13.51025c0,7.46153 -24.01794,13.51025 -53.64683,13.51025c-29.62889,0.00186 -53.64683,-6.04686 -53.64683,-13.50951z" fill="#ffc2d3" stroke="none" stroke-width="1"/><path d="M187.00872,182.08811c0,-7.46153 24.01794,-13.51025 53.64683,-13.51025c29.62889,0 53.64683,6.04873 53.64683,13.51025c0,7.46153 -24.01794,13.51025 -53.64683,13.51025c-29.62703,0 -53.64683,-6.04873 -53.64683,-13.50951z" fill="#ffc3d4" stroke="none" stroke-width="1"/><path d="M187.01412,181.85712c0,-7.46153 24.01794,-13.51025 53.64683,-13.51025c29.62889,0 53.64683,6.04873 53.64683,13.51025c0,7.46153 -24.01794,13.51025 -53.64683,13.51025c-29.62889,0 -53.64683,-6.04873 -53.64683,-13.50951z" fill="#ffc4d5" stroke="none" stroke-width="1"/><path d="M187.01952,181.62426c0,-7.46153 24.01794,-13.51025 53.64683,-13.51025c29.62889,0 53.64683,6.04873 53.64683,13.51025c0,7.46153 -24.01794,13.51025 -53.64683,13.51025c-29.62703,0.00186 -53.64683,-6.04686 -53.64683,-13.50951z" fill="#ffc4d6" stroke="none" stroke-width="1"/><path d="M294.31839,181.39326c0,7.46153 -24.01794,13.51025 -53.64683,13.51025c-29.62889,0 -53.64683,-6.04891 -53.64683,-13.51025c0,-7.46134 24.01794,-13.51025 53.64683,-13.51025c29.62889,-0.00186 53.64683,6.04873 53.64683,13.50951z" fill="#ffc5d7" stroke="none" stroke-width="1"/><path d="M294.81391,177.22044c0,8.25287 -24.05147,14.94336 -53.71948,14.94336c-29.66801,0 -53.71948,-6.69048 -53.71948,-14.94336c0,-8.25306 24.05147,-14.94336 53.71948,-14.94336c29.66801,0.00186 53.71948,6.69142 53.71948,14.94391z" fill="#990000" stroke="none" stroke-width="1"/><path d="M241.09257,192.11779c-29.66801,0 -53.71948,-6.69048 -53.71948,-14.94336c0,-8.25306 24.05147,-14.94354 53.71948,-14.94354c29.66801,0 53.71948,6.69048 53.71948,14.94354c0,8.2525 -24.04961,14.94391 -53.71948,14.94391z" fill="#9a0000" stroke="none" stroke-width="1"/><path d="M241.09257,192.06935c-29.66801,0 -53.71948,-6.69067 -53.71948,-14.94354c0,-8.25306 24.05147,-14.94336 53.71948,-14.94336c29.66801,0 53.71948,6.6903 53.71948,14.94336c0,8.2525 -24.05147,14.94391 -53.71948,14.94391z" fill="#9b0000" stroke="none" stroke-width="1"/><path d="M241.09071,192.02092c-29.66801,0 -53.71948,-6.69048 -53.71948,-14.94336c0,-8.25306 24.05147,-14.94336 53.71948,-14.94336c29.66801,0 53.71948,6.6903 53.71948,14.94336c0,8.25436 -24.04961,14.94391 -53.71948,14.94391z" fill="#9c0000" stroke="none" stroke-width="1"/><path d="M241.09071,191.97435c-29.66801,0 -53.71948,-6.69048 -53.71948,-14.94336c0,-8.25306 24.05147,-14.94336 53.71948,-14.94336c29.66801,0 53.71948,6.6903 53.71948,14.94336c0,8.25436 -24.05147,14.94391 -53.71948,14.94391z" fill="#9d0000" stroke="none" stroke-width="1"/><path d="M241.09071,191.92777c-29.66801,0 -53.71948,-6.69048 -53.71948,-14.94336c0,-8.25324 24.05147,-14.94354 53.71948,-14.94354c29.66801,0 53.71948,6.6903 53.71948,14.94354c-0.00186,8.2525 -24.05147,14.94391 -53.71948,14.94391z" fill="#9e0000" stroke="none" stroke-width="1"/><path d="M241.08884,191.87934c-29.66801,0 -53.71948,-6.69048 -53.71948,-14.94336c0,-8.25306 24.05147,-14.94336 53.71948,-14.94336c29.66801,0 53.71948,6.6903 53.71948,14.94336c0,8.2525 -24.05147,14.94391 -53.71948,14.94391z" fill="#9f0000" stroke="none" stroke-width="1"/><path d="M241.08884,191.83091c-29.66801,0 -53.71948,-6.69048 -53.71948,-14.94336c0,-8.25306 24.05147,-14.94336 53.71948,-14.94336c29.66801,0 53.71948,6.6903 53.71948,14.94336c0,8.25436 -24.05147,14.94391 -53.71948,14.94391z" fill="#a00000" stroke="none" stroke-width="1"/><path d="M241.08698,191.78433c-29.66801,0 -53.71948,-6.69048 -53.71948,-14.94336c0,-8.25306 24.05147,-14.94336 53.71948,-14.94336c29.66801,0 53.71948,6.6903 53.71948,14.94336c0,8.2525 -24.05147,14.94391 -53.71948,14.94391z" fill="#a10000" stroke="none" stroke-width="1"/><path d="M241.08698,191.7359c-29.66801,0 -53.71948,-6.69048 -53.71948,-14.94336c0,-8.25324 24.05147,-14.94354 53.71948,-14.94354c29.66801,0 53.71948,6.6903 53.71948,14.94354c0,8.25436 -24.05147,14.94391 -53.71948,14.94391z" fill="#a20000" stroke="none" stroke-width="1"/><path d="M241.08512,191.68933c-29.66801,0 -53.71948,-6.69048 -53.71948,-14.94336c0,-8.25306 24.05147,-14.94336 53.71948,-14.94336c29.66801,0 53.71948,6.69048 53.71948,14.94336c0,8.2525 -24.05147,14.94391 -53.71948,14.94391z" fill="#a30000" stroke="none" stroke-width="1"/><path d="M241.08512,191.64089c-29.66801,0 -53.71948,-6.69048 -53.71948,-14.94336c0,-8.25306 24.05147,-14.94336 53.71948,-14.94336c29.66801,0 53.71948,6.6903 53.71948,14.94336c0,8.25436 -24.05147,14.94391 -53.71948,14.94391z" fill="#a40000" stroke="none" stroke-width="1"/><path d="M241.08326,191.59432c-29.66801,0 -53.71948,-6.69048 -53.71948,-14.94336c0,-8.25324 24.05147,-14.94354 53.71948,-14.94354c29.66801,0 53.71948,6.6903 53.71948,14.94354c0,8.2525 -24.05147,14.94391 -53.71948,14.94391z" fill="#a50000" stroke="none" stroke-width="1"/><path d="M241.08326,191.54589c-29.66801,0 -53.71948,-6.69067 -53.71948,-14.94354c0,-8.25306 24.05147,-14.94336 53.71948,-14.94336c29.66801,0 53.71948,6.6903 53.71948,14.94336c0,8.25436 -24.05147,14.94391 -53.71948,14.94391z" fill="#a60000" stroke="none" stroke-width="1"/><path d="M241.08139,191.49932c-29.66801,0 -53.71948,-6.69048 -53.71948,-14.94336c0,-8.25306 24.05147,-14.94336 53.71948,-14.94336c29.66801,0 53.71948,6.6903 53.71948,14.94336c0,8.2525 -24.04961,14.94391 -53.71948,14.94391z" fill="#a70000" stroke="none" stroke-width="1"/><path d="M241.08139,191.45088c-29.66801,0 -53.71948,-6.69048 -53.71948,-14.94336c0,-8.25306 24.05147,-14.94336 53.71948,-14.94336c29.66801,0 53.71948,6.6903 53.71948,14.94336c0,8.25436 -24.05147,14.94391 -53.71948,14.94391z" fill="#a80000" stroke="none" stroke-width="1"/><path d="M241.07953,191.40431c-29.66801,0 -53.71948,-6.69048 -53.71948,-14.94336c0,-8.25324 24.05147,-14.94354 53.71948,-14.94354c29.66801,0 53.71948,6.6903 53.71948,14.94354c0,8.2525 -24.04961,14.94391 -53.71948,14.94391z" fill="#a90000" stroke="none" stroke-width="1"/><path d="M241.07953,191.35587c-29.66801,0 -53.71948,-6.69067 -53.71948,-14.94354c0,-8.25306 24.05147,-14.94336 53.71948,-14.94336c29.66801,0 53.71948,6.69048 53.71948,14.94336c0,8.25436 -24.05147,14.94391 -53.71948,14.94391z" fill="#aa0000" stroke="none" stroke-width="1"/><path d="M241.07953,191.3093c-29.66801,0 -53.71948,-6.69048 -53.71948,-14.94336c0,-8.25306 24.05147,-14.94336 53.71948,-14.94336c29.66801,0 53.71948,6.6903 53.71948,14.94336c-0.00186,8.2525 -24.05147,14.94391 -53.71948,14.94391z" fill="#ab0000" stroke="none" stroke-width="1"/><path d="M241.07767,191.26087c-29.66801,0 -53.71948,-6.69048 -53.71948,-14.94336c0,-8.25306 24.05147,-14.94354 53.71948,-14.94354c29.66801,0 53.71948,6.69048 53.71948,14.94354c0,8.25436 -24.05147,14.94391 -53.71948,14.94391z" fill="#ac0000" stroke="none" stroke-width="1"/><path d="M241.0758,191.2143c-29.66801,0 -53.71948,-6.69048 -53.71948,-14.94336c0,-8.25324 24.05147,-14.94354 53.71948,-14.94354c29.66801,0 53.71948,6.6903 53.71948,14.94354c0.00186,8.2525 -24.04961,14.94391 -53.71948,14.94391z" fill="#ad0000" stroke="none" stroke-width="1"/><path d="M241.0758,191.16586c-29.66801,0 -53.71948,-6.69067 -53.71948,-14.94354c0,-8.25306 24.05147,-14.94336 53.71948,-14.94336c29.66801,0 53.71948,6.6903 53.71948,14.94336c0,8.25436 -24.05147,14.94391 -53.71948,14.94391z" fill="#ae0000" stroke="none" stroke-width="1"/><path d="M241.0758,191.11929c-29.66801,0 -53.71948,-6.69048 -53.71948,-14.94336c0,-8.25306 24.05147,-14.94336 53.71948,-14.94336c29.66801,0 53.71948,6.6903 53.71948,14.94336c0,8.2525 -24.05147,14.94391 -53.71948,14.94391z" fill="#af0000" stroke="none" stroke-width="1"/><path d="M241.07394,191.07086c-29.66801,0 -53.71948,-6.69048 -53.71948,-14.94336c0,-8.25324 24.05147,-14.94354 53.71948,-14.94354c29.66801,0 53.71948,6.6903 53.71948,14.94354c0,8.25436 -24.05147,14.94391 -53.71948,14.94391z" fill="#b00000" stroke="none" stroke-width="1"/><path d="M241.07394,191.02428c-29.66801,0 -53.71948,-6.69048 -53.71948,-14.94336c0,-8.25324 24.05147,-14.94354 53.71948,-14.94354c29.66801,0 53.71948,6.6903 53.71948,14.94354c0,8.2525 -24.05147,14.94391 -53.71948,14.94391z" fill="#b10000" stroke="none" stroke-width="1"/><path d="M241.07208,190.97585c-29.66801,0 -53.71948,-6.69048 -53.71948,-14.94336c0,-8.25306 24.05147,-14.94336 53.71948,-14.94336c29.66801,0 53.71948,6.6903 53.71948,14.94336c0,8.25436 -24.04961,14.94391 -53.71948,14.94391z" fill="#b20000" stroke="none" stroke-width="1"/><path d="M241.07208,190.92928c-29.66801,0 -53.71948,-6.69048 -53.71948,-14.94336c0,-8.25306 24.05147,-14.94354 53.71948,-14.94354c29.66801,0 53.71948,6.69048 53.71948,14.94354c0,8.2525 -24.05147,14.94391 -53.71948,14.94391z" fill="#b30000" stroke="none" stroke-width="1"/><path d="M241.07022,190.88084c-29.66801,0 -53.71948,-6.69048 -53.71948,-14.94336c0,-8.25324 24.05147,-14.94354 53.71948,-14.94354c29.66801,0 53.71948,6.6903 53.71948,14.94354c0,8.25436 -24.04961,14.94391 -53.71948,14.94391z" fill="#b40000" stroke="none" stroke-width="1"/><path d="M241.07022,190.83427c-29.66801,0 -53.71948,-6.69067 -53.71948,-14.94354c0,-8.25306 24.05147,-14.94336 53.71948,-14.94336c29.66801,0 53.71948,6.69048 53.71948,14.94336c0,8.2525 -24.05147,14.94391 -53.71948,14.94391z" fill="#b50000" stroke="none" stroke-width="1"/><path d="M241.06835,190.78584c-29.66801,0 -53.71948,-6.69048 -53.71948,-14.94336c0,-8.25306 24.05147,-14.94336 53.71948,-14.94336c29.66801,0 53.71948,6.6903 53.71948,14.94336c0,8.25436 -24.04961,14.94391 -53.71948,14.94391z" fill="#b60000" stroke="none" stroke-width="1"/><path d="M241.06835,190.73927c-29.66801,0 -53.71948,-6.69048 -53.71948,-14.94336c0,-8.25324 24.05147,-14.94354 53.71948,-14.94354c29.66801,0 53.71948,6.6903 53.71948,14.94354c0,8.2525 -24.05147,14.94391 -53.71948,14.94391z" fill="#b70000" stroke="none" stroke-width="1"/><path d="M241.06835,190.69083c-29.66801,0 -53.71948,-6.69048 -53.71948,-14.94336c0,-8.25324 24.05147,-14.94354 53.71948,-14.94354c29.66801,0 53.71948,6.6903 53.71948,14.94354c-0.00186,8.25436 -24.05147,14.94391 -53.71948,14.94391z" fill="#b80000" stroke="none" stroke-width="1"/><path d="M241.06649,190.64426c-29.66801,0 -53.71948,-6.69067 -53.71948,-14.94354c0,-8.25306 24.05147,-14.94336 53.71948,-14.94336c29.66801,0 53.71948,6.6903 53.71948,14.94336c0,8.2525 -24.05147,14.94391 -53.71948,14.94391z" fill="#b90000" stroke="none" stroke-width="1"/><path d="M241.06649,190.59582c-29.66801,0 -53.71948,-6.69048 -53.71948,-14.94336c0,-8.25306 24.05147,-14.94354 53.71948,-14.94354c29.66801,0 53.71948,6.69048 53.71948,14.94354c0,8.25436 -24.05147,14.94391 -53.71948,14.94391z" fill="#ba0000" stroke="none" stroke-width="1"/><path d="M241.06463,190.54925c-29.66801,0 -53.71948,-6.69048 -53.71948,-14.94336c0,-8.25324 24.05147,-14.94354 53.71948,-14.94354c29.66801,0 53.71948,6.6903 53.71948,14.94354c0,8.2525 -24.05147,14.94391 -53.71948,14.94391z" fill="#bb0000" stroke="none" stroke-width="1"/><path d="M241.06463,190.50082c-29.66801,0 -53.71948,-6.69048 -53.71948,-14.94336c0,-8.25324 24.05147,-14.94354 53.71948,-14.94354c29.66801,0 53.71948,6.69048 53.71948,14.94354c0,8.25436 -24.05147,14.94391 -53.71948,14.94391z" fill="#bc0000" stroke="none" stroke-width="1"/><path d="M241.06276,190.45425c-29.66801,0 -53.71948,-6.69067 -53.71948,-14.94354c0,-8.25306 24.05147,-14.94336 53.71948,-14.94336c29.66801,0 53.71948,6.6903 53.71948,14.94336c0,8.2525 -24.04961,14.94391 -53.71948,14.94391z" fill="#bd0000" stroke="none" stroke-width="1"/><path d="M241.06276,190.40581c-29.66801,0 -53.71948,-6.69048 -53.71948,-14.94336c0,-8.25306 24.05147,-14.94354 53.71948,-14.94354c29.66801,0 53.71948,6.69048 53.71948,14.94354c0,8.25436 -24.05147,14.94391 -53.71948,14.94391z" fill="#be0000" stroke="none" stroke-width="1"/><path d="M241.0609,190.35924c-29.66801,0 -53.71948,-6.69048 -53.71948,-14.94336c0,-8.25324 24.05147,-14.94354 53.71948,-14.94354c29.66801,0 53.71948,6.6903 53.71948,14.94354c0,8.2525 -24.04961,14.94391 -53.71948,14.94391z" fill="#bf0000" stroke="none" stroke-width="1"/><path d="M241.0609,190.31081c-29.66801,0 -53.71948,-6.69067 -53.71948,-14.94354c0,-8.25306 24.05147,-14.94336 53.71948,-14.94336c29.66801,0 53.71948,6.6903 53.71948,14.94336c0,8.2525 -24.05147,14.94391 -53.71948,14.94391z" fill="#c00000" stroke="none" stroke-width="1"/><path d="M241.0609,190.26237c-29.66801,0 -53.71948,-6.69067 -53.71948,-14.94354c0,-8.25306 24.05147,-14.94336 53.71948,-14.94336c29.66801,0 53.71948,6.6903 53.71948,14.94336c-0.00186,8.25436 -24.05147,14.94391 -53.71948,14.94391z" fill="#c10000" stroke="none" stroke-width="1"/><path d="M241.05904,190.2158c-29.66801,0 -53.71948,-6.69048 -53.71948,-14.94336c0,-8.25324 24.05147,-14.94354 53.71948,-14.94354c29.66801,0 53.71948,6.6903 53.71948,14.94354c0,8.2525 -24.05147,14.94391 -53.71948,14.94391z" fill="#c20000" stroke="none" stroke-width="1"/><path d="M241.05904,190.16737c-29.66801,0 -53.71948,-6.69048 -53.71948,-14.94336c0,-8.25324 24.05147,-14.94354 53.71948,-14.94354c29.66801,0 53.71948,6.69048 53.71948,14.94354c-0.00186,8.25436 -24.05147,14.94391 -53.71948,14.94391z" fill="#c30000" stroke="none" stroke-width="1"/><path d="M241.05718,190.12079c-29.66801,0 -53.71948,-6.69067 -53.71948,-14.94354c0,-8.25306 24.05147,-14.94336 53.71948,-14.94336c29.66801,0 53.71948,6.6903 53.71948,14.94336c0,8.2525 -24.05147,14.94391 -53.71948,14.94391z" fill="#c40000" stroke="none" stroke-width="1"/><path d="M241.05718,190.07236c-29.66801,0 -53.71948,-6.69048 -53.71948,-14.94336c0,-8.25306 24.05147,-14.94354 53.71948,-14.94354c29.66801,0 53.71948,6.69048 53.71948,14.94354c-0.00186,8.25436 -24.05147,14.94391 -53.71948,14.94391z" fill="#c50000" stroke="none" stroke-width="1"/><path d="M241.05531,190.02579c-29.66801,0 -53.71948,-6.69048 -53.71948,-14.94336c0,-8.25324 24.05147,-14.94354 53.71948,-14.94354c29.66801,0 53.71948,6.6903 53.71948,14.94354c0,8.2525 -24.05147,14.94391 -53.71948,14.94391z" fill="#c60000" stroke="none" stroke-width="1"/><path d="M241.05531,189.97735c-29.66801,0 -53.71948,-6.69048 -53.71948,-14.94336c0,-8.25324 24.05147,-14.94354 53.71948,-14.94354c29.66801,0 53.71948,6.69048 53.71948,14.94354c0,8.25436 -24.05147,14.94391 -53.71948,14.94391z" fill="#c70000" stroke="none" stroke-width="1"/><path d="M241.05345,189.93078c-29.66801,0 -53.71948,-6.69067 -53.71948,-14.94354c0,-8.25306 24.05147,-14.94336 53.71948,-14.94336c29.66801,0 53.71948,6.6903 53.71948,14.94336c0,8.2525 -24.05147,14.94391 -53.71948,14.94391z" fill="#c80000" stroke="none" stroke-width="1"/><path d="M241.05345,189.88235c-29.66801,0 -53.71948,-6.69048 -53.71948,-14.94336c0,-8.25306 24.05147,-14.94354 53.71948,-14.94354c29.66801,0 53.71948,6.69048 53.71948,14.94354c0,8.25436 -24.05147,14.94391 -53.71948,14.94391z" fill="#c90000" stroke="none" stroke-width="1"/><path d="M241.05159,189.83578c-29.66801,0 -53.71948,-6.69048 -53.71948,-14.94336c0,-8.25324 24.05147,-14.94354 53.71948,-14.94354c29.66801,0 53.71948,6.69048 53.71948,14.94354c0,8.2525 -24.04961,14.94391 -53.71948,14.94391z" fill="#ca0000" stroke="none" stroke-width="1"/><path d="M241.05159,189.78734c-29.66801,0 -53.71948,-6.69067 -53.71948,-14.94354c0,-8.25306 24.05147,-14.94336 53.71948,-14.94336c29.66801,0 53.71948,6.6903 53.71948,14.94336c0,8.25436 -24.05147,14.94391 -53.71948,14.94391z" fill="#cb0000" stroke="none" stroke-width="1"/><path d="M241.04972,189.74077c-29.66801,0 -53.71948,-6.69067 -53.71948,-14.94354c0,-8.25306 24.05147,-14.94354 53.71948,-14.94354c29.66801,0 53.71948,6.69048 53.71948,14.94354c0,8.2525 -24.04961,14.94391 -53.71948,14.94391z" fill="#cc0000" stroke="none" stroke-width="1"/><path d="M241.04972,189.69233c-29.66801,0 -53.71948,-6.69048 -53.71948,-14.94336c0,-8.25324 24.05147,-14.94354 53.71948,-14.94354c29.66801,0 53.71948,6.6903 53.71948,14.94354c0,8.25436 -24.05147,14.94391 -53.71948,14.94391z" fill="#cc0000" stroke="none" stroke-width="1"/><path d="M241.04972,189.64576c-29.66801,0 -53.71948,-6.69048 -53.71948,-14.94336c0,-8.25324 24.05147,-14.94354 53.71948,-14.94354c29.66801,0 53.71948,6.69048 53.71948,14.94354c-0.00186,8.2525 -24.05147,14.94391 -53.71948,14.94391z" fill="#cd0000" stroke="none" stroke-width="1"/><path d="M241.04786,189.59733c-29.66801,0 -53.71948,-6.69067 -53.71948,-14.94354c0,-8.25306 24.05147,-14.94336 53.71948,-14.94336c29.66801,0 53.71948,6.6903 53.71948,14.94336c0,8.25436 -24.05147,14.94391 -53.71948,14.94391z" fill="#ce0000" stroke="none" stroke-width="1"/><path d="M241.046,189.55076c-29.66801,0 -53.71948,-6.69067 -53.71948,-14.94354c0,-8.25306 24.05147,-14.94354 53.71948,-14.94354c29.66801,0 53.71948,6.69048 53.71948,14.94354c0,8.2525 -24.04961,14.94391 -53.71948,14.94391z" fill="#cf0000" stroke="none" stroke-width="1"/><path d="M241.046,189.50232c-29.66801,0 -53.71948,-6.69048 -53.71948,-14.94336c0,-8.25324 24.05147,-14.94354 53.71948,-14.94354c29.66801,0 53.71948,6.6903 53.71948,14.94354c0,8.25436 -24.05147,14.94391 -53.71948,14.94391z" fill="#d00000" stroke="none" stroke-width="1"/><path d="M241.046,189.45575c-29.66801,0 -53.71948,-6.69048 -53.71948,-14.94336c0,-8.25324 24.05147,-14.94354 53.71948,-14.94354c29.66801,0 53.71948,6.69048 53.71948,14.94354c0,8.2525 -24.05147,14.94391 -53.71948,14.94391z" fill="#d10000" stroke="none" stroke-width="1"/><path d="M241.04414,189.40732c-29.66801,0 -53.71948,-6.69067 -53.71948,-14.94354c0,-8.25306 24.05147,-14.94354 53.71948,-14.94354c29.66801,0 53.71948,6.69048 53.71948,14.94354c0,8.25436 -24.05147,14.94391 -53.71948,14.94391z" fill="#d20000" stroke="none" stroke-width="1"/><path d="M241.04414,189.36074c-29.66801,0 -53.71948,-6.69067 -53.71948,-14.94354c0,-8.25324 24.05147,-14.94354 53.71948,-14.94354c29.66801,0 53.71948,6.6903 53.71948,14.94354c0,8.2525 -24.05147,14.94391 -53.71948,14.94391z" fill="#d30000" stroke="none" stroke-width="1"/><path d="M241.04227,189.31231c-29.66801,0 -53.71948,-6.69048 -53.71948,-14.94336c0,-8.25324 24.05147,-14.94354 53.71948,-14.94354c29.66801,0 53.71948,6.69048 53.71948,14.94354c0,8.25436 -24.05147,14.94391 -53.71948,14.94391z" fill="#d40000" stroke="none" stroke-width="1"/><path d="M241.04227,189.26574c-29.66801,0 -53.71948,-6.69067 -53.71948,-14.94354c0,-8.25306 24.05147,-14.94336 53.71948,-14.94336c29.66801,0 53.71948,6.6903 53.71948,14.94336c0,8.2525 -24.05147,14.94391 -53.71948,14.94391z" fill="#d50000" stroke="none" stroke-width="1"/><path d="M241.04041,189.2173c-29.66801,0 -53.71948,-6.69067 -53.71948,-14.94354c0,-8.25306 24.05147,-14.94354 53.71948,-14.94354c29.66801,0 53.71948,6.69048 53.71948,14.94354c0,8.25436 -24.04961,14.94391 -53.71948,14.94391z" fill="#d60000" stroke="none" stroke-width="1"/><path d="M241.04041,189.17073c-29.66801,0 -53.71948,-6.69067 -53.71948,-14.94354c0,-8.25324 24.05147,-14.94354 53.71948,-14.94354c29.66801,0 53.71948,6.6903 53.71948,14.94354c0,8.2525 -24.05147,14.94391 -53.71948,14.94391z" fill="#d70000" stroke="none" stroke-width="1"/><path d="M241.03855,189.1223c-29.66801,0 -53.71948,-6.69048 -53.71948,-14.94336c0,-8.25324 24.05147,-14.94354 53.71948,-14.94354c29.66801,0 53.71948,6.69048 53.71948,14.94354c0,8.25436 -24.04961,14.94391 -53.71948,14.94391z" fill="#d80000" stroke="none" stroke-width="1"/><path d="M241.03855,189.07573c-29.66801,0 -53.71948,-6.69067 -53.71948,-14.94336c0,-8.25324 24.05147,-14.94354 53.71948,-14.94354c29.66801,0 53.71948,6.69048 53.71948,14.94354c0,8.2525 -24.05147,14.94391 -53.71948,14.94391z" fill="#d90000" stroke="none" stroke-width="1"/><path d="M241.03855,189.02729c-29.66801,0 -53.71948,-6.69067 -53.71948,-14.94354c0,-8.25306 24.05147,-14.94354 53.71948,-14.94354c29.66801,0 53.71948,6.69048 53.71948,14.94354c-0.00186,8.25436 -24.05147,14.94391 -53.71948,14.94391z" fill="#da0000" stroke="none" stroke-width="1"/><path d="M241.03668,188.98072c-29.66801,0 -53.71948,-6.69048 -53.71948,-14.94336c0,-8.25324 24.05147,-14.94354 53.71948,-14.94354c29.66801,0 53.71948,6.69048 53.71948,14.94354c0,8.2525 -24.05147,14.94391 -53.71948,14.94391z" fill="#db0000" stroke="none" stroke-width="1"/><path d="M241.03668,188.93229c-29.66801,0 -53.71948,-6.69048 -53.71948,-14.94336c0,-8.25324 24.05147,-14.94354 53.71948,-14.94354c29.66801,0 53.71948,6.6903 53.71948,14.94354c0,8.25436 -24.05147,14.94391 -53.71948,14.94391z" fill="#dc0000" stroke="none" stroke-width="1"/><path d="M241.03482,188.88571c-29.66801,0 -53.71948,-6.69067 -53.71948,-14.94336c0,-8.25324 24.05147,-14.94354 53.71948,-14.94354c29.66801,0 53.71948,6.69048 53.71948,14.94354c0,8.2525 -24.05147,14.94391 -53.71948,14.94391z" fill="#dd0000" stroke="none" stroke-width="1"/><path d="M241.03482,188.83728c-29.66801,0 -53.71948,-6.69067 -53.71948,-14.94354c0,-8.25324 24.05147,-14.94354 53.71948,-14.94354c29.66801,0 53.71948,6.6903 53.71948,14.94354c-0.00186,8.25436 -24.05147,14.94391 -53.71948,14.94391z" fill="#de0000" stroke="none" stroke-width="1"/><path d="M241.03296,188.79071c-29.66801,0 -53.71948,-6.69048 -53.71948,-14.94336c0,-8.25306 24.05147,-14.94354 53.71948,-14.94354c29.66801,0 53.71948,6.69048 53.71948,14.94354c0,8.2525 -24.04961,14.94391 -53.71948,14.94391z" fill="#df0000" stroke="none" stroke-width="1"/><path d="M241.03296,188.74227c-29.66801,0 -53.71948,-6.69067 -53.71948,-14.94336c0,-8.25324 24.05147,-14.94354 53.71948,-14.94354c29.66801,0 53.71948,6.69048 53.71948,14.94354c0,8.2525 -24.05147,14.94391 -53.71948,14.94391z" fill="#e00000" stroke="none" stroke-width="1"/><path d="M241.0311,188.69384c-29.66801,0 -53.71948,-6.69067 -53.71948,-14.94354c0,-8.25306 24.05147,-14.94354 53.71948,-14.94354c29.66801,0 53.71948,6.69048 53.71948,14.94354c0,8.25436 -24.04961,14.94391 -53.71948,14.94391z" fill="#e10000" stroke="none" stroke-width="1"/><path d="M241.0311,188.64727c-29.66801,0 -53.71948,-6.69067 -53.71948,-14.94354c0,-8.25324 24.05147,-14.94354 53.71948,-14.94354c29.66801,0 53.71948,6.69048 53.71948,14.94354c0,8.2525 -24.05147,14.94391 -53.71948,14.94391z" fill="#e20000" stroke="none" stroke-width="1"/><path d="M241.02923,188.60069c-29.66801,0 -53.71948,-6.69048 -53.71948,-14.94336c0,-8.25306 24.05147,-14.94354 53.71948,-14.94354c29.66801,0 53.71948,6.69048 53.71948,14.94354c0,8.2525 -24.04961,14.94391 -53.71948,14.94391z" fill="#e30000" stroke="none" stroke-width="1"/><path d="M241.02923,188.55226c-29.66801,0 -53.71948,-6.69067 -53.71948,-14.94336c0,-8.25324 24.05147,-14.94354 53.71948,-14.94354c29.66801,0 53.71948,6.69048 53.71948,14.94354c0,8.2525 -24.05147,14.94391 -53.71948,14.94391z" fill="#e40000" stroke="none" stroke-width="1"/><path d="M241.02923,188.50383c-29.66801,0 -53.71948,-6.69067 -53.71948,-14.94354c0,-8.25324 24.05147,-14.94354 53.71948,-14.94354c29.66801,0 53.71948,6.6903 53.71948,14.94354c-0.00186,8.25436 -24.05147,14.94391 -53.71948,14.94391z" fill="#e50000" stroke="none" stroke-width="1"/><path d="M241.02737,188.45725c-29.66801,0 -53.71948,-6.69067 -53.71948,-14.94354c0,-8.25324 24.05147,-14.94354 53.71948,-14.94354c29.66801,0 53.71948,6.69048 53.71948,14.94354c0,8.2525 -24.05147,14.94391 -53.71948,14.94391z" fill="#e60000" stroke="none" stroke-width="1"/><path d="M241.02737,188.40882c-29.66801,0 -53.71948,-6.69048 -53.71948,-14.94336c0,-8.25324 24.05147,-14.94354 53.71948,-14.94354c29.66801,0 53.71948,6.6903 53.71948,14.94354c-0.00186,8.25436 -24.05147,14.94391 -53.71948,14.94391z" fill="#e70000" stroke="none" stroke-width="1"/><path d="M241.02551,188.36225c-29.66801,0 -53.71948,-6.69067 -53.71948,-14.94336c0,-8.25324 24.05147,-14.94354 53.71948,-14.94354c29.66801,0 53.71948,6.69048 53.71948,14.94354c0,8.2525 -24.05147,14.94391 -53.71948,14.94391z" fill="#e80000" stroke="none" stroke-width="1"/><path d="M241.02551,188.31381c-29.66801,0 -53.71948,-6.69067 -53.71948,-14.94354c0,-8.25324 24.05147,-14.94354 53.71948,-14.94354c29.66801,0 53.71948,6.69048 53.71948,14.94354c0,8.25436 -24.05147,14.94391 -53.71948,14.94391z" fill="#e90000" stroke="none" stroke-width="1"/><path d="M241.02364,188.26724c-29.66801,0 -53.71948,-6.69067 -53.71948,-14.94354c0,-8.25306 24.05147,-14.94354 53.71948,-14.94354c29.66801,0 53.71948,6.69048 53.71948,14.94354c0,8.2525 -24.05147,14.94391 -53.71948,14.94391z" fill="#ea0000" stroke="none" stroke-width="1"/><path d="M241.02364,188.21881c-29.66801,0 -53.71948,-6.69067 -53.71948,-14.94336c0,-8.25324 24.05147,-14.94354 53.71948,-14.94354c29.66801,0 53.71948,6.69048 53.71948,14.94354c-0.00186,8.25436 -24.05147,14.94391 -53.71948,14.94391z" fill="#eb0000" stroke="none" stroke-width="1"/><path d="M241.02178,188.17224c-29.66801,0 -53.71948,-6.69067 -53.71948,-14.94354c0,-8.25306 24.05147,-14.94354 53.71948,-14.94354c29.66801,0 53.71948,6.69048 53.71948,14.94354c0,8.2525 -24.04961,14.94391 -53.71948,14.94391z" fill="#ec0000" stroke="none" stroke-width="1"/><path d="M241.02178,188.1238c-29.66801,0 -53.71948,-6.69067 -53.71948,-14.94354c0,-8.25324 24.05147,-14.94354 53.71948,-14.94354c29.66801,0 53.71948,6.69048 53.71948,14.94354c0,8.25436 -24.05147,14.94391 -53.71948,14.94391z" fill="#ed0000" stroke="none" stroke-width="1"/><path d="M241.01992,188.07723c-29.66801,0 -53.71948,-6.69048 -53.71948,-14.94336c0,-8.25324 24.05147,-14.94354 53.71948,-14.94354c29.66801,0 53.71948,6.6903 53.71948,14.94354c0,8.2525 -24.04961,14.94391 -53.71948,14.94391z" fill="#ee0000" stroke="none" stroke-width="1"/><path d="M241.01992,188.02879c-29.66801,0 -53.71948,-6.69067 -53.71948,-14.94336c0,-8.25324 24.05147,-14.94354 53.71948,-14.94354c29.66801,0 53.71948,6.69048 53.71948,14.94354c0,8.25436 -24.05147,14.94391 -53.71948,14.94391z" fill="#ef0000" stroke="none" stroke-width="1"/><path d="M241.01992,187.98222c-29.66801,0 -53.71948,-6.69067 -53.71948,-14.94354c0,-8.25324 24.05147,-14.94354 53.71948,-14.94354c29.66801,0 53.71948,6.69048 53.71948,14.94354c-0.00186,8.2525 -24.05147,14.94391 -53.71948,14.94391z" fill="#f00000" stroke="none" stroke-width="1"/><path d="M241.01806,187.93379c-29.66801,0 -53.71948,-6.69067 -53.71948,-14.94354c0,-8.25324 24.05147,-14.94354 53.71948,-14.94354c29.66801,0 53.71948,6.69048 53.71948,14.94354c0,8.25436 -24.05147,14.94391 -53.71948,14.94391z" fill="#f10000" stroke="none" stroke-width="1"/><path d="M241.01619,187.88722c-29.66801,0 -53.71948,-6.69048 -53.71948,-14.94336c0,-8.25324 24.05147,-14.94354 53.71948,-14.94354c29.66801,0 53.71948,6.69048 53.71948,14.94354c0,8.2525 -24.04961,14.94391 -53.71948,14.94391z" fill="#f20000" stroke="none" stroke-width="1"/><path d="M241.01619,187.83878c-29.66801,0 -53.71948,-6.69067 -53.71948,-14.94336c0,-8.25324 24.05147,-14.94354 53.71948,-14.94354c29.66801,0 53.71948,6.69048 53.71948,14.94354c0,8.25436 -24.05147,14.94391 -53.71948,14.94391z" fill="#f30000" stroke="none" stroke-width="1"/><path d="M241.01619,187.79221c-29.66801,0 -53.71948,-6.69067 -53.71948,-14.94354c0,-8.25324 24.05147,-14.94354 53.71948,-14.94354c29.66801,0 53.71948,6.69048 53.71948,14.94354c-0.00186,8.2525 -24.05147,14.94391 -53.71948,14.94391z" fill="#f40000" stroke="none" stroke-width="1"/><path d="M241.01433,187.74378c-29.66801,0 -53.71948,-6.69067 -53.71948,-14.94354c0,-8.25306 24.05147,-14.94354 53.71948,-14.94354c29.66801,0 53.71948,6.69048 53.71948,14.94354c0,8.25436 -24.05147,14.94391 -53.71948,14.94391z" fill="#f50000" stroke="none" stroke-width="1"/><path d="M241.01433,187.6972c-29.66801,0 -53.71948,-6.69067 -53.71948,-14.94336c0,-8.25324 24.05147,-14.94354 53.71948,-14.94354c29.66801,0 53.71948,6.69048 53.71948,14.94354c0,8.2525 -24.05147,14.94391 -53.71948,14.94391z" fill="#f60000" stroke="none" stroke-width="1"/><path d="M241.01247,187.64877c-29.66801,0 -53.71948,-6.69067 -53.71948,-14.94354c0,-8.25324 24.05147,-14.94354 53.71948,-14.94354c29.66801,0 53.71948,6.6903 53.71948,14.94354c0,8.25436 -24.05147,14.94391 -53.71948,14.94391z" fill="#f70000" stroke="none" stroke-width="1"/><path d="M241.01247,187.6022c-29.66801,0 -53.71948,-6.69067 -53.71948,-14.94354c0,-8.25324 24.05147,-14.94354 53.71948,-14.94354c29.66801,0 53.71948,6.69048 53.71948,14.94354c0,8.2525 -24.05147,14.94391 -53.71948,14.94391z" fill="#f80000" stroke="none" stroke-width="1"/><path d="M241.0106,187.55376c-29.66801,0 -53.71948,-6.69067 -53.71948,-14.94354c0,-8.25324 24.05147,-14.94354 53.71948,-14.94354c29.66801,0 53.71948,6.69048 53.71948,14.94354c0,8.25436 -24.04961,14.94391 -53.71948,14.94391z" fill="#f90000" stroke="none" stroke-width="1"/><path d="M241.0106,187.50719c-29.66801,0 -53.71948,-6.69067 -53.71948,-14.94336c0,-8.25324 24.05147,-14.94354 53.71948,-14.94354c29.66801,0 53.71948,6.69048 53.71948,14.94354c0,8.2525 -24.05147,14.94391 -53.71948,14.94391z" fill="#fa0000" stroke="none" stroke-width="1"/><path d="M241.00874,187.45876c-29.66801,0 -53.71948,-6.69067 -53.71948,-14.94354c0,-8.25324 24.05147,-14.94354 53.71948,-14.94354c29.66801,0 53.71948,6.69048 53.71948,14.94354c0,8.25436 -24.04961,14.94391 -53.71948,14.94391z" fill="#fb0000" stroke="none" stroke-width="1"/><path d="M241.00874,187.41219c-29.66801,0 -53.71948,-6.69067 -53.71948,-14.94354c0,-8.25324 24.05147,-14.94354 53.71948,-14.94354c29.66801,0 53.71948,6.69048 53.71948,14.94354c0,8.2525 -24.05147,14.94391 -53.71948,14.94391z" fill="#fc0000" stroke="none" stroke-width="1"/><path d="M241.00874,187.36375c-29.66801,0 -53.71948,-6.69067 -53.71948,-14.94354c0,-8.25324 24.05147,-14.94354 53.71948,-14.94354c29.66801,0 53.71948,6.69048 53.71948,14.94354c-0.00186,8.25436 -24.05147,14.94391 -53.71948,14.94391z" fill="#fd0000" stroke="none" stroke-width="1"/><path d="M241.00688,187.31718c-29.66801,0 -53.71948,-6.69067 -53.71948,-14.94336c0,-8.25324 24.05147,-14.94354 53.71948,-14.94354c29.66801,0 53.71948,6.69048 53.71948,14.94354c0,8.2525 -24.05147,14.94391 -53.71948,14.94391z" fill="#fe0000" stroke="none" stroke-width="1"/><path d="M294.72449,172.32483c0,8.25287 -24.04961,14.94354 -53.71948,14.94354c-29.66987,0 -53.71948,-6.69067 -53.71948,-14.94354c0,-8.25324 24.05147,-14.94354 53.71948,-14.94354c29.66801,0 53.71948,6.69142 53.71948,14.94391z" fill="#ff0000" stroke="none" stroke-width="1"/><path d="M294.32398,172.37699c0,7.46171 -24.0198,13.51063 -53.64683,13.51063c-29.62889,0 -53.64683,-6.04891 -53.64683,-13.51063c0,-7.46134 24.01794,-13.50988 53.64683,-13.50988c29.62703,0 53.64683,6.04873 53.64683,13.50951z" fill="#ff9999" stroke="none" stroke-width="1"/><path d="M187.03461,172.146c0,-7.46134 24.01794,-13.50988 53.64683,-13.50988c29.62703,0 53.64683,6.04854 53.64683,13.50988c0,7.46171 -24.0198,13.51063 -53.64683,13.51063c-29.62703,0 -53.64683,-6.05059 -53.64683,-13.51137z" fill="#ff9a9a" stroke="none" stroke-width="1"/><path d="M187.04001,171.91314c0,-7.46134 24.01794,-13.50988 53.64683,-13.50988c29.62889,0 53.64683,6.04854 53.64683,13.50988c0,7.46171 -24.0198,13.51063 -53.64683,13.51063c-29.62889,0 -53.64683,-6.04873 -53.64683,-13.51137z" fill="#ff9a9b" stroke="none" stroke-width="1"/><path d="M187.04541,171.68214c0,-7.46134 24.01794,-13.50988 53.64683,-13.50988c29.62703,0 53.64683,6.04854 53.64683,13.50988c0,7.46171 -24.0198,13.51063 -53.64683,13.51063c-29.62889,0 -53.64683,-6.04873 -53.64683,-13.51137z" fill="#ff9b9c" stroke="none" stroke-width="1"/><path d="M187.05082,171.45115c0,-7.46134 24.01794,-13.50988 53.64683,-13.50988c29.62889,0 53.64683,6.04854 53.64683,13.50988c0,7.46171 -24.0198,13.51063 -53.64683,13.51063c-29.62889,-0.00186 -53.64683,-6.05059 -53.64683,-13.51137z" fill="#ff9c9d" stroke="none" stroke-width="1"/><path d="M187.05622,171.21829c0,-7.46134 24.01794,-13.50988 53.64683,-13.50988c29.62889,0 53.64683,6.04854 53.64683,13.50988c0,7.46171 -24.0198,13.51063 -53.64683,13.51063c-29.62889,0 -53.64683,-6.04873 -53.64683,-13.51137z" fill="#ff9c9e" stroke="none" stroke-width="1"/><path d="M187.06162,170.98729c0,-7.46134 24.01794,-13.50988 53.64683,-13.50988c29.62889,0 53.64683,6.04854 53.64683,13.50988c0,7.46171 -24.0198,13.51063 -53.64683,13.51063c-29.62889,-0.00186 -53.64683,-6.05059 -53.64683,-13.51137z" fill="#ff9d9f" stroke="none" stroke-width="1"/><path d="M187.06702,170.75443c0,-7.46134 24.01794,-13.50988 53.64683,-13.50988c29.62889,0 53.64683,6.04854 53.64683,13.50988c0,7.46171 -24.0198,13.51063 -53.64683,13.51063c-29.62889,0 -53.64683,-6.04873 -53.64683,-13.51137z" fill="#ff9ea0" stroke="none" stroke-width="1"/><path d="M187.07243,170.52344c0,-7.46134 24.01794,-13.50988 53.64683,-13.50988c29.62703,0 53.64683,6.04854 53.64683,13.50988c0,7.46171 -24.0198,13.51063 -53.64683,13.51063c-29.62889,0 -53.64683,-6.04873 -53.64683,-13.51137z" fill="#ff9fa1" stroke="none" stroke-width="1"/><path d="M187.07783,170.29244c0,-7.46153 24.01794,-13.51007 53.64683,-13.51007c29.62703,0 53.64683,6.04854 53.64683,13.51007c0,7.46171 -24.0198,13.51044 -53.64683,13.51044c-29.62889,0 -53.64683,-6.04873 -53.64683,-13.50951z" fill="#ff9fa2" stroke="none" stroke-width="1"/><path d="M187.08342,170.05959c0,-7.46153 24.01794,-13.51007 53.64683,-13.51007c29.62703,0 53.64683,6.04854 53.64683,13.51007c0,7.46171 -24.0198,13.51044 -53.64683,13.51044c-29.62703,0 -53.64683,-6.04873 -53.64683,-13.51137z" fill="#ffa0a3" stroke="none" stroke-width="1"/><path d="M187.08863,169.82859c0,-7.46153 24.01794,-13.51007 53.64683,-13.51007c29.62889,0 53.64683,6.04854 53.64683,13.51007c0,7.46171 -24.0198,13.51044 -53.64683,13.51044c-29.62703,-0.00186 -53.64683,-6.05059 -53.64683,-13.51137z" fill="#ffa1a4" stroke="none" stroke-width="1"/><path d="M187.09422,169.59573c0,-7.46153 24.01794,-13.51007 53.64683,-13.51007c29.62889,0 53.64683,6.04854 53.64683,13.51007c0,7.46171 -24.0198,13.51044 -53.64683,13.51044c-29.62703,0.00186 -53.64683,-6.04686 -53.64683,-13.50951z" fill="#ffa1a5" stroke="none" stroke-width="1"/><path d="M187.09962,169.36474c0,-7.46153 24.01794,-13.51007 53.64683,-13.51007c29.62889,0 53.64683,6.04854 53.64683,13.51007c0,7.46171 -24.0198,13.51044 -53.64683,13.51044c-29.62889,0 -53.64683,-6.04873 -53.64683,-13.50951z" fill="#ffa2a6" stroke="none" stroke-width="1"/><path d="M187.10503,169.13374c0,-7.46153 24.01794,-13.51007 53.64683,-13.51007c29.62889,0 53.64683,6.04854 53.64683,13.51007c0,7.46171 -24.0198,13.51044 -53.64683,13.51044c-29.62889,0 -53.64683,-6.04873 -53.64683,-13.50951z" fill="#ffa3a7" stroke="none" stroke-width="1"/><path d="M187.11043,168.90088c0,-7.46153 24.01794,-13.51007 53.64683,-13.51007c29.62889,0 53.64683,6.04854 53.64683,13.51007c0,7.46171 -24.0198,13.51044 -53.64683,13.51044c-29.62889,0 -53.64683,-6.04873 -53.64683,-13.51137z" fill="#ffa3a8" stroke="none" stroke-width="1"/><path d="M187.11583,168.66989c0,-7.46134 24.01794,-13.51007 53.64683,-13.51007c29.62889,0 53.64683,6.04873 53.64683,13.51007c0,7.46171 -24.0198,13.51044 -53.64683,13.51044c-29.62889,-0.00186 -53.64683,-6.05059 -53.64683,-13.51137z" fill="#ffa4a9" stroke="none" stroke-width="1"/><path d="M187.12123,168.43703c0,-7.46134 24.01794,-13.51007 53.64683,-13.51007c29.62889,0 53.64683,6.04873 53.64683,13.51007c0,7.46171 -24.0198,13.51044 -53.64683,13.51044c-29.62889,0.00186 -53.64683,-6.04686 -53.64683,-13.50951z" fill="#ffa5aa" stroke="none" stroke-width="1"/><path d="M187.12663,168.20603c0,-7.46134 24.01794,-13.51007 53.64683,-13.51007c29.62889,0 53.64683,6.04873 53.64683,13.51007c0,7.46171 -24.0198,13.51044 -53.64683,13.51044c-29.62889,0 -53.64683,-6.04873 -53.64683,-13.50951z" fill="#ffa6ab" stroke="none" stroke-width="1"/><path d="M187.13204,167.97504c0,-7.46134 24.01794,-13.51007 53.64683,-13.51007c29.62703,0 53.64683,6.04873 53.64683,13.51007c0,7.46171 -24.0198,13.51044 -53.64683,13.51044c-29.62889,0 -53.64683,-6.04873 -53.64683,-13.50951z" fill="#ffa6ac" stroke="none" stroke-width="1"/><path d="M187.13744,167.74218c0,-7.46134 24.01794,-13.51007 53.64683,-13.51007c29.62703,0 53.64683,6.04873 53.64683,13.51007c0,7.46171 -24.0198,13.51044 -53.64683,13.51044c-29.62889,0 -53.64683,-6.05059 -53.64683,-13.51137z" fill="#ffa7ad" stroke="none" stroke-width="1"/><path d="M187.14284,167.51118c0,-7.46134 24.01794,-13.51007 53.64683,-13.51007c29.62889,0 53.64683,6.04873 53.64683,13.51007c0,7.46171 -24.0198,13.51044 -53.64683,13.51044c-29.62703,-0.00186 -53.64683,-6.05059 -53.64683,-13.51137z" fill="#ffa8ae" stroke="none" stroke-width="1"/><path d="M187.14843,167.27833c0,-7.46134 24.01794,-13.51007 53.64683,-13.51007c29.62889,0 53.64683,6.04873 53.64683,13.51007c0,7.46171 -24.0198,13.51044 -53.64683,13.51044c-29.62703,0.00186 -53.64683,-6.04686 -53.64683,-13.50951z" fill="#ffa8af" stroke="none" stroke-width="1"/><path d="M187.15383,167.04733c0,-7.46134 24.01794,-13.51007 53.64683,-13.51007c29.62889,0 53.64683,6.04873 53.64683,13.51007c0,7.46171 -24.0198,13.51044 -53.64683,13.51044c-29.62703,0 -53.64683,-6.04873 -53.64683,-13.50951z" fill="#ffa9b0" stroke="none" stroke-width="1"/><path d="M187.15923,166.81633c0,-7.46153 24.01794,-13.51007 53.64683,-13.51007c29.62889,0 53.64683,6.04873 53.64683,13.51007c0,7.46153 -24.0198,13.51044 -53.64683,13.51044c-29.62889,0 -53.64683,-6.04873 -53.64683,-13.50951z" fill="#ffaab1" stroke="none" stroke-width="1"/><path d="M187.16464,166.58348c0,-7.46153 24.01794,-13.51007 53.64683,-13.51007c29.62889,0 53.64683,6.04873 53.64683,13.51007c0,7.46171 -24.0198,13.51044 -53.64683,13.51044c-29.62889,0 -53.64683,-6.05059 -53.64683,-13.51137z" fill="#ffaab2" stroke="none" stroke-width="1"/><path d="M187.17004,166.35248c0,-7.46153 24.01794,-13.51007 53.64683,-13.51007c29.62889,0 53.64683,6.04873 53.64683,13.51007c0,7.46171 -24.0198,13.51044 -53.64683,13.51044c-29.62889,-0.00186 -53.64683,-6.05059 -53.64683,-13.51137z" fill="#ffabb3" stroke="none" stroke-width="1"/><path d="M187.17544,166.11962c0,-7.46153 24.01794,-13.51007 53.64683,-13.51007c29.62889,0 53.64683,6.04873 53.64683,13.51007c0,7.46171 -24.0198,13.51044 -53.64683,13.51044c-29.62889,0.00186 -53.64683,-6.04686 -53.64683,-13.50951z" fill="#ffacb4" stroke="none" stroke-width="1"/><path d="M187.18084,165.88863c0,-7.46153 24.01794,-13.51007 53.64683,-13.51007c29.62889,0 53.64683,6.04873 53.64683,13.51007c0,7.46171 -24.0198,13.51044 -53.64683,13.51044c-29.62889,0 -53.64683,-6.04873 -53.64683,-13.50951z" fill="#ffadb5" stroke="none" stroke-width="1"/><path d="M187.18625,165.65577c0,-7.46153 24.01794,-13.51007 53.64683,-13.51007c29.62703,0 53.64683,6.04873 53.64683,13.51007c0,7.46171 -24.0198,13.51044 -53.64683,13.51044c-29.62889,0 -53.64683,-6.04873 -53.64683,-13.51137z" fill="#ffadb6" stroke="none" stroke-width="1"/><path d="M187.19165,165.42477c0,-7.46153 24.01794,-13.51007 53.64683,-13.51007c29.62703,0 53.64683,6.04873 53.64683,13.51007c0,7.46171 -24.0198,13.51044 -53.64683,13.51044c-29.62889,0 -53.64683,-6.05059 -53.64683,-13.51137z" fill="#ffaeb7" stroke="none" stroke-width="1"/><path d="M187.19705,165.19378c0,-7.46153 24.01794,-13.51007 53.64683,-13.51007c29.62889,0 53.64683,6.04873 53.64683,13.51007c0,7.46171 -24.0198,13.51044 -53.64683,13.51044c-29.62889,-0.00186 -53.64683,-6.05059 -53.64683,-13.51137z" fill="#ffafb8" stroke="none" stroke-width="1"/><path d="M187.20245,164.96092c0,-7.46153 24.01794,-13.51007 53.64683,-13.51007c29.62889,0 53.64683,6.04854 53.64683,13.51007c0,7.46171 -24.0198,13.51025 -53.64683,13.51025c-29.62703,0 -53.64683,-6.04686 -53.64683,-13.50951z" fill="#ffafb8" stroke="none" stroke-width="1"/><path d="M187.20804,164.72992c0,-7.46153 24.01794,-13.51007 53.64683,-13.51007c29.62889,0 53.64683,6.04854 53.64683,13.51007c0,7.46171 -24.0198,13.51025 -53.64683,13.51025c-29.62703,0 -53.64683,-6.04873 -53.64683,-13.50951z" fill="#ffb0b9" stroke="none" stroke-width="1"/><path d="M187.21326,164.49707c0,-7.46153 24.01794,-13.51007 53.64683,-13.51007c29.62889,0 53.64683,6.04854 53.64683,13.51007c0,7.46171 -24.0198,13.51025 -53.64683,13.51025c-29.62703,0.00186 -53.64683,-6.04686 -53.64683,-13.50951z" fill="#ffb1ba" stroke="none" stroke-width="1"/><path d="M187.21885,164.26607c0,-7.46153 24.01794,-13.51007 53.64683,-13.51007c29.62889,0 53.64683,6.04854 53.64683,13.51007c0,7.46171 -24.0198,13.51025 -53.64683,13.51025c-29.62889,0 -53.64683,-6.04873 -53.64683,-13.50951z" fill="#ffb1bb" stroke="none" stroke-width="1"/><path d="M187.22425,164.03321c0,-7.46153 24.01794,-13.51007 53.64683,-13.51007c29.62889,0 53.64683,6.04854 53.64683,13.51007c0,7.46171 -24.0198,13.51025 -53.64683,13.51025c-29.62889,0.00186 -53.64683,-6.04686 -53.64683,-13.50951z" fill="#ffb2bc" stroke="none" stroke-width="1"/><path d="M187.22965,163.80222c0,-7.46153 24.01794,-13.51007 53.64683,-13.51007c29.62889,0 53.64683,6.04854 53.64683,13.51007c0,7.46171 -24.0198,13.51025 -53.64683,13.51025c-29.62889,0 -53.64683,-6.04686 -53.64683,-13.50951z" fill="#ffb3bd" stroke="none" stroke-width="1"/><path d="M187.23505,163.57122c0,-7.46153 24.01794,-13.51007 53.64683,-13.51007c29.62889,0 53.64683,6.04854 53.64683,13.51007c0,7.46171 -24.0198,13.51025 -53.64683,13.51025c-29.62889,0 -53.64683,-6.04873 -53.64683,-13.50951z" fill="#ffb4be" stroke="none" stroke-width="1"/><path d="M187.24046,163.33836c0,-7.46153 24.01794,-13.51007 53.64683,-13.51007c29.62889,0 53.64683,6.04854 53.64683,13.51007c0,7.46171 -24.0198,13.51025 -53.64683,13.51025c-29.62889,0.00186 -53.64683,-6.04686 -53.64683,-13.50951z" fill="#ffb4bf" stroke="none" stroke-width="1"/><path d="M187.24586,163.10737c0,-7.46153 24.01794,-13.51007 53.64683,-13.51007c29.62889,0 53.64683,6.04854 53.64683,13.51007c0,7.46153 -24.0198,13.51007 -53.64683,13.51007c-29.62889,0 -53.64683,-6.04873 -53.64683,-13.50951z" fill="#ffb5c0" stroke="none" stroke-width="1"/><path d="M187.25126,162.87451c0,-7.46153 24.01794,-13.51007 53.64683,-13.51007c29.62889,0 53.64683,6.04854 53.64683,13.51007c0,7.46153 -24.0198,13.51007 -53.64683,13.51007c-29.62889,0.00186 -53.64683,-6.04686 -53.64683,-13.50951z" fill="#ffb6c1" stroke="none" stroke-width="1"/><path d="M187.25666,162.64351c0,-7.46153 24.01794,-13.51007 53.64683,-13.51007c29.62889,0 53.64683,6.04854 53.64683,13.51007c0,7.46153 -24.0198,13.51007 -53.64683,13.51007c-29.62889,0 -53.64683,-6.04686 -53.64683,-13.50951z" fill="#ffb6c2" stroke="none" stroke-width="1"/><path d="M187.26225,162.41252c0,-7.46153 24.01794,-13.51007 53.64683,-13.51007c29.62889,0 53.64683,6.04854 53.64683,13.51007c0,7.46153 -24.01794,13.50951 -53.64683,13.50951c-29.62703,0 -53.64683,-6.04873 -53.64683,-13.50951z" fill="#ffb7c3" stroke="none" stroke-width="1"/><path d="M187.26747,162.17966c0,-7.46153 24.01794,-13.51007 53.64683,-13.51007c29.62889,0 53.64683,6.04854 53.64683,13.51007c0,7.46153 -24.0198,13.51007 -53.64683,13.51007c-29.62703,0.00186 -53.64683,-6.04686 -53.64683,-13.50951z" fill="#ffb8c4" stroke="none" stroke-width="1"/><path d="M187.27306,161.94866c0,-7.46153 24.01794,-13.51007 53.64683,-13.51007c29.62889,0 53.64683,6.04854 53.64683,13.51007c0,7.46153 -24.0198,13.51007 -53.64683,13.51007c-29.62703,0 -53.64683,-6.04873 -53.64683,-13.50951z" fill="#ffb8c5" stroke="none" stroke-width="1"/><path d="M187.27827,161.71581c0,-7.46153 24.01794,-13.51007 53.64683,-13.51007c29.62889,0 53.64683,6.04854 53.64683,13.51007c0,7.46153 -24.0198,13.51007 -53.64683,13.51007c-29.62889,0.00186 -53.64683,-6.04686 -53.64683,-13.50951z" fill="#ffb9c6" stroke="none" stroke-width="1"/><path d="M187.28386,161.48481c0,-7.46153 24.01794,-13.51007 53.64683,-13.51007c29.62889,0 53.64683,6.04854 53.64683,13.51007c0,7.46153 -24.0198,13.51007 -53.64683,13.51007c-29.62889,0 -53.64683,-6.04873 -53.64683,-13.50951z" fill="#ffbac7" stroke="none" stroke-width="1"/><path d="M187.28926,161.25382c0,-7.46153 24.01794,-13.51007 53.64683,-13.51007c29.62889,0 53.64683,6.04873 53.64683,13.51007c0,7.46171 -24.0198,13.51007 -53.64683,13.51007c-29.62889,0 -53.64683,-6.04873 -53.64683,-13.50951z" fill="#ffbbc8" stroke="none" stroke-width="1"/><path d="M187.29467,161.02096c0,-7.46153 24.01794,-13.51007 53.64683,-13.51007c29.62889,0 53.64683,6.04873 53.64683,13.51007c0,7.46171 -24.0198,13.51007 -53.64683,13.51007c-29.62889,0.00186 -53.64683,-6.04686 -53.64683,-13.50951z" fill="#ffbbc9" stroke="none" stroke-width="1"/><path d="M187.30007,160.78996c0,-7.46153 24.01794,-13.51007 53.64683,-13.51007c29.62889,0 53.64683,6.04873 53.64683,13.51007c0,7.46171 -24.0198,13.51007 -53.64683,13.51007c-29.62889,0 -53.64683,-6.04873 -53.64683,-13.50951z" fill="#ffbcca" stroke="none" stroke-width="1"/><path d="M187.30547,160.5571c0,-7.46153 24.01794,-13.51007 53.64683,-13.51007c29.62889,0 53.64683,6.04873 53.64683,13.51007c0,7.46171 -24.0198,13.51007 -53.64683,13.51007c-29.62889,0.00186 -53.64683,-6.04686 -53.64683,-13.50951z" fill="#ffbdcb" stroke="none" stroke-width="1"/><path d="M187.31087,160.32611c0,-7.46153 24.01794,-13.51007 53.64683,-13.51007c29.62889,0 53.64683,6.04873 53.64683,13.51007c0,7.46171 -24.0198,13.51007 -53.64683,13.51007c-29.62889,0 -53.64683,-6.04873 -53.64683,-13.50951z" fill="#ffbdcc" stroke="none" stroke-width="1"/><path d="M187.31627,160.09511c0,-7.46153 24.01794,-13.51007 53.64683,-13.51007c29.62889,0 53.64683,6.04873 53.64683,13.51007c0,7.46171 -24.0198,13.51007 -53.64683,13.51007c-29.62889,0 -53.64683,-6.04873 -53.64683,-13.50951z" fill="#ffbecd" stroke="none" stroke-width="1"/><path d="M187.32168,159.86225c0,-7.46153 24.01794,-13.51007 53.64683,-13.51007c29.62889,0 53.64683,6.04873 53.64683,13.51007c0,7.46171 -24.0198,13.51007 -53.64683,13.51007c-29.62703,0 -53.64683,-6.04686 -53.64683,-13.50951z" fill="#ffbfce" stroke="none" stroke-width="1"/><path d="M187.32708,159.63126c0,-7.46153 24.01794,-13.51007 53.64683,-13.51007c29.62889,0 53.64683,6.04873 53.64683,13.51007c0,7.46171 -24.0198,13.51007 -53.64683,13.51007c-29.62703,0 -53.64683,-6.04873 -53.64683,-13.50951z" fill="#ffbfcf" stroke="none" stroke-width="1"/><path d="M187.33248,159.3984c0,-7.46153 24.01794,-13.51025 53.64683,-13.51025c29.62889,0 53.64683,6.04873 53.64683,13.51025c0,7.46153 -24.0198,13.51007 -53.64683,13.51007c-29.62703,0.00186 -53.64683,-6.04686 -53.64683,-13.50951z" fill="#ffc0d0" stroke="none" stroke-width="1"/><path d="M187.33807,159.16741c0,-7.46153 24.01794,-13.51025 53.64683,-13.51025c29.62889,0 53.64683,6.04873 53.64683,13.51025c0,7.46153 -24.0198,13.51007 -53.64683,13.51007c-29.62889,0 -53.64683,-6.04873 -53.64683,-13.50951z" fill="#ffc1d1" stroke="none" stroke-width="1"/><path d="M187.34347,158.93641c0,-7.46153 24.01794,-13.51025 53.64683,-13.51025c29.62889,0 53.64683,6.04873 53.64683,13.51025c0,7.46153 -24.0198,13.51007 -53.64683,13.51007c-29.62889,0 -53.64683,-6.04873 -53.64683,-13.50951z" fill="#ffc2d2" stroke="none" stroke-width="1"/><path d="M187.34887,158.70355c0,-7.46153 24.01794,-13.51025 53.64683,-13.51025c29.62889,0 53.64683,6.04873 53.64683,13.51025c0,7.46153 -24.0198,13.51007 -53.64683,13.51007c-29.62889,0 -53.64683,-6.04873 -53.64683,-13.50951z" fill="#ffc2d3" stroke="none" stroke-width="1"/><path d="M187.35428,158.47256c0,-7.46153 24.01794,-13.51025 53.64683,-13.51025c29.62889,0 53.64683,6.04873 53.64683,13.51025c0,7.46153 -24.0198,13.51007 -53.64683,13.51007c-29.62889,0 -53.64683,-6.04873 -53.64683,-13.50951z" fill="#ffc3d4" stroke="none" stroke-width="1"/><path d="M187.35968,158.2397c0,-7.46153 24.01794,-13.51025 53.64683,-13.51025c29.62889,0 53.64683,6.04873 53.64683,13.51025c0,7.46153 -24.0198,13.51007 -53.64683,13.51007c-29.62889,0 -53.64683,-6.04686 -53.64683,-13.50951z" fill="#ffc4d5" stroke="none" stroke-width="1"/><path d="M187.36508,158.0087c0,-7.46153 24.01794,-13.51025 53.64683,-13.51025c29.62889,0 53.64683,6.04873 53.64683,13.51025c0,7.46153 -24.0198,13.51007 -53.64683,13.51007c-29.62889,0 -53.64683,-6.04873 -53.64683,-13.50951z" fill="#ffc4d6" stroke="none" stroke-width="1"/><path d="M294.66488,157.77584c0,7.46153 -24.0198,13.51007 -53.64683,13.51007c-29.62889,0 -53.64683,-6.04854 -53.64683,-13.51007c0,-7.46153 24.01794,-13.50951 53.64683,-13.50951c29.62703,0 53.64683,6.04873 53.64683,13.50951z" fill="#ffc5d7" stroke="none" stroke-width="1"/><path d="M226.68274,170.63856l12.04902,-13.40332l0.41169,52.62411c-7.46283,-0.09873 -12.16359,-1.07636 -12.16359,-1.07636l-0.29843,-38.14405z" fill="#ff6666" stroke="none" stroke-width="1"/><path d="M250.78506,170.72277v37.88698c0,0 -4.62457,1.00744 -11.97786,1.16355v-52.26831l11.97823,13.21704z" fill="#ff9999" stroke="none" stroke-width="1"/><path d="M226.633,185.47853" fill="none" stroke="#990000" stroke-width="2.7663"/><path d="M238.91674,186.67822l-12.23326,5.04949l0.05719,-6.14504l12.23307,-5.04949l-0.05775,6.1456z" fill="url(#color-1)" stroke="none" stroke-width="1"/><path d="M238.83943,186.82501l0.02422,-6.27041l12.07268,4.99081l-0.02496,6.27059l-12.07286,-4.99062z" fill="url(#color-2)" stroke="none" stroke-width="1"/><path d="M232.678,149.04366c0,1.71253 -3.22071,3.10093 -7.19327,3.10093c-3.97275,0 -7.19346,-1.38839 -7.19346,-3.10093c0,-1.71291 3.22071,-3.1013 7.19346,-3.1013c3.96977,-0.00019 7.19066,1.38821 7.19066,3.1013z" fill="url(#color-3)" stroke="none" stroke-width="1"/><path d="M231.48204,145.98464c0,1.35598 -2.65403,2.45507 -5.92783,2.45507c-3.2738,0 -5.92783,-1.09909 -5.92783,-2.45507c0,-1.35598 2.65403,-2.45507 5.92783,-2.45507c3.27306,0 5.92764,1.09909 5.92764,2.45507z" fill="url(#color-4)" stroke="none" stroke-width="1"/><path d="M230.19666,143.31367c0,1.0704 -1.96793,1.93831 -4.39599,1.93831c-2.42787,0 -4.39599,-0.86791 -4.39599,-1.93831c0,-1.07059 1.96812,-1.93831 4.39599,-1.93831c2.42918,0 4.39636,0.86772 4.39636,1.93831z" fill="url(#color-5)" stroke="none" stroke-width="1"/><path d="M222.26085,141.2334c0.05142,-3.41799 4.64729,-4.73243 6.17466,-1.59834c2.54654,4.4204 -6.13814,6.50532 -6.1754,1.59834" fill="url(#color-6)" stroke="none" stroke-width="1"/><path d="M283.86585,153.16804c-0.00037,1.71272 -3.22183,3.10037 -7.19402,3.09906c-3.97294,-0.00112 -7.19309,-1.39044 -7.19271,-3.10316c0.00075,-1.71272 3.22145,-3.10037 7.19439,-3.09925c3.97163,0.0013 7.19253,1.39082 7.19253,3.10354z" fill="url(#color-7)" stroke="none" stroke-width="1"/><path d="M282.66989,150.10884c-0.00037,1.35598 -2.65458,2.45433 -5.92839,2.4534c-3.2738,-0.00093 -5.92764,-1.10095 -5.92727,-2.45693c0.00056,-1.35598 2.65496,-2.45433 5.92876,-2.4534c3.27306,0.00112 5.92578,1.10095 5.92578,2.45693z" fill="url(#color-8)" stroke="none" stroke-width="1"/><path d="M281.38637,147.43768c-0.00037,1.0704 -1.9683,1.93775 -4.39636,1.93701c-2.42806,-0.00056 -4.39599,-0.86921 -4.39562,-1.93962c0.00037,-1.07059 1.96849,-1.93775 4.39655,-1.93701c2.42806,0.00075 4.39636,0.86884 4.39636,1.93962z" fill="url(#color-9)" stroke="none" stroke-width="1"/><path d="M273.45056,145.355c0.05235,-3.41817 4.64841,-4.73112 6.17484,-1.59648c2.54468,4.42114 -6.14001,6.50345 -6.1754,1.59648" fill="url(#color-10)" stroke="none" stroke-width="1"/><path d="M211.72262,157.97517c0,1.71272 -3.22052,3.10111 -7.19327,3.10111c-3.97275,0 -7.19346,-1.38839 -7.19346,-3.10111c0,-1.71272 3.22071,-3.1013 7.19346,-3.1013c3.97275,0 7.19253,1.38933 7.19253,3.1013z" fill="url(#color-11)" stroke="none" stroke-width="1"/><path d="M210.5248,154.9169c0,1.35579 -2.65403,2.45507 -5.92783,2.45507c-3.27399,0 -5.92783,-1.09909 -5.92783,-2.45507c0,-1.35617 2.65403,-2.45526 5.92783,-2.45526c3.27492,0.00037 5.92764,1.09946 5.92764,2.45563z" fill="url(#color-12)" stroke="none" stroke-width="1"/><path d="M209.24128,152.24592c0,1.0704 -1.96793,1.93831 -4.39599,1.93831c-2.42806,0 -4.39599,-0.86791 -4.39599,-1.93831c0,-1.07059 1.96793,-1.93831 4.39599,-1.93831c2.42806,0 4.39636,0.86772 4.39636,1.93831z" fill="url(#color-13)" stroke="none" stroke-width="1"/><path d="M201.30547,150.16566c0.05142,-3.41799 4.64729,-4.73243 6.17466,-1.59834c2.54468,4.4204 -6.13814,6.50532 -6.1754,1.59834" fill="url(#color-14)" stroke="none" stroke-width="1"/><path d="M270.41968,163.1558c-0.08923,1.71048 -3.37868,2.92861 -7.34603,2.72034c-3.96716,-0.20771 -7.11075,-1.76264 -7.02133,-3.47331c0.08979,-1.7103 3.37868,-2.92861 7.3464,-2.72053c3.96418,0.20864 7.1087,1.76413 7.01928,3.47425z" fill="url(#color-15)" stroke="none" stroke-width="1"/><path d="M269.38392,160.03923c-0.07098,1.35412 -2.77884,2.31312 -6.04817,2.14155c-3.26933,-0.1712 -5.86225,-1.40814 -5.79128,-2.76189c0.07116,-1.35449 2.77884,-2.31312 6.04817,-2.14192c3.26933,0.17138 5.86244,1.40833 5.79165,2.76263z" fill="url(#color-16)" stroke="none" stroke-width="1"/><path d="M268.24012,157.30454c-0.05589,1.0691 -2.06648,1.83269 -4.49137,1.70583c-2.42452,-0.12723 -4.34402,-1.09686 -4.2885,-2.16577c0.05607,-1.0691 2.06685,-1.8325 4.49137,-1.70564c2.42545,0.12705 4.3442,1.09648 4.28832,2.16577z" fill="url(#color-17)" stroke="none" stroke-width="1"/><path d="M260.4254,154.81165c0.23006,-3.41072 4.88872,-4.48262 6.24973,-1.2729c2.30995,4.54819 -6.46974,6.17447 -6.24992,1.2729" fill="url(#color-18)" stroke="none" stroke-width="1"/><path d="M259.64672,148.01293c0,1.71272 -3.22034,3.10111 -7.19327,3.10111c-3.97275,0 -7.19346,-1.38839 -7.19346,-3.10111c0,-1.71291 3.22071,-3.1013 7.19346,-3.1013c3.97163,0 7.19253,1.38839 7.19253,3.1013z" fill="url(#color-19)" stroke="none" stroke-width="1"/><path d="M258.45076,144.95411c0,1.35598 -2.65384,2.45526 -5.92764,2.45526c-3.2738,0 -5.92801,-1.09909 -5.92801,-2.45526c0,-1.35617 2.65421,-2.45526 5.92801,-2.45526c3.2738,0 5.92764,1.09909 5.92764,2.45526z" fill="url(#color-20)" stroke="none" stroke-width="1"/><path d="M257.16538,142.28313c0,1.0704 -1.9683,1.93831 -4.39636,1.93831c-2.42731,0 -4.39562,-0.86791 -4.39562,-1.93831c0,-1.07059 1.96812,-1.9385 4.39562,-1.9385c2.42731,0 4.39636,0.86791 4.39636,1.9385z" fill="url(#color-21)" stroke="none" stroke-width="1"/><path d="M249.22957,140.20287c0.05142,-3.41799 4.64692,-4.73261 6.17447,-1.59834c2.54468,4.4204 -6.13814,6.50532 -6.1754,1.59834" fill="url(#color-22)" stroke="none" stroke-width="1"/><path d="M226.98136,209.05497l11.71743,-3.36192l12.11944,3.6827c-0.00186,0 -10.33705,1.87777 -23.83724,-0.32041z" fill="#00a7b3" stroke="none" stroke-width="1"/></g></g></svg>