<svg width="140" height="68.683" xmlns="http://www.w3.org/2000/svg"><path d="M29.143 0c-.028 14.588-5.814 12.549-4.841 27.378-11.734-2.247-16.054 9.734-23.128 7.67-.434-.126-2.016.21-.592 1.063 12.01 7.195 24.446 2.966 29.148 1.533 1.026 3.138 29.957 25.023 54.522 26.79 2.718.195 5.442.322 8.138.372.077.928.01 2.163-.289 3.877l3.52-3.855c21.548-.135 40.575-6.057 40.911-25.008.538-.048 1.07.117 1.475.127.69.017 1.1-.08 1.417-.77.866-1.886 1.08-6.986-1.713-7.609-.105-1.213-.816-7.08-4.129-6.55a6.06 6.06 0 00-1.475.457c-.157-.24-.32-.478-.485-.716 1.114-1.434 1.965-3.477 2.292-5.793.662-4.677-1.058-8.704-3.844-8.996-1.355-.142-2.713.628-3.826 1.993-.997-1.835-2.453-2.997-4.078-2.997-1.861 0-3.505 1.52-4.487 3.837-8.593-4.507-19.149-6.496-29.524-4.52a36.019 36.019 0 00-8.189 2.578c-4.967-4-12.982-8.63-24.39-9.445 2.88 2.986 2.959 5.253-.297 6.666 1.733.38 3.435 6.455-1.65 6.787 3.676 4.26.104 6.83-1.712 7.08 3.108 2.452 2.146 6.318-1.296 6.903 2.325 1.985 1.737 3.693 1.37 5.421-3.938 1.533-8.57.901-15.061-3.592C40.033 18.824 34.652 9.395 29.143 0z"/><path d="M103.43 5.09c4.678-2.419 6.909 1.01 8.356 5.138.33.117.66.24.986.365-1.473-5.58-5.192-8.85-9.343-5.502zM122.166 9.617c-2.787 0-5.046 3.673-5.046 8.203 0 4.53 2.26 8.2 5.046 8.2 2.786 0 5.042-3.67 5.042-8.2 0-4.53-2.256-8.203-5.042-8.203zm7.564 1.047c-1.15-.022-2.286.655-3.235 1.8.696 1.488 1.11 3.344 1.11 5.357 0 2.834-.818 5.353-2.092 6.973.602.803 1.372 1.312 2.26 1.405 2.553.268 5.115-2.99 5.721-7.276.607-4.286-.973-7.975-3.527-8.243a2.796 2.796 0 00-.237-.015zm-6.473 3.275c1.303 0 2.358 1.713 2.358 3.823 0 2.109-1.054 3.818-2.358 3.818s-2.362-1.71-2.362-3.818c0-2.11 1.058-3.823 2.362-3.823zm6.904.898c.977 0 1.767 1.375 1.767 3.07 0 1.696-.79 3.07-1.767 3.07-.978 0-1.77-1.374-1.77-3.07 0-1.695.792-3.07 1.77-3.07z" fill="#9dbbbf"/><path d="M117.577 14.407a12.631 12.631 0 00-.456 3.413c0 .744.06 1.462.175 2.147l6.961-1.85s-4.795-2.612-6.68-3.709zm9.945 1.88a14.365 14.365 0 01.029 2.778l3.435-.89-3.464-1.888z" fill="#f9f9f9"/><path d="M29.435 1.593s-.002 4.271-.438 6.948c3.281 5.44 4.875 10.102 5.655 13.862.723 3.487.745 6.191.77 8.003.263.002.53.015.8.04 0 0 1.381-6.43 1.004-10.208-.67-6.702-7.791-18.644-7.791-18.644zm-.606 7.802c-.378 1.567-1.15 3.012-1.87 4.472 3.795 5.406 6.536 11.209 7.007 16.655a7.94 7.94 0 01.872-.099c-.027-1.824-.046-4.46-.76-7.9-.74-3.572-2.224-7.982-5.25-13.13zm-2.161 5.078c-.478 1.006-.9 2.028-1.125 3.11-.174.84-.282 1.9-.343 3.02 2.59 2.84 4.925 5.878 6.89 10.529.403-.21.837-.375 1.299-.493-.436-5.22-3.05-10.866-6.721-16.166zM94.52 20.18c-1.084 2.177-1.642 4.6-6.26 5.147l14.625 11.555a33.64 33.64 0 01.602-2.07L94.522 20.18zm-69.358 1.255c-.114 3.21.084 6.594.084 6.594s-2.994-.588-6.382.044c3.298 2.278 6.413 4.175 11.237 4.877a5.015 5.015 0 011.479-1.522c-1.84-4.383-3.999-7.293-6.418-9.993zm62.66 4.29c.197 3.57-2.21 5.696-4.418 7.93l19.09 4.968c.07-.37.149-.744.237-1.12l-14.91-11.779zM18.08 28.237c-.778.188-1.565.447-2.333.796-.884.402-1.71.92-2.505 1.493 4.614 2.026 9.65 3.96 16.217 3.866.093-.32.21-.617.343-.898-5.036-.78-8.277-2.86-11.722-5.257zm-5.378 2.69c-1.269.964-2.481 2.03-3.771 2.936 5.26 1.78 11.59 3.098 20.247 2.406.015-.458.064-.887.143-1.289-6.761.065-11.938-1.985-16.619-4.052zm70.589 3.297c.689 2.416 1.364 4.835-1.19 8.332l20.01 1.062c-.075-1.42.023-2.895.277-4.417l-19.096-4.976zm-74.966.052c-.839.54-1.717.999-2.669 1.307-1.499.485-4.72.234-4.72.234s7.267 3.983 15.577 4.012c4.313.015 12.686-2.538 12.686-2.538-.01-.148-.018-.29-.022-.434-8.944.708-15.471-.718-20.853-2.581zm73.906 8.871c2.562 2.376 3.209 4.751 2.081 7.127l18.117-4.21a15.55 15.55 0 01-.274-1.858l-19.924-1.06zm20.328 3.487l-18.127 4.213c2.09 1.516 4.215 2.96 4.955 7.448l13.771-9.832a14.038 14.038 0 01-.599-1.83zm.836 2.38L89.688 58.8c3.218 1.943 3.89 4.975 2.942 8.703l11.862-16.52a14.082 14.082 0 01-1.095-1.967z" fill="#b8447f"/><path d="M133.72 25.546c-.241.008-.467.053-.668.12-16.195 5.454-18.055 12.448-20.357 19.12 3.196-4.256 8.539-13.403 23.72-13.215.55-1.692.306-2.748-.592-4.604-.546-1.127-1.38-1.445-2.103-1.42zM112.87 44.903c7.667-2.892 14.24-7.099 25.61-5.546.844-1.888 1.416-4.74-.787-6.885-13.68-.89-20.87 6.794-24.823 12.43z" fill="#c4bb5c"/><path d="M101.6 5.25s2.127-1.421 3.187-1.061c1.73.588 2.77 2.874 3.363 4.602 1.887 5.502.783 19.268 10.68 21.065.798.145 1.33-.895.236-1.298-8.232-3.03-7.23-12.131-9.972-20.18-.687-2.018-2.154-4.385-4.248-4.78-1.193-.225-3.246 1.652-3.246 1.652z" fill="#9dbbbf"/><path d="M57.64 2.713c1.16 2.008.778 3.744-.405 5.338 7.82 1.664 12.406 3.818 16.619 6.349a36.677 36.677 0 015.286-3.15c-2.529-2.33-11.213-8.199-21.5-8.536zm-.605 5.897c1.303 2.193 1.093 4.89-1.08 6.593 1.405.108 3.526.454 5.855 1.12 2.152.616 4.462 1.51 6.499 2.754 1.538-1.497 3.2-2.957 5.034-4.308-4.13-2.464-8.628-4.534-16.307-6.16zm-1.464 7.155c.501 2.267.68 4.515-1.442 6.166 3.124.43 6.438.962 9.773 1.797 1.252-1.396 2.563-2.827 3.98-4.232-1.946-1.165-4.163-2.018-6.232-2.61-2.484-.71-4.767-1.047-6.079-1.12zm-1.756 6.714c1.174 2.125 2.033 4.358-1.318 6.765 1.83.143 3.778.358 5.71.66 1.715-1.673 3.426-3.635 5.257-5.687-3.286-.804-6.558-1.316-9.649-1.738zm-1.197 7.36c.639.84.64 2.265.237 4.06 1.69-.812 3.265-2.02 4.82-3.48a75.327 75.327 0 00-5.057-.58zm-21.355 2.823c-1.95 1.718-1.598 3.27-1.417 4.837C44.924 51.974 71.21 62.875 85.434 63.613c2.426.126 4.727.193 6.914.208-.097-1.534-.835-3.077-3.523-4.793-.702-3.02-1.778-4.9-2.807-6.126-27.79-4.104-47.836-15.106-54.755-20.24zm100.526 19.805a146.356 146.356 0 01-28.886 1.942l-6.626 9.383c23.554-.54 32.204-7.483 35.512-11.325z" fill="#8264a7"/></svg>