<?xml version="1.0" encoding="UTF-8" standalone="no"?>
<!-- Created with Inkscape (http://www.inkscape.org/) -->

<svg
   id="svg2"
   sodipodi:docname="The_Whale-Fish.svg"
   viewBox="0 0 140 68.6829"
   version="1.1"
   inkscape:version="1.2.2 (732a01da63, 2022-12-09)"
   width="140"
   height="68.682899"
   xmlns:inkscape="http://www.inkscape.org/namespaces/inkscape"
   xmlns:sodipodi="http://sodipodi.sourceforge.net/DTD/sodipodi-0.dtd"
   xmlns="http://www.w3.org/2000/svg"
   xmlns:svg="http://www.w3.org/2000/svg"
   xmlns:rdf="http://www.w3.org/1999/02/22-rdf-syntax-ns#"
   xmlns:cc="http://creativecommons.org/ns#"
   xmlns:dc="http://purl.org/dc/elements/1.1/">
  <defs
     id="defs348" />
  <sodipodi:namedview
     id="base"
     bordercolor="#666666"
     inkscape:pageshadow="2"
     inkscape:window-y="-8"
     fit-margin-left="0"
     pagecolor="#ffffff"
     inkscape:window-height="1017"
     inkscape:window-maximized="1"
     inkscape:zoom="0.175"
     inkscape:window-x="1912"
     showgrid="false"
     borderopacity="1.0"
     inkscape:current-layer="g3796"
     inkscape:cx="160"
     inkscape:cy="-462.85714"
     fit-margin-top="0"
     fit-margin-right="0"
     fit-margin-bottom="0"
     inkscape:window-width="1920"
     inkscape:pageopacity="0.0"
     inkscape:document-units="px"
     inkscape:showpageshadow="2"
     inkscape:pagecheckerboard="0"
     inkscape:deskcolor="#d1d1d1" />
  <g
     id="layer1"
     inkscape:label="Layer 1"
     inkscape:groupmode="layer"
     transform="translate(829.26246,-396.67596)">
    <g
       id="g3796"
       transform="matrix(0.75103,0,0,0.75103,-206.46,208.69)">
      <path
         id="path2880"
         d="m -790.46059,250.3051 c -0.037,19.42257 -7.74072,16.70814 -6.44588,36.45271 -15.62392,-2.99116 -21.37634,12.96114 -30.79518,10.21311 -0.57756,-0.1685 -2.68363,0.27864 -0.7875,1.41458 15.99103,9.58046 32.54984,3.94938 38.81092,2.04166 1.36583,4.17851 39.88736,33.31828 72.59586,35.67026 3.61945,0.26023 7.24528,0.42938 10.83533,0.49583 0.10327,1.23645 0.0127,2.88057 -0.38404,5.16256 l 4.68609,-5.13331 c 28.69208,-0.17931 54.02573,-8.06412 54.47373,-33.29806 0.71618,-0.0638 1.42431,0.15584 1.96388,0.16917 0.9193,0.0227 1.4634,-0.10623 1.8861,-1.0257 1.15394,-2.51003 1.43845,-9.30124 -2.27981,-10.13051 -0.14044,-1.61559 -1.08722,-9.4277 -5.49793,-8.72071 -0.71463,0.11453 -1.35248,0.34159 -1.96388,0.60763 -0.20956,-0.32007 -0.42712,-0.63709 -0.64651,-0.95277 1.48371,-1.91006 2.61627,-4.63009 3.05276,-7.71459 0.88109,-6.2267 -1.40909,-11.58821 -5.11869,-11.97771 -1.8049,-0.18953 -3.61245,0.83663 -5.09442,2.65407 -1.32834,-2.44345 -3.26618,-3.99091 -5.42979,-3.99091 -2.47861,0 -4.6668,2.02439 -5.97424,5.10904 -11.44183,-6.00115 -25.49698,-8.64994 -39.3118,-6.0181 -4.04427,0.77046 -7.64879,1.95563 -10.90346,3.43184 -6.61357,-5.32635 -17.28525,-11.49067 -32.47673,-12.57567 3.83505,3.9763 3.94067,6.99484 -0.39374,8.87627 2.30703,0.50549 4.57362,8.59487 -2.19721,9.0368 4.89375,5.67184 0.13783,9.09436 -2.27981,9.42569 4.1376,3.26603 2.85707,8.41411 -1.72573,9.19235 3.09523,2.64303 2.31342,4.91724 1.82295,7.21868 -5.24235,2.04088 -11.41056,1.19984 -20.05257,-4.78331 4.13201,-15.78726 -3.03269,-28.34208 -10.36866,-40.8518 z"
         sodipodi:nodetypes="ccsscsccccsscsccsscscsccccccccc"
         style="fill:#000000;stroke-width:0.155555"
         inkscape:connector-curvature="0" />
      <path
         id="path3722"
         d="m -691.54766,257.08262 c 6.22904,-3.22138 9.19998,1.34364 11.12699,6.83959 0.43985,0.15705 0.87773,0.31973 1.31249,0.48611 -1.96154,-7.4293 -6.9127,-11.78327 -12.4394,-7.32507 z"
         sodipodi:nodetypes="cccc"
         style="fill:#9dbbbf;stroke-width:0.155555"
         inkscape:connector-curvature="0" />
      <path
         id="path3699"
         style="fill:#9dbbbf;stroke-width:0.155555"
         inkscape:connector-curvature="0"
         d="m -666.6001,263.10882 c -3.70998,0 -6.7181,4.89142 -6.7181,10.9229 0,6.03132 3.00812,10.91808 6.7181,10.91808 3.70999,0 6.71313,-4.8866 6.71313,-10.91808 0,-6.03133 -3.00314,-10.9229 -6.71313,-10.9229 z m 10.07218,1.39514 c -1.53066,-0.0296 -3.04421,0.8711 -4.30731,2.3971 0.92603,1.98036 1.47777,4.45104 1.47777,7.13125 0,3.77407 -1.08929,7.12861 -2.78537,9.28475 0.80106,1.06957 1.82606,1.74735 3.00905,1.87148 3.39965,0.35702 6.80988,-3.98096 7.61737,-9.6881 0.80745,-5.70715 -1.29618,-10.61926 -4.69589,-10.97626 -0.10624,-0.0111 -0.2098,-0.0174 -0.31597,-0.0195 z m -8.61929,4.3602 c 1.73568,0 3.14034,2.28121 3.14034,5.08959 0,2.80839 -1.40462,5.08478 -3.14034,5.08478 -1.73573,0 -3.14517,-2.27639 -3.14517,-5.08478 0,-2.80838 1.40947,-5.08959 3.14517,-5.08959 z m 9.19235,1.19582 c 1.30175,0 2.35277,1.83011 2.35277,4.08814 0,2.25819 -1.05102,4.08813 -2.35277,4.08813 -1.30174,0 -2.35759,-1.8301 -2.35759,-4.08813 0,-2.25819 1.05589,-4.08814 2.35759,-4.08814 z" />
      <path
         id="path3712"
         style="fill:#f9f9f9;stroke-width:0.155555"
         inkscape:connector-curvature="0"
         d="m -672.71029,269.48656 c -0.39022,1.384 -0.60763,2.92303 -0.60763,4.54516 0,0.99003 0.0815,1.94645 0.23334,2.85832 l 9.26951,-2.46244 c 0,0 -6.38568,-3.47789 -8.89587,-4.93886 z m 13.2416,2.5035 c 0.0712,0.66357 0.11181,1.34493 0.11181,2.04166 0,0.56317 -0.026,1.11557 -0.0729,1.65759 l 4.57425,-1.18611 c 0,0 -2.23128,-1.21547 -4.61314,-2.51314 z" />
      <path
         id="path2882"
         style="fill:#b8447f;stroke-width:0.155555"
         inkscape:connector-curvature="0"
         d="m -790.07171,252.42531 c 0,0 -0.003,5.68709 -0.58333,9.25069 4.36907,7.24294 6.49193,13.45113 7.52979,18.45813 0.96246,4.64222 0.99165,8.24332 1.0257,10.6555 0.3499,0.003 0.70463,0.0205 1.06458,0.0535 0,0 1.83913,-8.56034 1.33681,-13.5916 -0.89096,-8.92434 -10.37364,-24.82499 -10.37364,-24.82499 z m -0.80694,10.38811 c -0.50248,2.0863 -1.53134,4.01082 -2.48887,5.95479 5.05211,7.19768 8.70173,14.92439 9.32846,22.17589 0.37753,-0.064 0.76502,-0.10848 1.16181,-0.13125 -0.0361,-2.42868 -0.0617,-5.93986 -1.01111,-10.51939 -0.9859,-4.75531 -2.96223,-10.62797 -6.99032,-17.48125 z m -2.87776,6.76196 c -0.63533,1.33928 -1.19842,2.70012 -1.49721,4.14165 -0.23172,1.11791 -0.37539,2.52901 -0.45695,4.02016 3.44943,3.78138 6.55788,7.82627 9.17291,14.01937 0.5379,-0.27888 1.11622,-0.49892 1.73055,-0.65625 -0.58072,-6.94957 -4.06045,-14.46893 -8.94922,-21.52567 z m 90.34778,7.59792 c -1.44421,2.89908 -2.18695,6.12684 -8.33681,6.85406 l 19.47391,15.38592 c 0.23308,-0.90705 0.49869,-1.82715 0.80207,-2.75627 l -11.93883,-19.48324 z m -92.35132,1.67222 c -0.15201,4.27464 0.1118,8.7792 0.1118,8.7792 0,0 -3.98578,-0.78268 -8.49718,0.0583 4.39069,3.03394 8.53887,5.55984 14.9625,6.49441 0.52116,-0.82974 1.18564,-1.50617 1.9687,-2.02703 -2.44967,-5.83502 -5.32464,-9.71082 -8.54586,-13.30476 z m 83.4318,5.71197 c 0.26317,4.75313 -2.94247,7.58438 -5.88183,10.55828 l 25.41765,6.61574 c 0.0941,-0.49356 0.19869,-0.99153 0.31596,-1.49236 l -19.8519,-15.68303 z m -92.86154,3.34443 c -1.03632,0.25041 -2.08319,0.59482 -3.10627,1.05971 -1.17721,0.53496 -2.27592,1.22479 -3.33478,1.98815 6.1427,2.69747 12.8482,5.27222 21.59256,5.14793 0.12349,-0.42616 0.27898,-0.82239 0.45694,-1.19583 -6.7055,-1.03803 -11.02106,-3.80798 -15.60837,-6.99996 z m -7.16034,3.58258 c -1.68979,1.28261 -3.30383,2.70105 -5.02146,3.90831 7.00307,2.36988 15.43321,4.12563 26.9592,3.2035 0.0194,-0.60953 0.085,-1.18018 0.18959,-1.71593 -9.00227,0.0867 -15.89459,-2.64365 -22.12767,-5.39588 z m 93.98931,4.38975 c 0.91675,3.21688 1.81595,6.43702 -1.58479,11.09293 l 26.64342,1.41458 c -0.0993,-1.89061 0.0314,-3.85465 0.36945,-5.88184 l -25.42699,-6.62507 z m -99.81795,0.0684 c -1.11619,0.72047 -2.28556,1.33015 -3.55349,1.74035 -1.99592,0.64564 -6.28535,0.3111 -6.28535,0.3111 0,0 9.67707,5.30427 20.74168,5.34238 5.74215,0.0198 16.89169,-3.3785 16.89169,-3.3785 -0.0137,-0.19754 -0.0237,-0.38758 -0.0292,-0.57847 -11.9099,0.94303 -20.60012,-0.95581 -27.76653,-3.43683 z m 98.40707,11.81252 c 3.41038,3.16289 4.27216,6.32594 2.77074,9.48884 l 24.12188,-5.6062 c -0.17095,-0.80888 -0.29088,-1.63332 -0.36462,-2.47332 l -26.52831,-1.41088 z m 27.06653,4.64237 -24.13588,5.60962 c 2.78335,2.01926 5.61164,3.94051 6.59646,9.91662 l 18.3368,-13.09149 c -0.32236,-0.79535 -0.58677,-1.60502 -0.79722,-2.43537 z m 1.11319,3.16943 -18.2528,13.02772 c 4.28553,2.58749 5.17919,6.6243 3.91811,11.58883 l 15.79348,-21.99545 c -0.5656,-0.84815 -1.04881,-1.72323 -1.45833,-2.62016 z" />
      <path
         id="path3690"
         sodipodi:nodetypes="ssccsscccc"
         style="fill:#c4bb5c;stroke-width:0.155555"
         inkscape:connector-curvature="0"
         d="m -651.21573,284.31871 c -0.3208,0.0112 -0.62135,0.0701 -0.88958,0.16041 -21.56301,7.26207 -24.03944,16.57436 -27.10542,25.4581 4.25629,-5.66749 11.36965,-17.8468 31.58228,-17.59636 0.73341,-2.25228 0.40917,-3.65834 -0.78749,-6.12979 -0.72652,-1.50055 -1.83757,-1.92453 -2.79999,-1.89093 z m -27.7603,25.77387 c 10.2089,-3.85029 18.96057,-9.45182 34.10072,-7.38403 1.12321,-2.51485 1.88408,-6.31272 -1.04903,-9.16746 -18.21547,-1.18533 -27.78831,9.04551 -33.05229,16.55103 z" />
      <path
         id="path3720"
         d="m -693.98303,257.29573 c 0,0 2.8311,-1.89372 4.24261,-1.41421 2.30392,0.78283 3.68867,3.82665 4.47826,6.12824 2.51299,7.32507 1.04276,25.65565 14.22066,28.04808 1.06204,0.19283 1.77146,-1.19209 0.31427,-1.72852 -10.96148,-4.03509 -9.62775,-16.15281 -13.27784,-26.87054 -0.91505,-2.68674 -2.86797,-5.83734 -5.65675,-6.3639 -1.58822,-0.29991 -4.32116,2.19986 -4.32116,2.19986 z"
         sodipodi:nodetypes="cssssssc"
         style="fill:#9dbbbf;stroke-width:0.155555"
         inkscape:connector-curvature="0" />
      <path
         id="path3724"
         sodipodi:nodetypes="cccccccscccccccsccccccccccccscccccccc"
         style="fill:#8264a7;stroke-width:0.155555"
         inkscape:connector-curvature="0"
         d="m -752.51611,253.91708 c 1.54293,2.67306 1.03501,4.98398 -0.53959,7.10699 10.41175,2.21572 16.51836,5.08338 22.12767,8.45347 2.15396,-1.53528 4.48448,-2.95554 7.03885,-4.19516 -3.36683,-3.10114 -14.92999,-10.91574 -28.62675,-11.36514 z m -0.80578,7.85085 c 1.73444,2.92008 1.45544,6.51137 -1.43888,8.77921 1.87148,0.14424 4.69558,0.60481 7.79718,1.49236 2.86455,0.81971 5.94049,2.00852 8.65274,3.66518 2.04803,-1.99297 4.26018,-3.93647 6.70348,-5.73608 -5.50042,-3.28065 -11.48928,-6.03709 -21.7139,-8.20085 z m -1.94925,9.52773 c 0.66687,3.01886 0.90551,6.01204 -1.92017,8.21034 4.15953,0.57272 8.57278,1.28037 13.01309,2.39166 1.66615,-1.85811 3.41194,-3.76334 5.29851,-5.63404 -2.5903,-1.55189 -5.54227,-2.68706 -8.29792,-3.47572 -3.30725,-0.94638 -6.34632,-1.39438 -8.09367,-1.49236 z m -2.33815,8.93958 c 1.56255,2.82923 2.70681,5.80297 -1.75481,9.00756 2.4363,0.19082 5.03064,0.4771 7.60274,0.87985 2.28354,-2.22926 4.56102,-4.84056 6.99996,-7.57365 -4.37591,-1.07044 -8.73269,-1.75217 -12.84789,-2.31388 z m -1.59444,9.79995 c 0.85114,1.11931 0.85142,3.01497 0.31597,5.40553 2.25119,-1.08169 4.34698,-2.68985 6.41663,-4.63257 -2.27825,-0.34156 -4.56553,-0.59777 -6.73256,-0.77292 z m -28.43385,3.75821 c -2.59761,2.28821 -2.12722,4.35553 -1.88611,6.4409 20.0759,19.27324 55.07418,33.78805 74.01453,34.77116 3.2304,0.16759 6.29452,0.25673 9.20697,0.27707 -0.12963,-2.04305 -1.11176,-4.09684 -4.69091,-6.38256 -0.9355,-4.02032 -2.36847,-6.52475 -3.73813,-8.15699 -37.00182,-5.46417 -63.69347,-20.11323 -72.90698,-26.94986 z m 133.85022,26.3712 c -13.48333,2.26021 -26.36653,2.97063 -38.46092,2.5861 l -8.82291,12.49291 c 31.36295,-0.71861 42.88023,-9.9639 47.28399,-15.07917 z" />
    </g>
  </g>
  <metadata
     id="metadata345">
    <rdf:RDF>
      <cc:Work>
        <dc:format>image/svg+xml</dc:format>
        <dc:type
           rdf:resource="http://purl.org/dc/dcmitype/StillImage" />
        <cc:license
           rdf:resource="http://creativecommons.org/licenses/publicdomain/" />
        <dc:publisher>
          <cc:Agent
             rdf:about="http://openclipart.org/">
            <dc:title>Openclipart</dc:title>
          </cc:Agent>
        </dc:publisher>
        <dc:title>Whale-Fish</dc:title>
        <dc:date>2011-05-18T20:27:37</dc:date>
        <dc:description />
        <dc:source>https://openclipart.org/detail/139447/whale-fish-by-rones</dc:source>
        <dc:creator>
          <cc:Agent>
            <dc:title>rones</dc:title>
          </cc:Agent>
        </dc:creator>
        <dc:subject>
          <rdf:Bag>
            <rdf:li>fairy-tale</rdf:li>
            <rdf:li>fish</rdf:li>
            <rdf:li>folklore</rdf:li>
            <rdf:li>ocean</rdf:li>
            <rdf:li>sea</rdf:li>
            <rdf:li>whale</rdf:li>
          </rdf:Bag>
        </dc:subject>
      </cc:Work>
      <cc:License
         rdf:about="http://creativecommons.org/licenses/publicdomain/">
        <cc:permits
           rdf:resource="http://creativecommons.org/ns#Reproduction" />
        <cc:permits
           rdf:resource="http://creativecommons.org/ns#Distribution" />
        <cc:permits
           rdf:resource="http://creativecommons.org/ns#DerivativeWorks" />
      </cc:License>
    </rdf:RDF>
  </metadata>
</svg>
