<svg xmlns="http://www.w3.org/2000/svg" width="134.933" height="100.621" viewBox="0 0 172.714 128.795" xmlns:v="https://vecta.io/nano"><path d="M172.714 13.46c0 2.673-.788 5.23-2.269 7.384 1.192 3.423 1.711 7.019 1.538 10.71-.404 8.788-4.884 16.883-12.018 21.94-2.577 8.672-10.364 14.652-19.479 14.864-1 4-2.884 7.653-5.403 10.749v29.574c6.019 1.884 10.249 7.442 10.249 14.018 0 3.365-2.731 6.096-6.076 6.096h-35.247a12.81 12.81 0 0 1-12.787-12.787V89.895h-3.077c-2.596 7.653-9.826 12.96-18.133 12.96H68.57v5.942c5.807 2 9.922 7.518 9.922 13.883a6.1 6.1 0 0 1-6.096 6.096H37.169c-7.057 0-12.787-5.73-12.787-12.768V59.013a26.67 26.67 0 0 1 1.731-9.441c-4.25 2.461-7.076 7.192-7.076 12.73v20.69a9.53 9.53 0 0 1-9.518 9.518A9.53 9.53 0 0 1 0 82.992a3.4 3.4 0 0 1 3.404-3.404 3.41 3.41 0 0 1 3.404 3.404c0 1.5 1.231 2.731 2.731 2.731s2.731-1.231 2.731-2.731v-20.69c0-11.403 8.249-20.44 19.056-21.267a26.7 26.7 0 0 1 19.613-8.865h57.11c-.019-.212-.038-.404-.038-.615-.173-3.692.346-7.288 1.538-10.71-3.461-5.115-2.942-12.133 1.577-16.652a13.03 13.03 0 0 1 9.288-3.846c2.557 0 5.019.731 7.115 2.096h.019a32.87 32.87 0 0 1 24.959 0 13.02 13.02 0 0 1 7.134-2.096 13.06 13.06 0 0 1 9.288 3.846c2.423 2.481 3.788 5.769 3.788 9.268z" fill="#633"/><path d="M166.599 13.46c0 1.461-.442 2.846-1.269 4.019-1.673.75-2.461 2.692-1.75 4.403 1.231 2.961 1.769 6.096 1.615 9.345-.327 7.076-4.077 13.614-10.076 17.421-.711.461-1.231 1.173-1.442 2.057-1.25 5.384-5.423 9.403-10.634 10.537v-5.807c1.442-.461 2.788-1.288 3.884-2.384 1.192-1.192 1.192-3.134 0-4.327s-3.134-1.192-4.327 0c-.711.711-1.634 1.096-2.615 1.096s-1.923-.385-2.615-1.096c-1.192-1.192-3.134-1.192-4.327 0s-1.192 3.134 0 4.327c1.115 1.115 2.442 1.923 3.884 2.384v5.807c-5.211-1.135-9.384-5.153-10.634-10.557-.192-.865-.731-1.577-1.404-2.038-3-1.904-5.442-4.48-7.192-7.48-1.731-3-2.769-6.403-2.942-9.941a21.76 21.76 0 0 1 1.615-9.345 3.4 3.4 0 0 0-1.731-4.403c-1.923-2.73-1.673-6.538.769-8.98a6.95 6.95 0 0 1 4.961-2.057c1.865 0 3.634.731 4.961 2.057.019.019.058.039.077.077v6.442a3.41 3.41 0 0 0 3.404 3.404 3.4 3.4 0 0 0 3.404-3.404V7.98a26.4 26.4 0 0 1 4.403-.942v12.864a3.41 3.41 0 0 0 3.404 3.404 3.41 3.41 0 0 0 3.404-3.404V7.019c1.5.192 2.961.5 4.384.961v7.038a3.41 3.41 0 0 0 3.404 3.404 3.4 3.4 0 0 0 3.404-3.404V8.576c.019-.019.058-.039.077-.077a6.95 6.95 0 0 1 4.961-2.057c1.865 0 3.634.731 4.961 2.057 1.25 1.327 1.981 3.096 1.981 4.961z" fill="#fc6"/><path d="M154.139 28.478a3.48 3.48 0 0 1 0 6.961 3.48 3.48 0 1 1 0-6.961z" fill="#633"/><path d="M138.506 121.988h-11.48c-.288-6.249-4.442-11.499-10.23-13.306v-19.44a27.64 27.64 0 0 0 11.499-4.115v26.305c0 1.75 1.346 3.23 3.096 3.384 3.827.365 6.788 3.384 7.115 7.172z" fill="#fc6"/><path d="M125.795 28.478a3.48 3.48 0 0 1 0 6.961 3.48 3.48 0 1 1 0-6.961z" fill="#633"/><path d="M133.698 67.436c-2.577 8.884-10.807 15.248-20.306 15.248a3.39 3.39 0 0 0-2.404 1 3.38 3.38 0 0 0-1 2.404v25.382c0 1.75 1.346 3.23 3.096 3.384 3.846.346 6.807 3.365 7.134 7.153h-16.21a5.99 5.99 0 0 1-5.98-5.98V86.511a3.41 3.41 0 0 0-3.404-3.404H67.263c-1.615 0-3.038 1.154-3.346 2.788-1.058 5.884-6.172 10.172-12.172 10.172h-4.846a3.4 3.4 0 0 0-3.404 3.404v12.018c0 1.711 1.288 3.154 2.98 3.365 3.711.461 6.576 3.461 6.903 7.134h-16.21c-3.307 0-5.999-2.692-5.999-5.98V59.013a20.08 20.08 0 0 1 4.557-12.73 19.97 19.97 0 0 1 13.46-7.23l-.058 21.075c0 1.865 1.5 3.404 3.384 3.404h.019a3.42 3.42 0 0 0 3.404-3.384l.077-21.209h7.845v11.21a3.41 3.41 0 0 0 3.404 3.404 3.4 3.4 0 0 0 3.404-3.404v-11.21h7.826v24.498a3.41 3.41 0 0 0 3.404 3.404 3.4 3.4 0 0 0 3.404-3.404V38.958h7.826v11.21a3.41 3.41 0 0 0 3.404 3.404 3.41 3.41 0 0 0 3.404-3.404v-11.21h9.384c1.884 5.826 5.596 10.941 10.672 14.537a20.79 20.79 0 0 0 13.71 13.941zm-63.82 22.459h10.864a12.37 12.37 0 0 1-10.71 6.172h-3.634c1.5-1.788 2.692-3.865 3.48-6.172zm1.788 32.093h-11.48c-.288-6.057-4.288-11.249-9.884-13.191v-5.922h1.442a19.08 19.08 0 0 0 10.037-2.846v11.46c0 1.711 1.269 3.154 2.98 3.365 3.711.461 6.576 3.461 6.903 7.134z" fill="#fc6"/></svg>