<?xml version="1.0" encoding="UTF-8" standalone="no"?>
<!-- Created with Inkscape (http://www.inkscape.org/) -->

<svg
   id="svg2"
   sodipodi:docname="Odysseus-Blue-flower.svg"
   viewBox="0 0 135.97735 140"
   sodipodi:version="0.32"
   version="1.0"
   inkscape:output_extension="org.inkscape.output.svg.inkscape"
   inkscape:version="1.2.2 (732a01da63, 2022-12-09)"
   width="135.97736"
   height="140"
   xmlns:inkscape="http://www.inkscape.org/namespaces/inkscape"
   xmlns:sodipodi="http://sodipodi.sourceforge.net/DTD/sodipodi-0.dtd"
   xmlns="http://www.w3.org/2000/svg"
   xmlns:svg="http://www.w3.org/2000/svg"
   xmlns:rdf="http://www.w3.org/1999/02/22-rdf-syntax-ns#"
   xmlns:cc="http://creativecommons.org/ns#"
   xmlns:dc="http://purl.org/dc/elements/1.1/">
  <defs
     id="defs2191" />
  <sodipodi:namedview
     id="base"
     bordercolor="#666666"
     inkscape:pageshadow="2"
     inkscape:window-y="-8"
     pagecolor="#ffffff"
     inkscape:window-height="1017"
     inkscape:zoom="2.9155299"
     inkscape:window-x="1912"
     borderopacity="1.0"
     inkscape:current-layer="layer1"
     inkscape:cx="119.01782"
     inkscape:cy="122.44772"
     inkscape:window-width="1920"
     inkscape:pageopacity="0.0"
     inkscape:document-units="mm"
     inkscape:showpageshadow="2"
     inkscape:pagecheckerboard="0"
     inkscape:deskcolor="#d1d1d1"
     showgrid="false"
     inkscape:window-maximized="1" />
  <g
     id="layer1"
     inkscape:label="Calque 1"
     inkscape:groupmode="layer"
     transform="translate(-234.44278,-298.20523)">
    <path
       id="path2172"
       style="fill:#0088aa;fill-rule:evenodd;stroke-width:0.572469"
       d="m 294.602,354.08097 c -1.36248,-5.66744 -4.44809,-15.13609 -6.80094,-22.19464 -0.32058,-0.96747 -0.71558,-1.90632 -1.07052,-2.86234 -1.37965,-3.67526 -1.62581,-7.56232 -2.50741,-11.10018 -0.61254,-2.4559 0.26333,-5.48999 1.07052,-7.51653 1.53994,-3.84127 3.04553,-6.26281 5.73042,-8.94769 1.54566,-1.54567 3.23445,-2.23836 5.72469,-2.86235 2.19256,-0.54957 4.75722,-0.36066 7.16159,-0.36066 2.40437,0 5.7247,4.29925 7.16159,5.73042 1.77466,1.77466 2.67344,2.13531 3.93287,4.65418 1.20791,2.41009 0.78428,5.27817 1.43117,7.87145 0.4637,1.83763 0,4.52823 0,6.44601 0,2.65626 -0.79001,5.32396 -1.43117,7.87145 -0.65262,2.61046 -0.80146,5.01483 -1.43118,7.52225 -0.53239,2.13531 -0.89877,3.96721 -1.43117,6.08535 -0.53812,2.14676 -1.3453,2.68488 -2.14676,4.29352 -0.78428,1.56284 -1.04762,3.46344 -1.43117,5.00911 -0.45798,1.82045 -2.42155,2.10668 -3.93859,2.86807 -1.22509,0.61254 -4.1962,-0.16029 -5.00911,-0.36066 -1.48269,-0.3721 -3.3375,-1.47697 -5.01483,-2.14676 z" />
    <path
       id="path3146"
       style="fill:#ffffff;fill-opacity:0.20784;fill-rule:evenodd;stroke-width:0.572469"
       d="m 299.59393,352.87879 c -0.89877,-5.35832 -2.93677,-14.30601 -4.48816,-20.97528 -0.21181,-0.91595 -0.46942,-1.80328 -0.70986,-2.70778 -0.9045,-3.46917 -1.07052,-7.14442 -1.65444,-10.48764 -0.40073,-2.3185 0.17747,-5.18657 0.70987,-7.10435 1.01327,-3.62945 2.00936,-5.91361 3.77829,-8.45537 1.02472,-1.4598 2.13531,-2.11814 3.78403,-2.70778 1.44262,-0.51522 3.1314,-0.33776 4.72287,-0.33776 1.58574,0 3.7783,4.05881 4.72287,5.41556 1.17356,1.67734 1.76893,2.0151 2.59901,4.39657 0.79573,2.27843 0.51522,4.98621 0.94458,7.4421 0.30341,1.73458 0,4.28207 0,6.09107 0,2.50742 -0.52095,5.02629 -0.94458,7.44211 -0.42935,2.46162 -0.53239,4.73432 -0.94457,7.10434 -0.35493,2.02082 -0.59537,3.74968 -0.94458,5.7476 -0.35493,2.03226 -0.88732,2.54176 -1.41972,4.0588 -0.51522,1.4827 -0.68696,3.27453 -0.94458,4.74005 -0.29768,1.71741 -1.59718,1.98647 -2.59901,2.70206 -0.80718,0.58391 -2.77075,-0.14312 -3.30314,-0.33776 -0.97893,-0.34921 -2.19829,-1.3911 -3.30888,-2.02654 z" />
    <path
       id="path4123"
       style="fill:#0088aa;fill-rule:evenodd;stroke-width:0.572469"
       d="m 286.51873,363.32635 c -4.81447,-3.28597 -13.45303,-8.23783 -19.92766,-11.89591 -0.88733,-0.50377 -1.81473,-0.93313 -2.71923,-1.40255 -3.48634,-1.80328 -6.27426,-4.52251 -9.30263,-6.54905 -2.10096,-1.414 -3.48634,-4.25345 -4.24772,-6.29716 -1.4369,-3.88135 -1.94067,-6.68072 -1.75176,-10.47619 0.10877,-2.19256 0.89878,-3.83555 2.32423,-5.97086 1.25943,-1.87197 3.28597,-3.45199 5.07208,-5.06635 1.7861,-1.61437 7.12724,-0.65262 9.15378,-0.5553 2.50742,0.12594 3.41765,-0.21181 6.03956,0.81291 2.51314,0.97892 4.12178,3.38902 6.34296,4.87744 1.57429,1.05906 3.03981,3.36039 4.32214,4.78012 1.78038,1.96929 2.98257,4.48243 4.2191,6.80093 1.26516,2.37003 2.76503,4.25917 3.98439,6.5376 1.03617,1.9464 1.99219,3.54931 3.01691,5.47281 1.0419,1.95212 0.80718,2.8967 1.28806,4.62555 0.46942,1.68879 1.55139,3.27453 2.30133,4.67708 0.8816,1.65443 -0.38356,3.18865 -1.00183,4.76867 -0.49804,1.27661 -3.21727,2.70205 -3.95576,3.09133 -1.3453,0.72131 -3.46344,1.14494 -5.15795,1.76893 z" />
    <path
       id="path4125"
       style="fill:#ffffff;fill-opacity:0.20784;fill-rule:evenodd;stroke-width:0.572469"
       d="m 289.41543,359.09008 c -4.25918,-3.37184 -11.7757,-8.64429 -17.39735,-12.54853 -0.77283,-0.5324 -1.56284,-1.01899 -2.3414,-1.52849 -2.99974,-1.96357 -5.5873,-4.57976 -8.26073,-6.66927 -1.8548,-1.44835 -3.35467,-3.96721 -4.23628,-5.74759 -1.68306,-3.37185 -2.48451,-5.73042 -2.87379,-8.80458 -0.22327,-1.76893 0.16601,-3.00547 0.99037,-4.54541 0.72131,-1.35103 2.09524,-2.35285 3.27452,-3.41764 1.17929,-1.0648 5.53006,0.47515 7.13297,0.84725 1.99792,0.45798 2.66771,0.30914 4.87744,1.51705 2.11814,1.15638 3.7325,3.35467 5.69607,4.88888 1.3911,1.08197 2.86807,3.17149 4.08171,4.51106 1.68306,1.86625 2.98829,4.08743 4.29352,6.15405 1.33385,2.11814 2.7822,3.86989 4.06453,5.90216 1.09342,1.74031 2.07234,3.18293 3.15431,4.90034 1.09914,1.74603 1.04762,2.47879 1.67161,3.96149 0.61254,1.44834 1.68879,2.89097 2.47879,4.14467 0.9274,1.47697 0.14884,2.55322 -0.11449,3.7554 -0.21181,0.96748 -2.15249,1.74603 -2.67916,1.96357 -0.95602,0.39501 -2.56466,0.4408 -3.81264,0.71559 z" />
    <path
       id="path4129"
       style="fill:#0088aa;fill-rule:evenodd;stroke-width:0.572469"
       d="m 290.30275,375.42263 c -5.67317,1.35103 -15.14754,4.41374 -22.21181,6.74369 -0.96747,0.32058 -1.91205,0.71559 -2.86807,1.07052 -3.67525,1.3682 -7.56232,1.59719 -11.10018,2.47307 -2.46162,0.60681 -5.49571,-0.27479 -7.51653,-1.09342 -3.83554,-1.54567 -6.25136,-3.05699 -8.93624,-5.74759 -1.53995,-1.55139 -2.23263,-3.24018 -2.84518,-5.73615 -0.54384,-2.19255 -0.3492,-4.75149 -0.34348,-7.16159 0.0114,-2.40437 4.3107,-5.71324 5.7476,-7.14442 1.78037,-1.76893 2.14103,-2.67343 4.66562,-3.92141 2.41582,-1.20219 5.27817,-0.77284 7.87718,-1.414 1.83763,-0.45225 4.52823,0.0114 6.44601,0.0172 2.65625,0.006 5.31824,0.80719 7.87145,1.45408 2.60474,0.65834 5.00911,0.81863 7.5108,1.44834 2.14103,0.54385 3.96721,0.91595 6.07962,1.44835 2.14676,0.54385 2.68488,1.35103 4.29352,2.15821 1.56284,0.79001 3.46344,1.05334 5.00911,1.44835 1.81473,0.45797 2.09524,2.42727 2.8509,3.94431 0.61254,1.22509 -0.16602,4.1962 -0.37211,5.00911 -0.3721,1.47697 -1.48269,3.32605 -2.15821,5.00338 z" />
    <path
       id="path4131"
       style="fill:#ffffff;fill-opacity:0.20784;fill-rule:evenodd;stroke-width:0.572469"
       d="m 289.11202,370.4307 c -5.35832,0.88733 -14.31174,2.89669 -20.98673,4.43091 -0.91595,0.21182 -1.80328,0.46943 -2.70778,0.70414 -3.47489,0.89878 -7.14442,1.05334 -10.49337,1.62581 -2.3185,0.40073 -5.18657,-0.18891 -7.09862,-0.72703 -3.62945,-1.02472 -5.9136,-2.02082 -8.44964,-3.8012 -1.4598,-1.02472 -2.11242,-2.14104 -2.69634,-3.78402 -0.50949,-1.44835 -0.3263,-3.13714 -0.3263,-4.7286 0.006,-1.58574 4.07025,-3.76685 5.42701,-4.71142 1.68306,-1.16784 2.02081,-1.75748 4.40229,-2.58184 2.28415,-0.79001 4.99193,-0.50377 7.44782,-0.9274 1.73459,-0.29769 4.28207,0.0115 6.08535,0.0172 2.51314,0.006 5.03201,0.5324 7.44211,0.96175 2.46161,0.43508 4.73432,0.54385 7.10434,0.96175 2.02082,0.36066 3.74395,0.60682 5.74759,0.96175 2.02655,0.36065 2.53604,0.89305 4.05309,1.42545 1.47697,0.52094 3.27452,0.69841 4.73432,0.96175 1.71741,0.3034 1.98647,1.60291 2.70205,2.60473 0.57247,0.80718 -0.15456,2.77075 -0.3492,3.30315 -0.35493,0.97892 -1.40255,2.19828 -2.03799,3.30315 z" />
    <path
       id="path4135"
       style="fill:#0088aa;fill-rule:evenodd;stroke-width:0.572469"
       d="m 307.26502,353.51995 c 2.59901,-5.21519 6.32006,-14.45485 9.05647,-21.37028 0.3721,-0.9503 0.67551,-1.9235 1.01327,-2.88525 1.30523,-3.69815 3.61801,-6.83528 5.21519,-10.10981 1.1106,-2.27842 3.73251,-4.04163 5.656,-5.07207 3.64663,-1.95213 6.35441,-2.83945 10.13844,-3.17148 2.1811,-0.18892 3.91569,0.36065 6.22846,1.48842 2.03227,0.98464 3.8699,2.77647 5.71325,4.32786 1.84335,1.54567 1.62581,6.97268 1.80328,8.98777 0.21753,2.5017 0.68123,3.35467 0.0286,6.0968 -0.62972,2.62191 -2.79365,4.54541 -3.96721,6.94978 -0.83008,1.70596 -2.91387,3.46917 -4.13896,4.94041 -1.71168,2.03227 -4.03018,3.56649 -6.15977,5.11215 -2.17538,1.5743 -3.84127,3.32033 -5.93078,4.83737 -1.78611,1.29378 -3.24018,2.45589 -5.00911,3.73823 -1.79183,1.2995 -2.75358,1.19646 -4.40229,1.91204 -1.60864,0.69842 -3.02836,1.98075 -4.32214,2.9196 -1.51705,1.09914 -3.20583,0.0572 -4.85454,-0.33776 -1.33386,-0.32058 -3.11996,-2.81655 -3.61228,-3.49779 -0.89306,-1.23081 -1.60292,-3.2688 -2.4559,-4.86599 z" />
    <path
       id="path4137"
       style="fill:#ffffff;fill-opacity:0.20784;fill-rule:evenodd;stroke-width:0.572469"
       d="m 311.86195,355.80983 c 2.75358,-4.6828 6.94406,-12.84621 10.04111,-18.95446 0.42363,-0.83581 0.80146,-1.68306 1.19647,-2.53032 1.53421,-3.24017 3.77257,-6.15977 5.4728,-9.09081 1.18501,-2.04372 3.46917,-3.86989 5.11215,-4.99193 3.10851,-2.12959 5.34114,-3.24018 8.32943,-4.04736 1.72314,-0.4637 2.99974,-0.25189 4.63701,0.35493 1.43689,0.5324 2.61618,1.75748 3.83554,2.77648 1.21364,1.02472 0.28624,5.5415 0.13739,7.18449 -0.17746,2.03799 0.0573,2.68488 -0.8358,5.03773 -0.85298,2.26125 -2.81083,4.15612 -4.05881,6.30861 -0.8816,1.52849 -2.74785,3.28025 -3.91569,4.66563 -1.60864,1.92349 -3.62946,3.51496 -5.50716,5.09497 -1.91204,1.60864 -3.44626,3.28598 -5.28961,4.83737 -1.56857,1.3224 -2.86235,2.49024 -4.41947,3.79547 -1.57429,1.32813 -2.31277,1.37393 -3.69242,2.19828 -1.34531,0.80146 -2.63336,2.06662 -3.76685,3.02264 -1.33386,1.12204 -2.50742,0.49805 -3.7325,0.40073 -0.99038,-0.0744 -2.02654,-1.88915 -2.31278,-2.38147 -0.52667,-0.89878 -0.79001,-2.48452 -1.23081,-3.68098 z" />
    <path
       id="path4141"
       style="fill:#0088aa;fill-rule:evenodd;stroke-width:0.572469"
       d="m 314.41516,359.93733 c 5.64455,-1.47124 15.05023,-4.72859 22.06298,-7.21311 0.96174,-0.33776 1.89487,-0.74993 2.84517,-1.12204 3.64663,-1.44835 7.52797,-1.76321 11.04866,-2.7135 2.44444,-0.65834 5.4957,0.16601 7.5337,0.93884 3.86989,1.46553 6.32006,2.92532 9.05646,5.55868 1.57429,1.52277 2.2956,3.19438 2.96539,5.67317 0.58965,2.18111 0.44653,4.74578 0.49233,7.15587 0.0401,2.40437 -4.19048,5.80484 -5.59875,7.25891 -1.74031,1.80901 -2.08379,2.71923 -4.57976,4.02446 -2.3872,1.24799 -5.26099,0.88161 -7.84283,1.57429 -1.8319,0.49805 -4.53396,0.0859 -6.44601,0.12022 -2.65625,0.0515 -5.33541,-0.69268 -7.90007,-1.28805 -2.61619,-0.6011 -5.02056,-0.70986 -7.53943,-1.29378 -2.15248,-0.49233 -3.98438,-0.82436 -6.11397,-1.31668 -2.15821,-0.49805 -2.70778,-1.29378 -4.33359,-2.06662 -1.58002,-0.75566 -3.48062,-0.98465 -5.03773,-1.33958 -1.82618,-0.42362 -2.14676,-2.38719 -2.93677,-3.88706 -0.63544,-1.21364 0.0801,-4.20193 0.26906,-5.01484 0.34348,-1.48842 1.414,-3.36039 2.05516,-5.04918 z" />
    <path
       id="path4143"
       style="fill:#ffffff;fill-opacity:0.20784;fill-rule:evenodd;stroke-width:0.572469"
       d="m 315.70895,364.90637 c 5.34114,-1.00182 14.24876,-3.2001 20.8894,-4.87744 0.91023,-0.22899 1.79183,-0.50377 2.69061,-0.75566 3.45199,-0.9732 7.12152,-1.20219 10.45329,-1.84908 2.31278,-0.44652 5.1923,0.0802 7.1158,0.5782 3.65235,0.9503 5.95368,1.9006 8.52407,3.62373 1.48269,0.9961 2.15821,2.09524 2.77647,3.72678 0.54385,1.43689 0.39501,3.1314 0.42935,4.71714 0.0286,1.59147 -3.99011,3.85845 -5.32969,4.82592 -1.65443,1.20219 -1.98074,1.80328 -4.34504,2.67916 -2.26698,0.8358 -4.98048,0.60681 -7.42493,1.08196 -1.72885,0.33204 -4.28207,0.0802 -6.08535,0.10877 -2.51314,0.0458 -5.04345,-0.42935 -7.45927,-0.80718 -2.47307,-0.38355 -4.74577,-0.4408 -7.12152,-0.81291 -2.03227,-0.31485 -3.76113,-0.52667 -5.77049,-0.8358 -2.03227,-0.32058 -2.55322,-0.84153 -4.08171,-1.3453 -1.48842,-0.4866 -3.28597,-0.62972 -4.7515,-0.85871 -1.72313,-0.26333 -2.02081,-1.55711 -2.75357,-2.54749 -0.59537,-0.79573 0.0916,-2.77075 0.27478,-3.30887 0.33203,-0.98465 1.35675,-2.22691 1.9693,-3.34322 z" />
    <path
       id="path4165"
       style="fill:#0088aa;fill-rule:evenodd;stroke-width:0.572469"
       d="m 294.97983,382.75024 c -1.02472,5.74187 -3.53786,15.37653 -5.46136,22.56102 -0.26906,0.98465 -0.60109,1.9464 -0.9045,2.91959 -1.15639,3.74968 -1.16784,7.64247 -1.83763,11.22613 -0.4637,2.49024 0.58965,5.46708 1.52277,7.4421 1.76321,3.74395 3.40619,6.06818 6.25137,8.59277 1.63726,1.45407 3.36039,2.04371 5.88498,2.51314 2.22118,0.4179 4.76867,0.0744 7.16732,-0.0687 2.40437,-0.14312 5.46136,-4.63128 6.80666,-6.1426 1.66589,-1.88342 2.54749,-2.2956 3.65235,-4.88316 1.05907,-2.47879 0.46371,-5.31252 0.96175,-7.94588 0.34349,-1.86052 -0.27478,-4.5225 -0.38928,-6.43455 -0.15456,-2.65053 -1.11059,-5.261 -1.90059,-7.77414 -0.80146,-2.56466 -1.09915,-4.95186 -1.8777,-7.4192 -0.65834,-2.10096 -1.13349,-3.90424 -1.79183,-5.98803 -0.66407,-2.11241 -1.49987,-2.59901 -2.39865,-4.15613 -0.87588,-1.51704 -1.25371,-3.40047 -1.72886,-4.91751 -0.56102,-1.7861 -2.54749,-1.95784 -4.1046,-2.62763 -1.25944,-0.53813 -4.17903,0.40645 -4.98049,0.65834 -1.45407,0.45797 -3.23445,1.67161 -4.87171,2.44444 z" />
    <path
       id="path4167"
       style="fill:#ffffff;fill-opacity:0.20784;fill-rule:evenodd;stroke-width:0.572469"
       d="m 300.03473,383.65474 c -0.57819,5.39839 -2.07806,14.45485 -3.22872,21.20427 -0.1603,0.92167 -0.36638,1.82618 -0.54385,2.74213 -0.70414,3.52068 -0.64117,7.19594 -1.02472,10.56778 -0.26906,2.3414 0.48087,5.1694 1.12776,7.0471 1.23081,3.56648 2.35858,5.78767 4.28208,8.21494 1.10486,1.40255 2.25553,1.98647 3.93286,2.47879 1.47125,0.42935 3.14858,0.14884 4.73432,0.0515 1.58574,-0.0916 3.53214,-4.27635 4.39657,-5.68462 1.06479,-1.74603 1.64298,-2.11814 2.32995,-4.54541 0.65834,-2.3185 0.21754,-5.0091 0.49805,-7.48217 0.20036,-1.75176 -0.25761,-4.27062 -0.36638,-6.07963 -0.14885,-2.50741 -0.82436,-4.99193 -1.38538,-7.3734 -0.57819,-2.433 -0.81291,-4.69425 -1.3682,-7.03565 -0.47515,-1.99792 -0.81863,-3.70388 -1.28806,-5.6789 -0.47515,-2.00937 -1.03617,-2.48452 -1.65443,-3.97294 -0.60682,-1.44262 -0.88733,-3.223 -1.22509,-4.66562 -0.40645,-1.70024 -1.71741,-1.89488 -2.7593,-2.54749 -0.84153,-0.5324 -2.75358,0.30913 -3.28025,0.5324 -0.9503,0.40645 -2.11241,1.52276 -3.17721,2.2269 z" />
    <path
       id="path4171"
       style="fill:#0088aa;fill-rule:evenodd;stroke-width:0.572469"
       d="m 286.68475,372.03934 c -4.81447,3.28597 -13.45303,8.24356 -19.93339,11.89591 -0.88733,0.50377 -1.809,0.93885 -2.71923,1.40255 -3.48061,1.80328 -6.26854,4.52251 -9.2969,6.54905 -2.10669,1.414 -3.49206,4.25345 -4.24772,6.29717 -1.4369,3.88134 -1.9464,6.68644 -1.75748,10.48191 0.11449,2.18683 0.89877,3.82982 2.32995,5.96513 1.25943,1.87198 3.28597,3.45199 5.06635,5.06636 1.7861,1.61436 7.13297,0.65261 9.15379,0.55529 2.50741,-0.12594 3.41764,0.21181 6.03955,-0.81291 2.51314,-0.97892 4.12178,-3.38901 6.34868,-4.87744 1.56857,-1.05906 3.03409,-3.36039 4.32215,-4.78011 1.78038,-1.9693 2.97684,-4.48244 4.2191,-6.80094 1.26515,-2.37002 2.76502,-4.25917 3.97866,-6.5376 1.04189,-1.9464 1.99219,-3.54931 3.02264,-5.47281 1.04189,-1.95212 0.80146,-2.89669 1.28805,-4.62555 0.46943,-1.68879 1.54567,-3.2688 2.29561,-4.67708 0.8816,-1.65443 -0.38356,-3.18865 -0.9961,-4.76294 -0.49805,-1.28233 -3.21728,-2.70206 -3.95576,-3.09706 -1.35103,-0.72131 -3.46344,-1.14494 -5.15795,-1.76893 z" />
    <path
       id="path4173"
       style="fill:#ffffff;fill-opacity:0.20784;fill-rule:evenodd;stroke-width:0.572469"
       d="m 289.57572,376.27561 c -4.25917,3.37185 -11.76997,8.64429 -17.39735,12.54853 -0.76711,0.5324 -1.55711,1.019 -2.33567,1.52849 -3.00547,1.9693 -5.5873,4.58548 -8.26074,6.66927 -1.86052,1.45407 -3.35467,3.96722 -4.24199,5.7476 -1.68306,3.37184 -2.4788,5.73041 -2.86808,8.80457 -0.22326,1.77466 0.1603,3.00547 0.98465,4.54541 0.72704,1.35103 2.10096,2.35285 3.28025,3.41764 1.17356,1.0648 5.52433,-0.47515 7.13297,-0.84725 1.99792,-0.45798 2.66198,-0.30913 4.87744,-1.51704 2.11814,-1.15639 3.72677,-3.35468 5.69034,-4.88317 1.39111,-1.08769 2.8738,-3.1772 4.08744,-4.51678 1.68306,-1.86625 2.98256,-4.08171 4.28779,-6.15405 1.33386,-2.11814 2.7822,-3.86989 4.06453,-5.90216 1.09915,-1.7403 2.07807,-3.18293 3.16004,-4.90034 1.09914,-1.74603 1.04189,-2.47879 1.67161,-3.96148 0.60681,-1.44263 1.68306,-2.89097 2.47306,-4.14468 0.93313,-1.47697 0.14885,-2.55322 -0.10876,-3.74968 -0.21182,-0.9732 -2.15249,-1.75175 -2.67916,-1.96929 -0.96175,-0.39501 -2.57039,-0.4408 -3.81837,-0.71559 z" />
    <path
       id="path4177"
       style="fill:#0088aa;fill-rule:evenodd;stroke-width:0.572469"
       d="m 308.73054,384.77678 c 3.22873,4.85454 8.07182,13.55035 11.64976,20.0765 0.49232,0.89306 0.91022,1.82046 1.3682,2.73641 1.75748,3.50351 4.44236,6.32578 6.43455,9.38277 1.37966,2.11814 4.20765,3.53786 6.23992,4.32214 3.86417,1.4827 6.65782,2.02655 10.45902,1.88343 2.18683,-0.0802 3.84127,-0.84726 5.99375,-2.24981 1.88915,-1.23653 3.49206,-3.24017 5.12933,-5.0091 1.63726,-1.76321 0.74421,-7.1158 0.66979,-9.14234 -0.0973,-2.50741 0.25188,-3.41764 -0.73849,-6.051 -0.94457,-2.52459 -3.3375,-4.16185 -4.79729,-6.40593 -1.03617,-1.58574 -3.32033,-3.07989 -4.72288,-4.37939 -1.95212,-1.80901 -4.44236,-3.03982 -6.74941,-4.30497 -2.35857,-1.29378 -4.22482,-2.81655 -6.48608,-4.05881 -1.93494,-1.0648 -3.52641,-2.03799 -5.43846,-3.09134 -1.93494,-1.06479 -2.87952,-0.84153 -4.60838,-1.3453 -1.68306,-0.49232 -3.25162,-1.59146 -4.64845,-2.35857 -1.64298,-0.90451 -3.18865,0.34348 -4.77439,0.93885 -1.28806,0.48659 -2.74213,3.18865 -3.14858,3.92141 -0.73277,1.33386 -1.17929,3.44627 -1.83191,5.13505 z" />
    <path
       id="path4179"
       style="fill:#ffffff;fill-opacity:0.20784;fill-rule:evenodd;stroke-width:0.572469"
       d="m 313.00689,381.93161 c 3.3146,4.30497 8.49545,11.87874 12.32527,17.55191 0.52667,0.77856 1.00182,1.57429 1.50559,2.3643 1.9235,3.02264 4.51106,5.63882 6.56622,8.34088 1.42545,1.8777 3.92142,3.40047 5.69035,4.31069 3.34895,1.72314 5.7018,2.55322 8.77023,2.97684 1.76893,0.24617 3.00547,-0.12594 4.55113,-0.9274 1.36248,-0.70986 2.38148,-2.07234 3.46344,-3.23445 1.07625,-1.16784 -0.40645,-5.53005 -0.75566,-7.14442 -0.43507,-2.00364 -0.28051,-2.6677 -1.45979,-4.89461 -1.12777,-2.13531 -3.30888,-3.77257 -4.81447,-5.75332 -1.06479,-1.40255 -3.13713,-2.91387 -4.46526,-4.14468 -1.83763,-1.70595 -4.04164,-3.03408 -6.0968,-4.36221 -2.10096,-1.36248 -3.83555,-2.83373 -5.85064,-4.13896 -1.72886,-1.11631 -3.16003,-2.11241 -4.86026,-3.21727 -1.72886,-1.12204 -2.46735,-1.07625 -3.94432,-1.72314 -1.4369,-0.62971 -2.86807,-1.72313 -4.11033,-2.52459 -1.46552,-0.9503 -2.54749,-0.18319 -3.7554,0.063 -0.9732,0.20037 -1.77465,2.12959 -1.99792,2.65626 -0.40645,0.9503 -0.47515,2.55894 -0.76138,3.8012 z" />
    <circle
       id="path2166"
       style="fill:#ffcc00"
       cx="303.00446"
       cy="368.20978"
       r="20.582022" />
  </g>
  <metadata
     id="metadata2188">
    <rdf:RDF>
      <cc:Work>
        <dc:format>image/svg+xml</dc:format>
        <dc:type
           rdf:resource="http://purl.org/dc/dcmitype/StillImage" />
        <cc:license
           rdf:resource="http://creativecommons.org/licenses/publicdomain/" />
        <dc:publisher>
          <cc:Agent
             rdf:about="http://openclipart.org/">
            <dc:title>Openclipart</dc:title>
          </cc:Agent>
        </dc:publisher>
        <dc:title>Blue flower</dc:title>
        <dc:date>2007-12-24T16:32:59</dc:date>
        <dc:description>blue flower</dc:description>
        <dc:source>https://openclipart.org/detail/10312/blue-flower-by-odysseus-10312</dc:source>
        <dc:creator>
          <cc:Agent>
            <dc:title>Odysseus</dc:title>
          </cc:Agent>
        </dc:creator>
        <dc:subject>
          <rdf:Bag>
            <rdf:li>blue</rdf:li>
            <rdf:li>flower</rdf:li>
          </rdf:Bag>
        </dc:subject>
      </cc:Work>
      <cc:License
         rdf:about="http://creativecommons.org/licenses/publicdomain/">
        <cc:permits
           rdf:resource="http://creativecommons.org/ns#Reproduction" />
        <cc:permits
           rdf:resource="http://creativecommons.org/ns#Distribution" />
        <cc:permits
           rdf:resource="http://creativecommons.org/ns#DerivativeWorks" />
      </cc:License>
    </rdf:RDF>
  </metadata>
</svg>
