<svg version="1.0" width="135.977" height="140" xmlns="http://www.w3.org/2000/svg"><g transform="translate(-234.443 -298.205)"><path d="M294.602 354.081c-1.362-5.667-4.448-15.136-6.8-22.195-.322-.967-.717-1.906-1.071-2.862-1.38-3.675-1.626-7.562-2.508-11.1-.612-2.456.263-5.49 1.07-7.517 1.54-3.841 3.046-6.263 5.731-8.947 1.546-1.546 3.235-2.239 5.725-2.863 2.192-.55 4.757-.36 7.161-.36 2.405 0 5.725 4.299 7.162 5.73 1.775 1.775 2.673 2.135 3.933 4.654 1.208 2.41.784 5.278 1.431 7.872.464 1.837 0 4.528 0 6.446 0 2.656-.79 5.324-1.431 7.871-.653 2.61-.802 5.015-1.431 7.522-.533 2.136-.9 3.968-1.432 6.086-.538 2.146-1.345 2.685-2.146 4.293-.785 1.563-1.048 3.464-1.431 5.01-.458 1.82-2.422 2.106-3.94 2.867-1.224.613-4.195-.16-5.008-.36-1.483-.372-3.338-1.477-5.015-2.147z" fill="#08a" fill-rule="evenodd"/><path d="M299.594 352.879c-.899-5.359-2.937-14.306-4.488-20.975-.212-.916-.47-1.804-.71-2.708-.905-3.47-1.07-7.145-1.655-10.488-.4-2.318.178-5.186.71-7.104 1.014-3.63 2.01-5.914 3.779-8.456 1.024-1.46 2.135-2.118 3.784-2.707 1.442-.516 3.131-.338 4.723-.338 1.585 0 3.778 4.059 4.722 5.415 1.174 1.678 1.77 2.015 2.6 4.397.795 2.278.515 4.986.944 7.442.303 1.735 0 4.282 0 6.091 0 2.508-.521 5.026-.945 7.442-.429 2.462-.532 4.735-.944 7.105-.355 2.02-.596 3.75-.945 5.747-.355 2.032-.887 2.542-1.42 4.059-.515 1.483-.686 3.275-.944 4.74-.298 1.717-1.597 1.986-2.599 2.702-.807.584-2.77-.143-3.303-.338-.98-.349-2.198-1.39-3.31-2.026z" fill="#fff" fill-opacity=".208" fill-rule="evenodd"/><path d="M286.519 363.326c-4.815-3.286-13.453-8.237-19.928-11.896-.887-.503-1.815-.933-2.72-1.402-3.485-1.803-6.273-4.523-9.302-6.55-2.1-1.413-3.486-4.253-4.248-6.296-1.436-3.882-1.94-6.681-1.751-10.477.109-2.192.899-3.835 2.324-5.97 1.26-1.872 3.286-3.452 5.072-5.067 1.786-1.614 7.127-.652 9.154-.555 2.507.126 3.417-.212 6.04.813 2.513.979 4.121 3.389 6.342 4.877 1.575 1.06 3.04 3.36 4.322 4.78 1.78 1.97 2.983 4.483 4.22 6.801 1.265 2.37 2.765 4.26 3.984 6.538 1.036 1.946 1.992 3.55 3.017 5.473 1.042 1.952.807 2.896 1.288 4.625.47 1.69 1.551 3.275 2.301 4.677.882 1.655-.383 3.19-1.002 4.77-.498 1.276-3.217 2.701-3.955 3.09-1.346.722-3.464 1.145-5.158 1.77z" fill="#08a" fill-rule="evenodd"/><path d="M289.415 359.09c-4.259-3.372-11.775-8.644-17.397-12.548-.773-.533-1.563-1.02-2.341-1.529-3-1.964-5.588-4.58-8.261-6.67-1.855-1.448-3.355-3.966-4.236-5.747-1.683-3.372-2.485-5.73-2.874-8.804-.223-1.77.166-3.006.99-4.546.722-1.35 2.095-2.353 3.275-3.417 1.18-1.065 5.53.475 7.133.847 1.998.458 2.667.309 4.877 1.517 2.118 1.156 3.733 3.355 5.696 4.889 1.391 1.082 2.868 3.171 4.082 4.51 1.683 1.867 2.988 4.088 4.293 6.155 1.334 2.118 2.783 3.87 4.065 5.902 1.093 1.74 2.072 3.183 3.154 4.9 1.1 1.746 1.048 2.48 1.672 3.962.612 1.448 1.689 2.89 2.479 4.145.927 1.476.149 2.553-.115 3.755-.212.967-2.152 1.746-2.679 1.963-.956.396-2.565.441-3.813.716z" fill="#fff" fill-opacity=".208" fill-rule="evenodd"/><path d="M290.303 375.423c-5.673 1.35-15.148 4.413-22.212 6.743-.968.32-1.912.716-2.868 1.07-3.675 1.369-7.562 1.598-11.1 2.474-2.462.607-5.496-.275-7.517-1.094-3.835-1.545-6.251-3.056-8.936-5.747-1.54-1.551-2.233-3.24-2.845-5.736-.544-2.193-.35-4.752-.344-7.162.012-2.404 4.311-5.713 5.748-7.144 1.78-1.77 2.14-2.674 4.665-3.922 2.416-1.202 5.279-.773 7.878-1.414 1.837-.452 4.528.012 6.446.018 2.656.006 5.318.807 7.871 1.454 2.605.658 5.01.818 7.51 1.448 2.142.544 3.968.916 6.08 1.448 2.147.544 2.685 1.351 4.294 2.159 1.563.79 3.463 1.053 5.01 1.448 1.814.458 2.094 2.427 2.85 3.944.613 1.225-.166 4.196-.372 5.01-.372 1.476-1.483 3.325-2.158 5.003z" fill="#08a" fill-rule="evenodd"/><path d="M289.112 370.43c-5.358.888-14.312 2.897-20.987 4.432-.916.211-1.803.469-2.707.704-3.475.899-7.145 1.053-10.494 1.626-2.318.4-5.186-.19-7.098-.727-3.63-1.025-5.914-2.021-8.45-3.802-1.46-1.024-2.113-2.14-2.696-3.784-.51-1.448-.327-3.137-.327-4.728.006-1.586 4.07-3.767 5.427-4.712 1.683-1.168 2.021-1.757 4.403-2.582 2.284-.79 4.991-.503 7.447-.927 1.735-.298 4.282.012 6.086.017 2.513.006 5.032.533 7.442.962 2.461.435 4.734.544 7.104.962 2.021.36 3.744.607 5.748.962 2.026.36 2.536.893 4.053 1.425 1.477.52 3.274.698 4.734.962 1.718.303 1.987 1.603 2.702 2.604.573.808-.154 2.771-.349 3.304-.355.979-1.403 2.198-2.038 3.303z" fill="#fff" fill-opacity=".208" fill-rule="evenodd"/><path d="M307.265 353.52c2.599-5.215 6.32-14.455 9.056-21.37.373-.95.676-1.924 1.014-2.886 1.305-3.698 3.618-6.835 5.215-10.11 1.11-2.278 3.732-4.041 5.656-5.071 3.647-1.953 6.354-2.84 10.138-3.172 2.181-.189 3.916.36 6.229 1.488 2.032.985 3.87 2.777 5.713 4.328 1.843 1.546 1.626 6.973 1.803 8.988.218 2.502.682 3.355.029 6.097-.63 2.622-2.794 4.545-3.967 6.95-.83 1.706-2.914 3.469-4.14 4.94-1.71 2.032-4.03 3.567-6.159 5.112-2.175 1.575-3.841 3.32-5.93 4.838-1.787 1.293-3.24 2.456-5.01 3.738-1.792 1.3-2.753 1.196-4.402 1.912-1.609.698-3.029 1.98-4.322 2.92-1.517 1.099-3.206.057-4.855-.338-1.334-.32-3.12-2.817-3.612-3.498-.893-1.23-1.603-3.269-2.456-4.866z" fill="#08a" fill-rule="evenodd"/><path d="M311.862 355.81c2.754-4.683 6.944-12.846 10.041-18.955.424-.835.802-1.683 1.197-2.53 1.534-3.24 3.772-6.16 5.472-9.09 1.185-2.044 3.47-3.87 5.112-4.993 3.109-2.13 5.342-3.24 8.33-4.047 1.723-.464 3-.252 4.637.355 1.437.532 2.616 1.757 3.835 2.776 1.214 1.025.287 5.542.138 7.185-.178 2.038.057 2.685-.836 5.038-.853 2.26-2.81 4.156-4.059 6.308-.881 1.529-2.748 3.28-3.915 4.666-1.61 1.923-3.63 3.515-5.508 5.095-1.912 1.608-3.446 3.286-5.29 4.837-1.568 1.323-2.862 2.49-4.419 3.796-1.574 1.328-2.312 1.374-3.692 2.198-1.345.801-2.633 2.067-3.767 3.023-1.334 1.122-2.507.498-3.732.4-.99-.074-2.027-1.889-2.313-2.381-.527-.899-.79-2.485-1.231-3.681z" fill="#fff" fill-opacity=".208" fill-rule="evenodd"/><path d="M314.415 359.937c5.645-1.47 15.05-4.728 22.063-7.213.962-.338 1.895-.75 2.845-1.122 3.647-1.448 7.528-1.763 11.049-2.713 2.444-.659 5.496.166 7.534.939 3.87 1.465 6.32 2.925 9.056 5.558 1.574 1.523 2.296 3.195 2.966 5.673.59 2.181.446 4.746.492 7.156.04 2.405-4.19 5.805-5.599 7.26-1.74 1.808-2.084 2.718-4.58 4.024-2.387 1.248-5.26.881-7.842 1.574-1.832.498-4.534.086-6.447.12-2.656.052-5.335-.693-7.9-1.288-2.616-.601-5.02-.71-7.539-1.294-2.152-.492-3.984-.824-6.114-1.316-2.158-.498-2.708-1.294-4.334-2.067-1.58-.756-3.48-.985-5.037-1.34-1.826-.423-2.147-2.387-2.937-3.887-.636-1.213.08-4.202.269-5.014.343-1.489 1.414-3.36 2.055-5.05z" fill="#08a" fill-rule="evenodd"/><path d="M315.709 364.906c5.341-1.001 14.249-3.2 20.89-4.877.91-.23 1.791-.504 2.69-.756 3.452-.973 7.121-1.202 10.453-1.849 2.313-.446 5.193.08 7.116.578 3.652.95 5.954 1.901 8.524 3.624 1.483.996 2.158 2.095 2.777 3.727.543 1.437.395 3.131.429 4.717.029 1.592-3.99 3.858-5.33 4.826-1.654 1.202-1.98 1.803-4.345 2.68-2.267.835-4.98.606-7.425 1.081-1.729.332-4.282.08-6.085.109-2.513.046-5.044-.43-7.46-.807-2.472-.384-4.745-.441-7.12-.813-2.033-.315-3.762-.527-5.771-.836-2.033-.32-2.554-.842-4.082-1.345-1.488-.487-3.286-.63-4.752-.859-1.723-.263-2.02-1.557-2.753-2.548-.596-.795.091-2.77.275-3.308.332-.985 1.356-2.227 1.969-3.344z" fill="#fff" fill-opacity=".208" fill-rule="evenodd"/><path d="M294.98 382.75c-1.025 5.742-3.538 15.377-5.462 22.561-.269.985-.6 1.947-.904 2.92-1.156 3.75-1.168 7.642-1.838 11.226-.463 2.49.59 5.467 1.523 7.442 1.763 3.744 3.406 6.068 6.251 8.593 1.638 1.454 3.36 2.044 5.885 2.513 2.222.418 4.77.074 7.168-.069 2.404-.143 5.461-4.631 6.806-6.142 1.666-1.884 2.548-2.296 3.653-4.883 1.059-2.48.464-5.313.962-7.946.343-1.86-.275-4.523-.39-6.435-.154-2.65-1.11-5.26-1.9-7.774-.802-2.565-1.1-4.952-1.878-7.42-.658-2.1-1.134-3.903-1.792-5.987-.664-2.113-1.5-2.6-2.399-4.156-.875-1.517-1.253-3.4-1.728-4.918-.561-1.786-2.548-1.958-4.105-2.628-1.26-.538-4.179.407-4.98.659-1.455.458-3.235 1.671-4.872 2.444z" fill="#08a" fill-rule="evenodd"/><path d="M300.035 383.655c-.578 5.398-2.078 14.455-3.229 21.204-.16.922-.366 1.826-.544 2.742-.704 3.52-.641 7.196-1.025 10.568-.269 2.341.481 5.17 1.128 7.047 1.231 3.567 2.359 5.788 4.282 8.215 1.105 1.403 2.256 1.986 3.933 2.479 1.471.43 3.149.149 4.734.051 1.586-.091 3.533-4.276 4.397-5.684 1.065-1.746 1.643-2.119 2.33-4.546.658-2.318.218-5.009.498-7.482.2-1.752-.258-4.27-.366-6.08-.15-2.507-.825-4.992-1.386-7.373-.578-2.433-.813-4.694-1.368-7.036-.475-1.998-.819-3.704-1.288-5.679-.475-2.009-1.036-2.484-1.654-3.972-.607-1.443-.888-3.223-1.226-4.666-.406-1.7-1.717-1.895-2.759-2.548-.841-.532-2.753.31-3.28.533-.95.406-2.112 1.523-3.177 2.227z" fill="#fff" fill-opacity=".208" fill-rule="evenodd"/><path d="M286.685 372.04c-4.815 3.285-13.453 8.243-19.934 11.895-.887.504-1.809.94-2.719 1.403-3.48 1.803-6.268 4.522-9.297 6.549-2.106 1.414-3.492 4.253-4.247 6.297-1.437 3.881-1.947 6.686-1.758 10.482.115 2.187.899 3.83 2.33 5.965 1.26 1.872 3.286 3.452 5.066 5.066 1.786 1.615 7.133.653 9.154.556 2.508-.126 3.418.212 6.04-.813 2.513-.98 4.121-3.39 6.348-4.878 1.569-1.059 3.034-3.36 4.323-4.78 1.78-1.969 2.976-4.482 4.219-6.8 1.265-2.37 2.765-4.26 3.978-6.538 1.042-1.947 1.992-3.55 3.023-5.473 1.042-1.952.801-2.897 1.288-4.626.47-1.688 1.546-3.268 2.296-4.677.881-1.654-.384-3.188-.997-4.763-.498-1.282-3.217-2.702-3.955-3.097-1.351-.721-3.464-1.145-5.158-1.769z" fill="#08a" fill-rule="evenodd"/><path d="M289.576 376.276c-4.26 3.371-11.77 8.644-17.398 12.548-.767.533-1.557 1.02-2.335 1.529-3.006 1.969-5.588 4.585-8.261 6.669-1.86 1.454-3.355 3.967-4.242 5.747-1.683 3.372-2.479 5.73-2.868 8.805-.223 1.775.16 3.006.985 4.545.727 1.352 2.1 2.353 3.28 3.418 1.173 1.065 5.524-.475 7.133-.847 1.998-.458 2.662-.31 4.877-1.517 2.118-1.157 3.727-3.355 5.69-4.883 1.392-1.088 2.874-3.178 4.088-4.517 1.683-1.866 2.983-4.082 4.288-6.154 1.334-2.118 2.782-3.87 4.064-5.902 1.1-1.74 2.078-3.183 3.16-4.9 1.1-1.747 1.042-2.48 1.672-3.962.607-1.443 1.683-2.891 2.473-4.145.933-1.477.149-2.553-.109-3.75-.212-.973-2.152-1.751-2.679-1.969-.962-.395-2.57-.44-3.818-.715z" fill="#fff" fill-opacity=".208" fill-rule="evenodd"/><path d="M308.73 384.777c3.23 4.854 8.072 13.55 11.65 20.076.493.893.91 1.82 1.369 2.737 1.757 3.503 4.442 6.325 6.434 9.382 1.38 2.119 4.208 3.538 6.24 4.323 3.864 1.482 6.658 2.026 10.459 1.883 2.187-.08 3.841-.847 5.994-2.25 1.889-1.236 3.492-3.24 5.13-5.009 1.636-1.763.743-7.116.669-9.142-.097-2.508.252-3.418-.739-6.051-.944-2.525-3.337-4.162-4.797-6.406-1.036-1.586-3.32-3.08-4.723-4.38-1.952-1.809-4.442-3.04-6.75-4.305-2.358-1.293-4.224-2.816-6.485-4.058-1.935-1.065-3.527-2.038-5.439-3.092-1.935-1.064-2.88-.841-4.608-1.345-1.683-.492-3.252-1.591-4.649-2.359-1.643-.904-3.188.344-4.774.94-1.288.486-2.742 3.188-3.149 3.92-.732 1.335-1.179 3.447-1.831 5.136z" fill="#08a" fill-rule="evenodd"/><path d="M313.007 381.932c3.314 4.305 8.495 11.878 12.325 17.552.527.778 1.002 1.574 1.506 2.364 1.923 3.022 4.51 5.639 6.566 8.34 1.425 1.878 3.921 3.401 5.69 4.311 3.35 1.724 5.702 2.554 8.77 2.977 1.77.246 3.006-.126 4.552-.927 1.362-.71 2.381-2.073 3.463-3.235 1.076-1.167-.406-5.53-.756-7.144-.435-2.004-.28-2.668-1.46-4.895-1.127-2.135-3.308-3.772-4.814-5.753-1.065-1.403-3.137-2.914-4.465-4.145-1.838-1.706-4.042-3.034-6.097-4.362-2.1-1.362-3.835-2.834-5.85-4.139-1.73-1.116-3.16-2.112-4.86-3.217-1.73-1.122-2.468-1.076-3.945-1.723-1.437-.63-2.868-1.723-4.11-2.525-1.466-.95-2.548-.183-3.756.063-.973.2-1.774 2.13-1.998 2.656-.406.95-.475 2.56-.761 3.802z" fill="#fff" fill-opacity=".208" fill-rule="evenodd"/><circle cx="303.004" cy="368.21" r="20.582" fill="#fc0"/></g></svg>