<svg width="140" height="140" viewBox="0 0 11.2 11.2" version="1.1" id="prefix__svg1571" xmlns="http://www.w3.org/2000/svg"><defs id="prefix__defs1470"><style id="style1468">.prefix__cls-3{fill:#98856e}.prefix__cls-4{fill:#cbb292}.prefix__cls-5{fill:#ccc}.prefix__cls-6{fill:#f2f2f2}.prefix__cls-7{fill:#849eb4}.prefix__cls-8{fill:#b0d3f0}.prefix__cls-11{fill:#d6d6d6}.prefix__cls-12{fill:#999}</style></defs><g data-name="Layer 11" id="prefix__Layer_11" transform="matrix(.18667 0 0 .18667 -.373 -.373)"><path id="prefix__rect1474" fill="#559264" d="M38 12h18v6H38z"/><path id="prefix__rect1476" fill="#71c285" d="M38 12h15v6H38z"/><path class="prefix__cls-3" id="prefix__rect1478" d="M34 22h24v36H34z"/><path class="prefix__cls-4" id="prefix__rect1480" d="M34 22h21v36H34z"/><path class="prefix__cls-5" id="prefix__rect1482" d="M38 47h8v11h-8z"/><path class="prefix__cls-6" id="prefix__rect1484" d="M38 47h5v11h-5z"/><path class="prefix__cls-5" id="prefix__rect1486" d="M46 47h8v11h-8z"/><path class="prefix__cls-6" id="prefix__rect1488" d="M46 47h5v11h-5z"/><path class="prefix__cls-7" id="prefix__rect1490" d="M48 36h6v6h-6z"/><path class="prefix__cls-8" id="prefix__rect1492" d="M48 36h3v6h-3z"/><path class="prefix__cls-7" id="prefix__rect1494" d="M48 26h6v6h-6z"/><path class="prefix__cls-8" id="prefix__rect1496" d="M48 26h3v6h-3z"/><path class="prefix__cls-7" id="prefix__rect1498" d="M38 26h6v6h-6z"/><path class="prefix__cls-8" id="prefix__rect1500" d="M38 26h3v6h-3z"/><path class="prefix__cls-7" id="prefix__rect1502" d="M38 36h6v6h-6z"/><path class="prefix__cls-8" id="prefix__rect1504" d="M38 36h3v6h-3z"/><path id="prefix__rect1506" fill="#5f443e" d="M2 58h60v4H2z"/><path id="prefix__rect1508" fill="#7f5b53" d="M2 58h57v4H2z"/><path class="prefix__cls-3" id="prefix__rect1510" d="M4 42h30v16H4z"/><path class="prefix__cls-4" id="prefix__rect1512" d="M4 42h27v16H4z"/><path class="prefix__cls-5" d="M14 58v-5a5 5 0 015-5 5 5 0 015 5v5" id="prefix__path1514"/><path class="prefix__cls-6" d="M17.5 48.25A5 5 0 0014 53v5h7v-5a5 5 0 00-3.5-4.75z" id="prefix__path1516"/><path class="prefix__cls-8" id="prefix__rect1518" d="M4 2h15v10H4z"/><path class="prefix__cls-7" id="prefix__rect1520" d="M19 2h15v10H19z"/><path class="prefix__cls-8" id="prefix__rect1522" d="M19 12h15v10H19z"/><path class="prefix__cls-7" id="prefix__rect1524" d="M19 22h15v10H19z"/><path class="prefix__cls-8" id="prefix__rect1526" d="M19 32h15v10H19z"/><path class="prefix__cls-7" id="prefix__rect1528" d="M4 32h15v10H4z"/><path class="prefix__cls-8" id="prefix__rect1530" d="M4 22h15v10H4z"/><path class="prefix__cls-7" id="prefix__rect1532" d="M4 12h15v10H4z"/><path class="prefix__cls-11" transform="rotate(-45 8.997 6.993)" id="prefix__rect1534" d="M6.17 6h5.66v2H6.17z"/><path class="prefix__cls-11" transform="rotate(-45 14 7.001)" id="prefix__rect1536" d="M11.17 6h5.66v2h-5.66z"/><path class="prefix__cls-11" transform="rotate(-45 29.002 7.007)" id="prefix__rect1538" d="M26.17 6h5.66v2h-5.66z"/><path class="prefix__cls-11" transform="rotate(-45 29.004 17.006)" id="prefix__rect1540" d="M26.17 16h5.66v2h-5.66z"/><path class="prefix__cls-11" transform="rotate(-45 28.994 27)" id="prefix__rect1542" d="M26.17 26h5.66v2h-5.66z"/><path class="prefix__cls-11" transform="rotate(-45 24 7)" id="prefix__rect1544" d="M21.17 6h5.66v2h-5.66z"/><path class="prefix__cls-11" transform="rotate(-45 24.001 16.998)" id="prefix__rect1546" d="M21.17 16h5.66v2h-5.66z"/><path class="prefix__cls-11" transform="rotate(-45 24.003 26.998)" id="prefix__rect1548" d="M21.17 26h5.66v2h-5.66z"/><path class="prefix__cls-11" transform="rotate(-45 8.995 27.004)" id="prefix__rect1550" d="M6.17 26h5.66v2H6.17z"/><path class="prefix__cls-11" transform="rotate(-45 14.004 27)" id="prefix__rect1552" d="M11.17 26h5.66v2h-5.66z"/><path class="prefix__cls-11" transform="rotate(-45 28.996 37)" id="prefix__rect1554" d="M26.17 36h5.66v2h-5.66z"/><path class="prefix__cls-11" transform="rotate(-45 24.005 36.997)" id="prefix__rect1556" d="M21.17 36h5.66v2h-5.66z"/><path class="prefix__cls-11" transform="rotate(-45 8.997 37.003)" id="prefix__rect1558" d="M6.17 36h5.66v2H6.17z"/><path class="prefix__cls-11" transform="rotate(-45 14.005 36.999)" id="prefix__rect1560" d="M11.17 36h5.66v2h-5.66z"/><path class="prefix__cls-11" transform="rotate(-45 8.999 16.993)" id="prefix__rect1562" d="M6.17 16h5.66v2H6.17z"/><path class="prefix__cls-11" transform="rotate(-45 14.002 17)" id="prefix__rect1564" d="M11.17 16h5.66v2h-5.66z"/><path class="prefix__cls-12" id="prefix__rect1566" d="M39 18h2v4h-2z"/><path class="prefix__cls-12" id="prefix__rect1568" d="M53 18h2v4h-2z"/></g></svg>