<?xml version="1.0" encoding="UTF-8" standalone="no"?>
<!-- Uploaded to: SVG Repo, www.svgrepo.com, Generator: SVG Repo Mixer Tools -->

<svg
   width="140"
   height="140"
   viewBox="0 0 11.2 11.2"
   version="1.1"
   id="svg1458"
   sodipodi:docname="architecture-city-2-svgrepo-com.svg"
   inkscape:version="1.2.2 (732a01da63, 2022-12-09)"
   xmlns:inkscape="http://www.inkscape.org/namespaces/inkscape"
   xmlns:sodipodi="http://sodipodi.sourceforge.net/DTD/sodipodi-0.dtd"
   xmlns="http://www.w3.org/2000/svg"
   xmlns:svg="http://www.w3.org/2000/svg">
  <sodipodi:namedview
     id="namedview1460"
     pagecolor="#ffffff"
     bordercolor="#000000"
     borderopacity="0.25"
     inkscape:showpageshadow="2"
     inkscape:pageopacity="0.0"
     inkscape:pagecheckerboard="0"
     inkscape:deskcolor="#d1d1d1"
     showgrid="false"
     inkscape:zoom="1.04625"
     inkscape:cx="374.67145"
     inkscape:cy="375.62724"
     inkscape:window-width="1920"
     inkscape:window-height="1017"
     inkscape:window-x="1912"
     inkscape:window-y="-8"
     inkscape:window-maximized="1"
     inkscape:current-layer="svg1458" />
  <defs
     id="defs1433">
    <style
       id="style1431">.cls-1{fill:#98856e;}.cls-2{fill:#cbb292;}.cls-3{fill:#cc4b4c;}.cls-4{fill:#f2f2f2;}.cls-5{fill:#5f443e;}.cls-6{fill:#7f5b53;}.cls-7{fill:#71c285;}</style>
  </defs>
  <title
     id="title1435" />
  <g
     data-name="Layer 21"
     id="Layer_21"
     transform="matrix(0.18666667,0,0,0.18666667,-0.37333334,-0.37333334)">
    <rect
       class="cls-1"
       height="21"
       width="4"
       x="30"
       y="23"
       id="rect1437" />
    <rect
       class="cls-2"
       height="21"
       width="2"
       x="30"
       y="23"
       id="rect1439" />
    <circle
       class="cls-3"
       cx="32"
       cy="13"
       r="11"
       id="circle1441" />
    <path
       class="cls-4"
       d="M 25.77,16 A 6.85,6.85 0 0 1 35,6.77 v 0 z"
       id="path1443" />
    <path
       class="cls-4"
       d="M 29,19.23 38.23,10 v 0 A 6.85,6.85 0 0 1 29,19.23 Z"
       id="path1445" />
    <rect
       class="cls-5"
       height="4"
       width="60"
       x="2"
       y="58"
       id="rect1447" />
    <rect
       class="cls-6"
       height="4"
       width="57"
       x="2"
       y="58"
       id="rect1449" />
    <rect
       class="cls-5"
       height="14"
       width="8"
       x="28"
       y="44"
       id="rect1451" />
    <rect
       class="cls-6"
       height="14"
       width="5"
       x="28"
       y="44"
       id="rect1453" />
    <path
       class="cls-7"
       d="m 49.9,58 a 5,5 0 0 0 -4.9,-4 4.93,4.93 0 0 0 -1.09,0.13 5,5 0 0 0 -9.82,0 A 4.93,4.93 0 0 0 33,54 5.47,5.47 0 0 0 32,54.1 5.47,5.47 0 0 0 31,54 a 4.93,4.93 0 0 0 -1.09,0.13 5,5 0 0 0 -9.82,0 A 4.93,4.93 0 0 0 19,54 5,5 0 0 0 14.1,58"
       id="path1455" />
  </g>
</svg>
