<svg xmlns="http://www.w3.org/2000/svg" width="140.417" height="112.444" viewBox="0 0 11.233 8.996" xmlns:v="https://vecta.io/nano"><style><![CDATA[.B{fill:#1d1d1b}.C{fill:#cbe7f5}]]></style><path d="M2.687 3.8a2.743 2.743 0 0 1 .641-1.21 2.789 2.789 0 0 1 1.128-.767c.102-.029.545-.065.545-.065s0-.336.15-.384a1.581 1.581 0 0 1 .33-.073V.756S5.187.702 5.139.457s.132-.468.474-.457.491.24.424.485a.445.445 0 0 1-.353.288l-.012.516s.395 0 .407.234l.013.257s.903 0 1.473.587a5.144 5.144 0 0 1 .882 1.139 2.049 2.049 0 0 1 .017.293 5.002 5.002 0 0 1 1.805.666c.767.516 1.001.846.959 1.642a2.166 2.166 0 0 1-.972 1.751c-.545.359-1.168.959-3.056 1.103a10.504 10.504 0 0 1-4.465-.612C1.584 7.949.775 7.506.295 6.852a1.759 1.759 0 0 1-.084-1.811c.192-.282.744-.646 1.343-.88A10.153 10.153 0 0 1 2.687 3.8z" class="B"/><path d="M3.249 5.083a1.534 1.534 0 0 1-.246-.852 2.973 2.973 0 0 1 .75-1.63 2.219 2.219 0 0 1 1.475-.61c.604-.036 1.27.082 1.673.347a2.058 2.058 0 0 1 .491.384s-.259 0-.265.031-.017.136 0 .144a3.057 3.057 0 0 1 .504.065c.036.036.432.395.497.756a3.023 3.023 0 0 1 0 .959 17.65 17.65 0 0 0-1.114-.504c-.023.012-.059.113-.042.132s1.139.485 1.151.539-.025.341-.025.341l-1.151-.522c-.042.029-.096.109-.065.132s1.21.527 1.205.564-.155.144-.234.18l-.107.048a10.285 10.285 0 0 0-.936-.527c-.04.017-.125.054-.082.113s.838.462.796.503-.742.157-1.744.138-1.947-.071-2.53-.731zM5.511.169c.205-.025.37.077.336.251s-.397.15-.474.096a.203.203 0 0 1 .138-.347z" class="C"/><path d="M5.294 1.738a.071.071 0 0 1-.079-.082c.013-.061.096-.175.324-.163s.313.067.341.138 0 .084-.071.096-.451 0-.516.012z" fill="#696a9b"/><g class="B"><path d="M7.116 3.231c.266.084.523.194.767.33.017.042.031.138 0 .144-.253-.076-.502-.168-.744-.274-.04-.031-.046-.192-.023-.199zm.031.498a7.84 7.84 0 0 1 .855.37c0 .042.019.096-.023.096a8.03 8.03 0 0 1-.84-.28c-.029-.036-.04-.186.008-.186zM4.27 2.692a.73.73 0 0 1 .359-.324c.265-.113.426-.119.462-.082s.041.086.023.13a2.58 2.58 0 0 0-.46.163c-.127.096-.203.209-.265.228s-.132-.079-.119-.115z"/><path d="M3.951 3.129c.059-.019.347.031.347.09-.063.251-.067.514-.012.767.107.341.33.852.293 1.013-.035.139-.169.23-.311.211a2.16 2.16 0 0 1-.691-.259c-.155-.107-.203-.251-.178-.598s.37-1.162.551-1.224z"/></g><path d="M4.016 3.321c.031 0 .036.025.031.079a3.903 3.903 0 0 0 .138 1.049c.132.42.161.48.113.503a1.82 1.82 0 0 1-.641-.192 1.937 1.937 0 0 1 .023-.742c.067-.361.259-.671.336-.696z" fill="#e6e4da"/><path d="M2.572 4.088c.052 0 .013.84.384 1.224s.93.635 1.793.748a6.905 6.905 0 0 0 2.313-.029 3.936 3.936 0 0 0 1.391-.558.138.138 0 0 0 .054-.107l.031-1.182c.019-.019 1.055.132 1.617.575s.708.708.691 1.193a1.318 1.318 0 0 1-.451.894 1.876 1.876 0 0 1-.347.234l-.852-.637c-.036.006-.119.104-.088.138s.855.575.815.612a2.54 2.54 0 0 1-.318.144L9.13 6.99c-.025 0-.127.077-.096.125s.414.276.395.295a9.506 9.506 0 0 1-2.714.401 13.688 13.688 0 0 1-3.861-.457 8.553 8.553 0 0 1-2.206-.999.905.905 0 0 1 0-1.295 4.492 4.492 0 0 1 1.924-.972z" fill="#92a0d1"/><g class="B"><path d="M9.592 6.15c.073-.021.641.451.629.485s-.059.104-.107.084a4.678 4.678 0 0 1-.618-.449c-.013-.048.054-.107.096-.121z"/><path d="M9.928 6.031c.023 0 .125-.084.167-.079a2.066 2.066 0 0 1 .491.372c-.017.036-.029.102-.096.084s-.562-.378-.562-.378zm.437-.228c.023-.023.042-.102.119-.071s.163.178.138.209-.029.071-.054.054-.203-.192-.203-.192z"/><path d="M9.322 5.137a.493.493 0 0 1 .702.384c.077.457-.733.552-.894.27a.445.445 0 0 1 .192-.654z"/></g><path d="M9.449 5.3a.324.324 0 0 1 .384.288c.023.221-.437.269-.527.096a.27.27 0 0 1 .144-.384z" class="C"/><path d="M7.872 6.372c.173-.048.539-.054.635.228s-.372.562-.646.522a.409.409 0 0 1-.349-.414.537.537 0 0 1 .361-.336z" class="B"/><path d="M7.997 6.522c.123-.012.336.096.27.217s-.318.203-.42.107a.192.192 0 0 1 .15-.324z" class="C"/><path d="M5.468 6.558c.146-.021.754.012.785.311s-.311.612-.821.485a.401.401 0 0 1 .036-.796z" class="B"/><path d="M5.474 6.756a.669.669 0 0 1 .432.127c.102.102.012.274-.259.269s-.491-.316-.173-.395z" class="C"/><path d="M2.944 6.073c.255-.042.888.09.869.497s-.809.491-1.078.257a.416.416 0 0 1 .209-.754z" class="B"/><path d="M2.927 6.288c.167-.019.598.048.641.251s-.318.295-.593.163-.157-.403-.048-.414z" class="C"/><path d="M1.571 4.945c.211-.013.714.019.612.48s-.809.437-.959.127a.418.418 0 0 1 .347-.606z" class="B"/><path d="M1.584 5.143c.167-.042.42.054.347.259s-.305.192-.462.09-.01-.316.115-.349z" class="C"/><path d="M.859 6.827c.054 0 1.084.552 1.978.792a9.957 9.957 0 0 0 2.967.432c1.36 0 2.049-.017 3.002-.251s1.5-.552 1.534-.527a.063.063 0 0 1 .019.09 4.527 4.527 0 0 1-1.985 1.132 9.22 9.22 0 0 1-4.249-.023c-1.571-.397-2.398-.767-2.728-1.038s-.629-.612-.539-.606z" fill="#696a9b"/></svg>