<svg xmlns="http://www.w3.org/2000/svg" width="137.072" height="119.619" viewBox="0 0 175.452 153.113" xmlns:v="https://vecta.io/nano"><path d="M140.314 12.243h7.606v139.682h-7.606z" fill="#c2c7e5"/><path d="M147.92 9.666V6.078h-7.606v3.588h-19.597v7.013h46.788V9.666zm-27.204 12.648h46.788v7.013h-46.788z" fill="#f5bb1b"/><path d="M28.72 12.243h7.606v139.682H28.72z" fill="#c2c7e5"/><path d="M12.269 0l43.212 18.005-2.704 6.482L9.565 6.482z" fill="#f5bb1b"/><path d="M0 41.216h62.696v7.013H0z" fill="#35464e"/><path d="M3.045 48.216h56.618v26.787H3.045z" fill="#e72845"/><path d="M0 75.028h62.696v7.038H0z" fill="#35464e"/><path d="M3.045 48.216h56.618v7.72H3.045z" fill="#c7161e"/><path d="M12.408 48.216h8.301v18.245h-8.301zm29.819 0h8.314v18.245h-8.314zm70.529-7h62.696v7.013h-62.696z" fill="#35464e"/><path d="M115.814 48.216h56.606v26.787h-56.606z" fill="#e72845"/><path d="M112.756 75.028h62.696v7.038h-62.696z" fill="#35464e"/><path d="M115.814 48.216h56.606v7.72h-56.606z" fill="#c7161e"/><path d="M125.164 48.216h8.289v18.245h-8.289zm29.832 0h8.289v18.245h-8.289z" fill="#35464e"/><path d="M129.182 146.404l-6.596 5.496-10.336-12.382 6.583-5.496zm-71.161-12.382l6.596 5.496L54.281 151.9l-6.608-5.496z" fill="#c2c7e5"/><path d="M44.16 105.188a44.413 44.413 0 1 0 88.825 0 44.413 44.413 0 1 0-88.825 0z" fill="#526c78"/><path d="M88.573 153.113a47.963 47.963 0 0 1-47.913-47.925 47.963 47.963 0 0 1 47.913-47.913 47.963 47.963 0 0 1 47.913 47.913 47.963 47.963 0 0 1-47.913 47.925zm0-88.813a40.938 40.938 0 0 0-40.9 40.887c0 22.554 18.346 40.9 40.9 40.9s40.913-18.346 40.913-40.9A40.951 40.951 0 0 0 88.573 64.3z" fill="#263137"/></svg>