<svg width="81.611" height="140" xmlns="http://www.w3.org/2000/svg"><g transform="matrix(.27375 0 0 .27375 -51.455 -15.558)"><path fill="#b3b3b3" stroke="#000" d="M406.45 182.076h12.246v37.755H406.45zM254.409 182.076h13.266v37.755h-13.266zM267.675 150.607H406.45V262.85H267.675z"/><circle fill="#ff0" cx="371.248" cy="191.932" r="14.796"/><circle fill="#ff0" cx="312.063" cy="191.932" r="14.796"/><path fill="#f15a24" stroke="#000" d="M297.267 224.424h93.879v31.633h-93.879z"/></g><path fill="#0032df" stroke="#00187f" d="M48.359 57.934c0 .849-.688 1.537-1.536 1.537H34.811a1.536 1.536 0 01-1.536-1.537v0c0-.849.688-1.536 1.536-1.536h12.012c.849 0 1.536.687 1.536 1.536z" stroke-width=".274"/><path fill="#0071bc" stroke="#00187f" d="M17.551 77.647c0 .79-.64 1.431-1.431 1.431v0c-.79 0-1.432-.64-1.432-1.431V67.361c0-.79.641-1.431 1.432-1.431v0c.79 0 1.431.64 1.431 1.431zM66.537 77.786c0 .713-.578 1.292-1.292 1.292v0a1.292 1.292 0 01-1.292-1.292V67.221c0-.714.578-1.292 1.292-1.292v0c.713 0 1.292.578 1.292 1.292z" stroke-width=".274"/><g transform="matrix(.27375 0 0 .27375 -51.455 -15.558)"><path fill="#ccc" stroke="#00187f" d="M188.462 298.088h53.135v53.134h-53.135z"/><radialGradient id="prefix__a" cx="215.029" cy="380.445" r="23" gradientUnits="userSpaceOnUse"><stop offset="0" stop-color="#fff"/><stop offset=".36" stop-color="#9fd4fa"/><stop offset=".483" stop-color="#93cef9"/><stop offset=".708" stop-color="#72c0f8"/><stop offset="1" stop-color="#3fa9f5"/></radialGradient><path fill="url(#prefix__a)" stroke="#00187f" d="M200.743 351.223h28.571v58.445h-28.571z"/><g fill="red" stroke="#00187f"><path d="M203.933 443.102l5.731-5.73a8.656 8.656 0 01-3.318-6.814 8.673 8.673 0 018.674-8.674 8.673 8.673 0 018.674 8.674 8.65 8.65 0 01-3.318 6.813l5.731 5.732c5.419-3.598 8.996-9.748 8.996-16.738 0-11.092-8.991-20.084-20.083-20.084-11.092 0-20.083 8.992-20.083 20.084 0 6.989 3.576 13.141 8.996 16.737zM215.01 446.445h.019z"/></g></g><g transform="matrix(.27375 0 0 .27375 -51.455 -15.558)"><linearGradient id="prefix__b" gradientUnits="userSpaceOnUse" x1="471.897" y1="299.813" x2="472.942" y2="299.813"><stop offset="0" stop-color="#fff"/><stop offset="1"/></linearGradient><path fill="url(#prefix__b)" stroke="#00187f" d="M471.897 299.953l1.045-.28h-1.045z"/><path fill="#ccc" stroke="#00187f" d="M432.445 296.33h53.135v53.135h-53.135z"/><radialGradient id="prefix__c" cx="459.013" cy="378.688" r="23.001" gradientUnits="userSpaceOnUse"><stop offset="0" stop-color="#fff"/><stop offset=".36" stop-color="#9fd4fa"/><stop offset=".483" stop-color="#93cef9"/><stop offset=".708" stop-color="#72c0f8"/><stop offset="1" stop-color="#3fa9f5"/></radialGradient><path fill="url(#prefix__c)" stroke="#00187f" d="M444.727 349.465h28.572v58.445h-28.572z"/><g fill="red" stroke="#00187f"><path d="M447.916 444.732l5.73-5.73a8.656 8.656 0 01-3.318-6.814 8.673 8.673 0 018.674-8.674 8.673 8.673 0 018.674 8.674 8.653 8.653 0 01-3.318 6.813l5.732 5.732c5.418-3.598 8.995-9.748 8.995-16.738 0-11.092-8.991-20.084-20.083-20.084-11.092 0-20.082 8.992-20.082 20.084 0 6.989 3.576 13.142 8.996 16.737zM458.992 448.076h.02z"/></g></g><path fill="#0032df" stroke="#00187f" d="M48.192 61.264c0 .99-.803 1.793-1.793 1.793H34.955c-.991 0-1.794-.803-1.794-1.793v0c0-.99.803-1.793 1.794-1.793h11.444c.99 0 1.793.803 1.793 1.793z" stroke-width=".274"/><linearGradient id="prefix__d" gradientUnits="userSpaceOnUse" x1="252.036" y1="388.238" x2="421.065" y2="388.238"><stop offset="0" stop-color="#fff"/><stop offset="1"/></linearGradient><path fill="url(#prefix__d)" stroke="#00187f" transform="matrix(.27375 0 0 .27375 -51.455 -15.558)" d="M284.522 489.301h103.349l32.486-121.242h.708v-80.882H252.352v80.882h-.316z"/><g stroke="#00187f"><path fill="#0ff" d="M27.18 118.86h6.81v11.97h-6.81zM48.375 118.86h5.867v11.97h-5.867z" stroke-width=".27375"/><path fill="#29abe2" d="M24.085 132.2l-2.333 7.13.35.533h16.303l-.857-6.425-6.434-3.86zM45.315 132.2l-2.333 7.13.35.533h16.303l-.857-6.425-6.433-3.86z" stroke-width=".27375"/></g><g fill="#a67c52" stroke="#00187f"><path d="M23.3 85.967l7.542 31.426M25.49 85.967l6.599 31.426M27.68 85.967l5.656 31.426M29.869 85.967l4.714 31.426M32.058 85.967l3.772 31.426M34.248 85.967l2.828 31.426M36.437 85.967l1.886 31.426M38.627 85.967l.943 31.426M40.817 85.967v31.426M43.007 85.967l-.943 31.426M45.196 85.967l-1.886 31.426M47.386 85.967l-2.829 31.426M49.575 85.967l-3.771 31.426M51.765 85.967l-4.714 31.426M53.955 85.967l-5.657 31.426M56.144 85.967l-6.6 31.426M58.333 85.967l-7.542 31.426" stroke-width=".27375"/></g><g transform="matrix(.27375 0 0 .27375 -51.455 -15.558)" stroke="#00187f"><path fill="red" d="M336.079 115.403c-19.442 0-35.204 15.761-35.204 35.204h70.407c0-19.443-15.761-35.204-35.203-35.204z"/><path fill="#b3b3b3" d="M327.269 89.985h22.06v28.006h-22.06z"/><circle fill="red" cx="338.298" cy="76.26" r="18.928"/></g><path fill="#ff0" stroke="#00187f" stroke-width=".274" d="M20.751 65.563h20.183v8.939H20.751z"/><path fill="#00f" stroke="#00187f" stroke-width=".274" d="M20.621 74.502h19.926v7.542H20.621z"/><circle fill="red" stroke="#00187f" cx="47.11" cy="69.536" r="2.968" stroke-width=".274"/><circle fill="#f0f" stroke="#00187f" cx="56.717" cy="79.568" r="2.475" stroke-width=".274"/><circle fill="#603813" stroke="#00187f" cx="58.59" cy="69.536" r="2.968" stroke-width=".274"/><linearGradient id="prefix__e" gradientUnits="userSpaceOnUse" x1="348.858" y1="349.643" x2="371.248" y2="349.643" gradientTransform="matrix(.27375 0 0 .27375 -51.455 -15.558)"><stop offset=".022" stop-color="#eef8e7"/><stop offset=".024" stop-color="#ebf7e3"/><stop offset=".045" stop-color="#c3e7ab"/><stop offset=".065" stop-color="#a4da7e"/><stop offset=".082" stop-color="#8dd15e"/><stop offset=".097" stop-color="#7fcb4a"/><stop offset=".107" stop-color="#7ac943"/><stop offset=".175" stop-color="#98d56d"/><stop offset=".293" stop-color="#c8e8b1"/><stop offset=".348" stop-color="#dbf0cc"/><stop offset=".384" stop-color="#c7e4b3"/><stop offset=".464" stop-color="#9fcd7f"/><stop offset=".533" stop-color="#82bb59"/><stop offset=".589" stop-color="#70b142"/><stop offset=".624" stop-color="#69ad3a"/><stop offset=".933" stop-color="#589130"/><stop offset="1" stop-color="#7ac943"/></linearGradient><circle fill="url(#prefix__e)" stroke="#00187f" cx="47.11" cy="80.158" r="3.065" stroke-width=".274"/></svg>