<svg xmlns="http://www.w3.org/2000/svg" viewBox="0 0 130 120" xmlns:v="https://vecta.io/nano"><style><![CDATA[.B{fill:#db3a49}.C{fill:#fff}]]></style><path d="M30 0h100v81H30z" class="B"/><path fill="#109d59" d="M30 81h100v39H30z"/><path d="M0 0h5v5H0z" class="B"/><path d="M5 0h5v5H5z" class="C"/><path d="M10 0h5v5h-5z" class="B"/><path d="M15 0h5v5h-5z" class="C"/><path d="M20 0h5v5h-5z" class="B"/><path d="M25 0h5v5h-5z" class="C"/><path d="M25 5h5v5h-5z" class="B"/><path d="M0 5h5v5H0z" class="C"/><path d="M5 5h5v5H5z" class="B"/><path d="M10 5h5v5h-5z" class="C"/><path d="M15 5h5v5h-5z" class="B"/><path d="M20 5h5v5h-5z" class="C"/><path d="M0 10h5v5H0z" class="B"/><path d="M5 10h5v5H5z" class="C"/><path d="M10 10h5v5h-5z" class="B"/><path d="M15 10h5v5h-5z" class="C"/><path d="M20 10h5v5h-5z" class="B"/><path d="M25 10h5v5h-5z" class="C"/><path d="M25 15h5v5h-5z" class="B"/><path d="M0 15h5v5H0z" class="C"/><path d="M5 15h5v5H5z" class="B"/><path d="M10 15h5v5h-5z" class="C"/><path d="M15 15h5v5h-5z" class="B"/><path d="M20 15h5v5h-5z" class="C"/><path d="M0 20h5v5H0z" class="B"/><path d="M5 20h5v5H5z" class="C"/><path d="M10 20h5v5h-5z" class="B"/><path d="M15 20h5v5h-5z" class="C"/><path d="M20 20h5v5h-5z" class="B"/><path d="M25 20h5v5h-5z" class="C"/><path d="M25 25h5v5h-5z" class="B"/><path d="M0 25h5v5H0z" class="C"/><path d="M5 25h5v5H5z" class="B"/><path d="M10 25h5v5h-5z" class="C"/><path d="M15 25h5v5h-5z" class="B"/><path d="M20 25h5v5h-5z" class="C"/><path d="M0 30h5v5H0z" class="B"/><path d="M5 30h5v5H5z" class="C"/><path d="M10 30h5v5h-5z" class="B"/><path d="M15 30h5v5h-5z" class="C"/><path d="M20 30h5v5h-5z" class="B"/><path d="M25 30h5v5h-5z" class="C"/><path d="M25 35h5v5h-5z" class="B"/><path d="M0 35h5v5H0z" class="C"/><path d="M5 35h5v5H5z" class="B"/><path d="M10 35h5v5h-5z" class="C"/><path d="M15 35h5v5h-5z" class="B"/><path d="M20 35h5v5h-5z" class="C"/><path d="M0 40h5v5H0z" class="B"/><path d="M5 40h5v5H5z" class="C"/><path d="M10 40h5v5h-5z" class="B"/><path d="M15 40h5v5h-5z" class="C"/><path d="M20 40h5v5h-5z" class="B"/><path d="M25 40h5v5h-5z" class="C"/><path d="M25 45h5v5h-5z" class="B"/><path d="M0 45h5v5H0z" class="C"/><path d="M5 45h5v5H5z" class="B"/><path d="M10 45h5v5h-5z" class="C"/><path d="M15 45h5v5h-5z" class="B"/><path d="M20 45h5v5h-5z" class="C"/><path d="M0 50h5v5H0z" class="B"/><path d="M5 50h5v5H5z" class="C"/><path d="M10 50h5v5h-5z" class="B"/><path d="M15 50h5v5h-5z" class="C"/><path d="M20 50h5v5h-5z" class="B"/><path d="M25 50h5v5h-5z" class="C"/><path d="M25 55h5v5h-5z" class="B"/><path d="M0 55h5v5H0z" class="C"/><path d="M5 55h5v5H5z" class="B"/><path d="M10 55h5v5h-5z" class="C"/><path d="M15 55h5v5h-5z" class="B"/><path d="M20 55h5v5h-5z" class="C"/><path d="M0 60h5v5H0z" class="B"/><path d="M5 60h5v5H5z" class="C"/><path d="M10 60h5v5h-5z" class="B"/><path d="M15 60h5v5h-5z" class="C"/><path d="M20 60h5v5h-5z" class="B"/><path d="M25 60h5v5h-5z" class="C"/><path d="M25 65h5v5h-5z" class="B"/><path d="M0 65h5v5H0z" class="C"/><path d="M5 65h5v5H5z" class="B"/><path d="M10 65h5v5h-5z" class="C"/><path d="M15 65h5v5h-5z" class="B"/><path d="M20 65h5v5h-5z" class="C"/><path d="M0 70h5v5H0z" class="B"/><path d="M5 70h5v5H5z" class="C"/><path d="M10 70h5v5h-5z" class="B"/><path d="M15 70h5v5h-5z" class="C"/><path d="M20 70h5v5h-5z" class="B"/><path d="M25 70h5v5h-5z" class="C"/><path d="M25 75h5v5h-5z" class="B"/><path d="M0 75h5v5H0z" class="C"/><path d="M5 75h5v5H5z" class="B"/><path d="M10 75h5v5h-5z" class="C"/><path d="M15 75h5v5h-5z" class="B"/><path d="M20 75h5v5h-5z" class="C"/><path d="M0 80h5v5H0z" class="B"/><path d="M5 80h5v5H5z" class="C"/><path d="M10 80h5v5h-5z" class="B"/><path d="M15 80h5v5h-5z" class="C"/><path d="M20 80h5v5h-5z" class="B"/><path d="M25 80h5v5h-5z" class="C"/><path d="M25 85h5v5h-5z" class="B"/><path d="M0 85h5v5H0z" class="C"/><path d="M5 85h5v5H5z" class="B"/><path d="M10 85h5v5h-5z" class="C"/><path d="M15 85h5v5h-5z" class="B"/><path d="M20 85h5v5h-5z" class="C"/><path d="M0 90h5v5H0z" class="B"/><path d="M5 90h5v5H5z" class="C"/><path d="M10 90h5v5h-5z" class="B"/><path d="M15 90h5v5h-5z" class="C"/><path d="M20 90h5v5h-5z" class="B"/><path d="M25 90h5v5h-5z" class="C"/><path d="M25 95h5v5h-5z" class="B"/><path d="M0 95h5v5H0z" class="C"/><path d="M5 95h5v5H5z" class="B"/><path d="M10 95h5v5h-5z" class="C"/><path d="M15 95h5v5h-5z" class="B"/><path d="M20 95h5v5h-5z" class="C"/><path d="M0 100h5v5H0z" class="B"/><path d="M5 100h5v5H5z" class="C"/><path d="M10 100h5v5h-5z" class="B"/><path d="M15 100h5v5h-5z" class="C"/><path d="M20 100h5v5h-5z" class="B"/><path d="M25 100h5v5h-5z" class="C"/><path d="M25 105h5v5h-5z" class="B"/><path d="M0 105h5v5H0z" class="C"/><path d="M5 105h5v5H5z" class="B"/><path d="M10 105h5v5h-5z" class="C"/><path d="M15 105h5v5h-5z" class="B"/><path d="M20 105h5v5h-5z" class="C"/><path d="M0 110h5v5H0z" class="B"/><path d="M5 110h5v5H5z" class="C"/><path d="M10 110h5v5h-5z" class="B"/><path d="M15 110h5v5h-5z" class="C"/><path d="M20 110h5v5h-5z" class="B"/><path d="M25 110h5v5h-5z" class="C"/><path d="M25 115h5v5h-5z" class="B"/><path d="M0 115h5v5H0z" class="C"/><path d="M5 115h5v5H5z" class="B"/><path d="M10 115h5v5h-5z" class="C"/><path d="M15 115h5v5h-5z" class="B"/><path d="M20 115h5v5h-5z" class="C"/></svg>