<svg version="1.1" xmlns="http://www.w3.org/2000/svg" xmlns:xlink="http://www.w3.org/1999/xlink" width="142.4226" height="137.18703" viewBox="0,0,142.4226,137.18703"><g transform="translate(-168.45263,-111.40649)"><g data-paper-data="{&quot;isPaintingLayer&quot;:true}" stroke-miterlimit="10" stroke-dasharray="" style="mix-blend-mode: normal"><g data-paper-data="{&quot;index&quot;:null}" fill-rule="evenodd" stroke-linecap="butt" stroke-linejoin="miter" stroke-dashoffset="0"><path d="M186.29123,228.53746c-21.97026,-6.88943 11.72069,-14.4489 8.48877,-29.87366c-3.33132,-15.8974 34.61679,-11.43512 47.99605,-10.90409l28.50511,1.12878l-29.22079,-1.1121c-19.94818,-0.75622 -48.09261,-2.73297 -47.34285,-13.05322c1.28652,-17.63227 -34.64519,-33.6937 -21.30002,-46.77472c12.05865,-11.82435 80.80376,8.10439 98.41178,49.28528l-0.43736,20.83788c-12.77433,38.44235 -63.13042,37.35527 -85.10068,30.46585z" fill="#3ac1f8" stroke="#3ac1f8" stroke-width="3.9769"/><path d="M194.44488,224.33096c-19.8289,-6.21939 10.57901,-13.0421 7.66233,-26.95997c-3.00472,-14.34881 31.24287,-10.32024 43.31572,-9.84204l25.72759,1.01757l-26.37227,-1.00089c-18.00278,-0.68672 -43.40376,-2.46885 -42.72784,-11.78265c1.16156,-15.91408 -31.26559,-30.40746 -19.22114,-42.21513c10.88289,-10.67055 72.92275,7.31481 88.81541,44.48102l-0.39476,18.80553c-11.53041,34.69459 -56.97614,33.71316 -76.80504,27.49655z" fill="#ffffff" stroke="#ffffff" stroke-width="3.5003"/><path d="M205.48113,218.80385c-17.00026,-5.3325 9.07097,-11.18212 6.56893,-23.1149c-2.57588,-12.30255 26.78691,-8.8495 37.13872,-8.4408l22.05546,0.87577l-22.60926,-0.85909c-15.43542,-0.58941 -37.21256,-2.11576 -36.6332,-10.10338c0.994,-13.64263 -26.80679,-26.07029 -16.48054,-36.19314c9.32941,-9.14698 62.52266,6.27222 76.14616,38.13652l-0.33512,16.12538c-9.88605,29.74576 -48.85089,28.90335 -65.85115,23.57364z" fill="#d4ff76" stroke="#d4ff76" stroke-width="3.0011"/><path d="M218.23843,212.68176c-13.84785,-4.33995 7.38685,-9.10528 5.35057,-18.82499c-2.09876,-10.01998 21.8169,-7.20916 30.24887,-6.87553l17.96586,0.71174l-18.41458,-0.69784c-12.57269,-0.4782 -30.31135,-1.72375 -29.83991,-8.2295c0.81224,-11.11261 -21.83394,-21.23268 -13.42469,-29.47886c7.60269,-7.45104 50.92693,5.1073 62.02282,31.0636l-0.27264,13.13106c-8.05141,24.22977 -39.78844,23.54305 -53.63629,19.20032z" fill="#ffffff" stroke="#ffffff" stroke-width="2.4444"/><path d="M230.29708,207.05178c-10.71249,-3.35853 5.71693,-7.04512 4.14072,-14.56845c-1.62448,-7.75408 16.88098,-5.57716 23.4073,-5.31859l13.89897,0.55049l-14.24829,-0.54215c-9.72701,-0.36977 -23.45274,-1.33173 -23.08922,-6.36396c0.62764,-8.59928 -16.89518,-16.43121 -10.38589,-22.81185c5.88165,-5.76621 39.40504,3.95072 47.99037,24.03516l-0.21016,10.16177c-6.23097,18.74714 -30.78847,18.21612 -41.5038,14.85759z" fill="#3ac1f8" stroke="#3ac1f8" stroke-width="1.8914"/><path d="M241.35037,201.50243c-7.87817,-2.47163 4.20036,-5.17958 3.04164,-10.70948c-1.1928,-5.69949 12.41081,-4.10085 17.20758,-3.90901l10.21833,0.40313l-10.47677,-0.39757c-7.15113,-0.27246 -17.23882,-0.97864 -16.97186,-4.67914c0.46292,-6.32226 -12.41933,-12.07735 -7.63393,-16.76761c4.32248,-4.23986 28.96519,2.90535 35.27851,17.66841l-0.1562,7.4705c-4.58092,13.77886 -22.63198,13.38963 -30.50731,10.92077z" fill="#ffffff" stroke="#ffffff" stroke-width="1.3904"/><path d="M250.47246,196.84275c-5.50109,-1.72375 2.93372,-3.61709 2.12432,-7.47884c-0.83212,-3.97852 8.66769,-2.86086 12.01605,-2.73019l7.13693,0.28358l-7.31585,-0.27802c-4.99272,-0.18906 -12.03877,-0.68394 -11.85133,-3.26678c0.32092,-4.41502 -8.67337,-8.43524 -5.33353,-11.71036c3.01892,-2.96095 20.22934,2.02679 24.63702,12.3387l-0.10792,5.21573c-3.20068,9.62518 -15.80746,9.35272 -21.3057,7.62619z" fill="#d4ff76" stroke="#d4ff76" stroke-width="0.97094"/></g><g data-paper-data="{&quot;index&quot;:null}" stroke="#000000"><path d="M276.92124,128.55703c1.7231,0.22302 2.81749,1.9456 2.55618,3.60142c-0.31823,2.04132 -2.39319,3.32459 -4.38536,2.9779c-2.37766,-0.41137 -3.86273,-2.82008 -3.42808,-5.13074c0.5071,-2.69305 3.27543,-4.36569 5.92476,-3.84411c3.03223,0.59687 4.90798,3.69689 4.2948,6.65927c-0.69079,3.34529 -4.1525,5.4099 -7.45899,4.71135c-3.6868,-0.78134 -5.95839,-4.57422 -5.1667,-8.18962c0.87707,-3.99675 4.99335,-6.23962 8.9958,-5.57652c3.01412,0.49934 4.6803,1.5958 6.27403,3.06225c1.12803,1.03826 2.97273,3.54451 4.01797,6.58243c2.32075,6.74232 2.57688,11.09663 1.57562,19.47408" fill="none" fill-rule="nonzero" stroke-width="2.6326" stroke-linecap="round" stroke-linejoin="miter" stroke-dashoffset="0"/><g><g fill-rule="evenodd" stroke-linecap="round" stroke-linejoin="miter" stroke-dashoffset="21.6"><path d="M301.8587,159.20346c0,2.33116 -1.88029,4.2202 -4.20064,4.2202c-2.31591,0 -4.20064,-1.88904 -4.20064,-4.2202c0,-2.32669 1.88473,-4.2202 4.20064,-4.2202c2.32035,0 4.20064,1.89351 4.20064,4.2202z" fill="#ffffff" stroke-width="1.3682"/><path d="M300.45849,159.73042c0,0.8753 -0.70677,1.58537 -1.57357,1.58537c-0.87124,0 -1.57802,-0.71007 -1.57802,-1.58537c0,-0.87083 0.70677,-1.5809 1.57802,-1.5809c0.8668,0 1.57357,0.71007 1.57357,1.5809z" fill="#000000" stroke-width="0.45605"/></g><path d="M303.52315,125.99153c0.85637,1.51146 0.13712,3.42006 -1.34019,4.20865c-1.824,0.97202 -4.09559,0.08512 -5.01923,-1.71456c-1.09957,-2.14792 -0.06727,-4.78198 2.04132,-5.82334c2.45528,-1.21419 5.45647,-0.00906 6.63107,2.42113c1.34795,2.78257 0,6.14648 -2.73729,7.43725c-3.08915,1.4592 -6.81994,-0.06468 -8.24809,-3.12693c-1.59373,-3.41592 0.06986,-7.51176 3.43584,-9.05324c3.72044,-1.70343 7.98678,0.23751 9.86511,3.83479c1.41263,2.70883 1.5394,4.6997 1.32466,6.85435c-0.15006,1.52465 -1.04524,4.50514 -2.84337,7.1674c-3.9921,5.90923 -7.31669,8.7319 -14.61268,12.96979" fill="none" fill-rule="nonzero" stroke-width="2.6326" stroke-linecap="round" stroke-linejoin="miter" stroke-dashoffset="0"/><path d="M278.28471,162.00733c0,-8.01265 5.48234,-10.86119 11.00608,-10.86119c5.52632,0 10.92587,6.55345 10.00999,14.51436c-0.45277,3.93776 -5.3892,9.08118 -10.95175,9.02167c6.31802,-0.05951 12.26606,21.69651 1.96888,44.05536c-10.11607,21.95782 -26.1569,28.44142 -37.77356,27.81531c10.9414,-0.27166 28.94593,-15.28794 23.35234,-43.20933c-5.27278,-26.32766 5.15635,-33.70385 9.3192,-28.60183c-3.75148,-3.41773 -6.93119,-4.7217 -6.93119,-12.73435z" fill="#000000" fill-rule="evenodd" stroke-width="4" stroke-linecap="square" stroke-linejoin="round" stroke-dashoffset="0"/><g fill-rule="evenodd" stroke-linecap="round" stroke-linejoin="miter" stroke-dashoffset="21.6"><path d="M288.6313,160.40083c0,-2.31591 1.89351,-4.20064 4.2202,-4.20064c2.33116,0 4.2202,1.88473 4.2202,4.20064c0,2.32035 -1.88904,4.20064 -4.2202,4.20064c-2.32669,0 -4.2202,-1.88029 -4.2202,-4.20064z" fill="#ffffff" stroke-width="1.3682"/><path d="M291.79757,161.62769c0,-0.87124 0.71007,-1.57802 1.5809,-1.57802c0.8753,0 1.58537,0.70677 1.58537,1.57802c0,0.8668 -0.71007,1.57357 -1.58537,1.57357c-0.87083,0 -1.5809,-0.70677 -1.5809,-1.57357z" fill="#000000" stroke-width="0.45605"/></g></g></g><g data-paper-data="{&quot;index&quot;:null}" fill-rule="evenodd" stroke-linecap="butt" stroke-linejoin="miter" stroke-dashoffset="0"><path d="M199.75621,237.41242c-18.87311,-8.3392 12.21082,-17.17266 11.13861,-35.58605c-1.10342,-18.98207 32.37049,-13.45114 44.29526,-12.74349l25.40625,1.50018l-26.04994,-1.48425c-17.78436,-1.01209 -42.76831,-3.52173 -40.87679,-15.82908c3.23676,-21.02418 -27.05751,-40.37573 -13.55452,-55.90787c12.20389,-14.03569 71.44252,10.10841 82.35055,59.32497l-2.85504,24.85251c-15.99281,45.78428 -60.98346,44.2089 -79.85437,35.87307z" fill="#0075a6" stroke="#0075a6" stroke-width="4"/><path d="M207.55896,232.43781c-17.0292,-7.52473 11.02212,-15.49543 10.0533,-32.11554c-0.9964,-17.13002 29.21447,-12.13907 39.97847,-11.50182l22.92917,1.35643l-23.51142,-1.34127c-16.04869,-0.91491 -38.59843,-3.17934 -36.89261,-14.28522c2.92466,-18.97507 -24.41806,-36.4399 -12.23146,-50.45649c11.01384,-12.66845 64.4766,9.12144 74.32004,53.54172l-2.5746,22.42791c-14.43508,41.32038 -55.03896,39.8994 -72.07088,32.37429z" fill="#ffffff" stroke="#ffffff" stroke-width="3.5207"/><path d="M218.10134,225.9038c-14.60135,-6.44913 9.45007,-13.28495 8.61972,-27.53339c-0.8537,-14.68721 25.04857,-10.40738 34.27376,-9.86175l19.66118,1.16238l-20.15699,-1.14763c-13.76146,-0.78495 -33.09355,-2.72728 -31.63198,-12.2502c2.50514,-16.2659 -20.93571,-31.24115 -10.48721,-43.26024c9.4426,-10.85969 55.28052,7.82217 63.72208,45.90605l-2.20863,19.22981c-12.37552,35.42544 -47.1884,34.20746 -61.79194,27.75496z" fill="#d4ff76" stroke="#d4ff76" stroke-width="3.0185"/><path d="M230.25655,218.67405c-11.89381,-5.25231 7.69417,-10.82058 7.01862,-22.42517c-0.6935,-11.96286 20.40213,-8.47787 27.91718,-8.03205l16.01245,0.94674l-16.41531,-0.93763c-11.20986,-0.63711 -26.95486,-2.21889 -25.76416,-9.97538c2.04018,-13.25009 -17.05334,-25.44763 -8.54269,-35.23591c7.69046,-8.84571 45.02702,6.3716 51.90185,37.39096l-1.7998,15.6603c-10.0781,28.85766 -38.43486,27.86344 -50.32815,22.60813z" fill="#ffffff" stroke="#ffffff" stroke-width="2.4586"/><path d="M241.72748,212.02519c-9.20375,-4.06709 5.95501,-8.37232 5.43251,-17.35476c-0.53884,-9.25461 15.78552,-6.55959 21.60185,-6.21508l12.3882,0.73446l-12.70189,-0.72538c-8.67407,-0.4945 -20.85647,-1.7191 -19.93505,-7.71814c1.5789,-10.25525 -13.19512,-19.69116 -6.61102,-27.26549c5.95184,-6.84521 34.84155,4.93037 40.16134,28.92976l-1.3935,12.12112c-7.7984,22.32732 -29.73871,21.56061 -38.94246,17.49352z" fill="#0075a6" stroke="#0075a6" stroke-width="1.9024"/><path d="M252.28546,205.46571c-6.76501,-2.98999 4.37648,-6.1566 3.99359,-12.758c-0.395,-6.80244 11.60444,-4.82079 15.87925,-4.56827l9.10661,0.53855l-9.33656,-0.53024c-6.37543,-0.36605 -15.33254,-1.26443 -14.6559,-5.67751c1.16323,-7.53634 -9.6996,-14.4722 -4.85789,-20.04042c4.37411,-5.0312 25.61062,3.62325 29.5208,21.26677l-1.02218,8.90842c-5.73296,16.41478 -21.86217,15.8477 -28.62771,12.8607z" fill="#ffffff" stroke="#ffffff" stroke-width="1.3985"/><path d="M261.01204,199.95845c-4.72482,-2.08723 3.05567,-4.29813 2.78607,-8.90859c-0.27535,-4.75235 8.10565,-3.3656 11.0897,-3.18906l6.35972,0.37616l-6.51902,-0.3735c-4.45315,-0.25246 -10.7073,-0.88099 -10.23351,-3.96307c0.80901,-5.26297 -6.77588,-10.10778 -3.39364,-13.99606c3.05448,-3.51304 17.88554,2.53206 20.61428,14.85407l-0.71235,6.22099c-4.00585,11.46189 -15.26916,11.0659 -19.99126,8.97904z" fill="#d4ff76" stroke="#d4ff76" stroke-width="0.97659"/></g><g data-paper-data="{&quot;index&quot;:null}" fill-rule="evenodd" stroke-linecap="butt" stroke-linejoin="miter" stroke-dashoffset="0"><path d="M199.75621,237.41242c-18.87311,-8.3392 12.21082,-17.17266 11.13861,-35.58605c-1.10342,-18.98207 32.37049,-13.45114 44.29526,-12.74349l25.40625,1.50018l-26.04994,-1.48425c-17.78436,-1.01209 -42.76831,-3.52173 -40.87679,-15.82908c3.23676,-21.02418 -27.05751,-40.37573 -13.55452,-55.90787c12.20389,-14.03569 71.44252,10.10841 82.35055,59.32497l-2.85504,24.85251c-15.99281,45.78428 -60.98346,44.2089 -79.85437,35.87307z" fill="#0075a6" stroke="#0075a6" stroke-width="4"/><path d="M207.55896,232.43781c-17.0292,-7.52473 11.02212,-15.49543 10.0533,-32.11554c-0.9964,-17.13002 29.21447,-12.13907 39.97847,-11.50182l22.92917,1.35643l-23.51142,-1.34127c-16.04869,-0.91491 -38.59843,-3.17934 -36.89261,-14.28522c2.92466,-18.97507 -24.41806,-36.4399 -12.23146,-50.45649c11.01384,-12.66845 64.4766,9.12144 74.32004,53.54172l-2.5746,22.42791c-14.43508,41.32038 -55.03896,39.8994 -72.07088,32.37429z" fill="#ffffff" stroke="#ffffff" stroke-width="3.5207"/><path d="M218.10134,225.9038c-14.60135,-6.44913 9.45007,-13.28495 8.61972,-27.53339c-0.8537,-14.68721 25.04857,-10.40738 34.27376,-9.86175l19.66118,1.16238l-20.15699,-1.14763c-13.76146,-0.78495 -33.09355,-2.72728 -31.63198,-12.2502c2.50514,-16.2659 -20.93571,-31.24115 -10.48721,-43.26024c9.4426,-10.85969 55.28052,7.82217 63.72208,45.90605l-2.20863,19.22981c-12.37552,35.42544 -47.1884,34.20746 -61.79194,27.75496z" fill="#d4ff76" stroke="#d4ff76" stroke-width="3.0185"/><path d="M230.25655,218.67405c-11.89381,-5.25231 7.69417,-10.82058 7.01862,-22.42517c-0.6935,-11.96286 20.40213,-8.47787 27.91718,-8.03205l16.01245,0.94674l-16.41531,-0.93763c-11.20986,-0.63711 -26.95486,-2.21889 -25.76416,-9.97538c2.04018,-13.25009 -17.05334,-25.44763 -8.54269,-35.23591c7.69046,-8.84571 45.02702,6.3716 51.90185,37.39096l-1.7998,15.6603c-10.0781,28.85766 -38.43486,27.86344 -50.32815,22.60813z" fill="#ffffff" stroke="#ffffff" stroke-width="2.4586"/><path d="M241.72748,212.02519c-9.20375,-4.06709 5.95501,-8.37232 5.43251,-17.35476c-0.53884,-9.25461 15.78552,-6.55959 21.60185,-6.21508l12.3882,0.73446l-12.70189,-0.72538c-8.67407,-0.4945 -20.85647,-1.7191 -19.93505,-7.71814c1.5789,-10.25525 -13.19512,-19.69116 -6.61102,-27.26549c5.95184,-6.84521 34.84155,4.93037 40.16134,28.92976l-1.3935,12.12112c-7.7984,22.32732 -29.73871,21.56061 -38.94246,17.49352z" fill="#0075a6" stroke="#0075a6" stroke-width="1.9024"/><path d="M252.28546,205.46571c-6.76501,-2.98999 4.37648,-6.1566 3.99359,-12.758c-0.395,-6.80244 11.60444,-4.82079 15.87925,-4.56827l9.10661,0.53855l-9.33656,-0.53024c-6.37543,-0.36605 -15.33254,-1.26443 -14.6559,-5.67751c1.16323,-7.53634 -9.6996,-14.4722 -4.85789,-20.04042c4.37411,-5.0312 25.61062,3.62325 29.5208,21.26677l-1.02218,8.90842c-5.73296,16.41478 -21.86217,15.8477 -28.62771,12.8607z" fill="#ffffff" stroke="#ffffff" stroke-width="1.3985"/><path d="M261.01204,199.95845c-4.72482,-2.08723 3.05567,-4.29813 2.78607,-8.90859c-0.27535,-4.75235 8.10565,-3.3656 11.0897,-3.18906l6.35972,0.37616l-6.51902,-0.3735c-4.45315,-0.25246 -10.7073,-0.88099 -10.23351,-3.96307c0.80901,-5.26297 -6.77588,-10.10778 -3.39364,-13.99606c3.05448,-3.51304 17.88554,2.53206 20.61428,14.85407l-0.71235,6.22099c-4.00585,11.46189 -15.26916,11.0659 -19.99126,8.97904z" fill="#d4ff76" stroke="#d4ff76" stroke-width="0.97659"/></g></g></g></svg>