<?xml version="1.0" encoding="UTF-8" standalone="no"?>
<!-- Created with Inkscape (http://www.inkscape.org/) -->

<svg
   id="svg2"
   sodipodi:docname="cartoon-butterfly-cv4.svg"
   viewBox="0 0 140 134.31393"
   sodipodi:version="0.32"
   version="1.0"
   inkscape:version="1.2.2 (732a01da63, 2022-12-09)"
   width="140"
   height="134.31393"
   xmlns:inkscape="http://www.inkscape.org/namespaces/inkscape"
   xmlns:sodipodi="http://sodipodi.sourceforge.net/DTD/sodipodi-0.dtd"
   xmlns="http://www.w3.org/2000/svg"
   xmlns:svg="http://www.w3.org/2000/svg"
   xmlns:rdf="http://www.w3.org/1999/02/22-rdf-syntax-ns#"
   xmlns:cc="http://creativecommons.org/ns#"
   xmlns:dc="http://purl.org/dc/elements/1.1/">
  <defs
     id="defs2901" />
  <sodipodi:namedview
     id="base"
     bordercolor="#666666"
     inkscape:pageshadow="2"
     inkscape:window-y="-8"
     pagecolor="#ffffff"
     inkscape:window-height="1017"
     width="450px"
     inkscape:zoom="0.5169323"
     inkscape:window-x="-8"
     height="420px"
     borderopacity="1.0"
     inkscape:current-layer="layer1"
     inkscape:cx="357.88052"
     inkscape:cy="69.641615"
     inkscape:window-width="1920"
     inkscape:pageopacity="0.0"
     inkscape:document-units="px"
     inkscape:showpageshadow="2"
     inkscape:pagecheckerboard="0"
     inkscape:deskcolor="#d1d1d1"
     showgrid="false"
     inkscape:window-maximized="1" />
  <g
     id="layer1"
     inkscape:label="Layer 1"
     inkscape:groupmode="layer"
     transform="translate(-15.274343,-10.16734)">
    <g
       id="g4285"
       transform="matrix(0.25872304,0,0,0.25872304,-22.711903,3.5402034)">
      <g
         id="g4172"
         transform="matrix(1.0977,0,0,1.0746,17.692,-60.141)">
        <path
           id="path9241"
           sodipodi:nodetypes="ccssscsssc"
           style="fill:#3ac1f8;fill-rule:evenodd;stroke:#3ac1f8;stroke-width:3.9769"
           d="m 253.22,386.52 -1.54,-74.95 c 62,-148.12 304.06,-219.8 346.52,-177.27 46.99,47.05 -79.53,104.82 -75,168.24 2.64,37.12 -96.46,44.23 -166.7,46.95 l -102.89,4 100.37,-4.06 c 47.11,-1.91 180.73,-17.96 169,39.22 -11.38,55.48 107.25,82.67 29.89,107.45 -77.36,24.78 -254.67,28.69 -299.65,-109.58 z" />
        <path
           id="path3141"
           sodipodi:nodetypes="ccssscsssc"
           style="fill:#ffffff;fill-rule:evenodd;stroke:#ffffff;stroke-width:3.5003"
           d="m 253.72,382.07 -1.39,-67.64 c 55.96,-133.68 274.41,-198.37 312.73,-159.99 42.41,42.47 -71.77,94.6 -67.68,151.84 2.38,33.5 -87.06,39.91 -150.45,42.38 l -92.86,3.6 90.59,-3.66 c 42.51,-1.72 163.1,-16.21 152.52,35.4 -10.27,50.06 96.8,74.6 26.98,96.97 -69.82,22.36 -229.84,25.89 -270.44,-98.9 z" />
        <path
           id="path3143"
           sodipodi:nodetypes="ccssscsssc"
           style="fill:#d4ff76;fill-rule:evenodd;stroke:#d4ff76;stroke-width:3.0011"
           d="m 253.43,376.3 -1.18,-58 c 47.97,-114.61 235.27,-170.07 268.12,-137.17 36.36,36.41 -61.53,81.11 -58.03,130.18 2.04,28.73 -74.64,34.22 -128.99,36.34 l -79.61,3.09 77.66,-3.15 c 36.45,-1.47 139.84,-13.89 130.77,30.36 -8.81,42.92 82.99,63.96 23.13,83.14 -59.86,19.17 -197.06,22.2 -231.87,-84.79 z" />
        <path
           id="path3145"
           sodipodi:nodetypes="ccssscsssc"
           style="fill:#ffffff;fill-rule:evenodd;stroke:#ffffff;stroke-width:2.4444"
           d="m 251.52,370.01 -0.96,-47.23 c 39.07,-93.36 191.62,-138.53 218.39,-111.73 29.61,29.66 -50.13,66.06 -47.27,106.03 1.66,23.4 -60.8,27.88 -105.07,29.6 l -64.84,2.51 63.26,-2.56 c 29.69,-1.2 113.9,-11.31 106.51,24.73 -7.17,34.96 67.6,52.1 18.84,67.71 -48.76,15.62 -160.51,18.09 -188.86,-69.06 z" />
        <path
           id="path3147"
           sodipodi:nodetypes="ccssscsssc"
           style="fill:#3ac1f8;fill-rule:evenodd;stroke:#3ac1f8;stroke-width:1.8914"
           d="m 251.78,365.38 -0.74,-36.55 c 30.23,-72.24 148.27,-107.19 168.98,-86.45 22.92,22.95 -38.78,51.12 -36.57,82.05 1.28,18.1 -47.05,21.56 -81.3,22.89 l -50.17,1.95 48.94,-1.98 c 22.98,-0.93 88.14,-8.76 82.42,19.13 -5.55,27.06 52.3,40.32 14.58,52.4 -37.73,12.08 -124.2,13.99 -146.14,-53.44 z" />
        <path
           id="path3149"
           sodipodi:nodetypes="ccssscsssc"
           style="fill:#ffffff;fill-rule:evenodd;stroke:#ffffff;stroke-width:1.3904"
           d="m 251.58,359.58 -0.55,-26.87 c 22.23,-53.1 109,-78.8 124.22,-63.55 16.85,16.87 -28.51,37.57 -26.88,60.31 0.94,13.31 -34.58,15.85 -59.76,16.83 l -36.89,1.43 35.98,-1.45 c 16.89,-0.69 64.79,-6.44 60.59,14.06 -4.08,19.89 38.45,29.63 10.71,38.52 -27.73,8.88 -91.29,10.28 -107.42,-39.28 z" />
        <path
           id="path3154"
           sodipodi:nodetypes="ccssscsssc"
           style="fill:#d4ff76;fill-rule:evenodd;stroke:#d4ff76;stroke-width:0.97094"
           d="m 251.86,354.67 -0.38,-18.76 c 15.52,-37.09 76.12,-55.03 86.75,-44.38 11.76,11.78 -19.91,26.24 -18.78,42.12 0.66,9.29 -24.15,11.07 -41.73,11.75 l -25.76,1 25.13,-1.02 c 11.79,-0.47 45.24,-4.49 42.31,9.82 -2.85,13.89 26.85,20.7 7.48,26.9 -19.36,6.21 -63.75,7.19 -75.02,-27.43 z" />
      </g>
      <g
         id="g4273">
        <path
           id="path5764"
           sodipodi:nodetypes="cssssssssssc"
           style="fill:none;stroke:#000000;stroke-width:2.6326;stroke-linecap:round"
           d="m 274.28,86.53 c -6.66,0.862 -10.89,7.52 -9.88,13.92 1.23,7.89 9.25,12.85 16.95,11.51 9.19,-1.59 14.93,-10.9 13.25,-19.831 -1.96,-10.409 -12.66,-16.874 -22.9,-14.858 -11.72,2.307 -18.97,14.289 -16.6,25.739 2.67,12.93 16.05,20.91 28.83,18.21 14.25,-3.02 23.03,-17.68 19.97,-31.654 -3.39,-15.448 -19.3,-24.117 -34.77,-21.554 -11.65,1.93 -18.09,6.168 -24.25,11.836 -4.36,4.013 -11.49,13.7 -15.53,25.442 -8.97,26.06 -9.96,42.89 -6.09,75.27" />
        <g
           id="g4106">
          <g
             id="g6684"
             transform="matrix(0,1.7261,1.7181,0,-503.11,-512.35)">
            <path
               id="path6661"
               style="fill:#ffffff;fill-rule:evenodd;stroke:#000000;stroke-width:1.3682;stroke-linecap:round;stroke-dashoffset:21.6"
               d="m 406.13,405.82 c 0,5.21 4.24,9.45 9.45,9.45 5.22,0 9.45,-4.24 9.45,-9.45 0,-5.22 -4.23,-9.45 -9.45,-9.45 -5.21,0 -9.45,4.23 -9.45,9.45 z" />
            <path
               id="path6663"
               style="fill:#000000;fill-rule:evenodd;stroke:#000000;stroke-width:0.45605;stroke-linecap:round;stroke-dashoffset:21.6"
               d="m 413.22,403.06 c 0,1.96 1.59,3.55 3.54,3.55 1.96,0 3.55,-1.59 3.55,-3.55 0,-1.95 -1.59,-3.54 -3.55,-3.54 -1.95,0 -3.54,1.59 -3.54,3.54 z" />
          </g>
          <path
             id="path2842"
             sodipodi:nodetypes="cssssssssssc"
             style="fill:none;stroke:#000000;stroke-width:2.6326;stroke-linecap:round"
             d="m 171.46,76.614 c -3.31,5.842 -0.53,13.219 5.18,16.267 7.05,3.757 15.83,0.329 19.4,-6.627 4.25,-8.302 0.26,-18.483 -7.89,-22.508 -9.49,-4.693 -21.09,-0.035 -25.63,9.358 -5.21,10.755 0,23.757 10.58,28.746 11.94,5.64 26.36,-0.25 31.88,-12.086 6.16,-13.203 -0.27,-29.034 -13.28,-34.992 -14.38,-6.584 -30.87,0.918 -38.13,14.822 -5.46,10.47 -5.95,18.165 -5.12,26.493 0.58,5.893 4.04,17.413 10.99,27.703 15.43,22.84 28.28,33.75 56.48,50.13" />
          <path
             id="path1333"
             sodipodi:nodetypes="csczcsscc"
             style="fill:#000000;fill-rule:evenodd;stroke:#000000;stroke-width:4;stroke-linecap:square;stroke-linejoin:round"
             d="m 242.22,265.04 c 16.09,-19.72 56.4,8.79 36.02,110.55 -21.62,107.92 47.97,165.96 90.26,167.01 -44.9,2.42 -106.9,-22.64 -146,-107.51 -39.8,-86.42 -16.81,-170.51 7.61,-170.28 -21.5,0.23 -40.58,-19.65 -42.33,-34.87 -3.54,-30.77 17.33,-56.1 38.69,-56.1 21.35,0 42.54,11.01 42.54,41.98 0,30.97 -12.29,36.01 -26.79,49.22 z" />
          <g
             id="g2847"
             transform="matrix(-1.7261,0,0,-1.7181,930.04,906.85)">
            <path
               id="path2849"
               style="fill:#ffffff;fill-rule:evenodd;stroke:#000000;stroke-width:1.3682;stroke-linecap:round;stroke-dashoffset:21.6"
               d="m 406.13,405.82 c 0,5.21 4.24,9.45 9.45,9.45 5.22,0 9.45,-4.24 9.45,-9.45 0,-5.22 -4.23,-9.45 -9.45,-9.45 -5.21,0 -9.45,4.23 -9.45,9.45 z" />
            <path
               id="path2851"
               style="fill:#000000;fill-rule:evenodd;stroke:#000000;stroke-width:0.45605;stroke-linecap:round;stroke-dashoffset:21.6"
               d="m 413.22,403.06 c 0,1.96 1.59,3.55 3.54,3.55 1.96,0 3.55,-1.59 3.55,-3.55 0,-1.95 -1.59,-3.54 -3.55,-3.54 -1.95,0 -3.54,1.59 -3.54,3.54 z" />
          </g>
        </g>
      </g>
      <g
         id="g4141"
         transform="matrix(1.0517,-0.14438,0.20309,1.1577,-80.438,-25.956)">
        <path
           id="path4143"
           sodipodi:nodetypes="ccssscsssc"
           style="fill:#0075a6;fill-rule:evenodd;stroke:#0075a6;stroke-width:4"
           d="m 255.43,372.68 5.4,-82.3 C 330.96,134.81 558.75,82.61 593.71,133.83 632.39,190.51 511.49,240.04 509.87,310.03 508.91,351 417.67,348 353.21,343.34 l -94.42,-6.82 92.12,6.48 c 43.24,3.03 166.85,-0.02 150.94,61.37 -15.44,59.55 90.55,102.26 17.57,121 C 446.45,544.1 284,529.1 255.43,372.68 Z" />
        <path
           id="path4145"
           sodipodi:nodetypes="ccssscsssc"
           style="fill:#ffffff;fill-rule:evenodd;stroke:#ffffff;stroke-width:3.5207"
           d="m 256.29,367.86 4.88,-74.27 C 324.46,153.18 530.04,106.07 561.59,152.3 c 34.91,51.15 -74.21,95.85 -75.66,159.02 -0.87,36.97 -83.22,34.26 -141.39,30.06 l -85.22,-6.15 83.14,5.84 c 39.03,2.74 150.59,-0.01 136.23,55.39 -13.94,53.75 81.71,92.29 15.86,109.2 -65.86,16.91 -212.47,3.37 -238.26,-137.8 z" />
        <path
           id="path4147"
           sodipodi:nodetypes="ccssscsssc"
           style="fill:#d4ff76;fill-rule:evenodd;stroke:#d4ff76;stroke-width:3.0185"
           d="m 256.55,361.5 4.18,-63.68 C 315,177.44 491.26,137.05 518.31,176.68 c 29.93,43.86 -63.62,82.19 -64.87,136.34 -0.75,31.7 -71.35,29.38 -121.23,25.78 l -73.06,-5.28 71.29,5.01 c 33.45,2.35 129.1,-0.01 116.79,47.49 -11.95,46.08 70.06,79.13 13.6,93.62 -56.47,14.5 -182.17,2.89 -204.28,-118.14 z" />
        <path
           id="path4149"
           sodipodi:nodetypes="ccssscsssc"
           style="fill:#ffffff;fill-rule:evenodd;stroke:#ffffff;stroke-width:2.4586"
           d="m 255.38,354.4 3.4,-51.86 c 44.2,-98.05 187.77,-130.95 209.8,-98.67 24.38,35.72 -51.82,66.94 -52.84,111.05 -0.61,25.82 -58.11,23.93 -98.74,20.99 l -59.5,-4.29 58.06,4.08 c 27.25,1.91 105.15,-0.01 95.13,38.68 -9.73,37.53 57.06,64.45 11.07,76.25 -45.99,11.81 -148.38,2.36 -166.38,-96.23 z" />
        <path
           id="path4151"
           sodipodi:nodetypes="ccssscsssc"
           style="fill:#0075a6;fill-rule:evenodd;stroke:#0075a6;stroke-width:1.9024"
           d="m 256.04,349.36 2.63,-40.14 c 34.2,-75.86 145.29,-101.32 162.34,-76.34 18.86,27.64 -40.1,51.79 -40.89,85.93 -0.47,19.97 -44.96,18.51 -76.4,16.24 l -46.04,-3.32 44.92,3.15 c 21.09,1.48 81.37,0 73.61,29.93 -7.53,29.05 44.16,49.87 8.57,59.01 -35.59,9.14 -114.81,1.82 -128.74,-74.46 z" />
        <path
           id="path4153"
           sodipodi:nodetypes="ccssscsssc"
           style="fill:#ffffff;fill-rule:evenodd;stroke:#ffffff;stroke-width:1.3985"
           d="m 256.38,342.97 1.94,-29.5 c 25.14,-55.77 106.8,-74.48 119.33,-56.12 13.87,20.32 -29.48,38.07 -30.05,63.16 -0.35,14.69 -33.06,13.61 -56.17,11.95 l -33.84,-2.45 33.02,2.32 c 15.5,1.09 59.81,0 54.11,22 -5.53,21.35 32.46,36.66 6.3,43.38 -26.16,6.71 -84.4,1.34 -94.64,-54.74 z" />
        <path
           id="path4155"
           sodipodi:nodetypes="ccssscsssc"
           style="fill:#d4ff76;fill-rule:evenodd;stroke:#d4ff76;stroke-width:0.97659"
           d="m 257.08,337.63 1.36,-20.6 c 17.55,-38.95 74.58,-52.02 83.33,-39.2 9.69,14.19 -20.58,26.59 -20.99,44.11 -0.24,10.26 -23.08,9.51 -39.22,8.34 l -23.63,-1.7 23.06,1.62 c 10.82,0.76 41.77,-0.01 37.79,15.36 -3.87,14.91 22.66,25.6 4.39,30.29 -18.26,4.69 -58.93,0.94 -66.09,-38.22 z" />
      </g>
      <g
         id="g4181"
         transform="matrix(1.0517,-0.14438,0.20309,1.1577,-80.438,-25.956)">
        <path
           id="path4183"
           sodipodi:nodetypes="ccssscsssc"
           style="fill:#0075a6;fill-rule:evenodd;stroke:#0075a6;stroke-width:4"
           d="m 255.43,372.68 5.4,-82.3 C 330.96,134.81 558.75,82.61 593.71,133.83 632.39,190.51 511.49,240.04 509.87,310.03 508.91,351 417.67,348 353.21,343.34 l -94.42,-6.82 92.12,6.48 c 43.24,3.03 166.85,-0.02 150.94,61.37 -15.44,59.55 90.55,102.26 17.57,121 C 446.45,544.1 284,529.1 255.43,372.68 Z" />
        <path
           id="path4185"
           sodipodi:nodetypes="ccssscsssc"
           style="fill:#ffffff;fill-rule:evenodd;stroke:#ffffff;stroke-width:3.5207"
           d="m 256.29,367.86 4.88,-74.27 C 324.46,153.18 530.04,106.07 561.59,152.3 c 34.91,51.15 -74.21,95.85 -75.66,159.02 -0.87,36.97 -83.22,34.26 -141.39,30.06 l -85.22,-6.15 83.14,5.84 c 39.03,2.74 150.59,-0.01 136.23,55.39 -13.94,53.75 81.71,92.29 15.86,109.2 -65.86,16.91 -212.47,3.37 -238.26,-137.8 z" />
        <path
           id="path4187"
           sodipodi:nodetypes="ccssscsssc"
           style="fill:#d4ff76;fill-rule:evenodd;stroke:#d4ff76;stroke-width:3.0185"
           d="m 256.55,361.5 4.18,-63.68 C 315,177.44 491.26,137.05 518.31,176.68 c 29.93,43.86 -63.62,82.19 -64.87,136.34 -0.75,31.7 -71.35,29.38 -121.23,25.78 l -73.06,-5.28 71.29,5.01 c 33.45,2.35 129.1,-0.01 116.79,47.49 -11.95,46.08 70.06,79.13 13.6,93.62 -56.47,14.5 -182.17,2.89 -204.28,-118.14 z" />
        <path
           id="path4189"
           sodipodi:nodetypes="ccssscsssc"
           style="fill:#ffffff;fill-rule:evenodd;stroke:#ffffff;stroke-width:2.4586"
           d="m 255.38,354.4 3.4,-51.86 c 44.2,-98.05 187.77,-130.95 209.8,-98.67 24.38,35.72 -51.82,66.94 -52.84,111.05 -0.61,25.82 -58.11,23.93 -98.74,20.99 l -59.5,-4.29 58.06,4.08 c 27.25,1.91 105.15,-0.01 95.13,38.68 -9.73,37.53 57.06,64.45 11.07,76.25 -45.99,11.81 -148.38,2.36 -166.38,-96.23 z" />
        <path
           id="path4191"
           sodipodi:nodetypes="ccssscsssc"
           style="fill:#0075a6;fill-rule:evenodd;stroke:#0075a6;stroke-width:1.9024"
           d="m 256.04,349.36 2.63,-40.14 c 34.2,-75.86 145.29,-101.32 162.34,-76.34 18.86,27.64 -40.1,51.79 -40.89,85.93 -0.47,19.97 -44.96,18.51 -76.4,16.24 l -46.04,-3.32 44.92,3.15 c 21.09,1.48 81.37,0 73.61,29.93 -7.53,29.05 44.16,49.87 8.57,59.01 -35.59,9.14 -114.81,1.82 -128.74,-74.46 z" />
        <path
           id="path4193"
           sodipodi:nodetypes="ccssscsssc"
           style="fill:#ffffff;fill-rule:evenodd;stroke:#ffffff;stroke-width:1.3985"
           d="m 256.38,342.97 1.94,-29.5 c 25.14,-55.77 106.8,-74.48 119.33,-56.12 13.87,20.32 -29.48,38.07 -30.05,63.16 -0.35,14.69 -33.06,13.61 -56.17,11.95 l -33.84,-2.45 33.02,2.32 c 15.5,1.09 59.81,0 54.11,22 -5.53,21.35 32.46,36.66 6.3,43.38 -26.16,6.71 -84.4,1.34 -94.64,-54.74 z" />
        <path
           id="path4195"
           sodipodi:nodetypes="ccssscsssc"
           style="fill:#d4ff76;fill-rule:evenodd;stroke:#d4ff76;stroke-width:0.97659"
           d="m 257.08,337.63 1.36,-20.6 c 17.55,-38.95 74.58,-52.02 83.33,-39.2 9.69,14.19 -20.58,26.59 -20.99,44.11 -0.24,10.26 -23.08,9.51 -39.22,8.34 l -23.63,-1.7 23.06,1.62 c 10.82,0.76 41.77,-0.01 37.79,15.36 -3.87,14.91 22.66,25.6 4.39,30.29 -18.26,4.69 -58.93,0.94 -66.09,-38.22 z" />
      </g>
    </g>
  </g>
  <metadata
     id="metadata2898">
    <rdf:RDF>
      <cc:Work>
        <dc:format>image/svg+xml</dc:format>
        <dc:type
           rdf:resource="http://purl.org/dc/dcmitype/StillImage" />
        <cc:license
           rdf:resource="http://creativecommons.org/licenses/publicdomain/" />
        <dc:publisher>
          <cc:Agent
             rdf:about="http://openclipart.org/">
            <dc:title>Openclipart</dc:title>
          </cc:Agent>
        </dc:publisher>
        <dc:title>cartoon_butterfly_cv4</dc:title>
        <dc:date>2011-03-01T11:22:24</dc:date>
        <dc:description>I drew this 100 percent original drawing</dc:description>
        <dc:source>https://openclipart.org/detail/124639/cartoon_butterfly_cv4-by-kizzyblue</dc:source>
        <dc:creator>
          <cc:Agent>
            <dc:title>kizzyblue</dc:title>
          </cc:Agent>
        </dc:creator>
        <dc:subject>
          <rdf:Bag>
            <rdf:li>butterflies</rdf:li>
            <rdf:li>butterfly</rdf:li>
            <rdf:li>cartoon butterflies</rdf:li>
            <rdf:li>cartoon butterfly</rdf:li>
          </rdf:Bag>
        </dc:subject>
      </cc:Work>
      <cc:License
         rdf:about="http://creativecommons.org/licenses/publicdomain/">
        <cc:permits
           rdf:resource="http://creativecommons.org/ns#Reproduction" />
        <cc:permits
           rdf:resource="http://creativecommons.org/ns#Distribution" />
        <cc:permits
           rdf:resource="http://creativecommons.org/ns#DerivativeWorks" />
      </cc:License>
    </rdf:RDF>
  </metadata>
</svg>
