<svg version="1.0" width="140" height="134.314" xmlns="http://www.w3.org/2000/svg"><g fill-rule="evenodd"><path d="M253.22 386.52l-1.54-74.95c62-148.12 304.06-219.8 346.52-177.27 46.99 47.05-79.53 104.82-75 168.24 2.64 37.12-96.46 44.23-166.7 46.95l-102.89 4 100.37-4.06c47.11-1.91 180.73-17.96 169 39.22-11.38 55.48 107.25 82.67 29.89 107.45S298.2 524.79 253.22 386.52z" fill="#3ac1f8" stroke="#3ac1f8" stroke-width="3.977" transform="matrix(.284 0 0 .27802 -33.409 -22.187)"/><path d="M253.72 382.07l-1.39-67.64c55.96-133.68 274.41-198.37 312.73-159.99 42.41 42.47-71.77 94.6-67.68 151.84 2.38 33.5-87.06 39.91-150.45 42.38l-92.86 3.6 90.59-3.66c42.51-1.72 163.1-16.21 152.52 35.4-10.27 50.06 96.8 74.6 26.98 96.97-69.82 22.36-229.84 25.89-270.44-98.9z" fill="#fff" stroke="#fff" stroke-width="3.5" transform="matrix(.284 0 0 .27802 -33.409 -22.187)"/><path d="M253.43 376.3l-1.18-58c47.97-114.61 235.27-170.07 268.12-137.17 36.36 36.41-61.53 81.11-58.03 130.18 2.04 28.73-74.64 34.22-128.99 36.34l-79.61 3.09 77.66-3.15c36.45-1.47 139.84-13.89 130.77 30.36-8.81 42.92 82.99 63.96 23.13 83.14-59.86 19.17-197.06 22.2-231.87-84.79z" fill="#d4ff76" stroke="#d4ff76" stroke-width="3.001" transform="matrix(.284 0 0 .27802 -33.409 -22.187)"/><path d="M251.52 370.01l-.96-47.23c39.07-93.36 191.62-138.53 218.39-111.73 29.61 29.66-50.13 66.06-47.27 106.03 1.66 23.4-60.8 27.88-105.07 29.6l-64.84 2.51 63.26-2.56c29.69-1.2 113.9-11.31 106.51 24.73-7.17 34.96 67.6 52.1 18.84 67.71-48.76 15.62-160.51 18.09-188.86-69.06z" fill="#fff" stroke="#fff" stroke-width="2.444" transform="matrix(.284 0 0 .27802 -33.409 -22.187)"/><path d="M251.78 365.38l-.74-36.55c30.23-72.24 148.27-107.19 168.98-86.45 22.92 22.95-38.78 51.12-36.57 82.05 1.28 18.1-47.05 21.56-81.3 22.89l-50.17 1.95 48.94-1.98c22.98-.93 88.14-8.76 82.42 19.13-5.55 27.06 52.3 40.32 14.58 52.4-37.73 12.08-124.2 13.99-146.14-53.44z" fill="#3ac1f8" stroke="#3ac1f8" stroke-width="1.891" transform="matrix(.284 0 0 .27802 -33.409 -22.187)"/><path d="M251.58 359.58l-.55-26.87c22.23-53.1 109-78.8 124.22-63.55 16.85 16.87-28.51 37.57-26.88 60.31.94 13.31-34.58 15.85-59.76 16.83l-36.89 1.43 35.98-1.45c16.89-.69 64.79-6.44 60.59 14.06-4.08 19.89 38.45 29.63 10.71 38.52-27.73 8.88-91.29 10.28-107.42-39.28z" fill="#fff" stroke="#fff" stroke-width="1.39" transform="matrix(.284 0 0 .27802 -33.409 -22.187)"/><path d="M251.86 354.67l-.38-18.76c15.52-37.09 76.12-55.03 86.75-44.38 11.76 11.78-19.91 26.24-18.78 42.12.66 9.29-24.15 11.07-41.73 11.75l-25.76 1 25.13-1.02c11.79-.47 45.24-4.49 42.31 9.82-2.85 13.89 26.85 20.7 7.48 26.9-19.36 6.21-63.75 7.19-75.02-27.43z" fill="#d4ff76" stroke="#d4ff76" stroke-width=".971" transform="matrix(.284 0 0 .27802 -33.409 -22.187)"/></g><g stroke="#000"><path d="M32.976 15.76c-1.723.223-2.817 1.946-2.556 3.602.318 2.04 2.393 3.324 4.385 2.977 2.378-.41 3.863-2.82 3.429-5.13-.508-2.693-3.276-4.366-5.925-3.844-3.032.597-4.908 3.697-4.295 6.659.69 3.345 4.153 5.41 7.459 4.711 3.687-.781 5.958-4.574 5.167-8.19-.877-3.996-4.994-6.239-8.996-5.576-3.014.5-4.68 1.596-6.274 3.062-1.128 1.039-2.973 3.545-4.018 6.583-2.32 6.742-2.577 11.096-1.576 19.474" fill="none" stroke-width=".68120976" stroke-linecap="round"/><g fill-rule="evenodd" stroke-linecap="round" stroke-dashoffset="21.6"><path d="M406.13 405.82c0 5.21 4.24 9.45 9.45 9.45 5.22 0 9.45-4.24 9.45-9.45 0-5.22-4.23-9.45-9.45-9.45-5.21 0-9.45 4.23-9.45 9.45z" fill="#fff" stroke-width="1.368" transform="matrix(0 .44658 .44451 0 -168.152 -139.184)"/><path d="M413.22 403.06c0 1.96 1.59 3.55 3.54 3.55a3.55 3.55 0 003.55-3.55c0-1.95-1.59-3.54-3.55-3.54-1.95 0-3.54 1.59-3.54 3.54z" stroke-width=".456" transform="matrix(0 .44658 .44451 0 -168.152 -139.184)"/></g><path d="M6.374 13.195c-.856 1.511-.137 3.42 1.34 4.208 1.825.972 4.096.085 5.02-1.714 1.1-2.148.067-4.782-2.042-5.824-2.455-1.214-5.456-.009-6.63 2.422-1.349 2.782 0 6.146 2.737 7.437 3.089 1.459 6.82-.065 8.248-3.127 1.594-3.416-.07-7.512-3.436-9.053-3.72-1.704-7.987.237-9.865 3.834-1.413 2.71-1.54 4.7-1.325 6.855.15 1.524 1.045 4.505 2.844 7.167 3.992 5.91 7.316 8.732 14.612 12.97" fill="none" stroke-width=".68120976" stroke-linecap="round"/><path d="M24.682 61.945c4.163-5.102 14.592 2.274 9.319 28.602-5.594 27.921 12.41 42.937 23.352 43.209-11.616.626-27.657-5.858-37.773-27.815-10.298-22.36-4.35-44.115 1.969-44.056-5.563.06-10.5-5.084-10.952-9.021-.916-7.961 4.483-14.515 10.01-14.515 5.523 0 11.006 2.849 11.006 10.861 0 8.013-3.18 9.317-6.931 12.735z" fill-rule="evenodd" stroke-width="1.03488" stroke-linecap="square" stroke-linejoin="round"/><g fill-rule="evenodd" stroke-linecap="round" stroke-dashoffset="21.6"><path d="M406.13 405.82c0 5.21 4.24 9.45 9.45 9.45 5.22 0 9.45-4.24 9.45-9.45 0-5.22-4.23-9.45-9.45-9.45-5.21 0-9.45 4.23-9.45 9.45z" fill="#fff" stroke-width="1.368" transform="matrix(-.44658 0 0 -.44451 202.637 227.996)"/><path d="M413.22 403.06c0 1.96 1.59 3.55 3.54 3.55a3.55 3.55 0 003.55-3.55c0-1.95-1.59-3.54-3.55-3.54-1.95 0-3.54 1.59-3.54 3.54z" stroke-width=".456" transform="matrix(-.44658 0 0 -.44451 202.637 227.996)"/></g></g><g fill-rule="evenodd"><path d="M255.43 372.68l5.4-82.3c70.13-155.57 297.92-207.77 332.88-156.55 38.68 56.68-82.22 106.21-83.84 176.2-.96 40.97-92.2 37.97-156.66 33.31l-94.42-6.82 92.12 6.48c43.24 3.03 166.85-.02 150.94 61.37-15.44 59.55 90.55 102.26 17.57 121C446.45 544.1 284 529.1 255.43 372.68z" fill="#0075a6" stroke="#0075a6" stroke-width="4" transform="matrix(.2721 -.03735 .05254 .29952 -58.797 -13.343)"/><path d="M256.29 367.86l4.88-74.27c63.29-140.41 268.87-187.52 300.42-141.29 34.91 51.15-74.21 95.85-75.66 159.02-.87 36.97-83.22 34.26-141.39 30.06l-85.22-6.15 83.14 5.84c39.03 2.74 150.59-.01 136.23 55.39-13.94 53.75 81.71 92.29 15.86 109.2-65.86 16.91-212.47 3.37-238.26-137.8z" fill="#fff" stroke="#fff" stroke-width="3.521" transform="matrix(.2721 -.03735 .05254 .29952 -58.797 -13.343)"/><path d="M256.55 361.5l4.18-63.68C315 177.44 491.26 137.05 518.31 176.68c29.93 43.86-63.62 82.19-64.87 136.34-.75 31.7-71.35 29.38-121.23 25.78l-73.06-5.28 71.29 5.01c33.45 2.35 129.1-.01 116.79 47.49-11.95 46.08 70.06 79.13 13.6 93.62-56.47 14.5-182.17 2.89-204.28-118.14z" fill="#d4ff76" stroke="#d4ff76" stroke-width="3.018" transform="matrix(.2721 -.03735 .05254 .29952 -58.797 -13.343)"/><path d="M255.38 354.4l3.4-51.86c44.2-98.05 187.77-130.95 209.8-98.67 24.38 35.72-51.82 66.94-52.84 111.05-.61 25.82-58.11 23.93-98.74 20.99l-59.5-4.29 58.06 4.08c27.25 1.91 105.15-.01 95.13 38.68-9.73 37.53 57.06 64.45 11.07 76.25-45.99 11.81-148.38 2.36-166.38-96.23z" fill="#fff" stroke="#fff" stroke-width="2.459" transform="matrix(.2721 -.03735 .05254 .29952 -58.797 -13.343)"/><path d="M256.04 349.36l2.63-40.14c34.2-75.86 145.29-101.32 162.34-76.34 18.86 27.64-40.1 51.79-40.89 85.93-.47 19.97-44.96 18.51-76.4 16.24l-46.04-3.32 44.92 3.15c21.09 1.48 81.37 0 73.61 29.93-7.53 29.05 44.16 49.87 8.57 59.01-35.59 9.14-114.81 1.82-128.74-74.46z" fill="#0075a6" stroke="#0075a6" stroke-width="1.902" transform="matrix(.2721 -.03735 .05254 .29952 -58.797 -13.343)"/><path d="M256.38 342.97l1.94-29.5c25.14-55.77 106.8-74.48 119.33-56.12 13.87 20.32-29.48 38.07-30.05 63.16-.35 14.69-33.06 13.61-56.17 11.95l-33.84-2.45 33.02 2.32c15.5 1.09 59.81 0 54.11 22-5.53 21.35 32.46 36.66 6.3 43.38-26.16 6.71-84.4 1.34-94.64-54.74z" fill="#fff" stroke="#fff" stroke-width="1.399" transform="matrix(.2721 -.03735 .05254 .29952 -58.797 -13.343)"/><path d="M257.08 337.63l1.36-20.6c17.55-38.95 74.58-52.02 83.33-39.2 9.69 14.19-20.58 26.59-20.99 44.11-.24 10.26-23.08 9.51-39.22 8.34l-23.63-1.7 23.06 1.62c10.82.76 41.77-.01 37.79 15.36-3.87 14.91 22.66 25.6 4.39 30.29-18.26 4.69-58.93.94-66.09-38.22z" fill="#d4ff76" stroke="#d4ff76" stroke-width=".977" transform="matrix(.2721 -.03735 .05254 .29952 -58.797 -13.343)"/></g><g fill-rule="evenodd"><path d="M255.43 372.68l5.4-82.3c70.13-155.57 297.92-207.77 332.88-156.55 38.68 56.68-82.22 106.21-83.84 176.2-.96 40.97-92.2 37.97-156.66 33.31l-94.42-6.82 92.12 6.48c43.24 3.03 166.85-.02 150.94 61.37-15.44 59.55 90.55 102.26 17.57 121C446.45 544.1 284 529.1 255.43 372.68z" fill="#0075a6" stroke="#0075a6" stroke-width="4" transform="matrix(.2721 -.03735 .05254 .29952 -58.797 -13.343)"/><path d="M256.29 367.86l4.88-74.27c63.29-140.41 268.87-187.52 300.42-141.29 34.91 51.15-74.21 95.85-75.66 159.02-.87 36.97-83.22 34.26-141.39 30.06l-85.22-6.15 83.14 5.84c39.03 2.74 150.59-.01 136.23 55.39-13.94 53.75 81.71 92.29 15.86 109.2-65.86 16.91-212.47 3.37-238.26-137.8z" fill="#fff" stroke="#fff" stroke-width="3.521" transform="matrix(.2721 -.03735 .05254 .29952 -58.797 -13.343)"/><path d="M256.55 361.5l4.18-63.68C315 177.44 491.26 137.05 518.31 176.68c29.93 43.86-63.62 82.19-64.87 136.34-.75 31.7-71.35 29.38-121.23 25.78l-73.06-5.28 71.29 5.01c33.45 2.35 129.1-.01 116.79 47.49-11.95 46.08 70.06 79.13 13.6 93.62-56.47 14.5-182.17 2.89-204.28-118.14z" fill="#d4ff76" stroke="#d4ff76" stroke-width="3.018" transform="matrix(.2721 -.03735 .05254 .29952 -58.797 -13.343)"/><path d="M255.38 354.4l3.4-51.86c44.2-98.05 187.77-130.95 209.8-98.67 24.38 35.72-51.82 66.94-52.84 111.05-.61 25.82-58.11 23.93-98.74 20.99l-59.5-4.29 58.06 4.08c27.25 1.91 105.15-.01 95.13 38.68-9.73 37.53 57.06 64.45 11.07 76.25-45.99 11.81-148.38 2.36-166.38-96.23z" fill="#fff" stroke="#fff" stroke-width="2.459" transform="matrix(.2721 -.03735 .05254 .29952 -58.797 -13.343)"/><path d="M256.04 349.36l2.63-40.14c34.2-75.86 145.29-101.32 162.34-76.34 18.86 27.64-40.1 51.79-40.89 85.93-.47 19.97-44.96 18.51-76.4 16.24l-46.04-3.32 44.92 3.15c21.09 1.48 81.37 0 73.61 29.93-7.53 29.05 44.16 49.87 8.57 59.01-35.59 9.14-114.81 1.82-128.74-74.46z" fill="#0075a6" stroke="#0075a6" stroke-width="1.902" transform="matrix(.2721 -.03735 .05254 .29952 -58.797 -13.343)"/><path d="M256.38 342.97l1.94-29.5c25.14-55.77 106.8-74.48 119.33-56.12 13.87 20.32-29.48 38.07-30.05 63.16-.35 14.69-33.06 13.61-56.17 11.95l-33.84-2.45 33.02 2.32c15.5 1.09 59.81 0 54.11 22-5.53 21.35 32.46 36.66 6.3 43.38-26.16 6.71-84.4 1.34-94.64-54.74z" fill="#fff" stroke="#fff" stroke-width="1.399" transform="matrix(.2721 -.03735 .05254 .29952 -58.797 -13.343)"/><path d="M257.08 337.63l1.36-20.6c17.55-38.95 74.58-52.02 83.33-39.2 9.69 14.19-20.58 26.59-20.99 44.11-.24 10.26-23.08 9.51-39.22 8.34l-23.63-1.7 23.06 1.62c10.82.76 41.77-.01 37.79 15.36-3.87 14.91 22.66 25.6 4.39 30.29-18.26 4.69-58.93.94-66.09-38.22z" fill="#d4ff76" stroke="#d4ff76" stroke-width=".977" transform="matrix(.2721 -.03735 .05254 .29952 -58.797 -13.343)"/></g></svg>