<svg xmlns="http://www.w3.org/2000/svg" width="130.594" height="147.056" viewBox="0 0 10.448 11.764" xmlns:v="https://vecta.io/nano"><style><![CDATA[.B{fill:#1d1d1b}.C{fill:#f2910d}]]></style><path d="M9.553 9.479c.084-.084.126-2.564.042-2.806S8.162 5.621 8.162 5.621L8.03 4.602c-.058-.443-.331-1.287-1.07-2.714S5.466-.008 5.298 0a1.956 1.956 0 0 0-1.06.559A7.876 7.876 0 0 0 2.55 3.207a6.877 6.877 0 0 0-.387 2.289C1.694 5.765.71 6.441.609 6.617S.692 9.566.7 9.606s.561.06 1.044-.225a5.314 5.314 0 0 0 1.044-.944l.377.718c.068.116.283.168.283.168l.108.351c.032.068.227.074.227.074l.184.627a1.425 1.425 0 0 0 .309.042.822.822 0 0 0-.158.425c0 .216.251.351.575.443a.722.722 0 0 1 .451.425.2.2 0 0 0 .176.05c.082 0 .1-.176.375-.359s.627-.092.886-.401-.126-.702-.126-.702a.732.732 0 0 0 .285-.026c.058-.034.02-.567.02-.567a2.071 2.071 0 0 0 .451-.06c.068-.04.026-.501.026-.501a.503.503 0 0 0 .2-.074 1.728 1.728 0 0 0 .2-.427 1.501 1.501 0 0 0 .525.461c.381.233 1.307.459 1.391.375zm-7.345.647c-.03 0-.08-.401-.156-.401s-.2.333-.212.383a2.423 2.423 0 0 0-.433.036c-.05.032 0 .082.026.12s.313.062.325.08a3.628 3.628 0 0 1-.174.383c-.012.038.062.062.132.074s.233-.243.233-.243l.088.257c.02.056.124.03.168 0s0-.377 0-.421.271-.03.271-.03.056-.088.03-.15-.265-.082-.297-.088zm-1.616.633a2.017 2.017 0 0 0 .082-.253.162.162 0 0 0-.094-.15c-.05-.012-.132.182-.132.182s-.086-.088-.136-.068 0 .2 0 .2a.629.629 0 0 0-.188-.038c-.038.012-.032.056-.032.094s.164.124.164.124l-.251.108c-.036.02.1.15.124.162s.2-.144.2-.144l.026.212c0 .044.062.026.112.032s.076-.227.076-.227a1.165 1.165 0 0 0 .271.082c.074 0 .056-.062.056-.15s-.279-.168-.279-.168zm8.006-.489l.032-.271c.008-.038-.032-.042-.094-.042s-.295.319-.315.349-.315-.024-.337 0a.2.2 0 0 0-.014.162c.026.044.17.068.188.094s-.162.363-.162.419.251 0 .301-.024a.469.469 0 0 0 .1-.17s.144.2.212.2.12-.036.12-.086-.12-.2-.094-.227a.926.926 0 0 0 .074-.118 1.483 1.483 0 0 1 .233-.07c.074-.024.044-.106.018-.15s-.263-.066-.263-.066zm1.435-.401c-.533.082-.884.463-.778.958a.643.643 0 0 0 .613.539c.082 0 .126-.076.106-.176s-.251-.2-.156-.581a.565.565 0 0 1 .515-.415c.062-.024.068-.068-.02-.186s-.126-.156-.281-.132zM.563 4.093a.902.902 0 0 0 .018.357c.05.068.301-.156.301-.156s.275.136.339.1-.056-.251-.056-.251.174-.114.186-.2-.275-.08-.319-.08-.126-.351-.2-.333-.09.327-.138.327c-.082 0-.319.036-.325.112s.194.124.194.124zm.383-2.135c.02.012-.062.363.044.369s.269-.251.301-.269.401.156.477.094-.176-.313-.176-.313.233-.2.176-.271-.301 0-.339.026-.271-.321-.339-.277-.05.301-.056.345-.309.056-.327.132.218.15.239.162zm7.26-.094c.012.026-.144.313-.094.357s.363-.168.389-.18.263.313.355.249-.074-.333-.074-.333.281-.068.281-.144-.313-.15-.313-.15-.012-.325-.076-.333-.243.259-.263.271-.383-.1-.401 0 .182.241.194.265zm2.015-.625c-.012-.032.076-.451 0-.489s-.319.281-.345.307-.463-.142-.487-.094c-.05.094.319.239.325.307s-.2.321-.124.401.331-.112.375-.094.227.245.283.214-.026-.301-.02-.321.22-.036.22-.094-.212-.106-.227-.136zm-.483 3.037c-.126-.024-.243.343-.319.359s-.343-.19-.367-.1.216.319.235.351-.269.243-.218.327.301-.066.351-.058.134.401.227.351.034-.385.084-.419.251 0 .283-.116-.251-.166-.275-.2.124-.475 0-.493z" class="B"/><path d="M.992 6.749c.036-.084 1.145-.828 1.161-.778A8.788 8.788 0 0 0 2.337 7.3l.243.802c-.024 0-.551-.601-.601-.575s-.142.142-.116.184.533.551.501.601-.214.231-.214.231a5.777 5.777 0 0 0-.447-.641c-.04 0-.182.15-.15.2s.451.517.411.583a1.002 1.002 0 0 1-.126.15 3.708 3.708 0 0 0-.385-.443c-.032 0-.158.11-.124.168s.359.343.285.401-.543.309-.543.251L.992 6.749zm7.224-.677A5.057 5.057 0 0 1 8.1 7.583l-.251.72a3.592 3.592 0 0 0 .601.543 1.94 1.94 0 0 0 .752.2V6.892c-.026-.032-.91-.778-.986-.82z" fill="#cbe7f5"/><g class="B"><path d="M8.686 7.467c.05.016.243.134.259.2s0 .2-.034.2a1.203 1.203 0 0 1-.317-.218c-.016-.066.092-.182.092-.182zm-.201.393c0-.062.509.333.517.401s0 .216-.024.2-.569-.359-.569-.435.076-.158.076-.166z"/><path d="M8.327 8.243a3.007 3.007 0 0 1 .637.493c0 .058.034.15-.04.15a3.285 3.285 0 0 1-.686-.475c-.022-.05.062-.168.088-.168z"/></g><path d="M3.532 8.954s-.694-1.229-.852-2.097-.216-1.962.07-2.899a6.94 6.94 0 0 1 .71-1.704 3.151 3.151 0 0 1 1.78-.435c1.002.05 1.261.269 1.327.309a8.692 8.692 0 0 1 1.094 2.782 8.018 8.018 0 0 1 .026 2.456s-.259-.359-.309-.343-.134.076-.092.126a3.574 3.574 0 0 1 .359.483 1.353 1.353 0 0 1-.092.251 5.494 5.494 0 0 0-.401-.525c-.034 0-.158.024-.134.092s.485.633.485.718a1.341 1.341 0 0 1-.267.517c-.076.042-.627.142-.661.218s-.058.251 0 .267.493 0 .493.058.016.235 0 .243a9.992 9.992 0 0 1-1.78.142c-1.026 0-1.477 0-1.503-.042s-.082-.251-.05-.243.451.066.67.076.283 0 .301-.026a1.315 1.315 0 0 0-.054-.275s-.968-.068-1.119-.15z" fill="#e7413e"/><path d="M6.589 7.792c0-.048.124-.082.158-.066.164.172.303.367.413.577 0 .068-.058.16-.116.126a3.62 3.62 0 0 1-.455-.637zm-.317.15c.04.018.559.535.525.585s-.142.134-.166.108-.527-.493-.509-.559.15-.134.15-.134zm-.477.277a3.9 3.9 0 0 1 .643.567c0 .042-.084.134-.134.118a3.79 3.79 0 0 1-.643-.535c.01-.05.096-.158.134-.15zm-.375.334c.042-.044.633.401.617.459s0 .132-.092.116a2.52 2.52 0 0 1-.651-.401c0-.042.116-.166.126-.174zM3.205 3.492a4.27 4.27 0 0 1 .126-.577 1.33 1.33 0 0 1 .22-.535c.034-.016.2-.058.2-.016a4.51 4.51 0 0 0-.259.678c-.05.275-.024.359-.074.401-.068.03-.14.047-.214.05z" class="B"/><path d="M3.724 1.746c.032-.076.96-1.353 1.469-1.379S6.33 1.728 6.262 1.738a2.391 2.391 0 0 0-1.319-.16l-1.219.168z" fill="#cbe7f5"/><path d="M4.326 1.387c-.056-.024.501-.651.601-.661s.084.076.108.15-.243.243-.351.377-.1.166-.158.184a.445.445 0 0 1-.2-.05zm-.67 2.356c.659-.635 1.954-.862 2.74-.2s1.028 1.495.786 2.48-1.253 1.529-2.389 1.303a2.171 2.171 0 0 1-1.77-1.586 2.147 2.147 0 0 1 .633-1.996z" class="B"/><path d="M3.805 3.893c.591-.571 1.758-.776 2.464-.174a2.069 2.069 0 0 1 .708 2.233c-.216.888-1.129 1.377-2.149 1.175a1.958 1.958 0 0 1-1.594-1.429 1.924 1.924 0 0 1 .571-1.804z" fill="#fab900"/><path d="M4.284 4.392c.377-.365 1.119-.493 1.57-.11a1.317 1.317 0 0 1 .449 1.415c-.138.565-.718.876-1.369.748a1.251 1.251 0 0 1-1.014-.91 1.229 1.229 0 0 1 .365-1.143z" class="B"/><path d="M4.534 4.653a.87.87 0 0 1 1.1-.078.926.926 0 0 1 .317 1.002c-.098.401-.505.613-.96.523a.88.88 0 0 1-.714-.637.862.862 0 0 1 .257-.81z" fill="#85bfe9"/><path d="M5.073 3.458a.259.259 0 0 1 .321.335c-.066.19-.385.182-.459.09a.265.265 0 0 1 .138-.425z" class="B"/><path d="M5.112 3.594a.11.11 0 0 1 .138.142c-.028.082-.164.078-.2.04a.114.114 0 0 1 .062-.182z" class="C"/><path d="M6.122 3.875a.259.259 0 0 1 .321.335c-.066.2-.385.184-.459.092a.265.265 0 0 1 .138-.427z" class="B"/><path d="M6.158 4.011a.11.11 0 0 1 .138.142c-.028.082-.164.08-.2.04a.114.114 0 0 1 .062-.182z" class="C"/><path d="M6.655 4.927a.259.259 0 0 1 .323.335c-.068.2-.385.184-.461.092a.267.267 0 0 1 .138-.427z" class="B"/><path d="M6.695 5.063a.11.11 0 0 1 .138.142.134.134 0 0 1-.2.04.114.114 0 0 1 .062-.182z" class="C"/><path d="M6.38 6.038a.259.259 0 0 1 .321.335c-.066.2-.385.184-.459.092a.267.267 0 0 1 .138-.427z" class="B"/><path d="M6.42 6.174a.11.11 0 0 1 .136.142c-.028.082-.164.08-.2.04a.114.114 0 0 1 .064-.182z" class="C"/><path d="M5.436 6.585a.259.259 0 0 1 .321.335c-.066.2-.383.184-.459.092a.267.267 0 0 1 .138-.427z" class="B"/><path d="M5.476 6.721a.108.108 0 0 1 .136.142c-.028.082-.164.08-.2.04a.114.114 0 0 1 .064-.182z" class="C"/><path d="M4.4 6.415a.259.259 0 0 1 .323.335c-.068.2-.385.182-.461.09a.267.267 0 0 1 .138-.425z" class="B"/><path d="M4.44 6.551a.11.11 0 0 1 .138.142.134.134 0 0 1-.2.04.114.114 0 0 1 .062-.182z" class="C"/><path d="M3.678 5.751a.257.257 0 0 1 .321.333c-.066.2-.383.184-.459.092a.265.265 0 0 1 .138-.425z" class="B"/><path d="M3.718 5.885a.11.11 0 0 1 .136.144c-.028.082-.164.078-.2.038a.114.114 0 0 1 .064-.182z" class="C"/><path d="M3.486 4.835a.259.259 0 0 1 .321.335c-.066.2-.383.184-.459.092a.267.267 0 0 1 .138-.427z" class="B"/><path d="M3.526 4.971a.108.108 0 0 1 .136.142c-.028.082-.164.08-.2.04a.114.114 0 0 1 .064-.182z" class="C"/><path d="M3.991 3.871a.259.259 0 0 1 .321.335c-.066.2-.383.182-.459.092a.267.267 0 0 1 .138-.427z" class="B"/><path d="M4.031 4.007a.11.11 0 0 1 .138.142c-.03.082-.164.078-.2.04a.114.114 0 0 1 .062-.182zM4.027 9.8c0-.05.625.026 1.365 0l1.159-.05c.012.024-.012.389-.012.389s-.245-.106-1.203-.032l-1.203.094a1.968 1.968 0 0 1-.106-.401z" class="C"/><path d="M4.458 10.389c.024-.012.371-.024.371-.024a.303.303 0 0 0 .106.331c.174.15.319.132.351.2s.018.138.074.15a.116.116 0 0 0 .126-.038c.03-.036.062-.2.162-.2s.333.064.413-.08a.619.619 0 0 0 .044-.357.802.802 0 0 1 .176 0c.056.012.275.319.118.501s-.643.225-.896.419a1.804 1.804 0 0 0-.251.218.742.742 0 0 0-.463-.401c-.377-.136-.451-.174-.457-.281s.02-.383.124-.439z" fill="#ffe19b"/><path d="M5.029 10.351a4.893 4.893 0 0 1 .802-.05c.056.026.118.182.05.227s-.307.082-.377.15-.062.1-.094.088a1.066 1.066 0 0 1-.275-.164c-.094-.094-.132-.231-.106-.251z" fill="#fab900"/><path d="M9.952 10.027c.048-.018.1.038.044.088a.846.846 0 0 0-.401.475c-.062.289.112.477.068.513s-.295-.156-.245-.493a.782.782 0 0 1 .533-.583z" fill="#e6e4da"/></svg>