<svg version="1.1" xmlns="http://www.w3.org/2000/svg" xmlns:xlink="http://www.w3.org/1999/xlink" width="140.00001" height="138.79027" viewBox="0,0,140.00001,138.79027"><g transform="translate(-170,-110.60487)"><g data-paper-data="{&quot;isPaintingLayer&quot;:true}" fill-rule="nonzero" stroke="none" stroke-width="1" stroke-linecap="butt" stroke-linejoin="miter" stroke-miterlimit="10" stroke-dasharray="" stroke-dashoffset="0" style="mix-blend-mode: normal"><path d="M261.14948,218.69067c0.32509,1.64693 0.72766,3.3545 0.82178,5.04748c0.07676,1.38066 -0.25714,3.14198 -0.45369,4.52537c-0.08858,0.62345 -0.5511,2.10357 -0.17976,2.68439c0.53819,0.84175 2.41624,1.40255 3.32991,1.80741c0.08721,0.03866 0.54178,0.1657 0.56496,0.27446c0.01475,0.06918 -0.57907,0.04139 -0.59921,0.04015c-0.38107,-0.02339 -2.87284,-0.61806 -2.63654,0.16735c0.24212,0.80472 2.89375,1.72065 3.61239,2.12205c0.60152,0.33601 1.35051,0.62157 1.30972,0.66942c-0.05353,0.06279 -0.76225,-0.25219 -0.83033,-0.27446c-0.27016,-0.08835 -3.87122,-0.90828 -3.92056,-0.85684c-0.12413,0.12943 0.25376,0.69418 0.31672,0.78992c0.671,1.02027 1.15411,2.15446 1.83187,3.16635c0.37058,0.55324 0.83747,1.02108 0.82178,1.03092c-0.16279,0.10185 -0.71941,-0.22375 -0.85603,-0.28785c-1.72997,-0.81173 -2.86916,-2.34385 -4.32269,-3.50775c-0.66211,-0.53011 -1.37955,-1.07954 -1.89178,-1.74721c-0.05384,-0.07018 0.73181,-1.83931 0.84743,-2.48355c0.40633,-2.26401 0.36824,-4.55659 0.44514,-6.8413c0.04152,-1.23446 0.1897,-2.46811 0.22257,-3.70189c0.00851,-0.32002 -0.41915,-2.40021 -0.23969,-2.61072c0.03237,-0.03797 1.35607,-0.35595 1.80622,-0.01338z" data-paper-data="{&quot;index&quot;:null}" fill="#e49633"/><path d="M249.26198,221.92338c-0.5027,3.81063 -1.45331,7.60329 -1.71201,11.44706c-0.03639,0.54088 -0.58386,1.6929 -0.23113,2.17563c0.73685,1.00838 2.30254,1.44142 3.36416,1.99488c0.44779,0.23345 0.85342,0.55704 1.30112,0.79663c0.65997,0.35313 1.32443,0.70406 1.97739,1.07107c0.3194,0.17952 0.59797,0.42231 0.90738,0.61588c0.00526,0.00342 0.18154,0.12742 0.17121,0.13388c-0.2048,0.12812 -3.32794,-0.76234 -3.87776,-0.84346c-0.08975,-0.01326 -0.94672,-0.26385 -1.01865,-0.06694c-0.04114,0.11255 2.50048,2.27778 2.7307,2.48355c0.34477,0.30814 0.72167,0.60468 1.03579,0.9439c0.12426,0.13419 0.53117,0.39042 0.35097,0.42173c-1.24434,0.21625 -4.5305,-2.51946 -5.52982,-2.12876c-0.06861,0.02681 0.01561,0.7874 0.0171,0.85017c0.01484,0.61511 -0.13355,1.19923 -0.14552,1.80741c-0.01013,0.51565 0.12387,1.00761 0.13696,1.51959c0.00257,0.10376 0.33503,1.84158 0.09416,1.70701c-0.05127,-0.02865 -0.99111,-3.19491 -1.13851,-3.51447c-0.55828,-1.21056 -1.04289,-2.54183 -1.6778,-3.7086c-0.45741,-0.84059 -1.23232,-1.51809 -1.46379,-2.48355c-0.02369,-0.09876 0.82019,-3.13368 0.86458,-3.62825c0.06799,-0.75772 -0.0829,-1.45147 -0.10272,-2.19568c-0.05311,-1.99355 0.17243,-3.99552 0.2996,-5.9848c0.04071,-0.63649 -0.48294,-4.05359 -0.23968,-4.35775c0.06082,-0.0761 3.34462,0.38826 3.88631,0.9439z" data-paper-data="{&quot;index&quot;:null}" fill="#e4b233"/><path d="M269.22699,111.47658c3.37438,0.41718 6.8135,0.74472 10.01372,1.96858c2.11884,0.89015 4.12624,2.11439 5.72139,3.78471c1.48252,1.43279 2.66049,3.14005 3.71377,4.90338c0.92004,1.51211 1.85312,3.03255 2.51989,4.67675c0.66536,1.77008 0.89639,3.65767 1.12038,5.52384c0.3959,3.63347 0.7543,7.27147 1.16147,10.904c0.513,4.66178 1.09493,9.31586 1.69974,13.96652c0.51728,2.68315 1.18815,5.33954 1.51031,8.05741c0.36453,2.47316 0.51471,4.98249 0.35151,7.47929c-0.10119,1.57394 -0.14577,3.15279 -0.07121,4.72849c0.02147,2.59977 -0.24124,5.22195 -1.03515,7.7072c-0.72864,2.45892 -1.70893,4.83624 -2.76795,7.16927c-1.27838,2.7496 -2.79258,5.40282 -4.67974,7.78289c-1.29249,1.69478 -2.74293,3.2641 -4.26505,4.75372c-1.89323,1.81537 -3.88794,3.52374 -5.97411,5.11419c-1.86689,1.44241 -3.809,2.78745 -5.8005,4.05116c-1.18588,0.72001 -2.56672,1.00885 -3.8982,1.33777c-2.97974,0.60173 -5.97625,1.12059 -8.97592,1.61456c-2.89683,0.46451 -5.80135,0.90225 -8.72534,1.15394c-3.42458,0.26271 -6.85156,-0.09906 -10.26943,-0.29331c-3.44075,-0.25171 -6.8862,-0.42996 -10.334,-0.55149c-1.99718,-0.07728 -4.01981,-0.16863 -5.94503,-0.75409c-2.01142,-0.53797 -3.95841,-1.34448 -6.03098,-1.6362c-0.51347,-0.04899 -1.05769,-0.1912 -1.54029,0.0705c-0.99945,0.41587 -1.68195,1.30254 -2.53447,1.93535c-1.55559,1.28975 -3.23357,2.4221 -4.95854,3.4717c-1.51044,1.00437 -2.88793,2.22335 -4.01421,3.64826c-0.3799,0.31763 -1.08074,0.12788 -1.16258,-0.38752c-0.60109,-1.98209 -1.13154,-4.01019 -1.25221,-6.08529c-0.04435,-1.69859 0.32077,-3.37023 0.50766,-5.05133c0.21303,-1.66267 0.4294,-3.38387 0.00958,-5.03252c-0.2428,-0.90832 -0.85881,-1.72206 -1.70992,-2.13936c-1.94066,-1.23074 -4.04765,-2.18623 -5.91766,-3.53076c-1.96576,-1.32965 -3.83881,-2.81097 -5.47081,-4.53991c-1.83256,-1.88806 -3.47064,-3.95648 -5.0214,-6.0793c-2.0807,-2.96841 -3.91235,-6.0994 -5.88773,-9.13712c-1.07997,-1.70457 -1.9475,-3.55466 -2.42886,-5.51956c-0.31471,-1.11516 -0.64607,-2.22916 -1.12679,-3.28591c-0.55461,-1.37331 -1.17485,-2.74841 -1.35667,-4.2328c-0.37694,-2.00428 -0.78663,-4.00724 -1.42064,-5.94845c-0.63333,-2.16985 -0.87856,-4.43515 -1.53648,-6.59628c-0.17951,-0.35494 -0.4616,-0.92598 0.00637,-1.18687c0.47097,-0.21694 0.61764,0.47969 0.8506,0.75276c0.28157,0.59587 0.57821,1.18456 0.92932,1.74122c1.7986,3.42193 3.69479,6.79469 5.7633,10.06118c0.89075,1.36441 2.0402,2.53375 3.20082,3.66832c0.70641,0.91346 1.19657,1.9705 1.89751,2.88635c0.39437,0.39579 1.04841,0.03348 1.16258,-0.44095c0.12372,-0.34306 -0.0798,-0.6834 -0.09354,-1.02891c-0.52882,-2.5122 -1.85257,-4.76526 -2.47307,-7.25052c-0.68332,-2.49308 -1.24857,-5.01669 -1.81049,-7.53958c-0.67092,-3.19021 -1.11866,-6.42352 -1.83538,-9.60493c-0.1802,-0.79313 -0.32388,-1.60443 -0.58916,-2.37061c-0.05046,-0.3678 0.45775,-0.73869 0.73677,-0.41242c0.30848,0.30219 0.3092,0.77252 0.51933,1.13402c1.21731,4.11427 2.38776,8.25497 4.01344,12.23172c1.25272,2.87596 2.63424,5.70087 4.23216,8.40164c1.29766,2.16733 2.76431,4.25401 4.55573,6.04381c0.56889,0.53135 1.15471,1.08411 1.85757,1.42487c0.48414,0.08697 0.71064,-0.50069 0.62807,-0.89533c-0.20986,-0.93304 -0.3328,-1.88601 -0.51587,-2.8264c-0.42531,-2.3964 -0.85637,-4.7969 -1.26136,-7.19365c-0.07569,-0.44168 0.48033,-0.8246 0.84187,-0.52314c0.34139,0.29407 0.59519,0.69238 0.89109,1.03695c1.36689,1.83448 2.34872,3.91937 3.69184,5.77057c1.66074,2.39144 3.45443,4.69342 5.41223,6.84899c0.45737,0.38959 1.11734,0.05373 1.44275,-0.35142c0.47768,-0.52006 0.93291,-1.05906 1.42389,-1.56624c2.42342,-2.71916 4.7798,-5.5016 7.31594,-8.11771c2.86377,-2.94994 6.05706,-5.5512 9.26241,-8.11642c3.5069,-2.77381 7.00379,-5.56018 10.47767,-8.37513c1.57864,-1.27534 3.15091,-2.56646 4.61089,-3.97709c0.87463,-0.86685 1.63761,-1.85693 2.13872,-2.98752c0.52292,-1.21368 0.83294,-2.50364 1.23835,-3.75871c0.95357,-3.16417 1.82187,-6.35382 2.78646,-9.51427c0.76328,-2.27483 1.49398,-4.58909 2.70582,-6.67367c0.95754,-1.64462 2.17417,-3.14223 3.64587,-4.3539c2.09323,-1.89798 4.36844,-3.58908 6.72456,-5.14455c1.48217,-0.8751 3.09045,-1.58792 4.80546,-1.83439c2.11632,-0.421 4.23969,-0.88724 6.40214,-0.96947c0.06306,0.00299 0.12612,0.00629 0.18918,0.00945zM192.81775,161.74614c0.00547,0.09939 -0.06841,-0.09646 0,0z" data-paper-data="{&quot;index&quot;:null}" fill="#004cff"/><path d="M287.54571,132.88262c2.27141,0.79253 4.18979,2.29099 6.26445,3.4655c1.68247,1.16395 3.35236,2.43125 4.56258,4.10178c1.05311,1.56299 1.87758,3.26466 2.84415,4.88071c1.30258,2.30113 2.65617,4.57455 4.03687,6.82804c1.03169,1.86009 1.86796,3.83218 2.38721,5.89757c0.4312,1.57792 0.53861,3.22006 0.67019,4.84394c0.10771,1.84008 0.10383,3.68307 0.07071,5.52512c0.0772,0.39752 -0.06731,1.00159 -0.58873,0.88635c-0.53635,-0.09401 -0.76426,-0.67857 -1.18319,-0.96721c-2.3766,-2.32024 -4.71438,-4.80588 -7.73286,-6.29567c-2.73601,-1.42787 -5.7633,-2.12068 -8.67659,-3.0816c-3.31088,-1.04037 -6.69506,-2.02122 -9.69686,-3.80892c-2.4419,-1.53913 -4.55274,-3.68581 -5.82616,-6.29396c-0.48598,-1.06025 -0.01753,-2.24597 0.53451,-3.18033c1.25084,-2.04204 2.45177,-4.11855 3.83996,-6.07331c1.14086,-1.622 2.32046,-3.22844 3.6699,-4.68359c1.29279,-1.22236 2.99077,-2.18054 4.82384,-2.04448z" data-paper-data="{&quot;index&quot;:null}" fill="#ff7700"/><path d="M276.73151,149.1531c3.58087,3.44472 8.70695,4.52238 13.1143,6.46671c1.97307,0.8704 4.26107,0.79497 6.19775,1.64676c0.63748,0.28041 1.11751,0.88729 1.66066,1.31207c1.76192,1.37784 3.63864,2.73276 5.22152,4.3244c1.16899,1.17537 2.34479,2.38327 3.37271,3.68179c0.06058,0.07653 1.20423,1.84761 1.12995,1.84761c-0.14021,0 -3.08955,-2.65412 -3.54389,-2.9053c-3.5426,-1.95836 -8.88355,-3.87203 -12.8231,-5.18132c-1.96191,-0.65206 -4.08532,-0.94292 -5.99207,-1.74049c-2.50989,-1.04986 -5.15952,-3.10165 -6.96787,-5.11419c-0.88853,-0.98884 -2.74422,-2.8506 -2.92757,-4.2842c-0.05246,-0.41024 0.29083,-0.77504 1.55795,-0.05355z" data-paper-data="{&quot;index&quot;:null}" fill="#b5631a"/><path d="M279.02348,140.88744c-0.35699,0.39541 -0.6979,0.80634 -1.08236,1.17592c0.32749,-0.52506 0.71068,-1.0192 1.17592,-1.42983c-0.03117,0.08463 -0.06236,0.16926 -0.09354,0.25389zM277.94112,142.06336c-0.80762,2.55744 0.18596,5.46525 2.1418,7.23384c1.12658,1.12127 2.39276,2.08655 3.61752,3.09554c-2.78539,-1.24327 -5.58627,-2.50698 -8.13909,-4.18735c-0.74207,-0.56299 -1.35958,-1.56483 -0.97824,-2.50869c0.43539,-1.2992 1.65112,-2.06988 2.58737,-2.98419c0.25365,-0.22024 0.51266,-0.43411 0.77072,-0.64915zM287.0543,153.79606c3.74426,1.07971 7.66615,1.70038 11.1704,3.4809c2.65639,1.30489 4.71651,3.48676 6.7592,5.57216c1.30882,1.35359 2.59374,2.81567 3.26372,4.60363c-0.01843,0.47092 -0.76858,0.56 -0.93539,0.13363c-2.69838,-2.94853 -5.41608,-5.90655 -8.52564,-8.432c-1.93039,-1.4882 -4.12449,-2.59947 -6.41155,-3.42749c-1.82567,-0.69003 -3.67734,-1.30831 -5.50802,-1.98444c0.06236,0.01783 0.12472,0.03562 0.18708,0.05345z" data-paper-data="{&quot;index&quot;:null}" fill="#b5631a"/><path d="M286.11306,133.59647c0.90687,0.54905 1.50133,1.57539 2.39683,2.32956c0.95233,0.80202 2.2319,1.22775 3.15014,2.04841c4.36844,3.90363 8.02162,8.73047 11.33374,13.5355c1.51805,2.20218 2.42877,4.85095 3.08164,7.43054c0.21797,0.86129 0.34308,1.72698 0.41089,2.61076c0.02298,0.2995 0.26844,1.13534 0.0856,0.89704c-0.60707,-0.79129 -0.77098,-1.94656 -1.38673,-2.7848c-1.43013,-1.94686 -3.41556,-3.39713 -4.62244,-5.5294c-0.74481,-1.31592 -0.80014,-3.08391 -1.52369,-4.07006c-1.50026,-2.04482 -3.60242,-5.11795 -5.4272,-6.78785c-0.73702,-0.67447 -3.60079,-2.34115 -3.95477,-3.07933c-0.1456,-0.30364 0.675,-0.58169 0.61635,-0.85684c-0.08672,-0.40681 -1.93168,-0.29227 -2.24276,-0.53554c-0.13222,-0.10335 2.58386,-1.08655 2.67075,-1.24511c0.12584,-0.22967 -2.42616,-0.80918 -2.6879,-0.9238c-0.63559,-0.27833 -0.82892,-0.69465 -0.83888,-1.37899c-0.00492,-0.33914 0.32708,-0.92778 0,-1.01754c-0.39558,-0.10853 -0.62909,0.53061 -0.97584,0.74977c-0.29903,0.18897 -1.50105,0.5517 -1.88323,0.58907c-0.40922,0.04002 0.56646,-0.61447 0.92449,-0.81669c0.29702,-0.16775 0.61945,-0.29019 0.92449,-0.4418" data-paper-data="{&quot;index&quot;:null}" fill="#ff9700"/><path d="M294.32329,135.94429c2.17392,1.9026 3.49595,4.52794 5.32243,6.72841c2.30074,2.98556 4.58481,6.02713 6.25547,9.42063c1.45759,3.1126 2.25174,6.55779 2.13248,10.00175c0.03481,0.36102 0.11043,0.98705 -0.34743,1.08236c-0.49923,-0.02142 -0.54546,-0.62636 -0.55769,-1.00984c-0.57492,-4.16131 -1.80151,-8.27678 -3.94626,-11.90845c-1.96614,-3.31225 -4.0834,-6.53171 -6.27771,-9.69643c-1.0762,-1.59566 -2.2334,-3.14647 -3.19633,-4.8123c-0.02454,-0.4486 0.5089,0.12773 0.61541,0.19346z" data-paper-data="{&quot;index&quot;:null}" fill="#ffcb00"/><path d="M287.53288,133.35726c0.33196,0.40725 0.76841,0.85355 1.0101,1.25849c0.42123,0.70589 3.01827,1.14227 3.01318,1.17819c-0.21605,1.52057 -4.32354,-1.07941 -4.63954,-1.82084c-0.14675,-0.34428 -0.2511,-0.70513 0.61631,-0.61588z" data-paper-data="{&quot;index&quot;:null}" fill="#ffcb00"/><path d="M271.16833,128.11052c2.54615,2.24267 0.4776,5.50459 -2.56646,5.6611c-0.60626,0.03117 -1.31139,-0.01385 -1.81588,-0.38815c-0.26861,-0.19928 -1.24879,-2.30994 -1.0653,-2.30994c0.0802,0 0.49397,0.64295 0.56897,0.71004c0.38083,0.34036 0.90627,0.46464 1.40426,0.50175c1.23916,0.09229 3.73746,-2.41256 3.35334,-3.52173c-0.11872,-0.3428 -0.37931,-0.61849 0.12106,-0.65321z" data-paper-data="{&quot;index&quot;:null}" fill="#082f8c"/><path d="M285.0271,126.82342c0.41163,0.3926 2.16823,1.57475 2.71172,0.93723c0.42957,-0.50389 0.68447,-1.22493 0.62952,-1.88395c-0.02437,-0.2921 -0.41417,-0.87095 -0.12106,-0.87095c0.33122,0 0.47447,0.7809 0.50843,0.98457c0.36203,2.17058 -1.07381,3.42014 -3.05068,2.35727c-0.46956,-0.25246 -0.78376,-0.55311 -0.89584,-1.08869c-0.20231,-0.96682 0.43137,1.11811 0.21791,-0.43548z" data-paper-data="{&quot;index&quot;:null}" fill="#082f8c"/><path d="M268.20073,188.00981c0.41365,2.41911 -3.68354,5.9198 -5.133,7.54514c-0.9947,1.11541 -1.85915,2.35013 -2.91753,3.40812c-1.91675,1.91615 -4.0964,3.56856 -6.29524,5.1407c-0.69238,0.49504 -1.40546,1.23523 -2.20329,1.56205c-1.41384,0.57915 0.54494,-2.69726 -1.39216,-2.21526c-0.52887,0.13159 -1.03592,0.32987 -1.52536,0.56803c-1.61858,0.78757 -2.92013,2.08399 -4.55188,2.84958c-0.51356,0.24098 0.1925,-1.20299 -1.25901,-0.16094c-1.09356,0.78509 -3.82311,3.3078 -4.97564,3.62586c-0.72043,0.19885 1.57958,-3.41073 -0.42371,-3.33239c-1.62863,0.06368 -6.07545,2.49419 -7.85687,3.35133c-2.19183,1.05478 0.45262,-3.79044 -1.93694,-2.0733c-0.91807,0.65976 -1.86745,1.22762 -2.90542,1.68512c-0.7472,0.32934 -1.72279,0.52562 -2.36065,1.06979c-0.90931,0.77572 -1.68845,3.49796 -2.66331,3.82469c-0.40551,0.13591 -0.82571,-0.24712 -1.16215,-0.37868c-0.35432,-0.13854 -0.89118,-0.40423 -0.98059,-0.82362c-0.10665,-0.50043 1.74404,-1.85766 2.03379,-2.13954c1.16147,-1.12983 2.77321,-1.79005 4.05548,-2.79279c1.47811,-1.15591 3.03063,-2.09883 4.6002,-3.11465c0.68918,-0.44604 1.35381,-1.10041 2.07009,-1.46738c0.36545,-0.18724 0.75892,-0.29777 1.11375,-0.51121c0.09031,-0.05433 0.20955,-0.2592 0.26633,-0.17041c0.02561,0.04007 -0.22726,0.33485 -0.24212,0.35975c-0.23088,0.3869 -0.42493,0.85368 -0.46002,1.30643c-0.11465,1.47931 3.69051,0.77051 4.46722,0.68161c2.3326,-0.26695 4.99788,-0.19611 7.15473,-1.24019c1.10366,-0.5343 1.99804,-1.32768 2.99013,-2.02596c1.18045,-0.8308 2.20085,-1.86475 3.35334,-2.73596c0.07446,-0.05629 0.96644,-0.77855 1.029,-0.71004c0.20097,0.22002 -1.93009,2.7319 -1.12585,2.77385c0.39056,0.02035 0.77748,-0.27234 1.15005,-0.35975c0.36262,-0.08507 0.73117,-0.0965 1.07744,-0.24614c3.11846,-1.34769 4.85164,-3.14531 7.29969,-5.34895c1.2422,-1.11807 2.6563,-2.05307 3.84967,-3.22827c1.64043,-1.61546 2.96751,-3.68713 5.85908,-4.67675z" data-paper-data="{&quot;index&quot;:null}" fill="#082f8c"/><path d="M296.22187,185.34582c0.32728,0.5623 -0.07096,1.18794 -0.38752,1.65698c-2.30887,4.28891 -4.43044,8.68514 -6.98626,12.83593c-1.66143,2.42342 -3.70638,4.54718 -5.69018,6.70361c-1.7227,1.82691 -3.49557,3.70343 -5.75988,4.85891c-0.97657,0.49141 -1.99898,0.88579 -3.00484,1.31293c-3.78065,1.55606 -7.64092,2.96875 -11.65103,3.80904c-3.0426,0.62773 -6.13019,0.99748 -9.20682,1.41264c-4.16546,0.44343 -8.35375,0.69354 -12.54302,0.71004c-3.55787,-0.00842 -7.06408,-0.69063 -10.56191,-1.2667c-2.69966,-0.4761 -5.41651,-0.86479 -8.09932,-1.42765c-0.97606,-0.26067 -1.9215,-0.62426 -2.83162,-1.05965c-0.67613,-0.2278 -1.28663,-0.66108 -2.01083,-0.73587c-0.46738,-0.11492 -0.54045,-0.83191 -0.06371,-0.9971c0.70252,-0.33409 1.50415,-0.11742 2.24182,-0.04522c1.62748,0.27248 3.19958,0.8131 4.83966,1.02318c3.85707,0.56855 7.73714,0.96447 11.60998,1.40884c1.92894,0.18669 3.86044,0.36955 5.79708,0.43637c2.58741,-0.10317 5.09922,-0.78517 7.62938,-1.27372c3.74375,-0.78205 7.53958,-1.31092 11.35427,-1.58933c2.89443,-0.27949 5.87961,-0.42816 8.58594,-1.59549c2.12521,-0.91085 4.08909,-2.14638 6.04937,-3.36121c2.38609,-1.60404 4.69,-3.35103 6.71943,-5.3947c2.18542,-2.13351 4.13929,-4.49416 5.92536,-6.96872l7.71062,-10.34597c0.09516,-0.05924 0.21564,-0.15704 0.33407,-0.1069z" data-paper-data="{&quot;index&quot;:null}" fill="#082f8c"/><path d="M274.59348,150.43596c2.23962,0.02989 1.67259,1.16506 2.4575,2.48038c0.76157,1.2762 2.03328,2.32862 3.34124,3.01053c3.42172,1.78402 6.97351,3.59148 10.79838,4.41163c0.80972,0.17361 2.82922,0.55576 3.4744,1.0603c0.37937,0.29655 1.80994,4.11846 1.90063,4.49672c0.17278,0.72056 0.22145,1.39225 0.19369,2.13009c-0.01392,0.37014 0.10421,2.30084 -0.33896,2.50877c-0.09155,0.04293 -0.48874,-0.59212 -0.54477,-0.66271c-1.21962,-1.53661 -2.69889,-2.76649 -3.97072,-4.24123c-1.08565,-1.25883 -2.66596,-1.69174 -4.15233,-2.31943c-4.38768,-1.85282 -12.40281,-3.7886 -13.17118,-9.30603c-0.16577,-1.19025 -0.36351,-2.39392 0.0121,-3.56907z" data-paper-data="{&quot;index&quot;:null}" fill="#082f8c"/><path d="M172.60046,160.14262c1.55606,3.54953 2.38391,7.37452 4.03653,10.88604c1.18302,2.62577 2.53332,5.17405 3.94686,7.68197c1.44767,2.50104 2.8955,5.00472 4.51383,7.40061c1.85081,2.76098 3.91129,5.3994 6.32004,7.69865c1.98688,1.95087 4.11525,3.75807 6.38675,5.3699c2.16874,1.53605 4.47577,2.88554 6.51033,4.60491c0.51044,0.39866 0.58317,1.10434 0.43099,1.69358c-0.08687,0.32594 -0.19958,0.67648 -0.44873,0.91303c-0.43693,0.2403 -0.91196,-0.0525 -1.29086,-0.26655c-2.15591,-1.02609 -4.3415,-1.98902 -6.49451,-3.02105c-1.24276,-0.65048 -2.48701,-1.30685 -3.67302,-2.05645c-2.09352,-1.42081 -3.93108,-3.19346 -5.57943,-5.10564c-2.34795,-2.80968 -4.14651,-6.01687 -5.98138,-9.1709c-1.48974,-2.61371 -2.92283,-5.26684 -4.09875,-8.0386c-0.9114,-2.23134 -1.60789,-4.54205 -2.28779,-6.85199c-1.0508,-3.80507 -1.94604,-7.65632 -2.59836,-11.55011c0.02219,-0.14171 0.16677,-0.24535 0.30734,-0.18708z" data-paper-data="{&quot;index&quot;:null}" fill="#082f8c"/><path d="M269.34672,186.60298c-0.04912,0.04879 -0.04912,-0.04879 0,0zM268.53161,186.8836c0.46926,0.14069 0.55508,0.92013 0.09354,1.12247c-1.81682,1.54456 -3.77013,2.95101 -5.37161,4.7302c-1.50394,1.75537 -3.0187,3.57202 -4.99788,4.8123c-1.99287,1.18785 -4.06758,2.23062 -6.09769,3.35227c-0.80514,0.43133 -1.60327,0.87566 -2.41427,1.29608c-0.44587,0.04906 -0.79296,-0.38959 -0.746,-0.81233c-0.12356,-0.44441 -0.77307,-0.63957 -1.09805,-0.29677c-1.81023,1.11341 -3.20868,2.85663 -5.22408,3.63937c-2.24084,0.96212 -4.67589,1.32982 -7.07862,1.6309c-1.31725,0.13367 -2.6687,0.41445 -3.98116,0.10685c-0.54152,-0.10325 -1.09673,-0.69512 -0.84688,-1.26136c0.21973,-0.29643 0.26854,-0.89438 -0.18708,-0.98884c-0.48016,-0.02758 -0.81793,0.39167 -1.24348,0.54708c-1.66121,0.95455 -3.34368,1.91791 -4.73319,3.25581c-1.11623,1.04576 -2.1761,2.16096 -3.42912,3.04876c-1.37767,1.05581 -2.97598,1.77538 -4.36588,2.81537c-1.39618,0.96605 -2.5659,2.20817 -3.66486,3.4918c-0.38465,0.40896 -0.728,0.8677 -1.13791,1.24622c-0.3545,0.16409 -0.83482,-0.03754 -1.10913,0.30734c-0.35322,0.72176 -0.67746,1.56825 -1.43646,1.95096c-0.45989,0.24539 -0.97944,-0.09534 -1.43651,0.12028c-0.518,0.30184 -0.52814,0.97396 -0.78624,1.4587c-0.25229,0.63649 -0.54982,1.2948 -1.04447,1.77509c-0.4678,0.20695 -0.96584,-0.28753 -0.90131,-0.75943c-0.00924,-1.0098 0.61858,-1.87138 1.12589,-2.69555c1.0963,-1.66536 2.45118,-3.18611 3.22301,-5.04363c0.03335,-0.33007 0.30923,-0.75079 0.68152,-0.56124c0.33665,0.20621 0.52857,0.7918 1.0228,0.61571c0.57697,-0.13183 0.91166,-0.67374 1.30908,-1.06372c0.74181,-0.85492 1.34649,-1.81733 2.09023,-2.67097c1.16634,-1.44882 2.61208,-2.64719 4.16785,-3.65694c1.88271,-1.31122 3.80212,-2.56954 5.7757,-3.7405c1.50535,-0.89601 3.05791,-1.71911 4.6605,-2.428c0.81092,-0.32939 1.61691,-0.72501 2.48804,-0.85924c0.46246,-0.10399 1.08373,0.07926 1.16258,0.61469c0.10405,0.60096 -0.24169,1.30865 0.22717,1.81733c0.30866,0.33738 0.83127,0.31973 1.25383,0.32758c1.15326,-0.09735 2.28428,-0.38176 3.39003,-0.71415c2.11405,-0.7085 4.12949,-1.67263 6.15413,-2.59917c2.25546,-1.0532 4.49972,-2.1303 6.72071,-3.25469c0.23267,-0.31317 0.91889,-0.36838 0.98884,0.1069c-0.00765,0.33911 -0.57317,0.87933 -0.04007,1.06902c0.49705,0.05934 0.72702,-0.4962 1.02882,-0.79167c1.41363,-1.69529 2.9623,-3.29386 4.755,-4.59208c3.10345,-2.26333 6.26317,-4.51169 9.7858,-6.08315c0.39665,-0.16063 0.79492,-0.37181 1.22745,-0.39957l0.04007,0.01334z" data-paper-data="{&quot;index&quot;:null}" fill="#082f8c"/><path d="M250.99807,219.17814c-0.12462,0.80365 0.64252,5.14883 0.42371,5.49091c-0.29815,0.46631 -1.9481,-2.1637 -2.11854,-2.40461c-0.28082,-0.39699 -0.56449,-0.87621 -0.56897,-0.87095c-0.10455,0.12265 -0.18031,1.88601 -0.30264,1.81768c-0.43454,-0.24272 -0.25513,-1.57077 -0.99269,-1.67567c-0.29894,-0.0425 -1.19538,2.25251 -1.47691,1.83662c-0.16609,-0.24533 -0.18383,-2.48722 -0.44792,-2.40461c-0.07495,0.02343 -1.21381,2.01292 -1.53746,2.33837c-0.02959,0.02972 -0.73121,-0.27594 -0.89584,-0.25561c-0.23456,0.02895 -0.41912,0.5148 -0.60528,0.36921c-0.20042,-0.15674 0.54507,-1.17964 0.38739,-1.46738c-0.0233,-0.04255 -0.33263,0.4306 -0.35107,0.45442c-0.07304,0.09424 -0.73891,0.84902 -0.79899,0.42602c-0.03844,-0.27051 0.52626,-4.14403 0.84743,-4.26962c0.20431,-0.07989 2.39011,0.17988 2.76012,0.17988c1.37373,0 2.70167,-0.32203 4.03127,-0.41655c0.60477,-0.043 1.17498,0.12687 1.64638,0.85205z" data-paper-data="{&quot;index&quot;:null}" fill="#082f8c"/><path d="M262.13725,217.69434c-0.09873,0.07782 0.9717,2.21877 0.95639,2.22476c-0.22517,0.08804 -1.37262,-1.46558 -1.39216,-1.45793c-0.16811,0.06573 -0.08362,1.59258 -0.2058,1.36326c-0.13196,-0.24767 -0.45634,-1.28257 -0.83529,-1.24964c-0.24403,0.02121 -0.5514,0.77718 -0.66583,0.95617c-0.93467,1.46191 -0.51279,-0.80514 -1.01689,-0.35028c-0.48734,0.43975 -0.19998,1.61567 -0.85953,1.8934c-0.30326,0.1277 -0.8039,-1.3754 -0.90794,-1.56205c-0.52536,-0.94253 -0.59758,0.93077 -0.72633,0.88044c-0.09959,-0.03896 0.40779,-2.56257 0.50843,-2.64129c0.67049,-0.52433 2.35103,-0.10362 3.13543,-0.21774c0.54918,-0.0799 0.96357,-0.30943 2.00959,0.16094z" data-paper-data="{&quot;index&quot;:null}" fill="#082f8c"/><path d="M244.9688,218.14761c0.43338,0.11214 0.87433,0.20482 1.29531,0.35975c2.75794,1.01493 -1.43313,2.33136 -2.88118,0.88044c-0.62439,-0.62563 0.34576,-0.91016 1.58587,-1.24019z" data-paper-data="{&quot;index&quot;:null}" fill="#082f8c"/><path d="M268.40598,127.37076c0.72236,0.06954 1.09262,0.42281 1.59797,0.92778c4.00587,4.00288 -4.54333,6.05022 -3.61966,0.99402c0.19076,-1.04426 1.00719,-0.96686 2.02169,-1.9218z" data-paper-data="{&quot;index&quot;:null}" fill="#ffffff"/><path d="M286.94278,123.83872c1.37865,0.34 1.08074,3.13253 -0.50843,2.84013c-2.12076,-0.39023 -2.67836,-2.61444 0.50843,-2.84013z" data-paper-data="{&quot;index&quot;:null}" fill="#ffffff"/><path d="M272.49819,127.44345c-0.65903,-1.48149 -2.84021,-2.9525 -4.46722,-2.2437c-0.40106,0.17474 -0.96314,1.19461 -0.99269,1.2023c-0.11072,0.02886 0.09408,-0.88284 0.12106,-0.93723c0.45361,-0.91478 1.63812,-1.38455 2.57856,-1.57154c1.85094,-0.368 3.90509,1.87553 2.37275,3.38922" data-paper-data="{&quot;index&quot;:null}" fill="#16a6ea"/><path d="M283.16331,121.90623c0.42953,-0.23993 0.6777,-0.70386 1.10165,-0.97512c1.00313,-0.6418 2.37297,-0.59934 3.38965,-0.00945c1.61144,0.93492 0.79434,2.87884 0.64163,2.7833c-0.16899,-0.1057 -0.29253,-0.60899 -0.39949,-0.77628c-0.63953,-1.00029 -1.94048,-1.50612 -3.07488,-1.06979" data-paper-data="{&quot;index&quot;:null}" fill="#16a6ea"/><path d="M284.89454,119.99452c-1.39289,-1.6663 -3.01977,-3.06898 -4.99959,-3.9856c-1.56141,-0.72287 -3.11251,-1.14009 -4.81828,-1.27803c-0.14013,-0.01133 -1.11862,0.01321 -1.18636,-0.19881c-0.0681,-0.21302 0.88036,-0.64718 1.01689,-0.70055c1.25439,-0.49047 2.57531,0.00496 3.77702,0.45442c2.78309,1.04088 5.36904,2.4791 7.25137,4.84693c0.66882,0.8414 1.16882,1.90666 1.90063,2.66973" data-paper-data="{&quot;index&quot;:null}" fill="#16a6ea"/><path d="M290.65869,128.846c0.15209,0.56692 0.30418,1.14308 0.33896,1.73245c0.03233,0.54794 -0.0387,1.09947 -0.04842,1.64727c-0.00449,0.25189 0.30946,1.74815 0.16948,1.91235c-0.05097,0.05979 -0.69221,-0.27689 -0.73848,-0.29348c-0.38765,-0.13894 -0.8872,-0.07952 -1.18636,-0.40708c-0.47653,-0.52172 -0.51103,-3.98047 0.06053,-4.69556c0.23076,-0.28873 0.57607,-0.46336 1.40426,0.10414z" data-paper-data="{&quot;index&quot;:null}" fill="#16a6ea"/><path d="M183.17947,162.19941c1.18695,2.13227 2.24486,4.35861 3.60756,6.39017c1.55273,2.31507 3.26218,4.5211 4.80588,6.84472c0.84547,1.2726 1.72343,2.51989 2.59066,3.77736c0.41978,0.6087 0.95639,1.24511 0.95639,1.2118c0,-0.10762 -0.9888,-0.4994 -1.0774,-0.54909c-0.85038,-0.47678 -1.57847,-1.16408 -2.2759,-1.83662c-1.39935,-1.34932 -2.90282,-2.6864 -4.06758,-4.25068c-1.39165,-1.86903 -2.38083,-4.03713 -3.45015,-6.09683c-0.64988,-1.25174 -1.41957,-2.43005 -1.91273,-3.75842c-0.34082,-0.91803 -0.42932,-1.88336 -0.69003,-2.82118" data-paper-data="{&quot;index&quot;:null}" fill="#16a6ea"/><path d="M175.66213,164.96175c0.74703,2.05239 2.20825,3.703 3.43805,5.4721c1.3674,1.96678 2.69962,3.80024 4.37015,5.52854c1.44125,1.49124 2.88695,2.97675 4.22494,4.563c0.24725,0.29314 0.48803,0.591 0.75058,0.87095c0.04833,0.05154 0.20321,0.08824 0.15737,0.142c-0.21398,0.25101 -2.54807,-2.36736 -2.78437,-2.59395c-4.02905,-3.86421 -6.39316,-6.78699 -9.12772,-11.77717c-0.68246,-1.24528 -1.94314,-3.1451 -2.2638,-4.50613" data-paper-data="{&quot;index&quot;:null}" fill="#16a6ea"/><path d="M195.73404,169.59275c0.70726,1.65758 1.51091,3.27188 2.42116,4.82812c0.52921,0.90482 1.10135,1.78492 1.71903,2.63184c3.14728,4.31499 -1.57603,-0.89195 -2.15484,-1.77979c-1.05243,-1.61439 -1.6232,-3.48051 -2.22749,-5.29207" data-paper-data="{&quot;index&quot;:null}" fill="#16a6ea"/><path d="M239.76469,155.25027c0.65372,-0.49543 0.37559,-0.58728 0.09684,-0.55854c-0.36005,0.0372 -4.14497,4.04166 -4.6729,4.49672c-1.52036,1.31053 -2.69863,2.967 -4.24918,4.24123c-1.63774,1.34577 -3.4617,2.24306 -4.78194,3.9667c-1.42496,1.86048 -2.32824,4.06001 -3.59545,6.02114c-0.84765,1.31182 -1.86895,2.49928 -2.69962,3.82469c-1.99056,3.1767 -3.44678,6.72794 -4.96324,10.14884c-1.15937,2.61525 -2.26256,5.32752 -2.97803,8.10359c-0.03032,0.11763 -0.35425,1.09092 -0.2179,1.24019c0.00712,0.00783 0.24453,-0.52822 0.33896,-0.82362c0.20786,-0.65026 0.43635,-1.27752 0.69003,-1.91235c1.07706,-2.69521 2.10028,-5.40654 2.99013,-8.16987c0.72462,-2.25007 1.51467,-4.4437 2.46961,-6.60782c2.10853,-4.77809 4.1011,-9.67373 7.48143,-13.72706c3.78732,-4.54119 8.81898,-7.69596 14.09139,-10.24334z" data-paper-data="{&quot;index&quot;:null}" fill="#16a6ea"/><path d="M266.45609,176.38743c-2.4959,3.96581 -5.68547,7.86627 -9.73321,10.31903c-1.79377,1.08694 -3.78099,1.7833 -5.67778,2.66023c-2.30164,1.06419 -4.97864,2.5376 -7.55412,2.71702c-1.60798,0.11205 -3.32846,0.06288 -4.9393,-0.02839c-0.77264,-0.04378 -1.66694,-0.26832 -2.43326,-0.0852c-0.61687,0.1474 -1.26563,1.80057 -2.37275,2.25315c-1.84791,0.75541 -3.74867,1.39507 -5.59311,2.18687c-1.13419,0.48696 -2.17836,1.13658 -3.28069,1.68512c-0.81271,0.40444 -1.67793,0.62597 -2.50591,0.98457c-3.11709,1.35009 -4.98206,4.84736 -7.36041,7.13806c-0.70166,0.67588 -1.51117,1.2304 -2.17905,1.94074c-0.22869,0.24323 -0.42421,0.51711 -0.59318,0.80472c-0.04347,0.07399 -0.16014,0.30361 -0.12106,0.22721c0.97114,-1.89862 2.07655,-3.71052 3.12333,-5.5666c1.08056,-1.91602 1.77577,-4.07352 3.4744,-5.55719c1.3698,-1.19645 3.06231,-1.58604 4.68487,-2.29104c1.33563,-0.58026 2.76564,-1.37797 3.92232,-2.2626c1.14432,-0.87523 1.83726,-2.11384 2.73592,-3.20932c1.25815,-1.5337 3.1457,-3.15019 5.133,-3.61641c3.50219,-0.82165 6.86011,1.12093 10.35067,0.71004c3.48158,-0.40986 5.9476,-3.67584 8.60732,-5.65169c2.44391,-1.81562 4.84266,-3.89414 7.52975,-5.34895c0.69144,-0.37435 1.64766,-0.42192 2.2759,-0.8615c1.35496,-0.94809 1.64514,-3.04589 2.34855,-4.42104c0.22205,-0.43411 0.3472,-0.91072 0.56897,-1.34431c0.0883,-0.17263 0.32833,-0.64517 0.36318,-0.45442c0.09136,0.50013 -0.40341,1.36758 -0.52057,1.83662c-0.35796,1.43326 -0.41524,2.98338 -0.99269,4.35476c-0.34841,0.82746 -1.07103,1.44446 -1.33166,2.30049" data-paper-data="{&quot;index&quot;:null}" fill="#16a6ea"/><path d="M284.2403,172.06432c1.83606,0.83841 5.97026,1.22133 7.05767,2.9537c0.58035,0.92453 0.04398,2.45661 -0.09685,3.42706c-0.59249,4.08323 -2.50505,7.40916 -4.97564,10.68848c-0.9185,1.21907 -1.86044,2.42047 -2.80857,3.61641c-0.01385,0.01745 -0.68627,0.95853 -0.81109,0.88044c-0.1088,-0.06807 1.38746,-2.17084 1.47691,-2.30049c1.28312,-1.86001 2.38383,-3.76149 3.05068,-5.93562c1.14317,-3.72737 1.06928,-7.76151 -1.13795,-11.08573c-0.4199,-0.63243 -0.95737,-1.42316 -1.53746,-1.9218c-0.298,-0.25615 -0.72445,-0.36417 -0.96845,-0.67216c-0.55525,-0.70076 -0.16959,-1.21483 -1.34376,-1.98808" data-paper-data="{&quot;index&quot;:null}" fill="#16a6ea"/><path d="M283.17556,121.35432c-0.70919,-1.95562 -2.33264,-3.24362 -4.05548,-4.29789c-2.20684,-1.3506 -4.75329,-2.41902 -7.27575,-3.00104c-0.66685,-0.15388 -1.35278,-0.25922 -2.03379,-0.32188c-0.34376,-0.03164 -0.65373,0 -0.99269,0.01894c-0.05247,0.00299 -0.15738,0.06202 -0.15738,0.00945c0,-0.57547 4.56471,-0.35996 5.1206,-0.36921c3.67161,-0.06109 11.22,3.76936 12.19067,7.56395" data-paper-data="{&quot;index&quot;:null}" fill="#16a6ea"/><path d="M286.54083,123.15454c-0.68503,-0.05977 -1.36723,0.05373 -2.00959,0.29348c-0.65142,0.24313 -1.41641,0.66856 -1.41641,1.45793c0,0.16286 0.09876,-0.31202 0.12106,-0.47336c0.06697,-0.48439 0.01505,-0.97016 0.18159,-1.43899c0.4204,-1.18353 1.65164,-1.75465 2.80857,-1.2118" data-paper-data="{&quot;index&quot;:null}" fill="#16a6ea"/><path d="M289.66664,124.54427c0.391,0.46524 0.78693,0.93736 0.95639,1.53366c0.11953,0.42065 -0.34527,1.88849 -0.78688,1.54315c-0.13234,-0.10349 -0.29439,-1.26563 -0.39949,-1.49577c-0.14146,-0.30974 -0.86595,-1.00082 -0.85953,-1.27803c0.00629,-0.27068 0.34555,-0.55388 0.2058,-0.78577c-0.12098,-0.20075 -0.47918,0.03438 -0.70213,-0.03789c-0.12359,-0.04002 -0.45014,-0.60002 -0.60528,-0.72899" data-paper-data="{&quot;index&quot;:null}" fill="#16a6ea"/><path d="M290.91098,128.67068c0.46951,0.84983 0.69204,1.79014 0.90794,2.72651c0.15516,0.67288 0.80865,3.23019 0.06053,3.8152c-0.07292,0.05703 -1.0948,-0.53832 -1.2227,-0.58693c-2.31913,-0.88228 -2.14274,-1.35966 -2.14274,-3.66374c0,-0.76589 -0.18194,-1.65356 0.0242,-2.39516" data-paper-data="{&quot;index&quot;:null}" fill="#16a6ea"/><path d="M275.12473,129.68748c-0.34504,-1.65275 -1.90067,-3.3604 -3.42595,-4.13711c-0.46797,-0.23831 -1.10947,-0.3216 -1.46481,-0.73844c-0.62918,-0.73805 1.65813,-0.41131 1.79168,-0.37868c1.50749,0.36834 4.5009,2.39298 4.62458,4.06133c0.13102,1.76794 -1.91239,3.36339 -3.00228,4.44969c-0.10883,0.10848 -1.27004,1.39303 -1.2348,1.43899c0.46528,0.60643 2.37114,-2.31042 2.49381,-2.69812c0.32109,-1.01488 0.35944,-2.12662 -0.12106,-3.09571" data-paper-data="{&quot;index&quot;:null}" fill="#16a6ea"/><path d="M284.69795,136.62849c-0.04182,-0.53408 0.71346,-0.59317 0.75528,-0.05913c0.03504,0.40306 -0.07094,0.78421 -0.25538,1.13833c-0.17036,0.28478 -0.41823,0.49081 -0.72099,0.61871c-0.54556,0.12024 -0.69994,-0.26388 -0.61841,-0.71761c0.05851,-0.29248 0.20228,-0.55362 0.35716,-0.80463c0.15079,-0.24322 0.32585,-0.47116 0.52664,-0.67506c0.20589,-0.20422 0.4848,-0.2946 0.75451,-0.14041c0.0548,0.03133 0.09445,0.08376 0.14167,0.12567c0.20898,0.2791 0.19268,0.58717 0.08423,0.902c-0.14628,0.35338 -0.40338,0.63156 -0.68828,0.87831c-0.2897,0.224 -0.68565,0.37374 -0.98807,0.0564c-0.06642,-0.06969 -0.08564,-0.17245 -0.12845,-0.25867c-0.06288,-0.43364 0.11167,-0.81485 0.38068,-1.14308c0.18592,-0.18595 0.39188,-0.30623 0.65621,-0.21802c0.4784,0.15964 -0.07667,0.01169 0.23068,0.09041c0.01787,-0.00158 0.0201,0.02369 0.00214,0.0254c-0.02008,0.01167 -0.04937,0.01441 -0.06023,0.03494c-0.03305,0.06223 -0.02365,0.20403 -0.03434,0.26683c-0.01181,0.06936 -0.04554,0.13382 -0.0795,0.19411c-0.01715,0.03044 -0.03656,0.05955 -0.05482,0.08931c-0.05464,0.09337 -0.11062,0.18708 -0.15021,0.28819c-0.01807,0.04617 -0.01269,0.10426 -0.0451,0.14176c-0.00479,0.00556 -0.01159,-0.00902 -0.01736,-0.01356c-0.09624,-0.1182 -0.08606,-0.13883 -0.26991,-0.17625c-0.12298,-0.02502 -0.17777,0.08742 0.00517,-0.03712c0.17739,-0.14108 0.32642,-0.31306 0.43539,-0.51266c0.02152,-0.0487 0.03246,-0.09176 0.07602,-0.03793c0.10779,0.07186 0.20443,0.10158 0.33386,0.06326c0.02292,-0.00676 0.07894,-0.05384 0.0582,-0.04191c-0.01261,0.00727 -0.02271,0.01826 -0.03404,0.02741c-0.16167,0.16061 -0.29528,0.34435 -0.42432,0.53173c-0.11026,0.16003 -0.22734,0.32071 -0.28338,0.50928c-0.03198,0.10792 -0.01758,0.0012 -0.07226,-0.05427c-0.09932,-0.10075 -0.22025,-0.18985 -0.3651,-0.12551c0.12967,-0.00765 0.23841,-0.16096 0.31244,-0.2487c0.123,-0.22257 0.18552,-0.46167 0.17975,-0.71757z" data-paper-data="{&quot;index&quot;:null}" fill="#810000"/><path d="M285.92507,137.91558c0.3337,-0.28705 0.73965,0.18485 0.40596,0.47191c-0.34978,0.33956 -0.7735,0.57788 -1.21077,0.78432c-0.46767,0.16994 -1.01322,0.31902 -1.5012,0.12582c-0.09629,-0.03812 -0.18005,-0.10239 -0.27008,-0.15358c-0.22111,-0.18285 -0.4184,-0.40259 -0.49478,-0.68755c-0.02168,-0.08092 -0.01501,-0.16703 -0.02839,-0.24973c-0.01046,-0.06458 -0.02872,-0.12765 -0.04309,-0.19148c-0.00539,-0.01296 0.01291,-0.02057 0.0183,-0.00761c0.03384,0.05211 0.05756,0.11242 0.10151,0.15634c0.05193,0.05189 0.12154,0.08243 0.18081,0.12576c0.16642,0.12171 0.32194,0.261 0.51467,0.342c0.48833,0.17354 0.76238,0.13744 1.2481,-0.05751c0.38848,-0.17211 0.7455,-0.39494 1.07898,-0.65869z" data-paper-data="{&quot;index&quot;:null}" fill="#e43333"/><path d="M285.71129,135.52524c-0.47691,0 -0.47691,-0.67447 0,-0.67447c0.40394,0.03938 0.59289,0.39578 0.79599,0.70029c0.01351,0.01193 -0.00338,0.03104 -0.01689,0.01911c-0.06976,-0.03214 -0.13459,-0.07856 -0.20929,-0.09643c-0.19353,-0.04629 -0.37827,0.05794 -0.56983,0.05148z" data-paper-data="{&quot;index&quot;:null}" fill="#e43333"/><path d="M275.36745,147.04075c-0.14407,-0.27817 0.2493,-0.48193 0.39339,-0.20376c0.17896,0.26593 0.3643,0.52853 0.5632,0.78004c0.27931,0.29727 0.55953,0.5945 0.84829,0.88275c0.23014,0.28804 0.48151,0.55289 0.75986,0.79424c0.32323,0.2709 0.71238,0.44519 1.08997,0.62568c0.47015,0.23232 0.93672,0.47169 1.40243,0.71274c0.47896,0.24699 0.96447,0.48076 1.46122,0.68977c0.4867,0.21014 0.98119,0.40125 1.47512,0.59348c0.52566,0.19473 1.04747,0.39975 1.57313,0.5945c0.45403,0.16652 0.90225,0.34815 1.35406,0.52053c0.36907,0.13465 0.74668,0.24485 1.12636,0.34514c0.36321,0.08747 0.72552,0.17387 1.08044,0.29123c0.3089,0.10927 0.61429,0.22892 0.91517,0.3586c0.33041,0.13233 0.6515,0.28628 0.9779,0.42782c0.36424,0.1668 0.73704,0.31347 1.10879,0.46233c0.40695,0.1542 0.81126,0.31436 1.20577,0.49829c0.39109,0.1943 0.76661,0.41771 1.14838,0.62935c0.37262,0.20072 0.73763,0.41446 1.09775,0.63667c0.29223,0.17708 0.57952,0.3621 0.86984,0.54229c0.25246,0.16159 0.50948,0.31584 0.76525,0.47208c0.28008,0.15694 0.55478,0.32325 0.83204,0.48508c0.31741,0.19379 0.63375,0.38931 0.94335,0.5954c0.32417,0.21607 0.6321,0.45505 0.94044,0.69281c0.2779,0.22479 0.55347,0.45255 0.82002,0.6908c0.25789,0.23702 0.51242,0.47762 0.77042,0.71449c0.26529,0.24558 0.53548,0.48578 0.80527,0.72642c0.25981,0.23933 0.51963,0.47847 0.78257,0.71436c0.22176,0.18986 0.44051,0.38294 0.65364,0.58244c0.17007,0.16633 0.33469,0.33804 0.5006,0.50847c0.16316,0.16834 0.32337,0.33957 0.4758,0.5177c0.16385,0.19669 0.33628,0.38593 0.50317,0.57996c0.17777,0.20653 0.34932,0.41828 0.52382,0.62756c0.17481,0.21249 0.35971,0.41638 0.552,0.61315c0.17965,0.18094 0.36251,0.35855 0.54721,0.53434c0.23001,0.20051 0.46037,0.40054 0.68695,0.60489c0.28188,0.2487 0.50762,0.54375 0.66758,0.88284c0.11764,0.19113 0.07505,0.38564 0.08493,0.59249c0.00286,0.05932 0.01997,0.11707 0.02998,0.17561c0.00684,0.01599 -0.01574,0.02561 -0.02258,0.00966c-0.03474,-0.04605 -0.06127,-0.09962 -0.10421,-0.13814c-0.1287,-0.11542 -0.31986,-0.16323 -0.43022,-0.30496c-0.25207,-0.1992 -0.49431,-0.41027 -0.74605,-0.60994c-0.24203,-0.19647 -0.48817,-0.38825 -0.72095,-0.59574c-0.20652,-0.17588 -0.40803,-0.35753 -0.59861,-0.55067c-0.21232,-0.21162 -0.41816,-0.42936 -0.60776,-0.66185c-0.1704,-0.20434 -0.33902,-0.41015 -0.51279,-0.61165c-0.17092,-0.19308 -0.34044,-0.38734 -0.50761,-0.58368c-0.14204,-0.16385 -0.28793,-0.32413 -0.44078,-0.47802c-0.15814,-0.16246 -0.31475,-0.32636 -0.47614,-0.48563c-0.20264,-0.19622 -0.42266,-0.37312 -0.63106,-0.56303c-0.26717,-0.23454 -0.52491,-0.47944 -0.78825,-0.71821c-0.26918,-0.24528 -0.54376,-0.48448 -0.80985,-0.73313c-0.25468,-0.23382 -0.50595,-0.47124 -0.76097,-0.7047c-0.25426,-0.22501 -0.51147,-0.4468 -0.77991,-0.65484c-0.28663,-0.22841 -0.57919,-0.44977 -0.88305,-0.65492c-0.3001,-0.19781 -0.6032,-0.3911 -0.91226,-0.57466c-0.27196,-0.16889 -0.55212,-0.32366 -0.82652,-0.48841c-0.26452,-0.15452 -0.52137,-0.32141 -0.7815,-0.48311c-0.28744,-0.18296 -0.57329,-0.36841 -0.86291,-0.54794c-0.34606,-0.2184 -0.69418,-0.43365 -1.05747,-0.62277c-0.36509,-0.20451 -0.72332,-0.42155 -1.09699,-0.61032c-0.37617,-0.18234 -0.76292,-0.33987 -1.15206,-0.49235c-0.38271,-0.15323 -0.76362,-0.31091 -1.13902,-0.48136c-0.3157,-0.14828 -0.63527,-0.28821 -0.95168,-0.43496c-0.28376,-0.11618 -0.56368,-0.24256 -0.85308,-0.34445c-0.34102,-0.11165 -0.68875,-0.2012 -1.03443,-0.29719c-0.40507,-0.1114 -0.80941,-0.22669 -1.19863,-0.38674c-0.44895,-0.17801 -0.89361,-0.36661 -1.34337,-0.54272c-0.52262,-0.21008 -1.05055,-0.40693 -1.56859,-0.62824c-0.49838,-0.20408 -0.9953,-0.41176 -1.48786,-0.62961c-0.49919,-0.23313 -0.99744,-0.46838 -1.48542,-0.72437c-0.46614,-0.23715 -0.9271,-0.48418 -1.39126,-0.72505c-0.41277,-0.21919 -0.83436,-0.42702 -1.20722,-0.71214c-0.30878,-0.25481 -0.58041,-0.54627 -0.83063,-0.85868c-0.24951,-0.33388 -0.54168,-0.63188 -0.79766,-0.96079c-0.21974,-0.2794 -0.41736,-0.56926 -0.53673,-0.9073z" data-paper-data="{&quot;index&quot;:null}" fill="#e43333"/><path d="M275.90624,145.35592c0.16856,-0.27351 0.55537,-0.03514 0.38681,0.23838c-0.21802,0.4132 -0.12386,0.87531 -0.05566,1.31408c0.02988,0.11028 0.15511,0.58582 0.19723,0.68575c0.04787,0.11356 0.11863,0.21606 0.17794,0.32409c0.00889,0.01343 -0.00996,0.02591 -0.01886,0.01257c-0.23866,-0.29945 -0.50696,-0.58046 -0.65839,-0.93809c-0.04547,-0.11562 -0.10212,-0.22745 -0.13641,-0.34685c-0.12174,-0.42359 -0.09858,-0.89841 0.10732,-1.28992z" data-paper-data="{&quot;index&quot;:null}" fill="#e43333"/><path d="M274.86706,146.76706c-0.0561,-0.33464 0.41715,-0.41401 0.47328,-0.07937c0.11853,0.4173 0.27099,0.83776 0.49868,1.20979c0.06009,0.09819 0.1344,0.18693 0.2016,0.2804c0.20812,0.31108 0.46214,0.58489 0.69307,0.87873c0.01445,0.01078 -0.00077,0.03122 -0.01522,0.02044c-0.12583,-0.05152 -0.25797,-0.08974 -0.37748,-0.15457c-0.22429,-0.12166 -0.44407,-0.32641 -0.63602,-0.49004c-0.14105,-0.17759 -0.34133,-0.41761 -0.45951,-0.61353c-0.19267,-0.31942 -0.31616,-0.68576 -0.37831,-1.05187z" data-paper-data="{&quot;index&quot;:null}" fill="#e43333"/><path d="M277.34298,149.44816c0.23468,0.15613 0.01388,0.48802 -0.2208,0.33189c-0.44275,-0.23873 -0.90029,-0.44813 -1.34915,-0.67468c-0.23668,-0.1415 -0.47245,-0.26138 -0.69213,-0.42799c-0.01616,-0.00428 -0.01013,-0.02711 0.00603,-0.02283c0.08539,-0.01031 0.17017,-0.03177 0.25618,-0.03092c0.07906,0.00063 0.52772,0.07364 0.59185,0.0836c0.51108,0.16399 0.99053,0.39867 1.40803,0.74092z" data-paper-data="{&quot;index&quot;:null}" fill="#e43333"/><path d="M274.88424,148.6998c0.05957,-0.36117 0.57033,-0.27688 0.51073,0.08427c-0.07178,0.21047 -0.16398,0.41005 -0.23934,0.6199c0.0015,0.01732 -0.02318,0.01946 -0.02446,0.00214c-0.11771,-0.22496 -0.25262,-0.4429 -0.24693,-0.70628z" data-paper-data="{&quot;index&quot;:null}" fill="#e43333"/><path d="M275.52997,149.13172c0.00402,-0.31724 0.45249,-0.31156 0.44865,0.00569c-0.00071,0.31057 0.05959,0.61545 0.08067,0.92496c0.00812,0.11979 0.00192,0.24106 0.02121,0.35956c0.01957,0.12028 0.06314,0.23539 0.09474,0.35309c0.00552,0.01505 -0.01578,0.02288 -0.02129,0.00783c-0.05265,-0.1112 -0.09893,-0.22564 -0.15795,-0.33359c-0.05973,-0.10925 -0.13825,-0.20753 -0.19768,-0.31694c-0.16882,-0.31079 -0.24812,-0.64937 -0.26838,-1.0006z" data-paper-data="{&quot;index&quot;:null}" fill="#e43333"/><path d="M275.59833,146.66015c-0.0192,0.43107 -0.62884,0.40388 -0.6096,-0.0272c-0.01481,-0.31087 0.04761,-0.62087 0.11927,-0.92192c0.09079,-0.3748 0.28128,-0.70677 0.47725,-1.0343c0.26619,-0.5015 0.57523,-0.97465 0.90738,-1.43432c0.42761,-0.52399 0.8701,-1.09344 1.48615,-1.40957c0.12651,-0.06492 0.26501,-0.1032 0.39751,-0.1548c0.12555,-0.03662 0.2511,-0.07325 0.37664,-0.10986c0.01406,-0.01018 0.02844,0.00971 0.01437,0.01988c-0.06998,0.10468 -0.13996,0.20936 -0.20994,0.31404c-0.07023,0.11223 -0.13494,0.22812 -0.2107,0.3367c-0.36295,0.52031 -0.82308,0.96759 -1.18276,1.49073c-0.32485,0.44561 -0.60772,0.91726 -0.91316,1.37583c-0.17593,0.25349 -0.37026,0.50072 -0.47469,0.79467c-0.08422,0.24806 -0.14043,0.50084 -0.17772,0.76012z" data-paper-data="{&quot;index&quot;:null}" fill="#e43333"/><path d="M286.82306,133.52402c-0.48347,0.1654 -0.71738,-0.51833 -0.23393,-0.68374c0.07789,-0.04031 0.1645,-0.06051 0.23784,-0.10988c0.00791,-0.00535 0.02801,-0.02557 0.01984,-0.02065c-0.0334,0.02009 -0.08867,0.02826 -0.09616,0.06653c-0.03143,0.16096 -0.00855,0.32789 -0.01283,0.49183c0.03696,0.03244 0.08556,0.05516 0.11088,0.09732c0.00851,0.0142 -0.03284,0.00389 -0.0493,0.00517c-0.03918,0.00282 -0.07855,0.00325 -0.11763,0.0071c-0.21983,0.02274 -0.41385,0.0931 -0.62089,0.16791c-0.4418,0.17776 -0.84893,0.4317 -1.28847,0.61464c-0.68652,0.28575 -0.0585,-0.03339 -0.68007,0.30222c-0.01236,0.01219 -0.02959,-0.0053 -0.01723,-0.01749c0.1309,-0.22817 0.23794,-0.47162 0.39181,-0.68494c0.32909,-0.45621 0.81545,-0.76366 1.31712,-0.99521c0.34063,-0.11905 0.92693,-0.31271 1.29189,-0.16749c0.087,0.03462 0.16346,0.09137 0.24519,0.13705c0.00958,0.17908 0.05858,0.3604 0.02874,0.53725c-0.02048,0.1215 -0.42249,0.21739 -0.52681,0.25241z" data-paper-data="{&quot;index&quot;:null}" fill="#e4b233"/><path d="M248.88144,223.24039c0.49979,-0.20367 0.78784,0.50315 0.28805,0.70684c-0.54533,0.20792 -1.12593,0.25739 -1.70415,0.24653c-0.52031,0.00442 -0.89229,-0.14196 -1.33961,-0.38055c-0.01732,-0.00154 -0.01518,-0.02617 0.00214,-0.02446c0.42491,-0.14254 0.84756,-0.27553 1.30074,-0.28926c0.48683,-0.06458 0.98551,-0.09776 1.4528,-0.25908z" data-paper-data="{&quot;index&quot;:null}" fill="#8f5000"/><path d="M248.71887,224.67738c0.58325,-0.13414 0.77298,0.69071 0.18972,0.82486c-0.41144,0.10296 -0.82208,0.23129 -1.24767,0.26263c-0.11302,0.00812 -0.22663,0.00214 -0.33994,0.00299c-0.39443,0.02064 -0.71281,-0.21155 -1.07539,-0.30972c-0.01783,-0.0021 -0.01492,-0.0275 0.00299,-0.02536c0.06483,-0.00261 0.13182,0.00902 0.19448,-0.00783c0.26815,-0.07205 0.4922,-0.28721 0.77303,-0.33004c0.49427,-0.16176 0.99889,-0.28979 1.50283,-0.41774z" data-paper-data="{&quot;index&quot;:null}" fill="#8f5000"/><path d="M247.91948,226.76815c0.40299,-0.21667 0.7094,0.35325 0.30641,0.56992c-0.43954,0.24791 -0.90888,0.1774 -1.37232,0.04484c-0.01753,0.00107 -0.01903,-0.02365 -0.00171,-0.0245c0.37339,-0.17012 0.69958,-0.4104 1.06744,-0.59023z" data-paper-data="{&quot;index&quot;:null}" fill="#8f5000"/><path d="M247.40176,228.51704c0.51037,-0.30612 0.94335,0.4156 0.433,0.72176c-0.26926,0.14662 -0.59674,0.24403 -0.90443,0.16283c-0.06859,-0.0181 -0.42573,-0.19182 -0.50218,-0.22829c-0.06443,-0.01602 -0.12887,-0.03205 -0.1933,-0.04805c-0.01719,-0.00141 -0.01518,-0.02574 0.00214,-0.02446c0.0639,-0.00539 0.1278,-0.01082 0.19171,-0.01625c0.40509,-0.21381 0.01086,0.01169 0.39654,-0.26481c0.17688,-0.12681 0.38374,-0.20508 0.57667,-0.30268z" data-paper-data="{&quot;index&quot;:null}" fill="#8f5000"/><path d="M247.15387,231.00145c0.40537,-0.22757 0.72724,0.3457 0.32186,0.57329c-0.40452,0.2074 -0.8485,0.1378 -1.28146,0.09424c-0.01638,0.00316 -0.02082,-0.02018 -0.00445,-0.02318c0.34448,-0.18387 0.62883,-0.44531 0.96404,-0.64432z" data-paper-data="{&quot;index&quot;:null}" fill="#8f5000"/><path d="M246.9423,233.80498c-0.24339,0.08241 -0.49497,0.05341 -0.74284,0.01454c-0.01471,0.00633 -0.02369,-0.0145 -0.00898,-0.02082c0.12521,-0.18608 0.25876,-0.36632 0.41178,-0.53088c0.37981,-0.24044 0.71986,0.29671 0.34004,0.53716z" data-paper-data="{&quot;index&quot;:null}" fill="#8f5000"/><path d="M246.09767,235.27758c0.26374,-0.38609 0.80972,-0.01307 0.54597,0.373c-0.1917,0.20633 -0.47975,0.20697 -0.73506,0.27742c-0.01356,0.01078 -0.02886,-0.00842 -0.01527,-0.01924c0.03012,-0.05901 0.06941,-0.11418 0.09036,-0.17703c0.04909,-0.14714 0.0276,-0.31783 0.114,-0.45416z" data-paper-data="{&quot;index&quot;:null}" fill="#8f5000"/><path d="M260.43108,219.79815c0.28115,-0.50474 0.99498,-0.1071 0.71381,0.39765c-0.23531,0.34392 -0.53675,0.69062 -0.94433,0.83114c-0.08326,0.02872 -0.17251,0.0356 -0.25876,0.05343c-0.30961,-0.01125 -0.16622,-0.01043 -0.43013,-0.00607c-0.01604,0.00825 -0.02771,-0.01441 -0.01167,-0.02266c0.14035,-0.20269 0.07505,-0.08769 0.18525,-0.35081c0.03932,-0.06707 0.07322,-0.13763 0.11796,-0.20121c0.18165,-0.2581 0.45299,-0.43862 0.6279,-0.70145z" data-paper-data="{&quot;index&quot;:null}" fill="#8f5000"/><path d="M260.43537,221.72665c0.37415,-0.37022 0.89771,0.15891 0.52356,0.52912c-0.34371,0.29053 -0.60422,0.12617 -0.98756,0.13451c-0.01561,0.00586 -0.02395,-0.01625 -0.0083,-0.02211c0.23375,-0.19738 0.26733,-0.42981 0.47229,-0.6415z" data-paper-data="{&quot;index&quot;:null}" fill="#8f5000"/><path d="M260.45248,223.67231c0.32477,-0.26862 0.70468,0.19066 0.3799,0.45929c-0.19219,0.0764 -0.39463,0.10091 -0.59929,0.09432c-0.01432,0.01103 -0.02985,-0.00915 -0.01561,-0.02018c0.04782,-0.19234 0.12947,-0.36488 0.235,-0.53344z" data-paper-data="{&quot;index&quot;:null}" fill="#8f5000"/><path d="M260.06336,224.8568c0.42012,-0.31707 0.86849,0.27712 0.44835,0.59416c-0.22762,0.10721 -0.48037,0.10345 -0.72522,0.08002c-0.01424,0.01095 -0.02985,-0.00932 -0.01552,-0.02027c0.04854,-0.23659 0.13221,-0.46841 0.29239,-0.65394z" data-paper-data="{&quot;index&quot;:null}" fill="#8f5000"/><path d="M260.13178,226.08829c0.33005,-0.3293 0.79575,0.13743 0.46571,0.46673c-0.19405,0.09723 -0.40889,0.1485 -0.62123,0.18801c-0.01073,0.01193 -0.02758,-0.00329 -0.01685,-0.01518c0.02267,-0.22065 0.06794,-0.44136 0.17236,-0.63957z" data-paper-data="{&quot;index&quot;:null}" fill="#8f5000"/><path d="M260.11042,228.21777c0.31005,-0.35885 0.81753,0.07962 0.50748,0.43847c-0.2029,0.16623 -0.47291,0.14865 -0.6976,0.26011c-0.01189,0.0127 -0.0298,-0.00406 -0.01796,-0.01676c0.09403,-0.22107 0.09017,-0.46812 0.20804,-0.68182z" data-paper-data="{&quot;index&quot;:null}" fill="#8f5000"/><path d="M260.14464,229.96238c0.35734,-0.35769 0.86322,0.14767 0.50586,0.50539c-0.12122,0.08384 -0.24407,0.17068 -0.39272,0.19809c-0.17215,0.03176 -0.27187,0.0016 -0.43843,0.07693c-0.0118,0.01184 -0.02852,-0.00487 -0.01672,-0.01668c0.12098,-0.25579 0.12306,-0.55591 0.34197,-0.76371z" data-paper-data="{&quot;index&quot;:null}" fill="#8f5000"/><path d="M259.79396,230.95874c0.36337,-0.3621 0.87544,0.15181 0.51206,0.5139c-0.28124,0.26356 -0.69107,0.20301 -1.00856,0.36573c-0.01206,0.01035 -0.02685,-0.00697 -0.01462,-0.01732c0.20098,-0.26623 0.27997,-0.61166 0.51112,-0.86231z" data-paper-data="{&quot;index&quot;:null}" fill="#8f5000"/><path d="M264.61736,234.69175c0.33098,-0.20393 0.61935,0.26414 0.28839,0.46806c-0.20048,0.0555 -0.41427,0.06192 -0.62131,0.05422c-0.01531,0.00842 -0.02707,-0.01304 -0.01189,-0.02147c0.0999,-0.1758 0.21192,-0.34857 0.34484,-0.50081z" data-paper-data="{&quot;index&quot;:null}" fill="#8f5000"/><path d="M262.60763,234.47791c0.08514,-0.07913 0.19703,0.04126 0.1119,0.12038c-0.04487,0.00928 -0.08975,0.01852 -0.13462,0.02775c-0.01321,0.0121 -0.03049,-0.00688 -0.01706,-0.01894l0.03977,-0.12915z" data-paper-data="{&quot;index&quot;:null}" fill="#8f5000"/><path d="M261.44029,232.33993c0.34321,-0.31553 0.78947,0.16982 0.44625,0.48538c-0.39601,0.38224 -0.81575,0.76398 -1.29488,1.04127c-0.12944,0.07492 -0.26808,0.13269 -0.40211,0.19903c-0.38549,0.18998 -0.80289,0.24136 -1.22236,0.29372c-0.01599,0.00684 -0.02566,-0.01574 -0.00971,-0.02258c0.30587,-0.25571 0.60164,-0.52291 0.91581,-0.76858c0.51544,-0.41816 1.05568,-0.80469 1.56697,-1.22826z" data-paper-data="{&quot;index&quot;:null}" fill="#8f5000"/><path d="M262.38102,234.13159c0.48274,-0.15488 0.70176,0.5278 0.21903,0.68268c-0.31245,0.13234 -0.65142,0.17564 -0.9779,0.25643c-0.22582,0.05588 -0.44756,0.12712 -0.67284,0.18503c-0.01522,0.00864 -0.02728,-0.01266 -0.01223,-0.02129c0.40523,-0.40582 0.07975,-0.09214 0.52066,-0.48281c0.27953,-0.24769 0.5563,-0.50875 0.92325,-0.62003z" data-paper-data="{&quot;index&quot;:null}" fill="#8f5000"/><path d="M262.10732,235.68808c0.21708,-0.2323 0.5456,0.07469 0.32853,0.307c-0.25552,0.07422 -0.11737,0.03839 -0.41542,0.10369c-0.01287,0.0118 -0.02946,-0.0062 -0.01672,-0.018c0.07786,-0.28183 0.0439,-0.15079 0.10361,-0.39269z" data-paper-data="{&quot;index&quot;:null}" fill="#8f5000"/><path d="M251.42997,238.47608c0.3892,-0.2915 0.80145,0.25891 0.41225,0.55042c-0.22514,0.17374 -0.43648,0.37673 -0.69704,0.49842c-0.17864,0.08342 -0.30979,0.10576 -0.49889,0.15192c-0.01197,0.0115 -0.02835,-0.00564 -0.01625,-0.01715c0.05565,-0.18419 0.08659,-0.3199 0.17993,-0.49124c0.14876,-0.27308 0.38717,-0.49269 0.61999,-0.69238z" data-paper-data="{&quot;index&quot;:null}" fill="#8f5000"/><path d="M249.78795,240.03686c0.39947,-0.3355 0.87397,0.22939 0.47452,0.56491c-0.13971,0.07814 -0.28192,0.12538 -0.43941,0.15331c-0.06771,0.01202 -0.13887,0.00778 -0.20424,0.02916c-0.05,0.01635 -0.08999,0.05449 -0.13499,0.08178c-0.0124,0.01308 -0.03096,-0.0044 -0.01856,-0.01753c0.02507,-0.04696 0.05995,-0.08989 0.07522,-0.1409c0.02027,-0.06777 0.01544,-0.14086 0.02985,-0.21012c0.03645,-0.17492 0.10652,-0.32136 0.21761,-0.46062z" data-paper-data="{&quot;index&quot;:null}" fill="#8f5000"/><path d="M248.13738,241.55061c0.49696,-0.17339 0.74217,0.52943 0.24521,0.70282c-0.33986,0.13341 -0.6809,0.25163 -1.04678,0.27506c-0.06746,0.0062 -0.13491,0.01244 -0.20237,0.01864c-0.01326,0.01206 -0.03049,-0.00684 -0.0171,-0.01894c0.01936,-0.07212 0.03869,-0.14424 0.05806,-0.21637c0.03632,-0.07515 0.0616,-0.15672 0.10896,-0.22544c0.19704,-0.28591 0.54124,-0.42432 0.85402,-0.53579z" data-paper-data="{&quot;index&quot;:null}" fill="#8f5000"/><path d="M247.69265,243.24819c0.31379,-0.35735 0.81916,0.08647 0.50535,0.44381c-0.18669,0.09398 -0.39865,0.08535 -0.60152,0.11588c-0.01377,0.01155 -0.03019,-0.00804 -0.01633,-0.01958c0.0553,-0.18114 0.07048,-0.35672 0.11251,-0.54011z" data-paper-data="{&quot;index&quot;:null}" fill="#8f5000"/><path d="M249.88627,237.80905c0.53969,-0.18879 0.8067,0.57443 0.26702,0.76324c-0.6483,0.30377 -1.28535,0.62817 -1.93886,0.9212c-0.15411,0.06173 -0.71975,0.2807 -0.87471,0.37151c-0.11019,0.06457 -0.2024,0.15582 -0.30359,0.23373c-0.01326,0.01206 -0.03049,-0.00684 -0.0171,-0.01894c0.08892,-0.09392 0.1837,-0.18261 0.26675,-0.28174c0.10107,-0.12064 0.18984,-0.25107 0.28477,-0.3766c0.11449,-0.13097 0.22898,-0.26194 0.34348,-0.39292c0.13342,-0.11645 0.2614,-0.23946 0.40026,-0.34937c0.47037,-0.37228 1.0121,-0.659 1.57201,-0.87014z" data-paper-data="{&quot;index&quot;:null}" fill="#8f5000"/><path d="M248.29562,236.71862c0.54226,-0.09424 0.67552,0.67264 0.13327,0.76687c-0.508,0.13446 -0.99184,0.35899 -1.51553,0.43364c-0.16849,0.02403 -0.33946,0.02506 -0.5092,0.03759c-0.16391,0.01983 -0.32781,0.03967 -0.49171,0.05951c-0.01599,0.00676 -0.02561,-0.01582 -0.00962,-0.02262c0.12945,-0.10474 0.25891,-0.20949 0.38836,-0.31423c0.13304,-0.11077 0.25741,-0.23287 0.39911,-0.33231c0.47225,-0.33141 1.04571,-0.51449 1.60528,-0.62846z" data-paper-data="{&quot;index&quot;:null}" fill="#8f5000"/><path d="M261.00834,234.46513c0.44835,-0.32836 0.91273,0.3057 0.46438,0.63406c-0.39712,0.29342 -0.88985,0.3009 -1.35624,0.37586c-0.07195,0.0077 -0.14389,0.01539 -0.21583,0.02309c-0.01509,0.00855 -0.0272,-0.01283 -0.0121,-0.02138c0.04658,-0.05945 0.09316,-0.11891 0.13974,-0.17836c0.31181,-0.29509 0.60958,-0.60867 0.98008,-0.83328z" data-paper-data="{&quot;index&quot;:null}" fill="#8f5000"/><path d="M262.51782,235.59397c0.46373,-0.30138 0.88993,0.35446 0.42619,0.65582c-0.39524,0.25789 -0.7236,0.33291 -1.18755,0.35801c-0.05352,0.01321 -0.10703,0.02638 -0.16055,0.0396c-0.01484,0.01018 -0.02929,-0.01086 -0.01441,-0.02104c0.03334,-0.04626 0.06666,-0.09253 0.10002,-0.13878c0.22244,-0.38677 0.45529,-0.65387 0.83632,-0.89357z" data-paper-data="{&quot;index&quot;:null}" fill="#8f5000"/><path d="M263.39869,237.68924c0.47968,-0.30249 0.90747,0.37585 0.42782,0.67836c-0.24177,0.16093 -0.52139,0.24929 -0.81429,0.24057c-0.10352,-0.00304 -0.20469,-0.04268 -0.3082,-0.03925c-0.08562,0.00278 -0.16699,0.03828 -0.25048,0.05739c-0.01659,0.00697 -0.02647,-0.01655 -0.00983,-0.02352c0.07089,-0.04557 0.15484,-0.07543 0.21269,-0.13672c0.06841,-0.07249 0.09893,-0.17345 0.15671,-0.25467c0.15449,-0.21719 0.35309,-0.39341 0.58561,-0.52211z" data-paper-data="{&quot;index&quot;:null}" fill="#8f5000"/><path d="M269.29543,128.0978c-0.47866,-0.32476 -0.01937,-1.00168 0.45929,-0.6769c0.69563,0.38155 1.13946,0.84089 1.52511,1.52942c0.42025,1.10977 0.22774,1.83931 -0.44634,2.7786c-0.72073,0.75003 -1.72215,1.05492 -2.75063,0.92162c-0.21311,-0.02762 -0.41962,-0.09296 -0.62944,-0.13944c-0.97601,-0.34418 -1.7835,-1.03058 -2.11148,-2.03627c-0.05643,-0.17304 -0.07915,-0.35529 -0.11871,-0.53293c-0.05478,-0.95241 0.37193,-1.82199 1.19444,-2.32991c0.16501,-0.1019 0.35007,-0.16702 0.5251,-0.25053c1.0186,-0.26465 2.09331,-0.11558 2.933,0.55054c0.16098,0.1277 0.29558,0.28555 0.44339,0.42833c0.02358,0.01381 0.00406,0.04717 -0.01954,0.03335c-0.93723,-0.26336 -1.95562,-0.5664 -2.87771,-0.10304c-0.56115,0.34162 -1.05568,0.76525 -1.07932,1.46986c0.09052,0.83003 0.56919,1.42945 1.35274,1.73669c0.85205,0.21445 1.54388,0.17985 2.2195,-0.43787c0.38829,-0.47926 0.54402,-0.99953 0.37371,-1.60905c-0.19777,-0.52874 -0.55816,-0.9746 -0.99312,-1.3326z" data-paper-data="{&quot;index&quot;:null}" fill="#000000"/><path d="M272.30572,130.24021c-0.11071,-0.57047 0.69604,-0.72706 0.80677,-0.15659c0.2546,1.14009 -0.02365,1.85022 -0.65856,2.79484c-0.86077,0.99051 -2.10973,1.59489 -3.44015,1.56564c-0.29779,-0.00655 -0.59055,-0.07812 -0.88583,-0.1172c-1.13055,-0.32747 -0.60169,-0.08826 -1.58814,-0.71423c-0.02617,-0.00795 -0.01492,-0.04494 0.01125,-0.03699c1.06483,0.00043 0.53507,-0.00086 1.58933,0.00299c1.27628,-0.1506 2.6043,-0.25969 3.54846,-1.23814c0.50367,-0.67519 0.69568,-1.25481 0.61691,-2.10054z" data-paper-data="{&quot;index&quot;:null}" fill="#000000"/><path d="M287.23348,124.29204c-0.39203,-0.45749 0.25491,-1.01193 0.64697,-0.55448c0.63302,0.76738 0.85775,1.41264 0.79556,2.40495c-0.15573,0.86449 -0.78881,1.54457 -1.69914,1.61465c-0.1834,0.01411 -0.36703,-0.02502 -0.55055,-0.0375c-0.87206,-0.27431 -1.78324,-0.73514 -2.1492,-1.6362c-0.06893,-0.16974 -0.08996,-0.35518 -0.13494,-0.53276c-0.00556,-0.98337 0.57637,-1.79039 1.54747,-2.03789c0.17464,-0.04452 0.35768,-0.04435 0.53652,-0.06654c0.32096,0.01486 0.69825,0.00091 1.00321,0.13674c0.28521,0.12706 0.51394,0.35475 0.77401,0.5275c0.0242,0.01266 0.00629,0.04691 -0.01792,0.03425c-0.12795,-0.04978 -0.24779,-0.13088 -0.38384,-0.14935c-0.27016,-0.03665 -0.91086,0.09483 -1.18362,0.16619c-0.53015,0.26294 -1.11302,0.56444 -1.21475,1.20508c0.01539,0.73805 0.49547,1.33537 1.25952,1.39203c0.57547,-0.00911 1.03962,-0.1264 1.26961,-0.71111c0.10643,-0.65155 -0.10248,-1.23288 -0.49885,-1.75563z" data-paper-data="{&quot;index&quot;:null}" fill="#000000"/><path d="M288.99526,127.15268c0.19627,-0.65942 1.12879,-0.38186 0.93253,0.27756c-0.29757,0.8447 -0.97229,1.55004 -1.83735,1.82982c-0.20297,0.06565 -0.41891,0.08099 -0.62837,0.12149c-0.79753,0.0363 -1.07813,-0.0687 -1.74691,-0.4548c-0.02668,-0.00594 -0.01826,-0.04366 0.00842,-0.03772c0.50565,-0.06237 1.01839,-0.10322 1.49432,-0.30206c0.70444,-0.33409 1.42189,-0.69828 1.77739,-1.43428z" data-paper-data="{&quot;index&quot;:null}" fill="#000000"/><path d="M284.76579,132.35671c0.35305,-0.41876 0.94525,0.08053 0.59219,0.49927c-0.5068,0.59078 -1.00992,1.18409 -1.49137,1.79582c-0.62653,0.80382 -1.244,1.61409 -1.84119,2.44002c-0.6276,0.90781 -1.24447,1.82264 -1.88643,2.72044c-0.53789,0.74519 -1.05534,1.50479 -1.63949,2.21492c-0.46669,0.55294 -0.98444,1.06119 -1.51377,1.55367c-0.39686,0.36539 -0.78602,0.74006 -1.12983,1.15647c-0.26394,0.29903 -0.39458,0.6465 -0.47144,1.03058c-0.03534,0.30869 -0.11557,0.62072 -0.0524,0.93026c0.05907,0.23636 0.21686,0.43287 0.35694,0.62696c0.23613,0.32331 0.54872,0.57686 0.85581,0.82913c0.41187,0.34658 0.86261,0.64121 1.30878,0.94082c0.65779,0.45228 1.34696,0.85675 2.03259,1.26486c0.95374,0.56838 1.89409,1.14796 2.90483,1.61046c1.42098,0.64821 2.91205,1.1223 4.3911,1.61678c1.66587,0.60224 3.3111,1.26127 4.94913,1.93531c1.81665,0.6988 3.55688,1.56145 5.24889,2.51942c1.65476,1.003 3.27902,2.06107 4.8619,3.17443c1.39387,0.99765 2.59626,2.21578 3.67277,3.54235c0.4779,0.73482 0.25263,0.36967 0.67793,1.09416c0.01784,0.0207 -0.01146,0.04593 -0.02929,0.02519c-0.64789,-0.52393 -0.32071,-0.25387 -0.98098,-0.81092c-1.20791,-1.13581 -2.47371,-2.20547 -3.82863,-3.16404c-1.55063,-1.11443 -3.16096,-2.13133 -4.83026,-3.0603c-1.65223,-0.94912 -3.34047,-1.83649 -5.10478,-2.5624c-1.62542,-0.67276 -3.24828,-1.35278 -4.90423,-1.94831c-1.47456,-0.56799 -2.967,-1.08608 -4.44883,-1.63402c-1.04409,-0.45741 -2.09066,-0.91799 -3.06569,-1.51313c-0.70705,-0.41328 -1.39943,-0.84944 -2.07428,-1.31365c-0.46746,-0.32225 -0.92427,-0.65939 -1.35731,-1.02711c-0.35675,-0.30313 -0.7043,-0.61784 -1.00466,-0.97837c-0.23757,-0.31074 -0.44787,-0.64088 -0.52951,-1.02981c-0.05364,-0.42346 -0.03896,-0.84795 0.05777,-1.26546c0.12285,-0.51822 0.30578,-1.01367 0.65398,-1.42688c0.37056,-0.43868 0.78032,-0.83946 1.19063,-1.24083c0.48679,-0.48025 0.99231,-0.94356 1.4271,-1.47349c0.56205,-0.70179 1.07424,-1.44057 1.60015,-2.16951c0.64098,-0.90306 1.25627,-1.82392 1.90709,-2.71997c0.61708,-0.83478 1.27688,-1.63457 1.97944,-2.39931c0.51334,-0.58783 1.00278,-1.19576 1.51583,-1.78385z" data-paper-data="{&quot;index&quot;:null}" fill="#000000"/><path d="M284.37722,133.88324c-0.55309,0.29437 -0.96935,-0.48782 -0.41628,-0.78218c0.41298,-0.22744 0.81579,-0.47233 1.21603,-0.72129c0.27658,-0.14973 0.54465,-0.3157 0.83431,-0.43911c0.31023,-0.12641 0.64394,-0.18047 0.97678,-0.19843c0.38553,-0.02189 0.72653,0.09191 1.05709,0.27932c0.42983,0.30724 0.74732,0.73922 1.11571,1.11443c0.48187,0.44788 0.98662,0.86973 1.50368,1.2762c0.32579,0.2389 0.64884,0.4901 1.02528,0.64368c0.25836,0.11857 0.53672,0.1818 0.81459,0.23497c0.45442,0.06727 0.90871,0.13045 1.3574,0.23035c0.51877,0.11242 1.00466,0.3119 1.46216,0.57753c0.44065,0.27016 0.83048,0.60968 1.19491,0.97388c0.40016,0.39695 0.75821,0.83127 1.11208,1.26893c0.39819,0.48521 0.80017,0.96708 1.18969,1.45934c0.45993,0.60857 0.89605,1.23485 1.33076,1.86163c0.54956,0.76995 1.04589,1.5736 1.5213,2.39067c0.56372,1.01309 1.14248,2.01762 1.71941,3.02319c0.54174,0.94805 1.04819,1.91564 1.55239,2.884c0.41576,0.80121 0.7994,1.61738 1.15484,2.44694c0.29967,0.75665 0.58643,1.51771 0.89605,2.27043c0.32143,0.75481 0.61577,1.52057 0.91063,2.28603c0.23383,0.60353 0.45461,1.21205 0.6273,1.83606c0.14466,0.52335 0.24231,1.05769 0.33172,1.59271c0.05287,0.35765 0.11791,0.71328 0.17524,1.07009c0.0658,0.38271 0.08714,0.77007 0.10129,1.15745c0.00641,0.41123 -0.00577,0.82235 0.00214,1.23352c-0.01223,0.37818 -0.01728,0.75477 0.00342,1.13273c0.02832,0.35504 0.0744,0.70816 0.11605,1.06184c0.03892,0.241 0.05602,0.48295 0.06269,0.72646c-0.01668,0.17715 -0.05999,0.35036 -0.09822,0.52386c-0.03823,0.16182 -0.07514,0.32246 -0.08626,0.48953c0.00171,0.17653 0.00171,0.3527 -0.00128,0.52916c-0.0009,0.19744 0.00599,0.39469 0.00428,0.59211c0.00646,0.14394 -0.00466,0.28778 -0.00552,0.43163c0.04212,0.47417 -0.56816,0.62966 -0.86847,0.22727c-0.17328,-0.30694 -0.28669,-0.64367 -0.39847,-0.97666c-0.29732,-0.74836 -0.70465,-1.44942 -1.06786,-2.16831c-0.31823,-0.68007 -0.6711,-1.34111 -0.98623,-2.02314c-0.01544,-0.02271 0.01646,-0.04439 0.0319,-0.02185c0.53075,0.55144 0.99516,1.14334 1.4147,1.78441c0.43885,0.69692 0.83781,1.41572 1.28479,2.10674c0.16088,0.26033 0.29876,0.52787 0.39896,0.81759c0.06551,0.12648 -0.53702,-0.0972 -0.63342,0.29454c-0.00727,0.02955 0.04297,-0.1056 0.01702,-0.08969c0.01621,-0.12652 0.00586,-0.25402 0.00971,-0.3812c-0.00209,-0.19378 0.00393,-0.38749 -0.00214,-0.58125c-0.00911,-0.19302 -0.01958,-0.38609 -0.01125,-0.57945c0.00607,-0.20331 -0.01356,-0.4079 0.00864,-0.6096c0.01578,-0.10987 0.0434,-0.21576 0.01142,-0.32583c-0.01382,-0.21517 -0.06891,-0.42761 -0.08615,-0.64278c-0.04728,-0.36714 -0.08151,-0.7352 -0.11653,-1.10361c-0.04176,-0.39549 -0.07567,-0.79178 -0.10847,-1.18807c-0.01159,-0.40807 -0.03802,-0.81542 -0.04926,-1.22351c-0.0087,-0.33379 -0.02085,-0.66924 -0.08512,-0.99787c-0.06619,-0.35885 -0.12667,-0.71882 -0.17508,-1.08056c-0.07845,-0.49402 -0.16864,-0.98615 -0.29878,-1.4696c-0.16662,-0.5901 -0.37228,-1.16626 -0.59318,-1.73827c-0.28594,-0.76443 -0.57837,-1.52635 -0.87099,-2.28821c-0.28149,-0.7534 -0.53808,-1.5163 -0.84666,-2.25944c-0.33931,-0.81284 -0.71103,-1.61118 -1.10224,-2.40033c-0.45891,-0.9684 -0.93112,-1.93116 -1.47824,-2.85364c-0.58014,-1.0036 -1.15403,-2.01065 -1.70432,-3.03105c-0.45592,-0.79732 -0.94416,-1.57488 -1.47662,-2.32371c-0.42316,-0.61011 -0.83704,-1.22728 -1.29749,-1.81041c-0.38728,-0.48957 -0.78685,-0.96909 -1.18033,-1.45365c-0.32725,-0.40477 -0.64423,-0.82195 -1.0189,-1.1846c-0.32656,-0.29398 -0.65769,-0.58601 -1.0322,-0.81857c-0.36077,-0.21344 -0.73959,-0.38719 -1.15796,-0.45228c-0.44813,-0.07576 -0.89909,-0.12699 -1.34885,-0.1922c-0.38061,-0.06595 -0.76048,-0.14511 -1.10601,-0.32626c-0.40084,-0.24143 -0.78795,-0.50364 -1.15168,-0.79877c-0.55478,-0.4362 -1.11482,-0.87061 -1.60584,-1.37993c-0.28688,-0.31835 -0.55574,-0.66729 -0.91418,-0.90918c-0.15403,-0.09386 -0.32561,-0.14828 -0.50748,-0.14743c-0.22539,0.00851 -0.44426,0.04422 -0.6583,0.1179c-0.25319,0.09027 -0.49597,0.20506 -0.72864,0.33975c-0.42496,0.22625 -0.8451,0.46164 -1.27153,0.68507z" data-paper-data="{&quot;index&quot;:null}" fill="#000000"/><path d="M274.16552,148.02844c-0.01544,-0.60233 0.83636,-0.62409 0.85175,-0.02181c0.11622,0.76593 0.4167,1.43787 0.82075,2.09104c0.69858,0.99055 1.46836,1.93612 2.27971,2.83696c1.00308,1.12221 2.3063,1.84722 3.63963,2.50112c1.68696,0.7729 3.43091,1.41085 5.16465,2.06855c1.64539,0.69525 3.35369,1.21466 5.05903,1.73699c1.61114,0.43064 3.16703,1.02468 4.69941,1.67827c1.12482,0.4897 2.20047,1.07856 3.22609,1.74986c0.84854,0.57718 1.72728,1.1078 2.59066,1.66211c0.78406,0.505 1.57937,1.00261 2.29839,1.59831c0.63987,0.84833 1.45203,1.53708 2.15305,2.32922c0.1822,0.13737 0.36034,0.28028 0.54657,0.4121c0.59925,0.42418 0.60442,0.35534 1.16382,0.83888c0.50026,0.43244 0.91689,0.94035 1.33486,1.44903c0.01868,0.01997 -0.00958,0.04635 -0.02822,0.02638c-0.47563,-0.44732 -0.97661,-0.84456 -1.48303,-1.25606c-0.3692,-0.30001 -0.71718,-0.62559 -1.08805,-0.92355c-0.17815,-0.14312 -0.3672,-0.27214 -0.5508,-0.40821c-0.19746,-0.09583 -0.40084,-0.18032 -0.59241,-0.28748c-0.71594,-0.4005 -1.34923,-0.95479 -2.13727,-1.22304c-0.77966,-0.46716 -1.55243,-0.94621 -2.33003,-1.41731c-0.87279,-0.53353 -1.73215,-1.0886 -2.60789,-1.61721c-0.99816,-0.5783 -1.99971,-1.15595 -3.06176,-1.61144c-1.48269,-0.63795 -3.00617,-1.16686 -4.54376,-1.6554c-1.7348,-0.52745 -3.45982,-1.08634 -5.17149,-1.68554c-1.78569,-0.66074 -3.57694,-1.31622 -5.30661,-2.11567c-1.50261,-0.74494 -2.9664,-1.57877 -4.09854,-2.84517c-0.8887,-1.00133 -1.73506,-2.04632 -2.30044,-3.27124c-0.34165,-0.83785 -0.62995,-1.72198 -0.52771,-2.63967z" data-paper-data="{&quot;index&quot;:null}" fill="#000000"/><path d="M292.93362,134.50322c-0.02865,0.60447 -0.88348,0.56397 -0.85487,-0.04049c-0.04095,-0.77641 -0.03552,-1.55465 -0.05831,-2.33192c-0.01599,-1.04875 -0.2248,-2.07762 -0.48961,-3.0881c-0.35162,-1.30356 -0.86424,-2.55393 -1.39738,-3.79151c-0.58805,-1.33576 -1.29822,-2.61093 -2.07073,-3.84736c-0.74271,-1.18832 -1.58818,-2.30562 -2.52156,-3.34949c-0.99628,-1.0836 -2.20911,-1.91898 -3.43459,-2.71805c-1.22792,-0.83589 -2.5559,-1.49543 -3.93151,-2.04726c-1.62653,-0.59378 -3.33611,-0.89913 -5.03936,-1.17635c-1.71826,-0.28015 -3.45242,-0.40059 -5.19159,-0.36629c-1.6693,0.06893 -3.30259,0.43485 -4.91706,0.83871c-1.61738,0.38981 -3.11427,1.10468 -4.58823,1.85543c-1.53019,0.79599 -2.98188,1.72095 -4.38469,2.72177c-1.19157,0.87347 -2.34932,1.79215 -3.46918,2.75563c-0.94142,0.81733 -1.75683,1.7579 -2.50228,2.75332c-0.6397,0.85671 -1.09981,1.82396 -1.54426,2.791c-0.46263,1.05204 -0.89026,2.11931 -1.29839,3.19355c-0.42209,1.05628 -0.70099,2.16032 -0.92004,3.27415c-0.19056,1.01441 -0.35792,2.03327 -0.50479,3.05492c-0.14993,1.00231 -0.25178,2.01065 -0.36076,3.01793c-0.09923,0.92774 -0.21916,1.85227 -0.37538,2.7721c-0.1795,0.69999 -0.23995,1.42034 -0.36202,2.13c-0.10464,0.47285 -0.20258,0.70084 -0.55722,1.03156c-0.00304,0.0272 -0.04139,0.02288 -0.0384,-0.00428c-0.27246,-0.39644 -0.32376,-0.64505 -0.3286,-1.12606c0.03277,-0.7215 0.17064,-1.43689 0.14703,-2.1625c0.05672,-0.93009 0.14607,-1.85646 0.26796,-2.78048c0.11839,-1.0204 0.19652,-2.04546 0.34363,-3.0624c0.15384,-1.04195 0.31684,-2.08296 0.52104,-3.11645c0.23339,-1.18349 0.47996,-2.36677 0.89293,-3.5036c0.4055,-1.1084 0.83833,-2.20658 1.30912,-3.28903c0.47276,-1.06496 0.99128,-2.11307 1.65424,-3.07484c0.79847,-1.08925 1.69508,-2.10054 2.72339,-2.98047c1.15219,-0.99581 2.35171,-1.93433 3.58541,-2.82734c1.46947,-1.03267 2.97795,-2.01968 4.61218,-2.77543c1.57608,-0.73835 3.19427,-1.39191 4.88414,-1.82332c1.70248,-0.42471 3.43262,-0.75821 5.19244,-0.80288c1.80574,-0.02172 3.60709,0.09661 5.39128,0.38844c1.78573,0.29124 3.57702,0.62037 5.27882,1.25319c1.44493,0.59083 2.81862,1.3234 4.10469,2.21227c1.26037,0.89066 2.50993,1.8149 3.56612,2.94831c0.96267,1.09117 1.83046,2.25918 2.60926,3.48907c0.78911,1.2791 1.52036,2.59353 2.13723,3.96546c0.57308,1.27791 1.09306,2.58143 1.45921,3.93562c0.276,1.08655 0.4935,2.18208 0.48238,3.30947c0.01356,0.79719 0.0681,1.59994 -0.02177,2.39405z" data-paper-data="{&quot;index&quot;:null}" fill="#000000"/><path d="M295.84558,161.80173c1.9956,4.8448 2.61854,10.18134 2.20034,15.38319c-0.40217,5.49733 -1.79001,10.90485 -3.9239,15.98056c-1.27508,3.01438 -2.90089,5.88688 -4.93459,8.45637c-2.44126,3.0922 -5.3327,5.81974 -8.48545,8.17629c-3.51789,2.5993 -7.40659,4.70625 -11.5313,6.16824c-4.40308,1.52314 -9.05117,2.1796 -13.68516,2.47867c-6.1986,0.46297 -12.43312,0.29347 -18.61591,-0.30962c-2.89897,-0.25848 -5.80135,-0.49739 -8.69498,-0.80497c-3.24713,-0.51253 -6.39103,-1.51403 -9.51042,-2.52413c-0.90294,-0.34738 -1.77611,-1.02912 -2.00664,-2.01224c0.54045,1.25186 1.90739,1.88891 3.18918,2.07758c3.40299,0.87869 6.79597,1.96973 10.334,2.11833c3.58305,0.17877 7.15559,0.51407 10.73338,0.76991c3.47581,0.25251 6.97599,0.29073 10.44347,-0.09884c4.4112,-0.41906 8.84464,-0.76704 13.19213,-1.65553c4.64553,-1.03066 9.05759,-2.9942 13.03006,-5.60081c3.59738,-2.39785 6.87465,-5.28395 9.67249,-8.5808c2.58763,-3.09733 4.66178,-6.61766 6.11693,-10.38232c1.70821,-4.41719 2.87977,-9.06101 3.26256,-13.78821c0.30366,-3.57463 0.16668,-7.17483 -0.26962,-10.73253c-0.189,-1.7059 -0.40591,-3.40897 -0.5573,-5.11889l0.02673,-0.01334l0.01334,0.01334z" data-paper-data="{&quot;index&quot;:null}" fill="#000000"/><path d="M267.7603,187.56921c0.24903,-0.23826 0.586,0.1139 0.33697,0.35218c-1.03601,0.99962 -2.03404,2.03554 -3.01703,3.08711c-1.38673,1.52036 -2.74447,3.06441 -4.19885,4.5211c-1.63941,1.56351 -3.43933,2.94519 -5.27796,4.26385c-1.47747,1.06521 -3.05068,1.97679 -4.72293,2.69602c-0.8169,0.2951 -1.67242,0.63014 -2.55496,0.53656c-0.59149,-0.14453 -0.79769,-0.6013 -0.70111,-1.16574c0.19208,-0.62533 0.62125,-1.13491 1.02361,-1.63701c0.33781,-0.42461 0.72623,-0.80319 1.11708,-1.17785c0.03037,0.04161 0.08629,-0.16158 0.12516,-0.11907c0.74892,0.81922 0.65099,0.67352 0.05072,1.18888c-0.73305,0.60879 -1.53879,1.12179 -2.33927,1.63577c-1.0204,0.63624 -2.06116,1.23899 -3.10229,1.84051c-1.08317,0.62563 -2.1829,1.21796 -3.32991,1.71779c-1.23091,0.51189 -2.49501,0.94018 -3.76201,1.35295c-1.15732,0.36568 -2.34581,0.60287 -3.55607,0.68443c-0.89079,0.06876 -1.71398,-0.10545 -2.46871,-0.57693c-0.61954,-0.44514 -0.93159,-1.06615 -0.99256,-1.81216c0.01813,-0.63615 0.3369,-1.16976 0.69281,-1.67374c0.0248,-0.0452 0.49811,-0.63191 0.55332,-0.58625c0.2405,0.19888 0.42695,0.45528 0.64043,0.68293c-0.32165,0.46524 -0.82379,0.76304 -1.28624,1.07201c-0.7156,0.47328 -1.45789,0.90379 -2.19119,1.3485c-0.93898,0.56987 -1.86929,1.15373 -2.8084,1.72339c-1.05273,0.61798 -2.08895,1.262 -3.1052,1.93809c-1.09057,0.73373 -2.13316,1.53387 -3.17268,2.33722c-1.34303,1.03006 -2.59451,2.15933 -3.76372,3.38135c-1.12097,1.21218 -2.2242,2.44194 -3.41184,3.58985c-0.71641,0.67605 -1.45566,1.31272 -2.42193,1.56774c-1.13017,0.05495 -1.59012,-0.60626 -1.92304,-1.58352c-0.27512,-1.13842 -0.13836,-2.28462 0.16989,-3.39747c0.3922,-1.19846 1.14646,-2.20646 1.96092,-3.14865c0.52018,-0.57372 1.07385,-1.11571 1.63633,-1.64757c0.14871,-0.14352 0.28754,-0.21382 0.49213,-0.19304c0.33892,-0.28402 0.74056,0.1953 0.40165,0.47931c0.09806,0.16557 -0.00319,0.28806 -0.10581,0.43103c-0.46442,0.59395 -0.94647,1.17344 -1.41936,1.76063c-0.65197,0.82879 -1.32493,1.66335 -1.6604,2.6799c-0.24,0.86659 -0.36568,1.75187 -0.18223,2.64531c0.07133,0.30287 0.11742,0.68504 0.45523,0.78915c0.78423,0.06688 1.43001,-0.58005 1.99415,-1.03246c1.22172,-1.08544 2.39118,-2.22681 3.50181,-3.42651c1.18251,-1.25635 2.33008,-2.55577 3.67469,-3.64519c1.0331,-0.85872 2.09626,-1.68229 3.22074,-2.41915c1.02793,-0.68357 2.07967,-1.32896 3.13937,-1.96204c0.93975,-0.57 1.87425,-1.14834 2.81024,-1.72446c0.7221,-0.43389 1.44874,-0.86116 2.15583,-1.3193c0.32066,-0.21393 0.66975,-0.47846 0.98316,-0.66112c0.92239,0.68191 0.84444,0.33781 0.35898,0.85235c-0.26425,0.31365 -0.48084,0.66479 -0.51304,1.08343c0.01728,0.45844 0.26164,0.79208 0.6255,1.06171c0.57569,0.36706 1.21017,0.477 1.89131,0.43603c1.13269,-0.08621 2.2523,-0.28775 3.33354,-0.64346c1.24045,-0.3887 2.46725,-0.82173 3.66982,-1.31609c1.11298,-0.49222 2.20026,-1.03845 3.25226,-1.65121c1.03413,-0.58488 2.06086,-1.1837 3.0674,-1.81511c0.76709,-0.48153 1.53353,-0.97037 2.23233,-1.54901c0.10986,-0.09671 0.22236,-0.19049 0.32948,-0.29021c0.0293,-0.02726 0.05124,-0.10773 0.08442,-0.08537c0.89102,0.60109 0.87337,0.42155 0.59083,0.6424c-0.38061,0.3184 -0.72138,0.68107 -1.04721,1.05465c-0.31994,0.39806 -0.63845,0.80835 -0.83982,1.28171c-0.02702,0.09145 -0.1182,0.10138 -0.0198,0.16557c0.71783,0.13649 1.4498,-0.28095 2.11221,-0.48213c1.62196,-0.67934 3.13223,-1.58044 4.55744,-2.60965c1.80557,-1.28992 3.59135,-2.61901 5.19586,-4.15793c1.47559,-1.4262 2.84847,-2.94823 4.26496,-4.43215c1.03049,-1.01621 2.0984,-1.99287 3.19299,-2.93972z" data-paper-data="{&quot;index&quot;:null}" fill="#000000"/><path d="M240.53467,151.14623c0.72539,-0.17173 0.96827,0.8541 0.24288,1.02583c-1.40024,0.53023 -2.5553,1.54794 -3.7098,2.47157c-2.37109,1.86813 -4.69984,3.78531 -6.94221,5.80606c-2.62209,2.31977 -4.97351,4.90979 -7.15217,7.64392c-2.16819,2.73455 -3.94011,5.74474 -5.64314,8.78135c-1.56787,2.79869 -3.07031,5.63164 -4.45268,8.5265c-1.16147,2.55581 -2.20718,5.16251 -3.24482,7.77049c-0.91893,2.29198 -1.77504,4.60812 -2.61516,6.92981c-0.63098,1.83371 -1.33067,3.64253 -1.951,5.47979c-0.5145,1.33238 -0.82305,2.72104 -1.08642,4.12004c-0.20687,1.12555 -0.32346,2.26333 -0.40447,3.40384c-0.0501,0.96002 -0.09173,1.92073 -0.11734,2.88178c-0.0498,0.87852 0.02271,1.75738 -0.00697,2.63556c-0.03275,0.8642 0.11666,1.71637 0.29975,2.5568c0.15529,0.65586 0.2462,1.33191 0.5021,1.95849c0.21308,0.37165 0.52768,0.6726 0.94523,0.78817c0.16815,0.04599 0.31543,-0.07591 0.0792,-0.08172c0.15486,-0.32661 0.29069,-0.66134 0.44227,-0.98948c0.37527,-0.74823 0.90071,-1.41183 1.39152,-2.0872c0.43044,-0.37456 0.23033,-0.18447 0.6034,-0.56701c0.01454,-0.02316 0.04729,-0.00261 0.03275,0.02053c-0.17951,0.49818 -0.10073,0.23698 -0.23084,0.7853c-0.34341,0.73998 -0.60748,1.50565 -0.91658,2.25854c-0.18947,0.40319 -0.36879,0.81977 -0.63008,1.18234c-0.35098,0.33161 -0.7067,0.35064 -1.07608,0.03139c-0.40584,-0.33332 -0.83481,-0.64612 -1.09023,-1.12042c-0.35761,-0.63504 -0.5808,-1.32216 -0.73814,-2.03298c-0.18301,-0.87946 -0.31653,-1.76525 -0.4309,-2.65613c-0.1318,-0.89969 -0.1203,-1.80852 -0.09007,-2.71582c0.04543,-0.96678 0.09039,-1.93364 0.12203,-2.90098c0.0542,-1.18191 0.17819,-2.35903 0.38502,-3.52456c0.26725,-1.43852 0.63615,-2.85646 1.01163,-4.27005c0.57372,-1.86322 1.20466,-3.70723 1.85881,-5.54351c0.81074,-2.34885 1.65677,-4.68496 2.5854,-6.9901c1.04738,-2.63278 2.08352,-5.27189 3.27287,-7.84446c1.38378,-2.92484 2.91765,-5.77236 4.49031,-8.59962c1.73634,-3.09545 3.54872,-6.15601 5.75304,-8.94769c2.23425,-2.77731 4.63044,-5.41723 7.33689,-7.74783c2.29497,-1.99415 4.61376,-3.96127 7.03244,-5.8052c1.2942,-0.98692 2.57317,-2.11426 4.14138,-2.63381z" data-paper-data="{&quot;index&quot;:null}" fill="#000000"/><path d="M241.29561,143.14515c0.08843,-0.61082 0.95224,-0.48575 0.86381,0.12505c-0.05867,0.76041 -0.29898,1.46716 -0.61768,2.15322c-0.38557,0.77085 -0.96503,1.40657 -1.56107,2.01788c-0.59395,0.60327 -1.28128,1.09942 -1.95673,1.60524c-0.75943,0.55474 -1.50817,1.12401 -2.25478,1.69585c-1.0632,0.82054 -2.19359,1.5482 -3.31272,2.28894c-1.32725,0.86582 -2.63338,1.76388 -3.96144,2.62829c-1.41876,0.88955 -2.80374,1.82888 -4.16806,2.79929c-1.25122,0.92269 -2.48808,1.86523 -3.6959,2.84415c-1.08544,0.89165 -2.08031,1.88425 -3.08262,2.86617c-0.943,0.9173 -1.85637,1.86279 -2.73652,2.84038c-0.8423,0.95361 -1.66694,1.92248 -2.48521,2.8967c-0.72796,0.84414 -1.41478,1.72116 -2.08771,2.60931c-0.64962,0.87386 -1.28808,1.75614 -1.90713,2.6519c-0.61935,0.90589 -1.18708,1.84543 -1.77466,2.77184c-0.57894,0.90135 -1.16318,1.7989 -1.70008,2.72617c-0.44676,0.79257 -0.86194,1.60473 -1.24938,2.42796c-0.24532,0.53237 -0.48885,1.06586 -0.75486,1.58831c-0.11748,0.22467 -0.23684,0.44622 -0.38387,0.65266c-0.20842,0.37488 -0.72294,0.46671 -1.0724,0.23624c-0.09268,-0.04699 -0.2545,-0.21861 -0.05291,-0.01184c0.06226,0.0032 0.13289,0.12269 0.1836,0.07421c0.44761,-0.03365 0.32057,0.01742 0.20397,-0.1843c-0.05255,-0.0909 -0.14454,-0.41507 -0.17024,-0.4991c-0.02613,-0.00795 -0.01492,-0.04494 0.01125,-0.03699c-0.01506,-0.08234 -0.06986,-0.40529 -0.10184,-0.49504c-0.08632,-0.24212 -0.12349,-0.15615 0.30518,-0.21407c0.11998,-0.02896 0.23016,0.064 0.33531,0.1127c0.14174,0.13222 0.19866,0.16541 0.03618,0.05483c-0.30223,-0.20674 -0.73537,-0.00701 -0.86834,0.1912c0.09852,-0.17739 0.20238,-0.35147 0.29818,-0.53058c0.25725,-0.50441 0.47393,-1.02639 0.70046,-1.54512c0.38887,-0.87899 0.77337,-1.76016 1.27145,-2.58532c0.55273,-0.93813 1.1326,-1.8592 1.72745,-2.77124c0.59647,-0.94754 1.17656,-1.90593 1.81053,-2.82931c0.6359,-0.90661 1.28167,-1.80634 1.9398,-2.69696c0.6831,-0.91444 1.39652,-1.80549 2.13697,-2.67426c0.829,-0.987 1.66177,-1.97106 2.5181,-2.93454c0.89776,-1.00253 1.83692,-1.96601 2.79818,-2.90782c1.02981,-1.02468 2.07586,-2.03648 3.19376,-2.96563c1.23181,-0.99774 2.49548,-1.95622 3.77471,-2.89225c1.38472,-0.99355 2.80177,-1.94125 4.26975,-2.80831c1.34769,-0.81352 2.68816,-1.63684 3.99001,-2.52314c1.11281,-0.73271 2.21839,-1.47683 3.3483,-2.18298c0.7862,-0.4923 1.58288,-0.97165 2.32054,-1.53605c0.64107,-0.47584 1.2918,-0.94108 1.90653,-1.4507c0.54511,-0.5053 1.04906,-1.05632 1.4005,-1.71779c0.29611,-0.58916 0.50554,-1.21261 0.61169,-1.86505z" data-paper-data="{&quot;index&quot;:null}" fill="#000000"/><path d="M201.06618,183.70454c0.62251,0.6394 -0.28171,1.51976 -0.90422,0.88036c-1.10173,-0.96656 -2.09241,-2.06231 -3.10024,-3.12624c-2.23169,-2.28214 -4.14258,-4.83304 -5.95829,-7.44935c-2.33098,-3.43968 -4.20133,-7.15576 -5.97197,-10.90571c-1.55239,-3.39307 -2.82974,-6.9021 -4.09824,-10.4084c-0.85141,-2.21886 -1.32875,-4.5456 -1.78077,-6.87037c-0.2528,-0.87446 -0.30933,-2.03674 -0.82811,-2.81392c0.00265,0.30799 0.69037,0.05065 0.69871,0.08931c0.02027,0.09413 -0.00975,0.19236 -0.01146,0.28863c-0.00299,0.16101 -0.00599,0.32206 -0.00385,0.48307c0.00269,0.21889 0.01206,0.43764 0.01809,0.65646c0.13902,2.56821 0.48132,5.11872 0.80339,7.66872c0.37916,3.43412 1.12696,6.80388 2.06197,10.1249c0.64205,2.06731 1.25379,4.14356 1.86822,6.21913c0.46088,1.57697 1.02399,3.11995 1.56949,4.66862c0.07171,0.31917 0.67433,1.61578 0.40379,1.92851c-0.13012,0.1504 -0.33587,0.21306 -0.50381,0.31959c-0.14978,-0.04539 -0.30852,-0.06788 -0.44933,-0.13619c-0.57479,-0.27884 -1.61116,-1.56534 -2.02032,-2.05051c-1.66228,-2.06535 -3.25713,-4.18363 -4.79434,-6.34356c-2.04722,-2.89661 -3.77308,-5.99823 -5.32372,-9.1833c-1.00441,-2.10126 -1.73147,-4.31234 -2.38319,-6.54283c-0.09238,-0.30146 -0.1705,-0.60704 -0.25937,-0.90952c-0.14504,-0.49356 -0.3024,-0.54706 1.11554,-0.26936c0.11366,0.02226 0.05957,0.22389 0.08677,0.33648c0.04649,0.19241 0.08952,0.38565 0.13428,0.57847c0.59831,2.74353 1.01497,5.52204 1.48324,8.2896c0.65894,4.08109 1.65309,8.09355 2.78792,12.06495c1.07116,3.65006 2.54251,7.15101 4.17935,10.57773c1.36638,2.76662 2.85514,5.4718 4.44199,8.11771c1.10644,1.86146 2.46495,3.54106 3.96807,5.09238c1.17216,1.16775 2.43685,2.23643 3.70591,3.29613c0.93189,0.75922 1.90191,1.47054 2.87387,2.17734c0.87536,0.6524 1.7611,1.29009 2.66588,1.90106c0.912,0.6223 1.86039,1.18815 2.79078,1.78193c0.73638,0.49859 1.4696,1.0009 2.21257,1.49013c0.30933,0.23758 0.72944,0.45218 0.91346,0.82011c0.04999,0.09995 0.06258,0.21457 0.09384,0.32185c0.0345,0.01446 0.01407,0.06325 -0.02044,0.04879c-0.10292,0.05108 -0.19787,0.12318 -0.30877,0.15324c-0.40195,0.10889 -0.90289,-0.10163 -1.27307,-0.22462c-0.84854,-0.36206 -1.65702,-0.81369 -2.44262,-1.29604c-0.95369,-0.58941 -1.90897,-1.17661 -2.84872,-1.78808c-0.9206,-0.62191 -1.82948,-1.26012 -2.71634,-1.92962c-0.9959,-0.72971 -2.01771,-1.42543 -2.96388,-2.22104c-1.32289,-1.08801 -2.62594,-2.20389 -3.84308,-3.41039c-1.58258,-1.64415 -3.02353,-3.41445 -4.18902,-5.38358c-1.61764,-2.68965 -3.1297,-5.44306 -4.50399,-8.26566c-0.62401,-1.33627 -0.94634,-1.98342 -1.50505,-3.35608c-0.99945,-2.45575 -1.82969,-4.97885 -2.54482,-7.5306c-1.13337,-4.02336 -2.1315,-8.08427 -2.81131,-12.21162c-0.46588,-2.75422 -0.88942,-5.51503 -1.37865,-8.2648c-0.03467,-0.19699 -0.07149,-0.39361 -0.10403,-0.59095c-0.02193,-0.13304 -0.16596,-0.3174 -0.05948,-0.4001c1.07407,-0.83412 1.02857,-0.74346 1.17973,-0.22905c0.16334,0.55587 0.06616,0.22124 0.2599,0.89793c0.66006,2.15865 1.42791,4.28711 2.37942,6.33586c1.51206,3.1271 3.23036,6.1505 5.23135,8.9943c1.52972,2.13971 3.1268,4.22763 4.72763,6.31448c0.37595,0.50509 0.7381,1.03036 1.14342,1.51305c0.07851,0.09349 0.16463,0.18032 0.2482,0.26932c0.04661,0.04964 0.12936,0.07971 0.14232,0.14655c0.00731,0.03765 -0.06967,0.03209 -0.10452,0.04813c-0.09578,0.10038 -0.21365,0.18358 -0.28734,0.30113c-0.01989,0.03177 0.00633,0.13664 0.03075,0.1082c0.11973,-0.13953 -0.35257,-1.24622 -0.38117,-1.40153c-0.54097,-1.56346 -1.06192,-3.13428 -1.5399,-4.71822c-0.62905,-2.07758 -1.27812,-4.14925 -1.86788,-6.23837c-0.90516,-3.36442 -1.65728,-6.76634 -2.27526,-10.19545c-0.42941,-2.5789 -0.7971,-5.17859 -0.81771,-7.79828c-0.00304,-0.42727 -0.20341,-3.317 1.1282,-2.00732c0.51351,0.95682 0.70171,2.052 0.94258,3.09922c0.4767,2.2706 1.05953,4.51139 1.88353,6.68522c1.25631,3.4726 2.57954,6.92562 4.09233,10.29594c1.75148,3.68512 3.7127,7.26826 6.04808,10.62092c1.79826,2.54341 3.70035,5.01639 5.86036,7.26719c1.00843,1.05735 2.05974,2.08279 3.00347,3.19731z" data-paper-data="{&quot;index&quot;:null}" fill="#000000"/><path d="M203.25139,177.27654c0.40832,0.67259 -0.54289,1.25003 -0.95121,0.57744c-0.71731,-1.06042 -1.35736,-2.17105 -2.02622,-3.26231c-1.29215,-2.06364 -2.60216,-4.11568 -3.86061,-6.20031c-1.05987,-1.76316 -2.00069,-3.5934 -2.96388,-5.41009c-0.23548,-0.46767 -0.49881,-0.92013 -0.74669,-1.38113c-0.07673,-0.14267 -0.15344,-0.33648 -0.26608,-0.46011c0.38031,-0.05169 0.75773,-0.17615 1.14099,-0.15507c0.0731,0.00402 0.01189,0.14597 0.01899,0.21885c0.01435,0.14737 0.03188,0.29442 0.04539,0.44185c0.08294,0.90366 0.16323,1.80681 0.25452,2.70975c0.19687,2.07471 0.48128,4.14258 0.65373,6.21955c0.04765,0.57394 0.04251,1.15223 0.10923,1.72429c0.06507,0.5579 0.19038,1.10708 0.28557,1.66061c0.00608,0.02668 -0.0316,0.03523 -0.03767,0.00859c-0.15436,-0.54255 -0.29768,-1.0883 -0.46306,-1.6276c-0.17055,-0.5561 -0.38834,-1.09758 -0.54452,-1.65792c-0.56372,-2.02254 -0.81963,-4.12317 -1.13269,-6.19347c-0.12328,-0.90572 -0.25831,-1.81156 -0.36579,-2.71937c-0.01851,-0.15636 -0.03241,-0.31322 -0.04601,-0.47007c-0.00983,-0.11348 -0.11808,-0.27615 -0.02433,-0.34085c0.3364,-0.23216 0.76454,-0.28923 1.1468,-0.43385c0.31057,0.65009 0.61347,1.3045 0.95498,1.93929c0.9392,1.80352 1.94929,3.56873 2.99697,5.31132c1.2635,2.07954 2.57745,4.12727 3.86438,6.19219c0.66732,1.09369 1.33957,2.18602 1.9572,3.30874z" data-paper-data="{&quot;index&quot;:null}" fill="#000000"/><path d="M244.51969,221.00421c-0.11935,-0.68433 0.84847,-0.8531 0.9678,-0.16876c0.27546,0.95865 0.37945,1.95968 0.50086,2.9472c0.19575,1.70184 0.25906,3.41432 0.29977,5.12573c0.03155,1.73403 -0.01282,3.4685 -0.13668,5.198c-0.07525,0.98358 -0.21197,1.9605 -0.45805,2.91607c-0.0425,0.23553 -0.17261,0.49866 -0.17945,0.72873c-0.00378,-0.27509 -0.13869,-0.3662 0.13129,-0.03318c0.34692,0.48961 0.6238,1.02104 0.89066,1.55692c0.53742,1.09694 0.93492,2.25319 1.35098,3.39935c0.45249,1.19358 0.71887,2.44314 1.0582,3.6705c0.23317,0.72621 0.35647,1.48042 0.58625,2.20744c-0.03497,-0.01605 0.16297,0.33624 0.14364,0.31824c-0.03242,-0.03017 -0.05114,-0.08953 -0.09534,-0.09253c-0.13654,-0.00862 -0.26864,0.03596 -0.39642,0.07714c-0.02713,-0.62756 -0.10793,-1.25024 -0.18344,-1.87331c-0.16531,-1.23224 -0.26228,-2.47277 -0.44839,-3.70201c-0.06518,-0.7484 -0.33345,-1.47965 -0.30612,-2.23515c0.03908,-0.51787 0.38899,-0.77932 0.89045,-0.74254c0.50047,0.13594 0.92701,0.44959 1.36048,0.72308c0.99072,0.56034 1.98307,1.11755 2.97807,1.67028c1.05008,0.57235 2.08117,1.17643 3.08964,1.81892c0.51322,0.3783 0.69881,0.39212 -0.27546,1.04571c-0.00156,0.00104 -0.25804,-0.21261 -0.41492,-0.343c-0.69042,-0.58403 -1.40653,-1.13085 -2.06966,-1.74678c-0.85492,-0.80031 -1.67763,-1.62752 -2.60041,-2.35035c-0.48136,-0.40328 -1.0136,-0.74502 -1.56504,-1.04447c-0.34812,-0.20889 -0.19602,-0.08552 0.44373,-0.90268c0.0071,-0.00903 0.54024,0.04762 0.7082,0.05677c0.76585,0.06568 1.52335,0.1937 2.28274,0.3079c0.94364,0.13284 1.87934,0.30783 2.81597,0.4823c0.50261,0.09155 1.00732,0.16933 1.50308,0.29083c0.22737,-0.00081 0.13063,-0.06512 -0.18599,0.705c-0.00748,0.01812 -0.02502,-0.03092 -0.04131,-0.04178c-0.12943,-0.08606 -0.21246,-0.10948 -0.36334,-0.17142c-0.83204,-0.30685 -1.69653,-0.50313 -2.54174,-0.76704c-1.33178,-0.48127 -2.55209,-1.22971 -3.7954,-1.90076c-0.87976,-0.47405 -1.75939,-0.94801 -2.64676,-1.40756c-0.17476,-0.08533 -0.33706,-0.20489 -0.52369,-0.26407c-0.19575,-0.05718 -0.3567,-0.10982 -0.49778,-0.25787c-0.17644,-0.29958 -0.13646,-0.65672 -0.11102,-0.98953c0.09311,-0.69927 0.23742,-1.39221 0.37458,-2.0842c0.27149,-1.42778 0.49156,-2.86442 0.71158,-4.30088c0.2206,-1.48444 0.51883,-2.95554 0.82079,-4.42489c0.25171,-0.85979 0.27399,-1.77021 0.5369,-2.6247c0.08418,-0.35624 0.20296,-0.68345 0.36272,-1.01001c0.00051,-0.0272 0.03908,-0.02647 0.03866,0.00086c0.15217,0.34906 0.23514,0.69221 0.24874,1.07753c0.0747,0.91068 -0.16357,1.81515 -0.20176,2.72416c-0.20093,1.48063 -0.4739,2.94955 -0.69863,4.4266c-0.22266,1.45361 -0.43389,2.91017 -0.75605,4.34621c-0.1373,0.66566 -0.28268,1.32965 -0.41941,1.99543c-0.0132,0.07048 -0.01197,0.38099 -0.06135,0.43676c-0.02502,0.02826 -0.02419,-0.2082 -0.06701,-0.09129c-0.09214,-0.07277 -0.08958,-0.04388 -0.0794,0.0298c0.246,0.05281 0.48861,0.10568 0.7147,0.22621c0.90636,0.43868 1.80908,0.88587 2.70043,1.35449c1.22407,0.64462 2.45229,1.27966 3.68726,1.9023c0.77483,0.39319 1.55063,0.78131 2.39798,0.99607c0.02685,0.00641 0.61943,0.1117 0.62157,0.13869c0.05871,0.76016 0.07195,0.8216 -0.33961,0.76482c-0.51416,-0.02843 -1.01856,-0.13372 -1.52934,-0.19929c-0.93364,-0.12453 -1.8692,-0.23868 -2.80524,-0.34145c-0.7587,-0.0792 -1.51711,-0.15895 -2.27534,-0.24232c-0.21469,-0.03592 -0.42443,-0.07579 -0.63598,-0.12611c-0.43692,-0.10391 -0.21783,0.05247 0.13774,-0.93625c0.00599,-0.01662 0.02356,0.02638 0.03532,0.03955c0.47396,0.4392 0.94074,0.8877 1.44583,1.2915c0.88164,0.7862 1.81468,1.51108 2.67037,2.32636c0.62858,0.57996 1.19653,1.26008 1.95973,1.66669c0.07936,0.03614 0.15751,0.07506 0.23807,0.10842c0.06557,0.02716 0.21128,0.00298 0.19999,0.07305c-0.17724,1.10059 -0.19803,1.00426 -0.75101,0.72548c-1.0151,-0.6004 -2.00783,-1.23784 -3.03986,-1.80951c-1.01069,-0.56504 -2.04521,-1.09215 -3.0166,-1.7239c-0.33713,-0.21278 -0.74784,-0.42415 -1.00539,-0.73151c0.17437,-0.0787 0.29576,-0.31055 0.21516,-0.14088c-0.03167,0.70188 0.0303,1.40546 0.13711,2.099c0.16783,1.23878 0.37633,2.47132 0.46968,3.71938c0.07566,0.69084 0.20587,1.39806 0.11611,2.09203c-0.2977,0.80069 -0.77344,0.24437 -0.92915,-0.20885c-0.30364,-0.71261 -0.65003,-1.40884 -0.88545,-2.14852c-0.41747,-1.184 -0.90785,-2.33944 -1.33067,-3.52156c-0.40704,-1.09395 -0.82926,-2.18512 -1.32721,-3.2414c-0.23557,-0.44856 -0.48867,-0.8936 -0.82096,-1.27885c-0.21586,-0.27709 -0.46502,-0.52231 -0.44629,-0.9073c0.02262,-0.3594 0.15817,-0.68086 0.27292,-1.01912c0.25249,-0.87052 0.36583,-1.77265 0.46049,-2.67212c0.17281,-1.67994 0.27953,-3.36553 0.22272,-5.05561c-0.03644,-1.6778 -0.06941,-3.35745 -0.21592,-5.02995c-0.09063,-0.9699 -0.23947,-1.9327 -0.32479,-2.90243z" data-paper-data="{&quot;index&quot;:null}" fill="#000000"/><path d="M258.69505,219.16547c-0.0366,-0.77797 1.06363,-0.82967 1.10019,-0.05172c0.10503,1.21364 0.15535,2.43112 0.20203,3.64814c0.10201,1.84889 0.0345,3.69693 -0.10296,5.54137c-0.12219,1.41735 -0.29841,2.83025 -0.53797,4.23255c-0.08355,0.64107 -0.27555,1.25204 -0.56106,1.82931c-0.09447,0.21441 -0.24444,0.40917 -0.29266,0.64163c0.00864,-0.04227 -0.03677,0.09299 -0.02664,0.07011c0.03074,-0.06951 0.0989,-0.13503 0.08816,-0.21026c-0.05614,-0.39424 -0.36374,-0.57713 -0.13364,-0.48722c0.4802,0.17677 0.89155,0.49789 1.29368,0.80596c0.92889,0.78847 1.84786,1.58865 2.75811,2.39854c0.933,0.8116 1.83816,1.65467 2.79309,2.44074c0.21884,0.1858 0.28689,0.25307 0.50659,0.40899c0.04787,0.03397 0.09692,0.06654 0.14808,0.09532c0.01524,0.00859 0.06694,0.01997 0.04988,0.01612c-0.41745,-0.08961 -0.13346,-0.12335 -0.65826,0.35608c-0.00278,0.04138 0.03284,0.11932 -0.00834,0.12416c-0.04434,0.00522 -0.04469,-0.07732 -0.06846,-0.11512c-0.04267,-0.06789 -0.08682,-0.13483 -0.13078,-0.20189c-0.2109,-0.32173 -0.42754,-0.63952 -0.63872,-0.96109c-0.53246,-0.94099 -1.06996,-1.87874 -1.68294,-2.77c-0.31181,-0.50813 -0.79038,-0.88528 -1.11537,-1.38156c-0.30382,-0.55067 0.021,-0.74796 0.53212,-0.84055c0.15518,-0.02812 0.48293,0.13268 0.6285,0.18078c0.8054,0.28132 1.6397,0.45258 2.47777,0.60173c1.2431,0.1949 2.46854,0.45987 3.66199,0.85936c0.59403,0.21376 1.16515,0.48254 1.73925,0.74335c-0.02441,-0.01206 -0.05601,-0.05726 -0.07324,-0.03618c-0.22926,0.28043 -0.38383,0.6185 -0.62426,0.88938c-0.02734,0.0308 -0.06224,-0.05392 -0.09392,-0.08026c-0.06031,-0.05013 -0.11987,-0.10122 -0.18198,-0.1491c-0.34611,-0.26682 -0.22937,-0.18036 -0.66745,-0.39466c-1.28924,-0.54011 -2.53614,-1.17113 -3.77184,-1.82246c-1.11157,-0.5384 -2.17691,-1.16271 -3.25931,-1.75559c-0.07252,-0.05649 -0.97752,-0.44068 -0.91264,-0.5597c0.13795,-0.2531 0.39459,-0.42033 0.59189,-0.63051c0.51651,0.05623 1.02566,0.17407 1.53481,0.2765c0.97897,0.22514 1.96148,0.43978 2.95105,0.61319c0.83076,0.13672 1.66587,0.24503 2.49381,0.39809c-0.22881,0.05946 0.29748,0.01052 0.22377,-0.00086c-0.04858,-0.00753 -0.12692,-0.03852 -0.14732,0.0062c-0.10918,0.2395 -0.0666,0.53813 -0.20333,0.76307c-0.03939,0.06479 -0.14217,-0.05294 -0.21445,-0.07581c-0.10341,-0.03272 -0.20829,-0.06062 -0.31243,-0.09094c-1.03943,-0.31455 -2.07172,-0.65251 -3.09785,-1.00796c-0.92436,-0.3113 -1.82999,-0.68148 -2.7053,-1.11169c-0.48405,-0.22244 -0.92774,-0.52017 -1.40016,-0.76375c-0.26499,-0.122 -0.4342,-0.29871 -0.55388,-0.56324c-0.08725,-0.2738 -0.07823,-0.56675 -0.08639,-0.85128c0.03441,-0.77461 0.08369,-1.54867 0.13511,-2.32234c0.15067,-2.09994 0.27388,-4.20142 0.39843,-6.30294c0.10312,-1.71843 0.03123,-3.44417 0.30198,-5.14754c-0.00162,-0.02711 0.03686,-0.02942 0.03857,-0.00214c0.47671,1.67652 0.63996,3.41748 0.79296,5.14968c0.12305,2.13522 0.04764,4.26312 -0.15573,6.39231c-0.04909,0.77359 -0.0793,1.54991 -0.17656,2.3193c-0.00496,0.02799 -0.03909,0.55663 -0.1003,0.37962c-0.16353,-0.29156 -0.12838,-0.11563 0.04868,0.01715c0.34572,0.3324 0.80432,0.52151 1.21774,0.75306c0.84397,0.4102 1.70132,0.78986 2.57591,1.13077c1.0142,0.37689 2.04392,0.70425 3.07245,1.03909c0.09728,0.03816 0.58643,0.22988 0.58676,0.23074c0.39859,1.06418 0.19287,0.96575 -0.38752,0.86372c-0.81874,-0.15146 -1.63979,-0.29123 -2.46802,-0.38228c-1.00941,-0.12638 -2.01972,-0.24075 -3.02507,-0.39779c-0.50086,-0.08988 -1.0095,-0.16994 -1.49128,-0.33795c0.23714,-0.45115 0.56619,-0.5585 0.22033,-0.79591c-0.01704,-0.0117 0.0142,0.0395 0.02673,0.05592c0.13912,0.18222 0.35564,0.28262 0.54319,0.40337c1.0467,0.62482 2.14099,1.16613 3.22989,1.7124c1.27842,0.55734 2.58544,1.04204 3.86972,1.58454c0.36907,0.16088 0.77746,0.27124 1.12914,0.46832c0.08302,0.04652 0.25112,0.06678 0.23594,0.16073c-0.06152,0.38113 -0.23757,0.74164 -0.43518,1.0733c-0.03062,0.05139 -0.11328,-0.0385 -0.16992,-0.05774c-0.52322,-0.25952 -1.03468,-0.5469 -1.59904,-0.71723c-1.14355,-0.38105 -2.31977,-0.62662 -3.51395,-0.79013c-0.90717,-0.17087 -1.82905,-0.32942 -2.6805,-0.70093c-0.07116,-0.03296 -0.1432,-0.06411 -0.21348,-0.09888c-0.53933,-0.26691 0.88773,-0.22355 0.25927,-0.77619c0.28825,0.49782 0.6578,0.94895 0.96656,1.43373c0.61948,0.89404 1.25285,1.77799 1.90435,2.64903c0.21239,0.32639 0.42134,0.65477 0.62893,0.98422c0.02902,0.04604 0.25052,0.3958 0.27447,0.45946c0.04279,0.11375 0.06016,0.2355 0.09026,0.35324c-0.15158,0.17637 -0.25771,0.40554 -0.45472,0.52912c-0.26918,0.16882 -1.09018,-0.55474 -1.27363,-0.68161c-0.95207,-0.80356 -1.88524,-1.62897 -2.81558,-2.45755c-0.89896,-0.78304 -1.77534,-1.59481 -2.71266,-2.33209c-0.33208,-0.24861 -0.66311,-0.47227 -1.06577,-0.58839c-0.40404,-0.15727 -0.75883,-0.56594 -0.42247,-0.96716c0.16563,-0.12813 0.22688,-0.34625 0.32107,-0.52463c0.22227,-0.51189 0.39665,-1.03853 0.50595,-1.58728c0.25864,-1.36223 0.45632,-2.73618 0.54541,-4.12086c0.08711,-1.81092 0.05204,-3.62269 -0.03549,-5.43318c-0.06987,-1.21642 -0.18506,-2.43001 -0.23415,-3.64749z" data-paper-data="{&quot;index&quot;:null}" fill="#000000"/><path d="M250.5277,218.96431c-0.04888,-0.80806 1.09391,-0.87721 1.14278,-0.06911c-0.16071,1.13295 -0.07982,2.27752 -0.21864,3.41064c0.00338,0.02711 -0.03494,0.0319 -0.03836,0.00479c-0.4179,-1.08022 -0.60943,-2.2242 -0.88579,-3.34629z" data-paper-data="{&quot;index&quot;:null}" fill="#000000"/><path d="M249.45867,221.32899c-0.24878,-0.72815 0.781,-1.07994 1.02977,-0.35181c0.0894,0.62777 0.25786,1.2608 0.27334,1.89764c-0.0402,0.66504 -0.03562,0.34602 -0.02074,0.9569c0.00611,0.02664 -0.03156,0.03528 -0.03767,0.00864c-0.49301,-1.07987 0.18075,0.35213 -0.44848,-0.82806c-0.29129,-0.54635 -0.49051,-1.14304 -0.79621,-1.68328z" data-paper-data="{&quot;index&quot;:null}" fill="#000000"/><path d="M247.74823,221.12781c-0.20876,-0.66395 0.73021,-0.9592 0.93898,-0.29525c0.14637,0.56359 0.19939,1.18332 0.13842,1.76534c-0.11997,0.61628 -0.08059,0.31677 -0.12587,0.89746c0.00291,0.02732 -0.03545,0.03147 -0.03844,0.00428c-0.24075,-0.79599 0.0301,0.0115 -0.33875,-0.81712c-0.22359,-0.50231 -0.39631,-1.03532 -0.57432,-1.55448z" data-paper-data="{&quot;index&quot;:null}" fill="#000000"/><path d="M246.9443,221.63259c0.27196,-0.53162 1.02379,-0.14708 0.75186,0.38457c-0.24912,0.27363 -0.51023,0.53149 -0.78244,0.78188c-0.01056,0.02519 -0.04618,0.01022 -0.03562,-0.01497c-0.01056,-0.38664 -0.01217,-0.76996 0.06624,-1.15146z" data-paper-data="{&quot;index&quot;:null}" fill="#000000"/><path d="M245.4691,220.90998c0.36235,-0.64684 1.27714,-0.13448 0.91482,0.5124c-0.30313,0.46879 -0.70221,1.09725 -1.10626,1.47786c-0.11929,0.11236 -0.26492,0.19298 -0.39737,0.28946c-0.01279,0.02416 -0.04695,0.00607 -0.03417,-0.01809c0.00453,-0.16252 -0.01031,-0.32673 0.01368,-0.48752c0.08817,-0.59155 0.35861,-1.23613 0.6093,-1.77414z" data-paper-data="{&quot;index&quot;:null}" fill="#000000"/><path d="M244.1392,221.59845c0.35845,-0.5139 1.08519,-0.00701 0.72676,0.50689c-0.25939,0.34581 -0.56524,0.68696 -0.9256,0.93197c-0.28273,0.19221 -0.59675,0.33447 -0.88558,0.51741c-0.0195,0.01914 -0.04661,-0.00842 -0.02711,-0.02758c0.4046,-0.62307 0.64,-1.3423 1.11157,-1.92872z" data-paper-data="{&quot;index&quot;:null}" fill="#000000"/><path d="M242.47585,221.08104c0.56462,-0.60049 1.41384,0.19798 0.84923,0.79847c-0.55187,0.5452 -1.24584,0.9181 -1.94677,1.23497c-0.01958,0.01905 -0.04652,-0.00864 -0.02694,-0.02771c0.32725,-0.69131 0.63017,-1.41444 1.12448,-2.00578z" data-paper-data="{&quot;index&quot;:null}" fill="#000000"/><path d="M241.59499,219.27213c0.45921,-0.68605 1.42945,-0.0366 0.97024,0.64945c-0.40208,0.76003 -1.17656,1.13799 -1.80403,1.66823c-0.18001,0.15216 -0.33313,0.33354 -0.4997,0.5003c-0.01715,0.02132 -0.04725,-0.00291 -0.03015,-0.0242c0.12585,-0.19701 0.27561,-0.38066 0.37756,-0.59104c0.3494,-0.72099 0.43129,-1.58087 0.98606,-2.20265z" data-paper-data="{&quot;index&quot;:null}" fill="#000000"/><path d="M261.34622,217.98081c-0.44381,-0.63838 0.45899,-1.26602 0.90281,-0.62764c0.06551,0.53729 0.41201,0.99043 0.51805,1.51489c0.0272,0.13455 0.02134,0.2737 0.03203,0.41056c0.01279,0.02416 -0.02138,0.04225 -0.03417,0.01809c-0.10545,-0.08241 -0.21886,-0.15553 -0.31634,-0.24722c-0.373,-0.35077 -0.62521,-0.83224 -1.10242,-1.06863z" data-paper-data="{&quot;index&quot;:null}" fill="#000000"/><path d="M260.58505,218.5966c-0.21992,-0.56378 0.57738,-0.8748 0.79732,-0.31105c0.11266,0.5343 0.08326,1.07355 0.14952,1.61174c0.00888,0.02583 -0.02767,0.0384 -0.03656,0.01257c-0.27615,-0.45912 -0.63406,-0.85214 -0.91029,-1.31327z" data-paper-data="{&quot;index&quot;:null}" fill="#000000"/><path d="M258.96442,219.09688c-0.14847,-0.8542 1.05953,-1.06415 1.20799,-0.20996c0.02377,0.38087 -0.08299,0.75044 -0.14958,1.12123c-0.02614,0.14554 -0.02396,0.29766 -0.07072,0.43796c-0.04975,0.14927 -0.14349,0.28007 -0.21524,0.42011c0.00013,0.02732 -0.03851,0.02753 -0.03866,0.00021c-0.31034,-0.55914 -0.47037,-1.18503 -0.73382,-1.76953z" data-paper-data="{&quot;index&quot;:null}" fill="#000000"/><path d="M257.74149,218.61798c0.45981,-0.79274 1.58087,-0.14244 1.12106,0.65026c-0.48602,0.86916 -1.3054,1.4599 -2.06714,2.07176c-0.01548,0.02255 -0.04734,0.00068 -0.0319,-0.02185c0.28633,-0.91448 0.45763,-1.88011 0.97794,-2.70017z" data-paper-data="{&quot;index&quot;:null}" fill="#000000"/><path d="M255.84719,218.86167c0.51407,-0.73266 1.55025,-0.00569 1.03618,0.72702c-0.32601,0.4947 -0.77196,0.80698 -1.28193,1.09173c-0.21727,0.1213 -0.45458,0.207 -0.66313,0.34269c-0.19493,0.12681 -0.36059,0.29374 -0.54088,0.44061c-0.01903,0.01963 -0.04678,-0.00727 -0.02775,-0.0269c0.14033,-0.18393 0.30524,-0.35147 0.42098,-0.55179c0.37933,-0.65651 0.49816,-1.46498 1.05649,-2.02331z" data-paper-data="{&quot;index&quot;:null}" fill="#000000"/></g></g></svg>