<svg xmlns="http://www.w3.org/2000/svg" width="79.707" height="131.716" viewBox="0 0 102.025 168.597" xmlns:v="https://vecta.io/nano"><path d="M90.523 82.232a33.192 33.192 0 0 1-33.192 33.192H45.917a33.192 33.192 0 0 1-33.192-33.192V33.192A33.18 33.18 0 0 1 45.917 0h11.414a33.192 33.192 0 0 1 33.192 33.192z" fill="#979fcb"/><g fill="#394b97"><path d="M95.818 64.524v20.392c0 20.38-17.108 36.901-38.225 36.901h-13.15c-21.117 0-38.237-16.521-38.237-36.901V64.524H0V88.7c0 23.202 19.493 42.009 43.52 42.009h14.973c24.051 0 43.532-18.806 43.532-42.009V64.524z"/><path d="M42.633 124.715h17.982v31.794H42.633z"/><path d="M97.554 168.597v-2.385c0-7.98-7.605-14.448-17.021-14.448H22.715c-9.391 0-17.021 6.481-17.021 14.448v2.385z"/></g><path d="M55.845 28.322h34.041v8.03H55.845zm-43.307 0h34.041v8.03H12.538zm43.307 14.136h34.041v8.03H55.845zm-43.307 0h34.041v8.03H12.538zm43.307 15.247h34.041v8.042H55.845zm-43.307 0h34.041v8.042H12.538zm43.307 14.161h34.041v8.017H55.845zm-43.307 0h34.041v8.017H12.538z" fill="#5161a4"/></svg>