<svg xmlns="http://www.w3.org/2000/svg" width="138.576" height="131.247" viewBox="0 0 177.378 167.996" xmlns:v="https://vecta.io/nano"><path d="M177.378 28.819v15.986c0 7.795-6.347 14.122-14.122 14.122-2.459 0-4.76-.635-6.783-1.745l-.397 91.575c0 10.591-8.648 19.239-19.279 19.239h-23.841c-3.63 0-7.061-1.408-9.639-3.987-1.845-1.845-3.094-4.126-3.65-6.605-2.479-.555-4.76-1.805-6.605-3.649-2.578-2.578-3.987-5.99-3.987-9.639 0-3.63 1.428-6.942 3.769-9.401-2.459-.853-4.919-1.825-7.359-2.896v21.361c0 8.172-6.644 14.816-14.816 14.816-6.585 0-12.198-4.344-14.102-10.294a14.9 14.9 0 0 1-5.95-3.63c-2.797-2.797-4.344-6.525-4.344-10.472v-42.168c-5.633-7.517-9.401-15.391-10.968-22.928A28.59 28.59 0 0 1 22.75 55.933c-.02-.02-.02-.04-.02-.04-.992.159-2.023.238-3.074.238C8.826 56.131 0 47.324 0 36.475c0-10.829 8.826-19.656 19.656-19.656a17.3 17.3 0 0 1 1.448.059C27.47 6.406 38.776 0 51.172 0s23.682 6.406 30.069 16.879c.476-.04.952-.059 1.468-.059 10.829 0 19.656 8.826 19.656 19.656a19.5 19.5 0 0 1-2.063 8.747c5.752 2.142 11.405 4.899 16.879 8.172 3.888 2.34 7.597 4.879 11.068 7.636V28.819c0-13.547 11.028-24.575 24.575-24.575s24.555 11.028 24.555 24.575z" fill="#633"/><path d="M170.039 28.819v15.986c0 3.729-3.035 6.783-6.783 6.783s-6.763-3.035-6.763-6.783V28.819c0-2.023-1.646-3.669-3.669-3.669s-3.669 1.646-3.669 3.669v55.516c-3.431-5.811-7.993-11.524-13.547-16.899V28.819c0-9.501 7.735-17.216 17.216-17.216s17.216 7.735 17.216 17.216zm-20.925 78.504l-.397 41.394c0 6.565-5.355 11.92-11.92 11.92h-23.841c-1.686 0-3.253-.655-4.443-1.845-1.19-1.17-1.825-2.757-1.825-4.423v-.198a6.24 6.24 0 0 1 6.268-6.069h19.398c2.023 0 3.669-1.646 3.669-3.669s-1.646-3.669-3.669-3.669c-9.719 0-17.633-7.914-17.633-17.633 0-2.023-1.646-3.669-3.669-3.669s-3.669 1.646-3.669 3.669a25.16 25.16 0 0 0 1.111 7.378h-3.61c-6.426-1.388-12.972-3.669-19.398-6.744v-14.479c0-2.023-1.646-3.669-3.669-3.669s-3.669 1.646-3.669 3.669V153.2c0 4.106-3.352 7.458-7.458 7.458s-7.458-3.352-7.458-7.458v-50.696c0-2.023-1.646-3.669-3.669-3.669a3.68 3.68 0 0 0-3.59 2.876c-1.091-1.23-2.122-2.479-3.094-3.749-3.967-5.117-6.942-10.393-8.806-15.53a28.61 28.61 0 0 0 7.121.912c15.332 0 27.887-12.218 28.422-27.411.02-.02.02-.02.02-.04a19.46 19.46 0 0 0 3.074.238c4.74 0 9.302-1.726 12.853-4.8 6.069 2.102 12.059 4.899 17.851 8.37 5.871 3.511 11.246 7.557 16.006 12 11.96 11.187 19.239 24.396 19.695 35.622z" fill="#ca5f38"/><path d="M135.151 94.788a3.69 3.69 0 0 1-1.507 4.978c-.555.298-1.15.436-1.726.436-1.309 0-2.578-.714-3.253-1.944-2.519-4.701-6.347-9.52-11.048-13.943-3.868-3.63-8.291-6.922-13.11-9.818a3.68 3.68 0 0 1-1.269-5.038 3.68 3.68 0 0 1 5.038-1.269c5.256 3.154 10.096 6.783 14.34 10.75 5.395 5.038 9.6 10.373 12.535 15.848z" fill="#633"/><path d="M114.662 140.744h-1.726c-5.95 0-10.988 3.749-12.853 9.064-.674-.298-1.309-.734-1.845-1.269-1.19-1.19-1.825-2.757-1.825-4.443 0-3.451 2.816-6.268 6.268-6.268h1.428c2.935.615 8.945 1.329 9.044 1.329h.059a36.06 36.06 0 0 0 1.448 1.587zM94.986 36.455c0 3.035-1.111 5.95-3.134 8.211-2.122 2.36-5.078 3.808-8.211 4.046a33.69 33.69 0 0 0 1.289-3.59c.952-3.213 1.428-6.565 1.428-9.937 0-3.689-.595-7.358-1.726-10.869 5.871.932 10.353 6.03 10.353 12.139z" fill="#ca5f38"/><path d="M79.02 35.186c0 2.678-.377 5.316-1.131 7.854-.992 3.392-2.638 6.545-4.859 9.342-.516.655-.793 1.448-.793 2.281 0 .119 0 .218.02.317-.059 11.603-9.501 21.004-21.104 21.004-3.769 0-7.458-1.012-10.691-2.896-6.387-3.769-10.373-10.691-10.413-18.109 0-.099.02-.198.02-.298 0-.833-.278-1.626-.793-2.281-.655-.833-1.269-1.706-1.825-2.618-2.717-4.383-4.145-9.421-4.145-14.598a27.03 27.03 0 0 1 .674-6.089c6.684 7.894 16.581 12.595 27.193 12.595s20.489-4.701 27.173-12.595c.436 1.964.674 4.007.674 6.089z" fill="#f9dcb2"/><path d="M65.175 44.409a3.11 3.11 0 0 1 3.114 3.134c0 1.726-1.388 3.114-3.114 3.114s-3.134-1.388-3.134-3.114c.02-1.745 1.408-3.134 3.134-3.134z" fill="#633"/><path d="M51.153 7.319c9.937 0 18.981 5.216 23.999 13.705-5.157 8.251-14.181 13.309-23.98 13.309-9.818 0-18.843-5.058-23.999-13.289 4.998-8.509 14.043-13.725 23.98-13.725z" fill="#ca5f38"/><path d="M58.749 58.868c1.289 1.289 1.289 3.392 0 4.681l-1.15 1.15a3.27 3.27 0 0 1-2.34.972 3.27 3.27 0 0 1-2.34-.972c-1.289-1.289-1.289-3.392 0-4.681l1.15-1.15c1.289-1.289 3.392-1.289 4.681 0z" fill="#633"/><path d="M55.853 112.182v36.713l-.059-.06c-1.408-1.408-2.182-3.273-2.182-5.276v-33.579l2.241 2.202z" fill="#ca5f38"/><path d="M49.407 60.018c1.289 1.289 1.289 3.392 0 4.681-.635.655-1.488.972-2.34.972a3.27 3.27 0 0 1-2.34-.972l-1.15-1.15c-1.289-1.289-1.289-3.392 0-4.681s3.392-1.289 4.681 0zM37.15 44.409a3.11 3.11 0 0 1 3.114 3.134c0 1.726-1.388 3.114-3.114 3.114s-3.134-1.388-3.134-3.114a3.13 3.13 0 0 1 3.134-3.134z" fill="#633"/><path d="M15.947 35.186c0 4.681.932 9.282 2.717 13.547-6.327-.496-11.345-5.811-11.345-12.258 0-6.109 4.483-11.206 10.334-12.139-1.111 3.471-1.706 7.16-1.706 10.849z" fill="#ca5f38"/></svg>