<svg version="1.1" xmlns="http://www.w3.org/2000/svg" xmlns:xlink="http://www.w3.org/1999/xlink" width="124.30141" height="106.47396" viewBox="0,0,124.30141,106.47396"><defs><radialGradient cx="272.61191" cy="153.54731" r="7.97807" gradientUnits="userSpaceOnUse" id="color-1"><stop offset="0" stop-color="#000000" stop-opacity="0"/><stop offset="1" stop-color="#000000" stop-opacity="0.57196"/></radialGradient><radialGradient cx="275.17811" cy="166.46105" r="5.50475" gradientUnits="userSpaceOnUse" id="color-2"><stop offset="0" stop-color="#000000" stop-opacity="0"/><stop offset="1" stop-color="#000000" stop-opacity="0.57196"/></radialGradient><radialGradient cx="278.5172" cy="159.87483" r="7.07458" gradientUnits="userSpaceOnUse" id="color-3"><stop offset="0" stop-color="#000000" stop-opacity="0"/><stop offset="1" stop-color="#000000" stop-opacity="0.57196"/></radialGradient><radialGradient cx="278.92266" cy="149.711" r="10.61408" gradientUnits="userSpaceOnUse" id="color-4"><stop offset="0" stop-color="#000000" stop-opacity="0"/><stop offset="1" stop-color="#000000" stop-opacity="0.57196"/></radialGradient><radialGradient cx="225.55107" cy="129.53397" r="2.32607" gradientUnits="userSpaceOnUse" id="color-5"><stop offset="0" stop-color="#000000" stop-opacity="0"/><stop offset="1" stop-color="#000000" stop-opacity="0.57196"/></radialGradient><radialGradient cx="241.33828" cy="221.7718" r="71.99941" gradientUnits="userSpaceOnUse" id="color-6"><stop offset="0" stop-color="#000000"/><stop offset="1" stop-color="#000000" stop-opacity="0"/></radialGradient><radialGradient cx="224.96872" cy="150.48311" r="73.38711" gradientUnits="userSpaceOnUse" id="color-7"><stop offset="0" stop-color="#000000" stop-opacity="0"/><stop offset="1" stop-color="#000000" stop-opacity="0.57196"/></radialGradient><radialGradient cx="265.23156" cy="164.3837" r="17.28955" gradientUnits="userSpaceOnUse" id="color-8"><stop offset="0" stop-color="#000000" stop-opacity="0"/><stop offset="1" stop-color="#000000" stop-opacity="0.57196"/></radialGradient><radialGradient cx="236.71676" cy="164.3837" r="17.28955" gradientUnits="userSpaceOnUse" id="color-9"><stop offset="0" stop-color="#000000" stop-opacity="0"/><stop offset="1" stop-color="#000000" stop-opacity="0.57196"/></radialGradient><radialGradient cx="225.89269" cy="125.97838" r="66.89952" gradientUnits="userSpaceOnUse" id="color-10"><stop offset="0" stop-color="#000000" stop-opacity="0"/><stop offset="1" stop-color="#000000" stop-opacity="0.57196"/></radialGradient><radialGradient cx="206.64528" cy="171.74682" r="7.97805" gradientUnits="userSpaceOnUse" id="color-11"><stop offset="0" stop-color="#000000" stop-opacity="0"/><stop offset="1" stop-color="#000000" stop-opacity="0.57196"/></radialGradient><radialGradient cx="199.35447" cy="183.47234" r="5.50474" gradientUnits="userSpaceOnUse" id="color-12"><stop offset="0" stop-color="#000000" stop-opacity="0"/><stop offset="1" stop-color="#000000" stop-opacity="0.57196"/></radialGradient><radialGradient cx="193.48565" cy="177.49881" r="7.07456" gradientUnits="userSpaceOnUse" id="color-13"><stop offset="0" stop-color="#000000" stop-opacity="0"/><stop offset="1" stop-color="#000000" stop-opacity="0.57196"/></radialGradient><radialGradient cx="187.21739" cy="169.47696" r="10.61405" gradientUnits="userSpaceOnUse" id="color-14"><stop offset="0" stop-color="#000000" stop-opacity="0"/><stop offset="1" stop-color="#000000" stop-opacity="0.57196"/></radialGradient></defs><g transform="translate(-177.84863,-123.85366)"><g data-paper-data="{&quot;isPaintingLayer&quot;:true}" fill-rule="nonzero" stroke="none" stroke-width="1" stroke-linecap="butt" stroke-linejoin="miter" stroke-miterlimit="10" stroke-dasharray="" stroke-dashoffset="0" style="mix-blend-mode: normal"><g><path d="M266.23728,178.15918c-2.76324,0.09143 -3.44935,-6.79707 -1.53247,-15.3859c1.91687,-8.58883 5.71085,-15.62556 8.47409,-15.71699c2.76324,-0.09143 3.44935,6.79707 1.53247,15.3859c-1.91687,8.58883 -5.71085,15.62556 -8.47409,15.71699z" fill="#f9f9f9"/><path d="M266.23728,178.15918c-2.76324,0.09143 -3.44935,-6.79707 -1.53247,-15.3859c1.91687,-8.58883 5.71085,-15.62556 8.47409,-15.71699c2.76324,-0.09143 3.44935,6.79707 1.53247,15.3859c-1.91687,8.58883 -5.71085,15.62556 -8.47409,15.71699z" fill="url(#color-1)"/><path d="M288.52527,169.73147c-0.39128,2.46223 -5.3166,3.72598 -11.00102,2.82266c-5.68442,-0.90332 -9.97535,-3.63165 -9.58407,-6.09388c0.39128,-2.46223 5.3166,-3.72598 11.00102,-2.82266c5.68442,0.90332 9.97535,3.63165 9.58407,6.09388z" fill="#f9f9f9"/><path d="M288.52527,169.73147c-0.39128,2.46223 -5.3166,3.72598 -11.00102,2.82266c-5.68442,-0.90332 -9.97535,-3.63165 -9.58407,-6.09388c0.39128,-2.46223 5.3166,-3.72598 11.00102,-2.82266c5.68442,0.90332 9.97535,3.63165 9.58407,6.09388z" fill="url(#color-2)"/><path d="M294.08162,163.54692c-0.48423,3.04687 -6.57906,4.6106 -13.61318,3.49269c-7.03413,-1.11791 -12.34387,-4.49412 -11.85964,-7.54099c0.48423,-3.04687 6.57906,-4.6106 13.61318,-3.49269c7.03413,1.11791 12.34387,4.49412 11.85964,7.54099z" fill="#f9f9f9"/><path d="M294.08162,163.54692c-0.48423,3.04687 -6.57906,4.6106 -13.61318,3.49269c-7.03413,-1.11791 -12.34387,-4.49412 -11.85964,-7.54099c0.48423,-3.04687 6.57906,-4.6106 13.61318,-3.49269c7.03413,1.11791 12.34387,4.49412 11.85964,7.54099z" fill="url(#color-3)"/><path d="M302.11133,157.00823c-0.61136,3.84723 -8.30715,5.82183 -17.18902,4.41041c-8.88187,-1.41142 -15.58643,-5.6744 -14.97507,-9.52162c0.61136,-3.84723 8.30715,-5.82183 17.18902,-4.41041c8.88187,1.41142 15.58643,5.6744 14.97507,9.52162z" fill="#f9f9f9"/><path d="M302.11133,157.00823c-0.61136,3.84723 -8.30715,5.82183 -17.18902,4.41041c-8.88187,-1.41142 -15.58643,-5.6744 -14.97507,-9.52162c0.61136,-3.84723 8.30715,-5.82183 17.18902,-4.41041c8.88187,1.41142 15.58643,5.6744 14.97507,9.52162z" fill="url(#color-4)"/></g><path d="M224.48167,138.19167v-13.37487h3.37501v13.37487z" fill="#008080"/><path d="M224.48167,138.19167v-13.37487h3.37501v13.37487z" fill="url(#color-5)"/><path d="M292.67025,221.77321c0,4.72326 -22.9908,8.55441 -51.3255,8.55441c-28.33469,0 -51.3255,-3.83115 -51.3255,-8.55441c0,-4.72326 22.9908,-8.55441 51.3255,-8.55441c28.33469,0 51.3255,3.83115 51.3255,8.55441z" fill="url(#color-6)"/><path d="M287.68473,178.28918c0,3.45742 -0.37782,26.7754 -1.09782,30.01896c-1.76079,8.88236 -7.47088,13.99364 -16.0467,15.93977c-3.98494,0.74138 -8.5188,-15.55482 -13.4376,-15.6475c-4.9188,-0.09267 -10.22256,16.02532 -15.75443,16.02532c-5.56039,0 -10.88552,-16.12512 -15.82571,-16.05383c-4.94019,0.07842 -9.4883,16.35324 -13.48037,15.58334c-9.03919,-1.49703 -13.77265,-7.68474 -15.9968,-16.13938c-0.67723,-3.15089 -1.03366,-26.37619 -1.03366,-29.72668c0,-25.57778 20.75877,-46.33655 46.33655,-46.33655c25.57778,0 46.33655,20.75877 46.33655,46.33655z" fill="#f4e3d7"/><path d="M287.68473,178.28918c0,3.45742 -0.37782,26.7754 -1.09782,30.01896c-1.76079,8.88236 -7.47088,13.99364 -16.0467,15.93977c-3.98494,0.74138 -8.5188,-15.55482 -13.4376,-15.6475c-4.9188,-0.09267 -10.22256,16.02532 -15.75443,16.02532c-5.56039,0 -10.88552,-16.12512 -15.82571,-16.05383c-4.94019,0.07842 -9.4883,16.35324 -13.48037,15.58334c-9.03919,-1.49703 -13.77265,-7.68474 -15.9968,-16.13938c-0.67723,-3.15089 -1.03366,-26.37619 -1.03366,-29.72668c0,-25.57778 20.75877,-46.33655 46.33655,-46.33655c25.57778,0 46.33655,20.75877 46.33655,46.33655z" fill="url(#color-7)"/><g><path d="M258.45706,170.09272c0,-6.10246 4.94702,-11.04949 11.04949,-11.04949c6.10246,0 11.04949,4.94702 11.04949,11.04949c0,6.10246 -4.94702,11.04949 -11.04949,11.04949c-6.10246,0 -11.04949,-4.94702 -11.04949,-11.04949z" fill="#ffffff"/><path d="M258.45706,170.09272c0,-6.10246 4.94702,-11.04949 11.04949,-11.04949c6.10246,0 11.04949,4.94702 11.04949,11.04949c0,6.10246 -4.94702,11.04949 -11.04949,11.04949c-6.10246,0 -11.04949,-4.94702 -11.04949,-11.04949z" fill="url(#color-8)"/><path d="M266.29834,170.80242c0,-3.7402 3.03203,-6.77223 6.77223,-6.77223c3.7402,0 6.77223,3.03203 6.77223,6.77223c0,3.7402 -3.03203,6.77223 -6.77223,6.77223c-3.7402,0 -6.77223,-3.03203 -6.77223,-6.77223z" fill="#000000"/></g><g><path d="M229.94226,170.09272c0,-6.10246 4.94702,-11.04949 11.04949,-11.04949c6.10246,0 11.04949,4.94702 11.04949,11.04949c0,6.10246 -4.94702,11.04949 -11.04949,11.04949c-6.10246,0 -11.04949,-4.94702 -11.04949,-11.04949z" fill="#ffffff"/><path d="M229.94226,170.09272c0,-6.10246 4.94702,-11.04949 11.04949,-11.04949c6.10246,0 11.04949,4.94702 11.04949,11.04949c0,6.10246 -4.94702,11.04949 -11.04949,11.04949c-6.10246,0 -11.04949,-4.94702 -11.04949,-11.04949z" fill="url(#color-9)"/><path d="M237.78354,170.80242c0,-3.7402 3.03203,-6.77223 6.77223,-6.77223c3.7402,0 6.77223,3.03203 6.77223,6.77223c0,3.7402 -3.03203,6.77223 -6.77223,6.77223c-3.7402,0 -6.77223,-3.03203 -6.77223,-6.77223z" fill="#000000"/></g><path d="M220.68208,154.68605c-7.15009,7.32117 -14.54968,11.70533 -16.5172,9.78058c-1.97465,-1.92475 2.23128,-9.43127 9.37424,-16.75245c7.15009,-7.32117 14.54968,-11.6982 16.5172,-9.77345c1.97465,1.92475 -2.23128,9.42414 -9.37424,16.74532z" fill-opacity="0.62745" fill="#ffffff"/><path d="M278.94935,216.07256c-3.38048,4.09607 -7.47824,6.30617 -9.14965,4.92675c-1.67142,-1.37942 -0.27872,-5.822 3.10176,-9.91807c3.38048,-4.09607 7.47824,-6.30617 9.14965,-4.92675c1.67142,1.37942 0.27872,5.822 -3.10176,9.91807z" fill-opacity="0.43439" fill="#ffffff"/><path d="M285.26695,133.4788c0,5.31707 -19.14027,9.62514 -42.7506,9.62514c-23.60033,0 -42.7806,-4.30806 -42.7806,-9.62514c0,-5.31607 19.18027,-9.62514 42.7806,-9.62514c23.61033,0 42.7506,4.30906 42.7506,9.62514zM206.60584,132.60379c0,4.21206 16.18023,7.62511 36.10051,7.62511c19.91028,0 36.06051,-3.41305 36.06051,-7.62511c0,-4.21106 -16.15023,-7.62511 -36.06051,-7.62511c-19.92028,0 -36.09051,3.41405 -36.10051,7.62511z" fill="#ffff00"/><path d="M285.26695,133.4788c0,5.31707 -19.14027,9.62514 -42.7506,9.62514c-23.60033,0 -42.7806,-4.30806 -42.7806,-9.62514c0,-5.31607 19.18027,-9.62514 42.7806,-9.62514c23.61033,0 42.7506,4.30906 42.7506,9.62514zM206.60584,132.60379c0,4.21206 16.18023,7.62511 36.10051,7.62511c19.91028,0 36.06051,-3.41305 36.06051,-7.62511c0,-4.21106 -16.15023,-7.62511 -36.06051,-7.62511c-19.92028,0 -36.09051,3.41405 -36.10051,7.62511z" fill="url(#color-10)"/><g><path d="M205.92329,177.32503c-3.26481,-8.17209 -3.68836,-15.08169 -0.94603,-15.43302c2.74233,-0.35134 7.61208,5.98863 10.87688,14.16072c3.26481,8.17209 3.68836,15.08169 0.94603,15.43302c-2.74233,0.35134 -7.61208,-5.98863 -10.87688,-14.16072z" fill="#f9f9f9"/><path d="M205.92329,177.32503c-3.26481,-8.17209 -3.68836,-15.08169 -0.94603,-15.43302c2.74233,-0.35134 7.61208,5.98863 10.87688,14.16072c3.26481,8.17209 3.68836,15.08169 0.94603,15.43302c-2.74233,0.35134 -7.61208,-5.98863 -10.87688,-14.16072z" fill="url(#color-11)"/><path d="M201.93887,179.18104c5.46699,-1.80013 10.53096,-1.33975 11.31069,1.02831c0.77974,2.36805 -3.02003,5.74704 -8.48702,7.54717c-5.46699,1.80013 -10.53096,1.33975 -11.31069,-1.02831c-0.77974,-2.36805 3.02003,-5.74704 8.48702,-7.54717z" fill="#f9f9f9"/><path d="M201.93887,179.18104c5.46699,-1.80013 10.53096,-1.33975 11.31069,1.02831c0.77974,2.36805 -3.02003,5.74704 -8.48702,7.54717c-5.46699,1.80013 -10.53096,1.33975 -11.31069,-1.02831c-0.77974,-2.36805 3.02003,-5.74704 8.48702,-7.54717z" fill="url(#color-12)"/><path d="M197.48065,172.17177c6.76506,-2.22766 13.03144,-1.65803 13.99636,1.27228c0.96492,2.93032 -3.73702,7.11168 -10.50208,9.33934c-6.76506,2.22766 -13.03144,1.65803 -13.99636,-1.27228c-0.96492,-2.93032 3.73702,-7.11168 10.50208,-9.33934z" fill="#f9f9f9"/><path d="M197.48065,172.17177c6.76506,-2.22766 13.03144,-1.65803 13.99636,1.27228c0.96492,2.93032 -3.73702,7.11168 -10.50208,9.33934c-6.76506,2.22766 -13.03144,1.65803 -13.99636,-1.27228c-0.96492,-2.93032 3.73702,-7.11168 10.50208,-9.33934z" fill="url(#color-13)"/><path d="M191.26807,164.54731c8.54214,-2.81268 16.45456,-2.09332 17.67289,1.60675c1.21833,3.70007 -4.71879,8.9797 -13.26093,11.79239c-8.54214,2.81268 -16.45456,2.09332 -17.67289,-1.60675c-1.21833,-3.70007 4.71879,-8.9797 13.26093,-11.79239z" fill="#f9f9f9"/><path d="M191.26807,164.54731c8.54214,-2.81268 16.45456,-2.09332 17.67289,1.60675c1.21833,3.70007 -4.71879,8.9797 -13.26093,11.79239c-8.54214,2.81268 -16.45456,2.09332 -17.67289,-1.60675c-1.21833,-3.70007 4.71879,-8.9797 13.26093,-11.79239z" fill="url(#color-14)"/></g></g></g></svg>