<?xml version="1.0" encoding="UTF-8" standalone="no"?>
<svg
   width="70.199837"
   height="140"
   version="1.1"
   id="svg899"
   sodipodi:docname="Boy-2.svg"
   inkscape:version="1.2.2 (732a01da63, 2022-12-09)"
   xmlns:inkscape="http://www.inkscape.org/namespaces/inkscape"
   xmlns:sodipodi="http://sodipodi.sourceforge.net/DTD/sodipodi-0.dtd"
   xmlns="http://www.w3.org/2000/svg"
   xmlns:svg="http://www.w3.org/2000/svg">
  <defs
     id="defs903" />
  <sodipodi:namedview
     id="namedview901"
     pagecolor="#ffffff"
     bordercolor="#000000"
     borderopacity="0.25"
     inkscape:showpageshadow="2"
     inkscape:pageopacity="0.0"
     inkscape:pagecheckerboard="0"
     inkscape:deskcolor="#d1d1d1"
     showgrid="false"
     inkscape:zoom="1.4307692"
     inkscape:cx="138.3871"
     inkscape:cy="266.98925"
     inkscape:window-width="1920"
     inkscape:window-height="1017"
     inkscape:window-x="1912"
     inkscape:window-y="-8"
     inkscape:window-maximized="1"
     inkscape:current-layer="svg899" />
  <g
     id="imagebot_2"
     label="Capa 1"
     transform="matrix(0.25799374,0,0,0.25799374,-0.60070214,-6.5835007)">
    <path
       label="Capa 1"
       id="imagebot_49"
       d="m 294.97,539.2 c 0,21.2 -16.281,38.386 -36.365,38.386 -20.084,0 -36.365,-17.186 -36.365,-38.386 0,-21.2 16.281,-38.386 36.365,-38.386 20.084,0 36.365,17.186 36.365,38.386 z"
       fill="#ffe6d5"
       stroke-width="4"
       stroke="#000000"
       transform="translate(-210.8655,-155.656)" />
    <path
       label="Capa 1"
       id="imagebot_48"
       d="m 298.99999,504.855 c 0,7.8105 -5.8794,14.142 -13.132,14.142 -7.2526,0 -13.132,-6.3316 -13.132,-14.142 0,-7.8105 5.8794,-14.142 13.132,-14.142 7.2526,0 13.132,6.3316 13.132,14.142 z"
       fill="#ffe6d5"
       stroke-width="4"
       stroke="#000000"
       transform="translate(-228.05214,-156.8276)" />
    <path
       label="Capa 1"
       id="imagebot_47"
       d="m 309.11001,543.241 c 0,7.8105 -5.8794,14.142 -13.132,14.142 -7.2526,0 -13.132,-6.3316 -13.132,-14.142 0,-7.8105 5.8794,-14.142 13.132,-14.142 7.2526,0 13.132,6.3316 13.132,14.142 z"
       fill="#ffe6d5"
       stroke-width="4"
       stroke="#000000"
       transform="translate(-228.05214,-156.8276)" />
    <path
       label="Capa 1"
       id="imagebot_46"
       d="m 294.97,539.2 c 0,21.2 -16.281,38.386 -36.365,38.386 -20.084,0 -36.365,-17.186 -36.365,-38.386 0,-21.2 16.281,-38.386 36.365,-38.386 20.084,0 36.365,17.186 36.365,38.386 z"
       fill="#ffe6d5"
       stroke-width="4"
       stroke="#000000"
       transform="translate(-23.6771,-156.828)" />
    <path
       label="Capa 1"
       id="imagebot_45"
       d="m 246.48,506.875 c 0,7.8105 -5.8794,14.142 -13.132,14.142 -7.2526,0 -13.132,-6.3316 -13.132,-14.142 0,-7.8105 5.8794,-14.142 13.132,-14.142 7.2526,0 13.132,6.3316 13.132,14.142 z"
       fill="#ffe6d5"
       stroke-width="4"
       stroke="#000000"
       transform="translate(-8.052143,-156.8276)" />
    <path
       label="Capa 1"
       id="imagebot_44"
       d="m 233.11001,543.241 c 0,7.8105 -5.8794,14.142 -13.132,14.142 -7.2526,0 -13.132,-6.3316 -13.132,-14.142 0,-7.8105 5.8794,-14.142 13.132,-14.142 7.2526,0 13.132,6.3316 13.132,14.142 z"
       fill="#ffe6d5"
       stroke-width="4"
       stroke="#000000"
       transform="translate(-8.052143,-156.8276)" />
    <path
       label="Capa 1"
       id="imagebot_43"
       d="m 117.14,612.36 c 0,18.146 -19.827,32.857 -44.286,32.857 -24.458,0 -44.286,-14.711 -44.286,-32.857 0,-18.146 19.827,-32.857 44.286,-32.857 24.458,0 44.286,14.711 44.286,32.857 z"
       transform="matrix(1.3145,0.075292,0.2023,1.1915,-15.70214,-209.6016)"
       fill="#000000"
       stroke-width="4"
       stroke="#000000" />
    <path
       label="Capa 1"
       id="imagebot_42"
       d="m 117.14,612.36 c 0,18.146 -19.827,32.857 -44.286,32.857 -24.458,0 -44.286,-14.711 -44.286,-32.857 0,-18.146 19.827,-32.857 44.286,-32.857 24.458,0 44.286,14.711 44.286,32.857 z"
       transform="matrix(1.1589,-0.62478,0.79677,0.90876,-489.54214,14.2826)"
       fill="#000000"
       stroke-width="4"
       stroke="#000000" />
    <rect
       label="Capa 1"
       id="imagebot_41"
       ry="86.405998"
       height="234.16"
       width="226.08"
       y="434.14999"
       x="256.72"
       fill="#aaff56"
       stroke-width="4.1989"
       stroke="#000000"
       transform="translate(-228.05214,-156.8276)" />
    <rect
       label="Capa 1"
       id="imagebot_40"
       ry="21.882"
       height="170.89"
       width="30"
       y="443.79001"
       x="412.85999"
       fill="#007f3f"
       stroke-width="4.8312"
       stroke="#000000"
       transform="translate(-228.05214,-156.8276)" />
    <rect
       label="Capa 1"
       id="imagebot_39"
       ry="21.882"
       height="170.89"
       width="30"
       y="443.79001"
       x="292.85999"
       fill="#007f3f"
       stroke-width="4.8312"
       stroke="#000000"
       transform="translate(-228.05214,-156.8276)" />
    <path
       label="Capa 1"
       id="imagebot_38"
       d="m 271.94786,169.10262 c 0,73.769 -59.802,133.57 -133.57,133.57 -73.769001,0 -133.5700006,-59.802 -133.5700006,-133.57 0,-73.769001 59.8019996,-133.570001 133.5700006,-133.570001 73.769,0 133.57,59.802 133.57,133.570001 z"
       fill="#ffe6d5"
       stroke-width="4.959"
       stroke="#000000" />
    <path
       label="Capa 1"
       id="imagebot_37"
       d="m 401.29,334.74748 c 0,14.32227 -14.488,25.93205 -32.361,25.93205 -17.872,0 -32.361,-11.61017 -32.361,-25.93205 0,-14.32188 14.488,-25.93205 32.361,-25.93205 17.872,0 32.361,11.61016 32.361,25.93205 z"
       fill="#ffd5d5"
       stroke-width="4.959"
       stroke="#000000"
       transform="translate(-228.05214,-156.8276)" />
    <path
       label="Capa 1"
       id="imagebot_36"
       d="m -97.39615,248.66212 c 0,24.27669 -23.82619,43.95515 -53.2163,43.95515 -29.39085,0 -53.21704,-19.67998 -53.21704,-43.95515 0,-24.27669 23.82619,-43.95515 53.21704,-43.95515 29.39085,0 53.2163,19.67998 53.2163,43.95515 z"
       fill="#ffffff"
       stroke-width="4.959"
       stroke="#000000"
       transform="matrix(0.6438,0,0,0.6438,292.40186,-23.7623)" />
    <rect
       label="Capa 1"
       id="imagebot_28"
       rx="5.7143002"
       ry="44.686001"
       height="97.771004"
       width="227.8"
       y="570.84998"
       x="255.84"
       fill="#007f3f"
       stroke-width="4.1276"
       stroke="#000000"
       transform="translate(-228.05214,-156.8276)" />
    <path
       label="Capa 1"
       id="imagebot_27"
       d="m 371.14,626.65 c 0,41.429 1.4286,42.857 1.4286,42.857"
       fill="none"
       stroke-width="4"
       stroke="#000000"
       transform="translate(-228.05214,-156.8276)" />
    <path
       label="Capa 1"
       id="imagebot_26"
       d="M 358.29,628.08 C 379.71,626.65 384,626.65 384,626.65"
       fill="none"
       stroke-width="4"
       stroke="#000000"
       transform="translate(-228.05214,-156.8276)" />
    <path
       label="Capa 1"
       id="imagebot_24"
       d="m 72.268979,193.66077 c 0,12.99956 -9.76261,23.53821 -21.80527,23.53821 -12.04278,0 -21.80526,-10.53815 -21.80526,-23.53821 0,-12.99957 9.76261,-23.53821 21.80526,-23.53821 12.04278,0 21.80527,10.53815 21.80527,23.53821 z"
       fill="#ffaaaa"
       stroke-width="0" />
    <path
       label="Capa 1"
       id="imagebot_20"
       d="m -60,430.22 c 0,10.651 -10.233,19.286 -22.857,19.286 -10.457,0 -19.58,-5.9872 -22.154,-14.538"
       transform="matrix(1.1125,0.17764,-0.20081,0.9841,322.32786,-177.1766)"
       fill="#ffe6d5"
       stroke-width="4"
       stroke="#000000" />
    <path
       label="Capa 1"
       id="imagebot_19"
       d="m -305.71,660.93 c 0,12.624 -10.233,22.857 -22.857,22.857 -12.624,0 -22.857,-10.233 -22.857,-22.857 0,-12.624 10.234,-22.857 22.857,-22.857 12.624,0 22.857,10.233 22.857,22.857 z"
       transform="matrix(0.65517,0,0,0.65517,295.78786,-14.6374)"
       fill="#000000"
       stroke-width="4"
       stroke="#000000" />
    <path
       label="Capa 1"
       id="imagebot_17"
       d="m -305.71,660.93 c 0,12.624 -10.233,22.857 -22.857,22.857 -12.624,0 -22.857,-10.233 -22.857,-22.857 0,-12.624 10.234,-22.857 22.857,-22.857 12.624,0 22.857,10.233 22.857,22.857 z"
       transform="matrix(0.65517,0,0,0.65517,413.78786,-14.6374)"
       fill="#000000"
       stroke-width="4"
       stroke="#000000" />
    <title
       label="Capa 1"
       id="title890" />
    <path
       label="Capa 1"
       d="m 420.57848,275.95871 c 0,6.88303 -5.23088,12.4622 -11.68333,12.4622 -6.45258,0 -11.68333,-5.57963 -11.68333,-12.4622 0,-6.88303 5.23086,-12.46219 11.68333,-12.46219 6.45259,0 11.68333,5.57963 11.68333,12.46219 z"
       fill="#000000"
       stroke-width="4.959"
       stroke="#000000"
       id="imagebot_14"
       transform="translate(-214.38014,-139.2491)" />
    <path
       label="Capa 1"
       d="m -97.39615,248.66212 c 0,24.27669 -23.82619,43.95515 -53.2163,43.95515 -29.39085,0 -53.21704,-19.67998 -53.21704,-43.95515 0,-24.27669 23.82619,-43.95515 53.21704,-43.95515 29.39085,0 53.2163,19.67998 53.2163,43.95515 z"
       fill="#ffffff"
       stroke-width="4.959"
       stroke="#000000"
       transform="matrix(0.6438,0,0,0.6438,181.07286,-23.7623)"
       id="imagebot_11" />
    <path
       label="Capa 1"
       d="m 361.98473,283.77121 c 0,6.88303 -5.23088,12.4622 -11.68333,12.4622 -6.45258,0 -11.68333,-5.57964 -11.68333,-12.4622 0,-6.88304 5.23086,-12.4622 11.68333,-12.4622 6.45259,0 11.68333,5.57963 11.68333,12.4622 z"
       fill="#000000"
       stroke-width="4.959"
       stroke="#000000"
       id="imagebot_7"
       transform="translate(-267.11514,-145.1085)" />
    <path
       label="Capa 1"
       d="m 251.95648,193.66077 c 0,12.99956 -9.76261,23.53821 -21.80527,23.53821 -12.04278,0 -21.80526,-10.53815 -21.80526,-23.53821 0,-12.99957 9.76261,-23.53821 21.80526,-23.53821 12.04278,0 21.80527,10.53815 21.80527,23.53821 z"
       fill="#ffaaaa"
       stroke-width="0"
       id="imagebot_3" />
    <path
       d="m 163.28758,27.031264 c -0.53593,-0.01668 -1.05474,-0.01492 -1.59404,-0.0089 -8.6287,0.09573 -16.39321,3.106078 -20.50725,7.970751 l -2.2395,3.72584 c 0.50862,-1.304782 1.25143,-2.557504 2.2395,-3.72584 -6.65257,-4.783384 -16.20248,-7.32063 -25.79027,-6.845437 C 105.80822,28.62283 97.328248,32.052351 92.517091,37.4039 79.985235,31.856545 64.038564,31.343175 51.440235,36.090629 38.841905,40.838077 31.788876,50.019327 33.297347,59.720647 l 1.108018,3.968142 C 33.880011,62.38053 33.505254,61.057737 33.297347,59.720647 l -0.217081,0.3495 c -10.750659,0.181723 -19.800187,4.906912 -22.434349,11.712479 -2.6341619,6.805562 1.75041,14.148872 10.862512,18.200462 l 14.400713,2.93143 c -5.080488,0.0019 -10.100679,-1.019468 -14.400713,-2.93143 -7.422862,4.631761 -9.448585,11.944702 -5.030213,18.293792 4.418364,6.34908 14.338844,10.37994 24.798468,10.11194 l 6.386151,-0.72087 c -2.064689,0.42705 -4.198542,0.66481 -6.386151,0.72087 5.570391,7.07534 15.126684,12.51583 26.539625,15.06768 11.41294,2.55184 23.7007,2.01135 34.101251,-1.49301 7.903,8.58423 22.4482,13.62146 37.32573,12.93007 14.87752,-0.69139 27.44152,-6.99519 32.25643,-16.17045 l 1.77211,-5.17371 c -0.31606,1.77221 -0.89427,3.50093 -1.77211,5.17371 9.97124,4.67227 22.76769,5.55759 33.48055,2.31513 10.71285,-3.24247 17.64376,-10.11166 18.13893,-17.95179 l -3.17584,-11.91336 -14.45519,-8.686283 c 11.26162,5.061956 18.15818,12.252613 17.63103,20.599643 13.65683,0.78364 25.63146,-5.9096 31.2636,-14.003642 5.63214,-8.094054 4.14686,-17.723696 -3.89535,-25.309318 3.75769,-5.15234 3.85906,-11.225256 0.27671,-16.642653 -3.58238,-5.417399 -10.48271,-9.659328 -18.94194,-11.616859 -1.55854,-7.017937 -9.15018,-12.985345 -19.46451,-15.338909 -10.31432,-2.353564 -21.51035,-0.66727 -28.75084,4.342869 l -4.45735,4.225989 c 1.16292,-1.551042 2.65119,-2.976211 4.45735,-4.225989 -4.69738,-4.465735 -12.2803,-7.236369 -20.31931,-7.486655 z"
       id="imagebot_50"
       stroke-opacity="null"
       stroke-linecap="null"
       stroke-linejoin="null"
       stroke-dasharray="none"
       stroke-width="3"
       stroke="#000000"
       fill="#ffff00" />
  </g>
  <metadata
     id="imagebot_1">image/svg+xmlOpenclipart</metadata>
</svg>
