<svg width="70.2" height="140" xmlns="http://www.w3.org/2000/svg"><g transform="matrix(.258 0 0 .258 -.6 -6.584)"><path d="M84.105 383.544c0 21.2-16.281 38.386-36.365 38.386-20.084 0-36.365-17.186-36.365-38.386 0-21.2 16.28-38.386 36.365-38.386 20.084 0 36.365 17.186 36.365 38.386z" fill="#ffe6d5" stroke-width="4" stroke="#000"/><path d="M70.948 348.027c0 7.81-5.88 14.142-13.132 14.142-7.253 0-13.132-6.331-13.132-14.142 0-7.81 5.88-14.142 13.132-14.142s13.132 6.332 13.132 14.142zM81.058 386.413c0 7.81-5.88 14.142-13.132 14.142-7.253 0-13.132-6.331-13.132-14.142 0-7.81 5.88-14.142 13.132-14.142s13.132 6.332 13.132 14.142zM271.293 382.372c0 21.2-16.281 38.386-36.365 38.386-20.084 0-36.365-17.186-36.365-38.386 0-21.2 16.28-38.386 36.365-38.386 20.084 0 36.365 17.186 36.365 38.386z" fill="#ffe6d5" stroke-width="4" stroke="#000"/><path d="M238.428 350.047c0 7.81-5.88 14.142-13.132 14.142-7.253 0-13.132-6.331-13.132-14.142 0-7.81 5.88-14.142 13.132-14.142s13.132 6.332 13.132 14.142zM225.058 386.413c0 7.81-5.88 14.142-13.132 14.142-7.253 0-13.132-6.331-13.132-14.142 0-7.81 5.88-14.142 13.132-14.142s13.132 6.332 13.132 14.142z" fill="#ffe6d5" stroke-width="4" stroke="#000"/><path d="M117.14 612.36c0 18.146-19.827 32.857-44.286 32.857-24.458 0-44.286-14.711-44.286-32.857s19.827-32.857 44.286-32.857c24.458 0 44.286 14.711 44.286 32.857z" transform="matrix(1.3145 .0753 .2023 1.1915 -15.702 -209.602)" stroke-width="4" stroke="#000"/><path d="M117.14 612.36c0 18.146-19.827 32.857-44.286 32.857-24.458 0-44.286-14.711-44.286-32.857s19.827-32.857 44.286-32.857c24.458 0 44.286 14.711 44.286 32.857z" transform="matrix(1.1589 -.62478 .79677 .90876 -489.542 14.283)" stroke-width="4" stroke="#000"/><rect ry="86.406" height="234.16" width="226.08" y="434.15" x="256.72" fill="#aaff56" stroke-width="4.199" stroke="#000" transform="translate(-228.052 -156.828)"/><rect ry="21.882" height="170.89" width="30" y="443.79" x="412.86" fill="#007f3f" stroke-width="4.831" stroke="#000" transform="translate(-228.052 -156.828)"/><rect ry="21.882" height="170.89" width="30" y="443.79" x="292.86" fill="#007f3f" stroke-width="4.831" stroke="#000" transform="translate(-228.052 -156.828)"/><path d="M271.948 169.103c0 73.769-59.802 133.57-133.57 133.57-73.77 0-133.57-59.802-133.57-133.57 0-73.77 59.802-133.57 133.57-133.57 73.769 0 133.57 59.802 133.57 133.57z" fill="#ffe6d5" stroke-width="4.959" stroke="#000"/><path d="M173.238 177.92c0 14.322-14.488 25.932-32.361 25.932-17.872 0-32.361-11.61-32.361-25.932s14.488-25.932 32.36-25.932c17.873 0 32.362 11.61 32.362 25.932z" fill="#ffd5d5" stroke-width="4.959" stroke="#000"/><path d="M229.698 136.326c0 15.63-15.34 28.299-34.26 28.299-18.922 0-34.262-12.67-34.262-28.299s15.34-28.298 34.262-28.298c18.921 0 34.26 12.67 34.26 28.298z" fill="#fff" stroke-width="3.1926042" stroke="#000"/><rect rx="5.714" ry="44.686" height="97.771" width="227.8" y="570.85" x="255.84" fill="#007f3f" stroke-width="4.128" stroke="#000" transform="translate(-228.052 -156.828)"/><path d="M143.088 469.822c0 41.43 1.428 42.857 1.428 42.857M130.238 471.252c21.42-1.43 25.71-1.43 25.71-1.43" fill="none" stroke-width="4" stroke="#000"/><path d="M72.269 193.66c0 13-9.763 23.539-21.805 23.539-12.043 0-21.806-10.538-21.806-23.538s9.763-23.538 21.806-23.538c12.042 0 21.805 10.538 21.805 23.538z" fill="#faa"/><path d="M-60 430.22c0 10.651-10.233 19.286-22.857 19.286-10.457 0-19.58-5.987-22.154-14.538" transform="matrix(1.1125 .17764 -.20081 .9841 322.328 -177.177)" fill="#ffe6d5" stroke-width="4" stroke="#000"/><path d="M95.496 418.384c0 8.271-6.705 14.975-14.975 14.975-8.271 0-14.976-6.704-14.976-14.975 0-8.27 6.705-14.975 14.976-14.975 8.27 0 14.975 6.704 14.975 14.975zM213.496 418.384c0 8.271-6.705 14.975-14.975 14.975-8.271 0-14.976-6.704-14.976-14.975 0-8.27 6.705-14.975 14.976-14.975 8.27 0 14.975 6.704 14.975 14.975z" stroke-width="2.62068" stroke="#000"/><path d="M206.198 136.71c0 6.883-5.23 12.462-11.683 12.462-6.453 0-11.683-5.58-11.683-12.462 0-6.883 5.23-12.463 11.683-12.463 6.453 0 11.683 5.58 11.683 12.463z" stroke-width="4.959" stroke="#000"/><path d="M118.37 136.326c0 15.63-15.34 28.299-34.261 28.299-18.922 0-34.262-12.67-34.262-28.299s15.34-28.298 34.262-28.298c18.921 0 34.26 12.67 34.26 28.298z" fill="#fff" stroke-width="3.1926042" stroke="#000"/><path d="M94.87 138.663c0 6.883-5.231 12.462-11.684 12.462-6.452 0-11.683-5.58-11.683-12.462 0-6.883 5.23-12.462 11.683-12.462 6.453 0 11.684 5.58 11.684 12.462z" stroke-width="4.959" stroke="#000"/><path d="M251.956 193.66c0 13-9.762 23.539-21.805 23.539s-21.805-10.538-21.805-23.538 9.763-23.538 21.805-23.538c12.043 0 21.805 10.538 21.805 23.538z" fill="#faa"/><path d="M163.288 27.031a37.287 37.287 0 00-1.594-.009c-8.63.096-16.394 3.106-20.508 7.971l-2.24 3.726a13.173 13.173 0 012.24-3.726c-6.652-4.783-16.202-7.32-25.79-6.845-9.588.475-18.068 3.904-22.879 9.256-12.532-5.547-28.478-6.06-41.077-1.313-12.598 4.747-19.651 13.928-18.143 23.63l1.108 3.968a18.104 18.104 0 01-1.108-3.968l-.217.35c-10.75.18-19.8 4.906-22.434 11.712-2.634 6.805 1.75 14.148 10.862 18.2l14.401 2.932c-5.08.001-10.1-1.02-14.4-2.932-7.423 4.632-9.45 11.945-5.03 18.294 4.418 6.349 14.338 10.38 24.798 10.112l6.386-.721a36.068 36.068 0 01-6.386.72c5.57 7.076 15.126 12.517 26.54 15.068 11.412 2.552 23.7 2.012 34.1-1.493 7.904 8.585 22.449 13.622 37.326 12.93 14.878-.69 27.442-6.995 32.257-16.17l1.772-5.174a17.789 17.789 0 01-1.772 5.174c9.971 4.672 22.767 5.558 33.48 2.315 10.713-3.242 17.644-10.111 18.14-17.952l-3.177-11.913-14.455-8.686c11.262 5.062 18.158 12.252 17.631 20.6 13.657.783 25.632-5.91 31.264-14.004 5.632-8.094 4.147-17.724-3.896-25.31 3.758-5.152 3.86-11.225.277-16.642-3.582-5.418-10.483-9.66-18.942-11.617-1.558-7.018-9.15-12.985-19.464-15.339-10.315-2.353-21.51-.667-28.751 4.343l-4.457 4.226c1.162-1.551 2.65-2.976 4.457-4.226-4.698-4.466-12.28-7.236-20.32-7.487z" stroke-opacity="null" stroke-linecap="null" stroke-linejoin="null" stroke-width="3" stroke="#000" fill="#ff0"/></g></svg>