<svg xmlns="http://www.w3.org/2000/svg" width="141.854" height="131.493" viewBox="0 0 181.573 168.311" xmlns:v="https://vecta.io/nano"><path d="M181.573 80.965c0 6.631-4.264 12.201-10.242 14.099a12.17 12.17 0 0 1-12.079 10.773h-33.277c3.877 6.264 6.121 13.629 6.121 21.525 0 5.794-1.204 11.467-3.55 16.669h16.057a12.16 12.16 0 0 1 12.14 12.14 12.16 12.16 0 0 1-12.14 12.14H91.127c-.755 0-1.51-.02-2.265-.061-40.602 0-73.635-32.971-73.635-73.594V45.974v-.184c0-6.182-5.019-11.324-11.201-11.467a4.12 4.12 0 0 1-3.734-2.612c-.612-1.53-.245-3.285.939-4.448 4.856-4.754 11.283-7.366 18.098-7.366 15.159 0 29.727 4.57 42.112 13.221 10.385 7.263 18.628 16.935 24.116 28.197l16.833-16.833v-4.244c0-.837.061-1.673.163-2.51-6.203-5.631-9.834-13.711-9.834-22.137 0-2.346.286-4.713.837-7.019a4.12 4.12 0 0 1 4.958-3.04c1.714.408 3.407.979 5.019 1.693 1.571.694 3.081 1.53 4.509 2.469 1.061-2.918 2.591-5.652 4.529-8.12.673-.857 1.673-1.428 2.754-1.551s2.183.184 3.04.857c1.387 1.102 2.693 2.306 3.836 3.611 4.57 5.101 7.202 11.507 7.549 18.281.02 0 .041.02.041.02a55.48 55.48 0 0 1 26.993 26.993c2.795 6.019 2.326 12.936-1.245 18.526-3.101 4.856-8.141 8.018-13.772 8.733.939 1.387 1.693 2.897 2.224 4.529h7.957c0-.184-.02-.367-.02-.571 0-8.161 10.936-13.466 13.119-14.445a4.2 4.2 0 0 1 3.367 0c2.224.939 13.16 6.243 13.16 14.405z" fill="#633"/><path d="M173.33 80.965c0 2.673-1.632 4.999-3.958 6.019-.449-.673-.959-1.306-1.551-1.897a12.08 12.08 0 0 0-7.631-3.509l-.041-.612c0-1.428 3.02-4.162 6.59-6.101 3.836 2.04 6.59 4.795 6.59 6.101z" fill="#ca5f38"/><path d="M162.007 90.902c1.163 1.041 1.163 2.448 1.163 2.775a3.92 3.92 0 0 1-3.917 3.917h-39.99c-7.345-6.937-17.241-11.201-28.136-11.201-2.265 0-4.121 1.836-4.121 4.121 0 2.265 1.836 4.121 4.121 4.121 18.036 0 32.726 14.67 32.726 32.727 0 6.631-1.979 13.017-5.713 18.465-.857 1.265-.959 2.897-.245 4.244s2.122 2.204 3.652 2.204h23.055c2.163 0 3.897 1.755 3.897 3.897 0 2.163-1.755 3.917-3.897 3.917H91.127c-11.834 0-22.749-6.407-28.544-16.731-.041-.143-.102-.286-.184-.428-9.324-18.689-5.876-40.949 8.569-55.415l38.439-38.439c.775-.775 1.204-1.816 1.204-2.918V40.2c0-1.02.143-2.02.408-3.02.449-1.632-.143-3.367-1.489-4.387-5.386-4.081-8.61-10.528-8.61-17.261v-.49a21.5 21.5 0 0 1 6.488 4.836c2.04 2.224 3.571 4.795 4.55 7.651.367 1.081 1.163 1.938 2.204 2.408s2.224.49 3.264.041c2.285-.939 4.734-1.102 7.1-.449a11.62 11.62 0 0 1 1.775.653c10.12 4.693 18.281 12.854 22.994 22.974 1.591 3.448 1.326 7.427-.714 10.63-2.061 3.244-5.448 5.08-9.283 5.08h-12.323c-2.265 0-4.121 1.836-4.121 4.121 0 2.204 1.734 3.999 3.917 4.101h.061c4.978.184 9.181 4.04 9.773 8.977.245 2.061 2 3.632 4.081 3.632h18.526c1.081.061 2.04.51 2.795 1.204z" fill="#b88d5b"/><path d="M127.526 42.791c2.265 0 4.121 1.836 4.121 4.121a4.11 4.11 0 0 1-4.121 4.121c-2.265 0-4.121-1.836-4.121-4.121.02-2.285 1.857-4.121 4.121-4.121z" fill="#633"/><path d="M116.59 10.554c2.489 2.999 4.101 6.59 4.713 10.406a19.19 19.19 0 0 0-3.04.306c-.939-1.897-2.102-3.693-3.428-5.366.347-1.857.918-3.652 1.755-5.346z" fill="#b88d5b"/><path d="M79.619 135.543c1.081 2 .326 4.509-1.673 5.57a4.14 4.14 0 0 1-1.938.49c-1.469 0-2.897-.796-3.632-2.163-5.692-10.589-5.917-23.341-.632-34.134 1-2.04 3.469-2.877 5.509-1.877s2.877 3.469 1.877 5.509c-4.142 8.406-3.958 18.363.49 26.606z" fill="#633"/><path d="M79.354 67.499L65.153 81.7c-16.894 16.894-20.995 42.867-10.222 64.698.082.245 2.754 4.713 4.183 6.529-21.158-10.854-35.665-32.89-35.665-58.251V45.79v-.204c-.061-5.101-2.04-9.916-5.611-13.588-1.163-1.183-2.448-2.224-3.836-3.06 1.714-.551 3.509-.816 5.346-.816 13.466 0 26.402 4.06 37.399 11.732a65.3 65.3 0 0 1 22.607 27.646z" fill="#b88d5b"/></svg>