<svg xmlns="http://www.w3.org/2000/svg" width="137.09" height="102.42" viewBox="0 0 175.48 131.1" xmlns:v="https://vecta.io/nano"><path d="M171.78 15.967c2.045 0 3.697 1.652 3.697 3.697 0 13.961-3.874 27.568-11.208 39.366a74.59 74.59 0 0 1-26.762 25.681c3.972 3.52 7.393 7.59 10.205 12.132 5.407 8.711 8.278 18.779 8.278 29.082 0 2.045-1.652 3.697-3.697 3.697h-29.908c-9.556 0-17.894-5.329-22.18-13.175-2.969 9.714-7.157 14.649-12.447 14.649s-9.478-4.936-12.447-14.669c-4.287 7.846-12.624 13.194-22.2 13.194H23.183c-2.045 0-3.697-1.652-3.697-3.697 0-10.323 2.871-20.371 8.278-29.082A55.55 55.55 0 0 1 37.97 84.71a74.58 74.58 0 0 1-26.762-25.681C3.873 47.231 0 33.624 0 19.663c0-2.045 1.652-3.697 3.697-3.697h41.234c14.689 0 27.195 9.537 31.678 22.731 1.986-5.486 4.365-9.085 7.157-10.795C82.508 16.379 72.715 7.393 60.878 7.393c-2.045 0-3.697-1.652-3.697-3.697s1.652-3.697 3.697-3.697c11.523 0 21.591 6.45 26.742 15.908C92.792 6.43 102.84-.001 114.362-.001c2.045 0 3.697 1.652 3.697 3.697s-1.652 3.697-3.697 3.697c-11.798 0-21.551 8.908-22.888 20.352 2.891 1.632 5.349 5.29 7.394 10.913 4.483-13.194 16.989-22.711 31.678-22.711 0 .02 41.234.02 41.234.02z" fill="#633"/><path d="M130.55 23.36h37.439c-.61 11.267-4.031 22.18-9.989 31.757a67.24 67.24 0 0 1-28.807 25.563c-1.848.865-2.655 3.067-1.789 4.916.256.531.629.983 1.062 1.337.039.039.079.059.118.098l.02.02a47.66 47.66 0 0 1 12.84 13.706c4.031 6.489 6.43 13.863 7.02 21.473h-26.074c-9.851 0-17.874-8.023-17.874-17.874v-54.96c0-14.354 11.68-26.035 26.035-26.035z" fill="#fe6865"/><path d="M154.52 34.903c.688.964.885 2.222.492 3.343-1.396 4.051-3.244 7.964-5.506 11.601-7 11.267-17.697 19.801-30.125 24.029a3.57 3.57 0 0 1-1.2.197c-.767 0-1.514-.236-2.163-.688a3.71 3.71 0 0 1-1.553-3.008V49.415c0-8.849 7.197-16.045 16.045-16.045h20.961c1.239-.02 2.36.57 3.048 1.534z" fill="#633"/><path d="M130.55 40.763h15.475c-.826 1.789-1.77 3.52-2.812 5.191-5.152 8.298-12.624 14.905-21.335 18.975V49.414c.02-4.778 3.893-8.652 8.672-8.652z" fill="#4ec8d8"/><path d="M132.95 106.03a3.7 3.7 0 0 1-3.126 5.643c-1.239 0-2.438-.629-3.146-1.75-2.143-3.441-4.896-6.371-8.2-8.731a3.71 3.71 0 0 1-.846-5.171c1.18-1.652 3.5-2.045 5.152-.846a37.95 37.95 0 0 1 10.166 10.854z" fill="#633"/><path d="M97.099 80.286v.354c-.02 12.762-1.317 24.363-3.677 32.642-2.478 8.652-5.093 10.422-5.683 10.422-.57 0-3.205-1.77-5.663-10.422-.649-2.242-1.2-4.719-1.671-7.394h4.228c2.045 0 3.697-1.652 3.697-3.697s-1.652-3.697-3.697-3.697h-5.29c-.334-2.93-.57-6.037-.728-9.242h9.144c2.045 0 3.697-1.652 3.697-3.697s-1.652-3.697-3.697-3.697h-9.34l-.02-1.376c0-12.545 1.219-24.422 3.461-33.467 2.458-9.93 5.211-12.624 5.899-12.84.688.216 3.441 2.91 5.899 12.84 2.202 8.986 3.441 20.804 3.441 33.271z" fill="#f9dcb2"/><path d="M70.985 49.415v54.96c0 9.851-8.023 17.874-17.874 17.874H27.037c.59-7.63 2.989-14.984 7.02-21.473 3.362-5.407 7.669-10.009 12.84-13.706 0 0 .944-.905 1.2-1.455.865-1.848.059-4.051-1.789-4.916A67.37 67.37 0 0 1 17.5 55.136 67.05 67.05 0 0 1 7.511 23.36H44.95c14.335 0 26.035 11.68 26.035 26.054z" fill="#fe6865"/><path d="M60.977 49.415v20.981c0 1.2-.57 2.32-1.553 3.008-.629.452-1.396.688-2.163.688a3.65 3.65 0 0 1-1.2-.197c-12.408-4.228-23.105-12.762-30.125-24.029-2.261-3.638-4.11-7.531-5.506-11.602a3.63 3.63 0 0 1 .492-3.343 3.71 3.71 0 0 1 3.009-1.553h20.961c8.888-.02 16.085 7.197 16.085 16.045zM57.87 96.037a3.69 3.69 0 0 1-.865 5.152c-3.284 2.36-6.056 5.29-8.18 8.731-.708 1.121-1.907 1.75-3.146 1.75a3.7 3.7 0 0 1-3.126-5.643c2.655-4.267 6.076-7.924 10.166-10.854 1.652-1.18 3.952-.806 5.152.865z" fill="#633"/><path d="M53.583 49.415V64.93c-8.711-4.07-16.163-10.658-21.315-18.975-1.042-1.671-1.966-3.402-2.812-5.191h15.475c4.778 0 8.652 3.874 8.652 8.652z" fill="#4ec8d8"/></svg>