<svg width="139.247" height="139.247" viewBox="0 0 11.14 11.14" version="1.1" id="prefix__svg2103" xmlns="http://www.w3.org/2000/svg"><defs id="prefix__defs2020"><style id="style2018">.prefix__cls-1{fill:#ccc}.prefix__cls-2{fill:#f2f2f2}.prefix__cls-3{fill:#98856e}.prefix__cls-4{fill:#cbb292}.prefix__cls-5{fill:#849eb4}.prefix__cls-6{fill:#b0d3f0}.prefix__cls-7{fill:#5f443e}.prefix__cls-8{fill:#7f5b53}.prefix__cls-11{fill:#666}.prefix__cls-12{fill:none;stroke:#000;stroke-linejoin:round;stroke-width:2px}</style></defs><g data-name="Layer 12" id="prefix__Layer_12" transform="matrix(.18566 0 0 .18566 -.371 -.371)"><path class="prefix__cls-1" id="prefix__rect2024" d="M16 28h32v30H16z"/><path class="prefix__cls-2" id="prefix__rect2026" d="M16 28h29v30H16z"/><path class="prefix__cls-3" id="prefix__polyline2028" d="M20 58V46h10v12"/><path class="prefix__cls-4" id="prefix__rect2030" d="M20 46h7v12h-7z"/><path class="prefix__cls-3" id="prefix__polyline2032" d="M34 58V46h10v12"/><path class="prefix__cls-4" id="prefix__rect2034" d="M34 46h7v12h-7z"/><path class="prefix__cls-1" id="prefix__rect2036" d="M4 40h12v18H4z"/><path class="prefix__cls-2" id="prefix__rect2038" d="M4 40h9v18H4z"/><path class="prefix__cls-1" id="prefix__rect2040" d="M48 40h12v18H48z"/><path class="prefix__cls-2" id="prefix__rect2042" d="M48 40h9v18h-9z"/><path class="prefix__cls-5" id="prefix__rect2044" d="M52 44h4v6h-4z"/><path class="prefix__cls-6" id="prefix__rect2046" d="M52 44h2v6h-2z"/><path class="prefix__cls-5" id="prefix__rect2048" d="M8 44h4v6H8z"/><path class="prefix__cls-6" id="prefix__rect2050" d="M8 44h2v6H8z"/><path class="prefix__cls-5" id="prefix__rect2052" d="M20 32h6v6h-6z"/><path class="prefix__cls-6" id="prefix__rect2054" d="M20 32h3v6h-3z"/><path class="prefix__cls-5" id="prefix__rect2056" d="M26 32h6v6h-6z"/><path class="prefix__cls-6" id="prefix__rect2058" d="M26 32h3v6h-3z"/><path class="prefix__cls-5" id="prefix__rect2060" d="M32 32h6v6h-6z"/><path class="prefix__cls-6" id="prefix__rect2062" d="M32 32h3v6h-3z"/><path class="prefix__cls-5" id="prefix__rect2064" d="M38 32h6v6h-6z"/><path class="prefix__cls-6" id="prefix__rect2066" d="M38 32h3v6h-3z"/><path class="prefix__cls-7" id="prefix__rect2068" d="M2 36h14v4H2z"/><path class="prefix__cls-8" id="prefix__rect2070" d="M2 36h11v4H2z"/><path class="prefix__cls-7" id="prefix__rect2072" d="M48 36h14v4H48z"/><path class="prefix__cls-8" id="prefix__rect2074" d="M48 36h11v4H48z"/><path class="prefix__cls-7" id="prefix__rect2076" d="M2 58h60v4H2z"/><path class="prefix__cls-8" id="prefix__rect2078" d="M2 58h57v4H2z"/><path class="prefix__cls-7" id="prefix__rect2080" d="M12 22h40v6H12z"/><path class="prefix__cls-8" id="prefix__rect2082" d="M12 22h37v6H12z"/><rect height="14" rx="2" ry="2" width="26" x="19" y="2" id="prefix__rect2084" fill="#559264"/><rect height="14" rx="2" ry="2" width="23" x="19" y="2" id="prefix__rect2086" fill="#71c285"/><path class="prefix__cls-11" id="prefix__rect2088" d="M22 16h2v6h-2z"/><path class="prefix__cls-11" id="prefix__rect2090" d="M40 16h2v6h-2z"/><path class="prefix__cls-4" d="M31 13h-3a1 1 0 01-1-1V9a1 1 0 011-1h1V7h-2V5h3a1 1 0 011 1v3a1 1 0 01-1 1h-1v1h2z" id="prefix__path2092"/><path class="prefix__cls-4" d="M37 11h-4a1 1 0 01-1-1V5h2v4h3z" id="prefix__path2094"/><path class="prefix__cls-4" id="prefix__rect2096" d="M35 7h2v6h-2z"/><path class="prefix__cls-12" id="prefix__line2098" d="M26 51v2"/><path class="prefix__cls-12" id="prefix__line2100" d="M38 51v2"/></g></svg>