<svg xmlns="http://www.w3.org/2000/svg" width="136.465" height="131.948" viewBox="0 0 10.917 10.556" xmlns:v="https://vecta.io/nano"><path d="M5.884.018c1.053-.072 1.791 0 3.318 1.475s1.673 2.528 1.713 3.844a4.765 4.765 0 0 1-1.344 3.469c-.855.843-2.408 1.923-4.403 1.725s-2.865-.689-3.842-1.877S.022 5.706.001 4.979.357 3.071 1.28 2.005 2.965.229 5.884.018z" fill="#1d1d1b"/><path d="M5.162.49C6.044.404 6.908.379 7.664.766s1.883 1.685 2.067 1.909a1.633 1.633 0 0 1 .27.461s-.369.253-.23.895.381.908.487.994a.908.908 0 0 0 .232.133s.065 1.355-.291 2.079-1.365 2.008-2.271 2.351-2.503 1.066-4.15.301-2.136-1.487-2.739-2.709-.655-2.452-.36-3.339 1.245-2.054 2.016-2.581S4.492.555 5.162.49z" fill="#e6e4da"/><path d="M10.097 3.389c.038 0 .164.375.263.771a1.395 1.395 0 0 1 .053.592 1.203 1.203 0 0 1-.402-.6c-.095-.371.036-.763.086-.763z" fill="#fff"/><g fill="#1d1d1b"><path d="M8.501 1.84c.222.13.42.298.586.495-.013.046.019.171-.046.124s-.579-.44-.592-.474c-.008-.054.012-.109.053-.145z"/><path d="M8.48 2.517a5.36 5.36 0 0 1 .731.661c.003.045-.011.089-.038.124l-.737-.645c-.019-.028.044-.141.044-.141zm-.106.501a5.08 5.08 0 0 1 .706.581c0 .059-.021.139-.04.145s-.784-.48-.771-.539.067-.206.105-.187zm-1.586-.682a.52.52 0 0 1 .731.487.69.69 0 0 1-.294.546c-.179.125-.407.157-.614.086-.329-.179-.375-.908.177-1.119z"/></g><path d="M6.837 2.5a.36.36 0 0 1 .506.337.476.476 0 0 1-.632.432c-.223-.114-.257-.619.126-.769z" fill="#fff"/><path d="M1.924 2.925c.025 0 .251.112.23.133a1.85 1.85 0 0 0-.434.731c-.105.394-.059.546-.124.552s-.211 0-.225-.04a2.366 2.366 0 0 1 .173-.701c.112-.253.31-.647.381-.674zm1.974-.019c.543-.137 1.437.152 1.567 1.199s-1.079 1.58-1.927 1.053-1.234-1.852.36-2.252z" fill="#1d1d1b"/><path d="M3.976 3.298a.876.876 0 0 1 1.053.811c.088.71-.731 1.07-1.306.718s-.826-1.258.253-1.529z" fill="#fff"/><path d="M1.852 5.571c.116-.051.44 0 .453.436s-.276.678-.592.598-.48-.763.139-1.034z" fill="#1d1d1b"/><path d="M1.882 5.809c.133-.042.284.112.263.303s-.19.407-.394.329a.348.348 0 0 1 .131-.632z" fill="#fff"/><path d="M5.042 6.949c.291-.156.586-.061.659.255a.527.527 0 0 1-.508.685.489.489 0 0 1-.152-.94z" fill="#1d1d1b"/><path d="M5.143 7.138a.255.255 0 0 1 .409.223.331.331 0 0 1-.455.324c-.217-.105-.23-.383.046-.548z" fill="#fff"/><g fill="#1d1d1b"><path d="M3.095 7.501c.027.027 0 .145.158.276s.238.133.223.179-.025.099-.072.099a.855.855 0 0 1-.316-.198c-.105-.099-.211-.316-.158-.337a.645.645 0 0 1 .164-.019z"/><path d="M2.649 7.553a1.344 1.344 0 0 0 .286.449c.211.211.343.255.322.301s-.078.112-.124.093a3.044 3.044 0 0 1-.447-.421c-.126-.145-.257-.356-.225-.388s.187-.034.187-.034z"/><path d="M2.246 7.612a4.171 4.171 0 0 0 .396.607c.23.257.348.282.335.322a.099.099 0 0 1-.099.078c-.065 0-.35-.257-.552-.493s-.31-.409-.272-.44a.798.798 0 0 1 .192-.074zm4.715.923c.303-.019.44.118.36.468s-.369.316-.552.211-.362-.647.192-.678z"/></g><path d="M6.973 8.706a.211.211 0 0 1 .175.303.183.183 0 0 1-.322 0 .211.211 0 0 1 .147-.303z" fill="#fff"/><path d="M8.164 6.026c.529-.124.784.04.929.598s-.375.956-.784 1.041-.605.053-.83-.461-.044-1.007.685-1.178z" fill="#1d1d1b"/><path d="M8.105 6.224c.175-.055.554-.179.706.236s.131.672-.211.883-.489.259-.819-.034-.385-.862.324-1.085z" fill="#fff"/><g fill="#1d1d1b"><path d="M9.836 5.285a2.235 2.235 0 0 1 .455.527c0 .053-.034.131-.059.118a3.554 3.554 0 0 1-.508-.499c.006-.048.065-.145.112-.145z"/><path d="M9.533 5.599c0 .042.632.678.632.737s-.019.139-.044.124a7.853 7.853 0 0 1-.699-.731c.015-.023.112-.15.112-.131z"/><path d="M9.501 6.212a4.59 4.59 0 0 1 .573.632c0 .046-.034.158-.067.143s-.632-.611-.632-.632.091-.152.126-.143z"/></g></svg>