<svg version="1.1" xmlns="http://www.w3.org/2000/svg" xmlns:xlink="http://www.w3.org/1999/xlink" width="35.56122" height="19.38404" viewBox="0,0,35.56122,19.38404"><g transform="translate(-175.85545,-140.49038)"><g data-paper-data="{&quot;isPaintingLayer&quot;:true}" fill-rule="evenodd" stroke="none" stroke-linecap="butt" stroke-linejoin="miter" stroke-miterlimit="10" stroke-dasharray="" stroke-dashoffset="0" style="mix-blend-mode: normal"><path d="M211.02817,145.41214c0.11023,0.11284 0.22173,0.23846 0.27223,0.38982c0.10994,0.32954 0.17637,0.72615 0.03895,1.04457c-0.23632,0.54758 -0.83074,0.86208 -1.33967,1.15265c-0.94133,0.53743 -2.02619,0.75892 -3.06867,1.03474c-2.12243,0.56156 -4.3068,0.83656 -6.46007,1.25556c-0.87087,0.16946 -1.74271,0.33379 -2.61252,0.50896c-1.16772,0.23517 -2.32851,0.50691 -3.49887,0.72771c-1.30502,0.2462 -2.6118,0.48875 -3.92738,0.66555c-1.05753,0.14212 -2.35976,0.3765 -3.18462,0.31725c-0.82486,-0.05924 -0.56163,-0.05266 -0.84094,-0.09178c-0.8876,-0.12433 -1.77378,-0.26674 -2.6509,-0.45398c-0.81204,-0.17335 -1.62641,-0.35221 -2.41422,-0.61898c-0.31049,-0.10514 -0.70193,-0.12259 -0.90639,-0.38516c-0.10055,-0.12913 -0.14695,-0.33747 -0.08266,-0.48917c0.18058,-0.42615 0.72724,-0.56243 1.13629,-0.75933c1.31469,-0.63286 2.76743,-0.90201 4.16067,-1.3203c1.35498,-0.4068 2.71457,-0.79868 4.08253,-1.15647c1.72229,-0.45047 3.46132,-0.83014 5.19175,-1.24624c1.3983,-0.33623 2.79674,-0.67186 4.19453,-1.01036c1.75214,-0.42431 3.48759,-0.92823 5.25494,-1.27936c0.58708,-0.11664 1.17607,-0.28745 1.77384,-0.27424c0.61447,0.01358 1.21816,0.1914 1.80996,0.3622c0.40262,0.1162 0.79563,0.2705 1.17636,0.44848c0.41785,0.19533 0.82027,0.42676 1.20965,0.67681c0.23771,0.15265 0.48655,0.2977 0.68523,0.50107z" data-paper-data="{&quot;index&quot;:null}" fill="#b3b3b3" stroke-width="0.57301"/><path d="M208.87084,144.47155l-0.848,0.82095l-3.07341,1.18034l-4.42822,0.97589l-5.75895,1.24294l-6.00939,1.15902l-3.82547,0.82138l-2.31062,0.08129l-1.83383,-0.22237l0.45493,-0.45358l1.81123,-0.03474l6.11349,-1.15978l6.38208,-1.46192l6.05237,-0.96637l4.09405,-1.12351l2.18095,-0.76642l0.32897,-0.60274z" data-paper-data="{&quot;index&quot;:null}" fill="#cccccc" stroke-width="0.8"/><path d="M209.3191,144.34354c0,0 0.0324,0.48934 -0.05378,0.64074c-0.20073,0.35268 -0.60911,0.53685 -0.96387,0.7203c-0.45863,0.23717 -1.46951,0.47303 -1.46951,0.47303l-0.02287,-1.01204c0,0 0.37176,-0.10316 0.55376,-0.16733c0.3482,-0.12276 0.77532,-0.13984 1.02768,-0.41569c0.13751,-0.15031 0.18618,-0.5891 0.18618,-0.5891z" data-paper-data="{&quot;index&quot;:null}" fill="#aaeeff" stroke-width="0.57301" opacity="0.7"/><path d="M202.43064,147.09154l0.11369,0.39099l-2.34255,0.57228l-0.03499,-0.47319z" data-paper-data="{&quot;index&quot;:null}" fill="#aaeeff" stroke-width="0.57301" opacity="0.7"/><path d="M199.48666,147.81517l0.06658,0.45664l-2.18514,0.40787l-0.06715,-0.53826z" data-paper-data="{&quot;index&quot;:null}" fill="#aaeeff" stroke-width="0.57301" opacity="0.7"/><path d="M196.52546,148.34302l0.16137,0.40696l-2.10587,0.40729l-0.03442,-0.39157z" data-paper-data="{&quot;index&quot;:null}" fill="#aaeeff" stroke-width="0.57301" opacity="0.7"/><path d="M193.78657,148.91822l-0.01212,0.53884l-1.86919,0.24229l-0.00226,-0.3265z" data-paper-data="{&quot;index&quot;:null}" fill="#aaeeff" stroke-width="0.57301" opacity="0.7"/><path d="M191.28548,149.49166l0.01947,0.52229l-1.72616,0.29022l-0.09761,-0.35845z" data-paper-data="{&quot;index&quot;:null}" fill="#aaeeff" stroke-width="0.57301" opacity="0.7"/><path d="M189.00612,150.03083l0.00283,0.40813l-1.74168,0.33931l-0.01834,-0.35904z" data-paper-data="{&quot;index&quot;:null}" fill="#aaeeff" stroke-width="0.57301" opacity="0.7"/><path d="M186.77387,150.50435l0.04993,0.34248l-1.63081,0.32217l-0.06602,-0.37501z" data-paper-data="{&quot;index&quot;:null}" fill="#aaeeff" stroke-width="0.57301" opacity="0.7"/><path d="M198.6753,145.12736c0,0 0.63548,-0.80243 0.95884,-1.19883c0.37827,-0.46373 0.77309,-0.91306 1.14785,-1.3798c0.27295,-0.33995 0.52308,-0.69914 0.80143,-1.03442c0.06561,-0.07903 -0.04711,0.06565 0.20452,-0.23006c0.25163,-0.29571 0.94672,-0.65999 0.94672,-0.65999l0.30043,-0.11649c0.30044,-0.11649 0.19296,0.39041 0.19296,0.39041l-0.34415,0.67189l-1.18591,2.75146z" data-paper-data="{&quot;index&quot;:null}" fill="#b3b3b3" stroke-width="0.57301"/><path d="M196.85668,150.38133c0,0 -5.76057,2.834 -8.65928,4.21037c-2.24539,1.06616 -4.50701,2.09572 -6.76414,3.13527c-1.4367,0.66169 -2.90725,1.31463 -4.31469,1.97447c-0.36392,0.17063 -0.62391,0.17684 -1.18792,0.17198c-0.30678,-0.00264 0.40663,-0.493 0.67731,-0.64168c2.05154,-1.12689 4.25325,-2.017 6.36836,-3.05073c2.68013,-1.30988 5.34712,-2.64823 8.01073,-3.99337c1.09287,-0.55191 2.13694,-1.21589 3.27036,-1.67293c0.35825,-0.14446 0.72393,-0.30395 1.10752,-0.33465c0.49999,-0.04002 1.49174,0.20128 1.49174,0.20128z" data-paper-data="{&quot;index&quot;:null}" fill="#b3b3b3" stroke-width="0.57301"/><path d="M181.50077,149.81541l-3.93586,-5.79012c0,0 0.74459,-0.38315 1.1236,-0.30212c2.3605,0.50468 3.45852,3.66014 5.69199,4.59475c0.30061,0.12579 1.00522,0.1827 1.00522,0.1827z" data-paper-data="{&quot;index&quot;:null}" fill="#b3b3b3" stroke-width="0.57301"/><path d="M182.90911,151.05516c0,0 -3.88131,1.93078 -5.9771,2.3132c-0.32788,0.05983 -0.99892,-0.00899 -0.99892,-0.00899c0,0 3.45916,-1.85619 5.31021,-2.45523c0.28184,-0.09121 0.87084,-0.16965 0.87084,-0.16965z" data-paper-data="{&quot;index&quot;:null}" fill="#b3b3b3" stroke-width="0.57301"/><path d="M184.36556,148.44865l-0.15967,-0.16208l1.40117,-1.43064c0,0 0.50021,0.24337 0.39918,0.40521l-0.81037,1.29804z" data-paper-data="{&quot;index&quot;:null}" fill="#b3b3b3" stroke-width="0.57301"/><path d="M211.21223,145.82653l0.06855,0.87854l-0.848,0.82095l-2.44954,1.06856l-5.15694,0.98124l-6.73662,1.37876l-2.64108,0.46964l-5.32365,0.96102l-1.97943,-0.19987l-3.04454,-0.66373l4.66423,0.03007l5.67671,-1.09226l8.0892,-1.4959l6.02902,-1.33068l2.47065,-1.02583l0.61645,-1.18373z" data-paper-data="{&quot;index&quot;:null}" fill="#333333" stroke-width="0.8" opacity="0.2"/><path d="M182.51524,148.11696l-1.55081,-1.44654l-2.05763,-2.47195c0,0 0,0 1.1292,0.69923c1.1292,0.69923 0,0 0.75503,0.78774c0.75503,0.78774 0.02112,0.04272 0.9662,1.21499c0.94509,1.17227 1.94759,1.61515 1.94759,1.61515z" data-paper-data="{&quot;index&quot;:null}" fill="#cccccc" stroke-width="0.8"/><path d="M181.69133,149.40942l-3.30281,-4.88554l4.11303,4.62231z" data-paper-data="{&quot;index&quot;:null}" fill="#1a1a1a" stroke-width="0.8" opacity="0.2"/><path d="M199.50238,144.64755l2.41506,-3.0408l0.53866,-0.38988l-0.28451,1.00978l-0.88132,2.02185z" data-paper-data="{&quot;index&quot;:null}" fill="#cccccc" stroke-width="0.8"/><path d="M192.93107,151.85682l-3.40238,1.78308l-3.88065,1.87235l-3.32088,1.5252l-3.54945,1.5912l-2.18021,0.87362l1.99164,-1.04375l5.23101,-2.31107l4.35744,-2.17602l3.71394,-1.89257z" data-paper-data="{&quot;index&quot;:null}" fill="#cccccc" stroke-width="0.8" opacity="0.3"/><path d="M192.39167,152.1395l-1.08326,-0.0778l2.57773,-0.59782z" data-paper-data="{&quot;index&quot;:null}" fill="#504416" stroke-width="0.8" opacity="0.3"/><path d="M181.47612,151.40494l-2.20058,0.93809l-1.97423,0.5505l2.94819,-1.2223l0.43382,-0.49631z" data-paper-data="{&quot;index&quot;:null}" fill="#1a1a1a" stroke-width="0.8" opacity="0.3"/><path d="M185.48751,147.36617l-0.40973,0.96782l-0.50088,-0.16784z" data-paper-data="{&quot;index&quot;:null}" fill="#cccccc" stroke-width="0.8"/></g></g></svg>