<svg xmlns="http://www.w3.org/2000/svg" width="134.105" height="77.001" viewBox="0 0 171.654 98.561" xmlns:v="https://vecta.io/nano"><path d="M156.607 62.988c8.527 1.37 15.047 8.778 15.047 17.671a17.92 17.92 0 0 1-17.902 17.902h-58.53a3.92 3.92 0 0 1-3.916-3.916 3.92 3.92 0 0 1 3.916-3.916h58.549a10.08 10.08 0 0 0 10.07-10.07 10.08 10.08 0 0 0-10.07-10.07h-3.974a23.09 23.09 0 0 1-13.427 4.283H14.179C6.366 74.872 0 68.506 0 60.693a41.98 41.98 0 0 1 9.048-25.966 41.93 41.93 0 0 1 20.642-14.006c0-1.235.096-2.469.309-3.723C31.734 6.349 40.685-1.194 49.945.156c3.588.54 6.81 2.334 9.279 5.131 3.53-.154 6.868.752 9.646 2.643 1.698 1.157 3.106 2.643 4.186 4.379l35.477-4.977c6.752-.945 13.581-.405 19.735 1.582 18.655 5.961 31.213 23.15 31.291 42.73.019 4.128-1.061 7.987-2.952 11.343z" fill="#633"/><path d="M151.746 51.684c0 8.469-6.906 15.375-15.375 15.375h-23.825c1.08-1.775 2.874-3.106 5.016-3.53l9.935-1.987c2.122-.424 3.492-2.489 3.067-4.611s-2.489-3.492-4.611-3.067l-9.935 1.987c-5.865 1.177-10.417 5.633-11.903 11.208H44.447c1.08-1.775 2.874-3.106 5.016-3.53l9.935-1.987c2.122-.424 3.492-2.489 3.067-4.611s-2.489-3.492-4.611-3.067L47.92 55.85c-5.865 1.177-10.417 5.633-11.883 11.208H14.179c-3.492 0-6.347-2.855-6.347-6.347a34.1 34.1 0 0 1 7.35-21.105 34.06 34.06 0 0 1 18.886-11.961l4.514-1.061c-.019 1.505.154 2.99.54 4.418.54 2.083 2.682 3.337 4.784 2.797s3.357-2.681 2.797-4.784c-.83-3.183.154-7.003 2.624-10.224 4.032-5.228 10.957-7.234 15.144-4.398 2.026 1.37 2.72 3.395 2.952 4.861.482 3.048-.54 6.463-2.797 9.395-2.546 3.28-6.25 5.421-9.896 5.672-2.161.154-3.781 2.026-3.627 4.186.154 2.064 1.871 3.646 3.897 3.646.096 0 9.896-.193 15.838-8.7 2.952-4.225 4.746-8.932 4.514-13.543l34.281-4.804c5.594-.791 11.208-.347 16.263 1.273a37.14 37.14 0 0 1 25.85 35.303z" fill="#b2abac"/><path d="M131.085 30.926c1.698 1.331 1.987 3.8.637 5.498a3.88 3.88 0 0 1-3.087 1.485c-.849 0-1.698-.27-2.431-.849-1.775-1.389-3.762-2.469-5.942-3.164-1.62-.521-3.376-.772-5.247-.772-.945 0-1.891.058-2.855.193l-23.034 3.337a3.92 3.92 0 0 1-4.437-3.318 3.92 3.92 0 0 1 3.318-4.437l23.072-3.357c4.07-.579 8.044-.27 11.594.868 3.067 1.022 5.884 2.527 8.411 4.514z" fill="#633"/><path d="M48.807 7.931a4.46 4.46 0 0 1 1.003.231 23.34 23.34 0 0 0-6.675 5.884 22.75 22.75 0 0 0-2.508 4.051l-2.971.694.077-.502c1.061-6.463 6.038-11.112 11.073-10.359z" fill="#b2abac"/><path d="M25.985 40.379a3.92 3.92 0 0 1 3.916 3.916 3.92 3.92 0 0 1-3.916 3.916 3.92 3.92 0 0 1-3.916-3.916c0-2.18 1.756-3.916 3.916-3.916z" fill="#633"/></svg>