<svg xmlns="http://www.w3.org/2000/svg" xmlns:xlink="http://www.w3.org/1999/xlink" viewBox="0 0 130 120"><path fill="#FFF" d="M0 0h130v39H0z"/><path fill="#2A66B7" d="M0 39h130v42H0z"/><path fill="#DC4437" d="M0 81h130v39H0z"/><defs><path id="prefix__a" d="M45.3 11c-13.1.8-14.3 6.6-14.3 6.6v4.9s-.1 22.6.4 24.8c.5 2.2 10.6 11.9 17 12.1 6.4.2 16.5-9.8 17-12.1.5-2.2.4-24.8.4-24.8v-4.9s-1.2-5.8-14.3-6.6h-6.2z"/></defs><use xlink:href="#prefix__a" overflow="visible" fill="#2A66B7"/><clipPath id="prefix__b"><use xlink:href="#prefix__a" overflow="visible"/></clipPath><path clip-path="url(#prefix__b)" fill="#FFF" d="M72.3 51L48.5 62.9 24.7 51l23.8-22.2z"/></svg>