<svg xmlns="http://www.w3.org/2000/svg" viewBox="0 0 130 120" xmlns:v="https://vecta.io/nano"><path fill="#2a66b7" d="M0 0v12.1 15.2 24.4 14.9V120h130V0z"/><path d="M42.6 88.5l2.3 4.9 5.2.8-3.7 3.9.8 5.4-4.6-2.6-4.6 2.6.9-5.4-3.8-3.9 5.2-.8zm61.9 0l2.3 4.9 5.2.8-3.8 3.9.9 5.4-4.6-2.6-4.6 2.6.9-5.4-3.8-3.9 5.2-.8zm0-55.2l2.3 5 5.2.8-3.8 3.8.9 5.4-4.6-2.5-4.6 2.5.9-5.4-3.8-3.8 5.2-.8z" fill="#fff"/><path d="M55.8 51.7h-1v5.2l23.6 21.9h6.5.3v-5.6l-23-21.5zM29.5 27.3h.9v-5.2L6.8.2H.4 0v5.6l23.1 21.5zm-6.6 24.4L0 72.9v5.9h6.4l24-22.1v-5h-1zM78.8.2l-24 22.1v5h1.1 6.4L85.2 6.1V.2zM50.3.2H35v31.7H0v15.2h35v31.7h15.3V47.1h34.9V31.9H50.3z" fill="#dc4437"/><path d="M62.3 27.3h-7.5v-5L78.8.2h-3.4H72L54.8 16V.2h-4.5v31.7h34.9v-4.6H69.1l16.1-14.9V9.2 6.1zM30.4 15.9L13.5.2h-3.4-3.3l23.6 21.9v5.2h-7.3L0 5.8v3.1 3.2l16.3 15.2H0v4.6h35V.2h-4.6zm19.9 31.2v31.7h4.5V63.1l16.9 15.7h3.4 3.3L54.8 56.9v-5.2h7.4l23 21.5v-3.1-3.2L68.9 51.7h16.3v-4.6H60.6zM0 47.1v4.6h16.1L0 66.6v3.2 3.1l22.9-21.2h7.5v5l-24 22.1h3.4 3.4L30.4 63v15.8H35V47.1h-.7z" fill="#fff"/></svg>