<?xml version="1.0" encoding="UTF-8" standalone="no"?>
<!-- Generator: Moho 13.5.1 build 20210623 -->

<svg
   version="1.1"
   id="Frame_0"
   width="73.888062"
   height="140"
   sodipodi:docname="riggedanimation-character-7.svg"
   inkscape:version="1.2.2 (732a01da63, 2022-12-09)"
   xmlns:inkscape="http://www.inkscape.org/namespaces/inkscape"
   xmlns:sodipodi="http://sodipodi.sourceforge.net/DTD/sodipodi-0.dtd"
   xmlns="http://www.w3.org/2000/svg"
   xmlns:svg="http://www.w3.org/2000/svg">
  <defs
     id="defs1392" />
  <sodipodi:namedview
     id="namedview1390"
     pagecolor="#ffffff"
     bordercolor="#000000"
     borderopacity="0.25"
     inkscape:showpageshadow="2"
     inkscape:pageopacity="0.0"
     inkscape:pagecheckerboard="0"
     inkscape:deskcolor="#d1d1d1"
     showgrid="false"
     inkscape:zoom="0.62760417"
     inkscape:cx="1.593361"
     inkscape:cy="427.02075"
     inkscape:window-width="1920"
     inkscape:window-height="1017"
     inkscape:window-x="1912"
     inkscape:window-y="-8"
     inkscape:window-maximized="1"
     inkscape:current-layer="Frame_0" />
  <g
     id="boy_11"
     transform="matrix(0.14259029,0,0,0.14259029,-136.63997,-16.362217)">
    <path
       fill="#000000"
       fill-rule="evenodd"
       fill-opacity="0.196078"
       stroke="none"
       d="m 1248.008,1096.58 c 80.927,-0.188 82.413,-7.061 82.415,-8.773 0,-1.711 -1.386,-10.088 -84.775,-9.978 -81.823,0.108 -83.197,8.267 -83.202,9.978 0,1.712 1.538,8.969 85.562,8.773 z"
       id="path1198" />
    <path
       id="S2"
       fill="#ffb888"
       fill-rule="evenodd"
       stroke="none"
       d="m 1382.979,475.754 c 7.467,25.334 13.567,55.368 16.233,68.668 3.167,15.634 -2.1,34.401 -21.3,43.334 -19.201,8.934 -36.934,0.834 -46.868,-11.633 -8.433,-10.634 -27.467,-34.634 -42.034,-56.701 31.367,-14.534 62.668,-29.101 93.969,-43.668 z" />
    <path
       id="S3"
       fill="#d27c00"
       fill-rule="evenodd"
       stroke="none"
       d="m 1391.679,482.487 c 1.666,3.334 0.233,7.367 -3.134,8.934 -30.467,14.166 -60.901,28.334 -91.402,42.467 -3.267,1.534 -7.166,0.134 -8.733,-3.133 -2.5,-5.2 -4.934,-10.434 -7.101,-15.4 34.335,-15.968 68.669,-31.901 103.003,-47.868 2.4,4.867 4.9,9.967 7.367,15 z" />
    <path
       id="S4"
       fill="#ff9800"
       fill-rule="evenodd"
       stroke="none"
       d="m 1352.811,414.319 c 5.101,8.6 15.467,21.467 27.468,45.068 1.3,2.566 2.666,5.267 4.033,8.1 -34.334,15.967 -68.635,31.934 -103.003,47.868 -1.499,-3.434 -2.866,-6.734 -4,-9.767 -8.933,-23.601 -12.166,-37.935 -15.3,-47.535 -8.667,-26.467 0.567,-53.934 26.134,-65.368 23.7,-10.6 51.435,-0.733 64.668,21.634 z" />
    <path
       id="S5"
       fill="#ffb888"
       fill-rule="evenodd"
       stroke="none"
       d="m 1324.277,547.389 c 2.034,-10.334 8.267,-22.1 21.634,-28.334 13.367,-6.2 26.401,-3.4 35.601,1.7 5.267,2.933 22.934,21.201 32.734,43.768 9.367,21.567 15.234,69.601 24.634,108.369 1.9,7.834 -1.867,17.334 -11.2,22.067 -9.634,4.1 -19.834,0.534 -24.368,-6.1 -20.3,-29.634 -55.001,-66.268 -65.468,-87.336 -10.967,-22.067 -14.733,-48.201 -13.567,-54.134 z" />
    <g
       id="hand_right">
      <path
         fill="#edad82"
         fill-rule="evenodd"
         stroke="none"
         d="m 1424.677,687.629 c -4.958,-7.381 -12.31,-13.652 -5.084,-18.175 5.77,-3.613 14.705,-2.431 21.339,7.415 12.635,18.845 23.491,25.203 23.993,33.528 0.679,11.893 4.256,19.629 5.831,28.779 1.262,7.726 3.378,13.77 4.906,17.775 2.703,7.215 -2.127,9.628 -5.253,8.374 -3.126,-1.254 -6.204,-8.735 -10.676,-20.065 -4.472,-11.33 -11.409,-26.031 -19.821,-38.426 -6.656,-9.749 -12.715,-15.424 -15.235,-19.205 z"
         id="path1204" />
      <path
         fill="#f5b082"
         fill-rule="evenodd"
         stroke="none"
         d="m 1419.742,690.956 c -5.023,-7.959 -9.359,-14.663 -2.21,-20.366 7.165,-5.667 16.991,-3.494 23.664,7.159 12.788,20.34 20.941,28.987 21.015,37.938 0.135,12.829 3.638,21.119 4.833,31.001 1.011,8.316 2.968,14.865 4.379,19.184 2.574,7.793 -2.786,10.311 -6.137,8.984 -3.351,-1.328 -6.264,-9.447 -10.544,-21.643 -4.281,-12.196 -11.032,-28.065 -19.58,-41.484 -6.625,-10.545 -12.825,-16.678 -15.42,-20.773 z"
         id="path1206" />
      <path
         fill="#fdb686"
         fill-rule="evenodd"
         stroke="none"
         d="m 1411.833,694.091 c -4.927,-7.742 -1.482,-17.87 5.699,-23.501 7.182,-5.631 19.762,-3.036 24.165,8.282 9.359,24.167 12.192,30.238 12.186,39.008 0,12.539 3.428,20.648 4.526,30.313 0.93,8.135 2.822,14.54 4.185,18.749 2.477,7.575 -2.866,10.13 -6.201,8.839 -3.335,-1.291 -6.151,-9.192 -10.249,-21.123 -4.098,-11.93 -10.725,-27.377 -19.096,-40.398 -6.549,-10.231 -12.668,-16.183 -15.215,-20.169 z"
         id="path1208" />
      <path
         fill="#eba67a"
         fill-rule="evenodd"
         stroke="none"
         d="m 1430.715,705.639 c -0.997,3.091 -2.685,6.361 -2.689,10.095 -0.296,-0.52 -0.629,-0.979 -0.924,-1.498 -6.566,-10.267 -12.737,-16.196 -15.214,-20.169 -2.117,-3.31 16.183,-24.312 23.374,-8.465 3.776,8.472 -1.856,11.676 -4.547,20.037 z"
         id="path1210" />
      <path
         fill="#fdb686"
         fill-rule="evenodd"
         stroke="none"
         d="m 1433.053,685.11 c 0.784,-11.632 -3.494,-16.192 -11.1,-14.538 -12.17,2.647 -16.269,21.529 -15.511,25.532 1.346,7.341 4.094,16.098 2.549,21.56 -1.507,5.402 -5.604,19.249 1.228,19.025 5.513,-0.157 7.853,-4.411 9.901,-16.087 3.817,-21.099 11.976,-21.655 12.933,-35.492 z"
         id="path1212" />
    </g>
    <g
       id="right_leg">
      <path
         id="S14"
         fill="#ffb888"
         fill-rule="evenodd"
         stroke="none"
         d="m 1220.108,683.259 c 0,25.934 15.067,87.669 18.867,116.403 1.2,9.067 12.034,76.201 12.467,84.302 0.333,5.633 5.967,14.9 16.867,14.9 10.267,0 16.001,-8.1 16.868,-14.7 2.8,-22.067 10.466,-65.502 13.7,-82.802 7.433,-40.635 17.467,-90.902 17.467,-118.17 -32.101,0.034 -64.169,0.034 -96.236,0.067 z" />
      <path
         id="S15"
         fill="#543025"
         fill-rule="evenodd"
         stroke="none"
         d="m 1316.31,683.225 c 0,-29.2 -23.8,-48.101 -48.134,-48.068 -24.968,10e-4 -48.101,19.901 -48.068,48.135 0,15.134 4.334,52.068 7.834,83.769 27.334,-0.034 54.668,-0.033 82.002,-0.033 2.9,-31.401 6.366,-68.102 6.366,-83.803 z" />
      <path
         id="S16"
         fill="#543025"
         fill-rule="evenodd"
         stroke="none"
         d="m 1231.031,790.306 c 1.2,12.1 1.966,21.7 1.833,26.3 24.601,-0.033 49.235,-0.033 73.869,-0.033 -0.1,-4.334 0.566,-13.967 1.633,-26.301 -25.801,10e-4 -51.568,10e-4 -77.335,0.034 z" />
      <path
         id="S17"
         fill="#7c574d"
         fill-rule="evenodd"
         stroke="none"
         d="m 1310.5,766.472 c -27.334,-10e-4 -54.669,0 -82.003,0.033 0.934,8.467 1.834,16.567 2.534,23.767 25.767,-0.033 51.534,-0.033 77.335,-0.033 0.6,-7.167 1.334,-15.267 2.134,-23.767 z" />
      <path
         id="S10"
         fill="#ffb888"
         fill-rule="evenodd"
         stroke="none"
         d="m 1268.209,864.563 c -9.667,0 -17.3,7.601 -17.3,17.301 0,0 9,162.937 6.934,189.405 -0.434,5.666 4.6,10.267 10.266,10.267 5.667,0 10.834,-4.634 10.267,-10.267 -2.366,-24.668 7.1,-189.372 7.1,-189.372 0.034,-9.433 -7.6,-17.334 -17.267,-17.334 z" />
      <path
         id="S11"
         fill="#718590"
         fill-rule="evenodd"
         stroke="none"
         d="m 1278.576,1028.801 c -7,0 -14,-0.034 -21,0 0.167,5.167 0.266,10.033 0.366,14.567 6.734,0 13.501,0 20.234,0 0.133,-4.534 0.234,-9.4 0.4,-14.567 z" />
      <path
         id="S12"
         fill="#718590"
         fill-rule="evenodd"
         stroke="none"
         d="m 1258.142,1057.468 c 0.034,6.067 -0.066,10.8 -0.299,13.801 -0.434,5.666 4.6,10.267 10.266,10.267 5.667,0 10.834,-4.634 10.267,-10.267 -0.266,-2.867 -0.4,-7.634 -0.367,-13.801 -6.633,-0.033 -13.233,-0.033 -19.867,0 z" />
      <path
         id="S13"
         fill="#a0b2b9"
         fill-rule="evenodd"
         stroke="none"
         d="m 1278.209,1043.368 c -6.766,0 -13.5,-0.034 -20.233,0 0.099,5.233 0.166,9.966 0.2,14.1 6.6,0 13.234,0 19.867,0 -0.033,-4.134 0.033,-8.867 0.166,-14.1 z" />
      <path
         id="S1"
         fill="#3c68af"
         fill-rule="evenodd"
         stroke="none"
         d="m 1251.208,1087.711 c -1.109,-3.891 -0.71,-11.588 1.881,-16.099 1.064,-1.851 3.206,-3.48 5.282,-4.583 2.926,0.747 3.378,1.273 9.177,1.775 5.064,0.169 8.688,-2.098 10.506,-2.923 5.69,1.602 11.217,4.17 16.785,5.86 6.198,1.883 15.457,1.162 22.029,3.137 2.914,0.876 6.114,3.011 6.834,7.588 0.342,2.175 -0.601,4.827 -3.199,6.111 -1.126,0.375 -4.728,0.154 -6.568,0.121 -6.05,-0.107 -14.156,-0.196 -20.288,-0.284 -7.022,-0.101 -16.367,-0.202 -23.435,-0.317 -5.616,-0.092 -15.014,-0.097 -19.004,-0.386 z" />
      <path
         id="path1224"
         fill="#ffffff"
         fill-rule="evenodd"
         stroke="none"
         d="m 1305.265,1074.25 c 10e-4,10e-4 -0.777,9.161 -0.778,9.161 0,0 18.263,0 18.263,0 0,0 0.643,-3.314 -3.449,-6.309 -3.616,-2.52 -14.034,-2.85 -14.036,-2.85 z" />
      <path
         id="path1226"
         fill="#ffffff"
         fill-rule="evenodd"
         stroke="none"
         d="m 1251.681,1084.351 c 0,0 18.432,0.023 18.434,0.023 0,0 23.361,0.041 23.364,0.041 0,-10e-4 20.709,-0.261 20.711,-0.261 10e-4,-10e-4 8.455,0.197 8.456,0.197 0,0 -0.278,1.281 -0.773,1.984 -0.404,0.686 -1.649,1.374 -1.649,1.374 0,0 -4.393,0.053 -6.276,0.055 -6.111,0.01 -14.206,-0.237 -20.295,-0.315 -7.025,-0.09 -16.415,-0.115 -23.418,-0.235 -5.5,-0.096 -18.332,-0.331 -18.334,-0.331 0,0 -0.22,-2.532 -0.22,-2.532 z" />
    </g>
    <path
       id="S9"
       fill="#693f30"
       fill-rule="evenodd"
       stroke="none"
       d="m 1318.851,598.973 c 4.705,45.099 -2.074,75.419 -2.907,86.019 -2.534,32.801 -30.068,51.335 -57.302,45.201 -12.433,-2.7 -33.5,-3.9 -46.267,-0.2 -25.068,7.234 -53.769,-9.333 -58.902,-39.034 -1.467,-8.4 -0.048,-31.76 -14.907,-80.708 -6.602,-21.752 60.677,-23.837 97.763,-21.167 29.047,2.11 80.837,-6.319 82.522,9.889 z" />
    <g
       id="left_leg">
      <path
         id="S40"
         fill="#ffb888"
         fill-rule="evenodd"
         stroke="none"
         d="m 1152.94,683.259 c 0,25.934 15.066,87.669 18.833,116.403 1.2,9.067 12.034,76.201 12.467,84.302 0.334,5.633 5.934,14.9 16.868,14.9 10.267,0 16,-8.1 16.866,-14.7 2.8,-22.067 10.468,-65.502 13.701,-82.802 7.434,-40.635 17.5,-90.902 17.467,-118.17 -32.067,0.034 -64.135,0.034 -96.202,0.067 z" />
      <path
         id="S41"
         fill="#693f30"
         fill-rule="evenodd"
         stroke="none"
         d="m 1249.142,683.225 c 0,-29.2 -23.801,-48.101 -48.101,-48.101 -24.967,0 -48.101,19.901 -48.101,48.135 0,15.134 4.333,52.068 7.833,83.769 27.334,-0.564 54.668,-0.034 82.002,-0.034 2.867,-31.367 6.367,-68.068 6.367,-83.769 z" />
      <path
         id="S42"
         fill="#693f30"
         fill-rule="evenodd"
         stroke="none"
         d="m 1163.307,790.795 c 1.2,12.1 1.966,21.7 1.833,26.3 24.601,-0.033 49.234,-0.033 73.868,-0.033 -0.1,-4.333 0.567,-13.967 1.634,-26.301 -25.767,0.034 -51.568,0.034 -77.335,0.034 z" />
      <path
         id="S43"
         fill="#906759"
         fill-rule="evenodd"
         stroke="none"
         d="m 1242.775,766.994 c -27.334,0 -54.668,0 -82.002,0.034 0.934,8.467 1.8,16.567 2.534,23.767 25.767,-0.033 51.534,-0.034 77.335,-0.034 0.6,-7.166 1.367,-15.267 2.133,-23.767 z" />
      <path
         id="S36"
         fill="#ffb888"
         fill-rule="evenodd"
         stroke="none"
         d="m 1201.008,864.563 c -9.667,0 -17.301,7.601 -17.301,17.301 0,0 9.034,162.937 6.967,189.405 -0.433,5.666 4.6,10.267 10.267,10.267 5.667,0 10.834,-4.634 10.267,-10.267 -2.367,-24.668 7.1,-189.372 7.1,-189.372 0,-9.467 -7.633,-17.334 -17.3,-17.334 z" />
      <path
         id="S37"
         fill="#718590"
         fill-rule="evenodd"
         stroke="none"
         d="m 1211.408,1028.801 c -7,0 -14.001,0 -21.001,0 0.167,5.167 0.267,10.033 0.367,14.567 6.733,0 13.5,0 20.234,0 0.1,-4.534 0.233,-9.4 0.4,-14.567 z" />
      <path
         id="S38"
         fill="#718590"
         fill-rule="evenodd"
         stroke="none"
         d="m 1190.974,1057.468 c 0.033,6.067 -0.067,10.8 -0.3,13.801 -0.434,5.666 4.6,10.267 10.267,10.267 5.667,0 10.834,-4.634 10.267,-10.267 -0.267,-2.867 -0.4,-7.634 -0.367,-13.801 -6.633,-0.033 -13.267,-0.033 -19.867,0 z" />
      <path
         id="S39"
         fill="#a0b2b9"
         fill-rule="evenodd"
         stroke="none"
         d="m 1211.008,1043.368 c -6.767,0 -13.501,0 -20.234,0 0.1,5.233 0.167,9.966 0.2,14.1 6.6,0 13.234,0 19.867,0 0,-4.134 0.067,-8.867 0.167,-14.1 z" />
      <path
         id="path1238"
         fill="#3c68af"
         fill-rule="evenodd"
         stroke="none"
         d="m 1183.754,1087.762 c -1.118,-3.924 -0.715,-11.684 1.897,-16.232 1.073,-1.867 3.232,-3.509 5.326,-4.621 2.951,0.753 3.406,1.283 9.253,1.789 5.106,0.171 8.76,-2.115 10.593,-2.947 5.737,1.615 11.31,4.204 16.924,5.909 6.25,1.898 15.586,1.171 22.213,3.163 2.937,0.883 6.164,3.035 6.89,7.65 0.345,2.194 -0.605,4.867 -3.225,6.162 -1.136,0.378 -4.767,0.156 -6.623,0.123 -6.1,-0.109 -14.273,-0.199 -20.456,-0.287 -7.08,-0.102 -16.504,-0.203 -23.63,-0.32 -5.662,-0.092 -15.138,-0.098 -19.162,-0.389 z" />
      <path
         id="path1240"
         fill="#ffffff"
         fill-rule="evenodd"
         stroke="none"
         d="m 1238.261,1074.189 c 0,10e-4 -0.785,9.237 -0.786,9.238 0,0 18.415,0 18.415,0 0,-10e-4 0.649,-3.342 -3.477,-6.362 -3.646,-2.541 -14.151,-2.873 -14.152,-2.874 z" />
      <path
         id="path1242"
         fill="#ffffff"
         fill-rule="evenodd"
         stroke="none"
         d="m 1184.232,1084.374 c 0,0 18.584,0.024 18.586,0.024 0,-10e-4 23.555,0.041 23.558,0.041 0,-10e-4 20.881,-0.263 20.883,-0.264 10e-4,0 8.525,0.199 8.527,0.199 0,10e-4 -0.281,1.292 -0.78,2.001 -0.408,0.692 -1.662,1.385 -1.662,1.385 -10e-4,0 -4.43,0.053 -6.329,0.056 -6.162,0.01 -14.324,-0.239 -20.463,-0.318 -7.084,-0.091 -16.552,-0.115 -23.613,-0.238 -5.545,-0.095 -18.483,-0.333 -18.485,-0.333 0,0 -0.222,-2.552 -0.222,-2.553 z" />
    </g>
    <g
       id="body">
      <path
         id="path1245"
         fill="#576970"
         fill-rule="evenodd"
         stroke="none"
         d="m 1099.306,613.858 c 0.013,0.005 93.652,27.928 136.096,29.379 43.642,1.493 144.052,-20.782 144.066,-20.784 0,-0.011 -10.147,-71.713 -19.103,-101.319 -5.208,-17.221 -20.717,-82.188 -33.038,-95.963 -13.43,-15.015 -41.038,-21.446 -62.618,-24.25 -32.519,-4.225 -85.788,-1.434 -106.676,23.845 -22.413,27.125 -18.466,76.985 -29.059,109.181 -7.776,23.632 -29.663,79.903 -29.668,79.911 z" />
      <path
         id="S89"
         fill="#a0b2b9"
         fill-rule="evenodd"
         stroke="none"
         d="m 1315.031,374.123 c -1.433,3 -2.867,5.999 -4.3,8.999 -4.767,-4.2 -9.567,-8.4 -14.334,-12.6 -1.166,2.8 -2.333,5.567 -3.5,8.367 -4.7,-4.433 -9.366,-8.9 -14.066,-13.333 0.633,3.5 1.266,7 1.9,10.5 -1.767,-1.167 -3.534,-2.334 -5.3,-3.5 -0.5,3.766 -0.967,7.567 -1.434,11.367 -6.667,0 -13.334,0 -20.001,0 0.634,5.467 1.267,10.933 1.901,16.4 -6.934,3.1 -13.867,6.167 -20.801,9.267 3.234,1.267 6.467,2.5 9.733,3.8 -3.233,1.6 -6.499,3.234 -9.733,4.867 3.867,0.7 7.734,1.433 11.634,2.133 -2.067,5.234 -4.133,10.467 -6.2,15.701 1.9,1.533 3.766,3.067 5.666,4.633 -3.7,0.934 -7.4,1.867 -11.067,2.8 4.434,2.367 8.9,4.734 13.367,7.134 -1.933,6.7 -3.866,13.4 -5.8,20.1 6.134,0.433 12.301,0.833 18.468,1.267 0,5.5 -10e-4,11 0,16.5 2.233,-3.233 4.499,-6.467 6.766,-9.7 0.5,2.433 1.033,4.867 1.534,7.3 1.866,-1.333 3.766,-2.7 5.666,-4.033 2.867,6 5.767,12.033 8.667,18.067 1.067,-4.667 2.167,-9.367 3.234,-14.034 1.266,1.167 2.5,2.3 3.767,3.5 2.533,-1.167 5.1,-2.333 7.633,-3.5 2.033,4.667 4.1,9.334 6.133,14.034 3.067,-5.367 6.058,-11.284 9.201,-16.863 0.489,3.346 0.866,6.963 1.333,10.063 1.7,-3.467 3.433,-6.934 5.167,-10.367 2.7,1.033 5.433,2.067 8.167,3.1 -0.467,-2.633 -0.934,-5.3 -1.4,-7.934 7.133,-0.6 14.267,-1.233 21.4,-1.833 -3.166,-3.6 -6.333,-7.2 -9.5,-10.767 6.533,-2.133 13.067,-4.233 19.634,-6.333 -3.367,-2.234 -6.767,-4.434 -10.134,-6.667 2.067,-1.467 4.134,-2.9 6.2,-4.367 -0.9,-3.7 -1.833,-7.4 -2.733,-11.067 2.833,-2.833 5.667,-5.667 8.533,-8.467 -3.866,-2.733 -7.733,-5.466 -11.6,-8.166 0.467,-5.167 0.967,-10.367 1.467,-15.534 -4.634,-2.167 -9.267,-4.334 -13.867,-6.467 1.467,-4.867 2.933,-9.734 4.4,-14.567 -3.3,2.133 -6.6,4.233 -9.867,6.367 -0.667,-5.734 -1.3,-11.467 -1.967,-17.201 -3.8,3.5 -7.6,7.034 -11.367,10.567 -0.966,-3.167 -1.8,-6.367 -2.6,-9.533 z" />
      <path
         id="S52"
         fill="#ffb888"
         fill-rule="evenodd"
         stroke="none"
         d="m 1315.344,486.721 c 3.267,-8.767 5.533,-17.767 6.766,-27.301 1.8,-14.067 2.101,-28.334 -0.133,-42.368 -1.5,-9.466 -3.133,-19.267 -6.867,-28.2 -16.8,-5.667 -35.367,-15.867 -40.134,-21.601 -16.634,-20.167 -10.733,-70.135 -49.768,-71.568 -41.501,-1.534 -34.334,58.801 -50.068,67.268 -5.5,2.967 -10.8,5.834 -15.9,8.634 -3.3,58.701 56.201,117.103 79.268,124.369 19.801,6.234 64.202,12.567 76.836,-9.233 z" />
      <path
         id="S53"
         fill="#eda87a"
         fill-rule="evenodd"
         stroke="none"
         d="m 1280.409,371.918 c -2.433,-1.733 -4.333,-3.333 -5.466,-4.667 -16.635,-20.166 -10.734,-70.135 -49.768,-71.568 -41.501,-1.534 -34.334,58.801 -50.068,67.268 -1.067,0.567 -2.1,1.133 -3.133,1.7 22.1,20.201 72.702,32.202 108.435,7.267 z" />
      <path
         id="S54"
         fill="#000000"
         fill-rule="evenodd"
         fill-opacity="0.101961"
         stroke="none"
         d="m 1319.344,473.954 c -12.834,-0.967 -27.834,-3.1 -41.268,-2.534 -17.167,0.734 -43.401,11.634 -68.935,12.867 2.933,1.567 6,3 9.067,4.334 7.267,-0.2 13.5,-0.934 16.234,-1.4 30.134,-5.233 53.534,-7.801 83.502,-8.234 0.5,-1.666 0.967,-3.333 1.4,-5.033 z" />
      <path
         id="S56"
         fill="#d27c00"
         fill-rule="evenodd"
         stroke="none"
         d="m 1246.075,414.152 c 40.701,-3.066 48.002,-23.167 48.068,-34.167 -4.133,-2.1 -7.9,-4.234 -11.067,-6.267 2.634,10.4 -8.2,25.001 -28.501,27.201 -20.833,2.3 -48.667,-3.1 -70.268,-20.567 -5.8,-4.701 -9.733,-11.001 -10.733,-16.601 -4.334,2.333 -8.534,4.634 -12.634,6.834 8.534,18.1 38.067,47.134 85.135,43.567 z" />
      <path
         id="S57"
         fill="#ff9800"
         fill-rule="evenodd"
         stroke="none"
         d="m 1347.911,469.12 c 3.4,-13.8 -1.033,-37.167 -18.367,-66.935 -2.933,-5.066 -8.767,-11.433 -14.334,-13.3 -7.1,-2.367 -14.5,-5.567 -21.067,-8.9 -0.1,11 -7.4,31.101 -48.068,34.167 -47.068,3.567 -76.602,-25.5 -85.135,-43.534 -18.134,9.833 -34.268,18.467 -51.801,25.101 -15.167,5.767 -22.134,32.267 -21.601,48.567 0.467,13.901 7.334,32.335 15.201,43.768 22.167,32.201 4.033,60.502 10.5,102.069 11.133,71.835 79.168,102.936 139.437,101.836 66.668,-1.2 121.969,-27.801 121.236,-121.036 -0.367,-44.601 -19.634,-84.136 -26.001,-101.803 z" />
      <path
         id="S58"
         fill="#000000"
         fill-rule="evenodd"
         fill-opacity="0.05098"
         stroke="none"
         d="m 1234.442,487.221 c -7.201,1.267 -22.201,1.867 -17.834,-0.167 15.667,-7.3 38.868,-14.634 61.435,-15.6 24.967,-1.067 29.534,-0.267 43.401,2.8 6.533,1.433 8.233,4.566 -1.067,4.7 -31.167,0.334 -55.001,2.867 -85.935,8.267 z" />
      <path
         id="S59"
         fill="#000000"
         fill-rule="evenodd"
         fill-opacity="0.129412"
         stroke="none"
         d="m 1298.41,528.422 c 26.634,-3.467 49.468,-0.633 70.335,1.667 -6.267,-26.934 -16.5,-49.002 -20.834,-60.969 2.067,-8.333 1.233,-20.167 -3.533,-34.767 -19.734,-2.234 -43.368,-2.834 -74.735,-0.733 -65.935,4.4 -127.87,22.467 -181.771,15.166 1.533,13.201 7.766,29.068 14.833,39.335 10.8,15.7 12.034,30.5 11.2,46.334 59.602,25.501 121.37,2.2 184.505,-6.033 z" />
      <path
         id="S60"
         fill="#000000"
         fill-rule="evenodd"
         fill-opacity="0.129412"
         stroke="none"
         d="m 1114.672,597.757 c 14.6,66.435 79.936,95.302 138.004,94.235 56.934,-1.033 105.602,-20.6 118.102,-84.402 -17.367,11.867 -42.567,24.567 -71.768,26.801 -52.068,4.067 -131.603,3.733 -184.338,-36.634 z" />
      <path
         id="S63"
         fill="#a0b2b9"
         fill-rule="evenodd"
         stroke="none"
         d="m 1325.244,476.913 c 1.656,10.489 8.74,28.848 14.996,50.4 2.656,9.149 5.23,19.236 7.038,29.435 7.434,41.835 5.933,84.169 5.9,84.903 -0.1,1.5 1.666,6.133 15.934,-2.9 8.833,-5.601 14.467,-13.034 16.634,-16.734 1.066,-1.834 2.3,-13.134 0.933,-13.934 -1.333,-0.833 -61.735,-133.203 -61.435,-131.17 z" />
      <path
         id="S64"
         fill="#718590"
         fill-rule="evenodd"
         stroke="none"
         d="m 1389.579,605.883 c 0,-22.801 -12.634,-74.035 -17.3,-85.435 -0.425,-1.042 -0.842,-2.066 -1.212,-2.972 -13.337,-32.642 -19.987,-46.99 -23.156,-69.43 -1.933,-13.667 -8.2,-28.534 -18.367,-46.001 -2.933,-5.067 -8.767,-11.434 -14.334,-13.3 -5.6,-1.867 -26.734,-12.634 -32.134,-15.168 20.834,32.735 32.701,57.102 42.901,106.903 1.234,5.967 6.634,17.834 12.601,35.401 1.161,3.406 2.342,7.026 3.437,10.593 7.948,25.912 15.539,61.057 14.93,105.109 -0.067,6 32.634,-16.2 32.634,-25.7 z" />
      <path
         id="S67"
         fill="#a0b2b9"
         fill-rule="evenodd"
         stroke="none"
         d="m 1321.444,460.346 c -2.2,-13 -4.6,-30.834 -4.7,-35.368 -0.1,-4.533 0.2,-19.333 2.366,-19.7 2.167,-0.4 9.234,11.334 19.468,10.667 -7.967,-6.767 -19.467,-24.034 -29.934,-32.701 -2.767,-2.3 -31.968,-21.2 -40.868,-29.434 5.767,16.2 12.567,18.1 20.401,29.467 13.3,19.301 25.8,50.002 33.267,77.069 z" />
      <path
         id="S70"
         fill="#576970"
         fill-rule="evenodd"
         stroke="none"
         d="m 1384.979,549.315 c -5.901,-3.633 -15.701,-11.4 -22.334,-16.3 5.933,25 10.6,56.301 11.267,61.768 0.6,5.3 0.6,11.4 4.333,10.466 4.934,-1.266 12.734,-9.533 12.5,-12.866 -0.9,-13.301 -2.366,-27.834 -5.766,-43.068 z" />
      <path
         id="S71"
         fill="#a0b2b9"
         fill-rule="evenodd"
         stroke="none"
         d="m 1381.479,535.781 c -5.101,-17.033 -8.467,-14.967 -12.267,-13.5 -3.667,1.4 -8.768,1.533 -6.767,9.8 0.066,0.3 0.133,0.633 0.233,0.934 6.634,4.899 16.434,12.633 22.334,16.3 -1.033,-4.467 -2.2,-8.967 -3.533,-13.534 z" />
      <path
         id="S78"
         fill="#a52b31"
         fill-rule="evenodd"
         stroke="none"
         d="m 1342.311,450.32 c -4.9,1.733 -9.8,3.5 -14.667,5.233 -0.733,-3.033 -1.467,-6.033 -2.167,-9.033 4.9,-1.767 9.767,-3.5 14.668,-5.234 0.699,3 1.433,6 2.166,9.034 z" />
      <path
         id="S79"
         fill="#79899d"
         fill-rule="evenodd"
         stroke="none"
         d="m 1342.478,472.72 c -2,0.9 -4.034,1.834 -6.001,2.767 -1.233,-4.133 -2.433,-8.267 -3.633,-12.367 2,-0.933 4,-1.833 6,-2.766 1.2,4.1 2.433,8.233 3.634,12.366 z" />
      <path
         id="S80"
         fill="#6fb353"
         fill-rule="evenodd"
         stroke="none"
         d="m 1338.544,491.761 c 2,-1.3 3.967,-2.566 5.967,-3.866 1.567,4.033 3.167,8.1 4.767,12.134 -2,1.266 -4,2.566 -5.967,3.866 -1.6,-4.067 -3.2,-8.1 -4.767,-12.134 z" />
      <path
         id="S81"
         fill="#de912f"
         fill-rule="evenodd"
         stroke="none"
         d="m 1345.611,479.261 c 2.2,-0.4 3.467,-3.333 2.867,-6.7 -0.6,-3.367 -2.8,-5.7 -5,-5.333 -2.2,0.4 -3.467,3.333 -2.867,6.7 0.6,3.4 2.767,5.733 5,5.333 z" />
      <path
         id="S82"
         fill="#928475"
         fill-rule="evenodd"
         stroke="none"
         d="m 1355.345,504.914 c -3,2.333 -6.034,4.7 -9.034,7.033 -1.067,0.834 -2.5,0.3 -3.2,-1.166 -0.7,-1.5 -0.367,-3.367 0.7,-4.2 3,-2.367 6,-4.701 9.034,-7.034 1.066,-0.833 2.5,-0.3 3.2,1.167 0.7,1.466 0.4,3.366 -0.7,4.2 z" />
      <path
         id="S86"
         fill="#718590"
         fill-rule="evenodd"
         stroke="none"
         d="m 1378.345,600.383 c 1.3,-1.667 2.434,-3.467 3.501,-5.267 0.533,-0.9 1.066,-1.8 1.599,-2.733 0.267,-0.467 0.5,-0.934 0.734,-1.401 0.133,-0.233 0.233,-0.466 0.333,-0.699 0.133,-0.267 0.133,-0.367 0.167,-0.634 0.133,-2 -0.033,-4.167 -0.167,-6.233 -0.167,-2.101 -0.367,-4.2 -0.567,-6.3 -0.366,-4.201 -0.866,-8.401 -1.333,-12.634 -0.233,-2.1 -0.467,-4.2 -0.733,-6.3 -0.267,-2.1 -0.467,-4.2 -0.967,-6.267 1.3,4.067 1.833,8.3 2.5,12.467 0.633,4.2 1.133,8.4 1.567,12.634 0.2,2.1 0.366,4.233 0.5,6.333 0.066,1.067 0.1,2.133 0.133,3.2 0.034,1.067 0.033,2.133 -0.133,3.233 -0.034,0.234 -0.167,0.667 -0.267,0.867 -0.133,0.233 -0.266,0.467 -0.4,0.7 -0.266,0.467 -0.533,0.934 -0.8,1.367 -0.567,0.9 -1.133,1.8 -1.733,2.667 -1.2,1.7 -2.434,3.466 -3.934,5 z" />
      <path
         id="S88"
         fill="#718590"
         fill-rule="evenodd"
         stroke="none"
         d="m 1383.212,544.248 c 1,-0.233 1.333,-2.4 0.733,-5.033 -0.566,-2.6 -1.8,-4.467 -2.8,-4.234 -1,0.234 -1.333,2.4 -0.733,5.034 0.6,2.6 1.833,4.466 2.8,4.233 z" />
      <path
         id="S62"
         fill="#a0b2b9"
         fill-rule="evenodd"
         stroke="none"
         d="m 1098.038,601.955 c -3.366,4.733 -3.466,9.767 -3.766,11.733 -0.7,4.334 33.134,51.302 104.036,61.835 3.4,0.5 15.8,-14.434 24.067,-57.101 4.964,-25.637 8.54,-62.726 6.846,-99.418 -0.742,-16.103 -2.681,-32.735 -6.18,-47.786 -2.333,-10.033 -120.269,124.136 -125.003,130.737 z" />
      <path
         id="S65"
         fill="#718590"
         fill-rule="evenodd"
         stroke="none"
         d="m 1226.142,493.719 c -7.1,-79.336 -53.635,-113.07 -52.535,-130.07 -16.334,8.834 -48.368,25.867 -64.435,31.967 -15.167,5.767 -22.134,32.268 -21.601,48.568 0.467,13.901 7.334,32.334 15.201,43.768 7.98,11.592 10.525,24.005 10.024,36.607 -0.936,23.61 -11.536,48.756 -18.491,74.762 -3.3,12.301 48.068,59.969 108.869,62.135 7.98,0.3 26.464,-65.524 24.43,-142.455 -0.211,-7.983 -0.689,-16.605 -1.462,-25.282 z" />
      <path
         id="S66"
         fill="#a0b2b9"
         fill-rule="evenodd"
         stroke="none"
         d="m 1202.507,420.184 c 5.334,6.333 10.4,17.267 19.368,46.168 -2.167,-25.734 -18.767,-56.602 -19.834,-59.069 -2.9,-6.667 -27.567,-37.734 -19.3,-55.668 -3.434,0 -5.734,3.867 -9.401,7.434 -3.266,3.167 -11.5,8.033 -12.634,9.9 -6.166,10.333 13.601,45.668 15.034,65.768 12.667,-14.533 11.134,-23.7 14.401,-25.7 1.9,-1.2 7.033,4.833 12.366,11.167 z" />
      <path
         id="S68"
         fill="#576970"
         fill-rule="evenodd"
         stroke="none"
         d="m 1141.473,549.726 c -7.5,29.701 -21.801,58.202 -20.868,59.869 7.834,14.1 57.235,28.7 61.169,25.6 11.733,-9.2 21.167,-56.568 23.167,-79.735 -17.7,14.1 -34.067,21.3 -38.601,21.534 -1.933,0.133 -14.033,-5.467 -24.867,-27.268 z" />
      <path
         id="S69"
         fill="#a0b2b9"
         fill-rule="evenodd"
         stroke="none"
         d="m 1173.007,545.659 c -18.567,-1.266 -29.267,-5.433 -31.001,1.8 -0.167,0.767 -0.367,1.501 -0.567,2.267 10.833,21.801 22.934,27.401 24.868,27.301 4.5,-0.234 20.904,-7.428 38.601,-21.534 0.033,-0.266 0.033,-0.5 0.066,-0.766 1.162,-14.134 -4.5,-7.201 -31.967,-9.068 z" />
      <path
         id="S72"
         fill="#2a84a0"
         fill-rule="evenodd"
         stroke="none"
         d="m 1183.341,451.086 c 9.4,-1.799 18.767,-3.599 28.167,-5.4 0.266,1.467 0.566,2.9 0.833,4.367 -9.4,1.8 -18.8,3.601 -28.167,5.4 -0.3,-1.433 -0.567,-2.9 -0.833,-4.367 z" />
      <path
         id="S73"
         fill="#a0b2b9"
         fill-rule="evenodd"
         stroke="none"
         d="m 1170.107,517.692 c 7.233,0 12.833,-5.6 12.833,-12.833 0,-7.234 -5.6,-12.834 -12.833,-12.834 -7.234,0 -12.834,5.6 -12.834,12.834 -0.033,7.233 5.6,12.833 12.834,12.833 z" />
      <path
         id="S74"
         fill="#4070b7"
         fill-rule="evenodd"
         stroke="none"
         d="m 1181.474,495.354 c 5.233,6.267 4.367,15.634 -1.933,20.834 -6.267,5.2 -15.634,4.333 -20.834,-1.933 -5.201,-6.267 -4.334,-15.634 1.933,-20.834 6.267,-5.2 15.634,-4.333 20.834,1.933 m -19.734,16.367 c 3.8,4.634 10.667,5.267 15.3,1.434 4.6,-3.834 5.267,-10.701 1.434,-15.301 -3.834,-4.6 -10.701,-5.267 -15.301,-1.433 -4.6,3.833 -5.267,10.7 -1.433,15.3 z" />
      <path
         id="S75"
         fill="#6fb353"
         fill-rule="evenodd"
         stroke="none"
         d="m 1200.174,484.787 c 7.234,0 12.834,-5.6 12.834,-12.833 0,-7.234 -5.6,-12.834 -12.834,-12.834 -7.233,0 -12.833,5.6 -12.833,12.834 0,7.2 5.6,12.833 12.833,12.833 z" />
      <path
         id="S76"
         fill="#a52b31"
         fill-rule="evenodd"
         stroke="none"
         d="m 1201.308,506.554 c 5.2,0 9.233,-4.033 9.233,-9.233 0,-5.2 -4.033,-9.234 -9.233,-9.234 -5.2,0 -9.234,4.034 -9.234,9.234 0,5.2 4.034,9.233 9.234,9.233 z" />
      <path
         id="S77"
         fill="#de912f"
         fill-rule="evenodd"
         stroke="none"
         d="m 1187.474,515.759 c 2.667,3.2 5.333,6.433 8,9.667 -5.333,4.4 -10.633,8.833 -15.967,13.234 -2.667,-3.234 -5.334,-6.434 -8,-9.667 5.3,-4.401 10.633,-8.834 15.967,-13.234 z" />
      <path
         id="S83"
         fill="#718590"
         fill-rule="evenodd"
         stroke="none"
         d="m 1123.839,609.595 c 2.167,0.199 4.334,0.4 6.5,0.433 2.167,0.067 4.334,0.066 6.467,-0.167 0.533,-0.066 1.067,-0.133 1.533,-0.266 0.234,-0.067 0.467,-0.134 0.667,-0.234 0.1,-0.067 0.1,-0.067 0.167,-0.133 0.033,-0.1 0.1,-0.2 0.167,-0.3 0.466,-0.9 0.933,-1.934 1.366,-2.9 0.867,-1.967 1.733,-3.967 2.567,-5.967 1.733,-3.967 3.367,-8 5,-12.001 0.833,-2 1.633,-4.033 2.433,-6.033 0.8,-2 1.567,-4.034 2.267,-6.1 -0.967,4.233 -2.433,8.367 -3.9,12.467 -1.5,4.1 -3.133,8.1 -4.8,12.134 -0.867,2 -1.734,3.999 -2.667,5.966 -0.467,1 -0.899,1.967 -1.433,2.967 -0.1,0.133 -0.167,0.267 -0.267,0.4 -0.1,0.133 -0.333,0.3 -0.466,0.367 -0.3,0.133 -0.6,0.233 -0.867,0.266 -0.567,0.1 -1.134,0.167 -1.667,0.201 -4.467,0.233 -8.8,-0.234 -13.067,-1.1 z" />
      <path
         id="S84"
         fill="#718590"
         fill-rule="evenodd"
         stroke="none"
         d="m 1176.974,580.26 c -1.102,4.567 -2.434,9.034 -3.734,13.534 -1.333,4.467 -2.666,8.967 -4,13.434 -0.666,2.233 -1.333,4.467 -1.966,6.733 -0.3,1.134 -0.6,2.267 -0.834,3.367 -0.1,0.533 -0.3,1.2 -0.133,1.433 0.2,0.434 0.566,0.9 0.933,1.334 1.5,1.766 3.2,3.366 4.867,5 1.633,1.666 3.367,3.266 4.9,5.033 -3.433,-3.201 -7.1,-6.066 -10.367,-9.5 -0.4,-0.467 -0.8,-0.866 -1.133,-1.5 -0.033,-0.1 -0.067,-0.167 -0.1,-0.233 -0.033,-0.101 -0.034,-0.234 -0.034,-0.334 0,-0.2 0.034,-0.333 0.034,-0.5 0.033,-0.3 0.1,-0.6 0.167,-0.9 0.233,-1.166 0.533,-2.3 0.799,-3.433 0.6,-2.267 1.234,-4.534 1.9,-6.767 1.367,-4.467 2.767,-8.933 4.234,-13.4 0.733,-2.234 1.466,-4.434 2.233,-6.667 0.7,-2.234 1.466,-4.434 2.234,-6.634 z" />
      <path
         id="S85"
         fill="#718590"
         fill-rule="evenodd"
         stroke="none"
         d="m 1142.84,611.357 c 3.033,0.567 5.966,1.467 8.833,2.4 2.867,1 5.733,2.067 8.5,3.434 -3.033,-0.567 -5.933,-1.467 -8.833,-2.4 -2.9,-1 -5.767,-2.067 -8.5,-3.434 z" />
      <path
         id="S87"
         fill="#718590"
         fill-rule="evenodd"
         stroke="none"
         d="m 1167.106,571.894 c 2.667,0 4.734,-2.067 4.734,-4.734 0,-2.667 -2.067,-4.734 -4.734,-4.734 -2.666,0 -4.733,2.067 -4.733,4.734 0,2.667 2.1,4.733 4.733,4.734 z" />
      <path
         id="path1283"
         fill="#a0b2b9"
         fill-rule="evenodd"
         stroke="none"
         d="m 1141.473,383.985 c -1.433,3 -2.867,6 -4.3,9 -4.767,-4.2 -9.567,-8.4 -14.334,-12.6 -1.167,2.8 -2.333,5.567 -3.5,8.367 -4.7,-4.434 -9.367,-8.9 -14.067,-13.334 0.634,3.5 1.267,7 1.9,10.5 -1.767,-1.167 -3.533,-2.333 -5.3,-3.5 -0.5,3.767 -0.967,7.567 -1.433,11.367 -6.667,0 -13.334,0 -20.001,0 0.633,5.467 1.267,10.934 1.9,16.401 -6.933,3.1 -13.867,6.166 -20.8,9.266 3.233,1.267 6.466,2.501 9.733,3.801 -3.233,1.6 -6.5,3.233 -9.733,4.866 3.866,0.7 7.733,1.434 11.633,2.134 -2.066,5.233 -4.133,10.467 -6.2,15.7 1.9,1.533 3.767,3.067 5.667,4.634 -3.7,0.933 -7.4,1.866 -11.067,2.8 4.433,2.366 8.9,4.733 13.367,7.133 -1.934,6.7 -3.867,13.4 -5.8,20.101 6.133,0.433 12.3,0.833 18.467,1.266 0,5.5 0,11 0,16.501 2.233,-3.234 4.5,-6.467 6.766,-9.701 0.501,2.434 1.034,4.867 1.534,7.301 1.867,-1.334 3.767,-2.7 5.667,-4.034 2.866,6.001 5.767,12.034 8.667,18.067 1.066,-4.667 2.167,-9.367 3.233,-14.033 1.267,1.166 2.5,2.3 3.767,3.5 2.533,-1.167 5.1,-2.334 7.633,-3.5 2.034,4.666 4.1,9.333 6.134,14.033 3.066,-5.367 6.058,-11.284 9.2,-16.863 0.489,3.347 0.867,6.963 1.334,10.063 1.7,-3.467 3.433,-6.933 5.166,-10.367 2.7,1.034 5.434,2.067 8.167,3.1 -0.466,-2.633 -0.933,-5.3 -1.4,-7.933 7.133,-0.6 14.267,-1.233 21.401,-1.833 -3.167,-3.601 -6.334,-7.201 -9.501,-10.767 6.534,-2.134 13.067,-4.234 19.634,-6.334 -3.367,-2.233 -6.767,-4.433 -10.133,-6.667 2.066,-1.466 4.133,-2.9 6.2,-4.366 -0.9,-3.701 -1.834,-7.401 -2.734,-11.068 2.834,-2.833 5.667,-5.666 8.534,-8.466 -3.867,-2.734 -7.733,-5.467 -11.6,-8.167 0.466,-5.167 0.966,-10.367 1.466,-15.534 -4.633,-2.166 -9.266,-4.333 -13.867,-6.467 1.467,-4.866 2.934,-9.733 4.4,-14.567 -3.3,2.134 -6.6,4.234 -9.867,6.367 -0.666,-5.733 -1.3,-11.467 -1.966,-17.2 -3.8,3.5 -7.601,7.033 -11.367,10.567 -0.967,-3.167 -1.8,-6.367 -2.6,-9.534 z" />
    </g>
    <g
       id="head">
      <path
         id="S90"
         fill="#9b541f"
         fill-rule="evenodd"
         stroke="none"
         d="m 1173.307,310.283 c -4.533,0.467 -9.334,3.4 -0.767,6.634 0.233,6.833 1.8,10.3 6,15 -6,-0.9 -11.733,2.367 4.4,7.067 -8.6,2.133 -5.533,13.1 4.401,14.9 -5.534,0.9 -3.167,3.467 0.999,4.6 -6.667,0.433 -9.834,5.934 6.901,8.867 -12.2,0.667 -7.667,10.2 10.5,5.7 -5.067,4.701 1.567,8.968 11.067,4.7 -4.867,5.367 -3.633,12.334 5.434,1.134 0.566,3.933 3.966,6.166 6.433,6 -3.267,3.633 -4.634,10.267 4.733,1.833 -3.167,6.834 1.567,20.968 11.067,-0.1 0.1,6.734 7.334,18.168 6.667,-1 2.934,8.734 19.101,26.667 9.934,1.333 7.133,11 17.733,13.001 9.7,-0.233 3.5,0.334 5.867,-0.333 6.2,-4.267 1.7,5.267 5.2,8.401 5.633,0.801 3.5,4.267 12.201,3.133 6.434,-6.267 3.4,3.033 6.767,0.433 3.833,-3.467 2.134,0.333 2.367,-1.233 0.1,-3.033 10.067,2.366 19.434,-0.801 10.634,-7.834 5.867,-2.134 5.767,-7.4 0.667,-10.3 6.767,-3.267 7.9,-8.067 3.767,-13.901 4.133,-0.9 6.5,-7.3 -0.167,-5.7 0.4,-2.367 0.5,-9 -2.434,-9.3 0.3,-2.8 -0.233,-7 -3.2,-9.467 -9.933,-3.367 -49.001,20.167 -102.402,-18.6 -13.534,-9.801 -36.402,-6.2 -27.234,9.4 -1.8,1.333 -2.633,2.8 0.7,5.5 z" />
      <path
         id="S99"
         fill="#ffb888"
         fill-rule="evenodd"
         stroke="none"
         d="m 1187.841,348.084 c 13.167,17.267 40.901,36.134 86.002,24.967 31.001,-7.7 31.801,-50.834 26.301,-68.968 -8.167,-26.901 -10.768,-20.534 -12.768,-40.135 -2.2,-21.833 7.967,-61.567 -23.8,-81.101 -36.868,-22.567 -83.502,-5.4 -94.636,20.667 -18.367,42.867 4.333,44.501 7.5,86.768 -1.633,29.368 6.634,52.635 11.401,57.802 z" />
      <path
         id="S100"
         fill="#9b541f"
         fill-rule="evenodd"
         stroke="none"
         d="m 1278.51,292.582 c -8.967,1.934 -17.634,0 -23.901,0.667 -7.367,0.767 -15.034,1.634 -31.234,4.334 -9.2,1.533 -25.301,1.1 -33.301,-9.8 -4.333,-5.934 -5.2,-8.334 -6.7,-14.801 -0.567,-2.633 -4.767,-11.934 -13.134,-11.234 2.7,7.401 4.834,16.234 5.634,28.434 -1.867,29.401 6.2,52.835 10.933,57.969 13.2,17.467 41.601,36.767 87.136,25.534 31.3,-7.734 32.5,-51.635 26.767,-69.902 -4.367,-13.901 -9.5,-23.101 -9.5,-23.101 0.033,7.067 -6,10.5 -12.7,11.9 z" />
      <g
         id="right_eye">
        <g
           id="eye">
          <clipPath
             id="d2192e2f-2423-4acc-b88c-7589814f8b4b">
            <path
               fill="#ffffff"
               fill-rule="evenodd"
               stroke="none"
               d="m 1270.914,243.041 c -7.158,0 -12.202,7.157 -12.202,15.027 0,7.87 5.044,15.027 12.202,15.027 7.158,0 12.202,-7.157 12.202,-15.027 0.028,-7.87 -5.016,-15.027 -12.202,-15.027 z"
               id="path1289" />
          </clipPath>
          <path
             fill="#ffffff"
             fill-rule="evenodd"
             stroke="#000000"
             stroke-width="0"
             stroke-linecap="round"
             stroke-linejoin="round"
             d="m 1270.914,243.041 c -7.158,0 -12.202,7.157 -12.202,15.027 0,7.87 5.044,15.027 12.202,15.027 7.158,0 12.202,-7.157 12.202,-15.027 0.028,-7.87 -5.016,-15.027 -12.202,-15.027 z"
             id="path1292" />
          <path
             fill="#6d3409"
             fill-rule="evenodd"
             stroke="none"
             d="m 1270.378,255.514 c 1.663,0 2.987,1.396 2.987,3.148 0,1.752 -1.324,3.148 -2.987,3.148 -1.663,0 -2.987,-1.396 -2.987,-3.148 0,-1.752 1.324,-3.148 2.987,-3.148 z"
             clip-path="url(#d2192e2f-2423-4acc-b88c-7589814f8b4b)"
             id="path1294" />
          <path
             fill="#ffb888"
             fill-rule="evenodd"
             stroke="none"
             d="m 1253.291,231.994 c 0,0 29.549,0.26 29.552,0.26 0,0.001 0,9.642 0,9.643 0,0 -29.549,-0.26 -29.552,-0.26 0,0 0,-9.642 0,-9.643 z"
             clip-path="url(#d2192e2f-2423-4acc-b88c-7589814f8b4b)"
             id="path1296" />
          <path
             fill="#ffb888"
             fill-rule="evenodd"
             stroke="none"
             d="m 1282.305,284.515 c 0,0 -29.012,-0.264 -29.014,-0.264 0,-10e-4 0,-9.643 0,-9.644 0,0 27.486,-0.137 27.488,-0.137 10e-4,10e-4 1.526,10.044 1.526,10.045 z"
             clip-path="url(#d2192e2f-2423-4acc-b88c-7589814f8b4b)"
             id="path1298" />
        </g>
      </g>
      <g
         id="g1309">
        <g
           id="mouth">
          <path
             fill="#ffffff"
             fill-rule="evenodd"
             stroke="none"
             d="m 1249.168,311.021 c -7.974,0.183 -15.951,-0.467 -22.159,-2.095 -0.074,0 -0.147,0 -0.111,0.11 1.688,1.216 3.601,2.646 5.439,4.337 1.543,1.396 3.013,3.674 4.741,4.556 2.021,1.029 5.034,1.654 7.938,2.059 0.169,0.022 0.353,0.047 0.55,0.073 4.52,0.551 9.739,0.258 13.708,0.514 -3.749,0.258 -8.012,0.589 -12.091,0.515 -2.315,-0.037 -4.556,-0.221 -6.577,-0.625 2.866,2.499 7.203,4.777 11.98,6.174 0.01,0.01 0.035,0.023 0.073,0.037 4.888,1.434 11.208,1.065 16.133,-0.405 -0.258,-2.094 -0.074,-4.704 0.036,-6.835 -0.808,-0.037 -1.984,0.551 -2.572,0 1.691,-0.368 2.977,-1.139 4.19,-1.947 0.257,-2.389 0.919,-4.888 1.212,-7.13 0.037,-0.33 0.074,-0.661 0.111,-0.992 -6.431,2.022 -14.626,1.47 -22.601,1.654 z"
             id="path1302" />
          <path
             fill="#6d3409"
             fill-rule="evenodd"
             stroke="none"
             d="m 1281.102,307.603 c -0.147,-2.205 -1.506,-3.16 -2.388,-4.557 0,1.066 0.661,2.022 0.551,2.794 -6.284,2.057 -13.744,2.939 -21.718,3.27 -1.213,0.037 -2.389,-0.074 -3.602,0 -11.796,0.478 -23.372,-0.513 -33.441,-2.242 0.772,-0.294 1.47,-0.624 2.095,-1.028 -1.36,0.036 -2.683,0.33 -3.712,0.808 -0.956,0.441 -2.315,0.919 -2.462,2.205 1.213,-0.258 1.984,-1.029 3.123,-1.397 7.24,2.462 11.87,8.195 17.713,12.862 5.292,4.226 12.495,9.151 21.572,9.151 4.961,0 10.4,-1.507 13.707,-3.307 0.441,-0.221 1.323,-0.589 1.066,-0.919 -0.919,0.11 -1.47,0.624 -2.573,0.551 -0.808,-1.728 0.221,-3.749 0.845,-5.329 2.021,-5.108 5.256,-9.48 8.415,-13.082 0.221,0.11 0.478,0.551 0.809,0.22 m -9.591,2.793 c -0.221,2.205 -0.845,4.704 -1.139,7.129 -1.213,0.809 -2.499,1.581 -4.19,1.948 0.552,0.588 1.764,-0.036 2.573,0 -0.111,2.132 -0.294,4.741 -0.037,6.836 -4.961,1.47 -11.282,1.837 -16.133,0.404 -4.851,-1.47 -9.187,-3.712 -12.053,-6.211 2.058,0.404 4.299,0.588 6.578,0.625 4.079,0.073 8.342,-0.257 12.09,-0.515 -3.969,-0.257 -9.187,0.037 -13.707,-0.514 -3.418,-0.478 -6.468,-1.103 -8.489,-2.132 -1.727,-0.882 -3.197,-3.123 -4.741,-4.557 -1.837,-1.69 -3.748,-3.087 -5.439,-4.336 6.358,1.506 14.296,2.168 22.27,1.984 7.975,-0.183 16.17,0.368 22.527,-1.653 -0.037,0.331 -0.073,0.661 -0.11,0.992 m -44.687,-1.323 c -0.036,-0.11 0.037,-0.11 0.111,-0.11 m 18.558,11.135 c -0.198,-0.027 -0.382,-0.051 -0.551,-0.074 m 7.643,6.689 c -0.038,-0.015 -0.063,-0.027 -0.073,-0.037 z"
             id="path1304" />
          <path
             fill="#6d3409"
             fill-rule="evenodd"
             stroke="none"
             d="m 1270.188,333.438 c -2.168,4.556 -12.825,2.866 -17.786,1.874 6.431,0.551 13.413,0.33 17.786,-1.874 z"
             id="path1306" />
        </g>
      </g>
      <path
         fill="#6d3409"
         fill-rule="evenodd"
         stroke="none"
         d="m 1250.813,286.281 c -1.464,0.732 -3.26,0.865 -5.156,1.497 -1.396,0.433 -3.957,1.197 -4.223,2.395 -0.466,1.995 1.696,3.858 3.259,3.825 1.596,0.066 3.658,-0.765 5.454,-1.331 1.996,-0.532 3.858,-0.998 5.355,-1.33 -2.661,0.964 -6.385,3.226 -9.778,4.091 -3.559,0.865 -7.65,-3.792 -5.322,-6.851 1.83,-2.096 6.918,-2.096 10.411,-2.296 z"
         id="path1311" />
      <path
         fill="#6d3409"
         fill-rule="evenodd"
         stroke="none"
         d="m 1258.329,297.157 c 1.464,-1.43 3.226,-2.561 5.089,-3.691 1.862,-1.131 5.022,-2.295 5.255,-4.79 0.233,-2.394 -1.031,-5.355 -2.329,-6.718 -0.831,-0.865 -1.929,-1.364 -2.826,-1.929 -6.087,-4.257 -10.078,-13.304 -10.876,-22.749 -0.532,-5.255 0.799,-7.982 2.727,-11.707 -0.731,2.893 -1.696,4.622 -1.829,7.516 -0.233,3.293 0.632,6.352 1.297,9.246 1.53,6.552 4.889,12.938 9.545,16.297 0.898,0.665 2.129,1.231 3.027,2.029 1.929,1.762 4.224,6.785 2.627,10.011 -0.864,1.796 -3.525,2.76 -5.388,3.691 -2.294,0.932 -4.257,1.963 -6.319,2.794 z"
         id="path1313" />
      <g
         id="left_eye">
        <g
           id="eye_2">
          <clipPath
             id="55aab9c4-054b-4a85-92fe-a79b0cbcba68">
            <path
               fill="#ffffff"
               fill-rule="evenodd"
               stroke="none"
               d="m 1225.385,243.933 c -8.619,0 -15.646,7.245 -15.646,16.208 0,8.963 7.027,16.209 15.646,16.209 8.62,0 15.646,-7.246 15.646,-16.209 0,-8.963 -7.026,-16.208 -15.646,-16.208 z"
               id="path1315" />
          </clipPath>
          <path
             fill="#ffffff"
             fill-rule="evenodd"
             stroke="#000000"
             stroke-width="0"
             stroke-linecap="round"
             stroke-linejoin="round"
             d="m 1225.385,243.933 c -8.619,0 -15.646,7.245 -15.646,16.208 0,8.963 7.027,16.209 15.646,16.209 8.62,0 15.646,-7.246 15.646,-16.209 0,-8.963 -7.026,-16.208 -15.646,-16.208 z"
             id="path1318" />
          <path
             fill="#6d3409"
             fill-rule="evenodd"
             stroke="none"
             d="m 1225.104,258.143 c 1.843,0 3.311,1.467 3.311,3.31 0,1.843 -1.468,3.31 -3.311,3.31 -1.843,0 -3.31,-1.467 -3.31,-3.31 0,-1.811 1.467,-3.31 3.31,-3.31 z"
             clip-path="url(#55aab9c4-054b-4a85-92fe-a79b0cbcba68)"
             id="path1320" />
          <path
             fill="#ffb888"
             fill-rule="evenodd"
             stroke="none"
             d="m 1204.636,232.251 c 0.01,0 43.01,0 43.014,0 0,0.001 0,10.14 0,10.141 0,0 -43.009,0 -43.014,0 0,-0.001 0,-10.14 0,-10.141 z"
             clip-path="url(#55aab9c4-054b-4a85-92fe-a79b0cbcba68)"
             id="path1322" />
          <path
             fill="#ffb888"
             fill-rule="evenodd"
             stroke="none"
             d="m 1247.65,287.205 c 0,0 -43.009,0 -43.014,0 0,-10e-4 0,-10.14 0,-10.141 0.01,0 43.01,0 43.014,0 0,10e-4 0,10.14 0,10.141 z"
             clip-path="url(#55aab9c4-054b-4a85-92fe-a79b0cbcba68)"
             id="path1324" />
        </g>
      </g>
      <path
         fill="#6d3409"
         fill-rule="evenodd"
         stroke="none"
         d="m 1202.812,238.783 c -0.23,-0.327 3.659,-3.724 5.435,-5.072 1.985,-1.506 4.802,-3.345 7.1,-4.306 2.392,-1 5.804,-1.823 8.382,-2.101 2.446,-0.265 5.751,-0.019 8.199,0.239 1.2,0.127 7.949,1.764 7.816,2.398 -0.128,0.606 -6.718,0.116 -7.868,0.155 -2.323,0.079 -5.423,0.268 -7.724,0.599 -2.334,0.337 -5.444,0.911 -7.689,1.633 -2.203,0.709 -4.974,1.926 -7.064,3.096 -2.026,1.134 -6.357,3.684 -6.587,3.359 z"
         id="path1328" />
      <path
         fill="#6d3409"
         fill-rule="evenodd"
         stroke="none"
         d="m 1285.596,232.79 c 0.143,-0.237 -2.716,-2.385 -4.024,-3.203 -1.365,-0.853 -3.314,-1.806 -4.845,-2.306 -1.718,-0.56 -4.118,-1.007 -5.923,-1.099 -1.742,-0.089 -4.081,0.144 -5.795,0.467 -0.78,0.147 -7.418,2.184 -7.137,2.911 0.182,0.472 6.618,-0.557 7.431,-0.624 1.564,-0.129 3.663,-0.117 5.23,-0.034 1.647,0.087 3.845,0.298 5.464,0.618 1.512,0.3 3.471,0.789 4.944,1.407 1.452,0.608 4.515,2.094 4.655,1.863 z"
         id="path1330" />
      <g
         id="glasses">
        <path
           fill="#000102"
           fill-rule="evenodd"
           stroke="none"
           d="m 1298.981,256.487 c 0.19,-0.436 0.219,-1.655 -0.344,-2.186 -0.031,0 -0.062,0.001 -0.093,0 -3.278,0.806 -9.112,1.728 -13.72,2.982 -0.01,0.594 0.058,1.5 0.031,2.28 4.634,-1.08 10.685,-2.188 14.126,-3.076 z"
           id="path1332" />
        <path
           fill="#ffc488"
           fill-rule="evenodd"
           fill-opacity="0.627451"
           stroke="none"
           d="m 1236.364,241.528 c -9.181,13.46 -16.615,24.827 -32.667,43.191 2.249,2.624 5.06,4.591 8.526,5.621 14.397,-16.302 24.766,-30.949 32.73,-44.44 -1.937,-2.249 -4.779,-3.654 -8.589,-4.372 z"
           id="path1334" />
        <path
           fill="#ffa433"
           fill-rule="evenodd"
           fill-opacity="0.627451"
           stroke="none"
           d="m 1244.953,245.9 c -7.995,13.522 -18.332,28.17 -32.73,44.44 3.342,1 7.246,1.125 11.774,0.126 10.9,-2.436 24.703,-19.27 24.297,-34.01 -0.187,-4.622 -1.217,-8.089 -3.341,-10.556 z"
           id="path1336" />
        <path
           fill="#ffa433"
           fill-rule="evenodd"
           fill-opacity="0.627451"
           stroke="none"
           d="m 1221.561,241.34 c -19.894,1.843 -25.234,11.555 -24.141,26.14 0.5,6.746 2.561,12.898 6.277,17.239 16.053,-18.394 23.485,-29.731 32.667,-43.191 -3.872,-0.719 -8.775,-0.75 -14.803,-0.188 z"
           id="path1338" />
        <path
           fill="#ffa433"
           fill-rule="evenodd"
           fill-opacity="0.627451"
           stroke="none"
           d="m 1297.981,251.271 c -0.78,-3.029 -1.967,-5.465 -3.591,-7.37 -4.935,11.336 -11.211,23.548 -19.675,36.977 4.872,3.404 10.15,5.247 14.772,4.278 8.807,-1.78 11.929,-20.674 8.494,-33.885 z"
           id="path1340" />
        <path
           fill="#ffa433"
           fill-rule="evenodd"
           fill-opacity="0.627451"
           stroke="none"
           d="m 1270.311,238.686 c -14.646,1.998 -15.302,11.711 -10.649,23.266 1.686,4.185 4.278,8.307 7.401,11.93 8.12,-13.085 12.992,-22.985 19.332,-34.915 -4.247,-1.124 -9.556,-1.156 -16.084,-0.281 z"
           id="path1342" />
        <path
           fill="#ffc488"
           fill-rule="evenodd"
           fill-opacity="0.627451"
           stroke="none"
           d="m 1286.395,238.966 c -6.34,11.931 -11.212,21.83 -19.332,34.916 2.312,2.686 4.935,5.091 7.652,6.996 8.463,-13.43 14.741,-25.64 19.675,-36.977 -1.999,-2.436 -4.653,-4.029 -7.995,-4.935 z"
           id="path1344" />
        <path
           fill="#000102"
           fill-rule="evenodd"
           stroke="none"
           d="m 1248.794,256.456 c 0.406,14.865 -13.585,32.073 -24.703,34.54 -2.155,0.469 -4.185,0.719 -6.153,0.719 -4.372,0 -8.245,-1.218 -11.492,-3.623 -5.497,-4.06 -8.87,-11.368 -9.588,-20.55 -1.249,-16.77 6.34,-25.015 24.64,-26.733 11.681,-1.093 18.707,0.032 22.799,3.654 2.873,2.561 4.341,6.465 4.497,11.993 m -1.124,0.031 c -0.126,-5.278 -1.437,-8.838 -4.123,-11.212 -2.873,-2.561 -7.433,-3.778 -14.303,-3.778 -2.28,0 -4.81,0.124 -7.652,0.406 -17.551,1.624 -24.828,9.525 -23.641,25.546 0.656,8.869 3.903,15.865 9.119,19.769 4.435,3.279 10.056,4.216 16.74,2.716 10.743,-2.404 24.234,-19.05 23.86,-33.447 z"
           id="path1346" />
        <path
           fill="#000102"
           fill-rule="evenodd"
           stroke="none"
           d="m 1295.702,280.878 c -1.655,2.748 -3.717,4.341 -6.09,4.84 -0.874,0.188 -1.749,0.25 -2.654,0.25 -10.619,10e-4 -23.018,-11.836 -27.796,-23.797 -3.091,-7.683 -3.435,-13.429 -1.061,-17.521 2.03,-3.497 6.121,-5.683 12.148,-6.527 16.833,-2.311 25.297,1.593 28.264,12.992 2.654,10.181 1.436,22.954 -2.811,29.763 m -0.906,-0.594 c 4.029,-6.433 5.184,-19.112 2.655,-28.887 -2.28,-8.745 -8.058,-12.805 -18.863,-12.805 -2.468,0 -5.185,0.219 -8.182,0.625 -5.653,0.78 -9.463,2.779 -11.337,5.965 -2.155,3.716 -1.78,9.275 1.124,16.552 4.56,11.399 16.771,23.079 26.827,23.079 0.812,0 1.593,-0.063 2.374,-0.219 2.061,-0.406 3.872,-1.874 5.402,-4.31 z"
           id="path1348" />
        <path
           fill="#000102"
           fill-rule="evenodd"
           stroke="none"
           d="m 1247.951,253.551 c -0.188,0 -0.344,-0.094 -0.469,-0.219 -0.187,-0.249 -0.124,-0.593 0.125,-0.78 3.279,-2.311 7.527,-2.592 9.9,-0.625 0.25,0.188 0.281,0.531 0.062,0.781 -0.187,0.219 -0.531,0.281 -0.78,0.062 -1.937,-1.624 -5.716,-1.311 -8.558,0.688 -0.062,0.062 -0.187,0.093 -0.28,0.093 z"
           id="path1350" />
        <path
           fill="#000102"
           fill-rule="evenodd"
           stroke="none"
           d="m 1197.42,260.891 c -1.593,0.343 -3.592,0.718 -5.809,1.155 -21.798,4.279 -33.915,7.245 -35.446,10.618 -0.25,0.562 0,1.218 0.562,1.468 0.156,0.062 0.312,0.094 0.468,0.094 0.406,0 0.812,-0.25 1,-0.656 1.375,-2.998 24.141,-7.464 33.853,-9.369 2.03,-0.406 3.779,-0.75 5.247,-1.031 0.375,-0.624 0.469,-1.811 0.125,-2.279 z"
           id="path1352" />
        <path
           fill="#000102"
           fill-rule="evenodd"
           stroke="none"
           d="m 1230.493,241.497 c -0.312,0 -0.594,0 -0.875,0 -0.312,0 -0.562,-0.251 -0.562,-0.563 0,-0.312 0.25,-0.562 0.562,-0.562 7.589,0.063 33.042,-0.81 45.753,-2.779 0.312,-0.063 0.593,0.156 0.624,0.468 0.032,0.312 -0.156,0.593 -0.468,0.625 -12.304,1.938 -36.508,2.811 -45.034,2.811 z"
           id="path1354" />
      </g>
      <path
         id="S108"
         fill="#763b0f"
         fill-rule="evenodd"
         stroke="none"
         d="m 1222.471,191.114 c -6.4,6.166 -25.701,15.633 -31.768,17.366 3.234,1 8,4.767 8.367,7.768 -2.733,-2.801 -7,-6.534 -14.267,-6.967 8.567,3.8 12.833,11.367 12.833,22.033 0,10.667 -4.799,16.634 -8.799,19.868 5.333,-7.567 10.93,-23.932 -0.6,-37.535 4.73,12.002 3.633,23.568 -0.268,31.668 -3.9,8.1 -5.133,16.067 -4.833,22.467 0.267,6.4 1.134,14.501 2.334,17.767 1.2,3.267 1.1,3.834 -10.601,-5.667 -11.733,-9.5 -13.5,-3.367 -20.567,-9.3 -7.067,-5.967 -20.4,-26.801 -15,-44.501 -7.734,6.134 -13.034,10.7 -15.734,18.634 -4.566,-13.401 -3.9,-37.634 25.134,-52.501 -12.767,-1.5 -23.467,1.966 -31.301,9.6 1.967,-8.367 13.867,-14.7 31.768,-15.834 -13.234,-2.5 -20.568,-12.2 -19.001,-23.734 4.2,10.067 9.867,19.001 28.601,21.034 -11.167,-6.9 -19.3,-36.934 9.634,-53.068 -10.934,17.767 -13.301,37.234 2.866,48.534 2.1,-25.934 49.168,-84.101 112.67,-56.934 -16.934,-2.967 -25.901,-4.167 -40.668,0.067 18.367,-0.234 68.535,2.899 48.168,69.768 13.167,-8.434 28.234,-0.367 32.901,10.6 -12.667,-7.067 -19.567,-4.467 -28.134,-0.2 11.733,0.567 17.867,4.1 21.234,12.1 -6.534,-6.333 -10.801,-8.366 -21.034,-5.2 8.766,2.6 23.832,15.633 8.2,47.302 -0.201,-12.101 -0.733,-20.301 -6.9,-27.735 0.933,14.167 -1.701,21.401 -10.901,30.735 0.1,-18.634 -0.366,-32.301 -0.933,-38.535 -0.567,-6.233 -2.033,-10.233 -2.967,-11.933 -2.133,6.066 -8.833,19.567 -22.167,29.8 9.7,-10.8 16.001,-20.4 19.167,-38.367 -7.833,12.833 -26.167,31.667 -49.901,38.067 17.134,-8.667 35.934,-23.834 43.101,-41.534 -13.3,15.167 -29.901,25.501 -67.502,20.767 10.467,-6.333 17.101,-17.033 16.868,-26.4 z" />
      <path
         id="S109"
         fill="#ffffff"
         fill-rule="evenodd"
         fill-opacity="0.2"
         stroke="none"
         d="m 1167.307,220.314 c 1.1,-1.233 2.1,-2.5 2.9,-3.767 0.8,-1.266 1.433,-2.533 1.833,-3.766 0.4,-1.234 0.533,-2.4 0.5,-3.433 -0.033,-1.034 -0.233,-1.901 -0.433,-2.568 -0.467,-1.366 -0.933,-2 -1,-1.966 -0.1,0.033 0.2,0.767 0.5,2.1 0.133,0.667 0.233,1.5 0.2,2.434 -0.033,0.933 -0.233,2.033 -0.633,3.132 -0.8,2.267 -2.534,4.634 -4.734,7.001 -2.2,2.367 -4.9,4.767 -7.7,7.333 -2.8,2.567 -5.434,5.1 -7.567,7.667 -2.133,2.567 -3.733,5.167 -4.667,7.534 -0.933,2.366 -1.167,4.466 -1.167,5.866 10e-4,1.434 0.201,2.167 0.268,2.167 0.1,0 0.099,-0.766 0.232,-2.133 0.167,-1.367 0.534,-3.3 1.534,-5.534 0.966,-2.233 2.6,-4.666 4.733,-7.1 2.134,-2.466 4.734,-4.933 7.534,-7.467 2.767,-2.566 5.467,-5 7.667,-7.5 z" />
      <path
         id="S110"
         fill="#ffffff"
         fill-rule="evenodd"
         fill-opacity="0.2"
         stroke="none"
         d="m 1174.907,228.514 c 0.033,-0.1 0.1,-0.166 0.133,-0.266 0,0 0,0 0,0 0,0 0,0 0,0 0,0 0,0 0,0.033 0,0 0,0 0,0 0.034,0.133 0.034,0.267 0.067,0.4 0.1,0.467 0.166,0.9 0.233,1.334 0.033,0.233 0.067,0.433 0.101,0.666 0.033,0.267 0.066,0.8 0.066,1.3 0,0.133 0,0.267 0,0.433 0,0.167 0,0.301 -0.033,0.467 -0.034,0.167 -0.034,0.367 -0.067,0.534 -0.034,0.2 -0.067,0.399 -0.067,0.633 -0.1,0.9 -0.2,1.8 -0.3,2.7 0.4,-0.733 0.8,-1.434 1.2,-2.133 0.2,-0.367 0.401,-0.767 0.634,-1.134 0.2,-0.4 0.433,-0.8 0.633,-1.2 0.1,-0.2 0.2,-0.433 0.3,-0.633 0.066,-0.167 0.167,-0.367 0.233,-0.533 0.1,-0.234 0.2,-0.434 0.3,-0.667 0.201,-0.434 0.367,-0.9 0.534,-1.334 0.666,-1.766 1.133,-3.533 1.466,-5.233 0.667,-3.4 0.667,-6.567 0.134,-9.134 -0.534,-2.566 -1.6,-4.466 -2.534,-5.6 -0.9,-1.133 -1.6,-1.566 -1.633,-1.533 -0.067,0.067 0.466,0.633 1.233,1.833 0.733,1.167 1.634,3 2.034,5.467 0.4,2.467 0.299,5.467 -0.401,8.734 -0.366,1.633 -0.866,3.3 -1.499,5 -0.167,0.433 -0.334,0.833 -0.5,1.267 -0.1,0.2 -0.2,0.433 -0.267,0.633 -0.033,0.033 -0.033,0.067 -0.067,0.133 0,0 0,0 0,0 0,0 0,0 0,0 0,0 0,0 0,0 0,0 0,0 0,0 0,0 0,0.067 -0.033,-0.133 -0.034,-0.233 -0.067,-0.467 -0.1,-0.733 -0.067,-0.467 -0.167,-0.934 -0.267,-1.401 -0.066,-0.333 -0.133,-0.633 -0.167,-0.933 -0.066,-0.467 -0.133,-0.9 -0.199,-1.433 -0.1,-1.067 -0.168,-2.134 -0.267,-3.2 -0.367,0.967 -0.734,1.933 -1.067,2.9 -0.1,0.233 -0.167,0.466 -0.266,0.666 -0.101,0.2 -0.2,0.401 -0.267,0.601 -0.1,0.166 -0.167,0.333 -0.267,0.533 -0.034,0.066 -0.067,0.133 -0.1,0.2 -0.033,0.033 -0.067,0.1 -0.067,0.133 -0.4,0.7 -0.799,1.4 -1.266,2.034 -0.9,1.3 -1.867,2.466 -2.834,3.566 -1.9,2.2 -3.7,4.134 -4.966,5.967 -1.301,1.8 -2.034,3.467 -2.334,4.633 -0.3,1.201 -0.267,1.867 -0.2,1.867 0.1,0 0.2,-0.633 0.633,-1.733 0.434,-1.1 1.234,-2.6 2.6,-4.267 1.334,-1.7 3.167,-3.533 5.134,-5.7 1,-1.1 2.033,-2.267 3,-3.633 0.5,-0.634 0.966,-1.334 1.367,-2.101 z" />
      <path
         id="S111"
         fill="#ffffff"
         fill-rule="evenodd"
         fill-opacity="0.2"
         stroke="none"
         d="m 1146.773,206.78 c 0.466,-0.266 0.966,-0.5 1.467,-0.766 0.566,-0.3 1.133,-0.6 1.699,-0.867 -0.866,0 -1.733,-0.033 -2.566,-0.033 -0.2,0 -0.4,0 -0.6,0 -0.2,-0.033 -0.367,-0.034 -0.533,-0.034 -0.167,-0.033 -0.334,-0.033 -0.5,-0.066 -0.167,-0.033 -0.334,-0.033 -0.467,-0.067 -0.2,-0.033 -0.367,-0.033 -0.534,-0.066 -0.066,0 -0.099,0 -0.133,-0.034 0,0 0,0 0,0 0,0 0,0 0,0 0,0 0,0 0,0 0,0 0,0 0,0 0,0 0,0 0,0 0,0 0,-0.033 0.034,-0.033 0.066,-0.067 0.166,-0.133 0.233,-0.2 0.167,-0.133 0.333,-0.267 0.5,-0.4 0.667,-0.534 1.333,-1.034 2,-1.467 1.367,-0.9 2.767,-1.6 4.133,-2.167 2.734,-1.1 5.434,-1.466 7.567,-1.2 2.167,0.234 3.767,1.067 4.8,1.767 1,0.7 1.5,1.167 1.567,1.1 0.067,-0.033 -0.3,-0.633 -1.267,-1.5 -0.5,-0.4 -1.133,-0.867 -1.966,-1.3 -0.834,-0.4 -1.834,-0.767 -3.001,-0.966 -2.3,-0.4 -5.2,-0.101 -8.1,0.966 -1.466,0.533 -2.933,1.266 -4.4,2.166 -0.733,0.467 -1.433,0.968 -2.133,1.534 -0.167,0.134 -0.333,0.267 -0.533,0.434 -0.1,0.066 -0.167,0.133 -0.267,0.233 -0.167,0.133 -0.3,0.266 -0.467,0.4 -0.333,0.3 -0.6,0.6 -0.9,0.9 -0.3,0.3 -0.6,0.6 -0.867,0.9 0.7,0.033 1.534,0 2.2,0.067 0.167,-10e-4 0.334,0.033 0.5,0.033 0.1,0 0.234,0.033 0.367,0.033 0.167,0 0.3,0.034 0.467,0.067 0,0 0,0 0.033,0 0,0 0,0 0,0 0,0 0,0 0,0 0,0 0,0 0,0 0,0 0,0 0,0 0,0 0,0 0,0 0,0 0,0 0,0 -0.067,0.033 -0.1,0.033 -0.133,0.067 -0.433,0.267 -0.9,0.533 -1.334,0.833 -0.866,0.566 -1.699,1.167 -2.499,1.767 -1.6,1.233 -3.034,2.5 -4.301,3.833 -2.567,2.633 -4.5,5.367 -5.833,7.8 -1.333,2.434 -2.034,4.6 -2.4,6.1 -0.334,1.5 -0.367,2.367 -0.267,2.4 0.1,0.034 0.3,-0.8 0.767,-2.233 0.5,-1.433 1.3,-3.467 2.7,-5.767 1.4,-2.3 3.333,-4.9 5.867,-7.4 1.266,-1.267 2.667,-2.5 4.233,-3.667 0.767,-0.6 1.567,-1.166 2.434,-1.7 0.433,-0.266 0.833,-0.533 1.267,-0.8 0.166,-0.1 0.366,-0.2 0.533,-0.3 0.166,-0.1 0.4,-0.233 0.633,-0.367 z" />
      <path
         id="S112"
         fill="#ffffff"
         fill-rule="evenodd"
         fill-opacity="0.2"
         stroke="none"
         d="m 1182.103,195.514 c -0.7,-0.6 -1.667,-1.267 -2.933,-1.734 -0.634,-0.233 -1.334,-0.433 -2.067,-0.533 -0.367,-0.067 -0.767,-0.1 -1.167,-0.1 -0.1,0 -0.2,0 -0.3,0 -0.067,0 -0.1,0 -0.167,0 -0.033,0 -0.099,0 -0.133,0 0,0 0,0 0,0 0,-0.033 0.033,-0.067 0.033,-0.1 0,-0.033 0,-0.033 0.034,-0.067 0,-0.033 0,-0.033 0,-0.033 0,-0.033 0.033,-0.067 0.033,-0.133 0.1,-0.334 0.2,-0.634 0.3,-0.967 0.201,-0.667 0.367,-1.333 0.567,-2 0.199,-0.667 0.4,-1.367 0.666,-2.067 0.067,-0.166 0.134,-0.333 0.201,-0.5 0.033,-0.1 0.066,-0.167 0.1,-0.233 0.066,-0.134 0.1,-0.234 0.166,-0.367 0.1,-0.166 0.167,-0.333 0.267,-0.5 0.1,-0.167 0.233,-0.367 0.333,-0.534 0.234,-0.366 0.5,-0.766 0.767,-1.133 -0.1,0.034 -0.167,0.034 -0.233,0.067 -0.634,0.2 -1.167,0.334 -1.8,0.567 -0.167,0.067 -0.334,0.133 -0.467,0.2 -0.1,0.033 -0.167,0.066 -0.233,0.1 -0.034,0 -0.101,0.033 -0.134,0.066 -0.033,0 -0.066,0.034 -0.066,0.034 -0.167,0.066 -0.334,0.166 -0.534,0.267 -0.666,0.4 -1.333,0.9 -1.867,1.466 -1.133,1.167 -1.933,2.667 -2.433,4.234 -0.066,0.2 -0.133,0.433 -0.166,0.633 -0.034,0.1 -0.034,0.2 -0.067,0.333 0,0 0,0 0,0 0,0 0,0 0,0 0,0 0,0 0,0 0,0 0,0 0,0 0,0 0,0 0,0 0,0 0,0 0,0 0,0 -0.034,-0.033 -0.034,-0.033 -0.1,-0.166 -0.2,-0.3 -0.299,-0.467 -0.434,-0.6 -0.867,-1.167 -1.334,-1.7 -0.933,-1.1 -1.933,-2.067 -3.067,-2.8 -1.133,-0.767 -2.366,-1.3 -3.6,-1.533 -0.6,-0.134 -1.233,-0.167 -1.833,-0.133 -0.033,0 -0.067,0 -0.1,0 -0.067,0 -0.133,0 -0.167,0 -0.133,0 -0.233,0 -0.366,0.033 -0.134,0 -0.234,0.033 -0.367,0.033 -0.1,0 -0.234,0.033 -0.334,0.067 -0.4,0.066 -0.8,0.166 -1.2,0.233 -0.066,0.034 -0.133,0.034 -0.166,0.067 0.366,0.166 0.733,0.3 1.133,0.466 0.2,0.067 0.367,0.167 0.5,0.234 0.167,0.067 0.333,0.133 0.467,0.233 0.1,0.034 0.2,0.1 0.3,0.167 0.066,0.033 0.166,0.066 0.233,0.133 0.167,0.1 0.3,0.167 0.467,0.267 0.599,0.366 1.133,0.766 1.6,1.166 0.933,0.8 1.666,1.601 2.233,2.267 0.567,0.7 0.934,1.267 1.2,1.667 0.267,0.4 0.4,0.6 0.4,0.6 0.033,0 -0.067,-0.233 -0.3,-0.667 -0.233,-0.433 -0.567,-1.033 -1.067,-1.766 -0.533,-0.734 -1.233,-1.6 -2.166,-2.467 -0.467,-0.433 -1,-0.867 -1.6,-1.267 -0.134,-0.1 -0.3,-0.2 -0.467,-0.3 -0.133,-0.1 -0.3,-0.167 -0.433,-0.267 -0.1,-0.066 -0.167,-0.099 -0.233,-0.133 -0.034,0 -0.034,0 -0.034,-0.033 0.067,0 0.133,0 0.2,-0.033 0.033,0 0.067,0 0.1,0 0.067,0 0.133,0 0.2,0 0.533,-0.001 1.1,0.066 1.667,0.199 1.1,0.267 2.2,0.8 3.2,1.534 1,0.733 1.933,1.666 2.767,2.733 0.433,0.533 0.833,1.1 1.2,1.667 0.1,0.133 0.167,0.3 0.267,0.433 0.066,0.133 0.166,0.267 0.266,0.433 0.1,0.167 0.2,0.301 0.3,0.467 0.367,0.667 0.768,1.333 1.167,1.933 0,0.034 0.033,0.034 0.033,0.067 0.069,-0.466 0.1,-0.9 0.167,-1.366 0.033,-0.234 0.067,-0.467 0.1,-0.667 0.033,-0.2 0.067,-0.467 0.1,-0.667 0.033,-0.2 0.066,-0.4 0.133,-0.6 0.033,-0.1 0.034,-0.2 0.067,-0.3 0.033,-0.2 0.1,-0.4 0.167,-0.567 0.433,-1.466 1.099,-2.8 2.066,-3.833 0.467,-0.533 1.034,-0.967 1.6,-1.333 0.133,-0.1 0.3,-0.167 0.433,-0.267 0,0 0.034,-0.033 0.067,-0.033 0,0 0,0 0,0 0,0 0,0 0,0 0,0 0.034,0 0.067,-0.034 0,0 0,0 0,0 0,0 -0.034,0.034 -0.034,0.067 0,0 0,0 0,0 0,0 0,0 0,0.034 -0.033,0.033 -0.033,0.099 -0.066,0.133 -0.033,0.1 -0.1,0.166 -0.133,0.266 -0.067,0.167 -0.134,0.367 -0.234,0.534 -0.267,0.733 -0.466,1.467 -0.666,2.133 -0.2,0.7 -0.367,1.367 -0.534,2 -0.1,0.333 -0.167,0.633 -0.266,0.933 -0.034,0.034 -0.034,0.067 -0.034,0.1 -0.033,0.067 -0.033,0.134 -0.066,0.201 -0.034,0.133 -0.101,0.233 -0.134,0.399 -0.1,0.267 -0.2,0.534 -0.3,0.801 0,0 0,0 0,0.033 0.367,-0.034 0.734,-0.067 1.1,-0.1 0.067,0 0.167,-0.033 0.267,-0.033 0.067,0 0.1,0 0.167,0 0.1,0 0.2,0 0.266,0 0.367,0 0.734,0 1.1,0.033 0.7,0.066 1.367,0.2 1.967,0.366 1.2,0.367 2.167,0.934 2.9,1.467 0.733,0.534 1.267,1.034 1.6,1.367 0.334,0.334 0.534,0.534 0.534,0.5 0.033,0 -0.134,-0.233 -0.434,-0.633 -0.2,-0.234 -0.7,-0.8 -1.4,-1.4 z" />
      <path
         id="S113"
         fill="#ffffff"
         fill-rule="evenodd"
         fill-opacity="0.2"
         stroke="none"
         d="m 1225.142,178.08 c 2.766,1.633 5.033,3.867 6.466,6.433 0.701,1.267 1.234,2.634 1.501,3.967 0.299,1.367 0.366,2.7 0.233,4 -0.201,2.6 -1.1,4.967 -2.167,6.934 -1,2.033 -2.433,3.467 -3.8,4.667 -1.367,1.166 -2.667,2.066 -3.734,2.766 -2.166,1.367 -3.433,2 -3.4,2.1 0.034,0.067 1.4,-0.4 3.667,-1.667 1.133,-0.633 2.5,-1.466 3.934,-2.633 0.733,-0.6 1.466,-1.267 2.2,-2.033 0.367,-0.4 0.7,-0.834 1.033,-1.3 0.334,-0.467 0.633,-0.967 0.934,-1.467 1.166,-2.033 2.166,-4.5 2.433,-7.3 0.133,-1.4 0.1,-2.867 -0.2,-4.333 -0.3,-1.467 -0.833,-2.967 -1.567,-4.334 -1.533,-2.8 -3.933,-5.2 -6.867,-6.967 -2.933,-1.766 -6.333,-2.934 -9.933,-3.334 -1.2,-0.133 -2.434,-0.199 -3.634,-0.133 -0.6,0.034 -1.2,0.066 -1.8,0.133 -0.1,0.001 -0.2,0.001 -0.266,0.034 -0.034,0 -0.034,0 -0.034,0 0,0 0,0 0,0 0,0 0,0 0,0 0,0 0,0 0,0 0.033,-0.067 0.067,-0.133 0.1,-0.2 0.067,-0.167 0.167,-0.333 0.233,-0.5 0.3,-0.633 0.601,-1.3 0.868,-1.9 0.266,-0.6 0.566,-1.2 0.899,-1.733 0.1,-0.134 0.167,-0.267 0.267,-0.4 0,-0.034 0.033,-0.067 0.067,-0.1 0.033,-0.034 0.033,-0.034 0.1,-0.134 0.099,-0.133 0.166,-0.233 0.266,-0.333 0.1,-0.134 0.234,-0.267 0.333,-0.4 0.134,-0.133 0.234,-0.267 0.368,-0.4 0.233,-0.267 0.499,-0.533 0.733,-0.767 -0.067,0 -0.134,-0.033 -0.2,-0.033 -0.067,0 -0.167,-0.034 -0.234,-0.034 -0.166,-0.033 -0.3,-0.033 -0.433,-0.033 -0.3,-0.033 -0.566,-0.066 -0.867,-0.066 -0.3,-0.034 -0.6,-0.034 -0.9,-0.034 -0.133,0 -0.233,0 -0.333,0 -0.1,0 -0.167,0 -0.233,0 -0.667,0.034 -1.3,0.133 -1.934,0.233 -1.267,0.234 -2.466,0.534 -3.633,0.934 -2.3,0.766 -4.4,1.8 -6.3,2.9 -3.767,2.234 -6.667,4.9 -8.667,7.4 -2.034,2.5 -3.167,4.834 -3.767,6.467 -0.633,1.633 -0.767,2.567 -0.7,2.6 0.066,0.033 0.367,-0.867 1.1,-2.433 0.733,-1.534 1.967,-3.734 4,-6.1 2.033,-2.367 4.9,-4.867 8.601,-7 1.833,-1.034 3.9,-2.001 6.133,-2.701 1.1,-0.366 2.267,-0.666 3.467,-0.833 0.6,-0.1 1.2,-0.167 1.8,-0.2 0.1,0 0.233,0 0.366,0 0,0 0,0 0.033,0 0,0 0.034,0 0.034,0 -0.033,0 -0.034,0.033 -0.034,0.033 -0.033,0 -0.033,0.034 -0.033,0.067 -0.066,0.067 -0.1,0.133 -0.133,0.2 -0.1,0.133 -0.2,0.3 -0.3,0.433 -0.4,0.6 -0.7,1.234 -1,1.867 -0.3,0.633 -0.567,1.267 -0.867,1.867 -0.066,0.133 -0.167,0.3 -0.233,0.433 -0.067,0.1 -0.1,0.167 -0.133,0.267 -0.1,0.133 -0.2,0.3 -0.267,0.466 -0.366,0.601 -0.867,1.267 -1.267,1.867 0.567,-0.1 1.167,-0.2 1.734,-0.3 0.299,-0.033 0.6,-0.1 0.833,-0.133 0.133,-0.034 0.233,-0.034 0.4,-0.034 0.067,0 0.133,-0.033 0.2,-0.033 0.567,-0.066 1.133,-0.1 1.7,-0.1 1.133,-0.033 2.3,0 3.433,0.133 3.4,0.467 6.667,1.567 9.401,3.234 z" />
      <path
         id="S114"
         fill="#ffffff"
         fill-rule="evenodd"
         fill-opacity="0.2"
         stroke="none"
         d="m 1274.41,168.88 c 0.333,-3.567 0,-7.001 -0.767,-10.101 -0.767,-3.1 -2,-5.833 -3.367,-8.133 -1.367,-2.333 -2.9,-4.234 -4.3,-5.8 -1.433,-1.567 -2.8,-2.8 -3.934,-3.767 -2.3,-1.9 -3.733,-2.767 -3.766,-2.7 -0.067,0.1 1.233,1.067 3.4,3.1 1.067,1 2.367,2.3 3.733,3.867 1.367,1.6 2.767,3.5 4.067,5.8 1.267,2.266 2.4,4.933 3.1,7.933 0.7,2.967 0.966,6.301 0.6,9.701 -0.333,3.433 -1.267,6.967 -2.733,10.433 -1.467,3.467 -3.434,6.867 -5.834,10.067 -4.834,6.4 -10.734,11.434 -16.567,15.2 -5.867,3.767 -11.667,6.268 -16.7,7.834 -5.034,1.567 -9.3,2.233 -12.234,2.533 -2.934,0.3 -4.6,0.3 -4.6,0.434 0,0.066 1.633,0.233 4.633,0.1 2.967,-0.167 7.301,-0.667 12.467,-2.134 5.134,-1.467 11.101,-3.933 17.101,-7.7 5.966,-3.766 12.033,-8.867 17,-15.467 2.467,-3.266 4.5,-6.767 6,-10.367 1.467,-3.6 2.4,-7.267 2.701,-10.833 z" />
      <path
         id="S115"
         fill="#ffffff"
         fill-rule="evenodd"
         fill-opacity="0.2"
         stroke="none"
         d="m 1288.243,166.146 c 0.267,-2.6 0.2,-5.133 -0.1,-7.467 -0.567,-4.733 -1.966,-8.833 -3.533,-12.067 -1.567,-3.233 -3.334,-5.6 -4.667,-7.066 -1.367,-1.467 -2.267,-2.134 -2.334,-2.067 -0.066,0.066 0.7,0.833 1.934,2.4 1.2,1.533 2.8,3.933 4.233,7.134 1.434,3.2 2.667,7.233 3.167,11.8 0.233,2.3 0.3,4.733 0,7.2 -0.133,1.233 -0.367,2.5 -0.667,3.733 -0.167,0.634 -0.333,1.234 -0.566,1.834 -0.067,0.166 -0.3,0.333 -0.167,0.466 0,0 0,0 0,0 0,0 0,0 0,0 0,0 0,0 0,0 0,0 0,0 0,0 0,-0.1 -0.033,-0.166 -0.034,-0.233 -0.033,-0.166 -0.066,-0.333 -0.066,-0.5 -0.066,-0.333 -0.1,-0.633 -0.167,-0.967 -0.033,-0.2 -0.1,-0.4 -0.133,-0.6 -0.067,-0.3 -0.133,-0.6 -0.2,-0.9 -0.133,-0.6 -0.267,-1.2 -0.4,-1.8 -0.267,-1.2 -0.533,-2.366 -0.8,-3.566 -0.2,1.2 -0.4,2.433 -0.567,3.633 -0.033,0.3 -0.099,0.566 -0.133,0.833 -0.033,0.267 -0.1,0.534 -0.167,0.801 -0.066,0.266 -0.1,0.533 -0.166,0.766 -0.033,0.167 -0.1,0.367 -0.134,0.567 -0.233,0.999 -0.5,1.966 -0.833,2.9 -0.6,1.866 -1.334,3.6 -2.133,5.2 -1.601,3.2 -3.467,5.8 -5.2,7.767 -1.734,2 -3.334,3.4 -4.467,4.333 -1.134,0.933 -1.767,1.4 -1.734,1.467 0.034,0.066 0.767,-0.3 2.001,-1.134 1.233,-0.833 2.933,-2.166 4.8,-4.133 1.866,-1.967 3.866,-4.567 5.6,-7.834 0.866,-1.633 1.666,-3.4 2.3,-5.333 0.333,-0.967 0.634,-1.967 0.9,-2.967 0,-0.066 0.033,-0.133 0.033,-0.2 0,0 0,0 0,0 0,0 0,0 0,0 0,0 0,-0.033 0,-0.033 0,0 0,-0.033 0,-0.033 0,0 0,0.033 0,0.066 0,0 0,0 0,0.033 0,0 0,0 0,0.034 0,0.1 0.033,0.233 0.067,0.333 0.067,0.3 0.1,0.6 0.167,0.934 0,0.166 0.033,0.3 0.066,0.466 0.034,0.234 0.067,0.467 0.1,0.734 0.067,0.633 0.133,1.3 0.133,2.133 0,0.834 0,1.667 0.034,2.534 0.4,-0.767 0.8,-1.534 1.2,-2.3 0.267,-0.5 0.533,-1.067 0.8,-1.667 0.133,-0.3 0.233,-0.6 0.367,-0.9 0.066,-0.167 0.1,-0.333 0.166,-0.5 0.234,-0.634 0.434,-1.3 0.6,-1.967 0.333,-1.234 0.567,-2.567 0.7,-3.867 z" />
      <path
         id="S116"
         fill="#ffffff"
         fill-rule="evenodd"
         fill-opacity="0.2"
         stroke="none"
         d="m 1195.007,160.446 c 2.5,-2.1 5.434,-4.133 8.8,-5.967 3.367,-1.8 7.167,-3.4 11.301,-4.433 2.066,-0.5 4.233,-0.867 6.466,-1.034 2.234,-0.133 4.501,-0.033 6.734,0.434 2.234,0.466 4.434,1.333 6.367,2.667 0.967,0.666 1.867,1.433 2.667,2.3 0.833,0.866 1.6,1.833 2.3,2.833 1.7,2.5 2.833,5.3 3.3,8.2 0.466,2.9 0.366,5.8 -0.067,8.6 -0.433,2.8 -1.166,5.501 -2,8.067 -0.433,1.3 -0.867,2.567 -1.333,3.801 -0.234,0.633 -0.467,1.233 -0.7,1.866 -0.434,1.134 -0.867,2.233 -1.301,3.367 0.534,-0.3 1.067,-0.6 1.6,-0.9 0.534,-0.3 1.067,-0.634 1.601,-0.967 0.566,-0.4 1.133,-0.766 1.667,-1.166 1.066,-0.8 2.099,-1.634 3.099,-2.434 0.967,-0.833 1.9,-1.633 2.801,-2.467 0.199,-0.166 0.366,-0.366 0.599,-0.533 0.034,-0.067 0.101,-0.1 0.167,-0.167 0.1,-0.133 0.234,-0.233 0.367,-0.333 0,0 0,0 0,0 0,0 0,0.033 0,0.033 0,0.034 -0.033,0.034 -0.034,0.067 -0.033,0.033 -0.033,0.1 -0.066,0.167 -0.034,0.1 -0.1,0.233 -0.133,0.333 -0.034,0.033 -0.034,0.067 -0.034,0.1 -0.033,0.1 -0.066,0.167 -0.1,0.267 -0.1,0.2 -0.166,0.366 -0.233,0.566 -0.166,0.367 -0.333,0.734 -0.5,1.1 -0.667,1.434 -1.333,2.767 -2.033,3.967 -1.367,2.433 -2.8,4.367 -4.101,5.867 -1.3,1.467 -2.466,2.5 -3.266,3.133 -0.8,0.634 -1.267,0.967 -1.234,1 0.033,0.034 0.534,-0.2 1.4,-0.766 0.867,-0.6 2.1,-1.534 3.5,-3 1.367,-1.467 2.9,-3.401 4.367,-5.834 0.733,-1.2 1.467,-2.533 2.134,-4 0.166,-0.367 0.333,-0.733 0.499,-1.1 0.067,-0.2 0.167,-0.4 0.267,-0.567 0.101,-0.266 0.201,-0.533 0.334,-0.8 0.267,-0.666 0.533,-1.333 0.766,-1.966 0.134,-0.334 0.234,-0.667 0.367,-1 0.067,-0.167 0.133,-0.334 0.2,-0.501 0.033,-0.1 0.067,-0.166 0.1,-0.266 0.034,-0.1 0.067,-0.2 0.067,-0.234 -1.365,1.237 -2.734,2.434 -4.1,3.667 -0.9,0.8 -1.834,1.6 -2.834,2.4 -0.966,0.801 -2,1.601 -3.066,2.367 -0.534,0.4 -1.067,0.767 -1.634,1.133 -0.067,0.034 -0.167,0.1 -0.2,0.1 0.033,-0.1 0.067,-0.166 0.1,-0.266 0.233,-0.6 0.467,-1.234 0.7,-1.834 0.467,-1.233 0.934,-2.533 1.367,-3.833 0.867,-2.6 1.633,-5.367 2.1,-8.267 0.466,-2.9 0.6,-5.967 0.1,-9.033 -0.5,-3.067 -1.7,-6.1 -3.5,-8.734 -0.734,-1.067 -1.534,-2.067 -2.4,-2.967 -0.867,-0.933 -1.834,-1.8 -2.9,-2.5 -2.1,-1.433 -4.467,-2.366 -6.834,-2.866 -2.4,-0.5 -4.8,-0.6 -7.1,-0.434 -2.3,0.167 -4.567,0.567 -6.7,1.1 -4.267,1.1 -8.134,2.767 -11.534,4.667 -3.4,1.9 -6.367,4.033 -8.867,6.2 -2.5,2.167 -4.533,4.434 -6.067,6.567 -1.566,2.133 -2.6,4.167 -3.266,5.9 -0.667,1.733 -0.933,3.167 -1.033,4.134 -0.101,0.966 -0.067,1.5 -0.034,1.5 0.067,0 0.1,-0.5 0.3,-1.434 0.2,-0.933 0.534,-2.3 1.267,-4 0.733,-1.666 1.8,-3.6 3.4,-5.667 1.5,-1.966 3.533,-4.1 6.033,-6.2 z" />
      <path
         id="S117"
         fill="#ffffff"
         fill-rule="evenodd"
         fill-opacity="0.2"
         stroke="none"
         d="m 1299.543,217.047 c -0.2,0.067 -0.4,0.134 -0.566,0.201 -0.2,0.066 -0.367,0.099 -0.534,0.133 -0.166,0.033 -0.333,0.066 -0.533,0.1 -0.7,0.133 -1.367,0.166 -2,0.1 -1.267,-0.067 -2.333,-0.467 -3.2,-0.867 -0.834,-0.433 -1.467,-0.9 -1.9,-1.2 -0.434,-0.333 -0.667,-0.5 -0.734,-0.433 -0.066,0.033 0.067,0.333 0.434,0.733 0.333,0.434 0.933,1 1.8,1.567 0.866,0.566 2.033,1.1 3.466,1.266 0.7,0.1 1.467,0.1 2.267,0 0.2,-0.033 0.4,-0.066 0.6,-0.099 0,0 0.034,0 0.067,0 0.033,0 0.033,0 0.066,0 0,0 0,0 0,0 0,0 -0.033,0 -0.033,0.033 -0.033,0 -0.033,0 -0.033,0.033 0,0 -0.033,0 -0.033,0.033 0,0 0,0 0,0 0,0 0,0 0,0 -0.034,0.034 -0.034,0.034 -0.067,0.067 -0.6,0.667 -1.267,1.267 -2,1.833 -0.933,0.7 -1.9,1.301 -2.9,1.734 -0.5,0.233 -1,0.4 -1.5,0.567 -0.134,0.033 -0.267,0.067 -0.367,0.1 -0.067,0 -0.133,0.033 -0.2,0.066 -0.1,0.033 -0.2,0.033 -0.267,0.067 -0.5,0.1 -1,0.2 -1.5,0.3 0.167,0.3 0.367,0.6 0.567,0.9 0.1,0.133 0.167,0.3 0.233,0.434 0.034,0.1 0.1,0.166 0.133,0.266 0.134,0.3 0.267,0.567 0.367,0.867 0.201,0.566 0.3,1.133 0.334,1.7 0.066,1.1 -0.167,2.1 -0.367,2.9 -0.234,0.8 -0.434,1.466 -0.567,1.9 -0.133,0.466 -0.167,0.7 -0.1,0.733 0.067,0.034 0.233,-0.166 0.467,-0.567 0.233,-0.4 0.566,-1 0.9,-1.833 0.333,-0.833 0.667,-1.866 0.7,-3.166 0,-0.634 -0.067,-1.334 -0.267,-2.001 -0.1,-0.333 -0.233,-0.7 -0.367,-1.033 -0.033,-0.033 -0.033,-0.1 -0.066,-0.133 0,-0.034 -0.034,-0.034 -0.034,-0.067 0,0 0,0 0,0 0,0 0,-0.033 0,-0.033 0,-0.033 0,-0.033 0,-0.033 0.034,-0.001 0.034,0 0.067,0 0,0 0,0 0,0 0.034,-0.001 0.067,-0.034 0.1,-0.034 0.067,-0.034 0.133,-0.034 0.2,-0.067 0.133,-0.033 0.267,-0.066 0.4,-0.1 0.567,-0.166 1.1,-0.367 1.667,-0.6 1.1,-0.467 2.2,-1.1 3.2,-1.866 0.8,-0.6 1.535,-1.299 2.167,-2 0,-0.034 0.033,-0.067 0.066,-0.067 0.034,-0.034 0.067,-0.1 0.1,-0.134 0.067,-0.099 0.134,-0.166 0.2,-0.233 0.134,-0.166 0.267,-0.333 0.4,-0.5 0.134,-0.166 0.267,-0.333 0.367,-0.5 0.133,-0.166 0.233,-0.333 0.333,-0.5 0.2,-0.333 0.434,-0.633 0.633,-0.933 0.101,-0.167 0.201,-0.334 0.334,-0.467 0.067,-0.133 0.133,-0.233 0.233,-0.367 -0.933,0.433 -1.933,0.9 -2.733,1.2 z" />
      <path
         id="S118"
         fill="#ffffff"
         fill-rule="evenodd"
         fill-opacity="0.2"
         stroke="none"
         d="m 1284.61,198.414 c -0.034,-0.134 -0.067,-0.234 -0.1,-0.334 -0.034,-0.1 -0.067,-0.2 -0.067,-0.3 -0.1,-0.433 -0.167,-0.9 -0.233,-1.333 -0.101,-0.9 -0.101,-1.734 -0.067,-2.567 0.066,-1.633 0.3,-3.066 0.567,-4.233 0.533,-2.333 1.2,-3.6 1.133,-3.634 -0.034,-0.033 -0.833,1.167 -1.567,3.5 -0.366,1.167 -0.7,2.601 -0.866,4.301 -0.1,0.833 -0.134,1.733 -0.101,2.7 0.034,0.467 0.066,0.967 0.167,1.466 0,0.034 0,0.1 0.034,0.134 0,0 0,0 0,0 -0.034,-0.034 -0.067,-0.067 -0.067,-0.067 0,0 0,0 0,0 -0.033,-0.033 -0.1,-0.1 -0.133,-0.133 -0.1,-0.1 -0.201,-0.2 -0.267,-0.301 -0.167,-0.199 -0.333,-0.433 -0.5,-0.666 -0.3,-0.467 -0.6,-1 -0.9,-1.533 -0.1,-0.134 -0.167,-0.267 -0.234,-0.4 -0.133,-0.234 -0.266,-0.434 -0.399,-0.667 -0.333,-0.534 -0.667,-1.067 -0.967,-1.567 -0.034,-0.033 -0.034,-0.067 -0.067,-0.1 -0.033,0.067 -0.066,0.134 -0.066,0.2 -0.133,0.367 -0.3,0.734 -0.4,1.1 -0.134,0.334 -0.267,0.667 -0.401,1 -0.133,0.333 -0.266,0.667 -0.433,1 -0.3,0.667 -0.6,1.3 -0.9,1.901 -0.633,1.233 -1.267,2.433 -1.9,3.533 -1.3,2.2 -2.566,4.133 -3.7,5.7 -2.266,3.133 -3.967,4.867 -3.9,4.933 0.067,0.067 1.867,-1.566 4.367,-4.566 1.233,-1.5 2.633,-3.4 4.066,-5.567 0.701,-1.1 1.401,-2.267 2.101,-3.5 0.333,-0.634 0.667,-1.267 1,-1.934 0.166,-0.333 0.333,-0.667 0.466,-1 0,0 0,-0.033 0,-0.033 0,0 0,0 0,0 0,0 0,0 0,0 0,0 0,0 0,0 0,0 0,0 0,0 0,0 0,0 0,0 0,0.067 0.067,0.1 0.1,0.167 0.067,0.133 0.134,0.266 0.234,0.4 0.3,0.533 0.6,1.066 1,1.599 0.2,0.267 0.4,0.534 0.633,0.767 0.1,0.133 0.233,0.234 0.333,0.334 0.067,0.066 0.134,0.099 0.201,0.166 0.099,0.1 0.199,0.2 0.332,0.3 0.434,0.367 0.867,0.667 1.267,0.967 0.4,0.267 0.801,0.566 1.201,0.867 0.066,0.033 0.1,0.066 0.166,0.133 0.1,0.067 0.2,0.133 0.3,0.2 -0.333,-0.733 -0.667,-1.433 -1,-2.167 -0.267,-0.266 -0.333,-0.5 -0.433,-0.766 z" />
      <path
         id="S119"
         fill="#ffffff"
         fill-rule="evenodd"
         fill-opacity="0.2"
         stroke="none"
         d="m 1291.377,214.014 c 0.833,0.767 1.666,1.167 2.233,1.367 0.6,0.2 0.933,0.2 0.933,0.167 0,-0.034 -0.3,-0.134 -0.833,-0.4 -0.534,-0.267 -1.234,-0.734 -1.967,-1.534 -0.7,-0.767 -1.4,-1.833 -1.966,-3.133 -0.267,-0.634 -0.534,-1.334 -0.701,-2.1 -0.1,-0.367 -0.166,-0.767 -0.233,-1.134 0,-0.067 -0.033,-0.1 -0.033,-0.133 0,-0.034 0,-0.067 0,-0.067 0,0 0,0 0,0 0,0 0,0 0,0 0,0 0,0 0,0 0,0 0,0 0,0 0,0 0,0 0,0 0.033,0 0.067,0 0.1,0 0.067,0 0.133,0 0.2,0.034 0.133,0 0.233,0.033 0.366,0.033 0.934,0 1.767,-0.2 2.567,-0.434 0.201,-0.066 0.4,-0.133 0.567,-0.199 0.067,-0.034 0.133,-0.067 0.233,-0.067 0.067,-0.033 0.167,-0.067 0.267,-0.1 0.166,-0.067 0.333,-0.133 0.5,-0.2 0.633,-0.266 1.2,-0.5 1.767,-0.733 0.1,-0.067 0.233,-0.134 0.366,-0.167 -0.866,-0.133 -1.733,-0.267 -2.333,-0.4 -0.167,-0.034 -0.3,-0.067 -0.433,-0.1 -0.133,-0.033 -0.234,-0.067 -0.367,-0.1 -0.134,-0.033 -0.267,-0.1 -0.4,-0.134 -0.5,-0.2 -0.967,-0.433 -1.333,-0.733 -0.767,-0.6 -1.267,-1.333 -1.634,-1.966 -0.366,-0.634 -0.6,-1.201 -0.8,-1.567 -0.167,-0.367 -0.3,-0.567 -0.333,-0.534 -0.034,0 0,0.234 0.133,0.634 0.134,0.4 0.3,0.966 0.6,1.667 0.3,0.7 0.767,1.566 1.6,2.3 0.4,0.366 0.901,0.699 1.467,0.966 0.133,0.067 0.266,0.134 0.433,0.2 0,0 0.034,0 0.067,0.033 0,0 0,0 0,0 0,0 0,0 0,0 0,0 0,0.001 0.033,0 0.033,0 0.034,0.034 0.034,0.034 0,0 0,0 0,0 -0.034,0 -0.067,0 -0.1,0 0,0 0,0 0,0 0,0 0,0 0,0 0,0 0.034,0 -0.034,0 -0.166,0.066 -0.366,0.1 -0.533,0.133 -0.733,0.167 -1.5,0.301 -2.233,0.3 -0.1,0 -0.201,0 -0.267,-0.033 -0.034,0 -0.1,0 -0.133,-0.033 -0.034,0 -0.034,0 -0.067,0 -0.033,0 -0.1,-0.034 -0.167,-0.034 -0.1,-0.033 -0.233,-0.066 -0.333,-0.133 -0.134,-0.067 -0.267,-0.134 -0.367,-0.2 -0.266,-0.167 -0.567,-0.333 -0.833,-0.5 0,0 0,0.033 0,0.066 0,0 0,0.034 0,0.034 0,0.033 0,0.033 0,0.067 0,0.033 0,0.1 0,0.133 0.033,0.4 0.067,0.8 0.133,1.2 0.034,0.2 0.067,0.4 0.1,0.633 0.034,0.134 0.034,0.267 0.1,0.367 0.1,0.433 0.2,0.833 0.334,1.233 0.266,0.767 0.566,1.5 0.933,2.167 0.667,1.3 1.5,2.367 2.367,3.1 z" />
      <path
         id="S120"
         fill="#ffffff"
         fill-rule="evenodd"
         fill-opacity="0.2"
         stroke="none"
         d="m 1180.007,242.448 c -0.567,1.167 -1.267,2.534 -1.967,4.1 -0.7,1.567 -1.433,3.3 -2.033,5.234 -0.367,1.233 -0.667,2.433 -0.834,3.6 -0.033,0.3 -0.066,0.6 -0.1,0.867 -0.033,0.133 -0.033,0.3 -0.033,0.433 0,0.066 0,0.133 0,0.2 0,0 0,0 0,0 0,0.066 0,0.133 0.033,0.2 0,0.033 0,0.1 0.034,0.166 -0.033,0 -0.067,-0.033 -0.1,-0.1 -0.034,-0.033 -0.033,-0.066 -0.067,-0.1 -0.033,-0.033 -0.033,-0.066 -0.033,-0.066 0,-0.033 -0.033,-0.034 -0.033,-0.034 -0.034,-0.066 -0.034,-0.1 -0.067,-0.133 -0.3,-0.733 -0.533,-1.4 -0.7,-1.967 -0.334,-1.1 -0.467,-1.767 -0.534,-1.767 -0.066,0 -0.033,0.667 0.167,1.834 0.1,0.567 0.234,1.3 0.467,2.1 0,0.034 0.033,0.1 0.033,0.167 0,0.1 0.067,0.167 0.067,0.267 0.066,0.166 0.133,0.366 0.2,0.533 0.066,0.166 0.133,0.367 0.2,0.567 0.067,0.2 0.167,0.333 0.233,0.533 0.334,0.7 0.668,1.366 1.1,2.166 0.034,0.067 0.1,0.167 0.133,0.234 0.034,0.066 0.067,0.133 0.134,0.233 0.033,0.1 0.1,0.167 0.166,0.267 -0.131,-0.9 -0.233,-1.767 -0.366,-2.634 0,-0.099 -0.033,-0.199 -0.033,-0.299 0,-0.1 -0.034,-0.167 -0.034,-0.234 -0.034,-0.166 -0.033,-0.333 -0.033,-0.5 0,-0.267 -0.034,-0.567 0,-0.833 0,-0.134 0,-0.267 0,-0.4 0,-0.034 0,-0.034 0,-0.067 0,0 0,-0.033 0,-0.033 0,-0.034 0,-0.034 0,-0.067 0,-0.033 0,-0.067 0,-0.1 0,-0.133 0.033,-0.267 0.033,-0.4 0.033,-0.267 0.067,-0.567 0.1,-0.833 0.167,-1.134 0.433,-2.3 0.766,-3.467 0.534,-1.867 1.201,-3.6 1.834,-5.2 0.634,-1.567 1.233,-3 1.733,-4.2 1,-2.4 1.534,-3.9 1.434,-3.934 -0.067,-0.1 -0.734,1.367 -1.9,3.667 z" />
      <path
         id="S136"
         fill="#ffb888"
         fill-rule="evenodd"
         stroke="none"
         d="m 1146.873,274.049 c 0.533,10.5 17.201,23.134 25.501,22.7 8.333,-0.433 10.166,-8.767 7.033,-18.7 -3.234,-10.267 -9.2,-18.934 -17.4,-20.1 -11.901,-1.834 -15.668,5.633 -15.134,16.1 z" />
      <path
         id="S137"
         fill="#dba17b"
         fill-rule="evenodd"
         stroke="none"
         d="m 1152.173,274.382 c 0.2,5.3 6.7,12.767 12.634,14.7 4.633,1.501 0.966,-7.033 7.466,-6.066 5.834,0.867 6.934,2.267 4.634,-5.301 -2.367,-7.666 -8.1,-14.6 -13.934,-15.467 -8.633,-1.266 -11.233,4.234 -10.8,12.134 z" />
    </g>
    <path
       id="S138"
       fill="#ffb888"
       fill-rule="evenodd"
       stroke="none"
       d="m 1050.437,480.321 c -7.467,25.334 -13.6,55.368 -16.3,68.668 -3.167,15.634 2.066,34.401 21.267,43.334 19.2,8.934 36.934,0.867 46.868,-11.6 8.433,-10.633 27.467,-34.634 42.067,-56.635 -31.334,-14.633 -62.634,-29.2 -93.902,-43.767 z" />
    <path
       id="S139"
       fill="#d27c00"
       fill-rule="evenodd"
       stroke="none"
       d="m 1041.737,487.021 c -1.666,3.333 -0.233,7.367 3.133,8.933 30.434,14.202 60.902,28.368 91.336,42.568 3.267,1.533 7.167,0.133 8.734,-3.133 2.5,-5.201 4.933,-10.434 7.1,-15.367 -34.335,-15.967 -68.635,-31.969 -102.936,-47.968 -2.4,4.833 -4.9,9.933 -7.367,14.967 z" />
    <path
       id="S140"
       fill="#ff9800"
       fill-rule="evenodd"
       stroke="none"
       d="m 1080.671,418.886 c -5.1,8.6 -15.467,21.467 -27.5,45.068 -1.301,2.566 -2.667,5.266 -4.067,8.1 34.3,16 68.635,31.967 102.936,47.968 1.5,-3.434 2.867,-6.734 4.033,-9.767 8.934,-23.601 12.201,-37.935 15.367,-47.535 8.701,-26.467 -0.533,-53.934 -26.067,-65.368 -23.734,-10.667 -51.468,-0.8 -64.702,21.534 z" />
    <path
       id="S141"
       fill="#ffb888"
       fill-rule="evenodd"
       stroke="none"
       d="m 1109.139,551.655 c -2,-10.333 -8.267,-22.133 -21.601,-28.333 -13.333,-6.234 -26.4,-3.434 -35.601,1.7 -5.266,2.933 -22.934,21.167 -32.767,43.767 -9.4,21.568 -15.3,69.602 -24.734,108.337 -1.9,7.833 1.833,17.333 11.167,22.066 9.6,4.101 19.833,0.567 24.4,-6.1 20.334,-29.6 55.068,-66.234 65.535,-87.302 10.967,-22.067 14.734,-48.234 13.601,-54.135 z" />
    <g
       id="hand_left">
      <path
         fill="#edad82"
         fill-rule="evenodd"
         stroke="none"
         d="m 1010.363,690.152 c 4.992,-7.627 12.345,-14.172 5.232,-18.633 -5.68,-3.565 -14.547,-2.175 -21.227,8 -12.723,19.473 -23.549,26.179 -24.135,34.677 -0.8,12.138 -4.427,20.099 -6.085,29.459 -1.333,7.903 -3.494,14.109 -5.052,18.224 -2.755,7.411 2.006,9.771 5.117,8.428 3.111,-1.343 6.242,-9.034 10.794,-20.676 4.553,-11.643 11.584,-26.775 20.053,-39.585 6.7,-10.076 12.765,-15.987 15.303,-19.894 z"
         id="path1377" />
      <path
         fill="#f5b082"
         fill-rule="evenodd"
         stroke="none"
         d="m 1015.218,693.443 c 5.064,-8.219 9.431,-15.143 2.407,-20.809 -7.041,-5.63 -16.801,-3.211 -23.528,7.788 -12.89,20.999 -21.062,29.984 -21.231,39.11 -0.27,13.082 -3.83,21.606 -5.12,31.705 -1.09,8.499 -3.099,15.216 -4.543,19.648 -2.634,7.998 2.651,10.455 5.986,9.032 3.335,-1.422 6.308,-9.76 10.68,-22.282 4.372,-12.522 11.232,-28.84 19.846,-42.697 6.678,-10.886 12.888,-17.267 15.503,-21.495 z"
         id="path1379" />
      <path
         fill="#fdb686"
         fill-rule="evenodd"
         stroke="none"
         d="m 1023.023,696.475 c 4.965,-7.995 1.659,-18.249 -5.398,-23.841 -7.057,-5.592 -19.553,-2.687 -24.036,8.942 -9.533,24.832 -12.406,31.08 -12.493,40.02 -0.138,12.784 -3.616,21.121 -4.808,30.998 -1.009,8.312 -2.952,14.88 -4.347,19.2 -2.535,7.774 2.733,10.268 6.051,8.883 3.319,-1.385 6.194,-9.499 10.383,-21.746 4.188,-12.248 10.92,-28.133 19.355,-41.58 6.599,-10.565 12.726,-16.76 15.293,-20.876 z"
         id="path1381" />
      <path
         fill="#eba67a"
         fill-rule="evenodd"
         stroke="none"
         d="m 1004.188,708.638 c 0.955,3.131 2.593,6.429 2.557,10.236 0.299,-0.536 0.633,-1.011 0.932,-1.546 6.616,-10.603 12.795,-16.775 15.292,-20.877 2.133,-3.417 -15.779,-24.45 -23.075,-8.147 -3.832,8.716 1.715,11.866 4.294,20.334 z"
         id="path1383" />
      <path
         fill="#fdb686"
         fill-rule="evenodd"
         stroke="none"
         d="m 1002.089,687.758 c -0.654,-11.843 3.635,-16.58 11.155,-15.051 12.033,2.447 15.894,21.612 15.101,25.708 -1.413,7.513 -4.229,16.497 -2.756,22.033 1.436,5.477 5.349,19.509 -1.419,19.422 -5.462,-0.047 -7.736,-4.336 -9.642,-16.196 -3.558,-21.432 -11.639,-21.83 -12.439,-35.916 z"
         id="path1385" />
    </g>
  </g>
</svg>
