<svg width="73.888" height="140" xmlns="http://www.w3.org/2000/svg"><path fill-rule="evenodd" fill-opacity=".196" d="M41.314 140c11.54-.027 11.751-1.007 11.751-1.252 0-.243-.197-1.438-12.088-1.422-11.667.015-11.863 1.179-11.863 1.422 0 .245.219 1.28 12.2 1.251z"/><path fill="#ffb888" fill-rule="evenodd" d="M60.56 51.476c1.064 3.612 1.934 7.895 2.314 9.791.452 2.23-.3 4.905-3.037 6.18-2.738 1.273-5.267.118-6.683-1.66-1.202-1.516-3.917-4.938-5.994-8.085 4.473-2.072 8.936-4.15 13.4-6.226z"/><path fill="#d27c00" fill-rule="evenodd" d="M61.8 52.436a.941.941 0 01-.447 1.274c-4.344 2.02-8.684 4.04-13.033 6.055a.94.94 0 01-1.245-.447 66.857 66.857 0 01-1.013-2.196c4.896-2.276 9.792-4.548 14.687-6.825.343.694.7 1.421 1.05 2.139z"/><path fill="#ff9800" fill-rule="evenodd" d="M56.258 42.716c.727 1.226 2.205 3.06 3.916 6.426.186.366.38.75.575 1.155-4.895 2.277-9.786 4.553-14.687 6.825-.213-.49-.408-.96-.57-1.392-1.274-3.366-1.735-5.41-2.182-6.778-1.236-3.774.081-7.69 3.727-9.321 3.38-1.512 7.334-.105 9.22 3.085z"/><path fill="#ffb888" fill-rule="evenodd" d="M52.19 61.69c.29-1.473 1.178-3.151 3.084-4.04 1.906-.884 3.764-.485 5.076.242.751.419 3.27 3.023 4.668 6.241 1.335 3.076 2.172 9.925 3.512 15.453.271 1.117-.266 2.471-1.597 3.146-1.373.585-2.828.076-3.474-.87-2.895-4.225-7.843-9.449-9.335-12.453-1.564-3.146-2.101-6.873-1.935-7.719z"/><g fill-rule="evenodd"><path fill="#edad82" d="M66.505 81.687c-.707-1.052-1.755-1.947-.725-2.592.823-.515 2.097-.346 3.043 1.058 1.802 2.687 3.35 3.593 3.421 4.78.097 1.696.607 2.8.832 4.104.18 1.102.481 1.964.7 2.535.385 1.028-.304 1.373-.75 1.194-.446-.18-.885-1.246-1.522-2.861-.638-1.616-1.627-3.712-2.827-5.48-.949-1.39-1.813-2.199-2.172-2.738z"/><path fill="#f5b082" d="M65.801 82.161c-.716-1.134-1.334-2.09-.315-2.904 1.022-.808 2.423-.498 3.375 1.021 1.823 2.9 2.986 4.133 2.996 5.41.02 1.83.519 3.011.69 4.42.143 1.186.422 2.12.624 2.736.367 1.11-.398 1.47-.875 1.28-.478-.189-.894-1.346-1.504-3.085-.61-1.74-1.573-4.002-2.792-5.916-.944-1.503-1.829-2.378-2.199-2.962z"/><path fill="#fdb686" d="M64.674 82.608c-.703-1.104-.212-2.548.812-3.35 1.024-.804 2.818-.433 3.446 1.18 1.335 3.446 1.738 4.312 1.738 5.563 0 1.787.488 2.944.645 4.322a13.47 13.47 0 00.597 2.673c.353 1.08-.409 1.445-.884 1.26-.476-.183-.878-1.31-1.462-3.011s-1.53-3.904-2.723-5.76c-.934-1.46-1.806-2.308-2.17-2.877z"/><path fill="#eba67a" d="M67.366 84.255c-.142.44-.383.907-.383 1.44-.043-.075-.09-.14-.132-.214-.936-1.464-1.816-2.31-2.17-2.876-.301-.472 2.308-3.467 3.333-1.207.539 1.208-.264 1.665-.648 2.857z"/><path fill="#fdb686" d="M67.7 81.328c.111-1.659-.499-2.309-1.583-2.073-1.736.377-2.32 3.07-2.212 3.64.192 1.047.584 2.296.363 3.075-.214.77-.799 2.744.176 2.712.786-.022 1.12-.628 1.411-2.293.545-3.009 1.708-3.088 1.844-5.061z"/></g><g fill-rule="evenodd"><path fill="#ffb888" d="M37.336 81.064c0 3.698 2.148 12.5 2.69 16.598.17 1.293 1.716 10.865 1.778 12.02.047.804.85 2.125 2.405 2.125 1.464 0 2.281-1.155 2.405-2.096.399-3.147 1.492-9.34 1.953-11.807 1.06-5.794 2.49-12.962 2.49-16.85-4.576.005-9.149.005-13.721.01z"/><path fill="#543025" d="M51.053 81.059c0-4.164-3.394-6.859-6.863-6.854-3.56 0-6.86 2.838-6.854 6.864 0 2.158.618 7.424 1.117 11.944 3.897-.005 7.795-.004 11.692-.004.414-4.478.908-9.711.908-11.95zM38.893 96.328c.171 1.725.28 3.094.261 3.75 3.508-.005 7.02-.005 10.533-.005-.014-.618.081-1.991.233-3.75-3.679 0-7.353 0-11.027.005z"/><path fill="#7c574d" d="M50.225 92.93c-3.898 0-7.796 0-11.693.004.133 1.207.261 2.362.361 3.389 3.674-.005 7.348-.005 11.027-.005.086-1.022.19-2.177.305-3.389z"/><path fill="#ffb888" d="M44.194 106.916a2.444 2.444 0 00-2.466 2.467s1.283 23.233.988 27.007c-.062.808.656 1.464 1.464 1.464.808 0 1.545-.66 1.464-1.464-.337-3.517 1.012-27.002 1.012-27.002a2.465 2.465 0 00-2.462-2.472z"/><path fill="#718590" d="M45.673 130.335c-.999 0-1.997-.005-2.995 0 .024.737.038 1.43.052 2.077h2.886c.018-.647.033-1.34.057-2.077zM42.759 134.422c.005.866-.01 1.54-.043 1.968-.062.808.656 1.464 1.464 1.464.808 0 1.545-.66 1.464-1.464-.038-.408-.057-1.088-.052-1.968-.946-.004-1.887-.004-2.833 0z"/><path fill="#a0b2b9" d="M45.62 132.412c-.965 0-1.925-.005-2.885 0 .014.746.024 1.421.029 2.01h2.833c-.005-.589.004-1.264.023-2.01z"/><path fill="#3c68af" d="M41.77 138.735c-.158-.555-.101-1.653.268-2.296.152-.264.457-.496.754-.653.417.106.481.181 1.308.253.722.024 1.239-.3 1.498-.417.811.228 1.6.595 2.393.836.884.268 2.205.165 3.142.447.415.125.871.43.974 1.082a.828.828 0 01-.456.871c-.16.054-.674.022-.937.018-.862-.016-2.018-.028-2.892-.04-1.002-.015-2.334-.03-3.342-.046-.8-.013-2.14-.014-2.71-.055z"/><path fill="#fff" d="M49.478 136.815l-.11 1.307h2.603s.092-.473-.491-.9c-.516-.36-2.002-.406-2.002-.406zM41.838 138.256a6472478.65 6472478.65 0 005.96.009l2.953-.037 1.206.028s-.04.182-.11.283c-.058.097-.236.196-.236.196s-.626.007-.895.007c-.871.002-2.025-.033-2.894-.045-1.001-.012-2.34-.016-3.339-.033l-2.614-.047-.031-.361z"/></g><path fill="#693f30" fill-rule="evenodd" d="M51.415 69.046c.671 6.43-.295 10.754-.414 12.265-.361 4.677-4.288 7.32-8.17 6.445-1.774-.385-4.778-.556-6.598-.028-3.575 1.031-7.667-1.331-8.399-5.566-.21-1.198-.007-4.529-2.126-11.508-.94-3.102 8.652-3.4 13.94-3.019 4.142.301 11.527-.9 11.767 1.41z"/><g fill-rule="evenodd"><path fill="#ffb888" d="M27.758 81.064c0 3.698 2.148 12.5 2.685 16.598.172 1.293 1.716 10.865 1.778 12.02.048.804.846 2.125 2.405 2.125 1.464 0 2.282-1.155 2.405-2.096.4-3.147 1.493-9.34 1.954-11.807 1.06-5.794 2.495-12.962 2.49-16.85-4.572.005-9.144.005-13.717.01z"/><path fill="#693f30" d="M41.476 81.059c0-4.164-3.394-6.859-6.86-6.859-3.56 0-6.858 2.838-6.858 6.864 0 2.158.618 7.424 1.117 11.945 3.898-.08 7.795-.005 11.693-.005.408-4.473.908-9.706.908-11.945zM29.236 96.397c.171 1.726.28 3.095.262 3.75 3.508-.004 7.02-.004 10.533-.004-.015-.618.08-1.992.233-3.75-3.675.004-7.354.004-11.028.004z"/><path fill="#906759" d="M40.568 93.004c-3.898 0-7.795 0-11.693.005.133 1.207.257 2.362.361 3.388 3.674-.004 7.349-.004 11.028-.004.085-1.022.194-2.177.304-3.39z"/><path fill="#ffb888" d="M34.612 106.916a2.444 2.444 0 00-2.467 2.467s1.288 23.233.994 27.007c-.062.808.655 1.464 1.464 1.464.808 0 1.544-.66 1.464-1.464-.338-3.517 1.012-27.002 1.012-27.002a2.469 2.469 0 00-2.467-2.472z"/><path fill="#718590" d="M36.095 130.335h-2.994c.023.737.038 1.43.052 2.077h2.885c.014-.647.033-1.34.057-2.077zM33.181 134.422c.005.866-.01 1.54-.042 1.968-.062.808.655 1.464 1.464 1.464.808 0 1.544-.66 1.464-1.464-.039-.408-.058-1.088-.053-1.968-.946-.004-1.892-.004-2.833 0z"/><path fill="#a0b2b9" d="M36.038 132.412h-2.885c.014.746.024 1.421.028 2.01h2.833c0-.589.01-1.264.024-2.01z"/><path fill="#3c68af" d="M32.152 138.742c-.16-.56-.102-1.666.27-2.314.153-.267.461-.5.76-.66.42.108.485.184 1.32.256.727.024 1.248-.302 1.51-.42.818.23 1.612.599 2.413.842.891.27 2.222.167 3.167.451.419.126.88.433.983 1.09a.834.834 0 01-.46.88c-.162.053-.68.022-.945.017-.87-.015-2.035-.028-2.916-.04-1.01-.015-2.354-.03-3.37-.046-.807-.014-2.158-.014-2.732-.056z"/><path fill="#fff" d="M39.924 136.807l-.112 1.317h2.626s.092-.477-.496-.907c-.52-.363-2.018-.41-2.018-.41zM32.22 138.259l2.65.003 3.36.006 2.977-.037 1.216.028s-.04.184-.111.285c-.058.099-.237.198-.237.198s-.632.007-.903.008c-.878.001-2.042-.034-2.918-.046-1.01-.013-2.36-.016-3.367-.033l-2.635-.048-.032-.364z"/></g><g fill-rule="evenodd"><path fill="#576970" d="M20.11 71.168c.002 0 13.354 3.982 19.406 4.19 6.223.212 20.54-2.964 20.543-2.964 0-.002-1.447-10.226-2.724-14.448-.743-2.455-2.954-11.719-4.711-13.683-1.915-2.141-5.852-3.058-8.929-3.458-4.637-.602-12.232-.204-15.21 3.4-3.197 3.868-2.634 10.978-4.144 15.568-1.109 3.37-4.23 11.394-4.23 11.395z"/><path fill="#a0b2b9" d="M50.87 36.984l-.612 1.283c-.68-.599-1.365-1.197-2.044-1.796l-.5 1.193c-.67-.632-1.335-1.27-2.005-1.901l.27 1.497-.755-.5c-.071.538-.138 1.08-.204 1.621h-2.852l.27 2.339c-.988.442-1.977.88-2.965 1.321.46.181.922.357 1.388.542-.461.228-.927.461-1.388.694.551.1 1.103.205 1.659.304l-.884 2.24c.27.218.537.436.807.66l-1.578.399c.633.338 1.27.675 1.906 1.017-.275.956-.55 1.91-.827 2.866.875.062 1.754.12 2.634.181v2.353c.318-.461.641-.922.965-1.383.07.347.147.694.218 1.04.266-.19.537-.385.808-.575.409.856.823 1.716 1.236 2.577.152-.666.309-1.336.461-2.002.18.167.357.328.537.5.361-.167.728-.333 1.089-.5.29.666.584 1.331.874 2.002.438-.766.864-1.61 1.312-2.405.07.477.124.993.19 1.435.243-.494.49-.989.737-1.478l1.165.442-.2-1.132c1.017-.085 2.034-.175 3.051-.26a433.94 433.94 0 00-1.354-1.536c.931-.304 1.863-.604 2.8-.903-.48-.319-.966-.632-1.446-.95.295-.21.59-.414.884-.624-.128-.527-.261-1.055-.39-1.578.405-.404.809-.808 1.217-1.207-.55-.39-1.102-.78-1.654-1.164.067-.737.138-1.479.21-2.215-.661-.31-1.322-.618-1.978-.922.21-.694.418-1.388.628-2.078-.47.305-.941.604-1.407.908-.095-.817-.186-1.635-.28-2.452-.543.499-1.084 1.003-1.622 1.506a29.03 29.03 0 01-.37-1.359z"/><path fill="#ffb888" d="M50.915 53.04c.466-1.25.79-2.534.965-3.893.257-2.006.3-4.04-.019-6.042-.214-1.35-.447-2.747-.98-4.02-2.395-.809-5.042-2.263-5.722-3.08-2.372-2.876-1.53-10.001-7.096-10.206-5.918-.218-4.896 8.385-7.14 9.592-.784.423-1.54.832-2.267 1.231-.47 8.37 8.014 16.698 11.303 17.734 2.824.889 9.155 1.792 10.956-1.317z"/><path fill="#eda87a" d="M45.934 36.67c-.347-.247-.618-.476-.78-.666-2.371-2.875-1.53-10-7.096-10.205-5.918-.218-4.896 8.385-7.14 9.592-.151.08-.299.162-.446.242 3.151 2.88 10.367 4.592 15.462 1.037z"/><path fill-opacity=".102" d="M51.486 51.219c-1.83-.138-3.97-.442-5.885-.361-2.448.104-6.188 1.659-9.83 1.834.419.224.856.428 1.294.618a18.475 18.475 0 002.314-.2c4.297-.745 7.634-1.112 11.907-1.173.071-.238.138-.476.2-.718z"/><path fill="#d27c00" d="M41.038 42.692c5.804-.437 6.845-3.304 6.854-4.872-.59-.3-1.126-.604-1.578-.894.376 1.483-1.169 3.565-4.064 3.879-2.97.328-6.94-.442-10.02-2.933-.826-.67-1.387-1.568-1.53-2.367-.618.333-1.217.66-1.801.975 1.217 2.58 5.428 6.72 12.14 6.212z"/><path fill="#ff9800" d="M55.56 50.53c.484-1.968-.148-5.3-2.62-9.545-.418-.722-1.25-1.63-2.044-1.896a22.685 22.685 0 01-3.004-1.269c-.014 1.568-1.055 4.435-6.854 4.872-6.711.508-10.922-3.636-12.14-6.208-2.585 1.402-4.885 2.634-7.386 3.58-2.162.822-3.156 4.6-3.08 6.925.067 1.982 1.046 4.61 2.168 6.24 3.16 4.592.575 8.628 1.497 14.555 1.588 10.243 11.289 14.677 19.882 14.52 9.507-.17 17.392-3.964 17.288-17.258-.053-6.36-2.8-11.997-3.708-14.516z"/><path fill-opacity=".051" d="M39.38 53.11c-1.027.181-3.166.267-2.543-.023 2.233-1.041 5.542-2.087 8.76-2.224 3.56-.153 4.21-.039 6.188.399.932.204 1.174.65-.152.67-4.444.048-7.843.409-12.254 1.179z"/><path fill-opacity=".129" d="M48.5 58.986c3.798-.495 7.054-.09 10.03.237-.894-3.84-2.353-6.987-2.97-8.693.294-1.188.175-2.876-.505-4.958-2.814-.318-6.184-.404-10.656-.104-9.402.627-18.233 3.203-25.919 2.162.219 1.883 1.107 4.145 2.115 5.61 1.54 2.238 1.716 4.348 1.597 6.606 8.499 3.636 17.306.314 26.309-.86zM22.301 68.872C24.383 78.345 33.7 82.462 41.98 82.31c8.119-.147 15.058-2.937 16.84-12.035-2.476 1.692-6.069 3.503-10.233 3.822-7.424.58-18.765.532-26.285-5.224z"/><path fill="#a0b2b9" d="M52.327 51.64c.236 1.497 1.246 4.114 2.138 7.187a40.74 40.74 0 011.004 4.198c1.06 5.965.846 12.001.841 12.106-.014.214.238.874 2.272-.414 1.26-.798 2.063-1.858 2.372-2.386.152-.261.328-1.872.133-1.986-.19-.12-8.803-18.994-8.76-18.704z"/><path fill="#718590" d="M61.5 70.03c0-3.25-1.801-10.556-2.466-12.181l-.173-.424c-1.902-4.655-2.85-6.7-3.302-9.9-.276-1.949-1.17-4.069-2.619-6.56-.418-.722-1.25-1.63-2.044-1.896-.798-.266-3.812-1.801-4.582-2.163 2.97 4.668 4.663 8.142 6.117 15.244.176.85.946 2.543 1.797 5.047.166.486.334 1.002.49 1.51 1.134 3.696 2.216 8.707 2.13 14.988-.01.856 4.653-2.31 4.653-3.664z"/><path fill="#a0b2b9" d="M51.785 49.279c-.314-1.854-.656-4.397-.67-5.043-.014-.647.028-2.757.337-2.81.31-.057 1.317 1.617 2.776 1.522-1.136-.965-2.776-3.428-4.268-4.663-.395-.328-4.558-3.023-5.827-4.197.822 2.31 1.792 2.58 2.909 4.201 1.896 2.752 3.678 7.13 4.743 10.99z"/><path fill="#576970" d="M60.845 61.965c-.842-.518-2.24-1.626-3.185-2.324.846 3.564 1.511 8.028 1.607 8.807.085.756.085 1.626.617 1.492.704-.18 1.816-1.359 1.783-1.834-.129-1.897-.338-3.969-.822-6.141z"/><path fill="#a0b2b9" d="M60.346 60.035c-.728-2.429-1.208-2.134-1.75-1.925-.523.2-1.25.219-.965 1.397.01.043.02.09.034.134.946.698 2.343 1.8 3.184 2.324a35.094 35.094 0 00-.503-1.93z"/><path fill="#a52b31" d="M54.76 47.849c-.698.247-1.397.5-2.09.746-.105-.432-.21-.86-.31-1.288.699-.252 1.393-.499 2.092-.746.1.428.204.855.309 1.288z"/><path fill="#79899d" d="M54.784 51.043c-.285.128-.575.262-.855.395-.176-.59-.347-1.18-.518-1.764.285-.133.57-.261.855-.394.171.584.347 1.174.518 1.763z"/><path fill="#6fb353" d="M54.223 53.758l.851-.551c.224.575.452 1.155.68 1.73-.285.18-.57.366-.85.551-.229-.58-.457-1.155-.68-1.73z"/><path fill="#de912f" d="M55.231 51.976c.314-.057.494-.476.409-.956-.086-.48-.4-.812-.713-.76-.314.057-.494.475-.409.955.086.485.395.818.713.76z"/><path fill="#928475" d="M56.62 55.634l-1.29 1.002c-.151.12-.356.043-.455-.166-.1-.214-.053-.48.1-.599.427-.337.855-.67 1.288-1.003.152-.118.356-.042.456.167.1.209.057.48-.1.599z"/><path fill="#718590" d="M59.899 69.247a7.11 7.11 0 00.499-.751c.076-.129.152-.257.228-.39.038-.067.071-.133.105-.2.018-.033.033-.066.047-.1.019-.038.019-.052.024-.09.019-.285-.005-.594-.024-.889-.024-.3-.052-.599-.08-.898-.053-.6-.124-1.198-.19-1.802-.034-.299-.068-.598-.105-.898-.039-.3-.067-.599-.138-.893.185.58.261 1.183.356 1.777.09.6.162 1.198.224 1.802.028.3.052.603.07.903.01.152.015.304.02.456.005.152.005.304-.02.461a.537.537 0 01-.037.124c-.02.033-.038.066-.057.1a6.61 6.61 0 01-.114.194c-.081.129-.162.257-.247.38-.172.243-.347.495-.561.714zM60.593 61.242c.142-.033.19-.342.104-.717-.08-.371-.257-.637-.4-.604-.142.033-.19.342-.104.718.086.37.262.636.4.603z"/><path fill="#a0b2b9" d="M19.93 69.47c-.48.676-.495 1.393-.537 1.674-.1.618 4.724 7.315 14.834 8.817.485.071 2.253-2.058 3.432-8.142.708-3.656 1.218-8.944.976-14.176-.106-2.296-.382-4.668-.881-6.814-.333-1.43-17.15 17.7-17.824 18.642z"/><path fill="#718590" d="M38.196 54.037c-1.012-11.312-7.648-16.122-7.491-18.546-2.33 1.26-6.897 3.688-9.188 4.558-2.162.822-3.156 4.6-3.08 6.925.067 1.982 1.046 4.61 2.168 6.241 1.137 1.653 1.5 3.423 1.429 5.22-.134 3.366-1.645 6.952-2.637 10.66-.47 1.754 6.854 8.551 15.524 8.86 1.138.043 3.773-9.343 3.483-20.313a58.494 58.494 0 00-.208-3.605z"/><path fill="#a0b2b9" d="M34.826 43.552c.76.903 1.483 2.462 2.762 6.583-.31-3.67-2.676-8.07-2.829-8.423-.413-.95-3.93-5.38-2.752-7.937-.49 0-.817.551-1.34 1.06-.466.451-1.64 1.145-1.802 1.411-.879 1.474 1.94 6.512 2.144 9.378 1.806-2.072 1.588-3.38 2.054-3.664.27-.171 1.002.689 1.763 1.592z"/><path fill="#576970" d="M26.123 62.023c-1.07 4.235-3.109 8.3-2.976 8.537 1.117 2.01 8.162 4.092 8.723 3.65 1.673-1.311 3.018-8.066 3.303-11.369-2.524 2.01-4.858 3.037-5.504 3.07-.276.02-2.001-.779-3.546-3.888z"/><path fill="#a0b2b9" d="M30.62 61.443c-2.648-.18-4.174-.774-4.421.257-.024.11-.052.214-.08.323 1.544 3.109 3.27 3.907 3.545 3.893.642-.033 2.98-1.059 5.504-3.07.005-.038.005-.072.01-.11.165-2.015-.642-1.026-4.559-1.293z"/><path fill="#2a84a0" d="M32.093 47.958l4.016-.77c.038.21.081.414.12.623-1.341.257-2.682.513-4.017.77-.043-.204-.081-.414-.119-.623z"/><path fill="#a0b2b9" d="M30.206 57.456c1.031 0 1.83-.799 1.83-1.83 0-1.032-.799-1.83-1.83-1.83-1.032 0-1.83.798-1.83 1.83a1.801 1.801 0 001.83 1.83z"/><path fill="#4070b7" d="M31.827 54.27c.746.894.622 2.23-.276 2.971a2.115 2.115 0 01-2.97-.275 2.115 2.115 0 01.275-2.971 2.115 2.115 0 012.97.275m-2.813 2.334c.542.661 1.52.751 2.182.205a1.552 1.552 0 00.204-2.182 1.552 1.552 0 00-2.182-.204 1.552 1.552 0 00-.204 2.181z"/><path fill="#6fb353" d="M34.493 52.764c1.032 0 1.83-.799 1.83-1.83 0-1.032-.798-1.83-1.83-1.83-1.031 0-1.83.798-1.83 1.83 0 1.026.799 1.83 1.83 1.83z"/><path fill="#a52b31" d="M34.655 55.867c.741 0 1.316-.575 1.316-1.316 0-.742-.575-1.317-1.316-1.317-.742 0-1.317.575-1.317 1.317 0 .741.575 1.316 1.317 1.316z"/><path fill="#de912f" d="M32.682 57.18c.38.456.76.917 1.141 1.378-.76.628-1.516 1.26-2.277 1.887-.38-.46-.76-.917-1.14-1.378.755-.627 1.516-1.26 2.276-1.887z"/><path fill="#718590" d="M23.609 70.56c.309.028.618.057.926.062.31.01.618.01.923-.024.076-.01.152-.019.218-.038a.561.561 0 00.095-.033c.014-.01.014-.01.024-.02a.19.19 0 01.024-.042c.066-.128.133-.276.195-.414.123-.28.247-.565.366-.85.247-.566.48-1.141.713-1.712.118-.285.232-.575.347-.86.114-.285.223-.575.323-.87-.138.604-.347 1.193-.556 1.778a45.075 45.075 0 01-.685 1.73c-.123.285-.247.57-.38.85-.067.144-.128.281-.204.424-.015.019-.024.038-.038.057a.233.233 0 01-.067.052.456.456 0 01-.124.038c-.08.015-.161.024-.237.029a7.38 7.38 0 01-1.863-.157zM31.185 66.377c-.157.651-.347 1.288-.532 1.93l-.57 1.916c-.096.318-.19.637-.281.96-.043.161-.086.323-.119.48-.014.076-.043.17-.019.204.029.062.08.128.133.19.214.252.456.48.694.713.233.238.48.466.699.718-.49-.457-1.013-.865-1.478-1.355-.057-.066-.115-.123-.162-.214l-.014-.033a.165.165 0 01-.005-.047c0-.029.005-.048.005-.072.004-.042.014-.085.024-.128.033-.166.076-.328.113-.49.086-.323.176-.646.271-.964a98.442 98.442 0 01.923-2.862c.1-.318.209-.632.318-.946zM26.318 70.811c.432.081.85.21 1.26.343.408.142.817.294 1.211.49-.432-.082-.846-.21-1.26-.343a9.927 9.927 0 01-1.211-.49zM29.778 65.184c.38 0 .675-.294.675-.675a.666.666 0 00-.675-.675.666.666 0 00-.675.675c0 .38.3.675.675.675z"/><path fill="#a0b2b9" d="M26.123 38.39l-.613 1.284c-.68-.6-1.364-1.198-2.044-1.797-.166.4-.333.794-.5 1.193-.67-.632-1.335-1.269-2.005-1.901l.271 1.497-.756-.5c-.071.538-.138 1.08-.204 1.622H17.42l.27 2.338c-.988.442-1.976.88-2.965 1.322.461.18.922.356 1.388.542-.461.228-.927.46-1.388.693.551.1 1.103.205 1.659.305l-.884 2.238c.27.219.537.438.808.661-.528.133-1.055.266-1.578.4.632.337 1.269.674 1.906 1.016l-.827 2.867c.874.061 1.754.118 2.633.18v2.353c.318-.461.642-.922.965-1.383.071.347.147.694.218 1.04.267-.19.538-.384.809-.574.408.855.822 1.716 1.235 2.576.152-.666.31-1.336.461-2.001.181.166.357.328.537.499.362-.166.728-.333 1.089-.5.29.666.584 1.332.875 2.002.437-.765.863-1.61 1.311-2.405.07.478.124.993.19 1.435.243-.494.49-.988.737-1.478l1.165.442-.2-1.131c1.017-.086 2.034-.176 3.052-.262a423.21 423.21 0 00-1.355-1.535c.932-.304 1.863-.604 2.8-.903-.48-.318-.965-.632-1.445-.95.294-.21.589-.414.884-.623-.129-.528-.262-1.055-.39-1.578.404-.404.808-.808 1.217-1.208-.552-.39-1.103-.78-1.654-1.164.066-.737.137-1.478.209-2.215-.66-.309-1.322-.618-1.978-.922l.628-2.077c-.47.304-.941.603-1.407.908-.095-.818-.185-1.636-.28-2.453-.542.5-1.084 1.003-1.621 1.507a28.813 28.813 0 01-.371-1.36z"/></g><path fill="#9b541f" fill-rule="evenodd" d="M30.662 27.881c-.646.067-1.33.485-.11.946.034.974.258 1.469.856 2.139-.855-.128-1.673.337.628 1.008-1.226.304-.79 1.868.627 2.124-.789.129-.451.495.143.656-.95.062-1.402.846.984 1.264-1.74.096-1.093 1.455 1.497.813-.723.67.223 1.279 1.578.67-.694.766-.518 1.76.775.162.08.56.565.88.917.856-.466.518-.66 1.464.675.261-.452.974.223 2.99 1.578-.014.014.96 1.046 2.59.95-.143.42 1.246 2.724 3.803 1.417.19 1.017 1.569 2.529 1.854 1.383-.033.5.048.837-.047.884-.608.243.75.742 1.197.804.114.499.608 1.74.447.917-.894.485.433.965.062.547-.494.304.047.337-.176.014-.433 1.435.338 2.771-.114 1.516-1.117.837-.304.822-1.055.095-1.468.965-.466 1.127-1.15.537-1.983.59-.128.927-1.04-.023-.812.057-.338.07-1.284-.347-1.326.042-.4-.034-.999-.457-1.35-1.416-.48-6.987 2.875-14.601-2.652-1.93-1.398-5.19-.885-3.884 1.34-.256.19-.375.4.1.784z"/><path fill="#ffb888" fill-rule="evenodd" d="M32.735 33.271c1.877 2.462 5.832 5.153 12.263 3.56 4.42-1.098 4.534-7.248 3.75-9.834-1.165-3.836-1.535-2.928-1.82-5.723-.314-3.113 1.135-8.779-3.394-11.564-5.257-3.218-11.907-.77-13.494 2.947-2.62 6.112.617 6.345 1.069 12.372-.233 4.188.946 7.505 1.626 8.242z"/><path fill="#9b541f" fill-rule="evenodd" d="M45.663 25.357c-1.278.276-2.514 0-3.408.095-1.05.11-2.144.233-4.454.618-1.311.219-3.607.157-4.748-1.397-.618-.846-.741-1.189-.955-2.11-.081-.376-.68-1.702-1.873-1.602.385 1.055.69 2.314.803 4.054-.266 4.192.884 7.534 1.56 8.266 1.881 2.49 5.931 5.242 12.424 3.64 4.463-1.102 4.634-7.362 3.817-9.967-.623-1.982-1.355-3.294-1.355-3.294.005 1.008-.856 1.498-1.81 1.697z"/><g transform="translate(-136.64 -16.362) scale(.14259)"><clipPath id="prefix__a"><path fill="#fff" fill-rule="evenodd" d="M1270.914 243.041c-7.158 0-12.202 7.157-12.202 15.027 0 7.87 5.044 15.027 12.202 15.027s12.202-7.157 12.202-15.027c.028-7.87-5.016-15.027-12.202-15.027z"/></clipPath><path fill="#fff" fill-rule="evenodd" d="M1270.914 243.041c-7.158 0-12.202 7.157-12.202 15.027 0 7.87 5.044 15.027 12.202 15.027s12.202-7.157 12.202-15.027c.028-7.87-5.016-15.027-12.202-15.027z"/><path fill="#6d3409" fill-rule="evenodd" d="M1270.378 255.514c1.663 0 2.987 1.396 2.987 3.148 0 1.752-1.324 3.148-2.987 3.148s-2.987-1.396-2.987-3.148c0-1.752 1.324-3.148 2.987-3.148z" clip-path="url(#prefix__a)"/><path fill="#ffb888" fill-rule="evenodd" d="M1253.291 231.994l29.552.26v9.643l-29.552-.26v-9.643zM1282.305 284.515l-29.014-.264v-9.644l27.488-.137 1.526 10.045z" clip-path="url(#prefix__a)"/></g><g fill-rule="evenodd"><path fill="#fff" d="M41.48 27.986c-1.138.026-2.275-.066-3.16-.298-.011 0-.021 0-.016.015.24.174.513.378.775.619.22.199.43.524.676.65.289.146.718.235 1.132.293l.079.01c.644.079 1.388.037 1.954.074-.534.036-1.142.084-1.724.073a5.283 5.283 0 01-.938-.089c.41.356 1.027.681 1.709.88a.033.033 0 00.01.006c.697.204 1.598.151 2.3-.058-.036-.299-.01-.67.006-.975-.116-.005-.283.079-.367 0 .241-.052.424-.162.597-.277.037-.341.131-.697.173-1.017l.016-.141c-.917.288-2.086.21-3.223.235z"/><path fill="#6d3409" d="M46.033 27.499c-.021-.314-.215-.45-.34-.65 0 .152.093.289.078.399-.896.293-1.96.419-3.097.466-.173.005-.34-.01-.514 0a23.071 23.071 0 01-4.768-.32c.11-.042.21-.089.299-.146a1.376 1.376 0 00-.53.115c-.136.063-.33.13-.35.314.172-.037.282-.147.445-.199 1.032.351 1.692 1.169 2.525 1.834.755.603 1.782 1.305 3.076 1.305.708 0 1.483-.215 1.955-.472.063-.031.189-.084.152-.13-.131.015-.21.088-.367.078-.115-.247.032-.535.12-.76.289-.728.75-1.352 1.2-1.865.032.015.069.078.116.031m-1.368.398c-.031.315-.12.671-.162 1.017a1.698 1.698 0 01-.598.278c.079.083.252-.006.367 0-.016.304-.042.676-.005.974-.707.21-1.609.262-2.3.058-.692-.21-1.31-.53-1.72-.886.294.058.614.084.939.09.581.01 1.19-.037 1.724-.074-.566-.037-1.31.005-1.955-.073-.487-.069-.922-.158-1.21-.304-.246-.126-.456-.446-.676-.65-.262-.241-.535-.44-.776-.618.907.214 2.039.309 3.176.282 1.137-.026 2.305.053 3.212-.235l-.016.141m-6.372-.188c-.005-.016.005-.016.016-.016m2.646 1.588c-.028-.004-.054-.008-.078-.01m1.09.953a.037.037 0 01-.01-.005zM44.477 31.183c-.31.65-1.83.408-2.537.267.917.079 1.913.047 2.537-.267z"/></g><path fill="#6d3409" fill-rule="evenodd" d="M41.714 24.459c-.209.104-.465.123-.735.213-.2.062-.565.17-.603.342-.066.284.242.55.465.545.228.01.522-.109.778-.19.284-.076.55-.142.763-.19-.379.138-.91.46-1.394.584-.507.123-1.09-.54-.759-.977.261-.299.987-.299 1.485-.327zM42.786 26.01c.208-.204.46-.366.725-.527.266-.161.716-.327.75-.683.033-.341-.148-.763-.333-.958-.118-.123-.275-.194-.403-.275-.868-.607-1.437-1.897-1.55-3.244-.076-.749.114-1.138.388-1.669-.104.413-.241.66-.26 1.072-.034.47.09.906.185 1.318.218.934.697 1.845 1.36 2.324.129.095.304.176.432.29.275.25.603.967.375 1.427-.123.256-.503.393-.768.526-.328.133-.607.28-.901.398z"/><g transform="translate(-136.64 -16.362) scale(.14259)"><clipPath id="prefix__b"><path fill="#fff" fill-rule="evenodd" d="M1225.385 243.933c-8.619 0-15.646 7.245-15.646 16.208 0 8.963 7.027 16.209 15.646 16.209 8.62 0 15.646-7.246 15.646-16.209s-7.026-16.208-15.646-16.208z"/></clipPath><path fill="#fff" fill-rule="evenodd" d="M1225.385 243.933c-8.619 0-15.646 7.245-15.646 16.208 0 8.963 7.027 16.209 15.646 16.209 8.62 0 15.646-7.246 15.646-16.209s-7.026-16.208-15.646-16.208z"/><path fill="#6d3409" fill-rule="evenodd" d="M1225.104 258.143a3.292 3.292 0 013.311 3.31 3.292 3.292 0 01-3.311 3.31 3.291 3.291 0 01-3.31-3.31 3.311 3.311 0 013.31-3.31z" clip-path="url(#prefix__b)"/><path fill="#ffb888" fill-rule="evenodd" d="M1204.636 232.251h43.014v10.141h-43.014v-10.141zM1247.65 287.205h-43.014v-10.141h43.014v10.141z" clip-path="url(#prefix__b)"/></g><path fill="#6d3409" fill-rule="evenodd" d="M34.87 17.686c-.033-.047.521-.531.774-.723.283-.215.685-.477 1.013-.614a4.78 4.78 0 011.195-.3c.349-.038.82-.003 1.169.034.171.018 1.133.252 1.114.342-.018.087-.957.017-1.121.022-.332.012-.774.038-1.102.086-.333.048-.776.13-1.096.232-.314.102-.71.275-1.007.442-.29.162-.907.525-.94.479zM46.674 16.831c.02-.033-.388-.34-.574-.456a3.519 3.519 0 00-.691-.33 3.636 3.636 0 00-.845-.156 3.902 3.902 0 00-.826.067c-.111.02-1.058.311-1.018.415.026.067.944-.08 1.06-.09.223-.018.522-.016.746-.004.235.012.548.042.779.088.215.043.495.113.705.2.207.087.644.3.664.266z"/><g fill-rule="evenodd"><path fill="#000102" d="M48.582 20.21c.027-.062.031-.236-.049-.311h-.013c-.468.115-1.3.246-1.957.425-.001.085.009.214.005.325.66-.154 1.523-.312 2.014-.439z"/><path fill="#ffc488" fill-opacity=".627" d="M39.654 18.077c-1.31 1.92-2.37 3.54-4.658 6.159.32.374.721.655 1.215.801 2.053-2.324 3.532-4.413 4.667-6.336-.276-.321-.681-.521-1.224-.624z"/><path fill="#ffa433" fill-opacity=".627" d="M40.878 18.7c-1.14 1.929-2.614 4.018-4.667 6.337.477.143 1.033.16 1.68.018 1.553-.347 3.522-2.747 3.464-4.85-.027-.658-.174-1.152-.477-1.504zM37.543 18.05c-2.837.263-3.598 1.648-3.443 3.728.072.962.366 1.839.896 2.458 2.289-2.623 3.348-4.24 4.658-6.159-.553-.102-1.252-.107-2.111-.026zM48.44 19.467c-.112-.432-.281-.78-.513-1.051a39.01 39.01 0 01-2.805 5.272c.695.486 1.447.748 2.106.61 1.256-.254 1.701-2.948 1.212-4.831zM44.494 17.672c-2.088.285-2.182 1.67-1.518 3.318.24.596.61 1.184 1.055 1.7 1.158-1.865 1.852-3.277 2.756-4.978-.605-.16-1.362-.165-2.293-.04z"/><path fill="#ffc488" fill-opacity=".627" d="M46.787 17.712c-.904 1.701-1.598 3.113-2.756 4.979.33.383.704.726 1.091.997a39.01 39.01 0 002.805-5.272c-.285-.348-.663-.575-1.14-.704z"/><path fill="#000102" d="M41.426 20.206c.058 2.12-1.937 4.573-3.522 4.925a4.115 4.115 0 01-.878.103c-.623 0-1.175-.174-1.638-.517-.784-.579-1.265-1.621-1.368-2.93-.178-2.392.904-3.567 3.514-3.812 1.665-.156 2.667.004 3.25.52.41.366.62.923.642 1.71m-.16.005c-.018-.752-.205-1.26-.588-1.598-.41-.366-1.06-.54-2.04-.54-.325 0-.686.019-1.09.059-2.503.231-3.541 1.358-3.372 3.642.094 1.265.557 2.263 1.3 2.82.633.467 1.434.6 2.387.387 1.532-.343 3.456-2.717 3.403-4.77zM48.115 23.688c-.236.392-.53.62-.869.69-.124.027-.25.036-.378.036-1.514 0-3.282-1.688-3.964-3.393-.44-1.096-.49-1.915-.151-2.499.29-.498.873-.81 1.732-.93 2.4-.33 3.607.227 4.03 1.852.379 1.452.205 3.273-.4 4.244m-.13-.084c.575-.918.74-2.726.379-4.12-.325-1.246-1.149-1.825-2.69-1.825-.352 0-.74.03-1.166.089-.806.111-1.35.396-1.617.85-.307.53-.254 1.323.16 2.36.65 1.626 2.392 3.291 3.826 3.291.115 0 .227-.009.338-.03.294-.059.552-.268.77-.615z"/><path fill="#000102" d="M41.306 19.792a.095.095 0 01-.067-.032.08.08 0 01.018-.11c.467-.33 1.073-.37 1.411-.09.036.027.04.076.01.111a.078.078 0 01-.112.01c-.276-.232-.815-.188-1.22.097-.01.01-.027.014-.04.014zM34.1 20.838c-.227.05-.512.103-.828.165-3.108.61-4.836 1.033-5.054 1.514a.158.158 0 10.29.13c.195-.428 3.442-1.065 4.827-1.337.289-.058.538-.107.748-.147.053-.089.067-.258.017-.325zM38.816 18.073h-.124a.08.08 0 01-.08-.08.08.08 0 01.08-.08c1.082.008 4.711-.116 6.524-.397a.074.074 0 01.089.067c.004.044-.023.085-.067.09-1.755.275-5.206.4-6.422.4z"/></g><path fill="#763b0f" fill-rule="evenodd" d="M37.673 10.889c-.913.879-3.665 2.229-4.53 2.476.46.143 1.14.68 1.193 1.108-.39-.4-.998-.932-2.035-.994 1.222.542 1.83 1.621 1.83 3.142 0 1.52-.684 2.372-1.254 2.833.76-1.08 1.558-3.413-.086-5.352.675 1.711.518 3.36-.038 4.515-.556 1.155-.732 2.291-.69 3.204.039.912.162 2.068.334 2.533.17.466.156.547-1.512-.808-1.673-1.354-1.925-.48-2.933-1.326-1.007-.85-2.909-3.821-2.139-6.345-1.102.874-1.858 1.525-2.243 2.657-.651-1.911-.556-5.366 3.584-7.486-1.82-.214-3.346.28-4.463 1.368.28-1.193 1.977-2.096 4.53-2.257-1.888-.357-2.933-1.74-2.71-3.385.599 1.436 1.407 2.71 4.078 3-1.592-.984-2.752-5.267 1.374-7.567-1.56 2.533-1.897 5.309.409 6.92.3-3.698 7.01-11.992 16.065-8.118-2.414-.423-3.693-.594-5.799.01 2.62-.034 9.773.413 6.869 9.948 1.877-1.203 4.026-.053 4.691 1.511-1.806-1.007-2.79-.637-4.012-.028 1.673.08 2.548.584 3.028 1.725-.932-.903-1.54-1.193-3-.741 1.25.37 3.4 2.229 1.17 6.744-.028-1.725-.104-2.894-.984-3.954.133 2.02-.242 3.051-1.554 4.382.014-2.657-.052-4.606-.133-5.495-.081-.888-.29-1.459-.423-1.701-.304.865-1.26 2.79-3.161 4.25 1.383-1.54 2.282-2.91 2.733-5.472-1.117 1.83-3.731 4.516-7.115 5.428 2.443-1.235 5.123-3.398 6.145-5.922-1.896 2.163-4.263 3.636-9.625 2.961 1.493-.903 2.439-2.429 2.406-3.764z"/><path fill="#fff" fill-rule="evenodd" fill-opacity=".2" d="M29.807 15.052c.157-.175.3-.356.413-.537.114-.18.205-.36.262-.537a1.421 1.421 0 00.01-.856c-.067-.194-.134-.285-.143-.28-.015.005.028.11.07.3.02.095.034.214.03.347-.005.133-.034.29-.09.446-.115.324-.362.661-.676.999-.314.337-.699.68-1.098 1.045-.4.366-.775.727-1.079 1.093a4.09 4.09 0 00-.665 1.075 2.313 2.313 0 00-.167.836c0 .205.029.31.038.31.015 0 .015-.11.034-.305.023-.195.076-.47.218-.789.138-.318.371-.665.675-1.012.304-.352.675-.704 1.074-1.065.395-.366.78-.713 1.094-1.07zM30.89 16.222c.005-.015.015-.024.02-.038v.004c.004.02.004.039.009.057.014.067.024.129.033.19l.015.096c.004.038.009.114.009.185v.062c0 .024 0 .043-.005.066-.005.024-.005.053-.01.076a.515.515 0 00-.009.09l-.043.386c.057-.105.114-.205.171-.304.029-.053.058-.11.09-.162.03-.057.063-.114.091-.171l.043-.09.033-.076c.014-.034.029-.062.043-.096.029-.061.052-.128.076-.19.095-.252.162-.504.21-.746.094-.485.094-.936.018-1.302a1.87 1.87 0 00-.361-.799c-.128-.161-.228-.223-.233-.218-.01.01.066.09.176.26.104.167.233.429.29.78.057.352.042.78-.057 1.246a5.48 5.48 0 01-.214.713l-.071.18a.738.738 0 00-.038.09c-.005.005-.005.01-.01.02 0 0 0 .01-.005-.02a4.767 4.767 0 01-.014-.104c-.01-.066-.024-.133-.038-.2-.01-.047-.019-.09-.024-.133-.01-.066-.019-.128-.028-.204-.014-.152-.024-.304-.038-.456-.053.138-.105.275-.152.413-.015.033-.024.067-.038.095a.662.662 0 00-.038.086c-.015.024-.024.047-.039.076l-.014.028a.036.036 0 00-.01.02c-.056.1-.113.199-.18.29a5.578 5.578 0 01-.404.508c-.27.314-.528.59-.708.85-.186.257-.29.495-.333.661-.043.172-.038.267-.028.267.014 0 .028-.09.09-.248.062-.156.176-.37.37-.608.19-.242.452-.504.733-.813.142-.157.29-.323.427-.518.072-.09.138-.19.195-.3zM26.879 13.123c.066-.038.137-.072.209-.11.08-.042.161-.085.242-.123-.123 0-.247-.005-.366-.005h-.085a.44.44 0 00-.076-.005c-.024-.005-.048-.005-.072-.01-.023-.004-.047-.004-.066-.009-.029-.004-.052-.004-.076-.01-.01 0-.014 0-.02-.004 0 0 0-.005.006-.005.009-.01.023-.019.033-.028l.071-.057c.095-.076.19-.148.285-.21a3.52 3.52 0 01.59-.308c.39-.157.774-.21 1.079-.172.309.034.537.153.684.252.143.1.214.167.223.157.01-.004-.042-.09-.18-.214a1.68 1.68 0 00-.28-.185 1.612 1.612 0 00-.428-.138c-.328-.057-.742-.014-1.155.138a3.295 3.295 0 00-.932.528l-.076.061c-.014.01-.024.02-.038.034-.024.019-.043.038-.067.057-.047.042-.085.085-.128.128s-.086.086-.124.128c.1.005.22 0 .314.01.024 0 .048.005.071.005.015 0 .034.004.053.004.024 0 .043.005.066.01h.005c-.01.005-.014.005-.019.01-.062.038-.128.075-.19.118a5.33 5.33 0 00-.97.799 5.19 5.19 0 00-.831 1.112c-.19.347-.29.656-.343.87-.047.214-.052.337-.038.342.014.005.043-.114.11-.318.07-.205.185-.495.385-.823.2-.328.475-.698.836-1.055.18-.18.38-.356.604-.523.11-.085.223-.166.347-.242.062-.038.119-.076.18-.114.024-.015.053-.029.076-.043l.09-.052zM31.916 11.516a1.37 1.37 0 00-.713-.323.939.939 0 00-.166-.014h-.085c0-.005.004-.01.004-.015 0-.004 0-.004.005-.01v-.004c0-.005.005-.01.005-.019l.043-.138c.028-.095.052-.19.08-.285.029-.095.057-.195.095-.295l.029-.07a.212.212 0 01.014-.034l.024-.052c.014-.024.024-.048.038-.072l.048-.076c.033-.052.07-.11.109-.161-.014.004-.024.004-.033.01-.09.028-.167.047-.257.08l-.067.028a.212.212 0 00-.033.015.036.036 0 00-.019.01c-.005 0-.01.004-.01.004-.023.01-.047.024-.075.038-.095.057-.19.128-.267.21a1.535 1.535 0 00-.37.693c-.005.014-.005.029-.01.048l-.005-.005-.042-.067a3.298 3.298 0 00-.19-.242 2.026 2.026 0 00-.438-.4 1.384 1.384 0 00-.513-.218.963.963 0 00-.262-.019h-.038c-.019 0-.033 0-.052.005-.019 0-.033.004-.052.004a.166.166 0 00-.048.01c-.057.01-.114.024-.17.033-.01.005-.02.005-.025.01.053.023.105.043.162.066.029.01.052.024.071.034.024.01.048.019.067.033a.195.195 0 01.043.024c.01.004.023.01.033.019.024.014.043.023.066.038.086.052.162.109.229.166.133.114.237.228.318.323.08.1.133.18.171.238l.057.085c.005 0-.01-.033-.043-.095a2.702 2.702 0 00-.152-.251 2.396 2.396 0 00-.309-.352 1.827 1.827 0 00-.294-.224c-.02-.014-.043-.023-.062-.038-.014-.01-.024-.014-.033-.019-.005 0-.005 0-.005-.004.01 0 .019 0 .028-.005h.043c.076 0 .157.01.238.028a1.3 1.3 0 01.456.219c.143.104.276.238.395.39.061.076.118.157.17.237.015.02.025.043.039.062.01.02.024.038.038.062.014.024.028.043.043.066.052.096.11.19.166.276 0 .005.005.005.005.01.01-.067.014-.129.024-.195l.014-.095.014-.095a.542.542 0 01.019-.086c.005-.014.005-.028.01-.043a.397.397 0 01.023-.08c.062-.21.157-.4.295-.547a1.08 1.08 0 01.228-.19c.019-.014.043-.024.062-.038 0 0 .005-.005.01-.005 0 0 .004 0 .009-.005 0 0-.005.005-.005.01v.005c-.005.004-.005.014-.01.019-.004.014-.014.023-.018.038-.01.023-.02.052-.034.076-.038.104-.066.209-.095.304-.028.1-.052.195-.076.285-.014.047-.024.09-.038.133-.005.005-.005.01-.005.014-.004.01-.004.02-.009.029-.005.019-.014.033-.02.057l-.042.114v.005l.157-.015c.01 0 .024-.004.038-.004h.062c.052 0 .104 0 .157.004.1.01.195.029.28.053a1.4 1.4 0 01.414.209c.104.076.18.147.228.195a.47.47 0 00.076.071.432.432 0 00-.062-.09 1.863 1.863 0 00-.2-.2zM38.053 9.03c.395.233.718.552.922.918.1.18.176.375.214.565.043.195.053.385.034.57-.029.371-.157.709-.31.99-.142.29-.346.494-.541.665-.195.166-.38.294-.533.394-.308.195-.49.285-.484.3.004.01.2-.057.522-.238a3.518 3.518 0 00.875-.665c.052-.057.1-.12.147-.186.048-.066.09-.138.134-.209.166-.29.308-.642.346-1.04.02-.2.015-.41-.028-.619a2.295 2.295 0 00-.223-.618c-.22-.399-.561-.741-.98-.993a3.501 3.501 0 00-1.934-.495c-.086.005-.171.01-.257.02-.014 0-.028 0-.038.004h-.005l.015-.028.033-.072c.043-.09.086-.185.124-.27.038-.086.08-.172.128-.248.014-.019.024-.038.038-.057 0-.004.005-.01.01-.014l.014-.019c.014-.019.023-.033.038-.047.014-.02.033-.038.047-.057.02-.02.033-.039.053-.057.033-.039.07-.076.104-.11-.01 0-.019-.005-.028-.005-.01 0-.024-.004-.034-.004-.023-.005-.043-.005-.062-.005-.042-.005-.08-.01-.123-.01-.043-.004-.086-.004-.128-.004h-.081a2.598 2.598 0 00-.276.033c-.18.033-.352.076-.518.133-.328.11-.627.257-.898.414-.537.318-.95.698-1.236 1.055-.29.356-.452.689-.537.922-.09.233-.11.366-.1.37.01.005.052-.123.157-.346.104-.22.28-.533.57-.87a4.74 4.74 0 012.101-1.383c.157-.053.323-.095.494-.12.086-.013.172-.023.257-.028H36.138c-.005 0-.005.005-.005.005-.005 0-.005.005-.005.01a.1.1 0 00-.019.028l-.042.062c-.058.085-.1.176-.143.266-.043.09-.08.18-.124.266l-.033.062a.14.14 0 00-.019.038.306.306 0 00-.038.066c-.052.086-.124.181-.18.267.08-.015.166-.029.247-.043.042-.005.085-.014.118-.019.02-.005.034-.005.057-.005.01 0 .02-.005.029-.005.08-.009.162-.014.242-.014.162-.005.328 0 .49.02.485.066.95.223 1.34.46z"/><path fill="#fff" fill-rule="evenodd" fill-opacity=".2" d="M45.079 7.718a4.295 4.295 0 00-.59-2.6 5.12 5.12 0 00-.613-.827c-.204-.223-.4-.399-.561-.537-.328-.27-.532-.394-.537-.385-.01.015.176.152.485.442.152.143.337.328.532.552.195.228.395.499.58.827.18.323.342.703.442 1.13.1.424.138.9.086 1.384a5.11 5.11 0 01-.39 1.488c-.21.494-.49.979-.832 1.435a9.243 9.243 0 01-2.362 2.168 9.868 9.868 0 01-2.382 1.117 8.95 8.95 0 01-1.744.36c-.418.044-.656.044-.656.063 0 .01.233.033.66.014a8.21 8.21 0 001.778-.304 9.6 9.6 0 002.439-1.098 9.13 9.13 0 002.424-2.206c.352-.465.641-.965.855-1.478.21-.513.343-1.036.386-1.545z"/><path fill="#fff" fill-rule="evenodd" fill-opacity=".2" d="M47.051 7.329c.038-.371.028-.732-.014-1.065a5.453 5.453 0 00-.504-1.72 4.311 4.311 0 00-.666-1.008c-.194-.21-.323-.305-.332-.295-.01.01.1.119.275.342.172.219.4.561.604 1.017.204.457.38 1.032.452 1.683.033.328.042.675 0 1.027a4.162 4.162 0 01-.096.532c-.023.09-.047.176-.08.261-.01.024-.043.048-.024.067 0-.014-.005-.024-.005-.033a.369.369 0 01-.01-.072c-.009-.047-.014-.09-.023-.138-.005-.028-.014-.057-.02-.085l-.028-.128-.057-.257-.114-.509a19.71 19.71 0 00-.08.518c-.005.043-.015.081-.02.12-.004.037-.014.075-.023.113-.01.038-.015.076-.024.11l-.02.08c-.032.143-.07.28-.118.414-.085.266-.19.513-.304.742a5.21 5.21 0 01-.741 1.107 5.202 5.202 0 01-.637.618c-.162.133-.252.2-.248.209.005.01.11-.043.286-.162.175-.118.418-.309.684-.589.266-.28.551-.651.799-1.117.123-.233.237-.485.328-.76.047-.138.09-.28.128-.424 0-.009.005-.018.005-.028v-.005-.004.019c0 .014.004.033.01.047.009.043.013.086.023.133 0 .024.005.043.01.067l.014.104c.01.09.019.186.019.304 0 .12 0 .238.004.362l.172-.328c.038-.072.076-.152.114-.238.019-.043.033-.085.052-.128.01-.024.014-.048.024-.072a3.525 3.525 0 00.185-.832zM33.756 6.516c.357-.3.775-.59 1.255-.851a7.067 7.067 0 011.612-.632c.294-.071.603-.124.922-.148a3.63 3.63 0 01.96.062c.318.067.632.19.908.38.138.096.266.205.38.329.119.123.228.26.328.404.242.356.404.755.47 1.169.067.413.053.827-.01 1.226a7.38 7.38 0 01-.284 1.15c-.062.186-.124.366-.19.542l-.1.266-.186.48.229-.128c.076-.043.152-.09.228-.138.08-.057.161-.109.237-.166.152-.114.3-.233.442-.347.138-.119.271-.233.4-.352.028-.023.052-.052.085-.076.005-.01.015-.014.024-.024.014-.019.033-.033.052-.047v.005c0 .004-.004.004-.005.01-.004.004-.004.013-.009.023l-.019.047c-.005.005-.005.01-.005.015-.004.014-.01.024-.014.038a.584.584 0 00-.033.08l-.072.157c-.095.205-.19.395-.29.566-.194.347-.399.623-.584.837-.186.209-.352.356-.466.446-.114.09-.18.138-.176.143.005.005.076-.029.2-.11.123-.085.3-.218.499-.427.195-.21.413-.485.623-.832a5.31 5.31 0 00.304-.57l.071-.157a.426.426 0 01.038-.081 10.74 10.74 0 00.157-.394c.019-.048.033-.096.052-.143l.029-.071c.004-.015.01-.024.014-.038a.185.185 0 00.01-.034c-.195.177-.39.347-.585.523-.128.114-.262.228-.404.342a8.03 8.03 0 01-.67.5c-.01.004-.024.014-.029.014.005-.015.01-.024.014-.038.034-.086.067-.176.1-.262.067-.176.133-.361.195-.546.124-.371.233-.766.3-1.18.066-.413.085-.85.014-1.287a3.113 3.113 0 00-.5-1.246 3.339 3.339 0 00-.341-.423 2.282 2.282 0 00-.414-.356 2.734 2.734 0 00-.974-.409 3.668 3.668 0 00-1.013-.062c-.328.024-.651.081-.955.157a6.92 6.92 0 00-1.645.666c-.485.27-.908.575-1.264.884a5.535 5.535 0 00-.865.936 3.63 3.63 0 00-.466.841 2.322 2.322 0 00-.147.59.736.736 0 00-.005.214c.01 0 .014-.072.043-.205.028-.133.076-.328.18-.57.105-.238.257-.513.485-.808.214-.28.504-.585.86-.884zM48.662 14.587l-.08.028c-.029.01-.053.014-.077.02l-.076.013a1.232 1.232 0 01-.741-.11c-.119-.06-.21-.127-.271-.17-.062-.047-.095-.071-.105-.062-.01.005.01.048.062.105.048.062.133.142.257.223a1.225 1.225 0 00.817.18l.086-.013h.019s-.005 0-.005.004c-.005 0-.005 0-.005.005 0 0-.004 0-.004.005l-.01.01a2.133 2.133 0 01-.698.508c-.072.033-.143.057-.214.08a.766.766 0 00-.053.015c-.01 0-.019.005-.028.01-.014.004-.029.004-.038.009l-.214.043c.024.043.052.085.08.128.015.019.024.043.034.062.005.014.014.024.019.038.019.043.038.08.052.124.029.08.043.161.048.242.01.157-.024.3-.053.413l-.08.271c-.02.067-.024.1-.015.105.01.005.034-.024.067-.081s.08-.143.128-.261a1.27 1.27 0 00.1-.452 1.004 1.004 0 00-.09-.432c-.005-.005-.005-.015-.01-.02 0-.004-.005-.004-.005-.009v-.005-.004h.01c.005 0 .01-.005.014-.005.01-.005.02-.005.029-.01l.057-.014a2.12 2.12 0 00.694-.352 2.201 2.201 0 00.318-.294c.005-.005.01-.015.014-.02.01-.014.02-.023.029-.033.02-.023.038-.047.057-.071a.653.653 0 00.052-.071.613.613 0 00.048-.072c.028-.047.062-.09.09-.133.014-.023.029-.047.048-.066a.33.33 0 01.033-.053c-.133.062-.276.129-.39.172zM46.533 11.93l-.014-.048a.136.136 0 01-.01-.043c-.014-.061-.024-.128-.033-.19a2.355 2.355 0 01-.01-.366c.01-.233.043-.437.081-.603.076-.333.171-.514.162-.519-.005-.004-.119.167-.224.5a3.024 3.024 0 00-.138.998c.005.066.01.138.024.209 0 .005 0 .014.005.019l-.01-.01-.018-.019c-.015-.014-.03-.028-.038-.043-.024-.028-.048-.061-.072-.094-.043-.067-.085-.143-.128-.22a.365.365 0 01-.033-.056l-.057-.095c-.048-.076-.095-.152-.138-.224-.005-.004-.005-.01-.01-.014a.069.069 0 00-.01.029c-.018.052-.042.104-.056.156l-.057.143c-.02.048-.038.095-.062.143a7.443 7.443 0 01-.129.27c-.09.177-.18.348-.27.504-.186.314-.366.59-.528.813-.323.447-.566.694-.556.704.01.01.266-.224.623-.651.175-.214.375-.485.58-.794.1-.157.2-.323.299-.5.047-.09.095-.18.143-.275.023-.048.047-.095.066-.143v-.004c0 .01.01.014.014.023.01.02.02.038.034.057.042.076.085.152.142.228a1 1 0 00.09.11c.015.019.034.033.048.047.01.01.019.015.029.024a.417.417 0 00.047.043c.062.052.124.095.18.138a3.783 3.783 0 01.195.142l.043.029c-.047-.105-.095-.204-.142-.31-.038-.037-.048-.07-.062-.108z"/><path fill="#fff" fill-rule="evenodd" fill-opacity=".2" d="M47.498 14.154c.119.11.237.167.318.195.086.029.133.029.133.024 0-.005-.042-.02-.118-.057a.98.98 0 01-.281-.219c-.1-.11-.2-.261-.28-.447a1.707 1.707 0 01-.1-.3c-.015-.051-.024-.108-.033-.16 0-.01-.005-.015-.005-.02v-.01h.014c.01 0 .019 0 .029.006.019 0 .033.004.052.004a1.279 1.279 0 00.447-.09.068.068 0 01.033-.01.332.332 0 01.038-.014l.071-.028.252-.105a.173.173 0 01.052-.024 5.885 5.885 0 01-.332-.057l-.062-.014c-.019-.005-.033-.01-.052-.014-.02-.005-.038-.015-.057-.02a.726.726 0 01-.19-.104.95.95 0 01-.233-.28c-.053-.09-.086-.171-.115-.224-.023-.052-.042-.08-.047-.076-.005 0 0 .034.019.09.02.058.043.138.086.238a.846.846 0 00.437.466.712.712 0 00.071.033h.005c.005 0 .005.005.005.005h-.015-.004c-.024.01-.053.014-.076.019a1.453 1.453 0 01-.319.043c-.014 0-.028 0-.038-.005-.005 0-.014 0-.019-.005h-.01c-.004 0-.014-.004-.023-.004-.014-.005-.033-.01-.048-.02a.538.538 0 01-.052-.028c-.038-.024-.08-.047-.119-.071v.043a2.113 2.113 0 00.033.26c.005.02.005.039.015.053a1.872 1.872 0 00.18.485c.095.185.214.338.338.442zM31.618 18.209c-.081.166-.181.36-.28.584-.1.224-.205.47-.29.746a3.61 3.61 0 00-.12.514l-.014.123c-.005.02-.005.043-.005.062v.029c0 .01 0 .019.005.028 0 .005 0 .014.005.024-.005 0-.01-.005-.014-.014-.005-.005-.005-.01-.01-.015-.005-.004-.005-.01-.005-.01 0-.004-.004-.004-.004-.004-.005-.01-.005-.014-.01-.019a2.961 2.961 0 01-.1-.28c-.047-.157-.066-.252-.076-.252-.01 0-.005.095.024.261.014.081.033.186.067.3 0 .004.004.014.004.023 0 .015.01.024.01.039.01.023.019.052.028.076.01.023.02.052.029.08.01.029.024.048.033.076.048.1.095.195.157.31l.019.033.019.033c.005.014.014.024.024.038-.019-.128-.034-.252-.053-.376 0-.014-.004-.028-.004-.042 0-.015-.005-.024-.005-.034-.005-.023-.005-.047-.005-.071 0-.038-.005-.08 0-.119v-.057-.01-.004-.01-.014c0-.019.005-.038.005-.057l.014-.119a3.87 3.87 0 01.11-.494 7.93 7.93 0 01.26-.742c.091-.223.177-.427.248-.598.143-.343.219-.557.204-.561-.01-.015-.104.195-.27.523z"/><path fill="#ffb888" fill-rule="evenodd" d="M26.893 22.715c.076 1.497 2.453 3.298 3.636 3.236 1.188-.061 1.45-1.25 1.003-2.666-.461-1.464-1.312-2.7-2.481-2.866-1.697-.262-2.234.803-2.158 2.296z"/><path fill="#dba17b" fill-rule="evenodd" d="M27.649 22.762c.028.756.955 1.82 1.801 2.096.66.214.138-1.003 1.065-.865.832.124.988.323.66-.756-.337-1.093-1.154-2.082-1.986-2.205-1.231-.18-1.602.604-1.54 1.73z"/><path fill="#ffb888" fill-rule="evenodd" d="M13.142 52.127c-1.065 3.612-1.94 7.895-2.324 9.791-.452 2.23.295 4.906 3.032 6.18 2.738 1.273 5.267.123 6.683-1.655 1.203-1.516 3.917-4.938 5.999-8.075-4.468-2.087-8.931-4.164-13.39-6.241z"/><path fill="#d27c00" fill-rule="evenodd" d="M11.902 53.082a.941.941 0 00.446 1.274c4.34 2.025 8.684 4.045 13.024 6.07a.94.94 0 001.245-.447 71.71 71.71 0 001.013-2.191c-4.896-2.277-9.787-4.559-14.678-6.84-.342.69-.699 1.416-1.05 2.134z"/><path fill="#ff9800" fill-rule="evenodd" d="M17.453 43.367c-.727 1.226-2.205 3.06-3.921 6.426-.186.366-.38.751-.58 1.155 4.89 2.282 9.787 4.558 14.678 6.84.214-.49.409-.96.575-1.393 1.274-3.365 1.74-5.409 2.191-6.778 1.24-3.774-.076-7.69-3.717-9.32-3.384-1.522-7.339-.115-9.226 3.07z"/><path fill="#ffb888" fill-rule="evenodd" d="M21.512 62.298c-.285-1.473-1.178-3.156-3.08-4.04-1.9-.888-3.764-.49-5.076.243-.75.418-3.27 3.018-4.672 6.24-1.34 3.076-2.182 9.925-3.527 15.448-.271 1.117.261 2.472 1.592 3.147 1.37.585 2.828.08 3.48-.87 2.899-4.22 7.852-9.444 9.344-12.448 1.564-3.147 2.101-6.878 1.94-7.72z"/><g fill-rule="evenodd"><path fill="#edad82" d="M7.428 82.047c.712-1.088 1.76-2.021.746-2.657-.81-.508-2.074-.31-3.027 1.14-1.814 2.777-3.358 3.733-3.441 4.945-.114 1.731-.631 2.866-.868 4.2a13.588 13.588 0 01-.72 2.6c-.393 1.056.286 1.393.73 1.201.443-.191.89-1.288 1.539-2.948.649-1.66 1.651-3.818 2.859-5.645.955-1.436 1.82-2.28 2.182-2.836z"/><path fill="#f5b082" d="M8.12 82.516c.722-1.172 1.345-2.16.343-2.967-1.004-.803-2.395-.458-3.354 1.11-1.838 2.995-3.004 4.276-3.028 5.577-.038 1.865-.546 3.08-.73 4.52a15.043 15.043 0 01-.648 2.802c-.375 1.14.378 1.491.854 1.288.476-.202.9-1.391 1.523-3.177.623-1.785 1.601-4.112 2.83-6.088.952-1.552 1.837-2.462 2.21-3.065z"/><path fill="#fdb686" d="M9.233 82.948c.708-1.14.237-2.602-.77-3.4-1.006-.797-2.788-.382-3.427 1.276-1.36 3.54-1.769 4.432-1.781 5.706-.02 1.823-.516 3.012-.686 4.42a14.37 14.37 0 01-.62 2.738c-.361 1.109.39 1.464.863 1.267.473-.198.883-1.355 1.48-3.101.598-1.746 1.558-4.012 2.76-5.929.941-1.506 1.815-2.39 2.181-2.977z"/><path fill="#eba67a" d="M6.547 84.683c.137.446.37.916.365 1.46.043-.077.09-.145.133-.221.943-1.512 1.824-2.392 2.18-2.977.305-.487-2.25-3.486-3.29-1.162-.546 1.243.245 1.692.612 2.9z"/><path fill="#fdb686" d="M6.248 81.705c-.093-1.688.519-2.364 1.59-2.146 1.717.35 2.267 3.082 2.154 3.666-.201 1.071-.603 2.352-.393 3.142.205.78.763 2.781-.202 2.77-.78-.008-1.103-.62-1.375-2.31-.507-3.056-1.66-3.113-1.774-5.122z"/></g></svg>