<svg xmlns="http://www.w3.org/2000/svg" xmlns:xlink="http://www.w3.org/1999/xlink" width="116.891" height="126.353"><defs><linearGradient id="prefix__c"><stop offset="0" stop-color="#fff"/><stop offset="1" stop-color="#fff" stop-opacity="0"/></linearGradient><linearGradient id="prefix__b"><stop offset="0"/><stop offset="1" stop-opacity="0"/></linearGradient><linearGradient id="prefix__a"><stop offset="0" stop-color="#ffe680"/><stop offset=".518" stop-color="#fc0"/><stop offset="1" stop-color="#806600"/></linearGradient><linearGradient xlink:href="#prefix__c" id="prefix__f" x1="89.661" y1="951.531" x2="91.456" y2="952.778" gradientUnits="userSpaceOnUse"/><radialGradient id="prefix__d" xlink:href="#prefix__a" gradientUnits="userSpaceOnUse" cy="368.75" cx="170" gradientTransform="matrix(.7539 0 0 .75633 -54.878 687.74)" r="139.11"/><radialGradient xlink:href="#prefix__b" id="prefix__e" cx="97.95" cy="959.377" fx="97.95" fy="959.377" r="8.39" gradientUnits="userSpaceOnUse" gradientTransform="matrix(-1.97946 -1.26583 1.97975 -3.09587 -1608.61 4050.16)"/></defs><g fill-rule="evenodd" transform="translate(-18.5 -924.446)"><path d="M81.676 924.696c-34.753 0-62.926 28.173-62.926 62.927 0 34.753 28.173 62.926 62.926 62.926 22.503 0 42.245-11.814 53.37-29.575l-53.37-33.351 53.37-33.351c-11.125-17.767-30.863-29.576-53.37-29.576z" fill="url(#prefix__d)" stroke="#000" stroke-width=".5"/><circle cx="94.262" cy="954.054" r="8.39" fill="url(#prefix__e)" stroke="#000" stroke-width=".6"/><path d="M94.741 948.676s-4.32.968-5.325 2.594c-1.006 1.625.051 5.545.051 5.545s.543-3.625 1.428-4.982c.884-1.358 3.846-3.157 3.846-3.157z" fill="url(#prefix__f)"/></g></svg>