<svg version="1.1" xmlns="http://www.w3.org/2000/svg" xmlns:xlink="http://www.w3.org/1999/xlink" width="116.89128" height="126.35297" viewBox="0,0,116.89128,126.35297"><defs><radialGradient cx="236.3394" cy="159.01587" r="104.87523" gradientUnits="userSpaceOnUse" id="color-1"><stop offset="0" stop-color="#ffe680"/><stop offset="0.51835" stop-color="#ffcc00"/><stop offset="1" stop-color="#806600"/></radialGradient><radialGradient cx="259.8851" cy="148.44478" r="19.71359" fx="259.8851" fy="148.44478" gradientUnits="userSpaceOnUse" id="color-2"><stop offset="0" stop-color="#000000"/><stop offset="1" stop-color="#000000" stop-opacity="0"/></radialGradient><linearGradient x1="252.71594" y1="143.90876" x2="254.51066" y2="145.1551" gradientUnits="userSpaceOnUse" id="color-3"><stop offset="0" stop-color="#ffffff"/><stop offset="1" stop-color="#ffffff" stop-opacity="0"/></linearGradient></defs><g transform="translate(-181.55436,-116.82352)"><g data-paper-data="{&quot;isPaintingLayer&quot;:true}" fill-rule="evenodd" stroke-linecap="butt" stroke-linejoin="miter" stroke-dasharray="" stroke-dashoffset="0" style="mix-blend-mode: normal"><path d="M298.10092,146.64898l-53.37006,33.35104l53.37006,33.35107c-11.1254,17.7616 -30.86754,29.5754 -53.37006,29.5754c-34.75347,0 -62.9265,-28.173 -62.9265,-62.92647c0,-34.75346 28.17303,-62.9265 62.9265,-62.9265c22.50671,0 42.24466,11.80921 53.37006,29.57546z" fill="url(#color-1)" stroke="#000000" stroke-width="0.5" stroke-miterlimit="4"/><path d="M248.92596,146.43177c0,-4.63378 3.75642,-8.3902 8.3902,-8.3902c4.63378,0 8.3902,3.75642 8.3902,8.3902c0,4.63378 -3.75642,8.3902 -8.3902,8.3902c-4.63378,0 -8.3902,-3.75642 -8.3902,-8.3902z" fill="url(#color-2)" stroke="#000000" stroke-width="0.6" stroke-miterlimit="4"/><path d="M253.94919,144.20991c-0.88443,1.35772 -1.42732,4.98208 -1.42732,4.98208c0,0 -1.05733,-3.9194 -0.05152,-5.5448c1.00581,-1.6254 5.32546,-2.59378 5.32546,-2.59378c0,0 -2.96219,1.79878 -3.84662,3.1565z" fill="url(#color-3)" stroke="none" stroke-width="1" stroke-miterlimit="10"/></g></g></svg>