<svg version="1.1" xmlns="http://www.w3.org/2000/svg" xmlns:xlink="http://www.w3.org/1999/xlink" width="70.14055" height="68.38221" viewBox="0,0,70.14055,68.38221"><g transform="translate(-204.92973,-145.8089)"><g data-paper-data="{&quot;isPaintingLayer&quot;:true}" fill-rule="evenodd" stroke="none" stroke-width="0.51203" stroke-linecap="butt" stroke-linejoin="miter" stroke-miterlimit="10" stroke-dasharray="" stroke-dashoffset="0" style="mix-blend-mode: normal"><path d="M262.00074,154.2827c1.16993,-0.34629 2.60396,0.72648 2.9039,2.17272c0.07331,0.35357 0.58352,3.05644 0.80934,4.28878c0.06252,0.34114 0.15566,0.80615 0.20708,1.03348c0.05118,0.22734 0.12111,0.57624 0.15512,0.77512c0.03377,0.19891 0.10315,0.57106 0.15406,0.82684c0.05092,0.25578 0.14166,0.74407 0.20207,1.0852c0.06041,0.34084 0.20656,1.14879 0.32526,1.79511c0.68074,3.70872 0.04462,4.63795 -4.7964,7.00721c-1.73686,0.85008 -3.25239,1.59803 -3.36846,1.66242c-0.11577,0.06415 -2.34542,1.15889 -4.95442,2.43265c-2.60889,1.2737 -5.88209,2.87228 -7.27366,3.55245c-1.39131,0.68021 -2.67204,1.30503 -2.84615,1.38831c-0.17383,0.08329 -0.95653,0.47303 -1.73923,0.86614c-2.47391,1.24242 -3.00102,1.27914 -3.92669,0.2744c-0.66291,-0.71921 -0.74496,-0.93908 -1.12351,-3.01194c-0.05698,-0.31271 -0.1538,-0.83588 -0.21474,-1.16278c-0.0612,-0.32665 -0.15643,-0.83822 -0.21183,-1.13667c-0.05539,-0.29846 -0.17622,-0.93803 -0.26828,-1.42114c-0.09233,-0.48313 -0.21526,-1.13407 -0.27303,-1.44675c-0.05804,-0.31271 -0.15063,-0.80097 -0.20629,-1.0852c-0.09339,-0.47873 -0.17807,-0.93236 -0.42419,-2.27359c-0.38305,-2.08504 -0.02272,-3.58508 1.15622,-4.81327c0.44617,-0.46469 24.51412,-12.45467 25.71388,-12.80976M258.37586,157.51168c-0.21077,-0.29486 -0.47746,-0.29175 -0.76606,0.00955c-0.28914,0.30154 -0.30813,0.89897 -0.03668,1.14c0.55794,0.49499 1.25965,-0.51005 0.80274,-1.1496M256.75608,158.27355c-0.34689,-0.40963 -0.96946,-0.0349 -0.98765,0.5946c-0.0187,0.64605 0.52023,0.92123 0.93149,0.47561c0.22766,-0.24649 0.25826,-0.83149 0.05619,-1.0702M260.27175,158.47783c-0.22742,-0.22293 -0.39044,-0.2038 -0.65926,0.07681c-0.44161,0.4609 -0.20843,1.36815 0.33212,1.29083c0.51389,-0.07369 0.72914,-0.97345 0.32711,-1.3676M255.06098,159.03904c-0.253,-0.24829 -0.3076,-0.25269 -0.60464,-0.04889c-0.49042,0.33675 -0.35533,1.3922 0.1778,1.3922c0.52179,0 0.8249,-0.9533 0.42683,-1.3433M253.5674,160.0024c-0.30315,-0.62201 -1.03623,-0.28526 -1.03623,0.47587c0,0.65975 0.43024,0.92924 0.84071,0.52682c0.28992,-0.28422 0.36299,-0.65895 0.19548,-1.00267M260.64786,160.38231c-0.27279,-0.26741 -0.3762,-0.26043 -0.68986,0.04708c-0.31683,0.31063 -0.3498,0.87366 -0.06595,1.12556c0.59647,0.52914 1.33062,-0.6091 0.75581,-1.17263M261.15362,162.72081c-0.05307,-0.68432 -0.67272,-0.85397 -0.98136,-0.26871c-0.19998,0.37918 -0.19813,0.61683 0.00737,0.90443c0.36193,0.50692 1.02855,0.07162 0.97394,-0.63571M252.26119,162.57571c-0.09154,-0.12828 -0.27515,-0.22966 -0.41549,-0.22966c-0.54211,0 -0.81725,1.06555 -0.35666,1.38159c0.5727,0.39337 1.20398,-0.54778 0.77214,-1.15192M245.40949,163.91926c-0.09154,-0.12827 -0.27515,-0.22966 -0.41549,-0.22966c-0.46981,0 -0.80512,0.97811 -0.45347,1.3226c0.52548,0.5152 1.3116,-0.47378 0.86894,-1.09293M261.33756,164.10754c-0.24084,-0.26094 -0.27989,-0.26146 -0.6099,-0.00697c-0.49305,0.38019 -0.37646,1.34588 0.1625,1.34588c0.55847,0 0.85762,-0.89459 0.4474,-1.33891M252.57597,164.36875c-0.33133,-0.32482 -0.8175,-0.11405 -0.9523,0.41302c-0.15193,0.59302 0.25853,1.10096 0.70145,0.86872c0.40071,-0.21027 0.55266,-0.98613 0.25087,-1.28173M243.65263,164.57383c-0.29968,-0.20588 -0.35588,-0.20252 -0.59831,0.03515c-0.45559,0.44666 -0.31998,1.35416 0.20233,1.35416c0.58458,0 0.88452,-1.05388 0.39597,-1.38932M247.30521,164.88547c-0.31129,-0.30543 -0.70856,-0.12854 -0.88425,0.39363c-0.2303,0.68432 0.26564,1.17053 0.78507,0.76992c0.31366,-0.24179 0.36958,-0.89845 0.09919,-1.16354M242.16192,165.50513c-0.22741,-0.34036 -0.52102,-0.33777 -0.79749,0.00672c-0.27381,0.34165 -0.27935,0.76889 -0.01396,1.08571c0.46693,0.55707 1.22852,-0.46838 0.81145,-1.09242M261.8036,166.05957c-0.1543,-0.28241 -0.67585,-0.26508 -0.88636,0.02975c-0.51654,0.72287 0.22844,1.62884 0.77688,0.94504c0.23874,-0.2974 0.27963,-0.66284 0.10948,-0.97474M240.49266,166.19038c-0.51044,-0.5004 -1.29894,0.49141 -0.86894,1.09323c0.19887,0.27855 0.58377,0.29768 0.82093,0.04061c0.20392,-0.22083 0.23479,-0.95068 0.04802,-1.13379M252.93175,166.19043c-0.35611,-0.34892 -1.0333,0.12077 -1.0333,0.71663c0,0.59949 0.50387,0.81622 0.97528,0.41949c0.21579,-0.18183 0.25457,-0.94323 0.05804,-1.13616M247.72869,166.81273c-0.34503,-0.48287 -0.99558,-0.09026 -0.99558,0.60076c0,0.73424 0.66872,0.93724 1.00269,0.3044c0.20023,-0.37968 0.19839,-0.61733 -0.00711,-0.90518M262.10239,167.84412c-0.57587,-0.5646 -1.32057,0.55136 -0.7964,1.19354c0.16724,0.20483 0.57957,0.15026 0.75869,-0.10061c0.19468,-0.27205 0.21683,-0.91758 0.03771,-1.09293M253.31504,168.15628c-0.34982,-0.48984 -0.99532,-0.11304 -0.99532,0.58111c0,0.53668 0.31078,0.83254 0.67456,0.64167c0.45585,-0.23926 0.60832,-0.82037 0.32078,-1.22279M248.04297,168.60577c-0.37115,-0.36387 -0.99373,0.06107 -0.99373,0.6784c0,0.29018 0.31416,0.70941 0.53179,0.70941c0.47696,0 0.82148,-1.0353 0.46192,-1.3878M239.33392,169.09223c-0.1762,-0.36207 -0.59935,-0.43216 -0.86606,-0.14328c-0.22001,0.23846 -0.25246,0.87262 -0.05619,1.10434c0.41208,0.48671 1.21799,-0.35301 0.92227,-0.96105M253.60252,169.95786c-0.61546,-0.54621 -1.34881,0.59127 -0.75581,1.17263c0.27279,0.26741 0.3762,0.26043 0.68986,-0.04708c0.31709,-0.31063 0.35006,-0.87366 0.06595,-1.12556M248.32066,170.41071c-0.35615,-0.18698 -0.58645,-0.09388 -0.80831,0.3269c-0.24293,0.4606 0.01293,1.11621 0.4358,1.11621c0.50624,0 0.81831,-1.20932 0.37249,-1.44311M260.77058,170.4746c-0.32133,-0.28499 -0.65,-0.1544 -0.85946,0.34138c-0.172,0.40731 -0.06015,0.80948 0.26565,0.95509c0.58723,0.26225 1.09689,-0.8501 0.59383,-1.29648M239.62607,170.87131c-0.34292,-0.5131 -1.01063,-0.1857 -1.01063,0.49553c0,0.42209 0.1807,0.69365 0.46165,0.69365c0.50567,0 0.8481,-0.74147 0.54895,-1.18915M259.21777,171.3601c-0.34823,-0.48727 -0.99558,-0.09001 -0.99558,0.61061c0,0.69571 0.68722,0.89252 1.00589,0.28837c0.19705,-0.37372 0.19441,-0.61241 -0.0103,-0.89897M253.94565,171.80959c-0.39939,-0.39185 -0.93649,-0.0003 -0.93649,0.68249c0,0.66363 0.40574,0.88062 0.84339,0.45156c0.30284,-0.2969 0.35085,-0.88137 0.09312,-1.13404M257.67555,172.29604c-0.29521,-0.60674 -1.04386,-0.31111 -1.06524,0.42052c-0.02215,0.77097 0.66873,0.94215 1.01325,0.25112c0.16619,-0.33309 0.17305,-0.42283 0.05197,-0.67163M248.78208,172.39349c-0.21077,-0.29506 -0.47772,-0.2917 -0.76632,0.0096c-0.29467,0.30725 -0.30787,0.89901 -0.02586,1.1491c0.53893,0.47848 1.23457,-0.53924 0.79218,-1.15864M239.9937,172.69476c-0.28305,-0.51853 -1.06179,-0.09491 -1.06179,0.57778c0,0.50478 0.64657,0.8501 0.94071,0.50225c0.18809,-0.22189 0.25641,-0.83224 0.12108,-1.08M256.00524,172.9836c-0.12798,-0.23406 -0.64711,-0.27233 -0.82623,-0.06078c-0.22265,0.26331 -0.26011,0.77382 -0.07677,1.04823c0.45058,0.67425 1.30187,-0.25679 0.903,-0.98741M265.5713,173.24164c0.21814,-0.21388 0.32736,-0.1875 0.80985,0.19552c0.23793,0.18905 0.52045,0.37552 0.62809,0.41432c0.11765,0.04267 0.17149,0.1319 0.13507,0.22501c-0.04274,0.10863 0.01003,0.15414 0.17938,0.15414c0.23875,0 1.33484,1.01666 1.33484,1.23804c0,0.05794 0.07123,0.10552 0.15828,0.10552c2.14506,1.35517 3.82514,5.1132 4.79774,7.23955c0.06305,0.23044 0.1836,0.44456 0.26749,0.47613c0.08389,0.03155 0.15274,0.16604 0.15274,0.29871c0,0.13267 0.04722,0.27001 0.10526,0.30492c0.36773,0.94084 0.52813,1.89972 0.73788,2.94547c0,0.3411 0.04485,0.62016 0.09946,0.62016c0.0591,0 0.09671,0.83669 0.09259,2.06696c-0.0984,4.39131 -5.66468,9.1914 -8.91201,10.54642c-0.39305,0.12776 -0.84018,0.29509 -0.99424,0.3719c-0.1538,0.07681 -0.40442,0.13966 -0.55663,0.13966c-0.15247,0 -0.42973,0.06077 -0.61624,0.13526c-0.51283,0.20457 -1.80466,0.27724 -2.6058,0.14664c-0.14483,-0.02356 -0.35217,-0.05018 -0.4606,-0.05896c-0.15934,-0.01319 -0.1137,-0.09569 0.23716,-0.42958c0.239,-0.22731 0.43747,-0.49473 0.44107,-0.5943c0.00528,-0.1412 0.02717,-0.13111 0.10024,0.04682l0.09339,0.22759l0.65158,-0.32923c0.35827,-0.18129 0.72179,-0.43474 0.80805,-0.56354c0.086,-0.1288 0.2121,-0.23431 0.2799,-0.23431c0.47296,0 1.30421,-1.30527 1.54665,-2.42851c0.0736,-0.34109 0.22159,-0.74507 0.3287,-0.89741c0.86737,-1.23395 1.0805,-4.58517 0.44582,-7.00872c-0.45982,-1.75617 -1.72501,-4.64477 -2.26711,-5.17623c-0.09655,-0.09466 -0.2332,-0.42205 -0.30337,-0.72749c-0.07017,-0.30543 -0.17094,-0.72362 -0.22397,-0.92923c-0.05275,-0.20535 -0.09629,-0.4813 -0.09629,-0.61268c0,-0.23795 -0.10314,-0.60339 -0.39306,-1.39063c-0.0839,-0.22734 -0.33635,-0.67788 -0.56111,-1.0009l-0.40862,-0.58783c0,0 -0.17059,0.08998 -0.4081,-0.30517c-0.12215,-0.10397 -0.40231,-0.26405 -0.62232,-0.35587c-0.21999,-0.09207 -0.72229,-0.30207 -1.11614,-0.46682c-0.88213,-0.36882 -1.15174,-0.16552 2.76016,-2.08297c1.76195,-0.86377 3.2714,-1.63708 3.3545,-1.71829M249.02807,174.18486c-0.62496,-0.42933 -1.26967,0.63829 -0.71438,1.18243c0.27305,0.26767 0.37646,0.26068 0.69012,-0.04682c0.3432,-0.33644 0.35534,-0.90828 0.02427,-1.13561M240.28092,174.45797c-0.32025,-0.31422 -0.84102,-0.03748 -0.98373,0.52267c-0.15482,0.60859 0.52682,1.05414 0.93597,0.61112c0.20367,-0.22083 0.23453,-0.95068 0.04776,-1.13379M240.63653,176.36531c-0.44663,-0.3965 -0.96683,-0.04243 -0.96683,0.65794c0,0.42464 0.15221,0.61783 0.48777,0.61783c0.52971,0 0.87634,-0.92327 0.47906,-1.27577M247.84991,176.97056c-0.45058,-0.67425 -1.30187,0.25679 -0.903,0.98741c0.12793,0.23406 0.64711,0.27233 0.82623,0.06078c0.22291,-0.26331 0.26011,-0.77382 0.07677,-1.04823M246.20936,177.69754c-0.35431,-0.41873 -0.99424,0.02717 -0.97554,0.67966c0.02638,0.90776 1.06153,0.76785 1.09661,-0.14819c0.00765,-0.20456 -0.04669,-0.44379 -0.12108,-0.53146M241.05526,178.30476c-0.22082,-0.47484 -0.87951,-0.25578 -1.03278,0.34397c-0.14008,0.54697 0.46427,1.07043 0.86235,0.74663c0.21132,-0.17199 0.30864,-0.79345 0.17041,-1.0906M244.70863,178.9066c-0.06069,-0.69002 -0.75632,-0.78468 -1.02856,-0.14017c-0.17675,0.41847 -0.0641,0.81623 0.27409,0.96726c0.3833,0.17118 0.80197,-0.2876 0.75447,-0.8271M242.93746,179.29455c-0.28253,-0.27698 -0.46851,-0.26018 -0.7302,0.06569c-0.28805,0.35872 -0.28831,0.90828 -0.00103,1.10561c0.60778,0.41716 1.26967,-0.64319 0.73097,-1.17132M235.62502,185.9859c-0.04274,-0.45804 0.01161,-0.5863 0.17886,-0.42233c0.03823,0.0375 0.34265,0.07835 0.67636,0.09052c0.3337,0.01215 0.91485,0.08224 1.29182,0.15543c0.37698,0.07345 0.96157,0.14043 1.2995,0.14897c2.42662,0.33033 6.13413,5.08653 7.30406,7.57191c0.03799,0.15647 0.12979,0.35406 0.20418,0.43915c0.07439,0.08531 0.215,0.36438 0.31234,0.62016c0.09761,0.25578 0.25378,0.61451 0.3469,0.79684c0.09311,0.18259 0.13875,0.36182 0.1013,0.39854c-0.03746,0.03673 0.01952,0.15879 0.12636,0.27156c0.16276,0.17118 0.30522,0.57309 0.3775,1.065c0.00818,0.0569 0.07017,0.23509 0.1377,0.39621c0.0671,0.16112 0.09919,0.33 0.0707,0.375c-0.02849,0.04526 0.02216,0.22708 0.11211,0.40423c0.14562,0.28604 0.18941,0.51752 0.29757,1.57115c0.01503,0.14664 0.06597,0.32742 0.11291,0.40242c0.26932,0.4266 0.04142,5.06713 -0.24877,5.06713c-0.06386,0 -0.10946,0.32199 -0.11528,0.81442c-0.00345,0.2873 -0.32475,0.83041 -0.60913,1.02878c-0.13879,0.09698 -0.18438,0.22733 -0.15301,0.43708c-0.06007,1.20067 -2.11564,2.45333 -1.90224,2.28213c-0.18862,0.13009 -0.4052,0.29561 -0.48143,0.36828c-2.02372,1.53928 -4.43468,2.38891 -7.27109,3.40748c-0.33741,0.3305 -3.65804,0.16177 -3.87805,-0.18738c-0.03139,-0.04939 -0.17331,-0.09 -0.31551,-0.09c-0.14245,0 -0.34109,-0.04164 -0.44187,-0.09285c-0.10077,-0.05121 -0.40917,-0.20225 -0.68563,-0.33596l-0.5028,-0.24285l1.24067,-0.06026c2.10621,-0.10269 3.70087,-0.96777 4.74658,-2.57513c0.20341,-0.31271 0.5139,-0.73011 0.69012,-0.92796c1.98297,-2.22697 1.74582,-7.17232 -0.55611,-11.60258c-0.39228,-0.75441 -0.67032,-1.43923 -0.73442,-1.80855c-0.05672,-0.3269 -0.15459,-0.87338 -0.21764,-1.21451c-0.16435,-0.89175 -0.2958,-1.73251 -0.29941,-1.91174c-0.00158,-0.08536 -0.06094,-0.35897 -0.13163,-0.60829c-0.09841,-0.34627 -0.09973,-0.49861 -0.00608,-0.64602c0.09948,-0.15596 0.09262,-0.19268 -0.03612,-0.19268c-0.09813,0 -0.15907,-0.09595 -0.15907,-0.24983c0,-0.13759 -0.07466,-0.53558 -0.16593,-0.88473c-0.12952,-0.4955 -0.13822,-0.66723 -0.03983,-0.78335c0.08944,-0.10553 0.09182,-0.14897 0.00793,-0.14897c-0.06516,0 -0.11845,-0.13009 -0.11845,-0.2894c0,-0.15905 -0.04643,-0.33466 -0.10314,-0.39053c-0.05672,-0.05561 -0.12477,-0.35535 -0.15089,-0.66648c-0.02638,-0.31084 -0.09708,-0.72827 -0.15696,-0.92716c-0.06015,-0.19891 -0.12981,-0.5827 -0.15485,-0.8527M206.40804,195.32715l0.07888,-0.55424l0.65029,0.63183c0.35746,0.34734 0.70066,0.63157 0.76266,0.63157c0.06199,0 0.20181,0.09673 0.31076,0.21492c0.10897,0.11793 0.39333,0.30182 0.63154,0.40811c0.23845,0.10656 0.49434,0.26561 0.56899,0.3538c0.07466,0.08793 0.19495,0.16009 0.26723,0.16009c0.07254,0 0.55293,0.24618 1.06761,0.54722c0.51495,0.30105 1.11192,0.62795 1.32665,0.72623c0.215,0.09854 0.41733,0.22087 0.44978,0.27208c0.0322,0.05122 0.51175,0.31218 1.0655,0.57985c0.55374,0.26766 1.06285,0.53895 1.13144,0.60283c0.06888,0.06388 0.45719,0.2757 0.86292,0.4707c0.406,0.195 0.80909,0.40889 0.89615,0.47535c0.08681,0.06621 0.44268,0.2713 0.79063,0.45569c0.34767,0.18414 0.65606,0.36727 0.68507,0.40656c0.02906,0.03957 0.40865,0.24724 0.84339,0.46164c2.49601,1.30522 3.1841,2.11671 3.59799,5.05248c0.06885,0.13371 0.05091,0.18104 -0.06911,0.18104c-0.08917,0 -0.18811,0.06595 -0.21975,0.1469c-0.08679,0.22164 -0.34347,0.28785 -0.28649,0.07397c-1.60641,-1.16021 -7.85595,-4.26468 -12.42777,-6.93851c-1.96267,-0.9961 -3.64229,-2.52912 -2.98412,-5.36009" fill="#242425"/><path d="M240.34064,145.80897c2.01929,0.02153 4.06275,0.35307 6.15,0.51671c0.48857,0 0.21371,0.21906 -1.04885,0.83639c-0.77008,0.3763 -1.39025,0.75208 -1.53614,0.93079c-0.27038,0.33078 -0.68455,0.38613 -1.52686,0.20431c-0.24323,-0.0525 -0.79772,-0.14845 -1.23273,-0.21311c-0.84628,-0.12572 -0.91459,-0.13786 -3.62514,-0.64011c-1.93789,-0.35897 -2.6971,-0.34604 -4.37224,0.07474c-0.75394,0.18931 -2.43887,0.90406 -0.51494,-0.06052c1.19589,-0.54237 2.62739,-1.24529 3.97944,-1.55797c0,-0.05018 0.49542,-0.0913 1.10084,-0.0913M243.52918,146.68906c-0.20917,-0.31268 -0.52443,-0.33621 -0.72598,-0.05405c-0.08099,0.11328 -0.17488,0.17871 -0.20893,0.1456c-0.11211,-0.11018 -0.49911,0.07267 -0.49911,0.23587c0,0.10501 -0.06727,0.14276 -0.196,0.10991c-0.4817,-0.12365 -0.67665,0.22578 -0.27145,0.48595c0.30997,0.19914 0.62864,0.05043 0.52391,-0.24388c-0.03218,-0.09052 0.07255,-0.01293 0.23241,0.1725c0.3295,0.38147 0.75343,0.45259 0.8368,0.14017c0.03535,-0.13216 0.11713,-0.17794 0.2543,-0.14276c0.24375,0.06233 0.54765,-0.15957 0.47458,-0.3463c-0.04169,-0.1063 0.00158,-0.10992 0.20893,-0.01733c0.33793,0.15103 0.57693,-0.03362 0.40045,-0.30932c-0.15436,-0.24156 -0.57774,-0.2894 -0.7318,-0.08276c-0.11079,0.14845 -0.14324,0.13836 -0.29809,-0.09362M255.0605,154.78682c4.71562,-2.31729 5.69195,-2.76212 5.95628,-2.71272c3.48402,0.6489 4.54609,1.51473 5.05365,4.12144c0.08864,0.45469 0.2055,1.03605 0.25958,1.29184c0.05408,0.25578 0.15326,0.76735 0.22027,1.13667c0.06727,0.36958 0.16252,0.88115 0.21157,1.13692c0.04933,0.25578 0.14404,0.76735 0.21078,1.13667c0.06674,0.36958 0.16461,0.88114 0.21764,1.13692c0.08336,0.40297 0.30127,1.58722 0.63762,3.46224c0.36246,2.02089 0.32738,3.43481 -0.11317,4.54713c-0.9183,2.31855 -1.38466,2.71192 -5.7569,4.85539c-1.81393,0.88917 -3.35188,1.6803 -3.41756,1.75814c-0.1424,0.1681 -0.1118,0.18568 1.1589,0.67345c1.77514,0.68097 2.70923,1.78789 3.05243,3.61609c0.06911,0.36933 0.16621,0.88089 0.21526,1.13667c0.04933,0.25578 0.14008,0.74433 0.20181,1.0852c0.06146,0.34109 0.20734,1.13172 0.32421,1.75683c0.11662,0.62536 0.37778,2.06691 0.58012,3.20383c0.49148,2.76131 0.59912,3.33909 0.89141,4.78766c0.19046,0.94478 0.13929,2.86713 -0.09893,3.70973c-0.39331,1.39169 -0.7608,1.84916 -1.94103,2.4179c-0.98634,0.47509 -0.93279,0.46889 -1.26545,0.14276c-0.4439,-0.43504 -0.63489,-0.36594 -5.33289,1.93295l-4.48012,2.19237l-1.26519,1.24552c-1.36225,1.34151 -2.504,2.01342 -2.06978,1.21789c0.20286,-0.3714 0.43606,-2.19055 0.43606,-3.40117c0,-5.81467 -4.09037,-13.54644 -8.5251,-16.11461c-0.17305,-0.10034 -0.33662,-0.26431 -0.36326,-0.3644c-0.04168,-0.15645 -0.17223,-0.18079 -0.92989,-0.17302c-0.4846,0.00491 -1.14224,-0.04035 -1.46117,-0.10035c-0.31871,-0.06 -0.92623,-0.16811 -1.34989,-0.24001c-0.88454,-0.15027 -0.99709,-0.10794 -1.17436,-1.18875c-0.62731,-3.80994 -1.37539,-7.08272 -2.05175,-11.17527c-1.89183,-7.08247 -0.73211,-7.63327 9.64876,-12.18041c3.67444,-1.8039 9.21887,-4.52723 12.32061,-6.05156M263.61986,154.3462c-0.56085,-0.28294 -1.00037,-0.34449 -1.54932,-0.21698c-0.85833,0.19901 -25.31311,12.2702 -25.80404,12.73703c-1.29868,1.23511 -1.71311,3.08634 -1.2351,5.51768c0.11581,0.58864 0.26195,1.34949 0.325,1.69036c0.06278,0.34114 0.15696,0.82942 0.20919,1.0852c0.05223,0.25578 0.16672,0.86045 0.25457,1.34356c1.17018,6.43347 1.28101,6.78335 2.35809,7.45321c0.39671,0.24672 0.59249,0.29767 1.14118,0.29767h0.6624l12.65704,-6.20966c11.88949,-5.83346 12.68879,-6.24259 13.17946,-6.74355c1.23856,-1.26461 1.5844,-3.01447 1.07606,-5.44242c-0.12477,-0.59692 -0.39542,-1.9919 -0.60119,-3.10038c-0.2055,-1.10849 -0.42155,-2.25936 -0.47985,-2.55781c-0.20075,-1.03009 -0.31471,-1.63192 -0.53288,-2.81617c-0.30387,-1.64899 -0.8352,-2.62116 -1.66035,-3.03755M217.11113,155.16684c0,0.13865 -0.31416,0.63287 -0.51624,0.81209c-0.12188,0.10811 -0.22159,0.24259 -0.22159,0.29845c-0.19154,0.28965 -0.36024,0.30873 0.0253,0.61369c0.36039,0.26947 0.51943,0.30542 3.13713,0.70577c0.37698,0.05767 0.94626,0.14845 1.26493,0.20147c0.31891,0.05328 0.92197,0.15155 1.34036,0.21854c0.8489,0.13629 0.86842,0.20068 0.15538,0.51646c-4.46492,1.97796 -6.60328,6.87285 -5.45654,12.49205c0.14483,0.71047 0.33925,1.71056 0.43158,2.22212c0.09259,0.51156 0.21027,1.16252 0.26143,1.44675c0.11633,0.64501 0.97973,5.23619 1.47699,7.85425c0.05382,0.28422 0.14404,0.74925 0.20049,1.03348c0.05619,0.28422 0.17885,0.93519 0.27277,1.44675c0.18097,0.98716 0.5152,2.75899 0.68193,3.6171c0.0554,0.28427 0.12899,0.67942 0.16356,0.87857c0.06305,0.36079 0.17253,0.96337 0.36141,1.98932c0.05487,0.29846 0.19944,1.05414 0.32104,1.67924c0.41366,2.12696 0.79114,4.14553 1.15967,6.20107c0.37775,2.106 0.52494,2.74843 0.91088,3.9787c0.20497,0.6538 0.40966,1.25899 0.45479,1.34538c1.24386,2.38138 1.69547,3.11254 2.07138,3.3541c0.35955,0.23096 0.32158,0.31243 -0.28332,0.60804l-0.53633,0.26199l-0.59671,-0.2744c-0.32842,-0.15103 -0.61278,-0.31112 -0.63205,-0.35612c-0.01952,-0.045 -0.10235,-0.08172 -0.18466,-0.08172c-0.08204,0 -0.14931,-0.03517 -0.14931,-0.07811c0,-0.04293 -0.15406,-0.14457 -0.34267,-0.22604c-0.42841,-0.18517 -0.65133,-0.38716 -0.48645,-0.44095c0.08601,-0.02818 0.08416,-0.17611 -0.00685,-0.55086c-0.06859,-0.28189 -0.1612,-0.67529 -0.20576,-0.87417c-0.07518,-0.33463 -0.31709,-0.93801 -0.54818,-1.36811c-0.05327,-0.09856 -0.09655,-0.33727 -0.09655,-0.52995c-1.99127,-3.06796 -16.87518,-6.92695 -15.07438,-9.72968c0,-0.08483 -0.04748,-0.15414 -0.10552,-0.15414c-0.17807,0 -0.12662,-1.52665 0.06463,-1.9221c0.09365,-0.19319 0.21236,-0.35147 0.26354,-0.35147c0.05144,0 0.09339,-0.04939 0.09339,-0.10991c0,-0.06076 0.24351,-0.34239 0.54081,-0.62662c0.45244,-0.43161 0.54952,-0.59093 0.59331,-0.97292c0.81629,-6.68243 -1.91971,-13.69923 -2.81132,-21.58935c-1.47709,-7.5214 6.81637,-9.9449 11.66888,-13.46638M261.57542,180.24408c-0.19416,-0.19035 -0.40072,-0.14768 -0.40072,0.0825c0,0.11379 0.04801,0.20664 0.10631,0.20664c0.12636,0 0.02058,1.1372 -0.11976,1.28668c-0.05038,0.05405 -0.0918,0.22578 -0.0918,0.38147c0,0.15595 -0.04196,0.30882 -0.09312,0.33958c-0.05118,0.03101 -0.12531,0.34783 -0.16488,0.7037c-0.03957,0.35609 -0.1385,0.76371 -0.21948,0.90569c-0.19254,0.337 -0.19307,0.104 -0.00155,-0.61319c0.61067,-2.28698 0.61675,-3.27261 0.0187,-3.07735c-0.17278,0.05638 -0.21868,0.39517 -0.04879,0.36052c0.17144,-0.0349 0.16406,0.48338 -0.01638,1.15995c-0.06833,0.25578 -0.14904,0.63959 -0.17938,0.85321c-0.0306,0.21363 -0.09787,0.41379 -0.14957,0.44535c-0.05199,0.0313 -0.09444,0.2144 -0.09444,0.40656c0,0.19242 -0.04748,0.37839 -0.10526,0.41354c-0.05802,0.03491 -0.10552,0.20974 -0.10552,0.38845c0,0.20351 -0.03693,0.28785 -0.09919,0.22629c-0.06226,-0.06157 0.03561,-0.65769 0.26195,-1.59676c0.44002,-1.82357 0.4474,-1.98831 0.09866,-2.17116c-0.31367,-0.16475 -0.58247,-0.01061 -0.33397,0.19138c0.1609,0.13087 0.12634,1.12191 -0.04513,1.30295c-0.05118,0.05405 -0.09312,0.2488 -0.09312,0.4332c0,0.18414 -0.04087,0.35949 -0.09049,0.38975c-0.04986,0.03026 -0.12108,0.30904 -0.15828,0.61991c-0.07492,0.62435 -0.24929,1.15711 -0.34742,1.06091c-0.03482,-0.03414 -0.00581,-0.28475 0.06436,-0.55682c0.27622,-1.06813 0.53185,-2.35712 0.53185,-2.68014c0,-0.40162 -0.33028,-0.65302 -0.58538,-0.44561c-0.15511,0.12621 -0.10341,0.35173 0.0583,0.25397c0.18837,-0.1143 0.2005,0.14946 0.03879,0.83871c-0.0918,0.3913 -0.19047,0.89742 -0.21922,1.12475c-0.02849,0.22733 -0.0947,0.45751 -0.14667,0.51156c-0.05199,0.05406 -0.0947,0.25164 -0.0947,0.43915c0,0.18776 -0.04722,0.34113 -0.10526,0.34113c-0.05802,0 -0.10552,0.17199 -0.10552,0.3825c0,0.26277 -0.03403,0.34889 -0.10868,0.2757c-0.07492,-0.07344 -0.01029,-0.50798 0.20656,-1.39013c0.46666,-1.89908 0.49252,-2.12875 0.26881,-2.37108c-0.31339,-0.33931 -0.75473,-0.17638 -0.46139,0.17018c0.1514,0.17896 0.13584,1.20699 -0.01901,1.26209c-0.05329,0.01888 -0.09708,0.21388 -0.09708,0.4332c0,0.21906 -0.04748,0.42727 -0.10552,0.46242c-0.05775,0.03517 -0.10526,0.16241 -0.10526,0.28294c0,0.12054 -0.0459,0.3621 -0.10183,0.53641c-0.05593,0.17458 -0.13482,0.457 -0.1749,0.62743c-0.04537,0.19215 -0.08888,0.24621 -0.11423,0.14225c-0.02268,-0.09233 0.07624,-0.62718 0.22001,-1.18839c0.46983,-1.83749 0.48408,-2.44166 0.06015,-2.55054c-0.28306,-0.07267 -0.39966,0.20328 -0.15854,0.37604c0.17912,0.12855 0.02374,1.10823 -0.36484,2.29789c-0.05725,0.17455 -0.10367,0.44197 -0.10367,0.5943c0,0.15233 -0.04748,0.27699 -0.10552,0.27699c-0.05802,0 -0.10552,0.16267 -0.10552,0.36156c0,0.19888 -0.05118,0.36182 -0.1137,0.36182c-0.12398,0 -0.11343,-0.06672 0.27119,-1.70536c0.39728,-1.69296 0.40994,-1.95908 0.09998,-2.12176c-0.215,-0.11296 -0.28464,-0.11348 -0.39122,-0.00253c-0.10266,0.10655 -0.10214,0.14454 0.00206,0.18207c0.15986,0.05768 0.18519,1.27037 0.02638,1.27037c-0.05802,0 -0.10552,0.18595 -0.10552,0.41328c0,0.22759 -0.04748,0.41354 -0.10526,0.41354c-0.05802,0 -0.10552,0.18337 -0.10552,0.40733c0,0.22397 -0.04748,0.43606 -0.10552,0.47096c-0.05775,0.03517 -0.10526,0.22397 -0.10526,0.41949c0,0.19578 -0.04748,0.35561 -0.10552,0.35561c-0.14799,0 -0.13718,-0.09001 0.14773,-1.2189c0.50647,-2.00721 0.42605,-2.90774 -0.21368,-2.38739c-0.20024,0.16293 -0.18204,0.33543 0.02689,0.25681c0.20682,-0.07784 0.16751,0.46838 -0.11845,1.64434c-0.1625,0.6688 -0.28781,1.22198 -0.43896,1.93785c-0.03298,0.15621 -0.1042,0.28397 -0.15802,0.28397c-0.11449,0 -0.03983,-0.47509 0.23584,-1.49847c0.47747,-1.77183 0.41708,-2.6108 -0.172,-2.38916c-0.19338,0.07293 -0.19892,0.36311 -0.00819,0.43475c0.15934,0.06001 0.11845,0.9419 -0.05197,1.12243c-0.05091,0.05405 -0.09259,0.24905 -0.09259,0.4332c0,0.18414 -0.04221,0.36076 -0.09418,0.39208c-0.0517,0.03155 -0.12108,0.23173 -0.15406,0.44535c-0.14377,0.9339 -0.20339,1.16253 -0.33028,1.26572c-0.15116,0.12309 -0.02797,-0.54727 0.36088,-1.96271c0.33583,-1.22279 0.26803,-1.75683 -0.22291,-1.75683c-0.11133,0 -0.21419,0.10293 -0.25272,0.25319c-0.05566,0.21776 -0.09207,0.23612 -0.26274,0.13164c-0.25905,-0.15853 -0.53472,0.05509 -0.33001,0.25604c0.15276,0.14971 0.16965,1.07768 0.02112,1.16768c-0.05801,0.03517 -0.10526,0.2444 -0.10526,0.46501c0,0.22061 -0.04748,0.43011 -0.10552,0.46501c-0.05802,0.03517 -0.10552,0.22397 -0.10552,0.41949c0,0.19578 -0.04722,0.35561 -0.10526,0.35561c-0.05802,0 -0.10552,0.18104 -0.10552,0.40242c0,0.23974 -0.05672,0.42361 -0.14034,0.45518c-0.10605,0.03985 -0.07993,-0.20275 0.10736,-0.99645c0.39096,-1.6552 0.47484,-2.14502 0.41074,-2.39537c-0.11742,-0.45906 -0.69408,-0.39026 -0.69408,0.08276c0,0.19451 -0.01371,0.19787 -0.18677,0.04425c-0.28833,-0.25577 -0.53341,-0.06518 -0.34954,0.27156c0.08468,0.1552 0.11528,0.4102 0.07808,0.65279c-0.1385,0.90855 -0.20234,1.17778 -0.29124,1.23183c-0.05145,0.0313 -0.09365,0.23716 -0.09365,0.45803c0,0.22061 -0.04749,0.42985 -0.10552,0.46501c-0.05802,0.03517 -0.10552,0.21828 -0.10552,0.40682c0,0.18854 -0.07096,0.40087 -0.15801,0.47147c-0.20735,0.1689 -0.20893,0.18108 0.16197,-1.21966c0.36853,-1.39119 0.45242,-2.03773 0.3002,-2.31653c-0.14851,-0.27181 -0.55714,-0.2038 -0.60119,0.10009c-0.03272,0.22578 -0.23003,0.33647 -0.23003,0.12905c0,-0.05692 -0.0947,-0.10319 -0.21078,-0.10319c-0.1406,0 -0.21078,0.06879 -0.21078,0.20664c0,0.11354 0.05197,0.20665 0.11555,0.20665c0.18176,0 -0.04854,1.70406 -0.24665,1.82406c-0.10288,0.06233 -0.03799,-0.89382 0.08995,-1.3278c0.06646,-0.22451 -0.32476,-0.61425 -0.53633,-0.53459c-0.08811,0.0331 -0.16039,0.1469 -0.16039,0.25267c0,0.12889 0.0525,0.17273 0.15802,0.13293c0.18519,-0.0696 0.23478,0.62742 0.05276,0.73785c-0.05802,0.03517 -0.10552,0.22113 -0.10552,0.41329c0,0.19242 -0.04722,0.37838 -0.10526,0.41354c-0.05802,0.03492 -0.10552,0.22113 -0.10552,0.41329c0,0.19216 -0.04247,0.37524 -0.09417,0.40656c-0.05197,0.03155 -0.1187,0.23199 -0.14879,0.44535c-0.03007,0.21361 -0.1013,0.55114 -0.15854,0.75002c-0.23478,0.81725 -0.11924,-0.18027 0.13797,-1.18864c0.47719,-1.87194 0.4622,-2.42851 -0.06542,-2.42851c-0.21526,0 -0.2704,0.25397 -0.0802,0.36932c0.16907,0.10243 -0.17252,2.14479 -0.44371,2.65221c-0.05274,0.09853 -0.09576,0.32276 -0.09576,0.49811c0,0.17534 -0.07123,0.38871 -0.15828,0.47406c-0.18624,0.18257 -0.19573,0.11069 -0.05064,-0.37733c0.65003,-2.1851 0.64978,-3.64944 -0.00103,-3.2553c-0.17121,0.10397 -0.12583,0.36337 0.0517,0.29639c0.18519,-0.06955 0.23478,0.62742 0.05276,0.73759c-0.05801,0.03517 -0.10526,0.2444 -0.10526,0.46526c0,0.22061 -0.04749,0.42985 -0.10552,0.46501c-0.05802,0.03517 -0.10552,0.22397 -0.10552,0.41949c0,0.19552 -0.04722,0.35561 -0.10526,0.35561c-0.05802,0 -0.10552,0.18595 -0.10552,0.41328c0,0.22733 -0.04748,0.41354 -0.10526,0.41354c-0.05802,0 -0.10552,0.1394 -0.10552,0.30983c0,0.17069 -0.04247,0.31009 -0.09417,0.31009c-0.09814,0 -0.02375,-0.44201 0.24322,-1.44675c0.43633,-1.64202 0.47088,-2.16701 0.15485,-2.36072c-0.28624,-0.17509 -0.51151,-0.00311 -0.30891,0.23612c0.1406,0.16628 0.1042,0.44949 -0.26776,2.07287c-0.09101,0.39802 -0.19176,0.88632 -0.2237,1.0852c-0.05118,0.31889 -0.3469,0.90313 -0.3469,0.68537c0,-0.04601 0.14245,-0.68769 0.3163,-1.42553c0.44185,-1.87503 0.35849,-2.87693 -0.19469,-2.33486c-0.1675,0.16448 -0.1522,0.28475 0.03668,0.28475c0.18097,0 0.22555,0.56689 0.05249,0.67163c-0.05775,0.03517 -0.10526,0.2444 -0.10526,0.46501c0,0.22061 -0.04748,0.43011 -0.10552,0.46501c-0.05806,0.03517 -0.10526,0.22138 -0.10526,0.41354c0,0.19216 -0.04748,0.37813 -0.10552,0.41329c-0.05802,0.03517 -0.10552,0.22112 -0.10552,0.41354c0,0.19216 -0.04722,0.37813 -0.10526,0.41329c-0.05802,0.03517 -0.10552,0.20069 -0.10552,0.36777c0,0.17172 -0.0517,0.29277 -0.11845,0.27828c-0.19914,-0.04345 -0.2279,0.22759 -0.03189,0.3013c0.11713,0.04397 0.24402,-0.00259 0.35138,-0.12905c0.09444,-0.11146 0.26776,-0.18412 0.39623,-0.16629c0.15485,0.02172 0.25011,-0.03647 0.29704,-0.18104c0.05302,-0.16421 0.12688,-0.19861 0.32263,-0.15052c0.2026,0.04992 0.27884,0.00854 0.37829,-0.2056c0.10209,-0.21957 0.15247,-0.24544 0.27831,-0.14328c0.12372,0.10086 0.18862,0.0825 0.33503,-0.09466c0.09998,-0.12078 0.29493,-0.23561 0.43343,-0.255c0.13849,-0.0194 0.3068,-0.14405 0.37406,-0.27698c0.07466,-0.14714 0.15035,-0.19759 0.19337,-0.12906c0.11713,0.18544 0.39069,0.12699 0.45005,-0.09621c0.04062,-0.15179 0.12979,-0.20093 0.32711,-0.18078c0.19152,0.01965 0.30627,-0.03957 0.39069,-0.20199c0.08494,-0.16321 0.15195,-0.19759 0.23241,-0.11871c0.08046,0.07862 0.17701,0.04811 0.33423,-0.10629c0.12188,-0.11949 0.31603,-0.21699 0.43131,-0.21699c0.11555,0 0.26828,-0.09155 0.33925,-0.20302c0.09233,-0.14528 0.19996,-0.18568 0.37644,-0.14225c0.19205,0.04733 0.2601,0.01164 0.30601,-0.16061c0.04406,-0.16477 0.12847,-0.21442 0.33028,-0.19371c0.18334,0.01862 0.30733,-0.03931 0.38251,-0.17897c0.07861,-0.14587 0.19653,-0.19709 0.40124,-0.17406c0.20708,0.02354 0.28992,-0.01345 0.28992,-0.12905c0,-0.16351 0.10526,-0.202 0.45584,-0.16604c0.11686,0.0119 0.21474,-0.06544 0.25009,-0.19759c0.04062,-0.15257 0.11449,-0.1999 0.24744,-0.15853c0.11581,0.03595 0.26855,-0.02431 0.3928,-0.15492c0.11897,-0.12518 0.27198,-0.18776 0.36932,-0.15129c0.10631,0.04008 0.22687,-0.02819 0.3345,-0.18906c0.12056,-0.1805 0.23795,-0.23869 0.41469,-0.2056c0.18466,0.03465 0.26117,-0.00879 0.30522,-0.1738c0.04722,-0.17716 0.11133,-0.20716 0.32843,-0.15388c0.22106,0.05457 0.29203,0.0181 0.39412,-0.20173c0.09392,-0.20196 0.15802,-0.24104 0.26011,-0.15802c0.10077,0.08224 0.19548,0.04268 0.36985,-0.15414c0.17543,-0.19761 0.26908,-0.23638 0.3709,-0.15336c0.10367,0.08431 0.18809,0.02819 0.35112,-0.23406c0.11791,-0.18984 0.21473,-0.28707 0.215,-0.21595c0.00053,0.20121 0.35692,0.15181 0.49753,-0.06906c0.08046,-0.12646 0.20102,-0.17899 0.33292,-0.14535c0.14192,0.03647 0.25087,-0.02276 0.34716,-0.18931c0.08837,-0.15233 0.23768,-0.24233 0.4023,-0.24233c0.23689,0 0.28095,-0.07193 0.45901,-0.75158c0.20286,-0.77408 0.14931,-1.05702 -0.19996,-1.05702c-0.10184,0 -0.12085,-0.10268 -0.07149,-0.38742c0.12636,-0.72803 0.09682,-0.9018 -0.1596,-0.93751c-0.16487,-0.02276 -0.23715,-0.10319 -0.23715,-0.26354c0,-0.12672 -0.05672,-0.2863 -0.12636,-0.35432M261.77511,181.25683c0.05118,-0.11483 0.08044,-0.09155 0.11238,0.08923c0.02374,0.13448 -0.00844,0.29509 -0.07123,0.35664c-0.06302,0.06155 -0.11449,0.28889 -0.11449,0.50483c0,0.21595 -0.04749,0.39259 -0.10526,0.39259c-0.05802,0 -0.10552,0.18621 -0.10552,0.41354c0,0.22733 -0.04749,0.41328 -0.10552,0.41328c-0.15644,0 0.1282,-1.58641 0.38963,-2.1701M261.93892,183.00328l0.1319,-0.35147l0.03406,0.35044c0.02137,0.21881 -0.02796,0.41149 -0.13163,0.51313c-0.21528,0.21078 -0.22873,0.00672 -0.03431,-0.51207M254.86465,184.34369c0.06964,-0.4474 0.17094,-0.81336 0.22476,-0.81336c0.10789,0 0.04906,0.65072 -0.11713,1.29184c-0.2266,0.87412 -0.45505,1.87604 -0.5123,2.24768c-0.03271,0.21311 -0.10103,0.38768 -0.15116,0.38768c-0.13085,0 -0.12056,-0.07602 0.16857,-1.24708c0.14298,-0.5793 0.31735,-1.41957 0.38726,-1.86674M261.14707,183.72555c0.07835,-0.29406 0.13343,-0.23535 0.13137,0.14069c-0.00105,0.22835 -0.03086,0.29069 -0.09259,0.19527c-0.04987,-0.07759 -0.06754,-0.22863 -0.03879,-0.33596M253.53131,184.79626c0.04009,-0.29843 0.12108,-0.54257 0.17965,-0.54257c0.10209,0 0.08784,0.20325 -0.08125,1.16354c-0.03772,0.21362 -0.11053,0.41408 -0.16224,0.44535c-0.05145,0.0313 -0.09365,0.16733 -0.09365,0.30259c0,0.28215 -0.3833,1.90914 -0.46956,1.99372c-0.12214,0.11976 -0.0459,-0.36236 0.24824,-1.56726c0.16831,-0.68895 0.33874,-1.49691 0.37882,-1.79537M252.29435,184.97703c0.04247,-0.09698 0.08231,-0.02457 0.10684,0.19397c0.02163,0.19216 -0.01161,0.39906 -0.07386,0.4601c-0.06227,0.06077 -0.11317,0.28474 -0.11317,0.49733c0,0.21259 -0.04247,0.41223 -0.09417,0.4438c-0.05197,0.0313 -0.11924,0.23173 -0.14984,0.44535c-0.09207,0.64607 -0.29651,1.51557 -0.39465,1.68005c-0.17041,0.28472 -0.11185,-0.20562 0.15406,-1.29184c0.13902,-0.56844 0.30786,-1.31251 0.37486,-1.65364c0.06727,-0.34089 0.15274,-0.68978 0.18994,-0.77512M247.85856,187.09959c-0.22951,-0.22502 -0.49331,-0.19915 -0.49331,0.04783c0,0.11354 0.04907,0.20664 0.10895,0.20664c0.11976,0 0.02585,1.00968 -0.11053,1.18839c-0.04352,0.05689 -0.10501,0.26613 -0.13665,0.46526c-0.1071,0.67214 -0.2113,0.9812 -0.36932,1.09525c-0.2084,0.15026 -0.07017,0.35147 0.24138,0.35147c0.39806,0 1.08526,-3.0355 0.75946,-3.3549M247.13336,187.37482c-0.23927,-0.23431 -0.50624,-0.12879 -0.50624,0.19992c0,0.12319 0.05382,0.16603 0.15828,0.12673c0.22661,-0.08511 0.20234,0.24722 -0.05434,0.74067c-0.24243,0.46655 -0.21104,0.6639 0.10262,0.64087c0.36273,-0.02692 0.60516,-1.40875 0.29968,-1.70824M251.0822,187.61248l0.12372,-0.41329l0.03746,0.34889c0.02058,0.1919 -0.01345,0.39906 -0.07571,0.45984c-0.062,0.06104 -0.11291,0.26768 -0.11291,0.45932c0,0.19164 -0.07123,0.41819 -0.15828,0.50354c-0.08679,0.08534 -0.15693,0.11691 -0.15538,0.07009c0.00396,-0.13163 0.20419,-0.96956 0.3411,-1.42836" fill="#d1d1d1"/><path d="M247.78706,146.40878c0,-0.12078 0.81885,-0.10216 0.89615,0.02017c4.36739,0.68784 9.04298,1.29269 13.12382,2.36178c0,0.04863 0.34402,0.11974 0.76426,0.15802c5.88189,0.5455 6.08447,7.53301 8.51222,18.1951c0,0.25241 0.04748,0.48752 0.10526,0.52267c1.15535,4.22513 1.60033,9.53734 2.63538,14.20989c0,0.28421 0.04749,0.51671 0.10552,0.51671c0.05802,0 0.10552,0.0931 0.10552,0.20664c0,0.1138 -0.04748,0.2069 -0.10552,0.2069c-0.05802,0 -0.10552,-0.0931 -0.10552,-0.2069c0,-0.11354 -0.04722,-0.20664 -0.10526,-0.20664c-0.05802,0 -0.10552,-0.04733 -0.10552,-0.10552c0,-0.218 -0.87951,-1.94255 -1.596,-3.13014c-1.26519,-2.09585 -3.50618,-4.55744 -5.13912,-5.64446c-0.82438,-0.54882 -0.83704,-0.58063 -0.40757,-1.02469c1.88276,-1.94563 2.17267,-3.84601 1.29502,-8.49068c-0.20946,-1.10823 -0.4263,-2.25936 -0.4817,-2.55781c-0.0554,-0.29846 -0.15301,-0.81002 -0.21684,-1.13667c-0.1501,-0.76941 -0.26195,-1.37644 -0.39517,-2.14454c-0.05909,-0.34114 -0.15723,-0.86664 -0.2179,-1.16768c-0.06094,-0.30128 -0.10236,-0.58031 -0.0918,-0.62016c0.03715,-0.14249 -0.36011,-1.32315 -0.62814,-1.86573c-0.60042,-1.21607 -1.48518,-1.89004 -2.9258,-2.22884c-0.40567,-0.09543 -0.98844,-0.24777 -1.29471,-0.33854l-0.55689,-0.16526l-12.19851,5.98035c-6.709,3.28934 -12.22205,6.00515 -12.25106,6.0354c-0.02902,0.03026 -0.18598,0.12259 -0.34874,0.20483c-0.59171,0.29922 -1.79305,1.66995 -2.22357,2.5371c-0.22555,0.45469 -0.45086,0.90751 -0.50017,1.00605c-0.04961,0.09879 -0.08995,0.2638 -0.08995,0.36699c0,0.10293 -0.0393,0.23147 -0.08758,0.28552c-0.26089,0.29301 -0.48698,3.33137 -0.29335,3.94066c0.03297,0.10344 0.11264,0.51363 0.17675,0.9114c0.06437,0.39802 0.15616,0.93286 0.20418,1.18864c0.16963,0.90392 0.33687,1.81476 0.42656,2.32531c0.04986,0.28422 0.13692,0.77252 0.19337,1.0852c0.05646,0.3124 0.19838,1.10303 0.31524,1.75683c0.21527,1.20127 0.46509,2.57615 0.65766,3.6171c0.24982,1.34952 0.31814,1.74132 0.40968,2.34986c0.08604,0.57 0.29417,1.73147 0.63473,3.54083c0.05878,0.31265 0.31865,1.75425 0.5777,3.20383c0.47878,2.67873 1.04465,5.77113 1.21032,6.61424c0.05038,0.25578 0.14272,0.75571 0.20497,1.11106c0.26934,1.53368 0.33133,1.87583 0.47352,2.60953c1.1012,5.67602 -0.25168,8.96885 -4.10237,9.98627c-4.34678,1.14808 -10.09142,-4.35646 -11.44734,-10.96818c-0.09603,-0.46923 -1.33641,-6.99256 -1.57673,-8.29369c-0.15271,-0.82684 -0.26141,-1.40897 -0.7861,-4.21145c-0.2659,-1.42114 -0.52468,-2.81616 -0.57481,-3.10038c-0.05012,-0.28425 -0.11503,-0.63313 -0.14404,-0.77512c-0.02902,-0.14224 -0.10526,-0.51416 -0.16936,-0.82684c-0.10052,-0.48994 -0.98688,-5.20169 -1.27838,-6.79507c-0.05461,-0.29846 -0.14667,-0.79839 -0.20471,-1.11081c-0.05778,-0.31271 -0.1501,-0.8126 -0.20471,-1.11106c-0.05461,-0.29841 -0.22212,-1.17051 -0.37222,-1.93785c-0.82782,-4.23392 -0.92384,-5.28079 -0.63551,-6.92437c0.6642,-3.78444 2.24835,-5.95378 5.54979,-7.59969l1.40053,-0.69804l0.74153,0.11741c0.40784,0.06466 1.42928,0.23664 2.26999,0.38225c3.29216,0.5695 3.61056,0.46706 13.26859,-4.2712c8.65596,-4.2469 8.70078,-4.27302 7.86718,-4.61467c-0.20286,-0.08302 -0.36906,-0.18984 -0.36906,-0.23742c0,-0.18467 -0.61706,-0.41666 -1.42294,-0.53459c-1.86085,-0.2726 -2.06901,-0.33078 -2.0347,-0.56743c0.03483,-0.23846 1.26967,-0.92508 2.74615,-1.52691c0.44927,-0.1831 0.81701,-0.37035 0.81701,-0.41587M239.88073,148.46588c0.37409,-0.13474 1.15967,-0.07578 1.15967,0.0869c0,0.35975 -1.63238,0.72156 -1.88879,0.41871c-0.14194,-0.16758 -0.06914,-0.21827 0.72912,-0.5056M225.77491,151.88029c-0.02955,-0.15208 0.04537,-0.18047 0.47326,-0.17845l0.50861,0.00253l-0.26354,0.20431c-0.31099,0.24104 -0.66868,0.22708 -0.7183,-0.02818M223.726,156.40909c0.32345,-0.17199 0.94941,-0.20794 1.17549,-0.0675c0.11185,0.06931 0.04247,0.14431 -0.2857,0.30854c-0.78745,0.39387 -1.64613,0.16138 -0.88981,-0.24104M257.65948,157.57262c0.3527,-0.38225 0.77425,-0.1645 0.77425,0.40009c0,0.34889 -0.30048,0.75441 -0.55874,0.75441c-0.39253,0 -0.54211,-0.80096 -0.21553,-1.1545M256.01682,158.37926c0.27329,-0.34062 0.46613,-0.34475 0.68667,-0.01475c0.1931,0.28886 0.1348,0.71044 -0.13902,1.00838c-0.50676,0.55116 -1.02804,-0.39488 -0.54766,-0.99363M259.65352,158.57923c0.21028,-0.20586 0.40707,-0.20586 0.61732,0.00026c0.35717,0.35013 0.07439,1.18112 -0.4023,1.18112c-0.48064,0 -0.62283,-0.78133 -0.215,-1.18142M254.42782,159.14043c0.38856,-0.38094 0.73782,-0.19138 0.73782,0.40009c0,0.5749 -0.48909,0.93932 -0.82227,0.61268c-0.20049,-0.19653 -0.15169,-0.7813 0.08442,-1.01277M252.80832,159.9163c0.51467,-0.50479 1.05388,0.33958 0.61201,0.95797c-0.23926,0.33518 -0.6244,0.29923 -0.78136,-0.07267c-0.13902,-0.32897 -0.0794,-0.64166 0.16936,-0.88528M260.03819,160.43823c0.44003,-0.30206 0.71438,-0.12412 0.71438,0.46371c0,0.47638 -0.29707,0.77198 -0.68089,0.67759c-0.37352,-0.09208 -0.39701,-0.892 -0.03349,-1.14132M260.33733,162.33788c0.27621,-0.27078 0.53421,-0.22267 0.70779,0.13216c0.19864,0.4063 -0.06542,1.01095 -0.4416,1.01095c-0.48486,0 -0.66082,-0.75597 -0.26618,-1.14313M251.58399,162.54837c0.27278,-0.26742 0.3783,-0.25759 0.58749,0.05534c0.20682,0.30932 0.13454,0.83745 -0.14245,1.04383c-0.61545,0.45802 -1.01825,-0.53717 -0.44503,-1.09914M244.62321,164.02355c0.42578,-0.68481 1.12828,-0.01525 0.73654,0.70219c-0.1947,0.35664 -0.49303,0.43992 -0.73309,0.20457c-0.26767,-0.2625 -0.26873,-0.48054 -0.00361,-0.90675M260.69503,164.25142c0.30257,-0.29664 0.40493,-0.31139 0.62968,-0.0913c0.3638,0.3566 0.07308,1.18112 -0.41628,1.18112c-0.49595,0 -0.62943,-0.682 -0.21341,-1.08985M251.81755,164.51314c0.14585,-0.22914 0.49831,-0.27052 0.69141,-0.08121c0.31788,0.31139 -0.00396,1.2194 -0.4321,1.2194c-0.37011,0 -0.53183,-0.71042 -0.25932,-1.13819M243.05237,164.73503c0.27328,-0.28759 0.52784,-0.24983 0.70037,0.10345c0.27728,0.56666 -0.31734,1.27866 -0.76395,0.91503c-0.22925,-0.18648 -0.19442,-0.74718 0.06358,-1.01848M246.58015,165.05418c0.31577,-0.44201 0.89007,-0.2033 0.89007,0.36983c0,0.26069 -0.39092,0.74406 -0.60197,0.74406c-0.40599,0 -0.58616,-0.69673 -0.28807,-1.11389M241.42502,165.5303c0.35296,-0.38225 0.77425,-0.1645 0.77425,0.40009c0,0.34889 -0.30022,0.75441 -0.55874,0.75441c-0.39253,0 -0.54185,-0.8007 -0.21552,-1.1545M261.02188,166.08759c0.32605,-0.45623 0.78656,-0.18519 0.78296,0.46113c-0.00211,0.34734 -0.08152,0.47976 -0.3804,0.6339c-0.46561,0.24002 -0.76819,-0.58318 -0.40256,-1.095M239.89021,166.24689c0.27147,-0.22086 0.58882,-0.09181 0.68352,0.27828c0.08969,0.35046 -0.03324,0.65356 -0.3461,0.85478c-0.57957,0.37216 -0.89295,-0.68044 -0.3374,-1.13303M252.16702,166.39766c0.20943,-0.29327 0.63311,-0.30051 0.78981,-0.01344c0.21845,0.39983 -0.13346,1.12733 -0.54473,1.12733c-0.38647,0 -0.54053,-0.70035 -0.24507,-1.11389M247.08143,166.76594c0.41365,-0.25785 0.76846,0.12208 0.6574,0.70345c-0.06986,0.36518 -0.38434,0.61683 -0.64761,0.51777c-0.37141,-0.13991 -0.37853,-0.99156 -0.00974,-1.22122M261.38866,167.94449c0.39149,-0.41227 0.78321,-0.1777 0.76477,0.45751c-0.0124,0.42803 -0.18677,0.65976 -0.49726,0.65976c-0.50149,0 -0.66821,-0.69572 -0.26749,-1.11727M252.48283,168.32673c0.36034,-0.68299 1.0966,-0.10678 0.79007,0.61839c-0.16724,0.39621 -0.47904,0.50613 -0.75101,0.26483c-0.24613,-0.2183 -0.25721,-0.46967 -0.03905,-0.88321M247.32769,168.73405c0.35797,-0.38795 0.77425,-0.16343 0.77425,0.41768c0,0.5749 -0.48909,0.93932 -0.82227,0.61268c-0.18412,-0.18052 -0.15484,-0.81077 0.04802,-1.03035M238.51665,169.02397c0.27406,-0.34164 0.46611,-0.34475 0.68955,-0.01061c0.35879,0.53692 -0.18492,1.35986 -0.67559,1.02287c-0.29728,-0.20406 -0.30335,-0.65148 -0.01396,-1.01226M252.91457,170.07733c0.34557,-0.37451 0.77425,-0.1658 0.77425,0.37707c0,0.59122 -0.48935,0.97993 -0.82227,0.65354c-0.18413,-0.18052 -0.15484,-0.81077 0.04802,-1.0306M247.69243,170.54573c0.20392,-0.24078 0.65371,-0.1319 0.76688,0.18569c0.22185,0.6225 -0.49066,1.33165 -0.85576,0.85164c-0.16672,-0.21906 -0.11766,-0.79348 0.0889,-1.03737M260.11915,170.61193c0.25326,-0.24826 0.45402,-0.26274 0.63736,-0.04627c0.3187,0.3768 0.01952,1.18294 -0.43896,1.18294c-0.41337,0 -0.55134,-0.79063 -0.19838,-1.13667M238.93189,170.79685c0.28541,-0.22653 0.36007,-0.22964 0.5711,-0.02248c0.36246,0.35534 0.07307,1.18112 -0.4139,1.18112c-0.4635,0 -0.57588,-0.82631 -0.15723,-1.15864M258.57046,171.2986c0.43239,-0.17249 0.70542,0.02975 0.70542,0.52242c0,0.64087 -0.59039,0.96778 -0.903,0.49992c-0.18545,-0.27725 -0.06146,-0.91918 0.19759,-1.02237M253.22057,171.9785c0.31549,-0.44175 0.80563,-0.24001 0.80563,0.33156c0,0.6414 -0.60487,1.05055 -0.8605,0.58217c-0.15643,-0.28654 -0.1348,-0.64837 0.05487,-0.91372M256.80487,172.28828c0.22344,-0.31266 0.64946,-0.30284 0.79903,0.01864c0.14325,0.30806 0.00528,0.76451 -0.28886,0.9559c-0.49174,0.32018 -0.89085,-0.44171 -0.51019,-0.97448M248.05719,172.42766c0.36088,-0.3538 0.78296,-0.12362 0.78296,0.42673c0,0.35923 -0.3023,0.75441 -0.57744,0.75441c-0.43896,0 -0.58063,-0.81336 -0.2055,-1.18112M239.24717,172.67876c0.24404,-0.23897 0.26224,-0.24259 0.53422,-0.09983c0.36507,0.19163 0.23584,1.12322 -0.17754,1.27865c-0.48592,0.18285 -0.77399,-0.76939 -0.35666,-1.17879M255.22367,173.01184c0.31948,-0.4477 0.78455,-0.22424 0.78455,0.37707c0,0.5749 -0.48909,0.93933 -0.82227,0.61268c-0.17781,-0.17456 -0.15724,-0.71715 0.03771,-0.98974M248.37196,174.35512c0.30813,-0.43138 0.78455,-0.22732 0.78455,0.33647c0,0.59122 -0.48909,0.97993 -0.82227,0.65329c-0.17808,-0.17431 -0.15724,-0.71689 0.03771,-0.98974M239.5752,174.59926c0.26697,-0.33285 0.50466,-0.31216 0.71887,0.06259c0.32417,0.56587 -0.28861,1.34381 -0.72283,0.91811c-0.27946,-0.27412 -0.27788,-0.62897 0.00412,-0.9807M240.16794,176.264c0.10235,-0.0261 0.19441,-0.05302 0.20497,-0.05949c0.01029,-0.00672 0.09339,0.06104 0.1844,0.15026c0.40624,0.39857 -0.08309,1.43772 -0.55951,1.18789c-0.42867,-0.22502 -0.30443,-1.15736 0.17015,-1.27865M247.11703,177.00158c0.3527,-0.38225 0.77425,-0.1645 0.77425,0.40009c0,0.34863 -0.30048,0.75441 -0.55874,0.75441c-0.39253,0 -0.54211,-0.80096 -0.21553,-1.1545M245.48806,177.76898c0.13926,-0.1645 0.52997,-0.16786 0.69537,-0.00571c0.32526,0.31912 0,1.11621 -0.45559,1.11621c-0.44846,0 -0.59724,-0.68822 -0.23979,-1.11056M240.30563,178.27896c0.25561,-0.26923 0.34821,-0.27958 0.56822,-0.06388c0.30601,0.30028 0.16883,1.07847 -0.21579,1.22304c-0.48592,0.18285 -0.76265,-0.72751 -0.35244,-1.15915M243.88571,178.56939c0.28014,-0.27464 0.48617,-0.26068 0.69141,0.04657c0.26193,0.3918 -0.05408,1.09035 -0.49331,1.09035c-0.41311,0 -0.55108,-0.79089 -0.19812,-1.13692M242.27229,179.37393c0.38886,-0.4213 0.89166,0.0494 0.72968,0.68304c-0.0897,0.34966 -0.51575,0.56355 -0.7471,0.37527c-0.21605,-0.17587 -0.2055,-0.81698 0.01741,-1.05828M230.25877,201.02137c-0.21157,-0.21595 -0.42499,-0.33283 -0.59831,-0.32768c-0.148,0.0044 -0.20972,0.03157 -0.13744,0.06026c0.07255,0.02871 0.1319,0.18957 0.1319,0.35768c0,0.39337 0.31551,0.99157 0.72361,1.37149l0.32104,0.29923l0.12425,-0.2669c0.15987,-0.34448 -0.09235,-1.01148 -0.56508,-1.49408" fill="#14c3e2"/><path d="M233.87056,147.78169c1.56138,-0.32411 2.28797,-0.25421 5.34989,0.25423c0.42841,0.07112 0.43579,0.19139 0.02215,0.35923c-0.37354,0.15183 -0.56137,0.44019 -0.47009,0.72209c0.20603,0.63678 2.68788,0.08203 2.68788,-0.60076c0,-0.11872 0.09549,-0.13731 0.44793,-0.08715c5.36932,0.7658 5.34347,0.76037 5.67138,1.21193c0.12108,0.1663 0.2878,0.30259 0.3709,0.30259c0.08283,0 0.15089,0.09285 0.15089,0.20664c0,0.11354 -0.05197,0.20664 -0.11555,0.20664c-0.06358,0 -0.24401,0.08975 -0.40097,0.1994c-0.15662,0.1094 -3.66249,1.85618 -7.79041,3.88147c-9.4451,4.63381 -9.33902,4.60123 -13.09239,4.02603c-1.01459,-0.15569 -2.12941,-0.30362 -2.47736,-0.32923c-0.34772,-0.02535 -0.67984,-0.08328 -0.73788,-0.12854c-0.12623,-0.09824 -3.01632,-0.64757 -5.48127,-1.04171c-1.04044,-0.1663 -1.21217,-0.24699 -1.21217,-0.5695c0,-0.4857 0.60197,-0.85498 4.55055,-2.79106l3.87156,-1.89856l0.2237,0.30802c0.38939,0.53613 0.55874,0.56329 1.2383,0.19914c1.18207,-0.6331 1.23457,-0.84751 0.2274,-0.9269l-0.67693,-0.05328l3.32044,-1.6252c2.958,-1.44778 3.42993,-1.64718 4.32211,-1.82537M234.96645,152.38469c-1.34726,-0.44999 -4.71418,0.27028 -5.67756,1.21476c-0.35584,0.34862 -0.33606,2.10571 0.02746,2.46209c0.14354,0.14067 2.55781,0.11792 2.70369,-0.0251c0.05539,-0.05429 0.23056,-0.09853 0.38963,-0.09853c0.15881,0 0.31473,-0.0414 0.34637,-0.09155c0.03189,-0.05017 0.28357,-0.12385 0.55977,-0.16371c0.54895,-0.07915 1.68674,-0.56951 2.19271,-0.94529l0.32026,-0.23768l-0.09339,-0.7536c-0.13194,-1.06371 -0.19073,-1.16819 -0.76874,-1.36139M225.54129,156.09157c-0.30469,-0.36001 -2.0181,-0.13707 -2.51853,0.32768c-0.71227,0.66156 0.65395,1.00556 1.83712,0.46268c0.72046,-0.33054 0.8972,-0.53563 0.68141,-0.79038M263.64844,184.73465c-0.09789,-0.72749 0.09552,-0.54126 0.65343,0.629c1.25121,2.62549 1.83131,5.57228 1.51949,7.72091c-0.21421,1.47469 -0.53535,2.1404 -0.53947,1.11753c-0.00106,-0.27002 -0.07413,-0.88631 -0.1625,-1.36942c-0.08864,-0.48313 -0.2551,-1.41341 -0.36985,-2.06696c-0.28625,-1.62697 -0.74051,-4.07436 -0.93994,-5.0641c-0.05144,-0.25578 -0.12398,-0.6908 -0.16118,-0.96701M237.66718,197.81904c-0.00422,-0.28472 0.13559,-0.08996 0.51994,0.7234c1.58518,3.35485 1.91811,7.07312 0.83546,9.33116c-0.25138,0.52448 -0.45822,0.45493 -0.28358,-0.09518c0.26883,-0.84735 0.12794,-3.31647 -0.33107,-5.79952c-0.6392,-3.45729 -0.7387,-4.01619 -0.74076,-4.15972M260.78015,199.64512c0.38724,-0.21179 0.53628,-0.20222 0.58378,0.03753c-0.005,0.84397 -1.77251,1.43317 -2.49828,1.92083c-1.9771,1.06666 -4.26038,1.88007 -6.05572,2.86814c-0.13112,-0.03362 -0.47881,0.10293 -0.92727,0.36414c-0.93308,0.54336 -1.0692,0.47689 -0.40335,-0.19656c1.73624,-1.94452 6.09755,-2.99729 9.30099,-4.99404M229.69577,200.93441c0.21232,-0.54263 1.11717,0.51313 1.11717,1.3032c0,0.44432 -0.17515,0.46811 -0.57296,0.07837c-0.35612,-0.34917 -0.65316,-1.10331 -0.54421,-1.38159" fill="#7821e0"/><path d="M246.73524,146.42845c0.20479,-0.03926 0.69802,0.07797 1.05416,-0.0194c0,0.04551 -0.36776,0.23276 -0.81701,0.41587c-1.47647,0.60182 -2.71132,1.28846 -2.74615,1.52691c-0.03431,0.23665 0.17383,0.29484 2.0347,0.56743c0.80594,0.11795 1.42294,0.34994 1.42294,0.53459c0,0.04759 0.16619,0.1544 0.36906,0.23742c0.41206,0.16888 0.43659,0.22784 0.21421,0.51621c-0.15091,0.19577 -0.15493,0.19474 -0.15802,-0.03182c-0.00211,-0.13138 -0.06911,-0.2325 -0.15432,-0.2325c-0.0831,0 -0.24982,-0.1363 -0.3709,-0.30259c-0.32767,-0.45156 -0.30191,-0.44615 -5.67138,-1.21193c-0.35244,-0.05017 -0.44793,-0.03155 -0.44793,0.08715c0,0.68274 -2.48185,1.23749 -2.68788,0.60076c-0.09127,-0.2819 0.09655,-0.57027 0.47009,-0.72209c0.41364,-0.16784 0.40626,-0.28811 -0.02215,-0.35923c-4.14276,-0.68112 -4.39264,-1.24062 -12.99244,3.19635l0.67693,0.05328c1.00719,0.0794 0.95469,0.29381 -0.2274,0.9269c-0.67956,0.36414 -0.84892,0.33697 -1.2383,-0.19914l-0.2237,-0.30802c-3.45151,2.10903 -5.70971,2.28405 -8.42206,4.68962c0,0.32251 0.17177,0.4032 1.21217,0.5695c2.6345,0.4213 5.33847,0.94451 5.5503,1.07434c0.15698,0.09597 -0.0253,0.21957 -1.1826,0.80381c-3.19633,1.61378 -4.76595,3.79408 -5.42202,7.53301c-0.28831,1.64358 -0.19233,2.6907 0.63551,6.92437c0.1501,0.76734 0.31761,1.6394 0.37222,1.93785c0.05461,0.29846 0.14694,0.79838 0.20471,1.11106c0.05803,0.31245 0.1501,0.81235 0.20471,1.11081c0.2915,1.59358 1.17787,6.30498 1.27838,6.79507c0.0641,0.31271 0.14035,0.6846 0.16936,0.82684c0.02902,0.14203 0.09391,0.49089 0.14404,0.77512c0.05013,0.28422 0.30891,1.67924 0.57481,3.10038c0.52467,2.80248 0.63336,3.3846 0.7861,4.21145c0.24029,1.30113 1.48071,7.82454 1.57673,8.29369c1.35602,6.61192 7.10097,12.11646 11.44734,10.96818c2.03599,-0.53798 3.35368,-1.72581 4.06332,-3.66241c0.13269,-0.36235 0.27143,-0.60002 0.31234,-0.53485c0.04353,0.06879 0.16778,-0.07914 0.30232,-0.35949c1.08368,-2.26031 0.74998,-5.97636 -0.83917,-9.33873c-0.2237,-0.4733 -0.44766,-0.83588 -0.49753,-0.80563c-0.09155,0.05556 -0.26358,-0.80179 -1.12644,-5.61971c-0.25982,-1.44958 -0.52072,-2.89115 -0.57981,-3.20383c-0.65845,-3.47332 -0.74075,-4.09764 -0.50175,-3.80565c0.07233,0.08845 0.4163,0.21129 0.76426,0.27311c0.34771,0.06155 0.94072,0.16733 1.31769,0.23483c0.37667,0.06776 1.08183,0.11964 1.56643,0.11509c0.7571,-0.00673 0.88821,0.01785 0.92989,0.17431c0.02665,0.10009 0.1902,0.26406 0.36326,0.3644c2.21214,1.36174 4.38336,3.9542 5.96659,6.88497c2.19793,4.06906 3.13811,9.00305 2.12275,12.63045c-0.43421,0.79553 0.70753,0.1236 2.06978,-1.21789l1.26519,-1.24552l4.48012,-2.19237c4.6979,-2.29891 4.88891,-2.36796 5.33289,-1.93295c0.33267,0.32613 0.27909,0.33233 1.26545,-0.14276c1.18023,-0.56874 1.54771,-1.02626 1.94103,-2.4179c0.23822,-0.8426 0.28939,-2.765 0.09893,-3.70973c-0.29233,-1.44857 -0.39995,-2.0263 -0.89141,-4.78766c-0.20236,-1.13692 -0.46352,-2.57847 -0.58012,-3.20383c-0.11686,-0.62511 -0.26274,-1.41571 -0.32421,-1.75683c-0.06173,-0.34089 -0.15245,-0.82942 -0.20181,-1.0852c-0.04906,-0.25578 -0.14614,-0.76735 -0.21526,-1.13667c-0.34318,-1.8282 -1.27735,-2.93512 -3.05243,-3.61609c-1.27075,-0.48775 -1.30136,-0.50534 -1.1589,-0.67345c0.06569,-0.07784 1.60368,-0.86897 3.41756,-1.75814c4.37224,-2.14343 4.8386,-2.5368 5.7569,-4.85539c0.44055,-1.11232 0.47563,-2.52624 0.11317,-4.54713c-0.33636,-1.87507 -0.55426,-3.0593 -0.63762,-3.46224c-0.05302,-0.25578 -0.1509,-0.76735 -0.21764,-1.13692c-0.06674,-0.36933 -0.16147,-0.88089 -0.21078,-1.13667c-0.04907,-0.25578 -0.1443,-0.76735 -0.21157,-1.13692c-0.06701,-0.36933 -0.16619,-0.88089 -0.22027,-1.13667c-0.05408,-0.25578 -0.17094,-0.83717 -0.25958,-1.29184c-0.28439,-1.46018 -0.94334,-2.58317 -1.85453,-3.16039c-0.54921,-0.34758 -0.72412,-0.40551 -2.32697,-0.77017l-1.13067,-0.25733l-0.86606,0.41173c-0.47643,0.22656 -0.88559,0.39286 -0.90959,0.36957c-0.02375,-0.02355 0.41206,-0.26122 0.96869,-0.52838l1.01166,-0.48595l0.554,0.16422c0.30469,0.09052 0.8861,0.24234 1.29182,0.33777c1.44062,0.33882 2.32538,1.01277 2.9258,2.22884c0.26805,0.54257 0.66534,1.72322 0.62814,1.86573c-0.01055,0.0398 0.03086,0.31886 0.0918,0.62016c0.06068,0.30104 0.15881,0.82656 0.2179,1.16768c0.13322,0.76815 0.24507,1.37513 0.39517,2.14454c0.06384,0.32665 0.16144,0.83821 0.21684,1.13667c0.0554,0.29846 0.27224,1.44963 0.4817,2.55781c0.87765,4.64442 0.58775,6.54504 -1.29502,8.49068c-0.42948,0.44408 -0.41681,0.4759 0.40757,1.02469c2.66217,1.88856 5.89163,5.99025 7.15671,9.55188c0,0.14198 0.04722,0.25836 0.10526,0.25836c0.05802,0 0.10552,0.14225 0.10552,0.31604c0,0.1844 -0.04406,0.28969 -0.10552,0.25216c-0.05801,-0.03491 -0.10526,-0.17224 -0.10526,-0.30492c-1.135,-2.38658 -3.12482,-5.67653 -5.218,-8.01437c-0.08705,0 -0.15828,-0.04759 -0.15828,-0.10552c0,-0.22138 -1.0961,-1.23804 -1.33484,-1.23804c-0.16934,0 -0.22215,-0.04552 -0.17938,-0.15414c0.0364,-0.09311 -0.01741,-0.18232 -0.13507,-0.22501c-0.10763,-0.0388 -0.39014,-0.22526 -0.62809,-0.41432c-0.48247,-0.38302 -0.59169,-0.40941 -0.80985,-0.19552c-0.0831,0.08117 -1.5926,0.85447 -3.3545,1.71829c-3.9119,1.91745 -3.64229,1.71417 -2.76016,2.08297c0.39387,0.16474 0.89613,0.37475 1.11614,0.46682c0.22002,0.09182 0.50018,0.2519 0.62232,0.35587c0.83463,0.39872 0.67482,0.65127 1.37781,1.89391c0.28992,0.78724 0.39306,1.1527 0.39306,1.39063c0,0.13138 0.04353,0.40734 0.09629,0.61268c0.05302,0.20557 0.1538,0.62379 0.22397,0.92923c0.07017,0.30542 0.20682,0.63284 0.30337,0.72749c0.5421,0.53161 1.8073,3.42016 2.26711,5.17623c0.63472,2.42356 0.42158,5.77457 -0.44582,7.00872c-0.10711,0.15229 -0.25509,0.55628 -0.3287,0.89741c-0.2424,1.12323 -1.07365,2.42851 -1.54665,2.42851c-0.0678,0 -0.1939,0.10551 -0.2799,0.23431c-0.0863,0.12879 -0.4498,0.38224 -0.80805,0.56354l-0.65158,0.32923l-0.09339,-0.22759c-0.07309,-0.17795 -0.09499,-0.18803 -0.10024,-0.04682c-0.00369,0.09955 -0.20207,0.36697 -0.44107,0.5943c-0.35085,0.33389 -0.3965,0.4164 -0.23716,0.42958c0.10842,0.00881 0.31577,0.03543 0.4606,0.05896c0.80114,0.1306 2.09297,0.05793 2.6058,-0.14664c0.1865,-0.07449 0.46376,-0.13526 0.61624,-0.13526c0.15222,0 0.40283,-0.06285 0.55663,-0.13966c3.85341,-1.74113 3.56618,-1.32574 0.47062,0.24233c-0.12715,0.00026 -0.26038,0.04707 -0.29599,0.10397c-1.28899,0.4842 -2.86171,0.43721 -4.40124,0.36492c-0.35112,-0.05743 -0.50069,-0.04683 -0.50069,0.03515c-3.53276,2.06302 -7.99732,3.55401 -12.09134,5.58536c-0.43622,1.16743 -1.88787,2.69974 -3.131,3.80676c-0.02348,-0.01422 -0.18572,0.12104 -0.36061,0.30052c-1.96911,1.39881 -5.28075,2.74327 -7.6611,3.24444c-1.13855,0.1795 -3.53121,-0.04216 -3.53121,-0.32716c0,-0.05019 -0.11924,-0.09155 -0.26512,-0.09155c-0.14562,0 -0.34743,-0.04345 -0.44793,-0.09647c-0.10078,-0.05327 -0.33715,-0.1575 -0.52577,-0.23199c-0.18835,-0.07448 -0.34241,-0.17043 -0.34241,-0.21336c0,-0.0432 -0.09497,-0.0781 -0.21104,-0.0781c-0.11581,0 -0.21078,-0.04655 -0.21078,-0.10345c0,-0.05688 -0.09154,-0.10345 -0.20312,-0.10345c-0.11185,0 -0.27461,-0.06957 -0.36167,-0.15492c-0.08679,-0.08534 -0.20893,-0.15491 -0.27093,-0.15491c-0.06226,0 -0.11291,-0.04655 -0.11291,-0.10345c0,-0.05688 -0.09497,-0.10345 -0.21078,-0.10345c-0.11607,0 -0.21104,-0.04629 -0.21104,-0.10319c0,-0.05688 -0.07096,-0.10345 -0.15802,-0.10345c-0.08705,0 -0.15802,-0.04655 -0.15802,-0.10319c0,-0.05688 -0.07333,-0.10345 -0.16276,-0.10345c-0.08917,0 -0.26433,-0.0931 -0.38858,-0.20664c-0.12451,-0.11379 -0.2886,-0.20664 -0.36457,-0.20664c-0.07624,0 -0.13823,-0.03959 -0.13823,-0.08767c0,-0.04836 -0.18994,-0.17173 -0.42181,-0.27414c-0.23188,-0.10242 -0.42237,-0.21414 -0.4234,-0.24828c-0.00319,-0.12441 -0.60938,-0.73345 -0.72994,-0.73345c-0.06805,0 -0.09468,-0.04655 -0.05883,-0.10345c0.03587,-0.05687 -0.01161,-0.10319 -0.10552,-0.10319c-0.09366,0 -0.14111,-0.04655 -0.10526,-0.10345c0.03562,-0.05688 0.01688,-0.10345 -0.04168,-0.10345c-0.11896,0 -0.50754,-0.36958 -0.74602,-0.70916c-0.34318,-0.47176 -3.37707,-3.54275 -4.11474,-9.67715c-0.36853,-2.05559 -0.74603,-4.07416 -1.15967,-6.20107c-0.12161,-0.62511 -0.26617,-1.38079 -0.32104,-1.67924c-0.18888,-1.02595 -0.29836,-1.62854 -0.36141,-1.98932c-0.03455,-0.19916 -0.10816,-0.59434 -0.16356,-0.87857c-0.16673,-0.85811 -0.50096,-2.62994 -0.68193,-3.6171c-0.09392,-0.51156 -0.21658,-1.16252 -0.27277,-1.44675c-0.05646,-0.28422 -0.14667,-0.74925 -0.20049,-1.03348c-0.49722,-2.61792 -1.36066,-7.20899 -1.47699,-7.85425c-0.05118,-0.28422 -0.16883,-0.93519 -0.26143,-1.44675c-0.09234,-0.51156 -0.28675,-1.5117 -0.43158,-2.22212c-1.14685,-5.6192 0.99146,-10.51409 5.45654,-12.49205c0.71305,-0.31577 0.69352,-0.38017 -0.15538,-0.51646c-0.4184,-0.06699 -1.02142,-0.16526 -1.34036,-0.21854c-0.31871,-0.05302 -0.88796,-0.1438 -1.26493,-0.20147c-2.6177,-0.40033 -2.77678,-0.43629 -3.13713,-0.70577c-0.31709,-0.2369 -0.3411,-0.28552 -0.19363,-0.3913c0.09259,-0.06621 0.16831,-0.1663 0.16831,-0.22242c0,-0.05586 0.09998,-0.19035 0.22212,-0.29871c0.12214,-0.10812 0.31366,-0.37295 0.42604,-0.58839c4.4421,-2.30425 9.40146,-4.94682 14.63697,-7.39916c0.25168,-0.05773 1.00099,-0.44288 2.63538,-0.76012c1.12145,-0.19397 1.60419,-0.11816 2.44439,0.07116c0.67008,0.15102 2.38792,0.45516 4.14405,0.7337c0.5218,0.08302 1.17762,0.19707 1.45751,0.25371c0.91696,0.18544 1.29183,0.13837 1.56566,-0.19681c0.14591,-0.1787 0.76611,-0.5545 1.53614,-0.93079c0.71016,-0.34731 1.29131,-0.67758 1.29131,-0.73396M242.80517,146.63533c0.20155,-0.28216 0.51678,-0.25862 0.72598,0.05405c0.15485,0.23199 0.1873,0.24208 0.29809,0.09362c0.1541,-0.20664 0.57748,-0.1588 0.7318,0.08276c0.17648,0.2757 -0.06252,0.46035 -0.40045,0.30932c-0.20738,-0.09258 -0.25061,-0.08896 -0.20893,0.01733c0.07308,0.18673 -0.23083,0.40863 -0.47458,0.3463c-0.13717,-0.03517 -0.21896,0.01061 -0.2543,0.14277c-0.08336,0.31242 -0.50731,0.24129 -0.8368,-0.14018c-0.15986,-0.18543 -0.26461,-0.26302 -0.23241,-0.1725c0.10474,0.29431 -0.21395,0.44303 -0.52391,0.24388c-0.40522,-0.26018 -0.21025,-0.60958 0.27145,-0.48595c0.12873,0.03285 0.196,-0.00491 0.196,-0.10991c0,-0.16319 0.387,-0.34604 0.49911,-0.23587c0.03403,0.0331 0.12795,-0.03233 0.20893,-0.1456M241.04296,148.55304c0,-0.16268 -0.78561,-0.22164 -1.15967,-0.0869c-0.79824,0.28732 -0.87105,0.33802 -0.72912,0.5056c0.25642,0.30287 1.88879,-0.05896 1.88879,-0.41871M247.47633,150.61995c0.34611,-0.23973 0.52391,-0.315 0.52391,-0.22216c0,0.05354 -0.72757,0.47535 -0.8199,0.47535c-0.03851,0 0.09444,-0.11406 0.29599,-0.25319M226.49566,151.90915l0.26354,-0.20431l-0.50861,-0.00253c-0.42787,-0.00207 -0.50278,0.02638 -0.47326,0.17845c0.04956,0.25526 0.40728,0.26922 0.7183,0.02818M232.71521,152.32607c1.26653,-0.23096 2.66281,-0.0119 2.84403,0.44587c0.04775,0.12102 0.12897,0.55915 0.18044,0.97373l0.09339,0.7536l-0.32026,0.23768c-0.50598,0.37579 -1.64376,0.86615 -2.19271,0.94529c-0.27619,0.03983 -0.52783,0.11355 -0.55977,0.16371c-0.03165,0.05019 -0.18756,0.09155 -0.34637,0.09155c-0.15907,0 -0.33424,0.04423 -0.38963,0.09853c-0.12004,0.11768 -2.49187,0.17173 -2.67469,0.06104c-0.0704,-0.04241 -0.10105,-0.14483 -0.06885,-0.22707c0.03246,-0.08251 0.0185,-0.12544 -0.03112,-0.09569c-0.09761,0.05925 -0.22136,-0.75775 -0.22291,-1.46923c-0.00185,-0.87756 1.20898,-1.5272 3.68846,-1.97902M257.45071,153.47642c1.26836,-0.62329 1.40739,-0.68124 1.40739,-0.58606c0,0.08041 -2.55412,1.30088 -2.60926,1.24683c-0.02612,-0.02556 0.51469,-0.323 1.20187,-0.66077M262.07354,154.12989c1.60419,-0.37241 2.75673,0.79634 3.20968,3.25454c0.21816,1.18425 0.33213,1.78607 0.53288,2.81617c0.0583,0.29846 0.27435,1.44932 0.47985,2.55781c0.20576,1.10843 0.47642,2.50346 0.60119,3.10038c0.5083,2.4279 0.1625,4.17776 -1.07606,5.44242c-0.49048,0.50106 -1.29007,0.91018 -13.17946,6.74355l-12.65704,6.20966h-0.6624c-0.54869,0 -0.74442,-0.05095 -1.14118,-0.29767c-1.07709,-0.66976 -1.18786,-1.01979 -2.35809,-7.45321c-0.08785,-0.48313 -0.20234,-1.08778 -0.25457,-1.34356c-0.05223,-0.25578 -0.14641,-0.74407 -0.20919,-1.0852c-0.06305,-0.34084 -0.20919,-1.10172 -0.325,-1.69036c-0.47801,-2.43154 -0.06358,-4.28277 1.2351,-5.51768c0.49099,-0.46671 24.9456,-12.53789 25.80404,-12.73703M254.71383,154.82329c1.25226,-0.62147 1.40368,-0.68535 1.40368,-0.59172c0,0.07965 -2.5462,1.31097 -2.60081,1.25769c-0.02664,-0.02611 0.51206,-0.32588 1.19713,-0.66597M263.35107,154.42892c-0.9995,-0.4561 0.37352,-1.04505 -14.10322,6.04651c-13.87642,6.79734 -13.06627,6.33957 -13.76061,7.77647c-0.57297,1.18526 -0.65422,2.0219 -0.35454,3.65256c0.24612,1.34123 0.3308,1.79488 0.42419,2.27359c0.05566,0.28422 0.14826,0.77252 0.20629,1.0852c0.05777,0.31271 0.1807,0.96364 0.27303,1.44675c0.09207,0.48313 0.21289,1.12269 0.26828,1.42114c0.0554,0.29846 0.15063,0.81003 0.21183,1.13667c0.06094,0.3269 0.15776,0.8501 0.21474,1.16278c0.37852,2.07287 0.46059,2.29268 1.12351,3.01194c0.92572,1.00476 1.45277,0.96804 3.92669,-0.2744c0.7827,-0.39312 1.56539,-0.78286 1.73923,-0.86614c0.17409,-0.08329 1.45489,-0.70815 2.84615,-1.38831c1.39157,-0.68016 4.66467,-2.27874 7.27366,-3.55245c2.60895,-1.27375 4.83861,-2.36851 4.95442,-2.43265c0.11608,-0.0644 1.6316,-0.81235 3.36846,-1.66242c4.84097,-2.36906 5.47699,-3.29828 4.7964,-7.00721c-0.11871,-0.64632 -0.26486,-1.45425 -0.32526,-1.79511c-0.06041,-0.34114 -0.15117,-0.82942 -0.20207,-1.0852c-0.05091,-0.25578 -0.12031,-0.62796 -0.15406,-0.82684c-0.03403,-0.19891 -0.10396,-0.54779 -0.15512,-0.77512c-0.05144,-0.22734 -0.14456,-0.69235 -0.20708,-1.03348c-0.22581,-1.23234 -0.736,-3.93524 -0.80934,-4.28878c-0.17094,-0.82396 -0.84447,-1.70071 -1.55592,-2.02554M251.33804,156.47466c1.47519,-0.72598 1.61738,-0.78673 1.61738,-0.69027c0,0.07991 -2.97463,1.50831 -3.02951,1.45478c-0.02612,-0.02561 0.60938,-0.36959 1.41213,-0.76451M223.59117,156.07457c0.48831,-0.18336 1.7957,-0.17224 1.95556,0.01682c0.39068,0.46141 -0.98847,1.15452 -2.02548,1.01822c-0.95206,-0.12547 -0.91537,-0.66443 0.0699,-1.03504M224.90488,156.3427c-0.34215,-0.21262 -1.4654,0.0256 -1.4654,0.31087c0,0.27291 0.63154,0.27162 1.17972,-0.00253c0.32815,-0.16423 0.39755,-0.23923 0.2857,-0.30854M257.61267,157.52044c0.27304,-0.28501 0.53657,-0.30621 0.72783,-0.05819c0.1187,0.15388 0.11738,0.16138 -0.00819,0.05146c-0.36696,-0.32069 -0.84365,0.01707 -0.84365,0.59768c0,0.41769 0.21473,0.67709 0.47853,0.57778c0.09495,-0.03567 0.13771,-0.0186 0.10051,0.0401c-0.09444,0.15 -0.27303,0.12492 -0.49173,-0.06879c-0.27144,-0.24103 -0.25244,-0.83845 0.03668,-1.14M242.86796,160.62473c6.23419,-3.06084 7.69974,-3.68258 7.69974,-3.57861c0,0.02818 -4.08928,1.96351 -7.62606,3.69731c-5.56003,2.72398 -8.42766,3.98217 -0.07413,-0.11871M258.43848,157.95987c0,-0.14586 0.02375,-0.26509 0.0525,-0.26509c0.12398,0 0.03878,0.59767 -0.11106,0.78103c-0.15828,0.19395 -0.16013,0.19292 -0.05276,-0.0251c0.06119,-0.12414 0.11132,-0.345 0.11132,-0.49087M259.77276,158.39229c0.06384,-0.1019 0.26459,-0.09595 0.44002,0.01293c0.09339,0.0582 0.03482,0.08351 -0.17411,0.07603c-0.17305,-0.0062 -0.29281,-0.04628 -0.26591,-0.08896M227.86817,158.73343c-0.64081,-0.11174 -0.03905,-0.12053 0.68507,-0.0101c0.43105,0.06593 0.4598,0.08159 0.15802,0.08664c-0.20284,0.00336 -0.58218,-0.03104 -0.84308,-0.07655M256.80881,158.90414c0.04036,-0.15879 0.09393,-0.26895 0.11871,-0.24466c0.09945,0.09748 -0.10315,0.58139 -0.31709,0.75881c-0.22426,0.18541 -0.22505,0.18515 -0.05147,-0.01839c0.09682,-0.11354 0.20917,-0.33673 0.24982,-0.49578M254.45597,158.99232c0.12873,-0.08845 0.28306,-0.15928 0.34241,-0.15776c0.05962,0.00181 0.01346,0.05405 -0.10236,0.11638c-0.11607,0.06207 -0.27013,0.18595 -0.34267,0.27492c-0.07255,0.089 -0.13164,0.10915 -0.13164,0.04475c0,-0.06466 0.10526,-0.18957 0.23426,-0.27828M255.19488,159.5551c0,-0.19912 0.02164,-0.28035 0.04827,-0.18104c0.02638,0.09957 0.02638,0.26225 0,0.36182c-0.02664,0.09931 -0.04827,0.0181 -0.04827,-0.18078M260.17226,159.64821c0.16092,-0.15 0.20101,-0.10733 0.05803,0.06181c-0.07228,0.08535 -0.23214,0.14948 -0.3556,0.14302c-0.21261,-0.0114 -0.21341,-0.01448 -0.01345,-0.06181c0.11608,-0.02716 0.25589,-0.09155 0.31102,-0.14302M252.74556,159.86493c0.3134,-0.30699 0.84339,-0.21673 0.84339,0.1438c0,0.05638 -0.06384,0.01707 -0.14166,-0.08741c-0.18439,-0.24724 -0.62389,-0.14949 -0.7827,0.17405c-0.06358,0.12906 -0.11854,0.17664 -0.12267,0.10552c-0.00396,-0.07112 0.08784,-0.22216 0.20366,-0.33596M254.95939,160.1233c0.07202,-0.08509 0.15644,-0.15491 0.1873,-0.15491c0.03087,0 -0.02981,0.0931 -0.13454,0.20664c-0.23529,0.25475 -0.50912,0.26509 -0.69352,0.02586c-0.11896,-0.15388 -0.11764,-0.16164 0.00819,-0.05172c0.19888,0.17406 0.47271,0.16293 0.63257,-0.02586M260.00459,160.38787c0.13691,-0.11716 0.29889,-0.21285 0.36009,-0.21285c0.12979,0 0.12346,0.00517 -0.29282,0.24414l-0.31604,0.18155l0.24877,-0.21285M260.78172,160.89842c0,-0.19886 0.02164,-0.28035 0.04802,-0.18078c0.02664,0.09957 0.02664,0.26225 0,0.36182c-0.02638,0.09931 -0.04802,0.0181 -0.04802,-0.18104M259.72947,161.05359c-0.00129,-0.22733 0.01927,-0.33259 0.04565,-0.23379c0.02658,0.0988 0.02761,0.28474 0.00258,0.41328c-0.02535,0.12854 -0.04699,0.04785 -0.04802,-0.17949M260.53906,161.47515c0.07598,-0.08974 0.16356,-0.16319 0.19442,-0.16319c0.03087,0 -0.02981,0.09285 -0.1348,0.20665c-0.196,0.21259 -0.52417,0.27491 -0.62283,0.11819c-0.03087,-0.04864 0.05223,-0.06799 0.18466,-0.04319c0.13876,0.02587 0.29889,-0.02405 0.37855,-0.11845M251.41581,162.60687c0.09629,-0.1438 0.22133,-0.26147 0.27778,-0.26147c0.05672,0 0.00818,0.09284 -0.10763,0.20664c-0.11607,0.11379 -0.21104,0.26095 -0.21104,0.32716c0,0.06645 -0.03006,0.09105 -0.06674,0.05509c-0.03694,-0.03621 0.01161,-0.18337 0.10763,-0.32742M252.17238,162.57919l-0.17728,-0.28552l0.21711,0.24388c0.23347,0.2625 0.27646,0.59223 0.11001,0.84129c-0.07357,0.11017 -0.08465,0.05845 -0.03797,-0.17974c0.04406,-0.22628 0.00791,-0.42697 -0.11185,-0.61991M260.02974,162.86497c0.00897,-0.22112 0.02348,-0.20819 0.09392,0.08405c0.09523,0.39441 0.17807,0.49269 0.47484,0.56278c0.19496,0.04605 0.19338,0.0507 -0.0203,0.06181c-0.28094,0.01445 -0.56348,-0.35045 -0.54844,-0.70865M244.56381,163.9504c0.24111,-0.3605 0.30548,-0.32972 0.08811,0.04192c-0.09761,0.16681 -0.19678,0.28451 -0.22027,0.26147c-0.02348,-0.02302 0.03614,-0.15958 0.13217,-0.30337M260.71857,164.1097c0.30971,-0.23871 0.41733,-0.26224 0.51204,-0.11198c0.03667,0.05793 -0.00422,0.07632 -0.09444,0.04243c-0.0918,-0.03465 -0.27224,0.05121 -0.42709,0.20302c-0.14746,0.14456 -0.26828,0.22189 -0.26828,0.17199c0,-0.05017 0.12504,-0.18776 0.27778,-0.30544M245.48602,164.33931c0.0132,-0.26507 0.0182,-0.26843 0.06199,-0.04162c0.0488,0.2527 -0.23768,0.7358 -0.48408,0.81624c-0.07228,0.02353 -0.01002,-0.07605 0.13823,-0.22138c0.14826,-0.14533 0.27591,-0.39413 0.28385,-0.55318M252.18422,164.27752l-0.22951,-0.04394l0.22977,-0.01399c0.32735,-0.0202 0.56348,0.25679 0.54498,0.6393l-0.01556,0.32845l-0.04642,-0.31009c-0.05698,-0.38302 -0.18598,-0.54311 -0.48328,-0.59975M243.1779,164.48106c0.25299,-0.09983 0.34294,-0.06207 0.13295,0.05586c-0.11607,0.06543 -0.27277,0.1919 -0.34848,0.28112c-0.1171,0.13862 -0.12132,0.12957 -0.02741,-0.06103c0.06041,-0.12285 0.16989,-0.24696 0.24296,-0.27595M251.61026,165.03217c0,-0.19891 0.0219,-0.28035 0.04827,-0.18078c0.02664,0.09957 0.02664,0.26225 0,0.36182c-0.02638,0.09931 -0.04827,0.0181 -0.04827,-0.18104M261.29866,165.15088c0.07439,-0.1169 0.15668,-0.19165 0.18255,-0.1663c0.02612,0.0256 -0.03877,0.13966 -0.14403,0.25371c-0.19202,0.20794 -0.62677,0.28138 -0.72675,0.12259c-0.02928,-0.04657 0.0831,-0.0649 0.24982,-0.04086c0.22265,0.03207 0.33872,-0.01294 0.43843,-0.16914M241.40299,165.47157c0.24059,-0.27879 0.5131,-0.29871 0.70356,-0.05172c0.1187,0.15388 0.11764,0.16164 -0.00819,0.05172c-0.20367,-0.17819 -0.4184,-0.1619 -0.67693,0.05147c-0.21893,0.18078 -0.21893,0.18078 -0.01844,-0.05147M243.74846,165.47056c0.03957,-0.15527 0.09104,-0.22681 0.11396,-0.15931c0.14457,0.42544 -0.59171,0.82398 -0.90326,0.48906c-0.16463,-0.1769 -0.16437,-0.18001 0.00737,-0.05354c0.2786,0.2056 0.69645,0.05793 0.78193,-0.27621M252.53427,165.32157c0,-0.06465 0.03561,-0.08223 0.07914,-0.03955c0.0897,0.08819 -0.35509,0.47561 -0.53896,0.4694c-0.06595,-0.00232 0.01055,-0.07371 0.16988,-0.15853c0.1596,-0.08457 0.28992,-0.2069 0.28992,-0.2713M241.174,166.06538c0,-0.19886 0.02164,-0.28035 0.04827,-0.18078c0.02638,0.09957 0.02638,0.26225 0,0.36182c-0.02664,0.09931 -0.04827,0.0181 -0.04827,-0.18104M260.92079,166.08846c0.09022,-0.12621 0.18784,-0.22966 0.21684,-0.22966c0.02902,0 -0.0211,0.10345 -0.11133,0.22966c-0.21765,0.30462 -0.20842,0.78801 0.0203,1.05414c0.18413,0.21465 0.18413,0.21465 -0.05276,0.01783c-0.28147,-0.23356 -0.3155,-0.7327 -0.07307,-1.07202M261.66526,165.95863c-0.04458,-0.08327 -0.00633,-0.06129 0.08494,0.04915c0.09128,0.11041 0.16066,0.34292 0.15406,0.51671c-0.01213,0.31448 -0.01266,0.31422 -0.08521,-0.04915c-0.04009,-0.20067 -0.10949,-0.43344 -0.15379,-0.51671M252.12056,166.33775c0.30526,-0.38044 0.94968,-0.32277 0.93783,0.08431c-0.00185,0.05974 -0.05171,0.02715 -0.1108,-0.07242c-0.39332,-0.66233 -1.18024,0.27593 -0.82886,0.98873c0.10737,0.21804 0.10552,0.21881 -0.05276,0.0251c-0.2274,-0.27826 -0.20471,-0.70242 0.05461,-1.0257M242.09827,166.36053c0,-0.06748 0.03534,-0.08768 0.07888,-0.045c0.09207,0.09052 -0.35482,0.47354 -0.55215,0.47354c-0.07333,0 -0.19864,-0.08147 -0.27831,-0.18104c-0.13161,-0.16448 -0.12766,-0.16785 0.04302,-0.03647c0.2113,0.16268 0.70856,0.01448 0.70856,-0.21104M239.52673,166.64245c0.1005,-0.25656 0.15802,-0.19139 0.08468,0.09569c-0.04142,0.16162 -0.00027,0.36567 0.10948,0.54257l0.17595,0.28345l-0.21684,-0.24414c-0.22687,-0.25474 -0.26037,-0.4037 -0.15327,-0.67759M247.05282,166.68721c0.51653,-0.33205 1.0932,0.39494 0.73628,0.92847c-0.07409,0.11121 -0.08573,0.06362 -0.04034,-0.16811c0.0984,-0.50382 -0.11424,-0.79788 -0.52128,-0.72133c-0.23821,0.04475 -0.2878,0.03363 -0.17463,-0.03904M252.96428,166.98748c0.00686,-0.11896 0.019,-0.12025 0.06516,-0.00672c0.03113,0.07682 -0.05381,0.23949 -0.18888,0.36156c-0.23162,0.20921 -0.23531,0.20947 -0.06516,0.00697c0.09919,-0.11819 0.18424,-0.28087 0.18888,-0.36182M240.33661,167.27455c0.1282,-0.13061 0.25271,-0.22398 0.27646,-0.20716c0.06173,0.04319 -0.32183,0.4451 -0.42472,0.4451c-0.04696,0 0.01979,-0.10707 0.14826,-0.23794M246.74314,167.62552c0.00448,-0.10603 0.04089,-0.0812 0.10288,0.07009c0.12401,0.30207 0.33846,0.3794 0.64658,0.23251c0.23401,-0.11174 0.23586,-0.10967 0.04091,0.04369c-0.32446,0.25477 -0.80614,0.04371 -0.79032,-0.3463M252.92972,167.99871l-0.23742,-0.04475l0.23135,-0.01394c0.46904,-0.02874 0.69802,0.63077 0.39016,1.12268c-0.10655,0.17043 -0.13664,0.18802 -0.08811,0.05173c0.22896,-0.64372 0.12478,-1.03631 -0.29598,-1.11571M247.3062,168.67503c0.39541,-0.45778 0.91799,-0.17998 0.88899,0.47251l-0.01659,0.38018l-0.04457,-0.3613c-0.07651,-0.62199 -0.3854,-0.78984 -0.80959,-0.43966c-0.21894,0.18078 -0.21894,0.18052 -0.01819,-0.05173M261.27544,168.98513c-0.11869,-0.15388 -0.11737,-0.16164 0.00819,-0.05173c0.08125,0.07112 0.24745,0.12931 0.36906,0.12931c0.12188,0 0.28807,-0.05819 0.36932,-0.12931c0.12558,-0.10991 0.1269,-0.10216 0.00819,0.05173c-0.07677,0.09957 -0.24665,0.18077 -0.3775,0.18077c-0.13058,0 -0.30047,-0.0812 -0.37723,-0.18077M247.07742,169.26936c0,-0.19886 0.02164,-0.28035 0.04802,-0.18078c0.02664,0.09931 0.02664,0.26225 0,0.36156c-0.02638,0.09957 -0.04802,0.0181 -0.04802,-0.18078M252.47164,169.2435l-0.20075,-0.2325l0.2332,0.19345c0.129,0.10681 0.30838,0.16499 0.40098,0.13035c0.0968,-0.03648 0.14034,-0.01993 0.10288,0.03904c-0.10633,0.16888 -0.32344,0.11612 -0.53633,-0.13035M252.91086,169.94854c0.58062,-0.56924 1.22191,0.47716 0.66925,1.09217l-0.21922,0.24388l0.16646,-0.25552c0.44606,-0.68435 -0.02932,-1.46565 -0.58934,-0.96857c-0.23529,0.20871 -0.25824,0.11457 -0.02715,-0.11199M252.66421,170.61295c0,-0.19887 0.0219,-0.28035 0.04827,-0.18104c0.02664,0.09957 0.02664,0.26225 0,0.36182c-0.02638,0.09957 -0.04827,0.0181 -0.04827,-0.18078M260.17077,170.45957c0.3374,-0.25837 0.90774,0.0256 0.76317,0.37992c-0.03823,0.09312 -0.05775,0.08304 -0.06358,-0.03308c-0.01504,-0.30439 -0.29548,-0.44535 -0.61758,-0.31035c-0.26644,0.11172 -0.27224,0.10914 -0.08204,-0.03647M247.43488,170.87517c0.1095,-0.27957 0.14458,-0.11819 0.04513,0.20793c-0.05093,0.16757 -0.09668,0.22733 -0.10183,0.13242c-0.00501,-0.09466 0.0206,-0.24802 0.05672,-0.34035M259.81886,171.13561c0.01003,-0.24311 0.01715,-0.23871 0.08864,0.05457c0.04274,0.17561 0.11267,0.38483 0.15512,0.46527c0.04274,0.08017 0.00264,0.0556 -0.08837,-0.05457c-0.09128,-0.11043 -0.1612,-0.31966 -0.15538,-0.46526M258.54306,171.23775c0.23744,-0.1575 0.4841,-0.12957 0.64607,0.07267c0.13087,0.16373 0.12718,0.16761 -0.03849,0.0401c-0.11343,-0.08715 -0.29387,-0.11534 -0.47431,-0.07422c-0.21579,0.04914 -0.25035,0.03905 -0.13322,-0.03854M260.80885,171.35854c0.05777,-0.12778 0.12212,-0.18181 0.14324,-0.12001c0.0525,0.15466 -0.40469,0.61496 -0.60887,0.61293c-0.10077,-0.00077 -0.06252,-0.0525 0.09734,-0.13086c0.14509,-0.07138 0.31076,-0.23431 0.36826,-0.36207M239.4778,171.76508c0.07465,-0.11715 0.15669,-0.19191 0.18281,-0.1663c0.02585,0.02535 -0.03878,0.13966 -0.14404,0.25371c-0.19202,0.20768 -0.62677,0.28113 -0.72675,0.12259c-0.02928,-0.04657 0.0831,-0.06516 0.24955,-0.04111c0.22265,0.03207 0.33898,-0.01267 0.43844,-0.16888M253.23584,171.83545c0.1931,-0.20923 0.42841,-0.23897 0.66899,-0.08431c0.11343,0.07289 0.06516,0.08405 -0.17121,0.0398c-0.26618,-0.05017 -0.36193,-0.01604 -0.50069,0.17819c-0.09418,0.13191 -0.17147,0.19837 -0.17147,0.14742c0,-0.05069 0.07861,-0.17742 0.17437,-0.28113M256.82011,172.14527c0.28125,-0.3044 0.88693,-0.1888 0.87636,0.16759c-0.00158,0.05974 -0.05144,0.02715 -0.11053,-0.07242c-0.15065,-0.25318 -0.57957,-0.22628 -0.7761,0.04889c-0.09049,0.12647 -0.16435,0.18828 -0.16435,0.13733c0,-0.05069 0.07862,-0.17742 0.17463,-0.28138M248.16569,172.25674c0.09789,-0.15518 0.43292,-0.10552 0.58697,0.08715c0.1311,0.16369 0.12741,0.16757 -0.03905,0.03955c-0.1013,-0.07786 -0.2791,-0.11716 -0.39544,-0.08715c-0.11636,0.02976 -0.18493,0.01192 -0.15247,-0.03955M240.01412,173.09313c0,-0.19886 0.0219,-0.28035 0.04827,-0.18078c0.02664,0.09957 0.02664,0.26225 0,0.36182c-0.02638,0.09931 -0.04827,0.01785 -0.04827,-0.18104M256.0375,173.40322c0,-0.19891 0.02164,-0.28035 0.04802,-0.18078c0.02664,0.09931 0.02664,0.26224 0,0.36155c-0.02638,0.09957 -0.04802,0.01811 -0.04802,-0.18077M247.7906,173.27234c0,-0.05431 0.08943,0.00931 0.19838,0.14147c0.17859,0.21621 0.22898,0.22759 0.50069,0.11328c0.27857,-0.11714 0.28622,-0.11481 0.09787,0.0295c-0.29755,0.22784 -0.79692,0.04966 -0.79692,-0.28423M255.80198,173.97166c0.07202,-0.08535 0.15644,-0.15518 0.1873,-0.15518c0.03087,0 -0.02981,0.0931 -0.1348,0.2069c-0.23503,0.25474 -0.50886,0.26483 -0.69352,0.02586c-0.11869,-0.15388 -0.11737,-0.16164 0.00819,-0.05173c0.19919,0.17406 0.47301,0.16293 0.63288,-0.02586M248.27072,174.35623c0.09022,-0.12621 0.19099,-0.22966 0.2237,-0.22966c0.03271,0 -0.00158,0.07216 -0.07624,0.16061c-0.07465,0.08818 -0.16989,0.33232 -0.21157,0.54232c-0.07177,0.36234 -0.07651,0.36595 -0.08784,0.06931c-0.00659,-0.17197 0.06173,-0.41611 0.15195,-0.54257M249.02889,174.22977c-0.11211,-0.12312 -0.1042,-0.12441 0.05276,-0.00803c0.25535,0.18956 0.23689,0.75388 -0.03483,1.05596l-0.21922,0.24414l0.16646,-0.25552c0.1997,-0.30619 0.21764,-0.83586 0.03483,-1.03656M239.26112,175.11115c0.00633,-0.14768 0.03667,-0.11793 0.10314,0.10061c0.05197,0.17043 0.17543,0.36802 0.27462,0.43915c0.09917,0.07112 0.12662,0.12931 0.06094,0.12931c-0.172,0 -0.44952,-0.42284 -0.4387,-0.66905M240.12533,175.54254c0.12847,-0.13087 0.25298,-0.22424 0.27673,-0.20742c0.06146,0.04319 -0.32184,0.44509 -0.42472,0.44509c-0.04696,0 0.01978,-0.10707 0.14799,-0.23767M239.81985,176.45525c0.09629,-0.14405 0.25694,-0.25854 0.35692,-0.255c0.14139,0.00491 0.13137,0.02638 -0.0459,0.09647c-0.1253,0.04966 -0.2601,0.18957 -0.29941,0.31138c-0.0393,0.12157 -0.09736,0.19577 -0.129,0.16501c-0.03166,-0.03104 0.02137,-0.17406 0.11739,-0.31785M240.70806,176.76325c-0.02295,-0.19164 -0.00422,-0.32587 0.04168,-0.29794c0.25639,0.15522 -0.13111,1.17521 -0.44635,1.17521c-0.05118,0 0.02823,-0.11897 0.17648,-0.26432c0.20841,-0.20431 0.26008,-0.34345 0.22819,-0.61293M247.09557,176.94274c0.2406,-0.27854 0.51284,-0.29845 0.70356,-0.05146c0.1187,0.15362 0.11738,0.16138 -0.00819,0.05146c-0.20393,-0.17794 -0.41866,-0.16164 -0.67719,0.05173c-0.21894,0.18077 -0.21894,0.18077 -0.01819,-0.05173M239.68023,177.24016c0.00448,-0.11379 0.03746,-0.0931 0.10209,0.0644c0.0525,0.12776 0.15221,0.2325 0.22159,0.2325c0.06965,0 0.09602,0.03 0.05883,0.06647c-0.10288,0.10061 -0.39013,-0.17225 -0.38251,-0.36337M246.86631,177.53706c0,-0.19891 0.0219,-0.28035 0.04827,-0.18077c0.02664,0.09931 0.02664,0.26224 0,0.36155c-0.02638,0.09957 -0.04827,0.01811 -0.04827,-0.18078M245.46317,177.71784c0.07677,-0.09931 0.24665,-0.18078 0.37723,-0.18078c0.13085,0 0.30073,0.08147 0.3775,0.18078c0.1187,0.15388 0.11738,0.16164 -0.00819,0.05173c-0.08125,-0.07112 -0.24744,-0.12905 -0.36932,-0.12905c-0.12161,0 -0.2878,0.05793 -0.36906,0.12905c-0.12559,0.10991 -0.12691,0.10216 -0.00819,-0.05173M240.87857,178.21621c-0.09128,-0.08923 -0.1166,-0.16242 -0.05646,-0.16242c0.17516,0 0.34429,0.39958 0.29704,0.70269c-0.04035,0.25914 -0.04457,0.25578 -0.05936,-0.0494c-0.00844,-0.18078 -0.09022,-0.40164 -0.18123,-0.49087M246.12538,178.67863c0.0707,-0.11119 0.14983,-0.1813 0.17595,-0.15569c0.0984,0.09647 -0.34557,0.46087 -0.56162,0.46087c-0.24217,0 -0.48116,-0.17897 -0.4759,-0.35639c0.00159,-0.05974 0.05144,-0.02715 0.11054,0.07242c0.14405,0.24233 0.5912,0.22965 0.75107,-0.02121M243.5847,179.09346c0.01003,-0.24337 0.01715,-0.23897 0.08864,0.05457c0.04273,0.17535 0.11266,0.38458 0.15511,0.46501c0.04247,0.08017 0.00264,0.05561 -0.08864,-0.05457c-0.09128,-0.11043 -0.1612,-0.31966 -0.15512,-0.46501M242.2462,179.31976c0.11053,-0.12776 0.27646,-0.22877 0.36906,-0.22423c0.14274,0.00672 0.14406,0.01653 0.01005,0.06517c-0.08705,0.03129 -0.25299,0.13216 -0.36906,0.22423c-0.20895,0.16604 -0.20921,0.16552 -0.01005,-0.06517M242.89778,179.28486c-0.04274,-0.08017 -0.00264,-0.0556 0.08864,0.05483c0.09127,0.11018 0.16093,0.3194 0.15511,0.46501c-0.01002,0.24311 -0.01715,0.23871 -0.08864,-0.05457c-0.04274,-0.17561 -0.11266,-0.38484 -0.15511,-0.46527M244.46529,179.50779c0.03852,-0.06078 0.09812,-0.11043 0.13269,-0.11043c0.03456,0 -0.02322,0.09285 -0.12794,0.20664c-0.10499,0.11379 -0.26644,0.20371 -0.35904,0.20017c-0.11475,-0.00439 -0.09629,-0.03491 0.0583,-0.09621c0.12451,-0.04914 0.25776,-0.13914 0.29599,-0.20017M242.00956,179.92731l0.0169,-0.37501l0.04431,0.3613c0.02453,0.19887 0.09998,0.43137 0.16778,0.51671c0.10711,0.1355 0.09919,0.13731 -0.06146,0.01369c-0.12238,-0.09438 -0.17885,-0.26766 -0.16751,-0.51671M261.17823,180.3272c0,-0.11354 0.06173,-0.20665 0.13718,-0.20665c0.20919,0 0.3899,0.2219 0.3899,0.47846c0,0.16035 0.07228,0.24076 0.23715,0.26354c0.25642,0.03571 0.28596,0.20946 0.1596,0.93751c-0.04933,0.28474 -0.03034,0.38742 0.07149,0.38742c0.34927,0 0.40282,0.28296 0.19996,1.05702c-0.17807,0.67968 -0.22212,0.75158 -0.45901,0.75158c-0.16461,0 -0.31392,0.09 -0.4023,0.24233c-0.09629,0.16653 -0.20524,0.22578 -0.34716,0.18931c-0.1319,-0.03362 -0.25246,0.01888 -0.33292,0.14535c-0.1406,0.22087 -0.49701,0.27027 -0.49753,0.06906c-0.00026,-0.07112 -0.09708,0.02612 -0.215,0.21595c-0.16303,0.26224 -0.24745,0.31837 -0.35112,0.23406c-0.10183,-0.08302 -0.19547,-0.04423 -0.3709,0.15336c-0.17437,0.19682 -0.26908,0.23639 -0.36985,0.15414c-0.10209,-0.08302 -0.16619,-0.04396 -0.26011,0.15802c-0.10209,0.21981 -0.17305,0.2563 -0.39412,0.20173c-0.21711,-0.05328 -0.28119,-0.02328 -0.32843,0.15388c-0.04406,0.16501 -0.12056,0.20845 -0.30522,0.1738c-0.17675,-0.0331 -0.29414,0.02509 -0.41469,0.2056c-0.10763,0.16087 -0.22818,0.22916 -0.3345,0.18906c-0.09734,-0.03647 -0.25035,0.02612 -0.36932,0.15129c-0.12425,0.13062 -0.27699,0.19088 -0.3928,0.15492c-0.13295,-0.04138 -0.20684,0.00595 -0.24744,0.15853c-0.03535,0.13216 -0.13322,0.20951 -0.25009,0.19759c-0.35059,-0.03595 -0.45584,0.00232 -0.45584,0.16604c0,0.11562 -0.08283,0.15259 -0.28992,0.12905c-0.20471,-0.02302 -0.32263,0.02819 -0.40124,0.17406c-0.07518,0.13967 -0.19917,0.1976 -0.38251,0.17897c-0.20181,-0.02069 -0.28623,0.02897 -0.33028,0.19371c-0.0459,0.17222 -0.11396,0.20793 -0.30601,0.16061c-0.17648,-0.04345 -0.28411,-0.00284 -0.37644,0.14225c-0.07096,0.11147 -0.2237,0.20302 -0.33925,0.20302c-0.11528,0 -0.30944,0.0975 -0.43131,0.21699c-0.15723,0.15438 -0.25377,0.18492 -0.33423,0.10629c-0.08046,-0.07888 -0.14747,-0.04448 -0.23241,0.11871c-0.08442,0.16244 -0.19917,0.22164 -0.39069,0.20199c-0.19732,-0.02017 -0.28651,0.02897 -0.32711,0.18078c-0.05936,0.22319 -0.33292,0.28164 -0.45005,0.09621c-0.043,-0.06853 -0.11871,-0.0181 -0.19337,0.12906c-0.06727,0.13293 -0.23557,0.25759 -0.37406,0.27698c-0.1385,0.0194 -0.33345,0.13422 -0.43343,0.255c-0.14641,0.17716 -0.21131,0.19552 -0.33503,0.09466c-0.12583,-0.10216 -0.17622,-0.07629 -0.27831,0.14328c-0.09945,0.21414 -0.17569,0.25551 -0.37829,0.2056c-0.19574,-0.0481 -0.26961,-0.0137 -0.32263,0.15052c-0.04696,0.14457 -0.14219,0.20276 -0.29704,0.18104c-0.12847,-0.01785 -0.30179,0.05483 -0.39623,0.16629c-0.10736,0.12653 -0.23425,0.17305 -0.35138,0.12905c-0.19603,-0.0737 -0.16728,-0.34473 0.03189,-0.3013c0.06674,0.01448 0.11845,-0.10656 0.11845,-0.27828c0,-0.16708 0.04749,-0.33261 0.10552,-0.36777c0.05801,-0.03517 0.10526,-0.22113 0.10526,-0.41329c0,-0.19242 0.04748,-0.37838 0.10552,-0.41354c0.05802,-0.03517 0.10552,-0.22113 0.10552,-0.41329c0,-0.19215 0.04722,-0.37838 0.10526,-0.41354c0.05802,-0.03492 0.10552,-0.2444 0.10552,-0.46501c0,-0.22061 0.04749,-0.42985 0.10526,-0.46501c0.17305,-0.10471 0.12847,-0.67163 -0.05249,-0.67163c-0.18889,0 -0.2042,-0.12026 -0.03668,-0.28475c0.55319,-0.54207 0.63655,0.45984 0.19469,2.33486c-0.17385,0.73785 -0.3163,1.37952 -0.3163,1.42553c0,0.21775 0.29574,-0.36648 0.3469,-0.68537c0.03192,-0.19891 0.13269,-0.68718 0.2237,-1.0852c0.37196,-1.62338 0.40836,-1.90657 0.26776,-2.07287c-0.2026,-0.23915 0.02269,-0.41121 0.30891,-0.23612c0.31603,0.1937 0.28148,0.7187 -0.15485,2.36072c-0.26697,1.00476 -0.34136,1.44675 -0.24322,1.44675c0.05172,0 0.09417,-0.1394 0.09417,-0.31009c0,-0.17043 0.04749,-0.30983 0.10552,-0.30983c0.05775,0 0.10526,-0.18621 0.10526,-0.41354c0,-0.22733 0.04749,-0.41328 0.10552,-0.41328c0.05801,0 0.10526,-0.16009 0.10526,-0.35561c0,-0.19552 0.04748,-0.38433 0.10552,-0.41949c0.05802,-0.03517 0.10552,-0.2444 0.10552,-0.46501c0,-0.22086 0.04722,-0.43011 0.10526,-0.46526c0.18202,-0.11016 0.13243,-0.80716 -0.05276,-0.73759c-0.17753,0.06699 -0.22291,-0.19242 -0.0517,-0.29639c0.65076,-0.39418 0.65101,1.07015 0.00103,3.2553c-0.14509,0.48802 -0.1356,0.55992 0.05064,0.37733c0.08705,-0.08535 0.15828,-0.29871 0.15828,-0.47406c0,-0.17535 0.043,-0.39958 0.09576,-0.49811c0.27119,-0.50742 0.61281,-2.5498 0.44371,-2.65221c-0.1902,-0.11535 -0.13507,-0.36932 0.0802,-0.36932c0.5276,0 0.54264,0.55657 0.06542,2.42851c-0.25721,1.00839 -0.37275,2.00589 -0.13797,1.18864c0.05724,-0.19891 0.12846,-0.5364 0.15854,-0.75002c0.03007,-0.21337 0.09682,-0.41379 0.14879,-0.44535c0.05172,-0.0313 0.09417,-0.2144 0.09417,-0.40656c0,-0.19216 0.04749,-0.37838 0.10552,-0.41329c0.05806,-0.03517 0.10526,-0.22112 0.10526,-0.41354c0,-0.19216 0.04749,-0.37813 0.10552,-0.41329c0.18202,-0.11041 0.13242,-0.80741 -0.05276,-0.73785c-0.10552,0.03983 -0.15802,-0.00414 -0.15802,-0.13293c0,-0.10578 0.07228,-0.21959 0.16039,-0.25267c0.21159,-0.07965 0.60281,0.31011 0.53633,0.53459c-0.12793,0.43398 -0.19284,1.39013 -0.08995,1.3278c0.19812,-0.11996 0.42841,-1.82406 0.24665,-1.82406c-0.06358,0 -0.11555,-0.09311 -0.11555,-0.20665c0,-0.13785 0.07017,-0.20664 0.21078,-0.20664c0.11608,0 0.21078,0.04629 0.21078,0.10319c0,0.20742 0.19732,0.09673 0.23003,-0.12905c0.04405,-0.30389 0.45267,-0.3719 0.60119,-0.10009c0.15221,0.27881 0.06833,0.92539 -0.3002,2.31653c-0.3709,1.40069 -0.36932,1.38854 -0.16197,1.21966c0.08705,-0.0706 0.15801,-0.28294 0.15801,-0.47147c0,-0.18854 0.04749,-0.37166 0.10552,-0.40682c0.05802,-0.03517 0.10552,-0.2444 0.10552,-0.46501c0,-0.22087 0.04223,-0.42671 0.09365,-0.45803c0.0889,-0.05405 0.15274,-0.32326 0.29124,-1.23183c0.03719,-0.24261 0.00659,-0.49761 -0.07808,-0.65279c-0.18386,-0.33673 0.0612,-0.52734 0.34954,-0.27156c0.17306,0.1536 0.18677,0.15024 0.18677,-0.04425c0,-0.47302 0.57669,-0.54182 0.69408,-0.08276c0.0641,0.25033 -0.01979,0.74017 -0.41074,2.39537c-0.1873,0.79369 -0.21341,1.03631 -0.10736,0.99645c0.08362,-0.03155 0.14034,-0.21543 0.14034,-0.45518c0,-0.22138 0.04748,-0.40242 0.10552,-0.40242c0.05806,0 0.10526,-0.15983 0.10526,-0.35561c0,-0.19552 0.04749,-0.38433 0.10552,-0.41949c0.05802,-0.03492 0.10552,-0.2444 0.10552,-0.46501c0,-0.22061 0.04722,-0.42985 0.10526,-0.46501c0.1485,-0.09001 0.13162,-1.01794 -0.02112,-1.16768c-0.20472,-0.20095 0.07096,-0.41457 0.33001,-0.25604c0.17068,0.10448 0.20709,0.08612 0.26274,-0.13164c0.03852,-0.15026 0.1414,-0.25319 0.25272,-0.25319c0.49093,0 0.55873,0.53404 0.22291,1.75683c-0.38885,1.41543 -0.51204,2.08581 -0.36088,1.96271c0.12688,-0.10319 0.1865,-0.33185 0.33028,-1.26572c0.03297,-0.21362 0.10236,-0.41378 0.15406,-0.44535c0.05198,-0.0313 0.09418,-0.20794 0.09418,-0.39208c0,-0.18414 0.04169,-0.37915 0.09259,-0.4332c0.17041,-0.18052 0.21131,-1.06243 0.05197,-1.12243c-0.19071,-0.07164 -0.18517,-0.36182 0.00819,-0.43475c0.58907,-0.22164 0.64948,0.61733 0.172,2.38916c-0.27567,1.02338 -0.35033,1.49847 -0.23584,1.49847c0.05382,0 0.12505,-0.12776 0.15802,-0.28397c0.15116,-0.71587 0.27646,-1.26906 0.43896,-1.93785c0.28596,-1.17597 0.32526,-1.72219 0.11845,-1.64434c-0.20892,0.07862 -0.22712,-0.09388 -0.02689,-0.25681c0.63971,-0.52035 0.72017,0.38019 0.21368,2.38739c-0.28491,1.1289 -0.29572,1.2189 -0.14773,1.2189c0.05802,0 0.10552,-0.15983 0.10552,-0.35561c0,-0.19552 0.04749,-0.38433 0.10526,-0.41949c0.05802,-0.03491 0.10552,-0.24699 0.10552,-0.47096c0,-0.22396 0.04749,-0.40733 0.10552,-0.40733c0.05775,0 0.10526,-0.18595 0.10526,-0.41354c0,-0.22733 0.04749,-0.41328 0.10552,-0.41328c0.15881,0 0.13348,-1.2127 -0.02638,-1.27037c-0.10415,-0.0375 -0.10468,-0.07552 -0.00206,-0.18207c0.10658,-0.11075 0.17622,-0.11023 0.39122,0.00253c0.30996,0.16269 0.2973,0.42878 -0.09998,2.12176c-0.38462,1.63863 -0.39517,1.70536 -0.27119,1.70536c0.06254,0 0.1137,-0.16293 0.1137,-0.36182c0,-0.19889 0.04748,-0.36156 0.10552,-0.36156c0.05802,0 0.10552,-0.12466 0.10552,-0.27699c0,-0.15231 0.04643,-0.41973 0.10367,-0.5943c0.38859,-1.1897 0.54395,-2.16935 0.36484,-2.29789c-0.24112,-0.17276 -0.12451,-0.44871 0.15854,-0.37604c0.42393,0.10885 0.40968,0.71299 -0.06015,2.55054c-0.14377,0.56121 -0.24268,1.09606 -0.22001,1.18839c0.02533,0.10396 0.06884,0.04991 0.11423,-0.14225c0.0401,-0.17044 0.11897,-0.45286 0.1749,-0.62743c0.05592,-0.17434 0.10183,-0.4159 0.10183,-0.53641c0,-0.12052 0.04748,-0.24778 0.10526,-0.28294c0.05802,-0.03517 0.10552,-0.24337 0.10552,-0.46242c0,-0.21932 0.04379,-0.41431 0.09708,-0.4332c0.15487,-0.05511 0.17043,-1.08312 0.01901,-1.26209c-0.29334,-0.34656 0.14799,-0.50949 0.46139,-0.17018c0.22371,0.24235 0.19785,0.47201 -0.26881,2.37108c-0.21686,0.8822 -0.28148,1.31668 -0.20656,1.39013c0.07468,0.07319 0.10868,-0.01294 0.10868,-0.2757c0,-0.21052 0.04749,-0.3825 0.10552,-0.3825c0.05801,0 0.10526,-0.15336 0.10526,-0.34113c0,-0.1875 0.04273,-0.38509 0.0947,-0.43915c0.05197,-0.05406 0.11818,-0.28423 0.14667,-0.51156c0.02875,-0.22734 0.12742,-0.73345 0.21922,-1.12475c0.16169,-0.68923 0.14956,-0.95303 -0.03879,-0.83871c-0.16171,0.09776 -0.21341,-0.12776 -0.0583,-0.25397c0.2551,-0.20743 0.58538,0.04397 0.58538,0.44561c0,0.32306 -0.25564,1.61202 -0.53185,2.68014c-0.07019,0.27207 -0.09919,0.52267 -0.06436,0.55682c0.09813,0.09617 0.27251,-0.43661 0.34742,-1.06091c0.0372,-0.31085 0.10841,-0.58965 0.15828,-0.61991c0.04958,-0.03026 0.09049,-0.20561 0.09049,-0.38975c0,-0.1844 0.04196,-0.37915 0.09312,-0.4332c0.17149,-0.18103 0.20605,-1.17208 0.04513,-1.30295c-0.24852,-0.20199 0.02031,-0.35613 0.33397,-0.19138c0.34874,0.18285 0.34136,0.34761 -0.09866,2.17116c-0.22635,0.93908 -0.32421,1.53521 -0.26195,1.59676c0.06225,0.06156 0.09919,-0.02276 0.09919,-0.22629c0,-0.17871 0.04748,-0.35355 0.10552,-0.38845c0.05775,-0.03517 0.10526,-0.22113 0.10526,-0.41354c0,-0.19216 0.04247,-0.37524 0.09444,-0.40656c0.05171,-0.03155 0.11897,-0.23173 0.14957,-0.44535c0.03034,-0.21366 0.11106,-0.59743 0.17938,-0.85321c0.18047,-0.67658 0.18785,-1.19486 0.01638,-1.15995c-0.1699,0.03465 -0.124,-0.30414 0.04879,-0.36052c0.59805,-0.19527 0.59202,0.79032 -0.0187,3.07735c-0.19156,0.71716 -0.19103,0.95018 0.00155,0.61319c0.08099,-0.14198 0.17991,-0.54956 0.21948,-0.90569c0.03957,-0.35585 0.11372,-0.67269 0.16488,-0.7037c0.05118,-0.03078 0.09312,-0.18362 0.09312,-0.33958c0,-0.15569 0.04142,-0.32742 0.0918,-0.38147c0.14032,-0.14951 0.24612,-1.28668 0.11976,-1.28668c-0.0583,0 -0.10631,-0.09285 -0.10631,-0.20664M261.81981,181.70333c0.06278,-0.06155 0.09498,-0.22216 0.07123,-0.35664c-0.05751,-0.32639 -0.12795,-0.15804 -0.39385,0.94423c-0.2419,1.00219 -0.25457,1.13667 -0.10816,1.13667c0.05802,0 0.10552,-0.18595 0.10552,-0.41328c0,-0.22733 0.04748,-0.41354 0.10552,-0.41354c0.05775,0 0.10526,-0.17664 0.10526,-0.39259c0,-0.21595 0.05144,-0.44328 0.11449,-0.50483M261.97679,183.51605c0.10366,-0.10166 0.15302,-0.29433 0.13163,-0.51313l-0.03406,-0.35044l-0.1319,0.35147c-0.1944,0.51878 -0.18095,0.72284 0.03431,0.51207M255.13693,183.9702c0.09682,-0.7883 -0.13823,-0.46115 -0.26855,0.37423c-0.06991,0.44716 -0.24428,1.28744 -0.38726,1.86674c-0.28913,1.17105 -0.29942,1.24708 -0.16857,1.24708c0.05012,0 0.11844,-0.17457 0.15116,-0.38768c0.05724,-0.3716 0.2857,-1.37351 0.5123,-2.24768c0.05883,-0.22734 0.1314,-0.61115 0.16092,-0.8527M261.28231,183.86702c0.00077,-0.18492 -0.01664,-0.33595 -0.03879,-0.33595c-0.09601,0 -0.13665,0.40293 -0.05381,0.53121c0.06173,0.09543 0.09156,0.0331 0.09259,-0.19527M253.76184,184.64215c0.03563,-0.23096 0.01664,-0.38768 -0.04694,-0.38768c-0.05856,0 -0.13956,0.24412 -0.17965,0.54257c-0.0401,0.29846 -0.21051,1.10641 -0.37882,1.79537c-0.29414,1.20493 -0.37038,1.68701 -0.24824,1.56726c0.08626,-0.08455 0.46956,-1.71156 0.46956,-1.99372c0,-0.13526 0.04223,-0.27128 0.09365,-0.30259c0.08864,-0.05354 0.15063,-0.31473 0.29045,-1.22122M264.30755,185.36311c-0.70461,-1.47805 -0.83941,-1.38547 -0.49225,0.33802c0.19944,0.98974 0.65372,3.43708 0.93994,5.0641c0.11475,0.6536 0.28121,1.58384 0.36985,2.06696c0.08837,0.48313 0.16147,1.09941 0.1625,1.36942c0.00422,1.02287 0.32526,0.35715 0.53947,-1.11753c0.3118,-2.14868 -0.26827,-5.09537 -1.51949,-7.72091M252.33109,185.63187c0.06227,-0.06104 0.0955,-0.26794 0.07386,-0.4601c-0.04775,-0.42595 -0.13005,-0.26513 -0.29677,0.58111c-0.06701,0.34109 -0.23584,1.0852 -0.37486,1.65364c-0.26591,1.08623 -0.32448,1.57658 -0.15406,1.29184c0.09814,-0.16451 0.30258,-1.03403 0.39465,-1.68005c0.0306,-0.21363 0.09787,-0.41404 0.14984,-0.44535c0.05172,-0.03155 0.09417,-0.23121 0.09417,-0.4438c0,-0.21259 0.05091,-0.43656 0.11317,-0.49733M235.80788,185.56353c-0.24217,-0.23745 -0.25615,0.50535 -0.02401,1.27502c0.05988,0.19886 0.13058,0.61629 0.15696,0.92716c0.02612,0.31112 0.09417,0.61087 0.15089,0.66648c0.05672,0.05586 0.10314,0.23147 0.10314,0.39053c0,0.15931 0.05329,0.2894 0.11845,0.2894c0.08387,0 0.08149,0.04345 -0.00793,0.14897c-0.0984,0.11612 -0.0897,0.28783 0.03983,0.78335c0.09127,0.34912 0.16593,0.74714 0.16593,0.88473c0,0.15388 0.06094,0.24983 0.15907,0.24983c0.12871,0 0.13557,0.03673 0.03612,0.19268c-0.09364,0.14739 -0.09232,0.29972 0.00608,0.64602c0.0707,0.24932 0.13009,0.52294 0.13163,0.60829c0.00343,0.17921 0.13507,1.01999 0.29941,1.91174c0.06305,0.34114 0.16092,0.88761 0.21764,1.21451c0.06409,0.36933 0.34215,1.05414 0.73442,1.80855c2.30194,4.4302 2.53908,9.37556 0.55611,11.60258c-0.17624,0.19785 -0.48672,0.61528 -0.69012,0.92796c-1.04571,1.60737 -2.64043,2.47246 -4.74658,2.57513l-1.24067,0.06026l0.5028,0.24285c0.27648,0.13371 0.58487,0.28475 0.68563,0.33596c0.10077,0.05123 0.29942,0.09285 0.44187,0.09285c0.14219,0 0.28413,0.0406 0.31551,0.09c0.21999,0.34914 3.79233,0.39454 4.12973,0.06401c3.47248,-1.25663 4.64303,-1.59287 7.01915,-3.28414c0.99105,-0.7974 1.73088,-1.45119 2.3837,-2.65039c-0.03139,-0.20974 0.01425,-0.34009 0.15301,-0.43708c0.28439,-0.19835 0.60552,-0.74145 0.60913,-1.02878c0.0058,-0.49243 0.05144,-0.81442 0.11528,-0.81442c1.25679,-4.68225 -1.21909,-9.92636 -1.73088,-11.32225c-2.53738,-4.54774 -4.36384,-6.63783 -7.52354,-8.0573c-0.33792,-0.00854 -0.92253,-0.07552 -1.2995,-0.14897c-0.37698,-0.07319 -0.95812,-0.14326 -1.29182,-0.15543c-0.33369,-0.01216 -0.63813,-0.05304 -0.67636,-0.09052M247.36907,187.14857c0,-0.24697 0.2638,-0.27283 0.49331,-0.04783c0.32582,0.31942 -0.36139,3.3549 -0.75946,3.3549c-0.31155,0 -0.44978,-0.20121 -0.24138,-0.35147c0.15802,-0.11405 0.26222,-0.42307 0.36932,-1.09525c0.03165,-0.19914 0.09311,-0.40837 0.13665,-0.46526c0.1364,-0.1787 0.2303,-1.18839 0.11053,-1.18839c-0.0599,0 -0.10895,-0.0931 -0.10895,-0.20664M246.70142,187.3208c0.25641,-0.25164 0.56266,0.07395 0.56162,0.59768c-0.00106,0.67164 -0.17464,1.14697 -0.42551,1.16561c-0.31366,0.02303 -0.34505,-0.17431 -0.10262,-0.64087c0.25668,-0.49343 0.28095,-0.82576 0.05434,-0.74067c-0.16144,0.06077 -0.23109,-0.24156 -0.08784,-0.38173M251.17154,188.00901c0.06226,-0.06077 0.09627,-0.26793 0.07571,-0.45984l-0.03746,-0.34889l-0.12372,0.41329c-0.13691,0.45878 -0.33697,1.29672 -0.3411,1.42836c-0.00158,0.04681 0.06859,0.01526 0.15538,-0.07009c0.08705,-0.08535 0.15828,-0.3119 0.15828,-0.50354c0,-0.19164 0.05091,-0.39828 0.11291,-0.45932M261.36926,199.68267c-0.0182,-0.09207 -0.08046,-0.18001 -0.1385,-0.19527c-0.14379,-0.03853 -0.80039,0.32871 -0.72309,0.40423c-2.12316,0.94049 -5.02706,2.60292 -7.94704,3.79611c-0.04956,0.03404 -0.05966,0.05011 -1.0758,0.9515c-0.66586,0.67346 -0.52969,0.73994 0.40335,0.19656c2.92791,-1.61924 6.96459,-2.61605 9.48132,-5.153M229.44819,200.7275c0,-0.02248 0.13032,-0.04005 0.28965,-0.03904c0.21104,0.00104 0.24955,0.02664 0.14139,0.09362c-0.13427,0.08328 -0.43105,0.04578 -0.43105,-0.05457M238.8615,205.85425c0,-0.31266 0.01978,-0.4407 0.04379,-0.28423c0.02427,0.15619 0.02427,0.41197 0,0.56818c-0.02401,0.15647 -0.04379,0.02845 -0.04379,-0.28397" fill="#7b7f85"/></g></g></svg>