<svg width="118.053" height="140" xmlns:xlink="http://www.w3.org/1999/xlink" xmlns="http://www.w3.org/2000/svg"><defs><radialGradient id="prefix__g" gradientUnits="userSpaceOnUse" cy="358.61" cx="284.93" gradientTransform="matrix(2.73288 .7752 -.27034 1.0022 -615.684 -549.779)" r="10.063"><stop stop-color="#d7d7a5" offset="0"/><stop stop-color="#7eac53" offset=".5"/><stop stop-color="#302a00" offset="1"/></radialGradient><radialGradient id="prefix__j" gradientUnits="userSpaceOnUse" cy="395.21" cx="277.94" gradientTransform="matrix(1.1116 -2.3848 .6486 .30234 -522.66 601.31)" r="7.927"><stop stop-opacity="0" offset="0"/><stop offset="1"/></radialGradient><radialGradient id="prefix__k" xlink:href="#prefix__a" gradientUnits="userSpaceOnUse" cy="377.28" cx="276.14" gradientTransform="matrix(1.19597 2.0661 -1.92342 1.11332 447.204 -935.028)" r="17.944"/><radialGradient id="prefix__f" xlink:href="#prefix__b" gradientUnits="userSpaceOnUse" cy="388.31" cx="264.28" gradientTransform="matrix(1.23964 .09628 -1.68949 4.8372 386.191 -1830.789)" r="14.625"/><radialGradient id="prefix__l" xlink:href="#prefix__b" gradientUnits="userSpaceOnUse" cy="376.63" cx="277.88" gradientTransform="matrix(.61386 .38245 .31484 -.50532 -207.719 113.045)" r="19.873"/><radialGradient id="prefix__n" xlink:href="#prefix__b" gradientUnits="userSpaceOnUse" cy="359.26" cx="221.23" gradientTransform="matrix(.74345 -.567 .48129 .63108 -273.546 -76.114)" r="19.873"/><radialGradient id="prefix__e" xlink:href="#prefix__b" gradientUnits="userSpaceOnUse" cy="332.08" cx="190.14" gradientTransform="matrix(1.06561 .41758 -.1135 .28966 -87.978 -147.02)" r="19.873"/><radialGradient id="prefix__m" xlink:href="#prefix__a" gradientUnits="userSpaceOnUse" cy="357.88" cx="498.83" gradientTransform="matrix(.4305 .10185 .15079 -.21233 -186.48 52.03)" r="19.873"/><radialGradient id="prefix__o" xlink:href="#prefix__a" gradientUnits="userSpaceOnUse" cy="355.29" cx="221.9" gradientTransform="matrix(.36176 -.00248 .00154 .22452 -16.096 -55.75)" r="19.873"/><filter id="prefix__h" x="-.028" y="-.022" width="1.055" height="1.045"><feGaussianBlur stdDeviation=".414"/></filter><filter id="prefix__i" x="-.078" y="-.047" width="1.156" height="1.093"><feGaussianBlur stdDeviation=".516"/></filter><filter id="prefix__c" x="-.06" y="-.05" width="1.12" height="1.099"><feGaussianBlur stdDeviation="1.471"/></filter><filter id="prefix__d" x="-.013" y="-.011" width="1.027" height="1.022"><feGaussianBlur stdDeviation=".805"/></filter><linearGradient id="prefix__b"><stop stop-color="#7f8767" offset="0"/><stop stop-color="#322e00" offset=".5"/><stop offset="1"/></linearGradient><linearGradient id="prefix__a"><stop stop-color="#d7d7a5" offset="0"/><stop stop-color="#a6ac53" offset=".5"/><stop stop-color="#4d6b29" offset=".75"/><stop stop-color="#302a00" offset="1"/></linearGradient></defs><path filter="url(#prefix__c)" fill-rule="evenodd" transform="matrix(1.79052 0 0 1.79052 -19.938 -17.488)" d="M40.041 13.31c.076 3.249.558 5.472 1 6.719-1.176 4.555-3.607 7.994-1.813 12.625-2.206 1.722-4.115 3.994-5.718 6.5l-.032.031a.956.956 0 00-.375.563c-.255.42-.483.847-.718 1.28l-.032.032c-3.13 2.428-5.295 2.453-6.812 4.406-3.685 1.66-5.262 5.893-8.071 7.153-1.31.86.606 2.503 1.625 1.5 2.387-.915 4.991-5.748 7.102-7.965 1.522-.644 3.106-1.237 4.625-1.875-.105.262-.215.517-.312.78a48.016 48.016 0 00-1.156 3.563c-.064.226-.129.433-.188.657-.86.086-1.542 1.02-2.281 1.437-1.888 3.884-5.866 6.36-6.375 8.656-2.82 1.98-4.819 5.038-5.844 9.532.695.91 1.715-.128 1.844-.938.896-2.297 3.22-4.615 4.375-7.562 1.857-1.601 5.124-4.992 7.656-8.282-1.182 6.611-.12 12.498 3.688 18.312.314-1.035.65-2.04 1-3.062.065-.191.152-.372.218-.563 1.917 2.796 4.687 4.47 8.063 4.47 1.839 0 3.698-.506 5.5-1.407-.296 1.261-.591 2.535-.906 3.781.538-.28 1.066-.576 1.593-.875 4.006-2.272 7.65-5.115 10.47-8.594-.226 3.67-1.801 7.023-1.188 8.97-1.452 3.123-1.672 6.783-.313 11.187 1.058.441 1.419-.953 1.125-1.719-.372-2.437.505-5.62.032-8.75.95-2.725 2.357-8.56 2.718-13.125a24.266 24.266 0 002.782-7.312c1.557 2.841 2.502 4.931 3.78 6.469.642 2.966 1.047 4.334 1.532 6.593.446 1.125 2.117.243 1.5-.718-.286-1.88-.954-4.13-2.344-6.156-.518-2.722-2.26-6.345-3.625-8.47-.16-.002-.309-.023-.469-.03.456-3.694.358-7.28-.5-10.47.156-.088.3-.193.407-.312 2.119-1.344 4.19-3.72 3.75-6.406 1.432-2.014 3.03-6.015 6.125-9.625.233-.535-.278-1.14-.844-1.031-2.895 4.672-5.477 6.734-7.656 11.438-.67 1.397-1.652 2.63-2.469 3.937-.037-.093-.055-.19-.094-.281-.057-.137-.127-.272-.187-.406-.997-2.216-2.431-4.165-4.438-5.688 2.06 1.542 3.67 3.511 4.438 5.688a8.935 8.935 0 00-.313-2.313c-.57-2.188-1.866-4.185-3.594-5.781 1.94.596 3.782.243 4.344-.969.49-1.058-.134-2.466-1.437-3.531-.27-.616-1.007-1.223-2.063-1.563-1.385-.445-2.832-.289-3.5.313l-.062.031a10.582 10.582 0 00-1.844-.531c-.231-.044-.461-.065-.688-.094-.488-.948-1.777-1.635-3.375-1.781a3.862 3.862 0 00-1.75-.312c-1.286.07-2.317.71-2.593 1.468-.646.525-1.038 1.15-1 1.844.05.934.84 1.712 2 2.156-1.747.717-3.032 2.01-3.72 3.657-.626.3-1.245.619-1.843 1-.87-4.06 1.452-8.084 1.281-11.656.705-1.93-.123-3.451-1.094-5.813-.11-.443-.392-.876-.937-.781zm7.469 15.75h.125a12.06 12.06 0 00-.75.188l-.406.062c-.286.05-.562.089-.844.156-.951.227-1.88.585-2.781 1 1.259-.783 2.837-1.287 4.656-1.406z"/><g fill="#333" fill-rule="evenodd"><path d="M35.265 50.651c-4.674.184-9.574 2.986-11.315 7.443-3.69.183-7.241 2.22-8.596 5.767-3.875.411-3.79 5.182-3.213 8.033.22 2.126.99 4.817-.81 6.317-.576 2.067 2.364 2.52 3.186.824 3.194-3.388.954-8.396 2.046-12.359 2.2-2.558 5.378-3.687 8.225-5.328 4.573-3.79 10.177-7.272 16.341-6.083 2.099-.064 1.584-3.1-.26-3.145-1.654-1.066-3.648-1.545-5.603-1.469zM51.344 7.213c-2.06.506-.18 3.01-1.661 4.147-1.839 2.277-5.942 4.59-4.23 8.074.799 3.368 2.527 6.708 4.751 9.324-3.632 4.255-2.12 10.83.605 15.133 1.763 1.23 2.839-1.473 2.188-2.87-.287-4.352.13-8.753.366-13.031-.21-3.626-2.638-6.648-4.944-9.118 1.261-3.457 6.367-6.015 4.628-10.244-.197-.794-.727-1.584-1.703-1.415zM31.613 71.958c-3.901 3.556-7.057 7.962-11.268 11.226-4.204 3.085-5.068 8.896-4.991 13.656-3.593 2.496-6.681 5.773-9.64 8.912-.589 1.88 2.165 2.604 3.007 1.003 4.506-3.314 9.722-6.653 11.398-12.386 1.022-2.404 1.053-5.53 1.607-7.745 5.716-.457 9.5-6.075 11.164-11.082.671-1.4 1.245-3.97-1.277-3.584zM86.689 90.705c-1.802.614-2.001 3.078-2.884 4.573-1.562 4.348-2.14 10.192 1.319 13.745-4.699 4.942-7.383 12.032-5.588 18.808.855 2.077-.122 5.01 1.592 6.597 1.893.79 2.543-1.732 2.018-3.103-.038-3.617-.196-7.528-.618-10.958 4.037-3.554 6.963-8.995 5.699-14.446-.557-4.806.296-9.722-.096-14.474a1.489 1.489 0 00-1.442-.741zM109.733 25.082c-3.318 1.208-3.388 5.392-2.65 8.308.116 1.445.904 4.11-1.456 3.886-4.377.924-8.164 4.02-9.585 8.308-1.645 3.436-4.355 6.32-5.89 9.75.179 1.964 2.498 1.33 3.418.302 3.794-2.407 7.518-6.684 6.729-11.494 4.058-1.086 7.673-3.626 10.409-6.687 1.759-3.354-2.582-7.683.535-10.519.417-.957-.496-2.048-1.51-1.853zM91.398 74.93c-1.794.546-.856 2.902.851 2.72 4.966 1.354 8.112 5.693 10.437 9.996 1.568 1.672 3.665 3.581 3.9 5.877-1.678 2.636-5.828 5.355-4.01 8.954.799 2.013 3.782.416 2.678-1.305 1.39-2.78 5.821-4.313 5.314-7.923-.509-1.218-1.942-1.604-1.47-3.145-.032-2.683-2.941-4.037-4.476-5.424.344-5.344-5.212-9.162-10.038-9.68-1.07-.017-2.14-.144-3.186-.07z"/></g><g filter="url(#prefix__d)" fill="gray" transform="matrix(.69568 0 0 .69568 28.008 39.279)" fill-rule="evenodd"><path d="M11.062 18.938c-6.862-.051-12.39 4.92-15.594 10.5-5.157-.025-9.518 3.341-11.77 7.67-5.536 1.173-4.09 8.042-3.387 12.174 1.125 2.192-.776 6.573-.812 7.344 5.937-5.88-1.856-17.17 6.969-21.438 9.876-4.49 17.882-14.352 29.625-14.031 1.912.22 4.774.377 1.28-.72-1.857-1.118-4.12-1.573-6.312-1.5zM34.375-41.406c.306 5.907-10.218 7.927-6.75 14.281.993 5.068 4.49 8.789 6.563 13.219-4.64 5.317-3.343 14.441.187 19.062-1.37-7.732 1.324-16.014-.344-23.562-.96-5.003-9.42-8.733-4.469-13.75 1.933-2.995 6.472-5.985 4.782-10.062l.03.813zM6.094 49.688C.36 56.04-5.828 61.899-11.937 67.782c-3.72 4.725-2.583 11.202-4.281 16.5-4.504 3.171-9.71 8.163-12.438 11.656 7.554-5.695 16.83-12.237 17.469-22.719-.081-3.951 1.293-7.842 5.78-7.781 6.46-2.706 10.095-9.651 11.75-16l-.25.25zM84.156 76.219c-4.074 6.978-5.932 17.17-.25 23.906-6.484 7.618-11.153 18.103-7.5 28.219.296 1.917-.078 4.038.75 5.813.475-6.394-1.373-13.216-.344-19.47 6.392-5.156 9.334-13.687 7.281-21.593-.335-5.588.576-11.475.063-16.875zM116.53-16.969c-5.278 4.401 2.61 13.143-3.625 16.688-7.698.441-12.727 7.057-15.219 13.719-1.827 3.261-5.012 6.888-6.063 9.812 6.05-3.431 10.895-9.656 10.345-16.875 5.405-2.317 12.304-4.867 14.937-10.53-.095-4.13-3.056-9.155-.374-12.813zM93.25 53.594c9.867 2.97 13.682 13.397 19.938 20.469 5.072 6.154-7.738 10.109-4.438 15.875-1.056-5.372 8.19-7.095 7.126-12.188-3.146-2.192-.502-6.88-4.532-8.531-5.174-2.168-2.686-9.068-7.468-11.875-2.862-2.57-7.596-4.12-10.626-3.75z"/></g><path fill="url(#prefix__e)" d="M84.806 32.481a10.003 5.001 10.86 11-19.647-3.769 10.003 5.001 10.86 1119.647 3.77z"/><path fill="url(#prefix__f)" d="M87.8 72.99a25.295 39.39 19.718 11-52.373 0 25.295 39.39 19.718 1152.373 0z"/><path d="M68.682 30.493c-6.207 0-10.822 3.105-12.714 7.778 2.656-1.795 6.182-2.854 10.313-2.854 10.76 0 21.684 7.095 24.827 16.003.008-1.332-.17-2.704-.546-4.141-2.417-9.266-12.213-16.786-21.88-16.786z" fill="url(#prefix__g)"/><path filter="url(#prefix__h)" fill-rule="evenodd" transform="matrix(1.79052 0 0 1.79052 -19.938 -17.488)" d="M32.021 70.955c4.01-13.187 10.933-25.19 19.191-36.677.418 11.799-1.912 26.37-5.33 39.875 8.613-4.478 15.974-11.413 17.484-21.537 1.48-9.916-.925-19.291-10.875-22.39-9.755-3.039-18.592 5.652-22.177 15.353-3.56 9.634-3.404 17.572 1.706 25.375z"/><path filter="url(#prefix__i)" transform="matrix(1.79052 0 0 1.79052 -19.938 -17.488)" fill="url(#prefix__j)" d="M36.077 66.096c1.377-.291 1.637 1.27 3.514 2.197 2.364 1.166 5.386.214 5.492-.879.165-1.702-11.29-6.391-9.752-8.313 1.302-1.627 10.631 6.336 10.631 6.336s1.098-.879 1.098-3.734c0-2.856-10.38-5.905-10.16-7.168.603-3.469 10.38 5.41 10.38 5.41s1.318-4.393.66-5.71c-.66-1.318-8.703-2.444-7.495-4.366 1.26-2.002 8.373 3.487 8.373 3.487s1.977-3.295.22-4.832c-1.758-1.538-5.004-3.552-5.004-3.552.872-1.216 5.415 2.102 6.541 3.112L47.5 69.391s-5.052 2.197-7.468 1.757c-2.417-.439-5.711-2.416-5.272-3.294.44-.879.22-1.813 1.318-1.758z" fill-rule="evenodd"/><path fill="url(#prefix__k)" d="M37.397 109.56c4.503-14.811 11.058-28.788 18.97-42.224 4.7-7.986 13.52-23.723 15.392-23.446 1.493.36-.316 19.916-1.688 30.75-1.691 13.36-4.477 27.295-7.857 40.649 15.424-8.018 28.604-20.435 31.308-38.563 2.648-17.754-1.656-34.541-19.473-40.09-17.468-5.44-33.29 10.12-39.709 27.491-6.374 17.25-6.094 31.464 3.055 45.436z" fill-rule="evenodd"/><path fill="url(#prefix__l)" d="M77.322 28.407a8.024 5.001 24.866 1014.56 6.748 8.024 5.001 24.866 10-14.56-6.748z"/><path fill="url(#prefix__m)" d="M78.907 27.193a5.525 3.102 12.912 1010.437 3.352 5.525 3.102 12.912 10-10.437-3.352z"/><path fill="url(#prefix__n)" d="M75.12 26.864a5.001 8.024 86.853 11-16.024.88 5.001 8.024 86.853 1116.024-.88z"/><path fill="url(#prefix__o)" d="M70.685 24.65a3.108 4.987 86.853 11-9.96.547 3.108 4.987 86.853 119.96-.548z"/></svg>