<svg width="136.965" height="140" viewBox="0 0 175.315 179.2" class="prefix__icon" xmlns="http://www.w3.org/2000/svg"><path d="M22.59 70.314c0 25.574 29.12 44.36 65.047 44.36 35.928 0 65.047-18.786 65.047-44.36z" fill="#a4a9ad"/><path d="M62.583999999999996 105.802a1.162 1.162 0 102.323 0 1.162 1.162 0 10-2.323 0zM33.044000000000004 85.414a1.162 1.162 0 102.323 0 1.162 1.162 0 10-2.323 0zM52.59 78.846a1.162 1.162 0 102.324 0 1.162 1.162 0 10-2.324 0zM87.657 100.074a1.162 1.162 0 102.324 0 1.162 1.162 0 10-2.324 0zM108.285 106.563a1.162 1.162 0 102.323 0 1.162 1.162 0 10-2.323 0zM137.124 85.414a1.162 1.162 0 102.323 0 1.162 1.162 0 10-2.323 0zM100.735 81.109a1.162 1.162 0 102.323 0 1.162 1.162 0 10-2.323 0zM125.448 101.236a1.162 1.162 0 102.323 0 1.162 1.162 0 10-2.323 0zM77.023 84.233a1.162 1.162 0 102.323 0 1.162 1.162 0 10-2.323 0z"/><path d="M31.002 92.604c2.423 2.924 5.307 5.628 8.611 8.05h96.109c3.304-2.422 6.188-5.126 8.611-8.05zm-8.412-22.29c0 3.745.641 7.35 1.823 10.775h126.49a32.893 32.893 0 001.822-10.775z"/><path d="M71.416 51.57a16.242 16.242 0 1032.483 0 16.242 16.242 0 10-32.483 0z" fill="#a4a9ad"/><path d="M96.289 45.681a1.162 1.162 0 102.323 0 1.162 1.162 0 10-2.323 0zM76.262 58.598a1.162 1.162 0 102.323 0 1.162 1.162 0 10-2.323 0zM78.185 42.717a1.162 1.162 0 102.323 0 1.162 1.162 0 10-2.323 0zM83.79199999999999 50.247a1.162 1.162 0 102.323 0 1.162 1.162 0 10-2.323 0zM93.52499999999999 55.094a1.162 1.162 0 102.323 0 1.162 1.162 0 10-2.323 0z"/><path d="M158.392 67.81a4.462 4.462 0 00-4.446-4.445H21.35a4.462 4.462 0 00-4.446 4.446v3.404a4.462 4.462 0 004.446 4.446h132.597a4.462 4.462 0 004.446-4.446z" fill="#d1d3d3"/><path d="M15.741 120.181h143.813v51.569H15.74z" fill="#a4a9ad"/><path d="M152.725 135.942a1.162 1.162 0 102.323 0 1.162 1.162 0 10-2.323 0zM20.768 165.942a1.162 1.162 0 102.323 0 1.162 1.162 0 10-2.323 0zM61.623 143.572a1.162 1.162 0 102.323 0 1.162 1.162 0 10-2.323 0zM145.835 163.539a1.162 1.162 0 102.323 0 1.162 1.162 0 10-2.323 0zM126.31 127.49a1.162 1.162 0 102.322 0 1.162 1.162 0 10-2.323 0zM67.831 123.746a1.162 1.162 0 102.323 0 1.162 1.162 0 10-2.323 0zM28.038 146.857a1.162 1.162 0 102.323 0 1.162 1.162 0 10-2.323 0zM71.095 161.216a1.162 1.162 0 102.323 0 1.162 1.162 0 10-2.323 0zM111.37 153.365a1.162 1.162 0 102.322 0 1.162 1.162 0 10-2.323 0zM96.85 133.84a1.162 1.162 0 102.323 0 1.162 1.162 0 10-2.323 0zM23.271 129.814a1.162 1.162 0 102.323 0 1.162 1.162 0 10-2.323 0zM33.044000000000004 150.842a10.354 10.354 0 1020.708 0 10.354 10.354 0 10-20.708 0zM121.563 150.842a10.354 10.354 0 1020.708 0 10.354 10.354 0 10-20.708 0zM77.304 150.842a10.354 10.354 0 1020.707 0 10.354 10.354 0 10-20.707 0z"/><path d="M15.741 120.181h143.813v9.633H15.74z"/><path d="M168.125 115.955a4.462 4.462 0 00-4.446-4.446H11.636a4.462 4.462 0 00-4.446 4.446v3.345a4.462 4.462 0 004.446 4.446h152.043a4.462 4.462 0 004.446-4.446zM33.044000000000004 146.857a10.354 10.354 0 1020.708 0 10.354 10.354 0 10-20.708 0z" fill="#d1d3d3"/><path d="M40.114000000000004 146.857a3.284 3.284 0 106.569 0 3.284 3.284 0 10-6.57 0z" fill="#a4a9ad"/><path d="M121.563 146.857a10.354 10.354 0 1020.708 0 10.354 10.354 0 10-20.708 0z" fill="#d1d3d3"/><path d="M128.632 146.857a3.284 3.284 0 106.57 0 3.284 3.284 0 10-6.57 0z" fill="#a4a9ad"/><path d="M77.304 146.857a10.354 10.354 0 1020.707 0 10.354 10.354 0 10-20.707 0z" fill="#d1d3d3"/><path d="M84.75399999999999 146.857a2.904 2.904 0 105.807 0 2.904 2.904 0 10-5.807 0z" fill="#a4a9ad"/><path d="M111.009 0c-10.134 0-18.946 5.768-23.352 14.179C83.251 5.768 74.44 0 64.307 0 49.786 0 37.97 11.816 37.97 26.335a2.991 2.991 0 002.984 2.984 2.991 2.991 0 002.984-2.984c0-11.235 9.132-20.367 20.367-20.367 11.235 0 20.367 9.132 20.367 20.367a2.991 2.991 0 002.984 2.984 2.991 2.991 0 002.984-2.984c0-11.235 9.133-20.367 20.368-20.367s20.367 9.132 20.367 20.367a2.991 2.991 0 002.984 2.984 2.991 2.991 0 002.984-2.984C137.344 11.815 125.528 0 111.009 0zM40.955 50.347a2.991 2.991 0 01-2.984-2.984v-8.871a2.991 2.991 0 012.984-2.984 2.991 2.991 0 012.984 2.984v8.871a2.991 2.991 0 01-2.984 2.984zm90.962 2.003a2.991 2.991 0 01-2.984-2.984v-3.104a2.991 2.991 0 012.984-2.984 2.991 2.991 0 012.984 2.984v3.104a2.991 2.991 0 01-2.984 2.984z" fill="#00b3e3"/><path d="M175.315 171.15a4.039 4.039 0 00-4.026-4.026H4.025A4.039 4.039 0 000 171.149v4.026a4.039 4.039 0 004.025 4.025H171.27a4.039 4.039 0 004.026-4.025v-4.026z" fill="#218649"/><path d="M150.401 95.608H24.913a2.991 2.991 0 01-2.984-2.984 2.991 2.991 0 012.984-2.984h125.488a2.991 2.991 0 012.984 2.984 2.991 2.991 0 01-2.984 2.984z" fill="#d1d3d3"/></svg>