<?xml version="1.0" encoding="UTF-8" standalone="no"?>
<!-- Uploaded to: SVG Repo, www.svgrepo.com, Generator: SVG Repo Mixer Tools -->

<svg
   width="136.96469"
   height="140"
   viewBox="0 0 175.3148 179.2"
   class="icon"
   version="1.1"
   id="svg825"
   sodipodi:docname="fountain-svgrepo-com.svg"
   inkscape:version="1.2.2 (732a01da63, 2022-12-09)"
   xmlns:inkscape="http://www.inkscape.org/namespaces/inkscape"
   xmlns:sodipodi="http://sodipodi.sourceforge.net/DTD/sodipodi-0.dtd"
   xmlns="http://www.w3.org/2000/svg"
   xmlns:svg="http://www.w3.org/2000/svg">
  <defs
     id="defs829" />
  <sodipodi:namedview
     id="namedview827"
     pagecolor="#ffffff"
     bordercolor="#000000"
     borderopacity="0.25"
     inkscape:showpageshadow="2"
     inkscape:pageopacity="0.0"
     inkscape:pagecheckerboard="0"
     inkscape:deskcolor="#d1d1d1"
     showgrid="false"
     inkscape:zoom="1.04625"
     inkscape:cx="341.21864"
     inkscape:cy="349.82079"
     inkscape:window-width="1920"
     inkscape:window-height="1017"
     inkscape:window-x="1912"
     inkscape:window-y="-8"
     inkscape:window-maximized="1"
     inkscape:current-layer="svg825" />
  <path
     d="m 22.590255,70.31417 c 0,25.57425 29.118995,44.35941 65.047115,44.35941 35.92812,0 65.04712,-18.78516 65.04712,-44.35941 z"
     fill="#a4a9ad"
     id="path737"
     style="stroke-width:0.200268" />
  <path
     d="m 63.74537,105.8017 m -1.16155,0 a 1.1615557,1.1615557 0 1 0 2.32311,0 1.1615557,1.1615557 0 1 0 -2.32311,0 z"
     fill=""
     id="path739"
     style="stroke-width:0.200268" />
  <path
     d="m 34.20581,85.41439 m -1.16155,0 a 1.1615557,1.1615557 0 1 0 2.32311,0 1.1615557,1.1615557 0 1 0 -2.32311,0 z"
     fill=""
     id="path741"
     style="stroke-width:0.200268" />
  <path
     d="m 53.75199,78.8456 m -1.16156,0 a 1.1615557,1.1615557 0 1 0 2.32311,0 1.1615557,1.1615557 0 1 0 -2.32311,0 z"
     fill=""
     id="path743"
     style="stroke-width:0.200268" />
  <path
     d="m 88.81895,100.07403 m -1.16155,0 a 1.1615557,1.1615557 0 1 0 2.32311,0 1.1615557,1.1615557 0 1 0 -2.32311,0 z"
     fill=""
     id="path745"
     style="stroke-width:0.200268" />
  <path
     d="m 109.44658,106.56272 m -1.16156,0 a 1.16156,1.16156 0 1 0 2.32312,0 1.16156,1.16156 0 1 0 -2.32312,0 z"
     fill=""
     id="path747"
     style="stroke-width:0.200268" />
  <path
     d="m 138.2852,85.41439 m -1.16155,0 a 1.1615557,1.1615557 0 1 0 2.32311,0 1.1615557,1.1615557 0 1 0 -2.32311,0 z"
     fill=""
     id="path749"
     style="stroke-width:0.200268" />
  <path
     d="m 101.89647,81.10863 m -1.16156,0 a 1.1615557,1.1615557 0 1 0 2.32311,0 1.1615557,1.1615557 0 1 0 -2.32311,0 z"
     fill=""
     id="path751"
     style="stroke-width:0.200268" />
  <path
     d="m 126.60957,101.23558 m -1.16156,0 a 1.1615557,1.1615557 0 1 0 2.32311,0 1.1615557,1.1615557 0 1 0 -2.32311,0 z"
     fill=""
     id="path753"
     style="stroke-width:0.200268" />
  <path
     d="m 78.18471,84.23281 m -1.16155,0 a 1.1615557,1.1615557 0 1 0 2.32311,0 1.1615557,1.1615557 0 1 0 -2.32311,0 z"
     fill=""
     id="path755"
     style="stroke-width:0.200268" />
  <path
     d="m 31.00152,92.60402 c 2.42325,2.92392 5.30711,5.62754 8.61153,8.05079 h 96.10872 c 3.30443,-2.42325 6.18829,-5.12687 8.61153,-8.05079 z M 22.590255,70.31417 c 0,3.74502 0.640858,7.34984 1.822441,10.77443 H 150.9021 c 1.18158,-3.42459 1.82244,-7.02941 1.82244,-10.77443 z"
     fill=""
     id="path757"
     style="stroke-width:0.200268" />
  <path
     d="m 87.6574,51.56907 m -16.24175,0 a 16.241752,16.241752 0 1 0 32.4835,0 16.241752,16.241752 0 1 0 -32.4835,0 z"
     fill="#a4a9ad"
     id="path759"
     style="stroke-width:0.200268" />
  <path
     d="m 97.45051,45.68118 m -1.16155,0 a 1.1615557,1.1615557 0 1 0 2.32311,0 1.1615557,1.1615557 0 1 0 -2.32311,0 z"
     fill=""
     id="path761"
     style="stroke-width:0.200268" />
  <path
     d="m 77.42369,58.59848 m -1.16155,0 a 1.1615557,1.1615557 0 1 0 2.32311,0 1.1615557,1.1615557 0 1 0 -2.32311,0 z"
     fill=""
     id="path763"
     style="stroke-width:0.200268" />
  <path
     d="m 79.34627,42.71721 m -1.16156,0 a 1.1615557,1.1615557 0 1 0 2.32311,0 1.1615557,1.1615557 0 1 0 -2.32311,0 z"
     fill=""
     id="path765"
     style="stroke-width:0.200268" />
  <path
     d="m 84.95378,50.2473 m -1.16156,0 a 1.1615557,1.1615557 0 1 0 2.32311,0 1.1615557,1.1615557 0 1 0 -2.32311,0 z"
     fill=""
     id="path767"
     style="stroke-width:0.200268" />
  <path
     d="m 94.68681,55.09379 m -1.16155,0 a 1.1615557,1.1615557 0 1 0 2.32311,0 1.1615557,1.1615557 0 1 0 -2.32311,0 z"
     fill=""
     id="path769"
     style="stroke-width:0.200268" />
  <path
     d="m 158.39213,67.81082 c 0,-2.44327 -2.00268,-4.44596 -4.44595,-4.44596 H 21.348592 c -2.443272,0 -4.445955,2.00269 -4.445955,4.44596 v 3.40456 c 0,2.44327 2.002683,4.44595 4.445955,4.44595 H 153.94618 c 2.44327,0 4.44595,-2.00268 4.44595,-4.44595 z"
     fill="#d1d3d3"
     id="path771"
     style="stroke-width:0.200268" />
  <path
     d="M 15.741082,120.18096 H 159.55369 v 51.56906 H 15.741082 Z"
     fill="#a4a9ad"
     id="path773"
     style="stroke-width:0.200268" />
  <path
     d="m 153.8861,135.94207 m -1.16156,0 a 1.1615557,1.1615557 0 1 0 2.32311,0 1.1615557,1.1615557 0 1 0 -2.32311,0 z"
     fill=""
     id="path775"
     style="stroke-width:0.200268" />
  <path
     d="m 21.92937,165.94224 m -1.161556,0 a 1.1615557,1.1615557 0 1 0 2.323111,0 1.1615557,1.1615557 0 1 0 -2.323111,0 z"
     fill=""
     id="path777"
     style="stroke-width:0.200268" />
  <path
     d="m 62.78409,143.57228 m -1.16156,0 a 1.1615557,1.1615557 0 1 0 2.32311,0 1.1615557,1.1615557 0 1 0 -2.32311,0 z"
     fill=""
     id="path779"
     style="stroke-width:0.200268" />
  <path
     d="m 146.99687,163.53903 m -1.16155,0 a 1.1615557,1.1615557 0 1 0 2.32311,0 1.1615557,1.1615557 0 1 0 -2.32311,0 z"
     fill=""
     id="path781"
     style="stroke-width:0.200268" />
  <path
     d="m 127.47072,127.49075 m -1.16156,0 a 1.16156,1.16156 0 1 0 2.32312,0 1.16156,1.16156 0 1 0 -2.32312,0 z"
     fill=""
     id="path783"
     style="stroke-width:0.200268" />
  <path
     d="m 68.9924,123.74573 m -1.16156,0 a 1.16156,1.16156 0 1 0 2.32312,0 1.16156,1.16156 0 1 0 -2.32312,0 z"
     fill=""
     id="path785"
     style="stroke-width:0.200268" />
  <path
     d="m 29.19911,146.85668 m -1.16156,0 a 1.1615557,1.1615557 0 1 0 2.32311,0 1.1615557,1.1615557 0 1 0 -2.32311,0 z"
     fill=""
     id="path787"
     style="stroke-width:0.200268" />
  <path
     d="m 72.25677,161.21591 m -1.16155,0 a 1.1615557,1.1615557 0 1 0 2.32311,0 1.1615557,1.1615557 0 1 0 -2.32311,0 z"
     fill=""
     id="path789"
     style="stroke-width:0.200268" />
  <path
     d="m 112.53071,153.3654 m -1.16155,0 a 1.1615557,1.1615557 0 1 0 2.32311,0 1.1615557,1.1615557 0 1 0 -2.32311,0 z"
     fill=""
     id="path791"
     style="stroke-width:0.200268" />
  <path
     d="m 98.01127,133.83925 m -1.16156,0 a 1.1615557,1.1615557 0 1 0 2.32311,0 1.1615557,1.1615557 0 1 0 -2.32311,0 z"
     fill=""
     id="path793"
     style="stroke-width:0.200268" />
  <path
     d="m 24.432722,129.81386 m -1.161555,0 a 1.1615565,1.1615565 0 1 0 2.323113,0 1.1615565,1.1615565 0 1 0 -2.323113,0 z"
     fill=""
     id="path795"
     style="stroke-width:0.200268" />
  <path
     d="m 43.39812,150.84202 m -10.35386,0 a 10.353867,10.353867 0 1 0 20.70773,0 10.353867,10.353867 0 1 0 -20.70773,0 z"
     fill=""
     id="path797"
     style="stroke-width:0.200268" />
  <path
     d="m 131.91667,150.84202 m -10.35386,0 a 10.353867,10.353867 0 1 0 20.70773,0 10.353867,10.353867 0 1 0 -20.70773,0 z"
     fill=""
     id="path799"
     style="stroke-width:0.200268" />
  <path
     d="m 87.6574,150.84202 m -10.35387,0 a 10.35387,10.35387 0 1 0 20.70774,0 10.35387,10.35387 0 1 0 -20.70774,0 z"
     fill=""
     id="path801"
     style="stroke-width:0.200268" />
  <path
     d="M 15.741082,120.18096 H 159.55369 v 9.6329 H 15.741082 Z"
     fill=""
     id="path803"
     style="stroke-width:0.200268" />
  <path
     d="m 168.12517,115.9553 c 0,-2.44327 -2.00268,-4.44596 -4.44596,-4.44596 H 11.635583 c -2.443272,0 -4.445954,2.00269 -4.445954,4.44596 v 3.34448 c 0,2.44327 2.002682,4.44595 4.445954,4.44595 H 163.67921 c 2.44328,0 4.44596,-2.00268 4.44596,-4.44595 z"
     fill="#d1d3d3"
     id="path805"
     style="stroke-width:0.200268" />
  <path
     d="m 43.39812,146.85668 m -10.35386,0 a 10.353867,10.353867 0 1 0 20.70773,0 10.353867,10.353867 0 1 0 -20.70773,0 z"
     fill="#d1d3d3"
     id="path807"
     style="stroke-width:0.200268" />
  <path
     d="m 43.39812,146.85668 m -3.2844,0 a 3.2844,3.2844 0 1 0 6.5688,0 3.2844,3.2844 0 1 0 -6.5688,0 z"
     fill="#a4a9ad"
     id="path809"
     style="stroke-width:0.200268" />
  <path
     d="m 131.91667,146.85668 m -10.35386,0 a 10.353867,10.353867 0 1 0 20.70773,0 10.353867,10.353867 0 1 0 -20.70773,0 z"
     fill="#d1d3d3"
     id="path811"
     style="stroke-width:0.200268" />
  <path
     d="m 131.91667,146.85668 m -3.28439,0 a 3.2843987,3.2843987 0 1 0 6.56879,0 3.2843987,3.2843987 0 1 0 -6.56879,0 z"
     fill="#a4a9ad"
     id="path813"
     style="stroke-width:0.200268" />
  <path
     d="m 87.6574,146.85668 m -10.35387,0 a 10.35387,10.35387 0 1 0 20.70774,0 10.35387,10.35387 0 1 0 -20.70774,0 z"
     fill="#d1d3d3"
     id="path815"
     style="stroke-width:0.200268" />
  <path
     d="m 87.6574,146.85668 m -2.90389,0 a 2.90389,2.90389 0 1 0 5.80778,0 2.90389,2.90389 0 1 0 -5.80778,0 z"
     fill="#a4a9ad"
     id="path817"
     style="stroke-width:0.200268" />
  <path
     d="M 111.00867,0 C 100.8751,0 92.0633,5.767725 87.6574,14.17899 83.2515,5.767725 74.4397,0 64.30612,0 49.78668,0 37.97085,11.815825 37.97085,26.33527 c 0,1.6422 1.3418,2.983997 2.984,2.983997 1.6422,0 2.984,-1.341797 2.984,-2.983997 0,-11.235046 9.13223,-20.367277 20.36727,-20.367277 11.23505,0 20.36728,9.132231 20.36728,20.367277 0,1.6422 1.3418,2.983997 2.984,2.983997 1.6422,0 2.98399,-1.341797 2.98399,-2.983997 0,-11.235046 9.13224,-20.367277 20.36728,-20.367277 11.23505,0 20.36728,9.132231 20.36728,20.367277 0,1.6422 1.3418,2.983997 2.984,2.983997 1.6422,0 2.98399,-1.341797 2.98399,-2.983997 C 137.34394,11.815825 125.52812,0 111.00867,0 Z M 40.95485,50.34743 c -1.6422,0 -2.984,-1.3418 -2.984,-2.984 v -8.87188 c 0,-1.6422 1.3418,-2.984 2.984,-2.984 1.6422,0 2.984,1.3418 2.984,2.984 v 8.87188 c 0,1.6422 -1.3418,2.984 -2.984,2.984 z m 90.96182,2.00268 c -1.6422,0 -2.98399,-1.3418 -2.98399,-2.98399 v -3.10416 c 0,-1.6422 1.34179,-2.984 2.98399,-2.984 1.6422,0 2.984,1.3418 2.984,2.984 v 3.10416 c 0,1.64219 -1.3418,2.98399 -2.984,2.98399 z"
     fill="#00b3e3"
     id="path819"
     style="stroke-width:0.200268" />
  <path
     d="m 175.3148,171.14922 c 0,-2.22298 -1.82244,-4.02539 -4.02539,-4.02539 H 4.025391 C 1.802414,167.12383 0,168.94627 0,171.14922 v 4.02539 C 0,177.39759 1.822441,179.2 4.025391,179.2 H 171.26938 c 2.22298,0 4.02539,-1.82244 4.02539,-4.02539 v -4.02539 z"
     fill="#218649"
     id="path821"
     style="stroke-width:0.200268" />
  <path
     d="M 150.40143,95.60805 H 24.913366 c -1.642199,0 -2.983996,-1.3418 -2.983996,-2.984 0,-1.6422 1.341797,-2.984 2.983996,-2.984 H 150.40143 c 1.6422,0 2.984,1.3418 2.984,2.984 0,1.6422 -1.3418,2.984 -2.984,2.984 z"
     fill="#d1d3d3"
     id="path823"
     style="stroke-width:0.200268" />
</svg>
