<svg xmlns="http://www.w3.org/2000/svg" width="138.81" height="71.03" viewBox="0 0 177.67 90.918" xmlns:v="https://vecta.io/nano"><path d="M177.52 55.315c.554 1.78-.376 3.679-2.136 4.332a3.49 3.49 0 0 1-2.532-.04c-10.503-3.976-22.272 1.325-26.287 11.808-.554 1.464-2.018 2.374-3.58 2.255a3.57 3.57 0 0 1-1.029-.257c-13.49-5.103-28.779 1.78-34.061 15.171 0 .02-.02.04-.02.059-.02.059-.04.119-.079.178 0 0 0 .02-.02.02-.277.613-.732 1.147-1.345 1.543-.574.356-1.226.534-1.859.534-1.167 0-2.314-.593-2.987-1.662-2.769-4.45-7.556-7.101-12.797-7.101s-10.028 2.65-12.817 7.101a3.51 3.51 0 0 1-1.721 1.424 3.48 3.48 0 0 1-1.246.237c-1.404 0-2.749-.851-3.283-2.255-2.512-6.587-7.437-11.789-13.885-14.677-6.409-2.868-13.569-3.066-20.136-.574-.316.119-.673.218-1.009.237-1.563.119-3.006-.791-3.58-2.255-4.015-10.483-15.784-15.764-26.267-11.808a3.49 3.49 0 0 1-2.334.119C.671 59.152-.377 57.233.137 55.374c0-.02.02-.059.02-.079 3.363-10.78 9.277-20.334 17.05-28.008s17.406-13.43 28.226-16.635c.059-.02.099-.04.158-.04a3.58 3.58 0 0 1 2.828.514 3.53 3.53 0 0 1 1.503 2.433 33.22 33.22 0 0 0 1.009 4.787c2.749 9.316 9.712 16.714 18.652 20.096l.04-3.046a18.99 18.99 0 0 1 1.681-7.417c-4.035-3.699-6.468-8.921-6.626-14.479-.138-4.253 1.048-8.367 3.382-11.927C69.129-.05 71.304-.485 72.926.583a20.44 20.44 0 0 1 8.802 13.015c.297 1.424.435 2.848.415 4.272 2.116-.791 4.371-1.207 6.686-1.207s4.569.415 6.686 1.207c0-1.424.138-2.848.415-4.272A20.49 20.49 0 0 1 104.732.583c1.622-1.068 3.798-.613 4.866.989a20.29 20.29 0 0 1 3.382 11.927 20.58 20.58 0 0 1-6.626 14.479c1.108 2.473 1.701 5.163 1.701 7.912v2.571c8.94-3.382 15.883-10.78 18.632-20.096.455-1.563.811-3.165 1.009-4.787.138-.989.673-1.879 1.503-2.433.831-.574 1.839-.752 2.809-.514.059.02.119.04.178.04 21.679 6.409 38.61 23.083 45.335 44.643z" fill="#633"/><path d="M168.59 51.438c-11.017-1.207-21.936 4.431-27.217 14.419-12.204-3.323-25.002.613-33.289 9.554V45.86c12.165-3.659 21.738-13.213 25.377-25.516.178-.574.316-1.147.475-1.721 15.606 5.736 28.107 17.584 34.654 32.815z" fill="#b2abac"/><path d="M154.21 41.251c1.226 1.483 1.029 3.699-.455 4.945-1.483 1.226-3.699 1.029-4.945-.455-2.413-2.908-5.162-5.519-8.209-7.734-5.123 7.892-12.263 14.162-20.788 18.316-.495.237-1.009.356-1.523.356-1.305 0-2.552-.732-3.165-1.978-.851-1.741-.119-3.837 1.622-4.688a44.57 44.57 0 0 0 19.681-18.672c.455-.851 1.246-1.464 2.176-1.701s1.919-.099 2.749.415c4.886 3.007 9.198 6.784 12.857 11.195z" fill="#633"/><path d="M105.54 9.287c.356 1.286.514 2.631.475 3.996-.099 2.947-1.147 5.756-2.947 8.011-1.147-4.134-.218-8.644 2.472-12.006zm-4.45 26.604v42.981c-3.56-2.393-7.813-3.699-12.283-3.699-5.677 0-10.978 2.116-15.013 5.855-3.481-5.914-8.683-10.582-15.072-13.43-7.141-3.184-14.973-3.778-22.41-1.741-5.281-9.989-16.2-15.626-27.217-14.419 6.547-15.23 19.048-27.078 34.674-32.795a27.56 27.56 0 0 0 .475 1.721c3.62 12.283 13.213 21.857 25.377 25.516v15.092c0 1.938 1.563 3.501 3.501 3.501s3.501-1.563 3.501-3.501V35.891h.02a12.16 12.16 0 0 1 2.017-6.745c.02-.04.059-.079.079-.119l.02-.02c0-.02.02-.02.02-.02a12.21 12.21 0 0 1 10.068-5.301c4.035 0 7.813 1.998 10.088 5.34.02.02.04.059.059.099a11.79 11.79 0 0 1 2.097 6.765z" fill="#b2abac"/><path d="M94.42 29.502c1.938 0 3.501 1.563 3.501 3.501s-1.563 3.501-3.501 3.501-3.501-1.563-3.501-3.501 1.563-3.501 3.501-3.501zm-11.156 0c1.938 0 3.501 1.563 3.501 3.501s-1.563 3.501-3.501 3.501-3.501-1.563-3.501-3.501 1.563-3.501 3.501-3.501z" fill="#633"/><path d="M74.878 15.004a13.59 13.59 0 0 1-.198 6.31c-1.8-2.255-2.848-5.064-2.947-8.031-.04-1.365.119-2.71.475-4.015 1.325 1.662 2.235 3.62 2.67 5.736z" fill="#b2abac"/><path d="M60.933 49.994c1.741.851 2.473 2.947 1.622 4.688-.613 1.246-1.859 1.978-3.165 1.978-.514 0-1.029-.119-1.523-.356-8.545-4.154-15.666-10.444-20.788-18.316a46.08 46.08 0 0 0-8.209 7.734 3.51 3.51 0 0 1-4.945.455c-1.483-1.246-1.701-3.442-.455-4.945a53.08 53.08 0 0 1 12.837-11.215c.811-.514 1.8-.653 2.749-.415.93.237 1.721.851 2.196 1.701 4.49 8.169 11.294 14.617 19.681 18.692z" fill="#633"/></svg>