<svg width="96.953" height="141.019" viewBox="0 0 124.1 180.504" class="prefix__icon" xmlns="http://www.w3.org/2000/svg"><path d="M112.819 11.282S90.255 0 62.05 0C33.846 0 11.282 11.282 11.282 11.282 5.404 13.634 0 19.157 0 25.384v87.435a11.282 11.282 0 0111.282-11.282h101.537a11.282 11.282 0 0111.281 11.282V25.384c0-6.233-5.359-11.637-11.281-14.102z" fill="#eaeaea"/><path d="M16.923 169.222h22.563v11.282H16.923zm67.69 0h22.565v11.282H84.614z" fill="#434854"/><path d="M16.923 169.222h22.563v5.641H16.923zm67.69 0h22.565v5.641H84.614z"/><path d="M124.1 112.813a11.282 11.282 0 00-11.281-11.282H11.282A11.282 11.282 0 000 112.813v56.41h124.1z" fill="#434854"/><path d="M0 152.3h124.1v5.64H0z" fill="#dae2e5"/><path d="M101.537 101.537V90.255a5.64 5.64 0 00-5.641-5.641H28.205a5.64 5.64 0 00-5.641 5.64v11.283z" fill="#eaca44"/><path d="M22.564 95.896h78.973v5.64H22.564zM28.205 45.127a5.64 5.64 0 1011.281 0 5.64 5.64 0 10-11.281 0zM56.41 28.205a5.64 5.64 0 1011.281 0 5.64 5.64 0 10-11.282 0zM56.41 62.05a5.64 5.64 0 1011.281 0 5.64 5.64 0 10-11.282 0zM84.61399999999999 45.127a5.64 5.64 0 1011.282 0 5.64 5.64 0 10-11.282 0z"/></svg>