<?xml version="1.0" encoding="UTF-8" standalone="no"?>
<!-- Uploaded to: SVG Repo, www.svgrepo.com, Generator: SVG Repo Mixer Tools -->

<svg
   width="96.9534"
   height="141.01872"
   viewBox="0 0 124.10035 180.50396"
   class="icon"
   version="1.1"
   id="svg2171"
   sodipodi:docname="bed-single-svgrepo-com.svg"
   inkscape:version="1.2.2 (732a01da63, 2022-12-09)"
   xmlns:inkscape="http://www.inkscape.org/namespaces/inkscape"
   xmlns:sodipodi="http://sodipodi.sourceforge.net/DTD/sodipodi-0.dtd"
   xmlns="http://www.w3.org/2000/svg"
   xmlns:svg="http://www.w3.org/2000/svg">
  <defs
     id="defs2175" />
  <sodipodi:namedview
     id="namedview2173"
     pagecolor="#ffffff"
     bordercolor="#000000"
     borderopacity="0.25"
     inkscape:showpageshadow="2"
     inkscape:pageopacity="0.0"
     inkscape:pagecheckerboard="0"
     inkscape:deskcolor="#d1d1d1"
     showgrid="false"
     inkscape:zoom="1.04625"
     inkscape:cx="274.31302"
     inkscape:cy="324.01434"
     inkscape:window-width="1920"
     inkscape:window-height="1017"
     inkscape:window-x="1912"
     inkscape:window-y="-8"
     inkscape:window-maximized="1"
     inkscape:current-layer="svg2171" />
  <path
     d="M 112.81851,11.281851 C 112.81851,11.281851 90.2548,0 62.05018,0 33.84555,0 11.28185,11.281851 11.28185,11.281851 5.40401,13.634116 0,19.156582 0,25.384164 v 87.434346 a 11.281851,11.281851 0 0 1 11.28185,-11.28185 h 101.53666 a 11.281851,11.281851 0 0 1 11.28184,11.28185 V 25.384164 c 0,-6.233222 -5.35887,-11.637229 -11.28184,-14.102313 z"
     fill="#eaeaea"
     id="path2149"
     style="stroke-width:0.176279" />
  <path
     d="m 16.92278,169.22212 h 22.5637 v 11.28185 h -22.5637 z m 67.6911,0 h 22.5637 v 11.28185 h -22.5637 z"
     fill="#434854"
     id="path2151"
     style="stroke-width:0.176279" />
  <path
     d="m 16.92278,169.22212 h 22.5637 v 5.64092 h -22.5637 z m 67.6911,0 h 22.5637 v 5.64092 h -22.5637 z"
     fill=""
     id="path2153"
     style="stroke-width:0.176279" />
  <path
     d="M 124.10035,112.81286 A 11.281851,11.281851 0 0 0 112.81851,101.53102 H 11.28185 A 11.281851,11.281851 0 0 0 0,112.81286 v 56.40926 h 124.10035 z"
     fill="#434854"
     id="path2155"
     style="stroke-width:0.176279" />
  <path
     d="m 0,152.29934 h 124.10035 v 5.64093 H 0 Z"
     fill="#dae2e5"
     id="path2157"
     style="stroke-width:0.176279" />
  <path
     d="M 101.53666,101.53666 V 90.254802 A 5.6409253,5.6409253 0 0 0 95.89573,84.613881 H 28.20462 a 5.6409253,5.6409253 0 0 0 -5.64092,5.640921 v 11.281858 z"
     fill="#eaca44"
     id="path2159"
     style="stroke-width:0.176279" />
  <path
     d="m 22.5637,95.895729 h 78.97296 v 5.640931 H 22.5637 Z"
     fill=""
     id="path2161"
     style="stroke-width:0.176279" />
  <path
     d="m 33.84555,45.127402 m -5.64093,0 a 5.64093,5.64093 0 1 0 11.28186,0 5.64093,5.64093 0 1 0 -11.28186,0 z"
     fill=""
     id="path2163"
     style="stroke-width:0.176279" />
  <path
     d="m 62.05018,28.204627 m -5.64092,0 a 5.6409253,5.6409253 0 1 0 11.28184,0 5.6409253,5.6409253 0 1 0 -11.28184,0 z"
     fill=""
     id="path2165"
     style="stroke-width:0.176279" />
  <path
     d="m 62.05018,62.050177 m -5.64092,0 a 5.6409253,5.6409253 0 1 0 11.28184,0 5.6409253,5.6409253 0 1 0 -11.28184,0 z"
     fill=""
     id="path2167"
     style="stroke-width:0.176279" />
  <path
     d="m 90.2548,45.127402 m -5.64092,0 a 5.6409253,5.6409253 0 1 0 11.28185,0 5.6409253,5.6409253 0 1 0 -11.28185,0 z"
     fill=""
     id="path2169"
     style="stroke-width:0.176279" />
</svg>
