<svg xmlns="http://www.w3.org/2000/svg" width="143.588" height="118.723" viewBox="0 0 183.793 151.965" xmlns:v="https://vecta.io/nano"><path d="M183.471 43.272c.738 4.385.205 8.831-1.557 12.805-1.905 4.303-5.143 7.868-9.404 10.285L121.82 95.232c-7.991 4.549-16.944 7.212-26.103 7.806v34.073a14.87 14.87 0 0 1-14.854 14.854c-2.11 0-3.811-1.701-3.811-3.811s1.701-3.811 3.811-3.811c3.975 0 7.212-3.237 7.212-7.212v-34.114c-9.158-.574-18.112-3.258-26.103-7.806L11.284 66.363c-4.262-2.418-7.499-5.983-9.404-10.285C.117 52.082-.415 47.657.322 43.272c.738-4.405 2.705-8.4 5.675-11.597 3.196-3.442 7.437-5.737 12.252-6.638l25.959-4.835c3.135-.574 6.208-1.414 9.24-2.479V3.811C53.45 1.701 55.15 0 57.26 0s3.811 1.701 3.811 3.811v10.654a71.51 71.51 0 0 0 7.847-4.63 40.69 40.69 0 0 1 22.947-7.048 40.69 40.69 0 0 1 22.947 7.048c2.561 1.742 5.184 3.278 7.847 4.63V3.811c0-2.11 1.701-3.811 3.811-3.811s3.811 1.701 3.811 3.811v13.912a59.23 59.23 0 0 0 9.24 2.479l25.959 4.835c4.815.901 9.036 3.196 12.252 6.638 3.032 3.176 4.979 7.192 5.737 11.597z" fill="#633"/><path d="M175.931 44.522c.492 2.93.143 5.839-1.024 8.462-1.229 2.807-3.381 5.122-6.208 6.741l-50.648 28.869a52.96 52.96 0 0 1-26.144 6.925c-9.158 0-18.194-2.397-26.144-6.925l-50.71-28.869c-2.807-1.598-4.958-3.934-6.188-6.72-1.147-2.623-1.516-5.532-1.024-8.462s1.783-5.573 3.729-7.663c2.09-2.233 4.876-3.729 8.052-4.323l26-4.835c9.671-1.803 18.952-5.696 27.619-11.576 5.511-3.749 11.965-5.716 18.665-5.716a33.19 33.19 0 0 1 18.665 5.716c8.646 5.88 17.948 9.773 27.619 11.576l25.959 4.815c3.196.594 5.983 2.09 8.052 4.323 1.946 2.11 3.237 4.753 3.729 7.663z" fill="#b2abac"/><path d="M121.861 39.83c.266 2.09-1.188 4.016-3.278 4.282l-7.806 1.024-.512.041a3.8 3.8 0 0 1-3.77-3.319 3.8 3.8 0 0 1 3.278-4.282l7.806-1.024a3.8 3.8 0 0 1 4.282 3.278zm0 12.744c.266 2.09-1.188 4.016-3.278 4.282l-7.806 1.024-.512.041a3.8 3.8 0 0 1-3.77-3.319 3.8 3.8 0 0 1 3.278-4.282l7.806-1.024a3.8 3.8 0 0 1 4.282 3.278zm0 12.744c.266 2.09-1.188 4.016-3.278 4.282l-7.806 1.024c-.164.02-.348.02-.512.02a3.8 3.8 0 0 1-3.77-3.319 3.8 3.8 0 0 1 3.278-4.282l7.806-1.024c2.09-.246 4.016 1.229 4.282 3.299zM74 37.576c2.09.287 3.565 2.192 3.278 4.282a3.8 3.8 0 0 1-3.77 3.319c-.164 0-.328-.02-.512-.041l-7.806-1.024a3.8 3.8 0 0 1-3.278-4.282c.287-2.09 2.192-3.565 4.282-3.278zm0 12.744a3.8 3.8 0 0 1 3.278 4.282 3.8 3.8 0 0 1-3.77 3.319c-.164 0-.328-.02-.512-.041l-7.806-1.024a3.8 3.8 0 0 1-3.278-4.282c.287-2.09 2.192-3.565 4.282-3.278zm0 12.764a3.8 3.8 0 0 1 3.278 4.282 3.8 3.8 0 0 1-3.77 3.319c-.164 0-.328 0-.512-.02l-7.806-1.024c-2.09-.287-3.565-2.192-3.278-4.282s2.192-3.565 4.282-3.278z" fill="#633"/></svg>