<svg version="1.1" xmlns="http://www.w3.org/2000/svg" xmlns:xlink="http://www.w3.org/1999/xlink" width="140.89918" height="132.12347" viewBox="0,0,140.89918,132.12347"><g transform="translate(-168.88447,-106.82665)"><g data-paper-data="{&quot;isPaintingLayer&quot;:true}" fill-rule="nonzero" stroke-width="0.5" stroke-linecap="butt" stroke-linejoin="miter" stroke-miterlimit="10" stroke-dasharray="" stroke-dashoffset="0" style="mix-blend-mode: normal"><path d="M238.39246,107.12255c0.08561,0.05477 66.82014,42.75396 67.27089,43.11852c-1.46977,0.01291 -2.94085,0.02196 -4.40806,-0.00255c-0.08249,-0.05329 -61.39429,-39.64798 -62.85378,-40.55252c-0.83332,0.53258 -61.81075,39.99593 -62.50344,40.56148c-2.05407,0.00255 -4.10814,0.0116 -6.16221,-0.00518c5.61138,-3.55204 60.95514,-38.29433 68.65661,-43.11976z" fill="#1c365b" stroke="#1c365b"/><path d="M238.4015,109.68592c1.4631,0.90676 62.77047,40.49874 62.85378,40.55252c-1.74165,0.06028 -4.81827,-0.00979 -4.90955,-0.01036c-0.82666,-0.59072 -56.68886,-35.92998 -57.9675,-36.69521c-0.95709,0.52221 -57.25359,36.30885 -57.78912,36.70039c-0.707,0.0537 -4.20296,0.01875 -4.69113,0.01423c0.68044,-0.55544 61.49561,-39.91731 62.50352,-40.56157z" fill="#6580a4" stroke="#6580a4"/><path d="M234.30636,116.06655c1.36376,-0.83382 2.66938,-1.76837 4.07195,-2.53368c1.01959,0.61021 57.03442,36.02842 57.9675,36.69521c-18.02066,0.01694 -108.62219,0.01184 -115.75662,0.00518c0.67024,-0.49006 -3.47679,2.17924 53.71717,-34.1667M238.91475,118.86389c-0.01554,0.72781 0.01036,1.45685 -0.0116,2.18458c-5.7483,0.4996 -6.40818,5.50348 -4.72994,7.97326c1.1182,1.52018 3.01585,2.09675 4.73636,2.64092c0.00255,2.9434 0.00255,5.88687 0,8.83027c-1.10915,-0.0685 -2.17554,-0.56876 -2.97317,-1.33531c-0.76523,-0.71482 -1.20734,-1.696 -1.43876,-2.70301c-0.52221,-0.02072 -1.04451,-0.02072 -1.56672,-0.00773c0.20518,2.94044 2.51748,5.32691 5.96056,5.4784c0.04655,0.97082 0.00132,1.94157 0.02459,2.91371c0.47961,0.0116 0.96178,0.0116 1.44263,0.00132c0.04392,-0.97206 0.0065,-1.9442 0.01291,-2.91626c1.58095,-0.10469 3.23559,-0.55585 4.38602,-1.70242c1.859,-1.79617 1.97553,-5.63366 0.14219,-7.44061c-1.21902,-1.23062 -2.89175,-1.85374 -4.51793,-2.341c-0.01423,-2.64224 0.00255,-5.28571 -0.00773,-7.92927c1.8956,0.31818 3.13148,1.15948 3.75394,3.30796c0.5468,0.04786 1.09616,0.04137 1.64428,0.01291c-0.17838,-1.60677 -1.12329,-3.12572 -2.55564,-3.90263c-0.86737,-0.51835 -1.87051,-0.67995 -2.84389,-0.87518c-0.00518,-0.73036 0.02327,-1.46072 -0.01291,-2.19108c-0.48216,-0.01308 -0.96433,-0.01308 -1.44518,0.00115z" fill="#7fa2ca" stroke="#7fa2ca"/><path d="M238.91475,118.86389c0.48085,-0.01423 0.96301,-0.01423 1.44518,-0.00132c0.03618,0.73036 0.00773,1.46072 0.01291,2.19108c0.97337,0.19523 1.97652,0.35675 2.84389,0.87518c1.43226,0.77691 2.37727,2.29577 2.55564,3.90263c-0.54812,0.02845 -1.09747,0.03487 -1.64428,-0.01291c-0.62024,-2.14091 -1.85382,-2.98896 -3.75394,-3.30796c0.01036,2.64355 -0.0065,5.28703 0.00773,7.92927c1.62618,0.48735 3.29891,1.11038 4.51793,2.341c1.83359,1.80719 1.71665,5.64468 -0.14219,7.44061c-1.15052,1.14657 -2.80507,1.59773 -4.38602,1.70242c-0.0065,0.97206 0.031,1.9442 -0.01291,2.91626c-0.48085,0.01036 -0.96301,0.01036 -1.44263,-0.00132c-0.02327,-0.97206 0.02196,-1.94288 -0.02459,-2.91371c-3.42729,-0.15074 -5.75431,-2.5239 -5.96056,-5.4784c0.52221,-0.01291 1.04451,-0.01291 1.56672,0.00773c0.23142,1.00701 0.67345,1.98811 1.43876,2.70301c0.79755,0.76654 1.86402,1.2668 2.97317,1.33531c0.00255,-2.9434 0.00255,-5.88687 0,-8.83027c-1.72059,-0.54425 -3.61816,-1.12075 -4.73636,-2.64092c-1.67511,-2.4651 -1.02436,-7.47309 4.72994,-7.97326c0.02188,-0.72756 -0.00395,-1.45661 0.0116,-2.18442M235.65976,124.0126c-0.7885,1.22157 -0.82987,2.95639 0.01941,4.15855c0.78727,1.00183 2.03335,1.4969 3.22136,1.84074c0.01809,-2.51428 0.01423,-5.02724 0.00387,-7.54151c-1.21902,0.06472 -2.53492,0.48093 -3.24464,1.54222M240.37416,132.06604c0.0185,8.32031 -0.03898,7.93239 0.04523,8.45148c0.85832,-0.09309 1.7335,-0.27015 2.47678,-0.73422c1.997,-1.19435 1.9576,-4.39589 0.78595,-5.79633c-0.84278,-1.0006 -2.0928,-1.52667 -3.30796,-1.92093z" fill="#1c365b" stroke="#1c365b"/><path d="M238.90439,122.47046c0.01036,2.51428 0.01423,5.02724 -0.00387,7.54151c-1.18793,-0.34384 -2.43409,-0.83891 -3.22136,-1.84074c-1.21812,-1.72438 -0.92156,-5.48086 3.22523,-5.70077z" fill="#7fa2ca" stroke="#7fa2ca"/><path d="M240.37416,132.06604c2.9679,0.96301 4.53742,2.37686 4.01768,5.46285c-0.16028,0.91523 -0.69163,1.77355 -1.49559,2.2544c-0.74327,0.46407 -1.61845,0.64113 -2.47678,0.73422c-0.08413,-0.51794 -0.02673,-0.12476 -0.04531,-8.45148z" fill="#7fa2ca" stroke="#7fa2ca"/><path d="M180.48705,150.24107c0.03651,-0.0028 116.0035,-0.01094 117.07384,0.01291c-0.0375,0.73168 -0.02327,1.46458 -0.01036,2.19758c-0.50207,0.03355 -116.64258,0.02829 -117.03633,0.00905c-0.00518,-0.74072 0.02845,-1.48144 -0.02714,-2.21953z" fill="#1c365b" stroke="#1c365b"/><path d="M182.65485,152.4787c37.44752,-0.0116 74.89637,-0.00905 112.34389,-0.00132c-0.02327,0.94369 -0.00773,1.88861 -0.01291,2.83353c-37.44621,-0.00132 -74.8925,0.00905 -112.34003,-0.00518c-0.00641,-0.94237 -0.02064,-1.88474 0.00905,-2.82703z" fill="#6580a4" stroke="#6580a4"/><path d="M182.64581,155.30573c37.44752,0.01423 74.89382,0.00387 112.34003,0.00518c0.0065,0.94492 -0.00387,1.88861 0.0065,2.83353c-19.71708,0.02155 -106.79222,0.0125 -112.33484,0c-0.02591,-0.94624 -0.00518,-1.89247 -0.01168,-2.83871z" fill="#7fa2ca" stroke="#7fa2ca"/><path d="M180.5155,158.15743c0.08232,-0.00493 116.79011,-0.00674 117.03378,0.01554c-0.01423,0.72131 -0.01423,1.44518 0.00132,2.16781c-0.67608,0.06332 -1.35471,0.02459 -2.0308,0.03618c-0.03364,1.18925 0.00387,2.3785 -0.01678,3.56775c-0.63858,0.00132 -1.27716,-0.01036 -1.91574,0.00905c-0.00567,4.63973 -0.02105,49.82663 0.00518,52.14271c0.63603,0.02064 1.2733,0.00773 1.91056,0.00905c0.01423,1.19443 -0.00255,2.39018 0.00773,3.58593c-5.51458,0.02582 -11.02908,-0.00905 -16.54498,-0.00905c-0.04523,-1.1918 -0.05428,-2.38886 0.01809,-3.57943c0.54935,0.00773 1.1001,0.00387 1.65077,-0.01941c-0.00255,-17.37098 -0.00255,-34.74328 0,-52.11426c-0.55848,-0.02582 -1.11688,-0.02977 -1.67405,-0.01941c-0.0685,-1.18793 -0.0116,-2.3785 -0.02064,-3.56775c-1.22675,-0.03882 -2.4535,-0.02714 -3.67894,-0.00773c-0.02714,1.19057 0.03232,2.38368 -0.02459,3.57556c-0.6334,-0.01036 -1.26812,-0.01678 -1.89897,0.02977c0.00641,17.36325 0.00641,34.72773 0,52.0923c0.63085,0.04655 1.26425,0.03882 1.89765,0.02977c0.03487,0.87814 0.04498,3.07958 -0.01678,3.56389c-5.50808,0.05946 -11.02003,-0.00255 -16.52944,0.02977c0.00905,-1.19706 -0.02327,-2.39404 0.01291,-3.59111c0.55453,0.0065 1.11038,0.00132 1.665,-0.01291c0.01168,-17.37616 0.01168,-34.75487 0,-52.13104c-0.55585,-0.01554 -1.11038,-0.01941 -1.66623,-0.01291c-0.03882,-1.19312 0.01036,-2.38631 -0.02064,-3.57943c-2.55219,-0.00576 -34.58768,-0.01801 -38.99098,0.0116c-0.01809,1.18925 0.04268,2.38113 -0.02327,3.57038c-0.63727,-0.01036 -1.27461,-0.01809 -1.90925,0.03232c0.01036,17.36193 0.01036,34.72387 0,52.0858c0.62822,0.05304 1.25907,0.04005 1.88861,0.03364c0.06332,1.19312 0.05559,2.38886 0.01678,3.58198c-5.51845,0.01554 -11.03813,-0.00773 -16.55789,0.01168c0.0116,-1.19706 -0.01941,-2.39404 0.01554,-3.58979c0.55717,0.00518 1.11302,0 1.67018,-0.01423c0.01891,-9.29105 0.01743,-50.13026 0,-52.13104c-0.55717,-0.01554 -1.11425,-0.01941 -1.67018,-0.01291c-0.04005,-1.19312 0.01036,-2.38755 -0.02196,-3.58074c-1.42585,-0.01036 -2.85162,-0.00905 -4.27747,0c-0.05041,1.19188 0.00132,2.385 -0.01941,3.5768c-0.63603,0 -1.2733,-0.00387 -1.90925,0.01678c-0.01933,8.78134 -0.01924,49.67893 -0.00132,52.13104c0.63727,0.01941 1.27461,0.01678 1.91056,0.01554c0.01678,1.19575 -0.02327,2.39141 0.01941,3.58716c-5.54172,-0.02714 -11.08212,0.02845 -16.62384,-0.00255c0.031,-1.19312 0.0116,-2.38755 0.01036,-3.58074c0.57394,-0.01291 1.15175,0.02582 1.72314,-0.04137c-0.01554,-17.36325 -0.01423,-34.72642 0,-52.08835c-0.57263,-0.06464 -1.1492,-0.02977 -1.72314,-0.04137c-0.00255,-1.18793 0.02714,-2.37727 -0.0116,-3.5652c-0.56103,0.00255 -1.12075,0.0116 -1.68046,-0.02196c0.0023,-0.73184 0.0023,-1.46352 0.00099,-2.19511M185.56083,163.98608c0.01036,17.35939 0.00905,34.72 0,52.07931c0.49894,0.06209 1.00314,0.06077 1.50463,0.01941c0.00905,-17.3723 0.0065,-34.74583 0.00132,-52.11812c-0.50157,-0.04137 -1.00701,-0.04268 -1.50595,0.01941M188.73688,163.96412c-0.03767,2.57957 -0.02549,48.95836 0,52.12331c1.11302,0.02327 2.2299,0.05691 3.34159,-0.01941c-0.01036,-17.36193 -0.00773,-34.72255 0,-52.08449c-1.1117,-0.07632 -2.22858,-0.04268 -3.34159,-0.01941M193.70597,163.98863c0.01036,17.35675 0.00905,34.71482 0.00132,52.07158c0.50026,0.0685 1.00569,0.06464 1.50982,0.02459c0.01036,-17.3723 0.01036,-34.74583 -0.00132,-52.11812c-0.50281,-0.04137 -1.00956,-0.04268 -1.50982,0.02196M206.46856,163.96667c-0.0065,17.37353 -0.0065,34.74583 0,52.11944c0.50289,0.04005 1.00824,0.04268 1.50858,-0.02582c-0.01168,-17.35675 -0.01168,-34.71351 0,-52.07026c-0.50034,-0.06727 -1.00569,-0.06472 -1.50858,-0.02336M209.60201,163.98221c0.01036,17.36325 0.01036,34.72519 0.00132,52.08712c1.1117,0.07237 2.22858,0.04137 3.34283,0.01809c0.03265,-2.50136 0.02327,-49.08311 0,-52.12331c-1.11425,-0.02459 -2.23113,-0.05559 -3.34414,0.01809M214.61502,163.96798c-0.00518,17.3723 -0.00518,34.74459 0,52.11812c0.50289,0.03882 1.00833,0.03882 1.51113,-0.01554c-0.0116,-17.36325 -0.01036,-34.72642 -0.00132,-52.08967c-0.50157,-0.05428 -1.00701,-0.05559 -1.50982,-0.01291M262.04851,163.96535c-0.0153,4.61045 -0.01472,46.15954 0,52.12067c0.50289,0.04005 1.01088,0.04268 1.51245,-0.02845c-0.01554,-17.35544 -0.01554,-34.71096 -0.00132,-52.06516c-0.50157,-0.06966 -1.00833,-0.06842 -1.51113,-0.02706M265.18064,163.9744c0.01036,17.36712 0.00905,34.73547 0,52.10258c1.11302,0.05559 2.2299,0.0375 3.34283,0.01036c0.02081,-2.73056 0.03528,-42.81663 0,-52.12199c-1.11425,-0.031 -2.23113,-0.04655 -3.34283,0.00905M270.19752,163.96667c-0.00905,17.3723 -0.00905,34.74714 0,52.11944c0.50157,0.04005 1.00824,0.04005 1.50982,-0.01941c-0.00905,-17.36062 -0.00905,-34.72132 0,-52.08062c-0.50157,-0.06077 -1.00824,-0.06077 -1.50982,-0.01941M282.31634,163.96667c-0.04589,1.68087 -0.01908,49.6976 0,52.11812c0.48348,0.03487 0.96951,0.03618 1.45422,0.00255c0.01768,-0.99541 0.0125,-43.014 0,-52.12331c-0.48471,-0.03487 -0.97074,-0.03355 -1.45422,0.00263M285.44848,163.96412c-0.01036,17.37353 -0.00905,34.74846 0,52.12199c1.11038,0.031 2.22471,0.044 3.3351,-0.00773c-0.00518,-17.36843 -0.00773,-34.7381 0.00132,-52.10653c-1.11038,-0.05041 -2.22471,-0.03882 -3.33641,-0.00773M290.46798,163.96535c-0.04326,2.31411 -0.02442,49.3096 -0.00132,52.12067c0.48348,0.03487 0.96951,0.03487 1.45422,0c0.03347,-1.67536 0.02262,-43.82906 0,-52.12067c-0.48471,-0.03618 -0.96943,-0.03618 -1.45291,0z" fill="#1c365b" stroke="#1c365b"/><path d="M198.81981,160.3666c1.42585,-0.00905 2.85162,-0.01036 4.27747,0c0.03232,1.19312 -0.01809,2.38755 0.02196,3.58074c0.55585,-0.0065 1.11302,-0.00255 1.67018,0.01291c0.01628,1.86393 0.02056,42.04885 0,52.13104c-0.55717,0.01423 -1.11302,0.01941 -1.67018,0.01423c-0.03487,1.19575 -0.00387,2.39273 -0.01554,3.58979c-1.4284,-0.00518 -2.85548,-0.00387 -4.28397,-0.00132c-0.04268,-1.19575 -0.00255,-2.39141 -0.01941,-3.58716c-0.63603,0.00132 -1.2733,0.00387 -1.91056,-0.01554c-0.0139,-1.89823 -0.02245,-41.3643 0.00132,-52.13104c0.63603,-0.02064 1.2733,-0.01678 1.90925,-0.01678c0.02081,-1.19188 -0.03092,-2.38508 0.01949,-3.57688z" fill="#7fa2ca" stroke="#7fa2ca"/><path d="M219.68872,160.37951c4.39622,-0.02961 36.31831,-0.01768 38.99098,-0.0116c0.031,1.19312 -0.01809,2.38631 0.02064,3.57943c0.55585,-0.0065 1.11038,-0.00255 1.66623,0.01291c0.01168,17.37616 0.01168,34.75487 0,52.13104c-0.55453,0.01423 -1.11038,0.01941 -1.665,0.01291c-0.03618,1.19706 -0.00387,2.39404 -0.01291,3.59111c-1.92866,-0.02072 -3.85863,0.02714 -5.78728,-0.02459c0.00387,-16.35106 -0.00905,-32.70212 0.00773,-49.05186c0.38134,-0.01423 0.76268,-0.03364 1.14533,-0.0491c0.02327,-0.64508 0.02064,-1.29139 0.07624,-1.93384c0.23142,-0.00518 0.46276,-0.00905 0.69549,-0.01291c0.03487,-0.67995 0.0375,-1.36121 -0.00387,-2.04116c-10.78352,-0.00255 -21.56572,-0.00132 -32.34792,0c-0.04523,0.67995 -0.04392,1.36121 -0.00518,2.04239c0.2301,0.00518 0.45889,0.01036 0.69031,0.01554c0.00905,0.6399 0.0065,1.27971 0.01678,1.92093c0.40848,0.02327 0.81696,0.04268 1.22675,0.05559c0.02993,10.99832 0.01423,48.18795 0.00905,49.06099c-1.54995,0.031 -3.10113,0.01423 -4.65108,0.0116c-0.06596,-1.19575 -0.01941,-2.39273 -0.00773,-3.58716c-0.52057,0 -1.26927,0.0278 -1.99716,-0.03364c0.01036,-17.36193 0.01036,-34.72387 0,-52.0858c0.63472,-0.05041 1.27198,-0.04268 1.90925,-0.03232c0.06604,-1.18933 0.00526,-2.38121 0.02336,-3.57046z" fill="#7fa2ca" stroke="#7fa2ca"/><path d="M275.26094,160.37433c1.22544,-0.01941 2.45219,-0.031 3.67894,0.00773c0.00905,1.18925 -0.04786,2.37982 0.02064,3.56775c0.55717,-0.01036 1.11556,-0.0065 1.67405,0.01941c-0.00255,17.37098 -0.00255,34.74328 0,52.11426c-0.68735,0.02903 -1.24419,0.02426 -1.75801,0.01809c0.01291,1.19443 0.05814,2.39141 -0.00641,3.58584c-1.15438,0.00518 -2.30868,0.02459 -3.46306,-0.01036c-0.04005,-0.06332 -0.12023,-0.18874 -0.16028,-0.25075c0.01423,-1.10783 0.03232,-2.21698 -0.0116,-3.32474c-0.6334,0.00905 -1.2668,0.01678 -1.89765,-0.02977c0.00641,-17.36448 0.00641,-34.72905 0,-52.0923c0.63085,-0.04655 1.26549,-0.04005 1.89897,-0.02977c0.05674,-1.19172 -0.00271,-2.38483 0.02442,-3.5754z" fill="#7fa2ca" stroke="#7fa2ca"/><path d="M185.56083,163.98608c0.49894,-0.06209 1.00438,-0.06077 1.50595,-0.01941c0.00518,17.3723 0.00773,34.74583 -0.00132,52.11812c-0.50157,0.04137 -1.00569,0.04268 -1.50463,-0.01941c0.00905,-17.3593 0.01028,-34.72 0,-52.07931z" fill="#6580a4" stroke="#6580a4"/><path d="M188.73688,163.96412c1.11302,-0.02327 2.2299,-0.05691 3.34159,0.01941c-0.00773,17.36193 -0.01036,34.72255 0,52.08449c-1.1117,0.07624 -2.22858,0.04268 -3.34159,0.01941c-0.02459,-3.05623 -0.03841,-49.4925 0,-52.12331z" fill="#6580a4" stroke="#6580a4"/><path d="M193.70597,163.98863c0.50026,-0.06464 1.00701,-0.06332 1.50982,-0.02196c0.0116,17.3723 0.0116,34.74583 0.00132,52.11812c-0.50412,0.04005 -1.00956,0.04392 -1.50982,-0.02459c0.00773,-17.35675 0.00905,-34.71482 -0.00132,-52.07158z" fill="#6580a4" stroke="#6580a4"/><path d="M206.46856,163.96667c0.50289,-0.04137 1.00824,-0.04392 1.50858,0.02327c-0.01168,17.35675 -0.01168,34.71351 0,52.07026c-0.50026,0.0685 -1.00569,0.06596 -1.50858,0.02582c-0.0065,-17.37353 -0.0065,-34.74575 0,-52.11936z" fill="#6580a4" stroke="#6580a4"/><path d="M209.60201,163.98221c1.11302,-0.07369 2.2299,-0.04268 3.34414,-0.01809c0.02163,2.829 0.03388,49.52589 0,52.12331c-1.11425,0.02327 -2.23113,0.05428 -3.34283,-0.01809c0.00905,-17.36202 0.00905,-34.72395 -0.00132,-52.08712z" fill="#6580a4" stroke="#6580a4"/><path d="M214.61502,163.96798c0.50289,-0.04268 1.00833,-0.04137 1.50982,0.01291c-0.00905,17.36325 -0.01036,34.72642 0.00132,52.08967c-0.50289,0.05428 -1.00833,0.05428 -1.51113,0.01554c-0.00518,-17.37361 -0.00518,-34.74583 0,-52.11812z" fill="#6580a4" stroke="#6580a4"/><path d="M262.04851,163.96535c0.50289,-0.04137 1.00956,-0.04268 1.51113,0.02714c-0.01423,17.3542 -0.01423,34.70964 0.00132,52.06516c-0.50157,0.07114 -1.00956,0.0685 -1.51245,0.02845c-0.01546,-6.24042 -0.01497,-47.6173 0,-52.12076z" fill="#6580a4" stroke="#6580a4"/><path d="M265.18064,163.9744c1.1117,-0.05559 2.22858,-0.04005 3.34283,-0.00905c0.03701,9.76943 0.01949,49.55451 0,52.12199c-1.11302,0.02714 -2.2299,0.04523 -3.34283,-0.01036c0.00905,-17.36703 0.01028,-34.73547 0,-52.10258z" fill="#6580a4" stroke="#6580a4"/><path d="M270.19752,163.96667c0.50157,-0.04137 1.00824,-0.04137 1.50982,0.01941c-0.00905,17.35939 -0.00905,34.72 0,52.08062c-0.50157,0.05946 -1.00833,0.05946 -1.50982,0.01941c-0.00905,-17.3723 -0.00905,-34.74714 0,-52.11944z" fill="#6580a4" stroke="#6580a4"/><path d="M282.31634,163.96667c0.48348,-0.03618 0.96951,-0.0375 1.45422,-0.00255c0.01283,9.33678 0.01711,51.1607 0,52.12331c-0.4848,0.03364 -0.97082,0.03232 -1.45422,-0.00255c-0.01628,-2.06821 -0.04696,-50.39844 0,-52.11821z" fill="#6580a4" stroke="#6580a4"/><path d="M285.44848,163.96412c1.1117,-0.031 2.22603,-0.04268 3.33641,0.00773c-0.00905,17.36843 -0.0065,34.7381 -0.00132,52.10653c-1.11038,0.05173 -2.22471,0.03882 -3.3351,0.00773c-0.00905,-17.37361 -0.01036,-34.74846 0,-52.12199z" fill="#6580a4" stroke="#6580a4"/><path d="M290.46798,163.96535c0.48348,-0.03618 0.96819,-0.03618 1.45299,0c0.0222,8.13848 0.03347,50.44441 0,52.12067c-0.48471,0.03487 -0.97082,0.03487 -1.45422,0c-0.02237,-2.70844 -0.04276,-49.76726 0.00123,-52.12067z" fill="#6580a4" stroke="#6580a4"/><path d="M222.47446,166.58177c10.7822,-0.00132 21.5644,-0.00255 32.34792,0c0.04137,0.67995 0.03882,1.36121 0.00387,2.04116c-1.18111,0.01965 -31.59667,0.01834 -32.35696,0.00132c-0.03873,-0.68126 -0.04005,-1.36253 0.00518,-2.04247z" fill="#1c365b" stroke="#1c365b"/><path d="M223.15959,168.6397c10.32331,-0.01036 20.64794,-0.00132 30.97125,-0.00387c-0.05559,0.64245 -0.05296,1.28876 -0.07624,1.93384c-0.38266,0.01554 -0.764,0.03487 -1.14533,0.0491c-0.01678,16.34974 -0.00387,32.7008 -0.00773,49.05186c1.41055,0.03783 19.41263,0.02615 22.3168,-0.00518c0.00773,-0.06077 0.02196,-0.17969 0.02845,-0.23915c0.04005,0.06201 0.12023,0.18742 0.16028,0.25075c1.15438,0.03487 2.30868,0.01554 3.46306,0.01036c0.06464,-1.19443 0.01941,-2.39141 0.00641,-3.58584l0.10732,0.00132c-0.07237,1.19057 -0.06332,2.38755 -0.01809,3.57943c0.08224,0 18.69889,0.01456 18.97003,0.02977c-0.01036,1.01606 -0.02459,2.03335 0.00773,3.0494c-42.93571,0.05666 -117.52935,-0.00132 -117.61159,-0.00132c-0.03364,-1.01992 -0.01809,-2.04239 -0.00905,-3.06231c0,0 36.83057,-0.00715 39.33876,-0.01423c0.03882,-1.19312 0.04655,-2.38886 -0.01678,-3.58198h0.10855c-0.0116,1.19443 -0.05814,2.39141 0.00773,3.58716c1.54995,0.00255 3.10113,0.01941 4.65108,-0.0116c0.00526,-0.88225 0.02089,-38.07073 -0.00905,-49.06099c-0.40979,-0.01291 -0.81827,-0.03232 -1.22675,-0.05559c-0.01036,-0.64121 -0.00781,-1.28103 -0.01686,-1.92093M226.40678,171.36081c0.00905,16.10418 0.0116,32.20959 0,48.31377c2.58525,0.03799 22.77602,0.02229 24.40188,0.01554c0.0329,-2.53336 0.02105,-41.75772 0.00132,-48.34354c-0.98004,-0.00921 -20.10829,-0.02418 -24.40319,0.01423z" fill="#6580a4" stroke="#6580a4"/><path d="M226.40678,171.36081c4.65165,-0.04153 23.86913,-0.01924 24.40311,-0.01423c0.02508,8.36571 0.02582,46.25543 -0.00132,48.34354c-1.75077,0.00732 -21.7973,0.02278 -24.40188,-0.01554c0.01176,-16.10418 0.00913,-32.20968 0.00008,-48.31377M228.57853,174.05601c-0.0116,3.57943 -0.01036,7.16017 -0.00132,10.73952c0.89114,0.03544 7.89629,0.03388 8.78372,0.00255c0.02064,-3.58198 0.02327,-7.16404 0,-10.74602c-1.05668,-0.03084 -8.07458,-0.02952 -8.78241,0.00395M239.30514,174.05346c-0.01036,3.58074 -0.0116,7.16141 0,10.74215c0.84993,0.03709 7.86718,0.03314 8.77986,0.00132c0.01036,-3.58074 0.0116,-7.16272 -0.00132,-10.74215c-0.87181,-0.0324 -7.90608,-0.03298 -8.77854,-0.00132M228.58108,186.86769c-0.01554,3.82762 -0.01809,7.65525 0.00132,11.48156c2.92407,0.01554 5.84937,0.01036 8.77336,0.00255c0.03232,-3.82762 0.02845,-7.6578 0.00255,-11.48542c-2.9253,-0.01291 -5.85192,-0.01801 -8.77723,0.00132M239.309,186.86646c-0.01554,3.82762 -0.01941,7.65648 0.00132,11.48287c2.92275,0.01291 5.84674,0.01291 8.7695,0.00132c0.02072,-3.82762 0.01809,-7.65648 0.00132,-11.48411c-2.92407,-0.01563 -5.84937,-0.01563 -8.77213,-0.00008M228.57853,199.52041c-0.00255,6.06657 -0.02845,12.13568 0.01291,18.20085c2.91889,0.00255 5.8377,-0.00387 8.75659,0.00387c0.03865,-1.50052 0.03067,-16.08609 0.01291,-18.20735c-2.92662,-0.03224 -5.85579,-0.03742 -8.78241,0.00263M239.30514,199.52041c-0.00255,6.06657 -0.02845,12.13568 0.01291,18.20217c2.91757,0.00132 5.83646,-0.00518 8.75404,0.00255c0.03947,-0.80437 0.01563,-17.14154 0.01168,-18.20471c-0.99295,-0.0329 -7.99958,-0.03281 -8.77863,0z" fill="#74584d" stroke="#74584d"/><path d="M228.57853,174.05601c0.70766,-0.03347 7.72688,-0.03479 8.78241,-0.00387c0.02327,3.58198 0.02064,7.16404 0,10.74602c-0.88826,0.03133 -7.89308,0.03281 -8.78372,-0.00255c-0.00905,-3.57943 -0.01036,-7.16017 0.00132,-10.7396M229.23775,174.71013c-0.02582,3.1425 -0.02459,6.28631 0,9.4288c0.7825,0.0491 6.73574,0.04005 7.46388,0.00255c0.03898,-0.58406 0.0477,-7.93025 0.00255,-9.43398c-0.76227,-0.04416 -6.68426,-0.04087 -7.46643,0.00263z" fill="#593929" stroke="#593929"/><path d="M239.30514,174.05346c0.87173,-0.03158 7.90632,-0.03109 8.77854,0.00132c0.01291,3.57943 0.0116,7.16141 0.00132,10.74215c-0.91235,0.03183 -7.92721,0.03594 -8.77986,-0.00132c-0.01168,-3.58074 -0.01036,-7.16149 0,-10.74215M239.96568,174.71013c-0.03618,3.1425 -0.03364,6.28886 -0.00132,9.43135c0.68019,0.04112 6.65671,0.03997 7.46133,0.00132c0.03191,-1.23127 0.02895,-8.7519 0,-9.43398c-0.78381,-0.04729 -6.69544,-0.04046 -7.46001,0.00132z" fill="#593929" stroke="#593929"/><path d="M229.23775,174.71013c0.78151,-0.04342 6.70391,-0.04679 7.46651,-0.00255c0.03849,1.28308 0.04046,8.78825 -0.00255,9.43398c-0.72814,0.0375 -6.67998,0.04655 -7.46388,-0.00255c-0.02467,-3.14266 -0.02591,-6.28639 -0.00008,-9.42889z" fill="#6b4b3c" stroke="#6b4b3c"/><path d="M239.96568,174.71013c0.76704,-0.04186 6.67529,-0.0486 7.46001,-0.00132c0.03002,0.70643 0.03117,8.23034 0,9.43398c-0.80577,0.03873 -6.77916,0.03997 -7.46133,-0.00132c-0.03232,-3.1425 -0.03487,-6.28886 0.00132,-9.43135z" fill="#6b4b3c" stroke="#6b4b3c"/><path d="M228.58108,186.86769c2.9253,-0.01941 5.85192,-0.01423 8.77731,-0.00132c0.02582,3.82762 0.02977,7.6578 -0.00255,11.48542c-2.92407,0.00773 -5.84937,0.01291 -8.77336,-0.00255c-0.01949,-3.82631 -0.01694,-7.65393 -0.0014,-11.48156M229.26876,187.55932c-0.06012,0.4028 -0.05526,-0.14885 -0.04523,8.21751c0.0065,0.62699 -0.04523,1.25775 0.04655,1.88211c2.26608,0.06982 4.53471,-0.00132 6.80202,0.03487c0.20815,-0.0375 0.62567,0.0685 0.63858,-0.24688c0.02196,-0.4468 0.04663,-8.3421 -0.01678,-9.91097c-2.47414,0.00526 -4.95223,-0.04128 -7.42515,0.02336z" fill="#593929" stroke="#593929"/><path d="M239.309,186.86646c2.92275,-0.01554 5.84806,-0.01554 8.77213,0c0.01678,3.82762 0.01941,7.65648 -0.00132,11.48411c-2.92275,0.0116 -5.84674,0.0116 -8.7695,-0.00132c-0.02072,-3.82631 -0.01686,-7.65517 -0.00132,-11.48279M239.998,187.558c-0.07369,0.45248 -0.06464,0.91137 -0.05428,1.36763c0.00905,2.80121 -0.00905,5.60373 0.0065,8.40502c-0.0685,0.46021 0.47961,0.33479 0.76654,0.36325c2.22471,-0.03618 4.45066,0.03487 6.67406,-0.03487c0.09827,-0.58044 0.05173,-1.16861 0.05559,-1.75283c0,-8.39556 0.02344,-7.86751 -0.05559,-8.34679c-0.75832,-0.04548 -6.66534,-0.03857 -7.39283,-0.0014z" fill="#593929" stroke="#593929"/><path d="M229.26876,187.55932c2.47291,-0.06464 4.95092,-0.01809 7.42515,-0.02327c0.06299,1.55727 0.03767,9.4867 0.01678,9.91097c-0.01291,0.31538 -0.43044,0.20938 -0.63858,0.24688c-2.26731,-0.03618 -4.53603,0.03487 -6.80202,-0.03487c-0.06924,-0.47098 -0.04655,0.05066 -0.04655,-8.34548c0.00132,-0.58562 -0.04137,-1.17379 0.04523,-1.75423z" fill="#6b4b3c" stroke="#6b4b3c"/><path d="M239.998,187.558c0.72987,-0.03725 6.63426,-0.04408 7.39283,0.00132c0.07837,0.47526 0.05559,-0.06234 0.05559,8.34679c-0.00387,0.5843 0.04268,1.17247 -0.05559,1.75283c-2.2234,0.06982 -4.44943,-0.00132 -6.67406,0.03487c-0.28701,-0.02845 -0.83505,0.09696 -0.76654,-0.36325c-0.01554,-2.80121 0.00255,-5.60373 -0.0065,-8.40502c-0.01036,-0.45618 -0.01941,-0.91507 0.05428,-1.36754z" fill="#6b4b3c" stroke="#6b4b3c"/><path d="M228.57853,199.52041c2.92662,-0.04005 5.85579,-0.03487 8.78241,-0.00255c0.01661,1.98935 0.02549,16.71431 -0.01291,18.20735c-2.91889,-0.00773 -5.8377,-0.00132 -8.75659,-0.00387c-0.04137,-6.06525 -0.01554,-12.13437 -0.01291,-18.20093M229.23644,200.58432c-0.02196,5.33103 -0.02327,10.6646 0,15.99554c0.59187,0.03651 6.53393,0.03906 7.47169,0.00255c0.03717,-0.795 0.03799,-12.82402 -0.00518,-15.99817c-2.48837,-0.02064 -4.97806,-0.01933 -7.46651,0.00008z" fill="#593929" stroke="#593929"/><path d="M239.30514,199.52041c0.77863,-0.03281 7.78576,-0.03298 8.77854,0c0.0037,0.99402 0.02763,17.40412 -0.01168,18.20471c-2.91757,-0.00773 -5.83646,-0.00132 -8.75404,-0.00255c-0.04128,-6.06648 -0.01546,-12.1356 -0.01283,-18.20217M239.96568,200.58687c-0.03265,1.24501 -0.0264,14.09016 -0.00518,15.99554c2.48714,0.04005 4.97937,0.04005 7.46651,0c0.04137,-0.95092 0.02722,-13.2894 -0.00387,-15.99554c-2.48451,-0.02451 -4.97164,-0.02327 -7.45746,0z" fill="#593929" stroke="#593929"/><path d="M229.23644,200.58432c2.48837,-0.01941 4.97806,-0.02064 7.46651,0c0.04334,3.18674 0.04194,15.21189 0.00518,15.99817c-0.93546,0.03635 -6.87793,0.03405 -7.47169,-0.00255c-0.02327,-5.33103 -0.02196,-10.6646 0,-15.99563z" fill="#6b4b3c" stroke="#6b4b3c"/><path d="M239.96568,200.58687c2.48582,-0.02327 4.97296,-0.02459 7.45746,0c0.03553,3.08731 0.03816,15.20688 0.00387,15.99554c-2.48714,0.04005 -4.97937,0.04005 -7.46651,0c-0.01768,-1.58696 -0.02887,-14.69856 0.00518,-15.99554z" fill="#6b4b3c" stroke="#6b4b3c"/><path d="M178.14728,222.76667c0.00008,0 122.9774,-0.00132 122.97749,-0.00132c0.02969,1.58095 0.01291,3.16322 0.00773,4.74409c-8.02943,0.01785 -105.5792,0.01809 -122.99944,0.00255c0.01686,-1.58219 -0.0116,-3.16437 0.01423,-4.74532z" fill="#1c365b" stroke="#1c365b"/><path d="M175.09402,227.50171c2.16156,0.02755 127.24977,0.03577 128.97292,-0.00518c0.06719,1.23317 0.02845,2.47291 0.01941,3.70994c-42.99961,-0.00773 -86.00045,-0.00773 -129.00129,-0.00132c0.01801,-1.2344 -0.00008,-2.46896 0.00896,-3.70344z" fill="#7fa2ca" stroke="#7fa2ca"/><path d="M172.18804,231.2091c1.89551,-0.01012 133.74505,-0.01406 135.34064,0.00387c0.00132,1.36244 -0.00518,2.72629 0.00132,4.09005c-45.1105,0.00518 -90.22232,0.00905 -135.33414,-0.00132c-0.04013,-1.36376 -0.02591,-2.72884 -0.00781,-4.0926z" fill="#1c365b" stroke="#1c365b"/><path d="M169.58075,235.3017c0.00008,0 139.95282,0 139.9529,0c0.00255,1.13242 0.00518,2.26476 -0.00132,3.39842c-46.65009,0.00518 -93.30018,0.00518 -139.95027,0c-0.0065,-1.13366 -0.00518,-2.266 -0.00132,-3.39842z" fill="#ffffff" stroke="#ffffff"/></g></g></svg>