<?xml version="1.0" encoding="UTF-8" standalone="no"?>
<svg
   version="1.1"
   id="Layer_1"
   x="0px"
   y="0px"
   viewBox="0 0 140 131.62636"
   enable-background="new 0 0 1728.098 1624.684"
   xml:space="preserve"
   sodipodi:docname="1550876644.svg"
   width="140"
   height="131.62636"
   inkscape:version="1.2.2 (732a01da63, 2022-12-09)"
   xmlns:inkscape="http://www.inkscape.org/namespaces/inkscape"
   xmlns:sodipodi="http://sodipodi.sourceforge.net/DTD/sodipodi-0.dtd"
   xmlns="http://www.w3.org/2000/svg"
   xmlns:svg="http://www.w3.org/2000/svg"><defs
   id="defs1920" /><sodipodi:namedview
   id="namedview1918"
   pagecolor="#ffffff"
   bordercolor="#000000"
   borderopacity="0.25"
   inkscape:showpageshadow="2"
   inkscape:pageopacity="0.0"
   inkscape:pagecheckerboard="0"
   inkscape:deskcolor="#d1d1d1"
   showgrid="false"
   inkscape:zoom="0.51517712"
   inkscape:cx="850.19304"
   inkscape:cy="801.66604"
   inkscape:window-width="1920"
   inkscape:window-height="1017"
   inkscape:window-x="1912"
   inkscape:window-y="-8"
   inkscape:window-maximized="1"
   inkscape:current-layer="Layer_1" />
<g
   id="g1915"
   transform="matrix(0.08223845,0,0,0.08223845,-1.0580593,-0.99122885)">
	<path
   fill="#1c365b"
   stroke="#1c365b"
   stroke-width="0.5"
   d="m 849.889,12.349 c 1.041,0.666 812.517,519.878 817.998,524.311 -17.872,0.157 -35.76,0.267 -53.601,-0.031 C 1613.283,535.981 867.746,54.519 849.999,43.52 839.866,49.996 98.395,529.861 89.972,536.738 64.995,536.769 40.018,536.879 15.041,536.675 83.274,493.483 756.241,71.025 849.889,12.349 Z"
   id="path1827" />
	<path
   fill="#6580a4"
   stroke="#6580a4"
   stroke-width="0.5"
   d="m 849.999,43.519 c 17.791,11.026 763.274,492.455 764.287,493.109 -21.178,0.733 -58.589,-0.119 -59.699,-0.126 -10.052,-7.183 -689.323,-436.9 -704.871,-446.205 -11.638,6.35 -696.19,441.507 -702.702,446.268 -8.597,0.653 -51.107,0.228 -57.043,0.173 8.274,-6.754 747.772,-485.385 760.028,-493.219 z"
   id="path1829" />
	<path
   fill="#7fa2ca"
   stroke="#7fa2ca"
   stroke-width="0.5"
   d="m 800.203,121.106 c 16.583,-10.139 32.459,-21.503 49.514,-30.809 12.398,7.42 693.525,438.097 704.871,446.205 -219.127,0.206 -1320.82,0.144 -1407.573,0.063 8.15,-5.959 -42.277,26.499 653.188,-415.459 m 56.037,34.015 c -0.189,8.85 0.126,17.715 -0.141,26.564 -69.898,6.075 -77.922,66.921 -57.515,96.953 13.597,18.485 36.672,25.496 57.593,32.113 0.031,35.791 0.031,71.583 0,107.374 -13.487,-0.833 -26.454,-6.916 -36.153,-16.237 -9.305,-8.692 -14.681,-20.623 -17.495,-32.868 -6.35,-0.252 -12.701,-0.252 -19.051,-0.094 2.495,35.755 30.612,64.774 72.479,66.616 0.566,11.805 0.016,23.609 0.299,35.43 5.832,0.141 11.695,0.141 17.542,0.016 0.534,-11.82 0.079,-23.641 0.157,-35.461 19.224,-1.273 39.344,-6.759 53.333,-20.701 22.605,-21.841 24.022,-68.504 1.729,-90.476 -14.823,-14.964 -35.163,-22.541 -54.937,-28.466 -0.173,-32.129 0.031,-64.273 -0.094,-96.418 23.05,3.869 38.078,14.099 45.647,40.224 6.649,0.582 13.329,0.503 19.994,0.157 -2.169,-19.538 -13.659,-38.008 -31.076,-47.455 -10.547,-6.303 -22.745,-8.268 -34.581,-10.642 -0.063,-8.881 0.283,-17.762 -0.157,-26.643 -5.863,-0.159 -11.726,-0.159 -17.573,0.014 z"
   id="path1831" />
	<path
   fill="#1c365b"
   stroke="#1c365b"
   stroke-width="0.5"
   d="m 856.24,155.121 c 5.847,-0.173 11.71,-0.173 17.573,-0.016 0.44,8.881 0.094,17.762 0.157,26.643 11.836,2.374 24.034,4.338 34.581,10.642 17.416,9.447 28.907,27.916 31.076,47.455 -6.665,0.346 -13.345,0.424 -19.994,-0.157 -7.542,-26.033 -22.542,-36.345 -45.647,-40.224 0.126,32.145 -0.079,64.289 0.094,96.418 19.774,5.926 40.114,13.502 54.937,28.466 22.296,21.975 20.874,68.638 -1.729,90.476 -13.99,13.942 -34.109,19.428 -53.333,20.701 -0.079,11.82 0.377,23.641 -0.157,35.461 -5.847,0.126 -11.71,0.126 -17.542,-0.016 -0.283,-11.82 0.267,-23.625 -0.299,-35.43 -41.675,-1.833 -69.971,-30.69 -72.479,-66.616 6.35,-0.157 12.701,-0.157 19.051,0.094 2.814,12.245 8.189,24.175 17.495,32.868 9.698,9.321 22.666,15.404 36.153,16.237 0.031,-35.791 0.031,-71.583 0,-107.374 -20.922,-6.618 -43.996,-13.628 -57.593,-32.113 -20.369,-29.975 -12.456,-90.871 57.515,-96.953 0.266,-8.847 -0.048,-17.712 0.141,-26.562 m -39.58,62.607 c -9.588,14.854 -10.091,35.949 0.236,50.567 9.573,12.182 24.725,18.202 39.171,22.383 0.22,-30.573 0.173,-61.13 0.047,-91.703 -14.823,0.787 -30.824,5.848 -39.454,18.753 m 57.326,97.928 c 0.225,101.173 -0.474,96.456 0.55,102.768 10.437,-1.132 21.079,-3.285 30.117,-8.928 24.283,-14.523 23.804,-53.453 9.557,-70.482 -10.248,-12.167 -25.448,-18.564 -40.224,-23.358 z"
   id="path1833" />
	<path
   fill="#7fa2ca"
   stroke="#7fa2ca"
   stroke-width="0.5"
   d="m 856.114,198.976 c 0.126,30.573 0.173,61.13 -0.047,91.703 -14.445,-4.181 -29.598,-10.201 -39.171,-22.383 -14.812,-20.968 -11.206,-66.646 39.218,-69.32 z"
   id="path1835" />
	<path
   fill="#7fa2ca"
   stroke="#7fa2ca"
   stroke-width="0.5"
   d="m 873.986,315.656 c 36.089,11.71 55.174,28.902 48.854,66.427 -1.949,11.129 -8.41,21.566 -18.186,27.413 -9.038,5.643 -19.68,7.796 -30.117,8.928 -1.023,-6.298 -0.325,-1.517 -0.551,-102.768 z"
   id="path1837" />
	<path
   fill="#1c365b"
   stroke="#1c365b"
   stroke-width="0.5"
   d="m 145.773,536.66 c 0.444,-0.034 1410.575,-0.133 1423.59,0.157 -0.456,8.897 -0.283,17.809 -0.126,26.722 -6.105,0.408 -1418.346,0.344 -1423.134,0.11 -0.063,-9.007 0.346,-18.014 -0.33,-26.989 z"
   id="path1839" />
	<path
   fill="#6580a4"
   stroke="#6580a4"
   stroke-width="0.5"
   d="m 172.133,563.869 c 455.353,-0.141 910.722,-0.11 1366.075,-0.016 -0.283,11.475 -0.094,22.965 -0.157,34.455 -455.337,-0.016 -910.675,0.11 -1366.028,-0.063 -0.078,-11.459 -0.251,-22.918 0.11,-34.376 z"
   id="path1841" />
	<path
   fill="#7fa2ca"
   stroke="#7fa2ca"
   stroke-width="0.5"
   d="m 172.023,598.245 c 455.353,0.173 910.691,0.047 1366.028,0.063 0.079,11.49 -0.047,22.965 0.079,34.455 -239.755,0.262 -1298.568,0.152 -1365.965,0 -0.315,-11.506 -0.063,-23.012 -0.142,-34.518 z"
   id="path1843" />
	<path
   fill="#1c365b"
   stroke="#1c365b"
   stroke-width="0.5"
   d="m 146.119,632.921 c 1.001,-0.06 1420.14,-0.082 1423.103,0.189 -0.173,8.771 -0.173,17.573 0.016,26.36 -8.221,0.77 -16.473,0.299 -24.694,0.44 -0.409,14.461 0.047,28.922 -0.204,43.383 -7.765,0.016 -15.53,-0.126 -23.295,0.11 -0.069,56.418 -0.256,605.88 0.063,634.043 7.734,0.251 15.483,0.094 23.232,0.11 0.173,14.524 -0.031,29.064 0.094,43.604 -67.056,0.314 -134.111,-0.11 -201.183,-0.11 -0.55,-14.492 -0.66,-29.048 0.22,-43.525 6.68,0.094 13.377,0.047 20.073,-0.236 -0.031,-211.227 -0.031,-422.47 0,-633.697 -6.791,-0.314 -13.581,-0.362 -20.356,-0.236 -0.833,-14.445 -0.141,-28.922 -0.251,-43.383 -14.917,-0.472 -29.834,-0.33 -44.735,-0.094 -0.33,14.477 0.393,28.985 -0.299,43.478 -7.702,-0.126 -15.42,-0.204 -23.091,0.362 0.078,211.133 0.078,422.281 0,633.43 7.671,0.566 15.373,0.472 23.075,0.362 0.424,10.678 0.547,37.447 -0.204,43.336 -66.977,0.723 -134.001,-0.031 -200.994,0.362 0.11,-14.556 -0.283,-29.111 0.157,-43.667 6.743,0.079 13.502,0.016 20.246,-0.157 0.142,-211.29 0.142,-422.611 0,-633.901 -6.759,-0.189 -13.502,-0.236 -20.261,-0.157 -0.472,-14.508 0.126,-29.017 -0.251,-43.525 -31.034,-0.07 -420.578,-0.219 -474.121,0.141 -0.22,14.461 0.519,28.954 -0.283,43.415 -7.749,-0.126 -15.499,-0.22 -23.216,0.393 0.126,211.117 0.126,422.234 0,633.351 7.639,0.645 15.31,0.487 22.965,0.409 0.77,14.508 0.676,29.048 0.204,43.556 -67.103,0.189 -134.221,-0.094 -201.34,0.142 0.141,-14.556 -0.236,-29.111 0.189,-43.651 6.775,0.063 13.534,0 20.309,-0.173 0.23,-112.977 0.212,-609.572 0,-633.901 -6.775,-0.189 -13.549,-0.236 -20.309,-0.157 -0.487,-14.508 0.126,-29.032 -0.267,-43.541 -17.338,-0.126 -34.675,-0.11 -52.013,0 -0.613,14.493 0.016,29.001 -0.236,43.493 -7.734,0 -15.483,-0.047 -23.216,0.204 -0.235,106.779 -0.234,604.084 -0.016,633.901 7.749,0.236 15.499,0.204 23.232,0.189 0.204,14.54 -0.283,29.079 0.236,43.619 -67.386,-0.33 -134.756,0.346 -202.142,-0.031 0.377,-14.508 0.141,-29.032 0.126,-43.541 6.979,-0.157 14.005,0.314 20.953,-0.503 -0.189,-211.133 -0.173,-422.265 0,-633.382 -6.963,-0.786 -13.974,-0.362 -20.953,-0.503 -0.031,-14.445 0.33,-28.907 -0.141,-43.352 -6.822,0.031 -13.628,0.141 -20.434,-0.267 0.028,-8.899 0.028,-17.796 0.012,-26.692 m 61.35,70.875 c 0.126,211.086 0.11,422.187 0,633.272 6.067,0.755 12.198,0.739 18.296,0.236 0.11,-211.243 0.079,-422.501 0.016,-633.744 -6.099,-0.503 -12.245,-0.519 -18.312,0.236 m 38.62,-0.267 c -0.458,31.367 -0.31,595.322 0,633.807 13.534,0.283 27.115,0.692 40.633,-0.236 -0.126,-211.117 -0.094,-422.218 0,-633.335 -13.518,-0.928 -27.099,-0.519 -40.633,-0.236 m 60.423,0.298 c 0.126,211.054 0.11,422.124 0.016,633.178 6.083,0.833 12.229,0.786 18.359,0.299 0.126,-211.243 0.126,-422.501 -0.016,-633.744 -6.114,-0.503 -12.276,-0.519 -18.359,0.267 m 155.19,-0.267 c -0.079,211.258 -0.079,422.501 0,633.76 6.115,0.487 12.26,0.519 18.344,-0.314 -0.142,-211.054 -0.142,-422.108 0,-633.162 -6.084,-0.818 -12.229,-0.787 -18.344,-0.284 m 38.102,0.189 c 0.126,211.133 0.126,422.25 0.016,633.367 13.518,0.88 27.099,0.503 40.648,0.22 0.397,-30.416 0.283,-596.839 0,-633.807 -13.549,-0.299 -27.13,-0.676 -40.664,0.22 m 60.957,-0.173 c -0.063,211.243 -0.063,422.486 0,633.744 6.115,0.472 12.261,0.472 18.375,-0.189 -0.141,-211.133 -0.126,-422.265 -0.016,-633.398 -6.099,-0.66 -12.245,-0.676 -18.359,-0.157 m 576.78,-0.032 c -0.186,56.062 -0.179,561.289 0,633.775 6.115,0.487 12.292,0.519 18.391,-0.346 -0.189,-211.038 -0.189,-422.077 -0.016,-633.1 -6.099,-0.847 -12.261,-0.832 -18.375,-0.329 m 38.086,0.11 c 0.126,211.18 0.11,422.375 0,633.555 13.534,0.676 27.115,0.456 40.648,0.126 0.253,-33.203 0.429,-520.64 0,-633.791 -13.549,-0.377 -27.13,-0.566 -40.648,0.11 m 61.004,-0.094 c -0.11,211.243 -0.11,422.517 0,633.76 6.099,0.487 12.26,0.487 18.359,-0.236 -0.11,-211.101 -0.11,-422.203 0,-633.288 -6.099,-0.739 -12.26,-0.739 -18.359,-0.236 m 147.362,0 c -0.558,20.439 -0.232,604.311 0,633.744 5.879,0.424 11.789,0.44 17.683,0.031 0.215,-12.104 0.152,-523.04 0,-633.807 -5.894,-0.424 -11.804,-0.408 -17.683,0.032 m 38.086,-0.031 c -0.126,211.258 -0.11,422.533 0,633.791 13.502,0.377 27.052,0.535 40.554,-0.094 -0.063,-211.196 -0.094,-422.407 0.016,-633.603 -13.502,-0.613 -27.052,-0.472 -40.57,-0.094 m 61.036,0.015 c -0.526,28.139 -0.297,599.593 -0.016,633.775 5.879,0.424 11.789,0.424 17.683,0 0.407,-20.372 0.275,-532.951 0,-633.775 -5.894,-0.44 -11.788,-0.44 -17.667,0 z"
   id="path1845" />
	<path
   fill="#7fa2ca"
   stroke="#7fa2ca"
   stroke-width="0.5"
   d="m 368.695,659.784 c 17.338,-0.11 34.675,-0.126 52.013,0 0.393,14.508 -0.22,29.032 0.267,43.541 6.759,-0.079 13.534,-0.031 20.309,0.157 0.198,22.665 0.25,511.304 0,633.901 -6.775,0.173 -13.534,0.236 -20.309,0.173 -0.424,14.54 -0.047,29.095 -0.189,43.651 -17.369,-0.063 -34.722,-0.047 -52.092,-0.016 -0.519,-14.54 -0.031,-29.079 -0.236,-43.619 -7.734,0.016 -15.483,0.047 -23.232,-0.189 -0.169,-23.082 -0.273,-502.98 0.016,-633.901 7.734,-0.251 15.483,-0.204 23.216,-0.204 0.253,-14.493 -0.376,-29.002 0.237,-43.494 z"
   id="path1847" />
	<path
   fill="#7fa2ca"
   stroke="#7fa2ca"
   stroke-width="0.5"
   d="m 622.456,659.941 c 53.457,-0.36 441.622,-0.215 474.121,-0.141 0.377,14.508 -0.22,29.017 0.251,43.525 6.759,-0.079 13.502,-0.031 20.261,0.157 0.142,211.29 0.142,422.611 0,633.901 -6.743,0.173 -13.502,0.236 -20.246,0.157 -0.44,14.556 -0.047,29.111 -0.157,43.667 -23.452,-0.252 -46.92,0.33 -70.372,-0.299 0.047,-198.825 -0.11,-397.65 0.094,-596.459 4.637,-0.173 9.274,-0.409 13.927,-0.597 0.283,-7.844 0.251,-15.703 0.927,-23.515 2.814,-0.063 5.627,-0.11 8.457,-0.157 0.424,-8.268 0.456,-16.552 -0.047,-24.82 -131.125,-0.031 -262.234,-0.016 -393.343,0 -0.55,8.268 -0.534,16.552 -0.063,24.835 2.798,0.063 5.58,0.126 8.394,0.189 0.11,7.781 0.079,15.561 0.204,23.358 4.967,0.283 9.934,0.519 14.917,0.676 0.364,133.737 0.173,585.954 0.11,596.57 -18.847,0.377 -37.709,0.173 -56.556,0.141 -0.802,-14.54 -0.236,-29.095 -0.094,-43.619 -6.33,0 -15.434,0.338 -24.285,-0.409 0.126,-211.117 0.126,-422.234 0,-633.351 7.718,-0.613 15.467,-0.519 23.216,-0.393 0.803,-14.462 0.064,-28.955 0.284,-43.416 z"
   id="path1849" />
	<path
   fill="#7fa2ca"
   stroke="#7fa2ca"
   stroke-width="0.5"
   d="m 1298.201,659.878 c 14.901,-0.236 29.818,-0.377 44.735,0.094 0.11,14.461 -0.582,28.938 0.251,43.383 6.775,-0.126 13.565,-0.079 20.356,0.236 -0.031,211.227 -0.031,422.47 0,633.697 -8.358,0.353 -15.129,0.295 -21.377,0.22 0.157,14.524 0.707,29.079 -0.078,43.603 -14.037,0.063 -28.073,0.299 -42.11,-0.126 -0.487,-0.77 -1.462,-2.295 -1.949,-3.049 0.173,-13.471 0.393,-26.958 -0.141,-40.428 -7.702,0.11 -15.404,0.204 -23.075,-0.362 0.078,-211.148 0.078,-422.297 0,-633.43 7.671,-0.566 15.388,-0.487 23.091,-0.362 0.69,-14.491 -0.033,-28.999 0.297,-43.476 z"
   id="path1851" />
	<path
   fill="#6580a4"
   stroke="#6580a4"
   stroke-width="0.5"
   d="m 207.469,703.796 c 6.067,-0.755 12.213,-0.739 18.312,-0.236 0.063,211.243 0.094,422.501 -0.016,633.744 -6.099,0.503 -12.229,0.519 -18.296,-0.236 0.11,-211.085 0.125,-422.187 0,-633.272 z"
   id="path1853" />
	<path
   fill="#6580a4"
   stroke="#6580a4"
   stroke-width="0.5"
   d="m 246.089,703.529 c 13.534,-0.283 27.115,-0.692 40.633,0.236 -0.094,211.117 -0.126,422.218 0,633.335 -13.518,0.927 -27.099,0.519 -40.633,0.236 -0.299,-37.163 -0.467,-601.817 0,-633.807 z"
   id="path1855" />
	<path
   fill="#6580a4"
   stroke="#6580a4"
   stroke-width="0.5"
   d="m 306.512,703.827 c 6.083,-0.786 12.245,-0.77 18.359,-0.267 0.141,211.243 0.141,422.501 0.016,633.744 -6.13,0.487 -12.276,0.534 -18.359,-0.299 0.094,-211.054 0.11,-422.124 -0.016,-633.178 z"
   id="path1857" />
	<path
   fill="#6580a4"
   stroke="#6580a4"
   stroke-width="0.5"
   d="m 461.702,703.56 c 6.115,-0.503 12.26,-0.534 18.344,0.283 -0.142,211.054 -0.142,422.108 0,633.162 -6.083,0.833 -12.229,0.802 -18.344,0.314 -0.079,-211.258 -0.079,-422.5 0,-633.759 z"
   id="path1859" />
	<path
   fill="#6580a4"
   stroke="#6580a4"
   stroke-width="0.5"
   d="m 499.804,703.749 c 13.534,-0.896 27.115,-0.519 40.664,-0.22 0.263,34.4 0.412,602.223 0,633.807 -13.549,0.283 -27.13,0.66 -40.648,-0.22 0.11,-211.118 0.11,-422.235 -0.016,-633.367 z"
   id="path1861" />
	<path
   fill="#6580a4"
   stroke="#6580a4"
   stroke-width="0.5"
   d="m 560.761,703.576 c 6.115,-0.519 12.261,-0.503 18.359,0.157 -0.11,211.133 -0.126,422.265 0.016,633.398 -6.115,0.66 -12.261,0.66 -18.375,0.189 -0.063,-211.259 -0.063,-422.501 0,-633.744 z"
   id="path1863" />
	<path
   fill="#6580a4"
   stroke="#6580a4"
   stroke-width="0.5"
   d="m 1137.541,703.544 c 6.115,-0.503 12.276,-0.519 18.375,0.33 -0.173,211.023 -0.173,422.061 0.016,633.1 -6.099,0.865 -12.276,0.833 -18.391,0.346 -0.188,-75.882 -0.182,-579.015 0,-633.776 z"
   id="path1865" />
	<path
   fill="#6580a4"
   stroke="#6580a4"
   stroke-width="0.5"
   d="m 1175.627,703.654 c 13.518,-0.676 27.099,-0.487 40.648,-0.11 0.45,118.794 0.237,602.571 0,633.791 -13.534,0.33 -27.115,0.55 -40.648,-0.126 0.11,-211.179 0.125,-422.375 0,-633.555 z"
   id="path1867" />
	<path
   fill="#6580a4"
   stroke="#6580a4"
   stroke-width="0.5"
   d="m 1236.631,703.56 c 6.099,-0.503 12.26,-0.503 18.359,0.236 -0.11,211.086 -0.11,422.187 0,633.288 -6.099,0.723 -12.261,0.723 -18.359,0.236 -0.11,-211.243 -0.11,-422.517 0,-633.76 z"
   id="path1869" />
	<path
   fill="#6580a4"
   stroke="#6580a4"
   stroke-width="0.5"
   d="m 1383.993,703.56 c 5.879,-0.44 11.789,-0.456 17.683,-0.031 0.156,113.533 0.208,622.102 0,633.807 -5.895,0.409 -11.805,0.393 -17.683,-0.031 -0.198,-25.149 -0.571,-612.833 0,-633.745 z"
   id="path1871" />
	<path
   fill="#6580a4"
   stroke="#6580a4"
   stroke-width="0.5"
   d="m 1422.079,703.529 c 13.518,-0.377 27.068,-0.519 40.57,0.094 -0.11,211.196 -0.079,422.407 -0.016,633.603 -13.502,0.629 -27.052,0.472 -40.554,0.094 -0.11,-211.259 -0.126,-422.533 0,-633.791 z"
   id="path1873" />
	<path
   fill="#6580a4"
   stroke="#6580a4"
   stroke-width="0.5"
   d="m 1483.115,703.544 c 5.879,-0.44 11.773,-0.44 17.668,0 0.27,98.962 0.407,613.392 0,633.775 -5.894,0.424 -11.805,0.424 -17.683,0 -0.272,-32.934 -0.52,-605.158 0.015,-633.775 z"
   id="path1875" />
	<path
   fill="#1c365b"
   stroke="#1c365b"
   stroke-width="0.5"
   d="m 656.33,735.359 c 131.109,-0.016 262.218,-0.031 393.343,0 0.503,8.268 0.472,16.552 0.047,24.82 -14.362,0.239 -384.208,0.223 -393.453,0.016 -0.471,-8.284 -0.487,-16.568 0.063,-24.836 z"
   id="path1877" />
	<path
   fill="#6580a4"
   stroke="#6580a4"
   stroke-width="0.5"
   d="m 664.661,760.383 c 125.529,-0.126 251.074,-0.016 376.603,-0.047 -0.676,7.812 -0.644,15.671 -0.927,23.515 -4.653,0.189 -9.29,0.424 -13.927,0.597 -0.204,198.809 -0.047,397.634 -0.094,596.459 17.152,0.46 236.053,0.318 271.367,-0.063 0.094,-0.739 0.267,-2.185 0.346,-2.908 0.487,0.754 1.462,2.279 1.949,3.049 14.037,0.424 28.073,0.189 42.11,0.126 0.786,-14.524 0.236,-29.079 0.078,-43.603 l 1.305,0.016 c -0.88,14.477 -0.77,29.032 -0.22,43.525 1,0 227.374,0.177 230.671,0.362 -0.126,12.355 -0.299,24.725 0.094,37.08 -522.088,0.689 -1429.129,-0.016 -1430.129,-0.016 -0.409,-12.402 -0.22,-24.835 -0.11,-37.237 0,0 447.851,-0.087 478.35,-0.173 0.472,-14.508 0.566,-29.048 -0.204,-43.556 h 1.32 c -0.141,14.524 -0.707,29.079 0.094,43.619 18.847,0.031 37.709,0.236 56.556,-0.141 0.064,-10.728 0.254,-462.931 -0.11,-596.57 -4.983,-0.157 -9.95,-0.393 -14.917,-0.676 -0.126,-7.797 -0.095,-15.577 -0.205,-23.358 m 39.485,33.088 c 0.11,195.823 0.141,391.661 0,587.484 31.436,0.462 276.951,0.271 296.721,0.189 0.4,-30.805 0.256,-507.764 0.016,-587.846 -11.917,-0.112 -244.512,-0.294 -296.737,0.173 z"
   id="path1879" />
	<path
   fill="#74584d"
   stroke="#74584d"
   stroke-width="0.5"
   d="m 704.146,793.471 c 56.563,-0.505 290.243,-0.234 296.736,-0.173 0.305,101.725 0.314,562.455 -0.016,587.846 -21.289,0.089 -265.05,0.277 -296.721,-0.189 0.143,-195.823 0.111,-391.662 10e-4,-587.484 m 26.408,32.773 c -0.141,43.525 -0.126,87.066 -0.016,130.59 10.836,0.431 96.017,0.412 106.808,0.031 0.251,-43.556 0.283,-87.113 0,-130.669 -12.849,-0.375 -98.185,-0.359 -106.792,0.048 m 130.433,-0.031 c -0.126,43.541 -0.141,87.081 0,130.622 10.335,0.451 95.663,0.403 106.761,0.016 0.126,-43.541 0.141,-87.097 -0.016,-130.622 -10.601,-0.394 -96.136,-0.401 -106.745,-0.016 M 730.585,982.031 c -0.189,46.543 -0.22,93.086 0.016,139.613 35.556,0.189 71.127,0.126 106.682,0.031 0.393,-46.543 0.346,-93.117 0.031,-139.66 -35.571,-0.157 -71.158,-0.219 -106.729,0.016 m 130.449,-0.015 c -0.189,46.543 -0.236,93.101 0.016,139.629 35.54,0.157 71.095,0.157 106.635,0.016 0.252,-46.543 0.22,-93.101 0.016,-139.644 -35.556,-0.19 -71.127,-0.19 -106.667,-0.001 m -130.48,153.869 c -0.031,73.768 -0.346,147.567 0.157,221.318 35.493,0.031 70.985,-0.047 106.478,0.047 0.47,-18.246 0.373,-195.603 0.157,-221.397 -35.587,-0.392 -71.205,-0.455 -106.792,0.032 m 130.433,0 c -0.031,73.768 -0.346,147.567 0.157,221.334 35.477,0.016 70.97,-0.063 106.447,0.031 0.48,-9.781 0.19,-208.437 0.142,-221.365 -12.074,-0.4 -97.273,-0.399 -106.746,0 z"
   id="path1881" />
	<path
   fill="#593929"
   stroke="#593929"
   stroke-width="0.5"
   d="m 730.554,826.244 c 8.605,-0.407 93.957,-0.423 106.792,-0.047 0.283,43.556 0.251,87.113 0,130.669 -10.801,0.381 -95.978,0.399 -106.808,-0.031 -0.11,-43.525 -0.126,-87.066 0.016,-130.591 m 8.016,7.954 c -0.314,38.212 -0.299,76.44 0,114.652 9.515,0.597 81.905,0.487 90.759,0.031 0.474,-7.102 0.58,-96.43 0.031,-114.715 -9.269,-0.537 -81.279,-0.497 -90.79,0.032 z"
   id="path1883" />
	<path
   fill="#593929"
   stroke="#593929"
   stroke-width="0.5"
   d="m 860.987,826.213 c 10.6,-0.384 96.139,-0.378 106.745,0.016 0.157,43.525 0.141,87.081 0.016,130.622 -11.094,0.387 -96.393,0.437 -106.761,-0.016 -0.142,-43.541 -0.126,-87.082 0,-130.622 m 8.032,7.985 c -0.44,38.212 -0.409,76.471 -0.016,114.683 8.271,0.5 80.944,0.486 90.728,0.016 0.388,-14.972 0.352,-106.421 0,-114.715 -9.531,-0.575 -81.415,-0.492 -90.712,0.016 z"
   id="path1885" />
	<path
   fill="#6b4b3c"
   stroke="#6b4b3c"
   stroke-width="0.5"
   d="m 738.57,834.198 c 9.503,-0.528 81.518,-0.569 90.791,-0.031 0.468,15.602 0.492,106.863 -0.031,114.715 -8.854,0.456 -81.227,0.566 -90.759,-0.031 -0.3,-38.214 -0.315,-76.441 -10e-4,-114.653 z"
   id="path1887" />
	<path
   fill="#6b4b3c"
   stroke="#6b4b3c"
   stroke-width="0.5"
   d="m 869.019,834.198 c 9.327,-0.509 81.17,-0.591 90.712,-0.016 0.365,8.59 0.379,100.079 0,114.715 -9.798,0.471 -82.433,0.486 -90.728,-0.016 -0.393,-38.212 -0.424,-76.471 0.016,-114.683 z"
   id="path1889" />
	<path
   fill="#593929"
   stroke="#593929"
   stroke-width="0.5"
   d="m 730.585,982.031 c 35.571,-0.236 71.158,-0.173 106.73,-0.016 0.314,46.543 0.362,93.117 -0.031,139.66 -35.556,0.094 -71.127,0.157 -106.682,-0.031 -0.237,-46.527 -0.206,-93.07 -0.017,-139.613 m 8.362,8.41 c -0.731,4.898 -0.672,-1.81 -0.55,99.923 0.079,7.624 -0.55,15.294 0.566,22.886 27.555,0.849 55.141,-0.016 82.711,0.424 2.531,-0.456 7.608,0.833 7.765,-3.002 0.267,-5.433 0.567,-101.438 -0.204,-120.515 -30.085,0.064 -60.218,-0.502 -90.288,0.284 z"
   id="path1891" />
	<path
   fill="#593929"
   stroke="#593929"
   stroke-width="0.5"
   d="m 861.034,982.016 c 35.54,-0.189 71.111,-0.189 106.667,0 0.204,46.543 0.236,93.101 -0.016,139.644 -35.54,0.141 -71.095,0.141 -106.635,-0.016 -0.252,-46.527 -0.205,-93.085 -0.016,-139.628 m 8.378,8.409 c -0.896,5.502 -0.786,11.082 -0.66,16.63 0.11,34.062 -0.11,68.14 0.079,102.203 -0.833,5.596 5.832,4.071 9.321,4.417 27.052,-0.44 54.119,0.424 81.155,-0.424 1.195,-7.058 0.629,-14.21 0.676,-21.314 0,-102.088 0.285,-95.667 -0.676,-101.495 -9.221,-0.553 -81.049,-0.469 -89.895,-0.017 z"
   id="path1893" />
	<path
   fill="#6b4b3c"
   stroke="#6b4b3c"
   stroke-width="0.5"
   d="m 738.947,990.441 c 30.07,-0.786 60.202,-0.22 90.288,-0.283 0.766,18.936 0.458,115.356 0.204,120.515 -0.157,3.835 -5.234,2.546 -7.765,3.002 -27.57,-0.44 -55.157,0.424 -82.711,-0.424 -0.842,-5.727 -0.566,0.616 -0.566,-101.479 0.016,-7.121 -0.503,-14.273 0.55,-21.331 z"
   id="path1895" />
	<path
   fill="#6b4b3c"
   stroke="#6b4b3c"
   stroke-width="0.5"
   d="m 869.412,990.425 c 8.875,-0.453 80.671,-0.536 89.895,0.016 0.953,5.779 0.676,-0.758 0.676,101.495 -0.047,7.105 0.519,14.257 -0.676,21.314 -27.036,0.849 -54.104,-0.016 -81.155,0.424 -3.49,-0.346 -10.154,1.179 -9.321,-4.417 -0.189,-34.062 0.031,-68.14 -0.079,-102.203 -0.126,-5.547 -0.236,-11.127 0.66,-16.629 z"
   id="path1897" />
	<path
   fill="#593929"
   stroke="#593929"
   stroke-width="0.5"
   d="m 730.554,1135.885 c 35.587,-0.487 71.205,-0.424 106.792,-0.031 0.202,24.19 0.31,203.242 -0.157,221.397 -35.493,-0.094 -70.985,-0.016 -106.478,-0.047 -0.503,-73.752 -0.189,-147.551 -0.157,-221.319 m 8,12.937 c -0.267,64.824 -0.283,129.679 0,194.502 7.197,0.444 79.451,0.475 90.854,0.031 0.452,-9.667 0.462,-155.937 -0.063,-194.534 -30.258,-0.251 -60.532,-0.235 -90.791,10e-4 z"
   id="path1899" />
	<path
   fill="#593929"
   stroke="#593929"
   stroke-width="0.5"
   d="m 860.987,1135.885 c 9.468,-0.399 94.673,-0.401 106.745,0 0.045,12.087 0.336,211.63 -0.142,221.365 -35.477,-0.094 -70.97,-0.016 -106.447,-0.031 -0.502,-73.767 -0.188,-147.566 -0.156,-221.334 m 8.032,12.968 c -0.397,15.139 -0.321,171.333 -0.063,194.502 30.243,0.487 60.548,0.487 90.791,0 0.503,-11.563 0.331,-161.596 -0.047,-194.502 -30.211,-0.298 -60.454,-0.283 -90.681,0 z"
   id="path1901" />
	<path
   fill="#6b4b3c"
   stroke="#6b4b3c"
   stroke-width="0.5"
   d="m 738.554,1148.822 c 30.258,-0.236 60.532,-0.251 90.791,0 0.527,38.75 0.51,184.973 0.063,194.534 -11.375,0.442 -83.634,0.414 -90.854,-0.031 -0.283,-64.824 -0.267,-129.679 0,-194.503 z"
   id="path1903" />
	<path
   fill="#6b4b3c"
   stroke="#6b4b3c"
   stroke-width="0.5"
   d="m 869.019,1148.853 c 30.227,-0.283 60.47,-0.299 90.681,0 0.432,37.541 0.464,184.912 0.047,194.502 -30.243,0.487 -60.548,0.487 -90.791,0 -0.215,-19.297 -0.351,-178.731 0.063,-194.502 z"
   id="path1905" />
	<path
   fill="#1c365b"
   stroke="#1c365b"
   stroke-width="0.5"
   d="m 117.322,1418.554 c 10e-4,0 1495.376,-0.016 1495.377,-0.016 0.361,19.224 0.157,38.464 0.094,57.687 -97.636,0.217 -1283.818,0.22 -1495.644,0.031 0.205,-19.239 -0.141,-38.478 0.173,-57.702 z"
   id="path1907" />
	<path
   fill="#7fa2ca"
   stroke="#7fa2ca"
   stroke-width="0.5"
   d="m 80.195,1476.131 c 26.284,0.335 1547.327,0.435 1568.28,-0.063 0.817,14.995 0.346,30.07 0.236,45.112 -522.865,-0.094 -1045.745,-0.094 -1568.625,-0.016 0.219,-15.01 -0.001,-30.022 0.109,-45.033 z"
   id="path1909" />
	<path
   fill="#1c365b"
   stroke="#1c365b"
   stroke-width="0.5"
   d="m 44.859,1521.212 c 23.049,-0.123 1626.308,-0.171 1645.71,0.047 0.016,16.567 -0.063,33.151 0.016,49.734 -548.533,0.063 -1097.082,0.11 -1645.631,-0.016 -0.488,-16.583 -0.315,-33.182 -0.095,-49.765 z"
   id="path1911" />
	<path
   fill="#ffffff"
   stroke="#ffffff"
   stroke-width="0.5"
   d="m 13.155,1570.977 c 0.001,0 1701.793,0 1701.794,0 0.031,13.77 0.063,27.539 -0.016,41.324 -567.254,0.063 -1134.508,0.063 -1701.762,0 -0.079,-13.785 -0.063,-27.554 -0.016,-41.324 z"
   id="path1913" />
</g>
</svg>
