<?xml version="1.0" encoding="UTF-8" standalone="no"?>
<svg
   version="1.1"
   viewBox="0 0 137.64963 140"
   fill="none"
   stroke="none"
   stroke-linecap="square"
   stroke-miterlimit="10"
   id="svg226"
   sodipodi:docname="Red-Bird.svg"
   width="137.64963"
   height="140"
   inkscape:version="1.2.2 (732a01da63, 2022-12-09)"
   xmlns:inkscape="http://www.inkscape.org/namespaces/inkscape"
   xmlns:sodipodi="http://sodipodi.sourceforge.net/DTD/sodipodi-0.dtd"
   xmlns="http://www.w3.org/2000/svg"
   xmlns:svg="http://www.w3.org/2000/svg"
   xmlns:rdf="http://www.w3.org/1999/02/22-rdf-syntax-ns#"
   xmlns:cc="http://creativecommons.org/ns#"
   xmlns:dc="http://purl.org/dc/elements/1.1/">
  <defs
     id="defs230" />
  <sodipodi:namedview
     id="namedview228"
     pagecolor="#ffffff"
     bordercolor="#000000"
     borderopacity="0.25"
     inkscape:showpageshadow="2"
     inkscape:pageopacity="0.0"
     inkscape:pagecheckerboard="0"
     inkscape:deskcolor="#d1d1d1"
     showgrid="false"
     inkscape:zoom="2.7807309"
     inkscape:cx="136.2951"
     inkscape:cy="91.702509"
     inkscape:window-width="1920"
     inkscape:window-height="1017"
     inkscape:window-x="1912"
     inkscape:window-y="-8"
     inkscape:window-maximized="1"
     inkscape:current-layer="g222" />
  <clipPath
     id="p.0">
    <path
       d="M 0,0 H 303 V 301 H 0 Z"
       clip-rule="nonzero"
       id="path199" />
  </clipPath>
  <g
     clip-path="url(#p.0)"
     id="g222"
     transform="translate(-15.184106,-16.673172)">
    <path
       fill="#f1c232"
       d="m 112.32277,104.67917 c 0.21871,0.832 0.30418,23.38576 2.39674,29.0727 2.09255,5.68694 10.18344,4.68873 10.15861,5.04894 -0.0248,0.36022 -8.73459,-3.73704 -10.30765,-2.88767 -1.57306,0.84938 1.27428,8.17345 0.86929,7.98392 -0.40499,-0.18954 -1.12249,-8.54441 -3.29924,-9.12114 -2.17675,-0.57674 -9.93235,5.85428 -9.76125,5.66075 0.17111,-0.19354 8.94988,-4.87585 10.78788,-6.82199 1.838,-1.94613 0.38084,-0.0322 0.24012,-4.85482 -0.14074,-4.82259 -1.3032,-24.91269 -1.0845,-24.08069 z"
       fill-rule="nonzero"
       id="path204"
       style="stroke-width:0.503253" />
    <path
       stroke="#f1c232"
       stroke-width="4.02602"
       stroke-linejoin="round"
       stroke-linecap="butt"
       d="m 112.32277,104.67917 c 0.21871,0.832 0.30418,23.38576 2.39674,29.0727 2.09255,5.68694 10.18344,4.68873 10.15861,5.04894 -0.0248,0.36022 -8.73459,-3.73704 -10.30765,-2.88767 -1.57306,0.84938 1.27428,8.17345 0.86929,7.98392 -0.40499,-0.18954 -1.12249,-8.54441 -3.29924,-9.12114 -2.17675,-0.57674 -9.93235,5.85428 -9.76125,5.66075 0.17111,-0.19354 8.94988,-4.87585 10.78788,-6.82199 1.838,-1.94613 0.38084,-0.0322 0.24012,-4.85482 -0.14074,-4.82259 -1.3032,-24.91269 -1.0845,-24.08069 z"
       fill-rule="nonzero"
       id="path206" />
    <path
       fill="#f35537"
       d="m 45.061727,69.42131 c 9.720625,-1.397661 22.356135,-4.185937 29.661232,-10.997088 7.305093,-6.811151 8.669243,-22.926153 14.169334,-29.869828 5.500098,-6.943675 11.157757,-11.088803 18.831227,-11.792225 7.67348,-0.703422 21.56754,2.8503 27.20964,7.571694 5.64209,4.721393 7.51218,8.912484 6.64293,20.756673 -0.86924,11.844184 -3.62736,37.062315 -11.8584,50.308438 C 121.48665,108.6451 106.74528,121.58214 92.189861,124.56727 77.63444,127.5524 53.973163,121.08577 42.385173,113.30976 30.797186,105.53374 26.992928,85.661117 22.661933,77.911184 18.330937,70.161255 12.665901,68.225156 16.399201,66.810176 c 3.733298,-1.414977 18.941898,4.008789 28.662525,2.611132 z"
       fill-rule="nonzero"
       id="path208"
       style="stroke-width:0.503253" />
    <path
       fill="#f39083"
       d="m 106.99236,78.326196 c 1.24809,-4.449438 -18.535047,-7.870662 -27.18778,-8.156522 -8.652737,-0.285856 -19.640007,4.435033 -24.728629,6.441387 -5.088618,2.006354 -8.676442,2.220876 -5.803094,5.596747 2.873347,3.375879 13.423266,15.305425 23.043184,14.658489 9.619915,-0.646935 33.428229,-14.090662 34.676319,-18.540101 z"
       fill-rule="nonzero"
       id="path210"
       style="stroke-width:0.503253" />
    <path
       fill="#f1c232"
       d="m 124.23568,51.417795 c -1.59146,-1.805924 5.00963,-5.206153 7.55735,-6.539271 2.54772,-1.333115 4.22376,-3.1525 7.72895,-1.459435 3.5052,1.693069 12.99894,9.568688 13.30225,11.617849 0.30329,2.049162 -6.71773,1.280318 -11.48249,0.67713 -4.76475,-0.603192 -15.51461,-2.490349 -17.10606,-4.296273 z"
       fill-rule="nonzero"
       id="path212"
       style="stroke-width:0.503253" />
    <path
       fill="#000000"
       d="m 106.99943,35.734538 v 0 c 0.41266,-5.622911 5.81958,-9.808768 12.07669,-9.349372 v 0 c 6.2571,0.459398 10.99496,5.390085 10.58229,11.012998 v 0 c -0.41266,5.622914 -5.81958,9.808769 -12.07669,9.349371 v 0 c -6.2571,-0.459394 -10.99496,-5.390081 -10.58229,-11.012997 z"
       fill-rule="nonzero"
       id="path214"
       style="stroke-width:0.503253" />
    <path
       fill="#ffffff"
       d="m 116.67278,38.580405 v 0 c 0.1762,-2.400959 2.63558,-4.17724 5.49317,-3.967435 v 0 c 2.8576,0.209805 5.03129,2.326246 4.85509,4.727204 v 0 c -0.17621,2.400959 -2.63559,4.177238 -5.49318,3.967435 v 0 c -2.85759,-0.209806 -5.03129,-2.326247 -4.85508,-4.727204 z"
       fill-rule="nonzero"
       id="path216"
       style="stroke-width:0.503253" />
    <path
       fill="#f1c232"
       d="m 94.893449,113.3896 c -0.208332,0.8764 0.715087,24.59744 -1.381005,30.59151 -2.096099,5.99409 -11.239791,4.99423 -11.195575,5.37293 0.04422,0.3787 9.653495,-3.98434 11.460871,-3.10075 1.807367,0.8836 -1.063508,8.60416 -0.61665,8.40231 0.446866,-0.20184 0.876055,-8.99336 3.29783,-9.61338 2.421782,-0.62004 11.43401,6.09575 11.23285,5.89325 -0.20117,-0.20248 -10.284951,-5.07276 -12.439833,-7.10823 -2.15489,-2.03545 -0.429734,-0.0315 -0.489485,-5.10448 -0.05974,-5.07295 0.339337,-26.20955 0.130997,-25.33316 z"
       fill-rule="nonzero"
       id="path218"
       style="stroke-width:0.503253" />
    <path
       stroke="#f1c232"
       stroke-width="4.02602"
       stroke-linejoin="round"
       stroke-linecap="butt"
       d="m 94.893449,113.3896 c -0.208332,0.8764 0.715087,24.59744 -1.381005,30.59151 -2.096099,5.99409 -11.239791,4.99423 -11.195575,5.37293 0.04422,0.3787 9.653495,-3.98434 11.460871,-3.10075 1.807367,0.8836 -1.063508,8.60416 -0.61665,8.40231 0.446866,-0.20184 0.876055,-8.99336 3.29783,-9.61338 2.421782,-0.62004 11.43401,6.09575 11.23285,5.89325 -0.20117,-0.20248 -10.284951,-5.07276 -12.439833,-7.10823 -2.15489,-2.03545 -0.429734,-0.0315 -0.489485,-5.10448 -0.05974,-5.07295 0.339337,-26.20955 0.130997,-25.33316 z"
       fill-rule="nonzero"
       id="path220" />
  </g>
  <metadata
     id="metadata224">
    <rdf:RDF>
      <cc:Work>
        <dc:format>image/svg+xml</dc:format>
        <dc:type
           rdf:resource="http://purl.org/dc/dcmitype/StillImage" />
        <cc:license
           rdf:resource="http://creativecommons.org/licenses/publicdomain/" />
        <dc:publisher>
          <cc:Agent
             rdf:about="http://openclipart.org/">
            <dc:title>Openclipart</dc:title>
          </cc:Agent>
        </dc:publisher>
        <dc:title>Red Bird</dc:title>
        <dc:date>2014-03-12T18:53:30</dc:date>
        <dc:description>A Red Bird from side view</dc:description>
        <dc:source>https://openclipart.org/detail/191743/red-bird-by-scout-191743</dc:source>
        <dc:creator>
          <cc:Agent>
            <dc:title>Scout</dc:title>
          </cc:Agent>
        </dc:creator>
        <dc:subject>
          <rdf:Bag>
            <rdf:li>animal</rdf:li>
            <rdf:li>animals</rdf:li>
            <rdf:li>bird</rdf:li>
            <rdf:li>birds</rdf:li>
            <rdf:li>cardinal</rdf:li>
            <rdf:li>critter</rdf:li>
            <rdf:li>cute</rdf:li>
            <rdf:li>red bird</rdf:li>
          </rdf:Bag>
        </dc:subject>
      </cc:Work>
      <cc:License
         rdf:about="http://creativecommons.org/licenses/publicdomain/">
        <cc:permits
           rdf:resource="http://creativecommons.org/ns#Reproduction" />
        <cc:permits
           rdf:resource="http://creativecommons.org/ns#Distribution" />
        <cc:permits
           rdf:resource="http://creativecommons.org/ns#DerivativeWorks" />
      </cc:License>
    </rdf:RDF>
  </metadata>
</svg>
