<svg width="140" height="140" viewBox="0 0 179.2 179.2" class="prefix__icon" xmlns="http://www.w3.org/2000/svg"><path d="M11.2 16.8H168v162.4H11.2z" fill="#eaeaea"/><path d="M39.2 123.2h33.6v56H39.2z" fill="#434854"/><path d="M106.4 112H140v39.2h-33.6zm0-84H140v39.2h-33.6zm-67.2 0h33.6v39.2H39.2z" fill="#469fcc"/><path d="M106.4 112H140v5.6h-33.6zm0-84H140v5.6h-33.6zm-67.2 0h33.6v5.6H39.2zM11.2 16.8H168v5.6H11.2z"/><path d="M179.2 11.2a5.6 5.6 0 01-5.6 5.6H5.6A5.6 5.6 0 010 11.2V5.6A5.6 5.6 0 015.6 0h168a5.6 5.6 0 015.6 5.6zm0 84a5.6 5.6 0 01-5.6 5.6H5.6A5.6 5.6 0 010 95.2v-5.6A5.6 5.6 0 015.6 84h168a5.6 5.6 0 015.6 5.6z" fill="#ef4d4d"/><path d="M41.692 179.2A22.165 22.165 0 0044.8 168 22.4 22.4 0 000 168c0 4.1 1.182 7.89 3.108 11.2zM156.8 145.6a22.355 22.355 0 00-20.34 13.132 16.598 16.598 0 00-7.66-1.932 16.8 16.8 0 00-16.8 16.8c0 1.977.403 3.842 1.03 5.6h63.068A22.215 22.215 0 00179.2 168a22.4 22.4 0 00-22.4-22.4z" fill="#3aad73"/><path d="M136.46 158.732a16.598 16.598 0 00-7.66-1.932 16.8 16.8 0 00-16.8 16.8c0 1.977.403 3.842 1.03 5.6h24.478A22.165 22.165 0 01134.4 168c0-3.315.767-6.434 2.06-9.268zM11.2 100.8H168v5.6H11.2z"/></svg>