<svg xmlns="http://www.w3.org/2000/svg" width="146.208" height="122.242" viewBox="0 0 187.147 156.469" xmlns:v="https://vecta.io/nano"><path d="M145.883 59.708c23.32 3.585 41.264 23.779 41.264 48.1 0 26.842-21.841 48.662-48.662 48.662-6.023 0-11.796-1.105-17.131-3.126H20.632c-6.523 0-11.816-5.314-11.816-11.837 0-3.647 1.626-6.919 4.272-9.107-3.209-5.856-4.897-12.421-4.897-19.194a40.17 40.17 0 0 1 11.9-28.51v-45.14c0-.813.063-1.626.146-2.417H4.397C1.959 37.138 0 35.179 0 32.74V4.397A4.4 4.4 0 0 1 4.397 0h156.865a4.4 4.4 0 0 1 4.397 4.397V32.74a4.4 4.4 0 0 1-4.397 4.397h-15.38z" fill="#633"/><path d="M160.7 121.437l15.213.063c-2.793 7.628-7.857 14.171-14.38 18.819a39.62 39.62 0 0 1-23.07 7.377c-17.172 0-31.865-10.92-37.45-26.196l15.255-.062c8.503-.021 15.422-6.961 15.401-15.484-.021-8.503-6.94-15.401-15.443-15.401h-.042l-13.671.042c1.709-3.564 3.939-6.815 6.586-9.712l7.044-.021h.083c7.419 0 14.422 3.272 19.215 8.982a5.2 5.2 0 0 0 .479.479 3.96 3.96 0 0 0 2.543.938c1.125 0 2.251-.479 3.043-1.417 4.793-5.71 11.796-8.982 19.215-8.982l7.086.021c1.313 1.438 2.543 2.98 3.647 4.606a40.01 40.01 0 0 1 2.938 5.106l-13.609-.042h-.042c-8.503 0-15.422 6.898-15.443 15.401 0 8.503 6.898 15.443 15.401 15.484z" fill="#fdcb81"/><path d="M156.845 8.795v19.527h-41.347c-1.688-2.522-3.939-4.627-6.544-6.169V8.795z" fill="#ca5f38"/><path d="M141.256 68.044a39.58 39.58 0 0 1 16.714 5.002c-7.273.604-14.088 3.605-19.465 8.524-2.688-2.459-5.752-4.439-9.045-5.877a33.3 33.3 0 0 0-10.483-2.647 39.59 39.59 0 0 1 19.486-5.106 61.26 61.26 0 0 1 2.793.104z" fill="#b88d5b"/><path d="M148.279 129.669c1.813 1.23 2.313 3.689 1.084 5.502-2.376 3.564-6.377 5.689-10.649 5.689-4.293 0-8.274-2.126-10.649-5.689-1.209-1.813-.729-4.272 1.084-5.502 1.813-1.209 4.272-.729 5.502 1.084.917 1.355 2.438 2.167 4.064 2.167s3.147-.813 4.064-2.167c1.23-1.813 3.689-2.292 5.502-1.084zm-7.898-17.256a3.96 3.96 0 0 1 3.96 3.96 3.96 3.96 0 0 1-3.96 3.96h-3.189a3.96 3.96 0 0 1-3.96-3.96 3.96 3.96 0 0 1 3.96-3.96z" fill="#633"/><path d="M137.088 37.138v22.028c-6.44.188-12.567 1.626-18.152 4.085V39.555c0-.813-.062-1.626-.146-2.417z" fill="#fdcb81"/><path d="M123.75 105.973c.021 4.147-3.355 7.523-7.503 7.544l-17.235.063a40.18 40.18 0 0 1-.417-5.752 40.23 40.23 0 0 1 1.084-9.295l16.506-.042h.021c4.168-.021 7.544 3.334 7.544 7.482z" fill="#b88d5b"/><path d="M116.123 101.618c2.438 0 4.397 1.959 4.397 4.397s-1.959 4.397-4.397 4.397a4.4 4.4 0 0 1-4.397-4.397c0-2.417 1.98-4.397 4.397-4.397z" fill="#633"/><path d="M110.121 39.555v28.739c-12.296 8.836-20.299 23.258-20.299 39.513 0 14.651 6.502 27.822 16.797 36.742H20.632c-1.667 0-3.022-1.355-3.022-3.022 0-1.48 1.063-2.73 2.522-2.959 1.501-.25 2.772-1.25 3.355-2.668s.375-3.022-.521-4.272c-3.897-5.377-5.981-11.733-5.981-18.402a31.39 31.39 0 0 1 10.441-23.341 4.36 4.36 0 0 0 1.459-3.272V39.534a11.36 11.36 0 0 1 11.358-11.358 11.36 11.36 0 0 1 11.358 11.358v37.95a4.4 4.4 0 0 0 4.397 4.397h26.967c2.438 0 4.397-1.959 4.397-4.397V39.555a11.36 11.36 0 0 1 11.358-11.358c6.273 0 11.4 5.085 11.4 11.358z" fill="#fdcb81"/><path d="M101.034 8.795v10.712a20.45 20.45 0 0 0-2.272-.125c-.771 0-1.521.042-2.272.125V8.795zm-12.483 0v13.359c-2.626 1.542-4.856 3.647-6.544 6.169H56.998c-1.688-2.522-3.939-4.627-6.544-6.169V8.795z" fill="#ca5f38"/><path d="M60.27 37.138h18.465c-.104.792-.146 1.584-.146 2.417v33.553H60.437V39.555l-.167-2.417z" fill="#fdcb81"/><path d="M74.192 129.148a4.4 4.4 0 0 1 4.397 4.397 4.4 4.4 0 0 1-4.397 4.397H45.161a4.4 4.4 0 0 1-4.397-4.397c0-2.438 1.959-4.397 4.397-4.397z" fill="#633"/><path d="M42.535 8.795v10.712a20.45 20.45 0 0 0-2.272-.125c-.771 0-1.521.042-2.272.125V8.795zm-12.483 0v13.359c-2.626 1.542-4.856 3.647-6.544 6.169H8.795V8.795z" fill="#ca5f38"/><g fill="#b88d5b"><path d="M177.247 98.533c.709 2.98 1.084 6.085 1.084 9.295a40.18 40.18 0 0 1-.417 5.752l-17.193-.062c-4.147 0-7.503-3.397-7.503-7.523a7.53 7.53 0 0 1 7.523-7.503h.021z"/><path d="M178.331 107.807a40.23 40.23 0 0 0-1.084-9.295l-16.464-.042h-.021c-4.126 0-7.503 3.355-7.523 7.503s3.355 7.523 7.503 7.523l17.193.063c.25-1.876.396-3.793.396-5.752z"/></g><g fill="#633"><path d="M165.264 106.036a4.4 4.4 0 0 0-4.397-4.397c-2.438 0-4.397 1.959-4.397 4.397s1.959 4.397 4.397 4.397c2.417 0 4.397-1.98 4.397-4.397z"/><path d="M160.867 101.618c2.438 0 4.397 1.959 4.397 4.397a4.4 4.4 0 0 1-4.397 4.397 4.4 4.4 0 0 1-4.397-4.397c-.021-2.417 1.959-4.397 4.397-4.397z"/></g></svg>