<svg width="100" height="99.97" xmlns="http://www.w3.org/2000/svg"><g transform="translate(0 -.002)"><path d="M99.999 49.97c0 25.475-19.984 47.463-45.374 49.796C29.227 102.1 5.46 84.243.815 59.124c-4.646-25.112 11.027-50.41 35.64-57.311 24.619-6.903 51.222 6.5 60.301 30.4A50.101 50.101 0 01100 49.97" fill="#5471af"/><radialGradient id="prefix__a" gradientUnits="userSpaceOnUse" cy="68.533" cx="68.591" gradientTransform="matrix(-.6899 0 0 .6899 97.585 2.688)" r="63.739"><stop offset="0" stop-color="#d4e4f7"/><stop offset="1" stop-color="#7fb5f7"/></radialGradient><path d="M97.206 49.675c0 23.788-18.71 44.32-42.48 46.499C30.95 98.361 8.698 81.679 4.348 58.224 0 34.777 14.674 11.155 37.716 4.709 60.765-1.738 85.67 10.78 94.173 33.095a46.675 46.675 0 013.037 16.582" fill="gray" fill-opacity=".841"/><path d="M94.239 49.97c0 23.964-20.01 43.973-43.974 43.973C26.3 93.943 6.29 73.933 6.29 49.97 6.29 26.004 26.3 5.995 50.265 5.995c23.964 0 43.974 20.01 43.974 43.975" fill="url(#prefix__a)"/><path d="M91.446 34.66c2.975 20.807-10.288 41.22-30.776 47.38-21.73 6.541-45.593-4.811-53.946-25.504C10.27 81.385 35.679 98.41 60.58 92.62c25.711-5.978 40.629-33.804 30.866-57.96" fill="#68a0f2"/><path d="M77.731 29.06c-6.08 1.257-13.082-7.357-18.355-9.55-9.85-4.095-22.157-2.193-31.082 3.383-9.441 5.898-16.155 17.228-17.188 28.35-.004.032-.004.038 0 .016.696-6.734.226-13.065 2.79-19.576 4.25-10.79 13.439-19.24 24.52-22.635C49.871 5.539 62.4 7.772 72.268 14.46c3.047 2.067 14.778 12.67 5.463 14.6" fill="#b3e7fc"/><path d="M38.65 30.778v35.657c0 3.631-1.475 10.379 3.776 10.634 4.418.217 9.413-5.712 12.526-8.198L70.426 56.53c4.972-3.965 1.288-6.908-2.39-9.854L51.414 33.36l-5.351-4.286c-1.794-1.437-7.413-1.664-7.413 1.703" fill="#fff"/><path d="M46.166 28.384l25.548 20.462c5.267 4.219-.634 7.935-3.891 10.53-5.765 4.6-11.53 9.2-17.295 13.798a4888.286 4888.286 0 00-4.24 3.382c-2.594 2.07-8.238 1.38-8.238-2.724V31.263c0-3.796 5.522-4.957 8.116-2.878m-.744 47.32c8.43-6.727 16.862-13.452 25.291-20.175 4.488-3.581-.814-6.59-3.634-8.848l-16.681-13.36-4.708-3.772c-1.506-1.207-6.442-1.526-6.442 1.353V72.89c0 3.125 3.515 4.948 6.174 2.814" fill="#5471af"/></g></svg>