<svg version="1.1" xmlns="http://www.w3.org/2000/svg" xmlns:xlink="http://www.w3.org/1999/xlink" width="81.39664" height="140.00002" viewBox="0,0,81.39664,140.00002"><defs><clipPath id="clip-1"><path d="M280.69832,250h-81.39664v-140.00002h81.39664z" fill="none"/></clipPath><clipPath id="clip-2"><path d="M280.69832,250h-81.39664v-140.00002h81.39664z" fill="none"/></clipPath></defs><g transform="translate(-199.30168,-109.99997)"><g data-paper-data="{&quot;isPaintingLayer&quot;:true}" fill-rule="nonzero" stroke="none" stroke-width="1" stroke-linecap="butt" stroke-linejoin="miter" stroke-miterlimit="10" stroke-dasharray="" stroke-dashoffset="0" style="mix-blend-mode: normal"><g clip-path="url(#clip-1)" data-paper-data="{&quot;index&quot;:null}"><path d="M206.63498,185.90799c1.28743,-2.13884 3.48773,-4.85062 5.20129,-6.16486c1.73319,-1.32841 3.21764,-2.25647 4.33486,-4.23823c-0.83279,-0.35886 -2.21395,0.22689 -2.98614,0.3855c-2.2201,0.45618 -5.799,0.00205 -6.93551,-1.25226c-0.23492,-0.22962 -0.19685,-0.56237 -0.19241,-1.05969c0.80787,-0.06522 1.66303,0.31396 2.31161,0.19275c3.86537,-0.72302 3.79742,-6.49641 2.5047,-9.63261c-1.18995,-2.88644 -3.8932,-4.87504 -5.49084,-7.41695c-2.62847,-4.18275 -4.14007,-12.07739 -2.60047,-17.82005c2.37307,-8.85172 7.32408,-14.70911 13.09986,-20.132c1.84707,-1.73388 3.68133,-3.74245 6.26149,-4.71985c1.93789,-0.73412 5.29399,-1.55189 7.99486,-1.05952c1.18756,0.16048 2.37597,0.32113 3.56404,0.48178c0.77048,-0.57807 1.54096,-1.15615 2.31161,-1.73405c2.21873,-1.40216 5.02715,-1.78373 8.76551,-1.73371c1.47694,0.2887 2.95439,0.57773 4.43081,0.86694c3.95688,1.27241 8.40391,4.09073 9.34375,8.38018c0.46557,2.12552 -0.33974,4.03593 -0.67436,5.58679c5.1301,2.22266 5.96255,8.7976 7.0318,15.2194c0,1.60498 0,3.21099 0,4.81631c-1.87712,7.05707 -5.82478,11.3554 -8.57293,17.24197c-1.20429,2.58016 -3.87715,7.68994 -1.63742,10.981c0.54051,0.79438 2.2872,1.6719 3.85291,1.34872c0.57824,-0.11968 0.78892,-0.58115 1.44484,-0.38515c0.1837,0.14563 0.17363,0.17021 0.28904,0.38515c-2.21703,2.20456 -6.15513,2.19176 -9.53616,2.02274c0.06419,0.03227 0.12838,0.06419 0.19258,0.09629c0.06419,0.09629 0.12838,0.19258 0.19275,0.28887c-1.04108,1.21249 -4.00793,1.11056 -6.26115,1.05952c-0.0321,0.03227 -0.06436,0.06436 -0.09646,0.09646c3.20142,4.54776 7.78811,7.61858 10.98117,12.2336c0.93113,1.21948 1.86243,2.44034 2.79339,3.65982c0.12838,0.09663 0.25694,0.19292 0.38533,0.28921c0.50791,-1.09605 1.96726,-1.76751 3.3713,-1.9268c1.18671,-4.17251 2.32407,-8.78548 4.33469,-12.23292c0.2047,-0.34435 0.37423,-0.42186 0.86677,-0.48178c0.03227,0 0.06436,0 0.09646,0c0.14836,0.72951 -0.50073,2.13337 -0.67436,3.08226c-0.28887,2.7613 -0.5779,5.52294 -0.86694,8.28423c-0.16987,1.46584 1.46038,0.83996 1.5413,2.02291c2.37239,-1.78766 4.28245,-5.147 6.74259,-7.6097c0.81828,-0.81914 1.42316,-2.28037 2.98614,-2.31161c0.0321,0.03175 0.06419,0.06368 0.09646,0.09595c-0.51354,1.57323 -1.02742,3.14679 -1.5413,4.72019c0,0.03193 0,0.06385 0,0.09612c1.46328,-0.49766 2.0953,-2.19296 3.85291,-2.40824c0.43586,0.40171 0.84457,0.92311 0.96323,1.63759c-0.86677,3.88466 -1.73371,7.77069 -2.60065,11.65536c-2.07959,8.4273 -2.48131,17.89602 -3.56404,27.3562c-1.87524,0.77663 -9.09193,7.20474 -10.11389,8.86179c-1.95411,3.16848 -3.40664,6.98639 -6.06857,9.4397c-4.14382,3.81962 -12.59178,4.61297 -18.01262,3.6605c-1.02759,0.06419 -2.05518,0.12856 -3.08243,0.19292c-1.97357,0.90535 -5.77083,2.22932 -7.70633,1.44467c-1.12371,-0.77065 -2.24759,-1.54113 -3.37112,-2.31161c-2.11869,-1.27617 -4.08339,-2.1571 -6.16469,-3.27535c-3.81262,-2.04699 -7.13014,-3.18572 -10.78859,-5.29792c-0.87035,-0.50244 -2.87722,-1.10988 -3.08243,-2.21515c-0.03175,0.09646 -0.06385,0.19241 -0.09612,0.28887c-1.08803,-0.85499 -1.22683,-2.19449 -2.02274,-3.37112c-1.95582,-2.89054 -3.01038,-6.25551 -3.75696,-9.82553c0.06436,-0.57739 0.12873,-1.15563 0.19309,-1.73371c-2.85195,-14.47624 -0.3662,-25.27046 6.16452,-36.12188" fill="#fffffe"/></g><path d="M280.05247,187.97068l-1.96094,8.82389l-1.52508,7.0808l-0.9803,8.27911l-1.08939,9.91329l-0.32677,3.59477l-3.48602,2.83232l-3.81279,3.48602l-3.92171,3.48585l-25.27319,-0.32677l-2.06969,-4.46632l-2.7234,-0.21784l-5.22895,-3.05033l0.87155,-16.99408l-1.08939,-6.318l0.10892,-2.94141l0.87155,-3.81279l7.84325,1.30724l6.64511,1.85202l6.31834,1.85185l4.13956,1.85185l1.30724,0.10892l2.94124,1.634l3.05033,0.10909l0.87138,-0.76263l4.90218,-5.22895l3.81262,-4.13956l3.26818,-3.05016l2.50555,-2.50555l1.08939,-1.30724l1.19831,-0.9803l1.96077,-0.87172l-0.21784,0.76263" data-paper-data="{&quot;index&quot;:null}" fill="#712424"/><path d="M240.7266,187.2084l-2.50555,2.17879l-1.74293,0.43586l-1.30724,0.21767h-1.74293l-3.15926,-0.9803l-2.83232,-2.28771l-1.634,-2.39663l-2.06986,-3.15909l-2.17861,-4.13956l-0.76263,-1.30724l1.08939,-0.98047v-2.06986l-0.21784,-4.13956v-2.39646l-4.57542,-5.0111l-2.50555,0.32677l-2.94124,-1.52508l-3.05016,-9.80419l1.30707,-4.03063l5.88265,-4.57524l14.92422,-11.43837l4.68434,-3.59477l6.97187,0.43569l5.01093,1.96077l4.03063,0.10892l2.28771,-0.21767l3.81279,11.65621l-1.19831,18.73684l-5.99157,9.80436l-3.59477,3.7037l-5.66464,2.17879l-1.74293,1.7431l0.10875,3.48585l1.63417,5.55589" data-paper-data="{&quot;index&quot;:null}" fill="#f3b991"/><path d="M257.82944,125.33308l2.61447,2.28754l1.30707,2.06986l1.30741,2.83232l0.76246,3.26801l0.6537,4.13956v3.05033l-0.43586,3.92154l-1.74293,4.35757l-1.74293,3.3771l-1.96094,3.26801l-2.17861,4.03063l-1.634,2.83232l-0.76263,3.05016l-0.32677,3.05016l1.19831,3.26818l1.634,0.87138l1.634,0.32677l-2.06986,0.98064h-1.85185l-1.74293,-0.10909l-1.41616,-0.10892l-1.7431,-0.10892v0.54461l-1.41616,0.43586h-1.96077l-1.634,-0.21784l-2.17879,-0.10892l-1.52508,-0.21802l-1.08939,-1.08939l2.50555,-0.9803l2.39663,-1.63417l2.61447,-2.06969l1.634,-1.19831l2.06986,-2.28771l2.50538,-4.13956l1.63417,-3.26801l0.76246,-2.94124l0.76263,-5.88248l0.43569,-3.59494l0.10892,-3.59494l-0.10892,-2.17861l-1.08939,-3.70387l-1.30724,-4.46632l-1.19831,-1.96094l-0.87155,-1.85185l-1.74276,0.21784l-1.96094,0.32677l-1.96094,-0.21784l-1.52508,-0.10892c0,0 -3.05016,-2.06969 -4.13956,-1.634l-0.87138,-0.76263l-1.52508,-0.21784l-2.3968,0.21784l-2.06969,0.98047l-1.52508,2.94124l-2.83232,4.46632l-3.7037,3.48602l-2.39663,2.94124l-2.83232,2.06986l-1.96094,1.634l-1.19831,7.40756l-1.96094,-4.03063l-0.32677,-3.05016l-0.87138,-1.634l-1.30724,0.10892l-1.63417,0.76246l-1.41616,2.17879l-0.76246,2.28771l0.76246,5.0111l2.83232,4.79309l2.39663,0.98047l1.74293,-0.21784l0.87155,-0.21784l1.52508,2.72323l1.74293,2.83249l0.43586,1.30707l0.21802,5.77373l-1.63417,1.52508l-1.30724,0.32677l-1.96077,0.21784h-1.52525l-2.28754,0.21802l-1.85202,0.43569l-1.85185,-0.10892l-0.87138,-0.76263l1.52491,-1.19831l1.19831,-1.52508l0.43586,-2.06969l0.21784,-3.3771l-0.54461,-2.7234l-1.85202,-2.28771l-2.28754,-3.26801l-1.63417,-2.17861l-1.74293,-3.26818l-1.19831,-5.01093l-0.32677,-3.81279l0.76263,-5.0111l1.74293,-5.22895l1.74293,-4.03063l2.7234,-3.3771l2.39663,-2.94124l4.3574,-4.24848l2.17879,-2.28771l2.6143,-1.85185l3.05033,-1.30724l3.26801,-0.43569l3.37693,0.10892l2.83232,0.54461l3.70404,-2.28771l2.17861,-0.87138l2.39663,-0.21802l3.81279,0.10909l3.70387,0.76246l3.92154,1.85202l2.50572,2.06969l1.634,1.85185l0.76246,2.28771v1.85185l-0.21784,1.52508l-0.54461,1.63417l0.43569,0.76263" data-paper-data="{&quot;index&quot;:null}" fill="#402820"/><path d="M265.67286,192.54627l1.7431,0.43569l-0.21802,1.08922l-2.17861,2.07003l0.65353,-3.59494" data-paper-data="{&quot;index&quot;:null}" fill="#f3b991"/><path d="M262.51377,192.76394l-2.17879,5.99157l-0.87138,-1.30724l-0.21784,-1.634l0.76246,-1.96094l1.19831,-0.87138l1.30724,-0.21802" data-paper-data="{&quot;index&quot;:null}" fill="#f3b991"/><path d="M237.24075,234.81303l1.19814,0.21784l0.65353,-1.96077l1.19831,-3.15909l0.6537,-2.39663l-0.10892,-2.28754l-0.65353,-2.94141v-1.52491l0.65353,-1.08939l1.30724,-0.43586l1.74293,1.74293l0.54461,2.06986l0.32694,2.50555l0.43569,2.6143l1.08939,1.63417l1.19831,0.6537l1.74293,0.43552l2.06986,0.10909l2.39663,-0.54461l2.28754,-1.30741l2.83232,-1.85185l3.59494,-2.17879l1.74293,-1.19831l2.06986,-0.65353l1.634,0.10892l1.08939,0.54461l-1.08939,2.06986l-1.96094,1.634l-1.19814,1.634l-0.98047,2.28788l-0.43569,3.15891l-1.41616,3.05033l-2.06986,4.03063l-2.06969,2.28754l-2.06986,1.74293l-2.50555,0.76263l-1.634,0.76263l-2.28771,0.43569l-2.17879,0.21784l-2.06969,0.10909l-2.94124,-0.54478l-3.48602,-0.6537l-1.52508,-0.43569l-1.08939,-0.32694l-1.41616,-0.43552l-0.32677,-2.83232v-1.634l1.19831,-4.24865l0.76263,-1.74293l1.08939,-0.43586" data-paper-data="{&quot;index&quot;:null}" fill="#f3b991"/><path d="M268.28733,225.98948l0.98047,-2.07003l0.76263,-1.41599l1.52508,-4.57524v-1.85202l0.43569,-3.92171l1.08939,-8.17019l1.85185,-7.29864l-0.98047,0.32677l-1.634,1.52508l-1.634,2.06986l-4.68417,3.81279l-0.87155,1.41616l-0.21784,3.37693l-1.41633,14.7062l-1.96077,1.7431l1.41616,-17.86546l0.43586,-3.37693l3.15909,-2.94141l3.48602,-3.05016l3.81262,-2.83232l2.94141,-2.39663l-1.52525,8.3882l-2.28754,16.88499l-0.76263,5.44662l-3.92171,2.07003" data-paper-data="{&quot;index&quot;:null}" fill="#f6bc25"/><path d="M246.93585,230.4558c-1.52508,-0.43586 -1.96077,-3.3771 -1.96077,-3.3771l0.76263,-1.19814l0.21767,-2.28788l1.63417,-7.95234l1.52508,-6.97187l-0.10892,-2.17861l-0.76263,-0.54478l-4.3574,-1.08939l-4.03063,-1.19814l-3.15909,-1.08939l-2.50555,-0.21784l-0.32694,2.39663l-0.43552,6.31834l-0.32677,5.22878l-0.43586,8.93282l-0.32677,2.61447l5.11986,1.19831l2.83232,0.87138l-0.21784,0.98047l-4.13956,-0.98047l-2.50538,-0.32677l-2.94141,-0.98047l0.6537,-2.72323l0.10892,-3.81279l0.54461,-7.29881l-0.21784,-4.68434l-0.21784,-8.7148l0.43569,-0.98047l1.19831,-0.10875l1.85202,-0.10909l3.15891,0.76263l2.17896,0.32677l2.94124,0.76263l6.10033,1.85185l1.85185,1.63417l-0.87138,4.46632l-0.54478,3.15909l-0.65353,7.95234l-1.634,5.88248l-0.43586,3.48602" data-paper-data="{&quot;index&quot;:null}" fill="#f6bc25"/><path d="M262.29593,205.6183l-0.98047,1.63417l-1.19831,0.87138l-1.634,0.21784l-1.41616,-0.32677l-1.19831,-0.76246l-1.08939,-1.08939l0.21784,-1.74293l1.96094,1.634l1.634,0.65353l1.19831,-0.21784l1.19831,-0.54478l0.87155,-0.76246l0.43569,0.43569" data-paper-data="{&quot;index&quot;:null}" fill="#f6bc25"/><path d="M240.39984,176.968l3.92171,2.83249l2.83232,2.17861l2.50555,2.83232l2.7234,2.28771l3.05016,3.26801l2.7234,4.90218l0.6537,1.41616l0.76246,2.17879l-0.10892,2.28754l-0.65353,2.39663l-1.7431,-1.19814l-2.61447,-1.96094l-2.7234,-0.98047l-2.06969,-0.76263l-4.03063,-1.30724l-2.28771,-1.08922l-0.76246,-4.13956l-0.87155,-3.81279l-1.19831,-4.03063l-0.87138,-2.7234l-0.43586,-2.06986l-0.21784,-1.74293l0.32677,-1.08871l1.08939,0.32608" data-paper-data="{&quot;index&quot;:null}" fill="#eca8c1"/><path d="M230.25437,195.8421l-2.21942,0.34145v1.53652l-0.17072,1.53652l-0.6829,3.07304l0.51217,2.39014l0.51217,3.58521l0.34145,2.90232l-0.17072,4.95101l-0.51217,7.17043l-0.34145,3.58521l3.24376,2.04869l2.66142,0.62161l2.17861,1.08939l1.47677,2.21566l0.51217,1.87797l-1.02435,1.3658l-1.3658,2.56087l-1.01496,2.54653l-0.00939,2.40448l0.6829,2.90232l0.34145,2.04869l-2.56087,0.85362l-2.73159,0.34145l-2.21942,-1.3658l-3.24376,-2.04869l-3.41449,-2.73159l-4.09739,-2.04869l-6.14608,-2.56087l-4.09739,-2.56087l-1.02435,-1.3658l-2.39014,-2.73159l-1.70724,-4.78028l-0.51217,-2.73159l-0.6829,-3.58521l-0.34145,-4.60956l-0.17072,-4.09739l-0.34145,-4.26811l0.51217,-4.43884l0.85362,-3.92666l2.04869,-4.78028l0.85362,-2.90232l1.87797,-2.90232l1.87797,-3.41449l1.70724,-3.07304l1.87797,-2.21942l2.90232,-2.39014l3.07304,-2.90232l2.90232,-1.3658l1.54301,3.08806l2.04221,3.22874l2.20627,4.0699l1.72039,3.6127l1.3658,4.26811l1.3658,3.58521" data-paper-data="{&quot;index&quot;:null}" fill="#eca8c1"/><g data-paper-data="{&quot;index&quot;:null}" fill="#b98499"><path d="M219.84017,194.64703l8.02405,31.24257l-1.19507,0.51217l-2.56087,-0.6829l-5.29246,-2.90232l-0.34145,-7.6826l0.51217,-15.19448l0.51217,-3.58521l0.34145,-1.70724"/><path d="M208.40164,185.08646c-2.56087,9.38984 -1.3658,39.26662 1.53652,43.36401c3.24376,4.60956 24.24287,13.65796 24.24287,13.65796l1.02435,6.48753l-3.41449,1.02435l-2.04869,-0.51217l-1.87797,-1.19507l-10.92636,-5.80463l-7.6826,-4.09739l-2.56087,-1.53652l-1.87797,-1.70724l-3.92666,-9.0484v-3.75594l-0.6829,-3.92666c0,0 -4.09739,-18.77969 8.19477,-32.94982"/></g><path d="M241.18073,186.62298c0.51217,1.87797 1.53652,8.70695 1.53652,8.70695l-5.29246,-1.53652c0,0 3.24376,-1.87797 3.75594,-7.17043" data-paper-data="{&quot;index&quot;:null}" fill="#b4b5b4"/><path d="M239.52812,175.33451c0,0 -6.75557,5.22775 -17.63925,0.95964c0.21341,-1.70724 0.19241,-5.02835 -0.11729,-9.12983c5.23902,5.07513 14.05523,10.1984 17.75654,8.17019" data-paper-data="{&quot;index&quot;:null}" fill="#c49779"/><g clip-path="url(#clip-2)" data-paper-data="{&quot;index&quot;:null}"><path d="M212.92583,148.55143c1.70724,0.21341 3.41449,1.06703 2.98768,6.61557c-0.85362,-0.64022 -1.49384,-1.28043 -2.13406,-0.42681c0,-1.49384 -0.85362,-6.18876 -0.85362,-6.18876" fill="#c49779"/><path d="M234.6932,242.02307c3.41449,0 10.9279,6.13959 25.09718,-0.23799c-2.903,4.5061 -11.01241,8.98762 -25.09718,4.5061v-4.26811" fill="#c49779"/><path d="M232.64246,167.41375c-0.54,-0.33547 -1.12815,-1.39584 -1.34821,-1.44484v-0.48178c0.21187,-0.03858 0.19189,-0.08724 0.57773,-0.19258c1.51364,1.41667 4.61571,3.88535 7.70582,2.40807c0.75802,-0.36228 1.34002,-1.05661 2.02308,-1.25209c0.06419,0.19258 0.12838,0.38533 0.19258,0.57807c-2.6126,2.41558 -5.97279,2.35856 -9.151,0.38515zM253.44882,144.29578c-0.15433,0.1586 -0.25079,0.50961 -0.67419,0.38533c-0.14495,-0.04268 -1.68556,-2.53782 -3.27518,-2.98614c-1.71151,-0.48281 -3.36515,0.76877 -4.43081,1.5413c-0.56937,-0.10875 -0.25831,-0.14221 -0.57807,-0.09629c0.28648,-1.81822 2.95439,-2.223 4.43098,-2.5047c2.16274,0.94155 3.7276,0.89852 4.52727,3.6605zM235.33973,142.65819c-0.74777,-0.52925 -1.00642,-1.29631 -2.02274,-1.63742c-4.34972,-1.46004 -7.25579,2.38809 -9.24729,3.37147v-0.19292c-0.06436,-0.06402 -0.12856,-0.12838 -0.19292,-0.19275c1.73695,-2.47346 4.56893,-4.14212 8.86214,-4.04532c0.74111,0.44337 3.48978,0.77236 3.17872,1.83h0.28904c-0.18899,0.47683 -0.43654,0.64414 -0.86694,0.86694zM227.63375,197.08156v-0.28887h-0.09646c0.0321,0.09646 0.06436,0.19292 0.09646,0.28887zM227.92261,197.17802v-0.28887h-0.09646c0.03227,0.09646 0.06436,0.19241 0.09646,0.28887zM219.15711,197.56335v-0.28887h-0.09646c0.03227,0.09646 0.06436,0.19275 0.09646,0.28887zM228.21182,196.88916v-0.38515c-0.03227,0.12838 -0.06436,0.2566 -0.09629,0.38515zM206.4424,235.70797c1.27582,1.00813 2.81969,1.5314 4.43098,2.21566c3.11794,1.32448 6.07318,3.0575 9.15083,4.43098c1.41257,0.96306 2.82549,1.92628 4.23789,2.88951c1.64971,0.96237 5.22519,1.60686 5.68325,3.66016c1.65773,0.29365 2.57094,-0.07956 4.33452,-0.4811c0.2228,-1.26046 -0.92089,-5.48708 -0.38515,-8.18777c0.33274,-1.67634 0.74368,-3.03292 1.44501,-4.6239c0.35323,-0.60983 0.70646,-1.22017 1.05935,-1.82982c0.01144,-1.29785 -0.72199,-2.4936 -1.82982,-2.98648c-2.3787,0.83177 -7.8663,-3.15277 -10.69247,-4.52693c-1.06771,-0.51934 -2.91188,-1.84895 -4.23806,-1.34872c-0.20009,-0.24601 -0.2047,-0.14409 -0.2887,-0.57756c-2.03504,-0.52805 -3.63421,0.98986 -5.29809,1.25175c-0.22621,-1.62308 2.95336,-1.62598 4.14195,-2.21515h0.19258c-2.10896,-2.04289 -6.9898,0.17721 -8.18777,2.02274h-0.38515c-0.09595,-0.06436 -0.19241,-0.12856 -0.28887,-0.19292c0.1796,-3.31137 5.67642,-2.98734 8.57293,-3.08209c0.69024,1.07864 -0.61768,-6.22547 -0.28921,-7.70599c0.3213,-4.71968 0.64244,-9.44021 0.96357,-14.15972c0.30577,-1.84553 -0.07973,-3.89457 0.77048,-5.49067c0.16065,-0.22997 0.23133,-0.25062 0.48178,-0.3855c0.47666,0.65353 -0.45396,4.86394 -0.28904,6.35761c0.60283,5.46472 0.21784,12.61039 0.67419,18.20554c0.09287,1.1389 0.13009,2.79459 0.57807,3.75662c0.533,0.81965 5.14393,3.12426 6.26081,3.56404c0.14204,-7.07021 1.41326,-14.86447 -0.09612,-22.5399c-0.52173,-2.65323 0.82426,-5.20556 0.19275,-7.6097c-0.8176,-3.11265 -2.58665,-5.75034 -3.75662,-8.47681c-0.89921,-2.02223 -1.79841,-4.04566 -2.6971,-6.06857c-0.83484,-1.57306 -1.66986,-3.14662 -2.5047,-4.71985c0.23133,-0.27896 0.20384,-0.30457 0.67419,-0.38515c1.80712,3.54083 3.43924,6.82642 5.20146,10.59567c1.28299,2.7432 2.98717,5.39592 3.85342,8.57293c0.40137,0.02424 1.06942,-0.08605 1.63742,0.09646c-0.20999,-4.96176 -4.45796,-11.02368 -6.35727,-14.25635c-1.1879,-2.21515 -2.37648,-4.43098 -3.56439,-6.6463c-1.34821,0.1557 -8.09541,6.21198 -9.05437,7.41695c-5.40701,6.79364 -12.5042,19.20087 -10.49955,31.01671c0.75409,4.44498 0.23577,8.90516 2.11937,12.13697c-1.178,1.34155 3.00356,9.48374 4.04566,10.30664zM234.85829,245.62979c1.12371,0.32096 2.24776,0.64192 3.37147,0.96272c5.50108,1.50716 9.97936,1.54164 14.64099,-0.38498c2.00618,-0.82887 4.95716,-1.28982 5.39421,-3.56404c-0.70629,0.41742 -1.41274,0.83484 -2.11903,1.25226c-0.09646,-0.09629 -0.19275,-0.19292 -0.28904,-0.28887c-0.24806,-0.92464 1.70076,-1.57288 2.40807,-2.1192c1.6859,-1.30177 3.10411,-3.34569 3.94954,-5.4905v-0.28921c-1.51689,1.23553 -1.95445,2.67901 -3.6605,3.85325c-0.38515,-0.06163 -0.28665,0.00751 -0.48161,-0.19275c-0.06402,-0.09663 -0.12838,-0.19241 -0.19275,-0.28904c0.498,-0.64397 2.14242,-2.08796 3.0826,-3.17855c1.788,-2.07464 2.16786,-3.75269 2.98597,-6.16503c-2.15045,0.84526 -4.80828,3.83293 -5.58679,6.06857c-0.16065,0.06436 -0.3213,0.12873 -0.48178,0.19275c-0.19258,-0.19275 -0.38533,-0.38567 -0.5779,-0.57807c1.80319,-3.54748 4.79019,-5.39028 7.51341,-7.89857c1.21795,-1.122 3.18077,-1.61659 3.66033,-3.46793v-0.09612c-2.54738,-1.56964 -5.52038,1.12542 -7.0318,2.21532c-2.314,1.66883 -8.16353,6.67874 -13.38924,5.29809c-6.23947,-1.64886 -1.83375,-8.31445 -5.87582,-11.75182c-0.74436,0.11114 -0.95008,0.43705 -1.34838,0.86694c-0.31413,2.06116 1.20463,4.31438 0.77065,6.93551c-0.46693,2.82054 -1.64954,4.53837 -2.02308,7.12809c0.62861,0.88521 1.28607,1.35658 2.11954,2.02274v0.38533c-0.36996,0.2414 -0.32745,0.05514 -0.3855,0.28887c-0.8555,-0.23423 -1.11107,-0.94428 -1.83,-1.25226c-0.70629,-0.19241 -1.41292,-0.38533 -2.11937,-0.5779c-1.68078,0.47564 -2.14498,4.54451 -2.60082,6.54984c0.03227,1.18807 0.06436,2.37648 0.09663,3.56456zM270.78725,227.32762c0.93113,-0.57739 1.86226,-1.1558 2.79339,-1.73388c0.41742,-3.91659 0.83484,-7.83455 1.25226,-11.75131c0.48161,-3.59563 0.96323,-7.19262 1.44501,-10.78825c1.09127,-5.00871 2.18322,-10.01879 3.27484,-15.027c-2.45075,1.35419 -3.93434,3.92786 -6.0684,5.58679c-2.7041,2.10247 -5.41111,4.81767 -7.41712,7.6097c1.28419,-1.1558 2.56889,-2.31161 3.85308,-3.46758c2.21976,-1.58313 4.90696,-3.04538 6.55018,-5.20146c0.28887,0.06436 0.5779,0.12821 0.86677,0.19241c-0.51354,2.79339 -1.02742,5.5873 -1.54113,8.38035c-1.02127,4.64012 -1.13412,9.24166 -2.21549,13.96731c-0.06419,0.96306 -0.12821,1.92628 -0.19258,2.88951c-0.40854,1.68198 -1.08973,4.05914 -1.1558,6.0684c-4.19965,2.9257 -7.12075,3.08311 -8.47664,9.24729c1.74754,-0.7027 5.24534,-4.58959 7.03163,-5.97228zM279.84179,187.25654c-0.12856,-0.22433 -0.25694,-0.44935 -0.38533,-0.67402c-2.25561,0.70799 -3.30249,2.70445 -4.9126,4.04566c-3.21662,2.67935 -6.63913,5.58969 -9.24712,8.86145c-1.09161,1.38099 -2.18339,2.76181 -3.27501,4.14212c0.12838,0.06436 0.25677,0.12856 0.38533,0.19275c1.54096,-1.79773 3.08243,-3.59631 4.62356,-5.39421c1.1558,-1.05935 2.31195,-2.1192 3.46758,-3.17855c0.48161,-0.5779 0.9634,-1.15598 1.44501,-1.73422c2.0702,-1.56418 3.65316,-3.57241 5.68325,-5.105c0.67283,-0.50791 1.81036,-0.57227 2.21532,-1.15598zM268.57176,193.8069c-1.32687,1.27651 -3.3281,3.1497 -3.9492,5.00871c1.4766,-1.54113 2.95405,-3.08277 4.43098,-4.62356c1.70144,-1.47677 3.40339,-2.95387 5.105,-4.43081c0.32096,-1.34872 0.64227,-2.69728 0.96323,-4.04566c-1.15666,0.75682 -6.5536,7.34183 -6.55001,8.09131zM266.64531,193.13219h-0.19275c-0.57927,0.51678 -0.81521,1.25756 -0.77065,2.40824c0.60778,-0.48895 1.30519,-1.27617 1.54147,-2.11886c-0.19275,-0.09646 -0.3855,-0.19275 -0.57807,-0.28938zM264.71868,194.76995c0.03227,0.09646 0.06436,0.19275 0.09646,0.28938v-0.28938zM264.14078,197.65964h0.09646v-0.38515c-0.0321,0.12856 -0.06436,0.25677 -0.09646,0.38515zM263.56288,191.39866c-1.24322,3.96729 -2.78759,7.55524 -3.9492,11.46261c0.6018,-0.484 1.23929,-0.62366 1.73371,-1.15598c0.69468,-0.74777 1.6772,-3.20757 2.40824,-3.17855c1.08973,-4.03046 2.15744,-9.56945 2.11886,-14.54521c-1.26524,1.98023 -1.56452,5.0333 -2.31161,7.41712zM260.8656,193.32511c-1.01957,0.95179 -2.07977,3.17906 -0.77048,4.81631v0.19241h0.09646c0.60983,-1.70144 1.22017,-3.40356 1.83017,-5.105c-0.38533,0.03193 -0.77082,0.06419 -1.15615,0.09629zM259.03543,205.17288h-0.77048c0.09646,-0.2566 0.19258,-0.51337 0.28904,-0.77048c-1.21846,-2.09308 -4.17421,-2.68208 -6.16469,-4.04566h-0.19258c1.48018,1.26353 4.02244,1.53276 5.105,3.17855v0.28921c-0.19497,0.29996 -0.04575,0.20624 -0.48161,0.28904c-1.08666,-0.77338 -2.18869,-1.52064 -3.46758,-2.1192c-0.04729,0.49459 -0.08792,0.49869 -0.28904,0.77048c0.41742,0.25711 0.83467,0.51388 1.25209,0.77048c0.25677,-0.03193 0.51388,-0.06368 0.77065,-0.09578c0.44952,0.44901 0.89921,0.89886 1.34855,1.34821c1.24014,1.05678 2.22556,1.23844 3.17052,0.93864c0.06692,0.00563 0.16031,0.0099 0.29723,0.02476c0.06744,-0.07546 0.13487,-0.15092 0.20231,-0.22638c0.50039,-0.24431 0.99993,-0.60624 1.5314,-1.02588c0.03227,-0.09646 0.06436,-0.19292 0.09646,-0.28887c-0.0321,-0.09646 -0.06419,-0.19292 -0.09646,-0.28921h-0.09612c-0.47837,0.53488 -0.95691,1.06959 -1.43528,1.60396c-0.16594,0.08126 -0.33223,0.14853 -0.49954,0.20163c-0.19019,-0.01571 -0.16236,-0.04285 -0.28067,-0.36057c0.49117,-0.84389 1.36494,-1.38901 1.63759,-2.40824v-0.09629c-0.06436,-0.03227 -0.12873,-0.06436 -0.19275,-0.09646c-0.5779,0.80275 -1.15615,1.60583 -1.73405,2.40807zM258.84286,197.85255c-0.15194,-0.57773 -0.62366,-0.92259 -0.86677,-1.34855c-2.67491,-4.69048 -5.18149,-8.62022 -9.151,-11.94422c-1.09144,-1.09161 -2.18322,-2.18357 -3.27484,-3.27518c-1.89436,-1.25226 -3.78923,-2.50453 -5.68325,-3.75679h-0.28921c0.03841,4.04139 1.69615,6.97461 2.69728,10.21052c0.25677,1.54113 0.51388,3.08226 0.77065,4.62356c0.32096,1.22 0.64209,2.44016 0.96323,3.66016c0.44952,0.16099 0.89903,0.32113 1.34872,0.48196c-0.0659,-4.89877 -1.80456,-9.56518 -3.27518,-13.77473c-0.25694,-0.60983 -0.51388,-1.22017 -0.77065,-1.83c0.16065,-0.06419 0.32113,-0.12856 0.48161,-0.19292c0.16065,0.09663 0.32113,0.19292 0.48161,0.28938c1.98757,1.52781 4.2297,12.86716 4.91243,16.18229c0.99532,0.41742 1.99082,0.83484 2.98631,1.25226c0.06402,-0.03227 0.12821,-0.06419 0.19258,-0.09646c-0.22467,-1.21966 -0.44952,-2.44016 -0.67419,-3.66033c-0.61017,-1.82965 -1.22017,-3.6605 -1.83034,-5.49033c0.09646,-0.09646 0.19258,-0.19241 0.28904,-0.28887c0.09629,-0.0321 0.19275,-0.06436 0.28904,-0.09646c2.0714,2.75276 3.31444,6.6434 4.14195,10.59584c0.77031,0.35323 1.54113,0.70629 2.31178,1.05935c1.21983,0.83501 2.44051,1.66986 3.66033,2.50453c0.53266,-1.98194 0.89613,-2.79732 0.28887,-5.105zM248.05444,176.27572c-0.17465,-0.46249 -0.50517,-0.69809 -0.96306,-0.86694c-0.03227,-0.12838 -0.06436,-0.25694 -0.09646,-0.38533c0.06419,-0.12838 0.12856,-0.25694 0.19258,-0.38533c1.08188,-0.12292 1.84143,0.72455 2.88985,0.96323c1.56981,0.35681 6.19013,0.59293 6.93568,-0.48161c-4.41579,0.99566 -4.40196,-7.13423 -3.0826,-10.21052c2.96207,-6.90666 12.07841,-15.98613 10.01777,-26.97088c-0.44918,-2.39424 -1.13668,-5.03927 -2.11903,-7.12809c-1.16383,-2.47414 -2.3478,-3.60297 -4.33486,-5.20163c-1.06413,0.36381 -2.97043,3.08294 -4.71968,3.94954c0.16902,0.95247 1.08171,1.77127 1.54096,2.50436v0.48178c0.76689,1.41445 1.28163,3.25811 1.83034,5.105c0.17448,0.58815 0.45942,0.83911 0.28887,1.34855c0.09646,-0.03193 0.19275,-0.06402 0.28904,-0.09629c0.12838,0.73855 0.25694,1.47694 0.38533,2.21549c1.08973,1.80439 -0.57432,4.60615 -0.09612,6.4539c0.13214,0.512 -0.10329,2.76591 -0.3855,3.75645c0.35972,0.75443 -0.15297,2.67696 -0.19275,2.98614c-0.06402,0.12838 -0.12838,0.25694 -0.19275,0.38533c0.8613,4.5073 -5.20675,12.57625 -7.70565,15.12294c-1.41274,1.09161 -2.82583,2.18357 -4.23841,3.27501c-0.37559,0.72234 -2.89907,1.94626 -3.9492,2.21549v0.09646c0.85977,0.99464 5.88214,0.91594 7.70565,0.86694zM218.19388,146.41481c-0.5779,0.16082 -1.15615,0.32113 -1.73371,0.48178c-0.12395,1.22427 0.37662,3.27023 0.96289,4.23823v0.19258c0.25728,-1.63725 0.51405,-3.27518 0.77082,-4.9126zM245.55025,129.65445c0.50364,-0.73412 1.56213,-0.80548 1.83017,-1.83034c0.80531,-3.08209 -2.90419,-6.47882 -5.97228,-5.58679c-0.09629,0.03227 -0.19275,0.06436 -0.28904,0.09629c2.48711,1.39567 4.19163,1.30433 4.81631,4.62356c0.09236,0.49049 0.12651,1.14676 -0.09646,1.54147c-0.08792,0.32728 -0.34247,0.41367 -0.67402,0.2887c-0.33701,-0.40615 -0.00717,-2.15386 -0.3855,-2.98597c-1.16639,-2.56701 -5.19702,-3.13382 -7.51307,-1.44501c2.71059,-0.38959 7.02019,1.21488 6.54984,4.52744h-0.5779c-0.16048,-0.51354 -0.32096,-1.02742 -0.48144,-1.54113c-0.53164,-0.87069 -2.54567,-2.26312 -3.85308,-2.21549c-1.35606,0.04934 -2.58494,0.94837 -3.46758,0.67419c-0.28904,0.48161 -0.5779,0.9634 -0.86694,1.44501c2.14976,-0.92157 5.24551,-1.01171 6.83888,0.57773v0.57807c-0.8893,-0.07939 -0.75938,-0.4514 -1.34855,-0.67419c-1.24322,-0.47035 -3.18145,-0.42647 -4.33435,0c-2.22591,0.82289 -3.06826,4.33811 -4.33452,6.16469c-1.12371,1.31646 -2.24793,2.63291 -3.37164,3.94937c-0.77082,0.64209 -1.54113,1.28419 -2.31161,1.92663c-1.36528,2.01643 -3.80391,5.04047 -6.26166,5.87548c-0.30235,1.07761 -1.1442,8.80819 -1.4445,9.05471c-0.66548,-0.30611 -0.84713,-0.8135 -0.96357,-1.63759h-0.09595c-0.0321,0.99532 -0.06436,1.99082 -0.09646,2.98597c-0.41076,0.25745 -0.41742,0.26667 -0.86694,0.19275c-0.11353,-0.65831 -0.02715,-0.51132 -0.28904,-0.96323c-0.21836,-0.33633 -0.53488,-0.36108 -0.77031,-0.67419c-0.22519,0.19258 -0.44969,0.38533 -0.6747,0.5779c-0.23594,-0.49476 -0.17926,-0.59719 -0.57756,-0.67436c0.04371,-0.59037 0.0799,-0.63646 0.57756,-0.77048c0.37918,-0.1149 1.24919,0.17602 1.63759,0.38515c0.04985,-2.16137 -0.38498,-4.76526 -2.31178,-5.4905c-0.51081,-0.12121 -0.87445,0.37133 -1.25209,0.67436c-0.8753,-0.72933 0.41452,-1.39601 1.1558,-1.63759c1.13788,0.077 1.44279,0.73258 2.11937,1.25243v0.19241h0.09612c-0.13709,-1.36272 -0.33803,-3.3112 -1.44501,-3.85291c-2.27217,-1.14266 -4.69663,3.61099 -4.23823,5.87582c0.85823,4.23806 2.31536,9.41887 6.83922,9.34358c0.15604,-0.18387 1.11944,-1.62598 1.83,-1.05952c0.89921,1.76563 1.79841,3.53195 2.69728,5.29775c2.41404,4.02159 10.9571,12.18546 17.53118,10.30681c7.34798,-2.09991 12.71709,-8.54732 16.18246,-17.04957c0,0 0.95008,-7.1723 0.96323,-7.22438c0.70219,-2.77837 0.95025,-8.22602 0.19258,-11.07729c-0.70629,-2.11886 -1.41257,-4.23841 -2.11903,-6.35744c-0.67402,-1.1558 -1.34872,-2.31195 -2.02274,-3.46776c-1.2847,0.00137 -1.96572,0.38157 -2.98614,0.5779c-1.09161,-0.06419 -2.18339,-0.12838 -3.27518,-0.19258c-0.12838,-0.09629 -0.25677,-0.19275 -0.38515,-0.28904c0.0321,-0.09629 0.06419,-0.19258 0.09646,-0.28887zM231.00521,188.70121c2.87739,1.74429 7.6826,0.98149 9.05437,-1.54096c0.61188,-1.12456 -0.04849,-2.19057 0.09646,-3.17872c-0.34572,0.10824 -0.43757,-0.12258 -0.48178,0c-0.89084,-1.08581 -1.2427,-6.28932 -0.67453,-7.99486c-0.06385,-0.06436 -0.12821,-0.12838 -0.19258,-0.19275c-5.20249,1.75215 -14.67735,-4.73009 -16.37486,-7.60953c-0.54273,1.74924 1.32585,6.76188 -0.77065,7.89874c0.21341,1.09503 0.76365,1.46635 1.34821,2.50436c2.32868,4.13273 3.98915,7.68584 7.99537,10.11372zM230.90892,192.74704c0.19241,-0.12804 0.38533,-0.25677 0.57756,-0.38515c1.53976,-0.55281 8.4681,2.44614 10.49955,2.79322c-0.00734,-2.94039 -0.56578,-5.66156 -0.96323,-7.99486c-1.00625,0.96732 -1.63008,2.26193 -2.98597,2.88985c-4.01459,1.8597 -7.66211,-0.91372 -10.01777,-2.21532c0.81555,2.48046 1.70759,4.20716 2.31178,6.6463c0.82767,-0.20026 0.66156,-0.8106 0.57807,-1.73405zM237.26636,198.43029v-0.09646c-1.76597,-0.44918 -3.53229,-0.89869 -5.29809,-1.34821c-0.80258,-0.12856 -1.60549,-0.25711 -2.40824,-0.38533c-0.2887,0.0321 -0.57739,0.06436 -0.86694,0.09595c-0.0321,0.09646 -0.06436,0.19292 -0.09595,0.28938c2.88934,0.48127 5.77971,0.96289 8.66922,1.44467zM240.63749,199.39368c2.82549,0.86643 5.65132,1.73405 8.47664,2.60065v-0.09663c-1.73371,-0.64192 -3.46793,-1.28419 -5.20146,-1.92628c-0.96323,-0.2245 -1.92663,-0.44969 -2.88985,-0.67419c-0.12838,0.0321 -0.25694,0.06436 -0.38533,0.09646zM238.1333,198.6232v0.09595c0.19241,0.03227 0.38515,0.06419 0.57807,0.09646v-0.09646c-0.09663,-0.0321 -0.19292,-0.06385 -0.28921,-0.09595zM237.36248,198.43029v0.09646c0.19241,0.03227 0.38533,0.06419 0.57773,0.09646v-0.09646c-0.09578,-0.0321 -0.19241,-0.06436 -0.2887,-0.09646zM233.60586,196.504c0.06436,0.06402 0.12856,0.12838 0.19292,0.19224c-0.0321,-0.06385 -0.06436,-0.12821 -0.09646,-0.19224zM233.89472,195.73335c-0.44918,0.03193 -0.89886,0.06419 -1.34821,0.09629c1.76888,1.06959 3.88825,0.87974 5.97194,1.5413c2.02274,0.64192 4.046,1.28436 6.0684,1.92628c0.54598,0.06436 1.09178,0.12873 1.63759,0.19241c1.15717,0.8357 2.90027,1.59883 4.43081,2.02291c-3.18111,-2.54379 -8.27911,-3.74262 -12.61841,-5.00854c-1.38048,-0.25677 -2.7613,-0.51388 -4.14212,-0.77065zM231.58311,195.05933c-0.19241,0.03158 -0.3855,0.06385 -0.5779,0.09578c-0.06436,0.03227 -0.12856,0.06436 -0.19292,0.09663c0.03227,0.22433 0.06436,0.44935 0.09663,0.67402h0.96306c0.03193,-0.06385 0.06402,-0.12821 0.09629,-0.19241c-0.1318,-0.34264 -0.1738,-0.44918 -0.38515,-0.67402zM231.77586,194.19205c1.70144,0.16048 3.40356,0.32113 5.105,0.48144c-1.05439,-0.59856 -2.76266,-1.04022 -4.14195,-1.15598v-0.2887c-0.36655,0.21597 -0.24857,0.11558 -0.86694,0.09629c-0.0321,0.25677 -0.06419,0.51388 -0.09612,0.77065zM261.34739,206.32868v-0.2887c-1.9408,1.20992 -4.33521,0.51644 -5.77936,-0.86711c-0.03227,0.22501 -0.06436,0.44969 -0.09646,0.6747c1.23502,1.38782 4.42688,2.78127 5.87582,0.4811zM264.23724,223.08973c1.84809,-0.15451 3.16506,-0.46386 4.9126,-0.09646c2.62182,-4.28996 1.89675,-9.78422 2.98597,-15.60473c0.70612,-3.43532 1.41309,-6.87166 2.1192,-10.30698c-1.62188,0.4963 -2.34541,2.59501 -3.56421,3.56439c-1.18261,0.94035 -4.34391,3.24615 -5.00888,4.43098c-0.48144,6.00335 -0.96323,12.00893 -1.44467,18.0128zM264.5261,208.44806c0.08297,-1.10561 -0.35835,-1.96214 0.09646,-3.37112c0.68973,-2.1373 4.60341,-3.89013 5.97211,-5.5873c1.03852,-1.28743 2.28224,-3.2605 4.14195,-3.65999c0.35016,0.18387 0.46796,0.24823 0.67419,0.5779c-1.83068,3.90839 -1.5442,9.17217 -2.50453,13.58164c-0.12838,0.67419 -0.25677,1.34855 -0.38515,2.02291c-0.09629,1.41257 -0.19275,2.82583 -0.28887,4.23858c-0.57807,2.24742 -1.15615,4.49517 -1.73405,6.74259c-0.32386,0.55622 -0.89767,0.48366 -0.96323,1.1558c-0.09612,0.22467 -0.19275,0.44969 -0.28887,0.67419c0.64192,-0.35323 1.28436,-0.70629 1.92645,-1.05969c1.32824,-2.33278 1.33916,-8.43345 1.92645,-11.65502c1.01837,-5.58747 1.73166,-12.69063 3.37147,-18.30166c-3.48739,2.07447 -6.31749,5.50928 -9.43987,7.99503c-0.73838,0.60983 -1.47711,1.22 -2.21549,1.82982c-1.9536,2.80022 -0.93847,5.67915 -1.5413,9.92131c-0.09629,1.83017 -0.19258,3.66084 -0.28887,5.49084c-0.25694,1.7979 -0.51388,3.59597 -0.77048,5.39421c0.2245,-0.12821 0.44952,-0.25677 0.67419,-0.3855c0.78175,-1.21436 0.31311,-3.93144 0.67419,-5.87565c0.596,-3.20842 0.71619,-6.42948 0.96323,-9.7289zM228.50068,223.18567c-0.0321,1.18807 -0.06436,2.37648 -0.09646,3.56456c0.39659,0.51781 1.08308,1.00045 1.92663,1.05935c0.22467,-2.11903 0.44935,-4.23858 0.67436,-6.35761c0.62007,-3.90532 0.13573,-8.34365 0.09612,-11.94405c-0.02356,-2.16205 -0.48059,-8.2325 0.09629,-9.44004c5.3698,-0.95845 14.07879,2.11613 18.01262,3.75662c0.73855,0.44935 1.47728,0.89938 2.21566,1.34838c0.63475,1.48547 -0.44149,4.85592 -0.77065,6.4539c-1.23809,6.01411 -1.15,11.88874 -2.98597,17.04974c-0.22467,0.0321 -0.44952,0.06436 -0.67436,0.09629c-0.67436,-1.43835 0.77202,-4.57234 1.15598,-6.06857c1.38133,-5.38533 0.89972,-11.51093 2.60082,-16.7607c-2.31605,-2.68942 -13.66,-5.1721 -18.87973,-5.00871c0.09629,3.04982 0.19258,6.10067 0.28921,9.15066c-0.03227,3.40356 -0.06436,6.80747 -0.09663,10.21069c-0.11814,1.52952 -0.02732,3.85086 -0.2887,5.39421c-0.15997,0.94291 -0.67112,1.36682 -0.67453,2.69659c0.96323,0.44969 1.9268,0.89938 2.88985,1.34889c0.70612,0.06436 1.41292,0.12856 2.1192,0.19292c0.99242,0.5919 1.97767,3.32196 2.40807,4.43098c0.06419,0.0321 0.12856,0.06385 0.19292,0.09578c0.16372,-2.66552 1.76427,-4.43371 2.02257,-7.41678c0.13214,-1.5273 -1.17954,-4.60171 -0.9634,-6.0684c0.1796,-1.21727 1.12542,-1.69598 2.11937,-2.1192c2.57265,-0.00461 3.4442,3.74074 3.3713,6.16486h0.09646c0.2887,-1.70144 0.57773,-3.40373 0.86677,-5.105c1.14181,-4.27067 2.15693,-8.69773 2.50453,-13.197c-2.31349,-1.08751 -4.65309,-1.3675 -7.03163,-2.21515c-2.34012,-0.83399 -4.64951,-1.72176 -7.41747,-1.83c-0.7307,5.33941 -0.03244,12.18956 -0.86643,18.30149c-0.23987,1.75675 0.09783,4.49193 -0.48196,6.74259c1.46874,0.41025 3.83003,0.58815 5.2018,1.44501v0.28887c-1.40967,0.48947 -4.67239,-0.54 -6.06874,-1.05986c0.16099,-1.99013 0.32113,-3.98112 0.48196,-5.97177c0.2887,-6.83837 0.57756,-13.67861 0.86694,-20.51749c1.08564,-0.56493 3.6395,0.18472 4.81631,0.57824c2.53611,0.73838 5.07291,1.47728 7.60919,2.21566c1.14249,0.4403 2.2889,1.07676 3.85325,1.05952c-0.15724,5.06078 -1.57579,10.07069 -2.60082,14.44858c-0.47359,2.02206 -0.15912,4.55817 -1.05969,6.16503c-0.19685,0.33906 -0.18746,0.32369 -0.67402,0.3855c-0.82836,2.76096 3.08636,4.48408 5.39404,4.04497c4.40759,-0.83826 6.58143,-3.82218 10.30664,-5.39387c0.34384,-0.65797 0.06914,-1.61266 0.28904,-2.60099c0.54495,-2.44614 0.51764,-5.46284 0.96323,-8.28389c0.0321,-2.53628 0.06419,-5.07325 0.09646,-7.60953h-0.09646c-0.90279,4.36713 -1.23895,8.8215 -1.92628,13.19666c-0.27145,1.72671 0.42254,4.76424 -0.67453,5.87565c-0.19258,0.06402 -0.38515,0.12838 -0.5779,0.19258c-0.09646,-0.06419 -0.19258,-0.12856 -0.28904,-0.19258c0.49339,-3.56643 1.05593,-8.94989 1.73405,-12.61859c0.34503,-1.86721 0.11336,-3.56421 0.5779,-5.20146c-0.0321,-0.09629 -0.06419,-0.19292 -0.09646,-0.28887c-2.21378,0.72285 -5.24687,0.88111 -6.16469,-1.34872c-0.06419,-0.0321 -0.12838,-0.06436 -0.19258,-0.09629c-1.12371,7.89754 -2.24759,15.79816 -3.3713,23.69587c-0.19275,0.06436 -0.3855,0.12873 -0.57807,0.19275c-0.85584,-0.91508 0.09817,-4.72941 0.38533,-6.26132c0.5779,-3.94886 1.1558,-7.89891 1.73371,-11.84794c0.20384,-1.89521 1.08734,-4.72207 0.86694,-6.6463c0.18387,-0.95094 -4.12624,-2.26483 -5.20129,-2.6971c-4.6647,-1.87558 -10.19037,-2.94466 -15.79747,-4.14212c-1.38048,-0.2245 -2.7613,-0.44952 -4.14178,-0.67402c-0.49544,2.70479 -0.063,5.64756 0.3855,8.47647c0.90877,5.73583 -0.5219,11.27601 -0.48196,16.66407zM221.18002,173.6749c0.0321,0.09629 0.06419,0.19275 0.09646,0.28887v-0.28887zM257.39819,118.76957c-1.35897,-3.46161 -4.65122,-5.6829 -8.18794,-6.93517c-9.14707,-3.23915 -15.70716,1.86124 -18.97585,7.32066c-1.14522,1.91314 -1.55035,4.05744 -2.40824,6.26098c-1.40114,3.60007 -3.51658,7.03948 -6.16452,9.43987c2.28941,0.55178 8.17087,-4.07417 9.24729,-5.58679h0.19241c0.06436,0.03227 0.12856,0.06436 0.19292,0.09629c0.0321,0.09646 0.06419,0.19275 0.09646,0.28904c-2.44085,3.48688 -12.15097,9.02774 -16.47167,6.35727c0.0968,-0.09561 -0.01963,-0.08109 -0.09663,-0.09612c0.3843,-0.43808 1.50716,-0.33325 1.73422,0c0.43142,-0.72131 1.86619,-0.4362 2.69676,-0.77048c1.164,-0.46881 2.53645,-1.56947 3.27518,-2.5047c3.09541,-3.91932 4.30909,-8.96116 6.6463,-13.77439c0.83433,-1.71851 2.31639,-2.96668 3.37164,-4.43081c-0.03227,-0.06436 -0.06419,-0.12873 -0.09646,-0.19275c-2.84854,-0.42647 -6.89215,-0.57876 -9.72907,0.5779c-5.08622,2.07413 -13.24771,11.42983 -15.89342,16.18246c-0.51371,1.34855 -1.02776,2.69728 -1.54113,4.04583c-1.31611,3.09165 -2.95473,7.58973 -2.21549,11.5589c0.60454,3.24701 1.45252,6.9029 2.88968,9.34358c1.28402,1.57306 2.56906,3.14679 3.85291,4.71968c0.77048,1.15598 1.54147,2.31212 2.31212,3.46776c0.0321,0.70646 0.06385,1.41274 0.09612,2.11937c0.74368,3.37095 1.03783,7.41644 -2.21566,8.38018c2.38024,1.60447 6.44946,-1.14488 7.80228,-2.31195h0.48178c0.17055,0.45276 -0.04934,0.73036 -0.19258,1.34872c0.92396,-0.07717 1.18193,-0.44627 1.54113,-1.05952h0.3855c-0.03227,0.22484 -0.06436,0.44952 -0.09663,0.67419c0.78345,-0.36603 1.23383,-0.93694 1.92645,-1.25226c-0.19241,-1.79773 -0.38515,-3.59614 -0.57756,-5.39421c-1.39106,-2.05757 -2.59348,-3.38478 -3.4681,-5.77953c-8.87904,3.72572 -12.54569,-16.65349 -3.27467,-16.66424c0.62707,0.53607 1.18022,0.92481 1.63742,1.63759c2.59399,-0.24516 5.19736,-2.18835 6.35744,-3.9492c-2.28378,0.4951 -8.67246,3.96269 -10.21052,0.5779c0.09629,-0.12838 0.19275,-0.25694 0.28887,-0.38533c7.924,3.08363 16.9963,-6.08308 19.65021,-11.36632c1.60566,-3.19579 2.06781,-6.20174 5.20163,-8.28389c4.6548,-3.0925 9.91977,-0.53625 10.78842,4.43098c0.23475,1.34206 -0.62434,1.7571 -0.77065,2.6971c5.43382,0.24755 12.26006,-4.83065 9.92165,-10.78859zM206.63498,185.90799c1.28743,-2.13884 3.48773,-4.85062 5.20129,-6.16486c1.73319,-1.32841 3.21764,-2.25647 4.33486,-4.23823c-0.83279,-0.35886 -2.21395,0.22689 -2.98614,0.3855c-2.2201,0.45618 -5.799,0.00205 -6.93551,-1.25226c-0.23492,-0.22962 -0.19685,-0.56237 -0.19241,-1.05969c0.80787,-0.06522 1.66303,0.31396 2.31161,0.19275c3.86537,-0.72302 3.79742,-6.49641 2.5047,-9.63261c-1.18995,-2.88644 -3.8932,-4.87504 -5.49084,-7.41695c-2.62847,-4.18275 -4.14007,-12.07739 -2.60047,-17.82005c2.37307,-8.85172 7.32408,-14.70911 13.09986,-20.132c1.84707,-1.73388 3.68133,-3.74245 6.26149,-4.71985c1.93789,-0.73412 5.29399,-1.55189 7.99486,-1.05952c1.18756,0.16048 2.37597,0.32113 3.56404,0.48178c0.77048,-0.57807 1.54096,-1.15615 2.31161,-1.73405c2.21873,-1.40216 5.02715,-1.78373 8.76551,-1.73371c1.47694,0.2887 2.95439,0.57773 4.43081,0.86694c3.95688,1.27241 8.40391,4.09073 9.34375,8.38018c0.46557,2.12552 -0.33974,4.03593 -0.67436,5.58679c5.1301,2.22266 5.96255,8.7976 7.0318,15.2194v4.81631c-1.87712,7.05707 -5.82478,11.3554 -8.57293,17.24197c-1.20429,2.58016 -3.87715,7.68994 -1.63742,10.981c0.54051,0.79438 2.2872,1.6719 3.85291,1.34872c0.57824,-0.11968 0.78892,-0.58115 1.44484,-0.38515c0.1837,0.14563 0.17363,0.17021 0.28904,0.38515c-2.21703,2.20456 -6.15513,2.19176 -9.53616,2.02274c0.06419,0.03227 0.12838,0.06419 0.19258,0.09629c0.06419,0.09629 0.12838,0.19258 0.19275,0.28887c-1.04108,1.21249 -4.00793,1.11056 -6.26115,1.05952c-0.0321,0.03227 -0.06436,0.06436 -0.09646,0.09646c3.20142,4.54776 7.78811,7.61858 10.98117,12.2336c0.93113,1.21948 1.86243,2.44034 2.79339,3.65982c0.12838,0.09663 0.25694,0.19292 0.38533,0.28921c0.50791,-1.09605 1.96726,-1.76751 3.3713,-1.9268c1.18671,-4.17251 2.32407,-8.78548 4.33469,-12.23292c0.2047,-0.34435 0.37423,-0.42186 0.86677,-0.48178h0.09646c0.14836,0.72951 -0.50073,2.13337 -0.67436,3.08226c-0.28887,2.7613 -0.5779,5.52294 -0.86694,8.28423c-0.16987,1.46584 1.46038,0.83996 1.5413,2.02291c2.37239,-1.78766 4.28245,-5.147 6.74259,-7.6097c0.81828,-0.81914 1.42316,-2.28037 2.98614,-2.31161c0.0321,0.03175 0.06419,0.06368 0.09646,0.09595c-0.51354,1.57323 -1.02742,3.14679 -1.5413,4.72019v0.09612c1.46328,-0.49766 2.0953,-2.19296 3.85291,-2.40824c0.43586,0.40171 0.84457,0.92311 0.96323,1.63759c-0.86677,3.88466 -1.73371,7.77069 -2.60065,11.65536c-2.07959,8.4273 -2.48131,17.89602 -3.56404,27.3562c-1.87524,0.77663 -9.09193,7.20474 -10.11389,8.86179c-1.95411,3.16848 -3.40664,6.98639 -6.06857,9.4397c-4.14382,3.81962 -12.59178,4.61297 -18.01262,3.6605c-1.02759,0.06419 -2.05518,0.12856 -3.08243,0.19292c-1.97357,0.90535 -5.77083,2.22932 -7.70633,1.44467c-1.12371,-0.77065 -2.24759,-1.54113 -3.37112,-2.31161c-2.11869,-1.27617 -4.08339,-2.1571 -6.16469,-3.27535c-3.81262,-2.04699 -7.13014,-3.18572 -10.78859,-5.29792c-0.87035,-0.50244 -2.87722,-1.10988 -3.08243,-2.21515c-0.03175,0.09646 -0.06385,0.19241 -0.09612,0.28887c-1.08803,-0.85499 -1.22683,-2.19449 -2.02274,-3.37112c-1.95582,-2.89054 -3.01038,-6.25551 -3.75696,-9.82553c0.06436,-0.57739 0.12873,-1.15563 0.19309,-1.73371c-2.85195,-14.47624 -0.3662,-25.27046 6.16452,-36.12188" fill="#1a1919"/></g><path d="M246.87405,155.27968c0.29962,-1.6719 1.10681,-2.92622 1.80268,-2.80142c0.69621,0.12463 1.01752,1.58125 0.71807,3.25315c-0.29962,1.6719 -1.10681,2.92622 -1.80302,2.80142c-0.69587,-0.12463 -1.01735,-1.58108 -0.71773,-3.25315" data-paper-data="{&quot;index&quot;:null}" fill="#1a1919"/><path d="M229.57079,154.10817c0.26087,-1.63008 1.03869,-2.86066 1.73695,-2.74901c0.69809,0.11182 1.05286,1.52389 0.79182,3.15379c-0.26087,1.63008 -1.03869,2.86083 -1.73695,2.74918c-0.69792,-0.11182 -1.05286,-1.52389 -0.79182,-3.15396" data-paper-data="{&quot;index&quot;:null}" fill="#1a1919"/></g></g></svg>