<svg width="81.397" height="140" xmlns="http://www.w3.org/2000/svg"><defs><clipPath id="prefix__a"><path d="M.06.905h476.772V820.94H.06z"/></clipPath><clipPath id="prefix__b"><path d="M.06.905h476.772V820.94H.06z"/></clipPath></defs><g clip-path="url(#prefix__a)" transform="matrix(.17072 0 0 .17072 -.01 -.155)"><path d="M433.878 445.528c-7.541-12.528-20.429-28.412-30.466-36.11-10.152-7.781-18.847-13.217-25.391-24.825 4.878-2.102 12.968 1.329 17.491 2.258 13.004 2.672 33.967.012 40.624-7.335 1.376-1.345 1.153-3.294 1.127-6.207-4.732-.382-9.741 1.839-13.54 1.129-22.641-4.235-22.243-38.052-14.671-56.422 6.97-16.907 22.804-28.555 32.162-43.444 15.396-24.5 24.25-70.742 15.232-104.379-13.9-51.848-42.9-86.157-76.731-117.921-10.819-10.156-21.563-21.921-36.676-27.646-11.351-4.3-31.009-9.09-46.829-6.206l-20.876 2.822-13.54-10.157C248.798 2.872 232.348.637 210.451.93c-8.651 1.691-17.305 3.384-25.953 5.078-23.177 7.453-49.225 23.961-54.73 49.086-2.727 12.45 1.99 23.64 3.95 32.724-30.049 13.019-34.925 51.531-41.188 89.146v28.211c10.995 41.336 34.118 66.513 50.215 100.993 7.054 15.113 22.71 45.043 9.591 64.32-3.166 4.653-13.397 9.793-22.568 7.9-3.387-.701-4.621-3.404-8.463-2.256-1.076.853-1.017.997-1.693 2.256 12.986 12.913 36.053 12.838 55.857 11.848l-1.128.564-1.129 1.692c6.098 7.102 23.476 6.505 36.674 6.206l.565.565c-18.752 26.638-45.618 44.625-64.321 71.657-5.454 7.143-10.909 14.294-16.362 21.437-.752.566-1.505 1.13-2.257 1.694-2.975-6.42-11.523-10.353-19.747-11.286-6.951-24.44-13.613-51.46-25.39-71.653-1.199-2.017-2.192-2.471-5.077-2.822h-.565c-.869 4.273 2.933 12.496 3.95 18.054l5.078 48.524c.995 8.586-8.554 4.92-9.028 11.849-13.896-10.471-25.084-30.148-39.494-44.573-4.793-4.798-8.336-13.357-17.491-13.54l-.565.562 9.028 27.648v.563c-8.571-2.915-12.273-12.845-22.568-14.106-2.553 2.353-4.947 5.407-5.642 9.592l15.233 68.27c12.181 49.362 14.534 104.824 20.876 160.236 10.984 4.549 53.255 42.201 59.241 51.907 11.446 18.559 19.954 40.922 35.546 55.292 24.272 22.373 73.755 27.02 105.507 21.441l18.055 1.13c11.56 5.303 33.802 13.058 45.139 8.462l19.746-13.54c12.41-7.475 23.918-12.635 36.109-19.185 22.332-11.99 41.764-18.66 63.193-31.032 5.098-2.943 16.853-6.501 18.055-12.975.186.565.374 1.127.563 1.692 6.373-5.008 7.186-12.854 11.848-19.746 11.456-16.931 17.633-36.641 22.006-57.552l-1.131-10.155c16.705-84.793 2.145-148.019-36.108-211.58" fill="#fffffe"/></g><path d="M.646 77.97l1.96 8.825 1.526 7.08.98 8.28 1.09 9.913.326 3.595 3.486 2.832 3.813 3.486 3.922 3.486 25.273-.327 2.07-4.466 2.723-.218 5.23-3.05-.872-16.995 1.089-6.318-.109-2.941-.872-3.813-7.843 1.307-6.645 1.852-6.318 1.852-4.14 1.852-1.307.11-2.941 1.633-3.05.11-.872-.763-4.902-5.23-3.813-4.139-3.268-3.05-2.506-2.506-1.089-1.307-1.198-.98-1.961-.872.218.763" fill="#712424"/><path d="M39.972 77.208l2.505 2.18 1.743.435 1.307.218h1.743l3.16-.98 2.832-2.288 1.634-2.397 2.07-3.159 2.178-4.14.763-1.307-1.09-.98v-2.07l.218-4.14v-2.396l4.576-5.011 2.505.327 2.942-1.526 3.05-9.804-1.307-4.03-5.883-4.576-14.924-11.438-4.684-3.595-6.972.436-5.011 1.96-4.03.11-2.289-.218-3.812 11.656 1.198 18.737 5.992 9.804 3.594 3.704 5.665 2.179 1.743 1.743-.109 3.486-1.634 5.556" fill="#f3b991"/><path d="M22.869 15.333l-2.615 2.288-1.307 2.07-1.307 2.832-.763 3.268-.653 4.14v3.05l.436 3.921 1.743 4.358 1.742 3.377 1.961 3.268 2.179 4.03 1.634 2.833.763 3.05.326 3.05-1.198 3.268-1.634.872-1.634.327 2.07.98h1.852l1.743-.109 1.416-.109 1.743-.109v.545l1.416.436h1.96l1.635-.218 2.179-.11 1.525-.217 1.09-1.09-2.506-.98-2.397-1.634-2.614-2.07-1.634-1.198-2.07-2.288-2.506-4.14-1.634-3.267-.762-2.941-.763-5.883-.436-3.595-.109-3.595.11-2.178 1.089-3.704 1.307-4.467 1.198-1.96.872-1.852 1.743.217 1.96.327 1.961-.218 1.526-.109s3.05-2.07 4.14-1.634l.87-.762 1.526-.218 2.396.218 2.07.98 1.525 2.941 2.832 4.467 3.704 3.486 2.397 2.941 2.832 2.07 1.961 1.634 1.198 7.407 1.961-4.03.327-3.05.871-1.634 1.308.109 1.634.762 1.416 2.179.762 2.288-.762 5.01-2.832 4.794-2.397.98-1.743-.218-.871-.217-1.525 2.723-1.743 2.832-.436 1.307-.218 5.774 1.634 1.525 1.307.327 1.96.218h1.526l2.288.218 1.852.435 1.852-.108.87-.763-1.524-1.198-1.198-1.525-.436-2.07-.218-3.377.545-2.724 1.852-2.287 2.287-3.268 1.634-2.179 1.743-3.268 1.199-5.011.326-3.813-.762-5.011-1.743-5.229-1.743-4.03-2.724-3.378-2.396-2.94-4.358-4.25-2.178-2.287-2.615-1.852-3.05-1.307-3.268-.436-3.377.109-2.832.545-3.704-2.288-2.179-.871-2.397-.218-3.812.109-3.704.762-3.922 1.852-2.505 2.07-1.634 1.852-.763 2.287v1.852l.218 1.525.545 1.634-.436.763" fill="#402820"/><path d="M15.025 82.546l-1.743.436.218 1.09 2.179 2.07-.654-3.596M18.185 82.764l2.178 5.992.872-1.308.218-1.634-.763-1.96-1.198-.872-1.307-.218M43.458 124.813l-1.199.218-.653-1.96-1.198-3.16-.654-2.397.109-2.287.653-2.942v-1.524l-.653-1.09-1.307-.436-1.743 1.743-.545 2.07-.327 2.506-.436 2.614-1.089 1.634-1.198.654-1.743.435-2.07.11-2.397-.545-2.287-1.308-2.833-1.851-3.595-2.18-1.742-1.198-2.07-.653-1.634.109-1.09.544 1.09 2.07 1.96 1.634 1.199 1.634.98 2.288.436 3.16 1.416 3.05 2.07 4.03 2.07 2.288 2.07 1.743 2.505.762 1.634.763 2.288.435 2.179.218 2.07.11 2.94-.545 3.487-.654 1.525-.436 1.089-.327 1.416-.435.327-2.833v-1.634l-1.198-4.248-.763-1.743-1.09-.436" fill="#f3b991"/><path d="M12.411 115.99l-3.922-2.07-.762-5.447-2.288-16.885L3.914 83.2l2.941 2.396 3.813 2.833 3.486 3.05 3.159 2.941.436 3.377 1.416 17.866-1.96-1.744-1.417-14.706-.218-3.377-.871-1.416-4.685-3.813-1.634-2.07-1.634-1.525-.98-.326 1.852 7.298 1.09 8.17.435 3.922v1.852l1.525 4.575.763 1.416.98 2.07M33.762 120.456l-.435-3.486-1.634-5.883-.654-7.952-.545-3.16-.871-4.465 1.852-1.635 6.1-1.851 2.941-.763 2.18-.327 3.158-.762 1.852.109 1.199.108.435.98-.218 8.716-.217 4.684.544 7.299.11 3.813.653 2.723-2.942.98-2.505.327-4.14.98-.217-.98 2.832-.871 5.12-1.199-.327-2.614-.436-8.933-.327-5.229-.435-6.318-.327-2.397-2.506.218-3.159 1.09-4.03 1.198-4.358 1.09-.762.544-.11 2.178 1.526 6.972 1.634 7.953.218 2.288.762 1.198s-.435 2.94-1.96 3.377M18.402 95.618l.98 1.634 1.2.872 1.633.218 1.416-.327 1.199-.763 1.089-1.089-.218-1.743-1.96 1.634-1.635.654-1.198-.218-1.198-.545-.872-.762-.436.435" fill="#f6bc25"/><path d="M40.298 66.968L36.377 69.8l-2.833 2.18-2.505 2.831-2.723 2.288-3.05 3.268-2.724 4.902-.654 1.416-.762 2.18.109 2.287.653 2.396 1.743-1.198 2.615-1.96 2.723-.981 2.07-.763 4.03-1.307 2.288-1.09.763-4.139.871-3.813 1.199-4.03.87-2.724.437-2.07.218-1.742-.327-1.09-1.09.327M50.444 85.842l1.366-3.585 1.366-4.268 1.72-3.613 2.206-4.07 2.042-3.229 1.543-3.088 2.903 1.366 3.073 2.902 2.902 2.39 1.878 2.22 1.707 3.073 1.878 3.415 1.878 2.902.854 2.902 2.049 4.78.853 3.927.512 4.439-.341 4.268-.17 4.097-.342 4.61-.683 3.585-.512 2.732-1.708 4.78-2.39 2.732-1.024 1.366-4.097 2.56-6.147 2.561-4.097 2.049-3.414 2.732-3.244 2.048-2.22 1.366-2.731-.341-2.561-.854.341-2.049.683-2.902-.01-2.405-1.014-2.546-1.366-2.56-1.024-1.367.512-1.878 1.477-2.215 2.178-1.09 2.662-.621 3.244-2.049-.342-3.585-.512-7.17-.17-4.952.34-2.902.513-3.585.512-2.39-.683-3.073-.17-1.537v-1.536l-2.22-.342" fill="#eca8c1"/><g fill="#b98499"><path d="M60.858 84.647l-8.024 31.243 1.195.512 2.561-.683 5.292-2.902.342-7.683-.512-15.195-.512-3.585-.342-1.707"/><path d="M72.297 75.086c2.56 9.39 1.365 39.267-1.537 43.364-3.244 4.61-24.243 13.658-24.243 13.658l-1.024 6.488 3.414 1.024 2.05-.512 1.877-1.195 10.926-5.805 7.683-4.097 2.56-1.536 1.879-1.708 3.927-9.048v-3.756l.682-3.927s4.098-18.78-8.194-32.95"/></g><path d="M39.518 76.623c-.513 1.878-1.537 8.707-1.537 8.707l5.293-1.537s-3.244-1.878-3.756-7.17" fill="#b4b5b4"/><path d="M41.17 65.335s6.756 5.227 17.64.96c-.214-1.708-.193-5.03.117-9.13-5.24 5.074-14.055 10.198-17.757 8.17" fill="#c49779"/><g clip-path="url(#prefix__b)" transform="matrix(.17072 0 0 .17072 -.01 -.155)"><path d="M397.03 226.716c-10 1.25-20 6.25-17.5 38.75 5-3.75 8.75-7.5 12.5-2.5 0-8.75 5-36.25 5-36.25M269.53 774.216c-20 0-64.009 35.962-147.004-1.394 17.004 26.394 64.504 52.644 147.004 26.394v-25" fill="#c49779"/><path d="M281.542 337.2c3.163-1.965 6.608-8.176 7.897-8.463v-2.822c-1.241-.226-1.124-.511-3.384-1.128-8.866 8.298-27.036 22.758-45.136 14.105-4.44-2.122-7.849-6.189-11.85-7.334l-1.128 3.386c15.303 14.149 34.985 13.815 53.601 2.256zM159.671 201.789c.904.929 1.469 2.985 3.949 2.257.849-.25 9.873-14.865 19.184-17.491 10.025-2.828 19.711 4.503 25.953 9.028 3.335-.637 1.513-.833 3.386-.564-1.678-10.65-17.305-13.021-25.954-14.671-12.668 5.515-21.834 5.263-26.518 21.441zm106.072-9.592c4.38-3.1 5.895-7.593 11.848-9.591 25.478-8.552 42.5 13.988 54.165 19.748v-1.13c.377-.375.753-.752 1.13-1.129-10.174-14.488-26.762-24.262-51.909-23.695-4.341 2.597-20.441 4.524-18.619 10.719h-1.693c1.107 2.793 2.557 3.773 5.078 5.078zm45.137 318.779v-1.692h.565l-.565 1.692zm-1.692.565v-1.692h.565l-.565 1.692zm51.343 2.257v-1.692h.565l-.565 1.692zm-53.037-3.949v-2.256c.189.752.377 1.503.564 2.256zm127.512 227.377c-7.473 5.905-16.516 8.97-25.954 12.978-18.263 7.758-35.573 17.909-53.6 25.954-8.274 5.641-16.55 11.283-24.823 16.925-9.663 5.637-30.606 9.412-33.289 21.439-9.71 1.72-15.059-.466-25.389-2.818-1.305-7.383 5.394-32.14 2.256-47.959-1.949-9.819-4.356-17.765-8.464-27.084l-6.205-10.718c-.067-7.602 4.229-14.606 10.718-17.493 13.933 4.872 46.076-18.467 62.63-26.516 6.254-3.042 17.056-10.83 24.824-7.9 1.172-1.441 1.199-.844 1.691-3.383 11.92-3.093 21.287 5.798 31.033 7.332 1.325-9.507-17.299-9.524-24.261-12.975h-1.128c12.353-11.966 40.942 1.038 47.959 11.848h2.256c.562-.377 1.127-.753 1.692-1.13-1.052-19.396-33.249-17.498-50.215-18.053-4.043 6.318 3.618-36.465 1.694-45.137l-5.644-82.939c-1.791-10.81.467-22.812-4.513-32.161-.941-1.347-1.355-1.468-2.822-2.258-2.792 3.828 2.659 28.49 1.693 37.239-3.531 32.009-1.276 73.864-3.949 106.637-.544 6.671-.762 16.369-3.386 22.004-3.122 4.801-30.13 18.3-36.672 20.876-.832-41.413-8.278-87.067.563-132.025 3.056-15.541-4.828-30.491-1.129-44.573 4.789-18.232 15.151-33.682 22.004-49.652 5.267-11.845 10.534-23.697 15.798-35.546l14.671-27.646c-1.355-1.634-1.194-1.784-3.949-2.256-10.585 20.74-20.145 39.985-30.467 62.063-7.515 16.068-17.497 31.606-22.571 50.215-2.351.142-6.264-.504-9.591.565 1.23-29.063 26.112-64.57 37.237-83.505l20.878-38.93c7.897.912 47.418 36.386 53.035 43.444 31.671 39.793 73.242 112.467 61.5 181.677-4.417 26.036-1.381 52.161-12.414 71.091 6.9 7.858-17.593 55.55-23.697 60.37zm-166.443 58.116l-19.748 5.639c-32.222 8.828-58.453 9.03-85.758-2.255-11.751-4.855-29.036-7.555-31.596-20.876l12.412 7.335c.565-.564 1.129-1.13 1.693-1.692 1.453-5.416-9.962-9.213-14.105-12.413-9.875-7.625-18.182-19.597-23.134-32.16v-1.694c8.885 7.237 11.448 15.692 21.441 22.57 2.256-.361 1.679.044 2.821-1.129.375-.566.752-1.127 1.129-1.693-2.917-3.772-12.549-12.23-18.056-18.618-10.473-12.152-12.698-21.981-17.49-36.111 12.596 4.951 28.164 22.451 32.724 35.546l2.822 1.129 3.385-3.386c-10.562-20.779-28.058-31.573-44.009-46.265-7.134-6.572-18.631-9.469-21.44-20.313v-.563c14.921-9.194 32.335 6.592 41.188 12.976 13.554 9.775 47.817 39.12 78.426 31.033 36.547-9.658 10.741-48.701 34.417-68.835 4.36.651 5.565 2.56 7.898 5.078 1.84 12.073-7.056 25.271-4.514 40.624 2.735 16.521 9.662 26.583 11.85 41.752-3.682 5.185-7.533 7.946-12.415 11.848v2.257c2.167 1.414 1.918.323 2.258 1.692 5.011-1.372 6.508-5.531 10.719-7.335 4.137-1.127 8.276-2.257 12.414-3.385 9.845 2.786 12.564 26.619 15.234 38.365l-.566 20.879zM58.113 688.139c-5.454-3.382-10.908-6.77-16.362-10.156l-7.335-68.832c-2.821-21.061-5.642-42.13-8.464-63.191-6.392-29.338-12.788-58.684-19.182-88.019 14.355 7.932 23.045 23.007 35.545 32.724 15.839 12.315 31.695 28.219 43.445 44.573-7.522-6.77-15.047-13.54-22.569-20.311-13.002-9.273-28.742-17.838-38.367-30.467-1.692.377-3.385.751-5.077 1.127l9.027 49.087c5.982 27.179 6.643 54.132 12.977 81.812l1.128 16.925c2.393 9.852 6.383 23.776 6.77 35.545 24.599 17.137 41.709 18.059 49.651 54.165-10.236-4.116-30.724-26.883-41.187-34.982zM5.077 453.427c.753-1.314 1.505-2.632 2.257-3.948 13.212 4.147 19.344 15.841 28.775 23.697 18.841 15.694 38.888 32.741 54.164 51.905 6.394 8.089 12.789 16.177 19.183 24.262l-2.257 1.129-27.082-31.596-20.311-18.618-8.464-10.158c-12.126-9.162-21.398-20.925-33.289-29.902-3.941-2.975-10.604-3.352-12.976-6.771zm66.013 38.368c7.772 7.477 19.494 18.449 23.132 29.338-8.649-9.027-17.303-18.057-25.954-27.082l-29.902-25.953-5.642-23.697c6.775 4.433 38.387 43.004 38.366 47.394zm11.284-3.952h1.129c3.393 3.027 4.775 7.366 4.514 14.106-3.56-2.864-7.645-7.475-9.029-12.411 1.129-.565 2.258-1.129 3.386-1.695zm11.285 9.593l-.565 1.695v-1.695zm3.385 16.926h-.565v-2.256l.565 2.256zm3.385-36.673c7.282 23.238 16.328 44.254 23.132 67.141-3.525-2.835-7.259-3.653-10.155-6.771-4.069-4.38-9.824-18.788-14.106-18.618-6.383-23.608-12.637-56.052-12.411-85.197 7.411 11.599 9.164 29.482 13.54 43.445zm15.799 11.284c5.972 5.575 12.182 18.621 4.513 28.211v1.127h-.565l-10.72-29.902 6.772.564zm10.72 69.397h4.513c-.565-1.503-1.128-3.007-1.693-4.513 7.137-12.26 24.45-15.71 36.109-23.697h1.128c-8.67 7.401-23.561 8.978-29.902 18.618v1.694c1.142 1.757.268 1.208 2.821 1.693 6.365-4.53 12.82-8.907 20.311-12.413.277 2.897.515 2.921 1.693 4.513-2.445 1.506-4.889 3.01-7.334 4.513-1.504-.187-3.01-.373-4.514-.561-2.633 2.63-5.267 5.265-7.899 7.897-7.264 6.19-13.036 7.254-18.571 5.498-.392.033-.939.058-1.741.145l-1.185-1.326c-2.931-1.431-5.857-3.551-8.97-6.009l-.565-1.692.565-1.694h.563c2.802 3.133 5.605 6.265 8.407 9.395a21.3 21.3 0 002.926 1.181c1.114-.092.951-.251 1.644-2.112-2.877-4.943-7.995-8.136-9.592-14.106v-.564l1.129-.565c3.385 4.702 6.772 9.406 10.157 14.105zm1.128-42.878c.89-3.384 3.653-5.404 5.077-7.899 15.668-27.474 30.35-50.492 53.601-69.962l19.182-19.184c11.096-7.335 22.195-14.67 33.289-22.005h1.694c-.225 23.672-9.935 40.853-15.799 59.807l-4.514 27.082-5.642 21.439c-2.633.943-5.266 1.881-7.9 2.823.386-28.694 10.57-56.027 19.184-80.684l4.514-10.719-2.821-1.13-2.821 1.695c-11.642 8.949-24.775 75.368-28.774 94.786l-17.492 7.335c-.375-.189-.751-.376-1.128-.565l3.949-21.44c3.574-10.717 7.147-21.441 10.721-32.159l-1.693-1.692-1.693-.565c-12.133 16.124-19.414 38.913-24.261 62.064-4.512 2.069-9.027 4.137-13.541 6.205-7.145 4.891-14.295 9.781-21.44 14.67-3.12-11.609-5.249-16.385-1.692-29.902zm63.192-126.384c1.023-2.709 2.959-4.089 5.641-5.078l.565-2.257-1.128-2.257c-6.337-.72-10.786 4.244-16.927 5.642-9.195 2.09-36.258 3.473-40.625-2.821 25.865 5.832 25.784-41.788 18.056-59.807-17.35-40.455-70.748-93.637-58.678-157.979 2.631-14.024 6.658-29.517 12.412-41.752 6.817-14.492 13.752-21.104 25.391-30.468 6.233 2.131 17.399 18.058 27.645 23.134-.99 5.579-6.336 10.375-9.026 14.669v2.822c-4.492 8.285-7.507 19.084-10.721 29.902-1.022 3.445-2.691 4.915-1.692 7.899-.565-.187-1.129-.375-1.693-.564l-2.257 12.977c-6.383 10.569 3.364 26.98.563 37.803-.774 2.999.605 16.201 2.258 22.003-2.107 4.419.896 15.68 1.129 17.491.375.752.752 1.505 1.129 2.257-5.045 26.401 30.498 73.664 45.135 88.581l24.826 19.183c2.2 4.231 16.981 11.4 23.132 12.977v.565c-5.036 5.826-34.454 5.365-45.135 5.078zm174.905-174.907c3.385.942 6.772 1.881 10.155 2.822.726 7.171-2.206 19.155-5.64 24.825v1.128c-1.507-9.59-3.011-19.184-4.515-28.775zm-160.237-98.172c-2.95-4.3-9.15-4.718-10.72-10.721-4.717-18.053 17.011-37.949 34.982-32.724a559.4 559.4 0 001.693.564c-14.568 8.175-24.552 7.64-28.211 27.082-.541 2.873-.741 6.717.565 9.029.515 1.917 2.006 2.423 3.948 1.691 1.974-2.379.042-12.616 2.258-17.49 6.832-15.036 30.441-18.356 44.007-8.464-15.877-2.282-41.12 7.116-38.365 26.519h3.385l2.82-9.027c3.114-5.1 14.911-13.256 22.569-12.977 7.943.289 15.141 5.555 20.311 3.949l5.078 8.464c-12.592-5.398-30.725-5.926-40.058 3.384v3.386c5.209-.465 4.448-2.644 7.899-3.949 7.282-2.755 18.635-2.498 25.388 0 13.038 4.82 17.972 25.41 25.389 36.109l19.749 23.133c4.515 3.761 9.027 7.522 13.54 11.285 7.997 11.811 22.281 29.524 36.677 34.415 1.771 6.312 6.702 51.593 8.461 53.037 3.898-1.793 4.962-4.765 5.644-9.592h.562l.565 17.49c2.406 1.508 2.445 1.562 5.078 1.129.665-3.856.159-2.995 1.693-5.642 1.279-1.97 3.133-2.115 4.512-3.949 1.319 1.128 2.634 2.257 3.952 3.385 1.382-2.898 1.05-3.498 3.383-3.95-.256-3.458-.468-3.728-3.383-4.513-2.221-.673-7.317 1.031-9.592 2.256-.292-12.66 2.255-27.912 13.541-32.16 2.992-.71 5.122 2.175 7.334 3.95 5.127-4.272-2.428-8.177-6.77-9.592-6.665.451-8.451 4.291-12.414 7.336v1.127h-.563c.803-7.982 1.98-19.395 8.464-22.568 13.309-6.693 27.51 21.151 24.825 34.417-5.027 24.824-13.562 55.17-40.06 54.729-.914-1.077-6.557-9.524-10.719-6.206-5.267 10.342-10.534 20.688-15.799 31.031-14.14 23.556-64.18 71.375-102.687 60.371-43.04-12.3-74.489-50.065-94.787-99.866 0 0-5.565-42.011-5.642-42.316-4.113-16.274-5.566-48.183-1.128-64.884l12.412-37.238 11.848-20.312c7.525.008 11.514 2.235 17.491 3.385l19.184-1.128 2.256-1.693-.565-1.692zm85.196 345.86c-16.854 10.217-45 5.749-53.035-9.026-3.584-6.587.284-12.831-.565-18.619 2.025.634 2.563-.718 2.822 0 5.218-6.36 7.279-36.839 3.951-46.829.374-.377.751-.752 1.128-1.129 30.473 10.263 85.971-27.706 95.914-44.572 3.179 10.246-7.766 39.607 4.514 46.266-1.25 6.414-4.473 8.589-7.897 14.669-13.64 24.207-23.366 45.019-46.832 59.24zm.564 23.698c-1.127-.75-2.257-1.504-3.383-2.256-9.019-3.238-49.601 14.328-61.5 16.361.043-17.223 3.314-33.162 5.642-46.829 5.894 5.666 9.548 13.249 17.49 16.927 23.515 10.893 44.88-5.352 58.678-12.976-4.777 14.529-10.002 24.643-13.541 38.93-4.848-1.173-3.875-4.748-3.386-10.157zm-37.238 33.289v-.565c10.344-2.631 20.69-5.264 31.033-7.897 4.701-.753 9.404-1.506 14.106-2.257 1.691.188 3.382.377 5.078.562.188.565.377 1.13.562 1.695-16.924 2.819-33.854 5.64-50.779 8.462zm-19.746 5.643c-16.55 5.075-33.102 10.157-49.651 15.233v-.566l30.467-11.283c5.642-1.315 11.285-2.634 16.927-3.949l2.257.565zm14.668-4.513v.562l-3.386.565v-.565l1.694-.562zm4.515-1.13v.565l-3.384.565v-.565l1.691-.565zm22.004-11.283c-.377.375-.753.752-1.13 1.126l.565-1.126zm-1.692-4.514l7.897.564c-10.361 6.265-22.775 5.153-34.98 9.028l-35.545 11.283c-3.198.377-6.395.754-9.592 1.127-6.778 4.895-16.988 9.365-25.953 11.849 18.633-14.9 48.494-21.922 73.911-29.337l24.262-4.514zm13.54-3.948c1.127.185 2.258.374 3.385.561l1.13.566-.566 3.948h-5.641l-.564-1.127c.772-2.007 1.018-2.631 2.256-3.948zm-1.129-5.08l-29.902 2.82c6.176-3.506 16.182-6.093 24.261-6.771v-1.691c2.147 1.265 1.456.677 5.078.564l.563 4.514zM113.406 565.14v-1.691c11.368 7.087 25.393 3.025 33.852-5.079l.565 3.952c-7.234 8.129-25.93 16.291-34.417 2.818zm-16.927 98.176c-10.825-.905-18.539-2.717-28.775-.565-15.357-25.128-11.11-57.31-17.49-91.403-4.136-20.122-8.277-40.25-12.413-60.372 9.5 2.907 13.738 15.2 20.877 20.878 6.927 5.508 25.444 19.014 29.339 25.954l8.462 105.508zm-1.692-85.762c-.486-6.476 2.099-11.493-.565-19.746-4.04-12.519-26.964-22.786-34.981-32.727-6.083-7.541-13.368-19.098-24.261-21.438-2.051 1.077-2.741 1.454-3.949 3.385 10.723 22.893 9.045 53.725 14.67 79.553l2.256 11.849 1.692 24.827 10.157 39.494c1.897 3.258 5.258 2.833 5.642 6.77l1.692 3.949c-3.76-2.069-7.523-4.137-11.284-6.207-7.78-13.664-7.844-49.398-11.284-68.268-5.965-32.728-10.143-74.334-19.748-107.2 20.427 12.151 37.004 32.27 55.293 46.83l12.977 10.718c11.443 16.402 5.497 33.265 9.028 58.113l1.692 32.162c1.505 10.531 3.01 21.063 4.513 31.596-1.315-.751-2.633-1.504-3.949-2.258-4.579-7.113-1.834-23.028-3.949-34.416-3.491-18.793-4.195-37.66-5.642-56.986zm211.015 86.324l.565 20.879c-2.323 3.033-6.344 5.86-11.285 6.205-1.316-12.412-2.632-24.827-3.95-37.239-3.632-22.875-.795-48.872-.563-69.961.138-12.664 2.815-48.221-.564-55.294-31.453-5.614-82.465 12.395-105.507 22.004-4.326 2.632-8.653 5.268-12.978 7.898-3.718 8.701 2.586 28.443 4.514 37.803 7.252 35.227 6.736 69.637 17.49 99.867 1.316.188 2.633.377 3.95.564 3.95-8.425-4.522-26.782-6.771-35.546-8.091-31.544-5.27-67.424-15.234-98.174 13.566-15.753 80.012-30.295 110.586-29.338-.564 17.864-1.128 35.734-1.694 53.599l.566 59.808c.692 8.959.16 22.556 1.691 31.596.937 5.523 3.931 8.006 3.951 15.795l-16.927 7.901-12.413 1.13c-5.813 3.467-11.584 19.458-14.105 25.954-.376.188-.753.374-1.13.561-.959-15.613-10.334-25.97-11.847-43.443-.774-8.946 6.909-26.954 5.643-35.545-1.052-7.13-6.592-9.934-12.414-12.413-15.069-.027-20.174 21.911-19.747 36.11h-.565c-1.691-9.966-3.384-19.937-5.077-29.902-6.688-25.015-12.634-50.946-14.67-77.3 13.551-6.37 27.255-8.01 41.187-12.975 13.707-4.885 27.234-10.085 43.447-10.719 4.28 31.275.19 71.399 5.075 107.199 1.405 10.29-.573 26.311 2.823 39.494-8.603 2.403-22.434 3.445-30.469 8.464v1.692c8.257 2.867 27.368-3.163 35.547-6.208-.943-11.657-1.881-23.319-2.823-34.979-1.691-40.055-3.383-80.121-5.078-120.179-6.359-3.309-21.318 1.082-28.211 3.387l-44.57 12.978c-6.692 2.579-13.407 6.307-22.57 6.206.921 29.643 9.23 58.988 15.234 84.631 2.774 11.844.932 26.699 6.207 36.111 1.153 1.986 1.098 1.896 3.948 2.258 4.852 16.172-18.078 26.265-31.595 23.693-25.817-4.91-38.55-22.388-60.37-31.594-2.014-3.854-.405-9.446-1.693-15.235-3.192-14.328-3.032-31.998-5.642-48.522l-.565-44.572h.565c5.288 25.58 7.257 51.671 11.283 77.298 1.59 10.114-2.475 27.906 3.951 34.416l3.385 1.128c.565-.376 1.128-.753 1.693-1.128-2.89-20.89-6.185-52.423-10.157-73.912-2.021-10.937-.664-20.877-3.385-30.467.188-.564.376-1.13.565-1.692 12.967 4.234 30.733 5.161 36.109-7.9l1.128-.564 19.747 138.796c1.129.377 2.258.754 3.386 1.129 5.013-5.36-.575-27.702-2.257-36.675l-10.155-69.398c-1.194-11.101-6.369-27.659-5.078-38.93-1.077-5.57 24.169-13.266 30.466-15.798 27.323-10.986 59.689-17.248 92.532-24.262l24.26-3.948c2.902 15.843.369 33.08-2.258 49.65-5.323 33.597 3.057 66.048 2.823 97.608zm42.88-290.004l-.565 1.692v-1.692zM136.538 52.272c7.96-20.276 27.244-33.287 47.96-40.622 53.578-18.973 92.003 10.902 111.149 42.88 6.708 11.206 9.081 23.766 14.106 36.673 8.207 21.087 20.598 41.233 36.108 55.293-13.41 3.232-47.86-23.864-54.165-32.724h-1.127c-.377.189-.753.377-1.13.564l-.565 1.693c14.297 20.424 71.173 52.879 96.481 37.237-.567-.56.115-.475.566-.563-2.251-2.566-8.828-1.952-10.158 0-2.527-4.225-10.931-2.555-15.796-4.513-6.818-2.746-14.857-9.193-19.184-14.671-18.131-22.957-25.24-52.489-38.93-80.682-4.887-10.066-13.568-17.377-19.749-25.953.189-.377.376-.754.565-1.129 16.685-2.498 40.37-3.39 56.987 3.385 29.792 12.149 77.597 66.949 93.094 94.787 3.009 7.899 6.02 15.799 9.027 23.698 7.709 18.109 17.307 44.456 12.977 67.705-3.541 19.019-8.508 40.433-16.926 54.729l-22.568 27.645c-4.513 6.771-9.029 13.543-13.543 20.312-.188 4.138-.374 8.275-.563 12.414-4.356 19.745-6.079 43.441 12.978 49.086-13.942 9.398-37.777-6.706-45.701-13.542h-2.822c-.999 2.652.289 4.278 1.128 7.9-5.412-.452-6.923-2.614-9.027-6.206h-2.258l.566 3.949c-4.589-2.144-7.227-5.488-11.284-7.335l3.383-31.596c8.148-12.052 15.191-19.826 20.314-33.853 52.008 21.823 73.485-97.546 19.181-97.609-3.673 3.14-6.913 5.417-9.591 9.592-15.194-1.436-30.443-12.818-37.238-23.132 13.377 2.9 50.798 23.211 59.807 3.385l-1.692-2.257c-46.414 18.062-99.554-35.631-115.099-66.577-9.405-18.719-12.112-36.326-30.468-48.522-27.265-18.114-58.104-3.141-63.192 25.954-1.375 7.861 3.657 10.292 4.514 15.798-31.828 1.45-71.812-28.295-58.115-63.193zm297.34 393.256c-7.541-12.528-20.429-28.412-30.466-36.11-10.152-7.781-18.847-13.217-25.391-24.825 4.878-2.102 12.968 1.329 17.491 2.258 13.004 2.672 33.967.012 40.624-7.335 1.376-1.345 1.153-3.294 1.127-6.207-4.732-.382-9.741 1.839-13.54 1.129-22.641-4.235-22.243-38.052-14.671-56.422 6.97-16.907 22.804-28.555 32.162-43.444 15.396-24.5 24.25-70.742 15.232-104.379-13.9-51.848-42.9-86.157-76.731-117.921-10.819-10.156-21.563-21.921-36.676-27.646-11.351-4.3-31.009-9.09-46.829-6.206l-20.876 2.822-13.54-10.157C248.798 2.872 232.348.637 210.451.93c-8.651 1.691-17.305 3.384-25.953 5.078-23.177 7.453-49.225 23.961-54.73 49.086-2.727 12.45 1.99 23.64 3.95 32.724-30.049 13.019-34.925 51.531-41.188 89.146v28.211c10.995 41.336 34.118 66.513 50.215 100.993 7.054 15.113 22.71 45.043 9.591 64.32-3.166 4.653-13.397 9.793-22.568 7.9-3.387-.701-4.621-3.404-8.463-2.256-1.076.853-1.017.997-1.693 2.256 12.986 12.913 36.053 12.838 55.857 11.848l-1.128.564-1.129 1.692c6.098 7.102 23.476 6.505 36.674 6.206l.565.565c-18.752 26.638-45.618 44.625-64.321 71.657-5.454 7.143-10.909 14.294-16.362 21.437-.752.566-1.505 1.13-2.257 1.694-2.975-6.42-11.523-10.353-19.747-11.286-6.951-24.44-13.613-51.46-25.39-71.653-1.199-2.017-2.192-2.471-5.077-2.822h-.565c-.869 4.273 2.933 12.496 3.95 18.054l5.078 48.524c.995 8.586-8.554 4.92-9.028 11.849-13.896-10.471-25.084-30.148-39.494-44.573-4.793-4.798-8.336-13.357-17.491-13.54l-.565.562 9.028 27.648v.563c-8.571-2.915-12.273-12.845-22.568-14.106-2.553 2.353-4.947 5.407-5.642 9.592l15.233 68.27c12.181 49.362 14.534 104.824 20.876 160.236 10.984 4.549 53.255 42.201 59.241 51.907 11.446 18.559 19.954 40.922 35.546 55.292 24.272 22.373 73.755 27.02 105.507 21.441l18.055 1.13c11.56 5.303 33.802 13.058 45.139 8.462l19.746-13.54c12.41-7.475 23.918-12.635 36.109-19.185 22.332-11.99 41.764-18.66 63.193-31.032 5.098-2.943 16.853-6.501 18.055-12.975.186.565.374 1.127.563 1.692 6.373-5.008 7.186-12.854 11.848-19.746 11.456-16.931 17.633-36.641 22.006-57.552l-1.131-10.155c16.705-84.793 2.145-148.019-36.108-211.58" fill="#1a1919"/></g><path d="M33.824 45.28c.3 1.672-.022 3.128-.717 3.253-.697.125-1.504-1.13-1.803-2.802-.3-1.671.021-3.128.718-3.253.695-.125 1.503 1.13 1.802 2.802M51.128 44.108c.26 1.63-.094 3.042-.792 3.154-.699.112-1.476-1.119-1.737-2.749-.261-1.63.093-3.042.792-3.154.698-.111 1.476 1.12 1.737 2.75" fill="#1a1919"/></svg>