<?xml version="1.0" encoding="UTF-8" standalone="no"?>
<svg
   version="1.1"
   x="0"
   y="0"
   width="81.396637"
   height="140"
   viewBox="0 0 81.396637 140"
   id="svg820"
   sodipodi:docname="womanreading2-0045904ewxpcf.svg"
   inkscape:version="1.2.2 (732a01da63, 2022-12-09)"
   xmlns:inkscape="http://www.inkscape.org/namespaces/inkscape"
   xmlns:sodipodi="http://sodipodi.sourceforge.net/DTD/sodipodi-0.dtd"
   xmlns="http://www.w3.org/2000/svg"
   xmlns:svg="http://www.w3.org/2000/svg">
  <sodipodi:namedview
     id="namedview822"
     pagecolor="#ffffff"
     bordercolor="#000000"
     borderopacity="0.25"
     inkscape:showpageshadow="2"
     inkscape:pageopacity="0.0"
     inkscape:pagecheckerboard="0"
     inkscape:deskcolor="#d1d1d1"
     showgrid="false"
     inkscape:zoom="1.0194884"
     inkscape:cx="238.35484"
     inkscape:cy="409.02867"
     inkscape:window-width="1920"
     inkscape:window-height="1017"
     inkscape:window-x="1912"
     inkscape:window-y="-8"
     inkscape:window-maximized="1"
     inkscape:current-layer="svg820" />
  <defs
     id="defs769">
    <clipPath
       id="Clip_1">
      <path
         d="M 0.06,0.905 H 476.832 V 820.94 H 0.06 Z"
         id="path763" />
    </clipPath>
    <clipPath
       id="Clip_2">
      <path
         d="M 0.06,0.905 H 476.832 V 820.94 H 0.06 Z"
         id="path766" />
    </clipPath>
  </defs>
  <g
     id="Layer_1"
     transform="matrix(0.17072445,0,0,0.17072445,-0.01024347,-0.1545338)">
    <g
       clip-path="url(#Clip_1)"
       id="g773">
      <path
         d="m 433.878,445.528 c -7.541,-12.528 -20.429,-28.412 -30.466,-36.11 -10.152,-7.781 -18.847,-13.217 -25.391,-24.825 4.878,-2.102 12.968,1.329 17.491,2.258 13.004,2.672 33.967,0.012 40.624,-7.335 1.376,-1.345 1.153,-3.294 1.127,-6.207 -4.732,-0.382 -9.741,1.839 -13.54,1.129 -22.641,-4.235 -22.243,-38.052 -14.671,-56.422 6.97,-16.907 22.804,-28.555 32.162,-43.444 15.396,-24.5 24.25,-70.742 15.232,-104.379 -13.9,-51.848 -42.9,-86.157 -76.731,-117.921 -10.819,-10.156 -21.563,-21.921 -36.676,-27.646 -11.351,-4.3 -31.009,-9.09 -46.829,-6.206 -6.956,0.94 -13.917,1.881 -20.876,2.822 -4.513,-3.386 -9.026,-6.772 -13.54,-10.157 C 248.798,2.872 232.348,0.637 210.451,0.93 201.8,2.621 193.146,4.314 184.498,6.008 c -23.177,7.453 -49.225,23.961 -54.73,49.086 -2.727,12.45 1.99,23.64 3.95,32.724 -30.049,13.019 -34.925,51.531 -41.188,89.146 0,9.401 0,18.808 0,28.211 10.995,41.336 34.118,66.513 50.215,100.993 7.054,15.113 22.71,45.043 9.591,64.32 -3.166,4.653 -13.397,9.793 -22.568,7.9 -3.387,-0.701 -4.621,-3.404 -8.463,-2.256 -1.076,0.853 -1.017,0.997 -1.693,2.256 12.986,12.913 36.053,12.838 55.857,11.848 -0.376,0.189 -0.752,0.376 -1.128,0.564 -0.376,0.564 -0.752,1.128 -1.129,1.692 6.098,7.102 23.476,6.505 36.674,6.206 0.188,0.189 0.377,0.377 0.565,0.565 -18.752,26.638 -45.618,44.625 -64.321,71.657 -5.454,7.143 -10.909,14.294 -16.362,21.437 -0.752,0.566 -1.505,1.13 -2.257,1.694 -2.975,-6.42 -11.523,-10.353 -19.747,-11.286 -6.951,-24.44 -13.613,-51.46 -25.39,-71.653 -1.199,-2.017 -2.192,-2.471 -5.077,-2.822 -0.189,0 -0.377,0 -0.565,0 -0.869,4.273 2.933,12.496 3.95,18.054 1.692,16.174 3.385,32.35 5.078,48.524 0.995,8.586 -8.554,4.92 -9.028,11.849 -13.896,-10.471 -25.084,-30.148 -39.494,-44.573 -4.793,-4.798 -8.336,-13.357 -17.491,-13.54 -0.188,0.186 -0.376,0.373 -0.565,0.562 3.008,9.215 6.018,18.432 9.028,27.648 0,0.187 0,0.374 0,0.563 -8.571,-2.915 -12.273,-12.845 -22.568,-14.106 -2.553,2.353 -4.947,5.407 -5.642,9.592 5.077,22.754 10.155,45.516 15.233,68.27 12.181,49.362 14.534,104.824 20.876,160.236 10.984,4.549 53.255,42.201 59.241,51.907 11.446,18.559 19.954,40.922 35.546,55.292 24.272,22.373 73.755,27.02 105.507,21.441 6.019,0.376 12.038,0.753 18.055,1.13 11.56,5.303 33.802,13.058 45.139,8.462 6.582,-4.514 13.165,-9.027 19.746,-13.54 12.41,-7.475 23.918,-12.635 36.109,-19.185 22.332,-11.99 41.764,-18.66 63.193,-31.032 5.098,-2.943 16.853,-6.501 18.055,-12.975 0.186,0.565 0.374,1.127 0.563,1.692 6.373,-5.008 7.186,-12.854 11.848,-19.746 11.456,-16.931 17.633,-36.641 22.006,-57.552 -0.377,-3.382 -0.754,-6.769 -1.131,-10.155 16.705,-84.793 2.145,-148.019 -36.108,-211.58"
         fill="#fffffe"
         id="path771" />
    </g>
    <path
       d="m 3.843,457.61 11.486,51.685 8.933,41.475 5.742,48.494 6.381,58.066 1.914,21.056 20.419,16.59 22.333,20.419 22.971,20.418 148.035,-1.914 12.123,-26.161 15.952,-1.276 30.628,-17.867 -5.105,-99.541 6.381,-37.007 -0.638,-17.229 -5.105,-22.333 -45.941,7.657 -38.923,10.848 -37.009,10.847 -24.247,10.847 -7.657,0.638 -17.228,9.571 -17.867,0.639 -5.104,-4.467 L 83.603,528.437 61.271,504.19 42.128,486.324 27.452,471.648 l -6.381,-7.657 -7.019,-5.742 -11.485,-5.106 1.276,4.467"
       fill="#712424"
       id="path775" />
    <path
       d="m 234.19,453.145 14.676,12.762 10.209,2.553 7.657,1.275 h 10.209 l 18.505,-5.742 16.59,-13.4 9.571,-14.038 12.124,-18.504 12.761,-24.247 4.467,-7.657 -6.381,-5.743 V 368.28 l 1.276,-24.247 v -14.037 l 26.8,-29.352 14.676,1.914 17.228,-8.933 17.866,-57.427 -7.656,-23.609 -34.457,-26.799 -87.417,-66.999 -27.438,-21.056 -40.837,2.552 -29.351,11.485 -23.609,0.638 -13.4,-1.275 -22.333,68.275 7.019,109.749 35.095,57.428 21.056,21.694 33.18,12.762 10.209,10.21 -0.637,20.418 -9.572,32.543"
       fill="#f3b991"
       id="path777" />
    <path
       d="m 134.012,90.717 -15.314,13.399 -7.656,12.124 -7.658,16.59 -4.466,19.142 -3.829,24.247 v 17.867 l 2.553,22.97 10.209,25.524 10.209,19.781 11.486,19.142 12.761,23.609 9.571,16.59 4.467,17.866 1.914,17.866 -7.019,19.143 -9.571,5.104 -9.571,1.914 12.124,5.744 h 10.847 l 10.209,-0.639 8.295,-0.638 10.21,-0.638 v 3.19 l 8.295,2.553 h 11.485 l 9.571,-1.276 12.762,-0.638 8.933,-1.277 6.381,-6.381 -14.676,-5.742 -14.038,-9.572 -15.314,-12.123 -9.571,-7.019 -12.124,-13.4 -14.675,-24.247 -9.572,-19.142 -4.466,-17.228 -4.467,-34.456 -2.552,-21.057 -0.638,-21.057 0.638,-12.761 6.381,-21.695 7.657,-26.161 7.019,-11.486 5.105,-10.847 10.208,1.276 11.486,1.914 11.486,-1.276 8.933,-0.638 c 0,0 17.866,-12.123 24.247,-9.571 l 5.104,-4.467 8.933,-1.276 14.039,1.276 12.123,5.743 8.933,17.228 16.59,26.161 21.694,20.419 14.038,17.228 16.59,12.124 11.486,9.571 7.019,43.389 11.486,-23.609 1.914,-17.866 5.104,-9.571 7.657,0.638 9.572,4.466 8.295,12.762 4.466,13.4 -4.466,29.352 -16.59,28.075 -14.038,5.743 -10.209,-1.276 -5.105,-1.276 -8.933,15.951 -10.209,16.591 -2.553,7.656 -1.277,33.819 9.572,8.933 7.657,1.914 11.485,1.276 h 8.934 l 13.399,1.277 10.848,2.552 10.847,-0.638 5.104,-4.467 -8.932,-7.019 -7.019,-8.933 -2.553,-12.123 -1.276,-19.781 3.19,-15.952 10.848,-13.4 13.399,-19.142 9.572,-12.761 10.209,-19.143 7.019,-29.351 1.914,-22.333 L 453.69,171.115 443.481,140.487 433.272,116.878 417.32,97.097 403.282,79.869 377.759,54.984 364.997,41.584 349.684,30.737 331.817,23.08 l -19.142,-2.552 -19.78,0.638 -16.59,3.19 -21.696,-13.4 -12.761,-5.104 -14.038,-1.277 -22.333,0.639 -21.695,4.466 -22.97,10.848 -14.677,12.123 -9.571,10.847 -4.466,13.4 v 10.847 l 1.276,8.933 3.19,9.572 -2.552,4.467"
       fill="#402820"
       id="path779" />
    <path
       d="m 88.07,484.411 -10.21,2.552 1.277,6.38 12.761,12.125 -3.828,-21.057"
       fill="#f3b991"
       id="path781" />
    <path
       d="m 106.574,485.686 12.762,35.095 5.104,-7.657 1.276,-9.571 -4.466,-11.486 -7.019,-5.104 -7.657,-1.277"
       fill="#f3b991"
       id="path783" />
    <path
       d="m 254.608,731.984 -7.018,1.276 -3.828,-11.485 -7.019,-18.504 -3.829,-14.038 0.638,-13.399 3.828,-17.229 v -8.932 l -3.828,-6.381 -7.657,-2.553 -10.209,10.209 -3.19,12.124 -1.915,14.676 -2.552,15.313 -6.381,9.572 -7.019,3.829 -10.209,2.551 -12.124,0.639 -14.038,-3.19 -13.399,-7.658 -16.59,-10.847 -21.057,-12.762 -10.209,-7.019 -12.124,-3.828 -9.571,0.638 -6.381,3.19 6.381,12.124 11.486,9.571 7.018,9.571 5.743,13.401 2.552,18.503 8.295,17.867 12.124,23.609 12.123,13.399 12.124,10.209 14.676,4.467 9.571,4.467 13.4,2.552 12.762,1.276 12.123,0.639 17.228,-3.191 20.419,-3.829 8.933,-2.552 6.381,-1.915 8.295,-2.551 1.914,-16.59 v -9.571 l -7.019,-24.886 -4.467,-10.209 -6.381,-2.553"
       fill="#f3b991"
       id="path785" />
    <path
       d="m 72.756,680.301 -22.971,-12.125 -4.467,-31.903 -13.399,-98.902 -8.934,-49.133 17.229,14.038 22.332,16.59 20.419,17.866 18.504,17.229 2.553,19.78 8.295,104.645 -11.485,-10.21 -8.296,-86.14 -1.276,-19.78 -5.105,-8.295 -27.437,-22.333 -9.571,-12.124 -9.571,-8.933 -5.743,-1.914 10.847,42.751 6.381,47.856 2.552,22.971 v 10.848 l 8.933,26.799 4.467,8.294 5.743,12.125"
       fill="#f6bc25"
       id="path787" />
    <path
       d="m 197.82,706.462 -2.553,-20.419 -9.571,-34.456 -3.828,-46.58 -3.191,-18.504 -5.104,-26.161 10.847,-9.572 35.732,-10.847 17.228,-4.467 12.763,-1.914 18.503,-4.467 10.848,0.639 7.019,0.637 2.552,5.743 -1.276,51.046 -1.276,27.438 3.19,42.752 0.638,22.333 3.829,15.951 -17.229,5.743 -14.675,1.914 -24.247,5.743 -1.276,-5.743 16.59,-5.104 29.989,-7.019 -1.914,-15.314 -2.553,-52.323 -1.914,-30.627 -2.551,-37.009 -1.915,-14.038 -14.676,1.276 -18.504,6.381 -23.609,7.018 -25.523,6.381 -4.467,3.191 -0.638,12.761 8.933,40.837 9.572,46.58 1.275,13.401 4.467,7.018 c 0,0 -2.552,17.228 -11.485,19.781"
       fill="#f6bc25"
       id="path789" />
    <path
       d="m 107.85,560.979 5.743,9.572 7.019,5.104 9.571,1.276 8.295,-1.914 7.019,-4.466 6.381,-6.381 -1.276,-10.209 -11.486,9.571 -9.571,3.828 -7.019,-1.276 -7.019,-3.191 -5.105,-4.466 -2.552,2.552"
       fill="#f6bc25"
       id="path791" />
    <path
       d="m 236.104,393.163 -22.971,16.591 -16.59,12.761 -14.676,16.59 -15.952,13.4 -17.866,19.142 -15.952,28.714 -3.829,8.295 -4.466,12.762 0.638,13.399 3.828,14.038 10.21,-7.018 15.314,-11.486 15.952,-5.743 12.123,-4.467 23.609,-7.657 13.4,-6.38 4.466,-24.247 5.105,-22.333 7.019,-23.609 5.104,-15.952 2.553,-12.124 1.276,-10.209 -1.914,-6.377 -6.381,1.91"
       fill="#eca8c1"
       id="path793" />
    <path
       d="m 295.53,503.716 8,-21 8,-25 10.077,-21.161 12.923,-23.839 11.962,-18.912 9.038,-18.088 17,8 18,17 17,14 11,13 10,18 11,20 11,17 5,17 12,28 5,23 3,26 -2,25 -1,24 -2,27 -4,21 -3,16 -10,28 -14,16 -6,8 -24,15 -36,15 -24,12 -20,16 -19,12 -13,8 -16,-2 -15,-5 2,-12 4,-17 -0.055,-14.084 -5.945,-14.916 -8,-15 -6,-8 3,-11 8.65,-12.978 12.761,-6.381 15.589,-3.641 19,-12 -2,-21 -3,-42 -1,-29 2,-17 3,-21 3,-14 -4,-18 -1,-9 v -9 l -13,-2"
       fill="#eca8c1"
       id="path795" />
    <g
       id="g801">
      <path
         d="m 356.53,496.716 -47,183 7,3 15,-4 31,-17 2,-45 -3,-89 -3,-21 -2,-10"
         fill="#b98499"
         id="path797" />
      <path
         d="m 423.53,440.716 c 15,55 8,230 -9,254 -19,27 -142,80 -142,80 l -6,38 20,6 12,-3 11,-7 64,-34 45,-24 15,-9 11,-10 23,-53 v -22 l 4,-23 c 0,0 24,-110 -48,-193"
         fill="#b98499"
         id="path799" />
    </g>
    <path
       d="m 231.53,449.716 c -3,11 -9,51 -9,51 l 31,-9 c 0,0 -19,-11 -22,-42"
       fill="#b4b5b4"
       id="path803" />
    <path
       d="m 241.21,383.595 c 0,0 39.57,30.621 103.32,5.621 -1.25,-10 -1.127,-29.453 0.687,-53.477 -30.687,29.727 -82.327,59.736 -104.007,47.856"
       fill="#c49779"
       id="path805" />
    <g
       clip-path="url(#Clip_2)"
       id="g813">
      <path
         d="m 397.03,226.716 c -10,1.25 -20,6.25 -17.5,38.75 5,-3.75 8.75,-7.5 12.5,-2.5 0,-8.75 5,-36.25 5,-36.25"
         fill="#c49779"
         id="path807" />
      <path
         d="m 269.53,774.216 c -20,0 -64.009,35.962 -147.004,-1.394 17.004,26.394 64.504,52.644 147.004,26.394 v -25"
         fill="#c49779"
         id="path809" />
      <path
         d="m 281.542,337.2 c 3.163,-1.965 6.608,-8.176 7.897,-8.463 v -2.822 c -1.241,-0.226 -1.124,-0.511 -3.384,-1.128 -8.866,8.298 -27.036,22.758 -45.136,14.105 -4.44,-2.122 -7.849,-6.189 -11.85,-7.334 -0.376,1.128 -0.752,2.257 -1.128,3.386 15.303,14.149 34.985,13.815 53.601,2.256 z M 159.671,201.789 c 0.904,0.929 1.469,2.985 3.949,2.257 0.849,-0.25 9.873,-14.865 19.184,-17.491 10.025,-2.828 19.711,4.503 25.953,9.028 3.335,-0.637 1.513,-0.833 3.386,-0.564 -1.678,-10.65 -17.305,-13.021 -25.954,-14.671 -12.668,5.515 -21.834,5.263 -26.518,21.441 z m 106.072,-9.592 c 4.38,-3.1 5.895,-7.593 11.848,-9.591 25.478,-8.552 42.5,13.988 54.165,19.748 v -1.13 c 0.377,-0.375 0.753,-0.752 1.13,-1.129 -10.174,-14.488 -26.762,-24.262 -51.909,-23.695 -4.341,2.597 -20.441,4.524 -18.619,10.719 h -1.693 c 1.107,2.793 2.557,3.773 5.078,5.078 z m 45.137,318.779 v -1.692 h 0.565 c -0.188,0.565 -0.377,1.13 -0.565,1.692 z m -1.692,0.565 v -1.692 h 0.565 c -0.189,0.565 -0.377,1.127 -0.565,1.692 z m 51.343,2.257 v -1.692 h 0.565 c -0.189,0.565 -0.377,1.129 -0.565,1.692 z m -53.037,-3.949 v -2.256 c 0.189,0.752 0.377,1.503 0.564,2.256 z m 127.512,227.377 c -7.473,5.905 -16.516,8.97 -25.954,12.978 -18.263,7.758 -35.573,17.909 -53.6,25.954 -8.274,5.641 -16.55,11.283 -24.823,16.925 -9.663,5.637 -30.606,9.412 -33.289,21.439 -9.71,1.72 -15.059,-0.466 -25.389,-2.818 -1.305,-7.383 5.394,-32.14 2.256,-47.959 -1.949,-9.819 -4.356,-17.765 -8.464,-27.084 -2.069,-3.572 -4.138,-7.147 -6.205,-10.718 -0.067,-7.602 4.229,-14.606 10.718,-17.493 13.933,4.872 46.076,-18.467 62.63,-26.516 6.254,-3.042 17.056,-10.83 24.824,-7.9 1.172,-1.441 1.199,-0.844 1.691,-3.383 11.92,-3.093 21.287,5.798 31.033,7.332 1.325,-9.507 -17.299,-9.524 -24.261,-12.975 h -1.128 c 12.353,-11.966 40.942,1.038 47.959,11.848 h 2.256 c 0.562,-0.377 1.127,-0.753 1.692,-1.13 -1.052,-19.396 -33.249,-17.498 -50.215,-18.053 -4.043,6.318 3.618,-36.465 1.694,-45.137 -1.882,-27.645 -3.763,-55.295 -5.644,-82.939 -1.791,-10.81 0.467,-22.812 -4.513,-32.161 -0.941,-1.347 -1.355,-1.468 -2.822,-2.258 -2.792,3.828 2.659,28.49 1.693,37.239 -3.531,32.009 -1.276,73.864 -3.949,106.637 -0.544,6.671 -0.762,16.369 -3.386,22.004 -3.122,4.801 -30.13,18.3 -36.672,20.876 -0.832,-41.413 -8.278,-87.067 0.563,-132.025 3.056,-15.541 -4.828,-30.491 -1.129,-44.573 4.789,-18.232 15.151,-33.682 22.004,-49.652 5.267,-11.845 10.534,-23.697 15.798,-35.546 4.89,-9.214 9.781,-18.431 14.671,-27.646 -1.355,-1.634 -1.194,-1.784 -3.949,-2.256 -10.585,20.74 -20.145,39.985 -30.467,62.063 -7.515,16.068 -17.497,31.606 -22.571,50.215 -2.351,0.142 -6.264,-0.504 -9.591,0.565 1.23,-29.063 26.112,-64.57 37.237,-83.505 6.958,-12.975 13.92,-25.954 20.878,-38.93 7.897,0.912 47.418,36.386 53.035,43.444 31.671,39.793 73.242,112.467 61.5,181.677 -4.417,26.036 -1.381,52.161 -12.414,71.091 6.9,7.858 -17.593,55.55 -23.697,60.37 z m -166.443,58.116 c -6.582,1.88 -13.166,3.76 -19.748,5.639 -32.222,8.828 -58.453,9.03 -85.758,-2.255 -11.751,-4.855 -29.036,-7.555 -31.596,-20.876 4.137,2.445 8.275,4.89 12.412,7.335 0.565,-0.564 1.129,-1.13 1.693,-1.692 1.453,-5.416 -9.962,-9.213 -14.105,-12.413 -9.875,-7.625 -18.182,-19.597 -23.134,-32.16 v -1.694 c 8.885,7.237 11.448,15.692 21.441,22.57 2.256,-0.361 1.679,0.044 2.821,-1.129 0.375,-0.566 0.752,-1.127 1.129,-1.693 -2.917,-3.772 -12.549,-12.23 -18.056,-18.618 -10.473,-12.152 -12.698,-21.981 -17.49,-36.111 12.596,4.951 28.164,22.451 32.724,35.546 0.941,0.377 1.882,0.754 2.822,1.129 1.128,-1.129 2.257,-2.259 3.385,-3.386 C 126.541,714.755 109.045,703.961 93.094,689.269 85.96,682.697 74.463,679.8 71.654,668.956 v -0.563 c 14.921,-9.194 32.335,6.592 41.188,12.976 13.554,9.775 47.817,39.12 78.426,31.033 36.547,-9.658 10.741,-48.701 34.417,-68.835 4.36,0.651 5.565,2.56 7.898,5.078 1.84,12.073 -7.056,25.271 -4.514,40.624 2.735,16.521 9.662,26.583 11.85,41.752 -3.682,5.185 -7.533,7.946 -12.415,11.848 v 2.257 c 2.167,1.414 1.918,0.323 2.258,1.692 5.011,-1.372 6.508,-5.531 10.719,-7.335 4.137,-1.127 8.276,-2.257 12.414,-3.385 9.845,2.786 12.564,26.619 15.234,38.365 -0.189,6.959 -0.377,13.92 -0.566,20.879 z M 58.113,688.139 c -5.454,-3.382 -10.908,-6.77 -16.362,-10.156 -2.445,-22.941 -4.89,-45.89 -7.335,-68.832 C 31.595,588.09 28.774,567.021 25.952,545.96 19.56,516.622 13.164,487.276 6.77,457.941 c 14.355,7.932 23.045,23.007 35.545,32.724 15.839,12.315 31.695,28.219 43.445,44.573 -7.522,-6.77 -15.047,-13.54 -22.569,-20.311 -13.002,-9.273 -28.742,-17.838 -38.367,-30.467 -1.692,0.377 -3.385,0.751 -5.077,1.127 3.008,16.362 6.018,32.727 9.027,49.087 5.982,27.179 6.643,54.132 12.977,81.812 0.376,5.641 0.751,11.283 1.128,16.925 2.393,9.852 6.383,23.776 6.77,35.545 24.599,17.137 41.709,18.059 49.651,54.165 C 89.064,719.005 68.576,696.238 58.113,688.139 Z M 5.077,453.427 c 0.753,-1.314 1.505,-2.632 2.257,-3.948 13.212,4.147 19.344,15.841 28.775,23.697 18.841,15.694 38.888,32.741 54.164,51.905 6.394,8.089 12.789,16.177 19.183,24.262 -0.752,0.377 -1.504,0.753 -2.257,1.129 C 98.173,539.942 89.144,529.407 80.117,518.876 73.347,512.671 66.575,506.463 59.806,500.258 56.985,496.873 54.163,493.487 51.342,490.1 39.216,480.938 29.944,469.175 18.053,460.198 14.112,457.223 7.449,456.846 5.077,453.427 Z m 66.013,38.368 c 7.772,7.477 19.494,18.449 23.132,29.338 -8.649,-9.027 -17.303,-18.057 -25.954,-27.082 -9.966,-8.65 -19.935,-17.302 -29.902,-25.953 -1.88,-7.9 -3.762,-15.799 -5.642,-23.697 6.775,4.433 38.387,43.004 38.366,47.394 z m 11.284,-3.952 h 1.129 c 3.393,3.027 4.775,7.366 4.514,14.106 -3.56,-2.864 -7.645,-7.475 -9.029,-12.411 1.129,-0.565 2.258,-1.129 3.386,-1.695 z m 11.285,9.593 c -0.189,0.565 -0.377,1.129 -0.565,1.695 v -1.695 z m 3.385,16.926 h -0.565 v -2.256 c 0.188,0.753 0.377,1.504 0.565,2.256 z m 3.385,-36.673 c 7.282,23.238 16.328,44.254 23.132,67.141 -3.525,-2.835 -7.259,-3.653 -10.155,-6.771 -4.069,-4.38 -9.824,-18.788 -14.106,-18.618 -6.383,-23.608 -12.637,-56.052 -12.411,-85.197 7.411,11.599 9.164,29.482 13.54,43.445 z m 15.799,11.284 c 5.972,5.575 12.182,18.621 4.513,28.211 v 1.127 h -0.565 c -3.572,-9.966 -7.147,-19.936 -10.72,-29.902 2.257,0.187 4.515,0.376 6.772,0.564 z m 10.72,69.397 h 4.513 c -0.565,-1.503 -1.128,-3.007 -1.693,-4.513 7.137,-12.26 24.45,-15.71 36.109,-23.697 h 1.128 c -8.67,7.401 -23.561,8.978 -29.902,18.618 v 1.694 c 1.142,1.757 0.268,1.208 2.821,1.693 6.365,-4.53 12.82,-8.907 20.311,-12.413 0.277,2.897 0.515,2.921 1.693,4.513 -2.445,1.506 -4.889,3.01 -7.334,4.513 -1.504,-0.187 -3.01,-0.373 -4.514,-0.561 -2.633,2.63 -5.267,5.265 -7.899,7.897 -7.264,6.19 -13.036,7.254 -18.571,5.498 -0.392,0.033 -0.939,0.058 -1.741,0.145 -0.395,-0.442 -0.79,-0.884 -1.185,-1.326 -2.931,-1.431 -5.857,-3.551 -8.97,-6.009 -0.189,-0.565 -0.377,-1.13 -0.565,-1.692 0.188,-0.565 0.376,-1.13 0.565,-1.694 h 0.563 c 2.802,3.133 5.605,6.265 8.407,9.395 0.972,0.476 1.946,0.87 2.926,1.181 1.114,-0.092 0.951,-0.251 1.644,-2.112 -2.877,-4.943 -7.995,-8.136 -9.592,-14.106 v -0.564 c 0.377,-0.189 0.754,-0.377 1.129,-0.565 3.385,4.702 6.772,9.406 10.157,14.105 z m 1.128,-42.878 c 0.89,-3.384 3.653,-5.404 5.077,-7.899 15.668,-27.474 30.35,-50.492 53.601,-69.962 6.393,-6.394 12.788,-12.79 19.182,-19.184 11.096,-7.335 22.195,-14.67 33.289,-22.005 h 1.694 c -0.225,23.672 -9.935,40.853 -15.799,59.807 -1.504,9.027 -3.01,18.054 -4.514,27.082 -1.88,7.146 -3.761,14.293 -5.642,21.439 -2.633,0.943 -5.266,1.881 -7.9,2.823 0.386,-28.694 10.57,-56.027 19.184,-80.684 1.505,-3.572 3.01,-7.147 4.514,-10.719 -0.941,-0.376 -1.881,-0.753 -2.821,-1.13 -0.941,0.566 -1.881,1.13 -2.821,1.695 -11.642,8.949 -24.775,75.368 -28.774,94.786 -5.83,2.445 -11.661,4.89 -17.492,7.335 -0.375,-0.189 -0.751,-0.376 -1.128,-0.565 1.316,-7.144 2.633,-14.293 3.949,-21.44 3.574,-10.717 7.147,-21.441 10.721,-32.159 -0.565,-0.565 -1.128,-1.127 -1.693,-1.692 -0.564,-0.188 -1.129,-0.377 -1.693,-0.565 -12.133,16.124 -19.414,38.913 -24.261,62.064 -4.512,2.069 -9.027,4.137 -13.541,6.205 -7.145,4.891 -14.295,9.781 -21.44,14.67 -3.12,-11.609 -5.249,-16.385 -1.692,-29.902 z m 63.192,-126.384 c 1.023,-2.709 2.959,-4.089 5.641,-5.078 0.189,-0.752 0.377,-1.505 0.565,-2.257 -0.376,-0.752 -0.753,-1.505 -1.128,-2.257 -6.337,-0.72 -10.786,4.244 -16.927,5.642 -9.195,2.09 -36.258,3.473 -40.625,-2.821 25.865,5.832 25.784,-41.788 18.056,-59.807 -17.35,-40.455 -70.748,-93.637 -58.678,-157.979 2.631,-14.024 6.658,-29.517 12.412,-41.752 6.817,-14.492 13.752,-21.104 25.391,-30.468 6.233,2.131 17.399,18.058 27.645,23.134 -0.99,5.579 -6.336,10.375 -9.026,14.669 v 2.822 c -4.492,8.285 -7.507,19.084 -10.721,29.902 -1.022,3.445 -2.691,4.915 -1.692,7.899 -0.565,-0.187 -1.129,-0.375 -1.693,-0.564 -0.752,4.326 -1.505,8.651 -2.257,12.977 -6.383,10.569 3.364,26.98 0.563,37.803 -0.774,2.999 0.605,16.201 2.258,22.003 -2.107,4.419 0.896,15.68 1.129,17.491 0.375,0.752 0.752,1.505 1.129,2.257 -5.045,26.401 30.498,73.664 45.135,88.581 8.275,6.394 16.552,12.79 24.826,19.183 2.2,4.231 16.981,11.4 23.132,12.977 v 0.565 c -5.036,5.826 -34.454,5.365 -45.135,5.078 z M 366.173,214.201 c 3.385,0.942 6.772,1.881 10.155,2.822 0.726,7.171 -2.206,19.155 -5.64,24.825 v 1.128 c -1.507,-9.59 -3.011,-19.184 -4.515,-28.775 z M 205.936,116.029 c -2.95,-4.3 -9.15,-4.718 -10.72,-10.721 -4.717,-18.053 17.011,-37.949 34.982,-32.724 0.564,0.189 1.129,0.377 1.693,0.564 -14.568,8.175 -24.552,7.64 -28.211,27.082 -0.541,2.873 -0.741,6.717 0.565,9.029 0.515,1.917 2.006,2.423 3.948,1.691 1.974,-2.379 0.042,-12.616 2.258,-17.49 6.832,-15.036 30.441,-18.356 44.007,-8.464 -15.877,-2.282 -41.12,7.116 -38.365,26.519 h 3.385 c 0.94,-3.008 1.88,-6.018 2.82,-9.027 3.114,-5.1 14.911,-13.256 22.569,-12.977 7.943,0.289 15.141,5.555 20.311,3.949 1.693,2.821 3.385,5.643 5.078,8.464 -12.592,-5.398 -30.725,-5.926 -40.058,3.384 v 3.386 c 5.209,-0.465 4.448,-2.644 7.899,-3.949 7.282,-2.755 18.635,-2.498 25.388,0 13.038,4.82 17.972,25.41 25.389,36.109 6.582,7.711 13.167,15.422 19.749,23.133 4.515,3.761 9.027,7.522 13.54,11.285 7.997,11.811 22.281,29.524 36.677,34.415 1.771,6.312 6.702,51.593 8.461,53.037 3.898,-1.793 4.962,-4.765 5.644,-9.592 h 0.562 c 0.188,5.83 0.377,11.661 0.565,17.49 2.406,1.508 2.445,1.562 5.078,1.129 0.665,-3.856 0.159,-2.995 1.693,-5.642 1.279,-1.97 3.133,-2.115 4.512,-3.949 1.319,1.128 2.634,2.257 3.952,3.385 1.382,-2.898 1.05,-3.498 3.383,-3.95 -0.256,-3.458 -0.468,-3.728 -3.383,-4.513 -2.221,-0.673 -7.317,1.031 -9.592,2.256 -0.292,-12.66 2.255,-27.912 13.541,-32.16 2.992,-0.71 5.122,2.175 7.334,3.95 5.127,-4.272 -2.428,-8.177 -6.77,-9.592 -6.665,0.451 -8.451,4.291 -12.414,7.336 v 1.127 h -0.563 c 0.803,-7.982 1.98,-19.395 8.464,-22.568 13.309,-6.693 27.51,21.151 24.825,34.417 -5.027,24.824 -13.562,55.17 -40.06,54.729 -0.914,-1.077 -6.557,-9.524 -10.719,-6.206 -5.267,10.342 -10.534,20.688 -15.799,31.031 -14.14,23.556 -64.18,71.375 -102.687,60.371 -43.04,-12.3 -74.489,-50.065 -94.787,-99.866 0,0 -5.565,-42.011 -5.642,-42.316 -4.113,-16.274 -5.566,-48.183 -1.128,-64.884 4.137,-12.411 8.274,-24.826 12.412,-37.238 3.948,-6.77 7.9,-13.542 11.848,-20.312 7.525,0.008 11.514,2.235 17.491,3.385 6.394,-0.376 12.789,-0.752 19.184,-1.128 0.752,-0.564 1.504,-1.129 2.256,-1.693 -0.188,-0.564 -0.376,-1.128 -0.565,-1.692 z m 85.196,345.86 c -16.854,10.217 -45,5.749 -53.035,-9.026 -3.584,-6.587 0.284,-12.831 -0.565,-18.619 2.025,0.634 2.563,-0.718 2.822,0 5.218,-6.36 7.279,-36.839 3.951,-46.829 0.374,-0.377 0.751,-0.752 1.128,-1.129 30.473,10.263 85.971,-27.706 95.914,-44.572 3.179,10.246 -7.766,39.607 4.514,46.266 -1.25,6.414 -4.473,8.589 -7.897,14.669 -13.64,24.207 -23.366,45.019 -46.832,59.24 z m 0.564,23.698 c -1.127,-0.75 -2.257,-1.504 -3.383,-2.256 -9.019,-3.238 -49.601,14.328 -61.5,16.361 0.043,-17.223 3.314,-33.162 5.642,-46.829 5.894,5.666 9.548,13.249 17.49,16.927 23.515,10.893 44.88,-5.352 58.678,-12.976 -4.777,14.529 -10.002,24.643 -13.541,38.93 -4.848,-1.173 -3.875,-4.748 -3.386,-10.157 z m -37.238,33.289 v -0.565 c 10.344,-2.631 20.69,-5.264 31.033,-7.897 4.701,-0.753 9.404,-1.506 14.106,-2.257 1.691,0.188 3.382,0.377 5.078,0.562 0.188,0.565 0.377,1.13 0.562,1.695 -16.924,2.819 -33.854,5.64 -50.779,8.462 z m -19.746,5.643 c -16.55,5.075 -33.102,10.157 -49.651,15.233 v -0.566 c 10.155,-3.76 20.313,-7.522 30.467,-11.283 5.642,-1.315 11.285,-2.634 16.927,-3.949 0.752,0.188 1.505,0.377 2.257,0.565 z m 14.668,-4.513 v 0.562 c -1.127,0.189 -2.256,0.376 -3.386,0.565 v -0.565 c 0.566,-0.188 1.13,-0.374 1.694,-0.562 z m 4.515,-1.13 v 0.565 c -1.127,0.189 -2.257,0.376 -3.384,0.565 v -0.565 c 0.561,-0.188 1.127,-0.377 1.691,-0.565 z m 22.004,-11.283 c -0.377,0.375 -0.753,0.752 -1.13,1.126 0.188,-0.374 0.377,-0.751 0.565,-1.126 z m -1.692,-4.514 c 2.631,0.187 5.265,0.376 7.897,0.564 -10.361,6.265 -22.775,5.153 -34.98,9.028 -11.848,3.76 -23.699,7.523 -35.545,11.283 -3.198,0.377 -6.395,0.754 -9.592,1.127 -6.778,4.895 -16.988,9.365 -25.953,11.849 18.633,-14.9 48.494,-21.922 73.911,-29.337 8.086,-1.504 16.174,-3.01 24.262,-4.514 z m 13.54,-3.948 c 1.127,0.185 2.258,0.374 3.385,0.561 0.377,0.189 0.753,0.377 1.13,0.566 -0.189,1.314 -0.377,2.632 -0.566,3.948 h -5.641 c -0.187,-0.374 -0.375,-0.751 -0.564,-1.127 0.772,-2.007 1.018,-2.631 2.256,-3.948 z m -1.129,-5.08 c -9.966,0.94 -19.936,1.881 -29.902,2.82 6.176,-3.506 16.182,-6.093 24.261,-6.771 v -1.691 c 2.147,1.265 1.456,0.677 5.078,0.564 0.188,1.504 0.376,3.01 0.563,4.514 z M 113.406,565.14 v -1.691 c 11.368,7.087 25.393,3.025 33.852,-5.079 0.189,1.318 0.377,2.634 0.565,3.952 -7.234,8.129 -25.93,16.291 -34.417,2.818 z m -16.927,98.176 c -10.825,-0.905 -18.539,-2.717 -28.775,-0.565 -15.357,-25.128 -11.11,-57.31 -17.49,-91.403 -4.136,-20.122 -8.277,-40.25 -12.413,-60.372 9.5,2.907 13.738,15.2 20.877,20.878 6.927,5.508 25.444,19.014 29.339,25.954 2.82,35.164 5.642,70.341 8.462,105.508 z m -1.692,-85.762 c -0.486,-6.476 2.099,-11.493 -0.565,-19.746 -4.04,-12.519 -26.964,-22.786 -34.981,-32.727 -6.083,-7.541 -13.368,-19.098 -24.261,-21.438 -2.051,1.077 -2.741,1.454 -3.949,3.385 10.723,22.893 9.045,53.725 14.67,79.553 0.752,3.949 1.504,7.899 2.256,11.849 0.564,8.274 1.129,16.552 1.692,24.827 3.386,13.164 6.772,26.33 10.157,39.494 1.897,3.258 5.258,2.833 5.642,6.77 0.563,1.316 1.129,2.634 1.692,3.949 -3.76,-2.069 -7.523,-4.137 -11.284,-6.207 -7.78,-13.664 -7.844,-49.398 -11.284,-68.268 -5.965,-32.728 -10.143,-74.334 -19.748,-107.2 20.427,12.151 37.004,32.27 55.293,46.83 4.325,3.572 8.652,7.146 12.977,10.718 11.443,16.402 5.497,33.265 9.028,58.113 0.564,10.72 1.128,21.443 1.692,32.162 1.505,10.531 3.01,21.063 4.513,31.596 -1.315,-0.751 -2.633,-1.504 -3.949,-2.258 -4.579,-7.113 -1.834,-23.028 -3.949,-34.416 -3.491,-18.793 -4.195,-37.66 -5.642,-56.986 z m 211.015,86.324 c 0.188,6.959 0.377,13.92 0.565,20.879 -2.323,3.033 -6.344,5.86 -11.285,6.205 -1.316,-12.412 -2.632,-24.827 -3.95,-37.239 -3.632,-22.875 -0.795,-48.872 -0.563,-69.961 0.138,-12.664 2.815,-48.221 -0.564,-55.294 -31.453,-5.614 -82.465,12.395 -105.507,22.004 -4.326,2.632 -8.653,5.268 -12.978,7.898 -3.718,8.701 2.586,28.443 4.514,37.803 7.252,35.227 6.736,69.637 17.49,99.867 1.316,0.188 2.633,0.377 3.95,0.564 3.95,-8.425 -4.522,-26.782 -6.771,-35.546 -8.091,-31.544 -5.27,-67.424 -15.234,-98.174 13.566,-15.753 80.012,-30.295 110.586,-29.338 -0.564,17.864 -1.128,35.734 -1.694,53.599 0.189,19.936 0.377,39.874 0.566,59.808 0.692,8.959 0.16,22.556 1.691,31.596 0.937,5.523 3.931,8.006 3.951,15.795 -5.642,2.634 -11.286,5.268 -16.927,7.901 -4.136,0.377 -8.276,0.753 -12.413,1.13 -5.813,3.467 -11.584,19.458 -14.105,25.954 -0.376,0.188 -0.753,0.374 -1.13,0.561 -0.959,-15.613 -10.334,-25.97 -11.847,-43.443 -0.774,-8.946 6.909,-26.954 5.643,-35.545 -1.052,-7.13 -6.592,-9.934 -12.414,-12.413 -15.069,-0.027 -20.174,21.911 -19.747,36.11 h -0.565 c -1.691,-9.966 -3.384,-19.937 -5.077,-29.902 -6.688,-25.015 -12.634,-50.946 -14.67,-77.3 13.551,-6.37 27.255,-8.01 41.187,-12.975 13.707,-4.885 27.234,-10.085 43.447,-10.719 4.28,31.275 0.19,71.399 5.075,107.199 1.405,10.29 -0.573,26.311 2.823,39.494 -8.603,2.403 -22.434,3.445 -30.469,8.464 v 1.692 c 8.257,2.867 27.368,-3.163 35.547,-6.208 -0.943,-11.657 -1.881,-23.319 -2.823,-34.979 -1.691,-40.055 -3.383,-80.121 -5.078,-120.179 -6.359,-3.309 -21.318,1.082 -28.211,3.387 -14.855,4.325 -29.714,8.653 -44.57,12.978 -6.692,2.579 -13.407,6.307 -22.57,6.206 0.921,29.643 9.23,58.988 15.234,84.631 2.774,11.844 0.932,26.699 6.207,36.111 1.153,1.986 1.098,1.896 3.948,2.258 4.852,16.172 -18.078,26.265 -31.595,23.693 -25.817,-4.91 -38.55,-22.388 -60.37,-31.594 -2.014,-3.854 -0.405,-9.446 -1.693,-15.235 -3.192,-14.328 -3.032,-31.998 -5.642,-48.522 -0.188,-14.856 -0.376,-29.716 -0.565,-44.572 h 0.565 c 5.288,25.58 7.257,51.671 11.283,77.298 1.59,10.114 -2.475,27.906 3.951,34.416 1.128,0.375 2.256,0.752 3.385,1.128 0.565,-0.376 1.128,-0.753 1.693,-1.128 -2.89,-20.89 -6.185,-52.423 -10.157,-73.912 -2.021,-10.937 -0.664,-20.877 -3.385,-30.467 0.188,-0.564 0.376,-1.13 0.565,-1.692 12.967,4.234 30.733,5.161 36.109,-7.9 0.376,-0.188 0.752,-0.377 1.128,-0.564 6.582,46.259 13.165,92.536 19.747,138.796 1.129,0.377 2.258,0.754 3.386,1.129 5.013,-5.36 -0.575,-27.702 -2.257,-36.675 -3.385,-23.13 -6.77,-46.267 -10.155,-69.398 -1.194,-11.101 -6.369,-27.659 -5.078,-38.93 -1.077,-5.57 24.169,-13.266 30.466,-15.798 27.323,-10.986 59.689,-17.248 92.532,-24.262 8.086,-1.315 16.174,-2.633 24.26,-3.948 2.902,15.843 0.369,33.08 -2.258,49.65 -5.323,33.597 3.057,66.048 2.823,97.608 z m 42.88,-290.004 c -0.188,0.564 -0.376,1.129 -0.565,1.692 v -1.692 z M 136.538,52.272 c 7.96,-20.276 27.244,-33.287 47.96,-40.622 53.578,-18.973 92.003,10.902 111.149,42.88 6.708,11.206 9.081,23.766 14.106,36.673 8.207,21.087 20.598,41.233 36.108,55.293 -13.41,3.232 -47.86,-23.864 -54.165,-32.724 h -1.127 c -0.377,0.189 -0.753,0.377 -1.13,0.564 -0.188,0.565 -0.376,1.129 -0.565,1.693 14.297,20.424 71.173,52.879 96.481,37.237 -0.567,-0.56 0.115,-0.475 0.566,-0.563 -2.251,-2.566 -8.828,-1.952 -10.158,0 -2.527,-4.225 -10.931,-2.555 -15.796,-4.513 -6.818,-2.746 -14.857,-9.193 -19.184,-14.671 -18.131,-22.957 -25.24,-52.489 -38.93,-80.682 -4.887,-10.066 -13.568,-17.377 -19.749,-25.953 0.189,-0.377 0.376,-0.754 0.565,-1.129 16.685,-2.498 40.37,-3.39 56.987,3.385 29.792,12.149 77.597,66.949 93.094,94.787 3.009,7.899 6.02,15.799 9.027,23.698 7.709,18.109 17.307,44.456 12.977,67.705 -3.541,19.019 -8.508,40.433 -16.926,54.729 -7.521,9.214 -15.048,18.432 -22.568,27.645 -4.513,6.771 -9.029,13.543 -13.543,20.312 -0.188,4.138 -0.374,8.275 -0.563,12.414 -4.356,19.745 -6.079,43.441 12.978,49.086 -13.942,9.398 -37.777,-6.706 -45.701,-13.542 h -2.822 c -0.999,2.652 0.289,4.278 1.128,7.9 -5.412,-0.452 -6.923,-2.614 -9.027,-6.206 h -2.258 c 0.189,1.317 0.377,2.633 0.566,3.949 -4.589,-2.144 -7.227,-5.488 -11.284,-7.335 1.127,-10.53 2.256,-21.064 3.383,-31.596 8.148,-12.052 15.191,-19.826 20.314,-33.853 52.008,21.823 73.485,-97.546 19.181,-97.609 -3.673,3.14 -6.913,5.417 -9.591,9.592 -15.194,-1.436 -30.443,-12.818 -37.238,-23.132 13.377,2.9 50.798,23.211 59.807,3.385 -0.564,-0.752 -1.129,-1.505 -1.692,-2.257 -46.414,18.062 -99.554,-35.631 -115.099,-66.577 -9.405,-18.719 -12.112,-36.326 -30.468,-48.522 -27.265,-18.114 -58.104,-3.141 -63.192,25.954 -1.375,7.861 3.657,10.292 4.514,15.798 -31.828,1.45 -71.812,-28.295 -58.115,-63.193 z m 297.34,393.256 c -7.541,-12.528 -20.429,-28.412 -30.466,-36.11 -10.152,-7.781 -18.847,-13.217 -25.391,-24.825 4.878,-2.102 12.968,1.329 17.491,2.258 13.004,2.672 33.967,0.012 40.624,-7.335 1.376,-1.345 1.153,-3.294 1.127,-6.207 -4.732,-0.382 -9.741,1.839 -13.54,1.129 -22.641,-4.235 -22.243,-38.052 -14.671,-56.422 6.97,-16.907 22.804,-28.555 32.162,-43.444 15.396,-24.5 24.25,-70.742 15.232,-104.379 -13.9,-51.848 -42.9,-86.157 -76.731,-117.921 -10.819,-10.156 -21.563,-21.921 -36.676,-27.646 -11.351,-4.3 -31.009,-9.09 -46.829,-6.206 -6.956,0.94 -13.917,1.881 -20.876,2.822 -4.513,-3.386 -9.026,-6.772 -13.54,-10.157 C 248.798,2.872 232.348,0.637 210.451,0.93 201.8,2.621 193.146,4.314 184.498,6.008 c -23.177,7.453 -49.225,23.961 -54.73,49.086 -2.727,12.45 1.99,23.64 3.95,32.724 -30.049,13.019 -34.925,51.531 -41.188,89.146 v 28.211 c 10.995,41.336 34.118,66.513 50.215,100.993 7.054,15.113 22.71,45.043 9.591,64.32 -3.166,4.653 -13.397,9.793 -22.568,7.9 -3.387,-0.701 -4.621,-3.404 -8.463,-2.256 -1.076,0.853 -1.017,0.997 -1.693,2.256 12.986,12.913 36.053,12.838 55.857,11.848 -0.376,0.189 -0.752,0.376 -1.128,0.564 -0.376,0.564 -0.752,1.128 -1.129,1.692 6.098,7.102 23.476,6.505 36.674,6.206 0.188,0.189 0.377,0.377 0.565,0.565 -18.752,26.638 -45.618,44.625 -64.321,71.657 -5.454,7.143 -10.909,14.294 -16.362,21.437 -0.752,0.566 -1.505,1.13 -2.257,1.694 -2.975,-6.42 -11.523,-10.353 -19.747,-11.286 -6.951,-24.44 -13.613,-51.46 -25.39,-71.653 -1.199,-2.017 -2.192,-2.471 -5.077,-2.822 h -0.565 c -0.869,4.273 2.933,12.496 3.95,18.054 1.692,16.174 3.385,32.35 5.078,48.524 0.995,8.586 -8.554,4.92 -9.028,11.849 -13.896,-10.471 -25.084,-30.148 -39.494,-44.573 -4.793,-4.798 -8.336,-13.357 -17.491,-13.54 -0.188,0.186 -0.376,0.373 -0.565,0.562 3.008,9.215 6.018,18.432 9.028,27.648 v 0.563 C 19.639,454.462 15.937,444.532 5.642,443.271 3.089,445.624 0.695,448.678 0,452.863 c 5.077,22.754 10.155,45.516 15.233,68.27 12.181,49.362 14.534,104.824 20.876,160.236 10.984,4.549 53.255,42.201 59.241,51.907 11.446,18.559 19.954,40.922 35.546,55.292 24.272,22.373 73.755,27.02 105.507,21.441 6.019,0.376 12.038,0.753 18.055,1.13 11.56,5.303 33.802,13.058 45.139,8.462 6.582,-4.514 13.165,-9.027 19.746,-13.54 12.41,-7.475 23.918,-12.635 36.109,-19.185 22.332,-11.99 41.764,-18.66 63.193,-31.032 5.098,-2.943 16.853,-6.501 18.055,-12.975 0.186,0.565 0.374,1.127 0.563,1.692 6.373,-5.008 7.186,-12.854 11.848,-19.746 11.456,-16.931 17.633,-36.641 22.006,-57.552 -0.377,-3.382 -0.754,-6.769 -1.131,-10.155 16.705,-84.793 2.145,-148.019 -36.108,-211.58"
         fill="#1a1919"
         id="path811" />
    </g>
    <path
       d="m 198.182,266.126 c 1.755,9.794 -0.128,18.325 -4.204,19.055 -4.078,0.731 -8.806,-6.616 -10.561,-16.409 -1.754,-9.793 0.128,-18.325 4.206,-19.055 4.076,-0.731 8.804,6.616 10.559,16.409"
       fill="#1a1919"
       id="path815" />
    <path
       d="m 299.534,259.264 c 1.529,9.548 -0.55,17.819 -4.638,18.474 -4.09,0.654 -8.646,-6.555 -10.174,-16.103 -1.529,-9.547 0.549,-17.818 4.638,-18.473 4.09,-0.654 8.646,6.554 10.174,16.102"
       fill="#1a1919"
       id="path817" />
  </g>
</svg>
