<svg width="140" height="117.594" viewBox="0 0 179.2 150.52" class="prefix__icon" xmlns="http://www.w3.org/2000/svg"><path d="M57.22 23.32c0-3.44-2.8-6.24-6.24-6.24H29c-3.44 0-6.24 2.8-6.24 6.24v73.8c0 3.44 2.8 6.24 6.24 6.24h21.98c3.44 0 6.24-2.8 6.24-6.24z" fill="#ffb819"/><path d="M91.66 6.24c0-3.44-2.8-6.24-6.24-6.24H63.46c-3.44 0-6.24 2.8-6.24 6.24v73.8c0 3.44 2.8 6.24 6.24 6.24h21.98c3.44 0 6.24-2.8 6.24-6.24V6.24z" fill="#0071ce"/><path d="M71.58 16.6h5.74v53.08h-5.74z" fill="#00b3e3"/><path d="M22.76 32.42h68.9v12.72h-68.9z"/><path d="M114.48 4.42c-2.42-2.42-6.4-2.42-8.82 0L93.5 16.58c-2.42 2.42-2.42 6.4 0 8.82l46.8 46.82c2.42 2.42 6.4 2.42 8.82 0l12.16-12.16c2.42-2.42 2.42-6.4 0-8.82z" fill="#00ad68"/><path d="M107.84 21.62a2.86 2.86 0 105.72 0 2.86 2.86 0 10-5.72 0zM120.427 27.281l28.553 28.553-4.059 4.059L116.37 31.34z" fill="#fff"/><path d="M142.48 32.42H100.5l12.72 12.7h41.98z"/><path d="M11 46.7h157.22v101.18H11z" fill="#d1d3d3"/><path d="M11 90.26h16.56v7.98H11zM37.16 67h16.56v7.98H37.16zm51.06-2.52h16.56v7.98H88.22zm-25.56-12.8h16.56v7.98H62.66zm88.98 24.18h16.56v7.98h-16.56zm-2.74 49h16.56v7.98H148.9zm-34.82 7.46h16.56v7.98h-16.56zm-29.42-22.54h16.56v7.98H84.66zm-66.82 21.76H34.4v7.98H17.84z"/><path d="M11 46.7h157.22v14.94H11z"/><path d="M174.82 51.84c0 2.1-1.72 3.82-3.82 3.82H8.2c-2.1 0-3.82-1.72-3.82-3.82v-9c0-2.1 1.72-3.82 3.82-3.82h162.78c2.1 0 3.82 1.72 3.82 3.82zM92.94 64.68h64.24V134H92.94z" fill="#333e48"/><path d="M120.28 93.42c0 1.14-.94 2.08-2.08 2.08h-15.16c-1.14 0-2.08-.94-2.08-2.08v-19.2c0-1.14.94-2.08 2.08-2.08h15.16c1.14 0 2.08.94 2.08 2.08z" fill="#00ad68"/><path d="M106.2 77.36h8.84v5.74h-8.84z" fill="#fff"/><path d="M149.18 93.42c0 1.14-.94 2.08-2.08 2.08h-15.16c-1.14 0-2.08-.94-2.08-2.08v-19.2c0-1.14.94-2.08 2.08-2.08h15.16c1.14 0 2.08.94 2.08 2.08z" fill="#0071ce"/><path d="M135.1 77.36h8.84v5.74h-8.84z" fill="#fff"/><path d="M120.28 124.46c0 1.14-.94 2.08-2.08 2.08h-15.16c-1.14 0-2.08-.94-2.08-2.08v-19.22c0-1.14.94-2.08 2.08-2.08h15.16c1.14 0 2.08.94 2.08 2.08z" fill="#00b3e3"/><path d="M106.2 108.4h8.84v5.74h-8.84z" fill="#fff"/><path d="M149.18 124.46c0 1.14-.94 2.08-2.08 2.08h-15.16c-1.14 0-2.08-.94-2.08-2.08v-19.22c0-1.14.94-2.08 2.08-2.08h15.16c1.14 0 2.08.94 2.08 2.08z" fill="#ffb819"/><path d="M135.1 108.4h8.84v5.74h-8.84z" fill="#fff"/><path d="M26.12 79.84h51.7v68.04h-51.7z" fill="#d68231"/><path d="M35.24 89.62H68.7v24.04H35.24z" fill="#333e48"/><path d="M44.02 97.24H59.9v5.74H44.02z" fill="#fff"/><path d="M35.24 124.88a2.86 2.86 0 105.72 0 2.86 2.86 0 10-5.72 0z" fill="#333e48"/><path d="M179.2 148.98c0 .84-.7 1.54-1.54 1.54H1.54c-.84 0-1.54-.7-1.54-1.54v-5.52c0-.84.7-1.54 1.54-1.54h176.12c.84 0 1.54.7 1.54 1.54z" fill="#a4a9ad"/></svg>