<svg version="1.1" xmlns="http://www.w3.org/2000/svg" xmlns:xlink="http://www.w3.org/1999/xlink" width="140" height="89.21302" viewBox="0,0,140,89.21302"><defs><linearGradient x1="192.19623" y1="180.23895" x2="169.99823" y2="180.23895" gradientUnits="userSpaceOnUse" id="color-1"><stop offset="0" stop-color="#fff45c"/><stop offset="1" stop-color="#de6f00"/></linearGradient><linearGradient x1="269.32282" y1="181.15429" x2="186.02994" y2="178.24368" gradientUnits="userSpaceOnUse" id="color-2"><stop offset="0.01" stop-color="#ffeb00"/><stop offset="0.2844" stop-color="#ffeb00"/><stop offset="0.7744" stop-color="#ee8b00"/><stop offset="0.99" stop-color="#e77d00"/></linearGradient><linearGradient x1="219.2875" y1="175.95205" x2="191.16858" y2="157.69379" gradientUnits="userSpaceOnUse" id="color-3"><stop offset="0.07" stop-color="#ffeb00"/><stop offset="0.4656" stop-color="#ffd800"/><stop offset="0.6376" stop-color="#f28d00"/><stop offset="0.93" stop-color="#ff6505"/></linearGradient><linearGradient x1="204.28917" y1="203.44662" x2="181.46442" y2="203.44662" gradientUnits="userSpaceOnUse" id="color-4"><stop offset="0" stop-color="#ffee00"/><stop offset="0.48" stop-color="#ffed00"/><stop offset="1" stop-color="#e75900"/></linearGradient><linearGradient x1="272.36166" y1="187.17447" x2="276.91242" y2="213.94635" gradientUnits="userSpaceOnUse" id="color-5"><stop offset="0.1" stop-color="#5d95fc"/><stop offset="0.564" stop-color="#dee9ff"/><stop offset="0.9" stop-color="#ffffff"/></linearGradient><linearGradient x1="267.22986" y1="200.66774" x2="268.79139" y2="187.95027" gradientUnits="userSpaceOnUse" id="color-6"><stop offset="0.06" stop-color="#b0ccff"/><stop offset="0.94" stop-color="#7dabff"/></linearGradient><linearGradient x1="280.4728" y1="165.291" x2="282.23276" y2="198.87567" gradientUnits="userSpaceOnUse" id="color-7"><stop offset="0.03" stop-color="#000000"/><stop offset="0.4436" stop-color="#12001f"/><stop offset="0.7444" stop-color="#210037"/><stop offset="0.9606" stop-color="#13001f"/><stop offset="0.97" stop-color="#2c004a"/></linearGradient><linearGradient x1="255.63675" y1="202.12365" x2="247.62726" y2="202.12365" gradientUnits="userSpaceOnUse" id="color-8"><stop offset="0" stop-color="#e85900"/><stop offset="0.99" stop-color="#f8b100"/><stop offset="1" stop-color="#000000"/></linearGradient></defs><g transform="translate(-170,-135.39349)"><g data-paper-data="{&quot;isPaintingLayer&quot;:true}" fill-rule="evenodd" stroke="none" stroke-width="1" stroke-linecap="butt" stroke-linejoin="miter" stroke-miterlimit="10" stroke-dasharray="" stroke-dashoffset="0" style="mix-blend-mode: normal"><path d="M251.80735,207.90375c6.69872,-5.48902 1.02825,-5.68559 3.85088,-12.66405c-2.6815,-11.43721 14.1535,-7.69294 32.75264,1.03077c9.37946,4.39953 20.97343,1.52523 21.58837,3.83349l-0.01184,0.71826c-2.68301,0.42919 -2.68755,0.78303 -0.01537,1.06151l-0.02823,1.85135c-10.04581,-0.20414 -18.3373,-0.47632 -27.91888,2.85792c-13.55621,4.71279 -23.93897,7.25493 -31.47237,7.84768c-3.94589,0.30973 3.68555,-5.80959 1.25582,-6.53667z" data-paper-data="{&quot;index&quot;:null}" fill="#789cff"/><path d="M192.19936,180.26109l-2.46476,9.96239c-4.79974,2.4819 -9.82882,4.73547 -15.08623,6.75971c-2.20594,0.84881 -2.87984,1.13888 -3.98546,-1.41056c-1.12905,-2.60212 -0.63686,-6.13091 0.1502,-9.82705c1.34831,-2.76089 2.39622,-5.59739 1.34378,-8.95758c-0.34905,-6.08706 -0.05721,-10.19223 0.65702,-12.31425c1.12578,-3.34709 3.01543,-0.5426 4.62257,0.8047c5.29093,4.43935 10.6252,8.81242 14.76137,14.98139z" data-paper-data="{&quot;index&quot;:null}" fill="url(#color-1)"/><path d="M265.75571,164.69728c-0.57461,-1.66082 -11.73157,24.71569 -10.3001,30.45421c-0.61367,5.64098 -4.92726,13.10811 -13.001,16.47335l8.96035,0.0058c-4.57166,4.42599 -11.816,10.68392 -18.20372,12.70362c-5.24657,1.65981 8.15666,-4.84712 4.77807,-3.99252c0.90854,-0.20187 -11.85733,4.31107 -8.34819,2.6684c6.25869,-2.92697 10.56976,-5.23977 1.46323,-2.34102c-1.30144,0.41483 -2.87682,0.93626 -4.75816,1.57563c1.19382,-2.35085 4.25336,-4.88895 11.41982,-7.83634c-11.83163,-0.03831 -20.49031,1.97685 -29.33524,4.92525l3.12078,-4.24202c-6.41923,0.44759 -14.16786,2.30095 -17.0036,1.55598l-0.44784,-3.80778c0.59754,-3.50712 -1.2659,-6.00969 -0.66836,-9.51707l-4.48169,-4.14222c3.91464,-4.90584 3.31861,-7.55534 0.67088,-9.17936c-1.7833,-0.39114 -1.69761,-1.01564 0.25656,-1.87352c-4.64071,-0.43297 -4.46455,-1.01993 0.24018,-1.76339c-2.54037,-0.97658 -1.5464,-1.44055 0.28655,-2.10085c-4.64903,-1.12905 -1.88965,-0.40323 0.2679,-1.96526c-3.27199,-0.47204 -1.89117,-0.80546 0.15247,-1.11948c-0.88888,-0.25807 -5.85394,-1.26111 0.14088,-1.03152c1.75482,0.03553 3.50864,0.39366 5.26295,0.89644c2.5192,-9.38652 8.26629,-19.27582 17.3529,-30.45421c-8.46059,-6.60572 6.95754,-0.40827 8.84972,1.57034c-0.20515,-1.18828 -3.65078,-3.05097 -6.95704,-5.45449c-1.7707,-1.28833 -0.12954,-2.21174 1.24624,-1.41485c4.5142,2.61875 9.29,5.32545 14.32714,8.21009c-3.38363,-2.95016 -6.60144,-5.60822 -10.09823,-8.28973c-2.32439,-1.7828 -2.51769,-4.4832 0.80722,-2.63564c4.43733,2.46678 8.39305,5.61351 13.20943,9.0226c-2.5318,-3.35112 -5.95072,-6.703 -9.50749,-10.05387c-2.02952,-1.91158 -1.92519,-4.38164 0.89442,-2.26138c5.24254,3.94539 10.61336,8.35223 15.55423,12.76259c-2.87178,-4.01621 -6.59312,-8.56947 -9.96743,-12.83543c-2.0701,-2.61875 -0.22405,-3.83223 2.21073,-1.72886c5.08301,4.39147 9.29982,9.11761 14.36318,14.2286c-2.15629,-4.67726 -4.91794,-9.20406 -8.07551,-13.63106c-1.65477,-2.32162 -0.34779,-3.72663 1.79162,-1.73012c4.32241,4.03612 8.38953,9.9949 13.56276,18.83378c-1.21172,-6.58657 -4.07946,-11.84876 -5.90813,-18.47263c-0.21321,-0.77043 0.57763,-1.02371 0.90324,-0.90476c2.98116,1.09125 10.21516,19.98703 10.49012,21.61407c1.24246,-3.33121 1.69333,-8.19497 1.52447,-12.48184c-0.1439,-3.66363 2.03633,-2.59758 2.20518,0.00731c0.36845,5.68635 0.281,11.48762 -0.03528,16.84332c1.64544,-2.09001 2.65529,-4.18078 3.69437,-6.27129c0.43499,2.24626 0.17641,5.175 -2.91109,9.18138z" data-paper-data="{&quot;index&quot;:null}" fill="url(#color-2)"/><path d="M249.81236,209.32288c-3.50712,3.23847 -7.40816,5.88671 -11.48762,8.26679c0.71549,-1.04538 9.26505,-6.41797 10.62848,-8.48202l0.85939,0.21674z" data-paper-data="{&quot;index&quot;:null}" fill="#d67d00"/><path d="M217.38835,154.17288v-0.0005c-8.86358,4.52428 -15.15402,14.87932 -19.88697,25.23738c-1.37125,3.00283 -3.05046,3.13791 -2.98242,-0.94281c0.49472,-29.53912 14.56832,-33.40941 22.86838,-24.29331z" data-paper-data="{&quot;index&quot;:null}" fill="url(#color-3)"/><path d="M250.69947,210.65607c-3.50687,3.23847 -7.40765,5.88696 -11.48762,8.26679c0.71624,-1.04538 9.26605,-6.41746 10.62898,-8.48151l0.85687,0.21422z" data-paper-data="{&quot;index&quot;:null}" fill="#d67d00"/><path d="M249.81236,209.32288c-3.50712,3.23847 -7.40816,5.88671 -11.48762,8.26679c0.71549,-1.04538 9.26505,-6.41797 10.62848,-8.48202l0.85939,0.21674z" data-paper-data="{&quot;index&quot;:null}" fill="#d67d00"/><path d="M204.28729,214.85474c-8.19118,0.88913 -14.8584,0.64467 -18.85671,-1.39443c-2.06531,-1.05294 -3.96782,-3.01341 -3.96782,-5.47566c0,-1.44685 0.61191,-2.89345 1.2659,-4.54167c1.964,-4.94868 3.70395,-8.67305 6.05732,-10.54002c4.65054,-3.68933 11.93798,0.72582 1.73063,6.27608c0.9849,0.5794 1.98668,1.27875 2.78886,2.13487c0.40071,0.42667 0.75253,0.89341 1.02825,1.40199c0.27521,0.51059 0.47405,1.06353 0.57007,1.66334c1.43652,9.00975 -2.09429,5.81664 9.38022,10.47651z" data-paper-data="{&quot;index&quot;:null}" fill="url(#color-4)"/><path d="M248.26243,208.5895c-4.21631,3.89347 -8.90592,7.07725 -13.811,9.9392c0.86065,-1.25683 11.13983,-7.71587 12.77822,-10.19727l1.03329,0.25706z" data-paper-data="{&quot;index&quot;:null}" fill="#d67d00"/><path d="M241.01153,212.05227c6.69872,-5.11351 11.82482,-10.79406 14.64746,-17.29872c-2.6815,-10.65822 14.1535,-7.16899 32.75264,0.96096c9.37946,4.09988 20.97343,1.4214 21.58837,3.5724l-0.01184,0.67038c-2.68301,0.39971 -2.68755,1.17366 -0.01537,1.43299l-0.02823,1.28178c-10.04429,-0.19179 -18.33578,-0.44557 -27.91888,2.66033c-20.65891,6.69443 -33.94495,8.68641 -41.01389,6.71737z" data-paper-data="{&quot;index&quot;:null}" fill="url(#color-5)"/><path d="M190.55619,199.13065l-0.33267,-7.77737c12.70589,-3.45974 10.74239,5.96105 0.33368,7.77787z" data-paper-data="{&quot;index&quot;:null}" fill="#fffb00"/><g data-paper-data="{&quot;index&quot;:null}" fill="#d67d00"><path d="M203.95463,166.97328c-4.00134,-2.07388 -2.49123,-2.34077 -6.02582,-5.48776c1.12729,0.22077 3.65481,4.06686 5.85999,4.44716l0.16633,1.03833z"/><path d="M203.54131,168.57361c-4.00184,-2.07388 -2.49173,-2.34153 -6.02582,-5.48776c1.12729,0.22001 3.6543,4.06686 5.85949,4.44666l0.16633,1.04337z"/><path d="M205.56756,165.92739c-4.00134,-2.07363 -2.49173,-2.34127 -6.02582,-5.4875c1.12729,0.22001 3.6543,4.06611 5.85949,4.44666z"/><path d="M207.52576,164.70257c-4.00083,-2.07388 -2.49072,-2.34153 -6.02532,-5.48776c1.12679,0.22027 3.6538,4.06686 5.85898,4.44666l0.16633,1.04085z"/><path d="M207.31407,162.03871c-4.00083,-2.07388 -2.49072,-2.34102 -6.02532,-5.48776c1.12679,0.22052 3.6538,4.06686 5.85949,4.44716l0.16633,1.04085z"/></g><path d="M195.54368,191.36992c1.19206,1.35587 0.67038,3.77275 -1.16182,5.38317c-1.82967,1.6089 -4.5457,2.3196 -5.7365,0.96574c-1.19156,-1.35461 -0.41936,-4.5268 1.41081,-6.13646c1.82967,-1.6089 4.29418,-1.56555 5.48599,-0.21094z" data-paper-data="{&quot;index&quot;:null}" fill="#251533"/><g data-paper-data="{&quot;index&quot;:null}" fill="#d67d00"><path d="M194.32239,208.78104c-5.35343,2.0696 -4.03964,0.5116 -9.65316,1.36747c1.26262,-0.85183 6.35068,-0.28277 8.78772,-1.98719l0.86443,0.61997z"/><path d="M194.98772,210.336c-5.35343,2.0696 -4.04065,0.51185 -9.65417,1.36822c1.26363,-0.85208 6.35168,-0.28352 8.78822,-1.98769l0.86695,0.61997z"/><path d="M195.21202,206.55569c-5.35343,2.06909 -4.04065,0.51185 -9.65417,1.36721c1.26313,-0.85158 6.35168,-0.28327 8.78822,-1.98668l0.86695,0.61745z"/><path d="M196.32343,203.88679c-5.35292,2.0696 -4.03964,0.51185 -9.65316,1.36797c1.26262,-0.85183 6.35118,-0.28327 8.78822,-1.98769l0.86443,0.61997z"/><path d="M194.32239,202.10752c-5.35343,2.0696 -4.03964,0.51185 -9.65316,1.36721c1.26262,-0.85158 6.35068,-0.28277 8.78772,-1.98668l0.86443,0.61997z"/></g><path d="M256.22327,195.01389c1.07865,-7.93362 3.79796,-8.77285 9.05259,-2.6815c3.79619,-2.9237 7.44545,-7.5198 14.53581,1.22986c-1.15955,1.51691 -2.53987,2.99678 -4.56511,4.36878c-1.87504,1.27019 -3.55173,1.81682 -5.80959,2.1074c-4.11626,0.52975 -8.54729,0.44986 -11.48585,-2.7309c-0.67516,-0.73162 -1.23893,-1.49978 -1.73239,-2.29188z" data-paper-data="{&quot;index&quot;:null}" fill="url(#color-6)"/><path d="M272.70342,189.24992c2.90076,0 5.25464,1.83975 5.25464,4.10542c0,2.26894 -2.35287,4.10769 -5.25464,4.10769c-2.90253,0 -5.25489,-1.83874 -5.25489,-4.10769c0,-2.26743 2.35236,-4.10593 5.25489,-4.10593z" data-paper-data="{&quot;index&quot;:null}" fill="#4a9eff"/><path d="M266.09291,164.58412c5.02782,7.77006 9.00546,17.93885 15.45922,25.16026c1.46651,1.6404 3.01543,3.13842 4.9318,4.24454c5.19314,3.00031 14.06882,4.87812 23.49667,4.4081l0.00025,1.45643c-17.10365,0.41483 -28.24651,-2.16889 -33.81113,-8.09844c-2.67797,-2.85515 -2.6001,-2.71099 -5.03462,-0.70843c-1.73038,1.4214 -3.67018,2.05221 -5.42299,2.27272c-3.42043,0.42995 -2.98393,-0.89946 -3.89272,-2.62833c-1.06504,-2.02574 -1.9078,-2.24576 -2.87682,-0.07661c-0.33116,0.74094 -0.68146,1.6457 -1.24599,2.60489c-1.70996,2.90681 -2.98468,3.25888 -3.51771,-0.56982c-1.25506,-9.03999 6.45678,-31.64627 11.91555,-28.06757z" data-paper-data="{&quot;index&quot;:null}" fill="url(#color-7)"/><path d="M273.48216,190.78447c1.60537,0 2.91084,1.10133 2.91084,2.46224c0,1.36117 -1.3037,2.46376 -2.91084,2.46376c-1.60789,0 -2.91109,-1.10234 -2.91109,-2.46376c0,-1.35991 1.3032,-2.4625 2.91109,-2.4625z" data-paper-data="{&quot;index&quot;:null}" fill="#ffffff"/><path d="M273.48217,194.12047c-1.13577,0 -2.05649,-0.6418 -2.05649,-1.4335c0,-0.7917 0.92072,-1.4335 2.05649,-1.4335c1.13577,0 2.05649,0.6418 2.05649,1.4335c0,0.7917 -0.92072,1.4335 -2.05649,1.4335z" data-paper-data="{&quot;index&quot;:null}" fill="#000000"/><path d="M252.32274,197.27426l-3.35944,5.48902c-0.20338,-1.69988 -4.60593,-3.77376 -12.09196,-7.6133l4.81234,0.55999c-2.46376,-2.64874 -9.44222,-9.34468 -13.69583,-11.3979c3.65783,0.8977 10.33916,7.10749 14.59226,10.39057c-4.91441,-7.2388 -13.85813,-13.83091 -23.61638,-20.14882c11.01987,5.38468 20.52736,12.26359 28.2087,21.2678c-6.58102,-10.54304 -18.28538,-18.28462 -31.04898,-24.95587c-1.20945,-0.63131 -2.2319,-2.58372 0.38433,-1.38233c7.51274,3.45067 16.1742,6.06161 35.81218,27.79287z" data-paper-data="{&quot;index&quot;:null}" fill="#12001e"/><path d="M248.34131,208.32337c-0.39567,-0.94256 -0.60485,-1.9456 -0.68046,-2.99401c-0.22001,-3.14169 0.68575,-3.96076 2.5623,-6.32396c1.18929,-1.49751 2.58473,-3.35112 4.78437,-3.06609c2.17292,2.28911 -1.57261,7.18839 -6.66696,12.38305z" data-paper-data="{&quot;index&quot;:null}" fill="url(#color-8)"/><path d="M263.85244,143.53861c2.03885,13.88585 -0.2999,18.4192 -0.25706,17.82191c0.30822,-4.25411 0.40575,-10.2633 0.25857,-15.10538c-0.02949,-0.97104 0.00151,-1.88663 -0.00151,-2.71628z" data-paper-data="{&quot;index&quot;:null}" fill="#f28d00"/><path d="M259.92974,156.26365c1.10385,4.03486 0.79135,4.56032 -0.83167,0.25026c-2.38034,-6.31111 -5.12107,-12.86189 -8.11986,-19.58379c1.8642,1.51263 6.72266,11.19023 8.95279,19.33354z" data-paper-data="{&quot;index&quot;:null}" fill="#f28d00"/><path d="M256.10683,158.69263c0.95012,2.7866 -0.86695,0.85183 -1.27271,-0.38232c-1.78053,-5.41543 -7.36002,-13.00277 -11.9778,-19.76021c-1.90679,-2.79012 -1.23037,-2.04918 0.52093,0.01865c4.78663,5.65384 11.41604,16.26014 12.73059,20.12387z" data-paper-data="{&quot;index&quot;:null}" fill="#f28d00"/><path d="M249.04697,154.91509c1.48944,2.8937 1.45416,3.25964 -0.52924,0.54058c-3.52224,-4.82091 -8.99009,-10.42157 -14.32235,-15.96603c-3.48066,-3.61826 -0.7674,-1.07134 1.0164,0.44608c6.32371,5.38014 11.60607,10.64562 13.83696,14.97937z" data-paper-data="{&quot;index&quot;:null}" fill="#f28d00"/><path d="M244.68474,156.96477c1.78431,2.9237 1.07109,2.92319 -0.88963,0.85536c-7.27332,-7.67958 -16.48822,-15.34001 -17.78562,-18.08981c5.39123,4.76647 15.74072,12.42262 18.67425,17.23445z" data-paper-data="{&quot;index&quot;:null}" fill="#f28d00"/><path d="M236.06209,155.76641c-4.67978,-3.33373 -8.83283,-6.66873 -12.68421,-10.00246c-3.4169,-2.95747 -2.09203,-1.98214 0.80042,-0.22984c5.04294,3.05651 9.67609,6.33102 12.26435,9.27664c1.86495,2.12025 2.28835,2.85515 -0.38055,0.95566z" data-paper-data="{&quot;index&quot;:null}" fill="#f28d00"/><path d="M230.90197,155.16358c3.48041,3.35894 1.07613,1.92065 -1.35587,0.42062c-4.65987,-2.87732 -8.92205,-6.02002 -13.05342,-9.24992c6.29599,3.01845 11.45511,5.97894 14.40804,8.8293z" data-paper-data="{&quot;index&quot;:null}" fill="#f28d00"/><path d="M226.12214,156.85867c-1.73642,-0.02041 -8.1806,-4.40986 -12.98664,-7.50191c0.5925,-1.7775 8.3928,2.64899 12.98689,7.50191z" data-paper-data="{&quot;index&quot;:null}" fill="#f28d00"/><path d="M291.38548,200.1216c-6.4598,0.12374 -10.08789,-6.18333 -18.01925,-1.55648c0.09249,-1.77902 1.66359,-3.26191 4.71254,-4.44842l10.8117,4.22614l2.49476,1.77927z" data-paper-data="{&quot;index&quot;:null}" fill="#c2f5ff"/><path d="M258.68097,193.86392l8.00973,11.87649c-0.25757,0.0189 1.25154,1.52775 -6.07622,-5.5238c-1.56757,-3.13514 -1.84227,-4.69767 -1.933,-6.35345z" data-paper-data="{&quot;index&quot;:null}" fill="#f9f5ff"/></g></g></svg>