<svg width="127.28" height="140" viewBox="0 0 162.919 179.2" class="prefix__icon" xmlns="http://www.w3.org/2000/svg"><path d="M136.84 125.26c0-1.28-1.04-2.32-2.32-2.32H35.08c-1.28 0-2.32 1.04-2.32 2.32v47.26c0 1.28 1.04 2.32 2.32 2.32h99.44c1.28 0 2.32-1.04 2.32-2.32z" fill="#a4a9ad"/><path d="M43.42 122.94h82.74v47.54H43.42z"/><path d="M43.74 57.86c-6.38 0-12.18 2.42-16.56 6.4-2.32-.96-4.88-1.5-7.54-1.5-10.12 0-18.48 7.64-19.6 17.48-.08.74-.24 2.24 1.88 2.24h64.44c1.28 0 1.96-1.64 1.88-2.44-1.22-12.46-11.72-22.18-24.5-22.18zm75.44-51.84c6.38 0 12.18 2.42 16.56 6.4 2.32-.96 4.88-1.5 7.54-1.5 10.12 0 18.48 7.64 19.6 17.48.08.74.24 2.24-1.88 2.24H96.56c-1.28 0-1.96-1.64-1.88-2.44 1.24-12.46 11.74-22.18 24.5-22.18z" fill="#00b3e3"/><path d="M85.84 34c-1.6 0-2.9-1.3-2.9-2.9V2.9c0-1.6 1.3-2.9 2.9-2.9 1.6 0 2.9 1.3 2.9 2.9v28.2c0 1.6-1.28 2.9-2.9 2.9z" fill="#a4a9ad"/><path d="M82.96 24.62h5.8v6.46h-5.8z"/><path d="M103.34 30.44c0-1.28-1.04-2.32-2.32-2.32H70.68c-1.28 0-2.32 1.04-2.32 2.32v6.6c0 1.28 1.04 2.32 2.32 2.32h30.34c1.28 0 2.32-1.04 2.32-2.32z" fill="#333e48"/><path d="M68.36 34.5h34.98v4.84H68.36z"/><path d="M110.9 40.46c0-1.28-1.04-2.32-2.32-2.32H61.02c-1.28 0-2.32 1.04-2.32 2.32v50.4c0 1.28 1.04 2.32 2.32 2.32h47.56c1.28 0 2.32-1.04 2.32-2.32z" fill="#a4a9ad"/><path d="M58.7 84.24h52.2v8.96H58.7z"/><path d="M119.84 170.48V92.54c0-1.28-1.04-2.32-2.32-2.32H52.08c-1.28 0-2.32 1.04-2.32 2.32v77.94z" fill="#d1d3d3"/><path d="M71.46 141.74h26.68v28.74H71.46z" fill="#00b3e3"/><path d="M81.9 141.74h5.8v28.74h-5.8z"/><path d="M159.84 177.64c0 .86-.7 1.56-1.56 1.56H11.32c-.86 0-1.56-.7-1.56-1.56v-5.58c0-.86.7-1.56 1.56-1.56H158.3c.86 0 1.56.7 1.56 1.56z" fill="#333e48"/><path d="M49.76 108.14h70.06v5.8H49.76zm0 19.32h70.06v5.8H49.76zM58.7 66h52.2v5.8H58.7zm0-14.58h52.2v5.8H58.7z"/><path d="M60.44 170.48v-8.54c0-1.06-.88-1.94-1.94-1.94H22.94c-1.06 0-1.94.88-1.94 1.94v8.54z" fill="#d68231"/><path d="M55.02 160.02c0-7.9-6.4-14.3-14.3-14.3s-14.3 6.4-14.3 14.3z" fill="#218649"/><path d="M54.64 156.74H26.8c-.24 1.06-.38 2.14-.38 3.28h28.62c-.02-1.14-.14-2.22-.4-3.28z"/><path d="M109.16 170.48v-8.54c0-1.06.88-1.94 1.94-1.94h35.56c1.06 0 1.94.88 1.94 1.94v8.54z" fill="#d68231"/><path d="M114.56 160.02c0-7.9 6.4-14.3 14.3-14.3s14.3 6.4 14.3 14.3z" fill="#218649"/><path d="M114.94 156.74h27.84c.24 1.06.38 2.14.38 3.28h-28.6c0-1.14.14-2.22.38-3.28z"/></svg>