<svg version="1.1" xmlns="http://www.w3.org/2000/svg" xmlns:xlink="http://www.w3.org/1999/xlink" width="60.28747" height="226.29701" viewBox="0,0,60.28747,226.29701"><defs><linearGradient x1="232.25254" y1="77.61723" x2="241.58588" y2="77.61723" gradientUnits="userSpaceOnUse" id="color-1"><stop offset="0" stop-color="#326c5c"/><stop offset="1" stop-color="#326c5c" stop-opacity="0"/></linearGradient><linearGradient x1="233.58534" y1="71.22125" x2="240.25201" y2="71.22125" gradientUnits="userSpaceOnUse" id="color-2"><stop offset="0" stop-color="#705d00"/><stop offset="0.25" stop-color="#fde275" stop-opacity="0.8902"/><stop offset="0.5" stop-color="#fff2cb"/><stop offset="0.75" stop-color="#fde275" stop-opacity="0.8902"/><stop offset="1" stop-color="#ffe35f" stop-opacity="0.86614"/></linearGradient><radialGradient cx="237.61909" cy="79.87924" r="1.06235" gradientUnits="userSpaceOnUse" id="color-3"><stop offset="0" stop-color="#ffffff"/><stop offset="0.25" stop-color="#ffff4e"/><stop offset="0.5" stop-color="#ffff00"/><stop offset="0.75" stop-color="#fffc2a" stop-opacity="0.8902"/><stop offset="1" stop-color="#d4d400"/></radialGradient><radialGradient cx="237.61909" cy="82.00457" r="1.06235" gradientUnits="userSpaceOnUse" id="color-4"><stop offset="0" stop-color="#ffffff"/><stop offset="0.25" stop-color="#ffff4e"/><stop offset="0.5" stop-color="#ffff00"/><stop offset="0.75" stop-color="#fffc2a" stop-opacity="0.8902"/><stop offset="1" stop-color="#d4d400"/></radialGradient><radialGradient cx="237.61909" cy="84.12991" r="1.06235" gradientUnits="userSpaceOnUse" id="color-5"><stop offset="0" stop-color="#ffffff"/><stop offset="0.25" stop-color="#ffff4e"/><stop offset="0.5" stop-color="#ffff00"/><stop offset="0.75" stop-color="#fffc2a" stop-opacity="0.8902"/><stop offset="1" stop-color="#d4d400"/></radialGradient><radialGradient cx="239.74443" cy="80.50057" r="1.06235" gradientUnits="userSpaceOnUse" id="color-6"><stop offset="0" stop-color="#ffffff"/><stop offset="0.25" stop-color="#ffff4e"/><stop offset="0.5" stop-color="#ffff00"/><stop offset="0.75" stop-color="#fffc2a" stop-opacity="0.8902"/><stop offset="1" stop-color="#d4d400"/></radialGradient><radialGradient cx="239.74443" cy="82.6259" r="1.06235" gradientUnits="userSpaceOnUse" id="color-7"><stop offset="0" stop-color="#ffffff"/><stop offset="0.25" stop-color="#ffff4e"/><stop offset="0.5" stop-color="#ffff00"/><stop offset="0.75" stop-color="#fffc2a" stop-opacity="0.8902"/><stop offset="1" stop-color="#d4d400"/></radialGradient><radialGradient cx="239.74443" cy="84.75124" r="1.06235" gradientUnits="userSpaceOnUse" id="color-8"><stop offset="0" stop-color="#ffffff"/><stop offset="0.25" stop-color="#ffff4e"/><stop offset="0.5" stop-color="#ffff00"/><stop offset="0.75" stop-color="#fffc2a" stop-opacity="0.8902"/><stop offset="1" stop-color="#d4d400"/></radialGradient><radialGradient cx="241.86976" cy="80.9699" r="1.06235" gradientUnits="userSpaceOnUse" id="color-9"><stop offset="0" stop-color="#ffffff"/><stop offset="0.25" stop-color="#ffff4e"/><stop offset="0.5" stop-color="#ffff00"/><stop offset="0.75" stop-color="#fffc2a" stop-opacity="0.8902"/><stop offset="1" stop-color="#d4d400"/></radialGradient><radialGradient cx="241.86976" cy="83.09524" r="1.06235" gradientUnits="userSpaceOnUse" id="color-10"><stop offset="0" stop-color="#ffffff"/><stop offset="0.25" stop-color="#ffff4e"/><stop offset="0.5" stop-color="#ffff00"/><stop offset="0.75" stop-color="#fffc2a" stop-opacity="0.8902"/><stop offset="1" stop-color="#d4d400"/></radialGradient><radialGradient cx="241.86976" cy="85.22057" r="1.06235" gradientUnits="userSpaceOnUse" id="color-11"><stop offset="0" stop-color="#ffffff"/><stop offset="0.25" stop-color="#ffff4e"/><stop offset="0.5" stop-color="#ffff00"/><stop offset="0.75" stop-color="#fffc2a" stop-opacity="0.8902"/><stop offset="1" stop-color="#d4d400"/></radialGradient><radialGradient cx="243.99509" cy="81.47924" r="1.06235" gradientUnits="userSpaceOnUse" id="color-12"><stop offset="0" stop-color="#ffffff"/><stop offset="0.25" stop-color="#ffff4e"/><stop offset="0.5" stop-color="#ffff00"/><stop offset="0.75" stop-color="#fffc2a" stop-opacity="0.8902"/><stop offset="1" stop-color="#d4d400"/></radialGradient><radialGradient cx="243.99509" cy="83.60457" r="1.06235" gradientUnits="userSpaceOnUse" id="color-13"><stop offset="0" stop-color="#ffffff"/><stop offset="0.25" stop-color="#ffff4e"/><stop offset="0.5" stop-color="#ffff00"/><stop offset="0.75" stop-color="#fffc2a" stop-opacity="0.8902"/><stop offset="1" stop-color="#d4d400"/></radialGradient><radialGradient cx="243.99509" cy="85.72991" r="1.06235" gradientUnits="userSpaceOnUse" id="color-14"><stop offset="0" stop-color="#ffffff"/><stop offset="0.25" stop-color="#ffff4e"/><stop offset="0.5" stop-color="#ffff00"/><stop offset="0.75" stop-color="#fffc2a" stop-opacity="0.8902"/><stop offset="1" stop-color="#d4d400"/></radialGradient><radialGradient cx="246.12843" cy="82.01257" r="1.06235" gradientUnits="userSpaceOnUse" id="color-15"><stop offset="0" stop-color="#ffffff"/><stop offset="0.25" stop-color="#ffff4e"/><stop offset="0.5" stop-color="#ffff00"/><stop offset="0.75" stop-color="#fffc2a" stop-opacity="0.8902"/><stop offset="1" stop-color="#d4d400"/></radialGradient><radialGradient cx="246.12843" cy="84.1379" r="1.06235" gradientUnits="userSpaceOnUse" id="color-16"><stop offset="0" stop-color="#ffffff"/><stop offset="0.25" stop-color="#ffff4e"/><stop offset="0.5" stop-color="#ffff00"/><stop offset="0.75" stop-color="#fffc2a" stop-opacity="0.8902"/><stop offset="1" stop-color="#d4d400"/></radialGradient><radialGradient cx="246.12843" cy="86.26325" r="1.06235" gradientUnits="userSpaceOnUse" id="color-17"><stop offset="0" stop-color="#ffffff"/><stop offset="0.25" stop-color="#ffff4e"/><stop offset="0.5" stop-color="#ffff00"/><stop offset="0.75" stop-color="#fffc2a" stop-opacity="0.8902"/><stop offset="1" stop-color="#d4d400"/></radialGradient><radialGradient cx="235.35509" cy="79.7059" r="1.06235" gradientUnits="userSpaceOnUse" id="color-18"><stop offset="0" stop-color="#ffffff"/><stop offset="0.25" stop-color="#ffff4e"/><stop offset="0.5" stop-color="#ffff00"/><stop offset="0.75" stop-color="#fffc2a" stop-opacity="0.8902"/><stop offset="1" stop-color="#d4d400"/></radialGradient><radialGradient cx="235.35509" cy="81.83124" r="1.06235" gradientUnits="userSpaceOnUse" id="color-19"><stop offset="0" stop-color="#ffffff"/><stop offset="0.25" stop-color="#ffff4e"/><stop offset="0.5" stop-color="#ffff00"/><stop offset="0.75" stop-color="#fffc2a" stop-opacity="0.8902"/><stop offset="1" stop-color="#d4d400"/></radialGradient><radialGradient cx="235.35509" cy="83.95657" r="1.06235" gradientUnits="userSpaceOnUse" id="color-20"><stop offset="0" stop-color="#ffffff"/><stop offset="0.25" stop-color="#ffff4e"/><stop offset="0.5" stop-color="#ffff00"/><stop offset="0.75" stop-color="#fffc2a" stop-opacity="0.8902"/><stop offset="1" stop-color="#d4d400"/></radialGradient><radialGradient cx="233.26709" cy="80.50057" r="1.06235" gradientUnits="userSpaceOnUse" id="color-21"><stop offset="0" stop-color="#ffffff"/><stop offset="0.25" stop-color="#ffff4e"/><stop offset="0.5" stop-color="#ffff00"/><stop offset="0.75" stop-color="#fffc2a" stop-opacity="0.8902"/><stop offset="1" stop-color="#d4d400"/></radialGradient><radialGradient cx="233.26709" cy="82.6259" r="1.06235" gradientUnits="userSpaceOnUse" id="color-22"><stop offset="0" stop-color="#ffffff"/><stop offset="0.25" stop-color="#ffff4e"/><stop offset="0.5" stop-color="#ffff00"/><stop offset="0.75" stop-color="#fffc2a" stop-opacity="0.8902"/><stop offset="1" stop-color="#d4d400"/></radialGradient><radialGradient cx="233.26709" cy="84.75124" r="1.06235" gradientUnits="userSpaceOnUse" id="color-23"><stop offset="0" stop-color="#ffffff"/><stop offset="0.25" stop-color="#ffff4e"/><stop offset="0.5" stop-color="#ffff00"/><stop offset="0.75" stop-color="#fffc2a" stop-opacity="0.8902"/><stop offset="1" stop-color="#d4d400"/></radialGradient><radialGradient cx="231.13376" cy="81.26325" r="1.06235" gradientUnits="userSpaceOnUse" id="color-24"><stop offset="0" stop-color="#ffffff"/><stop offset="0.25" stop-color="#ffff4e"/><stop offset="0.5" stop-color="#ffff00"/><stop offset="0.75" stop-color="#fffc2a" stop-opacity="0.8902"/><stop offset="1" stop-color="#d4d400"/></radialGradient><radialGradient cx="231.13376" cy="83.38857" r="1.06235" gradientUnits="userSpaceOnUse" id="color-25"><stop offset="0" stop-color="#ffffff"/><stop offset="0.25" stop-color="#ffff4e"/><stop offset="0.5" stop-color="#ffff00"/><stop offset="0.75" stop-color="#fffc2a" stop-opacity="0.8902"/><stop offset="1" stop-color="#d4d400"/></radialGradient><radialGradient cx="231.13376" cy="85.51124" r="1.06235" gradientUnits="userSpaceOnUse" id="color-26"><stop offset="0" stop-color="#ffffff"/><stop offset="0.25" stop-color="#ffff4e"/><stop offset="0.5" stop-color="#ffff00"/><stop offset="0.75" stop-color="#fffc2a" stop-opacity="0.8902"/><stop offset="1" stop-color="#d4d400"/></radialGradient><radialGradient cx="229.00043" cy="81.8819" r="1.06235" gradientUnits="userSpaceOnUse" id="color-27"><stop offset="0" stop-color="#ffffff"/><stop offset="0.25" stop-color="#ffff4e"/><stop offset="0.5" stop-color="#ffff00"/><stop offset="0.75" stop-color="#fffc2a" stop-opacity="0.8902"/><stop offset="1" stop-color="#d4d400"/></radialGradient><radialGradient cx="229.00043" cy="84.00725" r="1.06235" gradientUnits="userSpaceOnUse" id="color-28"><stop offset="0" stop-color="#ffffff"/><stop offset="0.25" stop-color="#ffff4e"/><stop offset="0.5" stop-color="#ffff00"/><stop offset="0.75" stop-color="#fffc2a" stop-opacity="0.8902"/><stop offset="1" stop-color="#d4d400"/></radialGradient><radialGradient cx="229.00043" cy="86.13257" r="1.06235" gradientUnits="userSpaceOnUse" id="color-29"><stop offset="0" stop-color="#ffffff"/><stop offset="0.25" stop-color="#ffff4e"/><stop offset="0.5" stop-color="#ffff00"/><stop offset="0.75" stop-color="#fffc2a" stop-opacity="0.8902"/><stop offset="1" stop-color="#d4d400"/></radialGradient><linearGradient x1="234.87601" y1="61.90658" x2="238.98268" y2="61.90658" gradientUnits="userSpaceOnUse" id="color-30"><stop offset="0" stop-color="#ffff00"/><stop offset="1" stop-color="#ffff00" stop-opacity="0"/></linearGradient><linearGradient x1="234.7415" y1="61.90622" x2="239.11574" y2="61.90612" gradientUnits="userSpaceOnUse" id="color-31"><stop offset="0" stop-color="#705d00"/><stop offset="0.25" stop-color="#fde275" stop-opacity="0.8902"/><stop offset="0.5" stop-color="#fff2cb"/><stop offset="0.75" stop-color="#fde275" stop-opacity="0.8902"/><stop offset="1" stop-color="#ffe35f" stop-opacity="0.86614"/></linearGradient></defs><g transform="translate(-210.65468,-54.35891)"><g data-paper-data="{&quot;isPaintingLayer&quot;:true}" stroke-dasharray="" style="mix-blend-mode: normal"><path d="M242.43792,91.34147l-1.05364,11.12171l9.13151,7.84373l6.43889,8.89738l-0.70242,16.7411l1.05363,9.36565l-2.45849,37.22847l0.70243,40.50644l1.1707,23.41413l-35.35534,1.87313l1.87313,-23.41413l-0.11707,-107.11965l13.69727,-21.54099z" fill="#386156" fill-rule="nonzero" stroke="none" stroke-width="0.23438" stroke-linecap="butt" stroke-linejoin="miter" stroke-miterlimit="10" stroke-dashoffset="0"/><path d="M240.25254,74.95058l1.33333,5.33333h-5.33333h-4l1.33333,-5.33333" fill="#3d8470" fill-rule="nonzero" stroke="none" stroke-width="0.25" stroke-linecap="butt" stroke-linejoin="miter" stroke-miterlimit="10" stroke-dashoffset="0"/><path d="M240.25254,74.95058l1.33333,5.33333h-5.33333h-4l1.33333,-5.33333" fill="url(#color-1)" fill-rule="nonzero" stroke="none" stroke-width="0.25" stroke-linecap="butt" stroke-linejoin="miter" stroke-miterlimit="10" stroke-dashoffset="0"/><path d="M237.53604,78.95238l8.64814,2.78929l0.23413,6.67302l-10.30221,-2.22434l-7.02425,2.22434l-0.46828,-6.67302l3.86333,-1.52192z" fill="#bac7c3" fill-rule="nonzero" stroke="none" stroke-width="0.23438" stroke-linecap="butt" stroke-linejoin="miter" stroke-miterlimit="10" stroke-dashoffset="0"/><path d="M233.58534,74.9506l1.33333,-7.45627l4,0.41811l1.33333,7.03813" fill="url(#color-2)" fill-rule="nonzero" stroke="none" stroke-width="0.25" stroke-linecap="butt" stroke-linejoin="miter" stroke-miterlimit="10" stroke-dashoffset="0"/><path d="M236.02774,234.11725l23.30747,-6.63253l11.60693,37.14133l-35.0432,16.02987z" fill="#4f8979" fill-rule="nonzero" stroke="none" stroke-width="0.25" stroke-linecap="butt" stroke-linejoin="miter" stroke-miterlimit="10" stroke-dashoffset="0"/><path d="M236.12134,218.64258l23.21387,-5.30613l-1.93451,14.70213l-21.27947,6.07973z" fill="#4f8979" fill-rule="nonzero" stroke="none" stroke-width="0.25" stroke-linecap="butt" stroke-linejoin="miter" stroke-miterlimit="10" stroke-dashoffset="0"/><path d="M236.12134,203.16525l23.21387,-3.97947l-1.93451,14.59147l-21.27947,4.86373z" fill="#4f8979" fill-rule="nonzero" stroke="none" stroke-width="0.25" stroke-linecap="butt" stroke-linejoin="miter" stroke-miterlimit="10" stroke-dashoffset="0"/><path d="M236.12134,187.69058l23.21387,-2.65301l-1.93451,14.48107l-21.27947,3.648z" fill="#4f8979" fill-rule="nonzero" stroke="none" stroke-width="0.25" stroke-linecap="butt" stroke-linejoin="miter" stroke-miterlimit="10" stroke-dashoffset="0"/><path d="M236.12134,172.21591l23.21387,-1.32651l-1.93451,14.3704l-21.27947,2.43191z" fill="#4f8979" fill-rule="nonzero" stroke="none" stroke-width="0.25" stroke-linecap="butt" stroke-linejoin="miter" stroke-miterlimit="10" stroke-dashoffset="0"/><path d="M236.12134,156.73858h23.21387l-1.93451,14.26l-21.27947,1.21597z" fill="#4f8979" fill-rule="nonzero" stroke="none" stroke-width="0.25" stroke-linecap="butt" stroke-linejoin="miter" stroke-miterlimit="10" stroke-dashoffset="0"/><path d="M236.12134,102.57325l13.54133,2.70827l3.86907,8.0144l-17.4104,-2.98453z" fill="#4e917e" fill-rule="nonzero" stroke="none" stroke-width="0.25" stroke-linecap="butt" stroke-linejoin="miter" stroke-miterlimit="10" stroke-dashoffset="0"/><path d="M236.00561,84.83191l10.9136,2.8264l-3.05973,16.46373l-7.73787,-1.54757z" fill="#58a58f" fill-rule="nonzero" stroke="none" stroke-width="0.25" stroke-linecap="butt" stroke-linejoin="miter" stroke-miterlimit="10" stroke-dashoffset="0"/><path d="M236.12134,141.26391l23.21387,1.32651l-1.93451,14.14933h-21.27947z" fill="#4f8979" fill-rule="nonzero" stroke="none" stroke-width="0.25" stroke-linecap="butt" stroke-linejoin="miter" stroke-miterlimit="10" stroke-dashoffset="0"/><path d="M236.12134,125.78658l23.21387,2.65301l-1.93451,14.03893l-21.27947,-1.21598z" fill="#4f8979" fill-rule="nonzero" stroke="none" stroke-width="0.25" stroke-linecap="butt" stroke-linejoin="miter" stroke-miterlimit="10" stroke-dashoffset="0"/><path d="M236.12134,110.31191l23.21387,3.97947l-1.93451,13.92827l-21.27947,-2.43193z" fill="#4f8979" fill-rule="nonzero" stroke="none" stroke-width="0.25" stroke-linecap="butt" stroke-linejoin="miter" stroke-miterlimit="10" stroke-dashoffset="0"/><path d="M235.89894,280.65592l-25.24427,-16.02667l8.45013,-37.144l16.96907,6.63467z" fill="#386156" fill-rule="nonzero" stroke="none" stroke-width="0.25" stroke-linecap="butt" stroke-linejoin="miter" stroke-miterlimit="10" stroke-dashoffset="0"/><path d="M236.00548,234.11832l-15.49227,-6.07973l-1.4084,-14.70213l16.9008,5.30613z" fill="#386156" fill-rule="nonzero" stroke="none" stroke-width="0.25" stroke-linecap="butt" stroke-linejoin="miter" stroke-miterlimit="10" stroke-dashoffset="0"/><path d="M236.00548,218.64365l-15.49227,-4.86373l-1.4084,-14.59147l16.9008,3.97947z" fill="#386156" fill-rule="nonzero" stroke="none" stroke-width="0.25" stroke-linecap="butt" stroke-linejoin="miter" stroke-miterlimit="10" stroke-dashoffset="0"/><path d="M236.00548,203.16664l-15.49227,-3.648l-1.4084,-14.48107l16.9008,2.65301z" fill="#386156" fill-rule="nonzero" stroke="none" stroke-width="0.25" stroke-linecap="butt" stroke-linejoin="miter" stroke-miterlimit="10" stroke-dashoffset="0"/><path d="M236.00548,187.69172l-15.49227,-2.43191l-1.4084,-14.3704l16.9008,1.32651z" fill="#386156" fill-rule="nonzero" stroke="none" stroke-width="0.25" stroke-linecap="butt" stroke-linejoin="miter" stroke-miterlimit="10" stroke-dashoffset="0"/><path d="M236.00548,172.21455l-15.49227,-1.21597l-1.4084,-14.26h16.9008z" fill="#386156" fill-rule="nonzero" stroke="none" stroke-width="0.25" stroke-linecap="butt" stroke-linejoin="miter" stroke-miterlimit="10" stroke-dashoffset="0"/><path d="M236.00561,110.31138l-12.67547,2.98453l2.8168,-8.0144l9.85867,-2.70827z" fill="#386156" fill-rule="nonzero" stroke="none" stroke-width="0.25" stroke-linecap="butt" stroke-linejoin="miter" stroke-miterlimit="10" stroke-dashoffset="0"/><path d="M236.0553,102.56055l-5.6832,1.56123l-2.11955,-16.46293l8,-2.83493z" fill="#2d574b" fill-rule="nonzero" stroke="none" stroke-width="0.25" stroke-linecap="butt" stroke-linejoin="miter" stroke-miterlimit="10" stroke-dashoffset="0"/><path d="M236.00548,156.73975h-15.49227l-1.4084,-14.14933l16.9008,-1.32651z" fill="#386156" fill-rule="nonzero" stroke="none" stroke-width="0.25" stroke-linecap="butt" stroke-linejoin="miter" stroke-miterlimit="10" stroke-dashoffset="0"/><path d="M236.00548,141.26255l-15.49227,1.21598l-1.4084,-14.03893l16.9008,-2.65301z" fill="#386156" fill-rule="nonzero" stroke="none" stroke-width="0.25" stroke-linecap="butt" stroke-linejoin="miter" stroke-miterlimit="10" stroke-dashoffset="0"/><path d="M236.00548,125.78772l-15.49227,2.43193l-1.4084,-13.92827l16.9008,-3.97947z" fill="#386156" fill-rule="nonzero" stroke="none" stroke-width="0.25" stroke-linecap="butt" stroke-linejoin="miter" stroke-miterlimit="10" stroke-dashoffset="0"/><path d="M237.37734,219.45058c0,0 2.40643,-2.59888 8.68853,-2.45392" fill="none" fill-rule="nonzero" stroke="#474d44" stroke-width="0.69688" stroke-linecap="round" stroke-linejoin="round" stroke-miterlimit="10" stroke-dashoffset="0"/><path d="M249.93201,216.55192c0,0 2.40643,-2.59888 8.68853,-2.45392" fill="none" fill-rule="nonzero" stroke="#474d44" stroke-width="0.69688" stroke-linecap="round" stroke-linejoin="round" stroke-miterlimit="10" stroke-dashoffset="0"/><path d="M250.17468,201.12792c0,0 2.7072,-2.21721 8.9128,-1.14019" fill="none" fill-rule="nonzero" stroke="#474d44" stroke-width="0.69688" stroke-linecap="round" stroke-linejoin="round" stroke-miterlimit="10" stroke-dashoffset="0"/><path d="M237.04934,203.67458c0,0 2.61499,-2.34581 8.85813,-1.56969" fill="none" fill-rule="nonzero" stroke="#474d44" stroke-width="0.69688" stroke-linecap="round" stroke-linejoin="round" stroke-miterlimit="10" stroke-dashoffset="0"/><path d="M237.36401,188.16792c0,0 2.764,-2.13193 8.93893,-0.86195" fill="none" fill-rule="nonzero" stroke="#474d44" stroke-width="0.69688" stroke-linecap="round" stroke-linejoin="round" stroke-miterlimit="10" stroke-dashoffset="0"/><path d="M249.10534,186.72792c0,0 2.71733,-2.2024 8.91813,-1.09155" fill="none" fill-rule="nonzero" stroke="#474d44" stroke-width="0.69688" stroke-linecap="round" stroke-linejoin="round" stroke-miterlimit="10" stroke-dashoffset="0"/><path d="M249.09734,172.25591c0,0 2.7552,-2.14563 8.93547,-0.90633" fill="none" fill-rule="nonzero" stroke="#474d44" stroke-width="0.69688" stroke-linecap="round" stroke-linejoin="round" stroke-miterlimit="10" stroke-dashoffset="0"/><path d="M236.99068,172.66658c0,0 2.89493,-1.91307 8.97253,-0.16924" fill="none" fill-rule="nonzero" stroke="#474d44" stroke-width="0.69688" stroke-linecap="round" stroke-linejoin="round" stroke-miterlimit="10" stroke-dashoffset="0"/><path d="M236.99334,157.19991c0,0 2.86693,-1.96265 8.9688,-0.32357" fill="none" fill-rule="nonzero" stroke="#474d44" stroke-width="0.69688" stroke-linecap="round" stroke-linejoin="round" stroke-miterlimit="10" stroke-dashoffset="0"/><path d="M249.79334,157.27191c0,0 2.84027,-2.0088 8.96347,-0.46859" fill="none" fill-rule="nonzero" stroke="#474d44" stroke-width="0.69688" stroke-linecap="round" stroke-linejoin="round" stroke-miterlimit="10" stroke-dashoffset="0"/><path d="M249.63068,142.75991c0,0 2.94,-1.82891 8.97333,0.0896" fill="none" fill-rule="nonzero" stroke="#474d44" stroke-width="0.69688" stroke-linecap="round" stroke-linejoin="round" stroke-miterlimit="10" stroke-dashoffset="0"/><path d="M237.20934,142.30391c0,0 2.89787,-1.90789 8.9728,-0.15325" fill="none" fill-rule="nonzero" stroke="#474d44" stroke-width="0.69688" stroke-linecap="round" stroke-linejoin="round" stroke-miterlimit="10" stroke-dashoffset="0"/><path d="M236.90001,127.18125c0,0 2.86107,-1.93056 8.97307,-0.22653" fill="none" fill-rule="nonzero" stroke="#474d44" stroke-width="0.69688" stroke-linecap="round" stroke-linejoin="round" stroke-miterlimit="10" stroke-dashoffset="0"/><path d="M249.66534,127.69058c0,0 3.0552,-1.58787 8.9432,0.80997" fill="none" fill-rule="nonzero" stroke="#474d44" stroke-width="0.69688" stroke-linecap="round" stroke-linejoin="round" stroke-miterlimit="10" stroke-dashoffset="0"/><path d="M228.64428,216.54482c4.64688,-0.14331 6.42693,2.42576 6.42693,2.42576" fill="none" fill-rule="nonzero" stroke="#2b3129" stroke-width="0.59593" stroke-linecap="round" stroke-linejoin="round" stroke-miterlimit="10" stroke-dashoffset="0"/><path d="M219.35761,213.68082c4.64688,-0.14331 6.42693,2.42576 6.42693,2.42576" fill="none" fill-rule="nonzero" stroke="#2b3129" stroke-width="0.59593" stroke-linecap="round" stroke-linejoin="round" stroke-miterlimit="10" stroke-dashoffset="0"/><path d="M219.01201,199.73146c4.59045,-1.06466 6.59307,1.12713 6.59307,1.12713" fill="none" fill-rule="nonzero" stroke="#2b3129" stroke-width="0.59593" stroke-linecap="round" stroke-linejoin="round" stroke-miterlimit="10" stroke-dashoffset="0"/><path d="M228.76188,201.82424c4.61819,-0.76725 6.55253,1.55168 6.55253,1.55168" fill="none" fill-rule="nonzero" stroke="#2b3129" stroke-width="0.59593" stroke-linecap="round" stroke-linejoin="round" stroke-miterlimit="10" stroke-dashoffset="0"/><path d="M228.46934,187.19316c4.56771,-1.25538 6.61227,0.85209 6.61227,0.85209" fill="none" fill-rule="nonzero" stroke="#2b3129" stroke-width="0.59593" stroke-linecap="round" stroke-linejoin="round" stroke-miterlimit="10" stroke-dashoffset="0"/><path d="M219.79921,185.54488c4.58675,-1.09811 6.5968,1.07904 6.5968,1.07904" fill="none" fill-rule="nonzero" stroke="#2b3129" stroke-width="0.59593" stroke-linecap="round" stroke-linejoin="round" stroke-miterlimit="10" stroke-dashoffset="0"/><path d="M219.79281,171.42399c4.5716,-1.22509 6.6096,0.89593 6.6096,0.89593" fill="none" fill-rule="nonzero" stroke="#2b3129" stroke-width="0.59593" stroke-linecap="round" stroke-linejoin="round" stroke-miterlimit="10" stroke-dashoffset="0"/><path d="M228.71974,172.55529c4.49563,-1.72385 6.63707,0.1673 6.63707,0.1673" fill="none" fill-rule="nonzero" stroke="#2b3129" stroke-width="0.59593" stroke-linecap="round" stroke-linejoin="round" stroke-miterlimit="10" stroke-dashoffset="0"/><path d="M228.72108,157.11471c4.5136,-1.62027 6.6344,0.31987 6.6344,0.31987" fill="none" fill-rule="nonzero" stroke="#2b3129" stroke-width="0.59593" stroke-linecap="round" stroke-linejoin="round" stroke-miterlimit="10" stroke-dashoffset="0"/><path d="M219.25654,157.04335c4.52949,-1.52253 6.6304,0.46323 6.6304,0.46323" fill="none" fill-rule="nonzero" stroke="#2b3129" stroke-width="0.59593" stroke-linecap="round" stroke-linejoin="round" stroke-miterlimit="10" stroke-dashoffset="0"/><path d="M219.36961,143.24845c4.46304,-1.89648 6.63787,-0.08853 6.63787,-0.08853" fill="none" fill-rule="nonzero" stroke="#2b3129" stroke-width="0.59593" stroke-linecap="round" stroke-linejoin="round" stroke-miterlimit="10" stroke-dashoffset="0"/><path d="M228.55868,142.55775c4.49379,-1.73453 6.63733,0.1515 6.63733,0.1515" fill="none" fill-rule="nonzero" stroke="#2b3129" stroke-width="0.59593" stroke-linecap="round" stroke-linejoin="round" stroke-miterlimit="10" stroke-dashoffset="0"/><path d="M228.78588,127.53599c4.52112,-1.6845 6.6376,0.22393 6.6376,0.22393" fill="none" fill-rule="nonzero" stroke="#2b3129" stroke-width="0.59593" stroke-linecap="round" stroke-linejoin="round" stroke-miterlimit="10" stroke-dashoffset="0"/><path d="M219.36614,129.06461c4.35557,-2.37035 6.61547,-0.80069 6.61547,-0.80069" fill="none" fill-rule="nonzero" stroke="#2b3129" stroke-width="0.59593" stroke-linecap="round" stroke-linejoin="round" stroke-miterlimit="10" stroke-dashoffset="0"/><path d="M219.51494,114.34228c4.7376,-2.05863 6.27253,-1.1957 6.27253,-1.1957" fill="none" fill-rule="nonzero" stroke="#2b3129" stroke-width="0.59593" stroke-linecap="round" stroke-linejoin="round" stroke-miterlimit="10" stroke-dashoffset="0"/><path d="M228.81761,112.71636c4.33113,-2.12557 6.92533,-1.17778 6.92533,-1.17778" fill="none" fill-rule="nonzero" stroke="#2b3129" stroke-width="0.59593" stroke-linecap="round" stroke-linejoin="round" stroke-miterlimit="10" stroke-dashoffset="0"/><path d="M249.66534,113.79058c0,0 3.0552,-1.58787 8.9432,0.80997" fill="none" fill-rule="nonzero" stroke="#474d44" stroke-width="0.69688" stroke-linecap="round" stroke-linejoin="round" stroke-miterlimit="10" stroke-dashoffset="0"/><path d="M237.39868,111.69058c0,0 3.0552,-1.58787 8.9432,0.80997" fill="none" fill-rule="nonzero" stroke="#474d44" stroke-width="0.69688" stroke-linecap="round" stroke-linejoin="round" stroke-miterlimit="10" stroke-dashoffset="0"/><path d="M243.85681,276.69992l-2.54048,-44.25867l-0.64173,-105.36l-0.14259,-23.40933M251.44844,273.43858l-5.42613,-42.56533l-0.86248,-126.456M258.41305,270.30525l-8.07707,-40.61067l-1.04053,-124.45334M265.02628,267.42258l-10.64933,-38.95733l-0.88683,-115.176M216.47052,268.08925l7.588,-38.78667l-0.94157,-115.45334M222.26172,271.85725l5.40453,-41.144l-1.01973,-125.616M228.58828,275.43325l2.8432,-42.91467l-0.31403,-128.728" fill="none" fill-rule="nonzero" stroke="#e5ffd5" stroke-width="0.3" stroke-linecap="butt" stroke-linejoin="miter" stroke-miterlimit="10" stroke-dashoffset="0"/><path d="M258.78295,120.89501l-22.73867,-2.55563l-16.39707,2.70053M258.78375,136.08674l-22.73867,-2.21843l-16.08347,2.21843M258.78295,149.80679l-22.97973,-0.48213l-16.08347,0.79568M258.46908,163.88933l-22.57013,0.26473l-16.252,0.07247M258.29948,178.16421l-21.9432,2.38701l-16.7832,-2.21843M258.15388,193.21088l-22.25653,2.9416l-16.1072,-4.36427M258.46668,206.69008l-22.57013,4.99147l-16.252,-4.99147M258.78001,221.49568l-22.73867,4.77413l-16.71067,-4.91893M261.79148,235.10368l-25.72773,9.096l-18.5104,-8.93867M264.37735,243.73035l-28.46933,11.528l-20.4712,-12.704M267.20348,250.47435l-31.37333,13.648l-21.96213,-13.33333M268.37895,257.92501l-32.392,14.66933l-23.7648,-14.744" fill="none" fill-rule="nonzero" stroke="#ffffff" stroke-width="0.3" stroke-linecap="butt" stroke-linejoin="miter" stroke-miterlimit="10" stroke-dashoffset="0"/><path d="M225.88668,229.90925l-1.4109,-0.55171l-0.08977,-3.21173c-0.08316,-2.97493 -0.04846,-3.19573 0.47029,-2.99493c0.30805,0.11916 0.96021,0.29737 1.44925,0.39603c0.48905,0.09867 0.95301,0.34573 1.03102,0.54903c0.07797,0.20332 0.10112,1.71861 0.05141,3.36747l-0.09045,2.9976l-1.41091,-0.5517z" fill="#ffff00" fill-rule="nonzero" stroke="#e3f4d7" stroke-width="0.29395" stroke-linecap="round" stroke-linejoin="round" stroke-miterlimit="10" stroke-dashoffset="15" opacity="0.75"/><path d="M233.17628,225.29592l-1.64608,-0.48517v-3.59947v-3.59947l0.86224,0.20555c0.47424,0.11305 1.26693,0.49765 1.76158,0.85467c0.73365,0.52951 0.94939,0.57013 1.17095,0.22036c0.16219,-0.25601 0.27355,1.05552 0.27643,3.2552c0.00533,4.1072 0.15767,3.9096 -2.42512,3.14827z" fill="#ffff00" fill-rule="nonzero" stroke="#e3f4d7" stroke-width="0.29395" stroke-linecap="round" stroke-linejoin="round" stroke-miterlimit="10" stroke-dashoffset="15" opacity="0.75"/><path d="M246.26534,227.59458v-3.25493l1.39299,-0.35075c2.40165,-0.60475 2.31664,-0.70162 2.42701,2.76613l0.0992,3.1168l-1.74501,0.48889c-0.95977,0.26887 -1.8416,0.48887 -1.95961,0.48887c-0.11802,0 -0.21458,-1.46471 -0.21458,-3.25493z" fill="#ffff00" fill-rule="nonzero" stroke="#e3f4d7" stroke-width="0.29395" stroke-linecap="round" stroke-linejoin="round" stroke-miterlimit="10" stroke-dashoffset="15" opacity="0.75"/><path d="M241.24934,206.42925v-3.72747l1.09739,-0.20587c0.60357,-0.11324 1.5912,-0.11324 2.19477,0l1.09739,0.20587v3.3512v3.3512l-1.82171,0.37627c-1.00194,0.20694 -1.98957,0.37627 -2.19474,0.37627c-0.26747,0 -0.37305,-1.05513 -0.37305,-3.72747z" fill="#ffff00" fill-rule="nonzero" stroke="#e3f4d7" stroke-width="0.29395" stroke-linecap="round" stroke-linejoin="round" stroke-miterlimit="10" stroke-dashoffset="15" opacity="0.75"/><path d="M228.15974,201.15458c-0.68027,-0.13103 -0.70546,-0.25823 -0.70546,-3.56293c0,-1.88491 0.10581,-3.42427 0.23515,-3.42107c0.12933,0.0032 0.94062,0.18863 1.80283,0.41179l1.56768,0.40573l0.08939,3.19387l0.08939,3.19387l-1.18672,-0.04277c-0.65269,-0.02347 -1.50419,-0.10389 -1.89219,-0.17857z" fill="#ffff00" fill-rule="nonzero" stroke="#e3f4d7" stroke-width="0.29395" stroke-linecap="round" stroke-linejoin="round" stroke-miterlimit="10" stroke-dashoffset="15" opacity="0.75"/><path d="M250.34268,197.46658c0,-3.31707 -0.20558,-3.04533 2.58667,-3.41893l1.17577,-0.15737v2.80213c0,2.7416 -0.01611,2.80213 -0.74555,2.80213c-0.41006,0 -1.25662,0.21353 -1.88123,0.47451l-1.13568,0.47451v-2.9768z" fill="#ffff00" fill-rule="nonzero" stroke="#e3f4d7" stroke-width="0.29395" stroke-linecap="round" stroke-linejoin="round" stroke-miterlimit="10" stroke-dashoffset="15" opacity="0.75"/><path d="M241.24934,191.47192c0,-4.3824 -0.03776,-4.32613 2.69013,-4.0056l1.69936,0.19972v3.5184v3.5184l-2.19474,0.2971l-2.19477,0.29709v-3.82507z" fill="#ffff00" fill-rule="nonzero" stroke="#e3f4d7" stroke-width="0.29395" stroke-linecap="round" stroke-linejoin="round" stroke-miterlimit="10" stroke-dashoffset="15" opacity="0.75"/><path d="M229.02214,179.46125l-1.4109,-0.18806l-0.08832,-3.684l-0.08832,-3.684l0.87218,0.02475c0.47971,0.01355 0.69582,0.09589 0.48027,0.1829c-0.21555,0.08693 -0.39191,0.29613 -0.39191,0.46477c0,0.18573 0.55632,0.2232 1.4109,0.09504l1.41091,-0.21157v3.64133c0,2.72907 -0.09813,3.6296 -0.39193,3.59413c-0.21555,-0.02592 -1.02683,-0.13172 -1.80283,-0.23516z" fill="#ffff00" fill-rule="nonzero" stroke="#e3f4d7" stroke-width="0.29395" stroke-linecap="round" stroke-linejoin="round" stroke-miterlimit="10" stroke-dashoffset="15" opacity="0.75"/><path d="M245.63868,160.49591c0,-3.63867 -0.00747,-3.62827 2.55011,-3.63787c1.3968,-0.00533 1.51559,0.31883 1.5216,4.15013l0.00427,2.74347h-2.03801h-2.03799v-3.25547z" fill="#ffff00" fill-rule="nonzero" stroke="#e3f4d7" stroke-width="0.29395" stroke-linecap="round" stroke-linejoin="round" stroke-miterlimit="10" stroke-dashoffset="15" opacity="0.75"/><path d="M231.53041,160.42391v-3.64053l1.17577,0.20439c0.64667,0.11243 1.56375,0.35689 2.03799,0.54325c0.85955,0.33779 0.86224,0.34843 0.86224,3.43627v3.09733h-2.03799h-2.03801v-3.64053z" fill="#ffff00" fill-rule="nonzero" stroke="#e3f4d7" stroke-width="0.29395" stroke-linecap="round" stroke-linejoin="round" stroke-miterlimit="10" stroke-dashoffset="15" opacity="0.75"/><path d="M240.93734,145.53858v-3.792l1.64608,0.20886c2.9352,0.37246 2.74347,0.09643 2.74347,3.9472v3.42773h-2.19477h-2.19474v-3.79173z" fill="#ffff00" fill-rule="nonzero" stroke="#e3f4d7" stroke-width="0.29395" stroke-linecap="round" stroke-linejoin="round" stroke-miterlimit="10" stroke-dashoffset="15" opacity="0.75"/><path d="M223.58268,146.29858c-0.11254,-1.83931 -0.1355,-3.41333 -0.05102,-3.49787c0.08448,-0.08448 0.71075,0.06528 1.39171,0.33275c1.29394,0.50827 1.80859,0.4088 1.26621,-0.24473c-0.22506,-0.27118 -0.17815,-0.43813 0.15949,-0.56771c0.4123,-0.15821 0.47833,0.33433 0.47833,3.56907v3.75253h-1.52003h-1.52003l-0.20462,-3.34427z" fill="#ffff00" fill-rule="nonzero" stroke="#e3f4d7" stroke-width="0.29395" stroke-linecap="round" stroke-linejoin="round" stroke-miterlimit="10" stroke-dashoffset="15" opacity="0.75"/><path d="M231.21681,138.11991v-3.4384l2.19477,-0.2971l2.19475,-0.29709v3.54507v3.54507h-1.69881c-0.93435,0 -1.92197,0.08565 -2.19474,0.19031c-0.43365,0.16641 -0.49595,-0.24153 -0.49595,-3.248z" fill="#ffff00" fill-rule="nonzero" stroke="#e3f4d7" stroke-width="0.29395" stroke-linecap="round" stroke-linejoin="round" stroke-miterlimit="10" stroke-dashoffset="15" opacity="0.75"/><path d="M251.59601,135.24791l-1.72445,-0.18404l-0.08832,-3.4888l-0.08832,-3.4888l0.86098,-0.1646c0.47355,-0.09056 1.32457,-0.08939 1.89113,0.00213l1.03013,0.16717v3.72133c0,2.04677 -0.03531,3.6984 -0.0784,3.6704c-0.04309,-0.02816 -0.8544,-0.13392 -1.80283,-0.23515z" fill="#ffff00" fill-rule="nonzero" stroke="#e3f4d7" stroke-width="0.29395" stroke-linecap="round" stroke-linejoin="round" stroke-miterlimit="10" stroke-dashoffset="15" opacity="0.75"/><path d="M242.26801,125.89858l-1.33253,-0.12002v-3.37653v-3.37653l1.01899,0.11614c0.56046,0.06389 1.47755,0.18693 2.03801,0.27344l1.01899,0.1573v3.27787c0,3.69147 0.3296,3.32507 -2.74347,3.04827z" fill="#ffff00" fill-rule="nonzero" stroke="#e3f4d7" stroke-width="0.29395" stroke-linecap="round" stroke-linejoin="round" stroke-miterlimit="10" stroke-dashoffset="15" opacity="0.75"/><path d="M226.82721,116.15191v-3.46347l1.95961,-0.43582l1.95959,-0.43581l0.08917,3.4448c0.04907,1.89458 -0.02155,3.5504 -0.15677,3.67947c-0.13525,0.12916 -1.05717,0.33367 -2.04875,0.45447l-1.80283,0.21964v-3.46347z" fill="#ffff00" fill-rule="nonzero" stroke="#e3f4d7" stroke-width="0.29395" stroke-linecap="round" stroke-linejoin="round" stroke-miterlimit="10" stroke-dashoffset="15" opacity="0.75"/><path d="M250.02801,175.54125v-3.26133l0.98741,-0.34421c0.54307,-0.18931 1.38963,-0.34421 1.88123,-0.34421h0.89381v3.4096v3.4096l-0.97981,0.19596c-0.53888,0.10778 -1.38544,0.19596 -1.88123,0.19596h-0.90142v-3.26133z" fill="#ffff00" fill-rule="nonzero" stroke="#e3f4d7" stroke-width="0.29395" stroke-linecap="round" stroke-linejoin="round" stroke-miterlimit="10" stroke-dashoffset="15" opacity="0.75"/><path d="M228.95254,90.66658l6.97973,-2.29669" fill="none" fill-rule="nonzero" stroke="#2b3129" stroke-width="0.75" stroke-linecap="round" stroke-linejoin="round" stroke-miterlimit="10" stroke-dashoffset="0"/><path d="M228.95254,90.66658l6.97973,-2.29669" fill="none" fill-rule="nonzero" stroke="#2b3129" stroke-width="0.75" stroke-linecap="round" stroke-linejoin="round" stroke-miterlimit="10" stroke-dashoffset="0"/><path d="M229.99174,97.99191l6.33013,-1.90693" fill="none" fill-rule="nonzero" stroke="#2b3129" stroke-width="0.75" stroke-linecap="round" stroke-linejoin="round" stroke-miterlimit="10" stroke-dashoffset="0"/><path d="M235.80241,92.55581l-6.33013,2.16677" fill="none" fill-rule="nonzero" stroke="#2b3129" stroke-width="0.75" stroke-linecap="round" stroke-linejoin="round" stroke-miterlimit="10" stroke-dashoffset="0"/><path d="M230.38161,101.50658l5.55067,-1.64709" fill="none" fill-rule="nonzero" stroke="#2b3129" stroke-width="0.75" stroke-linecap="round" stroke-linejoin="round" stroke-miterlimit="10" stroke-dashoffset="0"/><path d="M245.99601,91.18658l-9.44693,-2.816" fill="none" fill-rule="nonzero" stroke="#474d44" stroke-width="0.75" stroke-linecap="round" stroke-linejoin="round" stroke-miterlimit="10" stroke-dashoffset="0"/><path d="M236.86188,95.96189l8.4088,2.29669" fill="none" fill-rule="nonzero" stroke="#474d44" stroke-width="0.75" stroke-linecap="round" stroke-linejoin="round" stroke-miterlimit="10" stroke-dashoffset="0"/><path d="M236.67868,92.55535l8.53867,2.55657" fill="none" fill-rule="nonzero" stroke="#474d44" stroke-width="0.75" stroke-linecap="round" stroke-linejoin="round" stroke-miterlimit="10" stroke-dashoffset="0"/><path d="M244.23868,101.54391l-7.7592,-1.77867" fill="none" fill-rule="nonzero" stroke="#474d44" stroke-width="0.75" stroke-linecap="round" stroke-linejoin="round" stroke-miterlimit="10" stroke-dashoffset="0"/><path d="M237.61831,78.81667c0.58672,0 1.06236,0.47563 1.06236,1.06236c0,0.58672 -0.47563,1.06236 -1.06236,1.06236c-0.58672,0 -1.06236,-0.47563 -1.06236,-1.06236c0,-0.58672 0.47563,-1.06236 1.06236,-1.06236z" fill="url(#color-3)" fill-rule="evenodd" stroke="none" stroke-width="0.14709" stroke-linecap="butt" stroke-linejoin="miter" stroke-miterlimit="10" stroke-dashoffset="0" opacity="0.75"/><path d="M237.61831,80.94202c0.58672,0 1.06236,0.47563 1.06236,1.06236c0,0.58672 -0.47563,1.06236 -1.06236,1.06236c-0.58672,0 -1.06236,-0.47563 -1.06236,-1.06236c0,-0.58672 0.47563,-1.06236 1.06236,-1.06236z" fill="url(#color-4)" fill-rule="evenodd" stroke="none" stroke-width="0.14709" stroke-linecap="butt" stroke-linejoin="miter" stroke-miterlimit="10" stroke-dashoffset="0" opacity="0.75"/><path d="M237.61831,83.06735c0.58672,0 1.06236,0.47563 1.06236,1.06236c0,0.58672 -0.47563,1.06236 -1.06236,1.06236c-0.58672,0 -1.06236,-0.47563 -1.06236,-1.06236c0,-0.58672 0.47563,-1.06236 1.06236,-1.06236z" fill="url(#color-5)" fill-rule="evenodd" stroke="none" stroke-width="0.14709" stroke-linecap="butt" stroke-linejoin="miter" stroke-miterlimit="10" stroke-dashoffset="0" opacity="0.75"/><path d="M239.74365,79.43802c0.58672,0 1.06236,0.47563 1.06236,1.06236c0,0.58672 -0.47563,1.06236 -1.06236,1.06236c-0.58672,0 -1.06236,-0.47563 -1.06236,-1.06236c0,-0.58672 0.47563,-1.06236 1.06236,-1.06236z" fill="url(#color-6)" fill-rule="evenodd" stroke="none" stroke-width="0.14709" stroke-linecap="butt" stroke-linejoin="miter" stroke-miterlimit="10" stroke-dashoffset="0" opacity="0.75"/><path d="M239.74365,81.56335c0.58672,0 1.06236,0.47563 1.06236,1.06236c0,0.58672 -0.47563,1.06236 -1.06236,1.06236c-0.58672,0 -1.06236,-0.47563 -1.06236,-1.06236c0,-0.58672 0.47563,-1.06236 1.06236,-1.06236z" fill="url(#color-7)" fill-rule="evenodd" stroke="none" stroke-width="0.14709" stroke-linecap="butt" stroke-linejoin="miter" stroke-miterlimit="10" stroke-dashoffset="0" opacity="0.75"/><path d="M239.74365,83.68867c0.58672,0 1.06236,0.47563 1.06236,1.06236c0,0.58672 -0.47563,1.06236 -1.06236,1.06236c-0.58672,0 -1.06236,-0.47563 -1.06236,-1.06236c0,-0.58672 0.47563,-1.06236 1.06236,-1.06236z" fill="url(#color-8)" fill-rule="evenodd" stroke="none" stroke-width="0.14709" stroke-linecap="butt" stroke-linejoin="miter" stroke-miterlimit="10" stroke-dashoffset="0" opacity="0.75"/><path d="M241.86899,79.90736c0.58672,0 1.06236,0.47563 1.06236,1.06236c0,0.58672 -0.47563,1.06236 -1.06236,1.06236c-0.58672,0 -1.06236,-0.47563 -1.06236,-1.06236c0,-0.58672 0.47563,-1.06236 1.06236,-1.06236z" fill="url(#color-9)" fill-rule="evenodd" stroke="none" stroke-width="0.14709" stroke-linecap="butt" stroke-linejoin="miter" stroke-miterlimit="10" stroke-dashoffset="0" opacity="0.75"/><path d="M241.86899,82.03268c0.58672,0 1.06236,0.47563 1.06236,1.06236c0,0.58672 -0.47563,1.06236 -1.06236,1.06236c-0.58672,0 -1.06236,-0.47563 -1.06236,-1.06236c0,-0.58672 0.47563,-1.06236 1.06236,-1.06236z" fill="url(#color-10)" fill-rule="evenodd" stroke="none" stroke-width="0.14709" stroke-linecap="butt" stroke-linejoin="miter" stroke-miterlimit="10" stroke-dashoffset="0" opacity="0.75"/><path d="M241.86899,84.15801c0.58672,0 1.06236,0.47563 1.06236,1.06236c0,0.58672 -0.47563,1.06236 -1.06236,1.06236c-0.58672,0 -1.06236,-0.47563 -1.06236,-1.06236c0,-0.58672 0.47563,-1.06236 1.06236,-1.06236z" fill="url(#color-11)" fill-rule="evenodd" stroke="none" stroke-width="0.14709" stroke-linecap="butt" stroke-linejoin="miter" stroke-miterlimit="10" stroke-dashoffset="0" opacity="0.75"/><path d="M243.99432,80.41667c0.58672,0 1.06236,0.47563 1.06236,1.06236c0,0.58672 -0.47563,1.06236 -1.06236,1.06236c-0.58672,0 -1.06236,-0.47563 -1.06236,-1.06236c0,-0.58672 0.47563,-1.06236 1.06236,-1.06236z" fill="url(#color-12)" fill-rule="evenodd" stroke="none" stroke-width="0.14709" stroke-linecap="butt" stroke-linejoin="miter" stroke-miterlimit="10" stroke-dashoffset="0" opacity="0.75"/><path d="M243.99432,82.54202c0.58672,0 1.06236,0.47563 1.06236,1.06236c0,0.58672 -0.47563,1.06236 -1.06236,1.06236c-0.58672,0 -1.06236,-0.47563 -1.06236,-1.06236c0,-0.58672 0.47563,-1.06236 1.06236,-1.06236z" fill="url(#color-13)" fill-rule="evenodd" stroke="none" stroke-width="0.14709" stroke-linecap="butt" stroke-linejoin="miter" stroke-miterlimit="10" stroke-dashoffset="0" opacity="0.75"/><path d="M243.99432,84.66735c0.58672,0 1.06236,0.47563 1.06236,1.06236c0,0.58672 -0.47563,1.06236 -1.06236,1.06236c-0.58672,0 -1.06236,-0.47563 -1.06236,-1.06236c0,-0.58672 0.47563,-1.06236 1.06236,-1.06236z" fill="url(#color-14)" fill-rule="evenodd" stroke="none" stroke-width="0.14709" stroke-linecap="butt" stroke-linejoin="miter" stroke-miterlimit="10" stroke-dashoffset="0" opacity="0.75"/><path d="M246.12766,80.95c0.58672,0 1.06236,0.47563 1.06236,1.06236c0,0.58672 -0.47563,1.06236 -1.06236,1.06236c-0.58672,0 -1.06236,-0.47563 -1.06236,-1.06236c0,-0.58672 0.47563,-1.06236 1.06236,-1.06236z" fill="url(#color-15)" fill-rule="evenodd" stroke="none" stroke-width="0.14709" stroke-linecap="butt" stroke-linejoin="miter" stroke-miterlimit="10" stroke-dashoffset="0" opacity="0.75"/><path d="M246.12766,83.07536c0.58672,0 1.06236,0.47563 1.06236,1.06236c0,0.58672 -0.47563,1.06236 -1.06236,1.06236c-0.58672,0 -1.06236,-0.47563 -1.06236,-1.06236c0,-0.58672 0.47563,-1.06236 1.06236,-1.06236z" fill="url(#color-16)" fill-rule="evenodd" stroke="none" stroke-width="0.14709" stroke-linecap="butt" stroke-linejoin="miter" stroke-miterlimit="10" stroke-dashoffset="0" opacity="0.75"/><path d="M246.12766,85.20068c0.58672,0 1.06236,0.47563 1.06236,1.06236c0,0.58672 -0.47563,1.06236 -1.06236,1.06236c-0.58672,0 -1.06236,-0.47563 -1.06236,-1.06236c0,-0.58672 0.47563,-1.06236 1.06236,-1.06236z" fill="url(#color-17)" fill-rule="evenodd" stroke="none" stroke-width="0.14709" stroke-linecap="butt" stroke-linejoin="miter" stroke-miterlimit="10" stroke-dashoffset="0" opacity="0.75"/><path d="M235.35431,78.64336c0.58672,0 1.06236,0.47563 1.06236,1.06236c0,0.58672 -0.47563,1.06236 -1.06236,1.06236c-0.58672,0 -1.06236,-0.47563 -1.06236,-1.06236c0,-0.58672 0.47563,-1.06236 1.06236,-1.06236z" fill="url(#color-18)" fill-rule="evenodd" stroke="none" stroke-width="0.14709" stroke-linecap="butt" stroke-linejoin="miter" stroke-miterlimit="10" stroke-dashoffset="0" opacity="0.75"/><path d="M235.35431,80.76869c0.58672,0 1.06236,0.47563 1.06236,1.06236c0,0.58672 -0.47563,1.06236 -1.06236,1.06236c-0.58672,0 -1.06236,-0.47563 -1.06236,-1.06236c0,-0.58672 0.47563,-1.06236 1.06236,-1.06236z" fill="url(#color-19)" fill-rule="evenodd" stroke="none" stroke-width="0.14709" stroke-linecap="butt" stroke-linejoin="miter" stroke-miterlimit="10" stroke-dashoffset="0" opacity="0.75"/><path d="M235.35431,82.89401c0.58672,0 1.06236,0.47563 1.06236,1.06236c0,0.58672 -0.47563,1.06236 -1.06236,1.06236c-0.58672,0 -1.06236,-0.47563 -1.06236,-1.06236c0,-0.58672 0.47563,-1.06236 1.06236,-1.06236z" fill="url(#color-20)" fill-rule="evenodd" stroke="none" stroke-width="0.14709" stroke-linecap="butt" stroke-linejoin="miter" stroke-miterlimit="10" stroke-dashoffset="0" opacity="0.75"/><path d="M233.26631,79.43802c0.58672,0 1.06236,0.47563 1.06236,1.06236c0,0.58672 -0.47563,1.06236 -1.06236,1.06236c-0.58672,0 -1.06236,-0.47563 -1.06236,-1.06236c0,-0.58672 0.47563,-1.06236 1.06236,-1.06236z" fill="url(#color-21)" fill-rule="evenodd" stroke="none" stroke-width="0.14709" stroke-linecap="butt" stroke-linejoin="miter" stroke-miterlimit="10" stroke-dashoffset="0" opacity="0.75"/><path d="M233.26631,81.56335c0.58672,0 1.06236,0.47563 1.06236,1.06236c0,0.58672 -0.47563,1.06236 -1.06236,1.06236c-0.58672,0 -1.06236,-0.47563 -1.06236,-1.06236c0,-0.58672 0.47563,-1.06236 1.06236,-1.06236z" fill="url(#color-22)" fill-rule="evenodd" stroke="none" stroke-width="0.14709" stroke-linecap="butt" stroke-linejoin="miter" stroke-miterlimit="10" stroke-dashoffset="0" opacity="0.75"/><path d="M233.26631,83.68867c0.58672,0 1.06236,0.47563 1.06236,1.06236c0,0.58672 -0.47563,1.06236 -1.06236,1.06236c-0.58672,0 -1.06236,-0.47563 -1.06236,-1.06236c0,-0.58672 0.47563,-1.06236 1.06236,-1.06236z" fill="url(#color-23)" fill-rule="evenodd" stroke="none" stroke-width="0.14709" stroke-linecap="butt" stroke-linejoin="miter" stroke-miterlimit="10" stroke-dashoffset="0" opacity="0.75"/><path d="M231.13298,80.20068c0.58672,0 1.06236,0.47563 1.06236,1.06236c0,0.58672 -0.47563,1.06236 -1.06236,1.06236c-0.58672,0 -1.06236,-0.47563 -1.06236,-1.06236c0,-0.58672 0.47563,-1.06236 1.06236,-1.06236z" fill="url(#color-24)" fill-rule="evenodd" stroke="none" stroke-width="0.14709" stroke-linecap="butt" stroke-linejoin="miter" stroke-miterlimit="10" stroke-dashoffset="0" opacity="0.75"/><path d="M231.13298,82.32601c0.58672,0 1.06236,0.47563 1.06236,1.06236c0,0.58672 -0.47563,1.06236 -1.06236,1.06236c-0.58672,0 -1.06236,-0.47563 -1.06236,-1.06236c0,-0.58672 0.47563,-1.06236 1.06236,-1.06236z" fill="url(#color-25)" fill-rule="evenodd" stroke="none" stroke-width="0.14709" stroke-linecap="butt" stroke-linejoin="miter" stroke-miterlimit="10" stroke-dashoffset="0" opacity="0.75"/><path d="M231.13298,84.4487c0.58672,0 1.06236,0.47563 1.06236,1.06236c0,0.58672 -0.47563,1.06236 -1.06236,1.06236c-0.58672,0 -1.06236,-0.47563 -1.06236,-1.06236c0,-0.58672 0.47563,-1.06236 1.06236,-1.06236z" fill="url(#color-26)" fill-rule="evenodd" stroke="none" stroke-width="0.14709" stroke-linecap="butt" stroke-linejoin="miter" stroke-miterlimit="10" stroke-dashoffset="0" opacity="0.75"/><path d="M228.99965,80.81934c0.58672,0 1.06236,0.47563 1.06236,1.06236c0,0.58672 -0.47563,1.06236 -1.06236,1.06236c-0.58672,0 -1.06236,-0.47563 -1.06236,-1.06236c0,-0.58672 0.47563,-1.06236 1.06236,-1.06236z" fill="url(#color-27)" fill-rule="evenodd" stroke="none" stroke-width="0.14709" stroke-linecap="butt" stroke-linejoin="miter" stroke-miterlimit="10" stroke-dashoffset="0" opacity="0.75"/><path d="M228.99965,82.94469c0.58672,0 1.06236,0.47563 1.06236,1.06236c0,0.58672 -0.47563,1.06236 -1.06236,1.06236c-0.58672,0 -1.06236,-0.47563 -1.06236,-1.06236c0,-0.58672 0.47563,-1.06236 1.06236,-1.06236z" fill="url(#color-28)" fill-rule="evenodd" stroke="none" stroke-width="0.14709" stroke-linecap="butt" stroke-linejoin="miter" stroke-miterlimit="10" stroke-dashoffset="0" opacity="0.75"/><path d="M228.99965,85.07002c0.58672,0 1.06236,0.47563 1.06236,1.06236c0,0.58672 -0.47563,1.06236 -1.06236,1.06236c-0.58672,0 -1.06236,-0.47563 -1.06236,-1.06236c0,-0.58672 0.47563,-1.06236 1.06236,-1.06236z" fill="url(#color-29)" fill-rule="evenodd" stroke="none" stroke-width="0.14709" stroke-linecap="butt" stroke-linejoin="miter" stroke-miterlimit="10" stroke-dashoffset="0" opacity="0.75"/><path d="M236.92934,67.52845v-11.24453" fill="url(#color-30)" fill-rule="nonzero" stroke="url(#color-31)" stroke-width="3.85" stroke-linecap="round" stroke-linejoin="round" stroke-miterlimit="10" stroke-dashoffset="0"/><path d="M244.64774,217.68167c0,-2.14057 1.69045,-3.87584 3.77573,-3.87584c2.08528,0 3.77573,1.73527 3.77573,3.87584c0,2.14057 -1.69045,3.87584 -3.77573,3.87584c-2.08528,0 -3.77573,-1.73527 -3.77573,-3.87584z" fill="#387967" fill-rule="nonzero" stroke="none" stroke-width="2.65747" stroke-linecap="round" stroke-linejoin="bevel" stroke-miterlimit="4" stroke-dashoffset="1.21209"/><path d="M246.42041,217.85895c0,-2.14057 1.69045,-3.87584 3.77573,-3.87584c2.08528,0 3.77573,1.73527 3.77573,3.87584c0,2.14057 -1.69045,3.87584 -3.77573,3.87584c-2.08528,0 -3.77573,-1.73527 -3.77573,-3.87584z" fill="#58a58f" fill-rule="nonzero" stroke="none" stroke-width="2.65747" stroke-linecap="round" stroke-linejoin="bevel" stroke-miterlimit="4" stroke-dashoffset="1.21209"/><path d="M229.35903,219.80862c-1.64919,0 -2.98611,-1.5025 -2.98611,-3.35593c0,-1.85343 1.33693,-3.35593 2.98611,-3.35593c1.64919,0 2.98611,1.5025 2.98611,3.35593c0,1.85343 -1.33693,3.35593 -2.98611,3.35593z" fill="#387967" fill-rule="nonzero" stroke="none" stroke-width="2.19911" stroke-linecap="round" stroke-linejoin="bevel" stroke-miterlimit="4" stroke-dashoffset="1.21209"/><path d="M227.95708,219.9621c-1.64919,0 -2.98611,-1.5025 -2.98611,-3.35593c0,-1.85343 1.33693,-3.35593 2.98611,-3.35593c1.64919,0 2.98611,1.5025 2.98611,3.35593c0,1.85343 -1.33693,3.35593 -2.98611,3.35593z" fill="#58a58f" fill-rule="nonzero" stroke="none" stroke-width="2.19911" stroke-linecap="round" stroke-linejoin="bevel" stroke-miterlimit="4" stroke-dashoffset="1.21209"/></g></g></svg>