<?xml version="1.0" encoding="UTF-8" standalone="no"?>
<!-- Created with Inkscape (http://www.inkscape.org/) -->

<svg
   version="1.1"
   id="svg491442"
   width="140"
   height="78.725533"
   viewBox="0 0 140 78.725533"
   sodipodi:docname="1673361750slices-of-sausage.svg"
   inkscape:version="1.2.2 (732a01da63, 2022-12-09)"
   xmlns:inkscape="http://www.inkscape.org/namespaces/inkscape"
   xmlns:sodipodi="http://sodipodi.sourceforge.net/DTD/sodipodi-0.dtd"
   xmlns="http://www.w3.org/2000/svg"
   xmlns:svg="http://www.w3.org/2000/svg">
  <defs
     id="defs491446">
    <clipPath
       clipPathUnits="userSpaceOnUse"
       id="clipPath491458">
      <path
         d="M 0,600 H 600 V 0 H 0 Z"
         id="path491456" />
    </clipPath>
  </defs>
  <sodipodi:namedview
     id="namedview491444"
     pagecolor="#ffffff"
     bordercolor="#000000"
     borderopacity="0.25"
     inkscape:showpageshadow="2"
     inkscape:pageopacity="0.0"
     inkscape:pagecheckerboard="0"
     inkscape:deskcolor="#d1d1d1"
     showgrid="false"
     inkscape:zoom="1.04625"
     inkscape:cx="301.07527"
     inkscape:cy="155.7945"
     inkscape:window-width="1920"
     inkscape:window-height="1017"
     inkscape:window-x="1912"
     inkscape:window-y="-8"
     inkscape:window-maximized="1"
     inkscape:current-layer="g491450">
    <inkscape:page
       x="0"
       y="0"
       id="page491448"
       width="140"
       height="78.725533" />
  </sodipodi:namedview>
  <g
     id="g491450"
     inkscape:groupmode="layer"
     inkscape:label="Page 1"
     transform="matrix(1.3333333,0,0,-1.3333333,-99.334931,554.05493)">
    <g
       id="g491452"
       transform="matrix(0.24153313,0,0,0.24153313,56.506692,315.17424)">
      <g
         id="g491454"
         clip-path="url(#clipPath491458)">
        <g
           id="g491460"
           transform="translate(223.957,183.7686)">
          <path
             d="M 0,0 C 47.195,0 85.688,19.963 85.688,44.438 85.688,68.913 47.195,88.876 0,88.876 -47.195,88.876 -85.688,68.913 -85.688,44.438 -85.688,19.963 -47.195,0 0,0"
             style="fill:#e8e8e7;fill-opacity:1;fill-rule:evenodd;stroke:none"
             id="path491462" />
        </g>
        <g
           id="g491464"
           transform="translate(368.9619,276.7852)">
          <path
             d="M 0,0 C 72,5.908 130.367,-1.519 130.367,-16.588 130.367,-31.657 72,-48.663 0,-54.571 c -71.999,-5.908 -130.366,1.518 -130.366,16.588 0,15.069 58.367,32.075 130.366,37.983"
             style="fill:#e8e8e7;fill-opacity:1;fill-rule:evenodd;stroke:none"
             id="path491466" />
        </g>
        <g
           id="g491468"
           transform="translate(492.3906,338.1543)">
          <path
             d="M 0,0 C 4.228,3.345 8.456,6.689 12.685,10.033 15.323,3.132 14.17,-2.102 10.916,-6.409 15.868,-10.928 18.164,-16.33 16.044,-23.206 10.695,-20.834 5.348,-18.461 0,-16.09 Z"
             style="fill:#e84e37;fill-opacity:1;fill-rule:evenodd;stroke:none"
             id="path491470" />
        </g>
        <g
           id="g491472"
           transform="translate(506.5332,340.8477)">
          <path
             d="m 0,0 c -0.034,-3.492 -1.238,-6.471 -3.227,-9.103 l -7.779,-1.502 z"
             style="fill:#d84023;fill-opacity:1;fill-rule:evenodd;stroke:none"
             id="path491474" />
        </g>
        <g
           id="g491476"
           transform="translate(492.3906,338.1543)">
          <path
             d="m 0,0 c 2.299,-5.363 2.651,-10.727 0,-16.09 l -24.576,-8.84 -7.425,29.35 z"
             style="fill:#b2b1b0;fill-opacity:1;fill-rule:evenodd;stroke:none"
             id="path491478" />
        </g>
        <g
           id="g491480"
           transform="translate(492.3906,338.1543)">
          <path
             d="m 0,0 c 1.521,-3.549 2.189,-7.098 1.7,-10.647 l -19.956,-4.249 -1.711,17.654 z"
             style="fill:#dbdbd9;fill-opacity:1;fill-rule:evenodd;stroke:none"
             id="path491482" />
        </g>
        <g
           id="g491484"
           transform="translate(269.793,415.541)">
          <path
             d="m 0,0 c 31.13,0 59.162,-11.862 78.786,-30.81 61.784,49.973 137.177,15.904 137.177,-65.444 0,-81.349 -75.393,-115.418 -137.177,-65.445 C 59.162,-180.646 31.13,-192.509 0,-192.509 Z"
             style="fill:#e84e37;fill-opacity:1;fill-rule:evenodd;stroke:none"
             id="path491486" />
        </g>
        <g
           id="g491488"
           transform="translate(263.4277,396.9443)">
          <path
             d="m 0,0 c 28.654,9.547 65.734,5.421 94.608,-21.508 48.702,51.534 121.355,14.575 121.355,-23.264 0,-37.84 -48.595,-55.185 -110.379,-31.94 C 85.96,-85.525 35.02,-93.788 0,-89.546 Z"
             style="fill:#f46849;fill-opacity:1;fill-rule:evenodd;stroke:none"
             id="path491490" />
        </g>
        <g
           id="g491492"
           transform="translate(279.6934,387.8174)">
          <path
             d="m 0,0 c 23.983,6.344 55.02,3.602 79.186,-14.292 40.763,34.244 101.574,9.685 101.574,-15.459 0,-25.144 -40.674,-36.67 -92.387,-21.224 C 71.948,-56.831 29.311,-62.321 0,-59.503 Z"
             style="fill:#f68460;fill-opacity:1;fill-rule:evenodd;stroke:none"
             id="path491494" />
        </g>
        <g
           id="g491496"
           transform="translate(348.5791,384.731)">
          <path
             d="m 0,0 c 2.129,1.722 4.275,3.334 6.433,4.858 3.839,-6.129 7.164,-12.283 9.972,-18.462 54.594,38.405 120.772,11.654 120.772,-51.84 0,-54.399 -64.581,-77.707 -118.778,-46.156 6.325,15.786 9.48,31.486 9.471,47.101 -0.008,15.285 -3.048,30.422 -9.11,45.414 54.121,31.239 118.417,7.919 118.417,-46.359 0,-63.619 -66.437,-90.353 -121.091,-51.619 -2.763,-6.192 -6.013,-12.398 -9.751,-18.617 -2.125,1.505 -4.238,3.096 -6.335,4.791 0.752,1.6 1.493,3.139 2.224,4.626 -11.955,-6.979 -26.04,-11.796 -41.342,-13.72 v 9.893 c 17.774,1.939 33.909,7.261 46.968,14.976 7.387,14.592 12.583,26.345 12.583,50.615 0,20.269 -5.405,36.069 -11.101,47.83 -13.312,8.198 -29.997,13.857 -48.45,15.871 V 9.094 C -23.453,7.124 -9.064,2.122 3.071,-5.126 1.956,-3.241 0.915,-1.533 0,0"
             style="fill:#9c2d1f;fill-opacity:1;fill-rule:evenodd;stroke:none"
             id="path491498" />
        </g>
        <g
           id="g491500"
           transform="translate(269.793,223.0322)">
          <path
             d="m 0,0 c 35.767,0 64.938,43.239 64.938,96.255 0,53.015 -29.171,96.254 -64.938,96.254 -35.766,0 -64.937,-43.239 -64.937,-96.254 C -64.937,43.239 -35.766,0 0,0"
             style="fill:#9c2d1f;fill-opacity:1;fill-rule:evenodd;stroke:none"
             id="path491502" />
        </g>
        <g
           id="g491504"
           transform="translate(267.3613,230.3594)">
          <path
             d="m 0,0 c 31.729,0 57.609,39.947 57.609,88.928 0,48.978 -25.88,88.927 -57.609,88.927 -31.73,0 -57.611,-39.949 -57.611,-88.927 C -57.611,39.947 -31.73,0 0,0"
             style="fill:#f4715a;fill-opacity:1;fill-rule:evenodd;stroke:none"
             id="path491506" />
        </g>
        <g
           id="g491508"
           transform="translate(354.9063,249.0566)">
          <path
             d="M 0,0 C -0.318,0.227 -0.638,0.454 -0.956,0.684 -0.638,0.454 -0.318,0.227 0,0 Z"
             style="fill:none;stroke:#79aa32;stroke-width:0.216;stroke-linecap:butt;stroke-linejoin:miter;stroke-miterlimit:22.926;stroke-dasharray:none;stroke-opacity:1"
             id="path491510" />
        </g>
        <g
           id="g491512"
           transform="translate(348.5791,253.8418)">
          <path
             d="m 0,0 c -19.624,-18.947 -47.656,-30.81 -78.786,-30.81 15.67,0 30.044,8.228 41.263,21.927 C -22.839,-6.83 -9.315,-2.109 2.224,4.626 1.493,3.139 0.752,1.601 0,0 M 136.873,56.81 C 131.909,-15.607 64.551,-45.994 6.335,-4.791 c 3.738,6.219 6.988,12.425 9.751,18.617 45.363,-32.149 98.84,-19.194 115.711,22.516 l 0.01,0.01 0.009,0.041 c 2.396,5.934 4.044,12.454 4.83,19.503 z"
             style="fill:#d84023;fill-opacity:1;fill-rule:evenodd;stroke:none"
             id="path491514" />
        </g>
        <g
           id="g491516"
           transform="translate(353.8838,388.7837)">
          <path
             d="M 0,0 C 0.373,0.27 0.748,0.537 1.122,0.801 0.747,0.537 0.373,0.27 0,0 Z"
             style="fill:none;stroke:#79aa32;stroke-width:0.216;stroke-linecap:butt;stroke-linejoin:miter;stroke-miterlimit:22.926;stroke-dasharray:none;stroke-opacity:1"
             id="path491518" />
        </g>
        <g
           id="g491520"
           transform="translate(351.2891,386.8584)">
          <path
             d="M 0,0 C 0.151,0.116 0.303,0.23 0.454,0.345 Z"
             style="fill:none;stroke:#79aa32;stroke-width:0.216;stroke-linecap:butt;stroke-linejoin:miter;stroke-miterlimit:22.926;stroke-dasharray:none;stroke-opacity:1"
             id="path491522" />
        </g>
        <g
           id="g491524"
           transform="translate(260.6416,402.7354)">
          <path
             d="m 0,0 c 22.898,0 39.391,-28.654 36.835,-64.001 -2.555,-35.346 -23.19,-64 -46.088,-64 -22.898,0 -39.391,28.654 -36.835,64 C -43.533,-28.654 -22.898,0 0,0"
             style="fill:#f78f7c;fill-opacity:1;fill-rule:evenodd;stroke:none"
             id="path491526" />
        </g>
        <g
           id="g491528"
           transform="translate(227.6694,331.3076)">
          <path
             d="m 0,0 c 1.856,0 3.36,-2.533 3.36,-5.657 0,-3.125 -1.504,-5.658 -3.36,-5.658 -1.855,0 -3.359,2.533 -3.359,5.658 C -3.359,-2.533 -1.855,0 0,0 m 12.907,22.276 c 2.93,0 5.305,-3.007 5.305,-6.717 0,-3.71 -2.375,-6.719 -5.305,-6.719 -2.93,0 -5.305,3.009 -5.305,6.719 0,3.71 2.375,6.717 5.305,6.717 m 8.84,37.483 c 1.953,0 3.536,-2.216 3.536,-4.95 0,-2.734 -1.583,-4.951 -3.536,-4.951 -1.953,0 -3.535,2.217 -3.535,4.951 0,2.734 1.582,4.95 3.535,4.95 m 12.552,-18.74 c 2.832,0 5.128,-3.879 5.128,-8.665 0,-4.784 -2.296,-8.663 -5.128,-8.663 -2.831,0 -5.127,3.879 -5.127,8.663 0,4.786 2.296,8.665 5.127,8.665 M 57.795,-2.993 c 3.186,0 5.77,-3.963 5.77,-8.854 0,-4.89 -2.584,-8.855 -5.77,-8.855 -3.187,0 -5.771,3.965 -5.771,8.855 0,4.891 2.584,8.854 5.771,8.854 M 25.637,-39.606 c 2.601,0 4.708,-3.405 4.708,-7.602 0,-4.199 -2.107,-7.603 -4.708,-7.603 -2.599,0 -4.707,3.404 -4.707,7.603 0,4.197 2.108,7.602 4.707,7.602 m -14.144,11.318 c 1.952,0 3.535,-2.691 3.535,-6.012 0,-3.32 -1.583,-6.011 -3.535,-6.011 -1.953,0 -3.537,2.691 -3.537,6.011 0,3.321 1.584,6.012 3.537,6.012"
             style="fill:#f57762;fill-opacity:1;fill-rule:evenodd;stroke:none"
             id="path491530" />
        </g>
        <g
           id="g491532"
           transform="translate(244.6426,255.9893)">
          <path
             d="m 0,0 c 2.441,0 4.42,-3.245 4.42,-7.249 0,-4.003 -1.979,-7.248 -4.42,-7.248 -2.441,0 -4.42,3.245 -4.42,7.248 C -4.42,-3.245 -2.441,0 0,0"
             style="fill:#f26047;fill-opacity:1;fill-rule:evenodd;stroke:none"
             id="path491534" />
        </g>
        <g
           id="g491536"
           transform="translate(310.0596,359.5957)">
          <path
             d="m 0,0 c 3.027,0 5.481,-4.273 5.481,-9.547 0,-5.273 -2.454,-9.547 -5.481,-9.547 -3.026,0 -5.48,4.274 -5.48,9.547 C -5.48,-4.273 -3.026,0 0,0"
             style="fill:#f26047;fill-opacity:1;fill-rule:evenodd;stroke:none"
             id="path491538" />
        </g>
        <g
           id="g491540"
           transform="translate(312.5449,307.3984)">
          <path
             d="m 0,0 c 2.24,0 4.057,-2.644 4.057,-5.902 0,-3.26 -1.817,-5.903 -4.057,-5.903 -2.24,0 -4.057,2.643 -4.057,5.903 C -4.057,-2.644 -2.24,0 0,0"
             style="fill:#f26047;fill-opacity:1;fill-rule:evenodd;stroke:none"
             id="path491542" />
        </g>
        <g
           id="g491544"
           transform="translate(290.7881,284.2773)">
          <path
             d="m 0,0 c 2.93,0 5.304,-3.799 5.304,-8.486 0,-4.688 -2.374,-8.487 -5.304,-8.487 -2.929,0 -5.304,3.799 -5.304,8.487 C -5.304,-3.799 -2.929,0 0,0"
             style="fill:#f26047;fill-opacity:1;fill-rule:evenodd;stroke:none"
             id="path491546" />
        </g>
        <g
           id="g491548"
           transform="translate(290.2578,336.2578)">
          <path
             d="m 0,0 c -1.953,0 -3.536,2.691 -3.536,6.012 0,3.32 1.583,6.011 3.536,6.011 1.953,0 3.536,-2.691 3.536,-6.011 C 3.536,2.691 1.953,0 0,0 m -25.592,-41.195 c -2.832,0 -5.127,3.879 -5.127,8.664 0,4.784 2.295,8.663 5.127,8.663 2.832,0 5.127,-3.879 5.127,-8.663 0,-4.785 -2.295,-8.664 -5.127,-8.664 m -1.238,34.83 c -2.6,0 -4.707,3.404 -4.707,7.603 0,4.199 2.107,7.602 4.707,7.602 2.6,0 4.708,-3.403 4.708,-7.602 0,-4.199 -2.108,-7.603 -4.708,-7.603 m -19.473,-18.931 c -3.186,0 -5.769,3.964 -5.769,8.855 0,4.89 2.583,8.854 5.769,8.854 3.188,0 5.771,-3.964 5.771,-8.854 0,-4.891 -2.583,-8.855 -5.771,-8.855 m -5.324,44.038 c -2.93,0 -5.304,3.799 -5.304,8.487 0,4.686 2.374,8.486 5.304,8.486 2.93,0 5.305,-3.8 5.305,-8.486 0,-4.688 -2.375,-8.487 -5.305,-8.487 M -69.138,-2.664 c -2.24,0 -4.057,2.643 -4.057,5.902 0,3.26 1.817,5.903 4.057,5.903 2.24,0 4.056,-2.643 4.056,-5.903 0,-3.259 -1.816,-5.902 -4.056,-5.902 m 58.574,32.19 c -2.441,0 -4.42,3.246 -4.42,7.249 0,4.004 1.979,7.249 4.42,7.249 2.441,0 4.419,-3.245 4.419,-7.249 0,-4.003 -1.978,-7.249 -4.419,-7.249"
             style="fill:#fcdaaf;fill-opacity:1;fill-rule:evenodd;stroke:none"
             id="path491550" />
        </g>
        <g
           id="g491552"
           transform="translate(280.0029,248.21)">
          <path
             d="m 0,0 c -1.953,0 -3.536,2.216 -3.536,4.95 0,2.734 1.583,4.951 3.536,4.951 1.953,0 3.536,-2.217 3.536,-4.951 C 3.536,2.216 1.953,0 0,0 m 21.747,59.76 c -1.855,0 -3.359,2.532 -3.359,5.657 0,3.125 1.504,5.658 3.359,5.658 1.856,0 3.36,-2.533 3.36,-5.658 0,-3.125 -1.504,-5.657 -3.36,-5.657 M 13.614,38.985 c -2.929,0 -5.304,3.008 -5.304,6.719 0,3.71 2.375,6.719 5.304,6.719 2.929,0 5.304,-3.009 5.304,-6.719 0,-3.711 -2.375,-6.719 -5.304,-6.719 M -50.035,12.729 c -3.027,0 -5.481,4.276 -5.481,9.548 0,5.273 2.454,9.548 5.481,9.548 3.026,0 5.48,-4.275 5.48,-9.548 0,-5.272 -2.454,-9.548 -5.48,-9.548"
             style="fill:#f6b27a;fill-opacity:1;fill-rule:evenodd;stroke:none"
             id="path491554" />
        </g>
        <g
           id="g491556"
           transform="translate(300.2969,256.1973)">
          <path
             d="m 0,0 c -0.176,-3.496 -0.51,-6.93 -0.815,-10.35 -0.75,-8.39 -2.869,-16.033 -6.427,-22.65 -3.556,-6.612 -8.526,-12.226 -14.708,-16.629 -7.487,-5.331 -16.175,-9.629 -25.628,-12.67 -9.477,-3.048 -19.761,-4.778 -30.505,-4.778 -10.775,0 -21.057,1.752 -30.551,4.559 -9.436,2.79 -18.098,6.499 -25.613,10.978 -6.186,3.686 -11.177,8.367 -14.74,14.021 -3.552,5.637 -5.713,12.22 -6.395,19.469 -0.278,2.95 -0.4,5.926 -0.4,8.929 C -129.834,-5.516 -104,3.374 -77.747,4.533 -51.813,5.677 -25.899,1.187 0,0"
             style="fill:#b53821;fill-opacity:1;fill-rule:evenodd;stroke:none"
             id="path491558" />
        </g>
        <g
           id="g491560"
           transform="translate(300.2969,256.1973)">
          <path
             d="m 0,0 c -0.807,-16.771 -9.169,-31.76 -23.149,-42.543 -14.093,-10.87 -33.478,-17.619 -54.934,-17.694 -21.455,-0.076 -40.786,6.009 -54.964,15.087 -13.914,8.906 -22.735,21.55 -22.735,36.029 0,14.479 9.484,27.717 23.278,41.834 15.251,15.605 34.626,35.133 56.98,36.725 C -53.17,71.032 -33.881,57.622 -19.92,44.603 -6.557,32.145 0.808,16.771 0,0"
             style="fill:#9c2d1f;fill-opacity:1;fill-rule:evenodd;stroke:none"
             id="path491562" />
        </g>
        <g
           id="g491564"
           transform="translate(294.4941,258.5586)">
          <path
             d="m 0,0 c -0.8,-14.904 -8.602,-28.085 -21.52,-37.531 -13.014,-9.518 -30.916,-15.155 -50.744,-15.32 -19.827,-0.163 -37.684,4.553 -50.792,12.247 -12.875,7.558 -21.04,18.466 -21.007,31.362 0.031,12.894 8.706,25.524 21.631,38.801 13.963,14.343 32.028,31.316 52.63,32.63 20.603,1.316 38.45,-10.357 51.273,-22.062 C -6.139,28.812 0.799,14.904 0,0"
             style="fill:#f4715a;fill-opacity:1;fill-rule:evenodd;stroke:none"
             id="path491566" />
        </g>
        <g
           id="g491568"
           transform="translate(290.4814,265.0439)">
          <path
             d="m 0,0 c -0.72,-10.759 -6.706,-19.759 -16.02,-25.571 -9.343,-5.833 -22.205,-8.391 -36.467,-6.663 -14.262,1.726 -26.99,7.099 -36.548,13.708 -9.092,6.286 -14.94,14.54 -14.708,25.011 0.232,10.472 6.25,21.938 16.164,31.567 9.641,9.363 23.215,14.52 37.81,11.931 14.594,-2.587 27.43,-10.593 36.531,-19.728 C -4.369,21.354 0.719,10.759 0,0"
             style="fill:#f78f7c;fill-opacity:1;fill-rule:evenodd;stroke:none"
             id="path491570" />
        </g>
        <g
           id="g491572"
           transform="translate(234.0938,302.4805)">
          <path
             d="m 0,0 c -0.072,-1.85 -2.246,-3.215 -4.812,-3.127 -2.567,0.09 -4.597,1.611 -4.525,3.469 0.071,1.856 2.206,3.324 4.78,3.235 C -1.982,3.488 0.071,1.85 0,0 m 17.65,-14.445 c -0.16,-2.867 -2.718,-4.949 -5.755,-4.669 -3.039,0.28 -5.389,2.833 -5.245,5.734 0.144,2.902 2.743,5.045 5.788,4.737 3.044,-0.306 5.371,-2.935 5.212,-5.802 M 47.658,-26.24 c -0.128,-1.851 -2.039,-3.209 -4.253,-3.018 -2.214,0.192 -3.901,1.905 -3.772,3.768 0.128,1.863 2.021,3.168 4.252,2.963 2.23,-0.206 3.901,-1.864 3.773,-3.713 M 31.703,-36.85 c -0.145,-2.73 -3.382,-4.662 -7.243,-4.314 -3.86,0.348 -6.898,2.84 -6.763,5.611 0.137,2.772 3.398,4.725 7.275,4.342 3.877,-0.382 6.874,-2.908 6.731,-5.639 m -36.18,-20.629 c -0.008,-3.167 -3.214,-5.619 -7.163,-5.638 -3.948,-0.022 -7.154,2.355 -7.146,5.515 0.008,3.161 3.237,5.959 7.194,5.981 3.958,0.019 7.123,-2.691 7.115,-5.858 m -29.018,28.876 c -0.071,-2.499 -2.941,-5.188 -6.362,-6.157 -3.422,-0.97 -6.147,0.129 -6.092,2.526 0.056,2.396 2.886,5.25 6.331,6.321 3.446,1.071 6.196,-0.19 6.123,-2.69 m 9.721,16.001 c -0.056,-1.931 -2.334,-3.918 -5.068,-4.615 -2.734,-0.695 -4.892,0.164 -4.845,2.035 0.049,1.87 2.327,4.117 5.069,4.861 2.742,0.744 4.9,-0.349 4.844,-2.281"
             style="fill:#f57762;fill-opacity:1;fill-rule:evenodd;stroke:none"
             id="path491574" />
        </g>
        <g
           id="g491576"
           transform="translate(171.4858,272.498)">
          <path
             d="m 0,0 c -0.032,-2.109 -2.725,-4.648 -5.995,-5.502 -3.27,-0.852 -5.907,0.212 -5.883,2.226 0.024,2.014 2.694,4.294 5.979,5.229 C -2.614,2.889 0.032,2.109 0,0"
             style="fill:#f26047;fill-opacity:1;fill-rule:evenodd;stroke:none"
             id="path491578" />
        </g>
        <g
           id="g491580"
           transform="translate(254.7646,219.8115)">
          <path
             d="m 0,0 c -0.008,-2.941 -3.461,-5.215 -7.706,-5.105 -4.244,0.108 -7.682,2.628 -7.674,5.61 0.008,2.983 3.469,5.325 7.706,5.161 C -3.436,5.503 0.009,2.942 0,0"
             style="fill:#f26047;fill-opacity:1;fill-rule:evenodd;stroke:none"
             id="path491582" />
        </g>
        <g
           id="g491584"
           transform="translate(212.6382,217.8867)">
          <path
             d="m 0,0 c -0.008,-2.219 -2.143,-4.089 -4.78,-4.232 -2.639,-0.144 -4.757,1.447 -4.749,3.618 0.008,2.171 2.127,4.15 4.764,4.342 C -2.127,3.918 0.007,2.219 0,0"
             style="fill:#f26047;fill-opacity:1;fill-rule:evenodd;stroke:none"
             id="path491586" />
        </g>
        <g
           id="g491588"
           transform="translate(193.9805,236.9189)">
          <path
             d="m 0,0 c 0,-2.751 -3.062,-5.481 -6.858,-6.103 -3.798,-0.622 -6.875,0.997 -6.875,3.605 0,2.607 3.077,5.365 6.875,6.13 C -3.062,4.396 0,2.751 0,0"
             style="fill:#f26047;fill-opacity:1;fill-rule:evenodd;stroke:none"
             id="path491590" />
        </g>
        <g
           id="g491592"
           transform="translate(235.9961,240.0313)">
          <path
             d="M 0,0 C 0,1.933 2.182,3.428 4.859,3.305 7.537,3.182 9.729,1.488 9.721,-0.436 9.712,-2.361 7.506,-3.781 4.828,-3.672 2.15,-3.564 0,-1.932 0,0 m -32.982,23.538 c 0.071,2.745 3.308,5.694 7.21,6.321 3.901,0.628 6.978,-1.399 6.891,-4.218 -0.088,-2.819 -3.318,-5.338 -7.195,-5.885 -3.878,-0.545 -6.979,1.038 -6.906,3.782 m 28.345,3.331 c 0.104,2.588 2.95,4.568 6.364,4.356 C 5.14,31.014 7.801,28.699 7.689,26.133 7.578,23.566 4.732,21.709 1.342,21.9 c -3.389,0.191 -6.082,2.382 -5.979,4.969 m -14.676,19.265 c 0.111,3.167 3.492,6.116 7.514,6.143 4.022,0.028 7.147,-2.785 7.002,-5.965 -0.143,-3.181 -3.484,-5.55 -7.482,-5.571 -3.998,-0.02 -7.146,2.226 -7.034,5.393 m 36.339,3.632 c 0.144,2.874 3.39,4.847 7.226,4.369 3.838,-0.478 6.827,-3.182 6.651,-6.008 -0.175,-2.826 -3.437,-4.772 -7.258,-4.328 -3.821,0.444 -6.762,3.094 -6.619,5.967 M 0.256,68.839 C 0.344,71.064 2.558,72.695 5.26,72.43 7.961,72.163 10.088,70.115 9.992,67.91 9.895,65.705 7.625,64.148 4.939,64.402 2.254,64.654 0.168,66.613 0.256,68.839 M 23.853,8.943 c 0.047,2.362 2.702,4.062 5.931,3.823 3.23,-0.239 5.788,-2.348 5.739,-4.669 -0.047,-2.322 -2.637,-4.041 -5.867,-3.824 -3.228,0.219 -5.851,2.308 -5.803,4.67"
             style="fill:#fcdaaf;fill-opacity:1;fill-rule:evenodd;stroke:none"
             id="path491594" />
        </g>
        <g
           id="g491596"
           transform="translate(164.8193,240.8789)">
          <path
             d="M 0,0 C 0,1.638 1.823,3.283 4.029,3.74 6.235,4.197 8.026,3.235 8.01,1.543 7.994,-0.15 6.219,-1.891 4.013,-2.294 1.807,-2.697 0,-1.639 0,0 m 48.331,-12.274 c 0,1.842 2.038,3.454 4.572,3.536 2.534,0.082 4.548,-1.413 4.54,-3.263 -0.008,-1.851 -2.03,-3.353 -4.556,-3.428 -2.527,-0.074 -4.556,1.311 -4.556,3.155 m -16.819,6.02 c 0.007,2.785 2.446,5.461 5.451,5.912 3.006,0.451 5.42,-1.556 5.42,-4.424 0,-2.867 -2.43,-5.426 -5.436,-5.789 -3.006,-0.361 -5.443,1.516 -5.435,4.301 m -20.56,52.018 c 0.039,2.649 3.629,6.226 7.993,8.043 4.365,1.814 7.882,0.968 7.818,-1.844 -0.064,-2.813 -3.661,-6.417 -8.009,-8.056 -4.349,-1.637 -7.842,-0.792 -7.802,1.857"
             style="fill:#f6b27a;fill-opacity:1;fill-rule:evenodd;stroke:none"
             id="path491598" />
        </g>
        <g
           id="g491600"
           transform="translate(230.2832,238.1865)">
          <path
             d="m 0,0 c -0.176,-3.494 -0.51,-6.945 -0.815,-10.368 -0.749,-8.405 -2.874,-16.093 -6.427,-22.812 -3.562,-6.734 -8.503,-12.57 -14.725,-17.127 -7.463,-5.465 -16.126,-9.798 -25.612,-12.621 -9.443,-2.809 -19.76,-4.173 -30.504,-4.173 -10.775,0 -21.089,1.403 -30.552,3.968 -9.466,2.568 -18.121,6.299 -25.612,10.932 -6.21,3.841 -11.181,8.739 -14.74,14.491 -3.555,5.743 -5.714,12.378 -6.395,19.636 -0.278,2.958 -0.4,5.927 -0.4,8.934 25.948,0.09 51.902,-0.76 77.811,0.321 C -51.978,-7.735 -25.996,-2.393 0,0"
             style="fill:#b53821;fill-opacity:1;fill-rule:evenodd;stroke:none"
             id="path491602" />
        </g>
        <g
           id="g491604"
           transform="translate(230.2832,238.1865)">
          <path
             d="m 0,0 c -0.808,-16.78 -9.035,-32.207 -23.165,-43.586 -13.96,-11.241 -33.486,-17.863 -54.934,-17.933 -21.447,-0.071 -40.899,5.859 -54.949,15.335 -14.039,9.468 -22.734,22.574 -22.734,37.044 0,14.471 8.86,27.608 23.278,37.211 14.503,9.661 34.453,14.482 56.515,15.95 22.063,1.468 42.357,3.226 55.941,-4.109 C -5.992,32.322 0.807,16.78 0,0"
             style="fill:#9c2d1f;fill-opacity:1;fill-rule:evenodd;stroke:none"
             id="path491606" />
        </g>
        <g
           id="g491608"
           transform="translate(224.4795,240.2852)">
          <path
             d="m 0,0 c -0.783,-14.844 -8.478,-28.735 -21.551,-39.066 -12.892,-10.189 -30.951,-16.462 -50.76,-16.616 -19.809,-0.154 -37.757,5.18 -50.744,13.569 -12.993,8.392 -21.04,20.02 -21.008,32.859 0.032,12.838 8.27,24.508 21.599,33.037 13.433,8.598 31.858,12.941 52.216,14.158 20.356,1.218 38.943,2.461 51.559,-3.66 C -5.794,28.023 0.783,14.845 0,0"
             style="fill:#f4715a;fill-opacity:1;fill-rule:evenodd;stroke:none"
             id="path491610" />
        </g>
        <g
           id="g491612"
           transform="translate(220.4351,246.2383)">
          <path
             d="m 0,0 c -0.712,-10.663 -6.681,-20.301 -16.051,-27.343 -9.351,-7.025 -22.275,-11.724 -36.548,-11.507 -14.273,0.217 -27.19,5.246 -36.516,11.981 -9.267,6.693 -14.892,15.489 -14.676,24.769 0.216,9.281 6.332,17.344 16.004,22.824 9.689,5.49 22.954,7.357 37.602,8.73 14.648,1.372 27.864,1.459 36.835,-3.79 C -4.15,20.283 0.711,10.662 0,0"
             style="fill:#f78f7c;fill-opacity:1;fill-rule:evenodd;stroke:none"
             id="path491614" />
        </g>
        <g
           id="g491616"
           transform="translate(163.6636,264.082)">
          <path
             d="m 0,0 c -0.072,-1.511 -2.214,-2.951 -4.78,-3.06 -2.566,-0.108 -4.597,1.101 -4.541,2.612 0.056,1.51 2.198,2.752 4.764,2.867 C -1.991,2.535 0.072,1.51 0,0 m 17.746,-7.591 c -0.152,-2.483 -2.71,-5.037 -5.756,-5.581 -3.045,-0.544 -5.411,1.063 -5.276,3.483 0.137,2.417 2.726,4.798 5.788,5.4 3.062,0.603 5.395,-0.818 5.244,-3.302 M 48.01,-8.717 c -0.128,-1.779 -2.03,-3.527 -4.268,-3.943 -2.239,-0.416 -3.957,0.652 -3.838,2.406 0.12,1.754 2.039,3.578 4.285,4.02 2.247,0.441 3.949,-0.704 3.821,-2.483 M 31.959,-22.875 c -0.144,-2.496 -3.381,-5.095 -7.274,-5.785 -3.893,-0.692 -6.931,0.723 -6.811,3.136 0.12,2.413 3.389,4.94 7.29,5.721 3.901,0.782 6.939,-0.576 6.795,-3.072 M -4.253,-47.311 c 0,-2.598 -3.182,-4.768 -7.13,-4.788 -3.949,-0.018 -7.147,2.093 -7.147,4.672 0,2.579 3.206,4.673 7.147,4.686 3.941,0.012 7.13,-1.972 7.13,-4.57 m -29.001,25.921 c -0.064,-2.106 -2.886,-3.827 -6.299,-3.853 -3.414,-0.025 -6.108,1.657 -6.059,3.763 0.048,2.106 2.862,3.841 6.283,3.867 3.421,0.025 6.139,-1.671 6.075,-3.777 m 9.64,11.546 c -0.048,-1.594 -2.326,-2.874 -5.036,-2.892 -2.709,-0.02 -4.86,1.241 -4.812,2.828 0.048,1.588 2.294,2.893 5.02,2.919 2.726,0.025 4.876,-1.261 4.828,-2.855"
             style="fill:#f57762;fill-opacity:1;fill-rule:evenodd;stroke:none"
             id="path491618" />
        </g>
        <g
           id="g491620"
           transform="translate(101.4561,249.4893)">
          <path
             d="m 0,0 c -0.04,-1.983 -2.71,-3.591 -5.979,-3.61 -3.27,-0.019 -5.907,1.562 -5.884,3.533 0.024,1.972 2.694,3.584 5.98,3.609 C -2.598,3.559 0.04,1.983 0,0"
             style="fill:#f26047;fill-opacity:1;fill-rule:evenodd;stroke:none"
             id="path491622" />
        </g>
        <g
           id="g491624"
           transform="translate(184.6709,198.0947)">
          <path
             d="m 0,0 c 0.008,-2.585 -3.453,-4.902 -7.706,-5.133 -4.252,-0.23 -7.69,1.652 -7.69,4.148 0,2.496 3.438,4.723 7.69,5.043 C -3.453,4.378 -0.008,2.586 0,0"
             style="fill:#f26047;fill-opacity:1;fill-rule:evenodd;stroke:none"
             id="path491626" />
        </g>
        <g
           id="g491628"
           transform="translate(142.5601,194.6777)">
          <path
             d="m 0,0 c 0,-1.818 -2.135,-3.29 -4.765,-3.29 -2.63,0 -4.748,1.466 -4.748,3.276 0,1.812 2.118,3.303 4.748,3.303 C -2.135,3.289 0,1.817 0,0"
             style="fill:#f26047;fill-opacity:1;fill-rule:evenodd;stroke:none"
             id="path491630" />
        </g>
        <g
           id="g491632"
           transform="translate(123.9023,212.2783)">
          <path
             d="m 0,0 c 0,-2.375 -3.045,-4.32 -6.826,-4.34 -3.781,-0.018 -6.859,1.889 -6.859,4.263 0,2.374 3.053,4.314 6.842,4.34 C -3.054,4.288 0,2.374 0,0"
             style="fill:#f26047;fill-opacity:1;fill-rule:evenodd;stroke:none"
             id="path491634" />
        </g>
        <g
           id="g491636"
           transform="translate(165.8057,213.1865)">
          <path
             d="M 0,0 C 0,1.607 2.158,3.066 4.844,3.303 7.53,3.54 9.72,2.458 9.72,0.819 9.72,-0.819 7.53,-2.336 4.844,-2.534 2.158,-2.732 0,-1.606 0,0 m -32.966,20.302 c 0.056,2.298 3.261,4.18 7.146,4.199 3.885,0.019 6.971,-1.863 6.891,-4.16 -0.08,-2.298 -3.278,-4.161 -7.147,-4.173 -3.868,-0.014 -6.946,1.836 -6.89,4.134 m 28.234,1.293 c 0.095,2.119 2.917,3.981 6.331,4.365 3.413,0.384 6.099,-0.947 5.995,-3.11 -0.104,-2.163 -2.933,-4.276 -6.331,-4.621 -3.397,-0.346 -6.091,1.248 -5.995,3.366 m -14.677,15.603 c 0.112,2.593 3.43,4.66 7.434,4.698 4.005,0.039 7.155,-1.894 7.035,-4.493 -0.12,-2.597 -3.485,-4.857 -7.466,-4.889 -3.981,-0.032 -7.114,2.093 -7.003,4.684 m 36.292,8.001 c 0.143,2.49 3.389,5.248 7.258,6.234 3.869,0.986 6.882,-0.294 6.715,-2.88 -0.168,-2.585 -3.429,-5.421 -7.275,-6.311 -3.845,-0.889 -6.842,0.468 -6.698,2.957 M -0.016,56.451 c 0.072,1.83 2.302,3.61 5.004,4.096 2.702,0.486 4.828,-0.538 4.748,-2.394 -0.08,-1.855 -2.325,-3.846 -5.02,-4.3 -2.694,-0.455 -4.804,0.767 -4.732,2.598 M 23.885,11.61 c 0.04,2.12 2.702,4.257 5.948,4.776 3.245,0.517 5.827,-0.859 5.787,-3.047 -0.04,-2.19 -2.662,-4.295 -5.899,-4.749 -3.238,-0.454 -5.875,0.902 -5.836,3.02"
             style="fill:#fcdaaf;fill-opacity:1;fill-rule:evenodd;stroke:none"
             id="path491638" />
        </g>
        <g
           id="g491640"
           transform="translate(94.8052,220.8672)">
          <path
             d="M 0,0 C 0,1.574 1.823,2.855 4.029,2.867 6.235,2.88 8.018,1.606 8.01,0.025 8.001,-1.555 6.219,-2.854 4.013,-2.854 1.807,-2.854 0,-1.574 0,0 m 48.218,-17.422 c 0,1.504 2.03,2.727 4.557,2.727 2.526,0 4.556,-1.209 4.556,-2.714 0,-1.503 -2.03,-2.738 -4.556,-2.738 -2.527,0 -4.557,1.221 -4.557,2.725 m -16.77,6.541 c 0,2.375 2.413,4.302 5.403,4.315 2.99,0.012 5.42,-1.902 5.42,-4.276 0,-2.375 -2.406,-4.301 -5.404,-4.314 -2.997,-0.013 -5.419,1.901 -5.419,4.275 M 10.904,40.526 c 0.039,2.453 3.605,4.488 7.945,4.533 4.341,0.044 7.85,-1.895 7.786,-4.354 -0.064,-2.457 -3.638,-4.492 -7.962,-4.531 -4.324,-0.038 -7.809,1.901 -7.769,4.352"
             style="fill:#f6b27a;fill-opacity:1;fill-rule:evenodd;stroke:none"
             id="path491642" />
        </g>
      </g>
    </g>
  </g>
</svg>
