<svg width="124.212" height="140" xmlns:xlink="http://www.w3.org/1999/xlink" xmlns="http://www.w3.org/2000/svg"><defs><linearGradient id="prefix__k"><stop offset="0" stop-color="#f2e916"/><stop offset=".312" stop-color="#f11e25"/><stop offset=".729" stop-color="#f2e916"/><stop offset="1" stop-color="#f11e25"/></linearGradient><linearGradient id="prefix__j"><stop offset="0" stop-color="#f2e916"/><stop offset=".363" stop-color="#f11e25"/><stop offset=".729" stop-color="#f2e916"/><stop offset="1" stop-color="#f11e25"/></linearGradient><linearGradient id="prefix__i"><stop offset="0" stop-color="#faff00"/><stop offset="1" stop-color="#ff713f"/></linearGradient><linearGradient id="prefix__h"><stop offset="0" stop-color="#f2e916"/><stop offset=".518" stop-color="#f11e25"/><stop offset=".83" stop-color="#f2e916"/><stop offset="1" stop-color="#f11e25"/></linearGradient><linearGradient id="prefix__a"><stop offset="0" stop-color="#fff"/><stop offset=".185" stop-color="#5d7aad"/><stop offset=".552" stop-color="#3967b9"/><stop offset="1" stop-color="#b3cbf3"/><stop offset="1" stop-color="#fff" stop-opacity=".116"/></linearGradient><linearGradient id="prefix__b"><stop offset="0" stop-color="#fff"/><stop offset=".185" stop-color="#5d7aad"/><stop offset=".412" stop-color="#3967b9" stop-opacity="0"/><stop offset="1" stop-color="#b3cbf3" stop-opacity=".464"/><stop offset="1" stop-color="#fff" stop-opacity=".179"/></linearGradient><linearGradient id="prefix__c"><stop offset="0" stop-color="#fff"/><stop offset=".185" stop-color="#5d7aad"/><stop offset=".552" stop-color="#3967b9"/><stop offset="1" stop-color="#b3cbf3"/><stop offset="1" stop-color="#fff" stop-opacity=".116"/></linearGradient><linearGradient id="prefix__d"><stop offset="0" stop-color="#fff"/><stop offset=".185" stop-color="#5d7aad"/><stop offset=".552" stop-color="#3967b9"/><stop offset="1" stop-color="#b3cbf3"/><stop offset="1" stop-color="#fff" stop-opacity=".116"/></linearGradient><linearGradient id="prefix__e"><stop offset="0" stop-color="#fff"/><stop offset=".185" stop-color="#5d7aad"/><stop offset=".552" stop-color="#3967b9"/><stop offset="1" stop-color="#b3cbf3" stop-opacity="0"/><stop offset="1" stop-color="#fff" stop-opacity="0"/></linearGradient><linearGradient id="prefix__f"><stop offset="0" stop-color="#fff"/><stop offset=".185" stop-color="#5d7aad"/><stop offset=".552" stop-color="#3967b9"/><stop offset="1" stop-color="#b3cbf3"/><stop offset="1" stop-color="#fff" stop-opacity=".116"/></linearGradient><linearGradient id="prefix__g"><stop offset="0" stop-color="#fff"/><stop offset=".185" stop-color="#5d7aad"/><stop offset=".552" stop-color="#3967b9"/><stop offset="1" stop-color="#b3cbf3" stop-opacity="0"/><stop offset="1" stop-color="#fff" stop-opacity="0"/></linearGradient><radialGradient xlink:href="#prefix__k" id="prefix__l" gradientUnits="userSpaceOnUse" gradientTransform="matrix(-.02126 -6.52726 4.89694 -.00962 -164.542 1568.607)" cx="71.845" cy="47.719" fx="71.845" fy="47.719" r="25.128"/><radialGradient xlink:href="#prefix__i" id="prefix__m" gradientUnits="userSpaceOnUse" gradientTransform="matrix(4.11632 -1.2414 2.2444 8.18312 -178.662 735.078)" cx="32.209" cy="49.871" fx="32.209" fy="49.871" r="16.697"/></defs><path d="M4.266 1052.405c25.13-6.367 29.997-4.35 26.357 11.986 5.644-19.069-3.98-46.193-20.212-70.27 20.898.737 38.168 22.303 37.149 61.68-1.93-28.292 15.368-50.863 29.08-65.816-.785 10.573-.407 24.15-2.92 40.768-2.92 19.329-1.433 24.234-1.433 24.234-3.691-20.352 4.892-30.4 30.347-58.665-10.905 16.7-2.062 49.514-5.34 73.926-3.134-37.586 22.965-26.119 19.528-44.199 4.54 19.065-8.309 44.791-5.304 59.588 8.737-11.89 8.364-22.005 7.742-35.015 4.593 7.043 4.235 6.592 5.993 11.15 9.61 37.652-1.199 64.564-46.79 67.832-25.201 3.034-95.793-11.915-62.334-49.388 4.698-5.261 15.666-23.84-11.863-27.81z" fill="url(#prefix__l)" transform="translate(-4.266 -989.985)"/><path d="M34.725 1063.707c-6.18 26.494-66.312 43.12 37.666 64.678 34.133-9.809 62.19-13.664 49.31-70.02-.498 35.315-8.92 25.818-16.165 37.964 7.812-8.516-4.15-35.185 6.93-54.256-12.134 4.13-18.077 41.907-31.101 50.462 28.309-38.233 1.228-47.338 8.615-75.358.18 20.645-21.497 21.277-18.368 54.462-1.948-11.555.194.832-1.11-11.224-1.806-16.698-8.495-33.044-1.205-52.75-9.08.749-26.299 74.726-15.5 90.209-12.787-17.653.142-56.34-27.692-91.358 14.042 41.562 10.408 43.804 8.62 57.19z" fill="url(#prefix__m)" transform="translate(-4.266 -989.985)"/></svg>