<svg version="1.1" xmlns="http://www.w3.org/2000/svg" xmlns:xlink="http://www.w3.org/1999/xlink" width="124.21198" height="140.00023" viewBox="0,0,124.21198,140.00023"><defs><radialGradient cx="240.73567" cy="218.71183" r="164.01786" fx="240.73567" fy="218.71183" gradientUnits="userSpaceOnUse" id="color-1"><stop offset="0" stop-color="#f2e916"/><stop offset="0.312" stop-color="#f11e25"/><stop offset="0.729" stop-color="#f2e916"/><stop offset="1" stop-color="#f11e25"/></radialGradient><radialGradient cx="238.97904" cy="222.70901" r="71.78771" fx="238.97904" fy="222.70901" gradientUnits="userSpaceOnUse" id="color-2"><stop offset="0" stop-color="#faff00"/><stop offset="1" stop-color="#ff713f"/></radialGradient></defs><g transform="translate(-177.39401,-109.49989)"><g data-paper-data="{&quot;isPaintingLayer&quot;:true}" fill-rule="nonzero" stroke="none" stroke-width="1" stroke-linecap="butt" stroke-linejoin="miter" stroke-miterlimit="10" stroke-dasharray="" stroke-dashoffset="0" style="mix-blend-mode: normal"><path d="M177.39401,171.91989c25.13,-6.367 29.997,-4.35 26.357,11.986c5.644,-19.069 -3.98,-46.193 -20.212,-70.27c20.898,0.737 38.168,22.303 37.149,61.68c-1.93,-28.292 15.368,-50.863 29.08,-65.816c-0.785,10.573 -0.407,24.15 -2.92,40.768c-2.92,19.329 -1.433,24.234 -1.433,24.234c-3.691,-20.352 4.892,-30.4 30.347,-58.665c-10.905,16.7 -2.062,49.514 -5.34,73.926c-3.134,-37.586 22.965,-26.119 19.528,-44.199c4.54,19.065 -8.309,44.791 -5.304,59.588c8.737,-11.89 8.364,-22.005 7.742,-35.015c4.593,7.043 4.235,6.592 5.993,11.15c9.61,37.652 -1.199,64.564 -46.79,67.832c-25.201,3.034 -95.793,-11.915 -62.334,-49.388c4.698,-5.261 15.666,-23.84 -11.863,-27.81z" fill="url(#color-1)"/><path d="M207.85301,183.22089c1.788,-13.386 5.422,-15.628 -8.62,-57.19c27.834,35.018 14.905,73.705 27.692,91.358c-10.799,-15.483 6.42,-89.46 15.5,-90.209c-7.29,19.706 -0.601,36.052 1.205,52.75c1.304,12.056 -0.838,-0.331 1.11,11.224c-3.129,-33.185 18.548,-33.817 18.368,-54.462c-7.387,28.02 19.694,37.125 -8.615,75.358c13.024,-8.555 18.967,-46.332 31.101,-50.462c-11.08,19.071 0.882,45.74 -6.93,54.256c7.245,-12.146 15.667,-2.649 16.165,-37.964c12.88,56.356 -15.177,60.211 -49.31,70.02c-103.978,-21.558 -43.846,-38.184 -37.666,-64.678z" fill="url(#color-2)"/></g></g></svg>