<svg xmlns="http://www.w3.org/2000/svg" width="127.635" height="135.962" viewBox="0 0 10.211 10.877" xmlns:v="https://vecta.io/nano"><path d="M9.014 6.533c-.175 0-.308.201-.352.201-.083.018-.191 0-.318 0a.652.652 0 0 0-.527.183C7.631 7.119 7.539 8 7.79 8.21s.654.117.805.093.201.042.376.05a.859.859 0 0 0 .731-.403c.185-.32.024-.873-.066-1.083a.779.779 0 0 0-.622-.334zM2.399 2.86c.403.127 1.022-.04 1.383-.066s.956.109 1.234.093.646-.386.763-1.006S5.677.471 5.1.27 3.824.395 3.506.512 2.83.604 2.332.848s-.487.513-.495.805.167 1.083.561 1.208zm3.673.312c.085.024 1.912-2.047 1.936-2.113S7.867.84 7.782.84 5.8 2.806 5.82 2.903a.686.686 0 0 0 .252.27zm3.17-1.409c.066.016.519-.572.545-.646s-.127-.093-.201-.101-.604.505-.561.553a.735.735 0 0 0 .217.193zm-7.933 1.92c.068-.119-.368 0-.485.05a1.375 1.375 0 0 0-.588.67A1.769 1.769 0 0 0 0 5.233a.39.39 0 0 0 .36.058c.085-.042.06-.336.185-.747s.696-.745.763-.861zM6.013.614A2.013 2.013 0 0 0 6.49.17c.018-.05-.024-.135-.125-.167s-.561.252-.545.403c.008.074.117.217.193.209zm3.983 1.735c-.36-.477-1.133-.217-1.284-.175s-.564-.04-.755.109c-.604.469-.453 1.3-.427 1.509a.509.509 0 0 0 .437.403c.183.016.729.26 1.022.326s.805.042 1.006-.276.36-1.417 0-1.896zm-1.35 2.926c.026-.083-.016-.066-.093-.083s-.604.439-.67.519c-.026.034.151.235.217.235s.521-.588.545-.672zm-3.739 5.283c-.05-.016-.201.042-.789.034a.982.982 0 0 1-.712-.235c-.066 0-.201.127-.252.201s.125.111.225.169a1.896 1.896 0 0 0 .805.143 1.695 1.695 0 0 0 .773-.111c0-.032 0-.183-.05-.201zm1.542-6.162c-.477-.286-.787-.805-1.425-.855s-1.065.314-1.61.386c-.771.101-1.443.201-1.978.628A2.286 2.286 0 0 0 .63 6.191a1.006 1.006 0 0 0 .336.896c.159.151-.026.453-.05.704a2.292 2.292 0 0 0 .787 1.586c.58.437.898.403 1.409.403s.72.109 1.509.252 1.006.034 1.586-.495.31-1.115.36-1.224.31-.244.545-.511.403-1.141.334-1.745-.527-1.375-.998-1.66z" fill="#1d1d1b"/><g fill="#e6e4da"><path d="M2.926.916a.731.731 0 0 0 .646.352.718.718 0 0 0 .622-.479c.058-.143.032-.252.058-.252s.578-.183.863.185a1.447 1.447 0 0 1 .244 1.258c-.127.336-.429.588-.604.588a7.521 7.521 0 0 0-1.326-.085c-.561.05-.654.093-.763.042a1.298 1.298 0 0 1-.403-.696.9.9 0 0 1 .185-.72 2.588 2.588 0 0 1 .477-.193z"/><path d="M3.188.84c-.01-.04.737-.252.763-.201a.475.475 0 0 1-.32.421.386.386 0 0 1-.443-.219z"/></g><path d="M4.454.757c-.014-.044.125-.068.167-.034s.252.527.201.57-.151.085-.183.026-.177-.537-.185-.561zm.394.024c-.012-.032.091-.034.151.026s.175.334.125.368-.085.058-.125.024A2.194 2.194 0 0 1 4.848.78zm-1.98.94c.227-.131.63-.085.63.292s-.561.437-.704.286a.352.352 0 0 1 .074-.578z" fill="#1d1d1b"/><path d="M3.011 1.864c.097-.058.286.016.286.141s-.201.169-.286.135a.157.157 0 0 1 0-.276z" fill="#fff"/><path d="M4.303 1.621c.252-.157.787 0 .729.36s-.453.427-.67.403-.731-.344-.058-.763z" fill="#1d1d1b"/><path d="M4.403 1.763c.089-.044.403-.042.403.175s-.286.302-.469.252-.177-.31.066-.427z" fill="#fff"/><path d="M8.177 2.577c.07-.068.31-.085.326-.034s.058.403.294.537a.535.535 0 0 0 .519.074c.143-.05.244-.125.227-.159s-.066-.135-.101-.135-.336.219-.537.05-.125-.403-.032-.435.662-.119.805.074.125 1.409.042 1.35-.177-.336-.227-.336-.159.042-.135.101.278.344.227.403-.143.127-.185.093-.133-.445-.217-.437-.201.05-.167.101.133.294.083.302-.427-.117-.604-.133-.437.024-.527-.219-.093-.904.209-1.197z" fill="#e6e4da"/><path d="M8.41 3.273a.366.366 0 0 1 .471.284c0 .201-.36.36-.553.219s-.227-.378.083-.503z" fill="#1d1d1b"/><path d="M8.491 3.454a.121.121 0 0 1 .155.093c0 .07-.119.119-.183.072s-.074-.125.028-.165z" fill="#fff"/><path d="M8.042 7.07c.028-.034.185-.074.177-.034s-.119.227.101.32a.708.708 0 0 1 .284.183s.042.429-.024.429-.119.016-.127-.026 0-.302-.042-.31-.141-.05-.151 0 .026.378-.016.352-.101.026-.175-.093-.101-.729-.026-.821zm1.091-.108c.024-.016.109-.05.151-.016a.805.805 0 0 1 .133.57c-.032.302-.074.368-.133.386s-.05.05-.06.016 0-.294-.05-.302-.159 0-.167.024.042.362-.024.352-.177 0-.185-.05a1.564 1.564 0 0 1-.016-.403c.024 0 .31-.018.368-.201a.628.628 0 0 0-.016-.376z" fill="#e6e4da"/><path d="M8.579 6.962c.278-.034.403.151.376.268s-.175.201-.376.085-.209-.328 0-.352z" fill="#fff"/><path d="M3.347 4.227c.292-.034.628-.201 1.107-.252a1.674 1.674 0 0 1 1.308.336 5.063 5.063 0 0 1 1.006.972 1.89 1.89 0 0 1 .284 1.594c-.159.62-.225.747-.427.898s-.445.376-.453.461.201.731-.201 1.091-.704.477-.914.461-.906-.278-1.61-.286-1.133-.042-1.451-.284a2.343 2.343 0 0 1-.662-1.075c0-.151-.042-.292.016-.318s.646-.125.821-.268.143-.461 0-.68-.252-.394-.485-.437-.553.235-.553.235a.751.751 0 0 1-.111-.553c.06-.286.211-.948.664-1.358s1.165-.485 1.66-.537z" fill="#e6e4da"/><path d="M2.121 4.782c.056-.038.219.058.185.117a3.176 3.176 0 0 0-.403.537c-.074.201-.032.318-.109.352s-.185.125-.201 0a1.075 1.075 0 0 1 .143-.529 1.916 1.916 0 0 1 .384-.477zm2.307-.378c.386-.101.722.117.94.252a1.183 1.183 0 0 0 .487.227c.175.024.302.066.334.201s0 .469-.101.511-.519.05-.72.217-.268.344-.545.403-.57.109-.879-.143-.604-1.383.485-1.668z" fill="#1d1d1b"/><path d="M4.504 4.605a1.119 1.119 0 0 1 .662.167c.225.135.175.161.403.219s.376.083.403.175.074.26-.034.294-.503.026-.696.159-.334.461-.755.419a.68.68 0 0 1-.586-.644.743.743 0 0 1 .604-.789z" fill="#fff"/><path d="M5.828 6.441a.523.523 0 0 1 .731.654c-.185.513-.731.572-.974.286a.63.63 0 0 1 .244-.94z" fill="#1d1d1b"/><path d="M5.901 6.624a.332.332 0 0 1 .465.421.37.37 0 0 1-.62.183.403.403 0 0 1 .155-.604zm-4.593.245c.034-.024.201-.225.421-.143s.403.572.326.63a2.54 2.54 0 0 1-.646.225c-.016-.024.076-.344.042-.453a1.208 1.208 0 0 0-.143-.26z" fill="#fff"/><path d="M3.649 7.632c.089-.038.729-.066.847.042s.175.445.443.58.403.225.403.461a.453.453 0 0 1-.403.419c-.159 0-.586-.185-.922-.185a1.691 1.691 0 0 1-.779-.117.58.58 0 0 1-.177-.545c.066-.101.26-.511.588-.654z" fill="#1d1d1b"/><path d="M3.792 7.833c.137-.056.527-.058.586.042s.135.336.26.403.521.235.513.376-.185.32-.211.302a1.66 1.66 0 0 0-.829-.201c-.445.018-.519.076-.646 0s-.225-.252-.185-.352a1.779 1.779 0 0 1 .513-.57z" fill="#fff"/><g fill="#1d1d1b"><path d="M2.801 6.493c.019-.038.058-.062.101-.062s.081.024.101.062c.042.093.235 1.006.177 1.04s-.119.109-.161.042a6.5 6.5 0 0 1-.217-1.083z"/><path d="M3.278 6.475c.021-.024.052-.038.085-.038s.063.014.085.038c.024.05.183.765.109.789s-.143.076-.177-.016-.151-.696-.101-.773zm.504.092c.02-.056.143-.024.169.016a3.8 3.8 0 0 1 .074.68c-.016.034-.143.042-.167-.016a5.17 5.17 0 0 1-.076-.68zm.478.101c.018-.021.044-.034.071-.034a.09.09 0 0 1 .071.034c.05.05.217.688.117.696s-.151.042-.201-.076a1.85 1.85 0 0 1-.058-.62zm.477-.085c.036-.034.151-.083.169.018s.024.268-.034.294-.125.091-.151 0a.67.67 0 0 1 .016-.312zm-2.849 1.51c0-.062.135-.074.159 0s.101.286.058.302c-.039.028-.088.035-.133.018-.052-.026-.085-.244-.085-.32z"/></g></svg>