<svg version="1.1" xmlns="http://www.w3.org/2000/svg" xmlns:xlink="http://www.w3.org/1999/xlink" width="140" height="116.24091" viewBox="0,0,140,116.24091"><g transform="translate(-170,-121.87954)"><g data-paper-data="{&quot;isPaintingLayer&quot;:true}" fill-rule="nonzero" stroke="none" stroke-width="0.2006" stroke-linecap="butt" stroke-linejoin="miter" stroke-miterlimit="10" stroke-dasharray="" stroke-dashoffset="0" style="mix-blend-mode: normal"><path d="M269.76939,143.94604h-11.55043v-4.48226h11.55043c1.9747,0 3.58895,-1.61423 3.58895,-3.58894c0,-1.9747 -1.61424,-3.58894 -3.58895,-3.58894h-3.49491v-4.48226h3.49491c4.45091,0 8.0712,3.62028 8.0712,8.0712c0,4.45091 -3.62029,8.0712 -8.0712,8.0712z" fill="#d68231"/><path d="M264.04903,121.87955c4.29419,0 4.90541,3.40088 4.6233,5.03078c-2.38218,13.68186 -14.30874,24.07255 -28.6645,24.07255c-14.35576,0 -26.28232,-10.39069 -28.6645,-24.07255c-0.2821,-1.62991 0.32912,-5.03078 4.6233,-5.03078zM178.58838,155.52782h122.80756v80.5239h-122.80756z" fill="#ffb819"/><path d="M178.58838,191.04109h12.94526v6.22187h-12.94526zM199.04063,172.87697h12.94527v6.22188h-12.94527zM238.91078,170.91795h12.94526v6.22188h-12.94526z" fill="#000000"/><path d="M288.46636,179.80409h12.94526v6.22188h-12.94526zM286.33494,218.06h12.94526v6.22188h-12.94526z" fill="#000000"/><path d="M236.1368,206.30583h12.94526v6.22188h-12.94526zM183.94828,223.29452h12.94526v6.22188h-12.94526z" fill="#000000"/><path d="M194.11956,158.66226v3.98074c0,5.06213 -4.10612,9.16825 -9.16825,9.16825c-5.06213,0 -9.16825,-4.10612 -9.16825,-9.16825v-3.98074z" fill="#00b3e3"/><path d="M212.47173,158.66226v3.98074c0,5.06213 -4.10612,9.16825 -9.16825,9.16825c-5.06213,0 -9.16826,-4.10612 -9.16826,-9.16825v-3.98074z" fill="#ffffff"/><path d="M230.82391,158.66226v3.98074c0,5.06213 -4.10612,9.16825 -9.16826,9.16825c-5.06212,0 -9.16825,-4.10612 -9.16825,-9.16825v-3.98074z" fill="#00b3e3"/><path d="M249.16041,158.66226v3.98074c0,5.06213 -4.10612,9.16825 -9.16825,9.16825c-5.06213,0 -9.16825,-4.10612 -9.16825,-9.16825v-3.98074z" fill="#ffffff"/><path d="M267.51259,158.66226v3.98074c0,5.06213 -4.10612,9.16825 -9.16825,9.16825c-5.06213,0 -9.16826,-4.10612 -9.16826,-9.16825v-3.98074z" fill="#00b3e3"/><path d="M285.86477,158.66226v3.98074c0,5.06213 -4.10612,9.16825 -9.16826,9.16825c-5.06213,0 -9.16825,-4.10612 -9.16825,-9.16825v-3.98074z" fill="#ffffff"/><path d="M304.20127,158.66226v3.98074c0,5.06213 -4.10612,9.16825 -9.16825,9.16825c-5.06213,0 -9.16825,-4.10612 -9.16825,-9.16825v-3.98074z" fill="#00b3e3"/><path d="M306.56778,159.53991c0,1.64559 -1.34781,2.9934 -2.99339,2.9934h-127.14878c-1.64558,0 -2.9934,-1.34781 -2.9934,-2.9934v-7.02116c0,-1.64559 1.34781,-2.9934 2.9934,-2.9934h127.16445c1.64558,0 2.99339,1.34781 2.99339,2.9934z" fill="#333e48"/><path d="M245.90059,182.9072h40.38733v53.14453h-40.38733z" fill="#ffffff"/><path d="M253.01578,190.53957h26.14127v18.77533h-26.14127z" fill="#00b3e3"/><path d="M259.89589,196.49502h12.39673v4.48226h-12.39673z" fill="#ffffff"/><path d="M255.25691,218.09134M255.25691,215.86589c1.22909,0 2.22546,0.99637 2.22546,2.22546c0,1.22909 -0.99637,2.22546 -2.22546,2.22546c-1.22909,0 -2.22546,-0.99637 -2.22546,-2.22546c0,-1.22909 0.99637,-2.22546 2.22546,-2.22546z" fill="#333e48"/><path d="M310,236.91369c0,0.65823 -0.54853,1.20677 -1.20676,1.20677h-137.58648c-0.65823,0 -1.20676,-0.54853 -1.20676,-1.20677v-4.32553c0,-0.65823 0.54853,-1.20677 1.20676,-1.20677h137.58648c0.65823,0 1.20676,0.54853 1.20676,1.20677z" fill="#333e48"/><path d="M240.22725,231.38139h51.71834v6.72339h-51.71834z" fill="#a4a9ad"/><path d="M188.41487,182.9072h47.67491v32.94302h-47.67491z" fill="#333e48"/><path d="M221.23251,200.42875h-17.97605l2.74264,-9.49738h12.49077z" fill="#00b3e3"/><path d="M210.0112,182.9072h4.48226v8.00851h-4.48226z" fill="#ffffff"/><path d="M195.04422,215.85022v-6.53532c0,-1.2381 1.00302,-2.24113 2.24113,-2.24113c1.23811,0 2.24113,1.00302 2.24113,2.24113v6.53532zM224.9625,215.85022v-6.53532c0,-1.2381 1.00302,-2.24113 2.24112,-2.24113c1.23811,0 2.24113,1.00302 2.24113,2.24113v6.53532z" fill="#00b3e3"/></g></g></svg>