<?xml version="1.0" encoding="UTF-8" standalone="no"?>
<!-- Uploaded to: SVG Repo, www.svgrepo.com, Generator: SVG Repo Mixer Tools -->

<svg
   width="140"
   height="116.24091"
   viewBox="0 0 179.2 148.78836"
   class="icon"
   version="1.1"
   id="svg48"
   sodipodi:docname="cafe-svgrepo-com.svg"
   inkscape:version="1.2.2 (732a01da63, 2022-12-09)"
   xmlns:inkscape="http://www.inkscape.org/namespaces/inkscape"
   xmlns:sodipodi="http://sodipodi.sourceforge.net/DTD/sodipodi-0.dtd"
   xmlns="http://www.w3.org/2000/svg"
   xmlns:svg="http://www.w3.org/2000/svg">
  <defs
     id="defs52" />
  <sodipodi:namedview
     id="namedview50"
     pagecolor="#ffffff"
     bordercolor="#000000"
     borderopacity="0.25"
     inkscape:showpageshadow="2"
     inkscape:pageopacity="0.0"
     inkscape:pagecheckerboard="0"
     inkscape:deskcolor="#d1d1d1"
     showgrid="false"
     inkscape:zoom="1.04625"
     inkscape:cx="346.95341"
     inkscape:cy="288.64994"
     inkscape:window-width="1920"
     inkscape:window-height="1017"
     inkscape:window-x="1912"
     inkscape:window-y="-8"
     inkscape:window-maximized="1"
     inkscape:current-layer="svg48" />
  <path
     d="m 127.70482,28.24511 h -14.78455 v -5.73729 h 14.78455 c 2.52762,0 4.59385,-2.06622 4.59385,-4.59384 0,-2.52761 -2.06623,-4.59384 -4.59385,-4.59384 h -4.47348 V 7.58285 h 4.47348 c 5.69717,0 10.33114,4.63396 10.33114,10.33113 0,5.69717 -4.63397,10.33113 -10.33114,10.33113 z"
     fill="#d68231"
     id="path2"
     style="stroke-width:0.200604" />
  <path
     d="m 120.38276,0 c 5.49656,0 6.27892,4.35312 5.91783,6.4394 C 123.2514,23.95218 107.9854,37.25226 89.61003,37.25226 71.23466,37.25226 55.96866,23.95218 52.91947,6.4394 52.55838,4.35312 53.34074,0 58.8373,0 Z M 10.993127,43.06979 H 168.18681 V 146.14038 H 10.993127 Z"
     fill="#ffb819"
     id="path4"
     style="stroke-width:0.200604" />
  <path
     d="m 10.993127,88.52677 h 16.569931 v 7.96399 H 10.993127 Z M 37.17201,65.2767 h 16.56994 v 7.964 H 37.17201 Z M 88.2058,62.76915 h 16.56993 v 7.964 H 88.2058 Z"
     fill=""
     id="path6"
     style="stroke-width:0.200604" />
  <path
     d="m 151.63694,74.14342 h 16.56993 v 7.964 h -16.56993 z m -2.72822,48.96756 h 16.56993 v 7.964 h -16.56993 z"
     fill=""
     id="path8"
     style="stroke-width:0.200604" />
  <path
     d="m 84.6551,108.06564 h 16.56993 v 7.964 H 84.6551 Z M 17.853801,129.81117 H 34.42373 v 7.964 H 17.853801 Z"
     fill=""
     id="path10"
     style="stroke-width:0.200604" />
  <path
     d="m 7.402306,47.08188 v 5.09535 c 0,6.47953 5.255838,11.73536 11.735363,11.73536 6.479526,0 11.735364,-5.25583 11.735364,-11.73536 v -5.09535 z"
     fill="#00b3e3"
     id="path12"
     style="stroke-width:0.200604" />
  <path
     d="m 30.893093,47.08188 v 5.09535 c 0,6.47953 5.255837,11.73536 11.735367,11.73536 6.47952,0 11.73536,-5.25583 11.73536,-11.73536 v -5.09535 z"
     fill="#ffffff"
     id="path14"
     style="stroke-width:0.200604" />
  <path
     d="m 54.38388,47.08188 v 5.09535 c 0,6.47953 5.25584,11.73536 11.73536,11.73536 6.47953,0 11.73537,-5.25583 11.73537,-11.73536 v -5.09535 z"
     fill="#00b3e3"
     id="path16"
     style="stroke-width:0.200604" />
  <path
     d="m 77.85461,47.08188 v 5.09535 c 0,6.47953 5.25583,11.73536 11.73536,11.73536 6.47953,0 11.73536,-5.25583 11.73536,-11.73536 v -5.09535 z"
     fill="#ffffff"
     id="path18"
     style="stroke-width:0.200604" />
  <path
     d="m 101.34539,47.08188 v 5.09535 c 0,6.47953 5.25584,11.73536 11.73537,11.73536 6.47952,0 11.73536,-5.25583 11.73536,-11.73536 v -5.09535 z"
     fill="#00b3e3"
     id="path20"
     style="stroke-width:0.200604" />
  <path
     d="m 124.83618,47.08188 v 5.09535 c 0,6.47953 5.25584,11.73536 11.73536,11.73536 6.47953,0 11.73537,-5.25583 11.73537,-11.73536 v -5.09535 z"
     fill="#ffffff"
     id="path22"
     style="stroke-width:0.200604" />
  <path
     d="m 148.30691,47.08188 v 5.09535 c 0,6.47953 5.25583,11.73536 11.73536,11.73536 6.47953,0 11.73536,-5.25583 11.73536,-11.73536 v -5.09535 z"
     fill="#00b3e3"
     id="path24"
     style="stroke-width:0.200604" />
  <path
     d="m 174.80676,48.20526 c 0,2.10635 -1.7252,3.83155 -3.83154,3.83155 H 8.224785 c -2.106348,0 -3.831546,-1.7252 -3.831546,-3.83155 v -8.98708 c 0,-2.10635 1.725198,-3.83155 3.831546,-3.83155 H 170.99528 c 2.10634,0 3.83154,1.7252 3.83154,3.83155 z"
     fill="#333e48"
     id="path26"
     style="stroke-width:0.200604" />
  <path
     d="m 97.15276,78.11539 h 51.69578 v 68.02499 H 97.15276 Z"
     fill="#ffffff"
     id="path28"
     style="stroke-width:0.200604" />
  <path
     d="m 106.2602,87.88483 h 33.46083 v 24.03242 H 106.2602 Z"
     fill="#00b3e3"
     id="path30"
     style="stroke-width:0.200604" />
  <path
     d="m 115.06674,95.5078 h 15.86782 v 5.73729 h -15.86782 z"
     fill="#ffffff"
     id="path32"
     style="stroke-width:0.200604" />
  <path
     d="m 109.12885,123.1511 m -2.84859,0 a 2.848585,2.848585 0 1 0 5.69717,0 2.848585,2.848585 0 1 0 -5.69717,0 z"
     fill="#333e48"
     id="path34"
     style="stroke-width:0.200604" />
  <path
     d="m 179.2,147.2437 c 0,0.84254 -0.70212,1.54466 -1.54465,1.54466 H 1.544655 C 0.702116,148.78836 0,148.08624 0,147.2437 v -5.53668 c 0,-0.84254 0.702116,-1.54466 1.544655,-1.54466 H 177.65535 c 0.84253,0 1.54465,0.70212 1.54465,1.54466 z"
     fill="#333e48"
     id="path36"
     style="stroke-width:0.200604" />
  <path
     d="m 89.89088,140.16236 h 66.19948 v 8.60594 H 89.89088 Z"
     fill="#a4a9ad"
     id="path38"
     style="stroke-width:0.200604" />
  <path
     d="M 23.571029,78.11539 H 84.59492 v 42.16707 H 23.571029 Z"
     fill="#333e48"
     id="path40"
     style="stroke-width:0.200604" />
  <path
     d="M 62.06703,88.38634 H 46.07885 l -3.51058,12.15664 h 23.00934 z"
     fill="#00b3e3"
     id="path42"
     style="stroke-width:0.200604" />
  <path
     d="m 51.21433,78.11539 h 5.73729 v 10.25089 h -5.73729 z"
     fill="#ffffff"
     id="path44"
     style="stroke-width:0.200604" />
  <path
     d="m 32.056599,120.28246 v -8.36521 c 0,-1.58477 1.283871,-2.86864 2.868641,-2.86864 1.58478,0 2.86865,1.28387 2.86865,2.86864 v 8.36521 z m 38.295401,0 v -8.36521 c 0,-1.58477 1.28387,-2.86864 2.86864,-2.86864 1.58478,0 2.86865,1.28387 2.86865,2.86864 v 8.36521 z"
     fill="#00b3e3"
     id="path46"
     style="stroke-width:0.200604" />
</svg>
