<svg width="140" height="116.241" viewBox="0 0 179.2 148.788" class="prefix__icon" xmlns="http://www.w3.org/2000/svg"><path d="M127.705 28.245H112.92v-5.737h14.785a4.606 4.606 0 004.594-4.594 4.606 4.606 0 00-4.594-4.594h-4.474V7.583h4.474c5.697 0 10.331 4.634 10.331 10.331 0 5.697-4.634 10.331-10.331 10.331z" fill="#d68231"/><path d="M120.383 0c5.496 0 6.279 4.353 5.918 6.44-3.05 17.512-18.316 30.812-36.691 30.812-18.375 0-33.641-13.3-36.69-30.813C52.557 4.353 53.34 0 58.836 0zM10.993 43.07h157.194v103.07H10.993z" fill="#ffb819"/><path d="M10.993 88.527h16.57v7.964h-16.57zm26.179-23.25h16.57v7.964h-16.57zm51.034-2.508h16.57v7.964h-16.57zM151.637 74.143h16.57v7.964h-16.57zm-2.728 48.968h16.57v7.964h-16.57zM84.655 108.066h16.57v7.964h-16.57zM17.854 129.81h16.57v7.964h-16.57z"/><path d="M7.402 47.082v5.095c0 6.48 5.256 11.736 11.736 11.736s11.735-5.256 11.735-11.736v-5.095z" fill="#00b3e3"/><path d="M30.893 47.082v5.095c0 6.48 5.256 11.736 11.735 11.736 6.48 0 11.736-5.256 11.736-11.736v-5.095z" fill="#fff"/><path d="M54.384 47.082v5.095c0 6.48 5.256 11.736 11.735 11.736 6.48 0 11.736-5.256 11.736-11.736v-5.095z" fill="#00b3e3"/><path d="M77.855 47.082v5.095c0 6.48 5.255 11.736 11.735 11.736 6.48 0 11.735-5.256 11.735-11.736v-5.095z" fill="#fff"/><path d="M101.345 47.082v5.095c0 6.48 5.256 11.736 11.736 11.736s11.735-5.256 11.735-11.736v-5.095z" fill="#00b3e3"/><path d="M124.836 47.082v5.095c0 6.48 5.256 11.736 11.736 11.736s11.735-5.256 11.735-11.736v-5.095z" fill="#fff"/><path d="M148.307 47.082v5.095c0 6.48 5.256 11.736 11.735 11.736 6.48 0 11.736-5.256 11.736-11.736v-5.095z" fill="#00b3e3"/><path d="M174.807 48.205a3.844 3.844 0 01-3.832 3.832H8.225a3.844 3.844 0 01-3.832-3.832v-8.987a3.844 3.844 0 013.832-3.831h162.77a3.844 3.844 0 013.832 3.831z" fill="#333e48"/><path d="M97.153 78.115h51.696v68.025H97.153z" fill="#fff"/><path d="M106.26 87.885h33.461v24.032h-33.46z" fill="#00b3e3"/><path d="M115.067 95.508h15.868v5.737h-15.868z" fill="#fff"/><path d="M106.28 123.151a2.849 2.849 0 105.697 0 2.849 2.849 0 10-5.697 0zM179.2 147.244c0 .842-.702 1.544-1.545 1.544H1.545A1.558 1.558 0 010 147.244v-5.537c0-.843.702-1.545 1.545-1.545h176.11c.843 0 1.545.702 1.545 1.545z" fill="#333e48"/><path d="M89.89 140.162h66.2v8.606h-66.2z" fill="#a4a9ad"/><path d="M23.571 78.115h61.024v42.167H23.57z" fill="#333e48"/><path d="M62.067 88.386H46.079l-3.51 12.157h23.009z" fill="#00b3e3"/><path d="M51.214 78.115h5.738v10.251h-5.738z" fill="#fff"/><path d="M32.057 120.282v-8.365a2.868 2.868 0 115.737 0v8.365zm38.295 0v-8.365a2.868 2.868 0 115.737 0v8.365z" fill="#00b3e3"/></svg>