<svg version="1.1" xmlns="http://www.w3.org/2000/svg" xmlns:xlink="http://www.w3.org/1999/xlink" width="109.47037" height="140.22726" viewBox="0,0,109.47037,140.22726"><defs><linearGradient x1="242.69797" y1="240.34028" x2="242.22888" y2="227.62846" gradientUnits="userSpaceOnUse" id="color-1"><stop offset="0" stop-color="#786721"/><stop offset="1" stop-color="#786721" stop-opacity="0"/></linearGradient><linearGradient x1="230.54333" y1="248.99424" x2="231.06754" y2="243.72814" gradientUnits="userSpaceOnUse" id="color-2"><stop offset="0" stop-color="#786721"/><stop offset="1" stop-color="#786721" stop-opacity="0"/></linearGradient><linearGradient x1="184.94527" y1="219.03567" x2="230.56629" y2="195.59446" gradientUnits="userSpaceOnUse" id="color-3"><stop offset="0" stop-color="#ffdd55"/><stop offset="1" stop-color="#ffdd55" stop-opacity="0"/></linearGradient><linearGradient x1="270.73062" y1="113.69112" x2="240.72547" y2="176.89388" gradientUnits="userSpaceOnUse" id="color-4"><stop offset="0" stop-color="#ffdd55"/><stop offset="1" stop-color="#ffdd55" stop-opacity="0"/></linearGradient><linearGradient x1="265.45962" y1="116.07319" x2="253.27656" y2="117.0107" gradientUnits="userSpaceOnUse" id="color-5"><stop offset="0" stop-color="#24221c"/><stop offset="1" stop-color="#24221c" stop-opacity="0"/></linearGradient><linearGradient x1="223.09239" y1="113.70271" x2="248.88402" y2="123.37457" gradientUnits="userSpaceOnUse" id="color-6"><stop offset="0" stop-color="#24221c"/><stop offset="1" stop-color="#24221c" stop-opacity="0"/></linearGradient></defs><g transform="translate(-185.31426,-110)"><g data-paper-data="{&quot;isPaintingLayer&quot;:true}" stroke-linecap="butt" stroke-linejoin="miter" stroke-miterlimit="10" stroke-dasharray="" stroke-dashoffset="0" style="mix-blend-mode: normal"><path d="M210.14353,159.20456c0.4359,0.50755 0.6862,1.15184 1.0923,1.68392c0.358,0.68291 0.7459,1.3161 0.9349,2.07195c0.3663,0.84204 0.5007,1.75038 0.5867,2.65706c0.2039,0.77408 0.338,1.56308 0.431,2.35705l-6.186,-3.05156c-0.116,-0.79563 -0.2951,-1.57634 -0.4326,-2.36866c-0.1194,-0.88016 -0.3365,-1.72883 -0.678,-2.55098c-0.2685,-0.66634 -0.6431,-1.28991 -1.0144,-1.90354c-0.3564,-0.63385 -0.8271,-1.20289 -1.094,-1.88233z" data-paper-data="{&quot;index&quot;:null}" fill-opacity="0" fill="#000000" fill-rule="nonzero" stroke="none" stroke-width="0.16576"/><path d="M205.41425,215.90257l-1.01063,1.53066l-0.82028,-1.64056l-0.82028,-1.64056l1.8309,0.1099l1.83091,0.1099z" data-paper-data="{&quot;index&quot;:null}" fill-opacity="0" fill="#000000" fill-rule="nonzero" stroke="none" stroke-width="1"/><path d="M294.54313,227.4163c-45.2017,43.8839 -105.2965,4.26822 -97.007,1.75536z" data-paper-data="{&quot;index&quot;:null}" fill="#ffffff" fill-rule="evenodd" stroke="#000000" stroke-width="0.16576"/><path d="M264.20983,110.03951c6.0169,118.54703 6.0169,118.54703 6.0169,118.54703" data-paper-data="{&quot;index&quot;:null}" fill="none" fill-rule="nonzero" stroke="#000000" stroke-width="1.55894"/><path d="M205.47773,176.48482c-2.09245,0 -3.78871,-8.26928 -3.78871,-18.46995c0,-10.20067 1.69626,-18.46995 3.78871,-18.46995c2.09245,0 3.78871,8.26928 3.78871,18.46995c0,10.20067 -1.69626,18.46995 -3.78871,18.46995z" data-paper-data="{&quot;index&quot;:null}" fill-opacity="0" fill="#000000" fill-rule="nonzero" stroke="none" stroke-width="1"/><path d="M232.47223,138.59773c-2.09245,0 -3.78871,-0.53008 -3.78871,-1.18397c0,-0.65389 1.69626,-1.18397 3.78871,-1.18397c2.09245,0 3.78871,0.53008 3.78871,1.18397c0,0.65389 -1.69626,1.18397 -3.78871,1.18397z" data-paper-data="{&quot;index&quot;:null}" fill-opacity="0" fill="#000000" fill-rule="nonzero" stroke="none" stroke-width="1"/><path d="M195.29563,214.84549c-0.13078,0 -0.23679,-2.22634 -0.23679,-4.97268c0,-2.74634 0.10602,-4.97268 0.23679,-4.97268c0.13078,0 0.23679,2.22634 0.23679,4.97268c0,2.74634 -0.10602,4.97268 -0.23679,4.97268z" data-paper-data="{&quot;index&quot;:null}" fill-opacity="0" fill="#000000" fill-rule="nonzero" stroke="none" stroke-width="1"/><path d="M193.64248,219.10861c0,0 0,-1.05915 0,-2.36567v-35.52416c0,-1.30652 0,-2.36567 0,-2.36567h44.99115c0,0 0,1.05915 0,2.36567v35.52416c0,1.30652 0,2.36567 0,2.36567z" data-paper-data="{&quot;index&quot;:null}" fill-opacity="0" fill="#000000" fill-rule="nonzero" stroke="none" stroke-width="0.16576"/><path d="M294.57633,227.71135c-45.2183,43.8839 -105.3032,4.26822 -97.0137,1.75536z" data-paper-data="{&quot;index&quot;:null}" fill="url(#color-1)" fill-rule="evenodd" stroke="#000000" stroke-width="0.16576"/><path d="M255.64023,224.73271c2.1216,-0.57849 4.3096,0.98128 6.0998,1.8747c2.0554,1.02934 2.6521,1.2498 5.155,1.8747c0.3315,0.08454 0.6133,0.31328 0.9282,0.46909" data-paper-data="{&quot;index&quot;:null}" fill="none" fill-rule="nonzero" stroke="#000000" stroke-width="0.49727"/><g data-paper-data="{&quot;index&quot;:null}" fill-rule="evenodd" stroke="#000000" stroke-width="0.54509"><path d="M283.65956,243.851c-45.2431,13.02511 -105.37606,1.26803 -97.08163,0.52047z" fill="#ffffff"/><path d="M283.44408,243.75486c-45.24476,13.02179 -105.37937,1.26638 -97.08328,0.52047z" fill="url(#color-2)"/></g><path d="M197.22943,245.02953c0.9614,-0.96139 1.6957,-2.16477 2.8129,-3.28197c1.2084,-1.20836 1.8498,-2.31893 3.282,-3.75106c1.2183,-1.21831 2.8758,-2.40678 4.2201,-3.75106c1.1918,-1.19179 2.9372,-2.87587 4.6876,-3.75106c1.2432,-0.62158 4.9644,-1.84652 5.6324,-2.34379" data-paper-data="{&quot;index&quot;:null}" fill="none" fill-rule="nonzero" stroke="#000000" stroke-width="1.16029"/><path d="M250.78353,245.12733c0.8951,-0.97299 1.5913,-2.18964 2.6355,-3.32009c1.1272,-1.22162 1.7239,-2.34545 3.0665,-3.79416c1.1437,-1.23157 2.7019,-2.4333 3.9616,-3.79415c1.1106,-1.2067 2.7515,-2.90902 4.3925,-3.79415c1.1603,-0.62822 4.6578,-1.86807 5.2711,-2.37031" data-paper-data="{&quot;index&quot;:null}" fill="none" fill-rule="nonzero" stroke="#000000" stroke-width="1.12978"/><path d="M266.23203,124.40392c-66.619,105.17716 -66.619,105.17716 -66.619,105.17716" data-paper-data="{&quot;index&quot;:null}" fill="none" fill-rule="nonzero" stroke="#000000" stroke-width="1.75005"/><path d="M255.54073,225.21672c-116.9806,0.47406 9.0006,-96.61254 9.0006,-96.61254z" data-paper-data="{&quot;index&quot;:null}" fill="#ffffff" fill-rule="evenodd" stroke="#000000" stroke-width="0.16576"/><path d="M263.36443,110.70585l-0.3812,11.28135c-4.7075,0.20222 -8.4536,4.41077 -14.9678,-2.91565c-0.8785,-1.21665 -3.1328,-2.08189 -6.2822,-2.72337c-4.2599,-0.86856 -10.1442,-1.32936 -16.3932,-1.69402c7.1938,-1.94101 14.2053,-4.69256 22.3439,-2.32225c9.2823,4.37099 10.8073,-0.65639 15.6805,-1.62606z" data-paper-data="{&quot;index&quot;:null}" fill="#ffffff" fill-rule="evenodd" stroke="#000000" stroke-width="0.11465"/><path d="M255.64023,225.37916c-116.984,0.47406 8.9839,-96.61254 8.9839,-96.61254z" data-paper-data="{&quot;index&quot;:null}" fill="url(#color-3)" fill-rule="evenodd" stroke="#000000" stroke-width="0.16576"/><path d="M255.57393,225.19849c-116.9691,0.47406 9.0005,-96.61254 9.0005,-96.61254z" data-paper-data="{&quot;index&quot;:null}" fill="url(#color-4)" fill-rule="evenodd" stroke="#000000" stroke-width="0.16576"/><path d="M263.38103,110.67601l-0.3813,11.28301c-4.7074,0.20057 -8.4535,4.41077 -14.9677,-2.9173c-0.8785,-1.21499 -3.1328,-2.08024 -6.2822,-2.72172c-4.2599,-0.87021 -10.1442,-1.32936 -16.4098,-1.69402c7.2104,-1.941 14.2218,-4.69255 22.3605,-2.32224c9.2823,4.37098 10.8073,-0.6564 15.6805,-1.62773z" data-paper-data="{&quot;index&quot;:null}" fill="url(#color-5)" fill-rule="evenodd" stroke="#000000" stroke-width="0.11465"/><path d="M263.21523,110.65115l-0.3812,11.28135c-4.7075,0.20222 -8.4536,4.41077 -14.9678,-2.91565c-0.8785,-1.21499 -3.1328,-2.08023 -6.2821,-2.72337c-4.26,-0.86856 -10.1443,-1.32936 -16.4099,-1.69402c7.2104,-1.94101 14.2219,-4.69256 22.3605,-2.32224c9.2823,4.37098 10.8073,-0.6564 15.6805,-1.62607z" data-paper-data="{&quot;index&quot;:null}" fill="url(#color-6)" fill-rule="evenodd" stroke="#000000" stroke-width="0.11465"/></g></g></svg>