<svg xmlns="http://www.w3.org/2000/svg" width="90.117" height="142.645" viewBox="0 0 7.209 11.412" xmlns:v="https://vecta.io/nano"><path d="M3.47 8.68a6.775 6.775 0 0 1-2.391-2.236C.102 4.914-.053 4.288.013 3.48s.27-1.699.936-2.454S3.127.037 3.888.002 5.915.379 6.57 1.175s.809 2.02.451 3.308-.862 2.473-1.414 3.195-.802.768-.944.828-.647.168-.647.168l.019.479a1.787 1.787 0 0 1 .453.27c.127.136.485.533.431.668a.285.285 0 0 1-.364.153.47.47 0 0 1-.216-.315 1.281 1.281 0 0 0-.088-.379.164.164 0 0 0-.127-.054 4.342 4.342 0 0 1-.035.862c-.06.19-.108.177-.108.177v.356s.513-.032.546.121.063.339-.06.358-.686.095-.694-.019.028-.742 0-.748-.183-.047-.183-.013a5.789 5.789 0 0 1 0 .774c-.034.026-.828.067-.862 0s0-.459.19-.492a1.145 1.145 0 0 1 .485.08l-.034-.397a1.544 1.544 0 0 1-.073-.546 3.409 3.409 0 0 1 .054-.5.931.931 0 0 0-.332.17c-.093.099-.099.153-.073.216s.054.127 0 .162a.216.216 0 0 1-.27.045c-.162-.067-.203-.201-.08-.41a1.158 1.158 0 0 1 .517-.444.837.837 0 0 1 .336-.101z" fill="#1d1d1b"/><path d="M3.726 8.782c.047 0 .149 0 .155.317s.032 1.233-.054 1.259-.27.054-.31-.019.054-1.557.209-1.557zm.128-.505a.806.806 0 0 1-.571-.108c-.257-.162-1.173-1.078-1.915-2.001a4.289 4.289 0 0 1-.903-2.784c.027-.767.512-2 1.28-2.444A4.625 4.625 0 0 1 4.643.468 2.684 2.684 0 0 1 6.71 2.307c.282.897-.203 2.574-.431 3.18a10.731 10.731 0 0 1-.735 1.401s-.136-.216-.17-.216-.14.047-.114.075.216.248.19.295-.203.302-.203.302-.153-.239-.172-.231-.132.03-.097.091.203.248.175.295a.699.699 0 0 1-.147.168c-.041.028-.263-.272-.285-.272s-.086 0-.101.047.237.354.216.395a1.24 1.24 0 0 1-.248.216l-.054.022a5.39 5.39 0 0 0-.334-.481c-.028 0-.149.041-.129.088s.321.431.289.459a1.445 1.445 0 0 1-.27.108s-.213-.392-.254-.392-.142.041-.136.073a6.47 6.47 0 0 0 .155.345z" fill="#e6e4da"/><path d="M1.387 2.126a1.18 1.18 0 0 1 .257-.52c.237-.31.459-.377.498-.364s.088.175.075.196-.358.181-.431.364-.101.356-.162.39c-.085.03-.18.003-.237-.067zm3.079 4.567c-.171.101-.364.157-.563.162-.388.032-.586-.086-.604-.125s.071-.183.095-.185.375.142.561.075.332-.166.397-.142c.079.041.124.127.114.216zM1.907 3.144c.306-.037 1.078.254 1.49 1.097s-.028 1.294-.472 1.281-.882-.129-1.389-.748-.479-1.138-.33-1.294a1.05 1.05 0 0 1 .701-.336zm3.37 0c.336-.17 1.078-.054.996.727-.064.655-.525 1.202-1.16 1.376-.526.14-.998.108-1.046-.412s.157-1.166 1.21-1.69z" fill="#1d1d1b"/></svg>