<svg version="1.0" width="100" height="100.755" xmlns:xlink="http://www.w3.org/1999/xlink" xmlns="http://www.w3.org/2000/svg"><defs><linearGradient id="prefix__a" y2="47.547" gradientUnits="userSpaceOnUse" y1="18.495" x2="127.2" x1="127.2"><stop stop-color="#fff" offset="0"/><stop stop-color="#fff" stop-opacity="0" offset="1"/></linearGradient></defs><g fill-rule="evenodd"><path fill="#73d216" d="M99.999 50.377a50 50 0 11-99.998 0 50 50 0 1199.998 0z"/><g fill="#4e9a06"><path xlink:href="#prefix__path22091" d="M42.703 29.678c-9.397 3.296-16.238 12.723-16.238 23.91 0 13.943 10.546 25.236 23.536 25.236 12.991 0 23.537-11.293 23.537-25.235 0-11.201-6.866-20.615-16.276-23.911v9.016c5.014 2.833 8.52 8.394 8.52 14.895 0 9.334-7.075 16.92-15.78 16.92-8.706 0-15.782-7.586-15.782-16.92 0-6.488 3.47-12.062 8.483-14.895z"/><path xlink:href="#prefix__path22093" d="M46.025 24.263V54.21h7.953V24.263z"/></g><g fill="#eeeeec"><path xlink:href="#prefix__path22091" d="M42.703 29.316c-9.397 3.074-16.238 11.866-16.238 22.301 0 13.003 10.546 23.536 23.536 23.536 12.991 0 23.537-10.533 23.537-23.536 0-10.447-6.866-19.227-16.276-22.301v8.409c5.014 2.642 8.52 7.829 8.52 13.892 0 8.706-7.075 15.781-15.78 15.781-8.706 0-15.782-7.075-15.782-15.781 0-6.05 3.47-11.25 8.483-13.892z"/><path xlink:href="#prefix__path22093" d="M46.025 24.265v27.932h7.953V24.265z"/></g><path opacity=".75" transform="matrix(1.59007 0 0 1.6687 -152.245 -25.798)" fill="url(#prefix__a)" d="M149.63 34.779a22.43 16.285 0 11-44.86 0 22.43 16.285 0 1144.86 0z"/></g></svg>