<svg width="140" height="140" viewBox="0 0 11.2 11.2" version="1.1" id="prefix__svg699" xmlns="http://www.w3.org/2000/svg"><defs id="prefix__defs670"><style id="style668">.prefix__cls-1{fill:#5f443e}.prefix__cls-2{fill:#7f5b53}.prefix__cls-9{fill:#999}</style></defs><g data-name="Layer 22" id="prefix__Layer_22" transform="matrix(.18667 0 0 .18667 -.373 -.373)"><path class="prefix__cls-1" id="prefix__rect674" d="M2 58h60v4H2z"/><path class="prefix__cls-2" id="prefix__rect676" d="M2 58h57v4H2z"/><path class="prefix__cls-1" id="prefix__rect678" d="M28 44h8v14h-8z"/><path class="prefix__cls-2" id="prefix__rect680" d="M28 44h5v14h-5z"/><path d="M49.9 58a5 5 0 00-4.9-4 4.93 4.93 0 00-1.09.13 5 5 0 00-9.82 0A4.93 4.93 0 0033 54a5.47 5.47 0 00-1 .1 5.47 5.47 0 00-1-.1 4.93 4.93 0 00-1.09.13 5 5 0 00-9.82 0A4.93 4.93 0 0019 54a5 5 0 00-4.9 4" id="prefix__path682" fill="#71c285"/><path id="prefix__rect684" fill="#98856e" d="M30 26h4v18h-4z"/><path id="prefix__rect686" fill="#cbb292" d="M30 26h2v18h-2z"/><rect height="24" rx="2" ry="2" width="22" x="21" y="2" id="prefix__rect688" fill="#4482c3"/><path id="prefix__rect690" fill="#ccc" d="M25 6h14v16H25z"/><path id="prefix__rect692" fill="#f2f2f2" d="M25 6h11v16H25z"/><path class="prefix__cls-9" d="M33 15h-4a1 1 0 01-1-1v-4a1 1 0 011-1h4a3 3 0 010 6zm-3-2h3a1 1 0 000-2h-3z" id="prefix__path694"/><path class="prefix__cls-9" id="prefix__rect696" d="M28 14h2v5h-2z"/></g></svg>