<svg version="1.1" xmlns="http://www.w3.org/2000/svg" xmlns:xlink="http://www.w3.org/1999/xlink" width="140" height="140" viewBox="0,0,140,140"><g transform="translate(-171.75,-104.4)"><g data-paper-data="{&quot;isPaintingLayer&quot;:true}" fill-rule="nonzero" stroke="none" stroke-width="0.175" stroke-linecap="butt" stroke-linejoin="miter" stroke-miterlimit="10" stroke-dasharray="" stroke-dashoffset="0" style="mix-blend-mode: normal"><path d="M311.75,152.525v83.125c0,4.83249 -3.91751,8.75 -8.75,8.75h-122.5c-4.83249,0 -8.75,-3.91751 -8.75,-8.75v-83.125z" fill="#eaeaea"/><path d="M233,187.525h17.5v56.875h-17.5zM259.25,187.525h17.5v56.875h-17.5zM206.75,187.525h17.5v56.875h-17.5zM180.5,187.525h17.5v56.875h-17.5zM285.5,187.525h17.5v56.875h-17.5z" fill="#434854"/><path d="M233,187.525h17.5v4.375h-17.5zM259.25,187.525h17.5v4.375h-17.5zM206.75,187.525h17.5v4.375h-17.5zM180.5,187.525h17.5v4.375h-17.5zM285.5,187.525h17.5v4.375h-17.5z" fill="#000000"/><path d="M171.75,152.525h140v4.375h-140z" fill="#000000"/><path d="M276.75,139.4h-70c0,-21.875 15.67125,-35 35,-35c19.32875,0 35,13.125 35,35z" fill="#ef4d4d"/><path d="M198,170.025v8.75h-17.5v-8.75c0,-4.83249 3.91751,-8.75 8.75,-8.75c4.83249,0 8.75,3.91751 8.75,8.75zM224.25,170.025v8.75h-17.5v-8.75c0,-4.83249 3.91751,-8.75 8.75,-8.75c4.83249,0 8.75,3.91751 8.75,8.75zM250.5,170.025v8.75h-17.5v-8.75c0,-4.83249 3.91751,-8.75 8.75,-8.75c4.83249,0 8.75,3.91751 8.75,8.75zM276.75,170.025v8.75h-17.5v-8.75c0,-4.83249 3.91751,-8.75 8.75,-8.75c4.83249,0 8.75,3.91751 8.75,8.75zM303,170.025v8.75h-17.5v-8.75c0,-4.83249 3.91751,-8.75 8.75,-8.75c4.83249,0 8.75,3.91751 8.75,8.75z" fill="#469fcc"/><path d="M171.75,152.525v-9.02125c0,-2.26644 1.83731,-4.10375 4.10375,-4.10375h131.7925c2.26644,0 4.10375,1.83731 4.10375,4.10375v9.02125z" fill="#ef4d4d"/><path d="M198,170.025v4.375c0,-4.83249 -3.91751,-8.75 -8.75,-8.75c-4.83249,0 -8.75,3.91751 -8.75,8.75v-4.375c0,-4.83249 3.91751,-8.75 8.75,-8.75c4.83249,0 8.75,3.91751 8.75,8.75zM224.25,170.025v4.375c0,-4.83249 -3.91751,-8.75 -8.75,-8.75c-4.83249,0 -8.75,3.91751 -8.75,8.75v-4.375c0,-4.83249 3.91751,-8.75 8.75,-8.75c4.83249,0 8.75,3.91751 8.75,8.75zM250.5,170.025v4.375c0,-4.83249 -3.91751,-8.75 -8.75,-8.75c-4.83249,0 -8.75,3.91751 -8.75,8.75v-4.375c0,-4.83249 3.91751,-8.75 8.75,-8.75c4.83249,0 8.75,3.91751 8.75,8.75zM276.75,170.025v4.375c0,-4.83249 -3.91751,-8.75 -8.75,-8.75c-4.83249,0 -8.75,3.91751 -8.75,8.75v-4.375c0,-4.83249 3.91751,-8.75 8.75,-8.75c4.83249,0 8.75,3.91751 8.75,8.75zM303,170.025v4.375c0,-4.83249 -3.91751,-8.75 -8.75,-8.75c-4.83249,0 -8.75,3.91751 -8.75,8.75v-4.375c0,-4.83249 3.91751,-8.75 8.75,-8.75c4.83249,0 8.75,3.91751 8.75,8.75z" fill="#000000"/><path d="M276.51813,135.025c0.14,1.4175 0.23188,2.87 0.23188,4.375h-70c0.00512,-1.46126 0.0825,-2.92138 0.23188,-4.375z" fill="#000000"/><path d="M174.17813,244.4c-1.505,-2.58562 -2.42812,-5.5475 -2.42812,-8.75c0,-9.66498 7.83502,-17.5 17.5,-17.5c9.66498,0 17.5,7.83502 17.5,17.5c-0.0166,3.08073 -0.85479,6.10126 -2.42812,8.75zM311.75,235.65c-0.01717,3.08007 -0.85371,6.10008 -2.42375,8.75h-49.27125c-0.49,-1.37375 -0.805,-2.83062 -0.805,-4.375c0,-7.24874 5.87626,-13.125 13.125,-13.125c2.08741,0.01407 4.14057,0.53186 5.985,1.50938c2.82627,-6.24013 9.03967,-10.25181 15.89,-10.25938c9.66498,0 17.5,7.83502 17.5,17.5z" fill="#3aad73"/><path d="M276.75,235.65c0.0166,3.08073 0.85479,6.10126 2.42813,8.75h-19.12313c-0.49,-1.37375 -0.805,-2.83062 -0.805,-4.375c0,-7.24874 5.87626,-13.125 13.125,-13.125c2.08741,0.01407 4.14057,0.53186 5.985,1.50938c-1.01063,2.21375 -1.61,4.65062 -1.61,7.24062z" fill="#000000"/></g></g></svg>