<svg width="140" height="140" viewBox="0 0 179.2 179.2" class="prefix__icon" xmlns="http://www.w3.org/2000/svg"><path d="M0 61.6V168a11.2 11.2 0 0011.2 11.2H168a11.2 11.2 0 0011.2-11.2V61.6z" fill="#eaeaea"/><path d="M78.4 106.4h22.4v72.8H78.4zm33.6 0h22.4v72.8H112zm-67.2 0h22.4v72.8H44.8zm-33.6 0h22.4v72.8H11.2zm134.4 0H168v72.8h-22.4z" fill="#434854"/><path d="M78.4 106.4h22.4v5.6H78.4zm33.6 0h22.4v5.6H112zm-67.2 0h22.4v5.6H44.8zm-33.6 0h22.4v5.6H11.2zm134.4 0H168v5.6h-22.4zM0 61.6h179.2v5.6H0z"/><path d="M89.6 0C64.86 0 44.8 16.8 44.8 44.8h89.6c0-28-20.06-44.8-44.8-44.8z" fill="#ef4d4d"/><path d="M22.4 72.8A11.2 11.2 0 0011.2 84v11.2h22.4V84a11.2 11.2 0 00-11.2-11.2zm33.6 0A11.2 11.2 0 0044.8 84v11.2h22.4V84A11.2 11.2 0 0056 72.8zm33.6 0A11.2 11.2 0 0078.4 84v11.2h22.4V84a11.2 11.2 0 00-11.2-11.2zm33.6 0A11.2 11.2 0 00112 84v11.2h22.4V84a11.2 11.2 0 00-11.2-11.2zm33.6 0A11.2 11.2 0 00145.6 84v11.2H168V84a11.2 11.2 0 00-11.2-11.2z" fill="#469fcc"/><path d="M179.2 61.6V50.053a5.253 5.253 0 00-5.253-5.253H5.253A5.253 5.253 0 000 50.053V61.6z" fill="#ef4d4d"/><path d="M22.4 72.8A11.2 11.2 0 0011.2 84v5.6a11.2 11.2 0 0122.4 0V84a11.2 11.2 0 00-11.2-11.2zm33.6 0A11.2 11.2 0 0044.8 84v5.6a11.2 11.2 0 0122.4 0V84A11.2 11.2 0 0056 72.8zm33.6 0A11.2 11.2 0 0078.4 84v5.6a11.2 11.2 0 0122.4 0V84a11.2 11.2 0 00-11.2-11.2zm33.6 0A11.2 11.2 0 00112 84v5.6a11.2 11.2 0 0122.4 0V84a11.2 11.2 0 00-11.2-11.2zm33.6 0A11.2 11.2 0 00145.6 84v5.6a11.2 11.2 0 0122.4 0V84a11.2 11.2 0 00-11.2-11.2zM45.097 39.2a56.728 56.728 0 00-.297 5.6h89.6c0-1.926-.118-3.786-.297-5.6z"/><path d="M41.692 179.2A22.165 22.165 0 0044.8 168 22.4 22.4 0 000 168c0 4.1 1.182 7.89 3.108 11.2zM156.8 145.6a22.355 22.355 0 00-20.34 13.132 16.598 16.598 0 00-7.66-1.932 16.8 16.8 0 00-16.8 16.8c0 1.977.403 3.842 1.03 5.6h63.068A22.215 22.215 0 00179.2 168a22.4 22.4 0 00-22.4-22.4z" fill="#3aad73"/><path d="M136.46 158.732a16.598 16.598 0 00-7.66-1.932 16.8 16.8 0 00-16.8 16.8c0 1.977.403 3.842 1.03 5.6h24.478A22.165 22.165 0 01134.4 168c0-3.315.767-6.434 2.06-9.268z"/></svg>