<svg width="140" height="115.877" viewBox="0 0 179.2 148.323" class="prefix__icon" xmlns="http://www.w3.org/2000/svg"><path d="M15.549 49.227H163.61v90.471H15.55z" fill="#ff5959"/><path d="M15.549 102.937h50.568v5.744H15.549zm97.514 0h50.568v5.744h-50.568z" fill="#f2d383"/><path d="M15.549 87.229h16.569v7.964h-16.57zm106.339 4.502h16.57v7.965h-16.57zm-12.747 32.618h16.57v7.965h-16.57zm26.275-75.122h16.569v7.965h-16.57zm11.646 63.176h16.57v7.964h-16.57zm-99.976-51.83h16.57v7.965h-16.57zM24.914 46.007h16.57v7.964h-16.57zm13.527 68.478h16.57v7.964H38.44z"/><path d="M179.2 146.782c0 .84-.7 1.54-1.54 1.54H1.54c-.84 0-1.54-.7-1.54-1.54v-5.523c0-.84.7-1.541 1.54-1.541h176.12c.84 0 1.54.7 1.54 1.54z" fill="#a4a9ad"/><path d="M66.117 90.23h46.946v49.468H66.117z" fill="#ffb819"/><path d="M86.728 90.23h5.744v49.468h-5.744z"/><path d="M163.631 49.988V36.88c0-3.162-2.581-5.744-5.743-5.744H21.292c-3.162 0-5.743 2.582-5.743 5.744v13.107z" fill="#333e48"/><path d="M57.292 35.18a32.298 32.298 0 1064.596 0 32.298 32.298 0 10-64.596 0z" fill="#fff"/><path d="M89.59 2.862c-17.85 0-32.318 14.468-32.318 32.318 0 1.32.08 2.601.24 3.882.04.08.06.14.08.2.28-2.101.78-4.122 1.46-6.063L89.59 63.736l30.537-30.537a33.517 33.517 0 011.46 6.063c0-.06.04-.12.08-.18.16-1.28.24-2.582.24-3.882-.02-17.87-14.467-32.338-32.317-32.338z"/><path d="M89.59 5.723c-16.23 0-29.436 13.208-29.436 29.437S73.36 64.596 89.59 64.596s29.436-13.207 29.436-29.436c0-16.23-13.207-29.437-29.436-29.437zm0 64.616c-19.39 0-35.18-15.789-35.18-35.18C54.41 15.77 70.2 0 89.59 0s35.18 15.789 35.18 35.18c0 19.39-15.79 35.16-35.18 35.16z" fill="#333e48"/><path d="M53.25 25.454l36.34 36.34 36.96-36.96c-20.47-19.771-53.109-19.571-73.3.62z" fill="#d68231"/><path d="M62.375 34.6L89.59 61.813l27.836-27.835c-15.43-14.768-39.883-14.568-55.051.62z" fill="#f2d383"/><path d="M82.346 54.57c4.282-4.282 4.282-11.206 0-15.468-4.282-4.283-11.206-4.283-15.469 0zm11.626-19.33c-4.282 4.282-4.282 11.206 0 15.468 1.201 1.201 2.622 2.061 4.123 2.602l13.948-13.948c-.52-1.5-1.381-2.922-2.602-4.122-4.262-4.263-11.206-4.263-15.469 0z" fill="#a93439"/><path d="M117.426 33.979c-15.41-14.768-39.883-14.568-55.051.6l3.442 3.442c12.827-12.827 33.598-12.827 46.426 0 .18.18.36.38.54.58z"/><path d="M152.765 70.54a3.835 3.835 0 00-3.822-3.823H125.71a3.835 3.835 0 00-3.822 3.822v11.267a3.835 3.835 0 003.822 3.822h23.233a3.835 3.835 0 003.822-3.822z" fill="#fff"/><path d="M148.943 66.717H125.71a3.835 3.835 0 00-3.822 3.822v5.483a3.835 3.835 0 013.822-3.822h23.233a3.835 3.835 0 013.822 3.822V70.54a3.835 3.835 0 00-3.822-3.822z"/><path d="M125.71 69.579c-.52 0-.96.44-.96.96v11.267c0 .52.44.96.96.96h23.233c.52 0 .96-.44.96-.96V70.539c0-.52-.44-.96-.96-.96zm23.233 18.93H125.71c-3.682 0-6.684-3.001-6.684-6.683V70.559c0-3.682 3.002-6.683 6.684-6.683h23.233c3.682 0 6.684 3.001 6.684 6.683v11.267c0 3.682-3.002 6.683-6.684 6.683z" fill="#333e48"/><path d="M26.415 70.54a3.835 3.835 0 013.822-3.823H53.47a3.835 3.835 0 013.822 3.822v11.267a3.835 3.835 0 01-3.822 3.822H30.237a3.835 3.835 0 01-3.822-3.822z" fill="#fff"/><path d="M30.237 66.717H53.47a3.835 3.835 0 013.822 3.822v5.483A3.835 3.835 0 0053.47 72.2H30.237a3.835 3.835 0 00-3.822 3.822V70.54a3.835 3.835 0 013.822-3.822z"/><path d="M30.237 69.579c-.52 0-.96.44-.96.96v11.267c0 .52.44.96.96.96H53.47c.52 0 .96-.44.96-.96V70.539c0-.52-.44-.96-.96-.96zm23.213 18.93H30.237c-3.682 0-6.684-3.001-6.684-6.683V70.559c0-3.682 3.002-6.683 6.684-6.683H53.47c3.682 0 6.684 3.001 6.684 6.683v11.267c0 3.682-3.002 6.683-6.704 6.683zm-10.206 51.189h92.692v8.625H43.244z" fill="#333e48"/><path d="M171.356 139.698c0-11.006-8.925-19.931-19.932-19.931-11.006 0-19.93 8.925-19.93 19.931zm-124.25 0c0-11.006-8.925-19.931-19.93-19.931-11.007 0-19.932 8.925-19.932 19.931z" fill="#00ad68"/><path d="M115.925 139.698h-5.744V93.092H68.978v46.606h-5.743V90.23c0-1.58 1.281-2.861 2.862-2.861h46.946c1.581 0 2.862 1.28 2.862 2.861z" fill="#333e48"/></svg>