<?xml version="1.0" encoding="UTF-8" standalone="no"?>
<!-- Uploaded to: SVG Repo, www.svgrepo.com, Generator: SVG Repo Mixer Tools -->

<svg
   width="140"
   height="115.87717"
   viewBox="0 0 179.2 148.32277"
   class="icon"
   version="1.1"
   id="svg1562"
   sodipodi:docname="pizza-shop-svgrepo-com.svg"
   inkscape:version="1.2.2 (732a01da63, 2022-12-09)"
   xmlns:inkscape="http://www.inkscape.org/namespaces/inkscape"
   xmlns:sodipodi="http://sodipodi.sourceforge.net/DTD/sodipodi-0.dtd"
   xmlns="http://www.w3.org/2000/svg"
   xmlns:svg="http://www.w3.org/2000/svg">
  <defs
     id="defs1566" />
  <sodipodi:namedview
     id="namedview1564"
     pagecolor="#ffffff"
     bordercolor="#000000"
     borderopacity="0.25"
     inkscape:showpageshadow="2"
     inkscape:pageopacity="0.0"
     inkscape:pagecheckerboard="0"
     inkscape:deskcolor="#d1d1d1"
     showgrid="false"
     inkscape:zoom="1.04625"
     inkscape:cx="348.86499"
     inkscape:cy="290.56153"
     inkscape:window-width="1920"
     inkscape:window-height="1017"
     inkscape:window-x="1912"
     inkscape:window-y="-8"
     inkscape:window-maximized="1"
     inkscape:current-layer="svg1562" />
  <path
     d="M 15.548677,49.22747 H 163.6113 v 90.47049 H 15.548677 Z"
     fill="#ff5959"
     id="path1518"
     style="stroke-width:0.200112" />
  <path
     d="M 15.548677,102.93744 H 66.1169 v 5.74321 H 15.548677 Z m 97.514413,0 h 50.56822 v 5.74321 h -50.56822 z"
     fill="#f2d383"
     id="path1520"
     style="stroke-width:0.200112" />
  <path
     d="m 15.548677,87.22868 h 16.569246 v 7.96444 H 15.548677 Z m 106.339343,4.50251 h 16.56924 v 7.96444 h -16.56924 z m -12.74712,32.6182 h 16.56925 v 7.96445 H 109.1409 Z m 26.27467,-75.12192 h 16.56924 v 7.96445 h -16.56924 z m 11.6465,63.17525 h 16.56924 v 7.96445 H 147.06207 Z M 47.08628,60.5738 h 16.56924 v 7.96445 H 47.08628 Z M 24.913903,46.00567 H 41.48315 v 7.96445 H 24.913903 Z M 38.44145,114.48389 H 55.0107 v 7.96444 H 38.44145 Z"
     fill=""
     id="path1522"
     style="stroke-width:0.200112" />
  <path
     d="m 179.2,146.78191 c 0,0.84047 -0.70039,1.54086 -1.54086,1.54086 H 1.54086 C 0.700391,148.32277 0,147.62238 0,146.78191 v -5.52308 c 0,-0.84047 0.700391,-1.54086 1.54086,-1.54086 h 176.11828 c 0.84047,0 1.54086,0.70039 1.54086,1.54086 z"
     fill="#a4a9ad"
     id="path1524"
     style="stroke-width:0.200112" />
  <path
     d="m 66.1169,90.23035 h 46.94619 v 49.46761 H 66.1169 Z"
     fill="#ffb819"
     id="path1526"
     style="stroke-width:0.200112" />
  <path
     d="m 86.7284,90.23035 h 5.7432 v 49.46761 h -5.7432 z"
     fill=""
     id="path1528"
     style="stroke-width:0.200112" />
  <path
     d="M 163.63131,49.9879 V 36.88058 c 0,-3.16176 -2.58144,-5.7432 -5.7432,-5.7432 H 21.291882 c -3.161765,0 -5.743205,2.58144 -5.743205,5.7432 V 49.9879 Z"
     fill="#333e48"
     id="path1530"
     style="stroke-width:0.200112" />
  <path
     d="m 89.58999,35.17963 m -32.29802,0 a 32.298025,32.298025 0 1 0 64.59605,0 32.298025,32.298025 0 1 0 -64.59605,0 z"
     fill="#ffffff"
     id="path1532"
     style="stroke-width:0.200112" />
  <path
     d="m 89.58999,2.8616 c -17.84996,0 -32.31803,14.46807 -32.31803,32.31803 0,1.32074 0.08,2.60145 0.24013,3.88217 0.04,0.08 0.06,0.14008 0.08,0.20011 0.28015,-2.10117 0.78043,-4.1223 1.46081,-6.06338 l 30.53704,30.53704 30.53705,-30.53704 c 0.66036,1.94108 1.16064,3.96221 1.46081,6.06338 0,-0.06 0.04,-0.12007 0.08,-0.1801 0.16008,-1.28072 0.24013,-2.58144 0.24013,-3.88217 C 121.88793,17.32967 107.43986,2.8616 89.58989,2.8616 Z"
     fill=""
     id="path1534"
     style="stroke-width:0.200112" />
  <path
     d="m 89.58999,5.72319 c -16.22905,0 -29.43642,13.20737 -29.43642,29.43643 0,16.22906 13.20737,29.43643 29.43642,29.43643 16.22906,0 29.43643,-13.20737 29.43643,-29.43643 0,-16.22906 -13.20737,-29.43643 -29.43643,-29.43643 z m 0,64.61606 C 70.19917,70.33925 54.41036,54.55044 54.41036,35.15962 54.41036,15.7688 70.19917,0 89.58999,0 c 19.39083,0 35.17964,15.78881 35.17964,35.17963 0,19.39082 -15.78881,35.15962 -35.17964,35.15962 z"
     fill="#333e48"
     id="path1536"
     style="stroke-width:0.200112" />
  <path
     d="M 53.24972,25.4542 89.58999,61.79448 126.55062,24.83386 C 106.0792,5.06283 73.44098,5.26294 53.24972,25.4542 Z"
     fill="#d68231"
     id="path1538"
     style="stroke-width:0.200112" />
  <path
     d="M 62.37481,34.59931 89.58999,61.81449 117.42553,33.97896 C 101.99692,19.21072 77.54327,19.41083 62.37481,34.59931 Z"
     fill="#f2d383"
     id="path1540"
     style="stroke-width:0.200112" />
  <path
     d="m 82.34595,54.57045 c 4.28239,-4.28239 4.28239,-11.20625 0,-15.46863 -4.28239,-4.28239 -11.20625,-4.28239 -15.46863,0 z M 93.97244,35.23966 c -4.28239,4.28239 -4.28239,11.20626 0,15.46864 1.20067,1.20067 2.62146,2.06115 4.1223,2.60145 l 13.94778,-13.94778 c -0.52029,-1.50084 -1.38077,-2.92163 -2.60145,-4.12231 -4.26238,-4.26237 -11.20625,-4.26237 -15.46863,0 z"
     fill="#a93439"
     id="path1542"
     style="stroke-width:0.200112" />
  <path
     d="M 117.42553,33.97896 C 102.01693,19.21072 77.54327,19.41083 62.37481,34.5793 l 3.44192,3.44192 c 12.82716,-12.82716 33.59875,-12.82716 46.42591,0 0.1801,0.1801 0.3602,0.38021 0.5403,0.58032 z"
     fill=""
     id="path1544"
     style="stroke-width:0.200112" />
  <path
     d="m 152.76525,70.53936 c 0,-2.10117 -1.72096,-3.82213 -3.82213,-3.82213 h -23.23297 c -2.10117,0 -3.82213,1.72096 -3.82213,3.82213 v 11.26629 c 0,2.10117 1.72096,3.82213 3.82213,3.82213 h 23.23297 c 2.10117,0 3.82213,-1.72096 3.82213,-3.82213 z"
     fill="#ffffff"
     id="path1546"
     style="stroke-width:0.200112" />
  <path
     d="m 148.94312,66.71723 h -23.23297 c -2.10117,0 -3.82213,1.72096 -3.82213,3.82213 v 5.48306 c 0,-2.10117 1.72096,-3.82213 3.82213,-3.82213 h 23.23297 c 2.10117,0 3.82213,1.72096 3.82213,3.82213 v -5.48306 c 0,-2.10117 -1.72096,-3.82213 -3.82213,-3.82213 z"
     fill=""
     id="path1548"
     style="stroke-width:0.200112" />
  <path
     d="m 125.71015,69.57883 c -0.52029,0 -0.96054,0.44024 -0.96054,0.96053 v 11.26629 c 0,0.52029 0.44025,0.96054 0.96054,0.96054 h 23.23297 c 0.52029,0 0.96053,-0.44025 0.96053,-0.96054 V 70.53936 c 0,-0.52029 -0.44024,-0.96053 -0.96053,-0.96053 z m 23.23297,18.93056 h -23.23297 c -3.68205,0 -6.68373,-3.00167 -6.68373,-6.68373 V 70.55937 c 0,-3.68205 3.00168,-6.68373 6.68373,-6.68373 h 23.23297 c 3.68205,0 6.68373,3.00168 6.68373,6.68373 v 11.26629 c 0,3.68206 -3.00168,6.68373 -6.68373,6.68373 z"
     fill="#333e48"
     id="path1550"
     style="stroke-width:0.200112" />
  <path
     d="m 26.41474,70.53936 c 0,-2.10117 1.720961,-3.82213 3.822133,-3.82213 H 53.46984 c 2.10117,0 3.82213,1.72096 3.82213,3.82213 v 11.26629 c 0,2.10117 -1.72096,3.82213 -3.82213,3.82213 H 30.236873 c -2.101172,0 -3.822133,-1.72096 -3.822133,-3.82213 z"
     fill="#ffffff"
     id="path1552"
     style="stroke-width:0.200112" />
  <path
     d="M 30.236873,66.71723 H 53.46984 c 2.10117,0 3.82213,1.72096 3.82213,3.82213 v 5.48306 c 0,-2.10117 -1.72096,-3.82213 -3.82213,-3.82213 H 30.236873 c -2.101172,0 -3.822133,1.72096 -3.822133,3.82213 v -5.48306 c 0,-2.10117 1.720961,-3.82213 3.822133,-3.82213 z"
     fill=""
     id="path1554"
     style="stroke-width:0.200112" />
  <path
     d="m 30.236873,69.57883 c -0.52029,0 -0.960536,0.44024 -0.960536,0.96053 v 11.26629 c 0,0.52029 0.440246,0.96054 0.960536,0.96054 H 53.46984 c 0.52029,0 0.96053,-0.44025 0.96053,-0.96054 V 70.53936 c 0,-0.52029 -0.44024,-0.96053 -0.96053,-0.96053 z M 53.44983,88.50939 H 30.236873 c -3.682054,0 -6.68373,-3.00167 -6.68373,-6.68373 V 70.55937 c 0,-3.68205 3.001676,-6.68373 6.68373,-6.68373 H 53.46984 c 3.68205,0 6.68373,3.00168 6.68373,6.68373 v 11.26629 c 0,3.68206 -3.00168,6.68373 -6.70374,6.68373 z m -10.2057,51.18857 h 92.69173 v 8.62481 H 43.24413 Z"
     fill="#333e48"
     id="path1556"
     style="stroke-width:0.200112" />
  <path
     d="m 171.35562,139.69796 c 0,-11.00615 -8.92498,-19.93113 -19.93112,-19.93113 -11.00614,0 -19.93112,8.92498 -19.93112,19.93113 z m -124.24933,0 c 0,-11.00615 -8.92498,-19.93113 -19.931125,-19.93113 -11.006142,0 -19.931123,8.92498 -19.931123,19.93113 z"
     fill="#00ad68"
     id="path1558"
     style="stroke-width:0.200112" />
  <path
     d="m 115.92469,139.69796 h -5.7432 V 93.09195 h -41.203 v 46.60601 h -5.7432 V 90.23035 c 0,-1.58088 1.28071,-2.8616 2.86159,-2.8616 h 46.9462 c 1.58088,0 2.8616,1.28072 2.8616,2.8616 z"
     fill="#333e48"
     id="path1560"
     style="stroke-width:0.200112" />
</svg>
