<svg version="1.1" xmlns="http://www.w3.org/2000/svg" xmlns:xlink="http://www.w3.org/1999/xlink" width="102.651" height="121.66253" viewBox="0,0,102.651,121.66253"><defs><radialGradient cx="265.9131" cy="126.14354" r="12.84815" gradientUnits="userSpaceOnUse" id="color-1"><stop offset="0" stop-color="#000000" stop-opacity="0"/><stop offset="1" stop-color="#000000" stop-opacity="0.57196"/></radialGradient><radialGradient cx="218.59971" cy="126.41175" r="43.23954" gradientUnits="userSpaceOnUse" id="color-2"><stop offset="0" stop-color="#000000" stop-opacity="0"/><stop offset="1" stop-color="#000000" stop-opacity="0.57196"/></radialGradient><radialGradient cx="239.99352" cy="229.36447" r="71.99941" gradientUnits="userSpaceOnUse" id="color-3"><stop offset="0" stop-color="#000000"/><stop offset="1" stop-color="#000000" stop-opacity="0"/></radialGradient><radialGradient cx="223.62396" cy="158.07579" r="73.38711" gradientUnits="userSpaceOnUse" id="color-4"><stop offset="0" stop-color="#000000" stop-opacity="0"/><stop offset="1" stop-color="#000000" stop-opacity="0.57196"/></radialGradient><radialGradient cx="235.30468" cy="173.42458" r="21.27474" gradientUnits="userSpaceOnUse" id="color-5"><stop offset="0" stop-color="#000000" stop-opacity="0"/><stop offset="1" stop-color="#000000" stop-opacity="0.57196"/></radialGradient><radialGradient cx="263.30394" cy="173.40627" r="23.04258" gradientUnits="userSpaceOnUse" id="color-6"><stop offset="0" stop-color="#000000" stop-opacity="0"/><stop offset="1" stop-color="#000000" stop-opacity="0.57196"/></radialGradient><radialGradient cx="228.7075" cy="128.35127" r="27.14472" gradientUnits="userSpaceOnUse" id="color-7"><stop offset="0" stop-color="#000000" stop-opacity="0"/><stop offset="1" stop-color="#000000" stop-opacity="0.57196"/></radialGradient><radialGradient cx="260.77038" cy="143.64867" r="11.82643" gradientUnits="userSpaceOnUse" id="color-8"><stop offset="0" stop-color="#000000" stop-opacity="0"/><stop offset="1" stop-color="#000000" stop-opacity="0.57196"/></radialGradient><radialGradient cx="232.69887" cy="143.06688" r="20.9033" gradientUnits="userSpaceOnUse" id="color-9"><stop offset="0" stop-color="#000000" stop-opacity="0"/><stop offset="1" stop-color="#000000" stop-opacity="0.57196"/></radialGradient><radialGradient cx="200.41862" cy="153.82789" r="42.6533" gradientUnits="userSpaceOnUse" id="color-10"><stop offset="0" stop-color="#000000" stop-opacity="0"/><stop offset="1" stop-color="#000000" stop-opacity="0.57196"/></radialGradient><radialGradient cx="254.418" cy="198.58644" r="12.99669" gradientUnits="userSpaceOnUse" id="color-11"><stop offset="0" stop-color="#000000" stop-opacity="0"/><stop offset="1" stop-color="#000000" stop-opacity="0.57196"/></radialGradient><radialGradient cx="200.56623" cy="138.63571" r="13.56318" gradientUnits="userSpaceOnUse" id="color-12"><stop offset="0" stop-color="#000000" stop-opacity="0"/><stop offset="1" stop-color="#000000" stop-opacity="0.57196"/></radialGradient></defs><g transform="translate(-188.6745,-116.25777)"><g data-paper-data="{&quot;isPaintingLayer&quot;:true}" stroke="none" stroke-width="1" stroke-linecap="butt" stroke-linejoin="miter" stroke-miterlimit="10" stroke-dasharray="" stroke-dashoffset="0" style="mix-blend-mode: normal"><path d="M257.09999,127.98704l16.44036,-4.44427c1.53392,0.69202 1.29362,1.67921 0.85418,2.6981l-16.44036,4.44427z" fill="#c87137" fill-rule="nonzero"/><path d="M257.09999,127.98704l16.44036,-4.44427c1.53392,0.69202 1.29362,1.67921 0.85418,2.6981l-16.44036,4.44427z" fill="url(#color-1)" fill-rule="nonzero"/><path d="M209.59781,137.21909c-1.21792,-9.57524 9.43816,-18.81847 23.80101,-20.64535c14.36285,-1.82688 26.99356,4.45441 28.21148,14.02964c1.21792,9.57524 -9.43816,18.81847 -23.80101,20.64535c-14.36285,1.82688 -26.99356,-4.45441 -28.21148,-14.02964z" fill="#1a1a1a" fill-rule="nonzero"/><path d="M209.59781,137.21909c-1.21792,-9.57524 9.43816,-18.81847 23.80101,-20.64535c14.36285,-1.82688 26.99356,4.45441 28.21148,14.02964c1.21792,9.57524 -9.43816,18.81847 -23.80101,20.64535c-14.36285,1.82688 -26.99356,-4.45441 -28.21148,-14.02964z" fill="url(#color-2)" fill-rule="nonzero"/><path d="M216.9991,130.98373c11.49146,-5.58177 25.66332,-8.61147 41.10408,-3.56435l-2.41663,10.72869l-31.37341,5.02573z" fill="#c87137" fill-rule="nonzero"/><path d="M291.32549,229.36589c0,4.72326 -22.9908,8.55441 -51.3255,8.55441c-28.33469,0 -51.3255,-3.83115 -51.3255,-8.55441c0,-4.72326 22.9908,-8.55441 51.3255,-8.55441c28.33469,0 51.3255,3.83115 51.3255,8.55441z" fill="url(#color-3)" fill-rule="nonzero"/><path d="M286.33997,185.88185c0,3.45742 -0.37782,26.7754 -1.09782,30.01896c-1.76079,8.88236 -7.47088,13.99364 -16.0467,15.93977c-3.98494,0.74138 -8.5188,-15.55482 -13.4376,-15.6475c-4.9188,-0.09267 -10.22256,16.02532 -15.75443,16.02532c-5.56039,0 -10.88552,-16.12512 -15.82571,-16.05383c-4.94019,0.07842 -9.4883,16.35324 -13.48037,15.58334c-9.03919,-1.49703 -13.77265,-7.68474 -15.9968,-16.13938c-0.67723,-3.15089 -1.03366,-26.37619 -1.03366,-29.72668c0,-25.57778 20.75877,-46.33655 46.33655,-46.33655c25.57778,0 46.33655,20.75877 46.33655,46.33655z" fill="#fffbbc" fill-rule="nonzero"/><path d="M286.33997,185.88185c0,3.45742 -0.37782,26.7754 -1.09782,30.01896c-1.76079,8.88236 -7.47088,13.99364 -16.0467,15.93977c-3.98494,0.74138 -8.5188,-15.55482 -13.4376,-15.6475c-4.9188,-0.09267 -10.22256,16.02532 -15.75443,16.02532c-5.56039,0 -10.88552,-16.12512 -15.82571,-16.05383c-4.94019,0.07842 -9.4883,16.35324 -13.48037,15.58334c-9.03919,-1.49703 -13.77265,-7.68474 -15.9968,-16.13938c-0.67723,-3.15089 -1.03366,-26.37619 -1.03366,-29.72668c0,-25.57778 20.75877,-46.33655 46.33655,-46.33655c25.57778,0 46.33655,20.75877 46.33655,46.33655z" fill="url(#color-4)" fill-rule="nonzero"/><path d="M277.60459,223.66523c-3.38048,4.09607 -7.47824,6.30617 -9.14965,4.92675c-1.67142,-1.37942 -0.27872,-5.822 3.10176,-9.91807c3.38048,-4.09607 7.47824,-6.30617 9.14965,-4.92675c1.67142,1.37942 0.27872,5.822 -3.10176,9.91807z" fill-opacity="0.43439" fill="#ffffff" fill-rule="nonzero"/><path d="M229.90672,169.24579c0.14,-0.03 0.29,-0.08 0.44001,-0.09l1.00001,-2.06003l0.56001,2.12003c2.49003,0.40001 5.66008,1.97003 9.22013,2.63004c7.4401,1.36002 13.03018,4.94007 12.47018,7.97011c-0.55001,3.02004 -7.0601,4.36006 -14.5002,3.00004c-7.4401,-1.37002 -12.87018,-4.93007 -12.47018,-7.97011c0.22,-1.65002 0.58001,-2.85004 1.03001,-3.72005l-1.62002,-1.97003l2.25003,1.03001c0.15,-0.17 0.3,-0.31 0.47001,-0.44001l-0.53001,-2.78004z" fill="#000000" fill-rule="nonzero"/><path d="M226.64014,174.86373c0.55647,-3.02615 7.04107,-4.36984 14.48376,-3.00122c7.44269,1.36862 13.02507,4.93128 12.4686,7.95743c-0.55647,3.02615 -7.04107,4.36984 -14.48376,3.00122c-7.44269,-1.36862 -13.02507,-4.93128 -12.4686,-7.95743z" fill="#ffffff" fill-rule="nonzero"/><path d="M277.06738,162.7457c0.18,0.12 0.35,0.28 0.53001,0.44001l2.06003,-1.34002l-1.28002,2.12003c0.60001,0.67001 1.25002,1.54002 1.94003,2.66004c1.53002,2.67004 -2.56004,7.87011 -9.13013,11.62016c-6.56009,3.76005 -13.16018,4.64007 -14.68021,1.97003c-1.53002,-2.67004 2.59004,-7.90011 9.15013,-11.66016c3.60005,-2.05003 5.91008,-5.24007 8.22012,-6.18009l0.22,-1.75002l1.00001,1.47002c0.29,-0.01 0.58001,0.04 0.88001,0.12l1.18002,-2.19003z" fill="#000000" fill-rule="nonzero"/><path d="M256.52295,180.20797c-1.52678,-2.67127 2.56145,-7.88083 9.13132,-11.63589c6.56987,-3.75506 13.1335,-4.63365 14.66028,-1.96238c1.52678,2.67127 -2.56145,7.88083 -9.13132,11.63589c-6.56987,3.75506 -13.1335,4.63365 -14.66028,1.96238z" fill="#ffffff" fill-rule="nonzero"/><path d="M226.64014,174.86373c0.55647,-3.02615 7.04107,-4.36984 14.48376,-3.00122c7.44269,1.36862 13.02507,4.93128 12.4686,7.95743c-0.55647,3.02615 -7.04107,4.36984 -14.48376,3.00122c-7.44269,-1.36862 -13.02507,-4.93128 -12.4686,-7.95743z" fill="url(#color-5)" fill-rule="nonzero"/><path d="M256.52295,180.20797c-1.52678,-2.67127 2.56145,-7.88083 9.13132,-11.63589c6.56987,-3.75506 13.1335,-4.63365 14.66028,-1.96238c1.52678,2.67127 -2.56145,7.88083 -9.13132,11.63589c-6.56987,3.75506 -13.1335,4.63365 -14.66028,1.96238z" fill="url(#color-6)" fill-rule="nonzero"/><path d="M236.34739,177.02764c0,-2.41156 1.95495,-4.36651 4.36651,-4.36651c2.41156,0 4.36651,1.95495 4.36651,4.36651c0,2.41156 -1.95495,4.36651 -4.36651,4.36651c-2.41156,0 -4.36651,-1.95495 -4.36651,-4.36651z" fill="#000000" fill-rule="nonzero"/><path d="M265.85308,172.80745c0,-2.41156 1.95495,-4.36651 4.36651,-4.36651c2.41156,0 4.36651,1.95495 4.36651,4.36651c0,2.41156 -1.95495,4.36651 -4.36651,4.36651c-2.41156,0 -4.36651,-1.95495 -4.36651,-4.36651z" fill="#000000" fill-rule="nonzero"/><path d="M249.03548,168.24545l-0.43485,0.8697c-6.78652,-3.22217 -12.82453,-7.43523 -21.9065,-4.9687l-0.25663,-0.93386c8.09107,-6.66533 15.53344,0.50614 22.59798,5.03286z" fill="#000000" fill-rule="evenodd"/><path d="M276.05325,158.37933l-0.00713,0.9695c-9.41701,-0.17822 -14.24314,5.38217 -20.03165,10.17265l-0.64158,-0.74138c5.74573,-6.11642 11.21345,-14.88473 20.68036,-10.40077z" fill="#000000" fill-rule="evenodd"/><path d="M278.3174,158.18735c-5.58008,-3.36005 -11.17016,-6.57009 -16.75024,-2.75004c2.80004,-8.37012 -0.97001,-13.12018 -4.00006,-18.25026c14.84021,-1.59002 23.96034,21.2503 20.75029,21.00029z" fill="#1a1a1a" fill-rule="evenodd"/><path d="M216.9991,130.98373c11.49146,-5.58177 25.66332,-8.61147 41.10408,-3.56435l-2.41663,10.72869l-31.37341,5.02573z" fill="url(#color-7)" fill-rule="nonzero"/><path d="M278.3174,158.18735c-5.58008,-3.36005 -11.17016,-6.57009 -16.75024,-2.75004c2.80004,-8.37012 -0.97001,-13.12018 -4.00006,-18.25026c14.84021,-1.59002 23.96034,21.2503 20.75029,21.00029z" fill="url(#color-8)" fill-rule="evenodd"/><path d="M224.31664,140.6871c10.60015,-4.85007 21.4703,-8.84012 36.00051,-1.25002c2.77004,5.59008 3.10004,9.97014 3.25005,14.2502c-4.48006,1.62002 -8.50012,4.16006 -11.00015,9.75014c-5.35008,-3.77005 -9.41013,-9.71014 -18.50026,-7.2501c-2.02003,-4.92007 -4.44006,-9.92014 -9.75014,-15.50022z" fill="#1a1a1a" fill-rule="evenodd"/><path d="M224.31664,140.6871c10.60015,-4.85007 21.4703,-8.84012 36.00051,-1.25002c2.77004,5.59008 3.10004,9.97014 3.25005,14.2502c-4.48006,1.62002 -8.50012,4.16006 -11.00015,9.75014c-5.35008,-3.77005 -9.41013,-9.71014 -18.50026,-7.2501c-2.02003,-4.92007 -4.44006,-9.92014 -9.75014,-15.50022z" fill="url(#color-9)" fill-rule="evenodd"/><path d="M224.81665,137.43706c9.99014,3.55005 9.09013,12.54018 11.75016,19.75028c-27.16038,-3.15004 -29.19041,31.94045 -42.7506,49.50069c0,0 -19.00027,-62.00087 31.00044,-69.25097z" fill="#1a1a1a" fill-rule="evenodd"/><path d="M224.81665,137.43706c9.99014,3.55005 9.09013,12.54018 11.75016,19.75028c-27.16038,-3.15004 -29.19041,31.94045 -42.7506,49.50069c0,0 -19.00027,-62.00087 31.00044,-69.25097z" fill="url(#color-10)" fill-rule="evenodd"/><path d="M194.36907,139.50742l16.44105,-4.44446c1.12778,0.61736 1.71648,1.41734 0.85633,2.70489l-16.44105,4.44446c-1.89549,-0.21063 -1.19802,-1.53536 -0.85633,-2.70489z" fill="#c87137" fill-rule="nonzero"/><path d="M258.23863,198.38559c3.01544,-1.88198 4.34851,-0.63445 7.37108,-0.64871c-4.18455,4.0491 -10.79285,4.1988 -16.16789,1.81069c2.17425,-1.56119 5.85266,-1.86059 8.79682,-1.16198z" fill="#ff0000" fill-rule="evenodd"/><path d="M258.23863,198.38559c3.01544,-1.88198 4.34851,-0.63445 7.37108,-0.64871c-4.18455,4.0491 -10.79285,4.1988 -16.16789,1.81069c2.17425,-1.56119 5.85266,-1.86059 8.79682,-1.16198z" fill="url(#color-11)" fill-rule="evenodd"/><path d="M194.36907,139.50742l16.44105,-4.44446c1.12778,0.61736 1.71648,1.41734 0.85633,2.70489l-16.44105,4.44446c-1.89549,-0.21063 -1.19802,-1.53536 -0.85633,-2.70489z" fill="url(#color-12)" fill-rule="nonzero"/><path d="M215.62326,162.98447c-7.14296,7.32117 -14.54255,11.70533 -16.5172,9.78058c-1.96752,-1.92475 2.23128,-9.43127 9.37424,-16.75245c7.15009,-7.32117 14.54968,-11.6982 16.5172,-9.77345c1.97465,1.92475 -2.22415,9.42414 -9.37424,16.74532z" fill-opacity="0.62745" fill="#ffffff" fill-rule="nonzero"/><path d="M223.89255,127.64037c-3.23643,1.80356 -6.54415,2.05307 -7.37108,0.56317c-0.82693,-1.49703 1.12633,-4.17029 4.36989,-5.96672c3.24356,-1.80356 6.54415,-2.05307 7.37108,-0.55604c0.83406,1.4899 -1.12633,4.16316 -4.36989,5.95959z" fill-opacity="0.41553" fill="#ffffff" fill-rule="nonzero"/></g></g></svg>