<svg version="1.1" xmlns="http://www.w3.org/2000/svg" xmlns:xlink="http://www.w3.org/1999/xlink" width="136.37993" height="136.37993" viewBox="0,0,136.37993,136.37993"><g transform="translate(-171.81003,-111.81003)"><g data-paper-data="{&quot;isPaintingLayer&quot;:true}" fill-rule="nonzero" stroke="none" stroke-width="1" stroke-linecap="butt" stroke-linejoin="miter" stroke-miterlimit="10" stroke-dasharray="" stroke-dashoffset="0" style="mix-blend-mode: normal"><path d="M180.90203,184.546v-27.27599h27.27599v27.27599z" fill="#849eb4"/><path d="M180.90203,184.546v-27.27599h20.45699v27.27599z" fill="#b0d3f0"/><path d="M271.82198,184.546v-27.27599h27.27599v27.27599z" fill="#849eb4"/><path d="M271.82198,184.546v-27.27599h20.45699v27.27599z" fill="#b0d3f0"/><path d="M280.91398,175.454v-9.092h9.092v9.092z" fill="#cccccc"/><path d="M280.91398,175.454v-9.092h4.546v9.092z" fill="#f2f2f2"/><path d="M189.99403,175.454v-9.092h9.092v9.092z" fill="#cccccc"/><path d="M189.99403,175.454v-9.092h4.546v9.092z" fill="#f2f2f2"/><path d="M271.82198,239.09797v-45.45998h31.82198v45.45998z" fill="#849eb4"/><path d="M271.82198,239.09797v-45.45998h25.00299v45.45998z" fill="#b0d3f0"/><path d="M176.35603,239.09797v-45.45998h31.82198v45.45998z" fill="#849eb4"/><path d="M176.35603,239.09797v-45.45998h25.00299v45.45998z" fill="#b0d3f0"/><path d="M185.44803,216.36798v-13.63799h13.63799v13.63799z" fill="#f2f2f2"/><path d="M185.44803,230.00597v-13.63799h13.63799v13.63799z" fill="#cccccc"/><path d="M280.91398,230.00597v-13.63799h13.63799v13.63799z" fill="#f2f2f2"/><path d="M280.91398,216.36798v-13.63799h13.63799v13.63799z" fill="#cccccc"/><path d="M208.17802,239.09797v-45.45998h63.64397v45.45998z" fill="#849eb4"/><path d="M208.17802,239.09797v-45.45998h56.82497v45.45998z" fill="#b0d3f0"/><path d="M221.81601,239.09797v-36.36798h18.18399v36.36798z" fill="#98856e"/><path d="M221.81601,239.09797v-36.36798h11.36499v36.36798z" fill="#cbb292"/><path d="M240,239.09797v-36.36798h18.18399v36.36798z" fill="#98856e"/><path d="M240,239.09797v-36.36798h11.36499v36.36798z" fill="#cbb292"/><path d="M208.17802,184.546v-50.00597h63.64397v50.00597z" fill="#849eb4"/><path d="M208.17802,184.546v-50.00597h56.82497v50.00597z" fill="#b0d3f0"/><path d="M217.27001,166.36201v-22.72999h45.45998v22.72999z" fill="#cccccc"/><path d="M217.27001,166.36201v-22.72999h38.64098v22.72999z" fill="#f2f2f2"/><path d="M199.08602,134.54002v-9.092h81.82796v9.092z" fill="#5f443e"/><path d="M199.08602,134.54002v-9.092h75.00896v9.092z" fill="#7f5b53"/><path d="M253.63799,116.35603v0c-0.00367,8.72859 -3.46966,17.09928 -9.63752,23.27551l-4.00048,4.00048l-4.00048,-4.00048c-6.16786,-6.17623 -9.63385,-14.54692 -9.63752,-23.27551v0l13.63799,-4.546z" fill="#f0c419"/><path d="M246.819,116.35603c-0.00367,8.72859 -3.46966,17.09928 -9.63752,23.27551l-0.59098,0.59098l-0.59098,-0.59098c-6.16786,-6.17623 -9.63385,-14.54692 -9.63752,-23.27551l10.22849,-3.4095z" fill="#f3d047"/><path d="M176.35603,157.27001v-9.092h31.82198v9.092z" fill="#5f443e"/><path d="M176.35603,157.27001v-9.092h25.00299v9.092z" fill="#7f5b53"/><path d="M271.82198,157.27001v-9.092h31.82198v9.092z" fill="#5f443e"/><path d="M271.82198,157.27001v-9.092h25.00299v9.092z" fill="#7f5b53"/><path d="M171.81004,248.18997v-9.092h136.37993v9.092z" fill="#5f443e"/><path d="M171.81003,248.18997v-9.092h127.28793v9.092z" fill="#7f5b53"/><path d="M171.81004,193.63799v-9.092h136.37993v9.092z" fill="#5f443e"/><path d="M171.81003,193.63799v-9.092h127.28793v9.092z" fill="#7f5b53"/><path d="M230.22914,161.15994l-3.21451,-3.21451l9.09705,-9.09705l3.21451,3.21451z" fill="#cccccc"/><path d="M243.87313,161.15394l-3.21451,-3.21451l9.09705,-9.09705l3.21451,3.21451z" fill="#cccccc"/></g></g></svg>