<svg xmlns="http://www.w3.org/2000/svg" width="137.771" height="102.516" viewBox="0 0 11.022 8.201" xmlns:v="https://vecta.io/nano"><path d="M1.03 3.671a3.278 3.278 0 0 1 .021-.623h.726c0-.021-.046-.977.039-1.025a9.766 9.766 0 0 1 1.053-.094v-.575s-.889.037-.899-.039S1.825.07 1.913.042 3.292-.045 3.292.06l.037 1.055s.919-.078.958 0 .018.775.115.784 1.59.067 1.59 0a4.503 4.503 0 0 1 .048-.814c.046-.037 1.129-.048 1.129-.048A6.024 6.024 0 0 1 7.19.118C7.236.051 8.663.042 8.663.129a11.361 11.361 0 0 1-.085 1.195l-1.131.021v.257l1.751.136c.018.087-.046 1.273 0 1.273s.862 0 .871.085 0 .804 0 .804.919.021.947.124-.067 3.036-.172 3.084a3.677 3.677 0 0 1-1.092-.039c-.028-.057 0-1.954-.048-1.972s-.584 0-.584 0l-.018 2.144c-.076.076-1.237.057-1.237.057s.087.795.03.814-2.319.136-2.319.048-.018-1.149.069-1.197S7.312 6.919 7.3 6.87s0-.423-.028-.432-3.606.039-3.606.097a1.476 1.476 0 0 0 0 .411l1.657.067a7.826 7.826 0 0 1 0 1.161 19.75 19.75 0 0 1-2.087 0c-.078-.048-.106-.94-.106-.94l-1.283-.2c-.009-.067 0-1.917-.039-1.944a.848.848 0 0 0-.384 0v1.857c-.039.018-1.379.154-1.379 0l-.011-3.14a5.93 5.93 0 0 1 .995-.136z" fill="#1d1d1b"/><path d="M.476 4.17a3.1 3.1 0 0 1 .565-.074v2.528c-.028 0-.547.076-.565 0s-.028-2.406 0-2.455zm1.025-.763c.082-.034.175-.034.257 0V4.69c-.018 0-.248.048-.26 0S1.47 3.433 1.5 3.407zM2.343.368c.041-.028.517-.03.538.028a1.87 1.87 0 0 1 0 .556c-.179.009-.359.009-.538 0a1.4 1.4 0 0 1 0-.584zm5.249.051c.198-.017.397-.007.593.028a2.28 2.28 0 0 1-.018.508 2.99 2.99 0 0 1-.575 0 4.46 4.46 0 0 1 0-.536z" fill="#c8db89"/><path d="M3.262 1.469a3.107 3.107 0 0 1 .653-.03 5.808 5.808 0 0 0 .067.853l2.393-.067c.009-.048.048-.747.078-.775a1.609 1.609 0 0 1 .575 0c0 .037-.03.554.018.565s1.648.057 1.666.094-.039 2.117-.039 2.117-.354-.384-.382-.345-.115.154-.078.172a3.266 3.266 0 0 1 .46.46 2.563 2.563 0 0 1 0 .384 5.096 5.096 0 0 0-.565-.46c-.021.028-.078.152-.048.182l.614.611v.336a6.879 6.879 0 0 0-.584-.411c-.028 0-.106.202-.067.211a3.42 3.42 0 0 1 .641.411 10.48 10.48 0 0 0 .021.336l-.65-.409c-.028 0-.048.2-.048.2a5.93 5.93 0 0 1 .69.499 2.025 2.025 0 0 1 0 .287 4.316 4.316 0 0 0-.593-.375c-.03.03-.087.154-.039.172s.432.326.393.336a2.818 2.818 0 0 1-.632.018l-.039-.832a52.24 52.24 0 0 0-2.278-.03l-2.241.184c-.028.069.028.632 0 .632a8.274 8.274 0 0 1-.988-.078c-.028-.037-.115-4.31-.028-4.337s1.043-.057 1.043-.087l-.011-.825z" fill="#8ec480"/><path d="M3.119 3.096a4.873 4.873 0 0 1 1.312-.048 8.856 8.856 0 0 1 .028 1.322 8.396 8.396 0 0 1-1.312.03 9.902 9.902 0 0 1-.028-1.303z" fill="#1d1d1b"/><path d="M3.57 3.45a.887.887 0 0 1 .439 0c0 .03.067.499 0 .529a1.055 1.055 0 0 1-.46.018 3.323 3.323 0 0 1 .021-.547z" fill="#fab900"/><path d="M6.259 3.011a4.88 4.88 0 0 1 1.315-.048 8.568 8.568 0 0 1 .03 1.322 8.688 8.688 0 0 1-1.312.028 9.883 9.883 0 0 1-.032-1.301z" fill="#1d1d1b"/><path d="M6.71 3.365a.844.844 0 0 1 .441 0c0 .028.067.499 0 .526a1.02 1.02 0 0 1-.46.018 3.572 3.572 0 0 1 .018-.545z" fill="#fab900"/><path d="M2.517 2.694c0 .06.23-.048.23 0l.021.958c-.028.018-.23.048-.23 0l-.021-.958z" fill="#1d1d1b"/><path d="M9.183 3.326c.028-.028.46-.057.46.021l-.048 1.331a2.459 2.459 0 0 1-.478-.021c-.011-.028.037-1.31.067-1.331zm1.004.959c.046-.016.421-.03.43.018s-.124 2.395-.163 2.413a1.253 1.253 0 0 1-.287 0l.021-2.432zM3.627 7.3a9.715 9.715 0 0 1 1.31.03v.517l-1.312-.03a2.298 2.298 0 0 1 .002-.517zm2.365.049a12.885 12.885 0 0 1 1.38-.049c0 .039.037.423 0 .441s-1.407.032-1.407.032 0-.416.028-.425z" fill="#c8db89"/></svg>