<svg width="140" height="140" viewBox="0 0 11.2 11.2" version="1.1" id="prefix__svg1713" xmlns="http://www.w3.org/2000/svg"><defs id="prefix__defs1666"><style id="style1664">.prefix__cls-3{fill:#849eb4}.prefix__cls-4{fill:#b0d3f0}.prefix__cls-5{fill:#98856e}.prefix__cls-6{fill:#cbb292}</style></defs><g data-name="Layer 10" id="prefix__Layer_10" transform="matrix(.18667 0 0 .18667 -.373 -.373)"><path id="prefix__polygon1670" fill="#ccc" d="M18 58V38l14-14 14 14v20z"/><path id="prefix__polygon1672" fill="#f2f2f2" d="M43 38L30.5 25.5 18 38v20h25z"/><path class="prefix__cls-3" id="prefix__rect1674" d="M35 38h6v4h-6z"/><path class="prefix__cls-4" id="prefix__rect1676" d="M35 38h3v4h-3z"/><path class="prefix__cls-3" id="prefix__rect1678" d="M23 38h6v4h-6z"/><path class="prefix__cls-4" id="prefix__rect1680" d="M23 38h3v4h-3z"/><path class="prefix__cls-5" id="prefix__polyline1682" d="M28 58V46h8v12"/><path class="prefix__cls-6" id="prefix__rect1684" d="M28 46h5v12h-5z"/><path class="prefix__cls-5" id="prefix__rect1686" d="M46 46h14v12H46z"/><path class="prefix__cls-6" id="prefix__rect1688" d="M46 46h11v12H46z"/><path class="prefix__cls-5" id="prefix__rect1690" d="M4 46h14v12H4z"/><path class="prefix__cls-6" id="prefix__rect1692" d="M4 46h11v12H4z"/><path id="prefix__rect1694" fill="#5f443e" d="M2 58h60v4H2z"/><path id="prefix__rect1696" fill="#7f5b53" d="M2 58h57v4H2z"/><path id="prefix__polygon1698" fill="#e64c3c" d="M32 24L18 38h-6l20-20 20 20h-6z"/><circle cx="32" cy="8" r="6" id="prefix__circle1700" fill="#b49313"/><ellipse cx="30.5" cy="8" rx="4.5" ry="5.8" id="prefix__ellipse1702" fill="#f0c419"/><path class="prefix__cls-3" d="M38 10a3.94 3.94 0 011.09.17A4 4 0 0143 7a3.93 3.93 0 012.48.89A5 5 0 0155 10v.15a3.74 3.74 0 011-.15 4 4 0 11-2.58 7 4 4 0 01-6.84 0 3.95 3.95 0 01-5.58-.38A4 4 0 1138 10z" id="prefix__path1704"/><path class="prefix__cls-4" d="M58.29 17.27A4 4 0 0054.7 15a3.74 3.74 0 00-1 .15V15a5 5 0 00-9.51-2.11A4 4 0 0041.7 12a4 4 0 00-3.91 3.17 3.83 3.83 0 00-3.38.56 4 4 0 006.59.89 3.95 3.95 0 005.58.42 4 4 0 006.84 0 4 4 0 004.87.23z" id="prefix__path1706"/><path class="prefix__cls-3" d="M26 7a3.94 3.94 0 00-1.09.17A4 4 0 0021 4a3.93 3.93 0 00-2.48.89A5 5 0 009 7v.15A3.74 3.74 0 008 7a4 4 0 102.58 7 4 4 0 006.84 0 3.95 3.95 0 005.58-.38A4 4 0 1026 7z" id="prefix__path1708"/><path class="prefix__cls-4" d="M5.71 14.27A4 4 0 019.3 12a3.74 3.74 0 011 .15V12a5 5 0 019.51-2.11A4 4 0 0122.3 9a4 4 0 013.91 3.17 3.83 3.83 0 013.38.56 4 4 0 01-6.59.89 3.95 3.95 0 01-5.58.42 4 4 0 01-6.84 0 4 4 0 01-4.87.23z" id="prefix__path1710"/></g></svg>