<svg version="1.1" xmlns="http://www.w3.org/2000/svg" xmlns:xlink="http://www.w3.org/1999/xlink" width="140" height="140" viewBox="0,0,140,140"><g transform="translate(-170,-110)"><g data-paper-data="{&quot;isPaintingLayer&quot;:true}" fill-rule="nonzero" stroke="none" stroke-width="1" stroke-linecap="butt" stroke-linejoin="miter" stroke-miterlimit="10" stroke-dasharray="" stroke-dashoffset="0" style="mix-blend-mode: normal"><path d="M207.33333,240.66667v-46.66667l32.66667,-32.66667l32.66667,32.66667v46.66667z" fill="#cccccc"/><path d="M265.66667,240.66667h-58.33333v-46.66667l29.16667,-29.16667l29.16667,29.16667z" fill="#f2f2f2"/><path d="M247,203.33333v-9.33333h14v9.33333z" fill="#849eb4"/><path d="M247,203.33333v-9.33333h7v9.33333z" fill="#b0d3f0"/><path d="M219,203.33333v-9.33333h14v9.33333z" fill="#849eb4"/><path d="M219,203.33333v-9.33333h7v9.33333z" fill="#b0d3f0"/><path d="M230.66667,240.66667v-28h18.66667v28" fill="#98856e"/><path d="M230.66667,240.66667v-28h11.66667v28z" fill="#cbb292"/><path d="M272.66667,240.66667v-28h32.66667v28z" fill="#98856e"/><path d="M272.66667,240.66667v-28h25.66667v28z" fill="#cbb292"/><path d="M174.66667,240.66667v-28h32.66667v28z" fill="#98856e"/><path d="M174.66667,240.66667v-28h25.66667v28z" fill="#cbb292"/><path d="M170,250v-9.33333h140v9.33333z" fill="#5f443e"/><path d="M170,250v-9.33333h133v9.33333z" fill="#7f5b53"/><path d="M240,161.33333l-32.66667,32.66667h-14l46.66667,-46.66667l46.66667,46.66667h-14z" fill="#e64c3c"/><path d="M226,124c0,-7.73199 6.26801,-14 14,-14c7.73199,0 14,6.26801 14,14c0,7.73199 -6.26801,14 -14,14c-7.73199,0 -14,-6.26801 -14,-14z" fill="#b49313"/><path d="M226,124c0,-7.47425 4.70101,-13.53333 10.5,-13.53333c5.79899,0 10.5,6.05908 10.5,13.53333c0,7.47425 -4.70101,13.53333 -10.5,13.53333c-5.79899,0 -10.5,-6.05908 -10.5,-13.53333z" fill="#f0c419"/><path d="M254,128.66667c0.86218,0.01229 1.71835,0.14582 2.54333,0.39667c0.91418,-4.30982 4.71762,-7.39343 9.12333,-7.39667c2.11039,0.00572 4.15421,0.73919 5.78667,2.07667c2.32841,-4.92377 7.75385,-7.58132 13.07136,-6.40275c5.31751,1.17857 9.11201,5.87961 9.14197,11.32608c0,0.11667 0,0.23333 0,0.35c0.75835,-0.22176 1.5433,-0.3395 2.33333,-0.35c4.16997,-0.06793 7.87892,2.63887 9.08592,6.63091c1.207,3.99204 -0.38092,8.30036 -3.88998,10.5542c-3.50906,2.25384 -8.0875,1.90614 -11.21595,-0.85178c-1.69197,2.78935 -4.7176,4.49281 -7.98,4.49281c-3.2624,0 -6.28803,-1.70345 -7.98,-4.49281c-1.84287,1.61182 -4.25132,2.42417 -6.69395,2.25783c-2.44263,-0.16634 -4.71871,-1.29772 -6.32605,-3.1445c-2.82531,3.25923 -7.51596,4.1579 -11.34584,2.17371c-3.82988,-1.98419 -5.80123,-6.33431 -4.76835,-10.52217c1.03288,-4.18785 4.80092,-7.12243 9.1142,-7.09821z" fill="#849eb4"/><path d="M289.98,145.09333c-1.69197,2.78935 -4.7176,4.49281 -7.98,4.49281c-3.2624,0 -6.28803,-1.70345 -7.98,-4.49281c-1.85474,1.60066 -4.27044,2.397 -6.71346,2.21312c-2.44302,-0.18388 -4.7123,-1.33286 -6.30654,-3.19312c-2.06318,2.33476 -5.15534,3.48603 -8.24304,3.06902c-3.0877,-0.417 -5.7637,-2.34728 -7.13362,-5.14569c2.27668,-1.65264 5.19865,-2.13675 7.88667,-1.30667c0.91418,-4.30982 4.71762,-7.39343 9.12333,-7.39667c2.11609,0.01356 4.16475,0.74582 5.81,2.07667c2.34273,-4.89588 7.75225,-7.52953 13.05093,-6.35391c5.29867,1.17563 9.08676,5.84997 9.13907,11.27724c0,0.11667 0,0.23333 0,0.35c0.75835,-0.22176 1.5433,-0.3395 2.33333,-0.35c3.57642,0.0148 6.82988,2.07201 8.37667,5.29667c-3.47173,2.41689 -8.13484,2.19666 -11.36333,-0.53667z" fill="#b0d3f0"/><path d="M235.1142,128.76488c1.03288,4.18785 -0.93847,8.53798 -4.76835,10.52217c-3.82988,1.98419 -8.52053,1.08552 -11.34584,-2.17371c-1.60734,1.84678 -3.88342,2.97815 -6.32605,3.1445c-2.44263,0.16634 -4.85108,-0.64601 -6.69395,-2.25783c-1.69197,2.78935 -4.7176,4.49281 -7.98,4.49281c-3.2624,0 -6.28803,-1.70345 -7.98,-4.49281c-3.12845,2.75791 -7.70689,3.10562 -11.21595,0.85178c-3.50906,-2.25384 -5.09698,-6.56216 -3.88998,-10.5542c1.207,-3.99204 4.91595,-6.69884 9.08592,-6.63091c0.79004,0.0105 1.57499,0.12824 2.33333,0.35c0,-0.11667 0,-0.35 0,-0.35c0.02996,-5.44647 3.82446,-10.14752 9.14197,-11.32608c5.31751,-1.17857 10.74296,1.47898 13.07136,6.40275c1.63246,-1.33747 3.67628,-2.07094 5.78667,-2.07667c4.40571,0.00324 8.20915,3.08685 9.12333,7.39667c0.82498,-0.25084 1.68115,-0.38437 2.54333,-0.39667c4.31328,-0.02422 8.08132,2.91036 9.1142,7.09821z" fill="#849eb4"/><path d="M178.65667,138.63c1.54678,-3.22466 4.80025,-5.28187 8.37667,-5.29667c0.79004,0.0105 1.57499,0.12824 2.33333,0.35c0,-0.11667 0,-0.23333 0,-0.35c0.05232,-5.42727 3.8404,-10.10161 9.13907,-11.27724c5.29867,-1.17563 10.70819,1.45803 13.05093,6.35391c1.64525,-1.33085 3.69391,-2.06311 5.81,-2.07667c4.40571,0.00324 8.20915,3.08685 9.12333,7.39667c2.68802,-0.83009 5.60999,-0.34597 7.88667,1.30667c-1.36993,2.79841 -4.04592,4.72868 -7.13362,5.14569c-3.0877,0.417 -6.17987,-0.73426 -8.24304,-3.06902c-1.59424,1.86026 -3.86352,3.00924 -6.30654,3.19312c-2.44302,0.18388 -4.85872,-0.61246 -6.71346,-2.21312c-1.69197,2.78935 -4.7176,4.49281 -7.98,4.49281c-3.2624,0 -6.28803,-1.70345 -7.98,-4.49281c-3.22849,2.73333 -7.89161,2.95356 -11.36333,0.53667z" fill="#b0d3f0"/></g></g></svg>