<svg xmlns="http://www.w3.org/2000/svg" width="139.67" height="101.529" viewBox="0 0 178.778 129.957" xmlns:v="https://vecta.io/nano"><path d="M158.519 13.153c11.177 0 20.259 9.082 20.259 20.259s-9.082 20.259-20.259 20.259H148.22c.02.24.04.459.04.699a14.68 14.68 0 0 1 3.613 9.621c0 4.032-1.677 7.864-4.531 10.599.04.599.08 1.198.08 1.776a22.24 22.24 0 0 1-16.906 21.596v1.218c0 5.309-2.734 10.259-7.106 13.133v14.511c0 1.736-1.417 3.134-3.154 3.134H98.54a3.14 3.14 0 0 1-3.134-3.134v-14.511a15.76 15.76 0 0 1-5.748-6.766c-3.114 1.457-6.487 2.216-10 2.216-4.311 0-8.483-1.178-12.115-3.353a15.75 15.75 0 0 1-6.207 7.904v14.511a3.14 3.14 0 0 1-3.134 3.134H36.446a3.14 3.14 0 0 1-3.134-3.134v-14.511c-4.371-2.874-7.106-7.824-7.106-13.133V93.71c-.838-.599-1.657-1.237-2.435-1.896C13.133 90.018 5.249 80.776 5.249 69.878c0-2.255.339-4.471.998-6.607-2.974-3.872-4.591-8.603-4.591-13.533 0-5.888 2.295-11.457 6.387-15.588C3.453 33.093 0 28.981 0 24.071c0-5.489 4.291-9.98 9.68-10.319 1.577-1.257 3.533-1.976 5.609-1.976 2.096 0 4.092.739 5.669 2.016 1.198-.14 2.395-.06 3.553.2 4.192-5.249 10.618-8.403 17.405-8.403 2.455 0 4.89.399 7.205 1.198C51.755 2.615 56.366 0 61.515 0c3.054 0 6.028.978 8.503 2.715C73.272.938 76.904 0 80.676 0c4.73 0 9.261 1.477 13.014 4.211 2.535-1.956 5.649-3.034 8.942-3.034 3.513 0 6.866 1.257 9.521 3.513a15.68 15.68 0 0 1 1.657-.1c1.796 0 3.553.319 5.209.958 2.695-3.014 6.607-4.93 10.958-4.93 3.453 0 6.806 1.237 9.421 3.433a11.4 11.4 0 0 1 5.209-1.257c5.948 0 10.858 4.551 11.417 10.359z" fill="#633"/><path d="M158.519 20.139c7.325 0 13.273 5.948 13.273 13.273s-5.948 13.273-13.273 13.273h-14.091c-.339-1.776-1.078-3.453-2.196-4.89.519-1.357 1.138-4.331 1.138-4.391a23.54 23.54 0 0 0 .259-3.373c0-2.974-.599-5.908-1.736-8.623a11.06 11.06 0 0 0 2.695.319c4.191 0 7.864-2.255 9.88-5.629-.02.04 4.052.04 4.052.04z" fill="#f9dcb2"/><path d="M150.794 27.824a3.99 3.99 0 0 1 3.992 3.992 3.98 3.98 0 0 1-3.992 3.992 3.99 3.99 0 1 1 0-7.984z" fill="#633"/><path d="M149.078 14.271c0 .459-.2 1.337-.2 1.337-.579 1.836-2.275 3.154-4.291 3.154-.978 0-1.916-.319-2.714-.918-.818-.619-1.856-.838-2.834-.639-.998.22-1.856.838-2.335 1.736-.459.838-1.078 1.597-1.816 2.216-1.357 1.138-1.657 3.094-.679 4.571 1.597 2.475 2.455 5.349 2.455 8.283 0 2.435-.559 4.77-1.657 6.926a3.51 3.51 0 0 0 .938 4.331c1.098.858 1.717 2.136 1.717 3.533a4.5 4.5 0 0 1-4.491 4.491 4.43 4.43 0 0 1-4.052-2.575c-.579-1.237-1.836-1.996-3.154-1.996-.279 0-3.313.559-4.571.559-8.423 0-15.269-6.846-15.269-15.269 0-7.585 5.669-14.091 13.153-15.129a3.48 3.48 0 0 0 3.014-3.513v-.16c.02-4.231 3.453-7.664 7.684-7.664 2.455 0 4.71 1.138 6.187 3.114.599.818 1.537 1.317 2.555 1.397s1.996-.299 2.714-1.018c.838-.858 1.976-1.317 3.174-1.317 2.455.06 4.471 2.076 4.471 4.551zm-6.647 44.111c1.577 1.477 2.455 3.473 2.455 5.609a7.68 7.68 0 0 1-3.273 6.287 3.54 3.54 0 0 0-1.437 3.453 14.87 14.87 0 0 1 .24 2.635c0 7.744-5.788 14.271-13.473 15.169a15.32 15.32 0 0 1-5.13-.259c-.758-.18-1.577-.08-2.275.259a41.82 41.82 0 0 1-4.132 1.717c-4.052 1.417-8.323 2.136-12.654 2.136h-9.361a3.58 3.58 0 0 0-2.395.938c-.479.459-1.018.878-1.557 1.277a16.58 16.58 0 0 1-9.8 3.194c-4.231 0-8.263-1.597-11.357-4.471a3.49 3.49 0 0 0-2.375-.938h-3.573c-.479 0-.978.1-1.417.299-1.717.758-3.633.878-5.469.299-.259-.08-1.697-.599-2.196-.599 0 0-8.283-.599-12.036-1.796a38.01 38.01 0 0 1-9.96-4.83 40.2 40.2 0 0 1-3.732-2.874 3.56 3.56 0 0 0-1.896-.838c-7.664-.898-13.453-7.425-13.453-15.169a15.14 15.14 0 0 1 1.198-5.948c.539-1.277.279-2.734-.659-3.752-2.655-2.854-4.132-6.547-4.132-10.439a15.24 15.24 0 0 1 5.529-11.756c.778-.659 1.257-1.617 1.257-2.635.02-1.218.299-2.375.858-3.453.679-1.337.459-2.954-.579-4.032a3.51 3.51 0 0 0-3.992-.758c-.439.2-.898.319-1.377.319-1.856 0-3.373-1.517-3.373-3.373s1.517-3.373 3.373-3.373c.12 0 2.176.459 3.433-1.237.359-.479.938-.719 1.517-.719.639 0 1.257.319 1.637.858a3.46 3.46 0 0 0 4.072 1.297 3.31 3.31 0 0 1 2.934.319 3.5 3.5 0 0 0 2.675.439 3.44 3.44 0 0 0 2.176-1.617 15.37 15.37 0 0 1 13.133-7.465 15.11 15.11 0 0 1 7.265 1.836 3.46 3.46 0 0 0 2.974.16c.978-.399 1.697-1.198 2.016-2.196.998-3.213 3.952-5.389 7.345-5.389 2.156 0 4.152.878 5.629 2.455 1.198 1.277 3.174 1.477 4.591.439 2.615-1.896 5.708-2.894 8.942-2.894a15.21 15.21 0 0 1 10.738 4.411c.699.699 1.677 1.058 2.675.998s1.916-.539 2.515-1.317c1.477-1.856 3.673-2.934 6.028-2.934a7.65 7.65 0 0 1 5.748 2.595c.878.978 2.216 1.397 3.473 1.058a8.02 8.02 0 0 1 1.936-.24 7.62 7.62 0 0 1 1.916.24c-.06.259-.12.499-.16.758-9.541 2.595-16.427 11.377-16.427 21.476 0 12.275 9.98 22.255 22.255 22.255.978 0 1.956-.06 2.914-.18 2.156 2.595 5.409 4.191 8.862 4.191a11.48 11.48 0 0 0 8.323-3.573c.2.639.539 1.218 1.018 1.677zM124.228 98.62s.399 6.267-5.329 9.082c-.719.339-1.457.579-2.216.739 1.936-2.675 2.994-5.888 2.994-9.221v-.08l1.836-.778c.898.12 1.796.22 2.715.259z" fill="#fff"/><path d="M117.123 114.727v8.982h-4.531v-8.982a16.6 16.6 0 0 0 2.235.16c.758 0 1.537-.06 2.295-.16z" fill="#f9dcb2"/><path d="M113.151 69.938c1.677.459 2.675 2.176 2.216 3.852s-2.176 2.675-3.852 2.216a1.47 1.47 0 0 0-1.437.379c-.379.379-.519.918-.379 1.437.459 1.677-.539 3.393-2.216 3.852-.279.08-.539.1-.818.1-1.377 0-2.655-.918-3.034-2.335-.719-2.675.06-5.549 2.016-7.505 1.956-1.936 4.83-2.715 7.505-1.996z" fill="#633"/><path d="M113.191 101.155a9.33 9.33 0 0 1-2.076 4.192c-.739.838-3.194 2.335-3.433 2.515-1.158.499-2.395.758-3.673.758a9.56 9.56 0 0 1-4.072-.918 9.44 9.44 0 0 1-4.77-5.309h7.605a46.91 46.91 0 0 0 10.419-1.237z" fill="#fff"/><path d="M106.245 114.727v8.982h-4.551v-8.982a14.82 14.82 0 0 0 2.295.18c.758-.02 1.517-.08 2.255-.18z" fill="#f9dcb2"/><path d="M82.034 18.443c1.677.459 2.675 2.176 2.216 3.852a3.13 3.13 0 0 1-3.852 2.216 2.68 2.68 0 0 0-2.555.679c-.659.659-.918 1.637-.679 2.555.459 1.677-.539 3.393-2.216 3.852-.279.08-.539.1-.818.1a3.13 3.13 0 0 1-3.034-2.335 8.95 8.95 0 0 1 2.315-8.623 8.99 8.99 0 0 1 8.623-2.295zm-3.912 32.853c2.235 2.255 3.134 5.549 2.295 8.623a3.15 3.15 0 0 1-3.034 2.335 3.98 3.98 0 0 1-.818-.1c-1.677-.459-2.675-2.176-2.216-3.852.24-.898-.02-1.876-.679-2.555-.659-.659-1.637-.918-2.555-.679-1.677.439-3.393-.539-3.852-2.216-.439-1.677.539-3.393 2.216-3.852 3.094-.838 6.387.04 8.642 2.295z" fill="#633"/><path d="M61.396 102.891a9.45 9.45 0 0 1-4.571 4.79c-.719.339-1.477.599-2.255.758a16.01 16.01 0 0 0 2.455-5.13c.259.02.519.02.778.02 1.237 0 2.435-.16 3.593-.439z" fill="#fff"/><path d="M55.048 114.727v8.982h-4.591v-8.982c.758.1 1.517.18 2.275.18.798-.02 1.557-.08 2.315-.18z" fill="#f9dcb2"/><path d="M47.823 71.395a8.95 8.95 0 0 1 2.315 8.623 3.15 3.15 0 0 1-3.034 2.335 3.98 3.98 0 0 1-.818-.1c-1.677-.459-2.675-2.176-2.216-3.852.24-.898-.02-1.876-.679-2.555-.659-.659-1.637-.918-2.555-.679-1.677.459-3.393-.539-3.852-2.216-.439-1.677.539-3.393 2.216-3.852 3.074-.838 6.367.04 8.623 2.295z" fill="#633"/><path d="M50.757 102.313a9.28 9.28 0 0 1-1.756 3.034c-.818.958-1.816 1.717-2.934 2.275-.04.02-2.814.978-4.191.978-1.417 0-2.794-.319-4.092-.918-3.233-1.557-5.329-4.89-5.329-8.483v-1.657a44.02 44.02 0 0 0 6.666 2.715c3.772 1.198 7.684 1.876 11.636 2.056z" fill="#fff"/><path d="M44.17 114.727v8.982H39.58v-8.982a14.63 14.63 0 0 0 2.295.18 21.79 21.79 0 0 0 2.295-.18z" fill="#f9dcb2"/><path d="M37.245 34.33a3.13 3.13 0 0 1 2.216 3.852c-.459 1.677-2.176 2.675-3.852 2.216a1.47 1.47 0 0 0-1.816 1.816c.459 1.677-.539 3.393-2.216 3.852-.279.08-.539.1-.818.1-1.377 0-2.655-.918-3.034-2.335-.719-2.675.06-5.549 2.016-7.505a7.84 7.84 0 0 1 7.505-1.996z" fill="#633"/></svg>