<svg xmlns="http://www.w3.org/2000/svg" width="138.845" height="134.941" viewBox="0 0 177.722 172.725" xmlns:v="https://vecta.io/nano"><path d="M176.049 89.615c1.731 2.487 2.148 5.649 1.114 8.454-3.819 10.404-13.586 17.187-24.567 17.187-.418 0-.835-.02-1.273-.04-7.102-.338-13.407-3.501-17.903-8.414v16.312c0 4.018 3.024 7.4 6.903 7.678a7.43 7.43 0 0 0 7.579-4.814c1.412-3.74 4.854-6.147 8.773-6.147a9.39 9.39 0 0 1 7.698 4.018c1.731 2.487 2.148 5.63 1.114 8.454a26.07 26.07 0 0 1-24.567 17.187c-.418 0-.835-.02-1.273-.02-13.964-.656-24.905-12.293-24.905-26.477V87.367c0-1.313-1.074-2.387-2.387-2.387s-2.387 1.074-2.387 2.387v76.009c0 5.152-4.197 9.349-9.349 9.349s-9.349-4.177-9.349-9.349V87.367c0-1.313-1.074-2.387-2.387-2.387s-2.387 1.074-2.387 2.387v76.009c0 5.152-4.197 9.349-9.349 9.349s-9.349-4.177-9.349-9.349V87.367c0-1.313-1.074-2.387-2.387-2.387s-2.387 1.074-2.387 2.387v35.687c0 14.183-10.941 25.8-24.905 26.477-.418.02-.835.02-1.273.02a26.07 26.07 0 0 1-24.567-17.187c-1.034-2.825-.617-5.988 1.114-8.454 1.751-2.506 4.635-4.018 7.678-4.018 3.919 0 7.36 2.407 8.773 6.147 1.194 3.123 4.237 5.073 7.579 4.814 3.859-.278 6.883-3.66 6.883-7.678v-16.312c-4.496 4.894-10.802 8.076-17.903 8.414-.418.02-.855.04-1.273.04A26.07 26.07 0 0 1 .559 98.129c-1.034-2.825-.617-5.988 1.114-8.454 1.751-2.506 4.635-3.998 7.678-3.998 3.919 0 7.36 2.407 8.773 6.147 1.194 3.123 4.237 5.053 7.579 4.814 3.859-.298 6.903-3.66 6.903-7.678l.02-25.9c.398-8.315 4.734-15.834 11.717-20.429C45.416 18.918 64.97 0 88.861 0s43.445 18.918 44.499 42.55c6.982 4.615 11.319 12.114 11.717 20.449.02.219.02 25.88.02 25.88 0 4.018 3.024 7.38 6.903 7.678 3.342.259 6.385-1.691 7.579-4.814 1.412-3.74 4.854-6.147 8.773-6.147 3.063.02 5.948 1.512 7.698 4.018z" fill="#633"/><path d="M170.32 93.633c.259.358.617 1.114.278 2.049a19.18 19.18 0 0 1-7.579 9.509c-.975-.776-2.327-.995-3.541-.477-1.213.537-1.969 1.691-2.029 2.924-1.85.477-3.799.696-5.789.597-1.174-.06-2.327-.219-3.421-.477a3.43 3.43 0 0 0-2.109-2.884c-1.233-.517-2.566-.259-3.521.557-2.646-1.631-4.854-3.899-6.445-6.604.816-.935 1.094-2.288.617-3.521a3.43 3.43 0 0 0-2.864-2.148c-.318-1.412-.497-2.884-.497-4.396v-3.183c1.233-.517 2.109-1.731 2.109-3.163s-.875-2.646-2.109-3.163v-7.897c1.233-.517 2.109-1.731 2.109-3.163s-.875-2.646-2.109-3.163v-1.293a3.51 3.51 0 0 0-3.501-3.501 3.51 3.51 0 0 0-3.501 3.501v59.379c0 7.659 5.868 14.084 13.368 14.661 6.465.497 12.353-3.262 14.641-9.31.378-.995 1.253-1.631 2.248-1.631 1.114 0 1.731.716 1.949 1.015.259.358.617 1.114.278 2.049-1.472 4.038-4.177 7.32-7.579 9.528-.975-.776-2.327-1.015-3.541-.458a3.45 3.45 0 0 0-2.049 2.924c-1.85.477-3.799.696-5.789.597-1.174-.06-2.327-.219-3.421-.477-.1-1.233-.875-2.367-2.089-2.884-1.233-.497-2.586-.259-3.521.557-2.646-1.631-4.854-3.899-6.445-6.604.816-.935 1.094-2.288.617-3.521a3.43 3.43 0 0 0-2.864-2.148c-.318-1.412-.497-2.884-.497-4.396v-3.183c1.233-.517 2.109-1.731 2.109-3.163s-.875-2.646-2.109-3.163v-7.897c1.233-.517 2.109-1.731 2.109-3.163s-.875-2.646-2.109-3.163V87.327a9.41 9.41 0 0 0-9.389-9.389 9.41 9.41 0 0 0-9.389 9.389v11.06c-1.233.517-2.109 1.731-2.109 3.163s.875 2.646 2.109 3.163v7.897c-1.233.517-2.109 1.731-2.109 3.163s.875 2.646 2.109 3.163v7.877c-1.233.517-2.109 1.731-2.109 3.163s.875 2.646 2.109 3.163v7.937c-1.233.517-2.109 1.731-2.109 3.163s.875 2.646 2.109 3.163v7.897c-1.233.517-2.109 1.731-2.109 3.163s.875 2.646 2.109 3.163v1.711c0 1.293-1.054 2.347-2.347 2.347s-2.347-1.054-2.347-2.347V87.367a9.41 9.41 0 0 0-9.389-9.389 9.41 9.41 0 0 0-9.389 9.389v76.009c0 1.293-1.054 2.347-2.347 2.347s-2.347-1.054-2.347-2.347v-1.711c1.233-.517 2.109-1.731 2.109-3.163s-.875-2.646-2.109-3.163v-7.897c1.233-.517 2.109-1.731 2.109-3.163s-.875-2.646-2.109-3.163v-7.897.02c1.233-.517 2.109-1.731 2.109-3.163s-.875-2.646-2.109-3.163v-7.917c1.233-.517 2.109-1.731 2.109-3.163s-.875-2.646-2.109-3.163v-7.897c1.233-.517 2.109-1.731 2.109-3.163s-.875-2.646-2.109-3.163v-11.06a9.41 9.41 0 0 0-9.389-9.389 9.41 9.41 0 0 0-9.389 9.389v11.935c-1.233.517-2.109 1.731-2.109 3.163s.875 2.646 2.109 3.163v7.897c-1.233.517-2.109 1.731-2.109 3.163s.875 2.646 2.109 3.163v3.183c0 1.512-.179 2.984-.497 4.396-1.233.119-2.367.915-2.864 2.148s-.199 2.586.617 3.521c-1.591 2.685-3.799 4.953-6.445 6.604-.955-.796-2.308-1.054-3.521-.557-1.233.517-1.989 1.651-2.109 2.884-1.114.259-2.248.418-3.421.477a19.3 19.3 0 0 1-5.789-.597c-.08-1.233-.816-2.387-2.049-2.924a3.4 3.4 0 0 0-3.541.477c-3.402-2.208-6.087-5.49-7.579-9.528-.338-.935.04-1.671.278-2.049.219-.298.835-1.015 1.969-1.015.975 0 1.85.637 2.228 1.631 2.168 5.689 7.499 9.349 13.527 9.349a20.11 20.11 0 0 0 1.114-.04c7.499-.577 13.368-7.002 13.368-14.661V63.755a3.51 3.51 0 0 0-3.501-3.501 3.51 3.51 0 0 0-3.501 3.501v1.293c-1.233.517-2.109 1.731-2.109 3.163s.875 2.646 2.109 3.163v7.897c-1.233.517-2.109 1.731-2.109 3.163s.875 2.646 2.109 3.163v3.183c0 1.512-.179 2.984-.497 4.396-1.233.119-2.367.915-2.864 2.148s-.199 2.586.617 3.521c-1.591 2.685-3.799 4.953-6.445 6.604-.955-.796-2.308-1.054-3.521-.557-1.233.517-1.989 1.651-2.109 2.884a19.42 19.42 0 0 1-3.421.477 19.3 19.3 0 0 1-5.789-.597c-.08-1.233-.816-2.387-2.029-2.924a3.4 3.4 0 0 0-3.541.477c-3.402-2.208-6.087-5.49-7.579-9.509-.338-.935.04-1.691.278-2.049.219-.298.835-1.015 1.969-1.015.975 0 1.85.637 2.228 1.631 2.168 5.709 7.519 9.349 13.527 9.349.378 0 .756-.02 1.134-.04 7.499-.577 13.368-7.002 13.368-14.661l.02-25.542c.318-6.584 3.998-12.472 9.867-15.735.08-.04.119-.08.159-.099.975-.617 1.631-1.711 1.631-2.964 0-20.708 16.849-37.557 37.557-37.557s37.557 16.849 37.557 37.557c0 1.253.656 2.347 1.651 2.964.04.02.08.06.159.099 5.868 3.262 9.568 9.15 9.886 15.755l.02 25.522c0 7.659 5.868 14.084 13.368 14.661 6.465.477 12.353-3.242 14.641-9.31.378-.995 1.253-1.631 2.248-1.631a2.29 2.29 0 0 1 1.949.995z" fill="#4ec8d8"/><path d="M115.039 51.581a3.42 3.42 0 1 1 0 6.843 3.42 3.42 0 1 1 0-6.843zM88.861 16.113a3.51 3.51 0 0 1 3.501 3.501 3.51 3.51 0 0 1-3.501 3.501c-7.499 0-14.342 3.839-18.281 10.264a3.5 3.5 0 0 1-2.984 1.671c-.617 0-1.253-.159-1.83-.517-1.651-1.015-2.148-3.163-1.154-4.814 5.232-8.534 14.303-13.606 24.249-13.606zM62.703 51.581a3.42 3.42 0 1 1 0 6.843 3.42 3.42 0 0 1-3.421-3.421c-.02-1.89 1.532-3.421 3.421-3.421z" fill="#633"/></svg>