<?xml version="1.0" encoding="UTF-8" standalone="no"?>
<!-- Created with Inkscape (http://www.inkscape.org/) -->

<svg
   id="svg2"
   sodipodi:docname="nicubunu_Game_baddie_Bricky.svg"
   inkscape:export-filename="/home/nicu/Desktop/pacman/pacman.png"
   viewBox="0 0 117.02637 108.00936"
   sodipodi:version="0.32"
   inkscape:export-xdpi="90"
   version="1.0"
   inkscape:output_extension="org.inkscape.output.svg.inkscape"
   inkscape:export-ydpi="90"
   inkscape:version="1.2.2 (732a01da63, 2022-12-09)"
   width="117.02637"
   height="108.00936"
   xmlns:inkscape="http://www.inkscape.org/namespaces/inkscape"
   xmlns:sodipodi="http://sodipodi.sourceforge.net/DTD/sodipodi-0.dtd"
   xmlns:xlink="http://www.w3.org/1999/xlink"
   xmlns="http://www.w3.org/2000/svg"
   xmlns:svg="http://www.w3.org/2000/svg"
   xmlns:rdf="http://www.w3.org/1999/02/22-rdf-syntax-ns#"
   xmlns:cc="http://creativecommons.org/ns#"
   xmlns:dc="http://purl.org/dc/elements/1.1/">
  <defs
     id="defs4">
    <linearGradient
       id="linearGradient2315">
      <stop
         id="stop2317"
         style="stop-color:#000000;stop-opacity:0"
         offset="0" />
      <stop
         id="stop2319"
         style="stop-color:#000000;stop-opacity:.57196"
         offset="1" />
    </linearGradient>
    <filter
       id="filter3730"
       height="1.6816748"
       width="1.6960537"
       y="-0.34083741"
       x="-0.34802687"
       inkscape:collect="always">
      <feGaussianBlur
         id="feGaussianBlur3732"
         stdDeviation="5.4650567"
         inkscape:collect="always" />
    </filter>
    <filter
       id="filter4065"
       height="1.7379839"
       width="2.811415"
       y="-0.36899194"
       x="-0.90570748"
       inkscape:collect="always">
      <feGaussianBlur
         id="feGaussianBlur4067"
         stdDeviation="4.1511594"
         inkscape:collect="always" />
    </filter>
    <filter
       id="filter4112"
       height="1.6802"
       width="1.1400412"
       y="-0.34009998"
       x="-0.070020583"
       inkscape:collect="always">
      <feGaussianBlur
         id="feGaussianBlur4114"
         stdDeviation="3.9678331"
         inkscape:collect="always" />
    </filter>
    <radialGradient
       id="radialGradient2845"
       gradientUnits="userSpaceOnUse"
       cy="506.35001"
       cx="210.89"
       gradientTransform="matrix(1.4028,1.6439e-6,-1.4521e-7,0.20588,-89.845,403.11)"
       r="68"
       inkscape:collect="always">
      <stop
         id="stop4074"
         style="stop-color:#000000"
         offset="0" />
      <stop
         id="stop4076"
         style="stop-color:#000000;stop-opacity:0"
         offset="1" />
    </radialGradient>
    <radialGradient
       id="radialGradient2847"
       xlink:href="#linearGradient2315"
       gradientUnits="userSpaceOnUse"
       cy="497.95999"
       cx="216.99001"
       gradientTransform="matrix(0.7158,1.4128,-1.3538,0.68592,735.84,-155.77)"
       r="65"
       inkscape:collect="always" />
    <radialGradient
       id="radialGradient2849"
       xlink:href="#linearGradient2315"
       gradientUnits="userSpaceOnUse"
       cy="409.85999"
       cx="233.5"
       gradientTransform="matrix(0.3871,1.5161,-1.4234,0.36342,726.51,-93.107)"
       r="15.5"
       inkscape:collect="always" />
    <radialGradient
       inkscape:collect="always"
       xlink:href="#linearGradient2315"
       id="radialGradient2029"
       gradientUnits="userSpaceOnUse"
       gradientTransform="matrix(0.3871,1.5161,-1.4234,0.36342,726.51,-93.107)"
       cx="233.5"
       cy="409.85999"
       r="15.5" />
  </defs>
  <sodipodi:namedview
     id="base"
     inkscape:zoom="0.721875"
     height="640px"
     borderopacity="1.0"
     inkscape:current-layer="layer1"
     inkscape:cx="63.722944"
     inkscape:cy="-42.943723"
     showgrid="false"
     width="128px"
     inkscape:guide-bbox="true"
     showguides="true"
     bordercolor="#666666"
     inkscape:window-x="1912"
     guidetolerance="10"
     objecttolerance="10"
     inkscape:window-y="-8"
     inkscape:window-width="1920"
     inkscape:pageopacity="0.0"
     inkscape:pageshadow="2"
     pagecolor="#ffffff"
     gridtolerance="10000"
     inkscape:document-units="px"
     inkscape:window-height="1017"
     inkscape:showpageshadow="2"
     inkscape:pagecheckerboard="0"
     inkscape:deskcolor="#d1d1d1"
     inkscape:window-maximized="1">
    <inkscape:grid
       id="grid3194"
       originy="-21.80945"
       originx="-5.4832258"
       spacingy="1"
       spacingx="1"
       type="xygrid" />
  </sodipodi:namedview>
  <g
     id="layer1"
     inkscape:label="Layer 1"
     inkscape:groupmode="layer"
     transform="translate(-238.90323,-33.54445)">
    <g
       id="g2817"
       transform="matrix(0.71287,0,0,0.71287,148.43,-234.5)">
      <path
         id="path2819"
         style="fill:url(#radialGradient2845);filter:url(#filter4112)"
         transform="matrix(1.0588,0,0,0.85714,-9.1176,72.48)"
         d="m 274,507.36 c 0,7.73 -30.46,14 -68,14 -37.54,0 -68,-6.27 -68,-14 0,-7.73 30.46,-14 68,-14 37.54,0 68,6.27 68,14 z" />
      <path
         id="path2821"
         style="fill:#e9c4af"
         sodipodi:nodetypes="cccsssccssc"
         transform="translate(-31,-85)"
         d="m 305,531.36 c 0,4.85 -0.53,37.56 -1.54,42.11 -2.47,12.46 -10.48,19.63 -22.51,22.36 -5.59,1.04 -11.95,-21.82 -18.85,-21.95 -6.9,-0.13 -14.34,22.48 -22.1,22.48 -7.8,0 -15.27,-22.62 -22.2,-22.52 -6.93,0.11 -13.31,22.94 -18.91,21.86 -12.68,-2.1 -19.32,-10.78 -22.44,-22.64 -0.95,-4.42 -1.45,-37 -1.45,-41.7 0,-35.88 29.12,-65 65,-65 35.88,0 65,29.12 65,65 z" />
      <path
         id="rect3446"
         style="fill:#c86f23"
         d="m 200.84,389.41 c -5.8,0 -11.34,1.07 -16.46,3.03 v 6.72 h 30.46 v -7.63 c -4.41,-1.4 -9.12,-2.12 -14,-2.12 z m 15.69,2.71 v 7.04 h 12.75 c -3.82,-2.98 -8.1,-5.36 -12.75,-7.04 z m -34.06,1.07 c -3.62,1.56 -6.99,3.58 -10.06,5.97 h 10.06 z m -11.63,7.25 c -1.62,1.38 -3.14,2.85 -4.56,4.44 v 7.46 h 30.47 v -11.9 z m 27.6,0 v 11.9 h 30.44 v -11.9 z m 31.94,0 v 11.9 h 10.46 c -2.64,-4.51 -6.04,-8.53 -10,-11.9 z m -66,6.72 c -1.29,1.63 -2.48,3.38 -3.54,5.18 h 3.54 z m -4.29,6.5 c -2,3.69 -3.49,7.69 -4.43,11.9 h 24.9 v -11.9 z m 22.38,0 v 11.9 h 30.47 v -11.9 z m 32.15,0 v 11.9 h 30.44 v -3.72 c -0.9,-2.86 -2.05,-5.59 -3.47,-8.18 z m -59.28,13.4 c -0.53,2.82 -0.84,5.69 -0.84,8.66 0,0.48 0.05,2.06 0.06,3.25 h 9.82 v -11.91 z m 10.94,0 v 11.91 h 30.47 v -11.91 z m 32.16,0 v 11.91 h 30.44 v -11.91 z m 31.94,0 v 11.91 h 16.78 c 0.01,-1.19 0.03,-2.76 0.03,-3.25 0,-2.97 -0.28,-5.85 -0.81,-8.66 z m -75.82,13.22 c 0.05,3.29 0.13,7.48 0.25,11.91 h 25.75 v -11.91 z m 27.91,0 v 11.91 h 30.47 v -11.91 z m 32.15,0 v 11.91 h 30.44 v -11.91 z m 31.94,0 v 11.91 h 0.32 c 0.13,-4.44 0.19,-8.63 0.24,-11.91 z m -91.68,13.81 c 0.16,5.32 0.37,10.05 0.65,11.35 0.05,0.19 0.11,0.37 0.16,0.56 h 8.69 v -11.91 z m 11.4,0 V 466 h 18.75 11.72 v -11.91 z m 32.16,0 V 466 h 30.44 v -11.91 z m 31.94,0 V 466 h 15.65 c 0.02,-0.09 0.05,-0.16 0.06,-0.25 0.3,-1.35 0.54,-6.23 0.72,-11.66 z m -74.29,13.22 c 1.68,5.19 4.44,9.37 8.75,11.91 h 9.97 c 1.83,-2.53 3.75,-6.55 5.75,-9.5 v -2.41 z m 26.38,0 v 0.03 l 0.03,-0.03 z m 5.22,0 c 2.82,2.59 5.75,8.4 8.78,11.91 h 8.72 c 2.64,-3.08 5.25,-7.92 7.75,-10.81 v -1.1 z m 31.37,0 c 2.69,2.6 5.26,8.53 7.66,11.91 h 9.94 c 3.89,-2.17 6.76,-5.41 8.4,-9.84 v -2.07 z"
         transform="matrix(1.4028,0,0,1.4028,-72.748,-164.87)" />
      <path
         id="path2823"
         sodipodi:nodetypes="cccsssccssc"
         style="fill:url(#radialGradient2847)"
         transform="translate(-31,-85)"
         d="m 305,531.36 c 0,4.85 -0.53,37.56 -1.54,42.11 -2.47,12.46 -10.48,19.63 -22.51,22.36 -5.59,1.04 -11.95,-21.82 -18.85,-21.95 -6.9,-0.13 -14.34,22.48 -22.1,22.48 -7.8,0 -15.27,-22.62 -22.2,-22.52 -6.93,0.11 -13.31,22.94 -18.91,21.86 -12.68,-2.1 -19.32,-10.78 -22.44,-22.64 -0.95,-4.42 -1.45,-37 -1.45,-41.7 0,-35.88 29.12,-65 65,-65 35.88,0 65,29.12 65,65 z" />
      <g
         id="g2825"
         transform="translate(5,10)">
        <circle
           id="path2827"
           style="fill:#ffffff"
           transform="translate(4,7)"
           cx="239.5"
           cy="417.86218"
           r="15.5" />
        <circle
           id="path2829"
           style="fill:url(#radialGradient2029)"
           transform="translate(4,7)"
           cx="239.5"
           cy="417.86218"
           r="15.5" />
        <circle
           id="path2831"
           style="fill:#000000"
           transform="matrix(0.6129,0,0,0.6129,101.71,169.75)"
           cx="239.5"
           cy="417.86218"
           r="15.5" />
      </g>
      <g
         id="g2833"
         transform="translate(-35,10)">
        <circle
           id="path2835"
           style="fill:#ffffff"
           transform="translate(4,7)"
           cx="239.5"
           cy="417.86218"
           r="15.5" />
        <circle
           id="path2837"
           style="fill:url(#radialGradient2849)"
           transform="translate(4,7)"
           cx="239.5"
           cy="417.86218"
           r="15.5" />
        <circle
           id="path2839"
           style="fill:#000000"
           transform="matrix(0.6129,0,0,0.6129,101.71,169.75)"
           cx="239.5"
           cy="417.86218"
           r="15.5" />
      </g>
      <path
         id="path2841"
         style="fill:#ffffff;fill-opacity:0.62745;filter:url(#filter3730)"
         d="m 180.01,413.25 c -10.03,10.27 -20.41,16.42 -23.17,13.72 -2.77,-2.7 3.13,-13.23 13.15,-23.5 10.03,-10.27 20.41,-16.41 23.17,-13.71 2.77,2.7 -3.13,13.22 -13.15,23.49 z" />
      <path
         id="path2843"
         style="fill:#ffffff;fill-opacity:0.43439;filter:url(#filter4065)"
         transform="rotate(39.532819,265.34902,500.25775)"
         d="m 262,501.86 c 0,7.45 -2.46,13.5 -5.5,13.5 -3.04,0 -5.5,-6.05 -5.5,-13.5 0,-7.45 2.46,-13.5 5.5,-13.5 3.04,0 5.5,6.05 5.5,13.5 z" />
    </g>
  </g>
  <metadata
     id="metadata1035">
    <rdf:RDF>
      <cc:Work>
        <dc:format>image/svg+xml</dc:format>
        <dc:type
           rdf:resource="http://purl.org/dc/dcmitype/StillImage" />
        <cc:license
           rdf:resource="http://creativecommons.org/licenses/publicdomain/" />
        <dc:publisher>
          <cc:Agent
             rdf:about="http://openclipart.org/">
            <dc:title>Openclipart</dc:title>
          </cc:Agent>
        </dc:publisher>
        <dc:title>Game baddie: Bricky</dc:title>
        <dc:date>2008-02-04T14:55:26</dc:date>
        <dc:description>Bad guy for arcade games, inspired from the classic Pac-Man: Bricky</dc:description>
        <dc:source>https://openclipart.org/detail/12546/game-baddie:-bricky-by-nicubunu</dc:source>
        <dc:creator>
          <cc:Agent>
            <dc:title>nicubunu</dc:title>
          </cc:Agent>
        </dc:creator>
        <dc:subject>
          <rdf:Bag>
            <rdf:li>arcade</rdf:li>
            <rdf:li>baddie</rdf:li>
            <rdf:li>funny</rdf:li>
            <rdf:li>game</rdf:li>
          </rdf:Bag>
        </dc:subject>
      </cc:Work>
      <cc:License
         rdf:about="http://creativecommons.org/licenses/publicdomain/">
        <cc:permits
           rdf:resource="http://creativecommons.org/ns#Reproduction" />
        <cc:permits
           rdf:resource="http://creativecommons.org/ns#Distribution" />
        <cc:permits
           rdf:resource="http://creativecommons.org/ns#DerivativeWorks" />
      </cc:License>
    </rdf:RDF>
  </metadata>
</svg>
