<svg version="1.0" width="117.026" height="108.009" xmlns:xlink="http://www.w3.org/1999/xlink" xmlns="http://www.w3.org/2000/svg"><defs><radialGradient id="prefix__b" gradientUnits="userSpaceOnUse" cy="506.35" cx="210.89" gradientTransform="matrix(1.4028 0 0 .20588 -89.845 403.11)" r="68"><stop offset="0"/><stop offset="1" stop-opacity="0"/></radialGradient><radialGradient id="prefix__d" xlink:href="#prefix__a" gradientUnits="userSpaceOnUse" cy="497.96" cx="216.99" gradientTransform="matrix(.7158 1.4128 -1.3538 .68592 735.84 -155.77)" r="65"/><radialGradient id="prefix__f" xlink:href="#prefix__a" gradientUnits="userSpaceOnUse" cy="409.86" cx="233.5" gradientTransform="matrix(.3871 1.5161 -1.4234 .36342 726.51 -93.107)" r="15.5"/><radialGradient xlink:href="#prefix__a" id="prefix__e" gradientUnits="userSpaceOnUse" gradientTransform="matrix(.3871 1.5161 -1.4234 .36342 726.51 -93.107)" cx="233.5" cy="409.86" r="15.5"/><filter id="prefix__g" height="1.682" width="1.696" y="-.341" x="-.348"><feGaussianBlur stdDeviation="5.465"/></filter><filter id="prefix__h" height="1.738" width="2.811" y="-.369" x="-.906"><feGaussianBlur stdDeviation="4.151"/></filter><filter id="prefix__c" height="1.68" width="1.14" y="-.34" x="-.07"><feGaussianBlur stdDeviation="3.968"/></filter><linearGradient id="prefix__a"><stop offset="0" stop-opacity="0"/><stop offset="1" stop-opacity=".572"/></linearGradient></defs><path transform="matrix(.75479 0 0 .61103 -96.973 -216.376)" d="M274 507.36c0 7.73-30.46 14-68 14s-68-6.27-68-14 30.46-14 68-14 68 6.27 68 14z" fill="url(#prefix__b)" filter="url(#prefix__c)"/><path d="M104.853 50.152c0 3.458-.378 26.776-1.098 30.02-1.76 8.882-7.47 13.993-16.046 15.939-3.985.741-8.52-15.555-13.438-15.648-4.919-.092-10.223 16.026-15.754 16.026-5.56 0-10.886-16.125-15.826-16.054-4.94.078-9.488 16.353-13.48 15.583-9.04-1.497-13.773-7.684-15.997-16.14-.678-3.15-1.034-26.375-1.034-29.726 0-25.578 20.759-46.336 46.337-46.336 25.577 0 46.336 20.758 46.336 46.336z" fill="#e9c4af"/><path d="M58.51 3.84c-5.8 0-11.34 1.07-16.46 3.03v6.72h30.46V5.96c-4.41-1.4-9.12-2.12-14-2.12zM74.2 6.55v7.04h12.75c-3.82-2.98-8.1-5.36-12.75-7.04zM40.14 7.62a46.055 46.055 0 00-10.06 5.97h10.06zm-11.63 7.25a46.618 46.618 0 00-4.56 4.44v7.46h30.47v-11.9zm27.6 0v11.9h30.44v-11.9zm31.94 0v11.9h10.46a46.508 46.508 0 00-10-11.9zm-66 6.72a45.963 45.963 0 00-3.54 5.18h3.54zm-4.29 6.5c-2 3.69-3.49 7.69-4.43 11.9h24.9v-11.9zm22.38 0v11.9h30.47v-11.9zm32.15 0v11.9h30.44v-3.72c-.9-2.86-2.05-5.59-3.47-8.18zm-59.28 13.4c-.53 2.82-.84 5.69-.84 8.66 0 .48.05 2.06.06 3.25h9.82V41.49zm10.94 0V53.4h30.47V41.49zm32.16 0V53.4h30.44V41.49zm31.94 0V53.4h16.78c.01-1.19.03-2.76.03-3.25 0-2.97-.28-5.85-.81-8.66zM12.23 54.71c.05 3.29.13 7.481.25 11.911h25.75v-11.91zm27.91 0v11.911h30.47v-11.91zm32.15 0v11.911h30.44v-11.91zm31.94 0v11.911h.32c.13-4.44.19-8.63.24-11.91zM12.55 68.522c.16 5.32.37 10.05.65 11.35.05.19.11.37.16.56h8.69v-11.91zm11.4 0v11.91h30.47v-11.91zm32.16 0v11.91h30.44v-11.91zm31.94 0v11.91h15.65c.02-.09.05-.16.06-.25.3-1.35.54-6.23.72-11.66zm-74.29 13.22c1.68 5.19 4.44 9.37 8.75 11.91h9.97c1.83-2.53 3.75-6.55 5.75-9.5v-2.41zm26.38 0v.03l.03-.03zm5.22 0c2.82 2.59 5.75 8.4 8.78 11.91h8.72c2.64-3.08 5.25-7.92 7.75-10.81v-1.1zm31.37 0c2.69 2.6 5.26 8.53 7.66 11.91h9.94c3.89-2.17 6.76-5.41 8.4-9.84v-2.07z" fill="#c86f23"/><path transform="translate(-112.572 -328.638) scale(.71287)" d="M305 531.36c0 4.85-.53 37.56-1.54 42.11-2.47 12.46-10.48 19.63-22.51 22.36-5.59 1.04-11.95-21.82-18.85-21.95-6.9-.13-14.34 22.48-22.1 22.48-7.8 0-15.27-22.62-22.2-22.52-6.93.11-13.31 22.94-18.91 21.86-12.68-2.1-19.32-10.78-22.44-22.64-.95-4.42-1.45-37-1.45-41.7 0-35.88 29.12-65 65-65 35.88 0 65 29.12 65 65z" fill="url(#prefix__d)"/><g transform="translate(-86.909 -260.916) scale(.71287)"><circle transform="translate(4 7)" cx="239.5" cy="417.862" r="15.5" fill="#fff"/><circle transform="translate(4 7)" cx="239.5" cy="417.862" r="15.5" fill="url(#prefix__e)"/><circle transform="translate(101.71 169.75) scale(.6129)" cx="239.5" cy="417.862" r="15.5"/></g><g transform="translate(-115.424 -260.916) scale(.71287)"><circle transform="translate(4 7)" cx="239.5" cy="417.862" r="15.5" fill="#fff"/><circle transform="translate(4 7)" cx="239.5" cy="417.862" r="15.5" fill="url(#prefix__f)"/><circle transform="translate(101.71 169.75) scale(.6129)" cx="239.5" cy="417.862" r="15.5"/></g><path d="M180.01 413.25c-10.03 10.27-20.41 16.42-23.17 13.72-2.77-2.7 3.13-13.23 13.15-23.5 10.03-10.27 20.41-16.41 23.17-13.71 2.77 2.7-3.13 13.22-13.15 23.49z" fill="#fff" fill-opacity=".627" filter="url(#prefix__g)" transform="translate(-90.473 -268.044) scale(.71287)"/><path transform="rotate(39.533 516.87 96.715) scale(.71287)" d="M262 501.86c0 7.45-2.46 13.5-5.5 13.5s-5.5-6.05-5.5-13.5 2.46-13.5 5.5-13.5 5.5 6.05 5.5 13.5z" fill="#fff" fill-opacity=".434" filter="url(#prefix__h)"/></svg>