<svg version="1.1" xmlns="http://www.w3.org/2000/svg" xmlns:xlink="http://www.w3.org/1999/xlink" width="102.651" height="98.375" viewBox="0,0,102.651,98.375"><defs><radialGradient cx="239.99352" cy="219.63015" r="71.99941" gradientUnits="userSpaceOnUse" id="color-1"><stop offset="0" stop-color="#000000"/><stop offset="1" stop-color="#000000" stop-opacity="0"/></radialGradient><radialGradient cx="223.62396" cy="148.34146" r="73.38711" gradientUnits="userSpaceOnUse" id="color-2"><stop offset="0" stop-color="#000000" stop-opacity="0"/><stop offset="1" stop-color="#000000" stop-opacity="0.57196"/></radialGradient><radialGradient cx="263.8868" cy="162.24204" r="17.28955" gradientUnits="userSpaceOnUse" id="color-3"><stop offset="0" stop-color="#000000" stop-opacity="0"/><stop offset="1" stop-color="#000000" stop-opacity="0.57196"/></radialGradient><radialGradient cx="235.372" cy="162.24204" r="17.28955" gradientUnits="userSpaceOnUse" id="color-4"><stop offset="0" stop-color="#000000" stop-opacity="0"/><stop offset="1" stop-color="#000000" stop-opacity="0.57196"/></radialGradient></defs><g transform="translate(-188.6745,-129.81097)"><g data-paper-data="{&quot;isPaintingLayer&quot;:true}" fill-rule="nonzero" stroke="none" stroke-width="1" stroke-linecap="butt" stroke-linejoin="miter" stroke-miterlimit="10" stroke-dasharray="" stroke-dashoffset="0" style="mix-blend-mode: normal"><path d="M291.32549,219.63156c0,4.72326 -22.9908,8.55441 -51.3255,8.55441c-28.33469,0 -51.3255,-3.83115 -51.3255,-8.55441c0,-4.72326 22.9908,-8.55441 51.3255,-8.55441c28.33469,0 51.3255,3.83115 51.3255,8.55441z" fill="url(#color-1)"/><path d="M286.33997,176.14752c0,3.45742 -0.37782,26.7754 -1.09782,30.01896c-1.76079,8.88236 -7.47088,13.99364 -16.0467,15.93977c-3.98494,0.74138 -8.5188,-15.55482 -13.4376,-15.6475c-4.9188,-0.09267 -10.22256,16.02532 -15.75443,16.02532c-5.56039,0 -10.88552,-16.12512 -15.82571,-16.05383c-4.94019,0.07842 -9.4883,16.35324 -13.48037,15.58334c-9.03919,-1.49703 -13.77265,-7.68474 -15.9968,-16.13938c-0.67723,-3.15089 -1.03366,-26.37619 -1.03366,-29.72668c0,-25.57778 20.75877,-46.33655 46.33655,-46.33655c25.57778,0 46.33655,20.75877 46.33655,46.33655z" fill="#e9c4af"/><path d="M253.99674,131.95549v7.63011h-30.46043v-6.72009c5.12007,-1.96003 10.66015,-3.03004 16.46023,-3.03004c4.88007,0 9.59013,0.72001 14.0002,2.12003zM268.43694,139.5856h-12.75018v-7.0401c4.65007,1.68002 8.93013,4.06006 12.75018,7.0401zM221.62628,139.5856h-10.06014c3.07004,-2.39003 6.44009,-4.41006 10.06014,-5.97008zM235.90648,140.86561v11.90017h-30.47043v-7.4601c1.42002,-1.59002 2.94004,-3.06004 4.56006,-4.44006zM268.03693,140.86561v11.90017h-30.44043v-11.90017zM269.99696,140.86561c3.96006,3.37005 7.3601,7.3901 10.00014,11.90017h-10.46015v-11.90017zM203.53603,152.76578h-3.54005c1.06001,-1.80003 2.25003,-3.55005 3.54005,-5.18007zM219.71625,154.0858v11.90017h-24.90035c0.94001,-4.21006 2.43003,-8.21012 4.43006,-11.90017zM252.09671,154.0858v11.90017h-30.47043v-11.90017zM280.74711,154.0858c1.42002,2.59004 2.57004,5.32007 3.47005,8.18011v3.72005h-30.44043v-11.90017zM203.53603,167.48599v11.91017h-9.82014c-0.01,-1.19002 -0.06,-2.77004 -0.06,-3.25005c0,-2.97004 0.31,-5.84008 0.84001,-8.66012zM235.90648,167.48599v11.91017h-30.47043v-11.91017zM268.03693,167.48599v11.91017h-30.44043v-11.91017zM285.53718,167.48599c0.53001,2.81004 0.81001,5.69008 0.81001,8.66012c0,0.49001 -0.02,2.06003 -0.03,3.25005h-16.78024v-11.91017zM219.71625,180.70617v11.91017h-25.75036c-0.12,-4.43006 -0.2,-8.62012 -0.25,-11.91017zM252.09671,180.70617v11.91017h-30.47043v-11.91017zM284.21716,180.70617v11.91017h-30.44043v-11.91017zM286.27719,180.70617c-0.05,3.28005 -0.11,7.4701 -0.24,11.91017h-0.32v-11.91017zM203.53603,194.51637v11.91017h-8.69012c-0.05,-0.19 -0.11,-0.37001 -0.16,-0.56001c-0.28,-1.30002 -0.49001,-6.03008 -0.65001,-11.35016zM235.90648,194.51637v11.91017h-11.72016h-18.75026v-11.91017zM268.03693,194.51637v11.91017h-30.44043v-11.91017zM285.96718,194.51637c-0.18,5.43008 -0.42001,10.31014 -0.72001,11.66016c-0.01,0.09 -0.04,0.16 -0.06,0.25h-15.65022v-11.91017zM219.71625,207.73655v2.41003c-2.00003,2.95004 -3.92006,6.9701 -5.75008,9.50013h-9.97014c-4.31006,-2.54004 -7.0701,-6.72009 -8.75012,-11.91017zM221.65628,207.73655l-0.03,0.03v-0.03zM252.09671,207.73655v1.10002c-2.50004,2.89004 -5.11007,7.73011 -7.75011,10.81015h-8.72012c-3.03004,-3.51005 -5.96008,-9.32013 -8.78012,-11.91017zM284.21716,207.73655v2.07003c-1.64002,4.43006 -4.51006,7.67011 -8.40012,9.84014h-9.94014c-2.40003,-3.38005 -4.97007,-9.31013 -7.66011,-11.91017z" fill="#c86f23"/><path d="M286.33997,176.14752c0,3.45742 -0.37782,26.7754 -1.09782,30.01896c-1.76079,8.88236 -7.47088,13.99364 -16.0467,15.93977c-3.98494,0.74138 -8.5188,-15.55482 -13.4376,-15.6475c-4.9188,-0.09267 -10.22256,16.02532 -15.75443,16.02532c-5.56039,0 -10.88552,-16.12512 -15.82571,-16.05383c-4.94019,0.07842 -9.4883,16.35324 -13.48037,15.58334c-9.03919,-1.49703 -13.77265,-7.68474 -15.9968,-16.13938c-0.67723,-3.15089 -1.03366,-26.37619 -1.03366,-29.72668c0,-25.57778 20.75877,-46.33655 46.33655,-46.33655c25.57778,0 46.33655,20.75877 46.33655,46.33655z" fill="url(#color-2)"/><g><path d="M257.1123,167.95107c0,-6.10246 4.94702,-11.04949 11.04949,-11.04949c6.10246,0 11.04949,4.94702 11.04949,11.04949c0,6.10246 -4.94702,11.04949 -11.04949,11.04949c-6.10246,0 -11.04949,-4.94702 -11.04949,-11.04949z" fill="#ffffff"/><path d="M257.1123,167.95107c0,-6.10246 4.94702,-11.04949 11.04949,-11.04949c6.10246,0 11.04949,4.94702 11.04949,11.04949c0,6.10246 -4.94702,11.04949 -11.04949,11.04949c-6.10246,0 -11.04949,-4.94702 -11.04949,-11.04949z" fill="url(#color-3)"/><path d="M264.95358,168.66077c0,-3.7402 3.03203,-6.77223 6.77223,-6.77223c3.7402,0 6.77223,3.03203 6.77223,6.77223c0,3.7402 -3.03203,6.77223 -6.77223,6.77223c-3.7402,0 -6.77223,-3.03203 -6.77223,-6.77223z" fill="#000000"/></g><g><path d="M228.5975,167.95107c0,-6.10246 4.94702,-11.04949 11.04949,-11.04949c6.10246,0 11.04949,4.94702 11.04949,11.04949c0,6.10246 -4.94702,11.04949 -11.04949,11.04949c-6.10246,0 -11.04949,-4.94702 -11.04949,-11.04949z" fill="#ffffff"/><path d="M228.5975,167.95107c0,-6.10246 4.94702,-11.04949 11.04949,-11.04949c6.10246,0 11.04949,4.94702 11.04949,11.04949c0,6.10246 -4.94702,11.04949 -11.04949,11.04949c-6.10246,0 -11.04949,-4.94702 -11.04949,-11.04949z" fill="url(#color-4)"/><path d="M236.43878,168.66077c0,-3.7402 3.03203,-6.77223 6.77223,-6.77223c3.7402,0 6.77223,3.03203 6.77223,6.77223c0,3.7402 -3.03203,6.77223 -6.77223,6.77223c-3.7402,0 -6.77223,-3.03203 -6.77223,-6.77223z" fill="#000000"/></g><path d="M219.33732,152.5444c-7.15009,7.32117 -14.54968,11.70533 -16.5172,9.78058c-1.97465,-1.92475 2.23128,-9.43127 9.37424,-16.75245c7.15009,-7.32117 14.54968,-11.6982 16.5172,-9.77345c1.97465,1.92475 -2.23128,9.42414 -9.37424,16.74532z" fill-opacity="0.62745" fill="#ffffff"/><path d="M277.60459,213.9309c-3.38048,4.09607 -7.47824,6.30617 -9.14965,4.92675c-1.67142,-1.37942 -0.27872,-5.822 3.10176,-9.91807c3.38048,-4.09607 7.47824,-6.30617 9.14965,-4.92675c1.67142,1.37942 0.27872,5.822 -3.10176,9.91807z" fill-opacity="0.43439" fill="#ffffff"/></g></g></svg>