<svg version="1.1" xmlns="http://www.w3.org/2000/svg" xmlns:xlink="http://www.w3.org/1999/xlink" width="140.00003" height="68.18932" viewBox="0,0,140.00003,68.18932"><g transform="translate(-169.99999,-145.90534)"><g data-paper-data="{&quot;isPaintingLayer&quot;:true}" fill-rule="nonzero" stroke="none" stroke-width="1" stroke-linecap="butt" stroke-linejoin="miter" stroke-miterlimit="10" stroke-dasharray="" stroke-dashoffset="0" style="mix-blend-mode: normal"><path d="M234.48534,145.90553c0.87796,-0.00445 1.81322,0.34382 2.51562,0.81047c3.42935,1.90834 5.69644,6.29461 4.58673,10.10447c1.25691,0.34058 2.82773,0.45343 4.03543,0.70678c0.23667,-3.79634 3.71412,-6.48907 7.28746,-6.89123c1.28088,-0.13798 2.47506,0.88208 2.7367,2.1081c1.57012,2.69734 1.2481,6.42621 -0.66298,8.89939c-2.77531,1.59958 1.88139,3.06088 2.51535,4.58616c1.40941,-2.72034 4.79526,-4.2972 7.79667,-3.34177c2.97478,2.71211 1.38231,8.53528 -2.37052,9.79961c0.3245,1.19781 1.68415,2.19397 2.26249,3.4438c1.25558,-2.23538 4.36871,-3.70365 6.7324,-2.3593c0.99114,2.0798 1.06584,5.52598 -1.47143,6.5334c-0.49476,0.07931 0.04893,0.85262 0.40424,0.64362c3.012,1.09261 6.61183,0.12076 8.7628,-2.2238c2.23865,-2.10489 3.24758,-5.06541 4.44162,-7.81125c0.9651,-1.42603 -1.66867,-1.46938 -1.80277,-2.78362c-0.78864,-1.61115 1.08696,-2.57982 2.44091,-2.47193c1.60692,0.28482 1.73641,-1.70398 2.12546,-2.77553c-0.34572,-0.97701 -2.12588,-1.06487 -1.85239,-2.38439c-0.18399,-2.11535 2.37944,-2.35735 3.87931,-2.06043c1.86508,-1.53183 0.26903,-3.31291 0.35824,-5.19714c0.61751,-1.72448 2.74604,-1.03544 3.94343,-0.34459c0.95484,-0.28492 1.91247,-0.80836 2.72931,-1.32594c0.12406,-1.34226 -0.32061,-3.49622 1.54001,-3.81056c1.59688,0.29454 2.14233,2.16456 3.17718,3.16473c2.6238,0.31665 5.11503,1.64864 6.77478,3.72357c0.11065,0.13833 0.21756,0.28009 0.3206,0.42494c1.87832,2.9265 2.75315,6.532 2.08546,9.97065c-0.91808,1.45642 -2.70896,1.81188 -4.30055,1.7065c-2.78591,1.85635 -6.59928,2.90419 -9.76225,1.36086c-0.42771,-0.06759 -0.97828,-0.59046 -1.33948,-0.17273c-0.88579,8.46796 -3.18987,17.12772 -8.36623,24.0446c-4.99083,6.02195 -12.7185,8.73964 -20.07259,10.62512c-0.29258,1.86514 1.05289,3.89253 0.51662,5.82903c-0.6932,2.07966 -3.18791,2.16107 -4.97089,2.45687c-0.22213,4.27656 -5.77575,3.25798 -8.5979,2.59083c-2.00573,-2.48893 -3.11976,-5.55999 -4.53808,-8.39825c-0.41916,-0.81795 -0.4363,-2.37142 -1.68554,-2.29921c-4.44399,-0.11496 -8.8456,-0.96444 -13.29042,-0.9296c-0.95599,1.78442 -1.29701,3.83342 -2.22764,5.63889c-0.8375,2.69385 -4.24689,3.78826 -6.73268,2.78683c-0.9104,-0.35807 -1.006,0.92608 -1.38392,1.42617c-1.27066,2.74766 -4.88614,2.37756 -7.36064,2.0345c-1.13355,-0.35971 -3.29358,-1.04457 -2.65711,-2.62875c0.8639,-2.82474 1.28356,-5.74497 2.01116,-8.6008c0.05263,-0.25978 0.07648,-0.58531 -0.19101,-0.74011c-7.65435,-0.11939 -15.37644,0.61086 -22.99008,-0.55497c-6.87333,-1.1236 -13.65884,-3.65806 -18.95605,-8.31113c-1.25671,-0.92818 -3.43534,-2.36167 -2.74799,-4.17411c1.67271,-1.37494 3.97813,0.17882 5.79261,0.2947c0.74974,-1.3593 1.62295,-3.74421 3.65126,-3.26259c1.3118,1.07467 1.0496,2.71002 1.36496,4.144c0.91844,0.83447 2.48203,0.60488 3.51702,0.17076c-0.20996,-1.91281 0.73429,-4.08169 2.50447,-4.92295c2.11501,0.31925 3.79079,2.43276 3.74939,4.59857c0.82887,1.43927 3.00392,0.03031 4.13718,-0.24329c-1.10324,-2.11395 -0.97766,-5.72712 1.54308,-6.79602c2.48537,-0.25126 4.64359,1.69507 5.21594,4.0092c1.43659,-0.53937 2.86481,-2.10503 3.99626,-3.16696c-2.57654,-1.4836 -4.78731,-5.47203 -2.71231,-8.2484c2.58379,-1.08131 6.1765,-0.1411 7.57475,2.39888c1.00701,-0.90892 1.64721,-2.29907 2.51284,-3.33786c-3.64234,-0.48047 -5.69058,-5.8254 -2.99305,-8.4108c2.67565,-0.7508 6.09593,0.10352 7.29764,2.86043c0.83427,-0.77457 1.53625,-1.69702 2.23029,-2.59543c-3.55062,-1.26268 -4.1698,-5.86806 -2.98775,-8.98958c0.46696,-1.8098 2.56483,-2.90323 4.29748,-2.11424c3.0778,0.05924 4.96518,2.98783 5.46978,5.73298c1.55283,-0.69002 3.31755,-1.61199 4.74075,-2.41394c-2.91332,-3.47406 -1.3549,-8.56498 1.45944,-11.53943c0.48648,-0.71431 1.2169,-0.99304 1.99053,-0.99697zM225.21721,161.15971c-0.00613,0.04278 -0.01363,0.0857 -0.02265,0.12851c0.00903,-0.04281 0.01676,-0.08551 0.02287,-0.12829zM216.08697,169.73332c-0.00636,0.04701 -0.0146,0.09401 -0.02461,0.14071c0.01003,-0.04669 0.01836,-0.09348 0.02483,-0.14048z" data-paper-data="{&quot;index&quot;:null}" fill="#0f6f9f"/><path d="M306.72984,155.33958c0.41265,0.51566 0.77351,1.0717 1.07206,1.65534c0.78438,2.51793 1.71677,5.24593 1.02687,7.87496c-1.18014,1.7748 -3.11599,0.59531 -4.71371,1.02029c-3.33247,-0.7157 -6.68515,-1.91434 -8.99057,-4.55396c0.33178,-0.44604 1.04864,0.15513 1.23151,-0.40782c-0.64986,-1.29992 -2.6624,-0.91027 -3.34278,0.11579c-0.11341,0.73894 0.71318,0.59868 1.15408,0.41274c2.29078,3.1908 6.2218,4.59202 9.80727,5.29305c-3.10985,1.69283 -7.09426,1.62049 -10.17136,-0.13595c-1.34406,9.26921 -3.17119,19.43892 -9.96451,26.50635c-6.39158,6.02362 -15.25377,8.35169 -23.77486,9.23129c-1.26752,-4.78871 -1.33431,-10.13458 -3.65,-14.69663c-0.24422,-0.24236 -1.33056,-2.27398 -1.41749,-1.23121c1.74757,2.74919 2.42,6.03506 2.56441,9.2384c0.26339,1.45364 1.01547,2.90364 0.7943,4.38418c0.51037,3.95846 1.44773,7.85712 1.94244,11.79787c-1.73126,1.6092 -4.32774,1.41572 -6.42337,0.91609c-2.14191,-1.70009 -2.82256,-4.4897 -4.04295,-6.81317c-2.51423,-6.2199 -5.27338,-13.64712 -2.41178,-20.26973c-0.47234,-0.77959 -1.22104,0.40324 -1.28018,0.98582c-1.17584,2.0483 -0.67556,4.46698 -0.77231,6.73162c-0.25453,3.02603 1.52705,6.18338 1.36289,8.85771c-5.91597,-0.8344 -11.85537,-1.3948 -17.82278,-1.52277c-0.37569,0.02097 -1.21215,0.31979 -1.09206,-0.34986c1.27003,-4.02327 2.94872,-8.59759 0.96212,-12.67049c-1.02792,0.79231 0.47409,2.11298 0.10394,3.15902c-0.29666,4.99724 -2.24785,9.81815 -3.7335,14.46244c-1.93979,2.37156 -1.73572,6.52894 -5.28996,7.38093c-1.94132,0.2165 -4.10331,0.06736 -5.86133,-0.77634c-0.08314,-2.25405 1.56943,-4.33915 1.40411,-6.68646c1.7183,-6.30563 1.52357,-13.06834 4.65768,-18.92594c-1.92558,0.77025 -2.27977,3.94926 -3.01758,5.92033c-0.91857,2.70807 -1.24126,5.59094 -1.89407,8.30974c-4.7933,0.44613 -9.63024,0.46335 -14.44947,0.42706c-3.63202,0.40415 -7.09635,-0.8661 -10.69492,-1.04559c-3.89687,-1.09627 -8.06458,-2.00063 -11.49323,-4.29998c-2.71468,-1.69061 -5.69532,-3.23206 -7.42602,-6.04774c0.17584,-0.28586 0.47007,-0.70756 0.83193,-0.53662c2.78995,0.51144 5.33652,1.99561 8.20843,2.1088c1.949,0.0792 3.86802,0.34342 5.783,0.63398c4.35979,0.25585 8.81563,-0.8169 12.77815,-2.49312c9.07867,-3.2368 13.28833,-12.39798 18.96302,-19.41383c4.54978,-5.06708 10.15895,-9.62119 16.85818,-11.33117c3.20604,-0.62241 6.51523,-0.70661 9.74496,-0.144c9.60278,2.96776 15.44335,11.89753 21.32155,19.37758c2.27141,3.29465 6.4426,5.33389 10.42046,4.22234c4.07293,-1.00897 6.47188,-4.63356 7.97802,-8.22875c0.31404,-2.2974 1.86786,-4.21049 2.22485,-6.50078c2.16895,-5.67764 4.12046,-12.38319 10.21151,-15.09809c0.9363,-0.41331 1.93087,0.07179 2.90021,-0.20937c2.8701,-0.33957 5.62994,1.1347 7.41807,3.36923zM302.48035,154.46196c-1.39059,-1.69688 -4.18291,-2.32793 -5.8428,-0.6468c-2.50183,1.66984 -1.67104,6.12483 1.25119,6.81066c3.36718,1.24343 6.66619,-2.9159 4.72166,-5.9963c-0.04181,-0.05688 -0.08517,-0.11278 -0.13005,-0.16756zM250.93145,163.57686c-1.73545,-2.0957 -5.83151,-0.59008 -5.47522,2.35525c0.10387,2.07089 2.82397,3.74142 4.58868,2.37742c1.48774,-0.60975 1.90578,-2.41226 1.40647,-3.79355c-0.12929,-0.37002 -0.30675,-0.68178 -0.51987,-0.93915zM255.28287,169.27529c-0.86885,-1.15243 -2.86299,-0.72327 -3.45067,0.58425c-0.59804,1.33559 0.70638,2.88273 2.06329,2.85694c1.33386,-0.14956 2.38919,-1.83489 1.61793,-3.03203c-0.06299,-0.15384 -0.14076,-0.28996 -0.23065,-0.40919zM255.30524,177.40128c-0.53901,-0.63554 -1.67579,-0.64706 -2.24437,0.0016c-0.9154,0.9734 0.08123,2.80774 1.36901,2.61983c0.86546,-0.25074 1.63884,-1.33425 1.10579,-2.20442c-0.05141,-0.16025 -0.13068,-0.29939 -0.23049,-0.41708zM248.57604,171.11141c-1.29683,-1.67876 -4.19796,-1.81843 -5.54784,-0.12098c-1.73641,1.86165 -0.68757,5.46506 1.92516,5.83934c2.84125,0.76565 5.35004,-2.60449 3.97019,-5.14821c-0.09633,-0.20628 -0.21327,-0.39639 -0.34744,-0.57005zM241.50158,162.56887c-2.16352,-2.68493 -7.05301,-2.17278 -8.42965,1.11091c-2.05061,3.23987 1.14847,7.76107 4.81212,7.43321c3.6776,-0.05134 6.24996,-4.71217 4.10498,-7.79243c-0.1404,-0.2737 -0.30416,-0.52414 -0.4875,-0.75168zM264.79414,203.05676c0.12702,2.05973 2.00363,4.95932 -0.63732,6.13709c-0.69307,0.57989 -2.90718,1.4567 -3.05271,-0.00275c-0.29065,-1.95212 -0.93361,-3.88737 -0.83827,-5.87224c1.49304,0.05691 3.3563,-1.04233 4.52832,-0.26215zM241.14194,177.86214c-0.93396,-1.19264 -3.37512,0.16994 -2.53932,1.67137c0.58897,2.03115 3.80529,0.51152 2.77545,-1.21659c-0.05906,-0.18075 -0.13948,-0.33143 -0.23609,-0.4548zM236.19782,172.93166c-1.19245,-1.61631 -4.15809,-1.57603 -5.05648,0.33338c-1.43143,1.96926 0.4541,5.0268 2.85574,4.70298c2.03207,-0.15314 3.68569,-2.6491 2.50949,-4.48189c-0.08115,-0.20244 -0.18545,-0.38726 -0.3088,-0.55447zM229.15651,168.25614c-1.59061,-2.1081 -5.07237,-2.18951 -6.66368,0.08747c-2.15307,2.58052 0.34444,7.09029 3.63216,6.52615c2.80249,-0.2474 4.40356,-3.39571 3.46015,-5.89468c-0.11989,-0.26109 -0.26418,-0.50088 -0.42873,-0.71897zM224.78347,177.93559c-0.54398,-0.66104 -1.63396,-0.80137 -2.35281,-0.3264c-0.88649,0.77136 -0.55808,2.55515 0.64023,2.81234c1.23692,0.33326 2.45736,-1.2213 1.81364,-2.34675c-0.03113,-0.04867 -0.06479,-0.09509 -0.10105,-0.13916zM220.61842,174.21243c-1.45248,-1.87447 -4.90022,0.58213 -3.12812,2.52114c1.20089,2.3618 5.06275,-0.39231 3.26221,-2.32598c-0.04246,-0.06964 -0.08727,-0.13472 -0.13412,-0.19518zM232.17953,201.96499c-0.52758,1.72908 -1.19498,3.47447 -1.96893,5.12967c-0.64684,2.19927 -3.96629,3.28169 -5.79568,2.00955c1.32203,-2.30186 2.13745,-4.84335 3.09104,-7.28628c1.45415,-0.27626 3.35617,-0.16902 4.67357,0.14698z" data-paper-data="{&quot;index&quot;:null}" fill="#cddac4"/><path d="M307.68908,155.07414c1.87838,2.9265 2.75317,6.53214 2.08546,9.97065c-0.91804,1.45653 -2.7091,1.81195 -4.30055,1.70664c-2.78591,1.85638 -6.59942,2.90403 -9.76239,1.36077c-0.42771,-0.06759 -0.97813,-0.59044 -1.33933,-0.17269c-0.88585,8.46837 -3.18987,17.12758 -8.36623,24.0446c-4.99027,6.02195 -12.7185,8.73964 -20.07259,10.62512c-0.29258,1.86514 1.05314,3.89267 0.51687,5.82917c-0.6932,2.07968 -3.18819,2.16104 -4.97117,2.45687c-0.2222,4.27656 -5.77589,3.2578 -8.59804,2.59069c-2.00573,-2.48907 -3.11962,-5.56013 -4.53794,-8.39839c-0.4191,-0.81798 -0.43641,-2.37145 -1.68568,-2.29921c-4.44399,-0.11495 -8.8456,-0.96435 -13.29042,-0.92953c-0.95594,1.78442 -1.29712,3.83342 -2.22778,5.63875c-0.83747,2.69379 -4.24661,3.7884 -6.7324,2.78697c-0.9104,-0.35811 -1.00604,0.9259 -1.38395,1.42603c-1.27056,2.74777 -4.88628,2.37764 -7.36078,2.03464c-1.13355,-0.35964 -3.29355,-1.04464 -2.65711,-2.62875c0.86389,-2.82474 1.28351,-5.74469 2.01116,-8.60052c0.05262,-0.25978 0.07636,-0.58551 -0.19115,-0.74031c-7.65407,-0.11939 -15.37546,0.61088 -22.99008,-0.55495c-6.87319,-1.12354 -13.65856,-3.65806 -18.95605,-8.31113c-1.25676,-0.92825 -3.43517,-2.36167 -2.74785,-4.17411c1.67257,-1.37489 3.97771,0.17879 5.79233,0.29467c0.74966,-1.35926 1.62295,-3.74412 3.65126,-3.26245c1.31181,1.07475 1.04944,2.71015 1.3648,4.14413c0.91832,0.83448 2.48207,0.60497 3.51716,0.17085c-0.21007,-1.91281 0.73404,-4.08181 2.50419,-4.92309c2.11501,0.31922 3.79106,2.43262 3.74967,4.59857c0.82897,1.4392 3.00386,0.03057 4.13704,-0.24304c-1.10316,-2.11395 -0.97756,-5.72696 1.54322,-6.79588c2.48537,-0.25133 4.64377,1.69493 5.21608,4.00906c1.43659,-0.53933 2.8649,-2.10502 3.99626,-3.16696c-2.57646,-1.4836 -4.78745,-5.47203 -2.71245,-8.2484c2.58379,-1.08131 6.17664,-0.14121 7.57475,2.39888c1.00698,-0.90887 1.64725,-2.299 2.51284,-3.33786c-3.64224,-0.48036 -5.69044,-5.82512 -2.99291,-8.41066c2.67565,-0.75079 6.09595,0.1033 7.29764,2.86029c0.83427,-0.77463 1.53618,-1.6969 2.23029,-2.59529c-3.55061,-1.26266 -4.16987,-5.8682 -2.98789,-8.98972c0.46976,-1.81134 2.56665,-2.90471 4.29944,-2.11563c3.07794,0.0591 4.96498,2.98769 5.47034,5.73256c1.55269,-0.68932 3.31769,-1.61164 4.74075,-2.41366c-2.91332,-3.47406 -1.35588,-8.56498 1.4593,-11.53957c1.03722,-1.52373 3.18426,-1.0647 4.50643,-0.18633c3.42935,1.90848 5.69648,6.29447 4.58673,10.10447c1.25691,0.34059 2.8276,0.45338 4.03529,0.70673c0.23669,-3.79634 3.71426,-6.4889 7.28746,-6.89109c1.28088,-0.138 2.47512,0.88201 2.7367,2.1081c1.5701,2.69748 1.2481,6.42607 -0.66298,8.89939c-2.77531,1.59958 1.88129,3.06088 2.51535,4.58616c1.40927,-2.72035 4.79526,-4.29714 7.79667,-3.34177c2.97478,2.71197 1.38222,8.53531 -2.37066,9.79961c0.32451,1.19784 1.68437,2.19378 2.26277,3.44353c1.25551,-2.2354 4.36857,-3.7036 6.73226,-2.3593c0.99123,2.07994 1.06608,5.52613 -1.47129,6.53354c-0.49477,0.07932 0.04881,0.85247 0.40411,0.64347c3.012,1.0926 6.61197,0.12086 8.76294,-2.22366c2.23851,-2.10489 3.24759,-5.06527 4.44162,-7.81111c0.96502,-1.42612 -1.66902,-1.46943 -1.80305,-2.78362c-0.78869,-1.61113 1.08694,-2.57985 2.44091,-2.47193c1.60697,0.28478 1.73653,-1.70387 2.1256,-2.7754c-0.34569,-0.9769 -2.12579,-1.06491 -1.85225,-2.38439c-0.18721,-2.11352 2.37651,-2.35549 3.87582,-2.05862c1.86495,-1.53183 0.2697,-3.31305 0.35909,-5.19728c0.6164,-1.72449 2.74607,-1.03526 3.94357,-0.34438c0.95387,-0.28493 1.91122,-0.80867 2.72792,-1.32625c0.12434,-1.34212 -0.32005,-3.49615 1.54057,-3.81056c1.59688,0.29455 2.14233,2.1647 3.17718,3.16487c2.79859,0.33776 5.4465,1.83084 7.09524,4.14846M307.79673,157.0023c-1.59229,-3.11302 -4.95779,-5.44262 -8.49029,-5.02471c-0.96934,0.28116 -1.96391,-0.20394 -2.90021,0.20937c-6.09105,2.71475 -8.04256,9.42045 -10.21151,15.09809c-0.35698,2.29029 -1.9108,4.20338 -2.22485,6.50078c-1.50614,3.59519 -3.9051,7.21964 -7.97802,8.22861c-3.978,1.11155 -8.14919,-0.92755 -10.4206,-4.2222c-5.8782,-7.48018 -11.71877,-16.40996 -21.32155,-19.37758c-3.22973,-0.5626 -6.53892,-0.47841 -9.74496,0.14386c-6.69922,1.70999 -12.30839,6.26409 -16.85818,11.33117c-5.67469,7.01586 -9.88436,16.17703 -18.96302,19.40965c-3.96252,1.6762 -8.41822,2.74897 -12.77801,2.49312c-1.91484,-0.29056 -3.83387,-0.55481 -5.78286,-0.63401c-2.87191,-0.11319 -5.41862,-1.59737 -8.20857,-2.1088c-0.36187,-0.17094 -0.65603,0.25078 -0.83186,0.53664c1.7307,2.81568 4.71134,4.35727 7.42602,6.04788c3.42865,2.29935 7.59636,3.20343 11.49323,4.2997c3.59856,0.1795 7.0629,1.44981 10.69492,1.04566c4.81798,0.03627 9.65477,0.01914 14.44808,-0.42699c0.65286,-2.7188 0.97578,-5.60167 1.89435,-8.30974c0.73795,-1.97107 1.09201,-5.15008 3.01758,-5.92033c-3.13412,5.85747 -2.93938,12.62031 -4.65768,18.92594c0.16545,2.34717 -1.48725,4.43227 -1.40411,6.68632c1.75802,0.8437 3.92,0.99282 5.86133,0.77632c3.5541,-0.85213 3.35017,-5.00951 5.28996,-7.38107c1.48551,-4.64429 3.4367,-9.4652 3.73336,-14.46244c0.37016,-1.04604 -1.13185,-2.36658 -0.10392,-3.15888c1.98669,4.0729 0.30785,8.64721 -0.96217,12.67049c-0.12009,0.66966 0.71634,0.3708 1.09203,0.34983c5.96867,0.12796 11.9082,0.68823 17.82418,1.52263c0.16423,-2.67448 -1.61734,-5.83168 -1.36282,-8.85771c0.09676,-2.2645 -0.4036,-4.68318 0.77224,-6.73148c0.05914,-0.58258 0.80779,-1.76532 1.28014,-0.98573c-2.86159,6.62276 -0.10231,14.04983 2.41192,20.26973c1.22038,2.32347 1.90104,5.11294 4.04295,6.81303c2.09564,0.49964 4.69197,0.69326 6.42323,-0.91594c-0.4947,-3.94062 -1.43193,-7.83941 -1.9423,-11.79787c0.22118,-1.48054 -0.531,-2.93055 -0.7944,-4.38418c-0.14427,-3.2032 -0.8167,-6.48907 -2.56427,-9.23826c0.08693,-1.04288 1.17313,0.98874 1.41735,1.2311c2.31565,4.56191 2.38261,9.90792 3.65014,14.69663c8.52109,-0.87959 17.38327,-3.20766 23.77486,-9.23129c6.79332,-7.06743 8.62032,-17.23714 9.96437,-26.50635c3.0771,1.75642 7.06164,1.82877 10.1715,0.13593c-3.58533,-0.70103 -7.51649,-2.10211 -9.80727,-5.29291c-0.4409,0.18594 -1.26746,0.32617 -1.15405,-0.41277c0.68051,-1.02606 2.69292,-1.41577 3.34278,-0.11585c-0.18287,0.56295 -0.8997,-0.03818 -1.23148,0.40786c2.30542,2.63976 5.65824,3.83825 8.99071,4.55396c1.59786,-0.42498 3.53343,0.75443 4.71357,-1.02037c0.68991,-2.62889 -0.24233,-5.35689 -1.02671,-7.87482M299.19469,150.55006c-0.52663,-0.61439 -0.86767,-1.60571 -1.72262,-1.83711c-0.96962,0.29203 -1.23799,1.61806 -0.78721,2.42885c0.68442,-0.19677 2.41798,0.33432 2.50991,-0.59178M292.26546,153.21353c-1.15269,-1.15198 -3.07356,0.16462 -2.2834,1.62913c0.54642,1.37599 2.65672,-0.61709 2.2834,-1.62913M288.36496,159.31507c-1.16045,-1.10333 -3.70939,0.79704 -2.17788,2.11214c1.20483,1.43217 1.95647,-1.07334 2.17788,-2.11214M285.449,166.58951c-1.18136,-0.92713 -3.50643,0.8767 -1.92711,2.08134c1.14453,1.28803 1.95755,-1.1576 1.92711,-2.08134M265.44606,164.52169c-1.96781,-1.97024 -6.51631,-0.19084 -6.81701,2.63014c1.57389,1.40052 2.95402,6.34535 5.60137,3.59714c1.40899,-1.66231 1.73887,-4.16016 1.21569,-6.22728M254.57328,152.54338c-0.31995,-0.57493 -0.95197,-0.89503 -1.57277,-1.02521c-2.91192,0.61753 -6.52872,2.79338 -6.02791,6.24638c2.00266,1.33417 4.06373,2.66847 6.07461,3.98383c3.14554,-1.76699 2.90405,-6.3526 1.52607,-9.20494M271.21958,174.73819c-1.54587,-1.60363 -5.74899,0.46976 -4.61028,2.76173c0.87176,0.85179 1.8496,2.75042 3.34027,2.0904c1.57146,-0.93145 1.90767,-3.22314 1.27002,-4.85213M238.68708,149.46973c-1.11375,-1.44025 -3.08198,-2.98978 -4.99306,-2.20596c-3.17816,2.42523 -4.455,7.73514 -1.54308,10.78515c2.72373,-0.65379 5.51438,-1.06042 8.32524,-1.26117c1.16379,-2.44865 -0.33929,-5.30183 -1.78953,-7.31807M264.7883,203.06379c-1.17202,-0.78016 -3.03528,0.31906 -4.52832,0.26215c-0.09535,1.98474 0.54767,3.92012 0.83832,5.87224c0.14567,1.45946 2.35979,0.58251 3.05285,0.00262c2.64088,-1.17776 0.76427,-4.07736 0.63725,-6.13709M223.70781,157.73179c-1.33594,-1.61649 -4.44747,-2.59688 -5.88712,-0.65132c-1.12588,2.73121 -1.11138,6.9544 2.09089,8.27503c1.83692,-1.05175 3.47688,-2.56062 5.20535,-3.80387c0.49108,-1.37014 -0.69444,-2.7484 -1.40912,-3.81976M216.06601,169.16861c-0.93561,-2.05446 -3.66185,-2.79358 -5.66939,-2.0936c-1.28827,2.28402 0.08308,6.22246 3.05508,6.20359c0.95776,-1.17177 2.92583,-2.56825 2.61431,-4.10998M232.173,201.97145c-1.31741,-0.316 -3.21928,-0.42338 -4.67343,-0.14712c-0.95373,2.44293 -1.76915,4.98456 -3.09118,7.28642c1.82925,1.272 5.1487,0.18958 5.79554,-2.00969c0.77391,-1.6552 1.44136,-3.40045 1.96893,-5.12953M209.13566,177.7191c-1.30444,-1.48867 -3.49151,-2.13807 -5.4051,-1.63638c-1.31057,0.91556 -0.44,3.02483 0.09535,4.17717c0.48132,1.29781 2.40541,3.16073 3.53849,1.33073c0.78328,-1.15671 2.78974,-2.24094 1.77113,-3.87147M199.84633,185.32183c-0.79803,-1.16363 -3.26842,-2.8978 -4.14123,-0.8771c-0.77246,1.33278 -1.15189,3.88935 0.64879,4.55745c1.80458,-0.16923 5.22319,-1.30141 3.49235,-3.68036M189.21435,187.5632c-0.59925,-0.73111 -1.62907,-1.99072 -2.61724,-1.15697c-0.87453,0.98024 -1.50113,2.70754 -0.66359,3.856c1.25134,0.21189 2.59302,0.26376 3.82202,-0.07293c0.76532,-0.754 -0.20597,-1.86275 -0.54128,-2.6261M179.65264,187.35664c-0.8266,-1.32385 -2.60811,0.6338 -2.32898,1.69521c0.63104,0.55523 1.72494,0.9976 2.53361,0.56442c0.39943,-0.67329 -0.0268,-1.56557 -0.20457,-2.25963z" data-paper-data="{&quot;index&quot;:null}" fill="#3e526d"/><path d="M302.61054,154.62966c1.94439,3.08025 -1.35462,7.23958 -4.7218,5.99616c-2.92223,-0.68583 -3.75301,-5.14082 -1.25119,-6.81052c1.71342,-1.73549 4.63356,-1.00714 5.97299,0.81436M298.38261,157.33839c0.76105,0.89816 1.9579,0.1964 1.78033,-0.85099c-0.38945,-1.42885 -2.76942,-0.50106 -1.78033,0.85099z" data-paper-data="{&quot;index&quot;:null}" fill="#f1f6eb"/><path d="M298.38261,157.33839c-0.98913,-1.35204 1.39091,-2.27981 1.78033,-0.85099c0.17758,1.04739 -1.01931,1.74918 -1.78033,0.85099z" data-paper-data="{&quot;index&quot;:null}" fill="#0d0d0c"/><path d="M250.93087,163.57686c0.21312,0.25737 0.39058,0.56915 0.51987,0.93915c0.49927,1.38133 0.08121,3.18383 -1.40647,3.79355c-1.76472,1.36402 -4.48483,-0.30644 -4.58868,-2.37742c-0.35624,-2.94532 3.73992,-4.45108 5.47522,-2.35525zM255.28231,169.27526c0.08988,0.11922 0.16764,0.25534 0.23065,0.40919c0.77122,1.19719 -0.28413,2.88246 -1.61793,3.03203c-1.3569,0.02573 -2.66129,-1.52138 -2.06329,-2.85694c0.58766,-1.30751 2.58183,-1.73674 3.45067,-0.58425zM255.30467,177.40128c0.09982,0.1177 0.17908,0.25682 0.23049,0.41708c0.53307,0.87017 -0.24033,1.95364 -1.10579,2.20442c-1.28777,0.18778 -2.28438,-1.64656 -1.36901,-2.61983c0.5685,-0.64865 1.70534,-0.63714 2.24437,-0.0016zM248.57548,171.11141c0.13416,0.17367 0.25111,0.36377 0.34744,0.57005c1.37982,2.54385 -1.12892,5.91392 -3.97019,5.14821c-2.61265,-0.37428 -3.66144,-3.97755 -1.92516,-5.83934c1.34991,-1.69744 4.25107,-1.55776 5.54784,0.12098zM241.501,162.56889c0.18334,0.22753 0.3471,0.47796 0.4875,0.75168c2.14498,3.08025 -0.4274,7.74113 -4.10498,7.79243c-3.66366,0.32793 -6.86273,-4.19334 -4.81212,-7.43321c1.3766,-3.28378 6.26613,-3.79578 8.42965,-1.11091zM241.14167,177.86212c0.09664,0.12336 0.17703,0.27407 0.23609,0.4548c1.02988,1.72811 -2.18651,3.24781 -2.77545,1.21659c-0.83575,-1.50144 1.60539,-2.86405 2.53932,-1.67137zM236.19753,172.93166c0.12336,0.16721 0.22766,0.35204 0.3088,0.55447c1.17627,1.83279 -0.47743,4.32883 -2.50949,4.48189c-2.4016,0.32371 -4.28731,-2.73372 -2.85574,-4.70298c0.89829,-1.90932 3.86397,-1.94974 5.05648,-0.33338zM229.15624,168.25614c0.16455,0.21807 0.30884,0.45788 0.42873,0.71897c0.94344,2.49897 -0.65763,5.64725 -3.46015,5.89468c-3.28772,0.56409 -5.78522,-3.94563 -3.63216,-6.52615c1.59131,-2.27691 5.07307,-2.1955 6.66368,-0.08747zM224.78322,177.9356c0.03626,0.04407 0.06989,0.0905 0.10105,0.13916c0.64375,1.12549 -0.57667,2.68005 -1.81364,2.34675c-1.19829,-0.25722 -1.52677,-2.04106 -0.64023,-2.81234c0.71885,-0.47497 1.80876,-0.33463 2.35281,0.3264zM220.61814,174.21244c0.04682,0.06049 0.09166,0.12554 0.13412,0.19518c1.80054,1.93358 -2.06134,4.68778 -3.26221,2.32598c-1.7721,-1.93902 1.67578,-4.39561 3.12812,-2.52114z" data-paper-data="{&quot;index&quot;:null}" fill="#458bc9"/></g></g></svg>