<svg xmlns="http://www.w3.org/2000/svg" width="119.57" height="128.46" viewBox="0 0 153.05 164.43" xmlns:v="https://vecta.io/nano"><path d="M149.1 28.795c2.177 0 3.93 1.771 3.93 3.93a3.92 3.92 0 0 1-3.93 3.93c-3.542 0-6.42 2.878-6.42 6.42 0 12.25-8.984 22.434-20.699 24.315v16.77c5.867.941 11.032 3.966 14.741 8.284s5.959 9.925 5.959 16.032c0 3.542 2.878 6.42 6.42 6.42a3.92 3.92 0 1 1 0 7.859 14.25 14.25 0 0 1-10.091-4.188c-2.582-2.583-4.188-6.162-4.188-10.11 0-7.896-5.479-14.519-12.822-16.29v25.57c5.867.941 11.032 3.966 14.741 8.284s5.959 9.925 5.959 16.032c0 3.542 2.878 6.42 6.42 6.42 2.177 0 3.93 1.771 3.93 3.93s-1.753 3.93-3.93 3.93a14.25 14.25 0 0 1-10.091-4.188c-2.583-2.583-4.188-6.162-4.188-10.11 0-7.896-5.479-14.519-12.84-16.29-.387 21.4-17.914 38.687-39.406 38.687H70.437c-21.493 0-39.019-17.286-39.406-38.687a16.82 16.82 0 0 0-9.169 5.848c-2.288 2.86-3.653 6.494-3.653 10.442 0 7.878-6.402 14.298-14.279 14.298-2.177 0-3.93-1.771-3.93-3.93a3.92 3.92 0 0 1 3.93-3.93 6.4 6.4 0 0 0 4.538-1.882 6.4 6.4 0 0 0 1.882-4.538c0-12.25 8.984-22.434 20.699-24.315V89.474c-3.671.886-6.881 2.989-9.169 5.867a16.7 16.7 0 0 0-3.653 10.442c0 7.878-6.402 14.298-14.279 14.298-2.177 0-3.93-1.771-3.93-3.93a3.92 3.92 0 0 1 3.93-3.93 6.4 6.4 0 0 0 4.538-1.882 6.4 6.4 0 0 0 1.882-4.538c0-12.25 8.984-22.434 20.699-24.315V67.448c-11.715-1.882-20.699-12.065-20.699-24.315 0-3.542-2.878-6.42-6.42-6.42a3.92 3.92 0 1 1 0-7.859c7.878 0 14.279 6.42 14.279 14.298 0 9.243 7.527 16.77 16.77 16.77h1.882c1.162-11.863 7.545-22.194 16.807-28.706v-4.465a15.19 15.19 0 0 1 4.483-10.829l.019-.037c-4.409-2.066-7.896-5.867-9.501-10.7-.683-2.066.443-4.298 2.509-4.981s4.299.443 4.981 2.509c1.236 3.745 4.465 6.383 8.284 6.9l1.254-1.255c5.977-5.977 15.681-5.977 21.659 0l1.254 1.255c3.819-.517 7.066-3.155 8.284-6.9.683-2.066 2.915-3.192 4.981-2.509a3.94 3.94 0 0 1 2.509 4.981c-1.605 4.834-5.092 8.652-9.501 10.7l.037.018c2.896 2.896 4.483 6.734 4.483 10.829v4.465c9.261 6.512 15.644 16.862 16.807 28.706h1.882c9.243 0 16.77-7.527 16.77-16.77-.055-7.933 6.365-14.335 14.224-14.335z" fill="#633"/><path d="M114.12 67.722v57.339c0 17.397-14.15 31.547-31.547 31.547H70.415c-17.397 0-31.547-14.15-31.547-31.547V67.722h22.157a11.55 11.55 0 0 1 11.53 11.53v60.567c0 2.177 1.771 3.93 3.93 3.93s3.93-1.771 3.93-3.93V79.252c0-6.365 5.166-11.53 11.53-11.53z" fill="#c85e4c"/><path d="M108.24 59.844H91.95c-6.309 0-11.918 3.026-15.46 7.693-3.542-4.668-9.151-7.693-15.46-7.693H44.74c1.937-15.792 15.442-28.06 31.75-28.06s29.813 12.268 31.75 28.06z" fill="#fe6865"/><path d="M91.487 26.673v.166c-4.631-1.882-9.686-2.933-14.999-2.933a39.8 39.8 0 0 0-14.999 2.933v-.166a7.38 7.38 0 0 1 2.177-5.258l7.564-7.564c2.896-2.896 7.619-2.896 10.516 0l7.564 7.564c1.402 1.421 2.177 3.284 2.177 5.258z" fill="#f9dcb2"/></svg>