<svg width="140" height="140" viewBox="0 0 11.2 11.2" version="1.1" id="prefix__svg1170" xmlns="http://www.w3.org/2000/svg"><defs id="prefix__defs1073"><style id="style1071">.prefix__cls-1{fill:#ccc}.prefix__cls-2{fill:#e6e6e6}.prefix__cls-3{fill:#98856e}.prefix__cls-4{fill:#cbb292}.prefix__cls-5{fill:#849eb4}.prefix__cls-6{fill:#b0d3f0}.prefix__cls-7{fill:#993839}.prefix__cls-8{fill:#cc4b4c}.prefix__cls-9{fill:#ad392d}.prefix__cls-10{fill:#e64c3c}</style></defs><g data-name="Layer 9" id="prefix__Layer_9" transform="matrix(.18667 0 0 .18667 -.373 -.373)"><path class="prefix__cls-1" id="prefix__rect1077" d="M46 12h10v6H46z"/><path class="prefix__cls-2" id="prefix__rect1079" d="M46 12h7v6h-7z"/><path class="prefix__cls-1" id="prefix__rect1081" d="M8 12h10v6H8z"/><path class="prefix__cls-2" id="prefix__rect1083" d="M8 12h7v6H8z"/><path class="prefix__cls-2" id="prefix__rect1085" d="M6 18h52v22H6z"/><path class="prefix__cls-3" id="prefix__rect1087" d="M26 26h12v12H26z"/><path class="prefix__cls-4" id="prefix__rect1089" d="M26 26h9v12h-9z"/><path class="prefix__cls-5" id="prefix__rect1091" d="M10 22h4v4h-4z"/><path class="prefix__cls-6" id="prefix__rect1093" d="M10 22h2v4h-2z"/><path class="prefix__cls-5" id="prefix__rect1095" d="M10 30h4v4h-4z"/><path class="prefix__cls-6" id="prefix__rect1097" d="M10 30h2v4h-2z"/><path class="prefix__cls-5" id="prefix__rect1099" d="M18 30h4v4h-4z"/><path class="prefix__cls-6" id="prefix__rect1101" d="M18 30h2v4h-2z"/><path class="prefix__cls-5" id="prefix__rect1103" d="M18 22h4v4h-4z"/><path class="prefix__cls-6" id="prefix__rect1105" d="M18 22h2v4h-2z"/><path class="prefix__cls-5" id="prefix__rect1107" d="M42 22h4v4h-4z"/><path class="prefix__cls-6" id="prefix__rect1109" d="M42 22h2v4h-2z"/><path class="prefix__cls-5" id="prefix__rect1111" d="M42 30h4v4h-4z"/><path class="prefix__cls-6" id="prefix__rect1113" d="M42 30h2v4h-2z"/><path class="prefix__cls-5" id="prefix__rect1115" d="M50 30h4v4h-4z"/><path class="prefix__cls-6" id="prefix__rect1117" d="M50 30h2v4h-2z"/><path class="prefix__cls-5" id="prefix__rect1119" d="M50 22h4v4h-4z"/><path class="prefix__cls-6" id="prefix__rect1121" d="M50 22h2v4h-2z"/><path class="prefix__cls-1" id="prefix__rect1123" d="M4 40h56v18H4z"/><path class="prefix__cls-3" id="prefix__rect1125" d="M28 48h8v10h-8z"/><path class="prefix__cls-4" id="prefix__rect1127" d="M28 48h5v10h-5z"/><path class="prefix__cls-5" id="prefix__rect1129" d="M8 46h6v8H8z"/><path class="prefix__cls-6" id="prefix__rect1131" d="M8 46h3v8H8z"/><path class="prefix__cls-5" id="prefix__rect1133" d="M50 46h6v8h-6z"/><path class="prefix__cls-6" id="prefix__rect1135" d="M50 46h3v8h-3z"/><path class="prefix__cls-7" id="prefix__rect1137" d="M6 8h12v4H6z"/><path class="prefix__cls-8" id="prefix__rect1139" d="M6 8h9v4H6z"/><path class="prefix__cls-7" id="prefix__rect1141" d="M46 8h12v4H46z"/><path class="prefix__cls-8" id="prefix__rect1143" d="M46 8h9v4h-9z"/><path class="prefix__cls-9" id="prefix__rect1145" d="M18 2h28v16H18z"/><path class="prefix__cls-10" id="prefix__rect1147" d="M18 2h25v16H18z"/><path class="prefix__cls-3" id="prefix__rect1149" d="M18 42h4v16h-4z"/><path class="prefix__cls-4" id="prefix__rect1151" d="M18 42h2v16h-2z"/><path class="prefix__cls-3" id="prefix__rect1153" d="M42 42h4v16h-4z"/><path class="prefix__cls-4" id="prefix__rect1155" d="M42 42h2v16h-2z"/><path class="prefix__cls-9" id="prefix__rect1157" d="M16 38h32v4H16z"/><path class="prefix__cls-10" id="prefix__rect1159" d="M16 38h29v4H16z"/><path id="prefix__rect1161" fill="#5f443e" d="M2 58h60v4H2z"/><path id="prefix__rect1163" fill="#7f5b53" d="M2 58h57v4H2z"/><path class="prefix__cls-2" id="prefix__rect1165" d="M31 5h2v10h-2z"/><path class="prefix__cls-2" id="prefix__rect1167" d="M27 9h10v2H27z"/></g></svg>