<svg version="1.1" xmlns="http://www.w3.org/2000/svg" xmlns:xlink="http://www.w3.org/1999/xlink" width="140" height="140" viewBox="0,0,140,140"><g transform="translate(-170,-110)"><g data-paper-data="{&quot;isPaintingLayer&quot;:true}" fill-rule="nonzero" stroke="none" stroke-width="0.18667" stroke-linecap="butt" stroke-linejoin="miter" stroke-miterlimit="10" stroke-dasharray="" stroke-dashoffset="0" style="mix-blend-mode: normal"><path d="M296,166v-9.33333h14v9.33333z" fill="#b49313"/><path d="M296,166v-9.33333h7v9.33333z" fill="#f0c419"/><path d="M170,166v-9.33333h14v9.33333z" fill="#b49313"/><path d="M170,166v-9.33333h7v9.33333z" fill="#f0c419"/><path d="M181.66667,177.66666v-21h4.66667v21z" fill="#808080"/><path d="M293.66667,177.66666v-21h4.66667v21z" fill="#808080"/><path d="M179.33333,240.66667v-42h121.33334v42z" fill="#5f443e"/><path d="M179.33333,240.66667v-42h114.33333v42z" fill="#7f5b53"/><path d="M268,240.66666v-11.66666c0,-6.44332 5.22334,-11.66666 11.66666,-11.66666v0c3.09419,0 6.06166,1.22916 8.24958,3.41708c2.18793,2.18792 3.41709,5.15539 3.41709,8.24958v11.66666" fill="#cccccc"/><path d="M284.33334,229v11.66666h-16.33334v-11.66666c0.02001,-5.07807 3.32245,-9.55994 8.16666,-11.08334c4.84422,1.52339 8.14666,6.00527 8.16667,11.08334z" fill="#f2f2f2"/><path d="M188.66667,240.66666v-11.66666c0,-6.44332 5.22335,-11.66666 11.66667,-11.66666v0c6.44332,0 11.66666,5.22334 11.66667,11.66666v11.66666" fill="#cccccc"/><path d="M205,229v11.66666h-16.33333v-11.66666c0.02001,-5.07807 3.32245,-9.55994 8.16667,-11.08334c4.84422,1.52339 8.14665,6.00527 8.16667,11.08334z" fill="#f2f2f2"/><path d="M226,240.66666v-18.66666c0,-7.73199 6.26801,-14 14,-14v0c7.73199,0 14,6.26801 14,14v18.66666" fill="#cccccc"/><path d="M247,222v18.66666h-21v-18.66666c0.01007,-6.37574 4.3267,-11.9394 10.5,-13.53333c6.1733,1.59393 10.48993,7.15759 10.5,13.53333z" fill="#f2f2f2"/><path d="M202.66667,189.33333v-42h74.66667v42z" fill="#5f443e"/><path d="M202.66667,189.33333v-42h67.66667v42z" fill="#7f5b53"/><path d="M226,189.33334v-14c0,-7.73199 6.26801,-14 14,-14v0c7.73199,0 14,6.26801 14,14v14" fill="#cccccc"/><path d="M247,175.33334v14h-21v-14c0.01007,-6.37574 4.3267,-11.9394 10.5,-13.53333c6.1733,1.59393 10.48993,7.15759 10.5,13.53333z" fill="#f2f2f2"/><path d="M286.66666,189.33334v-4.66667c0,-2.47535 0.98333,-4.84932 2.73367,-6.59966c1.75034,-1.75034 4.12431,-2.73367 6.59967,-2.73367v0c2.47535,0 4.84933,0.98333 6.59967,2.73367c1.75034,1.75034 2.73367,4.12431 2.73367,6.59966v4.66667" fill="#5f443e"/><path d="M298.33334,184.66667v4.66667h-11.66667v-4.66667c0.00769,-3.79632 2.31405,-7.20972 5.83334,-8.63333c3.51929,1.42361 5.82565,4.83702 5.83334,8.63333z" fill="#7f5b53"/><path d="M174.66667,189.33334v-4.66667c0,-5.15466 4.17868,-9.33333 9.33333,-9.33333v0c5.15466,0 9.33333,4.17868 9.33333,9.33333v4.66667" fill="#5f443e"/><path d="M186.33333,184.66667v4.66667h-11.66667v-4.66667c0.00769,-3.79631 2.31405,-7.20972 5.83333,-8.63333c3.51929,1.42361 5.82564,4.83702 5.83333,8.63333z" fill="#7f5b53"/><path d="M207.33333,138v0c0,-15.46397 12.53603,-28 28,-28h9.33333c15.46397,0 28,12.53603 28,28v0" fill="#5f443e"/><path d="M265.66667,138h-58.33333c0,-15.46397 12.53603,-28 28,-28h2.33333c15.46397,0 28,12.53603 28,28z" fill="#7f5b53"/><path d="M170,250v-9.33333h140v9.33333z" fill="#98856e"/><path d="M170,250v-9.33333h133v9.33333z" fill="#cbb292"/><path d="M170,198.66666v-9.33333h140v9.33333z" fill="#98856e"/><path d="M170,198.66666v-9.33333h133v9.33333z" fill="#cbb292"/><path d="M193.33333,147.33333v-9.33333h93.33333v9.33333z" fill="#98856e"/><path d="M193.33333,147.33333v-9.33333h86.33333v9.33333z" fill="#cbb292"/><path d="M275,233.66667v-4.66667h4.66667v4.66667z" fill="#808080"/><path d="M195.66667,233.66667v-4.66667h4.66667v4.66667z" fill="#808080"/><path d="M233,229v-4.66667h4.66667v4.66667z" fill="#808080"/><path d="M233,177.66667v-4.66667h4.66667v4.66667z" fill="#808080"/></g></g></svg>