<?xml version="1.0" encoding="UTF-8" standalone="no"?>
<!-- Uploaded to: SVG Repo, www.svgrepo.com, Generator: SVG Repo Mixer Tools -->

<svg
   width="140"
   height="140"
   viewBox="0 0 11.2 11.2"
   data-name="Layer 3"
   id="Layer_3"
   version="1.1"
   sodipodi:docname="architecture-building-svgrepo-com.svg"
   inkscape:version="1.2.2 (732a01da63, 2022-12-09)"
   xmlns:inkscape="http://www.inkscape.org/namespaces/inkscape"
   xmlns:sodipodi="http://sodipodi.sourceforge.net/DTD/sodipodi-0.dtd"
   xmlns="http://www.w3.org/2000/svg"
   xmlns:svg="http://www.w3.org/2000/svg">
  <sodipodi:namedview
     id="namedview1342"
     pagecolor="#ffffff"
     bordercolor="#000000"
     borderopacity="0.25"
     inkscape:showpageshadow="2"
     inkscape:pageopacity="0.0"
     inkscape:pagecheckerboard="0"
     inkscape:deskcolor="#d1d1d1"
     showgrid="false"
     inkscape:zoom="1.04625"
     inkscape:cx="374.67145"
     inkscape:cy="375.62724"
     inkscape:window-width="1920"
     inkscape:window-height="1017"
     inkscape:window-x="1912"
     inkscape:window-y="-8"
     inkscape:window-maximized="1"
     inkscape:current-layer="Layer_3" />
  <defs
     id="defs1269">
    <style
       id="style1267">.cls-1{fill:#b49313;}.cls-2{fill:#f0c419;}.cls-3{fill:gray;}.cls-4{fill:#5f443e;}.cls-5{fill:#7f5b53;}.cls-6{fill:#ccc;}.cls-7{fill:#f2f2f2;}.cls-8{fill:#98856e;}.cls-9{fill:#cbb292;}</style>
  </defs>
  <title
     id="title1271" />
  <rect
     class="cls-1"
     height="0.74666667"
     width="1.12"
     x="10.08"
     y="3.7333331"
     id="rect1273"
     style="stroke-width:0.186667" />
  <rect
     class="cls-2"
     height="0.74666667"
     width="0.56"
     x="10.08"
     y="3.7333331"
     id="rect1275"
     style="stroke-width:0.186667" />
  <rect
     class="cls-1"
     height="0.74666667"
     width="1.12"
     x="0"
     y="3.7333331"
     id="rect1277"
     style="stroke-width:0.186667" />
  <rect
     class="cls-2"
     height="0.74666667"
     width="0.56"
     x="0"
     y="3.7333331"
     id="rect1279"
     style="stroke-width:0.186667" />
  <rect
     class="cls-3"
     height="1.6799999"
     width="0.37333333"
     x="0.9333334"
     y="3.7333331"
     id="rect1281"
     style="stroke-width:0.186667" />
  <rect
     class="cls-3"
     height="1.6799999"
     width="0.37333333"
     x="9.8933334"
     y="3.7333331"
     id="rect1283"
     style="stroke-width:0.186667" />
  <rect
     class="cls-4"
     height="3.3599999"
     width="9.7066669"
     x="0.74666667"
     y="7.0933332"
     id="rect1285"
     style="stroke-width:0.186667" />
  <rect
     class="cls-5"
     height="3.3599999"
     width="9.1466665"
     x="0.74666667"
     y="7.0933332"
     id="rect1287"
     style="stroke-width:0.186667" />
  <path
     class="cls-6"
     d="M 7.84,10.453333 V 9.52 A 0.93333333,0.93333333 0 0 1 8.773333,8.586667 v 0 A 0.93333333,0.93333333 0 0 1 9.706667,9.52 v 0.933333"
     id="path1289"
     style="stroke-width:0.186667" />
  <path
     class="cls-7"
     d="M 8.493333,8.633333 A 0.93333333,0.93333333 0 0 0 7.84,9.52 v 0.933333 H 9.146667 V 9.52 A 0.93333333,0.93333333 0 0 0 8.493333,8.633333 Z"
     id="path1291"
     style="stroke-width:0.186667" />
  <path
     class="cls-6"
     d="M 1.4933333,10.453333 V 9.52 A 0.93333333,0.93333333 0 0 1 2.4266667,8.586667 v 0 A 0.93333333,0.93333333 0 0 1 3.36,9.52 v 0.933333"
     id="path1293"
     style="stroke-width:0.186667" />
  <path
     class="cls-7"
     d="M 2.1466667,8.633333 A 0.93333333,0.93333333 0 0 0 1.4933333,9.52 v 0.933333 H 2.8 V 9.52 A 0.93333333,0.93333333 0 0 0 2.1466667,8.633333 Z"
     id="path1295"
     style="stroke-width:0.186667" />
  <path
     class="cls-6"
     d="M 4.48,10.453333 V 8.96 A 1.12,1.12 0 0 1 5.6,7.84 v 0 a 1.12,1.12 0 0 1 1.12,1.12 v 1.493333"
     id="path1297"
     style="stroke-width:0.186667" />
  <path
     class="cls-7"
     d="M 5.32,7.8773333 A 1.12,1.12 0 0 0 4.48,8.96 v 1.493333 H 6.16 V 8.96 A 1.12,1.12 0 0 0 5.32,7.8773333 Z"
     id="path1299"
     style="stroke-width:0.186667" />
  <rect
     class="cls-4"
     height="3.3599999"
     width="5.9733334"
     x="2.6133332"
     y="2.9866667"
     id="rect1301"
     style="stroke-width:0.186667" />
  <rect
     class="cls-5"
     height="3.3599999"
     width="5.4133334"
     x="2.6133332"
     y="2.9866667"
     id="rect1303"
     style="stroke-width:0.186667" />
  <path
     class="cls-6"
     d="m 4.48,6.3466667 v -1.12 a 1.12,1.12 0 0 1 1.12,-1.12 v 0 a 1.12,1.12 0 0 1 1.12,1.12 v 1.12"
     id="path1305"
     style="stroke-width:0.186667" />
  <path
     class="cls-7"
     d="M 5.32,4.144 A 1.12,1.12 0 0 0 4.48,5.2266667 v 1.12 h 1.68 v -1.12 A 1.12,1.12 0 0 0 5.32,4.144 Z"
     id="path1307"
     style="stroke-width:0.186667" />
  <path
     class="cls-4"
     d="M 9.333333,6.3466667 V 5.9733333 A 0.74666667,0.74666667 0 0 1 10.08,5.2266667 v 0 a 0.74666667,0.74666667 0 0 1 0.746667,0.7466666 v 0.3733334"
     id="path1309"
     style="stroke-width:0.186667" />
  <path
     class="cls-5"
     d="M 9.8,5.2826667 A 0.74666667,0.74666667 0 0 0 9.333333,5.9733333 v 0.3733334 h 0.933334 V 5.9733333 A 0.74666667,0.74666667 0 0 0 9.8,5.2826667 Z"
     id="path1311"
     style="stroke-width:0.186667" />
  <path
     class="cls-4"
     d="M 0.3733333,6.3466667 V 5.9733333 A 0.74666667,0.74666667 0 0 1 1.12,5.2266667 v 0 a 0.74666667,0.74666667 0 0 1 0.7466667,0.7466666 v 0.3733334"
     id="path1313"
     style="stroke-width:0.186667" />
  <path
     class="cls-5"
     d="M 0.84,5.2826667 A 0.74666667,0.74666667 0 0 0 0.3733333,5.9733333 V 6.3466667 H 1.3066667 V 5.9733333 A 0.74666667,0.74666667 0 0 0 0.84,5.2826667 Z"
     id="path1315"
     style="stroke-width:0.186667" />
  <path
     class="cls-4"
     d="m 2.9866667,2.24 v 0 a 2.24,2.24 0 0 1 2.24,-2.24 H 5.9733333 A 2.24,2.24 0 0 1 8.213333,2.24 v 0"
     id="path1317"
     style="stroke-width:0.186667" />
  <path
     class="cls-5"
     d="M 5.4133333,0 H 5.2266667 a 2.24,2.24 0 0 0 -2.24,2.24 h 4.6666666 a 2.24,2.24 0 0 0 -2.24,-2.24 z"
     id="path1319"
     style="stroke-width:0.186667" />
  <rect
     class="cls-8"
     height="0.74666667"
     width="11.2"
     x="0"
     y="10.453333"
     id="rect1321"
     style="stroke-width:0.186667" />
  <rect
     class="cls-9"
     height="0.74666667"
     width="10.64"
     x="0"
     y="10.453333"
     id="rect1323"
     style="stroke-width:0.186667" />
  <rect
     class="cls-8"
     height="0.74666667"
     width="11.2"
     x="0"
     y="6.3466663"
     id="rect1325"
     style="stroke-width:0.186667" />
  <rect
     class="cls-9"
     height="0.74666667"
     width="10.64"
     x="0"
     y="6.3466663"
     id="rect1327"
     style="stroke-width:0.186667" />
  <rect
     class="cls-8"
     height="0.74666667"
     width="7.4666667"
     x="1.8666666"
     y="2.2399998"
     id="rect1329"
     style="stroke-width:0.186667" />
  <rect
     class="cls-9"
     height="0.74666667"
     width="6.9066668"
     x="1.8666666"
     y="2.2399998"
     id="rect1331"
     style="stroke-width:0.186667" />
  <rect
     class="cls-3"
     height="0.37333333"
     width="0.37333333"
     x="8.3999996"
     y="9.5200005"
     id="rect1333"
     style="stroke-width:0.186667" />
  <rect
     class="cls-3"
     height="0.37333333"
     width="0.37333333"
     x="2.0533333"
     y="9.5200005"
     id="rect1335"
     style="stroke-width:0.186667" />
  <rect
     class="cls-3"
     height="0.37333333"
     width="0.37333333"
     x="5.04"
     y="9.1466665"
     id="rect1337"
     style="stroke-width:0.186667" />
  <rect
     class="cls-3"
     height="0.37333333"
     width="0.37333333"
     x="5.04"
     y="5.04"
     id="rect1339"
     style="stroke-width:0.186667" />
</svg>
