<svg width="105.521" height="140" xmlns="http://www.w3.org/2000/svg"><g transform="translate(-494.217 -282.1)"><path d="M545.03 407.502c-.003.039.001.074 0 .112-8.023.245-28.88 1.021-35.337 2.782-7.977 2.176-7.264 10.874 12.317 11.6 13.54.501 21.523-.726 24.926-5.61 3.4 4.891 11.38 6.111 24.927 5.61 19.58-.726 20.317-9.424 12.34-11.6-6.458-1.76-27.337-2.537-35.36-2.782-.002-.038.002-.073 0-.112 0 0-1.387.031-1.907.045-.519-.014-1.907-.045-1.907-.045z" fill="#f60"/><path d="M546.946 282.1c-19.542 0-35.381 9.63-35.381 28.605 0 6.897 11.635 15.425 5.699 24.433-5.395 8.187-17.016 19.702-20.484 32.824-5.673 21.463-.157 44.153-.157 44.153s-2.027-13.554 1.727-27.64c5.994 19.163 25.468 33.204 48.596 33.204 23.12 0 42.6-14.029 48.596-33.182 3.746 14.078 1.728 27.618 1.728 27.618s5.658-22.715-.158-44.131c-3.596-13.243-13.425-22.482-20.483-32.846-5.937-9.008 5.698-17.536 5.698-24.433 0-18.975-15.839-28.605-35.38-28.605z" fill="teal"/><ellipse cx="546.944" cy="369.317" rx="35.472" ry="42.307" fill="#eef4d7"/><path d="M546.944 331.627l-20.755-18.67h41.51z" fill="#f60"/><path d="M532.07 289.025c-9.213 0-16.67 7.638-16.67 17.05 0 9.413 7.457 17.03 16.67 17.03 6.49 0 12.117-3.78 14.874-9.311 2.758 5.528 8.385 9.31 14.875 9.31 9.212 0 16.67-7.616 16.67-17.028 0-9.413-7.458-17.051-16.67-17.051-6.486 0-12.116 3.786-14.875 9.31-2.758-5.526-8.387-9.31-14.875-9.31z" fill="#fff"/><circle cx="563.247" cy="310.201" r="8.121"/><circle cx="533.513" cy="310.201" r="8.121"/></g></svg>