<svg width="140" height="140" viewBox="0 0 11.2 11.2" version="1.1" id="prefix__svg1458" xmlns="http://www.w3.org/2000/svg"><defs id="prefix__defs1433"><style id="style1431">.prefix__cls-4{fill:#f2f2f2}.prefix__cls-5{fill:#5f443e}.prefix__cls-6{fill:#7f5b53}</style></defs><g data-name="Layer 21" id="prefix__Layer_21" transform="matrix(.18667 0 0 .18667 -.373 -.373)"><path id="prefix__rect1437" fill="#98856e" d="M30 23h4v21h-4z"/><path id="prefix__rect1439" fill="#cbb292" d="M30 23h2v21h-2z"/><circle cx="32" cy="13" r="11" id="prefix__circle1441" fill="#cc4b4c"/><path class="prefix__cls-4" d="M25.77 16A6.85 6.85 0 0135 6.77z" id="prefix__path1443"/><path class="prefix__cls-4" d="M29 19.23L38.23 10A6.85 6.85 0 0129 19.23z" id="prefix__path1445"/><path class="prefix__cls-5" id="prefix__rect1447" d="M2 58h60v4H2z"/><path class="prefix__cls-6" id="prefix__rect1449" d="M2 58h57v4H2z"/><path class="prefix__cls-5" id="prefix__rect1451" d="M28 44h8v14h-8z"/><path class="prefix__cls-6" id="prefix__rect1453" d="M28 44h5v14h-5z"/><path d="M49.9 58a5 5 0 00-4.9-4 4.93 4.93 0 00-1.09.13 5 5 0 00-9.82 0A4.93 4.93 0 0033 54a5.47 5.47 0 00-1 .1 5.47 5.47 0 00-1-.1 4.93 4.93 0 00-1.09.13 5 5 0 00-9.82 0A4.93 4.93 0 0019 54a5 5 0 00-4.9 4" id="prefix__path1455" fill="#71c285"/></g></svg>