<svg version="1.0" width="117.026" height="115.065" xmlns:xlink="http://www.w3.org/1999/xlink" xmlns="http://www.w3.org/2000/svg"><defs><filter id="prefix__f" height="1.682" width="1.696" y="-.341" x="-.348"><feGaussianBlur stdDeviation="5.465"/></filter><filter id="prefix__g" height="1.738" width="2.811" y="-.369" x="-.906"><feGaussianBlur stdDeviation="4.151"/></filter><filter id="prefix__d" height="1.68" width="1.14" y="-.34" x="-.07"><feGaussianBlur stdDeviation="3.968"/></filter><filter id="prefix__i" height="1.9" width="2.109" y="-.45" x="-.555"><feGaussianBlur stdDeviation="1.734"/></filter><filter id="prefix__h" height="1.9" width="2.109" y="-.45" x="-.555"><feGaussianBlur stdDeviation="1.734"/></filter><filter id="prefix__p" height="2.667" width="1.762" y="-.834" x="-.381"><feGaussianBlur stdDeviation=".983"/></filter><filter id="prefix__q" height="2.667" width="1.762" y="-.834" x="-.381"><feGaussianBlur stdDeviation=".983"/></filter><filter id="prefix__k" height="1.348" width="1.136" y="-.174" x="-.068"><feGaussianBlur stdDeviation=".444"/></filter><filter id="prefix__m" height="1.348" width="1.136" y="-.174" x="-.068"><feGaussianBlur stdDeviation=".444"/></filter><radialGradient id="prefix__c" xlink:href="#prefix__a" gradientUnits="userSpaceOnUse" cy="506.35" cx="210.89" gradientTransform="matrix(1.4028 0 0 .20588 -89.845 403.11)" r="68"/><radialGradient id="prefix__e" xlink:href="#prefix__b" gradientUnits="userSpaceOnUse" cy="497.96" cx="216.99" gradientTransform="matrix(.7158 1.4128 -1.3538 .68592 735.84 -155.77)" r="65"/><radialGradient id="prefix__n" xlink:href="#prefix__b" gradientUnits="userSpaceOnUse" cy="259.27" cx="305.61" gradientTransform="matrix(-2.4972 -.0346 .06132 -4.4268 1053.4 1414.7)" r="6.904"/><radialGradient id="prefix__o" xlink:href="#prefix__b" gradientUnits="userSpaceOnUse" cy="269.47" cx="575.81" gradientTransform="matrix(-1.6164 -.00961 .01832 -3.0809 1501.6 1103.8)" r="6.895"/><radialGradient id="prefix__j" xlink:href="#prefix__a" gradientUnits="userSpaceOnUse" cy="273.5" cx="307.44" gradientTransform="matrix(1.4615 -.21496 .07926 .53886 -163.57 192.21)" r="6.938"/><radialGradient id="prefix__l" xlink:href="#prefix__a" gradientUnits="userSpaceOnUse" cy="273.5" cx="307.44" gradientTransform="matrix(1.0899 -.0227 .0105 .50433 -30.498 142.55)" r="6.938"/><linearGradient id="prefix__a"><stop offset="0"/><stop offset="1" stop-opacity="0"/></linearGradient><linearGradient id="prefix__b"><stop offset="0" stop-opacity="0"/><stop offset="1" stop-opacity=".572"/></linearGradient></defs><path transform="matrix(.75479 0 0 .61103 -96.973 -209.32)" d="M274 507.36c0 7.73-30.46 14-68 14s-68-6.27-68-14 30.46-14 68-14 68 6.27 68 14z" fill="url(#prefix__c)" filter="url(#prefix__d)"/><path d="M104.853 57.208c0 3.457-.378 26.775-1.098 30.019-1.76 8.882-7.47 13.993-16.046 15.94-3.985.741-8.52-15.555-13.438-15.648-4.919-.093-10.223 16.025-15.754 16.025-5.56 0-10.886-16.125-15.826-16.053-4.94.078-9.488 16.353-13.48 15.583-9.04-1.497-13.773-7.685-15.997-16.14-.678-3.15-1.034-26.376-1.034-29.726 0-25.578 20.759-46.337 46.337-46.337 25.577 0 46.336 20.76 46.336 46.337z" fill="#0f0"/><path transform="translate(-112.572 -321.583) scale(.71287)" d="M305 531.36c0 4.85-.53 37.56-1.54 42.11-2.47 12.46-10.48 19.63-22.51 22.36-5.59 1.04-11.95-21.82-18.85-21.95-6.9-.13-14.34 22.48-22.1 22.48-7.8 0-15.27-22.62-22.2-22.52-6.93.11-13.31 22.94-18.91 21.86-12.68-2.1-19.32-10.78-22.44-22.64-.95-4.42-1.45-37-1.45-41.7 0-35.88 29.12-65 65-65 35.88 0 65 29.12 65 65z" fill="url(#prefix__e)"/><path d="M182.98 415.24c-10.02 10.27-20.4 16.41-23.17 13.71-2.76-2.7 3.13-13.22 13.16-23.49 10.02-10.27 20.4-16.42 23.17-13.72 2.76 2.7-3.13 13.23-13.16 23.5z" fill="#fff" fill-opacity=".627" filter="url(#prefix__f)" transform="translate(-90.473 -260.989) scale(.71287)"/><path transform="rotate(39.533 507.053 100.243) scale(.71287)" d="M262 501.86c0 7.45-2.46 13.5-5.5 13.5s-5.5-6.05-5.5-13.5 2.46-13.5 5.5-13.5 5.5 6.05 5.5 13.5z" fill="#fff" fill-opacity=".434" filter="url(#prefix__g)"/><path d="M41.557 48.497c9.432-16.974 18.015-10.03 26.52-1.055-.286 1.703-13.816 20.644-26.52 1.055zM101.31 46.729c-9.431-16.974-18.014-10.03-26.519-1.055.286 1.703 13.816 20.644 26.52 1.055z" fill="#fff" fill-rule="evenodd"/><path d="M41.557 48.497c9.432-16.974 18.015-10.03 26.52-1.055-.286 1.703-13.816 20.644-26.52 1.055zM101.31 46.729c-9.431-16.974-18.014-10.03-26.519-1.055.286 1.703 13.816 20.644 26.52 1.055z" fill-rule="evenodd"/><path transform="matrix(.45145 .75194 -.93479 .56127 214.863 -364.825)" d="M326.25 293.38c0 2.55-1.68 4.62-3.75 4.62-2.07 0-3.75-2.07-3.75-4.62 0-2.56 1.68-4.63 3.75-4.63 2.07 0 3.75 2.07 3.75 4.63z" fill="#fff" fill-opacity=".456" filter="url(#prefix__h)"/><path transform="matrix(.45145 .75194 -.93479 .56127 179.505 -361.995)" d="M326.25 293.38c0 2.55-1.68 4.62-3.75 4.62-2.07 0-3.75-2.07-3.75-4.62 0-2.56 1.68-4.63 3.75-4.63 2.07 0 3.75 2.07 3.75 4.63z" fill="#fff" fill-opacity=".456" filter="url(#prefix__i)"/><path d="M306 270.53c-2.28-.22-8.62 1.36-5.62 4.5 4.42 1.96 11.17 2.62 14.9-.91.39-4.11-6.8-3.43-9.28-3.59z" transform="rotate(-2.181 -6267.603 7049.98)" fill="url(#prefix__j)" fill-opacity=".765" filter="url(#prefix__k)"/><path d="M38.397 28.862c4.94 2.02 10.55 2.37 13.5-2.25-5.72-1.63-7.5-5.09-3.54-10.86 1.73-2.53-1.17-5.94-.21-9.64-2.17-1.83-5.92-1.92-8.75.25 1.44 3.8 5.14 5.67 3.07 8.9-2.15 3.37-5.39 9.56-4.07 13.6z" fill="#0f0" fill-rule="evenodd"/><path d="M306 270.53c-2.28-.22-8.62 1.36-5.62 4.5 4.42 1.96 11.17 2.62 14.9-.91.39-4.11-6.8-3.43-9.28-3.59z" transform="rotate(1.193 12094.983 -10686.91)" fill="url(#prefix__l)" fill-opacity=".765" filter="url(#prefix__m)"/><path d="M88.807 25.307c-4.68 2.55-10.22 3.53-13.66-.73 5.5-2.26 6.88-5.89 2.31-11.19-2-2.33.5-6.03-.87-9.6 1.95-2.07 5.67-2.57 8.73-.73-1.01 3.94-4.48 6.21-2.07 9.19 2.52 3.11 6.43 8.9 5.56 13.06z" fill="#0f0" fill-rule="evenodd"/><path transform="translate(-262.853 -244.638)" d="M301.25 273.5c4.94 2.02 10.55 2.37 13.5-2.25-5.72-1.63-7.5-5.09-3.54-10.86 1.73-2.53-1.17-5.94-.21-9.64-2.17-1.83-5.92-1.92-8.75.25 1.44 3.8 5.14 5.67 3.07 8.9-2.15 3.37-5.39 9.56-4.07 13.6z" fill="url(#prefix__n)" fill-rule="evenodd"/><path d="M585.08 281.68c-4.68 2.55-10.22 3.53-13.66-.73 5.5-2.26 6.88-5.89 2.31-11.19-2-2.33.5-6.03-.87-9.6 1.95-2.07 5.67-2.57 8.73-.73-1.01 3.94-4.48 6.21-2.07 9.19 2.52 3.11 6.43 8.9 5.56 13.06z" fill="url(#prefix__o)" fill-rule="evenodd" transform="translate(-496.273 -256.373)"/><path transform="translate(-262.853 -245.876)" d="M309.89 252.65c0 .79-1.39 1.42-3.09 1.42-1.71 0-3.1-.63-3.1-1.42 0-.78 1.39-1.41 3.1-1.41 1.7 0 3.09.63 3.09 1.41z" fill="#fff" fill-opacity=".765" filter="url(#prefix__p)"/><path transform="translate(-225.733 -248.881)" d="M309.89 252.65c0 .79-1.39 1.42-3.09 1.42-1.71 0-3.1-.63-3.1-1.42 0-.78 1.39-1.41 3.1-1.41 1.7 0 3.09.63 3.09 1.41z" fill="#fff" fill-opacity=".765" filter="url(#prefix__q)"/></svg>