<svg version="1.1" xmlns="http://www.w3.org/2000/svg" xmlns:xlink="http://www.w3.org/1999/xlink" width="102.651" height="107.32646" viewBox="0,0,102.651,107.32646"><defs><radialGradient cx="239.99352" cy="223.15798" r="71.99941" gradientUnits="userSpaceOnUse" id="color-1"><stop offset="0" stop-color="#000000"/><stop offset="1" stop-color="#000000" stop-opacity="0"/></radialGradient><radialGradient cx="223.62396" cy="151.86929" r="73.38711" gradientUnits="userSpaceOnUse" id="color-2"><stop offset="0" stop-color="#000000" stop-opacity="0"/><stop offset="1" stop-color="#000000" stop-opacity="0.57196"/></radialGradient><radialGradient cx="226.31848" cy="150.70309" r="10.24828" gradientUnits="userSpaceOnUse" id="color-3"><stop offset="0" stop-color="#000000"/><stop offset="1" stop-color="#000000" stop-opacity="0"/></radialGradient><radialGradient cx="263.21365" cy="148.08252" r="7.5628" gradientUnits="userSpaceOnUse" id="color-4"><stop offset="0" stop-color="#000000"/><stop offset="1" stop-color="#000000" stop-opacity="0"/></radialGradient><radialGradient cx="224.76301" cy="134.22175" r="17.24257" gradientUnits="userSpaceOnUse" id="color-5"><stop offset="0" stop-color="#000000" stop-opacity="0"/><stop offset="1" stop-color="#000000" stop-opacity="0.57196"/></radialGradient><radialGradient cx="261.01099" cy="134.14998" r="11.14495" gradientUnits="userSpaceOnUse" id="color-6"><stop offset="0" stop-color="#000000" stop-opacity="0"/><stop offset="1" stop-color="#000000" stop-opacity="0.57196"/></radialGradient></defs><g transform="translate(-188.6745,-124.38734)"><g data-paper-data="{&quot;isPaintingLayer&quot;:true}" stroke="none" stroke-width="1" stroke-linecap="butt" stroke-linejoin="miter" stroke-miterlimit="10" stroke-dasharray="" stroke-dashoffset="0" style="mix-blend-mode: normal"><g><path d="M291.32549,223.15939c0,4.72326 -22.9908,8.55441 -51.3255,8.55441c-28.33469,0 -51.3255,-3.83115 -51.3255,-8.55441c0,-4.72326 22.9908,-8.55441 51.3255,-8.55441c28.33469,0 51.3255,3.83115 51.3255,8.55441z" fill="url(#color-1)" fill-rule="nonzero"/><path d="M286.33997,179.67535c0,3.45742 -0.37782,26.7754 -1.09782,30.01896c-1.76079,8.88236 -7.47088,13.99364 -16.0467,15.93977c-3.98494,0.74138 -8.5188,-15.55482 -13.4376,-15.6475c-4.9188,-0.09267 -10.22256,16.02532 -15.75443,16.02532c-5.56039,0 -10.88552,-16.12512 -15.82571,-16.05383c-4.94019,0.07842 -9.4883,16.35324 -13.48037,15.58334c-9.03919,-1.49703 -13.77265,-7.68474 -15.9968,-16.13938c-0.67723,-3.15089 -1.03366,-26.37619 -1.03366,-29.72668c0,-25.57778 20.75877,-46.33655 46.33655,-46.33655c25.57778,0 46.33655,20.75877 46.33655,46.33655z" fill="#00ff00" fill-rule="nonzero"/><path d="M286.33997,179.67535c0,3.45742 -0.37782,26.7754 -1.09782,30.01896c-1.76079,8.88236 -7.47088,13.99364 -16.0467,15.93977c-3.98494,0.74138 -8.5188,-15.55482 -13.4376,-15.6475c-4.9188,-0.09267 -10.22256,16.02532 -15.75443,16.02532c-5.56039,0 -10.88552,-16.12512 -15.82571,-16.05383c-4.94019,0.07842 -9.4883,16.35324 -13.48037,15.58334c-9.03919,-1.49703 -13.77265,-7.68474 -15.9968,-16.13938c-0.67723,-3.15089 -1.03366,-26.37619 -1.03366,-29.72668c0,-25.57778 20.75877,-46.33655 46.33655,-46.33655c25.57778,0 46.33655,20.75877 46.33655,46.33655z" fill="url(#color-2)" fill-rule="nonzero"/><path d="M221.45454,157.49084c-7.14296,7.32117 -14.54255,11.6982 -16.5172,9.77345c-1.96752,-1.92475 2.23128,-9.42414 9.38137,-16.74532c7.14296,-7.32117 14.54255,-11.70533 16.5172,-9.78058c1.96752,1.92475 -2.23128,9.43127 -9.38137,16.75245z" fill-opacity="0.62745" fill="#ffffff" fill-rule="nonzero"/><path d="M277.60459,217.45873c-3.38048,4.09607 -7.47824,6.30617 -9.14965,4.92675c-1.67142,-1.37942 -0.27872,-5.822 3.10176,-9.91807c3.38048,-4.09607 7.47824,-6.30617 9.14965,-4.92675c1.67142,1.37942 0.27872,5.822 -3.10176,9.91807z" fill-opacity="0.43439" fill="#ffffff" fill-rule="nonzero"/><path d="M223.04424,170.96408c9.43127,-16.97343 18.01422,-10.03008 26.51876,-1.05505c-0.28515,1.70376 -13.81542,20.64472 -26.51876,1.05505z" fill="#ffffff" fill-rule="evenodd"/><path d="M256.27824,168.14112c8.50454,-8.97503 17.08749,-15.91839 26.51876,1.05505c-12.70334,19.58967 -26.23362,0.64871 -26.51876,-1.05505z" fill="#ffffff" fill-rule="evenodd"/><path d="M223.04424,170.96408c9.43127,-16.97343 18.01422,-10.03008 26.51876,-1.05505c-0.28515,1.70376 -13.81542,20.64472 -26.51876,1.05505z" fill="#000000" fill-rule="evenodd"/><path d="M256.27824,168.14112c8.50454,-8.97503 17.08749,-15.91839 26.51876,1.05505c-12.70334,19.58967 -26.23362,0.64871 -26.51876,-1.05505z" fill="#000000" fill-rule="evenodd"/><path d="M269.38911,167.62664c-2.38371,1.43124 -5.07716,1.32982 -6.01166,-0.22668c-0.93451,-1.55651 0.24206,-3.98159 2.62576,-5.41283c2.39305,-1.43685 5.0865,-1.33543 6.02101,0.22107c0.93451,1.55651 -0.24206,3.98159 -2.63511,5.41844z" fill-opacity="0.45575" fill="#ffffff" fill-rule="nonzero"/><path d="M234.03076,170.45674c-2.38371,1.43124 -5.07716,1.32982 -6.01166,-0.22668c-0.93451,-1.55651 0.24206,-3.98159 2.62576,-5.41283c2.39305,-1.43685 5.0865,-1.33543 6.02101,0.22107c0.93451,1.55651 -0.24206,3.98159 -2.63511,5.41844z" fill-opacity="0.45575" fill="#ffffff" fill-rule="nonzero"/></g><path d="M234.18658,151.02304c-3.593,3.66938 -10.36325,3.26669 -14.85465,1.47627c-3.11731,-3.02359 3.158,-4.84369 5.44473,-4.7106c2.4843,0.06552 9.64325,-0.88756 9.40991,3.23432z" fill-opacity="0.76549" fill="url(#color-3)" fill-rule="nonzero"/><path d="M223.95359,137.7295c2.07,-3.23 -1.63,-5.1 -3.07,-8.9c2.83,-2.17 6.58,-2.08 8.75,-0.25c-0.96,3.7 1.94,7.11 0.21,9.64c-3.96,5.77 -2.18,9.23 3.54,10.86c-2.95,4.62 -8.56,4.27 -13.5,2.25c-1.32,-4.04 1.92,-10.23 4.07,-13.6z" fill="#00ff00" fill-rule="evenodd"/><path d="M271.02485,148.86124c-3.8027,3.45153 -10.53747,2.65109 -14.91568,0.59946c-2.93394,-3.20179 3.43757,-4.6494 5.71249,-4.38196c2.47612,0.21162 9.6787,-0.31848 9.20319,3.78249z" fill-opacity="0.76549" fill="url(#color-4)" fill-rule="nonzero"/><path d="M270.29359,147.7745c-4.68,2.55 -10.22,3.53 -13.66,-0.73c5.5,-2.26 6.88,-5.89 2.31,-11.19c-2,-2.33 0.5,-6.03 -0.87,-9.6c1.95,-2.07 5.67,-2.57 8.73,-0.73c-1.01,3.94 -4.48,6.21 -2.07,9.19c2.52,3.11 6.43,8.9 5.56,13.06z" fill="#00ff00" fill-rule="evenodd"/><path d="M223.95359,137.7295c2.07,-3.23 -1.63,-5.1 -3.07,-8.9c2.83,-2.17 6.58,-2.08 8.75,-0.25c-0.96,3.7 1.94,7.11 0.21,9.64c-3.96,5.77 -2.18,9.23 3.54,10.86c-2.95,4.62 -8.56,4.27 -13.5,2.25c-1.32,-4.04 1.92,-10.23 4.07,-13.6z" fill="url(#color-5)" fill-rule="evenodd"/><path d="M270.29359,147.7745c-4.68,2.55 -10.22,3.53 -13.66,-0.73c5.5,-2.26 6.88,-5.89 2.31,-11.19c-2,-2.33 0.5,-6.03 -0.87,-9.6c1.95,-2.07 5.67,-2.57 8.73,-0.73c-1.01,3.94 -4.48,6.21 -2.07,9.19c2.52,3.11 6.43,8.9 5.56,13.06z" fill="url(#color-6)" fill-rule="evenodd"/><path d="M228.52359,129.2415c0,0.79 -1.39,1.42 -3.09,1.42c-1.71,0 -3.1,-0.63 -3.1,-1.42c0,-0.78 1.39,-1.41 3.1,-1.41c1.7,0 3.09,0.63 3.09,1.41z" fill-opacity="0.76549" fill="#ffffff" fill-rule="nonzero"/><path d="M265.64359,126.2364c0,0.79 -1.39,1.42 -3.09,1.42c-1.71,0 -3.1,-0.63 -3.1,-1.42c0,-0.78 1.39,-1.41 3.1,-1.41c1.7,0 3.09,0.63 3.09,1.41z" fill-opacity="0.76549" fill="#ffffff" fill-rule="nonzero"/></g></g></svg>