<?xml version="1.0" encoding="UTF-8" standalone="no"?>
<!-- Uploaded to: SVG Repo, www.svgrepo.com, Generator: SVG Repo Mixer Tools -->

<svg
   width="137.73521"
   height="119.43743"
   viewBox="0 0 176.30107 152.87991"
   class="icon"
   version="1.1"
   id="svg2006"
   sodipodi:docname="bar-svgrepo-com.svg"
   inkscape:version="1.2.2 (732a01da63, 2022-12-09)"
   xmlns:inkscape="http://www.inkscape.org/namespaces/inkscape"
   xmlns:sodipodi="http://sodipodi.sourceforge.net/DTD/sodipodi-0.dtd"
   xmlns="http://www.w3.org/2000/svg"
   xmlns:svg="http://www.w3.org/2000/svg">
  <defs
     id="defs2010" />
  <sodipodi:namedview
     id="namedview2008"
     pagecolor="#ffffff"
     bordercolor="#000000"
     borderopacity="0.25"
     inkscape:showpageshadow="2"
     inkscape:pageopacity="0.0"
     inkscape:pagecheckerboard="0"
     inkscape:deskcolor="#d1d1d1"
     showgrid="false"
     inkscape:zoom="1.04625"
     inkscape:cx="346.95341"
     inkscape:cy="302.03106"
     inkscape:window-width="1920"
     inkscape:window-height="1017"
     inkscape:window-x="1912"
     inkscape:window-y="-8"
     inkscape:window-maximized="1"
     inkscape:current-layer="svg2006" />
  <path
     d="m 98.05265,38.28421 c 0,-12.68893 -8.45929,-0.336 -8.45929,-23.44092 V 4.46682 c 0,-1.12659 -0.92894,-2.05553 -2.05553,-2.05553 h -7.25364 c -1.12659,0 -2.05553,0.92894 -2.05553,2.05553 v 10.37647 c 0,23.10492 -8.45929,10.75199 -8.45929,23.44092 v 32.98728 c 0,1.69976 1.38353,3.10306 3.10306,3.10306 h 22.11669 c 1.69977,0 3.10306,-1.38353 3.10306,-3.10306 z"
     fill="#d68231"
     id="path1960"
     style="stroke-width:0.197647" />
  <path
     d="m 78.2089,5.63294 h 11.38446 v 4.46682 H 78.2089 Z"
     fill=""
     id="path1962"
     style="stroke-width:0.197647" />
  <path
     d="M 76.1336,38.14586 H 91.66865 V 66.40937 H 76.1336 Z"
     fill="#ffffff"
     id="path1964"
     style="stroke-width:0.197647" />
  <path
     d="m 91.41171,5.45506 c 0,1.02776 -0.84988,1.87764 -1.87764,1.87764 H 78.28796 c -1.02777,0 -1.87765,-0.84988 -1.87765,-1.87764 V 1.87765 C 76.41031,0.84988 77.26019,0 78.28796,0 h 11.24611 c 1.02776,0 1.87764,0.84988 1.87764,1.87765 z"
     fill="#a4a9ad"
     id="path1966"
     style="stroke-width:0.197647" />
  <path
     d="m 55.8155,43.12656 c 0,-12.68893 -8.45929,-0.336 -8.45929,-23.44092 V 9.30917 c 0,-1.12659 -0.92894,-2.05553 -2.05553,-2.05553 h -7.25364 c -1.12659,0 -2.05553,0.92894 -2.05553,2.05553 v 10.37647 c 0,23.10492 -8.459291,10.75199 -8.459291,23.44092 v 32.98728 c 0,1.69976 1.383529,3.10306 3.103058,3.10306 H 52.75197 c 1.69976,0 3.10306,-1.38353 3.10306,-3.10306 z"
     fill="#d68231"
     id="path1968"
     style="stroke-width:0.197647" />
  <path
     d="m 35.97174,10.47529 h 11.38447 v 4.46682 H 35.97174 Z"
     fill=""
     id="path1970"
     style="stroke-width:0.197647" />
  <path
     d="M 33.89645,42.96845 H 49.4315 V 71.23196 H 33.89645 Z"
     fill="#ffffff"
     id="path1972"
     style="stroke-width:0.197647" />
  <path
     d="m 49.1548,10.29741 c 0,1.02776 -0.84989,1.87764 -1.87765,1.87764 H 36.03104 c -1.02777,0 -1.87765,-0.84988 -1.87765,-1.87764 V 6.72 c 0,-1.02777 0.84988,-1.87765 1.87765,-1.87765 h 11.24611 c 1.02776,0 1.87765,0.84988 1.87765,1.87765 z"
     fill="#a4a9ad"
     id="path1974"
     style="stroke-width:0.197647" />
  <path
     d="M 9.012701,62.33785 H 167.30814 v 85.42301 H 9.012701 Z"
     fill="#00ad68"
     id="path1976"
     style="stroke-width:0.197647" />
  <path
     d="m 9.012701,134.3011 h 16.720931 v 8.04423 H 9.012701 Z M 57.25832,76.11384 h 16.72093 v 8.04423 H 57.25832 Z m 16.50352,49.80703 h 16.72093 v 8.04423 H 73.76184 Z m 38.28421,-16.28611 h 16.72093 v 8.04423 h -16.72093 z m 31.44563,21.16799 h 16.72093 v 8.04423 h -16.72093 z m -25.3581,-62.35761 h 16.72093 v 8.04423 h -16.72093 z m 40.79433,22.74916 h 8.36046 v 8.04423 h -8.36046 z M 9.012701,93.96136 h 8.360465 v 8.04423 H 9.012701 Z"
     fill=""
     id="path1978"
     style="stroke-width:0.197647" />
  <path
     d="m 117.34299,38.14586 h 36.34727 v 18.97411 h -36.34727 z"
     fill="#a4a9ad"
     id="path1980"
     style="stroke-width:0.197647" />
  <path
     d="m 117.34299,38.14586 h 36.34727 v 7.17458 h -36.34727 z"
     fill=""
     id="path1982"
     style="stroke-width:0.197647" />
  <path
     d="m 156.3585,32.63151 c 0,-1.06729 -0.86965,-1.93694 -1.93694,-1.93694 H 116.6117 c -1.0673,0 -1.93694,0.86965 -1.93694,1.93694 v 5.27717 c 0,1.0673 0.86964,1.93694 1.93694,1.93694 h 37.82962 c 1.0673,0 1.93694,-0.86964 1.93694,-1.93694 z"
     fill="#d1d3d3"
     id="path1984"
     style="stroke-width:0.197647" />
  <path
     d="M 167.28837,72.45737 V 56.40844 c 0,-2.11482 -1.73929,-3.85412 -3.85411,-3.85412 H 12.866816 c -2.114822,0 -3.854115,1.7393 -3.854115,3.85412 v 16.04893 z"
     fill="#333e48"
     id="path1986"
     style="stroke-width:0.197647" />
  <path
     d="m 120.40652,87.61689 h 36.34727 v 60.1242 h -36.34727 z"
     fill="#ffb819"
     id="path1988"
     style="stroke-width:0.197647" />
  <path
     d="m 129.55757,120.74252 m -3.06352,0 a 3.0635277,3.0635277 0 1 0 6.12705,0 3.0635277,3.0635277 0 1 0 -6.12705,0 z"
     fill="#333e48"
     id="path1990"
     style="stroke-width:0.197647" />
  <path
     d="m 24.58728,129.9331 c -2.114822,0 -3.854115,-1.73929 -3.854115,-3.85411 v -38.4621 c 0,-2.11482 1.739293,-3.85411 3.854115,-3.85411 h 78.70301 c 2.11483,0 3.85412,1.73929 3.85412,3.85411 v 38.4621 c 0,2.11482 -1.73929,3.85411 -3.85412,3.85411 z"
     fill="#ffffff"
     id="path1992"
     style="stroke-width:0.197647" />
  <path
     d="M 28.441395,122.22487 V 91.47101 l 17.748695,30.75386 z m 17.748695,0 17.7487,-30.75386 17.74869,30.75386 z"
     fill="#218649"
     id="path1994"
     style="stroke-width:0.197647" />
  <path
     d="M 63.93879,91.47101 46.19009,122.22487 28.441395,91.47101 Z"
     fill="#ffb819"
     id="path1996"
     style="stroke-width:0.197647" />
  <path
     d="M 99.43618,91.47101 81.68748,122.22487 63.93879,91.47101 Z"
     fill="#ffb819"
     id="path1998"
     style="stroke-width:0.197647" />
  <path
     d="m 81.68748,122.22487 17.7487,-30.75386 v 30.75386 z"
     fill="#218649"
     id="path2000"
     style="stroke-width:0.197647" />
  <path
     d="m 176.30108,151.35803 c 0,0.83012 -0.69177,1.52188 -1.52189,1.52188 H 1.521881 C 0.691764,152.87991 0,152.18815 0,151.35803 v -5.43529 c 0,-0.83012 0.691764,-1.52188 1.521881,-1.52188 H 174.77919 c 0.83012,0 1.52189,0.69176 1.52189,1.52188 z"
     fill="#333e48"
     id="path2002"
     style="stroke-width:0.197647" />
  <path
     d="m 116.2757,144.40086 h 44.62868 v 8.47905 H 116.2757 Z"
     fill="#a4a9ad"
     id="path2004"
     style="stroke-width:0.197647" />
</svg>
