<svg width="137.735" height="119.437" viewBox="0 0 176.301 152.88" class="prefix__icon" xmlns="http://www.w3.org/2000/svg"><path d="M98.053 38.284c0-12.689-8.46-.336-8.46-23.44V4.466a2.067 2.067 0 00-2.055-2.056h-7.254a2.067 2.067 0 00-2.055 2.056v10.376c0 23.105-8.46 10.752-8.46 23.441v32.987c0 1.7 1.384 3.104 3.103 3.104H94.99c1.7 0 3.103-1.384 3.103-3.104z" fill="#d68231"/><path d="M78.209 5.633h11.384V10.1H78.21z"/><path d="M76.134 38.146h15.535v28.263H76.134z" fill="#fff"/><path d="M91.412 5.455a1.89 1.89 0 01-1.878 1.878H78.288a1.89 1.89 0 01-1.878-1.878V1.878A1.89 1.89 0 0178.288 0h11.246a1.89 1.89 0 011.878 1.878z" fill="#a4a9ad"/><path d="M55.816 43.127c0-12.69-8.46-.336-8.46-23.441V9.309a2.067 2.067 0 00-2.055-2.055h-7.254a2.067 2.067 0 00-2.055 2.055v10.377c0 23.105-8.46 10.752-8.46 23.44v32.988c0 1.7 1.384 3.103 3.103 3.103h22.117c1.7 0 3.103-1.384 3.103-3.103z" fill="#d68231"/><path d="M35.972 10.475h11.384v4.467H35.972z"/><path d="M33.896 42.968h15.535v28.264H33.897z" fill="#fff"/><path d="M49.155 10.297a1.89 1.89 0 01-1.878 1.878H36.031a1.89 1.89 0 01-1.878-1.878V6.72a1.89 1.89 0 011.878-1.878h11.246a1.89 1.89 0 011.878 1.878z" fill="#a4a9ad"/><path d="M9.013 62.338h158.295v85.423H9.013z" fill="#00ad68"/><path d="M9.013 134.301h16.72v8.044H9.014zm48.245-58.187H73.98v8.044H57.26zm16.504 49.807h16.72v8.044h-16.72zm38.284-16.286h16.721v8.044h-16.72zm31.446 21.168h16.72v8.044h-16.72zm-25.358-62.358h16.72v8.044h-16.72zm40.794 22.75h8.36v8.044h-8.36zM9.013 93.96h8.36v8.045h-8.36z"/><path d="M117.343 38.146h36.347V57.12h-36.347z" fill="#a4a9ad"/><path d="M117.343 38.146h36.347v7.174h-36.347z"/><path d="M156.358 32.632a1.94 1.94 0 00-1.936-1.937h-37.81a1.94 1.94 0 00-1.937 1.937v5.277a1.94 1.94 0 001.937 1.937h37.83a1.94 1.94 0 001.936-1.937z" fill="#d1d3d3"/><path d="M167.288 72.457V56.408a3.872 3.872 0 00-3.854-3.854H12.867a3.872 3.872 0 00-3.854 3.854v16.05z" fill="#333e48"/><path d="M120.407 87.617h36.347v60.124h-36.347z" fill="#ffb819"/><path d="M126.494 120.743a3.064 3.064 0 106.127 0 3.064 3.064 0 10-6.127 0z" fill="#333e48"/><path d="M24.587 129.933a3.872 3.872 0 01-3.854-3.854V87.617a3.872 3.872 0 013.854-3.854h78.703a3.872 3.872 0 013.854 3.854v38.462a3.872 3.872 0 01-3.854 3.854z" fill="#fff"/><path d="M28.441 122.225V91.47l17.75 30.754zm17.75 0L63.938 91.47l17.748 30.754z" fill="#218649"/><path d="M63.939 91.471L46.19 122.225 28.441 91.47zM99.436 91.471l-17.749 30.754L63.94 91.47z" fill="#ffb819"/><path d="M81.687 122.225l17.75-30.754v30.754z" fill="#218649"/><path d="M176.301 151.358c0 .83-.692 1.522-1.522 1.522H1.522c-.83 0-1.522-.692-1.522-1.522v-5.435c0-.83.692-1.522 1.522-1.522h173.257c.83 0 1.522.692 1.522 1.522z" fill="#333e48"/><path d="M116.276 144.4h44.628v8.48h-44.628z" fill="#a4a9ad"/></svg>