<svg width="119.533" height="140" xmlns="http://www.w3.org/2000/svg"><defs><clipPath clipPathUnits="userSpaceOnUse" id="prefix__a"><path d="M0 398h398V0H0z"/></clipPath></defs><g clip-path="url(#prefix__a)" fill-rule="evenodd" transform="matrix(.47336 0 0 -.47336 -35.672 172.933)"><path d="M137.162 229.522c-1.614 16.558-.03 28.07 4.751 34.539 4.982 6.741 13.159 8.069 24.53 3.982l-.962-2.684c-10.04 3.608-17.132 2.608-21.275-2.998-4.345-5.879-5.747-16.736-4.203-32.57z" fill="#628a12"/><path d="M136.14 230.333c-11.56-.094-17.919 3.599-23.639 7.758 7.534-3.296 15.214-5.356 23.396-3.151-5.896 5.012-7.085 11.593-7.152 18.548 2.375-9.779 8.152-16.244 12.851-18.79 8.752-3.558 16.988-1.948 25.093.969-8.262-5.258-17.09-9.494-30.549-5.334" fill="#628a12"/><path d="M136.141 232.878c15.265 0 27.64-6.07 27.64-21.336 0-15.265-12.375-27.64-27.64-27.64s-27.64 12.375-27.64 27.64c0 15.266 12.375 21.336 27.64 21.336" fill="#eb0000"/><path d="M129.94 229.436c10.829 0 19.608-4.307 19.608-15.136 0-10.829-8.779-19.609-19.608-19.609-10.83 0-19.608 8.78-19.608 19.609 0 10.829 8.778 15.136 19.608 15.136" fill="#ff3b3b"/><path d="M123.534 225.696c6.404 0 11.596-2.547 11.596-8.951 0-6.406-5.192-11.597-11.596-11.597-6.405 0-11.597 5.191-11.597 11.597 0 6.404 5.192 8.951 11.597 8.951" fill="#f66"/><path d="M206.775 69.572c-5.292 97.158-28.561 193.327-91.789 269.74 85.319-71.1 98.401-242.357 99.869-269.33z" fill="#628a12"/><path d="M191.883 195.633c20.459 36.196 48.365 65.812 89.533 73.933-56.633-4.013-87.206-60.941-92.886-70.989zM200.943 145.504c-33.091 20.047-68.453 31.752-103.022 20.867 44.012 20.643 94.136-8.861 103.322-14.428z" fill="#628a12"/><path d="M120.652 333.043c.666 3.999.781 7.871-.436 11.431-.441-.758-1.185-1.173-2.216-1.262-.324 2.971-.728 5.929-1.774 8.793-.647-1.694-1.508-3.148-2.746-4.174-1.292 4.033-2.911 7.882-6.068 10.859.036-1.229-.159-2.364-.603-3.396-1.4 2.773-2.691 5.62-5.619 7.338.128-1.018-.072-2.007-.705-2.955-2.235 2.648-4.829 4.914-8.854 5.653.715-.732 1.178-1.523 1.127-2.434-3.214 1.088-6.514 1.944-10.187 1.808 1.885-.808 3.631-1.842 5.065-3.375l-3.418-1.483c2.71-.733 4.475-2.36 5.965-4.247-1.545.079-2.982-.147-4.162-1.099 2.715-.099 4.532-1.522 6.047-3.391-1.584.278-2.906-.302-3.96-1.761 3.246.185 5.741-1.453 8.188-3.203-.933-.331-1.843-.861-2.718-1.705 3.413-.338 6.371-1.513 9.26-2.814-1.376-.479-2.527-1.394-3.448-2.758 3.688.062 7.308-.929 10.842-3.26-1.049-.452-1.974-1.097-2.73-2.008 3.872 1.102 8.376.612 13.15-.557" fill="#9c3"/><path d="M82.571 364.704c1.885-.808 3.631-1.842 5.065-3.375l-3.418-1.483c2.71-.733 4.475-2.36 5.965-4.247-1.545.079-2.982-.147-4.162-1.099 2.715-.099 4.532-1.522 6.047-3.391-1.584.278-2.906-.302-3.96-1.761 3.246.185 5.741-1.453 8.188-3.203-.933-.331-1.843-.861-2.718-1.705 3.413-.338 6.371-1.513 9.26-2.814-1.376-.479-2.527-1.394-3.448-2.758 3.688.062 7.308-.929 10.842-3.26-1.049-.452-1.974-1.097-2.73-2.008 3.872 1.102 8.376.612 13.15-.557-7.331 11.848-28.078 30-38.081 31.661" fill="#81b31e"/><path d="M133.728 317.21c-2.315 3.329-4.936 6.18-8.292 7.881.213-.85-.03-1.667-.707-2.451-2.305 1.902-4.659 3.738-7.408 5.059.72-1.665 1.118-3.307.949-4.906-3.741 1.987-7.587 3.612-11.927 3.54.885-.855 1.537-1.803 1.939-2.852-2.938 1.007-5.849 2.145-9.146 1.332.803-.64 1.349-1.487 1.558-2.608-3.448.336-6.887.148-10.285-2.132 1.023-.026 1.906-.269 2.506-.957-3.061-1.464-6.022-3.155-8.557-5.817 1.914.738 3.886 1.217 5.983 1.12l-1.413-3.448c2.452 1.367 4.852 1.434 7.236 1.123-1.161-1.022-2.033-2.188-2.213-3.693 2.013 1.825 4.308 2.074 6.697 1.794-1.328-.907-1.87-2.246-1.606-4.026 2.195 2.398 5.125 2.967 8.1 3.422-.438-.888-.72-1.903-.758-3.118 2.68 2.14 5.618 3.362 8.596 4.448-.652-1.302-.837-2.762-.544-4.381 2.597 2.618 5.881 4.436 10.039 5.233-.435-1.056-.648-2.164-.554-3.343 2.004 3.491 5.572 6.284 9.807 8.78" fill="#9c3"/><path d="M84.358 313.299c1.914.738 3.886 1.217 5.983 1.12l-1.413-3.448c2.452 1.367 4.852 1.434 7.236 1.123-1.161-1.022-2.033-2.188-2.213-3.693 2.013 1.825 4.308 2.074 6.697 1.794-1.328-.907-1.87-2.246-1.606-4.026 2.195 2.398 5.125 2.967 8.1 3.422-.438-.888-.72-1.903-.758-3.118 2.68 2.14 5.618 3.362 8.596 4.448-.652-1.302-.837-2.762-.544-4.381 2.597 2.618 5.881 4.436 10.039 5.233-.435-1.056-.648-2.164-.554-3.343 2.004 3.491 5.572 6.284 9.807 8.78-13.521 3.367-41.047 1.883-49.37-3.911" fill="#81b31e"/><path d="M134.286 318.118c-1.575 3.736-2.583 7.475-2.224 11.22.605-.634 1.424-.865 2.448-.713-.373 2.964-.667 5.937-.312 8.965 1.022-1.499 2.197-2.713 3.638-3.425.322 4.224 1.006 8.343 3.388 11.97.25-1.204.702-2.263 1.373-3.163.72 3.021 1.315 6.09 3.766 8.44.112-1.02.535-1.935 1.37-2.711 1.56 3.093 3.559 5.898 7.303 7.549-.525-.877-.792-1.754-.532-2.628 2.874 1.803 5.887 3.4 9.491 4.118-1.646-1.222-3.105-2.632-4.146-4.456l3.669-.65c-2.466-1.342-3.806-3.333-4.819-5.514 1.485.435 2.936.548 4.305-.104-2.619-.725-4.057-2.532-5.098-4.7 1.476.637 2.897.379 4.261-.796-3.2-.572-5.248-2.744-7.224-5.014.985-.105 1.993-.41 3.039-1.028-3.24-1.119-5.846-2.948-8.356-4.883 1.45-.147 2.782-.77 3.994-1.884-3.602-.794-6.894-2.597-9.792-5.683 1.125-.197 2.175-.61 3.121-1.321-4.021.174-8.29-1.346-12.663-3.589" fill="#9c3"/><path d="M163.995 357.74c-1.646-1.222-3.105-2.632-4.146-4.456l3.669-.65c-2.466-1.342-3.806-3.333-4.819-5.514 1.485.435 2.936.548 4.305-.104-2.619-.725-4.057-2.532-5.098-4.7 1.476.637 2.897.379 4.261-.796-3.2-.572-5.248-2.744-7.224-5.014.985-.105 1.993-.41 3.039-1.028-3.24-1.119-5.846-2.948-8.356-4.883 1.45-.147 2.782-.77 3.994-1.884-3.602-.794-6.894-2.597-9.792-5.683 1.125-.197 2.175-.61 3.121-1.321-4.021.174-8.29-1.346-12.663-3.589 4.387 13.225 20.363 35.689 29.709 39.622" fill="#81b31e"/><path d="M153.917 288.435c-3.254 3.871-6.832 7.114-11.193 8.844.36-1.032.151-2.074-.599-3.124-3.079 2.098-6.212 4.113-9.775 5.439 1.083-1.986 1.764-3.98 1.735-5.985-4.872 2.043-9.833 3.623-15.213 3.04 1.195-.961 2.113-2.065 2.732-3.321-3.763.917-7.508 1.999-11.509.614 1.07-.704 1.844-1.693 2.231-3.062-4.321.026-8.569-.599-12.53-3.817 1.273.084 2.398-.117 3.22-.903-3.634-2.166-7.119-4.603-9.963-8.197 2.293 1.134 4.686 1.953 7.302 2.071l-1.362-4.443c2.89 1.977 5.862 2.332 8.858 2.218-1.326-1.401-2.276-2.947-2.329-4.839 2.293 2.496 5.114 3.066 8.113 2.99-1.546-1.277-2.066-3.001-1.537-5.181 2.454 3.226 6.027 4.266 9.67 5.17-.443-1.153-.677-2.445-.585-3.957 3.083 2.961 6.593 4.814 10.167 6.502-.661-1.693-.725-3.526-.177-5.505 2.928 3.548 6.8 6.178 11.871 7.642-.42-1.361-.559-2.761-.306-4.215 2.091 4.563 6.204 8.438 11.179 12.019" fill="#9c3"/><path d="M93.053 277.963c2.293 1.134 4.686 1.953 7.302 2.071l-1.362-4.443c2.89 1.977 5.862 2.332 8.858 2.218-1.326-1.401-2.276-2.947-2.329-4.839 2.293 2.496 5.114 3.066 8.113 2.99-1.546-1.277-2.066-3.001-1.537-5.181 2.454 3.226 6.027 4.266 9.67 5.17-.443-1.153-.677-2.445-.585-3.957 3.083 2.961 6.593 4.814 10.167 6.502-.661-1.693-.725-3.526-.177-5.505 2.928 3.548 6.8 6.178 11.871 7.642-.42-1.361-.559-2.761-.306-4.215 2.091 4.563 6.204 8.438 11.179 12.019-17.174 2.643-51.188-2.331-60.864-10.472" fill="#81b31e"/><path d="M154.507 289.626c-2.381 4.461-4.058 8.989-4.039 13.681.824-.719 1.868-.913 3.122-.608-.8 3.64-1.503 7.297-1.407 11.098 1.44-1.745 3.037-3.119 4.907-3.839-.08 5.281.301 10.474 2.846 15.25.447-1.467 1.129-2.73 2.064-3.772.551 3.833.941 7.712 3.717 10.909.255-1.254.885-2.342 2.011-3.211 1.585 4.02 3.748 7.73 8.209 10.207-.552-1.149-.784-2.269-.361-3.324 3.364 2.566 6.924 4.892 11.319 6.193-1.907-1.706-3.558-3.622-4.643-6.005l4.631-.391c-2.911-1.946-4.348-4.572-5.357-7.395 1.794.709 3.582 1.015 5.357.359-3.17-1.198-4.75-3.604-5.796-6.415 1.761.959 3.554.8 5.381-.504-3.909-1.075-6.204-4.004-8.399-7.048 1.234-.019 2.52-.282 3.89-.931-3.897-1.759-6.924-4.326-9.821-7.014 1.817-.017 3.542-.641 5.174-1.886-4.383-1.397-8.267-4.009-11.514-8.171 1.42-.117 2.771-.51 4.027-1.286-5.014-.24-10.142-2.614-15.318-5.897" fill="#9c3"/><path d="M186.895 342.21c-1.907-1.706-3.558-3.622-4.643-6.005l4.631-.391c-2.911-1.946-4.348-4.572-5.357-7.395 1.794.709 3.582 1.015 5.357.359-3.17-1.198-4.75-3.604-5.796-6.415 1.761.959 3.554.8 5.381-.504-3.909-1.075-6.204-4.004-8.399-7.048 1.234-.019 2.52-.282 3.89-.931-3.897-1.759-6.924-4.326-9.821-7.014 1.817-.017 3.542-.641 5.174-1.886-4.383-1.397-8.267-4.009-11.514-8.171 1.42-.117 2.771-.51 4.027-1.286-5.014-.24-10.142-2.614-15.318-5.897 3.943 16.922 21.227 46.637 32.388 52.584" fill="#81b31e"/><path d="M272.301 267.19c1.053 4.654 2.65 8.923 5.558 12.262.145-1.022.772-1.805 1.856-2.361 1.674 3.093 3.43 6.138 5.844 8.793-.049-2.134.242-4.101 1.134-5.77 3.203 3.821 6.68 7.294 11.446 9.134-.588-1.324-.879-2.647-.856-3.969 2.76 2.398 5.434 4.927 9.387 5.496-.592-1.052-.813-2.218-.545-3.533 3.613 1.892 7.447 3.206 12.162 2.222-1.103-.481-1.961-1.136-2.31-2.152 3.986-.243 7.962-.779 11.904-2.562-2.414-.042-4.776-.392-7.022-1.424 1.024-1.045 2.045-2.091 3.067-3.136-3.28.406-5.926-.581-8.391-1.975 1.721-.601 3.186-1.486 4.049-3.049-3.004 1.1-5.617.357-8.1-1.004 1.85-.402 3.034-1.622 3.532-3.681-3.453 1.644-6.901.97-10.346.15.869-.774 1.625-1.756 2.203-3.065-3.869 1.149-7.615 1.184-11.342 1.053 1.285-1.134 2.133-2.644 2.53-4.54-3.991 1.709-8.377 2.239-13.264 1.271.941-.96 1.664-2.074 2.082-3.403-3.731 2.924-8.856 4.392-14.578 5.243" fill="#9c3"/><path d="M327.881 284.75c-2.414-.042-4.776-.392-7.022-1.424 1.024-1.045 2.045-2.091 3.067-3.136-3.28.406-5.926-.581-8.391-1.975 1.721-.601 3.186-1.486 4.049-3.049-3.004 1.1-5.617.357-8.1-1.004 1.85-.402 3.034-1.622 3.532-3.681-3.453 1.644-6.901.97-10.346.15.869-.774 1.625-1.756 2.203-3.065-3.869 1.149-7.615 1.184-11.342 1.053 1.285-1.134 2.133-2.644 2.53-4.54-3.991 1.709-8.377 2.239-13.264 1.271.941-.96 1.664-2.074 2.082-3.403-3.731 2.924-8.856 4.392-14.578 5.243 13.258 9.649 43.941 20.201 55.58 17.56" fill="#81b31e"/><path d="M254.234 262.16c4.719.702 9.278.758 13.442-.745-.901-.504-1.403-1.372-1.528-2.583 3.489-.442 6.961-.976 10.311-2.265-2.006-.729-3.734-1.711-4.969-3.147 4.723-1.602 9.219-3.586 12.658-7.362-1.445.067-2.785-.139-4.007-.64 3.232-1.704 6.558-3.281 8.521-6.76-1.195.17-2.363-.045-3.492-.771 3.072-2.683 5.685-5.781 6.473-10.533-.846.854-1.768 1.416-2.842 1.375 1.217-3.804 2.158-7.706 1.922-12.025-.912 2.235-2.094 4.31-3.869 6.03-.606-1.331-1.209-2.662-1.815-3.994-.807 3.205-2.687 5.314-4.877 7.106.063-1.819-.232-3.507-1.377-4.877-.06 3.198-1.701 5.365-3.869 7.186.297-1.868-.414-3.413-2.152-4.624.283 3.815-1.594 6.785-3.606 9.7-.406-1.091-1.049-2.15-2.058-3.163-.33 4.021-1.655 7.526-3.125 10.954-.592-1.61-1.692-2.946-3.317-4.003.149 4.339-.945 8.62-3.616 12.825-.554-1.224-1.331-2.302-2.419-3.172 1.375 4.535.889 9.845-.389 15.488" fill="#9c3"/><path d="M290.723 216.704c-.912 2.235-2.094 4.31-3.869 6.03-.606-1.331-1.209-2.662-1.815-3.994-.807 3.205-2.687 5.314-4.877 7.106.063-1.819-.232-3.507-1.377-4.877-.06 3.198-1.701 5.365-3.869 7.186.297-1.868-.414-3.413-2.152-4.624.283 3.815-1.594 6.785-3.606 9.7-.406-1.091-1.049-2.15-2.058-3.163-.33 4.021-1.655 7.526-3.125 10.954-.592-1.61-1.692-2.946-3.317-4.003.149 4.339-.945 8.62-3.616 12.825-.554-1.224-1.331-2.302-2.419-3.172 1.375 4.535.889 9.845-.389 15.488 13.795-8.868 34.737-33.651 36.489-45.456" fill="#81b31e"/><path d="M253.861 262.754c4.473 1.666 8.491 3.821 11.41 7.15-1.033.006-1.892.521-2.587 1.521 2.839 2.074 5.623 4.22 7.933 6.968-2.111-.334-4.099-.308-5.871.353 3.358 3.685 6.336 7.594 7.522 12.562-1.233-.758-2.506-1.225-3.819-1.376 2.008 3.055 4.158 6.041 4.194 10.037-.965-.727-2.09-1.103-3.43-1.013 1.392 3.834 2.182 7.809.576 12.35-.328-1.159-.863-2.095-1.822-2.577-.776 3.917-1.838 7.788-4.131 11.455.281-2.397.25-4.785-.473-7.148-1.174.872-2.345 1.745-3.517 2.619.84-3.196.215-5.951-.836-8.579-.826 1.623-1.899 2.958-3.563 3.604 1.492-2.829 1.104-5.518.087-8.16-.645 1.779-2.013 2.788-4.12 3.008 2.092-3.204 1.884-6.71 1.532-10.235-.883.759-1.958 1.376-3.333 1.774 1.657-3.68 2.192-7.388 2.559-11.1-1.295 1.124-2.904 1.762-4.836 1.902 2.227-3.728 3.338-8.003 3.032-12.976-1.077.805-2.277 1.371-3.651 1.607 3.395-3.304 5.537-8.188 7.144-13.746" fill="#9c3"/><path d="M263.836 320.184c.281-2.397.25-4.785-.473-7.148-1.174.872-2.345 1.745-3.517 2.619.84-3.196.215-5.951-.836-8.579-.826 1.623-1.899 2.958-3.563 3.604 1.492-2.829 1.104-5.518.087-8.16-.645 1.779-2.013 2.788-4.12 3.008 2.092-3.204 1.884-6.71 1.532-10.235-.883.759-1.958 1.376-3.333 1.774 1.657-3.68 2.192-7.388 2.559-11.1-1.295 1.124-2.904 1.762-4.836 1.902 2.227-3.728 3.338-8.003 3.032-12.976-1.077.805-2.277 1.371-3.651 1.607 3.395-3.304 5.537-8.188 7.144-13.746 7.791 14.431 14.147 46.248 9.975 57.43" fill="#81b31e"/><path d="M221.788 238.099c5.267 2.771 10.608 4.713 16.13 4.658-.852-.965-1.087-2.191-.735-3.671 4.288.917 8.596 1.719 13.071 1.58-2.065-1.683-3.693-3.552-4.554-5.749 6.218.057 12.327-.426 17.931-3.456-1.731-.515-3.223-1.309-4.455-2.404 4.508-.675 9.07-1.161 12.814-4.45-1.478-.291-2.763-1.025-3.793-2.345 4.719-1.894 9.071-4.465 11.955-9.733-1.349.658-2.664.939-3.91.449 2.996-3.978 5.709-8.183 7.211-13.365-1.994 2.256-4.238 4.213-7.037 5.505-.162-1.815-.326-3.631-.49-5.448-2.272 3.44-5.352 5.151-8.666 6.358.82-2.117 1.168-4.224.385-6.307-1.389 3.738-4.209 5.614-7.51 6.865 1.115-2.079.916-4.188-.631-6.33-1.238 4.609-4.67 7.33-8.236 9.935-.032-1.451-.352-2.965-1.124-4.571-2.043 4.597-5.044 8.179-8.187 11.607-.033-2.138-.779-4.164-2.256-6.076-1.613 5.168-4.662 9.757-9.537 13.608-.147-1.67-.619-3.258-1.541-4.73-.248 5.904-3.007 11.955-6.835 18.07" fill="#9c3"/><path d="M283.453 199.613c-1.994 2.256-4.238 4.213-7.037 5.505-.162-1.815-.326-3.631-.49-5.448-2.272 3.44-5.352 5.151-8.666 6.358.82-2.117 1.168-4.224.385-6.307-1.389 3.738-4.209 5.614-7.51 6.865 1.115-2.079.916-4.188-.631-6.33-1.238 4.609-4.67 7.33-8.236 9.935-.032-1.451-.352-2.965-1.124-4.571-2.043 4.597-5.044 8.179-8.187 11.607-.033-2.138-.779-4.164-2.256-6.076-1.613 5.168-4.662 9.757-9.537 13.608-.147-1.67-.619-3.258-1.541-4.73-.248 5.904-3.007 11.955-6.835 18.07 19.89-4.76 54.743-25.309 61.665-38.486" fill="#81b31e"/><path d="M221.675 239.66c4.579 3.801 8.42 7.991 10.486 13.111-1.217-.417-2.44-.164-3.672.728 2.491 3.608 4.884 7.281 6.47 11.466-2.346-1.261-4.695-2.048-7.056-2.001 2.439 5.72 4.333 11.548 3.685 17.885-1.141-1.4-2.445-2.474-3.93-3.193 1.106 4.422 2.406 8.823.804 13.541-.836-1.253-2.007-2.158-3.62-2.604.061 5.086-.645 10.091-4.404 14.775.089-1.499-.156-2.822-1.086-3.785-2.524 4.293-5.368 8.412-9.579 11.786 1.32-2.707 2.266-5.531 2.387-8.61l-5.219 1.634c2.306-3.415 2.704-6.916 2.547-10.442-1.639 1.571-3.451 2.7-5.676 2.775 2.92-2.716 3.571-6.04 3.461-9.569-1.492 1.829-3.517 2.453-6.088 1.844 3.782-2.909 4.979-7.122 6.018-11.416-1.353.529-2.873.814-4.654.716 3.464-3.65 5.621-7.795 7.582-12.012-1.988.79-4.145.878-6.477.247 4.156-3.471 7.225-8.046 8.911-14.026-1.598.504-3.245.677-4.96.39 5.358-2.492 9.89-7.36 14.07-13.24" fill="#9c3"/><path d="M209.773 311.369c1.32-2.707 2.266-5.531 2.387-8.61l-5.219 1.634c2.306-3.415 2.704-6.916 2.547-10.442-1.639 1.571-3.451 2.7-5.676 2.775 2.92-2.716 3.571-6.04 3.461-9.569-1.492 1.829-3.517 2.453-6.088 1.844 3.782-2.909 4.979-7.122 6.018-11.416-1.353.529-2.873.814-4.654.716 3.464-3.65 5.621-7.795 7.582-12.012-1.988.79-4.145.878-6.477.247 4.156-3.471 7.225-8.046 8.911-14.026-1.598.504-3.245.677-4.96.39 5.358-2.492 9.89-7.36 14.07-13.24 3.229 20.193-2.386 60.262-11.902 71.709" fill="#81b31e"/><path d="M201.607 214.279c3.113 2.019 6.317 3.528 9.747 3.807-.473-.647-.551-1.422-.249-2.319 2.61.814 5.24 1.555 8.024 1.723-1.186-1.162-2.09-2.414-2.5-3.827 3.855.389 7.676.436 11.324-1.125-1.044-.419-1.924-.996-2.627-1.746 2.836-.163 5.695-.205 8.205-2.033a3.851 3.851 0 01-2.22-1.671c3.037-.907 5.883-2.255 7.973-5.361-.874.331-1.707.432-2.452.056 2.086-2.298 4.009-4.754 5.234-7.885-1.365 1.288-2.869 2.373-4.679 3.018l.004-3.408c-1.604 2.004-3.613 2.89-5.741 3.451.631-1.266.967-2.555.6-3.893-1.074 2.243-2.932 3.247-5.053 3.834.813-1.226.809-2.546-.03-3.964-1.031 2.791-3.315 4.285-5.677 5.697a6.806 6.806 0 00-.437-2.901c-1.53 2.738-3.596 4.791-5.741 6.74.1-1.329-.248-2.63-1.054-3.899-1.296 3.115-3.449 5.79-6.694 7.902.004-1.044-.199-2.056-.687-3.022-.49 3.65-2.546 7.248-5.27 10.826" fill="#9c3"/><path d="M242.066 193.898c-1.365 1.288-2.869 2.373-4.679 3.018l.004-3.408c-1.604 2.004-3.613 2.89-5.741 3.451.631-1.266.967-2.555.6-3.893-1.074 2.243-2.932 3.247-5.053 3.834.813-1.226.809-2.546-.03-3.964-1.031 2.791-3.315 4.285-5.677 5.697a6.806 6.806 0 00-.437-2.901c-1.53 2.738-3.596 4.791-5.741 6.74.1-1.329-.248-2.63-1.054-3.899-1.296 3.115-3.449 5.79-6.694 7.902.004-1.044-.199-2.056-.687-3.022-.49 3.65-2.546 7.248-5.27 10.826 12.616-1.823 35.414-12.597 40.459-20.381" fill="#81b31e"/><path d="M201.449 215.241c2.625 2.62 4.772 5.438 5.762 8.733-.731-.328-1.505-.24-2.319.242 1.34 2.383 2.616 4.798 3.363 7.486-1.384-.916-2.798-1.539-4.265-1.644 1.188 3.689 2.032 7.414 1.269 11.309-.628-.933-1.376-1.673-2.256-2.204.435 2.807.991 5.612-.271 8.45a3.853 3.853 0 00-2.099-1.822c-.252 3.159-.974 6.225-3.574 8.918.142-.924.065-1.759-.458-2.41-1.81 2.521-3.81 4.915-6.615 6.77.972-1.606 1.721-3.304 1.971-5.208l-3.332.718c1.625-1.989 2.071-4.139 2.174-6.336-1.107.882-2.296 1.479-3.681 1.4 1.968-1.52 2.561-3.546 2.693-5.742-1.03 1.05-2.323 1.322-3.884.799 2.512-1.592 3.496-4.138 4.384-6.744-.87.252-1.829.341-2.929.179 2.357-2.068 3.932-4.517 5.389-7.024-1.279.377-2.623.309-4.034-.215 2.776-1.918 4.941-4.583 6.328-8.197-1.021.221-2.053.235-3.1-.04 3.466-1.243 6.556-4.007 9.484-7.418" fill="#9c3"/><path d="M189.986 259.069c.972-1.606 1.721-3.304 1.971-5.208l-3.332.718c1.625-1.989 2.071-4.139 2.174-6.336-1.107.882-2.296 1.479-3.681 1.4 1.968-1.52 2.561-3.546 2.693-5.742-1.03 1.05-2.323 1.322-3.884.799 2.512-1.592 3.496-4.138 4.384-6.744-.87.252-1.829.341-2.929.179 2.357-2.068 3.932-4.517 5.389-7.024-1.279.377-2.623.309-4.034-.215 2.776-1.918 4.941-4.583 6.328-8.197-1.021.221-2.053.235-3.1-.04 3.466-1.243 6.556-4.007 9.484-7.418.858 12.717-4.907 37.264-11.463 43.828" fill="#81b31e"/><path d="M124.59 171.258c-3.018 3.207-6.249 5.89-9.993 7.308.387-.855.306-1.724-.221-2.603-2.72 1.732-5.476 3.394-8.527 4.482 1.066-1.648 1.8-3.304 1.951-4.974-4.191 1.675-8.416 2.968-12.798 2.457 1.069-.795 1.921-1.709 2.54-2.752-3.179.746-6.359 1.629-9.535.455a5.008 5.008 0 002.105-2.537c-3.562 0-7.007-.541-9.989-3.239 1.041.075 1.985-.085 2.731-.736-2.805-1.822-5.463-3.867-7.494-6.873 1.791.955 3.692 1.647 5.836 1.76l-.735-3.707c2.209 1.66 4.627 1.971 7.105 1.889-.97-1.172-1.618-2.463-1.497-4.038 1.671 2.088 3.946 2.577 6.423 2.528-1.162-1.071-1.441-2.508-.814-4.323 1.739 2.7 4.593 3.583 7.515 4.352-.264-.961-.344-2.039-.137-3.297 2.283 2.481 5.013 4.039 7.81 5.463-.397-1.414-.29-2.939.334-4.584 2.103 2.967 5.063 5.176 9.113 6.42a7.462 7.462 0 01.116-3.512c1.324 3.811 4.374 7.055 8.161 10.061" fill="#9c3"/><path d="M75.36 162.246c1.791.955 3.692 1.647 5.836 1.76l-.735-3.707c2.209 1.66 4.627 1.971 7.105 1.889-.97-1.172-1.618-2.463-1.497-4.038 1.671 2.088 3.946 2.577 6.423 2.528-1.162-1.071-1.441-2.508-.814-4.323 1.739 2.7 4.593 3.583 7.515 4.352-.264-.961-.344-2.039-.137-3.297 2.283 2.481 5.013 4.039 7.81 5.463-.397-1.414-.29-2.939.334-4.584 2.103 2.967 5.063 5.176 9.113 6.42a7.462 7.462 0 01.116-3.512c1.324 3.811 4.374 7.055 8.161 10.061-14.379 2.119-41.968-2.188-49.23-9.012" fill="#81b31e"/><path d="M146.278 169.42c-4.189.34-8.141.117-11.527-1.455.853-.391 1.416-1.123 1.702-2.182-2.956-.595-5.885-1.273-8.595-2.607 1.844-.522 3.483-1.285 4.76-2.475-3.852-1.689-7.454-3.703-9.88-7.232 1.242.146 2.431.045 3.564-.324-2.551-1.694-5.198-3.28-6.388-6.459 1.01.222 2.051.101 3.134-.469-2.266-2.545-4.075-5.428-4.064-9.656.608.802 1.324 1.351 2.259 1.378-.497-3.419-.741-6.91.094-10.697.464 2.022 1.183 3.918 2.468 5.537l2.153-3.406c.231 2.867 1.549 4.836 3.184 6.545.212-1.605.713-3.074 1.904-4.211-.414 2.818.688 4.822 2.298 6.555.018-1.662.858-2.981 2.539-3.944-.802 3.344.388 6.069 1.702 8.754.513-.935 1.224-1.832 2.246-2.662-.303 3.561.331 6.723 1.104 9.826.747-1.381 1.895-2.49 3.455-3.324-.762 3.811-.441 7.643 1.256 11.504.658-1.045 1.488-1.947 2.557-2.648-1.852 3.908-2.208 8.611-1.925 13.652" fill="#9c3"/><path d="M121.337 127.242c.464 2.022 1.183 3.918 2.468 5.537l2.153-3.406c.231 2.867 1.549 4.836 3.184 6.545.212-1.605.713-3.074 1.904-4.211-.414 2.818.688 4.822 2.298 6.555.018-1.662.858-2.981 2.539-3.944-.802 3.344.388 6.069 1.702 8.754.513-.935 1.224-1.832 2.246-2.662-.303 3.561.331 6.723 1.104 9.826.747-1.381 1.895-2.49 3.455-3.324-.762 3.811-.441 7.643 1.256 11.504.658-1.045 1.488-1.947 2.557-2.648-1.852 3.908-2.208 8.611-1.925 13.652-10.645-8.625-25.15-31.684-24.941-42.178" fill="#81b31e"/><path d="M146.513 169.967c-4.114 1.201-7.906 2.857-10.919 5.613.892.066 1.561.572 2.017 1.494-2.762 1.655-5.485 3.377-7.884 5.658 1.874-.168 3.591-.025 5.029.663-3.445 3.041-6.593 6.304-8.346 10.607 1.178-.594 2.347-.93 3.506-.984-2.184 2.568-4.48 5.069-5.095 8.584.941-.583 1.971-.846 3.116-.687-1.765 3.291-3.03 6.742-2.303 10.834.453-.999 1.054-1.792 1.954-2.16.098 3.494.453 6.964 1.902 10.328.106-2.126.482-4.225 1.453-6.262l2.662 2.514c-.261-2.863.683-5.251 1.977-7.501.477 1.478 1.211 2.717 2.557 3.384-.878-2.579-.15-4.923 1.117-7.186.298 1.603 1.335 2.573 3.126 2.892-1.342-2.944-.65-6.017.169-9.099.654.72 1.494 1.328 2.625 1.76-.895-3.337-.817-6.632-.593-9.921.957 1.065 2.257 1.723 3.909 1.961-1.382-3.414-1.72-7.242-.729-11.6.815.772 1.771 1.342 2.925 1.631-2.456-3.111-3.596-7.537-4.175-12.523" fill="#9c3"/><path d="M129.49 219.917c.106-2.126.482-4.225 1.453-6.262l2.662 2.514c-.261-2.863.683-5.251 1.977-7.501.477 1.478 1.211 2.717 2.557 3.384-.878-2.579-.15-4.923 1.117-7.186.298 1.603 1.335 2.573 3.126 2.892-1.342-2.944-.65-6.017.169-9.099.654.72 1.494 1.328 2.625 1.76-.895-3.337-.817-6.632-.593-9.921.957 1.065 2.257 1.723 3.909 1.961-1.382-3.414-1.72-7.242-.729-11.6.815.772 1.771 1.342 2.925 1.631-2.456-3.111-3.596-7.537-4.175-12.523-8.851 12.236-19.001 39.861-17.023 49.95" fill="#81b31e"/><path d="M175.182 164.158c-5.22.738-10.186.768-14.546-.916 1.038-.549 1.687-1.498 1.965-2.83-3.747-.51-7.466-1.123-10.962-2.566 2.27-.785 4.265-1.856 5.774-3.426-4.954-1.795-9.617-4.01-12.923-8.19 1.567.084 3.048-.132 4.437-.675-3.322-1.899-6.757-3.655-8.49-7.498 1.282.197 2.577-.032 3.89-.823-3.032-2.974-5.516-6.4-5.824-11.632.824.947 1.761 1.57 2.934 1.533-.882-4.194-1.453-8.492-.695-13.242.734 2.464 1.778 4.755 3.511 6.66l2.437-4.379c.508 3.531 2.309 5.865 4.485 7.851.144-2.002.66-3.855 2.065-5.353-.304 3.517 1.228 5.912 3.376 7.932-.104-2.059.848-3.752 2.88-5.073-.751 4.196.947 7.475 2.797 10.698.571-1.198 1.393-2.36 2.61-3.465-.108 4.425.925 8.291 2.13 12.072.83-1.766 2.183-3.229 4.073-4.379-.664 4.772.029 9.488 2.448 14.135.745-1.344 1.716-2.524 3-3.473-2.022 4.979-2.11 10.824-1.372 17.039" fill="#9c3"/><path d="M140.742 113.893c.734 2.464 1.778 4.755 3.511 6.66l2.437-4.379c.508 3.531 2.309 5.865 4.485 7.851.144-2.002.66-3.855 2.065-5.353-.304 3.517 1.228 5.912 3.376 7.932-.104-2.059.848-3.752 2.88-5.073-.751 4.196.947 7.475 2.797 10.698.571-1.198 1.393-2.36 2.61-3.465-.108 4.425.925 8.291 2.13 12.072.83-1.766 2.183-3.229 4.073-4.379-.664 4.772.029 9.488 2.448 14.135.745-1.344 1.716-2.524 3-3.473-2.022 4.979-2.11 10.824-1.372 17.039-13.986-9.853-33.904-37.265-34.44-50.265" fill="#81b31e"/><path d="M174.685 165.488c-5.06 1.801-9.683 4.141-13.247 7.782 1.122.015 1.998.587 2.639 1.693-3.333 2.26-6.611 4.601-9.443 7.605 2.334-.349 4.495-.306 6.349.434-4.084 4.027-7.778 8.307-9.646 13.764 1.43-.827 2.869-1.33 4.316-1.487-2.54 3.345-5.225 6.616-5.728 11.012 1.134-.794 2.403-1.2 3.849-1.09-1.96 4.206-3.281 8.572-2.061 13.58.493-1.272 1.184-2.299 2.285-2.822.387 4.315 1.094 8.581 3.166 12.631-.028-2.639.282-5.265 1.344-7.86l3.525 2.906c-.545-3.521.455-6.548 1.905-9.429.71 1.791 1.724 3.266 3.459 3.989-1.295-3.123-.561-6.078.853-8.977.496 1.962 1.867 3.081 4.135 3.339-1.905-3.539-1.272-7.395-.48-11.269.873.839 1.972 1.527 3.421 1.975-1.375-4.06-1.528-8.143-1.497-12.229 1.279 1.246 2.957 1.959 5.044 2.127-1.99-4.117-2.704-8.828-1.795-14.297 1.079.895 2.32 1.526 3.787 1.797-3.311-3.66-5.075-9.049-6.18-15.174" fill="#9c3"/><path d="M157.164 228.59c-.028-2.639.282-5.265 1.344-7.86l3.525 2.906c-.545-3.521.455-6.548 1.905-9.429.71 1.791 1.724 3.266 3.459 3.989-1.295-3.123-.561-6.078.853-8.977.496 1.962 1.867 3.081 4.135 3.339-1.905-3.539-1.272-7.395-.48-11.269.873.839 1.972 1.527 3.421 1.975-1.375-4.06-1.528-8.143-1.497-12.229 1.279 1.246 2.957 1.959 5.044 2.127-1.99-4.117-2.704-8.828-1.795-14.297 1.079.895 2.32 1.526 3.787 1.797-3.311-3.66-5.075-9.049-6.18-15.174-10.155 15.819-20.765 50.771-17.521 63.102" fill="#81b31e"/><path d="M231.637 144.73c-1.638 16.555-5.432 27.54-11.379 32.956-6.199 5.642-14.479 5.353-24.837-.868l1.466-2.445c9.145 5.492 16.297 5.891 21.451 1.197 5.407-4.922 8.892-15.299 10.459-31.131z" fill="#628a12"/><path d="M232.48 145.725c11.358 2.156 16.877 7.015 21.68 12.209-6.75-4.7-13.883-8.215-22.338-7.645 4.809 6.065 4.696 12.75 3.408 19.586-.426-10.055-4.835-17.52-8.949-20.932-7.893-5.191-16.285-5.216-24.802-3.929 9.127-3.551 18.61-5.989 31.001.711" fill="#628a12"/><path d="M233.538 148.33c14.974 2.969 28.292-.578 31.263-15.551 2.969-14.972-6.762-29.519-21.735-32.49-14.972-2.969-29.519 6.762-32.489 21.734-2.969 14.975 7.987 23.336 22.961 26.307" fill="#eb0000"/><path d="M228.125 143.746c10.622 2.108 20.072-.408 22.179-11.031 2.106-10.621-4.797-20.942-15.419-23.049-10.623-2.105-20.942 4.797-23.049 15.42-2.107 10.621 5.667 16.555 16.289 18.66" fill="#ff3b3b"/><path d="M222.568 138.832c6.283 1.246 11.871-.242 13.118-6.525 1.246-6.282-2.837-12.385-9.12-13.631-6.281-1.246-12.384 2.836-13.63 9.119-1.247 6.281 3.351 9.791 9.632 11.037" fill="#f66"/></g></svg>