<svg width="132.982" height="130.802" viewBox="0 0 10.639 10.464" version="1.1" id="prefix__svg1788" xmlns="http://www.w3.org/2000/svg"><defs id="prefix__defs1725"><style id="style1723">.prefix__cls-1{fill:gray}.prefix__cls-2{fill:#606060}.prefix__cls-7{fill:#5f443e}.prefix__cls-8{fill:#7f5b53}.prefix__cls-9{fill:#993839}.prefix__cls-10{fill:#cc4b4c}.prefix__cls-11{fill:#ccc}.prefix__cls-12{fill:#f2f2f2}</style></defs><g data-name="Layer 13" id="prefix__Layer_13" transform="translate(-.349 -.349) scale(.1744)"><path class="prefix__cls-1" id="prefix__polygon1729" d="M36 38v-4l-4-4v8z"/><path class="prefix__cls-2" d="M34 51h-2v-2h2a1 1 0 001-1V34.41l-4.71-4.7 1.42-1.42 5 5A1 1 0 0137 34v14a3 3 0 01-3 3z" id="prefix__path1731"/><path class="prefix__cls-1" id="prefix__polygon1733" d="M62 38v-4l-4-4v8z"/><path class="prefix__cls-2" d="M60 51h-2v-2h2a1 1 0 001-1V34.41l-4.71-4.7 1.42-1.42 5 5A1 1 0 0163 34v14a3 3 0 01-3 3z" id="prefix__path1735"/><path id="prefix__rect1737" fill="#559264" d="M22 2h20v8H22z"/><path id="prefix__rect1739" fill="#71c285" d="M22 2h17v8H22z"/><path id="prefix__rect1741" fill="#98856e" d="M4 16h4v42H4z"/><path id="prefix__rect1743" fill="#cbb292" d="M4 16h2v42H4z"/><path class="prefix__cls-7" id="prefix__rect1745" d="M2 58h60v4H2z"/><path class="prefix__cls-8" id="prefix__rect1747" d="M2 58h57v4H2z"/><path class="prefix__cls-7" id="prefix__rect1749" d="M2 10h60v6H2z"/><path class="prefix__cls-8" id="prefix__rect1751" d="M2 10h57v6H2z"/><path class="prefix__cls-9" id="prefix__rect1753" d="M12 54h22v4H12z"/><path class="prefix__cls-9" id="prefix__rect1755" d="M38 54h22v4H38z"/><path class="prefix__cls-10" d="M40 54V30a4 4 0 014-4h10a4 4 0 014 4v24" id="prefix__path1757"/><path class="prefix__cls-10" d="M14 54V30a4 4 0 014-4h10a4 4 0 014 4v24" id="prefix__path1759"/><path class="prefix__cls-11" id="prefix__rect1761" d="M18 42h10v4H18z"/><path class="prefix__cls-12" id="prefix__rect1763" d="M18 42h7v4h-7z"/><path class="prefix__cls-11" id="prefix__rect1765" d="M44 42h10v4H44z"/><path class="prefix__cls-12" id="prefix__rect1767" d="M44 42h7v4h-7z"/><path class="prefix__cls-11" id="prefix__rect1769" d="M44 30h10v8H44z"/><path class="prefix__cls-12" id="prefix__rect1771" d="M44 30h7v8h-7z"/><path class="prefix__cls-11" id="prefix__rect1773" d="M18 30h10v8H18z"/><path class="prefix__cls-12" id="prefix__rect1775" d="M18 30h7v8h-7z"/><path class="prefix__cls-2" id="prefix__rect1777" d="M21 33h4v2h-4z"/><path class="prefix__cls-2" id="prefix__rect1779" d="M32 37h4v2h-4z"/><path class="prefix__cls-2" id="prefix__rect1781" d="M47 33h4v2h-4z"/><path class="prefix__cls-2" id="prefix__rect1783" d="M58 37h4v2h-4z"/><path id="prefix__rect1785" fill="#c6e7ce" d="M25 5h14v2H25z"/></g></svg>