<?xml version="1.0" encoding="UTF-8" standalone="no"?>
<!-- Uploaded to: SVG Repo, www.svgrepo.com, Generator: SVG Repo Mixer Tools -->

<svg
   width="140"
   height="129.8179"
   viewBox="0 0 179.2 166.16691"
   class="icon"
   version="1.1"
   id="svg725"
   sodipodi:docname="fire-station-svgrepo-com.svg"
   inkscape:version="1.2.2 (732a01da63, 2022-12-09)"
   xmlns:inkscape="http://www.inkscape.org/namespaces/inkscape"
   xmlns:sodipodi="http://sodipodi.sourceforge.net/DTD/sodipodi-0.dtd"
   xmlns="http://www.w3.org/2000/svg"
   xmlns:svg="http://www.w3.org/2000/svg">
  <defs
     id="defs729" />
  <sodipodi:namedview
     id="namedview727"
     pagecolor="#ffffff"
     bordercolor="#000000"
     borderopacity="0.25"
     inkscape:showpageshadow="2"
     inkscape:pageopacity="0.0"
     inkscape:pagecheckerboard="0"
     inkscape:deskcolor="#d1d1d1"
     showgrid="false"
     inkscape:zoom="1.04625"
     inkscape:cx="348.86499"
     inkscape:cy="324.97013"
     inkscape:window-width="1920"
     inkscape:window-height="1017"
     inkscape:window-x="1912"
     inkscape:window-y="-8"
     inkscape:window-maximized="1"
     inkscape:current-layer="svg725" />
  <path
     d="m 143.50414,40.78096 c -1.58158,0 -2.86287,-1.28128 -2.86287,-2.86287 V 28.9691 c 0,-1.58159 1.28129,-2.86288 2.86287,-2.86288 1.58159,0 2.86288,1.28129 2.86288,2.86288 v 8.94899 c 0,1.58159 -1.28129,2.86287 -2.86288,2.86287 z m -107.828305,0 c -1.581589,0 -2.862876,-1.28128 -2.862876,-2.86287 V 28.9691 c 0,-1.58159 1.281287,-2.86288 2.862876,-2.86288 1.581585,0 2.862875,1.28129 2.862875,2.86288 v 8.94899 c 0.02,1.58159 -1.28129,2.86287 -2.862875,2.86287 z"
     fill="#ff5959"
     id="path685"
     style="stroke-width:0.200201" />
  <path
     d="M 99.60004,3.82384 C 99.60004,1.721729 97.87832,0 95.7762,0 H 83.40378 c -2.10212,0 -3.82384,1.721729 -3.82384,3.82384 v 3.02304 c 0,2.10211 1.72172,3.82384 3.82384,3.82384 H 95.7762 c 2.10212,0 3.82384,-1.72173 3.82384,-3.82384 z"
     fill="#a93439"
     id="path687"
     style="stroke-width:0.200201" />
  <path
     d="m 89.58999,6.8669 c -23.80391,0 -44.08428,15.01508 -51.91214,36.09625 H 141.50213 C 133.67427,21.88198 113.3939,6.8669 89.58999,6.8669 Z"
     fill="#ff5959"
     id="path689"
     style="stroke-width:0.200201" />
  <path
     d="m 89.89029,28.58872 c -1.58159,0 -2.86287,-1.28129 -2.86287,-2.86288 V 14.95502 c 0,-1.58159 1.28128,-2.86287 2.86287,-2.86287 1.58159,0 2.86288,1.28128 2.86288,2.86287 v 10.77082 c 0,1.58159 -1.28129,2.86288 -2.86288,2.86288 z m -19.67977,0 c -1.58158,0 -2.86287,-1.28129 -2.86287,-2.86288 v -6.02605 c 0,-1.58159 1.28129,-2.86288 2.86287,-2.86288 1.58159,0 2.86288,1.28129 2.86288,2.86288 v 6.02605 c 0.02,1.58159 -1.26127,2.86288 -2.86288,2.86288 z m 39.33952,0 c -1.58159,0 -2.86288,-1.28129 -2.86288,-2.86288 v -6.02605 c 0,-1.58159 1.28129,-2.86288 2.86288,-2.86288 1.58159,0 2.86287,1.28129 2.86287,2.86288 v 6.02605 c 0.02,1.58159 -1.28128,2.86288 -2.86287,2.86288 z"
     fill=""
     id="path691"
     style="stroke-width:0.200201" />
  <path
     d="M 159.44015,64.36465 H 136.59721 V 43.04324 H 42.58277 V 64.36465 H 19.739828 c -4.204223,0 -7.647682,3.44346 -7.647682,7.64768 v 89.08949 H 167.08783 V 72.01233 c 0,-4.20422 -3.44346,-7.64768 -7.64768,-7.64768 z"
     fill="#ff5959"
     id="path693"
     style="stroke-width:0.200201" />
  <path
     d="m 146.68734,124.10466 h 16.57665 v 7.968 H 146.68734 Z M 20.780874,143.38402 H 37.35752 v 7.96801 H 20.780874 Z M 17.397475,110.1106 h 16.576651 v 7.96801 H 17.397475 Z M 44.98519,91.37178 h 16.57665 v 7.968 H 44.98519 Z M 33.533683,68.04835 H 50.11033 v 7.96801 H 33.533683 Z M 115.85637,58.3386 h 16.57665 v 7.968 h -16.57665 z m -14.57464,27.94807 h 16.57665 v 7.96801 h -16.57665 z m 17.97806,19.83993 h 16.57665 v 7.968 h -16.57665 z m 39.53972,-26.66679 h 8.28832 v 7.96801 h -8.28832 z m -39.53972,63.92421 h 16.57665 v 7.96801 H 119.25979 Z M 42.58277,43.04324 h 93.99442 V 55.17542 H 42.58277 Z"
     fill=""
     id="path695"
     style="stroke-width:0.200201" />
  <path
     d="m 51.65188,110.1106 h 75.87622 v 50.9712 H 51.65188 Z"
     fill="#d1d3d3"
     id="path697"
     style="stroke-width:0.200201" />
  <path
     d="m 51.65188,122.92347 h 75.87622 v 5.72575 H 51.65188 Z m 0,17.59768 h 75.87622 v 5.72575 H 51.65188 Z"
     fill=""
     id="path699"
     style="stroke-width:0.200201" />
  <path
     d="m 109.73022,81.30166 c 0,11.13119 -9.00905,20.14023 -20.14023,20.14023 -11.13118,0 -20.14023,-9.00904 -20.14023,-20.14023 V 63.46375 c 0,-2.10211 1.72173,-3.82384 3.82384,-3.82384 h 32.63278 c 2.10211,0 3.82384,1.72173 3.82384,3.82384 z"
     fill="#ffb819"
     id="path701"
     style="stroke-width:0.200201" />
  <path
     d="m 78.63899,81.30166 c 0,6.04608 4.92495,10.951 10.951,10.951 6.02605,0 10.951,-4.92494 10.951,-10.951 V 70.73105 c 0,-1.48149 -1.20121,-2.6827 -2.68269,-2.6827 H 81.28164 c -1.48148,0 -2.68269,1.20121 -2.68269,2.6827 v 10.57061 z"
     fill="#f2d383"
     id="path703"
     style="stroke-width:0.200201" />
  <path
     d="m 151.21189,45.38559 c 0,2.10211 -1.72173,3.82384 -3.82384,3.82384 H 31.811954 c -2.102112,0 -3.823841,-1.72173 -3.823841,-3.82384 v -8.12817 c 0,-2.10211 1.721729,-3.82384 3.823841,-3.82384 H 147.38805 c 2.10211,0 3.82384,1.72173 3.82384,3.82384 z"
     fill="#a93439"
     id="path705"
     style="stroke-width:0.200201" />
  <path
     d="m 179.2,164.62536 c 0,0.84084 -0.7007,1.54155 -1.54155,1.54155 H 1.541548 C 0.700704,166.16691 0,165.4662 0,164.62536 v -5.52555 c 0,-0.84084 0.700704,-1.54155 1.541548,-1.54155 H 177.65845 c 0.84085,0 1.54155,0.70071 1.54155,1.54155 z"
     fill="#333e48"
     id="path707"
     style="stroke-width:0.200201" />
  <path
     d="m 43.804,157.55826 h 91.57198 v 8.60865 H 43.804 Z"
     fill="#a4a9ad"
     id="path709"
     style="stroke-width:0.200201" />
  <path
     d="m 174.59537,157.55826 c 0,-9.14919 -7.42746,-16.57665 -16.57665,-16.57665 -9.14919,0 -16.57665,7.42746 -16.57665,16.57665 z m -139.159776,0 c 0,-8.08812 -6.566596,-14.65472 -14.65472,-14.65472 -8.088125,0 -14.674741,6.54658 -14.674741,14.65472 z"
     fill="#00ad68"
     id="path711"
     style="stroke-width:0.200201" />
  <path
     d="m 153.49418,93.03345 c 0,2.10211 -1.72173,3.82384 -3.82384,3.82384 h -19.94003 c -2.10211,0 -3.82384,-1.72173 -3.82384,-3.82384 v -9.68973 c 0,-2.10212 1.72173,-3.82385 3.82384,-3.82385 h 19.94003 c 2.10211,0 3.82384,1.72173 3.82384,3.82385 z"
     fill="#ffffff"
     id="path713"
     style="stroke-width:0.200201" />
  <path
     d="m 149.67034,79.51987 h -19.94003 c -2.10211,0 -3.82384,1.72173 -3.82384,3.82385 v 5.16518 c 0,-2.10211 1.72173,-3.82384 3.82384,-3.82384 h 19.94003 c 2.10211,0 3.82384,1.72173 3.82384,3.82384 v -5.16518 c 0,-2.10212 -1.72173,-3.82385 -3.82384,-3.82385 z"
     fill=""
     id="path715"
     style="stroke-width:0.200201" />
  <path
     d="m 129.73031,82.38275 c -0.52052,0 -0.96097,0.44044 -0.96097,0.96097 v 9.68973 c 0,0.52052 0.44045,0.96096 0.96097,0.96096 h 19.94003 c 0.52052,0 0.96096,-0.44044 0.96096,-0.96096 v -9.68973 c 0,-0.52053 -0.44044,-0.96097 -0.96096,-0.96097 z m 19.94003,17.33742 h -19.94003 c -3.6837,0 -6.68672,-3.00302 -6.68672,-6.68672 v -9.68973 c 0,-3.6837 3.00302,-6.68672 6.68672,-6.68672 h 19.94003 c 3.6837,0 6.68672,3.00302 6.68672,6.68672 v 9.68973 c 0,3.6837 -3.00302,6.68672 -6.68672,6.68672 z"
     fill="#a93439"
     id="path717"
     style="stroke-width:0.200201" />
  <path
     d="m 25.6858,93.03345 c 0,2.10211 1.72173,3.82384 3.823841,3.82384 H 49.44967 c 2.10211,0 3.82384,-1.72173 3.82384,-3.82384 v -9.68973 c 0,-2.10212 -1.72173,-3.82385 -3.82384,-3.82385 H 29.509641 c -2.102111,0 -3.823841,1.72173 -3.823841,3.82385 z"
     fill="#ffffff"
     id="path719"
     style="stroke-width:0.200201" />
  <path
     d="M 29.509641,79.51987 H 49.44967 c 2.10211,0 3.82384,1.72173 3.82384,3.82385 v 5.16518 c 0,-2.10211 -1.72173,-3.82384 -3.82384,-3.82384 H 29.509641 c -2.102111,0 -3.823841,1.72173 -3.823841,3.82384 v -5.16518 c 0,-2.10212 1.72173,-3.82385 3.823841,-3.82385 z"
     fill=""
     id="path721"
     style="stroke-width:0.200201" />
  <path
     d="m 29.509641,82.38275 c -0.520522,0 -0.960965,0.44044 -0.960965,0.96097 v 9.68973 c 0,0.52052 0.440443,0.96096 0.960965,0.96096 H 49.44967 c 0.52052,0 0.96097,-0.44044 0.96097,-0.96096 v -9.68973 c 0,-0.52053 -0.44045,-0.96097 -0.96097,-0.96097 z M 49.44967,99.72017 H 29.509641 c -3.6837,0 -6.686716,-3.00302 -6.686716,-6.68672 v -9.68973 c 0,-3.6837 3.003016,-6.68672 6.686716,-6.68672 H 49.44967 c 3.6837,0 6.68672,3.00302 6.68672,6.68672 v 9.68973 c 0,3.6837 -3.00302,6.68672 -6.68672,6.68672 z"
     fill="#a93439"
     id="path723"
     style="stroke-width:0.200201" />
</svg>
