<svg width="120" height="110.794" xmlns="http://www.w3.org/2000/svg"><path d="M119.306 18.877c-1.457-1.509-4.387-.32-6.713-.532h-.213c-1.403.16-2.06-.32-2.007-1.847.107-1.9-.053-3.836.053-5.736.054-1.297-.426-1.687-1.687-1.616-2.007.053-4.013-.054-6.002.053-1.137.053-1.563-.373-1.51-1.51.054-2.006 0-4.013.054-6.002C101.334.497 100.908 0 99.665 0c-8.17.053-16.356.053-24.472 0-1.35 0-1.616.533-1.563 1.74.054 2.007 0 4.014.054 6.003.053 1.136-.32 1.563-1.51 1.51-1.74-.054-3.516.053-5.31-.054-1.793-.107-2.646.32-2.486 2.326.16 1.74 0 3.517.053 5.31.054 1.19-.32 1.74-1.616 1.687a51.506 51.506 0 00-5.736 0c-1.35.054-1.9-.373-1.793-1.74.106-1.9 0-3.836.053-5.736.053-1.35-.426-1.847-1.794-1.794-2.006.107-4.013-.053-6.002 0-1.137.054-1.563-.373-1.563-1.51.053-2.06 0-4.173.053-6.233 0-.976-.32-1.456-1.35-1.402-8.221 0-16.515.053-24.737 0-1.137 0-1.563.372-1.51 1.509.054 1.9-.053 3.836.054 5.736.053 1.403-.32 2.06-1.847 1.954-1.687-.107-3.356.106-5.044-.054-1.74-.16-2.486.267-2.326 2.167.16 1.687-.053 3.356.053 5.043.107 1.51-.266 2.22-1.953 2.114-1.687-.16-3.356.053-5.044-.054-1.74-.106-2.38.426-2.326 2.273.107 5.363.053 10.727.053 16.09V49.83c0 5.523 0 5.523 5.63 5.523 3.623 0 3.623 0 3.57 3.676 0 5.523 0 5.523 5.362 5.523.657 0 1.297.053 1.9 0 1.51-.16 1.9.48 1.9 1.953 0 2.38-1.083 5.683.48 6.82 1.616 1.19 4.76.479 7.264.32 1.19-.107 1.402.265 1.402 1.189v4.813c0 3.356 0 3.356 3.25 3.356 6.003 0 6.003 0 5.95 6.073-.054 3.197-.533 3.197 2.983 3.197 6.18 0 6.286.053 6.18 6.233-.053 2.38.533 3.25 3.037 3.037 2.06-.213 4.812-.923 6.002.373 1.03 1.083.48 3.836.266 5.79-.266 2.432.48 3.302 2.984 2.983 1.953-.267 4.6.603 5.79-.373 1.402-1.19.532-3.907.425-5.95-.106-2.273.48-3.143 2.93-2.93 1.954.214 4.547.71 5.79-.266 1.51-1.19.604-3.907.48-5.896-.107-2.38.603-3.196 3.036-3.037 1.954.16 4.493.924 5.79-.32 1.296-1.242.372-3.782.426-5.735.106-3.144.053-3.144 3.303-3.09.977 0 1.953-.107 2.877.053 2.326.32 3.196-.426 3.09-2.983-.267-6.287-.107-6.394 6.286-6.234 2.327.054 3.25-.426 2.984-2.983-.213-1.954-.924-4.493.32-5.79 1.243-1.35 3.782-.266 5.735-.426.214 0 .48-.053.71 0 2.008.373 2.38-.604 2.327-2.38-.053-2.166-.923-4.865.32-6.286 1.403-1.51 4.226-.48 6.393-.48 1.953 0 2.593-.479 2.54-2.486-.107-9.145 0-18.256-.054-27.401-.035-2.54.888-5.417-.408-6.82zm-82.578 7.086c.053 1.243-.48 1.687-1.687 1.616-1.74-.053-3.517.053-5.31-.053-1.74-.107-2.433.426-2.327 2.273.16 2.007.054 4.013.054 6.002v5.736c0 4.014-.054 8.01 0 12.023 0 1.243-.32 1.74-1.616 1.616a56.397 56.397 0 00-6.003 0c-1.35.053-1.562-.48-1.562-1.687.053-8.062.053-16.196 0-24.258 0-1.403.426-1.9 1.793-1.794 1.51.107 3.037 0 4.546.266 2.06.373 2.824-.532 2.877-2.326a95.401 95.401 0 000-5.523c-.053-1.19.373-1.616 1.51-1.51h.48c9.305.32 6.907-1.9 7.245 7.62z" fill="#dc1419"/></svg>