<?xml version="1.0" encoding="UTF-8" standalone="no"?>
<!-- Generator: Adobe Illustrator 22.0.1, SVG Export Plug-In . SVG Version: 6.00 Build 0)  -->

<svg
   version="1.1"
   id="Layer_1"
   x="0px"
   y="0px"
   viewBox="0 0 139.99997 129.25954"
   xml:space="preserve"
   sodipodi:docname="1646656079PixelArt-Heart-1.svg"
   width="139.99997"
   height="129.25954"
   inkscape:version="1.2.2 (732a01da63, 2022-12-09)"
   xmlns:inkscape="http://www.inkscape.org/namespaces/inkscape"
   xmlns:sodipodi="http://sodipodi.sourceforge.net/DTD/sodipodi-0.dtd"
   xmlns="http://www.w3.org/2000/svg"
   xmlns:svg="http://www.w3.org/2000/svg"><defs
   id="defs9" /><sodipodi:namedview
   id="namedview7"
   pagecolor="#ffffff"
   bordercolor="#000000"
   borderopacity="0.25"
   inkscape:showpageshadow="2"
   inkscape:pageopacity="0.0"
   inkscape:pagecheckerboard="0"
   inkscape:deskcolor="#d1d1d1"
   showgrid="false"
   inkscape:zoom="0.96875"
   inkscape:cx="338.58065"
   inkscape:cy="281.80645"
   inkscape:window-width="1920"
   inkscape:window-height="1017"
   inkscape:window-x="1912"
   inkscape:window-y="-8"
   inkscape:window-maximized="1"
   inkscape:current-layer="Layer_1" />
<style
   type="text/css"
   id="style2">
	.st0{fill:#DC1419;}
</style>
<path
   class="st0"
   d="m 139.18966,22.02365 c -1.69892,-1.76107 -5.11746,-0.37293 -7.83157,-0.62155 -0.0622,0 -0.18647,0 -0.24863,0 -1.63675,0.18646 -2.40333,-0.37294 -2.34118,-2.15472 0.12431,-2.21687 -0.0622,-4.47518 0.0622,-6.69206 0.0622,-1.51244 -0.49725,-1.96825 -1.96826,-1.88537 -2.34118,0.0622 -4.68236,-0.0622 -7.00283,0.0622 -1.32598,0.0622 -1.82322,-0.43509 -1.76106,-1.76107 0.0622,-2.34118 0,-4.68236 0.0622,-7.00283 C 118.22273,0.58012 117.72544,0 116.27515,0 106.74467,0.0622 97.193469,0.0622 87.725149,0 c -1.57461,0 -1.88538,0.62155 -1.82323,2.03041 0.0622,2.34118 0,4.68236 0.0622,7.00283 0.0622,1.32598 -0.37293,1.82322 -1.76107,1.76107 -2.03041,-0.0622 -4.10225,0.0621 -6.19481,-0.0622 -2.09256,-0.12431 -3.08705,0.37293 -2.90058,2.71412 0.18646,2.0304 0,4.10225 0.0622,6.19481 0.0622,1.38813 -0.37293,2.03041 -1.88538,1.96825 -2.21687,-0.12431 -4.47518,-0.12431 -6.69205,0 -1.5746,0.0622 -2.21687,-0.43509 -2.09256,-2.03041 0.12431,-2.21687 0,-4.47518 0.0622,-6.69205 0.0622,-1.5746 -0.49724,-2.15472 -2.09256,-2.09256 -2.34118,0.12431 -4.68237,-0.0622 -7.00283,0 -1.32598,0.0621 -1.82322,-0.43509 -1.82322,-1.76107 0.0622,-2.40334 0,-4.86883 0.0622,-7.27217 0,-1.13952 -0.37293,-1.69891 -1.5746,-1.63676 -9.59264,0 -19.26815,0.0622 -28.86078,0 -1.32598,0 -1.82323,0.43509 -1.76107,1.76107 0.0622,2.21687 -0.0622,4.47518 0.0622,6.69205 0.0622,1.63676 -0.37293,2.40334 -2.15471,2.27903 -1.96826,-0.12431 -3.91579,0.12431 -5.88404,-0.0621 -2.03041,-0.18647 -2.90058,0.31077 -2.71412,2.52765 0.18647,1.96825 -0.0622,3.91578 0.0622,5.88403 0.12431,1.76107 -0.31078,2.58981 -2.2790298,2.4655 -1.96825,-0.18647 -3.915783,0.0622 -5.884034,-0.0622 -2.03040701,-0.12431 -2.77627101,0.49724 -2.71411601,2.65196 0.124311,6.25697 0.06216,12.51394 0.06216,18.77091 v 0 c 0,5.05529 0,10.11059 0,15.10374 0,6.44343 0,6.44343 6.56774001,6.44343 4.2265598,0 4.2265598,0 4.1644098,4.28872 0,6.44343 0,6.44343 6.25696,6.44343 0.76659,0 1.51245,0.0622 2.21688,0 1.76106,-0.18646 2.21687,0.5594 2.21687,2.27903 0,2.77627 -1.26382,6.6299 0.5594,7.95588 1.88538,1.38813 5.55254,0.5594 8.47384,0.37293 1.38813,-0.12431 1.63676,0.31078 1.63676,1.38814 0,1.88537 0,3.72932 0,5.61469 0,3.91579 0,3.91579 3.79147,3.91579 7.00283,0 7.00283,0 6.94068,7.0857 -0.0622,3.72932 -0.62156,3.72932 3.48069,3.72932 7.21002,0 7.33433,0.0622 7.21002,7.27217 -0.0622,2.77627 0.62155,3.79148 3.54285,3.54286 2.40334,-0.24862 5.6147,-1.07736 7.00284,0.43508 1.20166,1.26383 0.55939,4.47519 0.31077,6.75421 -0.31077,2.83843 0.5594,3.85363 3.4807,3.4807 2.27903,-0.31077 5.36607,0.70443 6.75421,-0.43508 1.63676,-1.38814 0.62155,-4.55806 0.49724,-6.94068 -0.12431,-2.65196 0.5594,-3.66716 3.41854,-3.41854 2.27903,0.24862 5.30392,0.82873 6.75422,-0.31078 1.76106,-1.38814 0.70442,-4.55806 0.55939,-6.87852 -0.12431,-2.77627 0.70443,-3.72932 3.54286,-3.54285 2.27902,0.18646 5.24176,1.07735 6.75421,-0.37294 1.51244,-1.45029 0.43508,-4.41302 0.49724,-6.69205 0.12431,-3.66717 0.0622,-3.66717 3.853631,-3.60501 1.13951,0 2.27903,-0.12431 3.35639,0.0622 2.71411,0.37293 3.72931,-0.49725 3.605,-3.4807 -0.31077,-7.33433 -0.12431,-7.45864 7.33433,-7.27217 2.71412,0.0622 3.79147,-0.49725 3.4807,-3.4807 -0.24862,-2.27903 -1.07736,-5.24177 0.37293,-6.75421 1.45029,-1.5746 4.41303,-0.31078 6.69206,-0.49724 0.24862,0 0.55939,-0.0622 0.82873,0 2.34119,0.43508 2.77627,-0.70443 2.71412,-2.77628 -0.0622,-2.52764 -1.07736,-5.67685 0.37293,-7.33432 1.63676,-1.76107 4.93099,-0.5594 7.45864,-0.5594 2.27903,0 3.02489,-0.5594 2.96273,-2.90058 -0.12431,-10.67 0,-21.29856 -0.0622,-31.96855 -0.0414,-2.96274 1.03592,-6.31912 -0.47652,-7.95588 z m -96.340741,8.26666 c 0.0622,1.45029 -0.5594,1.96825 -1.96825,1.88537 -2.03041,-0.0622 -4.10225,0.0622 -6.19481,-0.0622 -2.03041,-0.12431 -2.83843,0.49724 -2.71412,2.65196 0.18647,2.34118 0.0622,4.68237 0.0622,7.00283 0,2.21687 0,4.47518 0,6.69206 v 0 c 0,4.68236 -0.0622,9.34401 0,14.02638 0,1.45029 -0.37293,2.03041 -1.88537,1.88538 -2.34119,-0.12431 -4.68237,-0.12431 -7.00283,0 -1.57461,0.0622 -1.82323,-0.5594 -1.82323,-1.96826 0.0622,-9.40617 0.0622,-18.89521 0,-28.30138 0,-1.63676 0.49725,-2.21687 2.09256,-2.09256 1.76107,0.12431 3.54286,0 5.30392,0.31077 2.40334,0.43509 3.29424,-0.62155 3.35639,-2.71411 0.0622,-2.15472 0.0622,-4.28872 0,-6.44344 -0.0622,-1.38813 0.43509,-1.88537 1.76107,-1.76106 0.18647,0 0.37293,0 0.5594,0 10.85646,0.37293 8.05947,-2.21688 8.45312,8.88821 z"
   id="path4"
   style="stroke-width:0.207184" />
</svg>
