<svg width="140" height="133.555" viewBox="0 0 179.2 170.95" class="prefix__icon" xmlns="http://www.w3.org/2000/svg"><path d="M179.2 169.408c0 .841-.7 1.542-1.542 1.542H1.542C.7 170.95 0 170.249 0 169.408v-5.527c0-.84.7-1.542 1.542-1.542h176.116c.841 0 1.542.701 1.542 1.542z" fill="#333e48"/><path d="M177.658 162.34H95.337v8.61h82.321c.841 0 1.542-.701 1.542-1.542v-5.527a1.53 1.53 0 00-1.542-1.542z" fill="#00ad68"/><path d="M13.877 19.684h86.506V162.32H13.877z" fill="#d1d3d3"/><path d="M13.877 19.684h86.506v19.744H13.877z"/><path d="M24.69 105.83h64.88v17.582H24.69z" fill="#fff"/><path d="M24.69 105.83h64.88v6.468H24.69z"/><path d="M54.267 105.83h5.727v17.582h-5.727z" fill="#333e48"/><path d="M27.554 120.548h59.132v-11.855H27.554zm62.016 5.747H24.69a2.863 2.863 0 01-2.863-2.863V105.85a2.863 2.863 0 012.863-2.864h64.88a2.863 2.863 0 012.863 2.864v17.582a2.876 2.876 0 01-2.863 2.863z" fill="#0071ce"/><path d="M24.69 76.834h64.88v17.582H24.69z" fill="#fff"/><path d="M24.69 76.834h64.88v6.468H24.69z"/><path d="M54.267 76.834h5.727v17.582h-5.727z" fill="#333e48"/><path d="M27.554 91.552h59.132V79.698H27.554zM89.57 97.3H24.69a2.863 2.863 0 01-2.863-2.863V76.834a2.863 2.863 0 012.863-2.863h64.88a2.863 2.863 0 012.863 2.863v17.582a2.867 2.867 0 01-2.863 2.883z" fill="#0071ce"/><path d="M24.69 47.839h64.88V65.42H24.69z" fill="#fff"/><path d="M24.69 47.839h64.88v6.468H24.69z"/><path d="M54.267 47.839h5.727V65.42h-5.727z" fill="#333e48"/><path d="M27.554 62.577h59.132V50.722H27.554zm62.016 5.727H24.69a2.863 2.863 0 01-2.863-2.864V47.86a2.863 2.863 0 012.863-2.864h64.88a2.863 2.863 0 012.863 2.864V65.44a2.863 2.863 0 01-2.863 2.864z" fill="#0071ce"/><path d="M40.41 137.669h33.44v24.67H40.41z" fill="#fff"/><path d="M54.267 137.669h5.727v24.67h-5.727z" fill="#333e48"/><path d="M76.714 162.34h-5.727v-21.807H43.273v21.806h-5.727v-24.67a2.863 2.863 0 012.864-2.863h33.44a2.863 2.863 0 012.864 2.863z" fill="#0071ce"/><path d="M103.087 12.656H76.113V3.825A3.837 3.837 0 0072.29 0H41.972a3.837 3.837 0 00-3.825 3.825v8.83H11.174a3.837 3.837 0 00-3.825 3.825V31.4a3.837 3.837 0 003.825 3.824h91.913a3.837 3.837 0 003.824-3.824V16.48a3.837 3.837 0 00-3.824-3.824z" fill="#ff5959"/><path d="M66.382 13.216h-4.826V8.39a1.901 1.901 0 00-1.903-1.902h-5.046a1.901 1.901 0 00-1.902 1.902v4.826h-4.826a1.901 1.901 0 00-1.903 1.903v5.026c0 1.061.861 1.902 1.903 1.902h4.826v4.826c0 1.061.86 1.902 1.902 1.902h5.026a1.901 1.901 0 001.903-1.902v-4.826h4.825a1.901 1.901 0 001.903-1.902v-5.026a1.872 1.872 0 00-1.883-1.903z" fill="#fff"/><path d="M100.383 97.32h64.92v65.02h-64.92z" fill="#d1d3d3"/><path d="M111.217 115.562h43.253v17.581h-43.253z" fill="#fff"/><path d="M111.217 115.562h43.253v6.468h-43.253z"/><path d="M129.98 115.562h5.727v17.581h-5.727z" fill="#333e48"/><path d="M114.08 130.28h37.506v-11.855H114.08zm40.39 5.747h-43.253a2.863 2.863 0 01-2.864-2.864v-17.581a2.863 2.863 0 012.864-2.864h43.253a2.863 2.863 0 012.863 2.864v17.581a2.876 2.876 0 01-2.863 2.864z" fill="#0071ce"/><path d="M100.383 86.126h68.424a3.837 3.837 0 013.825 3.824v7.33a3.837 3.837 0 01-3.825 3.824h-68.424z" fill="#ff5959"/><path d="M107.612 101.104V86.126h-7.229v76.213h7.23v-53.946h57.69v-7.289z"/><path d="M151.226 162.34c0-6.769-5.487-12.236-12.235-12.236-6.769 0-12.235 5.487-12.235 12.235z" fill="#218649"/></svg>