<?xml version="1.0" encoding="UTF-8" standalone="no"?>
<!-- Uploaded to: SVG Repo, www.svgrepo.com, Generator: SVG Repo Mixer Tools -->

<svg
   width="140"
   height="133.55458"
   viewBox="0 0 179.2 170.94986"
   class="icon"
   version="1.1"
   id="svg1046"
   sodipodi:docname="hospital-svgrepo-com.svg"
   inkscape:version="1.2.2 (732a01da63, 2022-12-09)"
   xmlns:inkscape="http://www.inkscape.org/namespaces/inkscape"
   xmlns:sodipodi="http://sodipodi.sourceforge.net/DTD/sodipodi-0.dtd"
   xmlns="http://www.w3.org/2000/svg"
   xmlns:svg="http://www.w3.org/2000/svg">
  <defs
     id="defs1050" />
  <sodipodi:namedview
     id="namedview1048"
     pagecolor="#ffffff"
     bordercolor="#000000"
     borderopacity="0.25"
     inkscape:showpageshadow="2"
     inkscape:pageopacity="0.0"
     inkscape:pagecheckerboard="0"
     inkscape:deskcolor="#d1d1d1"
     showgrid="false"
     inkscape:zoom="1.04625"
     inkscape:cx="539.0681"
     inkscape:cy="333.57228"
     inkscape:window-width="1920"
     inkscape:window-height="1017"
     inkscape:window-x="1912"
     inkscape:window-y="-8"
     inkscape:window-maximized="1"
     inkscape:current-layer="svg1046" />
  <path
     d="m 179.2,169.40798 c 0,0.84103 -0.70086,1.54189 -1.54189,1.54189 H 1.541893 C 0.70086,170.94987 0,170.24901 0,169.40798 v -5.52679 c 0,-0.84103 0.70086,-1.54189 1.541893,-1.54189 H 177.65811 c 0.84103,0 1.54189,0.70086 1.54189,1.54189 z"
     fill="#333e48"
     id="path988"
     style="stroke-width:0.200246" />
  <path
     d="M 177.65811,162.3393 H 95.33704 v 8.61057 h 82.32107 c 0.84103,0 1.54189,-0.70086 1.54189,-1.54189 v -5.52679 c 0,-0.86105 -0.68084,-1.54189 -1.54189,-1.54189 z"
     fill="#00ad68"
     id="path990"
     style="stroke-width:0.200246" />
  <path
     d="M 13.877037,19.68417 H 100.38324 V 162.31928 H 13.877037 Z"
     fill="#d1d3d3"
     id="path992"
     style="stroke-width:0.200246" />
  <path
     d="M 13.877037,19.68417 H 100.38324 V 39.42841 H 13.877037 Z"
     fill=""
     id="path994"
     style="stroke-width:0.200246" />
  <path
     d="M 24.690312,105.82993 H 89.56996 v 17.58158 H 24.690312 Z"
     fill="#ffffff"
     id="path996"
     style="stroke-width:0.200246" />
  <path
     d="M 24.690312,105.82993 H 89.56996 v 6.46794 H 24.690312 Z"
     fill=""
     id="path998"
     style="stroke-width:0.200246" />
  <path
     d="m 54.26662,105.82993 h 5.72703 v 17.58158 h -5.72703 z"
     fill="#333e48"
     id="path1000"
     style="stroke-width:0.200246" />
  <path
     d="M 27.553827,120.54799 H 86.68642 V 108.69344 H 27.553827 Z m 62.016133,5.74706 H 24.690312 c -1.581942,0 -2.863516,-1.28157 -2.863516,-2.86352 v -17.58158 c 0,-1.58194 1.281574,-2.86352 2.863516,-2.86352 H 89.56996 c 1.58195,0 2.86352,1.28158 2.86352,2.86352 v 17.58158 c 0,1.56192 -1.28157,2.86352 -2.86352,2.86352 z"
     fill="#0071ce"
     id="path1002"
     style="stroke-width:0.200246" />
  <path
     d="M 24.690312,76.83433 H 89.56996 V 94.41591 H 24.690312 Z"
     fill="#ffffff"
     id="path1004"
     style="stroke-width:0.200246" />
  <path
     d="M 24.690312,76.83433 H 89.56996 v 6.46794 H 24.690312 Z"
     fill=""
     id="path1006"
     style="stroke-width:0.200246" />
  <path
     d="m 54.26662,76.83433 h 5.72703 v 17.58158 h -5.72703 z"
     fill="#333e48"
     id="path1008"
     style="stroke-width:0.200246" />
  <path
     d="M 27.553827,91.5524 H 86.68642 V 79.69784 H 27.553827 Z M 89.56996,97.29945 H 24.690312 c -1.581942,0 -2.863516,-1.28157 -2.863516,-2.86351 V 76.83433 c 0,-1.58194 1.281574,-2.86352 2.863516,-2.86352 H 89.56996 c 1.58195,0 2.86352,1.28158 2.86352,2.86352 v 17.58158 c 0,1.60197 -1.28157,2.88354 -2.86352,2.88354 z"
     fill="#0071ce"
     id="path1010"
     style="stroke-width:0.200246" />
  <path
     d="M 24.690312,47.83873 H 89.56996 V 65.42032 H 24.690312 Z"
     fill="#ffffff"
     id="path1012"
     style="stroke-width:0.200246" />
  <path
     d="M 24.690312,47.83873 H 89.56996 v 6.46794 H 24.690312 Z"
     fill=""
     id="path1014"
     style="stroke-width:0.200246" />
  <path
     d="m 54.26662,47.83873 h 5.72703 v 17.58159 h -5.72703 z"
     fill="#333e48"
     id="path1016"
     style="stroke-width:0.200246" />
  <path
     d="M 27.553827,62.57682 H 86.68642 V 50.72227 H 27.553827 Z M 89.56996,68.30386 H 24.690312 c -1.581942,0 -2.863516,-1.28158 -2.863516,-2.86352 V 47.85876 c 0,-1.58195 1.281574,-2.86352 2.863516,-2.86352 H 89.56996 c 1.58195,0 2.86352,1.28157 2.86352,2.86352 v 17.58158 c 0,1.58194 -1.28157,2.86352 -2.86352,2.86352 z"
     fill="#0071ce"
     id="path1018"
     style="stroke-width:0.200246" />
  <path
     d="M 40.40961,137.66901 H 73.85066 V 162.3393 H 40.40961 Z"
     fill="#ffffff"
     id="path1020"
     style="stroke-width:0.200246" />
  <path
     d="m 54.26662,137.66901 h 5.72703 v 24.67029 h -5.72703 z"
     fill="#333e48"
     id="path1022"
     style="stroke-width:0.200246" />
  <path
     d="M 76.71418,162.3393 H 70.98715 V 140.53253 H 43.27313 v 21.80677 h -5.72704 v -24.67029 c 0,-1.58194 1.28158,-2.86351 2.86352,-2.86351 h 33.44105 c 1.58195,0 2.86352,1.28157 2.86352,2.86351 z"
     fill="#0071ce"
     id="path1024"
     style="stroke-width:0.200246" />
  <path
     d="M 103.08656,12.655537 H 76.11344 V 3.824695 C 76.11344,1.722114 74.39133,0 72.28875,0 H 41.97153 c -2.10258,0 -3.8247,1.722114 -3.8247,3.824695 v 8.830842 H 11.173718 c -2.102582,0 -3.824696,1.722114 -3.824696,3.824693 v 14.91832 c 0,2.10258 1.722114,3.82469 3.824696,3.82469 h 91.912842 c 2.10258,0 3.82469,-1.72211 3.82469,-3.82469 V 16.48023 c 0,-2.102579 -1.72211,-3.824693 -3.82469,-3.824693 z"
     fill="#ff5959"
     id="path1026"
     style="stroke-width:0.200246" />
  <path
     d="M 66.3815,13.216225 H 61.55557 V 8.390301 c 0,-1.061303 -0.86106,-1.902336 -1.90234,-1.902336 h -5.04619 c -1.0613,0 -1.90234,0.861057 -1.90234,1.902336 v 4.825924 h -4.82592 c -1.0613,0 -1.90234,0.861057 -1.90234,1.902335 v 5.02617 c 0,1.0613 0.86106,1.90234 1.90234,1.90234 h 4.82592 v 4.82592 c 0,1.0613 0.86106,1.90234 1.90234,1.90234 h 5.02617 c 1.0613,0 1.90234,-0.86106 1.90234,-1.90234 v -4.82592 h 4.82592 c 1.0613,0 1.90234,-0.86106 1.90234,-1.90234 v -5.02617 c 0.02,-1.041278 -0.82101,-1.902335 -1.88231,-1.902335 z"
     fill="#ffffff"
     id="path1028"
     style="stroke-width:0.200246" />
  <path
     d="m 100.38324,97.31948 h 64.9197 v 65.01982 h -64.9197 z"
     fill="#d1d3d3"
     id="path1030"
     style="stroke-width:0.200246" />
  <path
     d="m 111.21654,115.56187 h 43.2531 v 17.58159 h -43.2531 z"
     fill="#ffffff"
     id="path1032"
     style="stroke-width:0.200246" />
  <path
     d="m 111.21654,115.56187 h 43.2531 v 6.46794 h -43.2531 z"
     fill=""
     id="path1034"
     style="stroke-width:0.200246" />
  <path
     d="m 129.97957,115.56187 h 5.72703 v 17.58159 h -5.72703 z"
     fill="#333e48"
     id="path1036"
     style="stroke-width:0.200246" />
  <path
     d="m 114.08005,130.27994 h 37.50605 v -11.85455 h -37.50605 z m 40.38959,5.74706 h -43.2531 c -1.58194,0 -2.86352,-1.28158 -2.86352,-2.86352 V 115.5819 c 0,-1.58194 1.28158,-2.86352 2.86352,-2.86352 h 43.2531 c 1.58194,0 2.86351,1.28158 2.86351,2.86352 v 17.58158 c 0,1.56192 -1.28157,2.86352 -2.86351,2.86352 z"
     fill="#0071ce"
     id="path1038"
     style="stroke-width:0.200246" />
  <path
     d="m 100.38324,86.12573 h 68.424 c 2.10258,0 3.8247,1.72212 3.8247,3.8247 v 7.329 c 0,2.10258 -1.72212,3.82469 -3.8247,3.82469 h -68.424 z"
     fill="#ff5959"
     id="path1040"
     style="stroke-width:0.200246" />
  <path
     d="M 107.61211,101.10412 V 86.12573 h -7.22887 v 76.21357 h 7.22887 v -53.94623 h 57.69083 v -7.28895 z"
     fill=""
     id="path1042"
     style="stroke-width:0.200246" />
  <path
     d="m 151.22566,162.3393 c 0,-6.76831 -5.48674,-12.23502 -12.23502,-12.23502 -6.76831,0 -12.23502,5.48674 -12.23502,12.23502 z"
     fill="#218649"
     id="path1044"
     style="stroke-width:0.200246" />
</svg>
