<svg xmlns="http://www.w3.org/2000/svg" width="148.404" height="114.116" viewBox="0 0 189.957 146.068" xmlns:v="https://vecta.io/nano"><path d="M189.095 3.574c2.352 8.858-.191 18.373-6.654 24.858a25.98 25.98 0 0 1-6.591 4.789v22.167c0 16.127-10.342 29.88-24.731 35.009-1.399 1.95-2.967 3.815-4.662 5.51a40.11 40.11 0 0 1-3.475 3.115v35.284c0 2.119-1.717 3.815-3.815 3.815h-12.652v4.132c0 2.119-1.717 3.815-3.815 3.815H104.37c-2.119 0-3.815-1.717-3.815-3.815v-35.009H73.811v27.041c0 2.119-1.717 3.815-3.815 3.815H57.345v4.132c0 2.119-1.717 3.815-3.815 3.815h-18.31a3.83 3.83 0 0 1-3.815-3.815V99.785A40.26 40.26 0 0 1 14.368 66.81c0-3.221.381-6.358 1.102-9.409-.721.106-1.462.17-2.204.17A13.29 13.29 0 0 1 0 44.305a11.4 11.4 0 0 1 11.38-11.38c1.187 0 2.352.212 3.454.615a3.83 3.83 0 0 1 2.246 4.916 3.83 3.83 0 0 1-4.917 2.246c-.254-.085-.53-.148-.784-.148-2.056 0-3.73 1.674-3.73 3.73 0 3.115 2.522 5.637 5.637 5.637 2.649 0 5.107-1.314 6.591-3.497 1.738-2.967 3.857-5.722 6.358-8.222 7.65-7.65 17.801-11.846 28.609-11.846h38.272a25.82 25.82 0 0 1-4.811-22.76c.36-1.314 1.377-2.352 2.713-2.713 8.858-2.352 18.373.191 24.858 6.654a25.83 25.83 0 0 1 5.15 7.375 52.47 52.47 0 0 1 17.695-3.115 52.47 52.47 0 0 1 17.695 3.115 25.83 25.83 0 0 1 5.15-7.375c6.442-6.485 15.979-9.028 24.816-6.675 1.335.36 2.352 1.399 2.713 2.713z" fill="#633"/><path d="M182.165 7.812c.742 5.552-1.123 11.21-5.128 15.216-1.441 1.441-3.073 2.607-4.853 3.475-.487.233-.996.466-1.505.657-1.483.551-2.479 1.992-2.479 3.581v24.646c0 16.275-13.224 29.499-29.499 29.499s-29.499-13.245-29.499-29.499V30.721c0-1.589-.975-3.009-2.458-3.581-2.395-.911-4.535-2.289-6.379-4.132-4.005-4.005-5.87-9.663-5.128-15.216 5.552-.742 11.21 1.123 15.216 5.128a18.05 18.05 0 0 1 4.641 7.989c.551 2.034 2.67 3.242 4.705 2.67.191-.064.381-.127.551-.212a44.41 44.41 0 0 1 18.352-3.963c6.336.021 12.503 1.356 18.352 3.963a2.42 2.42 0 0 0 .551.191 3.81 3.81 0 0 0 4.683-2.67c.826-3.009 2.437-5.764 4.641-7.989a18.32 18.32 0 0 1 15.237-5.086z" fill="#f9dcb2"/><path d="M150.843 37.205a3.793 3.793 0 1 0 7.587 0 3.793 3.793 0 1 0-7.587 0zm-12.142 8.647c10.808 0 19.602 7.29 19.602 16.233s-8.795 16.233-19.602 16.233-19.602-7.29-19.602-16.233 8.795-16.233 19.602-16.233z" fill="#633"/><path d="M138.701 52.718c7.014 0 12.736 4.196 12.736 9.367s-5.701 9.367-12.736 9.367c-7.014 0-12.736-4.196-12.736-9.367s5.722-9.367 12.736-9.367z" fill="#b88d5b"/><path d="M144.825 58.673a3.41 3.41 0 1 1 0 6.824 3.41 3.41 0 1 1 0-6.824z" fill="#633"/><path d="M138.701 92.495h.127c-4.768 5.256-16.042 7.905-16.042 7.905h-.127c-2.119 0-3.815 1.717-3.815 3.815v22.061h-10.659V103.43a3.83 3.83 0 0 0-3.815-3.815H53.531c-1.06 0-2.013.424-2.691 1.123-.699.699-1.123 1.653-1.123 2.691v22.866H39.057V97.751a3.81 3.81 0 0 0-1.738-3.2c-.021-.021-.042-.021-.042-.042-9.558-6.061-15.258-16.424-15.258-27.719a32.6 32.6 0 0 1 9.6-23.205 32.6 32.6 0 0 1 23.205-9.6h46.728v21.383c0 20.471 16.657 37.128 37.149 37.128z" fill="#f9dcb2"/><path d="M126.494 125.957h8.837v4.493h-8.837z" fill="#b88d5b"/><path d="M135.31 103.96v14.368h-8.837v-11.041c3.094-.784 6.04-1.907 8.837-3.327z" fill="#f9dcb2"/><path d="M132.555 58.673a3.412 3.412 0 1 1 0 6.824 3.412 3.412 0 0 1 0-6.824zm-13.584-21.468a3.794 3.794 0 1 0 7.587 0 3.794 3.794 0 1 0-7.587 0z" fill="#633"/><path d="M108.184 133.925h10.659v4.493h-10.659z" fill="#b88d5b"/><path d="M84.259 44.008c2.119 0 3.815 1.717 3.815 3.815a3.83 3.83 0 0 1-3.815 3.815H50.246c-2.119 0-3.815-1.717-3.815-3.815 0-2.119 1.717-3.815 3.815-3.815z" fill="#633"/><path d="M57.345 125.957h8.837v4.493h-8.837z" fill="#b88d5b"/><path d="M57.345 107.244h8.837v11.062h-8.837z" fill="#f9dcb2"/><path d="M39.057 133.925h10.659v4.493H39.057z" fill="#b88d5b"/></svg>