<svg xmlns="http://www.w3.org/2000/svg" width="145.383" height="112.876" viewBox="0 0 186.091 144.481" xmlns:v="https://vecta.io/nano"><path d="M24.563 27.155c-.021-.686.042-1.35.145-2.015-2.119-1.953-4.903-3.033-7.833-3.033-3.387 0-6.565 1.475-8.747 3.989 2.182 2.493 5.381 3.989 8.747 3.989 2.846-.021 5.568-1.06 7.687-2.93zm36.047.353c.166-1.184-.187-2.327-.956-3.22-.79-.893-1.87-1.392-3.075-1.392H35.907a4.07 4.07 0 0 0-3.075 1.392c-.79.893-1.122 2.036-.956 3.22l.686 4.966a3.52 3.52 0 0 1 6.275 2.182 3.52 3.52 0 0 1-3.511 3.511c-.769 0-1.475-.249-2.057-.665l1.87 13.588h22.21l1.87-13.588c-.582.416-1.288.665-2.057.665a3.52 3.52 0 0 1-3.511-3.511 3.52 3.52 0 0 1 3.511-3.511c1.122 0 2.098.519 2.763 1.33zm1.392 36.837v-3.158c0-1.537-1.247-2.805-2.805-2.805H33.289c-1.537 0-2.805 1.247-2.805 2.805v3.158c0 1.537 1.247 2.805 2.805 2.805h25.929c1.537-.021 2.784-1.267 2.784-2.805zm.54 72.843l-2.659-32.245a28.07 28.07 0 0 1-5.88-1.33l2.763 33.575zM84.379 26.095c-2.182-2.493-5.381-3.989-8.747-3.989-2.93 0-5.714 1.08-7.833 3.033.104.665.166 1.35.145 2.015a11.6 11.6 0 0 0 7.687 2.909c3.387 0 6.565-1.475 8.747-3.968zm42.01 84.561c1.309-.457 2.556-1.06 3.719-1.766-1.6-1.101-3.096-2.348-4.446-3.781h-19.8c3.532 4.114 8.705 6.586 14.336 6.586 2.119.021 4.218-.332 6.191-1.039zm10.305 26.532l.353-24.35a26.71 26.71 0 0 1-5.859 3.74l-.291 20.61zm18.657-29.461V62.912c0-2.992-1.205-8.477-3.823-11.947-3.553-4.716-7.604-6.503-7.646-6.524-1.434-.706-5.236-2.14-9.162-2.14l-68.771-.166-1.434 10.471c2.867 1.787 4.779 4.966 4.779 8.581v3.158a10.11 10.11 0 0 1-10.097 10.097H42.452v2.763c0 7.002 3.511 13.463 9.37 17.286 3.345 2.182 7.23 3.324 11.24 3.324h.187c1.891 0 3.49 1.454 3.636 3.345l2.971 36.027h5.984l2.95-36.006a3.66 3.66 0 0 1 3.636-3.345h44.857c1.08 0 2.098.478 2.805 1.309 2.119 2.535 4.841 4.509 7.895 5.734a18.02 18.02 0 0 0 3.49 1.018c1.745.332 2.971 1.87 2.95 3.636l-.395 27.674h6.586zm23.353-24.89l-1.724-5.734-1.724 5.734zm7.23 1.745c.332 1.101.125 2.306-.561 3.22a3.64 3.64 0 0 1-2.929 1.475h-10.949c-1.163 0-2.244-.54-2.929-1.475s-.893-2.119-.561-3.22l5.319-17.577v-2.971c0-11.302-8.664-20.61-19.675-21.649a29.04 29.04 0 0 1 3.823 4.322c.499.686 2.285 3.781 2.639 4.571 1.683 3.657 2.535 7.563 2.535 11.614v45.127c0 .187-.021.395-.042.582l-5.298 32.806c-.291 1.766-1.808 3.075-3.594 3.075H127.2a3.68 3.68 0 0 1-2.597-1.08 3.71 3.71 0 0 1-1.06-2.618l.312-22.044c-1.205.166-5.007.229-5.651.187v4.363c0 2.015-1.641 3.657-3.657 3.657s-3.657-1.641-3.657-3.657v-5.963c-1.932-.727-3.761-1.683-5.443-2.826v2.285c0 2.015-1.641 3.657-3.657 3.657s-3.657-1.641-3.657-3.657V107a21.36 21.36 0 0 1-1.101-1.891H85.75l-2.95 36.006a3.66 3.66 0 0 1-3.636 3.345H53.401c-1.891 0-3.49-1.454-3.636-3.345L46.358 99.52c-7.043-5.236-11.199-13.463-11.199-22.314v-2.763h-1.87a10.11 10.11 0 0 1-10.097-10.097v-3.158c0-3.615 1.911-6.794 4.779-8.581l-2.389-17.369c-2.659 1.392-5.651 2.119-8.705 2.119-6.732 0-13.006-3.615-16.393-9.453-.644-1.122-.644-2.514 0-3.657 3.366-5.817 9.661-9.453 16.393-9.453 4.155 0 8.124 1.35 11.365 3.781.187-.166.374-.332.582-.499a19.12 19.12 0 0 1-6.524-14.419C22.299 1.641 23.94 0 25.955 0s3.657 1.641 3.657 3.657c0 6.565 5.34 11.926 11.926 11.926h9.516c6.565 0 11.926-5.34 11.926-11.926C62.979 1.641 64.621 0 66.636 0s3.657 1.641 3.657 3.657c0 5.734-2.535 10.887-6.524 14.419.187.166.395.312.582.499 3.241-2.431 7.209-3.781 11.365-3.781 6.732 0 13.006 3.615 16.372 9.453a3.6 3.6 0 0 1 0 3.657c-1.745 3.013-4.259 5.443-7.23 7.085h66.797c16.019 0 29.046 13.027 29.046 29.046v2.971z" fill="#633"/><g fill="#f9dcb2"><path d="M176.981 77.102l1.724 5.734h-3.47zm-31.477-14.19a10.61 10.61 0 0 0-.976-4.467c-.125-.291-1.454-2.576-3.158-4.01-.519-.436-1.87-1.184-1.87-1.184-1.475-.727-3.075-1.122-4.758-1.122h-17.515c-2.015 0-3.657 1.641-3.657 3.657s1.641 3.657 3.657 3.657h17.515c1.35 0 2.306.748 2.826 1.454.436.582.644 1.496.644 2.015 0 2.015 1.641 3.657 3.657 3.657a3.66 3.66 0 0 0 3.636-3.657z"/><path d="M155.352 62.912v44.836l-4.758 29.44h-6.586l.395-27.674a3.66 3.66 0 0 0-2.95-3.636c-1.163-.229-2.327-.561-3.49-1.018-3.033-1.205-5.755-3.2-7.895-5.734-.686-.831-1.724-1.309-2.805-1.309H82.426c-1.891 0-3.49 1.454-3.636 3.345l-2.95 36.006h-5.984l-2.95-36.006a3.66 3.66 0 0 0-3.636-3.345h-.187c-4.01 0-7.895-1.143-11.24-3.324-5.88-3.823-9.37-10.284-9.37-17.286v-2.763h16.746a10.11 10.11 0 0 0 10.097-10.097v-3.158c0-3.615-1.911-6.794-4.779-8.581l1.434-10.471c.332.104 68.771.166 68.771.166 3.927 0 7.729 1.434 9.162 2.14.021.021 4.072 1.787 7.646 6.524 2.597 3.47 3.802 8.955 3.802 11.947z"/></g><path d="M144.528 58.445a10.61 10.61 0 0 1 .976 4.467c0 2.015-1.641 3.657-3.657 3.657s-3.657-1.641-3.657-3.657c0-.519-.229-1.434-.644-2.015-.519-.706-1.475-1.454-2.826-1.454h-17.515c-2.015 0-3.657-1.641-3.657-3.657s1.641-3.657 3.657-3.657h17.515c1.683 0 3.283.374 4.758 1.122 0 0 1.35.748 1.87 1.184 1.704 1.434 3.054 3.719 3.179 4.01z" fill="#633"/><path d="M137.048 112.838l-.353 24.35h-5.797l.291-20.61c2.119-.977 4.093-2.223 5.859-3.74z" fill="#f9dcb2"/><path d="M130.109 108.89c-1.163.727-2.41 1.33-3.719 1.766a18.8 18.8 0 0 1-6.191 1.039c-5.63 0-10.825-2.472-14.336-6.586h19.8c1.33 1.434 2.826 2.701 4.446 3.781zM75.632 22.106a11.61 11.61 0 0 1 8.747 3.989c-2.182 2.493-5.381 3.989-8.747 3.989a11.6 11.6 0 0 1-7.687-2.909c.021-.686-.042-1.371-.145-2.015 2.119-1.974 4.903-3.054 7.833-3.054z" fill="#f2ebdc"/><path d="M59.884 104.943l2.639 32.245h-5.755l-2.763-33.596c1.911.665 3.885 1.122 5.88 1.35z" fill="#f9dcb2"/><path d="M62.003 61.187v3.158c0 1.537-1.247 2.805-2.805 2.805H33.289c-1.537 0-2.805-1.247-2.805-2.805v-3.158c0-1.537 1.247-2.805 2.805-2.805h25.929c1.537 0 2.784 1.267 2.784 2.805z" fill="#b88d5b"/><path d="M59.655 24.288c.79.893 1.122 2.036.956 3.22l-.686 4.966a3.52 3.52 0 0 0-6.275 2.182 3.52 3.52 0 0 0 3.511 3.511c.769 0 1.475-.249 2.057-.665l-1.87 13.588h-22.21l-1.87-13.588c.582.416 1.288.665 2.057.665a3.52 3.52 0 0 0 3.511-3.511 3.52 3.52 0 0 0-6.275-2.182l-.686-4.966c-.166-1.184.187-2.327.956-3.22.79-.893 1.87-1.392 3.075-1.392H56.58c1.205 0 2.285.499 3.075 1.392z" fill="#f9dcb2"/><path d="M24.709 25.14c-.104.665-.166 1.35-.145 2.015-2.098 1.87-4.841 2.909-7.687 2.909-3.387 0-6.565-1.475-8.747-3.989 2.182-2.493 5.381-3.989 8.747-3.989a11.68 11.68 0 0 1 7.833 3.054z" fill="#f2ebdc"/></svg>