<?xml version="1.0" encoding="UTF-8"?>
<svg class="icon" width="135.46" height="106.6" version="1.1" viewBox="0 0 173.39 136.44" xmlns="http://www.w3.org/2000/svg"><g stroke-width=".17766"><path d="m127.91 60.642h-37.901a3.7826 3.7826 0 0 1-3.0814-1.5881l-37.901-53.062a3.7901 3.7901 0 0 1 3.0814-5.9922h15.161c0.91721 0 1.8079 0.33353 2.4939 0.93995l60.642 53.062a3.7901 3.7901 0 0 1-2.4939 6.6403z" fill="#b3b3b3"/><path d="m67.266 136.44h-15.161a3.7901 3.7901 0 0 1-3.1534-5.8937l37.901-56.852a3.7901 3.7901 0 0 1 3.1534-1.6866h41.691a3.7939 3.7939 0 0 1 2.5053 6.6327l-64.432 56.852a3.7901 3.7901 0 0 1-2.5053 0.94754z" fill="#e6e6e6"/><path d="m143.07 41.691h-106.14c-2.0846 0-4.7377-1.3531-5.9808-3.0965l-14.531-20.338c-1.2204-1.7094-3.8887-3.0965-6.0339-3.0965h-7.512c-2.1111 0-3.3202 1.6411-2.7099 3.6234l12.932 42.025c0.614 2.0012 2.6948 4.2563 4.6126 5.0219l30.905 12.363c1.933 0.77319 5.2039 1.3986 7.2771 1.3986h87.184c15.161 0 30.321-9.4753 30.321-18.951s-15.161-18.951-30.321-18.951z" fill="#d8d8d8"/></g><g fill="#5b5b5b" stroke-width=".17766"><path d="m65.371 58.747m-5.6852 0a5.6852 5.6852 0 1 0 11.37 0 5.6852 5.6852 0 1 0-11.37 0z"/><path d="m95.692 58.747m-5.6852 0a5.6852 5.6852 0 1 0 11.37 0 5.6852 5.6852 0 1 0-11.37 0z"/><path d="m126.01 58.747m-5.6852 0a5.6852 5.6852 0 1 0 11.37 0 5.6852 5.6852 0 1 0-11.37 0z"/></g></svg>
