<svg xmlns="http://www.w3.org/2000/svg" xmlns:xlink="http://www.w3.org/1999/xlink" viewBox="0 0 130 120" xmlns:v="https://vecta.io/nano"><path fill="#2a66b7" d="M0 0h130v120H0z"/><g fill="#fcbe1f"><use xlink:href="#B"/><use xlink:href="#B" y="80"/><use xlink:href="#B" x="40" y="40"/><use xlink:href="#B" x="-40" y="40"/><use xlink:href="#B" x="-29.5" y="12"/><use xlink:href="#B" x="29.5" y="12"/><path d="M35.5 77.5l2.8 5.9 6.2 1L40 89l1.1 6.5-5.6-3.1-5.6 3.1L31 89l-4.5-4.6 6.2-1zm59 0l2.8 5.9 6.2 1L99 89l1.1 6.5-5.6-3.1-5.6 3.1L90 89l-4.5-4.6 6.2-1z"/></g><defs ><path id="B" d="M65 11l2.8 5.9 6.2 1-4.5 4.6 1.1 6.5-5.6-3.1-5.6 3.1 1.1-6.5-4.5-4.6 6.2-1z"/></defs></svg>