<svg width="140" height="56.539" xmlns="http://www.w3.org/2000/svg"><defs><linearGradient id="prefix__i" y2="202.93" gradientUnits="userSpaceOnUse" x2="303.28" gradientTransform="matrix(.75572 0 0 1 169.706 508.8)" y1="182.37" x1="303.28"><stop offset="0" stop-color="#b7dbb7"/><stop offset="1" stop-color="#56db4b"/></linearGradient><linearGradient id="prefix__h" y2="178.87" gradientUnits="userSpaceOnUse" x2="303.27" gradientTransform="matrix(.75572 0 0 1 169.706 508.8)" y1="222.4" x1="303.27"><stop offset="0" stop-color="#1af500"/><stop offset=".157" stop-color="#17e900"/><stop offset=".44" stop-color="#11c900"/><stop offset=".816" stop-color="#069600"/><stop offset="1" stop-color="#007a00"/></linearGradient><linearGradient id="prefix__g" y2="223.92" gradientUnits="userSpaceOnUse" x2="291.93" gradientTransform="matrix(.75572 0 0 1 169.706 508.8)" y1="165.07" x1="321.35"><stop offset="0"/><stop offset=".122" stop-color="#030303"/><stop offset=".195" stop-color="#0b0b0b"/><stop offset=".255" stop-color="#191919"/><stop offset=".309" stop-color="#2d2d2e"/><stop offset=".357" stop-color="#474848"/><stop offset=".403" stop-color="#676868"/><stop offset=".446" stop-color="#8d8e8f"/><stop offset=".485" stop-color="#b8b9ba"/><stop offset=".521" stop-color="#e6e7e8"/><stop offset=".546" stop-color="#c7c8c9"/><stop offset=".588" stop-color="#99999a"/><stop offset=".633" stop-color="#707071"/><stop offset=".68" stop-color="#4d4d4e"/><stop offset=".729" stop-color="#313131"/><stop offset=".781" stop-color="#1b1b1b"/><stop offset=".839" stop-color="#0c0c0c"/><stop offset=".905" stop-color="#030303"/><stop offset="1"/></linearGradient><linearGradient id="prefix__f" y2="222.65" gradientUnits="userSpaceOnUse" x2="303.27" gradientTransform="matrix(.75572 0 0 1 169.706 508.8)" y1="179.73" x1="303.27"><stop offset="0"/><stop offset=".461" stop-color="#6d6e70"/><stop offset="1" stop-color="#fff"/></linearGradient><linearGradient id="prefix__d" y2="173.34" gradientUnits="userSpaceOnUse" x2="303.28" gradientTransform="matrix(.75572 0 0 1 169.706 508.8)" y1="225.56" x1="303.28"><stop offset="0"/><stop offset=".143" stop-color="#020202"/><stop offset=".219" stop-color="#0a0a0a"/><stop offset=".279" stop-color="#171718"/><stop offset=".331" stop-color="#2a2a2b"/><stop offset=".378" stop-color="#424344"/><stop offset=".42" stop-color="#5f6062"/><stop offset=".436" stop-color="#6d6e70"/><stop offset="1" stop-color="#fff"/></linearGradient><linearGradient id="prefix__c" y2="200.54" gradientUnits="userSpaceOnUse" x2="394.99" gradientTransform="matrix(.75572 0 0 1 169.706 508.8)" y1="200.54" x1="211.56"><stop offset="0" stop-color="#a2a4a5"/><stop offset="1" stop-color="#d0d2d3"/></linearGradient><linearGradient id="prefix__b" y2="201.23" gradientUnits="userSpaceOnUse" x2="394.99" gradientTransform="matrix(.75572 0 0 1 169.706 508.8)" y1="201.23" x1="211.56"><stop offset="0" stop-color="#6d6e70"/><stop offset="1" stop-color="#bbbdbf"/></linearGradient><linearGradient id="prefix__a" y2="201.23" gradientUnits="userSpaceOnUse" x2="395.9" gradientTransform="matrix(.75572 0 0 1 169.706 508.8)" y1="201.23" x1="210.65"><stop offset="0"/><stop offset="1" stop-color="#58595b"/></linearGradient><radialGradient id="prefix__e" gradientUnits="userSpaceOnUse" cy="169.21" cx="302.74" gradientTransform="matrix(.75572 0 0 1 169.706 508.8)" r="157.03"><stop offset=".145" stop-color="#fff"/><stop offset=".57" stop-color="#d4d4d4"/><stop offset="1" stop-color="#f3f3f3"/></radialGradient></defs><path d="M468.897 710.03c0 15.61-9.564 28.27-21.367 28.27h-97.269c-11.8 0-21.364-12.659-21.364-28.27 0-15.611 9.564-28.269 21.364-28.269h97.27c11.802 0 21.366 12.659 21.366 28.269z" fill="url(#prefix__a)" transform="translate(-328.897 -681.761)"/><path d="M468.21 710.03c0 15.133-9.472 27.395-21.156 27.395h-96.31c-11.684 0-21.156-12.262-21.156-27.395 0-15.129 9.472-27.395 21.156-27.395h96.31c11.684.001 21.155 12.266 21.155 27.395z" fill="url(#prefix__b)" transform="translate(-328.897 -681.761)"/><path d="M468.21 710.03c0 15.133-12.045 25.516-21.156 26.018h-96.31c-9.101-.502-21.156-10.885-21.156-26.018 0-15.129 9.472-27.395 21.156-27.395h96.31c11.684.001 21.155 12.266 21.155 27.395z" fill="url(#prefix__c)" transform="translate(-328.897 -681.761)"/><path d="M468.21 710.03c0 15.133-12.045 23.904-21.156 24.507h-96.31c-9.101-.603-21.156-9.374-21.156-24.507 0-15.129 9.472-27.395 21.156-27.395h96.31c11.684.001 21.155 12.266 21.155 27.395z" fill="url(#prefix__d)" transform="translate(-328.897 -681.761)"/><path d="M447.057 682.63h-96.31c-11.684 0-21.155 12.266-21.155 27.395 0 1.434.11 2.811.315 4.126 20.853 1.033 43.14 1.592 66.31 1.592 25.179 0 49.327-.66 71.716-1.867.178-1.238.28-2.519.28-3.851 0-15.13-9.472-27.395-21.156-27.395z" fill="url(#prefix__e)" transform="translate(-328.897 -681.761)"/><path d="M447.533 688.53h-97.27c-8.957 0-16.247 9.646-16.247 21.499 0 11.853 7.29 21.499 16.248 21.499h97.269c8.96 0 16.246-9.646 16.246-21.499 0-11.853-7.286-21.499-16.246-21.499z" fill="url(#prefix__f)" transform="translate(-328.897 -681.761)"/><path d="M447.087 689.19h-96.378c-8.88 0-16.1 9.346-16.1 20.834s7.22 20.834 16.1 20.834h96.378c8.88 0 16.1-9.346 16.1-20.834s-7.22-20.834-16.1-20.834z" fill="url(#prefix__g)" transform="translate(-328.897 -681.761)"/><path d="M446.558 689.92h-95.312c-8.783 0-15.922 9.026-15.922 20.114 0 11.087 7.139 20.113 15.922 20.113h95.312c8.78 0 15.92-9.026 15.92-20.113 0-11.088-7.14-20.114-15.92-20.114z" fill="url(#prefix__h)" transform="translate(-328.897 -681.761)"/><path d="M444.26 690.56h-90.724c-11.268 0-15.152 8.564-15.152 13.233 0 5.92 6.797 8.241 15.152 8.241h90.724c8.359 0 15.155-1.515 15.155-7.431 0-6.989-4.714-14.043-15.155-14.043z" fill="url(#prefix__i)" transform="translate(-328.897 -681.761)"/></svg>