<svg xmlns="http://www.w3.org/2000/svg" width="137.927" height="79.208" viewBox="0 0 176.547 101.386" xmlns:v="https://vecta.io/nano"><path d="M176.547 31.45v66.408c0 1.931-1.576 3.508-3.508 3.508h-17.499a3.53 3.53 0 0 1-3.488-3.094l-.631-5.281H140.21a3.51 3.51 0 0 1-3.488-3.054l-1.675-12.671-8.336.276c-6.917 0-13.833-.571-20.868-1.695l-1.517 22.268c-.118 1.852-1.655 3.271-3.508 3.271h-16.1a3.52 3.52 0 0 1-3.508-3.232l-.434-5.163h-11.41a3.5 3.5 0 0 1-3.488-3.114l-3.508-30.702c-2.404.552-3.902.374-4.118.355-2.148 6.286-5.793 11.902-10.483 16.021-5.498 4.828-12.021 7.468-18.937 7.685-6.621 0-13.932-2.542-19.036-7.331C4.89 71.295 1.442 64.852.062 57.797a3.66 3.66 0 0 1 .749-2.976c.69-.828 1.695-1.32 2.779-1.32h8.06a3.59 3.59 0 0 1 3.212 1.99c2.404 4.788 5.675 7.646 8.749 7.646 3.567 0 7.311-3.784 9.754-9.892 1.498-3.724 2.306-14.425 2.365-14.7C36.183 17.203 53.682 0 75.122 0c0 0 25.539.67 74.448 3.409 15.134.828 26.977 12.907 26.977 28.041z" fill="#633"/><path d="M169.512 31.45v62.881h-10.858l-4.099-34.446c-.236-1.931-1.971-3.311-3.902-3.074s-3.311 1.971-3.074 3.902l.926 7.823c-3.626.631-7.232 1.123-10.759 1.439-10.503.946-20.849.552-31.49-1.222l.493-8.257c.118-1.931-1.36-3.606-3.291-3.724s-3.606 1.36-3.724 3.291l-.67 11.213-1.537 23.056H87.95l-2.838-30.839a3.51 3.51 0 0 0-3.784-3.212 3.51 3.51 0 0 0-3.212 3.784l2.069 21.873H72.54l-3.685-32.022c-.217-1.931-1.951-3.311-3.882-3.094a3.7 3.7 0 0 0-1.34.434 9.56 9.56 0 0 1-6.976.966c-1.892-.473-3.803.65-4.276 2.542-1.576 6.148-4.848 11.646-9.222 15.508-4.197 3.705-9.163 5.734-14.365 5.931h-.079c-4.788 0-10.188-2.01-13.952-5.537-2.818-2.641-5.005-6.089-6.424-9.951h1.202c3.665 6.148 8.71 9.616 14.109 9.616 6.68 0 12.828-5.38 16.454-14.405 1.833-4.572 2.759-17.006 2.719-17.243.374-17.518 14.76-31.667 32.357-31.667l12.08.217c1.754.079 3.409.67 4.926 1.714l3.133 2.187c4.394 3.074 7.094 7.882 7.429 13.242.335 5.34-1.754 10.464-5.734 14.07L84.62 49.639c-1.557 1.399-3.606 1.714-5.498.828s-2.976-2.66-2.897-4.749v-.217l-.138-6.188c-.039-1.931-1.636-3.468-3.586-3.429-1.931.039-3.468 1.655-3.429 3.586l.138 6.109c-.138 4.887 2.522 9.203 6.956 11.272 1.675.788 3.429 1.163 5.163 1.163 2.897 0 5.734-1.064 8.02-3.133l12.395-11.193c5.577-5.025 8.513-12.218 8.04-19.725-.374-6.109-2.976-11.725-7.252-15.922l46.781 2.384h.039c11.291.434 20.159 9.676 20.159 21.026z" fill="#b2abac"/><path d="M160.388 31.45c0 1.931-1.576 3.508-3.508 3.508s-3.508-1.576-3.508-3.508c0-2.641-2.049-4.769-4.69-4.887-.02 0-21.341-1.084-21.341-1.084a3.52 3.52 0 0 1-3.33-3.685 3.52 3.52 0 0 1 3.685-3.33l21.223 1.084h.059c6.385.256 11.41 5.478 11.41 11.902z" fill="#633"/><path d="M149.353 75.532l1.241 10.405h-7.311l-1.241-9.341 7.311-1.064z" fill="#b2abac"/><path d="M53.839 26.82c1.931 0 3.508 1.576 3.508 3.508s-1.576 3.508-3.508 3.508-3.508-1.576-3.508-3.508c0-1.951 1.576-3.508 3.508-3.508z" fill="#633"/></svg>