<svg version="1.1" xmlns="http://www.w3.org/2000/svg" xmlns:xlink="http://www.w3.org/1999/xlink" width="137.92793" height="79.208" viewBox="0,0,137.92793,79.208"><g transform="translate(-171.03604,-140.396)"><g data-paper-data="{&quot;isPaintingLayer&quot;:true}" fill-rule="nonzero" stroke="none" stroke-width="1" stroke-linecap="butt" stroke-linejoin="miter" stroke-miterlimit="10" stroke-dasharray="" stroke-dashoffset="0" style="mix-blend-mode: normal"><path d="M192.11177,143.05929c38.21006,-2.13985 58.16236,-2.66329 58.16236,-2.66329c16.74996,0 30.42102,13.43988 30.77492,30.11335c0.04609,0.21484 0.67734,8.57502 1.84765,11.4844c1.90859,4.77189 4.83358,7.72814 7.62029,7.72814c2.40156,0 4.95702,-2.23282 6.83514,-5.97345c0.47402,-0.95211 1.44579,-1.55418 2.50937,-1.55469h6.29686c0.84687,0 1.63203,0.38438 2.17109,1.03125c0.52623,0.65186 0.74012,1.5017 0.58515,2.32501c-1.07812,5.51173 -3.77187,10.54534 -7.60467,14.14691c-3.98749,3.74142 -9.69919,5.72736 -14.87184,5.72736c-5.40311,-0.16953 -10.49919,-2.23204 -14.79449,-6.00392c-3.66405,-3.21798 -6.5117,-7.60549 -8.18982,-12.51644c-0.16875,0.01484 -1.33906,0.15391 -3.21718,-0.27734l-2.74062,23.98599c-0.15398,1.38773 -1.32876,2.43655 -2.72499,2.43282h-8.91404l-0.33906,4.0336c-0.11712,1.42669 -1.30914,2.52493 -2.74062,2.52501h-12.57809c-1.44765,0 -2.64843,-1.1086 -2.74062,-2.55547l-1.18515,-17.39692c-5.49608,0.87813 -10.89919,1.32422 -16.30308,1.32422l-6.51248,-0.21563l-1.30859,9.89924c-0.17916,1.36738 -1.34594,2.38899 -2.72499,2.38594h-8.75857l-0.49297,4.12579c-0.17129,1.37632 -1.33807,2.41131 -2.72499,2.41719h-13.67106c-1.50937,0 -2.74062,-1.23203 -2.74062,-2.74063v-51.88137c0,-11.82347 9.25232,-21.26021 21.07573,-21.90708z" data-paper-data="{&quot;index&quot;:null}" fill="#663333"/><path d="M176.5329,164.96715c0,-8.86721 6.92811,-16.08754 15.74918,-16.4266h0.03047l36.54757,-1.8625c-3.34062,3.27891 -5.37342,7.66642 -5.66561,12.43909c-0.36953,5.86486 1.92421,11.4844 6.28123,15.41019l9.68357,8.74455c1.78593,1.61641 4.00233,2.44766 6.26561,2.44766c1.35468,0 2.72499,-0.29297 4.03358,-0.9086c3.46405,-1.61641 5.54217,-4.98829 5.43436,-8.80627l0.10781,-4.77267c0.03047,-1.5086 -1.17031,-2.7711 -2.6789,-2.80157c-1.52343,-0.03047 -2.77109,1.17032 -2.80156,2.67891l-0.10781,4.83439v0.16953c0.06172,1.63204 -0.78515,3.01798 -2.26328,3.71017c-1.47812,0.69219 -3.0789,0.44609 -4.2953,-0.64688l-9.68279,-8.74455c-3.10937,-2.81719 -4.74139,-6.82033 -4.47968,-10.99221c0.26172,-4.18751 2.37109,-7.94377 5.80389,-10.34534l2.44765,-1.7086c1.18515,-0.81563 2.47812,-1.27735 3.84843,-1.33907l9.43748,-0.16953c13.74762,0 24.98666,11.05393 25.27884,24.7399c-0.03125,0.18516 0.69219,9.89924 2.12421,13.47113c2.83281,7.0508 7.63592,11.25393 12.85466,11.25393c4.21796,0 8.15935,-2.70938 11.02263,-7.51252h0.93906c-1.10859,3.01719 -2.81718,5.71095 -5.01874,7.77424c-2.94062,2.75548 -7.15936,4.32579 -10.89997,4.32579h-0.06172c-4.06405,-0.15391 -7.94373,-1.73907 -11.22263,-4.6336c-3.41718,-3.01719 -5.97342,-7.31252 -7.20467,-12.11565c-0.36953,-1.47813 -1.8625,-2.35547 -3.34062,-1.98594c-1.84651,0.45113 -3.79555,0.18123 -5.44999,-0.75469c-0.32403,-0.17901 -0.67942,-0.29412 -1.04687,-0.33906c-1.50859,-0.16953 -2.86327,0.9086 -3.0328,2.41719l-2.8789,25.01725h-5.97264l1.6164,-17.08832c0.12326,-1.50925 -1.00015,-2.83272 -2.50937,-2.95626c-1.50924,-0.12326 -2.83271,1.00016 -2.95624,2.50938l-2.21718,24.09303h-7.48201l-1.20078,-18.01254l-0.52344,-8.76018c-0.09219,-1.5086 -1.40078,-2.66329 -2.90937,-2.5711c-1.50859,0.09219 -2.66327,1.40078 -2.57109,2.90938l0.38516,6.4508c-8.31326,1.38594 -16.39605,1.69375 -24.6015,0.95469c-2.75546,-0.24688 -5.57264,-0.63125 -8.40545,-1.12422l0.72344,-6.11173c0.18516,-1.5086 -0.89297,-2.86329 -2.40156,-3.04844c-1.50859,-0.18516 -2.86406,0.89297 -3.04843,2.40157l-3.20234,26.911h-8.48279v-49.1259z" data-paper-data="{&quot;index&quot;:null}" fill="#b2abac"/><path d="M192.57426,155.66791h0.04609l16.58043,-0.84688c1.51213,-0.07308 2.79895,1.08978 2.8789,2.60157c0.07308,1.51214 -1.08977,2.79896 -2.60156,2.87891c0,0 -16.65699,0.84688 -16.67261,0.84688c-2.06328,0.09219 -3.66405,1.75469 -3.66405,3.81798c0,1.50938 -1.23125,2.74063 -2.74062,2.74063c-1.50937,0 -2.74062,-1.23203 -2.74062,-2.74063c0,-5.01876 3.92577,-9.09846 8.91404,-9.29846z" data-paper-data="{&quot;index&quot;:null}" fill="#663333"/><path d="M197.993,200.23677l-0.96953,7.29767h-5.7117l0.96953,-8.12893z" data-paper-data="{&quot;index&quot;:null}" fill="#b2abac"/><path d="M269.64204,164.08981c0,1.50938 -1.23125,2.74063 -2.74062,2.74063c-1.50937,0 -2.74062,-1.23125 -2.74062,-2.74063c0,-1.50938 1.23203,-2.74063 2.74062,-2.74063c1.50937,0 2.74062,1.21641 2.74062,2.74063z" data-paper-data="{&quot;index&quot;:null}" fill="#663333"/></g></g></svg>