<svg version="1.1" xmlns="http://www.w3.org/2000/svg" xmlns:xlink="http://www.w3.org/1999/xlink" width="137.70553" height="122.91453" viewBox="0,0,137.70553,122.91453"><g transform="translate(-171.49541,-118.06041)"><g data-paper-data="{&quot;isPaintingLayer&quot;:true}" fill-rule="nonzero" stroke="#000000" stroke-linecap="butt" stroke-linejoin="miter" stroke-dasharray="" stroke-dashoffset="0" style="mix-blend-mode: normal"><g data-paper-data="{&quot;index&quot;:null}" stroke-width="3" stroke-miterlimit="4"><path d="M296.68552,239.08963c-6.08365,0 -11.01542,-4.93177 -11.01542,-11.01542c0,-6.08365 4.93177,-11.01542 11.01542,-11.01542c6.08365,0 11.01542,4.93177 11.01542,11.01542c0,6.08365 -4.93177,11.01542 -11.01542,11.01542z" fill="none"/><path d="M296.53008,231.79093c-1.9886,0 -3.60068,-1.61208 -3.60068,-3.60068c0,-1.9886 1.61208,-3.60068 3.60068,-3.60068c1.9886,0 3.60068,1.61208 3.60068,3.60068c0,1.9886 -1.61208,3.60068 -3.60068,3.60068z" fill="#000000"/></g><g data-paper-data="{&quot;index&quot;:null}" stroke-width="3" stroke-miterlimit="4"><path d="M190.12181,239.47493c-6.08365,0 -11.01542,-4.93177 -11.01542,-11.01542c0,-6.08365 4.93177,-11.01542 11.01542,-11.01542c6.08365,0 11.01542,4.93177 11.01542,11.01542c0,6.08365 -4.93177,11.01542 -11.01542,11.01542z" fill="none"/><path d="M189.96637,232.17623c-1.9886,0 -3.60068,-1.61208 -3.60068,-3.60068c0,-1.9886 1.61208,-3.60068 3.60068,-3.60068c1.9886,0 3.60068,1.61208 3.60068,3.60068c0,1.9886 -1.61208,3.60068 -3.60068,3.60068z" fill="#000000"/></g><g data-paper-data="{&quot;index&quot;:null}" fill="#000000" stroke-miterlimit="4"><path d="M295.24344,221.21209l-7.16716,-31.49706l0.91791,-0.20887l7.16716,31.49706z" stroke-width="3.02217"/><path d="M288.77136,190.8286c-0.41742,0.09498 -0.99842,-0.89424 -1.29771,-2.20948c-0.29928,-1.31525 -0.20352,-2.45846 0.2139,-2.55345c0.41742,-0.09498 0.99842,0.89424 1.29771,2.20948c0.29928,1.31525 0.20352,2.45846 -0.2139,2.55345z" stroke-width="2.76619"/><path d="M297.04381,226.63388c-0.41742,0.09498 -0.99842,-0.89424 -1.29771,-2.20948c-0.29928,-1.31525 -0.20352,-2.45846 0.2139,-2.55345c0.41742,-0.09498 0.99842,0.89424 1.29771,2.20948c0.29928,1.31525 0.20352,2.45846 -0.2139,2.55345z" stroke-width="2.76619"/></g><g data-paper-data="{&quot;index&quot;:null}" fill="#000000" stroke-miterlimit="4"><path d="M286.93061,184.9687l-10.69006,-56.31928l0.60531,-0.1149l10.69006,56.31928z" stroke-width="3.02217"/><path d="M276.92786,130.75887c-0.27527,0.05225 -0.86029,-1.81188 -1.30668,-4.16365c-0.44639,-2.35177 -0.58512,-4.30061 -0.30985,-4.35286c0.27527,-0.05225 0.86029,1.81188 1.30668,4.16365c0.44639,2.35177 0.58512,4.30061 0.30985,4.35286z" stroke-width="2.76619"/><path d="M289.16764,194.81507c-0.27527,0.05225 -0.86029,-1.81188 -1.30668,-4.16365c-0.44639,-2.35177 -0.58512,-4.30061 -0.30985,-4.35286c0.27527,-0.05225 0.86029,1.81188 1.30668,4.16365c0.44639,2.35177 0.58512,4.30061 0.30985,4.35286z" stroke-width="2.76619"/></g><g data-paper-data="{&quot;index&quot;:null}" fill="#000000" stroke-miterlimit="4"><path d="M276.45866,120.02353l10.08801,-0.38877l0.00689,0.48318l-10.08801,0.38877z" stroke-width="3.02217"/><path d="M286.16256,119.87075c-0.00313,-0.21973 0.33582,-0.41101 0.75707,-0.42725c0.42125,-0.01623 0.76529,0.14873 0.76842,0.36846c0.00313,0.21973 -0.33582,0.41101 -0.75707,0.42725c-0.42125,0.01623 -0.76529,-0.14873 -0.76842,-0.36846z" stroke-width="2.76619"/><path d="M274.68693,120.37556c-0.00313,-0.21973 0.33582,-0.41101 0.75707,-0.42725c0.42125,-0.01623 0.76529,0.14873 0.76842,0.36846c0.00313,0.21973 -0.33582,0.41101 -0.75707,0.42725c-0.42125,0.01623 -0.76529,-0.14873 -0.76842,-0.36846z" stroke-width="2.76619"/></g><path d="M288.4788,121.0298c-0.54996,0 -0.99579,-0.44583 -0.99579,-0.99579c0,-0.54996 0.44583,-0.99579 0.99579,-0.99579c0.54996,0 0.99579,0.44583 0.99579,0.99579c0,0.54996 -0.44583,0.99579 -0.99579,0.99579z" data-paper-data="{&quot;index&quot;:null}" fill="#000000" stroke-width="1.37781" stroke-miterlimit="4"/><g data-paper-data="{&quot;index&quot;:null}" fill="#000000" stroke-miterlimit="4"><path d="M276.45318,220.60578l13.61541,-15.06949l0.81383,0.56034l-13.61541,15.06949z" stroke-width="3.02217"/><path d="M289.91825,206.37114c-0.37009,-0.25481 -0.2092,-0.9715 0.35935,-1.60077c0.56855,-0.62927 1.32946,-0.93282 1.69955,-0.67801c0.37009,0.25481 0.2092,0.9715 -0.35935,1.60077c-0.56855,0.62927 -1.32946,0.93282 -1.69955,0.67801z" stroke-width="2.76619"/><path d="M274.53414,223.58732c-0.37009,-0.25481 -0.2092,-0.9715 0.35935,-1.60077c0.56855,-0.62927 1.32946,-0.93282 1.69955,-0.67801c0.37009,0.25481 0.2092,0.9715 -0.35935,1.60077c-0.56855,0.62927 -1.32946,0.93282 -1.69955,0.67801z" stroke-width="2.76619"/></g><g data-paper-data="{&quot;index&quot;:null}" fill="#000000" stroke-miterlimit="4"><path d="M268.51389,224.51395h-53.55201v-0.61612h53.55201z" stroke-width="3.02217"/><path d="M217.01766,224.23207c0,0.28018 -1.81281,0.50731 -4.04902,0.50731c-2.23621,0 -4.04902,-0.22713 -4.04902,-0.50731c0,-0.28018 1.81281,-0.50731 4.04902,-0.50731c2.23621,0 4.04902,0.22713 4.04902,0.50731z" stroke-width="2.76619"/><path d="M277.94057,224.15233c0,0.28018 -1.81281,0.50731 -4.04902,0.50731c-2.23621,0 -4.04902,-0.22713 -4.04902,-0.50731c0,-0.28018 1.81281,-0.50731 4.04902,-0.50731c2.23621,0 4.04902,0.22713 4.04902,0.50731z" stroke-width="2.76619"/></g><path d="M208.40526,229.28927v-1.35693h65.7769v1.35693z" data-paper-data="{&quot;index&quot;:null}" fill="#000000" stroke-width="2.42202" stroke-miterlimit="4"/><g data-paper-data="{&quot;index&quot;:null}" fill="#000000" stroke-miterlimit="4"><path d="M208.40526,229.28948h-14.18136v-0.61612h14.18136z" stroke-width="3.02217"/><path d="M194.7683,229.0076c0,0.28018 -0.48006,0.50731 -1.07224,0.50731c-0.59218,0 -1.07224,-0.22713 -1.07224,-0.50731c0,-0.28018 0.48006,-0.50731 1.07224,-0.50731c0.59218,0 1.07224,0.22713 1.07224,0.50731z" stroke-width="2.76619"/><path d="M210.90159,228.92786c0,0.28018 -0.48006,0.50731 -1.07224,0.50731c-0.59218,0 -1.07224,-0.22713 -1.07224,-0.50731c0,-0.28018 0.48006,-0.50731 1.07224,-0.50731c0.59218,0 1.07224,0.22713 1.07224,0.50731z" stroke-width="2.76619"/></g><path d="M206.41709,222.37519c-10.96572,-11.62042 -16.36229,-10.26962 -22.6176,-8.2712c-3.751,1.19846 -5.88025,3.50979 -7.29043,6.42621c-0.94513,1.95461 -2.62208,5.23233 -2.62208,5.23233c-1.40262,0 -0.2078,-2.8662 0.21983,-4.20214c0.68311,-2.13388 2.01037,-4.10224 3.61232,-5.66879c1.60201,-1.56673 3.65021,-2.69829 5.74822,-3.48523c1.97818,-0.74203 4.13199,-1.03422 6.24404,-1.08885c1.93114,-0.04949 3.9514,0 5.75303,0.69914c3.59466,1.39075 7.29417,4.4848 9.42833,6.69403c1.59922,1.65545 6.53607,4.36199 6.53607,4.36199z" data-paper-data="{&quot;index&quot;:null}" fill="#000000" stroke-width="1" stroke-miterlimit="10"/><path d="M273.34716,224.24561c-0.54153,0 -0.98053,-0.49396 -0.98053,-1.10328c0,-0.60932 0.439,-1.10328 0.98053,-1.10328c0.54153,0 0.98053,0.49396 0.98053,1.10328c0,0.60932 -0.439,1.10328 -0.98053,1.10328z" data-paper-data="{&quot;index&quot;:null}" fill="#000000" stroke-width="1.43911" stroke-miterlimit="4"/><path d="M172.74961,221.87829l1.42607,-2.56933l0.38582,0.21415l-1.42607,2.56933z" data-paper-data="{&quot;index&quot;:null}" fill="#000000" stroke-width="1.8449" stroke-miterlimit="4"/><path d="M276.06462,231.31162l3.44053,-5.95915" data-paper-data="{&quot;index&quot;:null}" fill="none" stroke-width="0.4" stroke-miterlimit="4"/><path d="M274.18215,227.93239c0,0 0.19669,-0.27875 0.43933,-0.62261l2.16363,-3.06629c0.24263,-0.34386 0.43933,-0.62261 0.43933,-0.62261l1.56881,2.10103c0,0 -0.19669,0.27875 -0.43933,0.62261l-2.16363,3.06629c-0.24263,0.34386 -0.43933,0.62261 -0.43933,0.62261z" data-paper-data="{&quot;index&quot;:null}" fill="#000000" stroke-width="0.60463" stroke-miterlimit="4"/><path d="M205.45745,220.52543l1.61181,10.8179" data-paper-data="{&quot;index&quot;:null}" fill="none" stroke-width="1.05485" stroke-miterlimit="10"/></g></g></svg>