<svg version="1.1" xmlns="http://www.w3.org/2000/svg" xmlns:xlink="http://www.w3.org/1999/xlink" width="142.14672" height="133.79876" viewBox="0,0,142.14672,133.79876"><defs><radialGradient cx="239.99999" cy="179.99903" r="54.41684" gradientUnits="userSpaceOnUse" id="color-1"><stop offset="0" stop-color="#ffd200"/><stop offset="0.3" stop-color="#ffdc00"/><stop offset="0.5018" stop-color="#ffaa00"/><stop offset="0.6544" stop-color="#ff7f00"/><stop offset="1" stop-color="#ff5500"/></radialGradient><radialGradient cx="225.80249" cy="166.88074" r="21.02763" fx="225.64925" fy="166.57781" gradientUnits="userSpaceOnUse" id="color-2"><stop offset="0" stop-color="#ffffff"/><stop offset="1" stop-color="#ffffff" stop-opacity="0"/></radialGradient></defs><g transform="translate(-168.92664,-113.10062)"><g data-paper-data="{&quot;isPaintingLayer&quot;:true}" fill-rule="evenodd" stroke-miterlimit="10" stroke-dasharray="" stroke-dashoffset="0" style="mix-blend-mode: normal"><path d="M200.38772,160.15175c-41.04919,-20.72787 33.87522,-73.50388 36.77477,-27.60973c5.01566,79.38796 32.39734,28.27271 -34.15772,71.8391c-38.47546,25.18571 -46.71862,-66.08874 -5.52334,-45.65275c71.25982,35.35029 40.68356,-13.92056 45.13562,65.501c2.57374,45.91358 -80.59384,7.41514 -42.29811,-18.04302c66.24416,-44.03767 8.28622,-42.19328 79.29334,-6.3381c41.04919,20.72787 -33.87522,73.50388 -36.77477,27.60973c-5.01566,-79.38796 -32.39734,-28.27271 34.15772,-71.8391c38.47546,-25.18571 46.71862,66.08874 5.52334,45.65275c-71.25982,-35.35029 -40.68356,13.92056 -45.13562,-65.501c-2.57374,-45.91358 80.59384,-7.41514 42.29811,18.04302c-66.24416,44.03767 -8.28622,42.19328 -79.29334,6.3381z" fill="url(#color-1)" stroke="#aa5500" stroke-width="2.4369" stroke-linecap="round" stroke-linejoin="round"/><path d="M223.23703,179.99893c0,-9.25691 7.50421,-16.76112 16.76112,-16.76112c9.25691,0 16.76112,7.50421 16.76112,16.76112c0,9.25691 -7.50421,16.76112 -16.76112,16.76112c-9.25691,0 -16.76112,-7.50421 -16.76112,-16.76112z" fill="#ffff78" stroke-opacity="0.43137" stroke="#aa5500" stroke-width="0.79346" stroke-linecap="round" stroke-linejoin="round"/><path d="M223.46804,182.77211c-1.03564,-6.17316 1.45476,-12.40902 6.45797,-16.17046c5.00321,-3.76144 11.68543,-4.42161 17.32796,-1.71193l-7.25582,15.10921z" fill="url(#color-2)" stroke="none" stroke-width="1" stroke-linecap="butt" stroke-linejoin="miter"/></g></g></svg>