<svg width="140" height="131.652" xmlns="http://www.w3.org/2000/svg"><defs><radialGradient id="prefix__a" gradientUnits="userSpaceOnUse" cy="56.507" cx="137.02" gradientTransform="scale(1.0171 .98323)" r="450.93"><stop offset="0" stop-color="#ffd200"/><stop offset=".3" stop-color="#ffdc00"/><stop offset=".502" stop-color="#fa0"/><stop offset=".654" stop-color="#ff7f00"/><stop offset="1" stop-color="#f50"/></radialGradient><radialGradient id="prefix__b" fx="266.05" fy="225.86" gradientUnits="userSpaceOnUse" cy="226.78" cx="266.43" gradientTransform="matrix(.40328 0 0 .32926 26.26 -9.623)" r="52.141"><stop offset="0" stop-color="#fff"/><stop offset="1" stop-color="#fff" stop-opacity="0"/></radialGradient></defs><g transform="translate(-77.904 -12.34)" fill-rule="evenodd"><path d="M370.622 382.79c224.76 315.754 526.7-395.204 140.617-361.173-667.85 58.867-261.016-211.96-539.64 397.84-161.071 352.527 605.607 258.535 383.093-58.808-384.905-548.94 53.055-332.027-614.36-268.42-385.832 36.77 78.906 653.737 242.476 302.363C265.752-213.216 296.88 274.526-91.912-271.67c-224.76-315.755-526.7 395.204-140.617 361.173 667.85-58.867 261.016 211.96 539.64-397.841C468.181-660.864-298.497-566.872-75.984-249.53c384.906 548.941-53.054 332.027 614.36 268.421 385.833-36.77-78.906-653.738-242.476-302.364C12.957 324.335-18.169-163.406 370.622 382.79z" transform="rotate(-88.171 119.169 -25.436) scale(.11865)" fill="url(#prefix__a)" stroke="#a50" stroke-width="2.437" stroke-linecap="round" stroke-linejoin="round"/><circle cx="147.903" cy="78.165" r="16.761" fill="#ffff78" stroke="#a50" stroke-width=".793" stroke-linecap="round" stroke-linejoin="round" stroke-opacity=".431"/><path d="M131.372 80.938a16.761 16.761 0 016.458-16.17 16.761 16.761 0 0117.328-1.712l-7.255 15.11z" fill="url(#prefix__b)"/></g></svg>