<svg xmlns="http://www.w3.org/2000/svg" width="136.46" height="111.79" viewBox="0 0 174.669 143.092" xmlns:v="https://vecta.io/nano"><path d="M39.395 126.521l-2.963-11.638-.058 11.638zm8.266 3.879H62.36a3.83 3.83 0 0 0-3.568-2.417h-6.843c-1.774 0-3.275-1.306-3.509-3.061l-2.437-18.189c-.624-4.659.195-9.435 2.281-13.627a52.15 52.15 0 0 1-2.827-1.267c-1.111 1.988-4.815 7.856-5.381 8.695 0-.019 7.427 29.69 7.583 29.866zm43.278-26.649c-1.014-3.1-1.638-6.57-1.852-10.274a53.24 53.24 0 0 1-7.934 2.417c.624 2.105 1.482 3.918 2.534 5.322 1.248 1.696 2.671 2.671 4.23 2.944s2.905-.351 3.022-.409zm4.152 16.746l-.019-8.597c-.214-.273-.409-.565-.624-.858l-2.066 9.202 2.593.234zm0 9.533v-2.359c-.234-.058-7.33-.721-7.33-.721-1.014-.097-1.949-.604-2.534-1.443a3.49 3.49 0 0 1-.585-2.866l2.554-11.443s-1.365-.058-3.392-.955l-1.618 18.637zm7.077 5.985h15.615a3.83 3.83 0 0 0-3.568-2.417h-6.648a3.47 3.47 0 0 1-2.651-1.209 3.55 3.55 0 0 1-.838-2.788l1.54-11.638c-.136 0-2.476-.312-3.47-.643zm59.81-119.717h4.835c-1.15-2.183-3.431-3.684-6.082-3.684h-26.396a3.53 3.53 0 0 1-3.314-2.3 7 7 0 0 0-3.49-2.827 6.98 6.98 0 0 0 .702 4.835c1.189 2.164 3.49 3.548 5.965 3.607 1.949.039 3.509 1.657 3.47 3.607-.039 1.93-1.618 3.47-3.529 3.47h-.078c-1.17-.02-2.3-.195-3.392-.507V32.81c0 7.525-4.464 14.348-11.385 17.35a3.54 3.54 0 0 1-2.749.039 3.57 3.57 0 0 1-1.93-1.949c-.253-.624-15.128-27.702-15.128-27.702-2.105-3.821-4.776-6.004-7.369-6.004-2.573 0-5.264 2.183-7.369 6.004l-1.988 3.587c-1.891 3.431-5.381 5.498-9.299 5.498s-7.408-2.047-9.299-5.498l-1.969-3.607c-2.105-3.801-4.796-6.004-7.369-6.004s-5.264 2.183-7.369 6.004l-3.762 6.882c-3.08 5.595-6.979 10.878-11.56 15.693-4.874 5.127-8.987 13.276-11.248 22.36 0 .019-.019.058-.019.078s-.019.039-.019.058c-.916 3.821-.253 7.934 1.833 11.326 2.573 4.172 4.055 10.254 4.055 16.668 0 3.626-.468 7.213-1.365 10.371a16.34 16.34 0 0 0-.487 6.784l2.729 20.43c.02.156.039 4.835.039 4.835h15.615c-.312-.799-.897-1.482-1.677-1.93-.585-.331-1.228-.507-1.891-.507h-6.843c-.936 0-1.833-.37-2.515-1.033-.663-.663-1.033-1.579-1.033-2.515l.097-19.163c.02-4.035 1.072-8.012 3.061-11.541.312-.565 2.632-4.035 3.295-5.088 2.047-3.158 3.704-6.043 5.088-8.773.429-.858 1.209-1.501 2.125-1.794.936-.273 1.93-.175 2.768.312a42.5 42.5 0 0 0 2.261 1.209c2.866 1.423 5.887 2.573 8.968 3.392 3.957 1.053 8.051 1.579 12.204 1.579a47.03 47.03 0 0 0 20.08-4.445c.214-2.203.585-4.386 1.111-6.511.468-1.891 2.378-3.061 4.269-2.593s3.061 2.378 2.593 4.269c-.526 2.183-.877 4.464-1.053 6.765-.955 13.217 4.269 22.867 9.552 23.238 3.275.234 6.004-2.846 7.33-4.698 2.69-3.743 4.542-9.026 5.264-14.874.234-1.93 1.988-3.314 3.938-3.08.565.058 1.54.429 1.54.429 10.137 2.768 22.809-9.864 27.663-27.585 1.248-4.542 1.91-9.085 1.988-13.51V29.886a3.41 3.41 0 0 1 .604-1.969c.643-.936 1.716-1.56 2.944-1.56h3.743c2.632 0 4.932-1.501 6.082-3.685h-4.835a3.18 3.18 0 0 1-3.178-3.178c0-1.755 1.423-3.197 3.178-3.197zM160.73 5.556c7.681 0 13.939 6.258 13.939 13.939s-6.258 13.939-13.939 13.939h-.214v14.27c-.078 5.03-.838 10.157-2.242 15.284-2.807 10.274-7.954 19.3-14.465 25.402-5.439 5.108-11.365 7.778-17.097 7.778a17.09 17.09 0 0 1-2.008-.117c-1.131 5.498-3.178 10.469-5.907 14.29-1.735 2.417-3.685 4.289-5.77 5.576l-1.404 10.625h2.612c5.985 0 10.878 4.874 10.898 10.859 0 1.54-.585 2.963-1.657 4.035s-2.476 1.657-3.996 1.657H102.09c-3.509 0-6.394-2.593-6.901-5.965l-13.724-1.209c-3.84-.331-6.687-3.743-6.355-7.583l2.105-24.057c-1.306-2.066-2.359-4.523-3.1-7.272-1.638.156-3.295.234-4.932.234-4.757 0-9.474-.604-14.017-1.813-.039 0-.059-.019-.097-.019-1.813 3.119-2.534 6.804-2.066 10.371l2.027 15.128h3.743c5.985 0 10.878 4.874 10.898 10.859 0 1.54-.585 2.963-1.657 4.035a5.62 5.62 0 0 1-3.996 1.657H50.546c-.02 2.183-1.306 4.172-3.275 5.088a5.57 5.57 0 0 1-2.378.526h-17.37a7.01 7.01 0 0 1-6.999-6.999v-4.211l-2.71-20.197a23.87 23.87 0 0 1 .702-9.669c.721-2.534 1.111-5.459 1.111-8.441 0-5.069-1.111-9.903-3.002-12.945-2.281-3.685-3.392-7.973-3.275-12.223a6.32 6.32 0 0 0-2.885 5.303v10.995l3.197 9.182a3.57 3.57 0 0 1-.448 3.217 3.52 3.52 0 0 1-2.885 1.482H3.544a3.52 3.52 0 0 1-2.885-1.482c-.663-.936-.838-2.125-.468-3.217l3.197-9.182V73.691c0-6.726 5.01-12.321 11.502-13.256 2.69-9.007 6.921-16.804 12.087-22.224 4.172-4.367 7.7-9.163 10.488-14.231l3.782-6.882c4.64-8.402 10.469-9.65 13.549-9.65 1.54 0 3.762.312 6.199 1.677 2.417 1.365 5.049 3.782 7.369 7.973l1.988 3.607c.916 1.657 2.476 1.833 3.1 1.833s2.183-.175 3.1-1.833l1.988-3.587c4.64-8.402 10.488-9.65 13.549-9.65 3.08 0 8.929 1.248 13.549 9.65l13.685 24.797c2.671-2.222 4.269-5.537 4.269-9.104V18.014c-.585-.702-1.111-1.443-1.56-2.261-2.417-4.367-2.3-9.747.273-14.036.663-1.092 1.832-1.735 3.1-1.716 4.308.097 8.305 2.164 10.878 5.537h24.349a.26.26 0 0 0 .097.019z" fill="#633"/><path d="M166.812 16.298h-4.835a3.18 3.18 0 0 0-3.178 3.178 3.18 3.18 0 0 0 3.178 3.178h4.835c-1.15 2.183-3.431 3.685-6.082 3.685h-3.743c-1.228 0-2.3.624-2.944 1.56a3.61 3.61 0 0 0-.604 1.969v17.721c-.078 4.425-.741 8.968-1.988 13.51-4.835 17.721-17.506 30.353-27.644 27.585 0 0-.994-.37-1.54-.429-1.93-.234-3.704 1.15-3.938 3.08-.702 5.848-2.573 11.131-5.264 14.874-1.326 1.852-4.055 4.932-7.33 4.698-5.283-.39-10.508-10.02-9.552-23.238.175-2.3.526-4.581 1.053-6.765.468-1.891-.702-3.801-2.593-4.269s-3.801.702-4.269 2.593c-.507 2.105-.877 4.289-1.111 6.511a47.03 47.03 0 0 1-20.08 4.445c-4.133 0-8.246-.526-12.204-1.579-3.08-.819-6.102-1.949-8.968-3.392a36.07 36.07 0 0 1-2.261-1.209c-.838-.468-1.833-.585-2.768-.312a3.53 3.53 0 0 0-2.125 1.794c-1.384 2.729-3.041 5.595-5.088 8.773l-3.295 5.088c-1.988 3.509-3.041 7.505-3.061 11.541l-.097 19.163c0 .936.37 1.833 1.033 2.515.663.663 1.56 1.033 2.515 1.033h6.843c.663 0 1.326.175 1.891.507.78.429 1.345 1.131 1.677 1.93H27.659l-.039-4.835-2.729-20.43c-.312-2.261-.136-4.562.487-6.784.897-3.158 1.365-6.745 1.365-10.371 0-6.414-1.482-12.477-4.055-16.668-2.086-3.392-2.749-7.505-1.833-11.326 0-.019.019-.039.019-.058s.02-.058.02-.078c2.281-9.085 6.375-17.233 11.248-22.36 4.601-4.815 8.48-10.098 11.56-15.693l3.782-6.882c2.105-3.821 4.776-6.004 7.369-6.004 2.573 0 5.264 2.183 7.369 6.004l1.988 3.607c1.891 3.431 5.381 5.498 9.299 5.498s7.408-2.047 9.299-5.498l1.988-3.587c2.105-3.821 4.776-6.004 7.369-6.004 2.573 0 5.264 2.183 7.369 6.004l15.128 27.702a3.57 3.57 0 0 0 1.93 1.949 3.54 3.54 0 0 0 2.749-.039c6.921-3.002 11.385-9.806 11.385-17.35V22.536c1.092.292 2.222.468 3.392.507h.078c1.91 0 3.49-1.54 3.529-3.47.039-1.949-1.501-3.568-3.47-3.607-2.476-.059-4.776-1.443-5.965-3.607a6.98 6.98 0 0 1-.702-4.835c1.423.526 2.671 1.501 3.49 2.827.507 1.345 1.813 2.3 3.314 2.3h26.396c2.573-.039 4.874 1.462 6.024 3.646z" fill="#fc6"/><path d="M144.744 15.479c1.774 0 3.217 1.443 3.217 3.197a3.22 3.22 0 0 1-3.217 3.217 3.22 3.22 0 0 1-3.217-3.217c0-1.755 1.443-3.197 3.217-3.197z" fill="#633"/><path d="M117.783 136.015h-15.615l-.019-18.715c.994.331 3.334.643 3.47.643l-1.54 11.638c-.136 1.014.175 2.027.838 2.788s1.638 1.209 2.651 1.209h6.648c1.618.019 3.002 1.014 3.568 2.437zm-22.692-8.363v2.359l-12.945-1.15 1.618-18.637c2.047.897 3.392.955 3.392.955l-2.534 11.463c-.214.994 0 2.027.585 2.866.604.819 1.521 1.345 2.534 1.443.019 0 7.116.643 7.35.702zm-6.004-34.174c.214 3.704.858 7.174 1.852 10.274-.117.058-1.462.663-3.022.409s-2.983-1.228-4.23-2.944c-1.033-1.404-1.891-3.217-2.534-5.322 2.69-.604 5.361-1.404 7.934-2.417z" fill="#fc6"/><path d="M81.932 75.601c.526 1.891-.585 3.821-2.476 4.347-3.314.916-6.784 1.384-10.293 1.384a38.64 38.64 0 0 1-9.942-1.287c-3.158-.838-6.238-2.086-9.124-3.724a3.52 3.52 0 0 1 3.49-6.141c2.359 1.345 4.854 2.359 7.447 3.041 2.632.702 5.381 1.053 8.129 1.053 2.885 0 5.712-.37 8.422-1.131 1.891-.526 3.84.585 4.347 2.456z" fill="#633"/><path d="M62.36 130.401H47.661c-.136-.175-7.564-29.885-7.564-29.885.565-.838 4.269-6.687 5.381-8.695.936.448 1.871.858 2.827 1.267a23.63 23.63 0 0 0-2.281 13.627l2.437 18.189c.234 1.755 1.735 3.061 3.509 3.061h6.843c1.579 0 2.983 1.014 3.548 2.437z" fill="#fc6"/></svg>