<svg xmlns="http://www.w3.org/2000/svg" width="135.073" height="119.44" viewBox="0 0 172.894 152.883" xmlns:v="https://vecta.io/nano"><path d="M170.738 87.834c1.944 1.001 2.714 3.387 1.713 5.35a3.991 3.991 0 0 1-3.541 2.155c-.616 0-1.232-.135-1.809-.443L140.196 81.06 114.1 84.351v.616a40.05 40.05 0 0 1 3.888 5.793l30.176 10.084c1.617.539 2.714 2.059 2.714 3.772v35.565a3.96 3.96 0 0 1-7.929 0v-32.717l-21.035-7.024c1.001 3.676 1.54 7.583 1.54 11.624 0 9.969-3.291 19.572-9.257 27.02-7.024 8.776-17.128 13.799-27.713 13.799s-20.708-5.023-27.713-13.799c-5.966-7.467-9.257-17.051-9.257-27.02 0-3.984.52-7.852 1.501-11.509l-20.708 6.909v32.697a3.96 3.96 0 1 1-7.929 0v-35.565c0-1.713 1.097-3.214 2.714-3.772l29.791-9.95c1.155-2.098 2.502-4.08 3.964-5.927v-.616l-26.154-3.291L5.789 94.878c-.577.308-1.193.443-1.809.443a3.99 3.99 0 0 1-3.541-2.155c-1.001-1.944-.231-4.349 1.713-5.35l28.002-14.415a4 4 0 0 1 2.309-.404l26.346 3.349V72.65L40.642 60.699H3.98a3.96 3.96 0 1 1 0-7.929h37.874c.77 0 1.54.231 2.175.654l14.799 9.738v-4.619a19.96 19.96 0 0 1 .346-3.734L36.081 31.947c-.751-.751-1.174-1.771-1.174-2.829V3.964a3.96 3.96 0 1 1 7.929 0v23.517l19.649 19.438c1.636-2.329 3.734-4.311 6.158-5.774v-5.427c0-5.562 3.079-10.431 7.602-12.971v-5.485a3.96 3.96 0 1 1 7.929 0v3.56h4.523v-3.56a3.96 3.96 0 1 1 7.929 0v5.466c4.542 2.56 7.602 7.409 7.602 12.971v5.427c2.444 1.482 4.561 3.483 6.197 5.831l19.707-19.495V3.964a3.96 3.96 0 1 1 7.929 0v25.173c0 1.058-.423 2.078-1.174 2.829l-23.113 22.921c.212 1.193.346 2.425.346 3.676v4.58l14.761-9.699a4 4 0 0 1 2.175-.654h37.874a3.96 3.96 0 1 1 0 7.929h-36.7L114.1 72.631v3.714l26.308-3.349a4 4 0 0 1 2.309.404z" fill="#633"/><path d="M115.505 112.064c0 6.043-1.463 11.913-4.176 17.013a30.79 30.79 0 0 0-24.845-12.606 30.76 30.76 0 0 0-24.845 12.606c-2.733-5.1-4.195-10.95-4.195-17.013 0-18.129 13.029-32.871 29.041-32.871 15.993-.019 29.022 14.742 29.022 32.871zm-9.334-53.52V77.52c-5.716-3.984-12.471-6.293-19.707-6.293s-13.991 2.309-19.707 6.293V58.543A12.42 12.42 0 0 1 79.17 46.13h14.588c6.832.019 12.413 5.581 12.413 12.413zM86.464 124.4c8.295 0 15.877 4.484 19.88 11.605-5.504 5.504-12.028 8.93-19.919 8.93s-14.357-3.445-19.861-8.949c4.041-7.101 11.605-11.586 19.899-11.586zm9.873-88.7v2.675c-.847-.115-18.879-.115-19.726 0V35.7a6.96 6.96 0 0 1 6.947-6.947h5.85a6.98 6.98 0 0 1 6.928 6.947z" fill="#b2abac"/><path d="M86.464 85.525c-1.982 0-3.58 1.597-3.58 3.58s1.597 3.58 3.58 3.58c5.408 0 10.508 3.618 13.337 9.449.616 1.27 1.886 2.021 3.214 2.021.52 0 1.058-.115 1.559-.346 1.771-.866 2.521-3.002 1.655-4.773-4.022-8.333-11.586-13.51-19.765-13.51z" fill="#633"/></svg>