<?xml version="1.0" encoding="UTF-8"?>
<svg class="icon" width="141.7" height="79.932" version="1.1" viewBox="0 0 362.76 204.62" xmlns="http://www.w3.org/2000/svg"><path d="m55.716 38.638c-3.2299 0-5.8542-2.6243-5.8542-5.8542v-24.588c0-3.2299 2.6243-5.8542 5.8542-5.8542s5.8542 2.6243 5.8542 5.8542v24.588c0 3.2299-2.6243 5.8542-5.8542 5.8542z" fill="#a4a9ad" style="stroke-width:.40374"/><path d="m55.716 2.3013c-3.2299 0-5.8542 2.6243-5.8542 5.8542v10.295h11.708v-10.295c0-3.2299-2.6243-5.8542-5.8542-5.8542z" fill="" style="stroke-width:.40374"/><path d="m215.88 38.638c-3.2299 0-5.8542-2.6243-5.8542-5.8542v-24.588c0-3.2299 2.6243-5.8542 5.8542-5.8542s5.8542 2.6243 5.8542 5.8542v24.588c0 3.2299-2.5839 5.8542-5.8542 5.8542z" fill="#a4a9ad" style="stroke-width:.40374"/><path d="m215.88 2.3013c-3.2299 0-5.8542 2.6243-5.8542 5.8542v10.295h11.708v-10.295c0-3.2299-2.5839-5.8542-5.8542-5.8542z" fill="" style="stroke-width:.40374"/><path d="m231.14 11.708h-190.69c-3.2299 0-5.8542-2.6243-5.8542-5.8542s2.6243-5.8542 5.8542-5.8542h190.69c3.2299 0 5.8542 2.6243 5.8542 5.8542s-2.6243 5.8542-5.8542 5.8542z" fill="#a4a9ad" style="stroke-width:.40374"/><path d="m313.75 53.213h11.708v36.983h-11.708z" fill="#333e48" style="stroke-width:.40374"/><path d="m313.79 53.213v11.789c1.8572 0.64599 3.7952 0.96898 5.8542 0.96898s4.0374-0.36336 5.8542-0.96898v-11.789z" fill="" style="stroke-width:.40374"/><path d="m319.64 48.005m-11.991 0a11.991 11.991 0 1 0 23.982 0 11.991 11.991 0 1 0-23.982 0z" fill="#a4a9ad" style="stroke-width:.40374"/><path d="m338.7 88.742h-84.22l-8.1959-48.328c-1.2516-7.3885-8.3978-13.445-15.907-13.445h-183.46c-7.5096 0-14.656 6.0561-15.907 13.445l-18.895 111.39c-1.2516 7.3885 3.8355 13.445 11.345 13.445h315.24c7.5096 0 13.646-6.1369 13.646-13.646v-49.256c0-7.4692-6.1369-13.606-13.646-13.606z" fill="#0071ce" style="stroke-width:.40374"/><path d="m324.37 123.99h27.979v18.976h-27.979z" fill="#ffb819" style="stroke-width:.40374"/><path d="m328.81 142.96h-6.4195c-1.4938 0-2.7454-1.2112-2.7454-2.7051v-13.566c0-1.4938 1.2112-2.7051 2.7454-2.7051h6.4195z" fill="#fff" style="stroke-width:.40374"/><path d="m16.836 123.99-3.2299 18.976h24.346v-18.976z" fill="#ffb819" style="stroke-width:.40374"/><path d="m33.551 142.96h6.4195c1.4938 0 2.7051-1.2112 2.7051-2.7051v-13.566c0-1.4938-1.2112-2.7051-2.7051-2.7051h-6.4195z" fill="#fff" style="stroke-width:.40374"/><path d="m137.59 165.25c0-26.485-21.479-47.964-47.964-47.964s-47.964 21.479-47.964 47.964z" fill="" style="stroke-width:.40374"/><path d="m89.631 165.25m-39.365 0a39.365 39.365 0 1 0 78.73 0 39.365 39.365 0 1 0-78.73 0z" fill="#333e48" style="stroke-width:.40374"/><path d="m89.631 165.25m-19.945 0a19.945 19.945 0 1 0 39.89 0 19.945 19.945 0 1 0-39.89 0z" fill="#a4a9ad" style="stroke-width:.40374"/><path d="m310.8 165.25c0-26.485-21.479-47.964-47.964-47.964s-47.964 21.479-47.964 47.964z" fill="" style="stroke-width:.40374"/><path d="m262.84 165.25m-39.365 0a39.365 39.365 0 1 0 78.73 0 39.365 39.365 0 1 0-78.73 0z" fill="#333e48" style="stroke-width:.40374"/><path d="m262.84 165.25m-19.945 0a19.945 19.945 0 1 0 39.89 0 19.945 19.945 0 1 0-39.89 0z" fill="#a4a9ad" style="stroke-width:.40374"/><path d="m362.76 162.06c0 3.997-3.2703 7.2673-7.2673 7.2673h-16.352c-3.997 0-7.2673-3.2703-7.2673-7.2673v-11.789c0-3.997 3.2703-7.2673 7.2673-7.2673h16.352c3.997 0 7.2673 3.2703 7.2673 7.2673zm-331.88 0c0 3.997-3.2703 7.2673-7.2673 7.2673h-16.352c-3.997 0-7.2673-3.2703-7.2673-7.2673v-11.789c0-3.997 3.2703-7.2673 7.2673-7.2673h16.352c3.997 0 7.2673 3.2703 7.2673 7.2673z" fill="#a4a9ad" style="stroke-width:.40374"/><path d="m159.76 48.853c0-3.4318 2.8262-6.258 6.258-6.258h51.235c3.4318 0 6.258 2.8262 6.258 6.258v28.222c0 3.4318-2.8262 6.258-6.258 6.258h-51.275c-3.4318 0-6.258-2.8262-6.258-6.258v-28.222zm-104.49-0.12112c0.56524-3.3914 3.8759-6.1772 7.3077-6.1772h55.918c3.4318 0 6.258 2.8262 6.258 6.258v28.222c0 3.4318-2.8262 6.258-6.258 6.258h-62.822c-3.4318 0-5.7735-2.7858-5.2083-6.1772z" fill="#333e48" style="stroke-width:.40374"/><path d="m186.41 105.17h-21.196c-3.2299 0-5.8542-2.6243-5.8542-5.8542s2.6243-5.8542 5.8542-5.8542h21.196c3.2299 0 5.8542 2.6243 5.8542 5.8542s-2.6243 5.8542-5.8542 5.8542zm-114.02 0h-21.196c-3.2299 0-5.8542-2.6243-5.8542-5.8542s2.6243-5.8542 5.8542-5.8542h21.196c3.2299 0 5.8542 2.6243 5.8542 5.8542s-2.6243 5.8542-5.8542 5.8542z" fill="#00b3e3" style="stroke-width:.40374"/><path d="m217.25 42.595h-51.275c-3.4318 0-6.258 2.8262-6.258 6.258v6.9847c0-3.4318 2.8262-6.258 6.258-6.258h51.235c3.4318 0 6.258 2.8262 6.258 6.258v-6.9847c0-3.4722-2.7858-6.258-6.2176-6.258zm-98.795 0h-55.878c-3.4318 0-6.7021 2.7858-7.3077 6.1772l-1.1305 6.6617c0.72673-3.2299 3.9163-5.8139 7.227-5.8139h57.129c3.4318 0 6.258 2.8262 6.258 6.258v-6.9847c-0.0404-3.5126-2.8262-6.2984-6.2984-6.2984z" fill="" style="stroke-width:.40374"/></svg>
