<?xml version="1.0" encoding="UTF-8" standalone="no"?>
<!-- Uploaded to: SVG Repo, www.svgrepo.com, Generator: SVG Repo Mixer Tools -->

<svg
   width="141.70367"
   height="79.931595"
   viewBox="0 0 362.76141 204.62488"
   class="icon"
   version="1.1"
   id="svg48"
   xmlns="http://www.w3.org/2000/svg"
   xmlns:svg="http://www.w3.org/2000/svg">
  <defs
     id="defs52" />
  <path
     d="m 55.71628,38.63803 c -3.22993,0 -5.85425,-2.62432 -5.85425,-5.85425 V 8.19595 c 0,-3.22993 2.62432,-5.85425 5.85425,-5.85425 3.22993,0 5.85424,2.62432 5.85424,5.85425 v 24.58783 c 0,3.22993 -2.62431,5.85425 -5.85424,5.85425 z"
     fill="#a4a9ad"
     id="path2"
     style="stroke-width:0.403741" />
  <path
     d="m 55.71628,2.30132 c -3.22993,0 -5.85425,2.62432 -5.85425,5.85425 v 10.2954 H 61.57052 V 8.15557 c 0,-3.22993 -2.62431,-5.85425 -5.85424,-5.85425 z"
     fill=""
     id="path4"
     style="stroke-width:0.403741" />
  <path
     d="m 215.88039,38.63803 c -3.22993,0 -5.85425,-2.62432 -5.85425,-5.85425 V 8.19595 c 0,-3.22993 2.62432,-5.85425 5.85425,-5.85425 3.22993,0 5.85424,2.62432 5.85424,5.85425 v 24.58783 c 0,3.22993 -2.58394,5.85425 -5.85424,5.85425 z"
     fill="#a4a9ad"
     id="path6"
     style="stroke-width:0.403741" />
  <path
     d="m 215.88039,2.30132 c -3.22993,0 -5.85425,2.62432 -5.85425,5.85425 v 10.2954 h 11.70849 V 8.15557 c 0,-3.22993 -2.58394,-5.85425 -5.85424,-5.85425 z"
     fill=""
     id="path8"
     style="stroke-width:0.403741" />
  <path
     d="M 231.1418,11.70849 H 40.45486 c -3.22993,0 -5.854244,-2.62431 -5.854244,-5.85424 C 34.600616,2.62432 37.22493,0 40.45486,0 H 231.1418 c 3.22993,0 5.85425,2.62432 5.85425,5.85425 0,3.22993 -2.62432,5.85424 -5.85425,5.85424 z"
     fill="#a4a9ad"
     id="path10"
     style="stroke-width:0.403741" />
  <path
     d="m 313.74724,53.21308 h 11.70849 v 36.98269 h -11.70849 z"
     fill="#333e48"
     id="path12"
     style="stroke-width:0.403741" />
  <path
     d="m 313.78761,53.21308 v 11.78924 c 1.85721,0.64599 3.79517,0.96898 5.85425,0.96898 2.05908,0 4.03741,-0.36336 5.85425,-0.96898 V 53.21308 Z"
     fill=""
     id="path14"
     style="stroke-width:0.403741" />
  <path
     d="m 319.64186,48.00482 m -11.99111,0 a 11.991112,11.991112 0 1 0 23.98222,0 11.991112,11.991112 0 1 0 -23.98222,0 z"
     fill="#a4a9ad"
     id="path16"
     style="stroke-width:0.403741" />
  <path
     d="m 338.69844,88.7423 h -84.2204 L 246.2821,40.41449 C 245.0305,33.02603 237.88428,26.96991 230.37469,26.96991 H 46.91472 c -7.50958,0 -14.655803,6.05612 -15.9074,13.44458 L 12.112234,151.80667 c -1.251597,7.38846 3.835541,13.44458 11.345126,13.44458 h 315.24108 c 7.50959,0 13.64645,-6.13687 13.64645,-13.64645 v -49.25642 c 0,-7.46921 -6.13686,-13.60608 -13.64645,-13.60608 z"
     fill="#0071ce"
     id="path18"
     style="stroke-width:0.403741" />
  <path
     d="m 324.36563,123.9889 h 27.97926 v 18.97584 h -27.97926 z"
     fill="#ffb819"
     id="path20"
     style="stroke-width:0.403741" />
  <path
     d="m 328.80678,142.96474 h -6.41948 c -1.49384,0 -2.74544,-1.21123 -2.74544,-2.70507 v -13.5657 c 0,-1.49384 1.21122,-2.70507 2.74544,-2.70507 h 6.41948 z"
     fill="#ffffff"
     id="path22"
     style="stroke-width:0.403741" />
  <path
     d="m 16.836006,123.9889 -3.22993,18.97584 H 37.95167 V 123.9889 Z"
     fill="#ffb819"
     id="path24"
     style="stroke-width:0.403741" />
  <path
     d="m 33.550889,142.96474 h 6.419481 c 1.49385,0 2.70507,-1.21123 2.70507,-2.70507 v -13.5657 c 0,-1.49384 -1.21122,-2.70507 -2.70507,-2.70507 h -6.419481 z"
     fill="#ffffff"
     id="path26"
     style="stroke-width:0.403741" />
  <path
     d="m 137.59498,165.25125 c 0,-26.48542 -21.47903,-47.96445 -47.96445,-47.96445 -26.48542,0 -47.96444,21.47903 -47.96444,47.96445 z"
     fill=""
     id="path28"
     style="stroke-width:0.403741" />
  <path
     d="m 89.63053,165.25125 m -39.36476,0 a 39.364761,39.364761 0 1 0 78.72952,0 39.364761,39.364761 0 1 0 -78.72952,0 z"
     fill="#333e48"
     id="path30"
     style="stroke-width:0.403741" />
  <path
     d="m 89.63053,165.25125 m -19.94481,0 a 19.944815,19.944815 0 1 0 39.88963,0 19.944815,19.944815 0 1 0 -39.88963,0 z"
     fill="#a4a9ad"
     id="path32"
     style="stroke-width:0.403741" />
  <path
     d="m 310.79993,165.25125 c 0,-26.48542 -21.47903,-47.96445 -47.96445,-47.96445 -26.48542,0 -47.96445,21.47903 -47.96445,47.96445 z"
     fill=""
     id="path34"
     style="stroke-width:0.403741" />
  <path
     d="m 262.83548,165.25125 m -39.36476,0 a 39.364761,39.364761 0 1 0 78.72952,0 39.364761,39.364761 0 1 0 -78.72952,0 z"
     fill="#333e48"
     id="path36"
     style="stroke-width:0.403741" />
  <path
     d="m 262.83548,165.25125 m -19.94481,0 a 19.944812,19.944812 0 1 0 39.88962,0 19.944812,19.944812 0 1 0 -39.88962,0 z"
     fill="#a4a9ad"
     id="path38"
     style="stroke-width:0.403741" />
  <path
     d="m 362.76141,162.06169 c 0,3.99704 -3.2703,7.26734 -7.26734,7.26734 h -16.35151 c -3.99704,0 -7.26734,-3.2703 -7.26734,-7.26734 v -11.78924 c 0,-3.99704 3.2703,-7.26734 7.26734,-7.26734 h 16.35151 c 3.99704,0 7.26734,3.2703 7.26734,7.26734 z m -331.875213,0 c 0,3.99704 -3.270303,7.26734 -7.26734,7.26734 H 7.267341 C 3.270303,169.32903 0,166.05873 0,162.06169 v -11.78924 c 0,-3.99704 3.270303,-7.26734 7.267341,-7.26734 h 16.351516 c 3.997037,0 7.26734,3.2703 7.26734,7.26734 z"
     fill="#a4a9ad"
     id="path40"
     style="stroke-width:0.403741" />
  <path
     d="m 159.76037,48.85268 c 0,-3.4318 2.82619,-6.25799 6.25799,-6.25799 h 51.23475 c 3.4318,0 6.25798,2.82619 6.25798,6.25799 v 28.2215 c 0,3.4318 -2.82618,6.25799 -6.25798,6.25799 h -51.27513 c -3.4318,0 -6.25799,-2.82619 -6.25799,-6.25799 V 48.85268 Z M 55.27216,48.73156 c 0.56524,-3.39143 3.87592,-6.17724 7.30772,-6.17724 h 55.91814 c 3.4318,0 6.25799,2.82618 6.25799,6.25798 v 28.22151 c 0,3.4318 -2.82619,6.25799 -6.25799,6.25799 H 55.6759 c -3.4318,0 -5.7735,-2.78582 -5.20826,-6.17724 z"
     fill="#333e48"
     id="path42"
     style="stroke-width:0.403741" />
  <path
     d="m 186.40728,105.17457 h -21.19641 c -3.22992,0 -5.85424,-2.62432 -5.85424,-5.85425 0,-3.22993 2.62432,-5.85425 5.85424,-5.85425 h 21.19641 c 3.22993,0 5.85425,2.62432 5.85425,5.85425 0,3.22993 -2.62432,5.85425 -5.85425,5.85425 z m -114.01649,0 H 51.19438 c -3.22993,0 -5.85425,-2.62432 -5.85425,-5.85425 0,-3.22993 2.62432,-5.85425 5.85425,-5.85425 h 21.19641 c 3.22993,0 5.85424,2.62432 5.85424,5.85425 0,3.22993 -2.62431,5.85425 -5.85424,5.85425 z"
     fill="#00b3e3"
     id="path44"
     style="stroke-width:0.403741" />
  <path
     d="m 217.25311,42.59469 h -51.27513 c -3.4318,0 -6.25799,2.82619 -6.25799,6.25799 v 6.98472 c 0,-3.4318 2.82619,-6.25799 6.25799,-6.25799 h 51.23475 c 3.4318,0 6.25799,2.82619 6.25799,6.25799 v -6.98472 c 0,-3.47218 -2.78581,-6.25799 -6.21761,-6.25799 z m -98.79546,0 H 62.57988 c -3.4318,0 -6.70211,2.78581 -7.30772,6.17724 l -1.13047,6.66173 c 0.72673,-3.22993 3.91629,-5.81387 7.22696,-5.81387 h 57.12937 c 3.4318,0 6.25799,2.82618 6.25799,6.25798 v -6.98472 c -0.0404,-3.51255 -2.82619,-6.29836 -6.29836,-6.29836 z"
     fill=""
     id="path46"
     style="stroke-width:0.403741" />
</svg>
