<svg xmlns="http://www.w3.org/2000/svg" width="140.502" height="140.502" viewBox="0 0 13.002 13.002" xmlns:v="https://vecta.io/nano"><g transform="matrix(.175627 0 0 .175627 -63.038588 -74.877269)"><circle cx="395.951" cy="463.359" r="37.017" fill="#bce1d6"/><path d="M395.926 500.376a36.9 36.9 0 0 0 24.739-64.276 36.764 36.764 0 0 1 9.523 24.739c0 20.379-19.2 39.153-39.582 39.153" opacity=".12" style="mix-blend-mode:darken"/><path d="M395.832 426.5a36.9 36.9 0 0 0-24.74 64.273 36.762 36.762 0 0 1-9.523-24.739c0-20.378 19.2-39.153 39.583-39.153" fill="#f0f5f9" opacity=".2"/><g fill="none" stroke="#312449" stroke-linecap="round" stroke-miterlimit="10" stroke-width="1.377"><path d="M383.04 469.519l5.344 5.344"/><path d="M388.384 469.519l-5.344 5.344m20.476-5.344l5.344 5.344"/><path d="M408.86 469.519l-5.344 5.344"/></g><circle cx="395.95" cy="486.382" r="3.242" fill="#312449"/></g></svg>