<svg xmlns="http://www.w3.org/2000/svg" width="137.553" height="136.806" viewBox="0 0 11.004 10.944" xmlns:v="https://vecta.io/nano"><path d="M2.564.784A5.872 5.872 0 0 1 5.045.006c.937-.046 1.797.174 2.99.745s1.852 1.116 2.357 2.053.778 1.627.503 2.847-.359 2.445-.849 3.292-1.308 1.433-2.52 1.738-2.937.503-4.425-.318S.564 8.323.179 6.636.11 4.072.399 3.28A5.213 5.213 0 0 1 2.564.784z" fill="#1d1d1b"/><path d="M2.977.91A5.038 5.038 0 0 1 4.672.337c.882-.104 2.309.291 2.459.359s.276.11.22.152-.558.481-.736.509-.798-.123-1.268-.104-.785.11-1.012.11-.551-.249-.772-.269-.69-.13-.587-.185z" fill="#4eae4d"/><path d="M2.542 1.254a1.283 1.283 0 0 1 .917.075c.357.194.318.276.805.269s.725-.088.869-.055.752.298 1.29.194a2.298 2.298 0 0 0 .944-.386c.159-.104.254-.276.351-.262s.972.531.957.587a.997.997 0 0 1-.377.331 1.638 1.638 0 0 0-.615.763c-.11.324-.172 1.297-.026 1.394s.516-.042.661.068.179.454.421.483.344-.152.564 0 .22.267.564.276.661-.071.681 0a.545.545 0 0 1-.026.315c-.035.022-1.2.159-1.475.174s-.22.075-.373 0-.392-.359-.747-.415-1.44-.123-1.654-.123-.276 0-.298.104.022 1.142-.088 1.482-.035.895.364 1.054.814.24.869.386.249 1.102.421 1.427.412.695.331.763a4.478 4.478 0 0 1-1.323.34 5.213 5.213 0 0 1-1.274 0L4.95 9.053a1.03 1.03 0 0 1-.09-.516c.029-.09.516-1.074.454-1.323s-.159-.503-.386-.564-.606 0-1.219 0a6.139 6.139 0 0 1-1.177-.097c-.123-.026-.194 0-.249-.062s-.503-.882-.441-.957.69-.256.717-.401-.013-.496.146-.509.853.084 1.074-.033.249-.386.256-.622-.082-.75-.185-.847-1.102-.399-1.482-.6-.699-.357-.657-.49a2.745 2.745 0 0 1 .833-.778z" fill="#85bfe9"/><path d="M2.963 1.724c.119-.015.13.077.088.159s0 .379.132.373a12.251 12.251 0 0 1 1.411-.234 5.817 5.817 0 0 1 1.764.364c.165.09.243.441.256.545a6.491 6.491 0 0 1-.606 1.219c-.062.033-.703-.22-1.164-.441s-.661-.324-.681-.415a1.374 1.374 0 0 0-.11-.373c-.042-.02-.661-.062-.959-.24s-.564-.47-.509-.593a.922.922 0 0 1 .379-.364z" fill="#1d1d1b"/><path d="M3.817 2.356a4.586 4.586 0 0 1 1.599.068c.703.139.814.256.794.428s-.282.882-.379.847a9.212 9.212 0 0 1-1.171-.481c-.049-.071-.064-.415-.269-.476l-.778-.249c-.143-.055-.11-.11-.077-.11s.282-.026.282-.026zm5.12-.586c.046-.015.648.236 1.061 1.021s.545 1.751.496 1.839-.198.097-.337.055-.686-.344-.805-.344-.311.104-.392 0-.331-.412-.58-.412-.302.042-.344-.013-.179-1.219.082-1.433l.593-.441c.104-.09.165-.249.227-.271zM6.319 5.252c.079 0 1.261-.088 1.495.139s.428.474.626.467l2.026-.095c0 .071-.207 1.654-.525 2.459a3.508 3.508 0 0 1-1.219 1.557c-.254.146-.516.201-.536.159a4.811 4.811 0 0 1-.505-1.308c-.15-.71-.192-1.041-.426-1.102s-.814-.198-.924-.337a.882.882 0 0 1-.123-.412l.062-1.041c0-.185.007-.485.049-.485zm-4.03 1.589a2.809 2.809 0 0 0 1.067.201c.73.013 1.446-.068 1.524.02s.062.392-.097.684a4.714 4.714 0 0 0-.262.571 5.768 5.768 0 0 0-.697-.551.13.13 0 0 0-.075.152c.029.062.661.49.69.545a2.15 2.15 0 0 1-.022.386 5.68 5.68 0 0 0-.661-.525c-.082-.013-.137.187-.11.22s.778.551.882.642a1.336 1.336 0 0 1 .185.558c-.02 0-.86-.681-.908-.69s-.062.22-.062.22l1.025.759a1.431 1.431 0 0 1 .097.415 7.182 7.182 0 0 1-.792-.201l-.518-.179c0-.02-.258-.833-.62-1.186a2.847 2.847 0 0 1-.52-.584 6.855 6.855 0 0 1-.077-.82c-.009-.187-.09-.635-.049-.635z" fill="#4eae4d"/><path d="M.765 6.883c.042-.082.564.055.814.152s.331.22.337.412-.029 1.028.143 1.18a2.362 2.362 0 0 1 .677.723 1.601 1.601 0 0 1 .22.483 4.443 4.443 0 0 1-1.303-1.213C.95 7.71.745 6.925.765 6.883z" fill="#85bfe9"/><path d="M.564 6.394a3.894 3.894 0 0 1-.026-2.128c.302-1.255.882-1.923.931-1.916s1.191.661 1.654.882.49.22.523.318a2.234 2.234 0 0 1-.042.736c-.04.02-.867-.02-1.102 0s-.306.351-.289.483.029.192-.026.234-.794.24-.833.441.523 1.184.441 1.213S.785 6.621.564 6.394z" fill="#4eae4d"/><g fill="#1d1d1b"><path d="M.95 3.968a4.21 4.21 0 0 1 .256-.805c.11-.165.159-.201.207-.187s.185.077.172.117-.249.496-.311.697 0 .201-.088.22-.207.007-.236-.042zm6.315-2.114c.035-.031.558-.159.593-.11s.075.097.04.123a2.59 2.59 0 0 1-.578.207c-.044-.022-.099-.187-.055-.22zm-.339 1.618c.033.035.324.503.289.545s0 .104-.075.068c-.148-.136-.263-.303-.34-.49.024-.055.126-.123.126-.123zm-.322.318c.143.139.27.294.379.461 0 .042 0 .104-.068.084a1.78 1.78 0 0 1-.41-.406c0-.035.099-.146.099-.139zm2.719-1.041a1.57 1.57 0 0 1 .551.269c0 .042.022.152-.033.13l-.58-.247c-.02-.026.055-.146.062-.152z"/><path d="M9.274 3.267c.018-.024.882.481.882.558s.077.13-.013.117a6.65 6.65 0 0 1-.937-.476c-.026-.042.044-.165.068-.198z"/><path d="M9.193 3.708c.376.153.733.347 1.067.578.013.062.062.13-.026.123a8.95 8.95 0 0 1-1.089-.523c-.02-.029.02-.165.049-.179zM9.4 6.251a2.88 2.88 0 0 1 .639.613c-.02.055 0 .082-.062.062-.247-.178-.478-.379-.688-.6.013-.035.075-.062.11-.075zm-.346.418c.265.212.512.445.739.697 0 .055-.029.104-.055.097a9.2 9.2 0 0 1-.759-.661 1.07 1.07 0 0 1 .075-.132z"/><path d="M8.833 7.117a5.15 5.15 0 0 1 .739.732c-.015.055.013.088-.055.082-.273-.216-.533-.448-.778-.695.027-.043.059-.083.095-.119z"/><path d="M8.661 7.483a6.42 6.42 0 0 1 .752.723c0 .055-.022.09-.049.068-.295-.211-.577-.439-.847-.681.025-.059.08-.101.143-.11zm-.137.662a3.53 3.53 0 0 1 .675.6c0 .049-.035.082-.055.075-.245-.169-.48-.354-.703-.551-.007-.042.068-.117.084-.123z"/><path d="M8.368 8.544c.037 0 .717.593.661.648s-.026.082-.082.062a4.91 4.91 0 0 1-.69-.593c.024-.033.073-.117.11-.117zm-2.165-.552c.02-.031.289.068.282.132s0 .075-.035.075a1.1 1.1 0 0 1-.337-.097c0-.026.075-.088.09-.11zm-.45.849c.082-.035.174-.035.256 0 .104.049.256.22.392.243s.243-.062.276-.042.052.065.035.104c-.022.035-.035.068-.09.082a.44.44 0 0 1-.331-.033C6.163 9.108 6.083 9 5.942 9s-.126.026-.152 0-.093-.112-.037-.159zM4.178 7.269c.055.035.454.386.441.441s-.042.11-.084.097a2.22 2.22 0 0 1-.474-.401c-.002-.053.117-.137.117-.137zm-.394-2.143c.026 0 .62.924.571.972s-.075.097-.104.068a9.89 9.89 0 0 1-.626-.957.29.29 0 0 1 .159-.084zm.227-.095c0-.026.13-.084.172-.042a2.64 2.64 0 0 1 .302.6c-.02.04 0 .104-.055.062a3.88 3.88 0 0 1-.419-.62zm1.213-.064c.018-.024.22-.22.282-.22s.22 0 .201.049-.311.421-.366.386a.37.37 0 0 1-.117-.214z"/></g></svg>