<svg version="1.1" xmlns="http://www.w3.org/2000/svg" xmlns:xlink="http://www.w3.org/1999/xlink" width="139.99976" height="137.08459" viewBox="0,0,139.99976,137.08459"><defs><linearGradient x1="288.35612" y1="114.6255" x2="275.11221" y2="151.56329" gradientUnits="userSpaceOnUse" id="color-1"><stop offset="0" stop-color="#d19b75"/><stop offset="1" stop-color="#e8cdba" stop-opacity="0"/></linearGradient></defs><g transform="translate(-169.94746,-111.51036)"><g data-paper-data="{&quot;isPaintingLayer&quot;:true}" stroke-linecap="butt" stroke-linejoin="miter" stroke-miterlimit="10" stroke-dasharray="" stroke-dashoffset="0" style="mix-blend-mode: normal"><path d="M271.83046,189.907c0.20804,12.2032 0.31614,22.00777 4.76869,33.27273c2.56995,6.50239 8.75008,2.20894 11.03244,6.16585c2.27217,3.93856 -2.1355,3.36542 -4.86455,2.75964c3.77539,0.21825 7.46715,0.7302 6.34942,3.6938c-2.0886,5.53968 -7.1714,2.65154 -10.38996,1.98866c3.5551,1.59296 7.97501,0.57722 5.8701,4.10988c-2.58423,4.33629 -5.67226,1.21767 -8.17898,0.29983c2.40474,1.10345 5.1807,2.7678 0.91376,4.5117c-2.41901,0.98922 -4.26489,0.44668 -5.32551,-1.80305c0.23252,1.31761 0.9056,3.38377 -1.84996,3.56326c-4.08133,0.26719 -5.80687,-2.14775 -7.63439,-4.34445c-6.65536,-8.00968 -8.75416,-15.69303 -11.33431,-23.03575c-7.06126,6.01491 -12.75187,8.11983 -20.8819,6.13117c0.28555,9.02135 -4.16087,13.38824 -10.89986,15.12397c-4.63408,1.1932 -10.1248,0.97699 -15.20964,-0.0265c-7.0429,-1.39104 -10.60616,-8.50532 -12.40512,-12.99254c1.68474,4.70546 7.75065,9.39868 0.6588,10.77544c-4.81968,0.9362 -6.09854,0.0612 -5.45809,-4.2241c-0.13666,2.56587 0.89744,4.77685 -2.83103,4.43011c-2.3823,-0.22232 -3.21448,-1.14016 -2.62706,-3.62241c-1.07897,2.25789 -2.74536,2.26808 -3.68156,1.81324c-2.94321,-1.43183 -1.91727,-2.64542 -2.22729,-4.95838c-0.9362,2.24973 -1.92951,2.17223 -2.93302,1.65008c-2.87997,-1.50118 -2.97788,-7.40392 -2.2742,-11.03856c1.39512,-7.1918 6.73491,-13.42087 14.36522,-13.45963c3.2614,3.50615 6.25764,8.90102 11.52196,8.40334c1.65415,5.44382 4.55249,6.53503 7.22035,8.42578c-3.3695,-2.67194 -6.19645,-5.67021 -6.92052,-9.92899c-6.20664,2.11919 -10.90599,-3.85697 -12.03595,-8.12391c-2.06004,-7.78125 -0.37937,-18.36497 6.62069,-24.07394c4.47498,-3.64893 14.1837,-7.11428 25.27529,-2.40678c12.78246,3.85901 21.53662,0.5915 27.38224,-7.82204c10.42259,-4.57901 24.42476,1.7337 27.98394,14.74256z" data-paper-data="{&quot;index&quot;:null}" fill="#000000" fill-rule="evenodd" stroke="#000000" stroke-width="0.21063"/><path d="M219.40546,176.79819c2.91465,-4.16495 7.46918,-3.25731 12.22359,0c1.01371,7.46511 -4.98897,11.32412 -10.72241,12.31538c-2.8861,-3.20224 -4.97878,-7.34272 -1.50118,-12.31538z" data-paper-data="{&quot;index&quot;:null}" fill="#000000" fill-rule="evenodd" stroke="none" stroke-width="0.20397"/><path d="M269.7439,190.2517c0.20192,11.81362 2.80859,23.02555 6.70227,34.09063c1.78469,5.06852 7.99949,1.79897 10.4899,4.66263c2.92689,3.36542 -1.80101,3.7142 -4.66263,3.78762c3.65709,0.21009 7.57525,0.12442 6.41061,2.91262c-2.17426,5.21333 -5.52744,2.13347 -8.45025,2.33131c2.64134,1.26662 5.38466,0.74447 4.07929,3.49596c-2.09268,4.41787 -5.58863,0.9056 -8.01785,0.0183c1.79489,1.60316 4.70954,2.83715 0.76487,4.92983c-2.53528,1.34412 -4.27102,-0.33043 -5.51112,-2.44146c-0.01836,1.56441 1.58277,3.08802 -0.78322,3.94671c-3.51839,1.27886 -6.3535,-2.35171 -8.12391,-4.47906c-6.44528,-7.75677 -8.46452,-15.26063 -10.96309,-22.37083c-6.83689,5.82523 -14.27344,7.17139 -22.14443,5.24597c0.87501,8.93568 -3.56122,13.52285 -10.4899,15.44215c-3.74479,1.03818 -9.93511,0.68125 -14.85882,-0.29166c-6.82057,-1.34617 -10.20434,-8.7664 -11.94824,-13.11085c0.87909,4.69323 6.57786,10.02894 -0.28963,11.36287c-4.66875,0.90764 -4.61572,-1.07693 -4.9543,-4.95226c-0.6792,2.41494 1.33393,6.01899 -3.20428,4.95226c-2.25789,-0.53031 -2.43126,-1.63784 -1.75002,-4.37096c-1.68067,2.69233 -1.96826,3.0717 -3.90796,2.47001c-3.31646,-1.03206 -1.91115,-3.14309 -2.21098,-5.38263c-0.70775,2.84123 -2.27828,2.92486 -3.27363,2.31296c-2.8657,-1.76021 -2.38026,-7.24686 -1.67863,-10.76321c1.68067,-8.42373 6.98987,-12.52546 14.37951,-12.56421c2.88405,3.25935 3.83249,4.56268 10.98757,6.4106c1.60112,5.27249 2.62502,5.50501 7.26725,8.7766c-3.81209,-3.06763 -6.00063,-5.49073 -6.70227,-9.61693c-5.18682,0.47728 -10.56129,-3.73459 -11.65454,-7.86692c-1.99477,-7.53241 -0.36713,-17.78163 6.41061,-23.30906c4.33221,-3.53471 13.73497,-6.89197 24.47575,-2.33132c12.37657,3.73459 20.85537,0.57314 26.51539,-7.57524c10.09217,-4.43419 23.65173,1.67862 27.09669,14.27752z" data-paper-data="{&quot;index&quot;:null}" fill="#e8cdba" fill-rule="evenodd" stroke="#000000" stroke-width="0.20397"/><path d="M219.81339,177.28567c2.63522,-3.73663 6.75122,-2.92077 11.05284,0c0.9158,6.70023 -4.5117,10.16151 -9.69444,11.0508c-2.61075,-2.87182 -4.50354,-6.58806 -1.3584,-11.0508z" data-paper-data="{&quot;index&quot;:null}" fill="#ffffff" fill-rule="evenodd" stroke="none" stroke-width="0.20397"/><path d="M223.20124,210.54617c-8.42986,-3.23896 -25.48129,-7.28154 -26.58474,7.45082c-13.02518,-1.67454 -12.06247,-11.18337 -12.0849,-20.13946c6.49015,-24.72866 26.14825,-16.82911 41.28854,-13.49429c-4.18943,6.68596 -5.4071,15.20148 -2.6189,26.18293z" data-paper-data="{&quot;index&quot;:null}" fill="#000000" fill-rule="evenodd" stroke="#000000" stroke-width="0.21188"/><path d="M221.77757,208.95525c-8.04233,-3.08803 -24.69195,-6.16789 -25.74441,7.88323c-12.22972,-2.37211 -10.72854,-10.47358 -10.75097,-19.01562c6.19032,-23.58442 24.94078,-16.04997 39.37943,-12.87016c-3.99566,6.37797 -5.54375,13.53101 -2.88405,24.00255z" data-paper-data="{&quot;index&quot;:null}" fill="#ffffff" fill-rule="evenodd" stroke="none" stroke-width="0.20397"/><path d="M270.9269,189.6602l5.69061,14.20613c-7.10408,3.28995 -13.87775,5.19498 -25.02441,7.33457c-0.11422,2.88609 -0.61189,5.00529 0.81382,10.97329c-5.66613,4.52189 -12.33577,7.74045 -23.37026,5.28472c-9.31914,-13.90834 -13.48409,-33.04226 -11.80342,-44.50507c13.79412,4.19963 18.45471,-1.1218 25.64038,-7.13876c10.084,-3.8692 19.58467,-3.28383 28.05328,13.84512z" data-paper-data="{&quot;index&quot;:null}" fill="#000000" fill-rule="evenodd" stroke="none" stroke-width="0.20397"/><path d="M270.15592,190.02937l5.42954,13.18427c-11.20378,5.50093 -21.25923,5.9109 -29.3913,7.94034c-3.19612,-6.12505 -2.92485,-25.37319 -0.69756,-25.01829c-5.01548,3.48372 -2.04576,19.16247 -0.48543,25.97897c4.50762,-0.48544 8.65422,-1.03614 5.94965,-0.75671c-0.11014,2.75148 -0.97291,4.58104 0.38753,10.27573c-5.40506,4.31385 -11.18542,6.80222 -21.71407,4.45867c-8.89081,-13.2679 -13.23526,-31.52476 -11.6321,-42.46134c13.16183,4.00586 19.08701,-1.80917 25.2039,-7.3672c9.62101,-3.69176 18.8708,-2.57608 26.94984,13.76556z" data-paper-data="{&quot;index&quot;:null}" fill="#87cdde" fill-rule="evenodd" stroke="#000000" stroke-width="0.20397"/><path d="M215.01002,202.86894c-1.67047,-10.59188 1.08101,-17.14322 8.98872,-18.78717c8.80923,13.20262 0.00816,19.16451 -8.98872,18.78717z" data-paper-data="{&quot;index&quot;:null}" fill="#000000" fill-rule="evenodd" stroke="#000000" stroke-width="0.22224"/><path d="M215.54849,201.90827c-1.54809,-9.61897 1.00146,-15.56657 8.33603,-17.06164c8.16878,11.99108 0.00816,17.40634 -8.33603,17.06164z" data-paper-data="{&quot;index&quot;:null}" fill="#fffffe" fill-rule="evenodd" stroke="none" stroke-width="0.20397"/><g data-paper-data="{&quot;index&quot;:null}" fill-rule="nonzero" stroke="none" stroke-width="1"><path d="M265.08396,189.87897c-1.4776,-0.42318 -2.93983,-0.9134 -4.36915,-1.48966c-6.87064,-2.58268 -12.23936,-8.04987 -15.37641,-14.14825c-4.5949,-8.63599 -5.05402,-18.41173 -2.88229,-27.17764c1.07348,-1.51814 -1.25442,-1.87926 -1.75179,-3.26803c-0.9239,-2.36761 -0.27038,-4.88181 0.69377,-7.00006c0.7699,-2.1473 3.77904,-1.62991 5.67287,-0.83631c1.59897,-2.67289 3.51254,-5.17052 5.72182,-7.42116c5.80317,-5.99168 14.03511,-10.28407 23.223,-10.54753c1.78057,-0.40481 4.35459,0.69993 5.66587,-0.02154c1.82232,-1.28359 -0.90189,-2.60865 0.26082,-4.01108c1.70802,-0.55965 2.85683,-3.58582 4.94512,-1.98515c1.85917,1.3585 0.63896,3.17528 -1.20975,3.36001c0.43132,0.85894 0.17345,2.00302 -0.54603,2.79693c-0.4047,1.38483 2.0225,1.54897 2.9638,2.22444c4.97978,2.01403 9.27129,5.50101 12.2854,9.70145c6.17435,8.26488 7.81386,18.51156 6.41612,27.76396c1.04975,1.11233 3.56821,2.56368 3.09046,4.67646c-0.13017,1.60221 -0.60028,3.31913 -1.69291,4.50701c-0.97301,1.8103 -3.41223,1.06904 -4.88588,2.04951c-3.21106,6.84776 -8.29182,12.93728 -15.10701,16.94389c-6.56225,3.88668 -14.94699,5.91621 -23.11781,3.88277z" fill="#e8cdba"/><path d="M265.08396,189.87897c-1.4776,-0.42318 -2.93983,-0.9134 -4.36915,-1.48966c-6.87064,-2.58268 -12.23936,-8.04987 -15.37641,-14.14825c-4.5949,-8.63599 -5.05402,-18.41173 -2.88229,-27.17764c1.07348,-1.51814 -1.25442,-1.87926 -1.75179,-3.26803c-0.9239,-2.36761 -0.27038,-4.88181 0.69377,-7.00006c0.7699,-2.1473 3.77904,-1.62991 5.67287,-0.83631c1.59897,-2.67289 3.51254,-5.17052 5.72182,-7.42116c5.80317,-5.99168 14.03511,-10.28407 23.223,-10.54753c1.78057,-0.40481 4.35459,0.69993 5.66587,-0.02154c1.82232,-1.28359 -0.90189,-2.60865 0.26082,-4.01108c1.70802,-0.55965 2.85683,-3.58582 4.94512,-1.98515c1.85917,1.3585 0.63896,3.17528 -1.20975,3.36001c0.43132,0.85894 0.17345,2.00302 -0.54603,2.79693c-0.4047,1.38483 2.0225,1.54897 2.9638,2.22444c4.97978,2.01403 9.27129,5.50101 12.2854,9.70145c6.17435,8.26488 7.81386,18.51156 6.41612,27.76396c1.04975,1.11233 3.56821,2.56368 3.09046,4.67646c-0.13017,1.60221 -0.60028,3.31913 -1.69291,4.50701c-0.97301,1.8103 -3.41223,1.06904 -4.88588,2.04951c-3.21106,6.84776 -8.29182,12.93728 -15.10701,16.94389c-6.56225,3.88668 -14.94699,5.91621 -23.11781,3.88277z" fill="url(#color-1)"/><path d="M265.08396,189.87897c-1.4776,-0.42318 -2.93983,-0.9134 -4.36915,-1.48966c-6.87064,-2.58268 -12.23936,-8.04987 -15.37641,-14.14825c-4.5949,-8.63599 -5.05402,-18.41173 -2.88229,-27.17764c1.07348,-1.51814 -1.25442,-1.87926 -1.75179,-3.26803c-0.9239,-2.36761 -0.27038,-4.88181 0.69377,-7.00006c0.7699,-2.1473 3.77904,-1.62991 5.67287,-0.83631c1.59897,-2.67289 3.51254,-5.17052 5.72182,-7.42116c5.80317,-5.99168 14.03511,-10.28407 23.223,-10.54753c1.78057,-0.40481 4.35459,0.69993 5.66587,-0.02154c1.82232,-1.28359 -0.90189,-2.60865 0.26082,-4.01108c1.70802,-0.55965 2.85683,-3.58582 4.94512,-1.98515c1.85917,1.3585 0.63896,3.17528 -1.20975,3.36001c0.43132,0.85894 0.17345,2.00302 -0.54603,2.79693c-0.4047,1.38483 2.0225,1.54897 2.9638,2.22444c4.97978,2.01403 9.27129,5.50101 12.2854,9.70145c6.17435,8.26488 7.81386,18.51156 6.41612,27.76396c1.04975,1.11233 3.56821,2.56368 3.09046,4.67646c-0.13017,1.60221 -0.60028,3.31913 -1.69291,4.50701c-0.97301,1.8103 -3.41223,1.06904 -4.88588,2.04951c-3.21106,6.84776 -8.29182,12.93728 -15.10701,16.94389c-6.56225,3.88668 -14.94699,5.91621 -23.11781,3.88277zM257.57324,186.20469c5.81128,3.41063 12.80722,4.52468 19.15557,3.37196c9.21253,-1.63001 16.87123,-7.12173 21.93369,-14.03594c1.48796,-2.141 3.02795,-4.32856 3.85521,-6.79588c1.42417,-1.45966 4.56264,-0.43023 5.51315,-2.66496c1.1933,-1.80908 1.938,-4.64221 -0.09652,-6.47296c-2.08315,-0.59388 -2.04777,-2.4449 -1.54443,-4.00263c0.46756,-5.16914 0.03482,-10.53029 -1.64061,-15.68045c-2.24487,-6.98587 -7.0112,-13.72833 -14.0223,-17.60383c-1.19092,-0.60447 -2.41162,-1.43985 -3.66577,-1.74031c0.90902,1.84721 -1.7821,4.0914 -3.01081,1.7914c0.20814,-1.58682 -2.36328,-1.89738 -2.72661,-3.39947c-3.03035,-0.4709 -6.09684,-0.44905 -9.0409,-0.00006c-9.75451,1.54364 -17.77011,7.45398 -22.9479,14.80399c-1.00261,0.81826 -0.93238,3.01064 -2.70756,2.68988c-1.74729,-0.76957 -4.15711,-0.92992 -4.85368,0.963c-0.49151,1.57151 -0.99898,3.22505 -0.80513,4.93312c-0.33954,1.82298 2.5851,2.40919 2.41003,3.81109c-1.80337,6.72437 -2.08919,13.99569 -0.13454,21.02445c2.07604,7.46309 6.88178,14.84977 14.3291,19.00762zM265.14942,179.82351c-0.3243,-0.06488 -0.64338,-0.16576 -0.94886,-0.29328c-2.17543,-1.06855 -3.88473,-2.82341 -5.60245,-4.43543c-1.64228,-1.88536 -3.45638,-3.73311 -4.56898,-5.92056c-0.84041,-3.2437 -1.71048,-6.66041 -1.01091,-9.88119c0.62805,-2.1299 1.2788,-4.30571 2.56779,-6.14573c-0.42374,-1.09802 -3.05732,-1.33555 -4.29471,-2.20336c-0.72769,-0.20038 -3.3999,-1.93434 -1.86562,-2.09786c1.28801,1.39768 3.16745,2.11256 4.95364,2.71776c1.94177,1.05752 3.87927,0.17082 5.46231,-0.73323c1.91799,-0.72386 -0.1787,1.12948 -1.00468,1.27112c-1.61094,0.39528 -2.88878,1.32017 -3.55977,2.73902c-0.73664,1.93504 -1.63402,3.88768 -1.8427,5.99494c-0.05722,1.84549 0.18522,3.72183 0.58454,5.56384c0.33356,1.93342 1.10987,3.76964 2.60244,5.29024c1.71429,2.34142 3.83274,4.40911 6.1761,6.23778c1.57664,1.29631 3.68792,1.48106 5.61286,1.79058c2.15933,-0.008 4.33189,0.15971 6.45491,-0.14266c2.8951,0.09964 5.27218,-1.44422 7.34925,-2.96882c1.3346,-1.08224 2.78584,-2.05781 3.62447,-3.55701c0.8736,-1.52353 1.63035,-3.12185 2.29921,-4.74096c0.50643,-1.794 -1.58239,-3.38879 -1.42416,-5.24335c-0.13251,-1.58656 0.88246,-0.40567 0.85718,0.46586c0.05563,1.99788 1.67725,3.77617 3.58095,4.72741c0.59897,0.85014 4.08009,0.62566 2.78194,1.61261c-1.75785,0.05902 -3.17818,-1.48042 -4.81191,-2.0547c-0.85296,0.89679 -1.0548,3.02197 -2.02086,4.24583c-0.88203,2.25705 -2.78387,3.90067 -4.72426,5.36322c-1.66221,0.77097 -2.82822,2.2939 -4.78525,2.53811c-1.94325,0.33792 -3.89015,0.55566 -5.90818,0.48058c-2.17587,0.10046 -4.37356,-0.02839 -6.5343,-0.62076zM246.14507,144.56391c-0.55589,0.13347 -1.16099,-0.02945 -1.70112,-0.24146c-2.32087,-0.66589 -1.71311,-3.25285 -1.09898,-4.7199c0.27284,-2.25715 3.26661,-2.33495 4.28891,-0.25146c0.54268,1.74908 -1.10946,-0.22235 -1.56417,-0.7114c-1.94144,-0.81229 -2.70832,2.36076 -2.53128,3.75928c-0.61882,1.94018 3.02323,0.86088 2.60664,2.16493zM304.9244,166.20176c-0.6927,0.36142 -2.34665,-0.82671 -1.63755,-1.48159c0.361,0.30003 1.48079,1.35003 2.18725,0.34854c1.44443,-0.70269 2.0894,-3.86574 -0.37307,-3.74076c-1.07339,-0.92523 1.95196,-0.89321 2.28586,0.1802c0.62971,1.96898 -0.76886,3.7599 -2.4625,4.69361zM272.77834,143.83915c1.54097,-1.89031 4.65287,1.89332 2.10111,2.57393c-1.55188,0.78231 -3.27423,-1.47092 -2.10111,-2.57393zM279.03697,144.92564c1.54097,-1.89031 4.65287,1.89332 2.10111,2.57393c-1.55188,0.78231 -3.27423,-1.47092 -2.10111,-2.57393zM269.69249,139.58467c0.73777,-0.99834 3.50132,-1.00666 5.03227,-0.53057c0.06599,1.0535 -3.10715,0.29819 -4.27099,0.76392c-0.252,0.05485 -0.59469,-0.01116 -0.76128,-0.23335zM284.88796,144.07551c-0.36215,-1.16062 -3.371,-2.09046 -2.16275,-3.0929c1.41474,1.26322 3.36834,2.41063 3.91796,4.23552c-0.75994,0.00923 -1.30958,-0.6343 -1.75521,-1.14262zM285.65586,122.78662c2.67818,-1.57943 -1.73021,-3.00228 -1.44917,-4.63204c1.78997,-0.6173 0.06955,-2.56683 1.056,-3.49496c2.08211,0.45342 2.41665,-2.323 0.39393,-2.58717c-0.4039,1.48563 -3.81642,1.3473 -3.21517,3.33251c1.35287,0.5569 0.8302,1.73558 0.06306,2.4438c-1.58684,2.055 2.91721,2.57 2.27285,4.5367c0.09256,0.35756 0.54611,0.57669 0.8785,0.40116z" fill="#000000"/><path d="M265.14942,179.82351c-0.3243,-0.06488 -0.64338,-0.16576 -0.94886,-0.29328c-2.17543,-1.06855 -3.88473,-2.82341 -5.60245,-4.43543c-1.64228,-1.88536 -3.45638,-3.73311 -4.56898,-5.92056c-0.84041,-3.2437 -1.71048,-6.66041 -1.01091,-9.88119c0.62805,-2.1299 1.2788,-4.30571 2.56779,-6.14573c-0.42374,-1.09802 -3.05732,-1.33555 -4.29471,-2.20336c-0.72769,-0.20038 -3.3999,-1.93434 -1.86562,-2.09786c1.28801,1.39768 3.16745,2.11256 4.95364,2.71776c1.94177,1.05752 3.87927,0.17082 5.46231,-0.73323c1.91799,-0.72386 -0.1787,1.12948 -1.00468,1.27112c-1.61094,0.39528 -2.88878,1.32017 -3.55977,2.73902c-0.73664,1.93504 -1.63402,3.88768 -1.8427,5.99494c-0.05722,1.84549 0.18522,3.72183 0.58454,5.56384c0.33356,1.93342 1.10987,3.76964 2.60244,5.29024c1.71429,2.34142 3.83274,4.40911 6.1761,6.23778c1.57664,1.29631 3.68792,1.48106 5.61286,1.79058c2.15933,-0.008 4.33189,0.15971 6.45491,-0.14266c2.8951,0.09964 5.27218,-1.44422 7.34925,-2.96882c1.3346,-1.08224 2.78584,-2.05781 3.62447,-3.55701c0.8736,-1.52353 1.63035,-3.12185 2.29921,-4.74096c0.50643,-1.794 -1.58239,-3.38879 -1.42416,-5.24335c-0.13251,-1.58656 0.88246,-0.40567 0.85718,0.46586c0.05563,1.99788 1.67725,3.77617 3.58095,4.72741c0.59897,0.85014 4.08009,0.62566 2.78194,1.61261c-1.75785,0.05902 -3.17818,-1.48042 -4.81191,-2.0547c-0.85296,0.89679 -1.0548,3.02197 -2.02086,4.24583c-0.88203,2.25705 -2.78387,3.90067 -4.72426,5.36322c-1.66221,0.77097 -2.82822,2.2939 -4.78525,2.53811c-1.94325,0.33792 -3.89015,0.55566 -5.90818,0.48058c-2.17587,0.10046 -4.37356,-0.02839 -6.5343,-0.62076z" fill="#000000"/><path d="M246.14507,144.56391c-0.55589,0.13347 -1.16099,-0.02945 -1.70112,-0.24146c-2.32087,-0.66589 -1.71311,-3.25285 -1.09898,-4.7199c0.27284,-2.25715 3.26661,-2.33495 4.28891,-0.25146c0.54268,1.74908 -1.10946,-0.22235 -1.56417,-0.7114c-1.94144,-0.81229 -2.70832,2.36076 -2.53128,3.75928c-0.61882,1.94018 3.02323,0.86088 2.60664,2.16493z" fill="#000000"/><path d="M304.9244,166.20176c-0.6927,0.36142 -2.34665,-0.82671 -1.63755,-1.48159c0.361,0.30003 1.48079,1.35003 2.18725,0.34854c1.44443,-0.70269 2.0894,-3.86574 -0.37307,-3.74076c-1.07339,-0.92523 1.95196,-0.89321 2.28586,0.1802c0.62971,1.96898 -0.76886,3.7599 -2.4625,4.69361z" fill="#000000"/><path d="M272.77834,143.83915c1.54097,-1.89031 4.65287,1.89332 2.10111,2.57393c-1.55188,0.78231 -3.27423,-1.47092 -2.10111,-2.57393z" fill="#000000"/><path d="M279.03697,144.92564c1.54097,-1.89031 4.65287,1.89332 2.10111,2.57393c-1.55188,0.78231 -3.27423,-1.47092 -2.10111,-2.57393z" fill="#000000"/><path d="M269.69249,139.58467c0.73777,-0.99834 3.50132,-1.00666 5.03227,-0.53057c0.06599,1.0535 -3.10715,0.29819 -4.27099,0.76392c-0.252,0.05485 -0.59469,-0.01116 -0.76128,-0.23335z" fill="#000000"/><path d="M284.88796,144.07551c-0.36215,-1.16062 -3.371,-2.09046 -2.16275,-3.0929c1.41474,1.26322 3.36834,2.41063 3.91796,4.23552c-0.75994,0.00923 -1.30958,-0.6343 -1.75521,-1.14262z" fill="#000000"/><path d="M284.77736,122.38546c0.64435,-1.9667 -3.85969,-2.48171 -2.27285,-4.5367c0.76715,-0.70821 1.28981,-1.88689 -0.06306,-2.4438c-0.60125,-1.98521 2.81128,-1.84688 3.21517,-3.33251c2.02272,0.26417 1.68818,3.04059 -0.39393,2.58717c-0.98645,0.92814 0.73397,2.87766 -1.056,3.49496c-0.28105,1.62976 4.12735,3.05261 1.44917,4.63204c-0.33238,0.17553 -0.78593,-0.0436 -0.8785,-0.40116z" fill="#947968"/></g></g></g></svg>