<svg version="1.1" xmlns="http://www.w3.org/2000/svg" xmlns:xlink="http://www.w3.org/1999/xlink" width="139.99977" height="137.08458" viewBox="0,0,139.99977,137.08458"><defs><linearGradient x1="191.59111" y1="114.5729" x2="204.83502" y2="151.51069" gradientUnits="userSpaceOnUse" id="color-1"><stop offset="0" stop-color="#d19b75"/><stop offset="1" stop-color="#e8cdba" stop-opacity="0"/></linearGradient></defs><g transform="translate(-170,-111.45777)"><g data-paper-data="{&quot;isPaintingLayer&quot;:true}" stroke-linecap="butt" stroke-linejoin="miter" stroke-miterlimit="10" stroke-dasharray="" stroke-dashoffset="0" style="mix-blend-mode: normal"><path d="M208.11677,189.85441c3.55918,-13.00886 17.56135,-19.32157 27.98394,-14.74256c5.84562,8.41354 14.59978,11.68105 27.38224,7.82204c11.09159,-4.7075 20.80031,-1.24215 25.27529,2.40678c7.00006,5.70897 8.68073,16.29269 6.62069,24.07394c-1.12996,4.26694 -5.82931,10.2431 -12.03595,8.12391c-0.72407,4.25878 -3.55102,7.25705 -6.92052,9.92899c2.66786,-1.89075 5.5662,-2.98196 7.22035,-8.42578c5.26432,0.49768 8.26056,-4.89719 11.52196,-8.40334c7.63031,0.03876 12.9701,6.26783 14.36522,13.45963c0.70368,3.63464 0.60577,9.53738 -2.2742,11.03856c-1.00351,0.52215 -1.99682,0.59965 -2.93302,-1.65008c-0.31002,2.31296 0.71592,3.52655 -2.22729,4.95838c-0.9362,0.45484 -2.60259,0.44465 -3.68156,-1.81324c0.58742,2.48225 -0.24476,3.40009 -2.62706,3.62241c-3.72847,0.34674 -2.69437,-1.86424 -2.83103,-4.43011c0.64045,4.2853 -0.63841,5.1603 -5.45809,4.2241c-7.09185,-1.37676 -1.02594,-6.06998 0.6588,-10.77544c-1.79896,4.48722 -5.36222,11.6015 -12.40512,12.99254c-5.08484,1.00349 -10.57556,1.2197 -15.20964,0.0265c-6.73899,-1.73573 -11.18541,-6.10262 -10.89986,-15.12397c-8.13003,1.98866 -13.82064,-0.11626 -20.8819,-6.13117c-2.58015,7.34272 -4.67895,15.02607 -11.33431,23.03575c-1.82752,2.1967 -3.55306,4.61164 -7.63439,4.34445c-2.75556,-0.17949 -2.08248,-2.24565 -1.84996,-3.56326c-1.06062,2.24973 -2.9065,2.79227 -5.32551,1.80305c-4.26694,-1.7439 -1.49098,-3.40825 0.91376,-4.5117c-2.50672,0.91784 -5.59475,4.03646 -8.17898,-0.29983c-2.10491,-3.53266 2.315,-2.51692 5.8701,-4.10988c-3.21856,0.66288 -8.30136,3.55102 -10.38996,-1.98866c-1.11773,-2.9636 2.57403,-3.47555 6.34942,-3.6938c-2.72905,0.60578 -7.13672,1.17892 -4.86455,-2.75964c2.28236,-3.95691 8.46249,0.33654 11.03244,-6.16585c4.45255,-11.26496 4.56065,-21.06953 4.76869,-33.27273z" fill="#000000" fill-rule="evenodd" stroke="#000000" stroke-width="0.21063"/><path d="M259.04059,189.06097c-5.73344,-0.99126 -11.73612,-4.85027 -10.72241,-12.31538c4.75441,-3.25731 9.30894,-4.16495 12.22359,0c3.4776,4.97266 1.38492,9.11314 -1.50118,12.31538z" fill="#000000" fill-rule="evenodd" stroke="none" stroke-width="0.20397"/><path d="M210.20332,190.19905c3.44496,-12.5989 17.00452,-18.71171 27.09669,-14.27752c5.66002,8.14838 14.13882,11.30983 26.51539,7.57524c10.74078,-4.56065 20.14354,-1.20339 24.47575,2.33132c6.77774,5.52743 8.40538,15.77665 6.41061,23.30906c-1.09325,4.13233 -6.46772,8.3442 -11.65454,7.86692c-0.70164,4.1262 -2.89018,6.5493 -6.70227,9.61693c4.64223,-3.27159 5.66613,-3.50411 7.26725,-8.7766c7.15508,-1.84792 8.10352,-3.15125 10.98757,-6.4106c7.38964,0.03875 12.69884,4.14048 14.37951,12.56421c0.70163,3.51635 1.18707,9.003 -1.67863,10.76321c-0.99535,0.6119 -2.56588,0.52827 -3.27363,-2.31296c-0.29983,2.23954 1.10548,4.35057 -2.21098,5.38263c-1.9397,0.60169 -2.22729,0.22232 -3.90796,-2.47001c0.68124,2.73312 0.50787,3.84065 -1.75002,4.37096c-4.53821,1.06673 -2.52508,-2.53732 -3.20428,-4.95226c-0.33858,3.87533 -0.28555,5.8599 -4.9543,4.95226c-6.86749,-1.33393 -1.16872,-6.66964 -0.28963,-11.36287c-1.7439,4.34445 -5.12767,11.76468 -11.94824,13.11085c-4.92371,0.97291 -11.11403,1.32984 -14.85882,0.29166c-6.92868,-1.9193 -11.36491,-6.50647 -10.4899,-15.44215c-7.87099,1.92542 -15.30754,0.57926 -22.14443,-5.24597c-2.49857,7.1102 -4.51781,14.61406 -10.96309,22.37083c-1.77041,2.12735 -4.60552,5.75792 -8.12391,4.47906c-2.36599,-0.85869 -0.76486,-2.3823 -0.78322,-3.94671c-1.2401,2.11103 -2.97584,3.78558 -5.51112,2.44146c-3.94467,-2.09268 -1.03002,-3.32667 0.76487,-4.92983c-2.42922,0.8873 -5.92517,4.39957 -8.01785,-0.0183c-1.30537,-2.75149 1.43795,-2.22934 4.07929,-3.49596c-2.92281,-0.19784 -6.27599,2.88202 -8.45025,-2.33131c-1.16464,-2.7882 2.75352,-2.70253 6.41061,-2.91262c-2.86162,-0.07342 -7.58952,-0.4222 -4.66263,-3.78762c2.49041,-2.86366 8.70521,0.40589 10.4899,-4.66263c3.89368,-11.06508 6.50035,-22.27701 6.70227,-34.09063z" fill="#e8cdba" fill-rule="evenodd" stroke="#000000" stroke-width="0.20397"/><path d="M258.77544,188.28387c-5.18274,-0.88929 -10.61024,-4.35057 -9.69444,-11.0508c4.30162,-2.92077 8.41762,-3.73663 11.05284,0c3.14514,4.46274 1.25235,8.17898 -1.3584,11.0508z" fill="#ffffff" fill-rule="evenodd" stroke="none" stroke-width="0.20397"/><path d="M254.12709,184.31064c15.14029,-3.33482 34.79839,-11.23437 41.28854,13.49429c-0.02243,8.95609 0.94028,18.46492 -12.0849,20.13946c-1.10345,-14.73236 -18.15488,-10.68978 -26.58474,-7.45082c2.7882,-10.98145 1.57053,-19.49697 -2.6189,-26.18293z" fill="#000000" fill-rule="evenodd" stroke="#000000" stroke-width="0.21188"/><path d="M255.28561,184.9001c14.43865,-3.17981 33.18911,-10.71426 39.37943,12.87016c-0.02243,8.54204 1.47875,16.64351 -10.75097,19.01562c-1.05246,-14.05112 -17.70208,-10.97126 -25.74441,-7.88323c2.6597,-10.47154 1.11161,-17.62458 -2.88405,-24.00255z" fill="#ffffff" fill-rule="evenodd" stroke="none" stroke-width="0.20397"/><path d="M237.07361,175.76248c7.18567,6.01696 11.84626,11.33839 25.64038,7.13876c1.68067,11.46281 -2.48428,30.59673 -11.80342,44.50507c-11.03449,2.45573 -17.70413,-0.76283 -23.37026,-5.28472c1.42571,-5.968 0.92804,-8.0872 0.81382,-10.97329c-11.14666,-2.13959 -17.92033,-4.04462 -25.02441,-7.33457l5.69061,-14.20613c8.46861,-17.12895 17.96928,-17.71432 28.05328,-13.84512z" fill="#000000" fill-rule="evenodd" stroke="none" stroke-width="0.20397"/><path d="M236.74115,176.21121c6.11689,5.55803 12.04207,11.37306 25.2039,7.3672c1.60316,10.93658 -2.74129,29.19344 -11.6321,42.46134c-10.52865,2.34355 -16.30901,-0.14482 -21.71407,-4.45867c1.36044,-5.69469 0.49767,-7.52425 0.38753,-10.27573c-2.70457,-0.27943 1.44203,0.27127 5.94965,0.75671c1.56033,-6.8165 4.53005,-22.49525 -0.48543,-25.97897c2.22729,-0.3549 2.49856,18.89324 -0.69756,25.01829c-8.13207,-2.02944 -18.18752,-2.43941 -29.3913,-7.94034l5.42954,-13.18427c8.07904,-16.34164 17.32883,-17.45732 26.94984,-13.76556z" fill="#87cdde" fill-rule="evenodd" stroke="#000000" stroke-width="0.20397"/><path d="M255.94849,184.02917c7.90771,1.64395 10.65919,8.19529 8.98872,18.78717c-8.99688,0.37734 -17.79795,-5.58455 -8.98872,-18.78717z" fill="#000000" fill-rule="evenodd" stroke="#000000" stroke-width="0.22224"/><path d="M256.06271,184.79403c7.33457,1.49507 9.88412,7.44267 8.33603,17.06164c-8.34419,0.3447 -16.50481,-5.07056 -8.33603,-17.06164z" fill="#fffffe" fill-rule="evenodd" stroke="none" stroke-width="0.20397"/><g fill-rule="nonzero" stroke="none" stroke-width="1"><path d="M214.86325,189.82639c-8.17082,2.03344 -16.55556,0.00391 -23.11781,-3.88277c-6.81519,-4.00661 -11.89595,-10.09613 -15.10701,-16.94389c-1.47365,-0.98047 -3.91287,-0.23921 -4.88588,-2.04951c-1.09263,-1.18788 -1.56274,-2.9048 -1.69291,-4.50701c-0.47775,-2.11278 2.04071,-3.56413 3.09046,-4.67646c-1.39774,-9.2524 0.24177,-19.49908 6.41612,-27.76396c3.01411,-4.20044 7.30562,-7.68742 12.2854,-9.70145c0.9413,-0.67547 3.3685,-0.83961 2.9638,-2.22444c-0.71948,-0.79391 -0.97735,-1.93799 -0.54603,-2.79693c-1.84871,-0.18473 -3.06892,-2.00151 -1.20975,-3.36001c2.08829,-1.60067 3.2371,1.4255 4.94512,1.98515c1.16271,1.40243 -1.5615,2.72749 0.26082,4.01108c1.31128,0.72147 3.8853,-0.38327 5.66587,0.02154c9.18789,0.26346 17.41983,4.55585 23.223,10.54753c2.20928,2.25064 4.12285,4.74827 5.72182,7.42116c1.89383,-0.7936 4.90297,-1.31099 5.67287,0.83631c0.96415,2.11825 1.61767,4.63245 0.69377,7.00006c-0.49737,1.38877 -2.82527,1.74989 -1.75179,3.26803c2.17173,8.76591 1.71261,18.54165 -2.88229,27.17764c-3.13705,6.09838 -8.50577,11.56557 -15.37641,14.14825c-1.42932,0.57626 -2.89155,1.06648 -4.36915,1.48966z" fill="#e8cdba"/><path d="M214.86325,189.82639c-8.17082,2.03344 -16.55556,0.00391 -23.11781,-3.88277c-6.81519,-4.00661 -11.89595,-10.09613 -15.10701,-16.94389c-1.47365,-0.98047 -3.91287,-0.23921 -4.88588,-2.04951c-1.09263,-1.18788 -1.56274,-2.9048 -1.69291,-4.50701c-0.47775,-2.11278 2.04071,-3.56413 3.09046,-4.67646c-1.39774,-9.2524 0.24177,-19.49908 6.41612,-27.76396c3.01411,-4.20044 7.30562,-7.68742 12.2854,-9.70145c0.9413,-0.67547 3.3685,-0.83961 2.9638,-2.22444c-0.71948,-0.79391 -0.97735,-1.93799 -0.54603,-2.79693c-1.84871,-0.18473 -3.06892,-2.00151 -1.20975,-3.36001c2.08829,-1.60067 3.2371,1.4255 4.94512,1.98515c1.16271,1.40243 -1.5615,2.72749 0.26082,4.01108c1.31128,0.72147 3.8853,-0.38327 5.66587,0.02154c9.18789,0.26346 17.41983,4.55585 23.223,10.54753c2.20928,2.25064 4.12285,4.74827 5.72182,7.42116c1.89383,-0.7936 4.90297,-1.31099 5.67287,0.83631c0.96415,2.11825 1.61767,4.63245 0.69377,7.00006c-0.49737,1.38877 -2.82527,1.74989 -1.75179,3.26803c2.17173,8.76591 1.71261,18.54165 -2.88229,27.17764c-3.13705,6.09838 -8.50577,11.56557 -15.37641,14.14825c-1.42932,0.57626 -2.89155,1.06648 -4.36915,1.48966z" fill="url(#color-1)"/><path d="M214.86325,189.82639c-8.17082,2.03344 -16.55556,0.00391 -23.11781,-3.88277c-6.81519,-4.00661 -11.89595,-10.09613 -15.10701,-16.94389c-1.47365,-0.98047 -3.91287,-0.23921 -4.88588,-2.04951c-1.09263,-1.18788 -1.56274,-2.9048 -1.69291,-4.50701c-0.47775,-2.11278 2.04071,-3.56413 3.09046,-4.67646c-1.39774,-9.2524 0.24177,-19.49908 6.41612,-27.76396c3.01411,-4.20044 7.30562,-7.68742 12.2854,-9.70145c0.9413,-0.67547 3.3685,-0.83961 2.9638,-2.22444c-0.71948,-0.79391 -0.97735,-1.93799 -0.54603,-2.79693c-1.84871,-0.18473 -3.06892,-2.00151 -1.20975,-3.36001c2.08829,-1.60067 3.2371,1.4255 4.94512,1.98515c1.16271,1.40243 -1.5615,2.72749 0.26082,4.01108c1.31128,0.72147 3.8853,-0.38327 5.66587,0.02154c9.18789,0.26346 17.41983,4.55585 23.223,10.54753c2.20928,2.25064 4.12285,4.74827 5.72182,7.42116c1.89383,-0.7936 4.90297,-1.31099 5.67287,0.83631c0.96415,2.11825 1.61767,4.63245 0.69377,7.00006c-0.49737,1.38877 -2.82527,1.74989 -1.75179,3.26803c2.17173,8.76591 1.71261,18.54165 -2.88229,27.17764c-3.13705,6.09838 -8.50577,11.56557 -15.37641,14.14825c-1.42932,0.57626 -2.89155,1.06648 -4.36915,1.48966zM222.374,186.15211c7.44732,-4.15785 12.25306,-11.54453 14.3291,-19.00762c1.95465,-7.02876 1.66883,-14.30008 -0.13454,-21.02445c-0.17507,-1.4019 2.74957,-1.98811 2.41003,-3.81109c0.19385,-1.70807 -0.31362,-3.36161 -0.80513,-4.93312c-0.69657,-1.89292 -3.10639,-1.73257 -4.85368,-0.963c-1.77518,0.32076 -1.70495,-1.87162 -2.70756,-2.68988c-5.17779,-7.35001 -13.19339,-13.26035 -22.9479,-14.80399c-2.94406,-0.44899 -6.01055,-0.47084 -9.0409,0.00006c-0.36333,1.50209 -2.93475,1.81265 -2.72661,3.39947c-1.22871,2.3 -3.91983,0.05581 -3.01081,-1.7914c-1.25415,0.30046 -2.47485,1.13584 -3.66577,1.74031c-7.0111,3.8755 -11.77743,10.61796 -14.0223,17.60383c-1.67543,5.15016 -2.10817,10.51131 -1.64061,15.68045c0.50334,1.55773 0.53872,3.40875 -1.54443,4.00263c-2.03452,1.83075 -1.28982,4.66388 -0.09652,6.47296c0.95051,2.23473 4.08898,1.2053 5.51315,2.66496c0.82726,2.46732 2.36725,4.65488 3.85521,6.79588c5.06246,6.91421 12.72116,12.40593 21.93369,14.03594c6.34835,1.15272 13.34429,0.03867 19.15557,-3.37196zM214.79782,179.77091c-2.16074,0.59237 -4.35843,0.72122 -6.5343,0.62076c-2.01803,0.07508 -3.96493,-0.14266 -5.90818,-0.48058c-1.95703,-0.24421 -3.12304,-1.76714 -4.78525,-2.53811c-1.94039,-1.46255 -3.84223,-3.10617 -4.72426,-5.36322c-0.96606,-1.22386 -1.1679,-3.34904 -2.02086,-4.24583c-1.63373,0.57428 -3.05406,2.11372 -4.81191,2.0547c-1.29815,-0.98695 2.18297,-0.76247 2.78194,-1.61261c1.9037,-0.95124 3.52532,-2.72953 3.58095,-4.72741c-0.02528,-0.87153 0.98969,-2.05242 0.85718,-0.46586c0.15823,1.85456 -1.93059,3.44935 -1.42416,5.24335c0.66886,1.61911 1.42561,3.21743 2.29921,4.74096c0.83863,1.4992 2.28987,2.47477 3.62447,3.55701c2.07707,1.5246 4.45415,3.06846 7.34925,2.96882c2.12302,0.30237 4.29558,0.13466 6.45491,0.14266c1.92494,-0.30952 4.03622,-0.49427 5.61286,-1.79058c2.34336,-1.82867 4.46181,-3.89636 6.1761,-6.23778c1.49257,-1.5206 2.26888,-3.35682 2.60244,-5.29024c0.39932,-1.84201 0.64176,-3.71835 0.58454,-5.56384c-0.20868,-2.10726 -1.10606,-4.0599 -1.8427,-5.99494c-0.67099,-1.41885 -1.94883,-2.34374 -3.55977,-2.73902c-0.82598,-0.14164 -2.92267,-1.99498 -1.00468,-1.27112c1.58304,0.90405 3.52054,1.79075 5.46231,0.73323c1.78619,-0.6052 3.66563,-1.32008 4.95364,-2.71776c1.53428,0.16352 -1.13793,1.89748 -1.86562,2.09786c-1.23739,0.86781 -3.87097,1.10534 -4.29471,2.20336c1.28899,1.84002 1.93974,4.01583 2.56779,6.14573c0.69957,3.22078 -0.1705,6.63749 -1.01091,9.88119c-1.1126,2.18745 -2.9267,4.0352 -4.56898,5.92056c-1.71772,1.61202 -3.42702,3.36688 -5.60245,4.43543c-0.30548,0.12752 -0.62456,0.2284 -0.94886,0.29328zM233.80216,144.5113c-0.41659,-1.30405 3.22546,-0.22475 2.60664,-2.16493c0.17704,-1.39852 -0.58984,-4.57157 -2.53128,-3.75928c-0.45471,0.48905 -2.10685,2.46048 -1.56417,0.7114c1.0223,-2.08349 4.01607,-2.00569 4.28891,0.25146c0.61413,1.46705 1.22189,4.05401 -1.09898,4.7199c-0.54013,0.21201 -1.14523,0.37493 -1.70112,0.24146zM175.02284,166.14916c-1.69364,-0.93371 -3.09221,-2.72463 -2.4625,-4.69361c0.3339,-1.07341 3.35925,-1.10543 2.28586,-0.1802c-2.46247,-0.12498 -1.8175,3.03807 -0.37307,3.74076c0.70646,1.00149 1.82625,-0.04851 2.18725,-0.34854c0.7091,0.65488 -0.94485,1.84301 -1.63755,1.48159zM205.06778,146.36048c-2.55176,-0.68061 0.56014,-4.46424 2.10111,-2.57393c1.17312,1.10301 -0.54923,3.35624 -2.10111,2.57393zM198.80915,147.44697c-2.55176,-0.68061 0.56014,-4.46424 2.10111,-2.57393c1.17312,1.10301 -0.54923,3.35624 -2.10111,2.57393zM209.49346,139.76542c-1.16384,-0.46573 -4.33698,0.28958 -4.27099,-0.76392c1.53095,-0.47609 4.2945,-0.46777 5.03227,0.53057c-0.16659,0.22219 -0.50928,0.2882 -0.76128,0.23335zM193.30406,145.16553c0.54962,-1.82489 2.50322,-2.9723 3.91796,-4.23552c1.20825,1.00244 -1.8006,1.93228 -2.16275,3.0929c-0.44563,0.50832 -0.99527,1.15185 -1.75521,1.14262zM195.16987,122.33286c-0.64436,-1.9667 3.85969,-2.4817 2.27285,-4.5367c-0.76714,-0.70822 -1.28981,-1.8869 0.06306,-2.4438c0.60125,-1.98521 -2.81127,-1.84688 -3.21517,-3.33251c-2.02272,0.26417 -1.68818,3.04059 0.39393,2.58717c0.98645,0.92813 -0.73397,2.87766 1.056,3.49496c0.28104,1.62976 -4.12735,3.05261 -1.44917,4.63204c0.33239,0.17553 0.78594,-0.0436 0.8785,-0.40116z" fill="#000000"/><path d="M214.79782,179.77091c-2.16074,0.59237 -4.35843,0.72122 -6.5343,0.62076c-2.01803,0.07508 -3.96493,-0.14266 -5.90818,-0.48058c-1.95703,-0.24421 -3.12304,-1.76714 -4.78525,-2.53811c-1.94039,-1.46255 -3.84223,-3.10617 -4.72426,-5.36322c-0.96606,-1.22386 -1.1679,-3.34904 -2.02086,-4.24583c-1.63373,0.57428 -3.05406,2.11372 -4.81191,2.0547c-1.29815,-0.98695 2.18297,-0.76247 2.78194,-1.61261c1.9037,-0.95124 3.52532,-2.72953 3.58095,-4.72741c-0.02528,-0.87153 0.98969,-2.05242 0.85718,-0.46586c0.15823,1.85456 -1.93059,3.44935 -1.42416,5.24335c0.66886,1.61911 1.42561,3.21743 2.29921,4.74096c0.83863,1.4992 2.28987,2.47477 3.62447,3.55701c2.07707,1.5246 4.45415,3.06846 7.34925,2.96882c2.12302,0.30237 4.29558,0.13466 6.45491,0.14266c1.92494,-0.30952 4.03622,-0.49427 5.61286,-1.79058c2.34336,-1.82867 4.46181,-3.89636 6.1761,-6.23778c1.49257,-1.5206 2.26888,-3.35682 2.60244,-5.29024c0.39932,-1.84201 0.64176,-3.71835 0.58454,-5.56384c-0.20868,-2.10726 -1.10606,-4.0599 -1.8427,-5.99494c-0.67099,-1.41885 -1.94883,-2.34374 -3.55977,-2.73902c-0.82598,-0.14164 -2.92267,-1.99498 -1.00468,-1.27112c1.58304,0.90405 3.52054,1.79075 5.46231,0.73323c1.78619,-0.6052 3.66563,-1.32008 4.95364,-2.71776c1.53428,0.16352 -1.13793,1.89748 -1.86562,2.09786c-1.23739,0.86781 -3.87097,1.10534 -4.29471,2.20336c1.28899,1.84002 1.93974,4.01583 2.56779,6.14573c0.69957,3.22078 -0.1705,6.63749 -1.01091,9.88119c-1.1126,2.18745 -2.9267,4.0352 -4.56898,5.92056c-1.71772,1.61202 -3.42702,3.36688 -5.60245,4.43543c-0.30548,0.12752 -0.62456,0.2284 -0.94886,0.29328z" fill="#000000"/><path d="M233.80216,144.5113c-0.41659,-1.30405 3.22546,-0.22475 2.60664,-2.16493c0.17704,-1.39852 -0.58984,-4.57157 -2.53128,-3.75928c-0.45471,0.48905 -2.10685,2.46048 -1.56417,0.7114c1.0223,-2.08349 4.01607,-2.00569 4.28891,0.25146c0.61413,1.46705 1.22189,4.05401 -1.09898,4.7199c-0.54013,0.21201 -1.14523,0.37493 -1.70112,0.24146z" fill="#000000"/><path d="M175.02284,166.14916c-1.69364,-0.93371 -3.09221,-2.72463 -2.4625,-4.69361c0.3339,-1.07341 3.35925,-1.10543 2.28586,-0.1802c-2.46247,-0.12498 -1.8175,3.03807 -0.37307,3.74076c0.70646,1.00149 1.82625,-0.04851 2.18725,-0.34854c0.7091,0.65488 -0.94485,1.84301 -1.63755,1.48159z" fill="#000000"/><path d="M205.06778,146.36048c-2.55176,-0.68061 0.56014,-4.46424 2.10111,-2.57393c1.17312,1.10301 -0.54923,3.35624 -2.10111,2.57393z" fill="#000000"/><path d="M198.80915,147.44697c-2.55176,-0.68061 0.56014,-4.46424 2.10111,-2.57393c1.17312,1.10301 -0.54923,3.35624 -2.10111,2.57393z" fill="#000000"/><path d="M209.49346,139.76542c-1.16384,-0.46573 -4.33698,0.28958 -4.27099,-0.76392c1.53095,-0.47609 4.2945,-0.46777 5.03227,0.53057c-0.16659,0.22219 -0.50928,0.2882 -0.76128,0.23335z" fill="#000000"/><path d="M193.30406,145.16553c0.54962,-1.82489 2.50322,-2.9723 3.91796,-4.23552c1.20825,1.00244 -1.8006,1.93228 -2.16275,3.0929c-0.44563,0.50832 -0.99527,1.15185 -1.75521,1.14262z" fill="#000000"/><path d="M194.29137,122.73402c-2.67818,-1.57943 1.73022,-3.00228 1.44917,-4.63204c-1.78997,-0.6173 -0.06955,-2.56682 -1.056,-3.49496c-2.08211,0.45342 -2.41665,-2.323 -0.39393,-2.58717c0.40389,1.48563 3.81642,1.3473 3.21517,3.33251c-1.35287,0.55691 -0.83021,1.73559 -0.06306,2.4438c1.58684,2.05499 -2.9172,2.57 -2.27285,4.5367c-0.09257,0.35756 -0.54612,0.57669 -0.8785,0.40116z" fill="#947968"/></g></g></g></svg>