<?xml version="1.0" encoding="UTF-8" standalone="no"?>
<!-- Created with Inkscape (http://www.inkscape.org/) -->

<svg
   id="svg2"
   sodipodi:docname="papapishu-Baby-boy-crawling.svg"
   inkscape:export-filename="D:\Documents and Settings\Joanna\My Documents\My Pictures\graph_vector\baby_boy_crawling_2.png"
   viewBox="0 0 140 137.08446"
   sodipodi:version="0.32"
   inkscape:export-xdpi="152"
   version="1.0"
   inkscape:output_extension="org.inkscape.output.svg.inkscape"
   inkscape:export-ydpi="152"
   inkscape:version="1.2.2 (732a01da63, 2022-12-09)"
   width="140"
   height="137.08446"
   xmlns:inkscape="http://www.inkscape.org/namespaces/inkscape"
   xmlns:sodipodi="http://sodipodi.sourceforge.net/DTD/sodipodi-0.dtd"
   xmlns="http://www.w3.org/2000/svg"
   xmlns:svg="http://www.w3.org/2000/svg"
   xmlns:rdf="http://www.w3.org/1999/02/22-rdf-syntax-ns#"
   xmlns:cc="http://creativecommons.org/ns#"
   xmlns:dc="http://purl.org/dc/elements/1.1/">
  <defs
     id="defs4">
    <linearGradient
       id="linearGradient4579"
       y2="546.78003"
       gradientUnits="userSpaceOnUse"
       y1="270"
       x2="445.01999"
       x1="450.17999"
       inkscape:collect="always">
      <stop
         id="stop4575"
         style="stop-color:#d19b75"
         offset="0" />
      <stop
         id="stop4577"
         style="stop-color:#e8cdba;stop-opacity:0"
         offset="1" />
    </linearGradient>
  </defs>
  <sodipodi:namedview
     id="base"
     inkscape:zoom="1.0862323"
     height="750px"
     borderopacity="1.0"
     inkscape:current-layer="layer4"
     inkscape:cx="343.38879"
     inkscape:cy="336.02389"
     borderlayer="true"
     inkscape:grid-bbox="false"
     showgrid="true"
     width="750px"
     inkscape:document-units="px"
     bordercolor="#666666"
     inkscape:window-x="1912"
     guidetolerance="10"
     objecttolerance="10"
     inkscape:window-y="-8"
     inkscape:window-width="1920"
     inkscape:pageopacity="0.0"
     inkscape:pageshadow="2"
     pagecolor="#ffffff"
     gridtolerance="1"
     inkscape:window-height="1017"
     inkscape:showpageshadow="2"
     inkscape:pagecheckerboard="0"
     inkscape:deskcolor="#d1d1d1"
     inkscape:window-maximized="1">
    <inkscape:grid
       id="GridFromPre046Settings"
       type="xygrid"
       originx="-0.78264584"
       originy="0.055959731"
       spacingx="10"
       spacingy="10"
       color="#3f3fff"
       empcolor="#3f3fff"
       opacity="0.15"
       empopacity="0.38"
       empspacing="5" />
  </sodipodi:namedview>
  <g
     id="layer4"
     inkscape:label="najwyz"
     inkscape:groupmode="layer"
     transform="translate(-37.180646,-48.23604)">
    <path
       id="path5036"
       sodipodi:nodetypes="csscscscscssccsscscscscssccccssccc"
       style="fill:#000000;fill-rule:evenodd;stroke:#000000;stroke-width:0.210634px"
       d="m 75.297412,126.63267 c -0.208044,12.2032 -0.316145,22.00777 -4.768692,33.27273 -2.569953,6.50239 -8.750079,2.20894 -11.032443,6.16585 -2.272165,3.93856 2.135509,3.36542 4.864555,2.75964 -3.775384,0.21825 -7.467143,0.7302 -6.349417,3.6938 2.088597,5.53968 7.171394,2.65154 10.389955,1.98866 -3.555102,1.59296 -7.975014,0.57722 -5.8701,4.10988 2.584231,4.33629 5.672254,1.21767 8.178979,0.29983 -2.404742,1.10345 -5.1807,2.7678 -0.913762,4.5117 2.41902,0.98922 4.264899,0.44668 5.325515,-1.80305 -0.232519,1.31761 -0.905603,3.38377 1.849959,3.56326 4.08133,0.26719 5.806871,-2.14775 7.634393,-4.34445 6.655364,-8.00968 8.754159,-15.69303 11.334311,-23.03575 7.061255,6.01491 12.751865,8.11983 20.881895,6.13117 -0.28555,9.02135 4.16087,13.38824 10.89986,15.12397 4.63408,1.1932 10.1248,0.97699 15.20964,-0.0265 7.0429,-1.39104 10.60616,-8.50532 12.40512,-12.99254 -1.68474,4.70546 -7.75065,9.39868 -0.6588,10.77544 4.81968,0.9362 6.09854,0.0612 5.45809,-4.2241 0.13666,2.56587 -0.89744,4.77685 2.83103,4.43011 2.3823,-0.22232 3.21448,-1.14016 2.62706,-3.62241 1.07897,2.25789 2.74536,2.26808 3.68156,1.81324 2.94321,-1.43183 1.91727,-2.64542 2.22729,-4.95838 0.9362,2.24973 1.92951,2.17223 2.93302,1.65008 2.87997,-1.50118 2.97788,-7.40392 2.2742,-11.03856 -1.39512,-7.1918 -6.73491,-13.42087 -14.36522,-13.45963 -3.2614,3.50615 -6.25764,8.90102 -11.52196,8.40334 -1.65415,5.44382 -4.55249,6.53503 -7.22035,8.42578 3.3695,-2.67194 6.19645,-5.67021 6.92052,-9.92899 6.20664,2.11919 10.90599,-3.85697 12.03595,-8.12391 2.06004,-7.78125 0.37937,-18.36497 -6.62069,-24.07394 -4.47498,-3.64893 -14.1837,-7.11428 -25.27529,-2.40678 -12.78246,3.85901 -21.53662,0.5915 -27.38224,-7.82204 -10.42259,-4.57901 -24.424757,1.7337 -27.983938,14.74256 z" />
    <path
       id="path9938"
       sodipodi:nodetypes="ccsc"
       style="fill:#000000;fill-rule:evenodd;stroke-width:0.203965"
       d="m 126.22124,125.83924 c -5.73344,-0.99126 -11.73612,-4.85027 -10.72241,-12.31538 4.75441,-3.25731 9.30894,-4.16495 12.22359,0 3.4776,4.97266 1.38492,9.11314 -1.50118,12.31538 z" />
    <path
       id="path4055"
       sodipodi:nodetypes="csscscscscssccsscscscscssccccssccc"
       style="fill:#e8cdba;fill-rule:evenodd;stroke:#000000;stroke-width:0.203965px"
       d="m 77.383969,126.97737 c -0.201925,11.81362 -2.808592,23.02555 -6.702275,34.09063 -1.78469,5.06852 -7.99949,1.79897 -10.489898,4.66263 -2.926891,3.36542 1.801007,3.7142 4.66263,3.78762 -3.657084,0.21009 -7.575243,0.12442 -6.410606,2.91262 2.174262,5.21333 5.52744,2.13347 8.450252,2.33131 -2.641341,1.26662 -5.384665,0.74447 -4.079291,3.49596 2.092676,4.41787 5.588629,0.9056 8.017846,0.0183 -1.794888,1.60316 -4.709541,2.83715 -0.764867,4.92983 2.53528,1.34412 4.271018,-0.33043 5.511123,-2.44146 0.01836,1.56441 -1.582765,3.08802 0.783224,3.94671 3.518388,1.27886 6.353496,-2.35171 8.123908,-4.47906 6.44528,-7.75677 8.464529,-15.26063 10.963095,-22.37083 6.83689,5.82523 14.27344,7.17139 22.14443,5.24597 -0.87501,8.93568 3.56122,13.52285 10.4899,15.44215 3.74479,1.03818 9.93511,0.68125 14.85882,-0.29166 6.82057,-1.34617 10.20434,-8.7664 11.94824,-13.11085 -0.87909,4.69323 -6.57786,10.02894 0.28963,11.36287 4.66875,0.90764 4.61572,-1.07693 4.9543,-4.95226 0.6792,2.41494 -1.33393,6.01899 3.20428,4.95226 2.25789,-0.53031 2.43126,-1.63784 1.75002,-4.37096 1.68067,2.69233 1.96826,3.0717 3.90796,2.47001 3.31646,-1.03206 1.91115,-3.14309 2.21098,-5.38263 0.70775,2.84123 2.27828,2.92486 3.27363,2.31296 2.8657,-1.76021 2.38026,-7.24686 1.67863,-10.76321 -1.68067,-8.42373 -6.98987,-12.52546 -14.37951,-12.56421 -2.88405,3.25935 -3.83249,4.56268 -10.98757,6.4106 -1.60112,5.27249 -2.62502,5.50501 -7.26725,8.7766 3.81209,-3.06763 6.00063,-5.49073 6.70227,-9.61693 5.18682,0.47728 10.56129,-3.73459 11.65454,-7.86692 1.99477,-7.53241 0.36713,-17.78163 -6.41061,-23.30906 -4.33221,-3.53471 -13.73497,-6.89197 -24.47575,-2.33132 -12.37657,3.73459 -20.85537,0.57314 -26.51539,-7.57524 -10.092166,-4.43419 -23.65173,1.67862 -27.096691,14.27752 z" />
    <path
       id="path4063"
       sodipodi:nodetypes="ccsc"
       style="fill:#ffffff;fill-rule:evenodd;stroke-width:0.203965"
       d="m 125.95609,125.06214 c -5.18274,-0.88929 -10.61024,-4.35057 -9.69444,-11.0508 4.30162,-2.92077 8.41762,-3.73663 11.05284,0 3.14514,4.46274 1.25235,8.17898 -1.3584,11.0508 z" />
    <path
       id="path4059"
       sodipodi:nodetypes="ccccc"
       style="fill:#000000;fill-rule:evenodd;stroke:#000000;stroke-width:0.211878px"
       d="m 123.92664,147.27184 c 8.42986,-3.23896 25.48129,-7.28154 26.58474,7.45082 13.02518,-1.67454 12.06247,-11.18337 12.0849,-20.13946 -6.49015,-24.72866 -26.14825,-16.82911 -41.28854,-13.49429 4.18943,6.68596 5.4071,15.20148 2.6189,26.18293 z" />
    <path
       id="path6976"
       sodipodi:nodetypes="ccccc"
       style="fill:#ffffff;fill-rule:evenodd;stroke-width:0.203965"
       d="m 125.35031,145.68092 c 8.04233,-3.08803 24.69195,-6.16789 25.74441,7.88323 12.22972,-2.37211 10.72854,-10.47358 10.75097,-19.01562 -6.19032,-23.58442 -24.94078,-16.04997 -39.37943,-12.87016 3.99566,6.37797 5.54375,13.53101 2.88405,24.00255 z" />
    <path
       id="path4065"
       sodipodi:nodetypes="cccccccc"
       style="fill:#000000;fill-rule:evenodd;stroke-width:0.203965"
       d="M 76.200975,126.38587 70.510363,140.592 c 7.104086,3.28995 13.877749,5.19498 25.024412,7.33457 0.11422,2.88609 0.611894,5.00529 -0.813818,10.97329 5.666133,4.52189 12.335773,7.74045 23.370263,5.28472 9.31914,-13.90834 13.48409,-33.04226 11.80342,-44.50507 -13.79412,4.19963 -18.45471,-1.1218 -25.64038,-7.13876 -10.084008,-3.8692 -19.584677,-3.28383 -28.053285,13.84512 z" />
    <path
       id="path4057"
       sodipodi:nodetypes="ccccccccccc"
       style="fill:#87cdde;fill-rule:evenodd;stroke:#000000;stroke-width:0.203965px"
       d="m 76.971961,126.75504 -5.429537,13.18427 c 11.203773,5.50093 21.259226,5.9109 29.391296,7.94034 3.19612,-6.12505 2.92485,-25.37319 0.69756,-25.01829 5.01548,3.48372 2.04576,19.16247 0.48543,25.97897 -4.507615,-0.48544 -8.654215,-1.03614 -5.949645,-0.75671 0.110141,2.75148 0.972911,4.58104 -0.387532,10.27573 5.405057,4.31385 11.185417,6.80222 21.714067,4.45867 8.89081,-13.2679 13.23526,-31.52476 11.6321,-42.46134 -13.16183,4.00586 -19.08701,-1.80917 -25.2039,-7.3672 -9.62101,-3.69176 -18.870803,-2.57608 -26.949839,13.76556 z" />
    <path
       id="path7998"
       sodipodi:nodetypes="ccc"
       style="fill:#000000;fill-rule:evenodd;stroke:#000000;stroke-width:0.22224px"
       d="m 123.12914,120.80744 c 7.90771,1.64395 10.65919,8.19529 8.98872,18.78717 -8.99688,0.37734 -17.79795,-5.58455 -8.98872,-18.78717 z" />
    <path
       id="path4061"
       sodipodi:nodetypes="ccc"
       style="fill:#fffffe;fill-rule:evenodd;stroke-width:0.203965"
       d="m 123.24336,121.5723 c 7.33457,1.49507 9.88412,7.44267 8.33603,17.06164 -8.34419,0.3447 -16.50481,-5.07056 -8.33603,-17.06164 z" />
    <g
       id="layer1"
       inkscape:label="Layer 1"
       transform="matrix(0.15916578,-0.01475194,0.0118432,0.14122098,24.209185,30.586163)">
      <g
         id="g4581"
         transform="matrix(0.95817,-0.31348,0.2464,0.96304,-293.26,49.515)">
        <path
           id="path3686"
           style="fill:#e8cdba"
           d="M 417.99,824.32 C 365.7,816.61 321.24,781.66 291.58,739.21 260.71,695.32 244.63,642.22 241.17,588.96 234.75,578.72 218.84,577.3 217.2,562.9 c -3.73,-10.62 -2.64,-23.11 0.18,-33.97 1.93,-15.11 19.89,-18.15 28.51,-22.75 12.51,-64.38 44.99,-127.46 99.54,-165.83 27,-19.82 59.87,-31.66 93.47,-32.05 7.01,-2.01 21.56,3.17 22.29,-6.97 -2.43,-7.07 -1.38,-15.25 3.06,-19.78 -10.39,-5.98 -13.46,-21.06 0.44,-25.19 15.78,-5.13 15.73,17.71 24.46,25.79 3.66,12.21 -15.22,13.89 -7.44,27.02 6.05,8.12 23.56,7.5 33.06,14.75 53.1,25.42 91.61,74.84 112.13,129.16 7.88,20.48 13.48,41.82 16.85,63.5 12.84,-0.33 31.58,4.03 31.28,20.12 0.9,16.4 -0.9,34.6 -11.59,47.77 -6.01,7.84 -20.42,4.21 -17.54,16.95 -6.9,63.18 -31.43,126.21 -77.58,171.09 -31.96,31.97 -75.55,54.04 -121.47,53.29 -9.64,0.1 -19.28,-0.45 -28.86,-1.48 z" />
        <path
           id="path1912"
           style="fill:url(#linearGradient4579)"
           d="M 417.99,824.32 C 365.7,816.61 321.24,781.66 291.58,739.21 260.71,695.32 244.63,642.22 241.17,588.96 234.75,578.72 218.84,577.3 217.2,562.9 c -3.73,-10.62 -2.64,-23.11 0.18,-33.97 1.93,-15.11 19.89,-18.15 28.51,-22.75 12.51,-64.38 44.99,-127.46 99.54,-165.83 27,-19.82 59.87,-31.66 93.47,-32.05 7.01,-2.01 21.56,3.17 22.29,-6.97 -2.43,-7.07 -1.38,-15.25 3.06,-19.78 -10.39,-5.98 -13.46,-21.06 0.44,-25.19 15.78,-5.13 15.73,17.71 24.46,25.79 3.66,12.21 -15.22,13.89 -7.44,27.02 6.05,8.12 23.56,7.5 33.06,14.75 53.1,25.42 91.61,74.84 112.13,129.16 7.88,20.48 13.48,41.82 16.85,63.5 12.84,-0.33 31.58,4.03 31.28,20.12 0.9,16.4 -0.9,34.6 -11.59,47.77 -6.01,7.84 -20.42,4.21 -17.54,16.95 -6.9,63.18 -31.43,126.21 -77.58,171.09 -31.96,31.97 -75.55,54.04 -121.47,53.29 -9.64,0.1 -19.28,-0.45 -28.86,-1.48 z" />
        <path
           id="path1882"
           style="fill:#000000"
           d="M 417.99,824.32 C 365.7,816.61 321.24,781.66 291.58,739.21 260.71,695.32 244.63,642.22 241.17,588.96 234.75,578.72 218.84,577.3 217.2,562.9 c -3.73,-10.62 -2.64,-23.11 0.18,-33.97 1.93,-15.11 19.89,-18.15 28.51,-22.75 12.51,-64.38 44.99,-127.46 99.54,-165.83 27,-19.82 59.87,-31.66 93.47,-32.05 7.01,-2.01 21.56,3.17 22.29,-6.97 -2.43,-7.07 -1.38,-15.25 3.06,-19.78 -10.39,-5.98 -13.46,-21.06 0.44,-25.19 15.78,-5.13 15.73,17.71 24.46,25.79 3.66,12.21 -15.22,13.89 -7.44,27.02 6.05,8.12 23.56,7.5 33.06,14.75 53.1,25.42 91.61,74.84 112.13,129.16 7.88,20.48 13.48,41.82 16.85,63.5 12.84,-0.33 31.58,4.03 31.28,20.12 0.9,16.4 -0.9,34.6 -11.59,47.77 -6.01,7.84 -20.42,4.21 -17.54,16.95 -6.9,63.18 -31.43,126.21 -77.58,171.09 -31.96,31.97 -75.55,54.04 -121.47,53.29 -9.64,0.1 -19.28,-0.45 -28.86,-1.48 z m 52.1,-4.77 c 52.81,-8.11 97.4,-44.24 126.21,-87.91 27.13,-41.13 41.71,-89.63 46.2,-138.45 2.11,-9.66 20.51,-5.97 22.6,-18.82 4.95,-10.72 5.68,-22.89 6.32,-34.48 0.16,-14.23 -14.28,-19.39 -26.21,-18.84 -11.09,-2.47 -5.78,-16.69 -9.81,-24.65 -13.83,-61.63 -47.46,-121.12 -101.01,-156.41 -16.2,-10.54 -34.07,-18.59 -52.83,-23.31 -5.48,8.93 -21.2,4.34 -23.53,15.3 -12.32,11.94 -23.03,-9.74 -13.59,-19.53 -8,-1.26 -17,1.08 -25.31,1.98 -49.63,7.38 -92.55,39.38 -121.28,79.48 -21.3,29.51 -35.81,63.61 -44.63,98.77 -0.54,11.53 -4.47,23.78 -17.97,22.31 -15.98,6.78 -17.96,27.31 -15.03,42.27 0.56,17.13 21.2,18.46 26.26,31.72 -0.68,18.34 3.43,36.68 7.34,54.58 14.13,58.47 46.61,114.29 96.8,148.75 34.52,23.94 77.89,34.66 119.47,27.24 z M 440.08,758.1 c -13.95,-1.68 -27.08,-6.5 -39.57,-12.77 -11.96,-4.71 -22.85,-11.16 -33.45,-18.39 -10.89,-6.65 -14.3,-19.66 -22.29,-29.01 -8.07,-14.61 -15.51,-30.31 -15.62,-47.41 -2.91,-10.53 0.66,-25.01 -2.32,-33.1 -10.83,-0.44 -22.57,6.01 -32.71,1.09 -5.38,-9.83 14.46,0.62 19.86,-3.42 13.25,-1.34 26.7,-8.84 31.49,-21.82 1.8,-5.79 10.37,-10.93 6.05,-0.85 -3.22,12.59 -18.99,17.68 -20.04,30.77 0.29,12.36 1.14,24.81 2.84,37.07 1.55,12.01 7.85,22.16 13.23,32.71 8.73,15.37 19.17,31.64 36.31,38.45 11.73,7.46 24.8,11.96 37.4,17.58 11.94,2.93 24.69,7.16 36.8,2.71 17.78,-5.97 34.78,-14.09 50.03,-25.05 12.12,-6.14 20.76,-16.2 27.03,-28.04 6.45,-11.07 12.06,-22.77 15.85,-35.04 3.49,-14.38 2.61,-29.52 2.63,-44.13 -0.75,-11.05 -6.15,-20.42 -14.68,-27.17 -4.51,-3.06 -12.62,-20.64 -3.03,-10.94 7.23,10.02 16.57,20.84 30.28,18.9 11.79,0.63 24.37,0.78 35.02,-5.08 8.6,5.03 -10.89,9.53 -15.59,8.97 -9.17,2.51 -25.09,-2.72 -30.02,3.4 3.42,15.41 2.36,31.38 1.27,46.99 -3.11,22.96 -15.83,43.16 -27.99,62.3 -11.39,11.5 -26.12,18.96 -39.93,27.11 -13.64,6.16 -27.55,13.28 -42.65,14.69 -2.07,0.05 -4.16,-0.11 -6.2,-0.52 z M 629.93,575.49 c 0.48,-9.64 19.35,6.84 20.07,-7.5 4.16,-8.73 6.77,-31.55 -6.39,-31.22 -3.75,2.04 -17.81,10.73 -10.73,0.64 10.63,-11.05 27.95,-2.82 24.5,12.71 0.31,11.22 -1.92,29.78 -16.97,28.17 -3.63,0 -7.53,-0.49 -10.48,-2.8 z M 238.1,566.07 c -7.81,-10.5 -11.98,-25.87 -3.9,-37.18 4.35,-6.19 22.1,1.4 13.76,4.71 -14.11,-7.17 -17.41,15.27 -10.54,23.61 1.89,8.4 10.78,4.39 13.56,3.35 2.68,6.13 -9.64,9.67 -12.88,5.51 z m 219.79,-52.52 c -13.39,-11.05 13.25,-27.88 18.03,-11.49 4.39,10.27 -10.71,20.63 -18.03,11.49 z m -39,-9 c -13.39,-11.05 13.25,-27.88 18.03,-11.49 4.39,10.27 -10.71,20.63 -18.03,11.49 z m 79.6,-22.91 c -5.76,-6.06 -25.99,-9.28 -23.25,-16.03 10.01,0.82 26.14,8 28.22,16.46 -1.47,1.03 -3.62,0.58 -4.97,-0.43 z m -106.67,-6.27 c 7.29,-10.57 21.27,-13.07 32.36,-17.72 4.82,9.7 -14.84,8.05 -19.55,14.74 -3.74,2.19 -8.39,5 -12.81,2.98 z M 453.75,330.2 c 0.63,-14.58 28.1,-6.35 23.42,-23.94 -2.9,-6.63 -3.32,-15.72 5.83,-15.89 7.95,-11.49 -12.3,-19.38 -11.34,-30.18 -12.41,-3.48 -16.66,15.62 -3.48,18.01 3.69,8.64 -10.72,17.01 -1.64,25.68 -2,11.43 -30.94,9.41 -18.82,26.69 1.55,2.01 4.69,1.74 6.03,-0.37 z" />
        <path
           id="path1908"
           style="fill:#000000"
           d="m 440.08,758.1 c -13.95,-1.68 -27.08,-6.5 -39.57,-12.77 -11.96,-4.71 -22.85,-11.16 -33.45,-18.39 -10.89,-6.65 -14.3,-19.66 -22.29,-29.01 -8.07,-14.61 -15.51,-30.31 -15.62,-47.41 -2.91,-10.53 0.66,-25.01 -2.32,-33.1 -10.83,-0.44 -22.57,6.01 -32.71,1.09 -5.38,-9.83 14.46,0.62 19.86,-3.42 13.25,-1.34 26.7,-8.84 31.49,-21.82 1.8,-5.79 10.37,-10.93 6.05,-0.85 -3.22,12.59 -18.99,17.68 -20.04,30.77 0.29,12.36 1.14,24.81 2.84,37.07 1.55,12.01 7.85,22.16 13.23,32.71 8.73,15.37 19.17,31.64 36.31,38.45 11.73,7.46 24.8,11.96 37.4,17.58 11.94,2.93 24.69,7.16 36.8,2.71 17.78,-5.97 34.78,-14.09 50.03,-25.05 12.12,-6.14 20.76,-16.2 27.03,-28.04 6.45,-11.07 12.06,-22.77 15.85,-35.04 3.49,-14.38 2.61,-29.52 2.63,-44.13 -0.75,-11.05 -6.15,-20.42 -14.68,-27.17 -4.51,-3.06 -12.62,-20.64 -3.03,-10.94 7.23,10.02 16.57,20.84 30.28,18.9 11.79,0.63 24.37,0.78 35.02,-5.08 8.6,5.03 -10.89,9.53 -15.59,8.97 -9.17,2.51 -25.09,-2.72 -30.02,3.4 3.42,15.41 2.36,31.38 1.27,46.99 -3.11,22.96 -15.83,43.16 -27.99,62.3 -11.39,11.5 -26.12,18.96 -39.93,27.11 -13.64,6.16 -27.55,13.28 -42.65,14.69 -2.07,0.05 -4.16,-0.11 -6.2,-0.52 z" />
        <path
           id="path1906"
           style="fill:#000000"
           d="m 629.93,575.49 c 0.48,-9.64 19.35,6.84 20.07,-7.5 4.16,-8.73 6.77,-31.55 -6.39,-31.22 -3.75,2.04 -17.81,10.73 -10.73,0.64 10.63,-11.05 27.95,-2.82 24.5,12.71 0.31,11.22 -1.92,29.78 -16.97,28.17 -3.63,0 -7.53,-0.49 -10.48,-2.8 z" />
        <path
           id="path1904"
           style="fill:#000000"
           d="m 238.1,566.07 c -7.81,-10.5 -11.98,-25.87 -3.9,-37.18 4.35,-6.19 22.1,1.4 13.76,4.71 -14.11,-7.17 -17.41,15.27 -10.54,23.61 1.89,8.4 10.78,4.39 13.56,3.35 2.68,6.13 -9.64,9.67 -12.88,5.51 z" />
        <path
           id="path1902"
           style="fill:#000000"
           d="m 457.89,513.55 c -13.39,-11.05 13.25,-27.88 18.03,-11.49 4.39,10.27 -10.71,20.63 -18.03,11.49 z" />
        <path
           id="path1900"
           style="fill:#000000"
           d="m 418.89,504.55 c -13.39,-11.05 13.25,-27.88 18.03,-11.49 4.39,10.27 -10.71,20.63 -18.03,11.49 z" />
        <path
           id="path1898"
           style="fill:#000000"
           d="m 498.49,481.64 c -5.76,-6.06 -25.99,-9.28 -23.25,-16.03 10.01,0.82 26.14,8 28.22,16.46 -1.47,1.03 -3.62,0.58 -4.97,-0.43 z" />
        <path
           id="path1896"
           style="fill:#000000"
           d="m 391.82,475.37 c 7.29,-10.57 21.27,-13.07 32.36,-17.72 4.82,9.7 -14.84,8.05 -19.55,14.74 -3.74,2.19 -8.39,5 -12.81,2.98 z" />
        <path
           id="path1892"
           style="fill:#947968"
           d="m 453.75,330.2 c 0.63,-14.58 28.1,-6.35 23.42,-23.94 -2.9,-6.63 -3.32,-15.72 5.83,-15.89 7.95,-11.49 -12.3,-19.38 -11.34,-30.18 -12.41,-3.48 -16.66,15.62 -3.48,18.01 3.69,8.64 -10.72,17.01 -1.64,25.68 -2,11.43 -30.94,9.41 -18.82,26.69 1.55,2.01 4.69,1.74 6.03,-0.37 z" />
      </g>
    </g>
  </g>
  <metadata
     id="metadata31">
    <rdf:RDF>
      <cc:Work>
        <dc:format>image/svg+xml</dc:format>
        <dc:type
           rdf:resource="http://purl.org/dc/dcmitype/StillImage" />
        <cc:license
           rdf:resource="http://creativecommons.org/licenses/publicdomain/" />
        <dc:publisher>
          <cc:Agent
             rdf:about="http://openclipart.org/">
            <dc:title>Openclipart</dc:title>
          </cc:Agent>
        </dc:publisher>
        <dc:title>Baby boy crawling</dc:title>
        <dc:date>2007-09-09T08:01:04</dc:date>
        <dc:description>I rounded the face a bit, then added a simple body.</dc:description>
        <dc:source>https://openclipart.org/detail/5334/baby-boy-crawling-by-papapishu</dc:source>
        <dc:creator>
          <cc:Agent>
            <dc:title>papapishu</dc:title>
          </cc:Agent>
        </dc:creator>
        <dc:subject>
          <rdf:Bag>
            <rdf:li>baby</rdf:li>
            <rdf:li>boy</rdf:li>
            <rdf:li>child</rdf:li>
            <rdf:li>crawling</rdf:li>
            <rdf:li>infant</rdf:li>
            <rdf:li>people</rdf:li>
            <rdf:li>remix</rdf:li>
            <rdf:li>smiling</rdf:li>
            <rdf:li>worldlabel</rdf:li>
          </rdf:Bag>
        </dc:subject>
      </cc:Work>
      <cc:License
         rdf:about="http://creativecommons.org/licenses/publicdomain/">
        <cc:permits
           rdf:resource="http://creativecommons.org/ns#Reproduction" />
        <cc:permits
           rdf:resource="http://creativecommons.org/ns#Distribution" />
        <cc:permits
           rdf:resource="http://creativecommons.org/ns#DerivativeWorks" />
      </cc:License>
    </rdf:RDF>
  </metadata>
</svg>
