<svg xmlns="http://www.w3.org/2000/svg" width="136.58" height="124.777" viewBox="0 0 174.823 159.715" xmlns:v="https://vecta.io/nano"><path d="M173.987 91.976c1.194 1.312 1.096 3.367-.215 4.562-.626.568-1.39.842-2.173.842-.313 0-.959-.137-.959-.137-1.684-.529-3.465.039-4.699 1.41 1.645 3.72 2.506 7.831 2.506 12.001a3.21 3.21 0 0 1-1.057 2.388c-.626.568-1.39.842-2.173.842-.881 0-1.762-.352-2.388-1.057-2.937-3.25-6.813-5.031-10.905-5.031s-7.968 1.782-10.905 5.031l-.039.039c-4.17 4.581-9.73 7.107-15.662 7.107a20.38 20.38 0 0 1-7.361-1.37c-2.604 1.958-5.619 3.25-8.81 3.818v13.039h.431c5.051 0 9.143 4.111 9.143 9.143v2.76a6.38 6.38 0 0 1-6.363 6.363h-11.707c-.196 3.328-2.976 5.991-6.343 5.991H74.963a9.17 9.17 0 0 1-9.143-9.143v-27.84H43.325v12.726h.431c5.051 0 9.143 4.111 9.143 9.143v2.76a6.38 6.38 0 0 1-6.363 6.363H34.829a6.37 6.37 0 0 1-6.343 5.991H9.143c-5.051 0-9.143-4.111-9.143-9.143v-40.056-88.609C0 9.828 9.828 0 21.907 0s21.907 9.828 21.907 21.907V54.72a69.04 69.04 0 0 1 24.394-4.444c5.54 0 11.042.666 16.387 1.958-7.283-8.497-9.104-18.09-4.072-23.121 1.84-1.84 4.405-2.819 7.4-2.819h.02c5.619 0 12.334 3.367 17.972 8.986.94.94 1.821 1.899 2.623 2.898 5.188-2.056 10.826-3.113 16.798-3.113s11.61 1.057 16.798 3.113c.803-.998 1.684-1.977 2.623-2.898 5.638-5.638 12.354-8.986 17.972-8.986h.02c2.995 0 5.56.979 7.4 2.839 5.462 5.462 2.819 16.367-6.167 25.373-.411.411-.822.803-1.253 1.194 5.09 8.183 7.87 18.149 7.87 28.446 0 1.292-.215 4.111-.274 4.307a44.09 44.09 0 0 1 3.661 3.524z" fill="#633"/><path d="M165.021 34.202c1.84 1.84.372 8.693-6.167 15.231-.137.137-.294.294-.45.431-2.858-3.309-6.089-6.089-9.711-8.34.352-.392.724-.783 1.096-1.155 4.19-4.19 9.241-6.891 12.902-6.891.744.02 1.742.137 2.33.724z" fill="#b2abac"/><path d="M158.873 63.706c2.682 5.658 4.229 12.06 4.464 18.677-4.836-3.348-10.533-5.286-16.563-5.58-.117-.02-.235-.02-.352-.039-2.114-.078-4.072-.959-5.521-2.506s-2.193-3.563-2.134-5.678c.137-4.288 3.661-7.655 7.909-7.655h.274c4.17.137 8.183 1.077 11.923 2.78zm5.227 28.231c-1.938 1.077-3.622 2.76-4.757 4.953a3.24 3.24 0 0 0 0 2.995 22.29 22.29 0 0 1 1.468 3.524c-2.78-1.351-5.795-2.056-8.927-2.056-5.952 0-11.512 2.545-15.701 7.146-2.937 3.23-6.813 5.012-10.905 5.012-4.111 0-7.968-1.782-10.905-5.031-1.038-1.155-2.173-2.173-3.367-3.054-1.214-.881-2.486-1.625-3.818-2.232-2.663-1.214-5.54-1.84-8.516-1.84-3.132 0-6.147.705-8.927 2.056.392-1.214.881-2.408 1.468-3.524.47-.901.509-2.016.02-2.995-1.136-2.193-2.8-3.876-4.757-4.953 3.916-2.584 8.399-3.955 13.058-3.955 6.128 0 11.942 2.388 16.582 6.754-.724 1.253-1.136 2.682-1.136 4.209 0 5.071 4.62 9.221 10.298 9.221s10.298-4.131 10.298-9.221a8.35 8.35 0 0 0-1.214-4.346c4.66-4.307 10.454-6.676 16.563-6.676 4.718 0 9.221 1.39 13.176 4.013z" fill="#fff"/><path d="M146.813 65.272c1.977.059 3.524 1.723 3.465 3.7s-1.723 3.524-3.7 3.465-3.524-1.723-3.465-3.7 1.723-3.544 3.7-3.465z" fill="#633"/><path d="M141.704 45.871c4.542 2.193 8.516 5.325 11.825 9.339-2.075-.431-4.19-.666-6.363-.744-7.909-.255-14.585 5.971-14.859 13.9-.137 3.837 1.253 7.498 3.876 10.317a14.45 14.45 0 0 0 6.421 3.974c-4.894 1.41-9.417 4.072-13.254 7.812-1.253-.47-2.604-.744-4.053-.744-1.507 0-2.917.294-4.209.803-3.818-3.759-8.34-6.421-13.215-7.831a14.3 14.3 0 0 0 6.617-4.033c2.623-2.8 3.994-6.461 3.876-10.317a14.42 14.42 0 0 0-14.859-13.9c-2.193.078-4.346.333-6.461.764 3.309-4.013 7.283-7.165 11.825-9.358a.94.94 0 0 1 .137-.059c4.894-2.349 10.376-3.524 16.289-3.524 5.893 0 11.375 1.194 16.269 3.524.059.039.098.059.137.078z" fill="#b2abac"/><path d="M111.906 68.581c.078 2.114-.685 4.131-2.134 5.678s-3.407 2.428-5.521 2.506c-.117 0-.235.02-.352.039-6.069.274-11.786 2.232-16.641 5.638.215-6.617 1.762-13.019 4.444-18.697a31.25 31.25 0 0 1 12.021-2.819c4.366-.157 8.046 3.289 8.183 7.655z" fill="#fff"/><path d="M111.534 144.601v1.977H99.709c-1.507-3.035-4.64-5.129-8.203-5.129h-.45v-18.697h10.885v16.308c0 1.977 1.605 3.583 3.583 3.583h4.033c1.096-.02 1.977.861 1.977 1.958zm-1.918-31.775l1.507 1.527c-1.742.783-3.641 1.214-5.58 1.214h-18.07c-1.977 0-3.583 1.605-3.583 3.583v25.862c0 1.977 1.605 3.583 3.583 3.583h4.033a1.98 1.98 0 0 1 1.958 1.821v2.134h-18.52c-1.077 0-1.977-.881-1.977-1.977V119.13c0-1.977-1.605-3.583-3.583-3.583H35.259a3.58 3.58 0 0 0-3.465 2.682c-1.801 6.911-6.108 12.921-12.099 16.896-.998.666-1.605 1.782-1.605 2.995v6.891c0 1.977 1.605 3.583 3.583 3.583h4.033a1.98 1.98 0 0 1 1.958 1.821v2.134H9.123c-1.077 0-1.977-.881-1.977-1.977v-40.173c0-.137 1.233-6.813 2.212-9.867a61.48 61.48 0 0 1 8.242-16.7 66.19 66.19 0 0 1 3.387-4.425c3.504-4.15 7.518-7.831 11.962-10.905C43.306 61.278 55.483 57.46 68.15 57.46a62.01 62.01 0 0 1 17.189 2.428c.059.02.117.02.176.039-3.583 7.283-5.521 15.643-5.521 24.218a45.97 45.97 0 0 0 .157 3.7 3.12 3.12 0 0 0 .117.607 36.55 36.55 0 0 0-3.7 3.504c-1.194 1.312-1.096 3.367.215 4.562a3.2 3.2 0 0 0 3.132.685v.02c1.684-.529 3.465.039 4.699 1.41-1.625 3.681-2.467 7.753-2.486 11.884v.117c0 1.782 1.449 3.23 3.23 3.23.959 0 1.801-.411 2.388-1.057.02-.02.039-.039.059-.078 2.937-3.191 6.774-4.953 10.846-4.953 4.15.02 8.027 1.801 10.964 5.051z" fill="#b2abac"/><path d="M107.58 68.737c.078 1.977-1.488 3.641-3.465 3.7s-3.641-1.488-3.7-3.465 1.488-3.641 3.465-3.7c1.977-.078 3.622 1.488 3.7 3.465z" fill="#633"/><path d="M100.806 40.389l1.096 1.155c-3.622 2.232-6.852 5.031-9.711 8.34-.157-.137-.294-.294-.45-.431-6.539-6.539-8.027-13.391-6.167-15.231.587-.587 1.586-.705 2.33-.724 3.661 0 8.712 2.702 12.902 6.891zM45.734 144.601v1.977H33.909c-1.507-3.035-4.64-5.129-8.203-5.129h-.431V140c4.64-3.446 8.34-7.929 10.885-13.039v12.079c0 1.977 1.605 3.583 3.583 3.583h4.013a1.97 1.97 0 0 1 1.977 1.977z" fill="#b2abac"/><path d="M42.856 72.849c1.057 1.664.587 3.896-1.096 4.953a49.5 49.5 0 0 0-5.756 4.307 49.27 49.27 0 0 0-13.509 19.147l-.744 1.997c-.509 1.488-1.899 2.428-3.387 2.428a3.33 3.33 0 0 1-1.155-.196c-1.879-.646-2.878-2.682-2.232-4.562l.842-2.291c3.289-8.399 8.653-15.995 15.486-21.927 2.075-1.801 4.288-3.465 6.617-4.953 1.664-1.057 3.876-.587 4.934 1.096z" fill="#633"/><path d="M36.63 44.187v6.852c-1.723.901-6.911 2.173-14.722 2.173s-13-1.273-14.722-2.173v-6.852l.881.235c3.739.959 8.653 1.488 13.841 1.488s10.102-.529 13.841-1.488z" fill="#b2abac"/><path d="M36.63 29.699v6.872c-1.723.901-6.911 2.173-14.722 2.173s-12.98-1.273-14.722-2.173v-6.872c.294.078.587.176.881.235 3.739.959 8.653 1.488 13.841 1.488s10.102-.529 13.841-1.488z" fill="#fff"/><path d="M36.63 21.907v.176c-1.723.901-6.911 2.173-14.722 2.173s-13-1.292-14.722-2.173v-.176c0-8.125 6.617-14.722 14.722-14.722S36.63 13.783 36.63 21.907z" fill="#b2abac"/><path d="M34.183 59.262l-5.286 3.348c-2.251 1.566-4.405 3.269-6.441 5.09h-.548c-7.812 0-12.98-1.273-14.722-2.173v-6.872c.294.078.587.176.881.235 3.739.959 8.653 1.488 13.841 1.488 4.483.02 8.79-.392 12.275-1.116z" fill="#fff"/><path d="M15.701 74.611a1.27 1.27 0 0 1-.157.176l-3.798 4.934c-1.684 2.428-3.23 4.934-4.581 7.537V73.162l.979.255c2.193.548 4.757.94 7.557 1.194z" fill="#b2abac"/><g fill="#fe6865"><path d="M125.297 96.185c2.075 0 3.837 1.253 3.837 2.76s-1.762 2.76-3.837 2.76-3.837-1.253-3.837-2.76 1.762-2.76 3.837-2.76z"/><path d="M129.135 98.946c0-1.488-1.762-2.76-3.837-2.76s-3.837 1.253-3.837 2.76 1.762 2.76 3.837 2.76c2.075-.02 3.837-1.273 3.837-2.76z"/></g></svg>