<svg version="1.0" width="117.026" height="117.161" xmlns:xlink="http://www.w3.org/1999/xlink" xmlns="http://www.w3.org/2000/svg"><defs><radialGradient id="prefix__b" gradientUnits="userSpaceOnUse" cy="506.35" cx="210.89" gradientTransform="matrix(1.4028 0 0 .20588 -89.845 403.11)" r="68"><stop offset="0"/><stop offset="1" stop-opacity="0"/></radialGradient><radialGradient id="prefix__e" xlink:href="#prefix__a" gradientUnits="userSpaceOnUse" cy="497.96" cx="216.99" gradientTransform="matrix(.7158 1.4128 -1.3538 .68592 735.84 -155.77)" r="65"/><radialGradient id="prefix__g" xlink:href="#prefix__a" gradientUnits="userSpaceOnUse" cy="409.86" cx="233.5" gradientTransform="matrix(.3871 1.5161 -1.4234 .36342 726.51 -93.107)" r="15.5"/><radialGradient id="prefix__d" xlink:href="#prefix__a" gradientUnits="userSpaceOnUse" cy="395.88" cx="265.02" gradientTransform="matrix(.81099 .32127 -1.2243 3.0905 528.32 -908.84)" r="15.981"/><radialGradient id="prefix__j" xlink:href="#prefix__a" gradientUnits="userSpaceOnUse" cy="401.41" cx="151.56" gradientTransform="matrix(1 -.51654 .98959 1.9158 -396.84 -288.39)" r="17.986"/><radialGradient id="prefix__k" xlink:href="#prefix__a" gradientUnits="userSpaceOnUse" cy="470.88" cx="217.88" gradientTransform="matrix(1.6769 -.02418 .07016 4.865 -180.51 -1817.9)" r="3.659"/><radialGradient id="prefix__l" xlink:href="#prefix__a" gradientUnits="userSpaceOnUse" cy="471.2" cx="243.65" gradientTransform="matrix(1.3107 .17788 -.57449 4.2329 195.01 -1569.8)" r="3.385"/><radialGradient xlink:href="#prefix__a" id="prefix__f" gradientUnits="userSpaceOnUse" gradientTransform="matrix(.3871 1.5161 -1.4234 .36342 726.51 -93.107)" cx="233.5" cy="409.86" r="15.5"/><filter id="prefix__h" height="1.682" width="1.696" y="-.341" x="-.348"><feGaussianBlur stdDeviation="5.465"/></filter><filter id="prefix__i" height="1.738" width="2.811" y="-.369" x="-.906"><feGaussianBlur stdDeviation="4.151"/></filter><filter id="prefix__c" height="1.68" width="1.14" y="-.34" x="-.07"><feGaussianBlur stdDeviation="3.968"/></filter><linearGradient id="prefix__a"><stop offset="0" stop-opacity="0"/><stop offset="1" stop-opacity=".572"/></linearGradient></defs><path transform="matrix(.75479 0 0 .61103 -96.973 -207.224)" d="M274 507.36c0 7.73-30.46 14-68 14s-68-6.27-68-14 30.46-14 68-14 68 6.27 68 14z" fill="url(#prefix__b)" filter="url(#prefix__c)"/><path d="M97.154 0c6.352 10.144 15.776 27.09-2.844 43.756-4.427 2.666-12.076-4.513-11.841-9.146C99.492 24.402 98.709 12.304 97.154 0z" fill="#a40" fill-rule="evenodd"/><path d="M263.2 363.17c8.91 14.23 22.13 38-3.99 61.38-6.21 3.74-16.94-6.33-16.61-12.83 23.88-14.32 22.78-31.29 20.6-48.55z" fill="url(#prefix__d)" fill-rule="evenodd" transform="translate(-90.473 -258.893) scale(.71287)"/><path d="M104.853 59.304c0 3.457-.378 26.775-1.098 30.019-1.76 8.882-7.47 13.993-16.046 15.94-3.985.74-8.52-15.555-13.438-15.648-4.919-.093-10.223 16.025-15.754 16.025-5.56 0-10.886-16.125-15.826-16.054-4.94.079-9.488 16.354-13.48 15.584-9.04-1.497-13.773-7.685-15.997-16.14-.678-3.15-1.034-26.376-1.034-29.726 0-25.578 20.759-46.337 46.337-46.337 25.577 0 46.336 20.759 46.336 46.337z" fill="red"/><path transform="translate(-112.572 -319.487) scale(.71287)" d="M305 531.36c0 4.85-.53 37.56-1.54 42.11-2.47 12.46-10.48 19.63-22.51 22.36-5.59 1.04-11.95-21.82-18.85-21.95-6.9-.13-14.34 22.48-22.1 22.48-7.8 0-15.27-22.62-22.2-22.52-6.93.11-13.31 22.94-18.91 21.86-12.68-2.1-19.32-10.78-22.44-22.64-.95-4.42-1.45-37-1.45-41.7 0-35.88 29.12-65 65-65 35.88 0 65 29.12 65 65z" fill="url(#prefix__e)"/><g transform="translate(-86.909 -251.764) scale(.71287)"><circle transform="translate(4 7)" cx="239.5" cy="417.862" r="15.5" fill="#fff"/><circle transform="translate(4 7)" cx="239.5" cy="417.862" r="15.5" fill="url(#prefix__f)"/><circle transform="translate(101.71 169.75) scale(.6129)" cx="239.5" cy="417.862" r="15.5"/></g><g transform="translate(-115.424 -251.764) scale(.71287)"><circle transform="translate(4 7)" cx="239.5" cy="417.862" r="15.5" fill="#fff"/><circle transform="translate(4 7)" cx="239.5" cy="417.862" r="15.5" fill="url(#prefix__g)"/><circle transform="translate(101.71 169.75) scale(.6129)" cx="239.5" cy="417.862" r="15.5"/></g><path d="M180.01 413.25c-10.03 10.27-20.41 16.42-23.17 13.72-2.77-2.7 3.13-13.23 13.15-23.5 10.03-10.27 20.41-16.41 23.17-13.71 2.77 2.7-3.13 13.22-13.15 23.49z" fill="#fff" fill-opacity=".627" filter="url(#prefix__h)" transform="translate(-90.473 -258.893) scale(.71287)"/><path transform="rotate(39.533 504.137 101.291) scale(.71287)" d="M262 501.86c0 7.45-2.46 13.5-5.5 13.5s-5.5-6.05-5.5-13.5 2.46-13.5 5.5-13.5 5.5 6.05 5.5 13.5z" fill="#fff" fill-opacity=".434" filter="url(#prefix__i)"/><path d="M10.968 4.598C6.912 15.854 1.295 34.41 23.016 46.758c4.897 1.667 10.85-6.973 9.638-11.45-18.799-6.365-20.595-18.356-21.686-30.71z" fill="#a40" fill-rule="evenodd"/><path d="M84.037 71.38c-4.983-3.158-9.973-1.49-16.945-.007l-2.33.87c7.392-.236 11.648-2.118 19.047-.257z" fill-rule="evenodd"/><path d="M64.006 71.971c.378 5.226 2.523 8.961 4.32 12.996.399-4.213 1.59-7.792.342-13.316-2.823-.55-3.465.028-4.662.32zM82.383 71.465c-.698 5.19.635 9.289 1.569 13.602 1.247-4.042 3.15-7.3 3.058-12.96-2.652-1.112-3.393-.677-4.627-.642z" fill="#fff" fill-rule="evenodd"/><path d="M142.3 369.62c-5.69 15.79-13.57 41.82 16.9 59.14 6.87 2.34 15.22-9.78 13.52-16.06-26.37-8.93-28.89-25.75-30.42-43.08z" fill="url(#prefix__j)" fill-rule="evenodd" transform="translate(-90.473 -258.893) scale(.71287)"/><path d="M216.7 464.13c.53 7.33 3.54 12.57 6.06 18.23.56-5.91 2.23-10.93.48-18.68-3.96-.77-4.86.04-6.54.45z" fill="url(#prefix__k)" fill-rule="evenodd" transform="translate(-90.473 -258.893) scale(.71287)"/><path d="M242.48 463.42c-.98 7.28.89 13.03 2.2 19.08 1.75-5.67 4.42-10.24 4.29-18.18-3.72-1.56-4.76-.95-6.49-.9z" fill="url(#prefix__l)" fill-rule="evenodd" transform="translate(-90.473 -258.893) scale(.71287)"/></svg>