<svg version="1.1" xmlns="http://www.w3.org/2000/svg" xmlns:xlink="http://www.w3.org/1999/xlink" width="102.67151" height="111.3421" viewBox="0,0,102.67151,111.3421"><defs><radialGradient cx="239.99352" cy="224.20587" r="71.99941" gradientUnits="userSpaceOnUse" id="color-1"><stop offset="0" stop-color="#000000"/><stop offset="1" stop-color="#000000" stop-opacity="0"/></radialGradient><radialGradient cx="275.3423" cy="147.51072" r="9.93765" gradientUnits="userSpaceOnUse" id="color-2"><stop offset="0" stop-color="#000000" stop-opacity="0"/><stop offset="1" stop-color="#000000" stop-opacity="0.57196"/></radialGradient><radialGradient cx="223.62396" cy="152.91719" r="73.38711" gradientUnits="userSpaceOnUse" id="color-3"><stop offset="0" stop-color="#000000" stop-opacity="0"/><stop offset="1" stop-color="#000000" stop-opacity="0.57196"/></radialGradient><radialGradient cx="263.88681" cy="166.81777" r="17.28955" gradientUnits="userSpaceOnUse" id="color-4"><stop offset="0" stop-color="#000000" stop-opacity="0"/><stop offset="1" stop-color="#000000" stop-opacity="0.57196"/></radialGradient><radialGradient cx="235.37201" cy="166.81777" r="17.28955" gradientUnits="userSpaceOnUse" id="color-5"><stop offset="0" stop-color="#000000" stop-opacity="0"/><stop offset="1" stop-color="#000000" stop-opacity="0.57196"/></radialGradient><radialGradient cx="199.33513" cy="149.3459" r="14.43116" gradientUnits="userSpaceOnUse" id="color-6"><stop offset="0" stop-color="#000000" stop-opacity="0"/><stop offset="1" stop-color="#000000" stop-opacity="0.57196"/></radialGradient><radialGradient cx="246.3401" cy="195.90911" r="4.37471" gradientUnits="userSpaceOnUse" id="color-7"><stop offset="0" stop-color="#000000" stop-opacity="0"/><stop offset="1" stop-color="#000000" stop-opacity="0.57196"/></radialGradient><radialGradient cx="264.71317" cy="196.20891" r="3.19161" gradientUnits="userSpaceOnUse" id="color-8"><stop offset="0" stop-color="#000000" stop-opacity="0"/><stop offset="1" stop-color="#000000" stop-opacity="0.57196"/></radialGradient></defs><g transform="translate(-188.65399,-121.41959)"><g data-paper-data="{&quot;isPaintingLayer&quot;:true}" stroke="none" stroke-width="1" stroke-linecap="butt" stroke-linejoin="miter" stroke-miterlimit="10" stroke-dasharray="" stroke-dashoffset="0" style="mix-blend-mode: normal"><path d="M291.3255,224.20729c0,4.72326 -22.9908,8.55441 -51.3255,8.55441c-28.33469,0 -51.3255,-3.83115 -51.3255,-8.55441c0,-4.72326 22.9908,-8.55441 51.3255,-8.55441c28.33469,0 51.3255,3.83115 51.3255,8.55441z" fill="url(#color-1)" fill-rule="nonzero"/><path d="M278.64098,121.41959c6.35167,10.14414 15.77581,27.08906 -2.84435,43.75596c-4.42692,2.66613 -12.07602,-4.51247 -11.84077,-9.14612c17.02334,-10.2083 16.23918,-22.3057 14.68512,-34.60984z" fill="#aa4400" fill-rule="evenodd"/><path d="M278.64098,121.41959c6.35167,10.14414 15.77581,27.08906 -2.84435,43.75596c-4.42692,2.66613 -12.07602,-4.51247 -11.84077,-9.14612c17.02334,-10.2083 16.23918,-22.3057 14.68512,-34.60984z" fill="url(#color-2)" fill-rule="evenodd"/><path d="M286.33997,180.72325c0,3.45742 -0.37782,26.7754 -1.09782,30.01896c-1.76079,8.88236 -7.47088,13.99364 -16.0467,15.93977c-3.98494,0.74138 -8.5188,-15.55482 -13.4376,-15.6475c-4.9188,-0.09267 -10.22256,16.02532 -15.75443,16.02532c-5.56039,0 -10.88552,-16.12512 -15.82571,-16.05383c-4.94019,0.07842 -9.4883,16.35324 -13.48037,15.58334c-9.03919,-1.49703 -13.77265,-7.68474 -15.9968,-16.13938c-0.67723,-3.15089 -1.03366,-26.37619 -1.03366,-29.72668c0,-25.57778 20.75877,-46.33655 46.33655,-46.33655c25.57778,0 46.33655,20.75877 46.33655,46.33655z" fill="#ff0000" fill-rule="nonzero"/><path d="M286.33997,180.72325c0,3.45742 -0.37782,26.7754 -1.09782,30.01896c-1.76079,8.88236 -7.47088,13.99364 -16.0467,15.93977c-3.98494,0.74138 -8.5188,-15.55482 -13.4376,-15.6475c-4.9188,-0.09267 -10.22256,16.02532 -15.75443,16.02532c-5.56039,0 -10.88552,-16.12512 -15.82571,-16.05383c-4.94019,0.07842 -9.4883,16.35324 -13.48037,15.58334c-9.03919,-1.49703 -13.77265,-7.68474 -15.9968,-16.13938c-0.67723,-3.15089 -1.03366,-26.37619 -1.03366,-29.72668c0,-25.57778 20.75877,-46.33655 46.33655,-46.33655c25.57778,0 46.33655,20.75877 46.33655,46.33655z" fill="url(#color-3)" fill-rule="nonzero"/><g fill-rule="nonzero"><path d="M257.1123,172.5268c0,-6.10246 4.94702,-11.04949 11.04949,-11.04949c6.10246,0 11.04949,4.94702 11.04949,11.04949c0,6.10246 -4.94702,11.04949 -11.04949,11.04949c-6.10246,0 -11.04949,-4.94702 -11.04949,-11.04949z" fill="#ffffff"/><path d="M257.1123,172.5268c0,-6.10246 4.94702,-11.04949 11.04949,-11.04949c6.10246,0 11.04949,4.94702 11.04949,11.04949c0,6.10246 -4.94702,11.04949 -11.04949,11.04949c-6.10246,0 -11.04949,-4.94702 -11.04949,-11.04949z" fill="url(#color-4)"/><path d="M264.95359,173.2365c0,-3.7402 3.03203,-6.77223 6.77223,-6.77223c3.7402,0 6.77223,3.03203 6.77223,6.77223c0,3.7402 -3.03203,6.77223 -6.77223,6.77223c-3.7402,0 -6.77223,-3.03203 -6.77223,-6.77223z" fill="#000000"/></g><g fill-rule="nonzero"><path d="M228.5975,172.5268c0,-6.10246 4.94702,-11.04949 11.04949,-11.04949c6.10246,0 11.04949,4.94702 11.04949,11.04949c0,6.10246 -4.94702,11.04949 -11.04949,11.04949c-6.10246,0 -11.04949,-4.94702 -11.04949,-11.04949z" fill="#ffffff"/><path d="M228.5975,172.5268c0,-6.10246 4.94702,-11.04949 11.04949,-11.04949c6.10246,0 11.04949,4.94702 11.04949,11.04949c0,6.10246 -4.94702,11.04949 -11.04949,11.04949c-6.10246,0 -11.04949,-4.94702 -11.04949,-11.04949z" fill="url(#color-5)"/><path d="M236.43879,173.2365c0,-3.7402 3.03203,-6.77223 6.77223,-6.77223c3.7402,0 6.77223,3.03203 6.77223,6.77223c0,3.7402 -3.03203,6.77223 -6.77223,6.77223c-3.7402,0 -6.77223,-3.03203 -6.77223,-6.77223z" fill="#000000"/></g><path d="M219.33732,157.12012c-7.15009,7.32117 -14.54968,11.70533 -16.5172,9.78058c-1.97465,-1.92475 2.23128,-9.43127 9.37424,-16.75245c7.15009,-7.32117 14.54968,-11.6982 16.5172,-9.77345c1.97465,1.92475 -2.23128,9.42414 -9.37424,16.74532z" fill-opacity="0.62745" fill="#ffffff" fill-rule="nonzero"/><path d="M277.6046,218.50663c-3.38048,4.09607 -7.47824,6.30617 -9.14965,4.92675c-1.67142,-1.37942 -0.27872,-5.822 3.10176,-9.91807c3.38048,-4.09607 7.47824,-6.30617 9.14965,-4.92675c1.67142,1.37942 0.27872,5.822 -3.10176,9.91807z" fill-opacity="0.43439" fill="#ffffff" fill-rule="nonzero"/><path d="M214.1405,156.72804c1.21188,4.47682 -4.74059,13.11681 -9.638,11.44869c-21.72115,-12.34691 -16.10373,-30.90291 -12.0475,-42.15913c1.09069,12.35404 2.88712,24.34451 21.68551,30.71044z" fill="#aa4400" fill-rule="evenodd"/><path d="M265.29605,193.40521c-7.39959,-1.86059 -11.65542,0.02139 -19.04789,0.25663l2.33108,-0.8697c6.97187,-1.48277 11.96196,-3.15089 16.94492,0.00713z" fill="#000000" fill-rule="evenodd"/><path d="M250.15469,193.07016c1.24752,5.52474 0.05703,9.10335 -0.34218,13.31641c-1.79643,-4.03484 -3.94217,-7.77028 -4.31999,-12.99562c1.19762,-0.29228 1.8392,-0.8697 4.66217,-0.32079z" fill="#ffffff" fill-rule="evenodd"/><path d="M268.49684,193.52639c0.09267,5.66019 -1.81069,8.918 -3.05821,12.95998c-0.93386,-4.31286 -2.26693,-8.41187 -1.56831,-13.60156c1.23327,-0.03564 1.97465,-0.47049 4.62653,0.64158z" fill="#ffffff" fill-rule="evenodd"/><path d="M214.1405,156.72804c1.21188,4.47682 -4.74059,13.11681 -9.638,11.44869c-21.72115,-12.34691 -16.10373,-30.90291 -12.0475,-42.15913c1.09069,12.35404 2.88712,24.34451 21.68551,30.71044z" fill="url(#color-6)" fill-rule="evenodd"/><path d="M250.15469,193.07016c1.24752,5.52474 0.05703,9.10335 -0.34218,13.31641c-1.79643,-4.03484 -3.94217,-7.77028 -4.31999,-12.99562c1.19762,-0.29228 1.8392,-0.8697 4.66217,-0.32079z" fill="url(#color-7)" fill-rule="evenodd"/><path d="M268.49684,193.52639c0.09267,5.66019 -1.81069,8.918 -3.05821,12.95998c-0.93386,-4.31286 -2.26693,-8.41187 -1.56831,-13.60156c1.23327,-0.03564 1.97465,-0.47049 4.62653,0.64158z" fill="url(#color-8)" fill-rule="evenodd"/></g></g></svg>