<?xml version="1.0" encoding="UTF-8" standalone="no"?>
<!-- Uploaded to: SVG Repo, www.svgrepo.com, Generator: SVG Repo Mixer Tools -->

<svg
   width="140"
   height="122.99201"
   viewBox="0 0 179.2 157.42978"
   class="icon"
   version="1.1"
   id="svg907"
   sodipodi:docname="garden-svgrepo-com.svg"
   inkscape:version="1.2.2 (732a01da63, 2022-12-09)"
   xmlns:inkscape="http://www.inkscape.org/namespaces/inkscape"
   xmlns:sodipodi="http://sodipodi.sourceforge.net/DTD/sodipodi-0.dtd"
   xmlns="http://www.w3.org/2000/svg"
   xmlns:svg="http://www.w3.org/2000/svg">
  <defs
     id="defs911" />
  <sodipodi:namedview
     id="namedview909"
     pagecolor="#ffffff"
     bordercolor="#000000"
     borderopacity="0.25"
     inkscape:showpageshadow="2"
     inkscape:pageopacity="0.0"
     inkscape:pagecheckerboard="0"
     inkscape:deskcolor="#d1d1d1"
     showgrid="false"
     inkscape:zoom="1.04625"
     inkscape:cx="350.77658"
     inkscape:cy="309.67742"
     inkscape:window-width="1920"
     inkscape:window-height="1017"
     inkscape:window-x="1912"
     inkscape:window-y="-8"
     inkscape:window-maximized="1"
     inkscape:current-layer="svg907" />
  <path
     d="m 133.67146,88.148955 v -3.51294 c 2.57483,-4.67062 4.05186,-10.01987 4.05186,-15.7284 0,-17.94395 -14.55076,-32.49472 -32.49472,-32.49472 -3.11374,0 -6.14765,0.45908 -9.00191,1.27743 -5.90813,-6.18757 -14.25137,-10.05979 -23.49281,-10.05979 -17.94395,0 -32.49472,14.55077 -32.49472,32.49472 0,6.54685 1.93611,12.63462 5.26942,17.74435 v 10.29931 c -17.943955,0 -32.494724,14.550765 -32.494724,32.494715 0,17.94396 14.550769,32.49473 32.494724,32.49473 h 88.14292 c 17.94396,0 32.49472,-14.55077 32.49472,-32.49473 0.02,-17.96391 -14.5308,-32.514675 -32.47476,-32.514675 z"
     fill="#218649"
     id="path837"
     style="stroke-width:0.199599" />
  <path
     d="m 144.01069,119.486 v -10.87815 c 3.57283,-0.55887 6.94605,-1.59679 10.01987,-3.01394 -0.0399,0.33932 -0.0599,0.6986 -0.0599,1.05787 a 8.7823569,8.7823569 0 0 0 1.17764,4.41114 z M 133.67146,88.148955 v -3.51294 c 2.57483,-4.67062 4.05186,-10.01987 4.05186,-15.7284 0,-6.06781 -1.67663,-11.73642 -4.57081,-16.60664 -16.60664,1.85627 -29.44086,13.81225 -29.44086,28.28318 0,13.93201 11.8961,25.548675 27.62451,28.023695 v 44.53055 h 2.31534 c 3.61275,0 7.08577,-0.5988 10.31927,-1.67664 v -24.79019 l 15.34917,-11.63663 c 1.55687,0.7984 3.3333,1.25748 5.24945,1.25748 0.41916,0 0.83832,-0.02 1.25748,-0.0599 -2.11575,-15.86813 -15.70845,-28.083585 -32.15541,-28.083585 z M 45.00958,119.486 33.891914,111.04296 a 8.7823569,8.7823569 0 0 0 1.177634,-4.41114 c 0,-0.35927 -0.01996,-0.71855 -0.05988,-1.05787 3.073822,1.41715 6.447052,2.45507 10.019872,3.01394 z m 6.32729,-67.444505 c -3.6327,0 -7.12569,0.47904 -10.39911,1.35727 -0.45908,2.15567 -0.6986,4.39118 -0.6986,6.70653 0,6.54685 1.93611,12.63462 5.26942,17.74435 v 10.29931 c -8.522882,0 -16.287283,3.29339 -22.095615,8.6626 0.05988,0.0798 0.119759,0.13972 0.179639,0.21956 -0.139719,0.02 -0.299398,0.02 -0.439118,0.0399 -3.852261,3.652655 -6.826286,8.263395 -8.522878,13.433005 1.636712,3.41315 5.389174,5.78838 9.760392,5.78838 1.916151,0 3.692582,-0.45908 5.249454,-1.25748 l 15.349166,11.63663 v 26.44687 c 0.15968,0 0.33932,0.02 0.499,0.02 h 12.13562 v -44.53055 c 15.7284,-2.49498 27.6245,-14.091685 27.6245,-28.023695 0.02,-15.76832 -15.16952,-28.54266 -33.91187,-28.54266 z"
     fill=""
     id="path839"
     style="stroke-width:0.199599" />
  <path
     d="M 39.20125,92.600015 V 119.486 l -16.70644,-12.67454 -3.473023,4.57082 20.179463,15.28929 V 153.1384 H 51.83587 V 92.600015 Z"
     fill="#d68231"
     id="path841"
     style="stroke-width:0.199599" />
  <path
     d="m 7.944041,106.65178 a 10.658588,9.6406327 0 1 0 21.317175,0 10.658588,9.6406327 0 1 0 -21.317175,0 z"
     fill="#7cdfa8"
     id="path843"
     style="stroke-width:0.199599" />
  <path
     d="m 51.83587,92.600015 v 21.377055 c -2.07583,0.27944 -4.19158,0.43912 -6.32729,0.43912 -2.13571,0 -4.25146,-0.13972 -6.32729,-0.43912 V 92.600015 Z"
     fill=""
     id="path845"
     style="stroke-width:0.199599" />
  <path
     d="m 11.596703,80.564195 a 33.931833,28.5227 0 1 0 67.863667,0 33.931834,28.5227 0 1 0 -67.863667,0 z"
     fill="#00ad68"
     id="path847"
     style="stroke-width:0.199599" />
  <path
     d="m 160.17821,111.38228 -3.47302,-4.57082 -16.70644,12.67454 V 92.600015 H 127.36413 V 153.1384 h 12.63462 v -26.46683 z"
     fill="#d68231"
     id="path849"
     style="stroke-width:0.199599" />
  <path
     d="m 149.93878,106.65178 a 10.65859,9.6406345 0 1 0 21.31718,0 10.65859,9.6406345 0 1 0 -21.31718,0 z"
     fill="#7cdfa8"
     id="path851"
     style="stroke-width:0.199599" />
  <path
     d="m 127.36413,92.600015 v 21.377055 c 2.07583,0.27944 4.19158,0.43912 6.32729,0.43912 2.13571,0 4.25146,-0.13972 6.32729,-0.43912 V 92.600015 Z"
     fill=""
     id="path853"
     style="stroke-width:0.199599" />
  <path
     d="m 99.73963,80.564195 a 33.931835,28.522702 0 1 0 67.86367,0 33.931835,28.522702 0 1 0 -67.86367,0 z"
     fill="#00ad68"
     id="path855"
     style="stroke-width:0.199599" />
  <path
     d="m 179.2,155.89286 c 0,0.85828 -0.6986,1.53691 -1.53691,1.53691 H 1.536912 C 0.678637,157.42977 0,156.73118 0,155.89286 v -5.52889 c 0,-0.85828 0.698597,-1.53691 1.536912,-1.53691 H 177.64313 c 0.85827,0 1.53691,0.69859 1.53691,1.53691 v 5.52889 z"
     fill="#00ad68"
     id="path857"
     style="stroke-width:0.199599" />
  <path
     d="m 8.1636,126.71148 h 50.19915 v 22.11558 H 8.1636 Z"
     fill="#a4a9ad"
     id="path859"
     style="stroke-width:0.199599" />
  <path
     d="m 8.1636,126.71148 h 50.19915 v 8.92208 H 8.1636 Z"
     fill=""
     id="path861"
     style="stroke-width:0.199599" />
  <path
     d="M 58.38271,121.62171 H 8.1636 c -2.09579,0 -3.832301,1.71655 -3.832301,3.8323 v 2.53491 c 0,2.09579 1.716551,3.8323 3.832301,3.8323 h 50.19915 v -10.19951 z"
     fill="#d1d3d3"
     id="path863"
     style="stroke-width:0.199599" />
  <path
     d="m 43.71219,121.62171 h 14.67052 v 27.20535 H 43.71219 Z"
     fill=""
     id="path865"
     style="stroke-width:0.199599" />
  <path
     d="m 12.554778,136.99083 m -1.337313,0 a 1.3373135,1.3373135 0 1 0 2.674627,0 1.3373135,1.3373135 0 1 0 -2.674627,0 z"
     fill=""
     id="path867"
     style="stroke-width:0.199599" />
  <path
     d="m 26.766229,138.32815 m -1.337314,0 a 1.3373135,1.3373135 0 1 0 2.674627,0 1.3373135,1.3373135 0 1 0 -2.674627,0 z"
     fill=""
     id="path869"
     style="stroke-width:0.199599" />
  <path
     d="m 34.61047,142.47981 m -1.337313,0 a 1.3373134,1.3373134 0 1 0 2.674626,0 1.3373134,1.3373134 0 1 0 -2.674626,0 z"
     fill=""
     id="path871"
     style="stroke-width:0.199599" />
  <path
     d="m 40.23916,135.65352 m -1.33731,0 a 1.337315,1.337315 0 1 0 2.67463,0 1.337315,1.337315 0 1 0 -2.67463,0 z"
     fill=""
     id="path873"
     style="stroke-width:0.199599" />
  <path
     d="m 120.81729,126.71148 h 50.19915 v 22.11558 h -50.19915 z"
     fill="#a4a9ad"
     id="path875"
     style="stroke-width:0.199599" />
  <path
     d="m 120.81729,126.71148 h 50.19915 v 8.92208 h -50.19915 z"
     fill=""
     id="path877"
     style="stroke-width:0.199599" />
  <path
     d="m 120.81729,121.62171 h 50.19915 c 2.09579,0 3.8323,1.71655 3.8323,3.8323 v 2.53491 c 0,2.09579 -1.71655,3.8323 -3.8323,3.8323 h -50.19915 z"
     fill="#d1d3d3"
     id="path879"
     style="stroke-width:0.199599" />
  <path
     d="m 120.81729,121.62171 h 14.67052 v 27.20535 h -14.67052 z"
     fill=""
     id="path881"
     style="stroke-width:0.199599" />
  <path
     d="m 166.62526,136.99083 m -1.33731,0 a 1.337315,1.337315 0 1 0 2.67463,0 1.337315,1.337315 0 1 0 -2.67463,0 z"
     fill=""
     id="path883"
     style="stroke-width:0.199599" />
  <path
     d="m 152.41381,138.32815 m -1.33731,0 a 1.3373134,1.3373134 0 1 0 2.67462,0 1.3373134,1.3373134 0 1 0 -2.67462,0 z"
     fill=""
     id="path885"
     style="stroke-width:0.199599" />
  <path
     d="m 144.58953,142.47981 m -1.33731,0 a 1.3373134,1.3373134 0 1 0 2.67462,0 1.3373134,1.3373134 0 1 0 -2.67462,0 z"
     fill=""
     id="path887"
     style="stroke-width:0.199599" />
  <path
     d="m 138.94088,135.65352 m -1.33732,0 a 1.337315,1.337315 0 1 0 2.67463,0 1.337315,1.337315 0 1 0 -2.67463,0 z"
     fill=""
     id="path889"
     style="stroke-width:0.199599" />
  <path
     d="M 128.46193,148.82706 H 113.17264 V 88.747755 c 0,-12.99389 -10.57874,-23.57264 -23.57264,-23.57264 -12.9939,0 -23.57264,10.57875 -23.57264,23.57264 V 148.82706 H 50.73807 V 88.747755 c 0,-21.43693 17.44496,-38.86193 38.86193,-38.86193 21.41697,0 38.86193,17.425 38.86193,38.86193 z"
     fill="#d1d3d3"
     id="path891"
     style="stroke-width:0.199599" />
  <path
     d="m 113.17264,129.84519 h 15.28929 v -5.72849 h -15.28929 z m 0,-19.12159 h 15.28929 v -5.72849 h -15.28929 z m 15.18949,-24.850065 h -15.36912 c 0.11975,0.93811 0.17963,1.89619 0.17963,2.87422 v 2.87423 h 15.28929 v -2.87423 c 0,-0.95807 -0.0399,-1.91615 -0.0998,-2.87422 z m -13.39309,-26.54667 -10.85819,10.85818 c 1.51695,1.17764 2.87422,2.55487 4.05186,4.05186 l 10.85819,-10.85818 c -1.25748,-1.43712 -2.59479,-2.79439 -4.05186,-4.05186 z m -54.78994,4.05186 10.85819,10.85818 c 1.17764,-1.51695 2.55487,-2.87422 4.05186,-4.05186 L 64.23096,59.326865 c -1.45707,1.25747 -2.81434,2.59478 -4.05186,4.05186 z M 50.73807,110.7236 h 15.28929 v -5.72849 H 50.73807 Z m 0,19.12159 H 66.02736 V 124.1167 H 50.73807 Z m 35.9877,-79.859565 v 15.36913 c 0.93812,-0.11976 1.89619,-0.17964 2.87423,-0.17964 0.97804,0 1.93611,0.0599 2.87423,0.17964 v -15.36913 c -0.93812,-0.0599 -1.89619,-0.0998 -2.87423,-0.0998 -0.95808,0 -1.91615,0.0399 -2.87423,0.0998 z m -35.9877,38.76213 v 2.87423 h 15.28929 v -2.87423 c 0,-0.97803 0.0599,-1.93611 0.17963,-2.87422 H 50.83787 c -0.0798,0.95807 -0.0998,1.91615 -0.0998,2.87422 z"
     fill=""
     id="path893"
     style="stroke-width:0.199599" />
  <path
     d="m 19.880062,145.15443 m -1.337313,0 a 1.3373135,1.3373135 0 1 0 2.674627,0 1.3373135,1.3373135 0 1 0 -2.674627,0 z"
     fill=""
     id="path895"
     style="stroke-width:0.199599" />
  <path
     d="m 147.84299,18.209465 m -18.20343,0 a 18.203431,18.203431 0 1 0 36.40686,0 18.203431,18.203431 0 1 0 -36.40686,0 z"
     fill="#ffb819"
     id="path897"
     style="stroke-width:0.199599" />
  <path
     d="m 99.12087,138.98682 c 3.31335,-3.31334 6.60673,-14.13161 6.06781,-14.69048 -0.55887,-0.55888 -11.37714,2.75446 -14.69048,6.06781 -3.31335,3.31334 -4.07182,7.94404 -1.6966,10.31927 2.37523,2.37522 6.98597,1.61675 10.31927,-1.6966 z"
     fill="#7cdfa8"
     id="path899"
     style="stroke-width:0.199599" />
  <path
     d="m 82.49427,117.72953 c -3.31334,-3.31334 -6.60672,-14.13161 -6.06781,-14.69049 0.55888,-0.55888 11.37715,2.75447 14.69049,6.06781 3.31335,3.31335 4.07182,7.94404 1.69659,10.31927 -2.39518,2.37523 -7.00592,1.61675 -10.31927,-1.69659 z"
     fill="#00ad68"
     id="path901"
     style="stroke-width:0.199599" />
  <path
     d="m 150.43778,84.256775 c 3.31334,-3.31334 6.60673,-14.13161 6.06781,-14.69048 -0.55888,-0.55888 -11.37714,2.75446 -14.69049,6.06781 -3.31334,3.31334 -4.07182,7.94404 -1.69659,10.31927 2.37523,2.39518 7.00593,1.61675 10.31927,-1.6966 z"
     fill="#7cdfa8"
     id="path903"
     style="stroke-width:0.199599" />
  <path
     d="m 28.56262,87.709845 c -3.313344,-3.31335 -6.606728,-14.13161 -6.06781,-14.69049 0.558877,-0.55888 11.377144,2.75447 14.69049,6.06781 3.31334,3.31334 4.07182,7.94404 1.69659,10.31927 -2.375229,2.37523 -6.985967,1.61675 -10.31927,-1.69659 z"
     fill="#218649"
     id="path905"
     style="stroke-width:0.199599" />
</svg>
