<svg width="140" height="122.992" viewBox="0 0 179.2 157.43" class="prefix__icon" xmlns="http://www.w3.org/2000/svg"><path d="M133.671 88.149v-3.513a32.456 32.456 0 004.052-15.728c0-17.944-14.55-32.495-32.494-32.495a32.7 32.7 0 00-9.002 1.277c-5.908-6.187-14.252-10.06-23.493-10.06-17.944 0-32.495 14.551-32.495 32.495a32.352 32.352 0 005.27 17.745v10.299c-17.944 0-32.495 14.55-32.495 32.495 0 17.944 14.55 32.494 32.495 32.494h88.142c17.944 0 32.495-14.55 32.495-32.494.02-17.964-14.53-32.515-32.475-32.515z" fill="#218649"/><path d="M144.01 119.486v-10.878a37.963 37.963 0 0010.02-3.014c-.04.34-.06.699-.06 1.058a8.782 8.782 0 001.178 4.41zm-10.339-31.337v-3.513a32.456 32.456 0 004.052-15.728 32.39 32.39 0 00-4.57-16.607c-16.607 1.856-29.441 13.812-29.441 28.283 0 13.932 11.896 25.549 27.624 28.024v44.53h2.315c3.613 0 7.086-.598 10.32-1.676v-24.79l15.349-11.637a11.448 11.448 0 005.25 1.257c.419 0 .838-.02 1.257-.06-2.116-15.868-15.709-28.083-32.156-28.083zM45.01 119.486l-11.118-8.443a8.782 8.782 0 001.178-4.411c0-.36-.02-.719-.06-1.058a37.963 37.963 0 0010.02 3.014zm6.327-67.445c-3.633 0-7.126.48-10.4 1.358a32.114 32.114 0 00-.698 6.706 32.352 32.352 0 005.27 17.745v10.299c-8.523 0-16.288 3.293-22.096 8.663.06.08.12.14.18.22-.14.02-.3.02-.44.039a32.534 32.534 0 00-8.522 13.433c1.636 3.413 5.389 5.788 9.76 5.788 1.916 0 3.693-.459 5.25-1.257l15.349 11.637v26.446c.16 0 .339.02.499.02h12.135v-44.53c15.729-2.495 27.625-14.092 27.625-28.024.02-15.768-15.17-28.542-33.912-28.542z"/><path d="M39.201 92.6v26.886l-16.706-12.675-3.473 4.571 20.18 15.29v26.466h12.634V92.6z" fill="#d68231"/><path d="M7.944 106.652a10.659 9.64 0 1021.317 0 10.659 9.64 0 10-21.317 0z" fill="#7cdfa8"/><path d="M51.836 92.6v21.377c-2.076.28-4.192.44-6.327.44-2.136 0-4.252-.14-6.328-.44V92.6z"/><path d="M11.597 80.564a33.932 28.523 0 1067.863 0 33.932 28.523 0 10-67.863 0z" fill="#00ad68"/><path d="M160.178 111.382l-3.473-4.57L140 119.485V92.6h-12.635v60.538H140v-26.466z" fill="#d68231"/><path d="M149.939 106.652a10.659 9.64 0 1021.317 0 10.659 9.64 0 10-21.317 0z" fill="#7cdfa8"/><path d="M127.364 92.6v21.377c2.076.28 4.192.44 6.327.44 2.136 0 4.252-.14 6.328-.44V92.6z"/><path d="M99.74 80.564a33.932 28.523 0 1067.863 0 33.932 28.523 0 10-67.863 0zM179.2 155.893c0 .858-.699 1.537-1.537 1.537H1.537A1.538 1.538 0 010 155.893v-5.529c0-.858.699-1.537 1.537-1.537h176.106c.858 0 1.537.699 1.537 1.537v5.529z" fill="#00ad68"/><path d="M8.164 126.711h50.199v22.116h-50.2z" fill="#a4a9ad"/><path d="M8.164 126.711h50.199v8.923h-50.2z"/><path d="M58.383 121.622H8.163a3.846 3.846 0 00-3.832 3.832v2.535a3.846 3.846 0 003.833 3.832h50.199v-10.2z" fill="#d1d3d3"/><path d="M43.712 121.622h14.67v27.205h-14.67zM11.216999999999999 136.99a1.337 1.337 0 102.675 0 1.337 1.337 0 10-2.675 0zM25.429 138.328a1.337 1.337 0 102.675 0 1.337 1.337 0 10-2.675 0zM33.272999999999996 142.48a1.337 1.337 0 102.675 0 1.337 1.337 0 10-2.675 0zM38.902 135.654a1.337 1.337 0 102.674 0 1.337 1.337 0 10-2.674 0z"/><path d="M120.817 126.711h50.2v22.116h-50.2z" fill="#a4a9ad"/><path d="M120.817 126.711h50.2v8.923h-50.2z"/><path d="M120.817 121.622h50.2a3.846 3.846 0 013.832 3.832v2.535a3.846 3.846 0 01-3.833 3.832h-50.199z" fill="#d1d3d3"/><path d="M120.817 121.622h14.67v27.205h-14.67zM165.288 136.99a1.337 1.337 0 102.675 0 1.337 1.337 0 10-2.675 0zM151.077 138.328a1.337 1.337 0 102.674 0 1.337 1.337 0 10-2.674 0zM143.252 142.48a1.337 1.337 0 102.675 0 1.337 1.337 0 10-2.675 0zM137.60399999999998 135.654a1.337 1.337 0 102.674 0 1.337 1.337 0 10-2.674 0z"/><path d="M128.462 148.827h-15.29v-60.08c0-12.993-10.578-23.572-23.572-23.572S66.027 75.754 66.027 88.748v60.08H50.738v-60.08c0-21.437 17.445-38.862 38.862-38.862s38.862 17.425 38.862 38.862z" fill="#d1d3d3"/><path d="M113.173 129.845h15.289v-5.728h-15.29zm0-19.121h15.289v-5.729h-15.29zm15.19-24.85h-15.37c.12.938.18 1.896.18 2.874v2.874h15.289v-2.874c0-.958-.04-1.916-.1-2.874zm-13.394-26.547l-10.858 10.858a23.587 23.587 0 014.052 4.052l10.858-10.858a40.865 40.865 0 00-4.052-4.052zm-54.79 4.052l10.858 10.858a23.587 23.587 0 014.052-4.052L64.231 59.327a36.983 36.983 0 00-4.052 4.052zm-9.44 47.345h15.288v-5.729H50.738zm0 19.121h15.288v-5.728H50.738zm35.987-79.86v15.37c.938-.12 1.896-.18 2.874-.18.978 0 1.936.06 2.874.18v-15.37a45.02 45.02 0 00-2.874-.1c-.958 0-1.916.04-2.874.1zM50.738 88.749v2.874h15.29v-2.874c0-.978.06-1.936.179-2.874h-15.37c-.079.958-.099 1.916-.099 2.874zM18.543 145.154a1.337 1.337 0 102.674 0 1.337 1.337 0 10-2.674 0z"/><path d="M129.64 18.21a18.203 18.203 0 1036.406 0 18.203 18.203 0 10-36.406 0z" fill="#ffb819"/><path d="M99.12 138.987c3.314-3.314 6.608-14.132 6.069-14.69-.56-.56-11.377 2.754-14.69 6.067-3.314 3.313-4.073 7.944-1.697 10.32 2.375 2.375 6.986 1.616 10.319-1.697z" fill="#7cdfa8"/><path d="M82.494 117.73c-3.313-3.314-6.606-14.132-6.068-14.691.56-.559 11.378 2.755 14.691 6.068 3.313 3.313 4.072 7.944 1.697 10.32-2.396 2.374-7.006 1.616-10.32-1.697z" fill="#00ad68"/><path d="M150.438 84.257c3.313-3.314 6.607-14.132 6.068-14.69-.56-.56-11.378 2.754-14.69 6.067-3.314 3.313-4.073 7.944-1.697 10.32 2.375 2.395 7.005 1.616 10.319-1.697z" fill="#7cdfa8"/><path d="M28.563 87.71c-3.314-3.314-6.607-14.132-6.068-14.69.559-.56 11.377 2.754 14.69 6.067 3.314 3.314 4.072 7.944 1.697 10.32-2.375 2.375-6.986 1.616-10.32-1.697z" fill="#218649"/></svg>