<svg xmlns="http://www.w3.org/2000/svg" width="97.977" height="131.282" viewBox="0 0 125.41 168.041" xmlns:v="https://vecta.io/nano"><path d="M125.409 155.918a11.966 11.966 0 0 1-11.808 12.124H11.809A11.966 11.966 0 0 1 .001 155.918V12.112C.001 5.411 5.291 0 11.809 0h101.793c6.53 0 11.808 5.411 11.808 12.112z" fill="#82b24d"/><path d="M10.349 9.169h8.524v8.524h-8.524zm97.841 0h8.536v8.524h-8.536zM10.349 151.358h8.524v8.536h-8.524zm97.841 0h8.536v8.536h-8.536z" fill="#1d6540"/><path d="M40.993 45.625a21.718 21.913 0 1 0 43.436 0 21.718 21.913 0 1 0-43.436 0z" fill="#c2cbcf"/><path d="M62.711 70.371a24.685 24.685 0 0 1-24.576-24.746c0-13.656 11.017-24.77 24.576-24.77s24.576 11.114 24.576 24.77a24.697 24.697 0 0 1-24.576 24.746zm0-43.801c-10.397 0-18.873 8.549-18.873 19.055S52.302 64.68 62.711 64.68s18.873-8.549 18.873-19.055S73.108 26.57 62.711 26.57z" fill="#384e4d"/><path d="M55.719 45.625a6.992 6.992 0 1 0 13.984 0 6.992 6.992 0 1 0-13.984 0z" fill="#435861"/><path d="M29.526 115.631a33.185 33.489 0 1 0 66.37 0 33.185 33.489 0 1 0-66.37 0z" fill="#c2cbcf"/><path d="M62.711 151.953c-19.87 0-36.031-16.307-36.031-36.322 0-20.028 16.173-36.335 36.031-36.335 19.882 0 36.031 16.307 36.031 36.335 0 20.016-16.149 36.322-36.031 36.322zm0-66.966c-16.72 0-30.34 13.741-30.34 30.644 0 16.878 13.607 30.631 30.34 30.631 16.72 0 30.34-13.753 30.34-30.631 0-16.903-13.619-30.644-30.34-30.644z" fill="#384e4d"/><path d="M52.022 115.631a10.689 10.762 0 1 0 21.378 0 10.689 10.762 0 1 0-21.378 0z" fill="#435861"/></svg>