<svg version="1.1" xmlns="http://www.w3.org/2000/svg" xmlns:xlink="http://www.w3.org/1999/xlink" width="102.651" height="112.64892" viewBox="0,0,102.651,112.64892"><defs><radialGradient cx="237.28025" cy="127.07742" r="1.50002" gradientUnits="userSpaceOnUse" id="color-1"><stop offset="0" stop-color="#000000" stop-opacity="0"/><stop offset="1" stop-color="#000000" stop-opacity="0.57196"/></radialGradient><radialGradient cx="239.99352" cy="224.85928" r="71.99941" gradientUnits="userSpaceOnUse" id="color-2"><stop offset="0" stop-color="#000000"/><stop offset="1" stop-color="#000000" stop-opacity="0"/></radialGradient><radialGradient cx="223.62396" cy="153.57059" r="73.38711" gradientUnits="userSpaceOnUse" id="color-3"><stop offset="0" stop-color="#000000" stop-opacity="0"/><stop offset="1" stop-color="#000000" stop-opacity="0.57196"/></radialGradient><radialGradient cx="263.8868" cy="167.47118" r="17.28955" gradientUnits="userSpaceOnUse" id="color-4"><stop offset="0" stop-color="#000000" stop-opacity="0"/><stop offset="1" stop-color="#000000" stop-opacity="0.57196"/></radialGradient><radialGradient cx="235.372" cy="167.47118" r="17.28955" gradientUnits="userSpaceOnUse" id="color-5"><stop offset="0" stop-color="#000000" stop-opacity="0"/><stop offset="1" stop-color="#000000" stop-opacity="0.57196"/></radialGradient><radialGradient cx="205.16342" cy="123.26539" r="29.88865" gradientUnits="userSpaceOnUse" id="color-6"><stop offset="0" stop-color="#000000" stop-opacity="0"/><stop offset="1" stop-color="#000000" stop-opacity="0.57196"/></radialGradient><radialGradient cx="251.66927" cy="123.05529" r="33.89771" gradientUnits="userSpaceOnUse" id="color-7"><stop offset="0" stop-color="#000000" stop-opacity="0"/><stop offset="1" stop-color="#000000" stop-opacity="0.57196"/></radialGradient><radialGradient cx="236.2722" cy="123.97709" r="4.87667" gradientUnits="userSpaceOnUse" id="color-8"><stop offset="0" stop-color="#000000" stop-opacity="0"/><stop offset="1" stop-color="#000000" stop-opacity="0.57196"/></radialGradient><radialGradient cx="231.40402" cy="138.11164" r="55.32314" gradientUnits="userSpaceOnUse" id="color-9"><stop offset="0" stop-color="#000000" stop-opacity="0"/><stop offset="1" stop-color="#000000" stop-opacity="0.57196"/></radialGradient></defs><g transform="translate(-188.6745,-120.76619)"><g data-paper-data="{&quot;isPaintingLayer&quot;:true}" stroke="none" stroke-width="1" stroke-linecap="butt" stroke-linejoin="miter" stroke-miterlimit="10" stroke-dasharray="" stroke-dashoffset="0" style="mix-blend-mode: normal"><path d="M235.78323,132.86016v-11.50002h3.00004v11.50002z" fill="#008080" fill-rule="nonzero"/><path d="M235.78323,132.86016v-11.50002h3.00004v11.50002z" fill="url(#color-1)" fill-rule="nonzero"/><path d="M291.32549,224.86069c0,4.72326 -22.9908,8.55441 -51.3255,8.55441c-28.33469,0 -51.3255,-3.83115 -51.3255,-8.55441c0,-4.72326 22.9908,-8.55441 51.3255,-8.55441c28.33469,0 51.3255,3.83115 51.3255,8.55441z" fill="url(#color-2)" fill-rule="nonzero"/><path d="M286.33997,181.37665c0,3.45742 -0.37782,26.7754 -1.09782,30.01896c-1.76079,8.88236 -7.47088,13.99364 -16.0467,15.93977c-3.98494,0.74138 -8.5188,-15.55482 -13.4376,-15.6475c-4.9188,-0.09267 -10.22256,16.02532 -15.75443,16.02532c-5.56039,0 -10.88552,-16.12512 -15.82571,-16.05383c-4.94019,0.07842 -9.4883,16.35324 -13.48037,15.58334c-9.03919,-1.49703 -13.77265,-7.68474 -15.9968,-16.13938c-0.67723,-3.15089 -1.03366,-26.37619 -1.03366,-29.72668c0,-25.57778 20.75877,-46.33655 46.33655,-46.33655c25.57778,0 46.33655,20.75877 46.33655,46.33655z" fill="#7eb6a9" fill-rule="nonzero"/><path d="M286.33997,181.37665c0,3.45742 -0.37782,26.7754 -1.09782,30.01896c-1.76079,8.88236 -7.47088,13.99364 -16.0467,15.93977c-3.98494,0.74138 -8.5188,-15.55482 -13.4376,-15.6475c-4.9188,-0.09267 -10.22256,16.02532 -15.75443,16.02532c-5.56039,0 -10.88552,-16.12512 -15.82571,-16.05383c-4.94019,0.07842 -9.4883,16.35324 -13.48037,15.58334c-9.03919,-1.49703 -13.77265,-7.68474 -15.9968,-16.13938c-0.67723,-3.15089 -1.03366,-26.37619 -1.03366,-29.72668c0,-25.57778 20.75877,-46.33655 46.33655,-46.33655c25.57778,0 46.33655,20.75877 46.33655,46.33655z" fill="url(#color-3)" fill-rule="nonzero"/><g fill-rule="nonzero"><path d="M257.1123,173.1802c0,-6.10246 4.94702,-11.04949 11.04949,-11.04949c6.10246,0 11.04949,4.94702 11.04949,11.04949c0,6.10246 -4.94702,11.04949 -11.04949,11.04949c-6.10246,0 -11.04949,-4.94702 -11.04949,-11.04949z" fill="#ffffff"/><path d="M257.1123,173.1802c0,-6.10246 4.94702,-11.04949 11.04949,-11.04949c6.10246,0 11.04949,4.94702 11.04949,11.04949c0,6.10246 -4.94702,11.04949 -11.04949,11.04949c-6.10246,0 -11.04949,-4.94702 -11.04949,-11.04949z" fill="url(#color-4)"/><path d="M264.95358,173.8899c0,-3.7402 3.03203,-6.77223 6.77223,-6.77223c3.7402,0 6.77223,3.03203 6.77223,6.77223c0,3.7402 -3.03203,6.77223 -6.77223,6.77223c-3.7402,0 -6.77223,-3.03203 -6.77223,-6.77223z" fill="#000000"/></g><g fill-rule="nonzero"><path d="M228.5975,173.1802c0,-6.10246 4.94702,-11.04949 11.04949,-11.04949c6.10246,0 11.04949,4.94702 11.04949,11.04949c0,6.10246 -4.94702,11.04949 -11.04949,11.04949c-6.10246,0 -11.04949,-4.94702 -11.04949,-11.04949z" fill="#ffffff"/><path d="M228.5975,173.1802c0,-6.10246 4.94702,-11.04949 11.04949,-11.04949c6.10246,0 11.04949,4.94702 11.04949,11.04949c0,6.10246 -4.94702,11.04949 -11.04949,11.04949c-6.10246,0 -11.04949,-4.94702 -11.04949,-11.04949z" fill="url(#color-5)"/><path d="M236.43878,173.8899c0,-3.7402 3.03203,-6.77223 6.77223,-6.77223c3.7402,0 6.77223,3.03203 6.77223,6.77223c0,3.7402 -3.03203,6.77223 -6.77223,6.77223c-3.7402,0 -6.77223,-3.03203 -6.77223,-6.77223z" fill="#000000"/></g><path d="M277.60459,219.16004c-3.38048,4.09607 -7.47824,6.30617 -9.14965,4.92675c-1.67142,-1.37942 -0.27872,-5.822 3.10176,-9.91807c3.38048,-4.09607 7.47824,-6.30617 9.14965,-4.92675c1.67142,1.37942 0.27872,5.822 -3.10176,9.91807z" fill-opacity="0.43439" fill="#ffffff" fill-rule="nonzero"/><path d="M238.42193,129.03506c5.59008,0.32 29.14041,7.3701 36.35051,21.1903c-18.40026,11.86017 -47.28066,14.2802 -70.71099,1.00001c6.21009,-13.17018 26.95038,-22.61032 34.36048,-22.19031z" fill="#0000ff" fill-rule="evenodd"/><path d="M237.17332,125.12408c0.41346,0.57742 -37.00508,9.18889 -39.99914,0c-0.90534,-2.77306 24.50134,-6.50137 39.99914,0z" fill="#ffba00" fill-rule="evenodd"/><path d="M237.17332,125.12408c0.41346,0.57742 -37.00508,9.18889 -39.99914,0c-0.90534,-2.77306 24.50134,-6.50137 39.99914,0z" fill="url(#color-6)" fill-rule="evenodd"/><path d="M238.15708,124.98151c-0.42059,-0.57742 37.00508,-9.18889 39.99914,0c0.90534,2.77306 -24.50134,6.50137 -39.99914,0z" fill="#ffba00" fill-rule="evenodd"/><path d="M238.15708,124.98151c-0.42059,-0.57742 37.00508,-9.18889 39.99914,0c0.90534,2.77306 -24.50134,6.50137 -39.99914,0z" fill="url(#color-7)" fill-rule="evenodd"/><path d="M234.15988,125.10986c0,-1.72591 1.39913,-3.12504 3.12504,-3.12504c1.72591,0 3.12504,1.39913 3.12504,3.12504c0,1.72591 -1.39913,3.12504 -3.12504,3.12504c-1.72591,0 -3.12504,-1.39913 -3.12504,-3.12504z" fill="#ffba00" fill-rule="nonzero"/><path d="M234.15988,125.10986c0,-1.72591 1.39913,-3.12504 3.12504,-3.12504c1.72591,0 3.12504,1.39913 3.12504,3.12504c0,1.72591 -1.39913,3.12504 -3.12504,3.12504c-1.72591,0 -3.12504,-1.39913 -3.12504,-3.12504z" fill="url(#color-8)" fill-rule="nonzero"/><path d="M238.41193,129.04506c0.16,0.01 0.38001,0.05 0.56001,0.07c11.08016,6.7901 21.0403,16.82024 26.85038,25.81036c-4.91007,2.05003 -10.24014,3.54005 -15.82022,4.40006c-2.77004,-10.50015 -8.53012,-22.00031 -12.00017,-30.31043c0.14,0 0.28,0.03 0.41001,0.03zM229.0018,159.54549c-5.26007,-0.71001 -10.51015,-2.00003 -15.62022,-3.93006c2.96004,-7.93011 15.11021,-22.25031 21.00029,-26.13037h0.06c0.35,-0.07 0.67001,-0.16 1.00001,-0.22c0.49001,-0.09 0.97001,-0.15 1.41002,-0.19c-3.07004,7.87011 -7.1101,19.89028 -7.85011,30.47043z" fill="#ffff00" fill-rule="evenodd"/><path d="M238.42193,129.03506c5.59008,0.32 29.14041,7.3701 36.35051,21.1903c-18.40026,11.86017 -47.28066,14.2802 -70.71099,1.00001c6.21009,-13.17018 26.95038,-22.61032 34.36048,-22.19031z" fill="url(#color-9)" fill-rule="evenodd"/><path d="M219.33732,157.77353c-7.15009,7.32117 -14.54968,11.70533 -16.5172,9.78058c-1.97465,-1.92475 2.23128,-9.43127 9.37424,-16.75245c7.15009,-7.32117 14.54968,-11.6982 16.5172,-9.77345c1.97465,1.92475 -2.23128,9.42414 -9.37424,16.74532z" fill-opacity="0.62745" fill="#ffffff" fill-rule="nonzero"/></g></g></svg>