<?xml version="1.0" encoding="UTF-8" standalone="no"?>
<!-- Created with Inkscape (http://www.inkscape.org/) -->

<svg
   id="svg2"
   sodipodi:docname="nicubunu_Game_baddie_Geek.svg"
   inkscape:export-filename="/home/nicu/Desktop/pacman/pacman.png"
   viewBox="0 0 117.02637 118.46763"
   sodipodi:version="0.32"
   inkscape:export-xdpi="90"
   version="1.0"
   inkscape:output_extension="org.inkscape.output.svg.inkscape"
   inkscape:export-ydpi="90"
   inkscape:version="1.2.2 (732a01da63, 2022-12-09)"
   width="117.02637"
   height="118.46763"
   xmlns:inkscape="http://www.inkscape.org/namespaces/inkscape"
   xmlns:sodipodi="http://sodipodi.sourceforge.net/DTD/sodipodi-0.dtd"
   xmlns:xlink="http://www.w3.org/1999/xlink"
   xmlns="http://www.w3.org/2000/svg"
   xmlns:svg="http://www.w3.org/2000/svg"
   xmlns:rdf="http://www.w3.org/1999/02/22-rdf-syntax-ns#"
   xmlns:cc="http://creativecommons.org/ns#"
   xmlns:dc="http://purl.org/dc/elements/1.1/">
  <defs
     id="defs4">
    <linearGradient
       id="linearGradient2315">
      <stop
         id="stop2317"
         style="stop-color:#000000;stop-opacity:0"
         offset="0" />
      <stop
         id="stop2319"
         style="stop-color:#000000;stop-opacity:.57196"
         offset="1" />
    </linearGradient>
    <filter
       id="filter3730"
       height="1.6816748"
       width="1.6960537"
       y="-0.34083741"
       x="-0.34802687"
       inkscape:collect="always">
      <feGaussianBlur
         id="feGaussianBlur3732"
         stdDeviation="5.4650567"
         inkscape:collect="always" />
    </filter>
    <filter
       id="filter4065"
       height="1.7379839"
       width="2.811415"
       y="-0.36899194"
       x="-0.90570748"
       inkscape:collect="always">
      <feGaussianBlur
         id="feGaussianBlur4067"
         stdDeviation="4.1511594"
         inkscape:collect="always" />
    </filter>
    <filter
       id="filter4112"
       height="1.6802"
       width="1.1400412"
       y="-0.34009998"
       x="-0.070020583"
       inkscape:collect="always">
      <feGaussianBlur
         id="feGaussianBlur4114"
         stdDeviation="3.9678331"
         inkscape:collect="always" />
    </filter>
    <radialGradient
       id="radialGradient3540"
       gradientUnits="userSpaceOnUse"
       cy="506.35001"
       cx="210.89"
       gradientTransform="matrix(1.4028,1.6439e-6,-1.4521e-7,0.20588,-89.845,403.11)"
       r="68"
       inkscape:collect="always">
      <stop
         id="stop4074"
         style="stop-color:#000000"
         offset="0" />
      <stop
         id="stop4076"
         style="stop-color:#000000;stop-opacity:0"
         offset="1" />
    </radialGradient>
    <radialGradient
       id="radialGradient3542"
       xlink:href="#linearGradient2315"
       gradientUnits="userSpaceOnUse"
       cy="497.95999"
       cx="216.99001"
       gradientTransform="matrix(0.7158,1.4128,-1.3538,0.68592,735.84,-155.77)"
       r="65"
       inkscape:collect="always" />
    <radialGradient
       id="radialGradient3544"
       xlink:href="#linearGradient2315"
       gradientUnits="userSpaceOnUse"
       cy="409.85999"
       cx="233.5"
       gradientTransform="matrix(0.3871,1.5161,-1.4234,0.36342,726.51,-93.107)"
       r="15.5"
       inkscape:collect="always" />
    <radialGradient
       id="radialGradient3610"
       xlink:href="#linearGradient2315"
       gradientUnits="userSpaceOnUse"
       cy="244.25"
       cx="428.12"
       gradientTransform="matrix(1.56,0.039999,-0.035885,1.3995,-230.99,-114.71)"
       r="3.125"
       inkscape:collect="always" />
    <radialGradient
       id="radialGradient3612"
       xlink:href="#linearGradient2315"
       gradientUnits="userSpaceOnUse"
       cy="355.17001"
       cx="225.36"
       gradientTransform="matrix(1.6933,0.037478,-0.0057084,0.25791,-154.21,264.5)"
       r="28.075001"
       inkscape:collect="always" />
    <radialGradient
       id="radialGradient3614"
       xlink:href="#linearGradient2315"
       gradientUnits="userSpaceOnUse"
       cy="360.44"
       cx="160.13"
       gradientTransform="matrix(1.4934,0,0,0.40787,-79.011,217.83)"
       r="28.075001"
       inkscape:collect="always" />
    <radialGradient
       id="radialGradient3618"
       xlink:href="#linearGradient2315"
       gradientUnits="userSpaceOnUse"
       cy="370.23001"
       cx="205.17999"
       gradientTransform="matrix(1,-5.5725e-7,2.8327e-6,5.0833,-0.0010488,-1511.8)"
       r="2.1041999"
       inkscape:collect="always" />
    <radialGradient
       id="radialGradient3626"
       xlink:href="#linearGradient2315"
       gradientUnits="userSpaceOnUse"
       cy="249.13"
       cx="424.25"
       gradientTransform="matrix(1.5585,0.13842,-0.062142,0.69969,-221.47,24.338)"
       r="35.358002"
       inkscape:collect="always" />
    <radialGradient
       inkscape:collect="always"
       xlink:href="#linearGradient2315"
       id="radialGradient1324"
       gradientUnits="userSpaceOnUse"
       gradientTransform="matrix(0.3871,1.5161,-1.4234,0.36342,726.51,-93.107)"
       cx="233.5"
       cy="409.85999"
       r="15.5" />
  </defs>
  <sodipodi:namedview
     id="base"
     inkscape:zoom="0.721875"
     height="640px"
     borderopacity="1.0"
     inkscape:current-layer="layer1"
     inkscape:cx="250.73593"
     inkscape:cy="-31.861472"
     showgrid="false"
     width="128px"
     inkscape:guide-bbox="true"
     showguides="true"
     bordercolor="#666666"
     inkscape:window-x="1912"
     guidetolerance="10"
     objecttolerance="10"
     inkscape:window-y="-8"
     inkscape:window-width="1920"
     inkscape:pageopacity="0.0"
     inkscape:pageshadow="2"
     pagecolor="#ffffff"
     gridtolerance="10000"
     inkscape:document-units="px"
     inkscape:window-height="1017"
     inkscape:showpageshadow="2"
     inkscape:pagecheckerboard="0"
     inkscape:deskcolor="#d1d1d1"
     inkscape:window-maximized="1">
    <inkscape:grid
       id="grid3194"
       originy="-11.351184"
       originx="-5.4832258"
       spacingy="1"
       spacingx="1"
       type="xygrid" />
  </sodipodi:namedview>
  <g
     id="layer1"
     inkscape:label="Layer 1"
     inkscape:groupmode="layer"
     transform="translate(-238.90323,-23.086184)">
    <g
       id="g3512"
       transform="matrix(0.71287,0,0,0.71287,148.43,-234.5)">
      <rect
         id="rect3592"
         style="fill:#008080"
         height="16.132"
         width="4.2083998"
         y="362.17001"
         x="203.08" />
      <rect
         id="rect3616"
         style="fill:url(#radialGradient3618)"
         height="16.132"
         width="4.2083998"
         y="362.17001"
         x="203.08" />
      <path
         id="path3514"
         style="fill:url(#radialGradient3540);filter:url(#filter4112)"
         transform="matrix(1.0588,0,0,0.85714,-9.1176,72.48)"
         d="m 274,507.36 c 0,7.73 -30.46,14 -68,14 -37.54,0 -68,-6.27 -68,-14 0,-7.73 30.46,-14 68,-14 37.54,0 68,6.27 68,14 z" />
      <path
         id="path3516"
         style="fill:#7eb6a9"
         sodipodi:nodetypes="cccsssccssc"
         transform="translate(-31,-85)"
         d="m 305,531.36 c 0,4.85 -0.53,37.56 -1.54,42.11 -2.47,12.46 -10.48,19.63 -22.51,22.36 -5.59,1.04 -11.95,-21.82 -18.85,-21.95 -6.9,-0.13 -14.34,22.48 -22.1,22.48 -7.8,0 -15.27,-22.62 -22.2,-22.52 -6.93,0.11 -13.31,22.94 -18.91,21.86 -12.68,-2.1 -19.32,-10.78 -22.44,-22.64 -0.95,-4.42 -1.45,-37 -1.45,-41.7 0,-35.88 29.12,-65 65,-65 35.88,0 65,29.12 65,65 z" />
      <path
         id="path3518"
         sodipodi:nodetypes="cccsssccssc"
         style="fill:url(#radialGradient3542)"
         transform="translate(-31,-85)"
         d="m 305,531.36 c 0,4.85 -0.53,37.56 -1.54,42.11 -2.47,12.46 -10.48,19.63 -22.51,22.36 -5.59,1.04 -11.95,-21.82 -18.85,-21.95 -6.9,-0.13 -14.34,22.48 -22.1,22.48 -7.8,0 -15.27,-22.62 -22.2,-22.52 -6.93,0.11 -13.31,22.94 -18.91,21.86 -12.68,-2.1 -19.32,-10.78 -22.44,-22.64 -0.95,-4.42 -1.45,-37 -1.45,-41.7 0,-35.88 29.12,-65 65,-65 35.88,0 65,29.12 65,65 z" />
      <g
         id="g3520"
         transform="translate(5,10)">
        <circle
           id="path3522"
           style="fill:#ffffff"
           transform="translate(4,7)"
           cx="239.5"
           cy="417.86218"
           r="15.5" />
        <circle
           id="path3524"
           style="fill:url(#radialGradient1324)"
           transform="translate(4,7)"
           cx="239.5"
           cy="417.86218"
           r="15.5" />
        <circle
           id="path3526"
           style="fill:#000000"
           transform="matrix(0.6129,0,0,0.6129,101.71,169.75)"
           cx="239.5"
           cy="417.86218"
           r="15.5" />
      </g>
      <g
         id="g3528"
         transform="translate(-35,10)">
        <circle
           id="path3530"
           style="fill:#ffffff"
           transform="translate(4,7)"
           cx="239.5"
           cy="417.86218"
           r="15.5" />
        <circle
           id="path3532"
           style="fill:url(#radialGradient3544)"
           transform="translate(4,7)"
           cx="239.5"
           cy="417.86218"
           r="15.5" />
        <circle
           id="path3534"
           style="fill:#000000"
           transform="matrix(0.6129,0,0,0.6129,101.71,169.75)"
           cx="239.5"
           cy="417.86218"
           r="15.5" />
      </g>
      <path
         id="path3538"
         style="fill:#ffffff;fill-opacity:0.43439;filter:url(#filter4065)"
         transform="rotate(39.532819,265.34902,500.25775)"
         d="m 262,501.86 c 0,7.45 -2.46,13.5 -5.5,13.5 -3.04,0 -5.5,-6.05 -5.5,-13.5 0,-7.45 2.46,-13.5 5.5,-13.5 3.04,0 5.5,6.05 5.5,13.5 z" />
      <path
         id="path3548"
         sodipodi:nodetypes="ccsc"
         style="fill:#0000ff;fill-rule:evenodd"
         transform="matrix(1.4028,0,0,1.4028,-398.19,24.621)"
         d="m 396.9,270.49 c 23.43,13.28 52.31,10.86 70.71,-1 -7.21,-13.82 -30.76,-20.87 -36.35,-21.19 -7.41,-0.42 -28.15,9.02 -34.36,22.19 z" />
      <path
         id="path3602"
         sodipodi:nodetypes="csc"
         style="fill:#ffba00;fill-rule:evenodd"
         d="m 205.03,367.45 c 0.58,0.81 -51.91,12.89 -56.11,0 -1.27,-3.89 34.37,-9.12 56.11,0 z" />
      <path
         id="path3608"
         sodipodi:nodetypes="csc"
         style="fill:url(#radialGradient3614);fill-rule:evenodd"
         d="m 205.03,367.45 c 0.58,0.81 -51.91,12.89 -56.11,0 -1.27,-3.89 34.37,-9.12 56.11,0 z" />
      <path
         id="path3600"
         sodipodi:nodetypes="csc"
         style="fill:#ffba00;fill-rule:evenodd"
         d="m 206.41,367.25 c -0.59,-0.81 51.91,-12.89 56.11,0 1.27,3.89 -34.37,9.12 -56.11,0 z" />
      <path
         id="path3606"
         sodipodi:nodetypes="csc"
         style="fill:url(#radialGradient3612);fill-rule:evenodd"
         d="m 206.41,367.25 c -0.59,-0.81 51.91,-12.89 56.11,0 1.27,3.89 -34.37,9.12 -56.11,0 z" />
      <circle
         id="path3598"
         style="fill:#ffba00"
         transform="matrix(1.4028,0,0,1.4028,-396.79,23.218)"
         cx="429.125"
         cy="245.375"
         r="3.125" />
      <circle
         id="path3604"
         style="fill:url(#radialGradient3610)"
         transform="matrix(1.4028,0,0,1.4028,-396.79,23.218)"
         cx="429.125"
         cy="245.375"
         r="3.125" />
      <path
         id="path3585"
         style="fill:#ffff00;fill-rule:evenodd"
         d="m 430.84,248.28 c 3.47,8.31 9.23,19.81 12,30.31 5.58,-0.86 10.91,-2.35 15.82,-4.4 -5.81,-8.99 -15.77,-19.02 -26.85,-25.81 -0.18,-0.02 -0.4,-0.06 -0.56,-0.07 -0.13,0 -0.27,-0.03 -0.41,-0.03 z m -1.15,0.06 c -0.44,0.04 -0.92,0.1 -1.41,0.19 -0.33,0.06 -0.65,0.15 -1,0.22 h -0.06 c -5.89,3.88 -18.04,18.2 -21,26.13 5.11,1.93 10.36,3.22 15.62,3.93 0.74,-10.58 4.78,-22.6 7.85,-30.47 z"
         transform="matrix(1.4028,0,0,1.4028,-398.19,24.621)" />
      <path
         id="path3624"
         d="m 396.9,270.49 c 23.43,13.28 52.31,10.86 70.71,-1 -7.21,-13.82 -30.76,-20.87 -36.35,-21.19 -7.41,-0.42 -28.15,9.02 -34.36,22.19 z"
         sodipodi:nodetypes="ccsc"
         style="fill:url(#radialGradient3626);fill-rule:evenodd"
         transform="matrix(1.4028,0,0,1.4028,-398.19,24.621)" />
      <path
         id="path3536"
         style="fill:#ffffff;fill-opacity:0.62745;filter:url(#filter3730)"
         d="m 180.01,413.25 c -10.03,10.27 -20.41,16.42 -23.17,13.72 -2.77,-2.7 3.13,-13.23 13.15,-23.5 10.03,-10.27 20.41,-16.41 23.17,-13.71 2.77,2.7 -3.13,13.22 -13.15,23.49 z" />
    </g>
  </g>
  <metadata
     id="metadata278">
    <rdf:RDF>
      <cc:Work>
        <dc:format>image/svg+xml</dc:format>
        <dc:type
           rdf:resource="http://purl.org/dc/dcmitype/StillImage" />
        <cc:license
           rdf:resource="http://creativecommons.org/licenses/publicdomain/" />
        <dc:publisher>
          <cc:Agent
             rdf:about="http://openclipart.org/">
            <dc:title>Openclipart</dc:title>
          </cc:Agent>
        </dc:publisher>
        <dc:title>Game baddie: Geek</dc:title>
        <dc:date>2008-02-04T15:03:26</dc:date>
        <dc:description>Bad guy for arcade games, inspired from the classic Pac-Man: a geek</dc:description>
        <dc:source>https://openclipart.org/detail/12560/game-baddie:-geek-by-nicubunu</dc:source>
        <dc:creator>
          <cc:Agent>
            <dc:title>nicubunu</dc:title>
          </cc:Agent>
        </dc:creator>
        <dc:subject>
          <rdf:Bag>
            <rdf:li>arcade</rdf:li>
            <rdf:li>baddie</rdf:li>
            <rdf:li>funny</rdf:li>
            <rdf:li>game</rdf:li>
          </rdf:Bag>
        </dc:subject>
      </cc:Work>
      <cc:License
         rdf:about="http://creativecommons.org/licenses/publicdomain/">
        <cc:permits
           rdf:resource="http://creativecommons.org/ns#Reproduction" />
        <cc:permits
           rdf:resource="http://creativecommons.org/ns#Distribution" />
        <cc:permits
           rdf:resource="http://creativecommons.org/ns#DerivativeWorks" />
      </cc:License>
    </rdf:RDF>
  </metadata>
</svg>
