<svg version="1.1" xmlns="http://www.w3.org/2000/svg" xmlns:xlink="http://www.w3.org/1999/xlink" width="134.146" height="114.302" viewBox="0,0,134.146,114.302"><g transform="translate(-172.927,-122.849)"><g data-paper-data="{&quot;isPaintingLayer&quot;:true}" fill-rule="nonzero" stroke="none" stroke-width="1" stroke-linecap="butt" stroke-linejoin="miter" stroke-miterlimit="10" stroke-dasharray="" stroke-dashoffset="0" style="mix-blend-mode: normal"><path d="M295.54254,219.89312c0.52578,-4.01408 -0.84219,-8.13362 -3.74375,-11.0352c-2.90156,-2.9172 -7.00625,-4.27033 -11.03515,-3.74376c-0.52578,4.01408 0.84219,8.13362 3.74375,11.0352c2.90156,2.9172 7.00625,4.27033 11.03515,3.74376zM262.34725,182.2336c0.49609,1.74376 0.42109,3.56329 -0.19531,5.2469h37.35857v-7.69769l-37.85466,0.01484l0.69141,2.43517zM227.03321,187.47972h19.01796l-2.19531,-7.68206h-17.33358l0.69141,2.43517c0.49609,1.74376 0.42109,3.56329 -0.18047,5.2469zM210.90197,187.47972l-2.19531,-7.68206h-5.44218c-0.78203,0 -1.41328,0.63125 -1.41328,1.41329l-0.01484,6.26877zM188.47308,186.61878c0,0.01484 0,0.04531 0.01484,0.06016c-0.075,7.26097 1.68359,14.53756 5.08125,21.01727c6.14921,11.74145 17.03358,19.80008 29.34607,22.65634c-1.23281,-0.6461 -2.43594,-1.35313 -3.62343,-2.1047c-7.32109,-4.6758 -13.33437,-11.23051 -17.39374,-18.97273c-3.69765,-7.08128 -5.62265,-14.68834 -5.7125,-22.61102l0.02969,-5.47268c0,-3.90939 3.1875,-7.08128 7.08125,-7.08128h3.84843l-0.40625,-1.44297c-1.18926,-4.21889 0.99652,-8.65519 5.0664,-10.28285l4.14922,-1.6086c1.45859,-0.5711 3.09765,0.12031 3.68359,1.57891c0.57109,1.4586 -0.12031,3.09767 -1.57891,3.68361c0,0 -4.28515,1.69923 -4.42031,1.72891c-1.21797,0.63125 -1.83437,2.02891 -1.45859,3.3672l4.01406,14.19224c0.35461,1.25132 1.4955,2.11616 2.79609,2.11954c0.27031,0 0.52656,-0.03047 0.79687,-0.10547c0.7413,-0.21209 1.36833,-0.70934 1.74375,-1.38282c0.37578,-0.67657 0.46562,-1.4586 0.25547,-2.21016l-2.60078,-9.2305c-0.42259,-1.50274 0.4523,-3.06369 1.95469,-3.48751c1.50274,-0.42259 3.06368,0.4523 3.4875,1.95469l0.31562,1.12735h17.33358l-0.40625,-1.44297c-1.20234,-4.22423 0.97734,-8.64378 5.05156,-10.28285l4.14922,-1.6086c1.45859,-0.5711 3.09765,0.12031 3.68359,1.57891c0.57109,1.4586 -0.12031,3.09767 -1.57891,3.68361c0,0 -4.28515,1.69923 -4.42031,1.72891c-1.20234,0.63125 -1.81875,2.02891 -1.44297,3.3672l3.99922,14.19224c0.35461,1.25132 1.4955,2.11616 2.79609,2.11954c0.27031,0 0.52656,-0.03047 0.79687,-0.10547c0.75156,-0.21016 1.36797,-0.70625 1.74375,-1.38282c0.39062,-0.67657 0.48047,-1.4586 0.27031,-2.21016l-2.60078,-9.2305c-0.42259,-1.50274 0.4523,-3.06369 1.95469,-3.48751c1.50274,-0.42259 3.06368,0.4523 3.4875,1.95469l0.31562,1.12735l22.49061,-0.01484c14.83827,-0.39063 18.85233,-7.86253 18.85233,-12.31255c0,-4.23986 -2.33047,-9.38129 -6.22421,-13.77115c-3.90859,-4.38986 -8.64453,-7.17112 -12.68827,-7.44143c-0.77975,-0.04759 -1.50431,-0.41822 -1.99922,-1.02266c-5.09687,-6.20862 -12.26796,-10.11723 -20.20545,-11.01957h-0.06016c-0.06016,0 -0.63125,0.22578 -0.63125,0.52656v10.31332c0,0.9625 -0.49609,1.87969 -1.32266,2.39063c-0.82656,0.51094 -1.86406,0.5711 -2.73594,0.15c-5.27656,-2.54063 -10.9289,-3.83361 -16.83749,-3.83361h-11.36562c-21.43827,0 -38.87732,17.43913 -38.87732,38.87749v9.66722zM182.8184,187.47972l-0.01484,-7.69769h-4.22422v7.69769zM172.927,176.94139c0.00118,-1.55693 1.25412,-2.82345 2.81094,-2.84142h7.15624c1.47344,-23.24306 20.8367,-41.68922 44.43981,-41.68922h11.36562c5.27734,0 10.38827,0.90157 15.24452,2.67579v-6.04377c0,-3.41251 2.78125,-6.19377 6.19375,-6.19377c0.25547,0 0.52578,0.03047 0.81172,0.06016c8.97158,1.01455 17.23735,5.35401 23.16717,12.16255c11.18515,1.65313 22.95623,15.13834 22.95623,26.72979c0,5.33752 -2.39062,9.41175 -6.11875,12.31255h1.39844c1.56406,0 2.82656,1.26329 2.82656,2.82657v13.36646c0,1.56407 -1.26328,2.82657 -2.82656,2.82657h-29.57185l6.49453,6.49456c5.99843,-1.03672 12.19296,0.8875 16.53749,5.23205c3.56328,3.56329 5.50234,8.40394 5.50234,13.33521c-0.00166,1.63396 -0.21382,3.2609 -0.63125,4.84064c-0.2572,0.97813 -1.02109,1.74202 -1.99922,1.99923c-1.59297,0.4211 -3.23203,0.63125 -4.84062,0.63125c-4.93125,0 -9.77187,-1.93907 -13.33515,-5.50236c-4.34531,-4.34533 -6.26953,-10.55395 -5.23203,-16.53756l-10.49374,-10.49379h-62.41949c0.75156,4.69064 2.27031,9.21566 4.525,13.53052c3.59375,6.87034 8.93046,12.68833 15.42499,16.82272c6.32107,4.02521 13.55432,6.39313 21.03202,6.88518c1.39844,0.08984 2.51172,1.20313 2.63125,2.60079c0.11953,1.39766 -0.82734,2.66095 -2.19531,2.97657c-3.57803,0.79897 -7.23306,1.20217 -10.89921,1.20235c-18.29608,0 -35.58513,-10.10238 -44.34997,-26.83526c-2.81172,-5.36721 -4.61562,-11.21489 -5.35234,-17.18366h-7.42656c-1.56406,0 -2.82656,-1.26329 -2.82656,-2.82657v-13.36489z" data-paper-data="{&quot;index&quot;:null}" fill="#663333"/><path d="M182.80434,179.76719l0.01484,7.69769h-4.23984v-7.69769z" data-paper-data="{&quot;index&quot;:null}" fill="#ca5f38"/><path d="M271.33787,155.18741c0,5.95315 4.84062,10.77895 10.7789,10.77895c5.93828,0 10.7789,-4.84142 10.7789,-10.77973c0,-5.9383 -4.84062,-10.77895 -10.7789,-10.77895c-5.93828,0 -10.7789,4.8258 -10.7789,10.77895zM202.12229,156.04444c0.55625,0.54141 1.27812,0.81172 1.96953,0.81172c0.75711,-0.00052 1.48257,-0.30376 2.01484,-0.84219c5.66718,-5.72815 13.19921,-8.88519 21.22733,-8.88519h7.03593c1.56406,0 2.82656,-1.2625 2.82656,-2.82657c0,-1.56407 -1.26328,-2.82657 -2.82656,-2.82657h-7.03593c-9.54609,0 -18.50624,3.75861 -25.24139,10.56879c-1.09606,1.11259 -1.08277,2.90303 0.02969,3.99923zM188.4723,176.95624c0,-21.43836 17.43983,-38.87749 38.84763,-38.89234h11.36562c5.89296,0 11.56093,1.29297 16.83749,3.83361c0.87187,0.4211 1.90937,0.36172 2.73594,-0.15c0.82656,-0.51172 1.32266,-1.41329 1.32266,-2.39063v-10.29848c0,-0.30078 0.57109,-0.54141 0.63125,-0.52656h0.06016c7.93828,0.90157 15.10936,4.81096 20.20545,11.01957c0.49609,0.60156 1.21719,0.9625 1.99922,1.02266c4.04375,0.27031 8.79453,3.05157 12.68827,7.44143c3.89375,4.38986 6.22421,9.53129 6.22421,13.77115c0,4.46486 -4.01406,11.92192 -18.85311,12.31489l-22.49061,0.01484l-0.31562,-1.12735c-0.42382,-1.5024 -1.98476,-2.37728 -3.4875,-1.95469c-1.50239,0.42382 -2.37727,1.98477 -1.95469,3.48751l2.60078,9.2305c0.19839,0.74401 0.10154,1.5359 -0.27031,2.21016c-0.37578,0.67657 -0.99219,1.17266 -1.74375,1.38282c-0.27031,0.07578 -0.52656,0.10547 -0.79687,0.10547c-1.29297,0 -2.43515,-0.87188 -2.79609,-2.11954l-3.99922,-14.19224c-0.39141,-1.33751 0.24062,-2.73595 1.44297,-3.3672l4.42031,-1.72891c1.45859,-0.58672 2.16484,-2.24063 1.57891,-3.68361c-0.58672,-1.4586 -2.24062,-2.16485 -3.68359,-1.57891c0,0 -3.98359,1.54844 -4.14922,1.6086c-4.06664,1.63041 -6.24647,6.06763 -5.05156,10.28285l0.40625,1.44297h-17.3203l-0.31562,-1.12735c-0.42382,-1.5024 -1.98476,-2.37728 -3.4875,-1.95469c-1.50239,0.42382 -2.37727,1.98477 -1.95469,3.48751l2.60078,9.2305c0.21094,0.73672 0.12031,1.5336 -0.25547,2.21016c-0.37578,0.67657 -0.99219,1.17266 -1.74375,1.38282c-0.27031,0.07578 -0.52656,0.10547 -0.79687,0.10547c-1.30059,-0.00338 -2.44148,-0.86822 -2.79609,-2.11954l-4.01406,-14.19224c-0.37578,-1.33751 0.24062,-2.73595 1.45859,-3.3672l4.42031,-1.72891c1.45859,-0.58672 2.16484,-2.24063 1.57891,-3.68361c-0.58672,-1.4586 -2.24062,-2.16485 -3.68359,-1.57891c0,0 -3.98359,1.54844 -4.14922,1.6086c-4.07513,1.62199 -6.26336,6.06326 -5.0664,10.28285l0.40625,1.44297h-3.84843c-3.90979,0.00259 -7.07866,3.17147 -7.08125,7.08128l-0.02969,5.47268c0.08984,7.92269 2.01406,15.52975 5.7125,22.61102c4.05859,7.74222 10.07265,14.29693 17.39374,18.97273c1.1768,0.75364 2.38575,1.45586 3.62343,2.1047c-12.31249,-2.85704 -23.19764,-10.91489 -29.34607,-22.65634c-3.39765,-6.47971 -5.15625,-13.7563 -5.08125,-21.01727v-9.7266z" data-paper-data="{&quot;index&quot;:null}" fill="#9ace57"/><path d="M203.26526,179.79687h5.44218c0,0 2.12031,7.48675 2.19531,7.68206h-9.06562l0.01484,-6.26877c0,-0.78203 0.63125,-1.41329 1.41328,-1.41329z" data-paper-data="{&quot;index&quot;:null}" fill="#ca5f38"/><path d="M202.09104,152.0288c6.73515,-6.81018 15.6953,-10.56879 25.25701,-10.56879h7.03593c1.56406,0 2.82656,1.2625 2.82656,2.82657c0,1.56407 -1.26328,2.82657 -2.82656,2.82657h-7.03593c-8.02734,0 -15.57499,3.15704 -21.22733,8.88519c-0.53227,0.53843 -1.25773,0.84167 -2.01484,0.84219c-0.74186,-0.00214 -1.45369,-0.29332 -1.98437,-0.81172c-1.11246,-1.0962 -1.12575,-2.88664 -0.02969,-3.99923z" data-paper-data="{&quot;index&quot;:null}" fill="#663333"/><path d="M243.85586,179.79687c0,0 2.12031,7.48675 2.19531,7.68206h-19.0328c0.61641,-1.6836 0.69141,-3.50314 0.19531,-5.2469l-0.69141,-2.43517zM299.51129,179.78125v7.69769h-37.34372c0.61641,-1.6836 0.69141,-3.50314 0.19531,-5.2469l-0.69141,-2.43517z" data-paper-data="{&quot;index&quot;:null}" fill="#ca5f38"/><path d="M282.11677,160.86946c3.12734,0 5.68281,-2.54063 5.68281,-5.68283c0,-3.12736 -2.54062,-5.68283 -5.68281,-5.68283c-3.12734,0 -5.68281,2.54063 -5.68281,5.68283c0,3.1422 2.55547,5.68283 5.68281,5.68283zM282.11677,144.40846c5.95312,0 10.7789,4.84064 10.7789,10.77895c0,5.9383 -4.84062,10.77895 -10.7789,10.77895c-5.93828,0 -10.7789,-4.84142 -10.7789,-10.77973c0,-5.9383 4.82578,-10.77895 10.7789,-10.77895z" data-paper-data="{&quot;index&quot;:null}" fill="#663333"/><path d="M282.11677,158.0132c1.56406,0 2.82656,-1.2625 2.82656,-2.82657c0,-1.56407 -1.2625,-2.82657 -2.82656,-2.82657c-1.56406,0 -2.82656,1.26329 -2.82656,2.82657c0,1.56407 1.2625,2.82657 2.82656,2.82657zM287.79958,155.18662c0,3.12736 -2.54062,5.68283 -5.68281,5.68283c-3.12734,0 -5.68281,-2.54063 -5.68281,-5.68283c0,-3.12736 2.54062,-5.68283 5.68281,-5.68283c3.14219,0 5.69765,2.54063 5.68281,5.68283z" data-paper-data="{&quot;index&quot;:null}" fill="#ffffff"/><path d="M284.94333,155.18741c0,1.56407 -1.2625,2.82657 -2.82656,2.82657c-1.56406,0 -2.82656,-1.2625 -2.82656,-2.82657c0,-1.56407 1.26328,-2.82657 2.82656,-2.82657c1.56406,0 2.8414,1.26329 2.82656,2.82657z" data-paper-data="{&quot;index&quot;:null}" fill="#663333"/><path d="M291.79879,208.85792c2.91719,2.90157 4.27031,7.00628 3.74375,11.0352c-4.01406,0.52578 -8.13359,-0.84219 -11.03515,-3.74376c-2.91719,-2.90157 -4.27031,-7.00628 -3.74375,-11.0352c4.02968,-0.52578 8.13359,0.82735 11.03515,3.74376z" data-paper-data="{&quot;index&quot;:null}" fill="#6a973a"/></g></g></svg>