<svg width="100" height="100" xmlns:xlink="http://www.w3.org/1999/xlink" xmlns="http://www.w3.org/2000/svg"><defs><linearGradient id="prefix__a"><stop offset="0" stop-color="red"/><stop offset="1" stop-color="#a00"/></linearGradient><linearGradient id="prefix__d" y2="221.04" xlink:href="#prefix__a" gradientUnits="userSpaceOnUse" x2="346.93" y1="450.48" x1="346.93"/><linearGradient id="prefix__c" y2="469.51" gradientUnits="userSpaceOnUse" x2="348.57" y1="208.99" x1="345.71"><stop offset="0" stop-color="#fff"/><stop offset="1" stop-color="#f2f2f2"/></linearGradient><linearGradient id="prefix__f" y2="240.43" xlink:href="#prefix__a" gradientUnits="userSpaceOnUse" x2="352.65" y1="427.03" x1="351.26"/><filter id="prefix__e" color-interpolation-filters="sRGB" x="-.062" y="-.062" width="1.125" height="1.125"><feGaussianBlur stdDeviation="5.208"/></filter><filter id="prefix__b" color-interpolation-filters="sRGB" x="-.036" y="-.036" width="1.072" height="1.072"><feGaussianBlur stdDeviation="3.679"/></filter></defs><path d="M350 214.025c-67.88 0-122.63 54.752-122.63 122.631 0 67.88 54.75 122.631 122.63 122.631s122.63-54.751 122.63-122.63c0-67.88-54.75-122.632-122.63-122.632z" transform="matrix(.38034 0 0 .38034 -83.12 -78.045)" filter="url(#prefix__b)"/><path d="M350 214.025c-67.88 0-122.63 54.752-122.63 122.631 0 67.88 54.75 122.631 122.63 122.631s122.63-54.751 122.63-122.63c0-67.88-54.75-122.632-122.63-122.632z" transform="matrix(.38034 0 0 .38034 -83.12 -78.045)" fill="url(#prefix__c)" stroke="#000"/><path d="M350 221.785c-63.685 0-114.871 51.186-114.871 114.871 0 63.685 51.186 114.871 114.871 114.871 63.685 0 114.871-51.186 114.871-114.87 0-63.686-51.186-114.872-114.871-114.872z" transform="matrix(.38034 0 0 .38034 -83.12 -78.045)" fill="url(#prefix__d)"/><path d="M350 236.572c-55.698 0-100.084 44.386-100.084 100.084S294.302 436.74 350 436.74s100.084-44.386 100.084-100.084S405.698 236.572 350 236.572z" transform="matrix(.38034 0 0 -.38034 -83.12 178.037)" filter="url(#prefix__e)"/><path d="M350 236.01c-56.019 0-100.646 44.628-100.646 100.646 0 56.019 44.627 100.647 100.646 100.647s100.646-44.628 100.646-100.647c0-56.018-44.627-100.646-100.646-100.646z" transform="matrix(.38034 0 0 -.38034 -83.12 178.037)" fill="url(#prefix__f)"/><path d="M74.156 24.112L55.428 49.315l19.7 26.589H65.091L50.017 55.557 34.942 75.904H24.907l20.116-27.098-18.405-24.694h10.035l13.734 18.45 13.734-18.45h10.035" fill="#fff"/></svg>