<svg xml:space="preserve" width="449.309" height="140mm" viewBox="0 0 118.88 140" id="prefix__svg2" version="1.1" xmlns="http://www.w3.org/2000/svg" clip-rule="evenodd" fill-rule="evenodd" image-rendering="optimizeQuality" shape-rendering="geometricPrecision" text-rendering="geometricPrecision"><defs id="prefix__defs4"><style type="text/css" id="style6">.prefix__str1{stroke:#1f1a17;stroke-width:.0762}.prefix__fil7{fill:#000}.prefix__fil4{fill:#0cf}.prefix__fil10{fill:#c63}.prefix__fil2{fill:#f9f}.prefix__fil6{fill:#fcc}.prefix__fil9{fill:#ffdbdb}.prefix__fil3{fill:#ffe5e5}.prefix__fil5{fill:#fff}</style></defs><g id="prefix___245151096" transform="matrix(1.1046 0 0 1.1046 133.038 -181.93)"><path d="M-99.671 201.838c.856-.158 1.731.12 2.53.725 2.474-8.912 8.037-16.325 15.275-20.655l-8.249 1.653v-14.119l16.253 3.256c-1.892-.77-3.079-1.866-3.079-3.08 0-2.319 4.328-4.21 9.633-4.21 5.305 0 9.632 1.891 9.632 4.21 0 1.178-1.118 2.246-2.913 3.011l15.909-3.187v14.119l-7.472-1.497c7.143 4.37 12.619 11.758 15.048 20.615.837-.686 1.768-1.01 2.677-.841 2.302.426 3.61 3.852 2.911 7.626-.586 3.163-2.4 5.593-4.328 6.045-.335 3.055-1.401 3.047-3.06 1.295-1.856 6.105-5.791 11.495-10.485 15.551h9.502l-7.613 7.66.078.208 17.69-10.965 1.417 3.616a8.086 8.086 0 013.686-2.902c4.175-1.634 8.913.437 10.547 4.611 1.635 4.175-.436 8.913-4.61 10.547a8.086 8.086 0 01-4.677.374l1.416 3.616-20.633 4.005 5.196 13.86a2.94 2.94 0 011.57.985 2.964 2.964 0 01.14 3.579l1.406 3.75h-1.715c1.297 4.486-.08 9.53-3.899 12.686-5.128 4.237-12.767 3.511-17.005-1.617a11.99 11.99 0 01-2.364-4.614h-15.181a11.99 11.99 0 01-2.365 4.614c-4.238 5.128-11.877 5.855-17.005 1.617-3.82-3.156-5.196-8.2-3.899-12.687h-1.683l1.394-3.72a2.964 2.964 0 01.12-3.608 2.94 2.94 0 011.605-.994l5.22-13.925-20.255-3.93 1.416-3.617a8.087 8.087 0 01-4.677-.374c-4.174-1.635-6.245-6.373-4.61-10.547 1.634-4.174 6.372-6.245 10.547-4.61a8.086 8.086 0 013.686 2.9l1.417-3.615 17.361 10.761.002-.005-7.613-7.659h8.888c-4.694-4.056-8.63-9.446-10.486-15.551-1.667 1.761-2.735 1.76-3.065-1.344-1.857-.56-3.575-2.934-4.142-5.996-.698-3.774.609-7.2 2.91-7.626zm33.173-28.025a21.676 21.676 0 01-1.846-.01l.946.19z" id="prefix___245152584" fill="#191919" stroke="#1f1a17" stroke-width="1.411"/><g id="prefix__g115"><ellipse ry="4.21" rx="9.632" cy="169.619" cx="-67.308" class="prefix__fil10 prefix__str1" id="prefix___245152536" fill="#c63" stroke="#1f1a17" stroke-width=".076"/><circle cy="0" cx="0" r="11.699" transform="rotate(-111.387 70.212 126.166) scale(.69577)" class="prefix__fil3 prefix__str1" id="prefix___245152488" fill="#ffe5e5" stroke="#1f1a17" stroke-width=".076"/><path class="prefix__fil4 prefix__str1" id="prefix___245152440" fill="#0cf" stroke="#1f1a17" stroke-width=".076" d="M-55.199 245.044l25.467-15.786 7.779 19.862-29.414 5.709z"/><circle cy="0" cx="0" r="11.699" transform="scale(.69577 -.69577) rotate(68.613 169.997 -288.25)" class="prefix__fil3 prefix__str1" id="prefix___245152392" fill="#ffe5e5" stroke="#1f1a17" stroke-width=".076"/><path class="prefix__fil4 prefix__str1" id="prefix___245152344" fill="#0cf" stroke="#1f1a17" stroke-width=".076" d="M-78.059 245.044l-25.468-15.786-7.779 19.862 29.414 5.709z"/><path class="prefix__fil2 prefix__str1" id="prefix___245152296" fill="#f9f" stroke="#1f1a17" stroke-width=".076" d="M-52.867 281.754l14.383-8.42H-95.18l14.382 8.42z"/><path class="prefix__fil2 prefix__str1" id="prefix___245152248" fill="#f9f" stroke="#1f1a17" stroke-width=".076" d="M-50.792 231.233l16.518 44.066H-99.39l16.518-44.066z"/><path class="prefix__fil4 prefix__str1" id="prefix___245152200" fill="#0cf" stroke="#1f1a17" stroke-width=".076" d="M-59.504 235.162l7.548 36.207h-29.752l7.548-36.207z"/><path class="prefix__fil2 prefix__str1" id="prefix___245152152" fill="#f9f" stroke="#1f1a17" stroke-width=".076" d="M-53.558 246.109l13.671-13.753h-53.89l13.671 13.753z"/><path class="prefix__fil5 prefix__str1" id="prefix___245152104" fill="#fff" stroke="#1f1a17" stroke-width=".076" d="M-55.908 244.705l11.249-10.946h-44.346l11.249 10.946z"/><ellipse cy="0" cx="0" ry="10.015" rx="6.109" transform="matrix(-.68414 -.12666 -.12666 .68414 -35.696 208.69)" class="prefix__fil3 prefix__str1" id="prefix___245152056" fill="#ffe5e5" stroke="#1f1a17" stroke-width=".076"/><ellipse cy="0" cx="0" ry="10.015" rx="6.109" transform="matrix(-.52574 -.09733 -.09733 .52574 -36.187 209.466)" class="prefix__fil6 prefix__str1" id="prefix___245152008" fill="#fcc" stroke="#1f1a17" stroke-width=".076"/><ellipse cy="0" cx="0" ry="10.015" rx="6.109" transform="rotate(-10.489 1087.593 640.384) scale(.69577)" class="prefix__fil3 prefix__str1" id="prefix___245151960" fill="#ffe5e5" stroke="#1f1a17" stroke-width=".076"/><ellipse cy="0" cx="0" ry="10.015" rx="6.109" transform="matrix(.52574 -.09733 .09733 .52574 -97.911 209.466)" class="prefix__fil6 prefix__str1" id="prefix___245151912" fill="#fcc" stroke="#1f1a17" stroke-width=".076"/><path d="M-67.14 178.37c16.184 0 29.383 13.87 29.383 30.874 0 17.005-17.409 30.874-29.382 30.874-11.973 0-29.382-13.87-29.382-30.874 0-17.005 13.199-30.874 29.382-30.874z" class="prefix__fil3 prefix__str1" id="prefix___245151864" fill="#ffe5e5" stroke="#1f1a17" stroke-width=".076"/><path d="M-67.14 177.784c17.3 0 31.41 15.806 31.41 35.186 0 19.38-14.11-23.544-31.41-23.544-17.299 0-31.408 42.924-31.408 23.544s14.11-35.186 31.409-35.186z" class="prefix__fil10 prefix__str1" id="prefix___245151816" fill="#c63" stroke="#1f1a17" stroke-width=".076"/><path d="M-67.012 206.597c-1.694 3.29-5.055 5.54-8.91 5.54-5.55 0-10.076-4.663-10.076-10.38 0-5.717 4.526-10.38 10.077-10.38 3.854 0 7.215 2.25 8.909 5.54 1.693-3.29 5.054-5.54 8.909-5.54 5.55 0 10.076 4.663 10.076 10.38 0 5.717-4.527 10.38-10.076 10.38-3.855 0-7.216-2.25-8.91-5.54z" class="prefix__fil5 prefix__str1" id="prefix___245151768" fill="#fff" stroke="#1f1a17" stroke-width=".076"/><ellipse ry="2.08" rx="3.12" cy="203.278" cx="-59.234" class="prefix__fil7 prefix__str1" id="prefix___245151720" fill="#000" stroke="#1f1a17" stroke-width=".076"/><ellipse ry="2.08" rx="3.12" cy="203.278" cx="-75.782" class="prefix__fil7 prefix__str1" id="prefix___245151672" fill="#000" stroke="#1f1a17" stroke-width=".076"/><path d="M-66.252 217.837c1.472 0 2.672 1.2 2.672 2.672 0 1.472-1.2 2.672-2.672 2.672a2.677 2.677 0 01-2.67-2.777c.054.995 1.034 1.96 2.264 1.96a2.276 2.276 0 002.26-2.261c0-1.215-.964-2.21-1.959-2.264l.105-.002z" class="prefix__fil6 prefix__str1" id="prefix___245151624" fill="#fcc" stroke="#1f1a17" stroke-width=".076"/><ellipse ry="1.587" rx="2.568" cy="233.243" cx="-66.747" class="prefix__str1" id="prefix___245151576" fill="red" stroke="#1f1a17" stroke-width=".076"/><ellipse ry="5.613" rx="6.876" cy="223.935" cx="-82.409" class="prefix__fil9" id="prefix___245151504" fill="#ffdbdb"/><ellipse ry="5.613" rx="6.876" cy="223.935" cx="-51.816" class="prefix__fil9" id="prefix___245151432" fill="#ffdbdb"/><path d="M-86.31 200.67c0-5.717 5.474-10.38 10.264-10.38 4.79 0 7.35 2.25 9.076 5.54 1.725-3.29 5.148-5.54 9.074-5.54 5.654 0 10.265 4.663 10.265 10.38z" class="prefix__fil3 prefix__str1" id="prefix___245151384" fill="#ffe5e5" stroke="#1f1a17" stroke-width=".076"/><circle cy="0" cx="0" r="11.699" transform="matrix(.7959 .65768 -.65768 .7959 -86.114 278.674)" class="prefix__fil3 prefix__str1" id="prefix___245151336" fill="#ffe5e5" stroke="#1f1a17" stroke-width=".076"/><path d="M-75.393 264.901a4.666 4.666 0 01.624 6.556 4.666 4.666 0 01-6.556.623 4.621 4.621 0 01-1.339-1.82 3.68 3.68 0 01-5.367.753 3.648 3.648 0 01-.795-.92 3.359 3.359 0 01-4.347 1.454 2.962 2.962 0 01-4.305.584 2.962 2.962 0 01-.397-4.161 2.963 2.963 0 013.1-.956 3.356 3.356 0 015.764-.403c.127-.27.29-.528.488-.769a3.68 3.68 0 015.17-.492c.354.292.638.637.852 1.014a4.666 4.666 0 017.109-1.463z" class="prefix__fil3 prefix__str1" id="prefix___245151288" fill="#ffe5e5" stroke="#1f1a17" stroke-width=".076"/><circle cy="0" cx="0" r="11.699" transform="matrix(-.7959 .65768 .65768 .7959 -47.582 278.674)" class="prefix__fil3 prefix__str1" id="prefix___245151240" fill="#ffe5e5" stroke="#1f1a17" stroke-width=".076"/><path d="M-58.303 264.901a4.666 4.666 0 00-.623 6.556 4.666 4.666 0 006.555.623 4.621 4.621 0 001.34-1.82 3.68 3.68 0 005.367.753c.323-.268.588-.58.795-.92a3.359 3.359 0 004.348 1.454 2.962 2.962 0 004.305.584 2.962 2.962 0 00.395-4.161 2.963 2.963 0 00-3.1-.956 3.356 3.356 0 00-5.764-.403 3.68 3.68 0 00-5.659-1.26 3.647 3.647 0 00-.85 1.013 4.666 4.666 0 00-7.108-1.463z" class="prefix__fil3 prefix__str1" id="prefix___245151192" fill="#ffe5e5" stroke="#1f1a17" stroke-width=".076"/><path class="prefix__fil2 prefix__str1" id="prefix___245151144" fill="#f9f" stroke="#1f1a17" stroke-width=".076" d="M-67.398 173.994l22.718-4.552v14.119l-22.717-4.551-22.718 4.551v-14.119z"/></g></g></svg>