<?xml version="1.0" encoding="UTF-8" standalone="no"?>
<!-- Creator: CorelDRAW -->

<svg
   xml:space="preserve"
   width="118.87965mm"
   height="140mm"
   style="clip-rule:evenodd;fill-rule:evenodd;image-rendering:optimizeQuality;shape-rendering:geometricPrecision;text-rendering:geometricPrecision"
   viewBox="0 0 118.87964 140"
   id="svg2"
   version="1.1"
   inkscape:version="1.2.2 (732a01da63, 2022-12-09)"
   sodipodi:docname="1527808941.svg"
   xmlns:inkscape="http://www.inkscape.org/namespaces/inkscape"
   xmlns:sodipodi="http://sodipodi.sourceforge.net/DTD/sodipodi-0.dtd"
   xmlns="http://www.w3.org/2000/svg"
   xmlns:svg="http://www.w3.org/2000/svg"
   xmlns:rdf="http://www.w3.org/1999/02/22-rdf-syntax-ns#"
   xmlns:cc="http://creativecommons.org/ns#"
   xmlns:dc="http://purl.org/dc/elements/1.1/"><metadata
     id="metadata216"><rdf:RDF><cc:Work
         rdf:about=""><dc:format>image/svg+xml</dc:format><dc:type
           rdf:resource="http://purl.org/dc/dcmitype/StillImage" /><dc:title /></cc:Work></rdf:RDF></metadata><sodipodi:namedview
     pagecolor="#ffffff"
     bordercolor="#666666"
     borderopacity="1"
     objecttolerance="10"
     gridtolerance="10"
     guidetolerance="10"
     inkscape:pageopacity="0"
     inkscape:pageshadow="2"
     inkscape:window-width="1920"
     inkscape:window-height="1017"
     id="namedview214"
     showgrid="false"
     inkscape:zoom="0.78395062"
     inkscape:cx="343.13386"
     inkscape:cy="320.17323"
     inkscape:current-layer="svg2"
     showborder="false"
     fit-margin-top="0"
     fit-margin-left="0"
     fit-margin-right="0"
     fit-margin-bottom="0"
     inkscape:window-x="1912"
     inkscape:window-y="-8"
     inkscape:window-maximized="1"
     inkscape:showpageshadow="2"
     inkscape:pagecheckerboard="0"
     inkscape:deskcolor="#d1d1d1"
     inkscape:document-units="mm" /><defs
     id="defs4"><style
       type="text/css"
       id="style6"><![CDATA[
    .str1 {stroke:#1F1A17;stroke-width:0.0762}
    .str0 {stroke:#1F1A17;stroke-width:1.4111}
    .str2 {stroke:#1F1A17;stroke-width:2.2}
    .fil7 {fill:black}
    .fil18 {fill:#000066}
    .fil4 {fill:#00CCFF}
    .fil0 {fill:#191919}
    .fil13 {fill:#33CC99}
    .fil12 {fill:#669966}
    .fil14 {fill:#66FFCC}
    .fil16 {fill:#99FF99}
    .fil11 {fill:#99FFFF}
    .fil10 {fill:#CC6633}
    .fil15 {fill:#CCFFCC}
    .fil17 {fill:#E5E5E5}
    .fil8 {fill:red}
    .fil2 {fill:#FF99FF}
    .fil1 {fill:#FFCC99}
    .fil6 {fill:#FFCCCC}
    .fil9 {fill:#FFDBDB}
    .fil3 {fill:#FFE5E5}
    .fil5 {fill:white}
   ]]></style></defs><g
     id="_245151096"
     transform="matrix(1.1045932,0,0,1.1045932,133.03821,-181.92921)"><path
       style="fill:#191919;stroke:#1f1a17;stroke-width:1.4111"
       inkscape:connector-curvature="0"
       d="m -99.6712,201.838 c 0.8557,-0.1584 1.7313,0.1194 2.53,0.7248 2.4745,-8.9119 8.0376,-16.3244 15.2756,-20.6545 l -8.2493,1.6527 v -14.119 l 16.2534,3.2564 c -1.892,-0.7696 -3.079,-1.8662 -3.079,-3.0803 0,-2.319 4.327,-4.2101 9.6321,-4.2101 5.3052,0 9.6326,1.8911 9.6326,4.2101 0,1.1782 -1.1179,2.2457 -2.913,3.0112 l 15.9086,-3.1873 v 14.119 l -7.4714,-1.4969 c 7.1426,4.3702 12.6186,11.7579 15.0472,20.615 0.8377,-0.6857 1.7688,-1.0094 2.6777,-0.8411 2.3016,0.4264 3.6093,3.852 2.9107,7.6257 -0.5857,3.1634 -2.4002,5.5931 -4.3278,6.0453 -0.3355,3.0548 -1.4014,3.0468 -3.0593,1.2952 -1.8567,6.105 -5.792,11.4952 -10.4858,15.5509 h 9.5016 l -7.6131,7.6592 0.0783,0.2087 17.6906,-10.9651 1.4161,3.6158 c 0.8874,-1.2677 2.1431,-2.2968 3.6866,-2.9013 4.1744,-1.6349 8.9124,0.4363 10.5473,4.6107 1.6349,4.1744 -0.4364,8.9124 -4.6108,10.5473 -1.5435,0.6045 -3.1642,0.7017 -4.6765,0.3738 l 1.4162,3.6159 -20.6332,4.0044 5.1957,13.8603 c 0.5953,0.1463 1.1504,0.4777 1.5694,0.9848 0.8638,1.0454 0.8844,2.5171 0.1415,3.5791 l 1.4055,3.7495 h -1.715 c 1.2967,4.4871 -0.0798,9.5302 -3.8993,12.6865 -5.1283,4.2377 -12.7672,3.5113 -17.0049,-1.617 -1.1505,-1.3923 -1.934,-2.97 -2.364,-4.6141 h -15.1815 c -0.43,1.6442 -1.2141,3.2219 -2.3647,4.6142 -4.2374,5.1284 -11.8769,5.8548 -17.0049,1.617 -3.8196,-3.1561 -5.1958,-8.1994 -3.8989,-12.6866 h -1.6834 l 1.3945,-3.72 c -0.7642,-1.0644 -0.7512,-2.554 0.1206,-3.6087 0.4272,-0.517 0.9959,-0.8513 1.6044,-0.9931 l 5.22,-13.9251 -20.2555,-3.9312 1.4162,-3.616 c -1.5123,0.3278 -3.133,0.2307 -4.6765,-0.3738 -4.1743,-1.6349 -6.2455,-6.373 -4.6108,-10.5471 1.6348,-4.1745 6.3729,-6.2454 10.5473,-4.611 1.5435,0.6045 2.7993,1.6338 3.6866,2.9015 l 1.4162,-3.616 17.3617,10.7615 0.0019,-0.005 -7.613,-7.6591 h 8.8877 c -4.6939,-4.0557 -8.6293,-9.4461 -10.486,-15.5511 -1.6668,1.761 -2.7352,1.7597 -3.0646,-1.3442 -1.8575,-0.5593 -3.5755,-2.9343 -4.1422,-5.9961 -0.6986,-3.7737 0.6086,-7.1993 2.9106,-7.6257 z m 33.1732,-28.0248 c -0.2674,0.01 -0.5374,0.0153 -0.8104,0.0153 -0.3499,0 -0.6952,-0.008 -1.0356,-0.0246 l 0.9463,0.1896 z"
       class="fil0 str0"
       id="_245152584" /><g
       id="g115"><ellipse
         style="fill:#cc6633;stroke:#1f1a17;stroke-width:0.0762"
         ry="4.2101102"
         rx="9.6321802"
         cy="169.619"
         cx="-67.308296"
         class="fil10 str1"
         id="_245152536" /><circle
         style="fill:#ffe5e5;stroke:#1f1a17;stroke-width:0.0762"
         cy="0"
         cx="0"
         r="11.6986"
         transform="matrix(-0.253727,-0.647856,0.647856,-0.253727,-21.6605,237.552)"
         class="fil3 str1"
         id="_245152488" /><polygon
         style="fill:#00ccff;stroke:#1f1a17;stroke-width:0.0762"
         points="-55.1994,245.044 -29.7315,229.258 -21.9526,249.12 -51.3671,254.829 "
         class="fil4 str1"
         id="_245152440" /><circle
         style="fill:#ffe5e5;stroke:#1f1a17;stroke-width:0.0762"
         cy="0"
         cx="0"
         r="11.6986"
         transform="matrix(0.253727,-0.647856,-0.647856,-0.253727,-111.598,237.552)"
         class="fil3 str1"
         id="_245152392" /><polygon
         style="fill:#00ccff;stroke:#1f1a17;stroke-width:0.0762"
         points="-78.0594,245.044 -103.527,229.258 -111.306,249.12 -81.8917,254.829 "
         class="fil4 str1"
         id="_245152344" /><polygon
         style="fill:#ff99ff;stroke:#1f1a17;stroke-width:0.0762"
         points="-52.8665,281.754 -38.484,273.334 -95.18,273.334 -80.7976,281.754 "
         class="fil2 str1"
         id="_245152296" /><polygon
         style="fill:#ff99ff;stroke:#1f1a17;stroke-width:0.0762"
         points="-50.7924,231.233 -34.2739,275.299 -99.3901,275.299 -82.8717,231.233 "
         class="fil2 str1"
         id="_245152248" /><polygon
         style="fill:#00ccff;stroke:#1f1a17;stroke-width:0.0762"
         points="-59.5036,235.162 -51.9564,271.369 -81.7077,271.369 -74.1605,235.162 "
         class="fil4 str1"
         id="_245152200" /><polygon
         style="fill:#ff99ff;stroke:#1f1a17;stroke-width:0.0762"
         points="-53.5578,246.109 -39.8874,232.356 -93.7767,232.356 -80.1062,246.109 "
         class="fil2 str1"
         id="_245152152" /><polygon
         style="fill:#ffffff;stroke:#1f1a17;stroke-width:0.0762"
         points="-55.9085,244.705 -44.6589,233.759 -89.0052,233.759 -77.7556,244.705 "
         class="fil5 str1"
         id="_245152104" /><ellipse
         style="fill:#ffe5e5;stroke:#1f1a17;stroke-width:0.0762"
         cy="0"
         cx="0"
         ry="10.015"
         rx="6.1090999"
         transform="matrix(-0.684143,-0.12666,-0.12666,0.684143,-35.6955,208.69)"
         class="fil3 str1"
         id="_245152056" /><ellipse
         style="fill:#ffcccc;stroke:#1f1a17;stroke-width:0.0762"
         cy="0"
         cx="0"
         ry="10.015"
         rx="6.1090999"
         transform="matrix(-0.525742,-0.0973339,-0.0973339,0.525742,-36.1871,209.466)"
         class="fil6 str1"
         id="_245152008" /><ellipse
         style="fill:#ffe5e5;stroke:#1f1a17;stroke-width:0.0762"
         cy="0"
         cx="0"
         ry="10.015"
         rx="6.1090999"
         transform="matrix(0.684143,-0.12666,0.12666,0.684143,-98.4026,208.69)"
         class="fil3 str1"
         id="_245151960" /><ellipse
         style="fill:#ffcccc;stroke:#1f1a17;stroke-width:0.0762"
         cy="0"
         cx="0"
         ry="10.015"
         rx="6.1090999"
         transform="matrix(0.525742,-0.0973339,0.0973339,0.525742,-97.911,209.466)"
         class="fil6 str1"
         id="_245151912" /><path
         style="fill:#ffe5e5;stroke:#1f1a17;stroke-width:0.0762"
         inkscape:connector-curvature="0"
         d="m -67.1391,178.37 c 16.1832,0 29.3821,13.8692 29.3821,30.8741 0,17.0048 -17.409,30.874 -29.3821,30.874 -11.973,0 -29.3821,-13.8692 -29.3821,-30.874 0,-17.0049 13.199,-30.8741 29.3821,-30.8741 z"
         class="fil3 str1"
         id="_245151864" /><path
         style="fill:#cc6633;stroke:#1f1a17;stroke-width:0.0762"
         inkscape:connector-curvature="0"
         d="m -67.1391,177.784 c 17.2995,0 31.409,15.8062 31.409,35.186 0,19.3798 -14.1095,-23.5444 -31.409,-23.5444 -17.2995,0 -31.409,42.9242 -31.409,23.5444 0,-19.3798 14.1095,-35.186 31.409,-35.186 z"
         class="fil10 str1"
         id="_245151816" /><path
         style="fill:#ffffff;stroke:#1f1a17;stroke-width:0.0762"
         inkscape:connector-curvature="0"
         d="m -67.0123,206.597 c -1.6937,3.2897 -5.0544,5.5397 -8.9092,5.5398 -5.5501,-2e-4 -10.0766,-4.6629 -10.077,-10.38 6e-4,-5.7169 4.5269,-10.3798 10.077,-10.3798 3.8548,0 7.2154,2.25 8.9091,5.5398 1.6937,-3.2898 5.054,-5.5398 8.9089,-5.5398 5.55,0 10.0765,4.6628 10.0765,10.3799 0,5.717 -4.5265,10.3798 -10.0765,10.3798 -3.8549,0 -7.2152,-2.25 -8.9088,-5.5397 z"
         class="fil5 str1"
         id="_245151768" /><ellipse
         style="fill:#000000;stroke:#1f1a17;stroke-width:0.0762"
         ry="2.07968"
         rx="3.1195199"
         cy="203.278"
         cx="-59.234299"
         class="fil7 str1"
         id="_245151720" /><ellipse
         style="fill:#000000;stroke:#1f1a17;stroke-width:0.0762"
         ry="2.07968"
         rx="3.1195199"
         cy="203.278"
         cx="-75.781502"
         class="fil7 str1"
         id="_245151672" /><path
         style="fill:#ffcccc;stroke:#1f1a17;stroke-width:0.0762"
         inkscape:connector-curvature="0"
         d="m -66.2524,217.837 c 1.4719,0 2.672,1.2001 2.672,2.672 0,1.4719 -1.2001,2.672 -2.672,2.672 -1.4718,0 -2.672,-1.2001 -2.672,-2.672 0,-0.035 0.001,-0.0699 0.0023,-0.1045 0.0538,0.9942 1.0337,1.9595 2.2636,1.9595 1.2299,0 2.2612,-1.0156 2.2612,-2.2612 0,-1.2143 -0.9652,-2.2099 -1.9594,-2.2636 0.0347,-0.001 0.0693,-0.002 0.1043,-0.002 z"
         class="fil6 str1"
         id="_245151624" /><ellipse
         style="fill:#ff0000;stroke:#1f1a17;stroke-width:0.0762"
         ry="1.58733"
         rx="2.56774"
         cy="233.243"
         cx="-66.746902"
         class="fil8 str1"
         id="_245151576" /><ellipse
         style="fill:#ffdbdb"
         ry="5.6134601"
         rx="6.8764901"
         cy="223.935"
         cx="-82.409401"
         class="fil9"
         id="_245151504" /><ellipse
         style="fill:#ffdbdb"
         ry="5.6134601"
         rx="6.8764901"
         cy="223.935"
         cx="-51.816002"
         class="fil9"
         id="_245151432" /><path
         style="fill:#ffe5e5;stroke:#1f1a17;stroke-width:0.0762"
         inkscape:connector-curvature="0"
         d="m -86.3107,200.67 c 5e-4,-5.7169 5.4748,-10.3798 10.2649,-10.3798 4.7901,0 7.35,2.25 9.0753,5.5398 1.7252,-3.2898 5.1482,-5.5398 9.075,-5.5398 5.6534,0 10.2644,4.6628 10.2644,10.3799 z"
         class="fil3 str1"
         id="_245151384" /><circle
         style="fill:#ffe5e5;stroke:#1f1a17;stroke-width:0.0762"
         cy="0"
         cx="0"
         r="11.6986"
         transform="matrix(0.795902,0.657684,-0.657684,0.795902,-86.1138,278.674)"
         class="fil3 str1"
         id="_245151336" /><path
         style="fill:#ffe5e5;stroke:#1f1a17;stroke-width:0.0762"
         inkscape:connector-curvature="0"
         d="m -75.3928,264.901 c 1.9769,1.6336 2.2572,4.5788 0.6234,6.5558 -1.6336,1.9768 -4.5787,2.2571 -6.5557,0.6234 -0.6102,-0.5042 -1.0585,-1.1338 -1.3389,-1.8209 -0.0612,0.0892 -0.1267,0.1766 -0.1968,0.2614 -1.2885,1.5594 -3.6111,1.7803 -5.1703,0.4919 -0.3233,-0.2672 -0.5888,-0.5791 -0.7954,-0.9192 -0.1021,0.1895 -0.2241,0.372 -0.3663,0.5441 -0.986,1.1934 -2.6356,1.527 -3.9812,0.9098 -0.0448,0.0639 -0.0926,0.1269 -0.1433,0.1881 -1.0372,1.2553 -2.9068,1.4332 -4.1618,0.396 -1.2553,-1.0372 -1.4329,-2.9069 -0.396,-4.1617 0.7714,-0.9336 2.0033,-1.271 3.1001,-0.9562 0.1118,-0.2254 0.2506,-0.4412 0.4175,-0.6431 1.1752,-1.4224 3.2939,-1.6237 4.7159,-0.4488 0.2472,0.2043 0.4575,0.4369 0.6302,0.6894 0.1274,-0.27 0.2899,-0.5284 0.4885,-0.7687 1.2884,-1.5594 3.6111,-1.7801 5.1703,-0.4919 0.3531,0.2918 0.6375,0.6366 0.8513,1.0136 0.1505,-0.2936 0.3343,-0.5753 0.5528,-0.8397 1.6336,-1.9768 4.5787,-2.257 6.5557,-0.6233 z"
         class="fil3 str1"
         id="_245151288" /><circle
         style="fill:#ffe5e5;stroke:#1f1a17;stroke-width:0.0762"
         cy="0"
         cx="0"
         r="11.6986"
         transform="matrix(-0.795902,0.657684,0.657684,0.795902,-47.582,278.674)"
         class="fil3 str1"
         id="_245151240" /><path
         style="fill:#ffe5e5;stroke:#1f1a17;stroke-width:0.0762"
         inkscape:connector-curvature="0"
         d="m -58.303,264.901 c -1.9769,1.6336 -2.2572,4.5788 -0.6234,6.5558 1.6336,1.9768 4.5787,2.2571 6.5557,0.6234 0.6102,-0.5042 1.0585,-1.1338 1.3389,-1.8209 0.0612,0.0892 0.1267,0.1766 0.1968,0.2614 1.2885,1.5594 3.6111,1.7803 5.1703,0.4919 0.3233,-0.2672 0.5888,-0.5791 0.7954,-0.9192 0.1021,0.1895 0.2241,0.372 0.3663,0.5441 0.986,1.1934 2.6356,1.527 3.9812,0.9098 0.0448,0.0639 0.0926,0.1269 0.1433,0.1881 1.0372,1.2553 2.9068,1.4332 4.1618,0.396 1.2553,-1.0372 1.4329,-2.9069 0.396,-4.1617 -0.7714,-0.9336 -2.0033,-1.271 -3.1001,-0.9562 -0.1118,-0.2254 -0.2506,-0.4412 -0.4175,-0.6431 -1.1752,-1.4224 -3.2939,-1.6237 -4.7159,-0.4488 -0.2472,0.2043 -0.4575,0.4369 -0.6302,0.6894 -0.1274,-0.27 -0.2899,-0.5284 -0.4885,-0.7687 -1.2884,-1.5594 -3.6111,-1.7801 -5.1703,-0.4919 -0.3531,0.2918 -0.6375,0.6366 -0.8513,1.0136 -0.1505,-0.2936 -0.3343,-0.5753 -0.5528,-0.8397 -1.6336,-1.9768 -4.5787,-2.257 -6.5557,-0.6233 z"
         class="fil3 str1"
         id="_245151192" /><polygon
         style="fill:#ff99ff;stroke:#1f1a17;stroke-width:0.0762"
         points="-67.3977,173.994 -44.6802,169.442 -44.6802,183.561 -67.3975,179.01 -90.1149,183.561 -90.1149,169.442 "
         class="fil2 str1"
         id="_245151144" /></g></g></svg>
