<svg version="1.1" xmlns="http://www.w3.org/2000/svg" xmlns:xlink="http://www.w3.org/1999/xlink" width="118.73518" height="139.85579" viewBox="0,0,118.73518,139.85579"><g transform="translate(-180.63242,-110.07379)"><g data-paper-data="{&quot;isPaintingLayer&quot;:true}" fill-rule="evenodd" stroke-linecap="butt" stroke-linejoin="miter" stroke-miterlimit="10" stroke-dasharray="" stroke-dashoffset="0" style="mix-blend-mode: normal"><path d="M203.50226,151.01967c0.9452,-0.17497 1.91238,0.13189 2.79462,0.80061c2.73332,-9.84402 8.87828,-18.03182 16.87333,-22.81482l-9.11212,1.82556v-15.59575l17.9534,3.597c-2.08989,-0.85009 -3.40104,-2.06139 -3.40104,-3.40248c0,-2.56155 4.77958,-4.65045 10.63955,-4.65045c5.86009,0 10.64011,2.0889 10.64011,4.65045c0,1.30143 -1.23482,2.48058 -3.21768,3.32615l17.57253,-3.52067v15.59575l-8.25286,-1.65347c7.88967,4.82729 13.93842,12.9877 16.62104,22.77119c0.92532,-0.75742 1.9538,-1.11498 2.95777,-0.92907c2.54233,0.471 3.98681,4.25489 3.21514,8.4233c-0.64696,3.49427 -2.65124,6.1781 -4.78046,6.6776c-0.37059,3.37431 -1.54798,3.36547 -3.37928,1.43067c-2.0509,6.74354 -6.3978,12.69752 -11.58254,17.17742h10.4954l-8.40938,8.4603l0.08649,0.23053l19.54092,-12.11197l1.56421,3.99399c0.98022,-1.40029 2.36725,-2.53703 4.07219,-3.20476c4.61101,-1.8059 9.84458,0.48193 11.65048,5.09295c1.8059,4.61101 -0.48204,9.84458 -5.09306,11.65048c-1.70494,0.66773 -3.49515,0.77509 -5.16563,0.4129l1.56433,3.9941l-22.79129,4.42323l5.73914,15.30999c0.65756,0.1616 1.27072,0.52766 1.73355,1.0878c0.95415,1.15474 0.9769,2.78037 0.1563,3.95345l1.55251,4.14167h-1.89438c1.43233,4.95642 -0.08815,10.52699 -4.30714,14.01342c-5.66469,4.68093 -14.10256,3.87856 -18.7835,-1.78613c-1.27083,-1.53793 -2.13628,-3.28064 -2.61126,-5.0967h-16.76938c-0.47498,1.81617 -1.34109,3.55889 -2.61203,5.09681c-4.6806,5.6648 -13.11914,6.46717 -18.7835,1.78613c-4.2191,-3.48621 -5.73925,-9.057 -4.3067,-14.01353h-1.85947l1.54036,-4.10909c-0.84413,-1.17573 -0.82977,-2.82113 0.13321,-3.98615c0.47188,-0.57107 1.10006,-0.94034 1.77221,-1.09697l5.76598,-15.38157l-22.37409,-4.34238l1.56433,-3.99421c-1.67048,0.36209 -3.46069,0.25483 -5.16563,-0.4129c-4.6109,-1.8059 -6.89874,-7.03957 -5.09306,-11.65025c1.80579,-4.61112 7.03946,-6.89863 11.65048,-5.09328c1.70494,0.66773 3.09209,1.80468 4.07219,3.20498l1.56433,-3.99421l19.17762,11.88708l0.0021,-0.00552l-8.40927,-8.46019h9.81729c-5.18485,-4.4799 -9.53187,-10.4341 -11.58277,-17.17764c-1.84114,1.94519 -3.02128,1.94375 -3.38514,-1.48479c-2.05178,-0.6178 -3.94947,-3.24121 -4.57545,-6.62325c-0.77167,-4.1684 0.67226,-7.9523 3.21503,-8.4233zM240.14516,120.06367c-0.29537,0.01105 -0.59361,0.0169 -0.89516,0.0169c-0.3865,0 -0.76791,-0.00884 -1.14392,-0.02717l1.04528,0.20943z" fill="#191919" stroke="#1f1a17" stroke-width="1.4111"/><g><path d="M228.61047,115.43078c0,-2.56838 4.76353,-4.65046 10.63964,-4.65046c5.87611,0 10.63964,2.08208 10.63964,4.65046c0,2.56838 -4.76353,4.65046 -10.63964,4.65046c-5.87611,0 -10.63964,-2.08208 -10.63964,-4.65046z" fill="#cc6633" stroke="#1f1a17" stroke-width="0.0762"/><path d="M292.95107,198.84083c-4.62357,1.81078 -9.83965,-0.46944 -11.65043,-5.09301c-1.81078,-4.62357 0.46944,-9.83965 5.09301,-11.65043c4.62357,-1.81078 9.83965,0.46944 11.65043,5.09301c1.81078,4.62357 -0.46944,9.83965 -5.09301,11.65043z" fill="#ffe5e5" stroke="#1f1a17" stroke-width="0.0762"/><path d="M252.62551,198.74473l28.13167,-17.43711l8.59252,21.93943l-32.49106,6.30612z" fill="#00ccff" stroke="#1f1a17" stroke-width="0.0762"/><path d="M181.95628,187.1904c1.81078,-4.62357 7.02686,-6.90379 11.65043,-5.09301c4.62357,1.81078 6.90379,7.02686 5.09301,11.65043c-1.81078,4.62357 -7.02686,6.90379 -11.65043,5.09301c-4.62357,-1.81078 -6.90379,-7.02686 -5.09301,-11.65043z" fill="#ffe5e5" stroke="#1f1a17" stroke-width="0.0762"/><path d="M223.14138,209.55317l-32.49084,-6.30612l8.59263,-21.93943l28.13134,17.43711z" fill="#00ccff" stroke="#1f1a17" stroke-width="0.0762"/><path d="M224.34991,239.29434l-15.8867,-9.30067h62.62602l-15.88681,9.30067z" fill="#ff99ff" stroke="#1f1a17" stroke-width="0.0762"/><path d="M257.49346,183.48919l18.24622,48.675h-71.92692l18.24611,-48.675z" fill="#ff99ff" stroke="#1f1a17" stroke-width="0.0762"/><path d="M247.87112,187.82914l8.33659,39.99401h-32.86309l8.33659,-39.99401z" fill="#00ccff" stroke="#1f1a17" stroke-width="0.0762"/><path d="M225.11363,199.92112l-15.10034,-15.19147h59.52576l-15.10023,15.19147z" fill="#ff99ff" stroke="#1f1a17" stroke-width="0.0762"/><path d="M227.71009,198.37027l-12.42623,-12.09088h48.98463l-12.42623,12.09088z" fill="#ffffff" stroke="#1f1a17" stroke-width="0.0762"/><path d="M272.76822,166.15668c-2.5497,-0.47204 -3.98932,-4.24317 -3.21547,-8.42304c0.77385,-4.17987 3.46812,-7.18567 6.01782,-6.71362c2.5497,0.47204 3.98932,4.24317 3.21547,8.42304c-0.77385,4.17987 -3.46812,7.18567 -6.01782,6.71362z" fill="#ffe5e5" stroke="#1f1a17" stroke-width="0.0762"/><path d="M272.54962,165.26153c-1.95937,-0.36275 -3.06566,-3.26074 -2.47099,-6.47284c0.59468,-3.2121 2.66514,-5.52195 4.6245,-5.15921c1.95937,0.36275 3.06566,3.26074 2.47099,6.47284c-0.59468,3.2121 -2.66514,5.52195 -4.6245,5.15921z" fill="#ffcccc" stroke="#1f1a17" stroke-width="0.0762"/><path d="M200.2869,159.44306c-0.77385,-4.17987 0.66577,-7.951 3.21547,-8.42304c2.5497,-0.47204 5.24397,2.53375 6.01782,6.71362c0.77385,4.17987 -0.66577,7.951 -3.21547,8.42304c-2.5497,0.47204 -5.24397,-2.53375 -6.01782,-6.71362z" fill="#ffe5e5" stroke="#1f1a17" stroke-width="0.0762"/><path d="M201.89882,160.10233c-0.59468,-3.2121 0.51162,-6.11009 2.47099,-6.47284c1.95937,-0.36275 4.02982,1.94711 4.6245,5.15921c0.59468,3.2121 -0.51162,6.11009 -2.47099,6.47284c-1.95937,0.36275 -4.02982,-1.94711 -4.6245,-5.15921z" fill="#ffcccc" stroke="#1f1a17" stroke-width="0.0762"/><path d="M239.437,125.09708c17.87585,0 32.45527,15.31982 32.45527,34.10332c0,18.78339 -19.22986,34.10321 -32.45527,34.10321c-13.2253,0 -32.45527,-15.31982 -32.45527,-34.10321c0,-18.7835 14.57953,-34.10332 32.45527,-34.10332z" fill="#ffe5e5" stroke="#1f1a17" stroke-width="0.0762"/><path d="M239.437,124.44979c19.10891,0 34.69417,17.45942 34.69417,38.86622c0,21.4068 -15.58526,-26.00698 -34.69417,-26.00698c-19.10891,0 -34.69417,47.41378 -34.69417,26.00698c0,-21.4068 15.58526,-38.86622 34.69417,-38.86622z" fill="#cc6633" stroke="#1f1a17" stroke-width="0.0762"/><path d="M239.57706,156.27643c-1.87085,3.63378 -5.58306,6.11911 -9.84104,6.11923c-6.1306,-0.00022 -11.13054,-5.15061 -11.13099,-11.46568c0.00066,-6.31485 5.00038,-11.46546 11.13099,-11.46546c4.25799,0 7.97008,2.48533 9.84093,6.11923c1.87085,-3.63389 5.58261,-6.11923 9.84071,-6.11923c6.13049,0 11.13043,5.1505 11.13043,11.46557c0,6.31496 -4.99994,11.46546 -11.13043,11.46546c-4.2581,0 -7.96986,-2.48533 -9.8406,-6.11911z" fill="#ffffff" stroke="#1f1a17" stroke-width="0.0762"/><path d="M244.72279,152.61029c0,-1.26871 1.54274,-2.2972 3.4458,-2.2972c1.90306,0 3.4458,1.02849 3.4458,2.2972c0,1.26871 -1.54274,2.2972 -3.4458,2.2972c-1.90306,0 -3.4458,-1.02849 -3.4458,-2.2972z" fill="#000000" stroke="#1f1a17" stroke-width="0.0762"/><path d="M226.44486,152.61029c0,-1.26871 1.54274,-2.2972 3.4458,-2.2972c1.90306,0 3.4458,1.02849 3.4458,2.2972c0,1.26871 -1.54274,2.2972 -3.4458,2.2972c-1.90306,0 -3.4458,-1.02849 -3.4458,-2.2972z" fill="#000000" stroke="#1f1a17" stroke-width="0.0762"/><path d="M240.41645,168.69206c1.62585,0 2.95147,1.32562 2.95147,2.95147c0,1.62585 -1.32562,2.95147 -2.95147,2.95147c-1.62574,0 -2.95147,-1.32562 -2.95147,-2.95147c0,-0.03866 0.0011,-0.07721 0.00254,-0.11543c0.05943,1.09819 1.14182,2.16445 2.50036,2.16445c1.35854,0 2.49771,-1.12182 2.49771,-2.49771c0,-1.34131 -1.06615,-2.44104 -2.16434,-2.50036c0.03833,-0.0011 0.07655,-0.00221 0.11521,-0.00221z" fill="#ffcccc" stroke="#1f1a17" stroke-width="0.0762"/><path d="M237.03391,185.70942c0,-0.96835 1.26986,-1.75335 2.83631,-1.75335c1.56645,0 2.83631,0.785 2.83631,1.75335c0,0.96835 -1.26986,1.75335 -2.83631,1.75335c-1.56645,0 -2.83631,-0.785 -2.83631,-1.75335z" fill="#ff0000" stroke="#1f1a17" stroke-width="0.0762"/><path d="M214.97381,175.42787c0,-3.42449 3.40072,-6.20059 7.59572,-6.20059c4.195,0 7.59572,2.7761 7.59572,6.20059c0,3.42449 -3.40072,6.20059 -7.59572,6.20059c-4.195,0 -7.59572,-2.7761 -7.59572,-6.20059z" fill="#ffdbdb" stroke="none" stroke-width="1"/><path d="M248.76707,175.42787c0,-3.42449 3.40072,-6.20059 7.59572,-6.20059c4.195,0 7.59572,2.7761 7.59572,6.20059c0,3.42449 -3.40072,6.20059 -7.59572,6.20059c-4.195,0 -7.59572,-2.7761 -7.59572,-6.20059z" fill="#ffdbdb" stroke="none" stroke-width="1"/><path d="M218.26018,149.72951c0.00055,-6.31485 6.04743,-11.46546 11.33854,-11.46546c5.29111,0 8.11876,2.48533 10.02452,6.11923c1.90564,-3.63389 5.68667,-6.11923 10.02418,-6.11923c6.24471,0 11.33799,5.1505 11.33799,11.46557z" fill="#ffe5e5" stroke="#1f1a17" stroke-width="0.0762"/><path d="M208.19288,227.39348c4.69371,-5.68014 13.10338,-6.47979 18.78352,-1.78608c5.68014,4.69371 6.47979,13.10338 1.78608,18.78352c-4.69371,5.68014 -13.10338,6.47979 -18.78352,1.78608c-5.68014,-4.69371 -6.47979,-13.10338 -1.78608,-18.78352z" fill="#ffe5e5" stroke="#1f1a17" stroke-width="0.0762"/><path d="M230.32002,220.67863c2.18367,1.80446 2.49329,5.05771 0.6886,7.24149c-1.80446,2.18356 -5.0576,2.49318 -7.24138,0.6886c-0.67402,-0.55694 -1.16921,-1.25239 -1.47894,-2.01135c-0.0676,0.09853 -0.13995,0.19507 -0.21738,0.28874c-1.42327,1.7225 -3.9888,1.96651 -5.71108,0.54335c-0.35712,-0.29515 -0.65038,-0.63967 -0.87859,-1.01534c-0.11278,0.20932 -0.24754,0.41091 -0.40461,0.60101c-1.08913,1.31822 -2.91127,1.68671 -4.39761,1.00496c-0.04949,0.07058 -0.10229,0.14017 -0.15829,0.20777c-1.14568,1.3866 -3.21083,1.5831 -4.5971,0.43742c-1.3866,-1.14568 -1.58277,-3.21094 -0.43742,-4.59699c0.85208,-1.03125 2.21283,-1.40394 3.42435,-1.05621c0.12349,-0.24898 0.27681,-0.48735 0.46117,-0.71036c1.29812,-1.57117 3.63842,-1.79353 5.20915,-0.49574c0.27306,0.22567 0.50535,0.4826 0.69611,0.76151c0.14073,-0.29824 0.32022,-0.58367 0.53959,-0.8491c1.42316,-1.7225 3.9888,-1.96629 5.71108,-0.54335c0.39003,0.32232 0.70418,0.70318 0.94034,1.11962c0.16624,-0.32431 0.36927,-0.63547 0.61062,-0.92753c1.80446,-2.18356 5.0576,-2.49307 7.24138,-0.68849z" fill="#ffe5e5" stroke="#1f1a17" stroke-width="0.0762"/><path d="M269.53836,246.177c-5.68014,4.69371 -14.08981,3.89406 -18.78352,-1.78608c-4.69371,-5.68014 -3.89406,-14.08981 1.78608,-18.78352c5.68014,-4.69371 14.08981,-3.89406 18.78352,1.78608c4.69371,5.68014 3.89406,14.08981 -1.78608,18.78352z" fill="#ffe5e5" stroke="#1f1a17" stroke-width="0.0762"/><path d="M256.43868,221.36713c0.24135,0.29205 0.44438,0.60322 0.61062,0.92753c0.23616,-0.41643 0.55031,-0.7973 0.94034,-1.11962c1.72228,-1.42294 4.28792,-1.17915 5.71108,0.54335c0.21937,0.26543 0.39887,0.55086 0.53959,0.8491c0.19076,-0.27891 0.42306,-0.53584 0.69611,-0.76151c1.57073,-1.29779 3.91103,-1.07543 5.20915,0.49574c0.18436,0.22302 0.33767,0.46139 0.46117,0.71036c1.21152,-0.34773 2.57227,0.02496 3.42435,1.05621c1.14535,1.38604 0.94918,3.4513 -0.43742,4.59699c-1.38626,1.14568 -3.45141,0.94918 -4.5971,-0.43742c-0.056,-0.0676 -0.1088,-0.13719 -0.15829,-0.20777c-1.48634,0.68175 -3.30848,0.31326 -4.39761,-1.00496c-0.15707,-0.1901 -0.29183,-0.39169 -0.40461,-0.60101c-0.22821,0.37567 -0.52148,0.72019 -0.87859,1.01534c-1.72228,1.42316 -4.28781,1.17915 -5.71108,-0.54335c-0.07743,-0.09367 -0.14978,-0.19021 -0.21738,-0.28874c-0.30973,0.75897 -0.80492,1.45442 -1.47894,2.01135c-2.18378,1.80457 -5.43692,1.49496 -7.24138,-0.6886c-1.80468,-2.18378 -1.49507,-5.43703 0.6886,-7.24149c2.18378,-1.80457 5.43692,-1.49507 7.24138,0.68849z" fill="#ffe5e5" stroke="#1f1a17" stroke-width="0.0762"/><path d="M239.15135,120.26338l25.0936,-5.02811v15.59575l-25.09338,-5.027l-25.09349,5.027v-15.59575z" fill="#ff99ff" stroke="#1f1a17" stroke-width="0.0762"/></g></g></g></svg>