<svg xmlns="http://www.w3.org/2000/svg" width="134.352" height="142.691" viewBox="0 0 10.748 11.415" xmlns:v="https://vecta.io/nano"><style><![CDATA[.B{fill:#1d1d1b}.C{fill:#ffe19b}]]></style><g class="B"><path d="M1.927 10.89a.59.59 0 0 0-.133-.576.51.51 0 0 0-.582-.101s-.402-.428-.557-.139.169.576.169.576c-.089.169-.048.378.098.501.162.114.369.144.557.079 0 0 .507.343.642.094s-.195-.435-.195-.435zm-1.036-.368s-.195-.233-.113-.334.334.101.334.101l-.221.233zm1.058.724c-.069.047-.248-.081-.248-.081l.094-.148c.06.034.221.186.154.229zm2.399-5.16c.011-.113-.816-.482-.829-1.537s.507-1.927 1.779-2.182 1.82-.028 1.914-.12.161-.589-.589-1.032-3.032-.717-4.811.978S.22 5.718.402 6.448a4.46 4.46 0 0 0 1.713 2.55c1.036.715 1.612.948 2.522 1.09s1.873-.302 2.396-.655.642-.73.627-.891-.193-.415-.313-.381-1.098.475-1.974.214-1.145-.856-1.139-1.285.088-.749.113-1.004z"/><path d="M.235.862c.049-.017.366.026.381 0S.67.4.771.413.884.781.957.794s.355-.019.375.054-.233.289-.227.321.054.188 0 .214-.268-.06-.274-.039-.283.36-.336.334-.107-.034-.098-.073S.53 1.14.53 1.14L.208.969C.173.948.195.875.235.862zM.101 3.01c.163-.101.274 0 .242.18-.013.063-.057.114-.117.137s-.127.014-.179-.024a.19.19 0 0 1 .054-.293zM6.551.032a.37.37 0 0 1 .36.035c.106.074.164.198.154.327-.014.145-.109.27-.245.322S6.53.74 6.422.642c-.089-.089-.127-.217-.101-.34a.37.37 0 0 1 .229-.27z"/></g><path d="M6.613.188a.197.197 0 0 1 .278.195.214.214 0 0 1-.351.135.201.201 0 0 1 .073-.33z" class="C"/><path d="M8.63 1.569c.041 0 0-.608.073-.642s.274.381.347.375.349-.167.428-.12-.069.52-.054.554.214.302.139.355-.4-.069-.428-.047-.18.308-.246.3-.075-.428-.148-.447-.441-.06-.462-.141.313-.186.351-.186zm1.526 1.119a.54.54 0 0 1 .589.593c-.047.46-.642.482-.891.214a.495.495 0 0 1 .302-.807z" class="B"/><path d="M10.197 2.909a.293.293 0 0 1 .319.317c-.026.25-.345.261-.484.12a.27.27 0 0 1 .165-.437z" class="C"/><path d="M6.007 3.639c.214-.096.677 0 .55.441s-.711.334-.818.101a.428.428 0 0 1 .268-.542z" class="B"/><path d="M6.061 3.782c.133-.058.402 0 .328.261a.276.276 0 0 1-.486.06.253.253 0 0 1 .158-.321z" class="C"/><path d="M8.343 5.236s.295-.589.388-.602.101.642.101.642.415.034.402.101-.336.227-.336.227.116.469.054.503-.3-.355-.3-.355-.456.233-.495.18.098-.454.098-.454-.321-.113-.313-.167.353-.034.4-.075zM6.155 6.307a.24.24 0 0 1 .28.308.265.265 0 0 1-.428.066c-.126-.146.028-.34.148-.375zm3.117.642c.214-.056.542-.06.629.321s-.355.544-.709.456-.415-.649.079-.777z" class="B"/><path d="M9.328 7.118c.122-.03.306-.032.353.182s-.195.304-.398.263a.224.224 0 0 1 .045-.445z" class="C"/><path d="M.409 8.848a.253.253 0 0 1 .4.201c0 .233-.315.287-.428.193a.261.261 0 0 1 .028-.394zm5.553 1.734a.407.407 0 0 1 .542.428.49.49 0 0 1-.749.295c-.321-.248-.208-.617.208-.724z" class="B"/><path d="M5.997 10.775a.214.214 0 0 1 .278.214.257.257 0 0 1-.394.154c-.161-.124-.101-.317.116-.368z" class="C"/><path d="M9.105 10.175c.015-.021.343-.604.428-.642s.088-.034.107 0a5.845 5.845 0 0 1 0 .608s.214 0 .214.06-.227.248-.227.248.066.415 0 .447a.161.161 0 0 1-.148-.019l-.092-.233a2.314 2.314 0 0 1-.475.186c-.034-.026-.128-.088-.081-.126a1.771 1.771 0 0 0 .167-.274s-.454-.041-.467-.094-.015-.128.019-.141.554-.019.554-.019z" class="B"/><path d="M1.083 10.561s.248-.388.535-.173 0 .642-.019.629a.993.993 0 0 1-.516-.456zm-.053.25l.283.259.06.047a.559.559 0 0 1-.328-.032c-.135-.075-.015-.274-.015-.274z" fill="#cbe7f5"/><path d="M1.272 10.535s.12-.12.195-.113a.148.148 0 0 1 .107.06l-.135.081-.12.073a.475.475 0 0 0-.047-.101z" class="B"/><path d="M6.765 1.969c.051-.013-.214-.45-.612-.602a3.584 3.584 0 0 0-1.976-.03 5.417 5.417 0 0 0-1.97.998A4.068 4.068 0 0 0 1.171 3.71a3.171 3.171 0 0 0-.462 1.713 4.04 4.04 0 0 0 .732 2.162 5.181 5.181 0 0 0 1.285 1.285 2.057 2.057 0 0 0 .428.25s-.09-.272-.047-.289a.214.214 0 0 1 .171.017 2.717 2.717 0 0 0 .049.351c.028.015.131.094.131.081a4.607 4.607 0 0 1-.049-.58c.021-.028.214-.021.231.021s0 .58.017.599a.533.533 0 0 0 .139.088c.013 0-.021-.388 0-.388s.165.013.178.041 0 .396.019.428a2.023 2.023 0 0 0 1.139.214 3.211 3.211 0 0 0 1.597-.495c.358-.214.58-.495.557-.554s-.03-.075-.062-.079-1.364.507-2.233.058-1.124-1.038-1.158-1.351.128-.987.107-1.036-.822-.672-.856-1.409.066-1.364.655-1.985a3.162 3.162 0 0 1 1.895-.914l1.133.03z" fill="#e6e4da"/><path d="M3.727 1.824a.338.338 0 0 1 .445.257.37.37 0 0 1-.527.385c-.351-.122-.178-.55.081-.642z" class="B"/><path d="M3.772 1.997a.163.163 0 0 1 .214.124.178.178 0 0 1-.253.184c-.169-.062-.086-.268.039-.308z" fill="#fff"/><path d="M2.308 2.706c.165-.116.674-.098.719.304s-.392.717-.728.486a.501.501 0 0 1 .009-.79z" class="B"/><path d="M2.421 2.877c.094-.069.39-.058.415.176a.285.285 0 0 1-.428.287.291.291 0 0 1 .013-.462z" fill="#fff"/><path d="M1.591 3.607c.03-.028.169 0 .161.079a4.821 4.821 0 0 1-.33.901c-.066.058-.161.086-.197 0a2.248 2.248 0 0 1 .366-.981zm.032 1.552a.6.6 0 0 1 .807.736c-.103.736-.826.54-1.017.244s-.259-.784.21-.981z" class="B"/><path d="M1.691 5.339a.42.42 0 0 1 .565.516c-.077.516-.578.377-.711.171s-.182-.548.146-.687z" fill="#fff"/><path d="M2.715 7.065c.287-.122.91 0 .807.734s-.824.54-1.017.246-.259-.786.21-.981z" class="B"/><path d="M2.783 7.244c.201-.083.642 0 .565.516s-.576.377-.711.171-.182-.55.146-.687z" fill="#fff"/><path d="M4.489 8.82a.244.244 0 0 1 .349.242c0 .193-.143.338-.345.268a.27.27 0 0 1-.004-.51z" class="B"/><path d="M4.534 8.955a.113.113 0 0 1 .163.113c0 .09-.069.161-.163.126a.126.126 0 0 1 0-.24z" fill="#fff"/></svg>