<svg version="1.1" xmlns="http://www.w3.org/2000/svg" xmlns:xlink="http://www.w3.org/1999/xlink" width="140" height="99.94663" viewBox="0,0,140,99.94663"><defs><linearGradient x1="273.11968" y1="214.56302" x2="260.55206" y2="214.56302" gradientUnits="userSpaceOnUse" id="color-1"><stop offset="0" stop-color="#ffee27"/><stop offset="0.1425" stop-color="#ffe612"/><stop offset="0.4575" stop-color="#ffd600"/><stop offset="0.7511" stop-color="#fecc00"/><stop offset="1" stop-color="#fdc800"/></linearGradient><linearGradient x1="183.38623" y1="192.28318" x2="183.38623" y2="214.96728" gradientUnits="userSpaceOnUse" id="color-2"><stop offset="0" stop-color="#3e3d40"/><stop offset="1" stop-color="#000000"/></linearGradient><linearGradient x1="193.6402" y1="180.26905" x2="193.6402" y2="226.06996" gradientUnits="userSpaceOnUse" id="color-3"><stop offset="0" stop-color="#ffee27"/><stop offset="0.1425" stop-color="#ffe612"/><stop offset="0.4575" stop-color="#ffd600"/><stop offset="0.7511" stop-color="#fecc00"/><stop offset="1" stop-color="#fdc800"/></linearGradient><linearGradient x1="209.11072" y1="175.76881" x2="209.11072" y2="229.52483" gradientUnits="userSpaceOnUse" id="color-4"><stop offset="0" stop-color="#3e3d40"/><stop offset="1" stop-color="#000000"/></linearGradient><linearGradient x1="224.13792" y1="174.80954" x2="224.13792" y2="229.79979" gradientUnits="userSpaceOnUse" id="color-5"><stop offset="0" stop-color="#ffee27"/><stop offset="0.1425" stop-color="#ffe612"/><stop offset="0.4575" stop-color="#ffd600"/><stop offset="0.7511" stop-color="#fecc00"/><stop offset="1" stop-color="#fdc800"/></linearGradient><linearGradient x1="237.9758" y1="174.87942" x2="237.9758" y2="229.23637" gradientUnits="userSpaceOnUse" id="color-6"><stop offset="0" stop-color="#3e3d40"/><stop offset="1" stop-color="#000000"/></linearGradient><linearGradient x1="250.26019" y1="176.63626" x2="250.26019" y2="226.23298" gradientUnits="userSpaceOnUse" id="color-7"><stop offset="0" stop-color="#ffee27"/><stop offset="0.1425" stop-color="#ffe612"/><stop offset="0.4575" stop-color="#ffd600"/><stop offset="0.7511" stop-color="#fecc00"/><stop offset="1" stop-color="#fdc800"/></linearGradient><linearGradient x1="262.36003" y1="180.84215" x2="262.36003" y2="220.703" gradientUnits="userSpaceOnUse" id="color-8"><stop offset="0" stop-color="#3e3d40"/><stop offset="1" stop-color="#000000"/></linearGradient><radialGradient cx="286.28457" cy="183.1479" r="24.89109" fx="291.18125" fy="177.97322" gradientUnits="userSpaceOnUse" id="color-9"><stop offset="0" stop-color="#ffee27"/><stop offset="0.1317" stop-color="#ffe91c"/><stop offset="1" stop-color="#fdc800"/></radialGradient><linearGradient x1="274.07795" y1="220.21197" x2="251.75022" y2="220.21197" gradientUnits="userSpaceOnUse" id="color-10"><stop offset="0" stop-color="#ffee27"/><stop offset="0.1425" stop-color="#ffe612"/><stop offset="0.4575" stop-color="#ffd600"/><stop offset="0.7511" stop-color="#fecc00"/><stop offset="1" stop-color="#fdc800"/></linearGradient></defs><g transform="translate(-170,-130.20021)"><g data-paper-data="{&quot;isPaintingLayer&quot;:true}" fill-rule="nonzero" stroke-linecap="butt" stroke-linejoin="miter" stroke-miterlimit="10" stroke-dasharray="" stroke-dashoffset="0" style="mix-blend-mode: normal"><path d="M261.36745,211.91732c5.43295,4.37406 8.3218,3.6347 8.3218,3.6347c0,0 2.74883,-1.3455 3.23754,-0.46188c0.64463,1.16633 -0.48354,1.37008 -1.08154,1.29503c0.55693,0.21673 0.578,0.74326 -0.06465,0.8099c-0.73035,0.07564 -1.38399,-0.17341 -2.04087,-0.43989c-5.45593,0 -9.18767,-4.18647 -9.18767,-4.18647" data-paper-data="{&quot;index&quot;:null}" fill="url(#color-1)" stroke="#000000" stroke-width="0.4243"/><g data-paper-data="{&quot;index&quot;:null}" stroke="none" stroke-width="1"><g><path d="M232.21537,180.43365c8.40692,-21.544 -10.5092,-42.03685 15.23842,-44.66374c25.74762,-2.62722 -5.78037,48.34183 -5.78037,48.34183" fill="#f6f6f6"/><path d="M241.31786,183.89262c0,0 1.06399,-1.40373 2.58549,-4.07704c1.51282,-2.67577 3.60092,-6.54476 5.8578,-11.30459c1.13043,-2.37849 2.2735,-4.99385 3.36909,-7.80031c1.09002,-2.80692 2.13202,-5.81302 2.91602,-8.98684c0.3875,-1.58654 0.70451,-3.21674 0.8813,-4.87416c0.15752,-1.65219 0.20375,-3.351 -0.12287,-4.97126c-0.29032,-1.61834 -1.01669,-3.1654 -2.28503,-4.1515c-0.62522,-0.49546 -1.35703,-0.86269 -2.14368,-1.10042c-0.79334,-0.21832 -1.62013,-0.35709 -2.46573,-0.38511c-0.42015,-0.02914 -0.84772,-0.00106 -1.27112,-0.00503c-0.42028,0.03504 -0.86428,0.05577 -1.26462,0.10128l-1.30622,0.17229c-0.43525,0.05379 -0.876,0.09797 -1.28847,0.18812c-1.68226,0.27257 -3.34491,0.72511 -4.89688,1.35517c-1.53574,0.66298 -2.9284,1.60343 -3.94934,2.85044c-1.02272,1.24402 -1.66199,2.76142 -1.97589,4.33478c-0.32205,1.57475 -0.3816,3.18528 -0.36345,4.75771c0.01676,1.57515 0.14387,3.12102 0.26674,4.62537c0.26038,3.00901 0.55548,5.85926 0.66497,8.49985c0.13473,2.63808 0.1291,5.06492 -0.05001,7.20436c-0.19467,2.13685 -0.48553,3.98842 -0.85368,5.48395c-0.14725,0.75644 -0.36921,1.4081 -0.4799,1.99894c-0.13056,0.5878 -0.24157,1.08777 -0.33166,1.49315c-0.17335,0.81732 -0.20627,1.28383 -0.20627,1.28383l-0.7783,-0.3037c0,0 0.25939,-0.36319 0.63403,-1.10135c0.39544,-0.72902 0.82122,-1.87011 1.15474,-3.37266c0.34947,-1.49944 0.61701,-3.35312 0.78493,-5.48799c0.14844,-2.13732 0.13652,-4.55893 -0.04782,-7.18807c-0.19428,-2.62973 -0.57998,-5.45944 -0.93833,-8.46521c-0.17096,-1.50421 -0.35073,-3.0522 -0.42287,-4.65146c-0.07193,-1.59655 -0.07041,-3.24893 0.21216,-4.92059c0.28138,-1.66007 0.88826,-3.36869 2.01597,-4.76546c1.11062,-1.40472 2.63232,-2.4589 4.25946,-3.19203c1.64576,-0.70054 3.36167,-1.19613 5.13467,-1.51348c0.8823,-0.18752 1.74167,-0.25767 2.61688,-0.3818c0.47261,-0.05286 0.908,-0.07028 1.36405,-0.10651c0.45552,0.00384 0.90899,-0.02325 1.36643,0.00861c0.91383,0.03345 1.83269,0.18481 2.73141,0.43737c0.89515,0.27237 1.76002,0.70306 2.50527,1.29788c0.74684,0.5933 1.35365,1.35497 1.78956,2.18461c0.44108,0.83096 0.69882,1.72531 0.87084,2.61344c0.33748,1.78751 0.24826,3.56767 0.06173,5.28225c-0.20945,1.71617 -0.56044,3.37988 -0.97973,4.99061c-0.84348,3.22197 -1.9592,6.23317 -3.10632,9.04148c-1.15129,2.80818 -2.36153,5.40718 -3.51176,7.78766c-2.3098,4.75778 -4.46003,8.60385 -5.9808,11.28452c-0.75704,1.34252 -1.3355,2.40737 -1.72617,3.13699c-0.3818,0.73717 -0.58548,1.13029 -0.58548,1.13029z" fill="#000000"/></g><g fill="#000000"><path d="M241.44179,178.5391c0,0 0.53527,-0.62549 1.20693,-1.69027c0.33841,-0.52779 0.70445,-1.16321 1.06227,-1.86269c0.35603,-0.70007 0.70769,-1.46327 1.00616,-2.24807c0.16341,-0.3873 0.28555,-0.78943 0.42307,-1.17964c0.14182,-0.38915 0.23362,-0.78652 0.34855,-1.16388c0.1181,-0.37696 0.18103,-0.75379 0.26846,-1.10492c0.08856,-0.35133 0.14175,-0.68928 0.19322,-1.001c0.11797,-0.62158 0.16884,-1.14619 0.20507,-1.51355c0.03888,-0.36729 0.06107,-0.57714 0.06107,-0.57714c0,0 -0.01444,0.21051 -0.03981,0.57886c-0.02272,0.36882 -0.05432,0.89621 -0.14963,1.52348c-0.04007,0.31457 -0.08114,0.65609 -0.15699,1.01179c-0.07465,0.35557 -0.1244,0.7377 -0.22905,1.12075c-0.10141,0.38345 -0.17964,0.78797 -0.30788,1.18501c-0.12393,0.39809 -0.23263,0.80897 -0.38299,1.20574c-0.27231,0.80374 -0.59939,1.58866 -0.93423,2.31159c-0.33656,0.72226 -0.68457,1.3814 -1.00947,1.93171c-0.6394,1.1034 -1.17971,1.78586 -1.17971,1.78586z"/></g><g fill="#000000"><path d="M239.32017,177.771c0,0 0.01596,-0.04001 0.0459,-0.11512c0.02703,-0.07604 0.0667,-0.18759 0.11718,-0.3296c0.09247,-0.29205 0.21422,-0.71577 0.32086,-1.23614c0.09962,-0.52103 0.20368,-1.135 0.24707,-1.80089c0.05981,-0.66484 0.05683,-1.37856 0.03484,-2.09227c-0.02749,-0.35623 -0.05491,-0.71239 -0.08194,-1.06306c-0.04663,-0.34914 -0.09254,-0.69272 -0.13691,-1.02524c-0.12214,-0.66007 -0.24104,-1.27655 -0.38677,-1.79513c-0.12029,-0.52547 -0.27409,-0.94794 -0.36537,-1.24886c-0.09525,-0.29986 -0.1497,-0.47122 -0.1497,-0.47122c0,0 0.06173,0.16878 0.16984,0.4642c0.10419,0.29675 0.27661,0.71372 0.41995,1.23488c0.16871,0.51421 0.31483,1.12751 0.46665,1.78764c0.05928,0.33344 0.12055,0.67795 0.18275,1.02809c0.04272,0.35351 0.08604,0.71266 0.12936,1.0718c0.05379,0.72173 0.08796,1.44758 0.05644,2.12844c-0.0151,0.68146 -0.09406,1.3153 -0.17374,1.85673c-0.17003,1.07876 -0.43466,1.78923 -0.43466,1.78923z"/></g></g><path d="M182.1685,205.01402c-5.28033,0.56733 -9.86662,-2.6502 -9.50045,-3.32742c2.06604,0.97741 9.70288,0.30986 9.70288,0.30986" data-paper-data="{&quot;index&quot;:null}" fill="#000000" stroke="none" stroke-width="1"/><g data-paper-data="{&quot;index&quot;:null}" stroke="#000000" stroke-width="0.6941"><path d="M180.84499,202.30433c0,-3.53766 1.11002,-6.91497 3.11076,-10.02115c0.04915,7.5288 0.70445,15.1339 1.97165,22.68409c-3.24012,-3.79063 -5.08241,-8.0948 -5.08241,-12.66294z" fill="url(#color-2)"/><path d="M199.00685,180.26905c-0.96834,10.80383 -0.50838,22.01137 1.42698,33.10049c0.75101,4.30225 1.72326,8.5437 2.89085,12.70043c-7.38844,-2.61914 -13.44111,-6.47441 -17.39727,-11.10269c-1.26721,-7.55019 -1.92251,-15.1553 -1.97165,-22.68409c3.09844,-4.81203 8.35095,-8.96677 15.0511,-12.01413z" fill="url(#color-3)"/><path d="M199.00685,180.26905c4.49315,-2.04279 9.63564,-3.58363 15.2006,-4.50024c-1.65146,11.2612 -1.48911,23.22877 0.58217,35.09539c1.12102,6.42142 2.78473,12.67718 4.91549,18.66064c-5.9039,-0.50454 -11.43846,-1.70253 -16.38044,-3.45487c-1.16759,-4.15673 -2.13983,-8.39818 -2.89085,-12.70043c-1.93536,-11.08911 -2.39532,-22.29666 -1.42698,-33.10049z" fill="url(#color-4)"/><path d="M229.10786,174.87942c-1.9386,10.56384 -1.95867,22.0437 0.03723,33.47884c1.27396,7.29723 3.32517,14.33248 6.04227,20.8781c-2.95258,0.36935 -6.00962,0.56342 -9.1417,0.56342c-2.15275,0 -4.26735,-0.0977 -6.34054,-0.27496c-2.13076,-5.98345 -3.79447,-12.23921 -4.91549,-18.66064c-2.07128,-11.86662 -2.23363,-23.83419 -0.58217,-35.09539c3.7744,-0.62158 7.7403,-0.95927 11.83821,-0.95927c1.03041,0 2.04922,0.02848 3.0622,0.06988z" fill="url(#color-5)"/><path d="M229.10786,174.87942c4.60337,0.18759 9.01592,0.79301 13.13966,1.75684c-1.77758,9.18151 -1.82348,19.29586 -0.05206,29.44379c1.2688,7.26749 3.36432,14.04527 6.10507,20.15292c-4.02829,1.38948 -8.43567,2.41923 -13.11316,3.00338c-2.7171,-6.54562 -4.76831,-13.58087 -6.04227,-20.8781c-1.9959,-11.43514 -1.97583,-22.915 -0.03723,-33.47884z" fill="url(#color-6)"/><path d="M254.59317,203.91565c1.05829,6.06241 2.79798,11.71725 5.03677,16.78735c-3.25045,2.19415 -7.07698,4.06353 -11.32943,5.52998c-2.74075,-6.10765 -4.83627,-12.88544 -6.10507,-20.15292c-1.77142,-10.14793 -1.72551,-20.26228 0.05206,-29.44379c4.38187,1.02398 8.43315,2.45029 12.03487,4.20588c-1.1346,7.03916 -1.11261,14.92048 0.31079,23.07351z" fill="url(#color-7)"/><path d="M254.28238,180.84214c10.33711,5.03903 16.96321,12.77747 16.96321,21.46219c0,7.07599 -4.39698,13.52583 -11.61564,18.39866c-2.23879,-5.07009 -3.97848,-10.72494 -5.03677,-16.78735c-1.4234,-8.15303 -1.44539,-16.03435 -0.31079,-23.07351z" fill="url(#color-8)"/></g><path d="M183.24163,192.40089c3.09976,-4.81554 8.34578,-8.96869 15.04918,-12.01572c4.49117,-2.03988 9.63756,-3.5833 15.20186,-4.49733c3.77506,-0.62291 7.73645,-0.96059 11.83655,-0.96059c1.03339,0 2.0467,0.02656 3.06028,0.0663c4.60337,0.19216 9.01499,0.79466 13.14165,1.76174c4.38505,1.02007 8.43216,2.45096 12.03546,4.20621c3.04704,1.48387 5.77613,3.19938 8.10096,5.11374c-0.65563,-0.3247 -1.33802,-0.64265 -2.02696,-0.94734c-3.96106,-1.75525 -8.41884,-3.18607 -13.23445,-4.20621c-4.53707,-0.96702 -9.39235,-1.56959 -14.4531,-1.76168c-1.11294,-0.03981 -2.2323,-0.0663 -3.36498,-0.0663c-4.51084,0 -8.8694,0.33762 -13.02222,0.96026c-6.12063,0.91436 -11.77091,2.45771 -16.7123,4.49759c-7.37228,3.04704 -13.14807,7.20019 -16.55313,12.01579c-0.80149,1.13943 -1.47679,2.30536 -2.00656,3.51051c0.3771,-2.68902 1.39074,-5.26576 2.94774,-7.67697z" data-paper-data="{&quot;index&quot;:null}" fill="#f6f6f6" stroke="none" stroke-width="1" opacity="0.1"/><g data-paper-data="{&quot;index&quot;:null}" stroke="none" stroke-width="1"><path d="M279.50572,212.75497c-15.76548,0 -28.54593,-10.93781 -28.54593,-24.43027c0,-13.49247 12.78045,-24.43027 28.54593,-24.43027c15.76548,0 28.54593,10.93781 28.54593,24.43027c0,13.49247 -12.78045,24.43027 -28.54593,24.43027z" fill="url(#color-9)"/><path d="M307.87341,188.32471c0,0 -0.04623,-0.64357 -0.13287,-1.85037c-0.00503,-0.60727 -0.1911,-1.33424 -0.34557,-2.19494c-0.11314,-0.8717 -0.4893,-1.81381 -0.80731,-2.89104c-0.80248,-2.09651 -2.0628,-4.55813 -4.09473,-6.94239c-2.01683,-2.38359 -4.78487,-4.67074 -8.20284,-6.42308c-3.39737,-1.75764 -7.48952,-2.97239 -11.8084,-3.33411c-4.42884,-0.33696 -9.07063,0.2217 -13.56557,1.81268c-4.45156,1.62205 -8.74951,4.31669 -11.90994,8.14448c-0.42618,0.45142 -0.77459,0.96344 -1.12791,1.47275c-0.34835,0.51189 -0.743,0.99649 -1.01862,1.55462c-0.29503,0.54547 -0.62052,1.07638 -0.90727,1.62741l-0.73988,1.71299c-0.88057,2.37478 -1.34663,4.68068 -1.40922,7.36055l0.10565,1.82222c-0.00272,0.6286 0.17255,1.23601 0.26071,1.85375l0.15977,0.92336c0.06988,0.3039 0.17321,0.59992 0.25773,0.90031l0.26581,0.89813c0.08598,0.30019 0.1695,0.60125 0.30536,0.88375l0.72895,1.72392c0.28304,0.55508 0.60549,1.09022 0.89939,1.6392c0.27343,0.5623 0.66576,1.0512 1.01232,1.56753c0.35153,0.51381 0.69829,1.0306 1.12314,1.48672c3.14984,3.86601 7.45355,6.60636 11.92557,8.26722c1.14222,0.35418 2.2539,0.78877 3.41373,1.00855c0.57409,0.12777 1.14394,0.27714 1.71452,0.38637c0.57329,0.08147 1.14367,0.16262 1.71101,0.24329l0.84971,0.12208c0.28701,0.02862 0.58124,0.03517 0.87017,0.05379c0.58005,0.03153 1.15672,0.06279 1.72995,0.09393c0.53401,0.04802 1.11844,-0.01802 1.67014,-0.02133c0.55839,-0.02133 1.11473,-0.02789 1.6653,-0.06054c4.40221,-0.36683 8.47799,-1.5984 11.90729,-3.37187c3.43751,-1.76903 6.22079,-4.07579 8.24828,-6.47951c0.13128,-0.14678 0.26144,-0.29244 0.39061,-0.43684c0.11413,-0.15626 0.22733,-0.31125 0.33954,-0.46499c0.22395,-0.30821 0.44413,-0.61118 0.6604,-0.90879c0.45983,-0.57846 0.78738,-1.20998 1.13029,-1.7995c0.16805,-0.29681 0.33265,-0.5876 0.49374,-0.87223c0.14327,-0.29337 0.25939,-0.59224 0.3861,-0.87786c0.23521,-0.57859 0.50924,-1.11248 0.68034,-1.65146c0.31238,-1.08591 0.67464,-2.03995 0.76704,-2.91449c0.13718,-0.86534 0.30861,-1.58813 0.30198,-2.20574c0.06266,-1.21899 0.09605,-1.86905 0.09605,-1.86905zM308.22944,188.33524c0,0 -0.04325,0.64947 -0.1244,1.86733c-0.00232,0.60973 -0.18633,1.35809 -0.34,2.23734c-0.11592,0.8921 -0.48679,1.85097 -0.79287,2.95576c-0.79115,2.1452 -2.03041,4.67657 -4.04333,7.16906c-2.00524,2.48666 -4.78527,4.89906 -8.2551,6.78322c-3.46129,1.88819 -7.60563,3.24396 -12.12065,3.72028c-0.56448,0.04637 -1.13546,0.0663 -1.70915,0.10075c-0.58091,0.01576 -1.13652,0.09618 -1.74949,0.05895c-0.57376,-0.01841 -1.15103,-0.03696 -1.73161,-0.05564c-0.29079,-0.01225 -0.58018,-0.01212 -0.87455,-0.03464l-0.89276,-0.10552c-0.59754,-0.07141 -1.19825,-0.14327 -1.80208,-0.21547c-0.59674,-0.10042 -1.1864,-0.24031 -1.78499,-0.36007c-1.20647,-0.20322 -2.36955,-0.62463 -3.56502,-0.969c-4.68332,-1.63225 -9.25305,-4.39857 -12.68553,-8.4362c-1.6912,-2.01623 -3.18898,-4.27881 -4.12354,-6.81104c-0.14652,-0.3037 -0.24071,-0.62721 -0.33682,-0.95026l-0.29463,-0.96728c-0.09359,-0.32377 -0.20547,-0.64324 -0.2835,-0.97112l-0.18262,-0.99676c-0.10227,-0.66715 -0.2894,-1.3249 -0.29622,-2.00418l-0.12426,-2.07624c0.02245,-2.53375 0.52885,-5.40188 1.4644,-7.88662c0.91793,-2.54627 2.40876,-4.82494 4.09393,-6.86052c3.42181,-4.07579 7.99724,-6.88794 12.70103,-8.55907c4.74698,-1.57522 9.68526,-2.03644 14.16854,-1.5941c4.59827,0.48155 8.72619,1.85435 12.21927,3.75864c3.48924,1.90104 6.28437,4.33325 8.30021,6.84012c2.0312,2.50799 3.26238,5.07062 4.02948,7.23841c0.30046,1.11353 0.65742,2.08426 0.7526,2.97921c0.13639,0.88389 0.30556,1.62808 0.29642,2.2482c0.0571,1.22998 0.08757,1.88594 0.08757,1.88594z" fill="#000000"/></g><g data-paper-data="{&quot;index&quot;:null}" stroke="none" stroke-width="1"><path d="M303.088,188.09087c-4.66987,0.81442 -9.31516,-3.45437 -10.37555,-9.5346c-1.06038,-6.08023 1.86569,-11.66945 6.53556,-12.48387c4.66987,-0.81442 9.31516,3.45437 10.37555,9.5346c1.06038,6.08023 -1.86569,11.66945 -6.53556,12.48387z" fill="#ffffff"/><path d="M292.53106,178.58712c0,0 -0.03299,-0.24415 -0.09485,-0.702c-0.03358,-0.22866 -0.0724,-0.51096 -0.0826,-0.84633c-0.0155,-0.33457 -0.05458,-0.71875 -0.0316,-1.15043c-0.01239,-0.86309 0.11625,-1.91204 0.39207,-3.08194c0.2892,-1.16494 0.78877,-2.45659 1.6502,-3.67405c0.10909,-0.15076 0.21938,-0.30317 0.33073,-0.45705c0.12632,-0.14228 0.25396,-0.28589 0.38273,-0.43088c0.24435,-0.30284 0.56051,-0.5466 0.85454,-0.82096c0.64337,-0.48374 1.33312,-0.95966 2.17355,-1.22495c1.59708,-0.58734 3.55217,-0.51984 5.25112,0.24886c1.7126,0.75227 3.18627,2.09466 4.26973,3.70339c1.10837,1.59515 1.80294,3.5064 2.16355,5.42771c0.31092,1.94099 0.30191,3.95702 -0.20143,5.83905c-0.47572,1.87991 -1.40883,3.6408 -2.76559,4.92702c-0.66351,0.66007 -1.46062,1.1448 -2.29404,1.49672c-0.21296,0.07723 -0.42479,0.175 -0.63582,0.2323c-0.2111,0.05133 -0.42095,0.10234 -0.6296,0.15308c-0.22733,0.06498 -0.4389,0.05902 -0.65709,0.09134c-0.21627,0.02451 -0.43095,0.05226 -0.64596,0.0363c-0.86315,0.03418 -1.68497,-0.17977 -2.44983,-0.4173c-0.36935,-0.15851 -0.74902,-0.28092 -1.08141,-0.48294c-0.17023,-0.09273 -0.33888,-0.18461 -0.5058,-0.27562c-0.15679,-0.10704 -0.31212,-0.21296 -0.46579,-0.31788c-1.22236,-0.85328 -2.12983,-1.89906 -2.79639,-2.89701c-0.65569,-1.00709 -1.13202,-1.95039 -1.41273,-2.76658c-0.16758,-0.3973 -0.26204,-0.77552 -0.3612,-1.09731c-0.10492,-0.32298 -0.16301,-0.5982 -0.20819,-0.82142c-0.09585,-0.44631 -0.14698,-0.68431 -0.14698,-0.68431zM292.87874,178.51976c0,0 0.05107,0.23799 0.14672,0.68438c0.04531,0.22448 0.10366,0.50017 0.20448,0.80725c0.09618,0.31039 0.18534,0.67278 0.34954,1.06194c0.2729,0.79639 0.7375,1.71472 1.37405,2.69418c0.64715,0.97033 1.52786,1.98424 2.70498,2.80619c0.14784,0.10115 0.29721,0.20335 0.4481,0.30655c0.16023,0.08724 0.32212,0.1754 0.48553,0.26436c0.31907,0.19514 0.68212,0.31026 1.03524,0.46327c0.73041,0.22567 1.51249,0.43194 2.33166,0.39823c0.20421,0.0161 0.40796,-0.01106 0.61324,-0.03438c0.2005,-0.02967 0.42273,-0.02676 0.60926,-0.08293c0.20865,-0.05061 0.41856,-0.10154 0.62966,-0.15281c0.20759,-0.05663 0.39372,-0.14718 0.59356,-0.21885c0.77751,-0.32907 1.54773,-0.79201 2.18031,-1.42386c1.29927,-1.23164 2.20488,-2.93423 2.66623,-4.76235c0.48924,-1.82937 0.49725,-3.79686 0.19335,-5.69207c-0.35881,-1.89667 -1.02855,-3.72797 -2.11003,-5.28954c-1.05319,-1.56349 -2.48169,-2.85799 -4.12036,-3.57641c-1.63337,-0.73147 -3.45911,-0.79917 -5.00511,-0.23217c-0.76565,0.23992 -1.44294,0.70226 -2.05001,1.16023c-0.28025,0.26336 -0.58283,0.4944 -0.81705,0.78572c-0.1236,0.1389 -0.24614,0.27648 -0.36742,0.41273c-0.10704,0.14811 -0.21302,0.29469 -0.31794,0.43982c-0.8297,1.1709 -1.31583,2.42254 -1.59688,3.55422c-0.268,1.13672 -0.39491,2.15805 -0.38253,2.99968c-0.02298,0.42068 0.01557,0.79559 0.03034,1.12195c0.00947,0.32715 0.04749,0.6027 0.08028,0.82593c0.06008,0.44698 0.09207,0.68537 0.09207,0.68537z" fill="#000000"/></g><path d="M296.77668,173.29102c0,0 0.11718,-0.43446 0.29946,-1.21945c0.18143,-0.78175 0.42571,-1.90455 0.67358,-3.26125c0.49407,-2.71061 0.99848,-6.37082 0.99649,-10.04745c-0.01047,-0.9176 -0.03868,-1.83593 -0.12228,-2.73466c-0.08068,-0.89852 -0.19421,-1.78135 -0.37531,-2.62c-0.16361,-0.84348 -0.40637,-1.63689 -0.66934,-2.37717c-0.15063,-0.3614 -0.29801,-0.71451 -0.45625,-1.04763c-0.18408,-0.31841 -0.33331,-0.64596 -0.52845,-0.92641c-0.37253,-0.57435 -0.78234,-1.05266 -1.18242,-1.43837c-0.21084,-0.18169 -0.40823,-0.35173 -0.59071,-0.50898c-0.20276,-0.13042 -0.38902,-0.25018 -0.55726,-0.35835c-0.16447,-0.11605 -0.32165,-0.2007 -0.46738,-0.2576c-0.14188,-0.06458 -0.26257,-0.11943 -0.3604,-0.16394c-0.196,-0.08922 -0.30052,-0.13685 -0.30052,-0.13685l0.03319,-0.09399c0,0 0.10757,0.04471 0.3092,0.12844c0.10095,0.04206 0.22548,0.09386 0.37193,0.15473c0.15049,0.05345 0.31344,0.1344 0.485,0.24687c0.17573,0.10512 0.37027,0.2215 0.58204,0.34822c0.19236,0.15493 0.40041,0.32252 0.62271,0.50162c0.42353,0.382 0.8613,0.86017 1.26376,1.4383c0.21024,0.28271 0.37418,0.61171 0.57429,0.93436c0.17354,0.33616 0.33669,0.69299 0.50341,1.05948c0.2943,0.74843 0.56945,1.55369 0.76466,2.4083c0.21296,0.85083 0.35815,1.74571 0.47029,2.65729c0.11499,0.91197 0.17441,1.84322 0.21554,2.77486c0.12453,3.73062 -0.26469,7.44878 -0.67451,10.20887c-0.41187,2.76254 -0.84037,4.58887 -0.84037,4.58887z" data-paper-data="{&quot;index&quot;:null}" fill="#000000" stroke="none" stroke-width="1"/><path d="M294.68089,172.81252c0,0 -0.08796,-0.57548 -0.29377,-1.5978c-0.20415,-1.01828 -0.52653,-2.47076 -0.9951,-4.19309c-0.47003,-1.72121 -1.07452,-3.71737 -1.86541,-5.80315c-0.39935,-1.04081 -0.82387,-2.11321 -1.3153,-3.17507c-0.47533,-1.06988 -1.01934,-2.12659 -1.58509,-3.1711c-0.58714,-1.03153 -1.19964,-2.05041 -1.87627,-3.00179c-0.33444,-0.47871 -0.67298,-0.94847 -1.03749,-1.38902c-0.34583,-0.45645 -0.72253,-0.8764 -1.09532,-1.28787c-0.74194,-0.82679 -1.53634,-1.54972 -2.3202,-2.19667c-0.3969,-0.31662 -0.80712,-0.59283 -1.1911,-0.87799c-0.40101,-0.25879 -0.80235,-0.48765 -1.18037,-0.71948c-0.78579,-0.40823 -1.52084,-0.75876 -2.20687,-0.98258c-0.16911,-0.06233 -0.33278,-0.12261 -0.49083,-0.18083c-0.16281,-0.04246 -0.3198,-0.08333 -0.47062,-0.12267c-0.30225,-0.0775 -0.57998,-0.14864 -0.83076,-0.21296c-0.50692,-0.1028 -0.91363,-0.14261 -1.18726,-0.18944c-0.27489,-0.0408 -0.42148,-0.06253 -0.42148,-0.06253l0.02623,-0.30821c0,0 0.15016,0.01908 0.43161,0.05491c0.28039,0.042 0.69723,0.07492 1.21839,0.1699c0.25826,0.06067 0.54422,0.12791 0.85547,0.20103c0.15553,0.03736 0.31748,0.07631 0.4854,0.11665c0.16321,0.05637 0.33232,0.11473 0.50706,0.175c0.70908,0.2164 1.47076,0.56024 2.28702,0.96456c0.39273,0.22958 0.81003,0.45711 1.22747,0.71511c0.39962,0.2839 0.82705,0.56018 1.24085,0.87706c0.81725,0.64715 1.64682,1.37312 2.42274,2.20362c0.38995,0.41339 0.784,0.83613 1.14639,1.29463c0.38167,0.44347 0.7367,0.91575 1.08757,1.3973c0.70981,0.95754 1.35418,1.98225 1.97271,3.02081c0.59661,1.05054 1.17116,2.11473 1.67537,3.1911c0.52063,1.06909 0.97284,2.14791 1.39896,3.19587c0.84428,2.09989 1.49692,4.10983 2.00809,5.84535c0.50971,1.73657 0.866,3.20336 1.09466,4.23628c0.22885,1.02895 0.33444,1.63629 0.33444,1.63629z" data-paper-data="{&quot;index&quot;:null}" fill="#000000" stroke="none" stroke-width="1"/><path d="M302.58791,184.66702c-2.03007,0 -3.67577,-2.43547 -3.67577,-5.43977c0,-3.0043 1.6457,-5.43977 3.67577,-5.43977c2.03007,0 3.67577,2.43547 3.67577,5.43977c0,3.0043 -1.6457,5.43977 -3.67577,5.43977z" data-paper-data="{&quot;index&quot;:null}" fill="#000000" stroke="#000000" stroke-width="0.4745"/><g data-paper-data="{&quot;index&quot;:null}" fill="#000000" stroke="none" stroke-width="1"><g><path d="M301.34137,195.63001c0.06935,-0.06524 0.17871,-0.06842 0.25111,-0.00397c0.07684,0.06823 0.08386,0.1858 0.01563,0.26264l-0.00331,0.00331c0,0 -0.25899,0.29171 -0.75909,0.72942c-0.50063,0.44068 -1.26058,1.02206 -2.25847,1.59489c-0.9953,0.57018 -2.24813,1.12095 -3.6822,1.39717c-0.71266,0.15208 -1.4691,0.22488 -2.2384,0.22521c-0.77168,0.0157 -1.55104,-0.0977 -2.32126,-0.24184c-0.76015,-0.18752 -1.5105,-0.42273 -2.20945,-0.74141c-0.35007,-0.15778 -0.69915,-0.31178 -1.02186,-0.50321c-0.32993,-0.17924 -0.65503,-0.35789 -0.95324,-0.56548c-0.619,-0.38398 -1.16739,-0.82076 -1.6867,-1.23283c-0.49964,-0.43406 -0.97596,-0.84149 -1.37359,-1.25767c-0.20203,-0.20481 -0.40578,-0.3926 -0.58111,-0.58694c-0.16758,-0.20103 -0.32656,-0.39167 -0.47599,-0.57084c-0.29291,-0.36385 -0.51878,-0.70266 -0.6761,-1.00232c-0.33106,-0.58701 -0.45479,-0.96384 -0.45479,-0.96384c-0.01702,-0.05286 -0.01199,-0.11333 0.01947,-0.16427c0.0569,-0.0922 0.17778,-0.12075 0.26999,-0.06385l0.00808,0.00464c0,0 0.3408,0.21044 0.82262,0.65119c0.23382,0.22362 0.51772,0.49513 0.84341,0.80659c0.31013,0.32232 0.6449,0.69723 1.03339,1.0822c0.37332,0.40253 0.81785,0.79128 1.28364,1.20832c0.48294,0.39299 0.99252,0.81155 1.5631,1.17527c0.27568,0.19858 0.57435,0.36676 0.8772,0.53666c0.29681,0.18262 0.61582,0.32702 0.93568,0.47678c0.6388,0.30258 1.32053,0.52454 2.0106,0.70617c0.69451,0.15639 1.40021,0.29277 2.10572,0.30562c0.70332,0.02842 1.40154,-0.00888 2.06744,-0.12334c1.33689,-0.20753 2.53991,-0.66709 3.52905,-1.13592c0.98907,-0.47917 1.75399,-0.99901 2.27297,-1.37922c0.52328,-0.38167 0.78632,-0.62993 0.78632,-0.62993z"/></g><g><path d="M283.68166,190.98259c0.04127,0.00537 0.08121,0.02318 0.11406,0.05352c0.08412,0.07803 0.08909,0.20951 0.01106,0.29364l-0.00397,0.00464c0,0 -0.22481,0.24243 -0.56932,0.53448c-0.32603,0.27323 -0.76075,0.63755 -1.19547,1.00186c-0.20806,0.17109 -0.39293,0.34702 -0.57979,0.4997c-0.08114,0.08214 -0.17176,0.15619 -0.25833,0.22594c-0.08015,0.0718 -0.15036,0.14738 -0.23382,0.20951c-0.06816,0.06796 -0.12897,0.13539 -0.19971,0.19249c-0.06955,0.05816 -0.10631,0.11824 -0.15871,0.1648c-0.09128,0.09664 -0.16142,0.15785 -0.16142,0.15785l-0.02862,0.02497c-0.01855,0.01603 -0.04014,0.02908 -0.06445,0.03822c-0.10996,0.04133 -0.23263,-0.01437 -0.2739,-0.12433c0,0 -0.03259,-0.08677 -0.05802,-0.24899c-0.03974,-0.16745 -0.02663,-0.39558 0.0255,-0.67729c0.06955,-0.26846 0.1956,-0.5729 0.39193,-0.85123c0.19918,-0.26979 0.45307,-0.52044 0.73015,-0.72087c0.27741,-0.20209 0.57223,-0.36663 0.86044,-0.48579c0.28993,-0.11731 0.5674,-0.19852 0.81195,-0.24468c0.48586,-0.09512 0.84063,-0.04829 0.84063,-0.04829z"/></g></g><g data-paper-data="{&quot;index&quot;:null}" stroke="none" stroke-width="1"><path d="M230.80263,183.69517c-4.1658,-0.41664 -85.40172,-29.57832 -52.07417,-49.15815c33.32749,-19.57983 59.69517,47.54518 59.69517,47.54518" fill="#f6f6f6"/><path d="M238.45318,182.0704c0.00583,0.01603 -0.00179,0.03411 -0.01788,0.04074c-0.01623,0.00649 -0.03458,-0.00132 -0.0412,-0.01755c0,0 -1.05876,-2.50527 -3.15944,-6.76818c-1.05319,-2.1295 -2.372,-4.69591 -3.98862,-7.5802c-1.62569,-2.87833 -3.50567,-6.09997 -5.73036,-9.49933c-2.2274,-3.39525 -4.79123,-6.97822 -7.79342,-10.51496c-3.01173,-3.51806 -6.42573,-7.05214 -10.47184,-10.02678c-2.01458,-1.49249 -4.20945,-2.79891 -6.5441,-3.84494c-2.33848,-1.02723 -4.84077,-1.76499 -7.4146,-2.01637c-5.16587,-0.57926 -10.45475,1.01 -14.93214,3.82838c-0.59641,0.35106 -1.12102,0.72988 -1.64742,1.10645c-0.53196,0.37047 -1.02848,0.80824 -1.52733,1.22448c-0.96768,0.87011 -1.82348,1.84302 -2.48639,2.91529c-0.66113,1.07187 -1.0936,2.25999 -1.21018,3.4864c-0.12009,1.22541 0.05862,2.47745 0.4687,3.66564c0.83798,2.38101 2.3824,4.51395 4.12089,6.3889c1.73869,1.88998 3.68644,3.56303 5.68154,5.10328c3.99127,3.08956 8.16727,5.68849 12.21477,7.98121c4.0532,2.2898 7.992,4.27304 11.66744,6.01882c3.68372,1.72882 7.08328,3.27278 10.13422,4.55489c3.04697,1.29165 5.73049,2.35471 7.95352,3.19515c2.22396,0.83772 3.9814,1.47189 5.19396,1.86057c0.60535,0.19726 1.07379,0.3351 1.39247,0.41551c0.31788,0.08532 0.48712,0.10426 0.48712,0.10426c0.00132,0.00066 0.00278,0.00199 0.00265,0.00331c-0.00066,0.00132 -0.00199,0.00278 -0.00331,0.00265c0,0 -0.1707,-0.01225 -0.49235,-0.08505c-0.32265,-0.06796 -0.79705,-0.18732 -1.41075,-0.36067c-1.22733,-0.34663 -3.01729,-0.89276 -5.26795,-1.66855c-2.25072,-0.77539 -4.96921,-1.76002 -8.06003,-2.96344c-3.08857,-1.20773 -6.56152,-2.6088 -10.28206,-4.29649c-3.72114,-1.68504 -7.7138,-3.6045 -11.83821,-5.83614c-4.11579,-2.24158 -8.39109,-4.76626 -12.50284,-7.8684c-2.04617,-1.55998 -4.05611,-3.26125 -5.88357,-5.22184c-0.91303,-0.97861 -1.78778,-2.01676 -2.54939,-3.16017c-0.76519,-1.13712 -1.444,-2.36405 -1.9127,-3.70538c-0.47043,-1.33596 -0.69875,-2.80361 -0.56415,-4.26443c0.1285,-1.46202 0.64006,-2.88071 1.39041,-4.11361c1.50898,-2.48136 3.78155,-4.3104 6.11712,-5.78136c2.35478,-1.47149 4.89867,-2.71187 7.61517,-3.40837c1.34835,-0.37908 2.74022,-0.57104 4.12659,-0.70809c1.39141,-0.07472 2.78771,-0.09611 4.16209,0.07492c2.7534,0.28814 5.4046,1.09267 7.85337,2.18832c2.4448,1.11453 4.71744,2.49209 6.78706,4.04624c4.15196,3.10215 7.63021,6.71506 10.58968,10.36864c2.97027,3.65179 5.48057,7.32187 7.65299,10.78905c2.17415,3.46785 3.9959,6.74685 5.51084,9.70115c1.52256,2.95059 2.75552,5.56834 3.73698,7.73798c0.98397,2.16878 1.69133,3.90138 2.16553,5.08506c0.46115,1.18898 0.70703,1.82315 0.70703,1.82315z" fill="#000000"/></g><g data-paper-data="{&quot;index&quot;:null}" stroke="none" stroke-width="1"><path d="M235.9018,182.04762c0,0 -7.95471,-6.12481 -17.53697,-18.62248" fill="#f6f6f6"/><path d="M236.17146,181.72815c0.17918,0.14546 0.20647,0.40856 0.06107,0.58773c-0.14546,0.17918 -0.40856,0.20647 -0.58773,0.06107c0,0 -1.26343,-1.0255 -3.01736,-2.67935c-0.87316,-0.83275 -1.88601,-1.80937 -2.93304,-2.89217c-1.05452,-1.07551 -2.14666,-2.25297 -3.22475,-3.44188c-1.07088,-1.19574 -2.1185,-2.41095 -3.08665,-3.56144c-0.95681,-1.1603 -1.8456,-2.24555 -2.58237,-3.19601c-0.75181,-0.9382 -1.34557,-1.74552 -1.77102,-2.30265c-0.42307,-0.55892 -0.66484,-0.87832 -0.66484,-0.87832c0,0 0.25204,0.31139 0.69312,0.85626c0.4434,0.54296 1.06253,1.3298 1.84401,2.24244c0.76645,0.92495 1.68921,1.97947 2.68113,3.10552c1.00325,1.11625 2.08711,2.29357 3.19256,3.44983c1.11267,1.1493 2.23773,2.28569 3.32106,3.3208c1.07611,1.04266 2.11347,1.97947 3.0059,2.77678c1.79718,1.58668 3.05618,2.5415 3.05618,2.5415c0.00318,0.00238 0.00941,0.00722 0.01272,0.00987z" fill="#000000"/></g><g data-paper-data="{&quot;index&quot;:null}" stroke="none" stroke-width="1"><path d="M233.23127,182.67119c0,0 -14.73124,-6.1203 -21.81372,-14.0356" fill="#f6f6f6"/><path d="M233.39335,182.28627c0.00358,0.00132 0.01106,0.00464 0.01437,0.00596c0.2107,0.09346 0.30615,0.34027 0.21269,0.55124c-0.09346,0.21077 -0.34027,0.30622 -0.55124,0.21276c0,0 -1.5103,-0.65993 -3.70061,-1.76651c-1.09307,-0.56044 -2.36617,-1.21779 -3.70187,-1.97397c-0.67278,-0.36875 -1.3557,-0.77194 -2.04962,-1.18097c-0.69882,-0.40028 -1.38432,-0.84931 -2.08254,-1.27496c-0.68404,-0.44877 -1.36809,-0.89747 -2.04147,-1.33914c-0.65596,-0.46791 -1.30967,-0.91568 -1.92635,-1.3712c-0.60641,-0.46996 -1.20422,-0.90806 -1.74896,-1.35179c-0.53739,-0.45254 -1.04544,-0.88038 -1.51441,-1.27529c-0.44744,-0.41896 -0.85752,-0.80308 -1.22104,-1.14347c-0.37332,-0.32974 -0.64748,-0.66994 -0.89826,-0.92383c-0.48778,-0.52143 -0.76651,-0.81944 -0.76651,-0.81944c0,0 0.28807,0.28893 0.79228,0.79446c0.25873,0.24568 0.54196,0.57528 0.92548,0.8927c0.37306,0.32762 0.79393,0.69723 1.2531,1.10049c0.47957,0.37835 0.99914,0.78824 1.54872,1.2217c0.55627,0.42426 1.166,0.84169 1.7834,1.28946c0.62801,0.43353 1.29317,0.85845 1.95953,1.30245c0.68358,0.41777 1.37809,0.84216 2.07254,1.26655c0.70842,0.40127 1.40286,0.82527 2.11075,1.2011c0.70279,0.38451 1.39386,0.76327 2.07432,1.10837c1.3508,0.70869 2.63649,1.32119 3.73883,1.84262c2.21462,1.03094 3.71684,1.63066 3.71684,1.63066z" fill="#000000"/></g><path d="M300.78993,178.48564c-0.71091,0 -1.28721,-0.78123 -1.28721,-1.74492c0,-0.96369 0.5763,-1.74492 1.28721,-1.74492c0.71091,0 1.28721,0.78123 1.28721,1.74492c0,0.96369 -0.5763,1.74492 -1.28721,1.74492z" data-paper-data="{&quot;index&quot;:null}" fill="#ffffff" stroke="none" stroke-width="1"/><g data-paper-data="{&quot;index&quot;:null}" stroke="none" stroke-width="1"><path d="M291.90502,188.46958c-5.96704,1.04064 -11.9026,-4.41352 -13.25745,-12.18222c-1.35485,-7.76869 2.38407,-14.91007 8.35111,-15.95072c5.96704,-1.04064 11.9026,4.41352 13.25745,12.18222c1.35485,7.76869 -2.38407,14.91007 -8.35111,15.95072z" fill="#ffffff"/><path d="M278.27627,176.35031c0,0 -0.04464,-0.3141 -0.1283,-0.90296c-0.04524,-0.29417 -0.09764,-0.65742 -0.1138,-1.08942c-0.02292,-0.43101 -0.07637,-0.92588 -0.05074,-1.48268c0.00437,-0.27827 0.00914,-0.57144 0.01378,-0.87892c0.02895,-0.30642 0.05915,-0.62715 0.09068,-0.96145c0.02133,-0.33576 0.08147,-0.68047 0.14804,-1.03763c0.06677,-0.35689 0.11499,-0.73114 0.22707,-1.10499c0.36855,-1.50799 1.01325,-3.18143 2.12864,-4.76586c0.14149,-0.1962 0.28443,-0.39452 0.42883,-0.59476c0.16401,-0.18547 0.3296,-0.37279 0.49679,-0.5619c0.31781,-0.39399 0.72796,-0.71471 1.11195,-1.07167c0.2009,-0.16871 0.42843,-0.30927 0.64437,-0.46652c0.21733,-0.15632 0.43764,-0.31165 0.68451,-0.42982c0.24031,-0.12791 0.48241,-0.25674 0.7263,-0.38657c0.26476,-0.10055 0.53143,-0.20183 0.7999,-0.30377c2.07267,-0.75022 4.63464,-0.64914 6.8274,0.36153c2.21515,0.98815 4.1044,2.73227 5.487,4.80991c0.18481,0.2531 0.3502,0.51885 0.49984,0.79486c0.1542,0.27297 0.31695,0.54203 0.46427,0.8195c0.25932,0.5723 0.56303,1.12744 0.76605,1.72598c0.10909,0.29622 0.23038,0.58707 0.32914,0.88839l0.26793,0.91714c0.19395,0.61774 0.27078,1.20713 0.4173,1.83984c0.38703,2.49176 0.36259,5.07539 -0.29364,7.48296c-0.62079,2.40485 -1.82633,4.65266 -3.56846,6.28822c-0.85269,0.83798 -1.86289,1.46751 -2.92966,1.91999c-0.27204,0.09982 -0.54335,0.22594 -0.81294,0.30033c-0.26952,0.06664 -0.53746,0.13281 -0.80374,0.19865c-0.29218,0.08452 -0.56197,0.07776 -0.84156,0.12029c-0.27681,0.03239 -0.55177,0.06902 -0.82725,0.04961c-0.27496,-0.00556 -0.54806,-0.01133 -0.81924,-0.01663c-0.26813,-0.03941 -0.53435,-0.07856 -0.7985,-0.11737c-0.26694,-0.02716 -0.52189,-0.0983 -0.77446,-0.17103c-0.25157,-0.07412 -0.50825,-0.1283 -0.74989,-0.21806c-0.4742,-0.2013 -0.96192,-0.35683 -1.38902,-0.6141c-0.21879,-0.11817 -0.43552,-0.23521 -0.65006,-0.35113c-0.20163,-0.13652 -0.40127,-0.27164 -0.59886,-0.40538c-1.57548,-1.08353 -2.75155,-2.41631 -3.61748,-3.6918c-0.23521,-0.30834 -0.41074,-0.6394 -0.598,-0.94814c-0.18719,-0.30913 -0.36411,-0.60913 -0.50162,-0.91429c-0.14672,-0.30052 -0.28747,-0.58886 -0.42194,-0.86441c-0.11247,-0.28509 -0.21965,-0.55693 -0.32146,-0.81493c-0.21912,-0.50891 -0.34537,-0.99636 -0.47625,-1.41088c-0.1387,-0.41763 -0.21554,-0.76883 -0.27549,-1.05299c-0.12698,-0.56932 -0.19467,-0.87296 -0.19467,-0.87296zM279.00059,176.20989c0,0 0.06279,0.30463 0.18063,0.87594c0.05571,0.28781 0.12764,0.64059 0.25184,1.02802c0.11863,0.39326 0.22726,0.85196 0.43201,1.34802c0.09386,0.24998 0.19275,0.51335 0.29648,0.78963c0.12519,0.26694 0.25628,0.5464 0.39286,0.83765c0.12731,0.29648 0.29304,0.5872 0.46837,0.88713c0.1754,0.2996 0.33874,0.62211 0.56031,0.92105c0.81281,1.23926 1.92151,2.53819 3.41201,3.59516c0.18772,0.1295 0.37729,0.26032 0.56886,0.39246c0.20355,0.11181 0.40909,0.22481 0.61661,0.33881c0.40531,0.25018 0.86666,0.39823 1.3155,0.59495c0.22859,0.08724 0.47096,0.13917 0.70875,0.21176c0.23872,0.07121 0.4797,0.14129 0.73154,0.16791c0.24945,0.03895 0.50076,0.07823 0.75393,0.11784c0.25595,0.00702 0.51375,0.01404 0.77327,0.02113c0.26018,0.02159 0.51997,-0.01206 0.78168,-0.04074c0.25535,-0.03683 0.53991,-0.03213 0.77645,-0.10254c0.26687,-0.06372 0.53534,-0.12771 0.80533,-0.19216c0.26529,-0.07134 0.50249,-0.18573 0.7579,-0.27615c0.99146,-0.41763 1.98384,-0.99901 2.78731,-1.81182c1.65159,-1.58158 2.79546,-3.75903 3.37207,-6.09208c0.61211,-2.33457 0.60953,-4.84077 0.2111,-7.25066c-0.25608,-1.20812 -0.53799,-2.39664 -1.01663,-3.51501c-0.2005,-0.57614 -0.5007,-1.10671 -0.75591,-1.65464c-0.14493,-0.26509 -0.30483,-0.52136 -0.45579,-0.78181c-0.14645,-0.26363 -0.30808,-0.51653 -0.48831,-0.75638c-1.34749,-1.97556 -3.16646,-3.60052 -5.23344,-4.49156c-2.06505,-0.90614 -4.33398,-0.97768 -6.27722,-0.25283c-0.23018,0.09081 -0.45883,0.18103 -0.68583,0.27058c-0.21985,0.12095 -0.43817,0.24104 -0.65483,0.3602c-0.22302,0.1081 -0.42181,0.25336 -0.61794,0.39876c-0.19494,0.14645 -0.40107,0.27469 -0.58283,0.43154c-0.34987,0.33 -0.73015,0.61602 -1.02385,0.98126c-0.1554,0.17361 -0.30927,0.34563 -0.46168,0.51593c-0.13473,0.1856 -0.26807,0.36935 -0.40001,0.55117c-1.04531,1.46725 -1.66013,3.04346 -2.02021,4.4699c-0.11227,0.35212 -0.16189,0.70763 -0.23044,1.04584c-0.06836,0.33854 -0.13089,0.6657 -0.15513,0.98569c-0.03484,0.31847 -0.06823,0.62397 -0.10015,0.91595c-0.00861,0.29383 -0.01682,0.57409 -0.02464,0.84004c-0.03312,0.53223 0.01259,1.00722 0.02828,1.42082c0.00894,0.41459 0.05465,0.76406 0.09426,1.04723c0.072,0.5672 0.11042,0.86971 0.11042,0.86971z" fill="#000000"/></g><path d="M290.04592,184.56421c-2.40248,0 -4.35008,-2.88206 -4.35008,-6.43725c0,-3.5552 1.9476,-6.43725 4.35008,-6.43725c2.40248,0 4.35008,2.88206 4.35008,6.43725c0,3.5552 -1.9476,6.43725 -4.35008,6.43725z" data-paper-data="{&quot;index&quot;:null}" fill="#000000" stroke="#000000" stroke-width="0.5615"/><path d="M287.26748,177.44066c-1.11741,0 -2.02325,-1.22782 -2.02325,-2.74241c0,-1.51459 0.90584,-2.74241 2.02325,-2.74241c1.11741,0 2.02325,1.22782 2.02325,2.74241c0,1.51459 -0.90584,2.74241 -2.02325,2.74241z" data-paper-data="{&quot;index&quot;:null}" fill="#ffffff" stroke="none" stroke-width="1"/><path d="M253.53588,212.75822c0,0 6.43434,11.61372 15.14529,11.61372c1.04889,-0.44631 2.09287,-0.86355 3.25854,-0.73677c1.02656,0.11194 0.99291,0.99424 0.10346,1.35709c0.95483,-0.12612 2.75598,0.21607 1.72684,2.16957c-0.78016,1.48069 -5.16905,-0.7736 -5.16905,-0.7736c0,0 -11.31717,-1.02398 -16.85073,-12.84728" data-paper-data="{&quot;index&quot;:null}" fill="url(#color-10)" stroke="#000000" stroke-width="0.6941"/><g data-paper-data="{&quot;index&quot;:null}" stroke="none" stroke-width="1"><path d="M276.62376,146.97421c-1.92172,0 -3.47957,-1.47992 -3.47957,-3.3055c0,-1.82558 1.55786,-3.3055 3.47957,-3.3055c1.92172,0 3.47957,1.47992 3.47957,3.3055c0,1.82558 -1.55786,3.3055 -3.47957,3.3055z" fill="#f29400"/><path d="M272.90718,143.66891c0,0 0.00378,-0.08942 0.01093,-0.25707c0.00914,-0.16685 0.03795,-0.41406 0.12473,-0.71604c0.16228,-0.59668 0.61979,-1.44758 1.54541,-2.0165c0.46274,-0.27913 1.0057,-0.47818 1.63616,-0.54263c0.58542,-0.05683 1.25754,0.02742 1.86859,0.28131c0.6137,0.2584 1.17772,0.69093 1.58456,1.26204c0.19878,0.28787 0.35921,0.60462 0.47235,0.94059c0.10353,0.33113 0.15745,0.71968 0.1601,1.03703c-0.00543,0.73359 -0.2429,1.41823 -0.65252,1.98517c-0.41101,0.56316 -0.97669,0.97801 -1.58177,1.23422c-0.30841,0.11797 -0.61178,0.21514 -0.9378,0.25164c-0.16533,0.0302 -0.30642,0.02716 -0.45486,0.03756c-0.16772,0.00252 -0.31092,-0.00742 -0.464,-0.01769c-0.60085,-0.06293 -1.14963,-0.26423 -1.60178,-0.53686c-0.91939,-0.54932 -1.38313,-1.38531 -1.55713,-1.97503c-0.09108,-0.28966 -0.12758,-0.56813 -0.13751,-0.71644c-0.00967,-0.15579 -0.01497,-0.23892 -0.01497,-0.23892zM273.38079,143.6562c0,0 0.00358,0.0832 0.0104,0.23919c0.00967,0.16182 0.03126,0.34186 0.10638,0.61085c0.14096,0.51163 0.52746,1.25171 1.33623,1.75638c0.3973,0.25124 0.88786,0.43201 1.42611,0.495c0.13181,0.01013 0.27906,0.02 0.40452,0.01987c0.14447,-0.00861 0.30218,-0.0059 0.433,-0.03186c0.27297,-0.02696 0.56097,-0.11506 0.83507,-0.21726c0.54998,-0.22051 1.04908,-0.60999 1.40909,-1.11248c0.17474,-0.25449 0.31536,-0.53315 0.41498,-0.82778c0.09008,-0.29291 0.13546,-0.61867 0.14009,-0.90839c-0.01047,-0.34928 -0.05849,-0.62311 -0.15208,-0.92654c-0.1032,-0.29211 -0.24674,-0.56707 -0.42346,-0.81712c-0.36425,-0.4946 -0.86494,-0.86647 -1.40618,-1.08485c-0.54792,-0.21276 -1.10857,-0.28059 -1.66066,-0.21945c-0.50865,0.06154 -1.00497,0.24482 -1.3916,0.48963c-0.80241,0.48526 -1.19507,1.21038 -1.34789,1.71505c-0.07942,0.25661 -0.10876,0.46791 -0.11923,0.61125c-0.00921,0.14413 -0.01451,0.22104 -0.01451,0.22104z" fill="#000000"/></g><g data-paper-data="{&quot;index&quot;:null}" stroke="none" stroke-width="1"><path d="M293.29591,147.92798c-1.22544,0 -2.21886,-0.85145 -2.21886,-1.90177c0,-1.05032 0.99342,-1.90177 2.21886,-1.90177c1.22544,0 2.21886,0.85145 2.21886,1.90177c0,1.05032 -0.99342,1.90177 -2.21886,1.90177z" fill="#f29400"/><path d="M295.33818,146.02621c0,0 -0.00318,-0.04511 -0.00848,-0.12969c-0.00649,-0.08432 -0.02782,-0.20753 -0.0779,-0.35775c-0.10267,-0.29483 -0.37219,-0.70431 -0.87488,-0.96384c-0.24343,-0.12976 -0.55057,-0.2225 -0.85613,-0.25051c-0.33748,-0.02782 -0.67119,0.01206 -1.00471,0.12658c-0.32715,0.11943 -0.63913,0.31874 -0.8709,0.5931c-0.23667,0.28304 -0.36994,0.60098 -0.37756,0.99305c0.00192,0.33649 0.13486,0.7069 0.36915,0.97748c0.22965,0.27966 0.54547,0.4793 0.87435,0.59972c0.16474,0.05518 0.33934,0.10101 0.49944,0.11684c0.07617,0.01484 0.17606,0.01285 0.2625,0.01881c0.07193,0.00119 0.16228,-0.00437 0.24084,-0.00768c0.32331,-0.02921 0.62092,-0.12175 0.86951,-0.25257c0.50785,-0.25992 0.77214,-0.67934 0.87302,-0.9745c0.04948,-0.15824 0.0667,-0.25833 0.07425,-0.35411c0.0053,-0.09479 0.00795,-0.14533 0.00795,-0.14533zM295.69096,146.03661c0,0 -0.00325,0.05054 -0.00921,0.14526c-0.00643,0.093 -0.03504,0.26979 -0.09671,0.44824c-0.12493,0.36723 -0.45883,0.85395 -1.04054,1.16202c-0.28708,0.15447 -0.62887,0.26356 -0.99914,0.30006c-0.09512,0.0045 -0.18116,0.01245 -0.28761,0.01113c-0.09167,-0.00583 -0.17368,-0.00132 -0.27807,-0.01749c-0.20421,-0.01901 -0.39326,-0.06789 -0.58873,-0.13122c-0.38312,-0.13625 -0.75691,-0.36577 -1.03862,-0.70153c-0.28569,-0.3349 -0.46254,-0.76247 -0.46586,-1.23839c-0.00205,-0.42035 0.17454,-0.90031 0.45791,-1.2227c0.27959,-0.341 0.65735,-0.57084 1.0422,-0.70796c0.38524,-0.13208 0.79678,-0.17182 1.15242,-0.1387c0.38802,0.03782 0.72014,0.14672 1.01245,0.30231c0.58681,0.30874 0.91528,0.80546 1.03829,1.17308c0.06101,0.1864 0.08545,0.34013 0.09293,0.44459c0.0053,0.10492 0.00861,0.16089 0.00861,0.16089z" fill="#000000"/></g></g></g></svg>