<svg width="140" height="99.829" xmlns="http://www.w3.org/2000/svg"><g transform="matrix(.66238 0 0 .66238 -73.082 -50.795)"><linearGradient id="prefix__a" gradientUnits="userSpaceOnUse" x1="166.01" y1="208.764" x2="184.983" y2="208.764" gradientTransform="matrix(1 0 0 -.9529 0 402.978)"><stop offset="0" stop-color="#ffee27"/><stop offset=".142" stop-color="#ffe612"/><stop offset=".458" stop-color="#ffd600"/><stop offset=".751" stop-color="#fecc00"/><stop offset="1" stop-color="#fdc800"/></linearGradient><path fill="url(#prefix__a)" stroke="#000" stroke-width=".424" stroke-miterlimit="10" d="M184.983 201.036s-5.634 6.32-13.87 6.32c-.992.402-1.98.778-3.082.664-.97-.1-.938-.895-.097-1.223-.903.114-2.606-.194-1.633-1.955.738-1.334 4.888.698 4.888.698s4.36 1.116 12.563-5.488"/><path fill="#f6f6f6" d="M213.484 158.074s-47.598-76.947-8.727-72.981c38.871 3.966 10.314 34.904 23.006 67.429"/><path d="M212.947 158.405l-.884-1.706c-.59-1.102-1.463-2.71-2.606-4.736-2.296-4.047-5.542-9.853-9.029-17.036-1.736-3.594-3.564-7.518-5.302-11.757-1.732-4.24-3.416-8.786-4.69-13.65-.632-2.432-1.162-4.943-1.478-7.534-.282-2.589-.417-5.276.093-7.975.26-1.34.649-2.69 1.314-3.945a10.393 10.393 0 012.702-3.299c1.125-.898 2.431-1.548 3.782-1.959a17.665 17.665 0 014.124-.66c.69-.048 1.375-.007 2.063-.013.688.054 1.346.08 2.06.16 1.32.188 2.618.294 3.95.577 2.677.48 5.267 1.227 7.752 2.285 2.456 1.107 4.753 2.698 6.43 4.819 1.703 2.109 2.619 4.688 3.044 7.194.426 2.524.429 5.019.32 7.429-.109 2.414-.38 4.751-.638 7.022-.541 4.538-1.124 8.81-1.417 12.78-.278 3.97-.296 7.625-.072 10.852.253 3.223.657 6.021 1.185 8.285.503 2.268 1.146 3.991 1.743 5.092.566 1.114.957 1.662.957 1.662l-1.175.459s-.05-.704-.311-1.938l-.5-2.254c-.168-.892-.503-1.876-.725-3.018-.556-2.258-.995-5.053-1.29-8.28-.27-3.23-.278-6.893-.075-10.876.166-3.986.611-8.29 1.004-12.832.186-2.271.378-4.605.403-6.983.027-2.374-.063-4.805-.549-7.183-.474-2.375-1.439-4.666-2.983-6.544-1.541-1.882-3.644-3.302-5.962-4.303a34.359 34.359 0 00-7.393-2.046c-.623-.136-1.288-.203-1.945-.284l-1.972-.26c-.604-.069-1.275-.1-1.91-.153-.638.006-1.284-.036-1.918.008a16.038 16.038 0 00-3.723.581c-1.187.359-2.292.913-3.236 1.661-1.915 1.49-3.011 3.825-3.45 6.268-.493 2.446-.423 5.01-.185 7.505.267 2.502.745 4.963 1.33 7.359 1.184 4.791 2.757 9.33 4.403 13.567a179.998 179.998 0 005.086 11.776 269.088 269.088 0 008.843 17.067c2.297 4.035 3.904 6.155 3.904 6.155z"/><path d="M213.252 150.135s-.815-1.03-1.78-2.696a34.41 34.41 0 01-1.525-2.917c-.505-1.09-.999-2.276-1.41-3.49-.227-.598-.391-1.219-.578-1.82-.194-.599-.312-1.21-.465-1.789-.158-.578-.233-1.155-.346-1.692-.114-.537-.176-1.052-.237-1.527-.144-.947-.192-1.743-.226-2.3l-.06-.874.092.871c.055.555.132 1.347.31 2.285.078.47.158.981.292 1.511.132.53.227 1.1.405 1.669.173.57.312 1.17.526 1.757.208.589.392 1.196.639 1.78.45 1.185.981 2.338 1.519 3.394a33.845 33.845 0 001.603 2.813c1.014 1.607 1.823 2.551 1.823 2.551zM216.34 148.779s-.4-1.073-.657-2.701c-.12-.818-.24-1.775-.262-2.804-.048-1.027.004-2.123.085-3.213l.195-1.618.276-1.552c.23-.997.45-1.923.705-2.699.216-.787.477-1.416.634-1.864l.256-.7-.226.71c-.138.455-.37 1.093-.551 1.886-.22.783-.4 1.714-.584 2.71l-.207 1.548-.124 1.605c-.033 1.077-.037 2.155.053 3.158.065 1.006.223 1.933.373 2.72.161.785.345 1.425.484 1.865l.177.498.07.174zM303.013 185.075s11.529 1.008 14.648-.468c.553 1.023-6.371 5.88-14.343 5.024"/><linearGradient id="prefix__b" gradientUnits="userSpaceOnUse" x1="301.48" y1="170.411" x2="301.48" y2="204.657"><stop offset="0" stop-color="#3e3d40"/><stop offset="1"/></linearGradient><path fill="url(#prefix__b)" stroke="#000" stroke-width=".694" stroke-miterlimit="10" d="M305.316 185.54c0-5.341-1.675-10.44-4.696-15.13a215.672 215.672 0 01-2.977 34.247c4.892-5.723 7.673-12.22 7.673-19.117z"/><linearGradient id="prefix__c" gradientUnits="userSpaceOnUse" x1="286" y1="152.273" x2="286" y2="221.419"><stop offset="0" stop-color="#ffee27"/><stop offset=".142" stop-color="#ffe612"/><stop offset=".458" stop-color="#ffd600"/><stop offset=".751" stop-color="#fecc00"/><stop offset="1" stop-color="#fdc800"/></linearGradient><path fill="url(#prefix__c)" stroke="#000" stroke-width=".694" stroke-miterlimit="10" d="M277.897 152.273c1.462 16.31.768 33.23-2.154 49.972a194.833 194.833 0 01-4.364 19.174c11.154-3.955 20.292-9.775 26.264-16.762a215.672 215.672 0 002.977-34.246c-4.678-7.265-12.607-13.537-22.722-18.138z"/><linearGradient id="prefix__d" gradientUnits="userSpaceOnUse" x1="262.644" y1="145.479" x2="262.644" y2="226.634"><stop offset="0" stop-color="#3e3d40"/><stop offset="1"/></linearGradient><path fill="url(#prefix__d)" stroke="#000" stroke-width=".694" stroke-miterlimit="10" d="M277.897 152.273c-6.783-3.084-14.546-5.41-22.948-6.794 2.493 17.001 2.248 35.068-.879 52.983a172.54 172.54 0 01-7.42 28.172c8.913-.761 17.268-2.57 24.729-5.215a194.833 194.833 0 004.364-19.174c2.922-16.741 3.616-33.661 2.155-49.972z"/><linearGradient id="prefix__e" gradientUnits="userSpaceOnUse" x1="239.957" y1="144.031" x2="239.957" y2="227.049"><stop offset="0" stop-color="#ffee27"/><stop offset=".142" stop-color="#ffe612"/><stop offset=".458" stop-color="#ffd600"/><stop offset=".751" stop-color="#fecc00"/><stop offset="1" stop-color="#fdc800"/></linearGradient><path fill="url(#prefix__e)" stroke="#000" stroke-width=".694" stroke-miterlimit="10" d="M232.454 144.136c2.927 15.949 2.957 33.28-.056 50.543-1.923 11.017-5.02 21.638-9.122 31.52 4.457.557 9.073.85 13.801.85 3.25 0 6.443-.147 9.572-.415a172.54 172.54 0 007.421-28.171c3.127-17.915 3.372-35.983.88-52.984a110.093 110.093 0 00-17.873-1.448c-1.555 0-3.094.043-4.623.105z"/><linearGradient id="prefix__f" gradientUnits="userSpaceOnUse" x1="219.066" y1="144.136" x2="219.066" y2="226.199"><stop offset="0" stop-color="#3e3d40"/><stop offset="1"/></linearGradient><path fill="url(#prefix__f)" stroke="#000" stroke-width=".694" stroke-miterlimit="10" d="M232.454 144.136c-6.95.284-13.611 1.198-19.837 2.653 2.684 13.861 2.753 29.13.079 44.45-1.916 10.973-5.08 21.205-9.217 30.426 6.082 2.097 12.735 3.652 19.797 4.534 4.102-9.882 7.199-20.503 9.122-31.52 3.013-17.263 2.983-34.594.056-50.543z"/><linearGradient id="prefix__g" gradientUnits="userSpaceOnUse" x1="200.52" y1="146.789" x2="200.52" y2="221.665"><stop offset="0" stop-color="#ffee27"/><stop offset=".142" stop-color="#ffe612"/><stop offset=".458" stop-color="#ffd600"/><stop offset=".751" stop-color="#fecc00"/><stop offset="1" stop-color="#fdc800"/></linearGradient><path fill="url(#prefix__g)" stroke="#000" stroke-width=".694" stroke-miterlimit="10" d="M193.979 187.972c-1.598 9.153-4.224 17.69-7.604 25.344 4.907 3.313 10.684 6.135 17.104 8.349 4.138-9.221 7.301-19.453 9.217-30.425 2.674-15.32 2.605-30.59-.079-44.451-6.615 1.546-12.731 3.699-18.169 6.35 1.713 10.626 1.68 22.525-.469 34.833z"/><linearGradient id="prefix__h" gradientUnits="userSpaceOnUse" x1="182.253" y1="153.138" x2="182.253" y2="213.316"><stop offset="0" stop-color="#3e3d40"/><stop offset="1"/></linearGradient><path fill="url(#prefix__h)" stroke="#000" stroke-width=".694" stroke-miterlimit="10" d="M194.448 153.138c-15.606 7.608-25.61 19.29-25.61 32.402 0 10.682 6.639 20.42 17.537 27.776 3.38-7.654 6.006-16.191 7.604-25.344 2.149-12.308 2.182-24.207.47-34.834z"/><path opacity=".1" fill="#f6f6f6" d="M306.148 182.178c-.8-1.819-1.819-3.58-3.029-5.3-5.14-7.27-13.86-13.54-24.99-18.14-7.46-3.08-15.99-5.41-25.23-6.79a132.697 132.697 0 00-24.74-1.35c-7.64.29-14.97 1.2-21.82 2.66-7.27 1.54-14 3.7-19.98 6.35-1.04.46-2.07.94-3.06 1.43 3.51-2.89 7.63-5.48 12.23-7.72 5.44-2.65 11.55-4.81 18.17-6.35 6.23-1.46 12.89-2.37 19.84-2.66a109.814 109.814 0 0122.49 1.35c8.4 1.38 16.17 3.71 22.95 6.79 10.12 4.6 18.04 10.87 22.72 18.14 2.35 3.64 3.88 7.53 4.45 11.59z"/><radialGradient id="prefix__i" cx="146.135" cy="156.619" r="37.578" fx="138.742" fy="148.807" gradientUnits="userSpaceOnUse"><stop offset="0" stop-color="#ffee27"/><stop offset=".132" stop-color="#ffe91c"/><stop offset="1" stop-color="#fdc800"/></radialGradient><ellipse fill="url(#prefix__i)" cx="156.369" cy="164.435" rx="43.096" ry="36.882"/><path d="M113.541 164.419l.145 2.821c-.01.933.25 2.024.456 3.33.14 1.32.687 2.761 1.158 4.4.259.814.672 1.62 1.027 2.494.192.43.367.882.583 1.325l.746 1.317c.517.89 1.012 1.843 1.706 2.717l.997 1.372.513.702.59.659c3.06 3.629 7.262 7.111 12.452 9.782 5.177 2.678 11.33 4.537 17.976 5.09.831.05 1.671.06 2.514.092.833.005 1.715.105 2.522.032l2.611-.142c.437-.028.88-.038 1.314-.08l1.283-.185 2.583-.367c.861-.165 1.722-.39 2.588-.584 1.751-.331 3.43-.988 5.154-1.522 6.751-2.508 13.249-6.645 18.004-12.481.641-.689 1.165-1.47 1.696-2.245.523-.78 1.115-1.517 1.528-2.366.444-.83.93-1.637 1.358-2.475l1.1-2.603c.205-.426.331-.88.461-1.334l.402-1.356c.127-.453.283-.9.389-1.359l.24-1.394c.134-.932.399-1.85.394-2.798l.16-2.751c-.095-4.046-.798-7.527-2.128-11.113l-1.117-2.586c-.432-.832-.924-1.633-1.37-2.457-.415-.842-1.011-1.574-1.537-2.347-.533-.769-1.06-1.542-1.703-2.223-4.771-5.779-11.26-9.847-17.98-12.296a50.077 50.077 0 00-20.48-2.736c-6.52.546-12.698 2.38-17.827 5.033-5.16 2.646-9.34 6.099-12.384 9.697-3.068 3.6-4.97 7.316-6.182 10.48-.48 1.627-1.048 3.05-1.219 4.366-.233 1.299-.514 2.396-.521 3.313l-.201 2.794zm-.537.016l.132-2.848c-.014-.936.242-2.06.448-3.394.143-1.35.682-2.816 1.136-4.497 1.158-3.273 3.017-7.142 6.083-10.928 3.044-3.785 7.263-7.457 12.531-10.327 5.274-2.875 11.505-4.947 18.447-5.674 6.769-.668 14.224.028 21.39 2.407 7.102 2.522 14.01 6.768 19.175 12.921 2.544 3.073 4.795 6.513 6.18 10.358 1.413 3.75 2.178 8.08 2.212 11.906l-.188 3.134c-.01 1.026-.293 2.019-.447 3.026l-.276 1.505c-.118.495-.287.977-.428 1.466l-.445 1.46c-.145.488-.287.976-.508 1.435-1.411 3.823-3.672 7.239-6.225 10.282-5.182 6.096-12.081 10.272-19.152 12.737-1.804.52-3.56 1.156-5.382 1.462-.904.181-1.794.392-2.695.544-.911.11-1.818.218-2.72.325l-1.348.16c-.444.034-.881.033-1.32.052l-2.615.084c-.925.056-1.764-.065-2.64-.089-.867-.052-1.729-.082-2.581-.152-6.816-.72-13.073-2.766-18.299-5.617-5.238-2.844-9.435-6.486-12.462-10.24-3.04-3.763-4.91-7.585-6.104-10.823-.462-1.668-1.022-3.116-1.197-4.463-.232-1.327-.51-2.457-.514-3.377l-.187-2.82z"/><g><ellipse transform="rotate(9.893 123.652 147.43)" fill="#fff" cx="123.675" cy="147.462" rx="12.958" ry="16.872"/><path d="M136.702 149.744l-.222 1.033c-.068.337-.155.753-.314 1.24-.15.486-.292 1.057-.545 1.657-.424 1.232-1.143 2.656-2.133 4.177-1.006 1.506-2.376 3.085-4.222 4.373l-.703.48-.763.416c-.502.305-1.076.49-1.633.73-1.155.358-2.396.681-3.699.63-.324.024-.648-.018-.975-.055-.33-.05-.649-.04-.992-.138l-.95-.231c-.319-.087-.639-.235-.96-.351-1.258-.531-2.462-1.263-3.464-2.26-2.048-1.941-3.457-4.6-4.175-7.438-.76-2.841-.773-5.885-.304-8.815.545-2.9 1.593-5.786 3.266-8.194 1.636-2.43 3.861-4.456 6.446-5.591 2.565-1.16 5.517-1.263 7.928-.376 1.269.4 2.31 1.119 3.281 1.85.444.413.922.781 1.29 1.239l.578.65.5.69c1.3 1.838 2.054 3.788 2.491 5.547.416 1.766.61 3.35.592 4.653.035.651-.024 1.231-.048 1.736-.015.507-.074.933-.125 1.278l-.143 1.06zm-.524-.102l.139-1.034c.049-.337.106-.753.12-1.247.023-.493.081-1.06.046-1.694.02-1.27-.172-2.813-.577-4.529-.424-1.708-1.158-3.598-2.41-5.366-.16-.219-.32-.44-.48-.664-.184-.205-.369-.413-.555-.623-.354-.44-.81-.788-1.234-1.186-.916-.691-1.939-1.39-3.095-1.752-2.334-.856-5.09-.753-7.556.351-2.474 1.085-4.63 3.039-6.22 5.4-1.633 2.357-2.644 5.122-3.186 7.985-.459 2.861-.447 5.831.292 8.593.696 2.76 2.064 5.33 4.025 7.19.955.954 2.118 1.653 3.292 2.15.301.108.582.244.896.33l.95.23c.282.085.617.081.92.126.31.035.618.076.926.052 1.237.05 2.417-.26 3.52-.602.533-.23 1.081-.404 1.563-.699l.733-.399.676-.463c1.778-1.24 3.107-2.771 4.084-4.236.961-1.479 1.663-2.865 2.075-4.068.247-.587.382-1.134.527-1.603.152-.463.24-.88.309-1.219l.221-1.033z"/></g><g><path d="M128.724 142.128s-.647-2.757-1.269-6.928c-.618-4.167-1.206-9.78-1.018-15.412.062-1.407.152-2.812.326-4.19.169-1.375.388-2.726.71-4.01.294-1.291.71-2.507 1.154-3.637.252-.553.498-1.092.76-1.6.302-.486.55-.983.867-1.41a12.704 12.704 0 011.908-2.171l.94-.758.879-.525c.259-.17.505-.292.732-.373l.561-.234.467-.193.05.141-.453.207-.545.248c-.22.085-.457.213-.705.388l-.841.541-.892.769a12.374 12.374 0 00-1.785 2.171c-.295.424-.52.918-.798 1.399a35.947 35.947 0 00-.689 1.582c-.397 1.117-.763 2.315-1.01 3.588-.274 1.266-.445 2.6-.567 3.956-.126 1.357-.169 2.743-.185 4.128-.003 5.55.759 11.077 1.505 15.169.374 2.048.743 3.743 1.017 4.923.275 1.185.452 1.841.452 1.841z"/></g><g><path d="M131.863 140.75s.16-.918.505-2.471c.345-1.56.883-3.774 1.652-6.396.772-2.62 1.757-5.654 3.032-8.824.643-1.583 1.326-3.211 2.112-4.825.761-1.625 1.628-3.232 2.53-4.818.933-1.568 1.906-3.115 2.977-4.56a33.09 33.09 0 011.642-2.11c.547-.692 1.142-1.33 1.73-1.954 1.172-1.254 2.425-2.35 3.658-3.327.625-.479 1.27-.896 1.874-1.324.63-.39 1.26-.733 1.853-1.08 1.232-.61 2.382-1.13 3.453-1.456l.765-.264.733-.176 1.291-.304c.787-.143 1.417-.193 1.84-.256l.651-.083.04.465-.636.094c-.413.071-1.027.131-1.793.286l-1.254.322-.71.185-.741.273c-1.036.338-2.146.867-3.332 1.484-.57.35-1.177.695-1.782 1.086-.58.43-1.2.847-1.798 1.325-1.184.977-2.383 2.068-3.503 3.317-.563.62-1.132 1.255-1.654 1.944a32.247 32.247 0 00-1.566 2.097c-1.022 1.436-1.946 2.974-2.833 4.532-.854 1.577-1.675 3.172-2.393 4.787-.742 1.603-1.382 3.222-1.985 4.793-1.194 3.15-2.107 6.163-2.817 8.761a97.047 97.047 0 00-1.502 6.33 58.16 58.16 0 00-.443 2.413z"/></g><ellipse stroke="#000" stroke-width=".474" stroke-miterlimit="10" cx="121.522" cy="150.7" rx="5.549" ry="8.212"/><g><path d="M123.404 175.462s.397.375 1.187.951a22.017 22.017 0 003.431 2.082c1.494.708 3.31 1.402 5.328 1.715 1.005.173 2.06.23 3.121.187 1.065-.02 2.13-.226 3.18-.462 1.041-.274 2.07-.61 3.035-1.066.482-.226.964-.444 1.412-.72.457-.256.908-.51 1.324-.81.862-.549 1.631-1.18 2.36-1.774.703-.63 1.375-1.217 1.938-1.824.587-.582 1.092-1.148 1.56-1.634l1.274-1.218c.727-.665 1.242-.983 1.242-.983l.012-.007a.296.296 0 01.437.344s-.187.57-.687 1.455a9.574 9.574 0 01-1.02 1.514l-.72.861c-.264.294-.572.577-.877.887-.6.628-1.319 1.243-2.073 1.898-.784.622-1.612 1.282-2.547 1.861-.45.314-.94.584-1.439.854-.487.29-1.014.522-1.542.76-1.056.481-2.188.836-3.336 1.12-1.163.217-2.34.388-3.504.364-1.162 0-2.304-.11-3.38-.34-2.165-.417-4.056-1.248-5.559-2.109a21.188 21.188 0 01-3.41-2.408c-.754-.66-1.145-1.101-1.145-1.101l-.005-.005a.28.28 0 01.402-.39z"/><path d="M150.064 168.447s.535-.07 1.269.073c.37.07.788.193 1.226.37.435.18.88.428 1.299.733a5.12 5.12 0 011.102 1.089c.297.42.487.88.592 1.285.079.425.098.77.038 1.022a2.106 2.106 0 01-.087.376.321.321 0 01-.511.13l-.043-.038s-.106-.092-.244-.238c-.08-.07-.135-.161-.24-.249-.106-.086-.198-.188-.301-.29-.126-.094-.232-.208-.353-.317a4.598 4.598 0 01-.39-.34c-.282-.231-.561-.497-.875-.755l-1.805-1.513c-.52-.44-.86-.807-.86-.807l-.006-.007a.314.314 0 01.19-.524z"/></g><g><path fill="#f6f6f6" d="M218.39 155.01s39.807-101.338 90.122-71.778c50.314 29.56-72.327 73.585-78.616 74.213"/><path d="M218.346 154.993s.37-.958 1.067-2.753a180.977 180.977 0 013.27-7.677 250.051 250.051 0 015.641-11.681c2.287-4.46 5.037-9.41 8.32-14.646 3.28-5.235 7.07-10.775 11.553-16.288 4.468-5.516 9.72-10.97 15.988-15.654a55.306 55.306 0 0110.246-6.109c3.697-1.654 7.7-2.868 11.856-3.303 2.075-.258 4.183-.226 6.284-.113 2.093.207 4.194.496 6.23 1.069 4.1 1.051 7.941 2.924 11.496 5.145 3.526 2.22 6.957 4.982 9.235 8.728 1.133 1.862 1.905 4.003 2.1 6.21.202 2.206-.142 4.422-.852 6.439-.708 2.025-1.733 3.877-2.888 5.594-1.15 1.726-2.47 3.293-3.849 4.77-2.759 2.96-5.793 5.529-8.882 7.884-6.208 4.683-12.662 8.495-18.876 11.879-6.226 3.369-12.254 6.267-17.872 8.81-5.617 2.549-10.86 4.664-15.523 6.487a329.663 329.663 0 01-12.168 4.474 150.034 150.034 0 01-7.953 2.519c-.926.262-1.643.442-2.13.544-.485.11-.743.129-.743.129-.002 0-.004-.002-.005-.004 0-.002.002-.004.004-.005 0 0 .256-.029.735-.158.482-.121 1.189-.33 2.103-.627 1.83-.587 4.483-1.544 7.841-2.809a329.249 329.249 0 0012.007-4.823c4.606-1.936 9.739-4.267 15.3-6.877 5.549-2.636 11.495-5.63 17.614-9.087 6.11-3.46 12.415-7.384 18.44-12.049 3.013-2.325 5.953-4.85 8.578-7.704 2.625-2.83 4.957-6.05 6.222-9.645.619-1.794.888-3.684.707-5.534-.176-1.852-.829-3.646-1.827-5.264-1-1.619-2.293-3.087-3.753-4.401-.754-.628-1.503-1.29-2.306-1.849-.795-.568-1.587-1.14-2.487-1.67-6.76-4.255-14.744-6.654-22.543-5.78-3.886.38-7.664 1.494-11.194 3.044a53.147 53.147 0 00-9.88 5.805c-6.108 4.49-11.262 9.826-15.81 15.137-4.531 5.34-8.402 10.749-11.765 15.875-3.358 5.132-6.197 9.995-8.65 14.34a249.308 249.308 0 00-6.022 11.445c-3.172 6.435-4.77 10.218-4.77 10.218a.048.048 0 01-.09-.035z"/></g><g><path fill="#f6f6f6" d="M222.197 154.958s12.01-9.246 26.476-28.114"/><path d="M221.81 154.461s1.9-1.442 4.613-3.837a151.169 151.169 0 004.538-4.192 184.957 184.957 0 005.014-5.013 232.364 232.364 0 004.82-5.209c1.497-1.7 2.89-3.292 4.048-4.688 1.18-1.378 2.114-2.566 2.784-3.385l1.046-1.293-1.004 1.326c-.642.841-1.539 2.06-2.674 3.476-1.112 1.435-2.454 3.074-3.898 4.825a232.788 232.788 0 01-4.66 5.377 185.544 185.544 0 01-4.868 5.196c-1.581 1.635-3.11 3.11-4.428 4.366-2.648 2.497-4.556 4.045-4.556 4.045a.63.63 0 11-.776-.994z"/></g><g><path fill="#f6f6f6" d="M226.229 155.9s22.24-9.24 32.932-21.19"/><path d="M225.984 155.318s2.268-.905 5.612-2.461c1.664-.788 3.605-1.712 5.644-2.782 1.027-.521 2.07-1.093 3.132-1.674 1.068-.567 2.117-1.207 3.186-1.813l3.13-1.912c1.005-.67 2.01-1.312 2.957-1.966.933-.676 1.853-1.306 2.693-1.947l2.338-1.844 1.892-1.662c.579-.479 1.006-.977 1.397-1.347l1.196-1.2-1.157 1.237c-.379.384-.793.897-1.356 1.395l-1.844 1.726-2.286 1.926c-.822.67-1.725 1.33-2.64 2.04-.931.688-1.918 1.364-2.909 2.07l-3.082 2.022c-1.054.643-2.089 1.32-3.144 1.925-1.047.618-2.078 1.226-3.094 1.783-2.016 1.141-3.938 2.134-5.589 2.98-3.306 1.67-5.586 2.667-5.586 2.667a.631.631 0 01-.511-1.154l.021-.009z"/></g><ellipse fill="#fff" cx="124.236" cy="146.946" rx="1.943" ry="2.634"/><g><ellipse transform="rotate(9.893 141.335 143.381)" fill="#fff" cx="141.364" cy="143.417" rx="16.558" ry="21.557"/><path d="M158.22 146.378l-.293 1.318c-.09.43-.207.96-.416 1.59-.198.626-.388 1.362-.72 2.13l-.485 1.23-.637 1.305c-.207.461-.474.914-.757 1.38-.282.467-.547.967-.903 1.432-1.307 1.926-3.082 3.938-5.46 5.574-.3.201-.6.405-.905.612l-.981.53c-.645.388-1.382.623-2.097.927-.365.135-.753.217-1.133.329-.38.11-.766.217-1.169.258l-1.205.177-1.237.025c-.416.03-.831-.026-1.249-.075-.422-.064-.83-.054-1.27-.181l-1.214-.3c-.407-.112-.816-.303-1.227-.453-1.61-.684-3.136-1.634-4.423-2.899-2.63-2.47-4.45-5.863-5.387-9.493-.991-3.635-1.028-7.536-.444-11.297.222-.956.338-1.845.63-2.778l.405-1.385c.149-.454.332-.894.497-1.34.306-.904.765-1.742 1.156-2.606.223-.42.468-.826.701-1.238.226-.416.476-.818.755-1.2 2.087-3.136 4.94-5.77 8.283-7.261 3.31-1.526 7.179-1.679 10.308-.546l1.207.459 1.097.583c.373.179.705.413 1.033.65.326.237.67.449.973.703.58.54 1.199 1.024 1.679 1.618l.75.849.647.898c1.684 2.392 2.657 4.918 3.214 7.195.169.564.242 1.129.343 1.668.1.539.19 1.06.223 1.566l.137 1.452.02 1.327c.04.84-.041 1.587-.076 2.238-.024.652-.103 1.2-.172 1.645l-.193 1.363zm-1.093-.212l.166-1.313c.06-.428.13-.955.143-1.581.023-.625.092-1.342.042-2.145l-.037-1.269-.15-1.382c-.038-.483-.132-.977-.235-1.488-.104-.511-.179-1.048-.348-1.58-.544-2.153-1.472-4.532-3.05-6.748l-.604-.832-.697-.779c-.443-.55-1.017-.983-1.546-1.48-.274-.238-.585-.431-.88-.652-.296-.22-.596-.44-.932-.602l-.989-.544-1.035-.409c-2.934-1.094-6.36-.986-9.477.382-3.12 1.345-5.867 3.798-7.9 6.78a9.893 9.893 0 00-.738 1.143c-.228.393-.47.78-.688 1.18-.386.827-.839 1.628-1.141 2.498-.723 1.688-1.149 3.483-1.535 5.307-.602 3.638-.606 7.421.318 10.946.871 3.522 2.598 6.81 5.091 9.197 1.213 1.227 2.711 2.105 4.208 2.735.386.137.744.31 1.144.417l1.216.29c.357.107.787.1 1.172.155.396.044.788.094 1.18.062l1.168-.032 1.138-.178c.38-.04.744-.146 1.105-.254.359-.11.725-.188 1.07-.32.677-.296 1.374-.52 1.986-.897l.93-.512.86-.592c2.25-1.596 3.923-3.557 5.15-5.428.335-.451.581-.938.846-1.39.265-.453.515-.892.707-1.34l.593-1.264.448-1.193c.31-.748.473-1.44.652-2.035.188-.585.296-1.117.38-1.552l.273-1.322z"/></g><ellipse stroke="#000" stroke-width=".561" stroke-miterlimit="10" cx="140.456" cy="149.039" rx="6.567" ry="9.718"/><ellipse fill="#fff" cx="144.651" cy="143.863" rx="3.055" ry="4.14"/><linearGradient id="prefix__j" gradientUnits="userSpaceOnUse" x1="164.563" y1="212.575" x2="198.271" y2="212.575"><stop offset="0" stop-color="#ffee27"/><stop offset=".142" stop-color="#ffe612"/><stop offset=".458" stop-color="#ffd600"/><stop offset=".751" stop-color="#fecc00"/><stop offset="1" stop-color="#fdc800"/></linearGradient><path fill="url(#prefix__j)" stroke="#000" stroke-width=".694" stroke-miterlimit="10" d="M195.575 201.322s-9.714 17.533-22.865 17.533c-1.583-.674-3.16-1.304-4.919-1.112-1.55.169-1.499 1.5-.156 2.049-1.442-.19-4.16.326-2.607 3.275 1.178 2.235 7.803-1.168 7.803-1.168s17.086-1.546 25.44-19.395"/><g><ellipse fill="#f29400" cx="160.72" cy="97.018" rx="5.253" ry="4.99"/><path d="M166.33 97.037l-.023.36c-.015.224-.07.645-.207 1.082a5.308 5.308 0 01-2.351 2.982 5.9 5.9 0 01-2.419.81c-.23.016-.447.03-.7.027-.224-.016-.437-.011-.687-.057-.492-.055-.95-.202-1.416-.38-.913-.387-1.767-1.013-2.388-1.863a5.163 5.163 0 01-.985-2.997c.004-.48.086-1.066.242-1.566a5.71 5.71 0 01.713-1.42 5.634 5.634 0 012.392-1.905 6.003 6.003 0 012.821-.425 5.892 5.892 0 012.47.82c1.398.858 2.089 2.143 2.334 3.044.13.456.174.829.188 1.08l.016.389zm-.715-.02l-.022-.333a4.162 4.162 0 00-.18-.923 4.653 4.653 0 00-2.035-2.589 5.189 5.189 0 00-2.1-.74 5.266 5.266 0 00-2.508.332 4.949 4.949 0 00-2.123 1.638 5.06 5.06 0 00-.639 1.233 4.982 4.982 0 00-.23 1.4c.007.437.076.928.212 1.37.15.445.363.866.626 1.25a4.88 4.88 0 002.128 1.68c.414.154.848.287 1.26.328.198.04.436.035.654.048.19 0 .412-.015.61-.03a5.175 5.175 0 002.154-.747 4.648 4.648 0 002.017-2.652c.114-.406.146-.678.16-.922l.016-.361z"/></g><g><ellipse fill="#f29400" cx="135.55" cy="100.577" rx="3.35" ry="2.871"/><path d="M132.466 100.561l.012.22c.011.144.037.295.112.534.152.446.551 1.079 1.318 1.471.375.198.824.337 1.313.382.118.005.255.013.363.011.13-.009.281-.006.396-.028.242-.024.506-.093.754-.177.497-.181.974-.483 1.32-.905a2.35 2.35 0 00.558-1.476 2.318 2.318 0 00-.57-1.499 3.125 3.125 0 00-1.315-.895 3.68 3.68 0 00-1.517-.191 3.51 3.51 0 00-1.292.378c-.76.392-1.166 1.01-1.321 1.455a2.316 2.316 0 00-.118.54l-.013.196zm-.533.016l.013-.243c.012-.158.049-.39.14-.671.186-.555.682-1.305 1.568-1.771a4.04 4.04 0 011.529-.457c.537-.05 1.158.01 1.74.21.58.207 1.15.554 1.573 1.068a2.93 2.93 0 01.691 1.846 2.894 2.894 0 01-.703 1.87c-.426.507-.99.853-1.568 1.06-.295.095-.58.168-.889.197-.158.025-.281.018-.42.027-.16.002-.29-.01-.434-.017a4.035 4.035 0 01-1.508-.453c-.879-.465-1.383-1.2-1.571-1.755a2.88 2.88 0 01-.146-.676l-.014-.22z"/></g></g></svg>