<svg version="1.1" xmlns="http://www.w3.org/2000/svg" xmlns:xlink="http://www.w3.org/1999/xlink" width="140.72127" height="62.05429" viewBox="0,0,140.72127,62.05429"><g transform="translate(-169.62621,-148.97286)"><g data-paper-data="{&quot;isPaintingLayer&quot;:true}" stroke="#000000" stroke-linecap="butt" stroke-linejoin="miter" stroke-miterlimit="10" stroke-dasharray="" stroke-dashoffset="0" style="mix-blend-mode: normal"><path d="M225.13893,193.74699c-6.03196,0 -6.74403,-12.06392 0,-12.06392h15.0799h27.14382c6.03196,0 12.0784,1.00655 18.7983,1.57555c38.53216,3.26269 23.96799,10.61776 -0.70242,10.48837c-10.05316,-0.05274 -12.81791,0 -30.1598,0z" data-paper-data="{&quot;index&quot;:null}" fill="#808080" fill-rule="evenodd" stroke-width="1"/><path d="M246.9514,149.61793c9.42494,-0.88754 18.24064,2.38642 24.79738,7.38493c18.84957,14.37386 27.1028,30.53981 1.83372,43.93076c-7.67356,4.06645 -7.67175,3.78656 -17.26769,6.78927c-22.46513,5.47762 -56.32644,4.28902 -71.19823,-15.97564c-7.53995,-11.30992 -5.86548,-16.11166 -6.03196,-24.12784c-0.57153,-27.50634 15.66379,-9.06724 21.01836,3.84236c4.33276,10.44615 13.45248,-1.70955 19.73114,-7.76977c6.3788,-6.15923 14.03335,-12.84264 27.11667,-14.07497z" data-paper-data="{&quot;index&quot;:null}" fill="#e6e6e6" fill-rule="evenodd" stroke-width="1"/><path d="M181.31382,168.7044c-14.23431,-1.87503 -13.75899,-5.31361 1.09169,-7.14998c10.87722,-1.34513 13.53943,9.07116 -1.09169,7.14998z" data-paper-data="{&quot;index&quot;:null}" fill="#808080" fill-rule="evenodd" stroke-width="1.1501"/><path d="M230.82243,194.3171c-3.10194,-0.00751 -13.18556,0.53826 -31.00729,0c-32.57186,-0.98381 -46.03821,-4.52156 0.18469,-10.98359c10.20728,-2.05916 17.72823,-3.25886 28.10682,-2.92288c15.48253,0.71237 9.10102,13.92182 2.71438,13.90638z" data-paper-data="{&quot;index&quot;:null}" fill="#808080" fill-rule="evenodd" stroke-width="1.0526"/><path d="M263.53528,188.73129c3.62099,-0.02428 4.21465,-0.06309 6.99225,-0.6931c2.7776,-0.63001 5.92317,-3.86875 0.00884,1.04549c-4.8316,4.01457 -3.98501,8.69567 -10.01697,8.69567c-9.04794,0 -10.55593,-10.55593 -15.0799,-12.06392c-2.86126,-0.95374 -1.50799,-0.75399 3.01598,0c4.52397,0.75399 7.53995,3.01598 15.0799,3.01598z" data-paper-data="{&quot;index&quot;:null}" fill="#000000" fill-rule="evenodd" stroke-width="1"/><path d="M262.02747,197.39628c-5.33587,0.43129 -6.27867,-1.55685 -9.30973,-4.75801c-0.86531,-0.91387 1.01228,-1.37833 2.52585,-1.55091c1.51359,-0.17258 1.33391,-0.10775 1.33391,-0.10775c1.33388,-0.10776 2.6678,-0.21552 2.79409,0.97253l0.3789,3.56428l-0.3789,-3.56428c-0.08927,-0.8401 5.33564,-0.43101 5.46194,0.75704c0.12631,1.18799 -0.69708,4.51677 -2.80616,4.68713z" data-paper-data="{&quot;index&quot;:null}" fill="#ff2a2a" fill-rule="evenodd" stroke-width="0.83837"/><path d="M271.53375,160.54105c1.68165,0.00504 3.28018,0.04577 4.74082,0.13195c6.8137,5.90378 11.5895,12.03376 12.82726,18.09588h-41.77132c-5.78314,-1.3394 -2.66353,-11.80515 0,-15.0799c1.88499,-1.88499 14.36602,-3.17733 24.20324,-3.14778z" data-paper-data="{&quot;index&quot;:null}" fill="#d5e5ff" fill-rule="evenodd" stroke-width="1"/><path d="M272.53361,171.28633l-2.10911,-3.23381c1.02629,-1.50604 2.61809,-1.7181 3.80526,-0.50693c1.18717,1.21116 1.64058,3.50976 1.08388,5.49488c-0.5567,1.98513 -1.96915,3.10641 -3.37653,2.68047c-1.40738,-0.42594 -2.41948,-2.281 -2.41949,-4.43461z" data-paper-data="{&quot;index&quot;:null}" fill="#000000" fill-rule="nonzero" stroke-width="1"/><path d="M258.24051,170.70277l-2.82606,-2.81161c0.92959,-2.10232 2.74596,-2.86506 4.26813,-1.7923c1.52217,1.07276 2.29021,3.65689 1.80475,6.07222c-0.48546,2.41533 -2.07773,3.93205 -3.74155,3.56402c-1.66381,-0.36803 -2.89644,-2.50962 -2.89644,-5.03233z" data-paper-data="{&quot;index&quot;:null}" fill="#000000" fill-rule="nonzero" stroke-width="1"/></g></g></svg>