<?xml version="1.0" encoding="UTF-8" standalone="no"?>
<!-- Created with Inkscape (http://www.inkscape.org/) -->

<svg
   id="svg2"
   sodipodi:docname="1271514698.svg"
   viewBox="0 0 140 61.356235"
   sodipodi:version="0.32"
   version="1.1"
   inkscape:version="1.2.2 (732a01da63, 2022-12-09)"
   width="140"
   height="61.356236"
   xmlns:inkscape="http://www.inkscape.org/namespaces/inkscape"
   xmlns:sodipodi="http://sodipodi.sourceforge.net/DTD/sodipodi-0.dtd"
   xmlns="http://www.w3.org/2000/svg"
   xmlns:svg="http://www.w3.org/2000/svg"
   xmlns:rdf="http://www.w3.org/1999/02/22-rdf-syntax-ns#"
   xmlns:cc="http://creativecommons.org/ns#"
   xmlns:dc="http://purl.org/dc/elements/1.1/">
  <defs
     id="defs18" />
  <sodipodi:namedview
     id="base"
     inkscape:zoom="1"
     borderopacity="1.0"
     inkscape:current-layer="layer1"
     inkscape:cx="154"
     inkscape:cy="119"
     inkscape:grid-points="true"
     inkscape:guide-points="true"
     inkscape:grid-bbox="true"
     inkscape:window-maximized="1"
     showgrid="false"
     inkscape:guide-bbox="true"
     inkscape:document-units="px"
     bordercolor="#666666"
     inkscape:window-x="1912"
     guidetolerance="10.000000px"
     inkscape:window-y="-8"
     inkscape:window-width="1920"
     inkscape:pageopacity="0.0"
     inkscape:pageshadow="2"
     pagecolor="#ffffff"
     gridtolerance="5.0000000px"
     showguides="true"
     inkscape:window-height="1017"
     inkscape:showpageshadow="2"
     inkscape:pagecheckerboard="0"
     inkscape:deskcolor="#d1d1d1">
    <inkscape:grid
       id="GridFromPre046Settings"
       opacity=".2"
       visible="true"
       color="#0000ff"
       enabled="true"
       originy="-0.0013707461"
       originx="0.0026864765"
       empspacing="5"
       spacingy="5"
       spacingx="5"
       snapvisiblegridlinesonly="true"
       empopacity="0.4"
       type="xygrid"
       empcolor="#0000ff" />
  </sodipodi:namedview>
  <g
     id="layer1"
     inkscape:label="Layer 1"
     inkscape:groupmode="layer"
     transform="translate(-15.944314,-121.38137)">
    <g
       id="g2857"
       transform="matrix(0.30159796,0,0,0.30159796,11.135541,84.772997)">
      <path
         id="path2041"
         sodipodi:nodetypes="csssssss"
         style="fill:#808080;fill-rule:evenodd;stroke:#000000;stroke-width:1px"
         d="m 297.31,268.68 c 20,0 22.361,-40 0,-40 h -50 -90 c -20,0 -40.048,3.3374 -62.329,5.224 -127.76,10.818 -79.47,35.205 2.329,34.776 33.333,-0.17488 42.5,0 100,0 z" />
      <path
         id="path2035"
         d="m 209.41,0.3125 c -31.25,-2.9428 -60.48,7.9126 -82.22,24.486 -62.499,47.659 -89.864,101.26 -6.08,145.66 25.443,13.483 25.437,12.555 57.254,22.511 74.487,18.162 186.76,14.221 236.07,-52.97 25,-37.5 19.448,-53.421 20,-80 1.895,-91.202 -51.936,-30.064 -69.69,12.74 -14.366,34.636 -44.604,-5.6683 -65.422,-25.762 -21.15,-20.422 -46.53,-42.582 -89.91,-46.668 z"
         sodipodi:nodetypes="cssccssss"
         style="fill:#e6e6e6;fill-rule:evenodd;stroke:#000000;stroke-width:1px"
         transform="translate(15.577,122.05)" />
      <path
         id="path2037"
         sodipodi:nodetypes="css"
         style="fill:#808080;fill-rule:evenodd;stroke:#000000;stroke-width:1.1501px"
         d="m 439,161.94 c 49.24,6.0888 50.816,17.49 3.6197,23.707 -48.512,6.37 -39.685,-28.167 -3.6197,-23.707 z" />
      <path
         id="path2039"
         sodipodi:nodetypes="cccss"
         style="fill:#808080;fill-rule:evenodd;stroke:#000000;stroke-width:1.0526px"
         d="m 278.47,270.57 c -21.176,0.0512 -42.335,-43.747 9,-46.109 34.412,-1.114 59.349,2.8638 93.193,9.6913 153.26,21.426 108.61,33.156 0.61238,36.418 -59.091,1.7847 -92.525,-0.0249 -102.81,0 z" />
      <path
         id="path5685"
         sodipodi:nodetypes="csssssc"
         style="fill:#000000;fill-rule:evenodd;stroke:#000000;stroke-width:1px"
         d="m 170,252.05 c 25,0 35,-7.5 50,-10 15,-2.5 19.487,-3.1623 10,0 -15,5 -20,40 -50,40 -20,0 -17.193,-15.521 -33.213,-28.832 -19.61,-16.294 -9.1803,-5.5554 0.0293,-3.4665 9.2096,2.0889 11.178,2.2176 23.184,2.2981 z" />
      <path
         id="path6413"
         sodipodi:nodetypes="cssssssss"
         style="fill:#ff2a2a;fill-rule:evenodd;stroke:#000000;stroke-width:0.83837px"
         d="m 175,280.78 c -6.993,-0.56487 -9.7231,-11.602 -9.3043,-15.541 0.41876,-3.9392 18.406,-5.2956 18.11,-2.5101 l -1.2563,11.818 1.2563,-11.818 c 0.41876,-3.9392 4.8416,-3.5819 9.2643,-3.2246 0,0 -0.59576,-0.21495 4.4228,0.35726 5.0185,0.5722 11.244,2.1122 8.3749,5.1423 -10.05,10.614 -13.176,17.206 -30.868,15.776 z" />
      <path
         id="path2035-7"
         style="fill:#d5e5ff;fill-rule:evenodd;stroke:#000000;stroke-width:1px"
         d="m 143.48,158.58 c -5.5758,0.0167 -10.876,0.15176 -15.719,0.4375 -22.592,19.575 -38.427,39.9 -42.531,60 h 138.5 c 19.175,-4.441 8.8314,-39.142 0,-50 -6.25,-6.25 -47.633,-10.535 -80.25,-10.437 z" />
      <path
         id="path7141"
         sodipodi:rx="10"
         sodipodi:ry="15"
         style="fill:#000000;stroke:#000000"
         sodipodi:type="arc"
         d="m 150,197.04724 a 10,15 0 0 1 -8.02222,14.7037 10,15 0 0 1 -11.19546,-8.88756 10,15 0 0 1 3.59379,-18.21923 10,15 0 0 1 12.617,1.68083 L 140,197.04724 Z"
         transform="translate(0.16478,-2.8394)"
         sodipodi:cy="197.04724"
         sodipodi:cx="140"
         sodipodi:end="5.4868227"
         sodipodi:start="0"
         sodipodi:arc-type="slice" />
      <path
         id="path9331"
         sodipodi:rx="10"
         sodipodi:ry="15"
         style="fill:#000000;stroke:#000000"
         sodipodi:type="arc"
         d="m 150,197.04724 a 10,15 0 0 1 -8.54113,14.83952 10,15 0 0 1 -11.03321,-10.50972 10,15 0 0 1 5.32192,-17.90599 10,15 0 0 1 12.58601,5.2852 L 140,197.04724 Z"
         transform="matrix(1.1244,0,0,1.1244,30.14,-29.287)"
         sodipodi:cy="197.04724"
         sodipodi:cx="140"
         sodipodi:end="5.6975458"
         sodipodi:start="0"
         sodipodi:arc-type="slice" />
    </g>
  </g>
  <metadata
     id="metadata15">
    <rdf:RDF>
      <cc:Work>
        <dc:format>image/svg+xml</dc:format>
        <dc:type
           rdf:resource="http://purl.org/dc/dcmitype/StillImage" />
        <cc:license
           rdf:resource="http://creativecommons.org/licenses/publicdomain/" />
        <dc:publisher>
          <cc:Agent
             rdf:about="http://openclipart.org/">
            <dc:title>Openclipart</dc:title>
          </cc:Agent>
        </dc:publisher>
        <dc:title>Cute Happy Airplane</dc:title>
        <dc:date>2010-04-17T14:31:38</dc:date>
        <dc:description>An airplane happily crossing the sky</dc:description>
        <dc:source>https://openclipart.org/detail/48613/cute-happy-airplane-by-nefigcas</dc:source>
        <dc:creator>
          <cc:Agent>
            <dc:title>nefigcas</dc:title>
          </cc:Agent>
        </dc:creator>
        <dc:subject>
          <rdf:Bag>
            <rdf:li>airplane</rdf:li>
            <rdf:li>emotions</rdf:li>
            <rdf:li>fly</rdf:li>
            <rdf:li>happy</rdf:li>
            <rdf:li>sky</rdf:li>
          </rdf:Bag>
        </dc:subject>
      </cc:Work>
      <cc:License
         rdf:about="http://creativecommons.org/licenses/publicdomain/">
        <cc:permits
           rdf:resource="http://creativecommons.org/ns#Reproduction" />
        <cc:permits
           rdf:resource="http://creativecommons.org/ns#Distribution" />
        <cc:permits
           rdf:resource="http://creativecommons.org/ns#DerivativeWorks" />
      </cc:License>
    </rdf:RDF>
  </metadata>
</svg>
