<svg width="127.01" height="148.565" xmlns="http://www.w3.org/2000/svg"><ellipse fill="#4fbecb" stroke="#000" stroke-width="3" stroke-miterlimit="10" cx="63.505" cy="77.086" rx="62.005" ry="43.986"/><path fill="#f9bb17" stroke="#010202" stroke-width="3" stroke-miterlimit="10" d="M55.472 137.327l-5.002-10.325 2.467-9.991c.236-.957-.562-1.977-1.784-2.278l-.044-.011c-1.222-.302-2.403.23-2.64 1.186l-2.467 9.991-9.232 6.81c-.864.638-.839 1.782.056 2.556l.034.03c.894.774 2.32.885 3.183.248l7.273-5.365 3.94 8.133c.468.966 1.782 1.53 2.934 1.262l.044-.01c1.151-.269 1.706-1.27 1.238-2.236zM71.192 137.327l5.002-10.325-2.467-9.991c-.237-.957.562-1.977 1.783-2.278l.045-.011c1.221-.302 2.403.23 2.64 1.186l2.466 9.991 9.233 6.81c.864.638.839 1.782-.056 2.556l-.034.03c-.895.774-2.32.885-3.184.248l-7.273-5.365-3.94 8.133c-.468.966-1.78 1.53-2.933 1.262l-.044-.01c-1.152-.269-1.706-1.27-1.238-2.236z"/><ellipse fill="#f6e81c" stroke="#000" stroke-width="3" stroke-linecap="square" stroke-linejoin="round" cx="63.012" cy="77.109" rx="55.489" ry="43.978"/><path fill="#f9bb17" stroke="#000" stroke-width="3" stroke-miterlimit="10" d="M60.872 40.896c-2.864-.62-5.946 1.145-8.56 4.465 3.925 2.947 5.543 11.15 3.606 20.106-1.084 5.01-3.085 9.345-5.476 12.38a5.67 5.67 0 002.213 1.034c5.484 1.186 11.767-6.356 14.036-16.845 2.27-10.49-.336-19.954-5.82-21.14"/><path fill="#ffed00" d="M72.888 33.283c-2.041-.184-4.027-.739-5.842-1.857-2.92-1.8-4.479-5.035-5.09-8.302-1.378-7.375 1.641-15.665 6.626-21.093.625-.68-.271-2.42-1.053-1.57-5.628 6.128-8.582 15.36-6.89 23.586.75 3.642 2.666 6.915 5.737 9.052 1.659 1.155 3.553 1.792 5.523 2.076.205-.715.545-1.35.99-1.892"/><path fill="#009fe3" d="M73.243 32.89c-2.73-1.26-5.17-3.05-6.736-5.72-1.734-2.96-1.592-6.549-.6-9.72 2.243-7.16 8.799-13.064 15.748-15.52.871-.307.896-2.265-.193-1.88-7.846 2.771-14.785 9.539-17.15 17.597-1.047 3.568-.89 7.357.819 10.686 1.473 2.868 4.092 4.854 6.976 6.243.27-.644.66-1.21 1.136-1.685"/><path fill="#f9bb17" d="M94.97 6.603c-8.223-1.277-17.54 1.394-23.441 7.369-2.613 2.646-4.27 6.057-4.343 9.798-.079 4.136 2.189 7.887 4.885 10.9a5.247 5.247 0 011.143-1.749c-2.334-2.702-4.13-5.861-4.264-9.523-.125-3.426 1.7-6.52 4.078-8.842 5.367-5.243 13.938-7.336 21.221-6.204.913.141 1.862-1.571.721-1.749"/><path fill="#eaeaea" stroke="#000" stroke-width=".71406" stroke-miterlimit="10" d="M106.95 49.372c2.09-12.698-6.963-24.762-20.223-26.946-8.3-1.367-16.281 1.462-21.603 6.883-3.302-6.841-9.954-12.08-18.254-13.447-13.26-2.184-25.705 6.34-27.796 19.037a22.524 22.524 0 00.976 11.093c2.802 7.998 9.999 14.33 19.247 15.852 8.3 1.367 16.28-1.462 21.603-6.883 3.302 6.842 9.954 12.08 18.254 13.448 9.15 1.506 17.91-2.086 23.15-8.63a22.448 22.448 0 004.022-7.706c.258-.877.471-1.776.623-2.701z"/><path d="M58.847 39.33c-.864 5.247-5.82 8.8-11.067 7.936-5.248-.864-8.801-5.819-7.937-11.067.864-5.247 5.819-8.8 11.067-7.936a9.63 9.63 0 017.937 11.066"/><path fill="#38a6de" d="M49.357 48.229c-.57 0-1.146-.048-1.712-.14a10.396 10.396 0 01-6.802-4.227 10.393 10.393 0 01-1.822-7.798A10.42 10.42 0 0149.333 27.3c.57 0 1.146.048 1.712.14a10.394 10.394 0 016.802 4.227 10.395 10.395 0 011.822 7.798 10.42 10.42 0 01-10.312 8.764zm-.024-19.263a8.76 8.76 0 00-8.668 7.369 8.74 8.74 0 001.532 6.556 8.74 8.74 0 005.719 3.553c.477.079.962.119 1.441.119a8.76 8.76 0 008.668-7.37 8.74 8.74 0 00-1.531-6.555 8.74 8.74 0 00-5.72-3.553 8.902 8.902 0 00-1.44-.119z"/><g><path d="M87.338 43.69c-.864 5.248-5.82 8.801-11.067 7.937-5.248-.864-8.801-5.819-7.937-11.067.864-5.248 5.819-8.8 11.067-7.937 5.248.865 8.801 5.82 7.937 11.067"/><path fill="#38a6de" d="M77.848 52.59c-.57 0-1.146-.048-1.712-.141a10.395 10.395 0 01-6.802-4.226 10.391 10.391 0 01-1.821-7.798 10.42 10.42 0 0110.311-8.764c.57 0 1.146.047 1.712.14 5.693.938 9.561 6.332 8.624 12.025a10.42 10.42 0 01-10.312 8.763zm-.024-19.263a8.76 8.76 0 00-8.668 7.369 8.74 8.74 0 001.531 6.556 8.74 8.74 0 005.72 3.553c.477.079.961.119 1.44.119a8.76 8.76 0 008.669-7.37c.788-4.785-2.464-9.32-7.25-10.108a8.878 8.878 0 00-1.442-.119z"/></g></svg>