<svg xmlns="http://www.w3.org/2000/svg" width="137.787" height="130.25" viewBox="0 0 11.023 10.42" xmlns:v="https://vecta.io/nano"><path d="M3.611 4.146l-.515-.421-.919.936c-.187.125-.374.155-.711-.101S0 3.023 0 2.757 1.443.979 1.746.651s.562-.749.992-.631S4.68 1.314 4.766 1.501s0 .485-.335.867-.852.857-.852.857l.524.438L5.17 2.461c.084-.109.571-.468.975-.172s2.076 1.724 2.177 1.797a.586.586 0 0 1 .148.882c-.35.49-1.396 1.559-1.372 1.574a27.01 27.01 0 0 1 .498.468l1.123-1.38a.685.685 0 0 1 .953-.064 8.388 8.388 0 0 1 1.271 1.153c.071.125.187.32-.133.749l-2.34 2.83c-.118.109-.374.204-.724.009a13.43 13.43 0 0 1-1.413-1.155c-.069-.079-.225-.133-.047-.414s.96-1.224.968-1.271a3.012 3.012 0 0 0-.53-.562 7.914 7.914 0 0 1-1.007 1.147c-.389.337-.522.444-.788.397S3.79 7.616 3.79 7.616l-.155.165a2.048 2.048 0 0 1 .562 1.185c.047.678-.187 1.123-.249 1.123S2.465 8.926 2.465 8.926l-.601.601-.125.109s.258.492-.249.648-.687-.208-.655-.475.374-.414.451-.429a.711.711 0 0 1 .197 0l.49-.988L.874 7.32c-.015-.116.163-.281.591-.298s1.507.328 1.507.328l.217-.335-.709-.648a.421.421 0 0 1-.069-.498c.094-.234 1.2-1.724 1.2-1.724z" fill="#1d1d1b"/><g fill="#cbe7f5"><path d="M.374 2.742c-.015-.071.335-.453.374-.429s.344.256.313.296-.382.507-.414.483a1.82 1.82 0 0 1-.273-.35z"/><path d="M.756 3.217c.139-.184.305-.347.492-.483.03.022.498.451.483.507a3.31 3.31 0 0 1-.468.591c-.032-.015-.507-.608-.507-.616zm.625.717a4.71 4.71 0 0 1 .545-.562c.039.017.562.507.539.562s-.374.578-.593.485a1.63 1.63 0 0 1-.49-.485zm-.492-1.84c-.013-.037.389-.475.445-.46s.35.234.318.288-.389.539-.444.515c-.117-.104-.224-.219-.32-.343zm.616-.662a4.14 4.14 0 0 1 .453-.453c.032.017.335.273.303.305s-.404.507-.436.483a4.01 4.01 0 0 1-.32-.335zm.569-.633s.352-.468.485-.457.436.163.404.202a7.41 7.41 0 0 1-.562.562L2.073.799z"/><path d="M1.381 2.609c0 .051.404-.562.444-.537s.593.397.562.451a3.77 3.77 0 0 1-.537.601c-.017-.032-.468-.522-.468-.515z"/><path d="M2.005 3.202l.562-.522s.577.451.562.515a3.77 3.77 0 0 1-.522.599c-.032-.015-.601-.591-.601-.591zm-.047-1.287a2.92 2.92 0 0 1 .46-.475 3.66 3.66 0 0 1 .545.475 4.07 4.07 0 0 1-.412.468 5.57 5.57 0 0 1-.593-.468zm.608-.678c-.009-.026.601-.608.601-.608a5.66 5.66 0 0 1 .591.451c-.022.024-.608.694-.655.664s-.53-.485-.537-.507z"/><path d="M2.652 2.547l.468-.507c.024.007.608.49.584.53a5.09 5.09 0 0 1-.436.485 5.76 5.76 0 0 1-.616-.507z"/><path d="M3.268 1.875c.015-.022.648-.709.67-.709s.522.299.453.532a2.46 2.46 0 0 1-.522.704c-.024-.011-.601-.526-.601-.526z"/></g><path d="M3.214 3.524c-.047-.019.17-.219.21-.204a3.062 3.062 0 0 1 .507.485 1.595 1.595 0 0 1-.187.202l-.53-.483z" fill="#fab900"/><path d="M2.98 5.604l1.965-2.387c.468-.53.788-.771 1.044-.67S7.847 4.086 8.002 4.2s.374.32.226.608-1.404 1.544-1.404 1.544a1.696 1.696 0 0 0-.157-.35c-.03 0-.101.084-.101.084a2.246 2.246 0 0 1 .14.399c-.015.032-.187.219-.187.219a3.137 3.137 0 0 0-.14-.445c-.022 0-.086.086-.086.086s.15.453.11.49-.204.226-.204.226l-.14-.414s-.14.047-.116.086a2.821 2.821 0 0 1 .133.445.395.395 0 0 1-.062.094l-.187-.46-.103.109a3.397 3.397 0 0 1 .172.468 2.198 2.198 0 0 1-.14.187l-.163-.444s-.103.03-.094.077.155.429.124.475l-.101.165a2.42 2.42 0 0 0-.21-.475c-.039 0-.11.062-.103.086s.212.468.172.505a1.048 1.048 0 0 1-.148.103 2.821 2.821 0 0 0-.148-.445c-.032 0-.14 0-.125.032a2.01 2.01 0 0 1 .101.475c-.03 0-.187-.062-.779-.53S2.729 6.22 2.707 6.087s.202-.389.273-.483z" fill="#e7413e"/><path d="M1.381 7.335a3.603 3.603 0 0 1 1.146.172c.515.155.694.264.936.608a3.113 3.113 0 0 1 .374 1.146c0 .118 0 .258-.047.241s-.219-.116-.212-.14.047-.584 0-.638a.657.657 0 0 0-.155-.101 4.315 4.315 0 0 1-.039.577l-.116-.118a2.3 2.3 0 0 0-.024-.459c-.032-.024-.109-.079-.133-.071s0 .414-.039.399-.732-.679-1.052-.992-.678-.591-.638-.623z" fill="#e6e4da"/><path d="M2.113 8.552c.037-.021.298.219.234.288a7.102 7.102 0 0 1-.648.663c-.037 0-.109 0-.077-.047s.436-.878.49-.904z" fill="#92a0d1"/><path d="M1.248 9.628a.303.303 0 0 1 .358.32c-.037.163-.412.303-.545.101s.069-.382.187-.421z" fill="#e6e4da"/><path d="M3.362 7.195c.028-.028.35.241.303.288s-.109.118-.14.11-.17-.125-.234-.15.032-.21.071-.249z" fill="#92a0d1"/><path d="M5.069 3.569c-.039-.08.5-.593.562-.562s.148.015.11.084a3.888 3.888 0 0 1-.524.586c-.054 0-.139-.094-.148-.109zm.788 1.099c-.032-.095.749-.904.796-.904s.468.311.429.404-.779.913-.833.898a1.724 1.724 0 0 1-.391-.399zm.702.586c0-.036.788-.96.85-.936s.421.288.391.35-.749.983-.803.968a1.885 1.885 0 0 1-.438-.382z" fill="#1d1d1b"/><path d="M6.637 4.02c.043-.013.219.165.187.187s-.515.627-.562.608-.212-.148-.187-.168a6.042 6.042 0 0 1 .562-.627zm.188 1.189c-.049-.013.584-.663.623-.655s.172.094.148.124a7.74 7.74 0 0 1-.608.719c-.03-.019-.14-.174-.163-.187z" fill="#92a0d1"/><path d="M5.514 5.05c.103-.037.82.593.81.672s-1.217 1.591-1.333 1.7-.273.163-.335.116-.827-.678-.773-.831 1.512-1.61 1.63-1.657z" fill="#1d1d1b"/><path d="M5.554 5.222c.034-.034.562.49.562.522S4.844 7.343 4.788 7.35s-.709-.584-.685-.655 1.372-1.394 1.451-1.473z" fill="#92a0d1"/><path d="M4.367 6.673c.032-.015.633-.781.664-.773s.084.039.054.071-.64.85-.672.835-.047-.133-.047-.133zm.172.221l.562-.593c.032 0 .086.069.062.101a7.905 7.905 0 0 1-.522.623c-.022-.009-.062-.103-.101-.131z" fill="#1d1d1b"/><path d="M7.012 6.68c.037-.019.507.421.483.468s-.094.172-.116.155a4.041 4.041 0 0 1-.5-.475.876.876 0 0 1 .133-.148z" fill="#fab900"/><g fill="#cbe7f5"><path d="M8.485 6.478c-.019-.03.547-.749.711-.749s.459.264.459.264l-.685.921a5.353 5.353 0 0 1-.485-.436zm.664.53a8.236 8.236 0 0 1 .709-.863 1 1 0 0 1 .32.303 8.708 8.708 0 0 1-.672.889 2.478 2.478 0 0 1-.358-.329zm.515.436c.037-.054.67-.865.67-.865s.429.266.374.414a4.492 4.492 0 0 1-.655.81c-.015-.008-.389-.359-.389-.359z"/><path d="M8.322 6.695a1.847 1.847 0 0 1 .515.453 5.161 5.161 0 0 1-.475.562 4.255 4.255 0 0 1-.547-.421 5.451 5.451 0 0 1 .507-.593z"/><path d="M8.509 7.829a5.947 5.947 0 0 1 .522-.571c.032.017.335.251.313.29s-.485.631-.515.599zm.468.42l.537-.625a2.276 2.276 0 0 1 .384.393 4.878 4.878 0 0 1-.5.638c-.024-.009-.389-.384-.421-.406zm-.155.234a3.208 3.208 0 0 1 .421.374c-.017.03-.29.46-.352.429s-.5-.352-.475-.374a4.827 4.827 0 0 1 .406-.429zm-.571.623a4.011 4.011 0 0 1 .485.397c-.017.032-.251.328-.374.468s-.226.197-.399.105-.343-.226-.32-.281.608-.689.608-.689zM7.324 7.99c0-.039.374-.507.429-.49s.475.35.444.389-.374.468-.429.468a2.175 2.175 0 0 1-.444-.367z"/><path d="M7.923 8.451a4.008 4.008 0 0 1 .431-.453c.03.017.328.281.311.32s-.343.447-.389.429a3.76 3.76 0 0 1-.352-.296z"/><path d="M7.761 8.7c.062.017.358.241.328.281s-.532.679-.593.663-.288-.163-.273-.21.539-.734.539-.734z"/><path d="M7.137 8.193c.03.017.515.384.475.421s-.515.702-.578.687-.468-.281-.412-.421a5.939 5.939 0 0 1 .515-.687z"/></g></svg>