<svg version="1.1" xmlns="http://www.w3.org/2000/svg" xmlns:xlink="http://www.w3.org/1999/xlink" width="111.5352" height="120.8926" viewBox="0,0,111.5352,120.8926"><defs><radialGradient cx="192.42012" cy="152.11758" r="47.89407" gradientUnits="userSpaceOnUse" id="color-1"><stop offset="0" stop-color="#000000" stop-opacity="0"/><stop offset="1" stop-color="#000000" stop-opacity="0.57196"/></radialGradient><radialGradient cx="240.84082" cy="228.98111" r="72.00067" gradientUnits="userSpaceOnUse" id="color-2"><stop offset="0" stop-color="#000000"/><stop offset="1" stop-color="#000000" stop-opacity="0"/></radialGradient><radialGradient cx="224.45582" cy="157.70017" r="73.39036" gradientUnits="userSpaceOnUse" id="color-3"><stop offset="0" stop-color="#000000" stop-opacity="0"/><stop offset="1" stop-color="#000000" stop-opacity="0.57196"/></radialGradient><radialGradient cx="264.73736" cy="171.59281" r="17.28955" gradientUnits="userSpaceOnUse" id="color-4"><stop offset="0" stop-color="#000000" stop-opacity="0"/><stop offset="1" stop-color="#000000" stop-opacity="0.57196"/></radialGradient><radialGradient cx="236.21736" cy="171.59281" r="17.28955" gradientUnits="userSpaceOnUse" id="color-5"><stop offset="0" stop-color="#000000" stop-opacity="0"/><stop offset="1" stop-color="#000000" stop-opacity="0.57196"/></radialGradient><radialGradient cx="236.7565" cy="132.77828" r="11.088" gradientUnits="userSpaceOnUse" id="color-6"><stop offset="0" stop-color="#000000" stop-opacity="0"/><stop offset="1" stop-color="#000000" stop-opacity="0.57196"/></radialGradient><radialGradient cx="251.68233" cy="148.66103" r="19.94586" gradientUnits="userSpaceOnUse" id="color-7"><stop offset="0" stop-color="#000000" stop-opacity="0"/><stop offset="1" stop-color="#000000" stop-opacity="0.57196"/></radialGradient><radialGradient cx="233.06636" cy="148.0983" r="20.52684" gradientUnits="userSpaceOnUse" id="color-8"><stop offset="0" stop-color="#000000" stop-opacity="0"/><stop offset="1" stop-color="#000000" stop-opacity="0.57196"/></radialGradient><radialGradient cx="194.87742" cy="159.68315" r="53.77582" gradientUnits="userSpaceOnUse" id="color-9"><stop offset="0" stop-color="#000000" stop-opacity="0"/><stop offset="1" stop-color="#000000" stop-opacity="0.57196"/></radialGradient><radialGradient cx="201.06804" cy="166.52379" r="63.57838" gradientUnits="userSpaceOnUse" id="color-10"><stop offset="0" stop-color="#000000" stop-opacity="0"/><stop offset="1" stop-color="#000000" stop-opacity="0.57196"/></radialGradient><radialGradient cx="233.07578" cy="131.61185" r="27.48423" gradientUnits="userSpaceOnUse" id="color-11"><stop offset="0" stop-color="#000000" stop-opacity="0"/><stop offset="1" stop-color="#000000" stop-opacity="0.57196"/></radialGradient><radialGradient cx="218.3298" cy="147.93621" r="4.7373" gradientUnits="userSpaceOnUse" id="color-12"><stop offset="0" stop-color="#000000" stop-opacity="0"/><stop offset="1" stop-color="#000000" stop-opacity="0.57196"/></radialGradient><radialGradient cx="223.3298" cy="144.56121" r="4.7373" gradientUnits="userSpaceOnUse" id="color-13"><stop offset="0" stop-color="#000000" stop-opacity="0"/><stop offset="1" stop-color="#000000" stop-opacity="0.57196"/></radialGradient><radialGradient cx="226.0798" cy="148.68621" r="4.7373" gradientUnits="userSpaceOnUse" id="color-14"><stop offset="0" stop-color="#000000" stop-opacity="0"/><stop offset="1" stop-color="#000000" stop-opacity="0.57196"/></radialGradient><radialGradient cx="220.2048" cy="154.68621" r="4.7373" gradientUnits="userSpaceOnUse" id="color-15"><stop offset="0" stop-color="#000000" stop-opacity="0"/><stop offset="1" stop-color="#000000" stop-opacity="0.57196"/></radialGradient><radialGradient cx="224.7048" cy="154.18621" r="4.7373" gradientUnits="userSpaceOnUse" id="color-16"><stop offset="0" stop-color="#000000" stop-opacity="0"/><stop offset="1" stop-color="#000000" stop-opacity="0.57196"/></radialGradient><radialGradient cx="222.68807" cy="151.16489" r="3.05634" gradientUnits="userSpaceOnUse" id="color-17"><stop offset="0" stop-color="#000000" stop-opacity="0"/><stop offset="1" stop-color="#000000" stop-opacity="0.57196"/></radialGradient><radialGradient cx="259.98821" cy="206.41012" r="4.5759" gradientUnits="userSpaceOnUse" id="color-18"><stop offset="0" stop-color="#000000" stop-opacity="0"/><stop offset="1" stop-color="#000000" stop-opacity="0.57196"/></radialGradient><radialGradient cx="265.48821" cy="201.16012" r="4.5759" gradientUnits="userSpaceOnUse" id="color-19"><stop offset="0" stop-color="#000000" stop-opacity="0"/><stop offset="1" stop-color="#000000" stop-opacity="0.57196"/></radialGradient><radialGradient cx="270.73821" cy="195.91012" r="4.5759" gradientUnits="userSpaceOnUse" id="color-20"><stop offset="0" stop-color="#000000" stop-opacity="0"/><stop offset="1" stop-color="#000000" stop-opacity="0.57196"/></radialGradient><radialGradient cx="253.23821" cy="202.66012" r="4.5759" gradientUnits="userSpaceOnUse" id="color-21"><stop offset="0" stop-color="#000000" stop-opacity="0"/><stop offset="1" stop-color="#000000" stop-opacity="0.57196"/></radialGradient><radialGradient cx="246.98821" cy="199.16012" r="4.5759" gradientUnits="userSpaceOnUse" id="color-22"><stop offset="0" stop-color="#000000" stop-opacity="0"/><stop offset="1" stop-color="#000000" stop-opacity="0.57196"/></radialGradient><radialGradient cx="276.98821" cy="193.66012" r="4.5759" gradientUnits="userSpaceOnUse" id="color-23"><stop offset="0" stop-color="#000000" stop-opacity="0"/><stop offset="1" stop-color="#000000" stop-opacity="0.57196"/></radialGradient><radialGradient cx="283.48821" cy="192.66012" r="4.5759" gradientUnits="userSpaceOnUse" id="color-24"><stop offset="0" stop-color="#000000" stop-opacity="0"/><stop offset="1" stop-color="#000000" stop-opacity="0.57196"/></radialGradient><radialGradient cx="240.23821" cy="197.41012" r="4.5759" gradientUnits="userSpaceOnUse" id="color-25"><stop offset="0" stop-color="#000000" stop-opacity="0"/><stop offset="1" stop-color="#000000" stop-opacity="0.57196"/></radialGradient><radialGradient cx="233.48821" cy="197.66012" r="4.5759" gradientUnits="userSpaceOnUse" id="color-26"><stop offset="0" stop-color="#000000" stop-opacity="0"/><stop offset="1" stop-color="#000000" stop-opacity="0.57196"/></radialGradient><radialGradient cx="226.73821" cy="198.16012" r="4.5759" gradientUnits="userSpaceOnUse" id="color-27"><stop offset="0" stop-color="#000000" stop-opacity="0"/><stop offset="1" stop-color="#000000" stop-opacity="0.57196"/></radialGradient><radialGradient cx="219.98821" cy="198.66012" r="4.5759" gradientUnits="userSpaceOnUse" id="color-28"><stop offset="0" stop-color="#000000" stop-opacity="0"/><stop offset="1" stop-color="#000000" stop-opacity="0.57196"/></radialGradient><radialGradient cx="212.98821" cy="197.66012" r="4.5759" gradientUnits="userSpaceOnUse" id="color-29"><stop offset="0" stop-color="#000000" stop-opacity="0"/><stop offset="1" stop-color="#000000" stop-opacity="0.57196"/></radialGradient><radialGradient cx="205.98821" cy="196.41012" r="4.5759" gradientUnits="userSpaceOnUse" id="color-30"><stop offset="0" stop-color="#000000" stop-opacity="0"/><stop offset="1" stop-color="#000000" stop-opacity="0.57196"/></radialGradient><radialGradient cx="199.48821" cy="195.41012" r="4.5759" gradientUnits="userSpaceOnUse" id="color-31"><stop offset="0" stop-color="#000000" stop-opacity="0"/><stop offset="1" stop-color="#000000" stop-opacity="0.57196"/></radialGradient><radialGradient cx="193.23821" cy="193.16012" r="4.5759" gradientUnits="userSpaceOnUse" id="color-32"><stop offset="0" stop-color="#000000" stop-opacity="0"/><stop offset="1" stop-color="#000000" stop-opacity="0.57196"/></radialGradient></defs><g transform="translate(-180.6385,-116.64434)"><g data-paper-data="{&quot;isPaintingLayer&quot;:true}" stroke="none" stroke-width="1" stroke-linecap="butt" stroke-linejoin="miter" stroke-miterlimit="10" stroke-dasharray="" stroke-dashoffset="0" style="mix-blend-mode: normal"><path d="M234.9785,147.64934c-18.59,4.274 -21.95,17.799 -54.34,7.596c28.35,-5.659 34.51,-20.536 58.18,-12.683z" fill="#ffff00" fill-rule="evenodd"/><path d="M234.9785,147.64934c-18.59,4.274 -21.95,17.799 -54.34,7.596c28.35,-5.659 34.51,-20.536 58.18,-12.683z" fill="url(#color-1)" fill-rule="evenodd"/><path d="M292.1737,228.98252c0,4.72326 -22.99121,8.55442 -51.3264,8.55442c-28.33519,0 -51.3264,-3.83116 -51.3264,-8.55442c0,-4.72326 22.99121,-8.55442 51.3264,-8.55442c28.33519,0 51.3264,3.83116 51.3264,8.55442z" fill="url(#color-2)" fill-rule="nonzero"/><path d="M287.1885,185.49534c0,3.453 -0.38,26.775 -1.1,30.015c-1.76,8.88 -7.47,14 -16.05,15.94c-3.98,0.74 -8.51,-15.56 -13.43,-15.65c-4.92,-0.09 -10.23,16.03 -15.76,16.03c-5.56,0 -10.89,-16.13 -15.83,-16.05c-4.93,0.07 -9.48,16.35 -13.48,15.58c-9.04,-1.5 -13.77,-7.69 -15.99,-16.14c-0.68,-3.15 -1.04,-26.376 -1.04,-29.725c0,-25.577 20.76,-46.336 46.34,-46.336c25.58,0 46.34,20.759 46.34,46.336z" fill="#ffaaaa" fill-rule="nonzero"/><path d="M287.1885,185.49534c0,3.453 -0.38,26.775 -1.1,30.015c-1.76,8.88 -7.47,14 -16.05,15.94c-3.98,0.74 -8.51,-15.56 -13.43,-15.65c-4.92,-0.09 -10.23,16.03 -15.76,16.03c-5.56,0 -10.89,-16.13 -15.83,-16.05c-4.93,0.07 -9.48,16.35 -13.48,15.58c-9.04,-1.5 -13.77,-7.69 -15.99,-16.14c-0.68,-3.15 -1.04,-26.376 -1.04,-29.725c0,-25.577 20.76,-46.336 46.34,-46.336c25.58,0 46.34,20.759 46.34,46.336z" fill="url(#color-3)" fill-rule="nonzero"/><path d="M272.1785,167.29334c2.29,-3.28 2.94,-3.703 5.26,-6.033c-1.58,2.666 -2.3,4.18 -2.1,6.451c1.85,-3.525 4.72,-5.041 7.38,-6.975c-1.95,3.133 -4.84,5.064 -5.47,9.88c3.62,-2.879 4.56,-6.434 11.62,-8.106c-6.18,3.202 -7.62,7.93 -10.04,11.745z" fill="#000000" fill-rule="evenodd"/><g fill-rule="nonzero"><path d="M257.96286,177.30184c0,-6.10246 4.94702,-11.04949 11.04949,-11.04949c6.10246,0 11.04949,4.94702 11.04949,11.04949c0,6.10246 -4.94702,11.04949 -11.04949,11.04949c-6.10246,0 -11.04949,-4.94702 -11.04949,-11.04949z" fill="#ffffff"/><path d="M257.96286,177.30184c0,-6.10246 4.94702,-11.04949 11.04949,-11.04949c6.10246,0 11.04949,4.94702 11.04949,11.04949c0,6.10246 -4.94702,11.04949 -11.04949,11.04949c-6.10246,0 -11.04949,-4.94702 -11.04949,-11.04949z" fill="url(#color-4)"/><path d="M265.80414,178.01154c0,-3.7402 3.03203,-6.77223 6.77223,-6.77223c3.7402,0 6.77223,3.03203 6.77223,6.77223c0,3.7402 -3.03203,6.77223 -6.77223,6.77223c-3.7402,0 -6.77223,-3.03203 -6.77223,-6.77223z" fill="#000000"/></g><path d="M230.3585,179.21434c-3.89,-2.307 -7.3,-5.876 -14.27,-5.934c7.06,-1.704 9.5,1.043 14.03,1.974c-2.73,-4.012 -6.19,-4.426 -9.34,-6.34c3.25,0.523 6.49,0.576 9.74,2.883c-0.86,-2.113 -2.18,-3.139 -4.79,-4.804c3.11,1.032 3.89,1.112 7.42,3.002z" fill="#000000" fill-rule="evenodd"/><g fill-rule="nonzero"><path d="M229.44286,177.30184c0,-6.10246 4.94702,-11.04949 11.04949,-11.04949c6.10246,0 11.04949,4.94702 11.04949,11.04949c0,6.10246 -4.94702,11.04949 -11.04949,11.04949c-6.10246,0 -11.04949,-4.94702 -11.04949,-11.04949z" fill="#ffffff"/><path d="M229.44286,177.30184c0,-6.10246 4.94702,-11.04949 11.04949,-11.04949c6.10246,0 11.04949,4.94702 11.04949,11.04949c0,6.10246 -4.94702,11.04949 -11.04949,11.04949c-6.10246,0 -11.04949,-4.94702 -11.04949,-11.04949z" fill="url(#color-5)"/><path d="M237.28414,178.01154c0,-3.7402 3.03203,-6.77223 6.77223,-6.77223c3.7402,0 6.77223,3.03203 6.77223,6.77223c0,3.7402 -3.03203,6.77223 -6.77223,6.77223c-3.7402,0 -6.77223,-3.03203 -6.77223,-6.77223z" fill="#000000"/></g><path d="M220.53223,161.18387c-7.15009,7.32117 -14.54968,11.70533 -16.5172,9.78058c-1.97465,-1.92475 2.23128,-9.43127 9.37424,-16.75245c7.15009,-7.32117 14.54968,-11.6982 16.5172,-9.77345c1.97465,1.92475 -2.23128,9.42414 -9.37424,16.74532z" fill-opacity="0.62745" fill="#ffffff" fill-rule="nonzero"/><path d="M278.44712,223.27547c-3.38044,4.09601 -7.47813,6.30608 -9.14953,4.92668c-1.67139,-1.3794 -0.27871,-5.82192 3.10172,-9.91793c3.38044,-4.09601 7.47813,-6.30608 9.14953,-4.92667c1.67139,1.3794 0.27871,5.82191 -3.10172,9.91792z" fill-opacity="0.43439" fill="#ffffff" fill-rule="nonzero"/><path d="M249.6385,140.63834c6.25,-1.787 21.37,6.314 20.68,6.659c1.24,1.392 -12.01,18.758 -16.55,13.639c-2.12,-2.378 -10.22,-14.847 -10.22,-14.847c0.41,-2.731 1.07,-4.015 6.09,-5.451z" fill="#ffff00" fill-rule="evenodd"/><path d="M229.4475,146.70134c-1.382,-7.981 7.301,-7.729 2.85,-16.324l0.778,-8.2914l7.255,11.919l9.328,-10.883l-0.259,8.292c-2.469,7.921 1.802,5.997 2.072,15.287c-8.335,3.975 -14.991,2.53 -22.024,0z" fill="#ffa300" fill-rule="evenodd"/><path d="M229.4475,146.70134c-1.382,-7.981 7.301,-7.729 2.85,-16.324l0.778,-8.2914l7.255,11.919l9.328,-10.883l-0.259,8.292c-2.469,7.921 1.802,5.997 2.072,15.287c-8.335,3.975 -14.991,2.53 -22.024,0z" fill="url(#color-6)" fill-rule="evenodd"/><path d="M249.6385,140.63834c6.25,-1.787 21.37,6.314 20.68,6.659c1.24,1.392 -12.01,18.758 -16.55,13.639c-2.12,-2.378 -10.22,-14.847 -10.22,-14.847c0.41,-2.731 1.07,-4.015 6.09,-5.451z" fill="url(#color-7)" fill-rule="evenodd"/><path d="M244.0285,143.24734c4.59,2.475 7.07,19.445 7.07,19.445c0,1.863 -25.46,5.786 -25.46,-1.061c0,-3.182 5.66,-19.091 5.66,-19.091c2.12,-1.768 8.13,-1.768 12.73,0.707z" fill="#ffff00" fill-rule="evenodd"/><path d="M244.0285,143.24734c4.59,2.475 7.07,19.445 7.07,19.445c0,1.863 -25.46,5.786 -25.46,-1.061c0,-3.182 5.66,-19.091 5.66,-19.091c2.12,-1.768 8.13,-1.768 12.73,0.707z" fill="url(#color-8)" fill-rule="evenodd"/><path d="M230.2385,145.72234c-16.43,9.7 -15.54,23.608 -49.5,23.688c25.31,-13.976 25.97,-28.959 50.91,-28.638z" fill="#ffff00" fill-rule="evenodd"/><path d="M230.2385,145.72234c-16.43,9.7 -15.54,23.608 -49.5,23.688c25.31,-13.976 25.97,-28.959 50.91,-28.638z" fill="url(#color-9)" fill-rule="evenodd"/><path d="M229.5285,149.25734c-16.43,9.7 -11.29,29.618 -45.26,29.699c26.02,-18.926 23.51,-37.798 47.73,-36.063z" fill="#ffff00" fill-rule="evenodd"/><path d="M229.5285,149.25734c-16.43,9.7 -11.29,29.618 -45.26,29.699c26.02,-18.926 23.51,-37.798 47.73,-36.063z" fill="url(#color-10)" fill-rule="evenodd"/><path d="M229.4475,146.70134c-1.382,-7.981 0.046,-13.43 -4.405,-22.024l11.401,6.737l5.441,-14.77l5.96,14.251l7.773,-7.773c-2.468,7.921 -4.416,14.289 -4.146,23.579c-8.335,3.975 -14.991,2.53 -22.024,0z" fill="#ffc000" fill-rule="evenodd"/><path d="M229.4475,146.70134c-1.382,-7.981 0.046,-13.43 -4.405,-22.024l11.401,6.737l5.441,-14.77l5.96,14.251l7.773,-7.773c-2.468,7.921 -4.416,14.289 -4.146,23.579c-8.335,3.975 -14.991,2.53 -22.024,0z" fill="url(#color-11)" fill-rule="evenodd"/><g fill-rule="nonzero"><g><path d="M216.59135,149.68819c0,-2.65892 1.44936,-4.8144 3.23724,-4.8144c1.78788,0 3.23724,2.15548 3.23724,4.8144c0,2.65892 -1.44936,4.8144 -3.23724,4.8144c-1.78788,0 -3.23724,-2.15548 -3.23724,-4.8144z" fill="#0000ff"/><path d="M216.59135,149.68819c0,-2.65892 1.44936,-4.8144 3.23724,-4.8144c1.78788,0 3.23724,2.15548 3.23724,4.8144c0,2.65892 -1.44936,4.8144 -3.23724,4.8144c-1.78788,0 -3.23724,-2.15548 -3.23724,-4.8144z" fill="url(#color-12)"/></g><g><path d="M221.59135,146.31319c0,-2.65892 1.44936,-4.8144 3.23724,-4.8144c1.78788,0 3.23724,2.15548 3.23724,4.8144c0,2.65892 -1.44936,4.8144 -3.23724,4.8144c-1.78788,0 -3.23724,-2.15548 -3.23724,-4.8144z" fill="#0000ff"/><path d="M221.59135,146.31319c0,-2.65892 1.44936,-4.8144 3.23724,-4.8144c1.78788,0 3.23724,2.15548 3.23724,4.8144c0,2.65892 -1.44936,4.8144 -3.23724,4.8144c-1.78788,0 -3.23724,-2.15548 -3.23724,-4.8144z" fill="url(#color-13)"/></g><g><path d="M224.34135,150.43819c0,-2.65892 1.44936,-4.8144 3.23724,-4.8144c1.78788,0 3.23724,2.15548 3.23724,4.8144c0,2.65892 -1.44936,4.8144 -3.23724,4.8144c-1.78788,0 -3.23724,-2.15548 -3.23724,-4.8144z" fill="#0000ff"/><path d="M224.34135,150.43819c0,-2.65892 1.44936,-4.8144 3.23724,-4.8144c1.78788,0 3.23724,2.15548 3.23724,4.8144c0,2.65892 -1.44936,4.8144 -3.23724,4.8144c-1.78788,0 -3.23724,-2.15548 -3.23724,-4.8144z" fill="url(#color-14)"/></g><g><path d="M218.46635,156.43819c0,-2.65892 1.44936,-4.8144 3.23724,-4.8144c1.78788,0 3.23724,2.15548 3.23724,4.8144c0,2.65892 -1.44936,4.8144 -3.23724,4.8144c-1.78788,0 -3.23724,-2.15548 -3.23724,-4.8144z" fill="#0000ff"/><path d="M218.46635,156.43819c0,-2.65892 1.44936,-4.8144 3.23724,-4.8144c1.78788,0 3.23724,2.15548 3.23724,4.8144c0,2.65892 -1.44936,4.8144 -3.23724,4.8144c-1.78788,0 -3.23724,-2.15548 -3.23724,-4.8144z" fill="url(#color-15)"/></g><g><path d="M222.96635,155.93819c0,-2.65892 1.44936,-4.8144 3.23724,-4.8144c1.78788,0 3.23724,2.15548 3.23724,4.8144c0,2.65892 -1.44936,4.8144 -3.23724,4.8144c-1.78788,0 -3.23724,-2.15548 -3.23724,-4.8144z" fill="#0000ff"/><path d="M222.96635,155.93819c0,-2.65892 1.44936,-4.8144 3.23724,-4.8144c1.78788,0 3.23724,2.15548 3.23724,4.8144c0,2.65892 -1.44936,4.8144 -3.23724,4.8144c-1.78788,0 -3.23724,-2.15548 -3.23724,-4.8144z" fill="url(#color-16)"/></g><path d="M221.4044,152.28755c0,-1.77259 0.96624,-3.20956 2.15816,-3.20956c1.19192,0 2.15816,1.43697 2.15816,3.20956c0,1.77259 -0.96624,3.20956 -2.15816,3.20956c-1.19192,0 -2.15816,-1.43697 -2.15816,-3.20956z" fill="#ffff00"/><path d="M221.4044,152.28755c0,-1.77259 0.96624,-3.20956 2.15816,-3.20956c1.19192,0 2.15816,1.43697 2.15816,3.20956c0,1.77259 -0.96624,3.20956 -2.15816,3.20956c-1.19192,0 -2.15816,-1.43697 -2.15816,-3.20956z" fill="url(#color-17)"/></g><path d="M231.63887,137.37554c0.32083,2.66374 0.10969,4.8829 -0.4721,4.95297c-0.5808,0.06995 -1.31383,-2.03549 -1.63466,-4.69922c-0.32095,-2.66473 -0.10882,-4.88401 0.47198,-4.95397c0.58179,-0.07007 1.31383,2.03549 1.63478,4.70022z" fill-opacity="0.71321" fill="#ffffff" fill-rule="nonzero"/><g fill-rule="nonzero"><path d="M258.19526,207.92109c0,-1.61509 1.30929,-2.92438 2.92438,-2.92438c1.61509,0 2.92439,1.30929 2.92439,2.92438c0,1.61509 -1.30929,2.92439 -2.92439,2.92439c-1.61509,0 -2.92438,-1.30929 -2.92438,-2.92439z" fill="#ffffff"/><path d="M258.19526,207.92109c0,-1.61509 1.30929,-2.92438 2.92438,-2.92438c1.61509,0 2.92439,1.30929 2.92439,2.92438c0,1.61509 -1.30929,2.92439 -2.92439,2.92439c-1.61509,0 -2.92438,-1.30929 -2.92438,-2.92439z" fill="url(#color-18)"/></g><g fill-rule="nonzero"><path d="M263.69526,202.67109c0,-1.61509 1.30929,-2.92438 2.92438,-2.92438c1.61509,0 2.92439,1.30929 2.92439,2.92438c0,1.61509 -1.30929,2.92439 -2.92439,2.92439c-1.61509,0 -2.92438,-1.30929 -2.92438,-2.92439z" fill="#ffffff"/><path d="M263.69526,202.67109c0,-1.61509 1.30929,-2.92438 2.92438,-2.92438c1.61509,0 2.92439,1.30929 2.92439,2.92438c0,1.61509 -1.30929,2.92439 -2.92439,2.92439c-1.61509,0 -2.92438,-1.30929 -2.92438,-2.92439z" fill="url(#color-19)"/></g><g fill-rule="nonzero"><path d="M268.94526,197.42109c0,-1.61509 1.30929,-2.92438 2.92438,-2.92438c1.61509,0 2.92439,1.30929 2.92439,2.92438c0,1.61509 -1.30929,2.92439 -2.92439,2.92439c-1.61509,0 -2.92438,-1.30929 -2.92438,-2.92439z" fill="#ffffff"/><path d="M268.94526,197.42109c0,-1.61509 1.30929,-2.92438 2.92438,-2.92438c1.61509,0 2.92439,1.30929 2.92439,2.92438c0,1.61509 -1.30929,2.92439 -2.92439,2.92439c-1.61509,0 -2.92438,-1.30929 -2.92438,-2.92439z" fill="url(#color-20)"/></g><g fill-rule="nonzero"><path d="M251.44526,204.17109c0,-1.61509 1.30929,-2.92438 2.92439,-2.92438c1.61509,0 2.92439,1.30929 2.92439,2.92438c0,1.61509 -1.30929,2.92439 -2.92439,2.92439c-1.61509,0 -2.92439,-1.30929 -2.92439,-2.92439z" fill="#ffffff"/><path d="M251.44526,204.17109c0,-1.61509 1.30929,-2.92438 2.92439,-2.92438c1.61509,0 2.92439,1.30929 2.92439,2.92438c0,1.61509 -1.30929,2.92439 -2.92439,2.92439c-1.61509,0 -2.92439,-1.30929 -2.92439,-2.92439z" fill="url(#color-21)"/></g><g fill-rule="nonzero"><path d="M245.19526,200.67109c0,-1.61509 1.30929,-2.92438 2.92439,-2.92438c1.61509,0 2.92439,1.30929 2.92439,2.92438c0,1.61509 -1.30929,2.92439 -2.92439,2.92439c-1.61509,0 -2.92439,-1.30929 -2.92439,-2.92439z" fill="#ffffff"/><path d="M245.19526,200.67109c0,-1.61509 1.30929,-2.92438 2.92439,-2.92438c1.61509,0 2.92439,1.30929 2.92439,2.92438c0,1.61509 -1.30929,2.92439 -2.92439,2.92439c-1.61509,0 -2.92439,-1.30929 -2.92439,-2.92439z" fill="url(#color-22)"/></g><g fill-rule="nonzero"><path d="M275.19526,195.17109c0,-1.61509 1.30929,-2.92438 2.92438,-2.92438c1.61509,0 2.92439,1.30929 2.92439,2.92438c0,1.61509 -1.30929,2.92439 -2.92439,2.92439c-1.61509,0 -2.92438,-1.30929 -2.92438,-2.92439z" fill="#ffffff"/><path d="M275.19526,195.17109c0,-1.61509 1.30929,-2.92438 2.92438,-2.92438c1.61509,0 2.92439,1.30929 2.92439,2.92438c0,1.61509 -1.30929,2.92439 -2.92439,2.92439c-1.61509,0 -2.92438,-1.30929 -2.92438,-2.92439z" fill="url(#color-23)"/></g><g fill-rule="nonzero"><path d="M281.69526,194.17109c0,-1.61509 1.30929,-2.92438 2.92438,-2.92438c1.61509,0 2.92439,1.30929 2.92439,2.92438c0,1.61509 -1.30929,2.92439 -2.92439,2.92439c-1.61509,0 -2.92438,-1.30929 -2.92438,-2.92439z" fill="#ffffff"/><path d="M281.69526,194.17109c0,-1.61509 1.30929,-2.92438 2.92438,-2.92438c1.61509,0 2.92439,1.30929 2.92439,2.92438c0,1.61509 -1.30929,2.92439 -2.92439,2.92439c-1.61509,0 -2.92438,-1.30929 -2.92438,-2.92439z" fill="url(#color-24)"/></g><g fill-rule="nonzero"><path d="M238.44526,198.92109c0,-1.61509 1.30929,-2.92438 2.92439,-2.92438c1.61509,0 2.92439,1.30929 2.92439,2.92438c0,1.61509 -1.30929,2.92439 -2.92439,2.92439c-1.61509,0 -2.92439,-1.30929 -2.92439,-2.92439z" fill="#ffffff"/><path d="M238.44526,198.92109c0,-1.61509 1.30929,-2.92438 2.92439,-2.92438c1.61509,0 2.92439,1.30929 2.92439,2.92438c0,1.61509 -1.30929,2.92439 -2.92439,2.92439c-1.61509,0 -2.92439,-1.30929 -2.92439,-2.92439z" fill="url(#color-25)"/></g><g fill-rule="nonzero"><path d="M231.69526,199.17109c0,-1.61509 1.30929,-2.92438 2.92439,-2.92438c1.61509,0 2.92439,1.30929 2.92439,2.92438c0,1.61509 -1.30929,2.92439 -2.92439,2.92439c-1.61509,0 -2.92439,-1.30929 -2.92439,-2.92439z" fill="#ffffff"/><path d="M231.69526,199.17109c0,-1.61509 1.30929,-2.92438 2.92439,-2.92438c1.61509,0 2.92439,1.30929 2.92439,2.92438c0,1.61509 -1.30929,2.92439 -2.92439,2.92439c-1.61509,0 -2.92439,-1.30929 -2.92439,-2.92439z" fill="url(#color-26)"/></g><g fill-rule="nonzero"><path d="M224.94526,199.67109c0,-1.61509 1.30929,-2.92438 2.92439,-2.92438c1.61509,0 2.92439,1.30929 2.92439,2.92438c0,1.61509 -1.30929,2.92439 -2.92439,2.92439c-1.61509,0 -2.92439,-1.30929 -2.92439,-2.92439z" fill="#ffffff"/><path d="M224.94526,199.67109c0,-1.61509 1.30929,-2.92438 2.92439,-2.92438c1.61509,0 2.92439,1.30929 2.92439,2.92438c0,1.61509 -1.30929,2.92439 -2.92439,2.92439c-1.61509,0 -2.92439,-1.30929 -2.92439,-2.92439z" fill="url(#color-27)"/></g><g fill-rule="nonzero"><path d="M218.19526,200.17109c0,-1.61509 1.30929,-2.92438 2.92439,-2.92438c1.61509,0 2.92439,1.30929 2.92439,2.92438c0,1.61509 -1.30929,2.92439 -2.92439,2.92439c-1.61509,0 -2.92439,-1.30929 -2.92439,-2.92439z" fill="#ffffff"/><path d="M218.19526,200.17109c0,-1.61509 1.30929,-2.92438 2.92439,-2.92438c1.61509,0 2.92439,1.30929 2.92439,2.92438c0,1.61509 -1.30929,2.92439 -2.92439,2.92439c-1.61509,0 -2.92439,-1.30929 -2.92439,-2.92439z" fill="url(#color-28)"/></g><g fill-rule="nonzero"><path d="M211.19526,199.17109c0,-1.61509 1.30929,-2.92438 2.92439,-2.92438c1.61509,0 2.92439,1.30929 2.92439,2.92438c0,1.61509 -1.30929,2.92439 -2.92439,2.92439c-1.61509,0 -2.92439,-1.30929 -2.92439,-2.92439z" fill="#ffffff"/><path d="M211.19526,199.17109c0,-1.61509 1.30929,-2.92438 2.92439,-2.92438c1.61509,0 2.92439,1.30929 2.92439,2.92438c0,1.61509 -1.30929,2.92439 -2.92439,2.92439c-1.61509,0 -2.92439,-1.30929 -2.92439,-2.92439z" fill="url(#color-29)"/></g><g fill-rule="nonzero"><path d="M204.19526,197.92109c0,-1.61509 1.30929,-2.92438 2.92439,-2.92438c1.61509,0 2.92439,1.30929 2.92439,2.92438c0,1.61509 -1.30929,2.92439 -2.92439,2.92439c-1.61509,0 -2.92439,-1.30929 -2.92439,-2.92439z" fill="#ffffff"/><path d="M204.19526,197.92109c0,-1.61509 1.30929,-2.92438 2.92439,-2.92438c1.61509,0 2.92439,1.30929 2.92439,2.92438c0,1.61509 -1.30929,2.92439 -2.92439,2.92439c-1.61509,0 -2.92439,-1.30929 -2.92439,-2.92439z" fill="url(#color-30)"/></g><g fill-rule="nonzero"><path d="M197.69526,196.92109c0,-1.61509 1.30929,-2.92438 2.92439,-2.92438c1.61509,0 2.92439,1.30929 2.92439,2.92438c0,1.61509 -1.30929,2.92439 -2.92439,2.92439c-1.61509,0 -2.92439,-1.30929 -2.92439,-2.92439z" fill="#ffffff"/><path d="M197.69526,196.92109c0,-1.61509 1.30929,-2.92438 2.92439,-2.92438c1.61509,0 2.92439,1.30929 2.92439,2.92438c0,1.61509 -1.30929,2.92439 -2.92439,2.92439c-1.61509,0 -2.92439,-1.30929 -2.92439,-2.92439z" fill="url(#color-31)"/></g><g fill-rule="nonzero"><path d="M191.44526,194.67109c0,-1.61509 1.30929,-2.92438 2.92439,-2.92438c1.61509,0 2.92439,1.30929 2.92439,2.92438c0,1.61509 -1.30929,2.92439 -2.92439,2.92439c-1.61509,0 -2.92439,-1.30929 -2.92439,-2.92439z" fill="#ffffff"/><path d="M191.44526,194.67109c0,-1.61509 1.30929,-2.92438 2.92439,-2.92438c1.61509,0 2.92439,1.30929 2.92439,2.92438c0,1.61509 -1.30929,2.92439 -2.92439,2.92439c-1.61509,0 -2.92439,-1.30929 -2.92439,-2.92439z" fill="url(#color-32)"/></g></g></g></svg>