<?xml version="1.0" encoding="UTF-8" standalone="no"?>
<!-- Created with Inkscape (http://www.inkscape.org/) -->

<svg
   id="svg2"
   sodipodi:docname="nicubunu_Game_baddie_Princess.svg"
   inkscape:export-filename="/home/nicu/Desktop/pacman/pacman.png"
   viewBox="0 0 118.72301 126.71132"
   sodipodi:version="0.32"
   inkscape:export-xdpi="90"
   version="1.0"
   inkscape:output_extension="org.inkscape.output.svg.inkscape"
   inkscape:export-ydpi="90"
   inkscape:version="1.2.2 (732a01da63, 2022-12-09)"
   width="118.72301"
   height="126.71132"
   xmlns:inkscape="http://www.inkscape.org/namespaces/inkscape"
   xmlns:sodipodi="http://sodipodi.sourceforge.net/DTD/sodipodi-0.dtd"
   xmlns:xlink="http://www.w3.org/1999/xlink"
   xmlns="http://www.w3.org/2000/svg"
   xmlns:svg="http://www.w3.org/2000/svg"
   xmlns:rdf="http://www.w3.org/1999/02/22-rdf-syntax-ns#"
   xmlns:cc="http://creativecommons.org/ns#"
   xmlns:dc="http://purl.org/dc/elements/1.1/">
  <defs
     id="defs4">
    <linearGradient
       id="linearGradient2315">
      <stop
         id="stop2317"
         style="stop-color:#000000;stop-opacity:0"
         offset="0" />
      <stop
         id="stop2319"
         style="stop-color:#000000;stop-opacity:.57196"
         offset="1" />
    </linearGradient>
    <filter
       id="filter3730"
       height="1.6816748"
       width="1.6960537"
       y="-0.34083741"
       x="-0.34802687"
       inkscape:collect="always">
      <feGaussianBlur
         id="feGaussianBlur3732"
         stdDeviation="5.4650567"
         inkscape:collect="always" />
    </filter>
    <filter
       id="filter4065"
       height="1.7379839"
       width="2.811415"
       y="-0.36899194"
       x="-0.90570748"
       inkscape:collect="always">
      <feGaussianBlur
         id="feGaussianBlur4067"
         stdDeviation="4.1511594"
         inkscape:collect="always" />
    </filter>
    <filter
       id="filter4112"
       height="1.6802"
       width="1.1400412"
       y="-0.34009998"
       x="-0.070020583"
       inkscape:collect="always">
      <feGaussianBlur
         id="feGaussianBlur4114"
         stdDeviation="3.9678331"
         inkscape:collect="always" />
    </filter>
    <filter
       id="filter3480"
       height="1.2955102"
       width="2.3540272"
       y="-0.14775511"
       x="-0.67701362"
       inkscape:collect="always">
      <feGaussianBlur
         id="feGaussianBlur3482"
         stdDeviation="0.59859285"
         inkscape:collect="always" />
    </filter>
    <radialGradient
       id="radialGradient3709"
       xlink:href="#linearGradient2315"
       gradientUnits="userSpaceOnUse"
       cy="55.568001"
       cx="248.98"
       gradientTransform="matrix(1.5955,-0.40557,0.10103,0.39746,-153.87,129.21)"
       r="29.093"
       inkscape:collect="always" />
    <radialGradient
       id="radialGradient3711"
       gradientUnits="userSpaceOnUse"
       cy="506.35001"
       cx="210.89"
       gradientTransform="matrix(1.4028,1.6439e-6,-1.4521e-7,0.20588,-89.845,403.11)"
       r="68"
       inkscape:collect="always">
      <stop
         id="stop4074"
         style="stop-color:#000000"
         offset="0" />
      <stop
         id="stop4076"
         style="stop-color:#000000;stop-opacity:0"
         offset="1" />
    </radialGradient>
    <radialGradient
       id="radialGradient3713"
       xlink:href="#linearGradient2315"
       gradientUnits="userSpaceOnUse"
       cy="497.95999"
       cx="216.99001"
       gradientTransform="matrix(0.51027,1.0072,-0.96511,0.48897,650.89,-406.14)"
       r="65"
       inkscape:collect="always" />
    <radialGradient
       id="radialGradient3715"
       xlink:href="#linearGradient2315"
       gradientUnits="userSpaceOnUse"
       cy="409.85999"
       cx="233.5"
       gradientTransform="matrix(0.3871,1.5161,-1.4234,0.36342,726.51,-93.107)"
       r="15.5"
       inkscape:collect="always" />
    <radialGradient
       id="radialGradient3719"
       xlink:href="#linearGradient2315"
       gradientUnits="userSpaceOnUse"
       cy="19.759001"
       cx="59.908001"
       gradientTransform="matrix(1,0,0,1.2214,0,-4.8907)"
       r="11.088"
       inkscape:collect="always" />
    <radialGradient
       id="radialGradient3721"
       xlink:href="#linearGradient2315"
       gradientUnits="userSpaceOnUse"
       cy="46.612"
       cx="308.73999"
       gradientTransform="matrix(1.4274,0.4114,-0.28966,1.005,-118.94,-127)"
       r="13.427"
       inkscape:collect="always" />
    <radialGradient
       id="radialGradient3723"
       xlink:href="#linearGradient2315"
       gradientUnits="userSpaceOnUse"
       cy="46.026001"
       cx="289.64001"
       gradientTransform="matrix(1.6103,-0.088517,0.087354,1.5892,-180.79,-1.2085)"
       r="12.728"
       inkscape:collect="always" />
    <radialGradient
       id="radialGradient3725"
       xlink:href="#linearGradient2315"
       gradientUnits="userSpaceOnUse"
       cy="62.165001"
       cx="251.10001"
       gradientTransform="matrix(2.0262,-0.59764,0.21057,0.71391,-270.42,163.57)"
       r="25.455999"
       inkscape:collect="always" />
    <radialGradient
       id="radialGradient3727"
       xlink:href="#linearGradient2315"
       gradientUnits="userSpaceOnUse"
       cy="55.505001"
       cx="23.865"
       gradientTransform="matrix(2.2415,-1.4398,0.65861,1.0253,167.59,42.175)"
       r="23.865"
       inkscape:collect="always" />
    <radialGradient
       id="radialGradient3729"
       xlink:href="#linearGradient2315"
       gradientUnits="userSpaceOnUse"
       cy="18.153999"
       cx="56.227001"
       gradientTransform="matrix(1.7975,-0.037084,0.040115,1.9444,-45.569,-15.137)"
       r="15.287"
       inkscape:collect="always" />
    <radialGradient
       id="radialGradient3731"
       xlink:href="#linearGradient2315"
       gradientUnits="userSpaceOnUse"
       cy="68.238998"
       cx="29.808001"
       gradientTransform="matrix(1.4632,-0.025026,0.038613,2.7488,-16.441,-119.16)"
       r="2.4375"
       inkscape:collect="always" />
    <radialGradient
       id="radialGradient3741"
       xlink:href="#linearGradient2315"
       gradientUnits="userSpaceOnUse"
       cy="68.271004"
       cx="29.948999"
       gradientTransform="matrix(1.3997,0.2377,-0.40544,2.9069,15.71,-137.85)"
       r="2.4375"
       inkscape:collect="always" />
    <radialGradient
       inkscape:collect="always"
       xlink:href="#linearGradient2315"
       id="radialGradient1521"
       gradientUnits="userSpaceOnUse"
       gradientTransform="matrix(0.3871,1.5161,-1.4234,0.36342,726.51,-93.107)"
       cx="233.5"
       cy="409.85999"
       r="15.5" />
    <radialGradient
       inkscape:collect="always"
       xlink:href="#linearGradient2315"
       id="radialGradient1523"
       gradientUnits="userSpaceOnUse"
       gradientTransform="matrix(0.3871,1.5161,-1.4234,0.36342,726.51,-93.107)"
       cx="233.5"
       cy="409.85999"
       r="15.5" />
    <radialGradient
       inkscape:collect="always"
       xlink:href="#linearGradient2315"
       id="radialGradient1525"
       gradientUnits="userSpaceOnUse"
       gradientTransform="matrix(1.4632,-0.025026,0.038613,2.7488,-16.441,-119.16)"
       cx="29.808001"
       cy="68.238998"
       r="2.4375" />
    <radialGradient
       inkscape:collect="always"
       xlink:href="#linearGradient2315"
       id="radialGradient1527"
       gradientUnits="userSpaceOnUse"
       gradientTransform="matrix(1.4632,-0.025026,0.038613,2.7488,-16.441,-119.16)"
       cx="29.808001"
       cy="68.238998"
       r="2.4375" />
    <radialGradient
       inkscape:collect="always"
       xlink:href="#linearGradient2315"
       id="radialGradient1529"
       gradientUnits="userSpaceOnUse"
       gradientTransform="matrix(1.4632,-0.025026,0.038613,2.7488,-16.441,-119.16)"
       cx="29.808001"
       cy="68.238998"
       r="2.4375" />
    <radialGradient
       inkscape:collect="always"
       xlink:href="#linearGradient2315"
       id="radialGradient1531"
       gradientUnits="userSpaceOnUse"
       gradientTransform="matrix(1.4632,-0.025026,0.038613,2.7488,-16.441,-119.16)"
       cx="29.808001"
       cy="68.238998"
       r="2.4375" />
    <radialGradient
       inkscape:collect="always"
       xlink:href="#linearGradient2315"
       id="radialGradient1533"
       gradientUnits="userSpaceOnUse"
       gradientTransform="matrix(0.3871,1.5161,-1.4234,0.36342,726.51,-93.107)"
       cx="233.5"
       cy="409.85999"
       r="15.5" />
    <radialGradient
       inkscape:collect="always"
       xlink:href="#linearGradient2315"
       id="radialGradient1535"
       gradientUnits="userSpaceOnUse"
       gradientTransform="matrix(0.3871,1.5161,-1.4234,0.36342,726.51,-93.107)"
       cx="233.5"
       cy="409.85999"
       r="15.5" />
    <radialGradient
       inkscape:collect="always"
       xlink:href="#linearGradient2315"
       id="radialGradient1537"
       gradientUnits="userSpaceOnUse"
       gradientTransform="matrix(0.3871,1.5161,-1.4234,0.36342,726.51,-93.107)"
       cx="233.5"
       cy="409.85999"
       r="15.5" />
    <radialGradient
       inkscape:collect="always"
       xlink:href="#linearGradient2315"
       id="radialGradient1539"
       gradientUnits="userSpaceOnUse"
       gradientTransform="matrix(0.3871,1.5161,-1.4234,0.36342,726.51,-93.107)"
       cx="233.5"
       cy="409.85999"
       r="15.5" />
    <radialGradient
       inkscape:collect="always"
       xlink:href="#linearGradient2315"
       id="radialGradient1541"
       gradientUnits="userSpaceOnUse"
       gradientTransform="matrix(0.3871,1.5161,-1.4234,0.36342,726.51,-93.107)"
       cx="233.5"
       cy="409.85999"
       r="15.5" />
    <radialGradient
       inkscape:collect="always"
       xlink:href="#linearGradient2315"
       id="radialGradient1543"
       gradientUnits="userSpaceOnUse"
       gradientTransform="matrix(0.3871,1.5161,-1.4234,0.36342,726.51,-93.107)"
       cx="233.5"
       cy="409.85999"
       r="15.5" />
    <radialGradient
       inkscape:collect="always"
       xlink:href="#linearGradient2315"
       id="radialGradient1545"
       gradientUnits="userSpaceOnUse"
       gradientTransform="matrix(0.3871,1.5161,-1.4234,0.36342,726.51,-93.107)"
       cx="233.5"
       cy="409.85999"
       r="15.5" />
    <radialGradient
       inkscape:collect="always"
       xlink:href="#linearGradient2315"
       id="radialGradient1547"
       gradientUnits="userSpaceOnUse"
       gradientTransform="matrix(0.3871,1.5161,-1.4234,0.36342,726.51,-93.107)"
       cx="233.5"
       cy="409.85999"
       r="15.5" />
    <radialGradient
       inkscape:collect="always"
       xlink:href="#linearGradient2315"
       id="radialGradient1549"
       gradientUnits="userSpaceOnUse"
       gradientTransform="matrix(0.3871,1.5161,-1.4234,0.36342,726.51,-93.107)"
       cx="233.5"
       cy="409.85999"
       r="15.5" />
    <radialGradient
       inkscape:collect="always"
       xlink:href="#linearGradient2315"
       id="radialGradient1551"
       gradientUnits="userSpaceOnUse"
       gradientTransform="matrix(0.3871,1.5161,-1.4234,0.36342,726.51,-93.107)"
       cx="233.5"
       cy="409.85999"
       r="15.5" />
    <radialGradient
       inkscape:collect="always"
       xlink:href="#linearGradient2315"
       id="radialGradient1553"
       gradientUnits="userSpaceOnUse"
       gradientTransform="matrix(0.3871,1.5161,-1.4234,0.36342,726.51,-93.107)"
       cx="233.5"
       cy="409.85999"
       r="15.5" />
    <radialGradient
       inkscape:collect="always"
       xlink:href="#linearGradient2315"
       id="radialGradient1555"
       gradientUnits="userSpaceOnUse"
       gradientTransform="matrix(0.3871,1.5161,-1.4234,0.36342,726.51,-93.107)"
       cx="233.5"
       cy="409.85999"
       r="15.5" />
    <radialGradient
       inkscape:collect="always"
       xlink:href="#linearGradient2315"
       id="radialGradient1557"
       gradientUnits="userSpaceOnUse"
       gradientTransform="matrix(0.3871,1.5161,-1.4234,0.36342,726.51,-93.107)"
       cx="233.5"
       cy="409.85999"
       r="15.5" />
    <radialGradient
       inkscape:collect="always"
       xlink:href="#linearGradient2315"
       id="radialGradient1559"
       gradientUnits="userSpaceOnUse"
       gradientTransform="matrix(0.3871,1.5161,-1.4234,0.36342,726.51,-93.107)"
       cx="233.5"
       cy="409.85999"
       r="15.5" />
  </defs>
  <sodipodi:namedview
     id="base"
     inkscape:zoom="1"
     height="640px"
     borderopacity="1.0"
     inkscape:current-layer="g3484"
     inkscape:cx="260"
     inkscape:cy="61"
     showgrid="false"
     width="128px"
     inkscape:guide-bbox="true"
     showguides="true"
     bordercolor="#666666"
     inkscape:window-x="1912"
     guidetolerance="10"
     objecttolerance="10"
     inkscape:window-y="-8"
     inkscape:window-width="1920"
     inkscape:pageopacity="0.0"
     inkscape:pageshadow="2"
     pagecolor="#ffffff"
     gridtolerance="10000"
     inkscape:document-units="px"
     inkscape:window-height="1017"
     inkscape:showpageshadow="2"
     inkscape:pagecheckerboard="0"
     inkscape:deskcolor="#d1d1d1"
     inkscape:window-maximized="1">
    <inkscape:grid
       id="grid3194"
       originy="-3.109"
       originx="-8.2335002"
       spacingy="1"
       spacingx="1"
       type="xygrid" />
  </sodipodi:namedview>
  <g
     id="layer1"
     inkscape:label="Layer 1"
     inkscape:groupmode="layer"
     transform="translate(-241.6535,-14.844)">
    <g
       id="g3614"
       transform="translate(4.4435)">
      <path
         id="path3236"
         sodipodi:nodetypes="cccc"
         style="fill:#ffff00;fill-rule:evenodd"
         d="m 291.55,45.849 c -18.59,4.274 -21.95,17.799 -54.34,7.596 28.35,-5.659 34.51,-20.536 58.18,-12.683 z" />
      <path
         id="path3242"
         sodipodi:nodetypes="cccc"
         style="fill:url(#radialGradient3709);fill-rule:evenodd"
         d="m 291.55,45.849 c -18.59,4.274 -21.95,17.799 -54.34,7.596 28.35,-5.659 34.51,-20.536 58.18,-12.683 z" />
      <path
         id="path4069"
         style="fill:url(#radialGradient3711);filter:url(#filter4112)"
         transform="matrix(0.7548,0,0,0.61103,141.93,-182.83)"
         d="m 274,507.36 c 0,7.73 -30.46,14 -68,14 -37.54,0 -68,-6.27 -68,-14 0,-7.73 30.46,-14 68,-14 37.54,0 68,6.27 68,14 z" />
      <path
         id="path2327"
         sodipodi:nodetypes="cccsssccssc"
         style="fill:#ffaaaa"
         d="m 343.76,83.695 c 0,3.453 -0.38,26.775 -1.1,30.015 -1.76,8.88 -7.47,14 -16.05,15.94 -3.98,0.74 -8.51,-15.56 -13.43,-15.65 -4.92,-0.09 -10.23,16.03 -15.76,16.03 -5.56,0 -10.89,-16.13 -15.83,-16.05 -4.93,0.07 -9.48,16.35 -13.48,15.58 -9.04,-1.5 -13.77,-7.69 -15.99,-16.14 -0.68,-3.15 -1.04,-26.376 -1.04,-29.725 0,-25.577 20.76,-46.336 46.34,-46.336 25.58,0 46.34,20.759 46.34,46.336 z" />
      <path
         id="path2340"
         sodipodi:nodetypes="cccsssccssc"
         style="fill:url(#radialGradient3713)"
         d="m 343.76,83.695 c 0,3.453 -0.38,26.775 -1.1,30.015 -1.76,8.88 -7.47,14 -16.05,15.94 -3.98,0.74 -8.51,-15.56 -13.43,-15.65 -4.92,-0.09 -10.23,16.03 -15.76,16.03 -5.56,0 -10.89,-16.13 -15.83,-16.05 -4.93,0.07 -9.48,16.35 -13.48,15.58 -9.04,-1.5 -13.77,-7.69 -15.99,-16.14 -0.68,-3.15 -1.04,-26.376 -1.04,-29.725 0,-25.577 20.76,-46.336 46.34,-46.336 25.58,0 46.34,20.759 46.34,46.336 z" />
      <path
         id="path3256"
         sodipodi:nodetypes="cccccccc"
         style="fill:#000000;fill-rule:evenodd"
         d="m 335.4,72.455 c 2.42,-3.815 3.86,-8.543 10.04,-11.745 -7.06,1.672 -8,5.227 -11.62,8.106 0.63,-4.816 3.52,-6.747 5.47,-9.88 -2.66,1.934 -5.53,3.45 -7.38,6.975 -0.2,-2.271 0.52,-3.785 2.1,-6.451 -2.32,2.33 -2.97,2.753 -5.26,6.033 z" />
      <g
         id="g2352"
         transform="matrix(0.71287,0,0,0.71287,152,-227.37)">
        <circle
           id="path2344"
           style="fill:#ffffff"
           transform="translate(4,7)"
           cx="239.5"
           cy="417.86218"
           r="15.5" />
        <circle
           id="path2346"
           style="fill:url(#radialGradient1521)"
           transform="translate(4,7)"
           cx="239.5"
           cy="417.86218"
           r="15.5" />
        <circle
           id="path2350"
           style="fill:#000000"
           transform="matrix(0.6129,0,0,0.6129,101.71,169.75)"
           cx="239.5"
           cy="417.86218"
           r="15.5" />
      </g>
      <path
         id="path3254"
         sodipodi:nodetypes="cccccccc"
         style="fill:#000000;fill-rule:evenodd"
         d="m 286.93,77.414 c -3.89,-2.307 -7.3,-5.876 -14.27,-5.934 7.06,-1.704 9.5,1.043 14.03,1.974 -2.73,-4.012 -6.19,-4.426 -9.34,-6.34 3.25,0.523 6.49,0.576 9.74,2.883 -0.86,-2.113 -2.18,-3.139 -4.79,-4.804 3.11,1.032 3.89,1.112 7.42,3.002 z" />
      <g
         id="g2357"
         transform="matrix(0.71287,0,0,0.71287,123.48,-227.37)">
        <circle
           id="path2359"
           style="fill:#ffffff"
           transform="translate(4,7)"
           cx="239.5"
           cy="417.86218"
           r="15.5" />
        <circle
           id="path2361"
           style="fill:url(#radialGradient1523)"
           transform="translate(4,7)"
           cx="239.5"
           cy="417.86218"
           r="15.5" />
        <circle
           id="path2363"
           style="fill:#000000"
           transform="matrix(0.6129,0,0,0.6129,101.71,169.75)"
           cx="239.5"
           cy="417.86218"
           r="15.5" />
      </g>
      <path
         id="path2371"
         d="m 180.01,413.25 c -10.03,10.27 -20.41,16.42 -23.17,13.72 -2.77,-2.7 3.13,-13.23 13.15,-23.5 10.03,-10.27 20.41,-16.41 23.17,-13.71 2.77,2.7 -3.13,13.22 -13.15,23.49 z"
         style="fill:#ffffff;fill-opacity:0.62745;filter:url(#filter3730)"
         transform="matrix(0.71287,0,0,0.71287,148.78,-235.21)" />
      <path
         id="path3734"
         style="fill:#ffffff;fill-opacity:0.43439;filter:url(#filter4065)"
         transform="matrix(0.5498,0.45375,-0.45375,0.5498,418.69,-273.33)"
         d="m 262,501.86 c 0,7.45 -2.46,13.5 -5.5,13.5 -3.04,0 -5.5,-6.05 -5.5,-13.5 0,-7.45 2.46,-13.5 5.5,-13.5 3.04,0 5.5,6.05 5.5,13.5 z" />
      <path
         id="path3220"
         sodipodi:nodetypes="cscsc"
         style="fill:#ffff00;fill-rule:evenodd"
         d="m 300.12,44.289 c 0,0 8.1,12.469 10.22,14.847 4.54,5.119 17.79,-12.247 16.55,-13.639 0.69,-0.345 -14.43,-8.446 -20.68,-6.659 -5.02,1.436 -5.68,2.72 -6.09,5.451 z" />
      <path
         id="path3204"
         sodipodi:nodetypes="cccccccc"
         style="fill:#ffa300;fill-rule:evenodd"
         transform="translate(233.42,11.735)"
         d="m 52.599,33.166 c -1.382,-7.981 7.301,-7.729 2.85,-16.324 l 0.778,-8.2914 7.255,11.919 9.328,-10.883 -0.259,8.292 c -2.469,7.921 1.802,5.997 2.072,15.287 -8.335,3.975 -14.991,2.53 -22.024,0 z" />
      <path
         id="path3210"
         d="m 52.599,33.166 c -1.382,-7.981 7.301,-7.729 2.85,-16.324 l 0.778,-8.2914 7.255,11.919 9.328,-10.883 -0.259,8.292 c -2.469,7.921 1.802,5.997 2.072,15.287 -8.335,3.975 -14.991,2.53 -22.024,0 z"
         sodipodi:nodetypes="cccccccc"
         style="fill:url(#radialGradient3719);fill-rule:evenodd"
         transform="translate(233.42,11.735)" />
      <path
         id="path3224"
         sodipodi:nodetypes="cscsc"
         style="fill:url(#radialGradient3721);fill-rule:evenodd"
         d="m 300.12,44.289 c 0,0 8.1,12.469 10.22,14.847 4.54,5.119 17.79,-12.247 16.55,-13.639 0.69,-0.345 -14.43,-8.446 -20.68,-6.659 -5.02,1.436 -5.68,2.72 -6.09,5.451 z" />
      <path
         id="path3214"
         sodipodi:nodetypes="cscsc"
         style="fill:#ffff00;fill-rule:evenodd"
         d="m 287.87,40.74 c 0,0 -5.66,15.909 -5.66,19.091 0,6.847 25.46,2.924 25.46,1.061 0,0 -2.48,-16.97 -7.07,-19.445 -4.6,-2.475 -10.61,-2.475 -12.73,-0.707 z" />
      <path
         id="path3216"
         sodipodi:nodetypes="cscsc"
         style="fill:url(#radialGradient3723);fill-rule:evenodd"
         d="m 287.87,40.74 c 0,0 -5.66,15.909 -5.66,19.091 0,6.847 25.46,2.924 25.46,1.061 0,0 -2.48,-16.97 -7.07,-19.445 -4.6,-2.475 -10.61,-2.475 -12.73,-0.707 z" />
      <path
         id="path3234"
         sodipodi:nodetypes="cccc"
         style="fill:#ffff00;fill-rule:evenodd"
         d="m 286.81,43.922 c -16.43,9.7 -15.54,23.608 -49.5,23.688 25.31,-13.976 25.97,-28.959 50.91,-28.638 z" />
      <path
         id="path3246"
         sodipodi:nodetypes="cccc"
         style="fill:url(#radialGradient3725);fill-rule:evenodd"
         d="m 286.81,43.922 c -16.43,9.7 -15.54,23.608 -49.5,23.688 25.31,-13.976 25.97,-28.959 50.91,-28.638 z" />
      <path
         id="path3228"
         sodipodi:nodetypes="cccc"
         style="fill:#ffff00;fill-rule:evenodd"
         d="m 286.1,47.457 c -16.43,9.7 -11.29,29.618 -45.26,29.699 26.02,-18.926 23.51,-37.798 47.73,-36.063 z" />
      <path
         id="path3250"
         sodipodi:nodetypes="cccc"
         style="fill:url(#radialGradient3727);fill-rule:evenodd"
         d="m 286.1,47.457 c -16.43,9.7 -11.29,29.618 -45.26,29.699 26.02,-18.926 23.51,-37.798 47.73,-36.063 z" />
      <path
         id="path2432"
         d="m 52.599,33.166 c -1.382,-7.981 0.046,-13.43 -4.405,-22.024 l 11.401,6.737 5.441,-14.77 5.96,14.251 7.773,-7.773 c -2.468,7.921 -4.416,14.289 -4.146,23.579 -8.335,3.975 -14.991,2.53 -22.024,0 z"
         sodipodi:nodetypes="cccccccc"
         style="fill:#ffc000;fill-rule:evenodd"
         transform="translate(233.42,11.735)" />
      <path
         id="path3206"
         sodipodi:nodetypes="cccccccc"
         style="fill:url(#radialGradient3729);fill-rule:evenodd"
         transform="translate(233.42,11.735)"
         d="m 52.599,33.166 c -1.382,-7.981 0.046,-13.43 -4.405,-22.024 l 11.401,6.737 5.441,-14.77 5.96,14.251 7.773,-7.773 c -2.468,7.921 -4.416,14.289 -4.146,23.579 -8.335,3.975 -14.991,2.53 -22.024,0 z" />
      <g
         id="g3330"
         transform="translate(13.992,-24.356)">
        <g
           id="g3294">
          <ellipse
             id="path3258"
             style="fill:#0000ff"
             transform="matrix(1.3281,0,0,1.2036,221.32,-10.955)"
             cx="30.9375"
             cy="69.125"
             rx="2.4375"
             ry="4" />
          <ellipse
             id="path3270"
             style="fill:url(#radialGradient1525)"
             transform="matrix(1.3281,0,0,1.2036,221.32,-10.955)"
             cx="30.9375"
             cy="69.125"
             rx="2.4375"
             ry="4" />
        </g>
        <g
           id="g3298"
           transform="translate(5,-3.375)">
          <ellipse
             id="path3300"
             style="fill:#0000ff"
             transform="matrix(1.3281,0,0,1.2036,221.32,-10.955)"
             cx="30.9375"
             cy="69.125"
             rx="2.4375"
             ry="4" />
          <ellipse
             id="path3302"
             style="fill:url(#radialGradient1527)"
             transform="matrix(1.3281,0,0,1.2036,221.32,-10.955)"
             cx="30.9375"
             cy="69.125"
             rx="2.4375"
             ry="4" />
        </g>
        <g
           id="g3306"
           transform="translate(7.75,0.75)">
          <ellipse
             id="path3308"
             style="fill:#0000ff"
             transform="matrix(1.3281,0,0,1.2036,221.32,-10.955)"
             cx="30.9375"
             cy="69.125"
             rx="2.4375"
             ry="4" />
          <ellipse
             id="path3310"
             style="fill:url(#radialGradient1529)"
             transform="matrix(1.3281,0,0,1.2036,221.32,-10.955)"
             cx="30.9375"
             cy="69.125"
             rx="2.4375"
             ry="4" />
        </g>
        <g
           id="g3314"
           transform="translate(1.875,6.75)">
          <ellipse
             id="path3316"
             style="fill:#0000ff"
             transform="matrix(1.3281,0,0,1.2036,221.32,-10.955)"
             cx="30.9375"
             cy="69.125"
             rx="2.4375"
             ry="4" />
          <ellipse
             id="path3318"
             style="fill:url(#radialGradient1531)"
             transform="matrix(1.3281,0,0,1.2036,221.32,-10.955)"
             cx="30.9375"
             cy="69.125"
             rx="2.4375"
             ry="4" />
        </g>
        <g
           id="g3322"
           transform="translate(6.375,6.25)">
          <ellipse
             id="path3324"
             style="fill:#0000ff"
             transform="matrix(1.3281,0,0,1.2036,221.32,-10.955)"
             cx="30.9375"
             cy="69.125"
             rx="2.4375"
             ry="4" />
          <ellipse
             id="path3326"
             style="fill:url(#radialGradient3731)"
             transform="matrix(1.3281,0,0,1.2036,221.32,-10.955)"
             cx="30.9375"
             cy="69.125"
             rx="2.4375"
             ry="4" />
        </g>
        <ellipse
           id="path3268"
           style="fill:#ffff00"
           transform="matrix(0.8854,0,0,0.80239,238.75,19.378)"
           cx="30.9375"
           cy="69.125"
           rx="2.4375"
           ry="4" />
        <ellipse
           id="path3280"
           style="fill:url(#radialGradient3741)"
           transform="matrix(0.8854,0,0,0.80239,238.75,19.378)"
           cx="30.9375"
           cy="69.125"
           rx="2.4375"
           ry="4" />
      </g>
      <path
         id="path3361"
         style="fill:#ffffff;fill-opacity:0.71321;filter:url(#filter3480)"
         transform="matrix(0.99282,-0.11958,0.11958,0.99282,230.81,17.28)"
         d="m 54.801,25.028 c 0,2.683 -0.475,4.861 -1.061,4.861 -0.585,0 -1.061,-2.178 -1.061,-4.861 0,-2.684 0.476,-4.862 1.061,-4.862 0.586,0 1.061,2.178 1.061,4.862 z" />
      <g
         id="g3484"
         transform="matrix(0.18867,0,0,0.18867,271.75,25.962)">
        <circle
           id="path3486"
           style="fill:#ffffff"
           transform="translate(4,7)"
           cx="239.5"
           cy="417.86218"
           r="15.5" />
        <circle
           id="path3488"
           style="fill:url(#radialGradient1533)"
           transform="translate(4,7)"
           cx="239.5"
           cy="417.86218"
           r="15.5" />
      </g>
      <g
         id="g3494"
         transform="matrix(0.18867,0,0,0.18867,277.25,20.712)">
        <circle
           id="path3496"
           style="fill:#ffffff"
           transform="translate(4,7)"
           cx="239.5"
           cy="417.86218"
           r="15.5" />
        <circle
           id="path3498"
           style="fill:url(#radialGradient1535)"
           transform="translate(4,7)"
           cx="239.5"
           cy="417.86218"
           r="15.5" />
      </g>
      <g
         id="g3502"
         transform="matrix(0.18867,0,0,0.18867,282.5,15.462)">
        <circle
           id="path3504"
           style="fill:#ffffff"
           transform="translate(4,7)"
           cx="239.5"
           cy="417.86218"
           r="15.5" />
        <circle
           id="path3506"
           style="fill:url(#radialGradient1537)"
           transform="translate(4,7)"
           cx="239.5"
           cy="417.86218"
           r="15.5" />
      </g>
      <g
         id="g3510"
         transform="matrix(0.18867,0,0,0.18867,265,22.212)">
        <circle
           id="path3512"
           style="fill:#ffffff"
           transform="translate(4,7)"
           cx="239.5"
           cy="417.86218"
           r="15.5" />
        <circle
           id="path3514"
           style="fill:url(#radialGradient1539)"
           transform="translate(4,7)"
           cx="239.5"
           cy="417.86218"
           r="15.5" />
      </g>
      <g
         id="g3518"
         transform="matrix(0.18867,0,0,0.18867,258.75,18.712)">
        <circle
           id="path3520"
           style="fill:#ffffff"
           transform="translate(4,7)"
           cx="239.5"
           cy="417.86218"
           r="15.5" />
        <circle
           id="path3522"
           style="fill:url(#radialGradient1541)"
           transform="translate(4,7)"
           cx="239.5"
           cy="417.86218"
           r="15.5" />
      </g>
      <g
         id="g3526"
         transform="matrix(0.18867,0,0,0.18867,288.75,13.212)">
        <circle
           id="path3528"
           style="fill:#ffffff"
           transform="translate(4,7)"
           cx="239.5"
           cy="417.86218"
           r="15.5" />
        <circle
           id="path3530"
           style="fill:url(#radialGradient1543)"
           transform="translate(4,7)"
           cx="239.5"
           cy="417.86218"
           r="15.5" />
      </g>
      <g
         id="g3534"
         transform="matrix(0.18867,0,0,0.18867,295.25,12.212)">
        <circle
           id="path3536"
           style="fill:#ffffff"
           transform="translate(4,7)"
           cx="239.5"
           cy="417.86218"
           r="15.5" />
        <circle
           id="path3538"
           style="fill:url(#radialGradient1545)"
           transform="translate(4,7)"
           cx="239.5"
           cy="417.86218"
           r="15.5" />
      </g>
      <g
         id="g3542"
         transform="matrix(0.18867,0,0,0.18867,252,16.962)">
        <circle
           id="path3544"
           style="fill:#ffffff"
           transform="translate(4,7)"
           cx="239.5"
           cy="417.86218"
           r="15.5" />
        <circle
           id="path3546"
           style="fill:url(#radialGradient1547)"
           transform="translate(4,7)"
           cx="239.5"
           cy="417.86218"
           r="15.5" />
      </g>
      <g
         id="g3550"
         transform="matrix(0.18867,0,0,0.18867,245.25,17.212)">
        <circle
           id="path3552"
           style="fill:#ffffff"
           transform="translate(4,7)"
           cx="239.5"
           cy="417.86218"
           r="15.5" />
        <circle
           id="path3554"
           style="fill:url(#radialGradient1549)"
           transform="translate(4,7)"
           cx="239.5"
           cy="417.86218"
           r="15.5" />
      </g>
      <g
         id="g3558"
         transform="matrix(0.18867,0,0,0.18867,238.5,17.712)">
        <circle
           id="path3560"
           style="fill:#ffffff"
           transform="translate(4,7)"
           cx="239.5"
           cy="417.86218"
           r="15.5" />
        <circle
           id="path3562"
           style="fill:url(#radialGradient1551)"
           transform="translate(4,7)"
           cx="239.5"
           cy="417.86218"
           r="15.5" />
      </g>
      <g
         id="g3566"
         transform="matrix(0.18867,0,0,0.18867,231.75,18.212)">
        <circle
           id="path3568"
           style="fill:#ffffff"
           transform="translate(4,7)"
           cx="239.5"
           cy="417.86218"
           r="15.5" />
        <circle
           id="path3570"
           style="fill:url(#radialGradient1553)"
           transform="translate(4,7)"
           cx="239.5"
           cy="417.86218"
           r="15.5" />
      </g>
      <g
         id="g3574"
         transform="matrix(0.18867,0,0,0.18867,224.75,17.212)">
        <circle
           id="path3576"
           style="fill:#ffffff"
           transform="translate(4,7)"
           cx="239.5"
           cy="417.86218"
           r="15.5" />
        <circle
           id="path3578"
           style="fill:url(#radialGradient1555)"
           transform="translate(4,7)"
           cx="239.5"
           cy="417.86218"
           r="15.5" />
      </g>
      <g
         id="g3582"
         transform="matrix(0.18867,0,0,0.18867,217.75,15.962)">
        <circle
           id="path3584"
           style="fill:#ffffff"
           transform="translate(4,7)"
           cx="239.5"
           cy="417.86218"
           r="15.5" />
        <circle
           id="path3586"
           style="fill:url(#radialGradient1557)"
           transform="translate(4,7)"
           cx="239.5"
           cy="417.86218"
           r="15.5" />
      </g>
      <g
         id="g3590"
         transform="matrix(0.18867,0,0,0.18867,211.25,14.962)">
        <circle
           id="path3592"
           style="fill:#ffffff"
           transform="translate(4,7)"
           cx="239.5"
           cy="417.86218"
           r="15.5" />
        <circle
           id="path3594"
           style="fill:url(#radialGradient1559)"
           transform="translate(4,7)"
           cx="239.5"
           cy="417.86218"
           r="15.5" />
      </g>
      <g
         id="g3598"
         transform="matrix(0.18867,0,0,0.18867,205,12.712)">
        <circle
           id="path3600"
           style="fill:#ffffff"
           transform="translate(4,7)"
           cx="239.5"
           cy="417.86218"
           r="15.5" />
        <circle
           id="path3602"
           style="fill:url(#radialGradient3715)"
           transform="translate(4,7)"
           cx="239.5"
           cy="417.86218"
           r="15.5" />
      </g>
    </g>
  </g>
  <metadata
     id="metadata622">
    <rdf:RDF>
      <cc:Work>
        <dc:format>image/svg+xml</dc:format>
        <dc:type
           rdf:resource="http://purl.org/dc/dcmitype/StillImage" />
        <cc:license
           rdf:resource="http://creativecommons.org/licenses/publicdomain/" />
        <dc:publisher>
          <cc:Agent
             rdf:about="http://openclipart.org/">
            <dc:title>Openclipart</dc:title>
          </cc:Agent>
        </dc:publisher>
        <dc:title>Game baddie: Princess</dc:title>
        <dc:date>2008-02-04T15:12:50</dc:date>
        <dc:description>Bad guy for arcade games, inspired from the classic Pac-Man: a princess</dc:description>
        <dc:source>https://openclipart.org/detail/12574/game-baddie:-princess-by-nicubunu</dc:source>
        <dc:creator>
          <cc:Agent>
            <dc:title>nicubunu</dc:title>
          </cc:Agent>
        </dc:creator>
        <dc:subject>
          <rdf:Bag>
            <rdf:li>arcade</rdf:li>
            <rdf:li>baddie</rdf:li>
            <rdf:li>fairy tale</rdf:li>
            <rdf:li>funny</rdf:li>
            <rdf:li>game</rdf:li>
            <rdf:li>princess</rdf:li>
          </rdf:Bag>
        </dc:subject>
      </cc:Work>
      <cc:License
         rdf:about="http://creativecommons.org/licenses/publicdomain/">
        <cc:permits
           rdf:resource="http://creativecommons.org/ns#Reproduction" />
        <cc:permits
           rdf:resource="http://creativecommons.org/ns#Distribution" />
        <cc:permits
           rdf:resource="http://creativecommons.org/ns#DerivativeWorks" />
      </cc:License>
    </rdf:RDF>
  </metadata>
</svg>
