<svg version="1.0" width="118.723" height="126.711" xmlns:xlink="http://www.w3.org/1999/xlink" xmlns="http://www.w3.org/2000/svg"><defs><radialGradient id="prefix__b" xlink:href="#prefix__a" gradientUnits="userSpaceOnUse" cy="55.568" cx="248.98" gradientTransform="matrix(1.5955 -.40557 .10103 .39746 -153.87 129.21)" r="29.093"/><radialGradient id="prefix__c" gradientUnits="userSpaceOnUse" cy="506.35" cx="210.89" gradientTransform="matrix(1.4028 0 0 .20588 -89.845 403.11)" r="68"><stop offset="0"/><stop offset="1" stop-opacity="0"/></radialGradient><radialGradient id="prefix__e" xlink:href="#prefix__a" gradientUnits="userSpaceOnUse" cy="497.96" cx="216.99" gradientTransform="matrix(.51027 1.0072 -.96511 .48897 650.89 -406.14)" r="65"/><radialGradient id="prefix__K" xlink:href="#prefix__a" gradientUnits="userSpaceOnUse" cy="409.86" cx="233.5" gradientTransform="matrix(.3871 1.5161 -1.4234 .36342 726.51 -93.107)" r="15.5"/><radialGradient id="prefix__j" xlink:href="#prefix__a" gradientUnits="userSpaceOnUse" cy="19.759" cx="59.908" gradientTransform="matrix(1 0 0 1.2214 0 -4.89)" r="11.088"/><radialGradient id="prefix__k" xlink:href="#prefix__a" gradientUnits="userSpaceOnUse" cy="46.612" cx="308.74" gradientTransform="matrix(1.4274 .4114 -.28966 1.005 -118.94 -127)" r="13.427"/><radialGradient id="prefix__l" xlink:href="#prefix__a" gradientUnits="userSpaceOnUse" cy="46.026" cx="289.64" gradientTransform="matrix(1.6103 -.08852 .08735 1.5892 -180.79 -1.208)" r="12.728"/><radialGradient id="prefix__m" xlink:href="#prefix__a" gradientUnits="userSpaceOnUse" cy="62.165" cx="251.1" gradientTransform="matrix(2.0262 -.59764 .21057 .71391 -270.42 163.57)" r="25.456"/><radialGradient id="prefix__n" xlink:href="#prefix__a" gradientUnits="userSpaceOnUse" cy="55.505" cx="23.865" gradientTransform="matrix(2.2415 -1.4398 .65861 1.0253 167.59 42.175)" r="23.865"/><radialGradient id="prefix__o" xlink:href="#prefix__a" gradientUnits="userSpaceOnUse" cy="18.154" cx="56.227" gradientTransform="matrix(1.7975 -.03708 .04011 1.9444 -45.569 -15.137)" r="15.287"/><radialGradient id="prefix__t" xlink:href="#prefix__a" gradientUnits="userSpaceOnUse" cy="68.239" cx="29.808" gradientTransform="matrix(1.4632 -.02503 .03861 2.7488 -16.441 -119.16)" r="2.438"/><radialGradient id="prefix__u" xlink:href="#prefix__a" gradientUnits="userSpaceOnUse" cy="68.271" cx="29.949" gradientTransform="matrix(1.3997 .2377 -.40544 2.9069 15.71 -137.85)" r="2.438"/><radialGradient xlink:href="#prefix__a" id="prefix__f" gradientUnits="userSpaceOnUse" gradientTransform="matrix(.3871 1.5161 -1.4234 .36342 726.51 -93.107)" cx="233.5" cy="409.86" r="15.5"/><radialGradient xlink:href="#prefix__a" id="prefix__g" gradientUnits="userSpaceOnUse" gradientTransform="matrix(.3871 1.5161 -1.4234 .36342 726.51 -93.107)" cx="233.5" cy="409.86" r="15.5"/><radialGradient xlink:href="#prefix__a" id="prefix__p" gradientUnits="userSpaceOnUse" gradientTransform="matrix(1.4632 -.02503 .03861 2.7488 -16.441 -119.16)" cx="29.808" cy="68.239" r="2.438"/><radialGradient xlink:href="#prefix__a" id="prefix__q" gradientUnits="userSpaceOnUse" gradientTransform="matrix(1.4632 -.02503 .03861 2.7488 -16.441 -119.16)" cx="29.808" cy="68.239" r="2.438"/><radialGradient xlink:href="#prefix__a" id="prefix__r" gradientUnits="userSpaceOnUse" gradientTransform="matrix(1.4632 -.02503 .03861 2.7488 -16.441 -119.16)" cx="29.808" cy="68.239" r="2.438"/><radialGradient xlink:href="#prefix__a" id="prefix__s" gradientUnits="userSpaceOnUse" gradientTransform="matrix(1.4632 -.02503 .03861 2.7488 -16.441 -119.16)" cx="29.808" cy="68.239" r="2.438"/><radialGradient xlink:href="#prefix__a" id="prefix__w" gradientUnits="userSpaceOnUse" gradientTransform="matrix(.3871 1.5161 -1.4234 .36342 726.51 -93.107)" cx="233.5" cy="409.86" r="15.5"/><radialGradient xlink:href="#prefix__a" id="prefix__x" gradientUnits="userSpaceOnUse" gradientTransform="matrix(.3871 1.5161 -1.4234 .36342 726.51 -93.107)" cx="233.5" cy="409.86" r="15.5"/><radialGradient xlink:href="#prefix__a" id="prefix__y" gradientUnits="userSpaceOnUse" gradientTransform="matrix(.3871 1.5161 -1.4234 .36342 726.51 -93.107)" cx="233.5" cy="409.86" r="15.5"/><radialGradient xlink:href="#prefix__a" id="prefix__z" gradientUnits="userSpaceOnUse" gradientTransform="matrix(.3871 1.5161 -1.4234 .36342 726.51 -93.107)" cx="233.5" cy="409.86" r="15.5"/><radialGradient xlink:href="#prefix__a" id="prefix__A" gradientUnits="userSpaceOnUse" gradientTransform="matrix(.3871 1.5161 -1.4234 .36342 726.51 -93.107)" cx="233.5" cy="409.86" r="15.5"/><radialGradient xlink:href="#prefix__a" id="prefix__B" gradientUnits="userSpaceOnUse" gradientTransform="matrix(.3871 1.5161 -1.4234 .36342 726.51 -93.107)" cx="233.5" cy="409.86" r="15.5"/><radialGradient xlink:href="#prefix__a" id="prefix__C" gradientUnits="userSpaceOnUse" gradientTransform="matrix(.3871 1.5161 -1.4234 .36342 726.51 -93.107)" cx="233.5" cy="409.86" r="15.5"/><radialGradient xlink:href="#prefix__a" id="prefix__D" gradientUnits="userSpaceOnUse" gradientTransform="matrix(.3871 1.5161 -1.4234 .36342 726.51 -93.107)" cx="233.5" cy="409.86" r="15.5"/><radialGradient xlink:href="#prefix__a" id="prefix__E" gradientUnits="userSpaceOnUse" gradientTransform="matrix(.3871 1.5161 -1.4234 .36342 726.51 -93.107)" cx="233.5" cy="409.86" r="15.5"/><radialGradient xlink:href="#prefix__a" id="prefix__F" gradientUnits="userSpaceOnUse" gradientTransform="matrix(.3871 1.5161 -1.4234 .36342 726.51 -93.107)" cx="233.5" cy="409.86" r="15.5"/><radialGradient xlink:href="#prefix__a" id="prefix__G" gradientUnits="userSpaceOnUse" gradientTransform="matrix(.3871 1.5161 -1.4234 .36342 726.51 -93.107)" cx="233.5" cy="409.86" r="15.5"/><radialGradient xlink:href="#prefix__a" id="prefix__H" gradientUnits="userSpaceOnUse" gradientTransform="matrix(.3871 1.5161 -1.4234 .36342 726.51 -93.107)" cx="233.5" cy="409.86" r="15.5"/><radialGradient xlink:href="#prefix__a" id="prefix__I" gradientUnits="userSpaceOnUse" gradientTransform="matrix(.3871 1.5161 -1.4234 .36342 726.51 -93.107)" cx="233.5" cy="409.86" r="15.5"/><radialGradient xlink:href="#prefix__a" id="prefix__J" gradientUnits="userSpaceOnUse" gradientTransform="matrix(.3871 1.5161 -1.4234 .36342 726.51 -93.107)" cx="233.5" cy="409.86" r="15.5"/><filter id="prefix__h" height="1.682" width="1.696" y="-.341" x="-.348"><feGaussianBlur stdDeviation="5.465"/></filter><filter id="prefix__i" height="1.738" width="2.811" y="-.369" x="-.906"><feGaussianBlur stdDeviation="4.151"/></filter><filter id="prefix__d" height="1.68" width="1.14" y="-.34" x="-.07"><feGaussianBlur stdDeviation="3.968"/></filter><filter id="prefix__v" height="1.296" width="2.354" y="-.148" x="-.677"><feGaussianBlur stdDeviation=".599"/></filter><linearGradient id="prefix__a"><stop offset="0" stop-opacity="0"/><stop offset="1" stop-opacity=".572"/></linearGradient></defs><path d="M54.34 31.005C35.75 35.279 32.39 48.804 0 38.601c28.35-5.659 34.51-20.536 58.18-12.683z" fill="#ff0" fill-rule="evenodd"/><path d="M291.55 45.849c-18.59 4.274-21.95 17.799-54.34 7.596 28.35-5.659 34.51-20.536 58.18-12.683z" fill="url(#prefix__b)" fill-rule="evenodd" transform="translate(-237.21 -14.844)"/><path transform="matrix(.7548 0 0 .61103 -95.28 -197.674)" d="M274 507.36c0 7.73-30.46 14-68 14s-68-6.27-68-14 30.46-14 68-14 68 6.27 68 14z" fill="url(#prefix__c)" filter="url(#prefix__d)"/><path d="M106.55 68.851c0 3.453-.38 26.775-1.1 30.015-1.76 8.88-7.47 14-16.05 15.94-3.98.74-8.51-15.56-13.43-15.65-4.92-.09-10.23 16.03-15.76 16.03-5.56 0-10.89-16.13-15.83-16.05-4.93.07-9.48 16.35-13.48 15.58-9.04-1.5-13.77-7.69-15.99-16.14-.68-3.15-1.04-26.376-1.04-29.725 0-25.577 20.76-46.336 46.34-46.336 25.58 0 46.34 20.759 46.34 46.336z" fill="#faa"/><path d="M343.76 83.695c0 3.453-.38 26.775-1.1 30.015-1.76 8.88-7.47 14-16.05 15.94-3.98.74-8.51-15.56-13.43-15.65-4.92-.09-10.23 16.03-15.76 16.03-5.56 0-10.89-16.13-15.83-16.05-4.93.07-9.48 16.35-13.48 15.58-9.04-1.5-13.77-7.69-15.99-16.14-.68-3.15-1.04-26.376-1.04-29.725 0-25.577 20.76-46.336 46.34-46.336 25.58 0 46.34 20.759 46.34 46.336z" fill="url(#prefix__e)" transform="translate(-237.21 -14.844)"/><path d="M98.19 57.611c2.42-3.815 3.86-8.543 10.04-11.745-7.06 1.672-8 5.227-11.62 8.106.63-4.816 3.52-6.747 5.47-9.88-2.66 1.934-5.53 3.45-7.38 6.975-.2-2.271.52-3.785 2.1-6.451-2.32 2.33-2.97 2.753-5.26 6.033z" fill-rule="evenodd"/><g transform="translate(-85.21 -242.214) scale(.71287)"><circle transform="translate(4 7)" cx="239.5" cy="417.862" r="15.5" fill="#fff"/><circle transform="translate(4 7)" cx="239.5" cy="417.862" r="15.5" fill="url(#prefix__f)"/><circle transform="translate(101.71 169.75) scale(.6129)" cx="239.5" cy="417.862" r="15.5"/></g><path d="M49.72 62.57c-3.89-2.307-7.3-5.876-14.27-5.934 7.06-1.704 9.5 1.043 14.03 1.974-2.73-4.012-6.19-4.426-9.34-6.34 3.25.523 6.49.576 9.74 2.883-.86-2.113-2.18-3.139-4.79-4.804 3.11 1.032 3.89 1.112 7.42 3.002z" fill-rule="evenodd"/><g transform="translate(-113.73 -242.214) scale(.71287)"><circle transform="translate(4 7)" cx="239.5" cy="417.862" r="15.5" fill="#fff"/><circle transform="translate(4 7)" cx="239.5" cy="417.862" r="15.5" fill="url(#prefix__g)"/><circle transform="translate(101.71 169.75) scale(.6129)" cx="239.5" cy="417.862" r="15.5"/></g><path d="M180.01 413.25c-10.03 10.27-20.41 16.42-23.17 13.72-2.77-2.7 3.13-13.23 13.15-23.5 10.03-10.27 20.41-16.41 23.17-13.71 2.77 2.7-3.13 13.22-13.15 23.49z" transform="translate(-88.43 -250.054) scale(.71287)" fill="#fff" fill-opacity=".627" filter="url(#prefix__h)"/><path transform="rotate(39.533 491.694 108.417) scale(.71286)" d="M262 501.86c0 7.45-2.46 13.5-5.5 13.5s-5.5-6.05-5.5-13.5 2.46-13.5 5.5-13.5 5.5 6.05 5.5 13.5z" fill="#fff" fill-opacity=".434" filter="url(#prefix__i)"/><path d="M62.91 29.445s8.1 12.469 10.22 14.847c4.54 5.119 17.79-12.247 16.55-13.639.69-.345-14.43-8.446-20.68-6.659-5.02 1.436-5.68 2.72-6.09 5.451z" fill="#ff0" fill-rule="evenodd"/><path d="M48.809 30.057c-1.382-7.981 7.301-7.729 2.85-16.324l.778-8.291 7.255 11.919L69.02 6.478l-.259 8.292c-2.469 7.92 1.802 5.997 2.072 15.287-8.335 3.975-14.991 2.53-22.024 0z" fill="#ffa300" fill-rule="evenodd"/><path d="M52.599 33.166c-1.382-7.981 7.301-7.729 2.85-16.324l.778-8.291 7.255 11.919L72.81 9.587l-.259 8.292c-2.469 7.92 1.802 5.997 2.072 15.287-8.335 3.975-14.991 2.53-22.024 0z" transform="translate(-3.79 -3.109)" fill="url(#prefix__j)" fill-rule="evenodd"/><path d="M300.12 44.289s8.1 12.469 10.22 14.847c4.54 5.119 17.79-12.247 16.55-13.639.69-.345-14.43-8.446-20.68-6.659-5.02 1.436-5.68 2.72-6.09 5.451z" fill="url(#prefix__k)" fill-rule="evenodd" transform="translate(-237.21 -14.844)"/><path d="M50.66 25.896S45 41.805 45 44.987c0 6.847 25.46 2.924 25.46 1.061 0 0-2.48-16.97-7.07-19.445-4.6-2.475-10.61-2.475-12.73-.707z" fill="#ff0" fill-rule="evenodd"/><path d="M287.87 40.74s-5.66 15.909-5.66 19.091c0 6.847 25.46 2.924 25.46 1.061 0 0-2.48-16.97-7.07-19.445-4.6-2.475-10.61-2.475-12.73-.707z" fill="url(#prefix__l)" fill-rule="evenodd" transform="translate(-237.21 -14.844)"/><path d="M49.6 29.078C33.17 38.778 34.06 52.686.1 52.766 25.41 38.79 26.07 23.807 51.01 24.128z" fill="#ff0" fill-rule="evenodd"/><path d="M286.81 43.922c-16.43 9.7-15.54 23.608-49.5 23.688 25.31-13.976 25.97-28.959 50.91-28.638z" fill="url(#prefix__m)" fill-rule="evenodd" transform="translate(-237.21 -14.844)"/><path d="M48.89 32.613c-16.43 9.7-11.29 29.618-45.26 29.699 26.02-18.926 23.51-37.798 47.73-36.063z" fill="#ff0" fill-rule="evenodd"/><path d="M286.1 47.457c-16.43 9.7-11.29 29.618-45.26 29.699 26.02-18.926 23.51-37.798 47.73-36.063z" fill="url(#prefix__n)" fill-rule="evenodd" transform="translate(-237.21 -14.844)"/><path d="M48.809 30.057c-1.382-7.981.046-13.43-4.405-22.024l11.401 6.737L61.246 0l5.96 14.251 7.773-7.773c-2.468 7.921-4.416 14.289-4.146 23.579-8.335 3.975-14.991 2.53-22.024 0z" fill="#ffc000" fill-rule="evenodd"/><path transform="translate(-3.79 -3.109)" d="M52.599 33.166c-1.382-7.981.046-13.43-4.405-22.024l11.401 6.737 5.441-14.77 5.96 14.251 7.773-7.773c-2.468 7.921-4.416 14.289-4.146 23.579-8.335 3.975-14.991 2.53-22.024 0z" fill="url(#prefix__o)" fill-rule="evenodd"/><g transform="translate(-223.218 -39.2)"><g transform="matrix(1.3281 0 0 1.2036 221.32 -10.955)"><ellipse cx="30.938" cy="69.125" rx="2.438" ry="4" fill="#00f"/><ellipse cx="30.938" cy="69.125" rx="2.438" ry="4" fill="url(#prefix__p)"/></g><g transform="matrix(1.3281 0 0 1.2036 226.32 -14.33)"><ellipse cx="30.938" cy="69.125" rx="2.438" ry="4" fill="#00f"/><ellipse cx="30.938" cy="69.125" rx="2.438" ry="4" fill="url(#prefix__q)"/></g><g transform="matrix(1.3281 0 0 1.2036 229.07 -10.205)"><ellipse cx="30.938" cy="69.125" rx="2.438" ry="4" fill="#00f"/><ellipse cx="30.938" cy="69.125" rx="2.438" ry="4" fill="url(#prefix__r)"/></g><g transform="matrix(1.3281 0 0 1.2036 223.195 -4.205)"><ellipse cx="30.938" cy="69.125" rx="2.438" ry="4" fill="#00f"/><ellipse cx="30.938" cy="69.125" rx="2.438" ry="4" fill="url(#prefix__s)"/></g><g transform="matrix(1.3281 0 0 1.2036 227.695 -4.705)"><ellipse cx="30.938" cy="69.125" rx="2.438" ry="4" fill="#00f"/><ellipse cx="30.938" cy="69.125" rx="2.438" ry="4" fill="url(#prefix__t)"/></g><ellipse transform="matrix(.8854 0 0 .80239 238.75 19.378)" cx="30.938" cy="69.125" rx="2.438" ry="4" fill="#ff0"/><ellipse transform="matrix(.8854 0 0 .80239 238.75 19.378)" cx="30.938" cy="69.125" rx="2.438" ry="4" fill="url(#prefix__u)"/></g><path transform="rotate(-6.868 17.098 54.547)" d="M54.801 25.028c0 2.683-.475 4.861-1.061 4.861-.585 0-1.061-2.178-1.061-4.861 0-2.684.476-4.862 1.061-4.862.586 0 1.061 2.178 1.061 4.862z" fill="#fff" fill-opacity=".713" filter="url(#prefix__v)"/><g transform="translate(35.295 12.439) scale(.18867)"><circle cx="239.5" cy="417.862" r="15.5" fill="#fff"/><circle cx="239.5" cy="417.862" r="15.5" fill="url(#prefix__w)"/></g><g transform="translate(40.795 7.189) scale(.18867)"><circle cx="239.5" cy="417.862" r="15.5" fill="#fff"/><circle cx="239.5" cy="417.862" r="15.5" fill="url(#prefix__x)"/></g><g transform="translate(46.045 1.939) scale(.18867)"><circle cx="239.5" cy="417.862" r="15.5" fill="#fff"/><circle cx="239.5" cy="417.862" r="15.5" fill="url(#prefix__y)"/></g><g transform="translate(28.545 8.689) scale(.18867)"><circle cx="239.5" cy="417.862" r="15.5" fill="#fff"/><circle cx="239.5" cy="417.862" r="15.5" fill="url(#prefix__z)"/></g><g transform="translate(22.295 5.189) scale(.18867)"><circle cx="239.5" cy="417.862" r="15.5" fill="#fff"/><circle cx="239.5" cy="417.862" r="15.5" fill="url(#prefix__A)"/></g><g transform="translate(52.295 -.311) scale(.18867)"><circle cx="239.5" cy="417.862" r="15.5" fill="#fff"/><circle cx="239.5" cy="417.862" r="15.5" fill="url(#prefix__B)"/></g><g transform="translate(58.795 -1.311) scale(.18867)"><circle cx="239.5" cy="417.862" r="15.5" fill="#fff"/><circle cx="239.5" cy="417.862" r="15.5" fill="url(#prefix__C)"/></g><g transform="translate(15.545 3.439) scale(.18867)"><circle cx="239.5" cy="417.862" r="15.5" fill="#fff"/><circle cx="239.5" cy="417.862" r="15.5" fill="url(#prefix__D)"/></g><g transform="translate(8.795 3.689) scale(.18867)"><circle cx="239.5" cy="417.862" r="15.5" fill="#fff"/><circle cx="239.5" cy="417.862" r="15.5" fill="url(#prefix__E)"/></g><g transform="translate(2.045 4.189) scale(.18867)"><circle cx="239.5" cy="417.862" r="15.5" fill="#fff"/><circle cx="239.5" cy="417.862" r="15.5" fill="url(#prefix__F)"/></g><g transform="translate(-4.705 4.689) scale(.18867)"><circle cx="239.5" cy="417.862" r="15.5" fill="#fff"/><circle cx="239.5" cy="417.862" r="15.5" fill="url(#prefix__G)"/></g><g transform="translate(-11.705 3.689) scale(.18867)"><circle cx="239.5" cy="417.862" r="15.5" fill="#fff"/><circle cx="239.5" cy="417.862" r="15.5" fill="url(#prefix__H)"/></g><g transform="translate(-18.705 2.439) scale(.18867)"><circle cx="239.5" cy="417.862" r="15.5" fill="#fff"/><circle cx="239.5" cy="417.862" r="15.5" fill="url(#prefix__I)"/></g><g transform="translate(-25.205 1.439) scale(.18867)"><circle cx="239.5" cy="417.862" r="15.5" fill="#fff"/><circle cx="239.5" cy="417.862" r="15.5" fill="url(#prefix__J)"/></g><g transform="translate(-31.455 -.811) scale(.18867)"><circle cx="239.5" cy="417.862" r="15.5" fill="#fff"/><circle cx="239.5" cy="417.862" r="15.5" fill="url(#prefix__K)"/></g></svg>