<svg width="140" height="121.398" xmlns="http://www.w3.org/2000/svg"><defs><clipPath clipPathUnits="userSpaceOnUse" id="prefix__a"><path d="M0 660h660V0H0z"/></clipPath></defs><g clip-path="url(#prefix__a)" transform="matrix(.2646 0 0 -.2646 -19.514 156.203)"><path d="M399.758 131.543c86.633 0 157.29 7.671 157.29 17.078 0 9.404-70.657 17.076-157.29 17.076s-157.291-7.672-157.291-17.076c0-9.407 70.658-17.078 157.29-17.078" fill="#e6e6e6" fill-rule="evenodd"/><path d="M318.37 159.426c-20.136 8.355-30.498 20.675-39.802 31.739-8.583 10.205-15.99 19.012-31.29 18.945-15.136-.065-20.723-4.163-25.674-7.791-8.05-5.908-15.074-11.057-34.52-8.248-19.253 2.782-27.026 9.026-34.672 15.167-4.659 3.745-9.254 7.434-18.485 9.347-20.16 4.176-47.847-20.066-60.178-33.825 4.945 25.72 42.214 54.827 64.9 50.128 25.257-5.232 32.627-17.133 51.392-19.846 10.938-1.58 14.734 1.204 19.088 4.397 7.517 5.516 16.006 11.74 38.026 11.836 25.268.108 35.637-12.221 47.655-26.511 7.74-9.204 16.36-19.453 31.646-25.797z" fill="#6b564f" fill-rule="evenodd"/><path d="M403.58 513.33c-1.33-28.272 9.356-46.419 29.894-64.846 16.933-15.193 24.814-8.206 44.773-2.057 15.901 4.901 41.44 11.236 52.191 24.586 5.901 8.658 9.02 20.088 10.141 30.4 1.436 30.477-.819 71.903-35.846 82.81-10.549 3.285-20.815 2.04-31.227-1.034-15.638-4.817-39.843-16.617-50.912-28.079-11.412-11.812-17.249-25.563-19.014-41.78" fill="#99948d" fill-rule="evenodd"/><path d="M435.998 484.091c53.996.658 108.103-26.47 140.321-69.62 39.612-71.244-76.146-30.106-74.336-86.256 4.012-55.319 42.524-112.26-18.139-157.192-67.782-46.575-166.674-28.406-194.183 56.433-23.803 73.402 5.026 183.653 64.824 232.977 24.808 17.212 52.006 21.994 81.513 23.658" fill="#b0aba4" fill-rule="evenodd"/><path d="M584.469 387.728c-2-21.58-35.926-20.643-59.645-29.554l-.003.004c-84.558-4.475 4.584-151.755-70.613-202.75-44.097-16.966-94.135-11.103-128.805 17.978 50.154 17.384 43.086 124.958 78.297 179.305 33.682 51.987 109.046 51.61 180.769 35.017" fill="#dbd6d0" fill-rule="evenodd"/><path d="M558.466 386.183c2.954 17.832 22.498 20.753 35.81 13.107 26.608-15.284-15.604-51.038-32.538-26.651-2.758 3.973-3.934 8.75-3.272 13.544M463.33 448.25c10.63-.924 18.5-10.293 17.576-20.926-.926-10.631-10.295-18.498-20.927-17.575-10.63.926-18.5 10.293-17.574 20.925.925 10.632 10.293 18.5 20.924 17.576" fill="#1a1a1a" fill-rule="evenodd"/><path d="M453.816 442.058a6.647 6.647 0 006.046-7.2 6.65 6.65 0 10-6.046 7.2" fill="#e6e6e6" fill-rule="evenodd"/><path d="M516.405 361.632c16.004 14.665-19.938 16.042-69.03 14.053 24.534-1.355 49.747-1.235 69.03-14.053M432.427 502.7c-3.572-28.076-17.232-44.106-40.642-58.708-19.302-12.041-25.86-3.798-44.456 5.705-14.818 7.574-38.878 18.223-47.162 33.23-4.317 9.547-5.415 21.344-4.738 31.692 3.848 30.268 13.223 70.683 49.606 75.378 10.96 1.414 20.856-1.588 30.582-6.412 14.57-7.444 36.373-23.247 45.299-36.447 9.198-13.607 12.575-28.16 11.51-44.437" fill="#b0aba4" fill-rule="evenodd"/><path d="M420.313 502.618c.578 10.597-1.431 19.664-7.46 28.582-6.583 9.74-25.686 23.114-36.163 28.405-5.117 2.584-10.757 4.767-16.59 4.015-21.375-2.758-26.393-36.359-28.611-53.653-.31-5.74.122-13 2.253-18.45 5.343-7.83 28.84-18.735 36.564-22.683 3.47-1.773 12.595-7.453 16.595-8.904 1.313.502 3.145 1.614 4.058 2.183 16.946 10.57 26.6 20.43 29.354 40.505" fill="#827c75" fill-rule="evenodd"/><path d="M294.152 183.622c-40.82 63.194 18.661 81.51 39.364 68.75 24.471-15.08 18.96-55.675 37.448-77.689 6.08-7.239 12.08-5.995 21.46-4.797 13.558 1.728 20.403-20.638 5.723-23.783-22.23-4.76-46.564-1.803-67.95 5.912-15.03 5.422-27.376 18.183-36.045 31.607M524.828 177.99c39.007 56.248-1.28 83.241-18.17 73.756-18.833-10.578-32.182-79.04-43.867-75.903-21.138 5.675-28.796-15.48-7.706-22.615 16.427-5.555 22.297-5.437 38.926-1.029 11.687 3.097 22.531 13.842 30.817 25.791M367.975 314.19c-6.167 21.755 19.399 33.15 33.265 24.605 22.969-14.155-3.537-34.33 23.134-51.277 21.5-13.662 2.868-30.092-22.297-17.586-13.716 6.815-26.486 17.4-34.102 44.258M511.567 302.902c7.21 20.591-8.014 35.534-18.397 29.1-17.199-10.66-2.624-34.41-22.669-47.292-16.16-10.385-6.239-29.3 12.173-20.585 10.035 4.75 19.99 13.355 28.893 38.777" fill="#99948d" fill-rule="evenodd"/></g></svg>