<svg xmlns="http://www.w3.org/2000/svg" width="106.689" height="139.111" viewBox="0 0 136.562 178.062" xmlns:v="https://vecta.io/nano"><path d="M136.562 39.432v4.293a3.86 3.86 0 0 1-3.856 3.856h-6.3c-1.749 7.413-8.427 12.959-16.377 12.959h-44.62v25.023a61.42 61.42 0 0 1-.656 8.964c0 .04 0 .06-.02.079-.576 3.856-1.65 7.632-2.802 11.329-1.491 4.889-4.412 9.739-4.631 10.136h11.349l9.123-9.103c-.815-5.823 1.133-11.786 5.346-16 4.77-4.77 11.766-6.638 18.285-4.909 1.332.358 2.365 1.391 2.723 2.723 1.729 6.519-.139 13.515-4.909 18.285-3.578 3.578-8.447 5.545-13.416 5.545a19.32 19.32 0 0 1-2.604-.179l-3.657 3.657h30.051a3.86 3.86 0 0 1 3.856 3.856 3.86 3.86 0 0 1-3.856 3.856H52.093a218.93 218.93 0 0 1-1.689 2.047l-.08.099v27.408a3.86 3.86 0 0 1-3.856 3.856 17.92 17.92 0 0 1-10.355-3.279v9.779a3.86 3.86 0 0 1-3.856 3.856 17.86 17.86 0 0 1-10.335-3.279v9.918a3.86 3.86 0 0 1-3.856 3.856C8.109 178.062 0 169.953 0 159.995V61.534c0-8.566 1.729-16.854 5.128-24.645 0 0 5.307-11.786 13.952-19.895 8.447-7.93 17.808-11.865 17.808-11.865C44.679 1.729 52.967 0 61.514 0H97.11c9.461 0 18.603 3.399 25.738 9.56.378.318 1.809 1.65 2.147 1.988 7.473 7.433 11.567 17.331 11.567 27.885z" fill="#633"/><path d="M126.863 28.322c2.445 6.758 1.988 11.528 1.988 11.528h-18.424c.278-8.348 4.114-16.099 10.474-21.425.02.02 4.015 4.512 5.963 9.898z" fill="#fe6865"/><path d="M65.409 47.561h52.868c-1.451 3.101-4.611 5.247-8.248 5.247h-44.62z" fill="#fc6"/><path d="M97.07 93.115c.139 3.12-1.014 6.221-3.279 8.467-2.246 2.246-5.346 3.419-8.467 3.26-.139-3.12 1.014-6.221 3.279-8.467 2.246-2.246 5.346-3.399 8.467-3.26z" fill="#6a973a"/><path d="M57.698 70.219v15.324a55.32 55.32 0 0 1-.576 7.91c0 .04 0 .06-.02.079-.497 3.339-1.312 6.658-2.425 9.838 0 0-2.067 5.664-5.247 10.852-3.001 4.909-7.513 9.381-7.513 9.381-1.888 1.888-3.896 3.617-6.022 5.207-.537-1.491-1.948-2.564-3.637-2.564a3.86 3.86 0 0 0-3.856 3.856v28.998c-3.796-1.53-6.479-5.267-6.479-9.6V127.32c10.534-6.201 17.609-17.669 17.609-30.747V82.721c0-10.892-8.864-19.776-19.776-19.776A3.86 3.86 0 0 0 15.9 66.8a3.86 3.86 0 0 0 3.856 3.856c3.22 0 6.241 1.252 8.526 3.538 2.266 2.286 3.538 5.307 3.538 8.526v13.853c0 14.111-10.514 25.818-24.109 27.706V61.534a53.64 53.64 0 0 1 4.472-21.545s2.484-5.804 7.731-12.581c5.486-7.095 11.388-10.415 11.567-10.514-3.279 5.346-5.168 11.627-5.168 18.345.02 18.086 13.773 33.052 31.383 34.98z" fill="#fe6865"/><path d="M57.698 7.99v54.458C44.361 60.56 34.046 49.072 34.046 35.219c0-13.873 10.295-25.361 23.651-27.229z" fill="#fff"/><path d="M46.826 24.625c2.465 0 4.452 1.988 4.452 4.452s-1.988 4.452-4.452 4.452-4.452-1.988-4.452-4.452 1.988-4.452 4.452-4.452z" fill="#633"/><path d="M42.612 133.343v15.364c-3.796-1.53-6.499-5.267-6.499-9.6v-1.153a58.07 58.07 0 0 0 6.499-4.611zm-28.402-2.624v38.876c-3.796-1.53-6.479-5.267-6.479-9.6v-27.945c2.226-.258 4.392-.696 6.479-1.332z" fill="#fe6865"/><path d="M115.097 13.277C109.83 9.659 103.57 7.692 97.13 7.692H65.409V39.85h37.306c.298-10.256 4.79-19.835 12.382-26.573z" fill="#fc6"/></svg>