<svg version="1.1" xmlns="http://www.w3.org/2000/svg" xmlns:xlink="http://www.w3.org/1999/xlink" width="131.69452" height="103.90964" viewBox="0,0,131.69452,103.90964"><defs><radialGradient cx="213.2206" cy="209.48688" r="91.52534" gradientUnits="userSpaceOnUse" id="color-1"><stop offset="0" stop-color="#000000"/><stop offset="1" stop-color="#00ffff" stop-opacity="0"/></radialGradient><linearGradient x1="282.92745" y1="157.22146" x2="285.31225" y2="165.34091" gradientUnits="userSpaceOnUse" id="color-2"><stop offset="0" stop-color="#41ce00"/><stop offset="1" stop-color="#ce002b" stop-opacity="0"/></linearGradient></defs><g transform="translate(-167.49004,-134.64974)"><g data-paper-data="{&quot;isPaintingLayer&quot;:true}" stroke-linecap="butt" stroke-linejoin="miter" stroke-miterlimit="10" stroke-dasharray="" stroke-dashoffset="0" style="mix-blend-mode: normal"><path d="M258.9467,209.4889c0,15.99068 -20.31516,28.9791 -45.46834,29.07c-25.15317,0.09091 -45.69932,-12.74984 -45.9853,-28.73949c-0.28599,-15.98965 19.79558,-29.12406 44.9455,-29.39677c25.14992,-0.2727 45.92439,12.41871 46.49632,28.40526" fill="url(#color-1)" fill-rule="evenodd" stroke="none" stroke-width="1" opacity="0.34351"/><g><g fill-rule="nonzero"><g><path d="M242.89726,135.35942c21.10579,-4.66118 45.30084,55.33643 26.18515,66.80778c-27.3333,16.40053 -57.38512,17.66108 -68.09005,-4.16624c-10.12562,-20.64229 17.16357,-57.17623 41.90511,-62.63978z" fill="#b70030" stroke="#ff0000" stroke-width="0.90418"/><path d="M248.21402,169.95725c0.69224,0.12125 1.24534,1.42969 0.86849,2.10987c-0.52836,0.95363 -3.1891,0.50059 -2.96681,0.19896c-0.03649,-0.05329 1.15197,-2.47462 2.09832,-2.30883z" fill="#ffa900" stroke="none" stroke-width="1"/><path d="M254.87686,177.99359c0.69224,0.12125 1.24534,1.42969 0.86849,2.10987c-0.52836,0.95363 -3.1891,0.50059 -2.96681,0.19896c-0.03649,-0.05329 1.15197,-2.47462 2.09832,-2.30883z" fill="#ffa900" stroke="none" stroke-width="1"/><path d="M240.38127,180.553c0.69224,0.12125 1.24534,1.42969 0.86849,2.10987c-0.52836,0.95363 -3.1891,0.50059 -2.96681,0.19896c-0.03649,-0.05329 1.15197,-2.47462 2.09832,-2.30883z" fill="#ffa900" stroke="none" stroke-width="1"/><path d="M269.28427,174.48375c0.69224,0.12125 1.24534,1.42969 0.86849,2.10987c-0.52836,0.95363 -3.1891,0.50059 -2.96681,0.19896c-0.03649,-0.05329 1.15197,-2.47462 2.09832,-2.30883z" fill="#ffa900" stroke="none" stroke-width="1"/><path d="M246.23632,160.70443c0.69224,0.12125 1.24534,1.42969 0.86849,2.10987c-0.52836,0.95363 -3.1891,0.50059 -2.96681,0.19896c-0.03649,-0.05329 1.15197,-2.47462 2.09832,-2.30883z" fill="#ffa900" stroke="none" stroke-width="1"/><path d="M231.6393,172.65023c0.69224,0.12125 1.24534,1.42969 0.86849,2.10987c-0.52836,0.95363 -3.1891,0.50059 -2.96681,0.19896c-0.03649,-0.05329 1.15197,-2.47462 2.09832,-2.30883z" fill="#ffa900" stroke="none" stroke-width="1"/><path d="M247.85331,149.82573c0.69224,0.12125 1.24534,1.42969 0.86849,2.10987c-0.52836,0.95363 -3.1891,0.50059 -2.96681,0.19896c-0.03649,-0.05329 1.15197,-2.47462 2.09832,-2.30883z" fill="#ffa900" stroke="none" stroke-width="1"/><path d="M229.64654,160.40564c0.69224,0.12125 1.24534,1.42969 0.86849,2.10987c-0.52836,0.95363 -3.1891,0.50059 -2.96681,0.19896c-0.03649,-0.05329 1.15197,-2.47462 2.09832,-2.30883z" fill="#ffa900" stroke="none" stroke-width="1"/><path d="M253.17329,141.26525c0.69224,0.12125 1.24534,1.42969 0.86849,2.10987c-0.52836,0.95363 -3.1891,0.50059 -2.96681,0.19896c-0.03649,-0.05329 1.15197,-2.47462 2.09832,-2.30883z" fill="#ffa900" stroke="none" stroke-width="1"/><path d="M216.40907,185.27669c0.69224,0.12125 1.24534,1.42969 0.86849,2.10987c-0.52836,0.95363 -3.1891,0.50059 -2.96681,0.19896c-0.03649,-0.05329 1.15197,-2.47462 2.09832,-2.30883z" fill="#ffa900" stroke="none" stroke-width="1"/><path d="M213.12353,175.06565c0.69224,0.12125 1.24534,1.42969 0.86849,2.10987c-0.52836,0.95363 -3.1891,0.50059 -2.96681,0.19896c-0.03649,-0.05329 1.15197,-2.47462 2.09832,-2.30883z" fill="#ffa900" stroke="none" stroke-width="1"/><path d="M225.91233,189.09784c0.69224,0.12125 1.24534,1.42969 0.86849,2.10987c-0.52836,0.95363 -3.1891,0.50059 -2.96681,0.19896c-0.03649,-0.05329 1.15197,-2.47462 2.09832,-2.30883z" fill="#ffa900" stroke="none" stroke-width="1"/><path d="M247.2185,197.16302c0.69224,0.12125 1.24534,1.42969 0.86849,2.10987c-0.52836,0.95363 -3.1891,0.50059 -2.96681,0.19896c-0.03649,-0.05329 1.15197,-2.47462 2.09832,-2.30883z" fill="#ffa900" stroke="none" stroke-width="1"/><path d="M262.90902,188.62028c0.69224,0.12125 1.24534,1.42969 0.86849,2.10987c-0.52836,0.95363 -3.1891,0.50059 -2.96681,0.19896c-0.03649,-0.05329 1.15197,-2.47462 2.09832,-2.30883z" fill="#ffa900" stroke="none" stroke-width="1"/><path d="M257.62729,159.49942c0.69224,0.12125 1.24534,1.42969 0.86849,2.10987c-0.52836,0.95363 -3.1891,0.50059 -2.96681,0.19896c-0.03649,-0.05329 1.15197,-2.47462 2.09832,-2.30883z" fill="#ffa900" stroke="none" stroke-width="1"/><path d="M236.75981,149.53444c0.69224,0.12125 1.24534,1.42969 0.86849,2.10987c-0.52836,0.95363 -3.1891,0.50059 -2.96681,0.19896c-0.03649,-0.05329 1.15197,-2.47462 2.09832,-2.30883z" fill="#ffa900" stroke="none" stroke-width="1"/><path d="M220.31964,158.48534c0.69224,0.12125 1.24534,1.42969 0.86849,2.10987c-0.52836,0.95363 -3.1891,0.50059 -2.96681,0.19896c-0.03649,-0.05329 1.15197,-2.47462 2.09832,-2.30883z" fill="#ffa900" stroke="none" stroke-width="1"/><path d="M203.40931,187.0217c0.69224,0.12125 1.24534,1.42969 0.86849,2.10987c-0.52836,0.95363 -3.1891,0.50059 -2.96681,0.19896c-0.03649,-0.05329 1.15197,-2.47462 2.09832,-2.30883z" fill="#ffa900" stroke="none" stroke-width="1"/><path d="M217.3415,203.0954c0.69224,0.12125 1.24534,1.42969 0.86849,2.10987c-0.52836,0.95363 -3.1891,0.50059 -2.96681,0.19896c-0.03649,-0.05329 1.15197,-2.47462 2.09832,-2.30883z" fill="#ffa900" stroke="none" stroke-width="1"/><path d="M238.28883,197.69049c0.69224,0.12125 1.24534,1.42969 0.86849,2.10987c-0.52836,0.95363 -3.1891,0.50059 -2.96681,0.19896c-0.03649,-0.05329 1.15197,-2.47462 2.09832,-2.30883z" fill="#ffa900" stroke="none" stroke-width="1"/><path d="M244.1788,206.81479c0.69224,0.12125 1.24534,1.42969 0.86849,2.10987c-0.52836,0.95363 -3.1891,0.50059 -2.96681,0.19896c-0.03649,-0.05329 1.15197,-2.47462 2.09832,-2.30883z" fill="#ffa900" stroke="none" stroke-width="1"/><path d="M225.42362,205.69343c0.69224,0.12125 1.24534,1.42969 0.86849,2.10987c-0.52836,0.95363 -3.1891,0.50059 -2.96681,0.19896c-0.03649,-0.05329 1.15197,-2.47462 2.09832,-2.30883z" fill="#ffa900" stroke="none" stroke-width="1"/><path d="M228.83566,212.49971c0.69224,0.12125 1.24534,1.42969 0.86849,2.10987c-0.52836,0.95363 -3.1891,0.50059 -2.96681,0.19896c-0.03649,-0.05329 1.15197,-2.47462 2.09832,-2.30883z" fill="#ffa900" stroke="none" stroke-width="1"/><path d="M206.99417,202.39785c0.69224,0.12125 1.24534,1.42969 0.86849,2.10987c-0.52836,0.95363 -3.1891,0.50059 -2.96681,0.19896c-0.03649,-0.05329 1.15197,-2.47462 2.09832,-2.30883z" fill="#ffa900" stroke="none" stroke-width="1"/><path d="M201.08099,193.95337c0.69224,0.12125 1.24534,1.42969 0.86849,2.10987c-0.52836,0.95363 -3.1891,0.50059 -2.96681,0.19896c-0.03649,-0.05329 1.15197,-2.47462 2.09832,-2.30883z" fill="#ffa900" stroke="none" stroke-width="1"/><path d="M204.5827,168.38772c0.69224,0.12125 1.24534,1.42969 0.86849,2.10987c-0.52836,0.95363 -3.1891,0.50059 -2.96681,0.19896c-0.03649,-0.05329 1.15197,-2.47462 2.09832,-2.30883z" fill="#ffa900" stroke="none" stroke-width="1"/><path d="M214.39482,153.71433c0.69224,0.12125 1.24534,1.42969 0.86849,2.10987c-0.52836,0.95363 -3.1891,0.50059 -2.96681,0.19896c-0.03649,-0.05329 1.15197,-2.47462 2.09832,-2.30883z" fill="#ffa900" stroke="none" stroke-width="1"/><path d="M226.92272,144.89194c0.69224,0.12125 1.24534,1.42969 0.86849,2.10987c-0.52836,0.95363 -3.1891,0.50059 -2.96681,0.19896c-0.03649,-0.05329 1.15197,-2.47462 2.09832,-2.30883z" fill="#ffa900" stroke="none" stroke-width="1"/><path d="M237.00905,136.06919c0.69224,0.12125 1.24534,1.42969 0.86849,2.10987c-0.52836,0.95363 -3.1891,0.50059 -2.96681,0.19896c-0.03649,-0.05329 1.15197,-2.47462 2.09832,-2.30883z" fill="#ffa900" stroke="none" stroke-width="1"/><path d="M244.85518,141.79567c0.69224,0.12125 1.24534,1.42969 0.86849,2.10987c-0.52836,0.95363 -3.1891,0.50059 -2.96681,0.19896c-0.03649,-0.05329 1.15197,-2.47462 2.09832,-2.30883z" fill="#ffa900" stroke="none" stroke-width="1"/><path d="M264.76534,147.95221c0.69224,0.12125 1.24534,1.42969 0.86849,2.10987c-0.52836,0.95363 -3.1891,0.50059 -2.96681,0.19896c-0.03649,-0.05329 1.15197,-2.47462 2.09832,-2.30883z" fill="#ffa900" stroke="none" stroke-width="1"/><path d="M269.39733,161.4239c0.69224,0.12125 1.24534,1.42969 0.86849,2.10987c-0.52836,0.95363 -3.1891,0.50059 -2.96681,0.19896c-0.03649,-0.05329 1.15197,-2.47462 2.09832,-2.30883z" fill="#ffa900" stroke="none" stroke-width="1"/><path d="M275.85898,174.90252c0.69224,0.12125 1.24534,1.42969 0.86849,2.10987c-0.52836,0.95363 -3.1891,0.50059 -2.96681,0.19896c-0.03649,-0.05329 1.15197,-2.47462 2.09832,-2.30883z" fill="#ffa900" stroke="none" stroke-width="1"/><path d="M262.93228,181.27333c0.69224,0.12125 1.24534,1.42969 0.86849,2.10987c-0.52836,0.95363 -3.1891,0.50059 -2.96681,0.19896c-0.03649,-0.05329 1.15197,-2.47462 2.09832,-2.30883z" fill="#ffa900" stroke="none" stroke-width="1"/><path d="M260.90473,166.7149c0.69224,0.12125 1.24534,1.42969 0.86849,2.10987c-0.52836,0.95363 -3.1891,0.50059 -2.96681,0.19896c-0.03649,-0.05329 1.15197,-2.47462 2.09832,-2.30883z" fill="#ffa900" stroke="none" stroke-width="1"/><path d="M270.71531,192.03099c0.69224,0.12125 1.24534,1.42969 0.86849,2.10987c-0.52836,0.95363 -3.1891,0.50059 -2.96681,0.19896c-0.03649,-0.05329 1.15197,-2.47462 2.09832,-2.30883z" fill="#ffa900" stroke="none" stroke-width="1"/><path d="M254.87518,191.32405c0.69224,0.12125 1.24534,1.42969 0.86849,2.10987c-0.52836,0.95363 -3.1891,0.50059 -2.96681,0.19896c-0.03649,-0.05329 1.15197,-2.47462 2.09832,-2.30883z" fill="#ffa900" stroke="none" stroke-width="1"/><path d="M262.19945,204.66894c0.69224,0.12125 1.24534,1.42969 0.86849,2.10987c-0.52836,0.95363 -3.1891,0.50059 -2.96681,0.19896c-0.03649,-0.05329 1.15197,-2.47462 2.09832,-2.30883z" fill="#ffa900" stroke="none" stroke-width="1"/><path d="M253.10853,199.62019c0.69224,0.12125 1.24534,1.42969 0.86849,2.10987c-0.52836,0.95363 -3.1891,0.50059 -2.96681,0.19896c-0.03649,-0.05329 1.15197,-2.47462 2.09832,-2.30883z" fill="#ffa900" stroke="none" stroke-width="1"/><path d="M269.65655,197.60893c0.69224,0.12125 1.24534,1.42969 0.86849,2.10987c-0.52836,0.95363 -3.1891,0.50059 -2.96681,0.19896c-0.03649,-0.05329 1.15197,-2.47462 2.09832,-2.30883z" fill="#ffa900" stroke="none" stroke-width="1"/><path d="M273.86797,182.65364c0.69224,0.12125 1.24534,1.42969 0.86849,2.10987c-0.52836,0.95363 -3.1891,0.50059 -2.96681,0.19896c-0.03649,-0.05329 1.15197,-2.47462 2.09832,-2.30883z" fill="#ffa900" stroke="none" stroke-width="1"/><path d="M254.86515,148.3409c0.69224,0.12125 1.24534,1.42969 0.86849,2.10987c-0.52836,0.95363 -3.1891,0.50059 -2.96681,0.19896c-0.03649,-0.05329 1.15197,-2.47462 2.09832,-2.30883z" fill="#ffa900" stroke="none" stroke-width="1"/><path d="M238.93865,160.0121c0.69224,0.12125 1.24534,1.42969 0.86849,2.10987c-0.52836,0.95363 -3.1891,0.50059 -2.96681,0.19896c-0.03649,-0.05329 1.15197,-2.47462 2.09832,-2.30883z" fill="#ffa900" stroke="none" stroke-width="1"/><path d="M229.87265,180.94637c0.69224,0.12125 1.24534,1.42969 0.86849,2.10987c-0.52836,0.95363 -3.1891,0.50059 -2.96681,0.19896c-0.03649,-0.05329 1.15197,-2.47462 2.09832,-2.30883z" fill="#ffa900" stroke="none" stroke-width="1"/><path d="M222.8857,168.42092c0.69224,0.12125 1.24534,1.42969 0.86849,2.10987c-0.52836,0.95363 -3.1891,0.50059 -2.96681,0.19896c-0.03649,-0.05329 1.15197,-2.47462 2.09832,-2.30883z" fill="#ffa900" stroke="none" stroke-width="1"/><path d="M209.55025,162.68316c0.69224,0.12125 1.24534,1.42969 0.86849,2.10987c-0.52836,0.95363 -3.1891,0.50059 -2.96681,0.19896c-0.03649,-0.05329 1.15197,-2.47462 2.09832,-2.30883z" fill="#ffa900" stroke="none" stroke-width="1"/><path d="M240.28314,169.94559c0.69224,0.12125 1.24534,1.42969 0.86849,2.10987c-0.52836,0.95363 -3.1891,0.50059 -2.96681,0.19896c-0.03649,-0.05329 1.15197,-2.47462 2.09832,-2.30883z" fill="#ffa900" stroke="none" stroke-width="1"/><path d="M246.39584,186.27825c0.69224,0.12125 1.24534,1.42969 0.86849,2.10987c-0.52836,0.95363 -3.1891,0.50059 -2.96681,0.19896c-0.03649,-0.05329 1.15197,-2.47462 2.09832,-2.30883z" fill="#ffa900" stroke="none" stroke-width="1"/><path d="M229.7081,195.36394c0.69224,0.12125 1.24534,1.42969 0.86849,2.10987c-0.52836,0.95363 -3.1891,0.50059 -2.96681,0.19896c-0.03649,-0.05329 1.15197,-2.47462 2.09832,-2.30883z" fill="#ffa900" stroke="none" stroke-width="1"/><path d="M212.64989,194.653c0.69224,0.12125 1.24534,1.42969 0.86849,2.10987c-0.52836,0.95363 -3.1891,0.50059 -2.96681,0.19896c-0.03649,-0.05329 1.15197,-2.47462 2.09832,-2.30883z" fill="#ffa900" stroke="none" stroke-width="1"/><path d="M235.32382,205.30473c0.69224,0.12125 1.24534,1.42969 0.86849,2.10987c-0.52836,0.95363 -3.1891,0.50059 -2.96681,0.19896c-0.03649,-0.05329 1.15197,-2.47462 2.09832,-2.30883z" fill="#ffa900" stroke="none" stroke-width="1"/><path d="M235.47521,187.8897c0.69224,0.12125 1.24534,1.42969 0.86849,2.10987c-0.52836,0.95363 -3.1891,0.50059 -2.96681,0.19896c-0.03649,-0.05329 1.15197,-2.47462 2.09832,-2.30883z" fill="#ffa900" stroke="none" stroke-width="1"/><path d="M254.86342,168.3385c0.69224,0.12125 1.24534,1.42969 0.86849,2.10987c-0.52836,0.95363 -3.1891,0.50059 -2.96681,0.19896c-0.03649,-0.05329 1.15197,-2.47462 2.09832,-2.30883z" fill="#ffa900" stroke="none" stroke-width="1"/><path d="M263.81816,173.79264c0.69224,0.12125 1.24534,1.42969 0.86849,2.10987c-0.52836,0.95363 -3.1891,0.50059 -2.96681,0.19896c-0.03649,-0.05329 1.15197,-2.47462 2.09832,-2.30883z" fill="#ffa900" stroke="none" stroke-width="1"/><path d="M218.51652,177.7981c0.69224,0.12125 1.24534,1.42969 0.86849,2.10987c-0.52836,0.95363 -3.1891,0.50059 -2.96681,0.19896c-0.03649,-0.05329 1.15197,-2.47462 2.09832,-2.30883z" fill="#ffa900" stroke="none" stroke-width="1"/><path d="M204.33003,175.18773c0.69224,0.12125 1.24534,1.42969 0.86849,2.10987c-0.52836,0.95363 -3.1891,0.50059 -2.96681,0.19896c-0.03649,-0.05329 1.15197,-2.47462 2.09832,-2.30883z" fill="#ffa900" stroke="none" stroke-width="1"/><path d="M216.11333,166.77541c0.69224,0.12125 1.24534,1.42969 0.86849,2.10987c-0.52836,0.95363 -3.1891,0.50059 -2.96681,0.19896c-0.03649,-0.05329 1.15197,-2.47462 2.09832,-2.30883z" fill="#ffa900" stroke="none" stroke-width="1"/><path d="M227.17023,151.42429c0.69224,0.12125 1.24534,1.42969 0.86849,2.10987c-0.52836,0.95363 -3.1891,0.50059 -2.96681,0.19896c-0.03649,-0.05329 1.15197,-2.47462 2.09832,-2.30883z" fill="#ffa900" stroke="none" stroke-width="1"/><path d="M250.19342,205.8729c0.69224,0.12125 1.24534,1.42969 0.86849,2.10987c-0.52836,0.95363 -3.1891,0.50059 -2.96681,0.19896c-0.03649,-0.05329 1.15197,-2.47462 2.09832,-2.30883z" fill="#ffa900" stroke="none" stroke-width="1"/></g><path d="M213.07559,163.92516c0.61792,0.12559 1.13037,1.33942 0.8055,1.95684c-0.45548,0.86565 -2.83036,0.3949 -2.63719,0.12222c-0.0333,-0.04972 0.98694,-2.25078 1.83169,-2.07907z" fill="#ffa900" stroke="none" stroke-width="1"/><path d="M206.38178,179.00639c0.61792,0.12559 1.13037,1.33942 0.8055,1.95684c-0.45548,0.86565 -2.83036,0.3949 -2.63719,0.12222c-0.0333,-0.04972 0.98694,-2.25078 1.83169,-2.07907z" fill="#ffa900" stroke="none" stroke-width="1"/><path d="M235.12189,164.59632c0.61792,0.12559 1.13037,1.33942 0.8055,1.95684c-0.45548,0.86565 -2.83036,0.3949 -2.63719,0.12222c-0.0333,-0.04972 0.98694,-2.25078 1.83169,-2.07907z" fill="#ffa900" stroke="none" stroke-width="1"/><path d="M261.71135,195.24354c0.61792,0.12559 1.13037,1.33942 0.8055,1.95684c-0.45548,0.86565 -2.83036,0.3949 -2.63719,0.12222c-0.0333,-0.04972 0.98694,-2.25078 1.83169,-2.07907z" fill="#ffa900" stroke="none" stroke-width="1"/><path d="M266.82424,160.00589c0.61792,0.12559 1.13037,1.33942 0.8055,1.95684c-0.45548,0.86565 -2.83036,0.3949 -2.63719,0.12222c-0.0333,-0.04972 0.98694,-2.25078 1.83169,-2.07907z" fill="#ffa900" stroke="none" stroke-width="1"/><path d="M251.50765,154.13024c0.61792,0.12559 1.13037,1.33942 0.8055,1.95684c-0.45548,0.86565 -2.83036,0.3949 -2.63719,0.12222c-0.0333,-0.04972 0.98694,-2.25078 1.83169,-2.07907z" fill="#ffa900" stroke="none" stroke-width="1"/><path d="M236.75457,141.14112c0.61792,0.12559 1.13037,1.33942 0.8055,1.95684c-0.45548,0.86565 -2.83036,0.3949 -2.63719,0.12222c-0.0333,-0.04972 0.98694,-2.25078 1.83169,-2.07907z" fill="#ffa900" stroke="none" stroke-width="1"/><path d="M219.88766,194.83382c0.61792,0.12559 1.13037,1.33942 0.8055,1.95684c-0.45548,0.86565 -2.83036,0.3949 -2.63719,0.12222c-0.0333,-0.04972 0.98694,-2.25078 1.83169,-2.07907z" fill="#ffa900" stroke="none" stroke-width="1"/></g><path d="M256.89477,144.78388c3.42045,5.18066 5.72851,1.7838 13.88906,18.48038c13.82712,34.86966 -11.0775,40.14414 -10.9225,47.15807c-11.90988,3.36749 4.80141,-21.70315 10.51982,-27.93944c-23.4022,10.17495 -18.51305,11.91681 -18.11638,22.41583c-17.07497,-24.76581 30.89356,-35.76193 -4.39035,-38.24629c-9.78923,-3.39081 -18.1211,-13.83046 -18.1211,-13.83046c0,0 18.52585,9.87145 29.19123,3.26494c-10.04094,-5.20792 -21.28122,-8.51663 -24.89969,-20.62462c6.92517,5.34133 9.82686,-2.65746 22.85037,9.32178z" fill="#41ce00" fill-rule="nonzero" stroke="none" stroke-width="1"/><path d="M270.02184,171.20261c-1.20766,0.65751 -3.13516,-1.10798 -4.31402,-3.95144c-1.17887,-2.84346 -1.16643,-5.69716 0.02783,-6.387c1.19426,-0.68984 3.1219,1.0432 4.31434,3.87882c1.19244,2.83562 1.20193,5.70902 0.02123,6.4311" fill="#576157" fill-rule="evenodd" stroke="none" stroke-width="1"/><path d="M299.18436,152.19273c-1.17823,2.03671 -1.44973,3.93868 -0.22297,5.61822c-17.47118,3.18675 -20.7119,6.31727 -30.55677,9.47393c-1.22538,-0.81075 -2.35777,-1.6436 0.49507,-3.4245c5.46044,-2.74247 3.67813,-3.69307 30.28487,-11.66734z" fill="url(#color-2)" fill-rule="nonzero" stroke="none" stroke-width="1"/></g><path d="M248.36577,169.31297c0.18338,0 0.37619,0.04859 0.55014,0c0.28074,-0.07841 0.26991,-0.30155 0.41261,-0.46096c0.07781,-0.08692 0.19727,-0.14356 0.27507,-0.23049c0.06151,-0.06872 0.06505,-0.16975 0.13754,-0.23049c0.70286,-0.58893 -0.19183,0.48321 0.55014,-0.34573c0.06151,-0.06872 0.06505,-0.16974 0.13754,-0.23048c0.30035,-0.25167 0.22331,-0.02397 0.55014,-0.11524c0.06151,-0.01717 0.07954,-0.09095 0.13754,-0.11524c0.04101,-0.01717 0.09653,0.01717 0.13754,0c0.05799,-0.02429 0.09169,-0.07683 0.13754,-0.11524c0.09169,-0.07683 0.20314,-0.14008 0.27507,-0.23048c0.05686,-0.07147 0.08067,-0.15902 0.13754,-0.23049c0.03597,-0.0452 0.09169,-0.07683 0.13754,-0.11524c0.04585,-0.03841 0.07955,-0.09095 0.13754,-0.11524c0.041,-0.01717 0.09169,0 0.13754,0c0.09169,0 0.18809,0.02429 0.27507,0c0.10436,-0.02914 0.42373,-0.408 0.55014,-0.46096c0.24347,-0.102 0.047,0.17141 0.27507,-0.11524c0.05687,-0.07147 0.05225,-0.18284 0.13754,-0.23048c0.07629,-0.04262 0.18809,0.02429 0.27507,0c0.08404,-0.02347 0.43424,-0.39623 0.55014,-0.46096c0.0853,-0.04764 0.18978,-0.0676 0.27507,-0.11524c0.10789,-0.06027 0.15909,-0.1819 0.27507,-0.23049c0.03556,-0.0149 0.72776,0 0.82522,0h0.13754c0.04585,0 0.10512,-0.02718 0.13754,0c0.07249,0.06074 0.09169,0.15366 0.13754,0.23049c0.04585,0.07683 0.10512,0.149 0.13754,0.23048c0.03927,0.09872 -0.03033,0.3593 0,0.46096c0.02486,0.08333 0.11267,0.14715 0.13754,0.23049c0.03118,0.10447 0,0.44234 0,0.57622v2.4201c0,0.03841 0.01449,0.0788 0,0.11524c-0.09628,0.24201 -0.31634,0.44946 -0.41261,0.69148c-0.13647,0.34306 0.32567,-0.23646 -0.13754,0.34573c-0.12614,0.15854 -0.21218,0.11853 -0.41261,0.23049c-0.05395,0.03012 -0.07955,0.09094 -0.13754,0.11524c-0.04101,0.01717 -0.09169,0 -0.13754,0c-0.09169,0.03841 -0.18978,0.0676 -0.27508,0.11524c-0.05394,0.03015 -0.07603,0.09806 -0.13754,0.11524c-0.08698,0.02429 -0.18809,-0.02429 -0.27507,0c-0.06151,0.01717 -0.07954,0.09095 -0.13754,0.11524c-0.08352,0.035 -0.7417,-0.035 -0.82522,0c-0.11598,0.04859 -0.15909,0.18189 -0.27507,0.23048c-0.04101,0.01717 -0.09404,-0.01212 -0.13754,0c-0.09725,0.02718 -0.17782,0.08808 -0.27507,0.11524c-0.0435,0.01212 -0.09653,-0.01717 -0.13754,0c-0.11598,0.04859 -0.15206,0.19613 -0.27507,0.23048c-0.08698,0.02429 -0.18808,-0.02429 -0.27507,0c-0.06151,0.01717 -0.07955,0.09095 -0.13754,0.11524c-0.04101,0.01717 -0.09653,-0.01717 -0.13754,0c-0.11598,0.04859 -0.15909,0.1819 -0.27507,0.23049c-0.08201,0.03438 -0.18808,-0.02429 -0.27507,0c-0.49861,0.13926 -0.09789,0.05468 -0.41261,0.23048c-0.06926,0.2539 -0.28294,0.06092 -0.41261,0.11524c-0.05799,0.02429 -0.07603,0.09806 -0.13754,0.11524c-0.08699,0.02429 -0.18809,-0.02429 -0.27508,0c-0.06151,0.01717 -0.07954,0.09094 -0.13754,0.11524c-0.04101,0.01717 -0.09653,-0.01717 -0.13754,0c-0.05799,0.02429 -0.07603,0.09807 -0.13754,0.11524c-0.07606,0.02124 -0.68671,0 -0.82522,0c-0.04585,0 -0.09653,-0.01717 -0.13754,0c-0.05799,0.02429 -0.07955,0.09095 -0.13754,0.11524c-0.041,0.01717 -0.09169,0 -0.13754,0h-0.27507h0.27507h-0.41261c-0.04585,0 -0.10512,0.02718 -0.13754,0c-0.03241,-0.02718 0.01449,-0.0788 0,-0.11524c-0.03241,-0.08149 -0.10512,-0.149 -0.13754,-0.23048c-0.01449,-0.03645 0.01449,-0.0788 0,-0.11524c-0.03241,-0.08149 -0.10512,-0.149 -0.13754,-0.23048c-0.01449,-0.03645 0.02051,-0.08089 0,-0.11524c-0.02901,-0.04859 -0.11703,-0.06371 -0.13754,-0.11524c-0.0435,-0.10933 0,-0.23049 0,-0.34573v-1.61344c0,-0.06432 -0.02098,-0.52346 0,-0.57622c0.02051,-0.05154 0.11704,-0.0637 0.13754,-0.11524c0.02901,-0.07288 -0.02901,-0.1576 0,-0.23048c0.02051,-0.05154 0.09169,-0.07683 0.13754,-0.11524c0.04585,-0.03841 0.09169,-0.07683 0.13754,-0.11524c0.07241,-0.06067 0.33916,-0.31496 0.41261,-0.34573c0.04186,-0.01756 0.35068,0 0.41261,0c0.04585,0 0.10512,-0.02718 0.13754,0c0.03241,0.02714 0.01806,0.07993 0,0.11524c-0.12115,0.23686 -0.27508,0.46096 -0.41261,0.69144z" fill-opacity="0.27234" fill="#ffffff" fill-rule="nonzero" stroke="none" stroke-width="1" opacity="0.64504"/></g></g></svg>