<?xml version="1.0" encoding="UTF-8" standalone="no"?>
<!-- Created with Inkscape (http://www.inkscape.org/) -->

<svg
   id="svg7245"
   inkscape:version="1.2.2 (732a01da63, 2022-12-09)"
   viewBox="100 80 529.13384 416.45577"
   version="1.1"
   sodipodi:docname="1363378859.svg"
   width="529.13385"
   height="416.45578"
   xmlns:inkscape="http://www.inkscape.org/namespaces/inkscape"
   xmlns:sodipodi="http://sodipodi.sourceforge.net/DTD/sodipodi-0.dtd"
   xmlns="http://www.w3.org/2000/svg"
   xmlns:svg="http://www.w3.org/2000/svg"
   xmlns:rdf="http://www.w3.org/1999/02/22-rdf-syntax-ns#"
   xmlns:cc="http://creativecommons.org/ns#"
   xmlns:dc="http://purl.org/dc/elements/1.1/">
  <defs
     id="defs7247">
    <radialGradient
       id="radialGradient7241"
       gradientUnits="userSpaceOnUse"
       cy="429.60001"
       cx="214.66"
       gradientTransform="matrix(1.9949,-0.16974,0.016192,0.32324,-220.52,327.17)"
       r="81.467003"
       inkscape:collect="always">
      <stop
         id="stop6634"
         style="stop-color:#000000"
         offset="0" />
      <stop
         id="stop6636"
         style="stop-color:#00ffff;stop-opacity:0"
         offset="1" />
    </radialGradient>
    <linearGradient
       id="linearGradient7243"
       x1="26.202999"
       gradientUnits="userSpaceOnUse"
       y1="214.09"
       gradientTransform="matrix(0.63134,0.19562,-0.13133,0.94039,221.93,-26.545)"
       x2="59.785999"
       y2="209.81"
       inkscape:collect="always">
      <stop
         id="stop4725"
         style="stop-color:#41ce00"
         offset="0" />
      <stop
         id="stop4727"
         style="stop-color:#ce002b;stop-opacity:0"
         offset="1" />
    </linearGradient>
  </defs>
  <sodipodi:namedview
     id="namedview7249"
     bordercolor="#666666"
     inkscape:pageshadow="2"
     inkscape:window-y="-8"
     pagecolor="#ffffff"
     inkscape:zoom="1.9545893"
     inkscape:window-width="1920"
     inkscape:window-maximized="1"
     inkscape:window-x="1912"
     showgrid="false"
     borderopacity="1.0"
     inkscape:current-layer="layer1"
     inkscape:cx="264.50569"
     inkscape:cy="208.22788"
     inkscape:window-height="1017"
     inkscape:pageopacity="0.0"
     inkscape:document-units="mm"
     inkscape:showpageshadow="2"
     inkscape:pagecheckerboard="0"
     inkscape:deskcolor="#d1d1d1" />
  <g
     id="layer1"
     inkscape:label="Layer 1"
     inkscape:groupmode="layer"
     transform="translate(-55.969043,-98.846471)">
    <g
       id="g6984"
       transform="matrix(1.3663745,0,0,1.5714298,82.989297,-142.48687)">
      <path
         id="path6630"
         sodipodi:rx="81.317284"
         sodipodi:ry="81.196915"
         style="opacity:0.34351;fill:url(#radialGradient7241);fill-rule:evenodd"
         sodipodi:type="arc"
         d="m 295.97469,429.60315 a 81.317284,81.196915 0 0 1 -80.855,81.1956 81.317284,81.196915 0 0 1 -81.77431,-80.27243 81.317284,81.196915 0 0 1 79.92526,-82.10828 81.317284,81.196915 0 0 1 82.68303,79.33889"
         sodipodi:open="true"
         transform="matrix(1.6536,0,0,0.91541,-167.08,1.9103)"
         sodipodi:cy="429.60315"
         sodipodi:cx="214.65741"
         sodipodi:end="6.2604458"
         sodipodi:start="0"
         sodipodi:arc-type="arc" />
      <g
         id="g5746"
         transform="matrix(0.42788,0.90383,-0.90383,0.42788,465.46,-5.572)">
        <g
           id="g4644"
           clip-path="url(#clipPath4715)"
           transform="translate(0,-24.286)">
          <g
             id="g4283"
             clip-path="url(#clipPath4345)"
             transform="matrix(1.0782,0,0,1.1344,-15.787,-106.14)">
            <path
               id="path2989"
               d="m 116.17,346.27 c 14.639,-53.944 171.47,-52.768 173.75,3.0812 3.2554,79.856 -29.112,151.48 -88.388,155.51 -56.06,3.8156 -102.52,-95.354 -85.358,-158.59 z"
               sodipodi:nodetypes="ssss"
               style="fill:#b70030;stroke:#ff0000;stroke-width:0.90418px"
               inkscape:connector-curvature="0" />
            <path
               id="path2995-8"
               d="m 196.53,367.18 c 1.0677,-1.5049 4.5176,-1.5389 5.5357,0 1.4274,2.1576 -2.6486,7.9545 -3.0357,7.1428 -0.15679,0.0341 -3.9597,-5.0855 -2.5,-7.1428 z"
               sodipodi:nodetypes="aaca"
               style="fill:#ffa900"
               inkscape:connector-curvature="0" />
            <path
               id="path2995-3"
               d="m 221.53,359.32 c 1.0677,-1.5049 4.5176,-1.5389 5.5357,0 1.4274,2.1576 -2.6486,7.9545 -3.0357,7.1428 -0.15679,0.0341 -3.9597,-5.0855 -2.5,-7.1428 z"
               sodipodi:nodetypes="aaca"
               style="fill:#ffa900"
               inkscape:connector-curvature="0" />
            <path
               id="path2995-7"
               d="m 210.1,395.75 c 1.0677,-1.5049 4.5176,-1.5389 5.5357,0 1.4274,2.1576 -2.6486,7.9545 -3.0357,7.1428 -0.15679,0.0341 -3.9597,-5.0855 -2.5,-7.1428 z"
               sodipodi:nodetypes="aaca"
               style="fill:#ffa900"
               inkscape:connector-curvature="0" />
            <path
               id="path2995-9"
               d="m 230.82,322.18 c 1.0677,-1.5049 4.5176,-1.5389 5.5357,0 1.4274,2.1576 -2.6486,7.9545 -3.0357,7.1428 -0.15679,0.0341 -3.9597,-5.0855 -2.5,-7.1428 z"
               sodipodi:nodetypes="aaca"
               style="fill:#ffa900"
               inkscape:connector-curvature="0" />
            <path
               id="path2995-1"
               d="m 174.39,362.89 c 1.0677,-1.5049 4.5176,-1.5389 5.5357,0 1.4274,2.1576 -2.6486,7.9545 -3.0357,7.1428 -0.15679,0.0341 -3.9597,-5.0855 -2.5,-7.1428 z"
               sodipodi:nodetypes="aaca"
               style="fill:#ffa900"
               inkscape:connector-curvature="0" />
            <path
               id="path2995-2"
               d="m 182.96,408.61 c 1.0677,-1.5049 4.5176,-1.5389 5.5357,0 1.4274,2.1576 -2.6486,7.9545 -3.0357,7.1428 -0.15679,0.0341 -3.9597,-5.0855 -2.5,-7.1428 z"
               sodipodi:nodetypes="aaca"
               style="fill:#ffa900"
               inkscape:connector-curvature="0" />
            <path
               id="path2995-4"
               d="m 152.96,348.61 c 1.0677,-1.5049 4.5176,-1.5389 5.5357,0 1.4274,2.1576 -2.6486,7.9545 -3.0357,7.1428 -0.15679,0.0341 -3.9597,-5.0855 -2.5,-7.1428 z"
               sodipodi:nodetypes="aaca"
               style="fill:#ffa900"
               inkscape:connector-curvature="0" />
            <path
               id="path2995-22"
               d="m 154.39,401.47 c 1.0677,-1.5049 4.5176,-1.5389 5.5357,0 1.4274,2.1576 -2.6486,7.9545 -3.0357,7.1428 -0.15679,0.0341 -3.9597,-5.0855 -2.5,-7.1428 z"
               sodipodi:nodetypes="aaca"
               style="fill:#ffa900"
               inkscape:connector-curvature="0" />
            <path
               id="path2995-48"
               d="m 140.82,327.89 c 1.0677,-1.5049 4.5176,-1.5389 5.5357,0 1.4274,2.1576 -2.6486,7.9545 -3.0357,7.1428 -0.15679,0.0341 -3.9597,-5.0855 -2.5,-7.1428 z"
               sodipodi:nodetypes="aaca"
               style="fill:#ffa900"
               inkscape:connector-curvature="0" />
            <path
               id="path2995-84"
               d="m 192.25,456.47 c 1.0677,-1.5049 4.5176,-1.5389 5.5357,0 1.4274,2.1576 -2.6486,7.9545 -3.0357,7.1428 -0.15679,0.0341 -3.9597,-5.0855 -2.5,-7.1428 z"
               sodipodi:nodetypes="aaca"
               style="fill:#ffa900"
               inkscape:connector-curvature="0" />
            <path
               id="path2995-6"
               d="m 166.53,454.32 c 1.0677,-1.5049 4.5176,-1.5389 5.5357,0 1.4274,2.1576 -2.6486,7.9545 -3.0357,7.1428 -0.15679,0.0341 -3.9597,-5.0855 -2.5,-7.1428 z"
               sodipodi:nodetypes="aaca"
               style="fill:#ffa900"
               inkscape:connector-curvature="0" />
            <path
               id="path2995-73"
               d="m 211.53,437.89 c 1.0677,-1.5049 4.5176,-1.5389 5.5357,0 1.4274,2.1576 -2.6486,7.9545 -3.0357,7.1428 -0.15679,0.0341 -3.9597,-5.0855 -2.5,-7.1428 z"
               sodipodi:nodetypes="aaca"
               style="fill:#ffa900"
               inkscape:connector-curvature="0" />
            <path
               id="path2995-90"
               d="m 253.68,395.75 c 1.0677,-1.5049 4.5176,-1.5389 5.5357,0 1.4274,2.1576 -2.6486,7.9545 -3.0357,7.1428 -0.15679,0.0341 -3.9597,-5.0855 -2.5,-7.1428 z"
               sodipodi:nodetypes="aaca"
               style="fill:#ffa900"
               inkscape:connector-curvature="0" />
            <path
               id="path2995-39"
               d="m 253.68,350.75 c 1.0677,-1.5049 4.5176,-1.5389 5.5357,0 1.4274,2.1576 -2.6486,7.9545 -3.0357,7.1428 -0.15679,0.0341 -3.9597,-5.0855 -2.5,-7.1428 z"
               sodipodi:nodetypes="aaca"
               style="fill:#ffa900"
               inkscape:connector-curvature="0" />
            <path
               id="path2995-96"
               d="m 185.1,335.04 c 1.0677,-1.5049 4.5176,-1.5389 5.5357,0 1.4274,2.1576 -2.6486,7.9545 -3.0357,7.1428 -0.15679,0.0341 -3.9597,-5.0855 -2.5,-7.1428 z"
               sodipodi:nodetypes="aaca"
               style="fill:#ffa900"
               inkscape:connector-curvature="0" />
            <path
               id="path2995-0"
               d="m 139.39,374.32 c 1.0677,-1.5049 4.5176,-1.5389 5.5357,0 1.4274,2.1576 -2.6486,7.9545 -3.0357,7.1428 -0.15679,0.0341 -3.9597,-5.0855 -2.5,-7.1428 z"
               sodipodi:nodetypes="aaca"
               style="fill:#ffa900"
               inkscape:connector-curvature="0" />
            <path
               id="path2995-20"
               d="m 139.39,421.47 c 1.0677,-1.5049 4.5176,-1.5389 5.5357,0 1.4274,2.1576 -2.6486,7.9545 -3.0357,7.1428 -0.15679,0.0341 -3.9597,-5.0855 -2.5,-7.1428 z"
               sodipodi:nodetypes="aaca"
               style="fill:#ffa900"
               inkscape:connector-curvature="0" />
            <path
               id="path2995-31"
               d="m 180.82,488.61 c 1.0677,-1.5049 4.5176,-1.5389 5.5357,0 1.4274,2.1576 -2.6486,7.9545 -3.0357,7.1428 -0.15679,0.0341 -3.9597,-5.0855 -2.5,-7.1428 z"
               sodipodi:nodetypes="aaca"
               style="fill:#ffa900"
               inkscape:connector-curvature="0" />
            <path
               id="path2995-72"
               d="m 231.53,471.47 c 1.0677,-1.5049 4.5176,-1.5389 5.5357,0 1.4274,2.1576 -2.6486,7.9545 -3.0357,7.1428 -0.15679,0.0341 -3.9597,-5.0855 -2.5,-7.1428 z"
               sodipodi:nodetypes="aaca"
               style="fill:#ffa900"
               inkscape:connector-curvature="0" />
            <path
               id="path2995-81"
               d="m 244.39,417.18 c 1.0677,-1.5049 4.5176,-1.5389 5.5357,0 1.4274,2.1576 -2.6486,7.9545 -3.0357,7.1428 -0.15679,0.0341 -3.9597,-5.0855 -2.5,-7.1428 z"
               sodipodi:nodetypes="aaca"
               style="fill:#ffa900"
               inkscape:connector-curvature="0" />
            <path
               id="path2995-5"
               d="m 270.82,412.18 c 1.0677,-1.5049 4.5176,-1.5389 5.5357,0 1.4274,2.1576 -2.6486,7.9545 -3.0357,7.1428 -0.15679,0.0341 -3.9597,-5.0855 -2.5,-7.1428 z"
               sodipodi:nodetypes="aaca"
               style="fill:#ffa900"
               inkscape:connector-curvature="0" />
            <path
               id="path2995-220"
               d="m 246.53,455.04 c 1.0677,-1.5049 4.5176,-1.5389 5.5357,0 1.4274,2.1576 -2.6486,7.9545 -3.0357,7.1428 -0.15679,0.0341 -3.9597,-5.0855 -2.5,-7.1428 z"
               sodipodi:nodetypes="aaca"
               style="fill:#ffa900"
               inkscape:connector-curvature="0" />
            <path
               id="path2995-11"
               d="m 265.1,453.61 c 1.0677,-1.5049 4.5176,-1.5389 5.5357,0 1.4274,2.1576 -2.6486,7.9545 -3.0357,7.1428 -0.15679,0.0341 -3.9597,-5.0855 -2.5,-7.1428 z"
               sodipodi:nodetypes="aaca"
               style="fill:#ffa900"
               inkscape:connector-curvature="0" />
            <path
               id="path2995-88"
               d="m 217.96,495.04 c 1.0677,-1.5049 4.5176,-1.5389 5.5357,0 1.4274,2.1576 -2.6486,7.9545 -3.0357,7.1428 -0.15679,0.0341 -3.9597,-5.0855 -2.5,-7.1428 z"
               sodipodi:nodetypes="aaca"
               style="fill:#ffa900"
               inkscape:connector-curvature="0" />
            <path
               id="path2995-54"
               d="m 192.96,500.75 c 1.0677,-1.5049 4.5176,-1.5389 5.5357,0 1.4274,2.1576 -2.6486,7.9545 -3.0357,7.1428 -0.15679,0.0341 -3.9597,-5.0855 -2.5,-7.1428 z"
               sodipodi:nodetypes="aaca"
               style="fill:#ffa900"
               inkscape:connector-curvature="0" />
            <path
               id="path2995-844"
               d="m 142.25,467.89 c 1.0677,-1.5049 4.5176,-1.5389 5.5357,0 1.4274,2.1576 -2.6486,7.9545 -3.0357,7.1428 -0.15679,0.0341 -3.9597,-5.0855 -2.5,-7.1428 z"
               sodipodi:nodetypes="aaca"
               style="fill:#ffa900"
               inkscape:connector-curvature="0" />
            <path
               id="path2995-19"
               d="m 122.25,430.75 c 1.0677,-1.5049 4.5176,-1.5389 5.5357,0 1.4274,2.1576 -2.6486,7.9545 -3.0357,7.1428 -0.15679,0.0341 -3.9597,-5.0855 -2.5,-7.1428 z"
               sodipodi:nodetypes="aaca"
               style="fill:#ffa900"
               inkscape:connector-curvature="0" />
            <path
               id="path2995-82"
               d="m 117.96,392.89 c 1.0677,-1.5049 4.5176,-1.5389 5.5357,0 1.4274,2.1576 -2.6486,7.9545 -3.0357,7.1428 -0.15679,0.0341 -3.9597,-5.0855 -2.5,-7.1428 z"
               sodipodi:nodetypes="aaca"
               style="fill:#ffa900"
               inkscape:connector-curvature="0" />
            <path
               id="path2995-53"
               d="m 110.82,360.75 c 1.0677,-1.5049 4.5176,-1.5389 5.5357,0 1.4274,2.1576 -2.6486,7.9545 -3.0357,7.1428 -0.15679,0.0341 -3.9597,-5.0855 -2.5,-7.1428 z"
               sodipodi:nodetypes="aaca"
               style="fill:#ffa900"
               inkscape:connector-curvature="0" />
            <path
               id="path2995-68"
               d="m 132.25,347.89 c 1.0677,-1.5049 4.5176,-1.5389 5.5357,0 1.4274,2.1576 -2.6486,7.9545 -3.0357,7.1428 -0.15679,0.0341 -3.9597,-5.0855 -2.5,-7.1428 z"
               sodipodi:nodetypes="aaca"
               style="fill:#ffa900"
               inkscape:connector-curvature="0" />
            <path
               id="path2995-85"
               d="m 168.68,307.18 c 1.0677,-1.5049 4.5176,-1.5389 5.5357,0 1.4274,2.1576 -2.6486,7.9545 -3.0357,7.1428 -0.15679,0.0341 -3.9597,-5.0855 -2.5,-7.1428 z"
               sodipodi:nodetypes="aaca"
               style="fill:#ffa900"
               inkscape:connector-curvature="0" />
            <path
               id="path2995-07"
               d="m 202.96,309.32 c 1.0677,-1.5049 4.5176,-1.5389 5.5357,0 1.4274,2.1576 -2.6486,7.9545 -3.0357,7.1428 -0.15679,0.0341 -3.9597,-5.0855 -2.5,-7.1428 z"
               sodipodi:nodetypes="aaca"
               style="fill:#ffa900"
               inkscape:connector-curvature="0" />
            <path
               id="path2995-01"
               d="m 239.39,307.18 c 1.0677,-1.5049 4.5176,-1.5389 5.5357,0 1.4274,2.1576 -2.6486,7.9545 -3.0357,7.1428 -0.15679,0.0341 -3.9597,-5.0855 -2.5,-7.1428 z"
               sodipodi:nodetypes="aaca"
               style="fill:#ffa900"
               inkscape:connector-curvature="0" />
            <path
               id="path2995-66"
               d="m 237.96,343.61 c 1.0677,-1.5049 4.5176,-1.5389 5.5357,0 1.4274,2.1576 -2.6486,7.9545 -3.0357,7.1428 -0.15679,0.0341 -3.9597,-5.0855 -2.5,-7.1428 z"
               sodipodi:nodetypes="aaca"
               style="fill:#ffa900"
               inkscape:connector-curvature="0" />
            <path
               id="path2995-02"
               d="m 204.39,334.32 c 1.0677,-1.5049 4.5176,-1.5389 5.5357,0 1.4274,2.1576 -2.6486,7.9545 -3.0357,7.1428 -0.15679,0.0341 -3.9597,-5.0855 -2.5,-7.1428 z"
               sodipodi:nodetypes="aaca"
               style="fill:#ffa900"
               inkscape:connector-curvature="0" />
            <path
               id="path2995-23"
               d="m 270.1,335.75 c 1.0677,-1.5049 4.5176,-1.5389 5.5357,0 1.4274,2.1576 -2.6486,7.9545 -3.0357,7.1428 -0.15679,0.0341 -3.9597,-5.0855 -2.5,-7.1428 z"
               sodipodi:nodetypes="aaca"
               style="fill:#ffa900"
               inkscape:connector-curvature="0" />
            <path
               id="path2995-69"
               d="m 250.1,372.18 c 1.0677,-1.5049 4.5176,-1.5389 5.5357,0 1.4274,2.1576 -2.6486,7.9545 -3.0357,7.1428 -0.15679,0.0341 -3.9597,-5.0855 -2.5,-7.1428 z"
               sodipodi:nodetypes="aaca"
               style="fill:#ffa900"
               inkscape:connector-curvature="0" />
            <path
               id="path2995-58"
               d="m 287.25,367.89 c 1.0677,-1.5049 4.5176,-1.5389 5.5357,0 1.4274,2.1576 -2.6486,7.9545 -3.0357,7.1428 -0.15679,0.0341 -3.9597,-5.0855 -2.5,-7.1428 z"
               sodipodi:nodetypes="aaca"
               style="fill:#ffa900"
               inkscape:connector-curvature="0" />
            <path
               id="path2995-32"
               d="m 265.82,384.32 c 1.0677,-1.5049 4.5176,-1.5389 5.5357,0 1.4274,2.1576 -2.6486,7.9545 -3.0357,7.1428 -0.15679,0.0341 -3.9597,-5.0855 -2.5,-7.1428 z"
               sodipodi:nodetypes="aaca"
               style="fill:#ffa900"
               inkscape:connector-curvature="0" />
            <path
               id="path2995-076"
               d="m 280.82,343.61 c 1.0677,-1.5049 4.5176,-1.5389 5.5357,0 1.4274,2.1576 -2.6486,7.9545 -3.0357,7.1428 -0.15679,0.0341 -3.9597,-5.0855 -2.5,-7.1428 z"
               sodipodi:nodetypes="aaca"
               style="fill:#ffa900"
               inkscape:connector-curvature="0" />
            <path
               id="path2995-47"
               d="m 253.68,319.32 c 1.0677,-1.5049 4.5176,-1.5389 5.5357,0 1.4274,2.1576 -2.6486,7.9545 -3.0357,7.1428 -0.15679,0.0341 -3.9597,-5.0855 -2.5,-7.1428 z"
               sodipodi:nodetypes="aaca"
               style="fill:#ffa900"
               inkscape:connector-curvature="0" />
            <path
               id="path2995-74"
               d="m 157.96,330.75 c 1.0677,-1.5049 4.5176,-1.5389 5.5357,0 1.4274,2.1576 -2.6486,7.9545 -3.0357,7.1428 -0.15679,0.0341 -3.9597,-5.0855 -2.5,-7.1428 z"
               sodipodi:nodetypes="aaca"
               style="fill:#ffa900"
               inkscape:connector-curvature="0" />
            <path
               id="path2995-319"
               d="m 164.39,379.32 c 1.0677,-1.5049 4.5176,-1.5389 5.5357,0 1.4274,2.1576 -2.6486,7.9545 -3.0357,7.1428 -0.15679,0.0341 -3.9597,-5.0855 -2.5,-7.1428 z"
               sodipodi:nodetypes="aaca"
               style="fill:#ffa900"
               inkscape:connector-curvature="0" />
            <path
               id="path2995-821"
               d="m 198.68,420.75 c 1.0677,-1.5049 4.5176,-1.5389 5.5357,0 1.4274,2.1576 -2.6486,7.9545 -3.0357,7.1428 -0.15679,0.0341 -3.9597,-5.0855 -2.5,-7.1428 z"
               sodipodi:nodetypes="aaca"
               style="fill:#ffa900"
               inkscape:connector-curvature="0" />
            <path
               id="path2995-00"
               d="m 163.68,425.04 c 1.0677,-1.5049 4.5176,-1.5389 5.5357,0 1.4274,2.1576 -2.6486,7.9545 -3.0357,7.1428 -0.15679,0.0341 -3.9597,-5.0855 -2.5,-7.1428 z"
               sodipodi:nodetypes="aaca"
               style="fill:#ffa900"
               inkscape:connector-curvature="0" />
            <path
               id="path2995-586"
               d="m 135.82,450.75 c 1.0677,-1.5049 4.5176,-1.5389 5.5357,0 1.4274,2.1576 -2.6486,7.9545 -3.0357,7.1428 -0.15679,0.0341 -3.9597,-5.0855 -2.5,-7.1428 z"
               sodipodi:nodetypes="aaca"
               style="fill:#ffa900"
               inkscape:connector-curvature="0" />
            <path
               id="path2995-40"
               d="m 187.25,385.75 c 1.0677,-1.5049 4.5176,-1.5389 5.5357,0 1.4274,2.1576 -2.6486,7.9545 -3.0357,7.1428 -0.15679,0.0341 -3.9597,-5.0855 -2.5,-7.1428 z"
               sodipodi:nodetypes="aaca"
               style="fill:#ffa900"
               inkscape:connector-curvature="0" />
            <path
               id="path2995-52"
               d="m 229.39,387.18 c 1.0677,-1.5049 4.5176,-1.5389 5.5357,0 1.4274,2.1576 -2.6486,7.9545 -3.0357,7.1428 -0.15679,0.0341 -3.9597,-5.0855 -2.5,-7.1428 z"
               sodipodi:nodetypes="aaca"
               style="fill:#ffa900"
               inkscape:connector-curvature="0" />
            <path
               id="path2995-51"
               d="m 229.39,435.04 c 1.0677,-1.5049 4.5176,-1.5389 5.5357,0 1.4274,2.1576 -2.6486,7.9545 -3.0357,7.1428 -0.15679,0.0341 -3.9597,-5.0855 -2.5,-7.1428 z"
               sodipodi:nodetypes="aaca"
               style="fill:#ffa900"
               inkscape:connector-curvature="0" />
            <path
               id="path2995-57"
               d="m 207.96,474.32 c 1.0677,-1.5049 4.5176,-1.5389 5.5357,0 1.4274,2.1576 -2.6486,7.9545 -3.0357,7.1428 -0.15679,0.0341 -3.9597,-5.0855 -2.5,-7.1428 z"
               sodipodi:nodetypes="aaca"
               style="fill:#ffa900"
               inkscape:connector-curvature="0" />
            <path
               id="path2995-842"
               d="m 257.25,431.47 c 1.0677,-1.5049 4.5176,-1.5389 5.5357,0 1.4274,2.1576 -2.6486,7.9545 -3.0357,7.1428 -0.15679,0.0341 -3.9597,-5.0855 -2.5,-7.1428 z"
               sodipodi:nodetypes="aaca"
               style="fill:#ffa900"
               inkscape:connector-curvature="0" />
            <path
               id="path2995-95"
               d="m 220.1,414.32 c 1.0677,-1.5049 4.5176,-1.5389 5.5357,0 1.4274,2.1576 -2.6486,7.9545 -3.0357,7.1428 -0.15679,0.0341 -3.9597,-5.0855 -2.5,-7.1428 z"
               sodipodi:nodetypes="aaca"
               style="fill:#ffa900"
               inkscape:connector-curvature="0" />
            <path
               id="path2995-64"
               d="m 200.82,350.04 c 1.0677,-1.5049 4.5176,-1.5389 5.5357,0 1.4274,2.1576 -2.6486,7.9545 -3.0357,7.1428 -0.15679,0.0341 -3.9597,-5.0855 -2.5,-7.1428 z"
               sodipodi:nodetypes="aaca"
               style="fill:#ffa900"
               inkscape:connector-curvature="0" />
            <path
               id="path2995-91"
               d="m 222.96,334.32 c 1.0677,-1.5049 4.5176,-1.5389 5.5357,0 1.4274,2.1576 -2.6486,7.9545 -3.0357,7.1428 -0.15679,0.0341 -3.9597,-5.0855 -2.5,-7.1428 z"
               sodipodi:nodetypes="aaca"
               style="fill:#ffa900"
               inkscape:connector-curvature="0" />
            <path
               id="path2995-012"
               d="m 178.68,444.32 c 1.0677,-1.5049 4.5176,-1.5389 5.5357,0 1.4274,2.1576 -2.6486,7.9545 -3.0357,7.1428 -0.15679,0.0341 -3.9597,-5.0855 -2.5,-7.1428 z"
               sodipodi:nodetypes="aaca"
               style="fill:#ffa900"
               inkscape:connector-curvature="0" />
            <path
               id="path2995-956"
               d="m 156.53,475.04 c 1.0677,-1.5049 4.5176,-1.5389 5.5357,0 1.4274,2.1576 -2.6486,7.9545 -3.0357,7.1428 -0.15679,0.0341 -3.9597,-5.0855 -2.5,-7.1428 z"
               sodipodi:nodetypes="aaca"
               style="fill:#ffa900"
               inkscape:connector-curvature="0" />
            <path
               id="path2995-323"
               d="m 152.25,439.32 c 1.0677,-1.5049 4.5176,-1.5389 5.5357,0 1.4274,2.1576 -2.6486,7.9545 -3.0357,7.1428 -0.15679,0.0341 -3.9597,-5.0855 -2.5,-7.1428 z"
               sodipodi:nodetypes="aaca"
               style="fill:#ffa900"
               inkscape:connector-curvature="0" />
            <path
               id="path2995-743"
               d="m 132.25,398.61 c 1.0677,-1.5049 4.5176,-1.5389 5.5357,0 1.4274,2.1576 -2.6486,7.9545 -3.0357,7.1428 -0.15679,0.0341 -3.9597,-5.0855 -2.5,-7.1428 z"
               sodipodi:nodetypes="aaca"
               style="fill:#ffa900"
               inkscape:connector-curvature="0" />
            <path
               id="path2995-58-4"
               d="m 275.82,397.18 c 1.0677,-1.5049 4.5176,-1.5389 5.5357,0 1.4274,2.1576 -2.6486,7.9545 -3.0357,7.1428 -0.15679,0.0341 -3.9597,-5.0855 -2.5,-7.1428 z"
               sodipodi:nodetypes="aaca"
               style="fill:#ffa900"
               inkscape:connector-curvature="0" />
          </g>
          <path
             id="path2995-011"
             inkscape:connector-curvature="0"
             sodipodi:nodetypes="aaca"
             style="fill:#ffa900"
             d="m 137.96,397.18 c 1.0677,-1.5049 4.5176,-1.5389 5.5357,0 1.4274,2.1576 -2.6486,7.9545 -3.0357,7.1428 -0.15679,0.0341 -3.9597,-5.0855 -2.5,-7.1428 z" />
          <path
             id="path2995-26"
             inkscape:connector-curvature="0"
             sodipodi:nodetypes="aaca"
             style="fill:#ffa900"
             d="m 164.39,431.47 c 1.0677,-1.5049 4.5176,-1.5389 5.5357,0 1.4274,2.1576 -2.6486,7.9545 -3.0357,7.1428 -0.15679,0.0341 -3.9597,-5.0855 -2.5,-7.1428 z" />
          <path
             id="path2995-43"
             inkscape:connector-curvature="0"
             sodipodi:nodetypes="aaca"
             style="fill:#ffa900"
             d="m 167.25,339.32 c 1.0677,-1.5049 4.5176,-1.5389 5.5357,0 1.4274,2.1576 -2.6486,7.9545 -3.0357,7.1428 -0.15679,0.0341 -3.9597,-5.0855 -2.5,-7.1428 z" />
          <path
             id="path2995-27"
             inkscape:connector-curvature="0"
             sodipodi:nodetypes="aaca"
             style="fill:#ffa900"
             d="m 271.53,302.18 c 1.0677,-1.5049 4.5176,-1.5389 5.5357,0 1.4274,2.1576 -2.6486,7.9545 -3.0357,7.1428 -0.15679,0.0341 -3.9597,-5.0855 -2.5,-7.1428 z" />
          <path
             id="path2995-63"
             inkscape:connector-curvature="0"
             sodipodi:nodetypes="aaca"
             style="fill:#ffa900"
             d="m 196.53,250.04 c 1.0677,-1.5049 4.5176,-1.5389 5.5357,0 1.4274,2.1576 -2.6486,7.9545 -3.0357,7.1428 -0.15679,0.0341 -3.9597,-5.0855 -2.5,-7.1428 z" />
          <path
             id="path2995-35"
             inkscape:connector-curvature="0"
             sodipodi:nodetypes="aaca"
             style="fill:#ffa900"
             d="m 163.68,284.32 c 1.0677,-1.5049 4.5176,-1.5389 5.5357,0 1.4274,2.1576 -2.6486,7.9545 -3.0357,7.1428 -0.15679,0.0341 -3.9597,-5.0855 -2.5,-7.1428 z" />
          <path
             id="path2995-359"
             inkscape:connector-curvature="0"
             sodipodi:nodetypes="aaca"
             style="fill:#ffa900"
             d="m 115.1,309.32 c 1.0677,-1.5049 4.5176,-1.5389 5.5357,0 1.4274,2.1576 -2.6486,7.9545 -3.0357,7.1428 -0.15679,0.0341 -3.9597,-5.0855 -2.5,-7.1428 z" />
          <path
             id="path2995-99"
             inkscape:connector-curvature="0"
             sodipodi:nodetypes="aaca"
             style="fill:#ffa900"
             d="m 217.96,412.89 c 1.0677,-1.5049 4.5176,-1.5389 5.5357,0 1.4274,2.1576 -2.6486,7.9545 -3.0357,7.1428 -0.15679,0.0341 -3.9597,-5.0855 -2.5,-7.1428 z" />
        </g>
        <path
           id="path4719"
           d="m 148.86,235.49 c -44.07,21.508 -29.236,37.971 -50.293,50.533 32.534,3.6294 54.323,-22.625 78.992,-43.614 1.8481,35.574 -44.274,74.012 -44.274,74.012 0,0 34.609,-10.723 54.762,-33.031 50.136,-91.059 15.193,48.461 93.91,30.174 -24.762,-10.432 -34.939,0.65666 -29.008,-72.673 7.2169,22.021 44.128,93.864 51.331,58.526 -16.404,-7.2615 2.7422,-79.223 -95.238,-80.622 -48.853,3.4224 -43.907,13.273 -60.183,16.696 z"
           sodipodi:nodetypes="cccccccccc"
           style="fill:#41ce00"
           inkscape:connector-curvature="0" />
        <path
           id="path5592"
           sodipodi:rx="14.642858"
           sodipodi:ry="7.1428571"
           style="fill:#576157;fill-rule:evenodd"
           sodipodi:type="arc"
           d="m 228.57143,230.93361 a 14.642858,7.1428571 0 0 1 -14.55961,7.14274 14.642858,7.1428571 0 0 1 -14.72516,-7.06153 14.642858,7.1428571 0 0 1 14.3922,-7.22303 14.642858,7.1428571 0 0 1 14.88879,6.97941"
           sodipodi:open="true"
           transform="translate(-2.1429,-1.4286)"
           sodipodi:cy="230.93361"
           sodipodi:cx="213.92857"
           sodipodi:end="6.2604458"
           sodipodi:start="0"
           sodipodi:arc-type="arc" />
        <path
           id="path4721"
           d="m 219.19,131.2 c 3.2243,5.3597 7.2781,8.1621 12.703,6.7391 -14.618,49.921 -11.461,61.959 -16.553,91.578 -3.4154,2.3698 -6.7649,4.4683 -7.291,-5.0623 0.53264,-17.513 -3.9067,-13.816 11.142,-93.255 z"
           sodipodi:nodetypes="cccccc"
           style="fill:url(#linearGradient7243)"
           inkscape:connector-curvature="0" />
      </g>
      <path
         id="path5921-1"
         style="opacity:0.64504;fill:#ffffff;fill-opacity:0.27234"
         inkscape:connector-curvature="0"
         d="m 291.23,292.45 c 0.53924,0 1.1062,0.12424 1.6177,0 0.82552,-0.20048 0.79369,-0.77101 1.2133,-1.1786 0.22879,-0.22225 0.58009,-0.36707 0.80887,-0.58932 0.18087,-0.1757 0.19128,-0.43402 0.40444,-0.58932 2.0668,-1.5058 -0.56408,1.2355 1.6177,-0.88397 0.18086,-0.1757 0.19127,-0.43401 0.40443,-0.58931 0.88319,-0.64347 0.65664,-0.0613 1.6177,-0.29466 0.18086,-0.0439 0.2339,-0.23254 0.40443,-0.29466 0.12058,-0.0439 0.28386,0.0439 0.40444,0 0.17052,-0.0621 0.26962,-0.19644 0.40444,-0.29466 0.26961,-0.19644 0.59735,-0.35816 0.80886,-0.58931 0.16721,-0.18274 0.23722,-0.40658 0.40443,-0.58932 0.10576,-0.11557 0.26963,-0.19643 0.40444,-0.29465 0.13481,-0.0982 0.23391,-0.23254 0.40444,-0.29466 0.12057,-0.0439 0.26961,0 0.40443,0 0.26962,0 0.55308,0.0621 0.80887,0 0.30688,-0.0745 1.246,-1.0432 1.6177,-1.1786 0.71594,-0.26081 0.1382,0.43828 0.80886,-0.29466 0.16722,-0.18274 0.15363,-0.46749 0.40444,-0.58931 0.22434,-0.10897 0.55308,0.0621 0.80887,0 0.24711,-0.06 1.2769,-1.0131 1.6177,-1.1786 0.25082,-0.12182 0.55805,-0.17283 0.80887,-0.29465 0.31726,-0.1541 0.46782,-0.46508 0.80886,-0.58932 0.10457,-0.0381 2.14,0 2.4266,0 h 0.40444 c 0.13481,0 0.30911,-0.0695 0.40443,0 0.21316,0.1553 0.26963,0.39288 0.40444,0.58932 0.13481,0.19643 0.30911,0.38096 0.40444,0.58931 0.11548,0.25242 -0.0892,0.91868 0,1.1786 0.0731,0.21307 0.33132,0.37625 0.40443,0.58932 0.0917,0.26712 0,1.131 0,1.4733 v 6.1878 c 0,0.0982 0.0426,0.20148 0,0.29466 -0.28311,0.61879 -0.9302,1.1492 -1.2133,1.768 -0.40131,0.87714 0.95765,-0.60458 -0.40443,0.88397 -0.37093,0.40536 -0.62393,0.30305 -1.2133,0.58932 -0.15864,0.077 -0.23392,0.23253 -0.40444,0.29465 -0.12058,0.0439 -0.26963,0 -0.40443,0 -0.26963,0.0982 -0.55805,0.17283 -0.80888,0.29466 -0.15862,0.0771 -0.22356,0.25073 -0.40443,0.29466 -0.25578,0.0621 -0.55308,-0.0621 -0.80887,0 -0.18086,0.0439 -0.2339,0.23254 -0.40443,0.29466 -0.24559,0.0895 -2.181,-0.0895 -2.4266,0 -0.34105,0.12424 -0.46782,0.46507 -0.80887,0.58931 -0.12058,0.0439 -0.27654,-0.031 -0.40443,0 -0.28598,0.0695 -0.5229,0.22521 -0.80887,0.29466 -0.1279,0.031 -0.28386,-0.0439 -0.40444,0 -0.34105,0.12424 -0.44713,0.50147 -0.80887,0.58931 -0.25578,0.0621 -0.55307,-0.0621 -0.80886,0 -0.18087,0.0439 -0.23392,0.23254 -0.40444,0.29466 -0.12058,0.0439 -0.28385,-0.0439 -0.40444,0 -0.34104,0.12424 -0.46781,0.46508 -0.80887,0.58932 -0.24115,0.0879 -0.55307,-0.0621 -0.80886,0 -1.4662,0.35607 -0.28784,0.1398 -1.2133,0.58931 -0.20367,0.64918 -0.832,0.15575 -1.2133,0.29466 -0.17053,0.0621 -0.22357,0.25073 -0.40443,0.29466 -0.25579,0.0621 -0.55309,-0.0621 -0.80888,0 -0.18086,0.0439 -0.2339,0.23253 -0.40443,0.29465 -0.12058,0.0439 -0.28385,-0.0439 -0.40443,0 -0.17053,0.0621 -0.22357,0.25074 -0.40444,0.29466 -0.22366,0.0543 -2.0193,0 -2.4266,0 -0.13482,0 -0.28386,-0.0439 -0.40444,0 -0.17053,0.0621 -0.23391,0.23254 -0.40444,0.29466 -0.12057,0.0439 -0.26962,0 -0.40443,0 h -0.80886 0.80886 -1.2133 c -0.13482,0 -0.30911,0.0695 -0.40444,0 -0.0953,-0.0695 0.0426,-0.20148 0,-0.29466 -0.0953,-0.20835 -0.30911,-0.38096 -0.40443,-0.58931 -0.0426,-0.0932 0.0426,-0.20148 0,-0.29466 -0.0953,-0.20835 -0.30911,-0.38096 -0.40444,-0.58931 -0.0426,-0.0932 0.0603,-0.20681 0,-0.29466 -0.0853,-0.12424 -0.34414,-0.16289 -0.40443,-0.29466 -0.1279,-0.27954 0,-0.58932 0,-0.88397 v -4.1253 c 0,-0.16446 -0.0617,-1.3384 0,-1.4733 0.0603,-0.13177 0.34415,-0.16288 0.40443,-0.29466 0.0853,-0.18635 -0.0853,-0.40295 0,-0.58931 0.0603,-0.13178 0.26963,-0.19644 0.40444,-0.29466 0.13481,-0.0982 0.26962,-0.19644 0.40443,-0.29465 0.21292,-0.15513 0.99731,-0.80529 1.2133,-0.88398 0.12309,-0.0449 1.0312,0 1.2133,0 0.13481,0 0.30911,-0.0695 0.40444,0 0.0953,0.0694 0.0531,0.20438 0,0.29466 -0.35624,0.6056 -0.80888,1.1786 -1.2133,1.7679 z" />
    </g>
  </g>
  <metadata
     id="metadata89">
    <rdf:RDF>
      <cc:Work>
        <dc:format>image/svg+xml</dc:format>
        <dc:type
           rdf:resource="http://purl.org/dc/dcmitype/StillImage" />
        <cc:license
           rdf:resource="http://creativecommons.org/licenses/publicdomain/" />
        <dc:publisher>
          <cc:Agent
             rdf:about="http://openclipart.org/">
            <dc:title>Openclipart</dc:title>
          </cc:Agent>
        </dc:publisher>
      </cc:Work>
      <cc:License
         rdf:about="http://creativecommons.org/licenses/publicdomain/">
        <cc:permits
           rdf:resource="http://creativecommons.org/ns#Reproduction" />
        <cc:permits
           rdf:resource="http://creativecommons.org/ns#Distribution" />
        <cc:permits
           rdf:resource="http://creativecommons.org/ns#DerivativeWorks" />
      </cc:License>
    </rdf:RDF>
  </metadata>
</svg>
