<svg width="140" height="140" xmlns="http://www.w3.org/2000/svg"><defs><clipPath clipPathUnits="userSpaceOnUse" id="prefix__a"><path d="M0 1200h1200V0H0z"/></clipPath></defs><g clip-path="url(#prefix__a)" transform="matrix(.15725 0 0 -.15725 -25.334 175.222)"><path d="M434.204 1068.764c-220.714-95.018-322.611-350.97-227.596-571.682 95.016-220.713 350.969-322.609 571.68-227.594 220.715 95.016 322.612 350.967 227.592 571.68-95.013 220.714-350.964 322.612-571.676 227.596" fill="#d46943"/><path d="M660.438 1100.9c-34.771-5.593-69.42-15.52-103.248-30.082-220.71-95.018-322.608-350.966-227.592-571.68C392.793 352.34 527.18 258.105 675.044 239.404 482.91 208.5 287.066 310.191 206.607 497.082c-95.015 220.716 6.882 476.664 227.596 571.68 73.916 31.822 151.782 41.554 226.234 32.138" fill="#bc512b"/><path d="M578.262 1049.652c36.154-32.585 71.08-80.006 108.063-130.207 45.162-61.312 91.865-124.71 146.76-170.222 8.916-7.39 17.678-13.823 26.283-19.314 41.414 130.934 27.873 226.866-40.444 315.6l13.369-2.65c45.09-58.57 67.4-107.598 67.596-176.994.122-43.3-8.254-91.183-25.395-144.712 25.734-13.334 49.907-17.725 72.218-13.063 41.794 8.73 67.626 43.905 78.686 65.854l4.893-9.293c-12.455-24.72-31.18-63.235-80.051-73.445-25.588-5.344-52.785-.828-81.257 13.414-9.22-26.635-20.523-54.635-33.953-84.135 73.982-38.16 136.953-77.665 172.12-114.126l-6.472-15.092c-33.823 35.071-100.755 76.447-172.865 113.635-15.618-33.262-31.267-63.879-47.027-91.982 39.12-21.258 64.603-49.819 75.849-85.127 14-43.953 3.206-88.01-28.99-141.539l-13.706-3.207c29.563 49.156 38.716 100.423 26.265 139.511-9.86 30.98-32.704 56.272-67.973 75.38-30.574-52.624-61.635-95.972-93.82-131.028-31.811-34.654-65.668-62.154-100.625-81.744-38.187-21.403-69.404-31.059-111.87-34.83l-12.79 7.904c115.983 10.3 213.304 91.994 303.63 247.324-.697.315-1.386.63-2.091.94-80.63 35.287-191.436 13.31-250.967 1.503-17.88-3.546-32.004-6.345-40.846-6.82-6.858-.365-19.015-2.492-34.408-5.178-64.98-11.345-177.992-31.082-236.697 22.094l-.268 9.274c52.458-47.52 171.919-25.219 234-14.377 15.958 2.783 28.566 4.986 36.45 5.408 7.616.408 21.208 3.105 38.415 6.517C561.73 537.1 675.993 559.761 761.58 522.3c1.272-.554 2.524-1.123 3.774-1.69 15.82 28.195 31.488 58.892 47.085 92.133-84.802 42.775-178.104 82.342-244.845 109.26-183.627 74.064-344.545 127.878-360.22 126.775l3.515 9.271c23.303 2.297 201.586-54.93 362.11-119.63 67.166-27.072 160.959-66.844 246.656-110.094 13.574 29.834 24.96 58.01 34.155 84.742-10.425 6.37-21.003 13.986-31.733 22.881-56.517 46.853-103.86 111.121-149.64 173.268-72.62 98.584-136.486 188.03-210.538 168.24l8.175 6.165c38.982 10.42 66.648 3.474 108.187-33.969" fill="#f18347"/><path d="M582.516 1053.273c36.152-32.588 71.082-80.006 108.06-130.207 45.166-61.313 91.868-124.712 146.763-170.222 8.914-7.39 17.678-13.828 26.282-19.314 41.412 130.934 27.874 226.866-40.444 315.6l13.368-2.656c45.09-58.565 67.4-107.592 67.596-176.988.124-43.303-8.253-91.183-25.395-144.713 25.734-13.333 49.907-17.727 72.218-13.065 41.796 8.732 67.63 43.908 78.685 65.857l4.896-9.294c-12.455-24.72-31.18-63.235-80.053-73.445-25.589-5.346-52.782-.828-81.255 13.413-9.219-26.633-20.522-54.636-33.956-84.136 73.983-38.159 136.953-77.662 172.123-114.127l-6.47-15.092c-33.827 35.071-100.756 76.45-172.867 113.638-15.62-33.265-31.266-63.878-47.028-91.98 39.122-21.259 64.606-49.822 75.85-85.132 14-43.95 3.207-88.008-28.99-141.539l-13.709-3.205c29.565 49.156 38.717 100.421 26.266 139.511-9.858 30.981-32.7 56.272-67.972 75.38-30.573-52.623-61.635-95.971-93.818-131.027-31.814-34.652-65.668-62.156-100.626-81.744-38.189-21.401-69.404-31.061-111.87-34.83l-12.789 7.904c115.983 10.3 213.301 91.994 303.63 247.324-.698.315-1.388.629-2.092.942-80.628 35.287-191.436 13.31-250.967 1.502-17.88-3.547-32.004-6.348-40.848-6.82-6.858-.368-19.013-2.491-34.406-5.18-64.982-11.344-177.992-31.081-236.699 22.09l-.266 9.277c52.458-47.52 171.92-25.217 234-14.377 15.956 2.787 28.566 4.986 36.45 5.41 7.614.406 21.208 3.103 38.415 6.516 61.384 12.175 175.648 34.838 261.235-2.624a247.898 247.898 0 003.774-1.693c15.823 28.199 31.49 58.894 47.086 92.135-84.803 42.777-178.103 82.342-244.844 109.262-183.627 74.063-344.547 127.872-360.22 126.774l3.516 9.271c23.302 2.297 201.583-54.932 362.11-119.63 67.166-27.072 160.96-66.844 246.655-110.094 13.572 29.834 24.96 58.008 34.153 84.742-10.424 6.37-21.006 13.986-31.73 22.877-56.522 46.857-103.86 111.125-149.642 173.272-72.619 98.584-136.486 188.028-210.539 168.237l8.175 6.167c38.982 10.421 66.65 3.472 108.19-33.968" fill="#352719"/><path d="M435.664 1065.37c-218.49-94.06-319.72-348.335-225.662-566.825C304.06 280.053 558.34 178.822 776.828 272.883c218.488 94.058 319.72 348.336 225.66 566.824-94.059 218.49-348.336 319.722-566.824 225.662M161.112 666.092c-.368 57.541 10.285 113.943 31.666 167.641 21.376 53.7 52.403 101.991 92.217 143.534 41.22 43.012 90.098 76.865 145.278 100.622 55.181 23.755 113.366 35.991 172.94 36.374 57.538.366 113.942-10.289 167.64-31.667 53.701-21.38 101.992-52.407 143.535-92.217 43.011-41.22 76.865-90.102 100.621-145.285 23.755-55.177 35.993-113.365 36.373-172.935.366-57.54-10.287-113.943-31.666-167.644-21.38-53.699-52.406-101.988-92.219-143.53-41.219-43.014-90.099-76.868-145.28-100.622-55.178-23.756-113.366-35.996-172.938-36.373-57.54-.367-113.943 10.287-167.642 31.666-53.698 21.377-101.992 52.404-143.535 92.217-43.01 41.221-76.862 90.1-100.619 145.28-23.756 55.181-35.993 113.368-36.37 172.94"/><path d="M434.204 1068.764c-220.714-95.018-322.611-350.97-227.596-571.682 95.016-220.713 350.969-322.609 571.68-227.594 220.715 95.016 322.612 350.967 227.592 571.68-95.013 220.714-350.964 322.612-571.676 227.596" fill="#d46943"/><path d="M660.438 1100.9c-34.771-5.593-69.42-15.52-103.248-30.082-220.71-95.018-322.608-350.966-227.592-571.68C392.793 352.34 527.18 258.105 675.044 239.404 482.91 208.5 287.066 310.191 206.607 497.082c-95.015 220.716 6.882 476.664 227.596 571.68 73.916 31.822 151.782 41.554 226.234 32.138" fill="#bc512b"/><path d="M578.262 1049.652c36.154-32.585 71.08-80.006 108.063-130.207 45.162-61.312 91.865-124.71 146.76-170.222 8.916-7.39 17.678-13.823 26.283-19.314 41.414 130.934 27.873 226.866-40.444 315.6l13.369-2.65c45.09-58.57 67.4-107.598 67.596-176.994.122-43.3-8.254-91.183-25.395-144.712 25.734-13.334 49.907-17.725 72.218-13.063 41.794 8.73 67.626 43.905 78.686 65.854l4.893-9.293c-12.455-24.72-31.18-63.235-80.051-73.445-25.588-5.344-52.785-.828-81.257 13.414-9.22-26.635-20.523-54.635-33.953-84.135 73.982-38.16 136.953-77.665 172.12-114.126l-6.472-15.092c-33.823 35.071-100.755 76.447-172.865 113.635-15.618-33.262-31.267-63.879-47.027-91.982 39.12-21.258 64.603-49.819 75.849-85.127 14-43.953 3.206-88.01-28.99-141.539l-13.706-3.207c29.563 49.156 38.716 100.423 26.265 139.511-9.86 30.98-32.704 56.272-67.973 75.38-30.574-52.624-61.635-95.972-93.82-131.028-31.811-34.654-65.668-62.154-100.625-81.744-38.187-21.403-69.404-31.059-111.87-34.83l-12.79 7.904c115.983 10.3 213.304 91.994 303.63 247.324-.697.315-1.386.63-2.091.94-80.63 35.287-191.436 13.31-250.967 1.503-17.88-3.546-32.004-6.345-40.846-6.82-6.858-.365-19.015-2.492-34.408-5.178-64.98-11.345-177.992-31.082-236.697 22.094l-.268 9.274c52.458-47.52 171.919-25.219 234-14.377 15.958 2.783 28.566 4.986 36.45 5.408 7.616.408 21.208 3.105 38.415 6.517C561.73 537.1 675.993 559.761 761.58 522.3c1.272-.554 2.524-1.123 3.774-1.69 15.82 28.195 31.488 58.892 47.085 92.133-84.802 42.775-178.104 82.342-244.845 109.26-183.627 74.064-344.545 127.878-360.22 126.775l3.515 9.271c23.303 2.297 201.586-54.93 362.11-119.63 67.166-27.072 160.959-66.844 246.656-110.094 13.574 29.834 24.96 58.01 34.155 84.742-10.425 6.37-21.003 13.986-31.733 22.881-56.517 46.853-103.86 111.121-149.64 173.268-72.62 98.584-136.486 188.03-210.538 168.24l8.175 6.165c38.982 10.42 66.648 3.474 108.187-33.969" fill="#f18347"/><path d="M582.516 1053.273c36.152-32.588 71.082-80.006 108.06-130.207 45.166-61.313 91.868-124.712 146.763-170.222 8.914-7.39 17.678-13.828 26.282-19.314 41.412 130.934 27.874 226.866-40.444 315.6l13.368-2.656c45.09-58.565 67.4-107.592 67.596-176.988.124-43.303-8.253-91.183-25.395-144.713 25.734-13.333 49.907-17.727 72.218-13.065 41.796 8.732 67.63 43.908 78.685 65.857l4.896-9.294c-12.455-24.72-31.18-63.235-80.053-73.445-25.589-5.346-52.782-.828-81.255 13.413-9.219-26.633-20.522-54.636-33.956-84.136 73.983-38.159 136.953-77.662 172.123-114.127l-6.47-15.092c-33.827 35.071-100.756 76.45-172.867 113.638-15.62-33.265-31.266-63.878-47.028-91.98 39.122-21.259 64.606-49.822 75.85-85.132 14-43.95 3.207-88.008-28.99-141.539l-13.709-3.205c29.565 49.156 38.717 100.421 26.266 139.511-9.858 30.981-32.7 56.272-67.972 75.38-30.573-52.623-61.635-95.971-93.818-131.027-31.814-34.652-65.668-62.156-100.626-81.744-38.189-21.401-69.404-31.061-111.87-34.83l-12.789 7.904c115.983 10.3 213.301 91.994 303.63 247.324-.698.315-1.388.629-2.092.942-80.628 35.287-191.436 13.31-250.967 1.502-17.88-3.547-32.004-6.348-40.848-6.82-6.858-.368-19.013-2.491-34.406-5.18-64.982-11.344-177.992-31.081-236.699 22.09l-.266 9.277c52.458-47.52 171.92-25.217 234-14.377 15.956 2.787 28.566 4.986 36.45 5.41 7.614.406 21.208 3.103 38.415 6.516 61.384 12.175 175.648 34.838 261.235-2.624a247.898 247.898 0 003.774-1.693c15.823 28.199 31.49 58.894 47.086 92.135-84.803 42.777-178.103 82.342-244.844 109.262-183.627 74.063-344.547 127.872-360.22 126.774l3.516 9.271c23.302 2.297 201.583-54.932 362.11-119.63 67.166-27.072 160.96-66.844 246.655-110.094 13.572 29.834 24.96 58.008 34.153 84.742-10.424 6.37-21.006 13.986-31.73 22.877-56.522 46.857-103.86 111.125-149.642 173.272-72.619 98.584-136.486 188.028-210.539 168.237l8.175 6.167c38.982 10.421 66.65 3.472 108.19-33.968" fill="#352719"/><path d="M435.664 1065.37c-218.49-94.06-319.72-348.335-225.662-566.825C304.06 280.053 558.34 178.822 776.828 272.883c218.488 94.058 319.72 348.336 225.66 566.824-94.059 218.49-348.336 319.722-566.824 225.662M161.112 666.092c-.368 57.541 10.285 113.943 31.666 167.641 21.376 53.7 52.403 101.991 92.217 143.534 41.22 43.012 90.098 76.865 145.278 100.622 55.181 23.755 113.366 35.991 172.94 36.374 57.538.366 113.942-10.289 167.64-31.667 53.701-21.38 101.992-52.407 143.535-92.217 43.011-41.22 76.865-90.102 100.621-145.285 23.755-55.177 35.993-113.365 36.373-172.935.366-57.54-10.287-113.943-31.666-167.644-21.38-53.699-52.406-101.988-92.219-143.53-41.219-43.014-90.099-76.868-145.28-100.622-55.178-23.756-113.366-35.996-172.938-36.373-57.54-.367-113.943 10.287-167.642 31.666-53.698 21.377-101.992 52.404-143.535 92.217-43.01 41.221-76.862 90.1-100.619 145.28-23.756 55.181-35.993 113.368-36.37 172.94"/></g></svg>