<svg version="1.1" xmlns="http://www.w3.org/2000/svg" xmlns:xlink="http://www.w3.org/1999/xlink" width="140.72786" height="68.87603" viewBox="0,0,140.72786,68.87603"><g transform="translate(-169.26999,-153.98734)"><g data-paper-data="{&quot;isPaintingLayer&quot;:true}" fill-rule="nonzero" stroke-linecap="butt" stroke-linejoin="miter" stroke-miterlimit="10" stroke-dasharray="" stroke-dashoffset="0" style="mix-blend-mode: normal"><path d="M278.51872,173.74922c0,0 -7.81297,-17.48683 -11.2749,-17.27046c-3.46193,0.21637 -5.369,5.54806 -5.369,5.54806c0,0 -7.66854,-8.02155 -11.2749,-7.5166c-3.60636,0.50495 -4.10487,8.85563 -4.10487,8.85563c0,0 -5.46698,-3.87105 -7.91927,-3.08718c-6.58857,2.10599 4.50754,16.02083 4.50754,16.02083zM280.8435,202.23177c0,0 -7.81297,18.27661 -11.2749,18.05031c-3.46193,-0.22603 -5.369,-5.79852 -5.369,-5.79852c0,0 -7.66854,8.38343 -11.2749,7.85592c-3.60636,-0.5275 -4.1046,-9.25562 -4.1046,-9.25562c0,0 -5.46698,4.04581 -7.91927,3.22677c-6.58857,-2.20102 4.50754,-16.7443 4.50754,-16.7443l35.4354,2.66571z" data-paper-data="{&quot;index&quot;:null}" fill="#eb5f1f" stroke="#000000" stroke-width="1"/><path d="M260.62116,211.06485c-16.12848,-0.23624 -55.40808,-9.22394 -55.40808,-9.22394c0,0 -11.12457,10.83384 -28.48255,10.70042c-17.35851,-0.13342 3.21872,-17.74293 3.21872,-17.74293c0,0 -15.83372,-26.67507 -7.24547,-29.63956c8.58772,-2.96476 32.21132,21.58499 32.21132,21.58499c0,0 33.55518,-22.79302 52.88733,-22.79302c19.33108,0 51.53435,11.85207 51.69542,25.60476c0.13154,11.48295 -32.74741,21.74552 -48.87669,21.50821z" data-paper-data="{&quot;index&quot;:null}" fill="#eb5f1f" stroke="#000000" stroke-width="1"/><path d="M281.9173,168.82746c3.18919,0.89125 3.04879,3.20207 3.04234,5.53222c-0.00268,1.01313 -0.30603,2.30948 0.00376,3.28985c0.23382,0.73931 0.89823,1.26574 1.0687,2.00398c0.21503,0.93125 -0.05047,1.94895 0.1804,2.88101c0.40643,1.64318 1.59379,3.29173 1.96854,5.00337c0.39945,1.82278 0.6016,3.30542 0.49717,5.20766c-0.07651,1.3954 0.52697,2.52934 0.75649,4.01172c0.20939,1.35272 0.09235,2.75457 0.17369,4.07641c0.09503,1.53822 0.85797,3.1959 -1.47191,3.85387c-1.76882,0.49959 -4.5054,-0.04295 -5.16337,-1.34789c0.05208,-0.22067 0.12,-0.19973 0.26577,-0.35865c-0.62844,-1.09742 0.39435,-2.65551 0.46764,-3.87159c0.08644,-1.43648 0.13476,-2.92825 -0.36724,-4.29842c-0.27382,-0.74683 -0.71488,-1.28158 -1.20803,-2.00398c-0.21234,-0.31033 -0.29234,-0.69206 -0.57153,-1.0032c-0.38308,-0.42549 -0.99541,-0.6569 -1.32453,-1.06897c-1.18011,-1.47755 -0.89904,-3.21737 -1.22091,-4.84821c-0.31865,-1.615 -0.18738,-3.3261 -0.68535,-4.88284c-0.4416,-1.38037 -1.16749,-3.14113 -1.25286,-4.55989c-0.12241,-2.03968 1.89445,-6.71984 4.66244,-7.617" data-paper-data="{&quot;index&quot;:null}" fill="#df7b53" stroke="none" stroke-width="1"/><path d="M284.1449,180.7606c0,-2.13686 1.82304,-3.86836 4.07239,-3.86836c2.24907,0 4.07239,1.73204 4.07239,3.8689c0,2.13686 -1.82304,3.8689 -4.07239,3.8689c-2.24907,0 -4.07239,-1.73231 -4.07239,-3.8689z" data-paper-data="{&quot;index&quot;:null}" fill="#f9f9f9" stroke="#000000" stroke-width="1"/><path d="M287.69488,180.43578c0,-1.16507 0.95488,-2.10733 2.1323,-2.10733c1.17769,0 2.13257,0.94387 2.13257,2.10787c0,1.164 -0.95488,2.1076 -2.13257,2.1076c-1.17742,0 -2.1323,-0.9436 -2.1323,-2.1076z" data-paper-data="{&quot;index&quot;:null}" fill="#000000" stroke="none" stroke-width="1"/><path d="M288.65781,179.48009c0,-0.23892 0.21557,-0.42952 0.4816,-0.42952c0.26603,0 0.4816,0.19248 0.4816,0.43006c0,0.23758 -0.21557,0.43006 -0.4816,0.43006c-0.26603,0 -0.4816,-0.19248 -0.4816,-0.43006z" data-paper-data="{&quot;index&quot;:null}" fill="#ffffff" stroke="none" stroke-width="1"/><path d="M296.19213,174.55457c2.33578,0.60992 2.2327,2.19243 2.22813,3.78783c-0.00215,0.69367 -0.22416,1.58117 0.00268,2.25256c0.17127,0.5063 0.65797,0.86656 0.78253,1.37205c0.15758,0.63757 -0.03678,1.3342 0.13235,1.97257c0.29771,1.12507 1.16722,2.25391 1.44158,3.42569c0.29234,1.24802 0.44053,2.2633 0.36402,3.56555c-0.05611,0.95515 0.38603,1.73177 0.55381,2.74651c0.15355,0.92642 0.06765,1.88586 0.12751,2.79081c0.06953,1.0534 0.62817,2.18814 -1.07783,2.63913c-1.29527,0.34201 -3.29952,-0.02953 -3.78112,-0.92293c0.03812,-0.15141 0.08778,-0.13664 0.19436,-0.2459c-0.46012,-0.75112 0.28885,-1.81767 0.34254,-2.65041c0.06335,-0.9836 0.09879,-2.00532 -0.26899,-2.94329c-0.20026,-0.51113 -0.52348,-0.87729 -0.88454,-1.37178c-0.15543,-0.21261 -0.21395,-0.47408 -0.41878,-0.68696c-0.28053,-0.29181 -0.72884,-0.44992 -0.96991,-0.73233c-0.86414,-1.01179 -0.65851,-2.2029 -0.89421,-3.31912c-0.23328,-1.10601 -0.13718,-2.27726 -0.50173,-3.34328c-0.32348,-0.94521 -0.85501,-2.15082 -0.91729,-3.12207c-0.08939,-1.39675 1.38735,-4.60096 3.41442,-5.21518" data-paper-data="{&quot;index&quot;:null}" fill="#df7b53" stroke="none" stroke-width="1"/><path d="M305.08588,196.92988c0,0 -6.71125,3.2214 -12.21447,2.6845c-5.50323,-0.5369 -10.33533,-3.89253 -10.33533,-3.89253" data-paper-data="{&quot;index&quot;:null}" fill="none" stroke="#000000" stroke-width="2"/><path d="M264.7365,164.53253c3.18919,1.12561 3.04879,4.04474 3.04234,6.98829c-0.00268,1.2797 -0.30603,2.91698 0.00376,4.15561c0.23382,0.93394 0.89823,1.59862 1.0687,2.53148c0.21503,1.17608 -0.05047,2.46169 0.1804,3.63911c0.40643,2.07539 1.59379,4.15802 1.96854,6.31985c0.39945,2.30303 0.6016,4.17601 0.49717,6.5789c-0.07651,1.76211 0.52697,3.19429 0.75649,5.06699c0.20939,1.70895 0.09235,3.47938 0.17369,5.14914c0.09503,1.94304 0.85797,4.03668 -1.47191,4.86834c-1.76882,0.63139 -4.5054,-0.05423 -5.16337,-1.70251c0.05208,-0.27865 0.12,-0.25181 0.26577,-0.45288c-0.62844,-1.38654 0.39435,-3.35401 0.46764,-4.89035c0.08644,-1.81472 0.13476,-3.69924 -0.36724,-5.42994c-0.27382,-0.94333 -0.71488,-1.61875 -1.20802,-2.53095c-0.21234,-0.39221 -0.29234,-0.87488 -0.57153,-1.26735c-0.38308,-0.53824 -0.99541,-0.83005 -1.32453,-1.35084c-1.18011,-1.86653 -0.89904,-4.0638 -1.22091,-6.12388c-0.31865,-2.03995 -0.18738,-4.20124 -0.68535,-6.16791c-0.4416,-1.74385 -1.16749,-3.96796 -1.25286,-5.76013c-0.12241,-2.57658 1.89445,-8.48812 4.66244,-9.62152M248.98922,165.42727c3.18919,1.09903 3.04879,3.94917 3.04234,6.82346c-0.00268,1.24963 -0.30603,2.84825 0.00376,4.05762c0.23382,0.91192 0.89823,1.56104 1.0687,2.47189c0.21503,1.1487 -0.05047,2.4037 0.1804,3.55347c0.40643,2.02653 1.59379,4.05977 1.96854,6.17086c0.39945,2.24854 0.6016,4.07722 0.49717,6.42347c-0.07651,1.72076 0.52697,3.11912 0.75649,4.94753c0.20939,1.66869 0.09235,3.39723 0.17369,5.02753c0.09503,1.8974 0.85797,3.94219 -1.47191,4.75344c-1.76882,0.61663 -4.5054,-0.05262 -5.16337,-1.66197c0.05208,-0.27194 0.12,-0.24617 0.26577,-0.44214c-0.62844,-1.35352 0.39435,-3.27455 0.46764,-4.77465c0.08644,-1.77204 0.13476,-3.61199 -0.36724,-5.30162c-0.27382,-0.92132 -0.71488,-1.58117 -1.20802,-2.47162c-0.21234,-0.38308 -0.29234,-0.85394 -0.57153,-1.23729c-0.38308,-0.52536 -0.99541,-0.81018 -1.32453,-1.31863c-1.18011,-1.82251 -0.89904,-3.96796 -1.22091,-5.97946c-0.31865,-1.99163 -0.18738,-4.10218 -0.68535,-6.02241c-0.4416,-1.70251 -1.16749,-3.87427 -1.25286,-5.6243c-0.12241,-2.51564 1.89445,-8.28786 4.66244,-9.39441M230.9118,172.40697c3.18919,0.8687 3.04852,3.12261 3.04208,5.39504c-0.00268,0.9879 -0.30603,2.25203 0.00403,3.20825c0.23355,0.72106 0.8985,1.23433 1.0687,1.95432c0.21503,0.9079 -0.05047,1.90036 0.1804,2.8096c0.40643,1.60211 1.59379,3.20986 1.96828,4.87908c0.39945,1.77794 0.6016,3.22382 0.49717,5.07881c-0.07651,1.36024 0.52697,2.46652 0.75649,3.91212c0.20939,1.31916 0.09235,2.68611 0.17369,3.97494c0.09503,1.5001 0.85797,3.1167 -1.47191,3.7583c-1.76855,0.48724 -4.5054,-0.04161 -5.16337,-1.31433c0.05208,-0.21503 0.12,-0.19463 0.26577,-0.34952c-0.62871,-1.07031 0.39435,-2.58947 0.46764,-3.77521c0.08644,-1.40104 0.13476,-2.85604 -0.36724,-4.19185c-0.27382,-0.7283 -0.71488,-1.2499 -1.20829,-1.95378c-0.21208,-0.30308 -0.29207,-0.67542 -0.57153,-0.9785c-0.38335,-0.41583 -0.99514,-0.64106 -1.32453,-1.0432c-1.18011,-1.44104 -0.89931,-3.13738 -1.22118,-4.7274c-0.31865,-1.57473 -0.18711,-3.24341 -0.68535,-4.76177c-0.4416,-1.34628 -1.16722,-3.06328 -1.25259,-4.44687c-0.12241,-1.98895 1.89445,-6.55286 4.66217,-7.42774M216.9524,179.56654c3.18919,0.63005 3.04852,2.26411 3.04208,3.91185c-0.00268,0.71622 -0.30603,1.63271 0.00403,2.32639c0.23355,0.5224 0.8985,0.89474 1.0687,1.41661c0.21503,0.65878 -0.05047,1.37795 0.1804,2.037c0.40643,1.16185 1.59379,2.32746 1.96828,3.5379c0.39945,1.2891 0.6016,2.33713 0.49717,3.68233c-0.07651,0.98655 0.52697,1.78841 0.75649,2.83617c0.20939,0.95649 0.09235,1.94734 0.17369,2.88235c0.09503,1.08749 0.85797,2.25928 -1.47191,2.72477c-1.76855,0.35328 -4.5054,-0.03033 -5.16337,-0.953c0.05208,-0.15597 0.12,-0.1412 0.26577,-0.25369c-0.62871,-0.77582 0.39435,-1.877 0.46764,-2.73712c0.08644,-1.01555 0.13476,-2.07055 -0.36724,-3.03912c-0.27382,-0.52804 -0.71488,-0.90629 -1.20829,-1.41688c-0.21208,-0.21932 -0.29207,-0.48938 -0.57153,-0.70898c-0.38335,-0.30147 -0.99514,-0.46496 -1.32453,-0.75622c-1.18011,-1.04508 -0.89931,-2.27485 -1.22118,-3.42784c-0.31865,-1.14199 -0.18711,-2.35189 -0.68535,-3.45254c-0.4416,-0.97608 -1.16722,-2.22089 -1.25259,-3.22408c-0.12241,-1.44238 1.89445,-4.7513 4.66217,-5.38591M205.28019,186.37174c1.86197,0.59166 1.66493,1.52345 1.54681,2.47242c-0.05074,0.41288 -0.29556,0.91917 -0.15865,1.34118c0.10362,0.31784 0.47542,0.57985 0.54093,0.8926c0.08295,0.39516 -0.12537,0.79059 -0.03329,1.18709c0.16214,0.69904 0.79112,1.45554 0.93152,2.17981c0.14953,0.77179 0.19731,1.3903 0.04188,2.15807c-0.11382,0.56294 0.19114,1.06843 0.25583,1.68855c0.05933,0.5667 -0.07946,1.1291 -0.0953,1.67379c-0.01852,0.63327 0.35623,1.36373 -1.06789,1.46466c-1.08105,0.07678 -2.68987,-0.34066 -3.01899,-0.91944c0.04188,-0.08564 0.08161,-0.07248 0.17664,-0.12725c-0.32214,-0.49234 0.36509,-1.05367 0.46845,-1.54332c0.12214,-0.57958 0.22362,-1.18413 -0.0094,-1.77848c-0.12698,-0.32348 -0.36402,-0.57314 -0.62334,-0.90307c-0.11168,-0.14147 -0.14067,-0.30308 -0.29261,-0.44992c-0.20832,-0.2008 -0.5624,-0.33905 -0.73904,-0.53099c-0.6322,-0.68696 -0.37986,-1.375 -0.49234,-2.06277c-0.11141,-0.68079 0.05074,-1.36909 -0.17047,-2.03888c-0.19651,-0.59435 -0.54388,-1.36399 -0.52536,-1.94814c0.02658,-0.83998 1.4601,-2.60235 3.15778,-2.7696M186.33299,170.79627c3.41361,0.94843 3.26274,3.40878 3.25603,5.88952c-0.00268,1.0781 -0.32724,2.4582 0.00456,3.5022c0.2502,0.7871 0.96159,1.34735 1.14413,2.1331c0.22979,0.99139 -0.05423,2.07458 0.19302,3.06731c0.43489,1.74895 1.70573,3.50354 2.1068,5.32578c0.42764,1.94116 0.64428,3.51911 0.53207,5.54457c-0.08215,1.4848 0.56428,2.69229 0.80991,4.27023c0.22416,1.43997 0.09906,2.93255 0.18577,4.33976c0.10174,1.63701 0.91864,3.4018 -1.57553,4.10218c-1.89284,0.53153 -4.8227,-0.0459 -5.52685,-1.4346c0.05557,-0.23463 0.12805,-0.21208 0.28429,-0.38174c-0.67274,-1.16856 0.422,-2.82651 0.50066,-4.12151c0.09262,-1.52936 0.14443,-3.11778 -0.39328,-4.57627c-0.29288,-0.79461 -0.76535,-1.36399 -1.29339,-2.13284c-0.22711,-0.33046 -0.31248,-0.73716 -0.61153,-1.06789c-0.41046,-0.45341 -1.06521,-0.69958 -1.41715,-1.1385c-1.26333,-1.57312 -0.96293,-3.42489 -1.30708,-5.16068c-0.3412,-1.71969 -0.20053,-3.54112 -0.73421,-5.19853c-0.4722,-1.4695 -1.2491,-3.34408 -1.34037,-4.85438c-0.131,-2.17149 2.0276,-7.15366 4.99049,-8.1088" data-paper-data="{&quot;index&quot;:null}" fill="#df7b53" stroke="none" stroke-width="1"/></g></g></svg>