<svg version="1.0" width="140" height="112.469" xmlns="http://www.w3.org/2000/svg"><path d="M73.365 47.32s34.563-43.678 56.666-30.054c22.105 13.624 5.665 48.045-31.749 42.474 34.36 1.732 20.242 30.456 30.375 41.683 22.25 24.649-44.31 5.418-56.762-31.73" fill="#ffb1f2" fill-rule="evenodd"/><path d="M74.433 52.044s31.134-40.876 50.785-29.192c19.648 11.684 5.032 41.206-28.225 36.429 30.543 1.484 12.89 34.829 27.97 45.764 10.965 7.954-38.833-4.352-50.94-40.034" fill="#fff" fill-rule="evenodd"/><path d="M104.68 32.094C104.5 22.08 74.818 55.226 80.26 55.852c29.163 3.354 37.29-.847 42.472-5.769 16.9-16.057-17.517 11.52-18.05-17.989zM104.855 69.655c10.01-5.312-30.214-10.715-27.661-5.627 13.677 27.264 25.515 29.967 32.874 33.775 5.307 2.963 5.422 3.099-.48-1.4-9.479-7.222-19.457-18.938-4.733-26.748z" fill="#e5c7ff" fill-rule="evenodd"/><g fill="#ffccfe" fill-rule="evenodd"><path d="M108.04 30.622c0 4.535 1.477 11.974 6.604 11.974 5.128 0 14.415-.464 14.66-4.993.26-4.796-5.244-13.58-11.438-12.513-5.054.87-9.827.997-9.827 5.532zM100.952 79.488c-.42 6.186 12.128 16.032 15.304 17.451-1.312-2.684-2.954-8.264-2.954-13.156 0-4.89.03-12.618-4.565-12.618-4.595 2.616-7.568 5.12-7.785 8.323z"/></g><g fill="#fff64d" fill-rule="evenodd"><path d="M113.5 30.86l2.122 3.431L114 37.986l3.918-.957 3.01 2.684.302-4.022 3.484-2.033-3.735-1.53-.857-3.941-2.606 3.078zM110.587 87.286l-1.35-.461-1.145.861.02-1.44-1.166-.832 1.363-.427.424-1.376.823 1.176 1.427-.02-.855 1.156zM105.065 81.639l2.18-.888 1.862 1.45-.048-2.53 1.874-1.527-2.21-.676-.703-2.395-1.318 2.113-2.309.047 1.396 1.982z"/></g><g fill="none" stroke="#fff" stroke-width="4"><path d="M78.555 55.316l26.606-21.08 2.457 4.912-30.496 17.19 35.203-12.894 5.116 2.253 2.865-.41-42.774 11.462 49.323-8.597-5.322 4.913-43.388 3.889M107.103 68.868l-30.224-6.74 26.344 10.62-3.267 3.675-24.098-15.11 22.873 19.194 6.943 11.64-29.816-30.222 22.873 31.447" stroke-width=".85084"/></g><g><path d="M66.635 47.32S32.072 3.642 9.969 17.266C-12.136 30.89 4.304 65.311 41.718 59.74c-34.36 1.732-20.242 30.456-30.375 41.683-22.25 24.649 44.31 5.418 56.762-31.73" fill="#ffb1f2" fill-rule="evenodd"/><path d="M65.567 52.044S34.433 11.168 14.782 22.852C-4.866 34.536 9.75 64.058 43.007 59.28c-30.543 1.484-12.89 34.829-27.97 45.764C4.073 113 53.87 100.693 65.978 65.011" fill="#fff" fill-rule="evenodd"/><path d="M35.32 32.094C35.5 22.08 65.182 55.226 59.74 55.852c-29.163 3.354-37.29-.847-42.472-5.769-16.9-16.057 17.517 11.52 18.05-17.989zM35.145 69.655c-10.01-5.312 30.214-10.715 27.661-5.627C49.13 91.292 37.291 93.995 29.932 97.803c-5.307 2.963-5.422 3.099.48-1.4 9.479-7.222 19.457-18.938 4.733-26.748z" fill="#e5c7ff" fill-rule="evenodd"/><g fill="#ffccfe" fill-rule="evenodd"><path d="M31.96 30.622c0 4.535-1.477 11.974-6.604 11.974-5.128 0-14.415-.464-14.66-4.993-.26-4.796 5.244-13.58 11.438-12.513 5.054.87 9.827.997 9.827 5.532zM39.048 79.488c.42 6.186-12.128 16.032-15.304 17.451 1.312-2.684 2.954-8.264 2.954-13.156 0-4.89-.03-12.618 4.565-12.618 4.595 2.616 7.568 5.12 7.785 8.323z"/></g><g fill="#fff64d" fill-rule="evenodd"><path d="M26.5 30.86l-2.122 3.431L26 37.986l-3.918-.957-3.01 2.684-.302-4.022-3.484-2.033 3.735-1.53.857-3.941 2.606 3.078zM29.413 87.286l1.35-.461 1.145.861-.02-1.44 1.166-.832-1.363-.427-.424-1.376-.823 1.176-1.427-.02.855 1.156zM34.935 81.639l-2.18-.888-1.862 1.45.048-2.53-1.874-1.527 2.21-.676.703-2.395 1.318 2.113 2.309.047-1.396 1.982z"/></g><g fill="none" stroke="#fff" stroke-width="4"><path d="M61.445 55.316l-26.606-21.08-2.457 4.912 30.496 17.19-35.203-12.894-5.116 2.253-2.865-.41 42.774 11.462-49.323-8.597 5.322 4.913 43.388 3.889M32.897 68.868l30.224-6.74-26.344 10.62 3.267 3.675 24.098-15.11-22.873 19.194-6.943 11.64 29.816-30.222-22.873 31.447" stroke-width=".85084"/></g></g><g><g fill="none" stroke="#000" stroke-width="4.6" stroke-linecap="round"><path d="M88.716 5.9c-1.919.248-3.136 2.167-2.848 4.01.356 2.274 2.666 3.702 4.887 3.317 2.648-.459 4.301-3.142 3.816-5.714-.565-3-3.647-4.862-6.596-4.282-3.38.666-5.47 4.117-4.787 7.419.77 3.725 4.628 6.025 8.309 5.245 4.107-.868 6.637-5.093 5.754-9.122-.975-4.45-5.56-6.948-10.02-6.209-3.356.556-5.211 1.777-6.986 3.41-1.256 1.157-3.31 3.947-4.474 7.332-2.585 7.51-2.871 12.357-1.756 21.688M51.284 5.9c1.921.248 3.137 2.167 2.848 4.01-.356 2.274-2.666 3.702-4.885 3.317-2.65-.459-4.301-3.142-3.817-5.714.565-3 3.646-4.862 6.597-4.282 3.378.666 5.468 4.117 4.785 7.419-.77 3.725-4.627 6.025-8.308 5.245-4.106-.868-6.636-5.093-5.754-9.122.975-4.45 5.56-6.948 10.019-6.209 3.357.556 5.213 1.777 6.986 3.41 1.258 1.157 3.312 3.947 4.476 7.332 2.583 7.51 2.871 12.357 1.754 21.688" stroke-width=".87239"/></g><path d="M75.267 42.228c5.135 21.626-2.36 46.743-5.267 54.73-2.908-7.987-11.042-34.382-5.267-54.73C57.673 36.572 67.093 29 70 29c2.908 0 12.327 8.209 5.267 13.227z" fill="#aa8246" fill-rule="evenodd"/><g fill-rule="evenodd" stroke="#000" stroke-linecap="round" stroke-dashoffset="21.6"><path d="M397.03 405.82c0 5.21-4.23 9.45-9.45 9.45-5.21 0-9.45-4.24-9.45-9.45 0-5.22 4.24-9.45 9.45-9.45 5.22 0 9.45 4.23 9.45 9.45z" fill="#fff" stroke-width="1.368" transform="matrix(.25421 0 0 .25302 -32.082 -69.465)"/><path d="M389.94 403.06c0 1.96-1.58 3.55-3.54 3.55s-3.54-1.59-3.54-3.55a3.54 3.54 0 017.08 0z" stroke-width=".456" transform="matrix(.25421 0 0 .25302 -32.082 -69.465)"/><g><path d="M406.13 405.82c0 5.21 4.24 9.45 9.45 9.45 5.22 0 9.45-4.24 9.45-9.45 0-5.22-4.23-9.45-9.45-9.45-5.21 0-9.45 4.23-9.45 9.45z" fill="#fff" stroke-width="1.368" transform="matrix(.25421 0 0 .25302 -32.082 -69.465)"/><path d="M413.22 403.06c0 1.96 1.59 3.55 3.54 3.55a3.55 3.55 0 003.55-3.55c0-1.95-1.59-3.54-3.55-3.54-1.95 0-3.54 1.59-3.54 3.54z" stroke-width=".456" transform="matrix(.25421 0 0 .25302 -32.082 -69.465)"/></g></g><g fill="#fff64d" fill-rule="evenodd"><path d="M72.523 57.962l-2.468-1.245-2.428 1.318.427-2.72-2.01-1.893 2.73-.435L69.96 50.5l1.26 2.45 2.744.353-1.95 1.951zM72.078 65.858l-2.097-1.118-2.115 1.085.422-2.33-1.69-1.667 2.356-.322 1.07-2.115 1.035 2.133 2.351.36-1.715 1.639zM71.634 72.95l-1.727-.994-1.802.853.417-1.94-1.373-1.443 1.986-.205.953-1.743.81 1.814 1.96.364-1.484 1.326z"/></g></g></svg>