<?xml version="1.0" encoding="UTF-8" standalone="no"?>
<!-- Created with Inkscape (http://www.inkscape.org/) -->

<svg
   id="svg2"
   sodipodi:docname="1298932974.svg"
   viewBox="0 0 140 112.4694"
   sodipodi:version="0.32"
   version="1.0"
   inkscape:version="1.2.2 (732a01da63, 2022-12-09)"
   width="140"
   height="112.4694"
   xmlns:inkscape="http://www.inkscape.org/namespaces/inkscape"
   xmlns:sodipodi="http://sodipodi.sourceforge.net/DTD/sodipodi-0.dtd"
   xmlns="http://www.w3.org/2000/svg"
   xmlns:svg="http://www.w3.org/2000/svg"
   xmlns:rdf="http://www.w3.org/1999/02/22-rdf-syntax-ns#"
   xmlns:cc="http://creativecommons.org/ns#"
   xmlns:dc="http://purl.org/dc/elements/1.1/">
  <defs
     id="defs450" />
  <sodipodi:namedview
     id="base"
     bordercolor="#666666"
     inkscape:pageshadow="2"
     inkscape:window-y="-8"
     pagecolor="#ffffff"
     inkscape:window-height="1017"
     width="520px"
     inkscape:zoom="0.5169323"
     inkscape:window-x="1912"
     height="440px"
     borderopacity="1.0"
     inkscape:current-layer="layer1"
     inkscape:cx="365.61848"
     inkscape:cy="118.00385"
     showguides="true"
     inkscape:guide-bbox="true"
     inkscape:window-width="1920"
     inkscape:pageopacity="0.0"
     inkscape:document-units="px"
     inkscape:showpageshadow="2"
     inkscape:pagecheckerboard="0"
     inkscape:deskcolor="#d1d1d1"
     showgrid="false"
     inkscape:window-maximized="1" />
  <g
     id="layer1"
     inkscape:label="Layer 1"
     inkscape:groupmode="layer"
     transform="translate(-7.2177459,-13.888393)">
    <g
       id="g7855"
       transform="matrix(0.2127109,0,0,0.2127109,-5.0162891,-28.98108)">
      <g
         id="g7791">
        <g
           id="g6454"
           transform="matrix(-1,0,0,1,773.2,0)">
          <path
             id="path6456"
             sodipodi:nodetypes="cscsc"
             style="fill:#ffb1f2;fill-rule:evenodd"
             d="m 370.78,424 c 0,0 -162.49,-205.34 -266.4,-141.29 C 0.46,346.76 77.749,508.58 253.64,482.39 92.11,490.53 158.48,625.57 110.84,678.35 6.24,794.23 319.15,703.82 377.69,529.18" />
          <path
             id="path6458"
             sodipodi:nodetypes="cscsc"
             style="fill:#ffffff;fill-rule:evenodd"
             d="m 365.76,446.21 c 0,0 -146.37,-192.17 -238.75,-137.24 C 34.641,363.9 103.35,502.69 259.7,480.23 116.11,487.21 199.1,643.97 128.21,695.38 76.657,732.77 310.77,674.92 367.69,507.17" />
          <path
             id="path6460"
             sodipodi:nodetypes="csss"
             style="fill:#e5c7ff;fill-rule:evenodd"
             d="m 223.56,352.42 c 0.85,-47.08 140.39,108.75 114.81,111.69 -137.1,15.77 -175.31,-3.98 -199.67,-27.12 -79.448,-75.49 82.35,54.16 84.86,-84.57 z" />
          <path
             id="path6462"
             sodipodi:nodetypes="cscss"
             style="fill:#e5c7ff;fill-rule:evenodd"
             d="m 222.74,529 c -47.06,-24.97 142.04,-50.37 130.04,-26.45 -64.3,128.17 -119.95,140.88 -154.55,158.78 -24.95,13.93 -25.49,14.57 2.26,-6.58 44.56,-33.95 91.47,-89.03 22.25,-125.75 z" />
          <g
             id="g6464">
            <path
               id="path6466"
               sodipodi:nodetypes="csssc"
               style="fill:#ffccfe;fill-rule:evenodd"
               d="m 207.77,345.5 c 0,21.32 -6.95,56.29 -31.05,56.29 -24.11,0 -67.77,-2.18 -68.92,-23.47 -1.22,-22.55 24.65,-63.84 53.77,-58.83 23.76,4.09 46.2,4.69 46.2,26.01 z" />
            <path
               id="path6468"
               sodipodi:nodetypes="ccscs"
               style="fill:#ffccfe;fill-rule:evenodd"
               d="m 241.09,575.23 c 1.97,29.08 -57.02,75.37 -71.95,82.04 6.17,-12.62 13.89,-38.85 13.89,-61.85 0,-22.99 -0.14,-59.32 21.46,-59.32 21.6,12.3 35.58,24.07 36.6,39.13 z" />
          </g>
          <g
             id="g6470">
            <path
               id="path6472"
               style="fill:#fff64d;fill-rule:evenodd"
               d="m 182.1,346.62 -9.98,16.13 7.63,17.37 -18.42,-4.5 -14.15,12.62 -1.42,-18.91 -16.38,-9.56 17.56,-7.19 4.03,-18.53 12.25,14.47 z" />
            <path
               id="path6474"
               style="fill:#fff64d;fill-rule:evenodd"
               d="m 195.79,611.89 6.35,-2.17 5.38,4.05 -0.09,-6.77 5.48,-3.91 -6.41,-2.01 -1.99,-6.47 -3.87,5.53 -6.71,-0.09 4.02,5.43 z" />
            <path
               id="path6476"
               style="fill:#fff64d;fill-rule:evenodd"
               sodipodi:type="star"
               d="m 200.69929,601.73547 -7.47774,-3.78751 -7.3593,4.01279 1.29138,-8.28216 -6.09054,-5.75909 8.27586,-1.33115 3.59515,-7.5721 3.82337,7.45946 8.31246,1.07928 -5.91288,5.94135 z"
               sodipodi:r1="12.622597"
               inkscape:flatsided="false"
               transform="matrix(1.2833,-0.15706,0.17284,1.4123,-139.81,-232.97)"
               sodipodi:arg2="1.5556137"
               sodipodi:arg1="0.92729522"
               inkscape:randomized="0"
               sodipodi:cy="591.63739"
               sodipodi:cx="193.12573"
               inkscape:rounded="0"
               sodipodi:r2="6.3112984"
               sodipodi:sides="5" />
          </g>
          <g
             id="g6478">
            <path
               id="path6480"
               sodipodi:nodetypes="ccccccccccc"
               style="fill:none;stroke:#ffffff;stroke-width:4"
               d="m 346.38,461.59 -125.08,-99.1 -11.55,23.09 143.37,80.82 -165.5,-60.62 -24.05,10.59 -13.47,-1.93 201.09,53.89 -231.88,-40.42 25.02,23.1 203.98,18.28" />
            <path
               id="path6482"
               sodipodi:nodetypes="ccccccccc"
               style="fill:none;stroke:#ffffff;stroke-width:4"
               d="m 212.17,525.3 142.09,-31.68 -123.85,49.92 15.36,17.28 113.29,-71.04 -107.53,90.24 -32.64,54.72 L 359.06,492.66 251.53,640.5" />
          </g>
        </g>
        <g
           id="g6408">
          <path
             id="path1333"
             sodipodi:nodetypes="cscsc"
             style="fill:#ffb1f2;fill-rule:evenodd"
             d="m 370.78,424 c 0,0 -162.49,-205.34 -266.4,-141.29 C 0.46,346.76 77.749,508.58 253.64,482.39 92.11,490.53 158.48,625.57 110.84,678.35 6.24,794.23 319.15,703.82 377.69,529.18" />
          <path
             id="path3138"
             sodipodi:nodetypes="cscsc"
             style="fill:#ffffff;fill-rule:evenodd"
             d="m 365.76,446.21 c 0,0 -146.37,-192.17 -238.75,-137.24 C 34.641,363.9 103.35,502.69 259.7,480.23 116.11,487.21 199.1,643.97 128.21,695.38 76.657,732.77 310.77,674.92 367.69,507.17" />
          <path
             id="path4031"
             sodipodi:nodetypes="csss"
             style="fill:#e5c7ff;fill-rule:evenodd"
             d="m 223.56,352.42 c 0.85,-47.08 140.39,108.75 114.81,111.69 -137.1,15.77 -175.31,-3.98 -199.67,-27.12 -79.448,-75.49 82.35,54.16 84.86,-84.57 z" />
          <path
             id="path1342"
             sodipodi:nodetypes="cscss"
             style="fill:#e5c7ff;fill-rule:evenodd"
             d="m 222.74,529 c -47.06,-24.97 142.04,-50.37 130.04,-26.45 -64.3,128.17 -119.95,140.88 -154.55,158.78 -24.95,13.93 -25.49,14.57 2.26,-6.58 44.56,-33.95 91.47,-89.03 22.25,-125.75 z" />
          <g
             id="g6399">
            <path
               id="path1344"
               sodipodi:nodetypes="csssc"
               style="fill:#ffccfe;fill-rule:evenodd"
               d="m 207.77,345.5 c 0,21.32 -6.95,56.29 -31.05,56.29 -24.11,0 -67.77,-2.18 -68.92,-23.47 -1.22,-22.55 24.65,-63.84 53.77,-58.83 23.76,4.09 46.2,4.69 46.2,26.01 z" />
            <path
               id="path3983"
               sodipodi:nodetypes="ccscs"
               style="fill:#ffccfe;fill-rule:evenodd"
               d="m 241.09,575.23 c 1.97,29.08 -57.02,75.37 -71.95,82.04 6.17,-12.62 13.89,-38.85 13.89,-61.85 0,-22.99 -0.14,-59.32 21.46,-59.32 21.6,12.3 35.58,24.07 36.6,39.13 z" />
          </g>
          <g
             id="g6403">
            <path
               id="path1349"
               style="fill:#fff64d;fill-rule:evenodd"
               d="m 182.1,346.62 -9.98,16.13 7.63,17.37 -18.42,-4.5 -14.15,12.62 -1.42,-18.91 -16.38,-9.56 17.56,-7.19 4.03,-18.53 12.25,14.47 z" />
            <path
               id="path3986"
               style="fill:#fff64d;fill-rule:evenodd"
               d="m 195.79,611.89 6.35,-2.17 5.38,4.05 -0.09,-6.77 5.48,-3.91 -6.41,-2.01 -1.99,-6.47 -3.87,5.53 -6.71,-0.09 4.02,5.43 z" />
            <path
               id="path3988"
               style="fill:#fff64d;fill-rule:evenodd"
               sodipodi:type="star"
               sodipodi:sides="5"
               sodipodi:r1="12.622597"
               sodipodi:r2="6.3112984"
               sodipodi:arg1="0.92729522"
               sodipodi:arg2="1.5556137"
               transform="matrix(1.2833,-0.15706,0.17284,1.4123,-139.81,-232.97)"
               inkscape:randomized="0"
               sodipodi:cy="591.63739"
               sodipodi:cx="193.12573"
               inkscape:rounded="0"
               inkscape:flatsided="false"
               d="m 200.69929,601.73547 -7.47774,-3.78751 -7.3593,4.01279 1.29138,-8.28216 -6.09054,-5.75909 8.27586,-1.33115 3.59515,-7.5721 3.82337,7.45946 8.31246,1.07928 -5.91288,5.94135 z" />
          </g>
          <g
             id="g6395">
            <path
               id="path6368"
               sodipodi:nodetypes="ccccccccccc"
               style="fill:none;stroke:#ffffff;stroke-width:4"
               d="m 346.38,461.59 -125.08,-99.1 -11.55,23.09 143.37,80.82 -165.5,-60.62 -24.05,10.59 -13.47,-1.93 201.09,53.89 -231.88,-40.42 25.02,23.1 203.98,18.28" />
            <path
               id="path6372"
               sodipodi:nodetypes="ccccccccc"
               style="fill:none;stroke:#ffffff;stroke-width:4"
               d="m 212.17,525.3 142.09,-31.68 -123.85,49.92 15.36,17.28 113.29,-71.04 -107.53,90.24 -32.64,54.72 L 359.06,492.66 251.53,640.5" />
          </g>
        </g>
      </g>
      <g
         id="g7838"
         transform="translate(9.9801,-16)">
        <g
           id="g6374"
           transform="matrix(0.89157,0,0,0.89157,22.516,32.071)">
          <path
             id="path5764"
             sodipodi:nodetypes="cssssssssssc"
             style="fill:none;stroke:#000000;stroke-width:4.6;stroke-linecap:round"
             d="m 495.86,239.13 c -10.12,1.31 -16.54,11.43 -15.02,21.15 1.88,11.99 14.06,19.52 25.77,17.49 13.96,-2.42 22.68,-16.57 20.12,-30.13 -2.98,-15.82 -19.23,-25.64 -34.78,-22.58 -17.82,3.51 -28.84,21.71 -25.24,39.12 4.06,19.64 24.4,31.77 43.81,27.66 21.66,-4.58 35,-26.86 30.34,-48.1 -5.14,-23.47 -29.32,-36.64 -52.83,-32.74 -17.7,2.93 -27.48,9.37 -36.84,17.98 -6.62,6.1 -17.45,20.81 -23.59,38.66 -13.63,39.6 -15.14,65.16 -9.26,114.36" />
          <path
             id="path4870"
             sodipodi:nodetypes="cssssssssssc"
             style="fill:none;stroke:#000000;stroke-width:4.6;stroke-linecap:round"
             d="m 298.48,239.13 c 10.13,1.31 16.54,11.43 15.02,21.15 -1.88,11.99 -14.06,19.52 -25.76,17.49 -13.97,-2.42 -22.68,-16.57 -20.13,-30.13 2.98,-15.82 19.23,-25.64 34.79,-22.58 17.81,3.51 28.83,21.71 25.23,39.12 -4.06,19.64 -24.4,31.77 -43.81,27.66 -21.65,-4.58 -34.99,-26.86 -30.34,-48.1 5.14,-23.47 29.32,-36.64 52.83,-32.74 17.7,2.93 27.49,9.37 36.84,17.98 6.63,6.1 17.46,20.81 23.6,38.66 13.62,39.6 15.14,65.16 9.25,114.36" />
        </g>
        <path
           id="path4863"
           sodipodi:nodetypes="ccczc"
           style="fill:#aa8246;fill-rule:evenodd"
           d="m 401.38,416.06 c 24.14,101.67 -11.09,219.75 -24.76,257.3 -13.67,-37.55 -51.91,-161.64 -24.76,-257.3 -33.19,-26.59 11.09,-62.18 24.76,-62.18 13.67,0 57.95,38.59 24.76,62.18 z" />
        <g
           id="g6692"
           transform="matrix(1.1951,0,0,1.1895,-103.29,-109.03)">
          <g
             id="g6688">
            <path
               id="path5780"
               style="fill:#ffffff;fill-rule:evenodd;stroke:#000000;stroke-width:1.3682;stroke-linecap:round;stroke-dashoffset:21.6"
               d="m 397.03,405.82 c 0,5.21 -4.23,9.45 -9.45,9.45 -5.21,0 -9.45,-4.24 -9.45,-9.45 0,-5.22 4.24,-9.45 9.45,-9.45 5.22,0 9.45,4.23 9.45,9.45 z" />
            <path
               id="path5785"
               style="fill:#000000;fill-rule:evenodd;stroke:#000000;stroke-width:0.45605;stroke-linecap:round;stroke-dashoffset:21.6"
               d="m 389.94,403.06 c 0,1.96 -1.58,3.55 -3.54,3.55 -1.96,0 -3.54,-1.59 -3.54,-3.55 0,-1.95 1.58,-3.54 3.54,-3.54 1.96,0 3.54,1.59 3.54,3.54 z" />
          </g>
          <g
             id="g6684">
            <path
               id="path6661"
               style="fill:#ffffff;fill-rule:evenodd;stroke:#000000;stroke-width:1.3682;stroke-linecap:round;stroke-dashoffset:21.6"
               d="m 406.13,405.82 c 0,5.21 4.24,9.45 9.45,9.45 5.22,0 9.45,-4.24 9.45,-9.45 0,-5.22 -4.23,-9.45 -9.45,-9.45 -5.21,0 -9.45,4.23 -9.45,9.45 z" />
            <path
               id="path6663"
               style="fill:#000000;fill-rule:evenodd;stroke:#000000;stroke-width:0.45605;stroke-linecap:round;stroke-dashoffset:21.6"
               d="m 413.22,403.06 c 0,1.96 1.59,3.55 3.54,3.55 1.96,0 3.55,-1.59 3.55,-3.55 0,-1.95 -1.59,-3.54 -3.55,-3.54 -1.95,0 -3.54,1.59 -3.54,3.54 z" />
          </g>
        </g>
        <g
           id="g6700"
           transform="matrix(1.1951,0,0,1.1895,-104.58,-77.03)">
          <path
             id="path6671"
             style="fill:#fff64d;fill-rule:evenodd"
             d="m 412.57,476.72 -9.71,-4.92 -9.55,5.21 1.68,-10.75 -7.91,-7.48 10.74,-1.72 4.67,-9.83 4.96,9.68 10.79,1.4 -7.67,7.71 z" />
          <path
             id="path6673"
             style="fill:#fff64d;fill-rule:evenodd"
             d="m 410.82,507.93 -8.25,-4.42 -8.32,4.29 1.66,-9.21 -6.65,-6.59 9.27,-1.27 4.21,-8.36 4.07,8.43 9.25,1.42 -6.75,6.48 z" />
          <path
             id="path6675"
             style="fill:#fff64d;fill-rule:evenodd"
             d="m 409.07,535.96 -6.79,-3.93 -7.09,3.37 1.64,-7.67 -5.4,-5.7 7.81,-0.81 3.75,-6.89 3.19,7.17 7.71,1.44 -5.84,5.24 z" />
        </g>
      </g>
    </g>
  </g>
  <metadata
     id="metadata447">
    <rdf:RDF>
      <cc:Work>
        <dc:format>image/svg+xml</dc:format>
        <dc:type
           rdf:resource="http://purl.org/dc/dcmitype/StillImage" />
        <cc:license
           rdf:resource="http://creativecommons.org/licenses/publicdomain/" />
        <dc:publisher>
          <cc:Agent
             rdf:about="http://openclipart.org/">
            <dc:title>Openclipart</dc:title>
          </cc:Agent>
        </dc:publisher>
        <dc:title>cartoon_butterfly_pt5</dc:title>
        <dc:date>2011-02-28T22:42:54</dc:date>
        <dc:description>I drew this 100 percent original drawing</dc:description>
        <dc:source>https://openclipart.org/detail/124333/cartoon_butterfly_pt5-by-kizzyblue</dc:source>
        <dc:creator>
          <cc:Agent>
            <dc:title>kizzyblue</dc:title>
          </cc:Agent>
        </dc:creator>
        <dc:subject>
          <rdf:Bag>
            <rdf:li>butterflies</rdf:li>
            <rdf:li>butterfly</rdf:li>
            <rdf:li>cartoon butterfly</rdf:li>
          </rdf:Bag>
        </dc:subject>
      </cc:Work>
      <cc:License
         rdf:about="http://creativecommons.org/licenses/publicdomain/">
        <cc:permits
           rdf:resource="http://creativecommons.org/ns#Reproduction" />
        <cc:permits
           rdf:resource="http://creativecommons.org/ns#Distribution" />
        <cc:permits
           rdf:resource="http://creativecommons.org/ns#DerivativeWorks" />
      </cc:License>
    </rdf:RDF>
  </metadata>
</svg>
