<?xml version="1.0" encoding="UTF-8" standalone="no"?>
<svg
   version="1.1"
   x="0"
   y="0"
   width="58.265156"
   height="140"
   viewBox="0 0 58.265156 140.00001"
   id="svg1208"
   sodipodi:docname="candomale12-0025451418.svg"
   inkscape:version="1.2.2 (732a01da63, 2022-12-09)"
   xmlns:inkscape="http://www.inkscape.org/namespaces/inkscape"
   xmlns:sodipodi="http://sodipodi.sourceforge.net/DTD/sodipodi-0.dtd"
   xmlns="http://www.w3.org/2000/svg"
   xmlns:svg="http://www.w3.org/2000/svg">
  <defs
     id="defs1212" />
  <sodipodi:namedview
     id="namedview1210"
     pagecolor="#ffffff"
     bordercolor="#000000"
     borderopacity="0.25"
     inkscape:showpageshadow="2"
     inkscape:pageopacity="0.0"
     inkscape:pagecheckerboard="0"
     inkscape:deskcolor="#d1d1d1"
     showgrid="false"
     inkscape:zoom="2.675207"
     inkscape:cx="65.041696"
     inkscape:cy="156.62339"
     inkscape:window-width="1920"
     inkscape:window-height="1017"
     inkscape:window-x="1912"
     inkscape:window-y="-8"
     inkscape:window-maximized="1"
     inkscape:current-layer="svg1208" />
  <g
     id="Layer_1"
     transform="matrix(0.4474659,0,0,0.4474659,-1.3891239e-4,0)">
    <path
       d="m 128.095,307.341 c 0,3.055 -27.624,5.532 -61.698,5.532 -34.074,0 -61.698,-2.477 -61.698,-5.532 0,-3.058 27.624,-5.532 61.698,-5.532 34.074,0 61.698,2.474 61.698,5.532"
       fill="#909392"
       id="path833" />
    <path
       d="m 127.985,141.143 c -0.199,-0.97 -1.039,-1.667 -2.018,-1.697 l -0.121,-2.001 c -0.068,-1.12 -0.992,-1.988 -2.102,-1.997 l -0.113,-1.429 c 1.428,-3.276 8.396,-20.472 1.56,-29.38 -0.113,-0.15 -2.826,-3.682 -9.25,-5.449 -0.046,-0.013 -0.093,-0.025 -0.139,-0.038 3.563,-3.521 5.011,-8.693 5.011,-12.643 0,-3.802 -1.913,-7.245 -5.014,-9.257 6.969,-16.971 6.592,-33.451 -1.12,-47.772 C 100.869,3.83 81.647,0 71.418,0 69.711,0 68.024,0.105 66.397,0.311 64.77,0.105 63.082,0 61.376,0 51.148,0 31.926,3.83 18.116,29.48 c -7.712,14.323 -8.089,30.804 -1.121,47.774 -3.098,2.011 -5.01,5.454 -5.01,9.255 0,6.11 3.465,15.147 12.861,16.47 1.46,8.152 7.489,23.352 31.946,26.548 l -0.606,0.671 -5.6,1.408 -13.196,2.464 c -1.796,0.087 -11.055,1.369 -23.779,17.851 -0.785,1.016 -1.592,2.031 -2.402,3.048 -9.794,12.307 -20.893,26.256 3.583,49.363 0.614,0.578 1.502,0.735 2.269,0.419 l 2.326,2.427 c 0.665,0.694 1.709,0.852 2.546,0.4 0.892,0.757 1.848,1.553 2.856,2.38 0.717,0.768 3.977,3.961 8.666,4.1 0.039,4.05 0.116,7.945 0.228,11.608 0.034,1.119 0.931,2.02 2.05,2.059 l 0.425,0.015 c -0.679,16.451 -1.494,45.313 -0.159,68.607 -2.646,2.475 -4.07,4.818 -4.236,6.978 -0.113,1.477 0.357,2.857 1.362,3.992 1.323,1.495 3.269,2.285 5.627,2.285 4.917,0 11.447,-3.575 14.161,-9.438 0.781,-0.168 1.409,-0.763 1.612,-1.548 0.057,-0.219 5.227,-20.393 11.872,-57.133 6.644,36.74 11.815,56.914 11.872,57.133 0.203,0.785 0.832,1.381 1.613,1.548 2.715,5.863 9.244,9.438 14.16,9.438 2.359,0 4.305,-0.79 5.628,-2.285 1.004,-1.135 1.475,-2.516 1.362,-3.993 -0.167,-2.16 -1.59,-4.503 -4.238,-6.978 1.335,-23.293 0.521,-52.156 -0.158,-68.606 l 0.426,-0.015 c 1.119,-0.039 2.016,-0.94 2.05,-2.059 0.461,-14.964 0.317,-32.553 -0.472,-56.215 6.223,10.326 11.886,15.492 17.201,15.725 1.264,0.275 2.582,0.284 3.929,0.028 2.733,-0.519 4.977,-2.062 6.667,-4.588 7.316,-10.927 1.787,-38.313 1.548,-39.473 z m -4.199,37.7 c -1.214,1.813 -2.722,2.869 -4.611,3.228 -0.487,0.093 -0.963,0.139 -1.412,0.139 -9.783,0 -9.901,-22.51 -9.965,-34.604 -0.009,-1.683 -0.016,-3.191 -0.049,-4.436 l 17.281,-0.509 c 0.877,4.736 4.662,27.364 -1.244,36.182 z m -72.17,118.268 -9.065,1.022 c 0.367,-7.045 2.277,-43.335 3.367,-57.326 0.032,-0.39 -0.26,-0.731 -0.651,-0.762 -0.382,-0.021 -0.731,0.262 -0.761,0.652 -1.064,13.636 -2.902,48.401 -3.338,56.737 l -2.004,-1.611 c -1.3,-23.094 -0.501,-51.645 0.231,-69.031 l 24.42,0.871 c 0.422,0.02 0.821,-0.226 1.001,-0.612 l 1.581,-3.383 1.582,3.383 c 0.175,0.375 0.551,0.613 0.963,0.613 0.013,0 0.025,0 0.038,-10e-4 l 24.419,-0.871 c 0.732,17.386 1.531,45.937 0.231,69.031 l -2.005,1.611 c -0.435,-8.336 -2.273,-43.101 -3.337,-56.737 -0.03,-0.39 -0.37,-0.673 -0.761,-0.652 -0.391,0.031 -0.683,0.372 -0.652,0.762 1.091,13.991 3,50.281 3.368,57.326 l -9.065,-1.022 c -1.074,-4.307 -6.853,-28.093 -13.733,-68.04 -0.088,-0.509 -0.531,-0.882 -1.048,-0.882 -0.518,0 -0.96,0.373 -1.048,0.882 -6.88,39.947 -12.659,63.733 -13.733,68.04 z m 44.337,-72.537 -26.346,0.939 -2.247,-4.806 c -0.175,-0.374 -0.55,-0.613 -0.963,-0.613 -0.413,0 -0.788,0.239 -0.963,0.613 l -2.246,4.806 -26.347,-0.939 c -0.11,-3.826 -0.181,-7.821 -0.214,-12.054 0.804,-0.233 1.618,-0.578 2.435,-1.066 2.613,0.24 9.45,0.565 10.48,-2.401 0.165,-0.471 0.203,-0.94 0.132,-1.39 1.272,-0.307 2.107,-0.84 2.534,-1.617 0.497,-0.899 0.534,-1.822 0.168,-2.656 0.848,-0.316 1.437,-0.776 1.78,-1.391 0.578,-1.049 0.569,-2.139 -0.025,-3.07 -0.126,-0.197 -0.279,-0.381 -0.449,-0.556 0.247,-0.212 0.463,-0.441 0.61,-0.708 0.578,-1.048 0.571,-2.139 -0.023,-3.07 -1.782,-2.794 -8.258,-3.419 -12.219,-3.155 -0.449,-0.02 -2.692,-0.086 -5.294,0.409 0.143,-8.062 0.391,-16.979 0.749,-27.03 0.047,-0.113 0.081,-0.233 0.086,-0.359 l 1.057,-27.381 11.059,-2.064 c -0.492,2.644 -1.442,8.068 -1.631,11.37 -0.029,0.504 0.3,0.958 0.788,1.088 l 2.71,0.72 -3.235,1.956 c -0.423,0.255 -0.613,0.768 -0.461,1.238 0.23,0.706 5.758,17.413 17.867,26.821 0.004,0.003 0.01,0.004 0.014,0.008 0.005,0.003 0.008,0.009 0.013,0.012 0.002,0.001 0.005,0.003 0.008,0.004 0.062,0.045 0.133,0.075 0.205,0.105 0.027,0.012 0.051,0.03 0.08,0.04 0.003,10e-4 0.005,0.003 0.008,0.004 0.103,0.033 0.212,0.05 0.324,0.05 0.112,0 0.221,-0.017 0.324,-0.05 0.003,-0.001 0.005,-0.003 0.008,-0.004 0.028,-0.009 0.052,-0.028 0.079,-0.04 0.071,-0.03 0.144,-0.06 0.206,-0.105 0.003,-0.001 0.006,-0.003 0.008,-0.004 0.005,-0.003 0.008,-0.009 0.013,-0.012 0.003,-0.004 0.009,-0.005 0.014,-0.008 12.11,-9.408 17.638,-26.115 17.867,-26.821 0.153,-0.47 -0.038,-0.983 -0.461,-1.238 l -3.234,-1.956 2.71,-0.72 c 0.487,-0.13 0.816,-0.584 0.788,-1.088 -0.189,-3.302 -1.139,-8.725 -1.63,-11.37 l 11.064,2.065 c 1.869,41.351 2.395,66.871 1.8,87.494 z m -62.38,-32.963 c -0.849,0.306 -1.627,0.664 -2.333,1.073 l -0.851,-1.083 c 0.043,-0.074 0.086,-0.148 0.128,-0.222 0.367,-0.648 0.37,-1.438 0.007,-2.087 -0.162,-0.291 -3.68,-6.556 -8.104,-12.167 4.192,-3.133 8.722,-6.35 11.762,-8.483 -0.284,8.418 -0.484,15.98 -0.609,22.969 z m -5.712,1.933 1.344,1.713 c -0.363,1.236 -1.942,5.14 -8.112,9.092 l -2.042,-2.131 c 2.284,-1.632 5.866,-4.573 8.81,-8.674 z M 28.684,27.298 c 1.568,-4.728 4.714,-7.791 7.029,-6.838 2.309,0.949 2.911,5.553 1.338,10.283 -1.571,4.728 -4.716,7.79 -7.029,6.839 -2.312,-0.949 -2.91,-5.555 -1.338,-10.284 z M 69.772,77.659 H 62.964 C 62.509,73.7 59.299,71.451 53.989,71.451 H 42.602 c -5.215,0 -8.4,2.171 -8.944,5.997 H 27.593 V 60.736 c -0.001,-0.031 -0.015,-0.611 0.018,-1.593 5.835,-1.09 8.937,-6.486 8.937,-6.486 -1.312,4.167 -3.58,6.667 -3.58,6.667 11.274,-1.5 18.06,-8.838 18.06,-8.838 -0.833,2.828 -5.499,7.338 -5.499,7.338 13.304,-1.993 18.869,-10.507 20.868,-14.814 2,4.307 7.565,12.821 20.869,14.814 0,0 -4.666,-4.51 -5.5,-7.338 0,0 6.787,7.338 18.061,8.838 0,0 -2.268,-2.5 -3.58,-6.667 0,0 3.102,5.396 8.937,6.485 0.033,1.001 0.019,1.593 0.018,1.632 V 77.448 H 99.078 C 98.535,73.622 95.35,71.451 90.135,71.451 H 78.747 c -5.311,0 -8.52,2.249 -8.975,6.208 z M 46.989,26.238 c 3.425,1.41 5.578,5.831 15.576,14.998 -12.951,-0.273 -17.17,1.529 -20.601,0.117 -3.43,-1.41 -5.085,-5.937 -3.698,-10.111 1.387,-4.173 5.291,-6.414 8.723,-5.004 z M 34.967,78.657 c 0,-5.049 4.783,-5.803 7.635,-5.803 h 11.387 c 2.851,0 7.634,0.754 7.634,5.803 v 5.867 c 0,4.302 -3.424,7.802 -7.634,7.802 H 42.602 c -4.21,0 -7.635,-3.5 -7.635,-7.802 z m 36.146,0 c 0,-5.049 4.783,-5.803 7.634,-5.803 h 11.388 c 2.851,0 7.634,0.754 7.634,5.803 v 5.867 c 0,4.302 -3.425,7.802 -7.634,7.802 H 78.747 c -4.209,0 -7.634,-3.5 -7.634,-7.802 z m 11.421,66.988 -4.277,1.136 c -0.412,0.11 -0.718,0.455 -0.779,0.877 -0.06,0.422 0.138,0.84 0.503,1.06 l 4.636,2.804 c -1.123,3.074 -5.657,14.442 -13.919,22.436 6.069,-18.442 7.546,-35.698 7.852,-40.486 l 4.287,1.077 c 0.361,1.898 1.382,7.461 1.697,11.096 z m -32.355,5.876 4.635,-2.803 c 0.365,-0.22 0.562,-0.638 0.503,-1.06 -0.061,-0.422 -0.367,-0.767 -0.779,-0.877 l -4.277,-1.136 c 0.315,-3.634 1.336,-9.198 1.696,-11.096 l 4.288,-1.077 c 0.306,4.788 1.783,22.043 7.85,40.485 -8.254,-7.988 -12.792,-19.36 -13.916,-22.436 z m 54.361,-41.569 c 0.098,0.303 0.246,0.59 0.443,0.855 -0.631,0.405 -1.109,0.896 -1.427,1.401 -0.761,1.206 -0.728,2.614 0.053,3.654 -0.272,0.193 -0.485,0.387 -0.648,0.558 -1.071,-1.217 -1.402,-2.952 -0.69,-4.447 0.467,-0.981 1.299,-1.673 2.269,-2.021 z m -38.151,27.67 2.233,3.701 -0.809,2.2 h -2.891 l -0.792,-2.156 z m 1.426,-1.751 5.911,-4.088 0.746,0.826 c -0.079,1.459 -0.374,5.937 -1.263,12.207 z m -1.092,37.279 c -0.106,0.325 -0.217,0.651 -0.326,0.977 -0.109,-0.326 -0.22,-0.652 -0.326,-0.977 -0.06,-0.182 -0.12,-0.364 -0.179,-0.546 -0.835,-2.579 -1.576,-5.131 -2.239,-7.626 0.432,-8 1.221,-16.529 1.491,-19.329 h 2.447 c 0.271,2.822 1.07,11.46 1.501,19.512 -0.65,2.437 -1.376,4.926 -2.189,7.443 -0.06,0.182 -0.12,0.364 -0.18,0.546 z m 5.989,-25.044 c -0.496,3.086 -1.126,6.491 -1.924,10.106 -0.472,-6.543 -1.025,-12.222 -1.151,-13.488 l 0.392,-1.067 z m -9.614,-3.382 c -0.124,1.252 -0.667,6.824 -1.136,13.28 -0.778,-3.546 -1.395,-6.889 -1.882,-9.922 l 2.642,-4.381 z m 19.11,-13.118 -5.622,-1.413 -0.598,-0.664 c 10.57,-1.381 18.746,-5.154 24.381,-11.249 0.134,0.167 0.277,0.328 0.426,0.483 -0.074,0.81 0.049,1.629 0.371,2.383 0.386,1.153 1.846,5.051 4.451,6.754 -0.715,1.426 -0.993,2.908 -0.792,4.338 0.263,1.881 1.302,3.599 3.096,5.126 -0.098,0.245 -0.152,0.514 -0.152,0.794 l 10e-4,1.471 c -4.164,-4.848 -8.012,-5.91 -10.582,-5.91 -0.921,0 -1.657,0.14 -2.162,0.28 z m -10.555,-0.974 -5.264,3.641 -5.248,-3.631 0.091,-1.746 c 1.669,0.109 3.388,0.167 5.165,0.167 1.776,0 3.496,-0.058 5.165,-0.167 z m 39.305,8.543 11.768,-0.495 0.117,1.918 -11.884,0.351 z m -51.906,-7.392 5.911,4.088 -5.381,8.921 c -0.889,-6.284 -1.182,-10.763 -1.26,-12.2 z m 61.519,1.269 0.026,0.017 c -0.127,0.191 -0.207,0.415 -0.187,0.662 l 0.229,2.909 -8.427,0.355 c -0.021,-0.349 -0.212,-0.666 -0.511,-0.846 -2.385,-1.435 -3.645,-2.991 -3.745,-4.624 -0.156,-2.559 2.541,-4.7 2.567,-4.72 0.138,-0.107 0.23,-0.244 0.3,-0.392 0.216,-0.278 0.418,-0.636 0.533,-1.097 0.334,-1.341 -0.19,-2.953 -1.558,-4.789 -0.351,-0.471 -1.017,-0.568 -1.487,-0.217 -0.471,0.35 -0.568,1.016 -0.218,1.487 1.241,1.667 1.29,2.573 1.209,2.964 -0.074,0.359 -0.307,0.502 -0.378,0.54 -0.423,0.245 -0.791,0.286 -1.196,0.132 -1.504,-0.577 -2.984,-3.606 -3.565,-5.38 -0.012,-0.039 -0.028,-0.078 -0.044,-0.114 -0.296,-0.644 -0.178,-1.399 0.309,-1.972 0.916,-1.081 2.837,-1.318 5.261,-0.65 2.036,0.56 3.843,1.369 5.37,2.403 0.485,0.329 1.147,0.201 1.476,-0.285 0.329,-0.486 0.202,-1.147 -0.285,-1.476 -1.719,-1.164 -3.737,-2.069 -5.997,-2.692 -2.013,-0.554 -3.551,-0.53 -4.705,-0.259 -0.043,-0.13 -0.111,-0.254 -0.206,-0.364 -0.423,-0.488 -0.132,-1.074 0.013,-1.303 0.705,-1.12 2.747,-1.884 5.723,-1.066 2.813,0.774 4.728,1.916 5.839,2.738 0.47,0.347 1.138,0.249 1.487,-0.222 0.349,-0.473 0.25,-1.138 -0.223,-1.487 -1.827,-1.352 -4.027,-2.388 -6.54,-3.078 -1.864,-0.513 -3.434,-0.518 -4.702,-0.226 -0.041,-0.142 -0.109,-0.278 -0.211,-0.397 -0.424,-0.488 -0.133,-1.075 0.012,-1.304 0.705,-1.12 2.748,-1.884 5.72,-1.066 3.39,0.932 5.51,2.375 6.692,3.42 0.437,0.388 1.11,0.349 1.5,-0.091 0.389,-0.44 0.348,-1.112 -0.092,-1.501 -1.35,-1.195 -3.753,-2.838 -7.535,-3.878 -1.347,-0.371 -2.541,-0.476 -3.578,-0.396 -0.031,-0.051 -0.046,-0.107 -0.086,-0.153 -0.424,-0.488 -0.133,-1.074 0.011,-1.303 0.706,-1.12 2.75,-1.884 5.723,-1.066 5.326,1.465 7.529,4.266 7.553,4.298 5.974,7.785 -1.32,24.783 -2.077,26.489 z m -13.289,-33.18 c 0.066,-0.955 0.05,-1.544 0.046,-1.634 V 79.032 c 0.765,-0.25 1.582,-0.389 2.43,-0.389 4.337,0 7.866,3.529 7.866,7.866 0,4.364 -2.214,12.368 -10.342,13.363 z M 23.039,78.643 c 0.848,0 1.664,0.139 2.429,0.388 v 19.167 c -0.004,0.099 -0.021,0.703 0.047,1.675 -8.127,-0.995 -10.341,-9 -10.341,-13.364 0,-4.337 3.529,-7.866 7.865,-7.866 z m 4.554,19.595 V 81.306 l 5.972,1.403 v 1.815 c 0,1.387 0.311,2.698 0.852,3.878 1.441,3.141 4.563,5.328 8.185,5.328 h 11.387 c 4.983,0 9.037,-4.13 9.037,-9.206 v -1.88 h 6.684 v 1.88 c 0,5.076 4.054,9.206 9.037,9.206 h 11.388 c 3.629,0 6.757,-2.196 8.193,-5.347 0.536,-1.176 0.843,-2.48 0.843,-3.859 v -1.815 l 6.031,-1.417 v 16.985 c 0.003,0.068 0.117,4.599 -2.152,10.009 -1.144,0.594 -2.109,1.535 -2.699,2.773 -0.452,0.949 -0.631,1.962 -0.572,2.952 -0.627,0.835 -1.322,1.663 -2.103,2.472 -6.696,6.936 -17.219,10.454 -31.279,10.454 -14.058,0 -24.58,-3.517 -31.277,-10.454 -7.792,-8.07 -7.531,-18.105 -7.527,-18.245 z m 8.914,39.18 -1.02,26.428 c -1.892,1.308 -9.522,6.609 -15.957,11.461 -1.412,-1.594 -2.872,-3.027 -4.308,-4.104 -0.471,-0.352 -1.136,-0.256 -1.488,0.213 -0.352,0.47 -0.257,1.136 0.213,1.488 1.519,1.14 3.089,2.74 4.602,4.521 0.011,0.013 0.022,0.027 0.033,0.039 4.121,4.861 7.806,11.044 8.859,12.86 -3.571,5.973 -9.143,9.897 -11.051,11.126 -21.59,-20.74 -12.404,-32.282 -2.685,-44.495 0.819,-1.03 1.635,-2.057 2.43,-3.085 10.066,-13.038 17.65,-15.848 20.372,-16.452 z m -5.804,59.869 c 3.096,-4.121 11.216,-3.724 11.296,-3.721 0.043,0.001 0.088,0.001 0.133,-0.001 4.575,-0.316 9.406,0.701 10.344,2.173 0.126,0.197 0.207,0.443 -0.045,0.9 -0.068,0.124 -0.302,0.293 -0.728,0.443 -2.789,-1.225 -6.994,-1.499 -9.853,-1.303 -0.586,0.04 -1.028,0.547 -0.988,1.133 0.039,0.586 0.549,1.022 1.133,0.988 4.582,-0.316 9.407,0.702 10.344,2.173 0.125,0.197 0.207,0.443 -0.043,0.895 -0.043,0.077 -0.319,0.44 -1.56,0.66 -2.69,-1.657 -7.614,-2.023 -10.833,-1.802 -0.585,0.04 -1.028,0.548 -0.988,1.133 0.04,0.586 0.531,1.022 1.134,0.988 3.939,-0.272 8.066,0.447 9.735,1.592 0.024,0.021 0.055,0.032 0.082,0.052 0.23,0.168 0.409,0.345 0.526,0.529 0.126,0.198 0.207,0.443 -0.046,0.901 -0.129,0.235 -0.708,0.545 -1.899,0.711 -1.803,-1.375 -5.4,-1.889 -9.554,-1.305 -0.581,0.082 -0.986,0.62 -0.904,1.201 0.082,0.581 0.603,0.983 1.201,0.905 4.249,-0.598 7.412,0.135 8.227,1.128 0.182,0.221 0.214,0.415 0.118,0.695 -0.322,0.923 -4.433,1.375 -8.62,0.949 -0.239,-0.024 -0.48,0.033 -0.682,0.163 -6.077,3.903 -11.513,-2.065 -11.739,-2.319 -0.037,-0.041 -0.077,-0.08 -0.12,-0.115 -0.833,-0.688 -1.633,-1.385 -2.416,-2.084 4.022,-2.95 5.895,-5.799 6.745,-7.662 z m 65.573,-60.302 c 0.246,-0.043 0.551,-0.078 0.916,-0.078 1.824,0 4.881,0.825 8.424,5.095 -0.009,0.063 -0.032,0.123 -0.029,0.187 0.064,1.363 0.074,3.247 0.085,5.428 0.05,9.556 0.129,23.585 4.178,31.24 -3.323,-2.995 -7.501,-8.57 -12.599,-18.499 -0.27,-7.199 -0.595,-14.958 -0.975,-23.373"
       fill="#000000"
       id="path835" />
    <path
       d="m 66.397,129.063 c -1.777,0 -3.496,-0.058 -5.165,-0.167 l -0.091,1.746 5.248,3.631 5.264,-3.641 -0.091,-1.736 c -1.669,0.109 -3.389,0.167 -5.165,0.167"
       fill="#f6cbad"
       id="path837" />
    <path
       d="m 109.758,78.643 c -0.848,0 -1.665,0.139 -2.43,0.389 v 19.206 c 0.004,0.09 0.02,0.679 -0.046,1.634 8.128,-0.995 10.342,-8.999 10.342,-13.363 0,-4.337 -3.529,-7.866 -7.866,-7.866"
       fill="#f6cbad"
       id="path839" />
    <path
       d="M 25.515,99.873 C 25.447,98.901 25.464,98.297 25.468,98.198 V 79.031 c -0.765,-0.249 -1.581,-0.388 -2.429,-0.388 -4.336,0 -7.865,3.529 -7.865,7.866 0,4.364 2.214,12.369 10.341,13.364"
       fill="#f6cbad"
       id="path841" />
    <path
       d="m 66.397,126.937 c 14.06,0 24.583,-3.518 31.279,-10.454 0.781,-0.809 1.476,-1.637 2.103,-2.472 -0.059,-0.99 0.12,-2.003 0.572,-2.952 0.59,-1.238 1.555,-2.179 2.699,-2.773 2.269,-5.41 2.155,-9.941 2.152,-10.009 V 81.292 l -6.031,1.417 v 1.815 c 0,1.379 -0.307,2.683 -0.843,3.859 3.371,1.223 5.652,3.549 5.652,6.22 0,3.942 -4.954,7.138 -11.064,7.138 -6.109,0 -11.062,-3.196 -11.062,-7.138 0,-0.296 0.037,-0.587 0.091,-0.873 h -3.198 c -4.983,0 -9.037,-4.13 -9.037,-9.206 v -1.88 h -6.684 v 1.88 c 0,5.076 -4.054,9.206 -9.037,9.206 h -3.138 c 0.054,0.286 0.091,0.577 0.091,0.873 0,3.942 -4.954,7.138 -11.062,7.138 -6.111,0 -11.064,-3.196 -11.064,-7.138 0,-2.658 2.259,-4.973 5.601,-6.201 -0.541,-1.18 -0.852,-2.491 -0.852,-3.878 v -1.815 l -5.972,-1.403 v 16.932 c -0.004,0.14 -0.265,10.175 7.527,18.245 6.697,6.937 17.219,10.454 31.277,10.454 z M 81.3,109.587 c 0,0.004 -0.002,0.007 -0.003,0.01 -0.942,6.849 -7.046,11.632 -14.845,11.632 -7.921,0 -14.039,-4.876 -14.878,-11.859 0,0 0,-0.001 0,-0.002 -0.237,-1.958 -0.059,-3.982 0.527,-6.014 0.131,-0.456 0.548,-0.769 1.021,-0.769 H 79.78 c 0.473,0 0.889,0.313 1.021,0.768 0.609,2.103 0.777,4.201 0.499,6.234"
       fill="#f6cbad"
       id="path843" />
    <path
       d="m 78.747,71.451 h 11.388 c 5.215,0 8.4,2.171 8.943,5.997 h 6.124 V 60.774 c 0.001,-0.039 0.015,-0.631 -0.018,-1.632 -5.835,-1.089 -8.937,-6.485 -8.937,-6.485 1.312,4.167 3.58,6.667 3.58,6.667 -11.274,-1.5 -18.061,-8.838 -18.061,-8.838 0.834,2.828 5.5,7.338 5.5,7.338 C 73.962,55.831 68.397,47.317 66.397,43.01 c -1.999,4.307 -7.564,12.821 -20.868,14.814 0,0 4.666,-4.51 5.499,-7.338 0,0 -6.786,7.338 -18.06,8.838 0,0 2.268,-2.5 3.58,-6.667 0,0 -3.102,5.396 -8.937,6.486 -0.033,0.982 -0.019,1.562 -0.018,1.593 v 16.712 h 6.065 c 0.544,-3.826 3.729,-5.997 8.944,-5.997 h 11.387 c 5.31,0 8.52,2.249 8.975,6.208 h 6.808 c 0.455,-3.959 3.664,-6.208 8.975,-6.208 z M 74.34,68.57 c 9.755,-6.737 21.196,-6.66 21.196,-6.66 l 3.111,3.654 c -12.33,-0.179 -24.88,5.259 -24.88,5.259 z m -40.193,-3.006 3.11,-3.654 c 0,0 11.442,-0.077 21.196,6.66 l 0.574,2.253 c 0,0 -12.55,-5.438 -24.88,-5.259"
       fill="#f6cbad"
       id="path845" />
    <path
       d="m 92.916,101.741 c 6.11,0 11.064,-3.196 11.064,-7.138 0,-2.671 -2.281,-4.997 -5.652,-6.22 -1.436,3.151 -4.564,5.347 -8.193,5.347 h -8.19 c -0.054,0.286 -0.091,0.577 -0.091,0.873 0,3.942 4.953,7.138 11.062,7.138"
       fill="#ec9eac"
       id="path847" />
    <path
       d="m 28.816,94.603 c 0,3.942 4.953,7.138 11.064,7.138 6.108,0 11.062,-3.196 11.062,-7.138 0,-0.296 -0.037,-0.587 -0.091,-0.873 h -8.249 c -3.622,0 -6.744,-2.187 -8.185,-5.328 -3.342,1.228 -5.601,3.543 -5.601,6.201"
       fill="#ec9eac"
       id="path849" />
    <path
       d="M 98.647,65.564 95.536,61.91 c 0,0 -11.441,-0.077 -21.196,6.66 l -0.573,2.253 c 0,0 12.55,-5.438 24.88,-5.259"
       fill="#000000"
       id="path851" />
    <path
       d="m 37.257,61.91 -3.11,3.654 c 12.33,-0.179 24.88,5.259 24.88,5.259 L 58.453,68.57 C 48.699,61.833 37.257,61.91 37.257,61.91"
       fill="#000000"
       id="path853" />
    <path
       d="m 78.747,92.326 h 11.388 c 4.209,0 7.634,-3.5 7.634,-7.802 v -5.867 c 0,-5.049 -4.783,-5.803 -7.634,-5.803 H 78.747 c -2.851,0 -7.634,0.754 -7.634,5.803 v 5.867 c 0,4.302 3.425,7.802 7.634,7.802 z m 3.166,-14.824 c 2.134,0 3.863,1.95 3.863,4.358 0,2.406 -1.729,4.356 -3.863,4.356 -2.129,0 -3.861,-1.95 -3.861,-4.356 0,-2.408 1.732,-4.358 3.861,-4.358"
       fill="#fad9c6"
       id="path855" />
    <path
       d="m 42.602,92.326 h 11.387 c 4.21,0 7.634,-3.5 7.634,-7.802 v -5.867 c 0,-5.049 -4.783,-5.803 -7.634,-5.803 H 42.602 c -2.852,0 -7.635,0.754 -7.635,5.803 v 5.867 c 0,4.302 3.425,7.802 7.635,7.802 z m 8.299,-14.824 c 2.133,0 3.861,1.95 3.861,4.358 0,2.406 -1.728,4.356 -3.861,4.356 -2.134,0 -3.863,-1.95 -3.863,-4.356 0,-2.408 1.729,-4.358 3.863,-4.358"
       fill="#fad9c6"
       id="path857" />
    <path
       d="m 81.913,86.216 c 2.134,0 3.863,-1.95 3.863,-4.356 0,-2.408 -1.729,-4.358 -3.863,-4.358 -2.129,0 -3.861,1.95 -3.861,4.358 0,2.406 1.732,4.356 3.861,4.356"
       fill="#000000"
       id="path859" />
    <path
       d="m 50.901,86.216 c 2.133,0 3.861,-1.95 3.861,-4.356 0,-2.408 -1.728,-4.358 -3.861,-4.358 -2.134,0 -3.863,1.95 -3.863,4.358 0,2.406 1.729,4.356 3.863,4.356"
       fill="#000000"
       id="path861" />
    <path
       d="m 37.051,30.743 c 1.573,-4.73 0.971,-9.334 -1.338,-10.283 -2.315,-0.953 -5.461,2.11 -7.029,6.838 -1.572,4.729 -0.974,9.335 1.338,10.284 2.313,0.951 5.458,-2.111 7.029,-6.839"
       fill="#5f5f5f"
       id="path863" />
    <path
       d="m 38.266,31.242 c -1.387,4.174 0.268,8.701 3.698,10.111 3.431,1.412 7.65,-0.39 20.601,-0.117 -9.998,-9.167 -12.151,-13.588 -15.576,-14.998 -3.432,-1.41 -7.336,0.831 -8.723,5.004"
       fill="#5f5f5f"
       id="path865" />
    <path
       d="m 109.85,178.857 c -4.049,-7.655 -4.128,-21.684 -4.178,-31.24 -0.011,-2.181 -0.021,-4.065 -0.085,-5.428 -0.003,-0.064 0.02,-0.124 0.029,-0.187 -3.543,-4.27 -6.6,-5.095 -8.424,-5.095 -0.365,0 -0.67,0.035 -0.916,0.078 0.38,8.415 0.705,16.174 0.975,23.373 5.098,9.929 9.276,15.504 12.599,18.499"
       fill="#286aa6"
       id="path867" />
    <path
       d="m 61.962,158.004 c 0.469,-6.456 1.012,-12.028 1.136,-13.28 l -0.376,-1.023 -2.642,4.381 c 0.487,3.033 1.104,6.376 1.882,9.922"
       fill="#ffffff"
       id="path869" />
    <path
       d="m 70.788,158.212 c 0.798,-3.615 1.428,-7.02 1.924,-10.106 l -2.683,-4.449 -0.392,1.067 c 0.126,1.266 0.679,6.945 1.151,13.488"
       fill="#ffffff"
       id="path871" />
    <path
       d="m 69.092,165.161 c -0.431,-8.052 -1.23,-16.69 -1.501,-19.512 h -2.447 c -0.27,2.8 -1.059,11.329 -1.491,19.329 0.663,2.495 1.404,5.047 2.239,7.626 0.059,0.182 0.119,0.364 0.179,0.546 0.106,0.325 0.217,0.651 0.326,0.977 0.109,-0.326 0.22,-0.652 0.326,-0.977 0.06,-0.182 0.12,-0.364 0.18,-0.546 0.813,-2.517 1.539,-5.006 2.189,-7.443"
       fill="#2bab6e"
       id="path873" />
    <path
       d="m 64.922,143.523 h 2.891 l 0.809,-2.2 -2.233,-3.701 -2.259,3.745 0.792,2.156"
       fill="#2bab6e"
       id="path875" />
    <path
       d="m 73.209,144.816 c 0.889,-6.27 1.184,-10.748 1.263,-12.207 l -0.746,-0.826 -5.911,4.088 5.394,8.945"
       fill="#ffffff"
       id="path877" />
    <path
       d="m 59.582,144.792 5.381,-8.921 -5.911,-4.088 -0.73,0.809 c 0.078,1.437 0.371,5.916 1.26,12.2"
       fill="#ffffff"
       id="path879" />
    <path
       d="m 66.397,228.189 c 0.517,0 0.96,0.373 1.048,0.882 6.88,39.947 12.659,63.733 13.733,68.04 l 9.065,1.022 c -0.368,-7.045 -2.277,-43.335 -3.368,-57.326 -0.031,-0.39 0.261,-0.731 0.652,-0.762 0.391,-0.021 0.731,0.262 0.761,0.652 1.064,13.636 2.902,48.401 3.337,56.737 l 2.005,-1.611 c 1.3,-23.094 0.501,-51.645 -0.231,-69.031 l -24.419,0.871 c -0.013,10e-4 -0.025,10e-4 -0.038,10e-4 -0.412,0 -0.788,-0.238 -0.963,-0.613 l -1.582,-3.383 -1.581,3.383 c -0.18,0.386 -0.579,0.632 -1.001,0.612 l -24.42,-0.871 c -0.732,17.386 -1.531,45.937 -0.231,69.031 l 2.004,1.611 c 0.436,-8.336 2.274,-43.101 3.338,-56.737 0.03,-0.39 0.379,-0.673 0.761,-0.652 0.391,0.031 0.683,0.372 0.651,0.762 -1.09,13.991 -3,50.281 -3.367,57.326 l 9.065,-1.022 c 1.074,-4.307 6.853,-28.093 13.733,-68.04 0.088,-0.509 0.53,-0.882 1.048,-0.882"
       fill="#286aa6"
       id="path881" />
    <path
       d="m 94.153,137.08 -11.064,-2.065 c 0.491,2.645 1.441,8.068 1.63,11.37 0.028,0.504 -0.301,0.958 -0.788,1.088 l -2.71,0.72 3.234,1.956 c 0.423,0.255 0.614,0.768 0.461,1.238 -0.229,0.706 -5.757,17.413 -17.867,26.821 -0.005,0.003 -0.011,0.004 -0.014,0.008 -0.005,0.003 -0.008,0.009 -0.013,0.012 -0.002,0.001 -0.005,0.003 -0.008,0.004 -0.062,0.045 -0.135,0.075 -0.206,0.105 -0.027,0.012 -0.051,0.031 -0.079,0.04 -0.003,10e-4 -0.005,0.003 -0.008,0.004 -0.103,0.033 -0.212,0.05 -0.324,0.05 -0.112,0 -0.221,-0.017 -0.324,-0.05 -0.003,-0.001 -0.005,-0.003 -0.008,-0.004 -0.029,-0.01 -0.053,-0.028 -0.08,-0.04 -0.072,-0.03 -0.143,-0.06 -0.205,-0.105 -0.003,-0.001 -0.006,-0.003 -0.008,-0.004 -0.005,-0.003 -0.008,-0.009 -0.013,-0.012 -0.004,-0.004 -0.01,-0.005 -0.014,-0.008 -12.109,-9.408 -17.637,-26.115 -17.867,-26.821 -0.152,-0.47 0.038,-0.983 0.461,-1.238 l 3.235,-1.956 -2.71,-0.72 c -0.488,-0.13 -0.817,-0.584 -0.788,-1.088 0.189,-3.302 1.139,-8.726 1.631,-11.37 l -11.059,2.064 -1.057,27.381 c -0.005,0.126 -0.039,0.246 -0.086,0.359 -0.358,10.051 -0.606,18.968 -0.749,27.03 2.602,-0.495 4.845,-0.429 5.294,-0.409 3.961,-0.264 10.437,0.361 12.219,3.155 0.594,0.931 0.601,2.022 0.023,3.07 -0.147,0.267 -0.363,0.496 -0.61,0.708 0.17,0.175 0.323,0.359 0.449,0.556 0.594,0.931 0.603,2.021 0.025,3.07 -0.343,0.615 -0.932,1.075 -1.78,1.391 0.366,0.834 0.329,1.757 -0.168,2.656 -0.427,0.777 -1.262,1.31 -2.534,1.617 0.071,0.45 0.033,0.919 -0.132,1.39 -1.03,2.966 -7.867,2.641 -10.48,2.401 -0.817,0.488 -1.631,0.833 -2.435,1.066 0.033,4.233 0.104,8.228 0.214,12.054 l 26.347,0.939 2.246,-4.806 c 0.175,-0.374 0.55,-0.613 0.963,-0.613 0.413,0 0.788,0.239 0.963,0.613 l 2.247,4.806 26.346,-0.939 c 0.595,-20.623 0.069,-46.143 -1.8,-87.494 z m -23.801,47.072 c 0,2.239 -1.822,4.06 -4.062,4.06 -2.239,0 -4.061,-1.821 -4.061,-4.06 0,-2.24 1.822,-4.063 4.061,-4.063 2.24,0 4.062,1.823 4.062,4.063 z m -3.961,7.913 c 2.24,0 4.062,1.821 4.062,4.061 0,2.24 -1.822,4.062 -4.062,4.062 -2.239,0 -4.061,-1.822 -4.061,-4.062 0,-2.24 1.822,-4.061 4.061,-4.061 z m 0,20.723 c -2.239,0 -4.061,-1.822 -4.061,-4.062 0,-2.24 1.822,-4.061 4.061,-4.061 2.24,0 4.062,1.821 4.062,4.061 0,2.24 -1.822,4.062 -4.062,4.062"
       fill="#286aa6"
       id="path883" />
    <path
       d="m 76.55,133.472 c -0.306,4.788 -1.783,22.044 -7.852,40.486 8.262,-7.994 12.796,-19.362 13.919,-22.436 l -4.636,-2.804 c -0.365,-0.22 -0.563,-0.638 -0.503,-1.06 0.061,-0.422 0.367,-0.767 0.779,-0.877 l 4.277,-1.136 c -0.315,-3.635 -1.336,-9.198 -1.697,-11.096 l -4.287,-1.077"
       fill="#286aa6"
       id="path885" />
    <path
       d="m 64.095,173.957 c -6.067,-18.442 -7.544,-35.697 -7.85,-40.485 l -4.288,1.077 c -0.36,1.898 -1.381,7.462 -1.696,11.096 l 4.277,1.136 c 0.412,0.11 0.718,0.455 0.779,0.877 0.059,0.422 -0.138,0.84 -0.503,1.06 l -4.635,2.803 c 1.124,3.076 5.662,14.448 13.916,22.436"
       fill="#286aa6"
       id="path887" />
    <path
       d="m 69.036,208.726 c 0,-1.458 -1.187,-2.644 -2.645,-2.644 -1.458,0 -2.644,1.186 -2.644,2.644 0,1.458 1.186,2.645 2.644,2.645 1.458,0 2.645,-1.187 2.645,-2.645"
       fill="#a9a9a9"
       id="path889" />
    <path
       d="m 70.453,208.726 c 0,-2.24 -1.822,-4.061 -4.062,-4.061 -2.239,0 -4.061,1.821 -4.061,4.061 0,2.24 1.822,4.062 4.061,4.062 2.24,0 4.062,-1.822 4.062,-4.062 z m -6.706,0 c 0,-1.458 1.186,-2.644 2.644,-2.644 1.458,0 2.645,1.186 2.645,2.644 0,1.458 -1.187,2.645 -2.645,2.645 -1.458,0 -2.644,-1.187 -2.644,-2.645"
       fill="#000000"
       id="path891" />
    <path
       d="m 66.391,198.771 c 1.458,0 2.645,-1.187 2.645,-2.645 0,-1.458 -1.187,-2.644 -2.645,-2.644 -1.458,0 -2.644,1.186 -2.644,2.644 0,1.458 1.186,2.645 2.644,2.645"
       fill="#a9a9a9"
       id="path893" />
    <path
       d="m 66.391,200.188 c 2.24,0 4.062,-1.822 4.062,-4.062 0,-2.24 -1.822,-4.061 -4.062,-4.061 -2.239,0 -4.061,1.821 -4.061,4.061 0,2.24 1.822,4.062 4.061,4.062 z m 0,-6.706 c 1.458,0 2.645,1.186 2.645,2.644 0,1.458 -1.187,2.645 -2.645,2.645 -1.458,0 -2.644,-1.187 -2.644,-2.645 0,-1.458 1.186,-2.644 2.644,-2.644"
       fill="#000000"
       id="path895" />
    <path
       d="m 66.29,181.506 c -1.458,0 -2.643,1.187 -2.643,2.646 0,1.457 1.185,2.644 2.643,2.644 1.459,0 2.644,-1.187 2.644,-2.644 0,-1.459 -1.185,-2.646 -2.644,-2.646"
       fill="#a9a9a9"
       id="path897" />
    <path
       d="m 62.229,184.152 c 0,2.239 1.822,4.06 4.061,4.06 2.24,0 4.062,-1.821 4.062,-4.06 0,-2.24 -1.822,-4.063 -4.062,-4.063 -2.239,0 -4.061,1.823 -4.061,4.063 z m 4.061,2.644 c -1.458,0 -2.643,-1.187 -2.643,-2.644 0,-1.459 1.185,-2.646 2.643,-2.646 1.459,0 2.644,1.187 2.644,2.646 0,1.457 -1.185,2.644 -2.644,2.644"
       fill="#000000"
       id="path899" />
    <path
       d="m 26.494,207.148 c 0.226,0.254 5.662,6.222 11.739,2.319 0.202,-0.13 0.443,-0.187 0.682,-0.163 4.187,0.426 8.298,-0.026 8.62,-0.949 0.096,-0.28 0.064,-0.474 -0.118,-0.695 -0.815,-0.993 -3.978,-1.726 -8.227,-1.128 -0.598,0.078 -1.119,-0.324 -1.201,-0.905 -0.082,-0.581 0.323,-1.119 0.904,-1.201 4.154,-0.584 7.751,-0.07 9.554,1.305 1.191,-0.166 1.77,-0.476 1.899,-0.711 0.253,-0.458 0.172,-0.703 0.046,-0.901 -0.117,-0.184 -0.296,-0.361 -0.526,-0.529 -0.027,-0.02 -0.058,-0.031 -0.082,-0.052 -1.669,-1.145 -5.796,-1.864 -9.735,-1.592 -0.603,0.034 -1.094,-0.402 -1.134,-0.988 -0.04,-0.585 0.403,-1.093 0.988,-1.133 3.219,-0.221 8.143,0.145 10.833,1.802 1.241,-0.22 1.517,-0.583 1.56,-0.66 0.25,-0.452 0.168,-0.698 0.043,-0.895 -0.937,-1.471 -5.762,-2.489 -10.344,-2.173 -0.584,0.034 -1.094,-0.402 -1.133,-0.988 -0.04,-0.586 0.402,-1.093 0.988,-1.133 2.859,-0.196 7.064,0.078 9.853,1.303 0.426,-0.15 0.66,-0.319 0.728,-0.443 0.252,-0.457 0.171,-0.703 0.045,-0.9 -0.938,-1.472 -5.769,-2.489 -10.344,-2.173 -0.045,0.002 -0.09,0.002 -0.133,0.001 -0.08,-0.003 -8.2,-0.4 -11.296,3.721 -0.85,1.863 -2.723,4.712 -6.745,7.662 0.783,0.699 1.583,1.396 2.416,2.084 0.043,0.035 0.083,0.074 0.12,0.115"
       fill="#f6cbad"
       id="path901" />
    <path
       d="m 29.205,195.257 -1.344,-1.713 c -2.944,4.101 -6.526,7.042 -8.81,8.674 l 2.042,2.131 c 6.17,-3.952 7.749,-7.856 8.112,-9.092"
       fill="#ffffff"
       id="path903" />
    <path
       d="M 13.705,156.955 C 3.986,169.168 -5.2,180.71 16.39,201.45 c 1.908,-1.229 7.48,-5.153 11.051,-11.126 -1.053,-1.816 -4.738,-7.999 -8.859,-12.86 -0.011,-0.012 -0.022,-0.026 -0.033,-0.039 -1.513,-1.781 -3.083,-3.381 -4.602,-4.521 -0.47,-0.352 -0.565,-1.018 -0.213,-1.488 0.352,-0.469 1.017,-0.565 1.488,-0.213 1.436,1.077 2.896,2.51 4.308,4.104 6.435,-4.852 14.065,-10.153 15.957,-11.461 l 1.02,-26.428 c -2.722,0.604 -10.306,3.414 -20.372,16.452 -0.795,1.028 -1.611,2.055 -2.43,3.085"
       fill="#286aa6"
       id="path905" />
    <path
       d="m 102.961,116.42 c 0.163,-0.171 0.376,-0.365 0.648,-0.558 -0.781,-1.04 -0.814,-2.448 -0.053,-3.654 0.318,-0.505 0.796,-0.996 1.427,-1.401 -0.197,-0.265 -0.345,-0.552 -0.443,-0.855 -0.97,0.348 -1.802,1.04 -2.269,2.021 -0.712,1.495 -0.381,3.23 0.69,4.447"
       fill="#f6cbad"
       id="path907" />
    <path
       d="m 115.095,102.265 c -2.973,-0.818 -5.017,-0.054 -5.723,1.066 -0.144,0.229 -0.435,0.815 -0.011,1.303 0.04,0.046 0.055,0.102 0.086,0.153 1.037,-0.08 2.231,0.025 3.578,0.396 3.782,1.04 6.185,2.683 7.535,3.878 0.44,0.389 0.481,1.061 0.092,1.501 -0.39,0.44 -1.063,0.479 -1.5,0.091 -1.182,-1.045 -3.302,-2.488 -6.692,-3.42 -2.972,-0.818 -5.015,-0.054 -5.72,1.066 -0.145,0.229 -0.436,0.816 -0.012,1.304 0.102,0.119 0.17,0.255 0.211,0.397 1.268,-0.292 2.838,-0.287 4.702,0.226 2.513,0.69 4.713,1.726 6.54,3.078 0.473,0.349 0.572,1.014 0.223,1.487 -0.349,0.471 -1.017,0.569 -1.487,0.222 -1.111,-0.822 -3.026,-1.964 -5.839,-2.738 -2.976,-0.818 -5.018,-0.054 -5.723,1.066 -0.145,0.229 -0.436,0.815 -0.013,1.303 0.095,0.11 0.163,0.234 0.206,0.364 1.154,-0.271 2.692,-0.295 4.705,0.259 2.26,0.623 4.278,1.528 5.997,2.692 0.487,0.329 0.614,0.99 0.285,1.476 -0.329,0.486 -0.991,0.614 -1.476,0.285 -1.527,-1.034 -3.334,-1.843 -5.37,-2.403 -2.424,-0.668 -4.345,-0.431 -5.261,0.65 -0.487,0.573 -0.605,1.328 -0.309,1.972 0.016,0.036 0.032,0.075 0.044,0.114 0.581,1.774 2.061,4.803 3.565,5.38 0.405,0.154 0.773,0.113 1.196,-0.132 0.071,-0.038 0.304,-0.181 0.378,-0.54 0.081,-0.391 0.032,-1.297 -1.209,-2.964 -0.35,-0.471 -0.253,-1.137 0.218,-1.487 0.47,-0.351 1.136,-0.254 1.487,0.217 1.368,1.836 1.892,3.448 1.558,4.789 -0.115,0.461 -0.317,0.819 -0.533,1.097 -0.07,0.148 -0.162,0.285 -0.3,0.392 -0.026,0.02 -2.723,2.161 -2.567,4.72 0.1,1.633 1.36,3.189 3.745,4.624 0.299,0.18 0.49,0.497 0.511,0.846 l 8.427,-0.355 -0.229,-2.909 c -0.02,-0.247 0.06,-0.471 0.187,-0.662 l -0.026,-0.017 c 0.757,-1.706 8.051,-18.704 2.077,-26.489 -0.024,-0.032 -2.227,-2.833 -7.553,-4.298"
       fill="#f6cbad"
       id="path909" />
    <path
       d="m 122.843,140.598 -0.117,-1.918 -11.768,0.495 0.001,1.774 11.884,-0.351"
       fill="#ffffff"
       id="path911" />
    <path
       d="m 125.03,142.661 -17.281,0.509 c 0.033,1.245 0.04,2.753 0.049,4.436 0.064,12.094 0.182,34.604 9.965,34.604 0.449,0 0.925,-0.046 1.412,-0.139 1.889,-0.359 3.397,-1.415 4.611,-3.228 5.906,-8.818 2.121,-31.446 1.244,-36.182"
       fill="#286aa6"
       id="path913" />
    <path
       d="m 77.275,114.067 c 0.286,-0.9 0.289,-1.915 -0.945,-2.211 -0.112,0.027 -0.219,0.058 -0.331,0.084 -0.094,0.022 -0.192,0.04 -0.286,0.062 -0.437,0.099 -0.881,0.192 -1.334,0.276 -0.191,0.037 -0.385,0.067 -0.579,0.1 -0.367,0.063 -0.735,0.122 -1.11,0.174 -0.216,0.031 -0.434,0.058 -0.652,0.085 -0.368,0.046 -0.737,0.087 -1.11,0.123 -0.221,0.021 -0.44,0.042 -0.663,0.06 -0.401,0.033 -0.807,0.058 -1.214,0.08 -0.192,0.01 -0.384,0.023 -0.578,0.031 -0.603,0.024 -1.209,0.039 -1.82,0.039 -0.641,0 -1.275,-0.016 -1.904,-0.042 -0.199,-0.009 -0.396,-0.023 -0.594,-0.034 -0.429,-0.024 -0.855,-0.051 -1.277,-0.087 -0.227,-0.019 -0.452,-0.042 -0.677,-0.065 -0.392,-0.04 -0.78,-0.084 -1.163,-0.134 -0.224,-0.029 -0.447,-0.059 -0.668,-0.091 -0.392,-0.058 -0.777,-0.123 -1.159,-0.191 -0.197,-0.035 -0.395,-0.069 -0.589,-0.107 -0.459,-0.09 -0.908,-0.189 -1.35,-0.295 -0.106,-0.025 -0.217,-0.046 -0.322,-0.072 -0.06,-0.015 -0.118,-0.031 -0.176,-0.046 -1.413,0.182 -1.545,1.129 -1.313,2.035 2.212,3.237 6.213,5.263 10.991,5.263 4.643,0 8.574,-1.936 10.823,-5.037"
       fill="#c5292b"
       id="path915" />
    <path
       d="m 66.653,110.844 c 4.719,0 9.165,-0.757 12.606,-2.139 0.113,-1.306 0.011,-2.644 -0.301,-3.994 H 53.945 c -0.298,1.291 -0.404,2.567 -0.317,3.812 3.461,1.479 8.163,2.321 13.025,2.321"
       fill="#ffffff"
       id="path917" />
    <path
       d="M 79.78,102.585 H 53.122 c -0.473,0 -0.89,0.313 -1.021,0.769 -0.586,2.032 -0.764,4.056 -0.527,6.014 0,0.001 0,0.002 0,0.002 0.839,6.983 6.957,11.859 14.878,11.859 7.799,0 13.903,-4.783 14.845,-11.632 0.001,-0.003 0.003,-0.006 0.003,-0.01 0.278,-2.033 0.11,-4.131 -0.499,-6.234 -0.132,-0.455 -0.548,-0.768 -1.021,-0.768 z m -25.835,2.126 h 25.013 c 0.312,1.35 0.414,2.688 0.301,3.994 -3.441,1.382 -7.887,2.139 -12.606,2.139 -4.862,0 -9.564,-0.842 -13.025,-2.321 -0.087,-1.245 0.019,-2.521 0.317,-3.812 z m 1.516,9.13 c -0.232,-0.906 -0.1,-1.853 1.313,-2.035 0.058,0.015 0.116,0.031 0.176,0.046 0.105,0.026 0.216,0.047 0.322,0.072 0.442,0.106 0.891,0.205 1.35,0.295 0.194,0.038 0.392,0.072 0.589,0.107 0.382,0.068 0.767,0.133 1.159,0.191 0.221,0.032 0.444,0.062 0.668,0.091 0.383,0.05 0.771,0.094 1.163,0.134 0.225,0.023 0.45,0.046 0.677,0.065 0.422,0.036 0.848,0.063 1.277,0.087 0.198,0.011 0.395,0.025 0.594,0.034 0.629,0.026 1.263,0.042 1.904,0.042 0.611,0 1.217,-0.015 1.82,-0.039 0.194,-0.008 0.386,-0.021 0.578,-0.031 0.407,-0.022 0.813,-0.047 1.214,-0.08 0.223,-0.018 0.442,-0.039 0.663,-0.06 0.373,-0.036 0.742,-0.077 1.11,-0.123 0.218,-0.027 0.436,-0.054 0.652,-0.085 0.375,-0.052 0.743,-0.111 1.11,-0.174 0.194,-0.033 0.388,-0.063 0.579,-0.1 0.453,-0.084 0.897,-0.177 1.334,-0.276 0.094,-0.022 0.192,-0.04 0.286,-0.062 0.112,-0.026 0.219,-0.057 0.331,-0.084 1.234,0.296 1.231,1.311 0.945,2.211 -2.249,3.101 -6.18,5.037 -10.823,5.037 -4.778,0 -8.779,-2.026 -10.991,-5.263"
       fill="#000000"
       id="path919" />
  </g>
</svg>
