<svg width="58.265" height="140" xmlns="http://www.w3.org/2000/svg"><path d="M57.318 137.525c0 1.367-12.36 2.475-27.608 2.475-15.247 0-27.607-1.108-27.607-2.475 0-1.369 12.36-2.476 27.607-2.476s27.608 1.107 27.608 2.476" fill="#909392"/><path d="M57.269 63.157a.951.951 0 00-.903-.76l-.054-.895a.951.951 0 00-.94-.894l-.051-.64c.638-1.465 3.756-9.16.698-13.146-.051-.067-1.265-1.647-4.14-2.438l-.062-.017c1.595-1.575 2.243-3.89 2.243-5.657a4.919 4.919 0 00-2.244-4.142c3.118-7.594 2.95-14.969-.501-21.377C45.135 1.714 36.535 0 31.957 0c-.764 0-1.519.047-2.247.14A17.949 17.949 0 0027.464 0C22.887 0 14.286 1.714 8.106 13.191c-3.45 6.41-3.62 13.784-.501 21.378a4.919 4.919 0 00-2.242 4.14c0 2.735 1.55 6.779 5.755 7.37.653 3.648 3.35 10.45 14.294 11.88l-.27.3-2.507.63-5.904 1.103c-.804.039-4.947.612-10.64 7.987-.352.455-.713.91-1.075 1.364-4.383 5.507-9.35 11.749 1.603 22.089a.952.952 0 001.015.187l1.04 1.086a.952.952 0 001.14.18c.4.338.827.694 1.278 1.064.32.344 1.78 1.772 3.878 1.835.017 1.812.052 3.555.102 5.194a.95.95 0 00.917.921l.19.007c-.303 7.361-.668 20.276-.07 30.7-1.185 1.107-1.822 2.155-1.896 3.122-.05.66.16 1.278.61 1.786.591.669 1.462 1.022 2.517 1.022 2.2 0 5.122-1.6 6.337-4.223a.952.952 0 00.72-.693c.026-.098 2.34-9.125 5.313-25.565 2.973 16.44 5.287 25.467 5.313 25.565.09.352.372.618.721.693 1.215 2.624 4.137 4.223 6.336 4.223 1.056 0 1.927-.353 2.519-1.022.449-.508.66-1.126.61-1.787-.075-.966-.712-2.015-1.897-3.122.597-10.423.233-23.338-.07-30.7l.19-.006a.95.95 0 00.917-.921c.206-6.696.142-14.567-.211-25.154 2.784 4.62 5.318 6.932 7.697 7.036a4.375 4.375 0 001.758.012c1.223-.232 2.227-.922 2.983-2.052 3.274-4.89.8-17.144.693-17.663zm-1.88 16.87c-.542.81-1.217 1.283-2.062 1.444-.218.041-.431.062-.632.062-4.378 0-4.43-10.073-4.46-15.484-.003-.753-.006-1.428-.021-1.985l7.733-.228c.392 2.12 2.086 12.244-.557 16.19zm-32.293 52.92l-4.056.457c.164-3.152 1.019-19.39 1.507-25.651a.317.317 0 00-.292-.341.322.322 0 00-.34.292c-.476 6.101-1.299 21.657-1.494 25.388l-.897-.721c-.581-10.334-.224-23.11.104-30.89l10.927.39a.474.474 0 00.448-.273l.707-1.514.708 1.514a.475.475 0 00.431.274h.017l10.927-.39c.327 7.78.685 20.555.103 30.889l-.897.72c-.195-3.73-1.017-19.286-1.493-25.387a.317.317 0 10-.632.05c.488 6.26 1.342 22.498 1.507 25.65l-4.057-.457c-.48-1.927-3.066-12.57-6.145-30.446a.476.476 0 00-.938 0c-3.078 17.875-5.664 28.519-6.145 30.446zm19.84-32.458l-11.79.42-1.005-2.15a.476.476 0 00-.862 0l-1.005 2.15-11.789-.42c-.05-1.712-.081-3.5-.096-5.394.36-.104.724-.258 1.09-.477 1.169.108 4.228.253 4.69-1.074.073-.21.09-.42.058-.622.57-.137.943-.376 1.134-.723.223-.403.24-.816.075-1.189.38-.141.643-.347.797-.622.258-.47.254-.957-.011-1.374a1.59 1.59 0 00-.201-.249c.11-.095.207-.197.273-.317.258-.469.255-.957-.01-1.373-.798-1.25-3.696-1.53-5.468-1.412-.201-.01-1.205-.039-2.37.183.065-3.608.176-7.598.336-12.095a.467.467 0 00.039-.16l.473-12.253 4.948-.923c-.22 1.183-.645 3.61-.73 5.087a.475.475 0 00.353.487l1.212.322-1.447.876a.476.476 0 00-.206.554c.103.315 2.576 7.791 7.995 12.001l.006.004c.002 0 .003.004.006.005l.003.002c.028.02.06.033.092.047.012.005.023.013.036.018l.003.001a.474.474 0 00.29 0l.004-.001c.012-.004.023-.013.035-.018.032-.014.065-.027.092-.047l.004-.002.006-.005c.001-.002.004-.003.006-.004 5.419-4.21 7.892-11.686 7.995-12.001a.475.475 0 00-.206-.554l-1.448-.876 1.213-.322a.476.476 0 00.353-.487c-.085-1.477-.51-3.904-.73-5.087l4.951.924c.836 18.503 1.072 29.922.806 39.15zM15.023 85.74c-.38.137-.728.298-1.044.48l-.381-.484c.02-.033.038-.066.057-.1a.951.951 0 00.003-.933c-.072-.13-1.646-2.934-3.626-5.445a227.24 227.24 0 015.263-3.795 649.01 649.01 0 00-.272 10.277zm-2.556.865l.601.767c-.162.553-.869 2.3-3.63 4.068l-.913-.953c1.022-.73 2.624-2.047 3.942-3.882zm.368-74.39c.702-2.115 2.11-3.485 3.145-3.059 1.033.425 1.303 2.485.599 4.601-.703 2.116-2.11 3.486-3.145 3.06-1.035-.424-1.302-2.485-.599-4.601zM31.22 34.75h-3.046c-.203-1.772-1.64-2.778-4.016-2.778h-5.095c-2.334 0-3.759.971-4.002 2.683h-2.714v-7.478c0-.014-.007-.273.008-.713 2.61-.487 3.999-2.902 3.999-2.902-.587 1.865-1.602 2.983-1.602 2.983 5.045-.67 8.081-3.954 8.081-3.954-.373 1.265-2.46 3.283-2.46 3.283 5.953-.892 8.443-4.701 9.337-6.628.895 1.927 3.385 5.736 9.338 6.628 0 0-2.087-2.018-2.46-3.283 0 0 3.036 3.283 8.081 3.954 0 0-1.015-1.118-1.602-2.983 0 0 1.388 2.415 4 2.902.014.448.008.713.007.73v7.461h-2.74c-.243-1.712-1.668-2.683-4.002-2.683h-5.096c-2.376 0-3.812 1.006-4.016 2.778zM21.026 11.74c1.532.632 2.496 2.61 6.97 6.712-5.796-.122-7.683.684-9.219.052-1.534-.63-2.275-2.657-1.654-4.524.62-1.868 2.367-2.87 3.903-2.24zm-5.38 23.456c0-2.259 2.14-2.596 3.417-2.596h5.095c1.276 0 3.416.337 3.416 2.596v2.626c0 1.925-1.532 3.49-3.416 3.49h-5.095c-1.884 0-3.417-1.565-3.417-3.49zm16.175 0c0-2.259 2.14-2.596 3.415-2.596h5.096c1.276 0 3.416.337 3.416 2.596v2.626c0 1.925-1.532 3.49-3.416 3.49h-5.096c-1.883 0-3.415-1.565-3.415-3.49zm5.11 29.975l-1.914.508a.476.476 0 00-.123.867l2.074 1.255c-.502 1.375-2.531 6.462-6.228 10.04 2.716-8.253 3.376-15.974 3.513-18.117l1.919.482c.161.85.618 3.339.759 4.965zm-14.478 2.63l2.074-1.255a.477.477 0 00-.123-.867l-1.914-.508c.14-1.626.598-4.116.759-4.965l1.919-.482c.137 2.143.797 9.864 3.512 18.116-3.693-3.575-5.724-8.663-6.227-10.04zM46.778 49.2c.044.135.11.264.198.382a2.07 2.07 0 00-.638.627c-.34.54-.326 1.17.023 1.635a1.993 1.993 0 00-.29.25c-.479-.545-.627-1.32-.308-1.99a1.773 1.773 0 011.015-.904zM29.707 61.58l.999 1.656-.362.985H29.05l-.354-.965zm.638-.783l2.645-1.83.334.37c-.036.653-.168 2.657-.566 5.462zm-.489 16.68c-.047.146-.097.292-.146.438l-.146-.437-.08-.245a66.65 66.65 0 01-1.002-3.412c.194-3.58.547-7.396.668-8.649h1.095c.12 1.263.478 5.128.671 8.73a67.097 67.097 0 01-.98 3.331l-.08.245zm2.68-11.206a79.707 79.707 0 01-.86 4.522 240.422 240.422 0 00-.516-6.035l.175-.477zm-4.302-1.513c-.055.56-.298 3.054-.508 5.942a79.815 79.815 0 01-.842-4.44l1.182-1.96zm8.551-5.87l-2.516-.632-.267-.297c4.73-.618 8.388-2.306 10.91-5.034.06.075.124.147.19.216-.033.363.022.73.166 1.067.173.516.826 2.26 1.992 3.022-.32.638-.444 1.301-.355 1.941.118.842.583 1.61 1.386 2.294a.956.956 0 00-.068.355v.658c-1.863-2.17-3.585-2.644-4.735-2.644-.412 0-.741.062-.967.125zm-4.723-.436l-2.355 1.63-2.349-1.625.041-.781a35.429 35.429 0 004.622 0zm17.588 3.823l5.266-.221.052.858-5.318.157zm-23.226-3.308l2.645 1.83-2.408 3.991c-.398-2.811-.53-4.816-.564-5.459zm27.527.568l.012.008a.464.464 0 00-.084.296l.103 1.302-3.771.159a.475.475 0 00-.229-.379c-1.067-.642-1.63-1.338-1.676-2.069-.07-1.145 1.138-2.103 1.15-2.112a.467.467 0 00.133-.175c.097-.125.187-.285.239-.491.15-.6-.085-1.322-.697-2.143a.475.475 0 10-.763.568c.555.746.577 1.151.54 1.326a.343.343 0 01-.168.242c-.19.11-.354.128-.536.059-.673-.258-1.335-1.614-1.595-2.407a.463.463 0 00-.02-.051.823.823 0 01.139-.883c.41-.484 1.27-.59 2.354-.29.911.25 1.72.612 2.403 1.075a.476.476 0 00.533-.788c-.77-.521-1.672-.926-2.684-1.205-.9-.248-1.589-.237-2.105-.116a.478.478 0 00-.092-.163c-.19-.218-.06-.48.006-.583.315-.5 1.229-.843 2.56-.477 1.26.347 2.116.858 2.613 1.225a.475.475 0 10.566-.765c-.818-.604-1.802-1.068-2.927-1.377-.834-.23-1.536-.231-2.104-.1a.472.472 0 00-.094-.178c-.19-.219-.06-.481.005-.584.316-.501 1.23-.843 2.56-.477 1.517.417 2.465 1.063 2.994 1.53a.476.476 0 10.63-.712c-.604-.535-1.679-1.27-3.371-1.735a4.676 4.676 0 00-1.601-.177c-.014-.023-.02-.048-.039-.069-.19-.218-.06-.48.005-.583.316-.501 1.23-.843 2.56-.477 2.384.656 3.37 1.909 3.38 1.923 2.674 3.484-.59 11.09-.929 11.853zM48.005 44.69c.03-.427.022-.69.02-.73v-8.595a3.496 3.496 0 011.088-.174c1.94 0 3.52 1.58 3.52 3.52 0 1.953-.991 5.534-4.628 5.98zM10.309 35.19c.38 0 .745.062 1.087.174v8.576c-.002.045-.01.315.021.75-3.637-.445-4.627-4.027-4.627-5.98 0-1.94 1.579-3.52 3.519-3.52zm2.038 8.768v-7.576l2.672.627v.813c0 .62.14 1.207.381 1.735.645 1.405 2.042 2.384 3.663 2.384h5.095c2.23 0 4.044-1.848 4.044-4.12v-.84h2.99v.84c0 2.272 1.815 4.12 4.044 4.12h5.096c1.624 0 3.024-.983 3.666-2.393.24-.526.378-1.11.378-1.726v-.813l2.698-.634v7.6c.002.031.053 2.059-.963 4.48a2.69 2.69 0 00-1.464 2.562c-.28.373-.591.743-.94 1.105C40.71 55.226 36.002 56.8 29.71 56.8c-6.29 0-10.998-1.574-13.995-4.678-3.487-3.61-3.37-8.101-3.368-8.164zm3.988 17.532l-.456 11.825c-.847.586-4.26 2.958-7.14 5.129-.632-.713-1.285-1.355-1.928-1.836a.476.476 0 00-.57.76c.68.51 1.382 1.227 2.059 2.024l.015.017c1.844 2.175 3.493 4.942 3.964 5.754-1.598 2.673-4.091 4.43-4.945 4.979-9.661-9.28-5.55-14.445-1.202-19.91.367-.46.732-.92 1.088-1.38 4.504-5.834 7.897-7.092 9.115-7.362zm-2.597 26.79c1.386-1.845 5.02-1.667 5.055-1.666h.06c2.047-.142 4.208.313 4.628.972.056.088.093.198-.02.403-.03.055-.135.13-.326.198-1.248-.548-3.13-.67-4.409-.583a.475.475 0 10.065.95c2.05-.142 4.21.313 4.629.971.056.089.092.199-.02.4-.019.035-.142.198-.698.296-1.203-.741-3.407-.905-4.847-.806a.476.476 0 00.065.949c1.763-.122 3.61.2 4.357.712.01.01.024.015.036.024a.912.912 0 01.236.236c.056.089.092.199-.021.403-.058.106-.317.244-.85.319-.807-.616-2.416-.846-4.275-.584a.476.476 0 00.133.942c1.901-.268 3.317.06 3.681.505.082.099.096.185.053.31-.144.414-1.983.616-3.857.425a.476.476 0 00-.305.073c-2.72 1.747-5.152-.924-5.253-1.037a.486.486 0 00-.054-.052c-.372-.308-.73-.62-1.08-.932 1.799-1.32 2.637-2.595 3.017-3.429zM43.08 61.295c.11-.02.247-.035.41-.035.816 0 2.184.37 3.77 2.28-.005.028-.015.055-.014.084.03.61.034 1.453.038 2.429.023 4.276.058 10.553 1.87 13.978-1.487-1.34-3.356-3.834-5.638-8.277-.12-3.222-.266-6.693-.436-10.459"/><path d="M29.71 57.751c-.795 0-1.564-.026-2.31-.074l-.042.78 2.349 1.626 2.355-1.63-.04-.776c-.747.048-1.517.074-2.312.074M49.113 35.19c-.38 0-.745.062-1.088.174v8.594c.002.04.01.304-.02.731 3.637-.445 4.628-4.026 4.628-5.98 0-1.94-1.58-3.519-3.52-3.519M11.417 44.69a7.473 7.473 0 01-.021-.75v-8.576a3.506 3.506 0 00-1.087-.174c-1.94 0-3.52 1.58-3.52 3.52 0 1.953.991 5.535 4.628 5.98M29.71 56.8c6.292 0 11-1.574 13.997-4.678.349-.362.66-.732.94-1.106a2.69 2.69 0 011.464-2.562c1.016-2.42.965-4.448.963-4.478v-7.6l-2.698.633v.813c0 .617-.138 1.2-.378 1.726 1.509.548 2.53 1.588 2.53 2.784 0 1.764-2.217 3.194-4.951 3.194-2.734 0-4.95-1.43-4.95-3.194 0-.133.016-.263.04-.391h-1.43c-2.23 0-4.044-1.848-4.044-4.12v-.84h-2.991v.84c0 2.272-1.814 4.12-4.044 4.12h-1.404c.024.128.04.258.04.39 0 1.765-2.216 3.195-4.95 3.195s-4.95-1.43-4.95-3.194c0-1.19 1.01-2.226 2.506-2.775a4.152 4.152 0 01-.38-1.735v-.813l-2.673-.627v7.576c-.002.063-.119 4.553 3.368 8.164C18.712 55.226 23.42 56.8 29.71 56.8zm6.669-7.764l-.002.005c-.421 3.065-3.152 5.205-6.642 5.205-3.545 0-6.282-2.182-6.658-5.307a6.75 6.75 0 01.236-2.692.475.475 0 01.457-.344H35.7c.211 0 .397.14.457.344.272.941.347 1.88.223 2.79M35.236 31.972h5.096c2.334 0 3.759.971 4.002 2.683h2.74v-7.46c0-.018.007-.283-.008-.731-2.61-.487-3.999-2.902-3.999-2.902.587 1.865 1.602 2.983 1.602 2.983-5.045-.67-8.082-3.954-8.082-3.954.374 1.265 2.461 3.283 2.461 3.283-5.953-.892-8.443-4.701-9.338-6.628-.894 1.927-3.384 5.736-9.337 6.628 0 0 2.087-2.018 2.46-3.283 0 0-3.036 3.283-8.081 3.954 0 0 1.015-1.118 1.602-2.983 0 0-1.388 2.415-4 2.902-.014.44-.008.7-.007.713v7.478h2.714c.243-1.712 1.668-2.683 4.002-2.683h5.095c2.376 0 3.813 1.006 4.016 2.778h3.046c.204-1.772 1.64-2.778 4.016-2.778zm-1.972-1.29c4.366-3.014 9.485-2.98 9.485-2.98l1.392 1.636c-5.517-.08-11.133 2.353-11.133 2.353zM15.28 29.339l1.392-1.635s5.12-.035 9.485 2.98l.256 1.008s-5.615-2.433-11.133-2.353" fill="#f6cbad"/><path d="M41.577 45.526c2.734 0 4.95-1.43 4.95-3.194 0-1.196-1.02-2.236-2.529-2.784-.642 1.41-2.042 2.393-3.666 2.393h-3.665c-.024.128-.04.258-.04.39 0 1.765 2.216 3.195 4.95 3.195M12.894 42.332c0 1.764 2.216 3.194 4.95 3.194s4.95-1.43 4.95-3.194c0-.133-.016-.263-.04-.391h-3.691c-1.62 0-3.018-.979-3.663-2.384-1.495.55-2.506 1.585-2.506 2.775" fill="#ec9eac"/><path d="M44.141 29.338l-1.392-1.635s-5.12-.035-9.485 2.98l-.256 1.008s5.616-2.433 11.133-2.353M16.671 27.703l-1.392 1.635c5.518-.08 11.133 2.353 11.133 2.353l-.256-1.008c-4.365-3.015-9.485-2.98-9.485-2.98"/><path d="M35.236 41.313h5.096c1.884 0 3.416-1.566 3.416-3.491v-2.626c0-2.259-2.14-2.596-3.416-2.596h-5.096c-1.275 0-3.415.337-3.415 2.596v2.626c0 1.925 1.532 3.49 3.415 3.49zm1.417-6.633c.955 0 1.729.872 1.729 1.95 0 1.076-.774 1.949-1.729 1.949-.953 0-1.728-.873-1.728-1.95s.775-1.95 1.728-1.95M19.063 41.313h5.095c1.884 0 3.416-1.566 3.416-3.491v-2.626c0-2.259-2.14-2.596-3.416-2.596h-5.095c-1.276 0-3.417.337-3.417 2.596v2.626c0 1.925 1.533 3.49 3.417 3.49zm3.713-6.633c.955 0 1.728.872 1.728 1.95 0 1.076-.773 1.949-1.728 1.949s-1.728-.873-1.728-1.95.773-1.95 1.728-1.95" fill="#fad9c6"/><path d="M36.653 38.579c.955 0 1.729-.873 1.729-1.95s-.774-1.95-1.729-1.95c-.953 0-1.728.873-1.728 1.95s.775 1.95 1.728 1.95M22.776 38.579c.955 0 1.728-.873 1.728-1.95s-.773-1.95-1.728-1.95-1.728.873-1.728 1.95.773 1.95 1.728 1.95"/><path d="M16.579 13.756c.704-2.116.434-4.176-.599-4.6-1.036-.427-2.443.943-3.145 3.059-.703 2.116-.436 4.177.599 4.602 1.035.425 2.442-.945 3.145-3.06M17.123 13.98c-.621 1.867.12 3.893 1.654 4.524 1.536.632 3.423-.174 9.219-.052-4.474-4.102-5.438-6.08-6.97-6.711-1.536-.631-3.283.371-3.903 2.239" fill="#5f5f5f"/><path d="M49.154 80.032c-1.812-3.425-1.847-9.702-1.87-13.978a65.956 65.956 0 00-.038-2.43c0-.028.01-.055.013-.083-1.585-1.91-2.953-2.28-3.769-2.28-.163 0-.3.016-.41.035.17 3.766.316 7.237.436 10.459 2.282 4.443 4.151 6.937 5.638 8.277" fill="#286aa6"/><path d="M27.726 70.701c.21-2.888.453-5.382.508-5.942l-.168-.458-1.182 1.96c.218 1.358.494 2.854.842 4.44M31.675 70.794c.357-1.617.64-3.14.861-4.522l-1.2-1.99-.176.477c.056.567.304 3.108.515 6.035" fill="#fff"/><path d="M30.916 73.904c-.193-3.603-.55-7.468-.671-8.731H29.15c-.121 1.253-.474 5.07-.668 8.649a66.65 66.65 0 001.002 3.412l.08.245.146.437c.049-.146.099-.292.146-.437l.08-.245c.364-1.126.69-2.24.98-3.33M29.05 64.222h1.294l.362-.985-1-1.656-1.01 1.676.354.965" fill="#2bab6e"/><path d="M32.758 64.8c.398-2.805.53-4.81.566-5.462l-.334-.37-2.645 1.83 2.413 4.002M26.66 64.79l2.409-3.992-2.645-1.83-.327.362c.035.643.166 2.648.564 5.46" fill="#fff"/><path d="M29.71 102.107c.232 0 .43.167.47.394 3.078 17.875 5.664 28.519 6.144 30.446l4.057.457c-.165-3.152-1.02-19.39-1.508-25.651a.317.317 0 11.633-.05c.476 6.102 1.298 21.658 1.493 25.389l.897-.721c.582-10.334.224-23.11-.103-30.89l-10.927.39h-.017a.475.475 0 01-.43-.273l-.709-1.514-.707 1.514a.474.474 0 01-.448.273l-10.927-.39c-.328 7.78-.685 20.556-.104 30.89l.897.72c.195-3.73 1.018-19.286 1.494-25.387a.322.322 0 01.34-.292.317.317 0 01.292.34c-.488 6.261-1.343 22.5-1.507 25.652l4.056-.457c.48-1.927 3.067-12.57 6.145-30.446a.476.476 0 01.47-.394" fill="#286aa6"/><path d="M42.13 61.339l-4.95-.924c.22 1.183.644 3.61.729 5.087a.476.476 0 01-.353.487l-1.213.322 1.448.876c.189.114.274.343.206.554-.103.315-2.576 7.791-7.995 12.001-.002.001-.005.002-.006.004-.002 0-.004.004-.006.005l-.004.002c-.027.02-.06.033-.092.047-.012.005-.023.014-.035.018l-.004.001a.474.474 0 01-.29 0l-.003-.001c-.013-.005-.024-.013-.036-.018a.443.443 0 01-.092-.047l-.003-.002c-.003-.001-.004-.004-.006-.005l-.006-.004c-5.419-4.21-7.892-11.686-7.995-12.001a.476.476 0 01.206-.554l1.447-.876-1.212-.322a.475.475 0 01-.353-.487c.085-1.477.51-3.904.73-5.087l-4.948.923-.473 12.252a.467.467 0 01-.039.16c-.16 4.498-.271 8.488-.335 12.096a10.979 10.979 0 012.369-.183c1.772-.118 4.67.161 5.467 1.412.266.416.27.904.01 1.373-.065.12-.162.222-.272.317.076.078.144.16.2.249.266.417.27.904.012 1.374-.154.275-.417.48-.797.622.164.373.148.786-.075 1.189-.19.347-.565.586-1.134.723.032.201.015.411-.059.622-.46 1.327-3.52 1.182-4.69 1.074-.365.219-.729.373-1.089.477.015 1.895.047 3.682.096 5.394l11.79.42 1.004-2.15a.476.476 0 01.862 0l1.006 2.15 11.789-.42c.266-9.228.03-20.647-.806-39.15zM31.48 82.402a1.82 1.82 0 01-1.818 1.816 1.819 1.819 0 01-1.817-1.816 1.82 1.82 0 011.817-1.818 1.82 1.82 0 011.818 1.818zm-1.772 3.54a1.82 1.82 0 011.817 1.818 1.82 1.82 0 01-1.817 1.817 1.82 1.82 0 01-1.818-1.817 1.82 1.82 0 011.818-1.817zm0 9.273a1.82 1.82 0 01-1.818-1.817 1.82 1.82 0 011.818-1.817 1.82 1.82 0 011.817 1.817 1.82 1.82 0 01-1.817 1.817" fill="#286aa6"/><path d="M34.253 59.724c-.137 2.143-.797 9.864-3.513 18.116 3.697-3.577 5.726-8.664 6.228-10.04l-2.074-1.254a.476.476 0 01.123-.867l1.914-.508c-.14-1.626-.598-4.116-.76-4.965l-1.918-.482M28.68 77.84c-2.715-8.252-3.375-15.973-3.512-18.116l-1.92.482c-.16.85-.617 3.34-.758 4.965l1.914.508a.476.476 0 01.123.867L22.453 67.8c.503 1.377 2.534 6.465 6.227 10.04" fill="#286aa6"/><path d="M30.891 93.398c0-.653-.531-1.183-1.183-1.183a1.184 1.184 0 000 2.366c.652 0 1.183-.53 1.183-1.183" fill="#a9a9a9"/><path d="M31.525 93.398a1.82 1.82 0 00-1.817-1.817 1.82 1.82 0 00-1.818 1.817 1.82 1.82 0 001.818 1.817 1.82 1.82 0 001.817-1.817zm-3 0a1.184 1.184 0 012.366 0c0 .652-.531 1.183-1.183 1.183a1.185 1.185 0 01-1.184-1.183"/><path d="M29.708 88.943c.652 0 1.183-.53 1.183-1.183s-.531-1.183-1.183-1.183a1.184 1.184 0 000 2.366" fill="#a9a9a9"/><path d="M29.708 89.577a1.82 1.82 0 001.817-1.817 1.82 1.82 0 00-1.817-1.817 1.82 1.82 0 00-1.818 1.817 1.82 1.82 0 001.818 1.817zm0-3c.652 0 1.183.53 1.183 1.183 0 .652-.531 1.183-1.183 1.183a1.184 1.184 0 010-2.367"/><path d="M29.662 81.218a1.184 1.184 0 000 2.367 1.184 1.184 0 000-2.367" fill="#a9a9a9"/><path d="M27.845 82.402c0 1.002.815 1.816 1.817 1.816a1.82 1.82 0 001.818-1.816 1.82 1.82 0 00-1.818-1.818 1.82 1.82 0 00-1.817 1.818zm1.817 1.183a1.184 1.184 0 010-2.367 1.185 1.185 0 010 2.367"/><path d="M11.855 92.692c.101.113 2.534 2.784 5.253 1.037a.476.476 0 01.305-.073c1.874.191 3.713-.011 3.857-.424.043-.126.029-.212-.053-.311-.364-.445-1.78-.773-3.681-.505a.476.476 0 01-.133-.942c1.859-.262 3.468-.032 4.275.584.533-.075.792-.213.85-.319.113-.204.077-.314.02-.403a.912.912 0 00-.235-.236c-.012-.01-.026-.014-.036-.024-.747-.512-2.594-.834-4.357-.712a.476.476 0 01-.065-.95c1.44-.098 3.644.066 4.847.807.556-.098.68-.26.699-.295.111-.202.075-.312.019-.4-.42-.659-2.579-1.114-4.629-.973a.475.475 0 11-.065-.95c1.28-.087 3.161.036 4.41.584.19-.067.295-.143.325-.198.113-.205.076-.315.02-.403-.42-.659-2.581-1.114-4.629-.972h-.059c-.036-.001-3.67-.179-5.055 1.665-.38.834-1.218 2.109-3.018 3.429.35.312.709.624 1.081.932.02.016.037.033.054.052" fill="#f6cbad"/><path d="M13.068 87.37l-.601-.766c-1.318 1.835-2.92 3.151-3.942 3.882l.913.953c2.761-1.768 3.468-3.515 3.63-4.068" fill="#fff"/><path d="M6.132 70.232c-4.349 5.465-8.459 10.63 1.202 19.91.854-.55 3.347-2.306 4.945-4.979-.471-.812-2.12-3.579-3.964-5.754l-.015-.017c-.677-.797-1.38-1.513-2.06-2.023a.476.476 0 11.571-.761c.643.481 1.296 1.123 1.928 1.836 2.88-2.171 6.293-4.543 7.14-5.129l.456-11.825c-1.218.27-4.611 1.528-9.115 7.362-.356.46-.721.92-1.088 1.38" fill="#286aa6"/><path d="M46.071 52.094c.073-.077.169-.163.29-.25-.35-.465-.364-1.095-.023-1.635a2.07 2.07 0 01.638-.627 1.321 1.321 0 01-.198-.382 1.773 1.773 0 00-1.015.904c-.319.67-.17 1.445.308 1.99M51.5 45.76c-1.33-.366-2.244-.024-2.56.477-.064.103-.195.365-.005.583.018.02.025.046.039.069.464-.036.998.01 1.6.177 1.693.465 2.768 1.2 3.372 1.735a.476.476 0 01-.63.712c-.529-.467-1.477-1.113-2.994-1.53-1.33-.366-2.244-.024-2.56.477-.065.103-.195.365-.005.584a.472.472 0 01.094.177c.568-.13 1.27-.128 2.104.101 1.125.31 2.11.773 2.927 1.378a.475.475 0 11-.566.764c-.497-.367-1.354-.878-2.613-1.225-1.331-.366-2.245-.024-2.56.477-.065.103-.195.365-.006.583.042.05.073.105.092.163.516-.121 1.205-.132 2.105.116 1.012.279 1.915.684 2.684 1.205a.475.475 0 11-.533.788c-.683-.463-1.492-.825-2.403-1.076-1.085-.299-1.944-.193-2.354.291a.823.823 0 00-.138.883.463.463 0 01.02.05c.26.794.921 2.15 1.594 2.408.182.069.346.05.536-.06a.343.343 0 00.169-.24c.036-.176.014-.581-.541-1.327a.476.476 0 01.763-.568c.612.821.846 1.543.697 2.143a1.306 1.306 0 01-.239.49.467.467 0 01-.134.176c-.011.009-1.218.967-1.149 2.112.045.73.609 1.427 1.676 2.069.134.08.22.222.229.379l3.77-.16-.102-1.3a.464.464 0 01.084-.297l-.012-.008c.339-.763 3.603-8.37.93-11.853-.011-.014-.997-1.267-3.38-1.923" fill="#f6cbad"/><path d="M54.968 62.913l-.052-.858-5.266.221v.794l5.318-.157" fill="#fff"/><path d="M55.947 63.836l-7.733.228c.015.557.018 1.232.022 1.985.028 5.411.081 15.484 4.459 15.484.2 0 .414-.02.632-.062.845-.161 1.52-.634 2.063-1.445 2.643-3.946.949-14.07.557-16.19" fill="#286aa6"/><path d="M34.578 51.041c.128-.403.13-.857-.423-.99-.05.013-.098.027-.148.038l-.128.028c-.196.044-.394.086-.597.124-.086.016-.172.03-.26.044a15.554 15.554 0 01-.788.116c-.164.02-.33.04-.496.055a19.417 19.417 0 01-.84.063l-.259.014a20.456 20.456 0 01-1.666-.002c-.09-.004-.177-.01-.266-.015-.192-.01-.383-.023-.571-.039-.102-.008-.203-.019-.303-.029a18.644 18.644 0 01-1.338-.186c-.088-.016-.177-.03-.264-.048-.205-.04-.406-.084-.604-.132-.047-.011-.097-.02-.144-.032l-.079-.02c-.632.08-.691.505-.587.91.99 1.448 2.78 2.355 4.918 2.355 2.077 0 3.836-.866 4.843-2.254" fill="#c5292b"/><path d="M29.825 49.599c2.111 0 4.1-.339 5.64-.957a5.725 5.725 0 00-.134-1.787H24.138a5.776 5.776 0 00-.141 1.705c1.548.662 3.652 1.039 5.828 1.039" fill="#fff"/><path d="M35.699 45.903H23.77a.475.475 0 00-.457.344 6.75 6.75 0 00-.236 2.691v.001c.376 3.125 3.113 5.307 6.658 5.307 3.49 0 6.221-2.14 6.642-5.205l.002-.005c.124-.91.05-1.848-.223-2.79a.476.476 0 00-.457-.343zm-11.56.952H35.33c.14.604.185 1.202.135 1.787-1.54.618-3.53.957-5.641.957-2.176 0-4.28-.377-5.828-1.039a5.776 5.776 0 01.141-1.705zm.678 4.085c-.104-.405-.045-.83.587-.91l.079.02c.047.012.097.021.144.032.198.048.399.092.604.132.087.017.176.032.264.048a17.907 17.907 0 00.817.126c.172.023.345.042.52.06l.304.03c.188.015.38.027.571.038.089.005.177.011.266.015a20.604 20.604 0 001.666.002l.259-.014c.182-.01.364-.021.543-.036a17.735 17.735 0 00.793-.082c.098-.012.196-.024.292-.038.168-.023.333-.05.497-.078a15.438 15.438 0 00.856-.168l.128-.028c.05-.011.098-.025.148-.037.552.132.55.586.423.99-1.007 1.387-2.766 2.253-4.843 2.253-2.138 0-3.928-.907-4.918-2.355"/></svg>