<svg xmlns="http://www.w3.org/2000/svg" xmlns:xlink="http://www.w3.org/1999/xlink" width="140" height="112.343" xmlns:v="https://vecta.io/nano"><style><![CDATA[.B{fill:#222}.C{stroke:#222}.D{fill:#fff}.E{stroke:#fff}.F{fill:#66c7eb}.G{stroke:#66c7eb}.H{fill:#a5170d}.I{stroke:#a5170d}.J{fill:#ce1e1b}.K{stroke:#ce1e1b}.L{fill:#0069c5}.M{stroke:#0069c5}.N{stroke:#000}.O{fill:#464648}.P{stroke:#464648}.Q{fill:#7ed9f2}.R{stroke:#7ed9f2}.S{fill:#d3d1ca}.T{stroke:#d3d1ca}.U{fill:#4689a2}.V{stroke:#4689a2}.W{fill:#090000}.X{stroke:#090000}.Y{fill:#b36f48}.Z{stroke:#b36f48}.a{fill:#7e7e79}.b{stroke:#7e7e79}.c{fill:#484946}.d{stroke:#484946}.e{fill:#1c1c1a}.f{stroke:#1c1c1a}.g{fill:#95948f}.h{stroke:#95948f}.i{fill:#8d1412}.j{stroke:#8d1412}.k{fill:#bb0d00}.l{stroke:#bb0d00}.m{fill:#bebdba}.n{stroke:#bebdba}.o{fill:#134966}.p{stroke:#134966}.q{fill:#48484a}.r{stroke:#48484a}.s{fill:#121311}.t{stroke:#121311}.u{fill:#121310}.v{stroke:#121310}.w{fill:#121210}.x{stroke:#121210}.y{fill:#428198}.z{stroke:#428198}.AA{fill:#c6c4bd}.AB{stroke:#c6c4bd}.AC{fill:#c5ded7}.AD{stroke:#c5ded7}.AE{fill:#6e6d6c}.AF{stroke:#6e6d6c}.AG{fill:#1a6892}.AH{stroke:#1a6892}.AI{fill:#0098dd}.AJ{stroke:#0098dd}.AK{fill:#90100d}.AL{stroke:#90100d}.AM{fill:#8e100d}.AN{stroke:#8e100d}.AO{fill:#0075e0}.AP{stroke:#0075e0}.AQ{fill:#49494c}.AR{stroke:#49494c}]]></style><g stroke-width=".035"><path d="M91.375.053c.011.239.028 1.537-.009 1.765l-4.38 7.219h-.081l-.184-.07-.061-.061c6.362-10.55 4.224-6.812 4.715-8.853z" class="e f"/><path d="M91.374.018l1.21.005-.033 9.011-.098.006-.11-8.941c-.246.074-.137.381-.178.567l.023 8.454-.343-.04-.009-8.96-.304.009c-.071.395.024.788.07 1.178l-.077 7.535-.137-7.166-.016-1.658z" class="S T"/><path d="M91.534.129l.304-.009.009 8.96c-1.637-.089-3.236.001-4.94-.043l4.447-.017.037-7.344c.251 1.008.054-.167.137 7.166l.077-7.535c-.045-.39-.14-.783-.069-1.178z" class="g h"/><path d="M92.166.666c.041-.187-.068-.493.178-.567.225.475.048.848.11 8.941.438-.027 7.279.013 8.354-.012l.006.871-.798-.004.006-.039.766.023-.009-.566c-2.397-.036-15.89-.037-17.654-.013v-.271l9.063.091-.023-8.454z" class="D E"/><path d="M92.583 1.245l4.446 7.649.17.088c1.182.096 2.373.013 3.558.046l-4.02.01-4.16-7.096.006-.698z" class="e f"/><path fill="#494a47" stroke="#494a47" d="M83.105 9.909l.02-.948.005.938c.205-.011.417.001.621-.048.251-.124.439-.448.753-.396.217.132.393.323.621.439.371.017.56-.557.965-.431.211.071.311.288.433.455.043.379-.213.633-.535.775-.421-.266-.509-.243-.494-.789l-.527.012c.086 1.011-1.192.875-1.026-.009l-.834.001m1.3.043c-.237.05-.134.433.096.362.234-.049.126-.427-.096-.362m1.472.045c-.204.167.111.454.27.252.163-.163-.115-.405-.27-.252z"/><path d="M83.126 9.299l17.654.013.009.566-.766-.023c-.163-.139-.294-.348-.509-.404-.357-.046-.523.395-.851.438-.345-.07-.538-.573-.942-.418-.184.199-.177.178-.401.487-.492-.087-.664-.554-1.082-.5-.189.12-.35.274-.533.398-.223.134-.392-.128-.562-.224-.336-.332-.683.01-.892.159-.789.074-1.588.013-2.366.178l-.026.345-.504-.005-.002-.411c-.493-.024-.986.011-1.477-.011-.384.017-.562-.52-.956-.423-.217.127-.384.328-.615.431-.368.004-.57-.572-.975-.42-.19.04-.234.256-.342.385-.155.029-.312.044-.466.06-.122-.167-.222-.384-.433-.455-.405-.127-.594.448-.965.431-.228-.116-.404-.307-.621-.439-.313-.051-.501.272-.753.396-.204.049-.416.037-.621.048l-.004-.6z" class="a b"/><path d="M86.988 9.859c.107-.129.151-.345.342-.385.405-.152.606.423.975.42.231-.102.398-.304.615-.431.394-.096.572.44.956.423l1.477.011-1.736.017c-.003.904-1.03 1.026-1.064-.007l-.481.012c-.026.3-.122.7-.501.701-.433.045-.569-.42-.583-.761m.485.094c-.232.052-.126.417.096.359.245-.044.135-.44-.096-.359m1.567 0c-.239.048-.139.434.094.361.232-.05.129-.427-.094-.361z" class="c d"/><path d="M95.142 9.631l-.812.165c.244-.368.603-.372.812-.165z" class="B C"/><g class="c d"><path d="M95.704 9.856l.533-.398c.389-.05.616.381.972.481l-.27-.04c-.003.926-1.025 1.038-1.071.01l-.477.011c-.029.301-.123.703-.505.703-.494.052-.531-.551-.637-.832l.154-.106-.074.112.812-.165c.171.096.339.359.562.224m-.912.1c-.229.056-.128.416.096.356.245-.041.135-.445-.096-.356m1.565-.004c-.239.055-.127.437.104.357.234-.054.116-.428-.104-.357z"/><path d="M97.721 9.471c.404-.155.596.349.942.418.328-.043.494-.484.851-.438.215.056.345.265.509.404l-.006.039c.017 1.095-1.182.854-1.042.007l-.514.017c.055.34-.157.599-.442.751l-.394-.091-.327-.55c.245-.386.251-.372.422-.557m.113.522c-.203.165.105.457.268.261.156-.159-.112-.41-.268-.261m1.594-.039c-.228.052-.133.418.091.36.243-.043.144-.444-.091-.36z"/></g><path fill="#aeacaa" stroke="#aeacaa" d="M91.884 9.968c.778-.165 1.577-.104 2.366-.178l.039.104-1.707.007.005 8.212-.11-.015-.015-7.767-.605-.018.026-.345z"/><path fill="#131311" stroke="#131311" d="M84.405 9.952c.222-.065.331.313.096.362-.231.071-.333-.312-.096-.362z"/><path d="M85.878 9.997c.155-.152.433.089.27.252-.159.201-.473-.085-.27-.252z" class="s t"/><path d="M87.473 9.953c.232-.082.342.315.096.359-.222.059-.328-.306-.096-.359zm1.568 0c.223-.066.326.311.094.361-.233.073-.333-.313-.094-.361z" class="u v"/><path d="M94.792 9.956c.232-.089.342.315.096.356-.224.06-.326-.3-.096-.356zm1.565-.004c.22-.071.338.304.104.357-.231.079-.343-.303-.104-.357z" class="w x"/><path d="M97.834 9.994c.156-.149.424.102.268.261-.163.196-.471-.096-.268-.261z" class="s t"/><path d="M99.428 9.955c.235-.084.334.317.091.36-.224.058-.32-.307-.091-.36z" class="u v"/><path fill="#a3a29b" stroke="#a3a29b" d="M91.355 10.308l.504.005.002 7.824-.503-.011-.004-7.818z"/><path d="M91.858 10.313l.317.006.004 7.824-.318-.006-.002-7.824z" class="S T"/><path d="M92.176 10.319l.288.012.015 7.767c.039.005 13.739.02 14.536.049a7.53 7.53 0 0 0 .012.163c-.458.061-23.024.031-24.258-.19l9.411.023-.004-7.824z" class="D E"/><path d="M85.709 10.52l.277.173-4.463 7.412-.368-.002 4.555-7.582zm11.917.059l.394.091c.178.138 4.324 7.379 4.364 7.449h-.398l-4.361-7.541z" class="e f"/><path fill="#d7d5cd" stroke="#d7d5cd" d="M76.875 18.121c1.785-.052 28.607.394 30.151.189l.026.27c-.071 0-29.25-.01-29.933.05l-.22.374-.024-.883z"/><path d="M107.014 18.147c.088.282.049.588.029.877l-.611-.037c-.011.211.059.481-.13.637-.227.26-.72.17-.825-.162l.015-.522c.244-.079.495-.134.751-.161.178.177.465.312.7.156l.109-.355-.038-.433m-1.126.97c-.216.049-.12.39.089.337.224-.039.12-.401-.089-.337zm-28.769-.487l.589-.046.307.41c.161.482-.202.858-.567.773-.423-.063-.431-.553-.478-.881l.149-.256m.356.473c-.22.057-.134.417.09.36.245-.04.146-.451-.09-.36z" class="c d"/><path d="M77.709 18.583l3.647.029c-.895.676.307.204-3.34.381l-.307-.41z" class="a b"/><path d="M81.356 18.613l.338.001.157.157c-.294.029-.59.079-.844.235-.694 1.057-.287.44-10.135 16.786l-.398.015 10.05-16.749c-.834-.006-1.675.059-2.504-.054l-.004-.011c3.65-.176 2.445.295 3.34-.381z" class="e f"/><path d="M81.694 18.614c1.219-.079 2.443-.052 3.663-.024l-.41.376c-.961.011-1.924-.021-2.884.021l-.37-.372z" class="a b"/><path d="M85.357 18.59c1.472.098 2.952.044 4.427.024l.262.389c.134.388-.161.875-.601.76-.447-.076-.391-.604-.399-1.021a44.41 44.41 0 0 1-3.097-.005l.078.268c.291.76-.975 1.279-1.005.018-.984.029-1.976.084-2.958-.013.076 1.019-1.06 1.059-1.056-.004.254-.156.55-.206.844-.235l.212.215 2.884-.021.41-.376m-3.869.531c-.213.052-.109.389.096.331.231-.043.114-.405-.096-.331m4.018-.017c-.238.05-.134.433.098.356.237-.05.129-.429-.098-.356m4.022.009c-.223.046-.13.411.089.332.211-.05.113-.392-.089-.332z" class="c d"/><path fill="#858781" stroke="#858781" d="M89.783 18.614l.193.006c1.175.151 2.362-.022 3.54.095-.16.382-.598.252-.921.294l-.004.002-.024.522c-.049-.13-.066-.125-.105-.576l-.588.049-.013.474-.506-.027-.011-.45c-.433 0-.866 0-1.298-.001l-.262-.389z"/><path fill="#464744" stroke="#464744" d="M89.976 18.62l4.064-.028.381.374 2.871.044c-.948.083-1.908.07-2.857.009.032.337-.113.781-.526.758-.42.016-.507-.437-.528-.759l-.79-.006.004-.002c.323-.041.761.088.921-.294-1.178-.117-2.365.056-3.54-.095m3.839.522c-.207.162.104.46.265.26.161-.16-.107-.407-.265-.26z"/><path d="M94.041 18.592l3.648-.006-.346.42-.05.005c-.955-.091-1.915-.026-2.871-.044l-.381-.374z" class="a b"/><path d="M97.689 18.586l.371-.001.362.382 2.887.044c-.956.076-1.916.049-2.874.024-.039.206.016.477-.181.62-.203.184-.542.152-.715-.052-.098-.188-.133-.399-.198-.596l.346-.42m.142.548c-.185.12.015.435.196.292.177-.119-.018-.429-.196-.292z" class="c d"/><path d="M98.06 18.585h3.65l-.359.425-.041.001c-.96-.088-1.925-.027-2.887-.044l-.362-.382z" class="a b"/><path d="M101.71 18.585h.365l.372.417.371-.015-.372.027c.017.324-.077.762-.486.761-.446.041-.523-.445-.609-.766l.359-.424m.155.522c-.227.056-.124.412.096.356.249-.041.138-.449-.096-.356z" class="c d"/><path d="M102.074 18.585l3.646.022-.264.348c-.965.043-1.222-.023-3.01.048l-.372-.417z" class="a b"/><path d="M105.72 18.607l.345.006.178.166c-.256.027-.507.082-.751.161l-.015.522c-.276-.566.279-.358-2.637-.4.293.208 9.768 16.676 9.808 16.747h-.39l-9.733-16.798c1.012-.086 1.919-.011 2.931-.056.085-.117.174-.233.263-.348z" class="e f"/><path fill="#80807b" stroke="#80807b" d="M106.065 18.613l.987-.033-.109.355c-.335.222-.666-.122-.878-.322z"/><path fill="#898983" stroke="#898983" d="M85.948 18.737l3.097.005.005.264c-1.009-.002-2.016-.002-3.024 0l-.078-.268z"/><path fill="#a5a39f" stroke="#a5a39f" d="M91.874 19.007l.588-.049.05.428-.651.095.013-.474z"/><path d="M77.476 19.103c.237-.091.335.32.09.36-.224.057-.31-.303-.09-.36z" class="w x"/><path fill="#0e0f0c" stroke="#0e0f0c" d="M81.488 19.12c.21-.074.327.288.096.331-.205.059-.31-.278-.096-.331z"/><path d="M85.506 19.103c.227-.073.334.306.098.356-.232.077-.335-.306-.098-.356z" class="u v"/><path fill="#0e0e0c" stroke="#0e0e0c" d="M89.527 19.112c.203-.06.3.282.089.332-.22.079-.312-.285-.089-.332z"/><path d="M93.815 19.142c.157-.148.426.1.265.26-.161.2-.472-.098-.265-.26z" class="s t"/><path fill="#0f100e" stroke="#0f100e" d="M97.831 19.134c.178-.138.373.172.196.292-.182.144-.382-.172-.196-.292z"/><path d="M101.864 19.107c.234-.093.345.315.096.356-.221.056-.323-.3-.096-.356z" class="w x"/><path fill="#0e0f0c" stroke="#0e0f0c" d="M105.889 19.116c.209-.065.313.298.089.337-.209.054-.305-.288-.089-.337z"/><path fill="#a3a29b" stroke="#a3a29b" d="M91.355 19.454l.506.027-.001 16.327-.542.001c.057-1.176.037-16.284.037-16.355z"/><path d="M91.861 19.481l.31-.043-.004 16.365-.307.005.001-16.327z" class="S T"/><path fill="#fafaf9" stroke="#fafaf9" d="M92.171 19.439l.342-.052c-.1.682-.021.311-.052 16.41l-.293.007.004-16.365z"/><path d="M92.512 19.386l.055.148.018 16.28 26.327-.005 4.428 6.236-4.972-.104c-.237-.662-.55-1.003-2.534-4.271-.562-.821.355-.423-8.634-.848-.543.007-14.495-.305-15.082-.324-.259-.043-.516-.094-.773-.14l-.028-.548c.117 0 .686.002 1.142-.013l.052-16.41z" class="m n"/><path fill="#4e4e4b" stroke="#4e4e4b" d="M50.812 31.65l4.19.02c.862.002 2.999-.42 3.802 3.096.177.674.147.839.142 5.939h-.92l-.007-5.026c.012-1.201-.679-2.446-1.814-2.915-.736-.289-1.543-.151-2.312-.181-.577-.027-1.169.071-1.737-.052-.384-.215-.728-.498-1.134-.678-.074-.063-.145-.131-.21-.203m.778.187l3.281.166c.965.054 3.14-.134 3.879 3.591.007-1.339-.675-2.73-1.847-3.418-.795-.476-1.749-.364-2.634-.388-.893.011-1.787-.005-2.68.049z"/><path d="M51.59 31.837l2.68-.049c.884.024 1.838-.088 2.634.388 1.172.688 1.854 2.079 1.847 3.418-.235-1.187-.697-2.458-1.78-3.122-.609-.437-1.384-.429-2.099-.47l-3.281-.166z" class="D E"/><path fill="#181816" stroke="#181816" d="M51.022 31.852c.406.181.75.464 1.134.678.905.196 3.063-.154 4.049.233 1.134.47 1.826 1.714 1.814 2.915l.007 5.026h.92l-.006 1.305-.898.006c-.016-.414.013-.832-.07-1.239l-.394-.12-.028 1.354-.068-.001c.01-4.76.264-8.298-1.871-8.784l-3.67-.093c-.339-.4-.664-.821-.918-1.281z"/><path fill="#4e4e4b" stroke="#4e4e4b" d="M48.999 35.823c1.345-.084 2.696.001 4.042-.013 1.503-.055 2.347 1.879 2.281 2.752-.633-2.958-2.656-2.626-3.378-2.647-.62-.016-1.242-.004-1.857.074 1.098.03 2.209.016 3.293.221 1.321.449 1.894 1.952 1.925 3.243l.017-.882c.168.208.134.234.126 3.439l-.717.005-.017-3.054c-.009-1.03-.667-2.118-1.708-2.373-.953-.155-1.925.029-2.879-.088-.223-.099-.864-.453-1.13-.677z"/><path fill="#93928e" stroke="#93928e" d="M69.768 36.51c.146-.24.188-.795.553-.695 1.824.383 16.236.514 21.027.685-.037 1.677-.013 3.354-.022 5.033l-23.33-.385c.566-1.554 1.28-3.055 1.772-4.638z"/><path fill="#b8b7b4" stroke="#b8b7b4" d="M70.32 35.814c.291-.014 20.921-.005 20.998-.005l.028.548.773.14c-.072.001-19.975-.3-21.799-.683z"/><path d="M50.088 35.989c.615-.078 1.237-.09 1.857-.074.586.017 1.208-.066 1.746.222 1.049.491 1.556 1.815 1.633 2.435l-.017.882c-.03-1.292-.604-2.795-1.925-3.243-1.084-.205-2.196-.19-3.293-.221z" class="D E"/><path fill="#171715" stroke="#171715" d="M49.241 36.008l.888.492c.954.117 1.926-.067 2.879.088 1.041.255 1.699 1.343 1.708 2.373l.017 3.054-.45-.006c-.035-1.847.169-4.555-1.471-4.957l-2.908-.066c-.238-.313-.506-.611-.662-.977z"/><path fill="#63625d" stroke="#63625d" d="M67.044 41.743l2.724-5.233c-.493 1.582-1.206 3.084-1.772 4.638l47.064.781c-1.43.228-15.666-.05-36.147.142-.238-.022-.121.3-.161.434l44.488.116c-1.309.056-54.96.038-56.349.024-.011-.309-.029-.634.154-.902z"/><path fill="#a2a19c" stroke="#a2a19c" d="M91.347 36.5l15.854.322c8.989.425 8.072.027 8.634.848l2.534 4.271c-2.579.017-24.246-.359-27.043-.407l.022-5.033z"/><path fill="#050504" stroke="#050504" d="M57.578 40.657l.394.12c.083.407.054.826.07 1.239l-.492-.005.028-1.354z"/><path fill="#7b7971" stroke="#7b7971" d="M115.059 41.928c1.393-.094 5.122.116 8.354.116l-.077.581c-3.367-.168-21.128.002-44.585-.121.04-.134-.077-.456.161-.434l32.813-.043c1.11-.048 2.231.077 3.334-.099z"/><path fill="#a2a19c" stroke="#a2a19c" d="M50.202 42.229c-.027-.232.234-.237.395-.227l10.75.006.518 1.038c-.309-.237-.488-.582-.65-.925-.738-.01-8.589-.074-9.515.07l7.597.373.715 1.955c-3.347-.072-6.691-.26-10.037-.399.092-.629.207-1.256.226-1.892z"/><path d="M51.701 42.192c.919-.143 8.969-.077 9.515-.07.162.343.342.688.65.925.344.527.626 1.101.908 1.664l.017 7.951-.087-.001.034-6.854c.01-.389-.012-.782-.116-1.158-.85-.213-1.742-.061-2.609-.128-.178-.672-.46-1.31-.715-1.955l-7.597-.373z" class="m n"/><path fill="#686861" stroke="#686861" d="M48.976 44.675l1.226-2.446c-.018.636-.134 1.262-.226 1.892l10.037.399c.867.067 1.759-.085 2.609.128-2.072.072-13.325.051-13.646.027z"/><path fill="#b4b2a9" stroke="#b4b2a9" d="M66.89 42.644l11.866.013.01 2.562c-.893.002-1.787.004-2.68-.002l-.009 4.877 2.698.005c-.049.807-.045 1.617-.026 2.426-3.951.002-7.903-.004-11.855.004l-.005-9.884m1.56 2.581l-.001 4.846c2.343.055 4.689.016 7.033.021l-.007-4.878c-2.342.021-4.683-.004-7.025.011z"/><path fill="#c8c6bd" stroke="#c8c6bd" d="M78.756 42.658l12.938-.002.012.601-3.894.039 3.897.039.006 1.887c-.15-.001-.298 0-.445.002l-.009 4.834a5.27 5.27 0 0 1 .434.166c0 .776.061 1.558-.061 2.329l-12.886-.028.026-2.426 4.3-.01-.007-4.871-4.302.001c-.046-.853-.027-1.708-.01-2.562m4.926 2.557l-.011 4.878 7.033-.013v-4.854c-2.341-.01-4.682.01-7.022-.011z"/><path d="M91.695 42.655l31.642-.03-1.239 9.902-.392-.012 1.216-9.258c-.071 0-28.133-.02-31.215 0l-.012-.601z" class="S T"/><path fill="#f7f8f6" stroke="#f7f8f6" d="M87.814 43.296c3.096-.076 35.035-.039 35.108-.039l-1.286 9.8-.09.001-.012.107c.617-.006 1.236-.048 1.853.009.52.044.967.504.966 1.032.015.814.032 1.628-.017 2.441-.076-2.524.034-2.958-.838-3.28-1.145-.202-15.136-.175-15.206-.174l-.168-.054 13.4.017c-.06-.73.398-4.359.722-9.407l-34.431-.453z"/><path d="M91.711 43.335l30.534.414-.714 8.764c-10.987.031-27.642-.025-29.895.04.122-.771.061-1.553.061-2.329a9.14 9.14 0 0 0-.366-.145l6.959.005-.004-4.863-6.57.001a42.18 42.18 0 0 1-.006-1.887m7.199 1.888c-.029 1.624-.011 3.247-.011 4.871l6.987-.009c.015-1.621.049-3.246-.013-4.866l-6.963.004m7.59 0l-.009 4.858 7.03-.002-.009-4.855a1668.1 1668.1 0 0 1-7.013-.001m7.632-.005c-.035 1.622-.024 3.246-.009 4.868l6.992.001-.001-4.862c-2.327 0-4.655.007-6.982-.007z" class="S T"/><path d="M48.976 44.675l.112.009.001 7.837-.11.001-.004-7.847z" class="D E"/><path d="M49.088 44.684c.47.007 11.309.042 13.534-.035.104.376.126.768.116 1.158l-.029 6.703c-4.539.021-9.079-.007-13.619.012l-.001-7.837" class="S T"/><path d="M68.45 45.225l7.025-.011.007 4.878c-2.344-.005-4.69.034-7.033-.021l.001-4.846m.331.312v4.239l3.991-.027c.114.048 2.319.033 2.39.033l.001-4.247c-2.127 0-4.255-.002-6.382.002zm7.305-.32l6.982.001.007 4.871-6.998.005.009-4.877m.311.318l.016 4.262 6.359-.009.009-4.242-6.383-.011zm7.285-.321l7.022.011v4.854l-7.033.013.011-4.878m.324.322l.012 4.256h6.343l.015-4.257c-2.124 0-4.246-.001-6.37.001zm7.266-.312l7.015-.004.004 4.863c-2.319.02-4.64.03-6.959-.005l-.068-.021.008-4.834m.326.313l.012 4.256 6.378-.006-.029-4.241-6.361-.008zm7.312-.313l6.963-.004.013 4.866-6.987.009.011-4.871m.311.312l-.015 4.232 6.386.022.006-4.25c-2.126-.008-4.251.001-6.377-.004zm7.279-.312l7.013.001.009 4.855-7.03.002.008-4.858m.327.312l.013 4.257 6.343-.002.013-4.253c-2.124-.002-4.246 0-6.37-.001zm7.305-.317l6.982.007.001 4.862a440.44 440.44 0 0 1-6.992-.001l.009-4.868m.285.326l.007 4.245 6.386-.004.009-4.228-6.402-.013z" class="D E"/><path fill="#3d86a0" stroke="#3d86a0" d="M68.781 45.538l6.382-.002-.001 4.247c-.653.001-1.304.009-1.955-.01.484-.448 1.21-.137 1.803-.26-.665-.088-1.338.016-1.999-.1.672-.132 1.362.011 2.036-.127l-.015-3.607c-.672 0-5.681-.001-6.006 0l.022 3.655c1.062.087 2.141-.094 3.193.091-1.069.127-2.148-.026-3.219.088 1.017.071 2.037.005 3.056.026.25-.012.477.101.695.211l-3.991.027v-4.239z"/><path d="M76.397 45.535l6.383.011-.009 4.242c-2.12-.007-4.24-.018-6.359.009l-.016-4.262m.217.151l-.001 3.557 6.049.006-.028-3.572-6.02.008zm7.393-.15l6.37-.001-.015 4.257a407.39 407.39 0 0 0-6.343 0l-.012-4.256m.233.141l-.001 3.581h6.036l.005-3.58c-.466.002-6.039-.001-6.039-.001z" class="y z"/><path d="M91.597 45.538l6.361.009.029 4.241c-2.126-.001-4.252-.006-6.378.006l-.012-4.256m.235.142l-.013 3.606c1.065.156 2.154-.038 3.225.093-.398.229-1.673.024-3.209.143 1.342.079 2.695-.076 4.027.127.64-.154 1.297-.087 1.948-.128-.654-.126-1.338.095-1.971-.128.667-.126 1.353.041 2.016-.106l-.01-3.606h-6.012z" class="U V"/><path d="M99.221 45.535l6.377.004-.006 4.25c-2.129-.028-4.257.022-6.386-.022l.015-4.232m.237.143l.002 3.586 6.032-.016.005-3.565-6.039-.005zm7.369-.143l6.37.001-.013 4.253c-2.114-.015-4.229-.011-6.343.002l-.013-4.257m.229.144v3.579l6.041-.001-.01-3.578h-6.031z" class="y z"/><path d="M114.417 45.544l6.402.013-.009 4.228-6.386.004-.007-4.245m.234.135l-.01 3.592c-.113.156.077.349.245.313l2.802-.009c.422-.005.84.126 1.264.056.555-.09 1.126.032 1.675-.115-.655-.111-1.321.024-1.974-.091.668-.151 1.37.077 2.03-.134l-.021-3.613h-6.011z" class="U V"/><path d="M69.025 45.679l1.774-.001 4.247 3.198v.41c-.734-.048-1.47-.018-2.203-.026l-3.824-2.867.006-.715z" class="F G"/><path d="M70.798 45.678l.875.001c.227.189 2.668 2.023 3.364 2.38l.009.817-4.247-3.198z" class="Q R"/><path d="M71.673 45.679h3.358l.006 2.38c-.706-.362-3.202-2.245-3.364-2.38zm4.941.007l1.759-.001 4.171 3.113a4.15 4.15 0 0 0 .096-.705 6.97 6.97 0 0 1 .022 1.156l-2.24.02-3.752-2.786c.032.223-.084.525.128.687l2.767 2.086c-.983.012-1.97.038-2.952-.012l.001-3.557z" class="F G"/><path d="M78.373 45.685a6.08 6.08 0 0 1 .977.002c.384.368.82.677 1.258.976.678.465 1.293 1.027 2.033 1.395a3.9 3.9 0 0 1-.098.739l-4.171-3.113z" class="Q R"/><path d="M79.35 45.688l3.284-.01.007 2.381c-.74-.368-1.355-.931-2.033-1.395-.438-.299-.873-.607-1.258-.976zm4.889-.01l1.703.013c1.506.98 2.892 2.136 4.345 3.193l-.013.374-2.259.007c-1.201-1.038-2.554-1.883-3.789-2.88l.013-.709z" class="F G"/><path d="M85.942 45.691a5.38 5.38 0 0 1 .971-.005c1.07.882 2.238 1.638 3.363 2.448l.011.75-4.345-3.193z" class="Q R"/><path d="M86.913 45.686l3.365-.007-.002 2.455-3.363-2.448zm4.92-.007l1.781.004 4.245 3.195-.004.407c-.731-.045-1.464-.017-2.194-.023l-3.818-2.859-.01-.723z" class="F G"/><path d="M93.614 45.683l.873.001c.405.335 2.886 2.133 3.357 2.371l.015.822-4.245-3.195z" class="Q R"/><path d="M94.487 45.684l3.358-.005-.001 2.376c-.471-.238-2.952-2.037-3.357-2.371zm4.971-.006l1.725.007 4.223 3.084c-.03-.256.101-.606-.157-.776l-3.086-2.305 3.335-.005-.005 3.565c-.75.045-1.503.01-2.253.021l-3.791-2.803.01-.788z" class="F G"/><path d="M101.183 45.685a5.83 5.83 0 0 1 .98.002c.959.859 2.088 1.497 3.086 2.305.259.17.127.52.157.776l-4.223-3.084z" class="Q R"/><path d="M107.056 45.679l1.707.009c.711.413 3.678 2.692 4.322 3.207l.012.362c-.726.007-1.453.037-2.176-.006-.451-.287-3.706-2.725-3.872-2.86l.007-.711z" class="F G"/><path d="M108.762 45.688c.322-.028.646-.027.971-.005l3.357 2.452-.006.76-4.322-3.207z" class="Q R"/><path d="M109.733 45.683l3.353-.004.004 2.455-3.357-2.452zm4.919-.004l1.776.012 4.247 3.185.009.416c-.734-.045-1.47-.02-2.204-.022l-3.818-2.804-.01-.787z" class="F G"/><path d="M116.428 45.691l.871-.009c.246.198 2.886 2.125 3.367 2.377l.01.816-4.247-3.185z" class="Q R"/><path d="M117.299 45.683l3.364-.004.002 2.381c-.436-.229-3.096-2.16-3.367-2.377z" class="F G"/><path d="M69.019 46.394l3.824 2.867c-.32 0-.638-.004-.956-.006-.184-.212-.378-.416-.612-.571l-2.252-1.582-.004-.708zm15.207-.008l3.789 2.88a6.99 6.99 0 0 1-.876-.013c-.296-.311-.634-.578-.99-.815l-1.909-1.341-.013-.711zm7.617.016l3.818 2.859c-.315 0-.628-.006-.941-.01-.26-.312-.584-.557-.92-.779l-1.953-1.371-.005-.699zm15.206-.012l3.872 2.86c-.322.034-.645.035-.965.002-.296-.316-.639-.579-.998-.819l-1.9-1.339-.009-.705zm-30.378.093l3.752 2.786a8.38 8.38 0 0 1-.858-.013c-.854-.781-1.866-1.362-2.767-2.086-.212-.162-.096-.464-.128-.687zm22.777-.017c1.309.867 2.567 1.819 3.791 2.803a8.04 8.04 0 0 1-.858-.015c-.579-.546-2.513-1.913-2.929-2.144l-.005-.644zm15.213 0c1.322.864 2.563 1.847 3.818 2.804-.32.002-.638-.004-.955-.009-.381-.545-1.421-1.092-2.87-2.236l.007-.56z" class="Q R"/><path d="M114.654 47.026c1.371 1.083 2.491 1.694 2.87 2.236-.961.015-1.922-.005-2.882.01l.012-2.246zm-45.632.075c.792.468 1.489 1.07 2.252 1.582.234.155.428.359.612.571-.949.006-1.898.013-2.847-.001l-.017-2.152zm15.217-.003c.679.383 1.261.908 1.909 1.341.356.237.694.504.99.815l-2.901.006.001-2.162zm7.608.003c.693.396 1.293.926 1.953 1.371.335.222.66.467.92.779-.967.024-1.936-.02-2.901.033l.028-2.183zm7.606.009c.436.242 2.366 1.613 2.929 2.144l-2.921.01-.007-2.154zm7.604-.015c.671.392 1.256.908 1.9 1.339.359.239.701.503.998.819l-2.899.005.001-2.163z" class="F G"/><path d="M69.039 49.253l6.006.033c-.673.138-1.364-.005-2.036.127.661.116 1.334.012 1.999.1-.593.123-1.319-.188-1.803.26-.145-.005-.299.034-.434-.023-.218-.11-.445-.223-.695-.211-1.019-.021-2.038.045-3.056-.026 1.071-.113 2.151.039 3.219-.088-1.053-.185-2.131-.005-3.193-.091zm22.78.032c.799-.043 5.545-.03 6.036 0-.664.148-1.349-.02-2.016.106.633.223 1.317.002 1.971.128-.651.041-1.308-.026-1.948.128-1.332-.203-2.685-.048-4.027-.127 1.525-.118 2.811.087 3.209-.143-1.071-.131-2.16.063-3.225-.093z" fill="#548f9d" stroke="#548f9d"/><path d="M114.642 49.271l6.042.021c-.66.211-1.361-.017-2.03.134.653.116 1.319-.02 1.974.091-.549.146-1.12.024-1.675.115-.423.07-.842-.061-1.264-.056l-2.802.009c-.168.035-.359-.157-.245-.314z" class="y z"/><path fill="#d3e8e1" stroke="#d3e8e1" d="M48.98 52.522l13.729-.013-.005.151c-4.575-.001-9.15-.002-13.724.001z"/><path fill="#af1512" stroke="#af1512" d="M66.889 53.08l.006-.551 11.855-.004.016.556c-3.96-.001-7.918.002-11.877-.001z"/><path fill="#c31815" stroke="#c31815" d="M78.75 52.525l12.886.028c.17.106.354.196.561.181l28.551-.01c.205.002.433.001.593.157-.075 0-29.027-.022-29.657.05 1.672.095 3.352-.032 5.027.06l-.013.118c0 0-17.931-.028-17.931-.028l-.016-.556z"/><path d="M91.636 52.553c2.138-.061 19.605-.012 29.895-.04a6.04 6.04 0 0 0-.021.494c-.524-.387 2.251-.33-29.313-.273-.207.016-.392-.074-.561-.181z" class="J K"/><path opacity=".98" fill="#ce1714" stroke="#ce1714" d="M121.706 52.515l.392.012-.094.523-.367.006.07-.542z"/><path d="M48.98 52.661H62.79l-.038.313c-.675-.119-4-.012-13.798-.062l.026-.251z" class="J K"/><path fill="#363734" stroke="#363734" d="M122.003 53.05l.057-.299-.023.321c2.853.09 2.408-.385 2.449 4.066l1.515.016-4.588.096.137-.071c.775-.065 1.554 0 2.332-.037-.038-1.104.079-2.222-.06-3.317-.553-.279-1.244-.116-1.853-.132l-.101.858a5.46 5.46 0 0 1 .03-.882l-4.624.009-.228 1.465-.102.168c-.073.566-.087 1.145-.013 1.713l.265.009.006.1c-.168-.002-.335-.001-.501.001l-.006-3.464.1-.166 6.703-.138c.874.323.762.76.838 3.28.049-.812.032-1.627.017-2.441.001-.528-.446-.988-.966-1.032-.617-.056-1.236-.015-1.853-.009l.012-.107.457-.007z"/><path fill="#ee3227" stroke="#ee3227" d="M48.954 52.912l13.798.062.088.095c-14.643-.005-13.33-.013-13.828.03l-.059-.188z"/><path fill="#e21d1a" stroke="#e21d1a" d="M91.684 52.931c.63-.073 29.585-.05 29.657-.05l.113.084c-1.289.053-27.758.08-29.771-.034z"/><path fill="#8b1210" stroke="#8b1210" d="M96.711 52.991c.512.033 23.529.025 24.744-.026l.056.041.012.149-24.826-.046z"/><path fill="#373a37" stroke="#373a37" d="M48.234 53.943c.004-.435.361-.782.778-.843.81-.071 73.038.01 74.485.266-.963.23-3.794.02-6.703.138l-.1.166c-2.238.028-4.478-.002-6.716.013-.017.657.001 3.388.001 3.458l-.648-.001.02-3.457c-2.487-.011-4.974.009-7.46-.01-.076 1.154.005 2.312-.026 3.468-.207-.002-.411-.002-.616 0l-.001-3.456-7.263-.005c-.46 1.137-.175.077-.337 3.329l.256.007v.124c-.196-.001-.389-.001-.582.001l-.004-3.457c-2.305-.006-4.611.006-6.916-.004-.189.913-.255 1.505-.303 2.749.013.179-.11.503.117.582l.126.033v.093c-.199-.002-.398-.001-.594 0l-.006-3.453c-1.296-.007-6.865-.015-7.792.004-.015.698-.697 1.764-.282 3.269.126.057.181.087.251.124v.056l-.621-.001a144.55 144.55 0 0 1-.004-3.439l-7.538-.01a167.71 167.71 0 0 1-.002 3.452l-.694-.001.009-3.456c-.721-.006-1.442-.006-2.163.001a89.53 89.53 0 0 0 .012 3.454h-.037l.007-3.462c-1.647.001-3.861-.002-4.477.004l-.001 3.467-.697.002-.007-3.465-6.122-.001-.002 1.139-.128-.001c-.006-.284-.018-.566-.034-.848-.108 2.554-.271.663-.245 3.007a9.49 9.49 0 0 0 .41.073l-.001.106-.707.001-.004-3.475c-5.86-.067-5.788-.037-5.947.188l-.002-.034c-.377.381-.334.334-.434.456-.086 1.725.013 1.775.038 2.684.145.048.088.028.252.088l.084.061c-.221.009-.44.024-.659.04.039-1.075-.019-2.152.028-3.226m14.019.056c-.033.843-.023 1.688-.087 2.531.015.184-.099.439.117.545.027-1.026-.004-2.052-.03-3.076m47.461 3.018l.152.005-.04-3.023-.112 3.018m-40.143-2.903l-.115 2.875.168.077a45.83 45.83 0 0 0-.054-2.952m32.081.118l-.093 2.787.14.001c-.002-.929-.011-1.859-.048-2.788z"/><path fill="#93928e" stroke="#93928e" d="M90.835 53.112l17.288.026.168.054c-.946.162-17.18-.05-17.457-.079z"/><path fill="#d81d1a" stroke="#d81d1a" d="M62.413 53.682l.37-.002-.001 2.379-.366.006-.003-2.382z"/><path d="M48.95 53.842c.214-.186.024-.222 5.923-.155l-.001 2.385h-5.87c-.077-.742.093-1.496-.052-2.23zm6.636-.157l6.122.001v2.388h-6.12l-.002-2.39z" class="J K"/><path d="M66.907 53.686l2.163-.001.006 2.386c-.725.022-1.45.013-2.175-.002l.006-2.382zm2.851.003l7.538.01-.01 2.371-7.523.001-.006-2.382z" fill="#af1916" stroke="#af1916"/><path fill="#ad1916" stroke="#ad1916" d="M77.951 53.689l.743-.01c.102.794.04 1.594.074 2.392-.224 0-.253-.002-.738.006l-.082-2.275z"/><path fill="#c31c19" stroke="#c31c19" d="M78.694 53.68l7.049.006.002 2.385-6.977.001-.074-2.392z"/><path fill="#701411" stroke="#701411" d="M86.403 53.682c.029.387.096 2.499.073 3.458l-.133-.001.06-3.457z"/><path fill="#db1916" stroke="#db1916" d="M86.403 53.682l6.916.004.005 2.381-.162.005-.016-2.183-6.56-.043c-.038.739-.022 1.481.006 2.22l-.113-.004-.076-2.38z"/><path fill="#731b19" stroke="#731b19" d="M93.894 53.91l.091-.229.043 3.461h-.123l-.011-3.231z"/><path d="M93.986 53.681l7.263.005.002 2.387c-2.408.007-4.816.023-7.224-.002l-.041-2.39z" class="J K"/><path d="M101.866 57.142l.026-3.468.04 2.394 7.419.009-.018 1.064-7.466.001z" class="i j"/><path d="M101.891 53.674l7.46.01-.001 2.393c-2.474.002-4.946.022-7.419-.009l-.04-2.394zm8.088.009l6.716-.013-.002 2.403a425.03 425.03 0 0 1-6.716-.002l.002-2.387z" class="J K"/><path fill="#4c221f" stroke="#4c221f" d="M117.275 53.679c.048.557.058 1.061.05 3.458l-.123-.004c-.004-.07-.068-2.65.073-3.454z"/><path d="M117.275 53.679l4.158.006-.152 1.876.285-1.877.333-.013c-.034.292-.044.587-.03.882-.099.501-.156 1.009-.217 1.517l-4.324.009-.053-2.399z" class="J K"/><path d="M121.434 53.685l.133-.001c-.127.621-.174 1.254-.285 1.877l.153-1.876z" class="D E"/><path d="M48.927 53.875l.023-.033c.145.734-.024 1.488.052 2.23h5.87l.005 1.091c-1.965-.032-3.93 0-5.895-.027l-.055-3.261z" class="i j"/><path fill="#78110e" stroke="#78110e" d="M77.949 53.803c.088.755.052 1.516.082 2.275l.67-.006c.048.355.073.714.081 1.072l-.86-.005.028-3.336z"/><path fill="#c31c19" stroke="#c31c19" d="M86.586 53.846l6.56.043.016 2.183c-2.19.017-4.38.023-6.57-.006l-.006-2.22z"/><path fill="#76716c" stroke="#76716c" d="M48.578 54.192l.238-.242-.035 3.118-.134-.049c-.052-.626.059-1.261-.085-1.878-.022-.317-.011-.634.017-.949z"/><path d="M55.314 55.351c.077-.455.088-.916.107-1.376l.05 3.062-.234-.041.077-1.644z" class="m n"/><path d="M62.254 53.999l.03 3.076c-.216-.106-.102-.361-.117-.545l.087-2.531z" class="D E"/><path fill="#75807b" stroke="#75807b" d="M77.939 53.935l-.018 3.148-.093-.049c.022-.4-.006-.803-.129-1.184-.038-1.263.039-1.114.24-1.915z"/><path fill="#889994" stroke="#889994" d="M86.101 56.432c.032-.834.081-1.671.251-2.49l-.009 3.104-.126-.033c.093-.198.052-.444-.117-.582z"/><path fill="#526561" stroke="#526561" d="M93.705 54.799c-.04-.313.044-.614.189-.889l.011 3.107-.127-.004-.073-2.214z"/><path d="M109.715 57.017l.112-3.018.04 3.023z" class="D E"/><path d="M117.227 53.957l-.03 3.076-.265-.009c.117-1.109-.004-1.31.295-3.068z" class="m n"/><path d="M69.572 54.114l.054 2.952-.168-.077.115-2.875z" class="S T"/><path d="M48.491 54.297l.088-.105c-.084.938.05.588-.06 2.39-.09-.759-.066-1.524-.028-2.285z" class="N"/><path d="M101.653 54.232l.048 2.789-.14-.001.093-2.787z" class="D E"/><path d="M55.456 54.823l.128.001.002 2.231-.115-.018-.016-2.214z" class="B C"/><path fill="#242523" stroke="#242523" d="M77.67 56.959c-.196-.712-.152-1.489.041-2.198l-.041 2.198z"/><path d="M93.705 54.799c.095.734.066 1.476.073 2.214l-.129-.004.056-2.21zm-45.144.342c.144.617.033 1.253.085 1.878l-.118-.039.033-1.839z" class="D E"/><path d="M116.945 55.312l.102-.168-.116 1.881c-.073-.567-.06-1.147.013-1.713z" class="W X"/><path d="M55.176 56.982c-.006-.545-.07-1.112.138-1.631l-.077 1.644z" class="N"/><path fill="#cbc9c2" stroke="#cbc9c2" d="M77.699 55.85c.123.382.151.784.129 1.184l-.159-.076.029-1.109z"/><path d="M55.589 56.074h6.12l.007 1.077c-2.043.006-4.088-.018-6.131.01.003-.257-.001.128.004-1.087z" class="i j"/><path fill="#91110f" stroke="#91110f" d="M62.416 56.064l.366-.006.002 1.092c-.093 0-.278-.001-.372-.001l.004-1.084z"/><path d="M66.901 56.068l2.175.002-.015 1.07h-2.142l-.018-1.072zm2.863.004l7.523-.001.013 1.067-7.545.004.009-1.07z" fill="#78110e" stroke="#78110e"/><path d="M78.7 56.072l7.046-.001.004 1.069-6.969.005a9.36 9.36 0 0 0-.081-1.072zm7.779-.01l6.846.005-.001 1.076c-2.282.002-4.565.007-6.847-.002l.002-1.078z" fill="#861310" stroke="#861310"/><path d="M94.027 56.071l7.224.002-.001 1.069h-7.221l-.001-1.071zm15.949 0l6.716.002.009 1.061-6.721.007-.004-1.071zm7.352.007l4.324-.009-.101 1.11-4.225-.043.002-1.059z" class="i j"/><path fill="#cac6c0" stroke="#cac6c0" d="M86.101 56.432c.17.138.21.384.117.582-.227-.079-.104-.402-.117-.582z"/><path d="M46.838 57.159l34.813.371c-1.147.244 1.552.033-33.622.107-.137.004-.261.045-.372.124-.012.453-.006 1.05.005 1.482l-.823.001-.001-2.086z" class="g h"/><path fill="#5b5e5a" stroke="#5b5e5a" d="M48.206 57.17c.347-.025 72.036-.058 73.345.01-1.661.86-71.12.06-73.345-.01z"/><path fill="#908f8a" stroke="#908f8a" d="M126.163 57.145l-.354 2.085-.338.015.304-1.716-78.118.233c.484-.346 32.466.094 33.994-.232 4.756-.09 31.693.296 44.512-.384z"/><path fill="#efefee" stroke="#efefee" d="M125.775 57.528l-.395 2.209-.159-.561-.176.395c-.042-.45-.041-.283.113-1.565-.967.038-8.166-.002-9.199-.066-.345-.193-.746-.217-1.128-.272 1.036-.079.275-.036 10.943-.14z"/><path fill="#fcfbfb" stroke="#fcfbfb" d="M99.361 57.778c16.214-.161 15.99-.178 16.599.162-.705.014-16.008-.082-16.599-.162z"/><path d="M47.657 57.761c.766.076 51.696.016 51.704.017.595.081 24.855.265 25.798.228-.05.415-.113.829-.14 1.248-.932-.275 3.347-.116-77.36-.155l-.001-1.338z" class="AA AB"/><path fill="#e1d1be" stroke="#e1d1be" d="M47.659 59.099l77.199.112c-3.21.059.629.014-77.196.032z"/><path fill="#0066b1" stroke="#0066b1" d="M46.839 59.244l78.019-.033.107.027-.213 1.719c-.12 0-75.8.008-77.913-.001v-1.711z"/><path fill="#d5e5f1" stroke="#d5e5f1" d="M124.965 59.238l.054.016.027.317.176-.395.159.561-.168.954-.25.295-.21-.029.214-1.719z"/><path fill="#0068bb" stroke="#0068bb" d="M125.471 59.244l.338-.015-.301 1.736-.346-.011.31-1.71z"/><path fill="#f0efee" stroke="#f0efee" d="M124.961 60.986l.25-.295-1.259 7.194c.022-.618.789-6.858.799-6.929l.21.029z"/><path d="M46.839 60.956l.814.004.007 1.347-.822.001.001-1.351z" class="g h"/><path d="M47.653 60.96l76.926-.002-.149 1.195c-3.811.045-3.771-.081-4.61.106-.438-.082-.887-.084-1.323-.001-.602-.166-4.054-.065-7.518-.104-.315-.005-.623.046-.931.094-.437-.06-.882-.081-1.315.006-.584-.139-.355-.081-7.269-.095-.429-.02-.859.012-1.282.088a4.6 4.6 0 0 0-1.32.001c-.952-.187.873-.021-51.204-.095l-.006-1.193z" class="AA AB"/><path fill="#7c7b76" stroke="#7c7b76" d="M124.578 60.957h.173l-.162 1.341-.177.001.166-1.342z"/><path fill="#a09d9a" stroke="#a09d9a" d="M125.162 60.955l.346.011-.232 1.352-.356.009.242-1.371z"/><path fill="#c4ded7" stroke="#c4ded7" d="M47.659 62.153l51.204.095c-.487.096 1.456.037-51.203.059z"/><path d="M100.182 62.246c.658-.118.379-.088 6.659-.084.631.006 1.271-.056 1.892.091-.426.081-8.102.083-8.551-.007z" class="AC AD"/><path fill="#6e6e6c" stroke="#6e6e6c" d="M108.733 62.254c.461-.092 1.007-.067 1.458.022.564.313 1.094.726 1.367 1.33 1.111 3.101-3.236 4.605-4.354 1.837-.348-.766-.381-2.28 1.387-3.162l.142-.027m.106.2c-.893.232-1.605 1.082-1.605 2.015-.102 1.786 2.082 2.956 3.53 1.72.714-.573.964-1.633.605-2.471-.384-.962-1.527-1.55-2.53-1.264z"/><path d="M110.048 62.248c.307-.048.616-.099.931-.094l7.518.104c-.406.074-8.063.066-8.448-.01z" class="AC AD"/><path fill="#6a6a69" stroke="#6a6a69" d="M118.497 62.257c.658-.125 1.147-.029 1.458.024 2.831 1.449 1.369 4.662-.803 4.61-2.225.046-3.599-3.216-.795-4.608l.14-.026m.104.2c-.721.198-1.33.782-1.525 1.508-.359 1.177.489 2.524 1.709 2.695 1.243.26 2.534-.801 2.512-2.072.09-1.381-1.377-2.513-2.696-2.13z"/><path d="M119.82 62.259c.837-.187.792-.061 4.61-.106l-.017.146c-1.395-.003-4.142.037-4.593-.04z" class="AC AD"/><path d="M46.838 62.307l51.882-.032c-.568.31-1.095.727-1.372 1.328l-50.509-.005-.001-1.292zm53.489-.031c.547.047 7.032.036 8.264.005-.582.29-1.115.712-1.383 1.32-1.836 0-3.672-.002-5.507.002-.27-.606-.801-1.023-1.374-1.327zm9.864 0c.602.041 6.997.037 8.165.007-.582.289-1.106.716-1.382 1.319-1.805-.001-3.611-.006-5.416.004-.273-.604-.804-1.016-1.367-1.33zm9.763.006l4.635.016-.151 1.311-3.11-.005c-.277-.599-.797-1.027-1.374-1.322z" class="J K"/><path d="M108.839 62.454c1.003-.287 2.146.301 2.53 1.264.359.838.109 1.898-.605 2.471-1.442 1.231-3.633.072-3.53-1.72 0-.933.712-1.783 1.605-2.015m-1.47 1.88c-.085.89.454 1.792 1.298 2.105.89.364 1.987-.051 2.457-.88.564-.926.235-2.363-.815-2.777l-.004.016-.085.009c-.167-.266-.54-.233-.814-.268-1.021-.06-1.938.794-2.037 1.796zm11.231-1.877c1.319-.383 2.786.749 2.696 2.13.022 1.271-1.269 2.332-2.512 2.072-1.22-.171-2.068-1.517-1.709-2.695.195-.726.804-1.31 1.525-1.508m-1.442 1.974c-.14 1.162.958 2.231 2.109 2.136 1.116-.045 2.021-1.121 1.894-2.23-.112-.937-.91-1.75-1.868-1.789-1.078-.128-2.135.795-2.136 1.883z" class="W X"/><path fill="#cb0b08" stroke="#cb0b08" d="M124.92 62.326l.356-.009-.222 1.23-.361.09.227-1.311z"/><path fill="#20729d" stroke="#20729d" d="M117.158 64.431c.001-1.088 1.058-2.011 2.136-1.883.958.039 1.755.853 1.868 1.789l-.254.081-.021-.067c-.046-.826-.697-1.544-1.521-1.647-.805-.102-1.51.538-1.737 1.272l-.111-.073-.057.399-.302.129z"/><path fill="#1d6a94" stroke="#1d6a94" d="M107.369 64.334c.099-1.001 1.016-1.855 2.037-1.796.273.035.646.002.814.268-.576-.026-1.245-.39-2.002.492-.288.322-.348.765-.415 1.175l-.434-.139z"/><path d="M108.218 63.298c.31-.361.784-.65 1.276-.589.626.223 1.166.649 1.466 1.25l.072-.191c.111.195.124.423.126.644-1.075.378-2.281.531-3.354.061.067-.41.127-.853.415-1.175z" class="F G"/><path d="M109.494 62.709c.306.047.605.112.811.089l.004-.016.009.135c.267.256.555.507.715.85l-.072.191c-.3-.601-.841-1.027-1.466-1.25z" class="D E"/><path d="M117.629 63.976c.227-.734.932-1.375 1.737-1.272.709.41 1.23.704 1.542 1.714-1.49.419-1.63.471-3.284.138a5.39 5.39 0 0 1 .005-.579z" class="F G"/><path d="M119.366 62.704c.825.102 1.475.821 1.521 1.647-.426-.891-.408-1.004-1.521-1.647z" class="D E"/><path fill="#134a66" stroke="#134a66" d="M110.318 62.917l-.009-.135c1.05.415 1.378 1.852.815 2.777-.47.828-1.566 1.243-2.457.88-.844-.313-1.383-1.215-1.298-2.105l.434.139c.145.39.268.82.604 1.097.62.565 1.686.539 2.262-.079.412-.382.638-1.24.364-1.722-.16-.343-.448-.594-.715-.85z"/><path d="M46.839 63.599l.82.001-.001 12.391-.82-.002.001-12.39z" class="g h"/><path d="M47.659 63.6l49.689.004c-.687 1.988.858 3.316 2.175 3.291 1.408.028 2.873-1.405 2.179-3.292l5.507-.002c-.231.585-.267 1.261-.004 1.842 1.119 2.771 5.465 1.263 4.354-1.837l5.416-.004c-.689 1.945.818 3.318 2.177 3.29 1.344.032 2.863-1.332 2.176-3.287h2.848l-.638 4.049-25.215-.143c-.842 3.241-2.665 6.215-5.202 8.405-.26-.071-.527-.115-.795-.106-2.049.029-4.097-.001-6.147.01l.009-8.875c-5.227-.02-10.454.007-15.681-.013l-.006 9.057h-3.672l-.028-8.678-13.519.002c-.07 2.88-.013 5.762-.03 8.644-1.54-.243 1.524-.085-5.595-.138l.002-12.216z" class="AA AB"/><path d="M124.176 63.604l.262.005-.486 4.277.74-4.249.361-.09-.862 5.04c-2.352-.038-22.932-.027-25.289-.007-.648 2.795-2.107 5.387-4.12 7.424-.18 0-.825-.012-1.761-.006 2.386-1.979 4.402-5.021 5.303-8.487l25.215.143.638-4.049z" class="g h"/><path d="M117.518 63.903l.111.073a5.39 5.39 0 0 0-.005.579c.129.745.761 1.397 1.539 1.419.889.081 1.715-.667 1.744-1.557l.254-.081c.127 1.109-.778 2.185-1.894 2.23-1.151.095-2.249-.973-2.109-2.136l.303-.129.057-.399z" class="o p"/><path d="M98.862 62.248c.473-.069.988-.068 1.465.028 2.817 1.496 1.383 4.663-.805 4.619-2.177.041-3.595-3.098-.803-4.619l.143-.028m.196.19c-1.011.213-1.786 1.227-1.674 2.265.049 1.087 1.043 2.008 2.129 1.993 1.183.037 2.244-1.051 2.161-2.236.004-1.293-1.366-2.346-2.616-2.022z" class="AE AF"/><path d="M99.059 62.438c1.25-.323 2.62.729 2.616 2.022.083 1.184-.978 2.272-2.161 2.236-1.086.015-2.08-.906-2.129-1.993-.112-1.038.662-2.052 1.674-2.265m-1.544 1.902c-.064 2.099 2.091 2.733 3.223 1.817.865-.616 1.125-2.076.289-2.958-1.027-1.179-3.237-.787-3.512 1.141z" class="W X"/><path d="M101.531 64.21l-.231.209-.017-.055c-.066-.875-.773-1.641-1.669-1.671-.915-.029-1.674.843-1.628 1.738l-.472-.091c.315-2.208 3.315-2.571 4.017-.129z" class="AG AH"/><path d="M99.615 62.693c.626.291 1.331.587 1.686 1.726-1.604.438-1.688.458-3.296.127-.143-.896.636-1.884 1.61-1.853z" class="F G"/><path d="M99.615 62.693c.895.03 1.603.797 1.669 1.671-.446-.976-.596-1.172-1.669-1.671z" class="D E"/><path d="M101.301 64.419l.231-.209c.279 3.031-4.11 3.172-4.017.129l.472.091c.281 1.763 2.104 1.893 2.874 1.012.277-.272.36-.661.44-1.025z" class="o p"/><path d="M101.301 64.419c-.081.364-.163.753-.44 1.025-.745.851-2.494.773-2.856-.898 1.609.331 1.692.311 3.296-.127zm6.503.054c1.073.47 2.28.317 3.354-.061-.304 1.779-1.992 1.849-2.751 1.158-.335-.277-.459-.706-.604-1.097zm13.104-.055c-.029.889-.855 1.637-1.744 1.557-.778-.022-1.41-.673-1.539-1.419 1.651.333 1.792.282 3.284-.138z" class="U V"/><path fill="#93928d" stroke="#93928d" d="M70.507 66.929l15.681.013-.006 9.051-.629-.017-.011-8.518c-4.855.013-9.708-.001-14.563.007l.001 8.53-.478.017.006-9.084z"/><path d="M53.282 67.311l13.519-.002.023 9.469c-4.523.005-9.046-.002-13.569.004l.027-9.471m.598.637v8.226l12.322-.005-.011-8.23-12.312.008zm17.098-.482l14.563-.007.015 14.012-.672.118c-.004-.272-.002.562-.002-13.425l-13.226.001-.091 13.784c-.188.062-.381.112-.57.168-.034-.591-.004-.314-.016-14.651z" class="D E"/><path fill="#29718a" stroke="#29718a" d="M53.88 67.948l12.312-.009a13.19 13.19 0 0 1-.173.201c-2.394.01-11.233.014-12.137-.018z"/><path d="M66.191 67.939l.011 8.23a4144.34 4144.34 0 0 0-12.322.005l.001-8.052.414.015.009 7.032 11.697.01.018-7.038.173-.201z" class="U V"/><path d="M54.294 68.137l11.724.004-.005 4.889-6.641-4.779c-.525-.123-1.07-.033-1.6-.01 1.086.796 7.22 5.291 8.243 6.231l-.016.707-4.329-.009c-.605-.606-6.324-4.766-7.297-5.459.013.444-.231 1.07.229 1.36l5.649 4.102c-1.983-.012-3.966.001-5.949-.005l-.009-7.032z" class="F G"/><path d="M57.772 68.241c.531-.023 1.076-.113 1.6.01l6.641 4.779.002 1.442c-1.024-.94-7.187-5.456-8.243-6.231z" class="Q R"/><path fill="#995534" stroke="#995534" d="M71.655 68.165l.173-.002c-.101 3.149-.194 4.655 1.617 7.612.133.213.296.407.464.598l-.006 5.732c-.717-.01-1.433.018-2.149-.011l-.19-.144c.124-.355.096.64.091-13.784z"/><path d="M71.828 68.163l2.074.005.007 8.204c-.917-1.045-1.727-2.976-2.053-4.457-.1-1.247-.068-2.503-.028-3.752z" class="Y Z"/><path fill="#583823" stroke="#583823" d="M73.902 68.167h.282l-.009 13.936h-.272l-.001-13.936z"/><path d="M74.183 68.167l2.676.001.013 3.381c-1.264 1.084-1.394 3.051.007 4.258l.002 3.318c-1.016-.629-1.954-1.4-2.706-2.332l.006-8.626z" class="Y Z"/><path fill="#503622" stroke="#503622" d="M76.86 68.169h.3l-.004 3.163a3.55 3.55 0 0 0-.283.218l-.013-3.381z"/><path d="M77.16 68.169l2.967-.002.005 3.193c-.898-.539-2.07-.564-2.975-.028l.004-3.163z" class="Y Z"/><path fill="#603f29" stroke="#603f29" d="M80.126 68.166h.29l-.021 3.407-.265-.213-.005-3.193z"/><path d="M80.417 68.166l2.592.002L83 81.094l-2.585-.512-.016-4.804c1.262-1.159 1.303-3.004-.004-4.205l.021-3.407z" class="Y Z"/><path fill="#452a18" stroke="#452a18" d="M83.009 68.169h.257l.009 13.617.129.028-.429.06c.064-2.296.04-8.512.034-13.705z"/><path d="M83.266 68.169l1.615-.005v12.858l-1.633.055.018-12.908z" class="Y Z"/><path fill="#7c7b76" stroke="#7c7b76" d="M98.903 68.58l25.289.007-.133.773-6.688.082c.033-.124.043-.255-.063-.348-.191.018-.25.204-.326.348l-3.486.037.024.112c-.105-.165-.16-.479-.417-.365a13.71 13.71 0 0 0-.05.242l-6.853.071a8.57 8.57 0 0 0 .044-.495c-.25.078-.372.301-.47.525-1.134.045-2.274-.043-3.405.078l-.205-.248a9.48 9.48 0 0 0 .018.588c-.084-.118-.165-.238-.27-.335-.667-.094-1.344-.023-2.015-.029-.474 2.375-1.538 4.66-3.231 6.411-.628-.052-1.258-.039-1.885-.029 2.014-2.037 3.473-4.629 4.12-7.424z"/><path fill="#be7745" stroke="#be7745" d="M137.185 69.194c-.018-.279.442-.293.345.009l-1.081 4.238-.106-.243c.078-.657.387-1.276.333-1.95 0 0 .509-2.053.509-2.053z"/><path fill="#a5704f" stroke="#a5704f" d="M106.244 69.043l-.044.495-.17.327-.018-.232-.567.839c.262-.726.38-1.299.799-1.43z"/><path fill="#a77250" stroke="#a77250" d="M117.307 69.094c.223.195-.036.535-.196.888l-.015-.237-.662 1.062c.411-1.084.613-1.689.873-1.714z"/><path fill="#b57f59" stroke="#b57f59" d="M128.822 69.114c-.031.345-1.982 4.695-2.014 4.766l-.084-.142c.073-.878.074-.523 1.348-3.513.45-1.074.412-1.137.75-1.111z"/><path fill="#b47e58" stroke="#b47e58" d="M134.111 69.212c.476-.134.101-.453 1.441 2.69l.396 1.022c-.525-.463-.71-.778-1.837-3.712z"/><path fill="#ab7552" stroke="#ab7552" d="M113.103 69.226c.278-.124.36.249.554.754l-.14-.112-.009.493c-.098-.172-.281-.484-.455-.893l.05-.242z"/><path d="M124.46 69.348c.004-.212.307-.218.355.011l.16.371-.16.409-.355-.79z" class="Y Z"/><path d="M128.805 69.304l4.955-.055.334.959-5.678.024.389-.928z" class="L M"/><path fill="#003561" stroke="#003561" d="M133.76 69.249l.351-.038.407 1.004-.425-.007-.334-.959z"/><path d="M134.467 69.245l2.315-.046-.193.997-1.7.004c-.16-.221-.197-.462-.422-.954z" class="L M"/><path fill="#003359" stroke="#003359" d="M136.783 69.198l.403-.004-.243 1.001c-.088 0-.265 0-.353-.001l.193-.997z"/><path d="M137.53 69.203l2.441-.026-.459 1.009-2.236.012.254-.995zm-20.159.239l6.688-.082.399.882-7.481.049.394-.849z" class="L M"/><path opacity=".98" fill="#073967" stroke="#073967" d="M124.059 69.36l.401-.012c.096.249.216.489.328.733l.02.14-.35.021-.399-.882z"/><path d="M124.815 69.359l3.258-.049-.393.919-2.498.005-.367-.875z" class="L M"/><path fill="#063b69" stroke="#063b69" d="M128.073 69.31l.382.009-.383.906-.392.004.393-.919z"/><path fill="#c48e65" stroke="#c48e65" d="M102.165 69.398c.431.508.252.439 1.833 3.938l-.188-.065c-.761-1.21-1.011-1.986-1.627-3.285l-.018-.588z"/><g class="L M"><path d="M106.2 69.538l6.853-.071a7.55 7.55 0 0 0 .399.794l-7.627.057.376-.781z"/><path d="M113.495 69.479l3.486-.037-.052.109-.41.098-.307.643c-.792-.011-1.583.007-2.375.018-.113-.202-.246-.389-.342-.831zm-13.597.142c.671.006 1.348-.065 2.015.029.236.219.343.492.407.623a18.42 18.42 0 0 1-1.797.07l-.02.062c-1.139 5.275-6.697 11.242-18.846 12.375.126-.293.259-.579.4-.864.363.022 15.487-.522 17.84-12.296zm2.471.025c1.131-.121 2.27-.033 3.405-.078l-.048.099-.372.051-.252.607-2.413.012-.32-.692z"/></g><path fill="#0e3b64" stroke="#0e3b64" d="M116.519 69.648l.41-.098-.306.756-.411-.016.307-.643z"/><path d="M54.374 69.712l7.297 5.459-1.419.004-5.649-4.102c-.46-.29-.216-.916-.229-1.36z" class="Q R"/><path fill="#053864" stroke="#053864" d="M105.354 69.718l.372-.051-.229.661-.395-.002.252-.607z"/><path fill="#c48c63" stroke="#c48c63" d="M106.012 69.634l.018.232-1.632 3.685-.16.078c.135-.559.423-1.067.528-1.635.356-.908.569-1.456 1.245-2.36z"/><path fill="#ba845d" stroke="#ba845d" d="M117.096 69.746l.015.237-1.686 3.827.029-.845c.871-2.032 1-2.241 1.642-3.218z"/><path fill="#cc976c" stroke="#cc976c" d="M124.815 70.139l.16-.409 1.52 3.496-.037.195c-.943-1.545-.92-1.739-1.643-3.282z"/><path fill="#ce9a6d" stroke="#ce9a6d" d="M113.516 69.868l.14.112 1.267 2.886-.027.221c-.964-1.599-.474-.745-1.389-2.726l.008-.493z"/><path d="M113.7 70.067l.137.243 2.397-.017-.321.701c-.611-.095-1.231-.076-1.847-.072l-.366-.855z" class="H I"/><path fill="#6e0400" stroke="#6e0400" d="M124.788 70.081l.454.992-.439-.026-.376-.805c.031 0 .349-.019.381-.021z"/><path d="M134.811 70.095l.078.104 1.632-.004-.243 1.232-.061-.19c-.311-.007-.621.009-.931.022l-.476-1.164zm-9.629.139l2.498-.005c-.134.285-.298.568-.342.886l.268.171-.31.715-.35-.065.276-.844a23.42 23.42 0 0 1-1.681-.027l-.36-.831z" class="H I"/><path fill="#720f0b" stroke="#720f0b" d="M127.68 70.229l.392-.004-.465 1.06-.268-.171c.044-.317.207-.6.342-.886z"/><path d="M128.416 70.233l5.726-.023a7.51 7.51 0 0 0 .372.994c-2.165.015-4.33-.076-6.495-.072l.398-.899z" class="H I"/><path fill="#7f0c09" stroke="#7f0c09" d="M134.142 70.209l.377.006.716 1.755-.393.037c-.352-.945-.44-.94-.7-1.798z"/><path fill="#6c0a04" stroke="#6c0a04" d="M136.522 70.195l.421.001c0 0-.448 1.713-.448 1.713l-.34-.001c.139-.523.185-.688.367-1.713z"/><path d="M137.005 71.268l.272-1.07 2.213-.012-1.233 2.688c-.284-.313-.62-.579-1.001-.76.143-.272.27-.553.379-.839l-.629-.007z" class="H I"/><path fill="#790c06" stroke="#790c06" d="M100.524 70.344l1.797-.07.959 2.082-.242-.316c-1.56.299-2.934 1.402-3.602 2.837-.254.533-.379 1.116-.472 1.697l-.091-.144-.184.235-.085-.383c.427-2.32 1.913-3.656 4.088-4.271-.63-1.424-.478-1.181-.753-1.581-.472-.096-.956-.04-1.433-.026z"/><path fill="#ae140b" stroke="#ae140b" d="M102.689 70.337l2.344-.012-.174.55c-.642-.19-1.315-.096-1.971-.072l-.199-.466z"/><path fill="#770702" stroke="#770702" d="M105.033 70.325l.464.002c-.127.351-.461.931-.706 1.604l-.401-.013c.531-1.196.397-.789.644-1.593z"/><path d="M105.61 70.797l.213-.478 7.326-.045.14.629-7.68-.106z" class="H I"/><path fill="#6d0200" stroke="#6d0200" d="M113.15 70.274l.301-.012c.04.07.047.065.32.679l-.481-.038-.14-.629z"/><path fill="#850e0a" stroke="#850e0a" d="M116.234 70.292l.389.015c-.462 1.185.11-.221-.711 1.613-.085 0-.255-.001-.34-.001.293-.839.381-1.042.662-1.626z"/><path d="M116.977 70.291l7.451-.049.376.805c-.205.006-7.212-.021-8.109-.123l.283-.633zm-16.473.115c.477-.015.961-.071 1.433.026l.17.25-.862.056c-.032.706-.237 1.386-.4 2.069-1.206.767-1.986 2.086-2.242 3.476-.048.498.013.998.033 1.497l-.112-.898c-3.825 4.63-11.203 6.413-17.186 6.638l.321-.739c11.953-1.114 17.678-6.966 18.846-12.375z" class="H I"/><path d="M101.245 70.737l.862-.056.583 1.331a7.33 7.33 0 0 0-1.846.794c.163-.683.368-1.363.4-2.069zm1.643.066c.656-.024 1.33-.118 1.971.072l-.47 1.043a16.32 16.32 0 0 0-1.008.016l-.494-1.131zm2.722-.006l7.77.113.417 1.103-.139.139c-.558.164-2.071.368-3.242 2.36-1.809 3.114.283 6.902 3.048 7.374 2.39.738 5.046-.053 6.313-2.415 1.583-2.91-.008-6.727-3.551-7.48l.467-1.067c.898.102 7.896.129 8.109.123l.446.997c-2.809.401-4.587 2.789-4.284 5.712.226 1.811 1.578 3.618 3.363 4.016.37.12.738.249 1.123.313 1.228.224 2.54.013 3.609-.639 3.62-2.157 3.414-7.95-1.437-9.412l.394-.903 6.495.072.328.804c-.371.066-1.456.098-2.38 1.974-1.047 2.31-.864 5.221.695 7.264-.21.605-.362 1.234-.689 1.792l-.026-.165c-.565 1.039-5.879 11.275-6.799 13.062l-.026-.135c-2.644-.059-28.151-.006-118.29-.033L1.687 83.528l6.713-.027a9.51 9.51 0 0 1 .427.929c-2.934.629-4.073 3.363-3.57 5.393.332 1.427 1.362 2.799 2.818 3.196.332.111.664.229 1.01.296 2.812.564 5.186-1.369 5.51-3.839.259-1.735-.592-3.563-2.081-4.486-.473-.312-1.017-.489-1.559-.643l.37-.831c.609.011 6.209.042 7.032-.044a27.25 27.25 0 0 1 .456.961 13.5 13.5 0 0 0-.616.167c-2.179.497-3.982 3.578-2.584 6.323.554 1.033 1.504 1.953 2.684 2.185l.063.02c2.163.854 4.873-.139 5.871-2.451 1.099-2.486-.207-5.598-3.312-6.343l.367-.84c2.357.106 4.721-.032 7.076.061.181.266.274.581.395.877l-.551.156c-4.015 1.017-4.149 7.309-.234 8.392.486.176.978.364 1.5.396 2.417.311 4.605-1.374 5.027-3.659.398-1.978-.57-4.578-3.591-5.379l.368-.843c.89.044 6.195.06 7.025-.013a5.1 5.1 0 0 1 .425.962 16.68 16.68 0 0 0-.764.232c-2.104.502-3.833 3.712-2.342 6.345.456.834 1.16 1.603 2.1 1.871.334.13.666.272 1.014.364 2.516.652 4.871-.752 5.598-2.984.809-2.491-.598-5.283-3.484-5.931l.366-.823c.094.001 6.489.06 7.293-.062l.405.888c-.857.311-1.807.345-2.92 1.731-1.433 1.798-1.397 5.037 1.302 6.698.141.084 1.368.469 1.438.488 3.326.876 6.285-1.956 5.742-5.144-.272-1.774-1.691-3.342-3.463-3.697l.41-.927c2.283.076 4.571.021 6.857.029a14.98 14.98 0 0 1 .394.911c-5.205 1.193-4.246 7.828-.704 8.583 3.669 1.538 7.293-1.662 6.436-5.143-.356-1.761-1.844-3.148-3.578-3.535l.366-.837c2.348.057 4.697.013 7.046.026l.415.905-.557.157c-1.889.489-3.176 2.471-3.101 4.388.075 4.768 6.92 6.132 9.006 1.918 1.306-2.577-.104-5.875-3.228-6.554l.371-.843a185.67 185.67 0 0 0 7.274.004l.401.839c-.402.152-.176.071-.736.245-1.904.486-3.186 2.475-3.12 4.396.068 1.933 1.375 3.577 2.668 3.881.227.089 2.257 1.206 4.443-.001 3.605-1.962 3.016-7.381-1.12-8.472l.387-.872c5.966-.224 13.355-2.001 17.186-6.638a20.5 20.5 0 0 0 .112.898 5.08 5.08 0 0 0 2.757 3.838c.199.089.332.1.883.233 5.372 1.845 9.246-4.656 5.46-8.409-.712-.743-1.664-1.199-2.651-1.45l.526-1.193z" class="J K"/><path fill="#6a6a69" stroke="#6a6a69" d="M77.156 71.332c.977-.578 2.334-.526 3.24.242 1.306 1.199 1.267 3.044.004 4.205-1.683 1.446-4.414.287-4.513-1.911-.074-.902.345-1.895 1.27-2.535m.939-.104c-1.05.22-1.899 1.172-1.969 2.247-.195 2.133 2.32 3.511 4.007 2.185.811-.6 1.172-1.715.886-2.68-.332-1.223-1.686-2.046-2.924-1.752z"/><path fill="#8b0a09" stroke="#8b0a09" d="M113.381 70.911l.39.03.474 1.048-.587.163.139-.139-.417-1.103z"/><path d="M114.066 70.922c.616-.004 1.236-.023 1.847.072l-.342.925a17.06 17.06 0 0 0-1.059.013l-.446-1.01z" class="J K"/><path fill="#8d0a09" stroke="#8d0a09" d="M124.803 71.047l.439.026.416.927-.409.044-.446-.997z"/><path d="M125.542 71.064l1.681.027-.276.844c-.343-.029-.686-.022-1.027-.015l-.378-.856z" class="J K"/><path d="M78.095 71.228c1.238-.294 2.592.528 2.924 1.752.287.965-.074 2.08-.886 2.68-1.691 1.329-4.202-.056-4.007-2.185.069-1.075.918-2.027 1.969-2.247m-1.818 2.222c-.111 1.084.599 2.191 1.661 2.48 1.251.406 3.236-.377 3.01-2.797l-.033.028c-.241-.782-.7-1.387-1.472-1.637-1.355-.669-3.073.455-3.167 1.926z" class="W X"/><path fill="#d01e1b" stroke="#d01e1b" d="M135.287 71.258l.931-.022.061.19-.124.481-.603-.006-.265-.643z"/><path fill="#1c6b95" stroke="#1c6b95" d="M76.278 73.45c.094-1.471 1.811-2.595 3.167-1.926l-.245.063-.561-.044c-1.069-.018-1.866 1.041-1.831 2.06l-.529-.154z"/><path fill="#a76e4b" stroke="#a76e4b" d="M136.677 71.247c.054.675-.255 1.293-.333 1.95l.106.243-.09.549-.342-.023-.716-1.835c.194.279.388.564.647.792l.228.355.5-2.031z"/><path d="M137.005 71.268l.629.007a7.84 7.84 0 0 1-.379.839l-.446-.133.196-.714z" class="J K"/><path d="M76.807 73.604c-.035-1.02.762-2.079 1.831-2.06a2.75 2.75 0 0 1 2.003 1.942c-1.199.551-2.608.633-3.834.118z" class="F G"/><path d="M78.638 71.544l.561.044c.755.345.999.694 1.198.929.286.812.259.899.255 1.027-.14-.746-.862-1.727-2.014-2z" class="D E"/><path d="M79.199 71.588l.245-.063c.301.098.572.279.809.488l-.04.285c-.277-.313-.637-.538-1.014-.71z" class="AI AJ"/><path fill="#291f1f" stroke="#291f1f" d="M103.382 71.934l1.409-.002c-.028.07-.026.072-.118.251-.392-.01-.783-.005-1.175.012l-.116-.261z"/><path fill="#2d2220" stroke="#2d2220" d="M114.513 71.932l1.399-.012-.123.283-1.164-.023-.112-.248z"/><path fill="#271e1e" stroke="#271e1e" d="M125.92 71.921c1.005-.022 1.023.015 1.377.079l-.079.172c-.398.02-.797.012-1.192-.02l-.106-.232z"/><path fill="#26221f" stroke="#26221f" d="M135.552 71.901l.943.007-.055.215-.731.155-.157-.377z"/><path fill="#0066b1" stroke="#0066b1" d="M80.253 72.012c.333.307.532.721.664 1.149l-.262.224c-.06-.298-.157-.584-.257-.868l-.184-.22.04-.285z"/><path d="M99.436 74.878c.668-1.436 2.042-2.538 3.602-2.837l.117.143c-.873.299-1.787.614-2.426 1.319.82-.448 1.7-.759 2.632-.865.102.323.251.629.388.942-.978.107-1.904.626-2.476 1.431-1.454 1.929-.387 4.921 2.033 5.431a3.5 3.5 0 0 0 3.761-1.583c1.185-1.904.277-4.85-2.669-5.306l.345-.778c.969.382 1.982.786 2.687 1.587 1.657 1.764.853 4.342.756 5.177 2.059-2.921-.126-6.695-3.209-7.303l.107-.243c3.073.783 4.435 3.396 4.084 5.777-.382 2.881-3.246 4.998-6.288 4.267 1.059.067 2.172.069 3.135-.445-1.175-.007-4.648.452-6.199-3.408-.239-.576-.311-1.202-.487-1.796-.224 1.463.156 3.057 1.21 4.13.488.557 1.187.848 1.736 1.334-.773-.187-3.512-1.777-3.312-5.276.093-.581.218-1.164.472-1.697z" class="B C"/><path fill="#ab734f" stroke="#ab734f" d="M104.766 71.994c-.105.567-.393 1.076-.528 1.635l.16-.078c-.17.382-.143.314-.322.561-.328-.385-.661-1.273-.797-1.755l.531.915c.205.07.179.059.315.127l.642-1.404z"/><path d="M114.245 71.989c.029.06.007.005.089.25-.85.185-1.71.514-2.31 1.169.781-.36 1.589-.649 2.443-.779l.412.937c-2.889.517-3.718 3.323-2.664 5.17.779 1.47 2.695 2.201 4.246 1.576 2.963-1.003 3.084-5.476-.026-6.525l-.875-.283.321-.721c3.621 1.194 4.207 3.326 3.43 6.826 2.168-2.998-.201-6.898-3.201-7.357l.115-.26c3.541.752 5.135 4.568 3.551 7.48-.744 1.388-2.161 2.446-3.744 2.616.384-.2.788-.356 1.195-.501-.95-.033-5.623.763-6.694-5.1-.271 1.27.078 2.641.86 3.67.373.506.922.84 1.328 1.317-2.924-1.491-4.166-6.595.512-9.201l1.01-.284z" class="B C"/><path fill="#aa724d" stroke="#aa724d" d="M114.267 72.034l.629 1.053.027-.221.303.571.228-.473c-.034.356-.021.62-.035.961l-.264.148c-.152-.218-.613-1.151-.888-2.038z"/><path d="M125.658 72l.074.145c-.97.266-1.983.587-2.681 1.356 1.338-.574.814-.556 2.832-.875l.377.881c-3.886.734-3.937 4.466-2.281 6.015 1.067 1.106 2.887 1.321 4.2.533 2.497-1.382 2.435-5.629-1.228-6.489l.307-.7c4.77 1.564 3.367 5.426 3.251 6.739.412-.638.667-1.365.805-2.11l.156.442c-.43 2.636-3.014 4.697-6.019 4.149.976-.01 2.003-.005 2.88-.498-1.044-.016-4.526.491-6.104-3.245-.293-.621-.383-1.305-.576-1.957-.315 2.77.987 3.683 1.422 4.508-1.831-1.442-2.291-4.236-1.186-6.255.583-1.141 1.965-2.446 3.769-2.64z" class="B C"/><path fill="#1e2121" stroke="#1e2121" d="M127.518 72.274l.106-.24c3.018.91 4.275 3.533 3.846 5.903l-.156-.442c.255-2.363-1.532-4.658-3.796-5.221z"/><path d="M134.671 72.038c-3.186 1.573-3.206 7.724-.55 9.708l.05.144c-.178-.07-.665-.219-1.014-.645-2.631-3.449-1.039-8.904 1.514-9.207z" class="AK AL"/><path fill="#020200" stroke="#020200" d="M134.671 72.038c.127-.023.189-.04.564-.067.082.207.003-.018.138.37-.795.456-1.513 1.138-1.816 2.021-.999 2.655-.49 6.586 2.065 7.759l-.455.071c-3.69-.929-4.034-8.407-.495-10.154z"/><path d="M136.808 71.982c.088.381.554.393.815.616 1.751 1.334 2.441 4.709 1.328 6.907.367-2.956.395-5.391-2.258-6.747 0-.215-.02-.213.115-.776z" class="O P"/><path d="M136.808 71.982c4.311 1.265 3.274 10.441-.572 10.189-.359-.054-.726.148-1.07.021l.455-.071c-2.556-1.173-3.063-5.105-2.065-7.759.304-.883 1.021-1.565 1.816-2.021.134.425.351.817.499 1.238-2.71 1.593-1.939 6.362.104 6.9 2.206.664 3.615-3.976 1.698-6.238-.313-.385-.788-.57-1.231-.755.023-.143.162-.589.251-.964v.235c2.653 1.355 2.625 3.791 2.258 6.747 1.028-2.029.543-5.481-1.328-6.907-.261-.223-.727-.235-.815-.616m.783 9.579c-2.702.556-4.014-2.262-4.224-5.024-.562 3.022 1.793 6.895 4.224 5.024z" class="B C"/><path fill="#49484a" stroke="#49484a" d="M103.155 72.183l.124.173.082.281c-.932.106-1.813.417-2.632.865.639-.705 1.553-1.02 2.426-1.319z"/><path d="M103.498 72.195l1.175-.012-.299.628-.655-.124-.221-.492zm11.127-.016l1.164.023-.244.554-.707-.094-.212-.483z" class="q r"/><path fill="#95100b" stroke="#95100b" d="M124.8 72.129c-4.375 1.762-4.302 6.737-1.726 8.766.381.342.82.607 1.254.877-1.787-.398-3.138-2.207-3.363-4.016-.331-3.196 1.808-5.25 3.835-5.627z"/><path fill="#46464a" stroke="#46464a" d="M125.732 72.145l.151.482c-2.021.319-1.498.302-2.832.875.698-.77 1.711-1.091 2.681-1.356z"/><path fill="#a06847" stroke="#a06847" d="M125.736 72.152l.722 1.269.037-.195.176.195.146-.333a5.76 5.76 0 0 0-.093.65l.084.142.046.045-.267.16c-.174-.234-.574-1.015-.851-1.932z"/><path d="M126.026 72.152c.395.032.794.039 1.192.02l-.288.645-.662-.127-.242-.538z" class="q r"/><path fill="#49494a" stroke="#49494a" d="M135.709 72.278l.731-.155-.137.609-.467-.12-.127-.334z"/><path d="M80.213 72.298l.184.22-.184-.22z" class="F G"/><path d="M104.743 72.772l.234-.539c3.046.601 5.292 4.349 3.209 7.303.106-.916.886-3.429-.756-5.177-.705-.801-1.719-1.205-2.687-1.587z" class="O P"/><path d="M113.235 72.273c-4.683 2.609-3.43 7.714-.512 9.201l.742.412c-1.344-.229-2.464-1.243-3.106-2.413-1.653-2.964.251-6.631 2.876-7.201z" class="AM AN"/><path fill="#49484a" stroke="#49484a" d="M112.024 73.408c.6-.655 1.46-.983 2.31-1.169l.133.389c-.854.13-1.663.42-2.443.779z"/><path d="M116.112 72.251c2.999.459 5.369 4.357 3.201 7.357.777-3.504.189-5.633-3.43-6.826l.229-.531zm11.146.615l.26-.592c2.768.688 5.088 4.086 2.991 7.331.113-1.275 1.535-5.171-3.251-6.739z" class="O P"/><path fill="#1e1f20" stroke="#1e1f20" d="M103.719 72.687c.221.023.438.072.655.124l-.249.587-.127-.062-.279-.649z"/><path fill="#202020" stroke="#202020" d="M114.837 72.662l.707.094-.318.681-.389-.775z"/><path fill="#1e2021" stroke="#1e2021" d="M126.268 72.69l.662.127-.26.604-.176-.195-.227-.535z"/><path fill="#2c2827" stroke="#2c2827" d="M135.836 72.612l.467.12-.127.546c-.258-.385-.217-.324-.34-.666z"/><path fill="#134a67" stroke="#134a67" d="M80.95 73.133c.225 2.417-1.758 3.203-3.01 2.797-1.062-.289-1.772-1.395-1.661-2.48l.529.154c.465 2.517 3.847 2.198 3.847-.218l.295-.252z"/><path d="M80.641 73.486c.162.865-.969 2.117-2.232 1.833-.859-.132-1.45-.897-1.602-1.715 1.226.515 2.635.433 3.834-.118z" class="U V"/><path d="M115.562 73.503c.694.224 2.564.61 3.07 2.686.46 1.656-.538 3.569-2.17 4.122-1.552.625-3.467-.106-4.246-1.576-1.045-1.832-.242-4.65 2.664-5.17l.165.348c-1.455.024-2.723 1.243-2.923 2.663-.354 2.121 1.717 4.325 4.205 3.423 1.55-.464 2.452-2.297 1.979-3.824-.359-1.215-1.401-2.183-2.886-2.249l.006-.116.137-.306zm10.699.005l.196.409c-1.654-.126-3.165 1.35-3.197 2.985-.126 1.945 1.78 3.925 4.201 3.112 1.354-.388 2.253-1.836 2.119-3.218-.078-1.222-.956-2.404-2.16-2.713l-.565-.157-.046-.045.143-.313c3.665.861 3.722 5.109 1.228 6.489-1.313.788-3.132.573-4.2-.533-1.662-1.553-1.601-5.282 2.281-6.015z" class="N"/><path fill="#020200" stroke="#020200" d="M136.442 73.486c.407.17 2.046.609 2.13 3.422.08 2.346-1.334 3.952-2.597 3.572-2.05-.54-2.8-5.315-.104-6.9l.146.388c-1.106.173-2.087 2.19-1.519 4.34.25.914.906 1.911 1.852 1.914 1.822-1.211 1.691-5.202.096-6.223l-.088-.007.083-.504z"/><path d="M103.749 73.578l.159.335c-1.672.001-3.08 1.597-2.98 3.244.031 1.806 1.838 3.643 4.207 2.852 1.392-.401 2.299-1.921 2.1-3.339-.129-1.205-1.03-2.331-2.221-2.618-.255-.072-.515-.116-.772-.168l.156-.334c2.943.455 3.855 3.4 2.669 5.306-1.503 2.568-5.591 2.116-6.353-.962-.513-2.173.991-4.091 3.035-4.316z" class="N"/><path d="M100.928 77.157c-.1-1.647 1.308-3.242 2.98-3.244l.168.198.166-.227.772.168c.646.457 1.311.977 1.604 1.744a3.16 3.16 0 0 1-.24 2.964c-.311.51-.81.853-1.243 1.248-2.362.789-4.176-1.039-4.207-2.852zm11.194-.581c.2-1.42 1.467-2.638 2.923-2.663l.111.16.264-.148c.272.012.547.056.81.139.515.427 1.088.829 1.403 1.439.557.958.521 2.199-.033 3.15-.295.557-.837.909-1.272 1.345-2.476.898-4.56-1.289-4.205-3.423zm11.138.325c.032-1.635 1.543-3.11 3.197-2.985l.131.168.267-.16.565.157c.599.468 1.23.966 1.525 1.691.417.959.338 2.126-.242 3.002-.309.509-.819.837-1.242 1.238-2.421.814-4.327-1.168-4.201-3.112zm12.758-2.935l.429.03-1.948 4.31c-.572-2.164.421-4.169 1.519-4.34z" class="J K"/><path d="M136.447 73.997c.377.242.599.646.811 1.03l-2.115 4.557c-.305-.373-.517-.814-.644-1.277l1.948-4.31z" class="H I"/><path fill="#8b100d" stroke="#8b100d" d="M105.014 74.053c1.192.287 2.092 1.413 2.221 2.618.199 1.417-.709 2.937-2.1 3.339.433-.395.932-.738 1.243-1.248a3.16 3.16 0 0 0 .24-2.964c-.293-.767-.958-1.287-1.604-1.744z"/><path fill="#94100d" stroke="#94100d" d="M116.229 74.064c1.005.267 1.786 1.128 2.076 2.11.473 1.527-.428 3.361-1.979 3.824.435-.437.977-.788 1.272-1.345.554-.95.59-2.192.033-3.15-.315-.61-.888-1.013-1.403-1.439z"/><path fill="#890e0b" stroke="#890e0b" d="M127.419 74.082c1.204.309 2.082 1.491 2.16 2.713.134 1.382-.765 2.83-2.119 3.218.423-.401.933-.729 1.242-1.238.579-.876.659-2.043.242-3.002-.295-.725-.926-1.222-1.525-1.691z"/><path fill="#e2cab9" stroke="#e2cab9" d="M47.656 75.817l5.572.134-5.571.04z"/><path fill="#452a18" stroke="#452a18" d="M76.88 75.808l.228.157.039 6.148-.278-.006.011-6.299z"/><path fill="#5d3c26" stroke="#5d3c26" d="M80.136 75.994l.264-.216.002 6.306-.272.016.006-6.106z"/><path fill="#e2cab9" stroke="#e2cab9" d="M86.179 75.818l6.147-.01c.268-.009.535.035.795.106-.661.146-.879.037-6.939.079z"/><path d="M46.838 75.989l.82.002.007 4.235 22.83.002.006-4.216.478-.017-.001 5.17c-7.573.237-20.297.006-24.138.117l-.002-5.294z" class="L M"/><path d="M47.657 75.991l5.594-.037.004.827 13.569-.004.005-.792h3.672l-.006 4.242c-.503.016-17.761.021-22.83-.002l-.007-4.235z" class="AI AJ"/><path d="M77.108 75.966c.898.607 2.107.567 3.028.028l.01 4.495c-1.051-.252-2.027-.718-3.007-1.162l-.031-3.361z" class="Y Z"/><path d="M85.552 75.977l.629.017.006 3.396c2.521-.521 4.837-1.791 6.833-3.392l1.687.006c-.713.926-3.067 2.732-4.833 3.331-1.408.49-2.856.87-4.325 1.119l.002-4.477z" class="L M"/><path d="M86.181 75.994l6.939-.079c-1.941 1.609-4.391 2.95-6.933 3.475l-.006-3.396z" class="AI AJ"/><path fill="#0057a2" stroke="#0057a2" d="M94.708 76.003l1.959.029c-2.594 2.944-7.27 4.819-11.111 5.438l-.006-1.017c4.334-.734 5.953-1.783 7.368-2.84.637-.489 1.297-.969 1.791-1.61z"/><path fill="#92100d" stroke="#92100d" d="M98.603 76.283l.085.383.184-.235.091.144c-.125 2.191.846 4.035 3.031 5.209-1.876-.438-3.674-2.551-3.392-5.5z"/><path d="M99.33 76.385c.176.594.248 1.22.487 1.796.573 1.427 1.711 2.701 3.219 3.143.958.345 1.982.259 2.98.265-.962.515-2.076.512-3.135.445-.206-.05-.406-.116-.605-.184-.549-.487-1.248-.777-1.736-1.334-1.054-1.073-1.435-2.668-1.21-4.13zm22.322.001c.155.525.627 4.083 3.8 4.966.927.323 1.918.221 2.88.235-.877.493-1.904.488-2.88.498-.749-.126-1.525-.426-2.377-1.191-.434-.822-1.737-1.741-1.422-4.508zm-10.257 3.771c-.782-1.03-1.131-2.401-.86-3.67.193 1.055.51 2.116 1.165 2.985 1.745 2.492 4.311 2.072 5.529 2.115a9.4 9.4 0 0 0-1.195.501 5.87 5.87 0 0 1-2.569-.201l-.742-.412c-.406-.477-.955-.811-1.328-1.317zm21.972-3.621c.21 2.762 1.522 5.58 4.224 5.024-2.431 1.87-4.787-1.999-4.224-5.024z" class="N"/><g fill="#995534" stroke="#995534"><path d="M74.177 76.794c.751.932 1.689 1.703 2.706 2.332l-.013 2.981-2.695-.004.002-5.31zm2.962 2.532c.98.444 1.955.91 3.007 1.162L80.13 82.1l-1.636.038-.198-.244-.115.232-1.034-.012-.008-2.787zm3.276 1.255c.845.248 1.72.356 2.585.512l-.026.779c-.305.037-.61.062-.916.044l-.227-.081-.118.166-1.311.082.013-1.503z"/><path d="M83.248 81.077l1.633-.055.002.567-1.48.224-.129-.028-.027-.709z"/></g><path fill="#0057a2" stroke="#0057a2" d="M70.978 81.166l.016.951.068.002c-.887.034-1.775-.029-2.66.027l-.007.135c-.121-.174-.224-.607-.468-.307l-.25.156c-1.955-.015-3.912.018-5.867-.013l.044-.407c-.138.091-.268.198-.349.345-1.127.149-2.004.019-3.135.096l-.193-.34c-.178.151-.153.146-.465.31-1.892.011-3.786.022-5.678-.015l.05-.383c-.143.077-.274.178-.353.324-1.137.161-1.983.036-3.137.102l-.193-.324-.51.283c-.349.027-.699.012-1.047-.001l-.004-.825c3.808-.11 16.566.119 24.137-.117z"/><path d="M133.157 81.245c.24.294.575.488.929.612l-11.643 25.217c-1.361-.034-110.11-.038-111.02-.011L.385 82.889c.774.036 7.178.109 7.853-.041l.264.03.006.012c-.364.059-.199.384-.109.611-2.237.06-4.475.017-6.713.027l5.642 12.237 118.29.033.026.135-5.151 9.883-6.492.692c.692.115 7.174.064 7.821.052l11.336-25.316z" class="H I"/><path fill="#ae7450" stroke="#ae7450" d="M8.059 82.121c.088-.088.109-.362.272-.264.123.13 1.261 2.794 1.714 3.785.673-1.186 1.467-3.624 1.786-3.88.152.038.216.145.188.323l-.067-.002-1.843 4.075-.224-.059-1.382-3.222c-.166-.313-.26-.773-.697-.787l.254.029z"/><path opacity=".96" fill="#ba8861" stroke="#ba8861" d="M17.966 82.088l.29-.283c.203.321 1.232 2.654 1.4 3.181a1.88 1.88 0 0 1-.426-.353l-1.139-2.541-.126-.005z"/><path fill="#a86e4b" stroke="#a86e4b" d="M21.552 82.081c.022-.288.558-.463.345.034l-1.714 3.931c-.099.083-.22.096-.343.071l-.61-1.483a1.88 1.88 0 0 0 .426.353l.038.001.324.637 1.525-3.535-.306.007.315-.016z"/><path opacity=".98" fill="#b27e59" stroke="#b27e59" d="M27.954 82.079l.299-.256c.227.341 1.35 2.972 1.747 3.84l1.522-3.42-.171-.168a4.55 4.55 0 0 1 .598-.311c-.085.477.159-.153-1.797 4.328l-.305.009-1.76-4.014-.133-.006z"/><path opacity=".95" fill="#b1815c" stroke="#b1815c" d="M38.081 81.922c.184-.423.471.694 1.336 2.547a7.07 7.07 0 0 1 .256.655l-.04.165c-1.4-2.138-1.249-3.253-1.944-3.185.146-.027.354.033.393-.182z"/><path opacity=".97" fill="#b5805a" stroke="#b5805a" d="M41.49 82.121c.094-.107.132-.448.327-.317.189.001.034.201.027.296 0 0-1.362 3.091-1.362 3.091l-.16.07c.206-1.116.228-.78.837-2.337l.332-.803z"/><path fill="#bd845c" stroke="#bd845c" d="M52.083 81.723c-.087.681.165-.173-1.652 4.02l-.112-.433 1.038-2.352c.402-.94.348-1.032.726-1.236z"/><path fill="#bf8860" stroke="#bf8860" d="M61.852 81.71l-.044.407-1.605 3.622-.113-.411s.161-.315 1.072-2.403c.364-.876.29-.949.69-1.215z"/><path fill="#ac744e" stroke="#ac744e" d="M81.832 81.837l.227.081-1.853 4.192-.296-.015-.655-1.598.422.535.001-.218.409.817 1.746-3.795z"/><path fill="#0c3c68" stroke="#0c3c68" d="M47.89 82.109l.331-.181c.093.292.215.573.338.854l-.004.132-.301.015-.364-.82z"/><path fill="#c38d63" stroke="#c38d63" d="M48.221 81.928l.179-.102c.378.592.394.909 1.108 2.426.067.133.165.316.39.931l-.002.232c-.73-1.053-1.564-3.137-1.675-3.486z"/><path d="M57.711 82.121l.29-.162c.118.356.277.698.438 1.037l-.307.03c-.795-.14-1.604-.055-2.405-.077-1.366.035-2.738-.076-4.099.062l.044-.088 6.4-.012-.361-.79z" class="B C"/><path fill="#c38b60" stroke="#c38b60" d="M58.001 81.959l.174-.148c.257.441 1.437 3.171 1.647 3.72-.363-.137-.442-.546-1.383-2.536l-.438-1.037z"/><path fill="#c28b62" stroke="#c28b62" d="M67.926 81.974c.294-.361.432.313.751.986l1.151 2.662-.171-.026c-1.199-2.181-.259-.484-1.732-3.622z"/><path fill="#be8c67" stroke="#be8c67" d="M70.994 82.117l.57-.168.19.144-1.56 3.586a2.59 2.59 0 0 1-.095-.467l1.37-3.091c-.421 0-.404-.001-.474-.004z"/><path fill="#c28f66" stroke="#c28f66" d="M78.182 82.126l.115-.232c.431.538.131.174 1.149 2.394l.232.526-.001.218c-.783-.939-.835-1.717-1.494-2.907z"/><path d="M11.951 82.083l6.141.01c.124.224.233.457.332.695l-.01.135-.265.01-.34-.821-5.87-.001z" class="B C"/><path opacity=".79" fill="#2f355a" stroke="#2f355a" d="M21.908 82.089l6.178-.004.4.849-.251.06c-.879-.066-6.038-.08-6.742.012l.045-.095 6.581-.009-.321-.779-5.901-.009z"/><path d="M28.421 82.073l2.93.001.171.168-.36.798-.303-.078.389-.82-2.806-.034-.022-.035z" class="B C"/><path fill="#00346c" stroke="#00346c" d="M51.344 82.102l.387-.055-.373.911-.371-.016.357-.84z"/><path fill="#11375f" stroke="#11375f" d="M61.118 82.105l.385-.05-.342.87-.4.021c.134-.274.252-.555.356-.84z"/><path fill="#373a37" stroke="#373a37" d="M67.676 82.131l.25-.156.479 1.022-.289.037c-.795-.138-.876-.057-5.92-.082-.268 0-.537.028-.801.071l.054-.107 6.553-.012-.326-.772z"/><path d="M71.754 82.093l6.117.029.301.815c-2.258-.012-4.516.007-6.774-.01l.355-.834zm6.74.045l2.798-.112-.327.836-2.121.062-.35-.786z" class="L M"/><path fill="#0f3b68" stroke="#0f3b68" d="M81.292 82.026l.421-.023c-.16.267-.277.556-.401.842l-.346.017.327-.836z"/><path d="M.028 82.096l7.777-.005c.437.013.531.473.697.787-1.471-.163.433-.091-6.815-.11-.435 0-.889-.056-1.302.121l-.357-.793z" class="L M"/><path fill="#0067c1" stroke="#0067c1" d="M8.487 82.101l3.108.013-.338.809-2.412.011-.359-.833z"/><path d="M11.939 82.111l5.87.001.265.65c-6.497.044-5.693-.086-6.503.193l.368-.844z" class="L M"/><path fill="#0069c3" stroke="#0069c3" d="M18.436 82.104l2.802-.007-.398.849-2.053-.016-.351-.826z"/><path fill="#003669" stroke="#003669" d="M21.238 82.096l.306-.007c-.085.304-.215.592-.348.878l-.356-.022.398-.849z"/><path d="M21.602 82.777l.295-.662 5.901.009.257.639-6.454.015z" class="L M"/><path fill="#0068c3" stroke="#0068c3" d="M28.443 82.109l2.806.034-.389.82c-.689-.063-1.382-.012-2.072-.033l-.344-.821z"/><path fill="#0067c2" stroke="#0067c2" d="M31.532 82.926l.356-.833c7.287.041 5.883-.264 6.53.826l-6.886.007z"/><path fill="#0068c2" stroke="#0068c2" d="M38.383 82.098l3.107.023-.332.803-2.418.01-.357-.836z"/><path d="M41.844 82.1l6.047.009.285.655c-2.204.029-4.41-.006-6.614.009l.282-.672zm6.749.05l2.751-.048-.357.84-2.061-.016-.332-.777zm3.169.589l.271-.633 5.678.015.274.611-6.223.007zm6.607-.588c.915-.062 1.833.015 2.749-.046a8.6 8.6 0 0 1-.356.84l-2.059-.022-.334-.772zm3.439-.034l5.867.013.264.639c-2.136-.018-4.272.044-6.405-.026l.274-.627zm6.593.029c.886-.056 1.774.007 2.66-.027l-.256.67a26.56 26.56 0 0 0-2.204.011l-.207-.518z" class="L M"/><path fill="#34375c" stroke="#34375c" d="M71.062 82.12l.406.001c-.3.691-.243.588-.416.839-1.504-.022-1.154-.007-2.375 0l-.034-.072 2.087.005c.108-.148.064-.052.332-.773z"/><path fill="#233b5a" stroke="#233b5a" d="M77.871 82.122l.311.004c.173.312.315.64.462.967a1.61 1.61 0 0 0-.472-.156l-.301-.815z"/><path d="M.385 82.889c.554-.238.714-.06 6.914-.124.315-.001.628.04.939.083-.676.151-7.076.077-7.853.041zm11.341.014c.487-.202.203-.099 6.348-.14l.076.171c-2.141-.018-4.283.034-6.423-.031z" class="AO AP"/><path fill="#790400" stroke="#790400" d="M18.424 82.788l.69 1.582-.303.065-.699-1.441c-.719-.034-5.879-.092-6.582.048l.04-.087.155-.052 6.688.021z"/><path d="M21.602 82.777l6.454-.015.063.14-6.581.009zm19.96-.005l6.614-.009.078.165h-6.766z" class="AO AP"/><path fill="#6c0502" stroke="#6c0502" d="M48.559 82.782l.698 1.57-.626.098.281-.104-.582-1.264c-.265-.181-.599-.118-.899-.129-1.992.045-3.988-.045-5.978.046l.035-.071 7.068-.015z"/><path fill="#0075df" stroke="#0075df" d="M51.672 82.923l.09-.184 6.223-.007.087.179-6.4.012z"/><path d="M61.449 82.915l.085-.171 6.405.026.062.133-6.553.012z" class="AO AP"/><path fill="#0075e1" stroke="#0075e1" d="M68.602 82.8l2.204-.011-.076.104c-.695.033-1.392.028-2.087-.005z"/><path d="M71.052 82.96l.139-.205-.605 1.375a.69.69 0 0 1-.378.154 10.4 10.4 0 0 1 .505-1.328l.339.005z" class="i j"/><path d="M8.846 82.934l2.412-.011-.523 1.223-.296.016.149-.642-1.474.018-.267-.605zm9.941-.005l2.409.038-.598 1.341c-.398-.007-.797.006-1.194.002l-.026-.052.867.027.344-.751c-.517.002-1.034-.001-1.55-.018l-.253-.586zm10 0c1.03.031 1.667-.072 2.375.111l-.555 1.275-.284-.013.243-.775a48.27 48.27 0 0 1-1.522-.012l-.256-.585zm2.488.568l.256-.571 6.886-.007.009.017-.27.046.144.501c-.83.073-6.135.058-7.025.013zm7.466-.564l2.418-.01-.588 1.38a25.88 25.88 0 0 0-1.231.001c.311-.039.653-.004.941-.133.095-.211.149-.435.213-.655-.494-.004-.987.012-1.478.05l-.275-.633zm10.184-.006l2.432.032-.612 1.376-1.215-.039-.022-.044c.282.009.566.032.848-.004.206-.179.251-.482.365-.722a34.49 34.49 0 0 1-1.543-.012l-.252-.587zm9.778-.004l2.076.021-.264.564-1.542.035-.271-.62z" class="H I"/><path fill="#810404" stroke="#810404" d="M60.779 82.944l.383-.02-.651 1.502c-.368-.198-.792-.1-1.187-.091l-.039-.083.958.009c.22-.655.286-.809.537-1.316z"/><path d="M71.141 83.499l.257-.572 6.836.015.181.561c-2.424.044-4.85.048-7.274-.004zm7.703-.576c.39.017.822.013 2.468-.079l-.666 1.532a6 6 0 0 0-1.2-.088l.925-.046.259-.725a11.88 11.88 0 0 0-1.498.056l-.287-.65z" class="H I"/><path fill="#f63833" stroke="#f63833" d="M132.443 82.872l.026.165-5.838 12.869a9.95 9.95 0 0 0-.905-.134l6.718-12.899z"/><path fill="#8c0506" stroke="#8c0506" d="M8.508 82.89l.655 1.471-.337.07c-.331-.859-.843-1.456-.318-1.541z"/><path d="M11.323 83.517l.207-.476c.527.119 4.218.058 6.648.074l.177.357c-.813.085-6.435.054-7.032.044z" class="H I"/><path d="M11.53 83.042c.703-.139 5.863-.082 6.582-.048l.066.122c-2.481-.017-6.112.047-6.648-.074z" class="k l"/><path d="M21.285 83.496l.209-.489c.705.223 1.159.039 5.811.12.463.016.793-.1 1.182-.191l.609 1.399-.339.1c-.121-.296-.215-.611-.395-.877-2.356-.093-4.719.045-7.076-.061z" class="H I"/><path d="M21.494 83.006c.707-.092 5.866-.078 6.742-.012-.534.156-.392.154-4.959.117-.595-.015-1.205.078-1.783-.105z" class="k l"/><path fill="#6d0404" stroke="#6d0404" d="M38.156 82.982l.27-.046.631 1.417-.332.093c-.247-.801-.371-.644-.568-1.464z"/><path d="M41.452 82.999l5.978-.046c.3.011.634-.051.899.129l-6.927.018z" class="k l"/><path d="M51.419 83.494l.209-.483c.662.212.938.045 5.564.107.436.005.698-.071 1.248-.123l.614 1.358-.383.082-.394-.911c-2.286-.008-4.573.046-6.857-.029z" class="H I"/><path d="M51.628 83.011c1.36-.138 2.732-.027 4.099-.062.801.022 1.61-.063 2.405.077-.538.087-.371.122-4.717.084-.597-.015-1.209.087-1.787-.099z" class="k l"/><path d="M61.19 83.503l.205-.481c.64.188.868.041 5.682.102.443.008.803-.057 1.328-.128l.575 1.338-.329.099-.415-.905c-2.348-.012-4.697.032-7.046-.026z" class="H I"/><path d="M61.395 83.022c.63-.102.37-.06 5.189-.068.512-.016 1.026-.009 1.532.079-.776.127-.411.081-5.071.081-.551-.01-1.114.066-1.65-.092z" class="k l"/><path fill="#a31912" stroke="#a31912" d="M68.677 82.96l2.036-.005-.309.744-.082-.149c-.466-.061-.938-.02-1.406-.028l-.239-.562z"/><path fill="#8d0406" stroke="#8d0406" d="M78.234 82.942a2.21 2.21 0 0 1 .41.151l.537 1.252-.664.11.299-.112c-.403-.903-.342-.584-.582-1.4z"/><path d="M41.213 83.52l.189-.42 6.927-.018.177.376c-.778.118-7.105.064-7.293.062z" class="H I"/><path d="M9.113 83.539l1.474-.018-.149.642.296-.016-.134.34.026-.204-1.17.035-.343-.779zm9.927-.024l1.55.018-.344.751-.867-.027-.339-.743zm10.003 0l1.522.012-.243.775-.927-.004-.353-.783zm9.972.051l1.478-.05c-.065.22-.118.444-.213.655-.288.129-.629.094-.941.133l-.324-.738zm10.162-.052l1.543.012c-.113.24-.159.543-.365.722-.282.035-.566.012-.848.004l-.331-.738zm9.797.029l1.542-.035-.273.753a33.96 33.96 0 0 1-.958-.009l-.311-.709zm9.942-.021c.468.009.941-.033 1.406.028l.082.149-.196.584-.953.011-.339-.772zm10.215.052a11.79 11.79 0 0 1 1.498-.056l-.259.725-.925.046-.315-.715z" class="J K"/><path d="M70.586 84.13l-.182.378-1.031.045-.118-.259c.947-.015 1.086.034 1.331-.165z" class="B C"/><path d="M29.396 84.298l1.211.017-.265.623.139-.5a12.62 12.62 0 0 0-1.006.038l-.079-.178z" class="N"/><path d="M9.163 84.362l.059.142c-.772.296-1.594.556-2.173 1.187.75-.353 1.519-.678 2.352-.767l.346.816c-4.334.792-3.168 6.603.6 6.193 2.832-.25 3.785-3.831 1.676-5.478-.466-.409-1.073-.578-1.657-.74l.272-.637c3.187.964 3.691 2.944 3.043 6.015 1.414-1.913.729-4.657-1.425-5.975-.427-.267-.919-.398-1.371-.611l.067-.157c6.244 1.772 3.836 10.113-1.87 8.968.893-.021 1.846.055 2.656-.398-1.093.02-2.236.023-3.23-.503-1.511-.742-2.357-2.36-2.646-3.96-.48 2.086 1.082 3.498 1.453 4-3.03-2.047-2.178-7.307 1.847-8.095z" class="B C"/><path fill="#061d1e" stroke="#061d1e" d="M9.455 84.319l1.17-.035-.026.204c-.356.006-.712.016-1.067-.002z"/><path d="M19.114 84.37l.083.187c-.794.211-1.61.507-2.163 1.148a6.97 6.97 0 0 1 2.31-.797l.326.788c-.638.215-1.31.428-1.793.925-1.955 1.827-.686 5.402 2.225 5.321 3.358.013 4.598-5.236.226-6.244l.273-.643c1.236.394 2.512 1.098 3.028 2.358.521 1.173.268 2.477.037 3.686 1.847-2.536-.012-5.98-2.845-6.539l.098-.223c4.991 1.197 4.77 7.972.118 8.974-.886.167-1.831.154-2.677-.181 1.115.22 2.308.299 3.369-.19-.98-.063-3.958.368-5.403-2.859-.276-.582-.359-1.225-.551-1.833-.317 2.674 1.129 3.613 1.671 4.336-2.275-1.421-3.268-5.682.75-7.981l.918-.232z" class="B C"/><path d="M19.404 84.31l1.194-.002-.144.344-.011-.21c-.318-.028-.636.013-.944.084l-.095-.216z" class="N"/><path d="M29.096 84.333l.095.229c-.755.168-1.504.47-2.055 1.031.705-.317 1.436-.571 2.202-.69l.34.794c-.643.212-1.326.414-1.807.921-1.167 1.058-1.275 3.046-.233 4.225.804.989 2.249 1.355 3.439.921 2.642-.945 2.684-4.647.261-5.705-.331-.146-.676-.254-1.016-.371l.271-.629c1.208.395 2.455 1.064 2.98 2.291.567 1.181.293 2.512.085 3.744 1.83-2.638-.096-5.987-2.846-6.535l.095-.22c6.011 1.595 3.984 9.737-1.436 9.039.768-.024 1.542-.139 2.246-.462-1.287.051-2.664-.027-3.757-.787-1.295-.871-1.942-2.401-2.186-3.892-.266 2.217.531 2.79.945 3.744-1.686-1.606-2.191-5.325 1.486-7.391l.89-.256zm9.961.02c.056.122.021.035.096.215-.748.17-1.51.455-2.041 1.033.698-.313 1.416-.589 2.182-.679l.333.784c-.659.216-1.353.438-1.847.951-2.005 2.003-.421 5.647 2.576 5.268 1.545-.148 2.84-1.621 2.723-3.185.001-1.541-1.323-2.86-2.836-2.987l.305-.707c3.141 1.076 3.795 2.902 3.047 6.05.453-.501.609-1.186.722-1.831.232-1.58-.671-3.141-1.941-4.027-.474-.359-1.062-.494-1.596-.736l.066-.16c2.852.64 4.303 3.408 3.484 5.931-.724 2.226-3.075 3.638-5.598 2.984.972.06 2.013.145 2.901-.338-1.206.035-2.491-.017-3.541-.686-1.382-.848-2.108-2.436-2.325-3.994-.322 1.948.45 2.743.826 3.639-1.481-1.498-1.557-4.078-.296-5.734.426-.621 1.056-1.047 1.664-1.467l1.095-.324z" class="B C"/><path fill="#212a25" stroke="#212a25" d="M39.34 84.304l1.231-.001-.089.231-1.065-.065z"/><path d="M49.257 84.352l.091.188c-.898.126-1.76.504-2.407 1.148.801-.399 1.644-.71 2.543-.788l.32.787c-.532.151-1.091.266-1.559.578-2.075 1.387-1.711 4.468.414 5.395 2.623 1.265 5.477-1.652 4.029-4.272-.444-.867-1.331-1.417-2.257-1.644l.288-.656c3.162 1.334 3.42 2.77 2.915 5.92 1.703-2.403.096-5.65-2.699-6.422l.074-.163c3.66.733 4.872 5.787 1.67 8.102-1.111.839-2.61 1.092-3.949.739.971.055 2.008.137 2.893-.346-1.206.04-2.488-.004-3.537-.678-1.342-.799-2.051-2.303-2.34-3.786-.452 2.159 1.149 3.569 1.458 4.01-2.343-1.615-2.835-5.919.997-7.885.345-.106.521-.166 1.055-.225z" class="B C"/><path d="M49.53 84.296l1.215.039-.12.278c-.281-.26-.671-.151-1.014-.151l-.082-.166z" class="N"/><path d="M59.053 84.353l.061.135c-.768.329-1.631.54-2.193 1.209a7.41 7.41 0 0 1 2.336-.79c.107.288.246.562.365.847a3.11 3.11 0 0 0-2.232 4.863c.751 1.133 2.304 1.62 3.576 1.155a3.09 3.09 0 0 0 2.053-3.163c-.072-1.482-1.356-2.728-2.815-2.87l.305-.676c1.233.383 2.499 1.094 3.012 2.347.522 1.171.277 2.479.041 3.687 1.849-2.52.009-5.963-2.836-6.533l.099-.224c1.733.387 3.222 1.774 3.578 3.535.56 2.273-.959 4.816-3.24 5.362l.417-.34c-.959.045-1.949.046-2.851-.331-2.511-.951-2.861-3.678-3.032-4.235-.389 2.345 1.041 3.541 1.638 4.234-3.158-1.956-2.467-7.335 1.719-8.212z" class="B C"/><path fill="#081e1e" stroke="#081e1e" d="M59.324 84.335c.395-.009.819-.106 1.187.091-.368.062-.742.084-1.112.06z"/><path d="M68.98 84.335l.105.222c-.753.174-1.496.478-2.053 1.028.705-.306 1.431-.562 2.194-.681a10.52 10.52 0 0 0 .311.795c-.605.212-1.254.395-1.721.862-1.897 1.688-.964 4.956 1.569 5.339 1.283.242 2.691-.434 3.267-1.615.725-1.288.311-3.064-.89-3.914-.462-.35-1.03-.505-1.57-.685.018-.054.237-.556.276-.644 1.204.412 2.471 1.064 2.997 2.299.575 1.184.294 2.52.088 3.757 1.863-2.732-.173-6.027-2.875-6.542l.094-.215c1.403.305 2.665 1.241 3.272 2.555 1.73 3.602-1.792 7.738-5.905 6.22l-.151-.126c1.166.376 2.486.492 3.614-.072-1.093.02-2.227.013-3.226-.495-2.215-1.059-2.542-3.55-2.709-4.177-.278 2.171.587 2.875.95 3.731-1.555-1.478-1.68-4.111-.411-5.807.473-.69 1.172-1.173 1.889-1.581l.887-.256zm10.201.009l.067.142c-.797.245-1.652.471-2.241 1.104.77-.328 1.559-.639 2.408-.67l.328.788c-3.376.585-3.788 4.092-1.65 5.675 1.195.866 3.237.857 4.408-.87.963-1.485.555-4.116-2.144-4.748l.284-.66c1.2.428 2.432 1.166 2.884 2.427.465 1.143.176 2.38.021 3.552 1.864-2.812-.31-6.002-2.702-6.448l.107-.245c2.917.769 4.231 3.827 3.102 6.331-.892 2.007-3.137 3.135-5.427 2.535 1.003.09 2.047.09 2.98-.34-1.371.06-2.864-.05-3.981-.938-1.17-.893-1.749-2.327-1.972-3.742-.292 2.08.511 2.777.831 3.637-1.498-1.524-1.547-4.153-.232-5.806.474-.64 1.141-1.098 1.83-1.481.324-.101.525-.177 1.1-.243z" class="B C"/><path fill="#122" stroke="#122" d="M79.446 84.288a6 6 0 0 1 1.2.088l-.085.185-1.034-.101z"/><path fill="#860e0b" stroke="#860e0b" d="M5.256 89.824c-.561-2.268.982-4.869 3.297-5.333-3.953 1.672-3.751 6.267-1.237 7.965l.758.564c-1.455-.396-2.486-1.769-2.818-3.196z"/><path fill="#454446" stroke="#454446" d="M9.221 84.503l.179.42c-.833.089-1.602.415-2.352.767.578-.631 1.4-.89 2.172-1.187z"/><path d="M9.532 84.485l1.067.002-.32.722-.063-.212-.489-.068-.195-.444z" class="AQ AR"/><path d="M10.639 85.076l.248-.571c.608.287 2.217.616 3.198 2.684a3.96 3.96 0 0 1-.403 3.902c.639-3.03.174-5.041-3.043-6.015z" class="O P"/><path d="M19.499 84.526a3.03 3.03 0 0 1 .944-.084l.011.21-.133.327-.665.007-.157-.46zm9.976-.05l1.006-.038-.179.601-.623-.098-.204-.466z" fill="#49494b" stroke="#49494b"/><path fill="#ac714d" stroke="#ac714d" d="M39.111 84.469l.521.82.06-.242.239.599.55-1.112-.16.727.16-.07c-.259.601-.276.713-.5 1.009l-.191-.128-.678-1.603z"/><path d="M39.416 84.469l1.065.065-.324.665-.04-.207-.399-.048-.045.181-.256-.655z" class="AQ AR"/><path d="M40.548 85.046l.233-.543c.533.242 1.121.377 1.596.736 2.478 1.728 2.281 4.681 1.219 5.858.749-3.149.093-4.974-3.047-6.05z" class="O P"/><path d="M49.612 84.462c.343 0 .733-.109 1.014.151l-.174.396-.627-.024-.212-.523z" class="AQ AR"/><path fill="#8c0e0b" stroke="#8c0e0b" d="M58.437 84.487c-3.923 1.588-3.861 6.369-1.103 8.078l.632.453c-1.366-.291-2.499-1.714-2.841-3.184-.61-2.759 1.462-5.069 3.312-5.346z"/><path fill="#464547" stroke="#464547" d="M59.114 84.488c.044.099.023.029.143.418a7.41 7.41 0 0 0-2.336.79c.562-.668 1.425-.88 2.193-1.209z"/><path fill="#46484b" stroke="#46484b" d="M59.398 84.486c.371.024.744.002 1.112-.06l-.19.416c-.212.126-.464.133-.701.161l-.221-.517z"/><path fill="#49494b" stroke="#49494b" d="M69.374 84.553l1.031-.045c-.074.155-.178.51-.827.498l.039.094-.243-.546z"/><path d="M79.248 84.486c.008.015.159.414.167.434-.849.03-1.638.342-2.408.67.589-.633 1.444-.859 2.241-1.104z" class="q r"/><path fill="#494a4c" stroke="#494a4c" d="M79.526 84.46l1.034.101-.251.582-.582-.221-.201-.462z"/><path fill="#8f0e0b" stroke="#8f0e0b" d="M18.195 84.602c-4.016 2.298-3.026 6.559-.75 7.981l.85.527c-1.18-.232-2.13-1.151-2.684-2.185-1.371-2.691.345-5.813 2.584-6.323z"/><path fill="#464547" stroke="#464547" d="M17.034 85.705c.553-.64 1.369-.937 2.163-1.148l.148.351c-.814.127-1.591.398-2.31.797z"/><path d="M20.601 85.054l.22-.495c2.815.556 4.703 3.988 2.845 6.539.232-1.209.484-2.513-.037-3.686-.516-1.26-1.792-1.964-3.028-2.358z" class="O P"/><path fill="#920e0b" stroke="#920e0b" d="M28.205 84.59c-3.679 2.067-3.167 5.789-1.486 7.391.365.394.811.698 1.252 1.001-3.904-1.08-3.788-7.374.234-8.392z"/><path fill="#4a4a4c" stroke="#4a4a4c" d="M27.135 85.594c.551-.561 1.3-.862 2.055-1.031l.146.34c-.766.119-1.497.373-2.202.69z"/><path d="M30.592 85.059l.22-.5c2.727.543 4.689 3.877 2.846 6.535.207-1.232.482-2.563-.085-3.744-.525-1.227-1.772-1.896-2.98-2.291z" class="O P"/><path fill="#464548" stroke="#464548" d="M37.112 85.601c.531-.578 1.293-.864 2.041-1.033l.142.354c-.766.09-1.484.366-2.182.679z"/><path d="M48.201 84.576c-3.83 1.965-3.34 6.269-.997 7.885l.754.544c-.226-.067-.462-.11-.666-.231-3.736-2.3-2.348-7.463.909-8.198z" class="AM AN"/><path d="M46.941 85.687c.646-.644 1.509-1.022 2.407-1.148.041.084.014.017.137.36-.899.078-1.742.389-2.543.788z" class="q r"/><path fill="#a66d49" stroke="#a66d49" d="M49.381 84.608a10.73 10.73 0 0 0 .515.806l.002-.232.276.449.145-.321.112.433c-.16.351-.112.266-.29.479l-.152-.145a12.39 12.39 0 0 1-.608-1.47z"/><path d="M50.719 85.087l.216-.503c2.791.771 4.406 4.015 2.699 6.422.2-1.248.455-2.606-.173-3.78-.516-1.117-1.666-1.686-2.742-2.14z" class="O P"/><path fill="#aa704c" stroke="#aa704c" d="M59.153 84.575c.311.404.205.811.825 1.005l.112-.252.113.411-.1.318-.152.091-.187-.051c-.501-1.209-.4-.838-.611-1.522z"/><path d="M60.725 84.564c2.84.569 4.689 4.008 2.836 6.533.235-1.209.481-2.516-.041-3.687-.512-1.253-1.778-1.964-3.012-2.347l.217-.499z" class="O P"/><path fill="#920e0b" stroke="#920e0b" d="M64.992 88.979c-.076-1.916 1.211-3.899 3.101-4.388-.717.407-1.416.89-1.889 1.581-1.327 1.775-1.414 5.129 1.782 6.82l.151.126c-1.83-.453-3.115-2.288-3.145-4.139z"/><path fill="#4a4a4c" stroke="#4a4a4c" d="M67.032 85.585c.557-.55 1.3-.854 2.053-1.028.087.168.065.145.142.348-.764.118-1.489.374-2.194.681z"/><path d="M69.577 85.006c.328.006.644-.079.783-.405-.269.584-.192.553-.532 1.021l-.251-.616z" class="B C"/><path d="M70.467 85.042l.21-.486c2.719.518 4.729 3.823 2.875 6.542.206-1.237.487-2.573-.088-3.757-.526-1.236-1.793-1.887-2.997-2.299z" class="O P"/><path fill="#990e0b" stroke="#990e0b" d="M78.081 84.587c-.689.383-1.355.84-1.83 1.481-1.315 1.653-1.266 4.283.232 5.806.332.383.74.688 1.145.99-.171-.04-.351-.06-.506-.146-3.39-1.992-2.536-7.24.959-8.131z"/><path fill="#9a0e0b" stroke="#9a0e0b" d="M37.961 84.677c-.607.421-1.238.847-1.664 1.467-1.26 1.657-1.184 4.236.296 5.734.338.378.749.677 1.126 1.015-.941-.268-1.644-1.037-2.1-1.871-1.487-2.626.234-5.843 2.342-6.345z"/><path fill="#a46948" stroke="#a46948" d="M69.147 84.682l.511.914.171.026.27-.41c.017.157.049.313.095.467a53.13 53.13 0 0 1-.151.379l-.166.11-.189-.093c-.338-.857-.201-.439-.54-1.393z"/><path d="M80.641 85.106l.203-.468c2.405.449 4.561 3.644 2.702 6.448.241-1.821 1.018-4.58-2.904-5.98z" class="O P"/><path d="M59.619 85.003c.238-.028.489-.035.701-.161l-.343.738-.155-.049-.204-.528z" class="B C"/><path fill="#282524" stroke="#282524" d="M9.727 84.929l.489.068.063.212-.235.433-.317-.714z"/><path d="M19.695 84.987l.627-.009-.303.645-.324-.637z" class="B C"/><path fill="#262524" stroke="#262524" d="M29.679 84.942l.623.098-.303.623-.321-.721z"/><path fill="#262423" stroke="#262423" d="M39.718 84.943l.399.048.04.207-.226.448-.239-.599z"/><path fill="#2f2926" stroke="#2f2926" d="M49.824 84.985l.627.024c0 0-.277.622-.277.622-.304-.48-.267-.425-.35-.647z"/><path fill="#1f1f20" stroke="#1f1f20" d="M79.727 84.923l.582.221-.223.488-.359-.709z"/><path d="M10.367 85.713c.583.162 1.191.332 1.657.74a3.11 3.11 0 0 1 .923 3.542c-.915 2.442-4.51 2.656-5.666.226-.772-1.527-.186-3.998 2.466-4.483l.137.361c-1.455-.081-2.68 1.356-2.641 2.763-.025 1.695 1.696 3.396 3.84 2.591 2.428-.82 2.644-4.888-.876-5.413l.16-.327zm7.51.908c.483-.496 1.155-.71 1.793-.925l.171.421c-.522-.094-1.027.15-1.445.439-2.67 1.872-.443 6.142 2.658 4.89 2.346-.749 2.748-4.858-.87-5.4l.144-.349c4.374 1.008 3.13 6.257-.226 6.244-2.909.081-4.182-3.492-2.225-5.321zm9.994-.003c.481-.507 1.164-.709 1.807-.921l.17.403c-.876-.078-1.694.478-2.176 1.175-1.578 2.257.837 5.231 3.309 4.196 1.387-.41 2.16-2.052 1.747-3.409-.464-1.515-1.879-2.039-2.575-1.97l.17-.403 1.016.371c1.117.488 1.837 1.72 1.776 2.93-.099 2.838-3.739 3.991-5.476 1.854-1.042-1.18-.934-3.168.233-4.225zm9.91.039c.494-.514 1.188-.736 1.847-.951l.162.366c-1.442-.004-2.66 1.362-2.624 2.78-.037 1.791 1.871 3.525 4.046 2.509 2.216-.913 2.349-4.839-1.108-5.321l.139-.287c1.513.127 2.837 1.447 2.836 2.987.117 1.564-1.177 3.037-2.723 3.185-1.159.146-2.387-.411-2.995-1.415-.76-1.182-.575-2.862.418-3.853zm10.464-.393c.468-.312 1.027-.427 1.559-.578l.184.392c-1.481-.151-2.828 1.211-2.845 2.663-.105 1.735 1.631 3.527 3.82 2.719 2.453-.812 2.371-4.475-.009-5.209l-.664-.209.139-.299c2.755.675 3.223 3.486 1.961 5.027-.847 1.106-2.48 1.494-3.734.889-2.118-.924-2.492-4.006-.413-5.395zm11.958-.525c1.459.143 2.743 1.388 2.815 2.87a3.09 3.09 0 0 1-2.053 3.163 3.12 3.12 0 0 1-3.576-1.155 3.11 3.11 0 0 1 2.232-4.863l.143.344c-1.367-.078-2.541 1.189-2.642 2.503-.191 1.767 1.548 3.686 3.816 2.859 2.524-.797 2.548-5.068-.834-5.403l.1-.318zm7.613.823c.467-.467 1.116-.65 1.721-.862l.15.376c-1.753.001-3.059 1.997-2.473 3.622.427 1.489 2.205 2.392 3.65 1.78 2.744-.828 2.421-5.242-.822-5.418l.149-.372c.54.181 1.108.335 1.57.685 1.201.85 1.615 2.626.89 3.914-1.154 2.366-4.842 2.184-5.686-.46-.382-1.132-.044-2.469.85-3.264zm11.927-.854l.166.387c-1.438-.184-2.753 1.125-2.841 2.52-.193 1.839 1.656 3.664 3.801 2.849 2.636-.827 2.426-5.042-.664-5.355l.151-.344c2.7.632 3.106 3.264 2.144 4.748-1.771 2.61-5.494 1.34-5.693-1.294-.169-1.34.522-3.092 2.935-3.511z" class="N"/><path d="M7.243 88.863c-.045-1.608 1.513-3.057 2.865-2.704l.099-.118c.294.044.587.104.865.213.42.41.903.787 1.155 1.332.421.81.411 1.827-.04 2.624-.257.501-.714.851-1.104 1.244-2.144.805-3.865-.896-3.84-2.591zm12.598-2.746c.123.026.244.012.343-.071.301.045.599.113.888.212.381.411.861.748 1.109 1.266a2.87 2.87 0 0 1 .034 2.595c-.234.557-.726.933-1.161 1.327-1.786.721-3.442-.471-3.77-1.974-.47-1.938 1.343-3.574 2.558-3.356zm11.232.149c.331.383.776.67 1.019 1.125.528.883.543 2.068-.016 2.941-.281.453-.703.79-1.095 1.139-1.142.478-2.542.05-3.251-.955a2.81 2.81 0 0 1 3.344-4.25zm6.093 2.586c-.037-1.417 1.182-2.784 2.624-2.78l.191.128.123-.16c.298.041.596.094.878.205.521.472 1.093.954 1.315 1.648.671 1.847-.735 2.989-1.086 3.468-2.173 1.015-4.083-.716-4.046-2.509zm9.978-.111c.017-1.452 1.364-2.814 2.845-2.663l.152.145.151-.181.664.209c.503.456 1.048.92 1.283 1.58a2.84 2.84 0 0 1-.629 3.014l-.645.615c-2.187.807-3.925-.983-3.82-2.719zm9.978-.141c.12-1.562 1.651-2.762 2.829-2.452l.152-.091c.296.029.588.099.87.199.367.381.797.716 1.061 1.183a2.84 2.84 0 0 1-.005 2.842c-.261.478-.711.803-1.092 1.178-2.268.827-4.007-1.093-3.816-2.859zm10.093 1.097c-.587-1.625.72-3.62 2.473-3.622l.189.093.166-.11c.315.017.622.099.919.205.399.424.895.784 1.132 1.337.421.828.387 1.853-.081 2.656-.262.509-.745.836-1.148 1.221-1.444.612-3.223-.29-3.65-1.78zm9.853-1.082c.088-1.395 1.403-2.704 2.841-2.52l.683.054c2.287 1.375 1.961 3.41 1.212 4.386-.274.344-.606.638-.936.929-2.156.818-3.992-1.021-3.801-2.85z" class="J K"/><path d="M80.592 86.149c1.188.245 2.081 1.394 2.105 2.595.065 1.17-.697 2.366-1.829 2.721.329-.292.661-.585.936-.929.734-.958 1.1-2.996-1.212-4.386z" class="AM AN"/><path fill="#9b120f" stroke="#9b120f" d="M11.072 86.254c2.374.769 2.423 4.386.011 5.2.39-.393.847-.743 1.104-1.244.451-.797.461-1.814.04-2.624-.252-.545-.735-.922-1.155-1.332z"/><path fill="#94100d" stroke="#94100d" d="M21.072 86.258c2.356.773 2.369 4.426-.018 5.188.435-.394.927-.77 1.161-1.327a2.87 2.87 0 0 0-.034-2.595c-.248-.518-.728-.855-1.109-1.266z"/><path fill="#860e0b" stroke="#860e0b" d="M31.073 86.266c.809.271 1.409.995 1.654 1.796.414 1.358-.36 3-1.747 3.409.393-.349.815-.687 1.095-1.139.559-.873.544-2.058.016-2.941-.243-.455-.688-.742-1.019-1.125z"/><path d="M40.983 86.245c2.3.722 2.443 4.204.229 5.116.37-.504 1.756-1.621 1.086-3.468-.222-.694-.794-1.176-1.315-1.648z" class="AK AL"/><path fill="#98100d" stroke="#98100d" d="M50.956 86.251c2.378.733 2.463 4.396.009 5.209l.645-.615a2.84 2.84 0 0 0 .629-3.014c-.235-.66-.781-1.123-1.283-1.58z"/><path fill="#8d100d" stroke="#8d100d" d="M60.973 86.256c2.415.818 2.316 4.461-.035 5.204.381-.376.831-.7 1.092-1.178a2.84 2.84 0 0 0 .005-2.842c-.265-.467-.694-.803-1.061-1.183z"/><path d="M70.961 86.263c2.406.839 2.313 4.486-.096 5.213.403-.385.886-.712 1.148-1.221.467-.803.501-1.827.081-2.656-.237-.553-.733-.912-1.132-1.337z" class="AK AL"/><path d="M15.774 88.247c.193.609.276 1.252.551 1.833 1.428 3.192 4.323 2.79 5.403 2.859-1.117.515-2.708.394-3.433.171l-.85-.527c-.543-.723-1.989-1.66-1.671-4.336zm10-.01c.244 1.492.89 3.021 2.186 3.892 1.093.76 2.47.838 3.757.787-.704.323-1.477.438-2.246.462-.522-.033-1.015-.221-1.5-.396-.44-.304-.887-.607-1.252-1.001-.413-.951-1.211-1.526-.945-3.744zm9.994.004c.217 1.558.943 3.146 2.325 3.994 1.05.668 2.335.721 3.541.686-.888.483-1.929.398-2.901.338-.348-.091-.679-.233-1.014-.364-.377-.338-.788-.637-1.126-1.015-.376-.895-1.148-1.691-.826-3.639zm29.896.007c.161.603.487 3.114 2.709 4.177.999.509 2.133.515 3.226.495-1.404.701-3.697.508-4.985-.941-.364-.858-1.229-1.56-.95-3.731zm9.988-.011c.223 1.415.803 2.849 1.972 3.742 1.117.888 2.61.998 3.981.938-.933.431-1.977.431-2.98.34-.345-.098-.666-.262-.998-.393-.405-.303-.814-.607-1.145-.99-.32-.862-1.122-1.557-.831-3.637zm-19.956.094c.172.557.527 3.286 3.032 4.235.901.377 1.892.376 2.851.331l-.417.34c-1.051.293-2.192.201-3.196-.22-1.644-1.187-2.601-2.696-2.27-4.687zm-49.833.125c.289 1.599 1.134 3.218 2.646 3.96.994.526 2.137.522 3.23.503-.81.453-1.763.377-2.656.398-.346-.067-.678-.185-1.01-.296l-.758-.564c-.406-.549-1.928-1.933-1.453-4zm39.884-.004c.289 1.483.998 2.987 2.34 3.786 1.049.675 2.331.718 3.537.678-.886.483-1.922.401-2.893.346-.264-.069-.517-.168-.772-.257l-.754-.544c-.323-.462-1.907-1.867-1.458-4.009z" class="N"/><path fill="#ee3227" stroke="#ee3227" d="M125.725 95.772l.905.134-4.809 10.655c-.644.012-7.127.063-7.821-.052l6.492-.692c0-.001 5.233-10.045 5.233-10.045z"/><path d="M11.424 107.063c1.186-.035 91.004 1.465 109.435.126.909-.088.544-.156 1.536-.116-.849.606-4.507 3.049-4.768 3.174-1.955-.057-99.852-.032-103.291-.015l-2.912-3.169z" class="B C"/><path d="M13.137 107.061c1.416-.024 101.449-.015 108.626 0-10.556 1.49-107.477.108-108.626 0z" class="W X"/><path d="M14.336 110.233l103.291.015-2.852 1.927c-.287.222-98.477.133-98.548.133-.618-.703-1.265-1.38-1.891-2.075z" class="N"/><use xlink:href="#B" class="AE AF"/><path d="M58.913 47.433c.901-.233 1.889.526 1.886 1.458.06.854-.705 1.638-1.558 1.612a1.56 1.56 0 0 1-1.535-1.437c-.081-.748.478-1.479 1.207-1.633M57.8 48.804c-.046 1.514 1.508 1.971 2.324 1.31.624-.444.811-1.496.208-2.133a1.46 1.46 0 0 0-2.532.822z" class="W X"/><use xlink:href="#C" class="AG AH"/><use xlink:href="#D" class="F G"/><path d="M59.314 47.617c.646.022 1.156.574 1.203 1.205-.322-.704-.43-.845-1.203-1.205z" class="D E"/><use xlink:href="#E" class="o p"/><use xlink:href="#F" class="U V"/><use xlink:href="#B" x="-6.797" class="AE AF"/><path d="M52.117 47.433c.901-.233 1.889.526 1.886 1.458.06.854-.705 1.638-1.558 1.612a1.56 1.56 0 0 1-1.535-1.437c-.081-.748.478-1.479 1.207-1.633m-1.113 1.371c-.046 1.514 1.508 1.971 2.324 1.31.624-.444.811-1.496.208-2.133a1.46 1.46 0 0 0-2.532.822z" class="W X"/><use xlink:href="#C" x="-6.797" class="AG AH"/><use xlink:href="#D" x="-6.796" class="F G"/><path d="M52.518 47.617c.646.022 1.156.574 1.203 1.205-.322-.704-.43-.845-1.203-1.205z" class="D E"/><use xlink:href="#E" x="-6.797" class="o p"/><use xlink:href="#F" x="-6.797" class="U V"/></g><defs ><path id="B" d="M58.772 47.296c.343-.05.714-.049 1.056.02 2.031 1.078.997 3.362-.58 3.331-1.569.03-2.592-2.233-.579-3.331l.103-.02m.142.137c-.729.154-1.288.885-1.207 1.633a1.56 1.56 0 0 0 1.535 1.437c.853.026 1.618-.758 1.558-1.612.003-.932-.985-1.691-1.886-1.458z"/><path id="C" d="M60.696 48.711l-.166.15-.012-.04c-.048-.631-.558-1.183-1.203-1.205-.66-.021-1.207.608-1.174 1.253l-.34-.066c.227-1.592 2.39-1.854 2.896-.093z"/><path id="D" d="M59.314 47.617c.451.21.96.423 1.215 1.244-1.156.316-1.217.33-2.376.091-.103-.645.458-1.358 1.161-1.336z"/><path id="E" d="M60.53 48.861l.166-.15c.201 2.185-2.963 2.287-2.896.093l.34.066c.203 1.271 1.516 1.365 2.072.73.2-.196.259-.477.317-.739z"/><path id="F" d="M60.53 48.861c-.058.262-.118.543-.317.739-.537.614-1.798.557-2.059-.647 1.16.239 1.22.224 2.376-.091z"/></defs></svg>