<svg version="1.1" xmlns="http://www.w3.org/2000/svg" xmlns:xlink="http://www.w3.org/1999/xlink" width="140" height="135.40471" viewBox="0,0,140,135.40471"><g transform="translate(-170,-112.29764)"><g data-paper-data="{&quot;isPaintingLayer&quot;:true}" fill-rule="nonzero" stroke="none" stroke-width="0.20007" stroke-linecap="butt" stroke-linejoin="miter" stroke-miterlimit="10" stroke-dasharray="" stroke-dashoffset="0" style="mix-blend-mode: normal"><path d="M282.94406,155.57776v88.37334h-4.48587v-28.65022h-7.15865v-4.48587h7.15865v-18.34989h-7.15865v-4.48588h7.15865v-18.33426h-7.15865v-4.48588h7.15865v-9.58133c0,-3.78252 -3.07916,-6.86167 -6.86167,-6.86167h-0.21882v-4.48587h0.21882c6.25209,0 11.34755,5.07982 11.34755,11.34755z" fill="#333e48"/><path d="M210.38852,123.67646v-8.37781c0,-1.6568 1.35983,-3.001 3.00101,-3.001h19.56905c1.6568,0 3.00101,1.35983 3.00101,3.001v8.37781z" fill="#a4a9ad"/><path d="M210.38852,118.78419h25.57106v4.89226h-25.57106z" fill="#000000"/><path d="M203.91761,131.05393h67.67891v112.88155h-67.67891z" fill="#ff5959"/><path d="M203.91761,131.05393h67.67891v7.7057h-67.67891z" fill="#000000"/><path d="M276.22306,131.88232c0,1.15664 -0.93781,2.09445 -2.09445,2.09445h-72.74311c-1.15663,0 -2.09445,-0.93781 -2.09445,-2.09445v-8.08083c0,-1.15664 0.93782,-2.09445 2.09445,-2.09445h72.74311c1.15663,0 2.09445,0.93781 2.09445,2.09445z" fill="#333e48"/><path d="M258.65468,176.69421h12.94184v6.22083h-12.94184zM203.91761,156.26549h12.94183v6.22084h-12.94183zM251.35537,213.05013h12.94183v6.22084h-12.94183zM210.38852,195.73183h12.94184v6.22083h-12.94184zM203.91761,228.68036h12.94183v6.22083h-12.94183zM237.75706,163.4085h12.94184v6.22084h-12.94184zM253.32477,140.54147h12.94184v6.22084h-12.94184z" fill="#000000"/><path d="M231.19237,231.71263c0,0.8284 -0.6721,1.5005 -1.50051,1.5005h-15.02066c-0.8284,0 -1.5005,-0.6721 -1.5005,-1.5005v-3.09479c0,-0.8284 0.6721,-1.5005 1.5005,-1.5005h15.03629c0.8284,0 1.5005,0.6721 1.5005,1.5005z" fill="#000000"/><path d="M215.89037,225.31986v-14.73931c0,-0.8284 0.6721,-1.5005 1.5005,-1.5005h9.58134c0.8284,0 1.5005,0.6721 1.5005,1.5005v14.73931z" fill="#ffffff"/><path d="M228.4727,210.58055v2.3758c0,-0.82841 -0.6721,-1.5005 -1.5005,-1.5005h-9.58134c-0.8284,0 -1.5005,0.67209 -1.5005,1.5005v-2.3758c0,-0.8284 0.6721,-1.5005 1.5005,-1.5005h9.58134c0.8284,0 1.5005,0.6721 1.5005,1.5005z" fill="#000000"/><path d="M231.19237,229.91515c0,0.8284 -0.6721,1.5005 -1.50051,1.5005h-15.02066c-0.8284,0 -1.5005,-0.6721 -1.5005,-1.5005v-3.09479c0,-0.8284 0.6721,-1.5005 1.5005,-1.5005h15.03629c0.8284,0 1.5005,0.6721 1.5005,1.5005z" fill="#333e48"/><path d="M244.32176,228.61784c0,-0.8284 0.6721,-1.5005 1.50051,-1.5005h15.03628c0.8284,0 1.5005,0.6721 1.5005,1.5005v3.09479c0,0.8284 -0.6721,1.5005 -1.5005,1.5005h-15.03628c-0.82841,0 -1.50051,-0.6721 -1.50051,-1.5005z" fill="#000000"/><path d="M247.04142,225.31986v-14.73931c0,-0.8284 0.6721,-1.5005 1.5005,-1.5005h9.58134c0.8284,0 1.5005,0.6721 1.5005,1.5005v14.73931z" fill="#ffffff"/><path d="M248.54192,209.08005h9.58134c0.8284,0 1.5005,0.6721 1.5005,1.5005v2.3758c0,-0.82841 -0.6721,-1.5005 -1.5005,-1.5005h-9.58134c-0.8284,0 -1.5005,0.67209 -1.5005,1.5005v-2.3758c0,-0.8284 0.6721,-1.5005 1.5005,-1.5005z" fill="#000000"/><path d="M244.32176,226.82036c0,-0.8284 0.6721,-1.5005 1.50051,-1.5005h15.03628c0.8284,0 1.5005,0.6721 1.5005,1.5005v3.09479c0,0.8284 -0.6721,1.5005 -1.5005,1.5005h-15.03628c-0.82841,0 -1.50051,-0.6721 -1.50051,-1.5005z" fill="#333e48"/><path d="M231.19237,198.62343c0,0.8284 -0.6721,1.5005 -1.50051,1.5005h-15.02066c-0.8284,0 -1.5005,-0.6721 -1.5005,-1.5005v-3.09479c0,-0.8284 0.6721,-1.5005 1.5005,-1.5005h15.03629c0.8284,0 1.5005,0.6721 1.5005,1.5005z" fill="#000000"/><path d="M215.89037,192.23066v-14.73931c0,-0.8284 0.6721,-1.5005 1.5005,-1.5005h9.58134c0.8284,0 1.5005,0.6721 1.5005,1.5005v14.73931z" fill="#ffffff"/><path d="M228.4727,177.49135v2.3758c0,-0.82841 -0.6721,-1.5005 -1.5005,-1.5005h-9.58134c-0.8284,0 -1.5005,0.67209 -1.5005,1.5005v-2.3758c0,-0.8284 0.6721,-1.5005 1.5005,-1.5005h9.58134c0.8284,0 1.5005,0.6721 1.5005,1.5005z" fill="#000000"/><path d="M231.19237,196.82595c0,0.8284 -0.6721,1.5005 -1.50051,1.5005h-15.02066c-0.8284,0 -1.5005,-0.6721 -1.5005,-1.5005v-3.09479c0,-0.8284 0.6721,-1.5005 1.5005,-1.5005h15.03629c0.8284,0 1.5005,0.6721 1.5005,1.5005z" fill="#333e48"/><path d="M244.32176,195.52864c0,-0.8284 0.6721,-1.5005 1.50051,-1.5005h15.03628c0.8284,0 1.5005,0.6721 1.5005,1.5005v3.09479c0,0.8284 -0.6721,1.5005 -1.5005,1.5005h-15.03628c-0.82841,0 -1.50051,-0.6721 -1.50051,-1.5005z" fill="#000000"/><path d="M247.04142,192.23066v-14.73931c0,-0.8284 0.6721,-1.5005 1.5005,-1.5005h9.58134c0.8284,0 1.5005,0.6721 1.5005,1.5005v14.73931z" fill="#ffffff"/><path d="M248.54192,175.99085h9.58134c0.8284,0 1.5005,0.6721 1.5005,1.5005v2.3758c0,-0.82841 -0.6721,-1.5005 -1.5005,-1.5005h-9.58134c-0.8284,0 -1.5005,0.67209 -1.5005,1.5005v-2.3758c0,-0.8284 0.6721,-1.5005 1.5005,-1.5005z" fill="#000000"/><path d="M244.32176,193.73116c0,-0.8284 0.6721,-1.5005 1.50051,-1.5005h15.03628c0.8284,0 1.5005,0.6721 1.5005,1.5005v3.09479c0,0.8284 -0.6721,1.5005 -1.5005,1.5005h-15.03628c-0.82841,0 -1.50051,-0.6721 -1.50051,-1.5005z" fill="#333e48"/><path d="M231.19237,165.53422c0,0.8284 -0.6721,1.5005 -1.50051,1.5005h-15.02066c-0.8284,0 -1.5005,-0.6721 -1.5005,-1.5005v-3.09479c0,-0.82841 0.6721,-1.5005 1.5005,-1.5005h15.03629c0.8284,0 1.5005,0.67209 1.5005,1.5005z" fill="#000000"/><path d="M215.89037,159.14146v-14.73931c0,-0.82841 0.6721,-1.5005 1.5005,-1.5005h9.58134c0.8284,0 1.5005,0.67209 1.5005,1.5005v14.73931z" fill="#ffffff"/><path d="M228.4727,144.40214v2.3758c0,-0.82841 -0.6721,-1.50051 -1.5005,-1.50051h-9.58134c-0.8284,0 -1.5005,0.6721 -1.5005,1.50051v-2.3758c0,-0.82841 0.6721,-1.5005 1.5005,-1.5005h9.58134c0.8284,0 1.5005,0.67209 1.5005,1.5005z" fill="#000000"/><path d="M231.19237,163.73675c0,0.8284 -0.6721,1.5005 -1.50051,1.5005h-15.02066c-0.8284,0 -1.5005,-0.6721 -1.5005,-1.5005v-3.09479c0,-0.82841 0.6721,-1.5005 1.5005,-1.5005h15.03629c0.8284,0 1.5005,0.67209 1.5005,1.5005z" fill="#333e48"/><path d="M244.32176,162.43943c0,-0.82841 0.6721,-1.5005 1.50051,-1.5005h15.03628c0.8284,0 1.5005,0.67209 1.5005,1.5005v3.09479c0,0.8284 -0.6721,1.5005 -1.5005,1.5005h-15.03628c-0.82841,0 -1.50051,-0.6721 -1.50051,-1.5005z" fill="#000000"/><path d="M247.04142,159.14146v-14.73931c0,-0.82841 0.6721,-1.5005 1.5005,-1.5005h9.58134c0.8284,0 1.5005,0.67209 1.5005,1.5005v14.73931z" fill="#ffffff"/><path d="M248.54192,142.90164h9.58134c0.8284,0 1.5005,0.67209 1.5005,1.5005v2.3758c0,-0.82841 -0.6721,-1.50051 -1.5005,-1.50051h-9.58134c-0.8284,0 -1.5005,0.6721 -1.5005,1.50051v-2.3758c0,-0.82841 0.6721,-1.5005 1.5005,-1.5005z" fill="#000000"/><path d="M244.32176,160.64196c0,-0.82841 0.6721,-1.5005 1.50051,-1.5005h15.03628c0.8284,0 1.5005,0.67209 1.5005,1.5005v3.09479c0,0.8284 -0.6721,1.5005 -1.5005,1.5005h-15.03628c-0.82841,0 -1.50051,-0.6721 -1.50051,-1.5005z" fill="#333e48"/><path d="M310,246.4832c0,0.65647 -0.54705,1.20352 -1.20353,1.20352h-137.59294c-0.65647,0 -1.20353,-0.54705 -1.20353,-1.20352v-4.31395c0,-0.65647 0.54706,-1.20353 1.20353,-1.20353h137.59294c0.65648,0 1.20353,0.54706 1.20353,1.20353z" fill="#a4a9ad"/><path d="M191.63224,240.96572h96.71988v6.73663h-96.71988z" fill="#333e48"/></g></g></svg>