<?xml version="1.0" encoding="UTF-8" standalone="no"?>
<!-- Uploaded to: SVG Repo, www.svgrepo.com, Generator: SVG Repo Mixer Tools -->

<svg
   width="140"
   height="135.40471"
   viewBox="0 0 179.2 173.31803"
   class="icon"
   version="1.1"
   id="svg311"
   sodipodi:docname="building-1-svgrepo-com.svg"
   inkscape:version="1.2.2 (732a01da63, 2022-12-09)"
   xmlns:inkscape="http://www.inkscape.org/namespaces/inkscape"
   xmlns:sodipodi="http://sodipodi.sourceforge.net/DTD/sodipodi-0.dtd"
   xmlns="http://www.w3.org/2000/svg"
   xmlns:svg="http://www.w3.org/2000/svg">
  <defs
     id="defs315" />
  <sodipodi:namedview
     id="namedview313"
     pagecolor="#ffffff"
     bordercolor="#000000"
     borderopacity="0.25"
     inkscape:showpageshadow="2"
     inkscape:pageopacity="0.0"
     inkscape:pagecheckerboard="0"
     inkscape:deskcolor="#d1d1d1"
     showgrid="false"
     inkscape:zoom="1.04625"
     inkscape:cx="349.82079"
     inkscape:cy="339.30705"
     inkscape:window-width="1920"
     inkscape:window-height="1017"
     inkscape:window-x="1912"
     inkscape:window-y="-8"
     inkscape:window-maximized="1"
     inkscape:current-layer="svg311" />
  <path
     d="m 130.04354,40.87369 h -0.28009 v 5.74192 h 0.28009 c 4.84162,0 8.78294,3.94132 8.78294,8.78294 v 12.2641 h -9.16307 v 5.74193 h 9.16307 v 23.46785 h -9.16307 v 5.74193 h 9.16307 v 23.48786 h -9.16307 v 5.74192 h 9.16307 v 36.67228 h 5.74192 V 55.39855 c 0,-8.02269 -6.52218,-14.52486 -14.52486,-14.52486 z"
     fill="#333e48"
     id="path245"
     style="stroke-width:0.200067" />
  <path
     d="M 84.42827,14.564877 V 3.841286 C 84.42827,1.740583 82.70769,0 80.58698,0 H 55.5386 c -2.10071,0 -3.84129,1.720576 -3.84129,3.841286 v 10.723591 z"
     fill="#a4a9ad"
     id="path247"
     style="stroke-width:0.200067" />
  <path
     d="m 51.69731,8.30278 h 32.73096 v 6.262097 H 51.69731 Z"
     fill=""
     id="path249"
     style="stroke-width:0.200067" />
  <path
     d="m 43.41454,24.00804 h 86.629 v 144.48838 h -86.629 z"
     fill="#ff5959"
     id="path251"
     style="stroke-width:0.200067" />
  <path
     d="m 43.41454,24.00804 h 86.629 v 9.8633 h -86.629 z"
     fill=""
     id="path253"
     style="stroke-width:0.200067" />
  <path
     d="m 135.96552,14.72493 c 0,-1.480495 -1.2004,-2.680897 -2.68089,-2.680897 H 40.17345 c -1.48049,0 -2.6809,1.200402 -2.6809,2.680897 v 10.34346 c 0,1.4805 1.20041,2.6809 2.6809,2.6809 h 93.11118 c 1.48049,0 2.68089,-1.2004 2.68089,-2.6809 z"
     fill="#333e48"
     id="path255"
     style="stroke-width:0.200067" />
  <path
     d="m 113.47799,82.4276 h 16.56555 v 7.96266 H 113.47799 Z M 43.41454,56.27884 h 16.56554 v 7.96267 H 43.41454 Z m 60.72033,72.68434 h 16.56554 v 7.96267 H 104.13487 Z M 51.69731,106.79576 h 16.56555 v 7.96266 H 51.69731 Z m -8.28277,42.17412 h 16.56554 v 7.96266 H 43.41454 Z M 86.72904,65.4219 h 16.56555 v 7.96267 H 86.72904 Z m 19.92667,-29.2698 h 16.56555 v 7.96267 h -16.56555 z"
     fill=""
     id="path257"
     style="stroke-width:0.200067" />
  <path
     d="m 78.32623,152.85118 c 0,1.06035 -0.86029,1.92064 -1.92065,1.92064 H 57.17914 c -1.06035,0 -1.92064,-0.86029 -1.92064,-1.92064 v -3.96133 c 0,-1.06035 0.86029,-1.92064 1.92064,-1.92064 h 19.24645 c 1.06035,0 1.92064,0.86029 1.92064,1.92064 z"
     fill=""
     id="path259"
     style="stroke-width:0.200067" />
  <path
     d="m 74.84506,144.66844 v -18.86632 c 0,-1.06035 -0.86029,-1.92064 -1.92064,-1.92064 H 60.66031 c -1.06035,0 -1.92064,0.86029 -1.92064,1.92064 v 18.86632 z"
     fill="#ffffff"
     id="path261"
     style="stroke-width:0.200067" />
  <path
     d="M 72.92442,123.88148 H 60.66031 c -1.06035,0 -1.92064,0.86029 -1.92064,1.92064 v 3.04102 c 0,-1.06036 0.86029,-1.92064 1.92064,-1.92064 h 12.26411 c 1.06035,0 1.92064,0.86028 1.92064,1.92064 v -3.04102 c 0,-1.06035 -0.86029,-1.92064 -1.92064,-1.92064 z"
     fill=""
     id="path263"
     style="stroke-width:0.200067" />
  <path
     d="m 78.32623,150.55041 c 0,1.06035 -0.86029,1.92064 -1.92065,1.92064 H 57.17914 c -1.06035,0 -1.92064,-0.86029 -1.92064,-1.92064 v -3.96133 c 0,-1.06035 0.86029,-1.92064 1.92064,-1.92064 h 19.24645 c 1.06035,0 1.92064,0.86029 1.92064,1.92064 z"
     fill="#333e48"
     id="path265"
     style="stroke-width:0.200067" />
  <path
     d="m 95.13185,152.85118 c 0,1.06035 0.86029,1.92064 1.92065,1.92064 h 19.24644 c 1.06035,0 1.92064,-0.86029 1.92064,-1.92064 v -3.96133 c 0,-1.06035 -0.86029,-1.92064 -1.92064,-1.92064 H 97.0525 c -1.06036,0 -1.92065,0.86029 -1.92065,1.92064 z"
     fill=""
     id="path267"
     style="stroke-width:0.200067" />
  <path
     d="m 98.61302,144.66844 v -18.86632 c 0,-1.06035 0.86029,-1.92064 1.92064,-1.92064 h 12.26411 c 1.06035,0 1.92064,0.86029 1.92064,1.92064 v 18.86632 z"
     fill="#ffffff"
     id="path269"
     style="stroke-width:0.200067" />
  <path
     d="m 100.53366,123.88148 h 12.26411 c 1.06035,0 1.92064,0.86029 1.92064,1.92064 v 3.04102 c 0,-1.06036 -0.86029,-1.92064 -1.92064,-1.92064 h -12.26411 c -1.06035,0 -1.92064,0.86028 -1.92064,1.92064 v -3.04102 c 0,-1.06035 0.86029,-1.92064 1.92064,-1.92064 z"
     fill=""
     id="path271"
     style="stroke-width:0.200067" />
  <path
     d="m 95.13185,150.55041 c 0,1.06035 0.86029,1.92064 1.92065,1.92064 h 19.24644 c 1.06035,0 1.92064,-0.86029 1.92064,-1.92064 v -3.96133 c 0,-1.06035 -0.86029,-1.92064 -1.92064,-1.92064 H 97.0525 c -1.06036,0 -1.92065,0.86029 -1.92065,1.92064 z"
     fill="#333e48"
     id="path273"
     style="stroke-width:0.200067" />
  <path
     d="m 78.32623,110.497 c 0,1.06035 -0.86029,1.92064 -1.92065,1.92064 H 57.17914 c -1.06035,0 -1.92064,-0.86029 -1.92064,-1.92064 v -3.96133 c 0,-1.06035 0.86029,-1.92064 1.92064,-1.92064 h 19.24645 c 1.06035,0 1.92064,0.86029 1.92064,1.92064 z"
     fill=""
     id="path275"
     style="stroke-width:0.200067" />
  <path
     d="M 74.84506,102.31426 V 83.44794 c 0,-1.06035 -0.86029,-1.92064 -1.92064,-1.92064 H 60.66031 c -1.06035,0 -1.92064,0.86029 -1.92064,1.92064 v 18.86632 z"
     fill="#ffffff"
     id="path277"
     style="stroke-width:0.200067" />
  <path
     d="M 72.92442,81.5273 H 60.66031 c -1.06035,0 -1.92064,0.86029 -1.92064,1.92064 v 3.04102 c 0,-1.06036 0.86029,-1.92064 1.92064,-1.92064 h 12.26411 c 1.06035,0 1.92064,0.86028 1.92064,1.92064 v -3.04102 c 0,-1.06035 -0.86029,-1.92064 -1.92064,-1.92064 z"
     fill=""
     id="path279"
     style="stroke-width:0.200067" />
  <path
     d="m 78.32623,108.19623 c 0,1.06035 -0.86029,1.92064 -1.92065,1.92064 H 57.17914 c -1.06035,0 -1.92064,-0.86029 -1.92064,-1.92064 v -3.96133 c 0,-1.06035 0.86029,-1.92064 1.92064,-1.92064 h 19.24645 c 1.06035,0 1.92064,0.86029 1.92064,1.92064 z"
     fill="#333e48"
     id="path281"
     style="stroke-width:0.200067" />
  <path
     d="m 95.13185,110.497 c 0,1.06035 0.86029,1.92064 1.92065,1.92064 h 19.24644 c 1.06035,0 1.92064,-0.86029 1.92064,-1.92064 v -3.96133 c 0,-1.06035 -0.86029,-1.92064 -1.92064,-1.92064 H 97.0525 c -1.06036,0 -1.92065,0.86029 -1.92065,1.92064 z"
     fill=""
     id="path283"
     style="stroke-width:0.200067" />
  <path
     d="M 98.61302,102.31426 V 83.44794 c 0,-1.06035 0.86029,-1.92064 1.92064,-1.92064 h 12.26411 c 1.06035,0 1.92064,0.86029 1.92064,1.92064 v 18.86632 z"
     fill="#ffffff"
     id="path285"
     style="stroke-width:0.200067" />
  <path
     d="m 100.53366,81.5273 h 12.26411 c 1.06035,0 1.92064,0.86029 1.92064,1.92064 v 3.04102 c 0,-1.06036 -0.86029,-1.92064 -1.92064,-1.92064 h -12.26411 c -1.06035,0 -1.92064,0.86028 -1.92064,1.92064 v -3.04102 c 0,-1.06035 0.86029,-1.92064 1.92064,-1.92064 z"
     fill=""
     id="path287"
     style="stroke-width:0.200067" />
  <path
     d="m 95.13185,108.19623 c 0,1.06035 0.86029,1.92064 1.92065,1.92064 h 19.24644 c 1.06035,0 1.92064,-0.86029 1.92064,-1.92064 v -3.96133 c 0,-1.06035 -0.86029,-1.92064 -1.92064,-1.92064 H 97.0525 c -1.06036,0 -1.92065,0.86029 -1.92065,1.92064 z"
     fill="#333e48"
     id="path289"
     style="stroke-width:0.200067" />
  <path
     d="m 78.32623,68.14282 c 0,1.06035 -0.86029,1.92064 -1.92065,1.92064 H 57.17914 c -1.06035,0 -1.92064,-0.86029 -1.92064,-1.92064 v -3.96133 c 0,-1.06036 0.86029,-1.92064 1.92064,-1.92064 h 19.24645 c 1.06035,0 1.92064,0.86028 1.92064,1.92064 z"
     fill=""
     id="path291"
     style="stroke-width:0.200067" />
  <path
     d="M 74.84506,59.96008 V 41.09376 c 0,-1.06036 -0.86029,-1.92064 -1.92064,-1.92064 H 60.66031 c -1.06035,0 -1.92064,0.86028 -1.92064,1.92064 v 18.86632 z"
     fill="#ffffff"
     id="path293"
     style="stroke-width:0.200067" />
  <path
     d="M 72.92442,39.17312 H 60.66031 c -1.06035,0 -1.92064,0.86028 -1.92064,1.92064 v 3.04102 c 0,-1.06036 0.86029,-1.92065 1.92064,-1.92065 h 12.26411 c 1.06035,0 1.92064,0.86029 1.92064,1.92065 v -3.04102 c 0,-1.06036 -0.86029,-1.92064 -1.92064,-1.92064 z"
     fill=""
     id="path295"
     style="stroke-width:0.200067" />
  <path
     d="m 78.32623,65.84205 c 0,1.06035 -0.86029,1.92064 -1.92065,1.92064 H 57.17914 c -1.06035,0 -1.92064,-0.86029 -1.92064,-1.92064 v -3.96133 c 0,-1.06036 0.86029,-1.92064 1.92064,-1.92064 h 19.24645 c 1.06035,0 1.92064,0.86028 1.92064,1.92064 z"
     fill="#333e48"
     id="path297"
     style="stroke-width:0.200067" />
  <path
     d="m 95.13185,68.14282 c 0,1.06035 0.86029,1.92064 1.92065,1.92064 h 19.24644 c 1.06035,0 1.92064,-0.86029 1.92064,-1.92064 v -3.96133 c 0,-1.06036 -0.86029,-1.92064 -1.92064,-1.92064 H 97.0525 c -1.06036,0 -1.92065,0.86028 -1.92065,1.92064 z"
     fill=""
     id="path299"
     style="stroke-width:0.200067" />
  <path
     d="M 98.61302,59.96008 V 41.09376 c 0,-1.06036 0.86029,-1.92064 1.92064,-1.92064 h 12.26411 c 1.06035,0 1.92064,0.86028 1.92064,1.92064 v 18.86632 z"
     fill="#ffffff"
     id="path301"
     style="stroke-width:0.200067" />
  <path
     d="m 100.53366,39.17312 h 12.26411 c 1.06035,0 1.92064,0.86028 1.92064,1.92064 v 3.04102 c 0,-1.06036 -0.86029,-1.92065 -1.92064,-1.92065 h -12.26411 c -1.06035,0 -1.92064,0.86029 -1.92064,1.92065 v -3.04102 c 0,-1.06036 0.86029,-1.92064 1.92064,-1.92064 z"
     fill=""
     id="path303"
     style="stroke-width:0.200067" />
  <path
     d="m 95.13185,65.84205 c 0,1.06035 0.86029,1.92064 1.92065,1.92064 h 19.24644 c 1.06035,0 1.92064,-0.86029 1.92064,-1.92064 v -3.96133 c 0,-1.06036 -0.86029,-1.92064 -1.92064,-1.92064 H 97.0525 c -1.06036,0 -1.92065,0.86028 -1.92065,1.92064 z"
     fill="#333e48"
     id="path305"
     style="stroke-width:0.200067" />
  <path
     d="m 179.2,171.75751 c 0,0.84028 -0.70023,1.54051 -1.54052,1.54051 H 1.540516 C 0.700234,173.29802 0,172.59779 0,171.75751 v -5.52185 c 0,-0.84028 0.700234,-1.54052 1.540516,-1.54052 H 177.65948 c 0.84029,0 1.54052,0.70024 1.54052,1.54052 z"
     fill="#a4a9ad"
     id="path307"
     style="stroke-width:0.200067" />
  <path
     d="M 27.689271,164.69514 H 151.49072 v 8.62289 H 27.689271 Z"
     fill="#333e48"
     id="path309"
     style="stroke-width:0.200067" />
</svg>
