<svg width="140" height="135.405" viewBox="0 0 179.2 173.318" class="prefix__icon" xmlns="http://www.w3.org/2000/svg"><path d="M130.044 40.874h-.28v5.742h.28c4.841 0 8.782 3.94 8.782 8.783v12.264h-9.163v5.742h9.163v23.467h-9.163v5.742h9.163v23.488h-9.163v5.742h9.163v36.672h5.742V55.4c0-8.023-6.522-14.525-14.524-14.525z" fill="#333e48"/><path d="M84.428 14.565V3.84c0-2.1-1.72-3.841-3.841-3.841H55.539c-2.101 0-3.842 1.72-3.842 3.841v10.724z" fill="#a4a9ad"/><path d="M51.697 8.303h32.731v6.262h-32.73z"/><path d="M43.415 24.008h86.629v144.488h-86.63z" fill="#ff5959"/><path d="M43.415 24.008h86.629v9.863h-86.63z"/><path d="M135.966 14.725c0-1.48-1.2-2.681-2.681-2.681H40.173c-1.48 0-2.68 1.2-2.68 2.68v10.344c0 1.48 1.2 2.681 2.68 2.681h93.112c1.48 0 2.68-1.2 2.68-2.68z" fill="#333e48"/><path d="M113.478 82.428h16.566v7.962h-16.566zm-70.063-26.15H59.98v7.964H43.415zm60.72 72.685H120.7v7.963h-16.565zm-52.438-22.167h16.566v7.962H51.697zm-8.282 42.174H59.98v7.963H43.415zm43.314-83.548h16.566v7.963H86.729zm19.927-29.27h16.565v7.963h-16.565z"/><path d="M78.326 152.851c0 1.06-.86 1.92-1.92 1.92H57.179c-1.06 0-1.92-.86-1.92-1.92v-3.961c0-1.06.86-1.92 1.92-1.92h19.247c1.06 0 1.92.86 1.92 1.92z"/><path d="M74.845 144.668v-18.866c0-1.06-.86-1.92-1.92-1.92H60.66c-1.06 0-1.92.86-1.92 1.92v18.866z" fill="#fff"/><path d="M72.924 123.881H60.66c-1.06 0-1.92.86-1.92 1.921v3.041c0-1.06.86-1.92 1.92-1.92h12.264c1.06 0 1.921.86 1.921 1.92v-3.04c0-1.061-.86-1.922-1.92-1.922z"/><path d="M78.326 150.55c0 1.06-.86 1.921-1.92 1.921H57.179c-1.06 0-1.92-.86-1.92-1.92v-3.962c0-1.06.86-1.92 1.92-1.92h19.247c1.06 0 1.92.86 1.92 1.92z" fill="#333e48"/><path d="M95.132 152.851c0 1.06.86 1.92 1.92 1.92H116.3c1.06 0 1.92-.86 1.92-1.92v-3.961c0-1.06-.86-1.92-1.92-1.92H97.052c-1.06 0-1.92.86-1.92 1.92z"/><path d="M98.613 144.668v-18.866c0-1.06.86-1.92 1.92-1.92h12.265c1.06 0 1.92.86 1.92 1.92v18.866z" fill="#fff"/><path d="M100.534 123.881h12.264c1.06 0 1.92.86 1.92 1.921v3.041c0-1.06-.86-1.92-1.92-1.92h-12.264c-1.06 0-1.921.86-1.921 1.92v-3.04c0-1.061.86-1.922 1.92-1.922z"/><path d="M95.132 150.55c0 1.06.86 1.921 1.92 1.921H116.3c1.06 0 1.92-.86 1.92-1.92v-3.962c0-1.06-.86-1.92-1.92-1.92H97.052c-1.06 0-1.92.86-1.92 1.92z" fill="#333e48"/><path d="M78.326 110.497c0 1.06-.86 1.92-1.92 1.92H57.179c-1.06 0-1.92-.86-1.92-1.92v-3.961c0-1.06.86-1.921 1.92-1.921h19.247c1.06 0 1.92.86 1.92 1.92z"/><path d="M74.845 102.314V83.448c0-1.06-.86-1.92-1.92-1.92H60.66c-1.06 0-1.92.86-1.92 1.92v18.866z" fill="#fff"/><path d="M72.924 81.527H60.66c-1.06 0-1.92.86-1.92 1.92v3.042c0-1.06.86-1.92 1.92-1.92h12.264c1.06 0 1.921.86 1.921 1.92v-3.041c0-1.06-.86-1.92-1.92-1.92z"/><path d="M78.326 108.196c0 1.06-.86 1.92-1.92 1.92H57.179c-1.06 0-1.92-.86-1.92-1.92v-3.961c0-1.06.86-1.92 1.92-1.92h19.247c1.06 0 1.92.86 1.92 1.92z" fill="#333e48"/><path d="M95.132 110.497c0 1.06.86 1.92 1.92 1.92H116.3c1.06 0 1.92-.86 1.92-1.92v-3.961c0-1.06-.86-1.921-1.92-1.921H97.052c-1.06 0-1.92.86-1.92 1.92z"/><path d="M98.613 102.314V83.448c0-1.06.86-1.92 1.92-1.92h12.265c1.06 0 1.92.86 1.92 1.92v18.866z" fill="#fff"/><path d="M100.534 81.527h12.264c1.06 0 1.92.86 1.92 1.92v3.042c0-1.06-.86-1.92-1.92-1.92h-12.264c-1.06 0-1.921.86-1.921 1.92v-3.041c0-1.06.86-1.92 1.92-1.92z"/><path d="M95.132 108.196c0 1.06.86 1.92 1.92 1.92H116.3c1.06 0 1.92-.86 1.92-1.92v-3.961c0-1.06-.86-1.92-1.92-1.92H97.052c-1.06 0-1.92.86-1.92 1.92z" fill="#333e48"/><path d="M78.326 68.143c0 1.06-.86 1.92-1.92 1.92H57.179c-1.06 0-1.92-.86-1.92-1.92V64.18c0-1.06.86-1.92 1.92-1.92h19.247c1.06 0 1.92.86 1.92 1.92z"/><path d="M74.845 59.96V41.094c0-1.06-.86-1.92-1.92-1.92H60.66c-1.06 0-1.92.86-1.92 1.92V59.96z" fill="#fff"/><path d="M72.924 39.173H60.66c-1.06 0-1.92.86-1.92 1.92v3.042c0-1.06.86-1.92 1.92-1.92h12.264c1.06 0 1.921.86 1.921 1.92v-3.041c0-1.06-.86-1.92-1.92-1.92z"/><path d="M78.326 65.842c0 1.06-.86 1.92-1.92 1.92H57.179c-1.06 0-1.92-.86-1.92-1.92v-3.961c0-1.06.86-1.92 1.92-1.92h19.247c1.06 0 1.92.86 1.92 1.92z" fill="#333e48"/><path d="M95.132 68.143c0 1.06.86 1.92 1.92 1.92H116.3c1.06 0 1.92-.86 1.92-1.92V64.18c0-1.06-.86-1.92-1.92-1.92H97.052c-1.06 0-1.92.86-1.92 1.92z"/><path d="M98.613 59.96V41.094c0-1.06.86-1.92 1.92-1.92h12.265c1.06 0 1.92.86 1.92 1.92V59.96z" fill="#fff"/><path d="M100.534 39.173h12.264c1.06 0 1.92.86 1.92 1.92v3.042c0-1.06-.86-1.92-1.92-1.92h-12.264c-1.06 0-1.921.86-1.921 1.92v-3.041c0-1.06.86-1.92 1.92-1.92z"/><path d="M95.132 65.842c0 1.06.86 1.92 1.92 1.92H116.3c1.06 0 1.92-.86 1.92-1.92v-3.961c0-1.06-.86-1.92-1.92-1.92H97.052c-1.06 0-1.92.86-1.92 1.92z" fill="#333e48"/><path d="M179.2 171.758c0 .84-.7 1.54-1.54 1.54H1.54c-.84 0-1.54-.7-1.54-1.54v-5.522c0-.84.7-1.54 1.54-1.54h176.12c.84 0 1.54.7 1.54 1.54z" fill="#a4a9ad"/><path d="M27.69 164.695h123.8v8.623H27.69z" fill="#333e48"/></svg>