<svg xmlns="http://www.w3.org/2000/svg" width="137.786" height="76.579" viewBox="0 0 176.367 98.022" xmlns:v="https://vecta.io/nano"><path d="M176.367 40.903c0 4.614-1.104 9.089-3.253 13.328a52.4 52.4 0 0 1 .789 6.625c.434 7.453-.572 14.689-2.918 20.919-2.405 6.368-6.033 11.238-10.489 14.117-2.208 1.42-4.752 2.129-7.354 2.129-2.11 0-4.259-.473-6.29-1.4a5.24 5.24 0 0 1-3.036-4.732 5.09 5.09 0 0 1 2.07-4.121c2.346-1.755 4.574-7.078 5.087-14.531-.256.099-.513.177-.749.276-2.366 10.036-7.394 17.804-13.999 21.491-2.031 1.144-4.318 1.715-6.625 1.715-2.366 0-4.771-.591-7.019-1.794-.02-.02-.059-.039-.079-.039-1.656-.946-2.681-2.681-2.681-4.574 0-1.715.868-3.332 2.307-4.278 1.617-1.065 3.746-4.18 5.107-9.641-1.774-.158-3.549-.414-5.304-.73-4.259.631-8.675.966-13.171.966-5.166 0-10.213-.434-14.945-1.262-1.025 7.532-3.864 13.762-8.182 17.765-2.563 2.346-5.915 3.588-9.424 3.588-1.282 0-2.583-.158-3.864-.493-1.084-.276-1.991-.887-2.681-1.696-.848.67-1.735 1.262-2.642 1.774-2.031 1.144-4.318 1.715-6.644 1.715-2.386 0-4.811-.591-7.059-1.794-1.696-.887-2.76-2.662-2.76-4.594 0-1.755.868-3.352 2.327-4.318 3.017-1.991 6.23-9.661 6.368-20.032-4.14-1.36-8.498-4.18-12.343-8.044-1.518-1.518-2.879-3.135-4.062-4.791-1.617 1.834-3.569 3.431-5.777 4.673-3.667 2.07-7.926 3.174-12.343 3.174-14.985 0-21.274-12.303-21.274-12.323-4.495-8.991-4.574-17.686-.394-22.713a10.44 10.44 0 0 1 5.481-3.47c.394-.099 2.76.256 5.323-.059 2.228-.276 4.416-.769 6.29-1.617 2.149-.966 4.022-2.267 5.304-3.884 1.755-2.208 2.307-4.693 2.386-4.89.651-1.617 1.853-3.155 3.588-4.574 3.017-2.445 7.689-4.416 13.565-5.698C49.057-.364 54.538-.955 58.442 1.49l2.405-.039c8.36 0 16.227 1.222 22.26 3.47h47.182c12.145 0 23.601 3.628 32.256 10.233 8.892 6.802 13.821 15.951 13.821 25.75z" fill="#633"/><path d="M169.288 40.903c0 3.805-1.006 7.532-2.977 11.022-.434.769-.552 1.636-.375 2.445a49.65 49.65 0 0 1 .907 6.901c.73 12.54-3.45 24.33-10.174 28.648-1.163.749-2.583 1.065-4.042.966 3.805-4.969 5.895-13.683 5.481-23.522h-.02c-.039-.453-.177-.907-.394-1.321a3.54 3.54 0 0 0-4.791-1.459c-1.38.73-2.819 1.4-4.318 1.972-4.239 1.636-8.833 2.622-13.624 2.898-.907.059-1.853.079-2.819.079a47.41 47.41 0 0 1-9.464-.946c-.414-.079-.848-.099-1.262-.02-4.081.651-8.36.966-12.697.966-10.982 0-21.314-2.09-28.333-5.737-.394-.197-.828-.335-1.301-.394-1.952-.177-3.667 1.242-3.845 3.194-1.006 10.864-5.599 20.091-11.712 23.522-1.222.67-2.662.927-4.14.73 4.278-4.909 6.92-13.94 6.92-24.31 0-.71-.02-1.42-.039-2.189-.059-1.774-1.42-3.194-3.135-3.391-3.372-.591-7.67-3.174-11.238-6.743-2.504-2.504-4.476-5.264-5.698-7.985 0-.02-.02-.02-.02-.039-.355-.769-.966-1.42-1.814-1.774-1.794-.769-3.884.059-4.633 1.853-1.163 2.701-3.352 5.067-6.171 6.644-2.622 1.479-5.678 2.07-8.872 2.248-8.912.532-14.807-8.36-14.847-8.439-3.588-7.157-3.234-12.796-1.4-15.004.375-.453.828-.769 1.36-.986.197.02 3.194.177 4.633-.02 3.056-.394 5.954-1.025 8.557-2.208 3.095-1.38 5.777-3.372 7.808-5.757 1.755-2.09 2.938-4.397 3.549-6.861.158-.375.611-.966 1.459-1.656 2.248-1.814 6.428-3.431 11.475-4.456.71-.138 1.301-.473 1.774-.946 1.163-1.163 2.662-1.794 3.924-1.794.789 0 1.518.237 2.031.749 1.341 1.341.848 4.062-1.045 5.954-1.38 1.38-1.38 3.608 0 5.008a3.54 3.54 0 0 0 5.008 0c2.898-2.898 4.18-6.723 3.766-10.213 6.96.177 13.585 1.321 18.376 3.194a5.46 5.46 0 0 0 1.301.237h47.813c21.53.039 39.058 12.993 39.058 28.944z" fill="#d2cdce"/><path d="M152.431 28.363c1.558 1.183 1.853 3.411.67 4.949-.69.907-1.755 1.4-2.819 1.4a3.44 3.44 0 0 1-2.129-.73c-4.495-3.411-11.022-5.383-17.903-5.383H97.737c-1.952 0-3.529-1.577-3.529-3.529s1.577-3.529 3.529-3.529h32.513c8.399 0 16.483 2.484 22.181 6.822z" fill="#633"/><path d="M142.218 75.663c-2.11 6.171-5.481 10.903-9.484 13.151-1.203.67-2.642.927-4.081.73 2.583-2.977 4.594-7.473 5.757-13.013 1.025.02 5.264-.315 7.808-.868zM86.854 73.79c-.73 6.132-2.879 11.179-6.033 14.117-1.006.927-2.346 1.498-3.805 1.656 1.301-2.504 2.129-5.718 2.445-9.503.927-2.504 1.656-5.185 2.169-7.985 1.636.631 3.391 1.203 5.225 1.715z" fill="#d2cdce"/><path d="M37.819 21.64a3.411 3.411 0 1 0 6.822 0 3.411 3.411 0 1 0-6.822 0z" fill="#633"/></svg>