<svg version="1.1" xmlns="http://www.w3.org/2000/svg" xmlns:xlink="http://www.w3.org/1999/xlink" width="137.78408" height="76.57815" viewBox="0,0,137.78408,76.57815"><g transform="translate(-171.10796,-141.71093)"><g data-paper-data="{&quot;isPaintingLayer&quot;:true}" fill-rule="nonzero" stroke="none" stroke-width="1" stroke-linecap="butt" stroke-linejoin="miter" stroke-miterlimit="10" stroke-dasharray="" stroke-dashoffset="0" style="mix-blend-mode: normal"><path d="M171.10874,173.66682c0,-7.6554 3.85076,-14.80299 10.7976,-20.11701c6.76168,-5.16011 15.71164,-7.99446 25.19987,-7.99446h36.86075c4.71326,-1.75623 10.85932,-2.71091 17.39053,-2.71091l1.8789,0.03047c3.04998,-1.91014 7.33199,-1.44842 10.50307,1.23124c4.5906,1.00155 8.24058,2.54138 10.5976,4.45152c1.35546,1.10858 2.29452,2.31014 2.80311,3.57341c0.06172,0.1539 0.49297,2.09529 1.86405,3.82028c1.00156,1.26327 2.46483,2.27967 4.14373,3.03435c1.46405,0.66249 3.17342,1.04765 4.91404,1.26327c2.00233,0.24609 3.85076,-0.03125 4.15857,0.04609c1.67899,0.42601 3.17876,1.3755 4.28201,2.71091c3.26561,3.92731 3.20389,10.72022 -0.30781,17.74437c0,0.01562 -4.91326,9.62726 -16.62023,9.62726c-3.45076,0 -6.77809,-0.86249 -9.64292,-2.47967c-1.72499,-0.9703 -3.24998,-2.21795 -4.51326,-3.65075c-0.92421,1.29374 -1.98749,2.55701 -3.17342,3.74294c-3.00389,3.01872 -6.40856,5.22183 -9.64292,6.28432c0.10781,8.10227 2.61796,14.0944 4.97497,15.64986c1.13984,0.75468 1.81796,2.00233 1.81796,3.37341c0,1.50936 -0.83125,2.89607 -2.15624,3.58903c-1.75624,0.93984 -3.65076,1.40155 -5.51481,1.40155c-1.81718,0 -3.60389,-0.44609 -5.1906,-1.33983c-0.70859,-0.4 -1.40156,-0.86249 -2.06405,-1.38593c-0.53906,0.63203 -1.24765,1.10937 -2.09452,1.32499c-1.00078,0.26172 -2.01718,0.38515 -3.01873,0.38515c-2.74139,0 -5.36013,-0.9703 -7.36246,-2.8031c-3.37342,-3.12732 -5.59138,-7.99446 -6.39215,-13.87878c-3.69686,0.64687 -7.6398,0.98593 -11.67572,0.98593c-3.51248,0 -6.96246,-0.26172 -10.28979,-0.75468c-1.37109,0.24687 -2.7578,0.44687 -4.14373,0.57031c1.06328,4.26637 2.72655,6.69994 3.98982,7.53196c1.12421,0.73906 1.80233,2.00233 1.80233,3.34216c0,1.47889 -0.80078,2.83435 -2.09452,3.57341c-0.01562,0 -0.04609,0.01484 -0.06172,0.03047c-1.75624,0.93984 -3.63514,1.40155 -5.48357,1.40155c-1.80233,0 -3.58904,-0.44609 -5.17575,-1.33983c-5.16013,-2.88044 -9.08823,-8.94914 -10.93666,-16.78969c-0.18437,-0.07734 -0.38515,-0.13828 -0.58515,-0.21562c0.40078,5.8226 2.1414,9.98116 3.9742,11.35224c1.02219,0.7534 1.62309,1.94968 1.61718,3.2195c-0.00666,1.58802 -0.93112,3.02891 -2.37186,3.69684c-1.58671,0.72421 -3.26561,1.09374 -4.91404,1.09374c-2.0328,0 -4.02029,-0.5539 -5.74528,-1.66327c-3.48123,-2.2492 -6.31559,-6.05385 -8.19449,-11.02881c-1.8328,-4.86714 -2.61874,-10.52022 -2.27968,-16.34282c0.09531,-1.73659 0.3012,-3.46534 0.6164,-5.17573c-1.6789,-3.31169 -2.54139,-6.80775 -2.54139,-10.41241z" data-paper-data="{&quot;index&quot;:null}" fill="#663333"/><path d="M176.6384,173.66916c0,-12.46161 13.69368,-22.58183 30.5139,-22.6123h37.35371c0.34505,-0.02031 0.68635,-0.08248 1.0164,-0.18515c3.74295,-1.46327 8.9187,-2.35701 14.35618,-2.49529c-0.32344,2.72654 0.67812,5.71479 2.94217,7.97883c0.51871,0.51905 1.22243,0.81068 1.95624,0.81068c0.73381,0 1.43753,-0.29163 1.95624,-0.81068c1.07812,-1.09374 1.07812,-2.83435 0,-3.91246c-1.4789,-1.47811 -1.86405,-3.60387 -0.8164,-4.65152c0.40078,-0.4 0.97031,-0.58515 1.58671,-0.58515c0.98593,0 2.15702,0.49296 3.06561,1.40155c0.36953,0.36953 0.83125,0.63124 1.38593,0.73906c3.94295,0.80077 7.20856,2.06404 8.9648,3.48122c0.6625,0.53906 1.0164,1.00077 1.13984,1.29374c0.47734,1.92498 1.40156,3.72731 2.77264,5.36011c1.58671,1.86326 3.68201,3.4195 6.09997,4.49762c2.03358,0.92421 4.29763,1.41717 6.68512,1.72498c1.12421,0.1539 3.46561,0.03125 3.61951,0.01562c0.41562,0.16953 0.76953,0.4164 1.06249,0.77031c1.43281,1.72498 1.70937,6.13041 -1.09374,11.72177c-0.03125,0.06172 -4.63669,7.00853 -11.59916,6.59291c-2.4953,-0.13906 -4.88279,-0.60078 -6.93121,-1.75623c-2.20233,-1.23202 -3.91248,-3.08044 -4.82107,-5.19058c-0.58515,-1.40155 -2.21796,-2.04842 -3.61951,-1.44764c-0.6625,0.27656 -1.13984,0.78515 -1.41718,1.38593c0,0.01484 -0.01562,0.01484 -0.01562,0.03047c-0.95468,2.12576 -2.4953,4.28199 -4.45154,6.23823c-2.78749,2.78826 -6.14528,4.80621 -8.77964,5.26792c-1.33984,0.1539 -2.40311,1.26327 -2.44921,2.64919c-0.01484,0.60078 -0.03047,1.15546 -0.03047,1.71014c0,8.10149 2.06405,15.1569 5.40622,18.99202c-1.15468,0.1539 -2.27968,-0.04687 -3.23436,-0.57031c-4.77576,-2.68044 -8.36402,-9.88897 -9.14995,-18.3764c-0.13906,-1.52499 -1.4789,-2.63357 -3.00389,-2.49529c-0.36953,0.04609 -0.70859,0.1539 -1.0164,0.30781c-5.48357,2.84919 -13.5554,4.48199 -22.13504,4.48199c-3.38826,0 -6.73121,-0.24609 -9.91948,-0.75468c-0.32344,-0.06172 -0.6625,-0.04609 -0.98593,0.01562c-2.43357,0.49357 -4.9106,0.74117 -7.39371,0.73906c-0.75468,0 -1.49374,-0.01562 -2.20233,-0.06172c-3.74295,-0.21562 -7.33199,-0.98593 -10.64369,-2.26404c-1.17109,-0.44687 -2.2953,-0.9703 -3.37342,-1.54061c-0.64744,-0.34548 -1.40565,-0.41947 -2.10767,-0.20569c-0.70202,0.21379 -1.29029,0.69782 -1.63528,1.34552c-0.16953,0.32343 -0.27734,0.67812 -0.30781,1.03202h-0.01562c-0.32344,7.68665 1.30937,14.4944 4.28201,18.3764c-1.13984,0.07734 -2.24921,-0.16953 -3.1578,-0.75468c-5.2531,-3.37341 -8.51871,-12.58426 -7.9484,-22.38105c0.10978,-1.81148 0.34656,-3.61303 0.70859,-5.39136c0.13828,-0.63203 0.04609,-1.30936 -0.29297,-1.91014c-1.53984,-2.72654 -2.32577,-5.63823 -2.32577,-8.61086z" data-paper-data="{&quot;index&quot;:null}" fill="#d2cdce"/><path d="M207.13668,158.53961h25.40065c1.52499,0 2.75702,1.23202 2.75702,2.75701c0,1.52499 -1.23202,2.75701 -2.75702,2.75701h-25.40065c-5.37575,0 -10.47495,1.54061 -13.98665,4.20543c-0.47479,0.37123 -1.06058,0.57208 -1.66327,0.57031c-0.83125,0 -1.66327,-0.38515 -2.20233,-1.09374c-0.92421,-1.20155 -0.69375,-2.94216 0.52343,-3.86637c4.45154,-3.38903 10.76713,-5.32964 17.32882,-5.32964z" data-paper-data="{&quot;index&quot;:null}" fill="#663333"/><path d="M203.88669,201.50016c0.90859,4.32809 2.47967,7.84055 4.49763,10.16631c-1.12421,0.1539 -2.24843,-0.04687 -3.18826,-0.57031c-3.12733,-1.75623 -5.76091,-5.45308 -7.40934,-10.27413c1.98749,0.43203 5.29919,0.69374 6.09997,0.67812zM241.03884,199.35877c1.43281,-0.4 2.80389,-0.84687 4.08201,-1.33983c0.40078,2.18748 0.97031,4.28199 1.69452,6.23823c0.24687,2.957 0.89375,5.46792 1.91015,7.42415c-1.13984,-0.12344 -2.18671,-0.56953 -2.97264,-1.29374c-2.46405,-2.29529 -4.14295,-6.23823 -4.71326,-11.02881z" data-paper-data="{&quot;index&quot;:null}" fill="#d2cdce"/><path d="M279.34802,158.61695c0,1.47174 -1.19308,2.66482 -2.66483,2.66482c-1.47174,0 -2.66483,-1.19308 -2.66483,-2.66482c0,-1.47174 1.19308,-2.66482 2.66483,-2.66482c1.47174,0 2.66483,1.19308 2.66483,2.66482z" data-paper-data="{&quot;index&quot;:null}" fill="#663333"/></g></g></svg>