<svg xmlns="http://www.w3.org/2000/svg" width="136.679" height="83.284" viewBox="0 -31.13 27.224 16.589" xmlns:v="https://vecta.io/nano"><defs><clipPath id="A"><circle cx="615.404" cy="269.045" r="48.548" fill="none"/></clipPath><clipPath id="B"><path d="M3.185 0h20.987c1.759 0 3.185 1.426 3.185 3.185v.326A13.68 13.68 0 0 1 13.679 17.19h0A13.68 13.68 0 0 1 0 3.511v-.326C0 1.426 1.426 0 3.185 0z" transform="translate(602.661 292.497)" fill="none"/></clipPath></defs><g transform="matrix(.170848 0 0 .170848 -91.528373 -68.801531)"><circle cx="615.404" cy="269.045" r="48.548" fill="#fac731"/><g clip-path="url(#A)"><path d="M564.616 294.154s69.518 7.222 102.923 0-3.588 16.552-3.588 16.552-42.49-3.01-97.095 8.727-2.24-25.279-2.24-25.279z" fill="#312449" opacity=".2" style="mix-blend-mode:darken"/><path d="M565.73 234.629s68.7 11.786 102.435 10.019-4.7 11.153-4.7 11.153-42.084-6.228-97.227-3.387-.508-17.785-.508-17.785z" fill="#f0f5f9" opacity=".4"/></g><path d="M615.4 317.592a48.547 48.547 0 0 0 32.55-84.565 48.083 48.083 0 0 1 12.53 32.55c-.131 26.882-25.572 51.676-52.08 51.514" opacity=".1" style="mix-blend-mode:darken"/><path d="M663.7 272.951c4.228 1.151 6.63 2.47 6.63 3.872 0 4.486-24.592 8.123-54.928 8.123s-54.928-3.637-54.928-8.123c0-1.39 2.36-2.7 6.52-3.842l-.14-5.5c-18.928 2.154-31.125 5.538-31.125 9.343 0 6.507 35.671 11.782 79.673 11.782s79.672-5.275 79.672-11.782c0-3.8-12.2-7.189-31.125-9.343" fill="#f0f5f9"/><path d="M605.846 292.497h20.987c1.759 0 3.185 1.426 3.185 3.185v.326a13.68 13.68 0 0 1-13.678 13.679h0a13.68 13.68 0 0 1-13.679-13.679v-.326c0-1.759 1.426-3.185 3.185-3.185z" fill="#3a2a57"/><path d="M626.834 292.5h-2.3a3.185 3.185 0 0 1 3.184 3.185v.326a13.677 13.677 0 0 1-12.526 13.627l1.152.051h0a13.678 13.678 0 0 0 13.678-13.678v-.326a3.184 3.184 0 0 0-3.188-3.185z" opacity=".2" style="mix-blend-mode:darken"/><g clip-path="url(#B)"><ellipse cx="616.34" cy="309.687" rx="8.911" ry="6.986" fill="#fd1a16"/></g><path d="M595.829 274.647s1.066-1.486 3.881-1.486c3.034 0 3.881 1.486 3.881 1.486m25.498.291s1.066-1.485 3.881-1.485c3.034 0 3.881 1.485 3.881 1.485" fill="none" stroke="#312449" stroke-linecap="round" stroke-miterlimit="10" stroke-width="1.806"/></g></svg>