<svg width="106.421" height="140" xmlns="http://www.w3.org/2000/svg"><defs><clipPath clipPathUnits="userSpaceOnUse" id="prefix__a"><path d="M0 800h800V0H0z"/></clipPath></defs><g clip-path="url(#prefix__a)" transform="matrix(.19873 0 0 -.19873 -27.052 150.899)"><path d="M363.754 120.045c28.087 56.43 33.16 159.709 14.616 311.069h69.948c-12.843-144.132-2.955-255.624 34.888-326.98-39.817 5.305-79.635 10.607-119.452 15.91" fill="#630" fill-rule="evenodd"/><path d="M437.373 127.71c-4.841 23.54-2.15 40.145 8.039 49.843-5.578-14.737-5.301-29.47.593-44.202-1.512 24.694 2.301 43.634 15.426 52.505-9.048-15.11-9.8-30.22-5.398-45.332.124 21.5 3.541 31.695 20.527 39.994-13.855-12.704-10.429-25.176-10.357-41.68.016-3.537-5.499-10.52-5.365-14.09-7.822.987-15.643 1.973-23.465 2.963" fill="#94ab13" fill-rule="evenodd"/><path d="M382.735 120.045c14.138 56.43 16.693 159.709 7.355 311.069h35.214c-6.465-144.132-1.487-255.624 17.562-326.98-20.044 5.305-40.088 10.607-60.13 15.91" fill="#874c10" fill-rule="evenodd"/><path d="M221.648 686.662c10.78-4.031 17.935-9.288 21.783-15.677 1.251 4.989 4.303 9.78 8.914 14.376 6.243-15.097 3.836-25.53-5.893-32.075l-.006.007c-16.626 3.845-24.204 15.692-24.799 33.369" fill="#82970a" fill-rule="evenodd"/><path d="M379.365 138.51c4.351 12.349 7.704 47.434-22.355 66.483 27.585-5.768 36.307-32.18 36.487-67.934 3.127 22.094 3.251 32.914 13.943 40.937-6.202-12.617-5.792-31.466-1.484-51.617 3.77 11.643 7.745 22.803 17.503 20.467-9.334-6.415-8.025-19.594-4.548-34.148-10.917 7.714-28.63 18.1-39.546 25.813" fill="#a7bf1c" fill-rule="evenodd"/><path d="M237.57 605.484c-43.94 0-79.561-28.116-79.561-62.8 0-26.17 20.284-48.598 49.117-58.032-4.86-9.222-7.586-19.55-7.586-30.457 0-34.047 26.533-62.463 61.838-69.123a54.445 54.445 0 01-2.51-16.311c0-39.648 43.298-71.788 96.707-71.788 45.513 0 83.676 23.343 93.967 54.777 19.256-8.406 41.823-13.246 65.955-13.246 70.597 0 127.824 41.398 127.824 92.467 0 14.669-4.732 28.538-13.135 40.86 9.697 10.59 15.508 24.059 15.508 38.725 0 34.078-31.344 61.704-70.007 61.704-33.734 0-61.892-21.03-68.527-49.022-64.212-2.992-115.507-40.28-119.256-86.805-10.11 2.662-20.99 4.115-32.33 4.115-.685 0-1.371-.008-2.052-.018a64.767 64.767 0 011.46 13.665c0 28.11-18.09 52.386-44.272 63.742 4.13 7.595 6.42 15.959 6.42 24.747 0 34.684-35.62 62.8-79.56 62.8m219.457 130.199c37.517 0 67.93-30.474 67.93-68.066 0-37.591-30.413-68.067-67.93-68.067-37.515 0-67.928 30.476-67.928 68.067 0 37.592 30.413 68.066 67.928 68.066" fill="#82970a" fill-rule="evenodd"/><path d="M297.13 311.566c.906 9.607 6.372 16.993 12.981 16.993 7.008 0 12.731-8.302 13.095-18.75.118-3.417.891-6.457 2.384-9.313-10.365 2.51-19.963 6.28-28.46 11.07M607.847 565.375c-9.631 4.398-20.566 6.886-32.16 6.886-33.734 0-61.892-21.03-68.526-49.023-64.212-2.993-115.507-40.28-119.256-86.805-10.111 2.662-20.991 4.115-32.33 4.115-.686 0-1.372-.009-2.053-.019a64.774 64.774 0 011.46 13.665c0 28.112-18.09 52.386-44.272 63.742 4.13 7.595 6.42 15.96 6.42 24.748 0 34.684-35.62 62.8-79.56 62.8-17.455 0-33.594-4.44-46.711-11.963 2.803-16.954 14.156-30.66 28.51-39.993-7.212-11.606-11.367-24.743-11.367-38.757 0-6.087.79-12.138 2.344-18.023 5.778-21.898 21.368-39.416 40.2-51.331 17.543-11.1 37.96-17.544 58.629-19.784a68.594 68.594 0 01-.327-6.682 69.04 69.04 0 014.793-25.25c13.244-33.774 49.13-52.47 84.202-52.47 35.073 0 70.959 18.696 84.2 52.47a69.02 69.02 0 014.696 28.916c17.933 1.706 35.985 6.615 51.49 15.43 16.25 9.233 30.727 23.604 34.377 42.58.564 2.941.85 5.93.85 8.926 0 6.995-1.551 13.674-4.341 19.881 19.55 13.375 34.36 32.808 38.732 55.94M524.95 668.118c0-.167.006-.334.006-.5 0-37.593-30.413-68.068-67.93-68.068-37.515 0-67.928 30.475-67.928 68.067 0 30.604 20.16 56.49 47.897 65.055 19.464-15.668 33.183-37.879 36.643-63.874 7.88 1.4 15.883 2.09 23.888 2.09 9.189 0 18.406-.916 27.424-2.77" fill="#788c05" fill-rule="evenodd"/><path d="M317.234 449.328c-57.426 1.28-103.446 36.039-103.446 78.736 0 15.644 6.178 30.224 16.833 42.48-20.79 9.202-34.644 25.658-34.644 44.432 0 27.798 30.366 50.518 68.66 52.117a88.934 88.934 0 00-.028 2.002c0 49.822 43.233 90.21 96.563 90.21 53.33 0 96.563-40.388 96.563-90.21 0-.33-.006-.661-.01-.99 10.706 3.106 22.263 4.803 34.317 4.803 55.433 0 100.373-35.837 100.373-80.046 0-27.571-17.482-51.886-44.087-66.282 5.367-7.214 8.371-15.255 8.371-23.734 0-30.76-39.43-55.762-88.42-56.348a57.453 57.453 0 001.798-14.254c0-36.7-34.797-66.45-77.72-66.45-42.924 0-77.72 29.75-77.72 66.45a57.49 57.49 0 002.597 17.084" fill="#a7bf1c" fill-rule="evenodd"/><path d="M336.292 709.902c27.031 0 48.945-16.603 48.945-37.081s-21.914-37.08-48.945-37.08c-27.033 0-48.946 16.602-48.946 37.08 0 20.478 21.913 37.08 48.946 37.08m155.738-74.753c33.422 0 60.514-21.781 60.514-48.65 0-26.87-27.092-48.65-60.514-48.65-33.422 0-60.515 21.78-60.515 48.65 0 26.869 27.093 48.65 60.515 48.65M358.54 549.12c32.766 0 59.329-18.063 59.329-40.344 0-22.281-26.563-40.345-59.329-40.345-32.767 0-59.329 18.064-59.329 40.345 0 22.28 26.562 40.344 59.329 40.344" fill="#cfe35d" fill-rule="evenodd"/><path d="M168.495 639.621c11.217 2.575 20.083 2.128 26.815-1.083-1.703 4.854-1.796 10.533-.48 16.91 13.528-9.16 17.267-19.192 12.753-30.017l-.007.004c-15.993-5.952-28.846-.238-39.081 14.186" fill="#a7bf1c" fill-rule="evenodd"/><path d="M136.12 525.266c6.714 9.35 13.66 14.876 20.836 16.918-4.488 2.514-8.312 6.714-11.54 12.368 16.205 2.072 25.64-2.98 29.412-14.087l-.01-.003c-8.062-15.039-21.482-19.25-38.697-15.196M225.283 358.418c-.236 11.508 2.008 20.097 6.525 26.034-5.098-.68-10.678.388-16.651 2.976 11.722 11.377 22.306 12.992 31.983 6.367l-.004-.008c2.567-16.869-5.645-28.288-21.853-35.369M539.074 702.05c-6.673 1.106-11.86.522-15.694-1.605.825 2.91.673 6.246-.33 9.938-7.605-5.862-9.435-11.884-6.397-18.07h.005c9.6-2.913 16.932.904 22.416 9.737M395.557 274.938c5.783 9.95 7.983 18.552 6.908 25.934 4.132-3.067 9.529-4.836 16.009-5.468-4.741 15.633-13.216 22.176-24.892 21.071v-.009c-10.42-13.51-8.77-27.48 1.975-41.528M531.52 314.852c1.868 7.913 1.593 14.183-.646 18.952 3.422-1.227 7.434-1.315 11.947-.414-6.41 9.599-13.483 12.285-21.152 9.145l.002-.005c-4.277-11.274-.297-20.381 9.85-27.678M671.617 486.83c-3.705 10.897-8.743 18.205-15.016 22.245 5.028 1.1 9.908 4.009 14.64 8.479-14.902 6.695-25.4 4.6-32.239-4.927l.008-.005c3.343-16.733 14.958-24.665 32.607-25.791" fill="#82970a" fill-rule="evenodd"/><path d="M259.669 422.63c-4.261 10.691-5.174 19.522-3.031 26.667-4.534-2.427-10.135-3.388-16.636-3.06 6.982 14.767 16.324 19.996 27.71 17.191v-.008c8.327-14.895 4.647-28.47-8.043-40.79M466.269 368.82c4.26 10.692 5.174 19.523 3.03 26.667 4.536-2.426 10.136-3.387 16.637-3.06-6.982 14.768-16.325 19.998-27.712 17.193l.002-.009c-8.326-14.896-4.646-28.47 8.043-40.79" fill="#a7bf1c" fill-rule="evenodd"/><path d="M419.184 114.818c57.379 64.51 101.682 61.04 137.67 14.36 3.457-4.48 4.403-9.897 2.673-15.284-1.728-5.388-5.651-9.24-11.07-10.875-45.424-13.686-88.383-8.748-129.273 11.8" fill="#ab7641" fill-rule="evenodd"/><path d="M449.807 133.928c29.212 32.84 52.05 32.549 70.736 10.688 2.564-3.001 3.339-6.793 2.16-10.555-1.181-3.767-3.985-6.44-7.8-7.437-22.81-5.962-44.448-3.073-65.096 7.304" fill="#bf8b56" fill-rule="evenodd"/><path d="M263.69 102.068c48.466 91.48 113.206 79.08 187.766 3.96C397.62 70.241 337.42 64.154 271.933 82.754c-4.057 1.151-7.075 3.81-8.73 7.69-1.655 3.878-1.488 7.897.487 11.624" fill="#963" fill-rule="evenodd"/><path d="M293.51 130.559c22.916 39.052 52.287 36.908 85.855 7.952 2.932-2.528 4.275-6.068 3.758-9.906-.519-3.84-2.75-6.898-6.249-8.56-23.512-11.172-49.09-12.702-76.452-5.911-3.517.873-6.167 3.14-7.573 6.483-1.405 3.338-1.175 6.819.66 9.942" fill="#b07e4c" fill-rule="evenodd"/><path d="M368.725 74.34c57.38 64.508 101.684 61.037 137.67 14.358 3.457-4.481 4.403-9.894 2.675-15.282-1.73-5.39-5.653-9.243-11.071-10.874-45.424-13.686-88.383-8.748-129.274 11.798" fill="#8c5b2a" fill-rule="evenodd"/><path d="M399.349 93.447c29.212 32.84 52.05 32.551 70.736 10.688 2.564-2.999 3.34-6.794 2.159-10.555-1.18-3.765-3.983-6.437-7.8-7.435-22.81-5.964-44.448-3.072-65.095 7.302" fill="#a87745" fill-rule="evenodd"/><path d="M272.674 589.911c-1.298 7.346-.624 13.108 6.407 13.762 1.665-1.855 2.012-3.419 1.003-4.679-7.272 2.315-6.733-3.76-5.907-10.142-.5.354-1.003.706-1.503 1.06" fill="#963" fill-rule="evenodd"/><path d="M289.9 563.41c1.635-2.216 2.583-4.846 2.583-7.668 0-7.878-7.385-14.264-16.494-14.264-9.108 0-16.493 6.386-16.493 14.264 0 2.822.948 5.452 2.583 7.668 2.217 3 3.32 6.165 3.45 9.893.29 8.346 4.863 14.979 10.46 14.979 5.598 0 10.17-6.633 10.461-14.98.13-3.727 1.234-6.892 3.45-9.892" fill="#9bb316" fill-rule="evenodd"/><path d="M286.858 566.598c1.635-2.214 2.584-4.845 2.584-7.666 0-7.879-7.384-14.265-16.494-14.265-9.108 0-16.49 6.386-16.49 14.265 0 2.821.945 5.452 2.582 7.666 2.214 3 3.318 6.166 3.448 9.895.29 8.346 4.862 14.977 10.46 14.977 5.598 0 10.171-6.63 10.461-14.977.13-3.729 1.234-6.895 3.45-9.895" fill="#f5ac00" fill-rule="evenodd"/><path d="M278.946 565.458c-2.81 3.857-4.232 8.063-4.351 12.854-.062 2.475-.63 5.17-1.91 7.301-.572.956-1.621 2.28-2.788 2.53a1.73 1.73 0 01-.745 0c-1.172-.25-2.248-1.573-2.84-2.53-1.321-2.132-1.945-4.826-2.057-7.3-.214-4.791-1.724-8.997-4.61-12.854-.992-1.325-1.576-2.863-1.593-4.523-.057-5.683 6.008-8.969 11.108-8.969 5.102 0 11.232 3.286 11.289 8.968.017 1.66-.536 3.198-1.503 4.523" fill="#fb0" fill-rule="evenodd"/><path d="M286.858 566.598c1.635-2.214 2.584-4.845 2.584-7.666 0-7.879-7.384-14.265-16.494-14.265-.292 0-.583.006-.874.021 7.848 1.465 13.887 7.317 14.146 14.316.107 2.904-.795 5.61-2.439 7.886-2.229 3.086-3.275 6.342-3.27 10.177.008 6.558-2.666 12.087-6.565 14.333 5.133-.734 9.19-7.063 9.463-14.907.13-3.729 1.234-6.895 3.45-9.895" fill="#e39f00" fill-rule="evenodd"/><path d="M266.077 554.14c2.978 0 5.405 2.233 5.405 4.973 0 2.741-2.427 4.975-5.405 4.975-2.977 0-5.405-2.234-5.405-4.975 0-2.74 2.428-4.974 5.405-4.974" fill="#ffd769" fill-rule="evenodd"/><path d="M401.356 647.088c-1.296 7.347-.623 13.108 6.407 13.763 1.665-1.856 2.013-3.42 1.003-4.68-7.27 2.316-6.733-3.759-5.906-10.142l-1.505 1.06" fill="#963" fill-rule="evenodd"/><path d="M418.581 620.587c1.636-2.214 2.584-4.845 2.584-7.667 0-7.88-7.385-14.264-16.494-14.264s-16.49 6.385-16.49 14.264c0 2.822.947 5.453 2.582 7.667 2.214 3 3.318 6.165 3.45 9.894.29 8.347 4.861 14.978 10.458 14.978 5.6 0 10.171-6.631 10.461-14.978.13-3.73 1.235-6.894 3.45-9.894" fill="#9bb316" fill-rule="evenodd"/><path d="M415.541 623.775c1.635-2.214 2.583-4.845 2.583-7.667 0-7.877-7.384-14.264-16.494-14.264-9.107 0-16.492 6.387-16.492 14.264 0 2.822.949 5.453 2.584 7.667 2.215 3.002 3.319 6.167 3.449 9.895.291 8.346 4.862 14.98 10.459 14.98 5.598 0 10.172-6.634 10.461-14.98.131-3.728 1.234-6.893 3.45-9.895" fill="#f5ac00" fill-rule="evenodd"/><path d="M407.629 622.637c-2.81 3.857-4.232 8.063-4.352 12.854-.06 2.474-.63 5.167-1.91 7.3-.572.956-1.621 2.281-2.788 2.53-.124.025-.247.04-.372.04-.127 0-.25-.015-.373-.04-1.173-.249-2.247-1.574-2.84-2.53-1.321-2.133-1.943-4.826-2.055-7.3-.216-4.79-1.725-8.997-4.611-12.854-.993-1.327-1.576-2.863-1.594-4.523-.056-5.683 6.007-8.97 11.109-8.97 5.1 0 11.23 3.287 11.288 8.97.018 1.66-.536 3.196-1.502 4.523" fill="#fb0" fill-rule="evenodd"/><path d="M415.541 623.775c1.635-2.214 2.583-4.845 2.583-7.667 0-7.877-7.384-14.264-16.494-14.264-.292 0-.583.007-.874.02 7.848 1.467 13.889 7.32 14.146 14.317.109 2.904-.795 5.61-2.438 7.886-2.229 3.087-3.275 6.343-3.271 10.177.008 6.56-2.664 12.09-6.565 14.333 5.135-.734 9.191-7.063 9.463-14.907.131-3.728 1.234-6.893 3.45-9.895" fill="#e39f00" fill-rule="evenodd"/><path d="M394.76 611.316c2.978 0 5.404 2.234 5.404 4.975 0 2.74-2.426 4.975-5.404 4.975-2.977 0-5.404-2.235-5.404-4.975 0-2.74 2.427-4.975 5.404-4.975" fill="#ffd769" fill-rule="evenodd"/><path d="M460.517 520.622c-1.623 9.195-.781 16.408 8.02 17.228 2.084-2.324 2.52-4.282 1.256-5.86-9.103 2.9-8.427-4.705-7.393-12.693-.628.44-1.255.883-1.883 1.325" fill="#963" fill-rule="evenodd"/><path d="M482.08 487.448c2.047-2.773 3.233-6.066 3.233-9.6 0-9.861-9.244-17.854-20.646-17.854-11.4 0-20.645 7.993-20.645 17.855 0 3.533 1.187 6.826 3.234 9.599 2.774 3.755 4.154 7.718 4.318 12.384.363 10.448 6.086 18.75 13.093 18.75 7.008 0 12.731-8.302 13.095-18.75.162-4.666 1.545-8.63 4.318-12.384" fill="#9bb316" fill-rule="evenodd"/><path d="M478.273 491.439c2.047-2.771 3.233-6.064 3.233-9.597 0-9.862-9.243-17.855-20.646-17.855-11.4 0-20.645 7.993-20.645 17.855 0 3.533 1.187 6.826 3.234 9.597 2.773 3.756 4.156 7.719 4.318 12.384.364 10.449 6.087 18.751 13.093 18.751 7.01 0 12.731-8.302 13.095-18.751.163-4.665 1.544-8.628 4.318-12.384" fill="#f5ac00" fill-rule="evenodd"/><path d="M468.37 490.012c-3.518 4.83-5.3 10.094-5.448 16.091-.077 3.098-.789 6.47-2.389 9.138-.72 1.198-2.032 2.855-3.493 3.167a2.208 2.208 0 01-.932 0c-1.467-.312-2.813-1.969-3.554-3.167-1.656-2.668-2.435-6.04-2.574-9.138-.269-5.997-2.158-11.262-5.773-16.09-1.24-1.659-1.973-3.585-1.993-5.66-.072-7.115 7.52-11.228 13.905-11.228 6.384 0 14.06 4.113 14.13 11.227.021 2.076-.67 4.002-1.88 5.66" fill="#fb0" fill-rule="evenodd"/><path d="M478.273 491.439c2.047-2.771 3.233-6.064 3.233-9.597 0-9.862-9.243-17.855-20.646-17.855-.366 0-.73.008-1.093.024 9.822 1.835 17.383 9.162 17.707 17.922.134 3.634-.995 7.021-3.053 9.871-2.79 3.864-4.1 7.94-4.094 12.739.011 8.21-3.335 15.13-8.217 17.942 6.426-.916 11.503-8.841 11.845-18.662.163-4.665 1.544-8.628 4.318-12.384" fill="#e39f00" fill-rule="evenodd"/><path d="M452.26 475.843c3.727 0 6.766 2.797 6.766 6.228 0 3.428-3.04 6.226-6.765 6.226-3.727 0-6.766-2.798-6.766-6.226 0-3.43 3.039-6.228 6.766-6.228" fill="#ffd769" fill-rule="evenodd"/><path d="M377.374 434.891c-1.297 7.347-.625 13.11 6.407 13.763 1.665-1.856 2.013-3.42 1.003-4.68-7.272 2.315-6.732-3.76-5.906-10.14l-1.504 1.057" fill="#963" fill-rule="evenodd"/><path d="M394.6 408.39c1.636-2.215 2.582-4.846 2.582-7.669 0-7.877-7.384-14.263-16.492-14.263s-16.492 6.386-16.492 14.263c0 2.823.947 5.454 2.584 7.67 2.215 3 3.318 6.164 3.448 9.893.29 8.346 4.863 14.98 10.46 14.98s10.17-6.634 10.46-14.98c.13-3.729 1.234-6.894 3.45-9.894" fill="#9bb316" fill-rule="evenodd"/><path d="M391.559 411.58c1.636-2.214 2.584-4.846 2.584-7.668 0-7.878-7.385-14.264-16.494-14.264-9.11 0-16.492 6.386-16.492 14.264 0 2.822.948 5.454 2.584 7.668 2.214 3 3.318 6.164 3.449 9.893.29 8.346 4.862 14.979 10.459 14.979 5.599 0 10.17-6.633 10.46-14.98.132-3.728 1.235-6.892 3.45-9.892" fill="#f5ac00" fill-rule="evenodd"/><path d="M383.647 410.44c-2.81 3.857-4.234 8.063-4.353 12.854-.06 2.473-.63 5.167-1.909 7.299-.573.957-1.622 2.282-2.789 2.53a1.786 1.786 0 01-.743 0c-1.173-.248-2.247-1.573-2.841-2.53-1.32-2.132-1.944-4.826-2.055-7.3-.215-4.79-1.724-8.996-4.612-12.853-.993-1.326-1.575-2.863-1.593-4.522-.057-5.684 6.007-8.97 11.108-8.97 5.101 0 11.231 3.286 11.29 8.97.016 1.659-.536 3.196-1.502 4.522" fill="#fb0" fill-rule="evenodd"/><path d="M391.559 411.58c1.636-2.214 2.584-4.846 2.584-7.668 0-7.878-7.385-14.264-16.494-14.264-.292 0-.583.007-.874.019 7.848 1.466 13.887 7.32 14.146 14.319.107 2.902-.795 5.608-2.438 7.886-2.23 3.085-3.276 6.342-3.271 10.176.008 6.559-2.664 12.088-6.565 14.333 5.135-.733 9.19-7.064 9.463-14.908.13-3.73 1.234-6.893 3.449-9.893" fill="#e39f00" fill-rule="evenodd"/><path d="M370.778 399.12c2.976 0 5.404 2.235 5.404 4.975 0 2.739-2.428 4.975-5.404 4.975-2.978 0-5.405-2.236-5.405-4.975 0-2.74 2.427-4.974 5.405-4.974" fill="#ffd769" fill-rule="evenodd"/><path d="M351.037 534.085c-1.173 6.635-.563 11.84 5.787 12.428 1.502-1.675 1.817-3.088.906-4.226-6.569 2.091-6.082-3.395-5.336-9.158-.452.317-.905.637-1.357.956" fill="#963" fill-rule="evenodd"/><path d="M366.594 510.15c1.478-2 2.332-4.375 2.332-6.924 0-7.114-6.668-12.882-14.895-12.882-8.225 0-14.894 5.768-14.894 12.882 0 2.549.856 4.925 2.333 6.925 2 2.709 2.997 5.568 3.114 8.936.262 7.538 4.393 13.527 9.447 13.527 5.055 0 9.186-5.99 9.447-13.527.118-3.368 1.115-6.227 3.116-8.936" fill="#bfd446" fill-rule="evenodd"/><path d="M363.848 513.032c1.475-2.001 2.332-4.377 2.332-6.925 0-7.115-6.668-12.883-14.895-12.883-8.225 0-14.894 5.768-14.894 12.883 0 2.548.855 4.924 2.333 6.925 2 2.708 2.997 5.567 3.115 8.935.26 7.538 4.39 13.527 9.446 13.527s9.185-5.99 9.448-13.527c.117-3.368 1.114-6.227 3.115-8.935" fill="#f5ac00" fill-rule="evenodd"/><path d="M356.701 512.002c-2.536 3.483-3.822 7.282-3.93 11.61-.054 2.234-.569 4.665-1.723 6.592-.519.863-1.465 2.06-2.52 2.283a1.51 1.51 0 01-.672 0c-1.059-.223-2.03-1.42-2.565-2.283-1.193-1.927-1.756-4.358-1.857-6.593-.195-4.327-1.556-8.126-4.165-11.609-.895-1.198-1.423-2.587-1.437-4.083-.052-5.134 5.426-8.1 10.03-8.1 4.61 0 10.145 2.966 10.195 8.1.017 1.496-.483 2.885-1.356 4.083" fill="#fb0" fill-rule="evenodd"/><path d="M363.848 513.032c1.475-2.001 2.332-4.377 2.332-6.925 0-7.115-6.668-12.883-14.895-12.883-.264 0-.527.007-.79.018 7.087 1.325 12.542 6.61 12.777 12.932.096 2.62-.718 5.065-2.203 7.12-2.013 2.788-2.958 5.729-2.953 9.192.006 5.922-2.407 10.917-5.93 12.944 4.637-.662 8.3-6.378 8.547-13.463.117-3.368 1.114-6.227 3.115-8.935" fill="#e39f00" fill-rule="evenodd"/><path d="M345.08 501.779c2.688 0 4.882 2.018 4.882 4.493 0 2.474-2.194 4.49-4.883 4.49-2.687 0-4.88-2.016-4.88-4.49 0-2.475 2.193-4.493 4.88-4.493" fill="#ffd769" fill-rule="evenodd"/><path d="M392.927 734.875c-.907 5.141-.437 9.173 4.483 9.63 1.165-1.297 1.409-2.392.703-3.274-5.09 1.619-4.711-2.631-4.133-7.097l-1.053.741" fill="#963" fill-rule="evenodd"/><path d="M404.981 716.33c1.145-1.55 1.807-3.39 1.807-5.365 0-5.512-5.167-9.981-11.542-9.981-6.372 0-11.54 4.469-11.54 9.98 0 1.976.663 3.817 1.807 5.367 1.551 2.099 2.323 4.314 2.415 6.922.203 5.842 3.402 10.482 7.318 10.482 3.92 0 7.118-4.64 7.321-10.482.092-2.608.863-4.823 2.414-6.922" fill="#9bb316" fill-rule="evenodd"/><path d="M402.853 718.563c1.145-1.551 1.809-3.391 1.809-5.366 0-5.512-5.167-9.981-11.542-9.981-6.374 0-11.54 4.469-11.54 9.98 0 1.975.662 3.815 1.807 5.366 1.55 2.1 2.323 4.314 2.413 6.922.203 5.842 3.404 10.481 7.32 10.481 3.918 0 7.116-4.639 7.319-10.48.092-2.608.865-4.823 2.414-6.922" fill="#f5ac00" fill-rule="evenodd"/><path d="M397.316 717.765c-1.966 2.699-2.962 5.642-3.045 8.995-.043 1.732-.44 3.616-1.336 5.108-.4.668-1.135 1.596-1.952 1.77a1.201 1.201 0 01-.52 0c-.82-.174-1.573-1.102-1.988-1.77-.925-1.492-1.36-3.376-1.439-5.108-.15-3.353-1.205-6.296-3.226-8.995-.694-.93-1.103-2.004-1.115-3.164-.039-3.978 4.203-6.277 7.773-6.277 3.57 0 7.86 2.299 7.9 6.277.012 1.16-.376 2.235-1.052 3.164" fill="#fb0" fill-rule="evenodd"/><path d="M402.853 718.563c1.145-1.551 1.809-3.391 1.809-5.366 0-5.512-5.167-9.981-11.542-9.981-.204 0-.41.004-.612.014 5.492 1.025 9.717 5.12 9.9 10.018.074 2.03-.558 3.925-1.707 5.518-1.56 2.16-2.292 4.438-2.29 7.122.007 4.589-1.864 8.458-4.592 10.029 3.592-.512 6.43-4.942 6.62-10.432.092-2.608.865-4.823 2.414-6.922" fill="#e39f00" fill-rule="evenodd"/><path d="M388.312 709.843c2.083 0 3.782 1.563 3.782 3.481 0 1.916-1.7 3.481-3.782 3.481-2.083 0-3.782-1.565-3.782-3.48 0-1.919 1.699-3.482 3.782-3.482" fill="#ffd769" fill-rule="evenodd"/><path d="M527.38 405.372c-1.385 7.853-.665 14.015 6.85 14.712 1.782-1.983 2.152-3.654 1.075-5.003-7.775 2.476-7.2-4.02-6.315-10.841l-1.61 1.132" fill="#963" fill-rule="evenodd"/><path d="M545.797 377.038c1.748-2.367 2.764-5.18 2.764-8.197 0-8.422-7.897-15.248-17.632-15.248-9.74 0-17.634 6.826-17.634 15.248 0 3.017 1.014 5.83 2.76 8.197 2.37 3.207 3.55 6.592 3.688 10.577.313 8.923 5.2 16.016 11.186 16.016 5.98 0 10.87-7.093 11.182-16.016.138-3.985 1.318-7.37 3.686-10.577" fill="#788c05" fill-rule="evenodd"/><path d="M542.548 380.447c1.748-2.366 2.762-5.179 2.762-8.197 0-8.42-7.894-15.249-17.634-15.249-9.737 0-17.632 6.828-17.632 15.25 0 3.017 1.015 5.83 2.763 8.196 2.368 3.208 3.549 6.593 3.687 10.58.31 8.921 5.198 16.012 11.182 16.012 5.986 0 10.873-7.09 11.184-16.013.138-3.986 1.317-7.37 3.688-10.579" fill="#f5ac00" fill-rule="evenodd"/><path d="M534.088 379.23c-3.004 4.123-4.524 8.62-4.652 13.742-.067 2.646-.674 5.526-2.04 7.806-.615 1.023-1.735 2.439-2.984 2.703a1.886 1.886 0 01-.795 0c-1.254-.264-2.403-1.68-3.037-2.703-1.411-2.28-2.08-5.16-2.197-7.805-.23-5.123-1.843-9.62-4.928-13.742-1.063-1.42-1.687-3.062-1.704-4.835-.061-6.076 6.42-9.59 11.875-9.59 5.453 0 12.009 3.514 12.069 9.59.016 1.773-.574 3.416-1.607 4.835" fill="#fb0" fill-rule="evenodd"/><path d="M542.548 380.447c1.748-2.366 2.762-5.179 2.762-8.197 0-8.42-7.894-15.249-17.634-15.249-.313 0-.624.006-.934.021 8.39 1.567 14.846 7.824 15.122 15.306.115 3.104-.85 5.997-2.608 8.432-2.381 3.298-3.5 6.781-3.494 10.88.008 7.011-2.851 12.924-7.02 15.324 5.489-.785 9.824-7.552 10.118-15.938.138-3.986 1.317-7.37 3.688-10.579" fill="#e39f00" fill-rule="evenodd"/><path d="M520.331 367.129c3.183 0 5.778 2.389 5.778 5.318 0 2.928-2.595 5.319-5.778 5.319-3.183 0-5.778-2.391-5.778-5.32 0-2.928 2.595-5.317 5.778-5.317" fill="#ffd769" fill-rule="evenodd"/><path d="M305.96 330.599c-1.624 9.196-.782 16.409 8.02 17.228 2.085-2.323 2.52-4.281 1.255-5.86-9.102 2.9-8.426-4.705-7.392-12.692-.627.44-1.255.88-1.883 1.324" fill="#963" fill-rule="evenodd"/><path d="M323.718 301.417c2.046-2.772 3.232-6.064 3.232-9.598 0-9.863-9.244-17.855-20.645-17.855-11.403 0-20.645 7.992-20.645 17.855 0 3.534 1.187 6.826 3.234 9.598 2.773 3.756 4.154 7.719 4.317 12.385.364 10.447 6.087 18.75 13.094 18.75s12.73-8.303 13.095-18.75c.163-4.666 1.544-8.629 4.318-12.385" fill="#f5ac00" fill-rule="evenodd"/><path d="M313.813 299.99c-3.517 4.83-5.299 10.094-5.448 16.092-.077 3.095-.789 6.47-2.39 9.137-.718 1.197-2.029 2.855-3.492 3.167a2.257 2.257 0 01-.931 0c-1.467-.312-2.814-1.97-3.555-3.167-1.654-2.668-2.435-6.042-2.574-9.137-.269-5.998-2.158-11.263-5.771-16.092-1.243-1.66-1.973-3.584-1.993-5.66-.073-7.116 7.518-11.228 13.903-11.228 6.387 0 14.059 4.112 14.131 11.228.02 2.076-.67 4-1.88 5.66" fill="#fb0" fill-rule="evenodd"/><path d="M323.718 301.417c2.046-2.772 3.232-6.064 3.232-9.598 0-9.863-9.244-17.855-20.645-17.855-.367 0-.731.01-1.093.025 9.82 1.832 17.383 9.162 17.706 17.922.135 3.634-.995 7.021-3.053 9.872-2.79 3.863-4.1 7.939-4.094 12.739.01 8.209-3.334 15.129-8.218 17.941 6.428-.918 11.505-8.842 11.847-18.661.163-4.666 1.544-8.629 4.318-12.385" fill="#e39f00" fill-rule="evenodd"/><path d="M297.703 285.82c3.728 0 6.766 2.797 6.766 6.227s-3.038 6.228-6.766 6.228c-3.727 0-6.765-2.798-6.765-6.228 0-3.43 3.038-6.227 6.765-6.227" fill="#ffd769" fill-rule="evenodd"/><path d="M598.575 497.925c-1.386 7.854-.666 14.015 6.852 14.713 1.78-1.984 2.15-3.655 1.073-5.004-7.774 2.476-7.199-4.018-6.315-10.84-.538.377-1.07.753-1.61 1.131" fill="#963" fill-rule="evenodd"/><path d="M616.993 469.592c1.746-2.367 2.762-5.18 2.762-8.197 0-8.422-7.896-15.25-17.632-15.25-9.739 0-17.632 6.828-17.632 15.25 0 3.017 1.013 5.83 2.761 8.197 2.368 3.208 3.548 6.592 3.685 10.577.312 8.923 5.202 16.014 11.186 16.014 5.981 0 10.871-7.09 11.182-16.014.138-3.985 1.32-7.369 3.688-10.577" fill="#788c05" fill-rule="evenodd"/><path d="M613.742 473.002c1.748-2.366 2.762-5.181 2.762-8.197 0-8.421-7.894-15.248-17.633-15.248-9.738 0-17.632 6.827-17.632 15.248 0 3.016 1.014 5.83 2.762 8.197 2.368 3.208 3.55 6.593 3.687 10.579.31 8.922 5.198 16.013 11.183 16.013 5.985 0 10.872-7.091 11.183-16.013.138-3.986 1.32-7.371 3.688-10.58" fill="#f5ac00" fill-rule="evenodd"/><path d="M605.282 471.784c-3.004 4.124-4.524 8.62-4.652 13.742-.067 2.646-.674 5.526-2.042 7.805-.613 1.023-1.733 2.438-2.98 2.705a1.978 1.978 0 01-.399.042c-.133 0-.265-.015-.398-.042-1.253-.267-2.4-1.682-3.037-2.705-1.41-2.28-2.077-5.16-2.197-7.805-.23-5.122-1.843-9.618-4.928-13.742-1.062-1.418-1.687-3.061-1.705-4.834-.06-6.076 6.424-9.59 11.877-9.59 5.454 0 12.008 3.514 12.068 9.59.02 1.773-.574 3.416-1.607 4.834" fill="#fb0" fill-rule="evenodd"/><path d="M613.742 473.002c1.748-2.366 2.762-5.181 2.762-8.197 0-8.421-7.894-15.248-17.633-15.248-.314 0-.625.006-.934.02 8.39 1.568 14.846 7.823 15.121 15.306.118 3.103-.847 5.997-2.608 8.43-2.38 3.302-3.499 6.783-3.494 10.88.008 7.012-2.848 12.922-7.018 15.325 5.487-.786 9.822-7.552 10.116-15.938.138-3.986 1.32-7.37 3.688-10.579" fill="#e39f00" fill-rule="evenodd"/><path d="M591.524 459.681c3.183 0 5.777 2.391 5.777 5.318 0 2.93-2.594 5.32-5.777 5.32-3.183 0-5.778-2.39-5.778-5.32 0-2.927 2.595-5.318 5.778-5.318" fill="#ffd769" fill-rule="evenodd"/></g></svg>