<svg xmlns="http://www.w3.org/2000/svg" width="119.29" height="129.04" viewBox="0 0 152.69 165.17" xmlns:v="https://vecta.io/nano"><path d="M152.69 27.555c0 6.838-5.573 12.411-12.411 12.411h-4.968a19.07 19.07 0 0 1-8.616 5.096V84.42c0 8.799-4.033 16.663-10.339 21.87v44.913a3.52 3.52 0 0 1-3.52 3.52H101.93v6.929a3.52 3.52 0 0 1-3.52 3.52H83.965a3.52 3.52 0 0 1-3.52-3.52v-42.896H54.359c-.202.293-.44.55-.733.788-2.566 1.998-5.408 3.575-8.469 4.675v26.984a3.52 3.52 0 0 1-3.52 3.52H30.73v6.929a3.52 3.52 0 0 1-3.52 3.52H12.765a3.52 3.52 0 0 1-3.52-3.52V98.444a8.17 8.17 0 0 1-1.155.092 7.47 7.47 0 0 1-3.281-.733C1.968 96.428.226 93.311.025 89.242c-.165-3.428.733-7.369 2.53-11.091 2.86-5.885 7.296-9.954 11.641-10.907 5.224-7.754 14.079-12.869 24.124-12.869h47.846a6.8 6.8 0 0 0 6.801-6.801V25.668a15.67 15.67 0 0 1-3.923-9.697c-.202-4.18 1.21-8.194 3.978-11.311C94.8 2.643 97.073 1.121 99.603.223c.605-.22 1.283-.293 1.98-.147a3.52 3.52 0 0 1 2.676 4.198c-.275 1.228-.275 2.475-.037 3.666.733-1.338 1.668-2.566 2.805-3.666 1.888-1.833 4.198-3.19 6.728-3.905l.165-.055c.018 0 .018 0 .037-.018.605-.165 1.283-.165 1.925.018 1.87.55 2.933 2.511 2.383 4.381a8.79 8.79 0 0 0 .99 7.204h17.818c8.598.018 15.619 7.039 15.619 15.655z" fill="#633"/><path d="M145.63 27.555a5.36 5.36 0 0 1-5.353 5.353h-6.618c-1.155.018-2.163.587-2.805 1.448-1.998 2.42-4.895 3.978-8.011 4.271-.898.073-1.686.495-2.273 1.137-.568.623-.935 1.466-.935 2.383v42.291c0 11.714-9.514 21.246-21.228 21.265h-.018a3.52 3.52 0 0 0-3.52 3.52l-.018 40h-7.369v-33.987a3.52 3.52 0 0 0-3.52-3.52H50.727c.77-3.538.972-7.278.458-11.036a3.53 3.53 0 0 0-3.96-3.025 3.53 3.53 0 0 0-3.025 3.96c1.668 12.227-6.031 23.849-17.91 27.058a3.52 3.52 0 0 0-2.603 3.391v17.103h-7.388V83.466c0-12.154 9.881-22.035 22.016-22.035h47.846c7.644 0 13.859-6.214 13.859-13.859V24.254a3.5 3.5 0 0 0-1.137-2.585c-3.19-2.951-3.685-7.828-1.338-11.347.788 2.951 2.42 5.683 4.803 7.773a3.55 3.55 0 0 0 2.328.88l32.392-.018c4.711 0 8.561 3.85 8.561 8.598z" fill="#fc6"/><path d="M117.47 23.138a3.52 3.52 0 0 1 3.52 3.52 3.52 3.52 0 0 1-3.52 3.52 3.52 3.52 0 0 1-3.52-3.52 3.52 3.52 0 0 1 3.52-3.52z" fill="#633"/><path d="M101.92 145.1h7.369v2.603h-7.369z" fill="#b88d5b"/><path d="M109.29 110.54v28.212h-7.369v-26.251a28.19 28.19 0 0 0 7.369-1.962z" fill="#fc6"/><path d="M38.296 70.946a3.52 3.52 0 0 1 3.52 3.52 3.52 3.52 0 0 1-3.52 3.52 5.48 5.48 0 0 0-5.463 5.463 3.52 3.52 0 0 1-3.52 3.52 3.52 3.52 0 0 1-3.52-3.52 12.52 12.52 0 0 1 12.502-12.502z" fill="#633"/><path d="M30.725 145.1h7.369v2.603h-7.369z" fill="#b88d5b"/><g fill="#fc6"><path d="M38.094 130.8v7.956h-7.369v-4.07c2.658-.99 5.133-2.31 7.369-3.886zm73.418-118.88h-1.43c.275-.587.605-1.155 1.008-1.668.11.568.257 1.118.422 1.668z"/><path d="M110.08 11.919h1.43l-.422-1.668c-.385.513-.733 1.082-1.008 1.668z"/></g><path d="M9.68 78.444c-.293 1.632-.44 13.492-.44 13.492-.697.275-1.302.33-1.687.147-.66-.312-1.118-1.558-1.21-3.153-.11-2.346.587-5.261 1.907-8.011.44-.898.917-1.723 1.43-2.475zm6.599 77.085h7.388v2.585h-7.388zm71.2 0h7.388v2.585H87.48z" fill="#b88d5b"/></svg>