<svg xmlns="http://www.w3.org/2000/svg" width="142.065" height="134.455" viewBox="0 0 181.843 172.102" xmlns:v="https://vecta.io/nano"><path d="M103.47 125.38c4.233-8.58 4.432-11.691 14.362-20.826a128.562 128.562 0 0 1 9.56-7.941c9.148-8.651 14.177-18.055 6.62-26.281l-26.423-28.724c-7.756-8.424-17.842-3.821-27.445 4.986l-2.955 2.031a130.77 130.77 0 0 1-5.654 5.526C60.37 64.409 55.923 64.835 46.363 67.832l-.455.313c-7.572.923-23.638 11.89-31.253 18.879C.89 99.667-4.053 116.686 3.604 125.039c.412.426.881.824 1.321 1.222l-.099.085 39.648 43.157.227-.199c8.396 5.995 24.136 2.145 36.821-9.504 9.319-8.566 21.934-25.925 21.948-34.42z" fill="#e88f22"/><path d="M166.486 2.983l12.6 13.723-92.337 84.851-12.6-13.709z" fill="#5b4037"/><path d="M90.187 85.462l-.682 21.962-21.934-.682.682-21.948z" fill="#3c2622"/><path d="M155.562 2.202l23.34 25.414-18.34 16.834-23.34-25.414z" fill="#5b4037"/><path d="M163.759 0l18.084 19.675-31.054 28.554-18.084-19.703z" fill="#b5612c"/><path d="M61.165 130.48l-18.084-19.675 5.583-10.427 23.34 25.414z" fill="#5b4037"/><path d="M163.205 10.555l3.196 3.466-6.009 5.498-3.182-3.466zm-12.331 11.322l3.196 3.466-6.009 5.526-3.182-3.48zm17.146-6.08l3.21 3.466-5.995 5.54-3.196-3.466zm-12.316 11.336l3.196 3.466-5.995 5.54-3.21-3.466z" fill="#e1c2ad"/></svg>