<svg xmlns="http://www.w3.org/2000/svg" xmlns:xlink="http://www.w3.org/1999/xlink" width="137.667" height="137.664" viewBox="0 0 22.216 22.216" xmlns:v="https://vecta.io/nano"><style><![CDATA[.B{stroke-miterlimit:10}.C{stroke:#dcb98e}.D{stroke-width:1.806}]]></style><defs><clipPath id="A"><circle cx="395.95" cy="269.045" r="64.551" fill="none"/></clipPath><path id="B" d="M475.535 248.952l-31.254-3.734a420.4 420.4 0 0 0-99.566 0l-31.253 3.734"/></defs><g transform="matrix(.172076 0 0 .172076 -57.025944 -35.188589)"><circle cx="395.95" cy="269.045" r="64.551" fill="#f4d0b1"/><g clip-path="url(#A)" fill="none" class="B"><g stroke-width="6.236" class="C"><path d="M330.159 214.5A1021.437 1021.437 0 0 1 540.3 228.515m-216.461 92.127a1021.438 1021.438 0 0 1 210.146 14.014" opacity=".5"/></g><path d="M306.743 333.544a1021.431 1021.431 0 0 1 210.51 6.564" stroke="#da5423" stroke-width="10.834"/><g stroke-width="9.931"><path d="M313.462 286.841l31.253 3.735a420.454 420.454 0 0 0 99.566 0l31.254-3.734" stroke="#ef8f4d"/><g class="C"><use xlink:href="#B" opacity=".3"/></g></g><path d="M475.535 260.237l-31.254-3.737a420.508 420.508 0 0 0-99.566 0l-31.253 3.734" stroke-width="3.611" opacity=".3" class="C"/><g stroke="#ef8f4d"><path d="M475.535 239.37l-31.254-3.734a420.4 420.4 0 0 0-99.566 0l-31.253 3.734" class="D"/><path d="M475.535 222.818l-31.254-3.734a420.4 420.4 0 0 0-99.566 0l-31.253 3.734" stroke-width="6.32"/><path d="M313.462 276.043l31.253 3.734a420.4 420.4 0 0 0 99.566 0l31.254-3.734" class="D"/></g></g><g fill="#312449"><circle cx="374.985" cy="278.727" r="4.057"/><circle cx="416.915" cy="278.727" r="4.057"/></g><g fill="#fff"><circle cx="372.709" cy="277.66" r=".748"/><circle cx="414.639" cy="277.66" r=".748"/></g><path d="M395.951 333.6a64.549 64.549 0 0 0 43.279-112.446 64.31 64.31 0 0 1 16.661 43.28c0 35.65-33.6 68.495-69.248 68.495" opacity=".2" style="mix-blend-mode:darken"/><ellipse cx="6.342" cy="13.184" rx="6.342" ry="13.184" transform="matrix(.059 -.998 .998 .059 352.542 303.227)" fill="#ef8f4d" stroke="#f3cda6" stroke-width="2.349"/><path d="M412.23 308.353s-4.469 2.446-16.279 2.446c-12.729 0-16.28-2.446-16.28-2.446" fill="none" stroke="#312449" stroke-linecap="round" stroke-width="2.709" class="B"/></g></svg>