<svg version="1.1" xmlns="http://www.w3.org/2000/svg" xmlns:xlink="http://www.w3.org/1999/xlink" width="109.55833" height="140" viewBox="0,0,109.55833,140"><defs><linearGradient x1="242.08548" y1="112.07261" x2="241.22541" y2="151.95798" gradientUnits="userSpaceOnUse" id="color-1"><stop offset="0" stop-color="#d19b75"/><stop offset="1" stop-color="#e8cdba" stop-opacity="0"/></linearGradient></defs><g transform="translate(-185.22084,-110)"><g data-paper-data="{&quot;isPaintingLayer&quot;:true}" stroke="none" stroke-linecap="butt" stroke-linejoin="miter" stroke-miterlimit="10" stroke-dasharray="" stroke-dashoffset="0" style="mix-blend-mode: normal"><path d="M255.00649,180.20106c13.08026,2.26561 23.56593,9.6214 23.48263,22.17243c-0.0773,11.81565 -4.65212,14.82456 -14.67986,15.77997c12.71158,-2.88602 33.05447,0.42022 30.79679,13.40533c-1.52428,8.77898 -9.46877,16.71555 -25.69075,17.24082c-5.89494,0.19425 -12.62635,0.52329 -12.8325,-9.57977c-8.50941,2.81268 -16.71158,5.2765 -29.62534,0.25966c0.64618,8.71952 -4.40039,10.81664 -14.25767,9.83349c-5.35183,-0.53518 -28.5748,-8.45985 -26.89194,-20.88799c2.03766,-15.04656 21.88303,-12.83646 34.10105,-10.27154c-6.52328,-1.68483 -13.27649,-1.81367 -13.76014,-13.21109c0.03171,-15.77005 11.13378,-19.84735 19.08422,-22.90583c6.07928,-2.33895 17.65707,-4.0218 30.27351,-1.83548z" fill="#000000" fill-rule="evenodd" stroke-width="0.19822"/><path d="M270.14225,216.72432c-1.71655,6.37066 -5.80178,11.85133 -3.8434,19.59958c-14.88007,7.96432 -30.88203,11.19722 -50.34683,-0.19227c1.98216,-9.2646 -0.31715,-13.63526 -1.72844,-19.02277c16.75716,3.87115 35.06636,4.444 55.91867,-0.38454z" fill="#000000" fill-rule="evenodd" stroke-width="0.19822"/><path d="M254.20173,180.98203c12.84637,2.22596 23.12981,8.20614 23.60355,22.13675c0.40634,11.97422 -8.35084,14.46778 -17.83943,15.85727c12.66401,-2.65411 35.69471,-1.58176 34.02772,12.62635c-1.01883,8.68979 -8.91377,15.87907 -27.82158,17.79186c-5.76214,0.58275 -9.12982,-1.71853 -10.17046,-10.59662c-8.35678,2.76114 -17.05053,4.92566 -29.73238,0c0.63429,8.56292 -4.19424,10.8761 -13.87511,9.91079c-5.2547,-0.52527 -27.93654,-7.79979 -26.28342,-20.00593c2.00198,-14.77699 22.21207,-12.24577 34.21206,-9.72645c-6.04757,-2.37463 -13.39939,-2.68186 -13.87511,-13.87511c0.03171,-15.48859 10.21406,-19.13179 18.02178,-22.13675c5.97225,-2.29732 17.34191,-4.12884 29.73238,-1.98216z" fill="#e8cdba" fill-rule="evenodd" stroke-width="0.19822"/><path d="M268.8588,217.40509c-1.63924,6.0773 -5.53616,11.30822 -3.66699,18.69969c-14.1982,7.59959 -29.46479,10.68185 -48.03563,-0.18236c1.89098,-8.84043 -0.30327,-13.01089 -1.64916,-18.15063c15.9881,3.69276 33.45686,4.23984 53.35178,-0.3667z" fill="#ffffff" fill-rule="evenodd" stroke-width="0.19822"/><path d="M261.82511,181.68966c13.39543,3.39147 14.98909,11.94647 21.14765,18.50345c-5.32011,5.9663 -11.75816,8.94548 -20.60255,8.87016l3.39742,10.40038c-10.97521,4.52725 -24.20018,8.12487 -49.07032,0.74529l4.34291,-10.19622c-8.10901,-1.80178 -16.31911,-3.49256 -20.01386,-10.19622c4.85629,-6.22398 8.76709,-13.18135 17.93656,-16.04954c13.99404,-6.46382 31.3181,-7.5441 42.86219,-2.0773z" fill="#000000" fill-rule="evenodd" stroke-width="0.19822"/><path d="M261.52482,182.01959c13.00692,3.29435 14.55499,11.59959 20.53516,17.96827c-2.58473,2.89593 -9.76411,7.35579 -16.59463,8.74925c-3.6551,0.74529 -0.8662,-8.31714 -3.86521,-11.46481l3.04261,21.78194c-10.66005,4.39643 -22.78887,7.5322 -46.93553,0.3667l4.47571,-21.82753c-3.93656,2.49752 0.80476,12.38453 -2.76709,11.35579c-8.61248,-2.47968 -14.61247,-4.25966 -16.92565,-9.32804c4.71555,-6.04162 8.51337,-12.7988 17.41723,-15.58373c13.58571,-6.2775 30.40829,-7.32408 41.6174,-2.01784z" fill="#87cdde" fill-rule="evenodd" stroke-width="0.19822"/><g fill-rule="evenodd" stroke-width="1"><path d="M196.54395,242.0817c-6.78691,-6.2656 -5.53022,-7.02873 -3.77601,-9.11595c1.78394,-2.11893 2.46581,-1.05847 3.29038,-0.77701c-0.71159,-0.59861 -2.45589,-2.93359 -0.22795,-4.87611c2.25768,-1.96828 3.70862,-0.68979 4.57086,-0.01189c-0.87413,-1.03865 -2.16254,-2.53518 0.46581,-4.79881c2.50545,-2.16055 3.76214,-0.32507 4.75916,0.56888c-0.80872,-1.22299 -2.22795,-3.03865 0.55699,-5.1992c4.61447,-3.58176 10.83844,7.20713 15.14171,11.83349c6.68384,7.49256 7.2547,14.29533 3.02081,18.09116c-5.04658,4.52527 -20.25568,1.25074 -27.80176,-5.71456z" fill="#000000"/><path d="M197.24167,241.92312c-6.30921,-5.92467 -6.03171,-6.61446 -3.96432,-8.84439c1.79187,-1.93459 2.71159,-0.1447 5.11,0.96135c-1.61942,-1.91278 -4.93161,-3.75421 -2.24579,-6.35876c2.77502,-2.68979 4.4995,0.84044 6.49553,2.1665c-1.19921,-2.09118 -4.12884,-4.24975 -1.83151,-6.71555c2.84638,-3.05451 4.9217,0.96531 6.67987,2.1665c-0.74529,-1.90287 -4.20218,-4.70366 -1.0664,-7.01288c4.6997,-3.45887 10.42417,7.36967 14.42417,11.74429c6.57482,7.32804 6.98513,13.88304 3.04856,17.47273c-4.68979,4.2775 -19.63923,1.00694 -26.65012,-5.57978z" fill="#e8cdba"/></g><g fill-rule="evenodd" stroke-width="1"><path d="M258.14821,247.91695c-4.23389,-3.79583 -3.66303,-10.5986 3.02081,-18.09116c4.30327,-4.62636 10.52724,-15.41525 15.14171,-11.83349c2.78493,2.16055 1.36571,3.97621 0.55699,5.1992c0.99703,-0.89395 2.25371,-2.72943 4.75916,-0.56888c2.62834,2.26363 1.33994,3.76015 0.46581,4.79881c0.86224,-0.6779 2.31318,-1.95639 4.57086,0.01189c2.22795,1.94252 0.48365,4.2775 -0.22795,4.87611c0.82458,-0.28147 1.50644,-1.34192 3.29038,0.77701c1.75421,2.08721 3.0109,2.85034 -3.77601,9.11595c-7.54608,6.96531 -22.75518,10.23983 -27.80176,5.71456z" fill="#000000"/><path d="M258.60212,247.62359c-3.93657,-3.58969 -3.52626,-10.14469 3.04856,-17.47273c4,-4.37462 9.72447,-15.20316 14.42417,-11.74429c3.13577,2.30921 -0.32111,5.11 -1.0664,7.01288c1.75817,-1.20119 3.83349,-5.22101 6.67987,-2.1665c2.29732,2.46581 -0.63231,4.62438 -1.83151,6.71555c1.99603,-1.32606 3.72051,-4.85629 6.49553,-2.1665c2.68582,2.60456 -0.62636,4.44598 -2.24579,6.35876c2.39841,-1.10604 3.31813,-2.89593 5.11,-0.96135c2.06739,2.22993 2.34489,2.91972 -3.96432,8.84439c-7.01089,6.58671 -21.96034,9.85727 -26.65012,5.57978z" fill="#e8cdba"/></g><path d="M229.25825,208.11977c3.06045,-0.0337 7.74429,0.29138 7.63329,3.49256c-0.10902,3.18929 -1.21903,3.03865 -2.87215,3.38949c1.71655,0.24182 2.81269,0.12884 2.65808,3.38949c-0.1447,3.05847 -3.09415,2.56887 -4.23191,2.5451c1.98018,0.82061 2.36868,1.69276 2.34886,3.26065c-0.0317,2.19821 -3.59366,3.14767 -9.56986,2.56887c-4.87413,-0.47373 -9.98215,-2.47373 -10.0218,-12.57085c-0.0258,-6.10505 2.55699,-10.66401 9.33597,-11.89295c3.42121,-0.62042 7.92269,-0.32111 9.04855,0.99901c1.82557,2.1447 -0.666,4.19821 -4.32903,4.81863z" fill="#000000" fill-rule="evenodd" stroke-width="0.19822"/><path d="M226.99462,208.50232c3.33399,-0.0337 9.25272,-0.21209 9.46481,2.85233c0.31913,4.58671 -4.0991,3.05847 -8.16847,3.50049c4.73537,0.88404 8.50147,-0.44202 7.90881,3.49851c-0.54708,3.64321 -5.29633,1.51834 -8.16649,1.94648c2.75718,0.68187 6.33101,0.93756 6.35083,3.49851c0.0198,2.42022 -4.00991,3.20714 -9.33398,2.46383c-4.51933,-0.63033 -9.29633,-2.37067 -9.33399,-12.05549c-0.0238,-5.85926 2.46382,-10.47174 8.81664,-11.4093c2.76313,-0.40832 5.87909,-0.98513 8.42616,0.64817c2.70961,1.73835 -1.70664,4.21407 -5.96432,5.05649z" fill="#e8cdba" fill-rule="evenodd" stroke-width="0.19822"/><path d="M250.27111,203.04346c1.12587,-1.3221 5.62537,-1.62141 9.04856,-1.00099c6.77898,1.22894 9.35976,5.7879 9.33596,11.89493c-0.04162,10.09712 -5.14766,12.09514 -10.02377,12.56887c-5.97621,0.57879 -9.53818,-0.37066 -9.56788,-2.56888c-0.02181,-1.56788 0.3667,-2.44003 2.34886,-3.25866c-1.13776,0.0218 -4.0892,0.51337 -4.2339,-2.54708c-0.15262,-3.26065 0.94351,-3.14767 2.65808,-3.38949c-1.65312,-0.35084 -2.76115,-0.2002 -2.87017,-3.38949c-0.111,-3.20119 4.57284,-3.52626 7.6333,-3.49256c-3.66303,-0.61843 -6.15659,-2.67393 -4.32904,-4.81664z" fill="#000000" fill-rule="evenodd" stroke-width="0.19822"/><path d="M250.89946,203.18617c2.54509,-1.6333 5.66104,-1.05649 8.42615,-0.64817c6.35084,0.93756 8.83846,5.55203 8.81466,11.4093c-0.03766,9.68482 -4.81268,11.42516 -9.33398,12.05548c-5.32408,0.74331 -9.35179,-0.0436 -9.33399,-2.46184c0.01982,-2.56293 3.59366,-2.81863 6.35282,-3.50049c-2.87016,-0.42815 -7.61942,1.69871 -8.16649,-1.9445c-0.59267,-3.94053 3.17343,-2.61447 7.90683,-3.50049c-4.06739,-0.44202 -8.48761,1.08622 -8.1665,-3.50049c0.21011,-3.06442 6.13082,-2.88405 9.46283,-2.85233c-4.25569,-0.84242 -8.67194,-3.31813 -5.96233,-5.05649z" fill="#e8cdba" fill-rule="evenodd" stroke-width="0.19822"/><g fill-rule="nonzero" stroke-width="1"><path d="M236.72006,191.95285c-8.71568,-1.11105 -16.12626,-6.14752 -21.06998,-12.26477c-5.1454,-6.32476 -7.82561,-13.97674 -8.40232,-21.65176c-1.07008,-1.47563 -3.72196,-1.68026 -3.99531,-3.75537c-0.62172,-1.53039 -0.44003,-3.33026 0.03,-4.89524c0.32169,-2.17743 3.31526,-2.6155 4.75204,-3.27839c2.08516,-9.27747 7.49892,-18.36761 16.5913,-23.89692c4.50035,-2.85616 9.97911,-4.56236 15.57955,-4.61856c1.16842,-0.28965 3.59361,0.45681 3.71529,-1.00441c-0.40503,-1.01882 -0.23002,-2.1976 0.51004,-2.8504c-1.7318,-0.86175 -2.24351,-3.03485 0.07334,-3.63c2.63021,-0.73926 2.62187,2.5521 4.07699,3.71647c0.61005,1.75952 -2.53687,2.00162 -1.2401,3.89371c1.00841,1.17013 3.92697,1.08079 5.51043,2.12555c8.85069,3.66315 15.26953,10.78481 18.6898,18.61259c1.31344,2.95127 2.24684,6.02647 2.80855,9.15066c2.14017,-0.04755 5.26375,0.58074 5.21374,2.89939c0.15001,2.36332 -0.15001,4.98603 -1.93182,6.88389c-1.00175,1.12978 -3.4036,0.60668 -2.92356,2.44258c-1.15009,9.10455 -5.23874,18.18748 -12.93101,24.65491c-5.32708,4.60703 -12.59265,7.78743 -20.24659,7.67935c-1.60679,0.01441 -3.21359,-0.06485 -4.81038,-0.21328z" fill="#e8cdba"/><path d="M236.72006,191.95285c-8.71568,-1.11105 -16.12626,-6.14752 -21.06998,-12.26477c-5.1454,-6.32476 -7.82561,-13.97674 -8.40232,-21.65176c-1.07008,-1.47563 -3.72196,-1.68026 -3.99531,-3.75537c-0.62172,-1.53039 -0.44003,-3.33026 0.03,-4.89524c0.32169,-2.17743 3.31526,-2.6155 4.75204,-3.27839c2.08516,-9.27747 7.49892,-18.36761 16.5913,-23.89692c4.50035,-2.85616 9.97911,-4.56236 15.57955,-4.61856c1.16842,-0.28965 3.59361,0.45681 3.71529,-1.00441c-0.40503,-1.01882 -0.23002,-2.1976 0.51004,-2.8504c-1.7318,-0.86175 -2.24351,-3.03485 0.07334,-3.63c2.63021,-0.73926 2.62187,2.5521 4.07699,3.71647c0.61005,1.75952 -2.53687,2.00162 -1.2401,3.89371c1.00841,1.17013 3.92697,1.08079 5.51043,2.12555c8.85069,3.66315 15.26953,10.78481 18.6898,18.61259c1.31344,2.95127 2.24684,6.02647 2.80855,9.15066c2.14017,-0.04755 5.26375,0.58074 5.21374,2.89939c0.15001,2.36332 -0.15001,4.98603 -1.93182,6.88389c-1.00175,1.12978 -3.4036,0.60668 -2.92356,2.44258c-1.15009,9.10455 -5.23874,18.18748 -12.93101,24.65491c-5.32708,4.60703 -12.59265,7.78743 -20.24659,7.67935c-1.60679,0.01441 -3.21359,-0.06485 -4.81038,-0.21328z" fill="url(#color-1)"/><path d="M236.72006,191.95285c-8.71568,-1.11105 -16.12626,-6.14752 -21.06998,-12.26477c-5.1454,-6.32476 -7.82561,-13.97674 -8.40232,-21.65176c-1.07008,-1.47563 -3.72196,-1.68026 -3.99531,-3.75537c-0.62172,-1.53039 -0.44003,-3.33026 0.03,-4.89524c0.32169,-2.17743 3.31526,-2.6155 4.75204,-3.27839c2.08516,-9.27747 7.49892,-18.36761 16.5913,-23.89692c4.50035,-2.85616 9.97911,-4.56236 15.57955,-4.61856c1.16842,-0.28965 3.59361,0.45681 3.71529,-1.00441c-0.40503,-1.01882 -0.23002,-2.1976 0.51004,-2.8504c-1.7318,-0.86175 -2.24351,-3.03485 0.07334,-3.63c2.63021,-0.73926 2.62187,2.5521 4.07699,3.71647c0.61005,1.75952 -2.53687,2.00162 -1.2401,3.89371c1.00841,1.17013 3.92697,1.08079 5.51043,2.12555c8.85069,3.66315 15.26953,10.78481 18.6898,18.61259c1.31344,2.95127 2.24684,6.02647 2.80855,9.15066c2.14017,-0.04755 5.26375,0.58074 5.21374,2.89939c0.15001,2.36332 -0.15001,4.98603 -1.93182,6.88389c-1.00175,1.12978 -3.4036,0.60668 -2.92356,2.44258c-1.15009,9.10455 -5.23874,18.18748 -12.93101,24.65491c-5.32708,4.60703 -12.59265,7.78743 -20.24659,7.67935c-1.60679,0.01441 -3.21359,-0.06485 -4.81038,-0.21328zM245.40407,191.26547c8.80236,-1.16869 16.2346,-6.3752 21.03665,-12.66826c4.52202,-5.92703 6.95221,-12.91612 7.7006,-19.95132c0.35169,-1.39205 3.4186,-0.86031 3.76696,-2.71205c0.82506,-1.5448 0.94674,-3.29856 1.05342,-4.96874c0.02667,-2.05061 -2.38019,-2.79419 -4.36868,-2.71494c-1.84848,-0.35594 -0.96341,-2.40511 -1.63513,-3.55219c-2.30518,-8.88119 -7.91062,-17.45399 -16.83632,-22.53945c-2.70021,-1.51887 -5.67878,-2.67891 -8.80569,-3.35909c-0.9134,1.28686 -3.53361,0.62542 -3.92197,2.20481c-2.05349,1.72061 -3.83863,-1.40358 -2.26518,-2.81437c-1.33344,-0.18157 -2.83356,0.15563 -4.21866,0.28533c-8.27231,1.06349 -15.42621,5.67485 -20.21492,11.45346c-3.55028,4.25254 -5.9688,9.16651 -7.43892,14.23324c-0.09001,1.66153 -0.74506,3.42681 -2.99523,3.21498c-2.66354,0.97703 -2.99357,3.93551 -2.5052,6.09131c0.09334,2.46852 3.53361,2.66018 4.37701,4.57101c-0.11334,2.64288 0.57171,5.28577 1.22343,7.86525c2.35518,8.42581 7.76894,16.46975 16.1346,21.43561c5.75378,3.44987 12.98268,4.99468 19.91323,3.92542zM240.40201,182.41022c-2.32518,-0.2421 -4.51369,-0.93668 -6.59552,-1.84022c-1.99349,-0.67873 -3.80863,-1.60821 -5.57544,-2.65009c-1.81514,-0.9583 -2.38352,-2.8331 -3.71529,-4.18048c-1.34511,-2.10537 -2.5852,-4.36782 -2.60354,-6.83201c-0.48504,-1.51742 0.11001,-3.60406 -0.3867,-4.76987c-1.80514,-0.06341 -3.76196,0.86607 -5.45209,0.15707c-0.89674,-1.41655 2.41019,0.08935 3.31026,-0.49284c2.20851,-0.1931 4.45035,-1.27389 5.24874,-3.14437c0.30002,-0.83437 1.72847,-1.57507 1.00841,-0.12249c-0.53671,1.81428 -3.16525,2.54777 -3.34026,4.43411c0.04834,1.78114 0.19001,3.57524 0.47337,5.34197c0.25835,1.7307 1.30844,3.19336 2.20517,4.71367c1.45511,2.21489 3.19525,4.55948 6.05214,5.54083c1.95515,1.07502 4.13366,1.72349 6.23382,2.53336c1.99016,0.42223 4.11532,1.03179 6.13381,0.39052c2.96357,-0.86031 5.79712,-2.03044 8.33899,-3.60983c2.02016,-0.8848 3.46027,-2.3345 4.50535,-4.0407c1.07508,-1.59524 2.01016,-3.28127 2.64187,-5.04944c0.58171,-2.07223 0.43503,-4.25398 0.43837,-6.35935c-0.12501,-1.59236 -1.02508,-2.94262 -2.44686,-3.91533c-0.75173,-0.44096 -2.1035,-2.97433 -0.50504,-1.57651c1.20509,1.44393 2.76188,3.00315 5.04706,2.72358c1.96515,0.09079 4.06198,0.1124 5.83712,-0.73205c1.43345,0.72485 -1.81514,1.37332 -2.59854,1.29262c-1.52845,0.3617 -4.18199,-0.39197 -5.00373,0.48996c0.57004,2.22066 0.39336,4.52201 0.21168,6.77149c-0.51837,3.30865 -2.63854,6.21957 -4.66537,8.97774c-1.89848,1.65721 -4.35367,2.73223 -6.65552,3.90668c-2.27351,0.88769 -4.59203,1.91371 -7.10889,2.1169c-0.34503,0.00721 -0.69339,-0.01585 -1.03341,-0.07493zM272.04616,156.09522c0.08001,-1.38917 3.22525,0.98568 3.34526,-1.08079c0.69339,-1.25804 1.12842,-4.54651 -1.06508,-4.49896c-0.62505,0.29397 -2.96857,1.54625 -1.78847,0.09223c1.77181,-1.59236 4.6587,-0.40638 4.08365,1.83157c0.05167,1.61686 -0.32003,4.29144 -2.82855,4.05944c-0.60505,0 -1.2551,-0.07061 -1.7468,-0.40349zM206.73604,154.73775c-1.30177,-1.5131 -1.99682,-3.72799 -0.65005,-5.35782c0.72506,-0.89201 3.68362,0.20175 2.29351,0.67873c-2.35185,-1.03323 -2.90189,2.20048 -1.7568,3.40232c0.31502,1.21048 1.79681,0.63262 2.26018,0.48275c0.4467,0.88336 -1.60679,1.39349 -2.14683,0.79402zM243.37058,147.16936c-2.23184,-1.59236 2.20851,-4.01764 3.00524,-1.65577c0.73172,1.47996 -1.78514,2.97288 -3.00524,1.65577zM236.87007,145.87242c-2.23184,-1.59236 2.20851,-4.01764 3.00524,-1.65577c0.73172,1.47996 -1.78514,2.97288 -3.00524,1.65577zM250.13778,142.57098c-0.96008,-0.87328 -4.33201,-1.33729 -3.8753,-2.31c1.66846,0.11817 4.35701,1.15284 4.7037,2.37197c-0.24502,0.14843 -0.60338,0.08358 -0.8284,-0.06197zM232.35805,141.66744c1.2151,-1.52319 3.54528,-1.88345 5.39376,-2.55354c0.8034,1.39782 -2.47353,1.16004 -3.25859,2.12411c-0.62338,0.31559 -1.39844,0.72052 -2.13517,0.42943zM242.68053,120.74773c0.10501,-2.10105 4.6837,-0.91507 3.90364,-3.44987c-0.48337,-0.95542 -0.55338,-2.26533 0.97174,-2.28983c1.3251,-1.65577 -2.05016,-2.79275 -1.89015,-4.34909c-2.0685,-0.50149 -2.77688,2.25092 -0.58005,2.59533c0.61505,1.24507 -1.78681,2.45122 -0.27335,3.70061c-0.33336,1.64712 -5.15707,1.35603 -3.13691,3.84616c0.25835,0.28965 0.78173,0.25074 1.00508,-0.05332z" fill="#000000"/><path d="M240.40201,182.41022c-2.32518,-0.2421 -4.51369,-0.93668 -6.59552,-1.84022c-1.99349,-0.67873 -3.80863,-1.60821 -5.57544,-2.65009c-1.81514,-0.9583 -2.38352,-2.8331 -3.71529,-4.18048c-1.34511,-2.10537 -2.5852,-4.36782 -2.60354,-6.83201c-0.48504,-1.51742 0.11001,-3.60406 -0.3867,-4.76987c-1.80514,-0.06341 -3.76196,0.86607 -5.45209,0.15707c-0.89674,-1.41655 2.41019,0.08935 3.31026,-0.49284c2.20851,-0.1931 4.45035,-1.27389 5.24874,-3.14437c0.30002,-0.83437 1.72847,-1.57507 1.00841,-0.12249c-0.53671,1.81428 -3.16525,2.54777 -3.34026,4.43411c0.04834,1.78114 0.19001,3.57524 0.47337,5.34197c0.25835,1.7307 1.30844,3.19336 2.20517,4.71367c1.45511,2.21489 3.19525,4.55948 6.05214,5.54083c1.95515,1.07502 4.13366,1.72349 6.23382,2.53336c1.99016,0.42223 4.11532,1.03179 6.13381,0.39052c2.96357,-0.86031 5.79712,-2.03044 8.33899,-3.60983c2.02016,-0.8848 3.46027,-2.3345 4.50535,-4.0407c1.07508,-1.59524 2.01016,-3.28127 2.64187,-5.04944c0.58171,-2.07223 0.43503,-4.25398 0.43837,-6.35935c-0.12501,-1.59236 -1.02508,-2.94262 -2.44686,-3.91533c-0.75173,-0.44096 -2.1035,-2.97433 -0.50504,-1.57651c1.20509,1.44393 2.76188,3.00315 5.04706,2.72358c1.96515,0.09079 4.06198,0.1124 5.83712,-0.73205c1.43345,0.72485 -1.81514,1.37332 -2.59854,1.29262c-1.52845,0.3617 -4.18199,-0.39197 -5.00373,0.48996c0.57004,2.22066 0.39336,4.52201 0.21168,6.77149c-0.51837,3.30865 -2.63854,6.21957 -4.66537,8.97774c-1.89848,1.65721 -4.35367,2.73223 -6.65552,3.90668c-2.27351,0.88769 -4.59203,1.91371 -7.10889,2.1169c-0.34503,0.00721 -0.69339,-0.01585 -1.03341,-0.07493z" fill="#000000"/><path d="M272.04616,156.09522c0.08001,-1.38917 3.22525,0.98568 3.34526,-1.08079c0.69339,-1.25804 1.12842,-4.54651 -1.06508,-4.49896c-0.62505,0.29397 -2.96857,1.54625 -1.78847,0.09223c1.77181,-1.59236 4.6587,-0.40638 4.08365,1.83157c0.05167,1.61686 -0.32003,4.29144 -2.82855,4.05944c-0.60505,0 -1.2551,-0.07061 -1.7468,-0.40349z" fill="#000000"/><path d="M206.73604,154.73775c-1.30177,-1.5131 -1.99682,-3.72799 -0.65005,-5.35782c0.72506,-0.89201 3.68362,0.20175 2.29351,0.67873c-2.35185,-1.03323 -2.90189,2.20048 -1.7568,3.40232c0.31502,1.21048 1.79681,0.63262 2.26018,0.48275c0.4467,0.88336 -1.60679,1.39349 -2.14683,0.79402z" fill="#000000"/><path d="M243.37058,147.16936c-2.23184,-1.59236 2.20851,-4.01764 3.00524,-1.65577c0.73172,1.47996 -1.78514,2.97288 -3.00524,1.65577z" fill="#000000"/><path d="M236.87007,145.87242c-2.23184,-1.59236 2.20851,-4.01764 3.00524,-1.65577c0.73172,1.47996 -1.78514,2.97288 -3.00524,1.65577z" fill="#000000"/><path d="M250.13778,142.57098c-0.96008,-0.87328 -4.33201,-1.33729 -3.8753,-2.31c1.66846,0.11817 4.35701,1.15284 4.7037,2.37197c-0.24502,0.14843 -0.60338,0.08358 -0.8284,-0.06197z" fill="#000000"/><path d="M232.35805,141.66744c1.2151,-1.52319 3.54528,-1.88345 5.39376,-2.55354c0.8034,1.39782 -2.47353,1.16004 -3.25859,2.12411c-0.62338,0.31559 -1.39844,0.72052 -2.13517,0.42943z" fill="#000000"/><path d="M241.67545,120.80105c-2.02016,-2.49013 2.80355,-2.19904 3.13691,-3.84616c-1.51345,-1.24939 0.8884,-2.45555 0.27335,-3.70061c-2.19684,-0.34441 -1.48845,-3.09681 0.58005,-2.59533c-0.16001,1.55633 3.21525,2.69332 1.89015,4.34909c-1.52512,0.0245 -1.45511,1.33441 -0.97174,2.28983c0.78006,2.53481 -3.79863,1.34882 -3.90364,3.44987c-0.22335,0.30406 -0.74673,0.34297 -1.00508,0.05332z" fill="#947968"/></g></g></g></svg>