<svg version="1.0" width="109.558" height="140" xmlns="http://www.w3.org/2000/svg"><defs><linearGradient id="prefix__a" y2="546.78" gradientUnits="userSpaceOnUse" y1="270" x2="445.02" x1="450.18"><stop offset="0" stop-color="#d19b75"/><stop offset="1" stop-color="#e8cdba" stop-opacity="0"/></linearGradient></defs><path d="M39.512 72.037c-7.95 3.058-19.052 7.135-19.084 22.905.484 11.398 7.237 11.527 13.76 13.211C21.97 105.59 2.125 103.378.087 118.425c-1.683 12.428 21.54 20.353 26.892 20.888 9.857.983 14.904-1.114 14.258-9.834 12.913 5.017 21.116 2.554 29.625-.26.206 10.104 6.938 9.775 12.832 9.58 16.222-.525 24.167-8.461 25.691-17.24 2.258-12.985-18.085-16.292-30.797-13.406 10.028-.955 14.603-3.964 14.68-15.78.084-12.55-10.402-19.906-23.482-22.172-12.617-2.186-24.195-.503-30.274 1.836z" fill-rule="evenodd"/><path d="M29.003 107.109c1.411 5.387 3.71 9.758 1.728 19.023 19.465 11.39 35.467 8.156 50.347.192-1.958-7.748 2.127-13.229 3.843-19.6-20.852 4.829-39.161 4.256-55.918.385z" fill-rule="evenodd"/><path d="M39.249 72.964c-7.808 3.005-17.99 6.648-18.022 22.137.475 11.193 7.827 11.5 13.875 13.875-12-2.52-32.21-5.05-34.212 9.726-1.653 12.207 21.028 19.481 26.283 20.006 9.681.966 14.51-1.347 13.875-9.91 12.682 4.925 21.376 2.76 29.733 0 1.04 8.878 4.408 11.179 10.17 10.596 18.908-1.913 26.803-9.102 27.822-17.792 1.667-14.208-21.364-15.28-34.028-12.626 9.489-1.39 18.246-3.883 17.84-15.857-.474-13.93-10.758-19.911-23.604-22.137-12.39-2.147-23.76-.315-29.732 1.982z" fill="#e8cdba" fill-rule="evenodd"/><path d="M30.286 107.772c1.346 5.14 3.54 9.31 1.65 18.15 18.57 10.865 33.837 7.782 48.035.183-1.87-7.392 2.028-12.623 3.667-18.7-19.895 4.607-37.364 4.06-53.352.367z" fill="#fff" fill-rule="evenodd"/><path d="M33.742 73.767c-9.17 2.868-13.08 9.826-17.936 16.05C19.5 96.52 27.71 98.21 35.819 100.013l-4.343 10.196c24.87 7.38 38.096 3.782 49.07-.745l-3.397-10.4c8.845.075 15.283-2.905 20.603-8.87C91.593 83.635 90 75.08 76.604 71.69c-11.544-5.467-28.868-4.387-42.862 2.077z" fill-rule="evenodd"/><path d="M34.687 74.037c-8.904 2.785-12.702 9.543-17.418 15.584 2.314 5.069 8.314 6.849 16.926 9.328 3.572 1.029-1.17-8.858 2.767-11.356l-4.476 21.828c24.147 7.165 36.276 4.03 46.936-.367l-3.043-21.782c3 3.148.21 12.21 3.866 11.465 6.83-1.393 14.01-5.853 16.594-8.75-5.98-6.368-7.528-14.673-20.535-17.967-11.21-5.307-28.032-4.26-41.617 2.017z" fill="#87cdde" fill-rule="evenodd"/><g fill-rule="evenodd"><path d="M39.125 137.796c4.234-3.796 3.663-10.598-3.02-18.09-4.304-4.627-10.528-15.416-15.143-11.834-2.785 2.16-1.365 3.976-.557 5.199-.997-.894-2.253-2.73-4.759-.57-2.628 2.265-1.34 3.761-.466 4.8-.862-.678-2.313-1.957-4.57.012-2.228 1.942-.484 4.277.227 4.876-.824-.282-1.506-1.342-3.29.777-1.754 2.087-3.01 2.85 3.776 9.116 7.546 6.965 22.755 10.24 27.802 5.714z"/><path d="M38.671 137.503c3.937-3.59 3.526-10.145-3.049-17.473-4-4.374-9.724-15.203-14.424-11.744-3.136 2.31.321 5.11 1.067 7.013-1.759-1.201-3.834-5.221-6.68-2.167-2.298 2.466.632 4.625 1.831 6.716-1.996-1.326-3.72-4.856-6.495-2.167-2.686 2.605.626 4.446 2.246 6.36-2.399-1.107-3.319-2.897-5.11-.962-2.068 2.23-2.345 2.92 3.964 8.844 7.01 6.587 21.96 9.857 26.65 5.58z" fill="#e8cdba"/></g><g fill-rule="evenodd"><path d="M72.927 137.917c-4.234-3.796-3.663-10.599 3.021-18.091 4.303-4.627 10.527-15.415 15.142-11.834 2.785 2.16 1.366 3.977.557 5.2.997-.894 2.254-2.73 4.759-.57 2.628 2.264 1.34 3.76.466 4.8.862-.678 2.313-1.957 4.57.011 2.229 1.943.484 4.278-.227 4.876.824-.281 1.506-1.341 3.29.777 1.754 2.088 3.011 2.85-3.776 9.116-7.546 6.966-22.755 10.24-27.802 5.715z"/><path d="M73.381 137.624c-3.936-3.59-3.526-10.145 3.049-17.473 4-4.375 9.724-15.203 14.424-11.744 3.136 2.309-.321 5.11-1.066 7.012 1.758-1.2 3.833-5.22 6.68-2.166 2.297 2.466-.633 4.624-1.832 6.716 1.996-1.327 3.72-4.857 6.496-2.167 2.685 2.605-.627 4.446-2.246 6.359 2.398-1.106 3.318-2.896 5.11-.962 2.067 2.23 2.345 2.92-3.965 8.845-7.01 6.587-21.96 9.857-26.65 5.58z" fill="#e8cdba"/></g><path d="M44.037 98.12c3.06-.034 7.745.291 7.634 3.492-.11 3.19-1.22 3.039-2.872 3.39 1.716.242 2.812.129 2.658 3.39-.145 3.058-3.095 2.568-4.232 2.544 1.98.821 2.368 1.693 2.349 3.261-.032 2.198-3.594 3.148-9.57 2.569-4.874-.474-9.982-2.474-10.022-12.57-.026-6.106 2.557-10.665 9.336-11.894 3.421-.62 7.923-.321 9.048 1 1.826 2.144-.666 4.197-4.329 4.818z" fill-rule="evenodd"/><path d="M41.774 98.502c3.334-.033 9.253-.212 9.465 2.853.319 4.586-4.1 3.058-8.169 3.5 4.735.884 8.502-.442 7.909 3.499-.547 3.643-5.296 1.518-8.167 1.946 2.758.682 6.331.938 6.351 3.499.02 2.42-4.01 3.207-9.334 2.463-4.519-.63-9.296-2.37-9.334-12.055-.023-5.86 2.464-10.472 8.817-11.41 2.763-.408 5.879-.984 8.426.649 2.71 1.738-1.707 4.214-5.964 5.056z" fill="#e8cdba" fill-rule="evenodd"/><path d="M69.38 97.86c-3.061-.034-7.745.291-7.634 3.493.109 3.189 1.217 3.038 2.87 3.39-1.714.241-2.81.128-2.658 3.389.145 3.06 3.096 2.569 4.234 2.547-1.982.818-2.37 1.69-2.349 3.258.03 2.199 3.592 3.148 9.568 2.57 4.876-.474 9.982-2.472 10.024-12.57.024-6.107-2.557-10.666-9.336-11.895-3.423-.62-7.923-.32-9.049 1.001-1.827 2.143.666 4.199 4.33 4.817z" fill-rule="evenodd"/><path d="M71.64 98.243c-3.331-.032-9.252-.212-9.462 2.852-.321 4.587 4.1 3.058 8.167 3.5-4.734.887-8.5-.44-7.907 3.501.547 3.643 5.296 1.516 8.166 1.944-2.759.682-6.333.938-6.353 3.501-.017 2.418 4.01 3.205 9.334 2.462 4.522-.63 9.297-2.37 9.334-12.056.024-5.857-2.463-10.471-8.814-11.409-2.765-.408-5.881-.985-8.426.648-2.71 1.739 1.706 4.214 5.962 5.057z" fill="#e8cdba" fill-rule="evenodd"/><path d="M51.5 81.953c-8.716-1.111-16.127-6.148-21.07-12.265-5.146-6.325-7.826-13.977-8.403-21.652-1.07-1.475-3.722-1.68-3.995-3.755-.622-1.53-.44-3.33.03-4.895.321-2.178 3.315-2.616 4.752-3.279 2.085-9.277 7.499-18.367 16.59-23.897 4.501-2.856 9.98-4.562 15.58-4.618 1.169-.29 3.594.457 3.716-1.005-.405-1.018-.23-2.197.51-2.85-1.732-.862-2.244-3.035.073-3.63 2.63-.74 2.622 2.552 4.077 3.716.61 1.76-2.537 2.002-1.24 3.894 1.008 1.17 3.927 1.081 5.51 2.126 8.851 3.663 15.27 10.785 18.69 18.612a39.84 39.84 0 012.809 9.151c2.14-.048 5.264.58 5.214 2.9.15 2.363-.15 4.985-1.932 6.883-1.002 1.13-3.404.607-2.924 2.443-1.15 9.104-5.239 18.187-12.93 24.655-5.328 4.607-12.593 7.787-20.247 7.68a47.409 47.409 0 01-4.81-.214z" fill="#e8cdba"/><path d="M417.99 824.32c-52.29-7.71-96.75-42.66-126.41-85.11-30.87-43.89-46.95-96.99-50.41-150.25-6.42-10.24-22.33-11.66-23.97-26.06-3.73-10.62-2.64-23.11.18-33.97 1.93-15.11 19.89-18.15 28.51-22.75 12.51-64.38 44.99-127.46 99.54-165.83 27-19.82 59.87-31.66 93.47-32.05 7.01-2.01 21.56 3.17 22.29-6.97-2.43-7.07-1.38-15.25 3.06-19.78-10.39-5.98-13.46-21.06.44-25.19 15.78-5.13 15.73 17.71 24.46 25.79 3.66 12.21-15.22 13.89-7.44 27.02 6.05 8.12 23.56 7.5 33.06 14.75 53.1 25.42 91.61 74.84 112.13 129.16 7.88 20.48 13.48 41.82 16.85 63.5 12.84-.33 31.58 4.03 31.28 20.12.9 16.4-.9 34.6-11.59 47.77-6.01 7.84-20.42 4.21-17.54 16.95-6.9 63.18-31.43 126.21-77.58 171.09-31.96 31.97-75.55 54.04-121.47 53.29-9.64.1-19.28-.45-28.86-1.48z" fill="url(#prefix__a)" transform="matrix(.16668 0 0 .1441 -18.171 -36.836)"/><path d="M51.5 81.953c-8.716-1.111-16.127-6.148-21.07-12.265-5.146-6.325-7.826-13.977-8.403-21.652-1.07-1.475-3.722-1.68-3.995-3.755-.622-1.53-.44-3.33.03-4.895.321-2.178 3.315-2.616 4.752-3.279 2.085-9.277 7.499-18.367 16.59-23.897 4.501-2.856 9.98-4.562 15.58-4.618 1.169-.29 3.594.457 3.716-1.005-.405-1.018-.23-2.197.51-2.85-1.732-.862-2.244-3.035.073-3.63 2.63-.74 2.622 2.552 4.077 3.716.61 1.76-2.537 2.002-1.24 3.894 1.008 1.17 3.927 1.081 5.51 2.126 8.851 3.663 15.27 10.785 18.69 18.612a39.84 39.84 0 012.809 9.151c2.14-.048 5.264.58 5.214 2.9.15 2.363-.15 4.985-1.932 6.883-1.002 1.13-3.404.607-2.924 2.443-1.15 9.104-5.239 18.187-12.93 24.655-5.328 4.607-12.593 7.787-20.247 7.68a47.409 47.409 0 01-4.81-.214zm8.683-.688c8.803-1.168 16.235-6.375 21.037-12.668 4.522-5.927 6.952-12.916 7.7-19.951.352-1.392 3.42-.86 3.767-2.712.826-1.545.947-3.299 1.054-4.969.027-2.05-2.38-2.794-4.369-2.715-1.848-.356-.963-2.405-1.635-3.552-2.305-8.881-7.91-17.454-16.836-22.54A31.816 31.816 0 0062.095 8.8c-.913 1.287-3.534.626-3.922 2.205-2.053 1.72-3.839-1.403-2.265-2.814-1.334-.182-2.834.156-4.219.285C43.417 9.54 36.263 14.15 31.474 19.93c-3.55 4.252-5.968 9.166-7.439 14.233-.09 1.661-.745 3.427-2.995 3.215-2.663.977-2.993 3.935-2.505 6.091.093 2.469 3.534 2.66 4.377 4.571-.113 2.643.572 5.286 1.223 7.865 2.356 8.426 7.77 16.47 16.135 21.436 5.754 3.45 12.983 4.995 19.913 3.925zm-5.002-8.855c-2.325-.242-4.514-.936-6.595-1.84-1.994-.679-3.809-1.608-5.576-2.65-1.815-.958-2.383-2.833-3.715-4.18-1.345-2.106-2.585-4.368-2.604-6.833-.485-1.517.11-3.604-.386-4.77-1.805-.063-3.762.867-5.452.158-.897-1.417 2.41.089 3.31-.493 2.208-.193 4.45-1.274 5.249-3.145.3-.834 1.728-1.575 1.008-.122-.537 1.814-3.165 2.548-3.34 4.434.048 1.781.19 3.575.473 5.342.258 1.73 1.309 3.193 2.205 4.714 1.455 2.215 3.196 4.56 6.052 5.54 1.956 1.076 4.134 1.724 6.234 2.534 1.99.422 4.116 1.032 6.134.39 2.964-.86 5.797-2.03 8.34-3.61 2.02-.884 3.46-2.334 4.504-4.04 1.076-1.595 2.01-3.281 2.642-5.05.582-2.072.435-4.254.439-6.359-.125-1.592-1.025-2.943-2.447-3.915-.752-.441-2.104-2.975-.505-1.577 1.205 1.444 2.762 3.003 5.047 2.724 1.965.09 4.062.112 5.837-.732 1.433.725-1.815 1.373-2.599 1.292-1.528.362-4.182-.392-5.003.49.57 2.221.393 4.522.211 6.772-.518 3.308-2.638 6.22-4.665 8.978-1.898 1.657-4.354 2.732-6.656 3.906-2.273.888-4.592 1.914-7.108 2.117a5.396 5.396 0 01-1.034-.075zm31.644-26.315c.08-1.389 3.226.986 3.346-1.08.693-1.259 1.128-4.547-1.065-4.5-.626.294-2.97 1.547-1.789.093 1.772-1.593 4.659-.407 4.084 1.831.051 1.617-.32 4.292-2.829 4.06-.605 0-1.255-.07-1.747-.404zm-65.31-1.357c-1.302-1.513-1.997-3.728-.65-5.358.725-.892 3.684.202 2.294.679-2.352-1.034-2.902 2.2-1.757 3.402.315 1.21 1.797.633 2.26.483.447.883-1.607 1.393-2.147.794zm36.635-7.569c-2.232-1.592 2.208-4.017 3.005-1.655.732 1.48-1.785 2.972-3.005 1.655zm-6.5-1.297c-2.233-1.592 2.208-4.017 3.004-1.655.732 1.48-1.785 2.973-3.005 1.655zm13.267-3.301c-.96-.873-4.332-1.337-3.875-2.31 1.668.118 4.357 1.153 4.703 2.372-.245.148-.603.084-.828-.062zm-17.78-.904c1.215-1.523 3.545-1.883 5.394-2.553.803 1.398-2.474 1.16-3.259 2.124-.623.316-1.398.72-2.135.43zm10.323-20.92c.105-2.1 4.683-.914 3.903-3.45-.483-.955-.553-2.264.972-2.289 1.325-1.656-2.05-2.793-1.89-4.35-2.069-.5-2.777 2.252-.58 2.596.615 1.245-1.787 2.451-.273 3.7-.334 1.648-5.158 1.357-3.137 3.847.258.29.781.25 1.005-.053z"/><path d="M55.181 72.41c-2.325-.242-4.514-.936-6.595-1.84-1.994-.679-3.809-1.608-5.576-2.65-1.815-.958-2.383-2.833-3.715-4.18-1.345-2.106-2.585-4.368-2.604-6.833-.485-1.517.11-3.604-.386-4.77-1.805-.063-3.762.867-5.452.158-.897-1.417 2.41.089 3.31-.493 2.208-.193 4.45-1.274 5.249-3.145.3-.834 1.728-1.575 1.008-.122-.537 1.814-3.165 2.548-3.34 4.434.048 1.781.19 3.575.473 5.342.258 1.73 1.309 3.193 2.205 4.714 1.455 2.215 3.196 4.56 6.052 5.54 1.956 1.076 4.134 1.724 6.234 2.534 1.99.422 4.116 1.032 6.134.39 2.964-.86 5.797-2.03 8.34-3.61 2.02-.884 3.46-2.334 4.504-4.04 1.076-1.595 2.01-3.281 2.642-5.05.582-2.072.435-4.254.439-6.359-.125-1.592-1.025-2.943-2.447-3.915-.752-.441-2.104-2.975-.505-1.577 1.205 1.444 2.762 3.003 5.047 2.724 1.965.09 4.062.112 5.837-.732 1.433.725-1.815 1.373-2.599 1.292-1.528.362-4.182-.392-5.003.49.57 2.221.393 4.522.211 6.772-.518 3.308-2.638 6.22-4.665 8.978-1.898 1.657-4.354 2.732-6.656 3.906-2.273.888-4.592 1.914-7.108 2.117a5.396 5.396 0 01-1.034-.075zM86.825 46.095c.08-1.389 3.226.986 3.346-1.08.693-1.259 1.128-4.547-1.065-4.5-.626.294-2.97 1.547-1.789.093 1.772-1.593 4.659-.407 4.084 1.831.051 1.617-.32 4.292-2.829 4.06-.605 0-1.255-.07-1.747-.404zM21.515 44.738c-1.302-1.513-1.997-3.728-.65-5.358.725-.892 3.684.202 2.294.679-2.352-1.034-2.902 2.2-1.757 3.402.315 1.21 1.797.633 2.26.483.447.883-1.607 1.393-2.147.794zM58.15 37.17c-2.232-1.593 2.208-4.018 3.005-1.656.732 1.48-1.785 2.972-3.005 1.655zM51.65 35.872c-2.233-1.592 2.208-4.017 3.004-1.655.732 1.48-1.785 2.973-3.005 1.655zM64.917 32.571c-.96-.873-4.332-1.337-3.875-2.31 1.668.118 4.357 1.153 4.703 2.372-.245.148-.603.084-.828-.062zM47.137 31.667c1.215-1.523 3.545-1.883 5.394-2.553.803 1.398-2.474 1.16-3.259 2.124-.623.316-1.398.72-2.135.43z"/><path d="M57.46 10.748c.105-2.101 4.683-.915 3.903-3.45-.483-.956-.553-2.265.972-2.29 1.325-1.656-2.05-2.793-1.89-4.35-2.069-.5-2.777 2.252-.58 2.596.615 1.245-1.787 2.451-.273 3.7-.334 1.648-5.158 1.357-3.137 3.847.258.29.781.25 1.005-.053z" fill="#947968"/></svg>