<svg version="1.1" xmlns="http://www.w3.org/2000/svg" xmlns:xlink="http://www.w3.org/1999/xlink" width="140.47468" height="86.01965" viewBox="0,0,140.47468,86.01965"><g transform="translate(-169.79316,-136.74018)"><g data-paper-data="{&quot;isPaintingLayer&quot;:true}" stroke-dasharray="" stroke-dashoffset="0" style="mix-blend-mode: normal"><path d="M278.80857,205.5474c0,0 -0.67407,2.458 -1.37633,3.49434c-3.20598,4.73118 -7.46509,9.02114 -12.48754,11.74829c-1.83965,0.99892 -4.50087,2.84347 -6.1001,1.49269c-1.945,-1.64283 -0.72119,-5.41163 0.54897,-7.61811c3.00065,-5.2126 14.91163,-10.15974 14.91163,-10.15974c3.81745,-1.2494 1.01502,0.31728 4.50337,1.04253z" data-paper-data="{&quot;index&quot;:null}" fill="#97dff1" fill-rule="evenodd" stroke="none" stroke-width="1" stroke-linecap="butt" stroke-linejoin="miter" stroke-miterlimit="10"/><path d="M272.90749,204.03772c0,0 -6.89348,8.48284 -11.18145,11.79312c-1.40476,1.08447 -3.0871,3.37799 -4.66494,2.56572c-1.18326,-0.60915 -0.70824,-2.65648 -0.46649,-3.96521c0.45363,-2.45571 1.44738,-6.01175 3.47573,-6.63676c2.33087,-0.71824 12.89614,-3.57995 12.83716,-3.75687z" data-paper-data="{&quot;index&quot;:null}" fill="#6adff1" fill-rule="evenodd" stroke="none" stroke-width="1" stroke-linecap="butt" stroke-linejoin="miter" stroke-miterlimit="10"/><path d="M309.77495,179.44427c0,0 -1.25567,-0.12001 -1.86598,0c-0.47143,0.09269 -1.13338,0.10915 -1.33409,0.54571c-0.68185,1.48296 1.41319,2.46663 1.10084,2.95299c-0.72022,1.12149 -4.89819,1.37585 -4.89819,1.63274c0.28857,-0.45409 -5.84469,8.69288 -8.7378,10.83833c-5.70766,4.23262 -8.56062,9.1955 -16.33038,13.13481c-1.40414,0.7119 -1.71037,-1.76422 -2.84516,-2.01354c-5.35425,-1.17645 -10.68864,3.04876 -16.17037,2.99785c-10.10496,-0.09384 -20.37932,-2.17564 -29.70048,-6.07882c-9.12714,-3.82193 -24.64611,-16.54616 -24.64611,-16.54616c-2.219,-4.22301 -2.00795,-9.10028 0,-14.46131c0,0 16.10648,-18.27098 26.82342,-23.32474c13.10431,-6.17952 29.92914,-7.89951 42.87059,-7.16233c7.62538,0.43436 10.98908,2.66474 17.30718,6.82077c10.81757,7.11577 9.35924,15.87907 13.21505,22.66985c2.05013,3.61063 3.97833,4.93625 4.97823,5.89464c0.50827,0.48715 0.23325,2.09922 0.23325,2.09922z" data-paper-data="{&quot;index&quot;:null}" fill="#1d51c7" fill-rule="nonzero" stroke="#000000" stroke-width="1" stroke-linecap="butt" stroke-linejoin="miter" stroke-miterlimit="10"/><path d="M204.34724,172.71504l-4.10868,1.61197c0,0 7.28999,-10.12164 8.77362,-15.17525c2.06241,-7.02504 7.76074,-13.30295 15.09275,-17.03875c3.80571,-1.93909 8.05072,-3.02989 12.27034,-3.69193c8.5801,-1.3462 17.43391,-1.58317 26.05051,-0.49479c5.98642,0.75615 17.44476,4.83329 17.44476,4.83329c0,0 -17.1551,-1.23722 -25.40302,0.04168c-8.91279,1.382 -14.09735,2.20485 -24.45531,6.94487c-8.12296,3.71722 -24.77931,21.16703 -25.66498,22.96891z" data-paper-data="{&quot;index&quot;:null}" fill="#ffff00" fill-rule="nonzero" stroke="#000000" stroke-width="1" stroke-linecap="butt" stroke-linejoin="miter" stroke-miterlimit="10"/><path d="M205.35262,187.44706c0,0 -3.81003,-2.28809 -5.90357,-2.17162c-1.56226,0.08692 -4.19845,2.09925 -4.19845,2.09925c1.30653,-4.7356 2.74768,-9.45129 -0.21886,-14.81995c3.05186,2.22771 6.25002,1.2369 9.46187,-0.05502c-1.60492,5.50837 -0.9484,11.22639 0.85901,14.94734z" data-paper-data="{&quot;index&quot;:null}" fill="#6e8823" fill-rule="evenodd" stroke="#000000" stroke-width="1" stroke-linecap="butt" stroke-linejoin="miter" stroke-miterlimit="10"/><path d="M195.18073,187.268l-6.2278,6.87084c-0.51781,-0.47071 -10.20546,10.99024 -12.12885,10.72939c-1.07635,-0.146 0.71172,-4.8949 1.07581,-6.49293c0.67096,-2.94482 0.8164,-4.80535 1.43012,-7.16078c1.67713,-6.43666 0.78463,-12.20823 -1.14597,-17.84885c-1.51866,-4.43708 -4.50848,-9.01702 -7.89089,-11.64819c-0.56578,-0.44009 0.6896,-1.53328 1.39948,-1.63271c4.1878,-0.58652 7.23238,1.23068 10.49612,2.79894c4.89512,2.35214 13.23326,10.22418 13.11424,9.66795c2.54321,5.11479 1.12808,9.75963 -0.12227,14.71634z" data-paper-data="{&quot;index&quot;:null}" fill="#12317d" fill-rule="evenodd" stroke="#000000" stroke-width="1" stroke-linecap="butt" stroke-linejoin="miter" stroke-miterlimit="10"/><path d="M175.89109,162.18398c4.26839,1.07181 7.8447,4.14478 11.19586,6.9974c1.41135,1.2014 2.91144,2.48944 3.66208,4.18407c1.6883,3.8115 4.13972,8.59114 1.16624,15.7149c-2.14727,5.14434 -12.5692,14.19305 -12.0303,12.45036c1.29489,-4.18733 3.38468,-7.81562 4.24337,-12.06876c1.41742,-7.02064 -0.23082,-11.65438 -2.40608,-16.78186c-1.4679,-3.46012 -5.55204,-7.22157 -9.32989,-10.26285c-0.91046,-0.73294 2.36508,-0.5179 3.49871,-0.23325z" data-paper-data="{&quot;index&quot;:null}" fill="#599ed0" fill-rule="evenodd" stroke="#000000" stroke-width="1" stroke-linecap="butt" stroke-linejoin="miter" stroke-miterlimit="10"/><path d="M227.19621,202.64567c9.76687,4.27669 31.24073,6.86693 31.24073,6.86693c0,0 -3.40418,0.48755 -5.10781,0.72028c-9.40218,1.28454 -18.81311,4.95946 -28.22291,3.73195c-8.64993,-1.12835 -17.04159,-6.40369 -22.19341,-15.05317c-1.98852,-3.33855 -5.4924,-7.63299 -3.46377,-10.83726c1.03565,-1.63582 5.75729,-0.76811 5.75729,-0.76811c0,0 13.80319,11.7546 21.98987,15.33937z" data-paper-data="{&quot;index&quot;:null}" fill="#97dff1" fill-rule="evenodd" stroke="#000000" stroke-width="1" stroke-linecap="butt" stroke-linejoin="miter" stroke-miterlimit="10"/><path d="M309.77495,179.44427c0,0 -1.25567,-0.12001 -1.86598,0c-0.47143,0.09269 -1.13338,0.10915 -1.33409,0.54571c-0.68185,1.48296 1.41319,2.46663 1.10084,2.95299c-0.72022,1.12149 -4.89819,1.37585 -4.89819,1.63274c-40.50672,3.33831 -26.27617,-41.18682 -11.42911,-35.79514c10.81757,7.11577 9.35924,15.87907 13.21505,22.66985c2.05013,3.61063 3.97833,4.93625 4.97823,5.89464c0.50827,0.48715 0.23325,2.09922 0.23325,2.09922z" data-paper-data="{&quot;index&quot;:null}" fill-opacity="0.68944" fill="#0a0000" fill-rule="evenodd" stroke="none" stroke-width="1" stroke-linecap="butt" stroke-linejoin="miter" stroke-miterlimit="10"/><path d="M285.284,157.05254c0.2488,-1.3143 1.94177,-2.13975 3.26546,-2.33247c2.60341,-0.37904 7.27139,-0.0581 7.46391,2.56572c0.19979,2.72294 2.55468,1.5281 3.00344,7.17314c0.14915,1.87618 -1.66934,3.11381 -3.17812,3.24797c-1.30848,0.11635 -6.47715,-5.14913 -3.20998,-2.28623c2.68797,2.35534 -3.0648,-2.2772 -4.3125,-3.70319c-1.22125,-1.39574 -3.37716,-2.84268 -3.03221,-4.66494z" data-paper-data="{&quot;index&quot;:null}" fill-opacity="0.69565" fill="#2457a3" fill-rule="evenodd" stroke="none" stroke-width="1" stroke-linecap="butt" stroke-linejoin="miter" stroke-miterlimit="10"/><path d="M289.83211,156.11953c0.89702,-0.00004 1.75731,0.34399 2.39161,0.9564c0.6343,0.61241 0.99064,1.44303 0.99063,2.30911c0.00001,0.86608 -0.35634,1.69669 -0.99064,2.30909c-0.6343,0.6124 -1.49459,0.95642 -2.3916,0.95638c-1.86771,-0.00023 -3.38166,-1.46217 -3.38165,-3.26548c-0.00003,-1.80332 1.51392,-3.26528 3.38165,-3.26551z" data-paper-data="{&quot;index&quot;:null}" fill="#aa4400" fill-rule="nonzero" stroke="#000000" stroke-width="3.5" stroke-linecap="round" stroke-linejoin="round" stroke-miterlimit="4"/><path d="M293.6809,195.77157c-1.16624,0 -4.61573,-4.12084 -6.74978,-6.35623c-1.94963,-2.04224 -6.10023,-1.50754 -10.13444,-4.48103c-4.59003,-3.38317 -2.21137,-11.29492 -1.97387,-16.99211c0.22692,-5.44311 -0.05638,-12.16084 3.23053,-16.0211c0.87012,-1.02188 3.12726,-0.34869 3.9652,0.69976c3.06154,3.83062 -0.23826,9.81257 -0.69974,14.69457c-0.27288,2.88675 -2.25551,5.90357 -1.22172,8.61267c0.44654,1.17017 1.66908,2.07375 2.87192,2.4229c1.2755,0.37022 2.65616,-0.84896 3.94773,-0.53946c2.56107,0.61375 4.00732,3.63116 6.4929,4.50159c1.85066,0.64809 3.97172,-0.0979 5.8692,0.3966c1.26891,0.3307 3.55513,1.68422 3.55513,1.68422c-2.45085,4.09687 -6.03854,8.93992 -9.15306,11.37764z" data-paper-data="{&quot;index&quot;:null}" fill="#b9f0f5" fill-rule="evenodd" stroke="none" stroke-width="1" stroke-linecap="butt" stroke-linejoin="miter" stroke-miterlimit="10"/><path d="M281.3188,178.04478c1.27028,2.9576 -2.9169,6.33043 -5.83118,7.69716c-1.55024,0.72702 -3.56482,0.45775 -5.13144,-0.23325c-2.41445,-1.06495 -4.20564,-3.35621 -5.59793,-5.59792c-2.94464,-4.74115 -5.47023,-10.28063 -5.36469,-15.8608c0.03304,-1.7469 1.86598,-4.89822 1.86598,-4.89822c0,0 14.22364,7.41825 17.26029,14.22809c0.81695,1.83205 2.32709,3.56626 2.79897,4.66494z" data-paper-data="{&quot;index&quot;:null}" fill-opacity="0.96894" fill="#280b0b" fill-rule="evenodd" stroke="#000000" stroke-width="1" stroke-linecap="butt" stroke-linejoin="miter" stroke-miterlimit="10"/><path d="M291.43674,155.07538c3.53271,0 6.39654,2.86383 6.39654,6.39654c0,3.53272 -2.86383,6.39655 -6.39654,6.39655c-3.53272,0 -6.39655,-2.86383 -6.39655,-6.39655c0,-3.53271 2.86383,-6.39654 6.39655,-6.39654z" data-paper-data="{&quot;index&quot;:null}" fill="#ffffff" fill-rule="nonzero" stroke-opacity="0.61497" stroke="#000000" stroke-width="5.7" stroke-linecap="butt" stroke-linejoin="miter" stroke-miterlimit="4"/><path d="M291.37748,156.6698c1.30152,0 2.35661,0.99393 2.35661,2.22c0,1.22607 -1.05509,2.22 -2.35661,2.22c-1.30152,0 -2.35662,-0.99393 -2.35662,-2.22c0,-1.22607 1.05509,-2.22 2.35662,-2.22z" data-paper-data="{&quot;index&quot;:null}" fill="#000000" fill-rule="nonzero" stroke="none" stroke-width="1" stroke-linecap="butt" stroke-linejoin="miter" stroke-miterlimit="10" opacity="0.83857"/></g></g></svg>