<?xml version="1.0" encoding="UTF-8" standalone="no"?>
<svg
   width="140"
   height="85.672165"
   version="1.1"
   id="svg1452"
   sodipodi:docname="1475324931.svg"
   inkscape:version="1.2.2 (732a01da63, 2022-12-09)"
   xmlns:inkscape="http://www.inkscape.org/namespaces/inkscape"
   xmlns:sodipodi="http://sodipodi.sourceforge.net/DTD/sodipodi-0.dtd"
   xmlns="http://www.w3.org/2000/svg"
   xmlns:svg="http://www.w3.org/2000/svg">
  <defs
     id="defs1456" />
  <sodipodi:namedview
     id="namedview1454"
     pagecolor="#ffffff"
     bordercolor="#000000"
     borderopacity="0.25"
     inkscape:showpageshadow="2"
     inkscape:pageopacity="0.0"
     inkscape:pagecheckerboard="0"
     inkscape:deskcolor="#d1d1d1"
     showgrid="false"
     inkscape:zoom="2.6195652"
     inkscape:cx="229.80913"
     inkscape:cy="141.62656"
     inkscape:window-width="1920"
     inkscape:window-height="1017"
     inkscape:window-x="-8"
     inkscape:window-y="-8"
     inkscape:window-maximized="1"
     inkscape:current-layer="svg1452" />
  <metadata
     id="imagebot_20">image/svg+xml</metadata>
  <g
     id="imagebot_2"
     label="Layer 1"
     transform="matrix(0.30498549,0,0,0.30498549,-0.0480858,-0.24977592)">
    <path
       transform="translate(-26.1599,-721.75)"
       label="Layer 1"
       fill="#97dff1"
       fill-rule="evenodd"
       stroke-width="1px"
       id="imagebot_19"
       d="m 143.36149,943.6195 c 0,0 39.05425,16.2209 48.89292,33.3122 4.16468,7.2347 8.17734,19.592 1.8,24.9786 -5.24364,4.429 -13.96934,-1.619 -20.00128,-4.8943 -16.46785,-8.9419 -30.4328,-23.008 -40.94471,-38.5208 -2.3026,-3.398 -4.51278,-11.4574 -4.51278,-11.4574 11.43775,-2.378 2.24901,-7.5149 14.76585,-3.4183 z" />
    <path
       transform="translate(-26.1599,-721.75)"
       label="Layer 1"
       fill="#6adff1"
       fill-rule="evenodd"
       stroke-width="1px"
       id="imagebot_18"
       d="m 190.03541,954.406 c 6.65063,2.0493 9.909,13.709 11.39637,21.7609 0.79265,4.2911 2.35016,11.004 -1.52956,13.0013 -5.17351,2.6633 -10.68964,-4.8568 -15.29562,-8.4126 -14.05959,-10.8539 -36.66225,-38.6678 -36.66225,-38.6678 -0.19337,0.5801 34.44849,9.9632 42.09106,12.3182 z" />
    <path
       transform="translate(-26.1599,-721.75)"
       label="Layer 1"
       fill="#1d51c7"
       fill-rule="nonzero"
       stroke="#000000"
       stroke-width="1px"
       id="imagebot_17"
       d="m 27.82646,854.5667 c 3.2785,-3.1424 9.60078,-7.4889 16.32284,-19.3276 12.64261,-22.2659 7.86095,-50.9994 43.33009,-74.3309 20.71606,-13.627 31.7451,-20.94006 56.74754,-22.36426 42.43299,-2.41709 97.599,3.22248 140.566,23.48416 35.1392,16.5705 87.94983,76.4782 87.94983,76.4782 6.58374,17.578 7.27576,33.5698 0,47.4164 0,0 -50.88429,41.7208 -80.81075,54.2523 -30.56265,12.7979 -64.25068,19.6238 -97.38326,19.9315 -17.97375,0.1669 -35.46438,-13.6869 -53.02013,-9.8295 -3.7208,0.8175 -4.72487,8.9363 -9.32883,6.6021 -25.47585,-12.9164 -34.83026,-29.1889 -53.54478,-43.067 -9.48607,-7.0346 -29.59605,-37.0261 -28.64989,-35.5372 0,-0.8423 -13.69891,-1.6763 -16.06041,-5.3535 -1.02416,-1.5947 5.84516,-4.82 3.60948,-9.6824 -0.65809,-1.4314 -2.8285,-1.4854 -4.37426,-1.7893 -2.0011,-0.3935 -6.11825,0 -6.11825,0 0,0 -0.90177,-5.2857 0.76478,-6.883 z" />
    <path
       transform="translate(-26.1599,-721.75)"
       label="Layer 1"
       fill="#ffff00"
       fill-rule="nonzero"
       stroke="#000000"
       stroke-width="1px"
       id="imagebot_16"
       d="m 372.74276,839.3856 13.47172,5.2854 c 0,0 -23.90274,-33.1873 -28.76734,-49.7573 -6.76231,-23.034 -25.44626,-43.6183 -49.48678,-55.86741 -12.47834,-6.35798 -26.39705,-9.93453 -40.23253,-12.10528 -28.13283,-4.41398 -57.16307,-5.19096 -85.41558,-1.62235 -19.62853,2.4793 -57.19867,15.84762 -57.19867,15.84762 0,0 56.24892,-4.05664 83.29256,0.13667 29.22364,4.53135 46.22303,7.22935 80.18515,22.77115 26.63392,12.1882 81.24752,69.4034 84.15147,75.3115 z" />
    <path
       transform="translate(-26.1599,-721.75)"
       label="Layer 1"
       fill="#6e8823"
       fill-rule="evenodd"
       stroke="#000000"
       stroke-width="1px"
       id="imagebot_15"
       d="m 372.26283,838.6796 c 10.53114,4.236 21.01741,7.4847 31.024,0.1804 -9.72681,17.603 -5.00153,33.065 -0.71761,48.5923 0,0 -8.64366,-6.5981 -13.76606,-6.8831 -6.86437,-0.3819 -19.35688,7.1204 -19.35688,7.1204 5.9262,-12.2004 8.07882,-30.9489 2.81655,-49.01 z" />
    <path
       transform="translate(-26.1599,-721.75)"
       label="Layer 1"
       fill="#12317d"
       fill-rule="evenodd"
       stroke="#000000"
       stroke-width="1px"
       id="imagebot_14"
       d="m 402.3974,838.8499 c -0.39023,1.8238 26.94924,-23.9874 42.99957,-31.6997 10.70129,-5.1421 20.68401,-11.1004 34.41515,-9.1773 2.3276,0.326 6.44381,3.9104 4.58869,5.3534 -11.09039,8.6272 -20.89354,23.6441 -25.873,38.1926 -6.33012,18.4947 -9.2565,37.4188 -3.75745,58.5236 2.01231,7.7231 2.48918,13.8235 4.68915,23.4791 1.19381,5.2397 7.0566,20.8106 3.52742,21.2893 -6.3065,0.8553 -38.0708,-36.7234 -39.76862,-35.18 l -20.41999,-22.5284 c -4.09971,-16.2523 -8.7397,-31.482 -0.40092,-48.2526 z" />
    <path
       transform="translate(-26.1599,-721.75)"
       label="Layer 1"
       fill="#599ed0"
       fill-rule="evenodd"
       stroke="#000000"
       stroke-width="1px"
       id="imagebot_13"
       d="m 477.51778,805.6207 c -12.38698,9.9719 -25.77823,22.3051 -30.59125,33.6503 -7.13232,16.8122 -12.53666,32.0055 -7.88915,55.0251 2.81549,13.9454 9.66761,25.842 13.91334,39.5716 1.76699,5.714 -32.40492,-23.9553 -39.44547,-40.8228 -9.74959,-23.3577 -1.71176,-39.0294 3.82391,-51.5267 2.46123,-5.5564 7.37981,-9.7797 12.0074,-13.7189 10.98796,-9.3533 22.71411,-19.4291 36.7095,-22.9434 3.717,-0.9333 14.45698,-1.6384 11.47172,0.7648 z" />
    <path
       transform="translate(-26.1599,-721.75)"
       label="Layer 1"
       fill="#97dff1"
       fill-rule="evenodd"
       stroke="#000000"
       stroke-width="1px"
       id="imagebot_12"
       d="m 369.9259,887.2281 c 0,0 15.48154,-2.8451 18.87726,2.5185 6.65156,10.5063 -4.83712,24.5871 -11.35717,35.5337 -16.89202,28.3603 -44.40698,45.6573 -72.76875,49.357 -30.85327,4.0248 -61.71022,-8.0247 -92.53852,-12.2365 -5.58591,-0.7631 -16.7477,-2.3617 -16.7477,-2.3617 0,0 70.40945,-8.493 102.43351,-22.5156 26.84285,-11.7539 72.10137,-50.2954 72.10137,-50.2954 z" />
    <path
       transform="translate(-26.1599,-721.75)"
       label="Layer 1"
       fill="#0a0000"
       fill-opacity="0.68944"
       fill-rule="evenodd"
       stroke-width="1px"
       d="m 27.82646,854.5667 c 3.2785,-3.1424 9.60078,-7.4889 16.32284,-19.3276 12.64261,-22.2659 7.86095,-50.9994 43.33009,-74.3309 48.68122,-17.67849 95.34098,128.3125 -37.47427,117.3667 0,-0.8423 -13.69891,-1.6763 -16.06041,-5.3535 -1.02416,-1.5947 5.84516,-4.82 3.60948,-9.6824 -0.65809,-1.4314 -2.8285,-1.4854 -4.37426,-1.7893 -2.0011,-0.3935 -6.11825,0 -6.11825,0 0,0 -0.90177,-5.2857 0.76478,-6.883 z"
       id="imagebot_11" />
    <path
       transform="translate(-26.1599,-721.75)"
       label="Layer 1"
       fill="#2457a3"
       fill-opacity="0.69565"
       fill-rule="evenodd"
       stroke-width="1px"
       id="imagebot_10"
       d="m 97.42155,803.3263 c -4.09102,4.6756 -22.95348,19.865 -14.14003,12.1422 10.71255,-9.387 -6.23472,7.8777 -10.52501,7.4962 -4.94707,-0.4399 -10.90961,-4.4979 -10.42056,-10.6496 1.47143,-18.5092 9.19273,-14.5915 9.84782,-23.5196 0.63124,-8.6031 15.93681,-9.6554 24.473,-8.4126 4.34017,0.6319 9.89116,3.3384 10.70693,7.6478 1.13104,5.9749 -5.93785,10.7192 -9.94215,15.2956 z" />
    <path
       transform="translate(-26.1599,-721.75)"
       label="Layer 1"
       fill="#aa4400"
       fill-rule="nonzero"
       stroke="#000000"
       stroke-width="3.5"
       stroke-linecap="round"
       stroke-linejoin="round"
       stroke-miterlimit="4"
       stroke-dashoffset="0"
       d="m 92.45117,784.9715 a 11.08933,10.70694 0 0 0 -11.08984,10.7071 11.08933,10.70694 0 0 0 11.08984,10.707 11.08933,10.70694 0 0 0 11.08789,-10.707 11.08933,10.70694 0 0 0 -11.08789,-10.7071 z"
       id="imagebot_9" />
    <path
       transform="translate(-26.1599,-721.75)"
       label="Layer 1"
       fill="#b9f0f5"
       fill-rule="evenodd"
       stroke-width="1px"
       id="imagebot_5"
       d="m 79.83158,914.9844 c 3.82391,0 15.13425,-13.5116 22.13148,-20.8411 6.39253,-6.6962 20.00169,-4.943 33.22925,-14.6926 15.04998,-11.0929 7.25074,-37.0343 6.472,-55.7145 -0.74402,-17.8471 0.18485,-39.8735 -10.59239,-52.5307 -2.85299,-3.3506 -10.25379,-1.1433 -13.00128,2.2944 -10.03832,12.56 0.78122,32.1739 2.29434,48.1812 0.89472,9.4652 7.39547,19.3569 4.00584,28.2396 -1.46413,3.8368 -5.47267,6.7995 -9.41658,7.9443 -4.18215,1.2139 -8.70914,-2.7836 -12.944,-1.7688 -8.39736,2.0124 -13.13939,11.906 -21.28922,14.76 -6.06804,2.125 -13.02265,-0.321 -19.24418,1.3004 -4.16057,1.0843 -11.65671,5.5223 -11.65671,5.5223 8.03594,13.433 19.79944,29.3126 30.01145,37.3055 z" />
    <path
       transform="translate(-26.1599,-721.75)"
       label="Layer 1"
       fill="#280b0b"
       fill-opacity="0.96894"
       fill-rule="evenodd"
       stroke="#000000"
       stroke-width="1px"
       id="imagebot_4"
       d="m 120.36498,856.861 c -4.16505,9.6975 9.56405,20.7565 19.11953,25.2378 5.08298,2.3838 11.68849,1.5009 16.82519,-0.7648 7.91662,-3.4918 13.78965,-11.0045 18.35474,-18.3547 9.65503,-15.5455 17.93603,-33.7086 17.58997,-52.0051 -0.10833,-5.7278 -6.11825,-16.0605 -6.11825,-16.0605 0,0 -46.63712,24.3233 -56.5938,46.6517 -2.67866,6.007 -7.63017,11.6932 -9.17738,15.2956 z" />
    <title
       id="title1446">Layer 1</title>
    <metadata
       id="imagebot_33">image/svg+xmllogoabril 2011M Mlogolentesglassesverdeblancogrisnegrologo de un website</metadata>
    <path
       transform="matrix(0.587432,0,0,0.587432,-59.5112,-132.967)"
       label="Capa 1"
       fill="#ffffff"
       stroke="#000000"
       stroke-width="5.7"
       stroke-miterlimit="4"
       stroke-opacity="0.61497"
       id="imagebot_30"
       d="m 240.9035,363.85179 c 0,19.71841 -15.98492,35.70333 -35.70333,35.70333 -19.7184,0 -35.70332,-15.98492 -35.70332,-35.70333 0,-19.7184 15.98492,-35.70332 35.70332,-35.70332 19.71841,0 35.70333,15.98492 35.70333,35.70332 z" />
    <path
       transform="matrix(0.595944,0,0,0.595944,-76.6295,-110.375)"
       label="Capa 1"
       opacity="0.83857"
       fill="#000000"
       d="m 244.28591,306.53854 c 0,6.74577 -5.80506,12.2143 -12.96595,12.2143 -7.16089,0 -12.96594,-5.46853 -12.96594,-12.2143 0,-6.74577 5.80505,-12.21429 12.96594,-12.21429 7.16089,0 12.96595,5.46852 12.96595,12.21429 z"
       id="imagebot_27" />
  </g>
</svg>
