<svg version="1.1" xmlns="http://www.w3.org/2000/svg" xmlns:xlink="http://www.w3.org/1999/xlink" width="102.9968" height="109.27141" viewBox="0,0,102.9968,109.27141"><defs><radialGradient cx="239.99352" cy="223.17052" r="71.99941" gradientUnits="userSpaceOnUse" id="color-1"><stop offset="0" stop-color="#000000"/><stop offset="1" stop-color="#000000" stop-opacity="0"/></radialGradient><radialGradient cx="223.62396" cy="151.88184" r="73.38711" gradientUnits="userSpaceOnUse" id="color-2"><stop offset="0" stop-color="#000000" stop-opacity="0"/><stop offset="1" stop-color="#000000" stop-opacity="0.57196"/></radialGradient><radialGradient cx="263.8868" cy="165.78242" r="17.28955" gradientUnits="userSpaceOnUse" id="color-3"><stop offset="0" stop-color="#000000" stop-opacity="0"/><stop offset="1" stop-color="#000000" stop-opacity="0.57196"/></radialGradient><radialGradient cx="235.372" cy="165.78242" r="17.28955" gradientUnits="userSpaceOnUse" id="color-4"><stop offset="0" stop-color="#000000" stop-opacity="0"/><stop offset="1" stop-color="#000000" stop-opacity="0.57196"/></radialGradient><radialGradient cx="262.36164" cy="141.09448" r="19.08274" gradientUnits="userSpaceOnUse" id="color-5"><stop offset="0" stop-color="#000000" stop-opacity="0"/><stop offset="1" stop-color="#000000" stop-opacity="0.57196"/></radialGradient><radialGradient cx="259.64306" cy="140.82322" r="19.84135" gradientUnits="userSpaceOnUse" id="color-6"><stop offset="0" stop-color="#000000" stop-opacity="0"/><stop offset="1" stop-color="#000000" stop-opacity="0.57196"/></radialGradient><radialGradient cx="266.58731" cy="134.04801" r="14.21208" gradientUnits="userSpaceOnUse" id="color-7"><stop offset="0" stop-color="#000000" stop-opacity="0"/><stop offset="1" stop-color="#000000" stop-opacity="0.57196"/></radialGradient><radialGradient cx="240.51744" cy="193.09367" r="10.89369" gradientUnits="userSpaceOnUse" id="color-8"><stop offset="0" stop-color="#000000" stop-opacity="0"/><stop offset="1" stop-color="#000000" stop-opacity="0.57196"/></radialGradient><radialGradient cx="260.94093" cy="193.79168" r="7.96289" gradientUnits="userSpaceOnUse" id="color-9"><stop offset="0" stop-color="#000000" stop-opacity="0"/><stop offset="1" stop-color="#000000" stop-opacity="0.57196"/></radialGradient><radialGradient cx="251.68216" cy="195.60152" r="7.40565" gradientUnits="userSpaceOnUse" id="color-10"><stop offset="0" stop-color="#000000" stop-opacity="0"/><stop offset="1" stop-color="#000000" stop-opacity="0.57196"/></radialGradient></defs><g transform="translate(-188.6745,-122.45494)"><g data-paper-data="{&quot;isPaintingLayer&quot;:true}" stroke="none" stroke-width="1" stroke-linecap="butt" stroke-linejoin="miter" stroke-miterlimit="10" stroke-dasharray="" stroke-dashoffset="0" style="mix-blend-mode: normal"><g fill-rule="nonzero"><path d="M291.3255,223.17194c0,4.72326 -22.9908,8.55441 -51.3255,8.55441c-28.33469,0 -51.3255,-3.83115 -51.3255,-8.55441c0,-4.72326 22.9908,-8.55441 51.3255,-8.55441c28.33469,0 51.3255,3.83115 51.3255,8.55441z" fill="url(#color-1)"/><path d="M286.33997,179.6879c0,3.45742 -0.37782,26.7754 -1.09782,30.01896c-1.76079,8.88236 -7.47088,13.99364 -16.0467,15.93977c-3.98494,0.74138 -8.5188,-15.55482 -13.4376,-15.6475c-4.9188,-0.09267 -10.22256,16.02532 -15.75443,16.02532c-5.56039,0 -10.88552,-16.12512 -15.82571,-16.05383c-4.94019,0.07842 -9.4883,16.35324 -13.48037,15.58334c-9.03919,-1.49703 -13.77265,-7.68474 -15.9968,-16.13938c-0.67723,-3.15089 -1.03366,-26.37619 -1.03366,-29.72668c0,-25.57778 20.75877,-46.33655 46.33655,-46.33655c25.57778,0 46.33655,20.75877 46.33655,46.33655z" fill="#808000"/><path d="M286.33997,179.6879c0,3.45742 -0.37782,26.7754 -1.09782,30.01896c-1.76079,8.88236 -7.47088,13.99364 -16.0467,15.93977c-3.98494,0.74138 -8.5188,-15.55482 -13.4376,-15.6475c-4.9188,-0.09267 -10.22256,16.02532 -15.75443,16.02532c-5.56039,0 -10.88552,-16.12512 -15.82571,-16.05383c-4.94019,0.07842 -9.4883,16.35324 -13.48037,15.58334c-9.03919,-1.49703 -13.77265,-7.68474 -15.9968,-16.13938c-0.67723,-3.15089 -1.03366,-26.37619 -1.03366,-29.72668c0,-25.57778 20.75877,-46.33655 46.33655,-46.33655c25.57778,0 46.33655,20.75877 46.33655,46.33655z" fill="url(#color-2)"/><g><path d="M257.1123,171.49145c0,-6.10246 4.94702,-11.04949 11.04949,-11.04949c6.10246,0 11.04949,4.94702 11.04949,11.04949c0,6.10246 -4.94702,11.04949 -11.04949,11.04949c-6.10246,0 -11.04949,-4.94702 -11.04949,-11.04949z" fill="#ffffff"/><path d="M257.1123,171.49145c0,-6.10246 4.94702,-11.04949 11.04949,-11.04949c6.10246,0 11.04949,4.94702 11.04949,11.04949c0,6.10246 -4.94702,11.04949 -11.04949,11.04949c-6.10246,0 -11.04949,-4.94702 -11.04949,-11.04949z" fill="url(#color-3)"/><path d="M264.95358,172.20115c0,-3.7402 3.03203,-6.77223 6.77223,-6.77223c3.7402,0 6.77223,3.03203 6.77223,6.77223c0,3.7402 -3.03203,6.77223 -6.77223,6.77223c-3.7402,0 -6.77223,-3.03203 -6.77223,-6.77223z" fill="#000000"/></g><g><path d="M228.5975,171.49145c0,-6.10246 4.94702,-11.04949 11.04949,-11.04949c6.10246,0 11.04949,4.94702 11.04949,11.04949c0,6.10246 -4.94702,11.04949 -11.04949,11.04949c-6.10246,0 -11.04949,-4.94702 -11.04949,-11.04949z" fill="#ffffff"/><path d="M228.5975,171.49145c0,-6.10246 4.94702,-11.04949 11.04949,-11.04949c6.10246,0 11.04949,4.94702 11.04949,11.04949c0,6.10246 -4.94702,11.04949 -11.04949,11.04949c-6.10246,0 -11.04949,-4.94702 -11.04949,-11.04949z" fill="url(#color-4)"/><path d="M236.43878,172.20115c0,-3.7402 3.03203,-6.77223 6.77223,-6.77223c3.7402,0 6.77223,3.03203 6.77223,6.77223c0,3.7402 -3.03203,6.77223 -6.77223,6.77223c-3.7402,0 -6.77223,-3.03203 -6.77223,-6.77223z" fill="#000000"/></g><path d="M219.33732,156.08477c-7.15009,7.32117 -14.54968,11.70533 -16.5172,9.78058c-1.97465,-1.92475 2.23128,-9.43127 9.37424,-16.75245c7.15009,-7.32117 14.54968,-11.6982 16.5172,-9.77345c1.97465,1.92475 -2.23128,9.42414 -9.37424,16.74532z" fill-opacity="0.62745" fill="#ffffff"/><path d="M277.60459,217.47128c-3.38048,4.09607 -7.47824,6.30617 -9.14965,4.92675c-1.67142,-1.37942 -0.27872,-5.822 3.10176,-9.91807c3.38048,-4.09607 7.47824,-6.30617 9.14965,-4.92675c1.67142,1.37942 0.27872,5.822 -3.10176,9.91807z" fill-opacity="0.43439" fill="#ffffff"/></g><path d="M256.43062,154.55043c-15.85793,-6.97256 -26.06374,-18.65089 -22.79533,-26.0843c3.26842,-7.4334 18.77338,-7.807 34.63131,-0.83444c15.85793,6.97256 26.06374,18.65089 22.79533,26.0843c-3.26842,7.4334 -18.77338,7.807 -34.63131,0.83444z" fill="#aa4400" fill-rule="nonzero"/><path d="M256.43062,154.55043c-15.85793,-6.97256 -26.06374,-18.65089 -22.79533,-26.0843c3.26842,-7.4334 18.77338,-7.807 34.63131,-0.83444c15.85793,6.97256 26.06374,18.65089 22.79533,26.0843c-3.26842,7.4334 -18.77338,7.807 -34.63131,0.83444z" fill="url(#color-5)" fill-rule="nonzero"/><path d="M270.30039,125.58306c9.95879,4.37702 16.37462,11.72671 14.32156,16.39601l-2.85148,4.27722c-2.04594,4.6693 -11.78374,4.91167 -21.74254,0.53465c-9.95167,-4.37702 -16.37462,-11.72671 -14.32156,-16.39601l2.85148,-4.27722c1.02653,-2.33108 3.97069,-3.55722 7.90573,-3.65702c3.94217,-0.09267 8.86097,0.93386 13.83681,3.12237z" fill="#552200" fill-rule="nonzero"/><path d="M270.30039,125.58306c9.95879,4.37702 16.37462,11.72671 14.32156,16.39601l-2.85148,4.27722c-2.04594,4.6693 -11.78374,4.91167 -21.74254,0.53465c-9.95167,-4.37702 -16.37462,-11.72671 -14.32156,-16.39601l2.85148,-4.27722c1.02653,-2.33108 3.97069,-3.55722 7.90573,-3.65702c3.94217,-0.09267 8.86097,0.93386 13.83681,3.12237z" fill="url(#color-6)" fill-rule="nonzero"/><path d="M262.87515,142.50464c-9.96079,-4.37963 -16.37131,-11.71512 -14.3183,-16.38427c2.05302,-4.66915 11.79213,-4.90386 21.75293,-0.52423c9.96079,4.37963 16.37131,11.71512 14.3183,16.38427c-2.05302,4.66915 -11.79213,4.90386 -21.75293,0.52423z" fill="#aa4400" fill-rule="nonzero"/><path d="M262.87515,142.50464c-9.96079,-4.37963 -16.37131,-11.71512 -14.3183,-16.38427c2.05302,-4.66915 11.79213,-4.90386 21.75293,-0.52423c9.96079,4.37963 16.37131,11.71512 14.3183,16.38427c-2.05302,4.66915 -11.79213,4.90386 -21.75293,0.52423z" fill="url(#color-7)" fill-rule="nonzero"/><path d="M248.97132,198.91244c-4.00633,3.2792 -7.24989,3.4289 -10.75008,4.59801c-1.15485,-4.44831 -2.09584,-8.89662 0.12832,-13.36631c4.48395,-1.53267 7.34256,2.78019 10.81424,4.88316z" fill="#00ff00" fill-rule="evenodd"/><path d="M257.04101,194.7564c3.44316,-2.14574 6.24474,-6.50137 10.75008,-5.02573c2.28118,4.44118 1.40435,8.89662 0.30653,13.36631c-3.51445,-1.12633 -6.75801,-1.23327 -10.81424,-4.45544z" fill="#00ff00" fill-rule="evenodd"/><path d="M248.97132,198.91244c-4.00633,3.2792 -7.24989,3.4289 -10.75008,4.59801c-1.15485,-4.44831 -2.09584,-8.89662 0.12832,-13.36631c4.48395,-1.53267 7.34256,2.78019 10.81424,4.88316z" fill="url(#color-8)" fill-rule="evenodd"/><path d="M257.04101,194.7564c3.44316,-2.14574 6.24474,-6.50137 10.75008,-5.02573c2.28118,4.44118 1.40435,8.89662 0.30653,13.36631c-3.51445,-1.12633 -6.75801,-1.23327 -10.81424,-4.45544z" fill="url(#color-9)" fill-rule="evenodd"/><path d="M251.11339,202.34505c-1.52416,0.01028 -2.75974,0.01862 -2.75974,0.01862l-0.06837,-10.13322c0,0 1.23558,-0.00834 2.75974,-0.01862l4.82973,-0.03259c1.52416,-0.01028 2.75974,-0.01862 2.75974,-0.01862l0.06837,10.13322c0,0 -1.23558,0.00834 -2.75974,0.01862z" fill="#00ff00" fill-rule="nonzero"/><path d="M251.11339,202.34505c-1.52416,0.01028 -2.75974,0.01862 -2.75974,0.01862l-0.06837,-10.13322c0,0 1.23558,-0.00834 2.75974,-0.01862l4.82973,-0.03259c1.52416,-0.01028 2.75974,-0.01862 2.75974,-0.01862l0.06837,10.13322c0,0 -1.23558,0.00834 -2.75974,0.01862z" fill="url(#color-10)" fill-rule="nonzero"/></g></g></svg>