<svg version="1.0" width="100" height="99.83" xmlns:xlink="http://www.w3.org/1999/xlink" xmlns="http://www.w3.org/2000/svg"><defs><linearGradient id="prefix__f" y2="25.597" xlink:href="#prefix__a" gradientUnits="userSpaceOnUse" x2="632.48" gradientTransform="rotate(-21.348 50.288 179.164) scale(.91658)" y1="53.939" x1="629.33"/><linearGradient id="prefix__e" y2="-3.347" xlink:href="#prefix__a" gradientUnits="userSpaceOnUse" x2="557.55" y1="-39.056" x1="557.55"/><linearGradient id="prefix__c" y2="-76.4" gradientUnits="userSpaceOnUse" x2="531.01" y1="-1.24" x1="531.01"><stop offset="0" stop-color="#286a27"/><stop offset="1" stop-color="#264826"/></linearGradient><linearGradient id="prefix__a"><stop offset="0" stop-color="#fff"/><stop offset="1" stop-color="#fff" stop-opacity="0"/></linearGradient><radialGradient id="prefix__b" gradientUnits="userSpaceOnUse" cy="-27.632" cx="531.04" gradientTransform="translate(68.738 -5.101) scale(.87056)" r="37.709"><stop offset="0" stop-color="#8fe68c"/><stop offset="1" stop-color="#29902b"/></radialGradient><filter id="prefix__d" x="-.159" y="-.137" width="1.319" height="1.274"><feGaussianBlur stdDeviation="1.548"/></filter></defs><g transform="matrix(1.34459 0 0 1.3423 -596.948 270.965)"><path d="M566.746-39.41A35.709 35.709 0 01531.221-3.7a35.709 35.709 0 01-35.89-35.341 35.709 35.709 0 0135.154-36.073 35.709 35.709 0 0136.253 34.969" transform="translate(-49.888 -125.27)" fill="url(#prefix__b)" stroke="url(#prefix__c)" stroke-width="2.954" stroke-linecap="round" stroke-linejoin="round"/><g stroke-width="3.076" stroke-linecap="round" stroke-linejoin="round"><path d="M523.42-241.28v38.32l32.94-19.01z" opacity=".5" stroke="#000" filter="url(#prefix__d)" transform="translate(-54.859 58.823)"/><path d="M466.801-184.227v38.32l32.93-19.01z" fill="#d6ffdc" stroke="#33543c"/></g><ellipse transform="matrix(1.0149 0 0 1.0396 -84.727 -157.14)" cx="557.554" cy="-21.201" rx="23.688" ry="17.854" fill="url(#prefix__e)"/><path d="M451.42-150.27c7.1 15.8 25.44 23.42 41.75 17.05 16.3-6.37 24.61-24.4 19.14-40.82-4.43 11.11-13.28 20.41-25.28 25.11-12.02 4.69-24.82 3.84-35.61-1.34z" fill="url(#prefix__f)"/></g></svg>