<svg xmlns="http://www.w3.org/2000/svg" width="133.411" height="129.61" viewBox="0 0 170.766 165.901" xmlns:v="https://vecta.io/nano"><path d="M168.071 19.228c1.777 1.796 2.732 4.165 2.694 6.668-.095 6.381-2.56 12.457-6.916 17.099-4.146 4.413-9.686 7.203-15.667 7.891a3.75 3.75 0 0 1-1.127.172c-4.031 0-7.317 3.286-7.317 7.317v17.787h5.579c5.35 0 9.706 4.356 9.706 9.706a9.76 9.76 0 0 1-.344 2.579c2.426 1.834 3.993 4.757 3.993 8.024 0 5.56-4.528 10.069-10.069 10.069h-16.144c-.134 8.254-3.802 15.991-10.145 21.322-5.12 4.299-11.597 6.668-18.284 6.668a8.24 8.24 0 0 0-1.949.229c-.65.153-1.261.382-1.834.688h11.425c7.375 0 13.393 5.999 13.393 13.393 0 .153-.019.287-.019.439 2.885 2.465 4.719 6.114 4.719 10.183 0 3.554-2.885 6.439-6.439 6.439H3.668 3.63a3.63 3.63 0 0 1-3.63-3.63c0-1.567.993-2.885 2.369-3.401l43.656-16.182v-33.626c0-24.742 20.137-44.879 44.879-44.879h9.763a5.97 5.97 0 0 0 5.961-5.961V30.94c0-4.624 2.178-8.75 5.56-11.425-.248-.21-.497-.439-.726-.688-3.84-3.84-5.35-9.476-3.955-14.73.306-1.127 1.185-2.006 2.312-2.312 3.898-1.051 8.005-.478 11.425 1.452.478-.764.993-1.471 1.586-2.14.783-.879 1.968-1.261 3.114-1.032a15.28 15.28 0 0 1 11.368 10.145 15.05 15.05 0 0 1 .707 6.152h23.271c2.598.038 4.987 1.051 6.782 2.866z" fill="#633"/><path d="M162.913 24.329c.229.229.611.726.592 1.452-.134 9.457-9.152 18.036-17.348 18.036-7.623.478-13.68 6.821-13.68 14.558l.019 31.658a3.63 3.63 0 0 0 3.63 3.63h12.476c1.548 0 2.809 1.261 2.809 2.809s-1.261 2.809-2.809 2.809h-21.589c-4.222 0-7.642-3.439-7.642-7.642v-5.101a3.63 3.63 0 1 0-7.26 0v5.101c0 7.604 5.732 13.89 13.087 14.807-.096 6.133-2.828 11.922-7.547 15.877a21.23 21.23 0 0 1-13.622 4.967 16.57 16.57 0 0 0-3.649.42c-7.012 1.681-11.922 7.91-11.922 15.132v6.878a3.63 3.63 0 0 0 3.63 3.63h24.264c3.095 0 5.655 2.312 6.056 5.292h-46.54v-22.201a3.63 3.63 0 1 0-7.26 0v22.201H23.901l27.015-10.03a3.63 3.63 0 0 0 2.369-3.401v-36.148c0-20.749 16.87-37.619 37.619-37.619h9.763c7.298 0 13.221-5.942 13.221-13.221V30.94a7.29 7.29 0 0 1 7.279-7.279h40.122c.63 0 1.185.248 1.624.669zm-14.425 61.558c0 .172-.019.344-.038.516h-8.674v-3.687h5.56a3.16 3.16 0 0 1 3.152 3.172z" fill="#b88d5b"/><path d="M140.598 26.221c1.796 0 3.248 1.452 3.248 3.229 0 1.796-1.452 3.248-3.248 3.248s-3.229-1.452-3.229-3.248a3.24 3.24 0 0 1 3.229-3.229z" fill="#633"/><path d="M131.121 12.293c.439 1.337.554 2.751.325 4.108h-2.426c-.038-3.076-.993-6.095-2.77-8.617l.306-.63c2.14.993 3.821 2.847 4.566 5.139zm-11.177-1.93c1.624 1.624 2.503 3.802 2.541 6.037l-2.503.057a8.74 8.74 0 0 1-3.878-2.235c-1.7-1.7-2.598-4.031-2.541-6.381 2.35-.076 4.662.822 6.381 2.522zm-8.273 132.344a6.08 6.08 0 0 1 5.464 3.401c-.248-.019-21.417-.019-21.417-.019v-3.248-.115z" fill="#b88d5b"/><path d="M90.923 80.461a3.63 3.63 0 1 1 0 7.26c-11.769.019-21.341 9.591-21.341 21.341a3.63 3.63 0 1 1-7.26 0c0-15.762 12.82-28.601 28.601-28.601z" fill="#633"/></svg>