<svg version="1.1" xmlns="http://www.w3.org/2000/svg" xmlns:xlink="http://www.w3.org/1999/xlink" width="114.14475" height="39.87079" viewBox="0,0,114.14475,39.87079"><g transform="translate(-183.03827,-160.04419)"><g data-paper-data="{&quot;isPaintingLayer&quot;:true}" stroke-dasharray="" stroke-dashoffset="0" style="mix-blend-mode: normal"><g opacity="0.528"><path d="M192.49365,180.50916c0,-4.76788 4.0979,-8.63301 9.15292,-8.63301c5.05502,0 9.15292,3.86513 9.15292,8.63301c0,4.76788 -4.0979,8.63301 -9.15292,8.63301c-5.05502,0 -9.15292,-3.86513 -9.15292,-8.63301z" fill="#cccccc" fill-rule="nonzero" stroke="none" stroke-width="0.5" stroke-linecap="round" stroke-linejoin="bevel" stroke-miterlimit="4"/><path d="M195.88201,173.84503l5.75835,7.31131l-6.64425,-5.71196z" fill="#b3b3b3" fill-rule="evenodd" stroke="#000000" stroke-width="1" stroke-linecap="butt" stroke-linejoin="miter" stroke-miterlimit="10"/><path d="M195.70932,186.46005l6.64425,-6.33646l-5.19082,7.3113z" fill="#b3b3b3" fill-rule="evenodd" stroke="#000000" stroke-width="1" stroke-linecap="butt" stroke-linejoin="miter" stroke-miterlimit="10"/></g><path d="M222.31316,196.58751c0,-1.77309 1.51303,-3.21047 3.37944,-3.21047c1.86642,0 3.37944,1.43738 3.37944,3.21047c0,1.77309 -1.51303,3.21047 -3.37944,3.21047c-1.86642,0 -3.37944,-1.43738 -3.37944,-3.21047z" fill="#000000" fill-rule="nonzero" stroke="none" stroke-width="0.04084" stroke-linecap="round" stroke-linejoin="bevel" stroke-miterlimit="4"/><path d="M183.21313,167.25134c0,0 1.04558,-0.84672 1.79617,-1.03982c2.09967,-0.54019 6.49893,-0.25996 6.49893,-0.25996l34.44433,3.6394l4.28929,-0.12998h29.63513l11.17815,2.20964l1.42977,0.51991v0.77987l-15.33748,0.25996l-14.94754,-1.1698l-2.4696,1.1698l-46.53234,-5.58908l-4.67923,-0.64989h-3.6394z" fill="#e6e600" fill-rule="evenodd" stroke="#000000" stroke-width="0.08168" stroke-linecap="butt" stroke-linejoin="miter" stroke-miterlimit="10"/><path d="M229.21379,169.49626l12.9861,2.69426l-2.24493,0.62637l-11.79277,-3.22594z" fill="#999999" fill-rule="evenodd" stroke="#000000" stroke-width="0.08168" stroke-linecap="butt" stroke-linejoin="miter" stroke-miterlimit="10"/><path d="M193.58789,167.38132l-4.93919,-0.64989" fill="none" fill-rule="evenodd" stroke="#ffffff" stroke-width="0.08168" stroke-linecap="butt" stroke-linejoin="miter" stroke-miterlimit="10"/><path d="M203.59625,168.6811l19.23683,1.8197" fill="none" fill-rule="evenodd" stroke="#00ff00" stroke-width="0.08168" stroke-linecap="butt" stroke-linejoin="miter" stroke-miterlimit="10"/><path d="M251.81831,171.80059l17.41713,0.12998l-0.25996,0.12998" fill="none" fill-rule="evenodd" stroke="#00ff00" stroke-width="0.08168" stroke-linecap="butt" stroke-linejoin="miter" stroke-miterlimit="10"/><path d="M183.96947,166.99139h4.02934l51.34155,6.2272l0.51991,0.53168l-18.06702,-1.42976c0,0 -25.33565,-2.36409 -37.95375,-3.37944c-0.676,-0.0544 -0.94637,-1.22179 -0.62637,-1.8197c0.16482,-0.30797 0.75634,-0.12997 0.75634,-0.12997z" fill="#d4aa00" fill-rule="evenodd" stroke="#000000" stroke-width="0.08168" stroke-linecap="butt" stroke-linejoin="miter" stroke-miterlimit="10"/><path d="M219.45363,169.07104l3.24947,-6.88887" fill="none" fill-rule="evenodd" stroke="#000000" stroke-width="0.08168" stroke-linecap="butt" stroke-linejoin="miter" stroke-miterlimit="10"/><path d="M292.63159,176.6098l4.2893,0.51992c0,0 -4.67923,0.90984 -5.32913,0.51991c-0.6499,-0.38993 1.42976,-0.51991 1.03982,-1.03983z" fill="#e6e600" fill-rule="evenodd" stroke="#000000" stroke-width="0.08168" stroke-linecap="butt" stroke-linejoin="miter" stroke-miterlimit="10"/><path d="M204.50609,177.51965l8.70857,-0.64989l4.41926,-4.80921l21.18652,1.55974l0.51991,-0.25995l3.11949,-1.16981l17.02719,0.90985l15.07752,0.51991c0,0 1.45239,-2.52528 2.20964,-3.76937c1.51866,-2.49507 2.81019,-5.16415 4.67923,-7.40878c0.49048,-0.58905 1.01528,-1.19549 1.68972,-1.55974c0.94308,-0.50934 2.05274,-0.88413 3.11949,-0.77987c0.81016,0.07919 1.53567,0.5833 2.20964,1.03982c0.73601,0.49857 1.52447,1.03901 1.94968,1.8197c0.82113,1.50761 1.33611,3.40567 1.76029,5.06917c0.54166,2.12418 1.14505,4.04844 1.22921,6.23898c0.03428,0.89253 -0.64989,2.59957 -0.64989,2.59957l-2.33962,1.68972l-4.41927,2.46959l-55.37089,8.70857l-4.15932,7.14883l-1.1698,-0.25996l-2.27463,-5.00418l2.27463,-1.49475l-8.57859,5.84904l-1.68972,-1.8197l2.20964,-4.67923c0,0 -8.976,-0.08585 -12.60793,-2.33962c-1.2885,-0.79957 -2.72955,-3.6394 -2.72955,-3.6394l0.64989,-5.06917z" fill="#ffff00" fill-rule="evenodd" stroke="#000000" stroke-width="0.08168" stroke-linecap="butt" stroke-linejoin="miter" stroke-miterlimit="10"/><path d="M239.31313,173.66684l-0.3627,2.68301l1.03983,11.04818l33.92442,-4.80921l-0.90985,-6.49893l11.04818,0.51991l2.85953,3.76938l-2.07966,1.03983l-54.20108,8.57859l-4.09433,6.82388l-1.2023,-0.16248l-2.27463,-4.93919l-6.0765,4.2568l-0.90984,-0.51991l2.46959,-5.58909l-0.12998,-4.15931l-0.77987,-6.62891l1.55974,-7.00919z" fill="#999999" fill-rule="evenodd" stroke="none" stroke-width="0.08168" stroke-linecap="butt" stroke-linejoin="miter" stroke-miterlimit="10" opacity="0.6"/><path d="M213.47462,180.50916l31.06489,-0.77987v0.90985l-27.9454,1.68972l0.77987,1.8197l-7.14882,-1.8197h4.41927z" fill="#000000" fill-rule="evenodd" stroke="#000000" stroke-width="0.08168" stroke-linecap="butt" stroke-linejoin="miter" stroke-miterlimit="10"/><path d="M283.79305,178.16954l-15.46745,1.29979l-0.12999,-0.90985z" fill="#000000" fill-rule="evenodd" stroke="#000000" stroke-width="0.08168" stroke-linecap="butt" stroke-linejoin="miter" stroke-miterlimit="10"/><g fill="#000000" fill-rule="nonzero" stroke="none" stroke-width="1" stroke-linecap="butt" stroke-linejoin="miter" stroke-miterlimit="10"><path d="M245.60978,181.28369l0.717,-0.31771c0.20182,0.37689 0.54561,0.62571 0.95099,0.60167c0.40538,-0.02404 0.66339,-0.21283 0.6436,-0.54667c-0.02086,-0.35173 -0.42209,-0.45955 -0.884,-0.58172c-0.62009,-0.16663 -1.33733,-0.35741 -1.38647,-1.18606c-0.03712,-0.62596 0.44446,-1.18097 1.34464,-1.23435c0.74518,-0.04419 1.25877,0.34412 1.4463,0.88339l-0.7072,0.28124c-0.12812,-0.24367 -0.35404,-0.42171 -0.74154,-0.39873c-0.35173,0.02086 -0.54593,0.17595 -0.53073,0.4323c0.01556,0.2623 0.36804,0.35507 0.78751,0.46779c0.63237,0.17189 1.42888,0.38788 1.48226,1.28806c0.04808,0.81076 -0.58642,1.30904 -1.43295,1.35924c-0.78692,0.04667 -1.40887,-0.35317 -1.6894,-1.04845z"/><path d="M249.33212,177.95208l1.78844,-0.10606c1.05518,-0.06257 1.46439,0.58319 1.50292,1.233c0.03606,0.60807 -0.32725,1.34153 -1.34666,1.40198l-0.98364,0.05833l0.09121,1.53806l-0.8048,0.04773zM251.78888,179.12851c-0.01414,-0.23846 -0.15807,-0.54699 -0.5873,-0.52154l-1.01941,0.06045l0.06576,1.10884l1.01941,-0.06045c0.40538,-0.02404 0.5371,-0.32499 0.52154,-0.5873z"/><path d="M253.23064,179.76689l1.56191,-0.09262l0.04419,0.74519l-1.56191,0.09262z"/><path d="M257.00324,177.49717c1.46056,-0.08661 2.08316,0.92938 2.14468,1.96667c0.05656,0.95384 -0.38895,2.11692 -1.92105,2.20778l-1.38306,0.08202l-0.24747,-4.17304zM258.31331,179.51334c-0.03853,-0.6498 -0.39444,-1.30471 -1.1277,-1.26123l-0.73922,0.04384l0.15696,2.6469l0.67365,-0.03995c0.82268,-0.04879 1.07273,-0.77552 1.03631,-1.38956z"/><path d="M262.30769,180.50287l-1.6096,0.09545l-0.27066,0.88351l-0.86441,0.05126l1.35021,-4.26778l0.78692,-0.04667l1.84514,4.07829l-0.86441,0.05126zM261.52621,178.72457c-0.04809,-0.10483 -0.11725,-0.26226 -0.15342,-0.3678c-0.02344,0.10907 -0.07351,0.27357 -0.10888,0.38335l-0.347,1.10938l1.08499,-0.06434z"/><path d="M263.70984,179.19332c-0.0601,-1.01345 0.45029,-2.19235 1.70816,-2.26694c0.81076,-0.04808 1.23599,0.36342 1.54936,0.80549l-0.68538,0.44745c-0.20142,-0.26923 -0.45438,-0.49951 -0.81803,-0.47795c-0.76903,0.0456 -0.95557,0.83438 -0.91951,1.44246c0.04172,0.70345 0.36817,1.36609 1.08355,1.32367c0.40538,-0.02404 0.70927,-0.34717 0.68735,-0.71678l-0.00283,-0.04769l-0.70942,0.04207l-0.04525,-0.76307l1.5321,-0.09086l0.03641,0.61403c0.06328,1.0671 -0.57607,1.68532 -1.45241,1.73728c-1.28768,0.07636 -1.89942,-0.95822 -1.96411,-2.04917z"/></g><path d="M213.21467,176.86976l4.54924,-4.80921l1.29979,0.90984l-4.15932,5.45911z" fill="#00ffff" fill-rule="evenodd" stroke="#000000" stroke-width="0.08168" stroke-linecap="butt" stroke-linejoin="miter" stroke-miterlimit="10"/><path d="M200.60674,170.63083l11.30813,8.96852l-2.07966,-8.44861h0.51991l15.2075,18.06703l-2.33962,-1.55974l-12.08802,-14.29764l1.29979,6.49893l10.78822,7.79871l2.15344,1.57423l-0.92962,-0.07349l-25.91975,-19.04789z" fill="#787800" fill-rule="evenodd" stroke="#000000" stroke-width="0.08168" stroke-linecap="butt" stroke-linejoin="miter" stroke-miterlimit="10"/><path d="M201.77654,183.23871l-1.29978,-2.07966l-0.51991,-1.1698l0.64989,-0.38994c0,0 -0.60066,-1.15756 -0.25996,-1.55974c0.28005,-0.33058 1.29978,0 1.29978,0l4.28929,0.25996c0.66744,2.02929 1.35994,4.07947 0,4.41927z" fill="#000000" fill-rule="evenodd" stroke="#000000" stroke-width="0.08168" stroke-linecap="butt" stroke-linejoin="miter" stroke-miterlimit="10"/><g fill-rule="nonzero" stroke-width="0.5" stroke-linecap="round" stroke-linejoin="bevel" stroke-miterlimit="4"><path d="M201.27416,180.82508c0,0.2452 -0.05102,0.48037 -0.14184,0.65375c-0.09082,0.17338 -0.21401,0.27078 -0.34245,0.27076c-0.06623,-0.00013 -0.13175,-0.02621 -0.1925,-0.07661c0.17743,-0.14586 0.29248,-0.4791 0.29273,-0.8479c-0.00011,-0.36834 -0.11474,-0.70142 -0.29179,-0.84781c0.06046,-0.05016 0.12564,-0.07623 0.19156,-0.0766c0.26744,-0.00004 0.48427,0.41384 0.48429,0.92441z" fill="#ffffff" stroke="#00ff00" opacity="0.181"/><path d="M199.92156,180.82511c0,-0.51058 0.21681,-0.92449 0.48426,-0.92449c0.26745,0 0.48426,0.41391 0.48426,0.92449c0,0.51058 -0.21681,0.92449 -0.48426,0.92449c-0.26745,0 -0.48426,-0.41391 -0.48426,-0.92449z" fill="#e6e6e6" stroke="none"/></g><g fill-rule="nonzero" stroke-width="0.5" stroke-linecap="round" stroke-linejoin="bevel" stroke-miterlimit="4"><path d="M202.40808,180.82508c0,0.2452 -0.05102,0.48037 -0.14184,0.65375c-0.09082,0.17338 -0.21401,0.27078 -0.34245,0.27076c-0.06623,-0.00013 -0.13175,-0.02621 -0.1925,-0.07661c0.17743,-0.14586 0.29248,-0.4791 0.29273,-0.8479c-0.00011,-0.36834 -0.11474,-0.70142 -0.29179,-0.84781c0.06046,-0.05016 0.12564,-0.07623 0.19156,-0.0766c0.26744,-0.00004 0.48427,0.41384 0.48429,0.92441z" fill="#ffffff" stroke="#00ff00" opacity="0.181"/><path d="M201.05548,180.82511c0,-0.51058 0.21681,-0.92449 0.48426,-0.92449c0.26745,0 0.48426,0.41391 0.48426,0.92449c0,0.51058 -0.21681,0.92449 -0.48426,0.92449c-0.26745,0 -0.48426,-0.41391 -0.48426,-0.92449z" fill="#e6e6e6" stroke="none"/></g><g fill-rule="nonzero" stroke-width="0.5" stroke-linecap="round" stroke-linejoin="bevel" stroke-miterlimit="4"><path d="M203.68375,180.82508c0,0.2452 -0.05102,0.48037 -0.14184,0.65375c-0.09082,0.17338 -0.21401,0.27078 -0.34245,0.27076c-0.06623,-0.00013 -0.13175,-0.02621 -0.1925,-0.07661c0.17743,-0.14586 0.29248,-0.4791 0.29273,-0.8479c-0.00011,-0.36834 -0.11474,-0.70142 -0.29179,-0.84781c0.06046,-0.05016 0.12564,-0.07623 0.19156,-0.0766c0.26744,-0.00004 0.48427,0.41384 0.48429,0.92441z" fill="#ffffff" stroke="#00ff00" opacity="0.181"/><path d="M202.33115,180.82511c0,-0.51058 0.21681,-0.92449 0.48426,-0.92449c0.26745,0 0.48426,0.41391 0.48426,0.92449c0,0.51058 -0.21681,0.92449 -0.48426,0.92449c-0.26745,0 -0.48426,-0.41391 -0.48426,-0.92449z" fill="#e6e6e6" stroke="none"/></g><g fill-rule="nonzero" stroke-width="0.5" stroke-linecap="round" stroke-linejoin="bevel" stroke-miterlimit="4"><path d="M204.81767,180.82508c0,0.2452 -0.05102,0.48037 -0.14184,0.65375c-0.09082,0.17338 -0.21401,0.27078 -0.34245,0.27076c-0.06623,-0.00013 -0.13175,-0.02621 -0.1925,-0.07661c0.17743,-0.14586 0.29248,-0.4791 0.29273,-0.8479c-0.00011,-0.36834 -0.11474,-0.70142 -0.29179,-0.84781c0.06046,-0.05016 0.12564,-0.07623 0.19156,-0.0766c0.26744,-0.00004 0.48427,0.41384 0.48429,0.92441z" fill="#ffffff" stroke="#00ff00" opacity="0.181"/><path d="M203.46507,180.82511c0,-0.51058 0.21681,-0.92449 0.48426,-0.92449c0.26745,0 0.48426,0.41391 0.48426,0.92449c0,0.51058 -0.21681,0.92449 -0.48426,0.92449c-0.26745,0 -0.48426,-0.41391 -0.48426,-0.92449z" fill="#e6e6e6" stroke="none"/></g><path d="M220.75342,173.23036l2.85953,0.25996l-3.89935,5.71906l-3.24947,-0.90985z" fill="#00ffff" fill-rule="evenodd" stroke="#000000" stroke-width="0.08168" stroke-linecap="butt" stroke-linejoin="miter" stroke-miterlimit="10"/><path d="M228.03222,173.49032l-0.38993,6.10899l-6.49893,-0.12997l3.89935,-6.23898z" fill="#00ffff" fill-rule="evenodd" stroke="#000000" stroke-width="0.08168" stroke-linecap="butt" stroke-linejoin="miter" stroke-miterlimit="10"/><path d="M228.94207,173.75027l4.15931,-0.25995l1.42976,0.77987c0,0 1.07097,1.01696 1.29979,1.68972c0.19532,0.57426 0.16721,1.23664 0,1.8197c-0.11269,0.3929 -0.35523,0.75657 -0.6499,1.03982c-0.25181,0.24208 -0.90984,0.51992 -0.90984,0.51992h-2.07966l-3.76938,0.12998z" fill="#00ffff" fill-rule="evenodd" stroke="#000000" stroke-width="0.08168" stroke-linecap="butt" stroke-linejoin="miter" stroke-miterlimit="10"/><path d="M229.8504,179.43873l0.78032,-1.77116l0.39016,-0.36059v-1.13724l-0.50061,-0.52858l0.2258,-0.78273c0.08243,-0.84183 0.03063,-0.99259 0.44168,-1.1772l0.74351,-0.18877l1.36185,0.07349c0,0 0.57856,0.73597 0.59875,1.17512c0.01657,0.35965 -0.39996,1.0033 -0.39996,1.0033l-0.26011,0.96158l1.17048,0.3606l0.78032,0.96158v0.84138l-1.43059,0.60099z" fill="#000000" fill-rule="evenodd" stroke="#000000" stroke-width="0.07857" stroke-linecap="butt" stroke-linejoin="miter" stroke-miterlimit="10"/><path d="M209.44527,196.58102c0,-1.84129 1.57122,-3.33395 3.50942,-3.33395c1.9382,0 3.50942,1.49266 3.50942,3.33395c0,1.84129 -1.57122,3.33395 -3.50942,3.33395c-1.9382,0 -3.50942,-1.49266 -3.50942,-3.33395z" fill="#000000" fill-rule="nonzero" stroke="none" stroke-width="0.04084" stroke-linecap="round" stroke-linejoin="bevel" stroke-miterlimit="4"/><path d="M211.19999,196.58102c0,-0.92065 0.78561,-1.66698 1.75471,-1.66698c0.9691,0 1.75471,0.74633 1.75471,1.66698c0,0.92065 -0.78561,1.66698 -1.75471,1.66698c-0.9691,0 -1.75471,-0.74633 -1.75471,-1.66698z" fill="#ffff00" fill-rule="nonzero" stroke="none" stroke-width="0.04084" stroke-linecap="round" stroke-linejoin="bevel" stroke-miterlimit="4"/><path d="M285.74273,181.15905l2.98951,2.33962l-0.12998,0.77987l-3.76938,-2.33962l-1.68972,0.25996v-0.77987z" fill="#000000" fill-rule="evenodd" stroke="#000000" stroke-width="0.08168" stroke-linecap="butt" stroke-linejoin="miter" stroke-miterlimit="10"/><path d="M288.3423,184.08358c0,-0.68196 0.55284,-1.2348 1.2348,-1.2348c0.68196,0 1.2348,0.55284 1.2348,1.2348c0,0.68196 -0.55284,1.2348 -1.2348,1.2348c-0.68196,0 -1.2348,-0.55284 -1.2348,-1.2348z" fill="#000000" fill-rule="nonzero" stroke="none" stroke-width="0.04084" stroke-linecap="round" stroke-linejoin="bevel" stroke-miterlimit="4"/><path d="M273.00482,176.08989l0.51991,-0.77987l11.17816,1.03983z" fill="#e6e600" fill-rule="evenodd" stroke="#000000" stroke-width="0.08168" stroke-linecap="butt" stroke-linejoin="miter" stroke-miterlimit="10"/><path d="M211.1283,196.53872c0,-0.44211 0.18487,-0.86612 0.51395,-1.17874c0.32908,-0.31262 0.7754,-0.48824 1.24078,-0.48824c0.55133,0.00066 1.07027,0.24745 1.40121,0.66635c-0.31437,-0.24722 -0.70962,-0.38261 -1.11773,-0.38287c-0.46538,-0.00001 -0.9117,0.17562 -1.24078,0.48824c-0.32908,0.31262 -0.51395,0.73662 -0.51395,1.17874c0.0006,0.3611 0.12462,0.71225 0.35338,1.00063c-0.40311,-0.31649 -0.63661,-0.7873 -0.63687,-1.28411z" fill="#ffffff" fill-rule="nonzero" stroke="none" stroke-width="0.04084" stroke-linecap="round" stroke-linejoin="bevel" stroke-miterlimit="4"/><path d="M292.89154,175.56997h-6.75888v-10.65825h-5.71906v0.25996v0" fill="none" fill-rule="evenodd" stroke="#666666" stroke-width="0.08168" stroke-linecap="butt" stroke-linejoin="miter" stroke-miterlimit="10"/><g><path d="M283.51921,165.95817c0,0 0.12441,-0.12371 0.20572,-0.13715c0.08753,-0.01446 0.19253,0.00779 0.25715,0.06857c0.05265,0.04952 0.0897,0.13659 0.06857,0.20572c-0.0274,0.08963 -0.22286,0.17143 -0.22286,0.17143l-0.12,0.32572l-0.08572,0.20572h-0.97716l-0.08572,-0.18858v-0.29143c0,0 -0.21803,-0.14382 -0.22286,-0.25715c-0.00331,-0.07765 0.06475,-0.1603 0.13715,-0.18858c0.10857,-0.0424 0.34286,0.06857 0.34286,0.06857c0.39388,-0.1858 0.5272,-0.05892 0.70287,0.01714z" fill="#803300" fill-rule="evenodd" stroke="#000000" stroke-width="1" stroke-linecap="butt" stroke-linejoin="miter" stroke-miterlimit="10"/><path d="M282.98777,166.65247c0,-0.07101 0.08443,-0.12857 0.18858,-0.12857c0.10415,0 0.18858,0.05756 0.18858,0.12857c0,0.07101 -0.08443,0.12857 -0.18858,0.12857c-0.10415,0 -0.18858,-0.05756 -0.18858,-0.12857z" fill="#000000" fill-rule="nonzero" stroke="#666666" stroke-width="0.5" stroke-linecap="round" stroke-linejoin="bevel" stroke-miterlimit="4"/><path d="M282.79921,166.34389c0,-0.11834 0.06523,-0.21428 0.1457,-0.21428c0.08047,0 0.1457,0.09593 0.1457,0.21428c0,0.11834 -0.06523,0.21428 -0.1457,0.21428c-0.08047,0 -0.1457,-0.09593 -0.1457,-0.21428z" fill="#ffffff" fill-rule="nonzero" stroke="#666666" stroke-width="0.50413" stroke-linecap="round" stroke-linejoin="bevel" stroke-miterlimit="4"/><path d="M282.7988,166.37136c0,-0.07123 0.06542,-0.12897 0.14611,-0.12897c0.0807,0 0.14611,0.05774 0.14611,0.12897c0,0.07123 -0.06542,0.12897 -0.14611,0.12897c-0.0807,0 -0.14611,-0.05774 -0.14611,-0.12897z" fill="#000000" fill-rule="nonzero" stroke="#666666" stroke-width="0.39166" stroke-linecap="round" stroke-linejoin="bevel" stroke-miterlimit="4"/><path d="M283.23606,166.34389c0,-0.11834 0.06523,-0.21428 0.1457,-0.21428c0.08047,0 0.1457,0.09593 0.1457,0.21428c0,0.11834 -0.06523,0.21428 -0.1457,0.21428c-0.08047,0 -0.1457,-0.09593 -0.1457,-0.21428z" fill="#ffffff" fill-rule="nonzero" stroke="#666666" stroke-width="0.50413" stroke-linecap="round" stroke-linejoin="bevel" stroke-miterlimit="4"/><path d="M283.23565,166.37136c0,-0.07123 0.06542,-0.12897 0.14611,-0.12897c0.0807,0 0.14611,0.05774 0.14611,0.12897c0,0.07123 -0.06542,0.12897 -0.14611,0.12897c-0.0807,0 -0.14611,-0.05774 -0.14611,-0.12897z" fill="#000000" fill-rule="nonzero" stroke="#666666" stroke-width="0.39166" stroke-linecap="round" stroke-linejoin="bevel" stroke-miterlimit="4"/><path d="M281.32475,168.8898v-2.09175h3.70321v2.09175z" fill="#803300" fill-rule="nonzero" stroke="#666666" stroke-width="0.46204" stroke-linecap="round" stroke-linejoin="bevel" stroke-miterlimit="4"/><text transform="translate(290.63352,162.89874) scale(0.00728,0.00728)" font-size="16" xml:space="preserve" fill="#ffffff" fill-rule="nonzero" stroke="none" stroke-width="1" stroke-linecap="butt" stroke-linejoin="miter" stroke-miterlimit="10" stroke-dasharray="" stroke-dashoffset="0" font-family="sans-serif" font-weight="bold" text-anchor="middle" style="mix-blend-mode: normal"><tspan x="0" dy="0">CUB</tspan></text><text transform="translate(290.63352,162.89874) scale(0.00728,0.00728)" font-size="16" xml:space="preserve" fill="#ffffff" fill-rule="nonzero" stroke="none" stroke-width="1" stroke-linecap="butt" stroke-linejoin="miter" stroke-miterlimit="10" stroke-dasharray="" stroke-dashoffset="0" font-family="sans-serif" font-weight="bold" text-anchor="middle" style="mix-blend-mode: normal"><tspan x="0" dy="0">Piper</tspan></text><path d="M282.57634,168.88966c0,0 0.17497,0.33381 0.08572,0.46287c-0.12879,0.18623 -0.44785,0.17042 -0.66858,0.12c-0.19947,-0.04556 -0.46269,-0.15833 -0.49715,-0.36001c-0.01522,-0.08906 0.15429,-0.22286 0.15429,-0.22286z" fill="#552200" fill-rule="evenodd" stroke="#000000" stroke-width="1" stroke-linecap="butt" stroke-linejoin="miter" stroke-miterlimit="10"/><path d="M284.49797,168.88966c0,0 0.16951,0.1338 0.15429,0.22286c-0.03447,0.20168 -0.29769,0.31444 -0.49715,0.36001c-0.22074,0.05042 -0.5398,0.06623 -0.66858,-0.12c-0.08925,-0.12906 0.08572,-0.46287 0.08572,-0.46287z" fill="#552200" fill-rule="evenodd" stroke="#000000" stroke-width="1" stroke-linecap="butt" stroke-linejoin="miter" stroke-miterlimit="10"/><path d="M282.42497,166.6092c0,0 0.13735,0.33426 0.06729,0.46349c-0.1011,0.18648 -0.35155,0.17065 -0.52482,0.12016c-0.15658,-0.04562 -0.3632,-0.15854 -0.39025,-0.36049c-0.01195,-0.08918 0.12111,-0.22316 0.12111,-0.22316c0.21015,-0.08019 0.42671,-0.14436 0.72668,0z" fill="#552200" fill-rule="evenodd" stroke="#000000" stroke-width="0.88658" stroke-linecap="butt" stroke-linejoin="miter" stroke-miterlimit="10"/><path d="M284.70476,166.66063c0,0 0.13306,0.13398 0.12111,0.22316c-0.02705,0.20195 -0.23368,0.31487 -0.39025,0.36049c-0.17327,0.05049 -0.42373,0.06631 -0.52482,-0.12016c-0.07006,-0.12923 0.06729,-0.46349 0.06729,-0.46349c0.24223,-0.13627 0.48445,-0.13802 0.72668,0z" fill="#552200" fill-rule="evenodd" stroke="#000000" stroke-width="0.88658" stroke-linecap="butt" stroke-linejoin="miter" stroke-miterlimit="10"/></g></g></g></svg>