<svg version="1.1" xmlns="http://www.w3.org/2000/svg" xmlns:xlink="http://www.w3.org/1999/xlink" width="114.14475" height="39.87077" viewBox="0,0,114.14475,39.87077"><g transform="translate(-182.70633,-160.06462)"><g data-paper-data="{&quot;isPaintingLayer&quot;:true}" stroke-dasharray="" stroke-dashoffset="0" style="mix-blend-mode: normal"><g data-paper-data="{&quot;index&quot;:null}" opacity="0.528"><path d="M278.24278,189.16259c-5.05502,0 -9.15292,-3.86513 -9.15292,-8.63301c0,-4.76788 4.0979,-8.63301 9.15292,-8.63301c5.05502,0 9.15292,3.86513 9.15292,8.63301c0,4.76788 -4.0979,8.63301 -9.15292,8.63301z" fill="#cccccc" fill-rule="nonzero" stroke="none" stroke-width="0.5" stroke-linecap="round" stroke-linejoin="bevel" stroke-miterlimit="4"/><path d="M284.89324,175.4648l-6.64425,5.71196l5.75835,-7.31131z" fill="#b3b3b3" fill-rule="evenodd" stroke="#000000" stroke-width="1" stroke-linecap="butt" stroke-linejoin="miter" stroke-miterlimit="10"/><path d="M282.7266,187.45531l-5.19082,-7.3113l6.64425,6.33646z" fill="#b3b3b3" fill-rule="evenodd" stroke="#000000" stroke-width="1" stroke-linecap="butt" stroke-linejoin="miter" stroke-miterlimit="10"/></g><path d="M254.19675,199.8184c-1.86641,0 -3.37944,-1.43738 -3.37944,-3.21047c0,-1.77309 1.51302,-3.21047 3.37944,-3.21047c1.86641,0 3.37944,1.43738 3.37944,3.21047c0,1.77309 -1.51302,3.21047 -3.37944,3.21047z" data-paper-data="{&quot;index&quot;:null}" fill="#000000" fill-rule="nonzero" stroke="none" stroke-width="0.04084" stroke-linecap="round" stroke-linejoin="bevel" stroke-miterlimit="4"/><path d="M295.01004,167.01181h-3.6394l-4.67923,0.64989l-46.53234,5.58908l-2.4696,-1.1698l-14.94754,1.1698l-15.33748,-0.25996v-0.77987l1.42977,-0.51991l11.17815,-2.20964h29.63513l4.28929,0.12998l34.44433,-3.6394c0,0 4.39926,-0.28023 6.49893,0.25996c0.75059,0.1931 1.79617,1.03982 1.79617,1.03982z" data-paper-data="{&quot;index&quot;:null}" fill="#e6e600" fill-rule="evenodd" stroke="#000000" stroke-width="0.08168" stroke-linecap="butt" stroke-linejoin="miter" stroke-miterlimit="10"/><path d="M251.72716,169.61137l-11.79277,3.22594l-2.24493,-0.62637l12.9861,-2.69426z" data-paper-data="{&quot;index&quot;:null}" fill="#999999" fill-rule="evenodd" stroke="#000000" stroke-width="0.08168" stroke-linecap="butt" stroke-linejoin="miter" stroke-miterlimit="10"/><path d="M291.24065,166.75185l-4.93919,0.64989" data-paper-data="{&quot;index&quot;:null}" fill="none" fill-rule="evenodd" stroke="#ffffff" stroke-width="0.08168" stroke-linecap="butt" stroke-linejoin="miter" stroke-miterlimit="10"/><path d="M276.2931,168.70152l-19.23683,1.8197" data-paper-data="{&quot;index&quot;:null}" fill="none" fill-rule="evenodd" stroke="#00ff00" stroke-width="0.08168" stroke-linecap="butt" stroke-linejoin="miter" stroke-miterlimit="10"/><path d="M210.91387,172.08097l-0.25996,-0.12998l17.41713,-0.12998" data-paper-data="{&quot;index&quot;:null}" fill="none" fill-rule="evenodd" stroke="#00ff00" stroke-width="0.08168" stroke-linecap="butt" stroke-linejoin="miter" stroke-miterlimit="10"/><path d="M295.91988,167.01182c0,0 0.59152,-0.178 0.75634,0.12997c0.32,0.59791 0.04963,1.7653 -0.62637,1.8197c-12.6181,1.01535 -37.95375,3.37944 -37.95375,3.37944l-18.06702,1.42976l0.51991,-0.53168l51.34155,-6.2272h4.02934z" data-paper-data="{&quot;index&quot;:null}" fill="#d4aa00" fill-rule="evenodd" stroke="#000000" stroke-width="0.08168" stroke-linecap="butt" stroke-linejoin="miter" stroke-miterlimit="10"/><path d="M260.43572,169.09146l-3.24947,-6.88887" data-paper-data="{&quot;index&quot;:null}" fill="none" fill-rule="evenodd" stroke="#000000" stroke-width="0.08168" stroke-linecap="butt" stroke-linejoin="miter" stroke-miterlimit="10"/><path d="M187.25777,176.63022c-0.38994,0.51992 1.68972,0.6499 1.03982,1.03983c-0.6499,0.38993 -5.32913,-0.51991 -5.32913,-0.51991l4.2893,-0.51992z" data-paper-data="{&quot;index&quot;:null}" fill="#e6e600" fill-rule="evenodd" stroke="#000000" stroke-width="0.08168" stroke-linecap="butt" stroke-linejoin="miter" stroke-miterlimit="10"/><path d="M277.33295,178.44993l0.64989,5.06917c0,0 -1.44105,2.83983 -2.72955,3.6394c-3.63193,2.25377 -12.60793,2.33962 -12.60793,2.33962l2.20964,4.67923l-1.68972,1.8197l-8.57859,-5.84904l2.27463,1.49475l-2.27463,5.00418l-1.1698,0.25996l-4.15932,-7.14883l-55.37089,-8.70857l-4.41927,-2.46959l-2.33962,-1.68972c0,0 -0.68417,-1.70704 -0.64989,-2.59957c0.08416,-2.19054 0.68755,-4.1148 1.22921,-6.23898c0.42418,-1.6635 0.93916,-3.56156 1.76029,-5.06917c0.42521,-0.78069 1.21367,-1.32113 1.94968,-1.8197c0.67397,-0.45652 1.39948,-0.96063 2.20964,-1.03982c1.06675,-0.10426 2.17641,0.27053 3.11949,0.77987c0.67444,0.36425 1.19924,0.97069 1.68972,1.55974c1.86904,2.24463 3.16057,4.91371 4.67923,7.40878c0.75725,1.24409 2.20964,3.76937 2.20964,3.76937l15.07752,-0.51991l17.02719,-0.90985l3.11949,1.16981l0.51991,0.25995l21.18652,-1.55974l4.41926,4.80921l8.70857,0.64989z" data-paper-data="{&quot;index&quot;:null}" fill="#ffff00" fill-rule="evenodd" stroke="#000000" stroke-width="0.08168" stroke-linecap="butt" stroke-linejoin="miter" stroke-miterlimit="10"/><path d="M260.69567,172.09062l1.55974,7.00919l-0.77987,6.62891l-0.12998,4.15931l2.46959,5.58909l-0.90984,0.51991l-6.0765,-4.2568l-2.27463,4.93919l-1.2023,0.16248l-4.09433,-6.82388l-54.20108,-8.57859l-2.07966,-1.03983l2.85953,-3.76938l11.04818,-0.51991l-0.90985,6.49893l33.92442,4.80921l1.03983,-11.04818l-0.3627,-2.68301z" data-paper-data="{&quot;index&quot;:null}" fill="#999999" fill-rule="evenodd" stroke="none" stroke-width="0.08168" stroke-linecap="butt" stroke-linejoin="miter" stroke-miterlimit="10" opacity="0.6"/><path d="M265.24492,182.34928h4.41927l-7.14882,1.8197l0.77987,-1.8197l-27.9454,-1.68972v-0.90985l31.06489,0.77987z" data-paper-data="{&quot;index&quot;:null}" fill="#000000" fill-rule="evenodd" stroke="#000000" stroke-width="0.08168" stroke-linecap="butt" stroke-linejoin="miter" stroke-miterlimit="10"/><path d="M211.69374,178.5799l-0.12999,0.90985l-15.46745,-1.29979z" data-paper-data="{&quot;index&quot;:null}" fill="#000000" fill-rule="evenodd" stroke="#000000" stroke-width="0.08168" stroke-linecap="butt" stroke-linejoin="miter" stroke-miterlimit="10"/><g data-paper-data="{&quot;index&quot;:null}" fill="#000000" fill-rule="nonzero" stroke="none" stroke-width="1" stroke-linecap="butt" stroke-linejoin="miter" stroke-miterlimit="10"><path d="M234.27956,181.30411c-0.28053,0.69528 -0.90248,1.09512 -1.6894,1.04845c-0.84653,-0.0502 -1.48103,-0.54848 -1.43295,-1.35924c0.05338,-0.90018 0.84989,-1.11617 1.48226,-1.28806c0.41947,-0.11272 0.77195,-0.20549 0.78751,-0.46779c0.0152,-0.25635 -0.179,-0.41144 -0.53073,-0.4323c-0.3875,-0.02298 -0.61342,0.15506 -0.74154,0.39873l-0.7072,-0.28124c0.18753,-0.53927 0.70112,-0.92758 1.4463,-0.88339c0.90018,0.05338 1.38176,0.60839 1.34464,1.23435c-0.04914,0.82865 -0.76638,1.01943 -1.38647,1.18606c-0.46191,0.12217 -0.86314,0.22999 -0.884,0.58172c-0.01979,0.33384 0.23822,0.52263 0.6436,0.54667c0.40538,0.02404 0.74917,-0.22478 0.95099,-0.60167l0.717,0.31771z"/><path d="M230.30976,182.14554l-0.8048,-0.04773l0.09121,-1.53806l-0.98364,-0.05833c-1.01941,-0.06045 -1.38272,-0.79391 -1.34666,-1.40198c0.03853,-0.64981 0.44774,-1.29557 1.50292,-1.233l1.78844,0.10606zM228.62201,179.73623l1.01941,0.06045l0.06576,-1.10884l-1.01941,-0.06045c-0.42923,-0.02545 -0.57316,0.28308 -0.5873,0.52154c-0.01556,0.26231 0.11616,0.56326 0.52154,0.5873z"/><path d="M226.61452,180.5325l-1.56191,-0.09262l0.04419,-0.74519l1.56191,0.09262z"/><path d="M224.29301,177.60102l-0.24747,4.17304l-1.38306,-0.08202c-1.5321,-0.09086 -1.97761,-1.25394 -1.92105,-2.20778c0.06152,-1.03729 0.68412,-2.05328 2.14468,-1.96667zM222.61235,180.92332l0.67365,0.03995l0.15696,-2.6469l-0.73922,-0.04384c-0.73326,-0.04348 -1.08917,0.61143 -1.1277,1.26123c-0.03642,0.61404 0.21363,1.34077 1.03631,1.38956z"/><path d="M217.20847,181.36861l-0.86441,-0.05126l1.84514,-4.07829l0.78692,0.04667l1.35021,4.26778l-0.86441,-0.05126l-0.27066,-0.88351l-1.6096,-0.09545zM217.88745,179.80558l1.08499,0.06434l-0.347,-1.10938c-0.03537,-0.10978 -0.08544,-0.27428 -0.10888,-0.38335c-0.03617,0.10554 -0.10533,0.26297 -0.15342,0.3678z"/><path d="M216.17952,179.21373c-0.06469,1.09095 -0.67643,2.12553 -1.96411,2.04917c-0.87634,-0.05196 -1.51569,-0.67018 -1.45241,-1.73728l0.03641,-0.61403l1.5321,0.09086l-0.04525,0.76307l-0.70942,-0.04207l-0.00283,0.04769c-0.02192,0.36961 0.28197,0.69274 0.68735,0.71678c0.71538,0.04242 1.04183,-0.62022 1.08355,-1.32367c0.03606,-0.60808 -0.15048,-1.39686 -0.91951,-1.44246c-0.36365,-0.02156 -0.61661,0.20872 -0.81803,0.47795l-0.68538,-0.44745c0.31337,-0.44207 0.7386,-0.85357 1.54936,-0.80549c1.25787,0.07459 1.76826,1.25349 1.70816,2.26694z"/></g><path d="M264.98497,178.44992l-4.15932,-5.45911l1.29979,-0.90984l4.54924,4.80921z" data-paper-data="{&quot;index&quot;:null}" fill="#00ffff" fill-rule="evenodd" stroke="#000000" stroke-width="0.08168" stroke-linecap="butt" stroke-linejoin="miter" stroke-miterlimit="10"/><path d="M281.36229,170.1313l-25.91975,19.04789l-0.92962,0.07349l2.15344,-1.57423l10.78822,-7.79871l1.29979,-6.49893l-12.08802,14.29764l-2.33962,1.55974l15.2075,-18.06703h0.51991l-2.07966,8.44861l11.30813,-8.96852z" data-paper-data="{&quot;index&quot;:null}" fill="#787800" fill-rule="evenodd" stroke="#000000" stroke-width="0.08168" stroke-linecap="butt" stroke-linejoin="miter" stroke-miterlimit="10"/><path d="M273.9535,182.73922c-1.35994,-0.3398 -0.66744,-2.38998 0,-4.41927l4.28929,-0.25996c0,0 1.01973,-0.33058 1.29978,0c0.3407,0.40218 -0.25996,1.55974 -0.25996,1.55974l0.64989,0.38994l-0.51991,1.1698l-1.29978,2.07966z" data-paper-data="{&quot;index&quot;:null}" fill="#000000" fill-rule="evenodd" stroke="#000000" stroke-width="0.08168" stroke-linecap="butt" stroke-linejoin="miter" stroke-miterlimit="10"/><g data-paper-data="{&quot;index&quot;:null}" fill-rule="nonzero" stroke-width="0.5" stroke-linecap="round" stroke-linejoin="bevel" stroke-miterlimit="4"><path d="M279.09948,179.92109c0.06592,0.00037 0.1311,0.02644 0.19156,0.0766c-0.17705,0.14639 -0.29168,0.47947 -0.29179,0.84781c0.00025,0.3688 0.1153,0.70204 0.29273,0.8479c-0.06075,0.0504 -0.12627,0.07648 -0.1925,0.07661c-0.12844,0.00002 -0.25163,-0.09738 -0.34245,-0.27076c-0.09082,-0.17338 -0.14184,-0.40855 -0.14184,-0.65375c0.00002,-0.51057 0.21685,-0.92445 0.48429,-0.92441z" fill="#ffffff" stroke="#00ff00" opacity="0.181"/><path d="M279.48353,181.77002c-0.26745,0 -0.48426,-0.41391 -0.48426,-0.92449c0,-0.51058 0.21681,-0.92449 0.48426,-0.92449c0.26745,0 0.48426,0.41391 0.48426,0.92449c0,0.51058 -0.21681,0.92449 -0.48426,0.92449z" fill="#e6e6e6" stroke="none"/></g><g data-paper-data="{&quot;index&quot;:null}" fill-rule="nonzero" stroke-width="0.5" stroke-linecap="round" stroke-linejoin="bevel" stroke-miterlimit="4"><path d="M277.96556,179.92109c0.06592,0.00037 0.1311,0.02644 0.19156,0.0766c-0.17705,0.14639 -0.29168,0.47947 -0.29179,0.84781c0.00025,0.3688 0.1153,0.70204 0.29273,0.8479c-0.06075,0.0504 -0.12627,0.07648 -0.1925,0.07661c-0.12844,0.00002 -0.25163,-0.09738 -0.34245,-0.27076c-0.09082,-0.17338 -0.14184,-0.40855 -0.14184,-0.65375c0.00002,-0.51057 0.21685,-0.92445 0.48429,-0.92441z" fill="#ffffff" stroke="#00ff00" opacity="0.181"/><path d="M278.34961,181.77002c-0.26745,0 -0.48426,-0.41391 -0.48426,-0.92449c0,-0.51058 0.21681,-0.92449 0.48426,-0.92449c0.26745,0 0.48426,0.41391 0.48426,0.92449c0,0.51058 -0.21681,0.92449 -0.48426,0.92449z" fill="#e6e6e6" stroke="none"/></g><g data-paper-data="{&quot;index&quot;:null}" fill-rule="nonzero" stroke-width="0.5" stroke-linecap="round" stroke-linejoin="bevel" stroke-miterlimit="4"><path d="M276.68989,179.92109c0.06592,0.00037 0.1311,0.02644 0.19156,0.0766c-0.17705,0.14639 -0.29168,0.47947 -0.29179,0.84781c0.00025,0.3688 0.1153,0.70204 0.29273,0.8479c-0.06075,0.0504 -0.12627,0.07648 -0.1925,0.07661c-0.12844,0.00002 -0.25163,-0.09738 -0.34245,-0.27076c-0.09082,-0.17338 -0.14184,-0.40855 -0.14184,-0.65375c0.00002,-0.51057 0.21685,-0.92445 0.48429,-0.92441z" fill="#ffffff" stroke="#00ff00" opacity="0.181"/><path d="M277.07394,181.77002c-0.26745,0 -0.48426,-0.41391 -0.48426,-0.92449c0,-0.51058 0.21681,-0.92449 0.48426,-0.92449c0.26745,0 0.48426,0.41391 0.48426,0.92449c0,0.51058 -0.21681,0.92449 -0.48426,0.92449z" fill="#e6e6e6" stroke="none"/></g><g data-paper-data="{&quot;index&quot;:null}" fill-rule="nonzero" stroke-width="0.5" stroke-linecap="round" stroke-linejoin="bevel" stroke-miterlimit="4"><path d="M275.55597,179.92109c0.06592,0.00037 0.1311,0.02644 0.19156,0.0766c-0.17705,0.14639 -0.29168,0.47947 -0.29179,0.84781c0.00025,0.3688 0.1153,0.70204 0.29273,0.8479c-0.06075,0.0504 -0.12627,0.07648 -0.1925,0.07661c-0.12844,0.00002 -0.25163,-0.09738 -0.34245,-0.27076c-0.09082,-0.17338 -0.14184,-0.40855 -0.14184,-0.65375c0.00002,-0.51057 0.21685,-0.92445 0.48429,-0.92441z" fill="#ffffff" stroke="#00ff00" opacity="0.181"/><path d="M275.94002,181.77002c-0.26745,0 -0.48426,-0.41391 -0.48426,-0.92449c0,-0.51058 0.21681,-0.92449 0.48426,-0.92449c0.26745,0 0.48426,0.41391 0.48426,0.92449c0,0.51058 -0.21681,0.92449 -0.48426,0.92449z" fill="#e6e6e6" stroke="none"/></g><path d="M263.42522,178.31995l-3.24947,0.90985l-3.89935,-5.71906l2.85953,-0.25996z" data-paper-data="{&quot;index&quot;:null}" fill="#00ffff" fill-rule="evenodd" stroke="#000000" stroke-width="0.08168" stroke-linecap="butt" stroke-linejoin="miter" stroke-miterlimit="10"/><path d="M254.84664,173.25078l3.89935,6.23898l-6.49893,0.12997l-0.38993,-6.10899z" data-paper-data="{&quot;index&quot;:null}" fill="#00ffff" fill-rule="evenodd" stroke="#000000" stroke-width="0.08168" stroke-linecap="butt" stroke-linejoin="miter" stroke-miterlimit="10"/><path d="M251.4672,179.48975l-3.76938,-0.12998h-2.07966c0,0 -0.65803,-0.27784 -0.90984,-0.51992c-0.29467,-0.28325 -0.53721,-0.64692 -0.6499,-1.03982c-0.16721,-0.58306 -0.19532,-1.24544 0,-1.8197c0.22882,-0.67276 1.29979,-1.68972 1.29979,-1.68972l1.42976,-0.77987l4.15931,0.25995z" data-paper-data="{&quot;index&quot;:null}" fill="#00ffff" fill-rule="evenodd" stroke="#000000" stroke-width="0.08168" stroke-linecap="butt" stroke-linejoin="miter" stroke-miterlimit="10"/><path d="M246.13735,179.49092l-1.43059,-0.60099v-0.84138l0.78032,-0.96158l1.17048,-0.3606l-0.26011,-0.96158c0,0 -0.41653,-0.64365 -0.39996,-1.0033c0.02019,-0.43915 0.59875,-1.17512 0.59875,-1.17512l1.36185,-0.07349l0.74351,0.18877c0.41105,0.18461 0.35925,0.33537 0.44168,1.1772l0.2258,0.78273l-0.50061,0.52858v1.13724l0.39016,0.36059l0.78032,1.77116z" data-paper-data="{&quot;index&quot;:null}" fill="#000000" fill-rule="evenodd" stroke="#000000" stroke-width="0.07857" stroke-linecap="butt" stroke-linejoin="miter" stroke-miterlimit="10"/><path d="M266.93466,199.93539c-1.9382,0 -3.50942,-1.49266 -3.50942,-3.33395c0,-1.84129 1.57122,-3.33395 3.50942,-3.33395c1.9382,0 3.50942,1.49266 3.50942,3.33395c0,1.84129 -1.57122,3.33395 -3.50942,3.33395z" data-paper-data="{&quot;index&quot;:null}" fill="#000000" fill-rule="nonzero" stroke="none" stroke-width="0.04084" stroke-linecap="round" stroke-linejoin="bevel" stroke-miterlimit="4"/><path d="M266.93465,198.26842c-0.9691,0 -1.75471,-0.74633 -1.75471,-1.66698c0,-0.92065 0.78561,-1.66698 1.75471,-1.66698c0.9691,0 1.75471,0.74633 1.75471,1.66698c0,0.92065 -0.78561,1.66698 -1.75471,1.66698z" data-paper-data="{&quot;index&quot;:null}" fill="#ffff00" fill-rule="nonzero" stroke="none" stroke-width="0.04084" stroke-linecap="round" stroke-linejoin="bevel" stroke-miterlimit="4"/><path d="M196.74619,181.43943v0.77987l-1.68972,-0.25996l-3.76938,2.33962l-0.12998,-0.77987l2.98951,-2.33962z" data-paper-data="{&quot;index&quot;:null}" fill="#000000" fill-rule="evenodd" stroke="#000000" stroke-width="0.08168" stroke-linecap="butt" stroke-linejoin="miter" stroke-miterlimit="10"/><path d="M190.31225,185.3388c-0.68196,0 -1.2348,-0.55284 -1.2348,-1.2348c0,-0.68196 0.55284,-1.2348 1.2348,-1.2348c0.68196,0 1.2348,0.55284 1.2348,1.2348c0,0.68196 -0.55284,1.2348 -1.2348,1.2348z" data-paper-data="{&quot;index&quot;:null}" fill="#000000" fill-rule="nonzero" stroke="none" stroke-width="0.04084" stroke-linecap="round" stroke-linejoin="bevel" stroke-miterlimit="4"/><path d="M195.18646,176.37027l11.17816,-1.03983l0.51991,0.77987z" data-paper-data="{&quot;index&quot;:null}" fill="#e6e600" fill-rule="evenodd" stroke="#000000" stroke-width="0.08168" stroke-linecap="butt" stroke-linejoin="miter" stroke-miterlimit="10"/><path d="M268.76106,196.55914c-0.00026,0.49681 -0.23376,0.96762 -0.63687,1.28411c0.22876,-0.28838 0.35278,-0.63953 0.35338,-1.00063c0,-0.44212 -0.18487,-0.86612 -0.51395,-1.17874c-0.32908,-0.31262 -0.7754,-0.48825 -1.24078,-0.48824c-0.40811,0.00026 -0.80336,0.13565 -1.11773,0.38287c0.33094,-0.4189 0.84988,-0.66569 1.40121,-0.66635c0.46538,0 0.9117,0.17562 1.24078,0.48824c0.32908,0.31262 0.51395,0.73663 0.51395,1.17874z" data-paper-data="{&quot;index&quot;:null}" fill="#ffffff" fill-rule="nonzero" stroke="none" stroke-width="0.04084" stroke-linecap="round" stroke-linejoin="bevel" stroke-miterlimit="4"/><path d="M199.47575,165.1921v0v-0.25996h-5.71906v10.65825h-6.75888" data-paper-data="{&quot;index&quot;:null}" fill="none" fill-rule="evenodd" stroke="#666666" stroke-width="0.08168" stroke-linecap="butt" stroke-linejoin="miter" stroke-miterlimit="10"/><g data-paper-data="{&quot;index&quot;:null}"><path d="M196.37014,165.97857c0.17567,-0.07606 0.30899,-0.20294 0.70287,-0.01714c0,0 0.23429,-0.11097 0.34286,-0.06857c0.0724,0.02828 0.14046,0.11093 0.13715,0.18858c-0.00483,0.11333 -0.22286,0.25715 -0.22286,0.25715v0.29143l-0.08572,0.18858h-0.97716l-0.08572,-0.20572l-0.12,-0.32572c0,0 -0.19546,-0.0818 -0.22286,-0.17143c-0.02113,-0.06913 0.01592,-0.1562 0.06857,-0.20572c0.06462,-0.06078 0.16962,-0.08303 0.25715,-0.06857c0.08131,0.01344 0.20572,0.13715 0.20572,0.13715z" fill="#803300" fill-rule="evenodd" stroke="#000000" stroke-width="1" stroke-linecap="butt" stroke-linejoin="miter" stroke-miterlimit="10"/><path d="M196.713,166.80146c-0.10415,0 -0.18858,-0.05756 -0.18858,-0.12857c0,-0.07101 0.08443,-0.12857 0.18858,-0.12857c0.10415,0 0.18858,0.05756 0.18858,0.12857c0,0.07101 -0.08443,0.12857 -0.18858,0.12857z" fill="#000000" fill-rule="nonzero" stroke="#666666" stroke-width="0.5" stroke-linecap="round" stroke-linejoin="bevel" stroke-miterlimit="4"/><path d="M196.94444,166.57859c-0.08047,0 -0.1457,-0.09594 -0.1457,-0.21428c0,-0.11835 0.06523,-0.21428 0.1457,-0.21428c0.08047,0 0.1457,0.09594 0.1457,0.21428c0,0.11835 -0.06523,0.21428 -0.1457,0.21428z" fill="#ffffff" fill-rule="nonzero" stroke="#666666" stroke-width="0.50413" stroke-linecap="round" stroke-linejoin="bevel" stroke-miterlimit="4"/><path d="M196.94444,166.52075c-0.08069,0 -0.14611,-0.05774 -0.14611,-0.12897c0,-0.07123 0.06541,-0.12897 0.14611,-0.12897c0.08069,0 0.14611,0.05774 0.14611,0.12897c0,0.07123 -0.06541,0.12897 -0.14611,0.12897z" fill="#000000" fill-rule="nonzero" stroke="#666666" stroke-width="0.39166" stroke-linecap="round" stroke-linejoin="bevel" stroke-miterlimit="4"/><path d="M196.50759,166.57859c-0.08047,0 -0.1457,-0.09594 -0.1457,-0.21428c0,-0.11835 0.06523,-0.21428 0.1457,-0.21428c0.08047,0 0.1457,0.09594 0.1457,0.21428c0,0.11835 -0.06523,0.21428 -0.1457,0.21428z" fill="#ffffff" fill-rule="nonzero" stroke="#666666" stroke-width="0.50413" stroke-linecap="round" stroke-linejoin="bevel" stroke-miterlimit="4"/><path d="M196.50759,166.52075c-0.08069,0 -0.14611,-0.05774 -0.14611,-0.12897c0,-0.07123 0.06541,-0.12897 0.14611,-0.12897c0.08069,0 0.14611,0.05774 0.14611,0.12897c0,0.07123 -0.06541,0.12897 -0.14611,0.12897z" fill="#000000" fill-rule="nonzero" stroke="#666666" stroke-width="0.39166" stroke-linecap="round" stroke-linejoin="bevel" stroke-miterlimit="4"/><path d="M194.86139,168.91022v-2.09175h3.70321v2.09175z" fill="#803300" fill-rule="nonzero" stroke="#666666" stroke-width="0.46204" stroke-linecap="round" stroke-linejoin="bevel" stroke-miterlimit="4"/><text transform="translate(189.25583,162.91916) rotate(-180) scale(0.00728,-0.00728)" font-size="16" xml:space="preserve" fill="#ffffff" fill-rule="nonzero" stroke="none" stroke-width="1" stroke-linecap="butt" stroke-linejoin="miter" stroke-miterlimit="10" stroke-dasharray="" stroke-dashoffset="0" font-family="sans-serif" font-weight="bold" text-anchor="middle" style="mix-blend-mode: normal"><tspan x="0" dy="0">CUB</tspan></text><text transform="translate(189.25583,162.91916) rotate(-180) scale(0.00728,-0.00728)" font-size="16" xml:space="preserve" fill="#ffffff" fill-rule="nonzero" stroke="none" stroke-width="1" stroke-linecap="butt" stroke-linejoin="miter" stroke-miterlimit="10" stroke-dasharray="" stroke-dashoffset="0" font-family="sans-serif" font-weight="bold" text-anchor="middle" style="mix-blend-mode: normal"><tspan x="0" dy="0">Piper</tspan></text><path d="M198.23873,168.91008c0,0 0.16951,0.1338 0.15429,0.22286c-0.03446,0.20168 -0.29768,0.31445 -0.49715,0.36001c-0.22073,0.05042 -0.53979,0.06623 -0.66858,-0.12c-0.08925,-0.12906 0.08572,-0.46287 0.08572,-0.46287z" fill="#552200" fill-rule="evenodd" stroke="#000000" stroke-width="1" stroke-linecap="butt" stroke-linejoin="miter" stroke-miterlimit="10"/><path d="M196.3171,168.91008c0,0 0.17497,0.33381 0.08572,0.46287c-0.12878,0.18623 -0.44784,0.17042 -0.66858,0.12c-0.19946,-0.04557 -0.46268,-0.15833 -0.49715,-0.36001c-0.01522,-0.08906 0.15429,-0.22286 0.15429,-0.22286z" fill="#552200" fill-rule="evenodd" stroke="#000000" stroke-width="1" stroke-linecap="butt" stroke-linejoin="miter" stroke-miterlimit="10"/><path d="M197.46437,166.62962c0.29997,-0.14436 0.51653,-0.08019 0.72668,0c0,0 0.13306,0.13398 0.12111,0.22316c-0.02705,0.20195 -0.23367,0.31487 -0.39025,0.36049c-0.17327,0.05049 -0.42372,0.06632 -0.52482,-0.12016c-0.07006,-0.12923 0.06729,-0.46349 0.06729,-0.46349z" fill="#552200" fill-rule="evenodd" stroke="#000000" stroke-width="0.88658" stroke-linecap="butt" stroke-linejoin="miter" stroke-miterlimit="10"/><path d="M195.18458,166.68105c0.24223,-0.13802 0.48445,-0.13627 0.72668,0c0,0 0.13735,0.33426 0.06729,0.46349c-0.10109,0.18647 -0.35155,0.17065 -0.52482,0.12016c-0.15657,-0.04562 -0.3632,-0.15854 -0.39025,-0.36049c-0.01195,-0.08918 0.12111,-0.22316 0.12111,-0.22316z" fill="#552200" fill-rule="evenodd" stroke="#000000" stroke-width="0.88658" stroke-linecap="butt" stroke-linejoin="miter" stroke-miterlimit="10"/></g></g></g></svg>