<?xml version="1.0" encoding="UTF-8" standalone="no"?>
<!-- Created with Inkscape (http://www.inkscape.org/) -->

<svg
   width="529.13391"
   height="397.29248"
   viewBox="0 0 140.00001 105.11697"
   version="1.1"
   id="svg4836"
   inkscape:version="1.2.2 (732a01da63, 2022-12-09)"
   sodipodi:docname="Ambulance-128x128-px.svg"
   xmlns:inkscape="http://www.inkscape.org/namespaces/inkscape"
   xmlns:sodipodi="http://sodipodi.sourceforge.net/DTD/sodipodi-0.dtd"
   xmlns="http://www.w3.org/2000/svg"
   xmlns:svg="http://www.w3.org/2000/svg"
   xmlns:rdf="http://www.w3.org/1999/02/22-rdf-syntax-ns#"
   xmlns:cc="http://creativecommons.org/ns#"
   xmlns:dc="http://purl.org/dc/elements/1.1/">
  <defs
     id="defs4830" />
  <sodipodi:namedview
     id="base"
     pagecolor="#ffffff"
     bordercolor="#666666"
     borderopacity="1.0"
     inkscape:pageopacity="0.0"
     inkscape:pageshadow="2"
     inkscape:zoom="4.46875"
     inkscape:cx="60.195804"
     inkscape:cy="43.636364"
     inkscape:document-units="mm"
     inkscape:current-layer="layer1"
     showgrid="true"
     units="px"
     inkscape:window-width="1920"
     inkscape:window-height="1017"
     inkscape:window-x="1912"
     inkscape:window-y="-8"
     inkscape:window-maximized="1"
     inkscape:showpageshadow="2"
     inkscape:pagecheckerboard="0"
     inkscape:deskcolor="#d1d1d1">
    <inkscape:grid
       type="xygrid"
       id="grid5425"
       empspacing="1"
       originx="-0.95889047"
       originy="-5.3833995" />
  </sodipodi:namedview>
  <metadata
     id="metadata4833">
    <rdf:RDF>
      <cc:Work
         rdf:about="">
        <dc:format>image/svg+xml</dc:format>
        <dc:type
           rdf:resource="http://purl.org/dc/dcmitype/StillImage" />
        <dc:title />
      </cc:Work>
    </rdf:RDF>
  </metadata>
  <g
     inkscape:label="Layer 1"
     inkscape:groupmode="layer"
     id="layer1"
     transform="translate(-0.95889049,-268.51674)">
    <g
       id="g4666"
       transform="matrix(2.0907959,0,0,2.0907959,-10.796209,-228.04101)">
      <path
         inkscape:connector-curvature="0"
         id="rect4507"
         d="m 26.938146,243.75854 c -0.527251,-0.002 -0.984697,0.10317 -1.270725,0.44287 -3.649602,2.49873 -5.3062,10.65254 -9.259898,16.18402 -2.653332,3.71218 -6.8603943,4.38461 -8.7529543,7.35872 -1.532392,2.40813 -1.20106,7.13269 -0.02997,9.83145 0.337744,0.58223 1.069642,1.08638 2.09703,1.51618 a 8.7474945,8.7474945 0 0 1 8.2857973,-5.96863 8.7474945,8.7474945 0 0 1 8.690427,7.83518 c 0.62234,-0.0164 1.243023,-0.0379 1.859317,-0.0677 0.361014,0.10149 0.740495,0.15916 1.134814,0.15916 h 19.19056 a 8.7474945,8.7474945 0 0 1 8.675957,-7.68997 8.7474945,8.7474945 0 0 1 8.672338,7.68997 h 1.185975 c 2.307097,0 4.164603,-1.8575 4.164603,-4.1646 v -28.6613 c 0,-2.3071 -1.857506,-4.16409 -4.164603,-4.16409 H 29.691982 c -0.801436,0 -1.875083,-0.29845 -2.753836,-0.30127 z"
         style="opacity:1;fill:#ffffff;fill-opacity:1;stroke:#2d2d2d;stroke-width:2;stroke-miterlimit:4;stroke-dasharray:none;stroke-dashoffset:0;stroke-opacity:1" />
      <g
         transform="translate(74.856401,0.33492797)"
         id="g4592">
        <path
           style="opacity:1;fill:#999999;fill-opacity:1;stroke:#2d2d2d;stroke-width:0.837605;stroke-miterlimit:4;stroke-dasharray:none;stroke-dashoffset:0;stroke-opacity:1"
           d="m -12.515416,284.31339 a 6.0974925,6.0974925 0 0 1 -8.458255,1.67834 6.0974925,6.0974925 0 0 1 -1.678334,-8.45826 6.0974925,6.0974925 0 0 1 8.458253,-1.67834 6.0974925,6.0974925 0 0 1 1.678336,8.45826 z"
           id="path4530"
           inkscape:connector-curvature="0" />
        <path
           sodipodi:type="inkscape:offset"
           inkscape:radius="-5.511168"
           inkscape:original="M 30.980469 246.77148 A 14.559344 14.559344 0 0 0 16.421875 261.33008 A 14.559344 14.559344 0 0 0 30.980469 275.88867 A 14.559344 14.559344 0 0 0 45.541016 261.33008 A 14.559344 14.559344 0 0 0 30.980469 246.77148 z "
           style="opacity:1;fill:#cccccc;fill-opacity:1;stroke:#2d2d2d;stroke-width:2.399;stroke-miterlimit:4;stroke-dasharray:none;stroke-dashoffset:0;stroke-opacity:1"
           id="path4553"
           d="m 30.980469,252.2832 c -4.737305,2.5e-4 -9.046633,4.30957 -9.046875,9.04688 2.45e-4,4.7373 4.309572,9.04663 9.046875,9.04687 4.737707,3.9e-4 9.048583,-4.30916 9.048828,-9.04687 -2.42e-4,-4.73771 -4.311119,-9.04727 -9.048828,-9.04688 z"
           transform="matrix(0.34811281,0.23283722,-0.23283722,0.34811281,32.478847,182.73757)" />
        <circle
           style="opacity:1;fill:#2d2d2d;fill-opacity:1;stroke:none;stroke-width:0.418803;stroke-miterlimit:4;stroke-dasharray:none;stroke-dashoffset:0;stroke-opacity:1"
           id="path4563"
           cx="141.60129"
           cy="243.10674"
           r="0.59614205"
           transform="rotate(33.776809)" />
      </g>
      <g
         transform="translate(34.999973,0.16746399)"
         id="g4600">
        <path
           inkscape:connector-curvature="0"
           id="path4594"
           d="m -12.515416,284.31339 a 6.0974925,6.0974925 0 0 1 -8.458255,1.67834 6.0974925,6.0974925 0 0 1 -1.678334,-8.45826 6.0974925,6.0974925 0 0 1 8.458253,-1.67834 6.0974925,6.0974925 0 0 1 1.678336,8.45826 z"
           style="opacity:1;fill:#999999;fill-opacity:1;stroke:#2d2d2d;stroke-width:0.837605;stroke-miterlimit:4;stroke-dasharray:none;stroke-dashoffset:0;stroke-opacity:1" />
        <path
           transform="matrix(0.34811281,0.23283722,-0.23283722,0.34811281,32.478847,182.73757)"
           d="m 30.980469,252.2832 c -4.737305,2.5e-4 -9.046633,4.30957 -9.046875,9.04688 2.45e-4,4.7373 4.309572,9.04663 9.046875,9.04687 4.737707,3.9e-4 9.048583,-4.30916 9.048828,-9.04687 -2.42e-4,-4.73771 -4.311119,-9.04727 -9.048828,-9.04688 z"
           id="path4596"
           style="opacity:1;fill:#cccccc;fill-opacity:1;stroke:#2d2d2d;stroke-width:2.399;stroke-miterlimit:4;stroke-dasharray:none;stroke-dashoffset:0;stroke-opacity:1"
           inkscape:original="M 30.980469 246.77148 A 14.559344 14.559344 0 0 0 16.421875 261.33008 A 14.559344 14.559344 0 0 0 30.980469 275.88867 A 14.559344 14.559344 0 0 0 45.541016 261.33008 A 14.559344 14.559344 0 0 0 30.980469 246.77148 z "
           inkscape:radius="-5.511168"
           sodipodi:type="inkscape:offset" />
        <circle
           transform="rotate(33.776809)"
           r="0.59614205"
           cy="243.10674"
           cx="141.60129"
           id="circle4598"
           style="opacity:1;fill:#2d2d2d;fill-opacity:1;stroke:none;stroke-width:0.418803;stroke-miterlimit:4;stroke-dasharray:none;stroke-dashoffset:0;stroke-opacity:1" />
      </g>
      <g
         transform="matrix(1.028724,0,0,0.64292599,21.014495,77.770041)"
         id="g4618">
        <path
           style="opacity:1;fill:#0084c8;fill-opacity:1;stroke:#2d2d2d;stroke-width:1;stroke-miterlimit:4;stroke-dasharray:none;stroke-dashoffset:0;stroke-opacity:1"
           d="M 16.731295,256.43402 H 12.72807 c -0.103957,0 -0.187647,-0.10898 -0.187647,-0.24434 -0.315336,-6.39251 -0.378595,-7.31485 4.190872,-7.24867 0.103957,0 0.187654,0.10897 0.187654,0.24433 v 7.00434 c 0,0.13536 -0.0837,0.24434 -0.187654,0.24434 z"
           id="rect4602"
           inkscape:connector-curvature="0"
           sodipodi:nodetypes="ssccsss" />
        <path
           sodipodi:nodetypes="ssccsss"
           inkscape:connector-curvature="0"
           id="path4605"
           d="m 15.360373,255.02421 h -1.201741 c -0.03121,0 -0.05633,-0.0591 -0.05633,-0.13259 -0.09466,-3.46883 -0.113651,-3.96933 1.258071,-3.93343 0.03121,0 0.05633,0.0591 0.05633,0.13258 v 3.80085 c 0,0.0734 -0.02512,0.13259 -0.05633,0.13259 z"
           style="opacity:1;fill:#b50000;fill-opacity:1;stroke:#b50000;stroke-width:0.688089;stroke-miterlimit:4;stroke-dasharray:none;stroke-dashoffset:0;stroke-opacity:1" />
        <rect
           style="opacity:1;fill:#b50000;fill-opacity:1;stroke:#2d2d2d;stroke-width:1.42676;stroke-miterlimit:4;stroke-dasharray:none;stroke-dashoffset:0;stroke-opacity:1"
           id="rect4611"
           width="8.4440498"
           height="0.23831491"
           x="10.431074"
           y="257.02438"
           ry="0.11915744"
           rx="0.11915744" />
      </g>
      <path
         inkscape:connector-curvature="0"
         id="rect4620"
         d="m 54.663014,246.94536 c -0.09729,0 -0.175582,0.0783 -0.175582,0.17558 v 4.39029 h -4.390653 c -0.09729,0 -0.175583,0.0783 -0.175583,0.17559 v 4.21507 c 0,0.0973 0.07829,0.17558 0.175583,0.17558 h 4.390653 v 4.39029 c 0,0.0973 0.07829,0.17558 0.175582,0.17558 h 4.214709 c 0.09729,0 0.175583,-0.0783 0.175583,-0.17558 v -4.39029 h 4.390292 c 0.09729,0 0.175944,-0.0783 0.175944,-0.17558 v -4.21507 c 0,-0.0973 -0.07865,-0.17559 -0.175944,-0.17559 h -4.390292 v -4.39029 c 0,-0.0973 -0.07829,-0.17558 -0.175583,-0.17558 z"
         style="opacity:1;fill:#dc0000;fill-opacity:1;stroke:#2d2d2d;stroke-width:0.699122;stroke-miterlimit:4;stroke-dasharray:none;stroke-dashoffset:0;stroke-opacity:1" />
      <path
         sodipodi:nodetypes="cssccssssc"
         inkscape:connector-curvature="0"
         id="path4625"
         d="m 65.820068,244.98106 c 1.424604,0.4808 2.461614,2.00516 2.461614,3.82476 v 27.42861 c 0,1.2553 -0.493782,2.37026 -1.267296,3.09976 0.07698,0.34399 0.13508,0.69335 0.173953,1.04595 h 0.973699 c 1.894154,0 3.419191,-1.77762 3.419191,-3.98549 v -27.4286 c 0,-2.20787 -1.525037,-3.98499 -3.419191,-3.98499 z"
         style="opacity:1;fill:#cccccc;fill-opacity:1;stroke:none;stroke-width:1.7728;stroke-miterlimit:4;stroke-dasharray:none;stroke-dashoffset:0;stroke-opacity:1" />
      <path
         sodipodi:nodetypes="ccccc"
         inkscape:connector-curvature="0"
         id="rect4521"
         d="m 14.775632,263.15276 h 57.302056 v 5.36001 l -64.5532425,0.17291 c 0.4586693,-2.66485 3.5183765,-4.2399 7.2511865,-5.53292 z"
         style="opacity:1;fill:#dc0000;fill-opacity:1;stroke:#2d2d2d;stroke-width:1.00954;stroke-miterlimit:4;stroke-dasharray:none;stroke-dashoffset:0;stroke-opacity:1" />
      <g
         id="g4642">
        <path
           inkscape:connector-curvature="0"
           style="opacity:1;fill:#ffffff;fill-opacity:1;stroke:#2d2d2d;stroke-width:1.00365;stroke-miterlimit:4;stroke-dasharray:none;stroke-dashoffset:0;stroke-opacity:1"
           d="m 26.47304,248.1689 c -0.199164,0 -0.376512,0.19693 -0.494979,0.50705 -1.211131,2.00148 -3.36301,9.33155 -2.932469,10.96759 0.245729,0.93374 0.569524,1.28685 1.995211,1.26056 0.05608,0.0347 1.370992,-0.071 1.432237,-0.071 h 5.85932 c 0.358332,0 0.646835,-0.63595 0.646835,-1.42583 v -9.81262 c 0,-0.78987 -0.288503,-1.42565 -0.646835,-1.42565 z"
           id="path4630"
           sodipodi:nodetypes="ccccsssscc" />
        <path
           style="opacity:1;fill:#cccccc;fill-opacity:1;stroke:#2d2d2d;stroke-width:1.00365;stroke-miterlimit:4;stroke-dasharray:none;stroke-dashoffset:0;stroke-opacity:1"
           d="m 26.695756,248.18317 c -0.199165,0 -0.376595,0.19683 -0.495062,0.50695 -1.21113,2.00148 -3.363177,9.33176 -2.932636,10.9678 0.245729,0.93374 0.569539,1.28668 1.995225,1.26039 0.05608,0.0347 1.371227,-0.0708 1.432473,-0.0708 h 0.263033 c -0.646253,-0.14411 -0.867233,-0.51448 -1.044898,-1.18959 -0.430541,-1.63604 1.721506,-8.96632 2.932636,-10.9678 0.118468,-0.31012 0.295897,-0.50695 0.495062,-0.50695 z"
           id="path4635"
           inkscape:connector-curvature="0" />
      </g>
    </g>
  </g>
</svg>
