<?xml version="1.0" encoding="UTF-8" standalone="no"?>
<!-- Uploaded to: SVG Repo, www.svgrepo.com, Generator: SVG Repo Mixer Tools -->

<svg
   width="140"
   height="140"
   viewBox="0 0 11.2 11.2"
   version="1.1"
   id="svg85"
   sodipodi:docname="apartments-architecture-svgrepo-com.svg"
   inkscape:version="1.2.2 (732a01da63, 2022-12-09)"
   xmlns:inkscape="http://www.inkscape.org/namespaces/inkscape"
   xmlns:sodipodi="http://sodipodi.sourceforge.net/DTD/sodipodi-0.dtd"
   xmlns="http://www.w3.org/2000/svg"
   xmlns:svg="http://www.w3.org/2000/svg">
  <sodipodi:namedview
     id="namedview87"
     pagecolor="#ffffff"
     bordercolor="#000000"
     borderopacity="0.25"
     inkscape:showpageshadow="2"
     inkscape:pageopacity="0.0"
     inkscape:pagecheckerboard="0"
     inkscape:deskcolor="#d1d1d1"
     showgrid="false"
     inkscape:zoom="1.04625"
     inkscape:cx="374.67145"
     inkscape:cy="375.62724"
     inkscape:window-width="1920"
     inkscape:window-height="1017"
     inkscape:window-x="1912"
     inkscape:window-y="-8"
     inkscape:window-maximized="1"
     inkscape:current-layer="svg85" />
  <defs
     id="defs4">
    <style
       id="style2">.cls-1{fill:#4c4337;}.cls-2{fill:#71c285;}.cls-3{fill:#4c8056;}.cls-4{fill:#f2f2f2;}.cls-5{fill:#ccc;}.cls-6{fill:#98856e;}.cls-7{fill:#cbb292;}.cls-8{fill:#5f443e;}.cls-9{fill:#7f5b53;}.cls-10{fill:#b0d3f0;}.cls-11{fill:#849eb4;}</style>
  </defs>
  <title
     id="title6" />
  <g
     data-name="Layer 4"
     id="Layer_4"
     transform="matrix(0.18666667,0,0,0.18666667,-0.37333334,-0.37333334)">
    <rect
       class="cls-1"
       height="11"
       width="2"
       x="41"
       y="24"
       id="rect8" />
    <polygon
       class="cls-2"
       points="34,35 34,58 58,58 58,42.71 "
       id="polygon10" />
    <polyline
       class="cls-3"
       points="34 31 62 40 62 44 34 35"
       id="polyline12" />
    <rect
       class="cls-4"
       height="4"
       width="16"
       x="38"
       y="46"
       id="rect14" />
    <rect
       class="cls-5"
       height="4"
       width="16"
       x="38"
       y="50"
       id="rect16" />
    <rect
       class="cls-4"
       height="4"
       width="16"
       x="38"
       y="54"
       id="rect18" />
    <rect
       class="cls-6"
       height="4"
       width="12"
       x="34"
       y="20"
       id="rect20" />
    <rect
       class="cls-7"
       height="4"
       width="9"
       x="34"
       y="20"
       id="rect22" />
    <rect
       class="cls-8"
       height="4"
       width="60"
       x="2"
       y="58"
       id="rect24" />
    <rect
       class="cls-9"
       height="4"
       width="57"
       x="2"
       y="58"
       id="rect26" />
    <rect
       class="cls-7"
       height="50"
       width="30"
       x="4"
       y="8"
       id="rect28" />
    <path
       class="cls-5"
       d="m 14,58 v -5 a 5,5 0 0 1 5,-5 v 0 a 5,5 0 0 1 5,5 v 5"
       id="path30" />
    <path
       class="cls-4"
       d="M 17.5,48.25 A 5,5 0 0 0 14,53 v 5 h 7 v -5 a 5,5 0 0 0 -3.5,-4.75 z"
       id="path32" />
    <rect
       class="cls-10"
       height="10"
       width="15"
       x="4"
       y="14"
       id="rect34" />
    <rect
       class="cls-11"
       height="10"
       width="15"
       x="19"
       y="14"
       id="rect36" />
    <rect
       class="cls-10"
       height="10"
       width="15"
       x="19"
       y="24"
       id="rect38" />
    <rect
       class="cls-11"
       height="10"
       width="15"
       x="19"
       y="34"
       id="rect40" />
    <rect
       class="cls-10"
       height="10"
       width="15"
       x="4"
       y="34"
       id="rect42" />
    <rect
       class="cls-11"
       height="10"
       width="15"
       x="4"
       y="24"
       id="rect44" />
    <rect
       class="cls-8"
       height="6"
       width="34"
       x="2"
       y="2"
       id="rect46" />
    <rect
       class="cls-9"
       height="6"
       width="31"
       x="2"
       y="2"
       id="rect48" />
    <path
       class="cls-1"
       d="M 46,25 H 34 V 23 H 45 V 21 H 34 v -2 h 12 a 1,1 0 0 1 1,1 v 4 a 1,1 0 0 1 -1,1 z"
       id="path50" />
    <rect
       class="cls-5"
       height="2"
       transform="rotate(-45,9.0007839,19.001753)"
       width="5.6599998"
       x="6.1700001"
       y="18"
       id="rect52" />
    <rect
       class="cls-5"
       height="2"
       transform="rotate(-45,13.996871,18.992306)"
       width="5.6599998"
       x="11.17"
       y="18"
       id="rect54" />
    <rect
       class="cls-5"
       height="2"
       transform="rotate(-45,24.003187,19.007554)"
       width="5.6599998"
       x="21.17"
       y="18"
       id="rect56" />
    <rect
       class="cls-5"
       height="2"
       transform="rotate(-45,28.999274,18.998107)"
       width="5.6599998"
       x="26.17"
       y="18"
       id="rect58" />
    <rect
       class="cls-5"
       height="2"
       transform="rotate(-45,23.992939,29.001799)"
       width="5.6599998"
       x="21.17"
       y="28"
       id="rect60" />
    <rect
       class="cls-5"
       height="2"
       transform="rotate(-45,29.001097,28.997352)"
       width="5.6599998"
       x="26.17"
       y="28"
       id="rect62" />
    <rect
       class="cls-5"
       height="2"
       transform="rotate(-45,23.994762,39.001044)"
       width="5.6599998"
       x="21.17"
       y="38"
       id="rect64" />
    <rect
       class="cls-5"
       height="2"
       transform="rotate(-45,29.00292,38.996597)"
       width="5.6599998"
       x="26.17"
       y="38"
       id="rect66" />
    <rect
       class="cls-5"
       height="2"
       transform="rotate(-45,9.0044296,39.000243)"
       width="5.6599998"
       x="6.1700001"
       y="38"
       id="rect68" />
    <rect
       class="cls-5"
       height="2"
       transform="rotate(-45,13.995517,39.002867)"
       width="5.6599998"
       x="11.17"
       y="38"
       id="rect70" />
    <rect
       class="cls-5"
       height="2"
       transform="rotate(-45,9.0026068,29.000998)"
       width="5.6599998"
       x="6.1700001"
       y="28"
       id="rect72" />
    <rect
       class="cls-5"
       height="2"
       transform="rotate(-45,13.993694,29.003622)"
       width="5.6599998"
       x="11.17"
       y="28"
       id="rect74" />
    <rect
       class="cls-1"
       height="6"
       width="2"
       x="37"
       y="14"
       id="rect76" />
    <rect
       class="cls-1"
       height="6"
       width="2"
       x="41"
       y="14"
       id="rect78" />
    <rect
       class="cls-1"
       height="2"
       width="8"
       x="34"
       y="27"
       id="rect80" />
    <path
       class="cls-1"
       d="M 47,20 H 45 V 15 H 34 v -2 h 12 a 1,1 0 0 1 1,1 z"
       id="path82" />
  </g>
</svg>
