<svg width="140" height="130.943" viewBox="0 0 179.2 167.607" class="prefix__icon" xmlns="http://www.w3.org/2000/svg"><path d="M34.258 0c7.769 0 14.857 2.963 20.203 7.809a23.915 23.915 0 019.21-1.822c12.354 0 22.545 9.31 23.907 21.323.1.901.3 2.744-2.283 2.744H6.667c-1.561 0-2.382-1.983-2.282-2.964C5.867 11.873 18.68 0 34.258 0zm112.686 36.901c-7.769 0-14.857 2.963-20.203 7.809a23.915 23.915 0 00-9.21-1.822c-12.354 0-22.545 9.31-23.907 21.324-.1.9-.3 2.743 2.283 2.743h78.648c1.562 0 2.382-1.982 2.282-2.964-1.481-15.217-14.296-27.09-29.893-27.09z" fill="#00b3e3"/><path d="M116.55 23.406c2.102 0 2.483-1.081.841-2.383L92.583 1.141c-1.641-1.321-4.324-1.321-5.966 0L61.809 21.023c-1.642 1.322-1.261 2.383.84 2.383z" fill="#f2d383"/><path d="M117.391 21.003l-7.268-5.826H69.077l-7.268 5.826c-1.642 1.322-1.261 2.383.84 2.383h53.901c2.102.02 2.483-1.061.841-2.383z"/><path d="M54.52 36.66h70.16v126.602H54.52z" fill="#0071ce"/><path d="M79.228 141.398h20.764v21.884H79.228z" fill="#f2d383"/><path d="M54.52 114.748h70.16v17.16H54.52zm0-40.866h70.16v17.16H54.52z" fill="#00b3e3"/><path d="M179.2 166.065c0 .841-.7 1.542-1.542 1.542H1.542c-.841 0-1.542-.7-1.542-1.542v-5.526c0-.84.7-1.542 1.542-1.542h176.096c.841 0 1.542.701 1.542 1.542v5.526z" fill="#333e48"/><path d="M43.228 158.977h92.764v8.61H43.228z" fill="#a4a9ad"/><path d="M66.855 36.66h5.726v122.317h-5.726zm39.764 0h5.726v122.317h-5.726z"/><path d="M124.68 36.66V22.666a3.837 3.837 0 00-3.825-3.824h-62.51a3.837 3.837 0 00-3.824 3.824v13.996z" fill="#f2d383"/><path d="M69.718 32.977a2.863 2.863 0 01-2.863-2.863v-4.325a2.863 2.863 0 115.726 0v4.325a2.863 2.863 0 01-2.863 2.863zm19.882 0a2.863 2.863 0 01-2.863-2.863v-4.325a2.863 2.863 0 115.726 0v4.325a2.863 2.863 0 01-2.863 2.863zm19.882 0a2.863 2.863 0 01-2.863-2.863v-4.325a2.863 2.863 0 115.726 0v4.325a2.863 2.863 0 01-2.863 2.863z"/><path d="M67.696 145.803c0-7.268-5.907-32.276-13.175-32.276-7.268 0-13.175 25.008-13.175 32.276 0 7.268 5.907 13.174 13.175 13.174 7.268 0 13.175-5.886 13.175-13.174z" fill="#00ad68"/><path d="M33.517 145.803c0-7.268-5.906-32.276-13.174-32.276S7.168 138.535 7.168 145.803c0 7.268 5.907 13.174 13.175 13.174 7.268 0 13.174-5.886 13.174-13.174zm112.166 0c0-7.268 5.906-32.276 13.174-32.276s13.175 25.008 13.175 32.276c0 7.268-5.907 13.174-13.175 13.174-7.268 0-13.174-5.886-13.174-13.174z" fill="#218649"/><path d="M111.504 145.803c0-7.268 5.907-32.276 13.175-32.276 7.268 0 13.175 25.008 13.175 32.276 0 7.268-5.907 13.174-13.175 13.174-7.268 0-13.175-5.886-13.175-13.174z" fill="#00ad68"/><path d="M86.737 141.398h5.726v17.58h-5.726zm0-67.516h5.726v17.16h-5.726zm0 40.866h5.726v17.16h-5.726z"/></svg>