<svg xmlns="http://www.w3.org/2000/svg" width="123.897" height="145.013" viewBox="0 0 9.912 11.601" xmlns:v="https://vecta.io/nano"><path d="M4.625 6.513s-1.385.072-2.124-.656-.755-1.266-.755-1.266-.584.018-.82-.184-.284-.711.072-1.048.529-.308.529-.308a4.156 4.156 0 0 1 .19-.811 1.969 1.969 0 0 1 .236-.457l-.993-.547a.501.501 0 0 1-.602.101.634.634 0 0 1-.164-1.03.857.857 0 0 1 .993-.072c.219.155.109.466.109.466l1.122.51A3.145 3.145 0 0 1 4.461.333 4.036 4.036 0 0 1 6.902.99a3.165 3.165 0 0 1 .455.536L8.569.716a.56.56 0 0 1 .437-.667.656.656 0 1 1 .164 1.258.77.77 0 0 1-.219-.09l-1.166.956a2.115 2.115 0 0 1 .164.411l.026.265s.811-.046.783.72-.901.875-.901.875a2.065 2.065 0 0 1-.976 1.376 4.232 4.232 0 0 1-1.686.619l.074.794a.951.951 0 0 1 .564.437c.182.337.409.728.501.728s.437-.3.564-.4a.693.693 0 0 0 .192-.201s-.4-.593.147-.846.868.164.713.602-.728.383-.728.383-.72.711-.849.711a.516.516 0 0 1-.374-.155 7.601 7.601 0 0 0-.527-.901c-.101-.083-.173-.055-.184-.028s.411 2.015.357 2.443a1.242 1.242 0 0 1-.383.711l.018.219s.521-.074.621.199-.265.483-.521.437-.3-.127-.3-.164-.037-.619-.037-.619l-.219-.037s.101.702 0 .766-.538.147-.667.02a.326.326 0 0 1 .164-.529c.284-.063.339-.028.339-.028v-.273a.969.969 0 0 1-.429-.855c0-.61.365-2.452.365-2.452s-.109-.118-.348.173a3.242 3.242 0 0 0-.472 1.221l-.046.357a.532.532 0 0 1 .291.518.483.483 0 0 1-.728.357c-.273-.173-.236-.593-.118-.766a.634.634 0 0 1 .328-.219s.199-1.113.437-1.431a1.067 1.067 0 0 1 .547-.437l.136-.037z" fill="#1d1d1b"/><path d="M.533.368a.38.38 0 0 1 .33.014c.102.055.172.156.19.27a.411.411 0 1 1-.791.226.41.41 0 0 1 .27-.511zM9.09.242a.37.37 0 0 1 .518.282.411.411 0 1 1-.79.229.41.41 0 0 1 .272-.511zM1.482 3.396c.048-.015.026.311.072.538s.083.363.037.363-.374.037-.437-.262c-.072-.266.07-.542.328-.639zm6.542-.219a.34.34 0 0 1 .42.3c.063.357-.492.639-.518.602s.081-.311.09-.483a1.94 1.94 0 0 1 .009-.418z" fill="#c8db89"/><path d="M1.309.953c.044 0 .901.383.864.455s-.109.192-.136.175-.783-.374-.803-.42.074-.21.074-.21zm6.249.693c.037-.017.967-.757 1.021-.702s.153.138.109.182-.976.84-1.004.794-.127-.273-.127-.273z" fill="#fab900"/><path d="M3.84.734c.656-.236 1.859-.147 2.815.492s.875 2.515.857 2.725a1.931 1.931 0 0 1-.136.455 3.257 3.257 0 0 0-.357-.483c-.046 0-.164.083-.118.129a2.933 2.933 0 0 1 .4.602c-.018.055-.173.308-.173.308a4.926 4.926 0 0 0-.4-.582c-.037 0-.155.09-.138.118a4.375 4.375 0 0 1 .411.682c-.028.046-.219.238-.238.201a4.423 4.423 0 0 0-.3-.51c-.028 0-.129.046-.109.09s.337.538.3.584a1.531 1.531 0 0 1-.219.164s-.182-.437-.219-.437-.201.083-.182.109.236.392.199.437a.606.606 0 0 1-.127.083l-.252-.319-.129.081s.201.311.164.319l-.182.055s-.109-.245-.147-.256-.182 0-.153.028a2.095 2.095 0 0 1 .118.265 4.228 4.228 0 0 1-1.704 0A2.358 2.358 0 0 1 2 4.15a3.463 3.463 0 0 1 .402-2.478c.317-.518.884-.737 1.437-.938z" fill="#8ec480"/><path d="M2.875 1.453c.053-.037.138.037.109.083a1.369 1.369 0 0 0-.409.619c-.109.392-.063.483-.109.492s-.164 0-.173-.017A2.299 2.299 0 0 1 2.458 2a1.656 1.656 0 0 1 .418-.547zm1.77-.391a1.452 1.452 0 0 1 1.75 1.632c-.149 1.358-2.106 1.885-2.763.976s-.564-2.196 1.013-2.607z" fill="#1d1d1b"/><path d="M4.691 1.451a1.081 1.081 0 0 1 1.312 1.212c-.109 1.017-1.566 1.402-2.054.726s-.431-1.634.742-1.938z" fill="#e6e4da"/><path d="M4.761 2.022a.532.532 0 0 1 .641.597c-.055.501-.772.691-1.013.357s-.208-.803.372-.954zM3.56 4.599a1.266 1.266 0 0 0 1.129.547 1.662 1.662 0 0 0 1.148-.475c.074 0 .219.201.201.291s-.483.602-1.376.547-1.312-.628-1.312-.674.136-.236.21-.236z" fill="#1d1d1b"/><path d="M4.934 6.895c.037 0 .437 3.062.346 3.244s-.564.311-.656 0 .212-3.244.311-3.244z" fill="#8ec480"/><path d="M3.505 9.328c.153-.031.3.138.3.302a.276.276 0 0 1-.374.219c-.136-.083-.19-.466.074-.521zM7.46 7.114a.319.319 0 0 1 .317.282c0 .164-.328.328-.437.273s-.153-.501.12-.556z" fill="#c8db89"/></svg>