<svg xmlns="http://www.w3.org/2000/svg" viewBox="0 0 130 120" xmlns:v="https://vecta.io/nano"><path fill="#2a66b7" d="M0 0h130v39H0z"/><path fill="#db3a49" d="M0 39h130v42H0z"/><path fill="#109d59" d="M0 81h130v39H0z"/><path d="M76.5 50.3l2.7 5.9 6.3 1-4.5 4.6 1 6.5-5.5-3.1-5.6 3.1 1.1-6.5-4.5-4.6 6.2-1zm8.5-8.4s-.1 0-.4-.1c-.2-.1-.6-.2-1.1-.3s-1.1-.4-1.7-.5c-.3-.1-.7-.1-1-.2-.4-.1-.7-.2-1.1-.2-1.6-.2-3.5-.5-5.6-.3-2 0-4.2.4-6.3 1.1-.3.1-.5.2-.8.2h-.1 0c-.1 0 .7 0 .4 0h-.1l-.3.1-.6.2-1.1.3-.6.2c-.1.1-.2.1-.3.2-.4.3-.7.4-1.1.7l-1.4.9c-1.8 1.2-3.4 2.7-4.7 4.4l-.5.7c-.1.1-.2.2-.2.3h0l.4-.4-.1.1-.1.1-.2.3c-.5.7-1.3 1.7-1.2 1.8 0 .2-.1.3-.2.4s-.2.5-.3.7l-.3.7-.3.7c-.6 1.9-1 3.9-1 6v-.6h0v.1.2.4.7.7.4.2h0c0 .1.1.3.1.4s0 .2.1.5c.2 1 .3 2 .7 2.9l.2.7c.1.2.2.4.3.7.1.2.2.5.3.7l.4.7c.2.5.5.9.8 1.3l.1.2.1.1h0c-.2-.2.4.4-.4-.4h0l.5.5.9 1c.4.5.4.4.5.6.1.1.2.3.3.4.1.2.4.3.5.5l.6.6 1.2 1.1c.4.3.9.6 1.3 1 1.8 1.2 3.9 2.2 6 2.8l3.2.8 3.1.3c2.1.1 3.9-.1 5.6-.3l3.9-.9 1.1-.3c.3-.1.4-.1.4-.1l.8-.2.7.7-.4.7s-.4.3-1 1c-.7.7-1.7 1.5-3.1 2.6-1.5 1-3.3 2.1-5.6 2.9-1.1.5-2.4.8-3.7 1.2-1.4.3-2.9.5-4.3.6-3 .2-6.3-.1-9.7-1.1-3.3-1-6.7-2.7-9.6-5.2-2.8-2.4-5.4-5.6-7.1-9.2-.9-1.8-1.5-3.7-2-5.7-.3-1-.4-2-.5-3.1-.1-1-.1-1.9-.2-3 0-4.1 1-8.1 2.7-11.8l.7-1.3a9.13 9.13 0 0 1 .8-1.3c.3-.4.5-.9.8-1.3l.9-1.2c.6-.8 1.2-1.5 1.9-2.2l.5-.6.5-.5 1.1-1c2.9-2.5 6.2-4.2 9.6-5.2l2.5-.6c.8-.2 1.7-.3 2.5-.4.4-.1.8-.1 1.2-.1H66h.6.3.1.1 0 .1c.4 0 .8 0 1.1.1 1.5 0 2.9.3 4.3.6 1.3.4 2.6.7 3.7 1.2 2.3.9 4.1 2 5.6 2.9 1.4 1 2.5 1.9 3.1 2.6.7.6 1 1 1 1l.5.5-.7.8-.8-.4z" fill="#fff"/></svg>