<svg xmlns="http://www.w3.org/2000/svg" width="115.547" height="141.965" viewBox="0 0 147.9 181.715" xmlns:v="https://vecta.io/nano"><path d="M142.881 38.774c3.231 3.251 5.019 7.539 5.019 12.132s-1.788 8.881-5.019 12.132l-12.376 12.376a57.8 57.8 0 0 1 1.544 13.331v18.269a58.52 58.52 0 0 1-1.504 13.168c-.975 4.227-2.439 8.291-4.288 12.112l6.645 6.645c7.783 7.783 7.783 20.443 0 28.227-3.78 3.78-8.779 5.853-14.103 5.853s-10.344-2.073-14.103-5.853l-7.072-7.072c-3.15 1.402-6.442 2.54-9.856 3.373l-3.394 8.698c-3.251 8.312-7.925 9.551-10.405 9.551-2.5 0-7.153-1.24-10.405-9.551l-3.434-8.677c-3.414-.833-6.706-1.971-9.856-3.373l-7.072 7.072c-3.78 3.78-8.779 5.853-14.103 5.853s-10.344-2.073-14.103-5.853c-3.78-3.759-5.853-8.779-5.853-14.103s2.073-10.344 5.853-14.103l6.645-6.645c-3.719-7.661-5.792-16.237-5.792-25.3V88.765a57.67 57.67 0 0 1 1.544-13.331L5.019 63.058C1.788 59.806 0 55.519 0 50.926c0-4.572 1.788-8.881 5.019-12.132 3.231-3.231 7.539-5.019 12.132-5.019s8.881 1.788 12.132 5.019l6.34 6.34a57.71 57.71 0 0 1 8.474-6.198c3.008-1.809 6.198-3.353 9.531-4.613V20.342C53.629 9.124 62.753 0 73.971 0c11.177 0 20.301 9.124 20.301 20.342v13.961c6.665 2.5 12.762 6.198 18.005 10.811l6.34-6.34c3.231-3.231 7.539-5.019 12.132-5.019 4.572 0 8.881 1.788 12.132 5.019z" fill="#633"/><path d="M137.049 44.606c1.687 1.687 2.621 3.922 2.621 6.3a8.82 8.82 0 0 1-2.621 6.3l-9.389 9.389c-1.179-2.865-2.601-5.609-4.207-8.23-1.605-2.601-3.414-5.08-5.406-7.397l6.361-6.361c1.687-1.687 3.922-2.621 6.3-2.621a8.88 8.88 0 0 1 6.34 2.621zm-9.978 100.185a11.74 11.74 0 0 1 0 16.582 11.65 11.65 0 0 1-16.582 0l-5.345-5.345c3.312-2.134 6.422-4.572 9.246-7.316s5.365-5.751 7.58-9.023z" fill="#f9dcb2"/><path d="M123.819 101.994v5.019c0 15.302-6.93 29.019-17.822 38.184L92.89 122.498l11.847-20.504z" fill="#9ace57"/><path d="M123.819 88.744v5.019h-19.102L93.276 73.93l13.229-22.923c10.608 9.145 17.314 22.679 17.314 37.737z" fill="#6a973a"/><path d="M99.82 46.11l-13.29 23.045H62.103l-13.494-23.37c3.719-2.195 7.743-3.942 11.99-5.121s8.718-1.809 13.351-1.809c9.47 0 18.33 2.662 25.869 7.255z" fill="#9ace57"/><path d="M85.777 126.603l13.494 23.37-2.032 1.138h-.02c-.427.244-.874.447-1.321.671-6.625 3.292-14.083 5.121-21.968 5.121-7.864 0-15.322-1.829-21.968-5.101-.447-.224-.894-.427-1.321-.671l-1.483-.813 13.676-23.715zm0-49.219l11.827 20.504-11.827 20.484H62.103L50.276 97.889l11.827-20.504z" fill="#6a973a"/><path d="M86.042 22.923v8.982l-5.954-.955-6.137-.325c-4.146 0-8.21.427-12.112 1.28v-8.982c.671.528 1.504.854 2.418.854a3.86 3.86 0 1 0 0-7.722c-.65 0-1.26.163-1.809.447 1.605-4.796 6.137-8.251 11.482-8.251 5.324 0 9.856 3.475 11.482 8.251-.528-.285-1.138-.447-1.788-.447a3.86 3.86 0 1 0 0 7.722c.914 0 1.748-.325 2.418-.854zM78.319 164.97l-1.646 4.207c-1.158 2.987-2.317 4.064-2.743 4.288-.427-.224-1.585-1.321-2.743-4.288l-1.646-4.207a62.43 62.43 0 0 0 4.389.163c1.483 0 2.947-.041 4.389-.163z" fill="#f9dcb2"/><path d="M43.143 101.994l12.213 21.155-12.985 22.476a50.23 50.23 0 0 1-13.351-16.908c-3.19-6.564-4.958-13.92-4.958-21.703v-5.019z" fill="#9ace57"/><path d="M41.862 50.56L54.97 73.259 43.143 93.743H24.04v-5.019c.02-15.282 6.93-28.999 17.822-38.164z" fill="#6a973a"/><path d="M42.716 156.029l-5.345 5.324a11.65 11.65 0 0 1-8.291 3.434 11.65 11.65 0 0 1-8.291-3.434 11.65 11.65 0 0 1 0-16.582l5.101-5.101c2.215 3.251 4.776 6.279 7.58 9.023 2.825 2.743 5.914 5.202 9.246 7.336zM23.431 44.606l6.361 6.361A57.87 57.87 0 0 0 20.2 66.594l-9.389-9.389c-1.687-1.687-2.621-3.922-2.621-6.3s.935-4.613 2.621-6.3 3.922-2.621 6.3-2.621 4.633.935 6.32 2.621z" fill="#f9dcb2"/></svg>