<svg width="53.058" height="140" xmlns="http://www.w3.org/2000/svg"><defs><clipPath id="prefix__a"><path d="M.39 4.082h441.727V1169.61H.39z"/></clipPath></defs><path d="M22.142 9.263c-.336.662-.085.821.595.378.361-.236 2.26-.84 2.35-.75.024.024-.074.269-.216.547-.142.279-.257.566-.257.64 0 .213.29.264.547.094.232-.153 1.577-.59 1.814-.59.085 0 .074.073-.036.227-.366.52-.076.721.583.405.547-.26 1.32-.438 1.32-.301 0 .051-.148.526-.33 1.062-.428 1.248-.362 1.352.568.893.36-.178.689-.326.726-.326.038 0-.122.536-.356 1.196-.382 1.084-.406 1.212-.262 1.356.142.144.201.133.55-.097.214-.14.594-.36.832-.48l.437-.221.067.268c.072.292-.018 2.475-.125 3.01-.054.279-.035.33.125.326.104-.003.357-.146.552-.314.362-.31.362-.31.416-.084.09.383.278.341.51-.112.277-.548.772-.797 1.314-.664.45.111.516.281.534 1.344.014.877-.305 1.477-.896 1.686-.361.128-.462.13-.69.007-.338-.18-.417-.094-.562.607-.242 1.176-1.706 3.698-2.646 4.561-.718.659-2.538 1.92-3.393 2.354-.511.258-1.393.623-1.96.813-1.391.463-1.36.378-1.076 2.873.12 1.063.222 2.184.226 2.481.003.402.047.553.169.587.091.026 2.315.617 4.945 1.31l4.78 1.264.352.702c.19.38.35.777.35.87 0 .093-.165.944-.368 1.882-.392 1.827-1.387 7.22-1.59 8.643-.07.475-.167.882-.218.912-.051.032-.093.294-.093.593 0 .3-.067.949-.15 1.466-.428 2.617-1.07 7.745-1.663 13.252-.142 1.33-.278 2.44-.302 2.46-.023.019-.66.076-1.411.122-.76.05-2.157.146-3.125.214-2.363.17-5.19.174-7.323.009a173.48 173.48 0 00-2.683-.186c-.515-.029-1.018-.093-1.132-.144-.114-.051-.667-.144-1.234-.206-.568-.063-1.045-.13-1.067-.15-.022-.02.007-.13.059-.231.117-.23.12-.146-.389-9.469-.227-4.145-.435-7.992-.462-8.56-.181-3.743-.376-6.5-.467-6.59-.304-.305-.323.156-.141 3.579l.182 3.455-.742 1.542c-.408.845-.743 1.57-.743 1.603 0 .077-2.235 4.93-3.081 6.694-.349.722-.63 1.378-.63 1.464 0 .29.31.175.532-.195.216-.365.23-.37.767-.315 1.113.118 1.657.162 2.568.213 1.62.087 1.886.142 1.945.39.03.124.082.856.112 1.62.032.762.082 1.734.114 2.15l.057.758-.444-.072c-.248-.041-.67-.136-.959-.218-.284-.08-2.531-.633-4.998-1.232C2.456 62.04.422 61.532.4 61.51c-.023-.022.572-2.31 1.32-5.075 1.057-3.908 1.51-5.411 2.03-6.734.923-2.347.885-2.217 2.459-8.147.774-2.92 1.44-5.344 1.477-5.383.088-.093 9.988-2.777 10.329-2.799a.93.93 0 00.38-.099c.132-.085.347-1.31.586-3.321.274-2.29.277-2.367.144-2.537-.125-.158-1.006-.506-1.286-.506s-1.96-.719-2.856-1.222c-1.897-1.066-2.918-2.212-3.953-4.429-.674-1.444-.896-2.087-.901-2.6-.003-.391-.035-.463-.205-.463-.136 0-.228.103-.284.32-.203.783-.943.858-1.632.164-.45-.451-.565-.99-.415-1.907.165-.99.444-1.313 1.274-1.468.44-.082.844.241.974.777.062.257.145.36.29.36.174 0 .196-.061.17-.463-.028-.42.034-.567.655-1.547a21.89 21.89 0 011.26-1.784c.623-.764 3.188-3.27 3.343-3.27.053 0 .072.083.045.186-.157.588-.159.726-.003.854.143.117.214.08.521-.27l.355-.41-.065.372c-.069.392.084.622.282.424a.26.26 0 01.253-.047c.082.031.273-.059.428-.203.36-.337 1.657-1.215 1.794-1.215.108 0 .073.526-.057.824a.391.391 0 00.031.31c.083.13.13.134.283.025.548-.382 2.819-1.492 2.9-1.415.017.016-.065.215-.183.452M49.665 47.89c.504.304.646.458.834.903.192.451.22.67.185 1.382-.06 1.165-.284 1.499-1.38 2.05-.805.403-1.898.625-1.898.383 0-.056.413-.37.928-.705.712-.463.922-.652.904-.81-.027-.23-.368-.264-1.203-.121-.455.078-.46.075-.279-.126.103-.114.433-.356.743-.542.33-.2.558-.409.558-.516 0-.163-.1-.175-.955-.125l-.955.059.26-.217c.141-.12.5-.344.799-.5.4-.212.54-.343.54-.511 0-.266-.237-.328-1.391-.367l-.712-.025.66-.333c.879-.446 1.474-.414 2.362.121" fill="#f7ceb2"/><path d="M41.27 26.095c.516.145 1.442.734 1.648 1.05.088.133.199.476.253.774.056.3.167.641.254.774.245.375 1.032 2.579 1.592 4.454.973 3.264 1.836 6.9 2.698 11.376.488 2.527.553 2.243-.67 2.872-.764.391-.877.492-.877.779 0 .347.299.496 1.001.496h.68l-.618.402c-.342.221-.648.476-.683.567-.104.266.28.576.714.576.33 0 .355.02.232.171-.077.095-.315.28-.531.417-.706.444-.362.825.638.708l.58-.067-.517.353c-.67.461-1.008.834-.964 1.07.031.162.148.185.964.185.516 0 1.028-.037 1.155-.082.218-.08.224-.062.168.422-.06.506.094 1.01.275.897.11-.069.131.062.615 3.713 3.515 26.526 3.698 53.873.459 68.48-1.871 8.436-4.718 12.806-8.541 13.11-1.98.158-4.195-.925-5.79-2.829-3.977-4.746-6.307-14.748-7.189-30.856-.175-3.208-.174-17.09.003-20.935.71-15.47 2.202-29.465 4.466-41.872.806-4.414 2.46-11.407 2.799-11.828.049-.063.21-.526.353-1.022.392-1.35.946-2.358 1.829-3.32.486-.533.848-.737 1.497-.847.702-.12 1.043-.116 1.507.012" fill="#f6be52"/><path d="M13.012 66.79c.341.085 1.31.194 2.165.24.848.05 2.27.148 3.146.218.877.072 2.274.13 3.094.13.82 0 2.217-.058 3.094-.13.875-.07 2.296-.168 3.144-.217.858-.047 1.635-.122 1.744-.163.232-.092.235-.182-.136 4.13a324.847 324.847 0 00-.732 11.137 180.24 180.24 0 01-.167 3.223l-.059.748-1.2.005c-.66.003-1.754.063-2.424.134-.856.09-1.234.095-1.263.015-.055-.154-1.686-9.994-1.66-10.017.01-.009.612-.299 1.335-.642.866-.41 1.314-.68 1.314-.788 0-.263-.299-.18-1.68.463l-1.331.62-1.547-.458c-1.433-.424-1.835-.479-1.835-.254 0 .152.227.243 1.65.667l1.392.417-.03.298c-.045.412-1.564 9.56-1.61 9.694-.028.08-.407.075-1.263-.015a24.31 24.31 0 00-1.923-.132c-.627-.003-3.25-.325-5.178-.634a18.213 18.213 0 00-1.44-.163c-.391-.024-.73-.06-.747-.077-.016-.017.506-3.67 1.16-8.116.655-4.445 1.264-8.596 1.352-9.22.088-.63.177-1.194.199-1.268.042-.145.363-.11 1.436.155" fill="#e36944"/><path d="M25.812 1.157c-.501.656-.322.892.451.589.691-.271.813-.262.525.04-.128.134-.216.335-.194.438.037.171.135.187.938.155l.899-.037-.104.274c-.07.185-.069.34.005.48.11.213.49.254 1.841.201l.66-.026-.252.449c-.14.248-.318.548-.398.67-.115.175-.117.256-.01.382.109.13.3.148 1.02.098l.888-.062-.248.402c-.133.217-.311.497-.385.609-.323.483-.068.718.663.61.259-.037.444-.023.444.034 0 .054-.116.382-.257.732-.144.351-.258.7-.258.778 0 .216.33.296.67.164.155-.06.303-.095.32-.076.017.02-.092.304-.237.625-.326.721-.271.94.226.88.436-.05.447.027.102.759-.14.3-.256.703-.256.892 0 .33.014.343.31.286.345-.068.388.029.211.482-.053.141-.147.62-.207 1.053-.06.433-.207 1.114-.325 1.5-.196.64-.27.747-.773 1.13l-.558.422v-1.63c0-1.794-.055-2.026-.433-1.787-.618.394-1.32.734-1.32.643 0-.057.14-.495.31-.98.5-1.412.426-1.569-.567-1.167-.34.137-.626.243-.634.234-.01-.009.126-.449.299-.974.208-.64.282-.993.216-1.058-.065-.065-.35-.046-.846.057-.412.086-.761.154-.778.154-.019 0-.01-.133.017-.309.06-.393-.028-.397-1.297-.05-.536.148-.992.245-1.02.215-.028-.03 0-.196.063-.381.15-.434.146-.679-.012-.736-.074-.027-.722.12-1.443.328l-1.31.377.15-.361c.093-.227.114-.396.056-.454-.133-.132-.99.167-2.197.766-.557.277-1.034.502-1.061.502-.028 0-.053-.21-.053-.459 0-.247-.042-.484-.092-.514-.151-.092-1 .316-1.713.822-.36.256-.677.461-.71.461-.036 0-.034-.207.002-.464.092-.66-.149-.729-.693-.196l-.403.392v-.423c0-.89-.186-.774-2.579 1.607-1.578 1.57-1.94 1.995-2.68 3.132-.47.722-.891 1.315-.934 1.315-.04 0-.135-.072-.2-.155-.066-.083-.192-.155-.27-.155-.114 0-.144-.247-.144-1.196 0-.99.055-1.413.314-2.455.88-3.541 2.812-5.826 6.482-7.678 1.548-.779 3.64-1.511 4.6-1.611.34-.035.875-.13 1.186-.21.316-.079.98-.191 1.496-.252a9.445 9.445 0 001.65-.357c1.042-.36 1.162-.35.837.074" fill="#867156"/><path d="M13.012 86.209c.628.062 1.177.156 1.232.212.053.053.62.098 1.258.098.639 0 1.509.05 1.934.112.753.112.773.122.727.387-.026.151-1.146 11.015-2.485 24.134-1.744 17.058-2.407 23.878-2.326 23.93.117.071.65 3.105.569 3.24-.023.04-2.41.071-5.308.071-4.786 0-5.292-.015-5.563-.175-.165-.097-.3-.203-.3-.238 0-.093.711-.294 1.3-.37.278-.034.553-.122.613-.197.059-.074 1.037-.7 2.171-1.394 3.218-1.966 3.062-1.858 2.867-2.001-.15-.111-.155-.384-.052-3.262.063-1.729.3-8.472.527-15l.664-19.13c.14-4.002.262-8.03.273-8.958l.022-1.687.37.058c.206.03.877.107 1.507.17" fill="#f7ceb2"/><g clip-path="url(#prefix__a)" transform="matrix(.12012 0 0 .12012 -.047 -.49)"><path d="M235.872 739.219c-.903 22.367-.695 108.947.306 133.25 4.179 100.276 15.821 175.877 34.482 224.01 2.399 6.181 4.888 12.59 5.506 14.254 1.573 4.115 1.527 8.327-.111 9.256-1.105.631-.383 1.417 3.64 3.998 3.965 2.541 6.032 4.771 9.75 10.523 2.62 4.037 7.735 10.524 11.466 14.515l6.741 7.208h-33.098c-18.207 0-33.261-.266-33.462-.598-.676-1.118 3.77-26.377 4.732-26.975.689-.422-4.836-57.207-19.357-199.218-11.161-109.213-20.482-199.661-20.696-200.916-.364-2.196-.202-2.294 4.94-3.081 2.905-.448 9.964-.877 15.541-.955l10.218-.123-.598 14.852" fill="#f7ceb2"/><path d="M235.872 739.219c-.904 22.367-.696 108.947.305 133.25 4.18 100.276 15.821 175.877 34.483 224.01 2.399 6.181 4.888 12.59 5.505 14.254 1.573 4.115 1.528 8.327-.11 9.256-1.105.631-.384 1.417 3.64 3.998 3.965 2.541 6.032 4.771 9.75 10.523 2.619 4.037 7.735 10.524 11.466 14.515l6.74 7.208h-33.098c-18.206 0-33.26-.266-33.462-.598-.676-1.118 3.77-26.377 4.732-26.975.689-.422-4.836-57.207-19.357-199.218-11.16-109.213-20.481-199.661-20.696-200.916-.364-2.196-.201-2.294 4.94-3.081 2.906-.448 9.965-.877 15.542-.955l10.218-.123zm-127.153-17.433c5.226.52 9.795 1.307 10.257 1.768.442.442 5.154.813 10.471.813s12.558.416 16.101.935c6.266.93 6.435 1.015 6.051 3.224-.214 1.255-9.535 91.703-20.689 200.916-14.515 142.011-20.033 198.796-19.364 199.218.975.598 5.408 25.857 4.739 26.975-.195.332-20.059.598-44.194.598-39.838 0-44.057-.13-46.312-1.462-1.372-.8-2.49-1.684-2.49-1.976 0-.78 5.915-2.451 10.816-3.075 2.314-.293 4.609-1.027 5.103-1.651.494-.611 8.632-5.824 18.076-11.602 26.793-16.368 25.493-15.464 23.868-16.66-1.254-.923-1.293-3.198-.429-27.151.52-14.397 2.49-70.537 4.381-124.884 1.892-54.353 4.381-125.95 5.532-159.263 1.157-33.312 2.184-66.84 2.275-74.574l.175-14.04 3.088.48c1.716.254 7.299.891 12.545 1.411zm0-161.661c2.84.708 10.9 1.612 18.024 2.002a1444.73 1444.73 0 0126.189 1.807c7.299.597 18.928 1.079 25.759 1.079 6.819 0 18.46-.482 25.76-1.079 7.286-.585 19.116-1.398 26.175-1.807 7.137-.39 13.611-1.014 14.515-1.359 1.93-.76 1.956-1.508-1.131 34.385-2.236 25.922-4.94 67.08-6.091 92.722-.513 11.337-1.144 23.414-1.397 26.826l-.488 6.234-9.99.039c-5.493.026-14.599.52-20.183 1.117-7.124.748-10.27.787-10.51.124-.462-1.28-14.04-83.2-13.826-83.395.085-.071 5.103-2.489 11.122-5.343 7.208-3.412 10.939-5.662 10.939-6.565 0-2.184-2.489-1.495-13.988 3.861l-11.082 5.154-12.877-3.808c-11.934-3.53-15.281-3.985-15.281-2.119 0 1.267 1.891 2.028 13.734 5.557l11.59 3.471-.254 2.483c-.364 3.432-13.013 79.58-13.403 80.704-.227.663-3.38.624-10.51-.124-5.577-.597-12.812-1.091-16.01-1.104-5.219-.026-27.046-2.704-43.101-5.272-3.354-.546-8.658-1.137-11.986-1.358-3.263-.202-6.084-.494-6.221-.644-.136-.143 4.212-30.557 9.659-67.567 5.447-37.005 10.517-71.565 11.252-76.753.734-5.245 1.469-9.944 1.651-10.562.351-1.209 3.029-.917 11.96 1.294zM88.926 438.074c.683 12.708 1.456 27.391 1.71 32.572.266 5.245.715 12.382.994 16.022.28 3.608.306 6.91.033 7.339-.267.442-3.296.494-7.157.13-3.679-.358-12.493-1.06-19.539-1.554-7.033-.494-12.948-1.027-13.091-1.189-.136-.169 2.782-6.669 6.481-14.385 3.705-7.735 10.101-21.632 14.202-30.823 8.912-20.013 14.489-31.83 14.866-31.486.143.124.812 10.66 1.501 23.374zm324.935-35.295c4.199 2.529 5.382 3.809 6.942 7.514 1.599 3.757 1.84 5.584 1.541 11.505-.5 9.698-2.366 12.48-11.492 17.063-6.702 3.36-15.795 5.206-15.795 3.198 0-.468 3.432-3.088 7.722-5.876 5.928-3.848 7.677-5.421 7.527-6.741-.228-1.911-3.062-2.197-10.017-1.007-3.782.65-3.835.624-2.32-1.053.858-.949 3.601-2.958 6.181-4.505 2.756-1.664 4.648-3.406 4.648-4.296 0-1.359-.825-1.456-7.95-1.04l-7.949.487 2.158-1.807c1.183-1.001 4.166-2.866 6.656-4.16 3.334-1.768 4.504-2.86 4.504-4.257 0-2.21-1.982-2.73-11.589-3.055l-5.928-.208 5.499-2.776c7.313-3.711 12.272-3.445 19.662 1.014zm-69.888-181.447c4.29 1.202 12 6.11 13.722 8.742.728 1.105 1.651 3.959 2.106 6.442.461 2.496 1.384 5.336 2.112 6.441 2.041 3.12 8.594 21.47 13.254 37.083 8.099 27.17 15.281 57.447 22.457 94.705 4.063 21.04 4.609 18.674-5.577 23.907-6.357 3.263-7.299 4.101-7.299 6.487 0 2.892 2.489 4.127 8.333 4.127h5.661l-5.141 3.354c-2.847 1.84-5.395 3.959-5.688 4.719-.864 2.21 2.334 4.797 5.941 4.797 2.744 0 2.958.169 1.931 1.424-.637.786-2.62 2.333-4.42 3.464-5.876 3.699-3.01 6.871 5.317 5.896l4.817-.559-4.297 2.944c-5.584 3.835-8.392 6.942-8.021 8.899.253 1.358 1.228 1.547 8.021 1.547 4.297 0 8.56-.306 9.613-.683 1.814-.663 1.866-.52 1.398 3.517-.494 4.212.786 8.404 2.294 7.462.917-.572 1.092.52 5.116 30.914 29.263 220.837 30.79 448.5 3.822 570.108-15.574 70.233-39.28 106.613-71.104 109.142-16.477 1.319-34.924-7.696-48.204-23.55-33.111-39.507-52.507-122.778-59.845-256.88-1.463-26.708-1.45-142.272.026-174.291 5.902-128.791 18.33-245.297 37.18-348.588 6.708-36.751 20.481-94.972 23.296-98.475.409-.52 1.755-4.381 2.944-8.509 3.263-11.245 7.872-19.63 15.223-27.644 4.05-4.433 7.059-6.13 12.467-7.046 5.844-.995 8.684-.969 12.545.104zM184.723 81.198c-2.795 5.512-.708 6.838 4.953 3.146 3.01-1.963 18.824-6.994 19.572-6.24.195.195-.618 2.236-1.801 4.55-1.183 2.321-2.145 4.713-2.145 5.33 0 1.775 2.412 2.197 4.557.787 1.93-1.274 13.13-4.914 15.106-4.914.702 0 .611.604-.306 1.891-3.042 4.329-.63 6 4.856 3.367 4.556-2.171 10.991-3.646 10.991-2.509 0 .429-1.235 4.381-2.756 8.847-3.555 10.387-3.009 11.258 4.739 7.436 2.996-1.489 5.733-2.717 6.038-2.717.319 0-1.014 4.465-2.957 9.958-3.185 9.022-3.387 10.088-2.184 11.29 1.183 1.196 1.677 1.105 4.582-.812 1.781-1.164 4.94-2.997 6.923-3.991l3.64-1.846.559 2.236c.598 2.431-.15 20.605-1.04 25.064-.455 2.314-.293 2.743 1.04 2.704.864-.02 2.97-1.216 4.595-2.613 3.01-2.581 3.01-2.581 3.458-.696.748 3.192 2.321 2.841 4.252-.936 2.307-4.556 6.421-6.636 10.932-5.525 3.745.923 4.303 2.34 4.453 11.187.117 7.299-2.542 12.298-7.462 14.04-3.009 1.059-3.848 1.072-5.753.058-2.808-1.495-3.464-.786-4.673 5.051-2.015 9.789-14.203 30.784-22.029 37.973-5.973 5.486-21.125 15.99-28.242 19.597-4.258 2.145-11.603 5.187-16.315 6.767-11.59 3.854-11.323 3.146-8.964 23.92 1.001 8.846 1.853 18.18 1.879 20.657.026 3.347.396 4.602 1.41 4.881.761.221 19.273 5.135 41.171 10.907l39.8 10.524 2.918 5.843c1.587 3.172 2.919 6.474 2.919 7.248 0 .773-1.378 7.858-3.068 15.665-3.263 15.21-11.544 60.112-13.241 71.955-.571 3.952-1.384 7.338-1.807 7.592-.428.266-.773 2.45-.773 4.94 0 2.489-.559 7.897-1.254 12.2-3.556 21.788-8.899 64.48-13.839 110.325-1.183 11.069-2.321 20.312-2.516 20.475-.188.162-5.492.637-11.752 1.027-6.324.409-17.953 1.209-26.013 1.78-19.669 1.411-43.205 1.444-60.963.072-8.073-.617-18.057-1.306-22.334-1.547-4.29-.241-8.483-.773-9.432-1.202-.949-.423-5.551-1.196-10.27-1.716-4.725-.521-8.697-1.079-8.885-1.242-.182-.169.058-1.079.494-1.93.975-1.905 1.001-1.209-3.237-78.826-1.892-34.508-3.621-66.54-3.848-71.259-1.508-31.168-3.133-54.119-3.887-54.873-2.535-2.535-2.691 1.3-1.177 29.796l1.521 28.769-6.181 12.837c-3.393 7.033-6.182 13.065-6.182 13.345 0 .643-18.609 41.041-25.655 55.731-2.899 6.006-5.246 11.472-5.246 12.187 0 2.412 2.587 1.456 4.433-1.625 1.801-3.035 1.911-3.087 6.383-2.619 9.269.981 13.8 1.345 21.379 1.768 13.481.721 15.704 1.183 16.198 3.25.253 1.027.676 7.124.929 13.48.267 6.351.683 14.437.949 17.901l.475 6.312-3.699-.598c-2.067-.344-5.583-1.131-7.982-1.813-2.366-.664-21.073-5.272-41.606-10.258-20.514-4.979-37.447-9.21-37.642-9.398-.188-.189 4.765-19.234 10.985-42.25 8.808-32.539 12.578-45.052 16.907-56.063 7.683-19.539 7.364-18.46 20.468-67.827 6.448-24.304 11.993-44.486 12.298-44.818.728-.773 83.155-23.114 85.989-23.296 1.202-.071 2.6-.442 3.172-.825 1.092-.709 2.879-10.907 4.875-27.651 2.275-19.058 2.301-19.702 1.196-21.119-1.04-1.319-8.379-4.212-10.706-4.212-2.333 0-16.315-5.986-23.777-10.179-15.795-8.872-24.297-18.408-32.909-36.868-5.61-12.018-7.462-17.374-7.501-21.638-.026-3.263-.293-3.861-1.71-3.861-1.131 0-1.898.858-2.366 2.658-1.69 6.526-7.845 7.15-13.585 1.372-3.744-3.757-4.706-8.236-3.451-15.88 1.371-8.242 3.692-10.926 10.601-12.22 3.666-.682 7.033 2.009 8.112 6.468.52 2.145 1.209 3.003 2.412 3.003 1.449 0 1.638-.514 1.41-3.861-.227-3.497.293-4.719 5.46-12.877 3.146-4.985 7.846-11.628 10.485-14.852 5.193-6.357 26.546-27.222 27.839-27.222.436 0 .598.689.371 1.547-1.307 4.894-1.32 6.045-.026 7.111 1.196.975 1.787.663 4.342-2.256l2.957-3.399-.546 3.094c-.572 3.263.702 5.174 2.347 3.523.487-.475 1.423-.65 2.112-.39.683.26 2.269-.488 3.562-1.69 2.997-2.808 13.793-10.114 14.931-10.114.903 0 .611 4.381-.468 6.864-.293.689-.176 1.891.253 2.58.689 1.073 1.079 1.112 2.36.208 4.563-3.185 23.465-12.421 24.134-11.784.143.136-.533 1.787-1.521 3.763zm30.557-67.483c-4.173 5.46-2.678 7.423 3.757 4.901 5.752-2.255 6.766-2.177 4.368.338-1.066 1.112-1.801 2.782-1.612 3.647.305 1.423 1.118 1.553 7.806 1.287l7.482-.306-.865 2.282c-.585 1.54-.572 2.827.039 3.991.923 1.774 4.089 2.119 15.334 1.677l5.486-.215-2.093 3.731c-1.17 2.067-2.646 4.563-3.315 5.584-.956 1.456-.969 2.125-.078 3.178.903 1.086 2.489 1.229 8.496.813l7.384-.514-2.068 3.348a235.493 235.493 0 01-3.198 5.07c-2.691 4.023-.571 5.973 5.519 5.083 2.152-.312 3.699-.195 3.699.279 0 .449-.969 3.179-2.146 6.091-1.196 2.925-2.145 5.824-2.145 6.48 0 1.794 2.744 2.464 5.571 1.365 1.293-.5 2.528-.793 2.665-.63.143.162-.761 2.528-1.97 5.2-2.71 6.006-2.255 7.826 1.885 7.332 3.627-.423 3.718.221.845 6.311-1.163 2.496-2.132 5.857-2.132 7.43 0 2.749.117 2.853 2.581 2.379 2.879-.566 3.237.24 1.761 4.017-.441 1.17-1.228 5.154-1.722 8.762-.501 3.601-1.729 9.275-2.704 12.493-1.638 5.317-2.249 6.214-6.441 9.399l-4.642 3.516v-13.565c0-14.937-.461-16.874-3.607-14.879-5.142 3.276-10.985 6.11-10.985 5.35 0-.475 1.157-4.121 2.58-8.158 4.167-11.758 3.543-13.058-4.725-9.717-2.828 1.144-5.213 2.021-5.278 1.95-.078-.072 1.053-3.738 2.489-8.112 1.736-5.324 2.347-8.262 1.801-8.808-.546-.539-2.919-.377-7.046.481-3.426.709-6.338 1.281-6.474 1.281-.156 0-.091-1.112.136-2.574.507-3.276-.227-3.302-10.79-.41-4.465 1.222-8.261 2.028-8.489 1.781-.24-.24-.013-1.631.52-3.172 1.255-3.607 1.216-5.648-.104-6.123-.611-.227-6.006 1.001-12.012 2.73l-10.9 3.133 1.241-3.003c.774-1.891.956-3.295.468-3.776-1.105-1.105-8.235 1.391-18.291 6.376-4.634 2.308-8.606 4.18-8.833 4.18-.234 0-.436-1.755-.436-3.822 0-2.054-.357-4.03-.773-4.284-1.255-.76-8.327 2.633-14.255 6.845-2.996 2.132-5.642 3.841-5.921 3.841-.293 0-.28-1.722.026-3.867.767-5.493-1.242-6.065-5.772-1.632l-3.354 3.263v-3.516c0-7.417-1.547-6.448-21.47 13.377-13.136 13.071-16.159 16.607-22.314 26.071-3.913 6.013-7.417 10.953-7.774 10.953-.338 0-1.125-.605-1.671-1.294-.546-.689-1.592-1.287-2.236-1.287-.955 0-1.209-2.06-1.209-9.958 0-8.248.462-11.765 2.62-20.436 7.325-29.484 23.406-48.509 53.963-63.921 12.889-6.487 30.296-12.584 38.291-13.416 2.841-.292 7.287-1.079 9.88-1.742 2.626-.663 8.158-1.599 12.454-2.099 4.29-.501 10.394-1.827 13.735-2.977 8.671-3.003 9.672-2.912 6.968.617zm3.757-7.943c-1.625.865-3.627 1.606-4.381 1.632-.748.026-4.108 1.007-7.462 2.19-3.393 1.196-9.536 2.529-13.826 3.003-4.29.475-10.133 1.417-13.136 2.106-2.997.689-7.696 1.515-10.556 1.853-13.923 1.651-43.44 14.878-58.383 26.149-12.974 9.789-18.954 16.861-27.053 31.967-3.543 6.611-5.168 11.122-7.898 21.853-3.263 12.877-3.399 13.943-2.866 22.282l.559 8.756-2.412.585c-4.803 1.183-7.098 2.996-9.438 7.488-2.028 3.88-2.333 5.531-2.372 12.746-.039 7.982.052 8.405 2.58 11.551 1.443 1.8 3.653 4.03 4.934 4.979 2.58 1.904 11.199 2.944 12.116 1.456 1.137-1.846 2.119-.943 3.783 3.523 7.371 19.747 18.265 36.237 29.601 44.791 8.684 6.546 28.197 15.821 36.237 17.219 5.584.968 7.3 2.541 7.3 6.675 0 6.78-4.57 37.388-5.753 38.506-.383.358-18.622 5.499-40.612 11.427-54.691 14.775-48.6 12.591-50.147 17.973-.696 2.463-6.526 23.959-12.961 47.827-8.177 30.407-13.254 47.469-16.952 57.102-2.906 7.553-5.506 13.93-5.798 14.17-.28.228-6.045 21.073-12.786 46.235C1.02 510.361-.741 517.797.234 518.739c.637.605 18.154 5.226 38.935 10.257 20.774 5.025 38.746 9.509 39.929 9.952 1.17.442 5.064 1.306 8.58 1.891l6.435 1.079.221 3.426c.111 1.891-5.323 40.872-12.116 86.723-6.779 45.844-12.135 83.726-11.934 84.272.234.559 3.192 1.222 6.962 1.534 3.601.319 7.917.767 9.568.994l3.009.43-.63 21.632c-.65 21.456-4.726 141.16-7.072 207.102-.676 18.89-2.223 64.643-3.458 101.739-1.229 37.082-2.412 68.21-2.613 69.199-.28 1.3-5.889 5.154-19.793 13.662-19.5 11.921-23.764 14.08-27.904 14.145-3.439.039-8.301 2.398-8.938 4.302-.734 2.263.865 4.941 4.128 6.917 2.626 1.599 4.758 1.677 49.751 1.677h47.014v-2.789c0-1.554-1.196-10.094-2.665-19.11l-2.658-16.315 19.831-194.031c10.907-106.73 20.124-195.599 20.482-197.477l.643-3.438h9.269l6.526-39.28c3.595-21.638 6.715-39.279 6.955-39.279.228 0 3.354 17.641 6.962 39.279l6.506 39.28h9.282l.65 3.438c.358 1.878 9.562 90.747 20.475 197.477l19.832 194.031-2.665 16.315c-1.476 9.016-2.652 17.556-2.652 19.11v2.789h75.114l7.735 3.874c16.399 8.215 31.609 8.579 46.793 1.131 24.122-11.856 43.238-47.938 56.154-105.983 12.207-54.879 18.128-121.062 19.116-213.7 1.229-115.083-7.195-244.953-23.79-366.529-3.984-29.198-4.218-30.569-5.115-30.569-.384 0-.598-1.242-.475-2.789.17-2.275.904-3.191 3.991-4.979 2.054-1.196 4.947-3.874 6.344-5.876 2.399-3.432 2.607-4.342 2.887-12.584.279-8.073.097-9.321-1.892-13.643-1.846-4.017-3.048-5.324-7.592-8.203-3.01-1.905-6.019-3.445-6.792-3.445-3.647 0-4.18-1.625-9.763-29.614-10.16-50.999-20.189-89.284-30.167-115.135-2.145-5.583-4.81-12.948-5.863-16.23-2.613-8.158-3.53-9.425-9.659-13.325-6.858-4.355-11.596-5.519-19.76-4.836-7.891.669-12.428 2.606-17.147 7.345-6.071 6.097-15.691 21.918-15.717 25.837-.013.78-.371 1.755-.825 2.236-1.21 1.274-6.273 18.207-10.778 35.978-2.275 9.015-4.407 16.633-4.777 17.036-.338.397-1.762-1.371-3.081-3.854l-2.45-4.596-39.41-10.478c-21.632-5.746-39.709-10.777-40.079-11.16-.949-.975-5.012-37.434-4.316-38.721.331-.611 4.381-2.431 8.937-4.017 21.723-7.553 41.464-21.242 53.028-36.764 5.18-6.961 12.811-21.599 14.488-27.82.923-3.432 1.189-3.692 3.835-3.692a13.63 13.63 0 0011.446-6.181c2.249-3.419 2.379-4.121 2.379-13.397 0-9.698-.026-9.808-2.411-11.849-1.859-1.593-3.341-2.054-6.604-2.054-4.953 0-5.018-.176-2.568-7.3.943-2.749 1.703-6.37 1.703-8.073 0-2.827 3.172-16.308 4.687-19.916.903-2.164-1.515-3.718-3.822-2.476-1.027.552-2.034.858-2.197.669-.163-.195.825-2.743 2.249-5.752 3.504-7.469 3.36-8.671-1.008-8.671-3.984 0-3.997-.254-.123-8.411 1.787-3.777 1.969-4.784.988-5.408-.683-.449-1.573-.631-2.054-.436-.481.195-2.288.949-4.088 1.716-3.172 1.359-3.198 1.352-2.438-.598 1.436-3.692 4.342-9.633 5.447-11.16 1.547-2.145-.384-3.12-4.329-2.197-1.729.396-4.076.741-5.115.741-1.879 0-1.84-.169 1.228-5.844 3.477-6.441 3.477-9.451.013-8.391-1.027.318-4.504.812-7.676 1.092l-5.805.513 3.451-6.259c4.154-7.553 4.355-9.016 1.105-8.203-4.212 1.053-19.22 1.599-20.098.728-.559-.566-.058-1.801 1.437-3.601 2.639-3.179 2.236-5.798-.748-4.83-1.04.345-4.511.806-7.774 1.047-5.57.409-5.824.351-5.011-1.157.481-.91 1.625-2.282 2.652-3.205 1.982-1.781 2.346-3.497.955-4.374-.487-.299-2.834.058-5.336.799-6.091 1.82-6.143 1.788-3.588-2.106 2.197-3.347 2.268-6.11.162-5.934-.611.052-2.489.819-4.127 1.683" fill="#4d4e4c"/></g><path d="M16.942 14.193c-.213.211-.032.442.504.64.32.12.633.215.702.214.144-.002.4-.502.322-.628-.054-.085-.961-.299-1.27-.299-.104 0-.218.032-.258.073M17.2 17.07c-.445.564-.115 1.692.494 1.692.457 0 .745-.3.805-.836.043-.392.007-.516-.226-.794-.354-.423-.771-.446-1.074-.062M24.871 16.9c-.411.17-.602.486-.535.892.095.567.335.866.701.866.427 0 .917-.495.917-.928 0-.227-.093-.424-.299-.629-.315-.316-.433-.347-.784-.201M20.937 17.958c-.098.159.448.604 1.283 1.043.754.398.733.45-.267.685-.577.136-.731.262-.546.448.144.144 2.171-.32 2.247-.517.08-.203-.133-.4-.885-.818a17.451 17.451 0 01-1.115-.674c-.474-.324-.603-.355-.717-.167M17.44 21.69c-.102.26.346.853.903 1.196 1.146.704 2.42 1.086 3.27.976 1.537-.199 3.724-1.377 3.724-2.007 0-.32-.221-.368-.43-.093-.367.488-.562.631-1.376 1.018-1.68.797-2.74.826-4.197.117-.887-.431-1.154-.64-1.363-1.063-.136-.278-.447-.361-.532-.144M21.772 60.56c-.03.129-.042.542-.025.902.027.589.054.666.238.666.18 0 .208-.083.235-.67.037-.795-.034-1.135-.235-1.135-.09 0-.18.103-.213.238" fill="#4d4e4c"/></svg>