<?xml version="1.0" encoding="UTF-8" standalone="no"?>
<svg
   version="1.1"
   x="0"
   y="0"
   width="53.058273"
   height="140"
   viewBox="0 0 53.058273 140"
   id="svg949"
   sodipodi:docname="boywithsurfboard-0035058isjsyr.svg"
   inkscape:version="1.2.2 (732a01da63, 2022-12-09)"
   xmlns:inkscape="http://www.inkscape.org/namespaces/inkscape"
   xmlns:sodipodi="http://sodipodi.sourceforge.net/DTD/sodipodi-0.dtd"
   xmlns="http://www.w3.org/2000/svg"
   xmlns:svg="http://www.w3.org/2000/svg">
  <sodipodi:namedview
     id="namedview951"
     pagecolor="#ffffff"
     bordercolor="#000000"
     borderopacity="0.25"
     inkscape:showpageshadow="2"
     inkscape:pageopacity="0.0"
     inkscape:pagecheckerboard="0"
     inkscape:deskcolor="#d1d1d1"
     showgrid="false"
     inkscape:zoom="0.71538462"
     inkscape:cx="223.65591"
     inkscape:cy="581.50538"
     inkscape:window-width="1920"
     inkscape:window-height="1017"
     inkscape:window-x="1912"
     inkscape:window-y="-8"
     inkscape:window-maximized="1"
     inkscape:current-layer="svg949" />
  <defs
     id="defs914">
    <clipPath
       id="Clip_1">
      <path
         d="M 0.39,4.082 H 442.117 V 1169.61 H 0.39 Z"
         id="path911" />
    </clipPath>
  </defs>
  <g
     id="Layer_1"
     transform="matrix(0.12011723,0,0,0.12011723,-0.04684572,-0.49031853)">
    <path
       d="m 184.724,81.198 c -2.795,5.512 -0.709,6.838 4.953,3.146 3.009,-1.963 18.824,-6.994 19.571,-6.24 0.195,0.195 -0.617,2.236 -1.8,4.55 -1.183,2.32 -2.145,4.712 -2.145,5.33 0,1.774 2.411,2.197 4.556,0.786 1.931,-1.274 13.13,-4.914 15.106,-4.914 0.702,0 0.611,0.605 -0.305,1.892 -3.042,4.329 -0.631,5.999 4.855,3.367 4.557,-2.171 10.992,-3.647 10.992,-2.509 0,0.429 -1.236,4.381 -2.756,8.846 -3.556,10.387 -3.01,11.258 4.738,7.436 2.997,-1.488 5.733,-2.717 6.039,-2.717 0.318,0 -1.014,4.466 -2.958,9.958 -3.185,9.022 -3.386,10.088 -2.184,11.291 1.183,1.196 1.677,1.105 4.583,-0.813 1.781,-1.163 4.94,-2.996 6.922,-3.991 l 3.64,-1.846 0.559,2.236 c 0.598,2.431 -0.149,20.605 -1.04,25.064 -0.455,2.314 -0.292,2.743 1.04,2.704 0.864,-0.019 2.971,-1.215 4.596,-2.613 3.009,-2.58 3.009,-2.58 3.457,-0.695 0.748,3.191 2.321,2.84 4.252,-0.936 2.307,-4.557 6.421,-6.637 10.933,-5.525 3.744,0.923 4.302,2.34 4.452,11.186 0.117,7.3 -2.542,12.298 -7.462,14.04 -3.009,1.06 -3.848,1.073 -5.752,0.059 -2.808,-1.495 -3.465,-0.787 -4.674,5.05 -2.015,9.789 -14.202,30.784 -22.028,37.973 -5.974,5.486 -21.125,15.99 -28.243,19.598 -4.257,2.145 -11.602,5.187 -16.315,6.766 -11.589,3.855 -11.323,3.146 -8.963,23.92 1.001,8.847 1.852,18.181 1.878,20.657 0.026,3.348 0.397,4.602 1.411,4.882 0.76,0.221 19.272,5.135 41.171,10.907 l 39.799,10.523 2.919,5.844 c 1.586,3.172 2.918,6.474 2.918,7.248 0,0.773 -1.378,7.858 -3.068,15.664 -3.263,15.211 -11.544,60.112 -13.241,71.955 -0.571,3.952 -1.384,7.339 -1.806,7.592 -0.429,0.267 -0.774,2.451 -0.774,4.94 0,2.49 -0.559,7.898 -1.254,12.201 -3.556,21.788 -8.899,64.48 -13.839,110.324 -1.183,11.07 -2.32,20.313 -2.515,20.476 -0.189,0.162 -5.493,0.636 -11.752,1.026 -6.325,0.41 -17.953,1.209 -26.013,1.781 -19.669,1.411 -43.206,1.443 -60.964,0.072 -8.073,-0.618 -18.057,-1.306 -22.334,-1.547 -4.29,-0.241 -8.482,-0.774 -9.431,-1.202 -0.949,-0.423 -5.551,-1.197 -10.27,-1.716 -4.726,-0.521 -8.697,-1.08 -8.886,-1.242 -0.182,-0.169 0.059,-1.079 0.494,-1.93 0.975,-1.905 1.001,-1.21 -3.237,-78.826 -1.891,-34.509 -3.62,-66.541 -3.848,-71.26 -1.508,-31.167 -3.133,-54.118 -3.887,-54.873 -2.535,-2.534 -2.691,1.3 -1.176,29.796 l 1.521,28.769 -6.182,12.838 c -3.393,7.033 -6.181,13.065 -6.181,13.344 0,0.644 -18.61,41.042 -25.656,55.732 -2.899,6.005 -5.245,11.472 -5.245,12.187 0,2.412 2.587,1.456 4.433,-1.625 1.8,-3.036 1.911,-3.088 6.383,-2.62 9.269,0.982 13.799,1.346 21.378,1.769 13.481,0.721 15.704,1.182 16.198,3.25 0.254,1.026 0.676,7.123 0.93,13.48 0.266,6.351 0.682,14.437 0.949,17.901 l 0.474,6.312 -3.698,-0.598 c -2.067,-0.344 -5.584,-1.131 -7.982,-1.813 -2.366,-0.664 -21.073,-5.272 -41.607,-10.258 -20.514,-4.979 -37.446,-9.21 -37.641,-9.398 -0.189,-0.189 4.764,-19.234 10.985,-42.251 8.807,-32.539 12.577,-45.051 16.906,-56.062 7.683,-19.539 7.365,-18.46 20.469,-67.828 6.448,-24.303 11.992,-44.485 12.298,-44.817 0.728,-0.774 83.154,-23.114 85.988,-23.296 1.203,-0.072 2.6,-0.442 3.172,-0.826 1.092,-0.708 2.88,-10.907 4.875,-27.651 2.275,-19.058 2.301,-19.701 1.196,-21.118 -1.04,-1.32 -8.378,-4.212 -10.705,-4.212 -2.334,0 -16.315,-5.987 -23.777,-10.179 -15.795,-8.873 -24.297,-18.408 -32.91,-36.868 -5.609,-12.019 -7.462,-17.375 -7.501,-21.639 -0.026,-3.263 -0.292,-3.861 -1.709,-3.861 -1.131,0 -1.898,0.858 -2.366,2.659 -1.69,6.526 -7.846,7.15 -13.585,1.371 -3.744,-3.757 -4.706,-8.235 -3.452,-15.879 1.372,-8.242 3.692,-10.927 10.602,-12.22 3.666,-0.683 7.033,2.008 8.112,6.467 0.52,2.145 1.209,3.003 2.411,3.003 1.45,0 1.638,-0.513 1.411,-3.861 -0.228,-3.497 0.292,-4.719 5.46,-12.876 3.146,-4.986 7.845,-11.629 10.484,-14.853 5.194,-6.357 26.546,-27.222 27.84,-27.222 0.435,0 0.598,0.689 0.37,1.547 -1.306,4.895 -1.319,6.045 -0.026,7.111 1.196,0.975 1.788,0.663 4.342,-2.255 l 2.958,-3.4 -0.546,3.094 c -0.572,3.263 0.701,5.174 2.346,3.523 0.488,-0.474 1.424,-0.65 2.113,-0.39 0.682,0.26 2.268,-0.487 3.562,-1.69 2.996,-2.808 13.792,-10.114 14.93,-10.114 0.903,0 0.611,4.381 -0.468,6.864 -0.292,0.689 -0.175,1.892 0.254,2.581 0.689,1.072 1.079,1.111 2.359,0.208 4.563,-3.185 23.465,-12.422 24.135,-11.785 0.143,0.137 -0.533,1.788 -1.521,3.764"
       fill="#f7ceb2"
       id="path916" />
    <g
       id="g922">
      <path
         d="m 413.862,402.779 c 4.198,2.528 5.381,3.809 6.941,7.514 1.599,3.757 1.84,5.583 1.541,11.505 -0.5,9.698 -2.366,12.48 -11.492,17.062 -6.701,3.361 -15.795,5.207 -15.795,3.198 0,-0.468 3.432,-3.087 7.722,-5.876 5.928,-3.848 7.677,-5.421 7.527,-6.74 -0.228,-1.911 -3.061,-2.197 -10.017,-1.008 -3.782,0.65 -3.835,0.624 -2.32,-1.053 0.858,-0.949 3.601,-2.957 6.182,-4.504 2.755,-1.664 4.647,-3.406 4.647,-4.297 0,-1.358 -0.825,-1.456 -7.949,-1.04 l -7.95,0.488 2.158,-1.807 c 1.183,-1.001 4.167,-2.867 6.656,-4.16 3.334,-1.768 4.504,-2.86 4.504,-4.258 0,-2.21 -1.982,-2.73 -11.589,-3.055 l -5.928,-0.208 5.499,-2.775 c 7.313,-3.712 12.272,-3.445 19.663,1.014"
         fill="#f7ceb2"
         id="path918" />
      <path
         d="m 343.974,221.331 c 4.289,1.203 11.999,6.11 13.721,8.743 0.728,1.105 1.651,3.958 2.106,6.441 0.462,2.496 1.384,5.337 2.113,6.442 2.04,3.12 8.593,21.469 13.253,37.082 8.099,27.17 15.281,57.447 22.458,94.705 4.062,21.041 4.608,18.675 -5.578,23.907 -6.357,3.263 -7.299,4.102 -7.299,6.487 0,2.893 2.489,4.128 8.333,4.128 h 5.661 l -5.141,3.354 c -2.847,1.839 -5.395,3.958 -5.687,4.719 -0.865,2.21 2.333,4.797 5.94,4.797 2.744,0 2.958,0.169 1.931,1.423 -0.637,0.787 -2.62,2.334 -4.42,3.465 -5.876,3.698 -3.01,6.87 5.317,5.895 l 4.817,-0.559 -4.297,2.945 c -5.584,3.835 -8.392,6.942 -8.021,8.898 0.254,1.359 1.228,1.547 8.021,1.547 4.297,0 8.561,-0.305 9.613,-0.682 1.814,-0.663 1.866,-0.52 1.398,3.516 -0.494,4.212 0.787,8.405 2.295,7.462 0.916,-0.572 1.091,0.52 5.115,30.914 29.263,220.838 30.791,448.5 3.822,570.109 -15.574,70.233 -39.28,106.613 -71.104,109.141 -16.477,1.32 -34.924,-7.695 -48.203,-23.549 -33.112,-39.507 -52.508,-122.779 -59.846,-256.88 -1.463,-26.709 -1.45,-142.272 0.026,-174.291 5.902,-128.791 18.33,-245.297 37.18,-348.589 6.708,-36.751 20.481,-94.971 23.296,-98.475 0.409,-0.52 1.755,-4.381 2.944,-8.508 3.263,-11.245 7.872,-19.63 15.223,-27.645 4.05,-4.433 7.06,-6.129 12.467,-7.046 5.844,-0.994 8.684,-0.968 12.546,0.104"
         fill="#f6be52"
         id="path920" />
    </g>
    <path
       d="m 108.719,560.125 c 2.84,0.708 10.9,1.612 18.024,2.002 7.059,0.409 18.889,1.222 26.189,1.806 7.299,0.598 18.928,1.08 25.759,1.08 6.819,0 18.46,-0.482 25.76,-1.08 7.286,-0.584 19.116,-1.397 26.175,-1.806 7.137,-0.39 13.611,-1.015 14.515,-1.359 1.93,-0.76 1.956,-1.508 -1.131,34.385 -2.236,25.922 -4.94,67.08 -6.091,92.722 -0.513,11.336 -1.144,23.414 -1.397,26.826 l -0.487,6.234 -9.991,0.039 c -5.493,0.026 -14.599,0.52 -20.183,1.117 -7.124,0.748 -10.27,0.787 -10.51,0.124 -0.462,-1.28 -14.04,-83.2 -13.826,-83.395 0.085,-0.072 5.103,-2.489 11.122,-5.343 7.208,-3.412 10.939,-5.662 10.939,-6.565 0,-2.184 -2.489,-1.495 -13.988,3.861 l -11.082,5.154 -12.877,-3.808 c -11.934,-3.53 -15.281,-3.985 -15.281,-2.119 0,1.267 1.891,2.028 13.734,5.557 l 11.59,3.471 -0.254,2.483 c -0.364,3.432 -13.013,79.58 -13.403,80.704 -0.227,0.663 -3.38,0.624 -10.51,-0.124 -5.577,-0.597 -12.812,-1.091 -16.01,-1.104 -5.219,-0.026 -27.046,-2.705 -43.101,-5.272 -3.354,-0.546 -8.658,-1.137 -11.986,-1.358 -3.263,-0.202 -6.084,-0.495 -6.221,-0.644 -0.136,-0.143 4.212,-30.557 9.659,-67.567 5.447,-37.005 10.517,-71.565 11.252,-76.753 0.734,-5.245 1.469,-9.945 1.651,-10.562 0.351,-1.209 3.029,-0.917 11.96,1.294"
       fill="#e36944"
       id="path924" />
    <path
       d="m 215.28,13.715 c -4.173,5.46 -2.678,7.423 3.757,4.901 5.753,-2.256 6.766,-2.178 4.368,0.338 -1.066,1.111 -1.8,2.782 -1.612,3.646 0.306,1.424 1.118,1.554 7.807,1.287 l 7.481,-0.305 -0.864,2.281 c -0.585,1.541 -0.572,2.828 0.039,3.991 0.922,1.775 4.088,2.119 15.333,1.677 l 5.486,-0.214 -2.093,3.731 c -1.17,2.067 -2.645,4.563 -3.315,5.583 -0.955,1.456 -0.968,2.126 -0.078,3.179 0.904,1.085 2.49,1.228 8.496,0.812 l 7.384,-0.513 -2.067,3.347 c -1.105,1.807 -2.587,4.141 -3.199,5.07 -2.69,4.024 -0.571,5.974 5.519,5.083 2.152,-0.312 3.699,-0.195 3.699,0.28 0,0.448 -0.969,3.178 -2.145,6.09 -1.197,2.925 -2.146,5.824 -2.146,6.481 0,1.794 2.744,2.464 5.571,1.365 1.294,-0.5 2.528,-0.793 2.665,-0.631 0.143,0.163 -0.761,2.529 -1.969,5.201 -2.711,6.005 -2.256,7.825 1.884,7.332 3.628,-0.423 3.719,0.22 0.845,6.311 -1.163,2.496 -2.131,5.857 -2.131,7.429 0,2.75 0.117,2.854 2.58,2.379 2.879,-0.565 3.237,0.241 1.762,4.017 -0.442,1.171 -1.229,5.155 -1.723,8.762 -0.501,3.602 -1.729,9.276 -2.704,12.493 -1.638,5.318 -2.249,6.215 -6.441,9.4 l -4.641,3.516 v -13.566 c 0,-14.936 -0.462,-16.874 -3.608,-14.878 -5.141,3.276 -10.985,6.11 -10.985,5.349 0,-0.474 1.157,-4.121 2.581,-8.157 4.166,-11.759 3.542,-13.059 -4.726,-9.718 -2.827,1.144 -5.213,2.022 -5.278,1.95 -0.078,-0.071 1.053,-3.737 2.489,-8.112 1.736,-5.323 2.347,-8.261 1.801,-8.807 -0.546,-0.54 -2.918,-0.377 -7.046,0.481 -3.425,0.709 -6.337,1.28 -6.474,1.28 -0.156,0 -0.091,-1.111 0.137,-2.573 0.507,-3.276 -0.228,-3.303 -10.791,-0.41 -4.465,1.222 -8.261,2.028 -8.489,1.781 -0.24,-0.241 -0.013,-1.632 0.521,-3.172 1.254,-3.608 1.215,-5.649 -0.105,-6.123 -0.61,-0.227 -6.005,1.001 -12.011,2.73 l -10.901,3.133 1.242,-3.003 c 0.773,-1.892 0.955,-3.295 0.468,-3.777 -1.105,-1.104 -8.236,1.391 -18.291,6.377 -4.635,2.307 -8.606,4.179 -8.834,4.179 -0.234,0 -0.436,-1.755 -0.436,-3.822 0,-2.054 -0.357,-4.03 -0.773,-4.283 -1.255,-0.761 -8.326,2.632 -14.255,6.844 -2.996,2.132 -5.641,3.842 -5.921,3.842 -0.292,0 -0.279,-1.723 0.026,-3.868 0.767,-5.492 -1.241,-6.064 -5.772,-1.631 l -3.354,3.263 v -3.517 c 0,-7.416 -1.547,-6.447 -21.469,13.377 -13.137,13.072 -16.159,16.608 -22.315,26.072 -3.913,6.012 -7.416,10.952 -7.774,10.952 -0.338,0 -1.124,-0.604 -1.67,-1.293 -0.546,-0.689 -1.593,-1.287 -2.236,-1.287 -0.956,0 -1.209,-2.061 -1.209,-9.958 0,-8.249 0.461,-11.765 2.619,-20.436 7.326,-29.484 23.407,-48.51 53.963,-63.921 12.89,-6.487 30.297,-12.584 38.291,-13.416 2.841,-0.293 7.287,-1.079 9.881,-1.742 2.626,-0.663 8.157,-1.599 12.453,-2.1 4.291,-0.5 10.394,-1.826 13.735,-2.977 8.671,-3.003 9.672,-2.912 6.968,0.618"
       fill="#867156"
       id="path926" />
    <path
       d="m 108.719,721.786 c 5.226,0.52 9.796,1.306 10.257,1.768 0.442,0.442 5.155,0.812 10.472,0.812 5.316,0 12.558,0.416 16.1,0.936 6.266,0.93 6.435,1.014 6.052,3.224 -0.215,1.255 -9.536,91.702 -20.69,200.915 -14.514,142.012 -20.033,198.796 -19.363,199.219 0.974,0.598 5.408,25.857 4.738,26.975 -0.195,0.331 -20.059,0.598 -44.193,0.598 -39.839,0 -44.057,-0.13 -46.313,-1.462 -1.371,-0.8 -2.489,-1.684 -2.489,-1.977 0,-0.779 5.915,-2.45 10.816,-3.074 2.314,-0.293 4.608,-1.027 5.102,-1.651 0.494,-0.611 8.632,-5.824 18.077,-11.603 26.793,-16.367 25.493,-15.463 23.868,-16.659 -1.255,-0.923 -1.294,-3.198 -0.429,-27.151 0.519,-14.397 2.489,-70.538 4.38,-124.884 1.892,-54.353 4.382,-125.951 5.532,-159.263 1.157,-33.313 2.184,-66.84 2.275,-74.575 l 0.176,-14.04 3.087,0.481 c 1.716,0.254 7.3,0.891 12.545,1.411"
       fill="#f7ceb2"
       id="path928" />
    <g
       clip-path="url(#Clip_1)"
       id="g934">
      <path
         d="m 235.872,739.219 c -0.903,22.367 -0.695,108.947 0.306,133.25 4.179,100.276 15.821,175.877 34.482,224.01 2.399,6.181 4.888,12.59 5.506,14.254 1.573,4.115 1.527,8.327 -0.111,9.256 -1.105,0.631 -0.383,1.417 3.64,3.998 3.965,2.541 6.032,4.771 9.75,10.523 2.62,4.037 7.735,10.524 11.466,14.515 l 6.741,7.208 h -33.098 c -18.207,0 -33.261,-0.266 -33.462,-0.598 -0.676,-1.118 3.77,-26.377 4.732,-26.975 0.689,-0.422 -4.836,-57.207 -19.357,-199.218 -11.161,-109.213 -20.482,-199.661 -20.696,-200.916 -0.364,-2.196 -0.202,-2.294 4.94,-3.081 2.905,-0.448 9.964,-0.877 15.541,-0.955 l 10.218,-0.123 -0.598,14.852"
         fill="#f7ceb2"
         id="path930" />
      <path
         d="m 235.872,739.219 c -0.904,22.367 -0.696,108.947 0.305,133.25 4.18,100.276 15.821,175.877 34.483,224.01 2.399,6.181 4.888,12.59 5.505,14.254 1.573,4.115 1.528,8.327 -0.11,9.256 -1.105,0.631 -0.384,1.417 3.64,3.998 3.965,2.541 6.032,4.771 9.75,10.523 2.619,4.037 7.735,10.524 11.466,14.515 l 6.74,7.208 h -33.098 c -18.206,0 -33.26,-0.266 -33.462,-0.598 -0.676,-1.118 3.77,-26.377 4.732,-26.975 0.689,-0.422 -4.836,-57.207 -19.357,-199.218 -11.16,-109.213 -20.481,-199.661 -20.696,-200.916 -0.364,-2.196 -0.201,-2.294 4.94,-3.081 2.906,-0.448 9.965,-0.877 15.542,-0.955 l 10.218,-0.123 z M 108.719,721.786 c 5.226,0.52 9.795,1.307 10.257,1.768 0.442,0.442 5.154,0.813 10.471,0.813 5.317,0 12.558,0.416 16.101,0.935 6.266,0.93 6.435,1.015 6.051,3.224 -0.214,1.255 -9.535,91.703 -20.689,200.916 -14.515,142.011 -20.033,198.796 -19.364,199.218 0.975,0.598 5.408,25.857 4.739,26.975 -0.195,0.332 -20.059,0.598 -44.194,0.598 -39.838,0 -44.057,-0.13 -46.312,-1.462 -1.372,-0.8 -2.49,-1.684 -2.49,-1.976 0,-0.78 5.915,-2.451 10.816,-3.075 2.314,-0.293 4.609,-1.027 5.103,-1.651 0.494,-0.611 8.632,-5.824 18.076,-11.602 26.793,-16.368 25.493,-15.464 23.868,-16.66 -1.254,-0.923 -1.293,-3.198 -0.429,-27.151 0.52,-14.397 2.49,-70.537 4.381,-124.884 1.892,-54.353 4.381,-125.95 5.532,-159.263 1.157,-33.312 2.184,-66.84 2.275,-74.574 l 0.175,-14.04 3.088,0.48 c 1.716,0.254 7.299,0.891 12.545,1.411 z m 0,-161.661 c 2.84,0.708 10.9,1.612 18.024,2.002 7.059,0.409 18.889,1.222 26.189,1.807 7.299,0.597 18.928,1.079 25.759,1.079 6.819,0 18.46,-0.482 25.76,-1.079 7.286,-0.585 19.116,-1.398 26.175,-1.807 7.137,-0.39 13.611,-1.014 14.515,-1.359 1.93,-0.76 1.956,-1.508 -1.131,34.385 -2.236,25.922 -4.94,67.08 -6.091,92.722 -0.513,11.337 -1.144,23.414 -1.397,26.826 l -0.488,6.234 -9.99,0.039 c -5.493,0.026 -14.599,0.52 -20.183,1.117 -7.124,0.748 -10.27,0.787 -10.51,0.124 -0.462,-1.28 -14.04,-83.2 -13.826,-83.395 0.085,-0.071 5.103,-2.489 11.122,-5.343 7.208,-3.412 10.939,-5.662 10.939,-6.565 0,-2.184 -2.489,-1.495 -13.988,3.861 l -11.082,5.154 -12.877,-3.808 c -11.934,-3.53 -15.281,-3.985 -15.281,-2.119 0,1.267 1.891,2.028 13.734,5.557 l 11.59,3.471 -0.254,2.483 c -0.364,3.432 -13.013,79.58 -13.403,80.704 -0.227,0.663 -3.38,0.624 -10.51,-0.124 -5.577,-0.597 -12.812,-1.091 -16.01,-1.104 -5.219,-0.026 -27.046,-2.704 -43.101,-5.272 -3.354,-0.546 -8.658,-1.137 -11.986,-1.358 -3.263,-0.202 -6.084,-0.494 -6.221,-0.644 -0.136,-0.143 4.212,-30.557 9.659,-67.567 5.447,-37.005 10.517,-71.565 11.252,-76.753 0.734,-5.245 1.469,-9.944 1.651,-10.562 0.351,-1.209 3.029,-0.917 11.96,1.294 z M 88.926,438.074 c 0.683,12.708 1.456,27.391 1.71,32.572 0.266,5.245 0.715,12.382 0.994,16.022 0.28,3.608 0.306,6.91 0.033,7.339 -0.267,0.442 -3.296,0.494 -7.157,0.13 -3.679,-0.358 -12.493,-1.06 -19.539,-1.554 -7.033,-0.494 -12.948,-1.027 -13.091,-1.189 -0.136,-0.169 2.782,-6.669 6.481,-14.385 3.705,-7.735 10.101,-21.632 14.202,-30.823 8.912,-20.013 14.489,-31.83 14.866,-31.486 0.143,0.124 0.812,10.66 1.501,23.374 z m 324.935,-35.295 c 4.199,2.529 5.382,3.809 6.942,7.514 1.599,3.757 1.84,5.584 1.541,11.505 -0.5,9.698 -2.366,12.48 -11.492,17.063 -6.702,3.36 -15.795,5.206 -15.795,3.198 0,-0.468 3.432,-3.088 7.722,-5.876 5.928,-3.848 7.677,-5.421 7.527,-6.741 -0.228,-1.911 -3.062,-2.197 -10.017,-1.007 -3.782,0.65 -3.835,0.624 -2.32,-1.053 0.858,-0.949 3.601,-2.958 6.181,-4.505 2.756,-1.664 4.648,-3.406 4.648,-4.296 0,-1.359 -0.825,-1.456 -7.95,-1.04 l -7.949,0.487 2.158,-1.807 c 1.183,-1.001 4.166,-2.866 6.656,-4.16 3.334,-1.768 4.504,-2.86 4.504,-4.257 0,-2.21 -1.982,-2.73 -11.589,-3.055 l -5.928,-0.208 5.499,-2.776 c 7.313,-3.711 12.272,-3.445 19.662,1.014 z M 343.973,221.332 c 4.29,1.202 12,6.11 13.722,8.742 0.728,1.105 1.651,3.959 2.106,6.442 0.461,2.496 1.384,5.336 2.112,6.441 2.041,3.12 8.594,21.47 13.254,37.083 8.099,27.17 15.281,57.447 22.457,94.705 4.063,21.04 4.609,18.674 -5.577,23.907 -6.357,3.263 -7.299,4.101 -7.299,6.487 0,2.892 2.489,4.127 8.333,4.127 h 5.661 l -5.141,3.354 c -2.847,1.84 -5.395,3.959 -5.688,4.719 -0.864,2.21 2.334,4.797 5.941,4.797 2.744,0 2.958,0.169 1.931,1.424 -0.637,0.786 -2.62,2.333 -4.42,3.464 -5.876,3.699 -3.01,6.871 5.317,5.896 l 4.817,-0.559 -4.297,2.944 c -5.584,3.835 -8.392,6.942 -8.021,8.899 0.253,1.358 1.228,1.547 8.021,1.547 4.297,0 8.56,-0.306 9.613,-0.683 1.814,-0.663 1.866,-0.52 1.398,3.517 -0.494,4.212 0.786,8.404 2.294,7.462 0.917,-0.572 1.092,0.52 5.116,30.914 29.263,220.837 30.79,448.5 3.822,570.108 -15.574,70.233 -39.28,106.613 -71.104,109.142 -16.477,1.319 -34.924,-7.696 -48.204,-23.55 -33.111,-39.507 -52.507,-122.778 -59.845,-256.88 -1.463,-26.708 -1.45,-142.272 0.026,-174.291 5.902,-128.791 18.33,-245.297 37.18,-348.588 6.708,-36.751 20.481,-94.972 23.296,-98.475 0.409,-0.52 1.755,-4.381 2.944,-8.509 3.263,-11.245 7.872,-19.63 15.223,-27.644 4.05,-4.433 7.059,-6.13 12.467,-7.046 5.844,-0.995 8.684,-0.969 12.545,0.104 z M 184.723,81.198 c -2.795,5.512 -0.708,6.838 4.953,3.146 3.01,-1.963 18.824,-6.994 19.572,-6.24 0.195,0.195 -0.618,2.236 -1.801,4.55 -1.183,2.321 -2.145,4.713 -2.145,5.33 0,1.775 2.412,2.197 4.557,0.787 1.93,-1.274 13.13,-4.914 15.106,-4.914 0.702,0 0.611,0.604 -0.306,1.891 -3.042,4.329 -0.63,6 4.856,3.367 4.556,-2.171 10.991,-3.646 10.991,-2.509 0,0.429 -1.235,4.381 -2.756,8.847 -3.555,10.387 -3.009,11.258 4.739,7.436 2.996,-1.489 5.733,-2.717 6.038,-2.717 0.319,0 -1.014,4.465 -2.957,9.958 -3.185,9.022 -3.387,10.088 -2.184,11.29 1.183,1.196 1.677,1.105 4.582,-0.812 1.781,-1.164 4.94,-2.997 6.923,-3.991 l 3.64,-1.846 0.559,2.236 c 0.598,2.431 -0.15,20.605 -1.04,25.064 -0.455,2.314 -0.293,2.743 1.04,2.704 0.864,-0.02 2.97,-1.216 4.595,-2.613 3.01,-2.581 3.01,-2.581 3.458,-0.696 0.748,3.192 2.321,2.841 4.252,-0.936 2.307,-4.556 6.421,-6.636 10.932,-5.525 3.745,0.923 4.303,2.34 4.453,11.187 0.117,7.299 -2.542,12.298 -7.462,14.04 -3.009,1.059 -3.848,1.072 -5.753,0.058 -2.808,-1.495 -3.464,-0.786 -4.673,5.051 -2.015,9.789 -14.203,30.784 -22.029,37.973 -5.973,5.486 -21.125,15.99 -28.242,19.597 -4.258,2.145 -11.603,5.187 -16.315,6.767 -11.59,3.854 -11.323,3.146 -8.964,23.92 1.001,8.846 1.853,18.18 1.879,20.657 0.026,3.347 0.396,4.602 1.41,4.881 0.761,0.221 19.273,5.135 41.171,10.907 l 39.8,10.524 2.918,5.843 c 1.587,3.172 2.919,6.474 2.919,7.248 0,0.773 -1.378,7.858 -3.068,15.665 -3.263,15.21 -11.544,60.112 -13.241,71.955 -0.571,3.952 -1.384,7.338 -1.807,7.592 -0.428,0.266 -0.773,2.45 -0.773,4.94 0,2.489 -0.559,7.897 -1.254,12.2 -3.556,21.788 -8.899,64.48 -13.839,110.325 -1.183,11.069 -2.321,20.312 -2.516,20.475 -0.188,0.162 -5.492,0.637 -11.752,1.027 -6.324,0.409 -17.953,1.209 -26.013,1.78 -19.669,1.411 -43.205,1.444 -60.963,0.072 -8.073,-0.617 -18.057,-1.306 -22.334,-1.547 -4.29,-0.241 -8.483,-0.773 -9.432,-1.202 -0.949,-0.423 -5.551,-1.196 -10.27,-1.716 -4.725,-0.521 -8.697,-1.079 -8.885,-1.242 -0.182,-0.169 0.058,-1.079 0.494,-1.93 0.975,-1.905 1.001,-1.209 -3.237,-78.826 -1.892,-34.508 -3.621,-66.54 -3.848,-71.259 -1.508,-31.168 -3.133,-54.119 -3.887,-54.873 -2.535,-2.535 -2.691,1.3 -1.177,29.796 l 1.521,28.769 -6.181,12.837 c -3.393,7.033 -6.182,13.065 -6.182,13.345 0,0.643 -18.609,41.041 -25.655,55.731 -2.899,6.006 -5.246,11.472 -5.246,12.187 0,2.412 2.587,1.456 4.433,-1.625 1.801,-3.035 1.911,-3.087 6.383,-2.619 9.269,0.981 13.8,1.345 21.379,1.768 13.481,0.721 15.704,1.183 16.198,3.25 0.253,1.027 0.676,7.124 0.929,13.48 0.267,6.351 0.683,14.437 0.949,17.901 l 0.475,6.312 -3.699,-0.598 c -2.067,-0.344 -5.583,-1.131 -7.982,-1.813 -2.366,-0.664 -21.073,-5.272 -41.606,-10.258 -20.514,-4.979 -37.447,-9.21 -37.642,-9.398 -0.188,-0.189 4.765,-19.234 10.985,-42.25 8.808,-32.539 12.578,-45.052 16.907,-56.063 7.683,-19.539 7.364,-18.46 20.468,-67.827 6.448,-24.304 11.993,-44.486 12.298,-44.818 0.728,-0.773 83.155,-23.114 85.989,-23.296 1.202,-0.071 2.6,-0.442 3.172,-0.825 1.092,-0.709 2.879,-10.907 4.875,-27.651 2.275,-19.058 2.301,-19.702 1.196,-21.119 -1.04,-1.319 -8.379,-4.212 -10.706,-4.212 -2.333,0 -16.315,-5.986 -23.777,-10.179 -15.795,-8.872 -24.297,-18.408 -32.909,-36.868 -5.61,-12.018 -7.462,-17.374 -7.501,-21.638 -0.026,-3.263 -0.293,-3.861 -1.71,-3.861 -1.131,0 -1.898,0.858 -2.366,2.658 -1.69,6.526 -7.845,7.15 -13.585,1.372 -3.744,-3.757 -4.706,-8.236 -3.451,-15.88 1.371,-8.242 3.692,-10.926 10.601,-12.22 3.666,-0.682 7.033,2.009 8.112,6.468 0.52,2.145 1.209,3.003 2.412,3.003 1.449,0 1.638,-0.514 1.41,-3.861 -0.227,-3.497 0.293,-4.719 5.46,-12.877 3.146,-4.985 7.846,-11.628 10.485,-14.852 5.193,-6.357 26.546,-27.222 27.839,-27.222 0.436,0 0.598,0.689 0.371,1.547 -1.307,4.894 -1.32,6.045 -0.026,7.111 1.196,0.975 1.787,0.663 4.342,-2.256 l 2.957,-3.399 -0.546,3.094 c -0.572,3.263 0.702,5.174 2.347,3.523 0.487,-0.475 1.423,-0.65 2.112,-0.39 0.683,0.26 2.269,-0.488 3.562,-1.69 2.997,-2.808 13.793,-10.114 14.931,-10.114 0.903,0 0.611,4.381 -0.468,6.864 -0.293,0.689 -0.176,1.891 0.253,2.58 0.689,1.073 1.079,1.112 2.36,0.208 4.563,-3.185 23.465,-12.421 24.134,-11.784 0.143,0.136 -0.533,1.787 -1.521,3.763 z M 215.28,13.715 c -4.173,5.46 -2.678,7.423 3.757,4.901 5.752,-2.255 6.766,-2.177 4.368,0.338 -1.066,1.112 -1.801,2.782 -1.612,3.647 0.305,1.423 1.118,1.553 7.806,1.287 l 7.482,-0.306 -0.865,2.282 c -0.585,1.54 -0.572,2.827 0.039,3.991 0.923,1.774 4.089,2.119 15.334,1.677 l 5.486,-0.215 -2.093,3.731 c -1.17,2.067 -2.646,4.563 -3.315,5.584 -0.956,1.456 -0.969,2.125 -0.078,3.178 0.903,1.086 2.489,1.229 8.496,0.813 l 7.384,-0.514 -2.068,3.348 c -1.105,1.807 -2.587,4.14 -3.198,5.07 -2.691,4.023 -0.571,5.973 5.519,5.083 2.152,-0.312 3.699,-0.195 3.699,0.279 0,0.449 -0.969,3.179 -2.146,6.091 -1.196,2.925 -2.145,5.824 -2.145,6.48 0,1.794 2.744,2.464 5.571,1.365 1.293,-0.5 2.528,-0.793 2.665,-0.63 0.143,0.162 -0.761,2.528 -1.97,5.2 -2.71,6.006 -2.255,7.826 1.885,7.332 3.627,-0.423 3.718,0.221 0.845,6.311 -1.163,2.496 -2.132,5.857 -2.132,7.43 0,2.749 0.117,2.853 2.581,2.379 2.879,-0.566 3.237,0.24 1.761,4.017 -0.441,1.17 -1.228,5.154 -1.722,8.762 -0.501,3.601 -1.729,9.275 -2.704,12.493 -1.638,5.317 -2.249,6.214 -6.441,9.399 l -4.642,3.516 v -13.565 c 0,-14.937 -0.461,-16.874 -3.607,-14.879 -5.142,3.276 -10.985,6.11 -10.985,5.35 0,-0.475 1.157,-4.121 2.58,-8.158 4.167,-11.758 3.543,-13.058 -4.725,-9.717 -2.828,1.144 -5.213,2.021 -5.278,1.95 -0.078,-0.072 1.053,-3.738 2.489,-8.112 1.736,-5.324 2.347,-8.262 1.801,-8.808 -0.546,-0.539 -2.919,-0.377 -7.046,0.481 -3.426,0.709 -6.338,1.281 -6.474,1.281 -0.156,0 -0.091,-1.112 0.136,-2.574 0.507,-3.276 -0.227,-3.302 -10.79,-0.41 -4.465,1.222 -8.261,2.028 -8.489,1.781 -0.24,-0.24 -0.013,-1.631 0.52,-3.172 1.255,-3.607 1.216,-5.648 -0.104,-6.123 -0.611,-0.227 -6.006,1.001 -12.012,2.73 l -10.9,3.133 1.241,-3.003 c 0.774,-1.891 0.956,-3.295 0.468,-3.776 -1.105,-1.105 -8.235,1.391 -18.291,6.376 -4.634,2.308 -8.606,4.18 -8.833,4.18 -0.234,0 -0.436,-1.755 -0.436,-3.822 0,-2.054 -0.357,-4.03 -0.773,-4.284 -1.255,-0.76 -8.327,2.633 -14.255,6.845 -2.996,2.132 -5.642,3.841 -5.921,3.841 -0.293,0 -0.28,-1.722 0.026,-3.867 0.767,-5.493 -1.242,-6.065 -5.772,-1.632 l -3.354,3.263 v -3.516 c 0,-7.417 -1.547,-6.448 -21.47,13.377 -13.136,13.071 -16.159,16.607 -22.314,26.071 -3.913,6.013 -7.417,10.953 -7.774,10.953 -0.338,0 -1.125,-0.605 -1.671,-1.294 -0.546,-0.689 -1.592,-1.287 -2.236,-1.287 -0.955,0 -1.209,-2.06 -1.209,-9.958 0,-8.248 0.462,-11.765 2.62,-20.436 7.325,-29.484 23.406,-48.509 53.963,-63.921 12.889,-6.487 30.296,-12.584 38.291,-13.416 2.841,-0.292 7.287,-1.079 9.88,-1.742 2.626,-0.663 8.158,-1.599 12.454,-2.099 4.29,-0.501 10.394,-1.827 13.735,-2.977 8.671,-3.003 9.672,-2.912 6.968,0.617 z m 3.757,-7.943 c -1.625,0.865 -3.627,1.606 -4.381,1.632 -0.748,0.026 -4.108,1.007 -7.462,2.19 -3.393,1.196 -9.536,2.529 -13.826,3.003 -4.29,0.475 -10.133,1.417 -13.136,2.106 -2.997,0.689 -7.696,1.515 -10.556,1.853 -13.923,1.651 -43.44,14.878 -58.383,26.149 -12.974,9.789 -18.954,16.861 -27.053,31.967 -3.543,6.611 -5.168,11.122 -7.898,21.853 -3.263,12.877 -3.399,13.943 -2.866,22.282 l 0.559,8.756 -2.412,0.585 c -4.803,1.183 -7.098,2.996 -9.438,7.488 -2.028,3.88 -2.333,5.531 -2.372,12.746 -0.039,7.982 0.052,8.405 2.58,11.551 1.443,1.8 3.653,4.03 4.934,4.979 2.58,1.904 11.199,2.944 12.116,1.456 1.137,-1.846 2.119,-0.943 3.783,3.523 7.371,19.747 18.265,36.237 29.601,44.791 8.684,6.546 28.197,15.821 36.237,17.219 5.584,0.968 7.3,2.541 7.3,6.675 0,6.78 -4.57,37.388 -5.753,38.506 -0.383,0.358 -18.622,5.499 -40.612,11.427 -54.691,14.775 -48.6,12.591 -50.147,17.973 -0.696,2.463 -6.526,23.959 -12.961,47.827 -8.177,30.407 -13.254,47.469 -16.952,57.102 -2.906,7.553 -5.506,13.93 -5.798,14.17 -0.28,0.228 -6.045,21.073 -12.786,46.235 -10.335,38.545 -12.096,45.981 -11.121,46.923 0.637,0.605 18.154,5.226 38.935,10.257 20.774,5.025 38.746,9.509 39.929,9.952 1.17,0.442 5.064,1.306 8.58,1.891 l 6.435,1.079 0.221,3.426 c 0.111,1.891 -5.323,40.872 -12.116,86.723 -6.779,45.844 -12.135,83.726 -11.934,84.272 0.234,0.559 3.192,1.222 6.962,1.534 3.601,0.319 7.917,0.767 9.568,0.994 l 3.009,0.43 -0.63,21.632 c -0.65,21.456 -4.726,141.16 -7.072,207.102 -0.676,18.89 -2.223,64.643 -3.458,101.739 -1.229,37.082 -2.412,68.21 -2.613,69.199 -0.28,1.3 -5.889,5.154 -19.793,13.662 -19.5,11.921 -23.764,14.08 -27.904,14.145 -3.439,0.039 -8.301,2.398 -8.938,4.302 -0.734,2.263 0.865,4.941 4.128,6.917 2.626,1.599 4.758,1.677 49.751,1.677 h 47.014 v -2.789 c 0,-1.554 -1.196,-10.094 -2.665,-19.11 l -2.658,-16.315 19.831,-194.031 C 145.723,820.697 154.94,731.828 155.298,729.95 l 0.643,-3.438 h 9.269 l 6.526,-39.28 c 3.595,-21.638 6.715,-39.279 6.955,-39.279 0.228,0 3.354,17.641 6.962,39.279 l 6.506,39.28 h 9.282 l 0.65,3.438 c 0.358,1.878 9.562,90.747 20.475,197.477 l 19.832,194.031 -2.665,16.315 c -1.476,9.016 -2.652,17.556 -2.652,19.11 v 2.789 h 75.114 l 7.735,3.874 c 16.399,8.215 31.609,8.579 46.793,1.131 24.122,-11.856 43.238,-47.938 56.154,-105.983 12.207,-54.879 18.128,-121.062 19.116,-213.7 1.229,-115.083 -7.195,-244.953 -23.79,-366.529 -3.984,-29.198 -4.218,-30.569 -5.115,-30.569 -0.384,0 -0.598,-1.242 -0.475,-2.789 0.17,-2.275 0.904,-3.191 3.991,-4.979 2.054,-1.196 4.947,-3.874 6.344,-5.876 2.399,-3.432 2.607,-4.342 2.887,-12.584 0.279,-8.073 0.097,-9.321 -1.892,-13.643 -1.846,-4.017 -3.048,-5.324 -7.592,-8.203 -3.01,-1.905 -6.019,-3.445 -6.792,-3.445 -3.647,0 -4.18,-1.625 -9.763,-29.614 -10.16,-50.999 -20.189,-89.284 -30.167,-115.135 -2.145,-5.583 -4.81,-12.948 -5.863,-16.23 -2.613,-8.158 -3.53,-9.425 -9.659,-13.325 -6.858,-4.355 -11.596,-5.519 -19.76,-4.836 -7.891,0.669 -12.428,2.606 -17.147,7.345 -6.071,6.097 -15.691,21.918 -15.717,25.837 -0.013,0.78 -0.371,1.755 -0.825,2.236 -1.21,1.274 -6.273,18.207 -10.778,35.978 -2.275,9.015 -4.407,16.633 -4.777,17.036 -0.338,0.397 -1.762,-1.371 -3.081,-3.854 l -2.45,-4.596 -39.41,-10.478 c -21.632,-5.746 -39.709,-10.777 -40.079,-11.16 -0.949,-0.975 -5.012,-37.434 -4.316,-38.721 0.331,-0.611 4.381,-2.431 8.937,-4.017 21.723,-7.553 41.464,-21.242 53.028,-36.764 5.18,-6.961 12.811,-21.599 14.488,-27.82 0.923,-3.432 1.189,-3.692 3.835,-3.692 4.634,0 8.898,-2.301 11.446,-6.181 2.249,-3.419 2.379,-4.121 2.379,-13.397 0,-9.698 -0.026,-9.808 -2.411,-11.849 -1.859,-1.593 -3.341,-2.054 -6.604,-2.054 -4.953,0 -5.018,-0.176 -2.568,-7.3 0.943,-2.749 1.703,-6.37 1.703,-8.073 0,-2.827 3.172,-16.308 4.687,-19.916 0.903,-2.164 -1.515,-3.718 -3.822,-2.476 -1.027,0.552 -2.034,0.858 -2.197,0.669 -0.163,-0.195 0.825,-2.743 2.249,-5.752 3.504,-7.469 3.36,-8.671 -1.008,-8.671 -3.984,0 -3.997,-0.254 -0.123,-8.411 1.787,-3.777 1.969,-4.784 0.988,-5.408 -0.683,-0.449 -1.573,-0.631 -2.054,-0.436 -0.481,0.195 -2.288,0.949 -4.088,1.716 -3.172,1.359 -3.198,1.352 -2.438,-0.598 1.436,-3.692 4.342,-9.633 5.447,-11.16 1.547,-2.145 -0.384,-3.12 -4.329,-2.197 -1.729,0.396 -4.076,0.741 -5.115,0.741 -1.879,0 -1.84,-0.169 1.228,-5.844 3.477,-6.441 3.477,-9.451 0.013,-8.391 -1.027,0.318 -4.504,0.812 -7.676,1.092 l -5.805,0.513 3.451,-6.259 c 4.154,-7.553 4.355,-9.016 1.105,-8.203 -4.212,1.053 -19.22,1.599 -20.098,0.728 -0.559,-0.566 -0.058,-1.801 1.437,-3.601 2.639,-3.179 2.236,-5.798 -0.748,-4.83 -1.04,0.345 -4.511,0.806 -7.774,1.047 -5.57,0.409 -5.824,0.351 -5.011,-1.157 0.481,-0.91 1.625,-2.282 2.652,-3.205 1.982,-1.781 2.346,-3.497 0.955,-4.374 -0.487,-0.299 -2.834,0.058 -5.336,0.799 -6.091,1.82 -6.143,1.788 -3.588,-2.106 2.197,-3.347 2.268,-6.11 0.162,-5.934 -0.611,0.052 -2.489,0.819 -4.127,1.683"
         fill="#4d4e4c"
         id="path932" />
    </g>
    <path
       d="m 141.434,122.239 c -1.769,1.762 -0.267,3.679 4.199,5.33 2.665,0.995 5.271,1.788 5.843,1.781 1.202,-0.013 3.335,-4.179 2.678,-5.226 -0.448,-0.708 -8.002,-2.489 -10.575,-2.489 -0.865,0 -1.814,0.266 -2.145,0.604"
       fill="#4d4e4c"
       id="path936" />
    <path
       d="m 143.578,146.191 c -3.698,4.694 -0.955,14.086 4.115,14.086 3.809,0 6.207,-2.496 6.702,-6.961 0.357,-3.263 0.065,-4.291 -1.879,-6.604 -2.944,-3.523 -6.422,-3.719 -8.938,-0.521"
       fill="#4d4e4c"
       id="path938" />
    <path
       d="m 207.447,144.775 c -3.425,1.416 -5.011,4.049 -4.459,7.429 0.793,4.719 2.795,7.209 5.844,7.209 3.555,0 7.631,-4.121 7.631,-7.722 0,-1.892 -0.774,-3.53 -2.49,-5.239 -2.625,-2.633 -3.607,-2.886 -6.526,-1.677"
       fill="#4d4e4c"
       id="path940" />
    <path
       d="m 174.694,153.582 c -0.812,1.326 3.731,5.031 10.686,8.691 6.273,3.308 6.097,3.744 -2.229,5.7 -4.804,1.131 -6.084,2.178 -4.544,3.725 1.203,1.202 18.077,-2.665 18.707,-4.297 0.663,-1.696 -1.111,-3.328 -7.371,-6.812 -3.1,-1.716 -7.312,-4.27 -9.282,-5.616 -3.946,-2.697 -5.018,-2.951 -5.967,-1.391"
       fill="#4d4e4c"
       id="path942" />
    <path
       d="m 145.574,184.658 c -0.838,2.165 2.892,7.099 7.527,9.952 9.535,5.863 20.143,9.042 27.215,8.125 12.799,-1.651 31.006,-11.46 31.006,-16.705 0,-2.665 -1.84,-3.061 -3.569,-0.773 -3.062,4.062 -4.687,5.251 -11.466,8.469 -13.988,6.637 -22.815,6.883 -34.937,0.982 -7.385,-3.595 -9.608,-5.33 -11.349,-8.854 -1.132,-2.314 -3.718,-3.009 -4.427,-1.196"
       fill="#4d4e4c"
       id="path944" />
    <path
       d="m 181.649,508.261 c -0.253,1.066 -0.351,4.511 -0.214,7.507 0.227,4.901 0.455,5.545 1.982,5.545 1.495,0 1.736,-0.696 1.963,-5.584 0.306,-6.616 -0.286,-9.444 -1.963,-9.444 -0.741,0 -1.501,0.858 -1.768,1.976"
       fill="#4d4e4c"
       id="path946" />
  </g>
</svg>
