<?xml version="1.0" encoding="UTF-8" standalone="no"?>
<svg
   version="1.1"
   x="0"
   y="0"
   width="79.703323"
   height="140"
   viewBox="0 0 79.703323 140"
   id="svg13182"
   inkscape:version="1.2.2 (732a01da63, 2022-12-09)"
   sodipodi:docname="approvallady.svg"
   xmlns:inkscape="http://www.inkscape.org/namespaces/inkscape"
   xmlns:sodipodi="http://sodipodi.sourceforge.net/DTD/sodipodi-0.dtd"
   xmlns="http://www.w3.org/2000/svg"
   xmlns:svg="http://www.w3.org/2000/svg"
   xmlns:rdf="http://www.w3.org/1999/02/22-rdf-syntax-ns#"
   xmlns:cc="http://creativecommons.org/ns#"
   xmlns:dc="http://purl.org/dc/elements/1.1/">
  <metadata
     id="metadata13315">
    <rdf:RDF>
      <cc:Work
         rdf:about="">
        <dc:format>image/svg+xml</dc:format>
        <dc:type
           rdf:resource="http://purl.org/dc/dcmitype/StillImage" />
        <dc:title />
        <dc:description>remix by j4p4n</dc:description>
        <cc:license
           rdf:resource="http://creativecommons.org/publicdomain/zero/1.0/" />
      </cc:Work>
      <cc:License
         rdf:about="http://creativecommons.org/publicdomain/zero/1.0/">
        <cc:permits
           rdf:resource="http://creativecommons.org/ns#Reproduction" />
        <cc:permits
           rdf:resource="http://creativecommons.org/ns#Distribution" />
        <cc:permits
           rdf:resource="http://creativecommons.org/ns#DerivativeWorks" />
      </cc:License>
    </rdf:RDF>
  </metadata>
  <defs
     id="defs13313" />
  <sodipodi:namedview
     pagecolor="#ffffff"
     bordercolor="#666666"
     borderopacity="1"
     objecttolerance="10"
     gridtolerance="10"
     guidetolerance="10"
     inkscape:pageopacity="0"
     inkscape:pageshadow="2"
     inkscape:window-width="1920"
     inkscape:window-height="1017"
     id="namedview13311"
     showgrid="false"
     inkscape:zoom="0.52796406"
     inkscape:cx="125.00851"
     inkscape:cy="356.08484"
     inkscape:window-x="1912"
     inkscape:window-y="-8"
     inkscape:window-maximized="1"
     inkscape:current-layer="svg13182"
     inkscape:showpageshadow="2"
     inkscape:pagecheckerboard="0"
     inkscape:deskcolor="#d1d1d1" />
  <g
     id="g18610"
     transform="matrix(0.17770574,0,0,0.17770574,-0.00744763,-0.03212342)">
    <g
       id="Layer_1">
      <path
         id="path13185"
         fill="#692822"
         d="m 34,352.5 c 0,0 13.5,39 53.5,64 l 7.5,-40 c 0,0 -25,-30 -30,-31 -5,-1 -31,7 -31,7 z" />
      <path
         id="path13187"
         stroke-miterlimit="10"
         stroke-linejoin="round"
         stroke-linecap="round"
         stroke-width="7"
         stroke="#000000"
         fill-opacity="0"
         d="m 34,352.5 c 0,0 13.5,39 53.5,64" />
      <path
         id="path13189"
         fill="#692822"
         d="m 407,357.5 c 0,0 -13.5,39 -53.5,64 0,0 -10,-6 -6.5,-21 3.5,-15 12.5,-42.5 18,-44.5 5.5,-2 42,1.5 42,1.5 z" />
      <path
         id="path13191"
         stroke-miterlimit="10"
         stroke-linejoin="round"
         stroke-linecap="round"
         stroke-width="7"
         stroke="#000000"
         fill-opacity="0"
         d="m 407,357.5 c 0,0 -13.5,39 -53.5,64" />
      <path
         id="path13193"
         fill="#692822"
         d="M 429.5,265 C 435,179 426.5,104 347.5,43 257,-27 111,3 58.5,78 9.5,148 14,247.5 15.5,268 l 59,51 304,-15 z" />
      <path
         id="path13195"
         fill="#f8709e"
         d="m 385,784.5 c 0,0 8.5,-166 4,-201.5 -4.5,-35.5 -31,-51.5 -48.5,-56 C 323,522.5 251,499.5 251,499.5 l -51.5,4.5 c 0,0 -56,20 -70.5,23 -14.5,3 -35,13.5 -42,29 l -42,105.5 60,-13 c 0,0 16,136 18,136 z" />
      <path
         id="path13197"
         fill="#fdd4ad"
         d="m 251,501 -1.5,-12.5 1,-13 -50,3 v 10 l -1,20 -87,22.5 c 0,0 29.5,35.5 112.5,35.5 95,0 120.5,-38 120.5,-38 z" />
      <path
         id="path13199"
         fill="#dc8a6d"
         d="m 200.5,469 h 49 l 0.5,33 c 0,0 -2.5,19 -45.5,19.5 -21.5,0 -25.5,-9 -25.5,-9 l 19,-5.5 z" />
      <path
         id="path13201"
         fill="#fdd2b0"
         d="M 55,276.5 C 55,276.5 45,257 26,263 -13.5,275.5 -1,361.5 64.5,368.5" />
      <path
         id="path13203"
         fill="#fdd2b0"
         d="m 393,277 c 0,0 10,-19.5 29,-13.5 39.5,12.5 29,98.5 -37.5,105.5" />
      <path
         id="path13205"
         fill="#fdd2b0"
         d="m 65,198 c 28.5,-51.5 89,-87 159,-87 70.5,0 131,36 159.5,88.5 l 3,7 c 4,22.5 5,51.5 5,51.5 1,33 0.5,86 -14,129 C 350.5,467.5 265,485.5 224,485.5 183.5,485.5 97.5,467.5 70.5,387 55.5,341.5 55,285 57,252.5 c 0,0 0.5,-26 5,-48.5 z" />
      <path
         id="path13207"
         fill="#ffffff"
         d="m 179.5,290.5 c 0,25 -15.5,45 -34.5,45 -19,0 -34.5,-20 -34.5,-45 0,-25 15.5,-45 34.5,-45 19,0 34.5,20 34.5,45 z" />
      <path
         id="path13209"
         fill="#ffffff"
         d="m 339,290.5 c 0,25 -15.5,45 -34.5,45 -19,0 -34.5,-20 -34.5,-45 0,-25 15.5,-45 34.5,-45 19,0 34.5,20 34.5,45 z" />
      <path
         id="path13211"
         fill="#000000"
         d="m 174,297 c 0,16.845 -9.402,30.5 -21,30.5 -11.598,0 -21,-13.655 -21,-30.5 0,-16.845 9.402,-30.5 21,-30.5 11.598,0 21,13.655 21,30.5 z" />
      <path
         id="path13213"
         fill="#000000"
         d="m 317,297 c 0,16.845 -9.402,30.5 -21,30.5 -11.598,0 -21,-13.655 -21,-30.5 0,-16.845 9.402,-30.5 21,-30.5 11.598,0 21,13.655 21,30.5 z" />
      <path
         id="path13215"
         fill="#fa8b91"
         d="m 126,340.5 c 0,8 -13,14 -29.5,14 -16,0 -29.5,-6.5 -29.5,-14 0,-8 13,-14 29.5,-14 16.5,0 29.5,6 29.5,14 z" />
      <path
         id="path13217"
         fill="#fa8b91"
         d="m 381,340.5 c 0,8 -13,14 -29.5,14 -16,0 -29.5,-6.5 -29.5,-14 0,-8 13,-14 29.5,-14 16,0 29.5,6 29.5,14 z" />
      <path
         id="path13219"
         fill="#ffffff"
         d="m 174,286.5 c 0,3.5 -3,6.5 -6.5,6.5 -3.5,0 -6.5,-3 -6.5,-6.5 0,-3.5 3,-6.5 6.5,-6.5 3.5,0.5 6.5,3 6.5,6.5 z" />
      <path
         id="path13221"
         fill="#ffffff"
         d="m 316,286.5 c 0,3.5 -3,6.5 -6.5,6.5 -3.5,0 -6.5,-3 -6.5,-6.5 0,-3.5 3,-6.5 6.5,-6.5 3.5,0.5 6.5,3 6.5,6.5 z" />
      <path
         id="path13223"
         fill="#dc8a6d"
         d="m 59.5,346 -3,-33.5 c 0,0 -8,-21 -21,-24 -16,-4 -16.5,24 -5.5,39.5 17.5,23.5 29.5,18 29.5,18 z" />
      <path
         id="path13225"
         fill="#dc8a6d"
         d="m 390.5,346 3,-33.5 c 0,0 8,-21 21,-24 16,-4 16.5,24 5.5,39.5 -17.5,23.5 -29.5,18 -29.5,18 z" />
      <path
         id="path13227"
         fill="#d8e2ef"
         d="m 148,256.5 c 8,0 15.5,1.5 22.5,4 -6.5,-9 -15.5,-15 -25.5,-15 -11.5,0 -21.5,7.5 -28,18.5 9,-5 20,-7.5 31,-7.5 z" />
      <path
         id="path13229"
         fill="#d8e2ef"
         d="m 302,256.5 c -8,0 -15.5,1.5 -22.5,4 6.5,-9 15.5,-15 25.5,-15 11.5,0 21.5,7.5 28,18.5 -9.5,-5 -20,-7.5 -31,-7.5 z" />
      <path
         id="path13231"
         fill="#e5e5e5"
         d="m 429.5,265 c 1,-16.5 1.5,-32.5 1.5,-48.5 L 430,208 C 430,114 338,37.5 223.5,37.5 115.5,37.5 27,106 18,193.5 l -1,9.5 c -3,31 -2,56 -1,65 0,0 15.5,-14.5 31.5,-2 0,-85.5 79,-154.5 176.5,-154.5 97,-0.5 176,69 176,154.5 0,0 14.5,-10.5 29.5,-1 z" />
      <path
         id="path13233"
         fill="#f75182"
         d="m 224,719 c -42,0 -81,-8 -113,-21.5 5,39 11,87 12,87 h 262 c 0,0 3,-64 4.5,-121 -34,33 -95.5,55.5 -165.5,55.5 z" />
      <path
         id="path13235"
         fill="#bdbdbd"
         d="M 27.5,154.5 C 22.5,167 19,180 18,193.5 l -1,9.5 c -3,31 -2,56 -1,65 0,0 15.5,-14.5 31.5,-2 0,-11 1.5,-21.5 3.5,-31.5 0,-0.5 -17,-19 -23.5,-80 z" />
      <path
         id="path13237"
         fill="#bdbdbd"
         d="m 420.5,154.5 c 5,12.5 8.5,25.5 9.5,39 l 1,9.5 c 3,31 2,56 1,65 0,0 -15.5,-14.5 -31.5,-2 0,-11 -1.5,-21.5 -3.5,-31.5 0,-0.5 17,-19 23.5,-80 z" />
      <path
         id="path13239"
         stroke-miterlimit="10"
         stroke-linejoin="round"
         stroke-linecap="round"
         stroke-width="7"
         stroke="#000000"
         fill-opacity="0"
         d="m 174.5,197 c -13,-10 -46,-15 -64.5,7" />
      <path
         id="path13241"
         stroke-miterlimit="10"
         stroke-linejoin="round"
         stroke-linecap="round"
         stroke-width="8"
         stroke="#000000"
         fill-opacity="0"
         d="M 175.5,264.5 C 161,234 100.5,234 109,306" />
      <path
         id="path13243"
         stroke-miterlimit="10"
         stroke-linejoin="round"
         stroke-linecap="round"
         stroke-width="7"
         stroke="#000000"
         fill-opacity="0"
         d="M 55,276.5 C 55,276.5 45,257 26,263 -13.5,275.5 -1,361.5 64.5,368.5" />
      <path
         id="path13245"
         stroke-miterlimit="10"
         stroke-linejoin="round"
         stroke-linecap="round"
         stroke-width="7"
         stroke="#000000"
         fill-opacity="0"
         d="m 26.5,286 c 0,0 13,-9 29,26" />
      <path
         id="path13247"
         stroke-miterlimit="10"
         stroke-linejoin="round"
         stroke-linecap="round"
         stroke-width="7"
         stroke="#000000"
         fill-opacity="0"
         d="M 62,204.5 C 57.5,227 57,253 57,253 c -2,32 -1.5,89 13.5,134 27,80.5 112.5,98.5 153.5,98.5 40.5,0 126.5,-18 153.5,-98.5 14.5,-43 15,-96 14,-129 0,0 -1,-29 -5,-51.5" />
      <path
         id="path13249"
         stroke-miterlimit="10"
         stroke-linejoin="round"
         stroke-linecap="round"
         stroke-width="7"
         stroke="#000000"
         fill-opacity="0"
         d="m 272.5,197 c 13,-10 46,-15 64.5,7" />
      <path
         id="path13251"
         stroke-miterlimit="10"
         stroke-linejoin="round"
         stroke-linecap="round"
         stroke-width="8"
         stroke="#000000"
         fill-opacity="0"
         d="m 272.5,267 c 12,-33.5 76.5,-36 67.5,38.5" />
      <path
         id="path13253"
         stroke-miterlimit="10"
         stroke-linejoin="round"
         stroke-linecap="round"
         stroke-width="7"
         stroke="#000000"
         fill-opacity="0"
         d="m 393,277 c 0,0 10,-19.5 29,-13.5 39.5,12.5 29,98.5 -37.5,105.5" />
      <path
         id="path13255"
         stroke-miterlimit="10"
         stroke-linejoin="round"
         stroke-linecap="round"
         stroke-width="7"
         stroke="#000000"
         fill-opacity="0"
         d="m 421,286.5 c 0,0 -13,-9 -29,26" />
      <path
         id="path13257"
         stroke-miterlimit="10"
         stroke-linejoin="round"
         stroke-linecap="round"
         stroke-width="7"
         stroke="#000000"
         fill-opacity="0"
         d="m 97.5,284.5 11,6.5" />
      <path
         id="path13259"
         stroke-miterlimit="10"
         stroke-linejoin="round"
         stroke-linecap="round"
         stroke-width="7"
         stroke="#000000"
         fill-opacity="0"
         d="m 341,291 15,-6.5" />
      <path
         id="path13261"
         stroke-miterlimit="10"
         stroke-linejoin="round"
         stroke-linecap="round"
         stroke-width="7"
         stroke="#000000"
         fill-opacity="0"
         d="m 224,363.5 v -10" />
      <path
         id="path13263"
         stroke-miterlimit="10"
         stroke-linejoin="round"
         stroke-linecap="round"
         stroke-width="7"
         stroke="#000000"
         fill-opacity="0"
         d="M 15.5,268 C 14,247.5 9.5,148 58.5,78 111,3 257,-26.5 347.5,43 c 79,61 88,136 82,222" />
      <path
         id="path13265"
         stroke-miterlimit="10"
         stroke-linejoin="round"
         stroke-linecap="round"
         stroke-width="7"
         stroke="#000000"
         fill-opacity="0"
         d="M 40,698" />
      <path
         id="path13267"
         stroke-miterlimit="10"
         stroke-linejoin="round"
         stroke-linecap="round"
         stroke-width="7"
         stroke="#000000"
         fill-opacity="0"
         d="m 199.5,504 c 0,0 -56,20 -70.5,23" />
      <path
         id="path13269"
         stroke-miterlimit="10"
         stroke-linejoin="round"
         stroke-linecap="round"
         stroke-width="7"
         stroke="#000000"
         fill-opacity="0"
         d="m 250.5,500.5 c 0,0 72,23 89.5,27.5 17.5,4.5 44,19.5 48.5,55 4.5,35.5 -4,201.5 -4,201.5" />
      <path
         id="path13271"
         stroke-miterlimit="10"
         stroke-linejoin="round"
         stroke-linecap="round"
         stroke-width="7"
         stroke="#000000"
         fill-opacity="0"
         d="m 99.5,605.5 c 6.5,53.5 20,156 23,179" />
      <path
         id="path13273"
         stroke-miterlimit="10"
         stroke-linejoin="round"
         stroke-linecap="round"
         stroke-width="7"
         stroke="#000000"
         fill-opacity="0"
         d="m 356.5,606.5 -19,178" />
      <path
         id="path13275"
         stroke-miterlimit="10"
         stroke-linejoin="round"
         stroke-linecap="round"
         stroke-width="7"
         stroke="#000000"
         fill-opacity="0"
         d="M 345,723" />
      <path
         id="path13277"
         stroke-miterlimit="10"
         stroke-linejoin="round"
         stroke-linecap="round"
         stroke-width="7"
         stroke="#000000"
         fill-opacity="0"
         d="m 199.5,508.5 1,-20" />
      <path
         id="path13279"
         stroke-miterlimit="10"
         stroke-linejoin="round"
         stroke-linecap="round"
         stroke-width="7"
         stroke="#000000"
         fill-opacity="0"
         d="m 250.5,508.5 -1,-20" />
      <path
         id="path13281"
         fill="#000000"
         d="m 174,297 c 0,16.845 -9.402,30.5 -21,30.5 -11.598,0 -21,-13.655 -21,-30.5 0,-16.845 9.402,-30.5 21,-30.5 11.598,0 21,13.655 21,30.5 z" />
      <path
         id="path13283"
         fill="#000000"
         d="m 317,297 c 0,16.845 -9.402,30.5 -21,30.5 -11.598,0 -21,-13.655 -21,-30.5 0,-16.845 9.402,-30.5 21,-30.5 11.598,0 21,13.655 21,30.5 z" />
      <path
         id="path13285"
         fill="#ffffff"
         d="m 174,286.5 c 0,3.5 -3,6.5 -6.5,6.5 -3.5,0 -6.5,-3 -6.5,-6.5 0,-3.5 3,-6.5 6.5,-6.5 3.5,0.5 6.5,3 6.5,6.5 z" />
      <path
         id="path13287"
         fill="#ffffff"
         d="m 316,286.5 c 0,3.5 -3,6.5 -6.5,6.5 -3.5,0 -6.5,-3 -6.5,-6.5 0,-3.5 3,-6.5 6.5,-6.5 3.5,0.5 6.5,3 6.5,6.5 z" />
      <path
         id="path13289"
         stroke-miterlimit="10"
         stroke-linejoin="round"
         stroke-linecap="round"
         stroke-width="6"
         stroke="#000000"
         fill-opacity="0"
         d="m 344,529.5 c 0,0 -26.5,37 -118.5,37 -85.5,0 -110,-34.5 -110,-34.5" />
      <path
         id="path13291"
         stroke-miterlimit="10"
         stroke-linejoin="round"
         stroke-linecap="round"
         stroke-width="7"
         stroke="#000000"
         fill-opacity="0"
         d="M 47,266 C 47,180.5 126,111.5 223.5,111.5 321,111 400,180.5 400,266" />
      <path
         id="path13293"
         stroke-miterlimit="10"
         stroke-linejoin="round"
         stroke-linecap="round"
         stroke-width="7"
         stroke="#000000"
         fill-opacity="0"
         d="M 18,193.5 C 27,106 115.5,37.5 223.5,37.5 338,37.5 430,114 430,208" />
      <g
         id="g13297">
        <path
           sodipodi:nodetypes="ccccccccc"
           style="fill:#fdd2b0"
           inkscape:connector-curvature="0"
           id="path13299"
           d="m 151.5,477.5 c 5.5,10.5 5.5,27.5 1,31.5 -7,6.5 -18.5,6 -18.5,6 0,0 5.5,30 -13.5,45 l -9.5,35.5 -50,18 25.579982,-78.91643 -7.037733,-32.23219 19.15078,-30.77083" />
        <path
           sodipodi:nodetypes="ccccccc"
           style="fill-opacity:0;stroke:#000000;stroke-width:7;stroke-linecap:round;stroke-linejoin:round;stroke-miterlimit:10"
           inkscape:connector-curvature="0"
           id="path13301"
           stroke-miterlimit="10"
           d="m 151.5,477.5 c 5.5,10.5 5.5,27.5 1,31.5 -7,6.5 -18.5,6 -18.5,6 0,0 5.5,30 -13.5,45 l -9.5,35.5 -44.166766,3.19256 19,-60" />
      </g>
      <path
         id="path13303"
         stroke-miterlimit="10"
         stroke-linejoin="round"
         stroke-linecap="round"
         stroke-width="7"
         stroke="#000000"
         fill-opacity="0"
         d="M 134.5,514.5 C 133,499 127,488 127,488 l 14.5,3" />
      <g
         id="g13305">
        <path
           id="path13307"
           fill="#f8709e"
           d="m 122.5,572.5 c -12.5,47 -27,110.5 -32.5,129 -7.5,26.5 -17,47 -34,54 -20,8 -62,-7 -44.5,-55 18,-48 51,-110.5 51,-110.5 0,0 42.5,-7 60,-17.5 z" />
        <path
           id="path13309"
           stroke-miterlimit="10"
           stroke-linejoin="round"
           stroke-linecap="round"
           stroke-width="7"
           stroke="#000000"
           fill-opacity="0"
           d="m 122.5,572.5 c -12.5,47 -27,110.5 -32.5,129 -7.5,26.5 -17,47 -34,54 -20,8 -62,-7 -44.5,-55 18,-48 51,-110.5 51,-110.5 0,0 42.5,-7 60,-17.5 z" />
      </g>
      <path
         sodipodi:nodetypes="cc"
         inkscape:connector-curvature="0"
         id="path18608"
         d="m 184.73497,425.43538 c 24.8907,33.19035 48.49264,24.32642 71.72625,0"
         style="fill:none;fill-rule:evenodd;stroke:#000000;stroke-width:6.72824;stroke-linecap:round;stroke-linejoin:round;stroke-miterlimit:4;stroke-dasharray:none;stroke-opacity:1" />
    </g>
    <g
       transform="matrix(0.25558942,-0.08451921,0.10125346,0.18777726,25.214242,434.72435)"
       id="Layer_1-0">
      <g
         style="fill:#fdd2b0;fill-opacity:1"
         id="g18542">
        <path
           sodipodi:nodetypes="ccsccc"
           style="fill:#fdd2b0;fill-opacity:1"
           inkscape:connector-curvature="0"
           d="M 141.24,701.835 C 60.585,693.145 -1.78,646.54 11.225,525.84 18.498206,458.31388 56.567993,412.45833 92.539509,366.21563 120.86285,329.80495 141.29856,283.69832 189.375,291.185 290.9,306.99 326.74,408.235 311.97,525.46 296.79,645.915 221.89,710.52 141.24,701.835 Z"
           id="path18544" />
        <path
           sodipodi:nodetypes="ccccc"
           style="fill:#fdd2b0;fill-opacity:1;stroke:#1a1919;stroke-width:29.4357;stroke-linecap:round;stroke-linejoin:round;stroke-miterlimit:4;stroke-dasharray:none"
           inkscape:connector-curvature="0"
           d="M 141.24,701.835 C 60.585,693.145 -1.78,646.54 11.225,525.84 29.117013,403.763 231.83587,235.06988 159.46103,303.34182 c 101.525,15.805 137.365,117.05 122.595,234.275 C 266.87603,658.07182 221.89,710.52 141.24,701.835 Z"
           id="path18546" />
      </g>
      <g
         style="fill:#fdd2b0;fill-opacity:1"
         id="g18548">
        <path
           style="fill:#fdd2b0;fill-opacity:1"
           inkscape:connector-curvature="0"
           d="m 199.71,676.38 c 0,0 -82.96,-117.665 -123.85,-34.305 -17.91,36.505 48.475,114.27 104.67,123.095 53.265,8.36 100.185,-45.99 79.13,-118.15"
           id="path18550" />
        <path
           style="fill:#fdd2b0;fill-opacity:1;stroke:#1a1919;stroke-width:29.4357;stroke-linecap:round;stroke-linejoin:round;stroke-miterlimit:4;stroke-dasharray:none"
           inkscape:connector-curvature="0"
           d="m 199.71,676.38 c 0,0 -82.96,-117.665 -123.85,-34.305 -17.91,36.505 48.475,114.27 104.67,123.095 53.265,8.36 100.185,-45.99 79.13,-118.15"
           id="path18552" />
      </g>
      <g
         style="fill:#fdd2b0;fill-opacity:1"
         id="g18554">
        <path
           style="fill:#fdd2b0;fill-opacity:1"
           inkscape:connector-curvature="0"
           d="m 263.39,623.24 c 0,0 -108.555,-153.97 -162.065,-44.895 -23.44,47.775 63.435,149.54 136.97,161.08 69.7,10.94 131.095,-60.18 103.54,-154.61"
           id="path18556" />
        <path
           style="fill:#fdd2b0;fill-opacity:1;stroke:#1a1919;stroke-width:29.4357;stroke-linecap:round;stroke-linejoin:round;stroke-miterlimit:4;stroke-dasharray:none"
           inkscape:connector-curvature="0"
           d="m 263.39,623.24 c 0,0 -108.555,-153.97 -162.065,-44.895 -23.44,47.775 63.435,149.54 136.97,161.08 69.7,10.94 131.095,-60.18 103.54,-154.61"
           id="path18558" />
      </g>
      <g
         style="fill:#fdd2b0;fill-opacity:1"
         id="g18560">
        <path
           style="fill:#fdd2b0;fill-opacity:1"
           inkscape:connector-curvature="0"
           d="m 306.1,555.82 c 0,0 -108.56,-153.965 -162.07,-44.895 C 120.59,558.7 207.465,660.465 281,672.005 350.7,682.94 412.09,611.82 384.54,517.4"
           id="path18562" />
        <path
           style="fill:#fdd2b0;fill-opacity:1;stroke:#1a1919;stroke-width:29.4357;stroke-linecap:round;stroke-linejoin:round;stroke-miterlimit:4;stroke-dasharray:none"
           inkscape:connector-curvature="0"
           d="m 306.1,555.82 c 0,0 -108.56,-153.965 -162.07,-44.895 C 120.59,558.7 207.465,660.465 281,672.005 350.7,682.94 412.09,611.82 384.54,517.4"
           id="path18564" />
      </g>
      <path
         style="fill:#f8cda2"
         inkscape:connector-curvature="0"
         d="m 332.415,334.49 c 0,0 -48.62,-17.88 -93.265,-17.485 -44.65,0.395 -51.24,103.02 -51.24,103.02 l 170.61,31.01 -26.105,-116.545"
         id="path18566" />
      <g
         style="fill:#fdd2b0;fill-opacity:1"
         id="g18568">
        <path
           sodipodi:nodetypes="cssssccc"
           style="fill:#fdd2b0;fill-opacity:1"
           inkscape:connector-curvature="0"
           d="m 363.325,471.4 c 0,0 -37.71968,-191.07661 -106.70491,-204.99869 C 200.39049,255.05348 132.04983,351.40755 102.23314,412.82533 54.675996,510.78568 62.912665,601.96394 55.864175,645.42892 52.59524,665.58703 162.82756,762.92333 198.5022,753.35124 264.46747,735.65168 306.68055,557.5647 346.45592,555.62593 422.84592,567.61093 473.375,496.065 441.31,420.245 417.075,362.935 354.915,325.76 281.245,314.195"
           id="path18570" />
        <path
           sodipodi:nodetypes="ccc"
           style="fill:#fdd2b0;fill-opacity:1;stroke:#1a1919;stroke-width:29.4357;stroke-linecap:round;stroke-linejoin:round;stroke-miterlimit:4;stroke-dasharray:none"
           inkscape:connector-curvature="0"
           d="m 336.78644,548.94905 c 76.39,11.985 126.21162,-60.74869 94.14662,-136.56869 C 406.69806,355.07036 354.915,325.76 281.245,314.195"
           id="path18572" />
      </g>
      <g
         style="fill:#fdd2b0;fill-opacity:1"
         id="g18574">
        <path
           sodipodi:nodetypes="cscc"
           style="fill:#fdd2b0;fill-opacity:1"
           inkscape:connector-curvature="0"
           d="M 167.01431,325.72149 C 377.63431,260.26649 345.79663,-1.3409951 457.17571,70.191997 482.67553,86.569206 487.175,108.565 471.405,157.74 435.94,268.325 315.5,226.115 331.32,344.53"
           id="path18576" />
        <path
           sodipodi:nodetypes="cscc"
           style="fill:#fdd2b0;fill-opacity:1;stroke:#1a1919;stroke-width:29.4357;stroke-linecap:round;stroke-linejoin:round;stroke-miterlimit:4;stroke-dasharray:none"
           inkscape:connector-curvature="0"
           d="M 165.11761,293.55297 C 302.70275,187.86333 283.87542,89.632222 373.78026,81.644431 c 30.86573,-2.742333 42.2539,11.430552 26.4839,60.605559 -35.465,110.585 -108.53988,104.04304 -58.05344,189.72829"
           id="path18578" />
      </g>
      <path
         inkscape:connector-curvature="0"
         id="path18606"
         d="m 268.95705,671.33935 28.19253,-0.0862"
         style="fill:none;fill-rule:evenodd;stroke:#000000;stroke-width:29.4357;stroke-linecap:round;stroke-linejoin:miter;stroke-miterlimit:4;stroke-dasharray:none;stroke-opacity:1" />
    </g>
  </g>
</svg>
