<svg width="79.703" height="140" xmlns="http://www.w3.org/2000/svg"><path fill="#692822" d="M6.035 62.61s2.399 6.93 9.507 11.372l1.333-7.108s-4.443-5.331-5.332-5.509c-.888-.177-5.508 1.244-5.508 1.244z"/><path stroke-miterlimit="10" stroke-linejoin="round" stroke-linecap="round" stroke-width="1.24397" stroke="#000" d="M6.035 62.61s2.399 6.93 9.507 11.372" fill="none"/><path fill="#692822" d="M72.319 63.498s-2.4 6.93-9.507 11.373c0 0-1.778-1.066-1.156-3.732.622-2.666 2.222-7.552 3.2-7.908.977-.355 7.463.267 7.463.267z"/><path stroke-miterlimit="10" stroke-linejoin="round" stroke-linecap="round" stroke-width="1.24397" stroke="#000" d="M72.319 63.498s-2.4 6.93-9.507 11.373" fill="none"/><path fill="#692822" d="M76.317 47.06c.978-15.283-.533-28.61-14.572-39.45C45.663-4.83 19.718.5 10.388 13.828 1.681 26.269 2.48 43.95 2.747 47.593l10.485 9.063 54.022-2.666z"/><path fill="#f8709e" d="M68.41 139.378s1.51-29.5.71-35.808-5.509-9.152-8.619-9.951c-3.11-.8-15.904-4.887-15.904-4.887l-9.152.8s-9.952 3.554-12.528 4.087c-2.577.533-6.22 2.399-7.464 5.153L7.989 117.52l10.663-2.31s2.843 24.168 3.198 24.168z"/><path fill="#fdd4ad" d="M44.597 88.998l-.267-2.22.178-2.311-8.885.533v1.777l-.178 3.554-15.46 3.999s5.242 6.308 19.991 6.308c16.882 0 21.414-6.753 21.414-6.753z"/><path fill="#dc8a6d" d="M35.623 83.312h8.707l.089 5.864s-.444 3.377-8.086 3.465c-3.82 0-4.531-1.599-4.531-1.599l3.376-.977z"/><path fill="#fdd2b0" d="M9.766 49.104s-1.777-3.466-5.153-2.4c-7.02 2.222-4.798 17.505 6.842 18.748M69.83 49.192s1.778-3.465 5.154-2.399c7.02 2.222 5.154 17.504-6.664 18.748"/><path fill="#fdd2b0" d="M11.543 35.154c5.065-9.152 15.816-15.46 28.256-15.46 12.528 0 23.28 6.397 28.344 15.726l.533 1.244c.71 3.998.888 9.152.888 9.152.178 5.864.09 15.283-2.488 22.924C62.278 83.045 47.085 86.244 39.8 86.244c-7.197 0-22.48-3.199-27.278-17.504-2.666-8.086-2.755-18.126-2.4-23.901 0 0 .09-4.62.89-8.62z"/><path fill="#fff" d="M31.89 51.591c0 4.443-2.754 7.997-6.13 7.997-3.377 0-6.131-3.554-6.131-7.997 0-4.442 2.754-7.996 6.13-7.996 3.377 0 6.132 3.554 6.132 7.996zM60.235 51.591c0 4.443-2.755 7.997-6.131 7.997-3.376 0-6.13-3.554-6.13-7.997 0-4.442 2.754-7.996 6.13-7.996s6.13 3.554 6.13 7.996z"/><path d="M30.913 52.746c0 2.994-1.67 5.42-3.731 5.42-2.062 0-3.732-2.426-3.732-5.42 0-2.993 1.67-5.42 3.732-5.42 2.06 0 3.731 2.427 3.731 5.42zM56.325 52.746c0 2.994-1.67 5.42-3.732 5.42-2.06 0-3.731-2.426-3.731-5.42 0-2.993 1.67-5.42 3.731-5.42s3.732 2.427 3.732 5.42z"/><path fill="#fa8b91" d="M22.383 60.477c0 1.421-2.31 2.488-5.242 2.488-2.843 0-5.242-1.156-5.242-2.488 0-1.422 2.31-2.488 5.242-2.488s5.242 1.066 5.242 2.488zM67.698 60.477c0 1.421-2.31 2.488-5.242 2.488-2.843 0-5.242-1.156-5.242-2.488 0-1.422 2.31-2.488 5.242-2.488 2.843 0 5.242 1.066 5.242 2.488z"/><path fill="#fff" d="M30.913 50.88c0 .623-.533 1.156-1.155 1.156a1.176 1.176 0 01-1.155-1.155c0-.622.533-1.156 1.155-1.156.622.09 1.155.534 1.155 1.156zM56.148 50.88c0 .623-.534 1.156-1.156 1.156a1.176 1.176 0 01-1.155-1.155c0-.622.534-1.156 1.155-1.156.622.09 1.156.534 1.156 1.156z"/><path fill="#dc8a6d" d="M10.566 61.454l-.533-5.953S8.61 51.769 6.3 51.236c-2.843-.71-2.932 4.265-.977 7.02 3.11 4.175 5.242 3.198 5.242 3.198zM69.387 61.454l.533-5.953s1.421-3.732 3.732-4.265c2.843-.71 2.932 4.265.977 7.02-3.11 4.175-5.242 3.198-5.242 3.198z"/><path fill="#d8e2ef" d="M26.293 45.55c1.422 0 2.754.266 3.998.71-1.155-1.6-2.754-2.665-4.531-2.665-2.044 0-3.82 1.332-4.976 3.287 1.6-.888 3.554-1.333 5.509-1.333zM53.66 45.55c-1.422 0-2.755.266-3.999.71 1.155-1.6 2.755-2.665 4.532-2.665 2.043 0 3.82 1.332 4.976 3.287-1.689-.888-3.555-1.333-5.51-1.333z"/><path fill="#e5e5e5" d="M76.317 47.06c.178-2.932.267-5.776.267-8.619l-.178-1.51c0-16.705-16.349-30.3-36.696-30.3-19.192 0-34.92 12.174-36.519 27.723l-.177 1.688c-.534 5.509-.356 9.952-.178 11.551 0 0 2.754-2.577 5.598-.355 0-15.194 14.038-27.456 31.365-27.456 17.237-.089 31.276 12.262 31.276 27.456 0 0 2.577-1.866 5.242-.178z"/><path fill="#f75182" d="M39.799 127.738c-7.464 0-14.395-1.421-20.081-3.82.888 6.93 1.955 15.46 2.132 15.46h46.56s.532-11.373.799-21.502c-6.042 5.864-16.971 9.862-29.41 9.862z"/><path fill="#bdbdbd" d="M4.88 27.423c-.89 2.222-1.511 4.532-1.689 6.93l-.177 1.69c-.534 5.508-.356 9.95-.178 11.55 0 0 2.754-2.577 5.598-.355 0-1.955.266-3.821.622-5.598 0-.089-3.021-3.377-4.177-14.217zM74.718 27.423c.888 2.222 1.51 4.532 1.688 6.93l.178 1.69c.533 5.508.355 9.95.177 11.55 0 0-2.754-2.577-5.597-.355 0-1.955-.267-3.821-.622-5.598 0-.089 3.02-3.377 4.176-14.217z"/><path stroke-miterlimit="10" stroke-linejoin="round" stroke-linecap="round" stroke-width="1.24397" stroke="#000" d="M31.002 34.976c-2.31-1.777-8.174-2.666-11.462 1.244" fill="none"/><path stroke-miterlimit="10" stroke-linejoin="round" stroke-linecap="round" stroke-width="1.42168" stroke="#000" d="M31.18 46.971c-2.577-5.42-13.328-5.42-11.818 7.375" fill="none"/><path stroke-miterlimit="10" stroke-linejoin="round" stroke-linecap="round" stroke-width="1.24397" stroke="#000" d="M9.766 49.104s-1.777-3.466-5.153-2.4c-7.02 2.222-4.798 17.505 6.842 18.748M4.702 50.792s2.31-1.6 5.153 4.62" fill="none"/><path stroke-miterlimit="10" stroke-linejoin="round" stroke-linecap="round" stroke-width="1.24397" stroke="#000" d="M11.01 36.309c-.8 3.998-.888 8.618-.888 8.618-.356 5.687-.267 15.816 2.399 23.813 4.798 14.305 19.992 17.504 27.278 17.504 7.197 0 22.48-3.199 27.277-17.504 2.577-7.641 2.666-17.06 2.488-22.924 0 0-.177-5.154-.888-9.152M48.417 34.976c2.31-1.777 8.175-2.666 11.462 1.244" fill="none"/><path stroke-miterlimit="10" stroke-linejoin="round" stroke-linecap="round" stroke-width="1.42168" stroke="#000" d="M48.417 47.415c2.133-5.953 13.595-6.397 11.996 6.842" fill="none"/><path stroke-miterlimit="10" stroke-linejoin="round" stroke-linecap="round" stroke-width="1.24397" stroke="#000" d="M69.83 49.192s1.778-3.465 5.154-2.399c7.02 2.222 5.154 17.504-6.664 18.748M74.807 50.88s-2.31-1.599-5.154 4.62M17.319 50.525l1.955 1.155M60.59 51.68l2.666-1.155M39.799 64.564v-1.777" fill="none"/><path stroke-miterlimit="10" stroke-linejoin="round" stroke-linecap="round" stroke-width="1.24397" stroke="#000" d="M2.747 47.593c-.267-3.643-1.066-21.325 7.641-33.764C19.718.5 45.663-4.741 61.745 7.609c14.04 10.84 15.638 24.168 14.572 39.45M35.445 89.532s-9.952 3.554-12.528 4.087M44.508 88.91s12.795 4.087 15.905 4.887c3.11.8 7.819 3.465 8.618 9.773.8 6.309-.71 35.808-.71 35.808M17.674 107.569c1.155 9.507 3.554 27.722 4.088 31.809M63.345 107.746l-3.377 31.632M35.445 90.331l.178-3.554M44.508 90.331l-.178-3.554" fill="none"/><path d="M30.913 52.746c0 2.994-1.67 5.42-3.731 5.42-2.062 0-3.732-2.426-3.732-5.42 0-2.993 1.67-5.42 3.732-5.42 2.06 0 3.731 2.427 3.731 5.42zM56.325 52.746c0 2.994-1.67 5.42-3.732 5.42-2.06 0-3.731-2.426-3.731-5.42 0-2.993 1.67-5.42 3.731-5.42s3.732 2.427 3.732 5.42z"/><path fill="#fff" d="M30.913 50.88c0 .623-.533 1.156-1.155 1.156a1.176 1.176 0 01-1.155-1.155c0-.622.533-1.156 1.155-1.156.622.09 1.155.534 1.155 1.156zM56.148 50.88c0 .623-.534 1.156-1.156 1.156a1.176 1.176 0 01-1.155-1.155c0-.622.534-1.156 1.155-1.156.622.09 1.156.534 1.156 1.156z"/><path stroke-miterlimit="10" stroke-linejoin="round" stroke-linecap="round" stroke-width="1.06626" stroke="#000" d="M61.123 94.063s-4.709 6.575-21.058 6.575c-15.194 0-19.547-6.13-19.547-6.13" fill="none"/><path stroke-miterlimit="10" stroke-linejoin="round" stroke-linecap="round" stroke-width="1.24397" stroke="#000" d="M8.345 47.238c0-15.194 14.038-27.456 31.365-27.456 17.326-.089 31.365 12.262 31.365 27.456" fill="none"/><path stroke-miterlimit="10" stroke-linejoin="round" stroke-linecap="round" stroke-width="1.24397" stroke="#000" d="M3.191 34.354c1.6-15.55 17.327-27.722 36.519-27.722 20.347 0 36.696 13.594 36.696 30.299" fill="none"/><path d="M26.915 84.822c.977 1.866.977 4.887.178 5.598-1.244 1.155-3.288 1.066-3.288 1.066s.978 5.332-2.399 7.997l-1.688 6.309-8.885 3.198 4.545-14.024-1.25-5.727 3.403-5.469" fill="#fdd2b0"/><path stroke-miterlimit="10" d="M26.915 84.822c.977 1.866.977 4.887.178 5.598-1.244 1.155-3.288 1.066-3.288 1.066s.978 5.332-2.399 7.997l-1.688 6.309-7.849.567 3.377-10.662" stroke="#000" stroke-width="1.24397" stroke-linecap="round" stroke-linejoin="round" fill="none"/><path stroke-miterlimit="10" stroke-linejoin="round" stroke-linecap="round" stroke-width="1.24397" stroke="#000" d="M23.894 91.397c-.267-2.754-1.333-4.709-1.333-4.709l2.577.533" fill="none"/><path fill="#f8709e" d="M21.762 101.704c-2.222 8.353-4.799 19.637-5.776 22.924-1.333 4.71-3.02 8.353-6.042 9.597-3.554 1.421-11.018-1.244-7.908-9.774 3.199-8.53 9.063-19.637 9.063-19.637s7.553-1.244 10.663-3.11z"/><path stroke-miterlimit="10" stroke-linejoin="round" stroke-linecap="round" stroke-width="1.24397" stroke="#000" d="M21.762 101.704c-2.222 8.353-4.799 19.637-5.776 22.924-1.333 4.71-3.02 8.353-6.042 9.597-3.554 1.421-11.018-1.244-7.908-9.774 3.199-8.53 9.063-19.637 9.063-19.637s7.553-1.244 10.663-3.11z" fill="none"/><path d="M32.821 75.57c4.423 5.898 8.617 4.323 12.746 0" fill="none" stroke="#000" stroke-width="1.19563288" stroke-linecap="round" stroke-linejoin="round"/><g><g fill="#fdd2b0"><path d="M23.517 98.52c-3.82.92-7.491.302-9.072-3.92-.885-2.363.02-4.465.82-6.549.632-1.64.73-3.486 3.049-3.958 4.896-.997 8.345 1.843 9.784 5.976 1.478 4.248-.762 7.529-4.581 8.45z"/><path d="M141.24 701.835C60.585 693.145-1.78 646.54 11.225 525.84c17.892-122.077 220.61-290.77 148.236-222.498 101.525 15.805 137.365 117.05 122.595 234.275-15.18 120.455-60.166 172.903-140.816 164.218z" stroke="#1a1919" stroke-width="29.436" stroke-linecap="round" stroke-linejoin="round" transform="matrix(.04542 -.01502 .018 .03337 4.473 77.22)"/></g><g fill="#fdd2b0"><path d="M25.714 96.792s-5.885-2.68-6.242.715c-.157 1.487 4.258 3.085 6.969 2.535 2.57-.52 3.723-3.039 1.468-5.13"/><path d="M199.71 676.38s-82.96-117.665-123.85-34.305c-17.91 36.505 48.475 114.27 104.67 123.095 53.265 8.36 100.185-45.99 79.13-118.15" stroke="#1a1919" stroke-width="29.436" stroke-linecap="round" stroke-linejoin="round" transform="matrix(.04542 -.01502 .018 .03337 4.473 77.22)"/></g><g fill="#fdd2b0"><path d="M27.65 94.062s-7.7-3.508-8.168.936c-.205 1.946 5.572 4.037 9.12 3.318 3.362-.682 4.87-3.977 1.92-6.715"/><path d="M263.39 623.24s-108.555-153.97-162.065-44.895c-23.44 47.775 63.435 149.54 136.97 161.08 69.7 10.94 131.095-60.18 103.54-154.61" stroke="#1a1919" stroke-width="29.436" stroke-linecap="round" stroke-linejoin="round" transform="matrix(.04542 -.01502 .018 .03337 4.473 77.22)"/></g><g fill="#fdd2b0"><path d="M28.377 91.17s-7.7-3.507-8.169.937c-.205 1.946 5.572 4.037 9.12 3.318 3.362-.682 4.87-3.978 1.92-6.715"/><path d="M306.1 555.82s-108.56-153.965-162.07-44.895C120.59 558.7 207.465 660.465 281 672.005 350.7 682.94 412.09 611.82 384.54 517.4" stroke="#1a1919" stroke-width="29.436" stroke-linecap="round" stroke-linejoin="round" transform="matrix(.04542 -.01502 .018 .03337 4.473 77.22)"/></g><path d="M25.59 83.39s-2.53.133-4.55.817c-2.022.684-.474 4.207-.474 4.207l8.307-1.527-3.283-3.497" fill="#f8cda2"/><g fill="#fdd2b0"><path d="M29.457 87.494s-5.15-5.81-8.535-5.238c-2.758.466-4.128 4.708-4.377 7.205-.398 3.983 1.617 6.902 2.079 8.458.214.722 6.972 2.314 8.42 1.46 2.678-1.582 1.391-8.159 3.163-8.821 3.685-.747 4.693-3.894 1.872-5.942-2.132-1.549-5.624-1.855-9.178-1.135"/><path d="M336.786 548.95c76.39 11.984 126.212-60.75 94.147-136.57-24.235-57.31-76.018-86.62-149.688-98.185" stroke="#1a1919" stroke-width="29.436" stroke-linecap="round" stroke-linejoin="round" transform="matrix(.04542 -.01502 .018 .03337 4.473 77.22)"/></g><g fill="#fdd2b0"><path d="M17.92 85.581c8.388-5.347 2.235-13.599 8.581-12.884 1.453.163 2.053.83 2.222 2.707.379 4.223-5.851 4.623-3.002 8.337"/><path d="M165.118 293.553C302.703 187.863 283.875 89.633 373.78 81.644c30.866-2.742 42.254 11.431 26.484 60.606-35.465 110.585-108.54 104.043-58.053 189.728" stroke="#1a1919" stroke-width="29.436" stroke-linecap="round" stroke-linejoin="round" transform="matrix(.04542 -.01502 .018 .03337 4.473 77.22)"/></g><path d="M268.957 671.34l28.193-.087" fill="none" stroke="#000" stroke-width="29.436" stroke-linecap="round" transform="matrix(.04542 -.01502 .018 .03337 4.473 77.22)"/></g></svg>