<svg version="1.1" xmlns="http://www.w3.org/2000/svg" xmlns:xlink="http://www.w3.org/1999/xlink" width="102.6528" height="121.8266" viewBox="0,0,102.6528,121.8266"><defs><radialGradient cx="239.99352" cy="229.44811" r="72.00067" gradientUnits="userSpaceOnUse" id="color-1"><stop offset="0" stop-color="#000000"/><stop offset="1" stop-color="#000000" stop-opacity="0"/></radialGradient><radialGradient cx="223.60852" cy="158.17118" r="73.39036" gradientUnits="userSpaceOnUse" id="color-2"><stop offset="0" stop-color="#000000" stop-opacity="0"/><stop offset="1" stop-color="#000000" stop-opacity="0.57196"/></radialGradient><radialGradient cx="263.89006" cy="172.05982" r="17.28955" gradientUnits="userSpaceOnUse" id="color-3"><stop offset="0" stop-color="#000000" stop-opacity="0"/><stop offset="1" stop-color="#000000" stop-opacity="0.57196"/></radialGradient><radialGradient cx="235.37006" cy="172.05982" r="17.28955" gradientUnits="userSpaceOnUse" id="color-4"><stop offset="0" stop-color="#000000" stop-opacity="0"/><stop offset="1" stop-color="#000000" stop-opacity="0.57196"/></radialGradient><radialGradient cx="221.3743" cy="133.58153" r="16.83033" gradientUnits="userSpaceOnUse" id="color-5"><stop offset="0" stop-color="#000000" stop-opacity="0"/><stop offset="1" stop-color="#000000" stop-opacity="0.57196"/></radialGradient><radialGradient cx="250.3953" cy="133.54713" r="11.27877" gradientUnits="userSpaceOnUse" id="color-6"><stop offset="0" stop-color="#000000" stop-opacity="0"/><stop offset="1" stop-color="#000000" stop-opacity="0.57196"/></radialGradient><radialGradient cx="237.25469" cy="132.91246" r="16.76522" gradientUnits="userSpaceOnUse" id="color-7"><stop offset="0" stop-color="#000000" stop-opacity="0"/><stop offset="1" stop-color="#000000" stop-opacity="0.57196"/></radialGradient></defs><g transform="translate(-188.6736,-116.17734)"><g data-paper-data="{&quot;isPaintingLayer&quot;:true}" stroke="none" stroke-width="1" stroke-linecap="butt" stroke-linejoin="miter" stroke-miterlimit="10" stroke-dasharray="" stroke-dashoffset="0" style="mix-blend-mode: normal"><path d="M291.3264,229.44952c0,4.72326 -22.99121,8.55442 -51.3264,8.55442c-28.33519,0 -51.3264,-3.83116 -51.3264,-8.55442c0,-4.72326 22.99121,-8.55442 51.3264,-8.55442c28.33519,0 51.3264,3.83116 51.3264,8.55442z" fill="url(#color-1)" fill-rule="nonzero"/><path d="M286.3412,185.96734c0,3.45 -0.38,26.78 -1.1,30.01c-1.76,8.89 -7.47,14 -16.04,15.95c-3.99,0.74 -8.52,-15.56 -13.44,-15.65c-4.92,-0.09 -10.23,16.03 -15.76,16.03c-5.55,0 -10.88,-16.13 -15.82,-16.06c-4.94,0.08 -9.49,16.35 -13.48,15.58c-9.04,-1.5 -13.77,-7.68 -16,-16.14c-0.68,-3.15 -1.03,-26.37 -1.03,-29.72c0,-25.58 20.76,-46.34 46.33,-46.34c25.58,0 46.34,20.76 46.34,46.34z" fill="#f37ca4" fill-rule="nonzero"/><path d="M286.3412,185.96734c0,3.45 -0.38,26.78 -1.1,30.01c-1.76,8.89 -7.47,14 -16.04,15.95c-3.99,0.74 -8.52,-15.56 -13.44,-15.65c-4.92,-0.09 -10.23,16.03 -15.76,16.03c-5.55,0 -10.88,-16.13 -15.82,-16.06c-4.94,0.08 -9.49,16.35 -13.48,15.58c-9.04,-1.5 -13.77,-7.68 -16,-16.14c-0.68,-3.15 -1.03,-26.37 -1.03,-29.72c0,-25.58 20.76,-46.34 46.33,-46.34c25.58,0 46.34,20.76 46.34,46.34z" fill="url(#color-2)" fill-rule="nonzero"/><g fill-rule="nonzero"><path d="M257.11556,177.76884c0,-6.10246 4.94702,-11.04949 11.04949,-11.04949c6.10246,0 11.04949,4.94702 11.04949,11.04949c0,6.10246 -4.94702,11.04949 -11.04949,11.04949c-6.10246,0 -11.04949,-4.94702 -11.04949,-11.04949z" fill="#ffffff"/><path d="M257.11556,177.76884c0,-6.10246 4.94702,-11.04949 11.04949,-11.04949c6.10246,0 11.04949,4.94702 11.04949,11.04949c0,6.10246 -4.94702,11.04949 -11.04949,11.04949c-6.10246,0 -11.04949,-4.94702 -11.04949,-11.04949z" fill="url(#color-3)"/><path d="M264.95684,178.47854c0,-3.7402 3.03203,-6.77223 6.77223,-6.77223c3.7402,0 6.77223,3.03203 6.77223,6.77223c0,3.7402 -3.03203,6.77223 -6.77223,6.77223c-3.7402,0 -6.77223,-3.03203 -6.77223,-6.77223z" fill="#000000"/></g><g fill-rule="nonzero"><path d="M228.59556,177.76884c0,-6.10246 4.94702,-11.04949 11.04949,-11.04949c6.10246,0 11.04949,4.94702 11.04949,11.04949c0,6.10246 -4.94702,11.04949 -11.04949,11.04949c-6.10246,0 -11.04949,-4.94702 -11.04949,-11.04949z" fill="#ffffff"/><path d="M228.59556,177.76884c0,-6.10246 4.94702,-11.04949 11.04949,-11.04949c6.10246,0 11.04949,4.94702 11.04949,11.04949c0,6.10246 -4.94702,11.04949 -11.04949,11.04949c-6.10246,0 -11.04949,-4.94702 -11.04949,-11.04949z" fill="url(#color-4)"/><path d="M236.43684,178.47854c0,-3.7402 3.03203,-6.77223 6.77223,-6.77223c3.7402,0 6.77223,3.03203 6.77223,6.77223c0,3.7402 -3.03203,6.77223 -6.77223,6.77223c-3.7402,0 -6.77223,-3.03203 -6.77223,-6.77223z" fill="#000000"/></g><path d="M219.33493,162.36087c-7.15009,7.32117 -14.54968,11.70533 -16.5172,9.78058c-1.97465,-1.92475 2.23128,-9.43127 9.37424,-16.75245c7.15009,-7.32117 14.54968,-11.6982 16.5172,-9.77345c1.97465,1.92475 -2.23128,9.42414 -9.37424,16.74532z" fill-opacity="0.62745" fill="#ffffff" fill-rule="nonzero"/><path d="M277.59982,223.74447c-3.38044,4.09601 -7.47813,6.30608 -9.14952,4.92668c-1.67139,-1.3794 -0.27871,-5.82192 3.10172,-9.91793c3.38044,-4.09601 7.47813,-6.30608 9.14953,-4.92667c1.67139,1.3794 0.27871,5.82191 -3.10173,9.91792z" fill-opacity="0.43439" fill="#ffffff" fill-rule="nonzero"/><path d="M257.3312,152.67734c-20.03,-0.46 -9.86,-24.92 -1.75,-32.25c-1.75,10.75 13,29 1.75,32.25z" fill="#00ff00" fill-rule="evenodd"/><path d="M226.5812,156.92734c-22.78,-0.96 -3.11,-19.92 -1.75,-32.25c4.5,6.5 16.25,30.25 1.75,32.25z" fill="#00ff00" fill-rule="evenodd"/><path d="M226.5812,156.92734c-22.78,-0.96 -3.11,-19.92 -1.75,-32.25c4.5,6.5 16.25,30.25 1.75,32.25z" fill="url(#color-5)" fill-rule="evenodd"/><path d="M257.3312,152.67734c-20.03,-0.46 -9.86,-24.92 -1.75,-32.25c-1.75,10.75 13,29 1.75,32.25z" fill="url(#color-6)" fill-rule="evenodd"/><path d="M242.0812,160.67734c-21.6,-1.09 -9.62,-37.87 0.25,-44.5c0.74,10.75 18.2,41.5 -0.25,44.5z" fill="#00ff00" fill-rule="evenodd"/><path d="M242.0812,160.67734c-21.6,-1.09 -9.62,-37.87 0.25,-44.5c0.74,10.75 18.2,41.5 -0.25,44.5z" fill="url(#color-7)" fill-rule="evenodd"/><path d="M245.8912,212.30734l-0.62,0.75c-7.15,-5.42 -17.13,-7.06 -20.5,-17.5l0.62,-0.75c3.81,10.37 13.93,11.58 20.5,17.5z" fill="#000000" fill-rule="evenodd"/><path d="M228.9612,196.74734l-5.57,3.15l-0.34,-0.06l5.31,-3.91z" fill="#000000" fill-rule="evenodd"/><path d="M231.0812,200.46734l-3.81,1.96l-0.31,-0.31l3.53,-2.47z" fill="#000000" fill-rule="evenodd"/><path d="M234.0512,202.96734l-3.53,2.28l-0.53,-0.85l3.78,-2.28z" fill="#000000" fill-rule="evenodd"/><path d="M237.6412,205.21734l-3.18,2.81l-0.66,-0.75l3.56,-2.56z" fill="#000000" fill-rule="evenodd"/><path d="M241.4612,207.61734l-2.94,3.1l-0.63,-0.79l3.19,-2.5z" fill="#000000" fill-rule="evenodd"/><path d="M243.9612,209.64734l-1.82,3.44l-0.81,-0.59l2.31,-3.19z" fill="#000000" fill-rule="evenodd"/><path d="M267.6412,210.78734l-0.62,-0.75c3.37,-10.44 8.23,-7.33 14.37,-13.25l0.25,0.5c-7.82,5.68 -10.19,3.13 -14,13.5z" fill="#000000" fill-rule="evenodd"/><path d="M270.6112,209.66734l-5.31,-3.91l0.34,-0.06l5.56,3.16z" fill="#000000" fill-rule="evenodd"/><path d="M272.7412,205.94734l-3.54,-2.47l0.32,-0.31l3.81,1.97z" fill="#000000" fill-rule="evenodd"/><path d="M276.0212,203.47734l-3.78,-2.28l0.53,-0.84l3.53,2.28z" fill="#000000" fill-rule="evenodd"/><path d="M279.6112,200.88734l-3.56,-2.57l0.65,-0.75l3.19,2.82z" fill="#000000" fill-rule="evenodd"/></g></g></svg>