<svg version="1.0" width="117.028" height="127.645" xmlns:xlink="http://www.w3.org/1999/xlink" xmlns="http://www.w3.org/2000/svg"><defs><radialGradient id="prefix__b" gradientUnits="userSpaceOnUse" cy="506.35" cx="210.89" gradientTransform="matrix(1.4028 0 0 .20588 -89.845 403.11)" r="68"><stop offset="0"/><stop offset="1" stop-opacity="0"/></radialGradient><radialGradient id="prefix__d" xlink:href="#prefix__a" gradientUnits="userSpaceOnUse" cy="497.96" cx="216.99" gradientTransform="matrix(.51027 1.0072 -.96511 .48897 668.06 -42.066)" r="65"/><radialGradient id="prefix__f" xlink:href="#prefix__a" gradientUnits="userSpaceOnUse" cy="409.86" cx="233.5" gradientTransform="matrix(.3871 1.5161 -1.4234 .36342 726.51 -93.107)" r="15.5"/><radialGradient id="prefix__j" xlink:href="#prefix__a" gradientUnits="userSpaceOnUse" cy="374.97" cx="223.57" gradientTransform="matrix(1.0038 -.11344 .18244 1.6144 32.155 -184.64)" r="11.165"/><radialGradient id="prefix__i" xlink:href="#prefix__a" gradientUnits="userSpaceOnUse" cy="376.92" cx="190.21" gradientTransform="matrix(1.3237 .1867 -.26257 1.8617 143.15 -341.84)" r="12.59"/><radialGradient id="prefix__k" xlink:href="#prefix__a" gradientUnits="userSpaceOnUse" cy="385.96" cx="78.421" gradientTransform="matrix(1.6276 .13563 -.29227 3.5072 297.01 -969.56)" r="10.265"/><radialGradient id="prefix__m" xlink:href="#prefix__a" gradientUnits="userSpaceOnUse" cy="422.71" cx="40.561" gradientTransform="matrix(3.4831 -.13912 .14637 3.6647 -162.58 -1121.2)" r="3.828"/><radialGradient id="prefix__l" xlink:href="#prefix__a" gradientUnits="userSpaceOnUse" cy="442.69" cx="145.84" gradientTransform="matrix(1.3052 .49355 -.61438 1.6247 351.2 -347.56)" r="8.596"/><radialGradient xlink:href="#prefix__a" id="prefix__e" gradientUnits="userSpaceOnUse" gradientTransform="matrix(.3871 1.5161 -1.4234 .36342 726.51 -93.107)" cx="233.5" cy="409.86" r="15.5"/><filter id="prefix__g" height="1.682" width="1.696" y="-.341" x="-.348"><feGaussianBlur stdDeviation="5.465"/></filter><filter id="prefix__h" height="1.738" width="2.811" y="-.369" x="-.906"><feGaussianBlur stdDeviation="4.151"/></filter><filter id="prefix__c" height="1.68" width="1.14" y="-.34" x="-.07"><feGaussianBlur stdDeviation="3.968"/></filter><linearGradient id="prefix__a"><stop offset="0" stop-opacity="0"/><stop offset="1" stop-opacity=".572"/></linearGradient></defs><path transform="matrix(.7548 0 0 .61103 -96.975 -196.74)" d="M274 507.36c0 7.73-30.46 14-68 14s-68-6.27-68-14 30.46-14 68-14 68 6.27 68 14z" fill="url(#prefix__b)" filter="url(#prefix__c)"/><path d="M104.855 69.79c0 3.45-.38 26.78-1.1 30.01-1.76 8.89-7.47 14-16.04 15.95-3.99.74-8.52-15.56-13.44-15.65-4.92-.09-10.23 16.03-15.76 16.03-5.55 0-10.88-16.13-15.82-16.06-4.94.08-9.49 16.35-13.48 15.58-9.04-1.5-13.77-7.68-16-16.14-.68-3.15-1.03-26.37-1.03-29.72 0-25.58 20.76-46.34 46.33-46.34 25.58 0 46.34 20.76 46.34 46.34z" fill="#f37ca4"/><path d="M360.93 447.77c0 3.45-.38 26.78-1.1 30.01-1.76 8.89-7.47 14-16.04 15.95-3.99.74-8.52-15.56-13.44-15.65-4.92-.09-10.23 16.03-15.76 16.03-5.55 0-10.88-16.13-15.82-16.06-4.94.08-9.49 16.35-13.48 15.58-9.04-1.5-13.77-7.68-16-16.14-.68-3.15-1.03-26.37-1.03-29.72 0-25.58 20.76-46.34 46.33-46.34 25.58 0 46.34 20.76 46.34 46.34z" fill="url(#prefix__d)" transform="translate(-256.075 -377.98)"/><g transform="translate(-86.905 -241.28) scale(.71287)"><circle transform="translate(4 7)" cx="239.5" cy="417.862" r="15.5" fill="#fff"/><circle transform="translate(4 7)" cx="239.5" cy="417.862" r="15.5" fill="url(#prefix__e)"/><circle transform="translate(101.71 169.75) scale(.6129)" cx="239.5" cy="417.862" r="15.5"/></g><g transform="translate(-115.425 -241.28) scale(.71287)"><circle transform="translate(4 7)" cx="239.5" cy="417.862" r="15.5" fill="#fff"/><circle transform="translate(4 7)" cx="239.5" cy="417.862" r="15.5" fill="url(#prefix__f)"/><circle transform="translate(101.71 169.75) scale(.6129)" cx="239.5" cy="417.862" r="15.5"/></g><path transform="translate(-90.475 -248.41) scale(.71287)" d="M180.01 413.25c-10.03 10.27-20.41 16.42-23.17 13.72-2.77-2.7 3.13-13.23 13.15-23.5 10.03-10.27 20.41-16.41 23.17-13.71 2.77 2.7-3.13 13.22-13.15 23.49z" fill="#fff" fill-opacity=".627" filter="url(#prefix__g)"/><path transform="rotate(39.533 489.544 106.527) scale(.71286)" d="M262 501.86c0 7.45-2.46 13.5-5.5 13.5s-5.5-6.05-5.5-13.5 2.46-13.5 5.5-13.5 5.5 6.05 5.5 13.5z" fill="#fff" fill-opacity=".434" filter="url(#prefix__h)"/><path d="M74.095 4.25c-8.11 7.33-18.28 31.79 1.75 32.25 11.25-3.25-3.5-21.5-1.75-32.25zM43.345 8.5c-1.36 12.33-21.03 31.29 1.75 32.25 14.5-2 2.75-25.75-1.75-32.25z" fill="#0f0" fill-rule="evenodd"/><path d="M299.42 386.48c-1.36 12.33-21.03 31.29 1.75 32.25 14.5-2 2.75-25.75-1.75-32.25z" fill="url(#prefix__i)" fill-rule="evenodd" transform="translate(-256.075 -377.98)"/><path d="M330.17 382.23c-8.11 7.33-18.28 31.79 1.75 32.25 11.25-3.25-3.5-21.5-1.75-32.25z" fill="url(#prefix__j)" fill-rule="evenodd" transform="translate(-256.075 -377.98)"/><path d="M60.845 0c-9.87 6.63-21.85 43.41-.25 44.5 18.45-3 .99-33.75.25-44.5z" fill="#0f0" fill-rule="evenodd"/><path d="M316.92 377.98c-9.87 6.63-21.85 43.41-.25 44.5 18.45-3 .99-33.75.25-44.5z" fill="url(#prefix__k)" fill-rule="evenodd" transform="translate(-256.075 -377.98)"/><path d="M17.435 60.52l-1.67 4.11-3.76-1.53-1.46 3.59 3.76 1.53-3.94 9.66 3.59 1.47 3.94-9.67 3.27 1.33 1.46-3.59-3.27-1.33 1.67-4.11z" fill="#ffd100"/><path d="M273.51 438.5l-1.67 4.11-3.76-1.53-1.46 3.59 3.76 1.53-3.94 9.66 3.59 1.47 3.94-9.67 3.27 1.33 1.46-3.59-3.27-1.33 1.67-4.11z" fill="url(#prefix__l)" transform="translate(-256.075 -377.98)"/><path d="M43.905 78.63l-.62.75c3.37 10.44 13.35 12.08 20.5 17.5l.62-.75c-6.57-5.92-16.69-7.13-20.5-17.5z" fill-rule="evenodd"/><path d="M46.875 79.75l-5.31 3.91.34.06 5.57-3.15zM49.005 83.47l-3.53 2.47.31.31 3.81-1.96zM52.285 85.94l-3.78 2.28.53.85 3.53-2.28zM55.875 88.54l-3.56 2.56.66.75 3.18-2.81zM59.595 91.25l-3.19 2.5.63.79 2.94-3.1zM62.155 93.13l-2.31 3.19.81.59 1.82-3.44zM86.155 94.61l-.62-.75c3.37-10.44 8.23-7.33 14.37-13.25l.25.5c-7.82 5.68-10.19 3.13-14 13.5z" fill-rule="evenodd"/><path d="M89.125 93.49l-5.31-3.91.34-.06 5.56 3.16zM91.255 89.77l-3.54-2.47.32-.31 3.81 1.97zM94.535 87.3l-3.78-2.28.53-.84 3.53 2.28zM98.125 84.71l-3.56-2.57.65-.75 3.19 2.82z" fill-rule="evenodd"/><path d="M19.751 53.255c-2.11 0-3.812 2.38-3.812 5.31 0 2.43 1.181 4.49 2.781 5.13l.813-1.66c-1.283-.16-2.282-1.62-2.282-3.44 0-1.91 1.111-3.46 2.5-3.46 1.39 0 2.532 1.55 2.532 3.46 0 1.33-.546 2.48-1.344 3.07l.844 1.4c1.088-.94 1.812-2.59 1.812-4.5 0-2.93-1.734-5.31-3.844-5.31z" fill="#e4bb00"/><path d="M42.406 419.5c-2.11 0-3.812 2.38-3.812 5.31 0 2.43 1.181 4.49 2.781 5.13l.813-1.66c-1.283-.16-2.282-1.62-2.282-3.44 0-1.91 1.111-3.46 2.5-3.46 1.39 0 2.532 1.55 2.532 3.46-.001 1.33-.546 2.48-1.344 3.07l.844 1.4c1.088-.94 1.812-2.59 1.812-4.5 0-2.93-1.734-5.31-3.844-5.31z" transform="translate(-22.655 -366.245)" fill="url(#prefix__m)"/></svg>