<svg version="1.1" xmlns="http://www.w3.org/2000/svg" xmlns:xlink="http://www.w3.org/1999/xlink" width="124.99506" height="94.35521" viewBox="0,0,124.99506,94.35521"><defs><linearGradient x1="182.18246" y1="197.94669" x2="303.02959" y2="148.51459" gradientUnits="userSpaceOnUse" id="color-1"><stop offset="0" stop-color="#000000"/><stop offset="1" stop-color="#000000" stop-opacity="0"/></linearGradient><linearGradient x1="166.02484" y1="183.65138" x2="220.43409" y2="238.06823" gradientUnits="userSpaceOnUse" id="color-2"><stop offset="0" stop-color="#ffffff" stop-opacity="0"/><stop offset="0.3" stop-color="#ffffff"/><stop offset="1" stop-color="#ffffff" stop-opacity="0"/></linearGradient><radialGradient cx="229.47995" cy="179.77889" r="51.8525" gradientUnits="userSpaceOnUse" id="color-3"><stop offset="0" stop-color="#000000"/><stop offset="1" stop-color="#000000" stop-opacity="0"/></radialGradient><linearGradient x1="187.88638" y1="161.81168" x2="224.09286" y2="196.56263" gradientUnits="userSpaceOnUse" id="color-4"><stop offset="0" stop-color="#ffffff" stop-opacity="0"/><stop offset="0.3" stop-color="#ffffff"/><stop offset="1" stop-color="#ffffff" stop-opacity="0"/></linearGradient><radialGradient cx="229.14554" cy="156.62762" r="31.73067" gradientUnits="userSpaceOnUse" id="color-5"><stop offset="0" stop-color="#000000"/><stop offset="1" stop-color="#000000" stop-opacity="0"/></radialGradient><linearGradient x1="206.68407" y1="143.27155" x2="226.19999" y2="157.68075" gradientUnits="userSpaceOnUse" id="color-6"><stop offset="0" stop-color="#ffffff" stop-opacity="0"/><stop offset="0.35169" stop-color="#ffffff"/><stop offset="1" stop-color="#ffffff" stop-opacity="0"/></linearGradient><radialGradient cx="229.15108" cy="136.25885" r="12.56459" gradientUnits="userSpaceOnUse" id="color-7"><stop offset="0" stop-color="#000000"/><stop offset="1" stop-color="#000000" stop-opacity="0"/></radialGradient><radialGradient cx="229.02017" cy="132.16392" r="1.36974" gradientUnits="userSpaceOnUse" id="color-8"><stop offset="0" stop-color="#000000"/><stop offset="1" stop-color="#000000" stop-opacity="0"/></radialGradient><linearGradient x1="226.15555" y1="134.83934" x2="227.39057" y2="134.32275" gradientUnits="userSpaceOnUse" id="color-9"><stop offset="0" stop-color="#fff6d5"/><stop offset="1" stop-color="#fff6d5" stop-opacity="0"/></linearGradient><radialGradient cx="229.02017" cy="132.16392" r="1.36974" gradientUnits="userSpaceOnUse" id="color-10"><stop offset="0" stop-color="#000000"/><stop offset="1" stop-color="#000000" stop-opacity="0"/></radialGradient><linearGradient x1="226.15555" y1="134.83934" x2="227.39057" y2="134.32275" gradientUnits="userSpaceOnUse" id="color-11"><stop offset="0" stop-color="#fff6d5"/><stop offset="1" stop-color="#fff6d5" stop-opacity="0"/></linearGradient></defs><g transform="translate(-173.15318,-127.26706)"><g data-paper-data="{&quot;isPaintingLayer&quot;:true}" stroke-linecap="butt" stroke-linejoin="miter" stroke-miterlimit="10" stroke-dasharray="" stroke-dashoffset="0" style="mix-blend-mode: normal"><path d="M182.18291,197.94823c-3.39752,-15.59774 19.73384,-31.47537 51.66533,-35.46367c31.9315,-3.9883 60.57133,5.42302 63.96885,21.02076c3.39752,15.59774 -19.73384,31.47537 -51.66533,35.46367c-31.9315,3.9883 -60.57133,-5.42302 -63.96885,-21.02076z" fill="url(#color-1)" fill-rule="evenodd" stroke="none" stroke-width="1" opacity="0.8"/><g stroke-width="1"><path d="M200.61166,142.93895c0,-0.42298 0.83705,-0.76587 1.8696,-0.76587c1.03255,0 1.8696,0.34289 1.8696,0.76587c0,0.42298 -0.83705,0.76587 -1.8696,0.76587c-1.03255,0 -1.8696,-0.34289 -1.8696,-0.76587z" fill="#ff2a2a" fill-rule="evenodd" stroke="none"/><path d="M200.61225,142.65547h0.00389c0.03926,0.40881 0.85818,0.73397 1.86575,0.73397c1.00793,0 1.82709,-0.32497 1.86575,-0.73397h0.00389v25.32479h-0.03116c0.01769,0.04231 0.03116,0.08327 0.03116,0.12765c0,0.42299 -0.83705,0.76587 -1.86961,0.76587c-1.03256,0 -1.86961,-0.34289 -1.86961,-0.76587c0,-0.04372 0.01009,-0.08592 0.02727,-0.12765h-0.02727v-25.32479z" fill="#ff0000" fill-rule="evenodd" stroke="#ffaaaa"/><path d="M200.61105,167.27974c0.82244,0 2.88294,-0.96951 3.73923,-1.77954v1.11817c-0.7402,0.70025 -2.73213,1.77954 -3.73923,1.77954z" fill="#ffd5d5" fill-rule="evenodd" stroke="none"/><path d="M200.61105,163.19509c0.82244,0 2.88294,-0.96951 3.73923,-1.77954v1.11817c-0.7402,0.70025 -2.73213,1.77954 -3.73923,1.77954z" fill="#ffd5d5" fill-rule="evenodd" stroke="none"/><path d="M200.61105,159.11045c0.82244,0 2.88294,-0.96951 3.73923,-1.77954v1.11817c-0.7402,0.70025 -2.73213,1.77954 -3.73923,1.77954z" fill="#ffd5d5" fill-rule="evenodd" stroke="none"/><path d="M200.61105,155.02581c0.82244,0 2.88294,-0.96951 3.73923,-1.77954v1.11817c-0.7402,0.70025 -2.73213,1.77954 -3.73923,1.77954z" fill="#ffd5d5" fill-rule="evenodd" stroke="none"/><path d="M200.61105,150.94117c0.82244,0 2.88294,-0.96951 3.73923,-1.77954v1.11817c-0.7402,0.70025 -2.73213,1.77954 -3.73923,1.77954z" fill="#ffd5d5" fill-rule="evenodd" stroke="none"/><path d="M200.61105,146.85652c0.82244,0 2.88294,-0.96951 3.73923,-1.77954v1.11817c-0.7402,0.70025 -2.73213,1.77954 -3.73923,1.77954z" fill="#ffd5d5" fill-rule="evenodd" stroke="none"/><path d="M201.49088,142.93866c0,-0.22406 0.44341,-0.4057 0.99039,-0.4057c0.54698,0 0.99039,0.18164 0.99039,0.4057c0,0.22406 -0.44341,0.4057 -0.99039,0.4057c-0.54698,0 -0.99039,-0.18164 -0.99039,-0.4057z" fill="#ff8080" fill-rule="evenodd" stroke="none"/><path d="M202.38967,142.86174c-0.08688,-1.57747 0.16043,-2.74427 0.65942,-3.60163" fill="none" fill-rule="nonzero" stroke="#000000"/></g><g stroke-width="1"><path d="M216.31328,142.48216c0,-0.42298 0.83705,-0.76587 1.8696,-0.76587c1.03255,0 1.8696,0.34289 1.8696,0.76587c0,0.42298 -0.83705,0.76587 -1.8696,0.76587c-1.03255,0 -1.8696,-0.34289 -1.8696,-0.76587z" fill="#ff2a2a" fill-rule="evenodd" stroke="none"/><path d="M216.31386,142.19868h0.00389c0.03926,0.40881 0.85818,0.73397 1.86575,0.73397c1.00793,0 1.82709,-0.32497 1.86575,-0.73397h0.00389v25.32479h-0.03116c0.01769,0.04231 0.03116,0.08327 0.03116,0.12765c0,0.42299 -0.83705,0.76587 -1.86961,0.76587c-1.03256,0 -1.86961,-0.34289 -1.86961,-0.76587c0,-0.04372 0.01009,-0.08592 0.02727,-0.12765h-0.02727v-25.32479z" fill="#ff0000" fill-rule="evenodd" stroke="#ffaaaa"/><path d="M216.31267,166.82295c0.82244,0 2.88294,-0.96951 3.73923,-1.77954v1.11817c-0.7402,0.70025 -2.73213,1.77954 -3.73923,1.77954z" fill="#ffd5d5" fill-rule="evenodd" stroke="none"/><path d="M216.31267,162.7383c0.82244,0 2.88294,-0.96951 3.73923,-1.77954v1.11817c-0.7402,0.70025 -2.73213,1.77954 -3.73923,1.77954z" fill="#ffd5d5" fill-rule="evenodd" stroke="none"/><path d="M216.31267,158.65366c0.82244,0 2.88294,-0.96951 3.73923,-1.77954v1.11817c-0.7402,0.70025 -2.73213,1.77954 -3.73923,1.77954z" fill="#ffd5d5" fill-rule="evenodd" stroke="none"/><path d="M216.31267,154.56902c0.82244,0 2.88294,-0.96951 3.73923,-1.77954v1.11817c-0.7402,0.70025 -2.73213,1.77954 -3.73923,1.77954z" fill="#ffd5d5" fill-rule="evenodd" stroke="none"/><path d="M216.31267,150.48438c0.82244,0 2.88294,-0.96951 3.73923,-1.77954v1.11817c-0.7402,0.70025 -2.73213,1.77954 -3.73923,1.77954z" fill="#ffd5d5" fill-rule="evenodd" stroke="none"/><path d="M216.31267,146.39973c0.82244,0 2.88294,-0.96951 3.73923,-1.77954v1.11817c-0.7402,0.70025 -2.73213,1.77954 -3.73923,1.77954z" fill="#ffd5d5" fill-rule="evenodd" stroke="none"/><path d="M217.1925,142.48187c0,-0.22406 0.44341,-0.4057 0.99039,-0.4057c0.54698,0 0.99039,0.18164 0.99039,0.4057c0,0.22406 -0.44341,0.4057 -0.99039,0.4057c-0.54698,0 -0.99039,-0.18164 -0.99039,-0.4057z" fill="#ff8080" fill-rule="evenodd" stroke="none"/><path d="M218.09129,142.40495c-0.08688,-1.57747 0.16043,-2.74427 0.65942,-3.60163" fill="none" fill-rule="nonzero" stroke="#000000"/></g><g stroke-width="1"><path d="M232.93755,142.02037c0,-0.42298 0.83705,-0.76587 1.8696,-0.76587c1.03255,0 1.8696,0.34289 1.8696,0.76587c0,0.42298 -0.83705,0.76587 -1.8696,0.76587c-1.03255,0 -1.8696,-0.34289 -1.8696,-0.76587z" fill="#ff2a2a" fill-rule="evenodd" stroke="none"/><path d="M232.93814,141.73689h0.00389c0.03926,0.40881 0.85818,0.73397 1.86575,0.73397c1.00793,0 1.82709,-0.32497 1.86575,-0.73397h0.00389v25.32479h-0.03116c0.01769,0.04231 0.03116,0.08327 0.03116,0.12765c0,0.42299 -0.83705,0.76587 -1.86961,0.76587c-1.03256,0 -1.86961,-0.34289 -1.86961,-0.76587c0,-0.04372 0.01009,-0.08592 0.02727,-0.12765h-0.02727v-25.32479z" fill="#ff0000" fill-rule="evenodd" stroke="#ffaaaa"/><path d="M232.93694,166.36116c0.82244,0 2.88294,-0.96951 3.73923,-1.77954v1.11817c-0.7402,0.70025 -2.73213,1.77954 -3.73923,1.77954z" fill="#ffd5d5" fill-rule="evenodd" stroke="none"/><path d="M232.93694,162.27651c0.82244,0 2.88294,-0.96951 3.73923,-1.77954v1.11817c-0.7402,0.70025 -2.73213,1.77954 -3.73923,1.77954z" fill="#ffd5d5" fill-rule="evenodd" stroke="none"/><path d="M232.93694,158.19187c0.82244,0 2.88294,-0.96951 3.73923,-1.77954v1.11817c-0.7402,0.70025 -2.73213,1.77954 -3.73923,1.77954z" fill="#ffd5d5" fill-rule="evenodd" stroke="none"/><path d="M232.93694,154.10723c0.82244,0 2.88294,-0.96951 3.73923,-1.77954v1.11817c-0.7402,0.70025 -2.73213,1.77954 -3.73923,1.77954z" fill="#ffd5d5" fill-rule="evenodd" stroke="none"/><path d="M232.93694,150.02259c0.82244,0 2.88294,-0.96951 3.73923,-1.77954v1.11817c-0.7402,0.70025 -2.73213,1.77954 -3.73923,1.77954z" fill="#ffd5d5" fill-rule="evenodd" stroke="none"/><path d="M232.93694,145.93794c0.82244,0 2.88294,-0.96951 3.73923,-1.77954v1.11817c-0.7402,0.70025 -2.73213,1.77954 -3.73923,1.77954z" fill="#ffd5d5" fill-rule="evenodd" stroke="none"/><path d="M233.81678,142.02008c0,-0.22406 0.44341,-0.4057 0.99039,-0.4057c0.54698,0 0.99039,0.18164 0.99039,0.4057c0,0.22406 -0.44341,0.4057 -0.99039,0.4057c-0.54698,0 -0.99039,-0.18164 -0.99039,-0.4057z" fill="#ff8080" fill-rule="evenodd" stroke="none"/><path d="M234.71557,141.94316c-0.08688,-1.57747 0.16043,-2.74427 0.65942,-3.60163" fill="none" fill-rule="nonzero" stroke="#000000"/></g><g stroke-width="1"><path d="M249.10041,142.94451c0,-0.42298 0.83705,-0.76587 1.8696,-0.76587c1.03255,0 1.8696,0.34289 1.8696,0.76587c0,0.42298 -0.83705,0.76587 -1.8696,0.76587c-1.03255,0 -1.8696,-0.34289 -1.8696,-0.76587z" fill="#ff2a2a" fill-rule="evenodd" stroke="none"/><path d="M249.10099,142.66103h0.00389c0.03926,0.40881 0.85818,0.73397 1.86575,0.73397c1.00793,0 1.82709,-0.32497 1.86575,-0.73397h0.00389v25.32479h-0.03116c0.01769,0.04231 0.03116,0.08327 0.03116,0.12765c0,0.42299 -0.83705,0.76587 -1.86961,0.76587c-1.03256,0 -1.86961,-0.34289 -1.86961,-0.76587c0,-0.04372 0.01009,-0.08592 0.02727,-0.12765h-0.02727v-25.32479z" fill="#ff0000" fill-rule="evenodd" stroke="#ffaaaa"/><path d="M249.09979,167.2853c0.82244,0 2.88294,-0.96951 3.73923,-1.77954v1.11817c-0.7402,0.70025 -2.73213,1.77954 -3.73923,1.77954z" fill="#ffd5d5" fill-rule="evenodd" stroke="none"/><path d="M249.09979,163.20065c0.82244,0 2.88294,-0.96951 3.73923,-1.77954v1.11817c-0.7402,0.70025 -2.73213,1.77954 -3.73923,1.77954z" fill="#ffd5d5" fill-rule="evenodd" stroke="none"/><path d="M249.09979,159.11601c0.82244,0 2.88294,-0.96951 3.73923,-1.77954v1.11817c-0.7402,0.70025 -2.73213,1.77954 -3.73923,1.77954z" fill="#ffd5d5" fill-rule="evenodd" stroke="none"/><path d="M249.09979,155.03137c0.82244,0 2.88294,-0.96951 3.73923,-1.77954v1.11817c-0.7402,0.70025 -2.73213,1.77954 -3.73923,1.77954z" fill="#ffd5d5" fill-rule="evenodd" stroke="none"/><path d="M249.09979,150.94673c0.82244,0 2.88294,-0.96951 3.73923,-1.77954v1.11817c-0.7402,0.70025 -2.73213,1.77954 -3.73923,1.77954z" fill="#ffd5d5" fill-rule="evenodd" stroke="none"/><path d="M249.09979,146.86208c0.82244,0 2.88294,-0.96951 3.73923,-1.77954v1.11817c-0.7402,0.70025 -2.73213,1.77954 -3.73923,1.77954z" fill="#ffd5d5" fill-rule="evenodd" stroke="none"/><path d="M249.97963,142.94422c0,-0.22406 0.44341,-0.4057 0.99039,-0.4057c0.54698,0 0.99039,0.18164 0.99039,0.4057c0,0.22406 -0.44341,0.4057 -0.99039,0.4057c-0.54698,0 -0.99039,-0.18164 -0.99039,-0.4057z" fill="#ff8080" fill-rule="evenodd" stroke="none"/><path d="M250.87842,142.8673c-0.08688,-1.57747 0.16043,-2.74427 0.65942,-3.60163" fill="none" fill-rule="nonzero" stroke="#000000"/></g><path d="M229.48659,193.66302c30.67926,0 55.54818,-6.21751 55.54818,-13.88705v27.77409c0,7.66954 -24.86892,13.88705 -55.54818,13.88705c-30.67926,0 -55.54818,-6.21751 -55.54818,-13.88705v-27.77409c0,7.66954 24.86892,13.88705 55.54818,13.88705z" fill="#762301" fill-rule="evenodd" stroke="#6e3319" stroke-width="0.37032"/><path d="M177.79388,186.04302c2.94851,1.74277 7.08714,3.25235 12.17142,4.52342c10.16856,2.54214 24.11442,4.0974 39.5213,4.0974c15.40688,0 29.35274,-1.55526 39.5213,-4.0974c5.08428,-1.27107 9.2229,-2.78065 12.17141,-4.52342c1.11669,-0.66004 2.08251,-1.36696 2.85372,-2.12356v23.62968c0,1.376 -1.19991,2.96286 -3.87318,4.54295c-2.67327,1.58007 -6.66967,3.06298 -11.63763,4.30498c-9.93593,2.48397 -23.76408,4.03735 -39.03561,4.03735c-15.27153,0 -29.09969,-1.55339 -39.03561,-4.03735c-4.96796,-1.242 -8.96436,-2.72492 -11.63763,-4.30498c-2.67327,-1.58009 -3.87318,-3.16695 -3.87318,-4.54295v-23.62968c0.77121,0.7566 1.73703,1.46352 2.85372,2.12356z" fill="#8e320c" fill-rule="evenodd" stroke="none" stroke-width="1"/><path d="M229.48659,193.66302c30.67926,0 55.54818,-6.21751 55.54818,-13.88705v27.77409c0,7.66954 -24.86892,13.88705 -55.54818,13.88705c-30.67926,0 -55.54818,-6.21751 -55.54818,-13.88705v-27.77409c0,7.66954 24.86892,13.88705 55.54818,13.88705z" fill="url(#color-2)" fill-rule="evenodd" stroke="none" stroke-width="0.18516" opacity="0.6"/><path d="M224.60157,166.83865c1.35278,-0.00963 2.70573,-0.01883 4.05853,-0.00624c8.05837,0.04738 16.12045,0.44044 24.12828,1.36945c9.4269,0.98135 18.76529,3.10477 27.5593,6.67041c2.04862,0.81915 4.08375,2.0264 5.22912,3.97873c2.15964,3.87393 1.48602,9.04324 -1.44822,12.33558c-1.51535,1.74458 -3.73247,2.57171 -5.71017,3.65266c-1.21706,0.56572 -2.24659,1.4424 -3.21902,2.35247c-1.20521,1.0841 -2.43357,2.31786 -4.0715,2.68409c-2.1636,0.52693 -4.38386,-0.11491 -6.56857,0.15224c-3.41177,0.40309 -6.52932,2.21434 -8.95288,4.59402c-0.67182,0.66154 -1.43625,1.48922 -2.46726,1.41278c-2.16712,-0.37884 -3.95599,-1.75043 -5.75294,-2.92517c-1.28557,-0.84152 -2.61584,-1.86275 -4.22259,-1.88308c-1.87438,0.13295 -3.45652,1.26387 -4.96545,2.27822c-1.0019,0.68419 -2.16486,1.43416 -3.43621,1.20515c-1.80124,-0.33033 -2.92309,-1.98194 -4.58254,-2.62187c-1.68052,-0.64447 -3.59223,-0.01135 -4.92083,1.1023c-1.82605,1.49406 -2.78928,3.70803 -3.96725,5.69128c-0.33255,0.84257 -1.6278,1.19417 -2.23896,0.4574c-1.31618,-1.79995 -1.52615,-4.09001 -2.27433,-6.13345c-0.37138,-1.12185 -1.00061,-2.33536 -2.18601,-2.7513c-1.72977,-0.29907 -3.4605,0.2094 -5.12043,0.65295c-1.8666,0.52795 -3.81431,1.20827 -5.77516,0.8065c-1.72033,-0.35514 -2.92772,-1.72403 -4.29702,-2.70964c-1.31705,-1.08354 -3.09777,-1.45881 -4.76714,-1.25306c-2.75056,0.4235 -5.40169,1.60777 -8.22872,1.4334c-1.68311,-0.07443 -3.12973,-1.09497 -4.3659,-2.15397c-0.841,-0.83459 -1.71403,-1.64619 -2.70908,-2.29747c-1.43462,-1.00357 -3.06569,-1.84627 -4.08761,-3.31863c-1.67215,-2.52244 -2.35828,-5.65647 -1.99177,-8.65367c0.21942,-2.38728 1.27261,-4.75104 3.13681,-6.30102c1.57461,-1.23556 3.3709,-2.16075 5.1982,-2.9622c3.93337,-1.67219 8.11522,-2.64233 12.27559,-3.56045c10.10421,-2.12955 20.42655,-3.10624 30.74221,-3.29827z" fill="#000000" fill-rule="evenodd" stroke="none" stroke-width="1"/><path d="M224.60157,166.61622c1.35278,-0.009 2.70573,-0.0186 4.05853,-0.006c8.05837,0.04739 16.12045,0.44045 24.12828,1.36945c9.4269,0.98135 18.76529,3.10477 27.5593,6.67041c2.04862,0.81915 4.08375,2.0264 5.22912,3.97873c2.15964,3.87393 1.48602,9.04325 -1.44822,12.33559c-1.51535,1.74458 -3.73247,2.57171 -5.71017,3.65266c-1.21706,0.56572 -2.24659,1.4424 -3.21902,2.35246c-1.20521,1.0841 -2.43356,2.31786 -4.0715,2.68409c-2.1636,0.52693 -4.38386,-0.11491 -6.56857,0.15224c-3.41177,0.40309 -6.52932,2.21434 -8.95289,4.59402c-0.67182,0.66154 -1.43625,1.48917 -2.46726,1.41277c-2.16712,-0.37883 -3.95599,-1.75043 -5.75294,-2.92516c-1.28557,-0.84152 -2.61584,-1.86279 -4.22259,-1.88309c-1.87438,0.13295 -3.45652,1.26387 -4.96545,2.27822c-1.0019,0.68419 -2.16486,1.43416 -3.43621,1.20516c-1.80124,-0.33033 -2.92309,-1.98195 -4.58254,-2.62188c-1.68052,-0.64447 -3.59223,-0.01135 -4.92083,1.1023c-1.82605,1.49406 -2.78928,3.70803 -3.96725,5.69128c-0.33255,0.84257 -1.6278,1.19418 -2.23896,0.4574c-1.31618,-1.79994 -1.52615,-4.09001 -2.27433,-6.13344c-0.37138,-1.12185 -1.00061,-2.33536 -2.18601,-2.7513c-1.72977,-0.29907 -3.4605,0.20939 -5.12043,0.65295c-1.8666,0.52795 -3.81431,1.20826 -5.77516,0.8065c-1.72033,-0.35514 -2.92772,-1.72403 -4.29702,-2.70964c-1.31705,-1.08353 -3.09777,-1.45881 -4.76714,-1.25305c-2.75056,0.42349 -5.40169,1.60776 -8.22872,1.4334c-1.68311,-0.07444 -3.12973,-1.09497 -4.3659,-2.15398c-0.841,-0.83459 -1.71403,-1.64618 -2.70908,-2.29747c-1.43462,-1.00357 -3.06569,-1.84627 -4.0876,-3.31863c-1.67215,-2.52244 -2.35828,-5.65647 -1.99177,-8.65367c0.21942,-2.38727 1.27261,-4.75103 3.13681,-6.30101c1.57461,-1.23556 3.3709,-2.16075 5.1982,-2.9622c3.93337,-1.67219 8.11522,-2.64234 12.27559,-3.56045c10.10421,-2.12955 20.42655,-3.10624 30.74221,-3.29827z" fill="#daaf05" fill-rule="evenodd" stroke="none" stroke-width="0.18516"/><g stroke-width="1"><path d="M265.72523,145.71451c0,-0.42298 0.83705,-0.76587 1.8696,-0.76587c1.03255,0 1.8696,0.34289 1.8696,0.76587c0,0.42298 -0.83705,0.76587 -1.8696,0.76587c-1.03255,0 -1.8696,-0.34289 -1.8696,-0.76587z" fill="#ff2a2a" fill-rule="evenodd" stroke="none"/><path d="M265.72582,145.43103h0.00389c0.03926,0.40881 0.85818,0.73397 1.86575,0.73397c1.00793,0 1.82709,-0.32497 1.86575,-0.73397h0.00389v25.32479h-0.03116c0.01769,0.04231 0.03116,0.08327 0.03116,0.12765c0,0.42299 -0.83705,0.76587 -1.86961,0.76587c-1.03256,0 -1.86961,-0.34289 -1.86961,-0.76587c0,-0.04372 0.01009,-0.08592 0.02727,-0.12765h-0.02727v-25.32479z" fill="#ff0000" fill-rule="evenodd" stroke="#ffaaaa"/><path d="M265.72462,170.0553c0.82244,0 2.88294,-0.96951 3.73923,-1.77954v1.11817c-0.7402,0.70025 -2.73213,1.77954 -3.73923,1.77954z" fill="#ffd5d5" fill-rule="evenodd" stroke="none"/><path d="M265.72462,165.97066c0.82244,0 2.88294,-0.96951 3.73923,-1.77954v1.11817c-0.7402,0.70025 -2.73213,1.77954 -3.73923,1.77954z" fill="#ffd5d5" fill-rule="evenodd" stroke="none"/><path d="M265.72462,161.88601c0.82244,0 2.88294,-0.96951 3.73923,-1.77954v1.11817c-0.7402,0.70025 -2.73213,1.77954 -3.73923,1.77954z" fill="#ffd5d5" fill-rule="evenodd" stroke="none"/><path d="M265.72462,157.80137c0.82244,0 2.88294,-0.96951 3.73923,-1.77954v1.11817c-0.7402,0.70025 -2.73213,1.77954 -3.73923,1.77954z" fill="#ffd5d5" fill-rule="evenodd" stroke="none"/><path d="M265.72462,153.71673c0.82244,0 2.88294,-0.96951 3.73923,-1.77954v1.11817c-0.7402,0.70025 -2.73213,1.77954 -3.73923,1.77954z" fill="#ffd5d5" fill-rule="evenodd" stroke="none"/><path d="M265.72462,149.63208c0.82244,0 2.88294,-0.96951 3.73923,-1.77954v1.11817c-0.7402,0.70025 -2.73213,1.77954 -3.73923,1.77954z" fill="#ffd5d5" fill-rule="evenodd" stroke="none"/><path d="M266.60446,145.71422c0,-0.22406 0.44341,-0.4057 0.99039,-0.4057c0.54698,0 0.99039,0.18164 0.99039,0.4057c0,0.22406 -0.44341,0.4057 -0.99039,0.4057c-0.54698,0 -0.99039,-0.18164 -0.99039,-0.4057z" fill="#ff8080" fill-rule="evenodd" stroke="none"/><path d="M267.50325,145.6373c-0.08688,-1.57747 0.16043,-2.74427 0.65942,-3.60163" fill="none" fill-rule="nonzero" stroke="#000000"/></g><path d="M228.63891,168.76883c0.00253,0 0.00506,0 0.00759,0c7.997,0.04703 15.97998,0.43928 23.89259,1.35724c0.00845,0.00092 0.0169,0.00179 0.02536,0.00261c9.2543,0.96344 18.39586,3.04167 26.97269,6.51932c0.00325,0.00133 0.0065,0.00266 0.00976,0.00398c1.8189,0.72739 3.37793,1.73682 4.15852,3.05334c1.65304,2.99332 1.1064,7.25475 -1.18401,9.82472c-0.00619,0.00695 -0.01234,0.01394 -0.01844,0.02098c-1.05262,1.21201 -2.94903,1.98748 -5.11687,3.17232l0.12549,-0.06329c-1.57088,0.73023 -2.76207,1.78199 -3.78205,2.73654l0.03146,-0.02893c-1.26821,1.14056 -2.24674,1.99213 -3.10144,2.18323c-0.01329,0.00301 -0.02655,0.00615 -0.03978,0.00941c-1.44103,0.35094 -3.54321,-0.23342 -6.31535,0.10488c-4.0053,0.47465 -7.51753,2.55278 -10.21023,5.19679c-0.00085,0.00072 -0.00169,0.00144 -0.00254,0.00217c-0.36535,0.3598 -0.65405,0.63666 -0.81333,0.74715c-0.00505,0.00343 -0.00085,0.00081 -0.00543,0.00398c-1.42132,-0.33005 -2.90849,-1.36279 -4.70171,-2.53511c-0.00019,-0.00019 -0.00056,-0.00024 -0.00074,-0.00037c-0.00019,-0.00019 -0.00022,-0.00027 -0.00037,-0.00037c-1.18925,-0.77873 -2.87488,-2.20039 -5.37761,-2.23205c-0.05996,-0.00081 -0.11992,0.00087 -0.17974,0.00505c-2.65164,0.18804 -4.54489,1.65258 -6.01591,2.64143c-0.00435,0.003 -0.00869,0.00601 -0.01302,0.00904c-0.96219,0.65716 -1.59581,0.90273 -1.83497,0.86107c-0.3509,-0.06555 -0.77948,-0.30546 -1.43644,-0.79742c-0.65934,-0.49374 -1.49643,-1.2274 -2.75499,-1.71274c-0.00133,-0.0005 -0.00265,-0.00099 -0.00398,-0.00148c-2.62446,-1.00649 -5.26425,-0.05301 -7.0654,1.45163c-1.89678,1.55533 -2.88606,3.43152 -3.7853,5.08215c-0.392,-1.11585 -0.70283,-2.50694 -1.28274,-4.10174c-0.4566,-1.37283 -1.3293,-3.31888 -3.51299,-4.08511c-0.11279,-0.03956 -0.22867,-0.06968 -0.34645,-0.09005c-2.36857,-0.40953 -4.41765,0.25466 -6.04557,0.68965c-0.01015,0.0027 -0.02027,0.00547 -0.03038,0.00831c-1.95748,0.55361 -3.53872,1.0206 -4.7527,0.77247c-0.83679,-0.17359 -1.8145,-1.16163 -3.46742,-2.35139l0.1103,0.08499c-1.86711,-1.53613 -4.23509,-1.99221 -6.40287,-1.72503c-0.0215,0.00269 -0.04296,0.0057 -0.06437,0.00904c-3.14333,0.48397 -5.62261,1.54628 -7.76698,1.41402c-0.01253,-0.00083 -0.02507,-0.00155 -0.03761,-0.00217c-0.86082,-0.03805 -1.92552,-0.67258 -3.04611,-1.63028c-0.84929,-0.83908 -1.78875,-1.71873 -2.94376,-2.47471l0.05497,0.03725c-1.59322,-1.11448 -2.91077,-1.86722 -3.54156,-2.76331c-1.35653,-2.05886 -1.93909,-4.69166 -1.63498,-7.17859c0.00273,-0.02142 0.00514,-0.04288 0.00723,-0.06437c0.17313,-1.88374 1.02046,-3.70934 2.35429,-4.82611c1.34854,-1.05118 2.96467,-1.89627 4.69122,-2.65409c3.69367,-1.56867 7.72738,-2.51586 11.86149,-3.42837c0.00191,-0.00037 0.00385,-0.00074 0.00578,-0.00111c9.94145,-2.09499 20.12725,-3.06084 30.33162,-3.2508c1.34333,-0.00954 2.67389,-0.01807 3.99578,-0.00578z" fill="#ffd42a" fill-rule="evenodd" stroke="none" stroke-width="1"/><path d="M184.24318,179.7813c0,-6.24646 20.25387,-11.31022 45.23828,-11.31022c24.98441,0 45.23828,5.06376 45.23828,11.31022c0,6.24646 -20.25387,11.31022 -45.23828,11.31022c-24.98441,0 -45.23828,-5.06376 -45.23828,-11.31022z" fill="#ffdd55" fill-rule="evenodd" stroke="url(#color-3)" stroke-width="3.1465"/><path d="M270.98097,185.55424c-0.33483,-1.2615 1.3254,-2.79686 3.70824,-3.42932c2.38284,-0.63246 4.58594,-0.12252 4.92077,1.13898c0.33483,1.2615 -1.3254,2.79686 -3.70824,3.42932c-2.38284,0.63246 -4.58594,0.12252 -4.92077,-1.13898z" fill="#000000" fill-rule="evenodd" stroke="none" stroke-width="1" opacity="0.2"/><g stroke-width="1"><path d="M271.72814,161.41613c0,-0.42298 0.83705,-0.76587 1.8696,-0.76587c1.03255,0 1.8696,0.34289 1.8696,0.76587c0,0.42298 -0.83705,0.76587 -1.8696,0.76587c-1.03255,0 -1.8696,-0.34289 -1.8696,-0.76587z" fill="#ff2a2a" fill-rule="evenodd" stroke="none"/><path d="M271.72873,161.13265h0.00389c0.03926,0.40881 0.85818,0.73397 1.86575,0.73397c1.00793,0 1.82709,-0.32497 1.86575,-0.73397h0.00389v25.32479h-0.03116c0.01769,0.04231 0.03116,0.08327 0.03116,0.12765c0,0.42299 -0.83705,0.76587 -1.86961,0.76587c-1.03256,0 -1.86961,-0.34289 -1.86961,-0.76587c0,-0.04372 0.01009,-0.08592 0.02727,-0.12765h-0.02727v-25.32479z" fill="#ff0000" fill-rule="evenodd" stroke="#ffaaaa"/><path d="M271.72753,185.75692c0.82244,0 2.88294,-0.96951 3.73923,-1.77954v1.11817c-0.7402,0.70025 -2.73213,1.77954 -3.73923,1.77954z" fill="#ffd5d5" fill-rule="evenodd" stroke="none"/><path d="M271.72753,181.67228c0.82244,0 2.88294,-0.96951 3.73923,-1.77954v1.11817c-0.7402,0.70025 -2.73213,1.77954 -3.73923,1.77954z" fill="#ffd5d5" fill-rule="evenodd" stroke="none"/><path d="M271.72753,177.58763c0.82244,0 2.88294,-0.96951 3.73923,-1.77954v1.11817c-0.7402,0.70025 -2.73213,1.77954 -3.73923,1.77954z" fill="#ffd5d5" fill-rule="evenodd" stroke="none"/><path d="M271.72753,173.50299c0.82244,0 2.88294,-0.96951 3.73923,-1.77954v1.11817c-0.7402,0.70025 -2.73213,1.77954 -3.73923,1.77954z" fill="#ffd5d5" fill-rule="evenodd" stroke="none"/><path d="M271.72753,169.41835c0.82244,0 2.88294,-0.96951 3.73923,-1.77954v1.11817c-0.7402,0.70025 -2.73213,1.77954 -3.73923,1.77954z" fill="#ffd5d5" fill-rule="evenodd" stroke="none"/><path d="M271.72753,165.3337c0.82244,0 2.88294,-0.96951 3.73923,-1.77954v1.11817c-0.7402,0.70025 -2.73213,1.77954 -3.73923,1.77954z" fill="#ffd5d5" fill-rule="evenodd" stroke="none"/><path d="M272.60736,161.41584c0,-0.22406 0.44341,-0.4057 0.99039,-0.4057c0.54698,0 0.99039,0.18164 0.99039,0.4057c0,0.22406 -0.44341,0.4057 -0.99039,0.4057c-0.54698,0 -0.99039,-0.18164 -0.99039,-0.4057z" fill="#ff8080" fill-rule="evenodd" stroke="none"/><path d="M273.50615,161.33892c-0.08688,-1.57747 0.16043,-2.74427 0.65942,-3.60163" fill="none" fill-rule="nonzero" stroke="#000000"/></g><path d="M196.95436,179.09585c-2.19042,-6.23883 12.7223,-12.58963 33.3085,-14.18491c20.5862,-1.59528 39.0503,2.16907 41.24072,8.4079c2.19042,6.23883 -12.7223,12.58963 -33.3085,14.18491c-20.5862,1.59528 -39.0503,-2.16907 -41.24072,-8.4079z" fill="#000000" fill-rule="evenodd" stroke="none" stroke-width="1" opacity="0.2"/><path d="M229.15627,165.88523c20.45228,0 37.03212,-4.14501 37.03212,-9.25803v23.14692c0,5.11303 -16.57984,9.25803 -37.03212,9.25803c-20.45228,0 -37.03212,-4.145 -37.03212,-9.25803v-23.14692c0,5.11302 16.57983,9.25803 37.03212,9.25803z" fill="#ffb380" fill-rule="evenodd" stroke="#ef8f50" stroke-width="0.18516"/><path d="M194.39504,161.31612c2.04667,1.20972 4.84736,2.22417 8.27111,3.0801c6.8475,1.71187 16.17954,2.7492 26.49062,2.7492c10.31108,0 19.64313,-1.03733 26.49062,-2.7492c3.42375,-0.85594 6.22444,-1.87039 8.27111,-3.0801c0.36634,-0.21653 0.68811,-0.45548 1.01296,-0.69254v19.15147c0,0.5987 -0.59126,1.51549 -2.29245,2.521c-1.70118,1.00551 -4.32396,1.98618 -7.60171,2.80562c-6.5555,1.63887 -15.73934,2.67398 -25.88053,2.67398c-10.14119,0 -19.32504,-1.03511 -25.88053,-2.67398c-3.27775,-0.81944 -5.90053,-1.80011 -7.60171,-2.80562c-1.70118,-1.00551 -2.29245,-1.92231 -2.29245,-2.521v-19.15147c0.32485,0.23707 0.64662,0.47601 1.01296,0.69254z" fill="#fac099" fill-rule="evenodd" stroke="none" stroke-width="1"/><path d="M229.15627,165.88523c20.45228,0 37.03212,-4.14501 37.03212,-9.25803v23.14692c0,5.11303 -16.57984,9.25803 -37.03212,9.25803c-20.45228,0 -37.03212,-4.145 -37.03212,-9.25803v-23.14692c0,5.11302 16.57983,9.25803 37.03212,9.25803z" fill="url(#color-4)" fill-rule="evenodd" stroke="none" stroke-width="0.18516" opacity="0.6"/><path d="M234.38146,147.876c4.84173,0.22416 9.67805,0.65064 14.48605,1.398c4.7328,0.74328 9.45087,1.92371 13.91954,4.02414c1.18852,0.60641 2.50512,0.9915 3.47326,2.097c0.88043,0.98498 1.21739,2.56479 0.95832,3.97841c-0.45893,2.69015 -2.17641,4.89279 -4.2251,5.8729c-1.31088,0.7123 -2.78434,0.71306 -4.11392,1.34574c-1.04418,0.41083 -1.65116,1.60813 -2.49375,2.38443c-1.00599,0.9696 -2.43483,0.9234 -3.55267,0.28744c-1.0574,-0.66056 -2.01859,-1.66015 -3.22973,-1.86182c-1.71062,-0.24128 -3.3193,0.69796 -4.95045,1.16282c-2.33002,0.77012 -4.76127,0.35291 -7.11065,-0.03266c-1.75718,-0.22013 -3.50693,-0.56366 -5.27343,-0.65327c-1.15688,-0.16477 -2.43322,0.24857 -3.19794,1.38493c-0.85983,1.63606 -2.48643,2.7714 -4.08744,2.3975c-1.66718,-0.38139 -2.93152,-1.88327 -4.29922,-2.99851c-1.3826,-1.33527 -3.26058,-1.71181 -4.95576,-1.26734c-1.98366,0.58539 -3.98524,1.49466 -6.05703,1.17589c-2.33173,-0.34825 -4.2838,-2.10518 -6.45413,-3.0573c-1.12747,-0.57983 -2.37083,-0.59536 -3.56857,-0.45729c-1.19551,0.09966 -2.41075,0.38766 -3.60033,0.07186c-1.57793,-0.36713 -2.84539,-1.76424 -3.75917,-3.32514c-0.78966,-1.30821 -1.47528,-2.93094 -1.23364,-4.61208c0.12463,-1.15649 0.85102,-2.02589 1.63603,-2.58042c2.81829,-2.01497 5.99966,-3.06413 9.15967,-3.91309c8.25046,-2.2359 16.72465,-2.81996 25.14939,-2.95278c2.46012,-0.02589 4.92207,0.02439 7.38069,0.13065z" fill="#000000" fill-rule="evenodd" stroke="none" stroke-width="1"/><path d="M234.38146,147.65381c4.84173,0.22416 9.67805,0.65064 14.48605,1.398c4.7328,0.74328 9.45087,1.92371 13.91954,4.02414c1.18852,0.60641 2.50512,0.9915 3.47326,2.097c0.88043,0.98498 1.21739,2.56479 0.95832,3.97841c-0.45893,2.69015 -2.17641,4.89279 -4.2251,5.8729c-1.31088,0.7123 -2.78434,0.71306 -4.11392,1.34574c-1.04418,0.41083 -1.65116,1.60813 -2.49375,2.38443c-1.00599,0.9696 -2.43483,0.9234 -3.55267,0.28744c-1.0574,-0.66056 -2.01859,-1.66015 -3.22973,-1.86182c-1.71062,-0.24128 -3.3193,0.69796 -4.95045,1.16282c-2.33002,0.77012 -4.76127,0.35291 -7.11065,-0.03266c-1.75718,-0.22013 -3.50693,-0.56366 -5.27343,-0.65327c-1.15688,-0.16477 -2.43322,0.24857 -3.19794,1.38493c-0.85983,1.63606 -2.48643,2.7714 -4.08744,2.3975c-1.66718,-0.38139 -2.93152,-1.88327 -4.29922,-2.99851c-1.3826,-1.33527 -3.26058,-1.71181 -4.95576,-1.26734c-1.98366,0.58539 -3.98524,1.49466 -6.05703,1.17589c-2.33173,-0.34825 -4.2838,-2.10518 -6.45413,-3.0573c-1.12747,-0.57983 -2.37083,-0.59536 -3.56857,-0.45729c-1.19551,0.09966 -2.41075,0.38766 -3.60033,0.07186c-1.57793,-0.36713 -2.84539,-1.76424 -3.75917,-3.32514c-0.78966,-1.30821 -1.47528,-2.93094 -1.23364,-4.61208c0.12463,-1.15649 0.85102,-2.02589 1.63603,-2.58042c2.81829,-2.01497 5.99966,-3.06413 9.15967,-3.91309c8.25046,-2.2359 16.72465,-2.81996 25.14939,-2.95278c2.46012,-0.02589 4.92207,0.02439 7.38069,0.13065z" fill="#714326" fill-rule="evenodd" stroke="none" stroke-width="1"/><path d="M227.0202,149.41437c2.43108,-0.02545 4.86728,0.02418 7.3036,0.12943c4.80647,0.22253 9.59742,0.64546 14.35003,1.38411l0.00203,0.00042c4.65705,0.73151 9.25427,1.88872 13.56545,3.91513l-0.04004,-0.02001c1.34615,0.68686 2.42796,1.06404 3.01793,1.7377c0.00382,0.00425 0.00766,0.00847 0.01152,0.01267c0.42042,0.47036 0.63456,1.3864 0.49273,2.16028c-0.00169,0.00924 -0.00333,0.01849 -0.00491,0.02776c-0.33491,1.96312 -1.68314,3.73535 -3.27935,4.49899c-0.02137,0.0103 -0.04256,0.02119 -0.06354,0.03266c-0.91093,0.49498 -2.32719,0.51686 -3.98155,1.28613c-1.68523,0.67408 -2.40765,2.18273 -2.92527,2.65962c-0.0089,0.00818 -0.01773,0.01649 -0.02648,0.02491c-0.42845,0.41295 -1.25837,0.45084 -1.94708,0.06859c-0.83257,-0.53052 -1.93479,-1.735 -3.68705,-2.02677c-0.01024,-0.00176 -0.0205,-0.00339 -0.03077,-0.00489c-2.2643,-0.31937 -4.06397,0.79864 -5.46934,1.19916c-0.01739,0.00494 -0.03471,0.01025 -0.05195,0.01593c-1.93893,0.64086 -4.15609,0.30576 -6.51171,-0.08084c-0.01575,-0.00248 -0.03152,-0.00465 -0.04732,-0.00652c-1.6672,-0.20886 -3.41496,-0.54713 -5.26086,-0.65041c-1.57261,-0.22133 -3.36331,0.29972 -4.54476,2.05535c-0.03833,0.05712 -0.07391,0.11697 -0.10655,0.17924c-0.55584,1.05763 -1.65912,1.76851 -2.51659,1.56826c-0.00186,-0.00042 -0.00373,-0.00084 -0.00559,-0.00125c-1.0946,-0.2504 -2.20007,-1.46652 -3.73337,-2.71678l0.09961,0.0886c-1.80295,-1.74123 -4.12668,-2.17692 -6.21918,-1.62827c-0.01261,0.00334 -0.02519,0.00688 -0.03772,0.01062c-2.10602,0.62151 -3.91469,1.38435 -5.51103,1.13873c-0.00176,-0.00028 -0.00352,-0.00056 -0.00529,-0.00084c-1.80748,-0.26995 -3.64007,-1.85484 -6.06762,-2.93277c-1.47846,-0.75368 -2.97443,-0.73738 -4.27308,-0.58835l-0.00893,0.00084c-1.30359,0.11126 -2.35176,0.31419 -3.1354,0.10616c-0.01276,-0.00347 -0.02556,-0.00674 -0.03839,-0.0098c-1.02895,-0.2394 -2.02646,-1.25166 -2.80052,-2.57388c-0.00437,-0.00753 -0.00878,-0.01501 -0.01323,-0.02246c-0.68083,-1.12792 -1.07866,-2.28255 -0.95369,-3.15203c0.00389,-0.02685 0.00732,-0.05381 0.01027,-0.08084c0.0353,-0.32752 0.33857,-0.80755 0.87791,-1.18854c0.00232,-0.00162 0.00463,-0.00325 0.00695,-0.00489c2.58504,-1.8482 5.60477,-2.8654 8.71724,-3.70159c0.00099,-0.00028 0.00199,-0.00056 0.00298,-0.00084c8.08826,-2.19195 16.45532,-2.77637 24.8337,-2.90869z" fill="#8c3e0a" fill-rule="evenodd" stroke="none" stroke-width="1"/><path d="M226.39584,169.05091c-2.96775,-0.39712 -5.86965,-1.05247 -5.54509,-4.06726c1.49403,3.1735 3.30691,2.31969 5.54509,4.06726z" fill="#ffffff" fill-rule="nonzero" stroke="none" stroke-width="1" opacity="0.6"/><path d="M204.12019,156.62786c0,-3.45677 11.20902,-6.25904 25.03606,-6.25904c13.82703,0 25.03606,2.80227 25.03606,6.25904c0,3.45677 -11.20902,6.25904 -25.03606,6.25904c-13.82703,0 -25.03606,-2.80227 -25.03606,-6.25904z" fill="#aa4400" fill-rule="evenodd" stroke="url(#color-5)" stroke-width="3.3417"/><path d="M209.89856,155.89065c-1.3313,-3.15235 7.73262,-6.36126 20.24484,-7.1673c12.51222,-0.80605 23.73462,1.096 25.06592,4.24835c1.3313,3.15235 -7.73262,6.36126 -20.24484,7.1673c-12.51222,0.80605 -23.73462,-1.096 -25.06592,-4.24835z" fill="#000000" fill-rule="evenodd" stroke="none" stroke-width="1" opacity="0.2"/><path d="M229.15701,140.6458c10.21846,0 18.50377,-2.06935 18.51606,-4.62327v20.60467c0,2.55651 -8.29001,4.62901 -18.51606,4.62901c-10.22605,0 -18.51606,-2.0725 -18.51606,-4.62901v-20.60467c0.01222,2.55392 8.2976,4.62327 18.51606,4.62327z" fill="#ff8080" fill-rule="evenodd" stroke="#ef6666" stroke-width="0.18516"/><path d="M215.76807,140.50363c3.49531,0.87281 8.1949,1.39124 13.3887,1.39124c5.1938,0 9.89339,-0.51842 13.3887,-1.39124c1.53911,-0.38433 2.82775,-0.83594 3.87499,-1.38364v17.50997c0,-0.03762 -0.0748,0.27152 -0.83973,0.72364c-0.76494,0.45213 -2.03218,0.93415 -3.63486,1.33482c-3.20535,0.80134 -7.76062,1.31818 -12.7891,1.31818c-5.02847,0 -9.58375,-0.51685 -12.7891,-1.31818c-1.60268,-0.40067 -2.86993,-0.88269 -3.63486,-1.33482c-0.76494,-0.45213 -0.83973,-0.76126 -0.83973,-0.72364v-17.50997c1.04724,0.5477 2.33588,0.99931 3.87499,1.38364z" fill="#f89797" fill-rule="evenodd" stroke="none" stroke-width="1"/><path d="M229.15701,140.6458c10.21846,0 18.50377,-2.06935 18.51606,-4.62327v20.60467c0,2.55651 -8.29001,4.62901 -18.51606,4.62901c-10.22605,0 -18.51606,-2.0725 -18.51606,-4.62901v-20.60467c0.01222,2.55392 8.2976,4.62327 18.51606,4.62327z" fill="url(#color-6)" fill-rule="evenodd" stroke="none" stroke-width="0.18516" opacity="0.6"/><path d="M227.99062,131.95282c3.98373,-0.02089 7.98635,0.11874 11.92453,0.91895c2.15731,0.52188 4.35479,0.97539 6.38508,2.05862c1.31781,0.57529 2.07793,2.3892 1.91845,4.05835c-0.10547,1.59016 -0.98111,2.85005 -1.79372,4.00077c-0.56474,0.93345 -1.45179,1.76719 -2.44727,1.60114c-0.82167,-0.23941 -1.44257,-1.014 -2.15268,-1.53204c-0.90544,-0.55583 -1.92608,-0.75631 -2.92239,-0.90021c-1.29261,-0.14757 -2.51543,0.58809 -3.6123,1.34699c-1.15822,0.70009 -1.91112,2.03121 -2.81574,3.11033c-0.43035,0.33322 -0.75433,0.87692 -1.24372,1.09434c-1.33945,-0.33514 -2.52778,-1.30968 -3.4438,-2.53837c-0.7095,-0.76916 -0.82754,-2.1295 -1.67793,-2.72779c-0.67287,-0.26519 -1.34882,0.23388 -1.89901,0.67173c-0.95913,0.91388 -2.02188,1.63936 -3.06978,2.38431c-0.9353,0.55048 -1.27257,1.8609 -2.01177,2.67446c-0.48412,0.60673 -1.2797,0.43833 -1.78121,-0.04403c-0.62818,-0.70509 -1.44255,-1.21221 -1.86031,-2.16138c-0.2606,-0.86476 -0.39676,-1.82085 -0.8707,-2.56744c-0.99839,-1.76088 -2.8896,-2.18564 -3.98966,-3.80931c-0.97126,-1.24965 -0.61886,-3.65322 0.70655,-4.30258c5.29004,-2.53465 11.01428,-3.34304 16.65723,-3.33696z" fill="#000000" fill-rule="evenodd" stroke="none" stroke-width="1"/><path d="M227.99062,131.78614c3.98373,-0.02088 7.98635,0.11874 11.92453,0.91895c2.15731,0.52188 4.35479,0.97539 6.38508,2.05862c1.31781,0.57529 2.07793,2.3892 1.91845,4.05835c-0.10547,1.59016 -0.98111,2.85005 -1.79373,4.00076c-0.56474,0.93345 -1.45179,1.76719 -2.44727,1.60114c-0.82167,-0.23941 -1.44257,-1.01399 -2.15268,-1.53203c-0.90543,-0.55584 -1.92608,-0.75632 -2.92239,-0.90022c-1.29261,-0.14757 -2.51542,0.58809 -3.6123,1.34699c-1.15822,0.70009 -1.91112,2.03121 -2.81574,3.11033c-0.43035,0.33321 -0.75432,0.87692 -1.24372,1.09433c-1.33945,-0.33514 -2.52778,-1.30967 -3.4438,-2.53836c-0.7095,-0.76916 -0.82754,-2.1295 -1.67793,-2.72779c-0.67287,-0.26519 -1.34882,0.23388 -1.89901,0.67173c-0.95913,0.91388 -2.02188,1.63935 -3.06978,2.38431c-0.9353,0.55048 -1.27257,1.8609 -2.01177,2.67446c-0.48412,0.60676 -1.2797,0.43836 -1.78121,-0.044c-0.62817,-0.70509 -1.44255,-1.21221 -1.86031,-2.16138c-0.26059,-0.86476 -0.39676,-1.82085 -0.8707,-2.56744c-0.99839,-1.76088 -2.8896,-2.18563 -3.98966,-3.80931c-0.97126,-1.24965 -0.61886,-3.65322 0.70655,-4.30257c5.29004,-2.53465 11.01428,-3.34297 16.65723,-3.33697z" fill="#fceaa9" fill-rule="evenodd" stroke="none" stroke-width="0.18516"/><path d="M227.96838,133.41048c0.00226,0.00001 0.00452,0.00001 0.00678,0c3.94986,-0.0207 7.87203,0.11976 11.68831,0.89338c2.17232,0.52515 4.26322,0.97622 6.09267,1.95233c0.02742,0.01464 0.05523,0.02812 0.08339,0.04042c0.64858,0.28309 1.14067,1.39897 1.05116,2.33593c-0.00183,0.01915 -0.00338,0.03835 -0.00466,0.05757c-0.06172,0.93055 -0.66746,1.92311 -1.47539,3.06721c-0.02176,0.0308 -0.04257,0.0626 -0.06238,0.09534c-0.37326,0.61696 -0.84184,0.96212 -1.15738,0.95483c-0.34747,-0.14624 -0.8536,-0.68312 -1.71662,-1.31271c-0.0273,-0.01995 -0.05517,-0.03868 -0.08356,-0.05614c-1.14493,-0.70281 -2.32147,-0.91099 -3.35583,-1.06038c-0.01058,-0.00152 -0.02117,-0.00288 -0.03177,-0.00409c-1.76918,-0.202 -3.23464,0.75812 -4.37852,1.54953l0.06453,-0.04185c-1.52454,0.92176 -2.3437,2.41809 -3.11144,3.34976c-0.25238,0.21015 -0.47741,0.40567 -0.59814,0.53488c-0.82258,-0.34588 -1.60555,-1.00178 -2.24527,-1.85984c-0.03155,-0.04237 -0.06491,-0.08265 -0.09993,-0.12065c-0.09309,-0.10091 -0.25251,-0.4231 -0.4982,-0.98198c-0.24569,-0.55888 -0.62185,-1.39085 -1.39696,-1.9362c-0.07976,-0.05609 -0.16405,-0.10173 -0.2515,-0.13617c-1.36987,-0.53987 -2.43075,0.38949 -3.01184,0.85193c-0.03123,0.02481 -0.06159,0.05124 -0.091,0.07921c-0.85331,0.81299 -1.86225,1.50829 -2.92365,2.26284l0.09034,-0.05859c-0.77855,0.45833 -1.24696,1.18907 -1.57731,1.7496c-0.31363,0.53215 -0.53447,0.92271 -0.71197,1.13346c-0.04209,-0.01641 -0.09444,-0.03506 -0.12591,-0.06533l0.07644,0.07942c-0.77629,-0.87132 -1.35162,-1.30687 -1.5515,-1.67876c-0.18321,-0.67862 -0.33826,-1.73659 -1.01161,-2.81569c-0.69187,-1.19985 -1.60443,-1.85758 -2.34785,-2.39269c-0.75148,-0.54091 -1.33817,-0.97784 -1.68635,-1.49175c-0.0192,-0.02833 -0.03918,-0.05583 -0.0599,-0.08248c-0.27743,-0.35696 -0.12256,-1.48678 0.2414,-1.66753c5.07761,-2.43083 10.63416,-3.23078 16.1714,-3.22482z" fill="#faf5e0" fill-rule="evenodd" stroke="none" stroke-width="1" opacity="0.6"/><path d="M219.32805,136.25939c0,-1.35689 4.39993,-2.45687 9.82753,-2.45687c5.42759,0 9.82753,1.09998 9.82753,2.45687c0,1.35689 -4.39993,2.45687 -9.82753,2.45687c-5.42759,0 -9.82753,-1.09998 -9.82753,-2.45687z" fill="#fff6d5" fill-rule="evenodd" stroke="url(#color-7)" stroke-width="3.7073"/><path d="M276.80826,179.0943c-0.27998,-1.08752 1.10826,-2.41113 3.1007,-2.95637c1.99245,-0.54524 3.83461,-0.10563 4.11458,0.98189c0.27998,1.08752 -1.10826,2.41113 -3.1007,2.95637c-1.99245,0.54524 -3.83461,0.10563 -4.11458,-0.98189z" fill="#000000" fill-rule="evenodd" stroke="none" stroke-width="1" opacity="0.2"/><g stroke-width="1"><path d="M277.66809,153.96341c0,-0.42298 0.83705,-0.76587 1.8696,-0.76587c1.03255,0 1.8696,0.34289 1.8696,0.76587c0,0.42298 -0.83705,0.76587 -1.8696,0.76587c-1.03255,0 -1.8696,-0.34289 -1.8696,-0.76587z" fill="#ff2a2a" fill-rule="evenodd" stroke="none"/><path d="M277.66868,153.67993h0.00389c0.03926,0.40881 0.85818,0.73397 1.86575,0.73397c1.00793,0 1.82709,-0.32497 1.86575,-0.73397h0.00389v25.32479h-0.03116c0.01769,0.04231 0.03116,0.08327 0.03116,0.12765c0,0.42299 -0.83705,0.76587 -1.86961,0.76587c-1.03256,0 -1.86961,-0.34289 -1.86961,-0.76587c0,-0.04372 0.01009,-0.08592 0.02727,-0.12765h-0.02727v-25.32479z" fill="#ff0000" fill-rule="evenodd" stroke="#ffaaaa"/><path d="M277.66748,178.3042c0.82244,0 2.88294,-0.96951 3.73923,-1.77954v1.11817c-0.7402,0.70025 -2.73213,1.77954 -3.73923,1.77954z" fill="#ffd5d5" fill-rule="evenodd" stroke="none"/><path d="M277.66748,174.21956c0.82244,0 2.88294,-0.96951 3.73923,-1.77954v1.11817c-0.7402,0.70025 -2.73213,1.77954 -3.73923,1.77954z" fill="#ffd5d5" fill-rule="evenodd" stroke="none"/><path d="M277.66748,170.13491c0.82244,0 2.88294,-0.96951 3.73923,-1.77954v1.11817c-0.7402,0.70025 -2.73213,1.77954 -3.73923,1.77954z" fill="#ffd5d5" fill-rule="evenodd" stroke="none"/><path d="M277.66748,166.05027c0.82244,0 2.88294,-0.96951 3.73923,-1.77954v1.11817c-0.7402,0.70025 -2.73213,1.77954 -3.73923,1.77954z" fill="#ffd5d5" fill-rule="evenodd" stroke="none"/><path d="M277.66748,161.96563c0.82244,0 2.88294,-0.96951 3.73923,-1.77954v1.11817c-0.7402,0.70025 -2.73213,1.77954 -3.73923,1.77954z" fill="#ffd5d5" fill-rule="evenodd" stroke="none"/><path d="M277.66748,157.88098c0.82244,0 2.88294,-0.96951 3.73923,-1.77954v1.11817c-0.7402,0.70025 -2.73213,1.77954 -3.73923,1.77954z" fill="#ffd5d5" fill-rule="evenodd" stroke="none"/><path d="M278.54732,153.96312c0,-0.22406 0.44341,-0.4057 0.99039,-0.4057c0.54698,0 0.99039,0.18164 0.99039,0.4057c0,0.22406 -0.44341,0.4057 -0.99039,0.4057c-0.54698,0 -0.99039,-0.18164 -0.99039,-0.4057z" fill="#ff8080" fill-rule="evenodd" stroke="none"/><path d="M279.44611,153.8862c-0.08688,-1.57747 0.16043,-2.74427 0.65942,-3.60163" fill="none" fill-rule="nonzero" stroke="#000000"/></g><path d="M178.5525,178.20151c-0.33483,-1.2615 1.3254,-2.79686 3.70824,-3.42932c2.38284,-0.63246 4.58594,-0.12252 4.92077,1.13898c0.33483,1.2615 -1.3254,2.79686 -3.70824,3.42932c-2.38284,0.63246 -4.58594,0.12252 -4.92077,-1.13898z" fill="#000000" fill-rule="evenodd" stroke="none" stroke-width="1" opacity="0.2"/><g stroke-width="1"><path d="M178.90714,154.02637c0,-0.42298 0.83705,-0.76587 1.8696,-0.76587c1.03255,0 1.8696,0.34289 1.8696,0.76587c0,0.42298 -0.83705,0.76587 -1.8696,0.76587c-1.03255,0 -1.8696,-0.34289 -1.8696,-0.76587z" fill="#ff2a2a" fill-rule="evenodd" stroke="none"/><path d="M178.90772,153.74289h0.00389c0.03926,0.40881 0.85818,0.73397 1.86575,0.73397c1.00793,0 1.82709,-0.32497 1.86575,-0.73397h0.00389v25.32479h-0.03116c0.01769,0.04231 0.03116,0.08327 0.03116,0.12765c0,0.42299 -0.83705,0.76587 -1.86961,0.76587c-1.03256,0 -1.86961,-0.34289 -1.86961,-0.76587c0,-0.04372 0.01009,-0.08592 0.02727,-0.12765h-0.02727v-25.32479z" fill="#ff0000" fill-rule="evenodd" stroke="#ffaaaa"/><path d="M178.90653,178.36716c0.82244,0 2.88294,-0.96951 3.73923,-1.77954v1.11817c-0.7402,0.70025 -2.73213,1.77954 -3.73923,1.77954z" fill="#ffd5d5" fill-rule="evenodd" stroke="none"/><path d="M178.90653,174.28252c0.82244,0 2.88294,-0.96951 3.73923,-1.77954v1.11817c-0.7402,0.70025 -2.73213,1.77954 -3.73923,1.77954z" fill="#ffd5d5" fill-rule="evenodd" stroke="none"/><path d="M178.90653,170.19787c0.82244,0 2.88294,-0.96951 3.73923,-1.77954v1.11817c-0.7402,0.70025 -2.73213,1.77954 -3.73923,1.77954z" fill="#ffd5d5" fill-rule="evenodd" stroke="none"/><path d="M178.90653,166.11323c0.82244,0 2.88294,-0.96951 3.73923,-1.77954v1.11817c-0.7402,0.70025 -2.73213,1.77954 -3.73923,1.77954z" fill="#ffd5d5" fill-rule="evenodd" stroke="none"/><path d="M178.90653,162.02859c0.82244,0 2.88294,-0.96951 3.73923,-1.77954v1.11817c-0.7402,0.70025 -2.73213,1.77954 -3.73923,1.77954z" fill="#ffd5d5" fill-rule="evenodd" stroke="none"/><path d="M178.90653,157.94394c0.82244,0 2.88294,-0.96951 3.73923,-1.77954v1.11817c-0.7402,0.70025 -2.73213,1.77954 -3.73923,1.77954z" fill="#ffd5d5" fill-rule="evenodd" stroke="none"/><path d="M179.78636,154.02608c0,-0.22406 0.44341,-0.4057 0.99039,-0.4057c0.54698,0 0.99039,0.18164 0.99039,0.4057c0,0.22406 -0.44341,0.4057 -0.99039,0.4057c-0.54698,0 -0.99039,-0.18164 -0.99039,-0.4057z" fill="#ff8080" fill-rule="evenodd" stroke="none"/><path d="M180.68515,153.94916c-0.08688,-1.57747 0.16043,-2.74427 0.65942,-3.60163" fill="none" fill-rule="nonzero" stroke="#000000"/></g><path d="M201.13469,191.85599c-0.33483,-1.2615 1.3254,-2.79686 3.70824,-3.42932c2.38284,-0.63246 4.58594,-0.12252 4.92077,1.13898c0.33483,1.2615 -1.3254,2.79686 -3.70824,3.42932c-2.38284,0.63246 -4.58594,0.12252 -4.92077,-1.13898z" fill="#000000" fill-rule="evenodd" stroke="none" stroke-width="1" opacity="0.2"/><g stroke-width="1"><path d="M201.53561,167.41903c0,-0.42298 0.83705,-0.76587 1.8696,-0.76587c1.03255,0 1.8696,0.34289 1.8696,0.76587c0,0.42298 -0.83705,0.76587 -1.8696,0.76587c-1.03255,0 -1.8696,-0.34289 -1.8696,-0.76587z" fill="#ff2a2a" fill-rule="evenodd" stroke="none"/><path d="M201.5362,167.13555h0.00389c0.03926,0.40881 0.85818,0.73397 1.86575,0.73397c1.00793,0 1.82709,-0.32497 1.86575,-0.73397h0.00389v25.32479h-0.03116c0.01769,0.04231 0.03116,0.08327 0.03116,0.12765c0,0.42299 -0.83705,0.76587 -1.86961,0.76587c-1.03256,0 -1.86961,-0.34289 -1.86961,-0.76587c0,-0.04372 0.01009,-0.08592 0.02727,-0.12765h-0.02727v-25.32479z" fill="#ff0000" fill-rule="evenodd" stroke="#ffaaaa"/><path d="M201.535,191.75982c0.82244,0 2.88294,-0.96951 3.73923,-1.77954v1.11817c-0.7402,0.70025 -2.73213,1.77954 -3.73923,1.77954z" fill="#ffd5d5" fill-rule="evenodd" stroke="none"/><path d="M201.535,187.67518c0.82244,0 2.88294,-0.96951 3.73923,-1.77954v1.11817c-0.7402,0.70025 -2.73213,1.77954 -3.73923,1.77954z" fill="#ffd5d5" fill-rule="evenodd" stroke="none"/><path d="M201.535,183.59053c0.82244,0 2.88294,-0.96951 3.73923,-1.77954v1.11817c-0.7402,0.70025 -2.73213,1.77954 -3.73923,1.77954z" fill="#ffd5d5" fill-rule="evenodd" stroke="none"/><path d="M201.535,179.50589c0.82244,0 2.88294,-0.96951 3.73923,-1.77954v1.11817c-0.7402,0.70025 -2.73213,1.77954 -3.73923,1.77954z" fill="#ffd5d5" fill-rule="evenodd" stroke="none"/><path d="M201.535,175.42125c0.82244,0 2.88294,-0.96951 3.73923,-1.77954v1.11817c-0.7402,0.70025 -2.73213,1.77954 -3.73923,1.77954z" fill="#ffd5d5" fill-rule="evenodd" stroke="none"/><path d="M201.535,171.33661c0.82244,0 2.88294,-0.96951 3.73923,-1.77954v1.11817c-0.7402,0.70025 -2.73213,1.77954 -3.73923,1.77954z" fill="#ffd5d5" fill-rule="evenodd" stroke="none"/><path d="M202.41484,167.41874c0,-0.22406 0.44341,-0.4057 0.99039,-0.4057c0.54698,0 0.99039,0.18164 0.99039,0.4057c0,0.22406 -0.44341,0.4057 -0.99039,0.4057c-0.54698,0 -0.99039,-0.18164 -0.99039,-0.4057z" fill="#ff8080" fill-rule="evenodd" stroke="none"/><path d="M203.31363,167.34182c-0.08688,-1.57747 0.16043,-2.74427 0.65942,-3.60163" fill="none" fill-rule="nonzero" stroke="#000000"/></g><path d="M202.15504,194.26293c0,0 5.88848,0.02946 8.70866,-0.69669c1.91252,-0.49243 3.46195,-2.05602 5.39928,-2.43838c3.30567,-0.65241 10.10199,0.34834 10.10199,0.34834c0,0 -6.48395,0.33681 -9.57947,1.21921c-2.1486,0.61247 -3.88467,2.46745 -6.09604,2.78685c-2.84425,0.4108 -8.53442,-1.21921 -8.53442,-1.21921z" fill="#ffffff" fill-rule="nonzero" stroke="none" stroke-width="1" opacity="0.6"/><path d="M220.04051,193.6939c-0.33483,-1.2615 1.3254,-2.79686 3.70824,-3.42932c2.38284,-0.63246 4.58594,-0.12252 4.92077,1.13898c0.33483,1.2615 -1.3254,2.79686 -3.70824,3.42932c-2.38284,0.63246 -4.58594,0.12252 -4.92077,-1.13898z" fill="#000000" fill-rule="evenodd" stroke="none" stroke-width="1" opacity="0.2"/><g stroke-width="1"><path d="M220.00723,169.26694c0,-0.42298 0.83705,-0.76587 1.8696,-0.76587c1.03255,0 1.8696,0.34289 1.8696,0.76587c0,0.42298 -0.83705,0.76587 -1.8696,0.76587c-1.03255,0 -1.8696,-0.34289 -1.8696,-0.76587z" fill="#ff2a2a" fill-rule="evenodd" stroke="none"/><path d="M220.00782,168.98346h0.00389c0.03926,0.40881 0.85818,0.73397 1.86575,0.73397c1.00793,0 1.82709,-0.32497 1.86575,-0.73397h0.00389v25.32479h-0.03116c0.01769,0.04231 0.03116,0.08327 0.03116,0.12765c0,0.42299 -0.83705,0.76587 -1.86961,0.76587c-1.03256,0 -1.86961,-0.34289 -1.86961,-0.76587c0,-0.04372 0.01009,-0.08592 0.02727,-0.12765h-0.02727v-25.32479z" fill="#ff0000" fill-rule="evenodd" stroke="#ffaaaa"/><path d="M220.00662,193.60773c0.82244,0 2.88294,-0.96951 3.73923,-1.77954v1.11817c-0.7402,0.70025 -2.73213,1.77954 -3.73923,1.77954z" fill="#ffd5d5" fill-rule="evenodd" stroke="none"/><path d="M220.00662,189.52309c0.82244,0 2.88294,-0.96951 3.73923,-1.77954v1.11817c-0.7402,0.70025 -2.73213,1.77954 -3.73923,1.77954z" fill="#ffd5d5" fill-rule="evenodd" stroke="none"/><path d="M220.00662,185.43844c0.82244,0 2.88294,-0.96951 3.73923,-1.77954v1.11817c-0.7402,0.70025 -2.73213,1.77954 -3.73923,1.77954z" fill="#ffd5d5" fill-rule="evenodd" stroke="none"/><path d="M220.00662,181.3538c0.82244,0 2.88294,-0.96951 3.73923,-1.77954v1.11817c-0.7402,0.70025 -2.73213,1.77954 -3.73923,1.77954z" fill="#ffd5d5" fill-rule="evenodd" stroke="none"/><path d="M220.00662,177.26916c0.82244,0 2.88294,-0.96951 3.73923,-1.77954v1.11817c-0.7402,0.70025 -2.73213,1.77954 -3.73923,1.77954z" fill="#ffd5d5" fill-rule="evenodd" stroke="none"/><path d="M220.00662,173.18452c0.82244,0 2.88294,-0.96951 3.73923,-1.77954v1.11817c-0.7402,0.70025 -2.73213,1.77954 -3.73923,1.77954z" fill="#ffd5d5" fill-rule="evenodd" stroke="none"/><path d="M220.88646,169.26665c0,-0.22406 0.44341,-0.4057 0.99039,-0.4057c0.54698,0 0.99039,0.18164 0.99039,0.4057c0,0.22406 -0.44341,0.4057 -0.99039,0.4057c-0.54698,0 -0.99039,-0.18164 -0.99039,-0.4057z" fill="#ff8080" fill-rule="evenodd" stroke="none"/><path d="M221.78525,169.18973c-0.08688,-1.57747 0.16043,-2.74427 0.65942,-3.60163" fill="none" fill-rule="nonzero" stroke="#000000"/></g><path d="M239.20926,193.6939c-0.33483,-1.2615 1.3254,-2.79686 3.70824,-3.42932c2.38284,-0.63246 4.58594,-0.12252 4.92077,1.13898c0.33483,1.2615 -1.3254,2.79686 -3.70824,3.42932c-2.38284,0.63246 -4.58594,0.12252 -4.92077,-1.13898z" fill="#000000" fill-rule="evenodd" stroke="none" stroke-width="1" opacity="0.2"/><g stroke-width="1"><path d="M239.86441,169.54468c0,-0.42298 0.83705,-0.76587 1.8696,-0.76587c1.03255,0 1.8696,0.34289 1.8696,0.76587c0,0.42298 -0.83705,0.76587 -1.8696,0.76587c-1.03255,0 -1.8696,-0.34289 -1.8696,-0.76587z" fill="#ff2a2a" fill-rule="evenodd" stroke="none"/><path d="M239.86499,169.2612h0.00389c0.03926,0.40881 0.85818,0.73397 1.86575,0.73397c1.00793,0 1.82709,-0.32497 1.86575,-0.73397h0.00389v25.32479h-0.03116c0.01769,0.04231 0.03116,0.08327 0.03116,0.12765c0,0.42299 -0.83705,0.76587 -1.86961,0.76587c-1.03256,0 -1.86961,-0.34289 -1.86961,-0.76587c0,-0.04372 0.01009,-0.08592 0.02727,-0.12765h-0.02727v-25.32479z" fill="#ff0000" fill-rule="evenodd" stroke="#ffaaaa"/><path d="M239.8638,193.88547c0.82244,0 2.88294,-0.96951 3.73923,-1.77954v1.11817c-0.7402,0.70025 -2.73213,1.77954 -3.73923,1.77954z" fill="#ffd5d5" fill-rule="evenodd" stroke="none"/><path d="M239.8638,189.80083c0.82244,0 2.88294,-0.96951 3.73923,-1.77954v1.11817c-0.7402,0.70025 -2.73213,1.77954 -3.73923,1.77954z" fill="#ffd5d5" fill-rule="evenodd" stroke="none"/><path d="M239.8638,185.71618c0.82244,0 2.88294,-0.96951 3.73923,-1.77954v1.11817c-0.7402,0.70025 -2.73213,1.77954 -3.73923,1.77954z" fill="#ffd5d5" fill-rule="evenodd" stroke="none"/><path d="M239.8638,181.63154c0.82244,0 2.88294,-0.96951 3.73923,-1.77954v1.11817c-0.7402,0.70025 -2.73213,1.77954 -3.73923,1.77954z" fill="#ffd5d5" fill-rule="evenodd" stroke="none"/><path d="M239.8638,177.5469c0.82244,0 2.88294,-0.96951 3.73923,-1.77954v1.11817c-0.7402,0.70025 -2.73213,1.77954 -3.73923,1.77954z" fill="#ffd5d5" fill-rule="evenodd" stroke="none"/><path d="M239.8638,173.46226c0.82244,0 2.88294,-0.96951 3.73923,-1.77954v1.11817c-0.7402,0.70025 -2.73213,1.77954 -3.73923,1.77954z" fill="#ffd5d5" fill-rule="evenodd" stroke="none"/><path d="M240.74363,169.54439c0,-0.22406 0.44341,-0.4057 0.99039,-0.4057c0.54698,0 0.99039,0.18164 0.99039,0.4057c0,0.22406 -0.44341,0.4057 -0.99039,0.4057c-0.54698,0 -0.99039,-0.18164 -0.99039,-0.4057z" fill="#ff8080" fill-rule="evenodd" stroke="none"/><path d="M241.64242,169.46747c-0.08688,-1.57747 0.16043,-2.74427 0.65942,-3.60163" fill="none" fill-rule="nonzero" stroke="#000000"/></g><g stroke-width="1"><path d="M187.31158,146.45145c0,-0.42298 0.83705,-0.76587 1.8696,-0.76587c1.03255,0 1.8696,0.34289 1.8696,0.76587c0,0.42298 -0.83705,0.76587 -1.8696,0.76587c-1.03255,0 -1.8696,-0.34289 -1.8696,-0.76587z" fill="#ff2a2a" fill-rule="evenodd" stroke="none"/><path d="M187.31216,146.16797h0.00389c0.03926,0.40881 0.85818,0.73397 1.86575,0.73397c1.00793,0 1.82709,-0.32497 1.86575,-0.73397h0.00389v25.32479h-0.03116c0.01769,0.04231 0.03116,0.08327 0.03116,0.12765c0,0.42299 -0.83705,0.76587 -1.86961,0.76587c-1.03256,0 -1.86961,-0.34289 -1.86961,-0.76587c0,-0.04372 0.01009,-0.08592 0.02727,-0.12765h-0.02727v-25.32479z" fill="#ff0000" fill-rule="evenodd" stroke="#ffaaaa"/><path d="M187.31096,170.79224c0.82244,0 2.88294,-0.96951 3.73923,-1.77954v1.11817c-0.7402,0.70025 -2.73213,1.77954 -3.73923,1.77954z" fill="#ffd5d5" fill-rule="evenodd" stroke="none"/><path d="M187.31096,166.7076c0.82244,0 2.88294,-0.96951 3.73923,-1.77954v1.11817c-0.7402,0.70025 -2.73213,1.77954 -3.73923,1.77954z" fill="#ffd5d5" fill-rule="evenodd" stroke="none"/><path d="M187.31096,162.62295c0.82244,0 2.88294,-0.96951 3.73923,-1.77954v1.11817c-0.7402,0.70025 -2.73213,1.77954 -3.73923,1.77954z" fill="#ffd5d5" fill-rule="evenodd" stroke="none"/><path d="M187.31096,158.53831c0.82244,0 2.88294,-0.96951 3.73923,-1.77954v1.11817c-0.7402,0.70025 -2.73213,1.77954 -3.73923,1.77954z" fill="#ffd5d5" fill-rule="evenodd" stroke="none"/><path d="M187.31096,154.45367c0.82244,0 2.88294,-0.96951 3.73923,-1.77954v1.11817c-0.7402,0.70025 -2.73213,1.77954 -3.73923,1.77954z" fill="#ffd5d5" fill-rule="evenodd" stroke="none"/><path d="M187.31096,150.36902c0.82244,0 2.88294,-0.96951 3.73923,-1.77954v1.11817c-0.7402,0.70025 -2.73213,1.77954 -3.73923,1.77954z" fill="#ffd5d5" fill-rule="evenodd" stroke="none"/><path d="M188.1908,146.45116c0,-0.22406 0.44341,-0.4057 0.99039,-0.4057c0.54698,0 0.99039,0.18164 0.99039,0.4057c0,0.22406 -0.44341,0.4057 -0.99039,0.4057c-0.54698,0 -0.99039,-0.18164 -0.99039,-0.4057z" fill="#ff8080" fill-rule="evenodd" stroke="none"/><path d="M189.08959,146.37424c-0.08688,-1.57747 0.16043,-2.74427 0.65942,-3.60163" fill="none" fill-rule="nonzero" stroke="#000000"/></g><path d="M257.0643,190.80558c-0.33483,-1.2615 1.3254,-2.79686 3.70824,-3.42932c2.38284,-0.63246 4.58594,-0.12252 4.92077,1.13898c0.33483,1.2615 -1.3254,2.79686 -3.70824,3.42932c-2.38284,0.63246 -4.58594,0.12252 -4.92077,-1.13898z" fill="#000000" fill-rule="evenodd" stroke="none" stroke-width="1" opacity="0.2"/><g stroke-width="1"><path d="M257.87443,166.49508c0,-0.42298 0.83705,-0.76587 1.8696,-0.76587c1.03255,0 1.8696,0.34289 1.8696,0.76587c0,0.42298 -0.83705,0.76587 -1.8696,0.76587c-1.03255,0 -1.8696,-0.34289 -1.8696,-0.76587z" fill="#ff2a2a" fill-rule="evenodd" stroke="none"/><path d="M257.87501,166.2116h0.00389c0.03926,0.40881 0.85818,0.73397 1.86575,0.73397c1.00793,0 1.82709,-0.32497 1.86575,-0.73397h0.00389v25.32479h-0.03116c0.01769,0.04231 0.03116,0.08327 0.03116,0.12765c0,0.42299 -0.83705,0.76587 -1.86961,0.76587c-1.03256,0 -1.86961,-0.34289 -1.86961,-0.76587c0,-0.04372 0.01009,-0.08592 0.02727,-0.12765h-0.02727v-25.32479z" fill="#ff0000" fill-rule="evenodd" stroke="#ffaaaa"/><path d="M257.87381,190.83587c0.82244,0 2.88294,-0.96951 3.73923,-1.77954v1.11817c-0.7402,0.70025 -2.73213,1.77954 -3.73923,1.77954z" fill="#ffd5d5" fill-rule="evenodd" stroke="none"/><path d="M257.87381,186.75123c0.82244,0 2.88294,-0.96951 3.73923,-1.77954v1.11817c-0.7402,0.70025 -2.73213,1.77954 -3.73923,1.77954z" fill="#ffd5d5" fill-rule="evenodd" stroke="none"/><path d="M257.87381,182.66658c0.82244,0 2.88294,-0.96951 3.73923,-1.77954v1.11817c-0.7402,0.70025 -2.73213,1.77954 -3.73923,1.77954z" fill="#ffd5d5" fill-rule="evenodd" stroke="none"/><path d="M257.87381,178.58194c0.82244,0 2.88294,-0.96951 3.73923,-1.77954v1.11817c-0.7402,0.70025 -2.73213,1.77954 -3.73923,1.77954z" fill="#ffd5d5" fill-rule="evenodd" stroke="none"/><path d="M257.87381,174.4973c0.82244,0 2.88294,-0.96951 3.73923,-1.77954v1.11817c-0.7402,0.70025 -2.73213,1.77954 -3.73923,1.77954z" fill="#ffd5d5" fill-rule="evenodd" stroke="none"/><path d="M257.87381,170.41266c0.82244,0 2.88294,-0.96951 3.73923,-1.77954v1.11817c-0.7402,0.70025 -2.73213,1.77954 -3.73923,1.77954z" fill="#ffd5d5" fill-rule="evenodd" stroke="none"/><path d="M258.75365,166.49479c0,-0.22406 0.44341,-0.4057 0.99039,-0.4057c0.54698,0 0.99039,0.18164 0.99039,0.4057c0,0.22406 -0.44341,0.4057 -0.99039,0.4057c-0.54698,0 -0.99039,-0.18164 -0.99039,-0.4057z" fill="#ff8080" fill-rule="evenodd" stroke="none"/><path d="M259.65244,166.41787c-0.08688,-1.57747 0.16043,-2.74427 0.65942,-3.60163" fill="none" fill-rule="nonzero" stroke="#000000"/></g><path d="M185.90523,187.39288c-0.33483,-1.2615 1.3254,-2.79686 3.70824,-3.42932c2.38284,-0.63246 4.58594,-0.12252 4.92077,1.13898c0.33483,1.2615 -1.3254,2.79686 -3.70824,3.42932c-2.38284,0.63246 -4.58594,0.12252 -4.92077,-1.13898z" fill="#000000" fill-rule="evenodd" stroke="none" stroke-width="1" opacity="0.2"/><g stroke-width="1"><path d="M185.74327,163.17145c0,-0.42298 0.83705,-0.76587 1.8696,-0.76587c1.03255,0 1.8696,0.34289 1.8696,0.76587c0,0.42298 -0.83705,0.76587 -1.8696,0.76587c-1.03255,0 -1.8696,-0.34289 -1.8696,-0.76587z" fill="#ff2a2a" fill-rule="evenodd" stroke="none"/><path d="M185.74385,162.88797h0.00389c0.03926,0.40881 0.85818,0.73397 1.86575,0.73397c1.00793,0 1.82709,-0.32497 1.86575,-0.73397h0.00389v25.32479h-0.03116c0.01769,0.04231 0.03116,0.08327 0.03116,0.12765c0,0.42299 -0.83705,0.76587 -1.86961,0.76587c-1.03256,0 -1.86961,-0.34289 -1.86961,-0.76587c0,-0.04372 0.01009,-0.08592 0.02727,-0.12765h-0.02727v-25.32479z" fill="#ff0000" fill-rule="evenodd" stroke="#ffaaaa"/><path d="M185.74265,187.51224c0.82244,0 2.88294,-0.96951 3.73923,-1.77954v1.11817c-0.7402,0.70025 -2.73213,1.77954 -3.73923,1.77954z" fill="#ffd5d5" fill-rule="evenodd" stroke="none"/><path d="M185.74265,183.4276c0.82244,0 2.88294,-0.96951 3.73923,-1.77954v1.11817c-0.7402,0.70025 -2.73213,1.77954 -3.73923,1.77954z" fill="#ffd5d5" fill-rule="evenodd" stroke="none"/><path d="M185.74265,179.34295c0.82244,0 2.88294,-0.96951 3.73923,-1.77954v1.11817c-0.7402,0.70025 -2.73213,1.77954 -3.73923,1.77954z" fill="#ffd5d5" fill-rule="evenodd" stroke="none"/><path d="M185.74265,175.25831c0.82244,0 2.88294,-0.96951 3.73923,-1.77954v1.11817c-0.7402,0.70025 -2.73213,1.77954 -3.73923,1.77954z" fill="#ffd5d5" fill-rule="evenodd" stroke="none"/><path d="M185.74265,171.17367c0.82244,0 2.88294,-0.96951 3.73923,-1.77954v1.11817c-0.7402,0.70025 -2.73213,1.77954 -3.73923,1.77954z" fill="#ffd5d5" fill-rule="evenodd" stroke="none"/><path d="M185.74265,167.08902c0.82244,0 2.88294,-0.96951 3.73923,-1.77954v1.11817c-0.7402,0.70025 -2.73213,1.77954 -3.73923,1.77954z" fill="#ffd5d5" fill-rule="evenodd" stroke="none"/><path d="M186.62249,163.17116c0,-0.22406 0.44341,-0.4057 0.99039,-0.4057c0.54698,0 0.99039,0.18164 0.99039,0.4057c0,0.22406 -0.44341,0.4057 -0.99039,0.4057c-0.54698,0 -0.99039,-0.18164 -0.99039,-0.4057z" fill="#ff8080" fill-rule="evenodd" stroke="none"/><path d="M187.52128,163.09424c-0.08688,-1.57747 0.16043,-2.74427 0.65942,-3.60163" fill="none" fill-rule="nonzero" stroke="#000000"/></g><path d="M193.38768,192.36504c-17.14328,-4.04391 -19.02525,-10.00423 -17.0007,-11.6392c-0.00183,1.20388 6.47914,8.16392 17.00015,11.63994z" fill="#ffffff" fill-rule="nonzero" stroke="none" stroke-width="1" opacity="0.6"/><path d="M207.22594,162.72248c-13.20426,-2.35142 -13.50001,-7.38054 -8.42987,-9.37169c-5.02009,2.52213 0.88738,6.8797 8.42987,9.37169z" fill="#ffffff" fill-rule="nonzero" stroke="none" stroke-width="1" opacity="0.6"/><path d="M224.77177,140.57121c-9.10626,-0.39402 -12.83515,-2.82213 -10.83474,-5.17616c-0.23287,1.12751 4.22225,4.32775 10.83558,5.17666z" fill="#ffffff" fill-rule="nonzero" stroke="none" stroke-width="1" opacity="0.6"/><path d="M188.08024,196.7552c-3.91485,-0.16839 -6.49877,-0.51028 -6.44229,-4.11371c1.09119,1.53178 3.30493,2.53818 6.44229,4.11371z" fill="#ffffff" fill-rule="nonzero" stroke="none" stroke-width="1" opacity="0.6"/><path d="M206.00638,200.47137c-3.91485,-0.16839 -6.49877,-0.51028 -6.44229,-4.11371c1.09119,1.53178 3.30493,2.53818 6.44229,4.11371z" fill="#ffffff" fill-rule="nonzero" stroke="none" stroke-width="1" opacity="0.6"/><path d="M219.98687,207.79541c-1.94585,-2.27334 -2.5594,-2.86853 -1.18117,-6.36824c0.25776,2.40665 -0.2262,3.21948 1.18117,6.36824z" fill="#ffffff" fill-rule="nonzero" stroke="none" stroke-width="1" opacity="0.6"/><path d="M236.25079,203.58098c-2.48166,-0.1365 -4.11963,-0.41365 -4.08383,-3.33466c0.69172,1.24169 2.09503,2.0575 4.08383,3.33466z" fill="#ffffff" fill-rule="nonzero" stroke="none" stroke-width="1" opacity="0.6"/><path d="M248.79232,196.96167c-2.48166,-0.1365 -17.00883,0.80556 -16.62384,-3.85714c2.08505,2.80918 14.63551,2.57998 16.62384,3.85714z" fill="#ffffff" fill-rule="nonzero" stroke="none" stroke-width="1" opacity="0.6"/><path d="M226.75022,135.66127c0,-0.80804 1.52722,-1.46309 3.41115,-1.46309c1.88393,0 3.41115,0.65505 3.41115,1.46309c0,0.80804 -1.52722,1.46309 -3.41115,1.46309c-1.88393,0 -3.41115,-0.65505 -3.41115,-1.46309z" fill="#000000" fill-rule="evenodd" stroke="none" stroke-width="1" opacity="0.2"/><g stroke-width="1"><path d="M228.67745,131.21935c0.11693,-0.00163 0.23378,-0.00883 0.35069,-0.0033c0.83776,-0.00094 1.68844,0.13159 2.44782,0.49886c0.58394,0.27407 1.00022,0.83154 1.17603,1.44407c0.16978,0.59553 0.13382,1.257 -0.14129,1.81637c-0.38695,0.81558 -1.17801,1.38213 -2.02473,1.6471c-0.96617,0.29724 -2.0399,0.25234 -2.96683,-0.15818c-0.54459,-0.24412 -1.05203,-0.60938 -1.39109,-1.10698c-0.48175,-0.62081 -0.65508,-1.46447 -0.46514,-2.22656c0.13172,-0.57139 0.47116,-1.12324 1.00053,-1.4025c0.61903,-0.32944 1.32671,-0.42607 2.01399,-0.50878z" fill="#000000" fill-rule="evenodd" stroke="none"/><path d="M228.67745,131.21935c0.11693,-0.00163 0.23378,-0.00883 0.35069,-0.0033c0.83776,-0.00094 1.68844,0.13159 2.44782,0.49886c0.58394,0.27407 1.00022,0.83154 1.17603,1.44407c0.16978,0.59553 0.13382,1.257 -0.14129,1.81637c-0.38695,0.81558 -1.17801,1.38213 -2.02473,1.6471c-0.96617,0.29724 -2.0399,0.25234 -2.96683,-0.15818c-0.54459,-0.24412 -1.05203,-0.60938 -1.39109,-1.10698c-0.48175,-0.62081 -0.65508,-1.46447 -0.46514,-2.22656c0.13172,-0.57139 0.47116,-1.12324 1.00053,-1.4025c0.61903,-0.32944 1.32671,-0.42607 2.01399,-0.50878z" fill="#d40000" fill-rule="evenodd" stroke="none"/><path d="M227.65046,132.16499c0,-0.24315 0.61325,-0.44027 1.36973,-0.44027c0.75648,0 1.36973,0.19712 1.36973,0.44027c0,0.24315 -0.61325,0.44027 -1.36973,0.44027c-0.75648,0 -1.36973,-0.19712 -1.36973,-0.44027z" fill="url(#color-8)" fill-rule="evenodd" stroke="none" opacity="0.56967"/><path d="M229.02739,132.24339c-0.12962,-1.80113 2.15453,-4.3035 3.29512,-4.42404l0.01407,0.23913c-1.16792,-0.00074 -3.39159,2.10065 -3.30919,4.185z" fill="#000000" fill-rule="nonzero" stroke="#000000"/><path d="M229.17182,132.82664c-2.06676,0.15754 -3.01608,-0.55176 -1.84385,-1.06451c-0.6863,0.6576 0.58548,0.90732 1.84385,1.06451z" fill="#ffffff" fill-rule="nonzero" stroke="none" opacity="0.6"/><path d="M228.90148,136.5206c-1.62362,-0.03939 -3.22846,-1.56974 -3.02552,-3.35141c0.30137,0.2393 1.00537,0.18536 1.00537,0.18536c-0.06042,0.7629 1.07526,2.92794 2.0201,3.16606z" fill="url(#color-9)" fill-rule="nonzero" stroke="none" opacity="0.8"/></g><path d="M213.83304,166.16591c-2.87469,1.09184 -6.61421,0.25037 -6.75478,-1.83385c2.05235,1.87075 3.30691,1.94748 6.75478,1.83385z" fill="#ffffff" fill-rule="nonzero" stroke="none" stroke-width="1" opacity="0.6"/><g stroke-width="1"><path d="M228.67745,131.21935c0.11693,-0.00163 0.23378,-0.00883 0.35069,-0.0033c0.83776,-0.00094 1.68844,0.13159 2.44782,0.49886c0.58394,0.27407 1.00022,0.83154 1.17603,1.44407c0.16978,0.59553 0.13382,1.257 -0.14129,1.81637c-0.38695,0.81558 -1.17801,1.38213 -2.02473,1.6471c-0.96617,0.29724 -2.0399,0.25234 -2.96683,-0.15818c-0.54459,-0.24412 -1.05203,-0.60938 -1.39109,-1.10698c-0.48175,-0.62081 -0.65508,-1.46447 -0.46514,-2.22656c0.13172,-0.57139 0.47116,-1.12324 1.00053,-1.4025c0.61903,-0.32944 1.32671,-0.42607 2.01399,-0.50878z" fill="#000000" fill-rule="evenodd" stroke="none"/><path d="M228.67745,131.21935c0.11693,-0.00163 0.23378,-0.00883 0.35069,-0.0033c0.83776,-0.00094 1.68844,0.13159 2.44782,0.49886c0.58394,0.27407 1.00022,0.83154 1.17603,1.44407c0.16978,0.59553 0.13382,1.257 -0.14129,1.81637c-0.38695,0.81558 -1.17801,1.38213 -2.02473,1.6471c-0.96617,0.29724 -2.0399,0.25234 -2.96683,-0.15818c-0.54459,-0.24412 -1.05203,-0.60938 -1.39109,-1.10698c-0.48175,-0.62081 -0.65508,-1.46447 -0.46514,-2.22656c0.13172,-0.57139 0.47116,-1.12324 1.00053,-1.4025c0.61903,-0.32944 1.32671,-0.42607 2.01399,-0.50878z" fill="#d40000" fill-rule="evenodd" stroke="none"/><path d="M227.65046,132.16499c0,-0.24315 0.61325,-0.44027 1.36973,-0.44027c0.75648,0 1.36973,0.19712 1.36973,0.44027c0,0.24315 -0.61325,0.44027 -1.36973,0.44027c-0.75648,0 -1.36973,-0.19712 -1.36973,-0.44027z" fill="url(#color-10)" fill-rule="evenodd" stroke="none" opacity="0.56967"/><path d="M229.02739,132.24339c-0.12962,-1.80113 2.15453,-4.3035 3.29512,-4.42404l0.01407,0.23913c-1.16792,-0.00074 -3.39159,2.10065 -3.30919,4.185z" fill="#000000" fill-rule="nonzero" stroke="#000000"/><path d="M229.17182,132.82664c-2.06676,0.15754 -3.01608,-0.55176 -1.84385,-1.06451c-0.6863,0.6576 0.58548,0.90732 1.84385,1.06451z" fill="#ffffff" fill-rule="nonzero" stroke="none" opacity="0.6"/><path d="M228.90148,136.5206c-1.62362,-0.03939 -3.22846,-1.56974 -3.02552,-3.35141c0.30137,0.2393 1.00537,0.18536 1.00537,0.18536c-0.06042,0.7629 1.07526,2.92794 2.0201,3.16606z" fill="url(#color-11)" fill-rule="nonzero" stroke="none" opacity="0.8"/></g></g></g></svg>