<svg version="1.1" xmlns="http://www.w3.org/2000/svg" xmlns:xlink="http://www.w3.org/1999/xlink" width="135.493" height="132.30742" viewBox="0,0,135.493,132.30742"><g transform="translate(-172.2535,-113.84629)"><g data-paper-data="{&quot;isPaintingLayer&quot;:true}" fill-rule="nonzero" stroke="none" stroke-width="1" stroke-linecap="butt" stroke-linejoin="miter" stroke-miterlimit="10" stroke-dasharray="" stroke-dashoffset="0" style="mix-blend-mode: normal"><path d="M182.74022,206.20912c2.30703,-17.19456 17.07344,-30.50395 34.90548,-30.50395h30.26094c-0.50078,-1.15313 -0.95625,-2.32188 -1.35078,-3.53594c-0.53125,-1.57813 -0.78906,-3.23204 -0.78906,-4.90157c0,-1.25938 0.15156,-2.53438 0.45547,-3.79376c-3.62734,-2.39766 -7.34531,-5.46329 -10.83594,-8.95392c-5.32656,-5.34141 -9.62188,-11.12345 -12.09532,-16.31409c-3.70313,-7.7547 -2.18516,-11.67033 -0.25781,-13.59768c1.91172,-1.9125 5.84297,-3.42969 13.59766,0.25781c0.83466,0.39517 1.65473,0.82045 2.45859,1.275c0.04531,-6.45001 1.94219,-10.60783 5.53906,-11.9133c7.67969,-2.76172 16.8,9.91017 21.86797,23.87269c1.39688,3.83985 2.47422,7.75548 3.15703,11.44298c15.66172,1.88203 28.45548,12.03517 33.38751,26.95316c0.53125,1.57813 0.78906,3.23204 0.78906,4.90157c0,7.1172 -4.64375,13.76408 -11.21485,16.60237c1.62422,4.09766 2.44375,8.43829 2.44375,12.93049c0,5.34141 -1.19922,10.54689 -3.49063,15.28205h6.20703c5.49375,0 9.9711,4.47735 9.9711,9.97111c0,5.49376 -4.47734,9.97033 -9.9711,9.96955h-80.13049c-9.40938,0 -18.24141,-3.67266 -24.90391,-10.31955c-1.82109,-1.8211 -3.42969,-3.8086 -4.78047,-5.9336c-1.14558,0.35233 -2.3374,0.53139 -3.53594,0.53125c-6.70781,0 -12.1711,-5.46329 -12.1711,-12.17111c0,-6.1461 4.56797,-11.23048 10.48672,-12.05002z" data-paper-data="{&quot;index&quot;:null}" fill="#663333"/><path d="M182.43631,211.99272c0.13672,4.46173 1.09297,8.78673 2.80781,12.77814c-0.27601,0.04291 -0.55506,0.06329 -0.83438,0.06094c-3.62656,0 -6.5711,-2.94375 -6.5711,-6.5711c0,-2.92891 1.94297,-5.41798 4.59844,-6.26798zM188.02069,210.93022c0,-16.32971 13.27891,-29.62426 29.63907,-29.6391h34.81407c0.47109,0 0.97188,-0.12188 1.41172,-0.37969c1.32031,-0.78906 1.77578,-2.50469 0.98672,-3.83985c-1.22969,-2.07891 -2.24609,-4.32501 -3.02031,-6.67735c-0.33453,-1.01345 -0.50362,-2.07418 -0.50078,-3.14141c0,-1.33594 0.25781,-2.68672 0.75859,-4.02188c0.12109,-0.31875 0.18203,-0.65313 0.18203,-0.98672c0,-1.16123 -0.7195,-2.20096 -1.80625,-2.61016l0.03047,-0.04531c-3.70313,-2.29219 -7.55781,-5.40313 -11.2,-9.04533c-4.90156,-4.88673 -8.80156,-10.1383 -11.00235,-14.75158c-2.03359,-4.26485 -1.92734,-6.66251 -1.35078,-7.23907c0.57656,-0.57656 2.97422,-0.68281 7.23906,1.35078c2.00313,0.95625 4.12813,2.23125 6.28281,3.76407c0.04609,0.04531 0.10625,0.07578 0.16719,0.12109c2.77734,1.98828 5.6,4.40157 8.31641,7.11798c4.11328,4.11251 7.6336,8.62032 9.94063,12.70236c0.56172,1.00156 1.72969,1.59375 2.92891,1.38125c0.62266,-0.10625 2.26094,-0.18203 2.45859,-0.18203c7.69453,0 14.88828,2.20078 20.82188,6.37423c5.91875,4.1586 10.25938,10.06173 12.58125,17.07346c0.33453,1.01345 0.50362,2.07418 0.50078,3.14141c0,2.79297 -1.10781,5.52423 -2.88359,7.72501c-1.80625,2.18516 -4.325,3.83985 -7.13281,4.46173c-0.23173,0.04592 -0.45634,0.12237 -0.66797,0.22734c-1.38047,0.69844 -1.92734,2.38282 -1.22891,3.76407c2.10938,4.15782 3.17188,8.65001 3.17188,13.35471c0,5.91876 -1.74531,11.63986 -5.03828,16.52659c-0.86563,1.275 -0.53125,3.02032 0.75859,3.88516c0.48594,0.33438 1.03203,0.48594 1.56328,0.48594h11.03282c2.4132,0.00215 4.36894,1.9579 4.37109,4.3711c-0.00215,2.4132 -1.9579,4.36895 -4.37109,4.3711h-40.39845c0.65313,-1.32031 1.01719,-2.80782 1.01719,-4.3711c0,-5.49376 -4.47734,-9.97111 -9.9711,-9.97111h-9.86406v-1.94219c0,-10.91173 -8.87735,-19.77425 -19.77422,-19.77425h-3.70313c-1.54101,0.00258 -2.78961,1.25118 -2.79219,2.79219c0.00258,1.54101 1.25118,2.78961 2.79219,2.79219h3.70313c7.81563,0 14.17422,6.3586 14.17422,14.17424v4.75001c0.00258,1.54101 1.25118,2.78961 2.79219,2.79219h12.67188c2.4132,0.00215 4.36894,1.9579 4.37109,4.3711c-0.00215,2.4132 -1.9579,4.36895 -4.37109,4.3711h-30.79298c-7.90703,0 -15.34297,-3.08047 -20.94297,-8.68048c-1.96824,-1.97953 -3.65345,-4.22157 -5.00781,-6.66251c-0.04609,-0.09063 -3.65781,-7.34532 -3.65781,-14.28049z" data-paper-data="{&quot;index&quot;:null}" fill="#ffffff"/><path d="M217.63007,185.52628c1.54766,0 2.79219,1.24453 2.79219,2.79219c-0.00258,1.54101 -1.25118,2.78961 -2.79219,2.79219c-10.92735,0 -19.82032,8.89376 -19.82032,19.82034c-0.00258,1.54101 -1.25118,2.78961 -2.79219,2.79219c-1.54101,-0.00258 -2.78961,-1.25118 -2.79219,-2.79219c0,-14.02268 11.39688,-25.41957 25.40469,-25.40472z" data-paper-data="{&quot;index&quot;:null}" fill="#663333"/><path d="M261.20196,139.99809c1.12266,3.0961 2.01797,6.22188 2.65547,9.21173c-0.07578,0 -0.75859,0.01563 -1.03203,0.03047c-2.51875,-4.08282 -5.90313,-8.30157 -9.89453,-12.29299c-2.61016,-2.62578 -5.34219,-4.99298 -8.0586,-7.01173c-0.72891,-7.14767 0.75859,-10.13751 1.65391,-10.45626c1.91172,-0.68359 9.22656,5.44766 14.67578,20.51878z" data-paper-data="{&quot;index&quot;:null}" fill="#ffffff"/><path d="M284.05587,171.39657c0,1.88125 -1.51719,3.39922 -3.39922,3.39922c-1.87573,-0.00387 -3.39535,-1.52349 -3.39922,-3.39922c0.00387,-1.87573 1.52349,-3.39536 3.39922,-3.39922c1.88125,0 3.39922,1.51797 3.39922,3.39922z" data-paper-data="{&quot;index&quot;:null}" fill="#663333"/></g></g></svg>