<svg xmlns="http://www.w3.org/2000/svg" width="135.493" height="132.308" viewBox="0 0 173.431 169.354" xmlns:v="https://vecta.io/nano"><path d="M160.008 118.226c7.576 1.049 13.423 7.557 13.423 15.424 0 8.586-6.993 15.579-15.579 15.579a15.39 15.39 0 0 1-4.526-.68c-1.729 2.72-3.788 5.264-6.119 7.595-8.528 8.508-19.833 13.209-31.877 13.209H12.763C5.731 169.354 0 163.624 0 156.592s5.731-12.763 12.763-12.763h7.945c-2.933-6.061-4.468-12.724-4.468-19.561 0-5.75 1.049-11.306 3.128-16.551-8.411-3.633-14.355-12.141-14.355-21.251 0-2.137.33-4.254 1.01-6.274 6.313-19.095 22.689-32.091 42.736-34.5.874-4.72 2.253-9.732 4.041-14.647C59.287 13.173 70.961-3.047 80.791.488c4.604 1.671 7.032 6.993 7.09 15.249a48.94 48.94 0 0 1 3.147-1.632c9.926-4.72 14.958-2.778 17.405-.33 2.467 2.467 4.41 7.479-.33 17.405-3.166 6.644-8.664 14.045-15.482 20.882-4.468 4.468-9.227 8.392-13.87 11.461.389 1.612.583 3.244.583 4.856 0 2.137-.33 4.254-1.01 6.274-.505 1.554-1.088 3.05-1.729 4.526h38.734c22.825 0 41.726 17.036 44.679 39.045z" fill="#633"/><path d="M160.396 125.627c3.399 1.088 5.886 4.274 5.886 8.023 0 4.643-3.769 8.411-8.411 8.411a6.59 6.59 0 0 1-1.068-.078c2.195-5.109 3.419-10.645 3.594-16.356zm-7.148-1.359c0 8.877-4.623 18.163-4.682 18.279a38.78 38.78 0 0 1-6.41 8.528c-7.168 7.168-16.686 11.111-26.807 11.111H75.934a5.6 5.6 0 0 1-5.595-5.595 5.6 5.6 0 0 1 5.595-5.595h16.22a3.58 3.58 0 0 0 3.574-3.574v-6.08c0-10.004 8.139-18.143 18.143-18.143h4.74a3.58 3.58 0 0 0 3.574-3.574 3.58 3.58 0 0 0-3.574-3.574h-4.74c-13.948 0-25.311 11.344-25.311 25.311v2.486H75.934c-7.032 0-12.763 5.731-12.763 12.763 0 2.001.466 3.905 1.302 5.595h-51.71a5.6 5.6 0 0 1-5.595-5.595 5.6 5.6 0 0 1 5.595-5.595h14.122c.68 0 1.379-.194 2.001-.622 1.651-1.107 2.079-3.341.971-4.973-4.215-6.255-6.449-13.578-6.449-21.154 0-6.022 1.36-11.772 4.06-17.094.894-1.768.194-3.924-1.573-4.818a3.42 3.42 0 0 0-.855-.291c-3.594-.796-6.818-2.914-9.13-5.711-2.273-2.817-3.691-6.313-3.691-9.888a12.72 12.72 0 0 1 .641-4.021c2.972-8.975 8.528-16.531 16.104-21.854 7.595-5.342 16.803-8.159 26.652-8.159.253 0 2.35.097 3.147.233 1.535.272 3.03-.486 3.749-1.768 2.953-5.225 7.459-10.995 12.724-16.259 3.477-3.477 7.09-6.566 10.645-9.111.078-.058.155-.097.214-.155 2.758-1.962 5.478-3.594 8.042-4.818 5.459-2.603 8.528-2.467 9.266-1.729s.874 3.807-1.729 9.266c-2.817 5.905-7.809 12.627-14.083 18.882-4.662 4.662-9.596 8.644-14.336 11.578l.039.058a3.57 3.57 0 0 0-2.312 3.341c0 .427.078.855.233 1.263.641 1.709.971 3.438.971 5.148a12.72 12.72 0 0 1-.641 4.021c-.991 3.011-2.292 5.886-3.866 8.547-1.01 1.709-.427 3.905 1.263 4.915.563.33 1.204.486 1.807.486h44.562c20.941.019 37.938 17.036 37.938 37.938z" fill="#fff"/><path d="M147.867 124.268a3.58 3.58 0 0 1-3.574 3.574 3.58 3.58 0 0 1-3.574-3.574c0-13.986-11.383-25.37-25.37-25.37a3.58 3.58 0 0 1-3.574-3.574c0-1.981 1.593-3.574 3.574-3.574 17.93-.019 32.518 14.569 32.518 32.518z" fill="#633"/><path d="M78.362 7.21c1.146.408 3.05 4.235 2.117 13.384-3.477 2.584-6.974 5.614-10.315 8.975-5.109 5.109-9.441 10.509-12.665 15.735-.35-.019-1.224-.039-1.321-.039.816-3.827 1.962-7.828 3.399-11.791C66.552 14.183 75.915 6.335 78.362 7.21z" fill="#fff"/><path d="M34.675 69.313a4.36 4.36 0 0 1 4.351 4.351 4.36 4.36 0 0 1-4.351 4.351c-2.409 0-4.351-1.943-4.351-4.351s1.943-4.351 4.351-4.351z" fill="#633"/></svg>