<svg xmlns="http://www.w3.org/2000/svg" width="134.792" height="130.147" viewBox="0 0 10.783 10.412" xmlns:v="https://vecta.io/nano"><path d="M4.59.058c1.26-.244 2.698.325 3.836.988s1.534 1.202 1.835 1.803a5.609 5.609 0 0 1 .511 2.718c-.074 1.064-.463 1.771-.937 2.622a3.56 3.56 0 0 1-1.873 1.679c-.857.369-1.508.731-2.961.437s-2.872-.863-3.53-1.508S.161 7.475.025 5.691.332 3.403.682 2.842A7.235 7.235 0 0 1 2.397.945C3.21.32 3.867.198 4.59.058z" fill="#1d1d1b"/><path d="M2.273 1.466c-.038-.01-.032-.082.018-.126A3.291 3.291 0 0 1 3.475.659 4.076 4.076 0 0 1 4.39.432s-.082.12.018.144.2.044.232 0-.018-.162.012-.168a4.287 4.287 0 0 1 1.584.144 11.039 11.039 0 0 1 2.047.781c.162.082.325.2.294.22a3.78 3.78 0 0 1-.533 0c-.126 0-.707-.162-1.228-.05s-.825.23-1.348.25a6.088 6.088 0 0 1-1.114-.108l-1.258-.142c-.294 0-.775-.026-.825-.038z" fill="#acb284"/><path d="M1.614 2.001a3.666 3.666 0 0 1 .539-.212 8.413 8.413 0 0 1 1.446.1c.901.112 1.034.226 1.903.126s1.184-.282 1.59-.276.976.144 1.34.144l.531-.026a2.416 2.416 0 0 1 .757.821c.256.457.088.351.038.351H9.47a5.939 5.939 0 0 0-.401-.577c-.044-.012-.174.02-.168.038s.419.539.381.557a1.803 1.803 0 0 1-.369.026c-.024 0-.383-.615-.425-.615s-.15.026-.144.058.351.587.318.581-.168.026-.2 0-.318-.495-.363-.517-.182 0-.168.044a4.723 4.723 0 0 1 .25.457c-.026.018-.501-.1-1.016-.2a2.123 2.123 0 0 0-1.102-.044c-.513.088-.631.262-1.803.294s-1.27-.218-2.203.062a8.451 8.451 0 0 0-1.202.457c-.108.02-.214.064-.22.02a4.765 4.765 0 0 1 .978-1.669z" fill="#ddc07c"/><path d="M.52 4.004a2.229 2.229 0 0 0 .865-.266 3.439 3.439 0 0 1 1.603-.375c.601 0 .769.25 1.871 0s1.534-.361 2.171-.244.837.331 1.703.268l1.226-.118a3.005 3.005 0 0 1 .226.757c-.038.018-.515.038-.621.056l-.244.05a3.806 3.806 0 0 0-.413-.445c-.044 0-.156.082-.138.106s.427.365.377.389a2.242 2.242 0 0 1-.27.076 4.161 4.161 0 0 0-.469-.477c-.056 0-.118.056-.112.082s.463.437.431.463a1.655 1.655 0 0 1-.381.106c-.02-.012-.226-.363-.327-.363s-.144.038-.13.062.256.363.224.369a1.084 1.084 0 0 1-.589-.074 2.752 2.752 0 0 0-1.114-.168c-.312.036-.663.15-1.526.531s-1.084.457-2.003.421-1.058-.12-1.566.036l-.964.327a3.656 3.656 0 0 1-.024-.857 2.117 2.117 0 0 1 .194-.711z" fill="#acb284"/><path d="M.444 5.903a2.636 2.636 0 0 1 1.42-.469c.733 0 .978.218 2.097-.024s1.847-.745 2.518-.789 1.176.28 1.659.218 1.32-.369 1.576-.401.571-.056.589 0a2.698 2.698 0 0 1 .05 1.228c-.112.725-.318 1.264-.377 1.302a2.041 2.041 0 0 1-.387.1c-.044 0-.032.056-.088 0l-.901-.964c-.05.008-.156.056-.118.118s.851.857.801.875a1.825 1.825 0 0 1-.501-.012c-.044-.024-.495-.601-.545-.601s-.126.026-.112.068.413.489.381.509a1.727 1.727 0 0 1-.831-.232c-.345-.2-.777-.507-1.402-.495s-.801.244-1.532.232-1.378-.3-2.33-.294a6.811 6.811 0 0 0-1.382.094c-.132.024-.401.18-.439.162a2.664 2.664 0 0 1-.146-.627z" fill="#ddc07c"/><path d="M.67 6.774a4.279 4.279 0 0 1 1.689-.188c.972.062 1.152.363 2.274.306l1.947-.144c.345.024 1.158.601 1.989.683s1.246-.018 1.24.05a4.553 4.553 0 0 1-.238.513l-1.246.1c-.565.056-.543.1-.781.07a3.726 3.726 0 0 0-1.258-.1 12.676 12.676 0 0 1-1.603.106c-.851.012-1.202-.294-1.923-.156a4.175 4.175 0 0 0-1.094.375c-.076 0-.333-.306-.615-.707a2.171 2.171 0 0 1-.381-.907z" fill="#acb284"/><path d="M3.188 1.26a.096.096 0 0 0-.106-.138c-.138.012-.17.112-.132.15s.198.068.238-.012zm1.31-.22c-.12.014-.148.114-.114.15s.18.07.2-.012-.018-.146-.094-.138zm.675.088c.028-.082-.016-.146-.092-.138-.12.014-.148.114-.116.15s.172.07.2-.012zM3.933.939c.028-.08-.016-.144-.092-.136-.12.012-.148.112-.114.15s.172.068.198-.014zm.565.445c-.12.012-.148.112-.114.15s.18.07.2-.012-.018-.146-.094-.138zM5.512.727c.026-.082-.016-.146-.094-.138-.12.014-.146.114-.114.15s.172.07.2-.012zm-.164.813c.032.038.18.07.2-.012s-.016-.146-.094-.138c-.12.01-.146.114-.114.15zm.631-.14c.028-.082-.016-.146-.092-.138-.12.012-.148.112-.114.15s.18.072.206-.012zm.156-.483c.028-.082-.016-.146-.092-.138-.12.012-.148.112-.114.15s.18.07.206-.008zm.377.345c.026-.082-.016-.146-.094-.138-.12.012-.146.112-.114.15s.18.072.208-.008zm.531-.126c.028-.08-.016-.144-.092-.136-.12.012-.148.112-.114.15s.18.072.206-.01zm-4.339 1.25c.156-.044.357 0 .689-.044a2.836 2.836 0 0 0 .613-.106c.012-.018 0-.024-.05-.068s-.2 0-.689.024h-.651a.158.158 0 0 0-.092.226c.036.03.024.012.18-.032zm2.56.2c.232-.03.515-.03.557-.044s0-.068-.042-.124-.114-.018-.401 0-.401-.028-.415 0-.074.156-.042.2.112.006.343-.016zM1.107 4.733a1.867 1.867 0 0 1 .078-.529c0-.032-.172-.038-.188 0a2.159 2.159 0 0 0-.068.964c.024.03.168-.026.212-.062s-.02-.1-.034-.373zm1.354-.801c.028-.08-.016-.146-.092-.138-.12.014-.148.114-.116.15s.18.076.208-.006zm.833-.074c.026-.082-.016-.146-.094-.138-.12.012-.146.112-.114.15s.18.074.208-.006zm-.957.469c-.12.012-.148.112-.114.15s.18.068.2-.012-.01-.14-.086-.132zm-.495.539c.026-.082-.016-.146-.094-.138-.12.012-.146.112-.114.15s.18.074.208-.006zm1.502-.451c.026-.082-.016-.146-.094-.138-.12.012-.146.112-.114.15s.18.074.208-.006zM3 4.865c.026-.082-.016-.146-.094-.138-.12.012-.146.112-.114.15s.18.074.208-.006zm.687.03c.032.038.18.07.2-.012s-.016-.146-.094-.138c-.112.02-.138.12-.106.156zm.174-.487c.034.036.18.068.2-.014s-.016-.144-.092-.136c-.112.018-.14.118-.108.156zm-2.095-.204c.028-.082-.016-.146-.092-.138-.12.012-.148.112-.116.15s.18.072.208-.012zm2.522-.276c.028-.082-.016-.146-.092-.138-.12.014-.148.114-.114.15s.18.074.206-.008zm.158.651c-.12.012-.148.112-.114.15s.18.068.2-.012-.01-.142-.086-.134zm.531-.439c.028-.08-.016-.144-.092-.136-.12.012-.148.112-.114.15s.18.072.206-.01zm.353.044c-.12.012-.148.112-.116.15s.18.07.2-.012-.008-.142-.084-.134zm.024-.651c-.12.012-.146.112-.114.15s.18.07.2-.012-.008-.142-.086-.134zm.775.521c.028-.082-.016-.146-.092-.138-.12.012-.148.112-.114.15s.18.072.206-.008zm-.024-.489c.026-.082-.016-.146-.094-.138-.12.012-.146.112-.114.15s.18.072.208-.008zm.801.024c.026-.08-.016-.144-.094-.136-.12.012-.146.112-.114.15s.186.072.214 0zm.419.465c.028-.082-.016-.146-.092-.138-.12.012-.148.112-.114.15s.186.072.212-.008zm.489-.365c.028-.08-.016-.144-.092-.136-.12.012-.148.112-.116.15s.19.072.214-.01zm1.871.2c.028-.08-.016-.144-.092-.136-.12.012-.148.112-.114.15s.186.078.212-.004zM4.262 6.079c-.044-.044-.118.018-.507 0a2.432 2.432 0 0 1-.707-.132s-.05.1 0 .144a2.464 2.464 0 0 0 .769.144 2.404 2.404 0 0 0 .509 0c.1-.018-.02-.112-.064-.156zm3.299-.739a5.595 5.595 0 0 1-.645-.05 6.584 6.584 0 0 0-1.146.112c-.03.014 0 .17 0 .17s.12 0 .545-.062a3.522 3.522 0 0 1 .733 0 4.938 4.938 0 0 0 .557.02c.062-.04.012-.208-.044-.19zm-.525.757c.044-.018.024-.1.03-.144s-.2-.03-.475-.03-.655-.034-.683-.02-.038.176.012.2a2.48 2.48 0 0 0 .577-.012c.244-.018.497.026.539.006zm1.871-.491a.341.341 0 0 0-.1.15 11.644 11.644 0 0 0 1.046.945c.056.02.032-.03.068-.08s-.978-.984-1.014-1.016zm.369-.325c-.042 0-.094.072-.08.106a7.464 7.464 0 0 0 .869.707c.038 0 .032-.044.032-.106a5.507 5.507 0 0 0-.821-.711zm.939-.2c0-.05-.451-.347-.451-.288 0 .012-.1.094-.106.132a2.203 2.203 0 0 0 .541.258c.028 0 .016-.056.016-.106zM1.153 6.985c-.12.012-.146.112-.114.15s.18.068.2-.012-.008-.15-.086-.142zm.433.479c.028-.082-.016-.146-.092-.138-.12.012-.148.112-.114.15s.172.068.206-.012zm.391 0c-.12.012-.148.112-.116.15s.18.068.2-.014-.016-.144-.092-.136zm.048-.545c.028-.082-.016-.146-.092-.138-.12.012-.148.112-.116.15s.17.078.2-.012zm.22.825c-.12.012-.148.112-.114.15s.18.07.2-.012-.018-.146-.094-.138zm.469-.306c-.12.012-.146.112-.114.15s.18.068.2-.012-.012-.146-.094-.138zm-.07-.463c.028-.082-.016-.146-.092-.138-.12.012-.148.112-.114.15s.172.068.198-.012zm.401.375c-.12.014-.148.114-.114.15s.18.07.2-.012-.01-.146-.086-.138zm.383-.294c-.12.014-.148.114-.116.15s.18.07.2-.012-.008-.146-.084-.138zm.2.689c-.12.012-.148.112-.116.15s.18.07.2-.012-.008-.146-.084-.138zm.312-.563c-.12.012-.148.112-.114.15s.18.068.2-.012-.01-.146-.086-.138zm.288.312c-.12.012-.148.112-.116.15s.18.07.2-.012-.008-.146-.084-.138zm.631-.212c.026-.082-.016-.146-.094-.138-.12.012-.146.112-.114.15s.18.07.208-.012zm-.701.539c-.12.012-.146.112-.114.15s.18.068.2-.014-.008-.146-.086-.136zm.651.05c-.12.012-.146.112-.114.15s.18.068.2-.014-.008-.144-.086-.136zm.17-.26c-.12.012-.148.112-.116.15s.18.068.2-.014-.008-.136-.084-.136zm.268-.371c-.12.012-.148.112-.114.15s.18.07.2-.012-.01-.142-.086-.134zm.333.601c-.12.012-.148.112-.116.15s.18.07.2-.012-.008-.142-.084-.134zm.256-.3c-.12.012-.148.112-.114.15s.18.07.2-.012-.01-.142-.086-.134zm.08-.563c-.12.012-.146.112-.114.15s.18.068.2-.012-.01-.142-.086-.134zm.294.663c-.12.012-.146.112-.114.15s.18.07.2-.012-.008-.142-.086-.134zm.401-.331c.026-.082-.016-.146-.094-.138-.12.012-.146.112-.114.15s.174.072.202-.008zm.02.2c-.12.014-.148.114-.116.15s.18.07.2-.012-.014-.15-.09-.142zm.419-.3c-.12.014-.148.114-.114.15s.18.07.2-.012-.01-.15-.086-.138zm-.162.577c-.12.012-.148.112-.114.15s.18.068.2-.012-.01-.15-.086-.142zm.445-.032c-.12.014-.148.114-.116.15s.18.07.2-.012-.008-.15-.084-.142zm.501-.124c-.12.012-.148.112-.116.15s.18.068.2-.012-.008-.158-.084-.142zm-6.21.268c-.12.012-.148.112-.116.15s.18.07.2-.012-.008-.15-.084-.142z" fill="#1d1d1b"/><path d="M1.946 8.611s.719-.3 1.078-.3.519.3 1.502.25l2.284-.176c.445.056.306.212 1.002.188s1.334-.182 1.334-.144-.421.557-.421.557a3.706 3.706 0 0 0-.369-.294c-.032 0-.126.062-.106.088s.375.3.351.325a1.701 1.701 0 0 1-.345.22l-.419-.507c-.036-.012-.144.03-.144.05s.475.513.437.545-.05.036-.074.03-.118-.162-.168-.168a.813.813 0 0 0-.158.012 3.443 3.443 0 0 0-.375-.357c-.05-.012-.126 0-.112.044s.306.375.268.375a1.49 1.49 0 0 1-.25 0c-.03-.008-.266-.337-.331-.337s-.138 0-.138.026a3.55 3.55 0 0 0 .168.318 4.683 4.683 0 0 0-1.114-.088l-.984.088c-.288 0-.469-.012-.625 0a2.354 2.354 0 0 0-.371.05 1.963 1.963 0 0 1-.306.056 4.048 4.048 0 0 1-1.615-.851z" fill="#ddc07c"/><path d="M4.356 9.697a3.758 3.758 0 0 1 1.128-.124c.601.036.675.118 1.138.13l.739.026a3.153 3.153 0 0 1-1.02.312 4.365 4.365 0 0 1-1.308-.074 4.165 4.165 0 0 1-.677-.27z" fill="#acb284"/></svg>