<svg width="87.5" height="140" viewBox="0 0 112 179.2" class="prefix__icon" xmlns="http://www.w3.org/2000/svg"><path d="M5.6 56a50.4 56 0 10100.8 0A50.4 56 0 105.6 56z" fill="#eaca44"/><path d="M56 11.2c21.61 0 39.2 20.098 39.2 44.8 0 24.702-17.59 44.8-39.2 44.8-21.61 0-39.2-20.098-39.2-44.8 0-24.702 17.59-44.8 39.2-44.8M56 0C28.162 0 5.6 25.077 5.6 56s22.562 56 50.4 56c27.838 0 50.4-25.077 50.4-56S83.838 0 56 0zm50.4 112H5.6c0 21.935 14.04 40.544 33.6 47.471V173.6a5.6 5.6 0 005.6 5.6h22.4a5.6 5.6 0 005.6-5.6v-14.129c19.56-6.927 33.6-25.536 33.6-47.471z" fill="#eaeaea"/><path d="M112 106.4a5.6 5.6 0 01-5.6 5.6H5.6a5.6 5.6 0 110-11.2h100.8a5.6 5.6 0 015.6 5.6z" fill="#434854"/><path d="M56 151.2a61.477 61.477 0 01-47.471-22.344A50.523 50.523 0 0039.2 159.471V173.6a5.6 5.6 0 005.6 5.6h22.4a5.6 5.6 0 005.6-5.6v-14.129a50.523 50.523 0 0030.671-30.615A61.477 61.477 0 0156 151.2zm50.053-33.6c.207-1.842.347-3.702.347-5.6H5.6c0 1.898.14 3.758.347 5.6z"/></svg>