<svg width="140" height="132.795" xmlns="http://www.w3.org/2000/svg"><switch transform="matrix(.20397 0 0 .20397 -.003 .006)"><g><path d="M136.2 624c-8.9 7.3-17.8 14.7-26.7 22-2.6 2.1.3 5.4 2.9 5 12.2-2 24.1-5 35.7-9.2 1.9-.7 3.2-3.5 1.3-5-3.5-2.9-6.2-6.2-8.3-10.3-1-1.9-4.2-2-5.2 0-2.6 5.5-6.5 9.4-12 12-2.9 1.4-1.2 5.5 1.5 5.6 6.8.3 12.9-3.1 16.1-9.1-1.6.2-3.1.4-4.7.6 1.7 1.5 3.5 3 5.2 4.5 1.2-1.6 2.4-3.1 3.6-4.7-3.4-2.1-6.9-7.4-3.3-10.8 2.8-2.7-1.4-6.9-4.2-4.2-6.6 6.3-2.1 16 4.5 20.2 2.9 1.8 6.2-2.5 3.6-4.7-1.7-1.5-3.5-3-5.2-4.5-1.4-1.2-3.7-1.2-4.7.6-2.3 4.2-6.2 6.4-11 6.1.5 1.9 1 3.7 1.5 5.6 6.3-3 11.1-7.9 14.1-14.2h-5.2c2.3 4.5 5.3 8.3 9.2 11.5.4-1.7.9-3.3 1.3-5-11.6 4.2-23.5 7.3-35.7 9.2 1 1.7 1.9 3.3 2.9 5 8.9-7.3 17.8-14.7 26.7-22 3.3-2.5-.9-6.7-3.9-4.2z"/><linearGradient id="prefix__a" y2="830.17" gradientUnits="userSpaceOnUse" x2="322.53" gradientTransform="matrix(-.4518 .2536 -.2498 -.4452 399.57 731.64)" y1="830.17" x1="1.162"><stop stop-color="#2DA6DC" offset=".048"/><stop stop-color="#91E7FF" offset=".439"/><stop stop-color="#fff" stop-opacity=".6" offset=".989"/></linearGradient><path d="M74.3 463.9c-3.3-.3-6.6-.9-9.7-2-11.8-4.3-19.5-16.5-20.5-29s3.8-25 11.1-35.3c11.8-16.6 29.9-28.2 49.1-35.3 19.2-7.1 39.6-10 59.9-12 2.8-.3 5.9-.5 8.4.8 1.5.8 2.6 2 3.8 3.1 4.8 4.7 10.5 8.3 16.8 10.7-6.4 17.2-12.9 34.7-24.3 49.2-6.2 7.9-13.8 14.7-21.6 21-21 16.9-46.4 31.3-73 28.8z" fill="url(#prefix__a)"/><path d="M74.3 462.4c-21.6-2.3-32-22.3-27.7-42.5 4-18.8 18.8-34.1 34.4-44.3 16.2-10.6 35.2-16.3 54.1-19.8 10.6-2 21.7-3.7 32.5-4.1 5.2-.2 9.1 5.3 13 8.3 3.7 2.8 7.8 4.8 12.1 6.6-.4-.6-.7-1.3-1.1-1.9-4.7 12.8-9.6 25.6-16.5 37.5-7.1 12.2-16.9 22-27.7 30.9-20.4 16.8-45.6 31.4-73.1 29.3-2-.2-2 2.9 0 3.1 27.8 2.2 52.9-12.4 73.9-29.1 11.2-8.9 21.2-19 28.7-31.2 7.6-12.3 12.6-26.1 17.7-39.7.3-.9-.4-1.6-1.1-1.9-5.5-2.2-10.4-5.3-14.9-9.2-3.7-3.2-5.9-5.5-11-5.8-5.9-.3-12.4 1.1-18.2 1.9-5.7.7-11.3 1.6-16.9 2.6-21.8 4-43.1 11.6-60.7 25.2-15.9 12.2-28.9 30.5-29.4 51.2-.2 8.9 3.1 17.4 8.5 24.3 5.8 7.4 14.3 10.6 23.4 11.6 2 .3 2-2.8 0-3z" fill="#b3b3b3"/><linearGradient id="prefix__b" y2="423.48" gradientUnits="userSpaceOnUse" x2="-521.89" gradientTransform="matrix(.348 .3838 -.3782 .3428 861.71 546.94)" y1="423.48" x1="-843.26"><stop stop-color="#2DA6DC" offset=".048"/><stop stop-color="#91E7FF" offset=".439"/><stop stop-color="#fff" stop-opacity=".6" offset=".989"/></linearGradient><path d="M533.3 460.1c.4 3.3.6 6.6.2 9.9-1.5 12.5-11.7 22.7-23.7 26.5-11.9 3.8-25.2 1.9-36.9-3-18.9-7.8-34.2-22.8-45.3-39.9-11.2-17.1-18.5-36.4-25-55.8-.9-2.7-1.8-5.6-1.1-8.3.4-1.6 1.4-3 2.2-4.4a48.2 48.2 0 006.7-18.8c18.2 2.4 36.8 4.8 53.4 12.8 9.1 4.3 17.4 10.2 25.3 16.4 21 16.6 40.6 38.2 44.2 64.6z" fill="url(#prefix__b)"/><path d="M531.7 460.1c1.1 9.6-.8 18-7.3 25.3-6.7 7.6-16.5 11-26.3 11.5-19.8 1-38.7-10.4-52.5-23.7-13.8-13.2-23.4-30.1-31-47.5-4.3-9.8-7.9-19.9-11.1-30-2-6.2 2.2-10.5 4.6-15.8 1.9-4.2 3.1-8.7 3.8-13.2-.5.4-1 .8-1.5 1.1 14 1.8 28 3.8 41.4 8.1 14.4 4.6 26.9 13.1 38.6 22.6 19.6 15.8 37.6 36.2 41.3 61.9.3 2 3.3 1.1 3-.8-3.9-26.8-23-47.9-43.3-64.3-11.3-9.1-23.3-16.9-37.1-21.8-14.1-5-29.2-6.9-43.9-8.8-.6-.1-1.4.5-1.5 1.1-1 6-2.8 11.6-5.7 17-2.3 4.3-4 7-3.1 12 1 5.7 3.8 11.5 5.7 16.9 1.9 5.2 4 10.4 6.1 15.5 8.6 20.2 20.5 39.1 37.3 53.4 15.3 13 35.7 21.9 56 18.5 9.1-1.5 17.4-6.7 23.2-13.8 5.9-7.3 7.4-16.2 6.3-25.3-.1-1.8-3.2-1.8-3 .1z" fill="#b3b3b3"/><linearGradient id="prefix__c" y2="277.75" gradientUnits="userSpaceOnUse" x2="735.53" gradientTransform="matrix(.787 -.13 .1281 .7755 27.76 184.13)" y1="277.75" x1="414.16"><stop stop-color="#2DA6DC" offset=".048"/><stop stop-color="#91E7FF" offset=".439"/><stop stop-color="#fff" stop-opacity=".6" offset=".989"/></linearGradient><path d="M612.3 260.3c4.6 2.2 9.1 4.7 13 8 14.8 12.4 19.6 34.1 14.5 52.7-5.1 18.6-18.6 34.1-34.6 45.2-25.8 17.9-58 25.2-89.5 25.3-31.5.1-62.6-6.4-93-14.2-4.2-1.1-8.7-2.3-11.7-5.6-1.7-1.9-2.7-4.2-3.8-6.5-4.5-9.3-10.9-17.6-18.7-24.3 18.3-21.6 36.9-43.5 61.1-58.4 13.2-8.1 27.7-14 42.3-19 39-13.3 83.3-20.7 120.4-3.2z" fill="url(#prefix__c)"/><path d="M611.1 262.3c12.9 6.2 22.1 15.4 26.3 29.2 3.9 12.7 2.1 26.5-3.3 38.4-11.6 25.7-38.2 42.2-64 50.8-28.6 9.5-59.3 9.8-88.9 6.1-16.4-2.1-32.5-5.6-48.5-9.5-6.5-1.6-15-2.4-20-7.3-2.3-2.2-3.5-6.1-4.9-8.9-1.8-3.4-3.9-6.5-6.1-9.6-3.3-4.5-7.2-8.6-11.5-12.4v3.4c13.1-15.4 26.2-30.8 41.6-44.1 16.9-14.6 36.5-24.2 57.4-31.6 38.4-13.5 83.2-22.3 121.9-4.5 2.8 1.3 5.2-2.8 2.4-4.1-39.5-18.2-84.4-10-123.9 3.6-20.7 7.1-40 16.4-57.2 30.1-17.2 13.7-31.4 30.7-45.6 47.4-.8.9-1 2.5 0 3.4 5.2 4.6 9.7 9.7 13.5 15.4 3.6 5.3 5.4 12 10 16.5 3.9 3.8 10.3 4.8 15.4 6.1 8.1 2 16.2 3.9 24.4 5.7 29.8 6.3 60.5 9.8 90.8 5.9 26.6-3.5 52.6-13 73.4-30 18.6-15.2 32.5-38.6 29.2-63.4-2.5-18.7-13.3-32.4-30.2-40.6-2.6-1.4-5 2.7-2.2 4z" fill="#b3b3b3"/><linearGradient id="prefix__d" y2="276.27" gradientUnits="userSpaceOnUse" x2="245.68" gradientTransform="matrix(-.6386 -.3916 .4072 -.664 57.863 508.37)" y1="276.27" x1="-75.684"><stop stop-color="#2DA6DC" offset=".048"/><stop stop-color="#91E7FF" offset=".439"/><stop stop-color="#fff" stop-opacity=".6" offset=".989"/></linearGradient><path d="M6.6 280.2c-1.9-4.5-3.4-9.2-4-14.1-2.5-18.6 8.1-37.9 23.6-48.7 15.5-10.9 35-14.1 53.4-12.5 29.7 2.6 57.1 17.1 79.4 36.6 22.3 19.5 40 43.7 56.6 68.5 2.3 3.5 4.7 7.2 4.7 11.4 0 2.5-.8 4.9-1.5 7.3-2.8 9.8-3.6 20-2.4 30-26.7 4.9-54 9.8-80.6 6.1-14.5-2.1-28.5-6.7-42.1-12-36.2-14.4-72.2-36.3-87.1-72.6z" fill="url(#prefix__d)"/><path d="M8.8 279.6c-5.6-14-5.5-27.5 1.4-41 6.5-12.6 18-21.6 31.1-26.8 26.7-10.5 57.6-4.1 82.5 8.3 25.8 12.9 46.7 33.5 64.5 55.8 9.3 11.7 17.9 24 26.1 36.4 2.5 3.8 4 7.4 3.1 12-.7 3.7-2 7.3-2.7 11-1.5 7.6-1.6 15.5-.8 23.2.6-.7 1.1-1.5 1.7-2.2-22 4-44.1 8-66.6 7.2-21.8-.8-42.8-7.9-62.7-16.4-32.3-13.7-63.8-34.7-77.9-68.1-1.1-2.7-5.1-.4-4 2.3C19.2 316 52 337.5 85.4 351.8c19.7 8.4 40.2 15 61.7 16.3 23.4 1.4 46.8-3 69.7-7.2.9-.2 1.8-1.3 1.7-2.2-.8-8-.5-15.9 1-23.8 1.4-7.1 4.3-12.9 1.4-20.1-2.4-5.8-6.8-11-10.3-16.1-4.3-6.3-8.7-12.4-13.3-18.5-16.7-22.2-36-42.5-59.7-57.4-22.5-14.1-49.4-22.5-76.1-20.1-25.1 2.3-48.1 16-58 39.7-5.3 12.7-4.2 26 .9 38.5 1 2.6 5.5 1.4 4.4-1.3z" fill="#b3b3b3"/><linearGradient id="prefix__e" y2="450.31" gradientUnits="userSpaceOnUse" x2="424.94" y1="450.31" x1="141.51"><stop stop-color="#FAFFEC" offset="0"/><stop stop-color="#FAFEE3" offset=".037"/><stop stop-color="#FAFCC9" offset=".097"/><stop stop-color="#FBF9A0" offset=".175"/><stop stop-color="#FBF466" offset=".267"/><stop stop-color="#FCEE21" offset=".364"/><stop stop-color="#FCEE21" offset=".866"/></linearGradient><path d="M293.1 262.4c-25 2.7-47.7 16.3-65.2 33.8-17.5 17.5-30.6 38.9-42.7 60.4-10.2 17.9-20 36.5-24.1 56.6-6.8 33.5 2.7 67.8 4 102 1.2 33.3-5.6 66.8-19.7 97-3.4 7.2-6.5 17-.1 21.8 1.7 1.3 3.9 1.9 6 2.4 23.2 5.4 48 1 69.9-8.1 21.9-9.1 41.6-22.9 60.6-36.9 46.8-34.6 92.4-73.3 119.8-124 27.4-50.7 33.6-115.7 2.1-164.1-4.7-7.2-10.2-14-17.3-18.8-7.5-5.2-16.4-7.9-25.2-10.6-22.1-7-45-13.9-68.1-11.5z" fill="url(#prefix__e)"/><path d="M293.1 259.4c-58.5 6.8-92.3 61.1-117.6 108.4-7 13-13 26.6-16.6 41-3.7 14.9-3.8 30.4-2.8 45.6 1.1 15.9 3.6 31.6 5 47.4 1.4 15.3 1.3 30.6-.5 45.9-1.8 15.4-5.5 30.5-10.7 45.1-2.4 6.9-5.5 13.6-8.4 20.3-2 4.7-3.9 10.3-2.9 15.4 2.5 12.6 20 12.6 30.1 13 14.6.6 29.2-2.2 43-6.7 27.9-9.1 52.2-26.7 75.4-44 22.2-16.6 43.9-34 63.7-53.4 38.4-37.6 68.6-83.9 75.5-138 3.3-25.6.6-52.1-9.1-76.1-4.7-11.7-11.1-22.9-19.4-32.4-9.1-10.5-21.5-15.4-34.4-19.5-22.5-7.1-46.1-14.3-70.3-12-3.8.4-3.9 6.4 0 6 16.1-1.5 31.9 1.2 47.4 5.3 14.3 3.8 30.2 7.5 43 15.3 11.7 7.2 19.5 20.4 25.4 32.4 5.8 11.9 9.4 24.8 11.5 37.8 8.6 55.2-15.2 109.5-49.8 151.2-17.8 21.5-38.6 40.4-60.2 58-22.6 18.3-46.1 36.5-71.5 50.8-26.5 14.8-58.2 24.3-88.4 16.8-8.2-2-6-10.4-3.8-16.3 2.6-7 6-13.6 8.6-20.6 5.3-14.2 8.8-29 10.9-44 4.1-29.1.1-57.4-2.9-86.3-1.6-15.4-2.4-30.9-.2-46.3 2.1-14.8 7.8-28.8 14.4-42.2 12.6-25.5 27.6-51.3 46.6-72.6 17.9-20.1 42-36.2 69.2-39.3 3.6-.4 3.6-6.4-.2-6z"/><ellipse rx="56.8" cy="177.5" ry="56.1" stroke="#999" cx="401.5" stroke-miterlimit="10" fill="#fff"/><linearGradient id="prefix__f" y2="65.573" gradientUnits="userSpaceOnUse" x2="254.64" y1="306.7" x1="393.85"><stop stop-color="#FAFFEC" offset="0"/><stop stop-color="#FAFEE3" offset=".034"/><stop stop-color="#FAFCC9" offset=".092"/><stop stop-color="#FBF9A0" offset=".165"/><stop stop-color="#FBF466" offset=".251"/><stop stop-color="#FCEE21" offset=".342"/><stop stop-color="#FCEE21" offset=".866"/></linearGradient><circle r="139.2" cy="186.1" stroke="#000" cx="324.2" stroke-miterlimit="10" stroke-width="4" fill="url(#prefix__f)"/><ellipse rx="82.9" ry="83.4" transform="rotate(-1.537 236.03 151.54) scale(.99996)" cy="151.5" cx="236" fill="#fff"/><path d="M318.9 149.3s0-.5-.1-1.5-.1-2.5-.3-4.4c-.4-3.8-1.1-9.4-3.3-16.2-2.1-6.8-5.5-14.9-11.3-23-5.7-8.1-13.6-16.3-24-22.7-5.2-3.2-10.9-5.9-17.1-7.9-6.2-2.1-12.8-3.4-19.7-3.9-1.7-.1-3.5-.1-5.2-.2H234l-1.3.1c-.9.1-1.8.1-2.7.2-.9.1-1.8.2-2.6.3-1.8.2-3.5.5-5.3.8-3.5.7-7.1 1.6-10.6 2.8-1.8.5-3.5 1.3-5.2 1.9-1.7.8-3.4 1.5-5.1 2.3-6.7 3.3-13 7.7-18.6 12.9-2.8 2.6-5.4 5.4-7.9 8.4s-4.7 6.2-6.7 9.5c-4 6.7-7.1 13.9-9.2 21.5-1 3.8-1.7 7.7-2.2 11.6-.5 3.9-.6 7.9-.5 11.8.1 1.9.1 4.1.4 5.9.1 1 .2 1.9.3 2.9l.4 2.9c.7 3.9 1.6 7.7 2.8 11.4 2.4 7.5 5.9 14.5 10.3 21 2.2 3.2 4.6 6.3 7.2 9.1 2.6 2.8 5.4 5.5 8.4 7.9 5.9 4.9 12.4 8.9 19.2 11.9 1.7.8 3.5 1.4 5.2 2.1 1.8.6 3.5 1.2 5.3 1.7 3.5 1 7.1 1.7 10.7 2.2 1.8.2 3.6.5 5.4.5.9.1 1.8.1 2.7.2h5.3c.9 0 1.8-.1 2.7-.1 1.7-.2 3.4-.2 5.2-.5 6.8-.9 13.4-2.5 19.5-4.9 6.1-2.4 11.7-5.4 16.7-8.9 10-6.9 17.5-15.5 22.8-23.9 5.3-8.4 8.3-16.7 10-23.6 1.7-6.9 2.2-12.6 2.4-16.4.1-1.9.1-3.4.1-4.4-.2-.8-.2-1.3-.2-1.3zm0 0v1.5c0 1 .1 2.5-.1 4.4-.1 3.8-.6 9.5-2.3 16.4-.2.9-.4 1.8-.7 2.7-.3.9-.6 1.8-.8 2.8-.3 1-.6 1.9-1 2.9s-.7 2-1.1 3c-1.6 4-3.6 8.2-6.2 12.5-5.1 8.6-12.5 17.3-22.4 24.7-5 3.7-10.6 6.9-16.7 9.6-6.1 2.7-12.8 4.6-19.9 5.7-1.8.3-3.6.5-5.4.7-.9.1-1.8.1-2.7.2l-1.3.1H234.1c-.9 0-1.8-.1-2.8-.1-1.9 0-3.7-.2-5.6-.4-3.7-.4-7.5-1-11.2-2-1.9-.4-3.7-1-5.6-1.5-1.8-.7-3.7-1.2-5.5-2-7.3-2.9-14.3-6.9-20.7-11.8-6.4-5-12.1-11-17-17.8-9.7-13.5-15.2-30.3-15.7-47.1-.4-16.9 4.2-33.9 13.2-47.9 4.5-7 9.9-13.3 16-18.6 6.1-5.3 12.9-9.7 20.1-12.9 1.8-.9 3.6-1.5 5.4-2.3 1.8-.6 3.6-1.3 5.5-1.8 3.7-1.2 7.4-1.9 11.1-2.6 1.9-.2 3.7-.6 5.6-.7.9-.1 1.9-.2 2.8-.2.9 0 1.8-.1 2.7-.1h5.5c1.8.1 3.6.2 5.4.4 7.1.8 13.9 2.3 20.1 4.7 6.3 2.3 12 5.3 17.2 8.7 10.3 6.9 18.2 15.2 23.7 23.5 2.8 4.1 5 8.2 6.8 12.2.5 1 .9 2 1.3 2.9.4 1 .8 1.9 1.1 2.8.3.9.7 1.8 1 2.7.3.9.5 1.8.8 2.6 2.1 6.9 2.8 12.5 3.1 16.3.2 1.9.2 3.4.3 4.4.2.9.2 1.4.2 1.4z" fill="#999"/><ellipse rx="56.8" cy="169.5" ry="56.1" stroke="gray" cx="241.5" stroke-miterlimit="10" stroke-width="4" fill="#fff"/><ellipse rx="49.6" cy="177.7" ry="48.2" stroke="#0ff" cx="241.4" stroke-miterlimit="10" stroke-width="5"/><circle cx="234.1" cy="140.2" stroke="#000" r="15.5" stroke-miterlimit="10" fill="#fff"/><circle cx="218.8" cy="166.3" stroke="#000" r="10.1" stroke-miterlimit="10" fill="#fff"/><ellipse rx="84.5" ry="82.2" transform="matrix(-.9999 -.01321 .01321 -.9999 816.46 317.22)" cy="155.9" cx="409.3" fill="#fff"/><path d="M324.8 154.8v1.5c0 1 0 2.5.2 4.4.2 3.8.8 9.5 2.7 16.3.9 3.5 2.3 7.2 4 11.1 1.7 3.9 4 8 6.8 12.2 5.6 8.2 13.4 16.6 23.7 23.1 5.1 3.3 10.8 6.1 17 8.3 6.2 2.2 12.8 3.7 19.7 4.4 1.7.2 3.5.3 5.2.4.9 0 1.8 0 2.6.1h2.6c.9 0 1.8-.1 2.7-.1.9 0 1.8-.1 2.7-.2 1.8-.1 3.6-.4 5.4-.6 3.6-.5 7.2-1.2 10.7-2.3 3.6-1 7.1-2.2 10.5-3.7 3.5-1.4 6.8-3.2 10-5.2s6.4-4.2 9.4-6.6c3-2.4 5.8-5 8.5-7.8 2.6-2.8 5.1-5.9 7.3-9 2.2-3.2 4.2-6.6 6-10.1 1.7-3.5 3.2-7.1 4.5-10.9 1.2-3.7 2.1-7.6 2.8-11.5.6-3.9.9-7.8 1-11.8 0-1.9 0-4.1-.2-5.9-.1-1.9-.3-3.9-.5-5.8-.6-3.9-1.4-7.8-2.5-11.5-1.1-3.8-2.5-7.4-4.2-11-1.7-3.5-3.6-7-5.7-10.2-2.2-3.2-4.5-6.3-7.1-9.2-2.6-2.9-5.4-5.6-8.3-8.1-2.9-2.5-6-4.8-9.2-6.8-3.2-2-6.5-3.9-9.9-5.4-3.4-1.6-6.9-2.9-10.4-4s-7.1-1.9-10.6-2.6c-1.8-.3-3.6-.6-5.4-.7l-2.7-.3c-.9 0-1.8-.1-2.7-.1l-1.3-.1h-4c-1.7.1-3.5.1-5.2.3-6.9.6-13.6 1.9-19.8 3.9-6.2 2.1-12 4.7-17.2 7.9-10.5 6.2-18.5 14.4-24.3 22.4-2.9 4-5.3 8.1-7.1 12-1.8 3.9-3.3 7.6-4.3 11-2.1 6.8-2.9 12.5-3.2 16.3-.2 1.9-.2 3.4-.3 4.4.1 1 .1 1.5.1 1.5zm0 0s0-.5.1-1.5 0-2.5.2-4.4c.3-3.8 1-9.4 3.1-16.3 1-3.4 2.4-7.2 4.2-11.1 1.8-3.9 4.1-8 6.9-12.1 5.7-8.2 13.6-16.5 24-23.3 5.2-3.4 11-6.3 17.3-8.6 6.3-2.3 13.1-3.9 20.2-4.7 1.8-.2 3.6-.3 5.4-.4.9 0 1.8-.1 2.7-.1h2.7c.9 0 1.8 0 2.8.1.9 0 1.8.1 2.8.2 1.9.1 3.7.3 5.6.6 3.7.5 7.5 1.2 11.2 2.3 3.7 1 7.4 2.3 11 3.8 3.6 1.5 7.2 3.4 10.6 5.4 3.4 2 6.7 4.4 9.9 6.9 3.2 2.6 6.1 5.4 9 8.4 2.8 3 5.4 6.3 7.8 9.7 9.5 13.7 14.7 30.7 14.5 47.7-.3 17-5.9 33.8-15.7 47.2-2.5 3.3-5.2 6.5-8 9.5-2.9 2.9-6 5.7-9.2 8.1-3.3 2.4-6.6 4.7-10.1 6.6-3.5 1.9-7.1 3.7-10.8 5.1-3.7 1.4-7.4 2.6-11.1 3.5-3.7.9-7.5 1.6-11.2 2-1.9.2-3.7.4-5.6.4-.9 0-1.9.1-2.8.1h-4.1l-1.4-.1c-.9 0-1.8-.1-2.7-.1-1.8-.2-3.6-.3-5.4-.6-7.1-1-13.8-2.8-20-5.2-6.2-2.5-11.9-5.6-17-9.1-10.2-7-18-15.5-23.4-23.9-2.7-4.2-4.9-8.4-6.6-12.3-1.7-4-3-7.7-3.9-11.2-1.9-6.9-2.4-12.6-2.6-16.4-.2-1.9-.1-3.4-.1-4.4-.3-1.3-.3-1.8-.3-1.8z" fill="#999"/><g stroke-miterlimit="10"><ellipse rx="56.8" cy="171.5" ry="56.1" stroke="gray" cx="401.5" stroke-width="4" fill="#fff"/><ellipse rx="49.6" cy="179.7" ry="48.2" stroke="#0ff" cx="401.4" stroke-width="5"/><circle cx="394.1" cy="142.2" stroke="#000" r="15.5" fill="#fff"/><circle cx="378.8" cy="168.3" stroke="#000" r="10.1" fill="#fff"/></g><path d="M273 247.6c10.8 14.1 27.4 22.2 45.2 22 17.5-.3 34.1-10.3 43.8-24.6 1.1-1.6-1.5-3.1-2.6-1.5-9 13.4-23.6 21.9-39.7 23.1-16.9 1.3-33.9-7.1-44.1-20.4-1.1-1.6-3.7-.1-2.6 1.4zM422 377.4c-27.9 30.6-75.3 50-122.5 54.8-47.2 4.7-93.9-4-133.9-20l16-43c37.1 16.5 80.2 25.8 123.6 21.7 43.4-4.1 86.8-22.9 112.1-53.1z"/><path d="M419.5 374.9c-28.8 31.3-72 47.5-113.4 53-47.2 6.3-95.7-1.7-139.7-19.1.8 1.4 1.6 2.9 2.4 4.3 5.3-14.3 10.7-28.7 16-43l-5.1 2.1c41.7 18.4 88 27.3 133.5 21.2 39.5-5.3 80.2-22.2 106.4-53.2-2-.8-4-1.6-5.9-2.5 1.6 13.2 3.1 26.4 4.7 39.7.5 4.4 7.5 4.5 7 0-1.6-13.2-3.1-26.4-4.7-39.7-.3-2.7-3.7-5.1-5.9-2.5-25.1 29.6-63.1 45.4-100.8 51-44.1 6.6-90.2-2.3-130.7-20.2-2.2-1-4.3-.2-5.1 2.1-5.3 14.3-10.7 28.7-16 43-.7 1.9.8 3.6 2.4 4.3 45.4 18 95.6 25.9 144.1 19 42.3-5.9 86.2-22.7 115.7-54.7 3.1-3.2-1.8-8.1-4.9-4.8z"/><path d="M403.7 303.3l-20 8.8-23 6.1-36.4 7.2-30.5-4.5-23.9-6.6-20.8-11-15.9-11.9-16 17.6c27.5 22.2 60.7 38.2 95.9 41 35.2 2.8 72.2-8.8 96.3-34.6"/><path d="M402.2 300.7l-17.1 7.5-2.7 1.2c.6-.3.2-.1-.7.1-3.4.9-6.9 1.8-10.3 2.7-11.1 2.9-22.3 5.2-33.6 7.4-3.3.7-6.7 1.3-10 2-1 .2-2.1.4-3.1.6-1.6.3-1 0 .3.2-6.1-.9-12.3-1.8-18.4-2.7-11.4-1.7-21.9-4.5-33.1-7.6-.8-.2-3.3-1.1-2.2-.5l-4.5-2.4-14.1-7.5c-6.5-3.4-12.1-8.7-18-13-1-.8-2.8-.4-3.6.5l-15.9 17.7c-1 1.1-1.3 3.2 0 4.2 29 23.2 63.6 39.8 101.1 42.1 34.8 2.1 71.1-10.2 95.3-35.7 2.7-2.8-1.6-7.1-4.2-4.2-23 24.3-56.5 35.3-89.5 34-36.2-1.4-70.6-18.2-98.4-40.4v4.2l15.9-17.7c-1.2.2-2.4.3-3.6.5 4.9 3.7 9.8 7.4 14.8 11.1 4 3 8.9 5 13.3 7.3 4 2.1 7.8 4.5 12.1 5.7 6.7 1.8 13.4 3.7 20.1 5.5 10 2.8 21.1 3.2 31.4 4.7 4.1.6 9.3-1.5 13.3-2.3 7.3-1.4 14.5-2.9 21.8-4.3 8.2-1.6 16.3-4.1 24.4-6.3 7.7-2 15.2-6.3 22.5-9.5 3.3-1.5.2-6.7-3.3-5.1zM403.6 462.8c-10.3 7.8-23.8 9.8-36.8 10.8-71.5 5.1-144.6-16-202.4-58.4l-2.5 30c54 42.4 122.2 63.5 189 58.4 12.1-.9 24.7-2.9 34.3-10.8z"/><path d="M401.8 459.7c-16.3 11.8-39.4 11.1-58.7 11-21.1-.1-42.2-2.7-62.9-7.2-41.1-9-80.1-26.7-114.1-51.5-2.4-1.7-5.1.7-5.3 3-.5 5.7-.9 11.3-1.4 17-.4 4.8-3.1 13.2 1.3 16.6 21.8 17 46 30.5 71.8 40.6 25.6 10 52.8 15.9 80.3 17.9 13.7 1 27.6.9 41.3-.4 6.1-.5 12.2-1.5 18.1-3.3 4.8-1.5 13.3-4.4 16.1-8.9l18.3-30c2.4-3.9-3.7-7.4-6.1-3.6-5.9 9.6-11.8 19.3-17.6 28.9-1.9 3.2-7.7 5-11 6.3-6.2 2.3-12.8 3.1-19.3 3.7-13.2 1.2-26.5 1.1-39.7.2-53.7-3.6-106-24.4-148.4-57.5.3.8.7 1.7 1 2.5.8-10 1.6-20 2.5-30-1.8 1-3.5 2-5.3 3 35 25.5 75.2 43.3 117.4 52.6 21.2 4.7 43 7 64.8 7.1 19.9.1 43.7.3 60.5-12 3.6-2.5.1-8.6-3.6-6zM276.8 593.4c-36.6 8.2-75.3-5.3-105.5-36.9-2.3-2.4-5.2-5.3-5.2-9.4v-38c1 4.1 4.2 7 7.5 9.4 43.2 31.5 98.6 45 151 36.9"/><path d="M276 590.6c-35.5 7.6-70.4-6-96.6-30-4-3.7-10.5-8.6-10.5-14.6v-36.8c-1.9.3-3.8.5-5.7.8 1.4 5.6 5.7 8.9 10.2 12.1 6.3 4.6 12.9 8.7 19.7 12.5 13.3 7.4 27.5 13.2 42 17.6 29.1 8.7 60.1 10.7 90.1 6.1 3.7-.6 2.1-6.2-1.5-5.6-27.5 4.2-55.4 2.3-82.2-4.8-13.7-3.6-26.9-8.8-39.6-15.2-6-3-11.7-6.4-17.3-10-5.3-3.4-14.1-7.7-15.8-14.3-.8-3.2-5.7-2.5-5.7.8v37.7c0 7.4 7.4 13.3 12.2 17.8 27.3 25.7 64.9 39.5 102.2 31.5 3.7-.8 2.1-6.4-1.5-5.6z"/><path d="M105.3 276.4c9 .9 17.3 5.2 25.4 9 7.8 3.6 15.5 7.4 23.2 11.4 15.8 8.3 31.1 17.5 45.9 27.4 1.6 1.1 3.1-1.5 1.5-2.6-15.3-10.3-31.2-19.7-47.6-28.3-8.2-4.3-16.5-8.3-24.9-12.1-7.6-3.4-15.2-7-23.6-7.8-1.8-.2-1.8 2.8.1 3zM427.3 333.3l58.2-20.1c1.8-.6 1-3.5-.8-2.9l-58.2 20.1c-1.8.6-1.1 3.5.8 2.9zM431 342.2c18.5-1.5 36.7-4.7 54.5-9.7 1.9-.5 1.1-3.4-.8-2.9-17.6 4.9-35.5 8.2-53.7 9.6-1.9.2-1.9 3.2 0 3zM164.7 377.1c-23.6-1.4-46.7 9.1-61.2 27.7-1.2 1.5.9 3.6 2.1 2.1 14-18.1 36.2-28.2 59.1-26.8 2 .1 2-2.9 0-3zM434.1 396.8c23.1 9.9 48.8 21.4 60.1 45.5.8 1.8 3.4.2 2.6-1.5-11.5-24.6-37.6-36.5-61.2-46.6-1.7-.7-3.2 1.9-1.5 2.6zM189.6 335.4c-30.2-14.2-63.1-21.4-96.4-21-1.9 0-1.9 3 0 3 32.8-.4 65.2 6.6 94.9 20.6 1.7.8 3.3-1.8 1.5-2.6z" fill="#f2f2f2"/><path d="M297.2 47c-8.9-10-17.8-20.1-26.9-30-7.1-7.7-15.2-14.6-25.8-16.5C221.2-3.7 203 18.2 185 28.9c-6.2 3.7-12.1 6-18.9 2.3-3.7-2-6.9-3.9-11.2-3.2-2.3.4-3.7 5.4-4.1 7.2-.8 3.3-.3 7.3 1.1 10.3 2.5 5.4 9.7 12 15.7 7.5 4.4-3.2 3.6-15.5 9.3-15.9 1.9-.1 1.9-3.1 0-3-4.6.3-6.1 4.2-7.3 8.1-.8 2.7-1.4 5.6-3.1 7.9-4.3 5.4-10.9-3.3-12.1-6.8-1.4-3.7-.9-7.8 1-11.2 2.1-3.8 11 2.7 13.6 3.7 7.8 3.1 17.4-3.9 23.4-7.9 16.6-11.2 34.1-30 56.2-23.3 9.4 2.8 16.5 11.1 22.9 18.2 7.9 8.8 15.7 17.6 23.6 26.4 1.2 1.4 3.4-.7 2.1-2.2zM376.9 56.3c6.9-8.7 13.9-17.4 20.8-26.1 6.4-8 12.9-19.2 22.8-23.2 10.8-4.4 20.9 5.9 27.2 13.2 7.3 8.5 13.2 18.1 19 27.6 4.1 6.7 7.6 14.5 14.2 19.1 4.9 3.4 11.8 2.3 15.6-2.2 10.7-13-24.8-22.4-31.5-24-1.9-.4-2.7 2.4-.8 2.9 8.7 2.1 17.2 5.2 25.1 9.5 5.3 2.9 8.4 9.4 1.3 12.3-4.7 2-9-1.2-12.1-4.5-5.7-6.3-9.4-15-13.9-22.1-4.8-7.7-10-15.1-15.9-21.9-9.6-11.1-23-18.6-36.1-8.5-7.2 5.6-12.6 14.3-18.3 21.4-6.5 8.2-13.1 16.4-19.6 24.5-1.1 1.4 1 3.5 2.2 2z"/></g></switch></svg>