<svg xmlns="http://www.w3.org/2000/svg" width="139.022" height="104.399" viewBox="0 0 177.948 133.63" xmlns:v="https://vecta.io/nano"><path d="M175.09 51.622a11.94 11.94 0 0 1 2.704 9.664c0 .04 0 .08-.02.099-2.148 13.045-8.252 24.896-17.638 34.262-5.011 5.011-10.778 9.088-17.042 12.15-6.264 3.042-13.025 5.051-20.025 5.886-1.193 2.466-3.261 4.474-5.846 5.548l-33.606 14.158c-1.213.418-2.386.199-2.824.02-.915-.378-1.631-1.094-2.008-1.989-2.525-5.985-2.605-12.389-.716-18.116-13.8-2.227-26.467-8.988-36.072-19.368a62.9 62.9 0 0 1-16.803-42.893v-20.74c0-.855.119-1.69.318-2.486H19.03C8.531 27.82 0 19.289 0 8.789V3.699A3.69 3.69 0 0 1 3.699 0h11.096c8.153 0 15.57 4.156 19.965 10.619C39.154 4.176 46.571 0 54.724 0H65.82a3.69 3.69 0 0 1 3.699 3.699v5.091c0 10.499-8.531 19.03-19.03 19.03h-5.866a7.85 7.85 0 0 1 .159.656C46.85 39.413 56.454 47.367 67.63 47.367h98.273c3.52 0 6.88 1.551 9.187 4.255z" fill="#633"/><path d="M169.463 56.415a4.68 4.68 0 0 1 .756 1.233c-26.626 4.713-47.884 25.155-53.472 51.841 0 .04-.02.08-.02.139a3.98 3.98 0 0 1-2.346 2.804l-29.868 12.587c-1.69-8.431 2.724-17.201 10.957-20.681 1.889-.795 2.764-2.963 1.969-4.832-.795-1.889-2.963-2.764-4.832-1.969a25.7 25.7 0 0 0-10.997 8.809c-13.085-1.551-25.155-7.696-34.183-17.42a55.45 55.45 0 0 1-14.854-37.862v-20.76a2.45 2.45 0 0 1 .716-1.75c.477-.477 1.094-.736 1.77-.736a2.49 2.49 0 0 1 2.446 2.048c2.724 14.437 15.391 24.896 30.106 24.896h98.273c1.372-.02 2.685.597 3.579 1.65z" fill="#4ec8d8"/><path d="M169.383 65.323c-2.486 9.465-7.437 18.076-14.477 25.095-8.093 8.093-18.473 13.482-29.629 15.451 6.244-20.502 23.147-36.032 44.106-40.546z" fill="#fff"/><path d="M163.895 24.618a3.69 3.69 0 1 1-7.397 0c0-3.818-3.102-6.92-6.92-6.92a6.92 6.92 0 0 0-6.9 6.9v12.747a3.69 3.69 0 1 1-7.397 0l.02-13.204h-.04c-.239-3.599-3.241-6.443-6.9-6.443-3.818 0-6.92 3.102-6.92 6.92a3.69 3.69 0 1 1-7.397 0c0-7.894 6.423-14.298 14.298-14.298 4.216 0 7.994 1.829 10.619 4.713a14.24 14.24 0 0 1 10.599-4.713c7.914 0 14.337 6.423 14.337 14.298zm-43.529 38.16c2.426 0 4.395 1.969 4.395 4.395s-1.969 4.395-4.395 4.395-4.395-1.969-4.395-4.395 1.969-4.395 4.395-4.395zm-46.77 23.703c1.889.776 2.784 2.943 2.008 4.832a3.7 3.7 0 0 1-3.42 2.287 3.88 3.88 0 0 1-1.412-.278c-6.125-2.525-11.514-6.284-16.047-11.176a45.44 45.44 0 0 1-7.298-10.48 3.72 3.72 0 0 1 1.631-4.971 3.72 3.72 0 0 1 4.971 1.631c1.611 3.202 3.679 6.145 6.125 8.789 3.798 4.096 8.312 7.238 13.442 9.366z" fill="#633"/><path d="M62.122 7.397v1.392a11.64 11.64 0 0 1-11.633 11.633h-12.09c1.71-7.556 8.531-13.025 16.306-13.025zM31.101 20.422H19.01A11.64 11.64 0 0 1 7.377 8.789V7.397h7.397c7.795 0 14.636 5.468 16.326 13.025z" fill="#4ec8d8"/></svg>