<svg version="1.1" xmlns="http://www.w3.org/2000/svg" xmlns:xlink="http://www.w3.org/1999/xlink" width="32.16979" height="37.04167" viewBox="0,0,32.16979,37.04167"><defs><radialGradient cx="253.49348" cy="170.57161" r="50.95814" gradientUnits="userSpaceOnUse" id="color-1"><stop offset="0" stop-color="#ffffff"/><stop offset="0.0229" stop-color="#fdf7e2"/><stop offset="0.094" stop-color="#f8e18c"/><stop offset="0.1264" stop-color="#f6d86a"/><stop offset="0.3681" stop-color="#f3cb5a"/><stop offset="0.6538" stop-color="#c47313"/><stop offset="0.9945" stop-color="#ac4a15"/></radialGradient><radialGradient cx="254.59295" cy="149.72415" r="24.73638" gradientUnits="userSpaceOnUse" id="color-2"><stop offset="0" stop-color="#ffffff"/><stop offset="0.1484" stop-color="#cfad9a"/><stop offset="0.2847" stop-color="#a56643"/><stop offset="0.3462" stop-color="#954a21"/><stop offset="0.6538" stop-color="#541c0b"/><stop offset="0.9945" stop-color="#361111"/></radialGradient><radialGradient cx="252.37744" cy="156.22208" r="35.64673" gradientUnits="userSpaceOnUse" id="color-3"><stop offset="0" stop-color="#ffffff"/><stop offset="0.1484" stop-color="#cfad9a"/><stop offset="0.2847" stop-color="#a56643"/><stop offset="0.3462" stop-color="#954a21"/><stop offset="0.6538" stop-color="#541c0b"/><stop offset="0.9945" stop-color="#361111"/></radialGradient><radialGradient cx="253.73885" cy="154.42833" r="20.45228" gradientUnits="userSpaceOnUse" id="color-4"><stop offset="0" stop-color="#ffffff"/><stop offset="0.1484" stop-color="#cfad9a"/><stop offset="0.2847" stop-color="#a56643"/><stop offset="0.3462" stop-color="#954a21"/><stop offset="0.6538" stop-color="#541c0b"/><stop offset="0.9945" stop-color="#361111"/></radialGradient><radialGradient cx="233.51935" cy="162.89822" r="60.00662" gradientUnits="userSpaceOnUse" id="color-5"><stop offset="0" stop-color="#ffffff"/><stop offset="1" stop-color="#646464"/></radialGradient><radialGradient cx="236.99966" cy="158.01563" r="42.79441" gradientUnits="userSpaceOnUse" id="color-6"><stop offset="0" stop-color="#ffffff"/><stop offset="1" stop-color="#646464"/></radialGradient><radialGradient cx="248.86267" cy="151.83831" r="58.12351" gradientUnits="userSpaceOnUse" id="color-7"><stop offset="0" stop-color="#ffffff"/><stop offset="1" stop-color="#646464"/></radialGradient><radialGradient cx="233.21996" cy="160.60668" r="68.58616" gradientUnits="userSpaceOnUse" id="color-8"><stop offset="0" stop-color="#ffffff"/><stop offset="1" stop-color="#646464"/></radialGradient><radialGradient cx="247.06684" cy="161.72475" r="9.41152" gradientUnits="userSpaceOnUse" id="color-9"><stop offset="0" stop-color="#ffffff"/><stop offset="0.0489" stop-color="#fccdcc"/><stop offset="0.1674" stop-color="#f65954"/><stop offset="0.2198" stop-color="#f32b24"/><stop offset="0.522" stop-color="#db2313"/><stop offset="0.7692" stop-color="#c8140d"/><stop offset="0.9835" stop-color="#aa0e0b"/></radialGradient><radialGradient cx="244.19166" cy="159.33135" r="16.77036" gradientUnits="userSpaceOnUse" id="color-10"><stop offset="0" stop-color="#ffffff"/><stop offset="0.0489" stop-color="#fccdcc"/><stop offset="0.1674" stop-color="#f65954"/><stop offset="0.2198" stop-color="#f32b24"/><stop offset="0.522" stop-color="#db2313"/><stop offset="0.7692" stop-color="#c8140d"/><stop offset="0.9835" stop-color="#aa0e0b"/></radialGradient><radialGradient cx="245.10764" cy="159.87157" r="3.81769" gradientUnits="userSpaceOnUse" id="color-11"><stop offset="0" stop-color="#ffffff"/><stop offset="0.0489" stop-color="#fccdcc"/><stop offset="0.1674" stop-color="#f65954"/><stop offset="0.2198" stop-color="#f32b24"/><stop offset="0.522" stop-color="#db2313"/><stop offset="0.7692" stop-color="#c8140d"/><stop offset="0.9835" stop-color="#aa0e0b"/></radialGradient><radialGradient cx="246.24498" cy="163.75577" r="30.8632" gradientUnits="userSpaceOnUse" id="color-12"><stop offset="0" stop-color="#ffffff"/><stop offset="0.0489" stop-color="#fccdcc"/><stop offset="0.1674" stop-color="#f65954"/><stop offset="0.2198" stop-color="#f32b24"/><stop offset="0.522" stop-color="#db2313"/><stop offset="0.7692" stop-color="#c8140d"/><stop offset="0.9835" stop-color="#aa0e0b"/></radialGradient><radialGradient cx="240.56555" cy="156.07562" r="15.01918" gradientUnits="userSpaceOnUse" id="color-13"><stop offset="0" stop-color="#ffffff"/><stop offset="0.0489" stop-color="#fccdcc"/><stop offset="0.1674" stop-color="#f65954"/><stop offset="0.2198" stop-color="#f32b24"/><stop offset="0.522" stop-color="#db2313"/><stop offset="0.7692" stop-color="#c8140d"/><stop offset="0.9835" stop-color="#aa0e0b"/></radialGradient><radialGradient cx="241.42324" cy="159.63082" r="12.48604" gradientUnits="userSpaceOnUse" id="color-14"><stop offset="0" stop-color="#ffffff"/><stop offset="0.0489" stop-color="#fccdcc"/><stop offset="0.1674" stop-color="#f65954"/><stop offset="0.2198" stop-color="#f32b24"/><stop offset="0.522" stop-color="#db2313"/><stop offset="0.7692" stop-color="#c8140d"/><stop offset="0.9835" stop-color="#aa0e0b"/></radialGradient><radialGradient cx="241.0031" cy="160.01144" r="23.16827" gradientUnits="userSpaceOnUse" id="color-15"><stop offset="0" stop-color="#ffffff"/><stop offset="0.0489" stop-color="#fccdcc"/><stop offset="0.1674" stop-color="#f65954"/><stop offset="0.2198" stop-color="#f32b24"/><stop offset="0.522" stop-color="#db2313"/><stop offset="0.7692" stop-color="#c8140d"/><stop offset="0.9835" stop-color="#aa0e0b"/></radialGradient><radialGradient cx="237.50113" cy="153.13298" r="52.85214" gradientUnits="userSpaceOnUse" id="color-16"><stop offset="0" stop-color="#ffffff"/><stop offset="1" stop-color="#646464"/></radialGradient><radialGradient cx="239.49202" cy="156.12224" r="39.10602" gradientUnits="userSpaceOnUse" id="color-17"><stop offset="0" stop-color="#ffffff"/><stop offset="1" stop-color="#646464"/></radialGradient><radialGradient cx="236.109" cy="156.92009" r="110.78629" gradientUnits="userSpaceOnUse" id="color-18"><stop offset="0" stop-color="#ffffff"/><stop offset="1" stop-color="#646464"/></radialGradient><radialGradient cx="260.83545" cy="171.46751" r="41.76039" gradientUnits="userSpaceOnUse" id="color-19"><stop offset="0" stop-color="#ffffff"/><stop offset="0.0229" stop-color="#fdf7e2"/><stop offset="0.094" stop-color="#f8e18c"/><stop offset="0.1264" stop-color="#f6d86a"/><stop offset="0.3681" stop-color="#f3cb5a"/><stop offset="0.6538" stop-color="#c47313"/><stop offset="0.9945" stop-color="#ac4a15"/></radialGradient><radialGradient cx="255.38286" cy="173.11169" r="38.60454" gradientUnits="userSpaceOnUse" id="color-20"><stop offset="0" stop-color="#ffffff"/><stop offset="0.1484" stop-color="#cfad9a"/><stop offset="0.2847" stop-color="#a56643"/><stop offset="0.3462" stop-color="#954a21"/><stop offset="0.6538" stop-color="#541c0b"/><stop offset="0.9945" stop-color="#361111"/></radialGradient><radialGradient cx="250.82362" cy="179.09052" r="18.22712" gradientUnits="userSpaceOnUse" id="color-21"><stop offset="0" stop-color="#ffffff"/><stop offset="0.1484" stop-color="#cfad9a"/><stop offset="0.2847" stop-color="#a56643"/><stop offset="0.3462" stop-color="#954a21"/><stop offset="0.6538" stop-color="#541c0b"/><stop offset="0.9945" stop-color="#361111"/></radialGradient><radialGradient cx="253.78077" cy="182.95704" r="11.00603" gradientUnits="userSpaceOnUse" id="color-22"><stop offset="0" stop-color="#ffffff"/><stop offset="0.1484" stop-color="#cfad9a"/><stop offset="0.2847" stop-color="#a56643"/><stop offset="0.3462" stop-color="#954a21"/><stop offset="0.6538" stop-color="#541c0b"/><stop offset="0.9945" stop-color="#361111"/></radialGradient><radialGradient cx="253.72763" cy="169.85833" r="91.42376" gradientUnits="userSpaceOnUse" id="color-23"><stop offset="0" stop-color="#ffffff"/><stop offset="0.1484" stop-color="#cfad9a"/><stop offset="0.2847" stop-color="#a56643"/><stop offset="0.3462" stop-color="#954a21"/><stop offset="0.6538" stop-color="#541c0b"/><stop offset="0.9945" stop-color="#361111"/></radialGradient><radialGradient cx="248.78783" cy="180.82918" r="20.73295" gradientUnits="userSpaceOnUse" id="color-24"><stop offset="0" stop-color="#ffffff"/><stop offset="0.1484" stop-color="#cfad9a"/><stop offset="0.2847" stop-color="#a56643"/><stop offset="0.3462" stop-color="#954a21"/><stop offset="0.6538" stop-color="#541c0b"/><stop offset="0.9945" stop-color="#361111"/></radialGradient><radialGradient cx="243.82407" cy="184.09245" r="16.20704" gradientUnits="userSpaceOnUse" id="color-25"><stop offset="0" stop-color="#ffffff"/><stop offset="0.1484" stop-color="#cfad9a"/><stop offset="0.2847" stop-color="#a56643"/><stop offset="0.3462" stop-color="#954a21"/><stop offset="0.6538" stop-color="#541c0b"/><stop offset="0.9945" stop-color="#361111"/></radialGradient><radialGradient cx="255.729" cy="173.67994" r="15.07014" gradientUnits="userSpaceOnUse" id="color-26"><stop offset="0" stop-color="#ffffff"/><stop offset="0.1484" stop-color="#cfad9a"/><stop offset="0.2847" stop-color="#a56643"/><stop offset="0.3462" stop-color="#954a21"/><stop offset="0.6538" stop-color="#541c0b"/><stop offset="0.9945" stop-color="#361111"/></radialGradient></defs><g transform="translate(-224.37871,-158.14131)"><g data-paper-data="{&quot;isPaintingLayer&quot;:true}" fill-rule="nonzero" stroke="none" stroke-width="1" stroke-linecap="butt" stroke-linejoin="miter" stroke-miterlimit="10" stroke-dasharray="" stroke-dashoffset="0" style="mix-blend-mode: normal"><path d="M225.23096,175.1544h30.72782v12.90411c0,3.60471 -6.87306,6.5266 -15.35156,6.5266c-8.47797,0 -15.37626,-2.92189 -15.37626,-6.5266z" fill="url(#color-1)"/><path d="M224.96743,174.40699c0,-3.49828 4.43534,-6.92545 15.54391,-6.9247c10.71121,0 16.00795,3.45876 16.00795,6.95666c0,1.03175 0.26772,4.38946 -0.81799,5.25004c-0.70826,0.56142 -1.59945,1.86837 -1.41353,3.77408c0.06766,0.69337 0.37191,3.25091 -0.92981,3.25091c-0.82472,0 -1.41323,-1.45732 -0.96715,-3.17614c0.39294,-1.51368 -1.67369,-3.25091 -4.35122,-0.70998c-1.81815,1.72504 -0.96715,5.97873 -2.78942,5.97873c-1.4062,0 -1.56502,-2.57835 -3.6824,-2.57835c-2.00818,0 -1.32506,3.82371 -3.37059,3.82371c-2.34304,0 -1.76269,-2.77797 -3.54723,-3.63682c-1.1875,-0.57197 -2.57888,-0.23479 -3.60733,-1.19581c-2.15824,-2.01634 -2.75229,-6.10335 -4.81039,-8.42012c-0.58851,-0.66298 -0.31555,0.22424 -0.9917,0.22424c-1.11572,0 -0.27296,-2.19701 -0.27296,-2.616z" fill="url(#color-2)"/><path d="M224.68496,173.80897c0,-3.49828 4.43534,-6.92545 15.54241,-6.9247c10.71151,0 16.00795,3.45876 16.00795,6.95666c0,1.03175 0.26772,4.38946 -0.81769,5.25011c-0.70886,0.56134 -1.59975,1.86829 -1.41383,3.77401c0.06803,0.69337 0.37191,3.25099 -0.92981,3.25099c-0.82442,0 -1.41293,-1.45732 -0.96715,-3.17622c0.39294,-1.5136 -1.67362,-3.25091 -4.35092,-0.70998c-1.81845,1.72504 -0.96715,5.97873 -2.78942,5.97873c-1.4065,0 -1.56532,-2.57828 -3.6827,-2.57828c-2.00818,0 -1.30171,3.92348 -3.34724,3.92348c-2.34274,0 -1.78574,-2.87781 -3.57058,-3.73666c-1.1872,-0.57189 -2.57888,-0.23472 -3.60703,-1.19581c-2.15854,-2.01634 -2.75199,-6.10343 -4.81009,-8.42012c-0.58881,-0.66306 -0.31615,0.22416 -0.992,0.22416c-1.11572,0 -0.27319,-2.19701 -0.27319,-2.61592z" fill="url(#color-3)"/><path d="M249.45395,169.97284c0,1.70603 -4.03761,3.08917 -9.01813,3.08917c-4.98059,0 -9.01813,-1.38314 -9.01813,-3.08917c0,-1.70573 4.03769,-3.08887 9.01813,-3.08887c4.98022,0 9.01813,1.38314 9.01813,3.08887z" fill="url(#color-4)"/><path d="M246.7414,165.43893c0,0 -8.69405,-1.91792 -8.27043,-2.49071c0.42363,-0.57302 5.97866,-0.42385 7.39863,0c1.41989,0.42325 0.87195,2.49071 0.87195,2.49071z" fill="url(#color-5)"/><path d="M238.49605,161.6272c0,0 5.77732,11.47232 2.96463,11.01127c-7.89732,-1.29558 -10.51295,-2.46616 -9.71569,-6.12812c0.74531,-3.42253 6.75084,-4.88277 6.75084,-4.88277z" fill="url(#color-6)"/><path d="M238.4474,162.27581c0,0 1.34497,4.88225 1.54331,6.75039c0.19916,1.86837 -0.32378,3.0641 -1.89314,2.6157c-1.56944,-0.4484 -4.48407,-2.76517 -4.35938,-5.70427c0.12469,-2.93978 4.70823,-3.66197 4.70823,-3.66197z" fill="url(#color-7)"/><path d="M238.07347,162.12657c0,0 7.19939,8.44482 6.65077,8.49421c-0.54794,0.04962 -2.74032,1.96814 -2.74032,1.96814c0,0 -0.02485,-0.19969 -0.02485,-0.99664c0,-0.79695 -3.21357,-2.44109 -4.23498,-2.64077c-1.02142,-0.19916 -3.53727,-0.77188 -3.53727,-3.36303c0,-2.59063 3.88613,-3.46228 3.88613,-3.46228z" fill="url(#color-8)"/><path d="M243.06439,160.14166c0.98175,1.13997 1.26669,2.47319 0.71986,3.44327c-0.75055,1.3309 -3.30578,2.34094 -5.4141,1.26728c-1.58695,-0.80721 -1.71306,-3.05819 -0.93916,-4.37569c0.90675,-1.54339 2.67962,-2.74967 3.99031,-2.20023c0.9221,0.38441 0.99919,1.11684 1.64361,1.86537z" fill="url(#color-9)"/><path d="M242.47408,159.36806c0.43186,0.72046 1.54032,2.12052 1.16011,2.27964c-0.38036,0.15882 -1.59241,-1.40537 -1.76793,-1.7174c-0.17536,-0.31151 -0.86087,-1.09357 -0.5228,-1.23076c0.42595,-0.17372 1.13039,0.66852 1.13039,0.66852z" fill="url(#color-10)"/><path d="M243.20136,160.88922c-0.12028,0.3883 -0.5109,-0.13016 -0.76283,-0.33194c-0.43059,-0.34713 -0.61508,-0.87113 -0.5097,-1.00308c0.12522,-0.15762 0.35088,-0.11826 0.69569,0.28c0.40566,0.46741 0.66163,0.78303 0.57631,1.05502z" fill="url(#color-11)"/><path d="M238.36978,164.85221c-0.89366,-0.45454 -1.32402,-1.36773 -1.38988,-2.31377c1.40238,1.78664 4.32405,0.68282 5.35572,0.39706c1.11048,-0.30747 0.69734,-1.42641 0.69734,-1.42641c0,0 0.29601,0.15029 0.65602,0.68514c0.1083,0.16286 0.22446,0.42385 0.33074,0.69621c-0.04057,0.2446 -0.11444,0.47931 -0.23554,0.69449c-0.75055,1.33098 -3.30578,2.34102 -5.4141,1.26728z" fill="url(#color-12)"/><path d="M238.25198,160.16996c-0.48425,0.48545 -1.14663,1.75535 -1.27986,2.01462c0.014,-0.61628 0.17544,-1.22492 0.45858,-1.70812c0.86701,-1.47715 2.52633,-2.63958 3.81607,-2.25891c-0.2657,-0.00052 -0.51673,0.03563 -0.59936,0.16526c-0.19677,0.30821 -1.85549,1.24535 -2.39558,1.78716z" fill="url(#color-13)"/><path d="M239.71056,159.94811c0,0 0.36113,-0.48515 1.00488,-0.10186c0.64375,0.38306 1.06962,0.8968 1.11834,1.20067c0.04962,0.30305 -0.61044,0.05988 -1.02351,-0.26129c-0.4139,-0.32139 -1.22148,-0.52841 -1.10023,-0.83752z" fill="url(#color-14)"/><path d="M240.28388,159.88682c0,0 0.54847,0.13105 0.69591,0.31734c0.14565,0.18479 0.43328,0.46157 0.35088,0.54884c-0.08233,0.08877 -0.55461,-0.33718 -0.59876,-0.35933c-0.04491,-0.02313 -1.09798,-0.26226 -0.44832,-0.50685z" fill="url(#color-15)"/><path d="M237.74879,162.89845c0,0 10.43795,7.09984 10.33841,7.74726c-0.09954,0.64749 -1.61936,0.54764 -2.81539,0.3734c-1.19596,-0.17424 -1.64383,-0.69741 -2.44109,-1.44474c-0.79725,-0.74733 -2.41624,-1.07134 -3.56212,-1.07134c-1.14581,0 -2.74032,-0.74741 -2.74032,-2.56578c0,-1.81837 1.22058,-3.03925 1.22058,-3.03925z" fill="url(#color-16)"/><path d="M244.94803,168.05523c-2.46616,-1.52011 -5.60443,-2.69062 -5.60443,-2.69062c0,0 0.19909,-0.67256 0.39848,-1.19573c0.19939,-0.5231 1.56936,-1.09589 2.64047,-0.69711c1.07104,0.39848 3.31333,1.17066 4.33453,1.2705c1.02112,0.09954 2.44138,0.69711 3.06402,1.66861c0.62271,0.97157 -0.5231,2.59115 -0.5231,2.59115c-0.70939,-0.17252 -2.73036,0.02627 -4.30975,-0.94672z" fill="url(#color-17)"/><path d="M237.87363,163.17276c0.99619,1.86829 2.11663,2.09253 3.5125,2.51548c1.39482,0.42325 2.19237,0.72218 3.08917,1.64413c0.89672,0.92187 3.66189,0.62294 4.78293,1.04627c1.12096,0.42385 -0.39855,1.81875 -1.02119,2.46623c-0.62264,0.64749 -2.79024,-1.81867 -3.8862,-3.08917c-1.09589,-1.27043 -3.71189,-1.89284 -5.38079,-2.49071c-1.66898,-0.59787 -1.09619,-2.09253 -1.09619,-2.09253z" fill="url(#color-18)"/><path d="M240.80331,191.69525c7.1467,0 13.19227,-1.66254 15.19438,-3.95005c-0.0009,0.33538 -0.0015,0.64195 -0.0015,0.91117c0,3.60471 -6.89304,6.5266 -15.39497,6.5266c-8.50245,0 -15.39572,-2.92189 -15.39572,-6.5266c0,-0.50678 -0.0006,-0.99522 -0.0012,-1.47895c1.43636,2.57618 7.87375,4.51842 15.5993,4.51842z" fill="url(#color-19)"/><path d="M252.55869,170.12134c2.04553,0.89889 3.27224,2.04328 3.27224,3.28946c0,2.88926 -6.58064,5.2314 -14.69741,5.2314c-8.11677,0 -14.69741,-2.34214 -14.69741,-5.2314c0,-0.1086 0.01227,-0.216 0.03069,-0.32288c0.45955,2.56316 6.62607,4.59319 14.16825,4.59319c7.84239,0 14.19969,-2.19387 14.19969,-4.90028c0,-0.98085 -0.83812,-1.89344 -2.2762,-2.65978z" fill="url(#color-20)" opacity="0.49"/><path d="M248.05883,180.95866c0,0 5.2314,-3.58719 5.53033,2.01783c-0.74771,-1.19528 -0.59802,-3.21312 -5.53033,-2.01783z" fill="url(#color-21)" opacity="0.49"/><path d="M253.96264,183.49997c0,0 0.59802,2.31722 -0.52317,2.31647c0.48575,-0.70998 0.52317,-2.31677 0.52317,-2.31677z" fill="url(#color-22)" opacity="0.51"/><path d="M249.91777,169.53373c2.45269,0.56209 4.13297,1.70423 4.13297,3.02376c0,2.87137 -9.05608,4.5902 -11.89594,4.0671c4.09023,-0.08053 7.77345,-3.73202 7.77345,-6.79492c0,-0.09895 -0.00352,-0.19729 -0.01025,-0.29542z" fill="url(#color-23)" opacity="0.16"/><path d="M247.42339,182.39794c0,0 -1.30785,1.66284 -1.30785,3.56856c0,1.90572 -0.85938,2.20465 -1.41997,1.41997c0.87195,-0.02515 0.94672,-0.75961 0.94672,-1.54436c0,-0.78475 0.06212,-2.61061 1.78057,-3.44439z" fill="url(#color-24)" opacity="0.5"/><path d="M241.5817,185.24432c0,0 -1.29558,0.04962 -1.7936,1.36975c-0.49802,1.32065 -1.32042,3.61234 -2.6904,1.99329c1.09619,0.32341 1.47019,-0.3743 2.04291,-1.51981c0.57332,-1.14588 0.99694,-1.94299 2.44146,-1.8427z" fill="url(#color-25)"/><path d="M252.16934,177.82039c0,0 2.91463,-1.34527 3.81143,-2.76517c0,1.56944 0.29893,2.54093 -0.4484,3.4378c-0.74726,0.89672 -1.3452,1.7189 -1.49466,2.39146c-0.44832,-1.64361 -0.59802,-2.83964 -1.86814,-3.06343z" fill="url(#color-26)" opacity="0.33"/></g></g></svg>