<?xml version="1.0" encoding="UTF-8" standalone="no"?>
<!-- Uploaded to: SVG Repo, www.svgrepo.com, Generator: SVG Repo Mixer Tools -->

<svg
   width="140"
   height="139.72089"
   viewBox="0 0 179.2 178.84273"
   class="icon"
   version="1.1"
   id="svg1238"
   sodipodi:docname="house-svgrepo-com.svg"
   inkscape:version="1.2.2 (732a01da63, 2022-12-09)"
   xmlns:inkscape="http://www.inkscape.org/namespaces/inkscape"
   xmlns:sodipodi="http://sodipodi.sourceforge.net/DTD/sodipodi-0.dtd"
   xmlns="http://www.w3.org/2000/svg"
   xmlns:svg="http://www.w3.org/2000/svg">
  <defs
     id="defs1242" />
  <sodipodi:namedview
     id="namedview1240"
     pagecolor="#ffffff"
     bordercolor="#000000"
     borderopacity="0.25"
     inkscape:showpageshadow="2"
     inkscape:pageopacity="0.0"
     inkscape:pagecheckerboard="0"
     inkscape:deskcolor="#d1d1d1"
     showgrid="false"
     inkscape:zoom="1.04625"
     inkscape:cx="399.5221"
     inkscape:cy="398.56631"
     inkscape:window-width="1920"
     inkscape:window-height="1017"
     inkscape:window-x="1912"
     inkscape:window-y="-8"
     inkscape:window-maximized="1"
     inkscape:current-layer="svg1238" />
  <path
     d="m 86.8,21.449126 -70,69.9944 V 178.84273 H 162.4 V 97.043526 Z"
     fill="#eaeaea"
     id="path1222"
     style="stroke-width:0.175" />
  <path
     d="M 44.8,117.24273 H 84 v 61.6 H 44.8 Z"
     fill="#434854"
     id="path1224"
     style="stroke-width:0.175" />
  <path
     d="M 95.2,111.64273 H 112 v 16.8 H 95.2 Z m 22.4,0 h 16.8 v 16.8 h -16.8 z m 0,-22.400004 h 16.8 v 16.800004 h -16.8 z m -22.4,0 H 112 V 106.04273 H 95.2 Z"
     fill="#469fcc"
     id="path1226"
     style="stroke-width:0.175" />
  <path
     d="M 95.2,89.242726 H 112 v 5.6 H 95.2 Z m 22.4,0 h 16.8 v 5.6 H 117.6 Z M 95.2,111.64273 H 112 v 5.6 H 95.2 Z m 22.4,0 h 16.8 v 5.6 h -16.8 z"
     fill=""
     id="path1228"
     style="stroke-width:0.175" />
  <path
     d="m 86.8,10.842726 -70,72.8 v 16.800004 l 70,-70.000004 75.6,75.600004 V 89.242726 Z"
     fill=""
     id="path1230"
     style="stroke-width:0.175" />
  <path
     d="M 177.2008,88.083526 94.7184,5.6011265 l -3.9592,-3.9592 a 5.5944,5.5944 0 0 0 -7.9184,0 l -3.9592,3.9592 L 1.9992,82.483526 a 5.5944,5.5944 0 0 0 0,7.9184 l 3.9592,3.9592 a 5.5944,5.5944 0 0 0 7.9184,0 l 72.9232,-72.912 78.5176,78.517601 a 5.5944,5.5944 0 0 0 7.9184,0 l 3.9592,-3.959201 a 5.6056,5.6056 0 0 0 0.006,-7.924 z"
     fill="#ef4d4d"
     id="path1232"
     style="stroke-width:0.175" />
  <path
     d="m 41.692,178.84273 a 22.1648,22.1648 0 0 0 3.108,-11.2 22.4,22.4 0 0 0 -44.8,0 c 0,4.0992 1.1816,7.8904 3.108,11.2 z m 115.108,-33.6 a 22.3552,22.3552 0 0 0 -20.3392,13.132 16.5984,16.5984 0 0 0 -7.6608,-1.932 16.8,16.8 0 0 0 -16.8,16.8 c 0,1.9768 0.4032,3.8416 1.0304,5.6 h 63.0672 a 22.2152,22.2152 0 0 0 3.1024,-11.2 22.4,22.4 0 0 0 -22.4,-22.4 z"
     fill="#3aad73"
     id="path1234"
     style="stroke-width:0.175" />
  <path
     d="m 136.4608,158.37473 a 16.5984,16.5984 0 0 0 -7.6608,-1.932 16.8,16.8 0 0 0 -16.8,16.8 c 0,1.9768 0.4032,3.8416 1.0304,5.6 h 24.4776 a 22.1648,22.1648 0 0 1 -3.108,-11.2 c 0,-3.3152 0.7672,-6.4344 2.0608,-9.268 z"
     fill=""
     id="path1236"
     style="stroke-width:0.175" />
</svg>
