<svg xmlns="http://www.w3.org/2000/svg" width="138.059" height="99.823" viewBox="0 0 176.715 127.774" xmlns:v="https://vecta.io/nano"><path d="M174.057 101.981l-47.004-50.775L173.589 0z" fill="#f8b62d"/><path d="M172.589.886h4.126v101.095h-4.126z" fill="#f39800"/><g fill="#f8b62d"><path d="M149.872 40.587l-.114 17.617-97.627-.658.127-17.617z"/><path d="M97.198 127.609H57.674c-21.705 0-39.347-18.035-39.347-40.208v-7.264c0-22.16 17.642-40.208 39.347-40.208h93.641v17.794H57.674c-11.884 0-21.553 10.049-21.553 22.414v7.264c0 12.365 9.669 22.414 21.553 22.414h39.524z"/><path d="M95.831 127.774v-17.782c11.871 0 21.54-10.061 21.54-22.414v-7.264h17.794v7.252c.013 22.186-17.642 40.208-39.334 40.208z"/></g><path d="M54.586 27.413h8.252v60.925h-8.252zm18.655 0h8.252v60.925h-8.252zm19.072-1.987h8.252v60.938h-8.252z" fill="#f39800"/><path d="M54.168 91.325a24.844 12.074 0 1 0 49.687 0 24.844 12.074 0 1 0-49.687 0zm-2.366-71.24H65.61v8.264H51.802zm18.667 0h13.808v8.264H70.469zm19.072 0h13.808v8.264H89.541z" fill="#f8b62d"/><path d="M14.619 59.9a7.454 7.454 0 0 1-7.315 7.581A7.454 7.454 0 0 1 .001 59.9V40.942c0-4.189 3.265-7.581 7.302-7.581a7.467 7.467 0 0 1 7.315 7.581z" fill="#f39800"/><path d="M40.74 39.942H18.061v24.476h1.164c2.911-11.403 11.137-20.325 21.528-23.363v-1.114z" fill="#f8b62d"/></svg>