<?xml version="1.0" encoding="UTF-8" standalone="no"?>
<!-- Uploaded to: SVG Repo, www.svgrepo.com, Generator: SVG Repo Mixer Tools -->

<svg
   width="145.53241"
   height="147.03481"
   viewBox="0 0 11.642593 11.762784"
   version="1.1"
   id="svg157"
   sodipodi:docname="c0a766bbf7ba2b7c813d5377570ea111.svg"
   inkscape:version="1.2.2 (732a01da63, 2022-12-09)"
   xmlns:inkscape="http://www.inkscape.org/namespaces/inkscape"
   xmlns:sodipodi="http://sodipodi.sourceforge.net/DTD/sodipodi-0.dtd"
   xmlns="http://www.w3.org/2000/svg"
   xmlns:svg="http://www.w3.org/2000/svg">
  <defs
     id="defs161" />
  <sodipodi:namedview
     id="namedview159"
     pagecolor="#ffffff"
     bordercolor="#000000"
     borderopacity="0.25"
     inkscape:showpageshadow="2"
     inkscape:pageopacity="0.0"
     inkscape:pagecheckerboard="0"
     inkscape:deskcolor="#d1d1d1"
     showgrid="false"
     inkscape:zoom="1.04625"
     inkscape:cx="399.5221"
     inkscape:cy="399.5221"
     inkscape:window-width="1920"
     inkscape:window-height="1017"
     inkscape:window-x="1912"
     inkscape:window-y="-8"
     inkscape:window-maximized="1"
     inkscape:current-layer="svg157" />
  <path
     d="M 2.1508719,2.9443247 0.93592769,1.9154327 a 0.56488184,0.56488184 0 0 1 -0.7374847,-0.05604 C -0.15572891,1.5141873 -0.02571641,0.85067526 0.50778309,0.61754946 1.0412826,0.38442356 1.6554795,0.44046346 1.8527398,0.80584336 2.0500002,1.1712233 1.6666875,1.4783218 1.6666875,1.4783218 L 2.8143839,2.2852959 A 5.65106,5.65106 0 0 1 4.9147582,1.0053453 c 1.327024,-0.44831894 3.315318,0.2622666 3.586551,0.3833127 0.271233,0.1210461 0.513325,0.2622666 0.513325,0.2622666 l 0.636613,-0.569365 c 0,0 -0.336239,-0.58953944 0.195019,-0.90336274 a 1.1454548,1.1454548 0 0 1 1.5825658,0.3564136 C 11.821111,1.1129419 11.641783,1.6912733 11.148632,1.803353 A 1.1342469,1.1342469 0 0 1 10.278894,1.6352334 L 9.7095292,2.2337392 c 0,0 0.8316308,0.6904111 0.9616438,2.1676218 A 8.4463284,8.4463284 0 0 1 10.157848,8.164998 C 9.8104002,8.976456 9.4113972,9.752047 9.4113972,9.752047 c 0,0 0.7935238,-0.159153 1.2037358,0.300374 0.410212,0.459527 0.504359,0.802491 0.625405,0.840598 0.121046,0.03811 0.244334,0.04483 0.132254,0.260025 a 0.68816954,0.68816954 0 0 1 -0.636613,0.289166 1.4772108,1.4772108 0 0 0 -0.625405,-0.05604 c -0.1501871,0.05604 -0.6724778,0.327273 -1.2037358,0.09415 -0.531258,-0.233126 -0.719552,-0.271233 -1.008718,-0.22416 -0.289165,0.04707 -0.896638,0.392279 -1.50411,0.363139 a 2.9566633,2.9566633 0 0 1 -0.961644,-0.224163 c -0.07621,0 -0.560398,0.401246 -1.120797,0.36538 -0.5603987,-0.03587 -0.5985058,-0.2533 -1.028892,-0.224159 -0.4303862,0.02914 -1.0087176,0.177086 -1.2777089,0.195018 -0.2689914,0.01793 -0.6926528,0.03811 -0.8226652,-0.03586 -0.1300125,-0.07397 -0.1300125,-0.654546 0.1770859,-1.037858 a 1.8784563,1.8784563 0 0 1 1.1207973,-0.719552 4.7073486,4.7073486 0 0 1 0.8966379,0.03811 c 0.038107,0 -0.9145706,-1.344957 -1.4570365,-2.95218 C 1.3775218,5.416803 1.5658157,3.8409625 2.1508719,2.9443247 Z"
     fill="#1d1d1b"
     id="path115"
     style="stroke-width:0.224159" />
  <path
     d="m 9.7543612,10.130877 c -0.524534,-0.07397 -0.963886,0.475218 -1.019926,0.522291 -0.05604,0.04707 -0.224159,-0.121046 -0.260025,-0.177086 -0.03586,-0.05604 0,-0.04707 0.09191,-0.206226 a 2.914073,2.914073 0 0 1 0.47746,-0.448319 2.1698636,2.1698636 0 0 1 0.09415,-0.280199 c 0.05604,-0.132255 0.428145,-0.916813 0.672478,-1.569117 A 10.217188,10.217188 0 0 0 10.308042,4.802607 C 10.28786,3.699742 9.9157552,2.5991191 8.7568512,2.0275125 7.5979472,1.4559059 6.6094032,1.151049 5.0851192,1.4581475 3.5608349,1.7652459 3.1797638,2.466865 3.1797638,2.466865 L 3.8634502,2.9913981 C 3.9620803,3.0653708 3.2313205,3.888036 3.1192408,3.8521705 3.0744089,3.8387209 2.4467624,3.2603895 2.4467624,3.2603895 A 2.1945211,2.1945211 0 0 0 2.1105232,4.0920211 C 1.9805107,4.672594 1.9894771,5.661137 2.3458907,6.923155 2.7023042,8.185173 3.6729146,9.864127 3.6729146,9.864127 a 5.2094658,5.2094658 0 0 1 0.5828146,-0.168119 0.414695,0.414695 0 0 1 0.336239,0.07621 c 0,0 0.05604,0.147945 -0.01121,0.177086 a 7.3277727,7.3277727 0 0 1 -0.8674968,0.336239 c -0.448319,0.138979 -0.7374847,-0.02914 -1.327024,0.04707 -0.5895394,0.07621 -0.8607724,0.919054 -0.8607724,1.017684 0,0.09863 0.3272728,0.06501 0.6433377,0.03587 0.3160648,-0.02914 0.7374846,-0.280199 0.9907848,-0.289166 0.2533002,-0.009 0.486426,0.16812 1.0826897,0.188294 a 1.3808223,1.3808223 0 0 0 0.961645,-0.30934 c 0.19726,-0.103113 0.459526,-0.578331 0.804732,-0.672478 0.345206,-0.09415 0.504359,-0.01793 0.858531,0.09415 a 1.6498136,1.6498136 0 0 0 0.793524,0 0.17708597,0.17708597 0 0 1 0.150187,0.04707 c 0.05604,0.04483 -0.159153,0.354172 -0.533499,0.448319 -0.374347,0.09415 -1.22167,-0.203985 -1.344957,-0.177086 -0.123288,0.0269 -0.177086,0.280199 -0.138979,0.318307 a 2.9432137,2.9432137 0 0 0 1.046825,0.150186 c 0.466251,-0.02017 0.85853,-0.318306 1.483935,-0.336239 0.625405,-0.01793 0.961644,0.325031 1.120798,0.372105 0.159153,0.04707 0.392279,-0.103113 0.5693648,-0.159153 0.177086,-0.05604 0.580573,0 0.627646,-0.04483 0.04707,-0.04483 -0.36538,-0.815941 -0.8876708,-0.88543 z"
     fill="#696a9b"
     id="path117"
     style="stroke-width:0.224159" />
  <path
     d="m 9.2858672,1.7293804 c 0.02914,-0.017933 0.654546,-0.6074721 0.654546,-0.6074721 0,0 -0.354172,-0.44831904 0.09415,-0.74645104 0.448319,-0.2981321 1.035617,-0.017933 1.268742,0.4012454 C 11.536431,1.1958809 11.238295,1.5904015 10.967066,1.5612608 10.695833,1.5321198 10.388735,1.3191686 10.276655,1.3662421 10.164575,1.4133161 9.6221092,2.0185461 9.5750362,2.0095797 A 2.1765883,2.1765883 0 0 1 9.2858672,1.7293804 Z"
     fill="#92a0d1"
     id="path119"
     style="stroke-width:0.224159" />
  <path
     d="m 3.1035496,3.9440758 a 1.0580326,1.0580326 0 0 0 0.9616446,-0.047073 1.4996268,1.4996268 0 0 0 0.542465,-0.7374847 0.14122046,0.14122046 0 0 1 0.16812,0.05604 c 0.04707,0.065006 -0.08518,0.5402243 -0.448319,0.8024909 A 1.1544212,1.1544212 0 0 1 3.4487552,4.289281 C 3.1506231,4.269111 3.0945832,4.269111 3.0475098,4.213071 3.0004358,4.157031 3.0654428,3.9440798 3.1035498,3.9440798 Z"
     fill="#1d1d1b"
     id="path121"
     style="stroke-width:0.224159" />
  <path
     d="m 2.7493777,5.156779 c 0.04259,-0.06277 0.1860523,0 0.177086,0.08518 a 1.3763391,1.3763391 0 0 0 0.065006,0.793525 C 3.1506229,6.454662 3.2335619,6.46587 3.1976964,6.530876 3.1618314,6.595886 3.0385432,6.660888 2.9735369,6.622786 A 1.8537987,1.8537987 0 0 1 2.6866128,5.871852 1.0625158,1.0625158 0 0 1 2.7493778,5.156784 Z"
     fill="#1d1d1b"
     id="path123"
     style="stroke-width:0.224159" />
  <path
     d="m 5.1389172,5.277825 a 0.8674971,0.8674971 0 0 1 0.336239,-0.513326 c 0.300374,-0.224159 0.47746,-0.242092 0.524534,-0.224159 0.04707,0.01793 0.100871,0.11208 0.06501,0.159153 -0.03587,0.04707 -0.327273,0.05156 -0.524533,0.275716 -0.197261,0.22416 -0.195019,0.410212 -0.242092,0.419179 -0.04707,0.009 -0.11208,-0.08742 -0.159154,-0.116563 z"
     fill="#1d1d1b"
     id="path125"
     style="stroke-width:0.224159" />
  <path
     d="m 7.7638252,3.9149351 a 1.0019928,1.0019928 0 0 1 0.672478,0.2533002 C 8.7635762,4.448435 8.8106492,4.690527 8.7725422,4.7376 A 0.42590297,0.42590297 0 0 1 8.6133892,4.82054 0.82939,0.82939 0 0 0 8.3062902,4.302732 1.7932757,1.7932757 0 0 0 7.7548582,4.1166796 c -0.03811,-0.00448 -0.04707,-0.1636364 0.009,-0.2017435 z"
     fill="#1d1d1b"
     id="path127"
     style="stroke-width:0.224159" />
  <path
     d="m 6.4749082,5.782183 c 0.255541,-0.105355 0.589539,0.11208 0.634371,0.515567 0.04483,0.403487 -0.04483,0.672479 -0.316065,0.672479 -0.271233,0 -0.542466,-0.356414 -0.589539,-0.580573 a 0.48866762,0.48866762 0 0 1 0.271233,-0.607473 z"
     fill="#1d1d1b"
     id="path129"
     style="stroke-width:0.224159" />
  <path
     d="m 6.5578472,6.051175 c 0.136737,-0.05604 0.316065,0.06052 0.340722,0.275716 0.02466,0.215193 -0.02466,0.356413 -0.170361,0.360897 -0.145704,0.0045 -0.289166,-0.190536 -0.316065,-0.30934 a 0.26450816,0.26450816 0 0 1 0.145704,-0.327273 z"
     fill="#cbe7f5"
     id="path131"
     style="stroke-width:0.224159" />
  <path
     d="m 7.8938372,5.389904 c 0.26675,-0.177086 0.524533,0.02914 0.515567,0.607472 A 1.078207,1.078207 0 0 1 7.7929652,6.950054 0.2914073,0.2914073 0 0 1 7.3939612,6.642956 c 0,-0.30934 0.248817,-1.084932 0.499876,-1.253052 z"
     fill="#1d1d1b"
     id="path133"
     style="stroke-width:0.224159" />
  <path
     d="m 8.0350582,5.596131 c 0.09863,-0.02914 0.262266,0.327273 0.08294,0.701619 -0.179328,0.374346 -0.363139,0.410212 -0.410212,0.381071 -0.04707,-0.02914 -0.0269,-0.289165 0.06501,-0.587298 0.0919,-0.298132 0.16812,-0.466251 0.262267,-0.495392 z"
     fill="#cbe7f5"
     id="path135"
     style="stroke-width:0.224159" />
  <g
     fill="#1d1d1b"
     id="g153"
     transform="matrix(0.22415946,0,0,0.22415946,-1.3482572,-1.3012555)">
    <path
       d="m 31.65,39.85 c 0.75,-0.15 1.25,0.55 2.08,1.42 0.83,0.87 0.84,1.5 2.21,1.63 1.37,0.13 1.92,-0.17 2,0.12 0.08,0.29 0.17,0.46 -0.12,0.67 -0.29,0.21 -2.09,1.25 -5.17,0.08 -3.08,-1.17 -3.58,-3.37 -1,-3.92 z"
       id="path137" />
    <path
       d="m 48.44,34.9 c 0.23,-0.14 1.59,0.83 1.46,1.16 -0.13,0.33 -0.08,0.42 -0.33,0.42 A 3.84,3.84 0 0 1 47.86,35.6 c -0.13,-0.29 0.29,-0.54 0.58,-0.7 z"
       id="path139" />
    <path
       d="m 46.23,37.27 c 0.14,-0.1 2.55,0.79 2.55,1.17 0,0.38 -0.21,0.79 -0.42,0.79 a 12.17,12.17 0 0 1 -2.67,-1 2.42,2.42 0 0 1 0.54,-0.96 z"
       id="path141" />
    <path
       d="m 45.32,39.85 c 0.37,-0.06 3,1.59 3,1.84 0,0.25 -0.09,0.46 -0.3,0.46 -0.21,0 -3.25,-1.25 -3.25,-1.59 a 0.83,0.83 0 0 1 0.55,-0.71 z"
       id="path143" />
    <path
       d="m 43.86,42.19 c 0.27,-0.27 3.37,1.75 3.37,2 0,0.25 -0.12,0.46 -0.33,0.46 a 17,17 0 0 1 -3.37,-1.71 c -0.09,-0.25 0.2,-0.63 0.33,-0.75 z"
       id="path145" />
    <path
       d="m 42.57,44.27 c 0.24,-0.08 3.71,2.13 3.66,2.46 a 0.75,0.75 0 0 1 -0.29,0.5 31.8,31.8 0 0 1 -4,-1.92 1.94,1.94 0 0 1 0.63,-1.04 z"
       id="path147" />
    <path
       d="m 41.19,47 c 0,0 3.88,2.08 3.79,2.29 -0.09,0.21 0,0.38 -0.33,0.38 -0.33,0 -3.75,-1.13 -3.87,-1.46 C 40.66,47.88 40.94,47 41.19,47 Z"
       id="path149" />
    <path
       d="m 40.23,49.31 c 0.29,-0.09 2.17,1.13 2.05,1.42 -0.12,0.29 -0.09,0.42 -0.3,0.33 a 13.75,13.75 0 0 1 -2.37,-1 2,2 0 0 1 0.62,-0.75 z"
       id="path151" />
  </g>
  <path
     d="M 3.5092782,3.1012363 C 2.9287052,2.6865413 1.3483811,1.4872882 1.3573474,1.4402147 1.3663138,1.3931412 1.6734123,1.233988 1.5613325,0.99189579 1.4492528,0.74980356 1.0861145,0.71617956 0.82384789,0.77670266 0.29258999,0.90671516 0.11550399,1.4872882 0.37552899,1.6733405 c 0.260025,0.1860524 0.5334995,-0.038107 0.61643851,-0.026899 0.082939,0.011208 1.7439606,1.4346205 2.1653804,1.81345 z"
     fill="#92a0d1"
     id="path155"
     style="stroke-width:0.224159" />
</svg>
