<svg xmlns="http://www.w3.org/2000/svg" xmlns:xlink="http://www.w3.org/1999/xlink" width="95.187" height="136.967" viewBox="0 0 7.615 10.957" xmlns:v="https://vecta.io/nano"><path d="M1.48 6.233a7.223 7.223 0 0 1 .284-2.539A10.033 10.033 0 0 1 3.328.673c.417-.583.689-.707.967-.665S5.401 1.19 5.893 2.628s.423 3.28.423 3.48v.316s.973-.132 1.198.983.05 2.097-.316 2.73-.941.691-.999.599.2-1.033-.042-1.666-.425-.681-.425-.681a2.896 2.896 0 0 1-.274.599 1.316 1.316 0 0 1-.35.05s.016.415-.026.423-.707 0-.707 0-.142 1.332-.25 1.424-.731.1-.731 0-.226-1.408-.226-1.408-.374-.032-.384-.074-.074-.441-.074-.441a.883.883 0 0 1-.294-.084c-.05-.05-.433-.599-.433-.599a2.371 2.371 0 0 0-.499 1.099c-.05.557.326 1.18.292 1.238s-.599.142-1.198-.781S-.12 8.037.122 7.262.999 6.199 1.48 6.233z" fill="#1d1d1b"/><path d="M3.062 1.713c.034-.042.907-1.414 1.149-1.398s.949 1.324.899 1.348a3.424 3.424 0 0 0-1.057-.1 4.57 4.57 0 0 0-.991.15z" fill="#e7413e"/><path d="M2.787 2.047a3.314 3.314 0 0 1 1.34-.258c.749.016 1.083.166 1.125.216a7.285 7.285 0 0 1 .599 1.782 5.445 5.445 0 0 1 .082.965s-.224-.292-.274-.268-.076.134-.076.134a3.256 3.256 0 0 1 .35.342 19.51 19.51 0 0 0 .026.399s-.425-.541-.475-.515-.108.092-.082.124l.565.641a1.784 1.784 0 0 1 0 .366l-.683-.691c-.034 0-.124.084-.058.126a8.988 8.988 0 0 1 .733.815c0 .042-.026.449-.026.449l-.731-.815c-.032.008-.084.084-.068.116s.775.825.775.899a3.298 3.298 0 0 1-.084.399l-.765-.941c-.024.008-.108.068-.092.1s.815.999.799 1.075a.961.961 0 0 1-.108.324c-.034.018-.723-.907-.757-.907s-.084.092-.084.092a12.338 12.338 0 0 1 .725 1.015c-.018.05-.092.2-.092.2l-.635-.773c-.028-.008-.116.1-.084.134a8.08 8.08 0 0 1 .667.799c-.018.042-.1.292-.1.292h-.126a4.111 4.111 0 0 0-.399-.517c-.05 0-.108.084-.108.118s.342.399.308.415-.491.016-.491.016L4.5 6.857a.449.449 0 0 0-.483-.242 3.733 3.733 0 0 0-.957.308c-.2.11-.15.491-.126.641a10.029 10.029 0 0 1 .152 1.115 1.848 1.848 0 0 1-.431 0c-.036-.024-.733-.781-.835-2.171a8.068 8.068 0 0 1 .541-3.438l.425-1.023z" fill="#a42116"/><path d="M3.304 7.164c.024-.124.841-.258.873-.158s-.242 3.561-.292 3.595-.166.092-.2.026-.423-3.256-.382-3.464z" fill="#e7413e"/><path d="M2.928 8.996c.042 0 .158-.042.176 0s.042.266.016.258-.174.034-.2-.016a1.274 1.274 0 0 1 .008-.242zm1.532-.008a1.904 1.904 0 0 1 .441.024c0 .034 0 .268-.026.268a2.659 2.659 0 0 1-.459-.018c0-.024.044-.274.044-.274z" fill="#f2910d"/><path d="M6.324 6.733a2.035 2.035 0 0 1 .617.258c.2.142.308 1.023.308 1.023L6.7 7.68c-.024 0-.076.158-.026.182a4.968 4.968 0 0 1 .575.342 4.558 4.558 0 0 1 0 .457 2.816 2.816 0 0 0-.499-.292c-.026.034-.026.15.024.176a1.924 1.924 0 0 1 .449.334 2.137 2.137 0 0 1-.024.384l-.018.076s-.35-.25-.399-.234-.1.084-.05.134.399.274.376.324a1.49 1.49 0 0 1-.284.491 1.312 1.312 0 0 1-.308.216s.176-1.131-.124-1.63-.475-.533-.475-.533a7.073 7.073 0 0 0 .25-.783l.158-.589zm-4.876-.192a4.316 4.316 0 0 0 .172.939l.2.599s-.308.116-.533.773a1.87 1.87 0 0 0-.058 1.133s-.5-.292-.765-1.433.176-1.896.985-2.011z" fill="#e7413e"/><path d="M1.107 7.14l.074.166a.599.599 0 0 0-.25.184c-.092.124-.042.316-.082.332s-.15.026-.168 0a.999.999 0 0 1 .076-.441.435.435 0 0 1 .35-.24zm2.72-4.512c.453-.162 1.198.1 1.266 1.075S4.044 5.351 3.403 4.76s-.625-1.756.423-2.131z" fill="#1d1d1b"/><path d="M4.027 2.886a.627.627 0 0 1 .641.499 3.01 3.01 0 0 1 .058.625 4.768 4.768 0 0 0-.399-.665c-.05 0-.158.066-.134.1a5.619 5.619 0 0 1 .441.773.599.599 0 0 1-.741.35c-.515-.15-.723-.815-.599-1.172s.391-.483.733-.509z" fill="#ddc07c"/><g fill="#1d1d1b"><path d="M3.695 3.219c.027-.009.057-.005.08.012s.037.043.036.072c0 .05-.184.184-.184.3s.042.15-.024.174-.226.01-.226-.04a.74.74 0 0 1 .076-.36.4.4 0 0 1 .242-.158zm.224.4c0-.036.116-.108.166-.05s.332.515.284.567-.084.108-.134.074c-.131-.182-.237-.381-.316-.591zm-.092.265c.05-.018.226.35.2.376s-.116.066-.158.034a.91.91 0 0 1-.184-.284.36.36 0 0 1 .142-.126zm.052-1.797c.036-.003.07.014.09.044s.021.068.004.1-.054.053-.091.055-.074-.015-.097-.045c-.015-.033-.013-.071.005-.102s.052-.05.088-.052zm.561.01c.036-.004.071.013.091.043s.022.069.005.101-.054.053-.091.055-.074-.015-.097-.045c-.016-.032-.015-.071.003-.102s.052-.051.088-.052z"/><use xlink:href="#B"/><path d="M5.235 2.984c.036-.004.071.013.091.043s.022.069.005.101-.054.052-.092.054-.074-.015-.097-.044c-.015-.033-.013-.071.005-.102s.052-.05.088-.052z"/><use xlink:href="#B" x="0.421" y="1.161"/><path d="M5.327 4.166c.036-.004.07.013.09.042s.021.068.004.099-.053.054-.091.056-.074-.015-.097-.046c-.016-.033-.014-.071.005-.102s.052-.05.089-.05z"/><use xlink:href="#C"/><path d="M4.383 5.101c.036-.003.07.014.09.044s.021.068.004.1-.053.054-.091.056-.074-.015-.097-.046c-.015-.033-.013-.071.005-.102s.052-.05.088-.052z"/><use xlink:href="#B" x="-1.352" y="2.705"/><use xlink:href="#D"/><use xlink:href="#D" x="-0.331" y="-0.649"/><use xlink:href="#B" x="-2.267" y="0.815"/><use xlink:href="#C" x="-1.99" y="-2.201"/><use xlink:href="#C" x="-1.548" y="-2.536"/></g><defs ><path id="B" d="M4.922 2.434c.036-.004.071.013.091.043s.022.069.005.101-.054.053-.091.055-.074-.015-.097-.045c-.015-.033-.014-.071.005-.101s.051-.051.087-.052z"/><path id="C" d="M4.994 4.823c.036-.004.071.013.091.043s.022.069.005.101-.056.049-.094.049-.073-.018-.094-.049c-.012-.031-.009-.067.01-.095s.049-.046.082-.049z"/><path id="D" d="M2.95 4.701c.036-.004.071.013.091.043s.022.069.005.101-.053.054-.091.056-.074-.015-.097-.046c-.015-.033-.014-.071.005-.101s.051-.051.087-.052z"/></defs></svg>