<svg width="140" height="121.538" viewBox="0 0 179.2 155.569" class="prefix__icon" xmlns="http://www.w3.org/2000/svg"><path d="M164.576 50.613c-1.063-1.786-3.61-3.23-5.677-3.23H20.32c-2.066 0-4.614 1.444-5.677 3.23L3.811 68.807c-1.063 1.786-.24 3.23 1.826 3.23h167.926c2.066 0 2.889-1.444 1.826-3.23z" fill="#00b3e3"/><path d="M167.404 55.387h-65.156v5.737h68.587zM8.385 61.124H76.21v-5.737H11.816z"/><path d="M108.748 71.114L89.228 39.78 69.69 71.114H4.153v75.829h170.132V71.114z" fill="#d1d3d3"/><path d="M114.846 75.187c-1.424 0-3.19-.983-3.952-2.187l-1.183-1.886h-.983L90.533 41.906c-.863-.4-1.786-.4-2.668 0L69.67 71.114h-.943L67.544 73c-.763 1.204-2.528 2.187-3.952 2.187H4.152v10.07h62.63c1.424 0 3.169-1.003 3.87-2.227L85.94 59.62c1.785-3.05 4.734-3.05 6.52 0l15.286 23.41c.722 1.224 2.447 2.227 3.871 2.227h62.63v-10.07z"/><path d="M157.755 87.082h16.53v7.944h-16.53zm-49.549 16.45h16.53v7.944h-16.53zm29.91 28.225h16.53v7.944h-16.53zm-85.758 2.126h16.53v7.944h-16.53zM4.153 94.705h16.53v7.944H4.152zm39.94-16.45h16.53V86.2h-16.53z" fill="#a4a9ad"/><path d="M75.026 107.905h28.386v39.038H75.026z" fill="#333e48"/><path d="M80.442 116.932h5.738v10.813h-5.738zm11.816 0h5.737v10.813h-5.737zm-46.901-15.607h16.69v22.95h-16.69z" fill="#fff"/><path d="M45.357 101.325h16.69v5.056h-16.69z"/><path d="M45.357 109.931h16.69v5.738h-16.69z" fill="#a93439"/><path d="M48.225 121.406h10.953v-17.212H48.225zm13.822 5.737h-16.69a2.868 2.868 0 01-2.869-2.869v-22.949a2.868 2.868 0 012.869-2.868h16.69a2.868 2.868 0 012.869 2.868v22.95a2.868 2.868 0 01-2.869 2.868z" fill="#ff5959"/><path d="M12.98 101.325h16.69v22.95H12.98z" fill="#fff"/><path d="M12.98 101.325h16.69v5.056H12.98z"/><path d="M12.98 109.931h16.69v5.738H12.98z" fill="#a93439"/><path d="M15.848 121.406H26.8v-17.212H15.848zm13.821 5.737H12.98a2.868 2.868 0 01-2.869-2.869v-22.949a2.868 2.868 0 012.87-2.868h16.69a2.868 2.868 0 012.868 2.868v22.95a2.868 2.868 0 01-2.869 2.868z" fill="#ff5959"/><path d="M116.41 101.325h16.691v22.95h-16.69z" fill="#fff"/><path d="M116.41 101.325h16.691v5.056h-16.69z"/><path d="M116.41 109.931h16.691v5.738h-16.69z" fill="#a93439"/><path d="M119.28 121.406h10.952v-17.212H119.28zm13.801 5.737h-16.69a2.868 2.868 0 01-2.869-2.869v-22.949a2.868 2.868 0 012.869-2.868h16.69a2.868 2.868 0 012.869 2.868v22.95a2.868 2.868 0 01-2.869 2.868z" fill="#ff5959"/><path d="M148.768 101.325h16.69v22.95h-16.69z" fill="#fff"/><path d="M148.768 101.325h16.69v5.056h-16.69z"/><path d="M148.768 109.931h16.69v5.738h-16.69z" fill="#a93439"/><path d="M151.637 121.406h10.953v-17.212h-10.953zm13.822 5.737h-16.69a2.868 2.868 0 01-2.87-2.869v-22.949a2.868 2.868 0 012.87-2.868h16.69a2.868 2.868 0 012.868 2.868v22.95a2.868 2.868 0 01-2.868 2.868z" fill="#ff5959"/><path d="M89.229 5.497h33.12v18.977h-33.12z" fill="#ffb819"/><path d="M89.229 5.497h8.666v18.977h-8.666z"/><path d="M89.229 42.649a2.868 2.868 0 01-2.869-2.87V2.87a2.868 2.868 0 115.738 0v36.93c0 1.566-1.284 2.85-2.87 2.85z" fill="#333e48"/><path d="M92.64 36.851c-1.887-3.009-4.956-3.009-6.841 0L67.544 65.979c-.763 1.203-2.528 2.186-3.952 2.186H2.588A2.594 2.594 0 000 70.753v4.915a2.594 2.594 0 002.588 2.588H66.8c1.425 0 3.17-1.003 3.872-2.227l15.286-23.41c1.785-3.05 4.734-3.05 6.52 0l15.286 23.41c.722 1.224 2.447 2.227 3.871 2.227h64.194a2.594 2.594 0 002.588-2.588v-4.915a2.594 2.594 0 00-2.588-2.588h-60.984c-1.424 0-3.19-.983-3.952-2.186z" fill="#0071ce"/><path d="M76.209 87.082a13.02 13.02 0 1026.04 0 13.02 13.02 0 10-26.04 0z" fill="#fff"/><path d="M94.204 84.214h-2.127v-2.127a2.868 2.868 0 10-5.737 0v4.995a2.868 2.868 0 002.869 2.87h4.995a2.868 2.868 0 100-5.738z" fill="#333e48"/><path d="M179.2 154.024c0 .843-.702 1.545-1.545 1.545H1.565a1.558 1.558 0 01-1.545-1.545v-5.537c0-.842.702-1.544 1.545-1.544h176.09c.843 0 1.545.702 1.545 1.544z" fill="#00ad68"/><path d="M66.48 146.943h46.26v8.626H66.48z" fill="#a4a9ad"/><path d="M170.193 146.943c0-7.222-5.858-13.08-13.08-13.08-7.221 0-13.079 5.858-13.079 13.08zm-127.464 0c0-7.222-5.858-13.08-13.08-13.08-7.221 0-13.08 5.858-13.08 13.08z" fill="#218649"/></svg>