<?xml version="1.0" encoding="UTF-8" standalone="no"?>
<!-- Uploaded to: SVG Repo, www.svgrepo.com, Generator: SVG Repo Mixer Tools -->

<svg
   width="140"
   height="121.53812"
   viewBox="0 0 179.2 155.56879"
   class="icon"
   version="1.1"
   id="svg1636"
   sodipodi:docname="school-svgrepo-com.svg"
   inkscape:version="1.2.2 (732a01da63, 2022-12-09)"
   xmlns:inkscape="http://www.inkscape.org/namespaces/inkscape"
   xmlns:sodipodi="http://sodipodi.sourceforge.net/DTD/sodipodi-0.dtd"
   xmlns="http://www.w3.org/2000/svg"
   xmlns:svg="http://www.w3.org/2000/svg">
  <defs
     id="defs1640" />
  <sodipodi:namedview
     id="namedview1638"
     pagecolor="#ffffff"
     bordercolor="#000000"
     borderopacity="0.25"
     inkscape:showpageshadow="2"
     inkscape:pageopacity="0.0"
     inkscape:pagecheckerboard="0"
     inkscape:deskcolor="#d1d1d1"
     showgrid="false"
     inkscape:zoom="1.04625"
     inkscape:cx="347.9092"
     inkscape:cy="302.98686"
     inkscape:window-width="1920"
     inkscape:window-height="1017"
     inkscape:window-x="1912"
     inkscape:window-y="-8"
     inkscape:window-maximized="1"
     inkscape:current-layer="svg1636" />
  <path
     d="m 164.57593,50.61252 c -1.0632,-1.78538 -3.61088,-3.22974 -5.67711,-3.22974 H 20.321236 c -2.066226,0 -4.613904,1.44436 -5.677107,3.22974 L 3.811486,68.80734 c -1.063204,1.78538 -0.240726,3.22974 1.8255,3.22974 H 173.56301 c 2.06623,0 2.88871,-1.44436 1.8255,-3.22974 z"
     fill="#00b3e3"
     id="path1574"
     style="stroke-width:0.200604" />
  <path
     d="m 167.40446,55.3869 h -65.15635 v 5.73729 h 68.58668 z M 8.385268,61.12419 H 76.20965 V 55.3869 H 11.815605 Z"
     fill=""
     id="path1576"
     style="stroke-width:0.200604" />
  <path
     d="M 108.7477,71.1143 89.22888,39.77987 69.69,71.1143 H 4.152513 v 75.8285 H 174.28519 V 71.1143 Z"
     fill="#d1d3d3"
     id="path1578"
     style="stroke-width:0.200604" />
  <path
     d="m 114.84608,75.18657 c -1.4243,0 -3.18962,-0.98297 -3.95191,-2.18659 L 109.7106,71.1143 h -0.98296 L 90.53281,41.90628 c -0.8626,-0.40121 -1.78538,-0.40121 -2.66804,0 L 69.66994,71.1143 H 68.7271 l -1.18356,1.88568 c -0.7623,1.20362 -2.52762,2.18659 -3.95191,2.18659 H 4.152513 V 85.25691 H 66.78124 c 1.42429,0 3.16955,-1.00302 3.87166,-2.22671 L 85.93897,59.61966 c 1.78538,-3.04919 4.73426,-3.04919 6.51964,0 l 15.28607,23.41054 c 0.72217,1.22369 2.44737,2.22671 3.87166,2.22671 h 62.62873 V 75.18657 Z"
     fill=""
     id="path1580"
     style="stroke-width:0.200604" />
  <path
     d="m 157.75538,87.08241 h 16.52981 v 7.94394 h -16.52981 z m -49.54931,16.44957 h 16.52981 v 7.94394 h -16.52981 z m 29.91013,28.22506 h 16.52981 v 7.94393 H 138.1162 Z m -85.75843,2.1264 h 16.52982 v 7.94394 H 52.35777 Z M 4.152513,94.70538 h 16.529811 v 7.94394 H 4.152513 Z M 44.09287,78.25582 h 16.52981 v 7.94393 H 44.09287 Z"
     fill="#a4a9ad"
     id="path1582"
     style="stroke-width:0.200604" />
  <path
     d="m 75.02608,107.90516 h 28.38554 V 146.9428 H 75.02608 Z"
     fill="#333e48"
     id="path1584"
     style="stroke-width:0.200604" />
  <path
     d="m 80.4424,116.93236 h 5.73729 v 10.81259 H 80.4424 Z m 11.81561,0 h 5.73729 v 10.81259 H 92.25801 Z M 45.35668,101.32533 h 16.69029 v 22.94916 H 45.35668 Z"
     fill="#ffffff"
     id="path1586"
     style="stroke-width:0.200604" />
  <path
     d="m 45.35668,101.32533 h 16.69029 v 5.05524 H 45.35668 Z"
     fill=""
     id="path1588"
     style="stroke-width:0.200604" />
  <path
     d="m 45.35668,109.93127 h 16.69029 v 5.73728 H 45.35668 Z"
     fill="#a93439"
     id="path1590"
     style="stroke-width:0.200604" />
  <path
     d="M 48.22532,121.40584 H 59.17833 V 104.19398 H 48.22532 Z m 13.82165,5.73729 H 45.35668 c -1.58478,0 -2.86865,-1.28387 -2.86865,-2.86864 v -22.94916 c 0,-1.58477 1.28387,-2.86864 2.86865,-2.86864 h 16.69029 c 1.58478,0 2.86865,1.28387 2.86865,2.86864 v 22.94916 c 0,1.58477 -1.28387,2.86864 -2.86865,2.86864 z"
     fill="#ff5959"
     id="path1592"
     style="stroke-width:0.200604" />
  <path
     d="m 12.979111,101.32533 h 16.690295 v 22.94916 H 12.979111 Z"
     fill="#ffffff"
     id="path1594"
     style="stroke-width:0.200604" />
  <path
     d="m 12.979111,101.32533 h 16.690295 v 5.05524 H 12.979111 Z"
     fill=""
     id="path1596"
     style="stroke-width:0.200604" />
  <path
     d="m 12.979111,109.93127 h 16.690295 v 5.73728 H 12.979111 Z"
     fill="#a93439"
     id="path1598"
     style="stroke-width:0.200604" />
  <path
     d="M 15.847756,121.40584 H 26.800761 V 104.19398 H 15.847756 Z m 13.82165,5.73729 H 12.979111 c -1.584775,0 -2.868644,-1.28387 -2.868644,-2.86864 v -22.94916 c 0,-1.58477 1.283869,-2.86864 2.868644,-2.86864 h 16.690295 c 1.584775,0 2.868644,1.28387 2.868644,2.86864 v 22.94916 c 0,1.58477 -1.283869,2.86864 -2.868644,2.86864 z"
     fill="#ff5959"
     id="path1600"
     style="stroke-width:0.200604" />
  <path
     d="m 116.41079,101.32533 h 16.6903 v 22.94916 h -16.6903 z"
     fill="#ffffff"
     id="path1602"
     style="stroke-width:0.200604" />
  <path
     d="m 116.41079,101.32533 h 16.6903 v 5.05524 h -16.6903 z"
     fill=""
     id="path1604"
     style="stroke-width:0.200604" />
  <path
     d="m 116.41079,109.93127 h 16.6903 v 5.73728 h -16.6903 z"
     fill="#a93439"
     id="path1606"
     style="stroke-width:0.200604" />
  <path
     d="m 119.27944,121.40584 h 10.953 v -17.21186 h -10.953 z m 13.80159,5.73729 h -16.6903 c -1.58477,0 -2.86864,-1.28387 -2.86864,-2.86864 v -22.94916 c 0,-1.58477 1.28387,-2.86864 2.86864,-2.86864 h 16.6903 c 1.58477,0 2.86864,1.28387 2.86864,2.86864 v 22.94916 c 0,1.58477 -1.28387,2.86864 -2.86864,2.86864 z"
     fill="#ff5959"
     id="path1608"
     style="stroke-width:0.200604" />
  <path
     d="m 148.7683,101.32533 h 16.69029 v 22.94916 H 148.7683 Z"
     fill="#ffffff"
     id="path1610"
     style="stroke-width:0.200604" />
  <path
     d="m 148.7683,101.32533 h 16.69029 v 5.05524 H 148.7683 Z"
     fill=""
     id="path1612"
     style="stroke-width:0.200604" />
  <path
     d="m 148.7683,109.93127 h 16.69029 v 5.73728 H 148.7683 Z"
     fill="#a93439"
     id="path1614"
     style="stroke-width:0.200604" />
  <path
     d="m 151.63694,121.40584 h 10.95301 v -17.21186 h -10.95301 z m 13.82165,5.73729 H 148.7683 c -1.58478,0 -2.86865,-1.28387 -2.86865,-2.86864 v -22.94916 c 0,-1.58477 1.28387,-2.86864 2.86865,-2.86864 h 16.69029 c 1.58478,0 2.86865,1.28387 2.86865,2.86864 v 22.94916 c 0,1.58477 -1.28387,2.86864 -2.86865,2.86864 z"
     fill="#ff5959"
     id="path1616"
     style="stroke-width:0.200604" />
  <path
     d="m 89.22888,5.49656 h 33.1198 v 18.97719 h -33.1198 z"
     fill="#ffb819"
     id="path1618"
     style="stroke-width:0.200604" />
  <path
     d="M 89.22888,5.49656 H 97.895 v 18.97719 h -8.66612 z"
     fill=""
     id="path1620"
     style="stroke-width:0.200604" />
  <path
     d="m 89.22888,42.64852 c -1.58477,0 -2.86864,-1.28387 -2.86864,-2.86865 V 2.86864 C 86.36024,1.28387 87.64411,0 89.22888,0 c 1.58478,0 2.86865,1.28387 2.86865,2.86864 v 36.93129 c 0,1.56472 -1.28387,2.84859 -2.86865,2.84859 z"
     fill="#333e48"
     id="path1622"
     style="stroke-width:0.200604" />
  <path
     d="m 92.63916,36.85105 c -1.88568,-3.00907 -4.95493,-3.00907 -6.84062,0 l -18.255,29.12777 c -0.7623,1.20363 -2.52762,2.18659 -3.95191,2.18659 H 2.587798 C 1.163506,68.16541 0,69.32892 0,70.75321 v 4.91481 c 0,1.42429 1.163506,2.5878 2.587798,2.5878 H 66.8013 c 1.42429,0 3.16955,-1.00303 3.87167,-2.22671 L 85.95903,52.61856 c 1.78538,-3.04919 4.73426,-3.04919 6.51964,0 l 15.28607,23.41055 c 0.72217,1.22368 2.44737,2.22671 3.87166,2.22671 h 64.19344 c 1.4243,0 2.5878,-1.16351 2.5878,-2.5878 v -4.91481 c 0,-1.42429 -1.1635,-2.5878 -2.5878,-2.5878 h -60.98376 c -1.4243,0 -3.18962,-0.98296 -3.95191,-2.18659 z"
     fill="#0071ce"
     id="path1624"
     style="stroke-width:0.200604" />
  <path
     d="m 89.22888,87.08241 m -13.01923,0 a 13.019232,13.019232 0 1 0 26.03846,0 13.019232,13.019232 0 1 0 -26.03846,0 z"
     fill="#ffffff"
     id="path1626"
     style="stroke-width:0.200604" />
  <path
     d="m 94.20387,84.21377 h -2.1264 v -2.12641 c 0,-1.58477 -1.28387,-2.86864 -2.86865,-2.86864 -1.58477,0 -2.86864,1.28387 -2.86864,2.86864 v 4.99505 c 0,1.58478 1.28387,2.86865 2.86864,2.86865 h 4.99505 c 1.58478,0 2.86865,-1.28387 2.86865,-2.86865 0,-1.58477 -1.28387,-2.86864 -2.86865,-2.86864 z"
     fill="#333e48"
     id="path1628"
     style="stroke-width:0.200604" />
  <path
     d="m 179.2,154.02414 c 0,0.84253 -0.70212,1.54465 -1.54465,1.54465 H 1.564715 c -0.842539,0 -1.544655,-0.70212 -1.544655,-1.54465 v -5.53669 c 0,-0.84254 0.702116,-1.54465 1.544655,-1.54465 H 177.65535 c 0.84253,0 1.54465,0.70211 1.54465,1.54465 z"
     fill="#00ad68"
     id="path1630"
     style="stroke-width:0.200604" />
  <path
     d="m 66.48033,146.9428 h 46.2594 v 8.62599 h -46.2594 z"
     fill="#a4a9ad"
     id="path1632"
     style="stroke-width:0.200604" />
  <path
     d="m 170.19286,146.9428 c 0,-7.22177 -5.85765,-13.07942 -13.07942,-13.07942 -7.22176,0 -13.07941,5.85765 -13.07941,13.07942 z m -127.4641,0 c 0,-7.22177 -5.85765,-13.07942 -13.079415,-13.07942 -7.221762,0 -13.079413,5.85765 -13.079413,13.07942 z"
     fill="#218649"
     id="path1634"
     style="stroke-width:0.200604" />
</svg>
