<svg version="1.1" xmlns="http://www.w3.org/2000/svg" xmlns:xlink="http://www.w3.org/1999/xlink" width="102.651" height="98.375" viewBox="0,0,102.651,98.375"><defs><radialGradient cx="239.99352" cy="219.63015" r="71.99941" gradientUnits="userSpaceOnUse" id="color-1"><stop offset="0" stop-color="#000000"/><stop offset="1" stop-color="#000000" stop-opacity="0"/></radialGradient><radialGradient cx="223.62396" cy="148.34146" r="73.38711" gradientUnits="userSpaceOnUse" id="color-2"><stop offset="0" stop-color="#000000" stop-opacity="0"/><stop offset="1" stop-color="#000000" stop-opacity="0.57196"/></radialGradient><radialGradient cx="263.8868" cy="162.24204" r="17.28955" gradientUnits="userSpaceOnUse" id="color-3"><stop offset="0" stop-color="#000000" stop-opacity="0"/><stop offset="1" stop-color="#000000" stop-opacity="0.57196"/></radialGradient><radialGradient cx="235.372" cy="162.24204" r="17.28955" gradientUnits="userSpaceOnUse" id="color-4"><stop offset="0" stop-color="#000000" stop-opacity="0"/><stop offset="1" stop-color="#000000" stop-opacity="0.57196"/></radialGradient></defs><g transform="translate(-188.6745,-129.81097)"><g data-paper-data="{&quot;isPaintingLayer&quot;:true}" fill-rule="nonzero" stroke="none" stroke-width="1" stroke-linecap="butt" stroke-linejoin="miter" stroke-miterlimit="10" stroke-dasharray="" stroke-dashoffset="0" style="mix-blend-mode: normal"><path d="M291.32549,219.63156c0,4.72326 -22.9908,8.55441 -51.3255,8.55441c-28.33469,0 -51.3255,-3.83115 -51.3255,-8.55441c0,-4.72326 22.9908,-8.55441 51.3255,-8.55441c28.33469,0 51.3255,3.83115 51.3255,8.55441z" fill="url(#color-1)"/><path d="M286.33997,176.14752c0,3.45742 -0.37782,26.7754 -1.09782,30.01896c-1.76079,8.88236 -7.47088,13.99364 -16.0467,15.93977c-3.98494,0.74138 -8.5188,-15.55482 -13.4376,-15.6475c-4.9188,-0.09267 -10.22256,16.02532 -15.75443,16.02532c-5.56039,0 -10.88552,-16.12512 -15.82571,-16.05383c-4.94019,0.07842 -9.4883,16.35324 -13.48037,15.58334c-9.03919,-1.49703 -13.77265,-7.68474 -15.9968,-16.13938c-0.67723,-3.15089 -1.03366,-26.37619 -1.03366,-29.72668c0,-25.57778 20.75877,-46.33655 46.33655,-46.33655c25.57778,0 46.33655,20.75877 46.33655,46.33655z" fill="#ff80b2"/><path d="M252.82885,131.64573c0.04,0.02 0.09,0.02 0.13,0.03c0.62001,0.18 1.23002,0.36001 1.84003,0.57001c0.66001,0.22 1.32002,0.46001 1.97003,0.72001c0.65001,0.25 1.30002,0.53001 1.94003,0.81001c0.46001,0.2 0.92001,0.40001 1.37002,0.62001c0.17,0.08 0.34,0.17 0.50001,0.25c0.62001,0.31 1.24002,0.64001 1.85003,0.97001c0.53001,0.3 1.07002,0.59001 1.59002,0.91001c0.06,0.04 0.12,0.08 0.19,0.12c0.57001,0.35 1.13002,0.72001 1.69002,1.10002c0.58001,0.39001 1.15002,0.80001 1.71002,1.22002c-17.72025,5.74008 -12.95018,16.54023 -14.93021,29.62042c-4.50006,-13.20019 -10.68015,-25.40036 0.12,-36.97052c0.01,0 0.02,0.03 0.03,0.03zM250.79882,169.89627c-12.41017,-3.11004 -36.48051,-11.79017 -42.9706,-27.06038c0.03,-0.03 0.06,-0.06 0.1,-0.09c0.08,-0.08 0.17,-0.15 0.25,-0.22c0.35,-0.34 0.72001,-0.68001 1.09002,-1.00001c0.43001,-0.38001 0.84001,-0.77001 1.28002,-1.13002c0.03,-0.02 0.07,-0.04 0.09,-0.06c0.15,-0.12 0.3,-0.23 0.44001,-0.34c0.41001,-0.33 0.81001,-0.66001 1.22002,-0.97001c0.05,-0.04 0.11,-0.06 0.16,-0.1c0.46001,-0.34 0.92001,-0.67001 1.40002,-1.00001c0.09,-0.05 0.17,-0.13 0.25,-0.18c0.46001,-0.32 0.94001,-0.61001 1.41002,-0.91001c0.55001,-0.35 1.12002,-0.68001 1.69002,-1.00001c0.57001,-0.32 1.13002,-0.64001 1.72002,-0.94001c0.58001,-0.29 1.18002,-0.57001 1.78002,-0.84001c-3.20004,16.05023 21.1003,26.15037 30.09042,35.8405zM285.17931,165.83621c0.16,0.70001 0.27,1.41002 0.40001,2.13003c0.03,0.12 0.07,0.24 0.1,0.37001l0.12,0.75001c0.09,0.60001 0.18,1.20002 0.25,1.81003v0.07v0.09c0.05,0.46001 0.09,0.91001 0.13,1.37002c0.03,0.45001 0.07,0.89001 0.09,1.35002c0.04,0.78001 0.06,1.58002 0.06,2.37003c0,0.66001 -0.03,2.50004 -0.06,4.32006c-15.52022,-13.14018 -17.09024,-9.42013 -31.87045,-11.82017c9.82014,-4.53006 20.31029,-6.13009 30.78043,-2.81004zM193.98803,170.99629c0.93001,-6.29009 1.48002,-6.7801 0,0zM249.0788,171.7763c-13.09018,7.1301 -40.23056,20.57029 -55.25078,13.9702c-0.09,-4.44006 -0.15,-8.40012 -0.15,-9.60013c0,-0.87001 0.04,-1.73002 0.09,-2.59004c0.05,-0.86001 0.12,-1.71002 0.22,-2.56004c13.81019,5.89008 40.76057,0.66001 55.09077,0.78001zM281.20925,215.14691c-0.36001,0.44001 -0.73001,0.85001 -1.13002,1.25002c-0.33,0.34 -0.67001,0.66001 -1.03001,0.97001c-0.07,0.06 -0.12,0.13 -0.19,0.19l-0.15,0.12c-0.73001,0.60001 -1.52002,1.16002 -2.35003,1.66002c-0.1,0.06 -0.2,0.13 -0.31,0.19c-0.06,0.03 -0.13,0.06 -0.19,0.09l-0.12,0.06c-0.34,0.19 -0.68001,0.36001 -1.03001,0.53001c-0.02,0.01 -0.02,0.03 -0.03,0.04c-0.07,0.03 -0.13,0.06 -0.19,0.09c-0.26,0.12 -0.52001,0.23 -0.78001,0.34c-0.3,0.13 -0.61001,0.23 -0.91001,0.35c-0.51001,0.19 -1.02001,0.36001 -1.56002,0.53001c-0.06,0.02 -0.1,0.04 -0.16,0.06c-0.61001,0.18 -1.23002,0.35 -1.87003,0.50001c-0.25,0.05 -0.50001,0.02 -0.75001,-0.06c-0.13,-0.04 -0.25,-0.09 -0.38001,-0.16c-0.09,-0.05 -0.19,-0.12 -0.28,-0.19c-0.22,-0.15 -0.46001,-0.33 -0.69001,-0.56001c-0.22,-0.22 -0.45001,-0.49001 -0.68001,-0.78001c-0.1,-0.12 -0.22,-0.25 -0.32,-0.37001c-0.09,-0.13 -0.18,-0.28 -0.28,-0.41001c-0.07,-0.1 -0.14,-0.2 -0.22,-0.31c-0.43001,-0.65001 -0.86001,-1.36002 -1.31002,-2.13003c-0.48001,-0.82001 -0.97001,-1.68002 -1.47002,-2.56004c-0.2,-0.36001 -0.42001,-0.70001 -0.62001,-1.06001c-0.06,-0.11 -0.13,-0.21 -0.19,-0.32c-0.26,-0.46001 -0.51001,-0.93001 -0.78001,-1.37002c-0.04,-0.07 -0.09,-0.12 -0.13,-0.19c-0.28,-0.47001 -0.55001,-0.94001 -0.84001,-1.37002c-0.29,-0.44001 -0.58001,-0.84001 -0.87001,-1.22002c-0.08,-0.1 -0.15,-0.19 -0.22,-0.28c-0.23,-0.28 -0.46001,-0.55001 -0.69001,-0.78001c-0.15,-0.16 -0.29,-0.31 -0.44001,-0.44001c-0.16,-0.14 -0.31,-0.26 -0.47001,-0.38001c-0.05,-0.04 -0.1,-0.05 -0.15,-0.09c-0.1,-0.07 -0.19,-0.13 -0.29,-0.19c-0.03,-0.02 -0.08,-0.04 -0.12,-0.06c-0.03,-0.02 -0.06,-0.05 -0.09,-0.06c-0.02,-0.01 -0.05,-0.02 -0.07,-0.03c-0.18,-0.09 -0.35,-0.14 -0.53001,-0.19c-0.03,-0.01 -0.06,-0.03 -0.09,-0.03c-0.15,-0.04 -0.32,-0.06 -0.47001,-0.06c-0.11,-0.01 -0.23,0.01 -0.34,0.03c-0.12,0.01 -0.23,0.03 -0.35,0.06h-0.03l-0.12,0.03c-0.04,0.01 -0.07,0.02 -0.1,0.03c-0.11,0.04 -0.2,0.11 -0.31,0.16c-0.05,0.02 -0.11,0.03 -0.16,0.06l-0.15,0.09c-0.04,0.03 -0.09,0.04 -0.13,0.07c8.48012,-16.09023 5.18007,-25.21035 -0.06,-35.8505c17.76025,9.02013 21.4703,23.45033 27.19038,44.00062zM281.98926,214.08689c-0.17,0.25 -0.44001,0.61001 -0.78001,1.06001c1.02001,-1.58002 1.29002,-1.81003 0.78001,-1.06001zM229.85853,211.42685c-1.94003,-2.79004 -3.84005,-5.02007 -5.68008,-5.00007c-0.21,0.01 -0.42001,0.04 -0.63001,0.1c-0.04,0.01 -0.08,0.05 -0.12,0.06c-0.1,0.03 -0.19,0.05 -0.29,0.09c-0.11,0.06 -0.22,0.12 -0.34,0.19c-0.15,0.09 -0.29,0.17 -0.44001,0.28c-0.08,0.06 -0.17,0.12 -0.25,0.19c-0.07,0.06 -0.14,0.12 -0.21,0.19c-0.08,0.07 -0.15,0.14 -0.22,0.22c-0.08,0.07 -0.15,0.14 -0.22,0.22c-0.31,0.31 -0.61001,0.67001 -0.91001,1.06001l-0.03,0.03c-0.13,0.16 -0.25,0.36001 -0.38001,0.53001c-0.17,0.25 -0.35,0.48001 -0.53001,0.75001c-0.27,0.41001 -0.54001,0.84001 -0.81001,1.28002c-0.24,0.40001 -0.48001,0.80001 -0.72001,1.22002c-0.33,0.57001 -0.67001,1.14002 -1.00001,1.72002c-0.44001,0.79001 -0.87001,1.56002 -1.31002,2.31003c-0.11,0.19 -0.23,0.41001 -0.34,0.60001c-0.26,0.42001 -0.53001,0.86001 -0.79001,1.24002c-0.01,0.01 -0.01,0.03 -0.03,0.04c0,0 0.01,0.02 0,0.03c-0.27,0.41001 -0.54001,0.80001 -0.81001,1.15002c-0.22,0.3 -0.46001,0.60001 -0.69001,0.85001c-0.02,0.03 -0.06,0.06 -0.09,0.09c-0.13,0.14 -0.28,0.26 -0.41001,0.38001c-0.13,0.11 -0.24,0.25 -0.37001,0.34c-0.03,0.02 -0.07,0.04 -0.1,0.06c-0.09,0.07 -0.21,0.11 -0.31,0.16c-0.06,0.03 -0.13,0.07 -0.19,0.09c-0.06,0.03 -0.12,0.05 -0.18,0.07c-0.1,0.02 -0.19,0.05 -0.28,0.06c-0.16,0.02 -0.32,0.03 -0.47001,0c-3.40005,-0.57001 -7.76011,-3.36005 -11.57016,-6.66009c-2.04003,-2.61004 -3.47005,-5.84008 -4.43006,-9.50013c-0.03,-0.13 -0.07,-0.34 -0.1,-0.53001c26.87038,-5.82008 45.03063,-9.16013 56.50079,-33.19047c-4.00006,11.26016 -7.98011,27.00038 -21.2503,39.28055z" fill="#ff0066"/><path d="M286.33997,176.14752c0,3.45742 -0.37782,26.7754 -1.09782,30.01896c-1.76079,8.88236 -7.47088,13.99364 -16.0467,15.93977c-3.98494,0.74138 -8.5188,-15.55482 -13.4376,-15.6475c-4.9188,-0.09267 -10.22256,16.02532 -15.75443,16.02532c-5.56039,0 -10.88552,-16.12512 -15.82571,-16.05383c-4.94019,0.07842 -9.4883,16.35324 -13.48037,15.58334c-9.03919,-1.49703 -13.77265,-7.68474 -15.9968,-16.13938c-0.67723,-3.15089 -1.03366,-26.37619 -1.03366,-29.72668c0,-25.57778 20.75877,-46.33655 46.33655,-46.33655c25.57778,0 46.33655,20.75877 46.33655,46.33655z" fill="url(#color-2)"/><g><path d="M257.1123,167.95107c0,-6.10246 4.94702,-11.04949 11.04949,-11.04949c6.10246,0 11.04949,4.94702 11.04949,11.04949c0,6.10246 -4.94702,11.04949 -11.04949,11.04949c-6.10246,0 -11.04949,-4.94702 -11.04949,-11.04949z" fill="#ffffff"/><path d="M257.1123,167.95107c0,-6.10246 4.94702,-11.04949 11.04949,-11.04949c6.10246,0 11.04949,4.94702 11.04949,11.04949c0,6.10246 -4.94702,11.04949 -11.04949,11.04949c-6.10246,0 -11.04949,-4.94702 -11.04949,-11.04949z" fill="url(#color-3)"/><path d="M264.95358,168.66077c0,-3.7402 3.03203,-6.77223 6.77223,-6.77223c3.7402,0 6.77223,3.03203 6.77223,6.77223c0,3.7402 -3.03203,6.77223 -6.77223,6.77223c-3.7402,0 -6.77223,-3.03203 -6.77223,-6.77223z" fill="#000000"/></g><g><path d="M228.5975,167.95107c0,-6.10246 4.94702,-11.04949 11.04949,-11.04949c6.10246,0 11.04949,4.94702 11.04949,11.04949c0,6.10246 -4.94702,11.04949 -11.04949,11.04949c-6.10246,0 -11.04949,-4.94702 -11.04949,-11.04949z" fill="#ffffff"/><path d="M228.5975,167.95107c0,-6.10246 4.94702,-11.04949 11.04949,-11.04949c6.10246,0 11.04949,4.94702 11.04949,11.04949c0,6.10246 -4.94702,11.04949 -11.04949,11.04949c-6.10246,0 -11.04949,-4.94702 -11.04949,-11.04949z" fill="url(#color-4)"/><path d="M236.43878,168.66077c0,-3.7402 3.03203,-6.77223 6.77223,-6.77223c3.7402,0 6.77223,3.03203 6.77223,6.77223c0,3.7402 -3.03203,6.77223 -6.77223,6.77223c-3.7402,0 -6.77223,-3.03203 -6.77223,-6.77223z" fill="#000000"/></g><path d="M219.33732,152.5444c-7.15009,7.32117 -14.54968,11.70533 -16.5172,9.78058c-1.97465,-1.92475 2.23128,-9.43127 9.37424,-16.75245c7.15009,-7.32117 14.54968,-11.6982 16.5172,-9.77345c1.97465,1.92475 -2.23128,9.42414 -9.37424,16.74532z" fill-opacity="0.62745" fill="#ffffff"/><path d="M277.60459,213.9309c-3.38048,4.09607 -7.47824,6.30617 -9.14965,4.92675c-1.67142,-1.37942 -0.27872,-5.822 3.10176,-9.91807c3.38048,-4.09607 7.47824,-6.30617 9.14965,-4.92675c1.67142,1.37942 0.27872,5.822 -3.10176,9.91807z" fill-opacity="0.43439" fill="#ffffff"/></g></g></svg>