<?xml version="1.0" encoding="UTF-8" standalone="no"?>
<!-- Created with Inkscape (http://www.inkscape.org/) -->

<svg
   id="svg2"
   sodipodi:docname="nicubunu_Game_baddie_Candy.svg"
   inkscape:export-filename="/home/nicu/Desktop/pacman/pacman.png"
   viewBox="0 0 117.02637 108.00936"
   sodipodi:version="0.32"
   inkscape:export-xdpi="90"
   version="1.0"
   inkscape:output_extension="org.inkscape.output.svg.inkscape"
   inkscape:export-ydpi="90"
   inkscape:version="1.2.2 (732a01da63, 2022-12-09)"
   width="117.02637"
   height="108.00936"
   xmlns:inkscape="http://www.inkscape.org/namespaces/inkscape"
   xmlns:sodipodi="http://sodipodi.sourceforge.net/DTD/sodipodi-0.dtd"
   xmlns:xlink="http://www.w3.org/1999/xlink"
   xmlns="http://www.w3.org/2000/svg"
   xmlns:svg="http://www.w3.org/2000/svg"
   xmlns:rdf="http://www.w3.org/1999/02/22-rdf-syntax-ns#"
   xmlns:cc="http://creativecommons.org/ns#"
   xmlns:dc="http://purl.org/dc/elements/1.1/">
  <defs
     id="defs4">
    <linearGradient
       id="linearGradient2315">
      <stop
         id="stop2317"
         style="stop-color:#000000;stop-opacity:0"
         offset="0" />
      <stop
         id="stop2319"
         style="stop-color:#000000;stop-opacity:.57196"
         offset="1" />
    </linearGradient>
    <filter
       id="filter3730"
       height="1.6816748"
       width="1.6960537"
       y="-0.34083741"
       x="-0.34802687"
       inkscape:collect="always">
      <feGaussianBlur
         id="feGaussianBlur3732"
         stdDeviation="5.4650567"
         inkscape:collect="always" />
    </filter>
    <filter
       id="filter4065"
       height="1.7379839"
       width="2.811415"
       y="-0.36899194"
       x="-0.90570748"
       inkscape:collect="always">
      <feGaussianBlur
         id="feGaussianBlur4067"
         stdDeviation="4.1511594"
         inkscape:collect="always" />
    </filter>
    <filter
       id="filter4112"
       height="1.6802"
       width="1.1400412"
       y="-0.34009998"
       x="-0.070020583"
       inkscape:collect="always">
      <feGaussianBlur
         id="feGaussianBlur4114"
         stdDeviation="3.9678331"
         inkscape:collect="always" />
    </filter>
    <radialGradient
       id="radialGradient3497"
       gradientUnits="userSpaceOnUse"
       cy="506.35001"
       cx="210.89"
       gradientTransform="matrix(1.4028,1.6439e-6,-1.4521e-7,0.20588,-89.845,403.11)"
       r="68"
       inkscape:collect="always">
      <stop
         id="stop4074"
         style="stop-color:#000000"
         offset="0" />
      <stop
         id="stop4076"
         style="stop-color:#000000;stop-opacity:0"
         offset="1" />
    </radialGradient>
    <radialGradient
       id="radialGradient3499"
       xlink:href="#linearGradient2315"
       gradientUnits="userSpaceOnUse"
       cy="497.95999"
       cx="216.99001"
       gradientTransform="matrix(0.7158,1.4128,-1.3538,0.68592,735.84,-155.77)"
       r="65"
       inkscape:collect="always" />
    <radialGradient
       id="radialGradient3501"
       xlink:href="#linearGradient2315"
       gradientUnits="userSpaceOnUse"
       cy="409.85999"
       cx="233.5"
       gradientTransform="matrix(0.3871,1.5161,-1.4234,0.36342,726.51,-93.107)"
       r="15.5"
       inkscape:collect="always" />
    <radialGradient
       inkscape:collect="always"
       xlink:href="#linearGradient2315"
       id="radialGradient2067"
       gradientUnits="userSpaceOnUse"
       gradientTransform="matrix(0.3871,1.5161,-1.4234,0.36342,726.51,-93.107)"
       cx="233.5"
       cy="409.85999"
       r="15.5" />
  </defs>
  <sodipodi:namedview
     id="base"
     inkscape:zoom="0.721875"
     height="640px"
     borderopacity="1.0"
     inkscape:current-layer="layer1"
     inkscape:cx="63.722944"
     inkscape:cy="-42.943723"
     showgrid="false"
     width="128px"
     inkscape:guide-bbox="true"
     showguides="true"
     bordercolor="#666666"
     inkscape:window-x="1912"
     guidetolerance="10"
     objecttolerance="10"
     inkscape:window-y="-8"
     inkscape:window-width="1920"
     inkscape:pageopacity="0.0"
     inkscape:pageshadow="2"
     pagecolor="#ffffff"
     gridtolerance="10000"
     inkscape:document-units="px"
     inkscape:window-height="1017"
     inkscape:showpageshadow="2"
     inkscape:pagecheckerboard="0"
     inkscape:deskcolor="#d1d1d1"
     inkscape:window-maximized="1">
    <inkscape:grid
       id="grid3194"
       originy="-21.80945"
       originx="-5.4832258"
       spacingy="1"
       spacingx="1"
       type="xygrid" />
  </sodipodi:namedview>
  <g
     id="layer1"
     inkscape:label="Layer 1"
     inkscape:groupmode="layer"
     transform="translate(-238.90323,-33.54445)">
    <g
       id="g3469"
       transform="matrix(0.71287,0,0,0.71287,148.43,-234.5)">
      <path
         id="path3471"
         style="fill:url(#radialGradient3497);filter:url(#filter4112)"
         transform="matrix(1.0588,0,0,0.85714,-9.1176,72.48)"
         d="m 274,507.36 c 0,7.73 -30.46,14 -68,14 -37.54,0 -68,-6.27 -68,-14 0,-7.73 30.46,-14 68,-14 37.54,0 68,6.27 68,14 z" />
      <path
         id="path3473"
         style="fill:#ff80b2"
         sodipodi:nodetypes="cccsssccssc"
         transform="translate(-31,-85)"
         d="m 305,531.36 c 0,4.85 -0.53,37.56 -1.54,42.11 -2.47,12.46 -10.48,19.63 -22.51,22.36 -5.59,1.04 -11.95,-21.82 -18.85,-21.95 -6.9,-0.13 -14.34,22.48 -22.1,22.48 -7.8,0 -15.27,-22.62 -22.2,-22.52 -6.93,0.11 -13.31,22.94 -18.91,21.86 -12.68,-2.1 -19.32,-10.78 -22.44,-22.64 -0.95,-4.42 -1.45,-37 -1.45,-41.7 0,-35.88 29.12,-65 65,-65 35.88,0 65,29.12 65,65 z" />
      <path
         id="path3511"
         style="fill:#ff0066"
         sodipodi:nodetypes="cccsssssssssssccssssssssssssscccccssssssssscccccsscccccsssssssssssssssssssssssssssssssssssssssssssssssssssscccsccccccsssssssssssssssssssssssssssssssscc"
         d="m 463.28,507.03 c -10.8,11.57 -4.62,23.77 -0.12,36.97 1.98,-13.08 -2.79,-23.88 14.93,-29.62 -0.56,-0.42 -1.13,-0.83 -1.71,-1.22 -0.56,-0.38 -1.12,-0.75 -1.69,-1.1 -0.07,-0.04 -0.13,-0.08 -0.19,-0.12 -0.52,-0.32 -1.06,-0.61 -1.59,-0.91 -0.61,-0.33 -1.23,-0.66 -1.85,-0.97 -0.16,-0.08 -0.33,-0.17 -0.5,-0.25 -0.45,-0.22 -0.91,-0.42 -1.37,-0.62 -0.64,-0.28 -1.29,-0.56 -1.94,-0.81 -0.65,-0.26 -1.31,-0.5 -1.97,-0.72 -0.61,-0.21 -1.22,-0.39 -1.84,-0.57 -0.04,-0.01 -0.09,-0.01 -0.13,-0.03 -0.01,0 -0.02,-0.03 -0.03,-0.03 z m -32.09,2.44 c -0.6,0.27 -1.2,0.55 -1.78,0.84 -0.59,0.3 -1.15,0.62 -1.72,0.94 -0.57,0.32 -1.14,0.65 -1.69,1 -0.47,0.3 -0.95,0.59 -1.41,0.91 -0.08,0.05 -0.16,0.13 -0.25,0.18 -0.48,0.33 -0.94,0.66 -1.4,1 -0.05,0.04 -0.11,0.06 -0.16,0.1 -0.41,0.31 -0.81,0.64 -1.22,0.97 -0.14,0.11 -0.29,0.22 -0.44,0.34 -0.02,0.02 -0.06,0.04 -0.09,0.06 -0.44,0.36 -0.85,0.75 -1.28,1.13 -0.37,0.32 -0.74,0.66 -1.09,1 -0.08,0.07 -0.17,0.14 -0.25,0.22 -0.04,0.03 -0.07,0.06 -0.1,0.09 6.49,15.27 30.56,23.95 42.97,27.06 -8.99,-9.69 -33.29,-19.79 -30.09,-35.84 z m 33.69,34.59 c 14.78,2.4 16.35,-1.32 31.87,11.82 0.03,-1.82 0.06,-3.66 0.06,-4.32 0,-0.79 -0.02,-1.59 -0.06,-2.37 -0.02,-0.46 -0.06,-0.9 -0.09,-1.35 -0.04,-0.46 -0.08,-0.91 -0.13,-1.37 v -0.09 -0.07 c -0.07,-0.61 -0.16,-1.21 -0.25,-1.81 l -0.12,-0.75 c -0.03,-0.13 -0.07,-0.25 -0.1,-0.37 -0.13,-0.72 -0.24,-1.43 -0.4,-2.13 -10.47,-3.32 -20.96,-1.72 -30.78,2.81 z m -60.41,2.35 c 1.48,-6.78 0.93,-6.29 0,0 z m 0,0 c -0.1,0.85 -0.17,1.7 -0.22,2.56 -0.05,0.86 -0.09,1.72 -0.09,2.59 0,1.2 0.06,5.16 0.15,9.6 15.02,6.6 42.16,-6.84 55.25,-13.97 -14.33,-0.12 -41.28,5.11 -55.09,-0.78 z m 60.03,0.15 c 5.24,10.64 8.54,19.76 0.06,35.85 0.04,-0.03 0.09,-0.04 0.13,-0.07 l 0.15,-0.09 c 0.05,-0.03 0.11,-0.04 0.16,-0.06 0.11,-0.05 0.2,-0.12 0.31,-0.16 0.03,-0.01 0.06,-0.02 0.1,-0.03 l 0.12,-0.03 h 0.03 c 0.12,-0.03 0.23,-0.05 0.35,-0.06 0.11,-0.02 0.23,-0.04 0.34,-0.03 0.15,0 0.32,0.02 0.47,0.06 0.03,0 0.06,0.02 0.09,0.03 0.18,0.05 0.35,0.1 0.53,0.19 0.02,0.01 0.05,0.02 0.07,0.03 0.03,0.01 0.06,0.04 0.09,0.06 0.04,0.02 0.09,0.04 0.12,0.06 0.1,0.06 0.19,0.12 0.29,0.19 0.05,0.04 0.1,0.05 0.15,0.09 0.16,0.12 0.31,0.24 0.47,0.38 0.15,0.13 0.29,0.28 0.44,0.44 0.23,0.23 0.46,0.5 0.69,0.78 0.07,0.09 0.14,0.18 0.22,0.28 0.29,0.38 0.58,0.78 0.87,1.22 0.29,0.43 0.56,0.9 0.84,1.37 0.04,0.07 0.09,0.12 0.13,0.19 0.27,0.44 0.52,0.91 0.78,1.37 0.06,0.11 0.13,0.21 0.19,0.32 0.2,0.36 0.42,0.7 0.62,1.06 0.5,0.88 0.99,1.74 1.47,2.56 0.45,0.77 0.88,1.48 1.31,2.13 0.08,0.11 0.15,0.21 0.22,0.31 0.1,0.13 0.19,0.28 0.28,0.41 0.1,0.12 0.22,0.25 0.32,0.37 0.23,0.29 0.46,0.56 0.68,0.78 0.23,0.23 0.47,0.41 0.69,0.56 0.09,0.07 0.19,0.14 0.28,0.19 0.13,0.07 0.25,0.12 0.38,0.16 0.25,0.08 0.5,0.11 0.75,0.06 0.64,-0.15 1.26,-0.32 1.87,-0.5 0.06,-0.02 0.1,-0.04 0.16,-0.06 0.54,-0.17 1.05,-0.34 1.56,-0.53 0.3,-0.12 0.61,-0.22 0.91,-0.35 0.26,-0.11 0.52,-0.22 0.78,-0.34 0.06,-0.03 0.12,-0.06 0.19,-0.09 0.01,-0.01 0.01,-0.03 0.03,-0.04 0.35,-0.17 0.69,-0.34 1.03,-0.53 l 0.12,-0.06 c 0.06,-0.03 0.13,-0.06 0.19,-0.09 0.11,-0.06 0.21,-0.13 0.31,-0.19 0.83,-0.5 1.62,-1.06 2.35,-1.66 l 0.15,-0.12 c 0.07,-0.06 0.12,-0.13 0.19,-0.19 0.36,-0.31 0.7,-0.63 1.03,-0.97 0.4,-0.4 0.77,-0.81 1.13,-1.25 -5.72,-20.55 -9.43,-34.98 -27.19,-44 z m 27.19,44 c 0.34,-0.45 0.61,-0.81 0.78,-1.06 0.51,-0.75 0.24,-0.52 -0.78,1.06 z m -30.1,-43 c -11.47,24.03 -29.63,27.37 -56.5,33.19 0.03,0.19 0.07,0.4 0.1,0.53 0.96,3.66 2.39,6.89 4.43,9.5 3.81,3.3 8.17,6.09 11.57,6.66 0.15,0.03 0.31,0.02 0.47,0 0.09,-0.01 0.18,-0.04 0.28,-0.06 0.06,-0.02 0.12,-0.04 0.18,-0.07 0.06,-0.02 0.13,-0.06 0.19,-0.09 0.1,-0.05 0.22,-0.09 0.31,-0.16 0.03,-0.02 0.07,-0.04 0.1,-0.06 0.13,-0.09 0.24,-0.23 0.37,-0.34 0.13,-0.12 0.28,-0.24 0.41,-0.38 0.03,-0.03 0.07,-0.06 0.09,-0.09 0.23,-0.25 0.47,-0.55 0.69,-0.85 0.27,-0.35 0.54,-0.74 0.81,-1.15 0.01,-0.01 0,-0.03 0,-0.03 0.02,-0.01 0.02,-0.03 0.03,-0.04 0.26,-0.38 0.53,-0.82 0.79,-1.24 0.11,-0.19 0.23,-0.41 0.34,-0.6 0.44,-0.75 0.87,-1.52 1.31,-2.31 0.33,-0.58 0.67,-1.15 1,-1.72 0.24,-0.42 0.48,-0.82 0.72,-1.22 0.27,-0.44 0.54,-0.87 0.81,-1.28 0.18,-0.27 0.36,-0.5 0.53,-0.75 0.13,-0.17 0.25,-0.37 0.38,-0.53 l 0.03,-0.03 c 0.3,-0.39 0.6,-0.75 0.91,-1.06 0.07,-0.08 0.14,-0.15 0.22,-0.22 0.07,-0.08 0.14,-0.15 0.22,-0.22 0.07,-0.07 0.14,-0.13 0.21,-0.19 0.08,-0.07 0.17,-0.13 0.25,-0.19 0.15,-0.11 0.29,-0.19 0.44,-0.28 0.12,-0.07 0.23,-0.13 0.34,-0.19 0.1,-0.04 0.19,-0.06 0.29,-0.09 0.04,-0.01 0.08,-0.05 0.12,-0.06 0.21,-0.06 0.42,-0.09 0.63,-0.1 1.84,-0.02 3.74,2.21 5.68,5 13.27,-12.28 17.25,-28.02 21.25,-39.28 z"
         transform="matrix(1.4028,0,0,1.4028,-422.94,-327.37)" />
      <path
         id="path3475"
         sodipodi:nodetypes="cccsssccssc"
         style="fill:url(#radialGradient3499)"
         transform="translate(-31,-85)"
         d="m 305,531.36 c 0,4.85 -0.53,37.56 -1.54,42.11 -2.47,12.46 -10.48,19.63 -22.51,22.36 -5.59,1.04 -11.95,-21.82 -18.85,-21.95 -6.9,-0.13 -14.34,22.48 -22.1,22.48 -7.8,0 -15.27,-22.62 -22.2,-22.52 -6.93,0.11 -13.31,22.94 -18.91,21.86 -12.68,-2.1 -19.32,-10.78 -22.44,-22.64 -0.95,-4.42 -1.45,-37 -1.45,-41.7 0,-35.88 29.12,-65 65,-65 35.88,0 65,29.12 65,65 z" />
      <g
         id="g3477"
         transform="translate(5,10)">
        <circle
           id="path3479"
           style="fill:#ffffff"
           transform="translate(4,7)"
           cx="239.5"
           cy="417.86218"
           r="15.5" />
        <circle
           id="path3481"
           style="fill:url(#radialGradient2067)"
           transform="translate(4,7)"
           cx="239.5"
           cy="417.86218"
           r="15.5" />
        <circle
           id="path3483"
           style="fill:#000000"
           transform="matrix(0.6129,0,0,0.6129,101.71,169.75)"
           cx="239.5"
           cy="417.86218"
           r="15.5" />
      </g>
      <g
         id="g3485"
         transform="translate(-35,10)">
        <circle
           id="path3487"
           style="fill:#ffffff"
           transform="translate(4,7)"
           cx="239.5"
           cy="417.86218"
           r="15.5" />
        <circle
           id="path3489"
           style="fill:url(#radialGradient3501)"
           transform="translate(4,7)"
           cx="239.5"
           cy="417.86218"
           r="15.5" />
        <circle
           id="path3491"
           style="fill:#000000"
           transform="matrix(0.6129,0,0,0.6129,101.71,169.75)"
           cx="239.5"
           cy="417.86218"
           r="15.5" />
      </g>
      <path
         id="path3493"
         style="fill:#ffffff;fill-opacity:0.62745;filter:url(#filter3730)"
         d="m 180.01,413.25 c -10.03,10.27 -20.41,16.42 -23.17,13.72 -2.77,-2.7 3.13,-13.23 13.15,-23.5 10.03,-10.27 20.41,-16.41 23.17,-13.71 2.77,2.7 -3.13,13.22 -13.15,23.49 z" />
      <path
         id="path3495"
         style="fill:#ffffff;fill-opacity:0.43439;filter:url(#filter4065)"
         transform="rotate(39.532819,265.34902,500.25775)"
         d="m 262,501.86 c 0,7.45 -2.46,13.5 -5.5,13.5 -3.04,0 -5.5,-6.05 -5.5,-13.5 0,-7.45 2.46,-13.5 5.5,-13.5 3.04,0 5.5,6.05 5.5,13.5 z" />
    </g>
  </g>
  <metadata
     id="metadata1077">
    <rdf:RDF>
      <cc:Work>
        <dc:format>image/svg+xml</dc:format>
        <dc:type
           rdf:resource="http://purl.org/dc/dcmitype/StillImage" />
        <cc:license
           rdf:resource="http://creativecommons.org/licenses/publicdomain/" />
        <dc:publisher>
          <cc:Agent
             rdf:about="http://openclipart.org/">
            <dc:title>Openclipart</dc:title>
          </cc:Agent>
        </dc:publisher>
        <dc:title>Game baddie: Candy</dc:title>
        <dc:date>2008-02-04T14:57:45</dc:date>
        <dc:description>Bad guy for arcade games, inspired from the classic Pac-Man: Candy</dc:description>
        <dc:source>https://openclipart.org/detail/12550/game-baddie:-candy-by-nicubunu</dc:source>
        <dc:creator>
          <cc:Agent>
            <dc:title>nicubunu</dc:title>
          </cc:Agent>
        </dc:creator>
        <dc:subject>
          <rdf:Bag>
            <rdf:li>arcade</rdf:li>
            <rdf:li>baddie</rdf:li>
            <rdf:li>funny</rdf:li>
            <rdf:li>game</rdf:li>
          </rdf:Bag>
        </dc:subject>
      </cc:Work>
      <cc:License
         rdf:about="http://creativecommons.org/licenses/publicdomain/">
        <cc:permits
           rdf:resource="http://creativecommons.org/ns#Reproduction" />
        <cc:permits
           rdf:resource="http://creativecommons.org/ns#Distribution" />
        <cc:permits
           rdf:resource="http://creativecommons.org/ns#DerivativeWorks" />
      </cc:License>
    </rdf:RDF>
  </metadata>
</svg>
