<svg version="1.0" width="117.026" height="108.009" xmlns:xlink="http://www.w3.org/1999/xlink" xmlns="http://www.w3.org/2000/svg"><defs><radialGradient id="prefix__b" gradientUnits="userSpaceOnUse" cy="506.35" cx="210.89" gradientTransform="matrix(1.4028 0 0 .20588 -89.845 403.11)" r="68"><stop offset="0"/><stop offset="1" stop-opacity="0"/></radialGradient><radialGradient id="prefix__d" xlink:href="#prefix__a" gradientUnits="userSpaceOnUse" cy="497.96" cx="216.99" gradientTransform="matrix(.7158 1.4128 -1.3538 .68592 735.84 -155.77)" r="65"/><radialGradient id="prefix__f" xlink:href="#prefix__a" gradientUnits="userSpaceOnUse" cy="409.86" cx="233.5" gradientTransform="matrix(.3871 1.5161 -1.4234 .36342 726.51 -93.107)" r="15.5"/><radialGradient xlink:href="#prefix__a" id="prefix__e" gradientUnits="userSpaceOnUse" gradientTransform="matrix(.3871 1.5161 -1.4234 .36342 726.51 -93.107)" cx="233.5" cy="409.86" r="15.5"/><filter id="prefix__g" height="1.682" width="1.696" y="-.341" x="-.348"><feGaussianBlur stdDeviation="5.465"/></filter><filter id="prefix__h" height="1.738" width="2.811" y="-.369" x="-.906"><feGaussianBlur stdDeviation="4.151"/></filter><filter id="prefix__c" height="1.68" width="1.14" y="-.34" x="-.07"><feGaussianBlur stdDeviation="3.968"/></filter><linearGradient id="prefix__a"><stop offset="0" stop-opacity="0"/><stop offset="1" stop-opacity=".572"/></linearGradient></defs><path transform="matrix(.75479 0 0 .61103 -96.973 -216.376)" d="M274 507.36c0 7.73-30.46 14-68 14s-68-6.27-68-14 30.46-14 68-14 68 6.27 68 14z" fill="url(#prefix__b)" filter="url(#prefix__c)"/><path d="M104.853 50.152c0 3.458-.378 26.776-1.098 30.02-1.76 8.882-7.47 13.993-16.046 15.939-3.985.741-8.52-15.555-13.438-15.648-4.919-.092-10.223 16.026-15.754 16.026-5.56 0-10.886-16.125-15.826-16.054-4.94.078-9.488 16.353-13.48 15.583-9.04-1.497-13.773-7.684-15.997-16.14-.678-3.15-1.034-26.375-1.034-29.726 0-25.578 20.759-46.336 46.337-46.336 25.577 0 46.336 20.758 46.336 46.336z" fill="#ff80b2"/><path d="M71.312 5.62c-10.8 11.57-4.62 23.77-.12 36.97 1.98-13.08-2.79-23.88 14.93-29.62-.56-.42-1.13-.83-1.71-1.22-.56-.38-1.12-.75-1.69-1.1a3.15 3.15 0 01-.19-.12c-.52-.32-1.06-.61-1.59-.91-.61-.33-1.23-.66-1.85-.97-.16-.08-.33-.17-.5-.25-.45-.22-.91-.42-1.37-.62-.64-.28-1.29-.56-1.94-.81-.65-.26-1.31-.5-1.97-.72-.61-.21-1.22-.39-1.84-.57-.04-.01-.09-.01-.13-.03-.01 0-.02-.03-.03-.03zm-32.09 2.44c-.6.27-1.2.55-1.78.84-.59.3-1.15.62-1.72.94-.57.32-1.14.65-1.69 1-.47.3-.95.59-1.41.91-.08.05-.16.13-.25.18-.48.33-.94.66-1.4 1-.05.04-.11.06-.16.1-.41.31-.81.64-1.22.97-.14.11-.29.22-.44.34-.02.02-.06.04-.09.06-.44.36-.85.75-1.28 1.13-.37.32-.74.66-1.09 1-.08.07-.17.14-.25.22-.04.03-.07.06-.1.09 6.49 15.27 30.56 23.95 42.97 27.061-8.99-9.69-33.29-19.79-30.09-35.84zm33.69 34.59c14.78 2.401 16.35-1.32 31.87 11.821.03-1.82.06-3.66.06-4.32 0-.79-.02-1.59-.06-2.37-.02-.46-.06-.9-.09-1.35-.04-.46-.08-.91-.13-1.37v-.16c-.07-.61-.16-1.21-.25-1.81l-.12-.75c-.03-.13-.07-.25-.1-.37-.13-.72-.24-1.43-.4-2.13-10.47-3.32-20.96-1.72-30.78 2.81zm-60.41 2.351c1.48-6.78.93-6.29 0 0zm0 0c-.1.85-.17 1.7-.22 2.56-.05.86-.09 1.72-.09 2.59 0 1.2.06 5.16.15 9.6 15.02 6.6 42.16-6.84 55.25-13.97-14.33-.12-41.28 5.11-55.09-.78zm60.03.15c5.24 10.64 8.54 19.76.06 35.85.04-.03.09-.04.13-.07l.15-.09c.05-.03.11-.04.16-.06.11-.05.2-.12.31-.16.03-.01.06-.02.1-.03l.12-.03h.03c.12-.03.23-.05.35-.06.11-.02.23-.04.34-.03.15 0 .32.02.47.06.03 0 .06.02.09.03.18.05.35.1.53.19.02.01.05.02.07.03.03.01.06.04.09.06.04.02.09.04.12.06.1.06.19.12.29.19.05.04.1.05.15.09.16.12.31.24.47.38.15.13.29.28.44.44a10.91 10.91 0 01.91 1.06c.29.38.58.78.87 1.22.29.43.56.9.84 1.37.04.07.09.12.13.19.27.44.52.91.78 1.37.06.11.13.21.19.32.2.36.42.7.62 1.06.5.88.99 1.74 1.47 2.56.45.77.88 1.48 1.31 2.13.08.11.15.21.22.31.1.13.19.28.28.41.1.12.22.25.32.37.23.29.46.56.68.78.23.23.47.41.69.56.09.07.19.14.28.19.13.07.25.12.38.16.25.08.5.11.75.06.64-.15 1.26-.32 1.87-.5.06-.02.1-.04.16-.06.54-.17 1.05-.34 1.56-.53.3-.12.61-.22.91-.35.26-.11.52-.22.78-.34.06-.03.12-.06.19-.09.01-.01.01-.03.03-.04.35-.17.69-.34 1.03-.53l.12-.06c.06-.03.13-.06.19-.09.11-.06.21-.13.31-.19.83-.5 1.62-1.06 2.35-1.66l.15-.12c.07-.06.12-.13.19-.19.36-.31.7-.63 1.03-.97.4-.4.77-.81 1.13-1.25-5.72-20.55-9.43-34.98-27.19-44zm27.19 44c.34-.45.61-.81.78-1.06.51-.75.24-.52-.78 1.06zm-30.1-43c-11.47 24.03-29.63 27.37-56.5 33.19.03.19.07.4.1.53.96 3.66 2.39 6.89 4.43 9.5 3.81 3.3 8.17 6.09 11.57 6.66.15.03.31.02.47 0 .09-.01.18-.04.28-.06.06-.02.12-.04.18-.07.06-.02.13-.06.19-.09.1-.05.22-.09.31-.16.03-.02.07-.04.1-.06.13-.09.24-.23.37-.34.13-.12.28-.24.41-.38.03-.03.07-.06.09-.09.23-.25.47-.55.69-.85.27-.35.54-.74.81-1.15.01-.01 0-.03 0-.03.02-.01.02-.03.03-.04.26-.38.53-.82.79-1.24.11-.19.23-.41.34-.6.44-.75.87-1.52 1.31-2.31.33-.58.67-1.15 1-1.72.24-.42.48-.82.72-1.22.27-.44.54-.87.81-1.28.18-.27.36-.5.53-.75.13-.17.25-.37.38-.53l.03-.03c.3-.39.6-.75.91-1.06.07-.08.14-.15.22-.22.07-.08.14-.15.22-.22.07-.07.14-.13.21-.19.08-.07.17-.13.25-.19.15-.11.29-.19.44-.28.12-.07.23-.13.34-.19.1-.04.19-.06.29-.09.04-.01.08-.05.12-.06.21-.06.42-.09.63-.1 1.84-.02 3.74 2.21 5.68 5 13.27-12.28 17.25-28.02 21.25-39.28z" fill="#f06"/><path transform="translate(-112.572 -328.638) scale(.71287)" d="M305 531.36c0 4.85-.53 37.56-1.54 42.11-2.47 12.46-10.48 19.63-22.51 22.36-5.59 1.04-11.95-21.82-18.85-21.95-6.9-.13-14.34 22.48-22.1 22.48-7.8 0-15.27-22.62-22.2-22.52-6.93.11-13.31 22.94-18.91 21.86-12.68-2.1-19.32-10.78-22.44-22.64-.95-4.42-1.45-37-1.45-41.7 0-35.88 29.12-65 65-65 35.88 0 65 29.12 65 65z" fill="url(#prefix__d)"/><g transform="translate(-86.909 -260.916) scale(.71287)"><circle transform="translate(4 7)" cx="239.5" cy="417.862" r="15.5" fill="#fff"/><circle transform="translate(4 7)" cx="239.5" cy="417.862" r="15.5" fill="url(#prefix__e)"/><circle transform="translate(101.71 169.75) scale(.6129)" cx="239.5" cy="417.862" r="15.5"/></g><g transform="translate(-115.424 -260.916) scale(.71287)"><circle transform="translate(4 7)" cx="239.5" cy="417.862" r="15.5" fill="#fff"/><circle transform="translate(4 7)" cx="239.5" cy="417.862" r="15.5" fill="url(#prefix__f)"/><circle transform="translate(101.71 169.75) scale(.6129)" cx="239.5" cy="417.862" r="15.5"/></g><path d="M180.01 413.25c-10.03 10.27-20.41 16.42-23.17 13.72-2.77-2.7 3.13-13.23 13.15-23.5 10.03-10.27 20.41-16.41 23.17-13.71 2.77 2.7-3.13 13.22-13.15 23.49z" fill="#fff" fill-opacity=".627" filter="url(#prefix__g)" transform="translate(-90.473 -268.044) scale(.71287)"/><path transform="rotate(39.533 516.87 96.715) scale(.71287)" d="M262 501.86c0 7.45-2.46 13.5-5.5 13.5s-5.5-6.05-5.5-13.5 2.46-13.5 5.5-13.5 5.5 6.05 5.5 13.5z" fill="#fff" fill-opacity=".434" filter="url(#prefix__h)"/></svg>