<svg version="1.1" xmlns="http://www.w3.org/2000/svg" xmlns:xlink="http://www.w3.org/1999/xlink" width="65.88119" height="140.50759" viewBox="0,0,65.88119,140.50759"><defs><radialGradient cx="240" cy="153.96478" r="22.11052" gradientUnits="userSpaceOnUse" id="color-1"><stop offset="0" stop-color="#cccccc"/><stop offset="1" stop-color="#cccccc" stop-opacity="0"/></radialGradient></defs><g transform="translate(-207.05941,-109.87169)"><g data-paper-data="{&quot;isPaintingLayer&quot;:true}" fill-rule="nonzero" stroke-linecap="butt" stroke-linejoin="miter" stroke-miterlimit="10" stroke-dasharray="" stroke-dashoffset="0" style="mix-blend-mode: normal"><path d="M262.02835,166.75756c0,26.70905 -9.09979,22.57507 -21.26025,22.57507c-12.15877,0 -22.79644,4.13398 -22.79644,-22.57507c0,-26.71073 9.86957,-48.38857 22.02834,-48.38857c12.15877,0 22.02834,21.67784 22.02834,48.38857z" fill="#218424" stroke="#000000" stroke-width="0.98588"/><path d="M262.02835,166.75756c0,26.70905 -9.09979,22.57507 -21.26025,22.57507c-12.15877,0 -22.79644,4.13398 -22.79644,-22.57507c0,-26.71073 9.86957,-48.38857 22.02834,-48.38857c12.15877,0 22.02834,21.67784 22.02834,48.38857z" fill="url(#color-1)" stroke="none" stroke-width="1" opacity="0.30841"/><path d="M240.52996,193.17648c16.13847,0 29.13075,0.00671 29.13075,0.01342l-4.94401,52.53932c0,0.00839 -8.04827,4.19436 -24.18674,4.19436c-16.13847,0 -22.42246,-4.46269 -22.42246,-4.4694l-6.70829,-52.26428c0,-0.00671 12.99228,-0.01342 29.13075,-0.01342z" fill="#805700" stroke="#000000" stroke-width="0.91141"/><path d="M229.3942,197.0304c-12.08349,0 -21.87909,-0.89419 -21.87909,-1.99723v-11.96792c0,-1.10304 9.7956,-1.99723 21.87909,-1.99723h21.21161c12.08349,0 21.87909,0.89419 21.87909,1.99723v11.96792c0,1.10304 -9.7956,1.99723 -21.87909,1.99723z" fill="#805700" stroke="#000000" stroke-width="0.91141"/><path d="M255.15235,166.67036c0.34883,0.12075 0.43939,-2.37138 0.41759,-2.14833c-0.02012,0.22137 0.38237,-2.54076 0.01174,-2.44014c-0.36896,0.1023 15.18086,2.70009 14.83203,2.57934c-3.61074,0.10901 -10.87078,1.28631 -15.26136,2.00913z" fill="#c09c1d" stroke="#000000" stroke-width="0.30577"/><path d="M243.71807,125.48649c0.1023,-0.36225 -2.34287,-0.34045 -2.12485,-0.32871c0.2197,0.01174 -2.50555,-0.27169 -2.38983,0.10062c0.1174,0.37231 1.95044,-15.58839 1.84646,-15.22782c0.27336,3.67447 1.75925,11.01501 2.66822,15.4559z" fill="#c09c1d" stroke="#000000" stroke-width="0.30577"/><path d="M228.58082,147.83348c-0.3438,-0.13584 -0.53666,2.35126 -0.50648,2.12988c0.03019,-0.22137 -0.48467,2.52232 -0.11069,2.43679c0.37399,-0.08553 -15.05675,-3.34073 -14.71463,-3.20489c3.61241,0.0436 10.91439,-0.82512 15.33179,-1.36178z" fill="#c09c1d" stroke="#000000" stroke-width="0.30577"/><path d="M225.24512,163.94344c-0.36728,-0.0369 0.09895,2.41163 0.06876,2.19026c-0.02851,-0.22137 0.19286,2.56257 0.52995,2.37809c0.33877,-0.18448 -15.38546,0.87543 -15.01818,0.91233c3.49334,-0.93916 10.30225,-3.76167 14.41947,-5.48067z" fill="#c09c1d" stroke="#000000" stroke-width="0.30577"/><path d="M235.53732,165.11906c0.36728,0.03354 -0.12578,-2.40995 -0.09392,-2.18858c0.03186,0.22137 -0.22137,-2.55921 -0.55679,-2.37138c-0.33541,0.18783 15.37372,-1.05488 15.00812,-1.08842c-3.48328,0.98109 -10.26033,3.88242 -14.35742,5.64838z" fill="#c09c1d" stroke="#000000" stroke-width="0.30577"/><path d="M218.28695,131.87781c-0.36057,-0.00503 14.99135,2.92146 14.66767,2.69338c-0.322,-0.2264 -0.65238,2.57766 -0.61549,2.35629c0.03857,-0.22305 -0.51654,2.21206 -0.15597,2.21709c-3.96124,-2.23051 -10.51524,-5.89994 -13.89622,-7.26675z" fill="#c09c1d" stroke="#000000" stroke-width="0.30577"/><path d="M249.75218,151.44757c0.34883,0.12075 0.43939,-2.37138 0.41927,-2.15001c-0.0218,0.22305 0.3807,-2.54076 0.01174,-2.43846c-0.37063,0.1023 15.17918,2.70009 14.83035,2.57766c-3.61074,0.11069 -10.86911,1.28799 -15.26136,2.01081z" fill="#c09c1d" stroke="#000000" stroke-width="0.30577"/><path d="M250.79867,137.71738c0.36225,-0.06373 -0.7245,-2.29759 -0.63896,-2.09131c0.08721,0.2046 -0.85363,-2.41834 -1.13035,-2.15001c-0.27839,0.27001 14.60395,-5.01445 14.24002,-4.95239c-3.12103,1.85484 -8.95053,6.42151 -12.47071,9.19371z" fill="#c09c1d" stroke="#000000" stroke-width="0.30577"/><path d="M245.51925,150.4581c-0.00503,-0.37566 -2.33952,0.36392 -2.12653,0.31026c0.21299,-0.05367 -2.47704,0.47797 -2.26069,0.79996c0.21634,0.322 -2.54244,-15.4995 -2.53741,-15.12384c1.29973,3.43632 4.7981,10.02889 6.92463,14.01362z" fill="#c09c1d" stroke="#000000" stroke-width="0.30577"/></g></g></svg>