<svg width="129.733" height="140" viewBox="0 0 121.625 131.25" xmlns="http://www.w3.org/2000/svg"><g opacity=".3"><path d="M91.765 115.083l2.126-.841c2.733-1.446 5.637-3.27 8.107-4.135-1.466.405-1.693.051-8.059 3.453z"/><g stroke-width=".75"><path d="M102.826 110.07l-.606.038.47.237-.718-.16.47.29-.47-.13.37.358-.414-.28-.209-.144c-.13-.095-.207-.302-.021-.434l.193-.164.384-.323-.472.536.594-.32-.313.306.573-.203-.444.286.607-.026-.767.107z"/><path d="M102.157 110.663l-.604-.065.48-.217-.725.128.483-.269-.476.109.387-.34-.427.261-.215.134c-.134.09-.22.293-.041.433l.185.173.37.34-.448-.558.58.347-.3-.32.563.228-.43-.305.605.053-.761-.141z"/><path d="M101.727 109.434l-.366.493.484-.21-.587.452.522-.175-.403.279.51-.055-.48.138-.243.069c-.156.038-.362-.037-.34-.265l.003-.257.008-.505.095.712.146-.666.026.44.22-.574-.074.528.375-.485-.419.661z"/><path d="M100.988 109.498l-.275.55.44-.292-.5.549.485-.265-.349.346.492-.144-.448.221-.228.11c-.147.066-.362.03-.38-.2l-.042-.252-.079-.5.216.685.03-.682.1.429.119-.605.017.534.286-.545-.298.726z"/><path d="M101.263 110.801l-.607.025.444-.285-.698.234.438-.337-.455.178.334-.394-.385.322-.193.164c-.12.109-.177.323.021.434l.209.144.414.28-.523-.484.623.257-.342-.272.59.142-.47-.238.606-.037-.773-.027z"/><path d="M100.113 109.777l-.248.645.46-.375-.498.668.512-.35-.352.426.534-.216-.478.297-.242.149c-.157.09-.402.072-.446-.182l-.074-.277-.142-.55.315.742-.041-.766.16.468.066-.688.077.593.26-.64-.254.844z"/><path d="M100.389 111.535l-.544-.124.46-.146-.673.04.467-.194-.445.049.388-.27-.416.194-.21.099c-.131.067-.231.243-.082.39l.152.177.301.349-.35-.555.492.377-.24-.323.49.267-.361-.323.546.112-.68-.21zM99.086 110.24l-.34.6.51-.301-.591.586.558-.27-.41.369.559-.134-.515.222-.262.111c-.168.065-.408.011-.415-.247l-.032-.285-.06-.565.203.78.071-.763.09.487.166-.67-.01.598.35-.594-.374.797z"/><path d="M99.515 112.229l-.61-.307.588-.038-.812-.153.611-.091-.542-.074.537-.206-.55.107-.277.056c-.176.041-.345.221-.21.44l.13.255.258.504-.258-.764.477.594-.192-.455.506.463-.337-.492.617.295-.747-.45zM97.964 110.386l-.193.735.458-.466-.465.792.517-.447-.333.51.557-.303-.485.384-.247.193c-.161.117-.43.129-.51-.143l-.114-.294-.221-.583.433.77-.137-.83.231.49-.01-.76.156.64.207-.732-.176.954z"/><path d="M98.545 111.93l-.745.132.502-.426-.824.405.487-.49-.533.296.348-.542-.422.462-.213.235c-.13.154-.165.427.097.532l.28.142.557.278-.724-.51.81.212-.465-.278.751.077-.618-.215.742-.147-.96.096z"/><path d="M96.828 110.899l-.204.775.483-.492-.49.835.545-.47-.351.536.587-.318-.512.404-.26.204c-.17.123-.453.135-.537-.151l-.12-.31-.234-.614.457.812-.144-.876.243.518-.01-.802.164.674.219-.771-.186 1.005zM97.667 113.122l-.764-.204.66-.182-.957.019.673-.249-.633.045.563-.361-.6.251-.302.13c-.19.088-.34.332-.137.548l.206.26.409.51-.468-.806.678.562-.323-.471.68.406-.495-.479.768.189-.952-.334z"/><path d="M95.827 111.478l-.204.776.482-.493-.49.836.546-.471-.351.537.587-.319-.512.405-.26.203c-.17.123-.454.136-.537-.15l-.12-.311-.234-.614.457.812-.144-.876.243.518-.01-.802.164.674.218-.771-.186 1.005zM96.64 113.647l-.775-.154.647-.225-.954.082.655-.293-.629.087.54-.397-.583.29-.294.149c-.183.101-.318.355-.101.556l.222.246.441.482-.519-.773.712.515-.352-.448.705.36-.524-.445.778.138-.971-.27z"/><path d="M94.818 112.108l-.204.776.483-.492-.49.835.546-.47-.352.536.588-.319-.512.405-.26.203c-.17.124-.454.136-.538-.15l-.12-.31-.234-.615.457.813-.144-.877.243.518-.01-.801.164.674.219-.772-.186 1.006z"/><path d="M95.615 114.36l-.748-.26.671-.134-.956-.05.689-.2-.635-.002.588-.318-.616.207-.311.106c-.195.075-.363.308-.176.538l.187.274.372.539-.41-.838.637.61-.289-.494.65.455-.46-.514.753.245-.926-.403z"/></g><path d="M91.455 114.83c9.679-3.534 19.98-4.182 30.17-5.634-10.409 3.097-18.693 4.086-28.768 6.098l-2.096.831z"/><path d="M113.458 116.17c-9.675-3.4-21.162-3.826-28.426 2.853l-4.525 2.822.327.577c10.486-9.254 22.038-7.037 32.624-6.252z"/><path d="M85.618 118.526l.164.415-13.768 10.016-.453-.753c4.579-3.374 9.022-6.936 14.057-9.678z"/><g><path d="M72.141 128.146c10.912-9.271 27.143-20.838 26.48-35.748-6.125 16.177-14.537 25.056-26.48 35.748z"/><path d="M72.286 128.219c5.378-5.892 13.515-13.545 12.237-20.916-2.344 8.788-6.384 14.195-12.237 20.916zM71.744 128.837c9.007-8.57 17.745-6.856 23.814-2.61-8.391-2.464-13.276-4.513-23.814 2.61z"/></g><g><path d="M78.406 104.964l2.725-1.835c3.326-2.732 6.72-5.933 9.942-7.948-1.965 1.085-2.472.826-10.203 7.227z"/><g stroke-width=".75"><path d="M92.277 94.764l-.876.316.81.029-1.138.164.835.083-.757.082.721.197-.748-.099-.378-.05c-.238-.04-.454-.217-.244-.437l.205-.257.41-.506-.436.766.72-.6-.312.457.746-.47-.515.496.882-.304-1.079.46z"/><path d="M91.578 95.679l-.923.209.604-.442-1.007.462.581-.496-.649.329.405-.526-.502.463-.253.236c-.154.153-.183.402.15.463l.359.093.71.18-.932-.368 1.023.091-.596-.191.942-.023-.785-.117.919-.222-1.192.203z"/><path d="M90.344 94.615l-.299.672.612-.435-.646.73.686-.418-.458.47.723-.288-.64.36-.325.182c-.211.11-.55.128-.63-.117l-.12-.264-.235-.523.487.689-.11-.751.253.44.046-.69.147.576.317-.67-.295.87z"/><path d="M89.286 95.018l-.137.69.507-.5-.47.79.585-.493-.345.515.655-.373-.553.432-.282.218c-.185.134-.52.195-.658-.032l-.185-.24-.36-.477.652.604-.29-.713.36.393-.121-.674.286.54.155-.69-.085.88z"/><path d="M90.327 96.229l-.883.303.517-.495-.917.559.483-.547-.585.391.3-.557-.41.507-.206.257c-.123.166-.102.411.244.435l.378.052.748.099-1.008-.258 1.044-.021-.637-.123.94-.124-.81-.03.877-.315-1.154.327z"/><path d="M88.132 95.704l-.051.775.496-.595-.41.914.585-.594-.312.598.682-.466-.559.523-.285.264c-.188.163-.557.258-.747.018l-.244-.252-.478-.498.827.616-.434-.766.463.407-.237-.737.404.574.071-.776.037.982z"/><path d="M89.396 97.381l-.862.122.607-.36-.974.348.595-.412-.632.253.44-.453-.52.388-.26.198c-.161.13-.223.356.069.438l.31.112.615.22-.789-.41.91.163-.51-.222.853.05-.691-.167.86-.134-1.104.096zM86.842 96.648l-.208.772.605-.543-.586.872.691-.532-.425.566.76-.393-.652.464-.332.233c-.217.143-.596.198-.732-.064l-.187-.278-.364-.552.68.708-.267-.816.37.459-.082-.765.277.62.228-.77-.165.988z"/><path d="M88.445 98.493l-1.05-.036.85-.308-1.272.215.856-.374-.836.172.693-.456-.759.36-.382.185c-.239.123-.401.385-.095.547l.316.203.627.398-.753-.665.993.39-.505-.378.971.244-.736-.35 1.054.02-1.322-.12zM85.259 97.311l.074.843.447-.688-.3 1.025.547-.695-.244.675.675-.565-.53.616-.27.31c-.18.195-.571.33-.82.087l-.312-.25-.611-.496 1.015.592-.607-.79.58.399-.386-.776.542.585-.051-.846.205 1.06z"/><path d="M86.869 98.63l-1.034.475.533-.666-1.019.792.48-.724-.642.546.25-.715-.399.667-.199.338c-.116.218-.035.514.402.502l.484.017.957.03-1.317-.192 1.298-.152-.822-.073 1.145-.264-1.017.062 1.023-.49-1.368.537z"/><path d="M83.833 98.357l.078.888.472-.725-.316 1.08.576-.732-.257.712.71-.596-.557.65-.285.327c-.19.204-.602.347-.866.09l-.328-.263-.644-.523 1.07.625-.64-.833.611.42-.406-.818.57.617-.053-.892.216 1.117zM86.156 100.254l-1.227.14.884-.489-1.402.457.871-.563-.912.336.655-.628-.762.532-.383.27c-.237.179-.34.498.065.626l.43.173.853.336-1.084-.612 1.274.265-.705-.335 1.201.105-.963-.264 1.225-.158-1.567.093z"/><path d="M82.639 99.409l.077.889.472-.726-.316 1.08.576-.731-.257.71.711-.595-.557.65-.285.327c-.19.204-.603.347-.866.09l-.328-.262-.645-.523 1.07.624-.64-.833.612.42-.406-.817.57.616-.053-.892.216 1.117zM84.897 101.261l-1.22.198.845-.527-1.367.52.824-.6-.885.376.601-.654-.717.565-.36.287c-.222.187-.298.51.121.617l.447.15.886.293-1.143-.555 1.303.202-.738-.299 1.215.047-.99-.216 1.215-.215-1.565.167z"/><path d="M81.459 100.516l.077.89.472-.726-.316 1.08.576-.732-.257.711.711-.595-.557.65-.285.327c-.19.204-.603.346-.866.09l-.329-.263-.644-.523 1.07.625-.64-.833.612.42-.407-.818.571.616-.053-.89.216 1.116z"/><path d="M83.731 102.462l-1.229.075.925-.444-1.435.385.919-.519-.937.288.711-.595-.807.494-.407.251c-.252.166-.386.482.003.632l.41.195.81.383-1.013-.672 1.236.334-.665-.374 1.18.17-.929-.317 1.23-.093-1.562.01z"/></g><path d="M77.825 104.846l10.595-6.198 31.159-13.374c-15.423 8.399-21.027 11.358-28.852 14.31L80.12 104.68l-2.687 1.812z"/><path d="M110.934 96.162c-12.2-.32-23 3.23-32.7 8.88-3.015 2.285-6.074 4.564-7.838 7.042l-5.297 4.963.764.443c4.373-4.03 8.923-9.371 12.573-11.371 9.272-7.23 18.965-6.43 32.498-9.957z"/><path d="M71.018 111.306l.445.35-15.423 16.57-1.036-.565c5.108-5.555 9.925-11.24 16.014-16.355z"/><g><path d="M55.832 127.336c11.572-14.5 29.872-33.786 21.621-48.779-1.144 19.396-9.22 32.351-21.621 48.78z"/><path d="M56.08 127.345c5.06-8.503 13.33-20.074 7.849-27.053.829 10.088-2.493 17.482-7.848 27.053zM55.583 128.227c9.106-12.91 22.831-15.146 33.854-13.563-13.58 1.307-21.784 1.437-33.854 13.563z"/></g></g><g><path d="M64.386 125.632c6.356-6.593 13.778-16.497 27.543-15.428-13.603 3.227-20.088 8.235-27.543 15.428z"/><path d="M64.291 125.536c4.342-3.192 9.758-8.078 16.75-6.94-7.583 1.123-11.742 3.479-16.75 6.94zM63.83 125.857c6.087-5.403 2.819-11.078-2.245-15.152 3.886 5.485 6.71 8.705 2.246 15.152z"/></g><g><path d="M56.111 108.336l1.805-2.577c2.04-3.639 3.987-7.764 6.17-10.657-1.379 1.62-1.912 1.499-6.638 10.006z"/><g stroke-width=".75"><path d="M65.014 94.357l-.67.555.725-.192-.951.474.765-.144-.643.288h.703l-.694.106-.351.051c-.223.026-.472-.093-.36-.37l.097-.313.195-.618-.132.885.439-.796-.126.542.505-.673-.292.636.68-.544-.802.754z"/><path d="M64.697 95.463l-.747.46.389-.606-.739.736.35-.654-.465.505.185-.636-.291.6-.146.304c-.085.196-.03.452.285.423l.348-.005.687-.013-.945-.114.935-.187-.591-.03.825-.279-.731.097.738-.472-.986.527z"/><path d="M63.256 94.733l-.043.754.397-.602-.33.907.468-.605-.25.596.545-.486-.447.535-.227.27c-.151.168-.445.278-.596.055l-.194-.232-.38-.46.658.557-.344-.722.368.372-.187-.703.32.537.06-.756.026.95z"/><path d="M62.453 95.424l.107.728.282-.638-.154.919.355-.653-.136.609.456-.551-.347.583-.177.294c-.12.185-.395.337-.592.147l-.243-.19-.476-.379.777.427-.492-.635.447.296-.329-.641.43.461-.089-.732.215.905z"/><path d="M63.773 96.353l-.68.544.292-.636-.626.808.247-.678-.388.55.081-.639-.195.619-.097.313c-.055.2.045.44.359.37l.351-.051.694-.105-.976.016.916-.305-.604.05.79-.38-.725.192.67-.554-.912.64z"/><path d="M61.659 96.425l.21.79.242-.731-.061 1.026.321-.753-.078.683.45-.652-.322.676-.165.341c-.113.215-.408.41-.655.22l-.298-.184-.587-.37.934.393-.637-.65.544.282-.452-.673.546.465-.193-.796.356.973z"/><path d="M63.33 97.76l-.723.356.418-.525-.746.613.39-.574-.476.425.24-.573-.33.53-.167.268c-.1.173-.079.417.206.42l.311.028.616.052-.832-.194.858-.086-.524-.083.77-.181-.665.02.716-.368-.945.396zM60.83 97.72l.07.83.356-.708-.231 1.031.436-.72-.19.682.543-.6-.423.642-.217.323c-.145.203-.462.36-.668.135l-.257-.227-.505-.453.836.523-.505-.744.477.359-.324-.743.45.544-.053-.832.18 1.034z"/><path d="M62.855 99.13l-.94.25.65-.539-1.054.56.634-.606-.683.4.462-.646-.552.568-.277.288c-.17.188-.228.494.096.573l.346.118.686.228-.885-.461 1.007.121-.571-.242.939-.02-.766-.15.938-.266-1.208.24zM59.648 98.814l.343.824.17-.81.072 1.107.254-.844.007.742.41-.749-.264.76-.137.385c-.096.243-.397.484-.698.309l-.357-.165-.704-.33 1.093.316-.797-.626.643.242-.596-.672.671.438-.323-.832.53 1.004z"/><path d="M61.506 99.696l-.757.758.252-.812-.64 1.07.186-.856-.388.721-.015-.783-.133.776-.064.392c-.031.25.138.524.521.393l.434-.114.855-.23-1.228.166 1.099-.506-.752.151.926-.576-.88.339.744-.769-1.033.91z"/><path d="M58.732 100.248l.362.869.178-.855.077 1.168.268-.89.007.782.433-.79-.28.802-.143.405c-.101.257-.42.511-.736.327l-.377-.175-.742-.348 1.152.334-.84-.66.678.255-.628-.708.707.462-.34-.878.558 1.059zM61.411 101.516l-1.038.473.62-.73-1.088.84.584-.8-.696.583.372-.807-.498.74-.25.375c-.15.243-.136.59.265.609l.437.055.865.105-1.16-.318 1.213-.08-.734-.145 1.097-.22-.94-.004 1.032-.49-1.355.519z"/><path d="M58.023 101.626l.362.868.178-.854.077 1.167.267-.889.008.782.432-.79-.279.802-.144.405c-.1.256-.418.511-.735.326l-.378-.174-.742-.348 1.153.334-.84-.66.678.254-.629-.707.708.461-.341-.877.559 1.058zM60.63 102.866l-1.013.53.573-.758-1.037.893.531-.825-.659.617.316-.818-.448.76-.224.385c-.134.248-.095.591.311.585l.445.029.88.052-1.194-.245 1.219-.151-.751-.1 1.09-.282-.948.052 1.004-.545-1.328.593z"/><path d="M57.345 103.055l.361.869.178-.855.078 1.168.267-.89.008.782.432-.79-.28.802-.143.406c-.1.256-.419.51-.736.326l-.377-.174-.742-.349 1.153.334-.841-.66.679.255-.629-.708.708.462-.341-.878.559 1.059z"/><path d="M59.995 104.384l-1.062.41.672-.696-1.142.775.641-.769-.733.543.432-.789-.55.714-.277.362c-.168.235-.183.587.21.631l.427.085.844.163-1.118-.398 1.203-.001-.712-.194 1.1-.15-.926-.065 1.056-.428-1.377.435z"/></g><path d="M57.47 106.658c1.335-9.41-1.406-18.63-3.023-27.869-.497 9.933 1.081 17.472 1.916 26.818l-.375 2.084z"/><path d="M48.155 89.089c8.219 7.473 12.296 17.164 6.115 25.432l-2.178 4.845-.882-.087c8.787-12.079 1.685-21.378-3.055-30.19z"/><path d="M54.727 113.85l-.61-.002-8.528 15.222 1.16.137c2.894-5.077 6.085-10.1 7.978-15.357z"/><g><path d="M46.625 128.687c8.531-12.511 18.263-30.375 38.334-34.817-19.39 10.713-28.272 20.94-38.334 34.817z"/><path d="M46.477 128.587c5.965-6.611 13.31-16.19 23.565-17.568-10.877 4.973-16.663 10.27-23.565 17.568zM45.844 129.262c8.263-10.637 2.935-17.583-4.83-21.38 6.204 6.395 10.634 9.912 4.83 21.38z"/></g></g><g><path d="M39.702 126.7c6.357-6.593 13.778-16.497 27.544-15.428-13.604 3.227-20.089 8.235-27.544 15.428z"/><path d="M39.608 126.604c4.342-3.193 9.758-8.078 16.749-6.94-7.582 1.123-11.742 3.479-16.75 6.94zM39.148 126.925c6.086-5.403 2.818-11.079-2.246-15.152 3.886 5.485 6.71 8.705 2.246 15.152z"/></g></g><g fill="#7f955a"><path d="M71.01 111.256c-1.46-14.52-.797-34.796-20.42-43.126 14.797 14.684 18.13 26.909 20.42 43.126z"/><path d="M71.239 111.18c-2.403-7.944-4.432-19.213-15.036-22.548C65.175 95.8 68.231 102.35 71.24 111.18z" fill="#98935c"/><path d="M71.513 111.995c-2.373-12.533 8.1-18.72 19.266-21.197-11.1 5.454-18.344 8.263-19.266 21.197z"/></g><g fill="#7f955a"><path d="M46.925 128.456c-1.459-14.52-.796-34.795-20.418-43.125 14.796 14.683 18.128 26.908 20.418 43.125z"/><path d="M47.155 128.38c-2.403-7.944-4.432-19.212-15.036-22.547 8.972 7.166 12.028 13.718 15.036 22.547zM47.429 129.195c-2.373-12.532 8.1-18.719 19.266-21.196-11.1 5.453-18.344 8.263-19.266 21.196z"/></g><path d="M81.81 91.172l1.356-3.29c1.3-4.671 2.332-9.987 4.045-13.671-1.148 2.054-1.832 1.868-4.818 12.792z" fill="#fbf18a"/><g fill="#c3c042" stroke="#b9a133" stroke-width=".75"><path d="M-66.426 616.69l-4.865 7.567 6.916-3.57-8.174 7.203 7.527-3.117-5.648 4.5 7.457-1.35-6.934 2.532-3.517 1.262c-2.263.725-5.38-.133-5.303-3.484l-.238-3.73-.428-7.368 2.169 10.265 1.44-9.855.859 6.374 2.634-8.59-.53 7.765 5.013-7.47-5.461 10.081z" transform="matrix(.11183 .02455 -.01163 .10737 102.693 8.7)"/><path d="M-65.32 629.801l-6.06 6.649 1.67-7.602-4.857 9.751 1.075-8.074-2.895 6.615-.614-7.553-.663 7.351-.314 3.724c-.118 2.373 1.513 5.164 4.731 4.227l3.665-.729 7.231-1.483-10.478.546 9.153-3.928-6.38.81 7.622-4.755-7.367 2.51 5.928-6.766-8.336 7.871z" stroke="#502d16" transform="matrix(.11183 .02455 -.01163 .10737 102.693 8.7)"/><path d="M-83.547 624.343l2.592 8.614 1.78-7.577.166 10.893 2.519-7.747-.247 7.217 3.817-6.546-2.578 6.916-1.326 3.494c-.92 2.191-3.595 4.003-6.093 1.768l-2.99-2.241-5.88-4.462 9.213 5.02-6.557-7.497 5.403 3.488-4.819-7.583 5.559 5.447-2.422-8.663 4.116 10.7z" stroke="olive" transform="matrix(.11183 .02455 -.01163 .10737 102.693 8.7)"/><path d="M-89.264 633.716l4.066 8.025.42-7.771 2.078 10.693 1.118-8.069 1.026 7.148 2.607-7.115-1.323 7.262-.691 3.672c-.52 2.319-2.836 4.573-5.687 2.812l-3.338-1.68-6.573-3.36 9.952 3.323-7.772-6.228 5.932 2.484-6.077-6.618 6.43 4.385-3.907-8.103 5.933 9.81z" transform="matrix(.11183 .02455 -.01163 .10737 102.693 8.7)"/><path d="M-71.525 641.666l-5.019 7.465.536-7.764-3.373 10.358-.121-8.145-1.894 6.968-1.715-7.38.422 7.368.236 3.73c.231 2.365 2.254 4.886 5.3 3.488l3.518-1.26 6.936-2.527-10.285 2.077 8.478-5.228-6.193 1.738 6.843-5.823-6.919 3.564 4.87-7.563-7.09 9.01z" transform="matrix(.11183 .02455 -.01163 .10737 102.693 8.7)"/><path d="M-93.653 646.565l5.421 8.522-.38-8.73 3.49 11.722.368-9.139 1.928 7.876 2.135-8.236-.684 8.26-.371 4.179c-.327 2.647-2.669 5.42-6.048 3.763l-3.913-1.513-7.712-3.034 11.484 2.624-9.366-6.11 6.9 2.127-7.514-6.73 7.664 4.197-5.251-8.627 7.702 10.313z" stroke="olive" transform="matrix(.11183 .02455 -.01163 .10737 102.693 8.7)"/><path d="M-70.55 658.426l-6.215 5.43 2.312-6.755-5.44 8.383 1.82-7.248-3.328 5.728.226-6.948-1.369 6.632-.673 3.361c-.354 2.15.842 4.864 3.872 4.345l3.417-.284 6.744-.6-9.606-.591 8.75-2.629-5.9.076 7.443-3.542-6.976 1.522 6.107-5.55-8.416 6.307z" stroke="#502d16" transform="matrix(.11183 .02455 -.01163 .10737 102.693 8.7)"/><path d="M-97.21 662.827l4.095 9.233.92-8.69 1.712 12.11 1.72-8.982.737 8.074 3.335-7.828-1.903 8.067-.988 4.078c-.716 2.57-3.444 4.963-6.54 2.823l-3.645-2.077-7.176-4.146 10.967 4.3-8.355-7.433 6.509 3.129-6.432-7.772 6.956 5.29-3.912-9.312 6.085 11.342z" transform="matrix(.11183 .02455 -.01163 .10737 102.693 8.7)"/><path d="M-70.04 674.847l-8.968 4.644 4.716-7.356-8.91 8.38 4.275-8.086-5.623 5.84 2.292-8.193-3.559 7.485-1.78 3.8c-1.047 2.453-.415 6.027 3.339 6.292l4.143.658 8.193 1.252-11.248-3.502 11.168-.576-7.035-1.628 9.878-2.044-8.735-.221 8.876-4.82-11.842 5.046z" stroke="olive" transform="matrix(.11183 .02455 -.01163 .10737 102.693 8.7)"/><path d="M-105.318 677.48l6.963 8.65-1.482-9.492 5.246 12.38-.714-10.029 3.067 8.369 1.327-9.259.262 9.108.105 4.61c-.034 2.934-2.254 6.249-6.148 4.851l-4.46-1.175-8.797-2.373 12.868 1.464-10.98-5.53 7.8 1.48-9.032-6.435 8.886 3.65-6.791-8.785 9.674 10.327z" stroke="#a05a2c" transform="matrix(.11183 .02455 -.01163 .10737 102.693 8.7)"/><path d="M-82.06 683.852l-4.969 10.033-.61-9.667-2.465 13.333-1.484-10.03-1.195 8.908-3.326-8.826 1.73 9.023.901 4.563c.673 2.88 3.582 5.66 7.11 3.435l4.136-2.13 8.142-4.255-12.348 4.248 9.602-7.84-7.355 3.159 7.488-8.306-7.952 5.532 4.77-10.13-7.272 12.278z" stroke="olive" transform="matrix(.11183 .02455 -.01163 .10737 102.693 8.7)"/><path d="M-109.24 695.47l7.341 9.119-1.563-10.007 5.532 13.053-.754-10.574 3.234 8.823 1.4-9.761.275 9.601.111 4.862c-.036 3.092-2.376 6.587-6.482 5.114l-4.702-1.239-9.274-2.502 13.566 1.544-11.576-5.832 8.223 1.562-9.522-6.785 9.369 3.848-7.16-9.262 10.2 10.889z" transform="matrix(.11183 .02455 -.01163 .10737 102.693 8.7)"/><path d="M-75.72 704.614l-9.1 7.365 3.638-9.452-8.16 11.593 2.967-10.177-5.022 7.942.69-9.837-2.294 9.328-1.133 4.729c-.617 3.03.933 6.94 5.257 6.366l4.858-.22 9.593-.49-13.586-1.352 12.545-3.259-8.368-.208 10.74-4.624-9.97 1.786 8.952-7.543-12.266 8.492z" stroke="#a05a2c" transform="matrix(.11183 .02455 -.01163 .10737 102.693 8.7)"/><path d="M-111.197 712.424l7.341 9.118-1.563-10.006 5.532 13.052-.754-10.574 3.234 8.823 1.4-9.761.275 9.602.11 4.861c-.035 3.092-2.375 6.587-6.48 5.114l-4.703-1.239-9.274-2.502 13.566 1.544-11.576-5.832 8.223 1.562-9.522-6.785 9.369 3.848-7.16-9.261 10.2 10.888z" stroke="olive" transform="matrix(.11183 .02455 -.01163 .10737 102.693 8.7)"/><path d="M-78.548 721.399l-8.602 7.94 3.016-9.668-7.389 12.099 2.3-10.349-4.496 8.253.05-9.862-1.683 9.458-.824 4.792c-.419 3.064 1.382 6.865 5.66 6.01l4.833-.534 9.542-1.112-13.646-.467 12.306-4.067-8.363.336 10.416-5.312-9.832 2.43 8.443-8.109-11.689 9.272z" transform="matrix(.11183 .02455 -.01163 .10737 102.693 8.7)"/><path d="M-112.618 729.9l7.342 9.119-1.563-10.007 5.531 13.053-.753-10.574 3.234 8.823 1.399-9.762.275 9.602.111 4.862c-.035 3.092-2.376 6.587-6.481 5.114l-4.703-1.24-9.274-2.501 13.566 1.543-11.575-5.831 8.223 1.561-9.522-6.784 9.368 3.848-7.16-9.262 10.2 10.888z" stroke="#a05a2c" transform="matrix(.11183 .02455 -.01163 .10737 102.693 8.7)"/><path d="M-79.149 739.791l-9.606 6.69 4.31-9.165-8.975 10.975 3.693-9.937-5.582 7.56 1.398-9.762-2.96 9.138-1.472 4.635c-.834 2.978.431 6.99 4.785 6.728l4.861.131 9.604.203-13.454-2.328 12.747-2.346-8.33-.81 11.044-3.838-10.072 1.062 9.472-6.878-12.846 7.586z" stroke="olive" transform="matrix(.11183 .02455 -.01163 .10737 102.693 8.7)"/></g><path d="M81.156 91.196c6.534-14.62 17.27-26.398 26.908-39.035-7.881 14.867-15.948 24.908-24.775 38.101l-1.335 3.247z" fill="#98935c"/><path d="M107.404 69.344C92.446 75.54 79.076 87.28 79.067 103.141l-1.631 8.255 1.068.353c.48-22.427 16.102-32.062 28.9-42.405z" fill="#50932e"/><path d="M79.118 101.912l.69.329-3.228 26.855-1.423-.43c1.021-8.984 1.662-18.05 3.961-26.754z" fill="#aa825c"/><g fill="#3d774c"><path d="M75.736 127.975c.937-22.901 5.035-54.267-13.834-71.666 12.814 26.18 14.198 45.94 13.834 71.666z"/><path d="M75.986 127.91c-1.145-12.894-1.345-30.87-11.738-38.458 8.062 13.174 10.117 24.05 11.738 38.457zM76.131 129.238c-.34-20.018 11.52-27.26 23.473-28.58-12.385 5.961-20.342 8.685-23.473 28.58z"/></g><g stroke="olive"><path d="M-104.37 792.005l8.728-32.64c6.94-45.097 10.92-95.52 22.393-132.456-8.084 20.985-14.23 20.653-29.983 126.004z" fill="#fbf18a" stroke-width=".938" transform="matrix(.15801 -.00237 .0014 .1696 73.581 -65.034)"/><g fill="#c3c042" stroke-width=".75"><path d="M-66.426 616.69l-4.865 7.567 6.916-3.57-8.174 7.203 7.527-3.117-5.648 4.5 7.457-1.35-6.934 2.532-3.517 1.262c-2.263.725-5.38-.133-5.303-3.484l-.238-3.73-.428-7.368 2.169 10.265 1.44-9.855.859 6.374 2.634-8.59-.53 7.765 5.013-7.47-5.461 10.081z" transform="matrix(.15801 -.00237 .0014 .1696 73.581 -65.034)"/><path d="M-65.32 629.801l-6.06 6.649 1.67-7.602-4.857 9.751 1.075-8.074-2.895 6.615-.614-7.553-.663 7.351-.314 3.724c-.118 2.373 1.513 5.164 4.731 4.227l3.665-.729 7.231-1.483-10.478.546 9.153-3.928-6.38.81 7.622-4.755-7.367 2.51 5.928-6.766-8.336 7.871z" transform="matrix(.15801 -.00237 .0014 .1696 73.581 -65.034)"/><path d="M-83.547 624.343l2.592 8.614 1.78-7.577.166 10.893 2.519-7.747-.247 7.217 3.817-6.546-2.578 6.916-1.326 3.494c-.92 2.191-3.595 4.003-6.093 1.768l-2.99-2.241-5.88-4.462 9.213 5.02-6.557-7.497 5.403 3.488-4.819-7.583 5.559 5.447-2.422-8.663 4.116 10.7z" transform="matrix(.15801 -.00237 .0014 .1696 73.581 -65.034)"/><path d="M-89.264 633.716l4.066 8.025.42-7.771 2.078 10.693 1.118-8.069 1.026 7.148 2.607-7.115-1.323 7.262-.691 3.672c-.52 2.319-2.836 4.573-5.687 2.812l-3.338-1.68-6.573-3.36 9.952 3.323-7.772-6.228 5.932 2.484-6.077-6.618 6.43 4.385-3.907-8.103 5.933 9.81z" transform="matrix(.15801 -.00237 .0014 .1696 73.581 -65.034)"/><path d="M-71.525 641.666l-5.019 7.465.536-7.764-3.373 10.358-.121-8.145-1.894 6.968-1.715-7.38.422 7.368.236 3.73c.231 2.365 2.254 4.886 5.3 3.488l3.518-1.26 6.936-2.527-10.285 2.077 8.478-5.228-6.193 1.738 6.843-5.823-6.919 3.564 4.87-7.563-7.09 9.01z" transform="matrix(.15801 -.00237 .0014 .1696 73.581 -65.034)"/><path d="M-93.653 646.565l5.421 8.522-.38-8.73 3.49 11.722.368-9.139 1.928 7.876 2.135-8.236-.684 8.26-.371 4.179c-.327 2.647-2.669 5.42-6.048 3.763l-3.913-1.513-7.712-3.034 11.484 2.624-9.366-6.11 6.9 2.127-7.514-6.73 7.664 4.197-5.251-8.627 7.702 10.313z" transform="matrix(.15801 -.00237 .0014 .1696 73.581 -65.034)"/><path d="M-70.55 658.426l-6.215 5.43 2.312-6.755-5.44 8.383 1.82-7.248-3.328 5.728.226-6.948-1.369 6.632-.673 3.361c-.354 2.15.842 4.864 3.872 4.345l3.417-.284 6.744-.6-9.606-.591 8.75-2.629-5.9.076 7.443-3.542-6.976 1.522 6.107-5.55-8.416 6.307zM-97.21 662.827l4.095 9.233.92-8.69 1.712 12.11 1.72-8.982.737 8.074 3.335-7.828-1.903 8.067-.988 4.078c-.716 2.57-3.444 4.963-6.54 2.823l-3.645-2.077-7.176-4.146 10.967 4.3-8.355-7.433 6.509 3.129-6.432-7.772 6.956 5.29-3.912-9.312 6.085 11.342z" transform="matrix(.15801 -.00237 .0014 .1696 73.581 -65.034)"/><path d="M-70.04 674.847l-8.968 4.644 4.716-7.356-8.91 8.38 4.275-8.086-5.623 5.84 2.292-8.193-3.559 7.485-1.78 3.8c-1.047 2.453-.415 6.027 3.339 6.292l4.143.658 8.193 1.252-11.248-3.502 11.168-.576-7.035-1.628 9.878-2.044-8.735-.221 8.876-4.82-11.842 5.046zM-105.318 677.48l6.963 8.65-1.482-9.492 5.246 12.38-.714-10.029 3.067 8.369 1.327-9.259.262 9.108.105 4.61c-.034 2.934-2.254 6.249-6.148 4.851l-4.46-1.175-8.797-2.373 12.868 1.464-10.98-5.53 7.8 1.48-9.032-6.435 8.886 3.65-6.791-8.785 9.674 10.327z" transform="matrix(.15801 -.00237 .0014 .1696 73.581 -65.034)"/><path d="M-82.06 683.852l-4.969 10.033-.61-9.667-2.465 13.333-1.484-10.03-1.195 8.908-3.326-8.826 1.73 9.023.901 4.563c.673 2.88 3.582 5.66 7.11 3.435l4.136-2.13 8.142-4.255-12.348 4.248 9.602-7.84-7.355 3.159 7.488-8.306-7.952 5.532 4.77-10.13-7.272 12.278z" transform="matrix(.15801 -.00237 .0014 .1696 73.581 -65.034)"/><path d="M-109.24 695.47l7.341 9.119-1.563-10.007 5.532 13.053-.754-10.574 3.234 8.823 1.4-9.761.275 9.601.111 4.862c-.036 3.092-2.376 6.587-6.482 5.114l-4.702-1.239-9.274-2.502 13.566 1.544-11.576-5.832 8.223 1.562-9.522-6.785 9.369 3.848-7.16-9.262 10.2 10.889zM-75.72 704.614l-9.1 7.365 3.638-9.452-8.16 11.593 2.967-10.177-5.022 7.942.69-9.837-2.294 9.328-1.133 4.729c-.617 3.03.933 6.94 5.257 6.366l4.858-.22 9.593-.49-13.586-1.352 12.545-3.259-8.368-.208 10.74-4.624-9.97 1.786 8.952-7.543-12.266 8.492z" transform="matrix(.15801 -.00237 .0014 .1696 73.581 -65.034)"/><path d="M-111.197 712.424l7.341 9.118-1.563-10.006 5.532 13.052-.754-10.574 3.234 8.823 1.4-9.761.275 9.602.11 4.861c-.035 3.092-2.375 6.587-6.48 5.114l-4.703-1.239-9.274-2.502 13.566 1.544-11.576-5.832 8.223 1.562-9.522-6.785 9.369 3.848-7.16-9.261 10.2 10.888zM-78.548 721.399l-8.602 7.94 3.016-9.668-7.389 12.099 2.3-10.349-4.496 8.253.05-9.862-1.683 9.458-.824 4.792c-.419 3.064 1.382 6.865 5.66 6.01l4.833-.534 9.542-1.112-13.646-.467 12.306-4.067-8.363.336 10.416-5.312-9.832 2.43 8.443-8.109-11.689 9.272z" transform="matrix(.15801 -.00237 .0014 .1696 73.581 -65.034)"/><path d="M-112.618 729.9l7.342 9.119-1.563-10.007 5.531 13.053-.753-10.574 3.234 8.823 1.399-9.762.275 9.602.111 4.862c-.035 3.092-2.376 6.587-6.481 5.114l-4.703-1.24-9.274-2.501 13.566 1.543-11.575-5.831 8.223 1.561-9.522-6.784 9.368 3.848-7.16-9.262 10.2 10.888z" transform="matrix(.15801 -.00237 .0014 .1696 73.581 -65.034)"/><path d="M-79.149 739.791l-9.606 6.69 4.31-9.165-8.975 10.975 3.693-9.937-5.582 7.56 1.398-9.762-2.96 9.138-1.472 4.635c-.834 2.978.431 6.99 4.785 6.728l4.861.131 9.604.203-13.454-2.328 12.747-2.346-8.33-.81 11.044-3.838-10.072 1.062 9.472-6.878-12.846 7.586z" transform="matrix(.15801 -.00237 .0014 .1696 73.581 -65.034)"/></g></g><path d="M57.294 69.815l6.314-19.923L88.025 0C78.083 27.885 74.36 37.851 67.736 49.65L60.08 67.61l-1.312 5.483z" fill="#98935c"/><path d="M89.903 26.714c-16.26 9.569-26.032 24.915-31.84 43.112-1.169 6.606-2.403 13.236-1.71 19.145l-.909 13.307 1.529.159c.83-10.864.312-24.226 2.65-30.847 3.347-20.674 16.923-27.3 30.28-44.876z" fill="#50932e"/><path d="M56.224 87.06l1.002.258-.09 42.54-2.03-.153c-.05-14.209-.638-28.41 1.118-42.645z" fill="#aa825c"/><g fill="#3d774c"><path d="M55.79 128.433C53.37 92.81 53.929 43.008 25.119 22.982 47.012 58.715 52.12 88.662 55.79 128.433z"/><path d="M56.125 128.242c-3.668-19.455-6.857-47.081-22.402-55.038 13.24 17.402 17.833 33.423 22.402 55.038zM56.54 130.237c-3.715-30.722 11.448-46.143 27.696-52.47-16.091 13.634-26.609 20.69-27.695 52.47z"/></g><g fill="#3d774c"><path d="M68.662 130.358c-.745-17.095-4.514-40.833 14.053-51.572C70 96.735 68.498 111.233 68.662 130.358z"/><path d="M68.418 130.28c1.215-9.432 1.544-22.744 11.756-27.179-7.976 8.847-10.064 16.68-11.756 27.18zM68.266 131.25c.483-14.81-11.053-21.545-22.722-23.896 12.057 5.844 19.811 8.778 22.722 23.896z"/></g><g><path d="M30.587 82.972l.061-6.17c-.624-8.383-1.845-17.652-1.555-24.678-.382 4.035-1.244 4.146.278 23.717z" fill="#fbf18a"/><g fill="#c3c042" stroke="#b9a133" stroke-width=".75"><path d="M-66.426 616.69l-4.865 7.567 6.916-3.57-8.174 7.203 7.527-3.117-5.648 4.5 7.457-1.35-6.934 2.532-3.517 1.262c-2.263.725-5.38-.133-5.303-3.484l-.238-3.73-.428-7.368 2.169 10.265 1.44-9.855.859 6.374 2.634-8.59-.53 7.765 5.013-7.47-5.461 10.081z" stroke="#a05a2c" transform="matrix(.13844 -.02776 .03514 .18162 17.201 -63.77)"/><path d="M-65.32 629.801l-6.06 6.649 1.67-7.602-4.857 9.751 1.075-8.074-2.895 6.615-.614-7.553-.663 7.351-.314 3.724c-.118 2.373 1.513 5.164 4.731 4.227l3.665-.729 7.231-1.483-10.478.546 9.153-3.928-6.38.81 7.622-4.755-7.367 2.51 5.928-6.766-8.336 7.871z" stroke="olive" transform="matrix(.13844 -.02776 .03514 .18162 17.201 -63.77)"/><path d="M-83.547 624.343l2.592 8.614 1.78-7.577.166 10.893 2.519-7.747-.247 7.217 3.817-6.546-2.578 6.916-1.326 3.494c-.92 2.191-3.595 4.003-6.093 1.768l-2.99-2.241-5.88-4.462 9.213 5.02-6.557-7.497 5.403 3.488-4.819-7.583 5.559 5.447-2.422-8.663 4.116 10.7z" transform="matrix(.13844 -.02776 .03514 .18162 17.201 -63.77)"/><path d="M-89.264 633.716l4.066 8.025.42-7.771 2.078 10.693 1.118-8.069 1.026 7.148 2.607-7.115-1.323 7.262-.691 3.672c-.52 2.319-2.836 4.573-5.687 2.812l-3.338-1.68-6.573-3.36 9.952 3.323-7.772-6.228 5.932 2.484-6.077-6.618 6.43 4.385-3.907-8.103 5.933 9.81z" transform="matrix(.13844 -.02776 .03514 .18162 17.201 -63.77)"/><path d="M-71.525 641.666l-5.019 7.465.536-7.764-3.373 10.358-.121-8.145-1.894 6.968-1.715-7.38.422 7.368.236 3.73c.231 2.365 2.254 4.886 5.3 3.488l3.518-1.26 6.936-2.527-10.285 2.077 8.478-5.228-6.193 1.738 6.843-5.823-6.919 3.564 4.87-7.563-7.09 9.01z" stroke="#502d16" transform="matrix(.13844 -.02776 .03514 .18162 17.201 -63.77)"/><path d="M-93.653 646.565l5.421 8.522-.38-8.73 3.49 11.722.368-9.139 1.928 7.876 2.135-8.236-.684 8.26-.371 4.179c-.327 2.647-2.669 5.42-6.048 3.763l-3.913-1.513-7.712-3.034 11.484 2.624-9.366-6.11 6.9 2.127-7.514-6.73 7.664 4.197-5.251-8.627 7.702 10.313z" stroke="olive" transform="matrix(.13844 -.02776 .03514 .18162 17.201 -63.77)"/><path d="M-70.55 658.426l-6.215 5.43 2.312-6.755-5.44 8.383 1.82-7.248-3.328 5.728.226-6.948-1.369 6.632-.673 3.361c-.354 2.15.842 4.864 3.872 4.345l3.417-.284 6.744-.6-9.606-.591 8.75-2.629-5.9.076 7.443-3.542-6.976 1.522 6.107-5.55-8.416 6.307zM-97.21 662.827l4.095 9.233.92-8.69 1.712 12.11 1.72-8.982.737 8.074 3.335-7.828-1.903 8.067-.988 4.078c-.716 2.57-3.444 4.963-6.54 2.823l-3.645-2.077-7.176-4.146 10.967 4.3-8.355-7.433 6.509 3.129-6.432-7.772 6.956 5.29-3.912-9.312 6.085 11.342z" stroke="#a05a2c" transform="matrix(.13844 -.02776 .03514 .18162 17.201 -63.77)"/><path d="M-70.04 674.847l-8.968 4.644 4.716-7.356-8.91 8.38 4.275-8.086-5.623 5.84 2.292-8.193-3.559 7.485-1.78 3.8c-1.047 2.453-.415 6.027 3.339 6.292l4.143.658 8.193 1.252-11.248-3.502 11.168-.576-7.035-1.628 9.878-2.044-8.735-.221 8.876-4.82-11.842 5.046zM-105.318 677.48l6.963 8.65-1.482-9.492 5.246 12.38-.714-10.029 3.067 8.369 1.327-9.259.262 9.108.105 4.61c-.034 2.934-2.254 6.249-6.148 4.851l-4.46-1.175-8.797-2.373 12.868 1.464-10.98-5.53 7.8 1.48-9.032-6.435 8.886 3.65-6.791-8.785 9.674 10.327z" transform="matrix(.13844 -.02776 .03514 .18162 17.201 -63.77)"/><path d="M-82.06 683.852l-4.969 10.033-.61-9.667-2.465 13.333-1.484-10.03-1.195 8.908-3.326-8.826 1.73 9.023.901 4.563c.673 2.88 3.582 5.66 7.11 3.435l4.136-2.13 8.142-4.255-12.348 4.248 9.602-7.84-7.355 3.159 7.488-8.306-7.952 5.532 4.77-10.13-7.272 12.278z" stroke="olive" transform="matrix(.13844 -.02776 .03514 .18162 17.201 -63.77)"/><path d="M-109.24 695.47l7.341 9.119-1.563-10.007 5.532 13.053-.754-10.574 3.234 8.823 1.4-9.761.275 9.601.111 4.862c-.036 3.092-2.376 6.587-6.482 5.114l-4.702-1.239-9.274-2.502 13.566 1.544-11.576-5.832 8.223 1.562-9.522-6.785 9.369 3.848-7.16-9.262 10.2 10.889z" stroke="#a05a2c" transform="matrix(.13844 -.02776 .03514 .18162 17.201 -63.77)"/><path d="M-75.72 704.614l-9.1 7.365 3.638-9.452-8.16 11.593 2.967-10.177-5.022 7.942.69-9.837-2.294 9.328-1.133 4.729c-.617 3.03.933 6.94 5.257 6.366l4.858-.22 9.593-.49-13.586-1.352 12.545-3.259-8.368-.208 10.74-4.624-9.97 1.786 8.952-7.543-12.266 8.492zM-111.197 712.424l7.341 9.118-1.563-10.006 5.532 13.052-.754-10.574 3.234 8.823 1.4-9.761.275 9.602.11 4.861c-.035 3.092-2.375 6.587-6.48 5.114l-4.703-1.239-9.274-2.502 13.566 1.544-11.576-5.832 8.223 1.562-9.522-6.785 9.369 3.848-7.16-9.261 10.2 10.888z" transform="matrix(.13844 -.02776 .03514 .18162 17.201 -63.77)"/><path d="M-78.548 721.399l-8.602 7.94 3.016-9.668-7.389 12.099 2.3-10.349-4.496 8.253.05-9.862-1.683 9.458-.824 4.792c-.419 3.064 1.382 6.865 5.66 6.01l4.833-.534 9.542-1.112-13.646-.467 12.306-4.067-8.363.336 10.416-5.312-9.832 2.43 8.443-8.109-11.689 9.272zM-112.618 729.9l7.342 9.119-1.563-10.007 5.531 13.053-.753-10.574 3.234 8.823 1.399-9.762.275 9.602.111 4.862c-.035 3.092-2.376 6.587-6.481 5.114l-4.703-1.24-9.274-2.501 13.566 1.543-11.575-5.831 8.223 1.561-9.522-6.784 9.368 3.848-7.16-9.262 10.2 10.888z" stroke="#a05a2c" transform="matrix(.13844 -.02776 .03514 .18162 17.201 -63.77)"/><path d="M-79.149 739.791l-9.606 6.69 4.31-9.165-8.975 10.975 3.693-9.937-5.582 7.56 1.398-9.762-2.96 9.138-1.472 4.635c-.834 2.978.431 6.99 4.785 6.728l4.861.131 9.604.203-13.454-2.328 12.747-2.346-8.33-.81 11.044-3.838-10.072 1.062 9.472-6.878-12.846 7.586z" transform="matrix(.13844 -.02776 .03514 .18162 17.201 -63.77)"/></g><path d="M30.882 78.836C23.752 59.704 11.1 43.573 0 26.678 8.804 46.286 18.223 59.904 28.329 77.51l1.468 4.29z" fill="#98935c"/><path d="M1.044 50.742c18.65 9.2 33.624 25.381 32.88 45.43l1.585 10.812-1.319.401c.75-29.13-18.085-42.596-33.146-56.643z" fill="#50932e"/><path d="M33.922 94.572l-.856.39 2.621 35.065 1.755-.484c-.805-11.726-1.143-23.54-3.52-34.97z" fill="#aa825c"/><g fill="#3d774c"><path d="M36.77 128.616c-.023-29.805-3.485-70.778 20.36-92.372-16.895 33.328-19.546 58.926-20.36 92.372z"/><path d="M36.47 128.517c2.024-16.69 3.145-40.036 16.18-49.338-10.467 16.685-13.502 30.707-16.18 49.338zM36.227 130.236C37.62 104.244 23.52 94.2 9.019 91.846c14.801 8.408 24.365 12.373 27.208 38.39z"/></g></g><g fill="#3d774c"><path d="M39.17 129.521c-1.738-18.868-.948-45.215-24.318-56.04 17.622 19.081 21.59 34.968 24.318 56.04z"/><path d="M39.444 129.423c-2.862-10.323-5.28-24.966-17.908-29.3 10.685 9.313 14.325 17.827 17.908 29.3zM39.77 130.482c-2.826-16.285 9.647-24.325 22.945-27.544-13.219 7.087-21.846 10.737-22.945 27.544z"/></g><g><path d="M57.185 129.985c1.985-8.46 3.404-20.595 13.954-23.22-8.681 6.975-11.406 13.849-13.954 23.22z" fill="#98935c"/><path d="M57.076 129.912c1.89-4.438 3.88-10.898 9.48-11.622-5.113 3.196-7.21 6.73-9.48 11.622zM56.869 130.364c2.27-7.17-2.442-12.091-7.822-14.89 5.09 4.56 8.476 7.09 7.822 14.89z" fill="#3d774c"/></g><g fill="#3d774c"><path d="M46.152 129.459c-.623-6.344-.107-15.273-10.107-18.42 7.468 6.066 9.072 11.352 10.107 18.42z"/><path d="M46.27 129.42c-1.164-3.43-2.108-8.329-7.522-9.517 4.543 2.915 6.055 5.715 7.523 9.517zM46.404 129.77c-1.11-5.446 4.32-8.439 10.073-9.82-5.745 2.688-9.487 4.112-10.073 9.82z"/></g><g><path d="M77.585 128.788c3.46-8.145 6.788-20.008 19.21-21.285-10.899 5.83-14.98 12.307-19.21 21.285z" fill="#3d774c"/><path d="M77.471 128.703c2.784-4.167 5.967-10.326 12.467-10.34-6.292 2.528-9.185 5.77-12.467 10.34z" fill="#50932e"/><path d="M77.17 129.125c3.605-6.829-1.086-12.305-6.838-15.758 5.172 5.165 8.685 8.1 6.839 15.758z" fill="#3d774c"/></g><g><path d="M33.243 129.345c-1.946-9.947-3.31-24.206-13.848-27.347 8.65 8.24 11.343 16.328 13.848 27.347z" fill="#3d774c"/><path d="M33.352 129.26c-1.87-5.222-3.83-12.82-9.427-13.701 5.1 3.782 7.18 7.943 9.427 13.702z" fill="#50932e"/><path d="M33.558 129.793c-2.239-8.434 2.497-14.187 7.89-17.444-5.111 5.327-8.51 8.28-7.89 17.444z" fill="#3d774c"/></g></svg>