<?xml version="1.0" encoding="UTF-8" standalone="no"?>
<!-- Created with Inkscape (http://www.inkscape.org/) -->

<svg
   id="svg2"
   sodipodi:docname="nicubunu_Game_baddie_Chef.svg"
   inkscape:export-filename="/home/nicu/Desktop/pacman/pacman.png"
   viewBox="0 0 124.97748 128.86992"
   sodipodi:version="0.32"
   inkscape:export-xdpi="90"
   version="1.0"
   inkscape:output_extension="org.inkscape.output.svg.inkscape"
   inkscape:export-ydpi="90"
   inkscape:version="1.2.2 (732a01da63, 2022-12-09)"
   width="124.97748"
   height="128.86992"
   xmlns:inkscape="http://www.inkscape.org/namespaces/inkscape"
   xmlns:sodipodi="http://sodipodi.sourceforge.net/DTD/sodipodi-0.dtd"
   xmlns:xlink="http://www.w3.org/1999/xlink"
   xmlns="http://www.w3.org/2000/svg"
   xmlns:svg="http://www.w3.org/2000/svg"
   xmlns:rdf="http://www.w3.org/1999/02/22-rdf-syntax-ns#"
   xmlns:cc="http://creativecommons.org/ns#"
   xmlns:dc="http://purl.org/dc/elements/1.1/">
  <defs
     id="defs4">
    <linearGradient
       id="linearGradient2315">
      <stop
         id="stop2317"
         style="stop-color:#000000;stop-opacity:0"
         offset="0" />
      <stop
         id="stop2319"
         style="stop-color:#000000;stop-opacity:.57196"
         offset="1" />
    </linearGradient>
    <filter
       id="filter3730"
       height="1.6816748"
       width="1.6960537"
       y="-0.34083741"
       x="-0.34802687"
       inkscape:collect="always">
      <feGaussianBlur
         id="feGaussianBlur3732"
         stdDeviation="5.4650567"
         inkscape:collect="always" />
    </filter>
    <filter
       id="filter4065"
       height="1.7379839"
       width="2.811415"
       y="-0.36899194"
       x="-0.90570748"
       inkscape:collect="always">
      <feGaussianBlur
         id="feGaussianBlur4067"
         stdDeviation="4.1511594"
         inkscape:collect="always" />
    </filter>
    <filter
       id="filter4112"
       height="1.6802"
       width="1.1400412"
       y="-0.34009998"
       x="-0.070020583"
       inkscape:collect="always">
      <feGaussianBlur
         id="feGaussianBlur4114"
         stdDeviation="3.9678331"
         inkscape:collect="always" />
    </filter>
    <radialGradient
       id="radialGradient4038"
       gradientUnits="userSpaceOnUse"
       cy="506.35001"
       cx="210.89"
       gradientTransform="matrix(1.4028,1.6439e-6,-1.4521e-7,0.20588,-89.845,403.11)"
       r="68"
       inkscape:collect="always">
      <stop
         id="stop4074"
         style="stop-color:#000000"
         offset="0" />
      <stop
         id="stop4076"
         style="stop-color:#000000;stop-opacity:0"
         offset="1" />
    </radialGradient>
    <radialGradient
       id="radialGradient4040"
       xlink:href="#linearGradient2315"
       gradientUnits="userSpaceOnUse"
       cy="497.95999"
       cx="216.99001"
       gradientTransform="matrix(0.7158,1.4128,-1.3538,0.68592,735.84,-155.77)"
       r="65"
       inkscape:collect="always" />
    <radialGradient
       id="radialGradient4042"
       xlink:href="#linearGradient2315"
       gradientUnits="userSpaceOnUse"
       cy="409.85999"
       cx="233.5"
       gradientTransform="matrix(0.3871,1.5161,-1.4234,0.36342,726.51,-93.107)"
       r="15.5"
       inkscape:collect="always" />
    <radialGradient
       id="radialGradient4069"
       xlink:href="#linearGradient2315"
       gradientUnits="userSpaceOnUse"
       cy="498.01999"
       cx="196.49001"
       gradientTransform="matrix(2.1011,0.037187,-0.028985,1.6377,-201.92,-324.88)"
       r="10.389"
       inkscape:collect="always" />
    <radialGradient
       id="radialGradient4071"
       xlink:href="#linearGradient2315"
       gradientUnits="userSpaceOnUse"
       cy="502.23999"
       cx="198.47"
       gradientTransform="matrix(1.6957,1.7824e-6,-1.5082e-6,1.4348,-140.04,-219.28)"
       r="10.389"
       inkscape:collect="always" />
    <radialGradient
       id="radialGradient4079"
       xlink:href="#linearGradient2315"
       gradientUnits="userSpaceOnUse"
       cy="498.95999"
       cx="196.17"
       gradientTransform="matrix(2.034,0.086058,-0.070172,1.6586,-167.83,-345.48)"
       r="10.389"
       inkscape:collect="always" />
    <radialGradient
       id="radialGradient4087"
       xlink:href="#linearGradient2315"
       gradientUnits="userSpaceOnUse"
       cy="366.54001"
       cx="197.47"
       gradientTransform="matrix(1.4971,-0.035792,0.021174,0.88567,-105.7,58.261)"
       r="35.894001"
       inkscape:collect="always" />
    <radialGradient
       id="radialGradient4108"
       xlink:href="#linearGradient2315"
       gradientUnits="userSpaceOnUse"
       cy="454.56"
       cx="281.75"
       gradientTransform="matrix(0.69436,0.4501,-1.7631,2.7199,887.52,-909.55)"
       r="14.034"
       inkscape:collect="always" />
    <radialGradient
       inkscape:collect="always"
       xlink:href="#linearGradient2315"
       id="radialGradient2105"
       gradientUnits="userSpaceOnUse"
       gradientTransform="matrix(0.3871,1.5161,-1.4234,0.36342,726.51,-93.107)"
       cx="233.5"
       cy="409.85999"
       r="15.5" />
  </defs>
  <sodipodi:namedview
     id="base"
     inkscape:zoom="1"
     height="640px"
     borderopacity="1.0"
     inkscape:current-layer="layer1"
     inkscape:cx="-69"
     inkscape:cy="65"
     showgrid="false"
     width="128px"
     inkscape:guide-bbox="true"
     showguides="true"
     bordercolor="#666666"
     inkscape:window-x="1912"
     guidetolerance="10"
     objecttolerance="10"
     inkscape:window-y="-8"
     inkscape:window-width="1920"
     inkscape:pageopacity="0.0"
     inkscape:pageshadow="2"
     pagecolor="#ffffff"
     gridtolerance="10000"
     inkscape:document-units="px"
     inkscape:window-height="1017"
     inkscape:showpageshadow="2"
     inkscape:pagecheckerboard="0"
     inkscape:deskcolor="#d1d1d1"
     inkscape:window-maximized="1">
    <inkscape:grid
       id="grid3194"
       originy="-0.94888701"
       originx="0.43677431"
       spacingy="1"
       spacingx="1"
       type="xygrid" />
  </sodipodi:namedview>
  <g
     id="layer1"
     inkscape:label="Layer 1"
     inkscape:groupmode="layer"
     transform="translate(-232.98323,-12.683887)">
    <g
       id="g4010"
       transform="matrix(0.71287,0,0,0.71287,142.51,-234.5)">
      <path
         id="rect4097"
         sodipodi:nodetypes="cccccccc"
         style="fill:#ffff00"
         d="m 274.82,465.11 6.47,-12.24 c 1.75,-9.37 4.52,-16.76 12.06,-21.57 3.43,0.24 7.42,2.3 8.88,5.62 -0.47,7.95 -1.83,17.43 -11.68,18.28 l -4.55,1 -11.84,24.17 z" />
      <path
         id="path4012"
         style="fill:url(#radialGradient4038);filter:url(#filter4112)"
         transform="matrix(1.0588,0,0,0.85714,-9.1176,72.48)"
         d="m 274,507.36 c 0,7.73 -30.46,14 -68,14 -37.54,0 -68,-6.27 -68,-14 0,-7.73 30.46,-14 68,-14 37.54,0 68,6.27 68,14 z" />
      <path
         id="path4100"
         sodipodi:nodetypes="ccccc"
         style="fill:#808000;fill-rule:evenodd"
         d="m 293.8,433.26 c -4.17,2.6 -9.54,10.13 -10.12,17.49 1.28,2 1.96,1.63 2.75,1.65 5.42,-4.43 9.22,-9.38 10.98,-16.47 0.16,-2.08 -2.29,-2.57 -3.61,-2.67 z" />
      <path
         id="path4014"
         style="fill:#a05a2c"
         sodipodi:nodetypes="cccsssccssc"
         transform="translate(-31,-85)"
         d="m 305,531.36 c 0,4.85 -0.53,37.56 -1.54,42.11 -2.47,12.46 -10.48,19.63 -22.51,22.36 -5.59,1.04 -11.95,-21.82 -18.85,-21.95 -6.9,-0.13 -14.34,22.48 -22.1,22.48 -7.8,0 -15.27,-22.62 -22.2,-22.52 -6.93,0.11 -13.31,22.94 -18.91,21.86 -12.68,-2.1 -19.32,-10.78 -22.44,-22.64 -0.95,-4.42 -1.45,-37 -1.45,-41.7 0,-35.88 29.12,-65 65,-65 35.88,0 65,29.12 65,65 z" />
      <path
         id="path4016"
         sodipodi:nodetypes="cccsssccssc"
         style="fill:url(#radialGradient4040)"
         transform="translate(-31,-85)"
         d="m 305,531.36 c 0,4.85 -0.53,37.56 -1.54,42.11 -2.47,12.46 -10.48,19.63 -22.51,22.36 -5.59,1.04 -11.95,-21.82 -18.85,-21.95 -6.9,-0.13 -14.34,22.48 -22.1,22.48 -7.8,0 -15.27,-22.62 -22.2,-22.52 -6.93,0.11 -13.31,22.94 -18.91,21.86 -12.68,-2.1 -19.32,-10.78 -22.44,-22.64 -0.95,-4.42 -1.45,-37 -1.45,-41.7 0,-35.88 29.12,-65 65,-65 35.88,0 65,29.12 65,65 z" />
      <g
         id="g4018"
         transform="translate(5,10)">
        <circle
           id="path4020"
           style="fill:#ffffff"
           transform="translate(4,7)"
           cx="239.5"
           cy="417.86218"
           r="15.5" />
        <circle
           id="path4022"
           style="fill:url(#radialGradient2105)"
           transform="translate(4,7)"
           cx="239.5"
           cy="417.86218"
           r="15.5" />
        <circle
           id="path4024"
           style="fill:#000000"
           transform="matrix(0.6129,0,0,0.6129,101.71,169.75)"
           cx="239.5"
           cy="417.86218"
           r="15.5" />
      </g>
      <g
         id="g4026"
         transform="translate(-35,10)">
        <circle
           id="path4028"
           style="fill:#ffffff"
           transform="translate(4,7)"
           cx="239.5"
           cy="417.86218"
           r="15.5" />
        <circle
           id="path4030"
           style="fill:url(#radialGradient4042)"
           transform="translate(4,7)"
           cx="239.5"
           cy="417.86218"
           r="15.5" />
        <circle
           id="path4032"
           style="fill:#000000"
           transform="matrix(0.6129,0,0,0.6129,101.71,169.75)"
           cx="239.5"
           cy="417.86218"
           r="15.5" />
      </g>
      <path
         id="path4034"
         style="fill:#ffffff;fill-opacity:0.62745;filter:url(#filter3730)"
         d="m 180.01,413.25 c -10.03,10.27 -20.41,16.42 -23.17,13.72 -2.77,-2.7 3.13,-13.23 13.15,-23.5 10.03,-10.27 20.41,-16.41 23.17,-13.71 2.77,2.7 -3.13,13.22 -13.15,23.49 z" />
      <path
         id="path4036"
         style="fill:#ffffff;fill-opacity:0.43439;filter:url(#filter4065)"
         transform="rotate(39.532819,265.34902,500.25775)"
         d="m 262,501.86 c 0,7.45 -2.46,13.5 -5.5,13.5 -3.04,0 -5.5,-6.05 -5.5,-13.5 0,-7.45 2.46,-13.5 5.5,-13.5 3.04,0 5.5,6.05 5.5,13.5 z" />
      <path
         id="rect4046"
         sodipodi:nodetypes="ccccc"
         style="fill:#e4eaf5"
         d="m 185.28,367.85 h 46.89 l 13.33,25.16 c -12.63,13.01 -53.64,14.68 -71.79,1.75 z" />
      <path
         id="path4085"
         sodipodi:nodetypes="ccccc"
         style="fill:url(#radialGradient4087)"
         d="m 185.28,367.85 h 46.89 l 13.33,25.16 c -12.63,13.01 -53.64,14.68 -71.79,1.75 z" />
      <circle
         id="path4051"
         style="fill:#e4eaf5"
         transform="matrix(1.7281,0,0,1.7281,-138.73,-506.85)"
         cx="201.30832"
         cy="504.33896"
         r="10.389135" />
      <circle
         id="path4073"
         style="fill:url(#radialGradient4079)"
         transform="matrix(1.7281,0,0,1.7281,-138.73,-506.85)"
         cx="201.30832"
         cy="504.33896"
         r="10.389135" />
      <circle
         id="path4053"
         style="fill:#e4eaf5"
         transform="matrix(1.5041,0,0,1.5041,-121.01,-391.41)"
         cx="201.30832"
         cy="504.33896"
         r="10.389135" />
      <circle
         id="path4061"
         style="fill:url(#radialGradient4069)"
         transform="matrix(1.5041,0,0,1.5041,-121.01,-391.41)"
         cx="201.30832"
         cy="504.33896"
         r="10.389135" />
      <circle
         id="path4055"
         style="fill:#e4eaf5"
         transform="matrix(1.5378,0,0,1.5378,-73.895,-408.02)"
         cx="201.30832"
         cy="504.33896"
         r="10.389135" />
      <circle
         id="path4063"
         style="fill:url(#radialGradient4071)"
         transform="matrix(1.5378,0,0,1.5378,-73.895,-408.02)"
         cx="201.30832"
         cy="504.33896"
         r="10.389135" />
      <path
         id="path4089"
         sodipodi:nodetypes="cccsccc"
         style="fill:#000000;fill-rule:evenodd"
         d="m 210.71,459.54 c -5.32,1.67 -10.3,6.05 -16.09,4.05 l -0.17,-0.06 c 6.28,2.17 11.47,0.44 16.89,-0.52 5.22,-0.93 9.29,-0.21 16.32,1.76 3.05,-0.64 3.13,-2.12 1.66,-3.46 -6.01,-3.23 -12.34,-3.67 -18.61,-1.77 z" />
      <path
         id="path4095"
         sodipodi:nodetypes="cccsccc"
         style="fill:#000000;fill-rule:evenodd"
         d="m 255.84,457.14 c 5.48,1.11 10.88,4.94 16.43,2.34 l 0.17,-0.07 c -6.03,2.82 -11.36,1.63 -16.86,1.24 -5.28,-0.38 -9.26,0.77 -16.04,3.46 -3.1,-0.32 -3.34,-1.78 -2.01,-3.27 5.63,-3.84 11.89,-4.93 18.31,-3.7 z" />
      <path
         id="path4106"
         sodipodi:nodetypes="cccccccc"
         style="fill:url(#radialGradient4108)"
         d="m 274.82,465.11 6.47,-12.24 c 1.75,-9.37 4.52,-16.76 12.06,-21.57 3.43,0.24 7.42,2.3 8.88,5.62 -0.47,7.95 -1.83,17.43 -11.68,18.28 l -4.55,1 -11.84,24.17 z" />
    </g>
  </g>
  <metadata
     id="metadata1136">
    <rdf:RDF>
      <cc:Work>
        <dc:format>image/svg+xml</dc:format>
        <dc:type
           rdf:resource="http://purl.org/dc/dcmitype/StillImage" />
        <cc:license
           rdf:resource="http://creativecommons.org/licenses/publicdomain/" />
        <dc:publisher>
          <cc:Agent
             rdf:about="http://openclipart.org/">
            <dc:title>Openclipart</dc:title>
          </cc:Agent>
        </dc:publisher>
        <dc:title>Game baddie: Chef</dc:title>
        <dc:date>2008-02-04T14:59:04</dc:date>
        <dc:description>Bad guy for arcade games, inspired from the classic Pac-Man: a chef (cook)</dc:description>
        <dc:source>https://openclipart.org/detail/12552/game-baddie:-chef-by-nicubunu</dc:source>
        <dc:creator>
          <cc:Agent>
            <dc:title>nicubunu</dc:title>
          </cc:Agent>
        </dc:creator>
        <dc:subject>
          <rdf:Bag>
            <rdf:li>arcade</rdf:li>
            <rdf:li>baddie</rdf:li>
            <rdf:li>chef</rdf:li>
            <rdf:li>cook</rdf:li>
            <rdf:li>funny</rdf:li>
            <rdf:li>game</rdf:li>
            <rdf:li>job</rdf:li>
          </rdf:Bag>
        </dc:subject>
      </cc:Work>
      <cc:License
         rdf:about="http://creativecommons.org/licenses/publicdomain/">
        <cc:permits
           rdf:resource="http://creativecommons.org/ns#Reproduction" />
        <cc:permits
           rdf:resource="http://creativecommons.org/ns#Distribution" />
        <cc:permits
           rdf:resource="http://creativecommons.org/ns#DerivativeWorks" />
      </cc:License>
    </rdf:RDF>
  </metadata>
</svg>
