<svg version="1.1" xmlns="http://www.w3.org/2000/svg" xmlns:xlink="http://www.w3.org/1999/xlink" width="117.78979" height="123.05121" viewBox="0,0,117.78979,123.05121"><defs><radialGradient cx="236.01796" cy="230.06043" r="71.99941" gradientUnits="userSpaceOnUse" id="color-1"><stop offset="0" stop-color="#000000"/><stop offset="1" stop-color="#000000" stop-opacity="0"/></radialGradient><radialGradient cx="219.6484" cy="158.77174" r="73.38711" gradientUnits="userSpaceOnUse" id="color-2"><stop offset="0" stop-color="#000000" stop-opacity="0"/><stop offset="1" stop-color="#000000" stop-opacity="0.57196"/></radialGradient><radialGradient cx="259.91124" cy="172.67233" r="17.28955" gradientUnits="userSpaceOnUse" id="color-3"><stop offset="0" stop-color="#000000" stop-opacity="0"/><stop offset="1" stop-color="#000000" stop-opacity="0.57196"/></radialGradient><radialGradient cx="231.39644" cy="172.67233" r="17.28955" gradientUnits="userSpaceOnUse" id="color-4"><stop offset="0" stop-color="#000000" stop-opacity="0"/><stop offset="1" stop-color="#000000" stop-opacity="0.57196"/></radialGradient><radialGradient cx="227.96776" cy="136.29669" r="38.31838" gradientUnits="userSpaceOnUse" id="color-5"><stop offset="0" stop-color="#000000" stop-opacity="0"/><stop offset="1" stop-color="#000000" stop-opacity="0.57196"/></radialGradient><radialGradient cx="229.8015" cy="121.75812" r="26.05507" gradientUnits="userSpaceOnUse" id="color-6"><stop offset="0" stop-color="#000000" stop-opacity="0"/><stop offset="1" stop-color="#000000" stop-opacity="0.57196"/></radialGradient><radialGradient cx="211.45572" cy="123.36282" r="23.4086" gradientUnits="userSpaceOnUse" id="color-7"><stop offset="0" stop-color="#000000" stop-opacity="0"/><stop offset="1" stop-color="#000000" stop-opacity="0.57196"/></radialGradient><radialGradient cx="249.7792" cy="127.1044" r="19.31225" gradientUnits="userSpaceOnUse" id="color-8"><stop offset="0" stop-color="#000000" stop-opacity="0"/><stop offset="1" stop-color="#000000" stop-opacity="0.57196"/></radialGradient><radialGradient cx="287.86862" cy="191.75568" r="8.27847" gradientUnits="userSpaceOnUse" id="color-9"><stop offset="0" stop-color="#000000" stop-opacity="0"/><stop offset="1" stop-color="#000000" stop-opacity="0.57196"/></radialGradient></defs><g transform="translate(-184.69894,-115.56504)"><g data-paper-data="{&quot;isPaintingLayer&quot;:true}" stroke="none" stroke-width="1" stroke-linecap="butt" stroke-linejoin="miter" stroke-miterlimit="10" stroke-dasharray="" stroke-dashoffset="0" style="mix-blend-mode: normal"><path d="M282.94896,199.94412l4.61227,-8.72553c1.24752,-6.67959 3.22217,-11.9477 8.59721,-15.37661c2.44514,0.17109 5.2895,1.6396 6.33029,4.00633c-0.33505,5.66732 -1.30455,12.42532 -8.32632,13.03126l-3.24356,0.71287l-8.44038,17.23007z" fill="#ffff00" fill-rule="nonzero"/><path d="M287.34994,230.06184c0,4.72326 -22.9908,8.55441 -51.3255,8.55441c-28.33469,0 -51.3255,-3.83115 -51.3255,-8.55441c0,-4.72326 22.9908,-8.55441 51.3255,-8.55441c28.33469,0 51.3255,3.83115 51.3255,8.55441z" fill="url(#color-1)" fill-rule="nonzero"/><path d="M299.0527,179.14257c-1.25465,5.05425 -3.96356,8.58295 -7.82731,11.74097c-0.56317,-0.01426 -1.04792,0.2495 -1.96039,-1.17624c0.41346,-5.24672 4.24158,-10.61463 7.21424,-12.4681c0.94099,0.07129 2.68752,0.42059 2.57346,1.90336z" fill="#808000" fill-rule="evenodd"/><path d="M282.36441,186.57781c0,3.45742 -0.37782,26.7754 -1.09782,30.01896c-1.76079,8.88236 -7.47088,13.99364 -16.0467,15.93977c-3.98494,0.74138 -8.5188,-15.55482 -13.4376,-15.6475c-4.9188,-0.09267 -10.22256,16.02532 -15.75443,16.02532c-5.56039,0 -10.88552,-16.12512 -15.82571,-16.05383c-4.94019,0.07842 -9.4883,16.35324 -13.48037,15.58334c-9.03919,-1.49703 -13.77265,-7.68474 -15.9968,-16.13938c-0.67723,-3.15089 -1.03366,-26.37619 -1.03366,-29.72668c0,-25.57778 20.75877,-46.33655 46.33655,-46.33655c25.57778,0 46.33655,20.75877 46.33655,46.33655z" fill="#a05a2c" fill-rule="nonzero"/><path d="M282.36441,186.57781c0,3.45742 -0.37782,26.7754 -1.09782,30.01896c-1.76079,8.88236 -7.47088,13.99364 -16.0467,15.93977c-3.98494,0.74138 -8.5188,-15.55482 -13.4376,-15.6475c-4.9188,-0.09267 -10.22256,16.02532 -15.75443,16.02532c-5.56039,0 -10.88552,-16.12512 -15.82571,-16.05383c-4.94019,0.07842 -9.4883,16.35324 -13.48037,15.58334c-9.03919,-1.49703 -13.77265,-7.68474 -15.9968,-16.13938c-0.67723,-3.15089 -1.03366,-26.37619 -1.03366,-29.72668c0,-25.57778 20.75877,-46.33655 46.33655,-46.33655c25.57778,0 46.33655,20.75877 46.33655,46.33655z" fill="url(#color-2)" fill-rule="nonzero"/><g fill-rule="nonzero"><path d="M253.13674,178.38136c0,-6.10246 4.94702,-11.04949 11.04949,-11.04949c6.10246,0 11.04949,4.94702 11.04949,11.04949c0,6.10246 -4.94702,11.04949 -11.04949,11.04949c-6.10246,0 -11.04949,-4.94702 -11.04949,-11.04949z" fill="#ffffff"/><path d="M253.13674,178.38136c0,-6.10246 4.94702,-11.04949 11.04949,-11.04949c6.10246,0 11.04949,4.94702 11.04949,11.04949c0,6.10246 -4.94702,11.04949 -11.04949,11.04949c-6.10246,0 -11.04949,-4.94702 -11.04949,-11.04949z" fill="url(#color-3)"/><path d="M260.97803,179.09105c0,-3.7402 3.03203,-6.77223 6.77223,-6.77223c3.7402,0 6.77223,3.03203 6.77223,6.77223c0,3.7402 -3.03203,6.77223 -6.77223,6.77223c-3.7402,0 -6.77223,-3.03203 -6.77223,-6.77223z" fill="#000000"/></g><g fill-rule="nonzero"><path d="M224.62194,178.38136c0,-6.10246 4.94702,-11.04949 11.04949,-11.04949c6.10246,0 11.04949,4.94702 11.04949,11.04949c0,6.10246 -4.94702,11.04949 -11.04949,11.04949c-6.10246,0 -11.04949,-4.94702 -11.04949,-11.04949z" fill="#ffffff"/><path d="M224.62194,178.38136c0,-6.10246 4.94702,-11.04949 11.04949,-11.04949c6.10246,0 11.04949,4.94702 11.04949,11.04949c0,6.10246 -4.94702,11.04949 -11.04949,11.04949c-6.10246,0 -11.04949,-4.94702 -11.04949,-11.04949z" fill="url(#color-4)"/><path d="M232.46323,179.09105c0,-3.7402 3.03203,-6.77223 6.77223,-6.77223c3.7402,0 6.77223,3.03203 6.77223,6.77223c0,3.7402 -3.03203,6.77223 -6.77223,6.77223c-3.7402,0 -6.77223,-3.03203 -6.77223,-6.77223z" fill="#000000"/></g><path d="M215.36176,162.97468c-7.15009,7.32117 -14.54968,11.70533 -16.5172,9.78058c-1.97465,-1.92475 2.23128,-9.43127 9.37424,-16.75245c7.15009,-7.32117 14.54968,-11.6982 16.5172,-9.77345c1.97465,1.92475 -2.23128,9.42414 -9.37424,16.74532z" fill-opacity="0.62745" fill="#ffffff" fill-rule="nonzero"/><path d="M273.62904,224.36119c-3.38048,4.09607 -7.47824,6.30617 -9.14965,4.92675c-1.67142,-1.37942 -0.27872,-5.822 3.10176,-9.91807c3.38048,-4.09607 7.47824,-6.30617 9.14965,-4.92675c1.67142,1.37942 0.27872,5.822 -3.10176,9.91807z" fill-opacity="0.43439" fill="#ffffff" fill-rule="nonzero"/><path d="M219.11858,130.61038h33.42647l9.50256,17.93581c-9.00355,9.27444 -38.23835,10.46493 -51.17694,1.24752z" fill="#e4eaf5" fill-rule="nonzero"/><path d="M219.11858,130.61038h33.42647l9.50256,17.93581c-9.00355,9.27444 -38.23835,10.46493 -51.17694,1.24752z" fill="url(#color-5)" fill-rule="nonzero"/><path d="M223.33695,128.36353c0,-7.06841 5.73008,-12.79849 12.79849,-12.79849c7.06841,0 12.79849,5.73008 12.79849,12.79849c0,7.06841 -5.73008,12.79849 -12.79849,12.79849c-7.06841,0 -12.79849,-5.73008 -12.79849,-12.79849z" fill="#e4eaf5" fill-rule="nonzero"/><path d="M223.33695,128.36353c0,-7.06841 5.73008,-12.79849 12.79849,-12.79849c7.06841,0 12.79849,5.73008 12.79849,12.79849c0,7.06841 -5.73008,12.79849 -12.79849,12.79849c-7.06841,0 -12.79849,-5.73008 -12.79849,-12.79849z" fill="url(#color-6)" fill-rule="nonzero"/><path d="M205.48248,130.12294c0,-6.15219 4.98733,-11.13952 11.13952,-11.13952c6.15219,0 11.13952,4.98733 11.13952,11.13952c0,6.15219 -4.98733,11.13952 -11.13952,11.13952c-6.15219,0 -11.13952,-4.98733 -11.13952,-11.13952z" fill="#e4eaf5" fill-rule="nonzero"/><path d="M205.48248,130.12294c0,-6.15219 4.98733,-11.13952 11.13952,-11.13952c6.15219,0 11.13952,4.98733 11.13952,11.13952c0,6.15219 -4.98733,11.13952 -11.13952,11.13952c-6.15219,0 -11.13952,-4.98733 -11.13952,-11.13952z" fill="url(#color-7)" fill-rule="nonzero"/><path d="M243.65594,130.39827c0,-6.29003 5.09908,-11.3891 11.3891,-11.3891c6.29003,0 11.3891,5.09908 11.3891,11.3891c0,6.29003 -5.09908,11.3891 -11.3891,11.3891c-6.29003,0 -11.3891,-5.09908 -11.3891,-11.3891z" fill="#e4eaf5" fill-rule="nonzero"/><path d="M243.65594,130.39827c0,-6.29003 5.09908,-11.3891 11.3891,-11.3891c6.29003,0 11.3891,5.09908 11.3891,11.3891c0,6.29003 -5.09908,11.3891 -11.3891,11.3891c-6.29003,0 -11.3891,-5.09908 -11.3891,-11.3891z" fill="url(#color-8)" fill-rule="nonzero"/><path d="M250.51338,197.23521c1.04792,0.95525 0.99089,2.01029 -1.18336,2.46653c-5.01148,-1.40435 -7.91286,-1.91762 -11.63404,-1.25465c-3.86376,0.68436 -7.56355,1.91762 -12.04037,0.37069l0.12119,0.04277c4.12752,1.42574 7.67761,-1.69663 11.47008,-2.88712c4.46969,-1.35445 8.98216,-1.04079 13.26651,1.26178z" fill="#000000" fill-rule="evenodd"/><path d="M269.41869,194.26255c3.90653,0.79129 7.75603,3.52158 11.71245,1.66812l0.12119,-0.0499c-4.29861,2.01029 -8.0982,1.16198 -12.01899,0.88396c-3.76395,-0.27089 -6.60118,0.54891 -11.43443,2.46653c-2.2099,-0.22812 -2.38099,-1.26891 -1.43287,-2.33108c4.01346,-2.73742 8.47602,-3.51445 13.05265,-2.63762z" fill="#000000" fill-rule="evenodd"/><path d="M282.94896,199.94412l4.61227,-8.72553c1.24752,-6.67959 3.22217,-11.9477 8.59721,-15.37661c2.44514,0.17109 5.2895,1.6396 6.33029,4.00633c-0.33505,5.66732 -1.30455,12.42532 -8.32632,13.03126l-3.24356,0.71287l-8.44038,17.23007z" fill="url(#color-9)" fill-rule="nonzero"/></g></g></svg>