<svg version="1.0" width="124.977" height="128.87" xmlns:xlink="http://www.w3.org/1999/xlink" xmlns="http://www.w3.org/2000/svg"><defs><radialGradient id="prefix__b" gradientUnits="userSpaceOnUse" cy="506.35" cx="210.89" gradientTransform="matrix(1.4028 0 0 .20588 -89.845 403.11)" r="68"><stop offset="0"/><stop offset="1" stop-opacity="0"/></radialGradient><radialGradient id="prefix__d" xlink:href="#prefix__a" gradientUnits="userSpaceOnUse" cy="497.96" cx="216.99" gradientTransform="matrix(.7158 1.4128 -1.3538 .68592 735.84 -155.77)" r="65"/><radialGradient id="prefix__f" xlink:href="#prefix__a" gradientUnits="userSpaceOnUse" cy="409.86" cx="233.5" gradientTransform="matrix(.3871 1.5161 -1.4234 .36342 726.51 -93.107)" r="15.5"/><radialGradient id="prefix__k" xlink:href="#prefix__a" gradientUnits="userSpaceOnUse" cy="498.02" cx="196.49" gradientTransform="matrix(2.1011 .03719 -.02899 1.6377 -201.92 -324.88)" r="10.389"/><radialGradient id="prefix__l" xlink:href="#prefix__a" gradientUnits="userSpaceOnUse" cy="502.24" cx="198.47" gradientTransform="matrix(1.6957 0 0 1.4348 -140.04 -219.28)" r="10.389"/><radialGradient id="prefix__j" xlink:href="#prefix__a" gradientUnits="userSpaceOnUse" cy="498.96" cx="196.17" gradientTransform="matrix(2.034 .08606 -.07017 1.6586 -167.83 -345.48)" r="10.389"/><radialGradient id="prefix__i" xlink:href="#prefix__a" gradientUnits="userSpaceOnUse" cy="366.54" cx="197.47" gradientTransform="matrix(1.4971 -.0358 .02117 .88567 -105.7 58.261)" r="35.894"/><radialGradient id="prefix__m" xlink:href="#prefix__a" gradientUnits="userSpaceOnUse" cy="454.56" cx="281.75" gradientTransform="matrix(.69436 .4501 -1.7631 2.7199 887.52 -909.55)" r="14.034"/><radialGradient xlink:href="#prefix__a" id="prefix__e" gradientUnits="userSpaceOnUse" gradientTransform="matrix(.3871 1.5161 -1.4234 .36342 726.51 -93.107)" cx="233.5" cy="409.86" r="15.5"/><filter id="prefix__g" height="1.682" width="1.696" y="-.341" x="-.348"><feGaussianBlur stdDeviation="5.465"/></filter><filter id="prefix__h" height="1.738" width="2.811" y="-.369" x="-.906"><feGaussianBlur stdDeviation="4.151"/></filter><filter id="prefix__c" height="1.68" width="1.14" y="-.34" x="-.07"><feGaussianBlur stdDeviation="3.968"/></filter><linearGradient id="prefix__a"><stop offset="0" stop-opacity="0"/><stop offset="1" stop-opacity=".572"/></linearGradient></defs><g transform="translate(-90.473 -247.184) scale(.71287)"><path d="M274.82 465.11l6.47-12.24c1.75-9.37 4.52-16.76 12.06-21.57 3.43.24 7.42 2.3 8.88 5.62-.47 7.95-1.83 17.43-11.68 18.28l-4.55 1-11.84 24.17z" fill="#ff0"/><path transform="matrix(1.0588 0 0 .85714 -9.118 72.48)" d="M274 507.36c0 7.73-30.46 14-68 14s-68-6.27-68-14 30.46-14 68-14 68 6.27 68 14z" fill="url(#prefix__b)" filter="url(#prefix__c)"/><path d="M293.8 433.26c-4.17 2.6-9.54 10.13-10.12 17.49 1.28 2 1.96 1.63 2.75 1.65 5.42-4.43 9.22-9.38 10.98-16.47.16-2.08-2.29-2.57-3.61-2.67z" fill="olive" fill-rule="evenodd"/><path d="M274 446.36c0 4.85-.53 37.56-1.54 42.11-2.47 12.46-10.48 19.63-22.51 22.36-5.59 1.04-11.95-21.82-18.85-21.95-6.9-.13-14.34 22.48-22.1 22.48-7.8 0-15.27-22.62-22.2-22.52-6.93.11-13.31 22.94-18.91 21.86-12.68-2.1-19.32-10.78-22.44-22.64-.95-4.42-1.45-37-1.45-41.7 0-35.88 29.12-65 65-65 35.88 0 65 29.12 65 65z" fill="#a05a2c"/><path transform="translate(-31 -85)" d="M305 531.36c0 4.85-.53 37.56-1.54 42.11-2.47 12.46-10.48 19.63-22.51 22.36-5.59 1.04-11.95-21.82-18.85-21.95-6.9-.13-14.34 22.48-22.1 22.48-7.8 0-15.27-22.62-22.2-22.52-6.93.11-13.31 22.94-18.91 21.86-12.68-2.1-19.32-10.78-22.44-22.64-.95-4.42-1.45-37-1.45-41.7 0-35.88 29.12-65 65-65 35.88 0 65 29.12 65 65z" fill="url(#prefix__d)"/><g transform="translate(5 10)"><circle transform="translate(4 7)" cx="239.5" cy="417.862" r="15.5" fill="#fff"/><circle transform="translate(4 7)" cx="239.5" cy="417.862" r="15.5" fill="url(#prefix__e)"/><circle transform="translate(101.71 169.75) scale(.6129)" cx="239.5" cy="417.862" r="15.5"/></g><g transform="translate(-35 10)"><circle transform="translate(4 7)" cx="239.5" cy="417.862" r="15.5" fill="#fff"/><circle transform="translate(4 7)" cx="239.5" cy="417.862" r="15.5" fill="url(#prefix__f)"/><circle transform="translate(101.71 169.75) scale(.6129)" cx="239.5" cy="417.862" r="15.5"/></g><path d="M180.01 413.25c-10.03 10.27-20.41 16.42-23.17 13.72-2.77-2.7 3.13-13.23 13.15-23.5 10.03-10.27 20.41-16.41 23.17-13.71 2.77 2.7-3.13 13.22-13.15 23.49z" fill="#fff" fill-opacity=".627" filter="url(#prefix__g)"/><path transform="rotate(39.533 265.349 500.258)" d="M262 501.86c0 7.45-2.46 13.5-5.5 13.5s-5.5-6.05-5.5-13.5 2.46-13.5 5.5-13.5 5.5 6.05 5.5 13.5z" fill="#fff" fill-opacity=".434" filter="url(#prefix__h)"/><path d="M185.28 367.85h46.89l13.33 25.16c-12.63 13.01-53.64 14.68-71.79 1.75z" fill="#e4eaf5"/><path d="M185.28 367.85h46.89l13.33 25.16c-12.63 13.01-53.64 14.68-71.79 1.75z" fill="url(#prefix__i)"/><circle transform="translate(-138.73 -506.85) scale(1.7281)" cx="201.308" cy="504.339" r="10.389" fill="#e4eaf5"/><circle transform="translate(-138.73 -506.85) scale(1.7281)" cx="201.308" cy="504.339" r="10.389" fill="url(#prefix__j)"/><circle transform="translate(-121.01 -391.41) scale(1.5041)" cx="201.308" cy="504.339" r="10.389" fill="#e4eaf5"/><circle transform="translate(-121.01 -391.41) scale(1.5041)" cx="201.308" cy="504.339" r="10.389" fill="url(#prefix__k)"/><circle transform="translate(-73.895 -408.02) scale(1.5378)" cx="201.308" cy="504.339" r="10.389" fill="#e4eaf5"/><circle transform="translate(-73.895 -408.02) scale(1.5378)" cx="201.308" cy="504.339" r="10.389" fill="url(#prefix__l)"/><path d="M210.71 459.54c-5.32 1.67-10.3 6.05-16.09 4.05l-.17-.06c6.28 2.17 11.47.44 16.89-.52 5.22-.93 9.29-.21 16.32 1.76 3.05-.64 3.13-2.12 1.66-3.46-6.01-3.23-12.34-3.67-18.61-1.77zM255.84 457.14c5.48 1.11 10.88 4.94 16.43 2.34l.17-.07c-6.03 2.82-11.36 1.63-16.86 1.24-5.28-.38-9.26.77-16.04 3.46-3.1-.32-3.34-1.78-2.01-3.27 5.63-3.84 11.89-4.93 18.31-3.7z" fill-rule="evenodd"/><path d="M274.82 465.11l6.47-12.24c1.75-9.37 4.52-16.76 12.06-21.57 3.43.24 7.42 2.3 8.88 5.62-.47 7.95-1.83 17.43-11.68 18.28l-4.55 1-11.84 24.17z" fill="url(#prefix__m)"/></g></svg>