<?xml version="1.0" encoding="UTF-8"?>
<svg class="icon" width="86.619" height="135.49" version="1.1" viewBox="0 0 110.87 173.43" xmlns="http://www.w3.org/2000/svg"><g stroke-width=".1938"><path d="m21.744 125.37h-16.705c-2.7907 0-5.0388-2.2674-5.0388-5.0388s2.2674-5.0387 5.0388-5.0387h16.705zm0-49.167h-16.705c-2.7907 0-5.0388-2.2674-5.0388-5.0387 0-2.7907 2.2674-5.0388 5.0388-5.0388h16.705zm0-49.167h-16.705c-2.7907 0-5.0388-2.2674-5.0388-5.0387 0-2.7907 2.2674-5.0387 5.0388-5.0387h16.705z" fill="#a4a9ad"/><path d="m10.795 115.27h10.95v10.097h-10.95zm0-49.167h10.95v10.097h-10.95zm0-49.167h10.95v10.097h-10.95z" fill=""/><path d="m89.128 125.37h16.705c2.7907 0 5.0387-2.2674 5.0387-5.0388s-2.2674-5.0387-5.0387-5.0387h-16.705zm0-49.167h16.705c2.7907 0 5.0387-2.2674 5.0387-5.0387 0-2.7907-2.2674-5.0388-5.0387-5.0388h-16.705zm0-49.167h16.705c2.7907 0 5.0387-2.2674 5.0387-5.0387 0-2.7907-2.2674-5.0387-5.0387-5.0387h-16.705z" fill="#a4a9ad"/><path d="m89.128 115.27h10.95v10.097h-10.95zm0-49.167h10.95v10.097h-10.95zm0-49.167h10.95v10.097h-10.95z" fill=""/><path d="m95 12.907c0-7.093-5.8139-12.907-12.907-12.907h-53.314c-7.093 0-12.907 5.8139-12.907 12.907v147.62c0 7.093 5.8139 12.907 12.907 12.907h53.314c7.093 0 12.907-5.8139 12.907-12.907z" fill="#333e48"/><path d="m39.108 163.1c-7.093 0-12.907-5.8139-12.907-12.907v-126.96c0-7.093 5.8139-12.907 12.907-12.907h32.655c7.093 0 12.907 5.8139 12.907 12.907v126.96c0 7.093-5.8139 12.907-12.907 12.907z" fill=""/><path d="m55.426 134.86m-18.682 0a18.682 18.682 0 1 0 37.364 0 18.682 18.682 0 1 0-37.364 0z" fill="#00ad68"/><path d="m55.426 116.18c-8.7015 0-16.027 5.9496-18.101 14.012h36.182c-2.0543-8.062-9.3798-14.012-18.081-14.012z" fill=""/><path d="m72.868 115.15c2.6744 0 4.8256 2.1705 4.8256 4.8256 0 2.6744-2.1705 4.8256-4.8256 4.8256h-34.884c-2.6744 0-4.8256-2.1705-4.8256-4.8256 0-2.6744 2.1705-4.8256 4.8256-4.8256z" fill="#d1d3d3"/></g><g fill="#fff" stroke-width=".1938"><path d="m66.783 137.89m-2.4612 0a2.4612 2.4612 0 1 0 4.9225 0 2.4612 2.4612 0 1 0-4.9225 0z"/><path d="m60.678 135.45m-2.4612 0a2.4612 2.4612 0 1 0 4.9225 0 2.4612 2.4612 0 1 0-4.9225 0z"/><path d="m62.442 144.22m-2.4612 0a2.4612 2.4612 0 1 0 4.9225 0 2.4612 2.4612 0 1 0-4.9225 0z"/></g><g stroke-width=".1938"><path d="m55.426 87.771m-18.682 0a18.682 18.682 0 1 0 37.364 0 18.682 18.682 0 1 0-37.364 0z" fill="#ffb819"/><path d="m55.426 69.089c-8.7015 0-16.027 5.9496-18.101 14.012h36.182c-2.0543-8.062-9.3798-14.012-18.081-14.012z" fill=""/><path d="m72.868 68.062c2.6744 0 4.8256 2.1705 4.8256 4.8256 0 2.6744-2.1705 4.8256-4.8256 4.8256h-34.884c-2.6744 0-4.8256-2.1705-4.8256-4.8256 0-2.6744 2.1705-4.8256 4.8256-4.8256z" fill="#d1d3d3"/></g><g fill="#fff" stroke-width=".1938"><path d="m66.783 90.814m-2.4612 0a2.4612 2.4612 0 1 0 4.9225 0 2.4612 2.4612 0 1 0-4.9225 0z"/><path d="m60.678 88.352m-2.4612 0a2.4612 2.4612 0 1 0 4.9225 0 2.4612 2.4612 0 1 0-4.9225 0z"/><path d="m62.442 97.132m-2.4612 0a2.4612 2.4612 0 1 0 4.9225 0 2.4612 2.4612 0 1 0-4.9225 0z"/></g><g stroke-width=".1938"><path d="m55.426 40.698m-18.682 0a18.682 18.682 0 1 0 37.364 0 18.682 18.682 0 1 0-37.364 0z" fill="#ff5959"/><path d="m55.426 21.996c-8.7015 0-16.027 5.9496-18.101 14.012h36.182c-2.0543-8.062-9.3798-14.012-18.081-14.012z" fill=""/><path d="m72.868 20.969c2.6744 0 4.8256 2.1705 4.8256 4.8256 0 2.6744-2.1705 4.8256-4.8256 4.8256h-34.884c-2.6744 0-4.8256-2.1705-4.8256-4.8256 0-2.6744 2.1705-4.8256 4.8256-4.8256z" fill="#d1d3d3"/></g><g fill="#fff" stroke-width=".1938"><path d="m66.783 43.721m-2.4612 0a2.4612 2.4612 0 1 0 4.9225 0 2.4612 2.4612 0 1 0-4.9225 0z"/><path d="m60.678 41.26m-2.4612 0a2.4612 2.4612 0 1 0 4.9225 0 2.4612 2.4612 0 1 0-4.9225 0z"/><path d="m62.442 50.058m-2.4612 0a2.4612 2.4612 0 1 0 4.9225 0 2.4612 2.4612 0 1 0-4.9225 0z"/></g></svg>
