<svg xmlns="http://www.w3.org/2000/svg" width="135.746" height="119.46" viewBox="0 0 173.754 152.909" xmlns:v="https://vecta.io/nano"><path d="M173.754 52.853v13.501c0 30.897-23.572 56.399-53.691 59.438v23.3a3.79 3.79 0 0 1-3.799 3.799h-10.539a3.79 3.79 0 1 1 0-7.598h6.721v-19.189H98.673v23.007a3.79 3.79 0 0 1-3.799 3.799h-10.52a3.79 3.79 0 1 1 0-7.598h6.721v-19.189h-6.02c-12.156 0-23.709-4.637-32.514-13.053-8.961-8.552-14.105-20.027-14.455-32.281-.02-.468-.02-22.559-.02-22.559-4.111-1.812-7.617-4.734-10.189-8.357H11.767C5.279 49.872 0 44.593 0 38.106c0-3.136 1.227-6.098 3.429-8.319a11.7 11.7 0 0 1 8.319-3.448h13.442c3.273-7.948 10.598-13.812 19.384-15.04-1.247-2.201-3.604-3.701-6.312-3.701a3.79 3.79 0 0 1-3.799-3.799A3.79 3.79 0 0 1 38.261 0c4.383 0 8.338 1.909 11.065 4.948C52.054 1.909 56.009 0 60.392 0a3.79 3.79 0 0 1 3.799 3.799 3.79 3.79 0 0 1-3.799 3.799c-2.708 0-5.085 1.5-6.331 3.721C65.964 13.053 75.14 23.3 75.14 35.67v19.91h77.594l6.02-7.812c2.221-2.883 5.883-3.994 9.332-2.805a8.23 8.23 0 0 1 5.669 7.89z" fill="#633"/><path d="M166.137 52.853v13.501c0 28.754-23.378 52.132-52.132 52.132H85.056c-10.189 0-19.871-3.877-27.274-10.949-7.5-7.169-11.806-16.754-12.117-27.021-.02-.39-.02-20.339-.02-20.339a22.81 22.81 0 0 0 2.318.117 3.79 3.79 0 1 0 0-7.598c-9.39 0-17.027-7.637-17.027-17.027s7.637-17.027 17.027-17.027h2.533c9.39 0 17.027 7.637 17.027 17.027v23.709a3.79 3.79 0 0 0 3.799 3.799h83.283a3.8 3.8 0 0 0 3.02-1.481l7.169-9.293c.097-.117.331-.429.857-.253.487.156.487.565.487.701z" fill="#f9dcb2"/><path d="M141.532 74.36v3.156c0 16.832-13.695 30.527-30.527 30.527H86.517c-10.169 0-18.683-8.163-18.975-18.176-.058-2.104 1.578-3.857 3.682-3.916s3.857 1.597 3.916 3.682c.175 5.961 5.279 10.793 11.377 10.793h24.508c12.429 0 22.559-9.936 22.91-22.267h-39.06a3.79 3.79 0 1 1 0-7.598h42.859c2.104 0 3.799 1.714 3.799 3.799zm-93.92-48.041a3.79 3.79 0 1 1 0 7.598 3.79 3.79 0 0 1-3.799-3.799c-.02-2.104 1.695-3.799 3.799-3.799z" fill="#633"/><path d="M24.254 42.216H11.767c-2.299 0-4.15-1.87-4.15-4.15a4.14 4.14 0 0 1 4.15-4.15h11.669l-.078 1.753c0 2.26.312 4.461.896 6.546z" fill="#fc6"/></svg>