<svg version="1.1" xmlns="http://www.w3.org/2000/svg" xmlns:xlink="http://www.w3.org/1999/xlink" width="135.74701" height="119.4608" viewBox="0,0,135.74701,119.4608"><g transform="translate(-172.1265,-120.2696)"><g data-paper-data="{&quot;isPaintingLayer&quot;:true}" fill-rule="nonzero" stroke="none" stroke-width="1" stroke-linecap="butt" stroke-linejoin="miter" stroke-miterlimit="10" stroke-dasharray="" stroke-dashoffset="0" style="mix-blend-mode: normal"><path d="M172.12672,161.56096c-0.02331,-2.79984 1.76795,-5.29287 4.42893,-6.16405c2.69454,-0.92891 5.5555,-0.06094 7.29066,2.1914l4.70315,6.10312h60.62062v-15.55467c0,-9.66405 7.16879,-17.66951 16.46805,-19.02419c-0.97344,-1.73515 -2.83048,-2.90703 -4.94612,-2.90703c-0.78773,0.00187 -1.54374,-0.31022 -2.10075,-0.86723c-0.55701,-0.55701 -0.86911,-1.31301 -0.86723,-2.10074c-0.00187,-0.78773 0.31022,-1.54373 0.86723,-2.10074c0.55701,-0.55701 1.31302,-0.8691 2.10075,-0.86723c3.42424,0 6.5141,1.4914 8.64536,3.86562c2.13048,-2.37422 5.22034,-3.86562 8.64458,-3.86562c0.7876,-0.00166 1.5434,0.31052 2.10024,0.86751c0.55684,0.55699 0.86883,1.31287 0.86696,2.10046c0.00187,0.78773 -0.31022,1.54373 -0.86723,2.10074c-0.55701,0.55701 -1.31302,0.8691 -2.10075,0.86723c-2.11564,0 -3.95705,1.17187 -4.93127,2.8914c6.8641,0.95937 12.58678,5.54062 15.14383,11.74998h10.50162c2.43905,-0.00516 4.779,0.96468 6.49925,2.69375c1.72032,1.73515 2.67892,4.04921 2.67892,6.49921c0,5.06796 -4.12424,9.19218 -9.19302,9.19296h-12.586c-2.00939,2.83047 -4.74846,5.11327 -7.9602,6.5289c0,0 0,17.25857 -0.01563,17.6242c-0.27344,9.57342 -4.29221,18.53826 -11.29303,25.2195c-6.87894,6.57499 -15.90477,10.19764 -25.40169,10.19764h-4.70315v14.99139h5.25081c1.63917,0 2.96798,1.3288 2.96798,2.96796c0,1.63916 -1.32881,2.96796 -2.96798,2.96796h-8.21879c-0.78773,0.00187 -1.54374,-0.31022 -2.10075,-0.86723c-0.55701,-0.55701 -0.86911,-1.31301 -0.86723,-2.10074v-17.9742h-10.76021v14.99139h5.25081c1.63917,0 2.96798,1.3288 2.96798,2.96796c0,1.63916 -1.32881,2.96796 -2.96798,2.96796h-8.23364c-0.78773,0.00187 -1.54374,-0.31022 -2.10075,-0.86723c-0.55701,-0.55701 -0.86911,-1.31301 -0.86723,-2.10074v-18.2031c-23.53059,-2.37422 -41.94631,-22.29763 -41.94631,-46.43588v-10.54764z" data-paper-data="{&quot;index&quot;:null}" fill="#663333"/><path d="M178.07753,161.5594c0,-0.10625 0,-0.42578 0.38047,-0.54766c0.41094,-0.1375 0.59375,0.10625 0.66953,0.19766l5.60081,7.26015c0.56366,0.7317 1.43576,1.15937 2.35939,1.15703h65.06517c0.78773,0.00187 1.54374,-0.31022 2.10075,-0.86723c0.55701,-0.55701 0.86911,-1.31301 0.86723,-2.10074v-18.52263c0,-7.33593 5.96644,-13.30233 13.30241,-13.30233h1.97892c7.33597,0 13.30241,5.9664 13.30241,13.30233c0,7.33593 -5.96644,13.30233 -13.30241,13.30233c-1.63917,0 -2.96798,1.3288 -2.96798,2.96796c0,1.63916 1.32881,2.96796 2.96798,2.96796c0.60481,0.00028 1.20924,-0.03023 1.81095,-0.09141c0,0 0,15.58514 -0.01563,15.88982c-0.24297,8.02108 -3.60705,15.50935 -9.46645,21.11013c-5.78362,5.52499 -13.34772,8.5539 -21.30792,8.5539h-22.61652c-22.46418,0 -40.72833,-18.26404 -40.72833,-40.72807v-10.54764z" data-paper-data="{&quot;index&quot;:null}" fill="#f9dcb2"/><path d="M197.30029,178.36328c0,-1.6289 1.32423,-2.96796 2.96798,-2.96796h33.48376c1.63917,0 2.96798,1.3288 2.96798,2.96796c0,1.63916 -1.32881,2.96796 -2.96798,2.96796h-30.51578c0.27422,9.63358 8.18832,17.39607 17.89853,17.39607h19.14697c4.76409,0 8.75161,-3.775 8.88833,-8.43202c0.04609,-1.6289 1.41563,-2.92265 3.05939,-2.87656c1.64376,0.04609 2.92189,1.41562 2.87658,3.05937c-0.22813,7.82265 -6.87972,14.19998 -14.82429,14.19998h-19.13135c-13.15007,0 -23.84934,-10.6992 -23.84934,-23.84919v-2.46562zM273.64442,143.79927c0.00187,0.78773 -0.31022,1.54373 -0.86723,2.10074c-0.55701,0.55701 -1.31302,0.8691 -2.10075,0.86723c-1.63917,0 -2.96798,-1.3288 -2.96798,-2.96796c0,-1.63916 1.32881,-2.96796 2.96798,-2.96796c1.64376,0 2.98361,1.32422 2.96798,2.96796z" data-paper-data="{&quot;index&quot;:null}" fill="#663333"/><path d="M288.92497,153.25003c0.45625,-1.6289 0.7,-3.34843 0.7,-5.11406l-0.06094,-1.36953h9.11645c0.86052,-0.00208 1.6864,0.33884 2.29488,0.94732c0.60848,0.60848 0.9494,1.43435 0.94732,2.29487c0,1.78125 -1.4461,3.24218 -3.2422,3.24218h-9.75552z" data-paper-data="{&quot;index&quot;:null}" fill="#ffcc66"/></g></g></svg>