<?xml version="1.0" encoding="UTF-8" standalone="no"?>
<!-- Uploaded to: SVG Repo, www.svgrepo.com, Generator: SVG Repo Mixer Tools -->

<svg
   width="99.311028"
   height="135.42413"
   viewBox="0 0 7.9448822 10.833931"
   version="1.1"
   id="svg2298"
   sodipodi:docname="beverages-food-svgrepo-com.svg"
   inkscape:version="1.2.2 (732a01da63, 2022-12-09)"
   xmlns:inkscape="http://www.inkscape.org/namespaces/inkscape"
   xmlns:sodipodi="http://sodipodi.sourceforge.net/DTD/sodipodi-0.dtd"
   xmlns="http://www.w3.org/2000/svg"
   xmlns:svg="http://www.w3.org/2000/svg">
  <sodipodi:namedview
     id="namedview2300"
     pagecolor="#ffffff"
     bordercolor="#000000"
     borderopacity="0.25"
     inkscape:showpageshadow="2"
     inkscape:pageopacity="0.0"
     inkscape:pagecheckerboard="0"
     inkscape:deskcolor="#d1d1d1"
     showgrid="false"
     inkscape:zoom="1.04625"
     inkscape:cx="274.31302"
     inkscape:cy="375.62724"
     inkscape:window-width="1920"
     inkscape:window-height="1017"
     inkscape:window-x="1912"
     inkscape:window-y="-8"
     inkscape:window-maximized="1"
     inkscape:current-layer="svg2298" />
  <defs
     id="defs2219">
    <style
       id="style2217">.cls-1{fill:#98856e;}.cls-2{fill:#cbb292;}.cls-3{fill:#5f443e;}.cls-4{fill:#849eb4;}.cls-5{fill:#b0d3f0;}.cls-6{fill:#7f5b53;}.cls-7{fill:#ccc;}.cls-8{fill:#f2f2f2;}.cls-9{fill:#993839;}.cls-10{fill:#cc4b4c;}.cls-11{fill:#b49313;}.cls-12{fill:#f0c419;}.cls-13{fill:#559264;}.cls-14{fill:#71c285;}.cls-15{fill:#d6d6d6;}.cls-16{fill:#999;}</style>
  </defs>
  <title
     id="title2221" />
  <g
     data-name="Layer 31"
     id="Layer_31"
     transform="matrix(0.18056551,0,0,0.18056551,-1.8056551,-0.36113102)">
    <polyline
       class="cls-1"
       points="46 58 46 62 52 62 52 58"
       id="polyline2223" />
    <rect
       class="cls-2"
       height="4"
       width="3"
       x="46"
       y="58"
       id="rect2225" />
    <polyline
       class="cls-1"
       points="12 58 12 62 18 62 18 58"
       id="polyline2227" />
    <rect
       class="cls-2"
       height="4"
       width="3"
       x="12"
       y="58"
       id="rect2229" />
    <rect
       class="cls-3"
       height="20"
       width="28"
       x="10"
       y="38"
       id="rect2231" />
    <rect
       class="cls-4"
       height="8"
       width="20"
       x="14"
       y="44"
       id="rect2233" />
    <rect
       class="cls-5"
       height="8"
       width="17"
       x="14"
       y="44"
       id="rect2235" />
    <rect
       class="cls-6"
       height="20"
       width="16"
       x="38"
       y="38"
       id="rect2237" />
    <rect
       class="cls-1"
       height="6"
       width="6"
       x="44"
       y="48"
       id="rect2239" />
    <rect
       class="cls-2"
       height="6"
       width="3"
       x="44"
       y="48"
       id="rect2241" />
    <rect
       class="cls-3"
       height="36"
       width="16"
       x="38"
       y="2"
       id="rect2243" />
    <rect
       class="cls-5"
       height="4"
       width="8"
       x="42"
       y="6"
       id="rect2245" />
    <rect
       class="cls-4"
       height="4"
       width="8"
       x="42"
       y="10"
       id="rect2247" />
    <rect
       class="cls-5"
       height="4"
       width="8"
       x="42"
       y="14"
       id="rect2249" />
    <rect
       class="cls-4"
       height="4"
       width="8"
       x="42"
       y="18"
       id="rect2251" />
    <rect
       class="cls-6"
       height="36"
       width="28"
       x="10"
       y="2"
       id="rect2253" />
    <rect
       class="cls-7"
       height="28"
       width="20"
       x="14"
       y="6"
       id="rect2255" />
    <rect
       class="cls-8"
       height="28"
       width="17"
       x="14"
       y="6"
       id="rect2257" />
    <rect
       class="cls-9"
       height="6"
       width="4"
       x="18"
       y="12"
       id="rect2259" />
    <rect
       class="cls-10"
       height="6"
       width="2"
       x="18"
       y="12"
       id="rect2261" />
    <rect
       class="cls-11"
       height="6"
       width="4"
       x="26"
       y="12"
       id="rect2263" />
    <rect
       class="cls-12"
       height="6"
       width="2"
       x="26"
       y="12"
       id="rect2265" />
    <rect
       class="cls-1"
       height="6"
       width="4"
       x="26"
       y="24"
       id="rect2267" />
    <rect
       class="cls-2"
       height="6"
       width="2"
       x="26"
       y="24"
       id="rect2269" />
    <rect
       class="cls-13"
       height="6"
       width="4"
       x="18"
       y="24"
       id="rect2271" />
    <rect
       class="cls-14"
       height="6"
       width="2"
       x="18"
       y="24"
       id="rect2273" />
    <rect
       class="cls-15"
       height="2"
       width="2"
       x="41"
       y="25"
       id="rect2275" />
    <rect
       class="cls-15"
       height="2"
       width="2"
       x="45"
       y="25"
       id="rect2277" />
    <rect
       class="cls-15"
       height="2"
       width="2"
       x="41"
       y="29"
       id="rect2279" />
    <rect
       class="cls-15"
       height="2"
       width="2"
       x="45"
       y="29"
       id="rect2281" />
    <rect
       class="cls-15"
       height="2"
       width="2"
       x="41"
       y="33"
       id="rect2283" />
    <rect
       class="cls-15"
       height="2"
       width="2"
       x="45"
       y="33"
       id="rect2285" />
    <rect
       class="cls-15"
       height="2"
       width="2"
       x="49"
       y="25"
       id="rect2287" />
    <rect
       class="cls-15"
       height="2"
       width="2"
       x="49"
       y="29"
       id="rect2289" />
    <rect
       class="cls-15"
       height="2"
       width="2"
       x="49"
       y="33"
       id="rect2291" />
    <rect
       class="cls-16"
       height="2"
       width="20"
       x="14"
       y="17"
       id="rect2293" />
    <rect
       class="cls-16"
       height="2"
       width="20"
       x="14"
       y="29"
       id="rect2295" />
  </g>
</svg>
