<svg width="99.311" height="135.424" viewBox="0 0 7.945 10.834" version="1.1" id="prefix__svg2298" xmlns="http://www.w3.org/2000/svg"><defs id="prefix__defs2219"><style id="style2217">.prefix__cls-1{fill:#98856e}.prefix__cls-2{fill:#cbb292}.prefix__cls-3{fill:#5f443e}.prefix__cls-4{fill:#849eb4}.prefix__cls-5{fill:#b0d3f0}.prefix__cls-6{fill:#7f5b53}.prefix__cls-15{fill:#d6d6d6}.prefix__cls-16{fill:#999}</style></defs><g data-name="Layer 31" id="prefix__Layer_31" transform="matrix(.18057 0 0 .18057 -1.806 -.361)"><path class="prefix__cls-1" id="prefix__polyline2223" d="M46 58v4h6v-4"/><path class="prefix__cls-2" id="prefix__rect2225" d="M46 58h3v4h-3z"/><path class="prefix__cls-1" id="prefix__polyline2227" d="M12 58v4h6v-4"/><path class="prefix__cls-2" id="prefix__rect2229" d="M12 58h3v4h-3z"/><path class="prefix__cls-3" id="prefix__rect2231" d="M10 38h28v20H10z"/><path class="prefix__cls-4" id="prefix__rect2233" d="M14 44h20v8H14z"/><path class="prefix__cls-5" id="prefix__rect2235" d="M14 44h17v8H14z"/><path class="prefix__cls-6" id="prefix__rect2237" d="M38 38h16v20H38z"/><path class="prefix__cls-1" id="prefix__rect2239" d="M44 48h6v6h-6z"/><path class="prefix__cls-2" id="prefix__rect2241" d="M44 48h3v6h-3z"/><path class="prefix__cls-3" id="prefix__rect2243" d="M38 2h16v36H38z"/><path class="prefix__cls-5" id="prefix__rect2245" d="M42 6h8v4h-8z"/><path class="prefix__cls-4" id="prefix__rect2247" d="M42 10h8v4h-8z"/><path class="prefix__cls-5" id="prefix__rect2249" d="M42 14h8v4h-8z"/><path class="prefix__cls-4" id="prefix__rect2251" d="M42 18h8v4h-8z"/><path class="prefix__cls-6" id="prefix__rect2253" d="M10 2h28v36H10z"/><path id="prefix__rect2255" fill="#ccc" d="M14 6h20v28H14z"/><path id="prefix__rect2257" fill="#f2f2f2" d="M14 6h17v28H14z"/><path id="prefix__rect2259" fill="#993839" d="M18 12h4v6h-4z"/><path id="prefix__rect2261" fill="#cc4b4c" d="M18 12h2v6h-2z"/><path id="prefix__rect2263" fill="#b49313" d="M26 12h4v6h-4z"/><path id="prefix__rect2265" fill="#f0c419" d="M26 12h2v6h-2z"/><path class="prefix__cls-1" id="prefix__rect2267" d="M26 24h4v6h-4z"/><path class="prefix__cls-2" id="prefix__rect2269" d="M26 24h2v6h-2z"/><path id="prefix__rect2271" fill="#559264" d="M18 24h4v6h-4z"/><path id="prefix__rect2273" fill="#71c285" d="M18 24h2v6h-2z"/><path class="prefix__cls-15" id="prefix__rect2275" d="M41 25h2v2h-2z"/><path class="prefix__cls-15" id="prefix__rect2277" d="M45 25h2v2h-2z"/><path class="prefix__cls-15" id="prefix__rect2279" d="M41 29h2v2h-2z"/><path class="prefix__cls-15" id="prefix__rect2281" d="M45 29h2v2h-2z"/><path class="prefix__cls-15" id="prefix__rect2283" d="M41 33h2v2h-2z"/><path class="prefix__cls-15" id="prefix__rect2285" d="M45 33h2v2h-2z"/><path class="prefix__cls-15" id="prefix__rect2287" d="M49 25h2v2h-2z"/><path class="prefix__cls-15" id="prefix__rect2289" d="M49 29h2v2h-2z"/><path class="prefix__cls-15" id="prefix__rect2291" d="M49 33h2v2h-2z"/><path class="prefix__cls-16" id="prefix__rect2293" d="M14 17h20v2H14z"/><path class="prefix__cls-16" id="prefix__rect2295" d="M14 29h20v2H14z"/></g></svg>