<svg version="1.1" xmlns="http://www.w3.org/2000/svg" xmlns:xlink="http://www.w3.org/1999/xlink" width="99.31103" height="135.42413" viewBox="0,0,99.31103,135.42413"><g transform="translate(-190.34448,-112.28794)"><g data-paper-data="{&quot;isPaintingLayer&quot;:true}" fill-rule="nonzero" stroke="none" stroke-width="1" stroke-linecap="butt" stroke-linejoin="miter" stroke-miterlimit="10" stroke-dasharray="" stroke-dashoffset="0" style="mix-blend-mode: normal"><path d="M285.14138,238.68379v9.02828h-13.54241v-9.02828" fill="#98856e"/><path d="M271.59896,247.71206v-9.02828h6.77121v9.02828z" fill="#cbb292"/><path d="M208.40104,238.68379v9.02828h-13.54241v-9.02828" fill="#98856e"/><path d="M194.85862,247.71206v-9.02828h6.77121v9.02828z" fill="#cbb292"/><path d="M190.34448,238.68379v-45.14138h63.19793v45.14138z" fill="#5f443e"/><path d="M199.37276,225.14138v-18.05655h45.14138v18.05655z" fill="#849eb4"/><path d="M199.37276,225.14138v-18.05655h38.37017v18.05655z" fill="#b0d3f0"/><path d="M253.54241,238.68379v-45.14138h36.1131v45.14138z" fill="#7f5b53"/><path d="M267.08483,229.65551v-13.54241h13.54241v13.54241z" fill="#98856e"/><path d="M267.08483,229.65551v-13.54241h6.77121v13.54241z" fill="#cbb292"/><path d="M253.54241,193.54241v-81.25448h36.1131v81.25448z" fill="#5f443e"/><path d="M262.57069,130.34449v-9.02828h18.05655v9.02828z" fill="#b0d3f0"/><path d="M262.57069,139.37276v-9.02828h18.05655v9.02828z" fill="#849eb4"/><path d="M262.57069,148.40104v-9.02828h18.05655v9.02828z" fill="#b0d3f0"/><path d="M262.57069,157.42931v-9.02828h18.05655v9.02828z" fill="#849eb4"/><path d="M190.34448,193.54241v-81.25448h63.19793v81.25448z" fill="#7f5b53"/><path d="M199.37276,184.51414v-63.19793h45.14138v63.19793z" fill="#cccccc"/><path d="M199.37276,184.51414v-63.19793h38.37017v63.19793z" fill="#f2f2f2"/><path d="M208.40104,148.40104v-13.54241h9.02828v13.54241z" fill="#993839"/><path d="M208.40104,148.40104v-13.54241h4.51414v13.54241z" fill="#cc4b4c"/><path d="M226.45759,148.40104v-13.54241h9.02828v13.54241z" fill="#b49313"/><path d="M226.45759,148.40104v-13.54241h4.51414v13.54241z" fill="#f0c419"/><path d="M226.45759,175.48586v-13.54241h9.02828v13.54241z" fill="#98856e"/><path d="M226.45759,175.48586v-13.54241h4.51414v13.54241z" fill="#cbb292"/><path d="M208.40104,175.48586v-13.54241h9.02828v13.54241z" fill="#559264"/><path d="M208.40104,175.48586v-13.54241h4.51414v13.54241z" fill="#71c285"/><path d="M260.31362,168.71466v-4.51414h4.51414v4.51414z" fill="#d6d6d6"/><path d="M269.3419,168.71466v-4.51414h4.51414v4.51414z" fill="#d6d6d6"/><path d="M260.31362,177.74293v-4.51414h4.51414v4.51414z" fill="#d6d6d6"/><path d="M269.3419,177.74293v-4.51414h4.51414v4.51414z" fill="#d6d6d6"/><path d="M260.31362,186.77121v-4.51414h4.51414v4.51414z" fill="#d6d6d6"/><path d="M269.3419,186.77121v-4.51414h4.51414v4.51414z" fill="#d6d6d6"/><path d="M278.37017,168.71466v-4.51414h4.51414v4.51414z" fill="#d6d6d6"/><path d="M278.37017,177.74293v-4.51414h4.51414v4.51414z" fill="#d6d6d6"/><path d="M278.37017,186.77121v-4.51414h4.51414v4.51414z" fill="#d6d6d6"/><path d="M199.37276,150.65811v-4.51414h45.14138v4.51414z" fill="#999999"/><path d="M199.37276,177.74293v-4.51414h45.14138v4.51414z" fill="#999999"/></g></g></svg>