<svg version="1.1" xmlns="http://www.w3.org/2000/svg" xmlns:xlink="http://www.w3.org/1999/xlink" width="138.60444" height="91.51507" viewBox="0,0,138.60444,91.51507"><g transform="translate(-170.01394,-134.92291)"><g data-paper-data="{&quot;isPaintingLayer&quot;:true}" fill-rule="evenodd" stroke-linecap="butt" stroke-linejoin="miter" stroke-miterlimit="10" stroke-dasharray="" stroke-dashoffset="0" style="mix-blend-mode: normal"><path d="M186.58145,135.0576l96.19573,34.2071c4.15099,-0.72247 8.20644,-0.85088 11.22665,-0.19806c2.43814,0.52714 3.82443,2.86217 4.31186,5.72344l5.59503,1.98952c0.87033,0.30923 1.32883,1.27431 1.01981,2.14393l-0.48602,1.36623l3.01941,1.07353c0.86973,0.30943 1.32863,1.2739 1.019,2.14393l-1.68705,4.74516c-0.30953,0.87003 -1.27431,1.32833 -2.14424,1.019l-8.91339,-3.16949c-0.88243,1.02938 -1.95888,1.72434 -3.2091,1.89155c-6.69769,0.89604 -23.11561,0.87961 -26.86837,-3.38095c-2.81269,-3.19327 -1.85678,-6.25159 1.08149,-8.82167l-50.6624,-18.01546c0.50809,0.5603 0.83294,1.33478 0.83294,2.32324v3.15487c3.97904,0.0002 7.79793,0.00605 11.46089,0.02661c16.42064,0.17326 7.64594,25.78376 17.33431,25.99622c46.64143,0.8148 57.52338,-2.53591 57.37078,13.09129c0,3.66669 -3.56459,6.37859 -9.43438,8.38091c1.42942,5.24881 0.00504,10.49743 -3.95475,12.95039c-5.10519,3.16223 -12.49279,0.4835 -16.49754,-5.98177c-0.5992,-0.9676 -1.08804,-1.96543 -1.47045,-2.97294c-1.09681,0.10482 -2.20874,0.2035 -3.33549,0.29502c-0.0893,3.64432 -1.62698,6.88436 -4.49318,8.6597c-5.10519,3.16223 -12.49269,0.4835 -16.49744,-5.98177c-0.3309,-0.53419 -0.62783,-1.07807 -0.89221,-1.62708c-9.90256,0.22557 -19.83273,0.19412 -28.60561,0.13395c-0.36144,3.15366 -1.86041,5.89448 -4.41194,7.47489c-5.10509,3.16223 -12.49269,0.4835 -16.49744,-5.98177c-0.33513,-0.54115 -0.63559,-1.09228 -0.90259,-1.64875c-24.11747,-0.53651 -24.5287,-4.42253 -24.66074,-15.08797c-0.14312,-11.55755 5.09894,-14.46206 13.41231,-16.12602c2.6867,-6.48099 4.65435,-19.06036 25.15784,-21.26568v-3.4901c0,-2.10281 1.46712,-3.23641 3.05015,-3.40232l-25.72278,-9.14692c-0.86993,-0.30913 -1.32843,-1.2737 -1.0193,-2.14393l0.84362,-2.37233l-3.01941,-1.07373c-0.86983,-0.30923 -1.32873,-1.2741 -1.0192,-2.14404l1.32954,-3.73835c0.30923,-0.86983 1.2738,-1.32873 2.14363,-1.0194z" fill="#ffffff" stroke="#aaa9a9" stroke-width="2.8222"/><g stroke="#1f1a17" stroke-width="0.0762"><path d="M186.58175,135.0576l117.32928,41.7219c0.87003,0.30933 1.32863,1.27421 1.0193,2.14404l-1.32944,3.73845c-0.30933,0.86983 -1.27421,1.32853 -2.14404,1.0192l-117.32928,-41.7218c-0.86993,-0.30933 -1.32863,-1.2741 -1.0193,-2.14414l1.32944,-3.73835c0.30933,-0.87003 1.274,-1.32863 2.14404,-1.0193z" fill="#aaa9a9"/><path d="M187.32264,147.54979c-0.87351,-0.31062 -1.32983,-1.27055 -1.01921,-2.14407l1.68728,-4.74492c0.31062,-0.87351 1.27055,-1.32983 2.14407,-1.01921l117.32882,41.72184c0.87351,0.31062 1.32983,1.27055 1.01921,2.14407l-1.68728,4.74492c-0.31062,0.87351 -1.27055,1.32983 -2.14407,1.01921z" fill="#aaa9a9"/><path d="M216.50111,194.74526c0,-6.47558 3.23723,-11.72507 7.23054,-11.72507c3.99332,0 7.23054,5.24949 7.23054,11.72507c0,6.47558 -3.23723,11.72507 -7.23054,11.72507c-3.99332,0 -7.23054,-5.24949 -7.23054,-11.72507z" fill="#28166f"/><path d="M219.6909,174.93887c0.58453,-3.24996 3.41903,-5.46 6.33102,-4.93626c2.91199,0.52375 4.79877,3.58294 4.21424,6.83291c-0.58453,3.24996 -3.41903,5.46 -6.33102,4.93626c-2.91199,-0.52375 -4.79877,-3.58294 -4.21424,-6.83291z" fill="#ffcccc"/><path d="M228.52822,182.57672l-1.88419,-6.09486l4.83698,-0.56947l0.08638,6.56253z" fill="#383431"/><path d="M218.72121,174.32795c2.01462,-8.2144 14.20453,-6.27144 12.6585,2.32415c-1.20557,0.17245 -5.52317,1.16364 -5.54806,-0.84322c-0.0386,-3.11002 -6.00757,-1.53858 -7.11043,-1.48093z" fill="#ffffff"/><path d="M195.00039,195.49314c0,-6.47558 3.23723,-11.72507 7.23054,-11.72507c3.99332,0 7.23054,5.24949 7.23054,11.72507c0,6.47558 -3.23723,11.72507 -7.23054,11.72507c-3.99332,0 -7.23054,-5.24949 -7.23054,-11.72507z" fill="#28166f"/><path d="M198.19007,175.68674c0.58453,-3.24996 3.41903,-5.46 6.33102,-4.93626c2.91199,0.52375 4.79877,3.58294 4.21424,6.83291c-0.58453,3.24996 -3.41903,5.46 -6.33102,4.93626c-2.91199,-0.52375 -4.79877,-3.58294 -4.21424,-6.83291z" fill="#ffcccc"/><path d="M207.02749,183.32459l-1.88419,-6.09486l4.83698,-0.56947l0.08638,6.56253z" fill="#383431"/><path d="M197.22049,175.07582c2.01462,-8.2143 14.20443,-6.27134 12.6585,2.32425c-1.20567,0.17235 -5.52317,1.16364 -5.54806,-0.84322c-0.0387,-3.11002 -6.00757,-1.53858 -7.11043,-1.48103z" fill="#ffffff"/><path d="M216.91281,160.09822v6.03065h-6.91762v-6.03065c0,-4.56575 6.91762,-4.56545 6.91762,0z" fill="#0093dd"/><path d="M190.08123,179.60035h0.0001c0.35398,-0.18878 0.79797,-0.05372 0.98675,0.30026l4.88224,9.15277c0.18878,0.35398 0.05372,0.79797 -0.30026,0.98675l-0.0001,0.0001c-0.35388,0.18878 -0.79797,0.05362 -0.98675,-0.30026l-2.09777,-3.93288l-5.1961,2.77166l-0.68659,-1.28701l5.1961,-2.77176l-2.09787,-3.93278c-0.18878,-0.35398 -0.05362,-0.79797 0.30026,-0.98685z" fill="#663300"/><path d="M303.07859,202.36711c0,16.23064 -69.82104,13.7675 -100.43089,13.7675c-30.60985,0 -31.07984,-3.59725 -31.22286,-15.1548c-0.14302,-11.55745 5.09894,-14.46186 13.41231,-16.12602c2.95137,-7.1197 5.03191,-21.60091 31.77701,-21.60091c4.08669,0 8.00475,0.00605 11.75933,0.02671c16.42064,0.17326 7.64594,25.78376 17.33431,25.99632c46.64143,0.8147 57.52338,-2.53611 57.37078,13.09119zM223.77631,166.26706c5.5013,0 8.37647,0.8539 8.37647,9.16406c0,8.31015 -0.83213,10.73912 -8.23335,10.73912c-7.40111,0 -8.5198,-3.64724 -8.5198,-10.73912c0,-7.09189 2.87528,-9.16406 8.37667,-9.16406zM212.64692,179.86604c0,5.03745 -5.16727,6.91298 -11.47803,6.91298c-9.62316,0 -14.29343,-1.09792 -11.89964,-6.0106c3.01114,-6.17962 5.35505,-14.3659 20.42568,-14.3659c4.74062,0 2.95198,8.42606 2.95198,13.46352z" fill="#da251d"/><path d="M173.26156,198.01504c2.63469,0 4.77147,2.13658 4.77147,4.77137c0,2.63489 -2.13678,4.77147 -4.77147,4.77147v-4.77147z" fill="#ffff66"/><path d="M299.65471,203.56049v1.79006c-0.98836,0 -1.79006,-0.80149 -1.79006,-1.79006c0,-0.98846 0.80169,-1.79016 1.79006,-1.79016z" fill="#ffff66"/><path d="M179.48362,205.2749v-4.92562h115.10078v4.92562z" fill="#ffffff"/><path d="M196.98838,217.71719c-4.00536,-6.46636 -3.11319,-14.27224 1.99273,-17.4349c5.10591,-3.16267 12.49206,-0.48449 16.49742,5.98188c4.00536,6.46636 3.11319,14.27224 -1.99273,17.4349c-5.10591,3.16267 -12.49206,0.48449 -16.49742,-5.98188z" fill="#191919"/><path d="M203.12456,213.91651c-1.0636,-1.71711 -0.53383,-3.97132 1.18328,-5.03493c1.71711,-1.0636 3.97132,-0.53383 5.03493,1.18328c1.0636,1.71711 0.53383,3.97132 -1.18328,5.03493c-1.71711,1.0636 -3.97132,0.53383 -5.03493,-1.18328z" fill="#cccccc"/><path d="M205.24148,212.60525c-0.33942,-0.54797 -0.17036,-1.26734 0.37761,-1.60675c0.54797,-0.33942 1.26734,-0.17036 1.60675,0.37761c0.33942,0.54797 0.17036,1.26734 -0.37761,1.60675c-0.54797,0.33942 -1.26734,0.17036 -1.60675,-0.37761z" fill="#191919"/><path d="M247.39588,217.71719c-4.00536,-6.46636 -3.11319,-14.27224 1.99273,-17.4349c5.10591,-3.16267 12.49206,-0.48449 16.49742,5.98188c4.00536,6.46636 3.11319,14.27224 -1.99273,17.4349c-5.10591,3.16267 -12.49206,0.48449 -16.49742,-5.98188z" fill="#191919"/><path d="M253.53186,213.91651c-1.0636,-1.71711 -0.53383,-3.97132 1.18328,-5.03493c1.71711,-1.0636 3.97132,-0.53383 5.03493,1.18328c1.0636,1.71711 0.53383,3.97132 -1.18328,5.03493c-1.71711,1.0636 -3.97132,0.53383 -5.03493,-1.18328z" fill="#cccccc"/><path d="M255.64878,212.60525c-0.33942,-0.54797 -0.17036,-1.26734 0.37761,-1.60675c0.54797,-0.33942 1.26734,-0.17036 1.60675,0.37761c0.33942,0.54797 0.17036,1.26734 -0.37761,1.60675c-0.54797,0.33942 -1.26734,0.17036 -1.60675,-0.37761z" fill="#191919"/><path d="M273.19244,217.71719c-4.00536,-6.46636 -3.11319,-14.27224 1.99273,-17.4349c5.10591,-3.16267 12.49206,-0.48449 16.49742,5.98188c4.00536,6.46636 3.11319,14.27224 -1.99273,17.4349c-5.10591,3.16267 -12.49206,0.48449 -16.49742,-5.98188z" fill="#191919"/><path d="M279.32842,213.91651c-1.0636,-1.71711 -0.53383,-3.97132 1.18328,-5.03493c1.71711,-1.0636 3.97132,-0.53383 5.03493,1.18328c1.0636,1.71711 0.53383,3.97132 -1.18328,5.03493c-1.71711,1.0636 -3.97132,0.53383 -5.03493,-1.18328z" fill="#cccccc"/><path d="M281.44534,212.60525c-0.33942,-0.54797 -0.17036,-1.26734 0.37761,-1.60675c0.54797,-0.33942 1.26734,-0.17036 1.60675,0.37761c0.33942,0.54797 0.17036,1.26734 -0.37761,1.60675c-0.54797,0.33942 -1.26734,0.17036 -1.60675,-0.37761z" fill="#191919"/><path d="M294.00434,169.06664c7.01841,1.51721 5.33227,18.01616 -1.47478,18.92681c-6.69779,0.89604 -23.11561,0.87961 -26.86847,-3.38085c-8.45267,-9.59645 17.10652,-17.97514 28.34325,-15.54597z" fill="#da251d"/><path d="M282.5282,177.88187c0,-1.44621 1.17238,-2.61859 2.61859,-2.61859c1.44621,0 2.61859,1.17238 2.61859,2.61859c0,1.44621 -1.17238,2.61859 -2.61859,2.61859c-1.44621,0 -2.61859,-1.17238 -2.61859,-2.61859z" fill="#aaa9a9"/></g></g></g></svg>