<?xml version="1.0" encoding="UTF-8" standalone="no"?>
<svg
   version="1.1"
   width="110.9954"
   height="140"
   viewBox="0 0 110.9954 140"
   id="svg6079"
   sodipodi:docname="1675359371Strawberry Jam.svg"
   inkscape:version="1.2.2 (732a01da63, 2022-12-09)"
   xmlns:inkscape="http://www.inkscape.org/namespaces/inkscape"
   xmlns:sodipodi="http://sodipodi.sourceforge.net/DTD/sodipodi-0.dtd"
   xmlns="http://www.w3.org/2000/svg"
   xmlns:svg="http://www.w3.org/2000/svg">
  <defs
     id="defs6083" />
  <sodipodi:namedview
     id="namedview6081"
     pagecolor="#ffffff"
     bordercolor="#000000"
     borderopacity="0.25"
     inkscape:showpageshadow="2"
     inkscape:pageopacity="0.0"
     inkscape:pagecheckerboard="0"
     inkscape:deskcolor="#d1d1d1"
     showgrid="false"
     inkscape:zoom="2.3846983"
     inkscape:cx="139.22096"
     inkscape:cy="175.70357"
     inkscape:window-width="1920"
     inkscape:window-height="1017"
     inkscape:window-x="1912"
     inkscape:window-y="-8"
     inkscape:window-maximized="1"
     inkscape:current-layer="svg6079" />
  <g
     transform="matrix(0.39887427,0,0,0.39887427,-40.232126,-1.7973681)"
     id="g6077">
    <g
       data-paper-data="{&quot;isPaintingLayer&quot;:true}"
       fill-rule="nonzero"
       stroke="none"
       stroke-width="1"
       stroke-linecap="butt"
       stroke-linejoin="miter"
       stroke-miterlimit="10"
       stroke-dasharray="none"
       stroke-dashoffset="0"
       style="mix-blend-mode:normal"
       id="g6075">
      <path
         d="m 345.71213,63.6196 c 29.53722,29.53721 31.0918,219.9745 -1.55459,262.72573 -32.64639,42.75123 -146.13147,31.0918 -195.10106,11.65942 -48.96959,-19.43237 -34.20098,-155.45901 -34.20098,-213.75614 0,-58.29713 36.53287,-79.2841 79.28409,-85.50246 69.95655,-9.32754 127.4764,1.55459 151.57254,24.87344 z"
         fill="#cfebe2"
         id="path5921" />
      <path
         d="m 335.6073,93.93411 c 16.32319,22.54156 24.09614,181.10975 3.10918,216.08803 C 317.72952,345.00042 204.24444,348.1096 163.0478,324.79075 131.1787,306.91296 125.73764,253.2796 124.96034,171.66362 124.18305,88.49305 152.94296,69.06068 182.48018,63.61961 297.51985,40.30076 320.06141,70.61527 335.60731,93.93412 Z"
         fill="#ad2744"
         id="path5923" />
      <path
         d="m 163.82509,324.79074 c -4.66377,-2.33188 -8.55025,-6.21836 -12.43672,-10.10484 32.6464,-16.32319 117.37156,-34.97828 184.99623,-0.77729 -26.42803,31.8691 -133.69475,33.42369 -172.5595,10.88213 z"
         fill="#991f3f"
         id="path5925" />
      <path
         d="m 152.94295,291.36706 c 0,-4.29284 3.48011,-7.77295 7.77295,-7.77295 4.29285,0 7.77295,3.48011 7.77295,7.77295 0,4.29285 -3.48011,7.77295 -7.77295,7.77295 -4.29284,0 -7.77295,-3.4801 -7.77295,-7.77295 z"
         fill="#cf2f51"
         id="path5927" />
      <path
         d="m 313.67032,175.55009 c 0,-4.29284 3.4801,-7.77296 7.77295,-7.77296 4.29285,0 7.77296,3.48011 7.77296,7.77296 0,4.29285 -3.48011,7.77295 -7.77296,7.77295 -4.29284,0 -7.77295,-3.4801 -7.77295,-7.77295 z"
         fill="#cf2f51"
         id="path5929" />
      <path
         d="m 320.40682,225.6424 c 0,-4.29284 3.48011,-7.77295 7.77296,-7.77295 4.29285,0 7.77295,3.48011 7.77295,7.77295 0,4.29285 -3.4801,7.77295 -7.77295,7.77295 -4.29284,0 -7.77296,-3.48011 -7.77296,-7.77295 z"
         fill="#cf2f51"
         id="path5931" />
      <path
         d="m 272.73275,308.64026 c 0,-4.29284 3.4801,-7.77295 7.77295,-7.77295 4.29285,0 7.77295,3.48011 7.77295,7.77295 0,4.29285 -3.48011,7.77295 -7.77295,7.77295 -4.29284,0 -7.77295,-3.4801 -7.77295,-7.77295 z"
         fill="#cf2f51"
         id="path5933" />
      <path
         d="m 179.71642,307.77661 c 0,-4.29284 3.4801,-7.77295 7.77295,-7.77295 4.29285,0 7.77295,3.48011 7.77295,7.77295 0,4.29285 -3.48011,7.77295 -7.77295,7.77295 -4.29284,0 -7.77295,-3.48011 -7.77295,-7.77295 z"
         fill="#cf2f51"
         id="path5935" />
      <path
         d="m 292.07877,276.59845 c 0,-4.29284 3.4801,-7.77295 7.77295,-7.77295 4.29285,0 7.77295,3.48011 7.77295,7.77295 0,4.29285 -3.4801,7.77295 -7.77295,7.77295 -4.29284,0 -7.77295,-3.4801 -7.77295,-7.77295 z"
         fill="#cf2f51"
         id="path5937" />
      <path
         d="m 152.16565,141.34911 c 0,-4.29284 3.48011,-7.77295 7.77296,-7.77295 4.29285,0 7.77295,3.48011 7.77295,7.77295 0,4.29285 -3.4801,7.77295 -7.77295,7.77295 -4.29284,0 -7.77296,-3.4801 -7.77296,-7.77295 z"
         fill="#cf2f51"
         id="path5939" />
      <path
         d="m 249.32754,128.13509 c 0,-4.29284 3.4801,-7.77295 7.77295,-7.77295 4.29285,0 7.77295,3.4801 7.77295,7.77295 0,4.29285 -3.48011,7.77295 -7.77295,7.77295 -4.29284,0 -7.77295,-3.48011 -7.77295,-7.77295 z"
         fill="#cf2f51"
         id="path5941" />
      <path
         d="m 178.59369,256.38878 c 0,-4.29284 3.4801,-7.77295 7.77295,-7.77295 4.29285,0 7.77295,3.48011 7.77295,7.77295 0,4.29285 -3.48011,7.77295 -7.77295,7.77295 -4.29284,0 -7.77295,-3.4801 -7.77295,-7.77295 z"
         fill="#cf2f51"
         id="path5943" />
      <path
         d="m 231.44976,318.57238 c 0,-4.29284 3.4801,-7.77295 7.77295,-7.77295 4.29285,0 7.77295,3.48011 7.77295,7.77295 0,4.29285 -3.48011,7.77295 -7.77295,7.77295 -4.29284,0 -7.77295,-3.4801 -7.77295,-7.77295 z"
         fill="#cf2f51"
         id="path5945" />
      <path
         d="m 294.41066,134.35345 c 0,-4.29284 3.4801,-7.77295 7.77295,-7.77295 4.29285,0 7.77295,3.48011 7.77295,7.77295 0,4.29285 -3.4801,7.77295 -7.77295,7.77295 -4.29284,0 -7.77295,-3.4801 -7.77295,-7.77295 z"
         fill="#cf2f51"
         id="path5947" />
      <path
         d="m 207.61268,165.01339 c 0,-4.29284 3.4801,-7.77295 7.77295,-7.77295 4.29285,0 7.77295,3.48011 7.77295,7.77295 0,4.29285 -3.48011,7.77295 -7.77295,7.77295 -4.29284,0 -7.77295,-3.48011 -7.77295,-7.77295 z"
         fill="#cf2f51"
         id="path5949" />
      <path
         d="m 208.9082,128.91239 c 0,-4.29284 3.48011,-7.77295 7.77295,-7.77295 4.29285,0 7.77295,3.4801 7.77295,7.77295 0,4.29285 -3.48011,7.77295 -7.77295,7.77295 -4.29284,0 -7.77295,-3.48011 -7.77295,-7.77295 z"
         fill="#cf2f51"
         id="path5951" />
      <path
         d="m 341.82566,69.06067 c 8.55025,-2.33188 37.31017,17.87779 37.31017,17.87779 0,0 -18.65509,14.76861 -35.75558,22.54156 -16.32319,7.77295 -33.42369,3.10918 -45.86041,0.77729 -13.21402,-2.33188 -29.53722,1.55459 -39.64205,5.44106 -10.10484,4.66377 -13.99131,-0.77729 -31.8691,-4.66377 -17.87778,-3.88648 -50.52418,20.98697 -62.1836,6.21836 -11.65942,-14.7686 -19.43238,-16.32319 -38.08746,-12.43672 -18.65508,4.66377 -24.87344,-23.31885 -24.87344,-23.31885 6.21836,-3.88648 31.8691,-17.10049 31.8691,-17.10049 132.91745,18.65508 209.09237,4.66377 209.09237,4.66377 z"
         fill="#e5e4e1"
         id="path5953" />
      <path
         d="m 137.39705,67.50608 -31.86909,26.42803 c -3.10918,-6.21836 -4.66378,-12.43672 -4.66378,-12.43672 5.44106,-3.10918 24.09615,-13.21402 29.53722,-16.32319 z"
         fill="#e6818b"
         id="path5955" />
      <path
         d="m 160.71591,76.05632 -29.53722,28.75992 c -1.55459,0 -3.88647,0 -5.44106,0.77729 -3.88648,0.77729 -6.99565,0.7773 -10.10483,-0.77729 l 36.53286,-31.0918 z"
         fill="#e6818b"
         id="path5957" />
      <path
         d="m 185.58935,77.61091 -22.54156,38.86475 c -3.10918,-4.66377 -6.21836,-6.99565 -9.32754,-9.32754 l 20.20968,-30.31451 z"
         fill="#e6818b"
         id="path5959" />
      <path
         d="m 197.24877,84.60657 11.65942,3.10918 -9.32754,28.75992 c -4.66377,1.55459 -8.55025,3.10918 -13.21402,3.88648 z"
         fill="#e6818b"
         id="path5961" />
      <path
         d="m 226.00869,86.16116 11.65942,2.33188 -6.21836,24.87344 c -1.55459,-0.77729 -3.10918,-0.77729 -5.44107,-1.55459 -2.33188,-0.77729 -3.88647,-0.7773 -6.21836,-0.7773 z"
         fill="#e6818b"
         id="path5963" />
      <path
         d="m 256.3232,85.38386 h 10.10483 l 1.5546,27.20533 c -3.88648,0.77729 -6.99566,1.55459 -10.10484,3.10918 -0.77729,0 -1.55459,0.7773 -2.33189,0.7773 z"
         fill="#e6818b"
         id="path5965" />
      <path
         d="m 296.74254,111.0346 c -1.55459,-0.77729 -2.33188,-0.77729 -3.88648,-0.77729 l -1.55459,-28.75992 6.99565,-2.33188 5.44107,32.64639 c -2.33188,0 -3.88648,-0.7773 -6.99565,-0.7773 z"
         fill="#e6818b"
         id="path5967" />
      <path
         d="m 325.50246,114.14378 -14.76861,-36.53286 7.77295,-2.33188 18.65508,37.31016 c -4.66377,0.77729 -8.55025,1.55459 -11.65942,1.55459 z"
         fill="#e6818b"
         id="path5969" />
      <path
         d="M 362.81262,98.59788 328.61164,72.16985 h 8.55024 l 34.97827,20.20967 c -2.33188,2.33188 -5.44106,3.88648 -9.32754,6.21836 z"
         fill="#e6818b"
         id="path5971" />
      <path
         d="m 131.17869,71.39255 c 0,0 -14.7686,-22.54156 -3.10918,-39.64205 11.65942,-17.10049 62.9609,-27.98262 126.6991,-27.20533 63.73819,0.77729 112.70779,14.76861 94.83,67.62468 0,0 -108.04402,45.86041 -218.41992,-0.77729 z"
         fill="#d3d2cf"
         id="path5973" />
      <path
         d="m 127.29222,33.30509 c 0,-0.7773 0.7773,-0.7773 0.7773,-1.55459 12.43672,-17.10049 62.9609,-27.98262 126.6991,-27.20533 42.75123,0.77729 78.5068,6.99566 91.72082,27.20533 -15.5459,6.21836 -43.52852,12.43672 -94.83,16.3232 -76.17491,6.21836 -109.5986,-6.21836 -124.36721,-14.7686 z"
         fill="#e5e4e1"
         id="path5975" />
      <path
         d="m 212.79468,5.32247 c -21.76426,9.32754 -65.29279,28.75992 -66.84738,34.20098 -3.10918,9.32754 -2.33188,27.20533 -1.55459,36.53287 -3.88647,-1.55459 -8.55025,-3.10918 -12.43672,-4.66377 -0.7773,-11.65942 -1.55459,-31.8691 5.44107,-38.08746 6.21836,-6.21836 29.53721,-17.10049 46.6377,-24.09614 8.55024,-1.55459 18.65509,-2.33189 28.75992,-3.88648 z"
         fill="#e6818b"
         id="path5977" />
      <path
         d="m 180.92558,42.63263 c -2.33188,8.55024 0,32.6464 1.55459,44.30582 -3.88647,-0.77729 -8.55025,-2.33189 -12.43672,-3.10918 -2.33188,-13.99131 -5.44107,-40.41934 2.33188,-48.19229 7.77295,-7.77295 47.415,-24.09615 66.07008,-31.0918 5.44107,0 10.88213,0 16.32319,0 1.55459,0 2.33188,0 3.88647,0 -21.76426,9.32754 -76.17491,31.8691 -77.7295,38.08746 z"
         fill="#e6818b"
         id="path5979" />
      <path
         d="m 301.40631,8.43165 c -24.87344,10.88213 -83.94787,35.75557 -85.50246,41.97393 -3.10918,10.10484 -1.55459,33.42369 -0.77729,40.41934 -3.88647,0 -7.77296,0 -11.65943,-0.77729 -1.55459,-9.32754 -4.66377,-38.08746 3.88647,-46.6377 8.55024,-8.55025 60.62902,-30.31451 78.50681,-37.31016 5.44106,0.77729 10.10484,1.5546 15.5459,2.33189 z"
         fill="#e6818b"
         id="path5981" />
      <path
         d="m 253.99131,54.29206 c -1.55459,6.99565 -0.77729,25.65074 0.7773,38.08746 -4.66377,0 -8.55025,0 -12.43672,0 -1.55459,-13.99131 -3.88647,-38.08746 3.10918,-45.08311 9.32754,-9.32754 61.40631,-29.53721 73.06573,-34.20098 3.88648,0.7773 6.99566,2.33189 10.10484,3.88648 -24.09614,9.32754 -73.84304,31.0918 -74.62033,37.31016 z"
         fill="#e6818b"
         id="path5983" />
      <path
         d="m 288.1923,87.71575 c -3.88648,0.77729 -7.77295,1.55459 -11.65942,2.33188 -0.77729,-10.88213 0.7773,-34.97828 8.55025,-42.75123 4.66377,-4.66377 31.8691,-17.87778 51.30147,-26.42803 2.33188,2.33188 4.66377,3.88648 6.99565,6.21836 -21.76426,10.10483 -51.30148,21.76426 -52.07877,25.65074 -2.33188,8.55025 -3.88647,25.65074 -3.10918,34.97828 z"
         fill="#e6818b"
         id="path5985" />
      <path
         d="m 253.99131,4.54517 c 24.87344,0.77729 47.415,3.10919 64.51549,8.55025 L 253.99131,4.54517 c 0,0 0.7773,0 0,0 z"
         fill="#e6818b"
         id="path5987" />
      <path
         d="m 285.08312,6.87706 c 5.44106,0.77729 10.10483,1.55459 14.7686,2.33189 0.77729,0 0.77729,0 0.77729,0 -1.55459,0.7773 -2.33188,0.77729 -3.88647,1.55459 l -15.5459,-2.33188 c 1.55459,-0.77729 3.10918,-1.55459 3.88648,-1.55459 z"
         fill="#d1303e"
         id="path5989" />
      <path
         d="m 226.00869,66.72878 c 61.40631,0 109.59861,-17.1005 125.9218,-23.31885 0.77729,3.10918 0.77729,6.21836 0.77729,9.32754 -21.76426,10.10484 -108.04401,44.30582 -226.97016,6.21836 -0.77729,-3.10918 -1.55459,-5.44106 -1.55459,-8.55024 13.99131,6.21836 46.63771,17.10049 101.82566,16.3232 z"
         fill="#e6818b"
         id="path5991" />
      <path
         d="m 290.52418,61.28771 c -0.77729,3.10918 -1.55459,6.99566 -1.55459,10.88213 -3.88648,0 -8.55024,0.7773 -12.43672,1.55459 0,-3.88648 0.7773,-6.99565 1.55459,-10.88213 3.88648,-0.7773 7.77295,-1.5546 12.43672,-1.5546 z"
         fill="#d1303e"
         id="path5993" />
      <path
         d="m 252.43672,76.05632 c -3.88647,0.77729 -8.55025,0.77729 -12.43672,0.77729 0,-3.88648 0,-6.99565 0,-10.10483 3.88647,0 8.55025,-0.77729 12.43672,-0.77729 0,3.10918 0,6.21836 0,10.10483 z"
         fill="#d1303e"
         id="path5995" />
      <path
         d="m 213.57197,76.05632 c -3.88647,0 -8.55025,0 -12.43672,-0.77729 0,-3.10918 0,-5.44107 0,-8.55025 3.88647,0 8.55025,0 12.43672,0 0,3.10918 0,6.21836 0,9.32754 z"
         fill="#d1303e"
         id="path5997" />
      <path
         d="m 167.71156,62.84231 c 3.88647,0.7773 7.77295,0.77729 11.65942,1.55459 0.7773,3.10918 0.7773,5.44106 0.7773,7.77295 -3.88647,-0.77729 -7.77295,-1.55459 -12.43672,-2.33188 0,-2.33188 0,-4.66377 0,-6.99565 z"
         fill="#d1303e"
         id="path5999" />
      <path
         d="m 144.39271,64.3969 c -4.66377,-1.55459 -8.55025,-2.33189 -12.43672,-3.88648 0,-2.33188 0,-4.66377 0,-6.99565 3.10918,0.7773 6.99565,2.33188 11.65942,3.88647 0,2.33188 0,4.66378 0.7773,6.99566 z"
         fill="#d1303e"
         id="path6001" />
      <path
         d="m 306.84738,85.38386 c 0,-10.10483 -0.77729,-34.97828 -9.32754,-34.97828 -10.10483,0 -143.02229,-7.77295 -173.3368,-9.32754 0.77729,-2.33188 0.77729,-3.88648 1.55459,-6.21836 34.20098,1.55459 172.55951,9.32754 178.77787,9.32754 10.88213,0 10.88213,29.53721 10.10483,38.86475 -2.33188,0.77729 -4.66377,1.55459 -7.77295,2.33188 z"
         fill="#e6818b"
         id="path6003" />
      <path
         d="m 303.7382,57.40124 c 3.10918,-0.7773 6.21836,-1.55459 9.32754,-2.33188 0.77729,3.88647 1.55459,6.99566 1.55459,10.88214 -2.33188,0.77729 -5.44106,1.55459 -8.55024,2.33188 -0.77729,-3.88648 -0.77729,-7.77296 -2.33188,-10.88214 z"
         fill="#d1303e"
         id="path6005" />
      <path
         d="m 283.52853,49.62829 c 0.77729,0 0.7773,-0.77729 1.55459,-1.55459 0.77729,-0.7773 3.10918,-2.33188 5.44106,-3.88647 8.55025,0.7773 13.99131,0.77729 14.7686,0.77729 h 0.7773 c -4.66377,2.33188 -8.55025,3.88648 -10.88213,5.44107 -3.10918,-0.7773 -6.99565,-0.7773 -11.65942,-0.7773 z"
         fill="#d1303e"
         id="path6007" />
      <path
         d="m 259.43237,48.85099 c -5.44107,0 -10.10483,-0.7773 -15.5459,-0.7773 0.7773,0 0.7773,-0.7773 0.7773,-0.7773 1.55459,-1.55459 4.66377,-3.88648 7.77295,-5.44107 6.21836,0 12.43672,0.7773 17.87779,0.7773 -4.66377,2.33188 -7.77296,3.88648 -10.88214,6.21836 z"
         fill="#d1303e"
         id="path6009" />
      <path
         d="m 205.02172,45.74181 c 0.7773,-0.7773 0.7773,-0.77729 1.55459,-1.55459 1.55459,-0.7773 3.88648,-2.33189 6.21837,-3.88648 6.21836,0 12.43672,0.7773 17.87778,0.7773 -3.88647,1.55459 -7.77295,3.88648 -10.10484,5.44107 -4.66377,-0.7773 -10.10484,-0.7773 -15.54591,-0.7773 z"
         fill="#d1303e"
         id="path6011" />
      <path
         d="m 185.58935,37.96886 c -3.10918,2.33188 -5.44107,3.88647 -5.44107,4.66377 0,0.7773 0,0.7773 0,1.55459 -3.88647,0 -7.77295,-0.7773 -11.65942,-0.7773 0.7773,-2.33188 1.55459,-4.66377 3.10918,-6.21836 4.66377,0.7773 9.32754,0.7773 13.99131,0.7773 z"
         fill="#d1303e"
         id="path6013" />
      <path
         d="m 149.05648,37.19156 c -1.55459,0.7773 -3.10918,2.33188 -3.10918,3.10918 -0.7773,0.7773 -0.7773,1.55459 -0.7773,2.33188 -4.66377,0 -8.55024,-0.7773 -12.43672,-0.7773 0.7773,-2.33188 1.55459,-4.66377 2.33188,-6.21836 4.66377,0 9.32754,0 13.99131,1.55459 z"
         fill="#d1303e"
         id="path6015" />
      <path
         d="m 334.05271,78.38821 c -2.33188,0.77729 -5.44107,1.55459 -8.55025,2.33188 0,-8.55025 -1.55459,-39.64205 -7.77295,-41.19664 C 290.52418,31.7505 150.61107,27.08673 133.51058,26.30944 c 4.66377,-3.10918 10.88213,-6.21836 18.65508,-9.32754 47.415,3.88648 161.67738,13.99131 172.55951,16.32319 10.88213,2.33188 10.10483,33.42369 9.32754,45.08312 z"
         fill="#e6818b"
         id="path6017" />
      <path
         d="m 302.18361,36.41427 c 3.10918,-1.55459 6.99565,-3.10918 10.10483,-4.66377 6.21836,0.77729 10.10484,1.55459 11.65943,1.55459 1.55459,0 2.33188,0.77729 3.10918,1.55459 -3.10918,1.55459 -6.99566,3.10918 -10.10484,4.66377 -3.10918,-1.55459 -7.77295,-2.33188 -14.7686,-3.10918 z"
         fill="#d1303e"
         id="path6019" />
      <path
         d="m 268.75992,33.30509 c 3.88648,-1.55459 6.99565,-3.10918 10.88213,-4.66377 6.21836,0.77729 11.65943,0.7773 17.10049,1.55459 -3.10918,1.55459 -6.99566,3.10918 -10.10484,4.66377 -5.44106,-0.7773 -11.65942,-0.77729 -17.87778,-1.55459 z"
         fill="#d1303e"
         id="path6021" />
      <path
         d="m 230.67246,30.19591 c 3.88647,-1.55459 8.55025,-3.88648 12.43672,-5.44107 5.44107,0.77729 11.65942,0.7773 17.10049,1.55459 -3.88648,2.33188 -7.77295,3.88647 -11.65943,5.44106 -6.21836,0 -12.43672,-0.77729 -17.87778,-1.55459 z"
         fill="#d1303e"
         id="path6023" />
      <path
         d="m 217.45845,22.42296 c -4.66377,1.55459 -9.32755,3.88648 -13.99132,6.21836 -6.21836,0 -12.43672,-0.77729 -18.65508,-0.77729 3.88647,-2.33188 9.32754,-4.66377 14.76861,-6.99566 5.44107,0.77729 11.65943,1.55459 17.87779,1.55459 z"
         fill="#d1303e"
         id="path6025" />
      <path
         d="m 146.72459,27.08673 c 4.66377,-3.10918 10.88214,-6.21836 17.10049,-9.32754 5.44107,0.77729 11.65942,0.7773 17.87778,1.55459 -6.21836,2.33188 -11.65942,5.44106 -17.10049,7.77295 -6.99565,0 -13.21402,0 -17.87779,0 z"
         fill="#d1303e"
         id="path6027" />
      <path
         d="m 323.17057,53.51476 c 3.10918,-0.7773 6.99566,-2.33188 10.10484,-3.10918 0.77729,3.10918 0.77729,6.99565 0.77729,10.10484 -3.10918,0.7773 -6.21836,2.33189 -10.10483,3.10918 0,-3.88647 -0.7773,-6.99566 -0.7773,-10.10484 z"
         fill="#d1303e"
         id="path6029" />
      <path
         d="m 344.15754,74.50173 c 1.55459,-38.08746 -6.99565,-47.415 -13.99131,-51.30147 -6.21836,-3.10918 -118.92614,-9.32754 -157.7909,-11.65942 10.10484,-2.33188 22.54156,-4.66377 35.75557,-5.44107 37.31016,3.10918 94.83001,7.77296 121.25804,11.65943 8.55025,3.88648 14.7686,9.32754 18.65508,15.5459 1.55459,12.43672 0.77729,30.31451 0.77729,38.86475 0,0.77729 -2.33188,1.55459 -4.66377,2.33188 z"
         fill="#e6818b"
         id="path6031" />
      <path
         d="m 342.60295,27.08673 c -2.33188,1.55459 -3.88648,2.33189 -6.21836,3.10918 -1.55459,-3.10918 -3.88648,-4.66377 -6.21836,-6.21836 1.55459,-0.77729 3.88648,-1.55459 5.44107,-2.33188 1.55459,0.77729 3.10918,1.55459 3.88647,2.33188 0.77729,0.77729 0.7773,0.77729 1.55459,1.55459 0.77729,0.77729 1.55459,1.55459 1.55459,1.55459 z"
         fill="#d1303e"
         id="path6033" />
      <path
         d="m 311.51115,15.42731 c 5.44106,0 10.88214,0.7773 15.54591,1.55459 -2.33188,0.77729 -6.21837,2.33188 -9.32754,3.88647 -4.66377,-0.77729 -10.10484,-0.77729 -17.10049,-1.55459 3.88648,-1.55459 7.77295,-3.10918 10.88213,-3.88648 z"
         fill="#d1303e"
         id="path6035" />
      <path
         d="m 273.42369,11.54083 c 5.44106,0.7773 10.88213,0.7773 16.32319,2.33188 -3.10918,1.55459 -6.99565,3.10918 -10.88213,4.66377 -5.44106,-0.77729 -11.65943,-0.77729 -17.87779,-1.55459 3.88648,-2.33188 8.55025,-3.88648 12.43673,-5.44107 z"
         fill="#d1303e"
         id="path6037" />
      <path
         d="m 208.9082,6.09976 c 1.55459,0 2.33188,0 3.10918,0 -4.66377,1.55459 -9.32754,3.88648 -14.7686,6.21837 -6.99565,0 -13.21401,-0.7773 -18.65508,-0.7773 1.55459,-0.7773 3.88647,-1.55459 6.21836,-2.33188 -0.7773,0 -0.7773,0 0,0 6.99565,-1.55459 15.5459,-2.33189 24.09615,-3.10918 z"
         fill="#d1303e"
         id="path6039" />
      <path
         d="m 247.77295,9.20895 c -3.88647,1.55459 -8.55025,3.10918 -13.21402,5.44107 -6.21836,0 -12.43672,-0.7773 -18.65508,-0.7773 5.44107,-2.33188 10.10484,-4.66377 14.76861,-6.21836 5.44107,0.77729 10.88213,1.55459 17.10049,1.55459 z"
         fill="#d1303e"
         id="path6041" />
      <path
         d="m 343.38025,47.2964 c 2.33188,-0.7773 4.66377,-1.55459 6.21836,-2.33188 0,3.10918 0,6.21836 0,9.32754 -2.33188,0.7773 -3.88648,1.55459 -6.21836,2.33188 0,-3.88647 -0.77729,-6.99565 0,-9.32754 z"
         fill="#d1303e"
         id="path6043" />
      <path
         d="m 296.74254,97.82058 c -15.5459,-3.88648 -27.98263,3.88647 -43.52853,7.77295 -14.76861,3.88648 -11.65942,-3.10918 -31.86909,-3.88648 -20.20967,0 -25.65074,10.10483 -45.86041,9.32754 -20.20967,-0.77729 -26.42804,-19.43237 -41.97394,-17.10049 -11.65942,1.55459 -20.20967,-8.55025 -24.87344,-17.10049 3.10918,-1.55459 6.21836,-3.10918 9.32754,-4.66377 6.21836,8.55025 13.21402,11.65942 21.76426,10.88213 11.65942,0 31.0918,13.99131 38.08746,19.43238 6.99565,5.44106 31.0918,-10.88213 49.74688,-6.99565 18.65508,3.88648 27.20533,3.10918 40.41934,-3.10918 12.43672,-6.21836 45.86041,-3.88647 62.9609,-3.10918 11.65942,0.77729 22.54155,-9.32754 27.20532,-15.5459 3.88648,2.33188 6.99566,4.66377 10.10484,6.21836 -19.43237,19.43237 -56.74254,21.76426 -71.51114,17.87779 z"
         fill="#e6818b"
         id="path6045" />
      <path
         d="m 233.00435,104.03894 c -2.33188,-0.77729 -6.21836,-1.55459 -11.65942,-1.55459 l 2.33188,-7.77295 c 1.55459,0 2.33188,0.7773 3.88647,0.7773 3.10918,0.77729 5.44107,1.55459 7.77295,1.55459 z"
         fill="#d1303e"
         id="path6047" />
      <path
         d="m 191.80771,100.92976 c 3.88647,-0.77729 8.55024,-2.33188 13.21401,-3.88648 l -3.10918,8.55025 c -3.88647,1.55459 -8.55025,3.10918 -13.21402,4.66377 z"
         fill="#d1303e"
         id="path6049" />
      <path
         d="m 156.05213,104.81624 7.77295,-11.65943 c 3.10918,2.33188 6.21836,3.88648 9.32754,6.21836 l -6.21836,10.88213 c -3.88647,-1.55459 -7.77295,-3.88647 -10.88214,-5.44106 z"
         fill="#d1303e"
         id="path6051" />
      <path
         d="m 149.83377,86.16116 -9.32754,9.32754 c -2.33188,-0.77729 -4.66377,-0.7773 -6.99565,-0.7773 -1.55459,0.77729 -3.88647,0 -5.44106,0 l 12.43672,-10.88213 c 2.33188,-0.77729 6.21836,0.77729 9.32754,2.33188 z"
         fill="#d1303e"
         id="path6053" />
      <path
         d="m 108.63714,77.61091 c 0,-0.77729 0.77729,-0.7773 0.77729,-0.7773 1.55459,-0.77729 2.33189,-1.55459 3.10918,-1.55459 0.77729,-0.77729 0.77729,-0.7773 1.55459,-0.7773 0.77729,-0.77729 2.33189,-1.55459 3.10918,-2.33188 0.77729,0 0.77729,0 0.77729,0 1.55459,3.10918 3.88648,4.66377 6.21836,6.21836 l -9.32754,7.77295 c -2.33188,-2.33188 -4.66377,-6.21836 -6.21836,-8.55024 z"
         fill="#d1303e"
         id="path6055" />
      <path
         d="m 362.03533,86.16116 c -3.10918,1.55459 -5.44107,3.10918 -8.55025,4.66377 l -6.99565,-5.44106 c 2.33188,-1.55459 4.66377,-3.10918 6.21836,-4.66377 z"
         fill="#d1303e"
         id="path6057" />
      <path
         d="m 314.62032,88.49304 c 3.10918,0 6.99566,0.7773 10.10484,0.7773 l 4.66377,8.55025 c -3.10918,0.77729 -6.99566,1.55459 -10.10484,1.55459 z"
         fill="#d1303e"
         id="path6059" />
      <path
         d="m 299.85172,88.49304 1.55459,10.88213 c -1.55459,0 -3.10918,-0.77729 -4.66377,-0.77729 -1.55459,-0.77729 -2.33188,-0.77729 -3.88648,-0.77729 l -0.77729,-9.32754 c 3.10918,0 5.44106,0 7.77295,0 z"
         fill="#d1303e"
         id="path6061" />
      <path
         d="m 256.3232,97.04329 c 3.10918,-0.77729 6.21836,-2.33188 10.10483,-3.88648 l 0.7773,9.32754 c -3.88648,1.55459 -7.77295,3.10918 -11.65943,3.88647 z"
         fill="#d1303e"
         id="path6063" />
      <path
         d="m 128.06951,64.3969 c 0,0 40.41934,27.20533 111.15319,24.87344 70.73385,-2.33188 111.93049,-24.09615 111.93049,-24.09615 0,0 1.55459,0.7773 1.55459,5.44107 0,0 -69.17926,28.75991 -125.14451,24.09614 C 145.94729,87.71575 125.73762,68.28337 125.73762,68.28337 Z"
         fill="#c6aa8b"
         id="path6065" />
      <path
         d="m 201.91254,205.43273 c 0,-4.29292 3.48002,-7.77295 7.77295,-7.77295 4.29292,0 7.77296,3.48002 7.77296,7.77295 0,4.29292 -3.48003,7.77295 -7.77296,7.77295 -4.29292,0 -7.77295,-3.48003 -7.77295,-7.77295 z"
         fill="#cf2f51"
         id="path6067" />
      <path
         d="m 272.73275,195.93248 c 0,-4.29292 3.48002,-7.77295 7.77295,-7.77295 4.29293,0 7.77295,3.48003 7.77295,7.77295 0,4.29292 -3.48003,7.77295 -7.77295,7.77295 -4.29293,0 -7.77295,-3.48002 -7.77295,-7.77295 z"
         fill="#cf2f51"
         id="path6069" />
      <path
         d="m 247.6866,251.20686 c 0,-4.29292 3.48002,-7.77295 7.77295,-7.77295 4.29293,0 7.77295,3.48003 7.77295,7.77295 0,4.29292 -3.48002,7.77295 -7.77295,7.77295 -4.29292,0 -7.77295,-3.48002 -7.77295,-7.77295 z"
         fill="#cf2f51"
         id="path6071" />
      <path
         d="m 144.91093,206.29646 c 0,-4.29292 3.48002,-7.77295 7.77295,-7.77295 4.29292,0 7.77295,3.48003 7.77295,7.77295 0,4.29292 -3.48003,7.77295 -7.77295,7.77295 -4.29292,0 -7.77295,-3.48003 -7.77295,-7.77295 z"
         fill="#cf2f51"
         id="path6073" />
    </g>
  </g>
</svg>
