<svg xmlns="http://www.w3.org/2000/svg" width="130.756" height="146.832" viewBox="0 0 10.46 11.747" xmlns:v="https://vecta.io/nano"><path d="M1.26 1.417c.164.016.666.614.89.838s.275.399.533.499.281.11.299.076a2.46 2.46 0 0 0 .052-.257s-.291-.076-.333-.184.598-1.795.724-1.861.289 0 .265.066-.782 1.646-.732 1.704a.571.571 0 0 0 .158.108s.134-.199.199-.199a.73.73 0 0 1 .233.118s.058-.16.158-.134a.525.525 0 0 1 .199.15s.026-.108.11-.066l.63.349A1.995 1.995 0 0 1 5.158.643C6.039-.221 6.953-.139 7.95.443s.824 1.58.816 1.995-.399.971-.848 1.305-.632.331-.632.331.682.199.674.323a2.94 2.94 0 0 1-.259.567 2.683 2.683 0 0 0 .816.549c.565.265 1.512.449 1.72.68a1.123 1.123 0 0 1 .076 1.231c-.257.515-.64.575-1.281.299s-.856-.515-1.197-.614a3.415 3.415 0 0 1-.612-.215c-.15-.074-.241-.357-.349-.265a7.865 7.865 0 0 0-.798 1.305 15.336 15.336 0 0 0-.734 1.528c-.092.265-.523 1.354-.732 1.638s-.399.63-.58.648-1.055-.375-1.197-.467-.399-.265-.307-.499.83-1.668 1.013-2.118.283-.598.223-.656-.399-.11-.449 0l-1.077 2.328c-.199.339-.666.399-1.131.199s-.84-.58-.89-.73a.664.664 0 0 1 0-.457c.058-.142.706-1.181.824-1.464a3.652 3.652 0 0 1 .423-.772c.142-.184.624-1.115.965-1.714s.399-.83.339-.864a2.693 2.693 0 0 0-.73-.223c-.199 0-.598.032-.716-.068a15.837 15.837 0 0 1-.922-1.396c-.249-.399-.457-.565-.383-.78a1.137 1.137 0 0 1 .598-.549 1.315 1.315 0 0 1 .646-.1z" fill="#1d1d1b"/><path d="M1.144 1.832a.555.555 0 0 1 .273.199c.092.116.341.399.267.449l-.541.357c-.124.1-.142.225-.199.168s-.499-.758-.483-.874.225-.375.682-.299z" fill="#85bfe9"/><path d="M1.8 2.678c.046 0 .341.383.848.523a5.661 5.661 0 0 0 1.339.283l.997-.016c.066.026 0 .273.698.507a4.277 4.277 0 0 0 1.097.199c.034.034.433.94.674 1.181s1.396.68 1.354.756a6.982 6.982 0 0 0-.257.69c-.026.1 0 .158-.076.14s-.756-.289-.848-.331-.158-.018-.265-.15-.299-.507-.433-.517a.277.277 0 0 0-.265.126c-.042.074-.559.814-.716 1.105s-.531 1.247-.63 1.396-.142.341-.184.315a6.541 6.541 0 0 0-.598-.373c-.074-.018-.433-.108-.415-.15s.265-.483.108-.598a3.541 3.541 0 0 0-.882-.275c-.1-.024-.373.435-.373.435a6.968 6.968 0 0 0-.632-.433c-.199-.108-.541-.174-.525-.231s.866-1.596 1.081-1.963.483-.856.291-.956a5.518 5.518 0 0 0-1.073-.315 1.043 1.043 0 0 1-.449-.034c-.09-.058-.598-.698-.557-.814a2.216 2.216 0 0 1 .69-.501z" fill="#cbe7f5"/><path d="M3.33 2.446c.06 0 .092 0 .074.092s-.074.399-.108.383-.142-.018-.124-.05a3.234 3.234 0 0 1 .158-.425zm.381-.016s.142.034.126.066-.1.483-.142.475-.1 0-.108-.034.124-.507.124-.507z" fill="#f2910d"/><path d="M4.053 2.572c.054-.042.582.231.632.291s.124.166.084.174-.425.016-.567.026-.291 0-.281-.034a2.138 2.138 0 0 1 .132-.457z" fill="#e7413e"/><path d="M6.347.451C6.917.344 7.528.609 8 .95s.559 1.097.367 1.654-.706 1.097-1.344 1.147-1.197-.058-1.664-.539-.331-1.506-.132-1.905A1.56 1.56 0 0 1 6.347.451z" fill="#85bfe9"/><path d="M5.916.926a6.425 6.425 0 0 0 1.337.68c.74.267 1.039.349 1.031.459S8.22 3.077 7.502 3.42a1.739 1.739 0 0 1-1.935-.283c-.483-.433-.409-1.071-.184-1.554S5.874.9 5.916.926z" fill="#1d1d1b"/><path d="M6.025 1.441c.088.02.557.275 1.071.499s.798.265.782.365a1.396 1.396 0 0 1-.517.74c-.315.199-.706.249-1.197-.05s-.515-.598-.457-.922.231-.648.317-.632z" fill="#1f4863"/><path d="M6.845 2.079c.1.066.341.365.283.423s-.034.134-.134.092a.997.997 0 0 1-.331-.423c.016-.056.182-.092.182-.092zm-.472.176c.024-.01.449.533.399.598s-.158.126-.184.108-.431-.549-.399-.598.116-.074.184-.108z" fill="#1d1d1b"/><path d="M7.312 4.273c-.032-.032.373.108.357.184s0 .257-.084.223-.257-.389-.273-.407z" fill="#e7413e"/><path d="M9.065 6.212c.034-.016.78.199.898.349s.058.499-.05.69-.158.213-.283.213a3.391 3.391 0 0 1-.84-.365c-.05-.058.199-.856.275-.888z" fill="#85bfe9"/><path d="M4.244 4.1c.064-.04 1.903.84 1.879.981s-.598 1.504-.798 1.572-1.745-.698-1.795-.848.622-1.646.714-1.706z" fill="#1d1d1b"/><path d="M4.344 4.409c.04-.016 1.522.664 1.504.738s-.598 1.231-.63 1.231-1.386-.64-1.386-.708.447-1.237.513-1.261z" fill="#e7413e"/><path d="M5.038 5.071c.062-.126.243-.174.459 0s-.126.565-.369.399-.126-.321-.09-.399zm-.209.627c.052-.104.199-.144.381 0s-.104.469-.307.323-.104-.265-.074-.323zm.997.895s.142.199.1.275-.066.134-.108.1a.45.45 0 0 1-.118-.233c.016-.05.126-.142.126-.142zm-.419.26c.034.024.249.373.199.457s-.05.1-.09.1a1.31 1.31 0 0 1-.289-.441c0-.042.18-.116.18-.116zm-.315.239c.05.018.365.467.341.541a.46.46 0 0 1-.1.15s-.441-.531-.399-.58a.53.53 0 0 1 .158-.11zm-.291.234s.441.574.399.664 0 .11-.082.092-.517-.557-.475-.616a.94.94 0 0 1 .158-.14z" fill="#1d1d1b"/><path d="M1.717 7.451c.028-.034.275.15.383.223a.477.477 0 0 0 .241.126.465.465 0 0 1 .241.124c.074.058.291.142.265.184s-.299.78-.357.906l-.134.257s-.024.05-.1-.05-.221-.273-.291-.273-.182.1-.273.032-.233-.415-.333-.441-.174.026-.174-.032a10.443 10.443 0 0 1 .531-1.055zm2.362 1.137a1.382 1.382 0 0 1 .423.16c.176.09.199.199.341.265s.215.042.215.108-.299.848-.365.856a.997.997 0 0 1-.449-.092c-.084-.066-.158-.231-.273-.215a.934.934 0 0 1-.299 0c-.084-.016-.15-.024-.126-.108s.457-.956.533-.973z" fill="#85bfe9"/><g fill="#1d1d1b"><path d="M4.278 8.963c.076 0 .092.074.199.092s.158.032.14.082-.024.134-.066.11a.479.479 0 0 0-.174-.092c-.068 0-.15-.018-.16-.05a.221.221 0 0 1 .06-.142zm-.299.349c.066 0 .092.092.199.124s.182.018.166.092 0 .134-.058.118-.15-.092-.233-.11-.132.018-.158-.058a.158.158 0 0 1 .084-.166zM2.158 7.95c.042 0 0 .058.118.1s.182.058.166.1-.034.09-.084.09a.772.772 0 0 1-.199-.074c-.084-.034-.1-.042-.1-.076a.327.327 0 0 1 .1-.14z"/><path d="M1.637 8.139c.054-.052.116.176.249.217s.199.05.215.092.034.124-.024.14a.249.249 0 0 1-.225-.058c-.092-.066-.158-.174-.241-.199s-.116 0-.108-.04.114-.126.134-.152z"/></g><path d="M1.094 8.706c.036-.036.215-.05.249.042s.042.423.215.473.233-.116.341-.034.134.184.199.199.15.024.142.058-.323.622-.465.714-.275.1-.64-.092-.525-.305-.497-.497.399-.806.455-.864zm2.338 1.079c.054-.052.05.15.199.16s.215-.034.325 0 .132.182.307.215.323.066.315.1-.549 1.047-.614 1.039a6.82 6.82 0 0 1-.684-.243c-.199-.084-.275-.184-.257-.257a8.957 8.957 0 0 1 .409-1.013z" fill="#cbe7f5"/></svg>