<svg width="113.748" height="139.997" viewBox="0 0 145.597 179.196" class="prefix__icon" xmlns="http://www.w3.org/2000/svg"><path d="M16.564 54.8a16.755 16.755 0 003.232 19.073 16.755 16.755 0 0019.073 3.23z" fill="#eaca44"/><path d="M63.352 30.317a44.8 44.8 0 00-63.352 0l63.352 63.351a44.788 44.788 0 000-63.351z" fill="#ef4d4d"/><path d="M63.352 30.317a44.39 44.39 0 0111.563 20.109l12.197-12.191A22.4 22.4 0 0055.433 6.556l-12.19 12.197a44.39 44.39 0 0120.109 11.564z" fill="#ef4d4d"/><path d="M47.728 14.267l-4.486 4.486v.006a44.446 44.446 0 0110.304 4.171c.297.168.583.348.874.521a44.052 44.052 0 013.662 2.425c.37.269.75.532 1.114.818 1.44 1.125 2.834 2.312 4.15 3.628 1.316 1.316 2.503 2.71 3.623 4.15.291.364.555.745.818 1.114a46.52 46.52 0 012.424 3.663c.168.296.348.582.521.873a44.447 44.447 0 014.172 10.304h.006l4.486-4.486a50.091 50.091 0 00-12.09-19.582 49.89 49.89 0 00-19.578-12.09z"/><path d="M66.42 90.28l.028-.033c9.274-11.385 11.995-26.23 8.395-39.743l12.336-12.342a22.344 22.344 0 00.639-30.9 25.076 25.076 0 01-7.034 21.453s-8.685 8.86-10.489 10.657c-.006 15.758-6.792 30.385-18.82 42.413l11.877 11.878a42.447 42.447 0 003.068-3.383z"/><path d="M72.799 151.196a28 28 0 00-28 28h56a28 28 0 00-28-28z" fill="#dae2e5"/><path d="M128.797 92.397a8.4 8.4 0 1016.8 0 8.4 8.4 0 10-16.8 0zM134.297 78.705L94.089 38.498a28 28 0 01-3.018 3.696l-4.558 4.558 38.628 38.629a14 14 0 019.156-6.676zm-9.207 20.602L73.168 151.23a27.787 27.787 0 0112.572 3.264l48.445-48.444a13.955 13.955 0 01-9.095-6.743z" fill="#434854"/><path d="M73.163 151.235l.056.006c1.4.023 2.75.18 4.082.41.756.122 1.49.268 2.217.453.47.117.93.285 1.39.425a27.887 27.887 0 014.826 1.971l4.178-4.177a33.303 33.303 0 00-11.603-4.234z"/></svg>