<?xml version="1.0" encoding="UTF-8" standalone="no"?>
<!-- Uploaded to: SVG Repo, www.svgrepo.com, Generator: SVG Repo Mixer Tools -->

<svg
   width="113.74786"
   height="139.99652"
   viewBox="0 0 145.59726 179.19555"
   class="icon"
   version="1.1"
   id="svg384"
   sodipodi:docname="table-lamp-simple-svgrepo-com.svg"
   inkscape:version="1.2.2 (732a01da63, 2022-12-09)"
   xmlns:inkscape="http://www.inkscape.org/namespaces/inkscape"
   xmlns:sodipodi="http://sodipodi.sourceforge.net/DTD/sodipodi-0.dtd"
   xmlns="http://www.w3.org/2000/svg"
   xmlns:svg="http://www.w3.org/2000/svg">
  <defs
     id="defs388" />
  <sodipodi:namedview
     id="namedview386"
     pagecolor="#ffffff"
     bordercolor="#000000"
     borderopacity="0.25"
     inkscape:showpageshadow="2"
     inkscape:pageopacity="0.0"
     inkscape:pagecheckerboard="0"
     inkscape:deskcolor="#d1d1d1"
     showgrid="false"
     inkscape:zoom="1.04625"
     inkscape:cx="324.97013"
     inkscape:cy="400.4779"
     inkscape:window-width="1920"
     inkscape:window-height="1017"
     inkscape:window-x="1912"
     inkscape:window-y="-8"
     inkscape:window-maximized="1"
     inkscape:current-layer="svg384" />
  <path
     d="m 16.56449,54.799494 a 16.754884,16.754884 0 0 0 3.23114,19.073241 16.754884,16.754884 0 0 0 19.07324,3.231139 z"
     fill="#eaca44"
     id="path366"
     style="stroke-width:0.174997" />
  <path
     d="m 63.35161,30.316756 a 44.799156,44.799156 0 0 0 -63.35161,0 l 63.35161,63.351606 a 44.787956,44.787956 0 0 0 0,-63.351606 z"
     fill="#ef4d4d"
     id="path368"
     style="stroke-width:0.174997" />
  <path
     d="M 63.35161,30.316756 A 44.390363,44.390363 0 0 1 74.91539,50.425977 L 87.11196,38.235007 A 22.400155,22.400155 0 0 0 55.43336,6.5564032 L 43.24239,18.752974 a 44.390363,44.390363 0 0 1 20.10922,11.563782 z"
     fill="#ef4d4d"
     id="path370"
     style="stroke-width:0.174997" />
  <path
     d="m 47.7279,14.267458 -4.48551,4.485516 v 0.0056 a 44.446362,44.446362 0 0 1 10.3038,4.171921 c 0.2968,0.167997 0.58239,0.347193 0.87358,0.52079 1.25438,0.744786 2.46956,1.545571 3.66234,2.424754 0.36959,0.268795 0.75038,0.53199 1.11437,0.817585 1.43918,1.125579 2.83355,2.312756 4.14953,3.628732 1.31597,1.315975 2.50315,2.710349 3.62313,4.149521 0.29119,0.363994 0.55439,0.744786 0.81758,1.114379 0.87359,1.192778 1.67997,2.413555 2.42476,3.662331 0.16799,0.296795 0.34719,0.582389 0.52079,0.873584 1.83676,3.281538 3.22554,6.742273 4.17192,10.303806 h 0.006 L 79.3957,45.940461 A 50.091056,50.091056 0 0 0 67.30513,26.35763 49.88946,49.88946 0 0 0 47.7279,14.267458 Z"
     fill=""
     id="path372"
     style="stroke-width:0.174997" />
  <path
     d="m 66.42035,90.280426 0.028,-0.0336 C 75.72177,78.862241 78.44332,64.016921 74.84259,50.504375 L 87.17916,38.162208 A 22.343579,22.343579 0 0 0 87.81755,7.2619899 25.076327,25.076327 0 0 1 80.78408,28.715186 c 0,0 -8.68544,8.859033 -10.4886,10.656599 -0.006,15.758103 -6.79268,30.385027 -18.82125,42.413601 l 11.87738,11.877376 a 42.4472,42.4472 0 0 0 3.06874,-3.382336 z"
     fill=""
     id="path374"
     style="stroke-width:0.174997" />
  <path
     d="M 72.79863,151.19608 A 27.999472,27.999472 0 0 0 44.79916,179.19555 H 100.7981 A 27.999472,27.999472 0 0 0 72.79863,151.19608 Z"
     fill="#dae2e5"
     id="path376"
     style="stroke-width:0.174997" />
  <path
     d="m 137.19741,92.397186 m -8.39984,0 a 8.399845,8.399845 0 1 0 16.79969,0 8.399845,8.399845 0 1 0 -16.79969,0 z"
     fill="#434854"
     id="path378"
     style="stroke-width:0.174997" />
  <path
     d="M 134.29667,78.705444 94.08943,38.498202 a 27.999472,27.999472 0 0 1 -3.01835,3.69593 l -4.55831,4.558314 38.62807,38.628072 a 13.999736,13.999736 0 0 1 9.15583,-6.675074 z m -9.20623,20.602012 -51.92222,51.922224 a 27.786676,27.786676 0 0 1 12.57176,3.26474 l 48.44469,-48.44469 a 13.954937,13.954937 0 0 1 -9.09423,-6.742274 z"
     fill="#434854"
     id="path380"
     style="stroke-width:0.174997" />
  <path
     d="m 73.16262,151.23528 0.056,0.006 c 1.39997,0.0224 2.74955,0.1792 4.08232,0.40879 0.75599,0.1232 1.48958,0.2688 2.21756,0.45359 0.47039,0.1176 0.92958,0.2856 1.38878,0.42559 a 27.887474,27.887474 0 0 1 4.8271,1.97117 l 4.17753,-4.17752 a 33.302572,33.302572 0 0 0 -11.60299,-4.23352 z"
     fill=""
     id="path382"
     style="stroke-width:0.174997" />
</svg>
