<svg version="1.1" xmlns="http://www.w3.org/2000/svg" xmlns:xlink="http://www.w3.org/1999/xlink" width="140" height="140" viewBox="0,0,140,140"><g transform="translate(-170,-110)"><g data-paper-data="{&quot;isPaintingLayer&quot;:true}" fill-rule="nonzero" stroke="none" stroke-width="1" stroke-linecap="butt" stroke-linejoin="miter" stroke-miterlimit="10" stroke-dasharray="" stroke-dashoffset="0" style="mix-blend-mode: normal"><path d="M282,156.66667v-14h18.66667v14z" fill="#b49313"/><path d="M282,156.66667v-14h11.66667v14z" fill="#f0c419"/><path d="M179.33333,156.66667v-14h18.66667v14z" fill="#b49313"/><path d="M179.33333,156.66667v-14h11.66667v14z" fill="#f0c419"/><path d="M216.66667,240.66667v-107.33334h46.66667v107.33334z" fill="#cccccc"/><path d="M216.66667,240.66667v-107.33334h39.66667v107.33334z" fill="#f2f2f2"/><path d="M228.33333,203.33333v-9.33333h23.33333v9.33333z" fill="#b49313"/><path d="M228.33333,203.33333v-9.33333h16.33333v9.33333z" fill="#f0c419"/><path d="M226,240.66667v-14c0,-7.73199 6.26801,-14 14,-14v0c7.73199,0 14,6.26801 14,14v14" fill="#98856e"/><path d="M247,226.66667v14h-21v-14c0.01007,-6.37574 4.3267,-11.9394 10.5,-13.53333c6.1733,1.59393 10.48993,7.15759 10.5,13.53333z" fill="#cbb292"/><path d="M263.33333,240.66667v-70h37.33333v70z" fill="#cccccc"/><path d="M263.33333,240.66667v-70h30.33333v70z" fill="#f2f2f2"/><path d="M179.33333,240.66667v-70h37.33333v70z" fill="#cccccc"/><path d="M179.33333,240.66667v-70h30.33333v70z" fill="#f2f2f2"/><path d="M179.33333,240.66667v-9.33333h37.33333v9.33333z" fill="#993839"/><path d="M179.33333,240.66667v-9.33333h30.33333v9.33333z" fill="#cc4b4c"/><path d="M263.33333,240.66667v-9.33333h37.33333v9.33333z" fill="#993839"/><path d="M263.33333,240.66667v-9.33333h30.33333v9.33333z" fill="#cc4b4c"/><path d="M188.66667,194v-14h9.33333v14z" fill="#b0d3f0"/><path d="M198,194v-14h9.33333v14z" fill="#849eb4"/><path d="M198,208v-14h9.33333v14z" fill="#b0d3f0"/><path d="M188.66667,208v-14h9.33333v14z" fill="#849eb4"/><path d="M188.66667,222v-14h9.33333v14z" fill="#b0d3f0"/><path d="M198,222v-14h9.33333v14z" fill="#849eb4"/><path d="M272.66667,222v-14h9.33333v14z" fill="#849eb4"/><path d="M282,222v-14h9.33333v14z" fill="#b0d3f0"/><path d="M282,208v-14h9.33333v14z" fill="#849eb4"/><path d="M272.66667,208v-14h9.33333v14z" fill="#b0d3f0"/><path d="M272.66667,194v-14h9.33333v14z" fill="#849eb4"/><path d="M282,194v-14h9.33333v14z" fill="#b0d3f0"/><path d="M226,156.66667c0,-7.73199 6.26801,-14 14,-14c7.73199,0 14,6.26801 14,14c0,7.73199 -6.26801,14 -14,14c-7.73199,0 -14,-6.26801 -14,-14z" fill="#559264"/><path d="M226,156.66667c0,-7.47425 4.70101,-13.53333 10.5,-13.53333c5.79899,0 10.5,6.05908 10.5,13.53333c0,7.47425 -4.70101,13.53333 -10.5,13.53333c-5.79899,0 -10.5,-6.05908 -10.5,-13.53333z" fill="#71c285"/><path d="M216.66667,133.33333l23.33333,-23.33333l23.33333,23.33333" fill="#993839"/><path d="M236.5,113.5l19.83333,19.83333h-39.66667z" fill="#cc4b4c"/><path d="M170,250v-9.33333h140v9.33333z" fill="#5f443e"/><path d="M170,250v-9.33333h133v9.33333z" fill="#7f5b53"/><path d="M242.33333,231.33333v-4.66667h4.66667v4.66667z" fill="#999999"/><path d="M243.01,162.99l-4.66667,-4.66667c-0.43677,-0.44034 -0.68025,-1.03646 -0.67667,-1.65667v-7h4.66667v6.04333l3.99,3.96667z" fill="#999999"/><path d="M195.66667,170.66667v-28h4.66667v28z" fill="#999999"/><path d="M279.66667,170.66667v-28h4.66667v28z" fill="#999999"/></g></g></svg>