<svg width="140" height="140" viewBox="0 0 11.2 11.2" version="1.1" id="prefix__svg1257" xmlns="http://www.w3.org/2000/svg"><defs id="prefix__defs1182"><style id="style1180">.prefix__cls-4{fill:#98856e}.prefix__cls-5{fill:#cbb292}.prefix__cls-8{fill:#559264}.prefix__cls-10{fill:#993839}.prefix__cls-11{fill:#cc4b4c}.prefix__cls-12{fill:#e0e0e0}</style></defs><g data-name="Layer 6" id="prefix__Layer_6" transform="matrix(.18667 0 0 .18667 -.373 -.373)"><path id="prefix__rect1186" fill="#ccc" d="M6 14h52v44H6z"/><path id="prefix__rect1188" fill="#5f443e" d="M10 46h28v12H10z"/><path id="prefix__rect1190" fill="#7f5b53" d="M10 46h25v12H10z"/><path class="prefix__cls-4" id="prefix__rect1192" d="M14 50h20v4H14z"/><path class="prefix__cls-5" id="prefix__rect1194" d="M14 50h17v4H14z"/><path id="prefix__rect1196" fill="#849eb4" d="M10 28h28v18H10z"/><path id="prefix__rect1198" fill="#b0d3f0" d="M10 28h25v18H10z"/><path class="prefix__cls-4" id="prefix__rect1200" d="M42 30h12v4H42z"/><path class="prefix__cls-5" id="prefix__rect1202" d="M42 30h9v4h-9z"/><path class="prefix__cls-8" id="prefix__polyline1204" d="M42 58V38h12v20"/><path id="prefix__rect1206" fill="#71c285" d="M42 38h9v20h-9z"/><path class="prefix__cls-4" id="prefix__rect1208" d="M2 58h60v4H2z"/><path class="prefix__cls-5" id="prefix__rect1210" d="M2 58h57v4H2z"/><path class="prefix__cls-4" id="prefix__rect1212" d="M2 8h60v6H2z"/><path class="prefix__cls-5" id="prefix__rect1214" d="M2 8h57v6H2z"/><path class="prefix__cls-10" id="prefix__rect1216" d="M21 2h22v8H21z"/><path class="prefix__cls-11" id="prefix__rect1218" d="M21 2h19v8H21z"/><path class="prefix__cls-10" d="M52 14v6a4 4 0 004 4 4 4 0 004-4v-6" id="prefix__path1220"/><path class="prefix__cls-11" d="M54.5 23.7A4 4 0 0057 20v-6h-5v6a4 4 0 002.5 3.7z" id="prefix__path1222"/><path class="prefix__cls-10" d="M44 14v6a4 4 0 004 4 4 4 0 004-4v-6" id="prefix__path1224"/><path class="prefix__cls-11" d="M46.5 23.7A4 4 0 0049 20v-6h-5v6a4 4 0 002.5 3.7z" id="prefix__path1226"/><path class="prefix__cls-10" d="M36 14v6a4 4 0 004 4 4 4 0 004-4v-6" id="prefix__path1228"/><path class="prefix__cls-11" d="M38.5 23.7A4 4 0 0041 20v-6h-5v6a4 4 0 002.5 3.7z" id="prefix__path1230"/><path class="prefix__cls-10" d="M28 14v6a4 4 0 004 4 4 4 0 004-4v-6" id="prefix__path1232"/><path class="prefix__cls-11" d="M30.5 23.7A4 4 0 0033 20v-6h-5v6a4 4 0 002.5 3.7z" id="prefix__path1234"/><path class="prefix__cls-10" d="M20 14v6a4 4 0 004 4 4 4 0 004-4v-6" id="prefix__path1236"/><path class="prefix__cls-11" d="M22.5 23.7A4 4 0 0025 20v-6h-5v6a4 4 0 002.5 3.7z" id="prefix__path1238"/><path class="prefix__cls-10" d="M12 14v6a4 4 0 004 4 4 4 0 004-4v-6" id="prefix__path1240"/><path class="prefix__cls-11" d="M14.5 23.7A4 4 0 0017 20v-6h-5v6a4 4 0 002.5 3.7z" id="prefix__path1242"/><path class="prefix__cls-10" d="M4 14v6a4 4 0 004 4 4 4 0 004-4v-6" id="prefix__path1244"/><path class="prefix__cls-11" d="M6.5 23.7A4 4 0 009 20v-6H4v6a4 4 0 002.5 3.7z" id="prefix__path1246"/><path class="prefix__cls-12" transform="rotate(-45 18.996 37.001)" id="prefix__rect1248" d="M13.34 36h11.31v2H13.34z"/><path class="prefix__cls-12" transform="rotate(-45 28.996 37)" id="prefix__rect1250" d="M23.34 36h11.31v2H23.34z"/><path class="prefix__cls-12" id="prefix__rect1252" d="M24 5h16v2H24z"/><path class="prefix__cls-8" id="prefix__rect1254" d="M45 45h2v4h-2z"/></g></svg>