<svg xmlns="http://www.w3.org/2000/svg" xmlns:xlink="http://www.w3.org/1999/xlink" width="226.413" height="529.134" viewBox="0 0 59.905 140" fill-rule="evenodd" image-rendering="optimizeQuality" shape-rendering="geometricPrecision" xmlns:v="https://vecta.io/nano"><style><![CDATA[.n{fill:none}.o{fill-rule:nonzero}.p{stroke:#000}.q{fill:#fff}.r{fill:#6b6b6b}.s{fill:#505050}.t{stroke-width:.064}.u{fill:#4d4d4d}.v{stroke:#4d4d4d}.w{fill:#ebebeb}.x{stroke-width:.033}.y{fill:#ccc}.z{fill:#1a1a1a}.AA{fill:#b18d74}.AB{stroke-width:.082}]]></style><defs><radialGradient id="A" gradientUnits="userSpaceOnUse" cy="241.856" r="5.816" fy="241.856"><stop offset="0"/><stop offset="1" stop-color="gray"/></radialGradient><radialGradient id="B" xlink:href="#A" cx="118.276" fx="118.276"/><radialGradient id="C" xlink:href="#A" cx="122.153" cy="236.766" r="8.577" fx="122.153" fy="236.766" gradientTransform="matrix(0.51560292,0,0,0.51560292,-26.838653,-1.7021445)"/><radialGradient id="D" xlink:href="#A" cx="110.032" cy="238.806" r="7.331" fx="110.032" fy="238.806"/><radialGradient xlink:href="#A" id="E" cx="118.276" fx="118.276"/><radialGradient xlink:href="#A" id="F" cx="98.161" cy="236.636" fx="98.161" fy="236.636" r="8.577" gradientTransform="matrix(0.51560292,0,0,0.51560292,-26.838653,-1.7021445)"/><path id="G" d="M19.123 32.045h.138v17.551h-.138z"/><path id="H" d="M72.012 256.224h-1.3v-.064h1.3l.032.032zm.032-.032v.032h-.032zm0-82.079v82.079h-.064v-82.079l.032-.032zm-.032-.032h.032v.032zm-1.3 0h1.3v.064h-1.3l-.032-.032zm-.032.032v-.032h.032zm0 82.079v-82.079h.064v82.079l-.032.032zm.032.032h-.032v-.032z"/><path id="I" d="M70.826 154.385h1.301v19.113h-1.301z"/><path id="J" d="M70.953 133.905h1.202v.746h-1.202z"/><path id="K" d="M70.953 133.625h1.202v.28h-1.202z"/><path id="L" d="M70.953 114.252h1.202v.882h-1.202z"/><path id="M" d="M85.017 257.922l1.963 6.02c.099.304-.175.631-.489.695-.282.058-1.005-.077-1.092-.402l-1.606-6.037c-.078-.25.143-.61.457-.712.359-.1.649.089.767.435z"/><path id="N" d="M86.941 259.692l2 7.426c.106.283.29.537.509.678.278.083.514-.018.537-.261"/><path id="O" d="M146.372 256.224l-.032-.032.032-.032h1.3v.064zm0 0h-.032v-.032zm-.032-82.111l.032-.032.032.032v82.079h-.064zm0 0v-.032h.032zm1.332-.032l.032.032-.032.032h-1.3v-.064zm0 0h.032v.032zm.032 82.111l-.032.032-.032-.032v-82.079h.064zm0 0v.032h-.032z"/><path id="P" d="M114.099 226.521l-1.639 16.653h11.632l-1.469-16.653z"/><path id="Q" d="M118.276 241.393c3.212 0 5.816.798 5.816 1.781s-2.604 1.781-5.816 1.781-5.816-.798-5.816-1.781 2.604-1.781 5.816-1.781z"/><path id="R" d="M20.686 119.601h.405v.279h-.405z"/><path id="S" d="M134.003 208.835h12.741v.506h-12.741z"/><path id="T" d="M134.4 205.937l.166-.001-.134.098.051.157-.134-.097-.134.097.052-.157-.135-.098.166.001.051-.158z"/><path id="U" d="M135.278 205.935h.166l-.134.097.051.158-.134-.098-.134.098.052-.158-.135-.097h.166l.051-.158z"/><path id="V" d="M134.4 205.333l.166-.001-.134.097.051.158-.134-.098-.134.098.052-.158-.135-.097.166.001.051-.158z"/><path id="W" d="M29.195 37.853c.166 0 .301.335.301.749s-.135.749-.301.749-.301-.335-.301-.749.135-.749.301-.749z"/></defs><path d="M17.609 38.67l-2.442-7.912h-4.432L8.286 38.67z" stroke="#ff0" class="n x"/><path d="M40.052 32.045v54.726H18.87V32.045z" fill="#c63"/><path d="M40.052 32.062H18.87v-.033h21.182l.016.017zm0-.033h.016v.017zm-.016 54.743V32.045h.033v54.726l-.016.017zm.033 0v.017h-.016zm-21.198-.017h21.182v.033H18.87l-.016-.017zm0 .033h-.016v-.017zm.016-54.743v54.726h-.033V32.045l.016-.017zm-.033 0v-.017h.016z" class="o"/><g class="x p"><g fill="#c63"><path d="M39.804 31.608H19.118l-.248.295v.142h21.182v-.142z"/><path d="M19.228 31.608h20.519c0-13.236-2.099-22.6-9.935-30.961h-.641c-7.983 8.625-9.942 17.667-9.942 30.961z"/></g><path d="M29.17.334h.641v.313h-.641z" fill="#963"/><path d="M29.17.017h.641v.317h-.641z" fill="#c63"/><path d="M31.786 2.936l-.177-.23h-4.225l-.185.23z" fill="#963"/><path d="M22.143 22.584h.496v.138h-.496zm0 7.435h.496m-.496 1.304h.496" class="n"/><path d="M22.535 21.399h-.299c.923-6.009 3.274-12.279 6.354-18.463h.303c-3.08 6.183-5.435 12.454-6.358 18.463z" fill="#963"/></g><g fill="#c63"><use xlink:href="#G"/><use xlink:href="#G" x="0.464"/><use xlink:href="#G" x="0.929"/><use xlink:href="#G" x="1.394"/><use xlink:href="#G" x="1.859"/><use xlink:href="#G" x="2.323"/><use xlink:href="#G" x="2.788"/><use xlink:href="#G" x="3.253"/><use xlink:href="#G" x="3.717"/><use xlink:href="#G" x="4.182"/><use xlink:href="#G" x="4.647"/><use xlink:href="#G" x="5.111"/><use xlink:href="#G" x="5.576"/><use xlink:href="#G" x="6.041"/><use xlink:href="#G" x="6.506"/><use xlink:href="#G" x="6.97"/><use xlink:href="#G" x="7.435"/><use xlink:href="#G" x="7.9"/><use xlink:href="#G" x="8.364"/><use xlink:href="#G" x="8.829"/><use xlink:href="#G" x="9.294"/><use xlink:href="#G" x="9.759"/><use xlink:href="#G" x="10.223"/><use xlink:href="#G" x="10.688"/><use xlink:href="#G" x="11.153"/><use xlink:href="#G" x="11.617"/><use xlink:href="#G" x="12.082"/><use xlink:href="#G" x="12.547"/><use xlink:href="#G" x="13.011"/><use xlink:href="#G" x="13.476"/><use xlink:href="#G" x="13.941"/><use xlink:href="#G" x="14.406"/><use xlink:href="#G" x="14.87"/><use xlink:href="#G" x="15.335"/><use xlink:href="#G" x="15.8"/><use xlink:href="#G" x="16.264"/><use xlink:href="#G" x="16.729"/><use xlink:href="#G" x="17.194"/><use xlink:href="#G" x="17.659"/><use xlink:href="#G" x="18.123"/><use xlink:href="#G" x="18.588"/><use xlink:href="#G" x="19.053"/><use xlink:href="#G" x="19.517"/><use xlink:href="#G" x="19.982"/><use xlink:href="#G" x="20.447"/></g><g fill="gray"><use xlink:href="#G" x="20.717"/><use xlink:href="#G" x="20.216"/><use xlink:href="#G" x="19.746"/><use xlink:href="#G" x="19.276"/><use xlink:href="#G" x="18.822"/><use xlink:href="#G" x="18.352"/><use xlink:href="#G" x="17.898"/><use xlink:href="#G" x="17.428"/><use xlink:href="#G" x="16.957"/><use xlink:href="#G" x="16.487"/><use xlink:href="#G" x="16.033"/><use xlink:href="#G" x="15.563"/><use xlink:href="#G" x="15.093"/><use xlink:href="#G" x="14.639"/><use xlink:href="#G" x="14.169"/><use xlink:href="#G" x="13.715"/><use xlink:href="#G" x="13.245"/><use xlink:href="#G" x="12.775"/><use xlink:href="#G" x="12.305"/><use xlink:href="#G" x="11.851"/><use xlink:href="#G" x="11.381"/><use xlink:href="#G" x="10.927"/><use xlink:href="#G" x="10.457"/><use xlink:href="#G" x="10.003"/><use xlink:href="#G" x="9.533"/><use xlink:href="#G" x="9.062"/><use xlink:href="#G" x="8.609"/><use xlink:href="#G" x="8.122"/><use xlink:href="#G" x="7.668"/><use xlink:href="#G" x="7.198"/><use xlink:href="#G" x="6.744"/><use xlink:href="#G" x="6.274"/><use xlink:href="#G" x="5.804"/><use xlink:href="#G" x="5.334"/><use xlink:href="#G" x="4.88"/><use xlink:href="#G" x="4.41"/><use xlink:href="#G" x="3.956"/><use xlink:href="#G" x="3.502"/><use xlink:href="#G" x="3.032"/><use xlink:href="#G" x="2.545"/><use xlink:href="#G" x="2.091"/><use xlink:href="#G" x="1.621"/><use xlink:href="#G" x="1.151"/><use xlink:href="#G" x="0.697"/><use xlink:href="#G" x="0.227"/><use xlink:href="#G" x="-0.243"/></g><path d="M18.87 49.596h21.182m-21.175-17.52h21.182" stroke-width=".083" class="n p"/><g class="x p"><path d="M22.143 21.399h.496v41.62h-.496z" fill="#963"/><path d="M22.143 42.275h.496m-.496 6.181h.496m-.496-13.663h.496m-.496-2.628h.496" class="n"/><path d="M17.763 49.734h1.107v.579h-1.107z" fill="#939393"/></g><path d="M18.333 49.879h.415v.266h-.415z" class="n p AB"/><path d="M18.201 50.187h-.343v-.082h.343l.041.041zm.041-.041v.041h-.041zm0-.266v.266h-.083v-.266l.041-.041zm-.041-.041h.041v.041zm-.343 0h.343v.082h-.343l-.041-.041zm-.041.041v-.041h.041zm0 .266v-.266h.083v.266l-.041.041zm.041.041h-.041v-.041z" class="o"/><g transform="matrix(.515603 0 0 .515603 -26.838653 -1.702144)"><path d="M87.18 274.796l-2.375-6.955H69.707l-2.601 6.955z" fill="#cd8552" class="t v"/><path d="M85.32 269.35l-.515-1.509H69.707l-.564 1.509z" class="AA"/><path d="M85.32 269.382H69.143v-.064H85.32l.03.022zm.03-.043l.014.043h-.045zm-.515-1.509l.515 1.509-.061.021-.515-1.509.03-.043zm-.03-.022h.023l.007.022zm-15.098 0h15.098v.064H69.707l-.03-.043zm-.03.021l.008-.021h.022zm-.564 1.509l.564-1.509.06.022-.564 1.509-.03.021zm.03.043h-.046l.016-.043z" class="o u"/><g class="t v"><path d="M87.18 274.796l-.194-.569H67.319l-.213.569z" class="AA"/><g class="w"><path d="M87.487 257.228H66.911l-.41 2.36-3.633 9.175h28.443l-3.499-9.175zm-.983-32.472V78.301H67.786v146.455z"/><path d="M67.335 224.755H86.9v4.298H67.335zm0 4.92h19.622v4.411H67.335zm-.128 5.004h19.947v4.326H67.207zm-.042 4.736h19.961v4.213H67.165zm0 4.609h19.933v4.75H67.165zm-.17 5.146h20.244v7.493H66.995z"/><path d="M67.052 228.657H87.24v1.244H67.052zm-.142 4.948h20.555v1.442H66.91zm-.021 5.202h20.597v1.032H66.889zm-.155 4.524H87.6v1.089H66.734zm.014 5.216H87.6v.947H66.748zm20.684 7.747H66.888l-.288.289v.956h21.12v-.956zM86.205 78.301l-4.736-15.346h-8.595l-4.75 15.346z"/></g><path d="M72.874 62.955h8.595l-3.133-8.976c-.442-.907-1.727-.874-2.194 0-1.369 2.573-2.279 5.924-3.269 8.976z" fill="#e3e3e3"/><path d="M75.518 249.338v8.44h.191v1.441h1.696v-1.441h1.442v-8.44h-1.442v-.742h-1.696v.742z" class="w"/></g><path d="M72.012 256.192v-82.079h-1.3v82.079z" class="r"/><use xlink:href="#H" class="o u"/><path d="M83.548 256.192v-82.079h-1.3v82.079z" class="r"/><use xlink:href="#H" x="11.536" class="o u"/><g class="r t v"><use xlink:href="#I"/><use xlink:href="#I" x="11.366"/></g><path d="M72.155 153.855V95.292h-1.202v58.563z" class="r"/><path d="M72.155 153.887h-1.202v-.064h1.202l.032.032zm.032-.032v.032h-.032zm0-58.563v58.563h-.064V95.292l.032-.032zm-.032-.032h.032v.032zm-1.202 0h1.202v.064h-1.202l-.032-.032zm-.032.032v-.032h.032zm0 58.563V95.292h.064v58.563l-.032.032zm.032.032h-.032v-.032z" class="o u"/><g class="t v"><path d="M82.174 95.324h1.202v58.456h-1.202z" class="r"/><path d="M67.575 93.454H86.66v2.205H67.575z" class="w"/></g><path d="M86.096 94.777v-.407H68.13v.407z" class="r"/><path d="M86.096 94.809H68.13v-.064h17.966l.032.032zm.032-.032v.032h-.032zm0-.407v.407h-.064v-.407l.032-.032zm-.032-.032h.032v.032zm-17.966 0h17.966v.064H68.13l-.032-.032zm-.032.032v-.032h.032zm0 .407v-.407h.064v.407l-.032.032zm.032.032h-.032v-.032z" class="o u"/><path d="M78.43 259.588V93.18h-2.375v166.409z" class="w"/><path d="M78.43 259.62h-2.375v-.064h2.375l.032.032zm.032-.032v.032h-.032zm0-166.409v166.409h-.064V93.179l.032-.032zm-.032-.032h.032v.032zm-2.375 0h2.375v.064h-2.375l-.032-.032zm-.032.032v-.032h.032zm0 166.409V93.179h.064v166.409l-.032.032zm.032.032h-.032v-.032z" class="o u"/><path d="M67.642 114.252h19.102v.882H67.642zm-.246 19.653H87.04v.746H67.396zm-.068 19.882h19.577v.712H67.328z" class="t v w"/><path d="M86.973 173.466v.78H67.328v-.78z" class="w"/><path d="M86.973 173.498H67.328v-.064h19.645l.032.032zm0-.064h.032v.032zm-.032.813v-.78h.064v.78l-.032.032zm.064 0v.032h-.032zm-19.677-.032h19.645v.064H67.328l-.032-.032zm0 .064h-.032v-.032zm.032-.812v.78h-.064v-.78l.032-.032zm-.064 0v-.032h.032z" class="o u"/><g class="t v"><g class="n"><path d="M70.712 248.547h1.3m-1.3.948h1.3m10.236-.948h1.3m-1.3.948h1.3m-1.3-6.164h1.3m-1.3 1.088h1.408m-12.944-1.088h1.3m-1.3 1.088h1.3m-1.3-5.612h1.391m-1.391 1.032h1.3m10.236-1.032h1.3m-1.3 1.032h1.3m-12.836-6.234h1.3m-1.3 1.442h1.3m10.236-1.442h1.3m-1.3 1.442h1.3m-12.836-6.39h1.3m-1.3 1.244h1.3m10.236-1.244h1.3m-1.3 1.244h1.3m-12.836-55.655v-.78m1.414 0v.78"/><path d="M83.548 174.246v-.78m-1.356-.085v.865M70.826 154.5v-.712m1.329-.039v.751m11.337 0v-.712m-1.318-.007v.719"/></g><g class="r"><use xlink:href="#J"/><use xlink:href="#J" x="11.221"/></g><g class="w"><use xlink:href="#K"/><use xlink:href="#K" x="11.221"/><use xlink:href="#K" y="1.027"/><use xlink:href="#K" x="11.221" y="1.027"/></g><g class="r"><use xlink:href="#L"/><use xlink:href="#L" x="11.221"/></g></g><path d="M86.66 94.809H67.575v-.064H86.66l.032.032zm.032-.032v.032h-.032zm0-.407v.407h-.064v-.407l.032-.032zm-.032-.032h.032v.032zm-19.085 0H86.66v.064H67.575l-.032-.032zm-.032.032v-.032h.032zm0 .407v-.407h.064v.407l-.032.032zm.032.032h-.032v-.032z" class="o u"/><g class="t v"><path d="M76.423 80.383h1.425v3.257h-1.425zM63.119 268.13h27.957" class="n"/><path d="M66.501 259.58l-.041.112h1.525v-.337h-1.444zm2.646-1.658l-1.963 6.02c-.099.304.175.631.489.695.282.058 1.005-.077 1.092-.402l1.606-6.037c.078-.25-.143-.61-.457-.712-.359-.1-.649.089-.767.435z" class="y"/><g class="n"><path d="M67.985 259.692l-1.887 8.438m-2.744-.594h.822l2.573-7.844"/><path d="M67.223 259.692l-2.001 7.426c-.106.283-.29.537-.509.678-.278.083-.514-.018-.537-.261"/></g><path d="M68.632 257.866l-1.503 5.658.076.738c.195.429 1.011.611 1.559-.027l1.606-6.037c.017-.521-.424-.9-1.008-.607z" class="y"/><path d="M69.536 258.37l.835-.171" class="n"/><path d="M68.383 258.228l-1.284 4.951c-.08.31.075.585.383.668.356.096.612-.093.694-.445l1.346-4.94c.084-.309-.139-.622-.453-.687h0c-.313-.064-.606.143-.687.452z" class="y"/><path d="M68.07 263.609l.534.785" class="n"/><g class="y"><path d="M87.663 259.58l.041.112h-1.525v-.337h1.444z"/><use xlink:href="#M"/></g><g class="n"><path d="M86.178 259.692l1.887 8.438m2.745-.594h-.822l-2.573-7.844"/><use xlink:href="#N"/></g><path d="M85.532 257.866l1.503 5.658-.076.738c-.195.429-1.011.611-1.559-.027l-1.606-6.037c-.017-.521.424-.9 1.008-.607z" class="y"/><path d="M84.628 258.37l-.835-.171" class="n"/><path d="M85.78 258.228l1.284 4.951c.08.31-.075.585-.383.668-.356.096-.612-.093-.694-.445l-1.346-4.94c-.084-.309.139-.622.453-.687h0c.313-.064.607.143.687.452z" class="y"/><path d="M86.043 263.565l-.55.819" class="n"/></g></g><g class="p"><path d="M40.052 49.734h1.107v.579h-1.107z" fill="#939393" class="x"/><path d="M40.174 49.879h.415v.266h-.415z" class="n AB"/></g><path d="M40.721 50.187l-.041-.041.041-.041h.343v.082zm0 0h-.041v-.041zm-.041-.307l.041-.041.041.041v.266h-.083zm0 0v-.041h.041zm.384-.041l.041.041-.041.041h-.343v-.082zm0 0h.041v.041zm.041.307l-.041.041-.041-.041v-.266h.083zm0 0v.041h-.041z" class="o"/><g transform="matrix(.515603 0 0 .515603 -26.838653 -1.702144)"><path d="M131.204 274.796l2.375-6.955h15.099l2.601 6.955z" fill="#cd8552" class="t v"/><path d="M133.064 269.35l.515-1.509h15.099l.564 1.509z" class="AA"/><path d="M133.064 269.382l-.03-.043.03-.022h16.178v.064zm0 0h-.045l.014-.043zm.485-1.551l.03-.022.03.043-.515 1.509-.061-.021zm0 0l.007-.022h.023l-.03.022zm15.129-.022l.03.021-.03.043h-15.098v-.064zm0 0h.022l.008.021-.03-.021zm.594 1.53l-.03.043-.03-.021-.564-1.509.06-.022zm0 0l.016.043h-.046z" class="o u"/><g class="t v"><path d="M131.204 274.796l.195-.569h19.667l.213.569z" class="AA"/><g class="w"><path d="M130.897 257.228h20.577l.41 2.36 3.633 9.175h-28.444l3.499-9.175zm.984-32.472V78.301h18.717v146.455z"/><path d="M131.484 224.755h19.565v4.298h-19.565zm-.056 4.92h19.622v4.411h-19.622zm-.198 5.004h19.947v4.326H131.23zm.028 4.736h19.961v4.213h-19.961zm.028 4.609h19.933v4.75h-19.933zm-.141 5.146h20.244v7.493h-20.244z"/><path d="M131.145 228.657h20.188v1.244h-20.187zm-.226 4.948h20.555v1.442h-20.555zm-.021 5.202h20.597v1.032h-20.597zm-.114 4.524h20.866v1.089h-20.866zm0 5.216h20.852v.947h-20.852zm.169 7.747h20.543l.289.289v.956h-21.121v-.956zm1.226-177.993l4.736-15.346h8.595l4.75 15.346z"/></g><path d="M145.51 62.955h-8.595l3.133-8.976c.442-.907 1.727-.874 2.194 0 1.369 2.573 2.279 5.924 3.269 8.976z" fill="#e3e3e3"/><path d="M142.866 249.338v8.44h-.191v1.441h-1.696v-1.441h-1.442v-8.44h1.442v-.742h1.696v.742z" class="w"/></g><path d="M146.372 256.192v-82.079h1.3v82.079z" class="r"/><use xlink:href="#O" class="o u"/><path d="M134.836 256.192v-82.079h1.3v82.079z" class="r"/><use xlink:href="#O" x="-11.536" class="o u"/><g class="r t v"><use xlink:href="#I" x="75.432"/><use xlink:href="#I" x="64.066"/></g><path d="M146.23 153.855V95.292h1.201v58.563z" class="r"/><path d="M146.23 153.887l-.032-.032.032-.032h1.202v.064zm0 0h-.032v-.032zm-.032-58.595l.032-.032.032.032v58.563h-.064zm0 0v-.032h.032zm1.234-.032l.032.032-.032.032h-1.202v-.064zm0 0h.032v.032zm.032 58.595l-.032.032-.032-.032V95.292h.064zm0 0v.032h-.032z" class="o u"/><g class="t v"><path d="M135.009 95.324h1.202v58.456h-1.202z" class="r"/><path d="M131.725 93.454h19.085v2.205h-19.085z" class="w"/></g><path d="M132.288 94.777v-.407h17.967v.407z" class="r"/><path d="M132.288 94.809l-.032-.032.032-.032h17.966v.064zm0 0h-.032v-.032zm-.032-.439l.032-.032.032.032v.407h-.064zm0 0v-.032h.032zm17.999-.032l.032.032-.032.032h-17.966v-.064zm0 0h.032v.032zm.032.439l-.032.032-.032-.032v-.407h.064zm0 0v.032h-.032z" class="o u"/><path d="M139.954 259.588V93.18h2.375v166.409z" class="w"/><path d="M139.954 259.62l-.032-.032.032-.032h2.375v.064zm0 0h-.032v-.032zm-.032-166.441l.032-.032.032.032v166.409h-.064zm0 0v-.032h.032zm2.407-.032l.032.032-.032.032h-2.375v-.064zm0 0h.032v.032zm.032 166.441l-.032.032-.032-.032V93.179h.064zm0 0v.032h-.032z" class="o u"/><path d="M131.641 114.252h19.102v.882h-19.102zm-.297 19.653h19.645v.746h-19.645zm.136 19.882h19.577v.712H131.48z" class="t v w"/><path d="M131.412 173.466v.78h19.644v-.78z" class="w"/><path d="M131.412 173.498l-.032-.032.032-.032h19.645v.064zm-.032-.032v-.032h.032zm.064.78l-.032.032-.032-.032v-.78h.064zm-.032.032h-.032v-.032zm19.645-.064l.032.032-.032.032h-19.645v-.064zm.032.032v.032h-.032zm-.064-.78l.032-.032.032.032v.78h-.064zm.032-.032h.032v.032z" class="o u"/><g class="t v"><path d="M147.672 248.547h-1.3m1.3.948h-1.3m-10.236-.948h-1.3m1.3.948h-1.3m1.3-6.164h-1.3m1.3 1.088h-1.408m12.944-1.088h-1.3m1.3 1.088h-1.3m1.3-5.612h-1.391m1.391 1.032h-1.3m-10.236-1.032h-1.3m1.3 1.032h-1.3m12.836-6.234h-1.3m1.3 1.442h-1.3m-10.236-1.442h-1.3m1.3 1.442h-1.3m12.836-6.39h-1.3m1.3 1.244h-1.3m-10.236-1.244h-1.3m1.3 1.244h-1.3m12.836-55.655v-.78m-1.414 0v.78m-11.422 0v-.78m1.357-.085v.865m11.366-19.746v-.712m-1.329-.039v.751m-11.338 0v-.712m1.319-.007v.719" class="n"/><g class="r"><use xlink:href="#J" x="75.277"/><use xlink:href="#J" x="64.056"/></g><g class="w"><use xlink:href="#K" x="75.277"/><use xlink:href="#K" x="64.056"/><use xlink:href="#K" x="75.277" y="1.027"/><use xlink:href="#K" x="64.056" y="1.027"/></g><g class="r"><use xlink:href="#L" x="75.277"/><use xlink:href="#L" x="64.056"/></g></g><path d="M131.725 94.809l-.032-.032.032-.032h19.085v.064zm0 0h-.032v-.032zm-.032-.439l.032-.032.032.032v.407h-.064zm0 0v-.032h.032zm19.117-.032l.032.032-.032.032h-19.085v-.064zm0 0h.032v.032zm.032.439l-.032.032-.032-.032v-.407h.064zm0 0v.032h-.032z" class="o u"/><g class="t v"><path d="M140.537 80.383h1.425v3.257h-1.425zm14.729 187.747h-27.957" class="n"/><g class="y"><path d="M151.884 259.58l.04.112h-1.525v-.337h1.444z"/><use xlink:href="#M" x="64.221"/></g><g class="n"><path d="M150.399 259.692l1.887 8.438m2.745-.594h-.823l-2.573-7.844"/><use xlink:href="#N" x="64.221"/></g><path d="M149.752 257.866l1.503 5.658-.077.738c-.195.429-1.011.611-1.559-.027l-1.606-6.037c-.018-.521.424-.9 1.008-.607z" class="y"/><path d="M148.849 258.37l-.835-.171" class="n"/><path d="M150.001 258.228l1.284 4.951c.08.31-.075.585-.383.668-.356.096-.612-.093-.694-.445l-1.346-4.94c-.084-.309.139-.622.452-.687h0c.313-.064.607.143.687.452z" class="y"/><path d="M150.323 263.666l-.51.795" class="n"/><path d="M130.722 259.58l-.041.112h1.525v-.337h-1.444zm2.645-1.658l-1.963 6.02c-.099.304.175.631.488.695.282.058 1.005-.077 1.092-.402l1.606-6.037c.078-.25-.143-.61-.457-.712-.359-.1-.649.089-.767.435z" class="y"/><path d="M132.206 259.692l-1.886 8.438m-2.745-.594h.822l2.573-7.844m.474 0l-2 7.426c-.106.283-.29.537-.509.678-.278.083-.514-.018-.537-.261" class="n"/><path d="M132.853 257.866l-1.503 5.658.077.738c.195.429 1.011.611 1.559-.027l1.606-6.037c.018-.521-.424-.9-1.008-.607z" class="y"/><path d="M133.757 258.37l.835-.171" class="n"/><path d="M132.604 258.228l-1.284 4.951c-.08.31.075.585.383.668.356.096.612-.093.694-.445l1.346-4.94c.084-.309-.139-.622-.452-.687h0c-.313-.064-.607.143-.687.452z" class="y"/><path d="M132.312 263.62l.555.787" class="n"/></g></g><g class="p x"><g class="q"><path d="M59.888 112.905v-2.203l-.214-.306H.231l-.215.306v2.203l20.09 3.857h19.662z"/><path d="M11.102 109.824v4.417l9.014 1.662h19.633l8.966-1.662v-4.417z"/><path d="M.137 110.404c.369.196.766.385 1.173.482l28.635 1.359 28.63-1.359c.381-.124.779-.268 1.109-.49.161-.758.138-1.516.036-2.273-.409-2.299-.95-4.748-2.488-6.662L44.265 87.495l-1.877-3.056-.541-1.318-.847-4.525c-2.219-11.852-3.703-23.967-6.657-35.557-.614-2.474-1.473-4.685-2.367-7.002-.52-1.125-1.332-1.989-2.034-2.01-.825.023-1.589 1.182-2.029 2.01-.851 2.194-1.825 4.528-2.396 7.002-3.027 11.729-4.41 23.703-6.614 35.554l-.842 4.529-.543 1.318-1.928 3.056c-4.114 4.812-8.56 9.379-13.024 13.964-1.369 1.993-1.986 4.319-2.428 6.662-.066.756-.083 1.535 0 2.282z"/></g><path d="M23.223 53.375l.009 3.734h13.426l-.036-3.735c1.61 8.354 2.811 16.854 4.378 25.223l.847 4.525.541 1.318 1.877 3.056 12.967 13.964c1.538 1.915 2.078 4.363 2.488 6.662.102.758.124 1.516-.036 2.273-.33.222-.729.366-1.109.49l-28.63 1.359-28.635-1.359c-.406-.097-.804-.286-1.173-.482-.083-.748-.066-1.526 0-2.282.442-2.343 1.059-4.669 2.428-6.662 4.464-4.585 8.91-9.152 13.024-13.964l1.928-3.056.543-1.318.842-4.529 4.321-25.219z" class="s"/><g class="q"><path d="M42.066 89.123l-1.279-3.554H19.05l-1.301 3.554-14.716 15.089-1.378 3.837 56.57.055-1.422-3.892z"/><path d="M41.189 90.45l-3.192-18.849H21.902L18.657 90.45l-8.616 8.694v8.904h39.676v-8.904z"/></g><path d="M23.976 124.097h11.91l1.307-.74.461-3.478-.101-.002-.16-.768v-2.972l-.21-12.366c-.157-.205-.329-.388-.526-.543l-13.425.002c-.194.164-.381.339-.55.541l-.155 11.163-.001 4.173-.165.772-.17-.001.594 3.522 1.192.696z" class="s"/><path d="M28.254 54.004h1.303v1.443h-1.303z" fill="#33c6f3"/><path d="M.083 109.517l.763.534 7.977.136v.101h42.287v-.101l7.955-.136.731-.555c.003-.461-.024-.917-.075-1.375H.137l-.054 1.396z" class="n"/></g><path d="M26.541 107.431h6.735v3.265h-6.735z" class="s"/><path d="M3.041 108.121v1.93m1.303-1.93l.009 1.99m1.854-1.99v2.066m1.234-2.066v2.066m1.382-2.132v2.132" class="n p x"/><g transform="matrix(.515603 0 0 .515603 -26.838653 -1.702144)"><path d="M118.652 231.141v.064h-.606v-.064z" class="o"/><use xlink:href="#P" class="r"/><g class="o"><path d="M124.092 243.206H112.46v-.064h11.632l.032.029zm.032-.035l.003.035h-.035l.032-.035zm-1.469-16.653l1.469 16.653-.064.006-1.469-16.653.032-.035.032.029zm-.032-.029h.029l.003.029-.032-.029zm-8.524 0h8.524v.064h-8.524l-.032-.035zm-.032.029l.003-.029h.029l-.032.029zm-1.639 16.653l1.639-16.653.064.006-1.639 16.653-.032.029-.032-.035zm.032.035h-.035l.003-.035.032.035z"/><path d="M115.368 226.757l.063.011-2.929 16.303-.063-.011zm5.85.046l.063-.011 2.834 16.279-.064.011z"/></g><use xlink:href="#Q" fill="url(#B)"/><path d="M124.124 243.174h-.064 0l-.007-.087-.021-.086-.035-.085-.049-.084-.063-.083-.076-.082-.09-.081-.102-.079-.115-.078-.127-.076-.139-.074-.15-.072-.161-.069-.172-.067-.182-.064-.192-.062-.201-.059-.21-.056-.219-.053-.227-.05-.235-.046-.243-.043-.25-.039-.257-.036-.264-.032-.27-.028-.275-.024-.281-.02-.286-.016-.29-.011-.295-.007-.299-.002v-.064l.3.002.296.007.291.011.287.016.282.02.276.024.271.028.265.032.258.036.251.039.244.043.237.046.229.05.22.053.212.056.203.059.194.062.184.065.174.068.163.07.152.073.141.075.13.078.118.08.106.082.093.084.081.087.067.089.053.091.039.094.024.095zm-5.848 1.813v-.064h0l.299-.002.295-.007.29-.011.286-.016.281-.02.275-.024.27-.028.264-.032.257-.036.25-.039.243-.043.235-.046.227-.05.219-.053.21-.056.201-.059.192-.062.182-.064.172-.067.161-.069.15-.072.139-.074.127-.076.115-.078.102-.079.09-.081.076-.082.063-.083.049-.084.035-.085.021-.086.007-.087h.064l-.008.097-.024.095-.039.094-.053.091-.067.089-.081.087-.093.084-.106.082-.118.08-.13.078-.141.075-.152.073-.163.07-.174.068-.184.065-.194.062-.203.059-.212.056-.22.053-.229.05-.237.046-.244.043-.251.039-.258.036-.265.032-.271.028-.276.024-.282.02-.287.016-.291.011-.296.007zm-5.848-1.813h.064 0l.007.087.021.086.035.085.049.084.063.083.076.082.09.081.102.079.115.078.127.076.139.074.15.072.161.069.172.067.182.064.192.062.201.059.21.056.219.053.227.05.235.046.243.043.25.039.257.036.264.032.27.028.275.024.281.02.286.016.291.011.295.007.299.002v.064l-.3-.002-.296-.007-.292-.011-.287-.016-.282-.02-.276-.024-.271-.028-.265-.032-.258-.036-.251-.039-.244-.043-.237-.046-.229-.05-.22-.053-.212-.056-.203-.059-.194-.062-.184-.065-.174-.068-.163-.07-.152-.073-.141-.075-.13-.078-.118-.08-.106-.082-.093-.084-.081-.087-.067-.089-.053-.091-.039-.094-.024-.095zm5.848-1.813v.064h0l-.299.002-.295.007-.291.011-.286.016-.281.02-.275.024-.27.028-.264.032-.257.036-.25.039-.243.043-.235.046-.227.05-.219.053-.21.056-.201.059-.192.062-.182.064-.172.067-.161.069-.15.072-.139.074-.127.076-.115.078-.102.079-.09.081-.076.082-.063.083-.049.084-.035.085-.021.086-.007.087h-.064l.008-.097.024-.095.039-.094.053-.091.067-.089.081-.087.093-.084.106-.082.118-.08.13-.078.141-.075.153-.073.163-.07.174-.068.184-.065.194-.062.203-.059.212-.056.22-.053.229-.05.237-.046.244-.043.251-.039.258-.036.265-.032.271-.028.276-.024.282-.02.287-.016.292-.011.296-.007zm2.2-.413l-.357-.059-.359-.049-.36-.039-.361-.028-.362-.017-.363-.006-.363.004-.363.015-.362.026-.362.037-.361.047-.361.059-.358.069-.358.08-.355.091-.353.102-.351.113-.348.124-.345.135-.341.146-.339.157-.334.169-.03-.057.336-.169.34-.158.344-.147.347-.136.35-.124.352-.114.355-.103.357-.091.359-.081.361-.069.362-.059.363-.048.364-.037.365-.026.364-.015.365-.004.365.006.364.018.363.028.362.038.36.05.359.06.357.07.355.082.353.091.35.103.347.113.343.123.34.134.336.145.333.155.327.165-.029.057-.326-.165-.331-.154-.334-.144-.339-.133-.341-.123-.345-.112-.348-.102-.351-.091-.353-.081zm.006-.866l-.357-.059-.359-.05-.36-.038-.361-.028-.362-.017-.363-.006-.362.004-.363.015-.363.026-.362.036-.361.048-.36.058-.359.07-.357.08-.355.091-.353.102-.351.113-.348.124-.345.135-.342.146-.338.157-.335.168-.03-.056.337-.169.34-.158.343-.147.347-.136.35-.125.353-.113.355-.103.357-.091.359-.081.361-.069.362-.059.363-.048.364-.037.364-.026.365-.015.365-.004.364.006.364.017.363.028.362.039.361.049.359.06.357.071.355.081.352.092.35.103.347.113.344.123.34.134.336.145.332.155.328.165-.03.056-.326-.164-.33-.154-.335-.144-.338-.133-.342-.123-.345-.112-.348-.102-.35-.092-.353-.08zm-.027-.872l-.352-.058-.353-.048-.355-.037-.356-.027-.356-.016-.357-.007-.357.005-.357.014-.357.025-.356.036-.356.046-.355.056-.353.067-.352.078-.35.088-.348.099-.345.11-.343.12-.34.13-.338.142-.333.152-.331.163-.029-.057.332-.163.336-.153.339-.143.342-.131.344-.121.348-.11.35-.099.351-.089.354-.078.355-.068.357-.056.357-.047.359-.035.358-.026.359-.014.359-.004.359.006.358.016.358.028.356.037.355.048.354.058.352.069.349.078.348.089.344.1.342.109.339.12.336.13.331.14.328.15.324.16-.029.057-.322-.16-.327-.149-.33-.139-.333-.129-.337-.119-.34-.109-.343-.099-.346-.089-.348-.078zm-.039-.874l-.346-.056-.347-.046-.349-.036-.35-.025-.351-.016-.351-.006-.351.004-.351.015-.351.024-.351.035-.35.045-.349.055-.347.065-.347.075-.344.086-.343.096-.34.106-.338.117-.335.127-.332.137-.329.147-.326.158-.029-.057.328-.159.33-.148.334-.138.337-.127.34-.117.342-.107.344-.097.347-.086.348-.076.349-.065.351-.055.352-.045.352-.035.353-.025.353-.014.353-.005.353.006.353.016.351.026.351.036.35.046.348.056.346.066.344.076.342.086.34.095.337.106.334.116.33.125.328.135.323.145.32.155-.029.057-.318-.154-.322-.144-.325-.135-.329-.124-.332-.115-.336-.105-.337-.096-.341-.085-.342-.076zm-.029-.873l-.341-.054-.343-.044-.343-.035-.345-.024-.345-.016-.346-.005-.346.004-.346.014-.345.024-.346.034-.344.043-.344.054-.342.063-.341.073-.34.084-.337.093-.336.103-.333.113-.33.123-.328.133-.325.143-.321.153-.029-.057.324-.154.326-.144.329-.134.333-.123.335-.114.337-.104.339-.093.341-.084.343-.073.344-.064.346-.054.346-.044.347-.033.348-.024.347-.015.348-.004.348.006.347.015.346.025.346.035.344.044.343.054.341.064.339.074.337.083.335.093.332.102.33.112.326.121.323.131.319.141.316.15-.028.057-.314-.149-.318-.14-.321-.13-.325-.121-.328-.111-.33-.102-.333-.092-.336-.083-.337-.073zm-.032-.872l-.335-.052-.336-.043-.338-.033-.338-.024-.339-.015-.339-.005-.34.004-.34.014-.339.023-.339.032-.338.042-.338.052-.336.061-.335.07-.334.08-.332.09-.329.099-.328.109-.325.119-.322.128-.32.138-.317.148-.028-.057.319-.149.321-.139.324-.129.327-.119.329-.109.332-.1.333-.091.335-.08.337-.071.338-.061.34-.052.34-.042.341-.033.341-.023.341-.014.342-.004.341.005.341.015.34.024.339.034.338.042.337.053.335.061.333.071.332.08.329.09.327.098.324.108.321.117.318.127.314.135.311.145-.028.057-.309-.144-.313-.134-.316-.126-.32-.116-.322-.108-.325-.098-.327-.089-.33-.08-.332-.07zm-.021-.871l-.329-.051-.33-.041-.332-.032-.332-.024-.333-.014-.333-.005-.334.003-.334.013-.333.022-.333.031-.332.041-.332.049-.33.059-.33.067-.328.077-.326.087-.324.095-.322.105-.32.114-.318.124-.314.133-.312.142-.028-.058.314-.143.316-.133.319-.124.322-.115.324-.106.326-.096.328-.087.329-.077.331-.068.333-.059.333-.05.334-.04.335-.031.335-.023.335-.012.336-.004.335.005.335.014.334.024.333.033.332.041.331.051.329.059.328.069.325.078.324.086.321.096.319.104.316.113.313.122.31.131.306.14-.027.058-.305-.139-.308-.131-.312-.121-.314-.113-.317-.103-.319-.095-.322-.087-.324-.077-.326-.068zm-.037-.874l-.323-.048-.326-.04-.326-.031-.327-.022-.327-.014-.328-.005-.328.004-.328.013-.328.022-.328.03-.327.039-.326.048-.325.057-.324.066-.323.075-.321.084-.319.093-.318.101-.315.111-.312.12-.31.129-.308.137-.027-.057.309-.139.312-.129.314-.121.317-.111.319-.102.321-.094.323-.084.324-.075.326-.066.327-.058.328-.048.328-.04.33-.03.329-.022.33-.013.33-.004.33.005.329.014.329.022.327.032.327.04.326.048.324.058.323.066.32.075.319.083.317.092.314.101.311.109.309.118.305.127.303.135-.027.058-.301-.135-.304-.125-.307-.118-.31-.108-.312-.101-.315-.091-.317-.083-.319-.075-.321-.065zm-.025-.871l-.318-.047-.32-.038-.32-.03-.321-.022-.322-.013-.323-.005-.322.004-.323.012-.322.021-.322.029-.321.038-.321.046-.319.055-.319.064-.317.072-.316.081-.314.089-.312.099-.311.106-.307.116-.306.124-.303.133-.026-.058.304-.134.307-.124.31-.117.311-.107.314-.099.316-.09.317-.081.319-.072.321-.064.321-.056.322-.046.324-.038.323-.03.324-.021.324-.012.324-.004.324.005.324.013.323.022.322.03.321.039.32.047.319.055.317.064.316.073.313.08.312.089.309.098.307.105.304.114.301.123.298.13-.027.058-.296-.13-.3-.121-.302-.114-.305-.105-.308-.096-.309-.089-.312-.08-.314-.072-.316-.064zm-.033-.873l-.313-.044-.314-.038-.314-.028-.315-.021-.316-.013-.317-.004-.316.004-.317.012-.316.02-.316.028-.316.037-.314.044-.314.053-.313.062-.312.069-.31.078-.308.087-.307.094-.305.103-.303.112-.3.12-.298.128-.026-.059.299-.128.302-.121.304-.112.307-.103.308-.096.311-.086.311-.079.314-.07.314-.061.316-.054.316-.045.317-.037.318-.028.318-.02.318-.012.318-.004.318.005.318.012.317.021.316.029.316.037.314.045.313.054.311.061.31.07.309.077.306.086.304.094.301.101.299.11.297.118.293.125-.026.059-.292-.125-.295-.117-.297-.109-.3-.101-.303-.094-.304-.085-.307-.077-.308-.069-.31-.061zm-.027-.871l-.307-.043-.309-.036-.309-.028-.31-.02-.311-.012-.311-.004-.311.003-.311.012-.312.019-.31.028-.31.035-.31.043-.309.052-.307.059-.307.067-.305.076-.304.083-.302.092-.3.099-.298.108-.296.116-.294.124-.025-.059.295-.124.297-.117.3-.108.302-.1.303-.092.306-.084.306-.076.309-.067.309-.06.31-.052.311-.043.312-.036.313-.027.312-.02.313-.012.313-.003.313.004.312.012.312.02.311.028.31.036.309.044.308.052.306.059.305.067.304.075.301.083.299.091.297.098.295.106.292.114.289.121-.025.059-.288-.121-.291-.113-.293-.106-.295-.098-.298-.09-.3-.082-.301-.075-.304-.066-.305-.06zm-.032-.872l-.302-.042-.303-.034-.304-.027-.305-.019-.305-.012-.305-.004-.306.004-.306.011-.305.019-.306.027-.304.034-.305.042-.303.05-.302.057-.302.065-.3.073-.298.081-.297.088-.296.097-.293.104-.291.111-.289.12-.026-.058.291-.121.293-.112.295-.105.296-.097.299-.089.3-.081.302-.073.303-.065.304-.058.305-.05.306-.042.306-.035.307-.026.307-.019.307-.012.308-.003.307.004.307.011.306.02.305.026.305.035.304.042.303.05.301.057.3.065.298.072.297.08.294.087.292.095.29.102.288.109.285.118-.025.058-.284-.116-.286-.109-.288-.102-.291-.094-.293-.087-.295-.079-.296-.072-.299-.065-.299-.057zm-.028-.871l-.297-.041-.297-.033-.299-.025-.299-.019-.3-.011-.3-.004-.3.004-.3.011-.3.018-.3.026-.299.033-.299.04-.298.048-.297.055-.296.063-.295.071-.293.077-.292.086-.29.092-.289.101-.286.108-.284.115-.025-.059.285-.116.288-.108.29-.101.292-.093.294-.086.295-.078.296-.071.298-.063.298-.056.3-.048.3-.041.301-.033.301-.026.302-.018.302-.011.301-.004.302.004.301.011.301.019.3.026.299.033.299.04.297.048.296.055.295.063.293.069.291.077.29.084.287.092.286.098.283.106.28.113-.024.059-.279-.113-.282-.105-.284-.098-.286-.091-.288-.083-.29-.077-.291-.069-.293-.062-.295-.055zm-.03-.872l-.291-.039-.292-.031-.293-.025-.293-.018-.294-.01-.294-.004-.295.003-.294.011-.294.018-.294.024-.294.032-.293.039-.292.046-.292.054-.29.06-.289.068-.288.075-.287.082-.285.089-.283.096-.282.104-.279.111-.025-.059.281-.111.283-.105.285-.097.287-.09.288-.082.289-.075.291-.068.292-.061.293-.054.294-.046.294-.039.295-.032.296-.025.296-.018.296-.01.296-.004.295.004.296.01.295.018.294.025.294.032.292.039.292.046.291.053.289.06.288.067.286.074.284.08.283.088.28.095.278.102.276.108-.024.059-.275-.108-.276-.101-.279-.094-.281-.087-.283-.081-.285-.073-.286-.067-.288-.06-.289-.052zm-.03-.871l-.285-.038-.286-.03-.286-.024-.287-.017-.288-.01-.288-.003-.288.003-.288.01-.287.017-.288.024-.287.03-.287.037-.286.044-.286.051-.284.058-.283.065-.282.071-.281.079-.279.085-.278.093-.276.099-.274.106-.024-.059.275-.107.278-.1.279-.092.281-.086.282-.079.284-.072.285-.065.285-.058.287-.052.288-.044.288-.037.289-.031.289-.024.289-.017.29-.01.289-.003.29.003.289.011.288.017.288.023.288.031.286.037.286.044.284.051.284.058.281.064.281.071.278.077.277.084.275.091.273.097.271.104-.024.059-.269-.103-.272-.097-.273-.09-.276-.084-.277-.077-.279-.07-.28-.064-.282-.057-.283-.051zm-.035-.873l-.28-.035-.282-.029-.281-.023-.283-.016-.282-.009-.284-.004-.283.004-.283.01-.283.017-.283.023-.282.03-.282.036-.282.043-.28.049-.28.057-.279.062-.277.07-.276.076-.275.083-.274.09-.271.096-.27.103-.024-.059.271-.104.273-.097.275-.09.277-.083.277-.077.28-.07.28-.063.281-.056.282-.05.283-.043.283-.037.284-.03.285-.023.284-.017.285-.01.284-.003.285.003.284.009.284.017.283.022.283.03.282.035.281.043.28.048.278.056.278.061.276.068.274.075.273.081.271.087.269.094.267.101-.024.059-.265-.1-.268-.093-.269-.087-.271-.081-.273-.074-.275-.068-.276-.061-.277-.055-.279-.048zm-.029-.871l-.275-.034-.275-.028-.276-.021-.276-.016-.277-.009-.277-.003-.277.004-.278.009-.277.016-.277.022-.276.029-.276.035-.276.041-.274.047-.274.054-.273.06-.272.067-.271.073-.269.079-.268.086-.267.092-.265.099-.023-.06.266-.099.268-.092.27-.087.271-.079.272-.074.273-.067.275-.06.275-.054.276-.048.277-.041.278-.036.278-.028.278-.022.278-.017.279-.009.279-.003.278.002.278.01.278.015.278.022.276.028.276.034.275.041.274.046.273.053.272.059.271.066.268.071.268.078.265.083.264.09.262.096-.023.06-.26-.095-.263-.09-.264-.083-.266-.077-.267-.072-.269-.064-.271-.059-.271-.053-.273-.046zm-17.697 4.14v.064h-.606v-.064z" class="o"/><use xlink:href="#P" x="-16.321" class="r"/><g class="o"><path d="M107.771 243.206H96.139v-.064h11.632l.032.029zm.032-.035l.003.035h-.035l.032-.035zm-1.469-16.653l1.469 16.653-.064.006-1.469-16.653.032-.035.032.029zm-.032-.029h.029l.003.029-.032-.029zm-8.524 0h8.524v.064h-8.524l-.032-.035zm-.032.029l.003-.029h.029zm-1.639 16.653l1.639-16.653.064.006-1.639 16.653-.032.029-.032-.035zm.032.035h-.035l.003-.035z"/><path d="M99.047 226.757l.063.011-2.929 16.303-.063-.011zm5.85.046l.063-.011 2.834 16.279-.063.011z"/></g><use xlink:href="#Q" x="-16.321" fill="url(#E)"/><path d="M107.803 243.174h-.064 0l-.007-.087-.021-.086-.035-.085-.049-.084-.063-.083-.076-.082-.09-.081-.102-.079-.115-.078-.127-.076-.139-.074-.15-.072-.161-.069-.172-.067-.182-.064-.192-.062-.201-.059-.21-.056-.219-.053-.227-.05-.235-.046-.243-.043-.25-.039-.257-.036-.264-.032-.27-.028-.275-.024-.281-.02-.286-.016-.29-.011-.295-.007-.299-.002v-.064l.3.002.296.007.291.011.287.016.282.02.276.024.271.028.265.032.258.036.251.039.244.043.237.046.229.05.22.053.212.056.203.059.194.062.184.065.174.068.163.07.153.073.141.075.13.078.118.08.106.082.093.084.081.087.067.089.053.091.039.094.024.095zm-5.848 1.813v-.064h0l.299-.002.295-.007.29-.011.286-.016.281-.02.275-.024.27-.028.264-.032.257-.036.25-.039.243-.043.235-.046.227-.05.219-.053.21-.056.201-.059.192-.062.182-.064.172-.067.161-.069.15-.072.139-.074.127-.076.115-.078.102-.079.09-.081.076-.082.063-.083.049-.084.035-.085.021-.086.007-.087h.064l-.008.097-.024.095-.039.094-.053.091-.067.089-.081.087-.093.084-.106.082-.118.08-.13.078-.141.075-.152.073-.163.07-.174.068-.184.065-.194.062-.203.059-.212.056-.22.053-.229.05-.237.046-.244.043-.251.039-.258.036-.265.032-.271.028-.276.024-.282.02-.287.016-.291.011-.296.007zm-5.848-1.813h.064 0l.007.087.021.086.035.085.049.084.063.083.076.082.09.081.102.079.115.078.127.076.139.074.15.072.161.069.172.067.182.064.192.062.201.059.21.056.219.053.227.05.235.046.243.043.25.039.257.036.264.032.27.028.275.024.281.02.286.016.291.011.295.007.299.002v.064l-.3-.002-.296-.007-.292-.011-.287-.016-.282-.02-.276-.024-.271-.028-.265-.032-.258-.036-.251-.039-.244-.043-.237-.046-.229-.05-.22-.053-.212-.056-.203-.059-.193-.062-.184-.065-.174-.068-.163-.07-.152-.073-.141-.075-.13-.078-.118-.08-.106-.082-.093-.084-.081-.087-.067-.089-.053-.091-.039-.094-.024-.095zm5.848-1.813v.064h0l-.299.002-.295.007-.291.011-.286.016-.281.02-.275.024-.27.028-.264.032-.257.036-.25.039-.243.043-.235.046-.227.05-.219.053-.21.056-.201.059-.192.062-.182.064-.172.067-.161.069-.15.072-.139.074-.127.076-.115.078-.102.079-.09.081-.076.082-.063.083-.049.084-.035.085-.021.086-.007.087h-.064l.008-.097.024-.095.039-.094.053-.091.067-.089.081-.087.093-.084.106-.082.118-.08.13-.078.141-.075.153-.073.163-.07.174-.068.184-.065.193-.062.203-.059.212-.056.22-.053.229-.05.237-.046.244-.043.251-.039.258-.036.265-.032.271-.028.276-.024.282-.02.287-.016.292-.011.296-.007zm2.2-.413l-.357-.059-.359-.049-.36-.039-.361-.028-.362-.017-.363-.006-.362.004-.363.015-.363.026-.362.037-.361.047-.36.059-.359.069-.357.08-.355.091-.353.102-.351.113-.348.124-.345.135-.342.146-.338.157-.334.169-.03-.057.336-.169.34-.158.344-.147.347-.136.35-.124.352-.114.355-.103.357-.091.359-.081.361-.069.362-.059.363-.048.364-.037.364-.026.365-.015.365-.004.364.006.364.018.363.028.362.038.361.05.359.06.357.07.355.082.352.091.35.103.347.113.343.123.341.134.336.145.332.155.328.165-.03.057-.326-.165-.331-.154-.334-.144-.338-.133-.342-.123-.345-.112-.348-.102-.351-.091-.353-.081zm.007-.866l-.357-.059-.359-.05-.36-.038-.362-.028-.362-.017-.362-.006-.363.004-.363.015-.362.026-.362.036-.362.048-.36.058-.359.07-.357.08-.355.091-.353.102-.351.113-.348.124-.345.135-.342.146-.338.157-.334.168-.03-.056.336-.169.34-.158.344-.147.347-.136.35-.125.352-.113.355-.103.357-.091.359-.081.361-.069.362-.059.363-.048.364-.037.365-.026.364-.015.365-.004.364.006.364.017.363.028.363.039.36.049.359.06.357.071.355.081.353.092.35.103.346.113.344.123.34.134.336.145.332.155.328.165-.03.056-.326-.164-.33-.154-.334-.144-.339-.133-.341-.123-.345-.112-.348-.102-.351-.092-.353-.08zm-.028-.872l-.352-.058-.353-.048-.355-.037-.355-.027-.356-.016-.357-.007-.358.005-.357.014-.357.025-.356.036-.356.046-.354.056-.353.067-.352.078-.35.088-.348.099-.346.11-.343.12-.34.13-.337.142-.334.152-.33.163-.029-.057.332-.163.336-.153.339-.143.342-.131.345-.121.347-.11.35-.099.352-.089.354-.078.355-.068.356-.056.358-.047.358-.035.359-.026.359-.014.359-.004.359.006.358.016.357.028.357.037.355.048.353.058.352.069.35.078.347.089.345.1.342.109.339.12.335.13.332.14.328.15.323.16-.029.057-.322-.16-.326-.149-.33-.139-.334-.129-.337-.119-.34-.109-.343-.099-.345-.089-.348-.078zm-.038-.874l-.346-.056-.348-.046-.349-.036-.35-.025-.35-.016-.351-.006-.352.004-.351.015-.351.024-.351.035-.35.045-.348.055-.348.065-.346.075-.344.086-.343.096-.34.106-.338.117-.335.127-.332.137-.329.147-.326.158-.029-.057.327-.159.331-.148.334-.138.337-.127.34-.117.342-.107.344-.097.346-.086.348-.076.35-.065.35-.055.352-.045.353-.035.352-.025.354-.014.353-.005.353.006.352.016.352.026.35.036.35.046.348.056.346.066.345.076.342.086.339.095.337.106.334.116.331.125.327.135.324.145.319.155-.029.057-.318-.154-.321-.144-.326-.135-.329-.124-.332-.115-.335-.105-.338-.096-.34-.085-.343-.076zm-.03-.873l-.341-.054-.342-.044-.344-.035-.345-.024-.345-.016-.345-.005-.346.004-.346.014-.346.024-.345.034-.345.043-.343.054-.342.063-.341.073-.34.084-.337.093-.335.103-.333.113-.331.123-.328.133-.325.143-.321.153-.029-.057.323-.154.326-.144.329-.134.332-.123.335-.114.337-.104.339-.093.341-.084.343-.073.344-.064.345-.054.347-.044.347-.033.347-.024.348-.015.348-.004.347.006.347.015.347.025.345.035.344.044.343.054.341.064.339.074.338.083.334.093.333.102.329.112.326.121.323.131.32.141.316.15-.029.057-.314-.149-.318-.14-.321-.13-.325-.121-.327-.111-.331-.102-.333-.092-.335-.083-.338-.073zm-.032-.872l-.334-.052-.337-.043-.337-.033-.338-.024-.339-.015-.34-.005-.34.004-.339.014-.34.023-.339.032-.338.042-.338.052-.336.061-.335.07-.334.08-.332.09-.33.099-.328.109-.325.119-.322.128-.32.138-.316.148-.028-.057.318-.149.321-.139.324-.129.327-.119.329-.109.332-.1.333-.091.335-.08.337-.071.338-.061.339-.052.34-.042.341-.033.341-.023.342-.014.341-.004.341.005.341.015.34.024.339.034.339.042.336.053.335.061.334.071.331.08.329.09.327.098.324.108.321.117.318.127.315.135.311.145-.028.057-.31-.144-.313-.134-.316-.126-.319-.116-.322-.108-.325-.098-.328-.089-.329-.08-.332-.07zm-.02-.871l-.33-.051-.33-.041-.331-.032-.333-.024-.333-.014-.333-.005-.334.003-.333.013-.333.022-.334.031-.332.041-.331.049-.331.059-.329.067-.328.077-.326.087-.324.095-.322.105-.32.114-.317.124-.315.133-.312.142-.028-.058.314-.143.316-.133.319-.124.322-.115.324-.106.326-.096.328-.087.33-.077.331-.068.332-.059.333-.05.335-.04.334-.031.336-.023.335-.012.335-.004.335.005.335.014.334.024.333.033.332.041.331.051.33.059.327.069.326.078.323.086.322.096.318.104.316.113.313.122.31.131.307.14-.028.058-.305-.139-.308-.131-.311-.121-.314-.113-.318-.103-.319-.095-.322-.087-.324-.077-.326-.068zm-.037-.874l-.324-.048-.325-.04-.326-.031-.327-.022-.328-.014-.328-.005-.328.004-.328.013-.328.022-.327.03-.327.039-.327.048-.325.057-.324.066-.323.075-.321.084-.319.093-.317.101-.315.111-.313.12-.31.129-.307.137-.027-.057.309-.139.312-.129.314-.121.317-.111.319-.102.321-.094.323-.084.324-.075.326-.066.327-.058.328-.048.329-.04.329-.03.33-.022.33-.013.329-.004.33.005.329.014.329.022.328.032.327.04.325.048.324.058.323.066.321.075.318.083.317.092.314.101.312.109.308.118.306.127.302.135-.027.058-.301-.135-.304-.125-.307-.118-.309-.108-.313-.101-.315-.091-.317-.083-.319-.075-.321-.065zm-.025-.871l-.319-.047-.319-.038-.321-.03-.321-.022-.322-.013-.322-.005-.323.004-.322.012-.322.021-.322.029-.322.038-.32.046-.32.055-.319.064-.317.072-.316.081-.314.089-.312.099-.31.106-.308.116-.305.124-.303.133-.027-.058.304-.134.307-.124.309-.117.312-.107.314-.099.316-.09.317-.081.319-.072.32-.064.322-.056.322-.046.323-.038.323-.03.325-.021.324-.012.324-.004.324.005.323.013.323.022.323.03.321.039.32.047.319.055.317.064.315.073.314.08.311.089.309.098.307.105.304.114.301.123.298.13-.027.058-.296-.13-.299-.121-.303-.114-.305-.105-.307-.096-.31-.089-.312-.08-.314-.072-.315-.064zm-.034-.873l-.312-.044-.314-.038-.315-.028-.315-.021-.316-.013-.316-.004-.317.004-.316.012-.317.02-.316.028-.315.037-.315.044-.314.053-.313.062-.312.069-.31.078-.309.087-.307.094-.305.103-.303.112-.3.12-.298.128-.026-.059.3-.128.302-.121.304-.112.306-.103.308-.096.31-.086.312-.079.313-.07.314-.061.316-.054.317-.045.317-.037.317-.028.318-.02.319-.012.318-.004.318.005.317.012.317.021.317.029.315.037.314.045.313.054.312.061.31.07.308.077.306.086.304.094.302.101.299.11.296.118.294.125-.027.059-.292-.125-.294-.117-.298-.109-.3-.101-.302-.094-.305-.085-.306-.077-.308-.069-.31-.061zm-.026-.871l-.308-.043-.309-.036-.309-.028-.31-.02-.311-.012-.311-.004-.311.003-.311.012-.311.019-.311.028-.31.035-.31.043-.308.052-.308.059-.306.067-.305.076-.304.083-.302.092-.3.099-.298.108-.296.116-.294.124-.026-.059.295-.124.297-.117.3-.108.302-.1.304-.092.305-.084.307-.076.308-.067.309-.06.311-.052.311-.043.312-.036.312-.027.313-.02.313-.012.312-.003.313.004.312.012.312.02.311.028.31.036.309.044.308.052.307.059.305.067.303.075.301.083.3.091.297.098.294.106.292.114.29.121-.026.059-.288-.121-.29-.113-.293-.106-.296-.098-.297-.09-.3-.082-.302-.075-.303-.066-.305-.06zm-.032-.872l-.302-.042-.304-.034-.304-.027-.304-.019-.305-.012-.306-.004-.306.004-.305.011-.306.019-.305.027-.305.034-.304.042-.304.05-.302.057-.301.065-.3.073-.299.081-.297.088-.295.097-.293.104-.291.111-.289.12-.025-.058.291-.121.293-.112.295-.105.297-.097.299-.089.3-.081.302-.073.303-.065.304-.058.305-.05.306-.042.306-.035.307-.026.307-.019.308-.012.307-.003.307.004.307.011.306.02.306.026.305.035.303.042.303.05.301.057.3.065.299.072.296.08.294.087.293.095.29.102.287.109.285.118-.025.058-.283-.116-.286-.109-.289-.102-.291-.094-.293-.087-.294-.079-.297-.072-.298-.065-.3-.057zm-.028-.871l-.297-.041-.298-.033-.298-.025-.3-.019-.299-.011-.3-.004-.3.004-.301.011-.3.018-.299.026-.3.033-.298.04-.298.048-.297.055-.296.063-.295.071-.294.077-.292.086-.29.092-.288.101-.287.108-.284.115-.025-.059.286-.116.288-.108.29-.101.292-.093.294-.086.295-.078.296-.071.298-.063.299-.056.299-.048.301-.041.3-.033.302-.026.301-.018.302-.011.302-.004.301.004.302.011.3.019.3.026.3.033.298.04.298.048.296.055.294.063.293.069.292.077.289.084.288.092.285.098.283.106.281.113-.025.059-.279-.113-.282-.105-.283-.098-.286-.091-.288-.083-.29-.077-.292-.069-.293-.062-.294-.055zm-.03-.872l-.292-.039-.292-.031-.292-.025-.294-.018-.294-.01-.294-.004-.294.003-.295.011-.294.018-.294.024-.293.032-.294.039-.292.046-.291.054-.291.06-.289.068-.288.075-.287.082-.285.089-.283.096-.282.104-.279.111-.025-.059.281-.111.283-.105.285-.097.287-.09.288-.082.29-.075.291-.068.292-.061.293-.054.294-.046.295-.039.295-.032.295-.025.296-.018.296-.01.296-.004.296.004.295.01.295.018.295.025.293.032.293.039.292.046.29.053.289.06.288.067.286.074.285.08.282.088.281.095.278.102.276.108-.025.059-.274-.108-.277-.101-.279-.094-.281-.087-.283-.081-.284-.073-.286-.067-.288-.06-.289-.052zm-.03-.871l-.285-.038-.286-.03-.287-.024-.287-.017-.287-.01-.288-.003-.288.003-.288.01-.288.017-.288.024-.287.03-.287.037-.286.044-.285.051-.284.058-.283.065-.282.071-.281.079-.279.085-.278.093-.276.099-.274.106-.024-.059.276-.107.278-.1.279-.092.281-.086.282-.079.284-.072.285-.065.286-.058.287-.052.287-.044.288-.037.289-.031.289-.024.29-.017.289-.01.29-.003.289.003.289.011.289.017.288.023.287.031.287.037.285.044.285.051.283.058.282.064.28.071.279.077.277.084.275.091.273.097.27.104-.024.059-.269-.103-.271-.097-.274-.09-.275-.084-.277-.077-.279-.07-.281-.064-.281-.057-.283-.051zm-.036-.873l-.28-.035-.281-.029-.282-.023-.282-.016-.283-.009-.283-.004-.283.004-.283.01-.283.017-.283.023-.283.03-.282.036-.281.043-.281.049-.28.057-.279.062-.278.07-.276.076-.275.083-.273.09-.272.096-.27.103-.024-.059.271-.104.273-.097.275-.09.276-.083.278-.077.279-.07.28-.063.281-.056.282-.05.283-.043.284-.037.284-.03.284-.023.285-.017.284-.01.285-.003.284.003.285.009.283.017.284.022.282.03.282.035.281.043.28.048.279.056.277.061.276.068.275.075.272.081.271.087.269.094.267.101-.023.059-.266-.1-.267-.093-.27-.087-.271-.081-.273-.074-.275-.068-.275-.061-.278-.055-.278-.048zm-.029-.871l-.275-.034-.275-.028-.276-.021-.276-.016-.277-.009-.277-.003-.277.004-.277.009-.277.016-.277.022-.277.029-.276.035-.275.041-.275.047-.274.054-.273.06-.272.067-.271.073-.269.079-.268.086-.266.092-.265.099-.023-.06.266-.099.268-.092.269-.087.271-.079.272-.074.273-.067.274-.06.276-.054.276-.048.277-.041.277-.036.278-.028.278-.022.279-.017.279-.009.278-.003.279.002.278.01.278.015.277.022.277.028.276.034.275.041.274.046.273.053.272.059.27.066.269.071.267.078.266.083.264.09.262.096-.023.06-.261-.095-.262-.09-.264-.083-.266-.077-.268-.072-.269-.064-.27-.059-.272-.053-.272-.046z" class="o"/><g class="p t"><path d="M109.742 228.123h.763" class="n"/><path d="M104.767 223.471l-2.066 16.653h14.662l-1.852-16.653z" class="r"/><path d="M102.714 240.015l3.692-16.303m10.946 16.315l-3.572-16.28" class="n"/></g><path d="M110.032 238.343c4.049 0 7.331.798 7.331 1.781s-3.282 1.781-7.331 1.781-7.331-.798-7.331-1.781 3.282-1.781 7.331-1.781z" fill="url(#D)"/><path d="M117.395 240.124h-.064 0l-.009-.085-.026-.084-.044-.084-.062-.084-.079-.083-.097-.083-.113-.081-.13-.08-.145-.078-.161-.076-.175-.074-.19-.072-.204-.069-.217-.067-.23-.064-.242-.062-.254-.059-.265-.056-.276-.053-.287-.05-.297-.046-.306-.043-.316-.039-.324-.036-.332-.032-.34-.028-.347-.024-.354-.02-.361-.016-.366-.011-.372-.007-.377-.002v-.064l.378.002.373.007.367.011.362.016.355.02.348.024.341.028.334.032.325.036.317.039.308.043.298.046.288.05.278.053.267.056.255.059.243.062.231.065.219.067.205.07.192.073.178.075.163.077.148.08.133.082.117.084.101.087.084.089.067.091.049.094.03.096.01.098h0zm-7.363 1.813v-.064h0l.377-.002.372-.007.366-.011.361-.016.354-.02.347-.024.34-.028.332-.032.324-.036.316-.039.306-.043.297-.046.287-.05.276-.053.265-.056.254-.059.242-.062.23-.064.217-.067.204-.07.19-.072.175-.074.161-.076.145-.078.13-.08.113-.081.097-.083.079-.083.062-.084.044-.084.026-.084.009-.085h.064l-.01.098-.03.096-.049.094-.067.091-.084.089-.101.086-.117.084-.133.082-.148.08-.163.077-.178.075-.192.073-.205.07-.219.067-.231.065-.243.062-.255.059-.267.056-.278.053-.288.05-.298.046-.308.043-.317.039-.325.036-.334.032-.341.028-.348.024-.355.02-.362.016-.367.011-.373.007-.378.002h0zm-7.363-1.813h.064 0l.009.085.026.084.044.084.062.084.079.083.097.083.113.081.13.08.145.078.161.076.175.074.19.072.204.07.217.067.23.064.242.062.254.059.265.056.276.053.287.05.297.046.306.043.316.039.324.036.332.032.34.028.347.024.354.02.361.016.367.011.372.007.377.002v.064l-.378-.002-.373-.007-.367-.011-.361-.016-.355-.02-.348-.024-.341-.028-.333-.032-.325-.036-.317-.039-.308-.043-.298-.046-.288-.05-.278-.053-.267-.056-.255-.059-.243-.062-.231-.065-.219-.067-.205-.07-.192-.073-.178-.075-.163-.077-.148-.08-.133-.082-.117-.084-.101-.086-.084-.089-.067-.091-.049-.094-.03-.096-.01-.098h0zm7.363-1.813v.064h0l-.377.002-.372.007-.367.011-.361.016-.354.02-.347.024-.34.028-.332.032-.324.036-.316.039-.306.043-.297.046-.287.05-.276.053-.265.056-.254.059-.242.062-.23.064-.217.067-.204.069-.19.072-.175.074-.161.076-.145.078-.13.08-.113.081-.097.083-.079.083-.062.084-.044.084-.026.084-.009.085h-.064l.01-.098.03-.096.049-.094.067-.091.084-.089.101-.087.117-.084.133-.082.148-.08.163-.077.178-.075.192-.073.205-.07.219-.067.231-.065.243-.062.255-.059.267-.056.278-.053.288-.05.298-.046.308-.043.317-.039.325-.036.333-.032.341-.028.348-.024.355-.02.361-.016.367-.011.373-.007.378-.002h0z" class="o"/><path d="M102.934 239.045c4.483-1.859 9.838-1.814 14.204 0m-14.196-.866c4.483-1.859 9.838-1.814 14.204 0m-14.091-.909c4.426-1.801 9.684-1.757 13.996 0m-13.892-.905c4.366-1.745 9.523-1.707 13.782-.008m-13.678-.896c4.31-1.693 9.376-1.657 13.583-.011m-13.459-.901c4.245-1.632 9.205-1.598 13.351-.011m-13.219-.902c4.183-1.571 9.04-1.536 13.126-.002m-13.028-.898c4.124-1.523 8.891-1.493 12.924-.011m-12.807-.895a19.11 19.11 0 0 1 12.711-.008m-12.595-.896c3.999-1.416 8.574-1.39 12.488-.011m-12.381-.89a19.14 19.14 0 0 1 12.288-.011m-12.183-.889a19.15 19.15 0 0 1 12.082-.015m-11.97-.886c3.819-1.275 8.127-1.254 11.873-.015m-11.756-.887a19.18 19.18 0 0 1 11.653-.016m-11.522-.89c3.682-1.173 7.797-1.155 11.412-.014m-11.327-.877a19.21 19.21 0 0 1 11.229-.023m-11.105-.879c3.558-1.089 7.501-1.076 10.999-.022" class="n p t"/></g><g class="x"><path d="M22.305 120.681l-.214-1.429-2.002.045.365 1.384z" class="p s"/><g stroke="#333" class="r"><use xlink:href="#R"/><use xlink:href="#R" x="0.853"/><path d="M21.273 120.462l-.08-.583h-.612l-.073.583zm.853 0l-.08-.583h-.612l-.073.583z"/></g><g class="p"><g class="q"><path d="M22.165 119.601l.331-.494v-3.58l-2.435.984v2.76l.331.331z"/><path d="M20.493 115.845h1.385v3.265h-1.385z"/></g><path d="M20.061 119.27l.432-.16m1.385 0l.425.284" class="n"/><path d="M20.493 117.116h1.385v.259h-1.385zm0 .394h1.385v.273h-1.385zm0 .394h1.385v.412h-1.385zm1.863 2.431c.876-.092 1.934-.17 2.835.204l-.576-3.717h-1.384z" class="s"/><path d="M22.356 120.335c.92-.143 1.945-.134 2.835.204-.588.624-2.255.586-2.835-.204z" fill="url(#F)"/><path d="M22.356 120.335l1.381-3.513m1.066 3.592l-.643-3.592" class="n"/><path d="M22.909 117.223c.739-.396 1.587-.224 2.194.364v-1.553h-2.194zm4.541-3.703c.458.061.872.205 1.286.379h2.418a6.08 6.08 0 0 1 1.311-.379v-1.997H27.45v1.997z" class="s"/></g></g><path d="M26.719 111.231h6.123v.496h-6.123z" class="s"/><path d="M9.833 108.121v2.166m.459-2.166v2.166" class="n p x"/><path d="M34.309 110.287v.186h15.059v-.186z" class="q"/><path d="M49.369 110.49H34.309v-.033h15.059l.017.017zm.017-.017v.017h-.017zm0-.186v.186h-.033v-.186l.017-.017zm-.017-.017h.017v.017zm-15.059 0h15.059v.033H34.309l-.017-.017zm-.017.017v-.017h.017zm0 .186v-.186h.033v.186l-.017.017zm.017.017h-.017v-.017z" class="o"/><path d="M10.533 110.287v.186h14.505v-.186z" class="q"/><path d="M25.038 110.489H10.533v-.033h14.505l.017.016zm.017-.016v.016h-.017zm0-.186v.186h-.033v-.186l.017-.016zm-.017-.016h.017v.016zm-14.505 0h14.505v.033H10.533l-.017-.016zm-.017.016v-.016h.017zm0 .186v-.186h.033v.186l-.017.016zm.017.016h-.017v-.016z" class="o"/><g class="x"><g class="p"><path d="M11.355 108.121v2.166" class="n"/><path d="M37.592 120.681l.214-1.429 2.003.045-.365 1.384z" class="s"/></g><g stroke="#333" class="r"><use xlink:href="#R" x="18.12"/><use xlink:href="#R" x="17.267"/><path d="M38.623 120.462l.08-.583h.612l.073.583zm-.852 0l.08-.583h.612l.073.583z"/></g><g class="p"><g class="q"><path d="M37.731 119.601l-.331-.494v-3.58l2.435.984v2.76l-.331.331z"/><path d="M38.019 115.845h1.385v3.265h-1.385z"/></g><path d="M39.836 119.27l-.432-.16m-1.385 0l-.425.284" class="n"/><path d="M38.019 117.116h1.385v.259h-1.385zm0 .394h1.385v.273h-1.385zm0 .394h1.385v.412h-1.385zm-.478 2.431c-.876-.092-1.934-.17-2.835.204l.576-3.717h1.384z" class="s"/><path d="M37.541 120.335c-.92-.143-1.945-.134-2.835.204.588.624 2.255.586 2.835-.204z" fill="url(#C)"/><path d="M37.541 120.335l-1.381-3.513m-1.066 3.592l.643-3.592" class="n"/><path d="M36.987 117.223c-.739-.396-1.587-.224-2.194.364v-1.553h2.194z" class="s"/><path d="M12.684 108.121v2.166m1.38-2.166v2.166m1.312-2.166v2.166m1.942-2.166v2.166m1.286-2.222v2.222m1.338-2.166v2.166m20.039-2.166v2.166m1.312-2.166v2.166m1.304-2.166v2.166m1.941-2.166v2.166m1.304-2.166v2.166m1.399-2.166v2.166m1.286-2.166v2.166m2.582-2.166v2.066m1.363-2.089v2.089m1.233-2.088v2.088m1.846-2.066v1.99m1.31-1.99v1.968" class="n"/><path d="M30.344 54.004h1.303v1.443h-1.303z" fill="#33c6f3"/><path d="M31.742 44.993v1.767l3.245.318-.315-1.924z" class="n"/><g class="z"><ellipse cx="32.441" cy="45.977" rx=".551" ry=".337"/><ellipse cx="34.381" cy="46.27" rx=".407" ry=".262"/></g><path d="M23.232 103.23h13.426V56.463c-4.475-.332-8.916-.402-13.426 0z" class="q"/><path d="M23.232 56.464V53.33m13.426 3.134v-2.901" class="n"/></g></g><g transform="matrix(.515603 0 0 .515603 -26.838653 -1.702144)"><circle cx="80.992" cy="206.72" r="4.731" fill="#00f"/><g class="o q"><path d="M83.266 207.511h-.609v-.109l.041-.001.072-.014.03-.014.014-.007.025-.019.021-.024.018-.029.007-.016.514-1.194-.06-.143h.546l.557 1.335.018.036.02.028.011.013.032.022.02.009.023.009.057.008.035.001v.109l-.134-.012-.248-.013h-.114-.132l-.26.013-.129.012v-.109l.056-.001.087-.014.046-.019.022-.017.015-.021.006-.023.001-.014v-.014l-.007-.03-.006-.015-.125-.307h-.562l-.034.08-.038.087-.033.078-.015.037-.01.023-.003.017-.002.016-.001.022.001.016.006.028.014.022.02.019.013.006.028.013.061.013.034.001h.029l.023-.004zm-.048-.585h.47l-.232-.583z"/><path d="M78.999 204.265l-.024.057-.021.063-.022.103-.01.078-.006.08v.176l.016.193.033.207.022.11.025.111.065.233.08.241.097.249.113.254.129.257.146.258.163.256.088.127.001.001.077.099.157.183.158.17.161.163.084.08.055-.06-.082-.078-.16-.16-.156-.168-.152-.18-.077-.097v-.001-.001h-.001 0l-.087-.125-.16-.253-.144-.254-.128-.253-.111-.249-.095-.245-.079-.238-.062-.228-.025-.109-.022-.108-.032-.202-.016-.187v-.169l.006-.075.008-.072.03-.124.032-.076.025-.043.028-.036.03-.03.017-.012h.001l.026-.019.057-.032.059-.027.063-.02.067-.015.07-.008.073-.002.076.003.039.004.081.011.168.041.177.063.184.086.095.051.096.055.195.126.199.146.201.165.201.182.201.199.199.216.196.231.096.122.095.123.18.249.167.253.154.253.139.252.124.249.106.242.09.235.036.115.034.111.051.214.031.2.008.139-.001.087-.003.043-.003.04-.012.077-.018.073-.022.067-.03.061-.034.057-.04.049-.047.045-.025.019-.034.023-.076.035-.084.022-.093.012h-.101l-.108-.01-.114-.019-.121-.027-.062-.017-.074-.022-.192-.073-.224-.099-.234-.113-.111-.06.048.043.103.078.106.071.109.063.163.08.199.081.084.027.065.02.125.032.122.021.115.011.111-.002.103-.014.096-.028.088-.042.04-.028.03-.023.054-.051.047-.058.039-.063.033-.07.025-.074.02-.081.013-.083.004-.045.002-.044.001-.092-.008-.147-.032-.207-.052-.219-.035-.115-.037-.116-.091-.239-.108-.247-.125-.252-.141-.254-.156-.256-.168-.255-.182-.253-.096-.125-.096-.123-.199-.233-.201-.218-.203-.202-.204-.184-.204-.168-.202-.149-.2-.128-.098-.057-.097-.052-.191-.089-.184-.065-.133-.034-.087-.016-.042-.006-.042-.004-.083-.003-.039.001-.059.003-.113.019-.107.034-.099.049-.046.032-.001.001h0l-.022.016-.039.037-.035.044z"/><path d="M80.446 208.012l-.102-.135-.051-.08-.031-.065-.007-.036.002-.017.005-.006.005-.005.017-.003.036.007.066.028.083.048.14.096.193.156.085.078.038.038.06.066.042.055.026.046.013.04.002.032-.008.028-.015.024-.01.011-.011.009-.023.016-.026.01-.033-.001-.04-.012-.048-.024-.057-.04-.068-.058-.039-.037-.081-.081zm-1.01-.407l.008-.019.014-.015.019-.007.012-.001.011.001.019.007.015.015.007.019.001.01-.001.012-.007.019-.015.014-.019.008-.011.001-.012-.001-.019-.008-.014-.014-.008-.019-.001-.012zm-1.52 1.055l.008-.019.014-.015.019-.008h.012.01l.019.008.015.015.007.019.001.011-.001.011-.007.019-.015.014-.019.009h-.01-.012l-.019-.009-.014-.014-.008-.019-.001-.011zm.448-.042l.007-.019.015-.014.019-.008.012-.001.011.001.019.008.015.014.007.019.001.012-.001.01-.007.019-.015.015-.019.008-.011.001-.012-.001-.019-.008-.015-.015-.007-.019-.001-.01zm-.056.236l.008-.019.015-.014.019-.008.01-.001.011.001.019.008.015.014.008.019v.012.01l-.008.019-.015.015-.019.008-.011.001-.01-.001-.019-.008-.015-.015-.008-.019v-.01zm.174.132l.008-.019.015-.014.019-.008.011-.001.011.001.019.008.015.014.008.019v.011.012l-.008.019-.015.013-.019.009-.011.001-.011-.001-.019-.009-.015-.013-.008-.019v-.012zm.534-.166l.009-.019.015-.015.019-.008h.011.011l.019.008.015.015.008.019v.011.01l-.008.019-.015.015-.019.009h-.011-.011l-.019-.009-.015-.015-.009-.019-.001-.01zm.442-.417l.007-.019.015-.015.019-.007.011-.001.012.001.019.007.014.015.008.019.001.011-.001.011-.008.019-.014.015-.019.008-.012.001-.011-.001-.019-.008-.015-.015-.007-.019-.001-.011zm.312.996l.007-.019.015-.015.019-.007.011-.001.012.001.019.007.014.015.008.019.001.011-.001.011-.008.02-.014.013-.019.009-.012.001-.011-.001-.019-.009-.015-.013-.007-.02-.001-.011zm-.059-.399l.008-.019.014-.015.019-.007.012-.001.011.001.019.007.015.015.007.019.001.011-.001.011-.007.019-.015.014-.019.009-.011.001-.012-.001-.019-.009-.014-.014-.008-.019-.001-.011zm-.393.316l.008-.019.015-.014.019-.009.01-.001.011.001.019.009.015.014.008.019v.011.011l-.008.019-.015.015-.019.007-.011.001-.01-.001-.019-.007-.015-.015-.008-.019v-.011zm1.381 0l.009-.019.015-.014.019-.009.011-.001.011.001.019.009.015.014.008.019v.011.011l-.008.019-.015.015-.019.007-.011.001-.011-.001-.019-.007-.015-.015-.009-.019v-.011zm.793-.282l.008-.019.015-.015.019-.007.011-.001.011.001.019.007.015.015.008.019v.011.01l-.008.02-.015.014-.019.009-.011.001-.011-.001-.019-.009-.015-.014-.008-.02v-.01zm1.196-.7l.007-.019.015-.014.019-.008.011-.001.012.001.019.008.015.014.007.019.001.012-.001.011-.007.019-.015.014-.019.008-.012.001-.011-.001-.019-.008-.015-.014-.007-.019-.001-.011zm.307-.237l.007-.019.015-.015.019-.008h.011.012l.019.008.015.015.007.019.001.011-.001.01-.007.02-.015.014-.019.009-.012.001-.011-.001-.019-.009-.015-.014-.007-.02-.001-.01zm-.003.288l.008-.019.015-.015.019-.007.011-.001.011.001.019.007.015.015.008.019v.012.01l-.008.019-.015.015-.019.008-.011.001-.011-.001-.019-.008-.015-.015-.008-.019v-.01zm-.301.422l.008-.019.015-.014.019-.009h.01.011l.019.009.015.014.009.019v.011.011l-.009.019-.015.015-.019.008h-.011-.01l-.019-.008-.015-.015-.008-.019v-.011zm.825-.945l.007-.019.015-.015.019-.007.011-.001.012.001.019.007.014.015.008.019.001.011-.001.01-.008.02-.014.014-.019.009-.012.001-.011-.001-.019-.009-.015-.014-.007-.02-.001-.01zm.099.214l.008-.019.014-.015.019-.008h.012.011l.019.008.015.015.007.019.001.011-.001.01-.007.019-.015.015-.019.009h-.011-.012l-.019-.009-.014-.015-.008-.019-.001-.01zm-.016.688l.007-.019.015-.014.019-.008.011-.001.012.001.019.008.014.014.008.019.001.012-.001.01-.008.019-.014.015-.019.008-.012.001-.011-.001-.019-.008-.015-.015-.007-.019-.001-.01zm-.755.977l.009-.019.015-.015.019-.007.011-.001.011.001.019.007.015.015.008.019v.011.01l-.008.02-.015.014-.019.009-.011.001-.011-.001-.019-.009-.015-.014-.009-.02v-.01zm1.057-.785l.007-.019.015-.014.019-.009.011-.001.011.001.02.009.014.014.009.019.001.011-.001.011-.009.019-.014.015-.02.007-.011.001-.011-.001-.019-.007-.015-.015-.007-.019-.001-.011zm.066-.537l.008-.019.015-.015.019-.007.011-.001.011.001.02.007.014.015.008.019.001.011-.001.011-.008.019-.014.014-.02.008-.011.002-.011-.002-.019-.008-.015-.014-.008-.019v-.011zm.209-.09l.007-.019.015-.015.019-.007.011-.001.011.001.02.007.014.015.008.019.001.011-.001.01-.008.02-.014.014-.02.009-.011.001-.011-.001-.019-.009-.015-.014-.007-.02-.001-.01zm-.599.644l.002.004.015.006.045.009.044.003.004.008.014.013.008.005.002.044.008.045.007.016.004.001.003-.001.007-.016.008-.045.003-.044.008-.005.013-.013.004-.008.044-.003.046-.009.015-.006.002-.004-.002-.005-.015-.006-.046-.008-.044-.004-.004-.008-.013-.013-.008-.005-.003-.043-.008-.046-.007-.016-.003-.001-.004.001-.007.016-.008.046-.002.043-.008.004-.014.014-.004.008-.044.004-.045.008-.015.006zm.365-.917l.001.004.016.008.045.008.044.002.004.009.014.013.008.005.003.044.009.046.006.014.004.002.003-.002.007-.014.008-.046.003-.044.008-.005.013-.013.005-.009.043-.002.046-.008.016-.008.001-.004-.001-.003-.016-.008-.046-.008-.043-.003-.005-.008-.013-.014-.008-.004-.003-.044-.008-.046-.007-.015-.003-.002-.004.002-.006.015-.009.046-.003.044-.008.004-.014.013-.004.009-.044.003-.045.008-.016.008zm-4.617 1.76l.001.003.016.008.045.008.044.004.004.008.013.013.008.004.003.044.008.046.007.015.003.002.004-.002.007-.015.008-.046.003-.044.007-.004.014-.013.004-.008.044-.004.046-.008.015-.008.001-.003-.001-.004-.015-.007-.046-.009-.044-.002-.004-.008-.014-.014-.007-.004-.003-.045-.008-.045-.007-.015-.004-.002-.003.002-.007.015-.008.045-.003.045-.008.004-.013.014-.004.008-.044.002-.045.009-.016.007zm.08-5.324l.008-.019.014-.015.019-.008.012-.001.011.001.019.008.015.015.007.019.001.01-.001.012-.007.019-.015.014-.019.008-.011.001-.012-.001-.019-.008-.014-.014-.008-.019-.001-.012zm.16.19l.007-.019.015-.014.019-.008.01-.001.012.001.019.008.014.014.009.019.001.012-.001.01-.009.019-.014.015-.019.008-.012.001-.01-.001-.019-.008-.015-.015-.007-.019-.001-.01zm.565-1.027l.008-.019.014-.015.02-.007.011-.001.011.001.019.007.015.015.007.019.001.011-.001.012-.007.019-.015.013-.019.009-.011.001-.011-.001-.02-.009-.014-.013-.008-.019-.001-.012zm.122.08l.009-.019.014-.014.019-.009.012-.001.011.001.019.009.015.014.007.019.001.011-.001.011-.007.019-.015.015-.019.007-.011.001-.012-.001-.019-.007-.014-.015-.009-.019-.001-.011zm.1.073l.008-.019.014-.015.019-.008.012-.001.011.001.019.008.015.015.007.019.001.011-.001.011-.007.019-.015.015-.019.007-.011.001-.012-.001-.019-.007-.014-.015-.008-.019-.001-.011zm-.166.132l.007-.019.015-.015.019-.008h.011.012l.019.008.014.015.008.019.001.011-.001.01-.008.019-.014.015-.019.009h-.012-.011l-.019-.009-.015-.015-.007-.019-.001-.01zm.614-.25l.008-.019.014-.015.019-.008h.012.011l.019.008.015.015.008.019.001.011-.001.01-.008.019-.015.015-.019.009h-.011-.012l-.019-.009-.014-.015-.008-.019-.001-.01zm.367.184l.009-.02.015-.013.019-.009.011-.001.011.001.019.009.015.013.008.02v.011.011l-.008.019-.015.014-.019.008-.011.001-.011-.001-.019-.008-.015-.014-.009-.019v-.011zm-.019-.491l.008-.019.014-.014.02-.008.011-.001.011.001.019.008.015.014.008.019v.012.01l-.008.019-.015.015-.019.008-.011.001-.011-.001-.02-.008-.014-.015-.008-.019-.001-.01zm-.457-.053l.008-.019.014-.015.019-.007.012-.001.011.001.019.007.015.015.007.019.001.011-.001.012-.007.019-.015.013-.019.009-.011.001-.012-.001-.019-.009-.014-.013-.008-.019-.001-.012zm.252-.457l.007-.019.015-.015.019-.008h.011.012l.019.008.014.015.008.019.001.011-.001.01-.008.019-.014.015-.019.008h-.012-.011l-.019-.008-.015-.015-.007-.019-.001-.01zm1.359 2l.007-.019.015-.014.019-.009.011-.001.012.001.019.009.014.014.008.019.001.011-.001.011-.008.019-.014.015-.019.007-.012.001-.011-.001-.019-.007-.015-.015-.007-.019-.001-.011zm-.655-1.574l.001.003.016.007.045.009.043.003.005.008.013.013.008.005.003.044.008.045.007.016.003.001.004-.001.007-.016.008-.045.002-.044.008-.005.014-.013.004-.008.044-.003.044-.009.016-.007.001-.003-.001-.005-.016-.006-.044-.009-.044-.003-.004-.008-.014-.013-.008-.005-.002-.044-.008-.045-.007-.016-.004-.001-.003.001-.007.016-.008.044-.003.045-.008.004-.013.014-.005.008-.043.003-.045.009-.016.006zm-1.91 1.294l.001.003.016.008.045.008.044.003.004.009.013.013.008.004.003.044.008.046.007.016.003.001.004-.001.007-.016.008-.046.003-.044.007-.004.014-.013.004-.009.044-.003.046-.008.015-.008.001-.003-.001-.004-.015-.007-.046-.009-.044-.002-.004-.009-.014-.013-.007-.005-.003-.044-.008-.045-.007-.015-.004-.002-.003.002-.007.015-.008.045-.003.044-.008.005-.013.013-.004.009-.044.002-.045.009-.016.007zm2.022-.345l.008-.019.015-.014.019-.008.011-.001.012.001.019.008.014.014.008.019.001.012-.001.01-.008.019-.014.015-.019.008-.012.001-.011-.001-.019-.008-.015-.015-.008-.019-.001-.01z"/></g><path d="M78.906 209.093l-.204.177-.2.18-.194.184-.188.187-.182.191-.176.195-.168.199-.082.102.115-.109.232-.214.351-.31.472-.394.477-.376.478-.359.477-.344.715-.493.931-.624.675-.452.437-.298.423-.298.407-.299.39-.304.371-.309.176-.158.127-.116.257-.252.242-.261.228-.268.211-.276.145-.214.092-.146.088-.149.083-.152.077-.154.073-.158.034-.08-.131.138-.27.266-.279.25-.288.236-.295.223-.303.21-.308.199-.315.187-.32.178-.324.167-.328.16-.331.152-.333.145-.336.138-.505.198-1.012.371-.994.351-.646.237-.471.183-.306.125-.301.13-.293.134-.285.14-.277.146-.267.153-.257.161-.125.085.112-.057.228-.108.23-.102.234-.096.356-.136.484-.163.492-.149.501-.14.76-.2.769-.2.513-.141.513-.151.51-.166.381-.137.252-.098.251-.104.249-.11.247-.116.246-.125.242-.133.24-.142.122-.077-.195.169-.408.328-.426.32-.44.316-.679.468-.927.621-.694.472-.456.322-.447.328-.435.337z" fill="red" class="o"/><path d="M77.596 207.397l.03-.014.023-.024.01-.015.008-.015.013-.035.012-.06.002-.045v-.923l-.001-.027-.004-.047-.01-.041-.015-.034-.02-.027-.024-.021-.029-.013-.035-.007h-.019-.021l-.024.004v-.112l.089.011.174.012.086.001.087-.001.172-.012.086-.011.828.936v-.611-.027l-.006-.047-.012-.041-.017-.034-.023-.027-.029-.021-.035-.013-.041-.007h-.022-.032l-.028.004v-.112l.081.008.078.006.072.004h.048.073l.146-.01.073-.008v.114l-.024-.004h-.015-.017l-.032.006-.029.013-.025.018-.013.013-.011.012-.017.034-.012.042-.006.049v.028 1.245h-.241l-1.08-1.199v.874l.001.029.006.052.014.043.019.033.013.013.014.012.03.019.033.013.035.006H78l.033-.001.029-.005v.111l-.074-.009-.143-.008h-.069-.067l-.142.008-.076.009v-.109l.02.004h.03.02zm2.33.114h-.609v-.109l.041-.001.072-.014.03-.014.014-.007.024-.019.022-.024.017-.029.008-.016.514-1.194-.06-.143h.546l.557 1.335.017.036.02.028.012.013.032.022.02.009.022.009.058.008.035.001v.109l-.135-.012-.248-.013h-.114-.132l-.26.013-.129.012v-.109l.056-.001.087-.014.046-.019.022-.017.014-.021.007-.023.001-.014-.001-.014-.006-.03-.006-.015-.126-.307h-.561l-.034.08-.038.087-.033.078-.015.037-.01.023-.003.017-.003.016v.022l.001.016.006.028.014.022.02.019.013.006.028.013.061.013.034.001h.029l.023-.004zm-.048-.585h.47l-.233-.583zm1.842.477l.047.016.053.011.056.006h.031.026l.05-.008.042-.015.038-.021.016-.014.015-.014.024-.033.016-.037.007-.042.001-.022-.001-.019-.006-.037-.012-.034-.019-.031-.012-.014-.008-.01-.034-.026-.025-.017-.071-.047-.138-.09-.142-.093-.088-.062-.035-.027-.052-.043-.015-.018-.025-.032-.038-.067-.026-.072-.013-.075-.001-.039.001-.039.014-.08.013-.04.016-.039.044-.073.03-.034.016-.017.037-.03.042-.027.048-.024.026-.011.026-.01.059-.015.066-.011.07-.004.038-.001.063.001.054.004.049.005.035.008.035.007.046.013.043.011.028.009.039.012.025.002h.016l.023-.007.009-.006.009-.006.008-.015.001-.01.091-.011.034.434h-.097l-.006-.03-.021-.06-.016-.03-.018-.029-.046-.055-.029-.026-.03-.024-.067-.041-.037-.015-.039-.014-.082-.015-.043-.001h-.021l-.038.005-.035.011-.031.016-.014.01-.013.012-.02.024-.014.028-.006.029v.017l.001.028.015.046.014.021.017.02.044.039.029.019.075.046.141.083.063.035.11.068.048.033.044.031.071.061.026.028.023.029.036.058.014.031.011.031.016.071.003.041.002.019v.03.038l-.011.071-.02.066-.03.061-.019.028-.02.027-.048.05-.056.044-.063.036-.035.016-.036.014-.076.023-.082.014-.088.008-.046.001-.043-.001-.051-.003-.054-.006-.066-.01-.069-.013-.069-.017-.039-.007-.033-.001h-.012l-.018.004-.012.009-.006.013v.01h-.096l-.064-.47h.107l.019.059.046.103.028.044.014.02.032.038.036.032.038.028.021.01z" class="q o"/><path d="M80.116 208.402l-.477.344-.478.359-.477.376-.472.394-.351.31-.232.214-.115.109.082-.102.168-.199.176-.195.182-.191.188-.187.194-.184.2-.18.204-.177.316-.259.435-.337.447-.328.456-.322.694-.472.927-.621.679-.468.44-.316.426-.32.408-.328.195-.169.44-.102-.127.116-.176.158-.371.309-.39.304-.407.299-.423.298-.437.298-.675.452-.931.624z" fill="red" class="o"/><use xlink:href="#S" class="q"/><use xlink:href="#S" y="-0.507" fill="red"/><use xlink:href="#S" y="-1.013" class="q"/><use xlink:href="#S" y="-1.519" fill="red"/><use xlink:href="#S" y="-2.026" class="q"/><use xlink:href="#S" y="-2.532" fill="red"/><use xlink:href="#S" y="-3.038" class="q"/><use xlink:href="#S" y="-3.545" fill="red"/><use xlink:href="#S" y="-4.051" class="q"/><use xlink:href="#S" y="-4.557" fill="red"/><use xlink:href="#S" y="-5.064" class="q"/><use xlink:href="#S" y="-5.57" fill="red"/><path d="M134.003 203.261h5.029v3.044h-5.029z" fill="#006"/><g class="q"><path d="M134.848 205.632l.165-.001-.134.098.052.157-.134-.098-.135.098.052-.157-.134-.098.166.001.051-.158zm.878 0l.165-.001-.134.098.052.157-.135-.098-.133.098.051-.157-.134-.098.166.001.05-.158zm.878 0l.165-.001-.134.098.052.157-.134-.098-.135.098.052-.157-.134-.098.165.001.052-.158zm.878 0l.165-.001-.134.098.052.157-.135-.098-.134.098.052-.157-.134-.098.166.001.05-.158zm.877 0l.166-.001-.134.098.052.157-.134-.098-.135.098.052-.157-.134-.098.165.001.052-.158zm-3.511-.623h.165l-.134.097.052.158-.134-.098-.135.098.052-.158-.134-.097h.166l.051-.158zm.878 0h.165l-.134.097.052.158-.135-.098-.133.098.051-.158-.134-.097h.166l.05-.158zm.878 0h.165l-.134.097.052.158-.134-.098-.135.098.052-.158-.134-.097h.165l.052-.158z"/><path d="M137.482 205.009h.165l-.134.097.052.158-.135-.098-.134.098.052-.158-.134-.097h.166l.05-.158zm.877 0h.166l-.134.097.052.158-.134-.098-.135.098.052-.158-.134-.097h.165l.052-.158zm-3.511-.604h.165l-.134.097.052.157-.134-.097-.135.097.052-.157-.134-.097h.166l.051-.158zm.878 0h.165l-.134.097.052.157-.135-.097-.133.097.051-.157-.134-.097h.166l.05-.158zm.878 0h.165l-.134.097.052.157-.134-.097-.135.097.052-.157-.134-.097h.165l.052-.158z"/><path d="M137.482 204.405h.165l-.134.097.052.157-.135-.097-.134.097.052-.157-.134-.097h.166l.05-.158zm.877 0h.166l-.134.097.052.157-.134-.097-.135.097.052-.157-.134-.097h.165l.052-.158zm-3.511-.61l.165-.001-.134.097.052.158-.134-.098-.135.098.052-.158-.134-.097.166.001.051-.158zm.878 0l.165-.001-.134.097.052.158-.135-.098-.133.098.051-.158-.134-.097.166.001.05-.158zm.878 0l.165-.001-.134.097.052.158-.134-.098-.135.098.052-.158-.134-.097.165.001.052-.158z"/><path d="M137.482 203.795l.165-.001-.134.097.052.158-.135-.098-.134.098.052-.158-.134-.097.166.001.05-.158zm.877 0l.166-.001-.134.097.052.158-.134-.098-.135.098.052-.158-.134-.097.165.001.052-.158z"/><use xlink:href="#T"/><use xlink:href="#U"/><use xlink:href="#U" x="0.878"/><use xlink:href="#U" x="1.756"/><use xlink:href="#U" x="2.634"/><use xlink:href="#U" x="3.512"/><use xlink:href="#V"/><use xlink:href="#V" x="0.878"/><use xlink:href="#V" x="1.756"/><use xlink:href="#V" x="2.634"/><use xlink:href="#V" x="3.512"/><use xlink:href="#V" x="4.39"/><use xlink:href="#U" x="-0.878" y="-1.219"/><use xlink:href="#U" y="-1.219"/><use xlink:href="#U" x="0.878" y="-1.219"/><use xlink:href="#U" x="1.756" y="-1.219"/><use xlink:href="#U" x="2.634" y="-1.219"/><use xlink:href="#U" x="3.512" y="-1.219"/><use xlink:href="#U" x="-0.878" y="-1.814"/><use xlink:href="#U" y="-1.814"/><use xlink:href="#U" x="0.878" y="-1.814"/><use xlink:href="#U" x="1.756" y="-1.814"/><use xlink:href="#U" x="2.634" y="-1.814"/><use xlink:href="#U" x="3.512" y="-1.814"/><use xlink:href="#T" y="-2.452"/><use xlink:href="#T" x="0.878" y="-2.452"/><use xlink:href="#T" x="1.756" y="-2.452"/><use xlink:href="#T" x="2.634" y="-2.452"/><use xlink:href="#T" x="3.512" y="-2.452"/><use xlink:href="#T" x="4.39" y="-2.452"/></g></g><path d="M42.986 107.166l.103.103h.312l.103-.103v-.131h-.124v.068l-.042.042h-.187l-.041-.042v-.39l.042-.042h.187l.042.042v.068h.124v-.131l-.103-.103h-.312l-.103.103zm.625 0l.103.103h.312l.103-.103v-.515l-.103-.103h-.312l-.103.103zm.124-.452l.042-.042h.187l.042.042v.39l-.042.042h-.187l-.042-.042zm.501-.166h.124v.597h.356v.124h-.481zm.587.618l.103.103h.312l.103-.103v-.618h-.124v.555l-.042.042h-.187l-.041-.042v-.556h-.125zm.625-.618h.177l.168.48.168-.48h.178v.722h-.124v-.514l-.168.514h-.107l-.168-.514v.514h-.124zm.798.722h.416l.103-.103v-.193l-.064-.064.064-.064v-.193l-.103-.103h-.416zm.124-.597h.229l.042.042v.091l-.042.042h-.229zm0 .299h.229l.042.042v.091l-.042.042h-.229zm.501-.423h.124v.722h-.124zm.199.722l.215-.722h.155l.214.722h-.129l-.048-.159h-.231l-.047.159zm.212-.283h.16l-.08-.268z" class="o"/><path d="M23.227 68.155h13.426v.197H23.227zm0 11.808h13.426v.219H23.227zm0 11.803h13.426v.191H23.227z" fill="#666" class="p x"/><path d="M29.764 56.188v47.042h.361V56.188z" fill="#666"/><path d="M30.125 103.246h-.361v-.033h.361l.017.016zm.017-.016v.016h-.017zm0-47.042v47.042h-.033V56.188l.017-.016zm-.017-.016h.017v.016zm-.361 0h.361v.033h-.361l-.017-.016zm-.017.016v-.016h.017zm0 47.042V56.188h.033v47.042l-.017.016zm.017.016h-.017v-.016z" class="o"/><g class="p x"><path d="M26.706 39.237a6.46 6.46 0 0 1 6.482 0L32 36.043a7.85 7.85 0 0 0-4.065 0l-1.23 3.194z" class="s"/><g class="z"><circle cx="29.165" cy="41.327" r=".333"/><circle cx="30.788" cy="41.327" r=".333"/><ellipse cx="29.993" cy="41.39" rx=".241" ry=".399"/><path d="M31.75 35.556c-.51-.885-1.209-1.511-1.808-1.528-.671.018-1.301.789-1.75 1.521 1.179-.316 2.417-.298 3.558.008z"/></g><path d="M27.935 36.043c1.354-.363 2.756-.351 4.065 0l-.254-.495a6.8 6.8 0 0 0-3.53 0l-.281.495z" fill="#c3c3c3"/><path d="M28.733 37.719h2.471v2.001h-2.471z" class="q"/></g><use xlink:href="#W" class="z"/><path d="M29.512 38.602h-.033 0v-.038l-.001-.038-.002-.037-.003-.037-.003-.036-.004-.035-.005-.034-.005-.034-.006-.033-.007-.032-.007-.031-.008-.03-.008-.029-.009-.028-.009-.027-.01-.026-.01-.024-.011-.023-.011-.022-.011-.02-.012-.019-.012-.017-.012-.016-.013-.014-.013-.013-.013-.011-.013-.009-.013-.008-.013-.006-.013-.004-.013-.003-.013-.001v-.033l.018.001.017.003.017.005.016.007.016.009.015.011.015.013.015.014.014.016.014.017.013.019.013.02.012.022.012.023.011.024.011.025.01.027.01.028.009.029.009.03.008.031.007.032.007.033.006.034.005.034.005.035.004.036.004.037.003.037.002.038.001.038v.039h0zm-.317.765v-.033h0l.013-.001.013-.003.013-.004.013-.006.013-.008.013-.009.013-.011.013-.013.013-.014.012-.016.012-.017.012-.019.011-.02.011-.022.011-.023.01-.024.01-.026.009-.027.009-.028.008-.029.008-.03.007-.031.007-.032.006-.033.005-.034.005-.034.004-.035.003-.036.003-.037.002-.037.001-.038v-.038h.033v.039l-.001.038-.002.038-.003.037-.004.037-.004.036-.005.035-.005.034-.006.034-.007.033-.007.032-.008.031-.009.03-.009.029-.01.028-.01.027-.011.025-.011.024-.012.023-.012.022-.013.02-.013.019-.014.017-.014.016-.015.014-.015.013-.015.011-.016.009-.016.007-.017.005-.017.003-.018.001h0zm-.317-.765h.033 0v.038l.001.038.002.037.003.037.004.036.004.035.005.034.005.034.006.033.007.032.007.031.008.03.008.029.009.028.009.027.01.026.01.024.011.023.011.022.011.02.012.019.012.017.012.016.013.014.013.013.013.011.013.009.013.008.013.006.013.004.013.003.013.001v.033l-.018-.001-.017-.003-.017-.005-.016-.007-.016-.009-.015-.011-.015-.013-.015-.014-.014-.016-.014-.017-.013-.019-.013-.02L29 39.21l-.012-.023-.011-.024-.011-.025-.01-.027-.01-.028-.009-.029-.009-.03-.008-.031-.007-.032-.007-.033-.006-.034-.005-.034-.005-.035-.004-.036-.004-.037-.003-.037-.002-.038-.001-.038v-.039h0zm.317-.766v.033h0l-.013.001-.013.003-.013.004-.013.006-.013.008-.013.009-.013.011-.013.013-.013.014-.012.016-.012.017-.012.019-.011.02-.011.022-.011.023-.01.024-.01.026-.009.027-.009.028-.008.029-.008.03-.007.031-.007.032-.006.033-.005.034-.005.034-.004.035-.004.036-.003.037-.002.037-.001.038v.038h-.033v-.039l.001-.038.002-.038.003-.037.004-.037.004-.036.005-.035.005-.034.006-.034.007-.033.007-.032.008-.031.009-.03.009-.029.01-.028.01-.027.011-.025.011-.024.012-.023.012-.022.013-.02.013-.019.014-.017.014-.016.015-.014.015-.013.015-.011.016-.009.016-.007.017-.005.017-.003.018-.001h0z" class="o"/><use xlink:href="#W" x="0.778" class="z"/><path d="M30.29 38.602h-.033 0v-.038l-.001-.038-.002-.037-.003-.037-.004-.036-.004-.035-.005-.034-.005-.034-.006-.033-.007-.032-.007-.031-.008-.03-.008-.029-.009-.028-.009-.027-.01-.026-.01-.024-.011-.023-.011-.022-.011-.02-.012-.019-.012-.017-.012-.016-.013-.014-.013-.013-.013-.011-.013-.009-.013-.008-.013-.006-.013-.004-.013-.003-.013-.001v-.033l.018.001.017.003.017.005.016.007.016.009.015.011.015.013.015.014.014.016.014.017.013.019.013.02.012.022.012.023.011.024.011.025.01.027.01.028.009.029.009.03.008.031.007.032.007.033.006.034.005.034.005.035.004.036.004.037.003.037.002.038.001.038v.039h0zm-.317.765v-.033h0l.013-.001.013-.003.013-.004.013-.006.013-.008.013-.009.013-.011.013-.013.013-.014.012-.016.012-.017.012-.019.011-.02.011-.022.011-.023.01-.024.01-.026.009-.027.009-.028.008-.029.008-.03.007-.031.007-.032.006-.033.005-.034.005-.034.004-.035.004-.036.003-.037.002-.037.001-.038v-.038h.033v.039l-.001.038-.002.038-.003.037-.004.037-.004.036-.005.035-.005.034-.006.034-.007.033-.007.032-.008.031-.009.03-.009.029-.01.028-.01.027-.011.025-.011.024-.012.023-.012.022-.013.02-.013.019-.014.017-.014.016-.015.014-.015.013-.015.011-.016.009-.016.007-.017.005-.017.003-.018.001h0zm-.317-.765h.033 0v.038l.001.038.002.037.003.037.004.036.004.035.005.034.005.034.006.033.007.032.007.031.008.03.008.029.009.028.009.027.01.026.01.024.011.023.011.022.011.02.012.019.012.017.012.016.013.014.013.013.013.011.013.009.013.008.013.006.013.004.013.003.013.001v.033l-.018-.001-.017-.003-.017-.005-.016-.007-.016-.009-.015-.011-.015-.013-.015-.014-.014-.016-.014-.017-.013-.019-.013-.02-.012-.022-.012-.023-.011-.024-.011-.025-.01-.027-.01-.028-.009-.029-.009-.03-.008-.031-.007-.032-.007-.033-.006-.034-.005-.034-.005-.035-.004-.036-.004-.037-.003-.037-.002-.038-.001-.038v-.039h0zm.317-.766v.033h0l-.013.001-.013.003-.013.004-.013.006-.013.008-.013.009-.013.011-.013.013-.013.014-.012.016-.012.017-.012.019-.011.02-.011.022-.011.023-.01.024-.01.026-.009.027-.009.028-.008.029-.008.03-.007.031-.007.032-.006.033-.005.034-.005.034-.004.035-.004.036-.003.037-.002.037-.001.038v.038h-.033v-.039l.001-.038.002-.038.003-.037.004-.037.004-.036.005-.035.005-.034.006-.034.007-.033.007-.032.008-.031.009-.03.009-.029.01-.028.01-.027.011-.025.011-.024.012-.023.012-.022.013-.02.013-.019.014-.017.014-.016.015-.014.015-.013.015-.011.016-.009.016-.007.017-.005.017-.003.018-.001h0z" class="o"/><use xlink:href="#W" x="1.556" class="z"/><path d="M31.068 38.602h-.033 0v-.038l-.001-.038-.002-.037-.003-.037-.004-.036-.004-.035-.005-.034-.005-.034-.006-.033-.007-.032-.007-.031-.008-.03-.008-.029-.009-.028-.009-.027-.01-.026-.01-.024-.011-.023-.011-.022-.011-.02-.012-.019-.012-.017-.012-.016-.013-.014-.013-.013-.013-.011-.013-.009-.013-.008-.013-.006-.013-.004-.013-.003-.013-.001v-.033l.018.001.017.003.017.005.016.007.016.009.015.011.015.013.015.014.014.016.014.017.013.019.013.02.012.022.012.023.011.024.011.025.01.027.01.028.009.029.009.03.008.031.007.032.007.033.006.034.005.034.005.035.004.036.004.037.003.037.002.038.001.038v.039h0zm-.317.765v-.033h0l.013-.001.013-.003.013-.004.013-.006.013-.008.013-.009.013-.011.013-.013.013-.014.012-.016.012-.017.012-.019.011-.02.011-.022.011-.023.01-.024.01-.026.009-.027.009-.028.008-.029.008-.03.007-.031.007-.032.006-.033.005-.034.005-.034.004-.035.004-.036.003-.037.002-.037.001-.038v-.038h.033v.039l-.001.038-.002.038-.003.037-.004.037-.004.036-.005.035-.005.034-.006.034-.007.033-.007.032-.008.031-.009.03-.009.029-.01.028-.01.027-.011.025-.011.024-.012.023-.012.022-.013.02-.013.019-.014.017-.014.016-.015.014-.015.013-.015.011-.016.009-.016.007-.017.005-.017.003-.018.001h0zm-.317-.765h.033 0v.038l.001.038.002.037.003.037.003.036.004.035.005.034.005.034.006.033.007.032.007.031.008.03.008.029.009.028.009.027.01.026.01.024.011.023.011.022.011.02.012.019.012.017.012.016.013.014.013.013.013.011.013.009.013.008.013.006.013.004.013.003.013.001v.033l-.018-.001-.017-.003-.017-.005-.016-.007-.016-.009-.015-.011-.015-.013-.015-.014-.014-.016-.014-.017-.013-.019-.013-.02-.012-.022-.012-.023-.011-.024-.011-.025-.01-.027-.01-.028-.009-.029-.009-.03-.008-.031-.007-.032-.007-.033-.006-.034-.005-.034-.005-.035-.004-.036-.004-.037-.003-.037-.002-.038-.001-.038v-.039h0zm.317-.766v.033h0l-.013.001-.013.003-.013.004-.013.006-.013.008-.013.009-.013.011-.013.013-.013.014-.012.016-.012.017-.012.019-.011.02-.011.022-.011.023-.01.024-.01.026-.009.027-.009.028-.008.029-.008.03-.007.031-.007.032-.006.033-.005.034-.005.034-.004.035-.003.036-.003.037-.002.037-.001.038v.038h-.033v-.039l.001-.038.002-.038.003-.037.004-.037.004-.036.005-.035.005-.034.006-.034.007-.033.007-.032.008-.031.009-.03.009-.029.01-.028.01-.027.011-.025.011-.024.012-.023.012-.022.013-.02.013-.019.014-.017.014-.016.015-.014.015-.013.015-.011.016-.009.016-.007.017-.005.017-.003.018-.001h0z" class="o"/><g class="x"><g class="p"><ellipse cx="29.973" cy="38.82" rx=".142" ry=".53"/><path d="M25.546 42.981a17.28 17.28 0 0 1 8.797-.004l-.109-.424c-.874-.234-1.748-.398-2.624-.49l-.233-1.426h-2.826l-.211 1.419c-.89.09-1.786.255-2.69.497zm5.74-.949c-.871-.074-1.744-.076-2.623-.005l.181-1.166h2.242z" class="s"/><path d="M36.191 56.431l-1.347-7.789c-3.28-.208-6.56-.153-9.84 0l-1.302 7.783" class="n"/><path d="M25.146 51.807c.394.297 1.063.013 1.561-.184.034 0 .147-1.394.182-1.395.443.16.736-.525 1.216-.821.174.492 1 .63 1.851.606.978.039 1.57-.192 1.859-.608.214.077.855 1.06 1.205.823.193 0 .028 1.395.221 1.395.441.173 1.131.518 1.526.184v-2.16l-.411-.157v-.569c-.31-.227-.662-.458-1.111-.453-1.076-.454-2.104-.972-3.12-1.6-.034-.021-.117-.033-.168-.034a.39.39 0 0 0-.172.029c-1.025.595-2.048 1.119-3.121 1.601-.463.059-.877.248-1.125.501v.525l-.402.151.009 2.167z" class="z"/><path d="M25.54 49.489l1.349.739m1.217-.821l-.415-1.425m4.138 1.429l.355-1.42m.837 2.237l1.336-.739" class="n"/><g fill="#0ff"><path d="M25.323 51.711l1.172-.175a5.22 5.22 0 0 0 .166-1.216l-1.102-.582c-.079-.031-.157-.043-.236-.021zm9.244 0l-1.172-.175a5.23 5.23 0 0 1-.166-1.216l1.102-.582c.079-.031.157-.043.236-.021z"/><path d="M25.803 49.025v.385l1.294.639.84-.743-.306-1.015zm8.298 0v.385l-1.294.639-.84-.743.306-1.015zm-4.695-1.557l-1.439.765.319.822c.369-.006.799-.16 1.041-.7zm1.109 0l1.439.765-.319.822c-.369-.006-.799-.16-1.041-.7z"/></g><path d="M.287 107.359c.434-2.082 1.057-4.123 2.277-5.9 4.464-4.585 8.91-9.152 13.024-13.964l1.928-3.056.543-1.318.842-4.55h1.263l-1.159 6.385-1.574 3.892L2.758 104.21l-1.334 3.597zm59.28-.064c-.399-2.049-.979-4.148-2.334-5.836L44.265 87.495l-1.877-3.056-.541-1.318L41 78.566h-1.225l1.115 6.363 1.618 3.892 14.607 15.389 1.334 3.591z" class="z"/><path d="M36.658 56.464c-4.475-.332-8.916-.402-13.426 0v.182c4.51-.402 8.951-.332 13.426 0z" fill="#666"/></g><g stroke="#666" class="n"><path d="M.96 107.624l1.304-3.915 14.52-15.394 1.531-3.586 1.22-6.158"/><path d="M18.616 80.13l1.238.158m-1.52 1.359l1.233.224M18.06 83.12l1.239.225m-1.782 1.093l1.506.43m-2.211.687l1.586.906m-2.246.14l1.764 1.05m-2.269-.249l1.786 1.446m-2.792-.256l1.524 1.583m-2.769-.171l1.454 1.547m-2.556-.322l1.392 1.541m-2.567-.258l1.418 1.46m-2.613-.174l1.453 1.388m-2.705-.058l1.444 1.38m-2.686-.075l1.497 1.32m-2.74-.027l1.516 1.308m-2.672-.114l1.454 1.389m-2.688-.118l1.464 1.398m-2.696-.132l1.476 1.41m-2.456.325l1.175 1.018m-1.787.537l1.449.373m-1.849.999l1.334.39m56.987 1.05l-1.304-3.915L43.07 88.25l-1.53-3.586-1.22-6.158"/><path d="M41.238 80.066l-1.237.158m1.519 1.358l-1.232.224m1.506 1.249l-1.239.225m1.783 1.093l-1.506.429m2.211.688l-1.586.906m2.246.141l-1.764 1.05m2.269-.25l-1.786 1.446m2.792-.256L43.69 90.11m2.768-.171l-1.455 1.547m2.558-.321l-1.392 1.541m2.566-.258l-1.418 1.46m2.613-.174l-1.453 1.388m2.705-.058l-1.444 1.379m2.687-.075l-1.497 1.32m2.74-.026l-1.516 1.308m2.671-.114l-1.453 1.388m2.687-.117l-1.464 1.398m2.696-.132l-1.476 1.41m2.457.324l-1.175 1.018m1.786.537l-1.449.373m1.849.999l-1.334.391"/></g></g><path d="M20.156 116.536c.909-.616 5.553-.252 7.189.12.372-4.251 1.312-10.536-.459-12.885h-4.204c-2.001 2.199-2.865 8.423-2.526 12.765z" class="q"/><path d="M27.329 116.655l.033.003-.02.015-.162-.035-.178-.035-.193-.034-.207-.034-.22-.033-.231-.032-.242-.031-.251-.029-.258-.028-.265-.026-.27-.025-.274-.022-.277-.02-.279-.018-.279-.015-.278-.013-.276-.01-.272-.007-.268-.004h-.262l-.255.004-.247.007-.237.011-.226.015-.214.02-.201.024-.186.029-.17.034-.153.039-.135.044-.115.049-.094.054-.019-.027.098-.056.118-.05.137-.044.155-.039.172-.034.187-.029.202-.024.215-.02.227-.015.238-.011.247-.007.255-.004h.262l.268.004.273.007.276.01.278.013.279.015.279.018.277.02.275.023.27.025.265.026.259.028.251.03.242.031.232.032.22.033.208.034.194.034.179.035.162.035-.02.015zm.033.003l-.002.019-.019-.004.02-.015zm-.476-12.87v-.033l.013.007.159.233.144.255.129.275.114.295.101.314.088.331.076.348.064.363.053.377.042.39.032.402.023.414.014.423.006.432-.001.44-.008.447-.014.452-.02.457-.025.46-.03.462-.033.463-.037.463-.039.462-.041.46-.043.457-.044.453-.044.448-.044.441-.043.434-.041.425-.039.415-.036.404-.033-.003.036-.404.039-.415.041-.425.043-.434.044-.441.044-.448.044-.453.043-.457.041-.46.039-.462.037-.463.033-.463.03-.462.025-.46.02-.456.014-.452.008-.446.001-.439-.006-.432-.014-.423-.023-.413-.032-.402-.042-.389-.053-.376-.064-.362-.075-.346-.088-.33-.1-.312-.114-.293-.128-.273-.142-.252-.157-.23.013.007zm0-.033h.008l.005.007-.013-.007zm-4.204 0h4.204v.033h-4.204l-.012-.027zm-.012.005l.005-.005h.007zm-2.523 12.762l.019.027-.026-.012-.028-.413-.021-.423-.014-.431-.007-.439v-.446l.007-.452.014-.456.021-.46.028-.462.035-.463.042-.463.049-.462.055-.461.062-.458.069-.453.076-.448.083-.442.09-.435.097-.426.103-.417.11-.406.117-.394.124-.382.131-.368.137-.353.144-.337.151-.32.158-.302.165-.283.171-.262.178-.241.185-.219.025.022-.184.217-.177.239-.17.261-.164.281-.157.301-.151.319-.144.336-.137.352-.13.367-.124.381-.117.394-.11.405-.103.416-.097.426-.09.434-.083.441-.076.448-.069.453-.062.457-.055.46-.049.462-.042.463-.035.463-.028.461-.021.459-.014.456-.007.451v.445l.007.439.014.431.021.422.028.412zm.019.027l-.024.016-.002-.028z" class="o"/><path d="M39.709 116.536c-.909-.616-5.553-.252-7.189.12-.372-4.251-1.312-10.536.459-12.885h4.204c2.001 2.199 2.865 8.423 2.526 12.765z" class="q"/><path d="M32.536 116.655l-.02-.015.162-.035.179-.035.194-.034.208-.034.22-.033.232-.032.242-.031.251-.03.259-.028.265-.026.27-.025.275-.023.277-.02.279-.018.279-.015.278-.013.276-.01.273-.007.268-.004h.262l.255.004.247.007.238.011.227.015.215.02.202.024.187.029.172.034.155.039.137.044.118.05.098.056-.019.027-.094-.054-.115-.049-.135-.044-.153-.039-.17-.034-.186-.029-.201-.024-.214-.02-.226-.015-.237-.011-.247-.007-.255-.004h-.262l-.268.004-.272.007-.276.01-.278.013-.279.015-.279.018-.277.02-.274.022-.27.025-.265.026-.258.028-.251.029-.242.031-.231.032-.22.033-.207.034-.193.034-.178.035-.162.035-.02-.015.033-.003zm-.013.017l-.019.004-.002-.019.02.015zm.455-12.885l.013-.007-.157.23-.142.252-.128.273-.114.293-.1.312-.088.33-.075.346-.064.362-.053.376-.042.389-.032.402-.023.413-.014.423-.006.432.001.439.008.446.014.452.02.456.025.46.03.462.033.463.037.463.039.462.041.46.043.457.044.453.044.448.044.441.043.434.041.425.039.415.036.404-.033.003-.036-.404-.039-.415-.041-.425-.043-.434-.044-.441-.044-.448-.044-.453-.043-.457-.041-.46-.039-.462-.037-.463-.033-.463-.03-.462-.025-.46-.02-.457-.014-.452-.008-.447-.001-.44.006-.432.014-.423.023-.413.032-.403.042-.39.053-.377.064-.363.076-.348.088-.331.101-.314.115-.295.129-.275.144-.255.159-.233.013-.007v.033zm-.013-.026l.005-.007h.008l-.013.007zm4.217-.007l.012.005-.012.027h-4.204v-.033zm0 0h.007l.005.005-.012-.005zm2.535 12.768l-.026.012.028-.412.021-.422.014-.431.007-.439v-.445l-.007-.451-.014-.456-.021-.459-.028-.461-.035-.463-.042-.463-.048-.462-.055-.46-.062-.457-.069-.453-.076-.448-.083-.441-.09-.434-.097-.426-.103-.416-.11-.405-.117-.394-.124-.381-.13-.367-.137-.352-.144-.336-.151-.319-.157-.301-.164-.281-.17-.261-.177-.239-.184-.217.025-.022.185.219.178.241.171.262.165.283.158.302.151.32.144.337.138.353.131.368.124.382.117.394.11.406.103.417.097.426.09.435.083.442.076.448.069.453.062.458.055.461.048.462.042.463.035.463.028.462.021.46.014.456.007.452v.446l-.007.439-.014.431-.021.423-.028.413-.026.012zm.007.015l-.002.028-.024-.016.026-.012z" class="o"/><g class="p x"><path d="M24.39 112.911l-3.831.07-.105 3.42c1.225-.299 2.615-.189 3.936-.124zm11.117 0l3.831.07.105 3.42c-1.225-.299-2.615-.189-3.936-.124zm-5.871 16.952h.627v.335h-.627z" class="q"/><path d="M28.112 103.23l.204 11.33h3.236l.233-11.33z" class="s"/><g fill="gray"><circle cx="28.571" cy="103.801" r=".255"/><circle cx="31.331" cy="103.801" r=".255"/><circle cx="28.494" cy="106.04" r=".197"/><circle cx="31.407" cy="106.04" r=".197"/><circle cx="28.477" cy="106.884" r=".167"/><circle cx="31.425" cy="106.884" r=".167"/><ellipse cx="28.524" cy="104.602" rx=".281" ry=".182"/><ellipse cx="31.378" cy="104.602" rx=".281" ry=".182"/><ellipse cx="28.524" cy="105.294" rx=".281" ry=".182"/><ellipse cx="31.378" cy="105.294" rx=".281" ry=".182"/></g><path d="M29.239 120.401h1.442l.667-10.001c-.076-2.287-.126-6.713-.977-6.866h-.831c-.887.241-.915 4.587-.978 6.866.09 3.334.441 6.696.677 10.001z" class="s"/><path d="M29.847 103.534h.226v6.385h-.226z" fill="#333"/><path d="M29.752 109.774h.394v6.276h-.394z" class="s"/><path d="M29.752 115.919h.393m-.377-12.689h.361v.305h-.361z" class="n"/><path d="M29.96 116.05c.399 0 .722-.254.722 3.69s-.323 10.593-.722 10.593-.722-6.649-.722-10.593.323-3.69.722-3.69z" class="s"/><path d="M29.343 116.979h1.236m-1.22 7.793h1.199" class="n"/><path d="M29.782 124.772h.335v5.593h-.335z" class="s"/><path d="M9.614 111.347v3.465l.874.098v-3.52z" fill="#f3f2f4"/><path d="M9.828 111.358v3.478l.47.053v-3.507z" class="s"/><path d="M50.308 111.347v3.465l-.874.098v-3.52z" fill="#f3f2f4"/><path d="M50.093 111.358v3.478l-.47.053v-3.507z" class="s"/><path d="M50.092 110.287v1.07l.219-.01v-1.06z" class="q"/><path d="M49.597 110.287v1.094l.532-.035v-1.06z" class="s"/><path d="M9.827 110.287v1.07l-.219-.01v-1.06z" class="q"/><path d="M10.323 110.287v1.094l-.532-.035v-1.06z" class="s"/><path d="M28.233 44.993v1.767l-3.245.318.315-1.924z" class="n"/><g class="z"><ellipse cx="27.552" cy="45.977" rx=".551" ry=".337"/><ellipse cx="25.598" cy="46.27" rx=".407" ry=".262"/></g></g></svg>