<svg xmlns="http://www.w3.org/2000/svg" width="138.803" height="136.554" viewBox="0 0 177.668 174.789" xmlns:v="https://vecta.io/nano"><path d="M177.666 140.974c.079 8.984-3.352 17.473-9.698 23.879s-14.796 9.936-23.78 9.936H3.928c-1.21 0-2.36-.575-3.074-1.547a3.85 3.85 0 0 1-.615-3.391c2.003-6.783 6.228-12.872 11.9-17.175 5.851-4.443 12.852-6.803 20.21-6.803h111.859c1.249 0 2.42-.496 3.292-1.408s1.329-2.102 1.269-3.352c-.099-2.42-2.221-4.383-4.76-4.383H33.856C15.372 136.73.18 121.855.001 103.588-.078 94.604 3.353 86.115 9.7 79.709s14.796-9.936 23.78-9.936h60.372c2.519 0 4.562-2.043 4.562-4.562v-11.92c-2.737-4.542-4.224-10.234-4.224-16.204 0-6.525 1.785-12.713 5.018-17.413 1.329-1.924 2.836-3.53 4.482-4.78s3.431-2.142 5.295-2.677v-8.37c0-2.122 1.725-3.848 3.848-3.848s3.848 1.725 3.848 3.848v8.37c3.768 1.031 7.16 3.59 9.837 7.457 3.233 4.7 5.018 10.888 5.018 17.413 0 5.95-1.487 11.622-4.205 16.144v11.979c0 18.465-15.014 33.478-33.478 33.478H33.678c-2.539 0-4.681 1.963-4.76 4.383-.04 1.249.397 2.439 1.269 3.352s2.043 1.408 3.292 1.408h110.351c18.484 0 33.657 14.875 33.835 33.141z" fill="#633"/><path d="M169.971 141.053c.06 6.922-2.578 13.447-7.477 18.385-4.879 4.938-11.384 7.656-18.306 7.656H9.68c4.443-8.151 13.149-13.526 22.669-13.526h4.859c1.686 6.723 7.755 11.702 14.994 11.702 4.839 0 9.143-2.221 11.979-5.712 2.836 3.471 7.14 5.712 11.979 5.712a15.41 15.41 0 0 0 11.979-5.712c2.836 3.491 7.16 5.712 11.979 5.712 4.839 0 9.143-2.241 11.979-5.712 2.836 3.471 7.14 5.692 11.979 5.692 7.219 0 13.288-4.978 14.974-11.662h5.137a12.12 12.12 0 0 0 8.826-3.768 12.17 12.17 0 0 0 3.431-8.965c-.258-6.604-5.712-11.801-12.455-11.801H33.856c-14.3 0-26.021-11.444-26.16-25.525-.059-6.922 2.578-13.447 7.477-18.385s11.384-7.656 18.306-7.656h3.748c1.706 6.684 7.775 11.622 14.974 11.622 4.819 0 9.143-2.221 11.979-5.712 2.836 3.471 7.14 5.712 11.979 5.712 7.199 0 13.268-4.938 14.974-11.622h2.737c6.763 0 12.257-5.494 12.257-12.257v-13.05c0-.773-.218-1.507-.654-2.142-2.023-3.015-3.253-6.922-3.53-11.166.119.02.258.02.377.02 2.301 0 4.165-1.864 4.165-4.165 0-2.182-1.666-3.967-3.788-4.165.813-3.233 2.221-6.009 3.986-7.993s3.887-3.153 6.148-3.153h.02c4.522 0 8.528 4.681 10.174 11.146-1.071.099-2.003.595-2.697 1.329s-1.091 1.725-1.091 2.816c0 2.301 1.864 4.165 4.165 4.165.119 0 .258 0 .377-.02-.139 2.122-.496 4.145-1.091 6.029s-1.408 3.61-2.4 5.097c-.416.635-.654 1.388-.654 2.142v13.09c0 14.22-11.563 25.783-25.783 25.783H33.678c-6.743 0-12.217 5.176-12.455 11.801a12.17 12.17 0 0 0 3.431 8.965c2.34 2.42 5.474 3.768 8.826 3.768h3.729c1.706 6.684 7.775 11.642 14.974 11.642 4.839 0 9.143-2.221 11.979-5.712a15.66 15.66 0 0 0 5.236 4.145c2.043.992 4.324 1.547 6.743 1.547 4.839 0 9.163-2.241 11.999-5.712 2.836 3.491 7.16 5.712 11.999 5.712s9.143-2.221 11.979-5.712c1.408 1.745 3.213 3.153 5.236 4.145 2.043.992 4.324 1.547 6.723 1.547 7.199 0 13.268-4.938 14.974-11.622h4.78c14.28.02 26.021 11.464 26.14 25.545z" fill="#6a973a"/><path d="M116.442 153.568h15.272c-1.388 2.816-4.284 4.74-7.636 4.74-3.332 0-6.247-1.924-7.636-4.74zm.02-38.04h15.212c-1.408 2.777-4.284 4.7-7.616 4.7-3.292 0-6.188-1.924-7.596-4.7zm-23.978 38.04h15.291c-1.388 2.816-4.304 4.76-7.636 4.76a8.52 8.52 0 0 1-7.656-4.76zm.02-38.04h15.232c-1.408 2.796-4.284 4.7-7.616 4.7s-6.208-1.904-7.616-4.7zm-23.998 38.04h15.291c-1.388 2.816-4.304 4.76-7.636 4.76a8.52 8.52 0 0 1-7.656-4.76zm.02-38.04h15.232c-1.408 2.796-4.284 4.7-7.616 4.7s-6.208-1.904-7.616-4.7zm.02-38.04h15.212c-1.408 2.777-4.284 4.681-7.616 4.681-3.312 0-6.188-1.904-7.596-4.681zm-24.018 76.08h15.311c-1.388 2.836-4.304 4.78-7.656 4.78s-6.247-1.944-7.656-4.78zm.04-76.08h15.232c-1.408 2.777-4.284 4.7-7.616 4.7-3.312 0-6.208-1.924-7.616-4.7zm-.02 38.04h15.252c-1.408 2.796-4.284 4.72-7.616 4.72s-6.228-1.924-7.636-4.72z" fill="#9ace57"/></svg>