<svg version="1.1" xmlns="http://www.w3.org/2000/svg" xmlns:xlink="http://www.w3.org/1999/xlink" width="140.511" height="136.286" viewBox="0,0,140.511,136.286"><g transform="translate(-169.7445,-111.857)"><g data-paper-data="{&quot;isPaintingLayer&quot;:true}" fill-rule="nonzero" stroke="none" stroke-width="1" stroke-linecap="butt" stroke-linejoin="miter" stroke-miterlimit="10" stroke-dasharray="" stroke-dashoffset="0" style="mix-blend-mode: normal"><path d="M180.4945,152.28882l-5.33594,-5.33591c-1.25156,-1.23593 -1.25156,-3.25467 0,-4.50623c1.23594,-1.23593 3.25469,-1.23593 4.50625,0l5.33594,5.33591v-7.55777c0,-1.76299 1.42919,-3.19217 3.19219,-3.19217c1.763,0 3.19219,1.42918 3.19219,3.19217v15.27101c0.01563,7.32262 8.48047,13.26868 18.88595,13.26868h38.02267v-16.14757c0,-10.18588 6.525,-18.87021 15.60001,-22.10926c-1.36172,-1.93983 -2.15938,-4.2867 -2.15938,-6.79059c0,-6.53981 5.31953,-11.86009 11.86016,-11.86009c5.22578,0 9.68516,3.41092 11.26563,8.12183c5.58888,0.00517 10.11827,4.53454 10.12344,10.12338c0,3.48904 -1.78359,6.58747 -4.475,8.4023c2.31563,3.0828 3.8336,6.64996 4.42813,10.46791c4.99141,0.1875 9.77969,2.00233 13.64454,5.1945c1.06406,0.8914 1.67422,2.19061 1.67422,3.56717c0.0012,1.39063 -0.6255,2.70748 -1.70547,3.58357c-1.45547,1.18906 -3.03594,2.17499 -4.72578,2.97264v9.63823c-0.00263,0.12579 -0.01306,0.25129 -0.03125,0.37578c-0.50078,3.94373 -3.7711,6.93199 -7.58907,6.93199h-1.28281c-2.73828,25.64518 -23.15782,46.08023 -48.80315,48.88099v11.64134h8.95c1.763,0 3.19219,1.42918 3.19219,3.19217c0,1.76299 -1.42919,3.19217 -3.19219,3.19217h-31.93517c-1.763,0 -3.19219,-1.42918 -3.19219,-3.19217c0,-1.76299 1.42919,-3.19217 3.19219,-3.19217h4.27188v-12.79915c-24.26876,-5.75778 -42.3883,-27.61704 -42.3883,-53.62237v-16.66397h-12.07969c-1.763,0 -3.19219,-1.42918 -3.19219,-3.19217c0,-1.76299 1.42919,-3.19217 3.19219,-3.19217z" data-paper-data="{&quot;index&quot;:null}" fill="#663333"/><path d="M192.76092,169.65748c4.71016,3.52029 10.92188,5.46091 17.50938,5.46091h57.23753c1.763,0 3.19219,-1.42918 3.19219,-3.19217c0,-1.76299 -1.42919,-3.19217 -3.19219,-3.19217h-12.84688v-16.14757c0,-9.41948 7.68282,-17.08663 17.10235,-17.08663c4.55313,0 8.85625,1.78358 12.07969,5.007c2.70703,2.70702 4.39688,6.14919 4.86641,9.88901c-2.48828,1.67421 -3.75547,4.5531 -3.73985,7.38512c0.01563,2.84764 1.34531,5.72653 3.88047,7.36949v3.61482h-5.99297c-1.763,0 -3.19219,1.42918 -3.19219,3.19217c0,1.76299 1.42919,3.19217 3.19219,3.19217h5.99297v0.17187c0,26.81861 -22.29688,48.74037 -48.74065,48.74037c-26.86564,0 -48.72502,-21.8741 -48.72502,-48.74037v-6.75934c0.43796,0.39061 0.89754,0.75629 1.37656,1.09531z" data-paper-data="{&quot;index&quot;:null}" fill="#f9dcb2"/><path d="M209.48827,181.37616c0.68906,-1.61171 2.56641,-2.36249 4.19375,-1.65859c1.61172,0.70468 2.3625,2.58202 1.65859,4.19373c-1.26797,2.94217 0.07813,6.35309 3.01953,7.62027c0.90781,0.3914 1.86172,0.53203 2.81641,0.4539c0.375,-1.31406 1.56406,-2.26874 3.00391,-2.29999c1.75234,-0.01562 3.20781,1.37734 3.23906,3.1453c0.12578,8.04215 6.7125,14.50461 14.73985,14.50461c0.07813,0 0,-0.03125 0.07813,-0.03125c8.12032,-0.125 14.62969,-6.85309 14.50469,-14.97414c-0.02435,-1.76237 1.38297,-3.21163 3.14531,-3.23905c1.75234,-0.03125 3.23906,1.37734 3.23906,3.1453c0,21.78114 -20.85782,21.48348 -20.9672,21.48348c-9.63907,0 -17.82188,-6.50934 -20.32579,-15.39679c-0.38955,0.04422 -0.7814,0.06509 -1.17344,0.0625c-1.64297,0 -3.30156,-0.3289 -4.83516,-1.00156c-6.16485,-2.67577 -8.99688,-9.84214 -6.33672,-16.00695z" data-paper-data="{&quot;index&quot;:null}" fill="#663333"/><path d="M268.10079,123.71553c0,-3.03592 2.47266,-5.49216 5.47656,-5.49216c3.00391,0 5.47656,2.44139 5.49219,5.44528c0,1.06406 0.53281,2.03358 1.40859,2.62889c0.87578,0.59531 1.98672,0.70468 2.97266,0.31328c0.43828,-0.17187 0.90781,-0.26562 1.39297,-0.26562c2.07355,0.00129 3.75418,1.68191 3.75547,3.75545c0,1.76874 -1.23594,3.25467 -2.87891,3.64607c-6.5086,-4.77185 -12.9086,-4.59998 -12.93985,-4.59998c-2.65938,-0.3914 -4.67813,-2.72264 -4.67813,-5.42966z" data-paper-data="{&quot;index&quot;:null}" fill="#fe6865"/><path d="M278.91486,148.5654c0,1.76299 -1.42919,3.19217 -3.19219,3.19217c-1.763,0 -3.19219,-1.42918 -3.19219,-3.19217c0,-1.76299 1.42919,-3.19217 3.19219,-3.19217c1.763,0 3.19219,1.42918 3.19219,3.19217z" data-paper-data="{&quot;index&quot;:null}" fill="#663333"/><path d="M302.61956,157.70285c-2.67578,1.61171 -5.75782,2.45624 -8.93438,2.42499c-0.70391,0 -2.31563,-0.25 -2.33125,-2.37811c0,-0.54765 0.15625,-2.37811 2.31563,-2.42499c3.14856,-0.07268 6.2528,0.75215 8.95,2.37811z" data-paper-data="{&quot;index&quot;:null}" fill="#ffcc66"/><path d="M298.08206,166.1364v7.5734c-0.1875,1.01718 -1.00078,1.78358 -1.87734,1.78358h-0.97031v-9.01245c0.95469,-0.0625 1.90859,-0.17266 2.84766,-0.34453z" data-paper-data="{&quot;index&quot;:null}" fill="#fe6865"/><path d="M233.77265,241.75866v-11.68822c1.95625,0.21875 3.9586,0.34453 5.96172,0.36015v11.31244h-5.96172z" data-paper-data="{&quot;index&quot;:null}" fill="#ffffff"/></g></g></svg>