<svg xmlns="http://www.w3.org/2000/svg" width="140.511" height="136.286" viewBox="0 0 179.854 174.447" xmlns:v="https://vecta.io/nano"><path d="M175.768 51.753a4.08 4.08 0 1 1 0 8.172h-15.462v21.33c0 33.287-23.193 61.267-54.257 68.637v16.383h5.468a4.08 4.08 0 1 1 0 8.172H70.64a4.08 4.08 0 1 1 0-8.172h11.456v-14.901c-32.826-3.585-58.963-29.742-62.468-62.568h-1.642c-4.887 0-9.073-3.825-9.714-8.873a3.89 3.89 0 0 1-.04-.481V67.115c-2.163-1.021-4.186-2.283-6.049-3.805A5.9 5.9 0 0 1 0 58.723c0-1.762.781-3.425 2.143-4.566 4.947-4.086 11.076-6.409 17.465-6.649.761-4.887 2.704-9.453 5.668-13.399-3.445-2.323-5.728-6.289-5.728-10.755a12.97 12.97 0 0 1 12.958-12.958C34.529 4.366 40.237 0 46.926 0c8.372 0 15.181 6.81 15.181 15.181 0 3.205-1.021 6.209-2.764 8.692 11.616 4.146 19.968 15.262 19.968 28.3v20.669h48.669c13.319 0 24.154-7.611 24.174-16.984V36.311a4.08 4.08 0 1 1 8.172 0v9.674l6.83-6.83c1.602-1.582 4.186-1.582 5.768 0 1.602 1.602 1.602 4.186 0 5.768l-6.83 6.83z" fill="#633"/><path d="M152.155 72.583v8.652c0 34.389-27.98 62.388-62.368 62.388-33.848 0-62.388-28.06-62.388-62.388v-.22h7.671a4.08 4.08 0 1 0 0-8.172h-7.671v-4.627c3.245-2.103 4.947-5.788 4.967-9.433.02-3.625-1.602-7.31-4.787-9.453.601-4.787 2.764-9.193 6.229-12.658 4.126-4.126 9.634-6.409 15.462-6.409 12.057 0 21.891 9.814 21.891 21.871v20.669H54.717a4.08 4.08 0 1 0 0 8.172h73.264c8.432 0 16.383-2.484 22.412-6.99a20.04 20.04 0 0 0 1.762-1.402z" fill="#f9dcb2"/><path d="M128.982 88.986c3.405 7.891-.22 17.064-8.111 20.489-1.963.861-4.086 1.282-6.189 1.282a12.58 12.58 0 0 1-1.502-.08c-3.205 11.376-13.679 19.708-26.017 19.708-.14 0-26.838.381-26.838-27.499 0-2.263 1.903-4.066 4.146-4.026a4.09 4.09 0 0 1 4.026 4.146c-.16 10.395 8.172 19.007 18.566 19.167.1 0 0 .04.1.04 10.275 0 18.706-8.272 18.867-18.566.04-2.263 1.903-4.046 4.146-4.026 1.843.04 3.365 1.262 3.845 2.944 1.222.1 2.443-.08 3.605-.581 3.765-1.622 5.488-5.988 3.865-9.754-.901-2.063.06-4.466 2.123-5.368 2.083-.901 4.486.06 5.368 2.123z" fill="#633"/><path d="M53.956 15.181c0 3.465-2.584 6.449-5.988 6.95-.04 0-8.232-.22-16.563 5.888-2.103-.501-3.685-2.403-3.685-4.667a4.81 4.81 0 0 1 4.807-4.807c.621 0 1.222.12 1.783.34 1.262.501 2.684.361 3.805-.401s1.803-2.003 1.803-3.365c.02-3.845 3.185-6.97 7.03-6.97s7.01 3.144 7.01 7.03z" fill="#fe6865"/><path d="M44.202 42.901a4.08 4.08 0 1 1 0 8.172 4.08 4.08 0 1 1 0-8.172z" fill="#633"/><path d="M21.23 55.639c2.764.06 2.964 2.403 2.964 3.104-.02 2.724-2.083 3.044-2.984 3.044-4.066.04-8.011-1.041-11.436-3.104a21.24 21.24 0 0 1 11.456-3.044z" fill="#fc6"/><path d="M19.227 69.919v11.536h-1.242c-1.122 0-2.163-.981-2.403-2.283v-9.694c1.202.22 2.423.361 3.645.441z" fill="#fe6865"/><path d="M97.898 166.275v-14.961c-2.504.28-5.067.441-7.631.461v14.48h7.631z" fill="#fff"/></svg>