<svg version="1.1" xmlns="http://www.w3.org/2000/svg" xmlns:xlink="http://www.w3.org/1999/xlink" width="140.40519" height="46.75904" viewBox="0,0,140.40519,46.75904"><defs><linearGradient x1="247.47702" y1="173.39953" x2="247.52895" y2="191.20605" gradientUnits="userSpaceOnUse" id="color-1"><stop offset="0" stop-color="#ffff8f"/><stop offset="0.37279" stop-color="#ffff6b"/><stop offset="0.61032" stop-color="#ffff6b"/><stop offset="0.80516" stop-color="#e9e935"/><stop offset="1" stop-color="#afaf00"/></linearGradient><linearGradient x1="201.35547" y1="158.09358" x2="201.25963" y2="160.59274" gradientUnits="userSpaceOnUse" id="color-2"><stop offset="0" stop-color="#ffff00"/><stop offset="1" stop-color="#ffff00" stop-opacity="0"/></linearGradient><linearGradient x1="248.94539" y1="189.75614" x2="248.86531" y2="183.56031" gradientUnits="userSpaceOnUse" id="color-3"><stop offset="0" stop-color="#9d9d00"/><stop offset="0.35059" stop-color="#d4d400"/><stop offset="1" stop-color="#ebeb00"/></linearGradient></defs><g transform="translate(-169.66943,-156.62049)"><g data-paper-data="{&quot;isPaintingLayer&quot;:true}" fill-rule="nonzero" stroke="#000000" stroke-linecap="butt" stroke-linejoin="miter" stroke-dasharray="" stroke-dashoffset="0" style="mix-blend-mode: normal"><path d="M299.66886,171.45514c2.49719,-0.05203 -0.22791,11.4355 -0.22791,11.4355c0,0 2.12707,12.33916 0.08076,12.30446h-0.2943c-1.76885,-0.29481 0.09512,-12.47583 0.09512,-12.47583c0,0 -1.9948,-11.21213 0.34632,-11.26413z" data-paper-data="{&quot;index&quot;:null}" fill="#4d4d4d" stroke-width="0.13734" stroke-miterlimit="10"/><path d="M305.6868,198.31118c0,0 0,-0.22456 0,-0.50158v-9.45841c0,-0.27701 0,-0.50158 0,-0.50158h0.6732c0,0 0,0.22456 0,0.50158v9.45841c0,0.27701 0,0.50158 0,0.50158z" data-paper-data="{&quot;index&quot;:null}" fill="#b3b3b3" stroke-width="0.49307" stroke-miterlimit="4"/><g data-paper-data="{&quot;index&quot;:null}" stroke-width="3" stroke-miterlimit="4"><path d="M305.91926,201.25474c-1.46652,0 -2.65536,-1.18885 -2.65536,-2.65536c0,-1.46652 1.18885,-2.65536 2.65536,-2.65536c1.46652,0 2.65536,1.18885 2.65536,2.65536c0,1.46652 -1.18885,2.65536 -2.65536,2.65536z" fill="#000000"/><path d="M306.07546,200.29673c-0.97768,0 -1.77024,-0.79256 -1.77024,-1.77024c0,-0.97768 0.79256,-1.77024 1.77024,-1.77024c0.97768,0 1.77024,0.79256 1.77024,1.77024c0,0.97768 -0.79256,1.77024 -1.77024,1.77024z" fill="#b3b3b3"/></g><path d="M236.30727,174.28464l42.06918,-1.35371c4.85972,-0.44179 10.82969,4.99832 10.82969,4.99832c15.83092,2.13534 20.8211,6.4614 20.67383,6.97682c-0.29453,5.08062 -23.69365,5.10245 -23.69365,5.10245l-44.88074,0.93719c-8.2897,-0.30145 -16.28092,-1.93131 -20.0538,-3.21714c-1.75662,-0.59867 -2.0221,-1.46879 -2.0221,-1.46879l-27.38663,-6.45616l-10.0524,-20.2268l15.77964,-0.80779l11.66275,13.12059z" data-paper-data="{&quot;index&quot;:null}" fill="url(#color-1)" stroke-width="0.14578" stroke-miterlimit="10"/><path d="M181.54916,159.49259l-2.65076,-0.95722l-8.9095,0.0736l3.90251,-1.91443l3.23981,0.22089l17.96626,-0.22089l6.1851,0.88358l-3.46071,1.17812z" data-paper-data="{&quot;index&quot;:null}" fill="url(#color-2)" stroke-width="0.14578" stroke-miterlimit="10"/><path d="M289.38074,184.44488c0,0 2.25787,13.09792 0.08572,13.06112h-0.31239c-1.87762,-0.31294 0.10097,-13.24303 0.10097,-13.24303c0,0 -2.11747,-11.90163 0.36762,-11.95683c2.65076,-0.05522 -0.24192,12.13874 -0.24192,12.13874z" data-paper-data="{&quot;index&quot;:null}" fill="#4d4d4d" stroke-width="0.14578" stroke-miterlimit="10"/><g data-paper-data="{&quot;index&quot;:null}" fill="#000000" stroke-width="3" stroke-miterlimit="4"><path d="M266.45337,200.00516c-1.46652,0 -2.65536,-1.18885 -2.65536,-2.65536c0,-1.46652 1.18885,-2.65536 2.65536,-2.65536c1.46652,0 2.65536,1.18885 2.65536,2.65536c0,1.46652 -1.18885,2.65536 -2.65536,2.65536z"/><path d="M266.60957,199.04715c-0.97768,0 -1.77024,-0.79256 -1.77024,-1.77024c0,-0.97768 0.79256,-1.77024 1.77024,-1.77024c0.97768,0 1.77024,0.79256 1.77024,1.77024c0,0.97768 -0.79256,1.77024 -1.77024,1.77024z"/></g><path d="M266.16647,197.32431c0,0 0,-0.11737 0,-0.26216v-4.94366c0,-0.14479 0,-0.26216 0,-0.26216h0.78206c0,0 0,0.11737 0,0.26216v4.94366c0,0.14479 0,0.26216 0,0.26216z" data-paper-data="{&quot;index&quot;:null}" fill="#666666" stroke-width="0.38421" stroke-miterlimit="4"/><path d="M288.31584,187.03103l-2.2826,0.36816l-0.29453,2.42986c0,0 -3.46071,2.13534 -16.78814,2.13534l-18.9971,0.0736l-5.96421,-2.20897c0,0 18.26078,-7.80501 32.76632,-8.32043c6.33236,-0.58906 11.26572,0.80995 11.26572,0.80995z" data-paper-data="{&quot;index&quot;:null}" fill="#ffff81" stroke-width="0.14578" stroke-miterlimit="10"/><path d="M265.19532,186.51557c2.27499,1.93117 0.49088,1.32538 0.73632,1.98807l-9.27766,1.17812l-13.91648,-0.36816l-5.66968,-6.33237l-2.13533,-6.33237l1.69354,-0.14726l5.74331,6.47963l3.23982,-0.0736l19.58616,3.60797z" data-paper-data="{&quot;index&quot;:null}" fill="url(#color-3)" stroke-width="0.14578" stroke-miterlimit="10"/><path d="M265.86763,179.72553c-1.04238,0 -1.88739,-0.84502 -1.88739,-1.88739c0,-1.04238 0.84502,-1.88739 1.88739,-1.88739c1.04238,0 1.88739,0.84502 1.88739,1.88739c0,1.04238 -0.84502,1.88739 -1.88739,1.88739z" data-paper-data="{&quot;index&quot;:null}" fill="#aeaeff" stroke-width="1.6" stroke-miterlimit="4"/><path d="M260.92138,179.80362c-1.04238,0 -1.88739,-0.84502 -1.88739,-1.88739c0,-1.04238 0.84502,-1.88739 1.88739,-1.88739c1.04238,0 1.88739,0.84502 1.88739,1.88739c0,1.04238 -0.84502,1.88739 -1.88739,1.88739z" data-paper-data="{&quot;index&quot;:null}" fill="#aeaeff" stroke-width="1.6" stroke-miterlimit="4"/><path d="M256.10528,179.95981c-1.04238,0 -1.88739,-0.84502 -1.88739,-1.88739c0,-1.04238 0.84502,-1.88739 1.88739,-1.88739c1.04238,0 1.88739,0.84502 1.88739,1.88739c0,1.04238 -0.84502,1.88739 -1.88739,1.88739z" data-paper-data="{&quot;index&quot;:null}" fill="#aeaeff" stroke-width="1.6" stroke-miterlimit="4"/><path d="M251.15903,180.06397c-1.04238,0 -1.88739,-0.84502 -1.88739,-1.88739c0,-1.04238 0.84502,-1.88739 1.88739,-1.88739c1.04238,0 1.88739,0.84502 1.88739,1.88739c0,1.04238 -0.84502,1.88739 -1.88739,1.88739z" data-paper-data="{&quot;index&quot;:null}" fill="#aeaeff" stroke-width="1.6" stroke-miterlimit="4"/><path d="M246.39501,180.16809c-1.04238,0 -1.88739,-0.84502 -1.88739,-1.88739c0,-1.04238 0.84502,-1.88739 1.88739,-1.88739c1.04238,0 1.88739,0.84502 1.88739,1.88739c0,1.04238 -0.84502,1.88739 -1.88739,1.88739z" data-paper-data="{&quot;index&quot;:null}" fill="#aeaeff" stroke-width="1.6" stroke-miterlimit="4"/><path d="M288.11275,177.12223c-1.95247,0.26033 -3.12395,1.77024 -3.12395,1.77024l-3.74874,-3.61858c0.41653,-0.96321 2.47313,-1.04131 2.47313,-1.04131c0,0 3.82684,1.9785 4.39956,2.88965z" data-paper-data="{&quot;index&quot;:null}" fill="#aeaeff" stroke-width="0.14578" stroke-miterlimit="10"/><path d="M283.2446,178.65817h-2.49916v-2.70742z" data-paper-data="{&quot;index&quot;:null}" fill="#aeaeff" stroke-width="0.14578" stroke-miterlimit="10"/><path d="M279.62602,175.61232l0.02603,3.30618l-3.22808,0.0521c-1.35371,0.1562 -1.50991,-3.07188 -0.10413,-3.35825z" data-paper-data="{&quot;index&quot;:null}" fill="#aeaeff" stroke-width="0.14578" stroke-miterlimit="10"/><path d="M288.16481,182.35485c1.06355,0.0985 2.26121,0.45771 3.33933,0.86634c1.77194,0.67161 3.22097,1.47662 3.22097,1.47662c0,0 -2.86362,2.60329 -6.45616,2.2909l-0.05207,-4.32147z" data-paper-data="{&quot;index&quot;:null}" fill="#cccccc" stroke-width="0.14578" stroke-miterlimit="10"/><path d="M254.14164,199.56079c0,0 0,-0.22456 0,-0.50158v-9.45841c0,-0.27701 0,-0.50158 0,-0.50158h0.6732c0,0 0,0.22456 0,0.50158v9.45841c0,0.27701 0,0.50158 0,0.50158z" data-paper-data="{&quot;index&quot;:null}" fill="#b3b3b3" stroke-width="0.49307" stroke-miterlimit="4"/><g data-paper-data="{&quot;index&quot;:null}" stroke-width="3" stroke-miterlimit="4"><path d="M254.26997,201.87953c-1.46652,0 -2.65536,-1.18885 -2.65536,-2.65536c0,-1.46652 1.18885,-2.65536 2.65536,-2.65536c1.46652,0 2.65536,1.18885 2.65536,2.65536c0,1.46652 -1.18885,2.65536 -2.65536,2.65536z" fill="#000000"/><path d="M254.42617,200.92152c-0.97768,0 -1.77024,-0.79256 -1.77024,-1.77024c0,-0.97768 0.79256,-1.77024 1.77024,-1.77024c0.97768,0 1.77024,0.79256 1.77024,1.77024c0,0.97768 -0.79256,1.77024 -1.77024,1.77024z" fill="#b3b3b3"/></g></g></g></svg>