<svg version="1.1" xmlns="http://www.w3.org/2000/svg" xmlns:xlink="http://www.w3.org/1999/xlink" width="140.4052" height="46.75904" viewBox="0,0,140.4052,46.75904"><defs><linearGradient x1="232.03265" y1="173.68658" x2="231.98072" y2="191.4931" gradientUnits="userSpaceOnUse" id="color-1"><stop offset="0" stop-color="#ffff8f"/><stop offset="0.37279" stop-color="#ffff6b"/><stop offset="0.61032" stop-color="#ffff6b"/><stop offset="0.80516" stop-color="#e9e935"/><stop offset="1" stop-color="#afaf00"/></linearGradient><linearGradient x1="278.1542" y1="158.38063" x2="278.25004" y2="160.87979" gradientUnits="userSpaceOnUse" id="color-2"><stop offset="0" stop-color="#ffff00"/><stop offset="1" stop-color="#ffff00" stop-opacity="0"/></linearGradient><linearGradient x1="230.56428" y1="190.04319" x2="230.64436" y2="183.84736" gradientUnits="userSpaceOnUse" id="color-3"><stop offset="0" stop-color="#9d9d00"/><stop offset="0.35059" stop-color="#d4d400"/><stop offset="1" stop-color="#ebeb00"/></linearGradient></defs><g transform="translate(-169.43505,-156.90753)"><g data-paper-data="{&quot;isPaintingLayer&quot;:true}" fill-rule="nonzero" stroke="#000000" stroke-linecap="butt" stroke-linejoin="miter" stroke-dasharray="" stroke-dashoffset="0" style="mix-blend-mode: normal"><g><path d="M179.84082,171.74219c2.34112,0.052 0.34632,11.26413 0.34632,11.26413c0,0 1.86397,12.18102 0.09512,12.47583h-0.2943c-2.04631,0.0347 0.08076,-12.30446 0.08076,-12.30446c0,0 -2.7251,-11.48753 -0.22791,-11.4355z" fill="#4d4d4d" stroke-width="0.13734" stroke-miterlimit="10"/><path d="M173.14967,198.59823c0,0 0,-0.22457 0,-0.50158v-9.45841c0,-0.27702 0,-0.50158 0,-0.50158h0.6732c0,0 0,0.22457 0,0.50158v9.45841c0,0.27702 0,0.50158 0,0.50158z" fill="#b3b3b3" stroke-width="0.49307" stroke-miterlimit="4"/><g stroke-width="3" stroke-miterlimit="4"><path d="M170.93505,198.88643c0,-1.46651 1.18884,-2.65536 2.65536,-2.65536c1.46651,0 2.65536,1.18884 2.65536,2.65536c0,1.46651 -1.18884,2.65536 -2.65536,2.65536c-1.46651,0 -2.65536,-1.18884 -2.65536,-2.65536z" fill="#000000"/><path d="M171.66397,198.81354c0,-0.97768 0.79256,-1.77024 1.77024,-1.77024c0.97768,0 1.77024,0.79256 1.77024,1.77024c0,0.97768 -0.79256,1.77024 -1.77024,1.77024c-0.97768,0 -1.77024,-0.79256 -1.77024,-1.77024z" fill="#b3b3b3"/></g><path d="M270.27663,172.17667l11.66275,-13.12059l15.77964,0.80779l-10.0524,20.2268l-27.38663,6.45616c0,0 -0.26548,0.87012 -2.0221,1.46879c-3.77288,1.28583 -11.7641,2.91569 -20.0538,3.21714l-44.88074,-0.93719c0,0 -23.39912,-0.02183 -23.69365,-5.10245c-0.14727,-0.51542 4.84291,-4.84148 20.67383,-6.97682c0,0 5.96997,-5.44011 10.82969,-4.99832l42.06918,1.35371z" fill="url(#color-1)" stroke-width="0.14578" stroke-miterlimit="10"/><path d="M281.6878,159.04329l-3.46071,-1.17812l6.1851,-0.88358l17.96626,0.22089l3.23981,-0.22089l3.90251,1.91443l-8.9095,-0.0736l-2.65076,0.95722z" fill="url(#color-2)" stroke-width="0.14578" stroke-miterlimit="10"/><path d="M189.88701,172.59319c2.48509,0.0552 0.36762,11.95683 0.36762,11.95683c0,0 1.97859,12.93009 0.10097,13.24303h-0.31239c-2.17215,0.0368 0.08572,-13.06112 0.08572,-13.06112c0,0 -2.89268,-12.19396 -0.24192,-12.13874z" fill="#4d4d4d" stroke-width="0.14578" stroke-miterlimit="10"/><g fill="#000000" stroke-width="3" stroke-miterlimit="4"><path d="M210.40094,197.63685c0,-1.46651 1.18884,-2.65536 2.65536,-2.65536c1.46651,0 2.65536,1.18884 2.65536,2.65536c0,1.46651 -1.18884,2.65536 -2.65536,2.65536c-1.46651,0 -2.65536,-1.18884 -2.65536,-2.65536z"/><path d="M211.12986,197.56396c0,-0.97768 0.79256,-1.77024 1.77024,-1.77024c0.97768,0 1.77024,0.79256 1.77024,1.77024c0,0.97768 -0.79256,1.77024 -1.77024,1.77024c-0.97768,0 -1.77024,-0.79256 -1.77024,-1.77024z"/></g><path d="M212.56114,197.61136c0,0 0,-0.11737 0,-0.26216v-4.94366c0,-0.14479 0,-0.26216 0,-0.26216h0.78206c0,0 0,0.11737 0,0.26216v4.94366c0,0.14479 0,0.26216 0,0.26216z" fill="#666666" stroke-width="0.38421" stroke-miterlimit="4"/><path d="M191.48837,182.60559c0,0 4.93336,-1.39901 11.26572,-0.80995c14.50554,0.51542 32.76632,8.32043 32.76632,8.32043l-5.96421,2.20897l-18.9971,-0.0736c-13.32743,0 -16.78814,-2.13534 -16.78814,-2.13534l-0.29453,-2.42986l-2.2826,-0.36816z" fill="#ffff81" stroke-width="0.14578" stroke-miterlimit="10"/><path d="M214.31435,186.80265l19.58616,-3.60797l3.23982,0.0736l5.74331,-6.47963l1.69354,0.14726l-2.13533,6.33237l-5.66968,6.33237l-13.91648,0.36816l-9.27766,-1.17812c0.24544,-0.66269 -1.53867,-0.0569 0.73632,-1.98807z" fill="url(#color-3)" stroke-width="0.14578" stroke-miterlimit="10"/><path d="M211.75465,178.12519c0,-1.04237 0.84501,-1.88739 1.88739,-1.88739c1.04237,0 1.88739,0.84501 1.88739,1.88739c0,1.04237 -0.84501,1.88739 -1.88739,1.88739c-1.04237,0 -1.88739,-0.84501 -1.88739,-1.88739z" fill="#aeaeff" stroke-width="1.6" stroke-miterlimit="4"/><path d="M216.7009,178.20328c0,-1.04237 0.84501,-1.88739 1.88739,-1.88739c1.04237,0 1.88739,0.84501 1.88739,1.88739c0,1.04237 -0.84501,1.88739 -1.88739,1.88739c-1.04237,0 -1.88739,-0.84501 -1.88739,-1.88739z" fill="#aeaeff" stroke-width="1.6" stroke-miterlimit="4"/><path d="M221.517,178.35947c0,-1.04237 0.84501,-1.88739 1.88739,-1.88739c1.04237,0 1.88739,0.84501 1.88739,1.88739c0,1.04237 -0.84501,1.88739 -1.88739,1.88739c-1.04237,0 -1.88739,-0.84501 -1.88739,-1.88739z" fill="#aeaeff" stroke-width="1.6" stroke-miterlimit="4"/><path d="M226.46325,178.46363c0,-1.04237 0.84501,-1.88739 1.88739,-1.88739c1.04237,0 1.88739,0.84501 1.88739,1.88739c0,1.04237 -0.84501,1.88739 -1.88739,1.88739c-1.04237,0 -1.88739,-0.84501 -1.88739,-1.88739z" fill="#aeaeff" stroke-width="1.6" stroke-miterlimit="4"/><path d="M231.22727,178.56775c0,-1.04237 0.84501,-1.88739 1.88739,-1.88739c1.04237,0 1.88739,0.84501 1.88739,1.88739c0,1.04237 -0.84501,1.88739 -1.88739,1.88739c-1.04237,0 -1.88739,-0.84501 -1.88739,-1.88739z" fill="#aeaeff" stroke-width="1.6" stroke-miterlimit="4"/><path d="M195.79648,174.51963c0,0 2.0566,0.0781 2.47313,1.04131l-3.74874,3.61858c0,0 -1.17148,-1.50991 -3.12395,-1.77024c0.57272,-0.91115 4.39956,-2.88965 4.39956,-2.88965z" fill="#aeaeff" stroke-width="0.14578" stroke-miterlimit="10"/><path d="M198.76423,176.2378v2.70742h-2.49916z" fill="#aeaeff" stroke-width="0.14578" stroke-miterlimit="10"/><path d="M203.18983,175.8994c1.40578,0.28637 1.24958,3.51445 -0.10413,3.35825l-3.22808,-0.0521l0.02603,-3.30618z" fill="#aeaeff" stroke-width="0.14578" stroke-miterlimit="10"/><path d="M191.29279,182.95429l-0.05207,4.32147c-3.59254,0.31239 -6.45616,-2.2909 -6.45616,-2.2909c0,0 1.44903,-0.80501 3.22097,-1.47662c1.07812,-0.40863 2.27578,-0.76784 3.33933,-0.86634z" fill="#cccccc" stroke-width="0.14578" stroke-miterlimit="10"/><path d="M224.69483,199.84784c0,0 0,-0.22457 0,-0.50158v-9.45841c0,-0.27702 0,-0.50158 0,-0.50158h0.6732c0,0 0,0.22457 0,0.50158v9.45841c0,0.27702 0,0.50158 0,0.50158z" fill="#b3b3b3" stroke-width="0.49307" stroke-miterlimit="4"/><g stroke-width="3" stroke-miterlimit="4"><path d="M222.58434,199.51122c0,-1.46651 1.18884,-2.65536 2.65536,-2.65536c1.46651,0 2.65536,1.18884 2.65536,2.65536c0,1.46651 -1.18884,2.65536 -2.65536,2.65536c-1.46651,0 -2.65536,-1.18884 -2.65536,-2.65536z" fill="#000000"/><path d="M223.31326,199.43833c0,-0.97768 0.79256,-1.77024 1.77024,-1.77024c0.97768,0 1.77024,0.79256 1.77024,1.77024c0,0.97768 -0.79256,1.77024 -1.77024,1.77024c-0.97768,0 -1.77024,-0.79256 -1.77024,-1.77024z" fill="#b3b3b3"/></g></g></g></g></svg>