<?xml version="1.0" encoding="UTF-8" standalone="no"?>
<!-- Generator: Adobe Illustrator 12.0.0, SVG Export Plug-In . SVG Version: 6.00 Build 51448)  -->

<svg
   version="1.1"
   id="图层_2"
   width="140"
   height="123.08061"
   viewBox="0 0 140 123.08061"
   style="overflow:visible"
   xml:space="preserve"
   sodipodi:docname="1492093987.svg"
   inkscape:version="1.2.2 (732a01da63, 2022-12-09)"
   xmlns:inkscape="http://www.inkscape.org/namespaces/inkscape"
   xmlns:sodipodi="http://sodipodi.sourceforge.net/DTD/sodipodi-0.dtd"
   xmlns="http://www.w3.org/2000/svg"
   xmlns:svg="http://www.w3.org/2000/svg"><defs
   id="defs1533" /><sodipodi:namedview
   id="namedview1531"
   pagecolor="#ffffff"
   bordercolor="#000000"
   borderopacity="0.25"
   inkscape:showpageshadow="2"
   inkscape:pageopacity="0.0"
   inkscape:pagecheckerboard="0"
   inkscape:deskcolor="#d1d1d1"
   showgrid="false"
   inkscape:zoom="4.0070546"
   inkscape:cx="124.53037"
   inkscape:cy="109.55678"
   inkscape:window-width="1920"
   inkscape:window-height="1017"
   inkscape:window-x="-8"
   inkscape:window-y="-8"
   inkscape:window-maximized="1"
   inkscape:current-layer="图层_2" />
<path
   style="fill:#e3aa00;stroke-width:0.562362"
   d="M 84.776595,26.551162 C 72.601454,14.519985 50.744122,2.6248995 27.304304,24.135816 23.327841,27.784422 20.266903,33.172414 19.161861,38.258418 15.720205,54.096787 -4.3330689,59.597814 1.1027241,73.229473 3.2908754,78.715879 15.40472,77.001799 20.7376,89.888329 c 8.593457,20.768031 42.750212,32.322891 74.417952,4.947662 0,0 14.059058,-18.544455 21.816278,-8.486608 C 124.72906,96.407794 140,113.0509 140,74.389627 140,40.589409 132.74778,53.048544 121.83908,58.077186 110.9315,63.106392 109.21517,67.489442 94.912611,40.772739 94.912049,40.773302 91.62448,33.318628 84.776595,26.551162 Z"
   id="path1464" />
<g
   style="opacity:0.21"
   id="g1470"
   transform="matrix(0.56236219,0,0,0.56236219,-6.8136658e-5,-2.0714489e-4)">
	<g
   id="g1468">
		<path
   style="fill:#ffff94"
   d="m 37.188,83.813 c 1.906,-9.044 7.183,-18.625 14.036,-25.113 40.406,-38.251 78.084,-17.099 99.071,4.296 11.805,12.033 17.472,25.289 17.472,25.289 24.654,47.508 27.613,39.715 46.416,30.772 18.804,-8.943 31.306,-31.098 31.306,29.006 0,6.795 -0.261,12.614 -0.737,17.594 2.425,-6.734 3.894,-17.395 3.894,-33.373 0,-60.106 -12.896,-37.95 -32.294,-29.008 -19.396,8.944 -22.448,16.739 -47.881,-30.771 0,0 -5.847,-13.256 -18.023,-25.29 C 128.797,25.821 89.93,4.668 48.249,42.919 41.179,49.407 35.735,58.987 33.77,68.032 27.65,96.196 -8.009,105.977 1.658,130.218 c 0.635,1.592 1.747,2.84 3.192,3.919 3.348,-16.488 27.472,-27.224 32.338,-50.324 z"
   id="path1466" />
	</g>
</g>
<path
   style="fill:#cf9b00;stroke-width:0.562362"
   d="m 34.760102,21.199161 c 0,0 18.857691,-23.8818359 49.902896,-20.94967933 C 107.96166,2.4500049 110.58452,61.916433 98.420064,50.917191 88.005679,41.500436 67.936097,-0.97646791 34.760102,21.199161 Z"
   id="path1472" />
<path
   style="fill:#e3aa00;stroke-width:0.562362"
   d="m 41.586054,14.158386 c 0,0 21.088582,-16.3085039 41.05244,-7.873071 0,0 10.966063,5.06126 15.183779,17.995591 5.645557,17.31232 -21.932125,-15.7461422 -56.236219,-10.12252 z"
   id="path1474" />
<g
   id="g1484"
   transform="matrix(0.56236219,0,0,0.56236219,-6.8136658e-5,-2.0714489e-4)">
	<g
   id="g1480">
		
			<ellipse
   transform="matrix(0.8916,0.4529,-0.4529,0.8916,38.262,0.0192)"
   style="fill:#ffffff;stroke:#b2b2b2"
   cx="19.091"
   cy="79.919998"
   rx="17.792"
   ry="18.511999"
   id="ellipse1476" />
		<path
   style="fill:#f7f7f7"
   d="m 27.475,63.415 c -8.761,-4.45 -19.617,-0.668 -24.247,8.448 -4.63,9.115 -1.281,20.113 7.48,24.563 8.76,4.449 19.616,0.667 24.247,-8.448 4.629,-9.116 1.281,-20.113 -7.48,-24.563 z M 11.565,89.848 C 4.673,86.348 2.038,77.696 5.68,70.525 9.322,63.354 17.863,60.378 24.756,63.879 c 6.892,3.5 9.525,12.153 5.884,19.323 -3.643,7.171 -12.184,10.147 -19.075,6.646 z"
   id="path1478" />
	</g>
	<circle
   cx="13.769"
   cy="79.225998"
   r="4.0370002"
   id="circle1482" />
</g>
<path
   style="fill:#cf9b00;stroke-width:0.562362"
   d="m 138.48612,56.085862 v 0 c 1.86086,39.95977 -20.41881,35.397326 -18.75703,27.243074 1.66178,-8.154252 0,-16.05769 0,-16.05769 -4.48146,-1.670216 -6.91986,-3.524324 -7.89894,-5.417235 -4.24639,-0.171521 -8.29428,-4.971282 -16.918101,-21.081272 0,0 -3.288132,-7.454673 -10.135454,-14.221577 C 72.601454,14.519985 50.744122,2.6243372 27.304304,24.135816 23.328403,27.784422 20.266903,33.171852 19.161861,38.258418 15.720205,54.096224 -4.3330689,59.597251 1.1032865,73.229473 3.2914377,78.715879 15.405282,77.001799 20.7376,89.888329 c 8.593457,20.768031 42.750774,32.322891 74.417952,4.947662 0,0 14.059058,-18.544455 21.816278,-8.486608 C 124.72906,96.407794 140,113.0509 140,74.389627 c -5.6e-4,-9.117016 -0.52918,-14.864358 -1.51388,-18.303765 z"
   id="path1486" />
<path
   style="fill:#cf9b00;stroke-width:0.562362"
   d="m 38.910335,103.46937 c 0,0 33.05115,33.71418 50.848789,12.73357 C 107.55676,95.222334 99.777607,78.154079 88.780052,88.411566 77.783059,98.669614 67.879861,108.26801 38.910335,103.46937 Z"
   id="path1488" />
<path
   style="fill:#ffbf00;stroke-width:0.562362"
   d="m 94.912049,40.772739 c 0,0 -3.288132,-7.454673 -10.135454,-14.221577 C 72.601454,14.519985 50.744122,2.6248995 27.304304,24.135816 23.327841,27.784422 20.266903,33.171852 19.161861,38.258418 14.774312,58.446096 -4.8088273,55.205203 1.1021617,73.229473 c 1.8406115,5.612375 14.3019953,3.772326 19.6348763,16.658856 8.592894,20.768031 42.750212,32.322891 74.417951,4.947662 0,0 3.434909,-3.967465 7.846081,-7.33489 4.85093,-6.421614 13.26219,-2.99008 15.16634,-8.671063 4.67998,-13.215511 -2.72914,-17.154296 -4.53657,-17.154296 -5.00728,1.128099 -8.89264,-2.546938 -18.718791,-20.903003 z"
   id="path1490" />
<path
   style="opacity:0.21;fill:#ffff94;stroke-width:0.562362"
   d="m 19.162986,48.006404 c 1.105604,-5.086566 4.166542,-10.473996 8.143005,-14.122602 23.442068,-21.510916 45.301086,-9.615268 57.477352,2.415346 6.848447,6.766904 10.136017,14.221578 10.136017,14.221578 9.82672,18.356064 14.76594,17.441101 19.77322,16.313002 1.82824,0 3.29938,0.163648 4.48371,0.470135 -1.2535,-4.153607 -4.4421,-5.627559 -5.54601,-5.627559 -5.00672,1.128099 -8.89264,-2.5475 -18.718231,-20.903002 0,0 -3.288132,-7.454674 -10.135454,-14.221578 C 72.601454,14.520547 50.744122,2.6254619 27.304304,24.136379 23.327841,27.784984 20.266903,33.172414 19.161861,38.25898 14.829423,58.193595 -4.3190098,55.284496 0.89521248,72.566448 4.2260837,65.078033 15.898474,63.024849 19.162986,48.006404 Z"
   id="path1492" />
<path
   style="opacity:0.54;fill:#e3aa00;stroke-width:0.562362"
   d="m 109.0504,77.659763 c -4.67042,3.367425 -8.30665,7.33489 -8.30665,7.33489 C 67.215711,112.36988 31.05301,100.81502 21.955114,80.04699 16.332617,67.216134 -2.2781974,82.016945 1.1966386,63.457306 c -0.90202894,2.46877 -0.92283634,5.531956 0.4678853,9.772167 1.8406115,5.612375 14.3019951,3.772326 19.6348761,16.658856 8.592894,20.768031 42.750212,32.322891 74.417952,4.947662 0,0 3.434908,-3.967465 7.846078,-7.33489 4.85094,-6.421614 13.26219,-2.99008 15.16635,-8.671063 0.8351,-2.357984 1.27937,-4.41623 1.44527,-6.214102 -3.50971,0.877848 -8.00973,1.148906 -11.12465,5.043827 z"
   id="path1494" />
<path
   style="opacity:0.46;fill:#8b5c29;stroke-width:0.562362"
   d="m 1.0403019,73.229473 c 0,0 4.9088596,-0.125406 12.9067751,-5.58763 4.081062,-2.78763 8.256602,-4.257645 5.507775,-0.05905 -9.6270785,14.704084 -16.0273226,8.154251 -16.0273226,8.154251 0,0 -1.3389844,-0.51906 -2.3872275,-2.507573 z"
   id="path1496" />
<g
   id="g1504"
   transform="matrix(0.56236219,0,0,0.56236219,-6.8136658e-5,-2.0714489e-4)">
	
		<ellipse
   transform="matrix(0.8916,0.4529,-0.4529,0.8916,42.4425,-8.4285)"
   style="opacity:0.16;fill:#8f0000"
   cx="38.824001"
   cy="84.427002"
   rx="20.945999"
   ry="23.837"
   id="ellipse1498" />
	
		<ellipse
   transform="matrix(0.8916,0.4529,-0.4529,0.8916,40.579,-8.6357)"
   style="fill:#ffffff;stroke:#b2b2b2"
   cx="38.324001"
   cy="80.427002"
   rx="21.625"
   ry="22.5"
   id="ellipse1500" />
	<path
   style="fill:#f7f7f7"
   d="m 48.514,60.367 c -10.647,-5.408 -23.842,-0.812 -29.47,10.267 -5.628,11.079 -1.557,24.445 9.091,29.854 10.647,5.408 23.842,0.812 29.47,-10.267 5.628,-11.079 1.557,-24.446 -9.091,-29.854 z M 29.178,92.495 C 20.801,88.24 17.599,77.724 22.026,69.01 c 4.427,-8.716 14.808,-12.333 23.185,-8.078 8.375,4.254 11.578,14.771 7.151,23.486 -4.428,8.714 -14.809,12.331 -23.184,8.077 z"
   id="path1502" />
</g>
<circle
   cx="17.913979"
   cy="44.754261"
   id="circle1506"
   r="2.758949"
   style="stroke-width:0.562362" />
<path
   style="opacity:0.2;fill:#e3aa00;stroke-width:0.562362"
   d="m 114.1932,67.770061 c -8.03784,0 -15.24564,4.311631 -15.24564,4.311631 C 61.641577,86.839763 38.962072,82.111984 21.955677,72.831321 9.6613143,66.121778 -2.2776351,80.142029 1.1955139,63.46068 c -0.90034188,2.468207 -1.54480896,5.53027 -0.1546497,9.768793 1.8406115,5.612375 14.5336888,4.164292 19.8671318,17.050822 8.592894,20.768035 43.142178,31.930365 74.809918,4.555134 0,0 3.434908,-3.966903 7.846076,-7.334328 4.85094,-6.421614 13.26219,-2.99008 15.16635,-8.671063 1.82936,-5.165859 1.80799,-8.908941 0.99932,-11.558792 -1.32493,-0.682145 -3.09918,0.498815 -5.53646,0.498815 z"
   id="path1508" />
<path
   style="fill:#e3aa00;stroke-width:0.562362"
   d="m 46.898127,110.47472 c 0,0 24.674766,2.1994 35.178005,-3.52657 17.811698,-9.709748 10.155699,6.78152 -6.748346,9.56015 -11.15333,1.83387 -28.429659,-6.03358 -28.429659,-6.03358 z"
   id="path1510" />
<path
   style="fill:#cf9b00;stroke-width:0.562362"
   d="m 120.24984,71.004206 9.06472,3.045754 c 0,0 -10.35084,-1.253506 -9.6507,1.624664 0.70014,2.87817 0.58598,-4.670418 0.58598,-4.670418 z"
   id="path1512" />
<path
   style="opacity:0.29;fill:#5a3d1c;stroke-width:0.562362"
   d="m 19.454852,67.582795 c 2.748827,-4.198597 -1.426713,-2.728582 -5.507775,0.05905 -7.9973532,5.462224 -12.9067751,5.58763 -12.9067751,5.58763 0.546616,1.037559 1.1714004,1.672466 1.6449094,2.044749 0.9014666,0.303676 3.4630264,0.68552 6.9856632,-2.837117 4.4229785,-4.422416 10.2687335,-6.442984 8.7762245,-3.379797 0.331794,-0.467885 0.666962,-0.954328 1.007753,-1.474513 z"
   id="path1514" />
<circle
   style="fill:#cf9b00;stroke-width:0.562362"
   cx="87.840347"
   cy="15.704882"
   id="circle1516"
   r="2.3900392" />
<circle
   style="fill:#cf9b00;stroke-width:0.562362"
   cx="75.786118"
   cy="8.7822037"
   id="circle1518"
   r="0.91721278" />
<circle
   style="fill:#cf9b00;stroke-width:0.562362"
   cx="83.20311"
   cy="11.988231"
   id="circle1520"
   r="1.6409729" />
<circle
   style="fill:#e3aa00;stroke-width:0.562362"
   cx="65.345856"
   cy="75.596458"
   id="circle1522"
   r="1.8276771" />
<circle
   style="fill:#e3aa00;stroke-width:0.562362"
   cx="72.937752"
   cy="73.90937"
   id="circle1524"
   r="0.98413384" />
<circle
   style="opacity:0.47;fill:#e3aa00;stroke-width:0.562362"
   cx="72.375389"
   cy="67.723389"
   id="circle1526"
   r="1.2653149" />
<circle
   style="fill:#e3aa00;stroke-width:0.562362"
   cx="56.20747"
   cy="77.424133"
   id="circle1528"
   r="2.2494488" />
</svg>
