<svg version="1.1" xmlns="http://www.w3.org/2000/svg" xmlns:xlink="http://www.w3.org/1999/xlink" width="140" height="123.08061" viewBox="0,0,140,123.08061"><g transform="translate(-170,-118.45969)"><g data-paper-data="{&quot;isPaintingLayer&quot;:true}" fill-rule="nonzero" stroke-linecap="butt" stroke-linejoin="miter" stroke-miterlimit="10" stroke-dasharray="" stroke-dashoffset="0" style="mix-blend-mode: normal"><path d="M225.2234,145.01086c12.17514,-12.03118 34.03247,-23.92626 57.47229,-2.41535c3.97646,3.64861 7.0374,9.0366 8.14244,14.1226c3.44166,15.83837 23.49493,21.3394 18.05914,34.97105c-2.18815,5.48641 -14.302,3.77233 -19.63488,16.65886c-8.59346,20.76803 -42.75021,32.32289 -74.41795,4.94766c0,0 -14.05906,-18.54445 -21.81628,-8.48661c-7.75723,10.05841 -23.02817,26.70152 -23.02817,-11.95976c0,-33.80022 7.25222,-21.34108 18.16092,-16.31244c10.90758,5.02921 12.62391,9.41226 26.92647,-17.30445c0.00056,0.00056 3.28813,-7.45411 10.13602,-14.22158z" data-paper-data="{&quot;index&quot;:null}" fill="#e3aa00" stroke="none" stroke-width="0.56236"/><path d="M289.08694,165.59275c-1.07186,-5.086 -4.03945,-10.474 -7.89332,-14.1226c-22.72281,-21.51092 -43.91149,-9.61583 -55.71378,2.41591c-6.63869,6.7669 -9.82559,14.22158 -9.82559,14.22158c-13.86448,26.7167 -15.52851,22.33421 -26.1026,17.30501c-10.57466,-5.02921 -17.60531,-17.48834 -17.60531,16.31188c0,3.82125 0.14678,7.09364 0.41446,9.8942c-1.36373,-3.78695 -2.18984,-9.78229 -2.18984,-18.76771c0,-33.80134 7.25222,-21.34165 18.16092,-16.313c10.90758,5.02977 12.62391,9.41338 26.92646,-17.30445c0,0 3.28813,-7.45467 10.13545,-14.22214c12.1757,-12.03118 34.03304,-23.92682 57.47285,-2.41591c3.9759,3.64861 7.0374,9.03604 8.14244,14.1226c3.44166,15.83837 23.49493,21.33883 18.05857,34.97106c-0.3571,0.89528 -0.98245,1.59711 -1.79506,2.2039c-1.88279,-9.27223 -15.44921,-15.30975 -18.18567,-28.30031z" data-paper-data="{&quot;index&quot;:null}" fill="#ffff94" stroke="none" stroke-width="1"/><path d="M211.57994,169.37688c-12.16446,10.99924 -9.5416,-48.46719 13.75707,-50.66771c31.04521,-2.93216 49.9029,20.94968 49.9029,20.94968c-33.17599,-22.17563 -53.24558,20.30128 -63.65996,29.71803z" data-paper-data="{&quot;index&quot;:null}" fill="#cf9b00" stroke="none" stroke-width="0.56236"/><path d="M212.17773,142.7406c4.21772,-12.93433 15.18378,-17.99559 15.18378,-17.99559c19.96386,-8.43543 41.05244,7.87307 41.05244,7.87307c-34.30409,-5.62362 -61.88178,27.43484 -56.23622,10.12252z" data-paper-data="{&quot;index&quot;:null}" fill="#e3aa00" stroke="none" stroke-width="0.56236"/><g data-paper-data="{&quot;index&quot;:null}" stroke-width="1"><g><path d="M303.98072,172.68666c-4.9269,2.50269 -11.03188,0.37584 -13.63584,-4.75044c-2.60396,-5.12628 -0.72085,-11.31078 4.20605,-13.81347c4.9269,-2.50269 11.03188,-0.37584 13.63584,4.75044c2.60396,5.12628 0.72085,11.31078 -4.20605,13.81347z" fill="#ffffff" stroke="#b2b2b2"/><path d="M294.54917,154.12169c4.92686,-2.50251 11.03186,-0.37566 13.6356,4.75084c2.60374,5.12593 0.72039,11.31079 -4.20647,13.8133c-4.92629,2.50195 -11.0313,0.3751 -13.6356,-4.75084c-2.60317,-5.12649 -0.72039,-11.31079 4.20647,-13.8133zM303.49635,168.9866c3.8758,-1.96827 5.35762,-6.83383 3.3095,-10.86652c-2.04812,-4.0327 -6.85126,-5.70629 -10.72762,-3.73746c-3.8758,1.96827 -5.3565,6.83439 -3.30894,10.86652c2.04869,4.0327 6.85182,5.70629 10.72706,3.73746z" fill="#f7f7f7" stroke="none"/></g><path d="M302.2569,165.28345c-1.25383,0 -2.27026,-1.01643 -2.27026,-2.27026c0,-1.25383 1.01643,-2.27026 2.27026,-2.27026c1.25383,0 2.27026,1.01643 2.27026,2.27026c0,1.25383 -1.01643,2.27026 -2.27026,2.27026z" fill="#000000" stroke="none"/></g><path d="M171.51388,174.54556v0c-1.86086,39.95977 20.41881,35.39733 18.75703,27.24307c-1.66178,-8.15425 0,-16.05769 0,-16.05769c4.48146,-1.67022 6.91986,-3.52432 7.89894,-5.41724c4.24639,-0.17152 8.29428,-4.97128 16.9181,-21.08127c0,0 3.28813,-7.45467 10.13545,-14.22158c12.17514,-12.03118 34.03247,-23.92682 57.47229,-2.41535c3.9759,3.64861 7.0374,9.03604 8.14244,14.1226c3.44166,15.83781 23.49493,21.33883 18.05857,34.97105c-2.18815,5.48641 -14.302,3.77233 -19.63431,16.65886c-8.59346,20.76803 -42.75077,32.32289 -74.41795,4.94766c0,0 -14.05906,-18.54445 -21.81628,-8.48661c-7.75723,10.05841 -23.02817,26.70152 -23.02817,-11.95976c0.00056,-9.11702 0.52918,-14.86436 1.51388,-18.30377z" data-paper-data="{&quot;index&quot;:null}" fill="#cf9b00" stroke="none" stroke-width="0.56236"/><path d="M271.08966,221.92906c0,0 -33.05115,33.71418 -50.84879,12.73357c-17.79764,-20.98061 -10.01848,-38.04886 0.97907,-27.79137c10.99699,10.25805 20.90019,19.85644 49.86972,15.0578z" data-paper-data="{&quot;index&quot;:null}" fill="#cf9b00" stroke="none" stroke-width="0.56236"/><path d="M215.08795,159.23243c0,0 3.28813,-7.45467 10.13545,-14.22158c12.17514,-12.03118 34.03247,-23.92626 57.47229,-2.41535c3.97646,3.64861 7.0374,9.03604 8.14244,14.1226c4.38755,20.18768 23.97069,16.94678 18.0597,34.97105c-1.84061,5.61238 -14.302,3.77233 -19.63488,16.65886c-8.59289,20.76803 -42.75021,32.32289 -74.41795,4.94766c0,0 -3.43491,-3.96747 -7.84608,-7.33489c-4.85093,-6.42161 -13.26219,-2.99008 -15.16634,-8.67106c-4.67998,-13.21551 2.72914,-17.1543 4.53657,-17.1543c5.00728,1.1281 8.89264,-2.54694 18.71879,-20.903z" data-paper-data="{&quot;index&quot;:null}" fill="#ffbf00" stroke="none" stroke-width="0.56236"/><path d="M290.83701,166.4661c-1.1056,-5.08657 -4.16654,-10.474 -8.14301,-14.1226c-23.44207,-21.51092 -45.30109,-9.61527 -57.47735,2.41535c-6.84845,6.7669 -10.13602,14.22158 -10.13602,14.22158c-9.82672,18.35606 -14.76594,17.4411 -19.77322,16.313c-1.82824,0 -3.29938,0.16365 -4.48371,0.47013c1.2535,-4.15361 4.4421,-5.62756 5.54601,-5.62756c5.00672,1.1281 8.89264,-2.5475 18.71823,-20.903c0,0 3.28813,-7.45467 10.13545,-14.22158c12.17514,-12.03118 34.03247,-23.92626 57.47229,-2.41535c3.97646,3.64861 7.0374,9.03603 8.14244,14.1226c4.33244,19.93462 23.48087,17.02552 18.26665,34.30747c-3.33087,-7.48841 -15.00326,-9.5416 -18.26777,-24.56004z" data-paper-data="{&quot;index&quot;:null}" fill="#ffff94" stroke="none" stroke-width="0.56236" opacity="0.21"/><path d="M200.9496,196.11946c4.67042,3.36742 8.30665,7.33489 8.30665,7.33489c33.52804,27.37523 69.69074,15.82037 78.78864,-4.94766c5.6225,-12.83086 24.23331,1.96996 20.75848,-16.58968c0.90203,2.46877 0.92284,5.53196 -0.46789,9.77217c-1.84061,5.61238 -14.302,3.77233 -19.63488,16.65886c-8.59289,20.76803 -42.75021,32.32289 -74.41795,4.94766c0,0 -3.43491,-3.96747 -7.84608,-7.33489c-4.85094,-6.42161 -13.26219,-2.99008 -15.16635,-8.67106c-0.8351,-2.35798 -1.27937,-4.41623 -1.44527,-6.2141c3.50971,0.87785 8.00973,1.14891 11.12465,5.04383z" data-paper-data="{&quot;index&quot;:null}" fill="#e3aa00" stroke="none" stroke-width="0.56236" opacity="0.54"/><path d="M308.9597,191.68916c-1.04824,1.98851 -2.38723,2.50757 -2.38723,2.50757c0,0 -6.40024,6.54983 -16.02732,-8.15425c-2.74883,-4.19859 1.42671,-2.72858 5.50777,0.05905c7.99792,5.46222 12.90678,5.58763 12.90678,5.58763z" data-paper-data="{&quot;index&quot;:null}" fill="#8b5c29" stroke="none" stroke-width="0.56236" opacity="0.46"/><g data-paper-data="{&quot;index&quot;:null}" stroke-width="1"><path d="M294.23975,177.89165c-5.8003,2.94634 -13.22051,-0.01624 -16.57351,-6.61711c-3.353,-6.60086 -1.36907,-14.3404 4.43123,-17.28674c5.8003,-2.94634 13.22051,0.01624 16.57351,6.61711c3.353,6.60086 1.36907,14.3404 -4.43123,17.28674z" fill="#8f0000" stroke="none" opacity="0.16"/><path d="M294.17911,174.9718c-5.98832,3.04185 -13.4085,0.45683 -16.57343,-5.77379c-3.16493,-6.23063 -0.87611,-13.74745 5.11221,-16.7893c5.98832,-3.04185 13.4085,-0.45683 16.57343,5.77379c3.16493,6.23063 0.87611,13.74745 -5.11221,16.7893z" fill="#ffffff" stroke="#b2b2b2"/><path d="M282.71763,152.40761c5.98747,-3.04125 13.40784,-0.45664 16.57281,5.77377c3.16497,6.23041 0.8756,13.74694 -5.11243,16.78876c-5.98747,3.04125 -13.40784,0.45664 -16.57281,-5.77377c-3.16497,-6.23041 -0.8756,-13.74751 5.11243,-16.78876zM293.59146,170.47518c4.71091,-2.39285 6.51159,-8.30665 4.02201,-13.20708c-2.48958,-4.90155 -8.32746,-6.93561 -13.03837,-4.54276c-4.70978,2.39229 -6.51103,8.30665 -4.02145,13.20764c2.49014,4.90042 8.32802,6.93449 13.03781,4.5422z" fill="#f7f7f7" stroke="none"/></g><path d="M292.08602,165.9729c-1.52373,0 -2.75895,-1.23522 -2.75895,-2.75895c0,-1.52373 1.23522,-2.75895 2.75895,-2.75895c1.52373,0 2.75895,1.23522 2.75895,2.75895c0,1.52373 -1.23522,2.75895 -2.75895,2.75895z" data-paper-data="{&quot;index&quot;:null}" fill="#000000" stroke="none" stroke-width="0.56236"/><path d="M195.8068,186.22975c8.03784,0 15.24564,4.31163 15.24564,4.31163c37.30598,14.75807 59.98549,10.03029 76.99188,0.74963c12.29436,-6.70954 24.23331,7.31071 20.76016,-9.37064c0.90034,2.46821 1.54481,5.53027 0.15465,9.76879c-1.84061,5.61238 -14.53369,4.16429 -19.86713,17.05082c-8.59289,20.76803 -43.14218,31.93036 -74.80992,4.55513c0,0 -3.43491,-3.9669 -7.84608,-7.33433c-4.85094,-6.42161 -13.26219,-2.99008 -15.16635,-8.67106c-1.82936,-5.16586 -1.80799,-8.90894 -0.99932,-11.55879c1.32493,-0.68215 3.09918,0.49882 5.53646,0.49882z" data-paper-data="{&quot;index&quot;:null}" fill="#e3aa00" stroke="none" stroke-width="0.56236" opacity="0.2"/><path d="M234.67221,234.96799c-16.90404,-2.77863 -24.56004,-19.2699 -6.74835,-9.56015c10.50324,5.72597 35.17801,3.52657 35.17801,3.52657c0,0 -17.27633,7.86745 -28.42966,6.03358z" data-paper-data="{&quot;index&quot;:null}" fill="#e3aa00" stroke="none" stroke-width="0.56236"/><path d="M190.33614,194.13432c0.70014,-2.87817 -9.6507,-1.62466 -9.6507,-1.62466l9.06472,-3.04575c0,0 -0.11416,7.54859 0.58598,4.67042z" data-paper-data="{&quot;index&quot;:null}" fill="#cf9b00" stroke="none" stroke-width="0.56236"/><path d="M290.54515,186.04249c-2.74883,-4.1986 1.42671,-2.72858 5.50777,0.05905c7.99735,5.46222 12.90678,5.58763 12.90678,5.58763c-0.54662,1.03756 -1.1714,1.67247 -1.64491,2.04475c-0.90147,0.30368 -3.46303,0.68552 -6.98566,-2.83712c-4.42298,-4.42242 -10.26873,-6.44298 -8.77622,-3.3798c-0.33179,-0.46788 -0.66696,-0.95433 -1.00775,-1.47451z" data-paper-data="{&quot;index&quot;:null}" fill="#5a3d1c" stroke="none" stroke-width="0.56236" opacity="0.29"/><path d="M222.15965,136.55462c-1.31998,0 -2.39004,-1.07006 -2.39004,-2.39004c0,-1.31998 1.07006,-2.39004 2.39004,-2.39004c1.31998,0 2.39004,1.07006 2.39004,2.39004c0,1.31998 -1.07006,2.39004 -2.39004,2.39004z" data-paper-data="{&quot;index&quot;:null}" fill="#cf9b00" stroke="none" stroke-width="0.56236"/><path d="M234.21388,128.15911c-0.50656,0 -0.91721,-0.41065 -0.91721,-0.91721c0,-0.50656 0.41065,-0.91721 0.91721,-0.91721c0.50656,0 0.91721,0.41065 0.91721,0.91721c0,0.50656 -0.41065,0.91721 -0.91721,0.91721z" data-paper-data="{&quot;index&quot;:null}" fill="#cf9b00" stroke="none" stroke-width="0.56236"/><path d="M226.79689,132.0889c-0.90628,0 -1.64097,-0.73469 -1.64097,-1.64097c0,-0.90628 0.73469,-1.64097 1.64097,-1.64097c0.90628,0 1.64097,0.73469 1.64097,1.64097c0,0.90628 -0.73469,1.64097 -1.64097,1.64097z" data-paper-data="{&quot;index&quot;:null}" fill="#cf9b00" stroke="none" stroke-width="0.56236"/><path d="M244.65414,195.88383c-1.0094,0 -1.82768,-0.81828 -1.82768,-1.82768c0,-1.0094 0.81828,-1.82768 1.82768,-1.82768c1.0094,0 1.82768,0.81828 1.82768,1.82768c0,1.0094 -0.81828,1.82768 -1.82768,1.82768z" data-paper-data="{&quot;index&quot;:null}" fill="#e3aa00" stroke="none" stroke-width="0.56236"/><path d="M237.06225,193.3532c-0.54352,0 -0.98413,-0.44061 -0.98413,-0.98413c0,-0.54352 0.44061,-0.98413 0.98413,-0.98413c0.54352,0 0.98413,0.44061 0.98413,0.98413c0,0.54352 -0.44061,0.98413 -0.98413,0.98413z" data-paper-data="{&quot;index&quot;:null}" fill="#e3aa00" stroke="none" stroke-width="0.56236"/><path d="M237.62461,187.4484c-0.69881,0 -1.26531,-0.5665 -1.26531,-1.26531c0,-0.69881 0.5665,-1.26531 1.26531,-1.26531c0.69881,0 1.26531,0.5665 1.26531,1.26531c0,0.69881 -0.5665,1.26531 -1.26531,1.26531z" data-paper-data="{&quot;index&quot;:null}" fill="#e3aa00" stroke="none" stroke-width="0.56236" opacity="0.47"/><path d="M253.79253,198.13328c-1.24234,0 -2.24945,-1.00711 -2.24945,-2.24945c0,-1.24234 1.00711,-2.24945 2.24945,-2.24945c1.24234,0 2.24945,1.00711 2.24945,2.24945c0,1.24234 -1.00711,2.24945 -2.24945,2.24945z" data-paper-data="{&quot;index&quot;:null}" fill="#e3aa00" stroke="none" stroke-width="0.56236"/></g></g></svg>