<svg width="140" height="123.081" xmlns="http://www.w3.org/2000/svg" overflow="visible"><path d="M84.777 26.551C72.6 14.52 50.744 2.625 27.304 24.136c-3.976 3.648-7.037 9.036-8.142 14.122C15.72 54.097-4.333 59.598 1.102 73.23c2.189 5.487 14.303 3.773 19.636 16.66 8.593 20.767 42.75 32.322 74.418 4.947 0 0 14.059-18.544 21.816-8.487C124.729 96.408 140 113.051 140 74.39c0-33.8-7.252-21.34-18.16-16.312-10.909 5.03-12.625 9.412-26.927-17.304-.001 0-3.289-7.454-10.136-14.222z" fill="#e3aa00"/><path d="M20.913 47.133c1.072-5.086 4.04-10.474 7.893-14.123C51.53 11.5 72.718 23.395 84.52 35.426c6.639 6.767 9.826 14.222 9.826 14.222 13.864 26.717 15.528 22.334 26.102 17.305 10.575-5.03 17.606-17.488 17.606 16.312 0 3.821-.147 7.093-.415 9.894 1.364-3.787 2.19-9.782 2.19-18.768 0-33.801-7.252-21.341-18.16-16.313-10.908 5.03-12.625 9.414-26.927-17.304 0 0-3.288-7.455-10.136-14.222C72.43 14.52 50.573 2.625 27.133 24.136c-3.976 3.648-7.037 9.036-8.142 14.122C15.549 54.097-4.504 59.598.932 73.23c.357.896.983 1.598 1.795 2.204 1.883-9.272 15.45-15.31 18.186-28.3z" fill="#ffff94" opacity=".21"/><path d="M34.76 21.2S53.618-2.684 84.663.25c23.299 2.2 25.922 61.666 13.757 50.667C88.006 41.5 67.936-.976 34.76 21.2z" fill="#cf9b00"/><path d="M41.586 14.158S62.675-2.15 82.638 6.285c0 0 10.967 5.062 15.184 17.996 5.646 17.312-21.932-15.746-56.236-10.123z" fill="#e3aa00"/><g transform="scale(.56236)"><ellipse transform="rotate(26.929 19.09 79.912)" cx="19.091" cy="79.92" rx="17.792" ry="18.512" fill="#fff" stroke="#b2b2b2"/><path d="M27.475 63.415c-8.761-4.45-19.617-.668-24.247 8.448-4.63 9.115-1.281 20.113 7.48 24.563 8.76 4.449 19.616.667 24.247-8.448 4.629-9.116 1.281-20.113-7.48-24.563zm-15.91 26.433c-6.892-3.5-9.527-12.152-5.885-19.323 3.642-7.171 12.183-10.147 19.076-6.646 6.892 3.5 9.525 12.153 5.884 19.323-3.643 7.171-12.184 10.147-19.075 6.646z" fill="#f7f7f7"/><circle cx="13.769" cy="79.226" r="4.037"/></g><path d="M138.486 56.086c1.861 39.96-20.419 35.397-18.757 27.243 1.662-8.154 0-16.058 0-16.058-4.481-1.67-6.92-3.524-7.899-5.417-4.246-.172-8.294-4.971-16.918-21.081 0 0-3.288-7.455-10.135-14.222C72.6 14.52 50.744 2.624 27.304 24.136c-3.976 3.648-7.037 9.036-8.142 14.122C15.72 54.096-4.333 59.598 1.103 73.23c2.188 5.487 14.302 3.773 19.635 16.66 8.593 20.767 42.75 32.322 74.418 4.947 0 0 14.059-18.544 21.816-8.487C124.729 96.408 140 113.051 140 74.39c0-9.116-.53-14.864-1.514-18.303z" fill="#cf9b00"/><path d="M38.91 103.47s33.051 33.714 50.85 12.733c17.797-20.98 10.018-38.049-.98-27.791-10.997 10.258-20.9 19.856-49.87 15.057z" fill="#cf9b00"/><path d="M94.912 40.773s-3.288-7.455-10.135-14.222C72.6 14.52 50.744 2.625 27.304 24.136c-3.976 3.648-7.037 9.036-8.142 14.122-4.388 20.188-23.97 16.947-18.06 34.971 1.84 5.613 14.302 3.773 19.635 16.66 8.593 20.767 42.75 32.322 74.418 4.947 0 0 3.435-3.967 7.846-7.335 4.851-6.422 13.262-2.99 15.166-8.671 4.68-13.215-2.729-17.154-4.536-17.154-5.007 1.128-8.893-2.547-18.719-20.903z" fill="#ffbf00"/><path d="M19.163 48.006c1.106-5.086 4.167-10.474 8.143-14.122 23.442-21.511 45.301-9.615 57.477 2.415 6.849 6.767 10.136 14.222 10.136 14.222 9.827 18.356 14.766 17.44 19.774 16.313 1.828 0 3.299.163 4.483.47-1.253-4.154-4.442-5.628-5.546-5.628-5.006 1.128-8.892-2.547-18.718-20.903 0 0-3.288-7.454-10.135-14.221C72.6 14.52 50.744 2.625 27.304 24.136c-3.976 3.649-7.037 9.036-8.142 14.123C14.829 58.194-4.32 55.284.895 72.566c3.331-7.488 15.003-9.541 18.268-24.56z" opacity=".21" fill="#ffff94"/><path d="M109.05 77.66c-4.67 3.367-8.306 7.335-8.306 7.335-33.528 27.375-69.691 15.82-78.789-4.948-5.622-12.83-24.233 1.97-20.758-16.59-.902 2.47-.923 5.532.468 9.772 1.84 5.613 14.302 3.773 19.634 16.66 8.593 20.767 42.75 32.322 74.418 4.947 0 0 3.435-3.967 7.846-7.335 4.851-6.422 13.263-2.99 15.167-8.671.835-2.358 1.28-4.416 1.445-6.214-3.51.878-8.01 1.149-11.125 5.044z" opacity=".54" fill="#e3aa00"/><path d="M1.04 73.23s4.91-.126 12.907-5.588c4.081-2.788 8.257-4.258 5.508-.06-9.627 14.705-16.027 8.155-16.027 8.155s-1.34-.519-2.388-2.508z" opacity=".46" fill="#8b5c29"/><g transform="scale(.56236)"><ellipse transform="rotate(26.929 38.822 84.418)" cx="38.824" cy="84.427" rx="20.946" ry="23.837" opacity=".16" fill="#8f0000"/><ellipse transform="rotate(26.929 38.323 80.423)" cx="38.324" cy="80.427" rx="21.625" ry="22.5" fill="#fff" stroke="#b2b2b2"/><path d="M48.514 60.367c-10.647-5.408-23.842-.812-29.47 10.267-5.628 11.079-1.557 24.445 9.091 29.854 10.647 5.408 23.842.812 29.47-10.267 5.628-11.079 1.557-24.446-9.091-29.854zM29.178 92.495c-8.377-4.255-11.579-14.771-7.152-23.485 4.427-8.716 14.808-12.333 23.185-8.078 8.375 4.254 11.578 14.771 7.151 23.486-4.428 8.714-14.809 12.331-23.184 8.077z" fill="#f7f7f7"/></g><circle cx="17.914" cy="44.754" r="2.759"/><path d="M114.193 67.77c-8.038 0-15.245 4.312-15.245 4.312-37.306 14.758-59.986 10.03-76.992.75-12.295-6.71-24.234 7.31-20.76-9.371-.9 2.468-1.545 5.53-.155 9.768 1.84 5.613 14.534 4.165 19.867 17.051 8.593 20.768 43.142 31.93 74.81 4.555 0 0 3.435-3.966 7.846-7.334 4.85-6.422 13.262-2.99 15.166-8.671 1.83-5.166 1.808-8.909 1-11.559-1.325-.682-3.1.5-5.537.5z" opacity=".2" fill="#e3aa00"/><path d="M46.898 110.475s24.675 2.2 35.178-3.527c17.812-9.71 10.156 6.782-6.748 9.56-11.154 1.834-28.43-6.033-28.43-6.033z" fill="#e3aa00"/><path d="M120.25 71.004l9.065 3.046s-10.351-1.254-9.651 1.625c.7 2.878.586-4.67.586-4.67z" fill="#cf9b00"/><path d="M19.455 67.583c2.749-4.199-1.427-2.729-5.508.059C5.95 73.104 1.04 73.229 1.04 73.229c.547 1.038 1.172 1.673 1.645 2.045.902.304 3.463.686 6.986-2.837 4.423-4.422 10.269-6.443 8.776-3.38.332-.468.667-.954 1.008-1.474z" opacity=".29" fill="#5a3d1c"/><circle cx="87.84" cy="15.705" r="2.39" fill="#cf9b00"/><circle cx="75.786" cy="8.782" r=".917" fill="#cf9b00"/><circle cx="83.203" cy="11.988" r="1.641" fill="#cf9b00"/><circle cx="65.346" cy="75.596" r="1.828" fill="#e3aa00"/><circle cx="72.938" cy="73.909" r=".984" fill="#e3aa00"/><circle cx="72.375" cy="67.723" r="1.265" opacity=".47" fill="#e3aa00"/><circle cx="56.207" cy="77.424" r="2.249" fill="#e3aa00"/></svg>