<?xml version="1.0" encoding="UTF-8" standalone="no"?>
<!-- Created with Inkscape (http://www.inkscape.org/) -->

<svg
   id="svg17960"
   sodipodi:docname="funnyflower-02.svg"
   viewBox="0 0 140 135.6794"
   sodipodi:version="0.32"
   version="1.1"
   inkscape:version="1.2.2 (732a01da63, 2022-12-09)"
   width="140"
   height="135.6794"
   xmlns:inkscape="http://www.inkscape.org/namespaces/inkscape"
   xmlns:sodipodi="http://sodipodi.sourceforge.net/DTD/sodipodi-0.dtd"
   xmlns="http://www.w3.org/2000/svg"
   xmlns:svg="http://www.w3.org/2000/svg"
   xmlns:rdf="http://www.w3.org/1999/02/22-rdf-syntax-ns#"
   xmlns:cc="http://creativecommons.org/ns#"
   xmlns:dc="http://purl.org/dc/elements/1.1/">
  <defs
     id="defs566" />
  <sodipodi:namedview
     id="base"
     bordercolor="#666666"
     inkscape:pageshadow="2"
     inkscape:window-y="-8"
     pagecolor="#ffffff"
     inkscape:window-maximized="1"
     inkscape:window-width="1920"
     inkscape:zoom="0.89591114"
     inkscape:window-x="1912"
     showgrid="false"
     borderopacity="1.0"
     inkscape:current-layer="g1056"
     inkscape:cx="322.57663"
     inkscape:cy="306.95008"
     inkscape:window-height="1017"
     inkscape:pageopacity="0.0"
     inkscape:showpageshadow="2"
     inkscape:pagecheckerboard="0"
     inkscape:deskcolor="#d1d1d1" />
  <g
     id="g1056"
     transform="matrix(0.22151234,0,0,0.22151234,-13.014937,-36.503611)">
    <g
       id="g17924"
       inkscape:export-ydpi="79.300003"
       inkscape:export-xdpi="79.300003"
       inkscape:export-filename="/home/ironya/flower-01.png"
       transform="matrix(1.8102,-0.42324,0.42324,1.8102,-511.48,-398)">
      <path
         id="path912"
         inkscape:connector-curvature="0"
         sodipodi:nodetypes="ccccc"
         style="fill:#a399b8;fill-rule:evenodd;stroke:#000000;stroke-width:1pt"
         d="m 333.25,555.67 c -12.82,-44.16 -42.42,-86.98 -86.66,-103.65 -19.6,-7.83 -41.38,10.74 -35.68,31.26 3.76,23.57 26.33,30.4 45.71,42.06 27.66,14.02 50.07,23.18 76.63,30.33 z" />
      <path
         id="path5462"
         style="fill:#bcb1de;fill-rule:evenodd"
         inkscape:connector-curvature="0"
         d="m 327.38,538.81 c -34.06,-1.6 -70,-15.53 -89.55,-44.54 -8.97,-12.78 0.74,-31.7 16.52,-31.14 17.65,-1.37 26.1,16.24 38.12,25.67 14.2,14.7 25.24,32.1 34.91,50.01 z" />
    </g>
    <g
       id="g17939"
       inkscape:export-ydpi="79.300003"
       inkscape:export-xdpi="79.300003"
       inkscape:export-filename="/home/ironya/flower-01.png"
       transform="matrix(1.8591,0,0,1.8591,-328.24,-560.83)">
      <path
         id="path913"
         inkscape:connector-curvature="0"
         sodipodi:nodetypes="ccccc"
         style="fill:#a399b8;fill-rule:evenodd;stroke:#000000;stroke-width:1pt"
         d="m 395.48,567.91 c 11.44,44.54 39.69,88.26 83.39,106.31 19.34,8.43 41.69,-9.45 36.64,-30.14 -3.03,-23.67 -30.5,-34.85 -44.37,-43.46 -23.31,-14.82 -49.33,-24.74 -75.66,-32.71 z" />
      <path
         id="path5465"
         style="fill:#bcb1de;fill-rule:evenodd"
         inkscape:connector-curvature="0"
         d="m 397.55,571.97 c 9.19,32.83 30.81,64.74 63.47,77.29 14.46,5.89 30.72,-7.81 26.65,-23.07 -2.62,-17.51 -21.67,-21.8 -33.56,-31.4 -17.5,-10.55 -36.93,-17.41 -56.56,-22.82 z" />
    </g>
    <g
       id="g17936"
       inkscape:export-ydpi="79.300003"
       inkscape:export-xdpi="79.300003"
       inkscape:export-filename="/home/ironya/flower-01.png"
       transform="matrix(1.7829,0.52662,-0.52662,1.7829,-9.7079,-742.14)">
      <path
         id="path914"
         inkscape:connector-curvature="0"
         sodipodi:nodetypes="ccccc"
         style="fill:#a399b8;fill-rule:evenodd;stroke:#000000;stroke-width:1pt"
         d="m 402.37,566.68 c 31.32,-33.66 77.02,-58.59 124.03,-53.57 21.03,1.83 32.12,28.21 17.81,43.98 -13.97,19.34 -38.99,14.61 -59.75,16.99 -27.55,1.89 -55.15,-1.83 -82.09,-7.4 z" />
      <path
         id="path5466"
         style="fill:#bcb1de;fill-rule:evenodd"
         inkscape:connector-curvature="0"
         d="m 407.53,563.1 c 22.76,-25.39 56.26,-44.44 91.1,-41.26 15.58,1.12 24.1,20.6 13.71,32.48 -10.1,14.54 -29.08,9.97 -44,13.33 -20.36,1.72 -40.81,-0.72 -60.81,-4.55 z" />
    </g>
    <g
       id="g17933"
       inkscape:export-ydpi="79.300003"
       inkscape:export-xdpi="79.300003"
       inkscape:export-filename="/home/ironya/flower-01.png"
       transform="matrix(1.7665,0.57938,-0.57938,1.7665,10.291,-743.79)">
      <path
         id="path915"
         inkscape:connector-curvature="0"
         sodipodi:nodetypes="ccccc"
         style="fill:#a399b8;fill-rule:evenodd;stroke:#000000;stroke-width:1pt"
         d="m 402.45,550.74 c -0.4,-45.98 15.65,-95.5 53.24,-124.18 16.53,-13.13 42.72,-1.59 43.16,19.7 3.16,23.65 -14.51,37.68 -31.7,53.41 -18.71,20.32 -41.3,36.59 -64.7,51.07 z" />
      <path
         id="path5467"
         style="fill:#bcb1de;fill-rule:evenodd"
         inkscape:connector-curvature="0"
         d="m 408.67,533.63 c -0.3,-34.09 11.61,-70.75 39.49,-91.88 12.26,-9.68 31.69,-1.03 32.02,14.75 2.34,17.55 -14.77,26.97 -23.52,39.5 -13.88,14.99 -30.64,26.98 -47.99,37.63 z" />
    </g>
    <g
       id="g17930"
       inkscape:export-ydpi="79.300003"
       inkscape:export-xdpi="79.300003"
       inkscape:export-filename="/home/ironya/flower-01.png"
       transform="matrix(1.8482,0.20072,-0.20072,1.8482,-216.41,-595.94)">
      <path
         id="path918"
         inkscape:connector-curvature="0"
         sodipodi:nodetypes="ccccc"
         style="fill:#a399b8;fill-rule:evenodd;stroke:#000000;stroke-width:1pt"
         d="m 373.22,516.11 c 33.86,-31.11 56.36,-75.4 51.64,-122.44 -1.69,-21.04 -28.01,-32.3 -43.86,-18.08 -19.44,13.84 -16.48,34.09 -17.38,59.63 -2.06,27.54 4.2,53.91 9.6,80.89 z" />
      <path
         id="path5468"
         inkscape:connector-curvature="0"
         sodipodi:nodetypes="ccccc"
         style="fill:#bcb1de;fill-rule:evenodd"
         d="m 372.32,506.29 c 25.64,-22.46 45.59,-51.03 42.82,-85.91 -0.94,-15.59 -20.32,-24.34 -32.32,-14.08 -14.66,9.93 -10.31,28.97 -13.83,43.84 -1.96,20.34 -0.27,36.11 3.33,56.15 z" />
    </g>
    <g
       id="g17927"
       inkscape:export-ydpi="79.300003"
       inkscape:export-xdpi="79.300003"
       inkscape:export-filename="/home/ironya/flower-01.png"
       transform="matrix(1.7988,-0.46965,0.46965,1.7988,-508.94,-348.96)">
      <path
         id="path917"
         inkscape:connector-curvature="0"
         sodipodi:nodetypes="ccccc"
         style="fill:#a399b8;fill-rule:evenodd;stroke:#000000;stroke-width:1pt"
         d="m 336.29,532.59 c 19.73,-41.53 26.04,-93.2 4.03,-135.04 -9.46,-18.87 -38.08,-19.44 -47.44,-0.32 -12.83,20.12 -1.9,40.25 6.25,61.8 8.41,26.3 22.04,50.58 37.16,73.56 z" />
      <path
         id="path5469"
         style="fill:#bcb1de;fill-rule:evenodd"
         inkscape:connector-curvature="0"
         d="m 333.36,524.08 c 16.69,-29.72 23.93,-67.58 9.7,-99.54 -6.08,-14.38 -27.27,-16.17 -35.17,-2.5 -10.51,14.24 -0.06,30.74 1.56,45.94 4.93,19.83 13.84,38.41 23.91,56.1 z" />
    </g>
    <g
       id="g25917"
       inkscape:export-ydpi="79.300003"
       inkscape:export-xdpi="79.300003"
       inkscape:export-filename="/home/ironya/flower-01.png"
       transform="translate(11.162,-5.5809)">
      <path
         id="path911"
         inkscape:connector-curvature="0"
         sodipodi:nodetypes="ccccc"
         style="fill:#a399b8;fill-rule:evenodd;stroke:#000000;stroke-width:1.8591pt"
         d="m 314.1,481.41 c -47.78,70.87 -124.49,129.85 -212.28,134.24 -39.14,2.72 -67.138,-42.53 -45.408,-75.61 20.059,-39.58 63.598,-45.49 101.29,-53.77 50.05,-11.44 105.32,-7.31 156.4,-4.86 z" />
      <path
         id="path4840"
         style="fill:#bcb1de;fill-rule:evenodd"
         inkscape:connector-curvature="0"
         d="m 287.09,486.12 c -35.31,52.64 -92.03,96.42 -156.99,99.61 -28.97,1.99 -49.721,-31.66 -33.666,-56.23 14.816,-29.4 50.946,-25.9 77.526,-35.96 37.03,-8.46 75.32,-9.27 113.13,-7.42 z" />
      <path
         id="path5470"
         inkscape:connector-curvature="0"
         sodipodi:nodetypes="ccccc"
         style="fill:#e0c0e2;fill-rule:evenodd"
         d="m 134.06,564.27 c 11.15,-9.81 10.32,-17.37 2.1,-26.59 -8.44,-7.45 -22.16,-5.8 -26.94,4.12 -7.26,5.04 1.87,20.02 3.92,23.66 4.81,4.36 10.61,6.3 20.92,-1.19 z" />
    </g>
    <g
       id="g17942"
       inkscape:export-ydpi="79.300003"
       inkscape:export-xdpi="79.300003"
       inkscape:export-filename="/home/ironya/flower-01.png"
       transform="matrix(1.8473,0.20859,-0.20859,1.8473,-183.2,-627.29)">
      <path
         id="path916"
         inkscape:connector-curvature="0"
         sodipodi:nodetypes="ccccc"
         style="fill:#a399b8;fill-rule:evenodd;stroke:#000000;stroke-width:1pt"
         d="m 363.51,568.58 c 36.02,28.59 64.44,72.2 63.12,119.46 -0.18,21.1 -25.61,34.23 -42.45,21.19 -20.38,-12.41 -19.5,-37.03 -22.45,-57.18 -2.37,-29.42 -1.66,-56.17 1.78,-83.47 z" />
      <path
         id="path5464"
         style="fill:#bcb1de;fill-rule:evenodd"
         inkscape:connector-curvature="0"
         d="m 372.4,581.3 c -11.04,32.26 -11.3,70.8 8.49,99.65 8.58,13.05 29.74,10.97 35.03,-3.9 7.76,-15.92 -5.5,-30.25 -9.85,-44.9 -8.44,-18.61 -20.56,-35.27 -33.67,-50.85 z" />
      <path
         id="path6093"
         inkscape:connector-curvature="0"
         sodipodi:nodetypes="ccccc"
         style="fill:#e0c0e2;fill-rule:evenodd"
         d="m 404.21,679.79 c 6.37,-3.43 6.81,-7.12 3.92,-12.41 -3.18,-4.48 -9.88,-5.21 -13.25,-1.02 -4,1.6 -1.31,9.73 -0.74,11.69 1.8,2.61 4.34,4.16 10.07,1.74 z" />
    </g>
    <g
       id="g17946"
       inkscape:export-ydpi="79.300003"
       inkscape:export-xdpi="79.300003"
       inkscape:export-filename="/home/ironya/flower-01.png"
       transform="matrix(1.8548,-0.12544,0.12544,1.8548,-379.82,-513.52)">
      <path
         id="path4145"
         inkscape:connector-curvature="0"
         sodipodi:nodetypes="ccccc"
         style="fill:#a399b8;fill-rule:evenodd;stroke:#000000;stroke-width:1pt"
         d="m 353.67,568.78 c -0.02,45.98 -15.44,93.52 -50.65,124.88 -16.64,12.98 -46.45,0 -46.7,-21.29 -2.94,-23.68 18.67,-41.13 32.19,-53.12 22.74,-20.84 41.64,-36.21 65.16,-50.47 z" />
      <path
         id="path5463"
         style="fill:#bcb1de;fill-rule:evenodd"
         inkscape:connector-curvature="0"
         d="m 346.43,576.7 c 2.36,34.01 -7.31,71.32 -33.86,94.11 -11.65,10.4 -31.56,2.95 -32.85,-12.79 -3.4,-17.38 13.11,-27.81 21.08,-40.85 12.95,-15.81 28.95,-28.79 45.63,-40.47 z" />
      <path
         id="path6094"
         inkscape:connector-curvature="0"
         sodipodi:nodetypes="ccccc"
         style="fill:#e0c0e2;fill-rule:evenodd"
         d="m 299.33,663.12 c 7.03,-3.08 7.52,-6.4 4.33,-11.15 -3.52,-4.02 -10.91,-4.68 -14.62,-0.91 -4.42,1.43 -1.45,8.73 -0.82,10.49 1.99,2.35 4.79,3.75 11.11,1.57 z" />
    </g>
    <g
       id="g17954"
       inkscape:export-ydpi="79.300003"
       inkscape:export-xdpi="79.300003"
       inkscape:export-filename="/home/ironya/flower-01.png"
       transform="matrix(1.8591,0,0,1.8591,-316.05,-538.8)">
      <ellipse
         id="path908"
         style="fill:#ec8f00;fill-rule:evenodd"
         transform="matrix(3.0904,0,0,3.568,-648.76,-1237.5)"
         cx="329.33417"
         cy="499.75061"
         rx="16.745806"
         ry="13.024515" />
      <ellipse
         id="path1542"
         style="fill:#ffb533;fill-rule:evenodd"
         transform="matrix(1.2068,0,0,1.6483,-5.1797,-285.43)"
         cx="329.33417"
         cy="499.75061"
         rx="16.745806"
         ry="13.024515" />
    </g>
  </g>
  <metadata
     id="metadata38">
    <rdf:RDF>
      <cc:Work>
        <dc:format>image/svg+xml</dc:format>
        <dc:type
           rdf:resource="http://purl.org/dc/dcmitype/StillImage" />
        <cc:license
           rdf:resource="http://creativecommons.org/licenses/publicdomain/" />
        <dc:publisher>
          <cc:Agent
             rdf:about="http://openclipart.org/">
            <dc:title>Openclipart</dc:title>
          </cc:Agent>
        </dc:publisher>
      </cc:Work>
      <cc:License
         rdf:about="http://creativecommons.org/licenses/publicdomain/">
        <cc:permits
           rdf:resource="http://creativecommons.org/ns#Reproduction" />
        <cc:permits
           rdf:resource="http://creativecommons.org/ns#Distribution" />
        <cc:permits
           rdf:resource="http://creativecommons.org/ns#DerivativeWorks" />
      </cc:License>
    </rdf:RDF>
  </metadata>
</svg>
