<svg width="140" height="135.679" xmlns="http://www.w3.org/2000/svg"><g fill-rule="evenodd"><path d="M59.409 66.905c-9.281-16.506-25.165-30.9-44.467-33.437C6.35 32.166-.644 41.654 3.566 49.348c3.717 9.098 13.408 9.72 22.272 12.58 12.406 3.028 22.25 4.6 33.57 4.977z" fill="#a399b8" stroke="#000" stroke-width=".4118pt"/><path d="M55.474 60.695c-13.807 2.551-29.524.335-40.083-9.465-4.795-4.283-2.676-12.78 3.704-14.035 6.95-2.204 11.989 4.065 17.692 6.72 7.073 4.563 13.13 10.505 18.687 16.78z" fill="#bcb1de"/><path d="M77.14 73.139c4.711 18.342 16.345 36.346 34.341 43.78 7.965 3.471 17.169-3.892 15.089-12.412-1.248-9.748-12.56-14.352-18.272-17.898-9.6-6.103-20.315-10.188-31.158-13.47z" fill="#a399b8" stroke="#000" stroke-width=".41181pt"/><path d="M77.992 74.81c3.785 13.52 12.688 26.661 26.138 31.83 5.955 2.425 12.651-3.217 10.975-9.5-1.079-7.212-8.924-8.978-13.82-12.932-7.207-4.344-15.209-7.17-23.293-9.397z" fill="#bcb1de"/><path d="M77.64 69.842c16.295-9.64 37.252-14.154 55.232-6.688 8.092 3.176 9.395 14.888 1.904 19.447-7.774 6.008-17.103 1.222-25.58-.26-11.1-2.468-21.567-7.156-31.556-12.499z" fill="#a399b8" stroke="#000" stroke-width=".4118pt"/><path d="M80.095 69.03c11.95-7.372 27.403-10.988 40.792-5.668 6.022 2.26 7.115 10.947 1.625 14.427-5.685 4.564-12.647.545-18.932.132-8.241-1.696-16.033-5.045-23.485-8.89z" fill="#bcb1de"/><path d="M76.062 65.894c5.745-18.044 18.38-35.361 36.77-41.76 8.154-3.016 16.92 4.861 14.36 13.248-1.798 9.66-10.513 12.882-19.258 16.831-9.93 5.55-20.857 9.018-31.872 11.68z" fill="#a399b8" stroke="#000" stroke-width=".41181pt"/><path d="M80.692 59.997c4.258-13.378 13.623-26.195 27.244-30.885 6.04-2.214 12.533 3.664 10.637 9.881-1.337 7.168-9.241 8.658-14.273 12.438-7.355 4.084-15.452 6.625-23.608 8.566z" fill="#bcb1de"/><path d="M68.896 59.377c15.246-11.23 26.426-28.362 26.586-47.83.243-8.69-10.032-14.47-17.153-9.352-8.574 4.801-8.262 13.223-9.766 23.64-2.068 11.183-.678 22.257.333 33.542z" fill="#a399b8" stroke="#000" stroke-width=".41181pt"/><path d="M68.964 55.317c11.496-8.055 20.934-18.865 21.35-33.268.309-6.424-7.236-10.868-12.605-7.2-6.443 3.413-5.51 11.401-7.611 17.332-1.707 8.24-1.716 14.772-1.134 23.136z" fill="#bcb1de"/><g><path d="M63.653 63.426c3.54-18.6.68-39.845-12.443-54.227-5.733-6.535-17.196-3.784-18.936 4.808-3.02 9.352 3.43 16.236 8.92 23.974 6.086 9.605 14.043 17.861 22.459 25.445z" fill="#a399b8" stroke="#000" stroke-width=".41181pt"/><path d="M61.6 60.34c3.558-13.578 2.504-29.417-6.49-40.672-3.92-5.097-12.549-3.606-14.274 2.663-2.707 6.768 3.174 12.255 5.4 18.143 4.028 7.388 9.51 13.865 15.364 19.866z" fill="#bcb1de"/></g><g><path d="M59.035 68.898C48.45 84.597 31.459 97.662 12.012 98.634c-8.67.603-14.872-9.42-10.058-16.748C6.397 73.118 16.04 71.809 24.39 69.975c11.086-2.534 23.33-1.62 34.644-1.077z" fill="#a399b8" stroke="#000" stroke-width=".54912329"/><path d="M53.052 69.942C45.23 81.602 32.666 91.3 18.276 92.007c-6.417.44-11.013-7.014-7.457-12.456 3.282-6.513 11.285-5.737 17.173-7.966 8.202-1.874 16.684-2.053 25.06-1.643z" fill="#bcb1de"/><path d="M19.154 87.253c2.47-2.173 2.286-3.848.465-5.89-1.87-1.65-4.909-1.285-5.968.913-1.608 1.116.414 4.434.868 5.24 1.066.966 2.35 1.396 4.635-.263z" fill="#e0c0e2"/></g><g><path d="M68.88 74.003c13.42 13.363 23.034 32.521 20.31 51.8-1.049 8.625-12.061 12.823-18.35 6.709-7.766-6.02-6.268-16.054-6.544-24.436.39-12.148 1.916-23.061 4.585-34.073z" fill="#a399b8" stroke="#000" stroke-width=".4118pt"/><path d="M71.93 79.619c-6.007 12.69-7.894 28.449-1.13 41.169 2.909 5.736 11.663 5.863 14.515.022 3.911-6.156-.853-12.632-1.956-18.828-2.594-8.005-6.783-15.382-11.428-22.363z" fill="#bcb1de"/><path d="M80.397 121.39c2.765-1.109 3.115-2.598 2.177-4.897-1.094-1.98-3.802-2.588-5.375-1.03-1.71.47-.985 3.922-.842 4.75.615 1.151 1.583 1.903 4.04 1.177z" fill="#e0c0e2"/></g><g><path d="M63.964 73.608c1.27 18.892-3.745 38.852-17.34 52.715-6.476 5.796-19.085 1.291-19.779-7.45-1.866-9.647 6.528-17.417 11.75-22.719 8.763-9.194 16.102-16.034 25.369-22.546z" fill="#a399b8" stroke="#000" stroke-width=".4118pt"/><path d="M61.21 77.063c1.914 13.908-1.022 29.506-11.297 39.607-4.498 4.597-12.885 2.089-13.853-4.342-1.88-7.047 4.614-11.79 7.526-17.37 4.882-6.855 11.095-12.633 17.623-17.895z" fill="#bcb1de"/><path d="M44.26 113.878c2.802-1.46 2.91-2.838 1.468-4.701-1.558-1.554-4.612-1.62-6.032.032-1.776.71-.353 3.627-.045 4.333.883.91 2.072 1.408 4.608.336z" fill="#e0c0e2"/></g><g transform="matrix(.41181 0 0 .41181 -83.024 -155.854)"><ellipse transform="matrix(3.0904 0 0 3.568 -648.76 -1237.5)" cx="329.334" cy="499.751" rx="16.746" ry="13.025" fill="#ec8f00"/><ellipse transform="matrix(1.2068 0 0 1.6483 -5.18 -285.43)" cx="329.334" cy="499.751" rx="16.746" ry="13.025" fill="#ffb533"/></g></g></svg>