<svg xmlns="http://www.w3.org/2000/svg" width="139.649" height="116.682" viewBox="0 0 178.751 149.353" xmlns:v="https://vecta.io/nano"><path d="M177.986 94.87a3.56 3.56 0 0 1-.599 5.009l-6.187 4.87c-.419.339-.938.579-1.457.698l-17.303 3.692a3.1 3.1 0 0 1-.738.08c-.259 0-.539-.02-.798-.08l-17.902-4.091-.599 1.696 18.64 8.562c.479.22.918.559 1.257.958l12.134 14.529c.359.419.599.918.738 1.457l1.437 6.047c.459 1.916-.738 3.832-2.654 4.291a3.98 3.98 0 0 1-.818.1c-1.617 0-3.073-1.098-3.473-2.754l-1.237-5.229-11.116-13.272-17.961-8.242-.898 1.517 10.957 9.559c.359.319.639.679.858 1.098l6.187 12.513c.239.499.379 1.038.379 1.577v6.326a3.57 3.57 0 1 1-7.145 0v-5.488l-5.508-11.136-9.959-8.701c-1.896 2.215-3.991 4.251-6.287 6.067a46.36 46.36 0 0 1-28.698 9.999 46.36 46.36 0 0 1-28.698-9.999c-2.235-1.776-4.291-3.772-6.167-5.907l-9.779 8.542-5.508 11.136v5.488a3.57 3.57 0 1 1-7.145 0v-6.306c0-.559.12-1.098.379-1.577l6.187-12.513c.22-.419.499-.798.858-1.098l10.757-9.38-.958-1.577-17.762 8.103-11.076 13.252-1.237 5.229c-.379 1.636-1.856 2.754-3.473 2.754a3.67 3.67 0 0 1-.818-.1c-1.916-.459-3.113-2.375-2.654-4.291l1.437-6.047a3.37 3.37 0 0 1 .738-1.457l12.134-14.529a3.52 3.52 0 0 1 1.257-.958l18.381-8.442-.639-1.796-17.602 4.071a3.64 3.64 0 0 1-.798.1c-.259 0-.499-.02-.738-.08l-17.303-3.692a3.53 3.53 0 0 1-1.457-.698l-6.187-4.87a3.56 3.56 0 0 1-.599-5.009 3.56 3.56 0 0 1 5.009-.599l5.528 4.371 15.706 3.353 16.604-3.852-.579-2.495H25.034c-1.138 0-2.195-.539-2.874-1.457L10.225 78.026a3.54 3.54 0 0 1-.699-2.115v-7.684a3.57 3.57 0 1 1 7.145 0v6.506l10.178 13.77h14.529l-.399-1.716a14.09 14.09 0 0 1 2.495-11.775c-3.772-2.435-7.763-6.287-10.597-11.675-4.69-8.921-4.71-20.097-.599-25.485-2.115-7.045.02-16.744 3.213-23.45C39.383 6.26 46.468.612 53.493.013a3.56 3.56 0 0 1 3.393 1.776c.699 1.197.619 2.694-.18 3.832a26.2 26.2 0 0 0-2.235 3.852c-1.597 3.333-2.475 6.865-2.395 9.699.06 2.135.659 3.393 1.197 3.652 1.217.579 5.448-1.636 8.861-7.783.798-1.417 2.455-2.135 4.031-1.716a3.59 3.59 0 0 1 2.674 3.473c-.02 4.031-1.018 8.262-2.914 12.214-3.233 6.746-9.839 13.092-16.365 15.826 1.237 2.016 2.594 4.45 4.211 7.564 1.636 3.133 3.373 6.566 4.67 9.759l.519-.439a47.76 47.76 0 0 1 14.868-8.322l-.998-4.75c-.399-1.936.818-3.812 2.754-4.231 1.936-.399 3.832.838 4.231 2.754l.918 4.43c5.608-1.018 11.376-1.018 16.984 0l.918-4.43a3.55 3.55 0 0 1 4.231-2.754c1.936.399 3.153 2.295 2.754 4.231l-.998 4.75a47.32 47.32 0 0 1 14.868 8.322l.539.439c1.297-3.213 3.014-6.626 4.67-9.759 1.636-3.093 2.974-5.548 4.211-7.544-6.526-2.754-13.112-9.081-16.365-15.826-1.896-3.952-2.894-8.162-2.914-12.214a3.59 3.59 0 0 1 2.674-3.473c1.577-.419 3.233.299 4.031 1.716 3.413 6.147 7.644 8.362 8.861 7.783.539-.259 1.138-1.517 1.197-3.652.08-2.814-.798-6.346-2.395-9.679-.639-1.357-1.397-2.654-2.255-3.852-.798-1.138-.858-2.634-.16-3.832s2.016-1.896 3.393-1.776c7.045.599 14.11 6.247 18.001 14.389 3.213 6.706 5.329 16.385 3.213 23.43 4.111 5.388 4.091 16.564-.599 25.485-2.834 5.408-6.825 9.26-10.597 11.675 2.515 3.313 3.473 7.584 2.495 11.775l-.399 1.716h14.848l10.178-13.77v-6.506a3.57 3.57 0 1 1 7.145 0v7.684a3.54 3.54 0 0 1-.699 2.115l-11.934 16.165c-.679.918-1.736 1.457-2.874 1.457h-18.301l-.579 2.475 16.904 3.852 15.726-3.353 5.528-4.371c1.477-1.217 3.712-.958 4.949.599z" fill="#633"/><path d="M142.003 47.671c.239 4.051-.758 8.542-2.754 12.353-2.654 5.049-6.606 8.322-9.779 9.939l-3.652-3.014c1.158-3.433 3.313-7.723 5.169-11.256 1.836-3.512 3.313-6.107 4.61-8.143.998-1.577 1.217-3.492.619-5.249a6.09 6.09 0 0 0-3.712-3.732c-4.111-1.437-8.522-5.069-11.495-9.26 2.535.978 5.029 1.018 7.264-.06 1.896-.898 5.069-3.393 5.249-9.899.06-2.455-.319-5.129-1.138-7.863 1.617 1.656 3.053 3.692 4.151 6.007 3.353 6.985 4.371 15.626 2.295 19.638-.858 1.676-.279 3.732 1.337 4.69.479.279 1.617 2.155 1.836 5.847z" fill="#c85e4c"/><path d="M128.132 78.106a7.04 7.04 0 0 1 2.375 7.065l-3.293 14.09c-1.996 8.542-6.885 16.245-13.751 21.713a39.21 39.21 0 0 1-24.268 8.462 39.21 39.21 0 0 1-24.268-8.462c-6.885-5.448-11.755-13.172-13.751-21.713l-3.293-14.09c-.619-2.634.299-5.329 2.375-7.065l13.192-10.917c7.464-6.167 16.584-9.24 25.725-9.24s18.281 3.073 25.725 9.24z" fill="#fe6865"/><path d="M115.16 92.774a3.56 3.56 0 0 1 2.654 4.291c-3.113 13.371-14.908 22.711-28.639 22.711a3.57 3.57 0 1 1 0-7.145c10.398 0 19.319-7.085 21.693-17.203.459-1.916 2.375-3.113 4.291-2.654z" fill="#633"/><path d="M50.14 29.251c2.235 1.058 4.73 1.038 7.264.06-2.974 4.191-7.404 7.823-11.495 9.26-1.756.619-3.113 1.976-3.712 3.712-.619 1.756-.399 3.672.619 5.269 1.297 2.056 2.754 4.63 4.59 8.143 1.856 3.552 4.011 7.823 5.169 11.256l-3.652 2.994c-3.193-1.617-7.125-4.89-9.779-9.939-1.996-3.792-2.994-8.302-2.754-12.334.22-3.692 1.357-5.568 1.856-5.847 1.617-.978 2.195-3.014 1.337-4.69-2.076-4.011-1.058-12.633 2.295-19.638 1.098-2.315 2.535-4.351 4.151-6.007-.798 2.734-1.197 5.408-1.138 7.863.18 6.486 3.373 8.981 5.249 9.899z" fill="#c85e4c"/></svg>