<svg width="140" height="140" viewBox="0 0 179.2 179.2" class="prefix__icon" xmlns="http://www.w3.org/2000/svg"><path d="M16.8 56h145.6v123.2H16.8z" fill="#eaeaea"/><path d="M41.692 179.2A22.165 22.165 0 0044.8 168 22.4 22.4 0 000 168c0 4.1 1.182 7.89 3.108 11.2zM156.8 145.6a22.355 22.355 0 00-20.34 13.132 16.598 16.598 0 00-7.66-1.932 16.8 16.8 0 00-16.8 16.8c0 1.977.403 3.842 1.03 5.6h63.068A22.215 22.215 0 00179.2 168a22.4 22.4 0 00-22.4-22.4z" fill="#3aad73"/><path d="M136.46 158.732a16.598 16.598 0 00-7.66-1.932 16.8 16.8 0 00-16.8 16.8c0 1.977.403 3.842 1.03 5.6h24.478A22.165 22.165 0 01134.4 168c0-3.315.767-6.434 2.06-9.268z"/><path d="M151.2 0v22.4a5.6 5.6 0 01-5.6 5.6h-11.2a5.6 5.6 0 01-5.6-5.6V0h-28v22.4a5.6 5.6 0 01-5.6 5.6H84a5.6 5.6 0 01-5.6-5.6V0h-28v22.4a5.6 5.6 0 01-5.6 5.6H33.6a5.6 5.6 0 01-5.6-5.6V0H0v50.4A5.6 5.6 0 005.6 56h168a5.6 5.6 0 005.6-5.6V0z" fill="#eaeaea"/><path d="M16.8 56h145.6v5.6H16.8z"/><path d="M89.6 123.2a22.4 22.4 0 00-22.4 22.4v33.6H112v-33.6a22.4 22.4 0 00-22.4-22.4z" fill="#434854"/><path d="M89.6 123.2a22.4 22.4 0 00-22.4 22.4v5.6a22.4 22.4 0 0144.8 0v-5.6a22.4 22.4 0 00-22.4-22.4z"/><path d="M128.8 78.4a11.2 11.2 0 00-11.2 11.2V112H140V89.6a11.2 11.2 0 00-11.2-11.2zm-78.4 0a11.2 11.2 0 00-11.2 11.2V112h22.4V89.6a11.2 11.2 0 00-11.2-11.2z" fill="#469fcc"/><path d="M128.8 78.4a11.2 11.2 0 00-11.2 11.2v5.6a11.2 11.2 0 0122.4 0v-5.6a11.2 11.2 0 00-11.2-11.2zm-78.4 0a11.2 11.2 0 00-11.2 11.2v5.6a11.2 11.2 0 0122.4 0v-5.6a11.2 11.2 0 00-11.2-11.2z"/></svg>