<svg version="1.1" xmlns="http://www.w3.org/2000/svg" xmlns:xlink="http://www.w3.org/1999/xlink" width="140" height="140" viewBox="0,0,140,140"><g transform="translate(-170,-110)"><g data-paper-data="{&quot;isPaintingLayer&quot;:true}" fill-rule="nonzero" stroke="none" stroke-width="0.175" stroke-linecap="butt" stroke-linejoin="miter" stroke-miterlimit="10" stroke-dasharray="" stroke-dashoffset="0" style="mix-blend-mode: normal"><path d="M178.75,123.125h122.5v126.875h-122.5z" fill="#eaeaea"/><path d="M226.875,215h26.25v35h-26.25z" fill="#434854"/><path d="M226.875,188.75h26.25v17.5h-26.25zM191.875,188.75h26.25v17.5h-26.25zM191.875,215h26.25v17.5h-26.25zM261.875,188.75h26.25v17.5h-26.25zM261.875,215h26.25v17.5h-26.25zM226.875,162.5h26.25v17.5h-26.25zM191.875,162.5h26.25v17.5h-26.25zM261.875,162.5h26.25v17.5h-26.25zM226.875,136.25h26.25v17.5h-26.25zM191.875,136.25h26.25v17.5h-26.25zM261.875,136.25h26.25v17.5h-26.25z" fill="#469fcc"/><path d="M191.875,136.25h26.25v4.375h-26.25zM226.875,136.25h26.25v4.375h-26.25zM261.875,136.25h26.25v4.375h-26.25zM191.875,162.5h26.25v4.375h-26.25zM226.875,162.5h26.25v4.375h-26.25zM261.875,162.5h26.25v4.375h-26.25zM191.875,188.75h26.25v4.375h-26.25zM226.875,188.75h26.25v4.375h-26.25zM261.875,188.75h26.25v4.375h-26.25zM191.875,215h26.25v4.375h-26.25zM261.875,215h26.25v4.375h-26.25z" fill="#000000"/><path d="M178.75,123.125h122.5v4.375h-122.5z" fill="#000000"/><path d="M310,118.75c0,2.41625 -1.95875,4.375 -4.375,4.375h-131.25c-2.41625,0 -4.375,-1.95875 -4.375,-4.375v-4.375c0,-2.41625 1.95875,-4.375 4.375,-4.375h131.25c2.41625,0 4.375,1.95875 4.375,4.375z" fill="#ef4d4d"/><path d="M172.42812,250c-1.505,-2.58562 -2.42812,-5.5475 -2.42812,-8.75c0,-9.66498 7.83502,-17.5 17.5,-17.5c9.66498,0 17.5,7.83502 17.5,17.5c-0.0166,3.08073 -0.85479,6.10126 -2.42812,8.75zM310,241.25c-0.01717,3.08007 -0.85371,6.10008 -2.42375,8.75h-49.27125c-0.49,-1.37375 -0.805,-2.83062 -0.805,-4.375c0,-7.24874 5.87626,-13.125 13.125,-13.125c2.08741,0.01407 4.14057,0.53186 5.985,1.50938c2.82627,-6.24013 9.03967,-10.25181 15.89,-10.25938c9.66498,0 17.5,7.83502 17.5,17.5z" fill="#3aad73"/><path d="M275,241.25c0.0166,3.08073 0.85479,6.10126 2.42813,8.75h-19.12313c-0.49,-1.37375 -0.805,-2.83062 -0.805,-4.375c0,-7.24874 5.87626,-13.125 13.125,-13.125c2.08741,0.01407 4.14057,0.53186 5.985,1.50938c-1.01063,2.21375 -1.61,4.65062 -1.61,7.24062z" fill="#000000"/></g></g></svg>