<?xml version="1.0" encoding="UTF-8" standalone="no"?>
<!-- Uploaded to: SVG Repo, www.svgrepo.com, Generator: SVG Repo Mixer Tools -->

<svg
   width="140"
   height="140"
   viewBox="0 0 179.2 179.2"
   class="icon"
   version="1.1"
   id="svg473"
   sodipodi:docname="building-small-svgrepo-com.svg"
   inkscape:version="1.2.2 (732a01da63, 2022-12-09)"
   xmlns:inkscape="http://www.inkscape.org/namespaces/inkscape"
   xmlns:sodipodi="http://sodipodi.sourceforge.net/DTD/sodipodi-0.dtd"
   xmlns="http://www.w3.org/2000/svg"
   xmlns:svg="http://www.w3.org/2000/svg">
  <defs
     id="defs477" />
  <sodipodi:namedview
     id="namedview475"
     pagecolor="#ffffff"
     bordercolor="#000000"
     borderopacity="0.25"
     inkscape:showpageshadow="2"
     inkscape:pageopacity="0.0"
     inkscape:pagecheckerboard="0"
     inkscape:deskcolor="#d1d1d1"
     showgrid="false"
     inkscape:zoom="1.04625"
     inkscape:cx="399.5221"
     inkscape:cy="400.4779"
     inkscape:window-width="1920"
     inkscape:window-height="1017"
     inkscape:window-x="1912"
     inkscape:window-y="-8"
     inkscape:window-maximized="1"
     inkscape:current-layer="svg473" />
  <path
     d="M 11.2,16.8 H 168 V 179.2 H 11.2 Z"
     fill="#eaeaea"
     id="path457"
     style="stroke-width:0.175" />
  <path
     d="m 72.8,134.4 h 33.6 v 44.8 H 72.8 Z"
     fill="#434854"
     id="path459"
     style="stroke-width:0.175" />
  <path
     d="m 72.8,100.8 h 33.6 v 22.4 H 72.8 Z m -44.8,0 h 33.6 v 22.4 H 28 Z m 0,33.6 h 33.6 v 22.4 H 28 Z m 89.6,-33.6 h 33.6 v 22.4 h -33.6 z m 0,33.6 h 33.6 v 22.4 H 117.6 Z M 72.8,67.2 h 33.6 V 89.6 H 72.8 Z M 28,67.2 H 61.6 V 89.6 H 28 Z m 89.6,0 h 33.6 V 89.6 H 117.6 Z M 72.8,33.6 h 33.6 V 56 H 72.8 Z M 28,33.6 H 61.6 V 56 H 28 Z m 89.6,0 h 33.6 V 56 h -33.6 z"
     fill="#469fcc"
     id="path461"
     style="stroke-width:0.175" />
  <path
     d="m 28,33.6 h 33.6 v 5.6 H 28 Z m 44.8,0 h 33.6 v 5.6 H 72.8 Z m 44.8,0 h 33.6 v 5.6 H 117.6 Z M 28,67.2 h 33.6 v 5.6 H 28 Z m 44.8,0 h 33.6 v 5.6 H 72.8 Z m 44.8,0 h 33.6 v 5.6 H 117.6 Z M 28,100.8 h 33.6 v 5.6 H 28 Z m 44.8,0 h 33.6 v 5.6 H 72.8 Z m 44.8,0 h 33.6 v 5.6 H 117.6 Z M 28,134.4 H 61.6 V 140 H 28 Z m 89.6,0 h 33.6 v 5.6 h -33.6 z"
     fill=""
     id="path463"
     style="stroke-width:0.175" />
  <path
     d="M 11.2,16.8 H 168 v 5.6 H 11.2 Z"
     fill=""
     id="path465"
     style="stroke-width:0.175" />
  <path
     d="m 179.2,11.2 a 5.6,5.6 0 0 1 -5.6,5.6 H 5.6 A 5.6,5.6 0 0 1 0,11.2 V 5.6 A 5.6,5.6 0 0 1 5.6,0 h 168 a 5.6,5.6 0 0 1 5.6,5.6 z"
     fill="#ef4d4d"
     id="path467"
     style="stroke-width:0.175" />
  <path
     d="M 41.692,179.2 A 22.1648,22.1648 0 0 0 44.8,168 22.4,22.4 0 0 0 0,168 c 0,4.0992 1.1816,7.8904 3.108,11.2 z M 156.8,145.6 A 22.3552,22.3552 0 0 0 136.4608,158.732 16.5984,16.5984 0 0 0 128.8,156.8 16.8,16.8 0 0 0 112,173.6 c 0,1.9768 0.4032,3.8416 1.0304,5.6 h 63.0672 A 22.2152,22.2152 0 0 0 179.2,168 22.4,22.4 0 0 0 156.8,145.6 Z"
     fill="#3aad73"
     id="path469"
     style="stroke-width:0.175" />
  <path
     d="M 136.4608,158.732 A 16.5984,16.5984 0 0 0 128.8,156.8 16.8,16.8 0 0 0 112,173.6 c 0,1.9768 0.4032,3.8416 1.0304,5.6 H 137.508 A 22.1648,22.1648 0 0 1 134.4,168 c 0,-3.3152 0.7672,-6.4344 2.0608,-9.268 z"
     fill=""
     id="path471"
     style="stroke-width:0.175" />
</svg>
