<svg width="107.053" height="140" xmlns="http://www.w3.org/2000/svg"><path d="M92.602 41.418s23.718 9.574 8.051 31.116c0 0-11.859 13.926-4.678 18.387 0 0 2.611 1.523 7.507-1.414 0 0-8.16 12.185-21.324 4.243-8.378-5.114-4.896-16.429-4.57-17.843.327-1.523 15.014-34.489 15.014-34.489z" fill="#5a3d1b"/><path d="M92.602 41.418s23.718 9.574 8.051 31.116c0 0-11.859 13.926-4.678 18.387 0 0 2.611 1.523 7.507-1.414 0 0-8.16 12.185-21.324 4.243-8.378-5.114-4.896-16.429-4.57-17.843.327-1.523 15.014-34.489 15.014-34.489z" stroke="#000" stroke-width="2.09542912" stroke-linecap="round" stroke-linejoin="round" stroke-miterlimit="10" fill="none"/><path d="M92.602 61.328s-6.201 8.16-8.921 17.081c-3.808 12.947 8.704 18.387 17.516 13.491-16.21 4.243-13.6-11.859-5.44-21.868 10.88-13.273-1.523-22.303-1.523-22.303" stroke="#000" stroke-width=".85" stroke-linecap="round" stroke-linejoin="round" fill="none"/><path d="M91.08 61.002s12.946-40.69-20.455-56.466c0 0-12.838-6.528-29.593-1.74-6.636 1.957-14.035 5.221-20.127 13.49 0 0-12.73 16.102-5.984 34.489z" fill="#5a3d1b"/><path d="M91.08 61.002s12.946-40.69-20.455-56.466c0 0-12.838-6.528-29.593-1.74-6.636 1.957-14.035 5.221-20.127 13.49 0 0-12.73 16.102-5.984 34.489z" stroke="#000" stroke-width="2.09542912" stroke-miterlimit="10" fill="none"/><path d="M23.951 24.555s2.938-10.88 7.18-17.408" stroke="#000" stroke-width="2.095" stroke-linecap="round" stroke-miterlimit="10" fill="none"/><path d="M27.433 17.048S38.42 32.17 45.058 38.154M29.282 10.411s42.54 25.132 61.144 43.301M33.416 5.841s46.457 14.688 59.73 42.105M41.032 2.795s30.79 1.958 50.7 24.806M25.365 18.462s-5.004 1.197-10.553 9.357" stroke="#000" stroke-width=".85" stroke-linecap="round" stroke-linejoin="round" fill="none"/><path d="M34.178 93.205l-30.363 8.218c-1.431 4.232-2.256 22.653-2.7 37.661H75.772l2.25-33.91-.13.116.022-.116c-8.051-6.31-26.547-11.424-26.547-11.424z" fill="#fbb4b6"/><path d="M.915 139.085c.142-8.24.349-16.754.648-20.966.487-6.845 1.21-13.613 2.252-16.696l30.363-8.217 17.19.544s18.496 5.114 26.547 11.424c.067 11.303-1.39 22.607-2.142 33.91" fill="none" stroke="#000" stroke-width="1.83058368"/><path d="M17.776 116.388l-.816 14.206.053 8.49" fill="none" stroke="#000" stroke-width="1.831" stroke-linecap="round"/><path d="M34.396 89.616v5.004l6.31 4.896 9.9-4.896.436-5.222z" fill="#fdcda5"/><path d="M34.396 89.616v5.004l6.31 4.896 9.9-4.896.436-5.222z" stroke="#000" stroke-width="2.09542912" stroke-linecap="round" stroke-linejoin="round" stroke-miterlimit="10" fill="none"/><path d="M16.335 40.874s-6.528-3.916-9.792-.217C3.28 44.356 5.455 52.95 14.921 56.215" fill="#f5caa5"/><path d="M16.335 40.874s-6.528-3.916-9.792-.217C3.28 44.356 5.455 52.95 14.921 56.215" stroke="#000" stroke-width="2.09542912" stroke-linecap="round" stroke-linejoin="round" stroke-miterlimit="10" fill="none"/><path d="M16.009 34.129S8.284 44.573 9.807 63.83c1.197 14.034 15.014 31.333 39.385 28.613 18.17-2.067 28.396-11.75 33.183-23.935 0 0 14.253-1.74 11.968-12.838-1.414-6.963-9.03-4.46-13.056-1.197 0 0-13.164-7.29-21.106-13.49-1.741-1.306-15.776-10.99-18.278-14.906-1.088-1.632 4.787 13.817 2.937 12.838-7.616-3.917-15.014-8.704-20.889-14.47 0 .109-3.264 1.85-7.942 9.683z" fill="#fdcda5"/><path d="M16.009 34.129S8.284 44.573 9.807 63.83c1.197 14.034 15.014 31.333 39.385 28.613 18.17-2.067 28.396-11.75 33.183-23.935 0 0 14.253-1.74 11.968-12.838-1.414-6.963-9.03-4.46-13.056-1.197 0 0-13.164-7.29-21.106-13.49-1.741-1.306-15.776-10.99-18.278-14.906-1.088-1.632 4.787 13.817 2.937 12.838-7.616-3.917-15.014-8.704-20.889-14.47 0 .109-3.264 1.85-7.942 9.683z" stroke="#000" stroke-width="2.09542912" stroke-linecap="round" stroke-linejoin="round" stroke-miterlimit="10" fill="none"/><path d="M31.784 55.997c-.108 1.088-3.372 1.632-7.071 1.088-3.808-.544-6.746-1.85-6.528-2.937.109-1.088 3.373-1.632 7.072-1.088 3.808.435 6.745 1.74 6.527 2.937z" fill="#fba7a6" opacity=".7"/><path d="M28.085 46.423s-.217 2.502-.87 5.657" fill="#fff"/><path d="M28.085 46.423s-.217 2.502-.87 5.657" stroke="#000" stroke-width="2.65107952" stroke-linecap="round" stroke-linejoin="round" fill="none"/><path d="M67.47 59.805c-.109 1.088-3.264 1.74-7.072 1.414-3.808-.326-6.745-1.523-6.745-2.61.109-1.089 3.264-1.741 7.072-1.415 3.916.218 6.854 1.414 6.745 2.611z" fill="#fba7a6" opacity=".7"/><g><path d="M59.42 51.536s-.219 2.068-.763 5.658" fill="#fff"/><path d="M59.42 51.536s-.219 2.068-.763 5.658" stroke="#000" stroke-width="2.82433744" stroke-linecap="round" stroke-linejoin="round" fill="none"/></g><path d="M40.815 55.344c.435 2.938-5.223.327-4.787 3.155.326 1.85 4.351 2.068 5.766 2.176" stroke="#000" stroke-width="1.716" stroke-linecap="round" stroke-linejoin="round" fill="none"/><g><path d="M40.706 99.516l-6.31-4.896v-2.937l-6.42 3.155v12.73z" fill="#fff"/><path d="M40.706 99.516l-6.31-4.896v-2.937l-6.42 3.155v12.73z" stroke="#000" stroke-width="1.83058368" stroke-linecap="round" stroke-linejoin="round" fill="none"/></g><g><path d="M62.792 118.773l-1.07 20.312" fill="none" stroke="#000" stroke-width="1.83058368" stroke-linecap="round"/></g><g><path d="M40.706 99.516l10.662 8.378 5.222-11.75-5.004-4.461-.218 2.067z" fill="#fff"/><path d="M40.706 99.516l10.662 8.378 5.222-11.75-4.82-4.033-.402 1.639z" stroke="#000" stroke-width="1.83058368" stroke-linecap="round" stroke-linejoin="round" fill="none"/></g><path d="M34.04 77.138c5.354 4.793 10.74 3.732 16.174.56" fill="none" stroke="#000" stroke-width="1.167" stroke-linecap="round"/></svg>