<?xml version="1.0" encoding="UTF-8" standalone="no"?>
<svg
   version="1.1"
   x="0"
   y="0"
   width="107.05276"
   height="140"
   viewBox="0 0 107.05275 140"
   id="svg193"
   sodipodi:docname="anime-cartoon-woman-slight-smile.svg"
   inkscape:version="1.2.2 (732a01da63, 2022-12-09)"
   xmlns:inkscape="http://www.inkscape.org/namespaces/inkscape"
   xmlns:sodipodi="http://sodipodi.sourceforge.net/DTD/sodipodi-0.dtd"
   xmlns="http://www.w3.org/2000/svg"
   xmlns:svg="http://www.w3.org/2000/svg">
  <sodipodi:namedview
     id="namedview195"
     pagecolor="#505050"
     bordercolor="#eeeeee"
     borderopacity="1"
     objecttolerance="10.0"
     gridtolerance="10.0"
     guidetolerance="10.0"
     inkscape:pageshadow="0"
     inkscape:pageopacity="0"
     inkscape:pagecheckerboard="0"
     showgrid="false"
     fit-margin-top="0"
     fit-margin-left="0"
     fit-margin-right="0"
     fit-margin-bottom="0"
     inkscape:zoom="1.2631377"
     inkscape:cx="98.168236"
     inkscape:cy="238.29548"
     inkscape:current-layer="Layer_1"
     inkscape:showpageshadow="2"
     inkscape:deskcolor="#505050"
     inkscape:window-width="1920"
     inkscape:window-height="1017"
     inkscape:window-x="1912"
     inkscape:window-y="-8"
     inkscape:window-maximized="1" />
  <defs
     id="defs12">
    <linearGradient
       id="Gradient_1"
       gradientUnits="userSpaceOnUse"
       x1="860.84198"
       y1="811.59698"
       x2="937.24902"
       y2="811.59698"
       gradientTransform="matrix(0.524,0.852,-0.852,0.524,310.624,-682.291)">
      <stop
         offset="0"
         stop-color="#FDD2AE"
         id="stop2" />
      <stop
         offset="1"
         stop-color="#FCB1A6"
         id="stop4" />
    </linearGradient>
    <linearGradient
       id="Gradient_2"
       gradientUnits="userSpaceOnUse"
       x1="628.12799"
       y1="81.139999"
       x2="718.80798"
       y2="81.139999"
       gradientTransform="matrix(-0.1,0.995,0.995,0.1,133.369,-121.173)">
      <stop
         offset="0"
         stop-color="#FDD2AE"
         id="stop7" />
      <stop
         offset="1"
         stop-color="#FCB1A6"
         id="stop9" />
    </linearGradient>
  </defs>
  <g
     id="Layer_1"
     transform="translate(-109.23552,-0.11516879)">
    <g
       id="g18"
       transform="matrix(0.29168247,0,0,0.29168247,77.373432,0.08157607)">
      <path
         d="m 426.712,142.113 c 0,0 81.314,32.824 27.602,106.678 0,0 -40.657,47.744 -16.039,63.037 0,0 8.952,5.222 25.737,-4.849 0,0 -27.975,41.776 -73.108,14.547 -28.721,-17.531 -16.785,-56.323 -15.666,-61.172 1.119,-5.222 51.474,-118.241 51.474,-118.241 z"
         fill="#5a3d1b"
         id="path14" />
      <path
         d="m 426.712,142.113 c 0,0 81.314,32.824 27.602,106.678 0,0 -40.657,47.744 -16.039,63.037 0,0 8.952,5.222 25.737,-4.849 0,0 -27.975,41.776 -73.108,14.547 -28.721,-17.531 -16.785,-56.323 -15.666,-61.172 1.119,-5.222 51.474,-118.241 51.474,-118.241 z"
         fill-opacity="0"
         stroke="#000000"
         stroke-width="7.184"
         stroke-linecap="round"
         stroke-linejoin="round"
         stroke-miterlimit="10"
         id="path16" />
    </g>
    <path
       d="m 201.83784,61.4434 c 0,0 -6.20146,8.159817 -8.9214,17.081217 -3.80791,12.946909 8.70381,18.386787 17.51641,13.490897 -16.21084,4.243105 -13.5997,-11.858934 -5.43988,-21.86831 10.87976,-13.273302 -1.52317,-22.303499 -1.52317,-22.303499"
       fill-opacity="0"
       stroke="#000000"
       stroke-width="0.850254"
       stroke-linecap="round"
       stroke-linejoin="round"
       id="path20" />
    <g
       id="g26"
       transform="matrix(0.29168247,0,0,0.29168247,77.373432,0.08157607)">
      <path
         d="m 421.49,209.253 c 0,0 44.387,-139.502 -70.124,-193.587 0,0 -44.014,-22.38 -101.456,-5.968 -22.753,6.714 -48.117,17.904 -69.005,46.252 0,0 -43.641,55.204 -20.515,118.241 z"
         fill="#5a3d1b"
         id="path22" />
      <path
         d="m 421.49,209.253 c 0,0 44.387,-139.502 -70.124,-193.587 0,0 -44.014,-22.38 -101.456,-5.968 -22.753,6.714 -48.117,17.904 -69.005,46.252 0,0 -43.641,55.204 -20.515,118.241 z"
         fill-opacity="0"
         stroke="#000000"
         stroke-width="7.184"
         stroke-miterlimit="10"
         id="path24" />
    </g>
    <path
       d="m 133.18658,24.669825 c 0,0 2.93753,-10.879756 7.18064,-17.40761"
       fill-opacity="0"
       stroke="#000000"
       stroke-width="2.09545"
       stroke-linecap="round"
       stroke-miterlimit="10"
       id="path28" />
    <path
       d="m 136.6681,17.162793 c 0,0 10.98856,15.122861 17.62521,21.106726"
       fill-opacity="0"
       stroke="#000000"
       stroke-width="0.850254"
       stroke-linecap="round"
       stroke-linejoin="round"
       id="path30" />
    <path
       d="m 138.51766,10.526142 c 0,0 42.53985,25.132236 61.14423,43.301429"
       fill-opacity="0"
       stroke="#000000"
       stroke-width="0.850254"
       stroke-linecap="round"
       stroke-linejoin="round"
       id="path32" />
    <path
       d="m 142.65197,5.9566443 c 0,0 46.45656,14.6876707 59.72986,42.1046557"
       fill-opacity="0"
       stroke="#000000"
       stroke-width="0.850254"
       stroke-linecap="round"
       stroke-linejoin="round"
       id="path34" />
    <path
       d="m 150.2678,2.9103126 c 0,0 30.78971,1.9583561 50.69966,24.8058434"
       fill-opacity="0"
       stroke="#000000"
       stroke-width="0.850254"
       stroke-linecap="round"
       stroke-linejoin="round"
       id="path36" />
    <path
       d="m 134.60095,18.577161 c 0,0 -5.00469,1.196773 -10.55336,9.35659"
       fill-opacity="0"
       stroke="#000000"
       stroke-width="0.850254"
       stroke-linecap="round"
       stroke-linejoin="round"
       id="path38" />
    <g
       id="g44"
       transform="matrix(0.29168247,0,0,0.29168247,77.373432,0.08157607)">
      <path
         id="path40"
         style="fill:#fbb4b6;fill-opacity:1"
         d="m 310.38086,373.40039 -104.0957,28.17188 c -4.90724,14.50838 -7.73407,77.66406 -9.25977,129.11914 h 207.78906 35.07422 13.09571 l 7.71679,-116.25977 -0.44531,0.39844 c 0.002,-0.0113 0.0723,-0.39844 0.0723,-0.39844 -27.60199,-21.634 -91.01171,-39.16601 -91.01171,-39.16602 z"
         transform="translate(-83.970268,-53.740974)" />
      <path
         id="path42"
         style="fill:none;stroke:#000000;stroke-width:6.276;stroke-miterlimit:4;stroke-dasharray:none;stroke-opacity:1"
         d="m 112.37305,476.95117 c 0.4875,-28.24916 1.19554,-57.43904 2.22265,-71.87695 1.66966,-23.47012 4.14352,-46.67193 7.71875,-57.24219 l 104.09571,-28.17187 58.93554,1.86523 c 0,0 63.40972,17.53202 91.01172,39.16602 0.2307,38.75301 -4.76171,77.50602 -7.34331,116.25903"
         sodipodi:nodetypes="ccccscc" />
    </g>
    <path
       id="path3459"
       style="fill:none;stroke:#000000;stroke-width:1.8306;stroke-linecap:round;stroke-linejoin:miter;stroke-miterlimit:4;stroke-dasharray:none;stroke-opacity:1"
       d="m 127.01186,116.50333 -0.81637,14.20585 0.053,8.49069"
       sodipodi:nodetypes="ccc" />
    <g
       id="g50"
       transform="matrix(0.29168247,0,0,0.29168247,77.373432,0.08157607)">
      <path
         d="m 227.157,307.352 v 17.158 l 21.634,16.785 33.943,-16.785 1.492,-17.904 z"
         fill="#fdcda5"
         id="path46" />
      <path
         d="m 227.157,307.352 v 17.158 l 21.634,16.785 33.943,-16.785 1.492,-17.904 z"
         fill-opacity="0"
         stroke="#000000"
         stroke-width="7.184"
         stroke-linecap="round"
         stroke-linejoin="round"
         stroke-miterlimit="10"
         id="path48" />
    </g>
    <g
       id="g90"
       transform="matrix(0.29168247,0,0,0.29168247,77.373432,0.08157607)">
      <path
         d="m 165.239,140.248 c 0,0 -22.38,-13.428 -33.57,-0.746 -11.19,12.682 -3.73,42.149 28.721,53.339"
         fill="#f5caa5"
         id="path86" />
      <path
         d="m 165.239,140.248 c 0,0 -22.38,-13.428 -33.57,-0.746 -11.19,12.682 -3.73,42.149 28.721,53.339"
         fill-opacity="0"
         stroke="#000000"
         stroke-width="7.184"
         stroke-linecap="round"
         stroke-linejoin="round"
         stroke-miterlimit="10"
         id="path88" />
    </g>
    <g
       id="g96"
       transform="matrix(0.29168247,0,0,0.29168247,77.373432,0.08157607)">
      <path
         d="m 164.12,117.122 c 0,0 -26.483,35.808 -21.261,101.829 4.103,48.117 51.474,107.424 135.026,98.099 62.291,-7.087 97.353,-40.284 113.765,-82.06 0,0 48.863,-5.968 41.03,-44.014 -4.849,-23.872 -30.959,-15.293 -44.76,-4.103 0,0 -45.133,-24.991 -72.362,-46.252 -5.968,-4.476 -54.085,-37.673 -62.664,-51.101 -3.73,-5.595 16.412,47.371 10.071,44.014 -26.11,-13.428 -51.474,-29.84 -71.616,-49.609 0,0.373 -11.19,6.341 -27.229,33.197 z"
         fill="#fdcda5"
         id="path92" />
      <path
         d="m 164.12,117.122 c 0,0 -26.483,35.808 -21.261,101.829 4.103,48.117 51.474,107.424 135.026,98.099 62.291,-7.087 97.353,-40.284 113.765,-82.06 0,0 48.863,-5.968 41.03,-44.014 -4.849,-23.872 -30.959,-15.293 -44.76,-4.103 0,0 -45.133,-24.991 -72.362,-46.252 -5.968,-4.476 -54.085,-37.673 -62.664,-51.101 -3.73,-5.595 16.412,47.371 10.071,44.014 -26.11,-13.428 -51.474,-29.84 -71.616,-49.609 0,0.373 -11.19,6.341 -27.229,33.197 z"
         fill-opacity="0"
         stroke="#000000"
         stroke-width="7.184"
         stroke-linecap="round"
         stroke-linejoin="round"
         stroke-miterlimit="10"
         id="path94" />
    </g>
    <path
       d="m 141.02,56.112319 c -0.10879,1.087976 -3.37272,1.631964 -7.07184,1.087976 -3.80791,-0.543988 -6.74545,-1.849559 -6.52785,-2.937534 0.1088,-1.087976 3.37272,-1.631964 7.07184,-1.087976 3.80792,0.43519 6.74545,1.740761 6.52785,2.937534 z"
       fill="#fba7a6"
       opacity="0.7"
       id="path100"
       style="stroke-width:0.291682" />
    <g
       id="g106"
       transform="matrix(0.29168247,0,0,0.29168247,77.373432,0.08157607)">
      <path
         d="m 205.523,159.271 c 0,0 -0.746,8.579 -2.984,19.396"
         fill="#ffffff"
         id="path102" />
      <path
         d="m 205.523,159.271 c 0,0 -0.746,8.579 -2.984,19.396"
         fill-opacity="0"
         stroke="#000000"
         stroke-width="9.089"
         stroke-linecap="round"
         stroke-linejoin="round"
         id="path104" />
    </g>
    <path
       d="m 176.7056,59.920234 c -0.10879,1.087975 -3.26392,1.740761 -7.07184,1.414368 -3.80791,-0.326393 -6.74545,-1.523166 -6.74545,-2.611141 0.1088,-1.087976 3.26393,-1.740761 7.07185,-1.414369 3.91671,0.217596 6.85424,1.414369 6.74544,2.611142 z"
       fill="#fba7a6"
       opacity="0.7"
       id="path108"
       style="stroke-width:0.291682" />
    <g
       id="g114"
       transform="matrix(0.29168247,0,0,0.29168247,77.373432,0.08157607)">
      <path
         d="m 312.947,176.802 c 0,0 -0.746,7.087 -2.611,19.396"
         fill="#ffffff"
         id="path110" />
      <path
         d="m 312.947,176.802 c 0,0 -0.746,7.087 -2.611,19.396"
         fill-opacity="0"
         stroke="#000000"
         stroke-width="9.683"
         stroke-linecap="round"
         stroke-linejoin="round"
         id="path112" />
    </g>
    <path
       d="m 150.0502,55.459534 c 0.43519,2.937534 -5.22228,0.326393 -4.78709,3.155129 0.32639,1.849559 4.3519,2.067154 5.76627,2.175951"
       fill-opacity="0"
       stroke="#000000"
       stroke-width="1.71597"
       stroke-linecap="round"
       stroke-linejoin="round"
       id="path116" />
    <g
       id="g122"
       transform="matrix(0.29168247,0,0,0.29168247,77.373432,0.08157607)">
      <path
         d="M 248.791,341.295 227.157,324.51 v -10.071 l -22.007,10.817 v 43.641 z"
         fill="#ffffff"
         id="path118" />
      <path
         d="M 248.791,341.295 227.157,324.51 v -10.071 l -22.007,10.817 v 43.641 z"
         fill-opacity="0"
         stroke="#000000"
         stroke-width="6.276"
         stroke-linecap="round"
         stroke-linejoin="round"
         id="path120" />
    </g>
    <g
       id="g134"
       transform="matrix(0.29168247,0,0,0.29168247,77.373432,0.08157607)">
      <path
         id="path132"
         d="m 324.50977,407.31641 -3.66602,69.63476"
         style="fill:none;stroke:#000000;stroke-width:6.276;stroke-linecap:round;stroke-miterlimit:4;stroke-dasharray:none;stroke-opacity:1"
         sodipodi:nodetypes="cc" />
    </g>
    <g
       id="g140"
       transform="matrix(0.29168247,0,0,0.29168247,77.373432,0.08157607)">
      <path
         d="m 248.791,341.295 36.554,28.721 17.904,-40.284 -17.158,-15.293 -0.746,7.087 z"
         fill="#ffffff"
         id="path136" />
      <path
         d="m 248.791,341.295 36.554,28.721 17.904,-40.284 -16.52822,-13.82352 -1.37578,5.61752 z"
         fill-opacity="0"
         stroke="#000000"
         stroke-width="6.276"
         stroke-linecap="round"
         stroke-linejoin="round"
         id="path138"
         sodipodi:nodetypes="cccccc" />
    </g>
    <path
       style="fill:none;stroke:#000000;stroke-width:1.16673;stroke-linecap:round;stroke-linejoin:miter;stroke-miterlimit:4;stroke-dasharray:none;stroke-opacity:1"
       d="m 143.27505,77.252931 c 5.35446,4.793448 10.73985,3.732007 16.17483,0.560071"
       id="path12670"
       sodipodi:nodetypes="cc" />
  </g>
</svg>
