<svg xmlns="http://www.w3.org/2000/svg" width="136.168" height="58.318" viewBox="0 0 174.295 74.647" xmlns:v="https://vecta.io/nano"><path d="M165.724 48.386H26.598a8.57 8.57 0 0 1-8.571-8.571V8.571A8.57 8.57 0 0 1 26.598 0h139.125a8.57 8.57 0 0 1 8.571 8.571v31.244c0 4.737-3.843 8.571-8.571 8.571z" fill="#37b04a"/><path d="M157.5 43.978H34.822a2.57 2.57 0 0 1-2.565-2.565V8.918a2.57 2.57 0 0 1 2.565-2.565H157.5a2.57 2.57 0 0 1 2.565 2.565v32.495a2.56 2.56 0 0 1-2.565 2.565z" fill="#f1f8f0"/><path d="M46.223 30.414h-4.984a.96.96 0 0 1-.958-.958V6.362h6.91v23.093c0 .529-.438.958-.968.958zm12.304 0h-4.984a.96.96 0 0 1-.958-.958V6.362h6.91v23.093c-.009.529-.438.958-.968.958zm12.715 0h-4.984a.96.96 0 0 1-.958-.958V6.362h6.91v23.093c-.009.529-.438.958-.968.958zm53.717 0h-4.984a.96.96 0 0 1-.958-.958V6.362h6.91v23.093c-.01.529-.438.958-.968.958zm12.304 0h-4.984a.96.96 0 0 1-.958-.958V6.362h6.91v23.093c-.01.529-.438.958-.968.958zm12.706 0h-4.984a.96.96 0 0 1-.958-.958V6.362h6.91v23.093c0 .529-.438.958-.968.958zm-45.1 0h-4.984a.96.96 0 0 1-.958-.958V6.362h6.91v23.093c-.01.529-.438.958-.968.958zm-12.304 0h-4.984a.96.96 0 0 1-.958-.958V6.362h6.91v23.093c-.01.529-.438.958-.968.958z" fill="#272933"/><path d="M113.586 68.422H26.251c-11.045 0-20.035-8.991-20.035-20.035 0-8.115 4.856-15.106 11.811-18.246v-6.682C7.567 26.918 0 36.785 0 48.386c0 14.477 11.784 26.261 26.261 26.261h87.334v-6.225z" fill="#cfe0cd"/><path d="M113.586 68.422h10.661v6.225h-10.661z" fill="#272933"/></svg>