<svg xmlns="http://www.w3.org/2000/svg" width="126.379" height="133.705" viewBox="0 0 10.11 10.696" xmlns:v="https://vecta.io/nano"><path d="M.427 8.469s-.383.013-.415-.323-.061-.861.662-1.475 1.228-.616 1.936-1.737 1.029-3.103 1.259-3.61S4.207.05 5.221.002s1.169.876 1.368 1.691.63 2.642 1.46 3.671 1.567 1.431 1.89 2.382.107 1.184.03 1.198-.813.061-.813.061a1.353 1.353 0 0 1 .026.4c-.035.057-.806.16-1.302.149s-.807-.046-.807-.114-.033-.323-.033-.323l-.336.022s.081.461-.011.599a.697.697 0 0 1-.415.219 1.235 1.235 0 0 1-.149.011s.092.518.035.61-.75.127-1.453.116-1.036-.024-1.049-.138a5.839 5.839 0 0 1 .059-.623s-.566-.033-.623-.184A3.333 3.333 0 0 1 3.086 9h-.404a.487.487 0 0 1-.011.219c-.035.068-.865.114-1.475.057s-.807-.23-.807-.288.039-.52.039-.52z" fill="#1d1d1b"/><path d="M.619 8.169s-.242-.022-.23-.103.138-1.025.772-1.302 1.567-.347 1.993-.807.68-1.613.726-2.12 0-1.681.219-2.293S4.468.278 5.333.276c1.379 0 1.337 5.081 1.958 5.485a3.134 3.134 0 0 0 .992.472 3.034 3.034 0 0 1 1.152 1.268c.345.806.277 1.185.277 1.185l-.542.046a1.021 1.021 0 0 0-1.025-.898c-.935-.024-1.062 1.082-1.062 1.082s-.415.116-.393.035-.057-2.741-.195-3.248-.439-.658-.564-.68-.208.265-.184.299.356 0 .426 1.073l.114 3.202c-.127.092-.887.195-1.67.149s-1.025-.057-1.117-.264.173-3.25.277-3.665.277-.472.415-.507a.168.168 0 0 0 .127-.219c-.024-.057-.219-.068-.404-.022s-.496.312-.588 1.348l-.206 2.304c-.033 0-.612-.046-.612-.046s.105-1.106-.841-1.152-1.047.645-1.047.645z" fill="#cbe7f5"/><path d="M1.633 7.824a.553.553 0 0 1 .542.564c0 .288.024.529-.046.553a3.189 3.189 0 0 1-.819-.011c-.402-.046-.472 0-.472-.162s-.068-.99.795-.944zm6.499.323c.564-.037.737.922.634.979a2.445 2.445 0 0 1-.748.081c-.369.011-.553 0-.577-.173s-.011-.841.691-.887z" fill="#e7413e"/><path d="M3.58 3.814c.046 0 .057.667-.197 1.29s-.645.944-.887 1.014a2.725 2.725 0 0 1-.542.079s.784-.529 1.13-1.267l.496-1.117zm3.438.244a5.899 5.899 0 0 0 .503 1.136c.3.485.68.691.599.737s-.61-.159-.854-.619a2.581 2.581 0 0 1-.249-1.254z" fill="#1f4863"/><path d="M4.203 2.478c-.011-.057.07-1.936 1.014-1.96s.968 2.098.876 2.131-.369-.171-1.036-.114-.819.127-.854-.057z" fill="#1d1d1b"/><path d="M4.444 2.304c-.059-.035.116-1.613.807-1.545s.691 1.521.588 1.545-.382-.081-.726-.07-.588.116-.669.07z" fill="#1f4863"/><g fill="#1d1d1b"><path d="M5.886 3.202c.055-.046.415.151.402.254s.024.149-.033.138a1.66 1.66 0 0 1-.474-.242c-.022-.059.035-.092.105-.151zm-.162.588c.033-.033.542.265.553.347s.07.184-.011.171-.634-.299-.645-.369.068-.114.103-.149zm-.138.472c.057.013.772.336.748.415s.046.138-.057.116-.772-.323-.772-.415a.12.12 0 0 1 .081-.116zm-1.025 1.47c.065-.048.184.046.49.059h.507s.022.114 0 .149c-.162.041-.329.059-.496.052a2.21 2.21 0 0 1-.525-.081c-.026-.059-.017-.128.024-.179zm.005.907c.065-.05.184.046.49.057h.507s.022.116 0 .149a1.66 1.66 0 0 1-.496.052 2.3 2.3 0 0 1-.524-.079c-.028-.059-.019-.129.022-.179zM4.55 7.68c.065-.05.184.046.489.057h.507s.024.114 0 .149a1.63 1.63 0 0 1-.494.052 2.21 2.21 0 0 1-.525-.081.17.17 0 0 1 .024-.177zm3.79-1.106c.022.028.444.385.431.437s-.033.076-.052.063c-.158-.115-.31-.238-.455-.369-.011-.028.076-.131.076-.131z"/><path d="M7.885 6.699c.052 0 .778.588.767.658s-.029.114-.059.114-.817-.61-.811-.662.103-.111.103-.111zm-.196.48c.197.103.377.235.535.391-.022.029.053.07-.068.065a1.75 1.75 0 0 1-.553-.317c-.011-.035.057-.125.087-.138z"/></g><path d="M3.969 10.005c.013-.018.454.039.96.022a9.386 9.386 0 0 1 .944-.037 1.515 1.515 0 0 1 .039.461 6.084 6.084 0 0 1-1.106.053c-.498-.017-.837 0-.876-.053a.992.992 0 0 1 .039-.446z" fill="#e7413e"/></svg>