<svg xmlns="http://www.w3.org/2000/svg" xmlns:xlink="http://www.w3.org/1999/xlink" viewBox="0 0 130 120"><path fill="#FFF" d="M0 0h130v39H0z"/><path fill="#2A66B7" d="M0 39h130v42H0z"/><path fill="#DC4437" d="M0 81h130v39H0z"/><defs><path id="prefix__a" d="M41.2 32C23.6 33.1 22 40.9 22 40.9v6.5s-.1 30.3.6 33.3c.7 3 14.3 16 22.9 16.2 8.6.2 22.2-13.2 22.9-16.2.7-3 .6-33.3.6-33.3v-6.5s-1.6-7.8-19.2-8.9h-8.6z"/></defs><use xlink:href="#prefix__a" overflow="visible" fill="#DC4437"/><clipPath id="prefix__b"><use xlink:href="#prefix__a" overflow="visible"/></clipPath><path clip-path="url(#prefix__b)" fill="none" stroke="#FFF" stroke-width="6" stroke-miterlimit="10" d="M45.5 74V39M56.5 54.4h-22M55.6 45.6H35.4"/><ellipse clip-path="url(#prefix__b)" fill="#2A66B7" cx="45.5" cy="83.8" rx="23.3" ry="21.7"/></svg>