<svg version="1.1" xmlns="http://www.w3.org/2000/svg" xmlns:xlink="http://www.w3.org/1999/xlink" width="140" height="140" viewBox="0,0,140,140"><g transform="translate(-170,-110)"><g data-paper-data="{&quot;isPaintingLayer&quot;:true}" fill-rule="nonzero" stroke="none" stroke-width="1" stroke-linecap="butt" stroke-linejoin="miter" stroke-miterlimit="10" stroke-dasharray="" stroke-dashoffset="0" style="mix-blend-mode: normal"><path d="M170,138v-28h140v28z" fill="#396041"/><path d="M170,138v-28h133v28z" fill="#4c8056"/><path d="M216.66667,138v-18.66667h46.66667v18.66667z" fill="#cccccc"/><path d="M216.66667,138v-18.66667h39.66667v18.66667z" fill="#f2f2f2"/><path d="M174.66667,152v-14h130.66667v14z" fill="#559264"/><path d="M174.66667,152v-14h123.66667v14z" fill="#71c285"/><path d="M179.33333,240.66667v-88.66667h121.33334v88.66667z" fill="#cccccc"/><path d="M179.33333,240.66667v-88.66667h114.33334v88.66667z" fill="#f2f2f2"/><path d="M282,166l4.66667,14h-18.66667l4.66667,-14z" fill="#cc4b4c"/><path d="M193.33333,180v-14h18.66667v14z" fill="#4482c3"/><path d="M251.66667,210.33333l-4.66667,9.33333h-14l-4.66667,-9.33333z" fill="#559264"/><path d="M240,219.66667h-7l-4.66667,-9.33333h16.33333z" fill="#71c285"/><path d="M226,196.33333v-30.33333h28v30.33333z" fill="#b0d3f0"/><path d="M263.33333,240.66667v-51.33333h28v51.33333z" fill="#98856e"/><path d="M263.33333,240.66667v-51.33333h21v51.33333z" fill="#cbb292"/><path d="M188.66667,240.66667v-51.33333h28v51.33333z" fill="#98856e"/><path d="M188.66667,240.66667v-51.33333h21v51.33333z" fill="#cbb292"/><path d="M207.33333,219.66667v-18.66667h9.33333v18.66667z" fill="#5f443e"/><path d="M282,219.66667v-18.66667h9.33333v18.66667z" fill="#5f443e"/><path d="M170,250v-9.33333h140v9.33333z" fill="#396041"/><path d="M170,250v-9.33333h133v9.33333z" fill="#4c8056"/><path d="M200.33333,180v-7h4.66667v7z" fill="#224162"/><path d="M223.66667,131v-4.66667h30.33333v4.66667z" fill="#999999"/><path d="M234.64877,183.98584l-3.29983,-3.29983l9.33852,-9.33852l3.29983,3.29983z" fill="#999999"/><path d="M239.30501,190.97909l-3.29983,-3.29983l9.33852,-9.33852l3.29983,3.29983z" fill="#999999"/><path d="M237.66667,210.33333v-7h4.66667v7z" fill="#999999"/><path d="M247,231.33333h-7c-1.28866,0 -2.33333,-1.04467 -2.33333,-2.33333v-9.33333h4.66667v7h4.66667z" fill="#999999"/></g></g></svg>