<svg width="140" height="140" viewBox="0 0 11.2 11.2" version="1.1" id="prefix__svg855" xmlns="http://www.w3.org/2000/svg"><defs id="prefix__defs796"><style id="style794">.prefix__cls-1{fill:#396041}.prefix__cls-2{fill:#4c8056}.prefix__cls-3{fill:#ccc}.prefix__cls-4{fill:#f2f2f2}.prefix__cls-5{fill:#559264}.prefix__cls-6{fill:#71c285}.prefix__cls-10{fill:#98856e}.prefix__cls-11{fill:#cbb292}.prefix__cls-12{fill:#5f443e}.prefix__cls-14{fill:#999}</style></defs><g data-name="Layer 29" id="prefix__Layer_29" transform="matrix(.18667 0 0 .18667 -.373 -.373)"><path class="prefix__cls-1" id="prefix__rect800" d="M2 2h60v12H2z"/><path class="prefix__cls-2" id="prefix__rect802" d="M2 2h57v12H2z"/><path class="prefix__cls-3" id="prefix__rect804" d="M22 6h20v8H22z"/><path class="prefix__cls-4" id="prefix__rect806" d="M22 6h17v8H22z"/><path class="prefix__cls-5" id="prefix__rect808" d="M4 14h56v6H4z"/><path class="prefix__cls-6" id="prefix__rect810" d="M4 14h53v6H4z"/><path class="prefix__cls-3" id="prefix__rect812" d="M6 20h52v38H6z"/><path class="prefix__cls-4" id="prefix__rect814" d="M6 20h49v38H6z"/><path id="prefix__polygon816" fill="#cc4b4c" d="M50 26l2 6h-8l2-6z"/><path id="prefix__rect818" fill="#4482c3" d="M12 26h8v6h-8z"/><path class="prefix__cls-5" id="prefix__polygon820" d="M37 45l-2 4h-6l-2-4z"/><path class="prefix__cls-6" id="prefix__polygon822" d="M34 45h-7l2 4h3z"/><path id="prefix__rect824" fill="#b0d3f0" d="M26 26h12v13H26z"/><path class="prefix__cls-10" id="prefix__rect826" d="M42 36h12v22H42z"/><path class="prefix__cls-11" id="prefix__rect828" d="M42 36h9v22h-9z"/><path class="prefix__cls-10" id="prefix__rect830" d="M10 36h12v22H10z"/><path class="prefix__cls-11" id="prefix__rect832" d="M10 36h9v22h-9z"/><path class="prefix__cls-12" id="prefix__rect834" d="M18 41h4v8h-4z"/><path class="prefix__cls-12" id="prefix__rect836" d="M50 41h4v8h-4z"/><path class="prefix__cls-1" id="prefix__rect838" d="M2 58h60v4H2z"/><path class="prefix__cls-2" id="prefix__rect840" d="M2 58h57v4H2z"/><path id="prefix__rect842" fill="#224162" d="M15 29h2v3h-2z"/><path class="prefix__cls-14" id="prefix__rect844" d="M25 9h13v2H25z"/><path class="prefix__cls-14" transform="rotate(-45 31 31)" id="prefix__rect846" d="M28.17 30h5.66v2h-5.66z"/><path class="prefix__cls-14" transform="rotate(-45 32.995 34.003)" id="prefix__rect848" d="M30.17 33h5.66v2h-5.66z"/><path class="prefix__cls-14" id="prefix__rect850" d="M31 42h2v3h-2z"/><path class="prefix__cls-14" d="M35 54h-3a1 1 0 01-1-1v-4h2v3h2z" id="prefix__path852"/></g></svg>