<svg version="1.1" xmlns="http://www.w3.org/2000/svg" xmlns:xlink="http://www.w3.org/1999/xlink" width="140.00002" height="137.96698" viewBox="0,0,140.00002,137.96698"><g transform="translate(-169.99999,-111.01651)"><g data-paper-data="{&quot;isPaintingLayer&quot;:true}" fill-rule="nonzero" stroke="none" stroke-width="1" stroke-linecap="butt" stroke-linejoin="miter" stroke-miterlimit="10" stroke-dasharray="" stroke-dashoffset="0" style="mix-blend-mode: normal"><g data-paper-data="{&quot;index&quot;:null}"><path d="M218.16789,179.50583c-6.88344,-9.66843 -13.92938,4.15206 -15.56934,19.06402c-1.63845,14.91333 -18.29918,19.72006 -18.02637,12.45488c-5.57144,4.58898 -13.60142,4.42498 -10.97891,-5.29861c-7.42913,-4.91551 -2.62248,-15.84069 7.86596,-18.13524c10.48838,-2.29446 7.42904,-18.6823 23.16096,-26.22029c7.20714,-3.45372 15.18622,4.58755 15.0222,14.584" fill="#f1cca1"/><path d="M173.25393,192.0738c-1.67384,4.24402 -0.68141,10.81923 2.85152,11.14011c-3.605,2.73137 -0.43683,9.50449 10.16042,2.07536c0.65593,8.4131 11.58122,0.54569 13.32853,-6.55539c1.74882,-7.10116 5.68182,-22.17706 12.7829,-24.79949c2.97304,-1.09847 5.8373,-4.55221 4.02346,-8.56439c2.02866,2.77796 3.30809,6.52008 3.24164,10.58456l-1.47451,3.55124c-6.88344,-9.66843 -13.92936,4.15209 -15.56934,19.06402c-1.63845,14.91333 -18.29918,19.72004 -18.02637,12.45488c-5.57141,4.58898 -13.60139,4.42495 -10.97891,-5.29861c-5.01024,-3.31512 -4.45043,-9.36166 -0.33933,-13.6523z" fill-opacity="0.3" fill="#c49a6c"/><path d="M266.34747,171.53098c-1.80244,7.70202 -26.54823,6.55402 -35.56073,4.42358c-9.01384,-2.12906 -5.40893,-7.21003 -0.65598,-7.70202c-2.4584,-1.80247 -2.4584,-9.99639 3.93296,-11.30688c-2.89528,-12.8366 8.52197,-10.16047 17.37044,-11.14436c8.84993,-0.98258 6.06343,-20.6474 15.73191,-19.99284c10.6524,8.68591 0.98389,38.02058 -0.81861,45.72252z" fill="#f1cca1"/><g fill-opacity="0.3" fill="#c49a6c"><path d="M243.63893,177.46586c2.87829,-0.56269 6.19912,-1.74311 9.92566,-3.85952c12.89176,-7.32026 11.03413,-26.76596 11.69006,-34.63331c0.57263,-6.87635 -1.52538,-10.49692 -4.10684,-9.2528c1.31194,-2.44292 3.09319,-4.10973 6.01824,-3.91177c8.12465,6.62466 4.42915,25.25188 1.41789,37.14127c-4.57764,4.99324 -9.78149,10.30316 -13.84597,14.18805c-3.49322,0.40155 -7.37677,0.47362 -11.09903,0.32808z"/><path d="M230.13075,168.25257c-2.4584,-1.80247 -2.4584,-9.99639 3.93296,-11.30688c-1.32322,-5.86841 0.34779,-8.48946 3.39438,-9.70665c-1.04051,2.64079 -1.18185,5.99987 0.59237,9.1058c-8.08368,1.31048 -7.86596,10.92521 -2.73137,11.69006c-3.71381,0.32796 -5.57144,4.69778 -4.15069,6.88335c0.29691,0.45665 0.89068,0.98678 1.75585,1.47031c-0.7789,-0.13854 -1.50136,-0.28272 -2.13752,-0.434c-9.01384,-2.12904 -5.4089,-7.21 -0.65598,-7.70199z"/></g><path d="M289.94536,129.0869c-0.32802,-5.08096 3.93299,-19.99287 9.83245,-17.8638c5.89938,2.13044 2.13044,13.27483 -5.24353,20.97682" fill="#c49a6c"/><path d="M282.89936,196.76738c3.605,6.71941 12.45485,18.84632 11.79892,23.10725c-0.65601,4.26096 -11.30839,16.87846 -12.12688,22.45132c-2.13049,7.70193 -8.84993,-4.26096 -7.21003,-8.35794c1.63853,-4.0969 7.86596,-13.60285 6.88198,-15.2413c-0.98252,-1.63853 -8.84985,-13.27343 -8.84985,-13.27343" fill="#c49a6c"/><path d="M240.12723,209.05823c-0.16402,10.48844 -10.48838,17.04385 -9.34046,22.28738c2.13052,8.84985 5.5715,13.60139 4.58755,15.40532c-0.98252,1.80247 -7.86596,2.45703 -10.32441,-2.13049c-2.45848,-4.58892 -7.70193,-17.37182 -6.22742,-25.56574c1.47591,-8.19395 15.24127,-14.42137 21.30475,-9.99648z" fill="#c49a6c"/><path d="M282.89936,196.76738c3.605,6.71941 12.45485,18.84632 11.79892,23.10725c-0.65601,4.26096 -11.30839,16.87846 -12.12688,22.45132c-2.13049,7.70193 -8.84993,-4.26096 -7.21003,-8.35794c1.63853,-4.0969 7.86596,-13.60285 6.88198,-15.2413c-0.98252,-1.63853 -8.84985,-13.27343 -8.84985,-13.27343" fill-opacity="0.5" fill="#996b39"/><path d="M240.12723,209.05823c-0.16402,10.48844 -10.48838,17.04385 -9.34046,22.28738c2.13052,8.84985 5.5715,13.60139 4.58755,15.40532c-0.98252,1.80247 -7.86596,2.45703 -10.32441,-2.13049c-2.45848,-4.58892 -7.70193,-17.37182 -6.22742,-25.56574c1.47591,-8.19395 15.24127,-14.42137 21.30475,-9.99648z" fill-opacity="0.5" fill="#996b39"/><path d="M277.32649,126.46439c15.3459,-2.38921 22.45132,5.73552 22.77929,11.63492c0.32796,5.89946 2.95039,12.7829 7.86596,17.69841c4.91688,4.91694 1.14792,19.50231 -14.09338,13.27488c-5.24353,-2.29452 -8.194,-3.76902 -10.48844,-3.441c-1.63845,14.58391 12.12688,28.35073 -3.11304,41.13217c-15.23984,12.7829 -42.9361,5.89946 -48.34357,3.44243c-3.441,13.27343 -19.33831,12.12688 -18.51836,20.81136c2.13052,11.96294 5.4075,15.89731 3.11304,17.04382c-2.29309,1.14654 -7.86596,1.14654 -11.14299,-9.1779c-3.27698,-10.32298 -2.4584,-18.51836 1.80253,-20.4834c4.26096,-1.96792 6.28258,-9.06758 5.84576,-11.58122c-6.39145,-10.8164 -5.68182,-28.89648 8.24762,-32.33885c13.92936,-3.441 34.41421,0.65593 37.69262,-9.0125c3.27698,-9.66983 -1.6399,-35.89009 18.35296,-39.00313z" fill="#c49a6c"/><path d="M276.79917,126.56906c0.17951,-0.03256 0.3449,-0.07636 0.5273,-0.10466c6.84384,-1.0659 12.04487,-0.03814 15.74037,1.94956c1.81941,1.14226 3.49042,2.52493 4.86598,4.1153c1.35999,1.82795 2.07399,3.7987 2.17291,5.57004c0.03534,0.63196 0.10178,1.2766 0.18942,1.92696c-3.91605,1.69215 -10.6015,-3.29826 -12.01522,-6.8707c-2.51922,4.17332 -11.23623,0.40155 -11.48076,-6.5865z" fill-opacity="0.5" fill="#996b39"/><path d="M233.29895,204.85244c0,0 10.32444,3.11301 25.07238,3.93296c24.90972,-1.47451 20.97673,-20.3208 22.2873,-23.76181c1.1013,-2.89111 4.39947,-2.54192 6.49606,3.08328c1.04048,6.42541 0.28417,12.65001 -6.87778,18.65688c-15.06316,12.63444 -42.28154,6.0592 -48.1315,3.53147c0.16254,-1.45748 0.51027,-3.27978 1.15354,-5.44278z" fill="#f1cca1"/><path d="M234.68725,205.23411c1.31194,1.6357 3.23319,3.49051 5.65771,4.31609c3.5131,1.19742 11.9516,2.96456 17.87226,-0.77328c0.05228,0.00137 0.10324,0.00566 0.15411,0.00846c2.39484,-0.14137 4.51962,-0.44528 6.41122,-0.87937c13.25932,-0.33079 20.50885,-7.90126 22.68454,-13.88839c-0.35482,4.34868 -2.24638,8.5997 -7.1902,12.74613c-15.06316,12.63444 -42.28154,6.0592 -48.1315,3.53147c0.16257,-1.45748 0.5103,-3.27978 1.15354,-5.44281c0,0.00003 0.48353,0.14566 1.38832,0.3817z" fill-opacity="0.3" fill="#c49a6c"/><path d="M293.87835,169.07258c-0.6631,-0.29126 -1.28652,-0.55989 -1.876,-0.80867c-1.04476,-10.59442 6.45926,-17.01837 12.46616,-16.86997c0.99954,1.57352 2.163,3.06359 3.50325,4.40376c4.91683,4.91697 1.14789,19.50234 -14.09341,13.27488z" fill="#f1cca1"/><path d="M290.97167,147.04537c0.37184,1.21153 0.01982,2.39484 -0.78882,2.64225c-0.80721,0.24884 -1.76434,-0.53158 -2.13615,-1.74311c-0.37184,-1.21016 -0.01977,-2.39341 0.78744,-2.64225c0.80721,-0.24881 1.76431,0.53155 2.13752,1.74311z" fill="#2e1f10"/><path d="M274.21345,201.84826c-3.27704,12.61887 -7.86596,34.25024 -3.441,44.73862c1.14654,2.78508 -7.2114,3.93299 -11.96294,-0.98398c-3.6064,-13.27343 -1.14792,-30.97175 1.9665,-39.49372c3.11304,-8.52186 15.40395,-10.16039 13.43745,-4.26093z" fill="#c49a6c"/><path d="M276.50791,121.21949c5.5715,-8.02852 13.76542,-8.02852 21.30341,-5.24345c7.53936,2.78645 0.98389,5.89946 -2.78505,4.58892c12.12688,8.02995 10.81494,14.4214 5.07951,17.53436c-5.73552,3.11447 -10.81497,-6.88198 -10.81497,-6.88198c0.98252,7.046 -8.52197,0.81858 -11.96432,-4.75292c-3.441,-5.57144 -0.81858,-5.24493 -0.81858,-5.24493z" fill="#f1cca1"/><path d="M276.50791,121.21946c0.30391,-0.4382 0.61776,-0.84818 0.93727,-1.23984c1.47594,8.50212 10.86873,13.16319 9.98654,8.06957c15.2654,14.85683 19.15169,0.89914 8.04692,-7.17606c11.63072,7.88435 10.28905,14.15274 4.62714,17.22616c-5.73552,3.11447 -10.81497,-6.88198 -10.81497,-6.88198c0.98252,7.046 -8.52194,0.81858 -11.96432,-4.75292c-3.441,-5.57141 -0.81858,-5.2449 -0.81858,-5.24493zM298.60011,116.29269c0.95287,1.9976 -1.08007,3.75486 -5.81462,2.9066c0.81432,0.42837 1.56926,0.89068 2.27044,1.37418c3.63188,1.23696 9.78012,-1.58908 3.54418,-4.28078z" fill-opacity="0.3" fill="#c49a6c"/><path d="M269.78853,132.19991c-5.89949,-3.76902 -11.4709,-22.28738 -3.441,-20.81288c8.02998,1.47596 15.40395,16.87988 9.99645,22.45132" fill="#c49a6c"/><path d="M234.33663,177.75849c1.62862,0 2.95044,0.70826 2.95044,1.58337c0,0.87503 -1.32182,1.58474 -2.95044,1.58474c-1.62862,0 -2.95047,-0.70972 -2.95047,-1.58474c0,-0.87508 1.32185,-1.58337 2.95047,-1.58337z" fill="#f1cca1"/><path d="M225.16019,176.22885c1.62862,0 2.94902,0.70826 2.94902,1.58337c0,0.87511 -1.3204,1.58474 -2.94902,1.58474c-1.63008,0 -2.95047,-0.70963 -2.95047,-1.58474c0,-0.87511 1.3204,-1.58337 2.95047,-1.58337z" fill="#f1cca1"/><path d="M222.97451,183.3299c1.62862,0 2.94902,0.70972 2.94902,1.58483c0,0.87366 -1.3204,1.58337 -2.94902,1.58337c-1.62999,0 -2.95039,-0.70972 -2.95039,-1.58337c0,-0.87508 1.3204,-1.5848 2.95039,-1.58483z" fill="#f1cca1"/><g fill="#996b39"><g><g><path d="M299.66444,162.45907c-0.02957,-0.06261 -0.05088,-0.14949 -0.06065,-0.25799c-0.02041,-0.21706 0.0005,-0.52245 0.08498,-0.89034c0.08579,-0.36702 0.23464,-0.79727 0.48387,-1.24835c0.12415,-0.22554 0.27628,-0.45494 0.46012,-0.68124c0.18684,-0.22484 0.40412,-0.44794 0.68225,-0.64565c0.13908,-0.09859 0.29019,-0.18841 0.45847,-0.26233c0.16769,-0.0737 0.35498,-0.1318 0.56372,-0.15442c0.02621,-0.00263 0.0518,-0.00557 0.07837,-0.0072c0.02708,-0.00081 0.0541,-0.00162 0.08103,-0.00241l0.04035,-0.00048l0.04166,0.00188c0.02775,0.0014 0.05538,0.00319 0.08285,0.00529c0.11222,0.01305 0.22515,0.03436 0.33471,0.07501c0.05491,0.01781 0.10758,0.0434 0.15946,0.0679c0.02582,0.0126 0.05026,0.02755 0.07498,0.04172c0.02436,0.01464 0.04942,0.02856 0.07176,0.04511c0.04558,0.03223 0.09103,0.06479 0.13026,0.10097c0.02005,0.01781 0.04032,0.03564 0.05925,0.05393c0.01803,0.01856 0.03576,0.0373 0.05317,0.05614c0.13815,0.15162 0.22669,0.312 0.28728,0.46096c0.06045,0.14974 0.09428,0.29056 0.11656,0.42246c0.04026,0.26278 0.03388,0.49081 0.01117,0.69048c-0.04883,0.39838 -0.15744,0.68897 -0.26398,0.88133c-0.02727,0.04788 -0.0539,0.08971 -0.08089,0.12499c-0.02747,0.03517 -0.05446,0.06406 -0.08086,0.08652c-0.05278,0.04491 -0.10324,0.06398 -0.15067,0.05608c-0.04726,-0.0079 -0.08929,-0.04228 -0.12622,-0.09926c-0.01845,-0.02848 -0.03564,-0.06264 -0.05158,-0.10195c-0.01644,-0.03934 -0.03248,-0.08386 -0.04696,-0.13306c-0.05975,-0.19589 -0.10707,-0.4713 -0.18136,-0.77342c-0.03744,-0.14988 -0.08473,-0.30534 -0.14493,-0.44218c-0.03091,-0.06684 -0.06474,-0.12886 -0.09979,-0.17671c-0.03478,-0.04816 -0.0707,-0.07994 -0.09618,-0.0924c-0.02654,-0.01277 -0.03702,-0.01 -0.04886,-0.00577c-0.00498,0.0002 -0.01428,0.0042 -0.02472,0.00448c-0.00342,0.00109 -0.00675,0.00185 -0.01005,0.00224c-0.00165,0.00034 -0.0033,0.00031 -0.00496,0.00034l-0.00636,0.00174c-0.00423,0.00104 -0.00846,0.00176 -0.01268,0.00218l-0.01518,0.004c-0.0413,0.00955 -0.10125,0.02946 -0.16993,0.06395c-0.0686,0.0338 -0.14515,0.07991 -0.22383,0.13586c-0.15837,0.11147 -0.31539,0.25696 -0.46206,0.40894c-0.14588,0.15462 -0.28381,0.31668 -0.40989,0.48059c-0.2534,0.32726 -0.46704,0.65192 -0.65178,0.93022c-0.18396,0.2791 -0.33981,0.51302 -0.47499,0.67024c-0.06801,0.07848 -0.12984,0.13818 -0.18701,0.17492c-0.05729,0.03671 -0.10979,0.05051 -0.15604,0.03802c-0.04642,-0.01254 -0.08442,-0.05088 -0.11388,-0.11334z"/></g></g></g><g fill="#996b39"><g><g><path d="M298.19668,164.79155c0.08938,0.23052 0.17791,0.56098 0.28221,0.95894c0.10489,0.39746 0.22476,0.86405 0.38928,1.35534c0.16388,0.4902 0.37411,1.00797 0.66441,1.46868c0.1456,0.22932 0.30428,0.431 0.47314,0.59973c0.08439,0.08445 0.1713,0.16086 0.26032,0.22938c0.08926,0.06804 0.18068,0.12816 0.27378,0.18113c0.09316,0.05284 0.1878,0.09909 0.28384,0.13838c0.09629,0.03858 0.19354,0.07092 0.29061,0.09884c0.19508,0.05239 0.38948,0.08644 0.57492,0.10422c0.18533,0.01879 0.36075,0.02554 0.5192,0.03032c0.15856,0.00442 0.30005,0.00554 0.42008,0.01322c0.11978,0.00633 0.21848,0.01963 0.29098,0.04102c0.07269,0.02209 0.12001,0.05499 0.13689,0.10002c0.01683,0.04486 0.00232,0.09976 -0.04264,0.16394c-0.04469,0.06476 -0.12093,0.13619 -0.22772,0.21291c-0.21423,0.15002 -0.55409,0.32253 -1.03071,0.41972c-0.23761,0.04869 -0.51044,0.07258 -0.80954,0.05547c-0.14944,-0.01036 -0.30509,-0.03102 -0.46435,-0.06566c-0.1591,-0.03534 -0.32116,-0.08548 -0.48241,-0.15064c-0.1612,-0.06521 -0.3213,-0.14605 -0.4758,-0.24181c-0.1542,-0.0961 -0.3026,-0.20692 -0.44218,-0.32976c-0.27964,-0.24576 -0.52223,-0.53906 -0.72335,-0.85621c-0.20087,-0.31774 -0.35221,-0.64364 -0.46995,-0.96186c-0.1169,-0.31864 -0.20042,-0.63025 -0.2595,-0.92756c-0.11847,-0.59503 -0.14381,-1.13173 -0.12748,-1.5776c0.01733,-0.44626 0.07818,-0.80268 0.15481,-1.04647c0.07745,-0.24391 0.17035,-0.37534 0.2655,-0.37534c0.09682,0.00003 0.18696,0.13107 0.27566,0.36165z"/></g></g></g><g fill="#996b39"><g><g><path d="M283.35033,165.72781c-0.06188,0.00888 -0.13731,0.01417 -0.22568,0.01599c-0.08809,0.00048 -0.189,-0.00294 -0.3022,-0.00988c-0.45203,-0.03021 -1.09892,-0.12919 -1.88244,-0.34656c-0.39127,-0.10973 -0.81637,-0.24956 -1.26423,-0.43022c-0.44803,-0.17987 -0.91784,-0.40354 -1.39468,-0.67903c-0.02985,-0.01716 -0.05975,-0.03438 -0.08977,-0.05166c-0.02962,-0.01806 -0.05933,-0.03618 -0.08912,-0.05435c-0.05947,-0.0366 -0.11973,-0.07272 -0.17948,-0.1106c-0.11855,-0.07748 -0.23937,-0.15459 -0.35764,-0.23906c-0.11998,-0.08173 -0.23708,-0.17105 -0.35613,-0.26004c-0.05838,-0.04626 -0.11701,-0.09271 -0.17592,-0.13938c-0.05933,-0.04614 -0.11598,-0.09654 -0.17441,-0.14512c-0.23142,-0.19732 -0.45861,-0.40964 -0.67651,-0.63854c-0.21731,-0.22943 -0.42594,-0.47449 -0.62191,-0.73433c-0.392,-0.51968 -0.71422,-1.07304 -0.96256,-1.63114c-0.24833,-0.55835 -0.4291,-1.11838 -0.55264,-1.65763c-0.06177,-0.2697 -0.1115,-0.53402 -0.14938,-0.79134c-0.03693,-0.25738 -0.06485,-0.50747 -0.08291,-0.74911c-0.03581,-0.48331 -0.03811,-0.93204 -0.02072,-1.33874c0.01809,-0.40676 0.05519,-0.77165 0.10114,-1.08951c0.0457,-0.31794 0.10111,-0.58881 0.15789,-0.80822c0.11421,-0.43879 0.23229,-0.67189 0.32698,-0.66256c0.09635,0.00944 0.16047,0.26026 0.21305,0.69947c0.02657,0.2196 0.05065,0.48639 0.0793,0.79338c0.02836,0.30696 0.06045,0.65422 0.10444,1.03396c0.09047,0.75821 0.2249,1.65091 0.50896,2.58457c0.14078,0.46679 0.32192,0.94161 0.54916,1.41081c0.2275,0.46908 0.50666,0.92952 0.83751,1.36842c0.16548,0.21941 0.34009,0.42809 0.52156,0.62619c0.18208,0.1976 0.37176,0.38377 0.56535,0.56022c0.04906,0.04346 0.09598,0.08873 0.14599,0.13045c0.04939,0.04242 0.09856,0.08462 0.14748,0.12664c0.10041,0.08137 0.19832,0.16394 0.29991,0.24058c0.09948,0.0791 0.20224,0.15246 0.30246,0.22697c0.05118,0.03598 0.10206,0.07176 0.15266,0.10732c0.02531,0.01781 0.05054,0.03556 0.07571,0.05326c0.02565,0.01711 0.05121,0.03416 0.07672,0.05116c0.40698,0.2735 0.81276,0.51285 1.20436,0.72156c0.39124,0.20947 0.7667,0.39102 1.11426,0.55177c0.34754,0.16111 0.66861,0.29784 0.95088,0.42235c0.28319,0.12214 0.52853,0.22985 0.72881,0.32365c0.10024,0.04656 0.18883,0.09086 0.26513,0.13233c0.07666,0.04015 0.14087,0.0779 0.19183,0.11295c0.10195,0.07011 0.15095,0.12956 0.1405,0.17632c-0.0105,0.04693 -0.08002,0.07893 -0.2037,0.09671z"/></g></g></g><g fill="#996b39"><g><g><path d="M272.38015,207.21533c0.44666,-1.95972 0.92243,-3.71736 1.3312,-4.97546c0.40863,-1.25796 0.75096,-2.01701 0.93943,-1.97621c0.18684,0.04043 0.18396,0.87483 0.0205,2.18982c-0.16352,1.31482 -0.48801,3.10934 -0.93506,5.07074c-0.89382,3.92297 -1.93556,7.02971 -2.30868,6.94305c-0.37495,-0.08708 0.05961,-3.33262 0.95262,-7.25194z"/></g></g></g><g fill="#996b39"><g><g><path d="M258.31695,212.1083c0.60253,-3.03632 1.39706,-5.44146 1.77534,-5.3713c0.37682,0.06989 0.19376,2.59342 -0.40992,5.63573c-0.60368,3.04231 -1.39863,5.44734 -1.7743,5.37149c-0.3771,-0.07613 -0.19365,-2.5996 0.40888,-5.63592z"/></g></g></g><g fill="#996b39"><g><g><path d="M229.74811,215.34115c-0.03598,-0.032 -0.02803,-0.11334 0.01632,-0.2354c0.04133,-0.12516 0.11917,-0.29112 0.21342,-0.50624c0.19135,-0.42759 0.45828,-1.04303 0.73704,-1.83c0.28025,-0.78571 0.57744,-1.73838 0.86584,-2.81196c0.28932,-1.07313 0.57257,-2.26584 0.8358,-3.52685c0.26317,-1.26106 0.48387,-2.47024 0.66618,-3.57342c0.18281,-1.10323 0.32743,-2.10036 0.44332,-2.93969c0.05757,-0.42036 0.10965,-0.8006 0.15537,-1.13456c0.0462,-0.33457 0.08742,-0.62345 0.12824,-0.8605c0.08008,-0.47373 0.1575,-0.74105 0.25466,-0.74522c0.09464,-0.00412 0.20023,0.25794 0.28664,0.74234c0.04239,0.242 0.08019,0.53928 0.10772,0.88497c0.02724,0.3456 0.04469,0.73962 0.04883,1.1748c0.01758,1.74051 -0.18679,4.14028 -0.72957,6.73588c-0.2709,1.2976 -0.60178,2.52067 -0.97101,3.61472c-0.36817,1.09413 -0.7779,2.05887 -1.1933,2.83872c-0.41334,0.78064 -0.83924,1.37242 -1.1884,1.73552c-0.17287,0.18281 -0.32892,0.3068 -0.44414,0.37926c-0.11894,0.0702 -0.19723,0.0894 -0.23296,0.05762z"/></g></g></g><path d="M286.31348,150.82708c2.54895,0 4.61577,1.80956 4.61577,4.04183c0,2.23367 -2.06682,4.04323 -4.61577,4.04323c-2.55032,0 -4.6172,-1.80958 -4.6172,-4.04323c0,-2.2323 2.06688,-4.04186 4.6172,-4.04183z" fill="#c5683e"/><g fill="#996b39"><g><g><path d="M274.92415,130.30417c-0.16369,-0.45517 -0.37036,-1.11356 -0.65078,-1.91327c-0.27964,-0.79976 -0.63496,-1.74065 -1.08324,-2.76072c-0.44747,-1.02012 -0.98899,-2.11918 -1.62338,-3.2349c-0.63462,-1.11538 -1.30155,-2.1413 -1.95706,-3.03386c-0.65498,-0.89261 -1.29884,-1.65287 -1.88118,-2.23303c-0.291,-0.28988 -0.56644,-0.53494 -0.81757,-0.72724c-0.25096,-0.19256 -0.47734,-0.33127 -0.66508,-0.41577c-0.1883,-0.08582 -0.33502,-0.11508 -0.44626,-0.12569c-0.11082,-0.011 -0.18956,-0.00706 -0.2172,-0.0481c-0.02593,-0.03668 -0.00115,-0.12496 0.12984,-0.21818c0.06488,-0.04528 0.1561,-0.08742 0.26779,-0.11225c0.05614,-0.01361 0.11623,-0.0208 0.18105,-0.02587c0.06392,-0.00328 0.13272,-0.00395 0.20314,0.00188c0.28389,0.02089 0.60654,0.11768 0.94422,0.27569c0.3383,0.15817 0.69373,0.3775 1.05879,0.64781c1.45986,1.0838 3.07314,2.98029 4.40846,5.32697c0.6673,1.17351 1.20089,2.3473 1.60342,3.44442c0.40342,1.09712 0.67662,2.11663 0.84392,2.98343c0.16817,0.86708 0.23257,1.58046 0.23442,2.07586c0.00176,0.49591 -0.05695,0.77409 -0.15061,0.7868c-0.09654,0.01319 -0.21907,-0.2389 -0.38268,-0.69398z"/></g></g></g></g><path d="M262.55025,153.14982c-0.51318,6.5653 -1.31477,11.91061 -5.42158,15.19188c0.82561,-0.79173 1.45748,-1.73466 1.84489,-2.87409c2.63234,-7.767 -0.01128,-26.20335 9.20475,-34.77474c1.00937,0.82421 1.91134,1.64416 1.91134,1.64416c-2.95042,2.13049 -6.71944,10.32441 -7.53939,20.81279z" data-paper-data="{&quot;index&quot;:null}" fill-opacity="0.5" fill="#996b39"/><path d="M263.43381,248.42615c-1.63142,-0.51884 -3.27415,-1.425 -4.62428,-2.82321c-3.16392,-11.64338 -1.65967,-26.69106 0.85954,-35.96362c-1.09987,12.95112 0.95144,31.27995 3.76474,38.78683z" data-paper-data="{&quot;index&quot;:null}" fill-opacity="0.5" fill="#996b39"/><path d="M274.92317,159.45789c1.67521,3.93999 5.59546,5.57007 8.4611,6.24436c-0.42409,3.88629 0.24175,7.71467 1.155,11.48364c-4.42215,-4.84196 -9.2132,-11.55857 -9.6161,-17.728z" data-paper-data="{&quot;index&quot;:null}" fill-opacity="0.5" fill="#996b39"/><path d="M184.46743,211.39744c-0.06084,-0.08669 -0.12121,-0.22109 -0.18172,-0.4002c-0.056,-0.17959 -0.11343,-0.40429 -0.14622,-0.67183c-0.0345,-0.26712 -0.05096,-0.57694 -0.03086,-0.92028c0.0198,-0.34311 0.07661,-0.71929 0.17984,-1.11258c0.01182,-0.04962 0.02713,-0.09828 0.04141,-0.14792c0.01478,-0.04942 0.02881,-0.09976 0.04491,-0.14963c0.03366,-0.09901 0.06555,-0.20121 0.10489,-0.30142c0.07406,-0.20306 0.16369,-0.40547 0.2611,-0.60987c0.09839,-0.20384 0.20916,-0.40625 0.32805,-0.60866c0.12015,-0.20129 0.25001,-0.40093 0.38763,-0.59886c0.27658,-0.39438 0.58556,-0.77941 0.91476,-1.15265c0.32889,-0.37391 0.66147,-0.7196 0.98322,-1.04502c0.32194,-0.32539 0.63372,-0.63011 0.92512,-0.9193c0.2921,-0.28896 0.56305,-0.56246 0.8085,-0.82186c0.24444,-0.25964 0.46474,-0.50445 0.65358,-0.73475c0.1897,-0.22994 0.35104,-0.44411 0.48644,-0.63784c0.13566,-0.19359 0.24508,-0.36674 0.33838,-0.51089c0.18194,-0.28893 0.30052,-0.46332 0.39768,-0.44484c0.04701,0.00913 0.08252,0.06594 0.10595,0.17024c0.02285,0.10405 0.02845,0.25449 0.00974,0.44615c-0.02103,0.19048 -0.06796,0.42174 -0.15277,0.67981c-0.08436,0.2581 -0.20625,0.54239 -0.3654,0.84006c-0.15845,0.29842 -0.35596,0.60738 -0.58209,0.92352c-0.22666,0.31534 -0.48303,0.63683 -0.75964,0.9609c-0.55247,0.64982 -1.18681,1.31188 -1.8048,2.0127c-0.30915,0.35045 -0.59721,0.69552 -0.8575,1.03603c-0.12919,0.17063 -0.25203,0.33981 -0.36705,0.50775c-0.11346,0.16853 -0.22123,0.33496 -0.31909,0.50042c-0.09674,0.16579 -0.18906,0.32872 -0.26877,0.49084c-0.04239,0.08028 -0.07781,0.16148 -0.11631,0.24055c-0.01845,0.03976 -0.035,0.07974 -0.05258,0.11914c-0.01711,0.03954 -0.03553,0.0784 -0.05057,0.11785c-0.12933,0.31326 -0.22792,0.6146 -0.30223,0.89681c-0.1484,0.56468 -0.20359,1.05011 -0.25631,1.39544c-0.02369,0.17265 -0.05107,0.311 -0.08022,0.40788c-0.0308,0.09702 -0.06947,0.1533 -0.11668,0.16148c-0.04738,0.00823 -0.10111,-0.03214 -0.16041,-0.11917z" data-paper-data="{&quot;index&quot;:null}" fill="#c49a6c"/><path d="M173.15551,207.47489c-0.04796,-0.00319 -0.09198,-0.03898 -0.13157,-0.10744c-0.02002,-0.03422 -0.03856,-0.07655 -0.05362,-0.12664c-0.01551,-0.05015 -0.03058,-0.1085 -0.03993,-0.17396c-0.00507,-0.03279 -0.00983,-0.06756 -0.01383,-0.10422c-0.00291,-0.03637 -0.00529,-0.07468 -0.00711,-0.11483c-0.0023,-0.04029 -0.0023,-0.08196 -0.00134,-0.12536c0.00109,-0.04332 0.0012,-0.08901 0.00535,-0.1353c0.01179,-0.18679 0.04519,-0.39813 0.1052,-0.62555c0.11936,-0.45466 0.34961,-0.97168 0.68947,-1.47773c0.33799,-0.50803 0.78081,-1.00559 1.29254,-1.45886c0.51195,-0.45388 1.0418,-0.82345 1.54213,-1.12017c0.50086,-0.29646 0.9732,-0.51993 1.38202,-0.6778c0.40888,-0.158 0.75463,-0.25015 1.00668,-0.28207c0.25242,-0.03164 0.4107,-0.00316 0.45114,0.08378c0.04054,0.08711 -0.03931,0.22397 -0.2112,0.40146c-0.17184,0.17786 -0.43613,0.39684 -0.76429,0.65386c-0.32819,0.25687 -0.72052,0.55154 -1.1459,0.88194c-0.42501,0.3306 -0.88357,0.69675 -1.3375,1.09931c-0.4541,0.40236 -0.85826,0.80422 -1.19255,1.19028c-0.3362,0.38525 -0.60038,0.75494 -0.80377,1.08175c-0.20381,0.32665 -0.34527,0.61163 -0.4627,0.81609c-0.11651,0.20412 -0.21193,0.32771 -0.3092,0.32144z" data-paper-data="{&quot;index&quot;:null}" fill="#c49a6c"/><path d="M231.84083,157.69229c0.01921,-0.04197 0.0483,-0.08697 0.0859,-0.13692c0.0189,-0.02478 0.0394,-0.05183 0.063,-0.07818c0.0236,-0.02635 0.04934,-0.05384 0.07722,-0.0824c0.22252,-0.22778 0.60054,-0.49484 1.10617,-0.72786c0.50473,-0.23517 1.13249,-0.43254 1.83061,-0.57876c0.69849,-0.1475 1.46695,-0.24413 2.26304,-0.31164c0.79629,-0.06742 1.54518,-0.10273 2.21514,-0.14232c0.33533,-0.01912 0.65024,-0.04012 0.94259,-0.06311c0.29196,-0.0236 0.56039,-0.05068 0.80282,-0.08089c0.24186,-0.03102 0.4573,-0.06574 0.64506,-0.1017c0.18785,-0.03576 0.3479,-0.07308 0.48202,-0.10478c0.26824,-0.06143 0.43733,-0.10489 0.50445,-0.03139c0.03184,0.03576 0.03209,0.09674 -0.00235,0.18444c-0.01803,0.04259 -0.04536,0.09072 -0.08204,0.14431c-0.03786,0.05116 -0.08425,0.1099 -0.14249,0.16736c-0.11528,0.11746 -0.27292,0.24248 -0.46816,0.36095c-0.1951,0.11878 -0.4272,0.23136 -0.68807,0.33233c-0.26079,0.10004 -0.55023,0.18939 -0.86108,0.26684c-0.31069,0.07678 -0.64322,0.14336 -0.99103,0.1993c-0.69619,0.1132 -1.4548,0.18796 -2.23899,0.25449c-0.7842,0.06644 -1.52043,0.12141 -2.17944,0.19141c-0.65923,0.06894 -1.24127,0.15204 -1.72278,0.24671c-0.4821,0.09302 -0.8654,0.19522 -1.14338,0.26233c-0.27759,0.06633 -0.4562,0.09075 -0.51428,0.01212c-0.02839,-0.03881 -0.0231,-0.09982 0.01607,-0.18264z" data-paper-data="{&quot;index&quot;:null}" fill="#c49a6c"/><path d="M212.70644,209.97042c-0.01338,-0.03349 -0.02456,-0.07288 -0.0336,-0.11757c-0.00454,-0.02237 -0.00851,-0.04606 -0.01196,-0.07101c-0.00423,-0.02528 -0.00829,-0.052 -0.01173,-0.07988c-0.00694,-0.05583 -0.01204,-0.11662 -0.01529,-0.18194c-0.00465,-0.06591 -0.00935,-0.13714 -0.01148,-0.21227c-0.00109,-0.07473 -0.00627,-0.15596 -0.00773,-0.24032c-0.00129,-0.04242 -0.00067,-0.08523 -0.00249,-0.13006c-0.00118,-0.04455 -0.00241,-0.09027 -0.00367,-0.13712c-0.00815,-0.37363 -0.01582,-0.81522 -0.03349,-1.309c-0.01708,-0.49358 -0.03945,-1.03799 -0.06572,-1.61417c-0.05186,-1.15186 -0.09414,-2.212 -0.05499,-2.99695c0.01915,-0.39214 0.05824,-0.71526 0.11987,-0.9424c0.06146,-0.22753 0.14493,-0.35608 0.24049,-0.36229c0.09601,-0.00627 0.19471,0.10483 0.2982,0.30943c0.1034,0.20502 0.2126,0.50621 0.31867,0.88544c0.21084,0.75757 0.41222,1.83025 0.46718,3.04536c0.02766,0.60701 0.01168,1.19188 -0.04315,1.72396c-0.0541,0.532 -0.15218,1.01172 -0.27446,1.4058c-0.01579,0.04908 -0.03122,0.09702 -0.04626,0.14372c-0.01518,0.04651 -0.03326,0.0917 -0.04964,0.13541c-0.03399,0.08742 -0.06535,0.16906 -0.10217,0.24441c-0.03576,0.07535 -0.06986,0.14456 -0.10494,0.20717c-0.03662,0.06247 -0.07221,0.11841 -0.10657,0.16764c-0.01722,0.02461 -0.03399,0.04754 -0.05071,0.06871c-0.01758,0.02106 -0.03478,0.04038 -0.05155,0.05796c-0.03357,0.03517 -0.06549,0.06339 -0.09565,0.08453c-0.06034,0.04231 -0.11357,0.05625 -0.15901,0.04108c-0.04561,-0.0152 -0.08134,-0.05869 -0.10816,-0.12564z" data-paper-data="{&quot;index&quot;:null}" fill="#996b39"/><path d="M205.385,238.88353c-3.27698,-10.32298 -2.4584,-18.51836 1.80253,-20.4834c4.26096,-1.96792 6.28258,-9.06758 5.84576,-11.58122c-5.29586,-8.9616 -5.70721,-22.89944 2.22519,-29.37855c-7.28067,10.97051 0.59511,22.31844 0.01411,31.34505c-0.65593,10.16042 -9.83382,11.63492 -9.83382,16.38784c0.46651,13.96898 5.1954,23.22748 10.70748,23.05355c-2.48388,0.95284 -7.65243,0.4482 -10.76124,-9.34326z" data-paper-data="{&quot;index&quot;:null}" fill-opacity="0.5" fill="#996b39"/></g></g></svg>