<svg width="140" height="137.967" xmlns="http://www.w3.org/2000/svg"><path fill="#f1cca1" d="M90.358 64.938c-.164-9.996 7.815-18.038 15.022-14.584 15.732 7.538 12.672 23.926 23.16 26.22 10.49 2.295 15.296 13.22 7.867 18.136 2.622 9.723-5.408 9.887-10.98 5.298.274 7.265-16.387 2.459-18.026-12.455-1.64-14.912-8.685-28.732-15.569-19.064"/><path fill="#c49a6c" fill-opacity=".3" d="M136.746 81.057c1.674 4.244.681 10.82-2.851 11.14 3.605 2.732.436 9.505-10.16 2.076-.657 8.413-11.582.545-13.33-6.556-1.748-7.1-5.681-22.177-12.782-24.8-2.973-1.098-5.838-4.551-4.024-8.564-2.028 2.778-3.308 6.52-3.241 10.585l1.474 3.551c6.884-9.668 13.93 4.152 15.57 19.064 1.638 14.914 18.299 19.72 18.026 12.455 5.571 4.59 13.601 4.425 10.979-5.298 5.01-3.316 4.45-9.362.34-13.653z"/><path fill="#f1cca1" d="M42.834 14.792c9.668-.655 6.882 19.01 15.732 19.993 8.848.984 20.266-1.692 17.37 11.144 6.392 1.31 6.392 9.505 3.933 11.307 4.753.492 8.358 5.573-.656 7.702-9.012 2.13-33.758 3.278-35.56-4.424-1.803-7.701-11.471-37.036-.82-45.722z"/><g fill="#c49a6c" fill-opacity=".3"><path d="M66.361 66.45c-2.878-.563-6.199-1.744-9.926-3.86-12.891-7.32-11.034-26.766-11.69-34.633-.572-6.877 1.526-10.497 4.107-9.253-1.312-2.443-3.093-4.11-6.018-3.912-8.125 6.625-4.43 25.252-1.418 37.141 4.578 4.993 9.782 10.303 13.846 14.188 3.493.402 7.377.474 11.1.328zM79.87 57.236c2.458-1.802 2.458-9.996-3.934-11.307 1.324-5.868-.347-8.49-3.394-9.706 1.04 2.64 1.182 6-.592 9.105 8.083 1.31 7.865 10.926 2.73 11.69 3.715.328 5.572 4.698 4.152 6.884-.297.456-.891.987-1.756 1.47a38.704 38.704 0 002.137-.434c9.014-2.129 5.41-7.21.656-7.702z"/></g><path fill="#c49a6c" d="M15.466 21.183C8.092 13.481 4.323 2.337 10.222.207c5.9-2.13 10.16 12.782 9.833 17.863M27.1 85.75c-3.604 6.72-12.454 18.847-11.798 23.108.656 4.261 11.308 16.879 12.127 22.451 2.13 7.702 8.85-4.26 7.21-8.357-1.639-4.097-7.866-13.603-6.882-15.242.982-1.638 8.85-13.273 8.85-13.273M69.873 98.042c.164 10.488 10.488 17.044 9.34 22.287-2.13 8.85-5.571 13.602-4.587 15.405.982 1.803 7.866 2.457 10.324-2.13 2.459-4.589 7.702-17.372 6.228-25.566-1.476-8.194-15.242-14.421-21.305-9.996z"/><path fill="#996b39" fill-opacity=".5" d="M27.1 85.75c-3.604 6.72-12.454 18.847-11.798 23.108.656 4.261 11.308 16.879 12.127 22.451 2.13 7.702 8.85-4.26 7.21-8.357-1.639-4.097-7.866-13.603-6.882-15.242.982-1.638 8.85-13.273 8.85-13.273M69.873 98.042c.164 10.488 10.488 17.044 9.34 22.287-2.13 8.85-5.571 13.602-4.587 15.405.982 1.803 7.866 2.457 10.324-2.13 2.459-4.589 7.702-17.372 6.228-25.566-1.476-8.194-15.242-14.421-21.305-9.996z"/><path fill="#c49a6c" d="M32.674 15.448c-15.346-2.39-22.452 5.735-22.78 11.635-.328 5.9-2.95 12.783-7.866 17.698C-2.889 49.698.88 64.284 16.122 58.056c5.243-2.294 8.194-3.769 10.488-3.44 1.639 14.583-12.127 28.35 3.113 41.131 15.24 12.783 42.936 5.9 48.344 3.443 3.44 13.273 19.338 12.127 18.518 20.811-2.13 11.963-5.407 15.897-3.113 17.044 2.293 1.146 7.866 1.146 11.143-9.178 3.277-10.323 2.458-18.518-1.803-20.483-4.26-1.968-6.282-9.068-5.845-11.582 6.391-10.816 5.682-28.896-8.248-32.338-13.93-3.441-34.414.655-37.693-9.013-3.276-9.67 1.64-35.89-18.352-39.003z"/><path fill="#996b39" fill-opacity=".5" d="M33.2 15.553c-.179-.033-.344-.077-.526-.105-6.844-1.066-12.045-.038-15.74 1.95-1.82 1.142-3.491 2.524-4.867 4.115-1.36 1.828-2.074 3.798-2.173 5.57a24.875 24.875 0 01-.19 1.927c3.917 1.692 10.602-3.299 12.016-6.871 2.52 4.173 11.236.402 11.48-6.586z"/><path fill="#f1cca1" d="M76.701 93.836s-10.324 3.113-25.072 3.933c-24.91-1.475-20.977-20.32-22.288-23.762-1.1-2.891-4.4-2.542-6.496 3.083-1.04 6.426-.284 12.65 6.878 18.657 15.063 12.635 42.282 6.06 48.132 3.532-.163-1.458-.51-3.28-1.154-5.443z"/><path fill="#c49a6c" fill-opacity=".3" d="M75.313 94.218c-1.312 1.635-3.233 3.49-5.658 4.316-3.513 1.197-11.952 2.964-17.872-.774-.052.002-.103.006-.154.009-2.395-.142-4.52-.445-6.412-.88-13.259-.33-20.508-7.9-22.684-13.888.355 4.349 2.246 8.6 7.19 12.746 15.063 12.635 42.282 6.06 48.132 3.532-.163-1.458-.51-3.28-1.154-5.443 0 0-.483.146-1.388.382z"/><path fill="#f1cca1" d="M16.122 58.056c.663-.291 1.286-.56 1.876-.809 1.044-10.594-6.46-17.018-12.467-16.87a25.703 25.703 0 01-3.503 4.404C-2.889 49.698.88 64.284 16.122 58.056z"/><path fill="#2e1f10" d="M19.028 36.029c-.372 1.211-.02 2.395.79 2.642.806.249 1.763-.531 2.135-1.743.372-1.21.02-2.393-.787-2.642-.807-.25-1.764.531-2.138 1.743z"/><path fill="#c49a6c" d="M35.787 90.832c3.277 12.619 7.866 34.25 3.44 44.738-1.146 2.785 7.212 3.933 11.964-.984 3.606-13.273 1.147-30.971-1.967-39.493-3.113-8.522-15.404-10.16-13.437-4.261z"/><path fill="#f1cca1" d="M33.492 10.203C27.921 2.174 19.727 2.174 12.19 4.96c-7.54 2.786-.984 5.899 2.785 4.588-12.127 8.03-10.815 14.422-5.08 17.535C15.63 30.197 20.71 20.2 20.71 20.2c-.982 7.046 8.522.818 11.965-4.753 3.44-5.572.818-5.245.818-5.245z"/><path fill="#c49a6c" fill-opacity=".3" d="M32.674 15.448C29.23 21.019 19.727 27.247 20.709 20.2c0 0-5.08 9.996-10.815 6.882-5.662-3.074-7.003-9.342 4.627-17.226-11.104 8.075-7.218 22.033 8.047 7.176-.882 5.093 8.51.432 9.987-8.07.32.392.633.802.937 1.24 0 0 2.623-.327-.818 5.245zm-17.73-5.891a22.212 22.212 0 012.27-1.374c-4.734.848-6.767-.91-5.814-2.907-6.236 2.692-.088 5.518 3.544 4.281z"/><path fill="#c49a6c" d="M33.656 22.822C28.249 17.25 35.623 1.846 43.652.37c8.03-1.475 2.459 17.043-3.44 20.812"/><path fill="#f1cca1" d="M78.614 68.325c0 .875-1.322 1.585-2.95 1.585-1.63 0-2.951-.71-2.951-1.585s1.322-1.583 2.95-1.583c1.629 0 2.95.708 2.95 1.583zM87.79 66.796c0 .875-1.32 1.584-2.95 1.584-1.629 0-2.95-.71-2.95-1.584 0-.875 1.321-1.584 2.95-1.584 1.63 0 2.95.709 2.95 1.584zM89.976 73.898c0 .874-1.32 1.584-2.95 1.584-1.63 0-2.95-.71-2.95-1.584 0-.875 1.32-1.585 2.95-1.585 1.63 0 2.95.71 2.95 1.585z"/><path fill="#996b39" d="M10.222 51.556c-.047.012-.1-.001-.156-.038a.94.94 0 01-.187-.175 7.238 7.238 0 01-.475-.67c-.185-.279-.399-.603-.652-.93a6.308 6.308 0 00-.41-.481 3.337 3.337 0 00-.462-.409 1.665 1.665 0 00-.224-.136.788.788 0 00-.17-.064l-.015-.004a.091.091 0 01-.013-.002l-.006-.002h-.005a.054.054 0 01-.01-.002c-.01 0-.02-.005-.025-.005-.012-.004-.022-.007-.049.006a.301.301 0 00-.096.092 1.06 1.06 0 00-.1.177c-.06.137-.107.292-.145.442-.074.302-.121.578-.18.774-.015.049-.031.093-.048.133a.609.609 0 01-.051.102c-.037.057-.08.091-.127.099-.047.008-.098-.011-.15-.056a.59.59 0 01-.081-.087 1.116 1.116 0 01-.081-.125 2.435 2.435 0 01-.264-.881c-.023-.2-.03-.428.011-.69a2 2 0 01.117-.423 1.533 1.533 0 01.34-.517l.06-.054c.039-.036.084-.069.13-.1.022-.017.047-.031.071-.046.025-.014.05-.03.075-.042.052-.024.105-.05.16-.068a1.43 1.43 0 01.417-.08l.042-.002h.04l.081.003.079.007c.209.023.396.08.564.155.168.074.319.163.458.262.278.198.495.42.682.646.184.226.336.455.46.68.25.452.398.882.484 1.25.085.367.106.673.085.89a.782.782 0 01-.06.258c-.03.062-.068.1-.114.113zM12.079 53.413c.095 0 .188.132.265.376.077.244.138.6.155 1.046a6.81 6.81 0 01-.127 1.578c-.06.297-.143.609-.26.927a5.11 5.11 0 01-.47.962c-.2.317-.443.61-.723.856a3.143 3.143 0 01-1.4.722c-.16.035-.315.056-.465.066-.299.017-.572-.006-.81-.055a2.757 2.757 0 01-1.03-.42.952.952 0 01-.228-.213c-.045-.064-.06-.119-.042-.164.017-.045.064-.078.137-.1.072-.021.17-.034.29-.04.12-.008.262-.01.42-.014.16-.005.334-.012.52-.03a3.036 3.036 0 00.866-.203 2.474 2.474 0 00.817-.55c.17-.168.328-.37.473-.599.29-.46.5-.978.665-1.469.164-.491.284-.958.39-1.355.103-.398.192-.728.281-.959.089-.23.18-.362.276-.362zM26.446 54.615c-.01-.047.039-.107.14-.177.051-.035.116-.073.192-.113.077-.041.165-.085.265-.132.2-.094.446-.202.73-.324.282-.124.603-.26.95-.422.348-.16.723-.342 1.114-.552a13.78 13.78 0 001.205-.721l.076-.051.076-.054.153-.107c.1-.075.203-.148.302-.227.102-.077.2-.16.3-.24l.148-.127c.05-.042.097-.087.146-.13a8.545 8.545 0 001.087-1.186c.33-.44.61-.9.837-1.37.227-.469.408-.944.55-1.41.283-.934.418-1.827.508-2.585.044-.38.076-.727.105-1.034.028-.307.052-.574.079-.793.053-.44.117-.69.213-.7.095-.009.213.224.327.663.057.22.112.49.158.808a11.478 11.478 0 01.08 2.428 10.211 10.211 0 01-.232 1.54c-.124.54-.304 1.1-.553 1.658a8.372 8.372 0 01-1.584 2.366 8.95 8.95 0 01-.677.638c-.058.049-.115.1-.174.146l-.176.139c-.119.089-.236.178-.356.26-.118.084-.24.162-.358.239-.06.038-.12.074-.18.11l-.088.055-.09.052c-.477.275-.947.499-1.395.679-.448.18-.873.32-1.264.43a9.674 9.674 0 01-1.882.346c-.114.007-.215.01-.303.01a1.902 1.902 0 01-.225-.016c-.124-.017-.194-.05-.204-.096zM38.572 103.45c-.373.087-1.414-3.02-2.308-6.942-.447-1.962-.772-3.756-.935-5.071-.164-1.315-.167-2.15.02-2.19.189-.04.531.718.94 1.976.408 1.258.884 3.016 1.33 4.976.894 3.92 1.328 7.165.953 7.252zM52.092 106.728c-.376.076-1.17-2.33-1.774-5.372-.604-3.042-.787-5.566-.41-5.636.378-.07 1.173 2.335 1.775 5.372.603 3.036.786 5.56.409 5.636zM80.252 104.325c-.036.031-.114.012-.233-.058a2.402 2.402 0 01-.444-.38c-.35-.362-.775-.954-1.189-1.735-.415-.78-.825-1.744-1.193-2.838a31.59 31.59 0 01-.97-3.615c-.544-2.596-.748-4.996-.73-6.736.004-.435.021-.83.048-1.175.028-.346.066-.643.108-.885.086-.484.192-.746.287-.742.097.004.174.271.254.745.041.237.082.526.129.86l.155 1.135c.116.84.26 1.837.443 2.94s.403 2.312.666 3.573c.264 1.261.547 2.454.836 3.527.289 1.074.586 2.026.866 2.812.279.787.546 1.402.737 1.83.094.215.172.381.214.506.044.122.052.204.016.236z"/><path fill="#c5683e" d="M28.304 43.852c0 2.234-2.067 4.044-4.617 4.044s-4.616-1.81-4.616-4.044c0-2.232 2.067-4.041 4.616-4.041 2.55 0 4.617 1.81 4.617 4.041z"/><path fill="#996b39" d="M34.693 19.982c-.093-.013-.152-.291-.15-.787.001-.496.066-1.209.234-2.076.167-.867.44-1.886.844-2.983.402-1.098.936-2.271 1.603-3.445 1.336-2.347 2.949-4.243 4.409-5.327.365-.27.72-.49 1.059-.648.337-.158.66-.254.944-.275.07-.006.139-.005.203-.002.065.005.125.012.181.026a.761.761 0 01.268.112c.13.093.156.181.13.218-.028.041-.107.037-.218.048-.11.01-.258.04-.446.126a3.5 3.5 0 00-.665.416 8.572 8.572 0 00-.817.727c-.583.58-1.227 1.34-1.882 2.233a31.39 31.39 0 00-1.957 3.034 35.14 35.14 0 00-1.623 3.235 38.151 38.151 0 00-1.083 2.76c-.28.8-.487 1.458-.651 1.914-.164.455-.286.707-.383.694z"/><path fill="#996b39" fill-opacity=".5" d="M47.45 42.133c.513 6.566 1.315 11.91 5.421 15.192a7.089 7.089 0 01-1.845-2.874c-2.632-7.767.012-26.203-9.204-34.775-1.01.825-1.912 1.645-1.912 1.645 2.95 2.13 6.72 10.324 7.54 20.812zM46.566 137.41c1.632-.52 3.274-1.425 4.624-2.824 3.164-11.643 1.66-26.69-.86-35.963 1.1 12.95-.95 31.28-3.764 38.787zM35.077 48.441c-1.675 3.94-5.596 5.57-8.461 6.245.424 3.886-.242 7.714-1.155 11.483 4.422-4.842 9.213-11.558 9.616-17.728z"/><g><path fill="#c49a6c" d="M125.372 100.5c-.047-.008-.086-.064-.117-.161a2.836 2.836 0 01-.08-.408c-.052-.346-.108-.831-.256-1.396a7.069 7.069 0 00-.302-.897c-.015-.039-.034-.078-.05-.117l-.053-.12c-.039-.079-.074-.16-.117-.24a7.927 7.927 0 00-.269-.49 10.215 10.215 0 00-.686-1.01c-.26-.34-.548-.685-.857-1.035-.618-.7-1.252-1.363-1.805-2.013a14.809 14.809 0 01-.76-.96 8.309 8.309 0 01-.582-.924 5.292 5.292 0 01-.365-.84 3.397 3.397 0 01-.153-.68 1.504 1.504 0 01.01-.446c.023-.105.059-.161.106-.17.097-.019.216.155.398.444.093.145.202.318.338.511.135.194.297.408.486.638.19.23.41.475.654.735.245.26.516.533.808.822.292.289.604.594.926.919.321.325.654.671.983 1.045.329.373.638.758.915 1.153a8.516 8.516 0 01.716 1.208c.097.204.186.406.26.61.04.1.072.201.105.3l.045.15c.014.05.03.098.042.148.103.393.16.77.18 1.113.02.343.003.653-.031.92-.033.267-.09.492-.147.672-.06.179-.12.313-.181.4-.06.087-.113.127-.16.12z"/></g><g><path fill="#c49a6c" d="M136.844 96.458c-.097.007-.192-.117-.309-.321-.117-.205-.259-.49-.462-.816a8.41 8.41 0 00-.804-1.082 12.934 12.934 0 00-1.193-1.19 26.823 26.823 0 00-1.337-1.1c-.426-.33-.818-.625-1.146-.881a8.008 8.008 0 01-.764-.654c-.172-.178-.252-.315-.212-.402.04-.087.2-.115.452-.084a4.54 4.54 0 011.006.283A10.07 10.07 0 01135 92.009c.512.453.955.95 1.293 1.458.34.506.57 1.023.69 1.478.06.228.093.439.105.626.004.046.004.092.005.135l-.001.125-.008.115a2.356 2.356 0 01-.013.104c-.01.066-.025.124-.04.174a.586.586 0 01-.054.127c-.04.068-.084.104-.132.107z"/></g><g><path fill="#c49a6c" d="M78.175 46.858c-.058.079-.236.055-.514-.012s-.661-.169-1.143-.262a19.827 19.827 0 00-1.723-.247c-.66-.07-1.395-.125-2.18-.191a30.044 30.044 0 01-2.239-.255c-.347-.056-.68-.122-.99-.199a7.44 7.44 0 01-.862-.267 4.357 4.357 0 01-.688-.332 2.418 2.418 0 01-.468-.361 1.405 1.405 0 01-.142-.167.849.849 0 01-.082-.145c-.035-.087-.035-.148-.003-.184.067-.074.236-.03.505.031a10.658 10.658 0 001.127.206c.242.03.51.058.803.082.292.023.607.044.942.063.67.04 1.419.075 2.215.142.796.068 1.565.164 2.263.312.698.146 1.326.343 1.83.578.507.233.885.5 1.107.728.028.029.054.056.077.083.024.026.044.053.063.078.038.05.067.095.086.137.04.083.045.144.016.182z"/></g><g><path fill="#996b39" d="M97.185 99.08c-.045.015-.098 0-.159-.042a.657.657 0 01-.095-.084 1.179 1.179 0 01-.103-.127 2.53 2.53 0 01-.106-.167 3.482 3.482 0 01-.105-.208c-.037-.075-.068-.157-.102-.244-.017-.044-.035-.089-.05-.135l-.046-.144a7.314 7.314 0 01-.275-1.406 11.758 11.758 0 01-.043-1.724c.055-1.215.257-2.288.467-3.045.107-.38.216-.68.32-.886.103-.204.201-.315.297-.31.096.007.18.136.24.363.062.227.102.55.12.943.04.785-.002 1.845-.054 2.997-.027.576-.049 1.12-.066 1.614-.018.494-.025.935-.033 1.309l-.004.137c-.002.045-.001.087-.003.13-.001.084-.006.166-.007.24a4.994 4.994 0 01-.039.474.686.686 0 01-.046.189c-.026.067-.062.11-.108.126z"/></g><path fill="#996b39" fill-opacity=".5" d="M104.615 127.867c3.277-10.323 2.458-18.518-1.803-20.483-4.26-1.968-6.282-9.068-5.845-11.582 5.296-8.961 5.707-22.899-2.225-29.378 7.28 10.97-.596 22.318-.015 31.345.656 10.16 9.834 11.635 9.834 16.388-.466 13.969-5.195 23.227-10.707 23.053 2.484.953 7.652.448 10.761-9.343z"/></svg>