<svg width="81.243" height="140" xmlns="http://www.w3.org/2000/svg"><defs><clipPath clipPathUnits="userSpaceOnUse" id="prefix__a"><path d="M0 1200h1200V0H0z"/></clipPath></defs><g clip-path="url(#prefix__a)" transform="matrix(.15657 0 0 -.15657 -54.686 167.646)"><path d="M608.729 176.574c142.899 0 259.449 25.006 259.449 55.662 0 30.662-116.55 55.667-259.45 55.667-142.9 0-259.45-25.005-259.45-55.667 0-30.656 116.55-55.662 259.45-55.662" fill="#a7bf1c" fill-rule="evenodd"/><path d="M803.781 268.935c11.375-2.779 21.486-5.804 30.125-9.032-34.98-12.346-69.727-25.533-105.832-33.798-27.049-6.19-55.348-4.09-83.022-6.132 2.274-12.036-2.445-19.222-8.37-25.58-15.296 18.905-30.587 37.81-45.878 56.711l65.57-7.075c51.005.59 99.884 9.956 147.407 24.906" fill="#94ab13" fill-rule="evenodd"/><path d="M599.738 779.998c46.12-224.783-34.94-298.653-14.734-470.105 3.153-26.768 21.955-47.645 48.244-53.58 28.459-6.424 58.262-10.598 88.498-14.053-28.615-3.845-60.47-6.597-88.96-1.541-3.51.623-6.86-.84-8.792-3.84-1.927-2.997-1.871-6.651.15-9.588 5.866-8.528 10.837-17.418 14.214-27.268.716-2.076.058-4.281-1.676-5.63-1.736-1.348-4.033-1.44-5.873-.235-13.936 9.135-26.612 20.99-38.521 34.49-3.03 3.434-6.865 5.308-11.434 5.585-4.57.276-8.602-1.121-12.023-4.165-5.037-4.481-10.605-8.454-16.68-11.941-1.907-1.096-4.195-.866-5.851.584-1.652 1.455-2.173 3.698-1.33 5.73a102.827 102.827 0 005.16 10.682c1.315 2.37 1.069 5.154-.644 7.254-1.711 2.104-4.386 2.906-6.975 2.094-35.892-11.252-70.443-13.93-104.73-14.922 31.984 5.574 62.585 13.897 91.306 25.987 15.478 6.518 24.33 22.088 22.02 38.725-25.41 183.085 59.899 253.62 13.74 478.606z" fill="#963" fill-rule="evenodd"/><path d="M606.896 739.89c6.963-46.149 8.305-85.564 6.566-121l-25.496 27.525-9.223-10.374c.45 31.8-1.805 66.92-8.42 107.198z" fill="#75491d" fill-rule="evenodd"/><path d="M518.246 878.778c-25.496-20.211-48.278-30.85-75.531-19.827-27.254 11.025-52.753 41.186-57.031 73.443 25.502 20.214 64.8 24.17 92.054 13.15 27.253-11.025 36.233-34.506 40.508-66.766" fill="#5f992c" fill-rule="evenodd"/><path d="M511.238 881.616c-13.916 3.888-35.896 11.65-60.27 21.507-24.371 9.858-45.568 19.56-58.276 26.439 13.918-3.893 35.899-11.651 60.27-21.51 24.374-9.858 45.567-19.56 58.276-26.436" fill="#7cb54b" fill-rule="evenodd"/><path d="M611.79 779.703c31.53-8.027 53.802-19.698 61.554-48.057 7.756-28.355-.78-66.92-23.84-89.874-31.539 8.026-58.504 36.885-66.257 65.243-7.752 28.357 5.481 49.732 28.542 72.688" fill="#5f992c" fill-rule="evenodd"/><path d="M613.783 772.409c5.34-13.424 12.492-35.612 19.428-60.971 6.933-25.361 12.062-48.1 14.295-62.375-5.34 13.427-12.493 35.614-19.424 60.972-6.936 25.36-12.065 48.097-14.299 62.374" fill="#7cb54b" fill-rule="evenodd"/><path d="M599.185 854.163c28.346-15.976 46.801-33.052 46.885-62.451.086-29.398-18.215-64.403-46.467-80.544-28.347 15.979-46.85 50.873-46.937 80.273-.085 29.397 18.268 46.58 46.52 62.722" fill="#3a6b10" fill-rule="evenodd"/><path d="M599.207 846.605c1.652-14.357 2.77-37.64 2.848-63.933.073-26.288-.904-49.577-2.473-63.943-1.655 14.355-2.771 37.64-2.847 63.929-.077 26.289.903 49.58 2.472 63.947" fill="#5f992c" fill-rule="evenodd"/><path d="M650.58 694.64c-15.355 2.142-29.377 13.754-34.943 30.766-5.565 17.013-1.112 34.667 10.01 45.47 3.681 3.576 6.267 7.205 8.451 11.85.851 1.817 1.996 3.02 3.437 3.491 1.44.47 3.074.178 4.836-.783 4.504-2.46 8.734-3.857 13.818-4.57 15.356-2.144 29.377-13.756 34.94-30.767 5.564-17.014 1.115-34.67-10.008-45.47-3.68-3.576-6.27-7.206-8.449-11.849-.854-1.819-1.996-3.023-3.438-3.493-1.439-.469-3.076-.174-4.836.79-4.502 2.456-8.734 3.854-13.818 4.564" fill="#fc0" fill-rule="evenodd"/><path d="M637.182 770.085c9.807 3.12 19.582-.086 21.832-7.162 2.248-7.076-3.875-15.344-13.682-18.461-9.808-3.117-19.582.09-21.832 7.165-2.252 7.076 3.875 15.34 13.682 18.458" fill="#ffdd30" fill-rule="evenodd"/><path d="M639.598 820.399c31.588 7.818 56.729 8.056 76.957-13.276 20.227-21.333 30.924-59.354 21.443-90.48-31.587-7.822-68.99 4.874-89.22 26.206-20.23 21.332-18.662 46.424-9.18 77.55" fill="#5f992c" fill-rule="evenodd"/><path d="M644.8 814.914c11.052-9.311 27.835-25.487 45.927-44.565 18.092-19.075 33.353-36.694 42.068-48.223-11.053 9.31-27.836 25.49-45.926 44.565-18.091 19.075-33.355 36.697-42.068 48.223" fill="#7cb54b" fill-rule="evenodd"/><path d="M672.441 846.734c27.363 17.606 51.078 25.954 77.12 12.303 26.032-13.65 48.443-46.178 49.526-78.695-27.363-17.61-66.863-17.683-92.898-4.033-26.037 13.652-32.664 37.902-33.748 70.425" fill="#3a6b10" fill-rule="evenodd"/><path d="M679.139 843.226c13.465-5.245 34.576-15.128 57.86-27.333 23.286-12.21 43.423-23.948 55.396-32.044-13.467 5.24-34.578 15.128-57.863 27.333-23.288 12.205-43.424 23.945-55.393 32.044" fill="#5f992c" fill-rule="evenodd"/><path d="M527.14 867.685c-14.097-29.329-29.932-48.856-59.26-50.858-29.334-2.002-65.453 13.98-83.4 41.12 14.093 29.33 47.706 50.068 77.035 52.07 29.333 2.003 47.677-15.192 65.625-42.332" fill="#3a6b10" fill-rule="evenodd"/><path d="M519.597 867.17c-14.214-2.587-37.376-5.216-63.606-7.01-26.23-1.787-49.535-2.328-63.972-1.698 14.216 2.583 37.38 5.215 63.606 7.005 26.234 1.791 49.535 2.331 63.972 1.702M576.957 903.384c-27.364 17.604-44.79 35.73-43.155 65.083 1.63 29.351 21.946 63.226 51.094 77.688 27.364-17.604 43.798-53.524 42.167-82.875-1.635-29.35-20.957-45.434-50.106-59.896" fill="#5f992c" fill-rule="evenodd"/><path d="M577.375 910.93c-.812 14.428-.562 37.734.896 63.986 1.459 26.25 3.799 49.443 6.205 63.693.81-14.428.564-37.739-.895-63.988-1.462-26.252-3.8-49.44-6.206-63.692" fill="#7cb54b" fill-rule="evenodd"/><path d="M614.99 944.436c-13.713 29.51-18.753 54.141-1.68 78.077 17.073 23.931 52.346 41.696 84.713 38.34 13.717-29.507 8.403-68.649-8.666-92.582-17.072-23.934-42.004-27.192-74.367-23.835" fill="#3a6b10" fill-rule="evenodd"/><path d="M619.379 950.593c7.025 12.622 19.697 32.191 34.96 53.598 15.27 21.402 29.643 39.753 39.296 50.507-7.03-12.626-19.697-32.19-34.965-53.597-15.266-21.406-29.64-39.753-39.291-50.508" fill="#5f992c" fill-rule="evenodd"/><path d="M603.81 913.743c2.769 32.422 10.642 56.297 37.353 68.582 26.707 12.28 66.148 10.165 92.564-8.836-2.766-32.422-26.83-63.744-53.54-76.026-26.707-12.284-49.963-2.721-76.377 16.28" fill="#5f992c" fill-rule="evenodd"/><path d="M610.678 916.903c12.377 7.463 33.094 18.145 56.982 29.127 23.883 10.985 45.477 19.766 59.2 24.299-12.375-7.463-33.092-18.145-56.98-29.127-23.887-10.988-45.48-19.766-59.202-24.3" fill="#7cb54b" fill-rule="evenodd"/><path d="M657.584 897.638c14.326 29.215 30.314 48.62 59.662 50.388 29.344 1.768 65.338-14.496 83.07-41.78-14.326-29.215-48.101-49.69-77.447-51.46-29.344-1.769-47.551 15.571-65.285 42.852" fill="#3a6b10" fill-rule="evenodd"/><path d="M665.129 898.095c14.238 2.47 37.418 4.917 63.662 6.502 26.246 1.581 49.553 1.938 63.984 1.194-14.238-2.472-37.421-4.92-63.662-6.505-26.246-1.58-49.552-1.937-63.984-1.19M568.072 779.304c25.055-20.765 40.176-40.85 35.03-69.795-5.145-28.942-29.383-60.133-60.053-70.992-25.055 20.766-37.057 58.397-31.91 87.343 5.148 28.942 26.26 42.584 56.933 53.444" fill="#5f992c" fill-rule="evenodd"/><path d="M566.751 771.863c-.928-14.42-3.975-37.532-8.575-63.416-4.6-25.887-9.704-48.63-13.808-62.485.928 14.419 3.975 37.529 8.574 63.413 4.602 25.889 9.708 48.628 13.81 62.488" fill="#7cb54b" fill-rule="evenodd"/><path d="M504.32 822.905c-.714-32.532-7.063-56.857-32.94-70.805-25.883-13.946-65.378-14.324-92.938 2.97.709 32.532 22.744 65.314 48.625 79.257 25.88 13.945 49.688 5.872 77.254-11.422" fill="#5f992c" fill-rule="evenodd"/><path d="M497.663 819.318c-11.876-8.23-31.878-20.2-55.023-32.671-23.143-12.472-44.137-22.598-57.546-27.993 11.879 8.23 31.879 20.2 55.022 32.674 23.148 12.47 44.145 22.594 57.547 27.99" fill="#7cb54b" fill-rule="evenodd"/><path d="M545.527 811.3c17.278-27.574 25.34-51.388 11.378-77.259-13.961-25.87-46.755-47.889-79.284-48.582-17.28 27.57-16.876 67.07-2.918 92.942 13.962 25.871 38.29 32.204 70.824 32.898" fill="#3a6b10" fill-rule="evenodd"/><path d="M541.936 804.647c-5.398-13.402-15.536-34.391-28.021-57.528-12.487-23.139-24.467-43.138-32.707-55.008 5.405 13.403 15.54 34.393 28.027 57.532 12.487 23.138 24.465 43.131 32.701 55.004" fill="#5f992c" fill-rule="evenodd"/><path d="M580.114 783.628c10.37-11.529 13.623-29.44 6.929-46.043-6.7-16.603-21.471-27.244-36.934-28.35-5.12-.365-9.434-1.477-14.094-3.627-1.824-.84-3.473-1.025-4.877-.454-1.406.565-2.468 1.842-3.197 3.713-1.864 4.782-4.198 8.574-7.632 12.39-10.368 11.524-13.623 29.438-6.927 46.038 6.698 16.602 21.466 27.244 36.932 28.35 5.117.366 9.436 1.477 14.094 3.627 1.824.841 3.474 1.026 4.88.458 1.404-.569 2.467-1.846 3.194-3.713 1.864-4.782 4.2-8.576 7.632-12.389" fill="#fc0" fill-rule="evenodd"/><path d="M538.119 787.068c9.807 3.12 19.582-.09 21.83-7.165 2.25-7.076-3.873-15.341-13.682-18.461-9.806-3.117-19.582.093-21.83 7.168-2.251 7.073 3.876 15.338 13.682 18.458" fill="#ffdd30" fill-rule="evenodd"/><path d="M767.6 839.019c-8.834-12.742-25.52-20.027-43.217-17.327-17.695 2.702-31.447 14.634-36.08 29.431-1.53 4.898-3.605 8.841-6.766 12.882-1.24 1.582-1.794 3.146-1.564 4.641.227 1.499 1.225 2.825 2.879 3.965 4.225 2.911 7.38 6.056 10.305 10.276 8.832 12.742 25.517 20.024 43.212 17.322 17.698-2.701 31.45-14.631 36.08-29.428 1.53-4.896 3.606-8.842 6.766-12.884 1.242-1.581 1.8-3.142 1.57-4.641-.23-1.498-1.228-2.825-2.884-3.964-4.223-2.912-7.377-6.059-10.301-10.273" fill="#fc0" fill-rule="evenodd"/><path d="M585.135 887.39c12.92-29.864 17.296-54.624-.412-78.094-17.705-23.467-53.444-40.28-85.709-36.057-12.917 29.86-6.56 68.845 11.145 92.314 17.705 23.47 42.71 26.06 74.976 21.836" fill="#5f992c" fill-rule="evenodd"/><path d="M580.583 881.351c-7.364-12.432-20.552-31.65-36.387-52.639-15.835-20.988-30.693-38.948-40.63-49.442 7.365 12.436 20.552 31.654 36.387 52.643 15.835 20.988 30.695 38.948 40.63 49.438" fill="#7cb54b" fill-rule="evenodd"/><path d="M576.109 857.894c18.37 26.854 36.979 43.761 66.276 41.301 29.295-2.463 62.58-23.728 76.215-53.272-18.373-26.854-54.74-42.268-84.035-39.808-29.295 2.463-44.823 22.235-58.456 51.779" fill="#5f992c" fill-rule="evenodd"/><path d="M583.64 857.261c14.446.402 37.737-.503 63.938-2.702 26.2-2.202 49.316-5.196 63.488-8.004-14.443-.402-37.738.504-63.933 2.703-26.202 2.202-49.317 5.196-63.494 8.003" fill="#7cb54b" fill-rule="evenodd"/><path d="M606 991.409c12.303-9.435 18.781-26.448 15.236-43.991-3.545-17.548-16.121-30.714-31.123-34.63-4.966-1.296-9.004-3.18-13.191-6.143-1.639-1.16-3.227-1.645-4.714-1.344-1.483.3-2.76 1.36-3.82 3.068-2.706 4.357-5.7 7.662-9.769 10.782-12.303 9.435-18.784 26.452-15.233 43.997 3.544 17.542 16.117 30.712 31.119 34.63 4.963 1.293 9.005 3.176 13.195 6.143 1.636 1.16 3.224 1.643 4.711 1.342 1.483-.301 2.76-1.361 3.82-3.068 2.706-4.358 5.697-7.66 9.769-10.786" fill="#fc0" fill-rule="evenodd"/><path d="M534.753 851.982c-.787 32.53 4.432 57.123 29.643 72.249 25.211 15.122 64.647 17.32 92.975 1.315.79-32.53-19.713-66.291-44.924-81.416-25.209-15.123-49.366-8.151-77.694 7.852" fill="#3a6b10" fill-rule="evenodd"/><path d="M541.236 855.874c11.483 8.765 30.914 21.646 53.46 35.17 22.544 13.525 43.05 24.606 56.195 30.613-11.486-8.77-30.916-21.648-53.462-35.174-22.545-13.524-43.051-24.605-56.193-30.61" fill="#5f992c" fill-rule="evenodd"/><path d="M571.61 991.798c9.809 3.117 19.58-.089 21.833-7.165 2.25-7.075-3.876-15.34-13.683-18.457-9.805-3.12-19.581.086-21.83 7.162-2.25 7.076 3.873 15.34 13.68 18.46" fill="#ffdd30" fill-rule="evenodd"/><path d="M482.682 885.667c-13.366-7.86-31.568-7.472-46.497 2.404-14.932 9.877-22.407 26.474-20.404 41.848.663 5.092.435 9.539-.738 14.535-.464 1.957-.313 3.609.522 4.87.836 1.263 2.301 2.05 4.281 2.39 5.056.872 9.238 2.404 13.661 5.003 13.365 7.862 31.568 7.474 46.496-2.402 14.933-9.876 22.407-26.473 20.406-41.85-.664-5.089-.437-9.539.737-14.533.463-1.956.312-3.609-.523-4.873-.835-1.263-2.3-2.046-4.28-2.387-5.056-.872-9.239-2.404-13.66-5.006" fill="#fc0" fill-rule="evenodd"/><path d="M443.3 954.53c9.807 3.12 19.582-.088 21.833-7.161 2.248-7.076-3.876-15.344-13.685-18.461-9.803-3.117-19.582.089-21.83 7.165-2.248 7.076 3.876 15.338 13.682 18.458" fill="#ffdd30" fill-rule="evenodd"/><path d="M551.386 944.586c-32.529.851-56.828 7.3-70.664 33.242-13.835 25.94-14.047 65.434 3.366 92.923 32.53-.85 65.213-23.024 79.048-48.963 13.836-25.942 5.66-49.716-11.75-77.202" fill="#3a6b10" fill-rule="evenodd"/><path d="M547.827 951.253c-8.18 11.913-20.061 31.968-32.438 55.161-12.373 23.2-22.406 44.24-27.744 57.67 8.182-11.916 20.064-31.968 32.438-55.164 12.376-23.199 22.406-44.236 27.744-57.667" fill="#5f992c" fill-rule="evenodd"/><path d="M561.816 890.147c-29.105-14.545-53.585-20.281-77.994-3.894-24.407 16.381-43.172 51.14-40.733 83.59 29.108 14.545 68.38 10.347 92.792-6.038 24.409-16.385 28.374-41.208 25.935-73.658" fill="#5f992c" fill-rule="evenodd"/><path d="M555.542 894.36c-12.825 6.665-32.741 18.774-54.571 33.427-21.83 14.653-40.578 28.5-51.604 37.843 12.819-6.667 32.739-18.774 54.568-33.426 21.83-14.656 40.579-28.504 51.607-37.843" fill="#7cb54b" fill-rule="evenodd"/><path d="M575.983 868.133c-2.994-15.208-15.368-28.565-32.664-33.175-17.297-4.609-34.677.818-44.845 12.522-3.366 3.876-6.843 6.661-11.357 9.096-1.77.955-2.906 2.162-3.3 3.627-.386 1.462-.005 3.078 1.058 4.785 2.703 4.361 4.336 8.507 5.325 13.541 2.995 15.214 15.368 28.571 32.665 33.177 17.297 4.607 34.676-.816 44.845-12.524 3.362-3.872 6.842-6.658 11.36-9.094 1.765-.95 2.902-2.16 3.292-3.627.39-1.46.006-3.077-1.054-4.784-2.702-4.36-4.336-8.507-5.325-13.544" fill="#fc0" fill-rule="evenodd"/><path d="M727.584 870.842c10.26 0 18.633 6.041 18.633 13.445 0 7.405-8.373 13.446-18.633 13.446-10.264 0-18.637-6.04-18.637-13.446 0-7.404 8.373-13.445 18.637-13.445M521.135 908.42c9.807 3.12 19.582-.086 21.833-7.162 2.248-7.075-3.876-15.343-13.682-18.46-9.806-3.117-19.582.09-21.833 7.165-2.248 7.075 3.876 15.34 13.682 18.457" fill="#ffdd30" fill-rule="evenodd"/></g></svg>