<?xml version="1.0" encoding="UTF-8" standalone="no"?>
<!-- Created with Inkscape (http://www.inkscape.org/) -->

<svg
   version="1.1"
   id="svg533"
   width="81.243401"
   height="140"
   viewBox="0 0 81.243401 140"
   sodipodi:docname="1680700135lemon-tree.svg"
   inkscape:version="1.2.2 (732a01da63, 2022-12-09)"
   xmlns:inkscape="http://www.inkscape.org/namespaces/inkscape"
   xmlns:sodipodi="http://sodipodi.sourceforge.net/DTD/sodipodi-0.dtd"
   xmlns="http://www.w3.org/2000/svg"
   xmlns:svg="http://www.w3.org/2000/svg">
  <defs
     id="defs537">
    <clipPath
       clipPathUnits="userSpaceOnUse"
       id="clipPath549">
      <path
         d="M 0,1200 H 1200 V 0 H 0 Z"
         id="path547" />
    </clipPath>
  </defs>
  <sodipodi:namedview
     id="namedview535"
     pagecolor="#ffffff"
     bordercolor="#000000"
     borderopacity="0.25"
     inkscape:showpageshadow="2"
     inkscape:pageopacity="0.0"
     inkscape:pagecheckerboard="0"
     inkscape:deskcolor="#d1d1d1"
     showgrid="false"
     inkscape:zoom="0.523125"
     inkscape:cx="334.52808"
     inkscape:cy="628.91278"
     inkscape:window-width="1920"
     inkscape:window-height="1017"
     inkscape:window-x="1912"
     inkscape:window-y="-8"
     inkscape:window-maximized="1"
     inkscape:current-layer="g541">
    <inkscape:page
       x="0"
       y="0"
       id="page539"
       width="81.243401"
       height="140" />
  </sodipodi:namedview>
  <g
     id="g541"
     inkscape:groupmode="layer"
     inkscape:label="Page 1"
     transform="matrix(1.3333333,0,0,-1.3333333,-465.70332,1427.6685)">
    <g
       id="g543"
       transform="matrix(0.11742639,0,0,0.11742639,308.2631,945.01693)">
      <g
         id="g545"
         clip-path="url(#clipPath549)">
        <g
           id="g551"
           transform="translate(608.7285,176.5742)">
          <path
             d="m 0,0 c 142.899,0 259.449,25.006 259.449,55.662 0,30.662 -116.55,55.667 -259.449,55.667 -142.901,0 -259.451,-25.005 -259.451,-55.667 C -259.451,25.006 -142.901,0 0,0"
             style="fill:#a7bf1c;fill-opacity:1;fill-rule:evenodd;stroke:none"
             id="path553" />
        </g>
        <g
           id="g555"
           transform="translate(803.7812,268.9355)">
          <path
             d="m 0,0 c 11.375,-2.779 21.486,-5.804 30.125,-9.032 -34.98,-12.346 -69.727,-25.533 -105.832,-33.798 -27.049,-6.191 -55.348,-4.09 -83.022,-6.133 2.274,-12.035 -2.445,-19.221 -8.371,-25.579 -15.295,18.905 -30.586,37.809 -45.877,56.711 21.854,-2.358 43.711,-4.717 65.569,-7.075 C -96.402,-24.316 -47.523,-14.95 0,0"
             style="fill:#94ab13;fill-opacity:1;fill-rule:evenodd;stroke:none"
             id="path557" />
        </g>
        <g
           id="g559"
           transform="translate(599.7378,779.9976)">
          <path
             d="m 0,0 c 46.12,-224.783 -34.94,-298.653 -14.734,-470.105 3.153,-26.768 21.955,-47.645 48.244,-53.579 28.459,-6.425 58.262,-10.599 88.498,-14.054 -28.615,-3.845 -60.469,-6.597 -88.959,-1.541 -3.51,0.623 -6.861,-0.839 -8.793,-3.84 -1.927,-2.997 -1.871,-6.651 0.151,-9.588 5.865,-8.528 10.836,-17.418 14.213,-27.268 0.716,-2.076 0.058,-4.281 -1.676,-5.629 -1.736,-1.349 -4.033,-1.441 -5.873,-0.236 -13.936,9.135 -26.612,20.991 -38.521,34.491 -3.029,3.433 -6.865,5.307 -11.434,5.584 -4.57,0.276 -8.602,-1.121 -12.023,-4.165 -5.037,-4.481 -10.605,-8.454 -16.68,-11.941 -1.907,-1.096 -4.195,-0.866 -5.851,0.584 -1.652,1.455 -2.173,3.698 -1.329,5.731 1.53,3.694 3.252,7.254 5.16,10.681 1.314,2.371 1.068,5.154 -0.645,7.254 -1.711,2.104 -4.386,2.906 -6.975,2.094 -35.892,-11.252 -70.443,-13.93 -104.729,-14.922 31.983,5.574 62.584,13.897 91.305,25.987 15.478,6.518 24.33,22.088 22.02,38.725 -25.41,183.085 59.899,253.62 13.74,478.606 z"
             style="fill:#996633;fill-opacity:1;fill-rule:evenodd;stroke:none"
             id="path561" />
        </g>
        <g
           id="g563"
           transform="translate(606.8965,739.8892)">
          <path
             d="m 0,0 c 6.963,-46.148 8.305,-85.563 6.566,-121 l -25.496,27.526 -9.223,-10.374 c 0.449,31.799 -1.805,66.92 -8.421,107.198 z"
             style="fill:#75491d;fill-opacity:1;fill-rule:evenodd;stroke:none"
             id="path565" />
        </g>
        <g
           id="g567"
           transform="translate(518.2456,878.7778)">
          <path
             d="m 0,0 c -25.496,-20.211 -48.278,-30.85 -75.531,-19.827 -27.254,11.025 -52.753,41.186 -57.031,73.443 25.502,20.214 64.8,24.17 92.054,13.151 C -13.255,55.741 -4.275,32.26 0,0"
             style="fill:#5f992c;fill-opacity:1;fill-rule:evenodd;stroke:none"
             id="path569" />
        </g>
        <g
           id="g571"
           transform="translate(511.2378,881.6157)">
          <path
             d="m 0,0 c -13.916,3.888 -35.896,11.651 -60.269,21.507 -24.372,9.858 -45.569,19.56 -58.277,26.439 13.918,-3.893 35.899,-11.651 60.271,-21.51 C -33.902,16.578 -12.709,6.876 0,0"
             style="fill:#7cb54b;fill-opacity:1;fill-rule:evenodd;stroke:none"
             id="path573" />
        </g>
        <g
           id="g575"
           transform="translate(611.7891,779.7026)">
          <path
             d="m 0,0 c 31.531,-8.027 53.803,-19.698 61.555,-48.057 7.756,-28.355 -0.78,-66.92 -23.84,-89.874 -31.539,8.026 -58.504,36.885 -66.257,65.243 C -36.294,-44.331 -23.061,-22.956 0,0"
             style="fill:#5f992c;fill-opacity:1;fill-rule:evenodd;stroke:none"
             id="path577" />
        </g>
        <g
           id="g579"
           transform="translate(613.7832,772.4087)">
          <path
             d="m 0,0 c 5.34,-13.424 12.492,-35.612 19.428,-60.971 6.933,-25.361 12.062,-48.1 14.295,-62.375 -5.34,13.427 -12.493,35.614 -19.424,60.972 C 7.363,-37.013 2.234,-14.277 0,0"
             style="fill:#7cb54b;fill-opacity:1;fill-rule:evenodd;stroke:none"
             id="path581" />
        </g>
        <g
           id="g583"
           transform="translate(599.1851,854.1626)">
          <path
             d="m 0,0 c 28.346,-15.976 46.801,-33.052 46.885,-62.451 0.086,-29.398 -18.215,-64.403 -46.467,-80.544 -28.347,15.979 -46.85,50.873 -46.937,80.273 C -46.604,-33.325 -28.251,-16.142 0,0"
             style="fill:#3a6b10;fill-opacity:1;fill-rule:evenodd;stroke:none"
             id="path585" />
        </g>
        <g
           id="g587"
           transform="translate(599.2065,846.605)">
          <path
             d="m 0,0 c 1.652,-14.357 2.77,-37.64 2.848,-63.933 0.073,-26.288 -0.904,-49.577 -2.473,-63.943 -1.655,14.355 -2.771,37.64 -2.847,63.929 C -2.549,-37.658 -1.569,-14.367 0,0"
             style="fill:#5f992c;fill-opacity:1;fill-rule:evenodd;stroke:none"
             id="path589" />
        </g>
        <g
           id="g591"
           transform="translate(650.5801,694.6392)">
          <path
             d="m 0,0 c -15.355,2.143 -29.377,13.755 -34.943,30.767 -5.565,17.013 -1.112,34.667 10.009,45.47 3.682,3.576 6.268,7.205 8.452,11.849 0.851,1.818 1.996,3.021 3.437,3.492 1.44,0.47 3.074,0.178 4.836,-0.783 4.504,-2.46 8.734,-3.857 13.818,-4.57 C 20.965,84.081 34.986,72.469 40.549,55.458 46.113,38.444 41.664,20.788 30.541,9.987 26.861,6.412 24.271,2.782 22.092,-1.861 21.238,-3.68 20.096,-4.884 18.654,-5.354 17.215,-5.823 15.578,-5.528 13.818,-4.565 9.316,-2.108 5.084,-0.71 0,0"
             style="fill:#ffcc00;fill-opacity:1;fill-rule:evenodd;stroke:none"
             id="path593" />
        </g>
        <g
           id="g595"
           transform="translate(637.1816,770.0845)">
          <path
             d="m 0,0 c 9.807,3.12 19.582,-0.086 21.832,-7.162 2.248,-7.076 -3.875,-15.344 -13.682,-18.461 -9.808,-3.117 -19.582,0.09 -21.832,7.165 C -15.934,-11.382 -9.807,-3.117 0,0"
             style="fill:#ffdd30;fill-opacity:1;fill-rule:evenodd;stroke:none"
             id="path597" />
        </g>
        <g
           id="g599"
           transform="translate(639.5977,820.3989)">
          <path
             d="M 0,0 C 31.588,7.818 56.729,8.056 76.957,-13.276 97.184,-34.609 107.881,-72.63 98.4,-103.756 66.813,-111.578 29.41,-98.882 9.18,-77.55 -11.049,-56.218 -9.482,-31.126 0,0"
             style="fill:#5f992c;fill-opacity:1;fill-rule:evenodd;stroke:none"
             id="path601" />
        </g>
        <g
           id="g603"
           transform="translate(644.8008,814.9136)">
          <path
             d="M 0,0 C 11.051,-9.311 27.834,-25.487 45.926,-44.565 64.018,-63.64 79.279,-81.259 87.994,-92.788 76.941,-83.477 60.158,-67.298 42.068,-48.223 23.977,-29.148 8.713,-11.526 0,0"
             style="fill:#7cb54b;fill-opacity:1;fill-rule:evenodd;stroke:none"
             id="path605" />
        </g>
        <g
           id="g607"
           transform="translate(672.4414,846.7339)">
          <path
             d="M 0,0 C 27.363,17.606 51.078,25.954 77.119,12.303 103.152,-1.346 125.563,-33.875 126.646,-66.392 99.283,-84.002 59.783,-84.075 33.748,-70.425 7.711,-56.773 1.084,-32.523 0,0"
             style="fill:#3a6b10;fill-opacity:1;fill-rule:evenodd;stroke:none"
             id="path609" />
        </g>
        <g
           id="g611"
           transform="translate(679.1387,843.2261)">
          <path
             d="m 0,0 c 13.465,-5.245 34.576,-15.128 57.861,-27.333 23.285,-12.211 43.422,-23.948 55.395,-32.044 -13.467,5.239 -34.578,15.128 -57.863,27.333 C 32.105,-19.839 11.969,-8.099 0,0"
             style="fill:#5f992c;fill-opacity:1;fill-rule:evenodd;stroke:none"
             id="path613" />
        </g>
        <g
           id="g615"
           transform="translate(527.1401,867.6851)">
          <path
             d="m 0,0 c -14.097,-29.329 -29.932,-48.856 -59.261,-50.858 -29.333,-2.002 -65.452,13.98 -83.4,41.12 14.094,29.329 47.707,50.068 77.036,52.07 C -36.292,44.335 -17.948,27.14 0,0"
             style="fill:#3a6b10;fill-opacity:1;fill-rule:evenodd;stroke:none"
             id="path617" />
        </g>
        <g
           id="g619"
           transform="translate(519.5972,867.1694)">
          <path
             d="m 0,0 c -14.214,-2.586 -37.376,-5.215 -63.606,-7.009 -26.231,-1.787 -49.535,-2.328 -63.972,-1.698 14.216,2.583 37.379,5.215 63.606,7.005 C -37.738,0.089 -14.437,0.629 0,0"
             style="fill:#5f992c;fill-opacity:1;fill-rule:evenodd;stroke:none"
             id="path621" />
        </g>
        <g
           id="g623"
           transform="translate(576.9565,903.3843)">
          <path
             d="m 0,0 c -27.364,17.604 -44.789,35.729 -43.155,65.083 1.631,29.351 21.946,63.226 51.094,77.688 C 35.303,125.167 51.737,89.247 50.106,59.896 48.471,30.545 29.149,14.462 0,0"
             style="fill:#5f992c;fill-opacity:1;fill-rule:evenodd;stroke:none"
             id="path625" />
        </g>
        <g
           id="g627"
           transform="translate(577.3745,910.9292)">
          <path
             d="M 0,0 C -0.812,14.429 -0.562,37.735 0.896,63.987 2.355,90.236 4.695,113.43 7.101,127.68 7.911,113.252 7.665,89.941 6.206,63.692 4.744,37.44 2.407,14.251 0,0"
             style="fill:#7cb54b;fill-opacity:1;fill-rule:evenodd;stroke:none"
             id="path629" />
        </g>
        <g
           id="g631"
           transform="translate(614.9902,944.436)">
          <path
             d="m 0,0 c -13.713,29.51 -18.753,54.141 -1.68,78.077 17.073,23.931 52.346,41.696 84.713,38.34 C 96.75,86.91 91.436,47.768 74.367,23.835 57.295,-0.099 32.363,-3.357 0,0"
             style="fill:#3a6b10;fill-opacity:1;fill-rule:evenodd;stroke:none"
             id="path633" />
        </g>
        <g
           id="g635"
           transform="translate(619.3789,950.5933)">
          <path
             d="M 0,0 C 7.025,12.622 19.697,32.191 34.961,53.598 50.23,75 64.603,93.351 74.256,104.105 67.227,91.479 54.559,71.914 39.291,50.508 24.025,29.102 9.652,10.755 0,0"
             style="fill:#5f992c;fill-opacity:1;fill-rule:evenodd;stroke:none"
             id="path637" />
        </g>
        <g
           id="g639"
           transform="translate(603.8105,913.7427)">
          <path
             d="M 0,0 C 2.768,32.422 10.641,56.297 37.352,68.582 64.059,80.863 103.5,78.747 129.916,59.746 127.15,27.324 103.086,-3.998 76.377,-16.28 49.67,-28.564 26.414,-19.001 0,0"
             style="fill:#5f992c;fill-opacity:1;fill-rule:evenodd;stroke:none"
             id="path641" />
        </g>
        <g
           id="g643"
           transform="translate(610.6777,916.9028)">
          <path
             d="m 0,0 c 12.377,7.463 33.094,18.145 56.982,29.127 23.883,10.985 45.477,19.766 59.2,24.299 C 103.807,45.963 83.09,35.281 59.203,24.299 35.315,13.311 13.723,4.533 0,0"
             style="fill:#7cb54b;fill-opacity:1;fill-rule:evenodd;stroke:none"
             id="path645" />
        </g>
        <g
           id="g647"
           transform="translate(657.584,897.6382)">
          <path
             d="M 0,0 C 14.326,29.215 30.314,48.619 59.662,50.388 89.006,52.156 125,35.892 142.732,8.608 128.406,-20.607 94.631,-41.083 65.285,-42.852 35.941,-44.621 17.734,-27.281 0,0"
             style="fill:#3a6b10;fill-opacity:1;fill-rule:evenodd;stroke:none"
             id="path649" />
        </g>
        <g
           id="g651"
           transform="translate(665.1289,898.0952)">
          <path
             d="M 0,0 C 14.238,2.47 37.418,4.917 63.662,6.502 89.908,8.083 113.215,8.44 127.646,7.696 113.408,5.224 90.225,2.776 63.984,1.191 37.738,-0.39 14.432,-0.746 0,0"
             style="fill:#5f992c;fill-opacity:1;fill-rule:evenodd;stroke:none"
             id="path653" />
        </g>
        <g
           id="g655"
           transform="translate(568.0718,779.3042)">
          <path
             d="m 0,0 c 25.055,-20.765 40.176,-40.85 35.03,-69.795 -5.145,-28.942 -29.383,-60.133 -60.053,-70.992 -25.055,20.766 -37.057,58.397 -31.91,87.343 C -51.785,-24.502 -30.672,-10.86 0,0"
             style="fill:#5f992c;fill-opacity:1;fill-rule:evenodd;stroke:none"
             id="path657" />
        </g>
        <g
           id="g659"
           transform="translate(566.7515,771.8628)">
          <path
             d="m 0,0 c -0.928,-14.419 -3.975,-37.532 -8.575,-63.416 -4.601,-25.887 -9.704,-48.629 -13.808,-62.485 0.928,14.419 3.975,37.529 8.574,63.413 C -9.207,-36.599 -4.101,-13.86 0,0"
             style="fill:#7cb54b;fill-opacity:1;fill-rule:evenodd;stroke:none"
             id="path661" />
        </g>
        <g
           id="g663"
           transform="translate(504.3208,822.9048)">
          <path
             d="m 0,0 c -0.715,-32.532 -7.064,-56.857 -32.94,-70.805 -25.884,-13.946 -65.379,-14.324 -92.939,2.97 0.709,32.532 22.744,65.314 48.625,79.257 C -51.374,25.367 -27.566,17.294 0,0"
             style="fill:#5f992c;fill-opacity:1;fill-rule:evenodd;stroke:none"
             id="path665" />
        </g>
        <g
           id="g667"
           transform="translate(497.6626,819.3179)">
          <path
             d="m 0,0 c -11.876,-8.23 -31.878,-20.199 -55.023,-32.671 -23.143,-12.472 -44.137,-22.598 -57.546,-27.993 11.879,8.23 31.879,20.201 55.022,32.674 C -34.399,-15.519 -13.402,-5.396 0,0"
             style="fill:#7cb54b;fill-opacity:1;fill-rule:evenodd;stroke:none"
             id="path669" />
        </g>
        <g
           id="g671"
           transform="translate(545.5269,811.2993)">
          <path
             d="m 0,0 c 17.278,-27.573 25.34,-51.387 11.378,-77.258 -13.961,-25.871 -46.755,-47.889 -79.284,-48.582 -17.279,27.569 -16.876,67.07 -2.918,92.942 C -56.862,-7.027 -32.533,-0.694 0,0"
             style="fill:#3a6b10;fill-opacity:1;fill-rule:evenodd;stroke:none"
             id="path673" />
        </g>
        <g
           id="g675"
           transform="translate(541.936,804.647)">
          <path
             d="m 0,0 c -5.398,-13.402 -15.536,-34.391 -28.021,-57.528 -12.487,-23.139 -24.467,-43.138 -32.707,-55.008 5.405,13.403 15.54,34.393 28.027,57.532 C -20.214,-31.866 -8.236,-11.873 0,0"
             style="fill:#5f992c;fill-opacity:1;fill-rule:evenodd;stroke:none"
             id="path677" />
        </g>
        <g
           id="g679"
           transform="translate(580.1138,783.6284)">
          <path
             d="m 0,0 c 10.371,-11.529 13.623,-29.44 6.929,-46.043 -6.699,-16.603 -21.471,-27.244 -36.934,-28.35 -5.12,-0.365 -9.434,-1.477 -14.094,-3.627 -1.824,-0.841 -3.473,-1.025 -4.877,-0.454 -1.406,0.565 -2.468,1.842 -3.197,3.713 -1.864,4.782 -4.198,8.574 -7.632,12.389 -10.368,11.525 -13.623,29.439 -6.927,46.039 6.698,16.602 21.466,27.244 36.932,28.35 5.117,0.366 9.436,1.477 14.094,3.627 1.824,0.841 3.474,1.026 4.88,0.458 1.404,-0.569 2.467,-1.846 3.194,-3.713 C -5.768,7.607 -3.431,3.813 0,0"
             style="fill:#ffcc00;fill-opacity:1;fill-rule:evenodd;stroke:none"
             id="path681" />
        </g>
        <g
           id="g683"
           transform="translate(538.1187,787.0679)">
          <path
             d="m 0,0 c 9.807,3.12 19.582,-0.089 21.83,-7.165 2.251,-7.076 -3.873,-15.341 -13.682,-18.461 -9.806,-3.117 -19.582,0.093 -21.83,7.168 C -15.933,-11.385 -9.806,-3.12 0,0"
             style="fill:#ffdd30;fill-opacity:1;fill-rule:evenodd;stroke:none"
             id="path685" />
        </g>
        <g
           id="g687"
           transform="translate(767.5996,839.019)">
          <path
             d="m 0,0 c -8.834,-12.742 -25.52,-20.027 -43.217,-17.327 -17.695,2.702 -31.447,14.634 -36.08,29.431 -1.529,4.898 -3.605,8.841 -6.766,12.882 -1.24,1.582 -1.794,3.146 -1.564,4.641 0.227,1.499 1.225,2.825 2.879,3.965 4.225,2.911 7.381,6.056 10.305,10.276 8.832,12.742 25.517,20.024 43.212,17.322 C -13.533,58.489 0.219,46.559 4.85,31.762 6.379,26.866 8.455,22.92 11.615,18.878 12.857,17.297 13.416,15.736 13.186,14.237 12.955,12.739 11.957,11.412 10.301,10.273 6.078,7.361 2.924,4.214 0,0"
             style="fill:#ffcc00;fill-opacity:1;fill-rule:evenodd;stroke:none"
             id="path689" />
        </g>
        <g
           id="g691"
           transform="translate(585.1353,887.3892)">
          <path
             d="m 0,0 c 12.92,-29.863 17.296,-54.623 -0.412,-78.093 -17.705,-23.467 -53.444,-40.281 -85.709,-36.057 -12.917,29.86 -6.56,68.845 11.145,92.314 C -57.271,1.634 -32.266,4.223 0,0"
             style="fill:#5f992c;fill-opacity:1;fill-rule:evenodd;stroke:none"
             id="path693" />
        </g>
        <g
           id="g695"
           transform="translate(580.5835,881.3511)">
          <path
             d="m 0,0 c -7.364,-12.432 -20.552,-31.65 -36.387,-52.639 -15.835,-20.988 -30.693,-38.948 -40.631,-49.442 7.365,12.436 20.552,31.654 36.387,52.643 C -24.796,-28.45 -9.936,-10.49 0,0"
             style="fill:#7cb54b;fill-opacity:1;fill-rule:evenodd;stroke:none"
             id="path697" />
        </g>
        <g
           id="g699"
           transform="translate(576.1089,857.894)">
          <path
             d="M 0,0 C 18.371,26.854 36.979,43.761 66.276,41.301 95.571,38.838 128.856,17.573 142.491,-11.971 124.118,-38.825 87.752,-54.239 58.456,-51.779 29.161,-49.316 13.633,-29.544 0,0"
             style="fill:#5f992c;fill-opacity:1;fill-rule:evenodd;stroke:none"
             id="path701" />
        </g>
        <g
           id="g703"
           transform="translate(583.6392,857.2612)">
          <path
             d="m 0,0 c 14.447,0.402 37.738,-0.503 63.939,-2.702 26.199,-2.202 49.316,-5.196 63.488,-8.004 -14.443,-0.402 -37.738,0.504 -63.933,2.703 C 37.292,-5.801 14.177,-2.807 0,0"
             style="fill:#7cb54b;fill-opacity:1;fill-rule:evenodd;stroke:none"
             id="path705" />
        </g>
        <g
           id="g707"
           transform="translate(606,991.4087)">
          <path
             d="m 0,0 c 12.303,-9.435 18.781,-26.448 15.236,-43.991 -3.545,-17.548 -16.121,-30.714 -31.123,-34.63 -4.966,-1.296 -9.004,-3.179 -13.191,-6.143 -1.639,-1.16 -3.227,-1.645 -4.714,-1.344 -1.483,0.3 -2.76,1.36 -3.82,3.068 -2.706,4.357 -5.7,7.662 -9.769,10.782 -12.303,9.435 -18.784,26.452 -15.233,43.997 3.544,17.542 16.117,30.712 31.119,34.63 4.963,1.293 9.005,3.176 13.195,6.143 1.636,1.161 3.224,1.643 4.711,1.342 1.483,-0.301 2.76,-1.361 3.82,-3.068 C -7.063,6.428 -4.072,3.126 0,0"
             style="fill:#ffcc00;fill-opacity:1;fill-rule:evenodd;stroke:none"
             id="path709" />
        </g>
        <g
           id="g711"
           transform="translate(534.7534,851.9819)">
          <path
             d="M 0,0 C -0.787,32.53 4.432,57.123 29.643,72.249 54.854,87.371 94.29,89.57 122.618,73.564 123.407,41.034 102.905,7.273 77.694,-7.852 52.485,-22.975 28.328,-16.003 0,0"
             style="fill:#3a6b10;fill-opacity:1;fill-rule:evenodd;stroke:none"
             id="path713" />
        </g>
        <g
           id="g715"
           transform="translate(541.2358,855.8735)">
          <path
             d="M 0,0 C 11.483,8.765 30.914,21.646 53.46,35.171 76.004,48.695 96.51,59.776 109.655,65.783 98.169,57.013 78.739,44.135 56.193,30.609 33.648,17.085 13.142,6.004 0,0"
             style="fill:#5f992c;fill-opacity:1;fill-rule:evenodd;stroke:none"
             id="path717" />
        </g>
        <g
           id="g719"
           transform="translate(571.6099,991.7983)">
          <path
             d="m 0,0 c 9.809,3.117 19.581,-0.089 21.833,-7.165 2.251,-7.075 -3.876,-15.34 -13.683,-18.457 -9.805,-3.12 -19.581,0.086 -21.829,7.162 C -15.93,-11.384 -9.807,-3.12 0,0"
             style="fill:#ffdd30;fill-opacity:1;fill-rule:evenodd;stroke:none"
             id="path721" />
        </g>
        <g
           id="g723"
           transform="translate(482.6821,885.6665)">
          <path
             d="m 0,0 c -13.366,-7.859 -31.568,-7.472 -46.497,2.404 -14.932,9.877 -22.407,26.474 -20.404,41.848 0.663,5.092 0.435,9.539 -0.738,14.535 -0.464,1.957 -0.313,3.609 0.522,4.871 0.836,1.263 2.301,2.049 4.281,2.39 5.056,0.872 9.238,2.404 13.661,5.003 13.365,7.862 31.568,7.474 46.496,-2.402 C 12.254,58.773 19.728,42.176 17.727,26.799 17.063,21.71 17.29,17.26 18.464,12.266 18.927,10.31 18.776,8.657 17.941,7.393 17.106,6.13 15.641,5.347 13.66,5.006 8.605,4.134 4.422,2.602 0,0"
             style="fill:#ffcc00;fill-opacity:1;fill-rule:evenodd;stroke:none"
             id="path725" />
        </g>
        <g
           id="g727"
           transform="translate(443.3003,954.5308)">
          <path
             d="m 0,0 c 9.807,3.12 19.582,-0.089 21.833,-7.162 2.248,-7.076 -3.876,-15.344 -13.685,-18.461 -9.803,-3.117 -19.582,0.089 -21.83,7.165 C -15.93,-11.382 -9.806,-3.12 0,0"
             style="fill:#ffdd30;fill-opacity:1;fill-rule:evenodd;stroke:none"
             id="path729" />
        </g>
        <g
           id="g731"
           transform="translate(551.3862,944.5864)">
          <path
             d="m 0,0 c -32.529,0.851 -56.828,7.3 -70.664,33.242 -13.835,25.939 -14.047,65.434 3.366,92.923 32.53,-0.851 65.213,-23.024 79.048,-48.963 C 25.586,51.26 17.41,27.486 0,0"
             style="fill:#3a6b10;fill-opacity:1;fill-rule:evenodd;stroke:none"
             id="path733" />
        </g>
        <g
           id="g735"
           transform="translate(547.8267,951.2534)">
          <path
             d="M 0,0 C -8.179,11.913 -20.061,31.968 -32.438,55.161 -44.811,78.36 -54.844,99.4 -60.182,112.831 -52,100.915 -40.118,80.863 -27.744,57.667 -15.368,34.468 -5.338,13.431 0,0"
             style="fill:#5f992c;fill-opacity:1;fill-rule:evenodd;stroke:none"
             id="path737" />
        </g>
        <g
           id="g739"
           transform="translate(561.8159,890.147)">
          <path
             d="m 0,0 c -29.105,-14.545 -53.585,-20.281 -77.994,-3.894 -24.407,16.381 -43.172,51.14 -40.733,83.59 29.108,14.545 68.381,10.347 92.792,-6.038 C -1.526,57.273 2.439,32.45 0,0"
             style="fill:#5f992c;fill-opacity:1;fill-rule:evenodd;stroke:none"
             id="path741" />
        </g>
        <g
           id="g743"
           transform="translate(555.5415,894.3608)">
          <path
             d="M 0,0 C -12.825,6.664 -32.741,18.773 -54.571,33.426 -76.4,48.079 -95.149,61.927 -106.175,71.269 -93.356,64.602 -73.436,52.495 -51.607,37.843 -29.777,23.187 -11.028,9.339 0,0"
             style="fill:#7cb54b;fill-opacity:1;fill-rule:evenodd;stroke:none"
             id="path745" />
        </g>
        <g
           id="g747"
           transform="translate(575.9829,868.1333)">
          <path
             d="m 0,0 c -2.994,-15.208 -15.368,-28.565 -32.664,-33.175 -17.297,-4.609 -34.677,0.818 -44.845,12.522 -3.366,3.876 -6.843,6.661 -11.357,9.096 -1.77,0.955 -2.906,2.162 -3.299,3.627 -0.387,1.462 -0.006,3.078 1.057,4.785 2.703,4.361 4.336,8.507 5.325,13.541 2.995,15.214 15.368,28.571 32.665,33.177 17.297,4.607 34.676,-0.816 44.845,-12.524 3.362,-3.872 6.842,-6.658 11.36,-9.094 C 4.852,21.004 5.989,19.794 6.379,18.328 6.769,16.867 6.385,15.251 5.325,13.544 2.623,9.183 0.989,5.037 0,0"
             style="fill:#ffcc00;fill-opacity:1;fill-rule:evenodd;stroke:none"
             id="path749" />
        </g>
        <g
           id="g751"
           transform="translate(727.584,870.8423)">
          <path
             d="M 0,0 C 10.26,0 18.633,6.041 18.633,13.445 18.633,20.85 10.26,26.891 0,26.891 -10.264,26.891 -18.637,20.85 -18.637,13.445 -18.637,6.041 -10.264,0 0,0"
             style="fill:#ffdd30;fill-opacity:1;fill-rule:evenodd;stroke:none"
             id="path753" />
        </g>
        <g
           id="g755"
           transform="translate(521.1353,908.4204)">
          <path
             d="m 0,0 c 9.807,3.12 19.582,-0.086 21.833,-7.162 2.248,-7.075 -3.876,-15.343 -13.682,-18.46 -9.806,-3.117 -19.582,0.089 -21.833,7.165 C -15.93,-11.382 -9.806,-3.117 0,0"
             style="fill:#ffdd30;fill-opacity:1;fill-rule:evenodd;stroke:none"
             id="path757" />
        </g>
      </g>
    </g>
  </g>
</svg>
