<svg version="1.1" id="prefix__svg1281" width="140" height="81.62" xmlns="http://www.w3.org/2000/svg"><style type="text/css" id="style530">.prefix__st27{opacity:.24}.prefix__st28{fill:#fff8bc}.prefix__st44{opacity:.45}</style><radialGradient id="prefix__ci" cx="0" cy="0" r="1" gradientUnits="userSpaceOnUse"><stop stop-color="#fff" stop-opacity=".7" offset=".289" id="prefix__stop532"/><stop stop-color="#FFFEFB" stop-opacity=".603" offset=".404" id="prefix__stop534"/><stop stop-color="#FFFBF1" stop-opacity=".491" offset=".536" id="prefix__stop536"/><stop stop-color="#FFF6DE" stop-opacity=".371" offset=".679" id="prefix__stop538"/><stop stop-color="#FFEFC4" stop-opacity=".246" offset=".827" id="prefix__stop540"/><stop stop-color="#FFE6A0" stop-opacity=".117" offset=".979" id="prefix__stop542"/><stop stop-color="#FFE59A" stop-opacity=".1" offset="1" id="prefix__stop544"/></radialGradient><radialGradient id="prefix__ct" cx="0" cy="0" r="1" gradientUnits="userSpaceOnUse"><stop stop-color="#432C00" stop-opacity=".6" offset=".284" id="prefix__stop547"/><stop stop-color="#472F00" stop-opacity=".541" offset=".39" id="prefix__stop549"/><stop stop-color="#513700" stop-opacity=".472" offset=".512" id="prefix__stop551"/><stop stop-color="#604207" stop-opacity=".399" offset=".644" id="prefix__stop553"/><stop stop-color="#72511B" stop-opacity=".322" offset=".781" id="prefix__stop555"/><stop stop-color="#846230" stop-opacity=".244" offset=".921" id="prefix__stop557"/><stop stop-color="#8D6B3E" stop-opacity=".2" offset="1" id="prefix__stop559"/></radialGradient><radialGradient id="prefix__bg" cx="522.94" cy="414" r="38.669" gradientTransform="rotate(1.652 1093.23 -1241.06) scale(.2452)" gradientUnits="userSpaceOnUse"><stop stop-color="#FEF7E4" offset="0" id="prefix__stop562"/><stop stop-color="#FBEACC" offset="0" id="prefix__stop564"/><stop stop-color="#E7A341" offset="0" id="prefix__stop566"/><stop stop-color="#DD8700" offset="0" id="prefix__stop568"/><stop stop-color="#EA5602" offset="1" id="prefix__stop570"/></radialGradient><path d="M100.491 70.893c.785 1.717.638 3.727.074 5.542-.515 1.691-1.545 3.408-3.261 3.898-1.3.368-2.673-.049-3.924-.54a43.649 43.649 0 01-11.082-6.227c-1.594-1.226-3.164-2.697-3.605-4.634-.073-.368-.122-.76.025-1.104.22-.49.735-.76 1.226-.956 3.359-1.349 7.16-1.471 10.641-.736 3.58.711 8.165.957 9.906 4.757z" id="prefix__path573" fill="url(#prefix__bg)" stroke-width=".245"/><radialGradient id="prefix__br" cx="519.17" cy="417.53" r="40.186" gradientUnits="userSpaceOnUse" gradientTransform="matrix(.2452 0 0 .2452 -37.456 -29.294)"><stop stop-color="#7B2526" stop-opacity=".915" offset="0" id="prefix__stop575"/><stop stop-color="#9A0600" offset=".511" id="prefix__stop577"/><stop stop-color="#A52934" stop-opacity=".9" offset="1" id="prefix__stop579"/></radialGradient><path d="M100.491 70.893l.074.147c.049.098.098.245.171.466.147.417.294 1.03.319 1.84.025.808-.074 1.79-.368 2.868a8.27 8.27 0 01-.637 1.667 5.709 5.709 0 01-.49.834c-.197.27-.393.54-.663.785-.49.49-1.152.882-1.912 1.03-.76.147-1.57.048-2.33-.148-.784-.196-1.544-.49-2.304-.809a32.292 32.292 0 01-2.354-1.005 41.824 41.824 0 01-4.708-2.526 37.142 37.142 0 01-2.28-1.544c-.736-.54-1.496-1.104-2.183-1.741-.686-.638-1.348-1.349-1.814-2.183a5.06 5.06 0 01-.564-1.348c-.123-.442-.245-1.005-.025-1.57l.025-.048v-.025l.024-.049c0-.024.025-.049.05-.098.048-.074.073-.123.122-.172.098-.122.196-.196.294-.294.22-.172.442-.27.662-.368.123-.049.221-.098.344-.122l.318-.123c.196-.073.417-.147.638-.22.858-.27 1.74-.442 2.599-.564 1.74-.246 3.433-.221 5.002-.025.785.098 1.545.245 2.28.392.736.172 1.422.295 2.109.442 1.349.27 2.599.564 3.629.98 1.054.417 1.888.908 2.5 1.447.074.074.148.123.222.196.073.074.122.147.196.196.122.123.245.246.343.368.172.27.343.466.441.662.172.466.27.662.27.662zm0 0s-.098-.196-.319-.588c-.098-.196-.27-.393-.441-.662a4.713 4.713 0 00-.343-.368c-.074-.074-.123-.147-.197-.196-.073-.074-.147-.123-.22-.196-.589-.54-1.447-1.03-2.501-1.423-1.055-.392-2.28-.662-3.654-.858-.686-.122-1.397-.22-2.108-.343-.736-.123-1.471-.245-2.256-.319a18.483 18.483 0 00-4.904.196c-.834.147-1.667.368-2.501.638-.196.073-.417.147-.613.22l-.319.123c-.098.025-.196.074-.294.123-.368.171-.711.417-.81.71-.122.295-.048.712.074 1.104.123.417.295.81.515 1.177.442.736 1.03 1.398 1.692 2.01.662.614 1.373 1.153 2.109 1.693a45.24 45.24 0 002.231 1.544 50.98 50.98 0 004.56 2.648c.76.393 1.521.736 2.281 1.08.76.318 1.496.661 2.231.858.736.22 1.496.343 2.207.22a3.532 3.532 0 001.84-.907c.244-.22.465-.466.661-.736.196-.27.368-.54.515-.809.294-.54.49-1.103.662-1.643.319-1.078.441-2.06.417-2.844a7.146 7.146 0 00-.294-1.839c-.074-.196-.123-.368-.172-.466-.024-.098-.049-.147-.049-.147z" id="prefix__path582" fill="url(#prefix__br)" stroke-width=".245"/><radialGradient id="prefix__bu" cx="458.45" cy="177.39" r="69.341" gradientTransform="rotate(1.652 1093.23 -1241.06) scale(.2452)" gradientUnits="userSpaceOnUse"><stop stop-color="#FEF7E4" offset="0" id="prefix__stop584"/><stop stop-color="#FBEACC" offset="0" id="prefix__stop586"/><stop stop-color="#E7A341" offset="0" id="prefix__stop588"/><stop stop-color="#DD8700" offset="0" id="prefix__stop590"/><stop stop-color="#EA5602" offset="1" id="prefix__stop592"/></radialGradient><path d="M66.139 2.729C70.994.669 76.413.179 81.66.62c3.874.319 8.018 1.3 10.568 4.217 1.25 1.447 2.01 3.261 2.452 5.125 1.57 6.67-1.3 14.123-6.89 18.046-.638.442-1.349.859-2.109.981-2.33.368-4.12-1.839-5.762-3.53-2.893-2.992-6.694-4.954-10.592-6.474a67.502 67.502 0 00-8.435-2.697c-2.06-.515-4.242-1.005-4.56-3.482-.54-4.634 6.3-8.582 9.807-10.077z" id="prefix__path595" fill="url(#prefix__bu)" stroke-width=".245"/><radialGradient id="prefix__bv" cx="461.4" cy="179.7" r="71.459" gradientUnits="userSpaceOnUse" gradientTransform="matrix(.2452 0 0 .2452 -37.456 -29.294)"><stop stop-color="#7B2526" stop-opacity=".915" offset="0" id="prefix__stop597"/><stop stop-color="#9A0600" offset=".511" id="prefix__stop599"/><stop stop-color="#A52934" stop-opacity=".9" offset="1" id="prefix__stop601"/></radialGradient><path d="M65.943 2.287s.098-.049.27-.122c.196-.074.441-.196.833-.32.76-.269 1.84-.637 3.261-.98A37.34 37.34 0 0172.686.4 41.885 41.885 0 0175.53.081a43.023 43.023 0 016.817.122c1.25.123 2.55.343 3.874.687.662.171 1.324.392 1.986.662.662.27 1.3.588 1.937.98 1.25.785 2.403 1.815 3.236 3.139.417.662.76 1.349 1.055 2.084.27.736.515 1.471.686 2.28.074.393.147.76.22 1.153.05.392.099.81.124 1.201.024.393.024.81.049 1.202 0 .392-.025.809-.05 1.226a18.26 18.26 0 01-1.005 4.806c-1.103 3.114-3.04 6.007-5.688 8.116l-.49.392-.246.196-.27.172a5.8 5.8 0 01-1.152.637 4.838 4.838 0 01-.638.196c-.049.025-.122.025-.171.025h-.196l-.32.024c-.49 0-.93-.073-1.372-.22-.858-.294-1.57-.81-2.182-1.373-.638-.564-1.202-1.153-1.766-1.741-2.182-2.354-4.88-4.046-7.65-5.346-2.77-1.3-5.59-2.304-8.263-3.138a69.045 69.045 0 00-3.972-1.079c-.662-.172-1.3-.368-1.937-.662-.613-.294-1.226-.736-1.619-1.324-.392-.588-.564-1.275-.613-1.913l-.024-.22v-.49l.024-.246c.025-.147.05-.319.074-.466.024-.147.074-.294.123-.441.367-1.177 1.005-2.109 1.691-2.893a15.776 15.776 0 012.11-1.986c.71-.54 1.372-1.03 1.985-1.423a28.54 28.54 0 012.967-1.667c.687-.294 1.079-.466 1.079-.466zm.368.883s-.368.147-1.055.466c-.686.343-1.692.809-2.893 1.57-1.201.76-2.624 1.74-3.923 3.211-.638.736-1.202 1.594-1.52 2.575-.05.122-.074.245-.098.368-.025.122-.05.245-.074.392l-.025.196v.392l.025.221c.049.54.172 1.054.466 1.496.294.441.735.784 1.275 1.03.54.245 1.152.44 1.79.613 1.275.318 2.648.686 3.996 1.103 2.722.834 5.542 1.863 8.386 3.212 1.398.687 2.795 1.447 4.144 2.354.662.441 1.324.956 1.937 1.471.319.27.613.54.932.834l.441.417.442.44c.563.59 1.103 1.178 1.691 1.717.589.515 1.226.981 1.937 1.226.344.123.736.172 1.055.172l.319-.025h.122c-.024 0 0 0 0 0 .05 0 .098-.024.123-.024.171-.05.343-.098.54-.172a7.13 7.13 0 001.029-.564l.245-.171.245-.172.49-.368c2.55-1.986 4.414-4.781 5.444-7.772 1.03-3.016 1.275-6.228.589-9.195-.32-1.447-.859-2.87-1.643-4.07-.76-1.202-1.815-2.158-2.992-2.87-.588-.367-1.201-.637-1.814-.907a16.953 16.953 0 00-1.888-.613 25.775 25.775 0 00-3.727-.637 38.443 38.443 0 00-6.67-.098c-.98.073-1.912.196-2.746.319a34.6 34.6 0 00-2.304.465c-1.374.344-2.452.687-3.139.957-.343.122-.637.245-.81.318-.244.099-.342.148-.342.123z" id="prefix__path604" fill="url(#prefix__bv)" stroke-width=".245"/><radialGradient id="prefix__bw" cx="437.68" cy="310.16" r="222.6" gradientTransform="rotate(1.652 1093.23 -1241.06) scale(.2452)" gradientUnits="userSpaceOnUse"><stop stop-color="#FEF7E4" offset="0" id="prefix__stop606"/><stop stop-color="#FBEACC" offset="0" id="prefix__stop608"/><stop stop-color="#E7A341" offset="0" id="prefix__stop610"/><stop stop-color="#DD8700" offset="0" id="prefix__stop612"/><stop stop-color="#EA5602" offset="1" id="prefix__stop614"/></radialGradient><radialGradient id="prefix__bx" cx="437.68" cy="310.16" r="224.97" gradientTransform="rotate(1.652 1093.23 -1241.06) scale(.2452)" gradientUnits="userSpaceOnUse"><stop stop-color="#7B2526" stop-opacity=".915" offset="0" id="prefix__stop617"/><stop stop-color="#9A0600" offset=".511" id="prefix__stop619"/><stop stop-color="#A52934" stop-opacity=".9" offset="1" id="prefix__stop621"/></radialGradient><path d="M1.8 48.605c-.197-.442-.393-.883-.54-1.324-.637-1.79-.956-3.8-.22-5.566.662-1.594 2.23-2.795 3.947-3.04 2.624-.368 5.1 1.373 6.89 3.359 4.316-10.52 12.04-19.2 22.264-24.373 9.808-4.953 21.234-6.473 32.12-4.855 5.444.81 10.863 2.403 15.497 5.37 7.675 4.904 12.603 12.995 17.237 20.817a96.943 96.943 0 0115.252-16.134c4.732-3.972 10.298-7.625 16.477-7.625 2.108 0 4.315.466 5.933 1.839 2.992 2.5 3.09 7.037 2.33 10.862-2.182 10.74-9.416 20.057-18.586 26.04-.834.54-1.765 1.275-1.643 2.255.05.393.27.736.49 1.055 1.79 2.574 4.144 4.806 5.542 7.625 1.398 2.82 1.57 6.62-.711 8.778-1.52 1.447-3.776 1.815-5.86 1.717-8.607-.417-15.497-7.822-18.464-15.913-9.71 12.456-25.034 20.204-40.8 21.356-8.68.638-17.483-.662-25.697-3.555a65.926 65.926 0 01-11.843-5.542c-1.839-1.079-3.85-2.182-5.468-3.604-1.593-1.398-2.353-1.765-4.56-1.986-2.501-.27-4.904-1.84-5.811-4.193-.908-2.354.049-5.37 2.28-6.473-2.624-1.667-4.732-4.095-6.056-6.89z" id="prefix__path624" fill="url(#prefix__bw)" stroke="url(#prefix__bx)" stroke-width="5" stroke-miterlimit="10"/><radialGradient id="prefix__cx" cx="288.42" cy="277.88" r="36.271" gradientTransform="rotate(1.652 1093.23 -1241.06) scale(.2452)" gradientUnits="userSpaceOnUse"><stop stop-color="#432C00" stop-opacity=".6" offset=".284" id="prefix__stop626"/><stop stop-color="#472F00" stop-opacity=".541" offset=".39" id="prefix__stop628"/><stop stop-color="#513700" stop-opacity=".472" offset=".512" id="prefix__stop630"/><stop stop-color="#604207" stop-opacity=".399" offset=".644" id="prefix__stop632"/><stop stop-color="#72511B" stop-opacity=".322" offset=".781" id="prefix__stop634"/><stop stop-color="#846230" stop-opacity=".244" offset=".921" id="prefix__stop636"/><stop stop-color="#8D6B3E" stop-opacity=".2" offset="1" id="prefix__stop638"/></radialGradient><path d="M24.554 36.688c1.03-1.961 2.256-3.85 3.972-5.247 1.692-1.397 3.948-2.28 6.13-1.937 1.618.245 3.09 1.128 4.266 2.28 1.986 1.913 3.237 4.561 3.433 7.307.196 2.746-.637 5.566-2.33 7.748.957-2.329 1.398-4.928.883-7.38-.515-2.452-2.108-4.757-4.364-5.836-1.496-.71-3.188-.858-4.83-.686-3.36.368-6.743 2.476-7.65 5.713" id="prefix__path641" fill="url(#prefix__cx)" stroke-width=".245"/><radialGradient id="prefix__by" cx="344.56" cy="311.89" r="61.627" gradientUnits="userSpaceOnUse" gradientTransform="matrix(.2452 0 0 .2452 -37.456 -29.294)"><stop stop-color="#7B2526" stop-opacity=".915" offset="0" id="prefix__stop643"/><stop stop-color="#9A0600" offset=".511" id="prefix__stop645"/><stop stop-color="#A52934" stop-opacity=".9" offset="1" id="prefix__stop647"/></radialGradient><path d="M41.718 27.077l.44.294c.295.196.712.49 1.202.907.49.417 1.104.932 1.741 1.57.319.318.638.661.981 1.054.343.392.662.809 1.005 1.25a30.15 30.15 0 011.986 2.992 35.272 35.272 0 011.815 3.604c.147.319.27.637.392.98.123.369.245.663.368 1.006.22.711.441 1.422.564 2.158a24.62 24.62 0 01.49 4.462c0 1.496-.122 2.992-.318 4.463a30.48 30.48 0 01-.393 2.158c-.073.343-.171.71-.245 1.054-.098.343-.172.662-.27 1.005a22.812 22.812 0 01-1.446 3.776 20.914 20.914 0 01-1.864 3.114c-.171.221-.319.442-.515.638-.171.196-.343.417-.515.588l-.54.54c-.17.171-.367.318-.539.466-.343.318-.686.539-1.005.784-.319.22-.637.393-.932.564-.588.294-1.054.49-1.373.589-.318.122-.49.171-.49.171s.172-.073.466-.245c.073-.049.171-.074.245-.123.098-.049.196-.098.294-.171.22-.123.466-.27.711-.442.246-.196.54-.392.834-.637.294-.27.613-.515.907-.834a14.295 14.295 0 001.84-2.305 21.116 21.116 0 001.617-3.064c.49-1.128.883-2.403 1.226-3.678.074-.344.172-.662.246-1.006.073-.343.147-.662.196-1.005.122-.687.245-1.373.343-2.084.196-1.398.294-2.844.27-4.267 0-1.422-.147-2.868-.417-4.242-.123-.686-.319-1.373-.49-2.01-.099-.319-.221-.687-.32-.98l-.367-.957a33.88 33.88 0 00-1.618-3.556c-.564-1.103-1.177-2.108-1.766-3.04a32.446 32.446 0 00-1.765-2.403 23.234 23.234 0 00-1.545-1.692c-.441-.441-.809-.809-1.079-1.03a2.673 2.673 0 00-.367-.416z" id="prefix__path650" fill="url(#prefix__by)" stroke-width=".245"/><path d="M26.417 34.359c1.815-2.084 4.659-3.212 7.405-2.918 2.746.294 5.296 1.986 6.645 4.39 1.716 3.089 1.373 6.963.049 10.224-.638 1.57-2.33 5.37-4.438 5.198-.564-.049-1.079-.294-1.594-.515-2.427-1.03-5.075-1.594-7.723-1.692-1.423-.049-1.741.147-2.379-1.201a10.936 10.936 0 01-.834-2.673c-.686-3.702.368-7.92 2.87-10.813z" id="prefix__path652" stroke-width=".245" fill="#fff"/><linearGradient id="prefix__bz" x1="246.11" x2="324.43" y1="286.27" y2="288.53" gradientUnits="userSpaceOnUse" gradientTransform="matrix(.2452 0 0 .2452 -37.456 -29.294)"><stop stop-color="#D7E3F5" offset="0" id="prefix__stop654"/><stop stop-color="#BBD1EE" offset=".5" id="prefix__stop656"/><stop stop-color="#B6CFED" offset=".575" id="prefix__stop658"/><stop stop-color="#9FC1E7" offset="1" id="prefix__stop660"/></linearGradient><path d="M26.417 34.359s.172-.172.466-.515c.074-.074.147-.172.245-.294.098-.098.196-.22.295-.343.122-.123.245-.27.367-.417l.442-.442c.662-.588 1.692-.98 2.893-1.25a8.261 8.261 0 011.937-.172c.172 0 .343 0 .515.025.098 0 .172.024.27.024.098.025.171.025.27.05.073.024.171.024.245.048.098.025.171.05.27.05.097.024.195.048.27.048.097.025.17.05.269.074a9.324 9.324 0 014.095 2.476 8.058 8.058 0 011.495 2.158c.196.368.368.81.49 1.25.148.442.246.883.32 1.325.147.907.196 1.839.122 2.77a15.266 15.266 0 01-.49 2.771 17.458 17.458 0 01-.981 2.673c-.393.882-.81 1.74-1.349 2.525-.27.392-.54.785-.833 1.177-.295.392-.638.76-1.128 1.005a1.777 1.777 0 01-.81.172c-.27 0-.539-.074-.784-.123-.49-.147-.907-.367-1.349-.539-1.716-.687-3.506-1.177-5.247-1.422a23.726 23.726 0 00-2.599-.22c-.22 0-.441 0-.662-.05a1.35 1.35 0 01-.662-.294c-.368-.343-.515-.736-.687-1.128-.662-1.545-.882-3.114-.882-4.56 0-.712.049-1.423.147-2.06.049-.319.122-.638.171-.956l.221-.883a14.027 14.027 0 011.692-3.752c.172-.27.343-.49.49-.662l.466-.54zm0 0s-.147.196-.441.54a15.69 15.69 0 00-1.03 1.642 12.812 12.812 0 00-1.079 2.795 13.512 13.512 0 00-.417 3.875c.05 1.422.32 2.966 1.03 4.438.172.367.368.735.638.98.27.221.662.221 1.103.221.858 0 1.766.025 2.673.123a20.47 20.47 0 015.419 1.373c.44.171.882.392 1.3.515.22.073.416.098.612.122.196.025.392 0 .589-.073.416-.098.833-.344 1.201-.638.368-.294.687-.662.956-1.054.515-.81.957-1.668 1.324-2.55a15.17 15.17 0 00.908-2.697c.22-.908.343-1.84.367-2.747a10.748 10.748 0 00-.245-2.672 9.315 9.315 0 00-.368-1.25 8.111 8.111 0 00-.539-1.153c-.392-.736-.932-1.373-1.496-1.913a8.466 8.466 0 00-3.85-2.108 8.49 8.49 0 00-3.677-.05c-.54.123-1.03.295-1.471.466-.099.05-.221.099-.32.148-.097.049-.195.098-.318.122-.22.074-.392.172-.588.22-.197.074-.368.148-.54.222a8.465 8.465 0 00-.466.22 5.63 5.63 0 00-.392.22 1.53 1.53 0 00-.294.222 6.21 6.21 0 00-.368.343c-.196.049-.22.098-.22.098z" id="prefix__path663" fill="url(#prefix__bz)" stroke-width=".245"/><ellipse class="prefix__Grafikstil_x0020_12" transform="rotate(-88.342)" cx="-41.821" cy="30.591" rx="6.253" ry="5.762" id="prefix__ellipse665" stroke-width=".245"/><radialGradient id="prefix__ca" cx="208.3" cy="346.25" r="26.955" gradientUnits="userSpaceOnUse" gradientTransform="matrix(.2452 0 0 .2452 -37.456 -29.294)"><stop stop-color="#7B2526" stop-opacity=".915" offset="0" id="prefix__stop667"/><stop stop-color="#9A0600" offset=".511" id="prefix__stop669"/><stop stop-color="#A52934" stop-opacity=".9" offset="1" id="prefix__stop671"/></radialGradient><path d="M5.6 52.136l.343.392.344.368.367.368.368.343.393.319.392.318.417.295.417.27.44.245.442.245.442.22.465.197.466.171.466.147.466.123.49.122.49.099.467.073.49.05.49.024h.49l.491-.025.49-.024c.172-.025.32-.05.491-.05l.49-.073.49-.074.467-.098c.147-.049.319-.073.466-.122l.466-.123c.147-.049.318-.098.465-.147.148-.049.32-.098.466-.172.147-.049.319-.122.466-.171l-.22.613c0-.417.122-.785.318-1.08 0 .197 0 .369.025.565.024.196.049.368.073.54.05.17.074.367.123.539.049.171.123.343.196.515.074.171.147.343.245.515.098.171.172.318.295.49.098.147.22.294.318.441.123.147.245.27.368.417a6.346 6.346 0 01-.368-.417c-.122-.147-.22-.294-.318-.441-.099-.147-.197-.319-.295-.49-.073-.172-.171-.344-.245-.515-.074-.172-.123-.344-.196-.515a4.274 4.274 0 01-.123-.54l-.073-.54c-.025-.195-.025-.367-.025-.563.123.319.343.564.564.711l.368.245-.589.368a2.887 2.887 0 01-.465.27c-.172.073-.32.171-.49.245-.172.073-.32.147-.491.22l-.515.197-.515.147-.54.122-.539.099-.54.073c-.17.025-.367.025-.539.05l-.54.024h-.539l-.539-.05-.54-.073-.539-.098-.54-.123-.514-.147-.515-.171-.515-.197-.49-.22-.49-.245-.467-.27-.441-.294-.441-.295-.417-.318-.417-.344-.392-.367-.368-.368-.343-.393-.32-.416-.293-.417-.295-.442z" id="prefix__path674" fill="url(#prefix__ca)" stroke-width=".245"/><path d="M54.075 50.714a29.024 29.024 0 0110.863-6.474c1.593-.515 3.26-.907 4.928-.784 1.667.122 3.36.833 4.365 2.157 1.127 1.472 1.275 3.482 1.127 5.321-.416 5.174-2.991 10.151-6.963 13.51-.834.712-1.741 1.35-2.795 1.717-2.011.711-4.316.22-6.155-.834-2.697-1.52-4.634-4.29-5.222-7.331" id="prefix__path676" stroke-width=".245" fill="#f18400"/><radialGradient id="prefix__cb" cx="417.11" cy="343.62" r="47.636" gradientUnits="userSpaceOnUse" gradientTransform="matrix(.2452 0 0 .2452 -37.456 -29.294)"><stop stop-color="#7B2526" stop-opacity=".915" offset="0" id="prefix__stop678"/><stop stop-color="#9A0600" offset=".511" id="prefix__stop680"/><stop stop-color="#A52934" stop-opacity=".9" offset="1" id="prefix__stop682"/></radialGradient><path d="M54.075 50.714l.49-.49c.32-.32.81-.81 1.472-1.35a29.848 29.848 0 012.501-1.887 28.741 28.741 0 013.53-2.011 24.24 24.24 0 012.134-.907c.76-.295 1.545-.54 2.403-.76.834-.197 1.74-.368 2.673-.368.956 0 1.912.147 2.844.515.932.368 1.814.956 2.476 1.79l.025.049c0 .024 0 0 .024.024l.025.025.049.073.098.147c.074.098.147.221.22.344.074.122.123.245.197.343.049.123.098.245.171.368.197.49.344 1.005.417 1.52.172 1.03.172 2.06.074 3.065l-.074.735a8.173 8.173 0 01-.122.76c-.025.246-.098.515-.147.76-.05.246-.099.491-.172.736a20.539 20.539 0 01-2.305 5.566c-1.005 1.717-2.305 3.237-3.678 4.512-.711.613-1.422 1.226-2.231 1.716a7.636 7.636 0 01-1.275.613l-.172.05-.049.024h-.049l-.073.024c-.099.025-.197.074-.32.098l-.342.074c-.123.024-.221.024-.344.049a7.612 7.612 0 01-2.599-.123c-.809-.196-1.57-.49-2.231-.833-.172-.074-.343-.197-.49-.27-.148-.098-.32-.196-.466-.294a10.367 10.367 0 01-2.231-2.01 11.427 11.427 0 01-1.643-2.674 10.833 10.833 0 01-.613-1.912c-.05-.22-.074-.392-.099-.515-.024-.123-.024-.172-.024-.172s.024.05.049.172c.024.123.074.294.147.515.123.441.368 1.079.76 1.839s.98 1.618 1.766 2.476c.416.417.858.834 1.397 1.226.27.196.54.368.834.564.147.098.294.172.466.27.147.074.318.172.466.245.637.294 1.348.54 2.084.662.735.123 1.52.172 2.305.025 1.544-.22 2.942-1.3 4.241-2.526.638-.637 1.276-1.3 1.84-2.01.147-.172.27-.368.416-.564.147-.197.27-.368.393-.564.122-.196.27-.393.392-.589.123-.196.245-.392.368-.613.956-1.618 1.667-3.408 2.133-5.247.074-.22.098-.466.147-.687.049-.22.098-.465.123-.686.024-.22.073-.466.122-.687l.074-.735c.098-.907.098-1.864-.05-2.746-.146-.883-.44-1.717-.955-2.379a4.965 4.965 0 00-1.987-1.495c-1.569-.663-3.334-.589-4.928-.27-.81.171-1.57.392-2.33.637-.735.246-1.446.49-2.133.785a32.53 32.53 0 00-3.58 1.765c-1.03.589-1.887 1.177-2.598 1.668-.344.245-.662.49-.908.686-.27.196-.49.368-.662.515-.27.172-.466.343-.466.343z" id="prefix__path685" fill="url(#prefix__cb)" stroke-width=".245"/><radialGradient id="prefix__cc" cx="295" cy="228.73" r="13.79" gradientUnits="userSpaceOnUse" gradientTransform="matrix(.2452 0 0 .2452 -37.456 -29.294)"><stop stop-color="#7B2526" stop-opacity=".915" offset="0" id="prefix__stop687"/><stop stop-color="#9A0600" offset=".511" id="prefix__stop689"/><stop stop-color="#A52934" stop-opacity=".9" offset="1" id="prefix__stop691"/></radialGradient><path d="M30.684 27.077l.073-.074c.05-.049.098-.147.196-.22.099-.099.197-.197.344-.32.147-.122.318-.245.515-.367a6.106 6.106 0 011.446-.638c.147-.049.27-.073.442-.098.147-.024.27-.049.441-.073.172-.025.319-.025.49-.025.147 0 .32 0 .466.025.319.024.638.073.932.147.294.073.588.196.858.318.27.123.515.27.736.442.098.098.22.171.294.245l.27.27c.073.098.147.171.22.27.074.098.123.171.172.245.098.147.147.318.22.441.05.123.074.22.099.294.024.074.024.098.024.098s-.122-.098-.318-.245c-.099-.073-.221-.171-.368-.245l-.22-.147c-.075-.05-.173-.098-.246-.147-.172-.098-.368-.172-.589-.27-.196-.074-.44-.147-.662-.22a2.036 2.036 0 01-.367-.099l-.368-.073c-.245-.05-.515-.074-.76-.098-.123-.025-.246-.025-.393-.025h-.367c-.123 0-.27.025-.393.025-.098 0-.245.024-.368.024-.49.049-.956.123-1.373.22-.416.099-.76.172-1.005.246-.123.024-.22.049-.294.073-.098-.024-.147 0-.147 0z" id="prefix__path694" fill="url(#prefix__cc)" stroke-width=".245"/><radialGradient id="prefix__cd" cx="237.15" cy="345.18" r="7.261" gradientUnits="userSpaceOnUse" gradientTransform="matrix(.2452 0 0 .2452 -37.456 -29.294)"><stop stop-color="#7B2526" stop-opacity=".915" offset="0" id="prefix__stop696"/><stop stop-color="#9A0600" offset=".511" id="prefix__stop698"/><stop stop-color="#A52934" stop-opacity=".9" offset="1" id="prefix__stop700"/></radialGradient><path d="M19.821 53.313s.05.073.123.196c.074.122.172.294.27.49.196.392.392.858.637 1.25.025.025.074.123.098.148l.074.147c.074.098.123.196.172.27.122.171.245.343.392.49.074.074.123.147.196.196.074.05.123.123.172.147.122.098.171.147.171.147s-.024 0-.049.025c-.024.024-.098.049-.171.074a.882.882 0 01-.27.049h-.368c-.27-.025-.564-.148-.833-.344a1.23 1.23 0 01-.368-.343c-.05-.074-.123-.123-.172-.22-.073-.099-.073-.123-.147-.221a3.766 3.766 0 01-.196-.466c-.05-.147-.074-.319-.098-.466-.025-.319 0-.589.049-.834a2.13 2.13 0 01.196-.564c.024-.073.074-.122.074-.147z" id="prefix__path703" fill="url(#prefix__cd)" stroke-width=".245"/><path d="M32.596 43.995c-.466-.073-1.03-.245-1.103-.71-.025-.197.049-.418.122-.614 1.006-2.256 3.286-3.874 5.763-4.12.27-.024.539-.024.784.074.49.221.662.834.736 1.373a12.662 12.662 0 01-.05 3.727c-.318 1.766-5.001.466-6.252.27z" id="prefix__path705" stroke-width=".245" opacity=".46" fill="#fff"/><radialGradient id="prefix__ce" cx="167.3" cy="300.55" r="34.637" gradientTransform="rotate(1.652 1093.23 -1241.06) scale(.2452)" gradientUnits="userSpaceOnUse"><stop stop-color="#fff" stop-opacity=".7" offset=".289" id="prefix__stop707"/><stop stop-color="#FFFEFB" stop-opacity=".603" offset=".404" id="prefix__stop709"/><stop stop-color="#FFFBF1" stop-opacity=".491" offset=".536" id="prefix__stop711"/><stop stop-color="#FFF6DE" stop-opacity=".371" offset=".679" id="prefix__stop713"/><stop stop-color="#FFEFC4" stop-opacity=".246" offset=".827" id="prefix__stop715"/><stop stop-color="#FFE6A0" stop-opacity=".117" offset=".979" id="prefix__stop717"/><stop stop-color="#FFE59A" stop-opacity=".1" offset="1" id="prefix__stop719"/></radialGradient><path d="M3.933 49.07c-.442-1.054-1.055-2.034-1.496-3.113-.417-1.055-.662-2.256-.319-3.36.54-1.716 2.477-2.795 4.267-2.55 2.084.295 3.678 2.011 4.757 3.826-.76-.148-1.275-.908-2.011-1.177-.785-.295-1.667.024-2.427.416-.54.27-1.055.564-1.472 1.006-.882.956-1.005 2.427-.686 3.678.319 1.275 1.03 2.378 1.667 3.53.05.099.098.221.025.295-.074.073-.197-.123-.098-.123" id="prefix__path722" fill="url(#prefix__ce)" stroke-width=".245"/><radialGradient id="prefix__cf" cx="185.98" cy="370.12" r="25.525" gradientTransform="rotate(1.652 1093.23 -1241.06) scale(.2452)" gradientUnits="userSpaceOnUse"><stop stop-color="#fff" stop-opacity=".7" offset=".289" id="prefix__stop724"/><stop stop-color="#FFFEFB" stop-opacity=".603" offset=".404" id="prefix__stop726"/><stop stop-color="#FFFBF1" stop-opacity=".491" offset=".536" id="prefix__stop728"/><stop stop-color="#FFF6DE" stop-opacity=".371" offset=".679" id="prefix__stop730"/><stop stop-color="#FFEFC4" stop-opacity=".246" offset=".827" id="prefix__stop732"/><stop stop-color="#FFE6A0" stop-opacity=".117" offset=".979" id="prefix__stop734"/><stop stop-color="#FFE59A" stop-opacity=".1" offset="1" id="prefix__stop736"/></radialGradient><path d="M8.322 64.224c1.52 1.152 3.727 1.324 5.419.466.22-.098.416-.245.54-.442-1.03-.318-2.06-.613-3.09-.931-.393-.123-.81-.246-1.153-.49-.392-.295-.637-.736-.858-1.178-.392-.833-.711-4.487-2.378-3.04-1.594 1.397.318 4.708 1.52 5.615z" id="prefix__path739" fill="url(#prefix__cf)" stroke-width=".245"/><radialGradient id="prefix__cg" cx="228.47" cy="228.55" r="63.977" gradientTransform="rotate(1.652 1093.23 -1241.06) scale(.2452)" gradientUnits="userSpaceOnUse"><stop stop-color="#fff" stop-opacity=".7" offset=".289" id="prefix__stop741"/><stop stop-color="#FFFEFB" stop-opacity=".603" offset=".404" id="prefix__stop743"/><stop stop-color="#FFFBF1" stop-opacity=".491" offset=".536" id="prefix__stop745"/><stop stop-color="#FFF6DE" stop-opacity=".371" offset=".679" id="prefix__stop747"/><stop stop-color="#FFEFC4" stop-opacity=".246" offset=".827" id="prefix__stop749"/><stop stop-color="#FFE6A0" stop-opacity=".117" offset=".979" id="prefix__stop751"/><stop stop-color="#FFE59A" stop-opacity=".1" offset="1" id="prefix__stop753"/></radialGradient><path d="M33.577 20.922c-5.027 3.065-9.17 7.528-12.04 12.677-1.225 2.207-2.427 6.203-4.56 7.699-1.765 1.226-1.177-1.765-.907-2.893 1.152-4.953 5.566-9.686 9.391-12.775a32.02 32.02 0 018.116-4.708z" id="prefix__path756" fill="url(#prefix__cg)" stroke-width=".245"/><radialGradient id="prefix__ch" cx="387.73" cy="405.22" r="92.165" gradientTransform="rotate(1.652 1093.23 -1241.06) scale(.2452)" gradientUnits="userSpaceOnUse"><stop stop-color="#fff" stop-opacity=".7" offset=".289" id="prefix__stop758"/><stop stop-color="#FFFEFB" stop-opacity=".603" offset=".404" id="prefix__stop760"/><stop stop-color="#FFFBF1" stop-opacity=".491" offset=".536" id="prefix__stop762"/><stop stop-color="#FFF6DE" stop-opacity=".371" offset=".679" id="prefix__stop764"/><stop stop-color="#FFEFC4" stop-opacity=".246" offset=".827" id="prefix__stop766"/><stop stop-color="#FFE6A0" stop-opacity=".117" offset=".979" id="prefix__stop768"/><stop stop-color="#FFE59A" stop-opacity=".1" offset="1" id="prefix__stop770"/></radialGradient><path d="M70.332 74.792c-6.4 1.446-12.946 2.108-19.469 2.795 5.076 1.398 10.544 1.03 15.644-.27s9.93-3.53 14.687-5.86c1.986-.98 3.825-2.158 5.713-3.285-.196 1.52-6.326 3.481-7.773 4.02-2.893 1.08-5.835 1.913-8.802 2.6z" id="prefix__path773" fill="url(#prefix__ch)" stroke-width=".245"/><radialGradient id="prefix__cj" cx="422.15" cy="379.56" r="42.079" gradientTransform="rotate(1.652 1093.23 -1241.06) scale(.2452)" gradientUnits="userSpaceOnUse"><stop stop-color="#432C00" stop-opacity=".6" offset=".284" id="prefix__stop775"/><stop stop-color="#472F00" stop-opacity=".541" offset=".39" id="prefix__stop777"/><stop stop-color="#513700" stop-opacity=".472" offset=".512" id="prefix__stop779"/><stop stop-color="#604207" stop-opacity=".399" offset=".644" id="prefix__stop781"/><stop stop-color="#72511B" stop-opacity=".322" offset=".781" id="prefix__stop783"/><stop stop-color="#846230" stop-opacity=".244" offset=".921" id="prefix__stop785"/><stop stop-color="#8D6B3E" stop-opacity=".2" offset="1" id="prefix__stop787"/></radialGradient><path d="M62.363 72.56c-3.138.172-6.694-.882-8.067-3.702-1.3-2.624-.392-6.08.441-8.729.49.49.662 1.202 1.08 1.765 1.005 1.35 2.917 3.016 4.413 3.801.907.49 1.888.834 2.918.81 1.495-.025 2.868-.859 4.045-1.766 3.09-2.379 6.008-5.64 7.405-9.318.147-.368 1.717 1.25 1.815 1.422.368.613.662 1.594.686 2.305.074 1.815-1.103 3.923-2.01 5.444-1.25 2.133-2.992 3.947-5.027 5.32-2.28 1.52-4.953 2.501-7.699 2.649z" id="prefix__path790" fill="url(#prefix__cj)" stroke-width=".245"/><radialGradient id="prefix__ck" cx="199.78" cy="359.2" r="13.573" gradientTransform="rotate(1.652 1093.23 -1241.06) scale(.2452)" gradientUnits="userSpaceOnUse"><stop stop-color="#432C00" stop-opacity=".6" offset=".284" id="prefix__stop792"/><stop stop-color="#472F00" stop-opacity=".541" offset=".39" id="prefix__stop794"/><stop stop-color="#513700" stop-opacity=".472" offset=".512" id="prefix__stop796"/><stop stop-color="#604207" stop-opacity=".399" offset=".644" id="prefix__stop798"/><stop stop-color="#72511B" stop-opacity=".322" offset=".781" id="prefix__stop800"/><stop stop-color="#846230" stop-opacity=".244" offset=".921" id="prefix__stop802"/><stop stop-color="#8D6B3E" stop-opacity=".2" offset="1" id="prefix__stop804"/></radialGradient><path d="M6.654 56.745c-.122.662.442 1.275 1.03 1.619 1.153.686 2.575.882 3.899.662 1.324-.221 2.574-.785 3.702-1.545a19.088 19.088 0 01-5.296-1.692c-1.054-.466-3.016-.883-3.335.956z" id="prefix__path807" fill="url(#prefix__ck)" stroke-width=".245"/><radialGradient id="prefix__cl" cx="361.96" cy="306.05" r="29.014" gradientTransform="rotate(1.652 1093.23 -1241.06) scale(.2452)" gradientUnits="userSpaceOnUse"><stop stop-color="#432C00" stop-opacity=".6" offset=".284" id="prefix__stop809"/><stop stop-color="#472F00" stop-opacity=".541" offset=".39" id="prefix__stop811"/><stop stop-color="#513700" stop-opacity=".472" offset=".512" id="prefix__stop813"/><stop stop-color="#604207" stop-opacity=".399" offset=".644" id="prefix__stop815"/><stop stop-color="#72511B" stop-opacity=".322" offset=".781" id="prefix__stop817"/><stop stop-color="#846230" stop-opacity=".244" offset=".921" id="prefix__stop819"/><stop stop-color="#8D6B3E" stop-opacity=".2" offset="1" id="prefix__stop821"/></radialGradient><path d="M50.422 39.287c2.109 4.904 1.471 10.52.81 15.816 1.765-3.163 2.917-6.792 2.647-10.397-.27-3.629-2.133-7.233-5.296-8.998" id="prefix__path824" fill="url(#prefix__cl)" stroke-width=".245"/><radialGradient id="prefix__cm" cx="511.57" cy="408.6" r="19.848" gradientTransform="rotate(1.652 1093.23 -1241.06) scale(.2452)" gradientUnits="userSpaceOnUse"><stop stop-color="#432C00" stop-opacity=".6" offset=".284" id="prefix__stop826"/><stop stop-color="#472F00" stop-opacity=".541" offset=".39" id="prefix__stop828"/><stop stop-color="#513700" stop-opacity=".472" offset=".512" id="prefix__stop830"/><stop stop-color="#604207" stop-opacity=".399" offset=".644" id="prefix__stop832"/><stop stop-color="#72511B" stop-opacity=".322" offset=".781" id="prefix__stop834"/><stop stop-color="#846230" stop-opacity=".244" offset=".921" id="prefix__stop836"/><stop stop-color="#8D6B3E" stop-opacity=".2" offset="1" id="prefix__stop838"/></radialGradient><path d="M91.026 68.637a24.833 24.833 0 01-4.585 7.65c-1.618-.613-3.163-1.446-4.536-2.525 3.31-2.427 7.479-3.678 10.323-6.645" id="prefix__path841" fill="url(#prefix__cm)" stroke-width=".245"/><radialGradient id="prefix__cn" cx="505.29" cy="206.75" r="19.278" gradientTransform="rotate(1.652 1093.23 -1241.06) scale(.2452)" gradientUnits="userSpaceOnUse"><stop stop-color="#432C00" stop-opacity=".6" offset=".284" id="prefix__stop843"/><stop stop-color="#472F00" stop-opacity=".541" offset=".39" id="prefix__stop845"/><stop stop-color="#513700" stop-opacity=".472" offset=".512" id="prefix__stop847"/><stop stop-color="#604207" stop-opacity=".399" offset=".644" id="prefix__stop849"/><stop stop-color="#72511B" stop-opacity=".322" offset=".781" id="prefix__stop851"/><stop stop-color="#846230" stop-opacity=".244" offset=".921" id="prefix__stop853"/><stop stop-color="#8D6B3E" stop-opacity=".2" offset="1" id="prefix__stop855"/></radialGradient><path d="M81.464 18.274c2.599.638 5.124 1.496 7.576 2.526 1.177.49 2.33 1.03 3.482 1.569a19.295 19.295 0 01-2.476 3.506 47.177 47.177 0 00-5.787-6.13" id="prefix__path858" fill="url(#prefix__cn)" stroke-width=".245"/><radialGradient id="prefix__co" cx="566.74" cy="271.16" r="15.601" gradientTransform="rotate(1.652 1093.23 -1241.06) scale(.2452)" gradientUnits="userSpaceOnUse"><stop stop-color="#432C00" stop-opacity=".6" offset=".284" id="prefix__stop860"/><stop stop-color="#472F00" stop-opacity=".541" offset=".39" id="prefix__stop862"/><stop stop-color="#513700" stop-opacity=".472" offset=".512" id="prefix__stop864"/><stop stop-color="#604207" stop-opacity=".399" offset=".644" id="prefix__stop866"/><stop stop-color="#72511B" stop-opacity=".322" offset=".781" id="prefix__stop868"/><stop stop-color="#846230" stop-opacity=".244" offset=".921" id="prefix__stop870"/><stop stop-color="#8D6B3E" stop-opacity=".2" offset="1" id="prefix__stop872"/></radialGradient><path d="M99.976 43.112c-.049-1.348-1.226-2.574-.883-3.898.123-.466.442-.858.736-1.226 1.03-1.275 2.575-4.12 4.315-4.414-.858 3.016-4.29 6.155-4.168 9.538z" id="prefix__path875" fill="url(#prefix__co)" stroke-width=".245"/><radialGradient id="prefix__cp" cx="567.12" cy="358.57" r="13.195" gradientTransform="rotate(1.652 1093.23 -1241.06) scale(.2452)" gradientUnits="userSpaceOnUse"><stop stop-color="#432C00" stop-opacity=".6" offset=".284" id="prefix__stop877"/><stop stop-color="#472F00" stop-opacity=".541" offset=".39" id="prefix__stop879"/><stop stop-color="#513700" stop-opacity=".472" offset=".512" id="prefix__stop881"/><stop stop-color="#604207" stop-opacity=".399" offset=".644" id="prefix__stop883"/><stop stop-color="#72511B" stop-opacity=".322" offset=".781" id="prefix__stop885"/><stop stop-color="#846230" stop-opacity=".244" offset=".921" id="prefix__stop887"/><stop stop-color="#8D6B3E" stop-opacity=".2" offset="1" id="prefix__stop889"/></radialGradient><path d="M101.227 55.372a30.82 30.82 0 00.122 4.512c.147 1.471.417 2.918.785 4.34-.123-.466-1.398-1.422-1.717-1.986-.343-.613-.588-1.25-.613-1.962-.098-1.692.908-3.359 1.423-4.904z" id="prefix__path892" fill="url(#prefix__cp)" stroke-width=".245"/><radialGradient id="prefix__cq" cx="239.95" cy="349.72" r="13.234" gradientTransform="rotate(1.652 1093.23 -1241.06) scale(.2452)" gradientUnits="userSpaceOnUse"><stop stop-color="#432C00" stop-opacity=".6" offset=".284" id="prefix__stop894"/><stop stop-color="#472F00" stop-opacity=".541" offset=".39" id="prefix__stop896"/><stop stop-color="#513700" stop-opacity=".472" offset=".512" id="prefix__stop898"/><stop stop-color="#604207" stop-opacity=".399" offset=".644" id="prefix__stop900"/><stop stop-color="#72511B" stop-opacity=".322" offset=".781" id="prefix__stop902"/><stop stop-color="#846230" stop-opacity=".244" offset=".921" id="prefix__stop904"/><stop stop-color="#8D6B3E" stop-opacity=".2" offset="1" id="prefix__stop906"/></radialGradient><path d="M19.552 51.474c.441 2.868 1.79 5.59 3.825 7.65-1.202-1.202-3.752-1.08-4.781-2.795-.76-1.3-.074-3.85.956-4.855z" id="prefix__path909" fill="url(#prefix__cq)" stroke-width=".245"/><g class="prefix__st27" id="prefix__g913" transform="matrix(.2452 0 0 .2452 -37.456 -29.294)"><path class="prefix__st28" d="M377 331.6c1.1-1 2.1-2 3.2-2.9 1.1-1 2.2-1.9 3.4-2.8 1.1-.9 2.3-1.8 3.5-2.7 1.2-.9 2.4-1.7 3.6-2.6 1.2-.8 2.4-1.6 3.7-2.4 1.2-.8 2.5-1.6 3.8-2.3 1.3-.7 2.6-1.5 3.9-2.2 1.3-.7 2.6-1.4 3.9-2 1.3-.6 2.7-1.3 4-1.9.7-.3 1.4-.6 2-.9.7-.3 1.3-.6 2.1-.8l4.2-1.5c1.4-.4 2.9-.8 4.4-1.1 1.5-.3 3-.6 4.5-.7 1.5-.2 3.1-.2 4.6-.1 1.5.1 3.1.3 4.6.7 1.5.3 3 .9 4.5 1.5l3.7 1.6-3.8 1.7c-3.8 1.6-7.5 3.3-11.3 4.9l-11.3 4.9-.4-3.7c4.1.8 8.1 1.6 12.2 2.4l6.1 1.2 1.5.3c.5.1 1.1.2 1.7.4 1.1.4 2.4.9 3.6 2.2.3.3.5.7.7 1.2.1.2.1.4.2.7 0 .1 0 .2.1.3v.9c0 .3-.1.6-.1.8-.1.5-.3.9-.5 1.2-.9 1.4-2.1 2.1-3.2 2.6-1.2.5-2 .8-3.1 1.2-1 .4-2 .7-3 1-4 1.3-8.1 2.3-12.3 3l.2-3.4c2.5.8 5.1 1.6 7.5 3 1.2.7 2.4 1.6 3.4 2.6l.4.4.2.2.1.1v.1l.1.1.6.8.6 1c.2.3.3.7.5 1 1.1 2.7 1.3 5.7.7 8.5-.3 1.4-.8 2.7-1.5 4-.4.6-.7 1.2-1.2 1.8l-.6.7-.8.8c-2 1.9-4.6 3.2-7.2 3.9-1.3.4-2.7.6-4 .6h-2l-1-.1-1-.1c-1.4-.2-2.6-.5-3.9-1-1.3-.4-2.5-1-3.6-1.6-2.3-1.2-4.4-2.8-6.3-4.5 2.1 1.6 4.3 2.9 6.7 3.9 1.2.5 2.4.9 3.6 1.2 1.2.3 2.5.5 3.7.6l1 .1h.9c.6 0 1.2-.1 1.9-.1 1.2-.2 2.4-.4 3.6-.8 2.3-.8 4.5-2.1 6.1-3.8l.6-.6.6-.8c.3-.4.6-1 .9-1.5.5-1 .9-2.2 1.1-3.3.4-2.3.2-4.7-.8-6.7l-.4-.7-.4-.6-.6-.8s.1.1 0 .1l-.1-.1-.1-.2-.3-.3c-.8-.8-1.8-1.4-2.8-2-2.1-1.1-4.5-1.8-7-2.5l-6.9-2 7.1-1.4c4-.8 7.9-1.8 11.7-3.2 1-.3 1.9-.7 2.9-1 .9-.4 2-.7 2.7-1.1.8-.4 1.4-.9 1.6-1.2.1-.1.1-.1.1-.2v-.3.1-.1s0-.1-.1-.2c-.2-.3-.9-.7-1.7-.9-.4-.1-.8-.2-1.3-.3l-1.5-.3-6.1-1.2c-4.1-.8-8.1-1.6-12.2-2.4l-6.3-1.3 5.9-2.5 11.4-4.8c3.8-1.6 7.6-3.1 11.4-4.7l-.1 3.3c-1.2-.6-2.4-1.1-3.8-1.4-1.3-.4-2.6-.5-4-.7-1.4-.1-2.7-.1-4.1 0-1.4.1-2.8.3-4.2.5-1.4.2-2.8.6-4.1.9-1.4.4-2.7.8-4.1 1.3-.7.2-1.3.5-2 .7l-2 .8c-1.3.5-2.7 1.1-4 1.6-2.7 1.1-5.3 2.4-7.8 3.7-1.3.7-2.6 1.3-3.8 2-1.3.7-2.5 1.4-3.8 2.2-1.2.7-2.5 1.5-3.7 2.3l-3.6 2.4c-1.2.8-2.4 1.7-3.6 2.5-1.8 1.1-3 1.9-4.1 2.8z" id="prefix__path911"/></g><g class="prefix__st27" id="prefix__g917" transform="matrix(.2452 0 0 .2452 -37.456 -29.294)"><path class="prefix__st28" d="M574 277.8l4.8-7.2c1.7-2.4 3.4-4.7 5.1-7.1 1.8-2.3 3.5-4.6 5.3-6.9 1.9-2.2 3.6-4.5 5.6-6.7 3.8-4.4 7.7-8.7 11.9-12.8 2.1-2 4.1-4.1 6.3-6.1 2.1-2 4.3-3.9 6.6-5.8l3.4-2.8c1.1-.9 2.3-1.8 3.5-2.7l3.5-2.7 3.6-2.5c1.2-.8 2.4-1.7 3.6-2.5l3.7-2.4c2.5-1.6 5-3 7.6-4.5 5.1-2.9 10.4-5.4 15.8-7.8 1.3-.6 2.7-1.1 4.1-1.6l4.1-1.5 1.1-.4 1-.3 2.2-.7c1.4-.4 2.9-.8 4.4-1.2 3-.6 6.3-1 9.6-.7l1.2.1h.7l.5.1c.4.1.9.2 1.3.3.4.1.8.2 1.2.4 1.6.5 3.2 1.3 4.6 2.2 2.9 1.8 5.5 4.6 6.8 8.1.2.4.3.9.4 1.3v.5l.1.3.1.5c.1.4.1 1 .2 1.5v1.4c-.1 1.8-.4 3.6-1 5.2-1.1 3.3-3.2 6.1-5.5 8.4-2.3 2.3-4.9 4-7.5 5.6-2.6 1.5-5.1 2.9-7.6 4.3l-7.7 4.1c-5.1 2.7-10.3 5.3-15.5 7.9-5.2 2.6-10.5 5-15.7 7.4-5.2 2.4-10.6 4.7-15.9 7.1-5.3 2.3-10.6 4.5-16 6.7 3.5-1.6 6.9-3.2 10.4-4.8 3.5-1.6 7-3.1 10.5-4.6 3.5-1.5 7.1-2.9 10.7-4.3 1.8-.7 3.6-1.3 5.4-1.9 1.8-.6 3.6-1.2 5.5-1.8 1.8-.5 3.7-1.1 5.5-1.6 1.9-.5 3.7-1 5.6-1.4.9-.2 1.9-.4 2.8-.6l2.8-.5c1.9-.4 3.8-.6 5.7-.9 1.9-.3 3.8-.4 5.8-.6 1.9-.1 3.8-.2 5.8-.3 1 0 2.1.1 3.2.3 1.1.3 2.2.7 3.2 1.7.5.5.8 1 1.1 1.6.3.6.4 1.3.4 1.9.1 1.2-.2 2.3-.4 3.2-.9 3.7-2 7.5-3.2 11.1-.6 1.8-1.2 3.7-1.9 5.5-.7 1.8-1.3 3.6-2.2 5.4-.8 1.8-1.8 3.6-3.1 5.2-1.3 1.7-2.9 3.1-4.5 4.3-1.7 1.2-3.5 2.1-5.3 2.9l-2.7 1.2-2.7 1c-3.7 1.3-7.4 2.4-11.2 3.4-3.7.9-7.5 1.8-11.3 2.6-7.5 1.5-15 2.9-22.2 4.9l-.6-4.1c9.1-.2 18.3.1 27.3 1.1l3.4.4c1.2.1 2.4.3 3.7.7 1.2.4 2.6.9 3.8 1.9.6.5 1.2 1.1 1.6 1.7l.2.2.1.2v.1l.2.4c.1.3.3.8.4 1.2.4 1.6.3 3.1-.1 4.5s-1 2.5-1.7 3.6-1.5 2.1-2.3 3l-2.5 2.5-2.7 2.4c-.9.8-1.9 1.4-2.8 2.1-1.9 1.3-3.9 2.6-6 3.7-1 .6-2.1 1-3.2 1.5s-2.2.9-3.3 1.3c-.6.2-1.1.4-1.7.6l-1.7.5-1.7.5-1.7.4-1.7.4c-.6.1-1.2.2-1.7.3-1.2.2-2.3.4-3.5.5-2.3.3-4.7.3-7 .3-1.2-.1-2.4-.1-3.5-.2-1.2-.2-2.3-.3-3.5-.5-1.2-.2-2.3-.4-3.5-.7l-3.4-.9 1.6-3.8 10.3 5.4 2.6 1.4c.9.5 1.8 1 2.7 1.7.9.7 1.8 1.4 2.5 2.4s1.4 2.3 1.4 3.7v1c0 .4-.1.7-.2 1.1-.2.6-.4 1.2-.7 1.7-.6 1-1.2 1.9-1.8 2.7-.6.8-1.2 1.6-1.9 2.3-.6.8-1.3 1.5-2 2.2-2.7 2.9-5.8 5.6-9 7.9l-.5-3c1.4.5 2.8.9 4.1 1.5l2 .9 1 .5 1 .5c1.3.7 2.6 1.4 3.8 2.3l1.8 1.2 1.7 1.4c2.3 1.8 4.4 3.9 6.4 6.1 1 1.1 1.9 2.3 2.8 3.4.8 1.2 1.7 2.4 2.5 3.7 1.5 2.5 2.9 5.1 4 7.9l.8 2.1.7 2.1c.5 1.4.8 2.9 1.1 4.3.1.4.2.7.2 1.1l.2 1.1.3 2.2c.2 1.5.2 2.9.3 4.5 0 .8 0 1.7-.4 2.8-.2.5-.4 1.1-.8 1.6-.4.6-1 1.1-1.7 1.4l-.2.1-.3.1c-.2.1-.4.1-.5.1-.3.1-.6.1-.9.1-.6 0-1-.1-1.4-.1l-2.2-.5-2.1-.4-2.1-.6-2.1-.6c-.7-.2-1.4-.5-2.1-.7-1.4-.5-2.7-1-4.1-1.6-1.3-.6-2.7-1.2-3.9-1.9-2.6-1.3-5.1-2.9-7.4-4.6-2.4-1.7-4.6-3.5-6.7-5.5-1-1-2.1-2-3.1-3.1s-2-2.1-2.9-3.2c-.9-1.1-1.8-2.2-2.6-3.4l-2.4-3.6c-.7-1.2-1.4-2.5-2.1-3.7-.6-1.3-1.3-2.6-1.8-3.9l-1.6-4-1.2-4.1.6 1.8.3.9.3.9.7 1.7.8 1.7c.5 1.1 1.1 2.2 1.7 3.3.6 1 1.2 2.1 1.9 3.1 1.3 2.1 2.7 4.1 4 6.1l4.1 6.1c1.4 2.1 2.7 4.2 3.9 6.3 1.2 2.2 2.3 4.4 3.3 6.8.9 2.3 1.8 4.9 1.5 7.7l-.1.6-.1.5c-.1.4-.2.7-.3 1.1-.3.7-.6 1.3-1 1.9-.8 1.2-2.1 2.2-3.6 2.5-.2 0-.3.1-.6.1-.2 0-.3 0-.5.1h-1.2c-.7-.1-1.4-.3-2.1-.6-1.3-.5-2.4-1.3-3.4-2-1-.8-1.9-1.5-2.9-2.3-.9-.9-1.9-1.7-2.8-2.5-.9-.9-1.8-1.7-2.6-2.7l-1.3-1.4-1.2-1.4c-1.6-1.9-3-4-4.4-6.1-.7-1-1.3-2.1-1.9-3.2-.6-1.1-1.2-2.2-1.7-3.3-1-2.3-2-4.5-2.8-6.9l-.6-1.8-.5-1.8c-.4-1.2-.6-2.4-.9-3.6-.3-1.2-.4-2.4-.7-3.6-.2-1.2-.3-2.5-.4-3.7.4 2.4 1 4.8 1.6 7.2.3 1.2.7 2.4 1.1 3.5l.6 1.7.7 1.7c.9 2.3 2 4.5 3.1 6.6.6 1.1 1.2 2.1 1.8 3.2.7 1 1.3 2.1 2 3.1 1.4 2 2.8 3.9 4.4 5.8l1.2 1.4 1.2 1.3c.8.9 1.7 1.7 2.6 2.5.9.9 1.8 1.6 2.7 2.4.9.8 2 1.5 2.9 2.2 1.9 1.4 4 2.5 5.8 2 1.8-.5 3.2-2.5 3.4-4.6.2-2.1-.4-4.4-1.3-6.6-.5-1.1-.9-2.2-1.4-3.3-.5-1.1-1-2.2-1.6-3.2-1.1-2.1-2.4-4.2-3.7-6.3-2.5-4.2-5.3-8.3-7.6-12.7-.6-1.1-1.1-2.2-1.7-3.3-.5-1.1-1-2.3-1.4-3.4-.9-2.3-1.5-4.7-2-7.1l1.7 3.9 2 3.7c.7 1.2 1.5 2.4 2.2 3.6.8 1.2 1.6 2.3 2.4 3.4.8 1.1 1.7 2.2 2.6 3.3.9 1.1 1.9 2.1 2.8 3.1.9 1 2 1.9 3 2.9s2.1 1.8 3.1 2.7c2.1 1.8 4.3 3.4 6.7 4.9 1.1.8 2.4 1.4 3.5 2.1 1.2.7 2.4 1.3 3.6 1.9 1.2.6 2.5 1.1 3.8 1.7 1.2.6 2.6 1 3.8 1.4 1.3.5 2.6.8 3.9 1.2.7.2 1.3.4 2 .5l2.1.4 2 .4c.6.1.9 0 .8 0 0 0-.1.1-.1 0 0 0 .1-.1.1-.3.1-.3.1-.8.1-1.4-.1-1.3-.2-2.7-.3-4l-.3-2-.1-1c-.1-.3-.1-.7-.2-1-.3-1.3-.6-2.6-1-3.9l-.6-1.9-.7-1.9c-.9-2.5-2.2-4.9-3.6-7.2-.7-1.2-1.5-2.3-2.2-3.4-.8-1.1-1.6-2.2-2.5-3.2-1.8-2-3.7-4-5.7-5.7l-1.5-1.3-1.6-1.2c-1.1-.8-2.2-1.5-3.4-2.2l-.9-.5-.9-.5-1.8-.9c-1.2-.6-2.5-1.1-3.7-1.6l-2.8-1.2 2.3-1.7c3-2.3 5.8-4.8 8.3-7.6l1.8-2.1c.6-.7 1.2-1.4 1.7-2.2.6-.8 1.1-1.5 1.4-2.2.2-.3.3-.7.4-1 0-.2.1-.3.1-.4v-.3.1-.2c0-.5-.3-1.1-.7-1.6-.4-.5-1-1.1-1.7-1.6s-1.5-.9-2.3-1.3l-2.6-1.3-10.4-5.2-18-9.1 19.6 5.3 3.1.8c1.1.2 2.1.4 3.2.6 1.1.2 2.1.3 3.2.4 1.1.1 2.2.1 3.2.2 2.2 0 4.3 0 6.5-.3 1.1-.1 2.2-.3 3.2-.4.5-.1 1.1-.2 1.6-.3l1.6-.4 1.6-.4 1.6-.5 1.6-.5 1.5-.6 3-1.2c1-.5 2-.9 2.9-1.4 1.9-1 3.8-2.2 5.5-3.4.9-.7 1.8-1.3 2.6-2l2.4-2.1 2.3-2.3c.7-.7 1.3-1.5 1.8-2.4.5-.8.9-1.7 1.2-2.5.2-.8.3-1.6.1-2.2 0-.1 0-.1-.1-.2v-.2l-.2-.4v-.1c.1.3 0 .1.1.1l-.1-.1c-.2-.3-.4-.5-.7-.8-.6-.5-1.4-.8-2.3-1.1-.9-.3-1.9-.4-3-.6l-3.3-.4c-8.9-1-17.8-1.4-26.8-1.2l-16.9.3 16.3-4.4c7.5-2 15.1-3.4 22.5-4.9 3.7-.7 7.5-1.5 11.1-2.4 3.7-.9 7.3-1.9 10.8-3.1l2.7-1c.8-.3 1.7-.7 2.5-1 1.7-.7 3.3-1.5 4.8-2.5s2.8-2.1 3.8-3.5c1.1-1.4 2-2.9 2.8-4.6.8-1.6 1.5-3.4 2.2-5.2.7-1.8 1.3-3.5 1.9-5.3 1.2-3.6 2.3-7.2 3.3-10.9.2-.9.4-1.7.4-2.4s-.2-1.2-.6-1.7c-.8-.9-2.6-1.3-4.4-1.3-1.8 0-3.8.1-5.6.1-1.9.1-3.8.2-5.6.4-1.9.2-3.8.4-5.6.7l-2.8.4c-.9.2-1.9.4-2.8.5-1.9.3-3.7.8-5.6 1.2-1.9.4-3.7.9-5.5 1.4-1.8.5-3.6 1.1-5.5 1.6-1.8.6-3.6 1.1-5.4 1.7-3.6 1.2-7.2 2.5-10.8 3.8-3.6 1.3-7.1 2.8-10.7 4.2l-10.6 4.3c5-2.9 10.1-5.7 15.1-8.6l15.2-8.4 15.1-8.4c5-2.8 10-5.7 15-8.6l7.5-4.3c2.5-1.5 5-2.9 7.3-4.4 2.3-1.5 4.5-3.1 6.3-4.9.2-.2.4-.4.6-.7l.4-.4.1-.1c.1-.1 0 0 0 0l.1-.2c.4-.5.7-1 1.1-1.5.7-1 1.2-2.1 1.6-3.2.4-1.1.6-2.2.6-3.3v-.8c0-.3 0-.4-.1-.7l-.1-.5-.1-.3v.1-.1c-.1-.2-.1-.5-.2-.7-.7-1.9-2.3-3.6-4.2-4.9-1-.6-2-1.1-3.2-1.5-.3-.1-.6-.2-.8-.3-.3-.1-.5-.1-.8-.2l-.9-.2-.9-.1c-2.5-.2-5 0-7.7.5-1.3.3-2.6.6-3.9 1l-2 .6-1 .3-1 .4-4 1.5c-1.3.5-2.7.9-4 1.5-5.3 2.1-10.4 4.5-15.4 7.1-2.5 1.4-5 2.6-7.4 4.2l-3.7 2.2c-1.2.7-2.4 1.5-3.6 2.3l-3.6 2.3-3.5 2.5c-1.2.8-2.3 1.6-3.5 2.5l-3.4 2.6c-1.1.9-2.3 1.7-3.4 2.6l-3.3 2.7c-2.2 1.8-4.4 3.7-6.5 5.6-4.3 3.8-8.4 7.8-12.4 11.9-2 2-4 4.2-6 6.2-2 2.1-3.9 4.3-5.8 6.4-1.9 2.2-3.7 4.4-5.6 6.6z" id="prefix__path915"/></g><g class="prefix__st27" id="prefix__g921" transform="matrix(.2452 0 0 .2452 -37.456 -29.294)"><path class="prefix__st28" d="M530.6 400c1.2-.3 2.4-.6 3.6-.8 1.2-.2 2.4-.3 3.6-.4 1.2-.1 2.5 0 3.8.1 1.3.2 2.6.4 3.8.8 1.3.4 2.5 1 3.7 1.8.6.4 1.1.8 1.7 1.3.3.2.5.5.8.8l.4.4.1.1.1.1.1.2c.3.4.9 1.2 1.2 1.7.4.6.7 1.3.9 1.9.5 1.3.9 2.6 1.2 3.9.3 1.3.4 2.6.5 3.8 0 .6.1 1.2.1 1.9v.9c0 .4 0 .8-.1 1.2-.1.8-.3 1.9-1.2 3-.2.3-.5.5-.7.7l-.2.2-.1.1c-.1.1-.4.2-.5.3-.6.3-1.2.4-1.7.4-1 0-1.8-.2-2.4-.4-.6-.2-1.1-.4-1.7-.6l-3.3-1.2c-1.1-.4-2.2-.8-3.3-1.3-1.1-.4-2.2-.9-3.3-1.4-1.1-.5-2.2-1-3.2-1.5 1.9-1.2 3.3-.9 4.4-.2l3.6 1.8c1.2.6 2.3 1.3 3.6 2.2.6.5 1.2 1 1.8 1.6.1.2.3.3.4.5l.1.1v.1l.1.1.1.2.2.4.3.6c.7 1.7.8 3.3.6 4.8-.2 1.5-.7 2.9-1.2 4.2-.5 1.3-1.2 2.5-1.8 3.7-.3.6-.7 1.2-1.2 1.9-.5.6-1.2 1.3-2.3 1.7l-.2.1h-.2c-.1 0-.2 0-.4.1-.3 0-.5.1-.8.1-.5 0-.9-.1-1.3-.2-.8-.2-1.4-.5-2-.7-1.2-.4-2.5-1-3.7-1.5-2.4-1.1-4.8-2.3-7.1-3.6-1.1-.7-2.3-1.4-3.4-2.1-1.1-.7-2.2-1.4-3.2-2.2-2.1-1.6-4.1-3.2-6-5l3.3 2.1c1.1.7 2.2 1.3 3.4 2 2.3 1.3 4.6 2.4 6.9 3.5 2.3 1.1 4.7 2 7.1 2.8l3.6 1.2c.6.2 1.2.4 1.7.5.2 0 .5.1.6 0h.4s.1 0 0 0c.4-.2 1-1 1.6-2.2.6-1.1 1.1-2.2 1.5-3.3.4-1.1.7-2.2.8-3.3.1-.5 0-1 0-1.5-.1-.4-.2-1-.3-1.3 0-.1 0-.1-.1-.3l-.3-.4-.1-.2.1.1v-.1c-.1-.1-.1-.2-.2-.3-.3-.3-.7-.7-1.1-1-.9-.6-2-1.2-3.1-1.8-1.1-.6-2.3-1.2-3.4-1.7-1.2-.5-2.2-1.1-2.7-3.4 1.2 0 2.4 0 3.6.1 1.2.1 2.4.1 3.6.3 1.2.1 2.4.2 3.5.4 1.2.1 2.3.3 3.5.5l1.7.3c.5.1.9.1 1 0 .1-.1-.2 0-.3.1-.1.1-.1 0-.1-.3v-.6l-.1-.8-.2-1.6c-.1-1.1-.3-2.1-.5-3.1s-.5-2-.9-2.8c-.2-.4-.4-.9-.6-1.3-.3-.4-.3-.6-.7-1.2-.5-.7-1.1-1.4-1.8-2-.3-.3-.7-.6-1.1-.9-.4-.3-.8-.5-1.3-.8-.9-.5-1.9-.9-2.9-1.3s-2.1-.7-3.2-1c-1.1-.3-2.2-.6-3.4-.9-1.4-.5-2.6-.8-3.8-1.2z" id="prefix__path919"/></g><g class="prefix__st27" id="prefix__g925" transform="matrix(.2452 0 0 .2452 -37.456 -29.294)"><path class="prefix__st28" d="M410.5 154.7c.1-1.5.6-3 1.2-4.4.6-1.4 1.4-2.8 2.4-4 1.9-2.5 4.3-4.6 7-6.1l.5-.3.3-.2.2-.1c.3-.2.6-.3 1-.5.7-.4 1.4-.7 2.2-.9 1.4-.6 2.9-1 4.4-1.4 3-.8 6-1.3 8.9-1.6l1.1-.1.6-.1h.6c.9-.1 1.7-.1 2.5 0 .9.1 1.7.2 2.6.6.9.3 1.8.8 2.6 1.7.4.4.7.9.8 1.5l.1.4v.3c0 .1.1.3.1.5v.4c0 1.1-.3 2-.6 2.7-.3.8-.6 1.4-.9 2.1l-.9 2-1.9 4c-.6 1.3-1.3 2.7-1.9 4-1.3 2.7-2.7 5.3-4.1 7.9 1.9-4.3 4.1-8.6 6.7-12.5 1.3-2 2.8-3.9 4.3-5.7 1.6-1.8 3.3-3.5 5.1-5.1 1.8-1.6 3.8-3 5.9-4.2 2.1-1.2 4.4-2.3 6.7-3 2.3-.8 4.8-1.3 7.2-1.6 2.5-.3 5-.3 7.5 0s5 .9 7.3 1.9l1.7.8 1.7.9c1.1.6 2.2 1.4 3.2 2.4.5.5 1 1.1 1.3 1.8.1.2.2.3.3.5 0 .1.1.2.1.3l.1.1v.1l.1.1c.1.3.2.5.3.9.2.9.3 1.7.2 2.4 0 .8-.2 1.5-.4 2.2-.9 2.7-2.6 4.8-4.2 6.6-.8.9-1.7 1.8-2.5 2.6l-2.4 2.6a117.878 117.878 0 01-10.3 9.7c-1.8 1.5-3.8 2.9-5.8 4.2 8.1-5.9 16.3-11.8 25.4-16.2 1.1-.6 2.3-1.1 3.5-1.6 1.2-.5 2.3-1 3.5-1.4 1.2-.5 2.4-.8 3.6-1.2 1.2-.4 2.5-.7 3.9-.8 1.3-.1 2.9.1 4.2.7 1.4.7 2.4 1.7 3.2 2.9 1.5 2.4 2.2 5 2.7 7.5h-.2v.5l.1.5.1 1.1c.1.7.2 1.4.2 2.2.1 1.5.1 2.9-.1 4.4-.2 1.5-.5 3-1.1 4.4l-.1.3v.2l-.1.1-.2.5c-.1.3-.3.6-.5 1-.4.7-.9 1.3-1.3 1.9-2 2.3-4.5 4-7.1 5.2-2.6 1.3-5.3 2.2-8 3.1l-.5-1.2c1.9-.8 3.8-1.6 5.8-2.2 2-.6 4.1-1 6.2-.9 1.1 0 2.1.2 3.1.5s2 .7 2.9 1.2c.9.5 1.7 1.2 2.4 2s1.2 1.7 1.5 2.8c.6 2 .4 4.2-.2 6.2-.7 2-1.9 3.7-3.3 5.1-3 2.9-6.8 4.5-10.6 6 1.9-.8 3.7-1.7 5.5-2.7 1.8-1 3.5-2.2 4.9-3.6 1.4-1.4 2.5-3.2 3.1-5.1.6-1.9.7-4 .1-5.8-.3-.9-.8-1.8-1.5-2.5-.6-.7-1.4-1.3-2.3-1.8-1.7-.9-3.7-1.4-5.6-1.4-4 0-7.7 1.7-11.4 3.3l-.5-1.2c2.7-1 5.3-2 7.8-3.3.6-.3 1.2-.7 1.8-1 .6-.4 1.2-.7 1.7-1.2.6-.4 1.1-.9 1.6-1.3.5-.5.9-1 1.4-1.5.4-.5.8-1.1 1.1-1.6l.2-.4.2-.5.2-.5.1-.1v-.1l.1-.2c.5-1.2.7-2.5.8-3.9.1-1.3.1-2.7-.1-4.1-.1-.7-.1-1.4-.3-2.1l-.2-1-.1-.5v-.5c-.5.1-.1 0-.2 0-.3-2.4-.8-4.8-2-6.7-.6-.9-1.3-1.7-2.2-2.2-1-.5-2-.7-3.1-.7s-2.3.2-3.5.5c-1.2.3-2.4.6-3.6 1-1.2.4-2.4.8-3.5 1.2-1.2.4-2.3.9-3.5 1.4-9.2 3.9-17.6 9.4-26 14.9 1.2-2.1 2.6-4.1 4-6 1.4-1.9 2.9-3.7 4.5-5.5 1.6-1.8 3.2-3.5 4.8-5.2l2.5-2.5c.8-.8 1.7-1.7 2.4-2.5 1.5-1.6 2.8-3.4 3.4-5.2.1-.4.2-.9.3-1.3.1-.4 0-.8 0-1.1 0-.2-.2-.5-.2-.8 0 0 .1.2 0 .1v-.1s0-.1-.1-.1c0-.1-.1-.2-.1-.3-.2-.4-.5-.7-.8-1.1-.6-.7-1.4-1.3-2.4-1.9l-1.4-.8-1.5-.7c-2-.9-4.1-1.5-6.3-1.8-4.4-.7-9-.2-13.3 1-2.2.6-4.3 1.5-6.3 2.5-2.1 1-4 2.3-5.8 3.7-1.8 1.4-3.6 2.9-5.2 4.6-1.6 1.7-3.2 3.4-4.6 5.3-1.5 1.8-2.8 3.7-4.1 5.7-1.3 2-2.5 4-3.7 6 .8-2.9 1.7-5.7 2.6-8.5.4-1.4.9-2.8 1.4-4.2l1.4-4.2.7-2.1c.2-.7.5-1.4.7-2 .2-.6.3-1.2.2-1.6v-.4.1l-.1-.1c-.1-.2-.2-.3-.3-.4-.4-.5-1.6-.8-2.8-.9-.6 0-1.3 0-1.9.1l-2.1.3c-2.9.4-5.7.9-8.4 1.7-1.4.3-2.7.8-4 1.2-.7.2-1.3.5-1.9.7-.3.1-.7.3-1 .4l-.3.1-.2.1-.5.2c-2.5 1.2-4.8 2.7-7 4.6-1 .9-2 2-2.9 3.1-1.1 1.2-1.9 2.4-2.6 3.8z" id="prefix__path923"/></g><linearGradient id="prefix__cr" x1="404.92" x2="407.78" y1="282.36" y2="209.92" gradientTransform="rotate(1.652 1093.23 -1241.06) scale(.2452)" gradientUnits="userSpaceOnUse"><stop stop-color="#B1615D" offset="0" id="prefix__stop927"/><stop stop-color="#A84E4E" offset=".134" id="prefix__stop929"/><stop stop-color="#912431" offset=".5" id="prefix__stop931"/><stop stop-color="#6E2A35" offset=".814" id="prefix__stop933"/><stop stop-color="#5C2C37" offset="1" id="prefix__stop935"/></linearGradient><path d="M54.272 33.869c-.859-1.545-.957-3.433-.515-5.15.441-1.716 1.422-3.236 2.55-4.585 1.348-1.593 3.065-2.991 5.124-3.383 2.109-.393 4.291.343 6.155 1.422 1.103.662 2.157 1.446 2.868 2.525 1.055 1.643 1.177 3.727.957 5.689-.294 2.599-1.25 5.271-3.261 6.988-3.752 3.187-11.623.49-13.878-3.506z" id="prefix__path938" fill="url(#prefix__cr)" stroke-width=".245" opacity=".17"/><linearGradient id="prefix__cs" x1="458.04" x2="459.33" y1="291.67" y2="259.09" gradientTransform="rotate(1.652 1093.23 -1241.06) scale(.2452)" gradientUnits="userSpaceOnUse"><stop stop-color="#B1615D" offset="0" id="prefix__stop940"/><stop stop-color="#A84E4E" offset=".134" id="prefix__stop942"/><stop stop-color="#912431" offset=".5" id="prefix__stop944"/><stop stop-color="#6E2A35" offset=".814" id="prefix__stop946"/><stop stop-color="#5C2C37" offset="1" id="prefix__stop948"/></linearGradient><path d="M71.877 36.173c.416-.98 1.078-1.937 2.084-2.206 1.324-.368 2.648.588 3.482 1.667.49.637.931 1.349 1.103 2.158.147.662.123 1.348 0 2.035-.123.564-.319 1.103-.687 1.52-1.177 1.25-3.53.785-4.756-.147-1.864-1.447-2.11-2.918-1.226-5.027z" id="prefix__path951" fill="url(#prefix__cs)" stroke-width=".245" opacity=".17"/><linearGradient id="prefix__cu" x1="463.69" x2="464.65" y1="247.09" y2="222.66" gradientTransform="rotate(1.652 1093.23 -1241.06) scale(.2452)" gradientUnits="userSpaceOnUse"><stop stop-color="#B1615D" offset="0" id="prefix__stop953"/><stop stop-color="#A84E4E" offset=".134" id="prefix__stop955"/><stop stop-color="#912431" offset=".5" id="prefix__stop957"/><stop stop-color="#6E2A35" offset=".814" id="prefix__stop959"/><stop stop-color="#5C2C37" offset="1" id="prefix__stop961"/></linearGradient><path d="M74.206 29.332a3.448 3.448 0 01.319-3.015c.417-.638 1.103-1.153 1.863-1.153 1.08 0 1.888.956 2.379 1.913.392.76.686 1.618.49 2.427-.662 2.795-4.217 2.035-5.051-.172z" id="prefix__path964" fill="url(#prefix__cu)" stroke-width=".245" opacity=".17"/><linearGradient id="prefix__cv" x1="482.22" x2="483.06" y1="268.89" y2="247.66" gradientTransform="rotate(1.652 1093.23 -1241.06) scale(.2452)" gradientUnits="userSpaceOnUse"><stop stop-color="#B1615D" offset="0" id="prefix__stop966"/><stop stop-color="#A84E4E" offset=".134" id="prefix__stop968"/><stop stop-color="#912431" offset=".5" id="prefix__stop970"/><stop stop-color="#6E2A35" offset=".814" id="prefix__stop972"/><stop stop-color="#5C2C37" offset="1" id="prefix__stop974"/></linearGradient><path d="M78.767 34.236c-.123-.196-.27-.416-.32-.662-.097-.637.491-1.201 1.08-1.495a5.164 5.164 0 011.888-.515c.392-.025.833 0 1.152.22.343.221.515.638.662 1.006.22.54.417 1.079.417 1.667 0 .81-.49 1.618-1.201 2.035-2.011 1.153-2.796-.858-3.678-2.256z" id="prefix__path977" fill="url(#prefix__cv)" stroke-width=".245" opacity=".17"/><linearGradient id="prefix__cw" x1="504.94" x2="506.81" y1="391.09" y2="343.76" gradientTransform="rotate(1.652 1093.23 -1241.06) scale(.2452)" gradientUnits="userSpaceOnUse"><stop stop-color="#B1615D" offset="0" id="prefix__stop979"/><stop stop-color="#A84E4E" offset=".134" id="prefix__stop981"/><stop stop-color="#912431" offset=".5" id="prefix__stop983"/><stop stop-color="#6E2A35" offset=".814" id="prefix__stop985"/><stop stop-color="#5C2C37" offset="1" id="prefix__stop987"/></linearGradient><path d="M81.268 58.952c.343-2.035 1.839-4.046 3.874-4.266.686-.074 1.397.049 2.06.27 1.838.588 3.53 2.06 3.726 3.972.172 1.716-.833 3.31-1.912 4.634-.834 1.005-1.766 2.01-2.967 2.5-4.463 1.84-5.296-4.094-4.781-7.11z" id="prefix__path990" fill="url(#prefix__cw)" stroke-width=".245" opacity=".17"/><linearGradient id="prefix__az" x1="513.67" x2="514.45" y1="332.13" y2="312.17" gradientTransform="rotate(1.652 1093.23 -1241.06) scale(.2452)" gradientUnits="userSpaceOnUse"><stop stop-color="#B1615D" offset="0" id="prefix__stop992"/><stop stop-color="#A84E4E" offset=".134" id="prefix__stop994"/><stop stop-color="#912431" offset=".5" id="prefix__stop996"/><stop stop-color="#6E2A35" offset=".814" id="prefix__stop998"/><stop stop-color="#5C2C37" offset="1" id="prefix__stop1000"/></linearGradient><path d="M87.349 48.31c.27-.27.588-.514.956-.637.637-.196 1.373.098 1.814.613.442.515.613 1.226.589 1.888-.025 1.716-1.226 3.04-2.82 2.133-.441-.245-1.962-1.275-2.06-1.79-.098-.588 1.128-1.814 1.52-2.206z" id="prefix__path1003" fill="url(#prefix__az)" stroke-width=".245" opacity=".17"/><linearGradient id="prefix__ba" x1="481.16" x2="481.95" y1="336.32" y2="316.28" gradientTransform="rotate(1.652 1093.23 -1241.06) scale(.2452)" gradientUnits="userSpaceOnUse"><stop stop-color="#B1615D" offset="0" id="prefix__stop1005"/><stop stop-color="#A84E4E" offset=".134" id="prefix__stop1007"/><stop stop-color="#912431" offset=".5" id="prefix__stop1009"/><stop stop-color="#6E2A35" offset=".814" id="prefix__stop1011"/><stop stop-color="#5C2C37" offset="1" id="prefix__stop1013"/></linearGradient><path d="M78.105 51.327c-.098-.172-.172-.344-.172-.515 0-.27.123-.49.245-.711.392-.662.834-1.374 1.57-1.619.465-.171 1.005-.098 1.446.098 1.177.54 1.79 2.06 1.275 3.261-.343.834-1.348 1.57-2.305 1.52-1.177-.073-1.544-1.054-2.06-2.034z" id="prefix__path1016" fill="url(#prefix__ba)" stroke-width=".245" opacity=".17"/><linearGradient id="prefix__bb" x1="336.94" x2="338.12" y1="236.55" y2="206.85" gradientTransform="rotate(1.652 1093.23 -1241.06) scale(.2452)" gradientUnits="userSpaceOnUse"><stop stop-color="#B1615D" offset="0" id="prefix__stop1018"/><stop stop-color="#A84E4E" offset=".134" id="prefix__stop1020"/><stop stop-color="#912431" offset=".5" id="prefix__stop1022"/><stop stop-color="#6E2A35" offset=".814" id="prefix__stop1024"/><stop stop-color="#5C2C37" offset="1" id="prefix__stop1026"/></linearGradient><path d="M42.82 25.556c-.146-.147-.293-.318-.367-.515-.098-.245-.049-.514 0-.76a5.619 5.619 0 011.815-3.09c.49-.416 1.078-.784 1.716-.857 1.03-.123 2.06.54 2.574 1.422.515.907.564 2.01.344 3.016-.172.833-.564 1.667-1.177 2.231-1.84 1.765-3.556-.049-4.904-1.447z" id="prefix__path1029" fill="url(#prefix__bb)" stroke-width=".245" opacity=".17"/><linearGradient id="prefix__bc" x1="368.49" x2="369.46" y1="221.2" y2="196.71" gradientTransform="rotate(1.652 1093.23 -1241.06) scale(.2452)" gradientUnits="userSpaceOnUse"><stop stop-color="#B1615D" offset="0" id="prefix__stop1031"/><stop stop-color="#A84E4E" offset=".134" id="prefix__stop1033"/><stop stop-color="#912431" offset=".5" id="prefix__stop1035"/><stop stop-color="#6E2A35" offset=".814" id="prefix__stop1037"/><stop stop-color="#5C2C37" offset="1" id="prefix__stop1039"/></linearGradient><path d="M51.942 18.863c.466-.344 1.005-.662 1.594-.687.883-.074 1.74.54 2.109 1.349.367.809.27 1.79-.147 2.574-.613 1.177-2.845 3.188-3.826 1.422-.539-1.03-.662-3.972.27-4.658z" id="prefix__path1042" fill="url(#prefix__bc)" stroke-width=".245" opacity=".17"/><linearGradient id="prefix__bd" x1="342.36" x2="343.35" y1="430.25" y2="405.05" gradientTransform="rotate(1.652 1093.23 -1241.06) scale(.2452)" gradientUnits="userSpaceOnUse"><stop stop-color="#B1615D" offset="0" id="prefix__stop1044"/><stop stop-color="#A84E4E" offset=".134" id="prefix__stop1046"/><stop stop-color="#912431" offset=".5" id="prefix__stop1048"/><stop stop-color="#6E2A35" offset=".814" id="prefix__stop1050"/><stop stop-color="#5C2C37" offset="1" id="prefix__stop1052"/></linearGradient><path d="M42.747 74.694c-.196-.05-.392-.098-.54-.245-.22-.246-.22-.613-.146-.932.368-1.815 1.667-3.433 3.359-4.169.466-.196.956-.343 1.471-.245.932.147 1.594 1.03 1.937 1.913.368.98.49 2.108.025 3.04-1.08 2.133-4.34 1.08-6.106.638z" id="prefix__path1055" fill="url(#prefix__bd)" stroke-width=".245" opacity=".17"/><linearGradient id="prefix__be" x1="373.17" x2="373.8" y1="432.13" y2="416.16" gradientTransform="rotate(1.652 1093.23 -1241.06) scale(.2452)" gradientUnits="userSpaceOnUse"><stop stop-color="#B1615D" offset="0" id="prefix__stop1057"/><stop stop-color="#A84E4E" offset=".134" id="prefix__stop1059"/><stop stop-color="#912431" offset=".5" id="prefix__stop1061"/><stop stop-color="#6E2A35" offset=".814" id="prefix__stop1063"/><stop stop-color="#5C2C37" offset="1" id="prefix__stop1065"/></linearGradient><path d="M51.722 75.724a18.896 18.896 0 01.098-3.114c.024-.123.024-.246.098-.344.122-.147.318-.171.49-.171.834.024 1.667.54 1.986 1.324.319.784.098 1.765-.564 2.305-.662.514-1.716.514-2.33-.074" id="prefix__path1068" fill="url(#prefix__be)" stroke-width=".245" opacity=".17"/><linearGradient id="prefix__bf" x1="455.64" x2="456.79" y1="410.21" y2="380.95" gradientTransform="rotate(1.652 1093.23 -1241.06) scale(.2452)" gradientUnits="userSpaceOnUse"><stop stop-color="#B1615D" offset="0" id="prefix__stop1070"/><stop stop-color="#A84E4E" offset=".134" id="prefix__stop1072"/><stop stop-color="#912431" offset=".5" id="prefix__stop1074"/><stop stop-color="#6E2A35" offset=".814" id="prefix__stop1076"/><stop stop-color="#5C2C37" offset="1" id="prefix__stop1078"/></linearGradient><path d="M71.337 65.695c.54-.858 1.3-1.716 2.33-1.839.784-.074 1.544.319 2.157.834.687.564 1.25 1.3 1.496 2.157.564 1.937-.932 3.678-2.77 4.169-1.496.392-3.703-.368-4.978-1.08.147-1.446.98-3.015 1.765-4.241z" id="prefix__path1081" fill="url(#prefix__bf)" stroke-width=".245" opacity=".17"/><radialGradient id="prefix__bh" cx="277.91" cy="327.83" r="22.34" gradientUnits="userSpaceOnUse" gradientTransform="matrix(.2452 0 0 .2452 -37.456 -29.294)"><stop stop-color="#7B2526" stop-opacity=".915" offset="0" id="prefix__stop1083"/><stop stop-color="#9A0600" offset=".511" id="prefix__stop1085"/><stop stop-color="#A52934" stop-opacity=".9" offset="1" id="prefix__stop1087"/></radialGradient><path d="M23.401 49.66s.221-.099.613-.221c.197-.074.442-.123.736-.197.294-.073.613-.147.956-.196.172-.024.368-.049.564-.073.196-.025.392-.025.613-.05.417-.024.858-.048 1.3-.024.22 0 .466 0 .686.025.245.024.466.024.711.073.466.05.957.147 1.422.245.466.098.957.221 1.398.368.466.147.907.319 1.324.49.196.099.417.172.613.27.196.098.392.196.564.295.368.196.711.416 1.005.613.613.416 1.03.882 1.3 1.225.122.172.22.32.27.417l.073.147s-.049-.049-.122-.098c-.074-.073-.221-.171-.393-.294a9.597 9.597 0 00-1.47-.785c-.32-.122-.663-.27-1.03-.392-.197-.073-.368-.122-.565-.196-.196-.049-.392-.123-.613-.196-.196-.074-.416-.123-.637-.196-.22-.074-.442-.123-.638-.172-.441-.123-.882-.22-1.324-.319-.441-.098-.907-.171-1.348-.27a27.912 27.912 0 00-1.3-.196c-.417-.049-.834-.098-1.25-.122-.196-.025-.393-.025-.589-.05-.196 0-.368-.024-.54-.024-.343-.024-.661-.024-.956-.049-.294 0-.539-.024-.735-.024-.392 0-.638-.025-.638-.025z" id="prefix__path1090" fill="url(#prefix__bh)" stroke-width=".245"/><radialGradient id="prefix__bi" cx="337.72" cy="336.59" r="36.433" gradientTransform="rotate(1.652 1093.23 -1241.06) scale(.2452)" gradientUnits="userSpaceOnUse"><stop stop-color="#fff" stop-opacity=".7" offset=".289" id="prefix__stop1092"/><stop stop-color="#FFFEFB" stop-opacity=".603" offset=".404" id="prefix__stop1094"/><stop stop-color="#FFFBF1" stop-opacity=".491" offset=".536" id="prefix__stop1096"/><stop stop-color="#FFF6DE" stop-opacity=".371" offset=".679" id="prefix__stop1098"/><stop stop-color="#FFEFC4" stop-opacity=".246" offset=".827" id="prefix__stop1100"/><stop stop-color="#FFE6A0" stop-opacity=".117" offset=".979" id="prefix__stop1102"/><stop stop-color="#FFE59A" stop-opacity=".1" offset="1" id="prefix__stop1104"/></radialGradient><path d="M49.27 52.307c-.712 2.918-1.447 5.934-3.188 8.386-.785 1.128-1.765 2.109-2.403 3.335.466-.785 1.25-1.3 1.937-1.888 1.741-1.52 2.82-3.678 3.457-5.91.613-2.23.81-4.536 1.006-6.84" id="prefix__path1107" fill="url(#prefix__bi)" stroke-width=".245" opacity=".35"/><g class="prefix__st27" id="prefix__g1111" transform="matrix(.2452 0 0 .2452 -37.456 -29.294)"><path class="prefix__st28" d="M382.8 356.9s.5.9 1.2 2.5 1.8 3.9 3.1 6.5c.7 1.3 1.5 2.7 2.3 4.1.4.7.9 1.4 1.4 2 .3.3.6.7.8 1 .3.3.5.6.8 1 1.2 1.3 2.5 2.5 4 3.5s3.1 1.8 4.7 2.3c.4.1.8.2 1.3.3.2.1.4.1.6.1l.6.1c1.1.1 1.7.1 2.6 0 1.7-.2 3.4-.7 4.9-1.4 1.5-.7 2.9-1.6 4-2.7.3-.3.6-.5.8-.8.3-.3.5-.6.7-.8.2-.2.3-.4.4-.5 0 0 .1-.1 0-.3-.2-.4-.7-1.1-1-1.6l-1.2-1.5c-.8-.9-1.5-1.7-2.1-2.3-.6-.6-1.1-1.1-1.5-1.4-.4-.3-.6-.5-.6-.5s.2.1.7.3c.4.2 1.1.5 1.9.9.8.4 1.7 1 2.7 1.8.5.4 1 .8 1.5 1.3.3.2.5.5.8.8.3.3.5.6.8 1 .3.4.5 1.1.4 1.9-.1.7-.4 1.2-.6 1.6-.5.8-1 1.5-1.6 2.2-1.2 1.4-2.8 2.7-4.6 3.7-1.8 1-3.9 1.8-6.1 2.1-1 .1-2.4.2-3.3.1h-.5l-.4-.1c-.3 0-.6-.1-.8-.1-.6-.1-1.1-.2-1.6-.4-2.2-.6-4.2-1.7-5.9-3-1.7-1.3-3.2-2.8-4.4-4.4l-.9-1.2c-.3-.4-.5-.8-.8-1.2-.5-.9-.9-1.6-1.3-2.5-.8-1.6-1.4-3.2-1.8-4.7-.9-2.9-1.4-5.4-1.7-7.1-.2-1.6-.3-2.6-.3-2.6z" id="prefix__path1109"/></g><g class="prefix__st27" id="prefix__g1115" transform="matrix(.2452 0 0 .2452 -37.456 -29.294)"><path class="prefix__st28" d="M521.6 412s.4.1 1 .4c.6.2 1.5.6 2.5 1 .5.2 1 .4 1.6.7.6.2 1.1.5 1.7.8.6.3 1.2.5 1.8.8.6.3 1.3.6 1.9.9.6.3 1.3.6 1.9.8.6.3 1.2.6 1.8.8.6.3 1.2.5 1.7.8.6.3 1.1.5 1.6.7l2.4 1.2c.6.3.9.5.9.5s-.4.1-1.1.3c-.7.1-1.6.3-2.8.3-1.2 0-2.5-.1-3.9-.4-.7-.2-1.4-.3-2.1-.6-.7-.2-1.4-.5-2.1-.8-.7-.3-1.4-.7-2-1.1-.7-.4-1.3-.8-1.9-1.2-.6-.4-1.1-.9-1.6-1.3s-.9-.9-1.3-1.3c-.8-.9-1.3-1.7-1.7-2.3-.2-.6-.3-1-.3-1z" id="prefix__path1113"/></g><g class="prefix__st27" id="prefix__g1119" transform="matrix(.2452 0 0 .2452 -37.456 -29.294)"><path class="prefix__st28" d="M496.8 191.1s.7-.6 1.9-1.6c.6-.5 1.3-1.1 2.2-1.7.9-.6 1.9-1.4 3-2.1 2.3-1.5 5.1-3 8.5-4 1.7-.5 3.5-.8 5.4-.9 1.9-.1 4.1.1 6.2 1.3.5.3 1 .6 1.4 1.1l.2.2.3.4c.2.3.4.5.6.7.6 1 1 2.1 1.2 3.2.2 1.1.2 2.1 0 3.2l-.3 1.5c-.1.3-.1.4-.3.8l-.3.6c-.9 1.8-2 3.1-3.1 4.3-1.2 1.1-2.3 2-3.4 2.8-2.2 1.7-4.5 2.6-6.1 2.7-.8.1-1.5 0-1.9 0-.4-.1-.6-.1-.6-.1s.2 0 .6-.1c.4-.1 1-.2 1.7-.5s1.5-.7 2.3-1.4c.8-.6 1.7-1.4 2.5-2.3.9-.9 1.8-2 2.7-3.1.9-1.1 1.6-2.4 2.1-3.6.1-.1.1-.4.2-.6 0-.1.1-.3.1-.4.1-.3.1-.7.2-1 0-.7 0-1.3-.1-2-.1-.6-.4-1.2-.7-1.7-.1-.1-.2-.3-.2-.3s0-.1-.1-.1l-.2-.2c-.2-.1-.4-.4-.7-.5-1-.6-2.5-.9-4-.9-1.6 0-3.2.2-4.7.5s-3 .7-4.4 1.2c-1.4.5-2.7.9-3.9 1.4-2.4 1-4.4 1.9-5.9 2.5-1.6.4-2.4.7-2.4.7z" id="prefix__path1117"/></g><radialGradient id="prefix__bj" cx="265.99" cy="307.23" r="18.768" gradientTransform="rotate(1.652 1093.23 -1241.06) scale(.2452)" gradientUnits="userSpaceOnUse"><stop stop-color="#fff" stop-opacity=".7" offset=".289" id="prefix__stop1121"/><stop stop-color="#FFFEFB" stop-opacity=".603" offset=".404" id="prefix__stop1123"/><stop stop-color="#FFFBF1" stop-opacity=".491" offset=".536" id="prefix__stop1125"/><stop stop-color="#FFF6DE" stop-opacity=".371" offset=".679" id="prefix__stop1127"/><stop stop-color="#FFEFC4" stop-opacity=".246" offset=".827" id="prefix__stop1129"/><stop stop-color="#FFE6A0" stop-opacity=".117" offset=".979" id="prefix__stop1131"/><stop stop-color="#FFE59A" stop-opacity=".1" offset="1" id="prefix__stop1133"/></radialGradient><path d="M28.33 47.379c-.687-.025-1.471-.172-1.815-.785-.147-.245-.171-.588.05-.784.22-.197.563-.123.833 0 .392.171.76.416 1.152.539.883.319 1.864.147 2.722-.27.834-.392 1.52-1.03 2.231-1.593-.907 2.06-2.966 2.942-5.173 2.893z" id="prefix__path1136" fill="url(#prefix__bj)" stroke-width=".245"/><circle cx="32.057" cy="40.832" r="1.349" id="prefix__circle1138" stroke-width=".245" fill="#fff"/><g class="prefix__st44" id="prefix__g1142" transform="matrix(.2452 0 0 .2452 -37.456 -29.294)"><path class="prefix__st28" d="M478.3 203.3s.7.4 2 1.1c.7.4 1.5.8 2.4 1.3.9.6 2 1.2 3.2 2 1.2.7 2.4 1.6 3.8 2.6 1.4.9 2.8 2.1 4.4 3.3 1.6 1.2 3.1 2.6 4.8 3.9.8.7 1.6 1.5 2.5 2.3.9.8 1.7 1.6 2.6 2.4 3.5 3.3 7 7.1 10.6 11.3 3.6 4.2 7.1 8.7 10.6 13.6s6.9 10 10.3 15.2c3.4 5.3 6.7 10.8 9.7 16.4 3 5.7 5.7 11.6 7.7 17.7 2.1 6.1 3.5 12.3 4 18.5l.1 1.2.1.6v.6c0 .7.1 1.5.1 2.2v2.2c0 .8 0 1.5-.1 2.3 0 1.5-.2 2.9-.3 4.4l-.6 4.2c-.9 5.5-2.5 10.6-4.3 15.1-1.8 4.5-3.9 8.4-5.9 11.8l-1.5 2.4c-.5.8-1 1.5-1.5 2.2-.9 1.4-1.9 2.6-2.8 3.7-1.7 2.2-3.2 3.8-4.2 4.9-1 1.1-1.6 1.7-1.6 1.7s.4-.7 1.3-1.9 2-3.1 3.4-5.4c.7-1.2 1.5-2.5 2.2-4 .4-.7.8-1.5 1.2-2.3.4-.8.8-1.6 1.2-2.5 1.6-3.5 3.1-7.4 4.5-11.9.3-1.1.6-2.3.9-3.4.3-1.2.5-2.4.8-3.6.2-1.2.4-2.5.7-3.7.2-1.3.3-2.5.5-3.8.1-1.3.2-2.6.3-4 0-1.3.1-2.7.1-4 0-.7 0-1.3-.1-2v-1l-.1-1.1c-.1-.7-.1-1.5-.2-2.2v-.5l-.1-.5-.1-1.1-.3-2.1c-.1-.7-.3-1.4-.4-2.1-.2-1.4-.6-2.8-.9-4.3-.8-2.8-1.6-5.7-2.6-8.5-2.1-5.6-4.6-11.2-7.5-16.7-2.9-5.5-6.1-10.8-9.3-16.1-3.2-5.3-6.5-10.4-9.7-15.3-3.2-4.9-6.4-9.6-9.6-13.9-1.6-2.2-3.2-4.2-4.8-6.2-.8-1-1.6-2-2.3-2.9-.8-.9-1.6-1.8-2.3-2.7-1.5-1.8-3.1-3.4-4.5-5-1.5-1.5-2.8-3.1-4.2-4.4-1.4-1.3-2.6-2.6-3.9-3.7-1.2-1.1-2.3-2.2-3.4-3-1.1-.9-2-1.7-2.8-2.4-.8-.7-1.6-1.2-2.2-1.7-1.3-.7-1.9-1.2-1.9-1.2z" id="prefix__path1140"/></g><g class="prefix__st44" id="prefix__g1146" transform="matrix(.2452 0 0 .2452 -37.456 -29.294)"><path class="prefix__st28" d="M311.4 192.8l1.6-.8c1.1-.5 2.6-1.3 4.7-2.2 1-.5 2.1-1 3.3-1.5 1.2-.5 2.6-1 4.1-1.6 1.5-.6 3-1.1 4.7-1.8 1.7-.6 3.4-1.1 5.2-1.6 1.8-.5 3.7-1.2 5.7-1.7s4.1-1 6.2-1.5c1.1-.2 2.2-.5 3.3-.7 1.1-.2 2.2-.4 3.4-.6 2.3-.4 4.6-.8 7-1.2 4.8-.5 9.7-1.2 14.8-1.3 5-.4 10.2-.2 15.3-.1 5.1.4 10.3.6 15.3 1.3 5 .5 9.9 1.6 14.6 2.5 2.3.5 4.6 1.1 6.9 1.7l3.3.9c1.1.3 2.1.7 3.2 1 2.1.7 4.1 1.3 6.1 2s3.8 1.5 5.6 2.1c1.8.7 3.5 1.3 5.1 2 1.6.7 3.1 1.5 4.5 2.1 1.4.7 2.7 1.3 3.9 1.9 1.2.6 2.3 1.2 3.2 1.8 1.9 1.1 3.4 2 4.5 2.6 1 .6 1.6.9 1.6.9s-.6-.2-1.7-.6c-1.1-.4-2.8-.9-4.9-1.7-1-.4-2.2-.8-3.5-1.2-1.3-.4-2.6-.8-4.1-1.3-1.5-.5-3-.9-4.7-1.5-1.7-.5-3.4-.9-5.2-1.4-1.8-.5-3.7-1-5.7-1.5s-4-.9-6.1-1.4c-1-.2-2.1-.5-3.2-.7l-3.3-.6c-2.2-.4-4.5-.9-6.8-1.2-2.3-.3-4.7-.7-7-1-2.4-.4-4.8-.5-7.2-.8-4.9-.6-9.8-.8-14.8-1.1-5-.1-9.9-.3-14.8-.1-2.4.1-4.9 0-7.3.3-2.4.2-4.8.3-7.1.4-2.3.2-4.6.5-6.8.7l-3.3.3c-1.1.1-2.2.3-3.2.5-2.1.3-4.2.6-6.2.9-2 .3-3.9.7-5.8 1-1.8.4-3.6.7-5.3 1-1.7.4-3.2.7-4.7 1.1-1.5.3-2.9.7-4.2.9-1.3.3-2.5.7-3.6.9-2.1.6-3.8 1-5 1.3-1 .5-1.6.6-1.6.6z" id="prefix__path1144"/></g><g class="prefix__st44" id="prefix__g1150" transform="matrix(.2452 0 0 .2452 -37.456 -29.294)"><path class="prefix__st28" d="M401 163.5s0-.2.1-.6c.1-.4.1-1 .3-1.8.1-.8.4-1.7.7-2.7.2-.5.4-1 .6-1.6.2-.6.5-1.1.8-1.8.6-1.2 1.3-2.5 2.2-3.7.9-1.3 1.9-2.6 3-3.8 1.1-1.2 2.4-2.4 3.9-3.5 1.4-1.1 2.9-2.1 4.5-3l1.2-.6c.3-.2.8-.4 1.2-.6.9-.4 1.7-.7 2.5-1 1.7-.6 3.4-1 5.1-1.3 1.7-.3 3.3-.4 4.8-.4s3 .1 4.3.2c.7.1 1.3.2 1.9.3.6.1 1.2.3 1.7.4 1 .3 1.9.6 2.6.9.7.3 1.3.6 1.6.7l.6.3s-.2 0-.6.1c-.4.1-1 .1-1.7.2s-1.6.2-2.6.4-2.1.4-3.3.6c-1.2.3-2.4.5-3.8.9-1.3.3-2.7.8-4 1.2-1.4.5-2.8 1-4.1 1.6-.7.3-1.3.6-2 .9-.3.2-.6.3-1 .5l-1 .5c-1.3.7-2.6 1.5-3.9 2.3-1.2.8-2.5 1.7-3.6 2.6-1.1.9-2.2 1.8-3.2 2.7-1 .9-1.9 1.8-2.8 2.6-.9.9-1.6 1.7-2.3 2.4-.7.8-1.3 1.4-1.8 2-.5.6-.9 1-1.2 1.3-.6.6-.7.8-.7.8z" id="prefix__path1148"/></g><g class="prefix__st44" id="prefix__g1154" transform="matrix(.2452 0 0 .2452 -37.456 -29.294)"><path class="prefix__st28" d="M577.2 362s.1.4.3 1c.2.7.4 1.7.8 2.9.2.6.4 1.3.6 2 .3.7.5 1.5.8 2.3.3.8.6 1.7 1 2.6.4.9.7 1.8 1.2 2.8.9 1.9 1.8 4 3 6.1 1.1 2.1 2.4 4.3 3.9 6.5 1.4 2.2 3.1 4.3 4.8 6.4.9 1 1.8 2.1 2.7 3 .5.5.9 1 1.4 1.5l1.4 1.4c2.2 2.1 4.2 3.6 6.4 5.3 2.2 1.6 4.4 3.1 6.7 4.4 2.3 1.3 4.5 2.5 6.7 3.4 2.2 1 4.3 1.8 6.3 2.6 1 .3 2 .7 2.9 1 .9.3 1.8.5 2.7.8 1.7.4 3.2.9 4.4 1.1 1.2.3 2.2.5 2.9.6.7.1 1 .2 1 .2s-.4.1-1.1.2c-.7.1-1.7.3-3 .3-.6 0-1.4.1-2.2.1h-2.6c-.9 0-1.9-.1-2.9-.2s-2.1-.2-3.2-.4c-2.2-.4-4.7-.8-7.2-1.6-2.5-.7-5.1-1.7-7.7-2.9-1.3-.6-2.6-1.3-3.9-2-1.3-.7-2.6-1.5-3.8-2.3-2.5-1.6-5.1-3.8-7.1-5.6l-1.7-1.7c-.6-.5-1.1-1.1-1.6-1.7-1.1-1.1-2-2.3-2.9-3.5-.9-1.2-1.8-2.4-2.6-3.7-.8-1.2-1.5-2.5-2.2-3.8-1.3-2.5-2.5-5-3.4-7.5-.9-2.4-1.5-4.8-2-7-.2-1.1-.4-2.2-.6-3.2-.1-1-.3-2-.3-2.9-.1-.9-.1-1.8-.1-2.6v-2.2c0-1.3.1-2.3.2-3-.1-.4 0-.7 0-.7z" id="prefix__path1152"/></g><g class="prefix__st44" id="prefix__g1158" transform="matrix(.2452 0 0 .2452 -37.456 -29.294)"><path class="prefix__st28" d="M448.8 309.1s.2.2.4.6c.3.4.7 1 1.1 1.8.5.8 1 1.8 1.5 3.1.5 1.2 1 2.6 1.3 4.2.8 3.2 1.1 7 .9 11.1-.1 2-.4 4.1-.8 6.2-.2.9-.4 2.1-.7 3.1-.3 1-.6 2.1-.9 3.1-.7 2-1.4 4-2.2 5.9-.8 1.9-1.7 3.7-2.6 5.5-1.8 3.5-3.7 6.5-5.4 9.2-.9 1.3-1.8 2.5-2.6 3.5s-1.6 1.8-2.3 2.5c-.7.7-1.2 1.1-1.6 1.4-.4.3-.6.5-.6.5s.1-.2.3-.7c.2-.5.5-1.1.8-2 .7-1.7 1.5-4.1 2.4-7 .5-1.4 1-3 1.6-4.7.6-1.6 1.2-3.4 1.9-5.2.6-1.8 1.3-3.6 2-5.5.6-1.9 1.3-3.7 1.9-5.6.3-.9.6-1.9.9-2.8.3-1 .5-1.8.8-2.8.5-1.8.9-3.7 1.3-5.5.3-1.8.6-3.5.8-5.2.2-1.7.3-3.3.4-4.7.1-1.5.1-2.8 0-4.1 0-1.2-.1-2.3-.2-3.2 0-.4-.1-.8-.1-1.2 0-.4-.1-.7-.1-.9-.2-.4-.2-.6-.2-.6z" id="prefix__path1156"/></g><g class="prefix__st44" id="prefix__g1162" transform="matrix(.2452 0 0 .2452 -37.456 -29.294)"><path class="prefix__st28" d="M166.6 296.5s.1.3.3.8c.2.5.4 1.3.7 2.3.6 1.9 1.4 4.7 2.3 8 1 3.2 2.2 6.9 3.9 10.5.4.9.9 1.8 1.4 2.6l.1.2s.1.1 0 0l.1.1.2.4c.1.2.3.5.4.7.3.4.5.8.8 1.2 1.2 1.7 2.5 3.3 4 4.9 1.4 1.6 3 3 4.6 4.4.8.7 1.7 1.4 2.4 2 .4.3.9.7 1.3 1l1.2.9c3.3 2.4 6.6 4.3 9.6 5.8 1.5.7 2.9 1.4 4.2 1.9 1.3.5 2.4 1 3.4 1.3 1 .3 1.7.6 2.2.7.5.2.8.3.8.3s-.3 0-.8.1-1.4.2-2.4.2-2.3.1-3.8 0-3.1-.3-4.9-.7c-3.5-.8-7.6-2.2-11.6-4.4l-1.5-.9c-.5-.3-.9-.6-1.4-.9-1-.7-2-1.3-2.9-2.1-1.9-1.4-3.7-3.1-5.4-4.9-1.7-1.8-3.2-3.8-4.5-5.9-.3-.5-.6-1.1-1-1.6l-.4-.8-.2-.4-.1-.2-.1-.2c-.5-1.1-1-2.2-1.3-3.3-1.5-4.4-2-8.6-2.2-12.2-.1-3.6.1-6.5.2-8.5.1-1 .2-1.8.3-2.4 0-.6.1-.9.1-.9z" id="prefix__path1160"/></g><linearGradient id="prefix__bk" x1="408.81" x2="409.69" y1="305.38" y2="283.01" gradientUnits="userSpaceOnUse" gradientTransform="matrix(.2452 0 0 .2452 -37.456 -29.294)"><stop stop-color="#B1615D" offset="0" id="prefix__stop1164"/><stop stop-color="#A84E4E" offset=".134" id="prefix__stop1166"/><stop stop-color="#912431" offset=".5" id="prefix__stop1168"/><stop stop-color="#6E2A35" offset=".814" id="prefix__stop1170"/><stop stop-color="#5C2C37" offset="1" id="prefix__stop1172"/></linearGradient><path d="M59.788 43.652c-.196-.785-.024-1.618.197-2.403.122-.368.245-.736.49-1.03.368-.441.98-.662 1.545-.637.588 0 1.128.22 1.643.515 1.201.71 2.084 1.961 2.378 3.334-.025-.098-3.482 1.3-3.776 1.447-1.177.564-2.133.196-2.477-1.226z" id="prefix__path1175" fill="url(#prefix__bk)" stroke-width=".245" opacity=".17"/><linearGradient id="prefix__bl" x1="502.82" x2="504.59" y1="315.79" y2="271.07" gradientUnits="userSpaceOnUse" gradientTransform="matrix(.2452 0 0 .2452 -37.456 -29.294)"><stop stop-color="#B1615D" offset="0" id="prefix__stop1177"/><stop stop-color="#A84E4E" offset=".134" id="prefix__stop1179"/><stop stop-color="#912431" offset=".5" id="prefix__stop1181"/><stop stop-color="#6E2A35" offset=".814" id="prefix__stop1183"/><stop stop-color="#5C2C37" offset="1" id="prefix__stop1185"/></linearGradient><path d="M82.224 37.963c-1.716 1.496-2.575 3.923-2.158 6.155.123.662.343 1.3.785 1.79.343.392.809.637 1.3.858 2.01.834 4.34.637 6.399-.05 1.152-.391 2.33-1.004 2.967-2.034.662-1.08.662-2.428.54-3.678-.099-.956-.27-1.913-.76-2.722-1.717-3.016-6.866-2.256-9.073-.319z" id="prefix__path1188" fill="url(#prefix__bl)" stroke-width=".245" opacity=".17"/><linearGradient id="prefix__bm" x1="489.9" x2="490.29" y1="242.42" y2="232.53" gradientUnits="userSpaceOnUse" gradientTransform="matrix(.2452 0 0 .2452 -37.456 -29.294)"><stop stop-color="#B1615D" offset="0" id="prefix__stop1190"/><stop stop-color="#A84E4E" offset=".134" id="prefix__stop1192"/><stop stop-color="#912431" offset=".5" id="prefix__stop1194"/><stop stop-color="#6E2A35" offset=".814" id="prefix__stop1196"/><stop stop-color="#5C2C37" offset="1" id="prefix__stop1198"/></linearGradient><path d="M82.297 27.837c-.27.392-.539.784-.833 1.152-.05.074-.098.147-.123.245-.024.098.025.197.098.295.245.318.662.392 1.055.44.49.05 1.079 0 1.373-.391.196-.27.196-.613.098-.908-.098-.294-.294-.564-.49-.809-.123-.147-.295-.318-.49-.318a.6.6 0 00-.295.098c-.343.171-.662.343-.956.588" id="prefix__path1201" fill="url(#prefix__bm)" stroke-width=".245" opacity=".17"/><linearGradient id="prefix__bn" x1="535.44" x2="536.64" y1="351.35" y2="321.01" gradientUnits="userSpaceOnUse" gradientTransform="matrix(.2452 0 0 .2452 -37.456 -29.294)"><stop stop-color="#B1615D" offset="0" id="prefix__stop1203"/><stop stop-color="#A84E4E" offset=".134" id="prefix__stop1205"/><stop stop-color="#912431" offset=".5" id="prefix__stop1207"/><stop stop-color="#6E2A35" offset=".814" id="prefix__stop1209"/><stop stop-color="#5C2C37" offset="1" id="prefix__stop1211"/></linearGradient><path d="M92.08 53.067c-.073-.465 0-.956.05-1.422.098-.76.27-1.52.71-2.133.442-.613 1.325-.956 2.011-.637.687.343.932 1.201 1.006 1.986.147 1.3.073 2.599-.172 3.874-.171.931-.907 2.06-1.937 1.397-.76-.49-1.545-2.206-1.667-3.065z" id="prefix__path1214" fill="url(#prefix__bn)" stroke-width=".245" opacity=".17"/><linearGradient id="prefix__bo" x1="358.1" x2="358.87" y1="258.03" y2="238.68" gradientUnits="userSpaceOnUse" gradientTransform="matrix(.2452 0 0 .2452 -37.456 -29.294)"><stop stop-color="#B1615D" offset="0" id="prefix__stop1216"/><stop stop-color="#A84E4E" offset=".134" id="prefix__stop1218"/><stop stop-color="#912431" offset=".5" id="prefix__stop1220"/><stop stop-color="#6E2A35" offset=".814" id="prefix__stop1222"/><stop stop-color="#5C2C37" offset="1" id="prefix__stop1224"/></linearGradient><path d="M49.024 29.602c.27-.564.981-.932 1.57-.735.318.098.564.343.735.613.343.49.49 1.078.638 1.667.27 1.079-.098 3.36-1.594 2.182-.932-.71-1.913-2.574-1.349-3.727z" id="prefix__path1227" fill="url(#prefix__bo)" stroke-width=".245" opacity=".17"/><linearGradient id="prefix__bp" x1="383.54" x2="384.29" y1="298.85" y2="279.65" gradientUnits="userSpaceOnUse" gradientTransform="matrix(.2452 0 0 .2452 -37.456 -29.294)"><stop stop-color="#B1615D" offset="0" id="prefix__stop1229"/><stop stop-color="#A84E4E" offset=".134" id="prefix__stop1231"/><stop stop-color="#912431" offset=".5" id="prefix__stop1233"/><stop stop-color="#6E2A35" offset=".814" id="prefix__stop1235"/><stop stop-color="#5C2C37" offset="1" id="prefix__stop1237"/></linearGradient><path d="M55.4 39.042c.294-.196.661-.22 1.03-.196.71.049 1.446.343 1.838.932.687 1.03.294 4.462-1.52 3.8-1.226-.441-2.746-3.604-1.349-4.536z" id="prefix__path1240" fill="url(#prefix__bp)" stroke-width=".245" opacity=".17"/><linearGradient id="prefix__bq" x1="308.85" x2="309.58" y1="218.75" y2="200.42" gradientUnits="userSpaceOnUse" gradientTransform="matrix(.2452 0 0 .2452 -37.456 -29.294)"><stop stop-color="#B1615D" offset="0" id="prefix__stop1242"/><stop stop-color="#A84E4E" offset=".134" id="prefix__stop1244"/><stop stop-color="#912431" offset=".5" id="prefix__stop1246"/><stop stop-color="#6E2A35" offset=".814" id="prefix__stop1248"/><stop stop-color="#5C2C37" offset="1" id="prefix__stop1250"/></linearGradient><path d="M36.225 22.59c-.147-.099-.27-.197-.343-.344-.05-.147-.025-.318.049-.49.27-.736.932-1.226 1.594-1.643.588-.368 1.25-.736 1.937-.613.637.123 1.152.687 1.324 1.324.171.638.073 1.324-.172 1.937-.172.417-.417.834-.785 1.079-1.078.736-2.746-.662-3.604-1.25z" id="prefix__path1253" fill="url(#prefix__bq)" stroke-width=".245" opacity=".17"/><linearGradient id="prefix__bs" x1="356.66" x2="357.71" y1="406.82" y2="380.29" gradientUnits="userSpaceOnUse" gradientTransform="matrix(.2452 0 0 .2452 -37.456 -29.294)"><stop stop-color="#B1615D" offset="0" id="prefix__stop1255"/><stop stop-color="#A84E4E" offset=".134" id="prefix__stop1257"/><stop stop-color="#912431" offset=".5" id="prefix__stop1259"/><stop stop-color="#6E2A35" offset=".814" id="prefix__stop1261"/><stop stop-color="#5C2C37" offset="1" id="prefix__stop1263"/></linearGradient><path d="M48.338 67.853c-.123-.147-.22-.27-.27-.442-.098-.245-.049-.515 0-.784.147-.785.319-1.57.736-2.232.367-.613 1.103-1.152 1.79-.956.539.147.882.711 1.078 1.25.54 1.374.515 2.919.49 4.39 0 .171-.024.368-.097.515-.981 1.52-3.261-1.177-3.727-1.741z" id="prefix__path1266" fill="url(#prefix__bs)" stroke-width=".245" opacity=".17"/><linearGradient id="prefix__bt" x1="298.16" x2="298.79" y1="422.12" y2="405.93" gradientUnits="userSpaceOnUse" gradientTransform="matrix(.2452 0 0 .2452 -37.456 -29.294)"><stop stop-color="#B1615D" offset="0" id="prefix__stop1268"/><stop stop-color="#A84E4E" offset=".134" id="prefix__stop1270"/><stop stop-color="#912431" offset=".5" id="prefix__stop1272"/><stop stop-color="#6E2A35" offset=".814" id="prefix__stop1274"/><stop stop-color="#5C2C37" offset="1" id="prefix__stop1276"/></linearGradient><path d="M34.901 73.566c-.515-.025-1.03-.123-1.471-.393-.417-.294-.687-.858-.515-1.324.074-.196.22-.343.368-.49.71-.686 1.643-1.054 2.599-1.3.417-.098.858-.171 1.275-.073.515.147.907.564 1.103 1.054.22.49.27 1.03.245 1.545 0 .319-.024.613-.147.907a1.028 1.028 0 01-.22.343c-.466.466-2.526-.22-3.237-.27z" id="prefix__path1279" fill="url(#prefix__bt)" stroke-width=".245" opacity=".17"/></svg>