<?xml version="1.0" encoding="UTF-8" standalone="no"?>
<!-- Uploaded to: SVG Repo, www.svgrepo.com, Generator: SVG Repo Mixer Tools -->

<svg
   width="140"
   height="135.03201"
   viewBox="0 0 179.2 172.84098"
   class="icon"
   version="1.1"
   id="svg673"
   sodipodi:docname="factory-svgrepo-com.svg"
   inkscape:version="1.2.2 (732a01da63, 2022-12-09)"
   xmlns:inkscape="http://www.inkscape.org/namespaces/inkscape"
   xmlns:sodipodi="http://sodipodi.sourceforge.net/DTD/sodipodi-0.dtd"
   xmlns="http://www.w3.org/2000/svg"
   xmlns:svg="http://www.w3.org/2000/svg">
  <defs
     id="defs677" />
  <sodipodi:namedview
     id="namedview675"
     pagecolor="#ffffff"
     bordercolor="#000000"
     borderopacity="0.25"
     inkscape:showpageshadow="2"
     inkscape:pageopacity="0.0"
     inkscape:pagecheckerboard="0"
     inkscape:deskcolor="#d1d1d1"
     showgrid="false"
     inkscape:zoom="1.04625"
     inkscape:cx="346.95341"
     inkscape:cy="336.43967"
     inkscape:window-width="1920"
     inkscape:window-height="1017"
     inkscape:window-x="1912"
     inkscape:window-y="-8"
     inkscape:window-maximized="1"
     inkscape:current-layer="svg673" />
  <path
     d="m 119.91609,131.58774 h 38.63717 v 33.7069 h -38.63717 z"
     fill="#a4a9ad"
     id="path641"
     style="stroke-width:0.201235" />
  <path
     d="m 123.49808,142.51481 h 16.56166 v 7.96892 h -16.56166 z m 18.4734,10.6051 h 16.56166 v 7.96892 h -16.56166 z m -22.05539,-21.53217 h 38.63717 v 9.05558 h -38.63717 z"
     fill=""
     id="path643"
     style="stroke-width:0.201235" />
  <path
     d="m 161.97426,128.42834 c 0,-1.04642 -0.86531,-1.91173 -1.91173,-1.91173 H 118.3867 c -1.04642,0 -1.91173,0.86531 -1.91173,1.91173 v 6.33891 c 0,1.04643 0.86531,1.91174 1.91173,1.91174 h 41.67583 c 1.04642,0 1.91173,-0.86531 1.91173,-1.91174 z"
     fill="#d68231"
     id="path645"
     style="stroke-width:0.201235" />
  <path
     d="m 135.04898,0 c -4.28631,0 -8.15002,1.77087 -10.90695,4.628411 -2.33433,-1.469017 -5.11137,-2.334329 -8.08965,-2.334329 -8.37139,0 -15.17314,6.781628 -15.17314,15.173139 v 0.201235 C 92.22612,18.99661 85.58536,26.46244 85.58536,35.4979 c 0,9.96115 8.06953,18.03068 18.03068,18.03068 9.96114,0 18.03068,-8.06953 18.03068,-18.03068 0,-1.30803 -0.14087,-2.55569 -0.40248,-3.78322 2.17335,-0.80494 4.12533,-2.07273 5.69496,-3.72286 2.33433,1.46902 5.11138,2.33433 8.08966,2.33433 8.37139,0 15.17314,-6.78162 15.17314,-15.173135 C 150.202,6.781628 143.42037,0 135.04898,0 Z"
     fill="#d1d3d3"
     id="path647"
     style="stroke-width:0.201235" />
  <path
     d="M 121.84795,35.47778 H 85.42437 L 77.4152,165.29464 h 52.42179 z"
     fill="#333e48"
     id="path649"
     style="stroke-width:0.201235" />
  <path
     d="M 123.05536,55.35982 H 84.19683 l -0.36222,5.73521 h 39.58298 z m 0.72445,11.6314 H 83.47239 l -0.36223,5.7352 h 41.01175 z"
     fill="#d68231"
     id="path651"
     style="stroke-width:0.201235" />
  <path
     d="m 12.858933,93.51403 h 98.786387 v 71.78061 H 12.858933 Z"
     fill="#a4a9ad"
     id="path653"
     style="stroke-width:0.201235" />
  <path
     d="m 95.08366,139.07369 h 16.56166 v 7.96892 H 95.08366 Z M 12.818686,129.4144 h 16.561662 v 7.96891 H 12.818686 Z M 69.12431,99.43034 h 16.56166 v 7.96892 H 69.12431 Z M 33.34468,93.51403 h 16.56166 v 7.96891 H 33.34468 Z m -6.318784,56.9697 H 43.58756 v 7.96891 H 27.025896 Z m 74.819274,-33.32456 c 0,-2.09285 -1.7105,-3.82347 -3.82347,-3.82347 H 26.48256 c -2.092846,0 -3.82347,1.7105 -3.82347,3.82347 v 7.02311 c 0,2.09285 1.7105,3.82347 3.82347,3.82347 H 98.0217 c 2.09284,0 3.82347,-1.7105 3.82347,-3.82347 z"
     fill=""
     id="path655"
     style="stroke-width:0.201235" />
  <path
     d="m 101.84517,111.22273 c 0,-2.09285 -1.7105,-3.82347 -3.82347,-3.82347 H 26.48256 c -2.092846,0 -3.82347,1.7105 -3.82347,3.82347 v 7.02311 c 0,2.09285 1.7105,3.82347 3.82347,3.82347 H 98.0217 c 2.09284,0 3.82347,-1.7105 3.82347,-3.82347 z"
     fill="#ffffff"
     id="path657"
     style="stroke-width:0.201235" />
  <path
     d="M 98.0217,107.39926 H 26.48256 c -2.092846,0 -3.82347,1.7105 -3.82347,3.82347 v 4.86989 c 0,-2.09284 1.7105,-3.82347 3.82347,-3.82347 H 98.0217 c 2.09284,0 3.82347,1.7105 3.82347,3.82347 v -4.86989 c 0,-2.09285 -1.7105,-3.82347 -3.82347,-3.82347 z"
     fill=""
     id="path659"
     style="stroke-width:0.201235" />
  <path
     d="M 12.858933,78.58237 V 93.51403 H 29.319978 L 14.368198,78.56225 c -0.603706,-0.60371 -1.509265,-0.92569 -1.509265,0.0201 z m 16.461045,0 V 93.51403 H 45.78102 L 30.829242,78.56225 c -0.583582,-0.60371 -1.509264,-0.92569 -1.509264,0.0201 z m 16.481172,0 V 93.51403 H 62.26219 L 47.31041,78.56225 c -0.60371,-0.60371 -1.50926,-0.92569 -1.50926,0.0201 z"
     fill="#d1d3d3"
     id="path661"
     style="stroke-width:0.201235" />
  <path
     d="M 62.26219,78.58237 V 93.51403 H 78.72323 L 63.77145,78.56225 c -0.6037,-0.60371 -1.50926,-0.92569 -1.50926,0.0201 z m 16.46104,0 V 93.51403 H 95.18428 L 80.2325,78.56225 c -0.60371,-0.60371 -1.50927,-0.92569 -1.50927,0.0201 z m 16.46105,0 v 14.93166 h 16.46104 L 96.69354,78.56225 c -0.58358,-0.60371 -1.50926,-0.92569 -1.50926,0.0201 z m -55.82266,57.09044 h 45.82127 v 29.62183 H 39.36162 Z"
     fill="#d1d3d3"
     id="path663"
     style="stroke-width:0.201235" />
  <path
     d="m 39.36162,141.79036 h 45.82127 v 5.73521 H 39.36162 Z m 0,10.88683 h 45.82127 v 5.73521 H 39.36162 Z"
     fill=""
     id="path665"
     style="stroke-width:0.201235" />
  <path
     d="m 38.75791,107.39926 h 5.73521 v 14.67005 h -5.73521 z m 20.62662,0 h 5.7352 v 14.67005 h -5.7352 z m 20.64673,0 h 5.73521 v 14.67005 h -5.73521 z"
     fill="#a4a9ad"
     id="path667"
     style="stroke-width:0.201235" />
  <path
     d="m 26.48256,110.27692 c -0.523211,0 -0.945805,0.44272 -0.945805,0.94581 v 7.02311 c 0,0.52321 0.442717,0.94581 0.945805,0.94581 H 98.0217 c 0.52321,0 0.9458,-0.44272 0.9458,-0.94581 v -7.02311 c 0,-0.52321 -0.44272,-0.94581 -0.9458,-0.94581 z M 98.0217,124.94697 H 26.48256 c -3.682605,0 -6.68101,-2.9984 -6.68101,-6.68101 v -7.02311 c 0,-3.6826 2.998405,-6.68101 6.68101,-6.68101 H 98.0217 c 3.6826,0 6.68101,2.99841 6.68101,6.68101 v 7.02311 c 0.0201,3.68261 -2.97829,6.68101 -6.68101,6.68101 z"
     fill="#d68231"
     id="path669"
     style="stroke-width:0.201235" />
  <path
     d="m 179.17988,171.29145 c 0,0.84519 -0.70433,1.54952 -1.54952,1.54952 H 1.549512 C 0.704323,172.84097 0,172.13664 0,171.29145 v -5.53397 c 0,-0.84518 0.704323,-1.54951 1.549512,-1.54951 H 177.65049 c 0.84519,0 1.54951,0.70433 1.54951,1.54951 v 5.53397 z"
     fill="#333e48"
     id="path671"
     style="stroke-width:0.201235" />
</svg>
