<svg width="140" height="135.032" viewBox="0 0 179.2 172.841" class="prefix__icon" xmlns="http://www.w3.org/2000/svg"><path d="M119.916 131.588h38.637v33.707h-38.637z" fill="#a4a9ad"/><path d="M123.498 142.515h16.562v7.969h-16.562zm18.473 10.605h16.562v7.969h-16.562zm-22.055-21.532h38.637v9.055h-38.637z"/><path d="M161.974 128.428a1.924 1.924 0 00-1.911-1.911h-41.676a1.924 1.924 0 00-1.912 1.911v6.34c0 1.046.865 1.911 1.912 1.911h41.676a1.924 1.924 0 001.911-1.912z" fill="#d68231"/><path d="M135.049 0c-4.286 0-8.15 1.77-10.907 4.628a15.155 15.155 0 00-8.09-2.334c-8.371 0-15.173 6.782-15.173 15.173v.201c-8.653 1.329-15.294 8.794-15.294 17.83 0 9.961 8.07 18.03 18.031 18.03 9.961 0 18.03-8.069 18.03-18.03 0-1.308-.14-2.556-.402-3.783a15.063 15.063 0 005.695-3.723 15.155 15.155 0 008.09 2.334c8.371 0 15.173-6.781 15.173-15.173C150.202 6.782 143.42 0 135.049 0z" fill="#d1d3d3"/><path d="M121.848 35.478H85.424l-8.009 129.817h52.422z" fill="#333e48"/><path d="M123.055 55.36H84.197l-.362 5.735h39.583zm.725 11.631H83.472l-.362 5.735h41.012z" fill="#d68231"/><path d="M12.859 93.514h98.786v71.78H12.86z" fill="#a4a9ad"/><path d="M95.084 139.074h16.561v7.969H95.084zm-82.265-9.66H29.38v7.97H12.82zM69.124 99.43h16.562v7.97H69.124zm-35.78-5.916h16.562v7.969H33.345zm-6.318 56.97h16.562v7.969H27.026zm74.82-33.325a3.835 3.835 0 00-3.824-3.823h-71.54a3.835 3.835 0 00-3.823 3.823v7.023a3.835 3.835 0 003.824 3.824h71.539a3.835 3.835 0 003.823-3.824z"/><path d="M101.845 111.223a3.835 3.835 0 00-3.823-3.824h-71.54a3.835 3.835 0 00-3.823 3.824v7.023a3.835 3.835 0 003.824 3.823h71.539a3.835 3.835 0 003.823-3.823z" fill="#fff"/><path d="M98.022 107.4h-71.54a3.835 3.835 0 00-3.823 3.823v4.87a3.835 3.835 0 013.824-3.824h71.539a3.835 3.835 0 013.823 3.824v-4.87a3.835 3.835 0 00-3.823-3.824z"/><path d="M12.859 78.582v14.932H29.32L14.368 78.562c-.604-.603-1.51-.925-1.51.02zm16.461 0v14.932h16.461L30.829 78.562c-.583-.603-1.509-.925-1.509.02zm16.481 0v14.932h16.461L47.31 78.562c-.603-.603-1.509-.925-1.509.02zM62.262 78.582v14.932h16.461L63.771 78.562c-.603-.603-1.509-.925-1.509.02zm16.461 0v14.932h16.461L80.233 78.562c-.604-.603-1.51-.925-1.51.02zm16.461 0v14.932h16.461L96.694 78.562c-.584-.603-1.51-.925-1.51.02zm-55.822 57.09h45.82v29.623h-45.82z" fill="#d1d3d3"/><path d="M39.362 141.79h45.82v5.736h-45.82zm0 10.887h45.82v5.735h-45.82z"/><path d="M38.758 107.4h5.735v14.67h-5.735zm20.627 0h5.735v14.67h-5.735zm20.646 0h5.735v14.67h-5.735z" fill="#a4a9ad"/><path d="M26.483 110.277a.958.958 0 00-.946.946v7.023c0 .523.442.946.946.946h71.539a.958.958 0 00.946-.946v-7.023a.958.958 0 00-.946-.946zm71.539 14.67h-71.54a6.69 6.69 0 01-6.68-6.681v-7.023a6.69 6.69 0 016.68-6.681h71.54a6.69 6.69 0 016.68 6.68v7.024c.02 3.683-2.978 6.681-6.68 6.681z" fill="#d68231"/><path d="M179.18 171.291c0 .846-.704 1.55-1.55 1.55H1.55c-.846 0-1.55-.704-1.55-1.55v-5.534c0-.845.704-1.549 1.55-1.549h176.1c.846 0 1.55.704 1.55 1.55v5.533z" fill="#333e48"/></svg>