<?xml version="1.0" encoding="UTF-8" standalone="no"?>
<!-- Uploaded to: SVG Repo, www.svgrepo.com, Generator: SVG Repo Mixer Tools -->

<svg
   width="127.28014"
   height="140"
   viewBox="0 0 162.91857 179.2"
   class="icon"
   version="1.1"
   id="svg198"
   sodipodi:docname="skyscraper-1-svgrepo-com.svg"
   inkscape:version="1.2.2 (732a01da63, 2022-12-09)"
   xmlns:inkscape="http://www.inkscape.org/namespaces/inkscape"
   xmlns:sodipodi="http://sodipodi.sourceforge.net/DTD/sodipodi-0.dtd"
   xmlns="http://www.w3.org/2000/svg"
   xmlns:svg="http://www.w3.org/2000/svg">
  <defs
     id="defs202" />
  <sodipodi:namedview
     id="namedview200"
     pagecolor="#ffffff"
     bordercolor="#000000"
     borderopacity="0.25"
     inkscape:showpageshadow="2"
     inkscape:pageopacity="0.0"
     inkscape:pagecheckerboard="0"
     inkscape:deskcolor="#d1d1d1"
     showgrid="false"
     inkscape:zoom="1.04625"
     inkscape:cx="317.32378"
     inkscape:cy="350.77658"
     inkscape:window-width="1920"
     inkscape:window-height="1017"
     inkscape:window-x="1912"
     inkscape:window-y="-8"
     inkscape:window-maximized="1"
     inkscape:current-layer="svg198" />
  <path
     d="m 136.83929,125.26 c 0,-1.28 -1.04,-2.32 -2.32,-2.32 H 35.079288 c -1.28,0 -2.32,1.04 -2.32,2.32 v 47.26 c 0,1.28 1.04,2.32 2.32,2.32 h 99.440002 c 1.28,0 2.32,-1.04 2.32,-2.32 z"
     fill="#a4a9ad"
     id="path158"
     style="stroke-width:0.2" />
  <path
     d="m 43.419288,122.94 h 82.740002 v 47.54 H 43.419288 Z"
     fill=""
     id="path160"
     style="stroke-width:0.2" />
  <path
     d="m 43.739288,57.86 c -6.38,0 -12.18,2.42 -16.56,6.4 -2.32,-0.96 -4.88,-1.5 -7.54,-1.5 -10.1199997,0 -18.4799997,7.64 -19.59999966,17.48 -0.08,0.74 -0.24,2.24 1.87999996,2.24 H 66.359288 c 1.28,0 1.96,-1.64 1.88,-2.44 -1.22,-12.46 -11.72,-22.18 -24.5,-22.18 z M 119.17929,6.02 c 6.38,0 12.18,2.42 16.56,6.4 2.32,-0.96 4.88,-1.5 7.54,-1.5 10.12,0 18.48,7.64 19.6,17.48 0.08,0.74 0.24,2.24 -1.88,2.24 H 96.559288 c -1.28,0 -1.96,-1.64 -1.88,-2.44 1.24,-12.46 11.740002,-22.18 24.500002,-22.18 z"
     fill="#00b3e3"
     id="path162"
     style="stroke-width:0.2" />
  <path
     d="m 85.839288,34 c -1.6,0 -2.9,-1.3 -2.9,-2.9 V 2.9 c 0,-1.6 1.3,-2.9 2.9,-2.9 1.6,0 2.9,1.3 2.9,2.9 v 28.2 c 0,1.6 -1.28,2.9 -2.9,2.9 z"
     fill="#a4a9ad"
     id="path164"
     style="stroke-width:0.2" />
  <path
     d="m 82.959288,24.62 h 5.8 v 6.46 h -5.8 z"
     fill=""
     id="path166"
     style="stroke-width:0.2" />
  <path
     d="m 103.33929,30.44 c 0,-1.28 -1.04,-2.32 -2.32,-2.32 H 70.679288 c -1.28,0 -2.32,1.04 -2.32,2.32 v 6.6 c 0,1.28 1.04,2.32 2.32,2.32 h 30.340002 c 1.28,0 2.32,-1.04 2.32,-2.32 z"
     fill="#333e48"
     id="path168"
     style="stroke-width:0.2" />
  <path
     d="m 68.359288,34.5 h 34.980002 v 4.84 H 68.359288 Z"
     fill=""
     id="path170"
     style="stroke-width:0.2" />
  <path
     d="m 110.89929,40.46 c 0,-1.28 -1.04,-2.32 -2.32,-2.32 H 61.019288 c -1.28,0 -2.32,1.04 -2.32,2.32 v 50.4 c 0,1.28 1.04,2.32 2.32,2.32 h 47.560002 c 1.28,0 2.32,-1.04 2.32,-2.32 z"
     fill="#a4a9ad"
     id="path172"
     style="stroke-width:0.2" />
  <path
     d="M 58.699288,84.24 H 110.89929 V 93.2 H 58.699288 Z"
     fill=""
     id="path174"
     style="stroke-width:0.2" />
  <path
     d="M 119.83929,170.48 V 92.54 c 0,-1.28 -1.04,-2.32 -2.32,-2.32 H 52.079288 c -1.28,0 -2.32,1.04 -2.32,2.32 v 77.94 z"
     fill="#d1d3d3"
     id="path176"
     style="stroke-width:0.2" />
  <path
     d="m 71.459288,141.74 h 26.68 v 28.74 h -26.68 z"
     fill="#00b3e3"
     id="path178"
     style="stroke-width:0.2" />
  <path
     d="m 81.899288,141.74 h 5.8 v 28.74 h -5.8 z"
     fill=""
     id="path180"
     style="stroke-width:0.2" />
  <path
     d="m 159.83929,177.64 c 0,0.86 -0.7,1.56 -1.56,1.56 H 11.319288 c -0.86,0 -1.5599997,-0.7 -1.5599997,-1.56 v -5.58 c 0,-0.86 0.6999997,-1.56 1.5599997,-1.56 H 158.29929 c 0.86,0 1.56,0.7 1.56,1.56 z"
     fill="#333e48"
     id="path182"
     style="stroke-width:0.2" />
  <path
     d="m 49.759288,108.14 h 70.060002 v 5.8 H 49.759288 Z m 0,19.32 h 70.060002 v 5.8 H 49.759288 Z m 8.94,-61.46 h 52.200002 v 5.8 H 58.699288 Z m 0,-14.58 h 52.200002 v 5.8 H 58.699288 Z"
     fill=""
     id="path184"
     style="stroke-width:0.2" />
  <path
     d="m 60.439288,170.48 v -8.54 c 0,-1.06 -0.88,-1.94 -1.94,-1.94 h -35.56 c -1.06,0 -1.94,0.88 -1.94,1.94 v 8.54 z"
     fill="#d68231"
     id="path186"
     style="stroke-width:0.2" />
  <path
     d="m 55.019288,160.02 c 0,-7.9 -6.4,-14.3 -14.3,-14.3 -7.9,0 -14.3,6.4 -14.3,14.3 z"
     fill="#218649"
     id="path188"
     style="stroke-width:0.2" />
  <path
     d="m 54.639288,156.74 h -27.84 c -0.24,1.06 -0.38,2.14 -0.38,3.28 h 28.62 c -0.02,-1.14 -0.14,-2.22 -0.4,-3.28 z"
     fill=""
     id="path190"
     style="stroke-width:0.2" />
  <path
     d="m 109.15929,170.48 v -8.54 c 0,-1.06 0.88,-1.94 1.94,-1.94 h 35.56 c 1.06,0 1.94,0.88 1.94,1.94 v 8.54 z"
     fill="#d68231"
     id="path192"
     style="stroke-width:0.2" />
  <path
     d="m 114.55929,160.02 c 0,-7.9 6.4,-14.3 14.3,-14.3 7.9,0 14.3,6.4 14.3,14.3 z"
     fill="#218649"
     id="path194"
     style="stroke-width:0.2" />
  <path
     d="m 114.93929,156.74 h 27.84 c 0.24,1.06 0.38,2.14 0.38,3.28 h -28.6 c 0,-1.14 0.14,-2.22 0.38,-3.28 z"
     fill=""
     id="path196"
     style="stroke-width:0.2" />
</svg>
