<svg version="1.1" xmlns="http://www.w3.org/2000/svg" xmlns:xlink="http://www.w3.org/1999/xlink" width="140" height="140" viewBox="0,0,140,140"><g transform="translate(-170,-110)"><g data-paper-data="{&quot;isPaintingLayer&quot;:true}" fill-rule="nonzero" stroke="none" stroke-width="1" stroke-linecap="butt" stroke-linejoin="miter" stroke-miterlimit="10" stroke-dasharray="" stroke-dashoffset="0" style="mix-blend-mode: normal"><path d="M179.33333,240.66667v-102.66667h121.33334v102.66667z" fill="#cccccc"/><path d="M188.66667,240.66667v-28h65.33333v28z" fill="#5f443e"/><path d="M188.66667,240.66667v-28h58.33333v28z" fill="#7f5b53"/><path d="M198,231.33333v-9.33333h46.66667v9.33333z" fill="#98856e"/><path d="M198,231.33333v-9.33333h39.66667v9.33333z" fill="#cbb292"/><path d="M188.66667,212.66667v-42h65.33333v42z" fill="#849eb4"/><path d="M188.66667,212.66667v-42h58.33333v42z" fill="#b0d3f0"/><path d="M263.33333,184.66667v-9.33333h28v9.33333z" fill="#98856e"/><path d="M263.33333,184.66667v-9.33333h21v9.33333z" fill="#cbb292"/><path d="M263.33333,240.66667v-46.66667h28v46.66667" fill="#559264"/><path d="M263.33333,240.66667v-46.66667h21v46.66667z" fill="#71c285"/><path d="M170,250v-9.33333h140v9.33333z" fill="#98856e"/><path d="M170,250v-9.33333h133v9.33333z" fill="#cbb292"/><path d="M170,138v-14h140v14z" fill="#98856e"/><path d="M170,138v-14h133v14z" fill="#cbb292"/><path d="M214.33333,128.66667v-18.66667h51.33333v18.66667z" fill="#993839"/><path d="M214.33333,128.66667v-18.66667h44.33333v18.66667z" fill="#cc4b4c"/><path d="M305.33333,138v14c0,5.15466 -4.17868,9.33333 -9.33333,9.33333v0c-5.15466,0 -9.33333,-4.17868 -9.33333,-9.33333v-14" fill="#993839"/><path d="M286.66667,152v-14h11.66667v14c-0.00769,3.79632 -2.31404,7.20972 -5.83333,8.63333c-3.51929,-1.42361 -5.82564,-4.83702 -5.83333,-8.63333z" fill="#cc4b4c"/><path d="M286.66667,138v14c0,5.15466 -4.17868,9.33333 -9.33333,9.33333v0c-5.15466,0 -9.33333,-4.17868 -9.33333,-9.33333v-14" fill="#993839"/><path d="M268,152v-14h11.66667v14c-0.00769,3.79632 -2.31404,7.20972 -5.83333,8.63333c-3.51929,-1.42361 -5.82564,-4.83702 -5.83333,-8.63333z" fill="#cc4b4c"/><path d="M268,138v14c0,5.15466 -4.17868,9.33333 -9.33333,9.33333v0c-5.15466,0 -9.33333,-4.17868 -9.33333,-9.33333v-14" fill="#993839"/><path d="M249.33333,152v-14h11.66667v14c-0.00769,3.79632 -2.31404,7.20972 -5.83333,8.63333c-3.51929,-1.42361 -5.82564,-4.83702 -5.83333,-8.63333z" fill="#cc4b4c"/><path d="M249.33333,138v14c0,5.15466 -4.17868,9.33333 -9.33333,9.33333v0c-5.15466,0 -9.33333,-4.17868 -9.33333,-9.33333v-14" fill="#993839"/><path d="M230.66667,152v-14h11.66667v14c-0.00769,3.79632 -2.31404,7.20972 -5.83333,8.63333c-3.51929,-1.42361 -5.82564,-4.83702 -5.83333,-8.63333z" fill="#cc4b4c"/><path d="M230.66667,138v14c0,5.15466 -4.17868,9.33333 -9.33333,9.33333v0c-5.15466,0 -9.33333,-4.17868 -9.33333,-9.33333v-14" fill="#993839"/><path d="M212,152v-14h11.66667v14c-0.00769,3.79632 -2.31404,7.20972 -5.83333,8.63333c-3.51929,-1.42361 -5.82564,-4.83702 -5.83333,-8.63333z" fill="#cc4b4c"/><path d="M212,138v14c0,5.15466 -4.17868,9.33333 -9.33333,9.33333v0c-5.15466,0 -9.33333,-4.17868 -9.33333,-9.33333v-14" fill="#993839"/><path d="M193.33333,152v-14h11.66667v14c-0.00769,3.79632 -2.31404,7.20972 -5.83333,8.63333c-3.51929,-1.42361 -5.82564,-4.83702 -5.83333,-8.63333z" fill="#cc4b4c"/><path d="M193.33333,138v14c0,5.15466 -4.17868,9.33333 -9.33333,9.33333v0c-5.15466,0 -9.33333,-4.17868 -9.33333,-9.33333v-14" fill="#993839"/><path d="M174.66667,152v-14h11.66667v14c-0.00769,3.79632 -2.31404,7.20972 -5.83333,8.63333c-3.51929,-1.42361 -5.82564,-4.83702 -5.83333,-8.63333z" fill="#cc4b4c"/><path d="M201.97334,202.65026l-3.29983,-3.29983l18.66055,-18.66055l3.29983,3.29983z" fill="#e0e0e0"/><path d="M225.30917,202.64777l-3.29983,-3.29983l18.66055,-18.66055l3.29983,3.29983z" fill="#e0e0e0"/><path d="M221.33333,121.66667v-4.66667h37.33333v4.66667z" fill="#e0e0e0"/><path d="M270.33333,219.66667v-9.33333h4.66667v9.33333z" fill="#559264"/></g></g></svg>