<?xml version="1.0" encoding="UTF-8" standalone="no"?>
<!-- Uploaded to: SVG Repo, www.svgrepo.com, Generator: SVG Repo Mixer Tools -->

<svg
   width="140"
   height="140"
   viewBox="0 0 11.2 11.2"
   version="1.1"
   id="svg1257"
   sodipodi:docname="architecture-buildings-svgrepo-com.svg"
   inkscape:version="1.2.2 (732a01da63, 2022-12-09)"
   xmlns:inkscape="http://www.inkscape.org/namespaces/inkscape"
   xmlns:sodipodi="http://sodipodi.sourceforge.net/DTD/sodipodi-0.dtd"
   xmlns="http://www.w3.org/2000/svg"
   xmlns:svg="http://www.w3.org/2000/svg">
  <sodipodi:namedview
     id="namedview1259"
     pagecolor="#ffffff"
     bordercolor="#000000"
     borderopacity="0.25"
     inkscape:showpageshadow="2"
     inkscape:pageopacity="0.0"
     inkscape:pagecheckerboard="0"
     inkscape:deskcolor="#d1d1d1"
     showgrid="false"
     inkscape:zoom="1.04625"
     inkscape:cx="374.67145"
     inkscape:cy="375.62724"
     inkscape:window-width="1920"
     inkscape:window-height="1017"
     inkscape:window-x="1912"
     inkscape:window-y="-8"
     inkscape:window-maximized="1"
     inkscape:current-layer="svg1257" />
  <defs
     id="defs1182">
    <style
       id="style1180">.cls-1{fill:#ccc;}.cls-2{fill:#5f443e;}.cls-3{fill:#7f5b53;}.cls-4{fill:#98856e;}.cls-5{fill:#cbb292;}.cls-6{fill:#849eb4;}.cls-7{fill:#b0d3f0;}.cls-8{fill:#559264;}.cls-9{fill:#71c285;}.cls-10{fill:#993839;}.cls-11{fill:#cc4b4c;}.cls-12{fill:#e0e0e0;}</style>
  </defs>
  <title
     id="title1184" />
  <g
     data-name="Layer 6"
     id="Layer_6"
     transform="matrix(0.18666667,0,0,0.18666667,-0.37333334,-0.37333334)">
    <rect
       class="cls-1"
       height="44"
       width="52"
       x="6"
       y="14"
       id="rect1186" />
    <rect
       class="cls-2"
       height="12"
       width="28"
       x="10"
       y="46"
       id="rect1188" />
    <rect
       class="cls-3"
       height="12"
       width="25"
       x="10"
       y="46"
       id="rect1190" />
    <rect
       class="cls-4"
       height="4"
       width="20"
       x="14"
       y="50"
       id="rect1192" />
    <rect
       class="cls-5"
       height="4"
       width="17"
       x="14"
       y="50"
       id="rect1194" />
    <rect
       class="cls-6"
       height="18"
       width="28"
       x="10"
       y="28"
       id="rect1196" />
    <rect
       class="cls-7"
       height="18"
       width="25"
       x="10"
       y="28"
       id="rect1198" />
    <rect
       class="cls-4"
       height="4"
       width="12"
       x="42"
       y="30"
       id="rect1200" />
    <rect
       class="cls-5"
       height="4"
       width="9"
       x="42"
       y="30"
       id="rect1202" />
    <polyline
       class="cls-8"
       points="42 58 42 38 54 38 54 58"
       id="polyline1204" />
    <rect
       class="cls-9"
       height="20"
       width="9"
       x="42"
       y="38"
       id="rect1206" />
    <rect
       class="cls-4"
       height="4"
       width="60"
       x="2"
       y="58"
       id="rect1208" />
    <rect
       class="cls-5"
       height="4"
       width="57"
       x="2"
       y="58"
       id="rect1210" />
    <rect
       class="cls-4"
       height="6"
       width="60"
       x="2"
       y="8"
       id="rect1212" />
    <rect
       class="cls-5"
       height="6"
       width="57"
       x="2"
       y="8"
       id="rect1214" />
    <rect
       class="cls-10"
       height="8"
       width="22"
       x="21"
       y="2"
       id="rect1216" />
    <rect
       class="cls-11"
       height="8"
       width="19"
       x="21"
       y="2"
       id="rect1218" />
    <path
       class="cls-10"
       d="m 52,14 v 6 a 4,4 0 0 0 4,4 v 0 a 4,4 0 0 0 4,-4 v -6"
       id="path1220" />
    <path
       class="cls-11"
       d="M 54.5,23.7 A 4,4 0 0 0 57,20 v -6 h -5 v 6 a 4,4 0 0 0 2.5,3.7 z"
       id="path1222" />
    <path
       class="cls-10"
       d="m 44,14 v 6 a 4,4 0 0 0 4,4 v 0 a 4,4 0 0 0 4,-4 v -6"
       id="path1224" />
    <path
       class="cls-11"
       d="M 46.5,23.7 A 4,4 0 0 0 49,20 v -6 h -5 v 6 a 4,4 0 0 0 2.5,3.7 z"
       id="path1226" />
    <path
       class="cls-10"
       d="m 36,14 v 6 a 4,4 0 0 0 4,4 v 0 a 4,4 0 0 0 4,-4 v -6"
       id="path1228" />
    <path
       class="cls-11"
       d="M 38.5,23.7 A 4,4 0 0 0 41,20 v -6 h -5 v 6 a 4,4 0 0 0 2.5,3.7 z"
       id="path1230" />
    <path
       class="cls-10"
       d="m 28,14 v 6 a 4,4 0 0 0 4,4 v 0 a 4,4 0 0 0 4,-4 v -6"
       id="path1232" />
    <path
       class="cls-11"
       d="M 30.5,23.7 A 4,4 0 0 0 33,20 v -6 h -5 v 6 a 4,4 0 0 0 2.5,3.7 z"
       id="path1234" />
    <path
       class="cls-10"
       d="m 20,14 v 6 a 4,4 0 0 0 4,4 v 0 a 4,4 0 0 0 4,-4 v -6"
       id="path1236" />
    <path
       class="cls-11"
       d="M 22.5,23.7 A 4,4 0 0 0 25,20 v -6 h -5 v 6 a 4,4 0 0 0 2.5,3.7 z"
       id="path1238" />
    <path
       class="cls-10"
       d="m 12,14 v 6 a 4,4 0 0 0 4,4 v 0 a 4,4 0 0 0 4,-4 v -6"
       id="path1240" />
    <path
       class="cls-11"
       d="M 14.5,23.7 A 4,4 0 0 0 17,20 v -6 h -5 v 6 a 4,4 0 0 0 2.5,3.7 z"
       id="path1242" />
    <path
       class="cls-10"
       d="m 4,14 v 6 a 4,4 0 0 0 4,4 v 0 a 4,4 0 0 0 4,-4 v -6"
       id="path1244" />
    <path
       class="cls-11"
       d="M 6.5,23.7 A 4,4 0 0 0 9,20 V 14 H 4 v 6 a 4,4 0 0 0 2.5,3.7 z"
       id="path1246" />
    <rect
       class="cls-12"
       height="2"
       transform="rotate(-45,18.996482,37.0014)"
       width="11.31"
       x="13.34"
       y="36"
       id="rect1248" />
    <rect
       class="cls-12"
       height="2"
       transform="rotate(-45,28.995727,36.999577)"
       width="11.31"
       x="23.34"
       y="36"
       id="rect1250" />
    <rect
       class="cls-12"
       height="2"
       width="16"
       x="24"
       y="5"
       id="rect1252" />
    <rect
       class="cls-8"
       height="4"
       width="2"
       x="45"
       y="45"
       id="rect1254" />
  </g>
</svg>
