<svg width="140" height="133.083" xmlns="http://www.w3.org/2000/svg"><g transform="translate(-104.387 -10.883)"><path style="isolation:auto;mix-blend-mode:normal;solid-color:#000;solid-opacity:1" d="M178.422 135.198h1.52l-.19 8.03h-.902z" color="#000" overflow="visible" fill="#a40" fill-rule="evenodd"/><path d="M164.727 125.358l.12 13.784-5.621 3.825 5.811-2.31.742 3.309.853-3.299 5.394 2.402-5.265-4.056.04-13.738z" fill="#1a1a1a"/><path d="M118.596 23.95c6.963-8.056 18.733-11.617 29.33-12.653 9.955-.973 22.244-.731 29.331 6.327 23.765 17.225.885 64.23 14.953 78.216 12.799 12.722 24.441 8.208 29.254 7.35 8.386-1.497 22.923-11.294 22.923-11.294s-13.859 20.702-33.779 29.53c-11.145 4.933-30.224 11.291-56.931 6.62-36.93-6.462-57.277-77.035-35.081-104.096z" fill="#f55"/><path d="M125.774 49.83a6.039 6.039 0 01-6.015 6.038 6.039 6.039 0 01-6.062-5.992 6.039 6.039 0 015.968-6.085 6.039 6.039 0 016.108 5.944" fill="#fff"/><path d="M151.426 49.315a2.002 2.002 0 01-1.995 2.001 2.002 2.002 0 01-2.01-1.986 2.002 2.002 0 011.98-2.017 2.002 2.002 0 012.024 1.97M122.356 49.83a1.29 1.29 0 01-1.285 1.29 1.29 1.29 0 01-1.295-1.28 1.29 1.29 0 011.275-1.3 1.29 1.29 0 011.305 1.27" fill="#333"/><path d="M164.553 83.273c8.75.435 18.236 15.741 30.902 21.272-5.321.257-8.648-.63-11.011-2.039 1.664 2.647 5.774 4.516 15.214 6.947-12.085.776-33.517 2.72-40.86-8.997-2.838-4.529-.346-17.486 5.754-17.183z" fill="#2b0000" fill-opacity=".473"/><path d="M122.504 61.985l-18.117 10.307 20.929 2.311z" fill="#ffd42a"/><path d="M178.098 127.946l.121 7.305c.056.547 1.59.965 1.914-.128l.04-7.26z" fill="#1a1a1a"/><path d="M116.296 90.262s2.2-8.357 11.066-8.007c10.2.402 18.875 5.539 23.892 21.35 3.76 11.85-1.322 23.586-1.322 23.586-17.305-4.57-29.045-24.622-33.638-36.93z" fill="#ff8080"/><rect style="isolation:auto;mix-blend-mode:normal;solid-color:#000;solid-opacity:1" width="25.293" height="26.527" x="142.666" y="3.615" transform="rotate(12.405)" ry="2.627" color="#000" overflow="visible" fill="#483737" fill-rule="evenodd"/><rect style="isolation:auto;mix-blend-mode:normal;solid-color:#000;solid-opacity:1" width="30.78" height="4.301" x="117.53" y="-8.088" ry="0" transform="rotate(18.649)" color="#000" overflow="visible" fill="#483737" fill-rule="evenodd"/><rect style="isolation:auto;mix-blend-mode:normal;solid-color:#000;solid-opacity:1" width="30.78" height="4.301" x="162.058" y="26.186" ry="0" transform="rotate(5.72)" color="#000" overflow="visible" fill="#483737" fill-rule="evenodd"/><path d="M128.368 16.565c6.029-3.027 13.017-4.629 19.559-5.268 9.954-.972 22.243-.731 29.33 6.327 6.486 4.7 9.497 11.62 10.734 19.48-38.232-4.935-43.99-10.575-59.623-20.539z" fill="#d40000"/><path d="M187.974 37.091s3.987-3.411 7.983-3.231c3.996.18 13.686 7.033 13.686 7.033s-8.461 1.29-12.165.57c-3.704-.72-9.504-4.372-9.504-4.372z" fill="#d40000" fill-rule="evenodd"/><path d="M202.617 55.146c-7.703-1.641-9.411-3.503-10.978-5.446-1.567-1.944-3.76-13.185-3.76-13.185s-1.172.724 6.69 4.884c7.864 4.16 6.889 7.446 8.048 13.747z" fill="#d40000" fill-rule="evenodd"/></g></svg>