<?xml version="1.0" encoding="UTF-8" standalone="no"?>
<!-- Uploaded to: SVG Repo, www.svgrepo.com, Generator: SVG Repo Mixer Tools -->

<svg
   width="140"
   height="136.22595"
   viewBox="0 0 179.2 174.36922"
   class="icon"
   version="1.1"
   id="svg233"
   sodipodi:docname="bridge-svgrepo-com.svg"
   inkscape:version="1.2.2 (732a01da63, 2022-12-09)"
   xmlns:inkscape="http://www.inkscape.org/namespaces/inkscape"
   xmlns:sodipodi="http://sodipodi.sourceforge.net/DTD/sodipodi-0.dtd"
   xmlns="http://www.w3.org/2000/svg"
   xmlns:svg="http://www.w3.org/2000/svg">
  <defs
     id="defs237" />
  <sodipodi:namedview
     id="namedview235"
     pagecolor="#ffffff"
     bordercolor="#000000"
     borderopacity="0.25"
     inkscape:showpageshadow="2"
     inkscape:pageopacity="0.0"
     inkscape:pagecheckerboard="0"
     inkscape:deskcolor="#d1d1d1"
     showgrid="false"
     inkscape:zoom="1.04625"
     inkscape:cx="348.86499"
     inkscape:cy="340.26284"
     inkscape:window-width="1920"
     inkscape:window-height="1017"
     inkscape:window-x="1912"
     inkscape:window-y="-8"
     inkscape:window-maximized="1"
     inkscape:current-layer="svg233" />
  <path
     d="m 156.83007,41.81333 c -2.16484,-2.2851 -5.79293,-2.38532 -8.07803,-0.22049 -13.91106,13.1694 -36.56161,21.3677 -59.15204,21.3677 -22.59043,0 -45.24098,-8.17826 -59.152036,-21.34765 -2.2851,-2.16484 -5.913199,-2.06461 -8.078031,0.22049 -2.164832,2.2851 -2.084653,5.9132 0.220492,8.07803 5.913199,5.59248 13.149355,10.46336 21.267475,14.33199 v 60.37477 c 0,1.60357 1.30291,2.90648 2.90648,2.90648 1.60358,0 2.90649,-1.30291 2.90649,-2.90648 V 66.76904 c 1.40313,0.56125 2.82631,1.08241 4.24949,1.58353 3.70828,1.28287 7.49673,2.36528 11.36537,3.24725 v 52.9983 c 0,1.60358 1.30291,2.90649 2.90648,2.90649 1.60358,0 2.90649,-1.30291 2.90649,-2.90649 v -51.8357 c 5.17155,0.90201 10.42327,1.42317 15.61486,1.56349 v 50.25217 c 0,1.60358 1.30291,2.90648 2.90648,2.90648 1.60358,0 2.90649,-1.3029 2.90649,-2.90648 V 74.34595 c 5.19159,-0.14031 10.44331,-0.68152 15.61486,-1.56349 v 51.81566 c 0,1.60358 1.30291,2.90649 2.90648,2.90649 1.60358,0 2.90649,-1.30291 2.90649,-2.90649 v -52.9983 c 3.86864,-0.88197 7.67714,-1.96438 11.36537,-3.24725 1.44322,-0.50112 2.8664,-1.04232 4.24949,-1.58353 v 57.82908 c 0,1.60358 1.30291,2.90649 2.90648,2.90649 1.60358,0 2.90649,-1.30291 2.90649,-2.90649 V 64.22336 c 8.13817,-3.86864 15.37432,-8.73951 21.26747,-14.332 2.26506,-2.16483 2.34524,-5.79293 0.18041,-8.07803 z"
     fill="#333e48"
     id="path193"
     style="stroke-width:0.200447" />
  <path
     d="m 30.447964,41.59284 c -2.2851,-2.16483 -5.913199,-2.06461 -8.078031,0.22049 -2.164832,2.2851 -2.084653,5.9132 0.220492,8.07803 4.510067,4.26953 9.781835,8.09808 15.634895,11.40546 V 47.82676 c -2.8263,-1.9243 -5.432121,-4.00895 -7.777356,-6.23392 z m 118.304076,0 c 2.2851,-2.16483 5.91319,-2.06461 8.07803,0.22049 2.16483,2.2851 2.08465,5.9132 -0.2205,8.07803 -4.49002,4.26953 -9.78183,8.09808 -15.63489,11.40546 V 47.82676 c 2.8263,-1.9243 5.43212,-4.00895 7.77736,-6.23392 z"
     fill=""
     id="path195"
     style="stroke-width:0.200447" />
  <path
     d="M 19.643848,119.24617 H 159.55615 v 10.84421 H 19.643848 Z"
     fill="#a4a9ad"
     id="path197"
     style="stroke-width:0.200447" />
  <path
     d="M 19.643848,119.24617 H 38.20528 v 10.84421 H 19.643848 Z m 121.350872,0 h 18.56143 v 10.84421 h -18.56143 z"
     fill=""
     id="path199"
     style="stroke-width:0.200447" />
  <path
     d="M 8.017897,24.97575 H 31.089396 V 160.47821 H 8.017897 Z"
     fill="#d1d3d3"
     id="path201"
     style="stroke-width:0.200447" />
  <path
     d="M 8.017897,24.97575 H 31.089396 V 39.88904 H 8.017897 Z"
     fill=""
     id="path203"
     style="stroke-width:0.200447" />
  <path
     d="m 19.543624,21.107114 c -1.603579,0 -2.906488,-1.302908 -2.906488,-2.906488 V 2.906488 C 16.637136,1.302908 17.940045,0 19.543624,0 c 1.60358,0 2.906488,1.302908 2.906488,2.906488 v 15.314183 c 0,1.583535 -1.302908,2.886443 -2.906488,2.886443 z"
     fill="#333e48"
     id="path205"
     style="stroke-width:0.200447" />
  <path
     d="m 36.44134,18.200626 c 0,-2.345235 -1.924293,-4.26953 -4.269528,-4.26953 H 6.935481 c -2.345235,0 -4.26953,1.924295 -4.26953,4.26953 v 9.761794 c 0,2.34523 1.924295,4.26953 4.26953,4.26953 h 25.236331 c 2.345235,0 4.269528,-1.9243 4.269528,-4.26953 z"
     fill="#a4a9ad"
     id="path207"
     style="stroke-width:0.200447" />
  <path
     d="m 8.017897,54.18094 h 11.265146 v 5.43212 H 8.017897 Z m 5.893154,44.13852 h 11.265146 v 5.43213 H 13.911051 Z m 5.893155,-22.89109 h 11.265145 v 5.43212 H 19.804206 Z m 0,49.65082 h 11.265145 v 5.43213 H 19.804206 Z M 8.017897,143.11946 h 11.265146 v 5.43213 H 8.017897 Z"
     fill=""
     id="path209"
     style="stroke-width:0.200447" />
  <path
     d="m 36.44134,165.34908 v -9.76179 c 0,-2.34523 -1.924293,-4.26953 -4.269528,-4.26953 H 6.935481 c -2.345235,0 -4.26953,1.9243 -4.26953,4.26953 v 9.76179 z"
     fill="#a4a9ad"
     id="path211"
     style="stroke-width:0.200447" />
  <path
     d="M 2.665951,155.58729 H 36.44134 v 9.76179 H 2.665951 Z"
     fill=""
     id="path213"
     style="stroke-width:0.200447" />
  <path
     d="m 39.10729,159.87687 c 0,-0.84188 -0.70156,-1.54345 -1.54344,-1.54345 H 1.543445 C 0.701566,158.33342 0,159.03499 0,159.87687 v 12.9489 c 0,0.84188 0.701566,1.54345 1.543445,1.54345 H 37.56385 c 0.84188,0 1.54344,-0.70157 1.54344,-1.54345 z"
     fill="#a4a9ad"
     id="path215"
     style="stroke-width:0.200447" />
  <path
     d="m 148.1106,24.97575 h 23.0715 v 135.50246 h -23.0715 z"
     fill="#d1d3d3"
     id="path217"
     style="stroke-width:0.200447" />
  <path
     d="m 148.1106,24.97575 h 23.0715 v 14.91329 h -23.0715 z"
     fill=""
     id="path219"
     style="stroke-width:0.200447" />
  <path
     d="m 159.65638,21.107114 c -1.60358,0 -2.90649,-1.302908 -2.90649,-2.906488 V 2.906488 C 156.74989,1.302908 158.0528,0 159.65638,0 c 1.60358,0 2.90648,1.302908 2.90648,2.906488 v 15.314183 c -0.02,1.583535 -1.32295,2.886443 -2.90648,2.886443 z"
     fill="#333e48"
     id="path221"
     style="stroke-width:0.200447" />
  <path
     d="m 142.75866,18.200626 c 0,-2.345235 1.92429,-4.26953 4.26953,-4.26953 h 25.23633 c 2.34523,0 4.26953,1.924295 4.26953,4.26953 v 9.761794 c 0,2.34523 -1.9243,4.26953 -4.26953,4.26953 h -25.23633 c -2.34524,0 -4.26953,-1.9243 -4.26953,-4.26953 z"
     fill="#a4a9ad"
     id="path223"
     style="stroke-width:0.200447" />
  <path
     d="m 159.91696,54.18094 h 11.26514 v 5.43212 h -11.26514 z m -5.9132,44.13852 h 11.26514 v 5.43213 H 154.00376 Z M 148.1106,75.42837 h 11.26515 v 5.43212 H 148.1106 Z m 0,49.65082 h 11.26515 v 5.43213 H 148.1106 Z m 11.80636,18.04027 h 11.26514 v 5.43213 h -11.26514 z"
     fill=""
     id="path225"
     style="stroke-width:0.200447" />
  <path
     d="m 142.75866,165.34908 v -9.76179 c 0,-2.34523 1.92429,-4.26953 4.26953,-4.26953 h 25.23633 c 2.34523,0 4.26953,1.9243 4.26953,4.26953 v 9.76179 z"
     fill="#a4a9ad"
     id="path227"
     style="stroke-width:0.200447" />
  <path
     d="m 142.75866,155.58729 h 33.77539 v 9.76179 h -33.77539 z"
     fill=""
     id="path229"
     style="stroke-width:0.200447" />
  <path
     d="m 140.09271,159.87687 c 0,-0.84188 0.70156,-1.54345 1.54344,-1.54345 h 36.0204 c 0.84188,0 1.54345,0.70157 1.54345,1.54345 v 12.9489 c 0,0.84188 -0.70157,1.54345 -1.54345,1.54345 h -36.0204 c -0.84188,0 -1.54344,-0.70157 -1.54344,-1.54345 z"
     fill="#a4a9ad"
     id="path231"
     style="stroke-width:0.200447" />
</svg>
