<svg width="140" height="136.226" viewBox="0 0 179.2 174.369" class="prefix__icon" xmlns="http://www.w3.org/2000/svg"><path d="M156.83 41.813c-2.165-2.285-5.793-2.385-8.078-.22C134.841 54.763 112.19 62.96 89.6 62.96c-22.59 0-45.241-8.179-59.152-21.348-2.285-2.165-5.913-2.065-8.078.22-2.165 2.285-2.085 5.914.22 8.078 5.914 5.593 13.15 10.464 21.268 14.332v60.375a2.909 2.909 0 002.906 2.907 2.909 2.909 0 002.907-2.907V66.77a108.23 108.23 0 004.25 1.584A108.506 108.506 0 0065.285 71.6v52.998a2.909 2.909 0 002.906 2.907 2.909 2.909 0 002.907-2.907V72.762a108.169 108.169 0 0015.615 1.564v50.252a2.909 2.909 0 002.906 2.907 2.909 2.909 0 002.907-2.907V74.346c5.191-.14 10.443-.682 15.614-1.564v51.816a2.909 2.909 0 002.907 2.907 2.909 2.909 0 002.906-2.907V71.6a107.133 107.133 0 0011.366-3.247 117.063 117.063 0 004.25-1.584v57.83a2.909 2.909 0 002.906 2.906 2.909 2.909 0 002.906-2.907V64.223c8.138-3.868 15.375-8.74 21.268-14.332 2.265-2.164 2.345-5.793.18-8.078z" fill="#333e48"/><path d="M30.448 41.593c-2.285-2.165-5.913-2.065-8.078.22-2.165 2.285-2.085 5.914.22 8.078 4.51 4.27 9.782 8.098 15.635 11.406v-13.47c-2.826-1.925-5.432-4.01-7.777-6.234zm118.304 0c2.285-2.165 5.913-2.065 8.078.22 2.165 2.285 2.085 5.914-.22 8.078-4.49 4.27-9.782 8.098-15.635 11.406v-13.47c2.826-1.925 5.432-4.01 7.777-6.234z"/><path d="M19.644 119.246h139.912v10.844H19.644z" fill="#a4a9ad"/><path d="M19.644 119.246h18.561v10.844H19.644zm121.35 0h18.562v10.844h-18.561z"/><path d="M8.018 24.976h23.071v135.502H8.018z" fill="#d1d3d3"/><path d="M8.018 24.976h23.071v14.913H8.018z"/><path d="M19.544 21.107a2.909 2.909 0 01-2.907-2.906V2.906A2.909 2.909 0 0119.544 0a2.909 2.909 0 012.906 2.906v15.315c0 1.583-1.303 2.886-2.906 2.886z" fill="#333e48"/><path d="M36.441 18.2a4.286 4.286 0 00-4.27-4.269H6.936a4.286 4.286 0 00-4.269 4.27v9.761a4.286 4.286 0 004.27 4.27h25.236a4.286 4.286 0 004.27-4.27z" fill="#a4a9ad"/><path d="M8.018 54.18h11.265v5.433H8.018zm5.893 44.14h11.265v5.432H13.911zm5.893-22.892H31.07v5.432H19.804zm0 49.651H31.07v5.432H19.804zM8.018 143.12h11.265v5.433H8.018z"/><path d="M36.441 165.35v-9.763a4.286 4.286 0 00-4.27-4.27H6.936a4.286 4.286 0 00-4.269 4.27v9.762z" fill="#a4a9ad"/><path d="M2.666 155.587h33.775v9.762H2.666z"/><path d="M39.107 159.877c0-.842-.701-1.544-1.543-1.544H1.544c-.842 0-1.544.702-1.544 1.544v12.949c0 .842.702 1.543 1.543 1.543h36.02c.843 0 1.544-.701 1.544-1.543z" fill="#a4a9ad"/><path d="M148.11 24.976h23.072v135.502h-23.071z" fill="#d1d3d3"/><path d="M148.11 24.976h23.072v14.913h-23.071z"/><path d="M159.656 21.107a2.909 2.909 0 01-2.906-2.906V2.906A2.909 2.909 0 01159.656 0a2.909 2.909 0 012.907 2.906v15.315c-.02 1.583-1.323 2.886-2.907 2.886z" fill="#333e48"/><path d="M142.759 18.2a4.286 4.286 0 014.27-4.269h25.236a4.286 4.286 0 014.27 4.27v9.761a4.286 4.286 0 01-4.27 4.27h-25.237a4.286 4.286 0 01-4.27-4.27z" fill="#a4a9ad"/><path d="M159.917 54.18h11.265v5.433h-11.265zm-5.913 44.14h11.265v5.432h-11.265zm-5.893-22.892h11.265v5.432H148.11zm0 49.651h11.265v5.432H148.11zm11.806 18.04h11.265v5.433h-11.265z"/><path d="M142.759 165.35v-9.763a4.286 4.286 0 014.27-4.27h25.236a4.286 4.286 0 014.27 4.27v9.762z" fill="#a4a9ad"/><path d="M142.759 155.587h33.775v9.762h-33.775z"/><path d="M140.093 159.877c0-.842.701-1.544 1.543-1.544h36.02c.842 0 1.544.702 1.544 1.544v12.949c0 .842-.702 1.543-1.543 1.543h-36.02a1.557 1.557 0 01-1.544-1.543z" fill="#a4a9ad"/></svg>