<?xml version="1.0" encoding="UTF-8" standalone="no"?>
<svg
   version="1.1"
   id="Layer_1"
   x="0px"
   y="0px"
   viewBox="58.2026 120 140.00003 68.781339"
   enable-background="new 58.2026 120 2597.7974 1309.2281"
   xml:space="preserve"
   sodipodi:docname="Floral-Volkswagen-Camper-Without-Flowers.svg"
   width="140.00003"
   height="68.781342"
   inkscape:version="1.2.2 (732a01da63, 2022-12-09)"
   xmlns:inkscape="http://www.inkscape.org/namespaces/inkscape"
   xmlns:sodipodi="http://sodipodi.sourceforge.net/DTD/sodipodi-0.dtd"
   xmlns="http://www.w3.org/2000/svg"
   xmlns:svg="http://www.w3.org/2000/svg"><defs
   id="defs113" /><sodipodi:namedview
   id="namedview111"
   pagecolor="#ffffff"
   bordercolor="#000000"
   borderopacity="0.25"
   inkscape:showpageshadow="2"
   inkscape:pageopacity="0.0"
   inkscape:pagecheckerboard="0"
   inkscape:deskcolor="#d1d1d1"
   showgrid="false"
   inkscape:zoom="0.4638545"
   inkscape:cx="1250.3921"
   inkscape:cy="614.4168"
   inkscape:window-width="1920"
   inkscape:window-height="1017"
   inkscape:window-x="1912"
   inkscape:window-y="-8"
   inkscape:window-maximized="1"
   inkscape:current-layer="Layer_1" />
<g
   id="g108"
   transform="matrix(0.05595107,0,0,0.05595107,52.271401,111.05018)">
	<path
   fill="#f4bd18"
   d="m 841.498,995.7634 c -11.5642,-26.0402 -20.4365,-53.1516 -29.9545,-79.9747 -1.8403,-4.601 -3.2,-10.6166 -8.6799,-12.0999 -13.8444,-4.9169 -28.7598,-5.1092 -43.2495,-6.3041 -68.1907,-3.3101 -136.4501,0.5219 -204.682,-0.9614 -9.6827,-0.7416 -19.6125,-0.2884 -29.0206,-2.9803 -4.6559,-1.291 -5.5349,-6.771 -6.8397,-10.699 -4.4637,-18.6511 -5.3976,-37.8928 -6.9221,-56.956 -4.9581,-86.3612 -3.4885,-172.9421 -3.3786,-259.3994 l -0.3983,-1.3872 c -27.9493,-0.7417 -55.926,-0.0962 -83.8753,-0.3434 -88.1328,-0.0411 -176.2657,0.151 -264.4124,0 -9.8475,88.5037 -18.8022,177.1173 -26.5895,265.827 -1.9229,21.7689 -4.1615,43.5239 -5.5899,65.3203 7.65,-2.9667 16.8383,-3.3374 24.0762,0.9339 8.7487,4.9718 14.4622,13.9678 17.6074,23.3208 5.3151,16.44 3.5572,35.5992 -6.4002,49.9653 -5.6722,8.3642 -15.4373,14.7919 -25.8891,13.6656 -6.1667,-0.0961 -11.372,-3.7357 -16.4811,-6.7435 -0.6455,13.6381 -2.0464,27.2351 -2.9252,40.8732 -0.9889,25.1613 -1.0576,50.4735 2.17,75.4974 68.4791,-2.019 136.9857,-3.7358 205.4923,-3.0354 16.2065,0.6592 32.6876,-0.1785 48.5782,3.5709 0.0275,12.6355 -0.9889,25.2711 -1.4421,37.9066 5.1503,-2.9805 13.0338,-1.7306 16.0828,-7.5813 12.3196,-20.1208 26.5621,-39.033 41.9857,-56.8601 17.7584,-19.8872 37.2748,-38.6071 60.1287,-52.561 20.4366,-12.0862 42.8922,-20.5053 65.6362,-27.1252 55.2943,-15.7258 114.7637,-11.9626 169.2888,5.0679 21.2606,6.8536 43.2355,13.446 61.5296,26.7683 13.5969,9.7787 25.1612,22.0847 34.7339,35.7914 l 47.4794,-10.0671 c -11.7017,-14.9428 -20.2718,-32.1793 -28.0592,-49.4296 z"
   id="path2" />
	<path
   fill="#7e7e7e"
   stroke="#7e7e7e"
   stroke-width="0.094"
   d="m 1904.2567,160.0049 h 28.5812 c -2.1152,0.8103 -4.1616,1.7442 -6.2355,2.5546 -7.2242,0.2747 -14.4895,0.4807 -21.6865,-0.1236 l -0.4393,-1.6344 z"
   id="path4" />
	<path
   fill="#646464"
   stroke="#646464"
   stroke-width="0.094"
   d="m 1932.8379,160.0049 h 24.3645 l -0.975,1.9777 c -9.8751,0.5768 -19.7637,0.1785 -29.625,0.5768 2.0739,-0.8102 4.1203,-1.7442 6.2355,-2.5545 z"
   id="path6" />
	<path
   stroke="#000000"
   stroke-width="0.094"
   d="m 1586.3218,162.6007 c 71.4458,-0.3708 142.8778,-1.0026 214.3236,-0.9889 34.6104,-0.4944 69.2208,-0.6867 103.8312,-0.8103 l 0.4393,1.6344 c -37.9751,-0.2884 -75.9779,-0.0275 -113.9532,0.5082 -70.0448,0.1236 -140.0621,0.8653 -210.0933,0.9202 -39.8157,0.8241 -79.6451,0.4395 -119.4745,0.8653 -118.5543,0.5082 -237.1088,1.6344 -355.6768,1.8679 -34.3494,0.8378 -68.7263,0.4258 -103.0758,0.7554 -190.9203,1.085 -381.8267,2.2662 -572.7333,3.2825 -23.6642,-0.8515 -46.8751,5.0542 -69.3993,11.6604 -36.7942,11.3994 -72.7093,26.4797 -105.2046,47.3146 -10.1634,7.0869 -21.3568,13.8716 -27.5647,25.0239 -12.7042,21.6727 -19.2417,46.2159 -25.7655,70.292 -14.5995,58.2196 -23.6367,117.6616 -31.5888,177.1036 -2.5958,20.2856 -4.9856,40.5985 -7.1693,60.939 156.6669,-0.0137 313.3339,-0.1648 470.0009,-0.3159 29.2678,0.261 58.5217,-0.5356 87.7895,-0.3845 167.5171,-0.4258 335.0341,-0.3846 502.5373,-1.4284 l 0.082,1.4009 c -33.3879,-0.4807 -66.7623,0.6867 -100.1503,0.467 -146.4762,0.6318 -292.9523,0.7691 -439.4421,0.7828 -14.0639,0.6868 -28.1553,0.3159 -42.2329,0.5082 -31.7125,-0.7142 -63.4387,-0.0275 -95.1649,-0.1648 -128.1683,0.1785 -256.3504,0.4944 -384.5187,0.3159 1.0575,-11.3445 2.7057,-22.6342 3.5297,-33.9924 -2.7606,1.5795 -2.1425,5.068 -2.7194,7.7049 -0.8241,8.941 -2.3211,17.8271 -2.843,26.7957 -9.8475,88.5037 -18.8022,177.1172 -26.5896,265.827 -1.9228,21.7689 -4.1615,43.5239 -5.5899,65.3203 7.65,-2.9666 16.8382,-3.3374 24.0762,0.9339 8.7487,4.9718 14.4622,13.9678 17.6073,23.3208 5.3152,16.4399 3.5572,35.5992 -6.4002,49.9653 -5.6723,8.3642 -15.4373,14.7919 -25.8891,13.6656 -6.1667,-0.0962 -11.372,-3.7357 -16.4811,-6.7435 -0.6455,13.6381 -2.0464,27.2351 -2.9254,40.8732 -0.9889,25.1612 -1.0575,50.4734 2.17,75.4974 68.4791,-2.0189 136.9857,-3.7356 205.4923,-3.0353 16.2065,0.6592 32.6876,-0.1786 48.5782,3.5709 0.0274,12.6355 -0.9889,25.2711 -1.4421,37.9065 5.1504,-2.9802 13.0338,-1.7303 16.0828,-7.5813 12.3196,-20.1207 26.5621,-39.0328 41.9857,-56.86 17.7584,-19.8872 37.2748,-38.6071 60.1287,-52.5611 20.4366,-12.0862 42.8922,-20.5052 65.6361,-27.1252 55.2943,-15.7258 114.7637,-11.9626 169.2888,5.0679 21.2606,6.8536 43.2355,13.4458 61.5295,26.7682 19.7774,14.215 35.2559,33.8 46.5867,55.2393 16.852,32.0009 26.466,67.5315 31.0258,103.2819 -0.3434,-0.4532 -1.0164,-1.3597 -1.3459,-1.813 -1.1949,21.8512 -4.9443,43.6613 -12.7591,64.1665 -16.4125,44.1832 -48.3996,81.7603 -87.7484,107.3335 -39.3762,25.8754 -86.1002,39.7469 -133.0577,41.5461 h -21.0272 c -30.2291,-1.6206 -60.3347,-7.5813 -88.3801,-19.118 -46.9301,-18.9121 -88.4488,-52.3964 -114.4753,-96.03 -25.8342,-42.6863 -35.0774,-95.1375 -24.6942,-143.9902 -2.9529,1.2086 -7.444,1.2773 -8.3092,5.1366 -1.8404,7.8972 -0.7691,16.1104 -1.6893,24.1036 -1.8953,3.722 -6.4963,4.7109 -10.1634,5.9058 -14.2974,3.6809 -29.1029,4.807 -43.7849,6.0431 -45.9961,3.1177 -92.5416,4.4912 -138.2355,-2.7743 -13.2124,-2.5409 -27.1527,-5.4663 -37.838,-14.16 -14.5858,-11.9214 -21.4529,-31.0807 -22.3457,-49.4435 0.8515,-9.6553 -1.8541,-19.1044 -2.0601,-28.7321 -2.7743,-33.4979 -0.2197,-67.1194 2.8705,-100.5075 -20.2169,-21.7688 -18.5825,-62.024 6.6886,-79.288 1.4558,-24.8727 4.2164,-49.6631 6.2491,-74.5085 11.578,-125.6549 23.5818,-251.3511 41.3127,-376.3331 5.219,-35.6405 10.7265,-71.3221 19.2143,-106.3583 2.5134,-9.4217 4.8619,-19.0082 9.0646,-27.8531 6.0293,-10.2046 7.856,-22.1396 12.4845,-32.9623 6.0568,-14.8467 12.5531,-30.9159 26.2462,-40.3788 30.339,-22.8539 65.4713,-38.4697 101.0569,-51.2014 25.2986,-8.5153 51.3113,-16.2202 78.1344,-17.4837 36.1623,-0.1236 72.3247,-0.4532 108.4871,-0.6043 34.7752,-0.3434 69.5641,0.206 104.3394,-0.5906 73.6844,-0.4395 147.3689,-0.9339 221.0532,-1.0438 78.2992,-0.9065 156.612,-1.2086 234.9249,-1.291 32.9485,-0.7829 65.8971,-0.5356 98.8456,-0.879 43.991,-0.3022 87.9818,-0.4944 131.9865,-0.4944 49.8829,-0.7279 99.7795,-0.7691 149.6761,-1.1262 38.8817,-0.426 77.7636,0.1508 116.6452,-0.6595 m -1385.047,154.442 c -5.5624,15.767 -8.9273,32.1657 -12.4845,48.4683 0.7005,1.0164 1.4284,2.0327 2.1563,3.049 2.8155,-18.5962 8.5427,-36.6019 12.1411,-55.0058 -0.7553,1.085 -1.3596,2.2524 -1.8129,3.4885 m -13.0475,50.5559 c -1.8679,11.7016 -4.134,23.3345 -6.2354,34.9949 0.6867,0.9752 1.3734,1.9503 2.0876,2.9254 1.3185,-11.7291 3.9005,-23.3071 6.2766,-34.8713 -0.7142,-1.0163 -1.4146,-2.0327 -2.1288,-3.049 m -6.826,37.0963 c -0.3159,5.4113 -1.758,10.6715 -2.1151,16.0691 l 0.7691,0.2884 c 0.3571,-0.1511 1.0576,-0.4532 1.4009,-0.6043 -0.2609,-5.2327 3.8457,-11.2896 -0.0549,-15.7532 m -2.7743,18.4177 c -0.9614,8.4191 -2.3898,16.7696 -3.5984,25.1612 l 1.8129,-0.1511 c 0.879,-7.9521 2.5546,-15.8081 3.5434,-23.7466 -0.1511,-0.4395 -0.467,-1.3322 -0.6318,-1.7855 -0.2746,0.1237 -0.8377,0.3846 -1.1261,0.522 m -4.0791,33.8962 c 1.758,-1.5657 1.703,-5.2877 1.2498,-7.6088 -1.8953,1.497 -1.7305,5.274 -1.2498,7.6088 m -1.1949,1.497 c -0.9614,6.2079 -1.7168,12.4432 -2.5546,18.6649 l 2.1425,-0.1511 c 0.5494,-6.5238 1.8267,-12.9377 2.5271,-19.434 l -2.115,0.9202 m -2.9528,28.5124 c 1.8267,-1.9228 1.7855,-5.9881 1.2361,-8.6251 -1.8954,1.8541 -1.7992,5.9881 -1.2361,8.6251 m -1.758,8.0757 c -0.9889,11.6192 -3.7495,23.1011 -3.5023,34.8301 0.7142,-1.9503 1.1812,-3.9829 1.3734,-6.0431 1.0713,-12.0861 3.0078,-24.0762 4.3126,-36.1349 -2.1288,1.813 -1.6481,4.8758 -2.1837,7.3479 M 130.694,896.3135 c -6.4551,2.4996 -11.5231,7.65 -15.2588,13.3497 -7.7324,12.1274 -9.4629,27.3586 -6.6886,41.299 2.3348,10.6028 7.7324,21.1096 16.9206,27.29 6.8946,4.7795 16.3301,5.5624 23.8977,1.9091 6.7847,-3.1451 11.8527,-9.1196 15.4099,-15.5748 6.5925,-12.4845 7.7599,-27.496 4.2714,-41.0792 -2.6919,-9.7788 -8.0758,-19.324 -16.7833,-24.8865 -6.3453,-4.1751 -14.6958,-4.8894 -21.7689,-2.3073 m 470.3854,150.8025 c -31.9323,4.3949 -62.8069,18.7473 -85.4684,41.876 -18.8984,18.8846 -31.7262,44.0732 -34.5967,70.7316 -2.1837,19.6262 0.8515,39.8019 8.8037,57.8762 11.4956,26.5209 32.7425,48.2211 57.9449,62.0515 47.5344,26.3425 109.0228,25.5045 155.6506,-2.5134 19.4752,-11.5642 36.2585,-27.8531 47.5481,-47.5481 12.3884,-21.343 17.9232,-46.7651 14.6682,-71.2809 -3.0765,-26.0814 -15.8082,-50.5835 -34.212,-69.1659 -33.3194,-34.0337 -83.6143,-48.702 -130.3384,-42.027 z"
   id="path8" />
	<path
   fill="#ffffff"
   stroke="#ffffff"
   stroke-width="0.094"
   d="m 1926.6024,162.5595 c 9.8613,-0.3983 19.7499,0 29.625,-0.5768 12.1685,-0.6592 24.3508,0 36.5469,-0.3434 18.5687,0.467 37.2749,-1.3872 55.7335,1.4421 45.6804,5.2465 91.3882,11.0698 136.4778,20.2718 14.8193,3.4473 30.3525,6.1255 43.4001,14.4622 22.4558,13.2124 44.9937,26.7132 64.7573,43.8124 10.177,8.4741 15.6157,20.8898 20.7798,32.7563 1.4971,3.8318 3.8596,7.8972 2.582,12.1686 -2.6643,11.0561 -5.6721,22.0435 -8.2129,33.1271 0.5769,4.2027 3.3784,7.8286 4.9717,11.7428 26.6309,56.187 53.4126,112.2915 80.1121,168.4235 3.0764,6.977 7.2654,13.6107 8.7625,21.1783 1.5383,7.444 -1.5657,15.506 -7.6499,20.0521 -9.2021,6.8946 -21.0547,8.5015 -32.1934,9.3393 -55.8296,2.1837 -111.7007,2.7194 -167.5581,3.4885 -40.7219,0.9614 -81.458,0.7828 -122.1802,1.4283 -38.4559,0.8928 -76.9395,0.5494 -115.4092,1.1125 -30.188,0.0549 -60.3484,0.9614 -90.5363,0.8653 -40.7772,0.0824 -81.5404,0.5356 -122.3038,0.7554 -74.6046,0.9614 -149.223,0.9064 -223.8413,1.3597 -98.9556,1.0163 -197.9523,0.879 -296.9215,1.4146 -167.5033,1.0438 -335.0203,1.0026 -502.5373,1.4284 -29.2678,-0.1511 -58.5218,0.6455 -87.7896,0.3845 -156.667,0.1511 -313.3339,0.3022 -470.0009,0.3159 2.1837,-20.3405 4.5735,-40.6535 7.1693,-60.939 7.9521,-59.442 16.9893,-118.8839 31.5889,-177.1035 6.5238,-24.0762 13.0613,-48.6194 25.7655,-70.2921 6.2079,-11.1522 17.4013,-17.937 27.5647,-25.0239 32.4953,-20.8349 68.4105,-35.9151 105.2046,-47.3146 22.5242,-6.6062 45.7351,-12.5119 69.3993,-11.6604 190.9065,-1.0163 381.8131,-2.1975 572.7334,-3.2825 34.3493,-0.3297 68.7263,0.0824 103.0756,-0.7554 118.568,-0.2335 237.1223,-1.3597 355.6768,-1.8679 39.8293,-0.4258 79.6588,-0.0412 119.4745,-0.8653 70.0311,-0.0549 140.0485,-0.7966 210.0933,-0.9202 37.9753,-0.5356 75.9781,-0.7966 113.9532,-0.5082 7.1971,0.6043 14.4624,0.3983 21.6866,0.1236 M 341.8311,203.1443 c 4.3538,2.4035 9.8749,0.3846 14.6682,0.9889 -0.7142,18.8434 -2.5958,37.6045 -3.2001,56.4479 -22.5517,0.0412 -45.0896,-0.1648 -67.6413,-0.0824 -2.4035,-0.0137 -4.8345,0 -7.1556,0.673 3.2825,0.8927 6.7161,0.5768 10.0672,0.4944 11.4132,-0.4807 22.8127,0.261 34.2258,0.1374 423.5103,0.3434 847.0206,0.7142 1270.531,0.9202 70.4845,0.3159 140.955,-0.1373 211.4395,0.467 149.9921,0.1648 299.9841,0.206 449.9624,0.4258 0.041,-0.3846 0.1099,-1.14 0.1375,-1.5108 -231.8348,-0.1511 -463.6831,-0.0549 -695.5178,-0.5768 -0.3845,-15.5609 -1.236,-31.1219 -1.4146,-46.7103 -0.2886,-3.4473 0.3844,-7.1693 -1.3596,-10.3007 -0.5907,19.0082 1.1674,38.0028 1.5792,57.011 -75.2775,-0.3296 -150.569,-0.1785 -225.8463,-0.3159 -325.9008,-0.3708 -651.7879,-0.618 -977.6749,-0.618 0.7829,-18.8572 2.2524,-37.6731 3.3512,-56.5028 99.2302,0.1648 198.4604,0.1099 297.6906,0.0275 0.1098,17.6898 0,35.3932 0.0549,53.0967 0.3571,-0.0275 1.0713,-0.0824 1.4283,-0.1099 -0.0824,-17.6623 -0.0549,-35.3246 -0.0137,-52.9869 100.3564,0.0687 200.7265,0.1236 301.0966,-0.0275 -0.1923,17.3601 -1.703,34.6928 -1.4833,52.0529 1.8404,-1.7717 1.0163,-4.5598 1.3597,-6.8122 0.1236,-15.0802 1.1262,-30.1193 1.5931,-45.1858 298.4045,0.0137 596.8093,0.1236 895.2141,-0.0549 1.1261,17.3464 1.071,34.7203 1.7853,52.0804 -0.041,1.346 0.3296,2.5546 1.1401,3.6533 0.3571,-18.5825 -1.0989,-37.1375 -1.4147,-55.72 101.0155,0.1236 202.0449,0.0961 303.0605,0.0137 0.1238,17.7035 0,35.407 0.069,53.0967 0.3572,-0.0412 1.0713,-0.1374 1.4421,-0.1923 -0.1509,-17.6348 -0.082,-35.2834 -0.041,-52.9182 4.6421,0.0824 9.3118,0.0824 13.9814,0.0824 l 0.082,-1.3597 c -603.6766,0.1648 -1207.3533,-0.0137 -1811.0161,0.0824 -7.3888,-0.8927 -14.7778,0.1374 -22.1806,0.2335 m 915.4722,1.7855 c 0.2474,16.1653 1.3459,32.303 1.5107,48.4683 0.3021,2.019 -0.5906,4.7521 1.5382,6.0019 -0.1785,-16.1927 -1.3185,-32.3717 -1.5244,-48.5782 -0.357,-1.9778 0.5632,-4.6697 -1.5245,-5.892 m 586.2205,80.579 c -8.4741,1.6481 -17.676,5.8233 -21.0409,14.3798 -2.2799,4.8345 -1.0438,10.2183 -1.03,15.3275 0,47.6168 -0.014,95.2198 0,142.8365 0.2745,17.8683 -2.431,35.6817 -1.4421,53.5637 0.6179,5.0954 0.5081,11.0561 4.2712,15.039 7.9385,1.7443 16.2751,0.6868 24.3921,1.0988 78.2992,0.4258 156.5984,-0.6318 234.8975,-0.9477 72.366,-0.9064 144.7319,-1.3322 217.0703,-3.3237 17.0305,-0.1923 33.855,-2.8568 50.8442,-3.8456 7.6638,-0.9614 15.9731,-1.2499 22.6069,-5.686 3.969,-2.5409 4.5872,-7.8972 2.9253,-12.0038 -4.8345,-12.924 -10.8914,-25.3535 -16.6733,-37.8654 -23.3347,-48.4271 -47.3423,-96.5795 -73.9866,-143.276 -5.1917,-8.6938 -10.1909,-17.5662 -16.4402,-25.5458 -1.8816,-2.5683 -4.6147,-4.4224 -7.801,-4.7108 -10.4517,-1.7305 -21.0684,-1.964 -31.6162,-2.6782 -35.7092,-1.4146 -71.4458,-2.0739 -107.1824,-2.3074 -80.5515,-0.7828 -161.1031,-0.3846 -241.6547,-0.9202 -12.7042,0.1923 -25.5595,-1.5519 -38.1401,0.8653 m -358.0664,1.9365 c -19.7224,4.1203 -34.8164,22.7165 -35.1736,42.8098 -0.2059,46.2708 0,92.5553 -0.096,138.8398 0.014,9.6964 2.5684,19.5439 8.2406,27.5098 8.213,12.1136 22.6891,19.5164 37.3024,19.3791 68.6576,0 137.3291,0.0137 206.0005,0 19.0356,0.2747 37.2611,-12.9377 42.8646,-31.1219 2.8843,-7.7187 2.0739,-16.0417 2.1564,-24.1037 0.014,-43.4965 0,-86.9929 0.014,-130.4894 -0.055,-18.7473 -13.4323,-36.3684 -31.3143,-41.7934 -8.8585,-2.9391 -18.2939,-2.2524 -27.4685,-2.2936 -59.964,-0.0137 -119.9139,-0.0137 -179.8778,0 -7.5677,0.0412 -15.2178,-0.4533 -22.6479,1.2635 m -367.9141,1.5108 c -15.2863,2.8293 -28.6909,14.1051 -33.8964,28.787 -4.024,10.6029 -2.6095,22.1534 -2.8705,33.2232 0,40.2552 0,80.5104 0.014,120.7793 -0.041,11.317 3.928,22.6478 11.6055,31.0532 8.4603,9.5865 21.1371,15.1489 33.9237,15.0803 68.6439,-0.0138 137.3015,0 205.9594,-0.0138 9.5178,-0.0686 19.0494,-3.1039 26.7131,-8.8036 11.2484,-8.2268 18.4727,-21.9611 18.2666,-35.9426 -0.041,-47.6442 0.069,-95.2884 -0.055,-142.9189 -0.8514,-22.4968 -21.1233,-41.8072 -43.5651,-41.9857 -68.6439,-0.0961 -137.3016,0 -205.9456,-0.0549 -3.406,-1e-4 -6.812,0.1647 -10.1496,0.7965 m -362.8734,2.4585 c -18.8708,4.5186 -33.3331,22.3457 -33.9786,41.7247 -0.1237,42.5763 -0.0137,85.1663 -0.0549,127.7426 0.1511,9.1058 -0.824,18.4864 2.17,27.2763 5.2877,17.6211 22.3869,30.9159 40.8183,31.3965 70.0584,0 140.1171,0.0962 210.1757,0 18.555,-0.2335 35.8464,-13.5695 41.2715,-31.2455 2.9529,-8.4329 2.0327,-17.4563 2.17,-26.205 0,-42.5626 0,-85.1251 0,-127.6739 -0.096,-17.0305 -10.8226,-33.3468 -26.3423,-40.3101 -7.0182,-3.2962 -14.8605,-4.395 -22.5516,-4.1065 -64.5649,0.0275 -129.116,0 -193.6672,0.0137 -6.6886,0.0274 -13.4871,-0.412 -20.0109,1.3872 m -316.946,1.6618 c -13.0064,3.0215 -24.6805,11.9351 -30.394,24.0899 -3.2962,6.5925 -4.3538,14.0914 -4.1752,21.398 0.1099,46.724 -0.1236,93.4343 0.1236,140.1446 0.9065,21.659 20.2718,39.8706 41.6698,40.7908 60.4446,0.261 120.8891,-0.0275 181.3337,0.0687 22.126,0.1236 42.9059,-18.555 43.6613,-40.9419 0.0961,-48.07 -0.0138,-96.14 0.0412,-144.1962 -0.0137,-16.852 -11.4407,-32.564 -26.878,-38.868 -7.8286,-3.516 -16.5498,-3.8044 -24.9965,-3.8456 -52.671,0.0275 -105.3419,0 -157.9992,0.0138 -7.4851,-0.0138 -15.0526,-0.3022 -22.3867,1.3459 m -186.7726,10.2595 c 1.1949,1.3047 3.0078,1.0301 4.5735,1.14 30.1742,0.4944 60.3484,1.1262 90.5089,1.7855 -0.0137,-0.3846 -0.0686,-1.14 -0.0961,-1.5245 -31.6575,-0.0825 -63.3287,-1.7581 -94.9863,-1.401 m -19.6812,38.6208 c 0.0137,0.3708 0.0412,1.1125 0.0549,1.4833 32.8112,-0.8653 65.6087,-1.2773 98.4198,-1.7443 2.1288,-0.1236 4.5049,0.2472 6.2903,-1.1949 -34.9262,-0.5768 -69.8387,1.346 -104.765,1.4559 m -2.6782,35.5306 c 0.9751,0.8927 2.1151,1.3322 3.4336,1.3185 28.4299,1.5657 56.8462,3.3649 85.2899,4.9581 2.4172,-0.0412 5.3701,1.3597 7.3341,-0.6318 -20.6976,-1.8541 -41.4775,-2.4035 -62.2026,-3.9692 -11.3033,-0.2335 -22.5516,-1.7443 -33.855,-1.6756 m -2.115,41.1617 c 3.5572,1.5108 7.4852,0.879 11.2484,0.9889 28.4712,-0.261 56.9835,0.4669 85.441,-0.3708 -2.4447,-2.0052 -5.7409,-1.2224 -8.6252,-1.3734 -27.4411,0.0824 -54.8822,0.0549 -82.3095,0.0137 -1.9641,-10e-5 -3.8732,0.2471 -5.7547,0.7416 m -9.5316,40.159 c -1.2498,-0.1236 -2.1975,0.3434 -2.8567,1.3871 24.8316,-0.5906 49.6494,-1.7855 74.4673,-2.5683 2.0052,-0.3434 5.0405,1.1949 5.8508,-1.497 -25.8205,0.7554 -51.641,1.964 -77.4614,2.6782 m 79.9472,-2.3898 c 2.4722,1.3322 5.3564,0.5219 8.0346,0.6455 4.2027,-0.3846 8.6801,0.5082 12.6493,-1.291 -6.7985,-0.4944 -13.6107,0.0137 -20.4091,0 -0.0688,0.1648 -0.2061,0.4945 -0.2748,0.6455 m -68.8499,37.6869 c -3.3649,0.5081 -7.5676,-1.14 -10.3007,1.3597 11.6741,0.412 23.3208,-0.8241 34.9949,-0.7004 17.7996,-0.0549 35.5855,-0.5906 53.3851,-0.8515 2.019,-0.0412 4.0241,-0.3022 6.0019,-0.7691 -1.4421,-0.3297 -2.8979,-0.4944 -4.3538,-0.5082 -26.5895,0.2197 -53.1653,0.7141 -79.7274,1.4695 z"
   id="path10" />
	<path
   stroke="#000000"
   stroke-width="0.094"
   d="m 341.8311,203.1443 c 7.4028,-0.0961 14.7918,-1.1262 22.1808,-0.2335 603.663,-0.0961 1207.3394,0.0824 1811.0161,-0.0824 l -0.082,1.3597 c -4.6697,0 -9.3394,0 -13.9814,-0.0824 -0.041,17.6348 -0.1099,35.2834 0.041,52.9182 -0.3708,0.0549 -1.085,0.1511 -1.4421,0.1923 -0.069,-17.6898 0.055,-35.3932 -0.069,-53.0967 -101.0156,0.0824 -202.045,0.1099 -303.0605,-0.0137 0.3158,18.5825 1.7717,37.1375 1.4147,55.72 -0.8105,-1.0987 -1.1812,-2.3073 -1.1401,-3.6533 -0.7142,-17.3601 -0.6592,-34.734 -1.7853,-52.0804 -298.4048,0.1785 -596.8096,0.0687 -895.2144,0.0549 -0.467,15.0665 -1.4696,30.1055 -1.5931,45.1858 -0.3434,2.2524 0.4807,5.0405 -1.3597,6.8122 -0.2197,-17.3601 1.291,-34.6928 1.4833,-52.0529 -100.3701,0.1511 -200.7403,0.0961 -301.0966,0.0275 -0.0412,17.6623 -0.0687,35.3246 0.0137,52.9868 -0.3571,0.0275 -1.0713,0.0824 -1.4283,0.1099 -0.055,-17.7035 0.0549,-35.407 -0.055,-53.0967 -99.2302,0.0824 -198.4604,0.1373 -297.6906,-0.0275 -1.0987,18.8297 -2.5683,37.6457 -3.3512,56.5028 325.8871,0 651.774,0.2472 977.6749,0.618 75.2775,0.1373 150.5688,-0.0138 225.8464,0.3159 -0.412,-19.0083 -2.1699,-38.0028 -1.5793,-57.011 1.7441,3.1314 1.0712,6.8534 1.3597,10.3007 0.1785,15.5884 1.03,31.1494 1.4144,46.7103 231.8348,0.5219 463.6831,0.4258 695.5178,0.5768 -0.027,0.3708 -0.096,1.1262 -0.1372,1.5107 -149.9785,-0.2197 -299.9706,-0.261 -449.9626,-0.4258 -70.4844,-0.6043 -140.955,-0.1511 -211.4393,-0.4669 -423.5101,-0.206 -847.0206,-0.5768 -1270.531,-0.9202 -11.4132,0.1236 -22.8127,-0.618 -34.2258,-0.1374 -3.3512,0.0824 -6.7847,0.3983 -10.0672,-0.4944 2.3211,-0.673 4.7521,-0.6867 7.1556,-0.673 22.5517,-0.0824 45.0896,0.1236 67.6414,0.0824 0.6043,-18.8434 2.4859,-37.6045 3.2001,-56.4479 -4.7933,-0.6042 -10.3146,1.4147 -14.6683,-0.9888 z"
   id="path12" />
	<path
   stroke="#000000"
   stroke-width="0.094"
   d="m 1257.3033,204.9298 c 2.0876,1.2224 1.1674,3.9143 1.5245,5.892 0.2061,16.2065 1.3459,32.3854 1.5244,48.5782 -2.1288,-1.2498 -1.2361,-3.983 -1.5382,-6.0019 -0.1646,-16.1653 -1.2633,-32.3031 -1.5107,-48.4683 z"
   id="path14" />
	<path
   fill="#262c2a"
   stroke="#262c2a"
   stroke-width="0.094"
   d="m 1843.5238,285.5088 c 12.5806,-2.4172 25.4359,-0.673 38.1401,-0.8652 80.5515,0.5356 161.1031,0.1373 241.6547,0.9202 35.7366,0.2335 71.4731,0.8927 107.1824,2.3074 10.5479,0.7142 21.1646,0.9477 31.6162,2.6782 3.1863,0.2884 5.9194,2.1425 7.801,4.7108 6.2493,7.9796 11.2485,16.852 16.4402,25.5458 26.6443,46.6965 50.6519,94.8489 73.9866,143.276 5.782,12.5119 11.8389,24.9414 16.6733,37.8654 1.6619,4.1066 1.0437,9.4629 -2.9253,12.0038 -6.6338,4.4362 -14.9431,4.7246 -22.6069,5.686 -16.9893,0.9888 -33.8137,3.6533 -50.8442,3.8456 -72.3384,1.9915 -144.7043,2.4172 -217.0703,3.3237 -78.2991,0.3159 -156.5983,1.3735 -234.8975,0.9477 -8.1169,-0.412 -16.4536,0.6455 -24.3921,-1.0988 -3.7632,-3.9829 -3.6533,-9.9436 -4.2712,-15.039 -0.9889,-17.882 1.7167,-35.6954 1.4421,-53.5637 -0.014,-47.6168 0,-95.2198 0,-142.8365 -0.014,-5.1092 -1.2499,-10.493 1.03,-15.3275 3.3649,-8.5565 12.5668,-12.7318 21.0409,-14.3799 m -11.6191,6.0568 c -5.0543,2.8979 -8.8175,8.2543 -9.1196,14.1463 0.6592,17.3327 0.1923,34.679 0.3296,52.0117 -0.082,36.5469 0.1648,73.0938 -0.1097,109.6408 -0.1512,18.1018 -3.7496,36.492 0.2471,54.4015 0.8378,5.1092 6.5651,3.7358 10.3282,4.0791 59.5105,0.8515 119.0212,-0.0549 178.5319,-0.3433 40.7085,-0.2061 81.417,-0.2335 122.1116,-0.9889 33.4016,-0.5906 66.8035,-0.4395 100.1914,-1.2635 -37.522,-78.6013 -75.4148,-157.0241 -112.772,-235.6803 -8.1172,-0.6043 -16.2476,-0.3159 -24.3508,-0.5219 -80.5654,-0.7554 -161.1444,-0.1099 -241.7097,-1.0163 -8.1309,0.151 -16.5776,1.3458 -23.678,5.5348 m 291.304,-4.2027 c 37.7556,78.5326 75.2913,157.1751 113.0195,235.7077 23.6777,-0.4807 47.3694,-0.3571 71.0337,-1.6344 13.8989,-0.151 27.6194,-2.6507 41.4912,-3.2413 8.1306,-1.0026 17.0305,-0.9614 24.1721,-5.4937 3.6533,-2.1975 3.9006,-6.9083 2.3899,-10.5067 -4.5461,-12.2647 -10.3145,-24.0213 -15.7671,-35.8877 -23.2244,-48.4271 -47.2322,-96.5383 -73.8079,-143.2348 -6.2629,-10.0672 -11.5095,-21.0821 -19.9285,-29.5562 -9.5042,-3.4061 -19.9558,-2.637 -29.886,-3.6121 -37.5355,-1.9914 -75.14,-2.1562 -112.7169,-2.5408 z"
   id="path16" />
	<path
   stroke="#000000"
   stroke-width="0.094"
   d="m 1485.4574,287.4453 c 7.4301,-1.7168 15.0802,-1.2224 22.6478,-1.2635 59.9639,-0.0137 119.9138,-0.0137 179.8778,0 9.1746,0.0412 18.61,-0.6455 27.4685,2.2936 17.8821,5.425 31.2593,23.0461 31.3143,41.7934 -0.014,43.4965 0,86.993 -0.014,130.4894 -0.082,8.062 0.7279,16.385 -2.1564,24.1037 -5.6035,18.1842 -23.829,31.3965 -42.8646,31.1218 -68.6714,0.0138 -137.3429,0 -206.0005,0 -14.6133,0.1374 -29.0894,-7.2654 -37.3024,-19.3791 -5.6722,-7.9659 -8.2268,-17.8134 -8.2406,-27.5098 0.096,-46.2845 -0.1097,-92.5691 0.096,-138.8398 0.3573,-20.0932 15.4513,-38.6894 35.1737,-42.8097 m 4.8345,0.4945 c -21.1096,2.2112 -38.2913,21.2744 -38.7856,42.4115 -0.11,45.7626 0.027,91.539 -0.055,137.3016 -0.11,4.0928 0.3021,8.1719 1.1948,12.1685 3.8182,20.3817 23.7466,35.7641 44.3617,34.9125 68.6989,-0.0549 137.3977,0 206.0967,-0.0274 21.9198,-0.4258 41.7935,-19.4615 42.2604,-41.5325 0.069,-48.0975 0.096,-96.1812 -0.014,-144.2787 -0.5907,-22.0984 -20.4366,-40.7084 -42.2605,-41.4088 -57.6978,-0.0824 -115.3954,-0.0137 -173.0795,-0.0275 -13.2399,0.3022 -26.5346,-0.6317 -39.7194,0.4808 z"
   id="path18" />
	<path
   fill="#9ed1c8"
   stroke="#9ed1c8"
   stroke-width="0.094"
   d="m 1831.9047,291.5656 c 7.1005,-4.189 15.5471,-5.3838 23.6779,-5.5349 80.5653,0.9065 161.1443,0.261 241.7097,1.0163 8.1033,0.206 16.2336,-0.0824 24.3508,0.5219 37.3572,78.6562 75.25,157.079 112.772,235.6803 -33.3879,0.824 -66.7898,0.6729 -100.1914,1.2635 -40.6946,0.7554 -81.4031,0.7828 -122.1116,0.9889 -59.5106,0.2884 -119.0214,1.1948 -178.5319,0.3433 -3.7632,-0.3433 -9.4905,1.0301 -10.3282,-4.0791 -3.9967,-17.9095 -0.3983,-36.2997 -0.2471,-54.4015 0.2745,-36.5469 0.027,-73.0939 0.1097,-109.6408 -0.1373,-17.3327 0.3296,-34.6791 -0.3296,-52.0117 0.3022,-5.8919 4.0653,-11.2482 9.1197,-14.1462 z"
   id="path20" />
	<path
   stroke="#000000"
   stroke-width="0.094"
   d="m 1117.5433,288.9561 c 3.3375,-0.6318 6.7435,-0.7966 10.1497,-0.7966 68.6439,0.0549 137.3016,-0.0412 205.9457,0.0549 22.4418,0.1786 42.7135,19.489 43.5651,41.9857 0.1237,47.6305 0.014,95.2747 0.055,142.9189 0.2061,13.9815 -7.0182,27.7158 -18.2666,35.9426 -7.6638,5.6997 -17.1953,8.735 -26.7133,8.8036 -68.6576,0.0138 -137.3153,0 -205.9592,0.0138 -12.7866,0.0687 -25.4634,-5.4937 -33.9237,-15.0803 -7.6775,-8.4054 -11.6467,-19.7361 -11.6055,-31.0532 -0.014,-40.269 -0.014,-80.5241 -0.014,-120.7793 0.261,-11.0698 -1.1537,-22.6204 2.8705,-33.2232 5.2053,-14.6818 18.61,-25.9576 33.8962,-28.7869 m -0.9201,1.5657 c -11.8528,2.6232 -22.4419,10.3694 -28.4987,20.8761 -4.3812,7.3066 -6.0431,15.9318 -6.1667,24.3509 0.082,45.8176 -0.055,91.6351 0.069,137.4527 0.3708,17.9507 12.3883,34.995 29.4601,40.7908 6.8945,2.637 14.3523,2.582 21.6315,2.4722 66.8309,-0.0412 133.662,0.0687 200.493,-0.055 22.1809,-0.0549 42.1642,-19.7499 42.2604,-41.9857 0.1237,-46.6966 0.014,-93.4069 0.041,-140.1034 0.096,-5.8096 -0.7417,-11.6604 -2.8979,-17.0717 -6.2903,-16.33 -23.1008,-27.9218 -40.6534,-27.6746 -68.2731,-0.0412 -136.5461,0.0137 -204.8193,-0.0275 -3.6673,0.0138 -7.3481,0.2336 -10.919,0.9752 z"
   id="path22" />
	<path
   fill="#9ed1c8"
   stroke="#9ed1c8"
   stroke-width="0.094"
   d="m 1490.2919,287.9398 c 13.1848,-1.1125 26.4795,-0.1785 39.7194,-0.4807 57.6841,0.0137 115.3817,-0.0549 173.0795,0.0275 21.8239,0.7004 41.6698,19.3104 42.2605,41.4088 0.1097,48.0975 0.082,96.1812 0.014,144.2787 -0.4669,22.071 -20.3406,41.1067 -42.2604,41.5325 -68.699,0.0274 -137.3978,-0.0275 -206.0967,0.0274 -20.6151,0.8516 -40.5435,-14.5309 -44.3617,-34.9125 -0.8927,-3.9967 -1.3048,-8.0757 -1.1948,-12.1685 0.082,-45.7627 -0.055,-91.539 0.055,-137.3016 0.4943,-21.1372 17.676,-40.2004 38.7856,-42.4116 z"
   id="path24" />
	<path
   fill="#9ed1c8"
   stroke="#9ed1c8"
   stroke-width="0.094"
   d="m 2123.2087,287.3629 c 37.5769,0.3846 75.1814,0.5493 112.717,2.5408 9.9302,0.9751 20.3818,0.206 29.886,3.6121 8.4189,8.474 13.6655,19.4889 19.9285,29.5562 26.5757,46.6966 50.5835,94.8077 73.8079,143.2348 5.4526,11.8664 11.2209,23.623 15.7671,35.8877 1.5107,3.5984 1.2634,8.3093 -2.3899,10.5067 -7.1416,4.5323 -16.0415,4.4911 -24.1721,5.4937 -13.8718,0.5906 -27.5923,3.0902 -41.4912,3.2413 -23.6643,1.2773 -47.356,1.1537 -71.0337,1.6343 C 2198.5,444.5381 2160.9644,365.8956 2123.2087,287.3629 Z"
   id="path26" />
	<path
   stroke="#000000"
   stroke-width="0.094"
   d="m 754.6699,291.4146 c 6.5238,-1.7992 13.3223,-1.3597 20.0109,-1.3872 64.5511,-0.0137 129.1023,0.0137 193.6672,-0.0137 7.6912,-0.2884 15.5334,0.8103 22.5516,4.1065 15.5197,6.9633 26.2462,23.2796 26.3423,40.3101 0,42.5488 0,85.1114 0,127.6739 -0.1373,8.7487 0.7829,17.7722 -2.17,26.205 -5.425,17.676 -22.7165,31.012 -41.2715,31.2455 -70.0586,0.0961 -140.1172,0 -210.1758,0 -18.4314,-0.4807 -35.5306,-13.7755 -40.8182,-31.3966 -2.9941,-8.7899 -2.0189,-18.1705 -2.17,-27.2763 0.0413,-42.5763 -0.0687,-85.1663 0.0549,-127.7426 0.6454,-19.379 15.1077,-37.2061 33.9786,-41.7246 m 3.5983,0.563 c -16.7421,2.9254 -31.2042,16.2614 -34.9949,32.8936 -1.8953,7.1555 -1.0576,14.5995 -1.2224,21.8925 0.0137,43.5102 -0.0413,87.0204 0.0275,130.5306 1.0026,21.5353 20.0108,40.5298 41.6698,40.9007 34.7615,0.0412 69.5092,0.0824 104.257,0.0137 27.9081,1.1537 55.8436,-0.7966 83.7654,0.2884 11.8527,-1.1399 24.2547,1.5932 35.6267,-2.9391 13.1437,-4.8894 23.6779,-16.3987 27.0977,-30.0369 1.6206,-5.7959 1.2635,-11.8664 1.291,-17.8271 0,-41.711 0,-83.422 0,-125.1331 -0.014,-6.8671 0.412,-13.954 -1.9091,-20.5465 -5.4113,-17.6211 -22.8813,-30.806 -41.3814,-30.6137 -68.685,0.0137 -137.3564,0.0137 -206.0278,0 -2.7469,0.0276 -5.5075,0.0413 -8.1995,0.5769 z"
   id="path28" />
	<path
   fill="#9ed1c8"
   stroke="#9ed1c8"
   stroke-width="0.094"
   d="m 1116.6232,290.5218 c 3.5708,-0.7417 7.2517,-0.9614 10.9187,-0.9751 68.2732,0.0412 136.5463,-0.0138 204.8193,0.0274 17.5525,-0.2472 34.3633,11.3445 40.6534,27.6746 2.1564,5.4113 2.9943,11.2621 2.8979,17.0717 -0.027,46.6966 0.082,93.4069 -0.041,140.1034 -0.096,22.2358 -20.0795,41.9308 -42.2604,41.9857 -66.8309,0.1236 -133.6619,0.0137 -200.493,0.0549 -7.2792,0.1099 -14.7368,0.1649 -21.6315,-2.4721 -17.0717,-5.7959 -29.0892,-22.8401 -29.4601,-40.7908 -0.1237,-45.8176 0.014,-91.6351 -0.069,-137.4527 0.1237,-8.4191 1.7854,-17.0443 6.1666,-24.3509 6.0572,-10.5067 16.6462,-18.2528 28.499,-20.8761 z"
   id="path30" />
	<path
   stroke="#000000"
   stroke-width="0.094"
   d="m 437.7239,293.0764 c 7.3341,-1.6481 14.9017,-1.3597 22.3869,-1.3459 52.6572,-0.0138 105.3282,0.0137 157.9992,-0.0138 8.4466,0.0412 17.1678,0.3296 24.9964,3.8456 15.4373,6.304 26.8643,22.0161 26.878,38.868 -0.0549,48.0562 0.055,96.1262 -0.0412,144.1962 -0.7554,22.3869 -21.5353,41.0655 -43.6613,40.9419 -60.4446,-0.0961 -120.8892,0.1923 -181.3337,-0.0687 -21.398,-0.9202 -40.7633,-19.1318 -41.6698,-40.7908 -0.2472,-46.7103 -0.0138,-93.4206 -0.1236,-140.1446 -0.1785,-7.3066 0.879,-14.8055 4.1752,-21.398 5.7134,-12.1548 17.3875,-21.0684 30.3939,-24.0899 m 6.0293,0.3159 c -20.1757,1.8267 -38.456,19.0495 -39.1015,39.6921 -0.1374,48.0563 -0.0412,96.0988 -0.055,144.1551 -0.0274,22.4967 21.0684,41.5324 43.208,40.9831 27.8943,-0.4944 55.775,1.0301 83.6555,-0.0137 27.5098,0.0549 55.0057,0 82.5156,0.0137 8.2268,-0.0275 16.7147,0.7142 24.6531,-2.0052 13.6381,-4.3126 25.0239,-15.5609 28.7184,-29.4738 1.6206,-5.7547 1.2498,-11.784 1.2773,-17.6898 -0.0275,-44.8699 0,-89.7261 -0.0137,-134.596 0.0549,-6.3177 -1.7031,-12.5394 -4.6147,-18.1018 -7.5676,-14.7369 -23.9663,-23.362 -40.2826,-23.3757 -57.7115,-0.1374 -115.4229,0.0137 -173.1206,-0.0687 -2.3075,-0.0137 -4.5874,0.1373 -6.8398,0.4807 z"
   id="path32" />
	<path
   fill="#9ed1c8"
   stroke="#9ed1c8"
   stroke-width="0.094"
   d="m 758.2682,291.9776 c 2.692,-0.5356 5.4525,-0.5494 8.1993,-0.5768 68.6714,0.0137 137.3428,0.0137 206.0278,0 18.5,-0.1923 35.9701,12.9926 41.3814,30.6137 2.321,6.5925 1.8953,13.6794 1.9091,20.5465 0,41.711 0,83.422 0,125.1331 -0.028,5.9607 0.3296,12.0312 -1.291,17.8271 -3.4199,13.6382 -13.954,25.1475 -27.0977,30.0369 -11.372,4.5323 -23.774,1.7992 -35.6267,2.9391 -27.9219,-1.085 -55.8574,0.8653 -83.7654,-0.2884 -34.7477,0.0687 -69.4955,0.0274 -104.2569,-0.0138 -21.659,-0.3708 -40.6672,-19.3653 -41.6699,-40.9007 -0.0687,-43.5102 -0.0137,-87.0204 -0.0275,-130.5306 0.1648,-7.2929 -0.673,-14.7369 1.2224,-21.8924 3.7909,-16.6323 18.2531,-29.9683 34.9951,-32.8937 z"
   id="path34" />
	<path
   fill="#9ed1c8"
   stroke="#9ed1c8"
   stroke-width="0.094"
   d="m 443.7532,293.3923 c 2.2524,-0.3434 4.5323,-0.4944 6.8397,-0.4807 57.6977,0.0824 115.4092,-0.0687 173.1207,0.0687 16.3163,0.0137 32.715,8.6389 40.2826,23.3758 2.9117,5.5624 4.6697,11.784 4.6147,18.1018 0.0137,44.8699 -0.0138,89.7261 0.0137,134.596 -0.0275,5.9058 0.3433,11.9351 -1.2773,17.6898 -3.6945,13.9128 -15.0803,25.1612 -28.7184,29.4738 -7.9384,2.7194 -16.4262,1.9777 -24.6531,2.0052 -27.5098,-0.0137 -55.0058,0.0412 -82.5156,-0.0137 -27.8806,1.0438 -55.7612,-0.4807 -83.6555,0.0137 -22.1396,0.5494 -43.2355,-18.4863 -43.208,-40.9831 0.0138,-48.0563 -0.0824,-96.0988 0.055,-144.155 0.6455,-20.6429 18.9258,-37.8657 39.1015,-39.6923 z"
   id="path36" />
	<path
   stroke="#000000"
   stroke-width="0.094"
   d="m 250.9513,303.3359 c 31.6575,-0.3571 63.3288,1.3185 94.9863,1.4009 0.0274,0.3846 0.0824,1.14 0.0961,1.5245 -30.1605,-0.6592 -60.3347,-1.291 -90.5089,-1.7855 -1.5656,-0.1098 -3.3786,0.1649 -4.5735,-1.1399 z"
   id="path38" />
	<path
   fill="#f4bd18"
   stroke="#f4bd18"
   stroke-width="0.094"
   d="m 201.2744,317.0427 c 0.4532,-1.2361 1.0575,-2.4035 1.8129,-3.4885 -3.5984,18.4039 -9.3256,36.4096 -12.1411,55.0058 -0.7279,-1.0164 -1.4558,-2.0327 -2.1563,-3.049 3.5573,-16.3026 6.9222,-32.7013 12.4845,-48.4683 z"
   id="path40" />
	<path
   stroke="#000000"
   stroke-width="0.094"
   d="m 231.2701,341.9567 c 34.9263,-0.1099 69.8389,-2.0327 104.7651,-1.4558 -1.7855,1.4421 -4.1615,1.0713 -6.2903,1.1949 -32.8112,0.4669 -65.6087,0.879 -98.4199,1.7443 -0.0137,-0.3709 -0.0411,-1.1126 -0.0549,-1.4834 z"
   id="path42" />
	<path
   fill="#f4bd18"
   stroke="#f4bd18"
   stroke-width="0.094"
   d="m 188.2269,367.5986 c 0.7142,1.0163 1.4146,2.0327 2.1288,3.049 -2.376,11.5643 -4.9581,23.1423 -6.2766,34.8713 -0.7142,-0.9752 -1.4009,-1.9503 -2.0876,-2.9254 2.1014,-11.6604 4.3675,-23.2933 6.2354,-34.9949 z"
   id="path44" />
	<path
   stroke="#000000"
   stroke-width="0.094"
   d="m 228.5919,377.4873 c 11.3033,-0.0687 22.5517,1.4421 33.855,1.6756 20.725,1.5657 41.505,2.1151 62.2026,3.9692 -1.964,1.9915 -4.9169,0.5906 -7.3341,0.6318 -28.4437,-1.5932 -56.8599,-3.3924 -85.2899,-4.9581 -1.3185,0.0137 -2.4584,-0.4258 -3.4336,-1.3185 z"
   id="path46" />
	<path
   fill="#daab0e"
   stroke="#daab0e"
   stroke-width="0.094"
   d="m 181.4009,404.6949 c 3.9005,4.4636 -0.206,10.5204 0.0549,15.7532 -0.3434,0.1511 -1.0438,0.4532 -1.4009,0.6043 l -0.7691,-0.2884 c 0.3571,-5.3976 1.7993,-10.6578 2.1151,-16.0691 z"
   id="path48" />
	<path
   fill="#3e3e3e"
   stroke="#3e3e3e"
   stroke-width="0.094"
   d="m 226.4769,418.649 c 1.8816,-0.4944 3.7907,-0.7417 5.7547,-0.7417 27.4274,0.0412 54.8685,0.0687 82.3096,-0.0137 2.8842,0.1511 6.1805,-0.6318 8.6252,1.3734 -28.4575,0.8378 -56.9698,0.1099 -85.441,0.3708 -3.7634,-0.1099 -7.6914,0.5219 -11.2485,-0.9888 z"
   id="path50" />
	<path
   fill="#f4bd18"
   stroke="#f4bd18"
   stroke-width="0.094"
   d="m 178.6266,423.1126 c 0.2884,-0.1374 0.8515,-0.3983 1.1262,-0.5219 0.1648,0.4532 0.4807,1.3459 0.6318,1.7855 -0.9889,7.9384 -2.6644,15.7944 -3.5434,23.7466 l -1.8129,0.1511 c 1.2085,-8.3918 2.6369,-16.7422 3.5983,-25.1613 z"
   id="path52" />
	<path
   fill="#cb980d"
   stroke="#cb980d"
   stroke-width="0.094"
   d="m 174.5475,457.0088 c -0.4807,-2.3348 -0.6455,-6.1118 1.2498,-7.6088 0.4533,2.3211 0.5082,6.0431 -1.2498,7.6088 z"
   id="path54" />
	<path
   stroke="#000000"
   stroke-width="0.094"
   d="m 216.9453,458.808 c 25.8204,-0.7142 51.6409,-1.9228 77.4613,-2.6782 -0.8103,2.6919 -3.8456,1.1537 -5.8508,1.497 -24.8178,0.7829 -49.6357,1.9777 -74.4673,2.5683 0.6593,-1.0438 1.6069,-1.5107 2.8568,-1.3871 z"
   id="path56" />
	<path
   stroke="#000000"
   stroke-width="0.094"
   d="m 296.8925,456.4182 c 0.0687,-0.1511 0.206,-0.4807 0.2747,-0.6455 6.7985,0.0137 13.6107,-0.4944 20.4091,0 -3.9692,1.7992 -8.4466,0.9065 -12.6493,1.291 -2.6781,-0.1236 -5.5623,0.6867 -8.0345,-0.6455 z"
   id="path58" />
	<path
   fill="#ab8809"
   stroke="#ab8809"
   stroke-width="0.094"
   d="m 173.3526,458.5058 2.1151,-0.9202 c -0.7004,6.4963 -1.9777,12.9102 -2.5271,19.434 l -2.1425,0.1511 c 0.8378,-6.2216 1.5932,-12.457 2.5545,-18.6649 z"
   id="path60" />
	<path
   fill="#b08707"
   stroke="#b08707"
   stroke-width="0.094"
   d="m 170.3998,487.0182 c -0.5631,-2.637 -0.6592,-6.771 1.2361,-8.6251 0.5493,2.637 0.5905,6.7023 -1.2361,8.6251 z"
   id="path62" />
	<path
   fill="#f4bd18"
   stroke="#f4bd18"
   stroke-width="0.094"
   d="m 168.6418,495.0939 c 0.5356,-2.4722 0.0549,-5.5349 2.1837,-7.3478 -1.3048,12.0587 -3.2413,24.0487 -4.3126,36.1349 -0.1923,2.0602 -0.6592,4.0928 -1.3734,6.0431 -0.2472,-11.7291 2.5134,-23.2109 3.5023,-34.8302 z"
   id="path64" />
	<path
   stroke="#000000"
   stroke-width="0.094"
   d="m 228.0426,494.1051 c 26.5621,-0.7554 53.1379,-1.2498 79.7275,-1.4696 1.4558,0.0137 2.9117,0.1786 4.3538,0.5081 -1.9777,0.467 -3.9829,0.7279 -6.0019,0.7691 -17.7997,0.261 -35.5855,0.7966 -53.3852,0.8515 -11.6741,-0.1236 -23.3208,1.1125 -34.9949,0.7004 2.7331,-2.4995 6.9358,-0.8513 10.3007,-1.3595 z"
   id="path66" />
	<path
   fill="#a88106"
   stroke="#a88106"
   stroke-width="0.094"
   d="m 162.9283,537.8625 c 0.5768,-2.637 -0.0412,-6.1255 2.7194,-7.7049 -0.8241,11.3582 -2.4722,22.6478 -3.5297,33.9923 128.1683,0.1786 256.3503,-0.1373 384.5187,-0.3159 31.7262,0.1373 63.4524,-0.5494 95.1649,0.1648 -35.7915,1.1674 -71.638,0.3433 -107.4433,0.7279 -7.9384,0.261 -15.9867,-0.8652 -23.8427,0.7004 -0.4395,0.2335 -1.3185,0.7142 -1.7442,0.9614 l -0.3983,-1.3871 c -27.9493,-0.7417 -55.926,-0.0962 -83.8753,-0.3434 -88.1329,-0.0412 -176.2658,0.1511 -264.4124,0 0.5218,-8.9684 2.0189,-17.8545 2.8429,-26.7955 z"
   id="path68" />
	<path
   fill="#4f3c02"
   stroke="#4f3c02"
   stroke-width="0.094"
   d="m 1223.5446,560.84 c 11.0012,1.6069 22.1396,0.2747 33.1958,0.7416 33.0858,0.1511 66.158,-0.3571 99.2301,0.2061 -44.1145,0.4807 -88.229,0.5493 -132.3435,0.4532 z"
   id="path70" />
	<path
   stroke="#000000"
   stroke-width="0.094"
   d="m 508.7713,566.3886 c 0.4258,-0.2472 1.3047,-0.7279 1.7442,-0.9614 -1.2086,78.6563 -1.2086,157.3812 1.6344,236.0099 1.5245,24.241 2.2936,48.6331 6.4276,72.6268 1.0438,5.1916 1.813,10.6028 4.3813,15.3138 1.6206,3.1177 5.5074,3.3787 8.5839,3.9966 18.1979,2.3076 36.5881,1.813 54.9097,1.9915 34.7889,-0.1785 69.5779,-0.3159 104.3668,-0.5356 31.8498,0.2885 63.8506,-0.4532 95.5356,3.6119 6.6062,1.0438 13.4459,1.9642 19.4615,5.1229 4.0654,2.17 4.9993,7.1418 6.7023,11.0424 13.7755,38.5384 26.0265,78.0931 47.0262,113.5001 8.1993,13.3086 17.5798,26.7269 31.2729,34.8715 5.4937,3.4471 12.0175,5.0404 18.4864,4.7932 16.797,-0.4258 33.6215,-0.261 50.4323,-0.4807 3.983,0.3572 7.9109,1.1125 11.8665,1.7855 -22.1396,-0.6318 -44.2793,-0.028 -66.419,-0.1648 -12.2784,-0.467 -22.3457,-8.9548 -30.4077,-17.4564 -14.4622,-16.2888 -24.3784,-35.97 -33.2781,-55.6924 -11.5642,-26.0402 -20.4365,-53.1517 -29.9545,-79.9747 -1.8404,-4.601 -3.2001,-10.6166 -8.6799,-12.0999 -13.8442,-4.9169 -28.7596,-5.1091 -43.2495,-6.3041 -68.1907,-3.3099 -136.4501,0.5219 -204.682,-0.9614 -9.6826,-0.7416 -19.6125,-0.2885 -29.0205,-2.9803 -4.6559,-1.2911 -5.5349,-6.771 -6.8397,-10.699 -4.4636,-18.6512 -5.3975,-37.8929 -6.9221,-56.9561 -4.958,-86.3611 -3.4885,-172.942 -3.3786,-259.3993 z"
   id="path72" />
	<path
   fill="#ffffff"
   stroke="#ffffff"
   stroke-width="0.094"
   d="m 2523.3982,699.0068 c 20.0796,-5.8645 44.0186,9.5179 44.458,31.0258 1.4968,19.1456 -16.4812,35.8053 -35.1873,35.2147 -17.8547,0.7005 -35.5718,-14.16 -35.627,-32.4953 -1.0985,-15.8219 11.3175,-30.2429 26.3563,-33.7452 z"
   id="path74" />
	<path
   fill="#ffffff"
   stroke="#ffffff"
   stroke-width="0.094"
   d="m 130.694,896.3135 c 7.0732,-2.5821 15.4236,-1.8679 21.7688,2.3073 8.7075,5.5624 14.0914,15.1077 16.7833,24.8865 3.4885,13.5832 2.3211,28.5948 -4.2714,41.0792 -3.5572,6.4551 -8.6251,12.4296 -15.4099,15.5748 -7.5676,3.6533 -17.003,2.8705 -23.8977,-1.9091 -9.1882,-6.1804 -14.5858,-16.6872 -16.9206,-27.29 -2.7743,-13.9404 -1.0438,-29.1718 6.6886,-41.299 3.7358,-5.6997 8.8038,-10.85 15.2589,-13.3497 z"
   id="path76" />
	<path
   fill="#ffffff"
   stroke="#ffffff"
   stroke-width="0.094"
   d="m 1971.4999,1045.4679 c 49.2098,-7.6362 102.6637,8.8311 136.1891,46.3395 20.9585,23.1285 32.9761,54.6898 30.5315,86.004 -1.4561,25.5458 -12.3474,50.1163 -29.062,69.3444 -16.948,19.5989 -39.6096,33.9923 -64.1938,41.9857 -49.4847,16.2202 -107.457,7.0457 -147.6573,-26.6995 -21.7688,-17.937 -37.7968,-43.2355 -43.0021,-71.1024 -5.9469,-30.2291 1.5931,-62.436 19.3242,-87.4874 22.4829,-32.1793 59.3456,-52.7808 97.8704,-58.3843 m 11.166,85.2761 c -9.2982,2.5133 -17.58,8.7212 -22.4557,17.0442 -9.147,14.778 -6.0156,35.764 7.2379,47.0812 13.6383,12.8279 36.9866,12.6218 50.3912,-0.4532 14.8741,-12.979 16.0415,-38.0165 2.5408,-52.3964 -9.1607,-10.4792 -24.3233,-14.984 -37.7142,-11.2758 z"
   id="path78" />
	<path
   fill="#ffffff"
   stroke="#ffffff"
   stroke-width="0.094"
   d="m 601.0794,1047.116 c 46.724,-6.6749 97.019,7.9933 130.3384,42.0269 18.4039,18.5825 31.1356,43.0844 34.212,69.1658 3.255,24.5156 -2.2798,49.9379 -14.6682,71.281 -11.2896,19.6949 -28.0729,35.9838 -47.5481,47.5481 -46.6279,28.0179 -108.1163,28.8557 -155.6506,2.5133 -25.2024,-13.8302 -46.4493,-35.5305 -57.9449,-62.0514 -7.9522,-18.0743 -10.9874,-38.25 -8.8037,-57.8763 2.8705,-26.6582 15.6983,-51.8469 34.5967,-70.7316 22.6615,-23.1285 53.5362,-37.4809 85.4684,-41.8758 m 12.1549,84.8641 c -9.6552,1.8678 -18.3627,7.7599 -23.9114,15.8494 -10.3557,14.7643 -7.7874,36.8491 5.8783,48.688 13.4871,12.8553 36.5744,12.869 50.1988,0.2197 11.784,-10.177 15.5884,-27.9905 9.6277,-42.2604 -6.3727,-16.124 -24.8042,-26.0402 -41.7934,-22.4967 z"
   id="path80" />
	<path
   fill="#72590b"
   stroke="#72590b"
   stroke-width="0.094"
   d="m 959.7365,1067.2916 c 22.9911,-0.934 46.0098,-0.3569 69.0148,-0.5906 75.5386,-0.096 151.0908,-0.1373 226.6294,-0.2197 33.6627,0.151 67.3254,-0.3708 100.9607,0.261 l -0.9064,1.7579 c -28.7596,0.8241 -57.5603,0.4532 -86.3337,0.6868 -99.1615,-0.027 -198.3367,0.1923 -297.4982,-0.1099 -3.9557,-0.673 -7.8837,-1.4284 -11.8666,-1.7855 z"
   id="path82" />
	<path
   stroke="#000000"
   stroke-width="0.094"
   d="m 1982.6659,1130.744 c 13.3909,-3.7083 28.5535,0.7966 37.7142,11.2759 13.5007,14.3798 12.3334,39.4174 -2.5408,52.3962 -13.4047,13.0751 -36.7529,13.2811 -50.3912,0.4532 -13.2535,-11.317 -16.3849,-32.303 -7.2379,-47.0811 4.8757,-8.3229 13.1575,-14.5309 22.4557,-17.0442 z"
   id="path84" />
	<path
   stroke="#000000"
   stroke-width="0.094"
   d="m 613.2343,1131.9801 c 16.9893,-3.5435 35.4207,6.3727 41.7934,22.4967 5.9607,14.27 2.1563,32.0834 -9.6277,42.2605 -13.6245,12.6493 -36.7117,12.6355 -50.1988,-0.2197 -13.6656,-11.839 -16.2339,-33.9237 -5.8783,-48.6881 5.5486,-8.0896 14.2561,-13.9816 23.9114,-15.8494 z"
   id="path86" />
	<path
   stroke="#000000"
   stroke-width="0.094"
   d="m 865.1347,1178.869 c 0.1923,0 0.5768,-0.014 0.7691,-0.014 0.9202,13.8304 2.225,27.6471 3.3649,41.4775 -1.8953,-2.7194 -1.4695,-6.249 -2.0876,-9.3533 -0.3707,-10.7124 -2.788,-21.3977 -2.0464,-32.1104 z"
   id="path88" />
	<path
   fill="#ffffff"
   d="m 2554.4377,946.6772 c -10.6167,-2.0876 -19.283,-9.5865 -25.3948,-18.1843 -7.6226,-10.8776 -12.0586,-23.7329 -14.1326,-36.7805 -2.9802,-20.9173 -0.8652,-43.0158 8.7214,-62.0515 4.8618,-9.7101 11.99,-18.6923 21.6726,-23.9388 9.051,-4.9718 20.574,-5.0817 29.6797,-0.1373 11.5093,6.098 19.3518,17.3738 24.3511,29.1442 5.8918,15.5334 8.5288,32.303 7.073,48.894 -0.1235,0.4395 -0.1787,0.8516 -0.1787,1.2498 l -0.6453,3.2825 c 0.1648,6.6062 -1.7168,13.0063 -3.6533,19.2418 -3.9419,12.1548 -10.4792,23.8153 -20.5327,31.9322 -7.4027,6.0569 -17.4562,9.4217 -26.9604,7.3479 z"
   id="path90" />
	<path
   d="m 2606.2434,884.8317 1.9502,3.3649 c -1.1812,-0.8928 -1.9365,-2.0052 -1.9641,-3.3237 z"
   id="path92" />
	<path
   d="m 2608.1936,888.1966 -0.9202,2.9941 -1.3047,-2.3348 -0.3845,-0.7005 0.6453,-3.2825 c 0.028,1.3184 0.783,2.4309 1.9641,3.3237 z"
   id="path94" />
	<path
   d="m 2608.1936,861.7718 v 26.4248 l -1.9502,-3.3649 -0.014,0.0413 c 0,-0.3983 0.055,-0.8104 0.1787,-1.2498 1.4558,-16.591 -1.1812,-33.3605 -7.073,-48.894 0.082,-0.6318 0.2607,-1.8816 0.3569,-2.4996 4.8208,9.1743 6.4964,19.4887 8.5015,29.5422 z"
   id="path96" />
	<path
   fill="#f4bd18"
   d="m 2512.6443,883.7741 c 1.5657,18.967 7.7874,38.4011 21.0823,52.4512 8.2542,8.9822 20.7937,14.1326 32.9897,11.8252 1.071,11.9489 0.7004,23.9938 0.5903,35.9838 -0.5493,18.2666 -6.3589,35.7229 -11.166,53.1928 -2.7468,-1.0986 -7.0593,-3.9005 -9.0784,-0.2334 -4.2849,7.7736 -6.1116,16.6047 -9.0781,24.9139 -4.6011,13.6382 -10.2732,28.1553 -22.4968,36.7531 -8.4741,6.3452 -19.3928,7.1418 -29.5701,7.8423 -30.2563,1.5931 -60.5681,1.2223 -90.8523,0.7554 l 0.522,-34.4044 c 6.8945,0.096 13.7756,0.014 20.6565,-0.2885 11.3169,-1.2086 23.8152,-1.4147 33.3743,-8.4054 6.8809,-7.0182 7.8699,-17.5111 9.3118,-26.7681 3.3101,-33.7863 0,-67.7512 -3.4199,-101.4002 -3.5708,-70.7316 -6.6609,-141.5043 -11.8938,-212.1398 -2.3486,-28.6085 -4.2302,-57.3544 -9.2158,-85.6744 -1.9639,-12.3334 -8.3091,-23.3621 -15.5059,-33.3469 -15.2861,-20.6564 -35.0085,-37.4259 -55.0471,-53.2753 14.6409,-0.9065 32.8389,-4.4499 39.1428,-19.64 21.6453,23.1148 42.1367,47.3146 62.2439,71.7754 16.4949,20.3679 32.6326,41.1067 46.8201,63.1777 5.8921,9.5865 11.9624,19.2692 15.4236,30.0644 -16.9893,1.6893 -32.4128,16.9207 -31.6711,34.473 -0.7693,13.7068 8.625,26.5071 20.9036,31.9048 7.7324,3.722 16.5222,3.6945 24.8728,2.6232 2.1699,12.2647 4.4084,24.502 6.5237,36.7667 -10.3008,4.7246 -18.5276,13.1299 -23.8977,23.0323 -9.9025,17.5251 -12.979,38.154 -11.5644,58.0412 z"
   id="path98" />
	<path
   d="m 2229.4297,926.0345 c 13.5146,36.2173 18.761,75.4836 37.2063,109.833 6.249,10.9739 15.0251,22.538 28.2925,24.7766 29.9956,5.5349 60.3621,9.2157 90.825,10.6028 18.8157,0.1511 38.2637,1.4834 56.4202,-4.4911 6.5239,-1.8816 10.8364,-7.705 12.416,-14.0914 4.8755,-17.827 4.4084,-36.5331 4.2849,-54.8409 -0.563,-13.2673 -1.2361,-26.5209 -2.4858,-39.747 -3.8867,-34.7615 -4.1204,-69.7977 -6.3315,-104.6827 -1.8127,-37.5495 -4.0928,-75.0853 -6.5237,-112.5936 -2.7058,-33.8962 -4.6147,-67.9435 -10.2871,-101.5101 -1.6892,-12.1274 -7.8423,-22.9637 -14.8193,-32.7975 -15.5334,-21.2332 -35.7915,-38.3324 -56.3105,-54.5526 -72.6953,2.4173 -145.4321,2.9254 -218.1416,4.0928 -74.6458,0.5082 -149.2642,1.9091 -223.9237,1.9503 -36.849,0.7966 -73.7393,0.9614 -110.6021,1.0575 -1.4696,11.6055 -1.2224,23.3621 -2.225,35.0087 -3.7358,76.3489 -6.4689,152.8214 -4.1202,229.2664 1.4833,18.8434 1.8541,37.9615 6.8259,56.3242 1.3459,4.2029 2.7468,9.3943 7.2791,11.2072 8.2543,3.2687 17.1953,4.1065 25.9303,5.3289 32.3993,3.6396 65.0182,4.6284 97.5822,5.8783 39.8295,1.0714 79.6726,1.7305 119.5157,2.0189 39.8157,0.9339 79.645,0.5356 119.4746,1.0163 11.99,0.3159 24.0625,0.1099 35.97,1.6207 7.6086,3.5162 10.5615,12.1825 13.7478,19.3243 z m 293.9685,-227.0277 c -15.0388,3.5023 -27.4548,17.9232 -26.3562,33.7452 0.055,18.3353 17.7722,33.1957 35.627,32.4953 18.7061,0.5906 36.6841,-16.0692 35.1873,-35.2147 -0.4396,-21.5079 -24.3785,-36.8903 -44.4581,-31.0258 z m 10.3284,237.2185 c -13.2949,-14.0502 -19.5166,-33.4842 -21.0823,-52.4512 -1.4146,-19.8872 1.6619,-40.5161 11.5642,-58.0411 5.3701,-9.9024 13.5969,-18.3078 23.8977,-23.0324 -2.1152,-12.2647 -4.3538,-24.502 -6.5237,-36.7667 -8.3506,1.0713 -17.1404,1.0988 -24.8728,-2.6232 -12.2786,-5.3976 -21.6729,-18.1979 -20.9036,-31.9047 -0.7417,-17.5524 14.6819,-32.7838 31.6711,-34.4731 -3.4612,-10.7951 -9.5315,-20.4778 -15.4236,-30.0643 -14.1875,-22.071 -30.3252,-42.8098 -46.8201,-63.1777 -20.1072,-24.4608 -40.5986,-48.6606 -62.2439,-71.7754 -6.304,15.1901 -24.502,18.7336 -39.1428,19.64 20.0386,15.8494 39.761,32.6189 55.0471,53.2753 7.1968,9.9848 13.542,21.0134 15.5059,33.3469 4.9856,28.3201 6.8672,57.0659 9.2158,85.6744 5.2329,70.6354 8.323,141.4082 11.8938,212.1398 3.4199,33.649 6.73,67.6138 3.4199,101.4002 -1.4419,9.257 -2.4309,19.7499 -9.3118,26.7681 -9.5591,6.9908 -22.0574,7.1968 -33.3743,8.4054 -6.8809,0.3021 -13.762,0.3846 -20.6565,0.2885 -26.9739,-0.3845 -53.8796,-3.5571 -80.5652,-7.3752 -8.0896,-1.3734 -16.2478,-2.4036 -24.1724,-4.4501 -12.6218,-3.983 -20.574,-15.6434 -26.5623,-26.7406 -17.5522,-34.0199 -22.8948,-72.517 -36.2446,-108.1026 -2.9116,-6.6748 -5.741,-14.572 -12.6079,-18.0606 -10.4243,-1.8267 -21.0549,-1.2224 -31.5752,-1.552 -37.1238,-0.3571 -74.2476,-0.4532 -111.3577,-1.0987 -41.7111,-0.0275 -83.4083,-0.9341 -125.1193,-1.8818 -32.9623,-1.14 -65.9658,-2.17 -98.8044,-5.4937 -10.3832,-1.2773 -20.9722,-2.1425 -30.9021,-5.5897 -5.837,-1.7855 -7.7737,-8.1857 -9.2568,-13.4185 -5.1504,-19.9421 -5.5074,-40.6809 -6.8398,-61.1176 -0.9889,-34.3769 -0.714,-68.7813 -0.2334,-103.1581 1.3597,-51.9156 3.2275,-103.8312 6.6611,-155.6507 -13.6793,-0.0137 -27.345,0.2061 -40.9968,0.0687 1.6206,31.2455 1.8954,62.546 2.8016,93.8189 0.6868,35.2284 1.6071,70.4431 1.6758,105.6853 0.8652,39.8157 1.0026,79.6863 -0.041,119.5157 -0.261,34.8027 -2.1289,69.6191 -6.3315,104.1882 -1.9916,15.8082 -4.3125,31.6438 -8.6113,47.0125 -3.255,11.2208 -7.8423,22.7852 -17.0581,30.4901 -3.8455,3.6396 -9.4902,2.9666 -14.3247,3.4885 -16.0417,1.6068 -32.1658,1.0438 -48.2211,2.0876 -41.6425,0.6454 -83.271,1.6343 -124.9271,1.7854 -32.9073,0.2472 -65.8284,0.1099 -98.7358,0.5631 -32.5914,0.5768 -65.2103,0.082 -97.8018,0.6317 l 0.9064,-1.7579 c 72.984,0.5768 145.9817,-0.7142 218.9656,-1.0302 36.1899,-0.1373 72.3523,-1.1537 108.5421,-1.7305 16.9755,-1.1538 34.1023,-0.522 50.9816,-2.9392 5.7548,-2.5271 9.614,-8.1169 12.9241,-13.2537 7.9109,-14.627 10.7263,-31.2729 13.542,-47.4656 9.8063,-64.4412 9.3256,-129.8165 9.3804,-194.8345 0.2061,-38.9367 -1.2222,-77.8597 -1.3459,-116.7964 -1.2086,-43.1393 -1.9227,-86.2787 -3.3923,-129.4044 -33.3193,-0.1786 -66.6112,0.8515 -99.9305,0.8378 -43.4966,0.3433 -86.9929,0.4807 -130.5032,0.5631 -34.8027,-0.1649 -69.5916,0.8378 -104.3944,0.7279 -25.0513,0.0961 -50.0889,0.3296 -75.1403,0.3708 -33.0721,-0.5631 -66.1443,-0.0549 -99.2301,-0.206 -11.0562,-0.467 -22.1946,0.8652 -33.1958,-0.7417 98.9692,-0.5356 197.9659,-0.3983 296.9214,-1.4146 74.6183,-0.4532 149.2367,-0.3983 223.8413,-1.3597 40.7634,-0.2197 81.5266,-0.673 122.3038,-0.7554 30.188,0.0962 60.3484,-0.8103 90.5363,-0.8652 38.4697,-0.5631 76.9532,-0.2198 115.4093,-1.1125 40.7222,-0.6455 81.458,-0.467 122.1802,-1.4284 55.8572,-0.7691 111.7285,-1.3047 167.5581,-3.4885 11.1384,-0.8378 22.9912,-2.4447 32.1934,-9.3394 6.084,-4.546 9.188,-12.608 7.6499,-20.052 -1.4971,-7.5676 -5.686,-14.2013 -8.7625,-21.1783 -26.6995,-56.132 -53.4812,-112.2366 -80.1121,-168.4235 -1.5933,-3.9143 -4.395,-7.5401 -4.9719,-11.7428 2.5408,-11.0836 5.5488,-22.071 8.2131,-33.1271 1.2773,-4.2714 -1.085,-8.3367 -2.582,-12.1685 -5.1641,-11.8664 -10.6028,-24.2822 -20.78,-32.7563 -19.7637,-17.0992 -42.3015,-30.6 -64.7571,-43.8124 -13.0476,-8.3367 -28.5811,-11.0149 -43.4004,-14.4622 -45.0896,-9.202 -90.7974,-15.0253 -136.4775,-20.2718 -18.4587,-2.8293 -37.1648,-0.9751 -55.7336,-1.4421 -12.196,0.3434 -24.3783,-0.3159 -36.5469,0.3434 l 0.9751,-1.9777 h 85.9628 l -3.7219,1.1949 c 15.7533,0.6867 31.3553,3.2413 47.0123,5.0679 36.2173,4.7795 72.4897,9.7239 108.1575,17.8134 11.0974,2.7606 22.5244,5.3014 32.4131,11.317 22.7852,13.336 45.6252,26.9741 65.8284,44.0733 7.9934,6.3727 13.4871,15.1489 17.7583,24.3097 2.7195,6.9083 7.554,13.5557 7.4717,21.2057 -2.2251,11.1248 -5.48,22.0435 -8.0759,33.0859 -0.4668,1.6619 -0.261,3.2413 0.6318,4.7521 29.8308,62.6558 59.6343,125.3253 89.4788,187.9811 2.843,5.8096 4.45,12.4158 3.1863,18.8708 35.6682,40.0217 71.1711,80.4417 101.936,124.4464 8.9272,13.3909 18.1841,26.9193 23.5132,42.2467 9.4492,-0.1374 19.2827,1.9091 26.8093,7.9384 11.4956,8.3916 16.7969,24.3921 12.0313,37.9066 -3.6533,11.3582 -13.5559,19.8597 -24.8318,23.1972 2.2524,12.2372 4.6697,24.447 6.4277,36.7667 7.2515,-1.8679 15.1216,-2.4996 22.2358,0.3708 13.3633,4.9168 22.6067,17.058 28.2651,29.6797 -0.096,0.618 -0.2747,1.8679 -0.3572,2.4996 -4.9993,-11.7703 -12.8416,-23.0461 -24.3508,-29.1442 -9.1057,-4.9443 -20.6289,-4.8344 -29.6799,0.1374 -9.6826,5.2465 -16.8108,14.2287 -21.6726,23.9388 -9.5867,19.0357 -11.7017,41.1342 -8.7212,62.0515 2.0737,13.0476 6.51,25.9028 14.1326,36.7805 6.1116,8.5977 14.7781,16.0966 25.3945,18.1843 9.5044,2.0737 19.5576,-1.291 26.9604,-7.3478 10.0537,-8.1169 16.5911,-19.7774 20.533,-31.9322 1.9363,-6.2354 3.8179,-12.6356 3.6531,-19.2418 l 0.3848,0.7004 c 0.4121,0.7691 0.8513,1.552 1.3047,2.3348 -2.7332,15.1353 -7.7051,30.4626 -17.8958,42.3016 -5.5349,6.7847 -13.0613,11.8252 -21.4392,14.3798 1.387,17.5112 1.4558,35.2285 -0.9614,52.671 -2.4722,12.869 -6.2627,25.4633 -9.8887,38.0439 13.4319,15.094 21.5078,34.0748 28.5535,52.7946 6.5513,18.7474 12.0037,38.6895 9.4905,58.7141 -0.6455,6.6886 -6.8123,10.7677 -12.4431,13.2399 -12.8142,5.5486 -26.7683,7.6226 -40.4751,9.6553 -32.3442,4.2576 -65.0044,5.2052 -97.5684,5.7684 -55.8435,0.5356 -111.7009,-0.9478 -167.4485,-4.1066 -0.1372,-3.516 -0.1785,-7.0182 -0.2197,-10.5068 -9.408,-0.2747 -18.8159,-0.5219 -28.21,-0.3708 -4.5325,-21.8237 -12.979,-42.9196 -24.7905,-61.8042 9.5728,27.7706 13.6245,57.5466 10.4929,86.8281 -4.4773,46.0785 -25.9714,89.8085 -58.1099,122.9081 -33.3054,34.7889 -77.4612,58.5493 -124.3225,69.1246 -56.7089,12.8142 -117.6891,7.0458 -170.5386,-17.4012 -50.1852,-23.0049 -92.9948,-63.4524 -115.272,-114.3242 -4.285,-9.092 -6.7847,-18.8571 -10.4518,-28.1689 0.728,-0.3296 2.184,-0.9889 2.9117,-1.3186 0.8378,-18.1155 1.9229,-36.2035 2.8293,-54.3053 0.9888,-49.3748 24.3234,-97.7194 61.6532,-129.9125 33.0171,-28.6223 75.9368,-43.3591 118.829,-48.5644 33.3057,-3.9006 67.1195,-3.3099 100.3427,1.1811 47.3971,6.6199 94.2308,23.4856 131.6981,53.8658 21.2744,17.1404 39.2388,38.3461 52.8906,61.9966 10.3694,18.2253 18.7473,37.8241 22.7988,58.4668 9.0784,-0.055 18.1431,0.5768 27.2351,0.522 0.069,-19.7087 -0.5083,-39.4037 -0.3572,-59.1123 38.6072,1.703 77.2417,2.7468 115.8899,3.4611 0.8516,0.014 1.7168,0.027 2.5684,0.041 30.2842,0.467 60.5957,0.8378 90.8523,-0.7554 10.1772,-0.7004 21.0959,-1.4971 29.5701,-7.8423 12.2234,-8.5977 17.8958,-23.1147 22.4966,-36.7529 2.9668,-8.3092 4.7932,-17.1404 9.0784,-24.9139 2.019,-3.6671 6.3315,-0.8654 9.0784,0.2334 4.8069,-17.47 10.6165,-34.9263 11.166,-53.1929 0.1099,-11.99 0.4807,-24.035 -0.5906,-35.9838 -12.1956,2.3077 -24.7352,-2.8427 -32.9893,-11.825 z m -395.5061,241.5861 c 2.4446,-31.3142 -9.573,-62.8755 -30.5315,-86.004 -33.5254,-37.5084 -86.9792,-53.9757 -136.1891,-46.3395 -38.5248,5.6036 -75.3875,26.205 -97.8705,58.3843 -17.7311,25.0515 -25.2711,57.2582 -19.3242,87.4874 5.2053,27.8668 21.2333,53.1654 43.0021,71.1023 40.2003,33.7452 98.1726,42.9197 147.6573,26.6995 24.5842,-7.9933 47.2458,-22.3868 64.1938,-41.9857 16.7146,-19.228 27.606,-43.7985 29.0621,-69.3443 z"
   id="path100" />
	<path
   fill="#f4bd18"
   d="m 2249.729,1162.3466 c -4.0518,-20.6427 -12.4297,-40.2415 -22.7991,-58.4668 -13.6519,-23.6504 -31.6162,-44.8562 -52.8906,-61.9966 -37.4673,-30.3802 -84.301,-47.246 -131.698,-53.8658 -33.2231,-4.4911 -67.037,-5.0817 -100.3427,-1.1811 -42.8923,5.2053 -85.8119,19.9422 -118.829,48.5644 -37.3298,32.1931 -60.6644,80.5378 -61.6532,129.9125 -0.9066,18.1019 -1.9916,36.1898 -2.8293,54.3053 -0.7278,0.3297 -2.1837,0.9889 -2.9117,1.3186 -4.6146,1.2361 -9.4354,0.6592 -14.1189,0.7416 -291.6199,-0.069 -583.24,0.082 -874.8736,-0.069 -0.0412,-3.5573 0.0275,-7.1006 0.3983,-10.6305 0.618,3.1039 0.1923,6.6337 2.0876,9.3531 -1.14,-13.8304 -2.4447,-27.6471 -3.3649,-41.4775 -0.1923,0 -0.5768,0.014 -0.7692,0.014 l -0.1785,-0.879 c -4.5598,-35.7504 -14.1738,-71.281 -31.0258,-103.2819 -3.5435,-6.7023 -7.499,-13.2123 -11.8527,-19.4476 l 47.4794,-10.0673 c 1.6755,2.1425 3.4061,4.2301 5.219,6.2628 8.062,8.5015 18.1293,16.9893 30.4077,17.4563 22.1397,0.1373 44.2794,-0.467 66.419,0.1648 99.1615,0.3021 198.3368,0.082 297.4983,0.1099 28.7733,-0.2334 57.5741,0.1373 86.3336,-0.6866 32.5914,-0.5494 65.2103,-0.055 97.8018,-0.6318 32.9075,-0.4532 65.8285,-0.3159 98.7358,-0.5631 41.6561,-0.151 83.2847,-1.1399 124.9271,-1.7854 16.0553,-1.0438 32.1793,-0.4807 48.2211,-2.0876 4.8345,-0.5219 10.4792,0.151 14.3247,-3.4885 9.2158,-7.7048 13.8031,-19.2692 17.0581,-30.4901 4.2988,-15.3687 6.6198,-31.2042 8.6113,-47.0124 4.2026,-34.5692 6.0706,-69.3856 6.3315,-104.1882 1.0438,-39.8294 0.9065,-79.7001 0.041,-119.5157 -0.069,-35.2422 -0.989,-70.4569 -1.6758,-105.6853 -0.9063,-31.2729 -1.181,-62.5734 -2.8016,-93.8189 13.6519,0.1374 27.3175,-0.0824 40.9968,-0.0686 -3.4336,51.8195 -5.3014,103.735 -6.6611,155.6506 -0.4806,34.3769 -0.7555,68.7813 0.2334,103.1581 1.3324,20.4366 1.6895,41.1754 6.8398,61.1176 1.4832,5.2328 3.4198,11.6329 9.2568,13.4185 9.9299,3.4471 20.5189,4.3126 30.9021,5.5897 32.8386,3.3237 65.8422,4.3538 98.8044,5.4937 41.7109,0.9477 83.4082,1.8541 125.1193,1.8818 37.1101,0.6454 74.2339,0.7416 111.3577,1.0988 10.5203,0.3296 21.1509,-0.2747 31.5752,1.5519 6.8669,3.4885 9.6963,11.3857 12.6079,18.0606 13.3499,35.5855 18.6924,74.0828 36.2446,108.1026 5.9883,11.0973 13.9404,22.7577 26.5623,26.7406 7.9246,2.0465 16.0828,3.0767 24.1724,4.4501 26.6855,3.8181 53.5913,6.9907 80.5652,7.3752 l -0.522,34.4044 c -0.8516,-0.014 -1.7168,-0.027 -2.5681,-0.041 -38.6482,-0.7142 -77.2827,-1.7581 -115.8899,-3.4611 -0.1511,19.7086 0.4258,39.4037 0.3569,59.1123 -9.0919,0.054 -18.1563,-0.5773 -27.2347,-0.5223 z"
   id="path102" />
	<path
   fill="#f4bd18"
   stroke="#f4bd18"
   stroke-width="0.094"
   d="m 1769.3312,688.6924 c -1.2086,-43.1394 -1.9229,-86.2787 -3.3923,-129.4044 -33.3195,-0.1786 -66.6112,0.8516 -99.9307,0.8378 -43.4965,0.3434 -86.9929,0.4807 -130.5032,0.5631 -34.8026,-0.1648 -69.5914,0.8378 -104.3943,0.7281 -25.0514,0.0962 -50.089,0.3296 -75.1403,0.3708 -44.1145,0.4807 -88.229,0.5493 -132.3435,0.4531 -33.3882,-0.4806 -66.7622,0.6868 -100.1504,0.467 -146.4761,0.6318 -292.9521,0.769 -439.4421,0.783 -14.0638,0.6866 -28.1552,0.3158 -42.2328,0.5081 -35.7916,1.1675 -71.6381,0.3434 -107.4434,0.7279 -7.9384,0.261 -15.9867,-0.8652 -23.8427,0.7006 -1.2086,78.6561 -1.2086,157.381 1.6344,236.0098 1.5245,24.241 2.2936,48.6331 6.4276,72.6269 1.0438,5.1916 1.8129,10.6029 4.3812,15.3138 1.6207,3.1176 5.5075,3.3785 8.5839,3.9966 18.1979,2.3073 36.5882,1.8129 54.9097,1.9915 34.7889,-0.1787 69.5778,-0.3159 104.3668,-0.5356 31.8498,0.2883 63.8506,-0.4534 95.5356,3.6119 6.6062,1.0438 13.4459,1.964 19.4615,5.1229 4.0654,2.17 4.9993,7.1418 6.7023,11.0424 13.7755,38.5384 26.0265,78.0931 47.0262,113.5001 8.1994,13.3086 17.58,26.7271 31.2729,34.8713 5.4937,3.4474 12.0175,5.0405 18.4864,4.7933 16.797,-0.4258 33.6215,-0.261 50.4323,-0.4806 22.9911,-0.9341 46.0098,-0.3572 69.0148,-0.5906 75.5386,-0.096 151.0908,-0.1375 226.6294,-0.2197 33.6627,0.151 67.3254,-0.3708 100.9607,0.261 72.984,0.5767 145.9817,-0.7144 218.9656,-1.0302 36.1899,-0.1373 72.3523,-1.1537 108.5421,-1.7306 16.9755,-1.1537 34.1023,-0.5219 50.9816,-2.9391 5.7549,-2.5272 9.614,-8.1171 12.9241,-13.2537 7.9109,-14.6271 10.7263,-31.2729 13.542,-47.4656 9.8063,-64.4412 9.3257,-129.8165 9.3804,-194.8345 0.2061,-38.9367 -1.2222,-77.8597 -1.3458,-116.7964 z"
   id="path104" />
	<path
   fill="#f4bd18"
   stroke="#f4bd18"
   stroke-width="0.0951"
   d="m 2458.8745,997.8237 c -0.563,-13.2673 -1.2361,-26.5209 -2.4858,-39.7471 -3.8867,-34.7614 -4.1204,-69.7976 -6.3315,-104.6827 -1.813,-37.5495 -4.0928,-75.0853 -6.5239,-112.5936 -2.7056,-33.8962 -4.6145,-67.9435 -10.2869,-101.5101 -1.6892,-12.1274 -7.842,-22.9637 -14.8193,-32.7975 -15.5334,-21.2332 -35.7915,-38.3323 -56.3105,-54.5525 -72.6956,2.4172 -145.4324,2.9253 -218.1416,4.0928 -74.6458,0.5082 -149.2642,1.9091 -223.9237,1.9504 -36.849,0.7966 -73.7393,0.9614 -110.6021,1.0576 -1.4696,11.6055 -1.2223,23.3619 -2.225,35.0087 -3.7358,76.3488 -6.469,152.8213 -4.1202,229.2664 1.4833,18.8434 1.8541,37.9615 6.8258,56.3243 1.3459,4.2027 2.7469,9.3942 7.2792,11.2072 8.2543,3.2687 17.1953,4.1065 25.9303,5.3289 32.3993,3.6396 65.0183,4.6285 97.5822,5.8783 39.8295,1.0712 79.6726,1.7305 119.5157,2.0189 39.8157,0.9339 79.645,0.5356 119.4744,1.0163 11.9902,0.3159 24.0625,0.1099 35.9702,1.6207 7.6089,3.5159 10.5618,12.1823 13.748,19.3241 13.5146,36.2173 18.761,75.4838 37.2063,109.833 6.2488,10.9736 15.0251,22.538 28.2925,24.7766 29.9956,5.5349 60.3621,9.2157 90.825,10.6028 18.8159,0.1511 38.2637,1.4834 56.4202,-4.4911 6.5239,-1.8816 10.8364,-7.705 12.416,-14.0914 4.8753,-17.8272 4.4082,-36.5332 4.2847,-54.841 z"
   id="path106" />
</g>
</svg>
