<?xml version="1.0" encoding="UTF-8" standalone="no"?>
<!-- Uploaded to: SVG Repo, www.svgrepo.com, Generator: SVG Repo Mixer Tools -->

<svg
   width="141.23701"
   height="114.75508"
   viewBox="0 0 180.78338 146.8865"
   class="icon"
   version="1.1"
   id="svg2137"
   sodipodi:docname="bed-double-svgrepo-com.svg"
   inkscape:version="1.2.2 (732a01da63, 2022-12-09)"
   xmlns:inkscape="http://www.inkscape.org/namespaces/inkscape"
   xmlns:sodipodi="http://sodipodi.sourceforge.net/DTD/sodipodi-0.dtd"
   xmlns="http://www.w3.org/2000/svg"
   xmlns:svg="http://www.w3.org/2000/svg">
  <defs
     id="defs2141" />
  <sodipodi:namedview
     id="namedview2139"
     pagecolor="#ffffff"
     bordercolor="#000000"
     borderopacity="0.25"
     inkscape:showpageshadow="2"
     inkscape:pageopacity="0.0"
     inkscape:pagecheckerboard="0"
     inkscape:deskcolor="#d1d1d1"
     showgrid="false"
     inkscape:zoom="1.04625"
     inkscape:cx="399.5221"
     inkscape:cy="325.92593"
     inkscape:window-width="1920"
     inkscape:window-height="1017"
     inkscape:window-x="1912"
     inkscape:window-y="-8"
     inkscape:window-maximized="1"
     inkscape:current-layer="svg2137" />
  <path
     d="M 169.48442,11.29896 C 169.48442,11.29896 141.23702,0 90.391692,0 39.546365,0 11.298961,11.29896 11.298961,11.29896 5.4122026,13.65479 0,19.18564 0,25.42266 V 90.39169 A 11.298961,11.298961 0 0 1 11.298961,79.09273 H 169.48442 a 11.298961,11.298961 0 0 1 11.29896,11.29896 V 25.42266 c 0,-6.23702 -5.367,-11.64923 -11.29896,-14.1237 z"
     fill="#eaeaea"
     id="path2113"
     style="stroke-width:0.176546" />
  <path
     d="M 16.948442,135.58754 H 39.546365 V 146.8865 H 16.948442 Z m 124.288578,0 h 22.59792 v 11.29896 h -22.59792 z"
     fill="#434854"
     id="path2115"
     style="stroke-width:0.176546" />
  <path
     d="m 16.948442,135.58754 h 22.597923 v 5.64948 H 16.948442 Z m 124.288578,0 h 22.59792 v 5.64948 h -22.59792 z"
     fill=""
     id="path2117"
     style="stroke-width:0.176546" />
  <path
     d="m 146.8865,39.54637 m -5.64948,0 a 5.6494807,5.6494807 0 1 0 11.29896,0 5.6494807,5.6494807 0 1 0 -11.29896,0 z"
     fill=""
     id="path2119"
     style="stroke-width:0.176546" />
  <path
     d="m 118.6391,28.2474 m -5.64949,0 a 5.649485,5.649485 0 1 0 11.29897,0 5.649485,5.649485 0 1 0 -11.29897,0 z"
     fill=""
     id="path2121"
     style="stroke-width:0.176546" />
  <path
     d="m 90.391692,39.54637 m -5.649481,0 a 5.649481,5.649481 0 1 0 11.298962,0 5.649481,5.649481 0 1 0 -11.298962,0 z"
     fill=""
     id="path2123"
     style="stroke-width:0.176546" />
  <path
     d="m 62.144288,28.2474 m -5.649481,0 a 5.649481,5.649481 0 1 0 11.298962,0 5.649481,5.649481 0 1 0 -11.298962,0 z"
     fill=""
     id="path2125"
     style="stroke-width:0.176546" />
  <path
     d="m 33.896884,39.54637 m -5.64948,0 a 5.6494807,5.6494807 0 1 0 11.298961,0 5.6494807,5.6494807 0 1 0 -11.298961,0 z"
     fill=""
     id="path2127"
     style="stroke-width:0.176546" />
  <path
     d="M 180.78338,90.39169 A 11.298961,11.298961 0 0 0 169.48442,79.09273 H 11.298961 A 11.298961,11.298961 0 0 0 0,90.39169 v 45.19585 h 180.78338 z"
     fill="#434854"
     id="path2129"
     style="stroke-width:0.176546" />
  <path
     d="m 0,118.6391 h 180.78338 v 5.64948 H 0 Z"
     fill="#dae2e5"
     id="path2131"
     style="stroke-width:0.176546" />
  <path
     d="M 163.83494,79.09273 V 67.79377 a 5.6494807,5.6494807 0 0 0 -5.64948,-5.64948 h -56.49481 a 5.6494807,5.6494807 0 0 0 -5.649477,5.64948 v 11.29896 z m -79.092729,0 V 67.79377 A 5.6494807,5.6494807 0 0 0 79.09273,62.14429 H 22.597923 a 5.6494807,5.6494807 0 0 0 -5.649481,5.64948 v 11.29896 z"
     fill="#ef4d4d"
     id="path2133"
     style="stroke-width:0.176546" />
  <path
     d="m 16.948442,73.44325 h 67.793769 v 5.64948 H 16.948442 Z m 79.092731,0 h 67.793767 v 5.64948 H 96.041173 Z"
     fill=""
     id="path2135"
     style="stroke-width:0.176546" />
</svg>
