<svg width="141.237" height="114.755" viewBox="0 0 180.783 146.887" class="prefix__icon" xmlns="http://www.w3.org/2000/svg"><path d="M169.484 11.299S141.237 0 90.392 0C39.546 0 11.299 11.299 11.299 11.299 5.412 13.655 0 19.186 0 25.423v64.969a11.299 11.299 0 0111.299-11.3h158.185a11.299 11.299 0 0111.3 11.3v-64.97c0-6.236-5.368-11.649-11.3-14.123z" fill="#eaeaea"/><path d="M16.948 135.588h22.598v11.299H16.948zm124.289 0h22.598v11.298h-22.598z" fill="#434854"/><path d="M16.948 135.588h22.598v5.649H16.948zm124.289 0h22.598v5.649h-22.598zM141.237 39.546a5.65 5.65 0 1011.299 0 5.65 5.65 0 10-11.299 0zM112.99 28.247a5.65 5.65 0 1011.299 0 5.65 5.65 0 10-11.3 0zM84.74199999999999 39.546a5.65 5.65 0 1011.3 0 5.65 5.65 0 10-11.3 0zM56.494 28.247a5.65 5.65 0 1011.3 0 5.65 5.65 0 10-11.3 0zM28.247 39.546a5.65 5.65 0 1011.3 0 5.65 5.65 0 10-11.3 0z"/><path d="M180.783 90.392a11.299 11.299 0 00-11.299-11.3H11.3A11.299 11.299 0 000 90.393v45.196h180.783z" fill="#434854"/><path d="M0 118.64h180.783v5.649H0z" fill="#dae2e5"/><path d="M163.835 79.093v-11.3a5.65 5.65 0 00-5.65-5.649h-56.494a5.65 5.65 0 00-5.65 5.65v11.299zm-79.093 0v-11.3a5.65 5.65 0 00-5.65-5.649H22.599a5.65 5.65 0 00-5.65 5.65v11.299z" fill="#ef4d4d"/><path d="M16.948 73.443h67.794v5.65H16.948zm79.093 0h67.794v5.65H96.04z"/></svg>