<svg xmlns="http://www.w3.org/2000/svg" width="142.021" height="128.153" viewBox="0 0 181.787 164.036" xmlns:v="https://vecta.io/nano"><path d="M181.739 152.621h.041c0 6.296-5.118 11.415-11.415 11.415h-7.779c-2.904 0-5.646-1.259-7.535-3.473-.142-.162-.264-.325-.406-.508h-5.504c-2.904 0-5.646-1.259-7.535-3.473s-2.701-5.139-2.234-8.023c.691-4.387 4.428-7.779 8.876-8.246l-.02-7.759-21.164-26.526-40.824 5.342-.02 29.958v7.312c0 6.296-5.118 11.415-11.415 11.415h-2.701c-2.092 2.417-5.179 3.961-8.632 3.961h-7.759c-2.904 0-5.646-1.28-7.535-3.473-1.889-2.214-2.701-5.139-2.234-8.023.691-4.387 4.428-7.779 8.876-8.246v-33.715c-8.652-3.879-15.314-11.232-18.462-20.534-.02-.081-12.044-38.549-12.044-38.549C10.704 50.317 0 38.883 0 24.99c0-2.031 1.645-3.676 3.676-3.676H20.94l11.354-9.201c.142-1.422.528-2.843 1.198-4.245 2.112-4.509 6.52-7.535 11.475-7.86 1.137-.081 2.234.447 2.904 1.381.386.528.731 1.097 1.036 1.686 1.706-.731 3.554-1.137 5.443-1.137 1.28 0 2.458.63 3.128 1.706a14.06 14.06 0 0 1 .447 14.258 18.1 18.1 0 0 1-.63 1.056l21.103 26.343 79.881 12.836c1.503.264 2.965-.366 3.697-1.584 7.535-12.532 9.465-24.637 9.424-29.267-.02-1.97 1.523-3.595 3.493-3.717 1.95-.102 3.676 1.361 3.859 3.311.101 1.056 2.478 25.855-3.168 40.357-1.117 2.864-1.584 5.748-1.401 8.612.02.406.041 34.183.041 34.183l7.271 17.244a3.78 3.78 0 0 1 .284 1.422c.02 0 0 23.743-.041 23.926z" fill="#633"/><path d="M174.467 152.621h-.041c0 2.234-1.828 4.062-4.062 4.062h-7.779a2.52 2.52 0 0 1-1.93-.894 2.59 2.59 0 0 1-.569-2.092c.183-1.198 1.34-2.112 2.681-2.112l2.661-.041c2.011-.041 3.615-1.665 3.615-3.676v-14.502-.061a3.8 3.8 0 0 0-.751-2.173l-19.904-26.018c0-.02-.02-.02-.02-.041-4.062-5.179-10.663-7.86-17.183-7.007l-60.424 7.921a3.7 3.7 0 0 0-3.209 3.656l-.02 35.665v7.312c0 2.234-1.828 4.062-4.062 4.062h-7.759a2.49 2.49 0 0 1-1.929-.894 2.59 2.59 0 0 1-.569-2.092c.183-1.198 1.34-2.112 2.681-2.112l2.661-.041c2.011-.041 3.615-1.665 3.615-3.676V108.06a3.68 3.68 0 0 0-2.437-3.473c-7.759-2.762-13.75-8.998-16.452-17.101-.02-.041-.02-.081-.041-.102L30.567 46.783a3.68 3.68 0 0 0-3.514-2.579h-.487c-9.323 0-17.122-6.682-18.828-15.517H22.28c.853 0 1.665-.284 2.315-.812l12.613-10.216h4.428c2.965.162 5.748-1.625 6.824-4.428.102-.264.162-.386.162-.386.792-1.462 2.072-2.539 3.575-3.108a6.81 6.81 0 0 1-.65 4.671c-.162.284-.325.528-.487.772-1.747 2.376-1.665 5.626.183 7.941l22.362 27.927c.569.711 1.381 1.198 2.295 1.34l81.201 13.039c4.509.772 8.937-1.219 11.252-5.057a78.62 78.62 0 0 0 2.701-4.834c-.487 3.29-1.219 6.398-2.254 9.058-1.503 3.859-2.133 7.799-1.889 11.719.02.244.02 34.467.02 34.467a3.78 3.78 0 0 0 .284 1.422l7.271 17.244c-.061 0-.041 22.992-.02 23.174zm-12.775-18.015v9.668c-4.468.487-8.185 3.859-8.876 8.246 0 .061-.02.101-.02.162h-3.636a2.52 2.52 0 0 1-1.93-.894 2.59 2.59 0 0 1-.569-2.092c.183-1.198 1.34-2.112 2.681-2.112l2.661-.041c2.011-.041 3.615-1.665 3.615-3.676l-.02-12.613c0-.833-.284-1.625-.792-2.275l-18.686-23.418a11.48 11.48 0 0 1 6.438 4.042zm-86.787-21.753l3.981-.528-.02 29.003v7.312a4.04 4.04 0 0 1-3.981 4.042v-7.393-12.511l.02-19.925z" fill="#b88d5b"/><path d="M65.481 88.481c1.909.691 2.904 2.783 2.234 4.712-.528 1.503-1.95 2.437-3.473 2.437-.406 0-.833-.061-1.239-.223-4.935-1.767-8.754-5.768-10.501-11.008l-.02-.041c0-.02-.02-.041-.02-.061l-3.372-10.805a3.67 3.67 0 1 1 7.027-2.194l3.372 10.785c1.036 3.087 3.209 5.423 5.992 6.398z" fill="#633"/><path d="M43.424 7.076l.061.183c-.508.65-.975 1.34-1.381 2.072a8.37 8.37 0 0 0-.447.955h-1.95c.833-1.503 2.153-2.64 3.717-3.209z" fill="#b88d5b"/><path d="M31.502 26.229c2.011 0 3.636 1.625 3.636 3.636S33.512 33.5 31.502 33.5s-3.636-1.625-3.636-3.636 1.625-3.636 3.636-3.636z" fill="#633"/></svg>