<svg version="1.1" xmlns="http://www.w3.org/2000/svg" xmlns:xlink="http://www.w3.org/1999/xlink" width="142.02086" height="128.15311" viewBox="0,0,142.02086,128.15311"><g transform="translate(-168.98957,-115.92345)"><g data-paper-data="{&quot;isPaintingLayer&quot;:true}" fill-rule="nonzero" stroke="none" stroke-width="1" stroke-linecap="butt" stroke-linejoin="miter" stroke-miterlimit="10" stroke-dasharray="" stroke-dashoffset="0" style="mix-blend-mode: normal"><path d="M169.02771,235.16094c-0.03203,-0.14297 -0.04766,-18.69217 -0.03203,-18.69217c0.00157,-0.38116 0.07691,-0.75841 0.22187,-1.11094l5.68047,-13.47186c0,0 0.01641,-26.38826 0.03203,-26.70544c0.14297,-2.2375 -0.22187,-4.49062 -1.09453,-6.72812c-4.41093,-11.32968 -2.5539,-30.70388 -2.475,-31.52888c0.14297,-1.52344 1.49141,-2.6664 3.01484,-2.58672c1.53906,0.09531 2.74453,1.36484 2.7289,2.9039c-0.03203,3.61718 1.47578,13.07421 7.3625,22.86482c0.57187,0.95156 1.71406,1.44375 2.88828,1.2375l62.40699,-10.02812l16.48671,-20.58045c-0.17336,-0.26935 -0.33752,-0.5445 -0.49219,-0.825c-1.91566,-3.50079 -1.78197,-7.76514 0.34922,-11.13905c0.52344,-0.84062 1.44375,-1.33281 2.44375,-1.33281c1.47578,0 2.91953,0.31719 4.25234,0.88828c0.23828,-0.46016 0.50781,-0.90469 0.80937,-1.31719c0.52344,-0.72969 1.38047,-1.14219 2.26875,-1.07891c3.87109,0.25391 7.31484,2.61797 8.96484,6.14062c0.52344,1.09531 0.825,2.20547 0.93594,3.3164l8.87031,7.18827h13.48749c1.58672,0 2.87187,1.28515 2.87187,2.87187c0,10.8539 -8.36249,19.7867 -18.9953,20.69217c0,0 -9.39374,30.0531 -9.40937,30.11638c-2.45937,7.26718 -7.66406,13.01171 -14.42343,16.04217v26.33982c3.475,0.36484 6.39453,3.01484 6.93437,6.44218c0.36484,2.25312 -0.26953,4.53828 -1.74531,6.26796c-1.47578,1.71328 -3.61797,2.71328 -5.88671,2.71328h-6.06171c-2.69765,0 -5.10937,-1.20625 -6.74375,-3.09453h-2.11015c-4.91953,0 -8.91796,-3.99921 -8.91796,-8.91796v-5.71249l-0.01562,-23.40466l-31.89373,-4.17343l-16.53436,20.72342l-0.01562,6.06171c3.475,0.36484 6.39453,3.01484 6.93437,6.44218c0.36484,2.25312 -0.26953,4.53828 -1.74531,6.26796c-1.47578,1.72969 -3.61797,2.71328 -5.88671,2.71328h-4.3c-0.11094,0.14297 -0.20625,0.27031 -0.31719,0.39687c-1.47578,1.72969 -3.61797,2.71328 -5.88671,2.71328h-6.07734c-4.91953,0 -8.91796,-3.99921 -8.91796,-8.91796h0.03203z" data-paper-data="{&quot;index&quot;:null}" fill="#663333"/><path d="M174.70896,235.15781c0.01641,-0.14219 0.03203,-18.10467 -0.01562,-18.10467l5.68047,-13.47186c0.14496,-0.35252 0.2203,-0.72978 0.22187,-1.11094c0,0 0,-26.73669 0.01562,-26.92732c0.19062,-3.0625 -0.30156,-6.14062 -1.47578,-9.15546c-0.80859,-2.07812 -1.38047,-4.50625 -1.76094,-7.07656c0.65882,1.28324 1.36264,2.54287 2.11015,3.77656c1.80859,2.99843 5.26797,4.5539 8.79062,3.95078l63.43824,-10.18671c0.71406,-0.11094 1.34844,-0.49141 1.79297,-1.04687l17.4703,-21.81795c1.44375,-1.80859 1.50781,-4.34765 0.14297,-6.2039c-0.12656,-0.19062 -0.25391,-0.38125 -0.38047,-0.60312c-0.5985,-1.1171 -0.77858,-2.41115 -0.50781,-3.64922c1.17422,0.44453 2.17422,1.28594 2.79297,2.42812c0,0 0.04687,0.09531 0.12656,0.30156c0.84062,2.18984 3.01484,3.58593 5.33125,3.45937h3.45937l9.8539,7.98124c0.50781,0.4125 1.14219,0.63437 1.80859,0.63437h11.36093c-1.33281,6.90234 -7.42578,12.12264 -14.70937,12.12264h-0.38047c-1.25721,-0.00088 -2.36917,0.81522 -2.74531,2.01484l-9.90077,31.7195c-0.01641,0.01641 -0.01641,0.04766 -0.03203,0.07969c-2.11094,6.33046 -6.7914,11.20233 -12.85312,13.36014c-1.1446,0.41075 -1.90697,1.49722 -1.9039,2.71328v31.09919c0,1.57109 1.25312,2.83984 2.82422,2.87187l2.0789,0.03203c1.04766,0 1.95156,0.71406 2.09453,1.65c0.09793,0.58358 -0.0645,1.18079 -0.44453,1.63437c-0.3727,0.44635 -0.92555,0.70257 -1.50703,0.69844h-6.06171c-1.74531,0 -3.17344,-1.42812 -3.17344,-3.17343v-5.71249l-0.01562,-27.86325c-0.0044,-1.44484 -1.07496,-2.66452 -2.50703,-2.85625l-47.20622,-6.18828c-5.09375,-0.66641 -10.25077,1.42812 -13.42421,5.47421c0,0.01641 -0.01562,0.01641 -0.01562,0.03203l-15.54999,20.32654c-0.36618,0.49173 -0.57113,1.08476 -0.58672,1.69765v0.04766v11.32968c0,1.57109 1.25312,2.83984 2.82422,2.87187l2.0789,0.03203c1.04766,0 1.95156,0.71406 2.09453,1.65c0.09793,0.58358 -0.0645,1.18079 -0.44453,1.63437c-0.37491,0.44391 -0.92677,0.69953 -1.50781,0.69844h-6.07734c-1.74531,0 -3.17344,-1.42812 -3.17344,-3.17343h-0.03203zM199.63707,201.55082c1.2693,-1.59325 3.04316,-2.70694 5.02968,-3.15781l-14.59843,18.29529c-0.39687,0.50781 -0.61875,1.12656 -0.61875,1.77734l-0.01562,9.8539c0,1.57109 1.25312,2.83984 2.82422,2.87187l2.0789,0.03203c1.04766,0 1.95156,0.71406 2.09453,1.65c0.09793,0.58358 -0.0645,1.18079 -0.44453,1.63437c-0.37491,0.44391 -0.92677,0.69953 -1.50781,0.69844h-2.84062c0,-0.04766 -0.01562,-0.07891 -0.01562,-0.12656c-0.53984,-3.42734 -3.44375,-6.06171 -6.93437,-6.44218v-7.55312zM252.50656,219.65627v9.77421v5.77578c-1.72573,-0.0252 -3.11119,-1.4319 -3.11015,-3.15781v-5.71249l-0.01562,-22.65857l3.11015,0.4125z" data-paper-data="{&quot;index&quot;:null}" fill="#b88d5b"/><path d="M264.53468,180.05084l2.63437,-8.42577c0.47332,-1.51598 2.08597,-2.36121 3.60195,-1.88789c1.51598,0.47332 2.36121,2.08597 1.88789,3.60195l-2.63437,8.4414c0,0.01562 -0.01562,0.03203 -0.01562,0.04766l-0.01562,0.03203c-1.36484,4.09375 -4.34843,7.21952 -8.2039,8.59999c-0.31719,0.12656 -0.65078,0.17422 -0.96797,0.17422c-1.18984,0 -2.30078,-0.72969 -2.71328,-1.9039c-0.52344,-1.50703 0.25391,-3.1414 1.74531,-3.68125c2.17422,-0.76172 3.87187,-2.58672 4.68125,-4.99843z" data-paper-data="{&quot;index&quot;:null}" fill="#663333"/><path d="M277.08545,121.45246c1.22187,0.44453 2.25312,1.33281 2.9039,2.50703h-1.52344c-0.10061,-0.25579 -0.21725,-0.50498 -0.34922,-0.74609c-0.31719,-0.57187 -0.68203,-1.11094 -1.07891,-1.61875l0.04766,-0.14297z" data-paper-data="{&quot;index&quot;:null}" fill="#b88d5b"/><path d="M286.39951,136.41416c1.57109,0 2.84062,1.26953 2.84062,2.84062c0,1.57109 -1.27031,2.84062 -2.84062,2.84062c-1.57031,0 -2.84062,-1.26875 -2.84062,-2.83984c0,-1.57109 1.26953,-2.84062 2.84062,-2.84062z" data-paper-data="{&quot;index&quot;:null}" fill="#663333"/></g></g></svg>