<svg xmlns="http://www.w3.org/2000/svg" width="134.775" height="134.775" viewBox="0 0 16.358 16.358" xmlns:v="https://vecta.io/nano"><defs><clipPath id="A"><circle cx="174.16" cy="463.36" r="48.548" fill="none"/></clipPath></defs><g transform="matrix(.168467 0 0 .168467 -21.161521 -69.882278)"><circle cx="174.16" cy="463.36" r="48.548" fill="#4462ab"/><g clip-path="url(#A)"><path d="M123.372 437.768s69.518 4.883 102.923 0-3.588 11.19-3.588 11.19-42.49-2.035-97.1 5.9-2.235-17.09-2.235-17.09zm-4.332 39.812s68.308 13.81 102.064 13.277-5 10.634-5 10.634-41.873-7.5-97.045-6.674-.019-17.237-.019-17.237z" opacity=".07" style="mix-blend-mode:darken"/><g fill="#fff"><path d="M125.282 403.668s68.259 16.269 102.435 10.019-5.7 21.426-5.7 21.426-41.9-8.1-97.757 2.029 1.022-33.474 1.022-33.474zm90.689 83.591s-68.259-16.269-102.434-10.019 5.7-21.425 5.7-21.425 41.9 8.1 97.758-2.03-1.024 33.474-1.024 33.474zm-2.584 47.518s-66.531-22.306-101.129-19.137 7.594-20.83 7.594-20.83 41.01 11.809 97.547 6.719-4.012 33.248-4.012 33.248z" opacity=".1"/></g></g><path d="M174.127 511.907a48.391 48.391 0 0 0 32.446-84.294 48.211 48.211 0 0 1 12.49 32.445c0 26.727-25.187 51.349-51.913 51.349" opacity=".2" style="mix-blend-mode:darken"/><g fill="none" stroke="#1c142a" stroke-linecap="round" stroke-miterlimit="10"><path d="M161 468.651s-1.065 1.486-3.881 1.486c-3.034 0-3.88-1.486-3.88-1.486" stroke-width="1.806"/><path d="M184.048 490.495s-2.715 1.981-9.888 1.981c-7.732 0-9.889-1.981-9.889-1.981" stroke-width="2.709"/><path d="M194.256 468.943s-1.065 1.486-3.881 1.486c-3.034 0-3.88-1.486-3.88-1.486" stroke-width="1.806"/></g></g></svg>