<?xml version="1.0" encoding="UTF-8" standalone="no"?>
<!-- Uploaded to: SVG Repo, www.svgrepo.com, Generator: SVG Repo Mixer Tools -->

<svg
   width="140"
   height="140"
   viewBox="0 0 179.2 179.2"
   class="icon"
   version="1.1"
   id="svg1506"
   sodipodi:docname="oven-svgrepo-com.svg"
   inkscape:version="1.2.2 (732a01da63, 2022-12-09)"
   xmlns:inkscape="http://www.inkscape.org/namespaces/inkscape"
   xmlns:sodipodi="http://sodipodi.sourceforge.net/DTD/sodipodi-0.dtd"
   xmlns="http://www.w3.org/2000/svg"
   xmlns:svg="http://www.w3.org/2000/svg">
  <defs
     id="defs1510" />
  <sodipodi:namedview
     id="namedview1508"
     pagecolor="#ffffff"
     bordercolor="#000000"
     borderopacity="0.25"
     inkscape:showpageshadow="2"
     inkscape:pageopacity="0.0"
     inkscape:pagecheckerboard="0"
     inkscape:deskcolor="#d1d1d1"
     showgrid="false"
     inkscape:zoom="1.04625"
     inkscape:cx="399.5221"
     inkscape:cy="400.4779"
     inkscape:window-width="1920"
     inkscape:window-height="1017"
     inkscape:window-x="1912"
     inkscape:window-y="-8"
     inkscape:window-maximized="1"
     inkscape:current-layer="svg1506" />
  <path
     d="M 179.2,168 A 11.2,11.2 0 0 1 168,179.2 H 11.2 A 11.2,11.2 0 0 1 0,168 V 16.8 A 11.2,11.2 0 0 1 11.2,5.6 H 168 a 11.2,11.2 0 0 1 11.2,11.2 z"
     fill="#eaeaea"
     id="path1482"
     style="stroke-width:0.175" />
  <path
     d="m 22.4,0 h 56 v 5.6 h -56 z m 78.4,0 h 56 v 5.6 h -56 z"
     fill="#434854"
     id="path1484"
     style="stroke-width:0.175" />
  <path
     d="m 19.6,25.2 m -8.4,0 a 8.4,8.4 0 1 0 16.8,0 8.4,8.4 0 1 0 -16.8,0 z"
     fill="#434854"
     id="path1486"
     style="stroke-width:0.175" />
  <path
     d="m 47.6,25.2 m -8.4,0 a 8.4,8.4 0 1 0 16.8,0 8.4,8.4 0 1 0 -16.8,0 z"
     fill="#434854"
     id="path1488"
     style="stroke-width:0.175" />
  <path
     d="m 75.6,25.2 m -8.4,0 a 8.4,8.4 0 1 0 16.8,0 8.4,8.4 0 1 0 -16.8,0 z"
     fill="#434854"
     id="path1490"
     style="stroke-width:0.175" />
  <path
     d="m 103.6,25.2 m -8.4,0 a 8.4,8.4 0 1 0 16.8,0 8.4,8.4 0 1 0 -16.8,0 z"
     fill="#434854"
     id="path1492"
     style="stroke-width:0.175" />
  <path
     d="M 168,50.4 A 5.6,5.6 0 0 1 162.4,56 H 16.8 a 5.6,5.6 0 1 1 0,-11.2 h 145.6 a 5.6,5.6 0 0 1 5.6,5.6 z"
     fill="#434854"
     id="path1494"
     style="stroke-width:0.175" />
  <path
     d="M 162.4,55.9944 H 16.8 a 5.5272,5.5272 0 0 1 -4.7432,-2.8 5.404,5.404 0 0 0 -0.8568,2.8 5.6,5.6 0 0 0 5.6,5.6 h 145.6 a 5.6,5.6 0 0 0 5.6,-5.6 5.404,5.404 0 0 0 -0.8568,-2.8 5.5272,5.5272 0 0 1 -4.7432,2.8 z"
     fill=""
     id="path1496"
     style="stroke-width:0.175" />
  <path
     d="m 168,162.4 a 5.6,5.6 0 0 1 -5.6,5.6 H 16.8 a 5.6,5.6 0 0 1 -5.6,-5.6 V 72.8 a 5.6,5.6 0 0 1 5.6,-5.6 h 145.6 a 5.6,5.6 0 0 1 5.6,5.6 z"
     fill="#469fcc"
     id="path1498"
     style="stroke-width:0.175" />
  <path
     d="M 150.3824,96.7008 138.5048,84.8232 a 2.8,2.8 0 0 0 -3.9592,3.9592 l 11.8776,11.8776 a 2.8,2.8 0 0 0 3.9592,-3.9592 z m -23.6152,-8.064 a 2.8,2.8 0 0 0 -3.9592,3.9592 l 19.796,19.796 a 2.8,2.8 0 0 0 3.9592,-3.9592 z"
     fill="#ffffff"
     id="path1500"
     style="stroke-width:0.175" />
  <path
     d="m 159.6,25.2 m -8.4,0 a 8.4,8.4 0 1 0 16.8,0 8.4,8.4 0 1 0 -16.8,0 z"
     fill="#3aad73"
     id="path1502"
     style="stroke-width:0.175" />
  <path
     d="m 19.6,33.5944 a 8.3776,8.3776 0 0 1 -7.8848,-5.6 8.3048,8.3048 0 0 0 -0.5152,2.8 8.4,8.4 0 0 0 16.8,0 c 0,-0.9856 -0.2016,-1.9208 -0.5152,-2.8 -1.1592,3.2536 -4.2336,5.6 -7.8848,5.6 z m 28,0 a 8.3776,8.3776 0 0 1 -7.8848,-5.6 8.3048,8.3048 0 0 0 -0.5152,2.8 8.4,8.4 0 0 0 16.8,0 c 0,-0.9856 -0.2016,-1.9208 -0.5152,-2.8 -1.1592,3.2536 -4.2336,5.6 -7.8848,5.6 z m 28,0 a 8.3776,8.3776 0 0 1 -7.8848,-5.6 8.3048,8.3048 0 0 0 -0.5152,2.8 8.4,8.4 0 0 0 16.8,0 c 0,-0.9856 -0.2016,-1.9208 -0.5152,-2.8 -1.1592,3.2536 -4.2336,5.6 -7.8848,5.6 z m 28,0 a 8.3776,8.3776 0 0 1 -7.8848,-5.6 8.3048,8.3048 0 0 0 -0.5152,2.8 8.4,8.4 0 0 0 16.8,0 c 0,-0.9856 -0.2016,-1.9208 -0.5152,-2.8 -1.1592,3.2536 -4.2336,5.6 -7.8848,5.6 z m 63.8848,-5.6 c -1.1592,3.2536 -4.2336,5.6 -7.8848,5.6 -3.6512,0 -6.7256,-2.3464 -7.8848,-5.6 a 8.3048,8.3048 0 0 0 -0.5152,2.8 8.4,8.4 0 0 0 16.8,0 c 0,-0.9856 -0.2016,-1.9208 -0.5152,-2.8 z"
     fill=""
     id="path1504"
     style="stroke-width:0.175" />
</svg>
