<svg width="140" height="140" viewBox="0 0 179.2 179.2" class="prefix__icon" xmlns="http://www.w3.org/2000/svg"><path d="M179.2 168a11.2 11.2 0 01-11.2 11.2H11.2A11.2 11.2 0 010 168V16.8A11.2 11.2 0 0111.2 5.6H168a11.2 11.2 0 0111.2 11.2z" fill="#eaeaea"/><path d="M22.4 0h56v5.6h-56zm78.4 0h56v5.6h-56zM11.200000000000001 25.2a8.4 8.4 0 1016.8 0 8.4 8.4 0 10-16.8 0zM39.2 25.2a8.4 8.4 0 1016.8 0 8.4 8.4 0 10-16.8 0zM67.19999999999999 25.2a8.4 8.4 0 1016.8 0 8.4 8.4 0 10-16.8 0zM95.19999999999999 25.2a8.4 8.4 0 1016.8 0 8.4 8.4 0 10-16.8 0zM168 50.4a5.6 5.6 0 01-5.6 5.6H16.8a5.6 5.6 0 110-11.2h145.6a5.6 5.6 0 015.6 5.6z" fill="#434854"/><path d="M162.4 55.994H16.8a5.527 5.527 0 01-4.743-2.8 5.404 5.404 0 00-.857 2.8 5.6 5.6 0 005.6 5.6h145.6a5.6 5.6 0 005.6-5.6 5.404 5.404 0 00-.857-2.8 5.527 5.527 0 01-4.743 2.8z"/><path d="M168 162.4a5.6 5.6 0 01-5.6 5.6H16.8a5.6 5.6 0 01-5.6-5.6V72.8a5.6 5.6 0 015.6-5.6h145.6a5.6 5.6 0 015.6 5.6z" fill="#469fcc"/><path d="M150.382 96.7l-11.877-11.877a2.8 2.8 0 00-3.96 3.96l11.878 11.877a2.8 2.8 0 003.96-3.96zm-23.615-8.063a2.8 2.8 0 00-3.959 3.959l19.796 19.796a2.8 2.8 0 003.96-3.96z" fill="#fff"/><path d="M151.2 25.2a8.4 8.4 0 1016.8 0 8.4 8.4 0 10-16.8 0z" fill="#3aad73"/><path d="M19.6 33.594a8.378 8.378 0 01-7.885-5.6 8.305 8.305 0 00-.515 2.8 8.4 8.4 0 0016.8 0c0-.985-.202-1.92-.515-2.8-1.16 3.254-4.234 5.6-7.885 5.6zm28 0a8.378 8.378 0 01-7.885-5.6 8.305 8.305 0 00-.515 2.8 8.4 8.4 0 0016.8 0c0-.985-.202-1.92-.515-2.8-1.16 3.254-4.234 5.6-7.885 5.6zm28 0a8.378 8.378 0 01-7.885-5.6 8.305 8.305 0 00-.515 2.8 8.4 8.4 0 0016.8 0c0-.985-.202-1.92-.515-2.8-1.16 3.254-4.234 5.6-7.885 5.6zm28 0a8.378 8.378 0 01-7.885-5.6 8.305 8.305 0 00-.515 2.8 8.4 8.4 0 0016.8 0c0-.985-.202-1.92-.515-2.8-1.16 3.254-4.234 5.6-7.885 5.6zm63.885-5.6c-1.16 3.254-4.234 5.6-7.885 5.6s-6.726-2.346-7.885-5.6a8.305 8.305 0 00-.515 2.8 8.4 8.4 0 0016.8 0c0-.985-.202-1.92-.515-2.8z"/></svg>