<svg version="1.1" xmlns="http://www.w3.org/2000/svg" xmlns:xlink="http://www.w3.org/1999/xlink" width="140" height="140" viewBox="0,0,140,140"><g transform="translate(-170,-110)"><g data-paper-data="{&quot;isPaintingLayer&quot;:true}" fill-rule="nonzero" stroke="none" stroke-width="1" stroke-linecap="butt" stroke-linejoin="miter" stroke-miterlimit="10" stroke-dasharray="" stroke-dashoffset="0" style="mix-blend-mode: normal"><path d="M174.66667,240.66667v-107.33334h130.66667v107.33334z" fill="#e6e6e6"/><path d="M240,133.33333h23.33333v21c0,6.44332 -5.22334,11.66667 -11.66667,11.66667v0c-6.44332,0 -11.66667,-5.22334 -11.66667,-11.66667z" fill="#559264"/><path d="M240,154.33333v-21h16.33333v21c-0.02002,5.07807 -3.32245,9.55994 -8.16667,11.08333c-4.84422,-1.52339 -8.14665,-6.00527 -8.16667,-11.08333z" fill="#71c285"/><path d="M216.66667,133.33333h23.33333v21c0,6.44332 -5.22334,11.66667 -11.66667,11.66667v0c-6.44332,0 -11.66667,-5.22334 -11.66667,-11.66667z" fill="#559264"/><path d="M216.66667,154.33333v-21h16.33333v21c-0.02002,5.07807 -3.32245,9.55994 -8.16667,11.08333c-4.84422,-1.52339 -8.14665,-6.00527 -8.16667,-11.08333z" fill="#71c285"/><path d="M214.33333,135.66667c0,-14.17531 11.49136,-25.66667 25.66667,-25.66667c14.17531,0 25.66667,11.49136 25.66667,25.66667c0,14.17531 -11.49136,25.66667 -25.66667,25.66667c-14.17531,0 -25.66667,-11.49136 -25.66667,-25.66667z" fill="#cccccc"/><path d="M214.33333,135.66667c0,-14.03356 9.92435,-25.41 22.16667,-25.41c12.24231,0 22.16667,11.37644 22.16667,25.41c0,14.03356 -9.92435,25.41 -22.16667,25.41c-12.24231,0 -22.16667,-11.37644 -22.16667,-25.41z" fill="#f2f2f2"/><path d="M193.33333,133.33333h23.33333v21c0,6.44332 -5.22334,11.66667 -11.66667,11.66667v0c-6.44332,0 -11.66667,-5.22334 -11.66667,-11.66667z" fill="#559264"/><path d="M193.33333,154.33333v-21h16.33333v21c-0.02002,5.07807 -3.32245,9.55994 -8.16667,11.08333c-4.84422,-1.52339 -8.14665,-6.00527 -8.16667,-11.08333z" fill="#71c285"/><path d="M170,133.33333h23.33333v21c0,6.44332 -5.22334,11.66667 -11.66667,11.66667v0c-6.44332,0 -11.66667,-5.22334 -11.66667,-11.66667z" fill="#559264"/><path d="M170,154.33333v-21h16.33333v21c-0.02002,5.07807 -3.32245,9.55994 -8.16667,11.08333c-4.84422,-1.52339 -8.14665,-6.00527 -8.16667,-11.08333z" fill="#71c285"/><path d="M286.66667,133.33333h23.33333v21c0,6.44332 -5.22334,11.66667 -11.66667,11.66667v0c-6.44332,0 -11.66667,-5.22334 -11.66667,-11.66667z" fill="#559264"/><path d="M286.66667,154.33333v-21h16.33333v21c-0.02002,5.07807 -3.32245,9.55994 -8.16667,11.08333c-4.84422,-1.52339 -8.14665,-6.00527 -8.16667,-11.08333z" fill="#71c285"/><path d="M263.33333,133.33333h23.33333v21c0,6.44332 -5.22334,11.66667 -11.66667,11.66667v0c-6.44332,0 -11.66667,-5.22334 -11.66667,-11.66667z" fill="#559264"/><path d="M263.33333,154.33333v-21h16.33333v21c-0.02002,5.07807 -3.32245,9.55994 -8.16667,11.08333c-4.84422,-1.52339 -8.14665,-6.00527 -8.16667,-11.08333z" fill="#71c285"/><path d="M249.33333,145h-4.66667v-4.66667h4.66667c2.57733,0 4.66667,-2.08934 4.66667,-4.66667c0,-2.57733 -2.08934,-4.66667 -4.66667,-4.66667h-4.66667v-4.66667h4.66667c5.15466,0 9.33333,4.17868 9.33333,9.33333c0,5.15466 -4.17868,9.33333 -9.33333,9.33333z" fill="#726453"/><path d="M268,184.66667v-9.33333h23.33333v9.33333z" fill="#559264"/><path d="M268,184.66667v-9.33333h16.33333v9.33333z" fill="#71c285"/><path d="M263.33333,240.66667v-46.66667h32.66667v46.66667z" fill="#98856e"/><path d="M263.33333,240.66667v-46.66667h25.66667v46.66667z" fill="#cbb292"/><path d="M184,226.66667v-14h65.33333v14z" fill="#98856e"/><path d="M184,226.66667v-14h58.33333v14z" fill="#cbb292"/><path d="M184,212.66667v-37.33333h65.33333v37.33333z" fill="#849eb4"/><path d="M184,212.66667v-37.33333h58.33333v37.33333z" fill="#b0d3f0"/><path d="M170,250v-9.33333h140v9.33333z" fill="#5f443e"/><path d="M170,250v-9.33333h133v9.33333z" fill="#7f5b53"/><path d="M228.33333,124h18.66667v18.66667c0,2.57733 -2.08934,4.66667 -4.66667,4.66667h-9.33333c-2.57733,0 -4.66667,-2.08934 -4.66667,-4.66667z" fill="#98856e"/><path d="M235.33333,147.33333h-2.33333c-2.57733,0 -4.66667,-2.08934 -4.66667,-4.66667v-18.66667h11.66667v18.66667c0,2.57733 -2.08934,4.66667 -4.66667,4.66667z" fill="#cbb292"/><path d="M194.97981,202.65362l-3.29983,-3.29983l14.00779,-14.00779l3.29983,3.29983z" fill="#e6e6e6"/><path d="M211.31255,202.65421l-3.29983,-3.29983l14.00779,-14.00779l3.29983,3.29983z" fill="#e6e6e6"/><path d="M227.6453,202.6548l-3.29983,-3.29983l14.00779,-14.00779l3.29983,3.29983z" fill="#e6e6e6"/><path d="M270.33333,224.33333v-14h4.66667v14z" fill="#f2f2f2"/></g></g></svg>