<?xml version="1.0" encoding="UTF-8"?>
<svg width="37.042mm" height="35.218mm" version="1.1" viewBox="0 0 131.25 124.79" xmlns="http://www.w3.org/2000/svg" xmlns:xlink="http://www.w3.org/1999/xlink"><defs><linearGradient id="linearGradient4420" x1="1161.4" x2="1348.3" y1="228.95" y2="292.32" gradientTransform="matrix(1 .21601 0 1 -138.09 -58.099)" gradientUnits="userSpaceOnUse"><stop stop-color="#aca898" offset="0"/><stop stop-color="#aca898" stop-opacity="0" offset="1"/></linearGradient><linearGradient id="linearGradient4305" x1="1521.7" x2="1509.3" y1="319.2" y2="321.96" gradientTransform="translate(0 13.536)" gradientUnits="userSpaceOnUse" xlink:href="#linearGradient4299"/><linearGradient id="linearGradient4299"><stop stop-color="#868686" offset="0"/><stop stop-color="#8d8d8d" stop-opacity=".67843" offset=".49816"/><stop stop-color="#a5a5a5" stop-opacity="0" offset="1"/></linearGradient><linearGradient id="linearGradient4313" x1="1521.7" x2="1509.3" y1="319.2" y2="321.96" gradientTransform="translate(0 41.251)" gradientUnits="userSpaceOnUse" xlink:href="#linearGradient4299"/><linearGradient id="linearGradient4574" x1="1515.8" x2="1524.3" y1="320.7" y2="318.24" gradientTransform="rotate(39.709 1344.5 -148.8)" gradientUnits="userSpaceOnUse" xlink:href="#linearGradient4299"/><linearGradient id="linearGradient4580" x1="1515.8" x2="1526.5" y1="320.7" y2="317.55" gradientTransform="rotate(39.709 1305.8 -134.83)" gradientUnits="userSpaceOnUse" xlink:href="#linearGradient4299"/><linearGradient id="linearGradient4836" x1="1513.8" x2="1387.3" y1="387.99" y2="480.12" gradientTransform="matrix(1 .21601 0 1 -138.09 -123.46)" gradientUnits="userSpaceOnUse"><stop stop-color="#d7c789" offset="0"/><stop stop-color="#efe8d0" offset=".52688"/><stop stop-color="#d7c789" offset="1"/></linearGradient><linearGradient id="linearGradient4850" x1="1338.6" x2="1299.6" y1="458.86" y2="444.69" gradientUnits="userSpaceOnUse" xlink:href="#linearGradient4844"/><linearGradient id="linearGradient4844"><stop stop-color="#dfcfa0" offset="0"/><stop stop-color="#efe8d0" offset=".56317"/><stop stop-color="#dfcfa0" offset="1"/></linearGradient><linearGradient id="linearGradient4879" x1="1338.6" x2="1299.6" y1="458.86" y2="444.69" gradientTransform="matrix(.25107 0 0 .25107 924.42 292.2)" gradientUnits="userSpaceOnUse" xlink:href="#linearGradient4844"/><linearGradient id="linearGradient4895" x1="1338.6" x2="1299.6" y1="458.86" y2="444.69" gradientTransform="matrix(.25107 0 0 .25107 924.42 324.45)" gradientUnits="userSpaceOnUse" xlink:href="#linearGradient4844"/><linearGradient id="linearGradient9283" x1="1338.6" x2="1299.6" y1="458.86" y2="444.69" gradientTransform="matrix(1 .21601 0 1 -138.09 -58.099)" gradientUnits="userSpaceOnUse" xlink:href="#linearGradient4844"/></defs><g transform="translate(-148.01 -313.17)"><g transform="matrix(.29291 0 0 .29291 -139.38 216.16)" fill-rule="evenodd"><path d="m1030.2 431.6 170.3-90.512 189.41 108.34-165.24 95.093z" fill="#c7bda8"/><path d="m1034.9 423.86 161.8-92.646 0.016 2.4235-156.43 89.746z" fill="#d3cdc7"/><path d="m1196.7 331.24 188.34 110.34-4.4965 0.44614-183.88-108.4z" fill="#d3cdc7"/><path d="m1039.6 433.88 157.21-90.82-0.071-9.4253-157.11 90.163z" fill="#7f7662"/><path d="m1196.7 333.62 183.9 108.38-9.3626 5.27-174.48-104.27z" fill="#7f7662"/><g transform="matrix(1 -.42762 0 1 -5.3033 592)"><path d="m1224.8 479.22 170.37-25.207v194.88l-170.37 25.207z" fill="#aca898"/><path d="m1224.8 496.94v-17.717l170.37-25.207v17.717z" fill="#848483"/><path d="m1229.9 478.5v-10.63l160.4-23.779c0.7969 0.74527 1.5149 1.5749 2.1381 2.4706 1.5262 2.1936 2.4715 4.7876 2.7144 7.4489z" fill="#aca898"/><path d="m1230.1 464.44 155.76-21.82 4.4964 1.4943-160.24 23.87z" fill="#d3cdc7"/><g transform="matrix(1 .21601 0 1 -138.09 -123.46)"><path d="m1523.6 278.14v81.496l-9.7351 3.5433v-81.496l9.7351-3.5433" fill="#fff"/><path d="m1513.8 281.69 9.7351-3.5433v81.496l-1.7951-0.64348v-77.963l-7.94 3.1473v-2.4939" fill="#646464"/><path d="m1514.1 361.81c2.5664-0.91345 5.1234-1.8533 7.6704-2.8194l1.8047 0.6493-9.7547 3.5452v-1.2757c0.093-0.0331 0.1864-0.0662 0.2796-0.0994z" fill="#646464"/><path d="m1514.2 281.55-0.174 81.561-0.2036 0.0713-0.01-81.506z" fill="#727272"/><path d="m1521.8 281.03-0.609 0.2396v77.492l0.6394 0.23766z" fill="#a5a5a5"/><path d="m1514.1 334.1 7.6933-2.7978 0.045 2.7211-7.7457 2.8125z" fill="#646464"/><path d="m1514.1 334.1-0.01-0.54179 7.0837-2.624 0.5818 0.37831z" fill="url(#linearGradient4305)"/><path d="m1514 361.83v-0.52616l7.1306-2.5458 0.6443 0.23769z" fill="url(#linearGradient4313)"/></g><g transform="matrix(1 .21601 0 1 -157.48 -120.5)"><path d="m1523.6 278.14v81.496l-9.7351 3.5433v-81.496l9.7351-3.5433" fill="#fff"/><path d="m1513.8 281.69 9.7351-3.5433v81.496l-1.7951-0.64348v-77.963l-7.94 3.1473v-2.4939" fill="#646464"/><path d="m1514.1 361.81c2.5664-0.91345 5.1234-1.8533 7.6704-2.8194l1.8047 0.6493-9.7547 3.5452v-1.2757c0.093-0.0331 0.1864-0.0662 0.2796-0.0994z" fill="#646464"/><path d="m1514.2 281.55-0.174 81.561-0.2036 0.0713-0.01-81.506z" fill="#727272"/><path d="m1521.8 281.03-0.609 0.2396v77.492l0.6394 0.23766z" fill="#a5a5a5"/><path d="m1514.1 334.1 7.6933-2.7978 0.045 2.7211-7.7457 2.8125z" fill="#646464"/><path d="m1514.1 334.1-0.01-0.54179 7.0837-2.624 0.5818 0.37831z" fill="url(#linearGradient4305)"/><path d="m1514 361.83v-0.52616l7.1306-2.5458 0.6443 0.23769z" fill="url(#linearGradient4313)"/></g><g transform="matrix(1 .21601 0 1 -176.93 -117.63)"><path d="m1523.6 278.14v81.496l-9.7351 3.5433v-81.496l9.7351-3.5433" fill="#fff"/><path d="m1513.8 281.69 9.7351-3.5433v81.496l-1.7951-0.64348v-77.963l-7.94 3.1473v-2.4939" fill="#646464"/><path d="m1514.1 361.81c2.5664-0.91345 5.1234-1.8533 7.6704-2.8194l1.8047 0.6493-9.7547 3.5452v-1.2757c0.093-0.0331 0.1864-0.0662 0.2796-0.0994z" fill="#646464"/><path d="m1514.2 281.55-0.174 81.561-0.2036 0.0713-0.01-81.506z" fill="#727272"/><path d="m1521.8 281.03-0.609 0.2396v77.492l0.6394 0.23766z" fill="#a5a5a5"/><path d="m1514.1 334.1 7.6933-2.7978 0.045 2.7211-7.7457 2.8125z" fill="#646464"/><path d="m1514.1 334.1-0.01-0.54179 7.0837-2.624 0.5818 0.37831z" fill="url(#linearGradient4305)"/><path d="m1514 361.83v-0.52616l7.1306-2.5458 0.6443 0.23769z" fill="url(#linearGradient4313)"/></g><g transform="matrix(1 .21601 0 1 -196.56 -114.79)"><path d="m1523.6 278.14v81.496l-9.7351 3.5433v-81.496l9.7351-3.5433" fill="#fff"/><path d="m1513.8 281.69 9.7351-3.5433v81.496l-1.7951-0.64348v-77.963l-7.94 3.1473v-2.4939" fill="#646464"/><path d="m1514.1 361.81c2.5664-0.91345 5.1234-1.8533 7.6704-2.8194l1.8047 0.6493-9.7547 3.5452v-1.2757c0.093-0.0331 0.1864-0.0662 0.2796-0.0994z" fill="#646464"/><path d="m1514.2 281.55-0.174 81.561-0.2036 0.0713-0.01-81.506z" fill="#727272"/><path d="m1521.8 281.03-0.609 0.2396v77.492l0.6394 0.23766z" fill="#a5a5a5"/><path d="m1514.1 334.1 7.6933-2.7978 0.045 2.7211-7.7457 2.8125z" fill="#646464"/><path d="m1514.1 334.1-0.01-0.54179 7.0837-2.624 0.5818 0.37831z" fill="url(#linearGradient4305)"/><path d="m1514 361.83v-0.52616l7.1306-2.5458 0.6443 0.23769z" fill="url(#linearGradient4313)"/></g><g transform="matrix(1 .21601 0 1 -215.95 -111.83)"><path d="m1523.6 278.14v81.496l-9.7351 3.5433v-81.496l9.7351-3.5433" fill="#fff"/><path d="m1513.8 281.69 9.7351-3.5433v81.496l-1.7951-0.64348v-77.963l-7.94 3.1473v-2.4939" fill="#646464"/><path d="m1514.1 361.81c2.5664-0.91345 5.1234-1.8533 7.6704-2.8194l1.8047 0.6493-9.7547 3.5452v-1.2757c0.093-0.0331 0.1864-0.0662 0.2796-0.0994z" fill="#646464"/><path d="m1514.2 281.55-0.174 81.561-0.2036 0.0713-0.01-81.506z" fill="#727272"/><path d="m1521.8 281.03-0.609 0.2396v77.492l0.6394 0.23766z" fill="#a5a5a5"/><path d="m1514.1 334.1 7.6933-2.7978 0.045 2.7211-7.7457 2.8125z" fill="#646464"/><path d="m1514.1 334.1-0.01-0.54179 7.0837-2.624 0.5818 0.37831z" fill="url(#linearGradient4305)"/><path d="m1514 361.83v-0.52616l7.1306-2.5458 0.6443 0.23769z" fill="url(#linearGradient4313)"/></g><g transform="matrix(1 .21601 0 1 -235.4 -108.96)"><path d="m1523.6 278.14v81.496l-9.7351 3.5433v-81.496l9.7351-3.5433" fill="#fff"/><path d="m1513.8 281.69 9.7351-3.5433v81.496l-1.7951-0.64348v-77.963l-7.94 3.1473v-2.4939" fill="#646464"/><path d="m1514.1 361.81c2.5664-0.91345 5.1234-1.8533 7.6704-2.8194l1.8047 0.6493-9.7547 3.5452v-1.2757c0.093-0.0331 0.1864-0.0662 0.2796-0.0994z" fill="#646464"/><path d="m1514.2 281.55-0.174 81.561-0.2036 0.0713-0.01-81.506z" fill="#727272"/><path d="m1521.8 281.03-0.609 0.2396v77.492l0.6394 0.23766z" fill="#a5a5a5"/><path d="m1514.1 334.1 7.6933-2.7978 0.045 2.7211-7.7457 2.8125z" fill="#646464"/><path d="m1514.1 334.1-0.01-0.54179 7.0837-2.624 0.5818 0.37831z" fill="url(#linearGradient4305)"/><path d="m1514 361.83v-0.52616l7.1306-2.5458 0.6443 0.23769z" fill="url(#linearGradient4313)"/></g><g transform="matrix(1 .21601 0 1 -254.94 -106.13)"><path d="m1523.6 278.14v81.496l-9.7351 3.5433v-81.496l9.7351-3.5433" fill="#fff"/><path d="m1513.8 281.69 9.7351-3.5433v81.496l-1.7951-0.64348v-77.963l-7.94 3.1473v-2.4939" fill="#646464"/><path d="m1514.1 361.81c2.5664-0.91345 5.1234-1.8533 7.6704-2.8194l1.8047 0.6493-9.7547 3.5452v-1.2757c0.093-0.0331 0.1864-0.0662 0.2796-0.0994z" fill="#646464"/><path d="m1514.2 281.55-0.174 81.561-0.2036 0.0713-0.01-81.506z" fill="#727272"/><path d="m1521.8 281.03-0.609 0.2396v77.492l0.6394 0.23766z" fill="#a5a5a5"/><path d="m1514.1 334.1 7.6933-2.7978 0.045 2.7211-7.7457 2.8125z" fill="#646464"/><path d="m1514.1 334.1-0.01-0.54179 7.0837-2.624 0.5818 0.37831z" fill="url(#linearGradient4305)"/><path d="m1514 361.83v-0.52616l7.1306-2.5458 0.6443 0.23769z" fill="url(#linearGradient4313)"/></g><g transform="matrix(1 .21601 0 1 -274.57 -103.29)"><path d="m1523.6 278.14v81.496l-9.7351 3.5433v-81.496l9.7351-3.5433" fill="#fff"/><path d="m1513.8 281.69 9.7351-3.5433v81.496l-1.7951-0.64348v-77.963l-7.94 3.1473v-2.4939" fill="#646464"/><path d="m1514.1 361.81c2.5664-0.91345 5.1234-1.8533 7.6704-2.8194l1.8047 0.6493-9.7547 3.5452v-1.2757c0.093-0.0331 0.1864-0.0662 0.2796-0.0994z" fill="#646464"/><path d="m1514.2 281.55-0.174 81.561-0.2036 0.0713-0.01-81.506z" fill="#727272"/><path d="m1521.8 281.03-0.609 0.2396v77.492l0.6394 0.23766z" fill="#a5a5a5"/><path d="m1514.1 334.1 7.6933-2.7978 0.045 2.7211-7.7457 2.8125z" fill="#646464"/><path d="m1514.1 334.1-0.01-0.54179 7.0837-2.624 0.5818 0.37831z" fill="url(#linearGradient4305)"/><path d="m1514 361.83v-0.52616l7.1306-2.5458 0.6443 0.23769z" fill="url(#linearGradient4313)"/></g><path d="m1239.5 601.1 145.99-21.634-1e-4 63.78-146 21.583z" fill="url(#linearGradient4836)"/><g fill="#666353"><path d="m1239.4 661.31 141.16-20.886 4.8753 2.8287-146.04 21.6v-3.5433"/><path d="m1380.6 640.43 4.8675 2.8231 0.047-63.832-4.9144 4.3159z"/><path d="m1380.6 583.74 4.8597-4.273-146.04 21.611 0.028 3.5448z"/><path d="m1244.3 664.14-4.8676 0.72018v-63.78l2.953 3.1268-0.026 59.513z"/></g></g><path d="m1030.1 431.65v194.88l194.7 112.92v-194.88z" fill="#bab7a9"/><path d="m1030.1 431.65v17.717l194.7 112.92v-17.717z" fill="#717171"/><path d="m1030.1 431.65c0.048-2.7104 1.4048-5.3679 3.5719-6.9964 0.4078-0.3064 0.8418-0.57785 1.2957-0.81041l189.84 110.1c0.1006 0.60498 0.1839 1.2128 0.25 1.8225 0.3174 2.929 0.233 5.9012-0.25 8.8074z" fill="url(#linearGradient4420)"/><path d="m1035 423.85 189.84 110.1-0.062-3.5688-184.88-107.27z" fill="#d3cdc7"/><path d="m1147 453.42v-42.52l58.403 33.87v42.524z" fill="#f5ebca"/><path d="m1147 410.9 9.738-5.435 58.395 33.876-9.722 5.4368-58.411-33.877" fill="#aca898"/><path d="m1205.4 444.78 9.7352-5.481v42.52l-9.7352 5.481z" fill="#cfcbc6"/><path d="m1156.7 459.07v10.63l4.8675 2.8231v-10.63z" fill="#c0930c"/><path d="m1185.9 476v10.63l4.8675 2.8231v-10.63z" fill="#c0930c"/><path d="m1161.6 472.52 4.8676-2.6458v-5.161l-4.8676-2.8231z" fill="#927009"/><path d="m1190.8 489.46 4.8676-2.7291v-5.0777l-4.8676-2.8231z" fill="#927009"/><g transform="matrix(1 .21601 0 1 -128.36 -52.513)"><path d="m1182.8 270.97v81.59l-9.7312-3.5499v-81.469l9.7351 3.5226" fill="#fff"/><path d="m1182.8 273.16-8.1349-2.8193 0.014 78.11-1.6216 0.57158v-81.476l9.7656 3.5251" fill="#646464"/><path d="m1174.7 348.43 8.1174 2.8781 0.037 1.268-9.7755-3.5665 1.2223-0.58035z" fill="#646464"/><path d="m1175.3 270.55-0.609-0.21743v78.107l0.6394-0.2319z" fill="#a5a5a5"/><path d="m1174.7 320.49 7.8496 2.8523 0.01 2.7382-7.8629-2.86z" fill="#646464"/><path d="m1182.8 273.15v78.195l-0.2466-0.0811-0.1428-78.242z" fill="#727272"/><path d="m1174.7 320.49 0.6434-0.23246 7.198 2.5383v0.54788z" fill="url(#linearGradient4574)"/><path d="m1174.7 348.43 0.6434-0.23246 7.2449 2.5188v0.50882z" fill="url(#linearGradient4580)"/></g><g transform="matrix(1 .21601 0 1 -108.95 -41.305)"><path d="m1182.8 270.97v81.59l-9.7312-3.5499v-81.469l9.7351 3.5226" fill="#fff"/><path d="m1182.8 273.16-8.1349-2.8193 0.014 78.11-1.6216 0.57158v-81.476l9.7656 3.5251" fill="#646464"/><path d="m1174.7 348.43 8.1174 2.8781 0.037 1.268-9.7755-3.5665 1.2223-0.58035z" fill="#646464"/><path d="m1175.3 270.55-0.609-0.21743v78.107l0.6394-0.2319z" fill="#a5a5a5"/><path d="m1174.7 320.49 7.8496 2.8523 0.01 2.7382-7.8629-2.86z" fill="#646464"/><path d="m1182.8 273.15v78.195l-0.2466-0.0811-0.1428-78.242z" fill="#727272"/><path d="m1174.7 320.49 0.6434-0.23246 7.198 2.5383v0.54788z" fill="url(#linearGradient4574)"/><path d="m1174.7 348.43 0.6434-0.23246 7.2449 2.5188v0.50882z" fill="url(#linearGradient4580)"/></g><g transform="matrix(1 .21601 0 1 -89.424 -29.967)"><path d="m1182.8 270.97v81.59l-9.7312-3.5499v-81.469l9.7351 3.5226" fill="#fff"/><path d="m1182.8 273.16-8.1349-2.8193 0.014 78.11-1.6216 0.57158v-81.476l9.7656 3.5251" fill="#646464"/><path d="m1174.7 348.43 8.1174 2.8781 0.037 1.268-9.7755-3.5665 1.2223-0.58035z" fill="#646464"/><path d="m1175.3 270.55-0.609-0.21743v78.107l0.6394-0.2319z" fill="#a5a5a5"/><path d="m1174.7 320.49 7.8496 2.8523 0.01 2.7382-7.8629-2.86z" fill="#646464"/><path d="m1182.8 273.15v78.195l-0.2466-0.0811-0.1428-78.242z" fill="#727272"/><path d="m1174.7 320.49 0.6434-0.23246 7.198 2.5383v0.54788z" fill="url(#linearGradient4574)"/><path d="m1174.7 348.43 0.6434-0.23246 7.2449 2.5188v0.50882z" fill="url(#linearGradient4580)"/></g><g transform="matrix(1 .21601 0 1 -70.012 -18.758)"><path d="m1182.8 270.97v81.59l-9.7312-3.5499v-81.469l9.7351 3.5226" fill="#fff"/><path d="m1182.8 273.16-8.1349-2.8193 0.014 78.11-1.6216 0.57158v-81.476l9.7656 3.5251" fill="#646464"/><path d="m1174.7 348.43 8.1174 2.8781 0.037 1.268-9.7755-3.5665 1.2223-0.58035z" fill="#646464"/><path d="m1175.3 270.55-0.609-0.21743v78.107l0.6394-0.2319z" fill="#a5a5a5"/><path d="m1174.7 320.49 7.8496 2.8523 0.01 2.7382-7.8629-2.86z" fill="#646464"/><path d="m1182.8 273.15v78.195l-0.2466-0.0811-0.1428-78.242z" fill="#727272"/><path d="m1174.7 320.49 0.6434-0.23246 7.198 2.5383v0.54788z" fill="url(#linearGradient4574)"/><path d="m1174.7 348.43 0.6434-0.23246 7.2449 2.5188v0.50882z" fill="url(#linearGradient4580)"/></g><g transform="matrix(1 .21601 0 1 -50.483 -7.3264)"><path d="m1182.8 270.97v81.59l-9.7312-3.5499v-81.469l9.7351 3.5226" fill="#fff"/><path d="m1182.8 273.16-8.1349-2.8193 0.014 78.11-1.6216 0.57158v-81.476l9.7656 3.5251" fill="#646464"/><path d="m1174.7 348.43 8.1174 2.8781 0.037 1.268-9.7755-3.5665 1.2223-0.58035z" fill="#646464"/><path d="m1175.3 270.55-0.609-0.21743v78.107l0.6394-0.2319z" fill="#a5a5a5"/><path d="m1174.7 320.49 7.8496 2.8523 0.01 2.7382-7.8629-2.86z" fill="#646464"/><path d="m1182.8 273.15v78.195l-0.2466-0.0811-0.1428-78.242z" fill="#727272"/><path d="m1174.7 320.49 0.6434-0.23246 7.198 2.5383v0.54788z" fill="url(#linearGradient4574)"/><path d="m1174.7 348.43 0.6434-0.23246 7.2449 2.5188v0.50882z" fill="url(#linearGradient4580)"/></g><g transform="matrix(1 .21601 0 1 -31.084 3.9778)"><path d="m1182.8 270.97v81.59l-9.7312-3.5499v-81.469l9.7351 3.5226" fill="#fff"/><path d="m1182.8 273.16-8.1349-2.8193 0.014 78.11-1.6216 0.57158v-81.476l9.7656 3.5251" fill="#646464"/><path d="m1174.7 348.43 8.1174 2.8781 0.037 1.268-9.7755-3.5665 1.2223-0.58035z" fill="#646464"/><path d="m1175.3 270.55-0.609-0.21743v78.107l0.6394-0.2319z" fill="#a5a5a5"/><path d="m1174.7 320.49 7.8496 2.8523 0.01 2.7382-7.8629-2.86z" fill="#646464"/><path d="m1182.8 273.15v78.195l-0.2466-0.0811-0.1428-78.242z" fill="#727272"/><path d="m1174.7 320.49 0.6434-0.23246 7.198 2.5383v0.54788z" fill="url(#linearGradient4574)"/><path d="m1174.7 348.43 0.6434-0.23246 7.2449 2.5188v0.50882z" fill="url(#linearGradient4580)"/></g><g transform="matrix(1 .21601 0 1 -11.518 15.398)"><path d="m1182.8 270.97v81.59l-9.7312-3.5499v-81.469l9.7351 3.5226" fill="#fff"/><path d="m1182.8 273.16-8.1349-2.8193 0.014 78.11-1.6216 0.57158v-81.476l9.7656 3.5251" fill="#646464"/><path d="m1174.7 348.43 8.1174 2.8781 0.037 1.268-9.7755-3.5665 1.2223-0.58035z" fill="#646464"/><path d="m1175.3 270.55-0.609-0.21743v78.107l0.6394-0.2319z" fill="#a5a5a5"/><path d="m1174.7 320.49 7.8496 2.8523 0.01 2.7382-7.8629-2.86z" fill="#646464"/><path d="m1182.8 273.15v78.195l-0.2466-0.0811-0.1428-78.242z" fill="#727272"/><path d="m1174.7 320.49 0.6434-0.23246 7.198 2.5383v0.54788z" fill="url(#linearGradient4574)"/><path d="m1174.7 348.43 0.6434-0.23246 7.2449 2.5188v0.50882z" fill="url(#linearGradient4580)"/></g><g transform="matrix(1 .21601 0 1 7.8954 26.606)"><path d="m1182.8 270.97v81.59l-9.7312-3.5499v-81.469l9.7351 3.5226" fill="#fff"/><path d="m1182.8 273.16-8.1349-2.8193 0.014 78.11-1.6216 0.57158v-81.476l9.7656 3.5251" fill="#646464"/><path d="m1174.7 348.43 8.1174 2.8781 0.037 1.268-9.7755-3.5665 1.2223-0.58035z" fill="#646464"/><path d="m1175.3 270.55-0.609-0.21743v78.107l0.6394-0.2319z" fill="#a5a5a5"/><path d="m1174.7 320.49 7.8496 2.8523 0.01 2.7382-7.8629-2.86z" fill="#646464"/><path d="m1182.8 273.15v78.195l-0.2466-0.0811-0.1428-78.242z" fill="#727272"/><path d="m1174.7 320.49 0.6434-0.23246 7.198 2.5383v0.54788z" fill="url(#linearGradient4574)"/><path d="m1174.7 348.43 0.6434-0.23246 7.2449 2.5188v0.50882z" fill="url(#linearGradient4580)"/></g><g transform="matrix(1 .21601 0 1 27.55 38.067)"><path d="m1182.8 270.97v81.59l-9.7312-3.5499v-81.469l9.7351 3.5226" fill="#fff"/><path d="m1182.8 273.16-8.1349-2.8193 0.014 78.11-1.6216 0.57158v-81.476l9.7656 3.5251" fill="#646464"/><path d="m1174.7 348.43 8.1174 2.8781 0.037 1.268-9.7755-3.5665 1.2223-0.58035z" fill="#646464"/><path d="m1175.3 270.55-0.609-0.21743v78.107l0.6394-0.2319z" fill="#a5a5a5"/><path d="m1174.7 320.49 7.8496 2.8523 0.01 2.7382-7.8629-2.86z" fill="#646464"/><path d="m1182.8 273.15v78.195l-0.2466-0.0811-0.1428-78.242z" fill="#727272"/><path d="m1174.7 320.49 0.6434-0.23246 7.198 2.5383v0.54788z" fill="url(#linearGradient4574)"/><path d="m1174.7 348.43 0.6434-0.23246 7.2449 2.5188v0.50882z" fill="url(#linearGradient4580)"/></g><path d="m1210.2 660.12-58.411-33.877v63.78l58.411 33.877z" fill="url(#linearGradient9283)"/><g fill="#666353"><path d="m1207.3 722.21v-63.783l2.9374 1.7053-0.01 63.771-3.0208-5.242z"/><path d="m1210.2 723.9-2.9338-5.239-55.477-32.182v3.5433z"/><path d="m1151.8 690.03 4.8676-0.72019v-60.236l-4.8676-2.8231z"/><path d="m1151.8 629.79 58.411 33.877v-3.5433l-58.411-33.877z"/><path d="m1108 600.84v63.78l38.941 22.585v-63.78z"/></g><g transform="matrix(1 .21601 0 1 -138.09 -58.099)"><path d="m1262.9 399.4-14.665-5.3376v24.763l14.665 5.3376z" fill="url(#linearGradient4879)"/><path d="m1262.9 431.65-14.665-5.3376v24.763l14.665 5.3376z" fill="url(#linearGradient4895)"/></g><g transform="matrix(1 .21601 0 1 -118.93 -46.94)"><path d="m1262.9 399.4-14.665-5.3376v24.763l14.665 5.3376z" fill="url(#linearGradient4879)"/><path d="m1262.9 431.65-14.665-5.3376v24.763l14.665 5.3376z" fill="url(#linearGradient4895)"/></g><path d="m1108 664.62-4.8676 2.9077 38.941 22.585 4.8676-2.9077z" fill="#e4e4e4"/><path d="m1030.1 587.1-49.014 28.737 243.73 141.39 204.35-115.61-39.284-23.002 0.066 25.635-165.15 95.21-194.7-112.92" fill="#dbdbdb"/><path d="m1137.2 696.52-38.941-22.585 4.8676-2.9133 38.941 22.585z" fill="#d0d0d0"/><path d="m1137.2 700.06-38.941-22.585v-3.5433l38.941 22.585z" fill="#797662"/><path d="m1142.1 693.61v-3.5433l-38.941-22.585v3.5433z" fill="#797662"/><path d="m1142.1 690.09v3.5433l-4.8675 2.8857v3.5433l9.7351-5.7714v-7.0866z" fill="#818181"/><g transform="matrix(1 .21601 0 1 -245.19 -120.21)"><path d="m1348.3 426.97-58.411-21.26v63.78l58.411 21.26z" fill="url(#linearGradient4850)"/><g fill="#666353"><path d="m1345.4 489.69v-63.783l2.9374 1.0708-0.01 63.773-3.0208-4.5894z"/><path d="m1348.3 490.75-2.9338-4.6053-55.477-20.198v3.5433z"/><path d="m1289.9 469.49 4.8676-1.7716v-60.236l-4.8676-1.7716z"/><path d="m1289.9 409.25 58.411 21.26v-3.5433l-58.411-21.26z"/></g></g></g></g></svg>
