<?xml version="1.0" encoding="UTF-8" standalone="no"?>
<!-- Uploaded to: SVG Repo, www.svgrepo.com, Generator: SVG Repo Mixer Tools -->

<svg
   width="82.094284"
   height="140"
   viewBox="0 0 105.08068 179.2"
   class="icon"
   version="1.1"
   id="svg354"
   sodipodi:docname="street-light-svgrepo-com.svg"
   inkscape:version="1.2.2 (732a01da63, 2022-12-09)"
   xmlns:inkscape="http://www.inkscape.org/namespaces/inkscape"
   xmlns:sodipodi="http://sodipodi.sourceforge.net/DTD/sodipodi-0.dtd"
   xmlns="http://www.w3.org/2000/svg"
   xmlns:svg="http://www.w3.org/2000/svg">
  <defs
     id="defs358" />
  <sodipodi:namedview
     id="namedview356"
     pagecolor="#ffffff"
     bordercolor="#000000"
     borderopacity="0.25"
     inkscape:showpageshadow="2"
     inkscape:pageopacity="0.0"
     inkscape:pagecheckerboard="0"
     inkscape:deskcolor="#d1d1d1"
     showgrid="false"
     inkscape:zoom="1.04625"
     inkscape:cx="204.54002"
     inkscape:cy="350.77658"
     inkscape:window-width="1920"
     inkscape:window-height="1017"
     inkscape:window-x="1912"
     inkscape:window-y="-8"
     inkscape:window-maximized="1"
     inkscape:current-layer="svg354" />
  <path
     d="m 46.356553,62.19752 h 12.36758 v 106.2333 h -12.36758 z"
     fill="#0071ce"
     id="path334"
     style="stroke-width:0.199799" />
  <path
     d="m 46.356553,137.90148 h 12.36758 v 30.52934 h -12.36758 z"
     fill="#00b3e3"
     id="path336"
     style="stroke-width:0.199799" />
  <path
     d="m 46.356553,62.19752 h 12.36758 v 13.00694 h -12.36758 z"
     fill=""
     id="path338"
     style="stroke-width:0.199799" />
  <path
     d="m 67.974843,171.58765 v -3.61637 c 0,-1.91807 -1.55844,-3.47651 -3.47651,-3.47651 h -23.91598 c -1.91807,0 -3.4765,1.55844 -3.4765,3.47651 v 3.61637 z"
     fill="#2b3e49"
     id="path340"
     style="stroke-width:0.199799" />
  <path
     d="M 74.168623,21.638265 C 74.168623,9.690266 64.478353,0 52.530353,0 c -11.948,0 -21.63826,9.690266 -21.63826,21.638265 z"
     fill="#a4a9ad"
     id="path342"
     style="stroke-width:0.199799" />
  <path
     d="m 74.168623,21.638265 c 0,-4.195785 -1.1988,-8.091872 -3.25673,-11.40854 h -36.76307 c -2.05794,3.316668 -3.25673,7.212755 -3.25673,11.40854 z"
     fill=""
     id="path344"
     style="stroke-width:0.199799" />
  <path
     d="m 74.168623,18.920995 h -43.25655 l 6.83313,43.276525 h 29.59028 z"
     fill="#f2d383"
     id="path346"
     style="stroke-width:0.199799" />
  <path
     d="m 70.752053,43.45635 h -36.42341 c -1.5984,0 -2.89709,-1.2987 -2.89709,-2.89709 0,-1.59839 1.29869,-2.89709 2.89709,-2.89709 h 36.42341 c 1.59839,0 2.89709,1.2987 2.89709,2.89709 0,1.59839 -1.2987,2.89709 -2.89709,2.89709 z m 3.41657,-18.361557 h -43.25655 c -3.39659,0 -6.15382,-2.75723 -6.15382,-6.153819 0,-3.396588 2.75723,-6.153818 6.15382,-6.153818 h 43.27653 c 3.39659,0 6.15382,2.75723 6.15382,6.153818 0,3.376609 -2.75723,6.153819 -6.1738,6.153819 z m -6.83314,43.276527 h -29.5703 c -3.39659,0 -6.15382,-2.75723 -6.15382,-6.15382 0,-3.39658 2.75723,-6.15381 6.15382,-6.15381 h 29.5703 c 3.39659,0 6.15382,2.75723 6.15382,6.15381 0,3.39659 -2.75723,6.15382 -6.15382,6.15382 z"
     fill="#333e48"
     id="path348"
     style="stroke-width:0.199799" />
  <path
     d="m 73.169623,179.2 c 0.97902,0 1.79819,-0.7992 1.79819,-1.79819 v -1.25874 c 0,-2.79719 -2.25773,-5.05492 -5.05492,-5.05492 h -34.72512 c -2.79719,0 -5.05492,2.25773 -5.05492,5.05492 v 1.25874 c 0,0.97901 0.7992,1.79819 1.79819,1.79819 z"
     fill="#a4a9ad"
     id="path350"
     style="stroke-width:0.199799" />
  <path
     d="m 6.9960926,57.1426 c -1.1988,0 -2.29769,-0.73926 -2.71727,-1.93805 -0.53946,-1.4985 0.25974,-3.15683 1.75823,-3.67631 L 19.943083,46.63316 c 1.4985,-0.53946 3.15683,0.25974 3.67631,1.75823 0.53946,1.4985 -0.25974,3.15683 -1.75823,3.67631 L 7.9551326,56.96278 c -0.2997,0.13986 -0.63936,0.17982 -0.95904,0.17982 z M 20.922103,36.423414 c -0.11988,0 -0.23976,0 -0.37962,-0.01998 L 2.5205926,34.085762 c -1.57841996,-0.199799 -2.69729996,-1.658334 -2.49749996,-3.236749 0.1998,-1.578414 1.65833996,-2.69729 3.23674996,-2.497491 l 18.0219004,2.317672 c 1.57841,0.199799 2.69729,1.658334 2.49749,3.236749 -0.17982,1.458535 -1.43855,2.517471 -2.85713,2.517471 z M 98.084593,57.1426 c -0.31967,0 -0.63935,-0.0599 -0.95903,-0.15984 l -13.90603,-4.89508 c -1.4985,-0.53946 -2.2977,-2.17781 -1.75824,-3.67631 0.53946,-1.49849 2.17781,-2.29769 3.67631,-1.75823 l 13.90603,4.89508 c 1.498497,0.53946 2.297687,2.17781 1.758237,3.67631 -0.41958,1.17881 -1.538457,1.91807 -2.717277,1.91807 z M 84.158583,36.423414 c -1.43855,0 -2.67731,-1.058936 -2.85713,-2.517471 -0.1998,-1.578415 0.91908,-3.03695 2.49749,-3.236749 l 18.021897,-2.317672 c 1.57842,-0.199799 3.03695,0.919077 3.23675,2.497491 0.1998,1.578415 -0.91908,3.03695 -2.49749,3.236749 l -18.021897,2.317672 c -0.11988,0.01998 -0.23976,0.01998 -0.37962,0.01998 z"
     fill="#ffb819"
     id="path352"
     style="stroke-width:0.199799" />
</svg>
