<svg width="82.094" height="140" viewBox="0 0 105.081 179.2" class="prefix__icon" xmlns="http://www.w3.org/2000/svg"><path d="M46.357 62.198h12.367V168.43H46.357z" fill="#0071ce"/><path d="M46.357 137.901h12.367v30.53H46.357z" fill="#00b3e3"/><path d="M46.357 62.198h12.367v13.006H46.357z"/><path d="M67.975 171.588v-3.617a3.479 3.479 0 00-3.477-3.476H40.582a3.479 3.479 0 00-3.476 3.476v3.617z" fill="#2b3e49"/><path d="M74.169 21.638C74.169 9.69 64.479 0 52.53 0 40.582 0 30.892 9.69 30.892 21.638z" fill="#a4a9ad"/><path d="M74.169 21.638c0-4.196-1.2-8.092-3.257-11.408H34.149a21.543 21.543 0 00-3.257 11.408z"/><path d="M74.169 18.921H30.912l6.833 43.277h29.59z" fill="#f2d383"/><path d="M70.752 43.456H34.33a2.9 2.9 0 01-2.897-2.897 2.9 2.9 0 012.897-2.897h36.423a2.9 2.9 0 012.897 2.897 2.9 2.9 0 01-2.897 2.897zm3.417-18.361H30.912a6.156 6.156 0 01-6.154-6.154 6.156 6.156 0 016.154-6.154H74.19a6.156 6.156 0 016.153 6.154c0 3.377-2.757 6.154-6.173 6.154zM67.335 68.37h-29.57a6.156 6.156 0 01-6.154-6.153 6.156 6.156 0 016.154-6.154h29.57a6.156 6.156 0 016.154 6.154 6.156 6.156 0 01-6.154 6.153z" fill="#333e48"/><path d="M73.17 179.2c.979 0 1.798-.8 1.798-1.798v-1.259a5.048 5.048 0 00-5.055-5.055H35.188a5.048 5.048 0 00-5.055 5.055v1.259c0 .979.8 1.798 1.798 1.798z" fill="#a4a9ad"/><path d="M6.996 57.143a2.867 2.867 0 01-2.717-1.938 2.872 2.872 0 011.758-3.677l13.906-4.895a2.872 2.872 0 013.676 1.758 2.872 2.872 0 01-1.758 3.677L7.955 56.963c-.3.14-.64.18-.959.18zm13.926-20.72c-.12 0-.24 0-.38-.02L2.521 34.086c-1.579-.2-2.698-1.659-2.498-3.237.2-1.578 1.658-2.697 3.237-2.497l18.022 2.317c1.578.2 2.697 1.659 2.497 3.237-.18 1.458-1.438 2.517-2.857 2.517zm77.163 20.72c-.32 0-.64-.06-.96-.16L83.22 52.088c-1.499-.54-2.298-2.178-1.759-3.677.54-1.498 2.178-2.297 3.677-1.758l13.906 4.895c1.498.54 2.297 2.178 1.758 3.677a2.895 2.895 0 01-2.717 1.918zm-13.926-20.72a2.87 2.87 0 01-2.858-2.517c-.2-1.578.92-3.037 2.498-3.237l18.022-2.317c1.578-.2 3.037.919 3.237 2.497.2 1.578-.92 3.037-2.498 3.237l-18.022 2.317c-.12.02-.24.02-.38.02z" fill="#ffb819"/></svg>