<?xml version="1.0" encoding="UTF-8" standalone="no"?>
<svg
   version="1.1"
   x="0"
   y="0"
   width="135.49135"
   height="140"
   viewBox="0 0 135.49135 140"
   id="svg2531"
   sodipodi:docname="male-computer-user16-0053406wqhcfa.svg"
   inkscape:version="1.2.2 (732a01da63, 2022-12-09)"
   xmlns:inkscape="http://www.inkscape.org/namespaces/inkscape"
   xmlns:sodipodi="http://sodipodi.sourceforge.net/DTD/sodipodi-0.dtd"
   xmlns="http://www.w3.org/2000/svg"
   xmlns:svg="http://www.w3.org/2000/svg">
  <defs
     id="defs2535" />
  <sodipodi:namedview
     id="namedview2533"
     pagecolor="#ffffff"
     bordercolor="#000000"
     borderopacity="0.25"
     inkscape:showpageshadow="2"
     inkscape:pageopacity="0.0"
     inkscape:pagecheckerboard="0"
     inkscape:deskcolor="#d1d1d1"
     showgrid="false"
     inkscape:zoom="0.9640103"
     inkscape:cx="420.11999"
     inkscape:cy="434.64266"
     inkscape:window-width="1920"
     inkscape:window-height="1017"
     inkscape:window-x="1912"
     inkscape:window-y="-8"
     inkscape:window-maximized="1"
     inkscape:current-layer="svg2531" />
  <g
     id="Layer_1"
     transform="matrix(0.1612443,0,0,0.1612443,-6.1561017e-5,9.3930918e-6)">
    <path
       d="m 771.559,521.328 c 15.415,3.475 43.3,12.9 53.165,30.66 7.55,13.59 14.84,31.68 10.575,67.955 -3.025,25.675 -13.59,126.855 -28.695,146.485 0,0 -9.055,9.07 -16.61,12.085 -7.555,3.02 -34.73,-1.51 -42.285,-1.51 -7.555,0 23.85,-255.675 23.85,-255.675"
       fill="#8a8b8a"
       id="path833" />
    <path
       d="m 771.559,521.328 c 15.415,3.475 43.3,12.9 53.165,30.66 7.55,13.59 14.84,31.68 10.575,67.955 -3.025,25.675 -13.59,126.855 -28.695,146.485 0,0 -9.055,9.07 -16.61,12.085 -7.555,3.02 -34.73,-1.51 -42.285,-1.51 -7.555,0 23.85,-255.675 23.85,-255.675 z"
       fill-opacity="0"
       stroke="#1a1919"
       stroke-width="7.5"
       stroke-linecap="round"
       stroke-linejoin="round"
       id="path835" />
    <path
       d="m 684.059,512.578 c 3.75,0 67.14,0.025 87.5,8.75 17.5,7.5 37.5,16.25 40,40 2.5,23.75 -7.5,167.5 -28.75,196.25 -5,3.75 -6.25,12.5 -21.25,17.5 -15,5 -102.5,-5 -102.5,-5 l 25,-257.5"
       fill="#4d7bb1"
       id="path837" />
    <path
       d="m 684.059,512.578 c 3.75,0 67.14,0.025 87.5,8.75 17.5,7.5 37.5,16.25 40,40 2.5,23.75 -7.5,167.5 -28.75,196.25 -5,3.75 -6.25,12.5 -21.25,17.5 -15,5 -102.5,-5 -102.5,-5 l 25,-257.5"
       fill="#4d7bb1"
       id="path839" />
    <path
       d="m 811.559,561.328 c -2.5,-23.75 -22.5,-32.5 -40,-40 -12.07,-5.17 -39.26,-7.29 -60.185,-8.15 -10.73,3.1 -18.035,5.585 -18.035,5.585 l 19.64,-1.51 c 7.545,0 75.505,22.655 80.04,36.245 4.525,13.59 -10.58,175.18 -22.66,199.34 -4.18,8.36 -7.975,16.145 -11.185,22.795 0.905,-0.16 1.735,-0.34 2.385,-0.555 15,-5 16.25,-13.75 21.25,-17.5 21.25,-28.75 31.25,-172.5 28.75,-196.25"
       fill="#7a97c1"
       id="path841" />
    <path
       d="m 684.059,512.578 c 3.75,0 67.14,0.025 87.5,8.75 17.5,7.5 37.5,16.25 40,40 2.5,23.75 -7.5,167.5 -28.75,196.25 -5,3.75 -6.25,12.5 -21.25,17.5 -15,5 -102.5,-5 -102.5,-5 z"
       fill-opacity="0"
       stroke="#1a1919"
       stroke-width="7.5"
       stroke-linecap="round"
       stroke-linejoin="round"
       id="path843" />
    <path
       d="m 222.124,659.073 c 5,1.25 48.75,26.25 61.25,50 l 13.75,-15 c 0,0 -28.75,-37.5 -35,-41.25 -6.25,-3.75 -46.25,3.75 -46.25,3.75 l 6.25,2.5"
       fill="#fffffe"
       id="path845" />
    <path
       d="m 222.124,659.073 c 5,1.25 48.75,26.25 61.25,50 l 13.75,-15 c 0,0 -28.75,-37.5 -35,-41.25 -6.25,-3.75 -46.25,3.75 -46.25,3.75 z"
       fill-opacity="0"
       stroke="#1a1919"
       stroke-width="7.5"
       stroke-linecap="round"
       stroke-linejoin="round"
       id="path847" />
    <path
       d="m 593.374,367.823 c 5,1.25 12.5,2.5 16.25,5 3.75,2.5 17.5,27.5 21.25,35 2.5,0 51.25,43.75 66.25,66.25 15,22.5 -30,295 -31.25,298.75 -1.25,3.75 -1.25,1.25 -1.25,3.75 0,2.5 -245,-38.75 -245,-38.75 -10,-18.75 -42.5,-102.5 -48.75,-126.25 -2.5,2.5 -18.75,52.5 -27.5,62.5 -10.32,11.785 -37.5,41.25 -55,51.25 0,-2.5 -11.275,-28.36 -25.845,-42.93 -18.65,-18.645 -45.405,-29.57 -51.655,-29.57 0,0 -1.25,-6.25 2.5,-7.5 3.75,-1.25 47.5,-16.25 47.5,-16.25 0,-3.75 1.25,-18.75 7.5,-18.75 6.25,0 10,-2.5 10,-2.5 3.75,-7.5 56.25,-130 61.25,-137.5 0,-5 17.5,-30 17.5,-30 0,0 27.5,-18.75 35,-22.5 7.5,-3.75 201.25,-50 201.25,-50"
       fill="#464d5a"
       id="path849" />
    <path
       d="m 593.374,367.823 c 5,1.25 12.5,2.5 16.25,5 3.75,2.5 17.5,27.5 21.25,35 2.5,0 51.25,43.75 66.25,66.25 15,22.5 -30,295 -31.25,298.75 -1.25,3.75 -1.25,1.25 -1.25,3.75 0,2.5 -245,-38.75 -245,-38.75 -10,-18.75 -42.5,-102.5 -48.75,-126.25 -2.5,2.5 -18.75,52.5 -27.5,62.5 -10.32,11.785 -37.5,41.25 -55,51.25 0,-2.5 -11.275,-28.36 -25.845,-42.93 -18.65,-18.645 -45.405,-29.57 -51.655,-29.57 0,0 -1.25,-6.25 2.5,-7.5 3.75,-1.25 47.5,-16.25 47.5,-16.25 0,-3.75 1.25,-18.75 7.5,-18.75 6.25,0 10,-2.5 10,-2.5 3.75,-7.5 56.25,-130 61.25,-137.5 0,-5 17.5,-30 17.5,-30 0,0 27.5,-18.75 35,-22.5 7.5,-3.75 201.25,-50 201.25,-50 z"
       fill-opacity="0"
       stroke="#1a1919"
       stroke-width="7.5"
       stroke-linecap="round"
       stroke-linejoin="round"
       id="path851" />
    <path
       d="m 407.124,440.323 c 0,15 11.25,158.75 38.75,220 12.5,-11.25 122.5,-211.25 142.5,-241.25 -1.25,-5 -108.75,-13.75 -113.75,-13.75 -5,0 -67.5,35 -67.5,35"
       fill="#fffffe"
       id="path853" />
    <path
       d="m 407.124,440.323 c 0,15 11.25,158.75 38.75,220 12.5,-11.25 122.5,-211.25 142.5,-241.25 -1.25,-5 -108.75,-13.75 -113.75,-13.75 -5,0 -67.5,35 -67.5,35 z"
       fill-opacity="0"
       stroke="#1a1919"
       stroke-width="7.5"
       stroke-linecap="round"
       stroke-linejoin="round"
       id="path855" />
    <path
       d="m 445.874,660.323 c 4.365,-3.93 20.63,-30.895 40.785,-65.575 0.44,-22.93 0.645,-50.315 -0.785,-53.175 -2.5,-5 -5,-15 -5,-15 0,0 8.47,-10.69 12.5,-18.75 6.25,-12.5 13.75,-18.75 11.25,-25 -2.5,-6.25 -8.75,-26.25 -8.75,-26.25 0,0 -30.625,-3.125 -37.5,3.75 -4.76,4.76 -16.25,20 -16.25,20 0,0 -1.25,37.5 0,42.5 0,0 -12.52,44.72 -16.385,67.58 5.405,26.845 12.065,51.945 20.135,69.92"
       fill="#d8127d"
       id="path857" />
    <path
       d="m 445.874,660.323 c 4.365,-3.93 20.63,-30.895 40.785,-65.575 0.44,-22.93 0.645,-50.315 -0.785,-53.175 -2.5,-5 -5,-15 -5,-15 0,0 8.47,-10.69 12.5,-18.75 6.25,-12.5 13.75,-18.75 11.25,-25 -2.5,-6.25 -8.75,-26.25 -8.75,-26.25 0,0 -30.625,-3.125 -37.5,3.75 -4.76,4.76 -16.25,20 -16.25,20 0,0 -1.25,37.5 0,42.5 0,0 -12.52,44.72 -16.385,67.58 5.405,26.845 12.065,51.945 20.135,69.92 z m -1.25,-141.25 c 3.75,0 36.25,7.5 36.25,7.5 m -38.75,-46.25 c 0,0 -21.25,17.5 -25,25 m 88.75,-18.75 c 1.25,3.75 18.75,27.5 20,35 m -247.5,86.25 c 25,10 52.5,-3.75 60,-8.75 m 6.25,-120 c -1.25,12.5 17.5,102.5 26.25,132.5"
       fill-opacity="0"
       stroke="#1a1919"
       stroke-width="7.5"
       stroke-linecap="round"
       stroke-linejoin="round"
       id="path859" />
    <path
       d="m 288.374,725.323 c -1.25,1.25 -16.25,6.25 -16.25,6.25 0,0 -17.5,12.5 -25,17.5 -7.5,5 -23.75,6.25 -30,7.5 -6.25,1.25 -15,-16.25 5,-25 l -1.25,-7.5 -35,6.25 1.25,7.5 c 0,0 5,17.5 -3.75,30 l -11.25,-2.5 -8.75,-13.75 c 0,11.25 -3.75,17.5 -8.75,20 0,0 -13.75,-5 -16.25,-15 0,0 -4.675,14.385 -11.25,10 -3.75,-2.5 -8.75,-7.5 -12.5,-13.75 l -5,8.75 c 0,0 -10,-10 -11.25,-17.5 -1.25,-7.5 2.5,-22.5 2.5,-22.5 0,0 8.75,-13.75 12.5,-13.75 1.25,-3.75 10,-11.25 10,-11.25 l 10,-5 8.75,-10 10,-5 11.25,-12.5 c 0,0 28.75,-16.25 47.5,-11.25 18.75,5 68.75,35 77.5,72.5"
       fill="#f4bb9d"
       id="path861" />
    <path
       d="m 288.374,725.323 c -1.25,1.25 -16.25,6.25 -16.25,6.25 0,0 -17.5,12.5 -25,17.5 -7.5,5 -23.75,6.25 -30,7.5 -6.25,1.25 -15,-16.25 5,-25 l -1.25,-7.5 -35,6.25 1.25,7.5 c 0,0 5,17.5 -3.75,30 l -11.25,-2.5 -8.75,-13.75 c 0,11.25 -3.75,17.5 -8.75,20 0,0 -13.75,-5 -16.25,-15 0,0 -4.675,14.385 -11.25,10 -3.75,-2.5 -8.75,-7.5 -12.5,-13.75 l -5,8.75 c 0,0 -10,-10 -11.25,-17.5 -1.25,-7.5 2.5,-22.5 2.5,-22.5 0,0 8.75,-13.75 12.5,-13.75 1.25,-3.75 10,-11.25 10,-11.25 l 10,-5 8.75,-10 10,-5 11.25,-12.5 c 0,0 28.75,-16.25 47.5,-11.25 18.75,5 68.75,35 77.5,72.5 z m -173.75,-11.25 c 0,3.75 -2.5,16.25 -2.5,23.75 0,7.5 2.5,15 2.5,15 m 21.25,-51.25 c -1.25,7.5 -3.75,21.25 -3.75,27.5 0,6.25 2.5,22.5 6.25,27.5 m 15,-75 c 0,8.75 -2.5,26.25 -2.5,31.25 0,5 8.75,30 8.75,30 l 6.25,10 m 20,-60 c 0,8.75 -7.5,25 -7.5,25 l 7.5,16.25 m 1.25,-35 c 3.75,0 13.75,-6.25 13.75,-6.25 m 21.25,38.75 c 6.25,-2.5 10,-3.75 10,-3.75 l 6.25,-15 -5,-8.75 m 152.5,-276.25 -20,55 c 0,0 20,15 25,18.75 m 17.5,-11.25 c -2.5,3.75 -30,23.75 -33.75,33.75 -3.75,10 26.25,110 65,146.25 m 187.5,-268.75 c 1.25,5 -1.25,77.5 -2.5,81.25 0,0 -50,25 -57.5,32.5 m -20,-20 c 2.5,5 35,40 38.75,43.75 -2.5,10 -117.5,115 -143.75,145 -7.5,12.5 0,45 2.5,56.25 m 5,-83.75 c 0,0 -10,18.75 -7.5,27.5 m 80,-50 c 11.25,8.75 72.5,21.25 105,18.75 m -150,59.375 c 0,5.865 -4.755,10.625 -10.625,10.625 -5.87,0 -10.625,-4.76 -10.625,-10.625 0,-5.87 4.755,-10.625 10.625,-10.625 5.87,0 10.625,4.755 10.625,10.625 z"
       fill-opacity="0"
       stroke="#1a1919"
       stroke-width="7.5"
       stroke-linecap="round"
       stroke-linejoin="round"
       id="path863" />
    <path
       d="m 330.874,121.573 c -11.25,30 -13.75,46.25 -13.75,46.25 0,0 -11.25,25 -11.25,30 l 15,-11.25 c 0,0 -15,27.5 -15,33.75 0,6.25 33.75,-17.5 37.5,-18.75 3.75,-1.25 317.5,136.25 317.5,136.25 0,0 7.5,-8.75 17.5,-21.25 10,-12.5 36.25,-46.25 36.25,-65 0,-18.75 -2.5,-26.25 -2.5,-26.25 0.405,-49.6 -3.75,-98.75 -30,-118.75 3.75,-1.25 22.5,5 26.25,5 0,-3.75 -17.5,-33.75 -45,-37.5 1.25,-6.25 13.75,-12.5 18.75,-13.75 0,0 -30,-22.5 -51.25,-12.5 -12.5,-11.25 -28.75,-26.25 -36.25,-30 -7.5,-3.75 -27.5,-11.25 -37.5,-12.5 l 6.25,10 c -7.5,-6.25 -46.25,-15 -61.25,-10 0,3.75 5,3.75 5,3.75 -27.925,-3.35 -142.905,18.345 -176.25,112.5"
       fill="#2d2118"
       id="path865" />
    <path
       d="m 330.874,121.573 c -11.25,30 -13.75,46.25 -13.75,46.25 0,0 -11.25,25 -11.25,30 l 15,-11.25 c 0,0 -15,27.5 -15,33.75 0,6.25 33.75,-17.5 37.5,-18.75 3.75,-1.25 317.5,136.25 317.5,136.25 0,0 7.5,-8.75 17.5,-21.25 10,-12.5 36.25,-46.25 36.25,-65 0,-18.75 -2.5,-26.25 -2.5,-26.25 0.405,-49.6 -3.75,-98.75 -30,-118.75 3.75,-1.25 22.5,5 26.25,5 0,-3.75 -17.5,-33.75 -45,-37.5 1.25,-6.25 13.75,-12.5 18.75,-13.75 0,0 -30,-22.5 -51.25,-12.5 -12.5,-11.25 -28.75,-26.25 -36.25,-30 -7.5,-3.75 -27.5,-11.25 -37.5,-12.5 l 6.25,10 c -7.5,-6.25 -46.25,-15 -61.25,-10 0,3.75 5,3.75 5,3.75 -27.925,-3.35 -142.905,18.345 -176.25,112.5 z"
       fill-opacity="0"
       stroke="#1a1919"
       stroke-width="7.5"
       stroke-linecap="round"
       stroke-linejoin="round"
       id="path867" />
    <path
       d="m 343.374,201.573 c -1.25,3.75 -7.5,46.25 -10,55 0,0 -12.5,58.75 -7.5,76.25 5,17.5 22.5,48.75 38.75,71.25 16.25,22.5 38.75,42.5 51.25,50 12.5,7.5 37.5,6.25 42.5,6.25 5,0 13.75,-1.25 13.75,-1.25 0,0 26.25,7.5 30,7.5 3.75,-2.5 33.75,2.5 86.25,-47.5 2.5,-7.5 11.25,-28.75 15,-42.5 0,0 12.5,-16.25 15,-21.25 3.75,3.75 3.75,3.75 12.5,3.75 8.75,0 33.75,-15 50,-55 3.75,-16.25 -2.5,-56.25 -16.25,-55 -13.75,1.25 -30,11.25 -30,11.25 0,0 -20,-30 -26.25,-33.75 l 12.5,-22.5 c 0,0 -1.25,-28.75 -20,-42.5 -17.5,15 -73.75,38.75 -86.25,41.25 -12.5,2.5 -41.25,-6.25 -51.25,-8.75 -15,0 -60,1.25 -71.25,-10 -16.25,11.25 -43.75,17.5 -48.75,17.5"
       fill="#f4bb9d"
       id="path869" />
    <path
       d="m 343.374,201.573 c -1.25,3.75 -7.5,46.25 -10,55 0,0 -12.5,58.75 -7.5,76.25 5,17.5 22.5,48.75 38.75,71.25 16.25,22.5 38.75,42.5 51.25,50 12.5,7.5 37.5,6.25 42.5,6.25 5,0 13.75,-1.25 13.75,-1.25 0,0 26.25,7.5 30,7.5 3.75,-2.5 33.75,2.5 86.25,-47.5 2.5,-7.5 11.25,-28.75 15,-42.5 0,0 12.5,-16.25 15,-21.25 3.75,3.75 3.75,3.75 12.5,3.75 8.75,0 33.75,-15 50,-55 3.75,-16.25 -2.5,-56.25 -16.25,-55 -13.75,1.25 -30,11.25 -30,11.25 0,0 -20,-30 -26.25,-33.75 l 12.5,-22.5 c 0,0 -1.25,-28.75 -20,-42.5 -17.5,15 -73.75,38.75 -86.25,41.25 -12.5,2.5 -41.25,-6.25 -51.25,-8.75 -15,0 -60,1.25 -71.25,-10 -16.25,11.25 -43.75,17.5 -48.75,17.5 z m 48.75,-17.5 c 31.25,-22.5 142.5,-68.75 167.5,-58.75"
       fill-opacity="0"
       stroke="#1a1919"
       stroke-width="7.5"
       stroke-linecap="round"
       stroke-linejoin="round"
       id="path871" />
    <path
       d="m 618.374,237.823 c 2.5,15 -1.25,80 -3.75,92.5 5,-6.25 22.5,-52.5 21.25,-83.75"
       fill="#2d2118"
       id="path873" />
    <path
       d="m 618.374,237.823 c 2.5,15 -1.25,80 -3.75,92.5 5,-6.25 22.5,-52.5 21.25,-83.75 m 2.5,66.25 c 5,-3.75 8.75,-6.25 6.25,-10 -2.5,-3.75 -15,-7.5 -10,-15 5,-7.5 15,-11.25 18.75,-13.75 3.75,-2.5 10,16.25 10,16.25 m -272.5,-20 c -3.75,10 -27.5,43.75 -28.75,52.5 -1.25,8.75 1.25,16.25 8.75,18.75 7.5,2.5 27.5,3.75 30,-1.25 m -12.5,35 c 7.5,5 22.5,13.75 26.25,13.75 3.75,0 38.75,6.25 55,-2.5 m 57.5,-187.5 c 6.25,-6.25 25,3.75 23.75,31.25 m -78.75,228.75 c 5,-1.25 30,-12.5 41.25,-18.75 m 91.25,-67.5 c -3.75,5 -20,20 -23.75,25"
       fill-opacity="0"
       stroke="#1a1919"
       stroke-width="7.5"
       stroke-linecap="round"
       stroke-linejoin="round"
       id="path875" />
    <path
       d="m 496.289,288.913 c 0.215,12.43 -3.72,22.57 -8.78,22.66 -5.06,0.08 -9.335,-9.925 -9.55,-22.345 -0.215,-12.42 3.715,-22.565 8.78,-22.65 5.055,-0.085 9.335,9.915 9.55,22.335"
       fill="#1a1919"
       id="path877" />
    <path
       d="m 370.039,260.163 c 0.215,12.43 -3.72,22.57 -8.78,22.66 -5.06,0.08 -9.335,-9.925 -9.55,-22.345 -0.215,-12.42 3.715,-22.565 8.78,-22.65 5.055,-0.085 9.335,9.915 9.55,22.335"
       fill="#1a1919"
       id="path879" />
    <path
       d="m 534.334,347.188 c -1.52,11.64 -15.79,19.37 -31.875,17.265 -16.09,-2.1 -27.9,-13.24 -26.375,-24.875 1.52,-11.64 15.79,-19.37 31.88,-17.265 16.085,2.1 27.895,13.23 26.37,24.875"
       fill="#eb9174"
       id="path881" />
    <path
       d="m 359.454,307.828 c -0.45,-9.82 -10.07,-17.645 -22.7,-19.49 -3.95,10.225 -6.345,18.85 -7.45,25.37 -0.69,4.125 -0.72,9.99 -0.34,16.71 0.705,0.005 1.405,0.015 2.12,-0.02 16.205,-0.735 28.905,-10.845 28.37,-22.57"
       fill="#eb9174"
       id="path883" />
    <path
       d="m 472.529,79.058 c -13.33,-5 -128.33,43.33 -160,105"
       fill-opacity="0"
       stroke="#1a1919"
       stroke-width="7.5"
       stroke-linecap="round"
       stroke-linejoin="round"
       id="path885" />
    <path
       d="m 84.234,755.343 7.98,33.245 260.65,49.21 -5.32,-37.24 -263.31,-45.215"
       fill="#2c2c2b"
       id="path887" />
    <path
       d="m 84.234,755.343 7.98,33.245 260.65,49.21 -5.32,-37.24 z"
       fill-opacity="0"
       stroke="#1a1919"
       stroke-width="7.5"
       stroke-linecap="round"
       stroke-linejoin="round"
       id="path889" />
    <path
       d="m 347.544,800.558 5.32,37.24 17.29,-6.65 -3.99,-33.25 -18.62,2.66"
       fill="#636463"
       id="path891" />
    <path
       d="m 347.544,800.558 5.32,37.24 17.29,-6.65 -3.99,-33.25 -18.62,2.66"
       fill-opacity="0"
       stroke="#1a1919"
       stroke-width="7.5"
       stroke-linecap="round"
       stroke-linejoin="round"
       id="path893" />
    <path
       d="m 370.154,831.148 219.425,-29.26 9.31,-17.29 -231.395,29.26 2.66,17.29"
       fill="#777776"
       id="path895" />
    <path
       d="m 370.154,831.148 219.425,-29.26 9.31,-17.29 -231.395,29.26 z"
       fill-opacity="0"
       stroke="#1a1919"
       stroke-width="7.5"
       stroke-linecap="round"
       stroke-linejoin="round"
       id="path897" />
    <path
       d="m 598.889,784.598 -231.395,29.26 -1.33,-11.97 234.06,-27.93 -1.335,10.64"
       fill="#777776"
       id="path899" />
    <path
       d="m 598.889,784.598 -231.395,29.26 -1.33,-11.97 234.06,-27.93 z"
       fill-opacity="0"
       stroke="#1a1919"
       stroke-width="7.5"
       stroke-linecap="round"
       stroke-linejoin="round"
       id="path901" />
    <path
       d="m 366.164,801.888 234.06,-27.93 -3.995,-9.305 -244.695,-34.58 14.63,71.815"
       fill="#8a8b8a"
       id="path903" />
    <path
       d="m 366.164,801.888 234.06,-27.93 -3.995,-9.305 -244.695,-34.58 z"
       fill-opacity="0"
       stroke="#1a1919"
       stroke-width="7.5"
       stroke-linecap="round"
       stroke-linejoin="round"
       id="path905" />
    <path
       d="m 379.464,760.663 c 0,0 -29.26,5.315 -34.575,6.645 m 22.605,18.625 c 5.32,-1.335 95.745,-13.3 95.745,-13.3 l -103.725,-15.96 m 47.875,10.635 c 0,0 -47.875,7.98 -51.865,10.645 m 2.66,-15.96 c 3.99,1.33 67.825,13.295 67.825,13.295 m -87.775,-10.635 c 5.32,1.325 59.845,15.955 59.845,15.955"
       fill-opacity="0"
       stroke="#1a1919"
       stroke-width="5"
       stroke-linecap="round"
       stroke-linejoin="round"
       id="path907" />
    <path
       d="m 314.364,512.838 -20.01,9.78 55.85,283.26 19.95,-5.32 -55.79,-287.72"
       fill="#cbcccb"
       id="path909" />
    <path
       d="m 314.364,512.838 -20.01,9.78 55.85,283.26 19.95,-5.32 z"
       fill-opacity="0"
       stroke="#1a1919"
       stroke-width="7.5"
       stroke-linecap="round"
       stroke-linejoin="round"
       id="path911" />
    <path
       d="m 296.114,531.563 54.09,274.315 -273.34,-48.04 -72.5,-236.945 c -1.685,-7.85 0.625,-12.345 0.625,-12.345 l 12.755,-6.38 296.62,10.67 -15.925,9.53 c -4.255,1.065 -2.52,4.565 -2.325,9.195"
       fill="#b4b5b4"
       id="path913" />
    <path
       d="m 296.114,531.563 54.09,274.315 -273.34,-48.04 -72.5,-236.945 c -1.685,-7.85 0.625,-12.345 0.625,-12.345 l 12.755,-6.38 296.62,10.67 -15.925,9.53 c -4.255,1.065 -2.52,4.565 -2.325,9.195 z M 15.619,514.923 c 6.38,1.065 251.98,11.695 260.49,11.695"
       fill-opacity="0"
       stroke="#1a1919"
       stroke-width="7.5"
       stroke-linecap="round"
       stroke-linejoin="round"
       id="path915" />
    <path
       d="m 589.624,764.073 c -7.5,0 -52.5,-2.5 -58.75,-2.5 -6.25,0 -21.25,13.75 -30,20 1.25,7.5 13.75,10 21.25,8.75 -6.25,8.75 -11.25,15 -13.75,21.25 -2.5,6.25 -7.5,25 -5,36.25 1.085,4.88 7.5,5 12.5,0 1.25,5 2.5,7.5 8.75,8.75 6.25,1.25 12.5,-3.75 12.5,-3.75 1.25,3.75 1.25,6.25 7.5,7.5 6.25,1.25 16.25,-3.75 16.25,-3.75 1.25,7.5 2.5,8.75 7.5,7.5 5,-1.25 21.25,-7.5 28.75,-12.5 7.5,-5 15,-11.25 15,-11.25 6.915,4.605 29.765,-1.41 35.255,-6.29 0.455,-0.415 0.8,-0.82 0.995,-1.21 2.5,-5 -2.5,-12.5 -2.5,-12.5 0,0 -32.5,-57.5 -56.25,-56.25"
       fill="#f4bb9d"
       id="path917" />
    <path
       d="m 589.624,764.073 c -7.5,0 -52.5,-2.5 -58.75,-2.5 -6.25,0 -21.25,13.75 -30,20 1.25,7.5 13.75,10 21.25,8.75 -6.25,8.75 -11.25,15 -13.75,21.25 -2.5,6.25 -7.5,25 -5,36.25 1.085,4.88 7.5,5 12.5,0 1.25,5 2.5,7.5 8.75,8.75 6.25,1.25 12.5,-3.75 12.5,-3.75 1.25,3.75 1.25,6.25 7.5,7.5 6.25,1.25 16.25,-3.75 16.25,-3.75 1.25,7.5 2.5,8.75 7.5,7.5 5,-1.25 21.25,-7.5 28.75,-12.5 7.5,-5 15,-11.25 15,-11.25 6.915,4.605 29.765,-1.41 35.255,-6.29 0.455,-0.415 0.8,-0.82 0.995,-1.21 2.5,-5 -2.5,-12.5 -2.5,-12.5 0,0 -32.5,-57.5 -56.25,-56.25 z"
       fill-opacity="0"
       stroke="#1a1919"
       stroke-width="7.5"
       stroke-linecap="round"
       stroke-linejoin="round"
       id="path919" />
    <path
       d="m 618.374,782.823 c 11.25,8.75 26.25,36.25 28.75,43.75 l 1.25,6.25 c 0,0 22.5,-13.75 23.75,-17.5 0,0 -36.25,-36.25 -53.75,-32.5"
       fill="#fffffe"
       id="path921" />
    <path
       d="m 618.374,782.823 c 11.25,8.75 26.25,36.25 28.75,43.75 l 1.25,6.25 c 0,0 22.5,-13.75 23.75,-17.5 0,0 -36.25,-36.25 -53.75,-32.5 z"
       fill-opacity="0"
       stroke="#1a1919"
       stroke-width="7.5"
       stroke-linecap="round"
       stroke-linejoin="round"
       id="path923" />
    <path
       d="m 664.194,842.393 c -13.75,-23.75 -63.32,-73.32 -78.32,-80.82 10,-10 45,-36.25 58.75,-41.25 0,0 -5,-8.75 -3.75,-13.75 1.25,-5 12.5,-17.5 18.75,-20 -2.5,-30 -2.5,-136.25 7.5,-162.5 10,-26.25 27.5,-51.25 30,-50 8.75,1.25 21.25,23.75 25,33.75 3.75,10 23.75,132.5 22.5,157.5 1.25,15 -1.25,31.25 -1.25,47.5 0,16.25 -35.845,89.57 -79.18,129.57"
       fill="#464d5a"
       id="path925" />
    <path
       d="m 664.194,842.393 c -13.75,-23.75 -63.32,-73.32 -78.32,-80.82 10,-10 45,-36.25 58.75,-41.25 0,0 -5,-8.75 -3.75,-13.75 1.25,-5 12.5,-17.5 18.75,-20 -2.5,-30 -2.5,-136.25 7.5,-162.5 10,-26.25 27.5,-51.25 30,-50 8.75,1.25 21.25,23.75 25,33.75 3.75,10 23.75,132.5 22.5,157.5 1.25,15 -1.25,31.25 -1.25,47.5 0,16.25 -35.845,89.57 -79.18,129.57 z m -114.57,-67.07 c 0,0 -23.75,10 -27.5,15 m 42.5,3.75 c -3.75,2.5 -25,15 -25,15 l -8.385,11.265 m 1.25,-0.625 c 0,0 -16.615,20.61 -16.615,28.11 m 68.75,-37.5 c -3.75,2.5 -23.75,17.5 -23.75,17.5 0,0 -21.25,18.75 -23.75,25 m 60,-22.5 c -3.75,3.75 -26.25,23.75 -36.25,26.25"
       fill-opacity="0"
       stroke="#1a1919"
       stroke-width="7.5"
       stroke-linecap="round"
       stroke-linejoin="round"
       id="path927" />
  </g>
</svg>
