<svg width="135.491" height="140" xmlns="http://www.w3.org/2000/svg"><path d="M124.41 84.061c2.485.56 6.981 2.08 8.572 4.944 1.217 2.191 2.393 5.108 1.705 10.957-.488 4.14-2.191 20.455-4.627 23.62 0 0-1.46 1.463-2.678 1.949-1.218.487-5.6-.244-6.818-.244s3.845-41.226 3.845-41.226" fill="#8a8b8a"/><path d="M124.41 84.061c2.485.56 6.981 2.08 8.572 4.944 1.217 2.191 2.393 5.108 1.705 10.957-.488 4.14-2.191 20.455-4.627 23.62 0 0-1.46 1.463-2.678 1.949-1.218.487-5.6-.244-6.818-.244s3.845-41.226 3.845-41.226z" stroke="#1a1919" stroke-width="1.2093" stroke-linecap="round" stroke-linejoin="round" fill="none"/><path d="M110.3 82.65c.605 0 10.826.004 14.11 1.411 2.821 1.21 6.046 2.62 6.45 6.45.402 3.83-1.21 27.008-4.637 31.644-.806.605-1.007 2.016-3.426 2.822-2.419.806-16.528-.806-16.528-.806l4.032-41.52" fill="#4d7bb1"/><path d="M110.3 82.65c.605 0 10.826.004 14.11 1.411 2.821 1.21 6.046 2.62 6.45 6.45.402 3.83-1.21 27.008-4.637 31.644-.806.605-1.007 2.016-3.426 2.822-2.419.806-16.528-.806-16.528-.806l4.032-41.52" fill="#4d7bb1"/><path d="M130.86 90.51c-.404-3.829-3.629-5.24-6.45-6.449-1.947-.833-6.331-1.175-9.705-1.314-1.73.5-2.908.9-2.908.9l3.167-.243c1.216 0 12.174 3.653 12.906 5.844.73 2.192-1.706 28.247-3.654 32.143a293.795 293.795 0 00-1.804 3.675c.146-.025.28-.054.385-.09 2.419-.805 2.62-2.216 3.426-2.82 3.427-4.637 5.04-27.815 4.636-31.645" fill="#7a97c1"/><path d="M110.3 82.65c.605 0 10.826.004 14.11 1.411 2.821 1.21 6.046 2.62 6.45 6.45.402 3.83-1.21 27.008-4.637 31.644-.806.605-1.007 2.016-3.426 2.822-2.419.806-16.528-.806-16.528-.806z" stroke="#1a1919" stroke-width="1.2093" stroke-linecap="round" stroke-linejoin="round" fill="none"/><path d="M35.816 106.272c.806.201 7.86 4.232 9.876 8.062l2.217-2.419s-4.635-6.046-5.643-6.651c-1.008-.605-7.458.605-7.458.605l1.008.403" fill="#fffffe"/><path d="M35.816 106.272c.806.201 7.86 4.232 9.876 8.062l2.217-2.419s-4.635-6.046-5.643-6.651c-1.008-.605-7.458.605-7.458.605z" stroke="#1a1919" stroke-width="1.2093" stroke-linecap="round" stroke-linejoin="round" fill="none"/><path d="M95.678 59.31c.806.2 2.016.402 2.62.806.605.403 2.822 4.434 3.427 5.643.403 0 8.264 7.055 10.682 10.683 2.419 3.628-4.837 47.567-5.039 48.171-.201.605-.201.202-.201.605 0 .403-39.505-6.248-39.505-6.248-1.613-3.024-6.853-16.528-7.86-20.357-.404.403-3.024 8.465-4.435 10.077-1.664 1.9-6.047 6.652-8.868 8.264 0-.403-1.818-4.573-4.168-6.922-3.007-3.006-7.321-4.768-8.329-4.768 0 0-.201-1.008.403-1.21.605-.2 7.66-2.62 7.66-2.62 0-.604.2-3.023 1.209-3.023 1.007 0 1.612-.403 1.612-.403.605-1.21 9.07-20.962 9.876-22.171 0-.806 2.822-4.837 2.822-4.837s4.434-3.024 5.644-3.628c1.209-.605 32.45-8.063 32.45-8.063" fill="#464d5a"/><path d="M95.678 59.31c.806.2 2.016.402 2.62.806.605.403 2.822 4.434 3.427 5.643.403 0 8.264 7.055 10.682 10.683 2.419 3.628-4.837 47.567-5.039 48.171-.201.605-.201.202-.201.605 0 .403-39.505-6.248-39.505-6.248-1.613-3.024-6.853-16.528-7.86-20.357-.404.403-3.024 8.465-4.435 10.077-1.664 1.9-6.047 6.652-8.868 8.264 0-.403-1.818-4.573-4.168-6.922-3.007-3.006-7.321-4.768-8.329-4.768 0 0-.201-1.008.403-1.21.605-.2 7.66-2.62 7.66-2.62 0-.604.2-3.023 1.209-3.023 1.007 0 1.612-.403 1.612-.403.605-1.21 9.07-20.962 9.876-22.171 0-.806 2.822-4.837 2.822-4.837s4.434-3.024 5.644-3.628c1.209-.605 32.45-8.063 32.45-8.063z" stroke="#1a1919" stroke-width="1.2093" stroke-linecap="round" stroke-linejoin="round" fill="none"/><path d="M65.646 71c0 2.418 1.814 25.597 6.249 35.473 2.015-1.814 19.752-34.063 22.977-38.9-.202-.806-17.535-2.217-18.342-2.217-.806 0-10.884 5.644-10.884 5.644" fill="#fffffe"/><path d="M65.646 71c0 2.418 1.814 25.597 6.249 35.473 2.015-1.814 19.752-34.063 22.977-38.9-.202-.806-17.535-2.217-18.342-2.217-.806 0-10.884 5.644-10.884 5.644z" stroke="#1a1919" stroke-width="1.2093" stroke-linecap="round" stroke-linejoin="round" fill="none"/><path d="M71.895 106.473c.703-.633 3.326-4.981 6.576-10.573.07-3.698.104-8.113-.127-8.574-.403-.807-.806-2.42-.806-2.42s1.366-1.723 2.016-3.022c1.007-2.016 2.217-3.024 1.814-4.032-.403-1.007-1.411-4.232-1.411-4.232s-4.938-.504-6.047.604c-.767.768-2.62 3.225-2.62 3.225s-.202 6.047 0 6.853c0 0-2.019 7.211-2.642 10.897.871 4.329 1.945 8.376 3.247 11.274" fill="#d8127d"/><path d="M71.895 106.473c.703-.633 3.326-4.981 6.576-10.573.07-3.698.104-8.113-.127-8.574-.403-.807-.806-2.42-.806-2.42s1.366-1.723 2.016-3.022c1.007-2.016 2.217-3.024 1.814-4.032-.403-1.007-1.411-4.232-1.411-4.232s-4.938-.504-6.047.604c-.767.768-2.62 3.225-2.62 3.225s-.202 6.047 0 6.853c0 0-2.019 7.211-2.642 10.897.871 4.329 1.945 8.376 3.247 11.274zm-.202-22.775c.605 0 5.845 1.209 5.845 1.209m-6.248-7.458s-3.427 2.822-4.031 4.031m14.31-3.023c.202.605 3.024 4.434 3.225 5.644M44.886 98.008c4.031 1.612 8.465-.605 9.675-1.41m1.008-19.35c-.202 2.015 2.821 16.527 4.232 21.365" stroke="#1a1919" stroke-width="1.2093" stroke-linecap="round" stroke-linejoin="round" fill="none"/><path d="M46.499 116.954c-.202.202-2.62 1.008-2.62 1.008s-2.822 2.016-4.032 2.822-3.83 1.008-4.837 1.21c-1.008.2-2.419-2.621.806-4.032l-.201-1.21-5.644 1.008.202 1.21s.806 2.822-.605 4.837l-1.814-.403-1.41-2.217c0 1.814-.606 2.822-1.412 3.225 0 0-2.217-.806-2.62-2.419 0 0-.754 2.32-1.814 1.613-.605-.404-1.41-1.21-2.016-2.218l-.806 1.411s-1.612-1.612-1.814-2.821c-.201-1.21.403-3.628.403-3.628s1.411-2.218 2.016-2.218c.201-.604 1.612-1.814 1.612-1.814l1.613-.806 1.41-1.612 1.613-.806 1.814-2.016s4.636-2.62 7.66-1.814c3.022.806 11.085 5.644 12.496 11.69" fill="#f4bb9d"/><path d="M46.499 116.954c-.202.202-2.62 1.008-2.62 1.008s-2.822 2.016-4.032 2.822-3.83 1.008-4.837 1.21c-1.008.2-2.419-2.621.806-4.032l-.201-1.21-5.644 1.008.202 1.21s.806 2.822-.605 4.837l-1.814-.403-1.41-2.217c0 1.814-.606 2.822-1.412 3.225 0 0-2.217-.806-2.62-2.419 0 0-.754 2.32-1.814 1.613-.605-.404-1.41-1.21-2.016-2.218l-.806 1.411s-1.612-1.612-1.814-2.821c-.201-1.21.403-3.628.403-3.628s1.411-2.218 2.016-2.218c.201-.604 1.612-1.814 1.612-1.814l1.613-.806 1.41-1.612 1.613-.806 1.814-2.016s4.636-2.62 7.66-1.814c3.022.806 11.085 5.644 12.496 11.69zm-28.017-1.814c0 .605-.403 2.62-.403 3.83s.403 2.418.403 2.418m3.427-8.263c-.202 1.209-.605 3.426-.605 4.434s.403 3.628 1.008 4.434m2.419-12.093c0 1.41-.403 4.232-.403 5.039 0 .806 1.41 4.837 1.41 4.837l1.008 1.612m3.225-9.674c0 1.41-1.21 4.03-1.21 4.03l1.21 2.621m.202-5.643c.604 0 2.217-1.008 2.217-1.008m3.426 6.248c1.008-.403 1.613-.605 1.613-.605l1.007-2.418-.806-1.411m24.59-44.544l-3.225 8.868 4.031 3.024m2.822-1.814c-.403.604-4.837 3.83-5.442 5.442-.605 1.612 4.233 17.737 10.48 23.582M101.12 64.75c.202.807-.201 12.497-.403 13.101 0 0-8.062 4.032-9.272 5.24m-3.224-3.224c.403.806 5.643 6.45 6.248 7.054-.403 1.613-18.946 18.544-23.18 23.38-1.208 2.016 0 7.257.404 9.07m.806-13.503s-1.612 3.023-1.21 4.434m12.9-8.062c1.814 1.41 11.69 3.426 16.931 3.023m-24.187 9.574a1.713 1.713 0 11-3.426 0 1.713 1.713 0 013.426 0z" stroke="#1a1919" stroke-width="1.2093" stroke-linecap="round" stroke-linejoin="round" fill="none"/><path d="M53.351 19.603c-1.814 4.837-2.217 7.458-2.217 7.458s-1.814 4.03-1.814 4.837l2.419-1.814s-2.419 4.434-2.419 5.442 5.442-2.822 6.047-3.023c.605-.202 51.195 21.969 51.195 21.969s1.21-1.41 2.822-3.426 5.845-7.458 5.845-10.481c0-3.024-.403-4.233-.403-4.233.065-7.998-.605-15.923-4.837-19.148.604-.201 3.628.807 4.232.807 0-.605-2.822-5.442-7.256-6.047.202-1.008 2.217-2.016 3.024-2.217 0 0-4.838-3.628-8.264-2.016-2.016-1.814-4.636-4.232-5.845-4.837-1.21-.605-4.435-1.814-6.047-2.016l1.008 1.613C89.63 1.463 83.383.052 80.965.858c0 .605.806.605.806.605-4.503-.54-23.043 2.958-28.42 18.14" fill="#2d2118"/><path d="M53.351 19.603c-1.814 4.837-2.217 7.458-2.217 7.458s-1.814 4.03-1.814 4.837l2.419-1.814s-2.419 4.434-2.419 5.442 5.442-2.822 6.047-3.023c.605-.202 51.195 21.969 51.195 21.969s1.21-1.41 2.822-3.426 5.845-7.458 5.845-10.481c0-3.024-.403-4.233-.403-4.233.065-7.998-.605-15.923-4.837-19.148.604-.201 3.628.807 4.232.807 0-.605-2.822-5.442-7.256-6.047.202-1.008 2.217-2.016 3.024-2.217 0 0-4.838-3.628-8.264-2.016-2.016-1.814-4.636-4.232-5.845-4.837-1.21-.605-4.435-1.814-6.047-2.016l1.008 1.613C89.63 1.463 83.383.052 80.965.858c0 .605.806.605.806.605-4.503-.54-23.043 2.958-28.42 18.14z" stroke="#1a1919" stroke-width="1.2093" stroke-linecap="round" stroke-linejoin="round" fill="none"/><path d="M55.367 32.503c-.202.604-1.21 7.457-1.612 8.868 0 0-2.016 9.473-1.21 12.295.806 2.822 3.628 7.86 6.248 11.488 2.62 3.628 6.249 6.853 8.264 8.063 2.016 1.209 6.047 1.007 6.853 1.007s2.217-.201 2.217-.201 4.233 1.21 4.838 1.21c.604-.404 5.442.402 13.907-7.66.403-1.21 1.814-4.636 2.419-6.853 0 0 2.015-2.62 2.418-3.426.605.604.605.604 2.016.604 1.41 0 5.442-2.418 8.062-8.868.605-2.62-.403-9.07-2.62-8.868-2.217.201-4.838 1.814-4.838 1.814s-3.224-4.838-4.232-5.442l2.015-3.628s-.201-4.636-3.225-6.853C94.066 28.47 84.996 32.3 82.98 32.704c-2.015.403-6.651-1.008-8.264-1.41-2.418 0-9.674.2-11.488-1.613-2.62 1.814-7.055 2.822-7.861 2.822" fill="#f4bb9d"/><path d="M55.367 32.503c-.202.604-1.21 7.457-1.612 8.868 0 0-2.016 9.473-1.21 12.295.806 2.822 3.628 7.86 6.248 11.488 2.62 3.628 6.249 6.853 8.264 8.063 2.016 1.209 6.047 1.007 6.853 1.007s2.217-.201 2.217-.201 4.233 1.21 4.838 1.21c.604-.404 5.442.402 13.907-7.66.403-1.21 1.814-4.636 2.419-6.853 0 0 2.015-2.62 2.418-3.426.605.604.605.604 2.016.604 1.41 0 5.442-2.418 8.062-8.868.605-2.62-.403-9.07-2.62-8.868-2.217.201-4.838 1.814-4.838 1.814s-3.224-4.838-4.232-5.442l2.015-3.628s-.201-4.636-3.225-6.853C94.066 28.47 84.996 32.3 82.98 32.704c-2.015.403-6.651-1.008-8.264-1.41-2.418 0-9.674.2-11.488-1.613-2.62 1.814-7.055 2.822-7.861 2.822zm7.86-2.822c5.04-3.628 22.978-11.086 27.01-9.473" stroke="#1a1919" stroke-width="1.2093" stroke-linecap="round" stroke-linejoin="round" fill="none"/><path d="M99.71 38.348c.402 2.418-.202 12.9-.605 14.915.806-1.008 3.628-8.466 3.426-13.504" fill="#2d2118"/><path d="M99.71 38.348c.402 2.418-.202 12.9-.605 14.915.806-1.008 3.628-8.466 3.426-13.504m.403 10.682c.806-.605 1.411-1.008 1.008-1.613-.403-.604-2.419-1.209-1.613-2.418.807-1.21 2.42-1.814 3.024-2.217.604-.403 1.612 2.62 1.612 2.62m-43.939-3.225c-.605 1.612-4.434 7.054-4.636 8.465-.201 1.411.202 2.62 1.411 3.024 1.21.403 4.434.604 4.838-.202m-2.016 5.644c1.21.806 3.628 2.217 4.233 2.217.604 0 6.248 1.008 8.868-.403m9.272-30.234c1.007-1.007 4.03.605 3.83 5.04M76.126 74.022c.806-.202 4.838-2.016 6.652-3.023m14.713-10.884c-.605.806-3.225 3.224-3.83 4.03" stroke="#1a1919" stroke-width="1.2093" stroke-linecap="round" stroke-linejoin="round" fill="none"/><path d="M80.024 46.586c.034 2.004-.6 3.639-1.416 3.653-.816.013-1.505-1.6-1.54-3.603-.035-2.002.6-3.638 1.416-3.652.815-.014 1.505 1.599 1.54 3.602M59.667 41.95c.034 2.004-.6 3.64-1.416 3.654-.816.013-1.505-1.6-1.54-3.603-.035-2.003.599-3.639 1.416-3.653.815-.013 1.505 1.6 1.54 3.602" fill="#1a1919"/><path d="M86.158 55.982c-.245 1.877-2.546 3.123-5.14 2.784-2.594-.339-4.498-2.135-4.252-4.011.245-1.877 2.546-3.123 5.14-2.784 2.594.339 4.498 2.133 4.252 4.011M57.96 49.636c-.073-1.584-1.624-2.846-3.66-3.143-.637 1.649-1.023 3.04-1.202 4.09-.11.666-.116 1.611-.054 2.695.113 0 .226.002.341-.003 2.613-.119 4.661-1.749 4.575-3.64" fill="#eb9174"/><path d="M76.193 12.748c-2.15-.807-20.693 6.986-25.8 16.93" stroke="#1a1919" stroke-width="1.2093" stroke-linecap="round" stroke-linejoin="round" fill="none"/><path d="M13.582 121.795l1.287 5.36 42.028 7.935-.858-6.005-42.457-7.29" fill="#2c2c2b"/><path d="M13.582 121.795l1.287 5.36 42.028 7.935-.858-6.005z" stroke="#1a1919" stroke-width="1.2093" stroke-linecap="round" stroke-linejoin="round" fill="none"/><path d="M56.04 129.085l.857 6.005 2.788-1.072-.643-5.361-3.003.428" fill="#636463"/><path d="M56.04 129.085l.857 6.005 2.788-1.072-.643-5.361-3.003.428" stroke="#1a1919" stroke-width="1.2093" stroke-linecap="round" stroke-linejoin="round" fill="none"/><path d="M59.685 134.018l35.381-4.718 1.501-2.788-37.31 4.718.428 2.788" fill="#777776"/><path d="M59.685 134.018l35.381-4.718 1.501-2.788-37.31 4.718z" stroke="#1a1919" stroke-width="1.2093" stroke-linecap="round" stroke-linejoin="round" fill="none"/><path d="M96.567 126.512l-37.31 4.718-.215-1.93 37.74-4.504-.215 1.716" fill="#777776"/><path d="M96.567 126.512l-37.31 4.718-.215-1.93 37.74-4.504z" stroke="#1a1919" stroke-width="1.2093" stroke-linecap="round" stroke-linejoin="round" fill="none"/><path d="M59.042 129.3l37.74-4.504-.644-1.5-39.455-5.576 2.359 11.58" fill="#8a8b8a"/><path d="M59.042 129.3l37.74-4.504-.644-1.5-39.455-5.576z" stroke="#1a1919" stroke-width="1.2093" stroke-linecap="round" stroke-linejoin="round" fill="none"/><path d="M61.186 122.653s-4.718.857-5.575 1.071m3.645 3.003c.858-.215 15.439-2.144 15.439-2.144l-16.725-2.574m7.72 1.715s-7.72 1.287-8.364 1.716m.43-2.573c.642.214 10.935 2.144 10.935 2.144m-14.153-1.715c.858.214 9.65 2.573 9.65 2.573" stroke="#1a1919" stroke-width=".8062" stroke-linecap="round" stroke-linejoin="round" fill="none"/><path d="M50.69 82.692l-3.227 1.577 9.005 45.674 3.217-.858-8.996-46.393" fill="#cbcccb"/><path d="M50.69 82.692l-3.227 1.577 9.005 45.674 3.217-.858z" stroke="#1a1919" stroke-width="1.2093" stroke-linecap="round" stroke-linejoin="round" fill="none"/><path d="M47.747 85.712l8.721 44.231-44.074-7.746L.704 83.991c-.272-1.266.1-1.99.1-1.99l2.057-1.03 47.828 1.721-2.567 1.537c-.687.172-.407.736-.375 1.483" fill="#b4b5b4"/><path d="M47.747 85.712l8.721 44.231-44.074-7.746L.704 83.991c-.272-1.266.1-1.99.1-1.99l2.057-1.03 47.828 1.721-2.567 1.537c-.687.172-.407.736-.375 1.483zM2.518 83.028c1.03.172 40.63 1.886 42.003 1.886" stroke="#1a1919" stroke-width="1.2093" stroke-linecap="round" stroke-linejoin="round" fill="none"/><path d="M95.073 123.202c-1.209 0-8.465-.403-9.473-.403-1.007 0-3.426 2.217-4.837 3.225.202 1.21 2.217 1.613 3.426 1.411-1.007 1.411-1.814 2.419-2.217 3.427-.403 1.007-1.209 4.03-.806 5.845.175.787 1.21.806 2.016 0 .201.806.403 1.209 1.41 1.41 1.008.202 2.016-.604 2.016-.604.202.605.202 1.008 1.21 1.21 1.007.2 2.62-.605 2.62-.605.201 1.209.403 1.41 1.209 1.209.806-.202 3.426-1.21 4.636-2.016a32.913 32.913 0 002.418-1.814c1.115.743 4.8-.227 5.685-1.014a.713.713 0 00.16-.195c.404-.806-.403-2.016-.403-2.016s-5.24-9.271-9.07-9.07" fill="#f4bb9d"/><path d="M95.073 123.202c-1.209 0-8.465-.403-9.473-.403-1.007 0-3.426 2.217-4.837 3.225.202 1.21 2.217 1.613 3.426 1.411-1.007 1.411-1.814 2.419-2.217 3.427-.403 1.007-1.209 4.03-.806 5.845.175.787 1.21.806 2.016 0 .201.806.403 1.209 1.41 1.41 1.008.202 2.016-.604 2.016-.604.202.605.202 1.008 1.21 1.21 1.007.2 2.62-.605 2.62-.605.201 1.209.403 1.41 1.209 1.209.806-.202 3.426-1.21 4.636-2.016a32.913 32.913 0 002.418-1.814c1.115.743 4.8-.227 5.685-1.014a.713.713 0 00.16-.195c.404-.806-.403-2.016-.403-2.016s-5.24-9.271-9.07-9.07z" stroke="#1a1919" stroke-width="1.2093" stroke-linecap="round" stroke-linejoin="round" fill="none"/><path d="M99.71 126.226c1.813 1.41 4.232 5.845 4.635 7.054l.202 1.008s3.628-2.217 3.83-2.822c0 0-5.846-5.845-8.668-5.24" fill="#fffffe"/><path d="M99.71 126.226c1.813 1.41 4.232 5.845 4.635 7.054l.202 1.008s3.628-2.217 3.83-2.822c0 0-5.846-5.845-8.668-5.24z" stroke="#1a1919" stroke-width="1.2093" stroke-linecap="round" stroke-linejoin="round" fill="none"/><path d="M107.097 135.831c-2.217-3.83-10.21-11.822-12.628-13.032 1.612-1.612 7.256-5.845 9.473-6.651 0 0-.806-1.41-.605-2.217.202-.806 2.016-2.822 3.024-3.225-.404-4.837-.404-21.97 1.209-26.202 1.612-4.233 4.434-8.264 4.837-8.062 1.411.201 3.427 3.83 4.031 5.442.605 1.612 3.83 21.364 3.628 25.396.202 2.418-.201 5.038-.201 7.659 0 2.62-5.78 14.442-12.768 20.892" fill="#464d5a"/><path d="M107.097 135.831c-2.217-3.83-10.21-11.822-12.628-13.032 1.612-1.612 7.256-5.845 9.473-6.651 0 0-.806-1.41-.605-2.217.202-.806 2.016-2.822 3.024-3.225-.404-4.837-.404-21.97 1.209-26.202 1.612-4.233 4.434-8.264 4.837-8.062 1.411.201 3.427 3.83 4.031 5.442.605 1.612 3.83 21.364 3.628 25.396.202 2.418-.201 5.038-.201 7.659 0 2.62-5.78 14.442-12.768 20.892zm-18.473-10.815s-3.83 1.613-4.435 2.42m6.853.604c-.604.403-4.03 2.418-4.03 2.418l-1.353 1.817m.202-.1s-2.68 3.322-2.68 4.532m11.086-6.047c-.604.403-3.83 2.822-3.83 2.822s-3.426 3.023-3.829 4.03m9.675-3.627c-.605.605-4.233 3.83-5.845 4.233" stroke="#1a1919" stroke-width="1.2093" stroke-linecap="round" stroke-linejoin="round" fill="none"/></svg>