<svg width="139.343" height="139.325" viewBox="0 0 11.147 11.146" version="1.1" id="prefix__svg1950" xmlns="http://www.w3.org/2000/svg"><defs id="prefix__defs1897"><style id="style1895">.prefix__cls-1{fill:#396041}.prefix__cls-2{fill:#4c8056}.prefix__cls-3{fill:#7f5b53}.prefix__cls-5{fill:#f0c419}.prefix__cls-6{fill:#849eb4}.prefix__cls-7{fill:#b0d3f0}</style></defs><g data-name="Layer 25" id="prefix__Layer_25" transform="matrix(.18577 0 0 .18577 -.372 -.372)"><path class="prefix__cls-1" d="M57 32a5 5 0 00-2-4 5 5 0 00-3.07-7.91 5 5 0 00-9.82 0A5 5 0 0039 28a5 5 0 00.71 8.43A5 5 0 0047 43a5 5 0 007.27-6.55A5 5 0 0057 32z" id="prefix__path1901"/><path class="prefix__cls-2" d="M54 32a5 5 0 00-2-4 5 5 0 00-3.07-7.91 5 5 0 00-3.41-3.84 5 5 0 00-3.41 3.84A5 5 0 0039 28a5 5 0 00.71 8.43 4.94 4.94 0 002.79 7.32A5.35 5.35 0 0044 43a5 5 0 001.5.77A5 5 0 0047 43a5.35 5.35 0 001.48.77 4.94 4.94 0 002.79-7.32A5 5 0 0054 32z" id="prefix__path1903"/><path class="prefix__cls-3" transform="rotate(-45 43.497 33.503)" id="prefix__rect1905" d="M42.5 28.55h2v9.9h-2z"/><path class="prefix__cls-1" d="M42 32a5 5 0 00-2-4 5 5 0 00-3.07-7.91 5 5 0 00-9.82 0A5 5 0 0024 28a5 5 0 00.71 8.43A5 5 0 0032 43a5 5 0 007.27-6.55A5 5 0 0042 32z" id="prefix__path1907"/><path class="prefix__cls-2" d="M39 32a5 5 0 00-2-4 5 5 0 00-3.07-7.91 5 5 0 00-3.41-3.84 5 5 0 00-3.41 3.84A5 5 0 0024 28a5 5 0 00.71 8.43 4.94 4.94 0 002.79 7.32A5.35 5.35 0 0029 43a5 5 0 001.5.77A5 5 0 0032 43a5.35 5.35 0 001.48.77 4.94 4.94 0 002.79-7.32A5 5 0 0039 32z" id="prefix__path1909"/><path class="prefix__cls-3" transform="rotate(-45 28.495 33.497)" id="prefix__rect1911" d="M27.5 28.55h2v9.9h-2z"/><path class="prefix__cls-1" d="M27 32a5 5 0 00-2-4 5 5 0 00-3.07-7.91 5 5 0 00-9.82 0A5 5 0 009 28a5 5 0 00.71 8.43A5 5 0 0017 43a5 5 0 007.27-6.55A5 5 0 0027 32z" id="prefix__path1913"/><path class="prefix__cls-2" d="M24 32a5 5 0 00-2-4 5 5 0 00-3.07-7.91 5 5 0 00-3.41-3.84 5 5 0 00-3.41 3.84A5 5 0 009 28a5 5 0 00.71 8.43 4.94 4.94 0 002.79 7.32A5.35 5.35 0 0014 43a5 5 0 001.5.77A5 5 0 0017 43a5.35 5.35 0 001.48.77 4.94 4.94 0 002.79-7.32A5 5 0 0024 32z" id="prefix__path1915"/><path class="prefix__cls-3" id="prefix__rect1917" d="M17 23h2v29h-2z"/><path class="prefix__cls-3" id="prefix__rect1919" d="M31 23h2v31h-2z"/><path class="prefix__cls-3" id="prefix__rect1921" d="M46 23h2v29h-2z"/><circle cx="46" cy="6" r="4" id="prefix__circle1923" fill="#b49313"/><ellipse class="prefix__cls-5" cx="44.5" cy="6" rx="2.5" ry="3.7" id="prefix__ellipse1925"/><path class="prefix__cls-6" d="M59 12a3 3 0 10-1.12-5.78 3 3 0 00-5.76 0A3 3 0 1051 12z" id="prefix__path1927"/><path class="prefix__cls-7" d="M59 9a3 3 0 00-1.12.22 3 3 0 00-5.76 0 3 3 0 00-3.7 1.28A3 3 0 0051 12h8a3 3 0 002.58-1.5A3 3 0 0059 9z" id="prefix__path1929"/><path class="prefix__cls-6" d="M41 12a3 3 0 10-1.12-5.78 3 3 0 00-5.76 0A3 3 0 1033 12z" id="prefix__path1931"/><path class="prefix__cls-7" d="M41 9a3 3 0 00-1.12.22 3 3 0 00-5.76 0 3 3 0 00-3.7 1.28A3 3 0 0033 12h8a3 3 0 002.58-1.5A3 3 0 0041 9z" id="prefix__path1933"/><path id="prefix__rect1935" fill="#5f443e" d="M2 58h60v4H2z"/><path class="prefix__cls-3" id="prefix__rect1937" d="M2 58h56v4H2z"/><path class="prefix__cls-5" d="M60 58a4 4 0 00-4-4 4 4 0 00-7-2.62 3.94 3.94 0 00-5-.83 3.94 3.94 0 00-5 .83A4 4 0 0032 54a4 4 0 00-7-2.62 3.94 3.94 0 00-5-.83 3.94 3.94 0 00-5 .83A4 4 0 008 54a4 4 0 00-4 4" id="prefix__path1939"/><path class="prefix__cls-3" transform="rotate(-45 14.994 27)" id="prefix__rect1941" d="M14 22.76h2v8.49h-2z"/><path class="prefix__cls-3" transform="rotate(-45 20.5 34.499)" id="prefix__rect1943" d="M16.96 33.5h7.07v2h-7.07z"/><path class="prefix__cls-3" transform="rotate(-45 34.5 27.5)" id="prefix__rect1945" d="M30.96 26.5h7.07v2h-7.07z"/><path class="prefix__cls-3" transform="rotate(-45 49.503 27.505)" id="prefix__rect1947" d="M45.96 26.5h7.07v2h-7.07z"/></g></svg>