<?xml version="1.0" encoding="UTF-8" standalone="no"?>
<!-- Uploaded to: SVG Repo, www.svgrepo.com, Generator: SVG Repo Mixer Tools -->

<svg
   width="139.34267"
   height="139.32495"
   viewBox="0 0 11.147413 11.145996"
   version="1.1"
   id="svg1950"
   sodipodi:docname="architecture-landscape-svgrepo-com.svg"
   inkscape:version="1.2.2 (732a01da63, 2022-12-09)"
   xmlns:inkscape="http://www.inkscape.org/namespaces/inkscape"
   xmlns:sodipodi="http://sodipodi.sourceforge.net/DTD/sodipodi-0.dtd"
   xmlns="http://www.w3.org/2000/svg"
   xmlns:svg="http://www.w3.org/2000/svg">
  <sodipodi:namedview
     id="namedview1952"
     pagecolor="#ffffff"
     bordercolor="#000000"
     borderopacity="0.25"
     inkscape:showpageshadow="2"
     inkscape:pageopacity="0.0"
     inkscape:pagecheckerboard="0"
     inkscape:deskcolor="#d1d1d1"
     showgrid="false"
     inkscape:zoom="1.04625"
     inkscape:cx="374.67145"
     inkscape:cy="375.62724"
     inkscape:window-width="1920"
     inkscape:window-height="1017"
     inkscape:window-x="1912"
     inkscape:window-y="-8"
     inkscape:window-maximized="1"
     inkscape:current-layer="svg1950" />
  <defs
     id="defs1897">
    <style
       id="style1895">.cls-1{fill:#396041;}.cls-2{fill:#4c8056;}.cls-3{fill:#7f5b53;}.cls-4{fill:#b49313;}.cls-5{fill:#f0c419;}.cls-6{fill:#849eb4;}.cls-7{fill:#b0d3f0;}.cls-8{fill:#5f443e;}</style>
  </defs>
  <title
     id="title1899" />
  <g
     data-name="Layer 25"
     id="Layer_25"
     transform="matrix(0.18576661,0,0,0.18576661,-0.37153322,-0.37153322)">
    <path
       class="cls-1"
       d="m 57,32 a 5,5 0 0 0 -2,-4 5,5 0 0 0 -3.07,-7.91 5,5 0 0 0 -9.82,0 A 5,5 0 0 0 39,28 5,5 0 0 0 39.71,36.43 5,5 0 0 0 47,43 5,5 0 0 0 54.27,36.45 5,5 0 0 0 57,32 Z"
       id="path1901" />
    <path
       class="cls-2"
       d="M 54,32 A 5,5 0 0 0 52,28 5,5 0 0 0 48.93,20.09 5,5 0 0 0 45.52,16.25 5,5 0 0 0 42.11,20.09 5,5 0 0 0 39,28 5,5 0 0 0 39.71,36.43 4.94,4.94 0 0 0 42.5,43.75 5.35,5.35 0 0 0 44,43 5,5 0 0 0 45.5,43.77 5,5 0 0 0 47,43 5.35,5.35 0 0 0 48.48,43.77 4.94,4.94 0 0 0 51.27,36.45 5,5 0 0 0 54,32 Z"
       id="path1903" />
    <rect
       class="cls-3"
       height="9.8999996"
       transform="rotate(-45,43.497322,33.502819)"
       width="2"
       x="42.5"
       y="28.549999"
       id="rect1905" />
    <path
       class="cls-1"
       d="m 42,32 a 5,5 0 0 0 -2,-4 5,5 0 0 0 -3.07,-7.91 5,5 0 0 0 -9.82,0 A 5,5 0 0 0 24,28 5,5 0 0 0 24.71,36.43 5,5 0 0 0 32,43 5,5 0 0 0 39.27,36.45 5,5 0 0 0 42,32 Z"
       id="path1907" />
    <path
       class="cls-2"
       d="M 39,32 A 5,5 0 0 0 37,28 5,5 0 0 0 33.93,20.09 5,5 0 0 0 30.52,16.25 5,5 0 0 0 27.11,20.09 5,5 0 0 0 24,28 5,5 0 0 0 24.71,36.43 4.94,4.94 0 0 0 27.5,43.75 5.35,5.35 0 0 0 29,43 5,5 0 0 0 30.5,43.77 5,5 0 0 0 32,43 5.35,5.35 0 0 0 33.48,43.77 4.94,4.94 0 0 0 36.27,36.45 5,5 0 0 0 39,32 Z"
       id="path1909" />
    <rect
       class="cls-3"
       height="9.8999996"
       transform="rotate(-45,28.494919,33.497018)"
       width="2"
       x="27.5"
       y="28.549999"
       id="rect1911" />
    <path
       class="cls-1"
       d="m 27,32 a 5,5 0 0 0 -2,-4 5,5 0 0 0 -3.07,-7.91 5,5 0 0 0 -9.82,0 A 5,5 0 0 0 9,28 5,5 0 0 0 9.71,36.43 5,5 0 0 0 17,43 5,5 0 0 0 24.27,36.45 5,5 0 0 0 27,32 Z"
       id="path1913" />
    <path
       class="cls-2"
       d="M 24,32 A 5,5 0 0 0 22,28 5,5 0 0 0 18.93,20.09 5,5 0 0 0 15.52,16.25 5,5 0 0 0 12.11,20.09 5,5 0 0 0 9,28 5,5 0 0 0 9.71,36.43 4.94,4.94 0 0 0 12.5,43.75 5.35,5.35 0 0 0 14,43 5,5 0 0 0 15.5,43.77 5,5 0 0 0 17,43 5.35,5.35 0 0 0 18.48,43.77 4.94,4.94 0 0 0 21.27,36.45 5,5 0 0 0 24,32 Z"
       id="path1915" />
    <rect
       class="cls-3"
       height="29"
       width="2"
       x="17"
       y="23"
       id="rect1917" />
    <rect
       class="cls-3"
       height="31"
       width="2"
       x="31"
       y="23"
       id="rect1919" />
    <rect
       class="cls-3"
       height="29"
       width="2"
       x="46"
       y="23"
       id="rect1921" />
    <circle
       class="cls-4"
       cx="46"
       cy="6"
       r="4"
       id="circle1923" />
    <ellipse
       class="cls-5"
       cx="44.5"
       cy="6"
       rx="2.5"
       ry="3.7"
       id="ellipse1925" />
    <path
       class="cls-6"
       d="M 59,12 A 3,3 0 1 0 57.88,6.22 3,3 0 0 0 52.12,6.22 3,3 0 1 0 51,12 Z"
       id="path1927" />
    <path
       class="cls-7"
       d="m 59,9 a 3,3 0 0 0 -1.12,0.22 3,3 0 0 0 -5.76,0 3,3 0 0 0 -3.7,1.28 A 3,3 0 0 0 51,12 h 8 A 3,3 0 0 0 61.58,10.5 3,3 0 0 0 59,9 Z"
       id="path1929" />
    <path
       class="cls-6"
       d="M 41,12 A 3,3 0 1 0 39.88,6.22 3,3 0 0 0 34.12,6.22 3,3 0 1 0 33,12 Z"
       id="path1931" />
    <path
       class="cls-7"
       d="m 41,9 a 3,3 0 0 0 -1.12,0.22 3,3 0 0 0 -5.76,0 3,3 0 0 0 -3.7,1.28 A 3,3 0 0 0 33,12 h 8 A 3,3 0 0 0 43.58,10.5 3,3 0 0 0 41,9 Z"
       id="path1933" />
    <rect
       class="cls-8"
       height="4"
       width="60"
       x="2"
       y="58"
       id="rect1935" />
    <rect
       class="cls-3"
       height="4"
       width="56"
       x="2"
       y="58"
       id="rect1937" />
    <path
       class="cls-5"
       d="M 60,58 A 4,4 0 0 0 56,54 4,4 0 0 0 49,51.38 3.94,3.94 0 0 0 44,50.55 3.94,3.94 0 0 0 39,51.38 4,4 0 0 0 32,54 4,4 0 0 0 25,51.38 3.94,3.94 0 0 0 20,50.55 3.94,3.94 0 0 0 15,51.38 4,4 0 0 0 8,54 4,4 0 0 0 4,58"
       id="path1939" />
    <rect
       class="cls-3"
       height="8.4899998"
       transform="rotate(-45,14.993547,26.99947)"
       width="2"
       x="14"
       y="22.76"
       id="rect1941" />
    <rect
       class="cls-3"
       height="2"
       transform="rotate(-45,20.499827,34.498694)"
       width="7.0700002"
       x="16.959999"
       y="33.5"
       id="rect1943" />
    <rect
       class="cls-3"
       height="2"
       transform="rotate(-45,34.500615,27.499377)"
       width="7.0700002"
       x="30.959999"
       y="26.5"
       id="rect1945" />
    <rect
       class="cls-3"
       height="2"
       transform="rotate(-45,49.503018,27.505179)"
       width="7.0700002"
       x="45.959999"
       y="26.5"
       id="rect1947" />
  </g>
</svg>
