<svg version="1.1" xmlns="http://www.w3.org/2000/svg" xmlns:xlink="http://www.w3.org/1999/xlink" width="139.34287" height="139.32496" viewBox="0,0,139.34287,139.32496"><g transform="translate(-170.32856,-110.33752)"><g data-paper-data="{&quot;isPaintingLayer&quot;:true}" fill-rule="nonzero" stroke="none" stroke-width="1" stroke-linecap="butt" stroke-linejoin="miter" stroke-miterlimit="10" stroke-dasharray="" stroke-dashoffset="0" style="mix-blend-mode: normal"><path d="M291.70383,190.33327c2.75581,4.74863 1.80864,10.77849 -2.27035,14.45351c-4.079,3.67502 -10.17463,3.99047 -14.61119,0.75613c-4.44021,3.33347 -10.61909,3.05672 -14.74351,-0.66035c-4.12442,-3.71707 -5.03992,-9.83402 -2.18447,-14.59573c-3.53992,-1.83556 -5.89022,-5.35928 -6.22488,-9.33273c-0.33466,-3.97345 1.39316,-7.84064 4.5762,-10.24243c-2.40383,-3.22005 -2.97173,-7.45415 -1.50139,-11.19383c1.47034,-3.73968 4.76986,-6.45321 8.72306,-7.17385c1.05144,-5.46647 5.83476,-9.41743 11.40143,-9.41743c5.56667,0 10.34999,3.95096 11.40143,9.41743c3.93677,0.74674 7.21025,3.47065 8.66006,7.20613c1.4498,3.73548 0.87099,7.95453 -1.53126,11.16155c2.92357,2.19268 4.64417,5.63387 4.64417,9.28833c-0.00437,4.36174 -2.45297,8.35304 -6.33929,10.33327z" fill="#396041"/><path d="M284.73758,190.33327c1.86658,3.03509 2.21679,6.76523 0.94777,10.09471c-1.26902,3.32948 -4.01318,5.88022 -7.42638,6.90293c-1.23201,-0.41262 -2.39167,-1.01596 -3.43668,-1.788c-1.05145,0.78888 -2.22924,1.39347 -3.48312,1.788c-1.25389,-0.39453 -2.43167,-0.99913 -3.48312,-1.788c-1.06227,0.76002 -2.23775,1.34776 -3.48312,1.74156c-3.4132,-1.02272 -6.15735,-3.57345 -7.42638,-6.90293c-1.26902,-3.32948 -0.91881,-7.05963 0.94777,-10.09471c-3.53992,-1.83556 -5.89022,-5.35928 -6.22488,-9.33273c-0.33466,-3.97345 1.39316,-7.84064 4.5762,-10.24243c-2.40383,-3.22005 -2.97173,-7.45415 -1.50139,-11.19383c1.47034,-3.73968 4.76986,-6.45321 8.72306,-7.17385c0.79478,-4.20425 3.83748,-7.63063 7.9183,-8.9168c4.08082,1.28617 7.12353,4.71255 7.9183,8.9168c3.93677,0.74674 7.21025,3.47065 8.66006,7.20613c1.4498,3.73548 0.87099,7.95453 -1.53126,11.16155c2.92357,2.19268 4.64417,5.63387 4.64417,9.28833c-0.00437,4.36174 -2.45297,8.35304 -6.33929,10.33327z" fill="#4c8056"/><path d="M273.17429,193.25031l-16.25541,-16.25541l3.28392,-3.28392l16.25541,16.25541z" fill="#7f5b53"/><path d="M256.87259,190.33327c2.75581,4.74863 1.80864,10.77849 -2.27035,14.45351c-4.079,3.67502 -10.17463,3.99047 -14.61119,0.75613c-4.44021,3.33347 -10.61909,3.05672 -14.74351,-0.66035c-4.12442,-3.71707 -5.03992,-9.83402 -2.18447,-14.59573c-3.53992,-1.83556 -5.89022,-5.35928 -6.22488,-9.33273c-0.33466,-3.97345 1.39316,-7.84064 4.5762,-10.24243c-2.40383,-3.22005 -2.97173,-7.45415 -1.50139,-11.19383c1.47034,-3.73968 4.76986,-6.45321 8.72306,-7.17385c1.05144,-5.46647 5.83476,-9.41743 11.40143,-9.41743c5.56667,0 10.34999,3.95096 11.40143,9.41743c3.93677,0.74674 7.21025,3.47065 8.66006,7.20613c1.4498,3.73548 0.87099,7.95453 -1.53126,11.16155c2.92357,2.19268 4.64417,5.63387 4.64417,9.28833c-0.00437,4.36174 -2.45297,8.35304 -6.33929,10.33327z" fill="#396041"/><path d="M249.90634,190.33327c1.86658,3.03509 2.21679,6.76523 0.94777,10.09471c-1.26902,3.32948 -4.01318,5.88022 -7.42638,6.90293c-1.23201,-0.41262 -2.39167,-1.01596 -3.43668,-1.788c-1.05145,0.78888 -2.22924,1.39347 -3.48312,1.788c-1.25389,-0.39453 -2.43167,-0.99913 -3.48312,-1.788c-1.06227,0.76002 -2.23775,1.34776 -3.48312,1.74156c-3.4132,-1.02272 -6.15735,-3.57345 -7.42638,-6.90293c-1.26902,-3.32948 -0.91881,-7.05963 0.94777,-10.09471c-3.53992,-1.83556 -5.89022,-5.35928 -6.22488,-9.33273c-0.33466,-3.97345 1.39316,-7.84064 4.5762,-10.24243c-2.40383,-3.22005 -2.97173,-7.45415 -1.50139,-11.19383c1.47034,-3.73968 4.76986,-6.45321 8.72306,-7.17385c0.79478,-4.20425 3.83748,-7.63063 7.9183,-8.9168c4.08082,1.28617 7.12353,4.71255 7.9183,8.9168c3.93677,0.74674 7.21025,3.47065 8.66006,7.20613c1.4498,3.73548 0.87099,7.95453 -1.53126,11.16155c2.92357,2.19268 4.64417,5.63387 4.64417,9.28833c-0.00437,4.36174 -2.45297,8.35304 -6.33929,10.33327z" fill="#4c8056"/><path d="M238.35094,193.24241l-16.25541,-16.25541l3.28392,-3.28392l16.25541,16.25541z" fill="#7f5b53"/><path d="M222.04135,190.33327c2.75581,4.74863 1.80864,10.77849 -2.27035,14.45351c-4.079,3.67502 -10.17463,3.99047 -14.61119,0.75613c-4.44021,3.33347 -10.61909,3.05672 -14.74351,-0.66035c-4.12442,-3.71707 -5.03992,-9.83402 -2.18447,-14.59573c-3.53992,-1.83556 -5.89022,-5.35928 -6.22488,-9.33273c-0.33466,-3.97345 1.39316,-7.84064 4.5762,-10.24243c-2.40383,-3.22005 -2.97173,-7.45415 -1.50139,-11.19383c1.47034,-3.73968 4.76986,-6.45321 8.72306,-7.17385c1.05144,-5.46647 5.83476,-9.41743 11.40143,-9.41743c5.56667,0 10.34999,3.95096 11.40143,9.41743c3.93677,0.74674 7.21025,3.47065 8.66006,7.20613c1.4498,3.73548 0.87099,7.95453 -1.53126,11.16155c2.92357,2.19268 4.64417,5.63387 4.64417,9.28833c-0.00437,4.36174 -2.45297,8.35304 -6.33929,10.33327z" fill="#396041"/><path d="M215.0751,190.33327c1.86658,3.03509 2.21679,6.76523 0.94777,10.09471c-1.26902,3.32948 -4.01318,5.88022 -7.42638,6.90293c-1.23201,-0.41262 -2.39167,-1.01596 -3.43668,-1.788c-1.05145,0.78888 -2.22924,1.39347 -3.48312,1.788c-1.25389,-0.39453 -2.43167,-0.99913 -3.48312,-1.788c-1.06227,0.76002 -2.23775,1.34776 -3.48312,1.74156c-3.4132,-1.02272 -6.15735,-3.57345 -7.42638,-6.90293c-1.26902,-3.32948 -0.91881,-7.05963 0.94777,-10.09471c-3.53992,-1.83556 -5.89022,-5.35928 -6.22488,-9.33273c-0.33466,-3.97345 1.39316,-7.84064 4.5762,-10.24243c-2.40383,-3.22005 -2.97173,-7.45415 -1.50139,-11.19383c1.47034,-3.73968 4.76986,-6.45321 8.72306,-7.17385c0.79478,-4.20425 3.83748,-7.63063 7.9183,-8.9168c4.08082,1.28617 7.12353,4.71255 7.9183,8.9168c3.93677,0.74674 7.21025,3.47065 8.66006,7.20613c1.4498,3.73548 0.87099,7.95453 -1.53126,11.16155c2.92357,2.19268 4.64417,5.63387 4.64417,9.28833c-0.00437,4.36174 -2.45297,8.35304 -6.33929,10.33327z" fill="#4c8056"/><path d="M205.1598,226.44165v-67.3404h4.64417v67.3404z" fill="#7f5b53"/><path d="M237.66896,231.08582v-71.98456h4.64417v71.98456z" fill="#7f5b53"/><path d="M272.5002,226.44165v-67.3404h4.64417v67.3404z" fill="#7f5b53"/><path d="M263.21187,119.62585c0,-5.1298 4.15853,-9.28833 9.28833,-9.28833c5.1298,0 9.28833,4.15853 9.28833,9.28833c0,5.1298 -4.15853,9.28833 -9.28833,9.28833c-5.1298,0 -9.28833,-4.15853 -9.28833,-9.28833z" fill="#b49313"/><path d="M263.21187,119.62585c0,-4.74507 2.59908,-8.59171 5.80521,-8.59171c3.20613,0 5.80521,3.84664 5.80521,8.59171c0,4.74507 -2.59908,8.59171 -5.80521,8.59171c-3.20613,0 -5.80521,-3.84664 -5.80521,-8.59171z" fill="#f0c419"/><path d="M284.11062,133.55835c-2.81351,0.00715 -5.35512,-1.67883 -6.44258,-4.27369c-1.08746,-2.59486 -0.50725,-5.58914 1.47073,-7.59c1.97798,-2.00087 4.96538,-2.61548 7.57258,-1.55795c0.86691,-2.97227 3.59149,-5.0157 6.6876,-5.0157c3.09611,0 5.82069,2.04343 6.6876,5.0157c2.6072,-1.05753 5.5946,-0.44292 7.57258,1.55795c1.97798,2.00087 2.55818,4.99514 1.47073,7.59c-1.08746,2.59486 -3.62907,4.28084 -6.44258,4.27369z" fill="#849eb4"/><path d="M308.67825,130.07522c-1.23687,2.14243 -3.51718,3.46819 -5.99097,3.48312h-18.57666c-2.47379,-0.01493 -4.7541,-1.34069 -5.99097,-3.48312c1.73365,-2.98052 5.38689,-4.24434 8.59171,-2.97227c0.86691,-2.97227 3.59149,-5.0157 6.6876,-5.0157c3.09611,0 5.82069,2.04343 6.6876,5.0157c0.82623,-0.33515 1.70912,-0.50858 2.60073,-0.51086c2.47379,0.01493 4.7541,1.34069 5.99097,3.48312z" fill="#b0d3f0"/><path d="M242.31313,133.55835c-2.81351,0.00715 -5.35512,-1.67883 -6.44258,-4.27369c-1.08746,-2.59486 -0.50725,-5.58914 1.47073,-7.59c1.97798,-2.00087 4.96538,-2.61548 7.57258,-1.55795c0.86691,-2.97227 3.59149,-5.0157 6.6876,-5.0157c3.09611,0 5.82069,2.04343 6.6876,5.0157c2.6072,-1.05753 5.5946,-0.44292 7.57258,1.55795c1.97798,2.00087 2.55818,4.99514 1.47073,7.59c-1.08746,2.59486 -3.62907,4.28084 -6.44258,4.27369z" fill="#849eb4"/><path d="M266.88076,130.07522c-1.23687,2.14243 -3.51718,3.46819 -5.99097,3.48312h-18.57666c-2.47379,-0.01493 -4.7541,-1.34069 -5.99097,-3.48312c1.73365,-2.98052 5.38689,-4.24434 8.59171,-2.97227c0.86691,-2.97227 3.59149,-5.0157 6.6876,-5.0157c3.09611,0 5.82069,2.04343 6.6876,5.0157c0.82623,-0.33515 1.70912,-0.50858 2.60073,-0.51086c2.47379,0.01493 4.7541,1.34069 5.99097,3.48312z" fill="#b0d3f0"/><path d="M170.32856,249.66248v-9.28833h139.32496v9.28833z" fill="#5f443e"/><path d="M170.32856,249.66248v-9.28833h130.03663v9.28833z" fill="#7f5b53"/><path d="M174.97273,240.37415c0,-5.1298 4.15853,-9.28833 9.28833,-9.28833c0.02471,-3.85205 2.42453,-7.28908 6.03224,-8.6394c3.60771,-1.35031 7.67449,-0.33363 10.22234,2.55554c2.88853,-3.37679 7.78578,-4.18973 11.61041,-1.92733c3.82464,-2.2624 8.72188,-1.44946 11.61041,1.92733c2.54785,-2.88917 6.61464,-3.90585 10.22234,-2.55554c3.60771,1.35031 6.00753,4.78735 6.03224,8.6394c0.02471,-3.85205 2.42453,-7.28908 6.03224,-8.6394c3.60771,-1.35031 7.67449,-0.33363 10.22234,2.55554c2.88853,-3.37679 7.78578,-4.18973 11.61041,-1.92733c3.82464,-2.2624 8.72188,-1.44946 11.61041,1.92733c2.54785,-2.88917 6.61464,-3.90585 10.22234,-2.55554c3.60771,1.35031 6.00753,4.78735 6.03224,8.6394c5.1298,0 9.28833,4.15853 9.28833,9.28833" fill="#f0c419"/><path d="M205.84849,176.99892l-13.94024,-13.94024l3.28392,-3.28392l13.94024,13.94024z" fill="#7f5b53"/><path d="M209.11854,193.25854l-3.28392,-3.28392l11.60866,-11.60866l3.28392,3.28392z" fill="#7f5b53"/><path d="M241.62711,177.00572l-3.28392,-3.28392l11.60866,-11.60866l3.28392,3.28392z" fill="#7f5b53"/><path d="M276.45046,177.01361l-3.28392,-3.28392l11.60866,-11.60866l3.28392,3.28392z" fill="#7f5b53"/></g></g></svg>