<svg xmlns="http://www.w3.org/2000/svg" width="119.891" height="144.995" viewBox="0 0 153.46 185.594" xmlns:v="https://vecta.io/nano"><path d="M151.678 13.239a6.05 6.05 0 0 1 1.782 4.309c0 1.637-.622 3.17-1.782 4.309-1.057 1.057-2.445 1.699-3.936 1.782l-12.7 2.569a14.1 14.1 0 0 1-9.365 5.387v34.993c0 10.981-2.88 21.775-8.308 31.243-4.952 8.619-11.913 15.994-20.242 21.423a17.59 17.59 0 0 1-8.888 13.674l-12.327 8.246 6.485 26.416 4.123.021c2.3 0 4.454.912 6.07 2.528a8.57 8.57 0 0 1 2.507 6.091v.787c0 4.744-3.854 8.577-8.598 8.577H75.041c-1.74 0-3.356-.497-4.765-1.367a8.63 8.63 0 0 1-4.641 1.367H54.178a8.91 8.91 0 0 1-8.702-6.858l-10.173-42.12a3.81 3.81 0 0 1-.104-.849c0-1.015.166-2.03.477-3.025.021-.062 2.59-8.287 2.59-8.287-10.649-4.517-19.807-11.851-26.602-21.381C4.04 92.383 0 79.765 0 66.588V52.438c0-1.989 1.616-3.584 3.584-3.584a3.57 3.57 0 0 1 1.409.29c.435.186.808.456 1.14.787l12.928 13.094h78.771V14.71A14.73 14.73 0 0 1 112.541 0c3.501 0 6.796 1.202 9.427 3.419h1.844c4.558 0 8.598 2.155 11.209 5.511l12.7 2.548a6.02 6.02 0 0 1 3.957 1.761z" fill="#633"/><path d="M145.338 17.569l-7.417 1.492.083-1.492c0-.497-.021-.994-.083-1.492z" fill="#fc6"/><path d="M123.854 10.566c3.854 0 7.003 3.149 7.003 7.003a7.01 7.01 0 0 1-7.003 7.003h-1.74c-1.989 0-3.584 1.616-3.584 3.584v25.297h-13.508V14.71a7.58 7.58 0 0 1 7.562-7.562c2.072 0 3.999.829 5.449 2.32.684.704 1.616 1.098 2.59 1.098z" fill="#fff"/><path d="M123.646 13.985a3.57 3.57 0 0 1 3.584 3.584 3.57 3.57 0 0 1-3.584 3.584c-1.989 0-3.584-1.616-3.584-3.584a3.57 3.57 0 0 1 3.584-3.584z" fill="#633"/><path d="M118.529 60.622v5.988c0 9.717-2.548 19.289-7.355 27.68-4.662 8.122-11.374 15-19.372 19.889-.021.021-.041.021-.062.041-4.889 2.983-10.131 5.138-15.642 6.485.186-1.015.228-4.558.145-5.262 10.359-5.449 17.424-16.305 17.424-28.778a3.6 3.6 0 0 0-3.584-3.584c-1.989 0-3.584 1.616-3.584 3.584 0 13.964-11.354 25.338-25.338 25.338-6.07 0-11.954-2.175-16.554-6.153-3.999-3.46-6.816-8.08-8.059-13.156h10.794a3.59 3.59 0 0 0 3.004-1.616c.663-1.015.767-2.279.29-3.398l-2.3-5.304h20.076a3.57 3.57 0 0 0 3.584-3.584 3.6 3.6 0 0 0-3.584-3.584h-22.79c-1.823 0-3.501.912-4.496 2.424s-1.16 3.419-.435 5.097l1.222 2.818h-7.521c-1.575 0-3.066.684-4.081 1.885-1.015 1.181-1.471 2.776-1.222 4.309a32.48 32.48 0 0 0 10.877 19.558c.622.539 1.285 1.057 1.948 1.554l-1.471 4.786c-20.035-8.826-33.253-28.84-33.253-50.967v-5.428l7.852 7.935a3.59 3.59 0 0 0 2.548 1.057h83.847c1.968 0 3.584-1.595 3.584-3.584v-5.988z" fill="#b88d5b"/><path d="M87.949 176.208v.808c0 .787-.642 1.43-1.43 1.43H75.083c-.331 0-.622-.083-.912-.249.062-.394.083-1.968.083-1.968 0-2.362-.953-4.579-2.631-6.195l-8.308-34.372 4.081-2.735c1.927-1.077 3.626-2.528 5.014-4.206a62.28 62.28 0 0 0 15.124-4.309 10.35 10.35 0 0 1-2.859 2.32c-.083.041-14.793 9.862-14.793 9.862-1.243.829-1.844 2.362-1.492 3.833l7.749 31.575a3.57 3.57 0 0 0 3.481 2.735l6.92.021h-.021a1.45 1.45 0 0 1 1.43 1.45zm-18.75-58.093c-.104 1.885-.725 3.667-1.74 5.262-1.761 2.776-9.365 7.148-9.365 7.148-.021 0-.021.021-.041.021l-9.054 6.05c-1.243.829-1.844 2.362-1.492 3.833l7.728 31.575a3.57 3.57 0 0 0 3.481 2.735l6.92.021c.787 0 1.43.642 1.43 1.43 0 0 .062.974-.145 1.43-.186.394-.622.808-1.285.808H54.199c-.829 0-1.554-.559-1.74-1.367L42.41 135.435c.021-.186 5.884-18.978 5.884-18.978 4.04 1.74 8.412 2.673 12.887 2.673 2.776 0 5.449-.352 8.018-1.015z" fill="#fc6"/><path d="M63.688 167.59l-6.713-27.7-1.906 1.285 6.485 26.416z" fill="#fff"/></svg>