<?xml version="1.0" encoding="UTF-8" standalone="no"?>
<!-- Uploaded to: SVG Repo, www.svgrepo.com, Generator: SVG Repo Mixer Tools -->

<svg
   width="140"
   height="133.22102"
   viewBox="0 0 179.2 170.52291"
   class="icon"
   version="1.1"
   id="svg383"
   sodipodi:docname="building-2-svgrepo-com.svg"
   inkscape:version="1.2.2 (732a01da63, 2022-12-09)"
   xmlns:inkscape="http://www.inkscape.org/namespaces/inkscape"
   xmlns:sodipodi="http://sodipodi.sourceforge.net/DTD/sodipodi-0.dtd"
   xmlns="http://www.w3.org/2000/svg"
   xmlns:svg="http://www.w3.org/2000/svg">
  <defs
     id="defs387" />
  <sodipodi:namedview
     id="namedview385"
     pagecolor="#ffffff"
     bordercolor="#000000"
     borderopacity="0.25"
     inkscape:showpageshadow="2"
     inkscape:pageopacity="0.0"
     inkscape:pagecheckerboard="0"
     inkscape:deskcolor="#d1d1d1"
     showgrid="false"
     inkscape:zoom="1.04625"
     inkscape:cx="349.82079"
     inkscape:cy="332.61649"
     inkscape:window-width="1920"
     inkscape:window-height="1017"
     inkscape:window-x="1912"
     inkscape:window-y="-8"
     inkscape:window-maximized="1"
     inkscape:current-layer="svg383" />
  <path
     d="M 139.81319,166.22434 V 6.077965 C 139.81319,2.739083 137.0741,0 133.73522,0 H 45.46478 C 42.1259,0 39.38681,2.739083 39.38681,6.077965 V 166.22434 Z"
     fill="#ff5959"
     id="path323"
     style="stroke-width:0.199933" />
  <path
     d="m 39.38681,144.81151 h 100.42638 v 21.41283 H 39.38681 Z"
     fill="#f2d383"
     id="path325"
     style="stroke-width:0.199933" />
  <path
     d="m 122.27906,129.13676 h 17.53413 v 8.43718 H 122.27906 Z M 39.38681,105.34473 h 17.53413 v 8.43717 H 39.38681 Z M 72.63568,60.9396 h 17.53413 v 8.43717 H 72.63568 Z m 46.10456,-13.59545 h 17.53413 v 8.43717 H 118.74024 Z M 84.75162,40.78634 h 17.53413 v 8.43718 H 84.75162 Z M 45.12489,36.56776 h 17.53413 v 8.43717 H 45.12489 Z M 90.16981,89.0102 h 17.53413 v 8.43717 H 90.16981 Z m -29.41015,51.58273 h 17.53413 v 8.43717 H 60.75966 Z"
     fill=""
     id="path327"
     style="stroke-width:0.199933" />
  <path
     d="m 72.63568,144.81151 h 33.92864 v 21.41283 H 72.63568 Z"
     fill="#a4a9ad"
     id="path329"
     style="stroke-width:0.199933" />
  <path
     d="m 106.56432,144.81151 v -6.47783 c 0,-2.21925 -1.81939,-4.03864 -4.03865,-4.03864 H 76.67433 c -2.21926,0 -4.03865,1.81939 -4.03865,4.03864 v 6.47783 z"
     fill="#ffffff"
     id="path331"
     style="stroke-width:0.199933" />
  <path
     d="m 89.59,45.44478 c -1.57947,0 -2.85904,-1.27957 -2.85904,-2.85904 V 30.58976 c 0,-1.57947 1.27957,-2.85904 2.85904,-2.85904 1.57947,0 2.85905,1.27957 2.85905,2.85904 v 11.99598 c 0.02,1.55948 -1.25958,2.85904 -2.85905,2.85904 z m -30.60975,0 c -1.57947,0 -2.85904,-1.27957 -2.85904,-2.85904 V 30.58976 c 0,-1.57947 1.27957,-2.85904 2.85904,-2.85904 1.57947,0 2.85904,1.27957 2.85904,2.85904 v 11.99598 c 0.02,1.55948 -1.27957,2.85904 -2.85904,2.85904 z m 61.2395,0 c -1.57947,0 -2.85904,-1.27957 -2.85904,-2.85904 V 30.58976 c 0,-1.57947 1.27957,-2.85904 2.85904,-2.85904 1.57947,0 2.85904,1.27957 2.85904,2.85904 v 11.99598 c 0,1.55948 -1.27957,2.85904 -2.85904,2.85904 z"
     fill="#ffb819"
     id="path333"
     style="stroke-width:0.199933" />
  <path
     d="m 39.38681,30.56976 h 100.42638 v 8.63711 H 39.38681 Z"
     fill=""
     id="path335"
     style="stroke-width:0.199933" />
  <path
     d="m 147.01078,32.10925 c 0,1.11962 -0.91969,2.01932 -2.01933,2.01932 H 34.208546 c -1.119625,0 -2.019324,-0.91969 -2.019324,-2.01932 V 20.37318 c 0,-1.11963 0.919692,-2.01933 2.019324,-2.01933 H 144.99145 c 1.11963,0 2.01933,0.9197 2.01933,2.01933 z"
     fill="#f2d383"
     id="path337"
     style="stroke-width:0.199933" />
  <path
     d="m 66.25782,76.01455 c 0,2.21926 -1.8194,4.03865 -4.03865,4.03865 h -6.47783 c -2.21926,0 -4.03865,-1.81939 -4.03865,-4.03865 V 59.81997 c 0,-2.21926 1.81939,-4.03865 4.03865,-4.03865 h 6.47783 c 2.21925,0 4.03865,1.81939 4.03865,4.03865 z"
     fill="#ffffff"
     id="path339"
     style="stroke-width:0.199933" />
  <path
     d="m 62.21917,55.78132 h -6.47783 c -2.21926,0 -4.03865,1.81939 -4.03865,4.03865 v 6.2779 c 0,-2.21926 1.81939,-4.03865 4.03865,-4.03865 h 6.47783 c 2.21925,0 4.03865,1.81939 4.03865,4.03865 v -6.2779 c 0,-2.21926 -1.8194,-4.03865 -4.03865,-4.03865 z"
     fill=""
     id="path341"
     style="stroke-width:0.199933" />
  <path
     d="m 55.74134,58.66036 c -0.63979,0 -1.17961,0.53982 -1.17961,1.1796 v 16.19458 c 0,0.63979 0.53982,1.17961 1.17961,1.17961 h 6.47783 c 0.63978,0 1.1796,-0.53982 1.1796,-1.17961 V 59.83996 c 0,-0.63978 -0.53982,-1.1796 -1.1796,-1.1796 z m 6.47783,24.27187 h -6.47783 c -3.81872,0 -6.91769,-3.09896 -6.91769,-6.91768 V 59.81997 c 0,-3.81872 3.09897,-6.91768 6.91769,-6.91768 h 6.47783 c 3.81872,0 6.91768,3.09896 6.91768,6.91768 v 16.19458 c 0,3.81872 -3.09896,6.91768 -6.91768,6.91768 z"
     fill="#333e48"
     id="path343"
     style="stroke-width:0.199933" />
  <path
     d="m 96.88756,76.01455 c 0,2.21926 -1.81939,4.03865 -4.03865,4.03865 h -6.47783 c -2.21926,0 -4.03865,-1.81939 -4.03865,-4.03865 V 59.81997 c 0,-2.21926 1.81939,-4.03865 4.03865,-4.03865 h 6.47783 c 2.21926,0 4.03865,1.81939 4.03865,4.03865 z"
     fill="#ffffff"
     id="path345"
     style="stroke-width:0.199933" />
  <path
     d="m 92.82892,55.78132 h -6.47783 c -2.21926,0 -4.03865,1.81939 -4.03865,4.03865 v 6.2779 c 0,-2.21926 1.81939,-4.03865 4.03865,-4.03865 h 6.47783 c 2.21926,0 4.03865,1.81939 4.03865,4.03865 v -6.2779 c 0.02,-2.21926 -1.7994,-4.03865 -4.03865,-4.03865 z"
     fill=""
     id="path347"
     style="stroke-width:0.199933" />
  <path
     d="m 86.37108,58.66036 c -0.63978,0 -1.1796,0.53982 -1.1796,1.1796 v 16.19458 c 0,0.63979 0.53982,1.17961 1.1796,1.17961 h 6.47783 c 0.63979,0 1.17961,-0.53982 1.17961,-1.17961 V 59.83996 c 0,-0.63978 -0.53982,-1.1796 -1.17961,-1.1796 z m 6.45784,24.27187 h -6.47783 c -3.81872,0 -6.91769,-3.09896 -6.91769,-6.91768 V 59.81997 c 0,-3.81872 3.09897,-6.91768 6.91769,-6.91768 h 6.47783 c 3.81872,0 6.91768,3.09896 6.91768,6.91768 v 16.19458 c 0,3.81872 -3.09896,6.91768 -6.91768,6.91768 z"
     fill="#333e48"
     id="path349"
     style="stroke-width:0.199933" />
  <path
     d="m 127.49731,76.01455 c 0,2.21926 -1.81939,4.03865 -4.03865,4.03865 h -6.47783 c -2.21925,0 -4.03865,-1.81939 -4.03865,-4.03865 V 59.81997 c 0,-2.21926 1.8194,-4.03865 4.03865,-4.03865 h 6.47783 c 2.21926,0 4.03865,1.81939 4.03865,4.03865 z"
     fill="#ffffff"
     id="path351"
     style="stroke-width:0.199933" />
  <path
     d="m 123.45866,55.78132 h -6.47783 c -2.21925,0 -4.03865,1.81939 -4.03865,4.03865 v 6.2779 c 0,-2.21926 1.8194,-4.03865 4.03865,-4.03865 h 6.47783 c 2.21926,0 4.03865,1.81939 4.03865,4.03865 v -6.2779 c 0,-2.21926 -1.81939,-4.03865 -4.03865,-4.03865 z"
     fill=""
     id="path353"
     style="stroke-width:0.199933" />
  <path
     d="m 116.98083,58.66036 c -0.63978,0 -1.1796,0.53982 -1.1796,1.1796 v 16.19458 c 0,0.63979 0.53982,1.17961 1.1796,1.17961 h 6.47783 c 0.63979,0 1.17961,-0.53982 1.17961,-1.17961 V 59.83996 c 0,-0.63978 -0.53982,-1.1796 -1.17961,-1.1796 z m 6.47783,24.27187 h -6.47783 c -3.81872,0 -6.91768,-3.09896 -6.91768,-6.91768 V 59.81997 c 0,-3.81872 3.09896,-6.91768 6.91768,-6.91768 h 6.47783 c 3.81872,0 6.91769,3.09896 6.91769,6.91768 v 16.19458 c 0,3.81872 -3.11896,6.91768 -6.91769,6.91768 z"
     fill="#333e48"
     id="path355"
     style="stroke-width:0.199933" />
  <path
     d="m 56.12121,0.019993 h 5.73808 v 11.676091 h -5.73808 z m 14.95499,0 h 5.73808 V 11.696084 H 71.0762 Z m 31.30952,0 h 5.73808 v 11.676091 h -5.73808 z m -15.65476,0 h 5.73808 v 11.676091 h -5.73808 z m 30.60975,0 h 5.73808 v 11.676091 h -5.73808 z"
     fill=""
     id="path357"
     style="stroke-width:0.199933" />
  <path
     d="m 66.25782,115.26141 c 0,2.21925 -1.8194,4.03865 -4.03865,4.03865 h -6.47783 c -2.21926,0 -4.03865,-1.8194 -4.03865,-4.03865 V 99.06683 c 0,-2.21926 1.81939,-4.03865 4.03865,-4.03865 h 6.47783 c 2.21925,0 4.03865,1.81939 4.03865,4.03865 z"
     fill="#ffffff"
     id="path359"
     style="stroke-width:0.199933" />
  <path
     d="m 62.21917,95.02818 h -6.47783 c -2.21926,0 -4.03865,1.81939 -4.03865,4.03865 v 6.2779 c 0,-2.21926 1.81939,-4.03865 4.03865,-4.03865 h 6.47783 c 2.21925,0 4.03865,1.81939 4.03865,4.03865 v -6.2779 c 0,-2.19926 -1.8194,-4.03865 -4.03865,-4.03865 z"
     fill=""
     id="path361"
     style="stroke-width:0.199933" />
  <path
     d="m 55.74134,97.90722 c -0.63979,0 -1.17961,0.53982 -1.17961,1.1796 v 16.19458 c 0,0.63979 0.53982,1.17961 1.17961,1.17961 h 6.47783 c 0.63978,0 1.1796,-0.53982 1.1796,-1.17961 V 99.08682 c 0,-0.63978 -0.53982,-1.1796 -1.1796,-1.1796 z m 6.47783,24.27187 h -6.47783 c -3.81872,0 -6.91769,-3.09896 -6.91769,-6.91768 V 99.06683 c 0,-3.81872 3.09897,-6.91768 6.91769,-6.91768 h 6.47783 c 3.81872,0 6.91768,3.09896 6.91768,6.91768 v 16.19458 c 0,3.81872 -3.09896,6.91768 -6.91768,6.91768 z"
     fill="#333e48"
     id="path363"
     style="stroke-width:0.199933" />
  <path
     d="m 96.88756,115.26141 c 0,2.21925 -1.81939,4.03865 -4.03865,4.03865 h -6.47783 c -2.21926,0 -4.03865,-1.8194 -4.03865,-4.03865 V 99.06683 c 0,-2.21926 1.81939,-4.03865 4.03865,-4.03865 h 6.47783 c 2.21926,0 4.03865,1.81939 4.03865,4.03865 z"
     fill="#ffffff"
     id="path365"
     style="stroke-width:0.199933" />
  <path
     d="m 92.82892,95.02818 h -6.47783 c -2.21926,0 -4.03865,1.81939 -4.03865,4.03865 v 6.2779 c 0,-2.21926 1.81939,-4.03865 4.03865,-4.03865 h 6.47783 c 2.21926,0 4.03865,1.81939 4.03865,4.03865 v -6.2779 c 0.02,-2.19926 -1.7994,-4.03865 -4.03865,-4.03865 z"
     fill=""
     id="path367"
     style="stroke-width:0.199933" />
  <path
     d="m 86.37108,97.90722 c -0.63978,0 -1.1796,0.53982 -1.1796,1.1796 v 16.19458 c 0,0.63979 0.53982,1.17961 1.1796,1.17961 h 6.47783 c 0.63979,0 1.17961,-0.53982 1.17961,-1.17961 V 99.08682 c 0,-0.63978 -0.53982,-1.1796 -1.17961,-1.1796 z m 6.45784,24.27187 h -6.47783 c -3.81872,0 -6.91769,-3.09896 -6.91769,-6.91768 V 99.06683 c 0,-3.81872 3.09897,-6.91768 6.91769,-6.91768 h 6.47783 c 3.81872,0 6.91768,3.09896 6.91768,6.91768 v 16.19458 c 0,3.81872 -3.09896,6.91768 -6.91768,6.91768 z"
     fill="#333e48"
     id="path369"
     style="stroke-width:0.199933" />
  <path
     d="m 127.49731,115.26141 c 0,2.21925 -1.81939,4.03865 -4.03865,4.03865 h -6.47783 c -2.21925,0 -4.03865,-1.8194 -4.03865,-4.03865 V 99.06683 c 0,-2.21926 1.8194,-4.03865 4.03865,-4.03865 h 6.47783 c 2.21926,0 4.03865,1.81939 4.03865,4.03865 z"
     fill="#ffffff"
     id="path371"
     style="stroke-width:0.199933" />
  <path
     d="m 123.45866,95.02818 h -6.47783 c -2.21925,0 -4.03865,1.81939 -4.03865,4.03865 v 6.2779 c 0,-2.21926 1.8194,-4.03865 4.03865,-4.03865 h 6.47783 c 2.21926,0 4.03865,1.81939 4.03865,4.03865 v -6.2779 c 0,-2.19926 -1.81939,-4.03865 -4.03865,-4.03865 z"
     fill=""
     id="path373"
     style="stroke-width:0.199933" />
  <path
     d="m 116.98083,97.90722 c -0.63978,0 -1.1796,0.53982 -1.1796,1.1796 v 16.19458 c 0,0.63979 0.53982,1.17961 1.1796,1.17961 h 6.47783 c 0.63979,0 1.17961,-0.53982 1.17961,-1.17961 V 99.08682 c 0,-0.63978 -0.53982,-1.1796 -1.17961,-1.1796 z m 6.47783,24.27187 h -6.47783 c -3.81872,0 -6.91768,-3.09896 -6.91768,-6.91768 V 99.06683 c 0,-3.81872 3.09896,-6.91768 6.91768,-6.91768 h 6.47783 c 3.81872,0 6.91769,3.09896 6.91769,6.91768 v 16.19458 c 0,3.81872 -3.11896,6.91768 -6.91769,6.91768 z"
     fill="#333e48"
     id="path375"
     style="stroke-width:0.199933" />
  <path
     d="m 179.2,168.98342 c 0,0.83972 -0.69977,1.53949 -1.53948,1.53949 H 1.539485 C 0.699766,170.52291 0,169.82314 0,168.98342 v -5.51815 c 0,-0.85971 0.699766,-1.53949 1.539485,-1.53949 H 177.64052 c 0.85971,0 1.53949,0.69977 1.53949,1.53949 v 5.51815 z"
     fill="#a4a9ad"
     id="path377"
     style="stroke-width:0.199933" />
  <path
     d="m 34.22854,161.90579 h 110.74292 v 8.61712 H 34.22854 Z"
     fill="#333e48"
     id="path379"
     style="stroke-width:0.199933" />
  <path
     d="m 45.48477,161.90579 c 0,-7.97733 -6.45784,-14.43517 -14.435166,-14.43517 -7.977329,0 -14.435167,6.45784 -14.435167,14.43517 z m 88.23046,0 c 0,-7.97733 6.45784,-14.43517 14.43517,-14.43517 7.97733,0 14.43516,6.45784 14.43516,14.43517 z"
     fill="#00ad68"
     id="path381"
     style="stroke-width:0.199933" />
</svg>
