<svg width="140" height="140" viewBox="0 0 11.2 11.2" version="1.1" id="prefix__svg784" xmlns="http://www.w3.org/2000/svg"><defs id="prefix__defs711"><style id="style709">.prefix__cls-1{fill:#5f443e}.prefix__cls-2{fill:#7f5b53}.prefix__cls-6{fill:#559264}.prefix__cls-7{fill:#71c285}.prefix__cls-8{fill:#b0d3f0}.prefix__cls-9{fill:#849eb4}.prefix__cls-10{fill:#98856e}.prefix__cls-11{fill:#cbb292}.prefix__cls-12{fill:#b5b5b5}</style></defs><g data-name="Layer 7" id="prefix__Layer_7" transform="matrix(.18667 0 0 .18667 -.373 -.373)"><path class="prefix__cls-1" id="prefix__polygon715" d="M62 22H2L32 4z"/><path class="prefix__cls-2" id="prefix__polygon717" d="M2 22h55L29.5 5.5z"/><circle cx="47" cy="10" r="8" id="prefix__circle719" fill="#b49313"/><ellipse cx="45.5" cy="10" rx="6.5" ry="7.85" id="prefix__ellipse721" fill="#f0c419"/><path id="prefix__rect723" fill="#f2f2f2" d="M10 26h44v28H10z"/><path class="prefix__cls-6" id="prefix__rect725" d="M24 30h16v4H24z"/><path class="prefix__cls-7" id="prefix__rect727" d="M24 30h13v4H24z"/><path class="prefix__cls-8" id="prefix__rect729" d="M14 34h6v6h-6z"/><path class="prefix__cls-9" id="prefix__rect731" d="M14 40h6v6h-6z"/><path class="prefix__cls-8" id="prefix__rect733" d="M44 40h6v6h-6z"/><path class="prefix__cls-9" id="prefix__rect735" d="M44 34h6v6h-6z"/><path class="prefix__cls-10" d="M24 54v-8a8 8 0 018-8 8 8 0 018 8v8" id="prefix__path737"/><path class="prefix__cls-11" d="M30.5 38.15A8 8 0 0024 46v8h13v-8a8 8 0 00-6.5-7.85z" id="prefix__path739"/><path class="prefix__cls-10" id="prefix__rect741" d="M2 54h60v8H2z"/><path class="prefix__cls-11" id="prefix__rect743" d="M2 54h57v8H2z"/><path class="prefix__cls-7" id="prefix__rect745" d="M18 58h28v4H18z"/><path class="prefix__cls-6" id="prefix__rect747" d="M20 54h24v4H20z"/><path class="prefix__cls-10" id="prefix__rect749" d="M54 30h4v20h-4z"/><path class="prefix__cls-11" id="prefix__rect751" d="M54 30h2v20h-2z"/><path class="prefix__cls-10" id="prefix__rect753" d="M6 30h4v20H6z"/><path class="prefix__cls-11" id="prefix__rect755" d="M6 30h2v20H6z"/><path class="prefix__cls-1" id="prefix__polyline757" d="M52 26v4h8v-4"/><path class="prefix__cls-2" id="prefix__rect759" d="M52 26h5v4h-5z"/><path class="prefix__cls-1" id="prefix__polyline761" d="M52 50v4h8v-4"/><path class="prefix__cls-2" id="prefix__rect763" d="M52 50h5v4h-5z"/><path class="prefix__cls-1" id="prefix__polyline765" d="M4 50v4h8v-4"/><path class="prefix__cls-2" id="prefix__rect767" d="M4 50h5v4H4z"/><path class="prefix__cls-1" id="prefix__polyline769" d="M4 26v4h8v-4"/><path class="prefix__cls-2" id="prefix__rect771" d="M4 26h5v4H4z"/><path class="prefix__cls-10" id="prefix__rect773" d="M2 22h60v4H2z"/><path class="prefix__cls-11" id="prefix__rect775" d="M2 22h57v4H2z"/><path class="prefix__cls-12" d="M47 15h-3v-2h3a1 1 0 000-2 3 3 0 010-6h3v2h-3a1 1 0 000 2 3 3 0 010 6z" id="prefix__path777"/><path class="prefix__cls-12" d="M48 2.07a7.18 7.18 0 00-2 0V6h2z" id="prefix__path779"/><path class="prefix__cls-12" d="M46 17.93a7.18 7.18 0 002 0V14h-2z" id="prefix__path781"/></g></svg>