<svg version="1.1" xmlns="http://www.w3.org/2000/svg" xmlns:xlink="http://www.w3.org/1999/xlink" width="140" height="140" viewBox="0,0,140,140"><g transform="translate(-171.04557,-106.17215)"><g data-paper-data="{&quot;isPaintingLayer&quot;:true}" fill-rule="nonzero" stroke="none" stroke-width="1" stroke-linecap="butt" stroke-linejoin="miter" stroke-miterlimit="10" stroke-dasharray="" stroke-dashoffset="0" style="mix-blend-mode: normal"><path d="M311.04557,152.83882h-140l70,-42z" fill="#5f443e"/><path d="M235.21224,114.33882l64.16667,38.5h-128.33334z" fill="#7f5b53"/><path d="M257.3789,124.83882c0,-10.30932 8.35735,-18.66667 18.66667,-18.66667c10.30932,0 18.66667,8.35735 18.66667,18.66667c0,10.30932 -8.35735,18.66667 -18.66667,18.66667c-10.30932,0 -18.66667,-8.35735 -18.66667,-18.66667z" fill="#b49313"/><path d="M257.3789,124.83882c0,-10.11602 6.79035,-18.31667 15.16667,-18.31667c8.37632,0 15.16667,8.20065 15.16667,18.31667c0,10.11602 -6.79035,18.31667 -15.16667,18.31667c-8.37632,0 -15.16667,-8.20065 -15.16667,-18.31667z" fill="#f0c419"/><path d="M189.71224,227.50549v-65.33333h102.66667v65.33333z" fill="#f2f2f2"/><path d="M222.3789,180.83882v-9.33333h37.33333v9.33333z" fill="#559264"/><path d="M222.3789,180.83882v-9.33333h30.33333v9.33333z" fill="#71c285"/><path d="M199.04557,194.83882v-14h14v14z" fill="#b0d3f0"/><path d="M199.04557,208.83882v-14h14v14z" fill="#849eb4"/><path d="M269.04557,208.83882v-14h14v14z" fill="#b0d3f0"/><path d="M269.04557,194.83882v-14h14v14z" fill="#849eb4"/><path d="M222.3789,227.50549v-18.66667c0,-10.30932 8.35735,-18.66667 18.66667,-18.66667v0c10.30932,0 18.66667,8.35735 18.66667,18.66667v18.66667" fill="#98856e"/><path d="M252.71224,208.83882v18.66667h-30.33333v-18.66667c0.00908,-8.95257 6.37287,-16.63806 15.16667,-18.31667c8.7938,1.6786 15.15758,9.3641 15.16667,18.31667z" fill="#cbb292"/><path d="M171.04557,246.17215v-18.66667h140v18.66667z" fill="#98856e"/><path d="M171.04557,246.17215v-18.66667h133v18.66667z" fill="#cbb292"/><path d="M208.3789,246.17215v-9.33333h65.33333v9.33333z" fill="#71c285"/><path d="M213.04557,236.83882v-9.33333h56v9.33333z" fill="#559264"/><path d="M292.3789,218.17215v-46.66667h9.33333v46.66667z" fill="#98856e"/><path d="M292.3789,218.17215v-46.66667h4.66667v46.66667z" fill="#cbb292"/><path d="M180.3789,218.17215v-46.66667h9.33333v46.66667z" fill="#98856e"/><path d="M180.3789,218.17215v-46.66667h4.66667v46.66667z" fill="#cbb292"/><path d="M306.3789,162.17215v9.33333h-18.66667v-9.33333" fill="#5f443e"/><path d="M287.71224,171.50548v-9.33333h11.66667v9.33333z" fill="#7f5b53"/><path d="M306.3789,218.17215v9.33333h-18.66667v-9.33333" fill="#5f443e"/><path d="M287.71224,227.50549v-9.33333h11.66667v9.33333z" fill="#7f5b53"/><path d="M194.3789,218.17215v9.33333h-18.66667v-9.33333" fill="#5f443e"/><path d="M175.71224,227.50549v-9.33333h11.66667v9.33333z" fill="#7f5b53"/><path d="M194.3789,162.17215v9.33333h-18.66667v-9.33333" fill="#5f443e"/><path d="M175.71224,171.50548v-9.33333h11.66667v9.33333z" fill="#7f5b53"/><path d="M171.04557,162.17215v-9.33333h140v9.33333z" fill="#98856e"/><path d="M171.04557,162.17215v-9.33333h133v9.33333z" fill="#cbb292"/><path d="M276.04557,136.50548h-7v-4.66667h7c1.28866,0 2.33333,-1.04467 2.33333,-2.33333c0,-1.28866 -1.04467,-2.33333 -2.33333,-2.33333c-3.86599,0 -7,-3.13401 -7,-7c0,-3.86599 3.13401,-7 7,-7h7v4.66667h-7c-1.28866,0 -2.33333,1.04467 -2.33333,2.33333c0,1.28866 1.04467,2.33333 2.33333,2.33333c3.86599,0 7,3.13401 7,7c0,3.86599 -3.13401,7 -7,7z" fill="#b5b5b5"/><path d="M278.3789,115.50548h-4.66667v-9.17c1.54794,-0.21771 3.11873,-0.21771 4.66667,0z" fill="#b5b5b5"/><path d="M273.71224,134.17215h4.66667v9.17c-1.54794,0.21771 -3.11873,0.21771 -4.66667,0z" fill="#b5b5b5"/></g></g></svg>