<svg width="140" height="115.97" viewBox="0 0 179.2 148.441" class="prefix__icon" xmlns="http://www.w3.org/2000/svg"><path d="M90.192 10.788a3.842 3.842 0 00-3.83-3.83H39.04a3.842 3.842 0 00-3.83 3.83v13.655a3.842 3.842 0 003.83 3.83h47.322a3.842 3.842 0 003.83-3.83z" fill="#a4a9ad"/><path d="M35.21 16.583h54.961v3.408h-54.96z"/><path d="M15.74 28.273h98.714V144.13H15.74z" fill="#ffb819"/><path d="M15.74 81.349h20.172v9.705H15.74zm70.401 24.864h20.172v9.705H86.14zm-25.104-69.66h20.171v9.706H61.037zM76.055 69.9h20.172v9.705H76.055zM24.102 43.993h20.172v9.705H24.102zm-1.163 83.334H43.11v9.705H22.939zm13.515-28.032h20.171V109H36.454z"/><path d="M80.045 101.28c0-9.585-7.76-17.345-17.344-17.345-9.585 0-17.345 7.76-17.345 17.345v30.057h34.69z" fill="#333e48"/><path d="M40.524 139.819v-6.557c0-1.043.862-1.905 1.905-1.905h40.524c1.043 0 1.905.862 1.905 1.905v6.557z" fill="#f2d383"/><path d="M71.123 101.28a8.42 8.42 0 00-8.422-8.422 8.42 8.42 0 00-8.422 8.422zm24.783-44.193a1.917 1.917 0 00-1.905-1.905h-62.6a1.917 1.917 0 00-1.905 1.905v12.371c0 1.043.862 1.905 1.905 1.905h62.58a1.917 1.917 0 001.905-1.905z" fill="#fff"/><path d="M94.001 55.182h-62.6a1.917 1.917 0 00-1.905 1.905v5.594c0-1.043.862-1.905 1.905-1.905h62.58c1.043 0 1.905.862 1.905 1.905v-5.594c.02-1.043-.842-1.905-1.885-1.905z"/><path d="M59.834 55.182h5.734v16.201h-5.734z" fill="#333e48"/><path d="M32.363 68.516H93.04V58.049H32.363zm61.638 5.735h-62.6a4.784 4.784 0 01-4.773-4.773V57.087a4.784 4.784 0 014.773-4.773h62.58a4.784 4.784 0 014.773 4.773v12.371A4.758 4.758 0 0194 74.251z" fill="#d68231"/><path d="M15.74 28.273h98.714v13.795H15.74z"/><path d="M114.454 23.821a3.842 3.842 0 00-3.83-3.83H14.778a3.842 3.842 0 00-3.83 3.83v8.923a3.842 3.842 0 003.83 3.83h95.846a3.842 3.842 0 003.83-3.83z" fill="#d68231"/><path d="M100.759 19.991h13.675V144.13h-13.675z"/><path d="M106.313 13.455h58.65V144.11h-58.65z" fill="#f2d383"/><path d="M106.313 81.229h20.172v9.704h-20.172zm34.027 41.245h20.172v9.705H140.34zm4.472-68.074h20.172v9.705h-20.172zm-34.168-19.57h20.172v9.704h-20.172zm27.912-18.247h20.171v9.704h-20.171z"/><path d="M106.313 13.455h58.65v8.782h-58.65z"/><path d="M148.04 41.025c0-6.837-5.554-12.392-12.392-12.392-6.837 0-12.392 5.555-12.392 12.392v28.032h24.804z" fill="#fff"/><path d="M135.648 28.634c-6.837 0-12.392 5.554-12.392 12.391v5.294c0-6.838 5.555-12.392 12.392-12.392 6.838 0 12.392 5.554 12.392 12.392v-5.294c0-6.837-5.554-12.391-12.392-12.391z"/><path d="M123.256 41.025h24.804v6.176h-24.804z"/><path d="M123.256 52.174h24.804v5.735h-24.804z" fill="#333e48"/><path d="M145.173 66.19h-19.07V43.893h19.07zm-9.525-34.69c4.251 0 7.86 2.808 9.084 6.658h-18.187c1.243-3.85 4.852-6.657 9.103-6.657zm0-5.734c-8.421 0-15.259 6.858-15.259 15.26v28.031a2.867 2.867 0 002.867 2.868h24.804a2.867 2.867 0 002.867-2.868V41.025c-.02-8.421-6.857-15.259-15.279-15.259z" fill="#d68231"/><path d="M148.04 96.327c0-6.837-5.554-12.392-12.392-12.392-6.837 0-12.392 5.555-12.392 12.392v28.032h24.804z" fill="#fff"/><path d="M135.648 83.935c-6.837 0-12.392 5.555-12.392 12.392v5.294c0-6.838 5.555-12.392 12.392-12.392 6.838 0 12.392 5.554 12.392 12.392v-5.294c0-6.837-5.554-12.392-12.392-12.392z"/><path d="M123.256 96.327h24.804v6.176h-24.804z"/><path d="M123.256 107.476h24.804v5.735h-24.804z" fill="#333e48"/><path d="M145.173 121.492h-19.07V99.195h19.07zm-9.525-34.69c4.251 0 7.86 2.808 9.084 6.658h-18.187c1.243-3.85 4.852-6.657 9.103-6.657zm0-5.734c-8.421 0-15.259 6.838-15.259 15.26v28.031a2.867 2.867 0 002.867 2.868h24.804a2.867 2.867 0 002.867-2.868V96.327c-.02-8.401-6.857-15.259-15.279-15.259z" fill="#d68231"/><path d="M179.2 146.877c0 .842-.702 1.544-1.544 1.544H1.544A1.558 1.558 0 010 146.877v-5.534c0-.842.702-1.544 1.544-1.544h176.112c.842 0 1.544.702 1.544 1.544z" fill="#a4a9ad"/><path d="M169.375 3.83a3.842 3.842 0 00-3.83-3.83h-59.814a3.842 3.842 0 00-3.83 3.83v8.923a3.842 3.842 0 003.83 3.83h59.814a3.842 3.842 0 003.83-3.83z" fill="#d68231"/><path d="M177.656 139.819H98.012v8.622h79.644c.842 0 1.544-.702 1.544-1.544v-5.534c0-.862-.702-1.544-1.544-1.544z" fill="#d1d3d3"/></svg>