<?xml version="1.0" encoding="UTF-8" standalone="no"?>
<!-- Uploaded to: SVG Repo, www.svgrepo.com, Generator: SVG Repo Mixer Tools -->

<svg
   width="140"
   height="115.96956"
   viewBox="0 0 179.2 148.44104"
   class="icon"
   version="1.1"
   id="svg543"
   sodipodi:docname="building-svgrepo-com.svg"
   inkscape:version="1.2.2 (732a01da63, 2022-12-09)"
   xmlns:inkscape="http://www.inkscape.org/namespaces/inkscape"
   xmlns:sodipodi="http://sodipodi.sourceforge.net/DTD/sodipodi-0.dtd"
   xmlns="http://www.w3.org/2000/svg"
   xmlns:svg="http://www.w3.org/2000/svg">
  <defs
     id="defs547" />
  <sodipodi:namedview
     id="namedview545"
     pagecolor="#ffffff"
     bordercolor="#000000"
     borderopacity="0.25"
     inkscape:showpageshadow="2"
     inkscape:pageopacity="0.0"
     inkscape:pagecheckerboard="0"
     inkscape:deskcolor="#d1d1d1"
     showgrid="false"
     inkscape:zoom="1.04625"
     inkscape:cx="348.86499"
     inkscape:cy="288.64994"
     inkscape:window-width="1920"
     inkscape:window-height="1017"
     inkscape:window-x="1912"
     inkscape:window-y="-8"
     inkscape:window-maximized="1"
     inkscape:current-layer="svg543" />
  <path
     d="m 90.19152,10.78769 c 0,-2.1054 -1.72443,-3.82983 -3.82983,-3.82983 H 39.04021 c -2.1054,0 -3.82983,1.72443 -3.82983,3.82983 v 13.65505 c 0,2.10541 1.72443,3.82983 3.82983,3.82983 h 47.32148 c 2.1054,0 3.82983,-1.72442 3.82983,-3.82983 z"
     fill="#a4a9ad"
     id="path485"
     style="stroke-width:0.200515" />
  <path
     d="m 35.21038,16.58257 h 54.96109 v 3.40875 H 35.21038 Z"
     fill=""
     id="path487"
     style="stroke-width:0.200515" />
  <path
     d="M 15.740405,28.27257 H 114.4538 V 144.12998 H 15.740405 Z"
     fill="#ffb819"
     id="path489"
     style="stroke-width:0.200515" />
  <path
     d="M 15.740405,81.34882 H 35.91219 v 9.70491 H 15.740405 Z m 70.400715,24.86382 h 20.17178 v 9.70492 H 86.14112 Z M 61.03668,36.55383 h 20.17178 v 9.70491 H 61.03668 Z m 15.01855,33.3456 h 20.17178 v 9.70491 H 76.05523 Z M 24.101869,43.99293 H 44.27365 v 9.70491 H 24.101869 Z m -1.162986,83.33391 H 43.11066 v 9.70492 H 22.938883 Z M 36.45358,99.29489 h 20.17178 v 9.70491 H 36.45358 Z"
     fill=""
     id="path491"
     style="stroke-width:0.200515" />
  <path
     d="m 80.04547,101.27998 c 0,-9.5846 -7.75992,-17.34452 -17.34452,-17.34452 -9.5846,0 -17.34452,7.75992 -17.34452,17.34452 v 30.05716 h 34.68904 z"
     fill="#333e48"
     id="path493"
     style="stroke-width:0.200515" />
  <path
     d="m 40.52402,139.81891 v -6.55683 c 0,-1.04268 0.86222,-1.90489 1.90489,-1.90489 h 40.52403 c 1.04267,0 1.90489,0.86221 1.90489,1.90489 v 6.55683 z"
     fill="#f2d383"
     id="path495"
     style="stroke-width:0.200515" />
  <path
     d="m 71.12257,101.27998 c 0,-4.65194 -3.76968,-8.42162 -8.42162,-8.42162 -4.65194,0 -8.42162,3.76968 -8.42162,8.42162 z M 95.90619,57.08654 c 0,-1.04268 -0.86222,-1.90489 -1.90489,-1.90489 H 31.400604 c -1.042676,0 -1.90489,0.86221 -1.90489,1.90489 V 69.4583 c 0,1.04267 0.862214,1.90489 1.90489,1.90489 H 93.98125 c 1.04267,0 1.90489,-0.86222 1.90489,-1.90489 z"
     fill="#ffffff"
     id="path497"
     style="stroke-width:0.200515" />
  <path
     d="M 94.0013,55.18165 H 31.400604 c -1.042676,0 -1.90489,0.86221 -1.90489,1.90489 v 5.59436 c 0,-1.04268 0.862214,-1.90489 1.90489,-1.90489 H 93.98125 c 1.04267,0 1.90489,0.86221 1.90489,1.90489 v -5.59436 c 0.02,-1.04268 -0.84217,-1.90489 -1.88484,-1.90489 z"
     fill=""
     id="path499"
     style="stroke-width:0.200515" />
  <path
     d="m 59.83359,55.18165 h 5.73472 v 16.20159 h -5.73472 z"
     fill="#333e48"
     id="path501"
     style="stroke-width:0.200515" />
  <path
     d="M 32.363075,68.51588 H 93.03883 V 58.04901 H 32.363075 Z M 94.0013,74.2506 H 31.400604 c -2.626743,0 -4.77225,-2.14551 -4.77225,-4.77225 V 57.08654 c 0,-2.62674 2.145507,-4.77225 4.77225,-4.77225 H 93.98125 c 2.62674,0 4.77225,2.14551 4.77225,4.77225 V 69.4583 c 0.02,2.64679 -2.12546,4.7923 -4.7522,4.7923 z"
     fill="#d68231"
     id="path503"
     style="stroke-width:0.200515" />
  <path
     d="M 15.740405,28.27257 H 114.4538 V 42.06799 H 15.740405 Z"
     fill=""
     id="path505"
     style="stroke-width:0.200515" />
  <path
     d="m 114.4538,23.82115 c 0,-2.10541 -1.72443,-3.82983 -3.82983,-3.82983 H 14.777934 c -2.105404,0 -3.829831,1.72442 -3.829831,3.82983 v 8.9229 c 0,2.10541 1.724427,3.82983 3.829831,3.82983 h 95.846036 c 2.1054,0 3.82983,-1.72442 3.82983,-3.82983 z"
     fill="#d68231"
     id="path507"
     style="stroke-width:0.200515" />
  <path
     d="m 100.75864,19.99132 h 13.67511 v 124.13866 h -13.67511 z"
     fill=""
     id="path509"
     style="stroke-width:0.200515" />
  <path
     d="m 106.3129,13.45454 h 58.65056 V 144.10993 H 106.3129 Z"
     fill="#f2d383"
     id="path511"
     style="stroke-width:0.200515" />
  <path
     d="m 106.3129,81.22851 h 20.17178 v 9.70491 H 106.3129 Z m 34.02735,41.24588 h 20.17178 v 9.70491 h -20.17178 z m 4.47148,-68.07475 h 20.17178 v 9.70491 H 144.81173 Z M 110.64402,34.82941 h 20.17178 v 9.70491 h -20.17178 z m 27.91165,-18.24684 h 20.17178 v 9.70491 h -20.17178 z"
     fill=""
     id="path513"
     style="stroke-width:0.200515" />
  <path
     d="m 106.3129,13.45454 h 58.65056 v 8.78254 H 106.3129 Z"
     fill=""
     id="path515"
     style="stroke-width:0.200515" />
  <path
     d="m 148.04001,41.02531 c 0,-6.83755 -5.55425,-12.39181 -12.39181,-12.39181 -6.83755,0 -12.39181,5.55426 -12.39181,12.39181 v 28.03196 h 24.80367 z"
     fill="#ffffff"
     id="path517"
     style="stroke-width:0.200515" />
  <path
     d="m 135.6482,28.6335 c -6.83755,0 -12.39181,5.55426 -12.39181,12.39181 v 5.29359 c 0,-6.83755 5.55426,-12.39181 12.39181,-12.39181 6.83756,0 12.39181,5.55426 12.39181,12.39181 v -5.29359 c 0,-6.83755 -5.55425,-12.39181 -12.39181,-12.39181 z"
     fill=""
     id="path519"
     style="stroke-width:0.200515" />
  <path
     d="m 123.25639,41.02531 h 24.80367 v 6.17585 h -24.80367 z"
     fill=""
     id="path521"
     style="stroke-width:0.200515" />
  <path
     d="m 123.25639,52.17393 h 24.80367 v 5.73472 h -24.80367 z"
     fill="#333e48"
     id="path523"
     style="stroke-width:0.200515" />
  <path
     d="M 145.17265,66.18991 H 126.1037 V 43.89267 h 19.06895 z M 135.6482,31.50086 c 4.25092,0 7.86018,2.80721 9.08332,6.65709 h -18.18668 c 1.24319,-3.84988 4.85245,-6.65709 9.10336,-6.65709 z m 0,-5.73472 c -8.42161,0 -15.25917,6.8576 -15.25917,15.25917 v 28.03196 c 0,1.58406 1.2833,2.86736 2.86736,2.86736 h 24.80367 c 1.58407,0 2.86737,-1.2833 2.86737,-2.86736 V 41.02531 c -0.0201,-8.42162 -6.85761,-15.25917 -15.27923,-15.25917 z"
     fill="#d68231"
     id="path525"
     style="stroke-width:0.200515" />
  <path
     d="m 148.04001,96.32727 c 0,-6.83755 -5.55425,-12.39181 -12.39181,-12.39181 -6.83755,0 -12.39181,5.55426 -12.39181,12.39181 v 28.03196 h 24.80367 z"
     fill="#ffffff"
     id="path527"
     style="stroke-width:0.200515" />
  <path
     d="m 135.6482,83.93546 c -6.83755,0 -12.39181,5.55426 -12.39181,12.39181 v 5.29359 c 0,-6.83755 5.55426,-12.39181 12.39181,-12.39181 6.83756,0 12.39181,5.55426 12.39181,12.39181 v -5.29359 c 0,-6.83755 -5.55425,-12.39181 -12.39181,-12.39181 z"
     fill=""
     id="path529"
     style="stroke-width:0.200515" />
  <path
     d="m 123.25639,96.32727 h 24.80367 v 6.17585 h -24.80367 z"
     fill=""
     id="path531"
     style="stroke-width:0.200515" />
  <path
     d="m 123.25639,107.47589 h 24.80367 v 5.73472 h -24.80367 z"
     fill="#333e48"
     id="path533"
     style="stroke-width:0.200515" />
  <path
     d="M 145.17265,121.49187 H 126.1037 V 99.19463 h 19.06895 z M 135.6482,86.80282 c 4.25092,0 7.86018,2.80721 9.08332,6.65709 h -18.18668 c 1.24319,-3.84988 4.85245,-6.65709 9.10336,-6.65709 z m 0,-5.73472 c -8.42161,0 -15.25917,6.83755 -15.25917,15.25917 v 28.03196 c 0,1.58406 1.2833,2.86736 2.86736,2.86736 h 24.80367 c 1.58407,0 2.86737,-1.2833 2.86737,-2.86736 V 96.32727 C 150.90733,87.9257 144.06982,81.0681 135.6482,81.0681 Z"
     fill="#d68231"
     id="path535"
     style="stroke-width:0.200515" />
  <path
     d="m 179.2,146.87703 c 0,0.84216 -0.7018,1.54396 -1.54396,1.54396 H 1.543963 C 0.701801,148.42099 0,147.71919 0,146.87703 v -5.53421 c 0,-0.84216 0.701801,-1.54396 1.543963,-1.54396 H 177.65604 c 0.84216,0 1.54396,0.7018 1.54396,1.54396 z"
     fill="#a4a9ad"
     id="path537"
     style="stroke-width:0.200515" />
  <path
     d="M 169.37478,3.82983 C 169.37478,1.72443 167.65035,0 165.54495,0 h -59.81354 c -2.10541,0 -3.82983,1.72443 -3.82983,3.82983 v 8.92291 c 0,2.1054 1.72442,3.82983 3.82983,3.82983 h 59.81354 c 2.1054,0 3.82983,-1.72443 3.82983,-3.82983 z"
     fill="#d68231"
     id="path539"
     style="stroke-width:0.200515" />
  <path
     d="M 177.65604,139.81891 H 98.01159 v 8.62213 h 79.64445 c 0.84216,0 1.54396,-0.7018 1.54396,-1.54396 v -5.53421 c 0,-0.86221 -0.7018,-1.54396 -1.54396,-1.54396 z"
     fill="#d1d3d3"
     id="path541"
     style="stroke-width:0.200515" />
</svg>
