<?xml version="1.0" encoding="UTF-8" standalone="no"?>
<!-- Uploaded to: SVG Repo, www.svgrepo.com, Generator: SVG Repo Mixer Tools -->

<svg
   width="140"
   height="131.71404"
   viewBox="0 0 179.2 168.59396"
   class="icon"
   version="1.1"
   id="svg1470"
   sodipodi:docname="nuclear-power-plant-svgrepo-com.svg"
   inkscape:version="1.2.2 (732a01da63, 2022-12-09)"
   xmlns:inkscape="http://www.inkscape.org/namespaces/inkscape"
   xmlns:sodipodi="http://sodipodi.sourceforge.net/DTD/sodipodi-0.dtd"
   xmlns="http://www.w3.org/2000/svg"
   xmlns:svg="http://www.w3.org/2000/svg">
  <defs
     id="defs1474" />
  <sodipodi:namedview
     id="namedview1472"
     pagecolor="#ffffff"
     bordercolor="#000000"
     borderopacity="0.25"
     inkscape:showpageshadow="2"
     inkscape:pageopacity="0.0"
     inkscape:pagecheckerboard="0"
     inkscape:deskcolor="#d1d1d1"
     showgrid="false"
     inkscape:zoom="1.04625"
     inkscape:cx="348.86499"
     inkscape:cy="328.79331"
     inkscape:window-width="1920"
     inkscape:window-height="1017"
     inkscape:window-x="1912"
     inkscape:window-y="-8"
     inkscape:window-maximized="1"
     inkscape:current-layer="svg1470" />
  <path
     d="M 169.35583,159.97279 V 129.9591 c 0,-1.26311 -1.02251,-2.28562 -2.28561,-2.28562 H 155.36147 V 96.57713 c 0,-1.2631 -1.02251,-2.28561 -2.28561,-2.28561 h -16.15968 c -1.2631,0 -2.28561,1.04256 -2.28561,2.28561 v 31.09635 h -11.70875 c -1.2631,0 -2.28562,1.02251 -2.28562,2.28562 v 30.01369 z"
     fill="#d1d3d3"
     id="path1438"
     style="stroke-width:0.200492" />
  <path
     d="m 134.63057,109.32844 h 20.75095 v 18.34504 h -20.75095 z m -14.01441,26.18429 h 48.73967 v 8.22019 h -48.73967 z"
     fill="#333e48"
     id="path1440"
     style="stroke-width:0.200492" />
  <path
     d="m 144.83562,94.29152 h -7.91944 c -1.2631,0 -2.28561,1.04256 -2.28561,2.28561 v 31.09635 h -11.70875 c -1.2631,0 -2.28562,1.02251 -2.28562,2.28562 v 29.99364 h 44.14841 c -12.04959,-9.1224 -17.54308,-40.35909 -19.94899,-65.66122 z"
     fill=""
     id="path1442"
     style="stroke-width:0.200492" />
  <path
     d="m 147.54227,0 c -3.9898,0 -7.53851,1.884627 -9.80407,4.791765 -2.52621,-1.122756 -5.31305,-1.744282 -8.24024,-1.744282 -8.22018,0 -15.29756,4.851917 -18.52548,11.849097 -1.96483,-0.58143 -4.04995,-0.90222 -6.21526,-0.90222 -10.4256,0 -19.14702,7.29792 -21.37248,17.04184 C 70.73368,32.58 60.9296,43.36648 60.9296,56.45863 c 0,14.15475 11.46816,25.60286 25.60287,25.60286 3.76925,0 7.35806,-0.82202 10.56594,-2.28561 3.22793,1.46359 6.79669,2.28561 10.56594,2.28561 14.15476,0 25.60287,-11.46816 25.60287,-25.60286 0,-4.61133 -1.223,-8.92191 -3.34822,-12.65107 10.64614,-0.24059 19.26731,-8.62116 19.88883,-19.16706 5.77418,-1.08266 10.14491,-6.13506 10.14491,-12.23003 C 159.97279,5.573685 154.3991,0 147.54227,0 Z"
     fill="#d1d3d3"
     id="path1444"
     style="stroke-width:0.200492" />
  <path
     d="M 157.66713,159.97279 C 138.8409,145.65764 135.99391,77.18953 135.99391,62.13256 v -3.66901 c 0,-2.02497 -1.64403,-3.66901 -3.66901,-3.66901 H 61.75162 c -2.02497,0 -3.66901,1.64404 -3.66901,3.66901 v 3.66901 c 0,15.05697 -2.84699,83.52508 -21.67321,97.84023 z"
     fill="#a4a9ad"
     id="path1446"
     style="stroke-width:0.200492" />
  <path
     d="m 97.03826,64.63871 m -2.84699,0 a 2.8469904,2.8469904 0 1 0 5.69398,0 2.8469904,2.8469904 0 1 0 -5.69398,0 z"
     fill="#d1d3d3"
     id="path1448"
     style="stroke-width:0.200492" />
  <path
     d="m 73.58067,64.63871 m -2.84699,0 a 2.8469904,2.8469904 0 1 0 5.69398,0 2.8469904,2.8469904 0 1 0 -5.69398,0 z"
     fill="#d1d3d3"
     id="path1450"
     style="stroke-width:0.200492" />
  <path
     d="m 120.51591,64.63871 m -2.84699,0 a 2.8469904,2.8469904 0 1 0 5.69398,0 2.8469904,2.8469904 0 1 0 -5.69398,0 z"
     fill="#d1d3d3"
     id="path1452"
     style="stroke-width:0.200492" />
  <path
     d="M 140.38469,115.30311 H 53.69183 c -0.32079,1.92473 -0.64157,3.8294 -1.00246,5.73408 h 88.69779 c -0.36089,-1.90468 -0.68168,-3.8294 -1.00247,-5.73408 z M 138.45997,101.3689 H 55.61656 c -0.22054,1.90467 -0.46113,3.80935 -0.70172,5.73408 h 84.2669 c -0.26064,-1.92473 -0.50123,-3.84946 -0.72177,-5.73408 z"
     fill="#218649"
     id="path1454"
     style="stroke-width:0.200492" />
  <path
     d="m 101.99042,84.5075 v -2.82695 c 0,-1.56383 -1.2631,-2.82694 -2.82694,-2.82694 H 57.52124 c -1.48365,26.04395 -6.45586,69.99186 -21.11184,81.11918 h 82.28203 C 104.17579,148.92567 101.99042,96.116 101.99042,84.5075 Z"
     fill=""
     id="path1456"
     style="stroke-width:0.200492" />
  <path
     d="M 108.44627,159.97279 C 93.93063,148.94571 91.72522,96.13605 91.72522,84.5075 v -2.82695 c 0,-1.56383 -1.2631,-2.82694 -2.82694,-2.82694 H 34.484672 c -1.56384,0 -2.826941,1.26311 -2.826941,2.82694 v 2.82695 c 0,11.62855 -2.185366,64.41817 -16.721056,75.46529 z"
     fill="#d1d3d3"
     id="path1458"
     style="stroke-width:0.200492" />
  <path
     d="m 61.69147,89.35941 m -2.84699,0 a 2.8469904,2.8469904 0 1 0 5.69398,0 2.8469904,2.8469904 0 1 0 -5.69398,0 z"
     fill="#a4a9ad"
     id="path1460"
     style="stroke-width:0.200492" />
  <path
     d="m 44.1083,89.35941 m -2.84699,0 a 2.8469904,2.8469904 0 1 0 5.69398,0 2.8469904,2.8469904 0 1 0 -5.69398,0 z"
     fill="#a4a9ad"
     id="path1462"
     style="stroke-width:0.200492" />
  <path
     d="m 79.27465,89.35941 m -2.84699,0 a 2.8469904,2.8469904 0 1 0 5.69398,0 2.8469904,2.8469904 0 1 0 -5.69398,0 z"
     fill="#a4a9ad"
     id="path1464"
     style="stroke-width:0.200492" />
  <path
     d="M 97.73999,138.33967 H 25.663012 c -0.501231,1.98488 -1.04256,3.9096 -1.623988,5.73408 H 99.38402 c -0.60147,-1.82448 -1.1428,-3.7492 -1.64403,-5.73408 z M 95.33408,126.75122 H 28.068919 c -0.320787,1.92473 -0.681674,3.84945 -1.062609,5.73408 h 69.41043 c -0.40099,-1.88463 -0.76187,-3.80935 -1.08266,-5.73408 z"
     fill="#00ad68"
     id="path1466"
     style="stroke-width:0.200492" />
  <path
     d="m 179.2,167.05017 c 0,0.84207 -0.70172,1.54379 -1.54379,1.54379 H 1.543791 C 0.701723,168.59396 0,167.89224 0,167.05017 v -5.53359 c 0,-0.84207 0.701723,-1.54379 1.543791,-1.54379 H 177.65621 c 0.84207,0 1.54379,0.70172 1.54379,1.54379 z"
     fill="#333e48"
     id="path1468"
     style="stroke-width:0.200492" />
</svg>
