<svg width="140" height="131.714" viewBox="0 0 179.2 168.594" class="prefix__icon" xmlns="http://www.w3.org/2000/svg"><path d="M169.356 159.973v-30.014a2.285 2.285 0 00-2.286-2.286h-11.709V96.577a2.285 2.285 0 00-2.285-2.285h-16.16a2.298 2.298 0 00-2.285 2.285v31.096h-11.71a2.285 2.285 0 00-2.285 2.286v30.014z" fill="#d1d3d3"/><path d="M134.63 109.328h20.752v18.345H134.63zm-14.014 26.185h48.74v8.22h-48.74z" fill="#333e48"/><path d="M144.836 94.292h-7.92a2.298 2.298 0 00-2.285 2.285v31.096h-11.71a2.285 2.285 0 00-2.285 2.286v29.994h44.149c-12.05-9.123-17.543-40.36-19.95-65.661z"/><path d="M147.542 0a12.41 12.41 0 00-9.804 4.792 20.234 20.234 0 00-8.24-1.745c-8.22 0-15.298 4.852-18.526 11.85a21.87 21.87 0 00-6.215-.903c-10.425 0-19.147 7.298-21.372 17.042C70.734 32.58 60.93 43.366 60.93 56.46c0 14.154 11.468 25.602 25.602 25.602 3.77 0 7.359-.822 10.566-2.285a25.498 25.498 0 0010.566 2.285c14.155 0 25.603-11.468 25.603-25.602 0-4.612-1.223-8.922-3.348-12.651 10.646-.241 19.267-8.622 19.889-19.168 5.774-1.082 10.145-6.135 10.145-12.23.02-6.836-5.554-12.41-12.41-12.41z" fill="#d1d3d3"/><path d="M157.667 159.973c-18.826-14.315-21.673-82.783-21.673-97.84v-3.67a3.67 3.67 0 00-3.67-3.668H61.753a3.67 3.67 0 00-3.67 3.669v3.669c0 15.057-2.846 83.525-21.673 97.84z" fill="#a4a9ad"/><path d="M94.191 64.639a2.847 2.847 0 105.694 0 2.847 2.847 0 10-5.694 0zM70.734 64.639a2.847 2.847 0 105.694 0 2.847 2.847 0 10-5.694 0zM117.66900000000001 64.639a2.847 2.847 0 105.694 0 2.847 2.847 0 10-5.694 0z" fill="#d1d3d3"/><path d="M140.385 115.303H53.692c-.321 1.925-.642 3.83-1.003 5.734h88.698c-.36-1.904-.682-3.83-1.002-5.734zm-1.925-13.934H55.617c-.221 1.905-.462 3.81-.702 5.734h84.267c-.26-1.925-.501-3.85-.722-5.734z" fill="#218649"/><path d="M101.99 84.507v-2.826a2.824 2.824 0 00-2.827-2.827H57.521c-1.483 26.044-6.456 69.991-21.112 81.119h82.282c-14.515-11.047-16.7-63.857-16.7-75.466z"/><path d="M108.446 159.973c-14.515-11.027-16.72-63.837-16.72-75.466v-2.826a2.824 2.824 0 00-2.828-2.827H34.485a2.824 2.824 0 00-2.827 2.827v2.826c0 11.629-2.186 64.419-16.721 75.466z" fill="#d1d3d3"/><path d="M58.844 89.36a2.847 2.847 0 105.694 0 2.847 2.847 0 10-5.694 0zM41.260999999999996 89.36a2.847 2.847 0 105.694 0 2.847 2.847 0 10-5.694 0zM76.42800000000001 89.36a2.847 2.847 0 105.694 0 2.847 2.847 0 10-5.694 0z" fill="#a4a9ad"/><path d="M97.74 138.34H25.663a97.943 97.943 0 01-1.624 5.734h75.345a84.385 84.385 0 01-1.644-5.734zm-2.406-11.589H28.07c-.32 1.925-.682 3.85-1.063 5.734h69.41a131.62 131.62 0 01-1.082-5.734z" fill="#00ad68"/><path d="M179.2 167.05c0 .842-.702 1.544-1.544 1.544H1.544A1.557 1.557 0 010 167.05v-5.533c0-.842.702-1.544 1.544-1.544h176.112c.842 0 1.544.702 1.544 1.544z" fill="#333e48"/></svg>