<svg version="1.1" xmlns="http://www.w3.org/2000/svg" xmlns:xlink="http://www.w3.org/1999/xlink" width="139.85282" height="93.76552" viewBox="0,0,139.85282,93.76552"><g transform="translate(-170.09506,-133.11724)"><g data-paper-data="{&quot;isPaintingLayer&quot;:true}" fill-rule="evenodd" stroke-linecap="butt" stroke-linejoin="miter" stroke-miterlimit="10" stroke-dasharray="" stroke-dashoffset="0" style="mix-blend-mode: normal"><path d="M237.35194,146.30695c-2.42114,0 -4.38387,-2.94409 -4.38387,-6.57581v0c0,-3.63172 1.96273,-6.57581 4.38387,-6.57581v0c2.42114,0 4.38387,2.94409 4.38387,6.57581v0c0,3.63172 -1.96273,6.57581 -4.38387,6.57581z" fill="#0000ff" stroke="#1f1a17" stroke-width="0.0762"/><path d="M230.3378,147.84096l2.34438,-6.13706h9.55857l2.34438,6.13706z" fill="#00923f" stroke="#1f1a17" stroke-width="0.0762"/><path d="M303.80216,197.24723l0.793,-3.96903h5.33124l-0.793,3.96903z" fill="#666666" stroke="#1f1a17" stroke-width="0.03522"/><path d="M303.80214,191.59948l0.793,-3.96903h5.33124l-0.793,3.96903z" fill="#666666" stroke="#1f1a17" stroke-width="0.03522"/><path d="M283.79239,147.64524l17.14356,33.65245h-99.63068l21.42972,-33.65245z" fill="#6666ff" stroke="#1f1a17" stroke-width="0.0762"/><path d="M221.20107,146.83093h64.12279c0.45504,0 0.82689,0.37186 0.82689,0.82689v1.27215c0,0.45504 -0.37186,0.82724 -0.82689,0.82724h-6.42329l9.0934,29.62597h-3.45262l-9.0934,-29.62597h-26.12302l-2.23464,28.97347h-3.45262l2.23464,-28.97347h-24.67124c-0.45469,0 -0.82689,-0.37221 -0.82689,-0.82724v-1.27215c0,-0.45504 0.37221,-0.82689 0.82689,-0.82689z" fill="#00923f" stroke="#1f1a17" stroke-width="0.0762"/><path d="M186.73502,211.89281c-8.52253,0 -15.43141,-6.90888 -15.43141,-15.43141v-5.71207c0,-8.52253 6.90888,-15.43141 15.43141,-15.43141h103.01864c8.52253,0 15.43141,6.90888 15.43141,15.43141v5.71207c0,8.52253 -6.90888,15.43141 -15.43141,15.43141z" fill="#00923f" stroke="#1f1a17" stroke-width="0.0762"/><path d="M224.51809,207.15301c0,2.14098 -0.30161,4.21346 -0.86464,6.17795h-43.2893c-0.56303,-1.96449 -0.86534,-4.03697 -0.86534,-6.1776c-0.00035,-12.39713 10.11286,-22.51034 22.50929,-22.50999c12.39713,0 22.51034,10.11286 22.50999,22.50964z" fill="#ffffff" stroke="none" stroke-width="1"/><path d="M182.31679,207.153c0,-10.87541 8.81626,-19.69166 19.69166,-19.69166c10.87541,0 19.69166,8.81626 19.69166,19.69166c0,10.87541 -8.81626,19.69166 -19.69166,19.69166c-10.87541,0 -19.69166,-8.81626 -19.69166,-19.69166z" fill="#333333" stroke="#1f1a17" stroke-width="0.0762"/><path d="M195.26599,209.66235c0,-5.10925 4.14187,-9.25112 9.25112,-9.25112c5.10925,0 9.25112,4.14187 9.25112,9.25112c0,5.10925 -4.14187,9.25112 -9.25112,9.25112c-5.10925,0 -9.25112,-4.14187 -9.25112,-9.25112z" fill="#e5e5e5" stroke="#1f1a17" stroke-width="0.0762"/><path d="M198.17583,207.153c0,-2.1167 1.71592,-3.83262 3.83262,-3.83262c2.1167,0 3.83262,1.71592 3.83262,3.83262c0,2.1167 -1.71592,3.83262 -3.83262,3.83262c-2.1167,0 -3.83262,-1.71592 -3.83262,-3.83262z" fill="#ff0000" stroke="#1f1a17" stroke-width="0.0762"/><path d="M306.44812,207.15301c0,2.14133 -0.30161,4.21346 -0.86464,6.17795h-1.56886h-0.77482h-40.94597c-0.56303,-1.96449 -0.86534,-4.03697 -0.86534,-6.17795c0,-12.39678 10.11286,-22.50964 22.50964,-22.50964c12.39678,0 22.50999,10.11286 22.50999,22.50964z" fill="#ffffff" stroke="none" stroke-width="1"/><path d="M264.24648,207.153c0,-10.87541 8.81626,-19.69166 19.69166,-19.69166c10.87541,0 19.69166,8.81626 19.69166,19.69166c0,10.87541 -8.81626,19.69166 -19.69166,19.69166c-10.87541,0 -19.69166,-8.81626 -19.69166,-19.69166z" fill="#333333" stroke="#1f1a17" stroke-width="0.0762"/><path d="M277.196,209.66235c0,-5.10925 4.14187,-9.25112 9.25112,-9.25112c5.10925,0 9.25112,4.14187 9.25112,9.25112c0,5.10925 -4.14187,9.25112 -9.25112,9.25112c-5.10925,0 -9.25112,-4.14187 -9.25112,-9.25112z" fill="#e5e5e5" stroke="#1f1a17" stroke-width="0.0762"/><path d="M280.10552,207.153c0,-2.1167 1.71592,-3.83262 3.83262,-3.83262c2.1167,0 3.83262,1.71592 3.83262,3.83262c0,2.1167 -1.71592,3.83262 -3.83262,3.83262c-2.1167,0 -3.83262,-1.71592 -3.83262,-3.83262z" fill="#ff0000" stroke="#1f1a17" stroke-width="0.0762"/><path d="M283.93813,183.7616c12.88152,0 23.39001,10.50848 23.39001,23.39001c0,2.11127 -0.28449,4.15789 -0.81326,6.10595h-2.28008c0.5847,-1.93513 0.90099,-3.98454 0.90099,-6.10595c0,-11.67403 -9.52327,-21.19765 -21.19765,-21.19765c-11.67403,0 -21.19765,9.52362 -21.19765,21.19765c0,2.12141 0.31629,4.17082 0.90099,6.10595h-1.27529h-1.00479h-36.7762h-2.28008c0.5847,-1.93513 0.90099,-3.98454 0.90099,-6.10595c0,-11.67403 -9.52362,-21.19765 -21.19765,-21.19765c-11.67438,0 -21.198,9.52362 -21.198,21.19765c0,2.12141 0.31664,4.17082 0.90134,6.10595h-2.28043c-0.52878,-1.94806 -0.81292,-3.99468 -0.81292,-6.10595c0,-12.88152 10.50848,-23.39001 23.39001,-23.39001c12.88152,0 23.39001,10.50848 23.39001,23.39001c0,1.41544 -0.12861,2.80082 -0.37221,4.14775h35.89373c-0.24325,-1.34694 -0.37186,-2.73232 -0.37186,-4.14775c0,-12.88152 10.50848,-23.39001 23.39001,-23.39001z" fill="#72706f" stroke="#1f1a17" stroke-width="0.0762"/><path d="M170.13316,195.04176c3.04406,0 5.51286,2.4688 5.51286,5.51286c0,3.04406 -2.4688,5.51286 -5.51286,5.51286v-5.51286z" fill="#ffff00" stroke="#1f1a17" stroke-width="0.0762"/></g></g></svg>