<svg version="1.1" xmlns="http://www.w3.org/2000/svg" xmlns:xlink="http://www.w3.org/1999/xlink" width="139.85282" height="93.76553" viewBox="0,0,139.85282,93.76553"><g transform="translate(-170.0819,-133.11723)"><g data-paper-data="{&quot;isPaintingLayer&quot;:true}" fill-rule="evenodd" stroke-linecap="butt" stroke-linejoin="miter" stroke-miterlimit="10" stroke-dasharray="" stroke-dashoffset="0" style="mix-blend-mode: normal"><path d="M238.29397,139.73114v0c0,-3.63172 1.96273,-6.57581 4.38387,-6.57581v0c2.42114,0 4.38387,2.94409 4.38387,6.57581v0c0,3.63172 -1.96273,6.57581 -4.38387,6.57581c-2.42114,0 -4.38387,-2.94409 -4.38387,-6.57581z" data-paper-data="{&quot;index&quot;:null}" fill="#0000ff" stroke="#1f1a17" stroke-width="0.0762"/><path d="M235.44465,147.84096l2.34438,-6.13706h9.55857l2.34438,6.13706z" data-paper-data="{&quot;index&quot;:null}" fill="#00923f" stroke="#1f1a17" stroke-width="0.0762"/><path d="M170.89638,197.24723l-0.793,-3.96903h5.33124l0.793,3.96903z" data-paper-data="{&quot;index&quot;:null}" fill="#666666" stroke="#1f1a17" stroke-width="0.03522"/><path d="M170.8964,191.59949l-0.793,-3.96903h5.33124l0.793,3.96903z" data-paper-data="{&quot;index&quot;:null}" fill="#666666" stroke="#1f1a17" stroke-width="0.03522"/><path d="M257.29479,147.64524l21.42972,33.65245h-99.63068l17.14356,-33.65245z" data-paper-data="{&quot;index&quot;:null}" fill="#6666ff" stroke="#1f1a17" stroke-width="0.0762"/><path d="M259.6556,147.65782v1.27215c0,0.45503 -0.3722,0.82724 -0.82689,0.82724h-24.67124l2.23464,28.97347h-3.45262l-2.23464,-28.97347h-26.12302l-9.0934,29.62597h-3.45262l9.0934,-29.62597h-6.42329c-0.45503,0 -0.82689,-0.3722 -0.82689,-0.82724v-1.27215c0,-0.45503 0.37185,-0.82689 0.82689,-0.82689h64.12279c0.45468,0 0.82689,0.37185 0.82689,0.82689z" data-paper-data="{&quot;index&quot;:null}" fill="#00923f" stroke="#1f1a17" stroke-width="0.0762"/><path d="M190.27612,211.89281c-8.52253,0 -15.43141,-6.90888 -15.43141,-15.43141v-5.71207c0,-8.52253 6.90888,-15.43141 15.43141,-15.43141h103.01864c8.52253,0 15.43141,6.90888 15.43141,15.43141v5.71207c0,8.52253 -6.90888,15.43141 -15.43141,15.43141z" data-paper-data="{&quot;index&quot;:null}" fill="#00923f" stroke="#1f1a17" stroke-width="0.0762"/><path d="M278.02168,184.64337c12.39643,-0.00035 22.50964,10.11286 22.50929,22.50999c0,2.14063 -0.30231,4.21311 -0.86534,6.1776h-43.2893c-0.56303,-1.96449 -0.86464,-4.03697 -0.86464,-6.17795c-0.00035,-12.39678 10.11286,-22.50964 22.50999,-22.50964z" data-paper-data="{&quot;index&quot;:null}" fill="#ffffff" stroke="none" stroke-width="1"/><path d="M278.02133,226.84467c-10.8754,0 -19.69166,-8.81625 -19.69166,-19.69166c0,-10.8754 8.81625,-19.69166 19.69166,-19.69166c10.8754,0 19.69166,8.81625 19.69166,19.69166c0,10.8754 -8.81625,19.69166 -19.69166,19.69166z" data-paper-data="{&quot;index&quot;:null}" fill="#333333" stroke="#1f1a17" stroke-width="0.0762"/><path d="M275.51267,218.91347c-5.10925,0 -9.25112,-4.14187 -9.25112,-9.25112c0,-5.10925 4.14187,-9.25112 9.25112,-9.25112c5.10925,0 9.25112,4.14187 9.25112,9.25112c0,5.10925 -4.14187,9.25112 -9.25112,9.25112z" data-paper-data="{&quot;index&quot;:null}" fill="#e5e5e5" stroke="#1f1a17" stroke-width="0.0762"/><path d="M278.02133,210.98562c-2.1167,0 -3.83262,-1.71592 -3.83262,-3.83262c0,-2.1167 1.71592,-3.83262 3.83262,-3.83262c2.1167,0 3.83262,1.71592 3.83262,3.83262c0,2.1167 -1.71592,3.83262 -3.83262,3.83262z" data-paper-data="{&quot;index&quot;:null}" fill="#ff0000" stroke="#1f1a17" stroke-width="0.0762"/><path d="M196.09165,184.64337c12.39678,0 22.50964,10.11286 22.50964,22.50964c0,2.14098 -0.30231,4.21346 -0.86534,6.17795h-40.94597h-0.77482h-1.56886c-0.56303,-1.96449 -0.86464,-4.03662 -0.86464,-6.17795c0,-12.39678 10.11321,-22.50964 22.50999,-22.50964z" data-paper-data="{&quot;index&quot;:null}" fill="#ffffff" stroke="none" stroke-width="1"/><path d="M196.09164,226.84467c-10.8754,0 -19.69166,-8.81625 -19.69166,-19.69166c0,-10.8754 8.81625,-19.69166 19.69166,-19.69166c10.8754,0 19.69166,8.81625 19.69166,19.69166c0,10.8754 -8.81625,19.69166 -19.69166,19.69166z" data-paper-data="{&quot;index&quot;:null}" fill="#333333" stroke="#1f1a17" stroke-width="0.0762"/><path d="M193.58266,218.91347c-5.10925,0 -9.25112,-4.14187 -9.25112,-9.25112c0,-5.10925 4.14187,-9.25112 9.25112,-9.25112c5.10925,0 9.25112,4.14187 9.25112,9.25112c0,5.10925 -4.14187,9.25112 -9.25112,9.25112z" data-paper-data="{&quot;index&quot;:null}" fill="#e5e5e5" stroke="#1f1a17" stroke-width="0.0762"/><path d="M196.09164,210.98562c-2.1167,0 -3.83262,-1.71592 -3.83262,-3.83262c0,-2.1167 1.71592,-3.83262 3.83262,-3.83262c2.1167,0 3.83262,1.71592 3.83262,3.83262c0,2.1167 -1.71592,3.83262 -3.83262,3.83262z" data-paper-data="{&quot;index&quot;:null}" fill="#ff0000" stroke="#1f1a17" stroke-width="0.0762"/><path d="M196.09164,183.7616c12.88153,0 23.39001,10.50849 23.39001,23.39001c0,1.41543 -0.12861,2.80081 -0.37186,4.14775h35.89373c-0.2436,-1.34693 -0.37221,-2.73231 -0.37221,-4.14775c0,-12.88153 10.50849,-23.39001 23.39001,-23.39001c12.88153,0 23.39001,10.50849 23.39001,23.39001c0,2.11127 -0.28414,4.15789 -0.81292,6.10595h-2.28043c0.5847,-1.93513 0.90134,-3.98454 0.90134,-6.10595c0,-11.67403 -9.52362,-21.19765 -21.198,-21.19765c-11.67403,0 -21.19765,9.52362 -21.19765,21.19765c0,2.12141 0.31629,4.17082 0.90099,6.10595h-2.28008h-36.7762h-1.00479h-1.27529c0.5847,-1.93513 0.90099,-3.98454 0.90099,-6.10595c0,-11.67403 -9.52362,-21.19765 -21.19765,-21.19765c-11.67438,0 -21.19765,9.52362 -21.19765,21.19765c0,2.12141 0.31629,4.17082 0.90099,6.10595h-2.28008c-0.52877,-1.94806 -0.81326,-3.99468 -0.81326,-6.10595c0,-12.88153 10.50849,-23.39001 23.39001,-23.39001z" data-paper-data="{&quot;index&quot;:null}" fill="#72706f" stroke="#1f1a17" stroke-width="0.0762"/><path d="M309.89662,200.55462v5.51286c-3.04406,0 -5.51286,-2.4688 -5.51286,-5.51286c0,-3.04406 2.4688,-5.51286 5.51286,-5.51286z" data-paper-data="{&quot;index&quot;:null}" fill="#ffff00" stroke="#1f1a17" stroke-width="0.0762"/></g></g></svg>