<?xml version="1.0" encoding="UTF-8"?>
<svg width="293.65" height="529.13" version="1.1" viewBox="0 0 77.694 140" xmlns="http://www.w3.org/2000/svg" xmlns:xlink="http://www.w3.org/1999/xlink"><defs><linearGradient id="linearGradient8327" x1="1545.7" x2="1292.3" y1="3024.2" y2="3049.1" gradientTransform="matrix(.12613 0 0 .12613 -140.76 -373.3)" gradientUnits="userSpaceOnUse" xlink:href="#linearGradient9297"/><linearGradient id="linearGradient9297"><stop stop-color="#e78eb4" offset="0"/><stop stop-color="#ffdeee" offset="1"/></linearGradient><linearGradient id="linearGradient7503" x1="1739.1" x2="1562.5" y1="3345.5" y2="3345.5" gradientTransform="matrix(.12613 0 0 .12613 -140.76 -373.3)" gradientUnits="userSpaceOnUse"><stop stop-color="#e29bb3" offset="0"/><stop stop-color="#7d5897" offset="1"/></linearGradient><linearGradient id="linearGradient9303" x1="1168.1" x2="1582.3" y1="1002.4" y2="1002.4" gradientTransform="matrix(.12613 0 0 .12613 -140.76 -114.99)" gradientUnits="userSpaceOnUse" xlink:href="#linearGradient9297"/><linearGradient id="linearGradient7595" x1="1597" x2="1729.6" y1="3867" y2="3867" gradientTransform="matrix(.12613 0 0 .12613 -140.76 -373.3)" gradientUnits="userSpaceOnUse" xlink:href="#linearGradient7589"/><linearGradient id="linearGradient7589"><stop stop-color="#dfa986" offset="0"/><stop stop-color="#ffd9ae" offset="1"/></linearGradient><linearGradient id="linearGradient7628" x1="1597.5" x2="1728.1" y1="3907" y2="3907" gradientTransform="matrix(.12613 0 0 .12613 -140.76 -373.3)" gradientUnits="userSpaceOnUse" xlink:href="#linearGradient7589"/><linearGradient id="linearGradient9378" x1="1163.3" x2="1593.6" y1="1611.7" y2="1611.7" gradientTransform="matrix(.12613 0 0 .12613 -140.76 -114.99)" gradientUnits="userSpaceOnUse" xlink:href="#linearGradient6970"/><linearGradient id="linearGradient6970"><stop stop-color="#fff" offset="0"/><stop stop-color="#fff" stop-opacity="0" offset="1"/></linearGradient><linearGradient id="linearGradient9340" x1="1167.5" x2="1488.1" y1="3176.3" y2="3176.3" gradientTransform="matrix(.12613 0 0 .12613 -140.76 -373.3)" gradientUnits="userSpaceOnUse" xlink:href="#linearGradient6970"/><linearGradient id="linearGradient9330" x1="1164.7" x2="1590.2" y1="3553.9" y2="3553.9" gradientTransform="matrix(.12613 0 0 .12613 -140.76 -377.84)" gradientUnits="userSpaceOnUse" xlink:href="#linearGradient6970"/><linearGradient id="linearGradient9316" x1="1163.7" x2="1586.7" y1="3375.5" y2="3375.5" gradientTransform="matrix(.12613 0 0 .12613 -140.76 -373.3)" gradientUnits="userSpaceOnUse" xlink:href="#linearGradient6970"/><linearGradient id="linearGradient9254" x1="1204.5" x2="1226.1" y1="3122" y2="3182.8" gradientTransform="matrix(.12613 0 0 .12613 -100.4 -295.1)" gradientUnits="userSpaceOnUse" xlink:href="#linearGradient9035"/><linearGradient id="linearGradient9035"><stop stop-color="#2766ff" offset="0"/><stop stop-color="#b6d5ff" offset="1"/></linearGradient><linearGradient id="linearGradient9252" x1="1204.5" x2="1226.1" y1="3122" y2="3182.8" gradientTransform="matrix(.12613 0 0 .12613 -107.71 -295.35)" gradientUnits="userSpaceOnUse" xlink:href="#linearGradient9035"/><linearGradient id="linearGradient9250" x1="1204.5" x2="1226.1" y1="3122" y2="3182.8" gradientTransform="matrix(.12613 0 0 .12613 -115.53 -294.85)" gradientUnits="userSpaceOnUse" xlink:href="#linearGradient9035"/><linearGradient id="linearGradient9248" x1="1204.5" x2="1226.1" y1="3122" y2="3182.8" gradientTransform="matrix(.12613 0 0 .12613 -123.35 -294.6)" gradientUnits="userSpaceOnUse" xlink:href="#linearGradient9035"/><linearGradient id="linearGradient9246" x1="1204.5" x2="1226.1" y1="3122" y2="3182.8" gradientTransform="matrix(.12613 0 0 .12613 -132.68 -294.6)" gradientUnits="userSpaceOnUse" xlink:href="#linearGradient9035"/><linearGradient id="linearGradient9233" x1="1204.5" x2="1226.1" y1="3122" y2="3182.8" gradientTransform="matrix(.12613 0 0 .12613 -100.4 -306.96)" gradientUnits="userSpaceOnUse" xlink:href="#linearGradient9035"/><linearGradient id="linearGradient9231" x1="1204.5" x2="1226.1" y1="3122" y2="3182.8" gradientTransform="matrix(.12613 0 0 .12613 -107.71 -306.96)" gradientUnits="userSpaceOnUse" xlink:href="#linearGradient9035"/><linearGradient id="linearGradient9229" x1="1204.5" x2="1226.1" y1="3122" y2="3182.8" gradientTransform="matrix(.12613 0 0 .12613 -115.78 -305.95)" gradientUnits="userSpaceOnUse" xlink:href="#linearGradient9035"/><linearGradient id="linearGradient9227" x1="1204.5" x2="1226.1" y1="3122" y2="3182.8" gradientTransform="matrix(.12613 0 0 .12613 -123.86 -305.7)" gradientUnits="userSpaceOnUse" xlink:href="#linearGradient9035"/><linearGradient id="linearGradient9225" x1="1204.5" x2="1226.1" y1="3122" y2="3182.8" gradientTransform="matrix(.12613 0 0 .12613 -132.68 -305.7)" gradientUnits="userSpaceOnUse" xlink:href="#linearGradient9035"/><linearGradient id="linearGradient9213" x1="1204.5" x2="1226.1" y1="3122" y2="3182.8" gradientTransform="matrix(.12613 0 0 .12613 -100.65 -318.31)" gradientUnits="userSpaceOnUse" xlink:href="#linearGradient9035"/><linearGradient id="linearGradient9210" x1="1204.5" x2="1226.1" y1="3122" y2="3182.8" gradientTransform="matrix(.12613 0 0 .12613 -107.71 -318.31)" gradientUnits="userSpaceOnUse" xlink:href="#linearGradient9035"/><linearGradient id="linearGradient9208" x1="1204.5" x2="1226.1" y1="3122" y2="3182.8" gradientTransform="matrix(.12613 0 0 .12613 -115.78 -317.3)" gradientUnits="userSpaceOnUse" xlink:href="#linearGradient9035"/><linearGradient id="linearGradient9206" x1="1204.5" x2="1226.1" y1="3122" y2="3182.8" gradientTransform="matrix(.12613 0 0 .12613 -123.86 -317.05)" gradientUnits="userSpaceOnUse" xlink:href="#linearGradient9035"/><linearGradient id="linearGradient9204" x1="1204.5" x2="1226.1" y1="3122" y2="3182.8" gradientTransform="matrix(.12613 0 0 .12613 -132.68 -317.05)" gradientUnits="userSpaceOnUse" xlink:href="#linearGradient9035"/><linearGradient id="linearGradient9192" x1="1204.5" x2="1226.1" y1="3122" y2="3182.8" gradientTransform="matrix(.12613 0 0 .12613 -100.65 -329.66)" gradientUnits="userSpaceOnUse" xlink:href="#linearGradient9035"/><linearGradient id="linearGradient9190" x1="1204.5" x2="1226.1" y1="3122" y2="3182.8" gradientTransform="matrix(.12613 0 0 .12613 -107.71 -329.66)" gradientUnits="userSpaceOnUse" xlink:href="#linearGradient9035"/><linearGradient id="linearGradient9188" x1="1204.5" x2="1226.1" y1="3122" y2="3182.8" gradientTransform="matrix(.12613 0 0 .12613 -115.78 -328.65)" gradientUnits="userSpaceOnUse" xlink:href="#linearGradient9035"/><linearGradient id="linearGradient9186" x1="1204.5" x2="1226.1" y1="3122" y2="3182.8" gradientTransform="matrix(.12613 0 0 .12613 -123.86 -328.4)" gradientUnits="userSpaceOnUse" xlink:href="#linearGradient9035"/><linearGradient id="linearGradient9184" x1="1204.5" x2="1226.1" y1="3122" y2="3182.8" gradientTransform="matrix(.12613 0 0 .12613 -132.68 -328.4)" gradientUnits="userSpaceOnUse" xlink:href="#linearGradient9035"/><linearGradient id="linearGradient9172" x1="1204.5" x2="1226.1" y1="3122" y2="3182.8" gradientTransform="matrix(.12613 0 0 .12613 -100.65 -341.26)" gradientUnits="userSpaceOnUse" xlink:href="#linearGradient9035"/><linearGradient id="linearGradient9170" x1="1204.5" x2="1226.1" y1="3122" y2="3182.8" gradientTransform="matrix(.12613 0 0 .12613 -107.71 -341.26)" gradientUnits="userSpaceOnUse" xlink:href="#linearGradient9035"/><linearGradient id="linearGradient9168" x1="1204.5" x2="1226.1" y1="3122" y2="3182.8" gradientTransform="matrix(.12613 0 0 .12613 -115.78 -340.26)" gradientUnits="userSpaceOnUse" xlink:href="#linearGradient9035"/><linearGradient id="linearGradient9166" x1="1204.5" x2="1226.1" y1="3122" y2="3182.8" gradientTransform="matrix(.12613 0 0 .12613 -123.86 -340)" gradientUnits="userSpaceOnUse" xlink:href="#linearGradient9035"/><linearGradient id="linearGradient9164" x1="1204.5" x2="1226.1" y1="3122" y2="3182.8" gradientTransform="matrix(.12613 0 0 .12613 -132.68 -339.75)" gradientUnits="userSpaceOnUse" xlink:href="#linearGradient9035"/><linearGradient id="linearGradient9149" x1="1204.5" x2="1226.1" y1="3122" y2="3182.8" gradientTransform="matrix(.12613 0 0 .12613 -100.65 -353.12)" gradientUnits="userSpaceOnUse" xlink:href="#linearGradient9035"/><linearGradient id="linearGradient9147" x1="1204.5" x2="1226.1" y1="3122" y2="3182.8" gradientTransform="matrix(.12613 0 0 .12613 -107.71 -353.12)" gradientUnits="userSpaceOnUse" xlink:href="#linearGradient9035"/><linearGradient id="linearGradient9145" x1="1204.5" x2="1226.1" y1="3122" y2="3182.8" gradientTransform="matrix(.12613 0 0 .12613 -115.78 -352.11)" gradientUnits="userSpaceOnUse" xlink:href="#linearGradient9035"/><linearGradient id="linearGradient9143" x1="1204.5" x2="1226.1" y1="3122" y2="3182.8" gradientTransform="matrix(.12613 0 0 .12613 -123.86 -351.86)" gradientUnits="userSpaceOnUse" xlink:href="#linearGradient9035"/><linearGradient id="linearGradient9141" x1="1204.5" x2="1226.1" y1="3122" y2="3182.8" gradientTransform="matrix(.12613 0 0 .12613 -132.68 -351.61)" gradientUnits="userSpaceOnUse" xlink:href="#linearGradient9035"/><linearGradient id="linearGradient9129" x1="1204.5" x2="1226.1" y1="3122" y2="3182.8" gradientTransform="matrix(.12613 0 0 .12613 -100.65 -364.72)" gradientUnits="userSpaceOnUse" xlink:href="#linearGradient9035"/><linearGradient id="linearGradient9127" x1="1204.5" x2="1226.1" y1="3122" y2="3182.8" gradientTransform="matrix(.12613 0 0 .12613 -100.9 -375.32)" gradientUnits="userSpaceOnUse" xlink:href="#linearGradient9035"/><linearGradient id="linearGradient9121" x1="1204.5" x2="1226.1" y1="3122" y2="3182.8" gradientTransform="matrix(.12613 0 0 .12613 -107.71 -363.97)" gradientUnits="userSpaceOnUse" xlink:href="#linearGradient9035"/><linearGradient id="linearGradient9119" x1="1204.5" x2="1226.1" y1="3122" y2="3182.8" gradientTransform="matrix(.12613 0 0 .12613 -107.96 -375.07)" gradientUnits="userSpaceOnUse" xlink:href="#linearGradient9035"/><linearGradient id="linearGradient9112" x1="1204.5" x2="1226.1" y1="3122" y2="3182.8" gradientTransform="matrix(.12613 0 0 .12613 -115.78 -363.97)" gradientUnits="userSpaceOnUse" xlink:href="#linearGradient9035"/><linearGradient id="linearGradient9110" x1="1204.5" x2="1226.1" y1="3122" y2="3182.8" gradientTransform="matrix(.12613 0 0 .12613 -116.04 -374.81)" gradientUnits="userSpaceOnUse" xlink:href="#linearGradient9035"/><linearGradient id="linearGradient9104" x1="1204.5" x2="1226.1" y1="3122" y2="3182.8" gradientTransform="matrix(.12613 0 0 .12613 -123.86 -363.46)" gradientUnits="userSpaceOnUse" xlink:href="#linearGradient9035"/><linearGradient id="linearGradient9102" x1="1204.5" x2="1226.1" y1="3122" y2="3182.8" gradientTransform="matrix(.12613 0 0 .12613 -124.11 -374.31)" gradientUnits="userSpaceOnUse" xlink:href="#linearGradient9035"/><linearGradient id="linearGradient9096" x1="1204.5" x2="1226.1" y1="3122" y2="3182.8" gradientTransform="matrix(.12613 0 0 .12613 -132.68 -362.96)" gradientUnits="userSpaceOnUse" xlink:href="#linearGradient9035"/><linearGradient id="linearGradient9094" x1="1204.5" x2="1226.1" y1="3122" y2="3182.8" gradientTransform="matrix(.12613 0 0 .12613 -132.68 -373.55)" gradientUnits="userSpaceOnUse" xlink:href="#linearGradient9035"/><linearGradient id="linearGradient9069" x1="1204.5" x2="1226.1" y1="3122" y2="3182.8" gradientTransform="matrix(.12613 0 0 .12613 -140.76 -294.09)" gradientUnits="userSpaceOnUse" xlink:href="#linearGradient9035"/><linearGradient id="linearGradient9065" x1="1204.5" x2="1226.1" y1="3122" y2="3182.8" gradientTransform="matrix(.12613 0 0 .12613 -140.76 -305.7)" gradientUnits="userSpaceOnUse" xlink:href="#linearGradient9035"/><linearGradient id="linearGradient9061" x1="1204.5" x2="1226.1" y1="3122" y2="3182.8" gradientTransform="matrix(.12613 0 0 .12613 -140.76 -316.8)" gradientUnits="userSpaceOnUse" xlink:href="#linearGradient9035"/><linearGradient id="linearGradient9057" x1="1204.5" x2="1226.1" y1="3122" y2="3182.8" gradientTransform="matrix(.12613 0 0 .12613 -140.76 -328.4)" gradientUnits="userSpaceOnUse" xlink:href="#linearGradient9035"/><linearGradient id="linearGradient9053" x1="1204.5" x2="1226.1" y1="3122" y2="3182.8" gradientTransform="matrix(.12613 0 0 .12613 -140.76 -339.75)" gradientUnits="userSpaceOnUse" xlink:href="#linearGradient9035"/><linearGradient id="linearGradient9049" x1="1204.5" x2="1226.1" y1="3122" y2="3182.8" gradientTransform="matrix(.12613 0 0 .12613 -140.76 -351.1)" gradientUnits="userSpaceOnUse" xlink:href="#linearGradient9035"/><linearGradient id="linearGradient9045" x1="1204.5" x2="1226.1" y1="3122" y2="3182.8" gradientTransform="matrix(.12613 0 0 .12613 -140.76 -362.71)" gradientUnits="userSpaceOnUse" xlink:href="#linearGradient9035"/><linearGradient id="linearGradient9041" x1="1204.5" x2="1226.1" y1="3122" y2="3182.8" gradientTransform="matrix(.12613 0 0 .12613 -140.76 -373.3)" gradientUnits="userSpaceOnUse" xlink:href="#linearGradient9035"/><linearGradient id="linearGradient7515" x1="1457.2" x2="1577.9" y1="4036.4" y2="4036.4" gradientTransform="matrix(.12613 0 0 .12613 -140.76 -373.3)" gradientUnits="userSpaceOnUse" xlink:href="#linearGradient6970"/><linearGradient id="linearGradient7504" x1="1353.8" x2="1433.3" y1="4052.4" y2="4052.4" gradientTransform="matrix(.12613 0 0 .12613 -140.76 -373.3)" gradientUnits="userSpaceOnUse" xlink:href="#linearGradient6970"/><linearGradient id="linearGradient7489" x1="1179.9" x2="1299.6" y1="4036.4" y2="4036.4" gradientTransform="matrix(.12613 0 0 .12613 -140.76 -373.3)" gradientUnits="userSpaceOnUse" xlink:href="#linearGradient6970"/><linearGradient id="linearGradient7567" x1="1689.4" x2="1711.9" y1="3943" y2="3955" gradientTransform="matrix(.12613 0 0 .12613 -140.76 -373.3)" gradientUnits="userSpaceOnUse" xlink:href="#linearGradient7546"/><linearGradient id="linearGradient7546"><stop stop-color="#506cff" offset="0"/><stop stop-color="#3fbdfd" offset="1"/></linearGradient><linearGradient id="linearGradient7558" x1="1654.8" x2="1682.4" y1="3944.3" y2="3955.1" gradientTransform="matrix(.12613 0 0 .12613 -140.76 -373.3)" gradientUnits="userSpaceOnUse" xlink:href="#linearGradient7546"/><linearGradient id="linearGradient7543" x1="1610.7" x2="1648.2" y1="3946.4" y2="3956" gradientTransform="matrix(.12613 0 0 .12613 -140.76 -373.3)" gradientUnits="userSpaceOnUse" xlink:href="#linearGradient7546"/><linearGradient id="linearGradient7482" x1="1693.5" x2="1724.1" y1="3993.1" y2="4042.4" gradientTransform="matrix(.12613 0 0 .12613 -140.76 -373.3)" gradientUnits="userSpaceOnUse" xlink:href="#linearGradient7488"/><linearGradient id="linearGradient7488"><stop stop-color="#2766ff" offset="0"/><stop stop-color="#0b58a6" offset="1"/></linearGradient><linearGradient id="linearGradient7484" x1="1653.2" x2="1687.6" y1="3988.4" y2="4049" gradientTransform="matrix(.12613 0 0 .12613 -140.76 -373.3)" gradientUnits="userSpaceOnUse" xlink:href="#linearGradient7488"/><linearGradient id="linearGradient7486" x1="1605.8" x2="1652" y1="3984.9" y2="4058" gradientTransform="matrix(.12613 0 0 .12613 -140.76 -373.3)" gradientUnits="userSpaceOnUse" xlink:href="#linearGradient7488"/><linearGradient id="linearGradient7454" x1="1534.1" x2="1489.7" y1="3967.3" y2="3925" gradientTransform="matrix(.12613 0 0 .12613 -140.76 -373.3)" gradientUnits="userSpaceOnUse" xlink:href="#linearGradient7197-9"/><linearGradient id="linearGradient7197-9"><stop stop-color="#c5f2ff" offset="0"/><stop stop-color="#427fea" offset=".8172"/><stop stop-color="#3fbdff" offset="1"/></linearGradient><linearGradient id="linearGradient7456" x1="1386.3" x2="1356.7" y1="3975.4" y2="3925.3" gradientTransform="matrix(.12613 0 0 .12613 -140.76 -373.3)" gradientUnits="userSpaceOnUse" xlink:href="#linearGradient7197-9"/><linearGradient id="linearGradient7458" x1="1261.3" x2="1232" y1="3980.2" y2="3938" gradientTransform="matrix(.12613 0 0 .12613 -140.76 -373.3)" gradientUnits="userSpaceOnUse" xlink:href="#linearGradient7197-9"/><linearGradient id="linearGradient7441" x1="1519.4" x2="1472.7" y1="4069.1" y2="3984" gradientTransform="matrix(.12613 0 0 .12613 -140.76 -373.3)" gradientUnits="userSpaceOnUse" xlink:href="#linearGradient9163"/><linearGradient id="linearGradient9163"><stop stop-color="#e5d3ff" offset="0"/><stop stop-color="#638dff" offset="1"/></linearGradient><linearGradient id="linearGradient7444" x1="1383.5" x2="1341.8" y1="4071" y2="3981.2" gradientTransform="matrix(.12613 0 0 .12613 -140.76 -373.3)" gradientUnits="userSpaceOnUse" xlink:href="#linearGradient9163"/><linearGradient id="linearGradient7446" x1="1246.7" x2="1204.4" y1="4071.6" y2="3979.6" gradientTransform="matrix(.12613 0 0 .12613 -140.76 -373.3)" gradientUnits="userSpaceOnUse" xlink:href="#linearGradient9163"/><linearGradient id="linearGradient7669" x1="1146.1" x2="1598.3" y1="3871.5" y2="3871.5" gradientTransform="matrix(.12613 0 0 .12613 -140.76 -373.3)" gradientUnits="userSpaceOnUse" xlink:href="#linearGradient7661"/><linearGradient id="linearGradient7661"><stop stop-color="#ffe7d4" offset="0"/><stop stop-color="#d0aa80" offset="1"/></linearGradient><linearGradient id="linearGradient7667" x1="1144.4" x2="1598.3" y1="3912.2" y2="3912.2" gradientTransform="matrix(.12613 0 0 .12613 -140.76 -373.3)" gradientUnits="userSpaceOnUse" xlink:href="#linearGradient7661"/><linearGradient id="linearGradient9368" x1="1222.3" x2="1734.5" y1="3154.2" y2="3935.6" gradientTransform="matrix(.12613 0 0 .12613 -140.76 -373.3)" gradientUnits="userSpaceOnUse"><stop stop-color="#febdd9" offset="0"/><stop stop-color="#7d5897" offset="1"/></linearGradient></defs><g transform="translate(0 -3.3125)"><path d="m56.214 7.9334 2.6022 4.0239 14.605 10.15-3.7743-4.3314z" fill="#bb97bc"/><path d="m6.5693 15.524 6.933-4.9521 42.327-3.2189 2.9852 4.4662" color="#000000" fill="url(#linearGradient9303)"/><rect y="3.3125" width="77.694" height="140" color="#000000" fill="none"/><g><path d="m61.476 142.2 14.795-2.4142-2.7856-117.68-14.856-10.276z" fill="url(#linearGradient7503)"/><path d="m53.581 7.5718v-2.3509l2.8298 2.2203z" fill="#ac518d"/><path d="m16.609 10.328v-2.2164l36.94-2.847v2.2314" color="#000000" fill="url(#linearGradient8327)"/></g><g fill="none" stroke="#66245e" stroke-linecap="round" stroke-linejoin="round" stroke-width=".75676"><path d="m58.84 11.886 14.707 10.505 2.8013 117.42-15.14 2.5076" color="#000000"/><path d="m53.549 5.0328 13.422 10.22" color="#000000"/><path d="m16.609 10.204v-2.0933l36.94-3.0933v2.2314" color="#000000"/><path d="m16.609 10.204v-2.0933l36.94-3.0933v2.2314" color="#000000"/><path d="m55.843 7.3531 13.871 10.409 3.7095 4.3192" color="#000000"/></g><g><path d="m10.592 30.777 4.3452-0.13131 0.04376-10.68-4.2458 0.21885z" fill="url(#linearGradient9041)"/><path d="m10.592 41.372 4.3452-0.13131 0.04376-10.68-4.2458 0.21885z" fill="url(#linearGradient9045)"/><path d="m10.592 53.227 4.3452-0.13131 0.04376-11.437-4.2458 0.21885z" fill="url(#linearGradient9049)"/><path d="m10.592 64.579 4.3452-0.13131 0.04376-11.185-4.2458 0.21886z" fill="url(#linearGradient9053)"/><path d="m10.592 76.687 4.3452-0.13131 0.04376-12.194-4.2458-0.03342z" fill="url(#linearGradient9057)"/><path d="m10.592 87.534 4.3452-0.13131 0.04376-10.932-4.2458-0.03342z" fill="url(#linearGradient9061)"/><path d="m10.592 98.885 4.3452-0.13131 0.04376-11.437-4.2458-0.03342z" fill="url(#linearGradient9065)"/><path d="m10.592 110.99 4.3452-0.13132 0.04376-11.941-4.2458-0.03342z" fill="url(#linearGradient9069)"/><path d="m18.664 30.525 4.3452-0.13131 0.04376-10.932-4.2458 0.21885z" fill="url(#linearGradient9094)"/><path d="m18.664 41.119 4.3452-0.13131 0.04376-10.68-4.2458 0.21885z" fill="url(#linearGradient9096)"/><path d="m27.241 29.768 4.3452-0.13131 0.04376-10.68-4.2458 0.21885z" fill="url(#linearGradient9102)"/><path d="m27.493 40.615 4.3452-0.13131 0.04376-10.68-4.2458 0.21885z" fill="url(#linearGradient9104)"/><path d="m35.313 29.263 4.3452-0.13131 0.04376-10.68-4.2458 0.21885z" fill="url(#linearGradient9110)"/><path d="m35.817 40.363 4.3452-0.13131-0.20847-10.932-4.2458 0.21885z" fill="url(#linearGradient9112)"/><path d="m43.385 29.011 4.3452-0.13131 0.04376-10.68-4.2458 0.21885z" fill="url(#linearGradient9119)"/><path d="m43.637 40.11 4.3452-0.13131 0.04376-10.68-4.2458 0.21885z" fill="url(#linearGradient9121)"/><path d="m50.7 28.759 4.3452-0.13131-0.20847-10.932-4.2458 0.21885z" fill="url(#linearGradient9127)"/><path d="m50.952 39.858 4.3452-0.13131-0.20847-10.932-4.2458 0.21885z" fill="url(#linearGradient9129)"/><path d="m18.916 52.975 4.3452-0.13131-0.20847-11.689-4.2458 0.21885z" fill="url(#linearGradient9141)"/><path d="m27.745 52.471 4.3452-0.13131-0.20847-11.689-4.2458 0.21885z" fill="url(#linearGradient9143)"/><path d="m35.817 52.218 4.3452-0.13131-0.20847-11.689-4.2458 0.21885z" fill="url(#linearGradient9145)"/><path d="m43.637 52.218 4.3452-0.13131-0.20847-11.941-4.2458 0.21885z" fill="url(#linearGradient9147)"/><path d="m50.952 51.714 4.3452-0.13131-0.20847-11.941-4.2458 0.21885z" fill="url(#linearGradient9149)"/><path d="m18.916 64.326 4.3452-0.13131-0.20847-11.185-4.2458 0.21886z" fill="url(#linearGradient9164)"/><path d="m27.745 64.074 4.3452-0.13131-0.20847-11.437-4.2458 0.21886z" fill="url(#linearGradient9166)"/><path d="m36.069 63.822 4.3452-0.13131-0.46073-11.437-4.2458 0.21886z" fill="url(#linearGradient9168)"/><path d="m43.637 63.822 4.3452-0.13131-0.20847-11.689-4.2458 0.21885z" fill="url(#linearGradient9170)"/><path d="m51.205 63.57 4.3452-0.13131-0.20847-11.941-4.2458 0.21886z" fill="url(#linearGradient9172)"/><path d="m18.916 76.182 4.3452-0.13131-0.20847-11.689-4.2458-0.033417z" fill="url(#linearGradient9184)"/><path d="m27.997 75.93 4.3452-0.13131-0.20847-11.689-4.2458 0.21886z" fill="url(#linearGradient9186)"/><path d="m36.069 75.678 4.3452-0.13131-0.20847-11.689-4.2458 0.21885z" fill="url(#linearGradient9188)"/><path d="m43.889 75.426 4.3452-0.13131-0.20847-11.689-4.2458 0.21885z" fill="url(#linearGradient9190)"/><path d="m51.457 75.173 4.3452-0.13131-0.20847-11.689-4.2458 0.21886z" fill="url(#linearGradient9192)"/><path d="m18.916 87.029 4.3452-0.13131-0.20847-10.68-4.2458-0.033416z" fill="url(#linearGradient9204)"/><path d="m27.997 86.777 4.3452-0.13131-0.20847-10.68-4.2458 0.21886z" fill="url(#linearGradient9206)"/><path d="m36.069 86.525 4.3452-0.13131-0.20847-10.68-4.2458 0.21885z" fill="url(#linearGradient9208)"/><path d="m43.889 86.272 4.3452-0.13131-0.20847-10.68-4.2458 0.21886z" fill="url(#linearGradient9210)"/><path d="m51.457 86.02 4.3452-0.13131 0.04376-10.68-4.4981 0.21886z" fill="url(#linearGradient9213)"/><path d="m18.916 98.633 4.3452-0.13131 0.04376-11.185-4.2458-0.03342z" fill="url(#linearGradient9225)"/><path d="m28.25 98.633 4.3452-0.13131-0.20847-11.689-4.2458 0.21886z" fill="url(#linearGradient9227)"/><path d="m36.322 98.381 4.3452-0.13131-0.20847-11.689-4.2458 0.21886z" fill="url(#linearGradient9229)"/><path d="m43.889 98.128 4.3452-0.13131-0.20847-11.689-4.2458 0.21885z" fill="url(#linearGradient9231)"/><path d="m51.709 97.876 4.3452-0.13131 0.04376-11.689-4.4981 0.21886z" fill="url(#linearGradient9233)"/><path d="m18.916 110.74 4.3452-0.13131-0.20847-11.941-4.2458-0.03342z" fill="url(#linearGradient9246)"/><path d="m28.502 110.49 4.0929-0.13131 0.04376-11.941-4.2458 0.21885z" fill="url(#linearGradient9248)"/><path d="m36.46 110.19 4.3452-0.1313-0.2337-11.828-4.2458 0.21886z" fill="url(#linearGradient9250)"/><path d="m43.889 109.98 4.3452-0.1313 0.04376-11.689-4.4981 0.21886z" fill="url(#linearGradient9252)"/><path d="m51.709 109.23 4.3452-0.13131 0.29603-10.932-4.4981-0.03342z" fill="url(#linearGradient9254)"/><path d="m6.0741 67.792 52.74-41.22 0.49521 15.599-53.235 43.201z" fill="url(#linearGradient9316)"/><path d="m6.1391 89.048 53.324-43.596 0.35016 5.7778-53.576 44.121z" fill="url(#linearGradient9330)"/><path d="m6.4893 41.588 37.67-28.539-11.03 0.70034-26.464 19.609z" fill="url(#linearGradient9340)"/><path d="m5.964 107.28 53.926-44.121 0.35018 18.034-38.869 31.69-15.407 0.52525z" fill="url(#linearGradient9378)"/><path d="m60.733 118.55 0.06189 1.5476 16.404 0.30951v-1.5199z" fill="url(#linearGradient7628)"/><path d="m60.795 113.23-0.12379 1.5475 16.652 0.86663 0.06189-1.2999z" fill="url(#linearGradient7595)"/></g><g fill="none" stroke-width=".5045"><g stroke="#66245e"><path d="m10.779 98.929h4.0707" color="#000000"/><path d="m19.095 98.797 4.202-0.13131" color="#000000"/><path d="m28.123 98.535 4.2792-0.04376" color="#000000"/><path d="m36.297 98.447 4.4209-0.08755" color="#000000"/><path d="m43.826 98.272 4.5084-0.13131" color="#000000"/><path d="m51.792 98.053 4.3771-0.08755" color="#000000"/><path d="m51.617 86.147 4.4209-0.17508" color="#000000"/><path d="m43.826 86.454 4.3771-0.17508" color="#000000"/><path d="m36.166 86.629 4.3771-0.08754" color="#000000"/><path d="m28.079 86.935 4.2354-0.13131" color="#000000"/><path d="m19.052 87.242 4.202-0.21886" color="#000000"/><path d="m10.735 87.461 4.0707-0.08754" color="#000000"/><path d="m10.735 76.605 4.202-0.08754" color="#000000"/><path d="m18.964 76.299 4.2458-0.08755" color="#000000"/><path d="m28.068 76.018 4.1145-0.1128" color="#000000"/><path d="m36.079 75.774 4.3333-0.08754" color="#000000"/><path d="m43.695 75.555 4.3333-0.13132" color="#000000"/><path d="m51.355 75.292 4.4647-0.13131" color="#000000"/><path d="m51.18 63.605 4.5084-0.087545" color="#000000"/><path d="m43.695 63.743 4.2458-0.05048" color="#000000"/><path d="m35.947 63.868 4.2896-0.08753" color="#000000"/><path d="m27.893 64.087 4.202-0.08755" color="#000000"/><path d="m18.964 64.306 4.2896-0.08755" color="#000000"/><path d="m10.691 64.437h4.2458" color="#000000"/><path d="m10.691 53.363 4.2896-0.17507" color="#000000"/><path d="m18.92 53.013 4.2896-0.08754" color="#000000"/><path d="m27.718 52.662 4.3771-0.17509" color="#000000"/><path d="m35.86 52.356 4.2458-0.13132" color="#000000"/><path d="m43.695 52.093 4.1583-0.13131" color="#000000"/><path d="m51.005 51.787 4.4646-0.13131" color="#000000"/><path d="m50.786 39.925 4.5522-0.17509" color="#000000"/><path d="m43.607 40.275 4.1145-0.21887" color="#000000"/><path d="m35.728 40.582 4.3333-0.13132" color="#000000"/><path d="m27.587 40.932 4.3333-0.17509" color="#000000"/><path d="m18.92 41.326 4.2896-0.17509" color="#000000"/></g><path d="m10.691 41.72 4.2458-0.17509" color="#000000" stroke="#9d7b00"/><g stroke="#66245e"><path d="m10.604 30.864 4.4209-0.26262" color="#000000"/><path d="m18.92 30.471 4.2458-0.26262" color="#000000"/><path d="m27.412 30.033 4.4647-0.21885" color="#000000"/><path d="m35.597 29.595 4.2896-0.13131" color="#000000"/><path d="m43.52 29.245 4.0707-0.17509" color="#000000"/><path d="m50.698 28.851 4.4647-0.17509" color="#000000"/></g></g><g><path d="m58.838 11.787-52.173 3.8547-1.0524 126.62h55.677zm-3.7956 5.6717 1.348 92.238h-4.4578l-1.0082-91.966zm-7.5786 0.46116 0.96879 91.903-4.5524 0.1143-0.46428-91.78zm-7.9043 0.45326 1.2661 91.674-4.4105 0.0867-0.83954-91.52zm-7.7401 0.49269 0.70159 91.41-4.3553 0.0985-0.89865-91.252zm-8.6002 0.60305 0.09853 91.122-4.2016 0.0985-0.25225-91.043zm-8.1509 0.40596-0.19708 90.968-4.0045 0.12218-0.2483-90.831z" fill="url(#linearGradient9368)" stroke="#66245e" stroke-linecap="round" stroke-linejoin="round" stroke-width=".75676"/><path d="m3.6442 120.11v1.6195l57.121-1.6633-0.0055-1.4856z" fill="url(#linearGradient7667)"/><path d="m3.9068 115.08-0.043761 1.5758 56.902-1.7508-0.04376-1.5758z" fill="url(#linearGradient7669)"/></g><path d="m77.34 119.05-16.246-0.49343-57.482 1.5708-0.07252 1.5882 57.564-1.6161 16.237 0.25376z" fill="none" stroke="#5d3f00" stroke-linecap="round" stroke-linejoin="round" stroke-width=".5045"/><g fill="#0080d9" stroke="#66245e" stroke-linecap="round" stroke-linejoin="round" stroke-width=".5045"><path d="m62.254 109.43-1.8384-91.088 1.5758 0.87543 1.8384 90.387z"/><path d="m65.099 109.65-2.0135-89.775 1.5758 0.96296 1.9259 88.987z"/><path d="m66.806 22.11-1.2694-0.74411 2.1886 88.549 1.2256 0.13132z"/><path d="m69.782 110.13 1.1818 0.17509-2.2323-87.083-1.0943-0.63469z"/><path d="m71.883 110.44 1.0943 0.0875-2.3199-86.163-1.0943-0.59091z" color="#000000"/><path d="m73.886 110.7 0.91919 0.0875-2.1886-85.332-1.0505-0.63468z"/></g><g stroke="#66245e" stroke-linecap="round" stroke-linejoin="round" stroke-width=".5045"><path d="m7.9219 142.2v-12.659l15.237-0.37142v13.07z" fill="url(#linearGradient7446)"/><path d="m24.635 142.26 0.0093-13.06 15.841-0.37605-0.08596 13.371z" fill="url(#linearGradient7444)"/><path d="m41.974 142.3-0.05605-13.341 16.567-0.28544 0.11451 13.56z" fill="url(#linearGradient7441)"/><path d="m8.0526 127.73 15.116-0.38172v-3.595l-15.116 0.37141z" fill="url(#linearGradient7458)"/><path d="m24.759 127.25 15.613-0.40353 0.0048-3.5903-15.686 0.44378z" fill="url(#linearGradient7456)"/><path d="m41.972 123.25 0.01492 3.5548 16.386-0.44018 0.02298-3.4814z" fill="url(#linearGradient7454)"/><path d="m62.944 142-0.04376-13.646 3.7141-0.37141 0.24761 13.362z" fill="url(#linearGradient7486)"/><path d="m68.471 141.1-0.24761-13.263 3.0688-0.28317 0.11915 13.047z" fill="url(#linearGradient7484)"/><path d="m72.68 140.44-0.11915-13.043 2.4648-0.16952 0.11915 12.746z" fill="url(#linearGradient7482)"/><path d="m62.648 122.7v3.4957l4.0722-0.30042v-3.1953z" fill="url(#linearGradient7543)"/><path d="m68.251 125.8 2.9319-0.21885-0.08755-3.0202h-2.8889z" fill="url(#linearGradient7558)"/><path d="m72.572 125.5 2.3317-0.17509-0.08755-2.7576-2.2427-0.0438z" fill="url(#linearGradient7567)"/></g><path d="m61.012 113.31-0.01549 1.4392" fill="none" stroke="#5d3f00" stroke-width=".5045"/><path d="m61.012 118.57 0.04643 1.563" fill="none" stroke="#5d3f00" stroke-width=".5045"/><g><path d="m8.1558 139.54 12.433-10.023 2.5705-0.19035v4.1474l-10.039 8.5114-4.9643-0.0619z" fill="url(#linearGradient7489)"/><path d="m29.992 141.94h4.3356l5.9425-5.8395v-3.5639z" fill="url(#linearGradient7504)"/><path d="m43.029 141.94 15.228-12.246v4.6566l-9.3905 7.5381z" fill="url(#linearGradient7515)"/></g><g fill="none"><g stroke="#924987" stroke-width=".5045"><path d="m16.032 114.67 0.07328-97.18" color="#000000"/><path d="m17.861 114.63-0.06546-97.193" color="#000000"/><path d="m7.3039 114.67 0.4264-96.499" color="#000000"/><path d="m9.3219 114.67 0.17414-96.752" color="#000000"/><path d="m24.356 114.67 0.07328-97.685" color="#000000"/><path d="m26.185 114.63-0.06546-97.698" color="#000000"/><path d="m33.639 114.16-0.74654-97.685" color="#000000"/><path d="m35.468 114.12-0.88528-97.95" color="#000000"/><path d="m41.711 113.91-0.97357-98.189" color="#000000"/><path d="m43.035 113.87-0.6078-98.202" color="#000000"/><path d="m49.506 113.66-1.2006-98.442" color="#000000"/><path d="m50.83 113.62-0.83483-98.707" color="#000000"/><path d="m57.754 113.42-1.6294-98.959" color="#000000"/><path d="m59.079 113.38-1.2637-98.971" color="#000000"/></g><g stroke-linecap="round" stroke-linejoin="round"><path d="m77.345 114.45-16.747-1.1343-56.733 1.7704-0.072525 1.5882 56.872-1.8111 16.681 0.81552z" stroke="#5d3f00" stroke-width=".5045"/><path d="m6.574 18.271 52.24-3.9617 14.645 9.7706" color="#000000" stroke="#66245e" stroke-width=".5045"/><path d="m6.5693 15.524 6.933-4.9521 42.327-3.2189 2.9852 4.4662" color="#000000" stroke="#66245e" stroke-width=".75676"/></g></g></g></svg>
