<svg width="131.25" height="140" viewBox="0 0 168 179.2" class="prefix__icon" xmlns="http://www.w3.org/2000/svg"><path d="M5.6 168a5.6 5.6 0 005.6 5.6h145.6a5.6 5.6 0 005.6-5.6V11.2H5.6z" fill="#84bf56"/><path d="M5.6 61.6h156.8v5.6H5.6zm0 56h156.8v5.6H5.6z"/><path d="M67.2 39.2h33.6a5.6 5.6 0 100-11.2H67.2a5.6 5.6 0 100 11.2zM100.8 140H67.2a5.6 5.6 0 100 11.2h33.6a5.6 5.6 0 100-11.2zm0-56H67.2a5.6 5.6 0 100 11.2h33.6a5.6 5.6 0 100-11.2z" fill="#dae2e5"/><path d="M67.2 44.8h33.6a5.6 5.6 0 005.6-5.6 5.404 5.404 0 00-.857-2.8 5.522 5.522 0 01-4.743 2.8H67.2a5.527 5.527 0 01-4.743-2.8 5.404 5.404 0 00-.857 2.8 5.6 5.6 0 005.6 5.6zm33.6 50.4H67.2a5.527 5.527 0 01-4.743-2.8 5.404 5.404 0 00-.857 2.8 5.6 5.6 0 005.6 5.6h33.6a5.6 5.6 0 005.6-5.6 5.404 5.404 0 00-.857-2.8 5.527 5.527 0 01-4.743 2.8zm0 56H67.2a5.527 5.527 0 01-4.743-2.8 5.404 5.404 0 00-.857 2.8 5.6 5.6 0 005.6 5.6h33.6a5.6 5.6 0 005.6-5.6 5.404 5.404 0 00-.857-2.8 5.527 5.527 0 01-4.743 2.8zM5.6 11.2h156.8v5.6H5.6z"/><path d="M16.8 173.6h22.4v5.6H16.8zm112 0h22.4v5.6h-22.4zM0 0h168v11.2H0z" fill="#434854"/></svg>