<?xml version="1.0" encoding="UTF-8" standalone="no"?>
<!-- Uploaded to: SVG Repo, www.svgrepo.com, Generator: SVG Repo Mixer Tools -->

<svg
   width="131.25"
   height="140"
   viewBox="0 0 168 179.2"
   class="icon"
   version="1.1"
   id="svg1426"
   sodipodi:docname="nightstand-svgrepo-com.svg"
   inkscape:version="1.2.2 (732a01da63, 2022-12-09)"
   xmlns:inkscape="http://www.inkscape.org/namespaces/inkscape"
   xmlns:sodipodi="http://sodipodi.sourceforge.net/DTD/sodipodi-0.dtd"
   xmlns="http://www.w3.org/2000/svg"
   xmlns:svg="http://www.w3.org/2000/svg">
  <defs
     id="defs1430" />
  <sodipodi:namedview
     id="namedview1428"
     pagecolor="#ffffff"
     bordercolor="#000000"
     borderopacity="0.25"
     inkscape:showpageshadow="2"
     inkscape:pageopacity="0.0"
     inkscape:pagecheckerboard="0"
     inkscape:deskcolor="#d1d1d1"
     showgrid="false"
     inkscape:zoom="1.04625"
     inkscape:cx="374.67145"
     inkscape:cy="400.4779"
     inkscape:window-width="1920"
     inkscape:window-height="1017"
     inkscape:window-x="1912"
     inkscape:window-y="-8"
     inkscape:window-maximized="1"
     inkscape:current-layer="svg1426" />
  <path
     d="m 5.6,168 a 5.6,5.6 0 0 0 5.6,5.6 h 145.6 a 5.6,5.6 0 0 0 5.6,-5.6 V 11.2 H 5.6 Z"
     fill="#84bf56"
     id="path1412"
     style="stroke-width:0.175" />
  <path
     d="m 5.6,61.6 h 156.8 v 5.6 H 5.6 Z m 0,56 h 156.8 v 5.6 H 5.6 Z"
     fill=""
     id="path1414"
     style="stroke-width:0.175" />
  <path
     d="m 67.2,39.2 h 33.6 a 5.6,5.6 0 1 0 0,-11.2 H 67.2 a 5.6,5.6 0 1 0 0,11.2 z M 100.8,140 H 67.2 a 5.6,5.6 0 1 0 0,11.2 h 33.6 a 5.6,5.6 0 1 0 0,-11.2 z m 0,-56 H 67.2 a 5.6,5.6 0 1 0 0,11.2 h 33.6 a 5.6,5.6 0 1 0 0,-11.2 z"
     fill="#dae2e5"
     id="path1416"
     style="stroke-width:0.175" />
  <path
     d="m 67.2,44.8 h 33.6 a 5.6,5.6 0 0 0 5.6,-5.6 5.404,5.404 0 0 0 -0.8568,-2.8 5.5216,5.5216 0 0 1 -4.7432,2.8 H 67.2 a 5.5272,5.5272 0 0 1 -4.7432,-2.8 5.404,5.404 0 0 0 -0.8568,2.8 5.6,5.6 0 0 0 5.6,5.6 z m 33.6,50.4 H 67.2 a 5.5272,5.5272 0 0 1 -4.7432,-2.8 5.404,5.404 0 0 0 -0.8568,2.8 5.6,5.6 0 0 0 5.6,5.6 h 33.6 a 5.6,5.6 0 0 0 5.6,-5.6 5.404,5.404 0 0 0 -0.8568,-2.8 5.5272,5.5272 0 0 1 -4.7432,2.8 z m 0,56 H 67.2 a 5.5272,5.5272 0 0 1 -4.7432,-2.8 5.404,5.404 0 0 0 -0.8568,2.8 5.6,5.6 0 0 0 5.6,5.6 h 33.6 a 5.6,5.6 0 0 0 5.6,-5.6 5.404,5.404 0 0 0 -0.8568,-2.8 5.5272,5.5272 0 0 1 -4.7432,2.8 z"
     fill=""
     id="path1418"
     style="stroke-width:0.175" />
  <path
     d="m 5.6,11.2 h 156.8 v 5.6 H 5.6 Z"
     fill=""
     id="path1420"
     style="stroke-width:0.175" />
  <path
     d="m 16.8,173.6 h 22.4 v 5.6 H 16.8 Z m 112,0 h 22.4 v 5.6 h -22.4 z"
     fill="#434854"
     id="path1422"
     style="stroke-width:0.175" />
  <path
     d="M 0,0 H 168 V 11.2 H 0 Z"
     fill="#434854"
     id="path1424"
     style="stroke-width:0.175" />
</svg>
