<?xml version="1.0" encoding="UTF-8" standalone="no"?>
<svg
   version="1.1"
   id="Layer_1"
   x="0px"
   y="0px"
   viewBox="0 0 58.401194 140"
   enable-background="new 0 0 741.619 1674.148"
   xml:space="preserve"
   sodipodi:docname="Cartoon-Girl-With-Glasses.svg"
   width="58.401196"
   height="140"
   inkscape:version="1.2.2 (732a01da63, 2022-12-09)"
   xmlns:inkscape="http://www.inkscape.org/namespaces/inkscape"
   xmlns:sodipodi="http://sodipodi.sourceforge.net/DTD/sodipodi-0.dtd"
   xmlns="http://www.w3.org/2000/svg"
   xmlns:svg="http://www.w3.org/2000/svg"><defs
   id="defs1990" /><sodipodi:namedview
   id="namedview1988"
   pagecolor="#ffffff"
   bordercolor="#000000"
   borderopacity="0.25"
   inkscape:showpageshadow="2"
   inkscape:pageopacity="0.0"
   inkscape:pagecheckerboard="0"
   inkscape:deskcolor="#d1d1d1"
   showgrid="false"
   inkscape:zoom="0.49995581"
   inkscape:cx="334.02952"
   inkscape:cy="800.0707"
   inkscape:window-width="1920"
   inkscape:window-height="1017"
   inkscape:window-x="1912"
   inkscape:window-y="-8"
   inkscape:window-maximized="1"
   inkscape:current-layer="Layer_1" />
<g
   id="g1985"
   transform="matrix(0.08744503,0,0,0.08744503,-3.2235262,-3.1977061)">
	<path
   fill="#cb466c"
   stroke="#cb466c"
   d="m 416.199,37.524 c 4.677,-0.388 9.76,-1.257 13.974,1.414 2.08,3.854 4.399,7.616 5.804,11.784 2.745,8.059 3.817,16.553 6.34,24.677 0.444,4.889 0.601,9.815 1.571,14.64 0.98,5.019 0.869,10.148 1.562,15.194 1.266,7.68 1.146,15.499 2.569,23.161 -0.37,10.13 0.407,20.259 0.795,30.38 1.581,0.287 3.161,0.592 4.741,1.007 5.231,2.939 10.37,6.146 14.991,9.991 3.244,2.449 3.3,8.494 8.309,8.263 -3.484,1.978 -2.579,6.34 -3.3,9.658 -1.793,9.788 -8.651,17.69 -16.267,23.67 13.993,15.869 31.119,28.688 48.929,39.973 10.86,6.618 21.766,13.272 33.494,18.244 8.623,3.549 18.023,6.608 27.45,5.074 5.961,-0.896 10.841,-5.166 13.66,-10.333 5.619,-9.899 6.599,-21.572 6.987,-32.718 0.111,-6.655 2.237,-13.004 3.586,-19.455 3.133,-14.631 6.146,-29.308 7.791,-44.188 0.665,-6.673 1.081,-13.438 0.203,-20.102 -0.37,-2.421 -1.118,-5.471 -3.836,-6.155 -4.15,-1.165 -8.531,-0.619 -12.736,-0.12 -7.763,1.257 -15.656,1.331 -23.411,2.634 -0.536,-0.185 -1.599,-0.564 -2.135,-0.749 6.562,-1.248 12.801,-3.891 19.483,-4.538 7.033,-0.841 14.446,-2.357 21.322,0.065 3.808,1.349 5.009,5.767 5.213,9.39 0.481,10.527 0.12,21.1 -1.756,31.479 -0.675,5.037 -2.255,9.889 -3.041,14.889 -1.442,13.087 -6.941,25.453 -7.144,38.716 -0.176,12.801 -2.126,26.405 -10.13,36.84 -3.179,4.399 -8.309,6.867 -13.531,7.847 -6.017,0.453 -12.034,-0.083 -18.023,-0.536 0.129,-0.407 0.268,-0.823 0.425,-1.22 -8.817,-1.904 -16.978,-5.943 -25.102,-9.723 -26.073,-14.437 -51.11,-31.415 -71.434,-53.421 -7.81,1.811 -16.553,2.948 -23.947,-0.85 -4.871,-4.409 -6.941,-10.943 -8.891,-17.015 -30.167,-5.259 -58.282,-19.788 -81.407,-39.668 -2.255,-1.987 -4.695,-3.734 -6.987,-5.656 -3.873,-4.27 -7.93,-8.457 -10.906,-13.429 -3.595,-5.73 -3.623,-12.967 -2.32,-19.4 2.662,-10.795 10.998,-18.854 18.586,-26.479 5.185,-4.788 11.045,-8.762 16.359,-13.411 3.882,-3.179 8.18,-5.823 11.96,-9.131 6.368,-4.104 12.274,-8.873 18.633,-13.004 9.958,-6.848 20.494,-12.828 31.567,-17.689 m 2.347,3.558 c -8.152,2.56 -15.592,6.895 -22.81,11.377 -12.93,7.69 -24.76,17.024 -36.738,26.073 -10.795,7.819 -21.146,16.47 -29.52,26.904 -5.148,6.701 -9.52,15.333 -7.181,23.975 2.754,8.817 9.945,15.194 16.608,21.156 23.069,20.259 50.999,35.703 81.453,41.008 0.314,-5.093 1.109,-10.25 3.54,-14.797 4.501,-8.808 12.098,-17.154 22.44,-18.383 0.388,-6.072 -0.277,-12.135 -0.656,-18.189 -1.257,-24.668 -4.473,-49.216 -9.094,-73.467 -1.941,-8.392 -3.928,-17.145 -8.91,-24.326 -1.997,-3.124 -6.156,-2.07 -9.132,-1.331 m 25.38,121.555 c -7.144,1.728 -12.034,7.856 -15.73,13.79 -5.065,7.985 -5.259,18.67 -0.647,26.895 1.562,2.588 2.828,6.072 6.1,6.876 7.893,2.227 17.024,1.386 23.66,-3.734 5.813,-4.538 10.222,-10.887 12.486,-17.902 2.043,-6.423 -0.203,-14.039 -5.915,-17.81 -5.897,-4.076 -12.117,-10.092 -19.954,-8.115 z"
   id="path1867" />
	<path
   fill="#ff6c96"
   stroke="#ff6c96"
   d="m 418.546,41.082 c 2.976,-0.739 7.135,-1.793 9.131,1.331 4.982,7.181 6.969,15.934 8.91,24.326 4.621,24.252 7.837,48.8 9.094,73.467 0.379,6.054 1.044,12.117 0.656,18.189 -10.342,1.229 -17.939,9.575 -22.44,18.383 -2.431,4.547 -3.226,9.704 -3.54,14.797 -30.454,-5.305 -58.384,-20.749 -81.453,-41.008 -6.664,-5.961 -13.854,-12.339 -16.608,-21.156 -2.338,-8.642 2.033,-17.274 7.181,-23.975 8.374,-10.435 18.725,-19.085 29.52,-26.904 11.978,-9.048 23.808,-18.383 36.738,-26.073 7.219,-4.482 14.659,-8.817 22.811,-11.377 m 7.662,12.856 c -0.841,1.848 -1.664,3.752 -1.775,5.804 -0.721,8.032 0.425,16.072 1.608,24.002 2.671,16.451 6.95,32.589 11.553,48.596 1.331,4.215 2.227,8.595 4.196,12.588 0.536,-7.801 -0.527,-15.583 -1.118,-23.346 -1.654,-17.376 -3.817,-34.779 -8.087,-51.729 -1.608,-5.471 -2.939,-11.238 -6.377,-15.915 z"
   id="path1869" />
	<path
   fill="#d0436b"
   stroke="#d0436b"
   d="m 426.208,53.938 c 3.438,4.677 4.769,10.444 6.377,15.915 4.27,16.95 6.433,34.354 8.087,51.729 0.592,7.764 1.654,15.546 1.118,23.346 -1.969,-3.993 -2.865,-8.374 -4.196,-12.588 -4.603,-16.008 -8.882,-32.145 -11.553,-48.596 -1.183,-7.93 -2.329,-15.971 -1.608,-24.002 0.111,-2.051 0.934,-3.955 1.775,-5.804 z"
   id="path1871" />
	<path
   fill="#ff6c96"
   stroke="#ff6c96"
   d="m 582.82,141.583 c 4.205,-0.499 8.586,-1.044 12.736,0.12 2.717,0.684 3.466,3.734 3.836,6.155 0.878,6.664 0.462,13.429 -0.203,20.102 -1.645,14.88 -4.658,29.557 -7.791,44.188 -1.349,6.451 -3.475,12.801 -3.586,19.455 -0.388,11.146 -1.368,22.819 -6.987,32.718 -2.819,5.166 -7.699,9.436 -13.66,10.333 -9.427,1.534 -18.827,-1.525 -27.45,-5.074 -11.728,-4.972 -22.634,-11.627 -33.494,-18.244 -17.81,-11.285 -34.936,-24.104 -48.929,-39.973 7.616,-5.98 14.474,-13.882 16.267,-23.67 0.721,-3.318 -0.185,-7.68 3.3,-9.658 23.383,-11.655 47.164,-22.699 71.979,-30.962 3.383,-1.414 6.904,-2.486 10.573,-2.856 7.752,-1.303 15.645,-1.377 23.409,-2.634 m -32.506,9.178 c -11.433,3.41 -22.385,8.17 -33.365,12.782 -8.18,3.725 -16.609,7.006 -24.363,11.59 6.414,-0.776 12.625,-2.662 18.891,-4.168 18.891,-4.972 38.032,-9.732 55.731,-18.207 3.457,-1.673 7.181,-3.115 9.815,-6.035 -9.093,-0.99 -18.095,1.376 -26.709,4.038 z"
   id="path1873" />
	<path
   fill="#d0436b"
   stroke="#d0436b"
   d="m 550.314,150.761 c 8.614,-2.662 17.616,-5.028 26.71,-4.039 -2.634,2.921 -6.359,4.362 -9.815,6.035 -17.699,8.475 -36.84,13.235 -55.731,18.207 -6.266,1.507 -12.477,3.392 -18.891,4.168 7.754,-4.584 16.183,-7.865 24.363,-11.59 10.979,-4.611 21.932,-9.371 33.364,-12.781 z"
   id="path1875" />
	<path
   fill="#3b2019"
   stroke="#3b2019"
   d="m 197.136,176.409 c 40.103,-16.987 83.579,-27.228 127.295,-25.98 2.625,0.046 5.259,-0.102 7.893,-0.36 2.292,1.922 4.732,3.669 6.987,5.656 23.124,19.88 51.24,34.409 81.407,39.668 1.95,6.072 4.02,12.607 8.891,17.015 7.394,3.799 16.137,2.662 23.947,0.85 20.324,22.006 45.362,38.984 71.434,53.421 0.37,2.024 0.804,4.048 1.359,6.044 5.73,19.622 7.154,40.223 6.849,60.584 -0.074,24.455 -2.819,48.79 -5.536,73.052 -1.017,7.024 -1.848,14.067 -2.763,21.11 -1.636,12.302 -3.364,24.594 -4.926,36.905 -1.128,8.706 -2.19,17.431 -3.179,26.156 -2.985,26.387 -4.834,52.903 -5.73,79.447 -0.296,6.137 -0.296,12.292 -0.259,18.439 -0.629,45.731 3.817,91.573 13.762,136.241 3.115,14.122 8.956,27.856 18.254,39.049 10.601,13.364 25.786,22.736 42.154,27.283 6.867,2.024 14.021,2.948 21.174,2.958 11.969,0.416 24.317,-1.664 34.761,-7.745 4.603,-2.791 8.947,-6.303 11.738,-10.971 2.884,-4.769 3.836,-10.564 2.967,-16.035 -1.368,-8.235 -6.165,-15.426 -11.655,-21.516 -2.458,-3.133 -6.202,-6.978 -10.536,-4.954 -5.73,3.549 -8.429,10.25 -10.971,16.202 -0.98,2.569 -1.941,5.148 -2.874,7.745 -2.662,-2.597 -3.872,-6.192 -5.287,-9.52 -2.033,-6.294 -3.734,-13.087 -1.987,-19.649 1.081,-5.167 4.843,-9.353 9.298,-11.96 3.854,-2.246 8.29,-3.124 12.616,-4.002 8.605,-1.396 17.533,-1.71 26.054,0.397 10.804,2.616 20.509,9.205 27.043,18.198 10.324,14.104 14.797,31.59 16.535,48.753 1.322,12.043 -1.017,24.122 -4.557,35.592 -2.301,7.181 -5.333,14.169 -9.362,20.555 -4.593,7.44 -10.416,14.058 -16.877,19.927 -18.549,16.35 -42.94,24.261 -66.989,28.032 -21.461,3.484 -43.282,3.336 -64.927,2.385 -13.42,-0.832 -26.729,-2.634 -40.075,-4.122 -13.965,-33.476 -27.293,-67.21 -40.426,-101.01 -13.013,-32.626 -26.202,-65.233 -41.979,-96.638 -6.165,-12.172 -12.782,-24.141 -20.527,-35.389 -3.642,-5.61 -8.457,-10.342 -13.522,-14.658 -9.233,-7.902 -21.387,-11.941 -33.42,-12.459 -6.146,-0.416 -12.265,-1.155 -18.429,-1.294 -0.055,-8.198 -0.176,-16.387 0.092,-24.575 23.143,-2.394 46.055,-8.494 66.767,-19.224 1.192,6.202 1.091,12.588 2.505,18.771 3.373,17.422 10.361,33.956 19.122,49.326 6.229,10.841 13.328,21.156 20.047,31.692 19.843,29.973 40.491,59.493 63.44,87.202 5.693,6.599 11.211,13.392 17.533,19.427 -17.348,-27.792 -30.296,-58.005 -43.245,-88.015 -7.81,-18.919 -16.239,-37.635 -22.209,-57.238 -9.27,-29.64 -14.464,-60.473 -16.165,-91.453 5.666,-6.017 11.063,-12.311 15.814,-19.076 18.161,-25.102 29.15,-54.715 35.5,-84.863 1.248,-5.037 1.645,-10.462 4.547,-14.908 3.17,-5.351 9.021,-8.743 11.211,-14.723 3.031,-6.876 1.349,-14.945 -2.662,-21.036 -1.091,-1.673 -3.244,-1.922 -4.972,-2.477 -18.707,-4.501 -37.718,-7.708 -56.868,-9.455 -12.154,-0.86 -24.391,-1.571 -36.535,-0.25 -7.394,0.564 -14.612,2.486 -22.006,2.976 -25.5,-6.775 -50.38,-16.895 -71.896,-32.357 -18.531,-12.949 -33.938,-30.019 -45.805,-49.197 -15.065,25.222 -32.515,49.206 -53.476,69.881 -2.56,2.514 -5.222,4.926 -7.634,7.569 -7.052,0.527 -14.132,0.416 -21.174,0.961 7.08,-6.599 14.889,-12.412 21.59,-19.437 13.54,-13.642 24.77,-29.4 34.446,-45.962 5.767,-10.259 11.608,-20.61 15.518,-31.747 -12.089,10.111 -23.697,20.786 -35.703,31.008 -11.47,10.074 -23.217,19.843 -34.446,30.185 -12.939,12.385 -24.843,25.869 -35.611,40.186 -12.551,2.006 -24.88,5.074 -37.191,8.179 0.619,-15.139 1.885,-30.472 6.932,-44.872 3.549,-10.897 10.148,-20.361 16.359,-29.853 16.636,-24.936 36.285,-48.18 60.103,-66.545 15.259,-11.756 32.376,-21.488 51.092,-26.433 -19.317,1.553 -38.365,6.063 -56.591,12.607 -28.217,10.194 -54.696,26.673 -73.874,50.01 -19.52,23.845 -31.757,54.105 -32.21,85.085 -0.536,20.453 2.477,40.814 6.719,60.778 7.209,32.792 18.217,64.632 30.805,95.714 16.664,40.814 36.184,80.418 57.589,118.949 1.118,2.006 2.394,3.937 3.771,5.795 -1.553,-5.564 -4.27,-10.684 -6.423,-16.017 -14.714,-35.297 -28.106,-71.166 -39.206,-107.775 -9.862,-32.579 -18.161,-65.741 -22.477,-99.549 -0.333,-2.736 -0.481,-5.499 -0.527,-8.244 4.584,1.922 9.76,4.372 11.257,9.584 4.603,15.407 7.865,31.267 13.716,46.286 2.2,5.776 5.804,10.851 9.076,16.045 9.215,22.163 22.653,42.709 39.816,59.53 4.372,4.279 8.965,8.337 13.854,12.015 24.89,19.307 55.944,29.603 87.183,31.794 0.61,7.884 0.952,15.777 1.229,23.679 -7.2,-0.564 -14.372,0.139 -21.544,0.638 -5.739,0.323 -11.174,2.357 -16.59,4.085 -6.303,2.255 -12.745,4.612 -18.06,8.789 -6.71,5.49 -11.83,12.625 -16.072,20.111 -10.546,14.048 -17.764,30.176 -24.751,46.184 -9.741,-14.27 -19.169,-28.753 -28.124,-43.531 -4.584,-7.745 -9.159,-15.49 -13.632,-23.291 -5.324,-10.037 -10.684,-20.037 -15.934,-30.112 -5.102,-10.943 -10.509,-21.747 -15.333,-32.82 -8.216,-18.512 -15.444,-37.441 -21.886,-56.637 -3.309,-10.712 -6.793,-21.368 -9.575,-32.228 -0.462,-1.904 -0.878,-3.808 -1.312,-5.703 -1.58,-5.989 -2.976,-12.024 -4.15,-18.106 -5.083,-23.744 -8.235,-47.986 -8.577,-72.275 -0.148,-6.673 -0.019,-13.346 0.166,-20.01 1.516,-33.199 8.605,-66.517 23.651,-96.305 14.104,-28.781 35.509,-53.809 61.212,-72.876 11.26,-7.78 23.682,-13.705 36.159,-19.268 m 104.199,39.917 c 26.997,15.268 52.82,32.598 77.294,51.665 8.752,6.627 16.987,13.947 26.017,20.213 14.954,10.499 31.128,19.289 48.236,25.74 11.1,4.122 22.533,7.56 34.308,9.039 -3.078,-3.706 -7.061,-6.47 -10.536,-9.76 -24.825,-21.646 -49.04,-43.975 -73.042,-66.536 -13.18,-12.2 -29.686,-20.453 -46.933,-25.158 -17.959,-5.046 -36.786,-6.367 -55.344,-5.203 m -19.271,62.515 c 10.25,13.817 22.209,26.313 34.899,37.903 21.045,18.873 45.269,35.084 72.728,42.764 31.304,8.725 64.318,9.39 96.49,6.276 2.514,-0.185 5.019,-0.61 7.44,-1.34 -28.67,-3.836 -56.323,-13.743 -81.97,-26.951 -11.35,-5.823 -22.089,-12.764 -32.515,-20.102 -14.908,-10.268 -31.239,-18.374 -48.134,-24.806 -15.859,-6.008 -32.228,-10.823 -48.938,-13.744 z"
   id="path1877" />
	<path
   fill="#ff6c96"
   stroke="#ff6c96"
   d="m 443.926,162.637 c 7.837,-1.978 14.058,4.039 19.954,8.115 5.712,3.771 7.958,11.387 5.915,17.81 -2.264,7.015 -6.673,13.364 -12.486,17.902 -6.636,5.12 -15.768,5.961 -23.66,3.734 -3.272,-0.804 -4.538,-4.288 -6.1,-6.876 -4.612,-8.226 -4.418,-18.91 0.647,-26.895 3.696,-5.934 8.585,-12.061 15.73,-13.79 z"
   id="path1879" />
	<path
   fill="#ad8959"
   stroke="#ad8959"
   d="m 301.335,216.326 c 18.559,-1.165 37.385,0.157 55.343,5.203 17.246,4.704 33.753,12.958 46.933,25.158 24.002,22.561 48.217,44.89 73.042,66.536 3.475,3.29 7.459,6.054 10.536,9.76 -11.775,-1.479 -23.208,-4.917 -34.308,-9.039 -17.108,-6.451 -33.282,-15.241 -48.236,-25.74 -9.03,-6.266 -17.265,-13.586 -26.017,-20.213 -24.473,-19.067 -50.297,-36.396 -77.293,-51.665 z"
   id="path1881" />
	<path
   fill="#ad8959"
   stroke="#ad8959"
   d="m 191.184,236.086 c 18.226,-6.544 37.274,-11.054 56.591,-12.607 -18.716,4.945 -35.833,14.677 -51.092,26.433 -23.818,18.365 -43.467,41.609 -60.103,66.545 -6.211,9.492 -12.81,18.956 -16.359,29.853 -5.046,14.4 -6.313,29.733 -6.932,44.872 -1.349,2.375 -3.022,4.64 -3.697,7.329 -1.248,4.538 -0.166,9.27 0.98,13.706 0.823,3.216 2.421,6.248 4.778,8.614 0.046,2.745 0.194,5.508 0.527,8.244 4.316,33.809 12.616,66.97 22.477,99.549 11.1,36.609 24.492,72.479 39.206,107.775 2.153,5.333 4.871,10.453 6.423,16.017 -1.377,-1.858 -2.653,-3.789 -3.771,-5.795 C 158.807,608.09 139.287,568.486 122.623,527.672 110.035,496.59 99.027,464.75 91.818,431.958 87.576,411.995 84.563,391.634 85.099,371.18 c 0.453,-30.98 12.69,-61.24 32.21,-85.085 19.179,-23.335 45.658,-39.814 73.875,-50.009 z"
   id="path1883" />
	<path
   fill="#ad8959"
   stroke="#ad8959"
   d="m 282.064,278.841 c 16.71,2.921 33.078,7.736 48.938,13.743 16.895,6.433 33.226,14.538 48.134,24.806 10.425,7.338 21.165,14.279 32.515,20.102 25.648,13.207 53.301,23.115 81.97,26.951 -2.421,0.73 -4.926,1.155 -7.44,1.34 -32.173,3.115 -65.186,2.449 -96.49,-6.276 -27.459,-7.68 -51.683,-23.891 -72.728,-42.764 -12.689,-11.589 -24.649,-24.084 -34.899,-37.902 z"
   id="path1885" />
	<path
   fill="#ad8959"
   stroke="#ad8959"
   d="m 220.538,312.632 c 12.006,-10.222 23.614,-20.897 35.703,-31.008 -3.91,11.137 -9.751,21.488 -15.518,31.747 -9.677,16.562 -20.906,32.32 -34.446,45.962 -6.701,7.024 -14.51,12.838 -21.59,19.437 -11.47,0.887 -22.856,2.431 -34.206,4.233 10.767,-14.316 22.672,-27.801 35.611,-40.186 11.229,-10.342 22.976,-20.111 34.446,-30.185 z"
   id="path1887" />
	<path
   fill="#f4cca9"
   stroke="#f4cca9"
   d="m 213.495,370.239 c 20.962,-20.675 38.411,-44.659 53.476,-69.881 11.867,19.178 27.274,36.249 45.805,49.197 21.516,15.462 46.397,25.583 71.896,32.357 -6.83,2.117 -13.919,3.133 -20.897,4.593 -18.439,3.752 -37.099,7.163 -55.981,7.126 -34.677,-0.259 -67.284,-15.167 -101.934,-15.823 2.413,-2.643 5.075,-5.055 7.635,-7.569 z"
   id="path1889" />
	<path
   fill="#ce436a"
   stroke="#ce436a"
   d="m 184.687,378.77 c 7.043,-0.545 14.122,-0.434 21.174,-0.961 34.65,0.656 67.257,15.564 101.934,15.823 18.882,0.037 37.542,-3.373 55.981,-7.126 6.978,-1.46 14.067,-2.477 20.897,-4.593 7.394,-0.49 14.612,-2.412 22.006,-2.976 12.144,-1.322 24.381,-0.61 36.535,0.25 19.15,1.747 38.162,4.954 56.868,9.455 1.728,0.555 3.882,0.804 4.972,2.477 4.011,6.091 5.693,14.159 2.662,21.036 -2.19,5.98 -8.041,9.372 -11.211,14.723 -2.902,4.446 -3.299,9.871 -4.547,14.908 -0.185,-0.277 -0.555,-0.832 -0.739,-1.109 -3.845,15.407 -7.625,31.35 -16.581,44.724 -4.991,7.532 -12.172,13.189 -19.575,18.189 -8.577,4.418 -17.551,8.448 -27.191,9.751 -6.202,0.786 -12.459,0.36 -18.679,0.397 -7.311,-1.155 -14.612,-2.431 -21.821,-4.104 -10.758,-4.177 -21.451,-9.141 -30.038,-17.034 -7.985,-6.839 -13.531,-15.962 -18.133,-25.296 -5.564,-11.229 -9.649,-23.106 -14.196,-34.76 -1.451,-3.873 -4.51,-7.588 -8.91,-7.93 -5.823,-0.536 -13.263,-1.035 -17.135,4.288 -3.087,4.926 -4.15,10.777 -5.971,16.239 -3.817,13.808 -10.555,26.72 -19.122,38.171 -7.588,9.963 -16.83,19.178 -28.513,24.169 -6.497,3.068 -13.623,4.288 -20.537,6.063 -9.852,0.333 -19.751,0.749 -29.576,-0.351 -13.235,-1.386 -26.609,-5.093 -37.182,-13.475 -2.856,-2.366 -5.435,-5.083 -8.66,-6.969 -3.272,-5.194 -6.876,-10.268 -9.076,-16.045 -5.85,-15.019 -9.113,-30.879 -13.716,-46.286 -1.497,-5.213 -6.673,-7.662 -11.257,-9.584 -2.357,-2.366 -3.956,-5.398 -4.778,-8.614 -1.146,-4.436 -2.227,-9.168 -0.98,-13.706 0.675,-2.69 2.348,-4.954 3.697,-7.329 12.311,-3.105 24.64,-6.174 37.191,-8.179 11.351,-1.805 22.737,-3.349 34.207,-4.236 m 7.8,10.083 c -6.017,-0.887 -12.052,0.388 -17.976,1.34 -3.946,0.721 -8.105,1.137 -11.599,3.253 -4.002,-0.009 -7.523,2.061 -10.869,3.983 -3.05,1.83 -6.22,3.928 -7.625,7.357 -2.218,2.763 -2.708,6.46 -3.189,9.862 -0.379,3.521 -1.303,7.024 -0.841,10.582 l 0.998,-0.351 c -2.043,1.423 -1.118,4.251 -1.165,6.359 1.941,15.61 4.215,31.683 11.95,45.648 7.329,13.919 20.925,25.232 36.923,26.951 17.44,2.144 35.685,0.628 52.016,-6.165 10.777,-4.335 19.455,-12.588 26.239,-21.83 8.577,-12.043 14.575,-25.814 18.133,-40.13 1.775,-9.363 1.479,-19.843 -4.085,-27.949 -4.815,-7.089 -13.032,-10.684 -20.832,-13.448 -17.209,-5.656 -35.472,-7.468 -53.513,-6.867 -4.814,0.352 -10.045,-0.48 -14.565,1.405 m 208.138,-0.508 c -11.95,1.1 -23.808,3.42 -35.223,7.144 -8.448,2.902 -16.997,6.349 -23.771,12.329 -4.76,4.196 -5.407,11.045 -5.573,16.987 0.305,15.065 4.861,30.075 13.18,42.663 7.292,11.442 16.609,22.108 28.855,28.365 16.877,8.789 36.942,12.477 55.574,7.699 10.666,-2.662 21.313,-7.264 28.938,-15.416 6.433,-6.728 9.88,-15.629 12.588,-24.372 3.068,-10.351 4.769,-21.054 5.832,-31.775 0.333,-7.237 2.024,-14.769 -0.628,-21.775 -2.052,-6.276 -7.292,-11.017 -13.281,-13.503 -14.418,-6.146 -30.343,-6.054 -45.639,-7.939 -6.914,-0.888 -13.911,-0.869 -20.852,-0.407 z"
   id="path1891" />
	<path
   fill="#d0d1c1"
   stroke="#d0d1c1"
   d="m 192.487,388.853 c 4.52,-1.885 9.751,-1.054 14.566,-1.405 18.041,-0.601 36.304,1.211 53.513,6.867 7.801,2.763 16.017,6.359 20.832,13.448 5.564,8.106 5.86,18.586 4.085,27.949 -3.558,14.316 -9.557,28.088 -18.133,40.13 -6.784,9.242 -15.462,17.496 -26.239,21.83 -16.331,6.793 -34.576,8.309 -52.016,6.165 -15.999,-1.719 -29.594,-13.032 -36.923,-26.951 -7.736,-13.965 -10.009,-30.038 -11.95,-45.648 0.046,-2.107 -0.878,-4.935 1.165,-6.359 17.92,-10.646 34.982,-22.809 51.1,-36.026 m 12.699,9.695 c -0.462,9.649 0.555,19.668 5.028,28.383 -0.351,0.388 -1.035,1.146 -1.386,1.525 -4.473,-1.109 -9.141,-2.532 -12.366,-6.026 -4.215,-3.845 -6.451,-9.187 -9.862,-13.651 1.553,10.601 6.765,21.655 16.886,26.479 -1.294,1.617 -2.311,3.484 -2.819,5.499 l 0.166,-0.813 c -3.503,0.24 -7.126,0.804 -10.536,-0.268 -5.305,-1.562 -9.769,-4.917 -14.557,-7.523 5.416,8.17 14.113,14.113 23.827,15.758 -0.185,10.453 6.192,20.536 15.536,25.139 7.533,3.484 16.738,3.604 24.113,-0.379 4.205,-2.366 8.032,-5.573 10.666,-9.658 5.111,-7.653 5.767,-18.032 1.654,-26.267 -4.972,-11.063 -18.17,-17.986 -30.038,-14.945 l 0.684,-0.37 c -3.706,-2.227 -7.616,-4.538 -9.862,-8.383 -3.141,-4.453 -4.407,-9.841 -7.134,-14.5 z"
   id="path1893" />
	<path
   fill="#d0d1c1"
   stroke="#d0d1c1"
   d="m 400.625,388.345 c 6.941,-0.462 13.938,-0.481 20.851,0.407 15.296,1.885 31.221,1.793 45.639,7.939 5.989,2.486 11.229,7.228 13.281,13.503 2.653,7.006 0.961,14.538 0.628,21.775 -1.063,10.721 -2.763,21.424 -5.832,31.775 -2.708,8.743 -6.155,17.644 -12.588,24.372 -7.625,8.152 -18.272,12.754 -28.938,15.416 -18.633,4.778 -38.698,1.091 -55.574,-7.699 -12.246,-6.257 -21.562,-16.923 -28.855,-28.365 -8.318,-12.588 -12.875,-27.598 -13.18,-42.663 0.166,-5.943 0.813,-12.791 5.573,-16.987 6.775,-5.98 15.324,-9.427 23.771,-12.329 11.416,-3.724 23.274,-6.044 35.224,-7.144 m 8.503,25.897 c -2.154,2.948 -5.823,4.122 -8.198,6.83 -8.9,-0.767 -18.411,1.784 -24.585,8.512 -6.359,6.174 -8.808,15.684 -7.033,24.27 1.202,7.006 5.85,13.022 11.507,17.126 10.342,7.283 25.842,5.943 34.502,-3.373 5.61,-5.25 8.3,-13.059 8.059,-20.647 9.335,-1.654 18.023,-7.043 23.208,-15.037 -4.732,2.089 -8.9,5.379 -13.919,6.83 -3.429,1.072 -7.061,0.499 -10.564,0.268 l 0.166,0.823 c -0.573,-1.996 -1.599,-3.836 -2.828,-5.481 10.176,-4.778 15.352,-15.86 16.932,-26.461 -3.484,4.658 -5.906,10.139 -10.314,14.067 -3.235,3.263 -7.754,4.566 -12.061,5.703 -0.545,-0.638 -1.155,-1.174 -1.839,-1.617 2.68,-3.253 3.697,-7.468 4.556,-11.497 0.943,-5.573 1.451,-11.257 1.1,-16.904 -3.097,5.423 -4.622,11.717 -8.689,16.588 z"
   id="path1895" />
	<path
   fill="#626a6b"
   stroke="#626a6b"
   d="m 174.511,390.193 c 5.924,-0.952 11.96,-2.227 17.976,-1.34 -16.119,13.217 -33.18,25.38 -51.101,36.027 l -0.998,0.351 c -0.462,-3.558 0.462,-7.061 0.841,-10.582 0.481,-3.401 0.97,-7.098 3.189,-9.862 6.266,-3.614 12.542,-7.218 18.494,-11.34 3.494,-2.117 7.653,-2.533 11.599,-3.254 z"
   id="path1897" />
	<path
   fill="#b19590"
   stroke="#b19590"
   d="m 152.043,397.43 c 3.346,-1.922 6.867,-3.993 10.869,-3.983 -5.952,4.122 -12.228,7.727 -18.494,11.34 1.405,-3.429 4.575,-5.527 7.625,-7.357 z"
   id="path1899" />
	<path
   fill="#717270"
   stroke="#717270"
   d="m 409.128,414.242 c 4.067,-4.871 5.592,-11.165 8.688,-16.59 0.351,5.647 -0.157,11.331 -1.1,16.904 -0.86,4.03 -1.876,8.244 -4.556,11.497 -3.586,-1.996 -7.348,-3.669 -11.229,-4.982 2.374,-2.707 6.044,-3.881 8.197,-6.829 z"
   id="path1901" />
	<path
   fill="#717271"
   stroke="#717271"
   d="m 205.186,398.548 c 2.727,4.658 3.993,10.046 7.135,14.501 2.246,3.845 6.155,6.155 9.862,8.383 l -0.684,0.37 c -3.632,1.996 -7.569,3.327 -11.285,5.129 -4.473,-8.715 -5.49,-18.734 -5.028,-28.383 z"
   id="path1903" />
	<path
   fill="#70736f"
   stroke="#70736f"
   d="m 426.06,421.969 c 4.409,-3.928 6.83,-9.409 10.314,-14.067 -1.58,10.601 -6.756,21.683 -16.932,26.461 -1.765,-2.274 -3.558,-4.529 -5.444,-6.691 4.308,-1.138 8.827,-2.441 12.062,-5.703 z"
   id="path1905" />
	<path
   fill="#717271"
   stroke="#717271"
   d="m 186.6,408.78 c 3.41,4.464 5.647,9.806 9.862,13.651 3.226,3.494 7.893,4.917 12.366,6.026 -1.756,2.292 -3.54,4.556 -5.342,6.802 -10.121,-4.824 -15.333,-15.878 -16.886,-26.479 z"
   id="path1907" />
	<path
   fill="#d7f0f4"
   stroke="#d7f0f4"
   d="m 221.499,421.802 c 11.867,-3.041 25.065,3.882 30.038,14.945 4.113,8.235 3.457,18.614 -1.654,26.267 -2.634,4.085 -6.46,7.292 -10.666,9.658 -7.375,3.983 -16.581,3.863 -24.113,0.379 -9.344,-4.603 -15.721,-14.686 -15.536,-25.139 0.24,-2.403 0.601,-4.797 1.1,-7.154 0.508,-2.015 1.525,-3.882 2.819,-5.499 1.802,-2.246 3.586,-4.51 5.342,-6.802 0.351,-0.379 1.035,-1.137 1.386,-1.525 3.715,-1.803 7.652,-3.133 11.284,-5.13 m 5.231,12.607 c -8.318,1.562 -14.501,9.732 -14.095,18.124 -0.111,9.594 8.789,18.291 18.457,17.487 7.274,-0.296 13.891,-5.749 15.86,-12.717 1.654,-5.804 0.434,-12.477 -3.577,-17.061 -3.946,-4.761 -10.582,-7.146 -16.645,-5.833 z"
   id="path1909" />
	<path
   fill="#d7f0f4"
   stroke="#d7f0f4"
   d="m 376.346,429.584 c 6.174,-6.728 15.684,-9.279 24.585,-8.512 3.882,1.312 7.643,2.985 11.229,4.982 0.684,0.444 1.294,0.98 1.839,1.617 1.885,2.163 3.678,4.418 5.444,6.691 1.229,1.645 2.255,3.484 2.828,5.481 0.499,2.348 0.85,4.732 1.109,7.117 0.24,7.588 -2.449,15.398 -8.059,20.647 -8.66,9.316 -24.159,10.656 -34.502,3.373 -5.656,-4.104 -10.305,-10.12 -11.507,-17.126 -1.774,-8.585 0.675,-18.096 7.034,-24.27 m 13.05,4.816 c -6.266,1.312 -11.655,6.248 -13.364,12.44 -1.922,6.442 -0.065,13.901 4.926,18.475 4.316,4.168 10.906,5.767 16.664,4.048 6.959,-1.996 12.311,-8.651 12.69,-15.888 0.305,-4.316 -0.896,-8.725 -3.447,-12.218 -3.846,-5.406 -10.981,-8.225 -17.469,-6.857 z"
   id="path1911" />
	<path
   fill="#f4cca9"
   stroke="#f4cca9"
   d="m 298.959,428.9 c 3.873,-5.324 11.313,-4.825 17.135,-4.288 4.399,0.342 7.459,4.057 8.91,7.93 4.547,11.655 8.632,23.531 14.196,34.76 4.603,9.335 10.148,18.457 18.133,25.296 8.586,7.893 19.28,12.856 30.038,17.034 5.462,2.856 11.664,4.03 16.84,7.477 -2.052,1.007 -5.86,0.832 -5.832,3.891 -0.157,4.547 0.739,9.048 1.174,13.559 0.425,4.39 2.458,8.355 4.113,12.376 1.664,4.104 4.168,8.022 7.838,10.619 2.828,1.987 5.721,3.891 8.521,5.934 -6.423,4.76 -13.318,8.845 -20.407,12.523 -20.712,10.73 -43.624,16.83 -66.767,19.224 -0.268,8.189 -0.148,16.377 -0.092,24.575 6.165,0.139 12.283,0.878 18.429,1.294 1.682,7.736 3.817,15.62 2.597,23.605 -1.081,9.621 -7.588,18.3 -16.433,22.191 -10.666,4.741 -22.625,5.582 -34.15,4.945 -8.124,-0.49 -16.433,-2.745 -22.875,-7.911 -6.562,-5.37 -10.379,-13.586 -11.285,-21.932 -0.961,-7.2 0.148,-14.437 0.896,-21.599 7.172,-0.499 14.344,-1.201 21.544,-0.638 -0.277,-7.902 -0.619,-15.795 -1.229,-23.679 -31.239,-2.19 -62.293,-12.486 -87.183,-31.794 0.111,-0.49 0.323,-1.479 0.434,-1.969 0.776,0.12 1.562,0.259 2.357,0.397 0.018,-1.442 -0.028,-2.874 0.222,-4.288 0.933,-0.887 2.458,-0.471 3.651,-0.638 2.394,-4.64 5.435,-9.279 5.582,-14.658 0.157,-4.251 0.693,-8.475 0.721,-12.717 -0.009,-4.279 -2.338,-8.022 -4.372,-11.618 3.484,-3.743 9.085,-2.588 13.152,-5.259 6.913,-1.775 14.039,-2.995 20.537,-6.063 11.682,-4.991 20.925,-14.206 28.513,-24.169 8.568,-11.451 15.305,-24.363 19.122,-38.171 1.821,-5.462 2.883,-11.313 5.97,-16.239 m -8.641,64.456 c -0.804,0.841 -1.174,2.043 -0.628,3.152 1.433,3.956 4.039,7.754 7.948,9.603 5.083,2.616 11.008,1.941 16.516,1.636 -0.037,-0.592 -0.092,-1.784 -0.129,-2.375 -2.653,-0.573 -5.333,-0.924 -8.013,-1.211 -4.843,-0.536 -9.279,-3.355 -12.098,-7.274 -1.138,-1.22 -1.951,-2.976 -3.596,-3.531 m -3.78,46.268 c 0.934,3.725 2.348,7.542 5.388,10.074 5.832,4.852 13.9,6.174 21.257,5.111 7.884,-1.285 15.315,-6.719 17.847,-14.455 -7.265,2.569 -14.39,6.192 -22.274,6.331 -8.022,0.416 -15.425,-3.226 -22.218,-7.061 z"
   id="path1913" />
	<path
   fill="#717270"
   stroke="#717270"
   d="m 175.74,432.154 c 4.788,2.606 9.252,5.961 14.557,7.523 3.41,1.072 7.033,0.508 10.536,0.268 l -0.166,0.813 c -0.499,2.357 -0.86,4.751 -1.1,7.154 -9.714,-1.645 -18.411,-7.588 -23.827,-15.758 z"
   id="path1915" />
	<path
   fill="#717271"
   stroke="#717271"
   d="m 432.668,438.753 c 5.019,-1.451 9.187,-4.741 13.919,-6.83 -5.185,7.995 -13.873,13.383 -23.208,15.037 -0.259,-2.385 -0.61,-4.769 -1.109,-7.117 l -0.166,-0.823 c 3.503,0.232 7.135,0.805 10.564,-0.267 z"
   id="path1917" />
	<path
   fill="#58b8ce"
   stroke="#58b8ce"
   d="m 226.73,434.409 c 6.063,-1.312 12.699,1.072 16.645,5.832 4.011,4.584 5.231,11.257 3.577,17.061 -1.969,6.969 -8.586,12.422 -15.86,12.717 -9.668,0.804 -18.568,-7.893 -18.457,-17.487 -0.406,-8.391 5.777,-16.561 14.095,-18.123 m -4.538,6.46 c -3.494,1.322 -4.224,6.562 -1.146,8.725 2.911,2.431 8.087,0.314 8.124,-3.595 0.509,-3.66 -3.66,-6.516 -6.978,-5.13 z"
   id="path1919" />
	<path
   fill="#58b8ce"
   stroke="#58b8ce"
   d="m 389.396,434.4 c 6.488,-1.368 13.623,1.451 17.468,6.858 2.551,3.494 3.752,7.902 3.447,12.218 -0.379,7.237 -5.73,13.891 -12.69,15.888 -5.758,1.719 -12.348,0.12 -16.664,-4.048 -4.991,-4.575 -6.849,-12.034 -4.926,-18.475 1.71,-6.194 7.098,-11.129 13.365,-12.441 m 7.495,6.506 c -3.226,1.238 -4.233,5.897 -1.636,8.253 2.717,3.078 8.558,0.989 8.586,-3.161 0.546,-3.65 -3.659,-6.571 -6.95,-5.092 z"
   id="path1921" />
	<path
   fill="#d5f1f5"
   stroke="#d5f1f5"
   d="m 222.192,440.869 c 3.318,-1.386 7.486,1.47 6.978,5.13 -0.037,3.909 -5.213,6.026 -8.124,3.595 -3.077,-2.163 -2.347,-7.403 1.146,-8.725 z"
   id="path1923" />
	<path
   fill="#d6f1f5"
   stroke="#d6f1f5"
   d="m 396.891,440.906 c 3.29,-1.479 7.496,1.442 6.95,5.093 -0.028,4.15 -5.869,6.239 -8.586,3.161 -2.597,-2.357 -1.589,-7.015 1.636,-8.254 z"
   id="path1925" />
	<path
   fill="#f5c2a7"
   stroke="#f5c2a7"
   d="m 491.219,440.675 c 0.185,0.277 0.555,0.832 0.739,1.109 -6.349,30.149 -17.339,59.761 -35.5,84.863 -1.035,-2.985 -2.468,-6.294 -0.684,-9.298 -2.523,-2.255 -4.732,-4.825 -6.553,-7.662 1.95,-2.024 3.78,-4.178 5.841,-6.1 7.403,-5 14.584,-10.656 19.575,-18.189 8.957,-13.373 12.737,-29.316 16.582,-44.723 z"
   id="path1927" />
	<path
   fill="#f6b8a5"
   stroke="#f6b8a5"
   d="m 149.4,492.747 c 3.226,1.885 5.804,4.603 8.66,6.969 10.573,8.383 23.947,12.089 37.182,13.475 -2.338,0.859 -4.593,1.922 -6.867,2.93 8.521,2.819 13.743,12.643 11.987,21.322 -0.887,4.242 -1.738,8.697 -4.141,12.385 -1.46,2.458 -4.547,2.237 -7.006,2.449 -17.162,-16.822 -30.601,-37.367 -39.815,-59.53 z"
   id="path1929" />
	<path
   fill="#e4bc99"
   stroke="#e4bc99"
   d="m 290.318,493.356 c 1.645,0.555 2.458,2.311 3.595,3.531 2.819,3.919 7.255,6.738 12.098,7.274 2.68,0.286 5.361,0.638 8.013,1.211 0.037,0.592 0.092,1.784 0.129,2.375 -5.508,0.305 -11.433,0.98 -16.516,-1.636 -3.91,-1.848 -6.516,-5.647 -7.948,-9.603 -0.545,-1.109 -0.175,-2.31 0.629,-3.152 z"
   id="path1931" />
	<path
   fill="#f7b5a5"
   stroke="#f7b5a5"
   d="m 427.872,513.338 c 9.64,-1.303 18.614,-5.333 27.191,-9.751 -2.061,1.922 -3.891,4.076 -5.841,6.1 1.821,2.837 4.03,5.407 6.553,7.662 -1.784,3.004 -0.351,6.312 0.684,9.298 -4.751,6.765 -10.148,13.059 -15.814,19.076 -2.227,2.32 -4.621,4.473 -6.987,6.654 0.166,-1.072 0.351,-2.116 0.545,-3.17 -2.44,-0.092 -5.305,0.453 -7.246,-1.396 -5.712,-4.963 -11.303,-11.46 -11.128,-19.492 -0.388,-4.538 1.811,-8.605 4.446,-12.098 -3.651,-1.044 -7.375,-1.71 -11.082,-2.486 6.22,-0.036 12.477,0.389 18.679,-0.397 z"
   id="path1933" />
	<path
   fill="#f5c2a7"
   stroke="#f5c2a7"
   d="m 387.372,509.632 c 7.209,1.673 14.51,2.948 21.821,4.104 3.706,0.776 7.431,1.442 11.082,2.486 -2.634,3.494 -4.834,7.56 -4.446,12.098 -0.176,8.032 5.416,14.529 11.128,19.492 1.941,1.849 4.806,1.303 7.246,1.396 -0.194,1.054 -0.379,2.098 -0.545,3.17 -4.279,4.011 -8.891,7.662 -13.632,11.109 -2.8,-2.043 -5.693,-3.946 -8.521,-5.934 -3.669,-2.597 -6.174,-6.516 -7.838,-10.619 -1.654,-4.021 -3.688,-7.985 -4.113,-12.376 -0.434,-4.51 -1.331,-9.011 -1.174,-13.559 -0.028,-3.059 3.78,-2.884 5.832,-3.891 -5.177,-3.446 -11.378,-4.62 -16.84,-7.476 z"
   id="path1935" />
	<path
   fill="#f5c2a7"
   stroke="#f5c2a7"
   d="m 188.375,516.12 c 2.274,-1.007 4.529,-2.07 6.867,-2.93 9.825,1.1 19.723,0.684 29.576,0.351 -4.067,2.671 -9.667,1.516 -13.152,5.259 2.033,3.595 4.362,7.338 4.372,11.618 -0.028,4.242 -0.564,8.466 -0.721,12.717 -0.148,5.379 -3.189,10.019 -5.582,14.658 -1.192,0.166 -2.717,-0.25 -3.651,0.638 -0.25,1.414 -0.203,2.847 -0.222,4.288 -0.795,-0.139 -1.58,-0.277 -2.357,-0.397 -0.111,0.49 -0.323,1.479 -0.434,1.969 -4.889,-3.678 -9.483,-7.736 -13.854,-12.015 2.458,-0.213 5.545,0.009 7.006,-2.449 2.403,-3.688 3.253,-8.143 4.141,-12.385 1.754,-8.678 -3.468,-18.503 -11.989,-21.322 z"
   id="path1937" />
	<path
   fill="#fc6e95"
   stroke="#fc6e95"
   d="m 286.538,539.624 c 6.793,3.836 14.196,7.477 22.219,7.061 7.884,-0.139 15.01,-3.762 22.274,-6.331 -2.532,7.736 -9.963,13.17 -17.847,14.455 -7.357,1.063 -15.425,-0.259 -21.257,-5.111 -3.042,-2.533 -4.456,-6.35 -5.389,-10.074 z"
   id="path1939" />
	<path
   fill="#ad8959"
   stroke="#ad8959"
   d="m 433.657,552.378 c 2.366,-2.181 4.76,-4.335 6.987,-6.654 1.701,30.98 6.895,61.813 16.165,91.453 5.971,19.603 14.4,38.319 22.209,57.238 12.949,30.01 25.897,60.223 43.245,88.015 -6.322,-6.035 -11.84,-12.828 -17.533,-19.427 -22.949,-27.709 -43.596,-57.229 -63.44,-87.202 -6.719,-10.536 -13.817,-20.851 -20.047,-31.692 -8.762,-15.37 -15.749,-31.905 -19.122,-49.326 -1.414,-6.183 -1.312,-12.57 -2.505,-18.771 7.089,-3.678 13.984,-7.764 20.407,-12.523 4.743,-3.449 9.355,-7.1 13.634,-11.111 z"
   id="path1941" />
	<path
   fill="#ff6c96"
   stroke="#ff6c96"
   d="m 253.348,624.487 c 5.416,-1.728 10.851,-3.762 16.59,-4.085 -0.749,7.163 -1.858,14.4 -0.896,21.599 0.906,8.346 4.723,16.562 11.285,21.932 6.442,5.166 14.751,7.422 22.875,7.911 11.525,0.638 23.485,-0.203 34.15,-4.945 8.845,-3.891 15.352,-12.57 16.433,-22.191 1.22,-7.985 -0.915,-15.869 -2.597,-23.605 12.034,0.518 24.187,4.556 33.42,12.459 5.065,4.316 9.88,9.048 13.522,14.658 -1.765,10.157 -1.691,20.518 -2.791,30.759 -1.155,18.651 -3.041,37.256 -3.854,55.925 -2.412,25.694 -3.521,51.489 -5.435,77.22 -0.36,1.1 -0.693,2.2 -0.998,3.327 -7.653,-0.749 -15.185,-2.394 -22.838,-3.133 -24.474,-2.828 -49.151,-3.568 -73.763,-2.68 -20.555,0.933 -41.175,1.34 -61.628,3.623 -0.841,-9.168 -1.913,-18.318 -2.662,-27.496 -1.275,-11.008 -1.303,-22.098 -2.089,-33.143 -0.481,-11.618 -1.091,-23.226 -1.22,-34.853 -0.887,-15.999 -0.453,-32.025 -0.601,-48.042 -0.166,-5.453 0.73,-11.054 -1.035,-16.34 4.242,-7.486 9.363,-14.621 16.072,-20.111 5.315,-4.177 11.757,-6.534 18.06,-8.789 z"
   id="path1943" />
	<path
   fill="#f5c6a8"
   stroke="#f5c6a8"
   d="m 395.339,678.98 c 1.1,-10.241 1.026,-20.601 2.791,-30.759 7.745,11.248 14.363,23.217 20.527,35.389 15.777,31.405 28.966,64.012 41.979,96.638 13.133,33.799 26.461,67.534 40.426,101.01 11.063,27.034 22.607,53.883 33.651,80.926 2.338,5.416 5.998,10.102 8.78,15.287 4.917,8.762 9.27,17.902 12.246,27.533 2.015,6.442 3.152,13.337 2.005,20.056 -0.813,3.965 -2.81,8.059 -6.377,10.204 -3.808,1.035 -7.819,-0.166 -11.34,-1.645 -9.64,-4.242 -16.673,-12.727 -21.673,-21.757 -3.226,-5.647 -5.185,-11.867 -7.736,-17.819 -1.22,6.359 0.028,14.011 -4.52,19.196 -3.54,1.081 -6.793,-1.775 -9.02,-4.187 -5.444,-6.636 -4.963,-16.017 -3.272,-23.928 0.656,-3.854 3.226,-7.893 1.165,-11.729 -12.902,-29.252 -25.241,-58.754 -38.3,-87.932 -1.913,-4.824 -3.965,-9.594 -6.1,-14.326 -19.668,-45.417 -39.215,-90.899 -59.086,-136.232 0.813,-18.669 2.698,-37.274 3.854,-55.925 z"
   id="path1945" />
	<path
   fill="#f5c6a8"
   stroke="#f5c6a8"
   d="m 194.465,699.572 c 6.987,-16.008 14.205,-32.136 24.751,-46.184 1.765,5.287 0.869,10.887 1.035,16.34 0.148,16.017 -0.286,32.043 0.601,48.042 0.129,11.627 0.739,23.235 1.22,34.853 -1.996,4.621 -4.159,9.178 -6.081,13.836 -29.677,69.216 -59.465,138.386 -89.189,207.583 -1.377,2.653 -0.12,5.536 0.592,8.189 1.839,5.795 2.348,11.997 1.59,18.032 -0.73,5.887 -4.418,11.692 -10.139,13.799 -1.821,0.786 -3.808,-0.323 -4.501,-2.061 -2.588,-5.324 -2.209,-11.414 -3.004,-17.135 -2.338,4.778 -3.891,9.898 -6.257,14.677 -4.02,8.346 -9.686,16.1 -17.265,21.544 -4.547,3.207 -9.945,5.74 -15.638,5.453 -2.662,-0.055 -4.427,-2.421 -5.721,-4.455 -3.401,-5.536 -2.958,-12.422 -1.793,-18.549 2.486,-11.849 8.004,-22.782 13.956,-33.217 3.096,-5.749 7.348,-10.823 9.936,-16.83 20.019,-50.195 40.167,-100.344 60.26,-150.512 15.221,-37.803 30.148,-75.724 45.647,-113.405 z"
   id="path1947" />
	<path
   fill="#3b2019"
   stroke="#3b2019"
   d="m 386.05,812.125 c 1.913,-25.731 3.022,-51.526 5.435,-77.22 19.871,45.334 39.419,90.815 59.086,136.232 -6.987,-0.25 -13.651,-2.505 -20.426,-4.002 -5.499,-1.331 -10.971,-2.745 -16.451,-4.131 -8.725,-2.043 -17.006,-5.619 -25.758,-7.505 -3.707,-14.196 -1.646,-28.919 -1.886,-43.374 z"
   id="path1949" />
	<path
   fill="#cf436a"
   stroke="#cf436a"
   d="m 226.823,813.262 c 20.453,-2.283 41.073,-2.69 61.628,-3.623 24.612,-0.887 49.289,-0.148 73.763,2.68 7.653,0.739 15.185,2.385 22.838,3.133 0.305,-1.128 0.638,-2.227 0.998,-3.327 0.24,14.455 -1.821,29.178 1.885,43.374 0.795,5.296 2.052,10.545 4.178,15.49 -45.278,-6.654 -91.296,-10.453 -136.999,-6.303 -11.876,0.86 -23.596,3.031 -35.398,4.483 0.656,-2.126 1.072,-4.316 1.488,-6.488 0.379,0.139 0.767,0.286 1.165,0.453 0.665,-4.251 2.098,-8.337 2.671,-12.607 0.37,0.222 0.739,0.453 1.128,0.684 0.12,-7.237 1.913,-14.353 1.728,-21.599 -10e-4,-5.472 -0.639,-10.906 -1.073,-16.35 z"
   id="path1951" />
	<path
   fill="#ff6c96"
   stroke="#ff6c96"
   d="m 255.114,864.686 c 45.703,-4.15 91.721,-0.351 136.999,6.303 1.22,1.58 2.597,3.068 3.919,4.603 4.483,5.351 8.771,10.86 13.18,16.285 7.948,10.509 15.832,21.082 23.18,32.025 8.891,13.143 17.283,26.627 26.008,39.872 2.662,5.176 5.952,9.982 8.947,14.973 19.058,30.906 37.154,62.404 54.678,94.198 3.604,6.729 7.135,13.494 10.832,20.176 8.041,15.74 16.562,31.23 24.455,47.044 3.651,7.191 7.228,14.427 11.008,21.562 3.66,8.244 8.669,15.768 13.207,23.54 3.198,5.462 6.516,10.85 9.797,16.266 2.662,4.824 5.73,9.409 8.42,14.224 -5.832,6.793 -13.013,12.218 -20,17.745 -2.893,-8.873 -6.913,-17.311 -10.296,-25.989 -27.801,-66.563 -57.487,-132.415 -91.425,-196.095 -16.747,-30.574 -34.372,-60.676 -53.06,-90.104 -2.976,-4.464 -5.425,-9.298 -9.021,-13.309 2.338,5.73 5.943,10.804 8.956,16.183 17.764,31.285 34.271,63.292 48.948,96.148 33.282,73.153 63.338,147.73 92.867,222.473 -16.211,10.083 -34.844,14.908 -52.885,20.5 -0.573,-0.148 -1.728,-0.434 -2.311,-0.573 -19.964,-71.249 -40.888,-142.286 -65.048,-212.251 -15.444,-45.26 -33.171,-89.716 -52.173,-133.589 -3.078,-6.322 -5.12,-13.161 -8.993,-19.076 1.876,7.052 5.046,13.66 7.551,20.49 14.991,38.485 28.734,77.46 41.138,116.851 23.134,75.75 41.165,152.979 56.554,230.643 -10.758,-1.497 -21.424,1.285 -31.71,4.113 -3.521,-16.96 -8.272,-33.633 -12.144,-50.519 -24.335,-99.235 -48.606,-198.489 -72.968,-297.715 -2.024,-7.311 -3.189,-14.862 -5.749,-22.015 0.665,7.135 2.551,14.067 3.928,21.082 21.941,104.272 42.801,208.766 62.774,313.427 2.468,13.42 5.453,26.757 7.449,40.26 -16.424,4.214 -33.531,2.505 -50.195,4.982 -2.246,0.323 -4.473,0.693 -6.701,1.044 -2.043,0.305 -4.057,0.656 -6.072,1.007 -0.166,-7.967 -1.654,-15.804 -2.422,-23.716 -15.869,-130.123 -31.295,-260.302 -47.265,-390.406 -0.97,13.281 -0.139,26.627 -0.933,39.927 -0.157,18.161 -0.342,36.332 -0.453,54.502 -0.028,25.269 -0.897,50.519 -0.869,75.778 0.028,25.888 -0.85,51.757 -0.887,77.645 -0.194,19.085 -0.129,38.18 -0.684,57.266 -0.444,23.716 -0.037,47.46 -0.887,71.175 0.046,12.708 -0.277,25.426 -0.25,38.143 -2.847,-0.055 -5.684,-0.028 -8.512,-0.111 -8.235,-0.49 -16.488,-0.545 -24.723,-0.231 -8.725,0.129 -17.357,1.405 -26.054,1.895 1.146,-19.048 3.568,-38.005 5.028,-57.035 4.094,-45.981 7.643,-92.026 10.351,-138.108 3.05,-57.839 1.756,-115.862 6.941,-173.59 0.628,-10.268 2.163,-20.463 2.505,-30.74 -1.996,7.801 -2.505,15.878 -3.974,23.781 -18.965,124.43 -37.912,248.859 -56.766,373.308 -8.734,-0.323 -17.283,-2.366 -25.731,-4.409 -0.823,0.693 -1.654,1.377 -2.458,2.098 3.309,-19.64 5.638,-39.437 8.54,-59.133 15.915,-112.581 31.775,-225.171 47.644,-337.752 0.601,-3.845 1.109,-7.699 1.331,-11.581 -5.342,17.015 -9.168,34.474 -13.827,51.692 -20.333,79.521 -39.677,159.32 -56.036,239.765 -7.708,36.59 -14.566,73.357 -21.664,110.067 -9.76,-2.19 -19.501,-4.445 -29.215,-6.83 29.871,-118.228 59.678,-236.475 89.614,-354.684 2.338,-10.259 5.527,-20.333 7.209,-30.731 -11.276,33.762 -21.535,67.876 -32.237,101.823 -23.956,77.063 -47.413,154.273 -70.556,231.586 -4.667,15.749 -9.529,31.442 -14.002,47.247 -5.573,-0.712 -10.897,-2.477 -16.156,-4.344 -10.74,-3.577 -21.017,-8.401 -30.869,-13.928 21.036,-67.312 48.726,-132.267 75.501,-197.426 6.691,-16.082 13.217,-32.237 20.102,-48.236 1.072,-2.495 1.941,-5.065 2.708,-7.662 -3.392,5.869 -5.555,12.32 -8.392,18.466 -30.186,69.049 -60.251,138.164 -90.362,207.25 -3.133,7.144 -6.109,14.353 -9.529,21.368 -7.006,-4.667 -11.137,-12.394 -18.041,-17.163 -1.867,-1.405 -3.669,-2.893 -5.471,-4.353 0.388,-2.2 0.767,-4.399 1.266,-6.562 4.76,-13.891 10.222,-27.514 16.331,-40.86 5.203,-10.629 9.88,-21.498 15.222,-32.062 7.985,-17.219 15.841,-34.492 24.446,-51.406 15.851,-30.694 32.746,-60.824 49.872,-90.815 4.057,-6.682 8.022,-13.411 11.886,-20.204 17.006,-27.949 33.993,-55.925 51.184,-83.763 4.048,-6.414 7.606,-13.133 12.108,-19.243 11.796,-1.45 23.515,-3.622 35.392,-4.482 z"
   id="path1953" />
	<path
   fill="#cf436a"
   stroke="#cf436a"
   d="m 328.535,907.275 c 0.795,-13.3 -0.037,-26.646 0.933,-39.927 15.971,130.105 31.396,260.283 47.265,390.406 0.767,7.911 2.255,15.749 2.422,23.716 -10.416,2.079 -21.073,2.079 -31.637,1.867 -5.471,-0.148 -10.952,-0.157 -16.359,-0.998 -2.218,-0.305 -4.436,-0.499 -6.654,-0.555 -0.028,-12.718 0.296,-25.435 0.25,-38.143 0.85,-23.716 0.444,-47.459 0.887,-71.175 0.555,-19.085 0.49,-38.18 0.684,-57.266 0.037,-25.888 0.915,-51.757 0.887,-77.645 -0.028,-25.259 0.841,-50.51 0.869,-75.778 0.111,-18.17 0.296,-36.341 0.453,-54.502 z"
   id="path1955" />
	<path
   fill="#cf436a"
   stroke="#cf436a"
   d="m 244.799,921.869 c 4.658,-17.218 8.485,-34.677 13.827,-51.692 -0.222,3.882 -0.73,7.736 -1.331,11.581 -15.869,112.581 -31.729,225.172 -47.644,337.752 -2.902,19.696 -5.231,39.493 -8.54,59.133 l -0.665,0.555 c -4.104,-0.36 -8.161,-1.137 -12.246,-1.645 0.231,-0.425 0.471,-0.823 0.712,-1.211 -5.897,0.092 -11.461,-2.19 -17.311,-2.486 0.194,-0.425 0.388,-0.841 0.591,-1.239 -1.71,-0.296 -3.41,-0.591 -5.092,-0.915 7.098,-36.711 13.956,-73.477 21.664,-110.067 16.358,-80.447 35.702,-160.245 56.035,-239.766 z"
   id="path1957" />
	<path
   fill="#cf436a"
   stroke="#cf436a"
   d="m 202.469,981.279 c 10.703,-33.947 20.962,-68.061 32.237,-101.823 -1.682,10.398 -4.871,20.472 -7.209,30.731 -29.936,118.21 -59.743,236.456 -89.614,354.684 -6.664,-1.59 -13.364,-2.976 -19.973,-4.76 4.473,-15.804 9.335,-31.498 14.002,-47.247 23.144,-77.312 46.601,-154.523 70.557,-231.585 z"
   id="path1959" />
	<path
   fill="#cf436a"
   stroke="#cf436a"
   d="m 286.066,907.645 c 1.47,-7.902 1.978,-15.98 3.974,-23.781 -0.342,10.278 -1.876,20.472 -2.505,30.74 -5.185,57.728 -3.891,115.751 -6.941,173.59 -2.708,46.082 -6.257,92.128 -10.351,138.108 -1.46,19.03 -3.882,37.986 -5.028,57.035 -9.464,0.148 -18.984,0.139 -28.383,-1.1 -2.542,-0.305 -5.083,-0.527 -7.634,-0.619 l 0.102,-0.666 c 18.854,-124.448 37.801,-248.877 56.766,-373.307 z"
   id="path1961" />
	<path
   fill="#cf436a"
   stroke="#cf436a"
   d="m 385.301,897.82 c 3.873,5.915 5.915,12.754 8.993,19.076 19.002,43.873 36.729,88.329 52.173,133.589 24.159,69.965 45.084,141.001 65.048,212.251 0.582,0.139 1.738,0.425 2.311,0.573 -7.348,2.44 -14.954,4.39 -22.69,4.963 -0.148,-0.619 -0.444,-1.849 -0.592,-2.468 -15.389,-77.663 -33.42,-154.892 -56.554,-230.643 -12.403,-39.391 -26.147,-78.366 -41.138,-116.851 -2.504,-6.83 -5.674,-13.438 -7.551,-20.49 z"
   id="path1963" />
	<path
   fill="#cf436a"
   stroke="#cf436a"
   d="m 367.972,899.669 c 2.56,7.154 3.725,14.705 5.749,22.015 24.363,99.226 48.633,198.48 72.968,297.715 3.872,16.886 8.623,33.559 12.144,50.519 -5.582,1.488 -11.072,3.281 -16.71,4.52 -1.996,-13.503 -4.982,-26.84 -7.449,-40.26 -19.973,-104.66 -40.833,-209.154 -62.774,-313.427 -1.377,-7.015 -3.263,-13.947 -3.928,-21.082 z"
   id="path1965" />
	<path
   fill="#cf436a"
   stroke="#cf436a"
   d="m 415.94,908.005 c 3.595,4.011 6.044,8.845 9.021,13.309 18.688,29.428 36.313,59.53 53.06,90.104 33.938,63.68 63.624,129.532 91.425,196.095 3.383,8.679 7.403,17.117 10.296,25.989 -4.242,3.244 -8.42,6.599 -13.032,9.307 -29.529,-74.743 -59.585,-149.319 -92.867,-222.473 -14.677,-32.857 -31.184,-64.863 -48.948,-96.148 -3.012,-5.378 -6.617,-10.452 -8.955,-16.183 z"
   id="path1967" />
	<path
   fill="#d0436b"
   stroke="#d0436b"
   d="m 160.805,1006.982 c 2.837,-6.146 5,-12.597 8.392,-18.466 -0.767,2.597 -1.636,5.166 -2.708,7.662 -6.886,15.999 -13.411,32.154 -20.102,48.236 -26.775,65.159 -54.465,130.114 -75.501,197.426 -3.447,-1.876 -6.83,-3.882 -9.972,-6.239 3.42,-7.015 6.396,-14.224 9.529,-21.368 30.111,-69.087 60.176,-138.202 90.362,-207.251 z"
   id="path1969" />
	<path
   fill="#f5c6a8"
   stroke="#f5c6a8"
   d="m 379.155,1281.47 c 2.015,-0.351 4.03,-0.702 6.072,-1.007 -0.009,0.425 -0.018,1.275 -0.028,1.701 -1.192,8.069 -0.37,16.239 -0.601,24.354 -0.176,61.619 -0.166,123.228 -0.139,184.847 0.065,5.268 -0.61,10.656 0.887,15.814 0.083,0.36 0.259,1.081 0.351,1.451 -1.229,8.863 -3.152,17.755 -7.107,25.851 -3.697,7.782 -9.233,15.13 -17.135,18.984 -4.316,2.172 -9.806,3.79 -14.289,1.174 -5.305,-3.226 -8.143,-9.104 -10.314,-14.677 -3.873,-10.545 -5.675,-21.784 -6.128,-32.986 0.083,-0.388 0.25,-1.165 0.333,-1.553 1.59,-5.481 0.869,-11.22 0.934,-16.83 0.083,-61.619 -0.083,-123.228 0.037,-184.847 -0.222,-6.867 0.693,-13.827 -0.795,-20.601 l -0.074,-0.804 c 5.407,0.841 10.888,0.85 16.359,0.998 10.565,0.211 21.221,0.211 31.637,-1.869 z"
   id="path1971" />
	<path
   fill="#f5c6a8"
   stroke="#f5c6a8"
   d="m 265.215,1283.337 c 8.697,-0.49 17.329,-1.765 26.054,-1.895 0.102,49.021 0.018,98.052 0.046,147.073 0.111,27.542 -0.222,55.103 0.139,82.645 -1.756,5.998 -2.495,12.283 -4.889,18.106 -3.558,9.353 -9.196,18.54 -18.17,23.522 -4.251,2.357 -9.52,4.399 -14.298,2.422 -5.25,-2.338 -8.272,-7.625 -10.462,-12.653 -4.612,-10.961 -6.497,-22.884 -7.191,-34.687 0.083,-0.379 0.25,-1.146 0.333,-1.525 1.442,-4.88 0.915,-9.982 0.915,-14.982 0.009,-62.534 0.009,-125.077 0,-187.62 -0.194,-6.885 0.629,-13.854 -0.786,-20.657 l -0.074,-0.85 c 9.4,1.24 18.919,1.249 28.383,1.101 z"
   id="path1973" />
	<path
   fill="#e3cbbe"
   stroke="#e3cbbe"
   d="m 384.599,1306.517 c 0.231,-8.115 -0.592,-16.285 0.601,-24.354 0.582,20.5 0.009,41.018 0.305,61.526 -0.139,54.493 0.157,108.995 -0.157,163.488 -1.497,-5.157 -0.823,-10.546 -0.887,-15.814 -0.028,-61.618 -0.038,-123.227 0.138,-184.846 z"
   id="path1975" />
	<path
   fill="#d8cecf"
   stroke="#d8cecf"
   d="m 236.906,1283.088 c 1.414,6.802 0.592,13.771 0.786,20.657 0.009,62.543 0.009,125.086 0,187.62 0,5 0.527,10.102 -0.915,14.982 -0.028,-2.847 -0.157,-5.684 -0.166,-8.512 0.009,-50.528 0,-101.047 0,-151.575 0.184,-21.055 -0.37,-42.127 0.295,-63.172 z"
   id="path1977" />
	<path
   fill="#d7cfc8"
   stroke="#d7cfc8"
   d="m 331.234,1283.143 c 1.488,6.775 0.573,13.734 0.795,20.601 -0.12,61.619 0.046,123.228 -0.037,184.847 -0.065,5.61 0.656,11.35 -0.934,16.83 -0.527,-21.008 -0.083,-42.025 -0.231,-63.042 0.009,-25.167 0,-50.334 -0.009,-75.501 0.092,-7.801 0.028,-15.601 0.065,-23.392 0.24,-20.111 -0.389,-40.241 0.351,-60.343 z"
   id="path1979" />
	<path
   fill="#cf436a"
   stroke="#cf436a"
   d="m 327.786,1520.385 c -0.194,-4.677 1.091,-9.178 2.939,-13.411 0.453,11.202 2.255,22.44 6.128,32.986 2.172,5.573 5.009,11.451 10.314,14.677 4.483,2.616 9.973,0.998 14.289,-1.174 7.902,-3.854 13.438,-11.202 17.135,-18.984 3.956,-8.096 5.878,-16.987 7.107,-25.851 2.81,3.9 3.845,8.651 5.407,13.133 1.164,3.42 1.636,7.015 2.08,10.601 0.37,-0.25 0.758,-0.481 1.155,-0.684 0.462,7.828 2.19,15.564 1.784,23.457 0.407,8.494 -1.322,16.867 -1.765,25.324 -0.407,-0.259 -0.795,-0.508 -1.183,-0.73 -0.055,5.259 -1.765,10.277 -2.606,15.426 -0.36,-0.203 -0.702,-0.379 -1.044,-0.536 -0.767,4.483 -2.144,8.873 -4.224,12.939 -3.013,5.906 -5.462,12.144 -9.316,17.597 -3.503,4.834 -7.939,9.261 -13.54,11.572 -7.625,1.58 -15.01,-2.458 -20.065,-7.884 -4.446,-6.904 -8.327,-14.141 -11.701,-21.618 -1.294,-4.15 -2.819,-8.309 -2.911,-12.69 -0.388,0.213 -0.758,0.434 -1.118,0.684 -3.549,-16.507 -4.353,-33.467 -3.346,-50.288 0.619,-5.333 1.368,-10.666 1.405,-16.035 0.425,0.222 0.86,0.453 1.303,0.712 0,-3.346 0.231,-6.673 0.444,-9.982 0.433,0.232 0.876,0.482 1.329,0.759 z"
   id="path1981" />
	<path
   fill="#cf436a"
   stroke="#cf436a"
   d="m 233.135,1513.786 c 1.072,-1.996 2.246,-3.928 3.309,-5.915 0.693,11.802 2.579,23.725 7.191,34.687 2.19,5.028 5.213,10.314 10.462,12.653 4.778,1.978 10.046,-0.065 14.298,-2.422 8.974,-4.982 14.612,-14.168 18.17,-23.522 2.394,-5.823 3.133,-12.107 4.889,-18.106 l 0.388,-0.85 c 1.044,4.649 1.553,9.409 1.488,14.187 0.37,-0.869 0.749,-1.71 1.146,-2.523 0.24,7.671 1.054,15.315 1.719,22.967 0.092,8.457 0.416,16.96 -0.749,25.37 -0.776,8.42 -3.447,16.507 -4.686,24.853 -0.434,-0.222 -0.86,-0.434 -1.275,-0.619 -0.129,2.07 -0.277,4.15 -0.379,6.248 -0.499,-0.268 -0.989,-0.508 -1.469,-0.73 -0.12,1.756 -0.25,3.531 -0.36,5.324 -0.499,-0.24 -0.989,-0.462 -1.46,-0.665 -0.12,1.691 -0.25,3.41 -0.36,5.139 -0.425,-0.092 -0.841,-0.157 -1.248,-0.213 -1.922,5.971 -5.712,11.054 -9.196,16.183 -2.754,3.586 -5.462,7.523 -9.501,9.788 -5.194,2.2 -11.682,1.913 -16.248,-1.599 -4.926,-3.641 -9.39,-8.078 -12.366,-13.466 -4.945,-8.789 -8.346,-18.374 -10.546,-28.189 -2.403,-9.723 -3.577,-19.677 -3.715,-29.668 0.028,-8.716 0.915,-17.376 2.634,-25.916 0.527,-2.338 1.165,-4.64 1.765,-6.932 1.367,-5.592 3.521,-10.944 6.099,-16.064 z"
   id="path1983" />
</g>
</svg>
