<svg width="58.401" height="140" xmlns="http://www.w3.org/2000/svg"><path fill="#cb466c" stroke="#cb466c" d="M33.171.084c.409-.034.853-.11 1.222.123.182.337.385.666.507 1.03.24.705.334 1.448.555 2.159.039.427.052.858.137 1.28.086.439.076.887.137 1.328.11.672.1 1.356.225 2.026-.033.886.035 1.771.069 2.656.138.025.276.052.415.088a8.68 8.68 0 011.31.874c.284.214.29.743.727.723-.305.173-.225.554-.288.844-.157.856-.757 1.547-1.423 2.07 1.224 1.388 2.721 2.509 4.279 3.495.95.58 1.903 1.16 2.929 1.596.754.31 1.576.578 2.4.443.521-.078.948-.451 1.194-.903.492-.866.577-1.887.611-2.861.01-.582.196-1.137.314-1.701.274-1.28.537-2.563.681-3.864.058-.584.095-1.176.018-1.758-.032-.212-.098-.479-.335-.538-.363-.102-.746-.055-1.114-.011-.679.11-1.37.116-2.047.23l-.187-.065c.574-.11 1.12-.34 1.704-.397.615-.074 1.263-.206 1.864.006.333.118.438.504.456.82.042.921.01 1.846-.154 2.754-.059.44-.197.864-.265 1.301-.127 1.145-.607 2.226-.625 3.386-.016 1.12-.186 2.309-.886 3.221-.278.385-.727.601-1.183.687-.526.04-1.053-.008-1.576-.047.011-.036.023-.072.037-.107-.771-.166-1.485-.52-2.195-.85-2.28-1.263-4.47-2.747-6.247-4.672-.683.159-1.447.258-2.094-.074-.426-.385-.607-.957-.777-1.488-2.638-.46-5.097-1.73-7.119-3.469-.197-.173-.41-.326-.61-.494-.34-.373-.694-.74-.954-1.174-.315-.501-.317-1.134-.203-1.697.232-.944.961-1.649 1.625-2.315.453-.419.966-.766 1.43-1.173.34-.278.716-.51 1.046-.798.557-.36 1.074-.776 1.63-1.138A16.788 16.788 0 0133.17.084m.205.31c-.713.225-1.363.604-1.994.996-1.131.672-2.166 1.488-3.213 2.28-.944.683-1.849 1.44-2.581 2.352-.45.586-.833 1.34-.628 2.097.24.77.87 1.328 1.452 1.85 2.017 1.771 4.46 3.122 7.123 3.586.027-.446.097-.897.31-1.294.393-.77 1.057-1.5 1.962-1.608.033-.53-.025-1.061-.058-1.59a47.179 47.179 0 00-.795-6.425c-.17-.734-.344-1.499-.78-2.127-.174-.273-.538-.18-.798-.116m2.22 10.63c-.625.15-1.053.686-1.376 1.205a2.338 2.338 0 00-.056 2.352c.136.226.247.53.533.601.69.195 1.489.121 2.069-.326a3.28 3.28 0 001.092-1.566c.178-.562-.018-1.228-.518-1.557-.515-.357-1.06-.883-1.744-.71z" stroke-width=".08745"/><path fill="#ff6c96" stroke="#ff6c96" d="M33.376.395c.26-.065.624-.157.799.116.435.628.61 1.393.779 2.127.404 2.121.685 4.268.795 6.425.033.529.091 1.06.057 1.59-.904.108-1.568.837-1.962 1.608-.212.397-.282.848-.31 1.294-2.662-.464-5.105-1.815-7.122-3.586-.583-.522-1.212-1.08-1.452-1.85-.205-.756.177-1.51.628-2.097.732-.912 1.637-1.669 2.581-2.352 1.047-.792 2.082-1.608 3.213-2.28.63-.392 1.281-.771 1.994-.995m.67 1.124c-.073.162-.145.328-.155.507-.063.703.037 1.406.14 2.1.234 1.438.608 2.849 1.01 4.249.117.368.196.751.368 1.1.047-.682-.046-1.362-.098-2.041-.145-1.52-.334-3.041-.707-4.523-.14-.479-.257-.983-.558-1.392z" stroke-width=".08745"/><path fill="#d0436b" stroke="#d0436b" d="M34.046 1.519c.3.409.417.913.558 1.392.373 1.482.562 3.004.707 4.523.052.679.145 1.36.098 2.042-.172-.35-.25-.733-.367-1.101-.403-1.4-.777-2.811-1.01-4.25-.104-.693-.204-1.396-.141-2.099.01-.179.082-.345.155-.507z" stroke-width=".08745"/><path fill="#ff6c96" stroke="#ff6c96" d="M47.741 9.183c.368-.044.751-.091 1.114.01.237.06.303.327.335.539.077.582.04 1.174-.017 1.758-.144 1.3-.408 2.584-.682 3.864-.118.564-.304 1.119-.313 1.7-.034.975-.12 1.996-.611 2.862-.247.452-.674.825-1.195.903-.824.135-1.646-.133-2.4-.443-1.026-.435-1.98-1.017-2.929-1.596-1.557-.986-3.055-2.107-4.279-3.495.666-.523 1.266-1.214 1.423-2.07.063-.29-.016-.671.288-.844 2.045-1.02 4.125-1.985 6.295-2.708.295-.124.603-.217.924-.25.678-.114 1.368-.12 2.047-.23m-2.842.803c-1 .298-1.958.714-2.918 1.117-.715.326-1.452.613-2.13 1.014.56-.068 1.104-.233 1.652-.365 1.652-.434 3.325-.85 4.873-1.592.302-.146.628-.272.858-.528-.795-.086-1.582.12-2.335.354z" stroke-width=".08745"/><path fill="#d0436b" stroke="#d0436b" d="M44.899 9.986c.753-.233 1.54-.44 2.335-.354-.23.256-.556.382-.858.528-1.548.741-3.221 1.157-4.873 1.592-.548.132-1.091.297-1.652.365.678-.401 1.415-.688 2.13-1.014.96-.403 1.918-.82 2.918-1.117z" stroke-width=".08745"/><path fill="#3b2019" stroke="#3b2019" d="M14.015 12.228c3.507-1.485 7.309-2.38 11.131-2.271.23.004.46-.01.69-.032.201.168.414.32.612.495 2.022 1.738 4.48 3.009 7.118 3.468.17.531.352 1.103.778 1.488.646.333 1.41.233 2.094.075 1.777 1.924 3.966 3.409 6.246 4.671.033.177.07.354.12.529.5 1.715.625 3.517.598 5.297-.006 2.139-.247 4.267-.484 6.388-.089.615-.162 1.23-.242 1.846-.143 1.076-.294 2.151-.43 3.227a144.26 144.26 0 00-.278 2.288 88.314 88.314 0 00-.502 6.947 29.763 29.763 0 00-.022 1.612 51.604 51.604 0 001.203 11.914c.273 1.235.783 2.436 1.596 3.415.927 1.168 2.255 1.988 3.687 2.385.6.177 1.226.258 1.851.259 1.047.036 2.127-.145 3.04-.677.402-.244.782-.551 1.026-.96.252-.417.336-.923.26-1.402-.12-.72-.54-1.349-1.02-1.881-.214-.274-.542-.61-.92-.433-.502.31-.738.896-.96 1.416-.086.225-.17.45-.251.678-.233-.228-.339-.542-.463-.833-.178-.55-.326-1.144-.173-1.718.094-.452.423-.818.813-1.046.337-.196.724-.273 1.103-.35.752-.122 1.533-.15 2.278.035a4.161 4.161 0 012.365 1.591c.903 1.233 1.294 2.763 1.446 4.263.115 1.053-.09 2.11-.399 3.113a7.849 7.849 0 01-.818 1.797c-.402.65-.911 1.23-1.476 1.743-1.622 1.43-3.755 2.121-5.858 2.45-1.877.306-3.785.293-5.678.21-1.173-.073-2.337-.23-3.504-.361a386.472 386.472 0 01-3.535-8.833c-1.138-2.853-2.291-5.704-3.67-8.45-.54-1.065-1.119-2.111-1.796-3.095-.318-.49-.74-.904-1.182-1.282-.808-.69-1.87-1.044-2.923-1.09-.537-.036-1.072-.1-1.611-.112-.005-.717-.016-1.433.008-2.15 2.024-.209 4.027-.742 5.838-1.68.104.542.096 1.1.22 1.641.294 1.524.905 2.97 1.671 4.313.545.948 1.166 1.85 1.753 2.772 1.736 2.62 3.541 5.202 5.548 7.625.498.577.98 1.171 1.533 1.699-1.517-2.43-2.65-5.072-3.781-7.697-.683-1.654-1.42-3.29-1.942-5.005-.811-2.592-1.265-5.288-1.414-7.997.495-.526.967-1.076 1.383-1.668 1.588-2.195 2.549-4.785 3.104-7.42.11-.441.144-.916.398-1.304.277-.468.789-.765.98-1.288.265-.601.118-1.307-.233-1.84-.095-.146-.283-.167-.434-.216a34.774 34.774 0 00-4.973-.827c-1.063-.075-2.133-.137-3.195-.022-.647.05-1.278.218-1.924.26-2.23-.592-4.406-1.477-6.287-2.829-1.62-1.132-2.968-2.625-4.006-4.302-1.317 2.206-2.843 4.303-4.676 6.11-.224.22-.457.432-.668.663-.616.046-1.235.036-1.851.084.619-.577 1.302-1.086 1.888-1.7 1.184-1.193 2.166-2.57 3.012-4.02.504-.896 1.015-1.801 1.357-2.775-1.057.884-2.072 1.817-3.122 2.711-1.003.881-2.03 1.735-3.012 2.64a28.964 28.964 0 00-3.114 3.514c-1.098.175-2.176.444-3.252.715.054-1.324.164-2.664.606-3.924.31-.953.887-1.78 1.43-2.61 1.455-2.18 3.173-4.213 5.256-5.82 1.334-1.027 2.831-1.878 4.468-2.31-1.69.135-3.355.53-4.949 1.102-2.467.891-4.783 2.332-6.46 4.373-1.707 2.085-2.777 4.731-2.816 7.44-.047 1.789.216 3.57.587 5.315.63 2.867 1.593 5.652 2.694 8.37 1.457 3.569 3.164 7.032 5.036 10.401.097.176.21.344.33.507-.136-.487-.374-.934-.562-1.4-1.287-3.087-2.458-6.224-3.429-9.425-.862-2.849-1.588-5.749-1.965-8.705-.03-.24-.042-.481-.046-.721.4.168.853.382.984.838.403 1.347.688 2.734 1.2 4.047.192.506.507.95.793 1.403.806 1.939 1.981 3.735 3.482 5.206.382.374.784.73 1.211 1.05 2.177 1.689 4.892 2.59 7.624 2.781.054.69.083 1.38.108 2.07-.63-.049-1.257.013-1.884.056-.502.029-.977.206-1.451.358-.551.197-1.114.403-1.58.768-.586.48-1.034 1.104-1.405 1.759-.922 1.228-1.553 2.638-2.164 4.038a83.67 83.67 0 01-2.46-3.806c-.4-.678-.8-1.355-1.191-2.037-.466-.878-.935-1.752-1.394-2.633-.446-.957-.919-1.902-1.34-2.87a56.552 56.552 0 01-1.914-4.953c-.29-.936-.594-1.868-.838-2.818-.04-.166-.076-.333-.114-.499a24.154 24.154 0 01-.363-1.583c-.445-2.076-.72-4.196-.75-6.32a35.05 35.05 0 01.014-1.75c.133-2.903.753-5.816 2.068-8.421 1.234-2.517 3.106-4.705 5.353-6.373.985-.68 2.071-1.198 3.162-1.685m9.112 3.49a55.32 55.32 0 016.759 4.519c.765.58 1.485 1.22 2.275 1.767a19.077 19.077 0 004.218 2.251c.97.36 1.97.661 3 .79-.27-.324-.618-.565-.922-.853a231.24 231.24 0 01-6.387-5.818c-1.152-1.067-2.596-1.789-4.104-2.2-1.57-.441-3.216-.557-4.84-.455m-1.684 5.467c.896 1.208 1.942 2.3 3.051 3.314 1.84 1.65 3.959 3.068 6.36 3.74 2.737.762 5.624.82 8.438.548.22-.016.438-.053.65-.117-2.507-.335-4.925-1.202-7.168-2.357-.992-.509-1.931-1.116-2.843-1.757-1.304-.898-2.732-1.607-4.209-2.17-1.387-.525-2.818-.946-4.28-1.201z" stroke-width=".08745"/><path fill="#ff6c96" stroke="#ff6c96" d="M35.596 11.024c.685-.173 1.229.353 1.744.71.5.33.696.995.518 1.557a3.28 3.28 0 01-1.092 1.566c-.58.447-1.379.52-2.07.326-.285-.07-.396-.375-.532-.601a2.338 2.338 0 01.056-2.352c.323-.519.75-1.055 1.376-1.206z" stroke-width=".08745"/><path fill="#ad8959" stroke="#ad8959" d="M23.127 15.719c1.623-.102 3.269.014 4.84.455 1.507.411 2.95 1.133 4.103 2.2a231.24 231.24 0 006.387 5.818c.304.288.653.53.922.854-1.03-.13-2.03-.43-3-.79a19.077 19.077 0 01-4.218-2.252c-.79-.548-1.51-1.188-2.275-1.767a55.33 55.33 0 00-6.76-4.518zM13.495 17.447c1.593-.572 3.259-.967 4.948-1.103-1.636.433-3.133 1.284-4.468 2.312-2.082 1.606-3.8 3.638-5.255 5.819-.543.83-1.12 1.657-1.43 2.61-.442 1.26-.553 2.6-.607 3.924-.118.208-.264.406-.323.641-.11.397-.015.81.085 1.199.072.28.212.546.418.753.004.24.017.482.046.72.378 2.957 1.104 5.857 1.966 8.706.97 3.201 2.142 6.338 3.428 9.424.188.467.426.914.562 1.4a4.684 4.684 0 01-.33-.506c-1.872-3.37-3.579-6.832-5.036-10.401-1.1-2.718-2.063-5.503-2.693-8.37-.371-1.746-.635-3.526-.588-5.315.04-2.709 1.11-5.355 2.817-7.44 1.677-2.04 3.992-3.482 6.46-4.373zM21.442 21.186c1.46.255 2.892.676 4.279 1.201 1.477.563 2.905 1.272 4.209 2.17.912.641 1.85 1.248 2.843 1.757 2.243 1.155 4.661 2.022 7.168 2.357-.212.064-.43.101-.65.117-2.814.273-5.7.214-8.438-.549-2.401-.671-4.52-2.089-6.36-3.74-1.11-1.013-2.155-2.105-3.051-3.313z" stroke-width=".08745"/><path fill="#ad8959" stroke="#ad8959" d="M16.061 24.14c1.05-.893 2.065-1.827 3.122-2.711-.341.974-.852 1.879-1.356 2.776-.847 1.448-1.829 2.826-3.013 4.02-.586.613-1.268 1.122-1.888 1.699a37.539 37.539 0 00-2.99.37 28.963 28.963 0 013.113-3.514c.982-.904 2.01-1.759 3.012-2.64z" stroke-width=".08745"/><path fill="#f4cca9" stroke="#f4cca9" d="M15.446 29.178c1.833-1.808 3.358-3.905 4.676-6.11 1.037 1.676 2.385 3.169 4.005 4.301 1.882 1.352 4.057 2.237 6.287 2.83-.597.185-1.217.274-1.827.401-1.613.328-3.244.627-4.895.623-3.033-.022-5.884-1.326-8.914-1.383.21-.231.444-.442.668-.662z" stroke-width=".08745"/><path fill="#ce436a" stroke="#ce436a" d="M12.926 29.924c.616-.048 1.235-.038 1.852-.084 3.03.057 5.881 1.36 8.914 1.383 1.65.004 3.282-.294 4.895-.623.61-.127 1.23-.216 1.827-.401.647-.043 1.278-.211 1.925-.26 1.061-.116 2.132-.054 3.194.021 1.675.153 3.337.434 4.973.827.151.049.34.07.435.217.35.532.498 1.238.233 1.84-.192.522-.703.819-.98 1.287-.254.388-.29.863-.398 1.303a62.208 62.208 0 01-.065-.097c-.336 1.348-.667 2.742-1.45 3.911-.436.659-1.064 1.154-1.712 1.59-.75.387-1.534.74-2.377.853-.543.07-1.09.032-1.634.035a27.228 27.228 0 01-1.908-.359c-.94-.365-1.876-.8-2.626-1.49-.699-.597-1.184-1.395-1.586-2.211-.487-.982-.844-2.02-1.241-3.04-.127-.339-.395-.663-.78-.693-.509-.047-1.16-.09-1.498.375-.27.43-.363.942-.522 1.42-.334 1.207-.923 2.336-1.672 3.338-.664.87-1.472 1.677-2.494 2.113-.568.268-1.19.375-1.795.53-.862.03-1.728.066-2.587-.03-1.157-.122-2.326-.446-3.251-1.179-.25-.207-.475-.444-.757-.61-.286-.453-.602-.897-.794-1.402-.512-1.314-.797-2.7-1.2-4.048-.13-.456-.583-.67-.984-.838a1.64 1.64 0 01-.418-.753c-.1-.388-.194-.802-.085-1.199.059-.235.205-.433.323-.64 1.077-.272 2.155-.54 3.252-.716a37.426 37.426 0 012.991-.37m.683.882c-.527-.078-1.054.033-1.572.117-.345.063-.71.1-1.015.284-.35 0-.658.18-.95.348-.267.16-.544.344-.667.644-.194.241-.237.565-.279.862-.033.308-.114.614-.073.926l.087-.031c-.179.124-.098.372-.102.556.17 1.365.369 2.77 1.045 3.992.641 1.217 1.83 2.206 3.229 2.356 1.525.188 3.12.055 4.548-.539.943-.379 1.702-1.1 2.295-1.909.75-1.053 1.274-2.257 1.585-3.509.156-.819.13-1.735-.357-2.444-.42-.62-1.14-.934-1.821-1.176-1.505-.494-3.102-.653-4.68-.6-.42.03-.878-.042-1.273.123m18.2-.045c-1.045.096-2.082.3-3.08.625-.739.254-1.486.555-2.079 1.078-.416.367-.472.966-.487 1.485a7.066 7.066 0 001.153 3.731c.637 1 1.452 1.933 2.523 2.48 1.476.769 3.23 1.091 4.86.674.932-.233 1.863-.636 2.53-1.348.563-.589.864-1.367 1.1-2.132.269-.905.418-1.84.51-2.778.03-.633.178-1.292-.054-1.904-.18-.55-.638-.964-1.162-1.181-1.26-.537-2.653-.53-3.99-.694a9.412 9.412 0 00-1.824-.036z" stroke-width=".08745"/><path fill="#d0d1c1" stroke="#d0d1c1" d="M13.609 30.806c.395-.165.852-.093 1.273-.123 1.578-.053 3.175.106 4.68.6.682.242 1.4.556 1.821 1.176.487.709.513 1.625.358 2.444-.312 1.252-.836 2.456-1.586 3.51-.593.807-1.352 1.53-2.295 1.908-1.428.594-3.023.727-4.548.54-1.4-.151-2.588-1.14-3.229-2.357-.676-1.222-.875-2.627-1.045-3.992.004-.184-.077-.432.102-.556a36.344 36.344 0 004.469-3.15m1.11.847c-.04.844.049 1.72.44 2.482l-.122.134c-.39-.097-.799-.222-1.08-.527-.37-.337-.565-.804-.863-1.194.136.927.591 1.894 1.476 2.315a1.278 1.278 0 00-.246.481l.014-.07c-.306.02-.623.07-.921-.024-.464-.137-.854-.43-1.273-.658.474.714 1.234 1.234 2.084 1.378-.017.914.541 1.796 1.358 2.198.659.305 1.464.315 2.109-.033a2.63 2.63 0 00.932-.845c.447-.669.505-1.576.145-2.296-.435-.968-1.589-1.573-2.627-1.307l.06-.033c-.324-.194-.666-.396-.862-.733-.275-.39-.386-.86-.624-1.268zM31.81 30.761a9.41 9.41 0 011.822.036c1.338.165 2.73.157 3.991.694.524.217.982.632 1.162 1.18.232.613.084 1.272.055 1.905-.093.937-.242 1.873-.51 2.778-.237.765-.539 1.543-1.101 2.132-.667.712-1.598 1.115-2.53 1.348-1.63.417-3.385.095-4.86-.674-1.071-.547-1.886-1.48-2.523-2.48a7.067 7.067 0 01-1.153-3.73c.015-.52.071-1.12.487-1.486.593-.523 1.34-.824 2.079-1.078a14.105 14.105 0 013.08-.625m.744 2.265c-.189.257-.51.36-.717.597-.778-.067-1.61.156-2.15.744-.556.54-.77 1.372-.615 2.123.105.612.512 1.138 1.006 1.497.905.637 2.26.52 3.017-.295.49-.459.726-1.142.705-1.805.816-.145 1.576-.616 2.03-1.315-.414.182-.779.47-1.218.597-.3.094-.617.044-.924.023l.015.072a1.503 1.503 0 00-.247-.479c.89-.418 1.342-1.387 1.48-2.314-.304.408-.516.887-.902 1.23-.282.286-.678.4-1.054.5a.738.738 0 00-.161-.142c.234-.285.323-.653.398-1.006.083-.487.127-.984.096-1.478-.27.474-.404 1.025-.76 1.45z" stroke-width=".08745"/><path fill="#626a6b" stroke="#626a6b" d="M12.037 30.923c.518-.084 1.045-.195 1.572-.117a36.355 36.355 0 01-4.469 3.15l-.087.03c-.04-.31.04-.617.073-.925.042-.297.085-.62.28-.862.547-.316 1.096-.631 1.616-.992.306-.185.67-.221 1.015-.284z" stroke-width=".08745"/><path fill="#b19590" stroke="#b19590" d="M10.072 31.556c.292-.168.6-.35.95-.349-.52.36-1.069.676-1.617.992.123-.3.4-.483.667-.643z" stroke-width=".08745"/><path fill="#717270" stroke="#717270" d="M32.553 33.026c.355-.426.489-.977.76-1.451.03.494-.014.99-.097 1.478-.075.353-.164.721-.398 1.006a5.925 5.925 0 00-.982-.436c.207-.237.528-.34.717-.597z" stroke-width=".08745"/><path fill="#717271" stroke="#717271" d="M14.719 31.653c.238.408.35.879.624 1.268.196.337.538.539.862.733l-.06.033c-.317.174-.661.29-.986.448-.391-.762-.48-1.638-.44-2.482z" stroke-width=".08745"/><path fill="#70736f" stroke="#70736f" d="M34.033 33.701c.386-.343.598-.822.902-1.23-.138.927-.59 1.896-1.48 2.314a13.184 13.184 0 00-.476-.585c.376-.1.771-.213 1.054-.499z" stroke-width=".08745"/><path fill="#717271" stroke="#717271" d="M13.094 32.548c.298.39.494.858.862 1.194.282.305.69.43 1.081.527-.153.2-.31.398-.467.595-.885-.422-1.34-1.389-1.476-2.316z" stroke-width=".08745"/><path fill="#d7f0f4" stroke="#d7f0f4" d="M16.145 33.687c1.038-.266 2.192.34 2.627 1.307.36.72.302 1.627-.144 2.297-.23.357-.565.637-.933.844-.645.348-1.45.338-2.109.033-.817-.402-1.374-1.284-1.358-2.198.02-.21.052-.42.096-.626.044-.176.133-.34.246-.48.158-.197.314-.395.468-.595l.12-.134c.326-.157.67-.274.987-.448m.458 1.102c-.727.137-1.268.851-1.233 1.585-.01.839.769 1.6 1.614 1.53.636-.027 1.215-.504 1.387-1.113.145-.507.038-1.09-.313-1.492a1.515 1.515 0 00-1.455-.51zM29.686 34.367c.54-.588 1.372-.811 2.15-.744.34.115.668.261.982.436.06.038.113.085.16.141.165.19.322.386.477.585.107.144.197.305.247.48.044.205.074.413.097.622.02.663-.214 1.346-.705 1.805-.757.815-2.112.932-3.017.295-.494-.359-.9-.885-1.006-1.497-.155-.751.059-1.583.615-2.123m1.141.421a1.565 1.565 0 00-1.168 1.088c-.168.564-.006 1.216.43 1.616.378.364.954.504 1.458.354a1.57 1.57 0 001.11-1.39 1.63 1.63 0 00-.302-1.068 1.531 1.531 0 00-1.528-.6z" stroke-width=".08745"/><path fill="#f4cca9" stroke="#f4cca9" d="M22.919 34.307c.339-.465.99-.421 1.498-.374.385.03.653.354.78.693.397 1.02.754 2.058 1.24 3.04.403.816.888 1.614 1.586 2.212.751.69 1.686 1.124 2.627 1.49.478.249 1.02.351 1.473.653-.18.088-.513.073-.51.34-.014.398.064.791.102 1.186.038.384.215.73.36 1.082.146.359.365.702.685.929.248.173.5.34.746.519-.562.416-1.165.773-1.785 1.095-1.811.938-3.815 1.471-5.838 1.68-.024.717-.013 1.433-.008 2.15.539.012 1.074.076 1.611.113.147.676.334 1.366.227 2.064a2.461 2.461 0 01-1.437 1.94c-.932.415-1.978.489-2.986.433-.71-.043-1.437-.24-2-.692-.574-.47-.908-1.188-.987-1.918-.084-.63.013-1.262.078-1.889.627-.043 1.255-.105 1.884-.055a49.145 49.145 0 00-.107-2.07c-2.732-.192-5.448-1.093-7.624-2.781l.038-.172c.068.01.136.022.206.034.002-.126-.002-.251.02-.375.081-.077.214-.04.319-.055.209-.406.475-.812.488-1.282.014-.372.06-.741.063-1.112-.001-.374-.205-.702-.382-1.016.304-.327.794-.226 1.15-.46.604-.155 1.227-.262 1.795-.53 1.022-.437 1.83-1.242 2.494-2.114.749-1.001 1.338-2.13 1.672-3.338.16-.477.252-.989.522-1.42m-.756 5.637c-.07.073-.102.178-.055.275.126.346.354.678.695.84.445.229.963.17 1.445.143-.004-.052-.008-.156-.012-.207a6.679 6.679 0 00-.7-.106 1.538 1.538 0 01-1.058-.636c-.1-.107-.17-.26-.315-.31m-.33 4.047c.081.325.205.66.471.88.51.425 1.215.54 1.859.448.69-.113 1.339-.588 1.56-1.264-.635.224-1.258.541-1.947.553-.702.037-1.35-.282-1.943-.617z" stroke-width=".08745"/><path fill="#717270" stroke="#717270" d="M12.144 34.592c.419.228.81.521 1.273.658.298.094.615.044.921.023l-.014.071a5.811 5.811 0 00-.096.626c-.85-.144-1.61-.664-2.084-1.378z" stroke-width=".08745"/><path fill="#717271" stroke="#717271" d="M34.611 35.17c.439-.128.803-.416 1.217-.598-.453.699-1.213 1.17-2.03 1.315a6.232 6.232 0 00-.096-.623l-.015-.072c.307.02.624.07.924-.023z" stroke-width=".08745"/><path fill="#58b8ce" stroke="#58b8ce" d="M16.603 34.79c.53-.116 1.11.093 1.455.51.351.4.458.984.313 1.491-.172.61-.75 1.086-1.387 1.112-.845.07-1.623-.69-1.614-1.529-.035-.734.506-1.448 1.233-1.585m-.397.565c-.305.116-.37.574-.1.763.254.213.707.028.71-.314.045-.32-.32-.57-.61-.449zM30.827 34.788a1.53 1.53 0 011.528.6c.223.306.328.691.301 1.069a1.57 1.57 0 01-1.11 1.389c-.503.15-1.08.01-1.457-.354-.436-.4-.599-1.052-.43-1.616.149-.541.62-.973 1.168-1.088m.656.57c-.282.108-.37.515-.143.721.237.27.748.086.75-.276.048-.32-.32-.575-.607-.446z" stroke-width=".08745"/><path fill="#d5f1f5" stroke="#d5f1f5" d="M16.206 35.354c.29-.121.655.129.61.449-.003.342-.456.527-.71.314-.27-.19-.205-.647.1-.763z" stroke-width=".08745"/><path fill="#d6f1f5" stroke="#d6f1f5" d="M31.483 35.357c.287-.129.655.126.607.446-.002.363-.513.545-.75.276-.228-.206-.14-.613.143-.722z" stroke-width=".08745"/><path fill="#f5c2a7" stroke="#f5c2a7" d="M39.731 35.337l.065.097c-.555 2.636-1.516 5.226-3.105 7.421-.09-.261-.215-.55-.06-.813a3.265 3.265 0 01-.572-.67c.17-.177.33-.365.51-.534.648-.437 1.276-.931 1.712-1.59.783-1.17 1.114-2.564 1.45-3.91z" stroke-width=".08745"/><path fill="#f6b8a5" stroke="#f6b8a5" d="M9.84 39.89c.283.165.508.403.758.61.925.733 2.094 1.057 3.251 1.178-.204.075-.401.168-.6.257.745.246 1.202 1.105 1.048 1.864-.077.371-.152.76-.362 1.083-.128.215-.398.196-.613.214-1.5-1.47-2.676-3.267-3.481-5.205z" stroke-width=".08745"/><path fill="#e4bc99" stroke="#e4bc99" d="M22.163 39.944c.144.048.215.202.315.309.246.342.634.589 1.058.636.234.025.468.055.7.106.004.051.008.156.012.207-.482.027-1 .086-1.445-.143-.342-.161-.57-.494-.695-.84-.047-.097-.015-.202.055-.275z" stroke-width=".08745"/><path fill="#f7b5a5" stroke="#f7b5a5" d="M34.192 41.691c.843-.114 1.627-.466 2.377-.853-.18.169-.34.357-.51.534.159.248.352.473.573.67-.156.263-.031.552.06.813a15.163 15.163 0 01-1.383 1.668c-.195.203-.404.391-.611.582.014-.094.03-.185.047-.277-.213-.008-.464.04-.633-.122-.5-.434-.989-1.002-.973-1.705-.034-.397.158-.752.388-1.058-.319-.091-.644-.15-.969-.217.544-.003 1.091.034 1.634-.035z" stroke-width=".08745"/><path fill="#f5c2a7" stroke="#f5c2a7" d="M30.65 41.367c.63.146 1.27.258 1.908.359.324.068.65.126.97.217-.23.306-.423.661-.39 1.058-.015.703.474 1.27.974 1.705.17.161.42.114.633.122a9.841 9.841 0 00-.047.277c-.374.35-.778.67-1.192.971-.245-.178-.498-.345-.745-.518-.321-.228-.54-.57-.686-.929-.144-.352-.322-.698-.36-1.082-.037-.395-.116-.788-.102-1.186-.003-.267.33-.252.51-.34-.453-.302-.995-.404-1.473-.654zM13.249 41.934c.199-.088.396-.18.6-.256.86.096 1.725.06 2.587.03-.356.234-.846.133-1.15.46.177.315.381.642.382 1.017-.003.37-.05.74-.063 1.112-.013.47-.279.876-.488 1.282-.104.014-.238-.022-.32.055-.021.124-.017.25-.019.375-.07-.012-.138-.024-.206-.034l-.038.172c-.427-.322-.83-.677-1.211-1.05.214-.02.484 0 .612-.215.21-.323.285-.712.362-1.083.154-.759-.303-1.618-1.048-1.865z" stroke-width=".08745"/><path fill="#fc6e95" stroke="#fc6e95" d="M21.833 43.99c.594.335 1.241.654 1.943.617.69-.012 1.312-.329 1.947-.553-.22.676-.87 1.151-1.56 1.264-.643.093-1.349-.023-1.859-.447-.266-.222-.39-.556-.471-.881z" stroke-width=".08745"/><path fill="#ad8959" stroke="#ad8959" d="M34.698 45.105c.207-.19.416-.38.61-.582.15 2.71.604 5.405 1.414 7.997.522 1.714 1.26 3.351 1.942 5.005 1.133 2.625 2.265 5.267 3.782 7.697-.553-.528-1.036-1.122-1.533-1.699-2.007-2.423-3.813-5.004-5.548-7.625-.587-.922-1.208-1.824-1.753-2.772-.766-1.344-1.377-2.79-1.672-4.313-.124-.54-.115-1.1-.22-1.641.62-.322 1.224-.68 1.785-1.095.415-.302.818-.621 1.193-.972z" stroke-width=".08745"/><path fill="#ff6c96" stroke="#ff6c96" d="M18.93 51.41c.474-.15.95-.328 1.451-.357-.065.627-.162 1.26-.078 1.89.08.729.413 1.447.987 1.917.563.452 1.29.649 2 .692 1.008.056 2.054-.018 2.986-.433a2.461 2.461 0 001.437-1.94c.107-.698-.08-1.388-.227-2.064 1.052.045 2.115.398 2.923 1.09.442.377.863.79 1.182 1.28-.154.89-.148 1.795-.244 2.69-.101 1.632-.266 3.258-.337 4.891-.211 2.247-.308 4.502-.475 6.753a5.82 5.82 0 00-.088.29c-.669-.065-1.327-.209-1.997-.274a42.767 42.767 0 00-6.45-.234c-1.797.082-3.6.117-5.389.317-.074-.802-.167-1.602-.233-2.404-.111-.963-.114-1.933-.182-2.899-.042-1.016-.096-2.03-.107-3.047-.078-1.4-.04-2.8-.053-4.201-.014-.477.064-.967-.09-1.43.37-.654.819-1.278 1.405-1.758.465-.365 1.028-.571 1.58-.768z" stroke-width=".08745"/><path fill="#f5c6a8" stroke="#f5c6a8" d="M31.347 56.176c.096-.896.09-1.802.244-2.69.677.984 1.256 2.03 1.795 3.095 1.38 2.746 2.533 5.597 3.67 8.45a386.633 386.633 0 003.536 8.833c.967 2.364 1.977 4.712 2.942 7.077.205.473.525.883.768 1.336.43.766.81 1.566 1.071 2.408.176.563.276 1.166.175 1.754-.07.346-.245.704-.557.892-.333.09-.684-.015-.992-.144-.843-.37-1.458-1.113-1.895-1.902-.282-.494-.453-1.038-.677-1.559-.106.556.003 1.226-.395 1.679-.31.095-.594-.155-.789-.366-.476-.58-.434-1.4-.286-2.093.058-.337.282-.69.102-1.025-1.128-2.558-2.207-5.138-3.349-7.69a29.413 29.413 0 00-.533-1.252c-1.72-3.972-3.43-7.949-5.167-11.913.071-1.632.236-3.26.337-4.89zM13.781 57.976c.611-1.4 1.243-2.81 2.165-4.038.154.462.076.952.09 1.429.013 1.4-.025 2.802.053 4.2.011 1.017.065 2.032.107 3.048-.175.405-.364.803-.532 1.21-2.595 6.053-5.2 12.101-7.8 18.152-.12.232-.01.485.052.717.161.506.206 1.049.14 1.576-.064.515-.387 1.023-.887 1.207-.16.069-.333-.028-.394-.18-.226-.466-.193-.998-.262-1.499-.205.418-.34.866-.548 1.284-.351.73-.847 1.408-1.51 1.884-.397.28-.869.502-1.367.477-.233-.005-.387-.212-.5-.39-.297-.484-.259-1.086-.157-1.622.218-1.036.7-1.992 1.22-2.905.271-.502.643-.946.87-1.471 1.75-4.39 3.512-8.775 5.269-13.162 1.33-3.306 2.636-6.622 3.991-9.917z" stroke-width=".08745"/><path fill="#3b2019" stroke="#3b2019" d="M30.535 67.819c.167-2.25.264-4.506.475-6.753 1.738 3.964 3.447 7.941 5.167 11.913-.611-.022-1.194-.22-1.786-.35-.481-.116-.96-.24-1.439-.361-.763-.179-1.487-.492-2.252-.657-.325-1.24-.144-2.528-.165-3.792z" stroke-width=".08745"/><path fill="#cf436a" stroke="#cf436a" d="M16.611 67.918c1.789-.2 3.592-.235 5.39-.317a42.778 42.778 0 016.45.235c.669.064 1.327.208 1.996.274.027-.1.056-.195.088-.291.02 1.264-.16 2.551.164 3.792.07.464.18.923.366 1.355-3.96-.582-7.984-.914-11.98-.551-1.039.075-2.063.265-3.095.392.057-.186.093-.378.13-.568.033.013.067.025.102.04.058-.372.183-.729.233-1.102l.099.06c.01-.633.167-1.256.15-1.89 0-.478-.055-.953-.093-1.429z" stroke-width=".08745"/><path fill="#ff6c96" stroke="#ff6c96" d="M19.085 72.415c3.996-.363 8.02-.03 11.98.551.106.138.227.268.343.402.392.468.766.95 1.152 1.425a61.532 61.532 0 012.027 2.8c.777 1.15 1.511 2.328 2.274 3.487.233.452.52.872.783 1.309a195.114 195.114 0 014.781 8.237c.315.588.624 1.18.947 1.764.703 1.377 1.448 2.731 2.139 4.114.319.629.632 1.262.962 1.886.32.72.758 1.378 1.155 2.058.28.478.57.949.857 1.422.233.422.5.823.736 1.244-.51.594-1.138 1.069-1.749 1.552-.253-.776-.604-1.514-.9-2.273-2.431-5.82-5.027-11.579-7.995-17.147a141.431 141.431 0 00-4.64-7.88c-.26-.39-.474-.812-.788-1.163.204.5.52.945.783 1.415a98.013 98.013 0 014.28 8.408c2.91 6.396 5.539 12.918 8.12 19.454-1.417.881-3.046 1.303-4.624 1.792a14.83 14.83 0 00-.202-.05c-1.746-6.23-3.575-12.442-5.688-18.56-1.35-3.958-2.9-7.845-4.562-11.682-.27-.553-.448-1.15-.787-1.668.164.617.442 1.195.66 1.792a163.24 163.24 0 013.598 10.218c2.023 6.624 3.6 13.377 4.945 20.169-.94-.131-1.873.112-2.773.36-.307-1.484-.723-2.942-1.062-4.418-2.128-8.678-4.25-17.357-6.38-26.034-.177-.64-.28-1.3-.503-1.925.058.624.223 1.23.344 1.843a1484.673 1484.673 0 015.489 27.408c.216 1.173.477 2.34.651 3.52-1.436.369-2.932.22-4.39.436-.196.028-.39.06-.585.091-.179.027-.355.058-.531.088-.015-.696-.145-1.382-.212-2.073-1.388-11.379-2.736-22.762-4.133-34.14-.085 1.162-.012 2.329-.082 3.492-.013 1.588-.03 3.177-.04 4.766-.002 2.21-.078 4.418-.075 6.626.002 2.264-.074 4.526-.078 6.79-.017 1.669-.011 3.339-.06 5.008-.038 2.073-.003 4.15-.077 6.224.004 1.11-.024 2.223-.022 3.335-.249-.005-.497-.003-.744-.01a22.176 22.176 0 00-2.162-.02c-.763.011-1.518.123-2.278.166.1-1.666.312-3.324.44-4.988.357-4.02.668-8.047.904-12.077.267-5.057.154-10.131.607-15.18.055-.897.19-1.789.22-2.687-.175.682-.22 1.388-.348 2.08-1.659 10.88-3.315 21.76-4.964 32.643-.764-.028-1.511-.207-2.25-.385-.072.06-.145.12-.215.183.29-1.717.493-3.448.747-5.17 1.391-9.845 2.778-19.69 4.166-29.535.053-.337.097-.674.116-1.013-.467 1.488-.801 3.014-1.209 4.52-1.778 6.954-3.47 13.932-4.9 20.966-.674 3.2-1.274 6.415-1.894 9.625-.854-.191-1.705-.389-2.555-.597 2.612-10.339 5.219-20.679 7.836-31.015.205-.898.484-1.778.63-2.688-.985 2.953-1.882 5.936-2.818 8.904a2008.546 2008.546 0 00-6.17 20.251c-.408 1.377-.833 2.75-1.224 4.132-.488-.063-.953-.217-1.413-.38a15.637 15.637 0 01-2.7-1.218c1.84-5.886 4.261-11.566 6.603-17.264.585-1.406 1.155-2.819 1.758-4.218.093-.218.17-.443.236-.67-.296.513-.485 1.077-.733 1.615-2.64 6.038-5.27 12.082-7.902 18.123-.274.624-.534 1.255-.833 1.868-.613-.408-.974-1.084-1.578-1.5-.163-.123-.32-.254-.478-.381.033-.193.067-.385.11-.574a38.815 38.815 0 011.428-3.573c.455-.93.864-1.88 1.331-2.804.699-1.505 1.386-3.016 2.138-4.495 1.386-2.684 2.864-5.319 4.361-7.941.355-.584.702-1.173 1.04-1.767 1.487-2.444 2.972-4.89 4.475-7.325.354-.56.665-1.148 1.06-1.682 1.03-.127 2.055-.317 3.094-.392z" stroke-width=".08745"/><path fill="#cf436a" stroke="#cf436a" d="M25.505 76.139c.07-1.163-.003-2.33.082-3.491 1.396 11.377 2.745 22.76 4.133 34.139.067.691.197 1.377.212 2.073-.911.182-1.843.182-2.767.164-.478-.013-.958-.014-1.43-.088a5.241 5.241 0 00-.582-.048c-.003-1.112.026-2.224.022-3.335.074-2.074.039-4.15.077-6.224.049-1.67.043-3.339.06-5.008.003-2.264.08-4.526.078-6.79-.003-2.208.073-4.417.076-6.626.01-1.589.025-3.178.04-4.766zM18.183 77.415c.407-1.505.742-3.032 1.209-4.52-.02.34-.064.676-.116 1.013-1.388 9.844-2.775 19.69-4.167 29.534-.253 1.723-.457 3.454-.746 5.171l-.059.049c-.358-.032-.713-.1-1.07-.144.02-.037.04-.072.062-.106-.516.008-1.002-.191-1.514-.217.017-.037.034-.074.052-.109-.15-.026-.298-.051-.445-.08.62-3.21 1.22-6.425 1.894-9.624 1.43-7.035 3.122-14.013 4.9-20.967zM14.481 82.61c.936-2.968 1.833-5.951 2.82-8.904-.148.91-.427 1.79-.631 2.688-2.618 10.337-5.224 20.677-7.836 31.015-.583-.14-1.169-.26-1.747-.416.391-1.382.816-2.755 1.225-4.132 2.023-6.76 4.075-13.512 6.17-20.25zM21.792 76.171c.128-.69.172-1.397.347-2.08-.03.9-.164 1.791-.219 2.689-.453 5.048-.34 10.122-.607 15.18-.237 4.03-.547 8.056-.905 12.076-.128 1.664-.34 3.322-.44 4.988-.827.013-1.66.012-2.482-.096a8.03 8.03 0 00-.667-.055l.009-.058c1.648-10.882 3.305-21.763 4.964-32.644zM30.47 75.312c.338.517.516 1.115.786 1.668 1.661 3.837 3.211 7.724 4.562 11.682 2.112 6.118 3.942 12.33 5.688 18.56l.202.05c-.643.214-1.308.384-1.984.434l-.052-.215c-1.346-6.792-2.922-13.545-4.945-20.169a163.183 163.183 0 00-3.598-10.218c-.219-.597-.496-1.175-.66-1.792zM28.954 75.474c.224.625.326 1.286.503 1.925 2.13 8.677 4.252 17.356 6.38 26.034.339 1.476.754 2.934 1.062 4.417-.488.13-.968.287-1.461.396-.175-1.181-.436-2.347-.651-3.521-1.747-9.152-3.571-18.29-5.49-27.408-.12-.613-.285-1.22-.343-1.843zM33.148 76.203c.315.35.529.773.79 1.164a141.431 141.431 0 014.639 7.879c2.968 5.568 5.564 11.327 7.995 17.147.296.76.647 1.497.9 2.273-.37.284-.736.577-1.14.814-2.582-6.536-5.21-13.057-8.12-19.454a98 98 0 00-4.28-8.408c-.264-.47-.58-.914-.784-1.415z" stroke-width=".08745"/><path fill="#d0436b" stroke="#d0436b" d="M10.838 84.858c.248-.538.437-1.102.734-1.615a5.998 5.998 0 01-.237.67c-.602 1.4-1.173 2.812-1.758 4.218-2.341 5.698-4.762 11.378-6.602 17.264a7.09 7.09 0 01-.872-.546c.3-.613.56-1.243.833-1.868 2.633-6.041 5.262-12.085 7.902-18.123z" stroke-width=".08745"/><path fill="#f5c6a8" stroke="#f5c6a8" d="M29.932 108.86c.176-.03.352-.06.53-.088 0 .038 0 .112-.002.15-.104.705-.032 1.42-.052 2.129-.016 5.388-.015 10.775-.012 16.164.005.46-.054.932.077 1.383l.03.126c-.107.776-.275 1.553-.62 2.261-.324.68-.808 1.323-1.5 1.66-.376.19-.857.332-1.249.103-.463-.282-.712-.796-.901-1.284-.34-.922-.497-1.905-.536-2.884l.029-.136c.139-.48.076-.981.081-1.472.008-5.388-.007-10.775.004-16.164-.02-.6.06-1.209-.07-1.801l-.006-.07c.472.073.952.074 1.43.087.924.018 1.856.018 2.767-.164zM19.968 109.024c.76-.043 1.516-.155 2.279-.166.008 4.287.001 8.574.004 12.86.01 2.41-.02 4.82.012 7.228-.154.524-.218 1.074-.428 1.583-.311.818-.804 1.621-1.589 2.057-.371.206-.832.385-1.25.212-.46-.205-.723-.667-.915-1.107-.403-.958-.568-2-.629-3.033l.03-.133c.126-.427.08-.873.08-1.31v-16.407c-.018-.602.054-1.211-.07-1.806l-.006-.075c.822.109 1.655.11 2.482.097z" stroke-width=".08745"/><path fill="#e3cbbe" stroke="#e3cbbe" d="M30.408 111.05c.02-.709-.052-1.423.052-2.129.051 1.793.001 3.587.027 5.38-.012 4.765.014 9.531-.014 14.296-.13-.45-.072-.922-.077-1.382-.003-5.389-.004-10.776.012-16.164z" stroke-width=".08745"/><path fill="#d8cecf" stroke="#d8cecf" d="M17.493 109.002c.123.595.051 1.204.068 1.806v16.407c0 .437.047.883-.08 1.31-.002-.25-.013-.497-.014-.744v-13.255c.016-1.841-.032-3.684.026-5.524z" stroke-width=".08745"/><path fill="#d7cfc8" stroke="#d7cfc8" d="M25.741 109.007c.13.592.05 1.2.07 1.801-.01 5.389.004 10.776-.003 16.164-.006.49.057.993-.082 1.472-.046-1.837-.007-3.675-.02-5.513l-.001-6.602c.008-.682.002-1.364.006-2.046.02-1.758-.034-3.518.03-5.276z" stroke-width=".08745"/><path fill="#cf436a" stroke="#cf436a" d="M25.44 129.752c-.017-.409.095-.802.257-1.172.04.98.197 1.962.536 2.884.19.487.438 1.001.902 1.284.392.228.872.087 1.249-.103.691-.337 1.175-.98 1.498-1.66.346-.708.514-1.486.622-2.26.246.34.336.756.473 1.148.101.299.143.613.182.927a.97.97 0 01.1-.06c.04.684.192 1.36.157 2.051.035.743-.116 1.475-.155 2.215-.035-.023-.07-.045-.103-.064-.005.46-.155.898-.228 1.349a1.227 1.227 0 00-.091-.047 3.943 3.943 0 01-.37 1.131c-.263.517-.477 1.062-.814 1.539-.307.423-.695.81-1.184 1.012-.667.138-1.313-.215-1.755-.69a14.51 14.51 0 01-1.023-1.89c-.113-.363-.247-.726-.255-1.11a1.085 1.085 0 00-.098.06c-.31-1.443-.38-2.926-.292-4.397.054-.467.12-.933.123-1.402l.114.062c0-.293.02-.584.039-.873.037.02.076.042.116.066zM17.163 129.175c.094-.174.196-.343.29-.517.06 1.032.225 2.075.628 3.033.192.44.456.902.915 1.107.418.173.878-.006 1.25-.212.785-.436 1.278-1.239 1.59-2.057.209-.51.273-1.059.427-1.583l.034-.075c.09.407.135.823.13 1.241.032-.076.065-.15.1-.22.02.67.092 1.339.15 2.008.008.74.037 1.483-.065 2.218-.068.737-.302 1.444-.41 2.174a2.343 2.343 0 00-.112-.055c-.01.181-.024.363-.033.547a2.396 2.396 0 00-.128-.064l-.032.465a3.4 3.4 0 00-.127-.058l-.032.45a1.44 1.44 0 00-.109-.019c-.168.522-.5.967-.804 1.415-.24.314-.478.658-.83.856-.455.193-1.022.167-1.422-.14-.43-.318-.82-.706-1.081-1.177a9.058 9.058 0 01-.922-2.465c-.21-.85-.313-1.72-.325-2.595.002-.762.08-1.519.23-2.266.046-.204.102-.406.155-.606.12-.489.308-.957.533-1.405z" stroke-width=".08745"/></svg>