<svg width="140" height="140.004" viewBox="0 0 179.2 179.206" class="prefix__icon" xmlns="http://www.w3.org/2000/svg"><path d="M112 0H67.2c-28 0-44.8 11.2-44.8 44.8v56h134.4v-56C156.8 11.2 140 0 112 0z" fill="#eaeaea"/><path d="M168 61.606h-11.2a11.2 11.2 0 00-11.2 11.2v61.6h-112v-61.6a11.2 11.2 0 00-11.2-11.2H11.2A11.2 11.2 0 000 72.806v84a11.2 11.2 0 0011.2 11.2H168a11.2 11.2 0 0011.2-11.2v-84a11.2 11.2 0 00-11.2-11.2z" fill="#84bf56"/><path d="M11.2 67.206h11.2a11.2 11.2 0 0111.2 11.2v-5.6a11.2 11.2 0 00-11.2-11.2H11.2A11.2 11.2 0 000 72.806v5.6a11.2 11.2 0 0111.2-11.2zm156.8-5.6h-11.2a11.2 11.2 0 00-11.2 11.2v5.6a11.2 11.2 0 0111.2-11.2H168a11.2 11.2 0 0111.2 11.2v-5.6a11.2 11.2 0 00-11.2-11.2z" fill="#fff"/><path d="M156.8 123.206a11.2 11.2 0 01-11.2 11.2h-112a11.2 11.2 0 01-11.2-11.2v-11.2a11.2 11.2 0 0111.2-11.2h112a11.2 11.2 0 0111.2 11.2z" fill="#eaeaea"/><path d="M145.6 134.406h-112a11.2 11.2 0 01-11.2-11.2v5.6a11.2 11.2 0 0011.2 11.2h112a11.2 11.2 0 0011.2-11.2v-5.6a11.2 11.2 0 01-11.2 11.2zM33.6 95.206h112v5.6h-112zM106.4 33.6a5.6 5.6 0 1011.2 0 5.6 5.6 0 10-11.2 0zM106.4 78.4a5.6 5.6 0 1011.2 0 5.6 5.6 0 10-11.2 0zM84 56a5.6 5.6 0 1011.2 0A5.6 5.6 0 1084 56zM61.6 33.6a5.6 5.6 0 1011.2 0 5.6 5.6 0 10-11.2 0zM61.6 78.4a5.6 5.6 0 1011.2 0 5.6 5.6 0 10-11.2 0z"/><path d="M16.8 168.006h22.4v11.2H16.8zm123.2 0h22.4v11.2H140z" fill="#434854"/><path d="M16.8 168.006h22.4v5.6H16.8zm123.2 0h22.4v5.6H140z"/></svg>