<svg width="82.62" height="140" xmlns:xlink="http://www.w3.org/1999/xlink" xmlns="http://www.w3.org/2000/svg"><g transform="scale(.028)"><radialGradient id="prefix__a" cx="1814.805" cy="133.3" r="2957.204" gradientUnits="userSpaceOnUse"><stop offset="0" stop-color="#df7b32"/><stop offset=".174" stop-color="#d77631"/><stop offset=".614" stop-color="#ca6d2e"/><stop offset="1" stop-color="#c56a2d"/></radialGradient><path fill="url(#prefix__a)" d="M2274.611 2617.364s65.365 71.236 70.877 169.608c5.479 98.373-54.597 202.128-54.597 202.128s-103.759-71.431-120.23-169.608c-16.472-98.145 16.243-185.852 16.243-185.852z"/><radialGradient id="prefix__b" cx="1814.806" cy="133.391" r="2957.124" gradientUnits="userSpaceOnUse"><stop offset="0" stop-color="#df7b32"/><stop offset=".174" stop-color="#d77631"/><stop offset=".614" stop-color="#ca6d2e"/><stop offset="1" stop-color="#c56a2d"/></radialGradient><path fill="url(#prefix__b)" d="M2339.681 1365.131c87.414 79.944 84.119 438.731-52.513 548.194 97.166 134.643 70.453 289.639-42.5 407.484 0 0 126.978 178.643 6.756 340.88l-159.436 17.678s-126.684-135.556-28.377-318.962c0 0-192.473-170.554-95.144-404.777 0 0-220.752-133.11-166.999-366.746 53.753-233.634 538.213-223.751 538.213-223.751z"/><path opacity=".3" fill="#c56a2d" d="M2287.168 1913.326c136.633-109.495 139.927-468.282 52.513-548.227 0 0-484.46-9.85-538.213 223.785-53.753 233.636 166.999 366.746 166.999 366.746-97.329 234.223 95.144 404.777 95.144 404.777-98.308 183.373 28.377 318.929 28.377 318.929l84.674-9.361c-7.893 34.606-15.982 90.055-6.001 149.516 16.471 98.177 120.23 169.608 120.23 169.608s60.076-103.755 54.564-202.16c-4.893-87.707-57.275-153.659-68.59-166.967 73.939-149.647-32.197-299.196-32.197-299.196 112.953-117.811 139.666-272.807 42.5-407.45z"/><path fill="#41334c" d="M1059.398 4793.114s-66.278 4.501-145.831 17.776c-79.52 13.242-225.514 70.876-190.092 150.332 35.455 79.422 185.493-52.937 344.664-106.07z"/><linearGradient id="prefix__c" gradientUnits="userSpaceOnUse" x1="976.199" y1="4310.525" x2="1253.898" y2="2357.939" gradientTransform="matrix(1.0222 .0469 -.0714 .9815 149.15 -21.188)"><stop offset="0" stop-color="#f9a867"/><stop offset=".374" stop-color="#f5a05f"/><stop offset=".938" stop-color="#ea8c4b"/><stop offset="1" stop-color="#e98948"/></linearGradient><path fill="url(#prefix__c)" d="M984.934 3571.281c210.804-138.394 525.884-833.887 516.784-1203.959-5.675-229.265-260.936-357.678-382.63 100.852-119.831 565.351-304.023 704.267-349.72 891.912-57.569 236.408 86.99 295.575 215.566 211.195z"/><radialGradient id="prefix__d" cx="1812.539" cy="133.392" r="2958.546" gradientUnits="userSpaceOnUse"><stop offset="0" stop-color="#df7b32"/><stop offset=".174" stop-color="#d77631"/><stop offset=".614" stop-color="#ca6d2e"/><stop offset="1" stop-color="#c56a2d"/></radialGradient><path fill="url(#prefix__d)" d="M2130.933 135.698c459.998 308.59 391.045 801.661 255.199 1137.062-149.292 368.67-548.068 528.493-815.821 491.865-287.939-39.369-403.799-226.753-387.095-313.352 32.189-167.13-384.395-566.492-409.996-899.284-29.066-377.444 267.162-493.626 491.926-450.147 138.235-145.113 612.124-136.307 865.787 33.856z"/><path opacity=".3" fill="#c56a2d" d="M2339.681 675.706c-207.575 218.469-533.777 68.528-533.777 68.528l-215.566 1022.641c267.199 26.289 650.155-134.513 795.794-494.115 113.21-279.495 179.65-668.486-67.489-968.954 85.685 113.997 104.603 283.899 21.038 371.9z"/><linearGradient id="prefix__e" gradientUnits="userSpaceOnUse" x1="643.925" y1="4546.896" x2="1510.913" y2="4118.89" gradientTransform="translate(53.898)"><stop offset="0" stop-color="#46a2a9"/><stop offset=".299" stop-color="#4496a2"/><stop offset="1" stop-color="#407e93"/></linearGradient><path fill="url(#prefix__e)" d="M74.463 3942.136c156.92-182.329 440.105-37.249 994.268 127.043l1290.521 38.227s158.421 817.089-675.466 742.167c-801.624-72.05-1891.685-579.407-1609.323-907.437z"/><path fill="#f7e4ea" d="M2375.919 4157.441c-198.344 48.599-981.707 452.659-1405.728-131.447 119.541-202.225 221.698-350.568 215.501-540.203-7.959-242.638-135.687-521.579-155.192-758.052-19.146-232.364 236.216-717.542 615.124-745.984 269.547-20.223 482.275 127.304 577.354 476.665 77.009 283.05-67.419 730.915-42.37 1004.473 30.628 335.044 170.298 410.911 195.311 694.548z"/><path opacity=".2" fill="#904c88" d="M2180.576 3462.895c-25.017-273.559 119.448-721.423 42.402-1004.473-11.775-43.25-25.372-83.369-40.641-120.487l-546.628 1270.889-406.571-609.84-105.81 145.765c31.186 116.247 58.808 232.298 62.331 341.043 6.23 189.635-95.927 337.945-215.468 540.203 424.021 584.105 1207.351 180.046 1405.728 131.447-25.013-283.638-164.683-359.505-195.343-694.547z"/><linearGradient id="prefix__f" gradientUnits="userSpaceOnUse" x1="1412.882" y1="2333.338" x2="1412.882" y2="1842.9" gradientTransform="scale(-1 1) rotate(5.06 -71.79 -32339.404)"><stop offset="0" stop-color="#f9a867"/><stop offset=".422" stop-color="#f8a564"/><stop offset=".706" stop-color="#f39c5b"/><stop offset=".95" stop-color="#eb8d4c"/><stop offset="1" stop-color="#e98948"/></linearGradient><path fill="url(#prefix__f)" d="M1535.281 1988.475l-14.058-291.694 213.902-19.342 23.191 297.891c63.407 16.211 109.985 33.041 109.985 33.041s-24.463 361.168-334.227 341.794c-213.214-13.308-120.487-297.402-120.487-297.402s55.905-33.563 121.694-64.288z"/><path fill="#f9a867" d="M907.371 1132.8c26.942-436.35-80.531-756.193 579.213-784.961 440.656-19.179 620.636 425.032 575.009 850.75 75.961-73.551 171.594 38.912 116.341 162.204-42.663 95.274-113.898 101.928-191.299 130.762-123.553 289.835-440.004 432.273-625.072 431.751-268.503-.75-481.753-322.256-503.574-497.181-12.493-100.428 43.771-202.91 49.382-293.325z"/><linearGradient id="prefix__g" gradientUnits="userSpaceOnUse" x1="2125.893" y1="1147.918" x2="2340.003" y2="1147.918" gradientTransform="matrix(.9615 -.4142 .4482 .9519 -1014.864 739.067)"><stop offset="0" stop-color="#df7b32"/><stop offset=".174" stop-color="#d77631"/><stop offset=".614" stop-color="#ca6d2e"/><stop offset="1" stop-color="#c56a2d"/></linearGradient><path fill="url(#prefix__g)" d="M1497.38 840.813c-13.569 29.062 55.873 17.287 159.302 55.84 83.989 31.345 121.825 110.8 135.393 81.771 13.536-29.062-36.042-93.676-117.421-131.675-81.348-37.966-163.706-34.965-177.274-5.936z"/><path fill="#e98948" d="M2045.937 1250.711c83.528-7.339 74.265 97.916 43.312 128.576-30.986 30.627-85.457 48.86-93.415 28.246-7.956-20.613 50.103-156.822 50.103-156.822zM1239.281 1431.116a137.41 137.41 0 0018.07.359c5.871-.196 10.438-5.219 10.111-11.122-.094-5.871-5.219-10.535-11.122-10.111-51.143 2.087-88.849-29.714-105.712-57.569-9.655-16.243-9.752-26.224-8.643-28.018 7.893-9.785 43.576-9.655 65.006-6.034 4.664.522 6.654-.718 9.198-2.968 1.663-1.631 40.315-41.326 52.546-132.001.848-5.806-3.262-11.22-9.194-11.97l-.326-.033c-5.745-.489-10.898 3.555-11.616 9.231-9.231 67.713-34.215 104.44-43.283 115.758-17.907-.946-62.886-5.284-78.933 14.612-7.726 9.459-6.784 25.735 2.74 44.751 13.438 26.776 51.11 69.961 111.158 75.115z"/><radialGradient id="prefix__h" cx="1814.788" cy="133.392" r="2957.153" gradientUnits="userSpaceOnUse"><stop offset="0" stop-color="#df7b32"/><stop offset=".174" stop-color="#d77631"/><stop offset=".614" stop-color="#ca6d2e"/><stop offset="1" stop-color="#c56a2d"/></radialGradient><path fill="url(#prefix__h)" d="M1820.158 442.2s-45.892 135.654-438.829 30.203C974.757 363.3 955.318 572.114 917.09 744.006c-3.131-7.013-148.505-296.293 173.849-478.916 412.312-233.636 729.219 177.11 729.219 177.11z"/><linearGradient id="prefix__i" gradientUnits="userSpaceOnUse" x1="2331.8" y1="1108.61" x2="2528.372" y2="1108.61" gradientTransform="matrix(-.9035 -.3528 -.2022 .9254 3421.292 729.333)"><stop offset="0" stop-color="#df7b32"/><stop offset=".174" stop-color="#d77631"/><stop offset=".614" stop-color="#ca6d2e"/><stop offset="1" stop-color="#c56a2d"/></linearGradient><path fill="url(#prefix__i)" d="M1107.443 834.159c15.787 24.854-41.619 18.918-116.247 56.721-60.602 30.693-75.704 100.036-91.458 75.182-15.787-24.854 11.188-81.64 68.561-118.074 57.341-36.4 123.39-38.651 139.144-13.829z"/><linearGradient id="prefix__j" gradientUnits="userSpaceOnUse" x1="2878.159" y1="4068.836" x2="1435.798" y2="4804.536"><stop offset="0" stop-color="#5bb7bf"/><stop offset=".332" stop-color="#59a9b6"/><stop offset="1" stop-color="#5591a7"/></linearGradient><path fill="url(#prefix__j)" d="M2905.75 4060.993c183.279 244.954-216.447 566.395-789.43 705.343-572.983 138.949-1068.138 143.841-1068.138 143.841s-90.581-141.069-37.383-264.035c0 0 451.945-131.643 858.353-327.54 377.506-181.97 812.193-557.555 1036.598-257.609z"/><path fill="#92cfe8" d="M1318.997 4894.39c-50.426 4.762-95.176 8.35-133.404 10.992-28.377-64.027-60.798-170.098-46.708-300.37a7922.123 7922.123 0 00117.719-39.792c-3.587 66.864-.297 198.311 62.393 329.17z"/><linearGradient id="prefix__k" gradientUnits="userSpaceOnUse" x1="1444.218" y1="1539.787" x2="1428.719" y2="1663.781" gradientTransform="rotate(-7.36 1479.099 2730.854)"><stop offset="0" stop-color="#784034"/><stop offset=".465" stop-color="#814638"/><stop offset="1" stop-color="#91503f"/></linearGradient><path fill="url(#prefix__k)" d="M1101.801 1540.317c-12.884 21.103 66.832 144.102 180.246 144.493 137.151.457 211.289-124.206 200.428-128.739-5.414-2.251-102.711 9.426-196.615 6.067-93.71-3.392-184.059-21.821-184.059-21.821z"/><path fill="#e7ddd5" d="M1279.437 1590.613c57.406-.815 100.098-19.081 120.875-30.138-33.889 1.794-74.432 3.099-114.453 1.631-50.426-1.794-99.743-7.958-134.676-13.275 6.132 5.349 51.535 42.891 128.254 41.782z"/><path fill="#a95643" d="M1282.046 1684.811c75.765.228 132.225-37.673 165.821-72.475-103.755 3.066-174.371 41.26-209.434 66.115 13.862 3.913 28.377 6.294 43.613 6.36z"/><linearGradient id="prefix__l" gradientUnits="userSpaceOnUse" x1="1749.618" y1="3849.646" x2="1982.697" y2="2210.799" gradientTransform="matrix(1.0232 .0107 -.0367 .9835 59.202 26.663)"><stop offset="0" stop-color="#f9a867"/><stop offset=".422" stop-color="#f8a564"/><stop offset=".706" stop-color="#f39c5b"/><stop offset=".95" stop-color="#eb8d4c"/><stop offset="1" stop-color="#e98948"/></linearGradient><path fill="url(#prefix__l)" d="M1716.631 3760.362c205.781-145.765 514.37-970.65 492.158-1340.168-13.732-228.906-273.396-348.219-378.814 114.323-99.743 569.232-297.239 833.234-336.245 1022.38-49.157 238.3 97.391 292.346 222.901 203.465z"/><linearGradient id="prefix__m" gradientUnits="userSpaceOnUse" x1="897.892" y1="3625.662" x2="1132.292" y2="2822.006" gradientTransform="matrix(1 0 -.0041 1 10.384 0)"><stop offset="0" stop-color="#f9a867"/><stop offset=".422" stop-color="#f8a564"/><stop offset=".706" stop-color="#f39c5b"/><stop offset=".95" stop-color="#eb8d4c"/><stop offset="1" stop-color="#e98948"/></linearGradient><path fill="url(#prefix__m)" d="M1283.216 2846.792l-121.922-10.437c.424 178.676-316.711 358.983-391.763 551.88-28.181 72.442-24.822 159.693 43.156 203.237 209.985 134.446 441.37-328.944 470.529-744.68z"/><path fill="#e98948" d="M1292.447 2848.521c33.53-56.852 232.103-174.632 225.481-201.051-6.585-26.42-104.342 26.681-129.131 25.898-27.007-.848-41.844-77.009-53.883-190.875-10.666-100.46-14.054-195.637-29.681-195.669-33.298-.033-15.265 184.253-34.802 190.777-19.538 6.556-17.74-263.252-50.654-263.317-32.911-.065-5.447 259.338-21.723 269.449-16.308 10.111-21.103-226.362-54.112-226.656-33.008-.293 13.96 241.594-9.426 251.575-23.419 9.948-34.411-150.299-57.341-146.874-22.897 3.457-14.547 109.3 24.528 273.135 18.168 76.291 61.32 173.783 59.917 211.489z"/><path fill="#f9a867" d="M1336.545 2846.759c31.284-57.993 225.09-182.721 217.425-208.879-7.632-26.159-103.233 30.366-128.054 30.464-27.007.098-44.816-75.509-61.385-188.853-14.58-100.004-21.756-194.985-37.347-194.43-33.302 1.109-7.991 184.645-27.268 191.853-19.244 7.208-28.148-262.404-61.026-261.327-32.878 1.077 4.795 259.305-11.09 270.004-15.88 10.666-29.975-225.449-62.983-224.568-33.008.881 23.484 240.909.489 251.705-22.995 10.764-40.315-148.962-63.081-144.722-22.767 4.24-10.242 109.724 35.259 272.059 21.201 75.574 68.137 171.468 68.239 209.206z"/><path fill="#f9a867" d="M1723.155 3515.473c-57.993-197.007-237.484-303.762-388.86-672.824l-129.587-2.185c68.006 332.531 57.699 818.818 318.831 940.936 148.28 73.388 256.174-73.78 199.616-265.927z"/><path fill="#41334c" d="M1856.167 4776.675s76.748 5.186 168.858 20.549c92.078 15.362 261.164 82.097 220.132 174.077-41.065 92.013-214.816-61.287-399.134-122.803z"/><linearGradient id="prefix__n" gradientUnits="userSpaceOnUse" x1="1839.111" y1="4931.746" x2="-9.837" y2="3992.751"><stop offset="0" stop-color="#5bb7bf"/><stop offset=".332" stop-color="#59a9b6"/><stop offset="1" stop-color="#5591a7"/></linearGradient><path fill="url(#prefix__n)" d="M56.099 3947.844c-203.693 222.611 171.468 566.395 735.22 747.289 563.752 180.926 1060.249 225.645 1060.249 225.645s102.287-129.392 58.841-252.814c0 0-442.906-164.096-834.898-386.74-364.136-206.826-769.99-605.927-1019.412-333.38z"/><radialGradient id="prefix__o" cx="1814.807" cy="133.392" r="2957.081" gradientUnits="userSpaceOnUse"><stop offset="0" stop-color="#df7b32"/><stop offset=".174" stop-color="#d77631"/><stop offset=".614" stop-color="#ca6d2e"/><stop offset="1" stop-color="#c56a2d"/></radialGradient><path fill="url(#prefix__o)" d="M1751.89 457.889s-58.091 29.257 0 159.725 130.664 181.122 174.24 340.946c43.576 159.791-9.916 361.364 47.621 372.291 58.352 11.09 55.877-64.158 105.712-149.255 22.082-80.075 87.185-367.985-51.698-593.01-152.452-247.074-275.875-130.697-275.875-130.697z"/><path fill="#d7cac1" d="M1481.495 1057.422c-37.901 33.008-37.803 129.848-24.822 145.015 34.802 40.543 243.16 41.26 267.818-27.366 0 0-23.452-71.399-79.977-93.285-56.492-21.852-163.019-24.364-163.019-24.364z"/><defs><path id="prefix__p" d="M1481.495 1057.422c-37.901 33.008-37.803 129.848-24.822 145.015 34.802 40.543 243.16 41.26 267.818-27.366 0 0-23.419-81.184-79.944-103.037-56.492-21.885-163.052-14.612-163.052-14.612z"/></defs><clipPath id="prefix__q"><use xlink:href="#prefix__p" overflow="visible"/></clipPath><linearGradient id="prefix__r" gradientUnits="userSpaceOnUse" x1="1539.46" y1="1053.806" x2="1512.021" y2="1273.314" gradientTransform="matrix(1.1115 .0513 -.0195 .9998 -131.105 -75.02)"><stop offset="0" stop-color="#723b2f"/><stop offset=".439" stop-color="#7b4132"/><stop offset="1" stop-color="#8d4c39"/></linearGradient><path clip-path="url(#prefix__q)" fill="url(#prefix__r)" d="M1670.413 1164.993c-1.272 71.138-59.233 126.032-129.424 122.607-70.224-3.425-126.097-63.832-124.793-134.969 1.272-71.138 59.233-126 129.457-122.607 70.192 3.425 126.065 63.864 124.76 134.969z"/><path fill="#5e261b" d="M1729.878 1191.609s-39.503-92.795-104.868-118.987c-92.465-37.085-163.835 9.328-167.158-2.479-1.83-6.393 89.171-66.963 182.293-23.745 69.836 32.421 120.421 120.552 89.733 145.211z"/><path fill="#5e261b" d="M1729.878 1191.609l58.217-41.685-75.965 4.73z"/><g><path fill="#5e261b" d="M930.79 1160.786l-44.714-60.211 44.42 9.687z"/><path fill="#d7cac1" d="M958.09 1036.776c-36.074 34.052-37.412 115.171-26.191 131.936 30.008 44.881 210.151 52.905 235.691-19.896 0 0-18.294-77.792-68.985-103.396-50.655-25.605-140.515-8.644-140.515-8.644z"/><defs><path id="prefix__s" d="M961.482 1035.015c-36.042 34.085-40.804 116.932-29.584 133.697 30.008 44.881 210.151 52.905 235.691-19.896 0 0-17.874-88.131-68.524-113.735-50.691-25.606-137.583-.066-137.583-.066z"/></defs><clipPath id="prefix__t"><use xlink:href="#prefix__s" overflow="visible"/></clipPath><linearGradient id="prefix__u" gradientUnits="userSpaceOnUse" x1="1087.949" y1="1063.388" x2="1058.517" y2="1298.839" gradientTransform="matrix(1.3404 .1104 -.0602 .9982 -375.33 -158.048)"><stop offset="0" stop-color="#723b2f"/><stop offset=".439" stop-color="#7b4132"/><stop offset="1" stop-color="#8d4c39"/></linearGradient><path clip-path="url(#prefix__t)" fill="url(#prefix__u)" d="M1134.157 1144.021c-4.208 76.389-70.355 132.588-147.722 125.478-77.4-7.078-136.731-74.758-132.523-151.147 4.208-76.422 70.388-132.588 147.755-125.51 77.4 7.077 136.73 74.757 132.49 151.179z"/><path fill="#5e261b" d="M927.724 1158.503s-36.564-89.371 32.03-133.273c91.556-58.58 195.086 40.347 188.494 45.305-6.621 4.958-76.422-62.527-166.738-22.799-54.928 24.201-53.786 110.767-53.786 110.767z"/></g><path opacity=".3" fill="#c56a2d" d="M935.258 316.168c-164.357 66.408-165.466 196.387-138.981 332.759 23.386 87.316 66.506 177.013 115.921 264.361l1.859-.489c3.392-173.718 12.003-318.114 105.483-417.694 61.809-54.307 167.554-74.823 361.788-22.701 175.679 47.132 281.974 46.12 345.806 30.562l.946-.946c-371.443 32.911-481.362-311.721-792.822-185.852zM1829.519 753.758c36.303 56.101 71.333 112.105 96.612 204.77 43.576 159.823-9.916 361.364 47.621 372.323 58.352 11.09 55.877-64.19 105.712-149.255 15.754-57.112 53.329-219.904 23.256-390.263-117.585 13.405-226.787-20.288-273.201-37.575z"/><g><path fill="#ffc63a" d="M1265.147 101.842s479.111-111.615 737.666 263.709c252.717 366.876 76.65 816.045 76.65 816.045l42.402-5.251s203.139-509.576-71.431-869.472C1780.76-46.631 1365.052 40.848 1365.052 40.848s-92.925 10.079-99.905 60.994z"/><path fill="#eda626" d="M2079.463 1181.595l42.402-5.251s72.573-182.329 72.247-405.854c-18.592 6.556-37.277 11.514-55.971 15.232 9.981 220.785-58.678 395.873-58.678 395.873z"/></g><path fill="#b4e3f9" d="M1580.096 4883.757c48.697 8.057 91.98 14.547 128.968 19.733 31.903-60.374 70.583-161.291 65.691-288.921-32.78-13.34-70.453-28.997-111.778-46.643-1.012 65.235-13.113 192.832-82.881 315.831z"/></g></svg>