<?xml version="1.0" encoding="UTF-8" standalone="no"?>
<svg
   version="1.1"
   id="Layer_1"
   x="0px"
   y="0px"
   viewBox="0 0 82.619686 140"
   enable-background="new 0 0 2950.703 5000"
   xml:space="preserve"
   sodipodi:docname="young-yoga-lady.svg"
   width="82.619682"
   height="140"
   inkscape:version="1.2.2 (732a01da63, 2022-12-09)"
   xmlns:inkscape="http://www.inkscape.org/namespaces/inkscape"
   xmlns:sodipodi="http://sodipodi.sourceforge.net/DTD/sodipodi-0.dtd"
   xmlns:xlink="http://www.w3.org/1999/xlink"
   xmlns="http://www.w3.org/2000/svg"
   xmlns:svg="http://www.w3.org/2000/svg"><defs
   id="defs1100" /><sodipodi:namedview
   id="namedview1098"
   pagecolor="#ffffff"
   bordercolor="#000000"
   borderopacity="0.25"
   inkscape:showpageshadow="2"
   inkscape:pageopacity="0.0"
   inkscape:pagecheckerboard="0"
   inkscape:deskcolor="#d1d1d1"
   showgrid="false"
   inkscape:zoom="0.1674"
   inkscape:cx="1475.5078"
   inkscape:cy="2502.9869"
   inkscape:window-width="1920"
   inkscape:window-height="1017"
   inkscape:window-x="1912"
   inkscape:window-y="-8"
   inkscape:window-maximized="1"
   inkscape:current-layer="Layer_1" />
<g
   id="g1095"
   transform="scale(0.028)">
	<g
   id="g1093">
		<g
   id="g1091">
			<radialGradient
   id="SVGID_1_"
   cx="1814.8049"
   cy="133.3004"
   r="2957.2039"
   gradientUnits="userSpaceOnUse">
				<stop
   offset="0"
   style="stop-color:#DF7B32"
   id="stop830" />
				<stop
   offset="0.1744"
   style="stop-color:#D77631"
   id="stop832" />
				<stop
   offset="0.6137"
   style="stop-color:#CA6D2E"
   id="stop834" />
				<stop
   offset="1"
   style="stop-color:#C56A2D"
   id="stop836" />
			</radialGradient>
			<path
   fill="url(#SVGID_1_)"
   d="m 2274.611,2617.364 c 0,0 65.365,71.236 70.877,169.608 5.479,98.373 -54.597,202.128 -54.597,202.128 0,0 -103.759,-71.431 -120.23,-169.608 -16.472,-98.145 16.243,-185.852 16.243,-185.852 z"
   id="path839"
   style="fill:url(#SVGID_1_)" />
			<radialGradient
   id="SVGID_2_"
   cx="1814.8063"
   cy="133.3905"
   r="2957.1238"
   gradientUnits="userSpaceOnUse">
				<stop
   offset="0"
   style="stop-color:#DF7B32"
   id="stop841" />
				<stop
   offset="0.1744"
   style="stop-color:#D77631"
   id="stop843" />
				<stop
   offset="0.6137"
   style="stop-color:#CA6D2E"
   id="stop845" />
				<stop
   offset="1"
   style="stop-color:#C56A2D"
   id="stop847" />
			</radialGradient>
			<path
   fill="url(#SVGID_2_)"
   d="m 2339.681,1365.131 c 87.414,79.944 84.119,438.731 -52.513,548.194 97.166,134.643 70.453,289.639 -42.5,407.484 0,0 126.978,178.643 6.756,340.88 l -159.436,17.678 c 0,0 -126.684,-135.556 -28.377,-318.962 0,0 -192.473,-170.554 -95.144,-404.777 0,0 -220.752,-133.11 -166.999,-366.746 53.753,-233.634 538.213,-223.751 538.213,-223.751 z"
   id="path850"
   style="fill:url(#SVGID_2_)" />
			<path
   opacity="0.3"
   fill="#c56a2d"
   d="m 2287.168,1913.326 c 136.633,-109.495 139.927,-468.282 52.513,-548.227 0,0 -484.46,-9.85 -538.213,223.785 -53.753,233.636 166.999,366.746 166.999,366.746 -97.329,234.223 95.144,404.777 95.144,404.777 -98.308,183.373 28.377,318.929 28.377,318.929 l 84.674,-9.361 c -7.893,34.606 -15.982,90.055 -6.001,149.516 16.471,98.177 120.23,169.608 120.23,169.608 0,0 60.076,-103.755 54.564,-202.16 -4.893,-87.707 -57.275,-153.659 -68.59,-166.967 73.939,-149.647 -32.197,-299.196 -32.197,-299.196 112.953,-117.811 139.666,-272.807 42.5,-407.45 z"
   id="path852" />
			<path
   fill="#41334c"
   d="m 1059.398,4793.114 c 0,0 -66.278,4.501 -145.831,17.776 -79.52,13.242 -225.514,70.876 -190.092,150.332 35.455,79.422 185.493,-52.937 344.664,-106.07 z"
   id="path854" />
			
				<linearGradient
   id="SVGID_3_"
   gradientUnits="userSpaceOnUse"
   x1="976.19897"
   y1="4310.5249"
   x2="1253.8984"
   y2="2357.9392"
   gradientTransform="matrix(1.0222,0.0469,-0.0714,0.9815,149.15,-21.1884)">
				<stop
   offset="0"
   style="stop-color:#F9A867"
   id="stop856" />
				<stop
   offset="0.3739"
   style="stop-color:#F5A05F"
   id="stop858" />
				<stop
   offset="0.9378"
   style="stop-color:#EA8C4B"
   id="stop860" />
				<stop
   offset="1"
   style="stop-color:#E98948"
   id="stop862" />
			</linearGradient>
			<path
   fill="url(#SVGID_3_)"
   d="m 984.934,3571.281 c 210.804,-138.394 525.884,-833.887 516.784,-1203.959 -5.675,-229.265 -260.936,-357.678 -382.63,100.852 -119.831,565.351 -304.023,704.267 -349.72,891.912 -57.569,236.408 86.99,295.575 215.566,211.195 z"
   id="path865"
   style="fill:url(#SVGID_3_)" />
			<radialGradient
   id="SVGID_4_"
   cx="1812.5393"
   cy="133.39211"
   r="2958.5457"
   gradientUnits="userSpaceOnUse">
				<stop
   offset="0"
   style="stop-color:#DF7B32"
   id="stop867" />
				<stop
   offset="0.1744"
   style="stop-color:#D77631"
   id="stop869" />
				<stop
   offset="0.6137"
   style="stop-color:#CA6D2E"
   id="stop871" />
				<stop
   offset="1"
   style="stop-color:#C56A2D"
   id="stop873" />
			</radialGradient>
			<path
   fill="url(#SVGID_4_)"
   d="m 2130.933,135.698 c 459.998,308.59 391.045,801.661 255.199,1137.062 -149.292,368.67 -548.068,528.493 -815.821,491.865 -287.939,-39.369 -403.799,-226.753 -387.095,-313.352 C 1215.405,1284.143 798.821,884.781 773.22,551.989 744.154,174.545 1040.382,58.363 1265.146,101.842 1403.381,-43.271 1877.27,-34.465 2130.933,135.698 Z"
   id="path876"
   style="fill:url(#SVGID_4_)" />
			<path
   opacity="0.3"
   fill="#c56a2d"
   d="m 2339.681,675.706 c -207.575,218.469 -533.777,68.528 -533.777,68.528 l -215.566,1022.641 c 267.199,26.289 650.155,-134.513 795.794,-494.115 113.21,-279.495 179.65,-668.486 -67.489,-968.954 85.685,113.997 104.603,283.899 21.038,371.9 z"
   id="path878" />
			
				<linearGradient
   id="SVGID_5_"
   gradientUnits="userSpaceOnUse"
   x1="643.92499"
   y1="4546.8965"
   x2="1510.913"
   y2="4118.8901"
   gradientTransform="translate(53.8984)">
				<stop
   offset="0"
   style="stop-color:#46A2A9"
   id="stop880" />
				<stop
   offset="0.299"
   style="stop-color:#4496A2"
   id="stop882" />
				<stop
   offset="1"
   style="stop-color:#407E93"
   id="stop884" />
			</linearGradient>
			<path
   fill="url(#SVGID_5_)"
   d="m 74.463,3942.136 c 156.92,-182.329 440.105,-37.249 994.268,127.043 l 1290.521,38.227 c 0,0 158.421,817.089 -675.466,742.167 C 882.162,4777.523 -207.899,4270.166 74.463,3942.136 Z"
   id="path887"
   style="fill:url(#SVGID_5_)" />
			<path
   fill="#f7e4ea"
   d="m 2375.919,4157.441 c -198.344,48.599 -981.707,452.659 -1405.728,-131.447 119.541,-202.225 221.698,-350.568 215.501,-540.203 -7.959,-242.638 -135.687,-521.579 -155.192,-758.052 -19.146,-232.364 236.216,-717.542 615.124,-745.984 269.547,-20.223 482.275,127.304 577.354,476.665 77.009,283.05 -67.419,730.915 -42.37,1004.473 30.628,335.044 170.298,410.911 195.311,694.548 z"
   id="path889" />
			<path
   opacity="0.2"
   fill="#904c88"
   d="m 2180.576,3462.895 c -25.017,-273.559 119.448,-721.423 42.402,-1004.473 -11.775,-43.25 -25.372,-83.369 -40.641,-120.487 l -546.628,1270.889 -406.571,-609.84 -105.81,145.765 c 31.186,116.247 58.808,232.298 62.331,341.043 6.23,189.635 -95.927,337.945 -215.468,540.203 424.021,584.105 1207.351,180.046 1405.728,131.447 -25.013,-283.638 -164.683,-359.505 -195.343,-694.547 z"
   id="path891" />
			
				<linearGradient
   id="SVGID_6_"
   gradientUnits="userSpaceOnUse"
   x1="1412.8822"
   y1="2333.3384"
   x2="1412.8822"
   y2="1842.9005"
   gradientTransform="matrix(-0.9961,0.0882,0.0882,0.9961,2852.6152,-119.7021)">
				<stop
   offset="0"
   style="stop-color:#F9A867"
   id="stop893" />
				<stop
   offset="0.4216"
   style="stop-color:#F8A564"
   id="stop895" />
				<stop
   offset="0.7062"
   style="stop-color:#F39C5B"
   id="stop897" />
				<stop
   offset="0.9496"
   style="stop-color:#EB8D4C"
   id="stop899" />
				<stop
   offset="1"
   style="stop-color:#E98948"
   id="stop901" />
			</linearGradient>
			<path
   fill="url(#SVGID_6_)"
   d="m 1535.281,1988.475 -14.058,-291.694 213.902,-19.342 23.191,297.891 c 63.407,16.211 109.985,33.041 109.985,33.041 0,0 -24.463,361.168 -334.227,341.794 -213.214,-13.308 -120.487,-297.402 -120.487,-297.402 0,0 55.905,-33.563 121.694,-64.288 z"
   id="path904"
   style="fill:url(#SVGID_6_)" />
			<path
   fill="#f9a867"
   d="m 907.371,1132.8 c 26.942,-436.35 -80.531,-756.193 579.213,-784.961 440.656,-19.179 620.636,425.032 575.009,850.75 75.961,-73.551 171.594,38.912 116.341,162.204 -42.663,95.274 -113.898,101.928 -191.299,130.762 -123.553,289.835 -440.004,432.273 -625.072,431.751 -268.503,-0.75 -481.753,-322.256 -503.574,-497.181 -12.493,-100.428 43.771,-202.91 49.382,-293.325 z"
   id="path906" />
			
				<linearGradient
   id="SVGID_7_"
   gradientUnits="userSpaceOnUse"
   x1="2125.8931"
   y1="1147.9182"
   x2="2340.0032"
   y2="1147.9182"
   gradientTransform="matrix(0.9615,-0.4142,0.4482,0.9519,-1014.864,739.0673)">
				<stop
   offset="0"
   style="stop-color:#DF7B32"
   id="stop908" />
				<stop
   offset="0.1744"
   style="stop-color:#D77631"
   id="stop910" />
				<stop
   offset="0.6137"
   style="stop-color:#CA6D2E"
   id="stop912" />
				<stop
   offset="1"
   style="stop-color:#C56A2D"
   id="stop914" />
			</linearGradient>
			<path
   fill="url(#SVGID_7_)"
   d="m 1497.38,840.813 c -13.569,29.062 55.873,17.287 159.302,55.84 83.989,31.345 121.825,110.8 135.393,81.771 13.536,-29.062 -36.042,-93.676 -117.421,-131.675 -81.348,-37.966 -163.706,-34.965 -177.274,-5.936 z"
   id="path917"
   style="fill:url(#SVGID_7_)" />
			<path
   fill="#e98948"
   d="m 2045.937,1250.711 c 83.528,-7.339 74.265,97.916 43.312,128.576 -30.986,30.627 -85.457,48.86 -93.415,28.246 -7.956,-20.613 50.103,-156.822 50.103,-156.822 z"
   id="path919" />
			<path
   fill="#e98948"
   d="m 1239.281,1431.116 c 5.708,0.489 11.807,0.652 18.07,0.359 5.871,-0.196 10.438,-5.219 10.111,-11.122 -0.094,-5.871 -5.219,-10.535 -11.122,-10.111 -51.143,2.087 -88.849,-29.714 -105.712,-57.569 -9.655,-16.243 -9.752,-26.224 -8.643,-28.018 7.893,-9.785 43.576,-9.655 65.006,-6.034 4.664,0.522 6.654,-0.718 9.198,-2.968 1.663,-1.631 40.315,-41.326 52.546,-132.001 0.848,-5.806 -3.262,-11.22 -9.194,-11.97 l -0.326,-0.033 c -5.745,-0.489 -10.898,3.555 -11.616,9.231 -9.231,67.713 -34.215,104.44 -43.283,115.758 -17.907,-0.946 -62.886,-5.284 -78.933,14.612 -7.726,9.459 -6.784,25.735 2.74,44.751 13.438,26.776 51.11,69.961 111.158,75.115 z"
   id="path921" />
			<radialGradient
   id="SVGID_8_"
   cx="1814.7878"
   cy="133.39211"
   r="2957.1528"
   gradientUnits="userSpaceOnUse">
				<stop
   offset="0"
   style="stop-color:#DF7B32"
   id="stop923" />
				<stop
   offset="0.1744"
   style="stop-color:#D77631"
   id="stop925" />
				<stop
   offset="0.6137"
   style="stop-color:#CA6D2E"
   id="stop927" />
				<stop
   offset="1"
   style="stop-color:#C56A2D"
   id="stop929" />
			</radialGradient>
			<path
   fill="url(#SVGID_8_)"
   d="m 1820.158,442.2 c 0,0 -45.892,135.654 -438.829,30.203 C 974.757,363.3 955.318,572.114 917.09,744.006 913.959,736.993 768.585,447.713 1090.939,265.09 1503.251,31.454 1820.158,442.2 1820.158,442.2 Z"
   id="path932"
   style="fill:url(#SVGID_8_)" />
			
				<linearGradient
   id="SVGID_9_"
   gradientUnits="userSpaceOnUse"
   x1="2331.8005"
   y1="1108.61"
   x2="2528.3716"
   y2="1108.61"
   gradientTransform="matrix(-0.9035,-0.3528,-0.2022,0.9254,3421.2917,729.3329)">
				<stop
   offset="0"
   style="stop-color:#DF7B32"
   id="stop934" />
				<stop
   offset="0.1744"
   style="stop-color:#D77631"
   id="stop936" />
				<stop
   offset="0.6137"
   style="stop-color:#CA6D2E"
   id="stop938" />
				<stop
   offset="1"
   style="stop-color:#C56A2D"
   id="stop940" />
			</linearGradient>
			<path
   fill="url(#SVGID_9_)"
   d="m 1107.443,834.159 c 15.787,24.854 -41.619,18.918 -116.247,56.721 -60.602,30.693 -75.704,100.036 -91.458,75.182 -15.787,-24.854 11.188,-81.64 68.561,-118.074 57.341,-36.4 123.39,-38.651 139.144,-13.829 z"
   id="path943"
   style="fill:url(#SVGID_9_)" />
			<linearGradient
   id="SVGID_10_"
   gradientUnits="userSpaceOnUse"
   x1="2878.1587"
   y1="4068.8364"
   x2="1435.7977"
   y2="4804.5361">
				<stop
   offset="0"
   style="stop-color:#5BB7BF"
   id="stop945" />
				<stop
   offset="0.3321"
   style="stop-color:#59A9B6"
   id="stop947" />
				<stop
   offset="1"
   style="stop-color:#5591A7"
   id="stop949" />
			</linearGradient>
			<path
   fill="url(#SVGID_10_)"
   d="m 2905.75,4060.993 c 183.279,244.954 -216.447,566.395 -789.43,705.343 -572.983,138.949 -1068.138,143.841 -1068.138,143.841 0,0 -90.581,-141.069 -37.383,-264.035 0,0 451.945,-131.643 858.353,-327.54 377.506,-181.97 812.193,-557.555 1036.598,-257.609 z"
   id="path952"
   style="fill:url(#SVGID_10_)" />
			<path
   fill="#92cfe8"
   d="m 1318.997,4894.39 c -50.426,4.762 -95.176,8.35 -133.404,10.992 -28.377,-64.027 -60.798,-170.098 -46.708,-300.37 34.476,-11.351 74.171,-24.691 117.719,-39.792 -3.587,66.864 -0.297,198.311 62.393,329.17 z"
   id="path954" />
			<g
   id="g969">
				
					<linearGradient
   id="SVGID_11_"
   gradientUnits="userSpaceOnUse"
   x1="1444.2183"
   y1="1539.7866"
   x2="1428.719"
   y2="1663.7808"
   gradientTransform="matrix(0.9918,-0.1281,0.1281,0.9918,-337.637,211.9705)">
					<stop
   offset="0"
   style="stop-color:#784034"
   id="stop956" />
					<stop
   offset="0.4648"
   style="stop-color:#814638"
   id="stop958" />
					<stop
   offset="1"
   style="stop-color:#91503F"
   id="stop960" />
				</linearGradient>
				<path
   fill="url(#SVGID_11_)"
   d="m 1101.801,1540.317 c -12.884,21.103 66.832,144.102 180.246,144.493 137.151,0.457 211.289,-124.206 200.428,-128.739 -5.414,-2.251 -102.711,9.426 -196.615,6.067 -93.71,-3.392 -184.059,-21.821 -184.059,-21.821 z"
   id="path963"
   style="fill:url(#SVGID_11_)" />
				<path
   fill="#e7ddd5"
   d="m 1279.437,1590.613 c 57.406,-0.815 100.098,-19.081 120.875,-30.138 -33.889,1.794 -74.432,3.099 -114.453,1.631 -50.426,-1.794 -99.743,-7.958 -134.676,-13.275 6.132,5.349 51.535,42.891 128.254,41.782 z"
   id="path965" />
				<path
   fill="#a95643"
   d="m 1282.046,1684.811 c 75.765,0.228 132.225,-37.673 165.821,-72.475 -103.755,3.066 -174.371,41.26 -209.434,66.115 13.862,3.913 28.377,6.294 43.613,6.36 z"
   id="path967" />
			</g>
			
				<linearGradient
   id="SVGID_12_"
   gradientUnits="userSpaceOnUse"
   x1="1749.6179"
   y1="3849.6462"
   x2="1982.697"
   y2="2210.7991"
   gradientTransform="matrix(1.0232,0.0107,-0.0367,0.9835,59.2023,26.6633)">
				<stop
   offset="0"
   style="stop-color:#F9A867"
   id="stop971" />
				<stop
   offset="0.4216"
   style="stop-color:#F8A564"
   id="stop973" />
				<stop
   offset="0.7062"
   style="stop-color:#F39C5B"
   id="stop975" />
				<stop
   offset="0.9496"
   style="stop-color:#EB8D4C"
   id="stop977" />
				<stop
   offset="1"
   style="stop-color:#E98948"
   id="stop979" />
			</linearGradient>
			<path
   fill="url(#SVGID_12_)"
   d="m 1716.631,3760.362 c 205.781,-145.765 514.37,-970.65 492.158,-1340.168 -13.732,-228.906 -273.396,-348.219 -378.814,114.323 -99.743,569.232 -297.239,833.234 -336.245,1022.38 -49.157,238.3 97.391,292.346 222.901,203.465 z"
   id="path982"
   style="fill:url(#SVGID_12_)" />
			
				<linearGradient
   id="SVGID_13_"
   gradientUnits="userSpaceOnUse"
   x1="897.89227"
   y1="3625.6621"
   x2="1132.2919"
   y2="2822.0059"
   gradientTransform="matrix(1,0,-0.0041,1,10.3836,-1e-4)">
				<stop
   offset="0"
   style="stop-color:#F9A867"
   id="stop984" />
				<stop
   offset="0.4216"
   style="stop-color:#F8A564"
   id="stop986" />
				<stop
   offset="0.7062"
   style="stop-color:#F39C5B"
   id="stop988" />
				<stop
   offset="0.9496"
   style="stop-color:#EB8D4C"
   id="stop990" />
				<stop
   offset="1"
   style="stop-color:#E98948"
   id="stop992" />
			</linearGradient>
			<path
   fill="url(#SVGID_13_)"
   d="m 1283.216,2846.792 -121.922,-10.437 c 0.424,178.676 -316.711,358.983 -391.763,551.88 -28.181,72.442 -24.822,159.693 43.156,203.237 209.985,134.446 441.37,-328.944 470.529,-744.68 z"
   id="path995"
   style="fill:url(#SVGID_13_)" />
			<path
   fill="#e98948"
   d="m 1292.447,2848.521 c 33.53,-56.852 232.103,-174.632 225.481,-201.051 -6.585,-26.42 -104.342,26.681 -129.131,25.898 -27.007,-0.848 -41.844,-77.009 -53.883,-190.875 -10.666,-100.46 -14.054,-195.637 -29.681,-195.669 -33.298,-0.033 -15.265,184.253 -34.802,190.777 -19.538,6.556 -17.74,-263.252 -50.654,-263.317 -32.911,-0.065 -5.447,259.338 -21.723,269.449 -16.308,10.111 -21.103,-226.362 -54.112,-226.656 -33.008,-0.293 13.96,241.594 -9.426,251.575 -23.419,9.948 -34.411,-150.299 -57.341,-146.874 -22.897,3.457 -14.547,109.3 24.528,273.135 18.168,76.291 61.32,173.783 59.917,211.489 z"
   id="path997" />
			<path
   fill="#f9a867"
   d="m 1336.545,2846.759 c 31.284,-57.993 225.09,-182.721 217.425,-208.879 -7.632,-26.159 -103.233,30.366 -128.054,30.464 -27.007,0.098 -44.816,-75.509 -61.385,-188.853 -14.58,-100.004 -21.756,-194.985 -37.347,-194.43 -33.302,1.109 -7.991,184.645 -27.268,191.853 -19.244,7.208 -28.148,-262.404 -61.026,-261.327 -32.878,1.077 4.795,259.305 -11.09,270.004 -15.88,10.666 -29.975,-225.449 -62.983,-224.568 -33.008,0.881 23.484,240.909 0.489,251.705 -22.995,10.764 -40.315,-148.962 -63.081,-144.722 -22.767,4.24 -10.242,109.724 35.259,272.059 21.201,75.574 68.137,171.468 68.239,209.206 z"
   id="path999" />
			<path
   fill="#f9a867"
   d="m 1723.155,3515.473 c -57.993,-197.007 -237.484,-303.762 -388.86,-672.824 l -129.587,-2.185 c 68.006,332.531 57.699,818.818 318.831,940.936 148.28,73.388 256.174,-73.78 199.616,-265.927 z"
   id="path1001" />
			<path
   fill="#41334c"
   d="m 1856.167,4776.675 c 0,0 76.748,5.186 168.858,20.549 92.078,15.362 261.164,82.097 220.132,174.077 -41.065,92.013 -214.816,-61.287 -399.134,-122.803 z"
   id="path1003" />
			<linearGradient
   id="SVGID_14_"
   gradientUnits="userSpaceOnUse"
   x1="1839.1111"
   y1="4931.7461"
   x2="-9.8367996"
   y2="3992.7515">
				<stop
   offset="0"
   style="stop-color:#5BB7BF"
   id="stop1005" />
				<stop
   offset="0.3321"
   style="stop-color:#59A9B6"
   id="stop1007" />
				<stop
   offset="1"
   style="stop-color:#5591A7"
   id="stop1009" />
			</linearGradient>
			<path
   fill="url(#SVGID_14_)"
   d="m 56.099,3947.844 c -203.693,222.611 171.468,566.395 735.22,747.289 563.752,180.926 1060.249,225.645 1060.249,225.645 0,0 102.287,-129.392 58.841,-252.814 0,0 -442.906,-164.096 -834.898,-386.74 C 711.375,4074.398 305.521,3675.297 56.099,3947.844 Z"
   id="path1012"
   style="fill:url(#SVGID_14_)" />
			<radialGradient
   id="SVGID_15_"
   cx="1814.8068"
   cy="133.3923"
   r="2957.0813"
   gradientUnits="userSpaceOnUse">
				<stop
   offset="0"
   style="stop-color:#DF7B32"
   id="stop1014" />
				<stop
   offset="0.1744"
   style="stop-color:#D77631"
   id="stop1016" />
				<stop
   offset="0.6137"
   style="stop-color:#CA6D2E"
   id="stop1018" />
				<stop
   offset="1"
   style="stop-color:#C56A2D"
   id="stop1020" />
			</radialGradient>
			<path
   fill="url(#SVGID_15_)"
   d="m 1751.89,457.889 c 0,0 -58.091,29.257 0,159.725 58.091,130.468 130.664,181.122 174.24,340.946 43.576,159.791 -9.916,361.364 47.621,372.291 58.352,11.09 55.877,-64.158 105.712,-149.255 22.082,-80.075 87.185,-367.985 -51.698,-593.01 C 1875.313,341.512 1751.89,457.889 1751.89,457.889 Z"
   id="path1023"
   style="fill:url(#SVGID_15_)" />
			<g
   id="g1050">
				<g
   id="g1046">
					<path
   fill="#d7cac1"
   d="m 1481.495,1057.422 c -37.901,33.008 -37.803,129.848 -24.822,145.015 34.802,40.543 243.16,41.26 267.818,-27.366 0,0 -23.452,-71.399 -79.977,-93.285 -56.492,-21.852 -163.019,-24.364 -163.019,-24.364 z"
   id="path1025" />
					<g
   id="g1042">
						<defs
   id="defs1028">
							<path
   id="SVGID_16_"
   d="m 1481.495,1057.422 c -37.901,33.008 -37.803,129.848 -24.822,145.015 34.802,40.543 243.16,41.26 267.818,-27.366 0,0 -23.419,-81.184 -79.944,-103.037 -56.492,-21.885 -163.052,-14.612 -163.052,-14.612 z" />
						</defs>
						<clipPath
   id="SVGID_17_">
							<use
   xlink:href="#SVGID_16_"
   overflow="visible"
   id="use1030" />
						</clipPath>
						
							<linearGradient
   id="SVGID_18_"
   gradientUnits="userSpaceOnUse"
   x1="1539.4597"
   y1="1053.8063"
   x2="1512.0214"
   y2="1273.3136"
   gradientTransform="matrix(1.1115,0.0513,-0.0195,0.9998,-131.1052,-75.0197)">
							<stop
   offset="0"
   style="stop-color:#723B2F"
   id="stop1033" />
							<stop
   offset="0.4393"
   style="stop-color:#7B4132"
   id="stop1035" />
							<stop
   offset="1"
   style="stop-color:#8D4C39"
   id="stop1037" />
						</linearGradient>
						<path
   clip-path="url(#SVGID_17_)"
   fill="url(#SVGID_18_)"
   d="m 1670.413,1164.993 c -1.272,71.138 -59.233,126.032 -129.424,122.607 -70.224,-3.425 -126.097,-63.832 -124.793,-134.969 1.272,-71.138 59.233,-126 129.457,-122.607 70.192,3.425 126.065,63.864 124.76,134.969 z"
   id="path1040"
   style="fill:url(#SVGID_18_)" />
					</g>
					<path
   fill="#5e261b"
   d="m 1729.878,1191.609 c 0,0 -39.503,-92.795 -104.868,-118.987 -92.465,-37.085 -163.835,9.328 -167.158,-2.479 -1.83,-6.393 89.171,-66.963 182.293,-23.745 69.836,32.421 120.421,120.552 89.733,145.211 z"
   id="path1044" />
				</g>
				<polygon
   fill="#5e261b"
   points="1729.878,1191.609 1788.095,1149.924 1712.13,1154.654 "
   id="polygon1048" />
			</g>
			<g
   id="g1077">
				<polygon
   fill="#5e261b"
   points="930.79,1160.786 886.076,1100.575 930.496,1110.262 "
   id="polygon1052" />
				<g
   id="g1075">
					<path
   fill="#d7cac1"
   d="m 958.09,1036.776 c -36.074,34.052 -37.412,115.171 -26.191,131.936 30.008,44.881 210.151,52.905 235.691,-19.896 0,0 -18.294,-77.792 -68.985,-103.396 -50.655,-25.605 -140.515,-8.644 -140.515,-8.644 z"
   id="path1054" />
					<g
   id="g1071">
						<defs
   id="defs1057">
							<path
   id="SVGID_19_"
   d="m 961.482,1035.015 c -36.042,34.085 -40.804,116.932 -29.584,133.697 30.008,44.881 210.151,52.905 235.691,-19.896 0,0 -17.874,-88.131 -68.524,-113.735 -50.691,-25.606 -137.583,-0.066 -137.583,-0.066 z" />
						</defs>
						<clipPath
   id="SVGID_20_">
							<use
   xlink:href="#SVGID_19_"
   overflow="visible"
   id="use1059" />
						</clipPath>
						
							<linearGradient
   id="SVGID_21_"
   gradientUnits="userSpaceOnUse"
   x1="1087.9486"
   y1="1063.3875"
   x2="1058.5172"
   y2="1298.839"
   gradientTransform="matrix(1.3404,0.1104,-0.0602,0.9982,-375.3308,-158.0485)">
							<stop
   offset="0"
   style="stop-color:#723B2F"
   id="stop1062" />
							<stop
   offset="0.4393"
   style="stop-color:#7B4132"
   id="stop1064" />
							<stop
   offset="1"
   style="stop-color:#8D4C39"
   id="stop1066" />
						</linearGradient>
						<path
   clip-path="url(#SVGID_20_)"
   fill="url(#SVGID_21_)"
   d="m 1134.157,1144.021 c -4.208,76.389 -70.355,132.588 -147.722,125.478 -77.4,-7.078 -136.731,-74.758 -132.523,-151.147 4.208,-76.422 70.388,-132.588 147.755,-125.51 77.4,7.077 136.73,74.757 132.49,151.179 z"
   id="path1069"
   style="fill:url(#SVGID_21_)" />
					</g>
					<path
   fill="#5e261b"
   d="m 927.724,1158.503 c 0,0 -36.564,-89.371 32.03,-133.273 91.556,-58.58 195.086,40.347 188.494,45.305 -6.621,4.958 -76.422,-62.527 -166.738,-22.799 -54.928,24.201 -53.786,110.767 -53.786,110.767 z"
   id="path1073" />
				</g>
			</g>
			<path
   opacity="0.3"
   fill="#c56a2d"
   d="m 935.258,316.168 c -164.357,66.408 -165.466,196.387 -138.981,332.759 23.386,87.316 66.506,177.013 115.921,264.361 l 1.859,-0.489 c 3.392,-173.718 12.003,-318.114 105.483,-417.694 61.809,-54.307 167.554,-74.823 361.788,-22.701 175.679,47.132 281.974,46.12 345.806,30.562 l 0.946,-0.946 C 1356.637,534.931 1246.718,190.299 935.258,316.168 Z"
   id="path1079" />
			<path
   opacity="0.3"
   fill="#c56a2d"
   d="m 1829.519,753.758 c 36.303,56.101 71.333,112.105 96.612,204.77 43.576,159.823 -9.916,361.364 47.621,372.323 58.352,11.09 55.877,-64.19 105.712,-149.255 15.754,-57.112 53.329,-219.904 23.256,-390.263 -117.585,13.405 -226.787,-20.288 -273.201,-37.575 z"
   id="path1081" />
			<g
   id="g1087">
				<path
   fill="#ffc63a"
   d="m 1265.147,101.842 c 0,0 479.111,-111.615 737.666,263.709 252.717,366.876 76.65,816.045 76.65,816.045 l 42.402,-5.251 c 0,0 203.139,-509.576 -71.431,-869.472 C 1780.76,-46.631 1365.052,40.848 1365.052,40.848 c 0,0 -92.925,10.079 -99.905,60.994 z"
   id="path1083" />
				<path
   fill="#eda626"
   d="m 2079.463,1181.595 42.402,-5.251 c 0,0 72.573,-182.329 72.247,-405.854 -18.592,6.556 -37.277,11.514 -55.971,15.232 9.981,220.785 -58.678,395.873 -58.678,395.873 z"
   id="path1085" />
			</g>
			<path
   fill="#b4e3f9"
   d="m 1580.096,4883.757 c 48.697,8.057 91.98,14.547 128.968,19.733 31.903,-60.374 70.583,-161.291 65.691,-288.921 -32.78,-13.34 -70.453,-28.997 -111.778,-46.643 -1.012,65.235 -13.113,192.832 -82.881,315.831 z"
   id="path1089" />
		</g>
	</g>
</g>
</svg>
