<svg version="1.1" xmlns="http://www.w3.org/2000/svg" xmlns:xlink="http://www.w3.org/1999/xlink" width="82.61968" height="140.00001" viewBox="0,0,82.61968,140.00001"><defs><radialGradient cx="230.4953" cy="113.73241" r="82.80171" gradientUnits="userSpaceOnUse" id="color-1"><stop offset="0" stop-color="#df7b32"/><stop offset="0.1744" stop-color="#d77631"/><stop offset="0.6137" stop-color="#ca6d2e"/><stop offset="1" stop-color="#c56a2d"/></radialGradient><radialGradient cx="230.49526" cy="113.73493" r="82.79946" gradientUnits="userSpaceOnUse" id="color-2"><stop offset="0" stop-color="#df7b32"/><stop offset="0.1744" stop-color="#d77631"/><stop offset="0.6137" stop-color="#ca6d2e"/><stop offset="1" stop-color="#c56a2d"/></radialGradient><linearGradient x1="257.81086" y1="229.15051" x2="245.95905" y2="175.85423" gradientUnits="userSpaceOnUse" id="color-3"><stop offset="0" stop-color="#f9a867"/><stop offset="0.3739" stop-color="#f5a05f"/><stop offset="0.9378" stop-color="#ea8c4b"/><stop offset="1" stop-color="#e98948"/></linearGradient><radialGradient cx="230.55874" cy="113.73498" r="82.83928" gradientUnits="userSpaceOnUse" id="color-4"><stop offset="0" stop-color="#df7b32"/><stop offset="0.1744" stop-color="#d77631"/><stop offset="0.6137" stop-color="#ca6d2e"/><stop offset="1" stop-color="#c56a2d"/></radialGradient><linearGradient x1="261.77078" y1="237.3131" x2="237.49512" y2="225.32892" gradientUnits="userSpaceOnUse" id="color-5"><stop offset="0" stop-color="#46a2a9"/><stop offset="0.299" stop-color="#4496a2"/><stop offset="1" stop-color="#407e93"/></linearGradient><linearGradient x1="235.08062" y1="175.21627" x2="236.2918" y2="161.53756" gradientUnits="userSpaceOnUse" id="color-6"><stop offset="0" stop-color="#f9a867"/><stop offset="0.4216" stop-color="#f8a564"/><stop offset="0.7062" stop-color="#f39c5b"/><stop offset="0.9496" stop-color="#eb8d4c"/><stop offset="1" stop-color="#e98948"/></linearGradient><linearGradient x1="238.08682" y1="136.63432" x2="232.32255" y2="134.15115" gradientUnits="userSpaceOnUse" id="color-7"><stop offset="0" stop-color="#df7b32"/><stop offset="0.1744" stop-color="#d77631"/><stop offset="0.6137" stop-color="#ca6d2e"/><stop offset="1" stop-color="#c56a2d"/></linearGradient><radialGradient cx="230.49578" cy="113.73498" r="82.80027" gradientUnits="userSpaceOnUse" id="color-8"><stop offset="0" stop-color="#df7b32"/><stop offset="0.1744" stop-color="#d77631"/><stop offset="0.6137" stop-color="#ca6d2e"/><stop offset="1" stop-color="#c56a2d"/></radialGradient><linearGradient x1="250.78007" y1="136.11228" x2="255.75292" y2="134.17047" gradientUnits="userSpaceOnUse" id="color-9"><stop offset="0" stop-color="#df7b32"/><stop offset="0.1744" stop-color="#d77631"/><stop offset="0.6137" stop-color="#ca6d2e"/><stop offset="1" stop-color="#c56a2d"/></linearGradient><linearGradient x1="200.7214" y1="223.92742" x2="241.1075" y2="244.52701" gradientUnits="userSpaceOnUse" id="color-10"><stop offset="0" stop-color="#5bb7bf"/><stop offset="0.3321" stop-color="#59a9b6"/><stop offset="1" stop-color="#5591a7"/></linearGradient><linearGradient x1="245.13425" y1="153.51554" x2="245.11993" y2="157.0145" gradientUnits="userSpaceOnUse" id="color-11"><stop offset="0" stop-color="#784034"/><stop offset="0.4648" stop-color="#814638"/><stop offset="1" stop-color="#91503f"/></linearGradient><linearGradient x1="233.48222" y1="217.28231" x2="225.12052" y2="172.22157" gradientUnits="userSpaceOnUse" id="color-12"><stop offset="0" stop-color="#f9a867"/><stop offset="0.4216" stop-color="#f8a564"/><stop offset="0.7062" stop-color="#f39c5b"/><stop offset="0.9496" stop-color="#eb8d4c"/><stop offset="1" stop-color="#e98948"/></linearGradient><linearGradient x1="256.29434" y1="211.51853" x2="249.63889" y2="189.01616" gradientUnits="userSpaceOnUse" id="color-13"><stop offset="0" stop-color="#f9a867"/><stop offset="0.4216" stop-color="#f8a564"/><stop offset="0.7062" stop-color="#f39c5b"/><stop offset="0.9496" stop-color="#eb8d4c"/><stop offset="1" stop-color="#e98948"/></linearGradient><linearGradient x1="229.81473" y1="248.08889" x2="281.58527" y2="221.79704" gradientUnits="userSpaceOnUse" id="color-14"><stop offset="0" stop-color="#5bb7bf"/><stop offset="0.3321" stop-color="#59a9b6"/><stop offset="1" stop-color="#5591a7"/></linearGradient><radialGradient cx="230.49525" cy="113.73498" r="82.79827" gradientUnits="userSpaceOnUse" id="color-15"><stop offset="0" stop-color="#df7b32"/><stop offset="0.1744" stop-color="#d77631"/><stop offset="0.6137" stop-color="#ca6d2e"/><stop offset="1" stop-color="#c56a2d"/></radialGradient><clipPath id="clip-1"><path d="M239.82798,139.60781c1.06123,0.92422 1.05848,3.63574 0.69502,4.06042c-0.97446,1.1352 -6.80848,1.15528 -7.4989,-0.76625c0,0 0.65573,-2.27315 2.23843,-2.88504c1.58178,-0.61278 4.56546,-0.40914 4.56546,-0.40914z" fill="none"/></clipPath><linearGradient x1="237.6451" y1="139.6114" x2="238.61889" y2="145.71696" gradientUnits="userSpaceOnUse" id="color-16"><stop offset="0" stop-color="#723b2f"/><stop offset="0.4393" stop-color="#7b4132"/><stop offset="1" stop-color="#8d4c39"/></linearGradient><clipPath id="clip-2"><path d="M254.38834,138.98042c1.00918,0.95438 1.14251,3.2741 0.82835,3.74352c-0.84022,1.25667 -5.88423,1.48134 -6.59935,-0.55709c0,0 0.50047,-2.46767 1.91867,-3.18458c1.41935,-0.71697 3.85232,-0.00185 3.85232,-0.00185z" fill="none"/></clipPath><linearGradient x1="252.77953" y1="138.65896" x2="254.281" y2="145.14876" gradientUnits="userSpaceOnUse" id="color-17"><stop offset="0" stop-color="#723b2f"/><stop offset="0.4393" stop-color="#7b4132"/><stop offset="1" stop-color="#8d4c39"/></linearGradient></defs><g transform="translate(-198.69016,-110)"><g data-paper-data="{&quot;isPaintingLayer&quot;:true}" fill-rule="nonzero" stroke="none" stroke-width="1" stroke-linecap="butt" stroke-linejoin="miter" stroke-miterlimit="10" stroke-dasharray="" stroke-dashoffset="0" style="mix-blend-mode: normal"><path d="M220.07653,183.74192c0,0 0.91602,2.4558 0.4548,5.20386c-0.46119,2.74896 -3.36644,4.74902 -3.36644,4.74902c0,0 -1.68213,-2.90514 -1.52872,-5.65958c0.15434,-2.75442 1.98456,-4.74902 1.98456,-4.74902z" data-paper-data="{&quot;index&quot;:null}" fill="url(#color-1)"/><path d="M230.86874,154.48869c1.50508,6.54181 -4.67597,10.26889 -4.67597,10.26889c2.72521,6.55824 -2.66403,11.33376 -2.66403,11.33376c2.7526,5.13537 -0.79456,8.93094 -0.79456,8.93094l-4.46421,-0.49498c-3.36622,-4.54264 0.18917,-9.54464 0.18917,-9.54464c-3.16268,-3.29966 -3.91065,-7.63955 -1.19,-11.40955c-3.8257,-3.06496 -3.91796,-13.111 -1.47036,-15.34943c0,0 13.56488,-0.27672 15.06996,6.26503z" data-paper-data="{&quot;index&quot;:null}" fill="url(#color-2)"/><path d="M217.26914,163.57312c-3.82572,-3.06586 -3.91796,-13.1119 -1.47036,-15.35036c0,0 13.56488,-0.2758 15.06996,6.26598c1.50508,6.54181 -4.67597,10.26889 -4.67597,10.26889c2.72521,6.55824 -2.66403,11.33376 -2.66403,11.33376c2.75262,5.13444 -0.79456,8.93001 -0.79456,8.93001l-2.37087,-0.26211c0.221,0.96897 0.4475,2.52154 0.16803,4.18645c-0.46119,2.74896 -3.36644,4.74902 -3.36644,4.74902c0,0 -1.68213,-2.90514 -1.52779,-5.66048c0.137,-2.4558 1.6037,-4.30245 1.92052,-4.67508c-2.07029,-4.19012 0.90152,-8.37749 0.90152,-8.37749c-3.16268,-3.29871 -3.91065,-7.6386 -1.19,-11.4086z" data-paper-data="{&quot;index&quot;:null}" fill="#c56a2d" opacity="0.3"/><path d="M251.6467,244.20719c0,0 1.85578,0.12603 4.08327,0.49773c2.22656,0.37078 6.31439,1.98453 5.32258,4.2093c-0.99274,2.22382 -5.1938,-1.48224 -9.65059,-2.96996z" data-paper-data="{&quot;index&quot;:null}" fill="#41334c"/><path d="M253.73169,209.99586c-5.90251,-3.87503 -14.72475,-23.34884 -14.46995,-33.71085c0.1589,-6.41942 7.30621,-10.01498 10.71364,2.82386c3.35527,15.82983 8.51264,19.71948 9.79216,24.97354c1.61193,6.61942 -2.43572,8.2761 -6.03585,5.91346z" data-paper-data="{&quot;index&quot;:null}" fill="url(#color-3)"/><path d="M245.88575,112.85157c6.29339,-1.21741 14.58778,2.03568 13.77393,12.60412c-0.71683,9.31818 -12.38118,20.50031 -11.47989,25.17995c0.46771,2.42477 -2.77637,7.67152 -10.83866,8.77386c-7.49708,1.02558 -18.66281,-3.44946 -22.84299,-13.77222c-3.80369,-9.39123 -5.73437,-23.19722 7.14557,-31.83774c7.10256,-4.76456 20.37146,-5.01113 24.24203,-0.94797z" data-paper-data="{&quot;index&quot;:null}" fill="url(#color-4)"/><path d="M215.79877,128.91976c5.8121,6.11713 14.94576,1.91878 14.94576,1.91878l6.03585,28.63395c-7.48157,0.73609 -18.20434,-3.76636 -22.28223,-13.83522c-3.16988,-7.82586 -5.0302,-18.71761 1.88969,-27.13071c-2.39918,3.19192 -2.92888,7.94917 -0.58906,10.4132z" data-paper-data="{&quot;index&quot;:null}" fill="#c56a2d" opacity="0.3"/><path d="M234.16383,245.78804c-23.34883,2.09782 -18.91305,-20.78068 -18.91305,-20.78068l36.13459,-1.07036c15.51656,-4.60018 23.44574,-8.66242 27.8395,-3.5572c7.90614,9.18484 -22.61557,23.39084 -45.06104,25.40824z" data-paper-data="{&quot;index&quot;:null}" fill="url(#color-5)"/><path d="M220.25282,206.961c0.70137,-7.65962 -3.34261,-20.19984 -1.18636,-28.12524c2.66221,-9.78211 8.6186,-13.91286 16.16591,-13.34662c10.60942,0.79638 17.75956,14.38136 17.22347,20.88755c-0.54614,6.62124 -4.12252,14.43159 -4.34538,21.22546c-0.17352,5.30978 2.68688,9.46338 6.03403,15.12568c-11.87259,16.35497 -33.80675,5.04129 -39.36038,3.68052c0.70036,-7.94184 4.61112,-10.06611 5.46871,-19.44734z" data-paper-data="{&quot;index&quot;:null}" fill="#f7e4ea"/><path d="M220.25371,206.96106c0.70048,-7.65965 -3.34454,-20.19984 -1.18726,-28.12524c0.3297,-1.211 0.71042,-2.33433 1.13795,-3.37364l15.30558,35.58489l11.38399,-17.07552l2.96268,4.08142c-0.87321,3.25492 -1.64662,6.50434 -1.74527,9.5492c-0.17444,5.30978 2.68596,9.46246 6.0331,15.12568c-11.87259,16.35494 -33.80583,5.04129 -39.36038,3.68052c0.70036,-7.94186 4.61112,-10.06614 5.4696,-19.44732z" data-paper-data="{&quot;index&quot;:null}" fill="#904c88" opacity="0.2"/><path d="M241.7294,167.47736c0,0 2.59636,7.95463 -3.37364,8.32726c-8.67339,0.54247 -9.35836,-9.57023 -9.35836,-9.57023c0,0 1.30418,-0.47124 3.07958,-0.92515l0.64935,-8.34095l5.98926,0.54158l-0.39362,8.16743c1.84209,0.8603 3.40743,1.80006 3.40743,1.80006z" data-paper-data="{&quot;index&quot;:null}" fill="url(#color-6)"/><path d="M257.28615,149.9315c-0.61099,4.8979 -6.58199,13.90007 -14.10007,13.92107c-5.1819,0.01462 -14.04253,-3.97365 -17.50202,-12.08903c-2.16723,-0.80735 -4.16181,-0.99366 -5.35637,-3.66134c-1.54708,-3.45218 1.13064,-6.60114 3.25755,-4.54171c-1.27756,-11.9201 3.76188,-24.35801 16.10025,-23.821c18.47283,0.8055 15.46359,9.76111 16.21796,21.97891c0.15711,2.53162 1.7325,5.40112 1.3827,8.2131z" data-paper-data="{&quot;index&quot;:null}" fill="#f9a867"/><path d="M239.3832,133.54276c0.37993,0.81374 -1.56444,0.48404 -4.46046,1.56352c-2.35169,0.87766 -3.4111,3.1024 -3.791,2.28959c-0.37901,-0.81374 1.00918,-2.62293 3.28779,-3.6869c2.27774,-1.06305 4.58377,-0.97902 4.96367,-0.16621z" data-paper-data="{&quot;index&quot;:null}" fill="url(#color-7)"/><path d="M225.42649,149.41092c-0.22282,0.57719 -1.74801,0.06667 -2.61562,-0.79089c-0.86668,-0.85848 -1.12605,-3.80562 1.21274,-3.60013c0,0 1.62565,3.81385 1.40288,4.39102z" data-paper-data="{&quot;index&quot;:null}" fill="#e98948"/><path d="M246.60997,150.07124c-0.15982,0.01369 -0.3306,0.01826 -0.50596,0.01005c-0.16439,-0.00549 -0.29226,-0.14613 -0.28311,-0.31142c0.00263,-0.16439 0.14613,-0.29498 0.31142,-0.28311c1.432,0.05844 2.48777,-0.83199 2.95994,-1.61193c0.27034,-0.4548 0.27306,-0.73427 0.242,-0.7845c-0.221,-0.27398 -1.22013,-0.27034 -1.82017,-0.16895c-0.13059,0.01462 -0.18631,-0.0201 -0.25754,-0.0831c-0.04656,-0.04567 -1.12882,-1.15713 -1.47129,-3.69603c-0.02374,-0.16257 0.09134,-0.31416 0.25743,-0.33516l0.00913,-0.00092c0.16086,-0.01369 0.30514,0.09954 0.32525,0.25847c0.25847,1.89596 0.95802,2.92432 1.21192,3.24122c0.5014,-0.02649 1.76081,-0.14795 2.21012,0.40914c0.21633,0.26485 0.18995,0.72058 -0.07672,1.25303c-0.37626,0.74973 -1.43108,1.95891 -3.11242,2.10322z" data-paper-data="{&quot;index&quot;:null}" fill="#e98948"/><path d="M250.76355,117.42252c9.02591,5.11344 4.95544,13.21328 4.86777,13.40965c-1.07038,-4.81298 -1.61468,-10.65977 -12.99869,-7.60488c-11.00224,2.95263 -12.28721,-0.84568 -12.28721,-0.84568c0,0 8.8734,-11.50089 20.41813,-4.95908z" data-paper-data="{&quot;index&quot;:null}" fill="url(#color-8)"/><path d="M254.19747,133.74366c1.60644,1.02015 2.36174,2.61016 1.91971,3.30607c-0.44111,0.69591 -0.86397,-1.24569 -2.56082,-2.1051c-2.08958,-1.05848 -3.69695,-0.89228 -3.25492,-1.58819c0.44111,-0.69502 2.29048,-0.63199 3.89603,0.38721z" data-paper-data="{&quot;index&quot;:null}" fill="url(#color-9)"/><path d="M228.97358,230.92085c11.37942,5.48512 24.03388,9.17112 24.03388,9.17112c1.48954,3.44305 -1.04672,7.39298 -1.04672,7.39298c0,0 -13.86434,-0.13698 -29.90786,-4.02755c-16.04352,-3.89054 -27.23585,-12.89089 -22.10404,-19.7496c6.28334,-8.39849 18.45458,2.11789 29.02474,7.21305z" data-paper-data="{&quot;index&quot;:null}" fill="url(#color-10)"/><path d="M246.12493,237.82616c1.21934,0.42283 2.3308,0.79635 3.29613,1.11418c0.39452,3.64762 -0.51327,6.6176 -1.30782,8.41036c-1.07038,-0.07398 -2.32338,-0.17444 -3.73531,-0.30778c1.75532,-3.66405 1.84744,-7.34457 1.747,-9.21676z" data-paper-data="{&quot;index&quot;:null}" fill="#92cfe8"/><g data-paper-data="{&quot;index&quot;:null}"><path d="M250.45941,153.12887c0.36075,0.59088 -1.8713,4.03486 -5.04689,4.0458c-3.84023,0.0128 -5.91609,-3.47777 -5.61198,-3.60469c0.15159,-0.06303 2.87591,0.26393 5.50522,0.16988c2.62388,-0.09498 5.15365,-0.61099 5.15365,-0.61099z" fill="url(#color-11)"/><path d="M245.4856,154.53716c-1.60737,-0.02282 -2.80274,-0.53427 -3.3845,-0.84386c0.94889,0.05023 2.0841,0.08677 3.20468,0.04567c1.41193,-0.05023 2.7928,-0.22282 3.77093,-0.3717c-0.1717,0.14977 -1.44298,1.20095 -3.59111,1.1699z" fill="#e7ddd5"/><path d="M245.41255,157.1747c-2.12142,0.00638 -3.7023,-1.05484 -4.64299,-2.0293c2.90514,0.08585 4.88239,1.15528 5.86415,1.85122c-0.38814,0.10956 -0.79456,0.17623 -1.22116,0.17808z" fill="#a95643"/></g><path d="M233.24417,215.29013c-5.76187,-4.08142 -14.40236,-27.1782 -13.78042,-37.5247c0.3845,-6.40937 7.65509,-9.75013 10.60679,3.20104c2.7928,15.9385 8.32269,23.33055 9.41486,28.62664c1.3764,6.6724 -2.72695,8.18569 -6.24123,5.69702z" data-paper-data="{&quot;index&quot;:null}" fill="url(#color-12)"/><path d="M245.37979,189.71017l3.41382,-0.29224c-0.01187,5.00293 8.86791,10.05152 10.96936,15.45264c0.78907,2.02838 0.69502,4.4714 -1.20837,5.69064c-5.87958,3.76449 -12.35836,-9.21043 -13.17481,-20.85104z" data-paper-data="{&quot;index&quot;:null}" fill="url(#color-13)"/><path d="M245.12132,189.75858c-0.93884,-1.59186 -6.49888,-4.8897 -6.31347,-5.62943c0.18438,-0.73976 2.92158,0.74707 3.61567,0.72514c0.7562,-0.02374 1.17163,-2.15625 1.50872,-5.3445c0.29865,-2.81288 0.39351,-5.47784 0.83107,-5.47873c0.93234,-0.00092 0.42742,5.15908 0.97446,5.34176c0.54706,0.18357 0.49672,-7.37106 1.41831,-7.37288c0.92151,-0.00182 0.15252,7.26146 0.60824,7.54457c0.45662,0.28311 0.59088,-6.33814 1.51514,-6.34637c0.92422,-0.0082 -0.39088,6.76463 0.26393,7.0441c0.65573,0.27854 0.96351,-4.20837 1.60555,-4.11247c0.64112,0.0968 0.40732,3.0604 -0.68678,7.64778c-0.5087,2.13615 -1.71696,4.86592 -1.67768,5.92169z" data-paper-data="{&quot;index&quot;:null}" fill="#e98948"/><path d="M243.88658,189.70925c-0.87595,-1.6238 -6.30252,-5.11619 -6.0879,-5.84861c0.2137,-0.73245 2.89052,0.85025 3.58551,0.85299c0.7562,0.00274 1.25485,-2.11425 1.71878,-5.28788c0.40824,-2.80011 0.60917,-5.45958 1.04572,-5.44404c0.93246,0.03105 0.22375,5.17006 0.7635,5.37188c0.53883,0.20182 0.78814,-7.34731 1.70873,-7.31716c0.92058,0.03016 -0.13426,7.26054 0.31052,7.56011c0.44464,0.29865 0.8393,-6.31257 1.76352,-6.2879c0.92422,0.02467 -0.65755,6.74545 -0.01369,7.04774c0.64386,0.30139 1.12882,-4.17094 1.76627,-4.05222c0.63748,0.11872 0.28678,3.07227 -0.98725,7.61765c-0.59363,2.11607 -1.90784,4.8011 -1.91069,5.85777z" data-paper-data="{&quot;index&quot;:null}" fill="#f9a867"/><path d="M233.0615,208.43324c1.6238,-5.5162 6.64955,-8.50534 10.88808,-18.83907l3.62844,-0.06118c-1.90417,9.31087 -1.61557,22.9269 -8.92727,26.34621c-4.15184,2.05486 -7.17287,-2.06584 -5.58925,-7.44596z" data-paper-data="{&quot;index&quot;:null}" fill="#f9a867"/><path d="M229.6212,245.75794c-5.1609,1.72245 -10.02593,6.01485 -11.17575,3.43848c-1.1489,-2.57544 3.58551,-4.44402 6.1637,-4.87416c2.57908,-0.43016 4.72802,-0.57537 4.72802,-0.57537z" data-paper-data="{&quot;index&quot;:null}" fill="#41334c"/><path d="M279.73907,220.53963c5.7034,6.23311 -4.8011,15.85906 -20.58616,20.92409c-15.78506,5.06593 -29.68697,6.31806 -29.68697,6.31806c0,0 -2.86404,-3.62298 -1.64755,-7.07879c0,0 12.40137,-4.59469 23.37714,-10.82872c10.19581,-5.79113 21.55972,-16.96596 28.54353,-9.33464z" data-paper-data="{&quot;index&quot;:null}" fill="url(#color-14)"/><path d="M232.25692,122.82089c0,0 1.62655,0.8192 0,4.4723c-1.62655,3.6531 -3.65859,5.07142 -4.87872,9.54649c-1.22013,4.47415 0.27765,10.11819 -1.33339,10.42415c-1.63386,0.31052 -1.56456,-1.79642 -2.95994,-4.17914c-0.6183,-2.2421 -2.44118,-10.30358 1.44754,-16.60428c4.26866,-6.91807 7.7245,-3.65952 7.7245,-3.65952z" data-paper-data="{&quot;index&quot;:null}" fill="url(#color-15)"/><g data-paper-data="{&quot;index&quot;:null}"><g><path d="M239.82798,139.60781c1.06123,0.92422 1.05848,3.63574 0.69502,4.06042c-0.97446,1.1352 -6.80848,1.15528 -7.4989,-0.76625c0,0 0.65666,-1.99917 2.23936,-2.61198c1.58178,-0.61186 4.56453,-0.68219 4.56453,-0.68219z" fill="#d7cac1"/><g><g clip-path="url(#clip-1)"><path d="M238.03156,138.84067c1.96627,-0.095 3.58918,1.44113 3.6248,3.433c0.03651,1.99184 -1.52793,3.68323 -3.4942,3.77913c-1.96535,0.0959 -3.58826,-1.44113 -3.62387,-3.433c-0.03654,-1.99094 1.5279,-3.68323 3.49328,-3.77913z" fill="url(#color-16)"/></g></g><path d="M235.38578,139.29914c2.60742,-1.2101 5.15544,0.48586 5.1042,0.66486c-0.09304,0.3306 -2.0914,-0.96897 -4.68042,0.06941c-1.83022,0.73338 -2.9363,3.33164 -2.9363,3.33164c-0.85926,-0.69045 0.55712,-3.15812 2.51252,-4.06591z" fill="#5e261b"/></g><path d="M232.87326,143.36505l-1.63008,-1.16718l2.12702,0.13244z" fill="#5e261b"/></g><g data-paper-data="{&quot;index&quot;:null}"><path d="M255.25595,141.08733l1.24376,-0.27124l-1.25199,1.68591z" fill="#5e261b"/><g><path d="M254.48332,139.02972c1.01007,0.95346 1.04754,3.22479 0.73335,3.69421c-0.84022,1.25667 -5.88423,1.48134 -6.59935,-0.55709c0,0 0.51223,-2.17818 1.93158,-2.89509c1.41834,-0.71694 3.93442,-0.24203 3.93442,-0.24203z" fill="#d7cac1"/><g><g clip-path="url(#clip-2)"><path d="M253.26316,137.79957c2.16628,-0.19818 4.01932,1.37446 4.13714,3.51428c0.11782,2.13889 -1.54344,4.03393 -3.71064,4.23212c-2.16628,0.19908 -4.01839,-1.37449 -4.13622,-3.51338c-0.11872,-2.13982 1.54252,-4.03486 3.70972,-4.23301z" fill="url(#color-17)"/></g></g><path d="M253.82756,139.3366c-2.52885,-1.11238 -4.48328,0.7772 -4.66866,0.63837c-0.18458,-0.13882 2.71426,-2.90878 5.27783,-1.26854c1.92063,1.22926 0.89684,3.73164 0.89684,3.73164c0,0 0.03198,-2.42385 -1.50601,-3.10148z" fill="#5e261b"/></g></g><path d="M255.12262,118.8527c4.602,1.85942 4.63305,5.49884 3.89147,9.31725c-0.65481,2.44485 -1.86217,4.95636 -3.24579,7.40211l-0.05205,-0.01369c-0.09498,-4.8641 -0.33608,-8.90719 -2.95352,-11.69543c-1.73065,-1.5206 -4.69151,-2.09504 -10.13006,-0.63563c-4.91901,1.3197 -7.89527,1.29136 -9.68257,0.85574l-0.02649,-0.02649c10.4004,0.92151 13.47814,-8.72819 22.19901,-5.20386z" data-paper-data="{&quot;index&quot;:null}" fill="#c56a2d" opacity="0.3"/><path d="M230.08331,131.10522c-1.01648,1.57083 -1.99732,3.13894 -2.70514,5.73356c-1.22013,4.47504 0.27765,10.11819 -1.33339,10.42504c-1.63386,0.31052 -1.56456,-1.79732 -2.95994,-4.17914c-0.44111,-1.59914 -1.49321,-6.15731 -0.65117,-10.92736c3.29238,0.37534 6.35004,-0.56806 7.64963,-1.0521z" data-paper-data="{&quot;index&quot;:null}" fill="#c56a2d" opacity="0.3"/><g data-paper-data="{&quot;index&quot;:null}"><path d="M245.88572,112.85157c0,0 -13.41511,-3.12522 -20.65465,7.38385c-7.07608,10.27253 -2.1462,22.84926 -2.1462,22.84926l-1.18726,-0.14703c0,0 -5.68789,-14.26813 2.00007,-24.34522c7.55087,-9.89811 19.1907,-7.4487 19.1907,-7.4487c0,0 2.6019,0.28221 2.79734,1.70783z" fill="#ffc63a"/><path d="M223.08488,143.08466l-1.18726,-0.14703c0,0 -2.03204,-5.10521 -2.02292,-11.36391c0.52058,0.18357 1.04376,0.32239 1.56719,0.4265c-0.27947,6.18198 1.64298,11.08444 1.64298,11.08444z" fill="#eda626"/></g><path d="M237.06715,246.74519c-1.36352,0.2256 -2.57544,0.40732 -3.6111,0.55252c-0.89328,-1.69047 -1.97632,-4.51615 -1.83935,-8.08979c0.91784,-0.37352 1.97268,-0.81192 3.12978,-1.306c0.02834,1.82658 0.36716,5.3993 2.32067,8.84327z" data-paper-data="{&quot;index&quot;:null}" fill="#b4e3f9"/></g></g></svg>