<svg width="140" height="140" viewBox="0 0 11.2 11.2" version="1.1" id="prefix__svg85" xmlns="http://www.w3.org/2000/svg"><defs id="prefix__defs4"><style id="style2">.prefix__cls-1{fill:#4c4337}.prefix__cls-4{fill:#f2f2f2}.prefix__cls-5{fill:#ccc}.prefix__cls-7{fill:#cbb292}.prefix__cls-8{fill:#5f443e}.prefix__cls-9{fill:#7f5b53}.prefix__cls-10{fill:#b0d3f0}.prefix__cls-11{fill:#849eb4}</style></defs><g data-name="Layer 4" id="prefix__Layer_4" transform="matrix(.18667 0 0 .18667 -.373 -.373)"><path class="prefix__cls-1" id="prefix__rect8" d="M41 24h2v11h-2z"/><path id="prefix__polygon10" fill="#71c285" d="M34 35v23h24V42.71z"/><path id="prefix__polyline12" fill="#4c8056" d="M34 31l28 9v4l-28-9"/><path class="prefix__cls-4" id="prefix__rect14" d="M38 46h16v4H38z"/><path class="prefix__cls-5" id="prefix__rect16" d="M38 50h16v4H38z"/><path class="prefix__cls-4" id="prefix__rect18" d="M38 54h16v4H38z"/><path id="prefix__rect20" fill="#98856e" d="M34 20h12v4H34z"/><path class="prefix__cls-7" id="prefix__rect22" d="M34 20h9v4h-9z"/><path class="prefix__cls-8" id="prefix__rect24" d="M2 58h60v4H2z"/><path class="prefix__cls-9" id="prefix__rect26" d="M2 58h57v4H2z"/><path class="prefix__cls-7" id="prefix__rect28" d="M4 8h30v50H4z"/><path class="prefix__cls-5" d="M14 58v-5a5 5 0 015-5 5 5 0 015 5v5" id="prefix__path30"/><path class="prefix__cls-4" d="M17.5 48.25A5 5 0 0014 53v5h7v-5a5 5 0 00-3.5-4.75z" id="prefix__path32"/><path class="prefix__cls-10" id="prefix__rect34" d="M4 14h15v10H4z"/><path class="prefix__cls-11" id="prefix__rect36" d="M19 14h15v10H19z"/><path class="prefix__cls-10" id="prefix__rect38" d="M19 24h15v10H19z"/><path class="prefix__cls-11" id="prefix__rect40" d="M19 34h15v10H19z"/><path class="prefix__cls-10" id="prefix__rect42" d="M4 34h15v10H4z"/><path class="prefix__cls-11" id="prefix__rect44" d="M4 24h15v10H4z"/><path class="prefix__cls-8" id="prefix__rect46" d="M2 2h34v6H2z"/><path class="prefix__cls-9" id="prefix__rect48" d="M2 2h31v6H2z"/><path class="prefix__cls-1" d="M46 25H34v-2h11v-2H34v-2h12a1 1 0 011 1v4a1 1 0 01-1 1z" id="prefix__path50"/><path class="prefix__cls-5" transform="rotate(-45 9 19.002)" id="prefix__rect52" d="M6.17 18h5.66v2H6.17z"/><path class="prefix__cls-5" transform="rotate(-45 13.997 18.992)" id="prefix__rect54" d="M11.17 18h5.66v2h-5.66z"/><path class="prefix__cls-5" transform="rotate(-45 24.003 19.008)" id="prefix__rect56" d="M21.17 18h5.66v2h-5.66z"/><path class="prefix__cls-5" transform="rotate(-45 29 18.998)" id="prefix__rect58" d="M26.17 18h5.66v2h-5.66z"/><path class="prefix__cls-5" transform="rotate(-45 23.993 29.002)" id="prefix__rect60" d="M21.17 28h5.66v2h-5.66z"/><path class="prefix__cls-5" transform="rotate(-45 29.001 28.997)" id="prefix__rect62" d="M26.17 28h5.66v2h-5.66z"/><path class="prefix__cls-5" transform="rotate(-45 23.995 39.001)" id="prefix__rect64" d="M21.17 38h5.66v2h-5.66z"/><path class="prefix__cls-5" transform="rotate(-45 29.003 38.997)" id="prefix__rect66" d="M26.17 38h5.66v2h-5.66z"/><path class="prefix__cls-5" transform="rotate(-45 9.004 39)" id="prefix__rect68" d="M6.17 38h5.66v2H6.17z"/><path class="prefix__cls-5" transform="rotate(-45 13.996 39.003)" id="prefix__rect70" d="M11.17 38h5.66v2h-5.66z"/><path class="prefix__cls-5" transform="rotate(-45 9.003 29.001)" id="prefix__rect72" d="M6.17 28h5.66v2H6.17z"/><path class="prefix__cls-5" transform="rotate(-45 13.994 29.004)" id="prefix__rect74" d="M11.17 28h5.66v2h-5.66z"/><path class="prefix__cls-1" id="prefix__rect76" d="M37 14h2v6h-2z"/><path class="prefix__cls-1" id="prefix__rect78" d="M41 14h2v6h-2z"/><path class="prefix__cls-1" id="prefix__rect80" d="M34 27h8v2h-8z"/><path class="prefix__cls-1" d="M47 20h-2v-5H34v-2h12a1 1 0 011 1z" id="prefix__path82"/></g></svg>