<svg xmlns="http://www.w3.org/2000/svg" width="138.614" height="72.78" viewBox="0 0 177.426 93.159" xmlns:v="https://vecta.io/nano"><path d="M170.125 42.014l-.06-6.883-4.675 4.575c-1.293 1.273-3.362 1.273-4.635 0l-3.243-3.203-3.223 3.223a3.28 3.28 0 0 1-2.327.955 3.28 3.28 0 0 1-2.327-.955l-3.203-3.223-3.223 3.223a3.28 3.28 0 0 1-2.327.955 3.28 3.28 0 0 1-2.327-.955l-3.223-3.223-3.223 3.223a3.28 3.28 0 0 1-2.327.955 3.28 3.28 0 0 1-2.327-.955l-5.55-5.55c-1.273-1.293-1.273-3.362 0-4.635 1.293-1.293 3.362-1.293 4.635 0l3.223 3.223 3.223-3.223c1.273-1.293 3.362-1.293 4.635 0l3.223 3.223 3.223-3.223a3.28 3.28 0 0 1 2.327-.955 3.28 3.28 0 0 1 2.327.955l3.223 3.223 3.223-3.223a3.28 3.28 0 0 1 2.327-.955 3.28 3.28 0 0 1 2.327.955l3.223 3.223 3.64-3.561c-.935-.736-2.029-1.313-3.243-1.651l-36.901-10.185a3.64 3.64 0 0 1-2.686-3.521c0-3.581-2.924-6.505-6.505-6.505-2.129 0-4.118 1.034-5.331 2.785a3.67 3.67 0 0 1-2.984 1.572H97.535l-4.675 4.675c-.637.637-1.472.955-2.327.955a3.3 3.3 0 0 1-2.327-.955 3.29 3.29 0 0 1 0-4.635l.06-.06h-3.422l-4.695 4.695c-.637.637-1.472.955-2.327.955a3.3 3.3 0 0 1-2.327-.955 3.29 3.29 0 0 1 0-4.635l.06-.06h-3.382l-4.695 4.695c-.637.637-1.472.955-2.327.955a3.3 3.3 0 0 1-2.327-.955 3.29 3.29 0 0 1 0-4.635l.06-.06H59.46l-4.695 4.695c-.637.637-1.472.955-2.327.955a3.3 3.3 0 0 1-2.327-.955 3.29 3.29 0 0 1 0-4.635l.06-.06h-3.422l-4.695 4.695c-.637.637-1.472.955-2.327.955-.836 0-1.671-.318-2.327-.955-1.293-1.273-1.293-3.362 0-4.635l.06-.06A30.12 30.12 0 0 0 10.722 27.91c-.02.02-.02.06-.04.08-.557 1.054-1.054 2.168-1.472 3.282-1.273 3.382-1.91 6.963-1.91 10.623 0 11.717 4.536 22.738 12.791 31.033 8.236 8.275 19.197 12.891 30.894 12.97.219-.02.378-.179.378-.398a.4.4 0 0 0-.398-.398h-1.273c-11.498 0-20.868-9.37-20.868-20.868 0-5.053 1.81-9.847 5.053-13.607-.816-1.452-1.273-3.123-1.273-4.894V35.051A10.13 10.13 0 0 1 42.73 24.926a10.13 10.13 0 0 1 10.126 10.126v.458c5.61.279 10.503 3.342 13.289 7.838H79.97v-8.295a10.13 10.13 0 0 1 10.126-10.126 10.13 10.13 0 0 1 10.126 10.126v.458c5.61.279 10.503 3.342 13.289 7.838h55.243c.776 0 1.373-.597 1.373-1.333z" fill="#6a973a"/><g fill="#633"><path d="M165.39 20.51c7.122 1.969 12.075 8.494 12.035 15.875l-.02 5.65c-.02 4.735-3.879 8.594-8.634 8.594h-52.796c.04.477.06.955.06 1.452 0 2.009-1.631 3.64-3.64 3.64h-22.38c-3.74 0-7.002-2.069-8.733-5.093H68.591c.04.477.06.955.06 1.452 0 2.009-1.631 3.64-3.64 3.64h-22.38c-1.094 0-2.129-.179-3.123-.497-2.168 2.467-3.382 5.63-3.382 8.972 0 7.48 6.087 13.567 13.567 13.567h1.273a7.72 7.72 0 0 1 7.699 7.699 7.74 7.74 0 0 1-7.599 7.699h-.08c-13.647-.08-26.458-5.451-36.066-15.119C5.292 68.372 0 55.521 0 41.855c0-4.536.796-8.972 2.387-13.189.517-1.373 1.83-4.078 1.83-4.098.02-.02.02-.04.02-.06C10.722 12.075 23.474 4.337 37.498 4.337h69.804C109.889 1.591 113.509 0 117.349 0c6.624 0 12.174 4.695 13.507 10.941z"/><path d="M121.546 13.826a4.18 4.18 0 0 0-4.178-4.178 4.18 4.18 0 0 0-4.178 4.178 4.18 4.18 0 0 0 4.178 4.178c2.308.02 4.178-1.85 4.178-4.178z"/></g><path d="M170.065 35.131c.06.398.06 6.883.06 6.883 0 .736-.597 1.333-1.333 1.333h-55.263c-2.805-4.496-7.679-7.579-13.289-7.838v-.458a10.13 10.13 0 0 0-10.126-10.126A10.13 10.13 0 0 0 79.99 35.051v8.295H66.164c-2.805-4.496-7.679-7.579-13.289-7.838v-.458A10.13 10.13 0 0 0 42.75 24.926a10.13 10.13 0 0 0-10.126 10.126v10.683c0 1.77.458 3.441 1.273 4.894-3.243 3.74-5.053 8.534-5.053 13.607 0 11.498 9.37 20.868 20.868 20.868h1.273a.4.4 0 0 1 .398.398c0 .219-.179.398-.378.398-11.677-.08-22.658-4.695-30.894-12.97-8.256-8.295-12.791-19.316-12.791-31.033a30.14 30.14 0 0 1 1.91-10.623c.418-1.114.915-2.228 1.472-3.282.02-.02.02-.06.04-.08 5.232-10.006 15.477-16.213 26.736-16.233l-.06.06c-1.293 1.293-1.293 3.362 0 4.635.637.637 1.472.955 2.327.955a3.3 3.3 0 0 0 2.327-.955l4.695-4.695h3.422l-.06.06c-1.273 1.293-1.273 3.362 0 4.635.637.637 1.472.955 2.327.955.836 0 1.671-.318 2.327-.955l4.695-4.695h3.422l-.06.06c-1.273 1.293-1.273 3.362 0 4.635.637.637 1.472.955 2.327.955.835 0 1.671-.318 2.327-.955l4.695-4.695h3.422l-.06.06c-1.273 1.293-1.273 3.362 0 4.635.637.637 1.472.955 2.327.955.835 0 1.671-.318 2.327-.955l4.695-4.695h3.382l-.06.06c-1.273 1.293-1.273 3.362 0 4.635.637.637 1.472.955 2.327.955.835 0 1.671-.318 2.327-.955l4.695-4.695h11.498c1.194 0 2.308-.577 2.984-1.572 1.213-1.751 3.203-2.785 5.331-2.785 3.581 0 6.505 2.924 6.505 6.505a3.66 3.66 0 0 0 2.686 3.521l36.901 10.185c1.213.338 2.288.895 3.243 1.651-.139.099-3.64 3.561-3.64 3.561l-3.243-3.203a3.28 3.28 0 0 0-2.327-.955 3.28 3.28 0 0 0-2.327.955l-3.223 3.223-3.223-3.223a3.28 3.28 0 0 0-2.327-.955 3.28 3.28 0 0 0-2.327.955l-3.223 3.223-3.203-3.223c-1.293-1.293-3.362-1.293-4.635 0l-3.223 3.223-3.223-3.223c-1.273-1.293-3.362-1.293-4.635 0a3.29 3.29 0 0 0 0 4.635l5.55 5.55a3.28 3.28 0 0 0 2.327.955 3.28 3.28 0 0 0 2.327-.955l3.223-3.223 3.223 3.223a3.28 3.28 0 0 0 2.327.955 3.28 3.28 0 0 0 2.327-.955l3.223-3.223 3.223 3.223a3.28 3.28 0 0 0 2.327.955 3.28 3.28 0 0 0 2.327-.955l3.223-3.223 3.223 3.223c1.293 1.273 3.362 1.273 4.635 0z" fill="#6a973a"/><path d="M117.369 9.648a4.18 4.18 0 0 1 4.178 4.178 4.18 4.18 0 0 1-4.178 4.178 4.18 4.18 0 0 1-4.178-4.178 4.18 4.18 0 0 1 4.178-4.178z" fill="#633"/><path d="M107.999 48.459H90.016a2.73 2.73 0 0 1-2.725-2.725V35.051c0-1.552 1.273-2.825 2.825-2.825s2.825 1.273 2.825 2.825v4.078c0 2.009 1.631 3.64 3.64 3.64h2.845c3.839.02 7.161 2.347 8.574 5.689zm-47.385 0H42.631a2.73 2.73 0 0 1-2.725-2.725V35.051c0-1.552 1.273-2.825 2.825-2.825 1.572 0 2.825 1.273 2.825 2.825v4.078c0 2.009 1.631 3.64 3.64 3.64h2.845c3.859.02 7.161 2.347 8.574 5.689z" fill="#6a973a"/></svg>