<svg width="87.5" height="140" viewBox="0 0 112 179.2" class="prefix__icon" xmlns="http://www.w3.org/2000/svg"><path d="M100.8 95.2v-84A11.2 11.2 0 0089.6 0H22.4a11.2 11.2 0 00-11.2 11.2v84z" fill="#84bf56"/><path d="M11.2 89.6h89.6v5.6H11.2zM67.2 28a5.6 5.6 0 1011.2 0 5.6 5.6 0 10-11.2 0zM50.4 50.4a5.6 5.6 0 1011.2 0 5.6 5.6 0 10-11.2 0zM33.6 28a5.6 5.6 0 1011.2 0 5.6 5.6 0 10-11.2 0zM67.2 72.8a5.6 5.6 0 1011.2 0 5.6 5.6 0 10-11.2 0zM33.6 72.8a5.6 5.6 0 1011.2 0 5.6 5.6 0 10-11.2 0z"/><path d="M11.2 173.6a5.6 5.6 0 1011.2 0v-56H11.2zm78.4-56v56a5.6 5.6 0 1011.2 0v-56z" fill="#434854"/><path d="M112 112a5.6 5.6 0 01-5.6 5.6H5.6A5.6 5.6 0 010 112v-11.2a5.6 5.6 0 015.6-5.6h100.8a5.6 5.6 0 015.6 5.6z" fill="#84bf56"/><path d="M106.4 95.2H5.6a5.6 5.6 0 00-5.6 5.6v5.6a5.6 5.6 0 015.6-5.6h100.8a5.6 5.6 0 015.6 5.6v-5.6a5.6 5.6 0 00-5.6-5.6z" fill="#fff"/><path d="M89.6 117.6h11.2v5.6H89.6zm-78.4 0h11.2v5.6H11.2z"/></svg>