<svg version="1.1" xmlns="http://www.w3.org/2000/svg" xmlns:xlink="http://www.w3.org/1999/xlink" width="140" height="140" viewBox="0,0,140,140"><g transform="translate(-170,-110)"><g data-paper-data="{&quot;isPaintingLayer&quot;:true}" fill-rule="nonzero" stroke="none" stroke-width="1" stroke-linecap="butt" stroke-linejoin="miter" stroke-miterlimit="10" stroke-dasharray="" stroke-dashoffset="0" style="mix-blend-mode: normal"><path d="M170,236v-46.66667h140v46.66667z" fill="#47332f"/><path d="M170,236v-46.66667h133v46.66667z" fill="#7f5b53"/><path d="M226,238.33333v-16.33333c0,-7.73199 6.26801,-14 14,-14v0c7.73199,0 14,6.26801 14,14v16.33333z" fill="#cccccc"/><path d="M247,222v16.33333h-21v-16.33333c0.01007,-6.37574 4.3267,-11.9394 10.5,-13.53333c6.1733,1.59393 10.48993,7.15759 10.5,13.53333z" fill="#f2f2f2"/><path d="M184,238.33333v-16.33333c0,-7.73199 6.26801,-14 14,-14v0c7.73199,0 14,6.26801 14,14v16.33333z" fill="#cccccc"/><path d="M205,222v16.33333h-21v-16.33333c0.01007,-6.37574 4.3267,-11.9394 10.5,-13.53333c6.1733,1.59393 10.48993,7.15759 10.5,13.53333z" fill="#f2f2f2"/><path d="M268,238.33333v-16.33333c0,-7.73199 6.26801,-14 14,-14v0c7.73199,0 14,6.26801 14,14v16.33333z" fill="#cccccc"/><path d="M289,222v16.33333h-21v-16.33333c0.01007,-6.37574 4.3267,-11.9394 10.5,-13.53333c6.1733,1.59393 10.48993,7.15759 10.5,13.53333z" fill="#f2f2f2"/><path d="M170,250v-14l6.04333,-6.04333c2.11227,-2.10649 4.97355,-3.2896 7.95667,-3.29v0c2.98312,0.0004 5.8444,1.18351 7.95667,3.29l2.75333,2.75333c2.11227,2.10649 4.97355,3.2896 7.95667,3.29v0c2.98312,-0.0004 5.8444,-1.18351 7.95667,-3.29l2.75333,-2.75333c2.11227,-2.10649 4.97355,-3.2896 7.95667,-3.29v0c2.98312,0.0004 5.8444,1.18351 7.95667,3.29l2.75333,2.75333c2.11227,2.10649 4.97355,3.2896 7.95667,3.29v0c2.98312,-0.0004 5.8444,-1.18351 7.95667,-3.29l2.75333,-2.75333c2.11227,-2.10649 4.97355,-3.2896 7.95667,-3.29v0c2.98312,0.0004 5.8444,1.18351 7.95667,3.29l2.75333,2.75333c2.11227,2.10649 4.97355,3.2896 7.95667,3.29v0c2.98312,-0.0004 5.8444,-1.18351 7.95667,-3.29l2.75333,-2.75333c2.11227,-2.10649 4.97355,-3.2896 7.95667,-3.29v0c2.98312,0.0004 5.8444,1.18351 7.95667,3.29l6.04333,6.04333v14z" fill="#b0d3f0"/><path d="M177,189.33333v-23.33333h9.33333v23.33333z" fill="#5f443e"/><path d="M177,189.33333v-23.33333h4.66667v23.33333z" fill="#7f5b53"/><path d="M200.33333,189.33333v-23.33333h9.33333v23.33333z" fill="#5f443e"/><path d="M200.33333,189.33333v-23.33333h4.66667v23.33333z" fill="#7f5b53"/><path d="M223.66667,189.33333v-23.33333h9.33333v23.33333z" fill="#5f443e"/><path d="M223.66667,189.33333v-23.33333h4.66667v23.33333z" fill="#7f5b53"/><path d="M247,189.33333v-23.33333h9.33333v23.33333z" fill="#5f443e"/><path d="M247,189.33333v-23.33333h4.66667v23.33333z" fill="#7f5b53"/><path d="M270.33333,189.33333v-23.33333h9.33333v23.33333z" fill="#5f443e"/><path d="M270.33333,189.33333v-23.33333h4.66667v23.33333z" fill="#7f5b53"/><path d="M293.66667,189.33333v-23.33333h9.33333v23.33333z" fill="#5f443e"/><path d="M293.66667,189.33333v-23.33333h4.66667v23.33333z" fill="#7f5b53"/><path d="M170,166v-9.33333h140v9.33333z" fill="#98856e"/><path d="M170,166v-9.33333h133v9.33333z" fill="#cbb292"/><path d="M170,198.66667v-9.33333h140v9.33333z" fill="#98856e"/><path d="M170,198.66667v-9.33333h133v9.33333z" fill="#cbb292"/><path d="M181.66667,156.66667v-9.33333h9.33333v9.33333" fill="#5f443e"/><path d="M181.66667,156.66667v-9.33333h4.66667v9.33333z" fill="#7f5b53"/><path d="M235.33333,156.66667v-9.33333h9.33333v9.33333" fill="#5f443e"/><path d="M235.33333,156.66667v-9.33333h4.66667v9.33333z" fill="#7f5b53"/><path d="M289,156.66667v-9.33333h9.33333v9.33333" fill="#5f443e"/><path d="M289,156.66667v-9.33333h4.66667v9.33333z" fill="#7f5b53"/><path d="M177,121.66667l9.33333,-11.66667l9.33333,11.66667" fill="#5f443e"/><path d="M182.83333,114.38667l5.83333,7.28h-11.66667z" fill="#7f5b53"/><path d="M230.66667,121.66667l9.33333,-11.66667l9.33333,11.66667" fill="#5f443e"/><path d="M236.5,114.38667l5.83333,7.28h-11.66667z" fill="#7f5b53"/><path d="M284.33333,121.66667l9.33333,-11.66667l9.33333,11.66667" fill="#5f443e"/><path d="M290.16667,114.38667l5.83333,7.28h-11.66667z" fill="#7f5b53"/><path d="M177,121.66667h18.66667l-4.66667,11.66667h-9.33333z" fill="#b49313"/><path d="M184,133.33333h-2.33333l-4.66667,-11.66667h11.66667z" fill="#f0c419"/><path d="M230.66667,121.66667h18.66667l-4.66667,11.66667h-9.33333z" fill="#b49313"/><path d="M237.66667,133.33333h-2.33333l-4.66667,-11.66667h11.66667z" fill="#f0c419"/><path d="M284.33333,121.66667h18.66667l-4.66667,11.66667h-9.33333z" fill="#b49313"/><path d="M291.33333,133.33333h-2.33333l-4.66667,-11.66667h11.66667z" fill="#f0c419"/><path d="M310,246.71v3.29h-3.29l-4.38667,-4.38667c-3.49626,-3.48267 -9.15041,-3.48267 -12.64667,0l-2.73,2.73c-0.609,0.621 -1.28158,1.17627 -2.00667,1.65667h-15.21333c-0.72508,-0.4804 -1.39767,-1.03567 -2.00667,-1.65667l-2.73,-2.73c-3.49626,-3.48267 -9.15041,-3.48267 -12.64667,0l-2.73,2.73c-0.609,0.621 -1.28158,1.17627 -2.00667,1.65667h-15.21333c-0.72508,-0.4804 -1.39767,-1.03567 -2.00667,-1.65667l-2.73,-2.73c-3.49626,-3.48267 -9.15041,-3.48267 -12.64667,0l-2.73,2.73c-0.609,0.621 -1.28158,1.17627 -2.00667,1.65667h-15.21333c-0.72508,-0.4804 -1.39767,-1.03567 -2.00667,-1.65667l-2.73,-2.73c-3.49626,-3.48267 -9.15041,-3.48267 -12.64667,0l-4.38667,4.38667h-3.29v-3.29l4.38667,-4.38667c2.54762,-2.55337 6.00639,-3.98833 9.61333,-3.98833c3.60695,0 7.06571,1.43495 9.61333,3.98833l2.73,2.73c3.49626,3.48267 9.15041,3.48267 12.64667,0l2.73,-2.73c2.54762,-2.55337 6.00639,-3.98833 9.61333,-3.98833c3.60695,0 7.06571,1.43495 9.61333,3.98833l2.73,2.73c3.49626,3.48267 9.15041,3.48267 12.64667,0l2.73,-2.73c2.54762,-2.55337 6.00639,-3.98833 9.61333,-3.98833c3.60695,0 7.06571,1.43495 9.61333,3.98833l2.73,2.73c3.49626,3.48267 9.15041,3.48267 12.64667,0l2.73,-2.73c2.54762,-2.55337 6.00639,-3.98833 9.61333,-3.98833c3.60695,0 7.06571,1.43495 9.61333,3.98833z" fill="#849eb4"/><path d="M176.04333,229.95667c4.39835,-4.38467 11.51498,-4.38467 15.91333,0l2.75333,2.75333c4.39835,4.38467 11.51498,4.38467 15.91333,0l2.75333,-2.75333c4.39835,-4.38467 11.51498,-4.38467 15.91333,0l2.75333,2.75333c4.39835,4.38467 11.51498,4.38467 15.91333,0l2.75333,-2.75333c4.39835,-4.38467 11.51498,-4.38467 15.91333,0l2.75333,2.75333c4.39835,4.38467 11.51498,4.38467 15.91333,0l2.75333,-2.75333c4.39835,-4.38467 11.51498,-4.38467 15.91333,0l6.04333,6.04333v5.62333l-7.67667,-7.67667c-3.49626,-3.48267 -9.15041,-3.48267 -12.64667,0l-2.73,2.73c-2.54762,2.55337 -6.00639,3.98833 -9.61333,3.98833c-3.60695,0 -7.06571,-1.43495 -9.61333,-3.98833l-2.73,-2.73c-3.49626,-3.48267 -9.15041,-3.48267 -12.64667,0l-2.73,2.73c-2.54762,2.55337 -6.00639,3.98833 -9.61333,3.98833c-3.60695,0 -7.06571,-1.43495 -9.61333,-3.98833l-2.73,-2.73c-3.49626,-3.48267 -9.15041,-3.48267 -12.64667,0l-2.73,2.73c-2.54762,2.55337 -6.00639,3.98833 -9.61333,3.98833c-3.60695,0 -7.06571,-1.43495 -9.61333,-3.98833l-2.73,-2.73c-3.49626,-3.48267 -9.15041,-3.48267 -12.64667,0l-7.67667,7.67667v-5.62333z" fill="#849eb4"/><path d="M184,147.33333v-14h4.66667v14z" fill="#cbb292"/><path d="M237.66667,147.33333v-14h4.66667v14z" fill="#cbb292"/><path d="M291.33333,147.33333v-14h4.66667v14z" fill="#cbb292"/></g></g></svg>