<?xml version="1.0" encoding="UTF-8" standalone="no"?>
<!-- Uploaded to: SVG Repo, www.svgrepo.com, Generator: SVG Repo Mixer Tools -->

<svg
   width="140"
   height="140"
   viewBox="0 0 11.2 11.2"
   version="1.1"
   id="svg658"
   sodipodi:docname="architectonic-architecture-svgrepo-com.svg"
   inkscape:version="1.2.2 (732a01da63, 2022-12-09)"
   xmlns:inkscape="http://www.inkscape.org/namespaces/inkscape"
   xmlns:sodipodi="http://sodipodi.sourceforge.net/DTD/sodipodi-0.dtd"
   xmlns="http://www.w3.org/2000/svg"
   xmlns:svg="http://www.w3.org/2000/svg">
  <sodipodi:namedview
     id="namedview660"
     pagecolor="#ffffff"
     bordercolor="#000000"
     borderopacity="0.25"
     inkscape:showpageshadow="2"
     inkscape:pageopacity="0.0"
     inkscape:pagecheckerboard="0"
     inkscape:deskcolor="#d1d1d1"
     showgrid="false"
     inkscape:zoom="1.04625"
     inkscape:cx="374.67145"
     inkscape:cy="375.62724"
     inkscape:window-width="1920"
     inkscape:window-height="1017"
     inkscape:window-x="1912"
     inkscape:window-y="-8"
     inkscape:window-maximized="1"
     inkscape:current-layer="svg658" />
  <defs
     id="defs557">
    <style
       id="style555">.cls-1{fill:#47332f;}.cls-2{fill:#7f5b53;}.cls-3{fill:#ccc;}.cls-4{fill:#f2f2f2;}.cls-5{fill:#b0d3f0;}.cls-6{fill:#5f443e;}.cls-7{fill:#98856e;}.cls-8{fill:#cbb292;}.cls-9{fill:#b49313;}.cls-10{fill:#f0c419;}.cls-11{fill:#849eb4;}</style>
  </defs>
  <title
     id="title559" />
  <g
     data-name="Layer 18"
     id="Layer_18"
     transform="matrix(0.18666667,0,0,0.18666667,-0.37333334,-0.37333334)">
    <rect
       class="cls-1"
       height="20"
       width="60"
       x="2"
       y="36"
       id="rect561" />
    <rect
       class="cls-2"
       height="20"
       width="57"
       x="2"
       y="36"
       id="rect563" />
    <path
       class="cls-3"
       d="m 38,57 v -7 a 6,6 0 0 0 -6,-6 v 0 a 6,6 0 0 0 -6,6 v 7 z"
       id="path565" />
    <path
       class="cls-4"
       d="M 30.5,44.2 A 6,6 0 0 0 26,50 v 7 h 9 v -7 a 6,6 0 0 0 -4.5,-5.8 z"
       id="path567" />
    <path
       class="cls-3"
       d="m 20,57 v -7 a 6,6 0 0 0 -6,-6 v 0 a 6,6 0 0 0 -6,6 v 7 z"
       id="path569" />
    <path
       class="cls-4"
       d="M 12.5,44.2 A 6,6 0 0 0 8,50 v 7 h 9 v -7 a 6,6 0 0 0 -4.5,-5.8 z"
       id="path571" />
    <path
       class="cls-3"
       d="m 56,57 v -7 a 6,6 0 0 0 -6,-6 v 0 a 6,6 0 0 0 -6,6 v 7 z"
       id="path573" />
    <path
       class="cls-4"
       d="M 48.5,44.2 A 6,6 0 0 0 44,50 v 7 h 9 v -7 a 6,6 0 0 0 -4.5,-5.8 z"
       id="path575" />
    <path
       class="cls-5"
       d="M 62,62 V 56 L 59.41,53.41 A 4.83,4.83 0 0 0 56,52 v 0 a 4.83,4.83 0 0 0 -3.41,1.41 l -1.18,1.18 A 4.83,4.83 0 0 1 48,56 v 0 A 4.83,4.83 0 0 1 44.59,54.59 L 43.41,53.41 A 4.83,4.83 0 0 0 40,52 v 0 a 4.83,4.83 0 0 0 -3.41,1.41 l -1.18,1.18 A 4.83,4.83 0 0 1 32,56 v 0 A 4.83,4.83 0 0 1 28.59,54.59 L 27.41,53.41 A 4.83,4.83 0 0 0 24,52 v 0 a 4.83,4.83 0 0 0 -3.41,1.41 l -1.18,1.18 A 4.83,4.83 0 0 1 16,56 v 0 A 4.83,4.83 0 0 1 12.59,54.59 L 11.41,53.41 A 4.83,4.83 0 0 0 8,52 v 0 A 4.83,4.83 0 0 0 4.59,53.41 L 2,56 v 6 z"
       id="path577" />
    <rect
       class="cls-6"
       height="10"
       width="4"
       x="5"
       y="26"
       id="rect579" />
    <rect
       class="cls-2"
       height="10"
       width="2"
       x="5"
       y="26"
       id="rect581" />
    <rect
       class="cls-6"
       height="10"
       width="4"
       x="15"
       y="26"
       id="rect583" />
    <rect
       class="cls-2"
       height="10"
       width="2"
       x="15"
       y="26"
       id="rect585" />
    <rect
       class="cls-6"
       height="10"
       width="4"
       x="25"
       y="26"
       id="rect587" />
    <rect
       class="cls-2"
       height="10"
       width="2"
       x="25"
       y="26"
       id="rect589" />
    <rect
       class="cls-6"
       height="10"
       width="4"
       x="35"
       y="26"
       id="rect591" />
    <rect
       class="cls-2"
       height="10"
       width="2"
       x="35"
       y="26"
       id="rect593" />
    <rect
       class="cls-6"
       height="10"
       width="4"
       x="45"
       y="26"
       id="rect595" />
    <rect
       class="cls-2"
       height="10"
       width="2"
       x="45"
       y="26"
       id="rect597" />
    <rect
       class="cls-6"
       height="10"
       width="4"
       x="55"
       y="26"
       id="rect599" />
    <rect
       class="cls-2"
       height="10"
       width="2"
       x="55"
       y="26"
       id="rect601" />
    <rect
       class="cls-7"
       height="4"
       width="60"
       x="2"
       y="22"
       id="rect603" />
    <rect
       class="cls-8"
       height="4"
       width="57"
       x="2"
       y="22"
       id="rect605" />
    <rect
       class="cls-7"
       height="4"
       width="60"
       x="2"
       y="36"
       id="rect607" />
    <rect
       class="cls-8"
       height="4"
       width="57"
       x="2"
       y="36"
       id="rect609" />
    <polyline
       class="cls-6"
       points="7 22 7 18 11 18 11 22"
       id="polyline611" />
    <rect
       class="cls-2"
       height="4"
       width="2"
       x="7"
       y="18"
       id="rect613" />
    <polyline
       class="cls-6"
       points="30 22 30 18 34 18 34 22"
       id="polyline615" />
    <rect
       class="cls-2"
       height="4"
       width="2"
       x="30"
       y="18"
       id="rect617" />
    <polyline
       class="cls-6"
       points="53 22 53 18 57 18 57 22"
       id="polyline619" />
    <rect
       class="cls-2"
       height="4"
       width="2"
       x="53"
       y="18"
       id="rect621" />
    <polyline
       class="cls-6"
       points="5 7 9 2 13 7"
       id="polyline623" />
    <polygon
       class="cls-2"
       points="5,7 10,7 7.5,3.88 "
       id="polygon625" />
    <polyline
       class="cls-6"
       points="28 7 32 2 36 7"
       id="polyline627" />
    <polygon
       class="cls-2"
       points="28,7 33,7 30.5,3.88 "
       id="polygon629" />
    <polyline
       class="cls-6"
       points="51 7 55 2 59 7"
       id="polyline631" />
    <polygon
       class="cls-2"
       points="51,7 56,7 53.5,3.88 "
       id="polygon633" />
    <polygon
       class="cls-9"
       points="5,7 13,7 11,12 7,12 "
       id="polygon635" />
    <polygon
       class="cls-10"
       points="10,7 5,7 7,12 8,12 "
       id="polygon637" />
    <polygon
       class="cls-9"
       points="28,7 36,7 34,12 30,12 "
       id="polygon639" />
    <polygon
       class="cls-10"
       points="33,7 28,7 30,12 31,12 "
       id="polygon641" />
    <polygon
       class="cls-9"
       points="51,7 59,7 57,12 53,12 "
       id="polygon643" />
    <polygon
       class="cls-10"
       points="56,7 51,7 53,12 54,12 "
       id="polygon645" />
    <path
       class="cls-11"
       d="m 60.12,58.71 a 5.82,5.82 0 0 0 -8.24,0 l -1.17,1.17 a 3.84,3.84 0 0 1 -5.42,0 l -1.17,-1.17 a 5.82,5.82 0 0 0 -8.24,0 l -1.17,1.17 a 3.84,3.84 0 0 1 -5.42,0 l -1.17,-1.17 a 5.82,5.82 0 0 0 -8.24,0 l -1.17,1.17 a 3.84,3.84 0 0 1 -5.42,0 l -1.17,-1.17 a 5.82,5.82 0 0 0 -8.24,0 L 2,60.59 V 62 h 1.41 l 1.88,-1.88 a 3.84,3.84 0 0 1 5.42,0 l 1.17,1.17 A 5.32,5.32 0 0 0 12.74,62 h 6.52 a 5.32,5.32 0 0 0 0.86,-0.71 l 1.17,-1.17 a 3.84,3.84 0 0 1 5.42,0 l 1.17,1.17 A 5.32,5.32 0 0 0 28.74,62 h 6.52 a 5.32,5.32 0 0 0 0.86,-0.71 l 1.17,-1.17 a 3.84,3.84 0 0 1 5.42,0 l 1.17,1.17 A 5.32,5.32 0 0 0 44.74,62 h 6.52 a 5.32,5.32 0 0 0 0.86,-0.71 l 1.17,-1.17 a 3.84,3.84 0 0 1 5.42,0 L 60.59,62 H 62 v -1.41 z"
       id="path647" />
    <path
       class="cls-11"
       d="m 2,56 v 2.41 l 3.29,-3.29 a 3.84,3.84 0 0 1 5.42,0 l 1.17,1.17 a 5.82,5.82 0 0 0 8.24,0 l 1.17,-1.17 a 3.84,3.84 0 0 1 5.42,0 l 1.17,1.17 a 5.82,5.82 0 0 0 8.24,0 l 1.17,-1.17 a 3.84,3.84 0 0 1 5.42,0 l 1.17,1.17 a 5.82,5.82 0 0 0 8.24,0 l 1.17,-1.17 a 3.84,3.84 0 0 1 5.42,0 L 62,58.41 V 56 l -2.59,-2.59 a 4.83,4.83 0 0 0 -6.82,0 l -1.18,1.18 a 4.83,4.83 0 0 1 -6.82,0 l -1.18,-1.18 a 4.83,4.83 0 0 0 -6.82,0 l -1.18,1.18 a 4.83,4.83 0 0 1 -6.82,0 l -1.18,-1.18 a 4.83,4.83 0 0 0 -6.82,0 l -1.18,1.18 a 4.83,4.83 0 0 1 -6.82,0 l -1.18,-1.18 a 4.83,4.83 0 0 0 -6.82,0 z"
       id="path649" />
    <rect
       class="cls-8"
       height="6"
       width="2"
       x="8"
       y="12"
       id="rect651" />
    <rect
       class="cls-8"
       height="6"
       width="2"
       x="31"
       y="12"
       id="rect653" />
    <rect
       class="cls-8"
       height="6"
       width="2"
       x="54"
       y="12"
       id="rect655" />
  </g>
</svg>
