<svg width="140" height="140" viewBox="0 0 11.2 11.2" version="1.1" id="prefix__svg658" xmlns="http://www.w3.org/2000/svg"><defs id="prefix__defs557"><style id="style555">.prefix__cls-2{fill:#7f5b53}.prefix__cls-3{fill:#ccc}.prefix__cls-4{fill:#f2f2f2}.prefix__cls-6{fill:#5f443e}.prefix__cls-7{fill:#98856e}.prefix__cls-8{fill:#cbb292}.prefix__cls-9{fill:#b49313}.prefix__cls-10{fill:#f0c419}.prefix__cls-11{fill:#849eb4}</style></defs><g data-name="Layer 18" id="prefix__Layer_18" transform="matrix(.18667 0 0 .18667 -.373 -.373)"><path id="prefix__rect561" fill="#47332f" d="M2 36h60v20H2z"/><path class="prefix__cls-2" id="prefix__rect563" d="M2 36h57v20H2z"/><path class="prefix__cls-3" d="M38 57v-7a6 6 0 00-6-6 6 6 0 00-6 6v7z" id="prefix__path565"/><path class="prefix__cls-4" d="M30.5 44.2A6 6 0 0026 50v7h9v-7a6 6 0 00-4.5-5.8z" id="prefix__path567"/><path class="prefix__cls-3" d="M20 57v-7a6 6 0 00-6-6 6 6 0 00-6 6v7z" id="prefix__path569"/><path class="prefix__cls-4" d="M12.5 44.2A6 6 0 008 50v7h9v-7a6 6 0 00-4.5-5.8z" id="prefix__path571"/><path class="prefix__cls-3" d="M56 57v-7a6 6 0 00-6-6 6 6 0 00-6 6v7z" id="prefix__path573"/><path class="prefix__cls-4" d="M48.5 44.2A6 6 0 0044 50v7h9v-7a6 6 0 00-4.5-5.8z" id="prefix__path575"/><path d="M62 62v-6l-2.59-2.59A4.83 4.83 0 0056 52a4.83 4.83 0 00-3.41 1.41l-1.18 1.18A4.83 4.83 0 0148 56a4.83 4.83 0 01-3.41-1.41l-1.18-1.18A4.83 4.83 0 0040 52a4.83 4.83 0 00-3.41 1.41l-1.18 1.18A4.83 4.83 0 0132 56a4.83 4.83 0 01-3.41-1.41l-1.18-1.18A4.83 4.83 0 0024 52a4.83 4.83 0 00-3.41 1.41l-1.18 1.18A4.83 4.83 0 0116 56a4.83 4.83 0 01-3.41-1.41l-1.18-1.18A4.83 4.83 0 008 52a4.83 4.83 0 00-3.41 1.41L2 56v6z" id="prefix__path577" fill="#b0d3f0"/><path class="prefix__cls-6" id="prefix__rect579" d="M5 26h4v10H5z"/><path class="prefix__cls-2" id="prefix__rect581" d="M5 26h2v10H5z"/><path class="prefix__cls-6" id="prefix__rect583" d="M15 26h4v10h-4z"/><path class="prefix__cls-2" id="prefix__rect585" d="M15 26h2v10h-2z"/><path class="prefix__cls-6" id="prefix__rect587" d="M25 26h4v10h-4z"/><path class="prefix__cls-2" id="prefix__rect589" d="M25 26h2v10h-2z"/><path class="prefix__cls-6" id="prefix__rect591" d="M35 26h4v10h-4z"/><path class="prefix__cls-2" id="prefix__rect593" d="M35 26h2v10h-2z"/><path class="prefix__cls-6" id="prefix__rect595" d="M45 26h4v10h-4z"/><path class="prefix__cls-2" id="prefix__rect597" d="M45 26h2v10h-2z"/><path class="prefix__cls-6" id="prefix__rect599" d="M55 26h4v10h-4z"/><path class="prefix__cls-2" id="prefix__rect601" d="M55 26h2v10h-2z"/><path class="prefix__cls-7" id="prefix__rect603" d="M2 22h60v4H2z"/><path class="prefix__cls-8" id="prefix__rect605" d="M2 22h57v4H2z"/><path class="prefix__cls-7" id="prefix__rect607" d="M2 36h60v4H2z"/><path class="prefix__cls-8" id="prefix__rect609" d="M2 36h57v4H2z"/><path class="prefix__cls-6" id="prefix__polyline611" d="M7 22v-4h4v4"/><path class="prefix__cls-2" id="prefix__rect613" d="M7 18h2v4H7z"/><path class="prefix__cls-6" id="prefix__polyline615" d="M30 22v-4h4v4"/><path class="prefix__cls-2" id="prefix__rect617" d="M30 18h2v4h-2z"/><path class="prefix__cls-6" id="prefix__polyline619" d="M53 22v-4h4v4"/><path class="prefix__cls-2" id="prefix__rect621" d="M53 18h2v4h-2z"/><path class="prefix__cls-6" id="prefix__polyline623" d="M5 7l4-5 4 5"/><path class="prefix__cls-2" id="prefix__polygon625" d="M5 7h5L7.5 3.88z"/><path class="prefix__cls-6" id="prefix__polyline627" d="M28 7l4-5 4 5"/><path class="prefix__cls-2" id="prefix__polygon629" d="M28 7h5l-2.5-3.12z"/><path class="prefix__cls-6" id="prefix__polyline631" d="M51 7l4-5 4 5"/><path class="prefix__cls-2" id="prefix__polygon633" d="M51 7h5l-2.5-3.12z"/><path class="prefix__cls-9" id="prefix__polygon635" d="M5 7h8l-2 5H7z"/><path class="prefix__cls-10" id="prefix__polygon637" d="M10 7H5l2 5h1z"/><path class="prefix__cls-9" id="prefix__polygon639" d="M28 7h8l-2 5h-4z"/><path class="prefix__cls-10" id="prefix__polygon641" d="M33 7h-5l2 5h1z"/><path class="prefix__cls-9" id="prefix__polygon643" d="M51 7h8l-2 5h-4z"/><path class="prefix__cls-10" id="prefix__polygon645" d="M56 7h-5l2 5h1z"/><path class="prefix__cls-11" d="M60.12 58.71a5.82 5.82 0 00-8.24 0l-1.17 1.17a3.84 3.84 0 01-5.42 0l-1.17-1.17a5.82 5.82 0 00-8.24 0l-1.17 1.17a3.84 3.84 0 01-5.42 0l-1.17-1.17a5.82 5.82 0 00-8.24 0l-1.17 1.17a3.84 3.84 0 01-5.42 0l-1.17-1.17a5.82 5.82 0 00-8.24 0L2 60.59V62h1.41l1.88-1.88a3.84 3.84 0 015.42 0l1.17 1.17a5.32 5.32 0 00.86.71h6.52a5.32 5.32 0 00.86-.71l1.17-1.17a3.84 3.84 0 015.42 0l1.17 1.17a5.32 5.32 0 00.86.71h6.52a5.32 5.32 0 00.86-.71l1.17-1.17a3.84 3.84 0 015.42 0l1.17 1.17a5.32 5.32 0 00.86.71h6.52a5.32 5.32 0 00.86-.71l1.17-1.17a3.84 3.84 0 015.42 0L60.59 62H62v-1.41z" id="prefix__path647"/><path class="prefix__cls-11" d="M2 56v2.41l3.29-3.29a3.84 3.84 0 015.42 0l1.17 1.17a5.82 5.82 0 008.24 0l1.17-1.17a3.84 3.84 0 015.42 0l1.17 1.17a5.82 5.82 0 008.24 0l1.17-1.17a3.84 3.84 0 015.42 0l1.17 1.17a5.82 5.82 0 008.24 0l1.17-1.17a3.84 3.84 0 015.42 0L62 58.41V56l-2.59-2.59a4.83 4.83 0 00-6.82 0l-1.18 1.18a4.83 4.83 0 01-6.82 0l-1.18-1.18a4.83 4.83 0 00-6.82 0l-1.18 1.18a4.83 4.83 0 01-6.82 0l-1.18-1.18a4.83 4.83 0 00-6.82 0l-1.18 1.18a4.83 4.83 0 01-6.82 0l-1.18-1.18a4.83 4.83 0 00-6.82 0z" id="prefix__path649"/><path class="prefix__cls-8" id="prefix__rect651" d="M8 12h2v6H8z"/><path class="prefix__cls-8" id="prefix__rect653" d="M31 12h2v6h-2z"/><path class="prefix__cls-8" id="prefix__rect655" d="M54 12h2v6h-2z"/></g></svg>