<svg version="1.1" xmlns="http://www.w3.org/2000/svg" xmlns:xlink="http://www.w3.org/1999/xlink" width="140.43606" height="92.90359" viewBox="0,0,140.43606,92.90359"><defs><linearGradient x1="171.46017" y1="175.74277" x2="210.28493" y2="184.25904" gradientUnits="userSpaceOnUse" id="color-1"><stop offset="0" stop-color="#d19b75"/><stop offset="1" stop-color="#e8cdba" stop-opacity="0"/></linearGradient></defs><g transform="translate(-170,-135.78766)"><g data-paper-data="{&quot;isPaintingLayer&quot;:true}" stroke-linecap="butt" stroke-linejoin="miter" stroke-miterlimit="10" stroke-dasharray="" stroke-dashoffset="0" style="mix-blend-mode: normal"><path d="M286.70525,224.09922l-5.67999,-22.39875c5.77409,5.61216 11.7246,6.1597 17.79115,3.37593c6.5086,-6.93812 6.91143,-7.96997 8.82822,-15.60545c3.54616,13.32794 2.38964,19.90276 -0.04419,24.3302c-2.43383,4.42848 -7.98482,8.73343 -20.89518,10.29785z" fill="#000000" fill-rule="evenodd" stroke="#000000" stroke-width="1.0977"/><g fill-rule="evenodd" stroke="#000000"><path d="M279.04165,171.7055c3.09496,13.91076 4.33716,32.04717 10.51174,52.15136c0,0 -19.76006,1.40547 -33.8208,-2.88454c-11.06924,-3.37742 -16.94623,-7.91975 -17.96954,-13.97915c-1.03914,-6.15181 -1.2236,-11.03771 0.74732,-16.54435c10.39819,-12.10109 26.57539,-17.5753 40.53128,-18.74373z" fill="#000000" stroke-width="1.0278"/><path d="M278.84307,172.51688c3.01176,13.53502 4.22066,31.18195 10.22778,50.74254c0,0 -19.22613,1.36754 -32.90632,-2.80642c-10.76976,-3.28638 -16.48876,-7.70584 -17.48393,-13.60226c-1.01097,-5.98505 -1.1907,-10.73823 0.7274,-16.09638c10.1164,-11.77361 25.85652,-17.10003 39.43508,-18.23705z" fill="#87cdde" stroke-width="1"/></g><path d="M250.52401,212.90677c-3.7886,-2.98775 -6.0824,-7.59108 -1.86169,-15.09948c2.63698,-4.68546 8.57258,-9.39599 12.31545,-10.4679c2.71338,-4.3514 3.85982,-6.44581 3.58696,-13.44622c-0.22621,-5.75708 13.55595,-12.51964 17.25834,-4.19993c4.03062,9.05458 3.26557,15.47543 2.37293,22.21798c-2.01069,15.1536 -12.19866,18.23544 -18.82421,21.06682c-4.67516,1.99714 -11.04237,2.93295 -14.84779,-0.07126z" fill="#000000" fill-rule="evenodd" stroke="none" stroke-width="1"/><g fill-rule="evenodd" stroke="none" stroke-width="1"><path d="M262.00078,166.68075c-1.93156,-2.56573 -4.56935,-6.72663 -1.7947,-8.6234c2.76337,-1.89105 3.32628,-0.8592 4.65077,0.31984c-0.86301,-1.60119 -1.64011,-2.45738 1.21192,-4.35427c2.67498,-1.77955 4.09523,1.01776 4.78262,1.99418c-0.53775,-2.18392 -0.0422,-3.05461 1.2953,-4.01281c1.87764,-1.34011 5.39428,1.07422 8.62126,6.4852c2.63047,4.41417 3.42899,11.0799 -4.88527,16.89219c-5.25117,3.67232 -10.61015,3.87094 -15.86421,-1.09444c-2.65178,-2.5058 -5.19795,-6.49655 -4.78229,-8.26901c0.6775,-2.87659 3.96245,-2.04766 6.7646,0.66252z" fill="#000000"/><path d="M264.13042,168.56108c-2.09998,-2.79815 -5.93286,-7.68847 -3.47471,-9.77327c3.67823,-3.12188 5.13395,1.5627 8.03799,4.72725c-2.1945,-4.5516 -5.65838,-6.91178 -1.95932,-8.8612c3.41941,-1.80306 4.57502,3.53352 6.72287,5.69482c-1.13774,-2.75727 -3.14394,-5.93686 -0.99176,-7.54608c2.03155,-1.52048 5.20245,1.3961 7.88655,6.35697c2.27749,4.21167 3.77537,9.33259 -4.38678,15.38672c-4.93576,3.66233 -10.38107,4.42798 -15.12386,-0.35839c-2.06331,-2.08148 -4.48841,-4.35639 -4.6918,-7.5248c-0.21734,-3.36988 4.62127,-1.17675 7.98083,1.89798z" fill="#e8cdba"/></g><path d="M306.42367,168.18907c-3.91395,4.50575 -11.07914,3.96294 -19.01601,-2.96548c-4.90269,-4.46297 -16.19211,-10.77295 -12.48604,-15.65503c2.23346,-2.94433 4.15451,-1.47778 5.44684,-0.64304c-0.94711,-1.03398 -2.88717,-2.33392 -0.65057,-4.98708c2.34751,-2.78331 3.63499,-1.0458 4.73672,-0.14036c-0.721,-0.89705 -1.28792,-3.32663 -0.10939,-4.9513c1.83847,-2.53864 4.65072,-0.40152 5.28683,0.33836c-0.30463,-0.862 -0.55822,-2.00744 1.00491,-2.6836c3.09101,-1.34155 2.99523,-1.35092 8.65044,5.00508c7.16269,8.04955 12.52747,20.47601 7.13628,26.68244z" fill="#000000" fill-rule="evenodd" stroke="none" stroke-width="1"/><g fill-rule="nonzero" stroke="none" stroke-width="1"><path d="M248.50647,196.41003c-2.7844,8.42664 -9.15203,14.80526 -16.09558,18.53074c-7.18572,3.88554 -15.1886,5.07225 -22.80415,4.16926c-1.6511,0.77728 -2.36785,3.36684 -4.44977,3.23911c-1.61727,0.32227 -3.34144,-0.20366 -4.77979,-0.97032c-2.06599,-0.73728 -1.91098,-3.78907 -2.27906,-5.34076c-8.66347,-3.84968 -16.49522,-10.9631 -20.12911,-21.03907c-1.91533,-5.01013 -2.51581,-10.76922 -1.47953,-16.33191c-0.0555,-1.21395 1.14679,-3.47469 -0.25801,-3.87607c-1.07493,0.20576 -2.19321,-0.19423 -2.6872,-1.0533c-1.17989,1.55121 -3.40404,1.64094 -3.53444,-0.77018c-0.21022,-2.74945 3.00582,-2.10878 4.42764,-3.32755c1.83899,-0.26668 1.4625,2.89947 3.56491,1.97749c1.34042,-0.77484 1.82175,-3.68526 3.15165,-5.05425c5.30566,-8.07012 13.51856,-13.06493 21.83751,-14.9515c3.14111,-0.73499 6.32933,-1.06943 9.49302,-1.02598c0.37052,-2.13075 1.59336,-5.10653 3.85036,-4.61145c2.33964,0.30538 4.84516,1.10674 6.35335,3.23776c0.9093,1.21014 -0.07008,3.49066 1.81824,3.36754c8.67661,2.88949 16.75952,8.68791 21.58333,17.55615c3.46592,6.16611 5.15943,13.97977 3.56243,21.54658c-0.29899,1.59563 -0.68955,3.17326 -1.14579,4.72769z" fill="#e8cdba"/><path d="M248.50647,196.41003c-2.7844,8.42664 -9.15203,14.80526 -16.09558,18.53074c-7.18572,3.88554 -15.1886,5.07225 -22.80415,4.16926c-1.6511,0.77728 -2.36785,3.36684 -4.44977,3.23911c-1.61727,0.32227 -3.34144,-0.20366 -4.77979,-0.97032c-2.06599,-0.73728 -1.91098,-3.78907 -2.27906,-5.34076c-8.66347,-3.84968 -16.49522,-10.9631 -20.12911,-21.03907c-1.91533,-5.01013 -2.51581,-10.76922 -1.47953,-16.33191c-0.0555,-1.21395 1.14679,-3.47469 -0.25801,-3.87607c-1.07493,0.20576 -2.19321,-0.19423 -2.6872,-1.0533c-1.17989,1.55121 -3.40404,1.64094 -3.53444,-0.77018c-0.21022,-2.74945 3.00582,-2.10878 4.42764,-3.32755c1.83899,-0.26668 1.4625,2.89947 3.56491,1.97749c1.34042,-0.77484 1.82175,-3.68526 3.15165,-5.05425c5.30566,-8.07012 13.51856,-13.06493 21.83751,-14.9515c3.14111,-0.73499 6.32933,-1.06943 9.49302,-1.02598c0.37052,-2.13075 1.59336,-5.10653 3.85036,-4.61145c2.33964,0.30538 4.84516,1.10674 6.35335,3.23776c0.9093,1.21014 -0.07008,3.49066 1.81824,3.36754c8.67661,2.88949 16.75952,8.68791 21.58333,17.55615c3.46592,6.16611 5.15943,13.97977 3.56243,21.54658c-0.29899,1.59563 -0.68955,3.17326 -1.14579,4.72769z" fill="url(#color-1)"/><path d="M248.50647,196.41003c-2.7844,8.42664 -9.15203,14.80526 -16.09558,18.53074c-7.18572,3.88554 -15.1886,5.07225 -22.80415,4.16926c-1.6511,0.77728 -2.36785,3.36684 -4.44977,3.23911c-1.61727,0.32227 -3.34144,-0.20366 -4.77979,-0.97032c-2.06599,-0.73728 -1.91098,-3.78907 -2.27906,-5.34076c-8.66347,-3.84968 -16.49522,-10.9631 -20.12911,-21.03907c-1.91533,-5.01013 -2.51581,-10.76922 -1.47953,-16.33191c-0.0555,-1.21395 1.14679,-3.47469 -0.25801,-3.87607c-1.07493,0.20576 -2.19321,-0.19423 -2.6872,-1.0533c-1.17989,1.55121 -3.40404,1.64094 -3.53444,-0.77018c-0.21022,-2.74945 3.00582,-2.10878 4.42764,-3.32755c1.83899,-0.26668 1.4625,2.89947 3.56491,1.97749c1.34042,-0.77484 1.82175,-3.68526 3.15165,-5.05425c5.30566,-8.07012 13.51856,-13.06493 21.83751,-14.9515c3.14111,-0.73499 6.32933,-1.06943 9.49302,-1.02598c0.37052,-2.13075 1.59336,-5.10653 3.85036,-4.61145c2.33964,0.30538 4.84516,1.10674 6.35335,3.23776c0.9093,1.21014 -0.07008,3.49066 1.81824,3.36754c8.67661,2.88949 16.75952,8.68791 21.58333,17.55615c3.46592,6.16611 5.15943,13.97977 3.56243,21.54658c-0.29899,1.59563 -0.68955,3.17326 -1.14579,4.72769zM249.52653,187.66923c0.57259,-8.9506 -3.0692,-17.3188 -8.2857,-23.28838c-4.91323,-5.62165 -11.27232,-9.37367 -18.00418,-11.46733c-1.29236,-0.61612 -0.17494,-3.55426 -1.91735,-4.2554c-1.34946,-1.11473 -3.04024,-1.57233 -4.65223,-1.99899c-1.9995,-0.42045 -3.1954,1.82267 -3.50537,3.80915c-0.70814,1.76406 -2.53898,0.49293 -3.79125,0.93843c-9.1315,0.57875 -18.60456,4.48839 -25.3153,12.35958c-2.01099,2.38496 -3.72542,5.11481 -4.99964,8.08393c1.08007,1.15275 -0.0771,3.62314 1.39126,4.31161c1.28197,2.36629 -2.1201,3.53567 -3.19272,1.70478c-0.43732,1.28699 -0.39996,2.83889 -0.54305,4.23691c-0.57215,8.40494 2.54205,16.38285 7.25821,22.24035c3.46556,4.33659 7.79828,7.67833 12.46511,10.10923c1.60679,0.40848 3.20492,1.39703 2.55939,3.587c0.43617,2.82818 3.2641,3.72379 5.4668,3.65388c2.43143,0.38177 3.28913,-2.99184 5.32151,-3.46078c2.56163,0.62017 5.27882,0.44886 7.92753,0.29842c8.69606,-0.71581 17.61475,-4.53706 24.09944,-11.87603c4.49374,-5.04104 7.41248,-11.91044 7.71756,-18.98635zM239.89492,190.92646c-0.68973,2.25851 -1.79519,4.29458 -3.08413,6.18475c-1.05196,1.84579 -2.3143,3.46661 -3.67711,5.01791c-1.29052,1.61528 -3.23409,1.8185 -4.8108,2.87983c-2.32032,0.92891 -4.77374,1.72355 -7.18634,1.26825c-1.57796,0.18927 -3.50193,-0.80155 -4.73842,-0.53315c-0.41371,1.77731 0.11367,3.89576 -0.90877,5.43501c-1.55956,0.61678 0.55696,-2.37213 0.16319,-3.37626c0.24154,-2.22646 -0.37823,-4.65653 -2.05127,-5.80741c-0.75723,-0.45774 -1.20301,-2.01612 0.07674,-1.02321c1.66908,0.88066 1.87399,3.62734 3.68399,4.16328c1.75068,0.29431 3.53222,0.49859 5.3146,0.55715c1.74229,0.07643 3.37681,-0.68351 5.0378,-1.28036c2.44883,-1.01692 5.07998,-2.29148 6.59602,-4.93504c1.43191,-1.73165 2.49034,-3.76666 3.69128,-5.69301c0.80055,-1.89177 1.81055,-3.88139 1.57693,-6.0056c-0.2636,-3.10317 -0.85543,-6.137 -1.90418,-8.96029c-0.47137,-2.17265 -1.60801,-3.87883 -3.07238,-5.24268c-1.35005,-1.37228 -2.81613,-2.6232 -4.42162,-3.58918c-1.91249,-0.97483 -4.07397,-1.24863 -6.13155,-1.65647c-1.58106,-0.18203 -3.07647,0.45079 -4.30443,1.67335c-0.57756,0.66048 -3.31759,1.51377 -1.63962,0.19775c1.64641,-0.91721 3.47405,-2.16091 3.64601,-4.47999c0.47166,-1.93067 0.90135,-4.00517 0.42168,-5.92718c0.98792,-1.28174 0.9889,2.06328 0.75736,2.82438c0.05579,1.5847 -1.19804,4.07043 -0.49597,5.05449c2.28201,-0.13842 4.49741,0.47892 6.66112,1.09124c3.13357,1.14961 5.5662,3.81071 7.8677,6.34992c1.25019,2.20044 1.82276,4.84091 2.52241,7.34846c0.42482,2.42436 0.97612,4.91992 0.68436,7.45401c-0.06018,0.34342 -0.1506,0.68433 -0.27461,1.01006zM220.33487,154.50043c-1.34248,-0.34623 1.59204,-3.0079 -0.40477,-3.52392c-1.09476,-0.9291 -4.22485,-1.99222 -4.60575,0.19141c0.1656,0.67611 0.93321,3.23993 -0.25832,1.79069c-1.21148,-2.0624 0.51046,-4.69639 2.58625,-3.69633c1.59072,0.25944 4.133,1.14182 3.41741,3.58402c-0.11789,0.5998 -0.31358,1.23065 -0.73482,1.65413zM206.28232,218.98351c-1.73287,0.99975 -4.0336,1.26321 -5.36452,-0.38505c-0.73076,-0.89016 0.91497,-3.61292 1.11042,-2.14322c-1.46835,2.13293 1.58579,3.29954 2.98383,2.3953c1.24476,-0.07971 0.96856,-1.65968 0.91233,-2.14783c0.95062,-0.2731 1.04922,1.86061 0.35794,2.28079zM206.02151,181.21237c-1.99157,1.90653 -3.49737,-2.96132 -1.03313,-3.29732c1.5894,-0.44102 2.55849,2.34088 1.03313,3.29732zM203.487,187.40733c-1.99157,1.90653 -3.49737,-2.96132 -1.03313,-3.29732c1.5894,-0.44102 2.55849,2.34088 1.03313,3.29732zM202.84465,173.6203c-1.04079,0.78396 -2.15143,4.0375 -3.01337,3.39786c0.44062,-1.63129 1.97598,-4.09773 3.23536,-4.20717c0.09736,0.27141 -0.03586,0.61421 -0.22199,0.80931zM198.49702,191.07228c-1.25233,-1.49723 -1.1505,-3.87643 -1.44541,-5.83764c1.52306,-0.52785 0.65211,2.67498 1.44162,3.63847c0.18706,0.67862 0.43191,1.52476 0.00379,2.19917zM180.05699,176.81973c-2.03355,-0.5078 0.01803,-4.81892 -2.61202,-4.53266c-1.02821,0.2956 -2.32243,0.11331 -2.04922,-1.40329c-1.3605,-1.63176 -3.12969,1.49578 -4.62,1.03812c-0.8933,1.95421 1.65945,3.18531 2.4242,1.07369c1.33703,-0.37049 2.04819,2.2423 3.5645,0.98203c1.54529,0.64695 0.32083,5.37291 3.14883,3.84873c0.33351,-0.20046 0.39745,-0.72677 0.14371,-1.00661z" fill="#000000"/><path d="M239.89492,190.92646c-0.68973,2.25851 -1.79519,4.29458 -3.08413,6.18475c-1.05196,1.84579 -2.3143,3.46661 -3.67711,5.01791c-1.29052,1.61528 -3.23409,1.8185 -4.8108,2.87983c-2.32032,0.92891 -4.77374,1.72355 -7.18634,1.26825c-1.57796,0.18927 -3.50193,-0.80155 -4.73842,-0.53315c-0.41371,1.77731 0.11367,3.89576 -0.90877,5.43501c-1.55956,0.61678 0.55696,-2.37213 0.16319,-3.37626c0.24154,-2.22646 -0.37823,-4.65653 -2.05127,-5.80741c-0.75723,-0.45774 -1.20301,-2.01612 0.07674,-1.02321c1.66908,0.88066 1.87399,3.62734 3.68399,4.16328c1.75068,0.29431 3.53222,0.49859 5.3146,0.55715c1.74229,0.07643 3.37681,-0.68351 5.0378,-1.28036c2.44883,-1.01692 5.07998,-2.29148 6.59602,-4.93504c1.43191,-1.73165 2.49034,-3.76666 3.69128,-5.69301c0.80055,-1.89177 1.81055,-3.88139 1.57693,-6.0056c-0.2636,-3.10317 -0.85543,-6.137 -1.90418,-8.96029c-0.47137,-2.17265 -1.60801,-3.87883 -3.07238,-5.24268c-1.35005,-1.37228 -2.81613,-2.6232 -4.42162,-3.58918c-1.91249,-0.97483 -4.07397,-1.24863 -6.13155,-1.65647c-1.58106,-0.18203 -3.07647,0.45079 -4.30443,1.67335c-0.57756,0.66048 -3.31759,1.51377 -1.63962,0.19775c1.64641,-0.91721 3.47405,-2.16091 3.64601,-4.47999c0.47166,-1.93067 0.90135,-4.00517 0.42168,-5.92718c0.98792,-1.28174 0.9889,2.06328 0.75736,2.82438c0.05579,1.5847 -1.19804,4.07043 -0.49597,5.05449c2.28201,-0.13842 4.49741,0.47892 6.66112,1.09124c3.13357,1.14961 5.5662,3.81071 7.8677,6.34992c1.25019,2.20044 1.82276,4.84091 2.52241,7.34846c0.42482,2.42436 0.97612,4.91992 0.68436,7.45401c-0.06018,0.34342 -0.1506,0.68433 -0.27461,1.01006z" fill="#000000"/><path d="M220.33487,154.50043c-1.34248,-0.34623 1.59204,-3.0079 -0.40477,-3.52392c-1.09476,-0.9291 -4.22485,-1.99222 -4.60575,0.19141c0.1656,0.67611 0.93321,3.23993 -0.25832,1.79069c-1.21148,-2.0624 0.51046,-4.69639 2.58625,-3.69633c1.59072,0.25944 4.133,1.14182 3.41741,3.58402c-0.11789,0.5998 -0.31358,1.23065 -0.73482,1.65413z" fill="#000000"/><path d="M206.28232,218.98351c-1.73287,0.99975 -4.0336,1.26321 -5.36452,-0.38505c-0.73076,-0.89016 0.91497,-3.61292 1.11042,-2.14322c-1.46835,2.13293 1.58579,3.29954 2.98383,2.3953c1.24476,-0.07971 0.96856,-1.65968 0.91233,-2.14783c0.95062,-0.2731 1.04922,1.86061 0.35794,2.28079z" fill="#000000"/><path d="M206.02151,181.21237c-1.99157,1.90653 -3.49737,-2.96132 -1.03313,-3.29732c1.5894,-0.44102 2.55849,2.34088 1.03313,3.29732z" fill="#000000"/><path d="M203.487,187.40733c-1.99157,1.90653 -3.49737,-2.96132 -1.03313,-3.29732c1.5894,-0.44102 2.55849,2.34088 1.03313,3.29732z" fill="#000000"/><path d="M202.84465,173.6203c-1.04079,0.78396 -2.15143,4.0375 -3.01337,3.39786c0.44062,-1.63129 1.97598,-4.09773 3.23536,-4.20717c0.09736,0.27141 -0.03586,0.61421 -0.22199,0.80931z" fill="#000000"/><path d="M198.49702,191.07228c-1.25233,-1.49723 -1.1505,-3.87643 -1.44541,-5.83764c1.52306,-0.52785 0.65211,2.67498 1.44162,3.63847c0.18706,0.67862 0.43191,1.52476 0.00379,2.19917z" fill="#000000"/><path d="M179.91328,177.82634c-2.828,1.52418 -1.60354,-3.20178 -3.14883,-3.84873c-1.51631,1.26027 -2.22747,-1.35252 -3.5645,-0.98203c-0.76475,2.11162 -3.3175,0.88052 -2.4242,-1.07369c1.49031,0.45766 3.2595,-2.66988 4.62,-1.03812c-0.27322,1.5166 1.02101,1.6989 2.04922,1.40329c2.63004,-0.28626 0.57847,4.02486 2.61202,4.53266c0.25373,0.27984 0.18979,0.80615 -0.14371,1.00661z" fill="#947968"/></g><path d="M246.70545,208.67966c-3.55991,-2.80508 -3.84152,-7.71709 0.12618,-14.76934c2.4757,-4.40293 10.34689,-3.97171 13.86166,-4.97877c5.52298,-8.4584 4.15712,-9.361 4.11283,-13.67444c-0.05404,-5.41365 12.09462,-12.24185 15.57316,-4.42934c3.78762,8.50807 3.03407,15.22416 2.50311,21.55722c-0.98612,11.78339 -9.09723,16.31554 -17.6733,20.35557c-3.93622,1.85399 -13.97668,-0.49662 -18.50363,-4.06091z" fill="#e8cdba" fill-rule="evenodd" stroke="none" stroke-width="1"/><path d="M286.24626,208.29826c-10.94172,-6.27836 -12.81095,-10.27682 -14.50977,-19.3211c-0.88259,-4.70587 0.66667,-15.95867 7.07575,-19.19124c8.17582,-4.12309 17.10658,-9.41701 21.84062,-8.25943c3.71422,0.90647 7.79107,-4.69927 7.85622,0.97426c0.05073,4.52553 -0.17063,13.34294 -8.01272,19.87523c3.80441,0.97622 6.1446,3.50946 7.31793,7.01204c2.8495,8.50359 2.77405,16.18999 -1.90441,21.94364c-3.83268,4.71329 -15.64525,-0.72828 -19.66362,-3.0334z" fill="#000000" fill-rule="evenodd" stroke="none" stroke-width="1"/><path d="M282.48998,205.41416c-6.11506,-5.01777 -8.87556,-7.56521 -10.262,-16.76677c-0.94979,-6.31298 0.82292,-15.16163 7.03872,-18.37965c7.59756,-3.93175 16.81874,-8.71712 21.21942,-7.61211c3.4517,0.86561 7.45529,-3.81582 7.51554,1.59568c0.04847,4.31547 -1.86756,15.50358 -9.57501,18.30707c3.53769,0.93125 8.64214,3.45973 8.89213,8.13911c0.40867,7.63752 -2.96748,11.67157 -5.88574,14.37782c-4.22605,3.91631 -15.57913,3.10028 -18.94305,0.33885z" fill="#e8cdba" fill-rule="evenodd" stroke="none" stroke-width="1"/><g fill-rule="evenodd" stroke="#000000"><path d="M278.23701,209.34241c0,0 -10.29984,5.8328 -19.46045,6.57816c-7.2113,0.58505 -11.61967,-0.65508 -13.49891,-3.84431c-1.90682,-3.23886 -3.04466,-5.95558 -3.04955,-9.50608c3.55385,-9.17355 11.89714,-15.90676 19.84345,-19.70914c1.99842,11.1793 2.70964,16.58381 16.16547,26.48137z" fill="#000000" stroke-width="0.56659"/><path d="M277.02825,209.12244c0,0 -9.19491,5.68156 -18.10821,6.40763c-7.01594,0.57047 -11.3054,-0.63766 -13.13379,-3.74008c-1.85388,-3.15207 -2.96181,-5.79423 -2.96569,-9.25114c3.45669,-8.92499 11.57522,-15.47482 19.30631,-19.17505c0.64576,8.60217 0.86421,16.53917 14.90138,25.75865z" fill="#87cdde" stroke-width="0.55128"/></g><path d="M306.3104,167.71397c-3.71996,4.17087 -10.60234,3.8143 -18.36742,-2.99949c-4.63309,-4.14971 -16.06145,-10.03388 -12.48321,-15.00402c2.38547,-3.3162 5.36316,0.2793 7.36813,1.03983c-1.28016,-1.83119 -5.52132,-3.96336 -2.34644,-6.98436c2.55922,-2.43823 4.30004,1.61153 6.50771,2.84619c-1.41179,-2.07938 -4.58026,-4.84707 -1.78936,-7.79115c2.7025,-2.84745 4.54885,2.31189 6.57408,3.98948c-1.18756,-2.50403 -3.05057,-5.53744 -0.22485,-6.21053c2.3921,-0.57068 1.49859,-0.48827 7.78613,6.06269c6.98806,7.2839 11.41044,20.08242 6.97523,25.05138z" fill="#e8cdba" fill-rule="evenodd" stroke="none" stroke-width="1"/><path d="M285.51297,207.55505c4.02177,1.46006 9.42274,0.80716 12.44581,-0.08346c5.51948,-1.62537 9.17422,-6.25147 10.27172,-14.63983c2.95346,15.27245 0.5111,27.80677 -18.69998,29.72036z" fill="#ffffff" fill-rule="evenodd" stroke="none" stroke-width="1"/></g></g></svg>