<svg version="1.1" xmlns="http://www.w3.org/2000/svg" xmlns:xlink="http://www.w3.org/1999/xlink" width="140.43607" height="92.04231" viewBox="0,0,140.43607,92.04231"><defs><linearGradient x1="308.20901" y1="173.50332" x2="269.38425" y2="182.01959" gradientUnits="userSpaceOnUse" id="color-1"><stop offset="0" stop-color="#d19b75"/><stop offset="1" stop-color="#e8cdba" stop-opacity="0"/></linearGradient></defs><g transform="translate(-169.23312,-133.54819)"><g data-paper-data="{&quot;isPaintingLayer&quot;:true}" stroke-linecap="butt" stroke-linejoin="miter" stroke-miterlimit="10" stroke-dasharray="" stroke-dashoffset="0" style="mix-blend-mode: normal"><path d="M192.96392,221.85955c-12.91036,-1.56442 -18.46135,-5.86937 -20.89518,-10.29785c-2.43383,-4.42744 -3.59035,-11.00226 -0.04419,-24.3302c1.91679,7.63548 2.31962,8.66733 8.82822,15.60545c6.06655,2.78377 12.01706,2.23623 17.79115,-3.37593l-5.67999,22.39875z" data-paper-data="{&quot;index&quot;:null}" fill="#000000" fill-rule="evenodd" stroke="#000000" stroke-width="1.0977"/><g data-paper-data="{&quot;index&quot;:null}" fill-rule="evenodd" stroke="#000000"><path d="M200.62753,169.46564c13.95589,1.16843 30.13309,6.64264 40.53128,18.74373c1.97092,5.50664 1.78646,10.39254 0.74732,16.54435c-1.02331,6.0594 -6.9003,10.60173 -17.96954,13.97915c-14.06074,4.29001 -33.8208,2.88454 -33.8208,2.88454c6.17458,-20.10419 7.41678,-38.2406 10.51174,-52.15136z" fill="#000000" stroke-width="1.0278"/><path d="M200.8261,170.27786c13.57856,1.13702 29.31868,6.46344 39.43508,18.23705c1.9181,5.35815 1.73837,10.11133 0.7274,16.09638c-0.99517,5.89642 -6.71417,10.31588 -17.48393,13.60226c-13.68019,4.17396 -32.90632,2.80642 -32.90632,2.80642c6.00712,-19.56059 7.21602,-37.20752 10.22778,-50.74254z" fill="#87cdde" stroke-width="1"/></g><path d="M229.14518,210.66733c-3.80542,3.00421 -10.17263,2.0684 -14.84779,0.07126c-6.62555,-2.83138 -16.81352,-5.91322 -18.82421,-21.06682c-0.89264,-6.74255 -1.65769,-13.1634 2.37293,-22.21798c3.70239,-8.31971 17.48455,-1.55715 17.25834,4.19993c-0.27286,7.00041 0.87358,9.09482 3.58696,13.44622c3.74287,1.07191 9.67847,5.78244 12.31545,10.4679c4.22071,7.5084 1.92691,12.11173 -1.86169,15.09948z" data-paper-data="{&quot;index&quot;:null}" fill="#000000" fill-rule="evenodd" stroke="none" stroke-width="1"/><g data-paper-data="{&quot;index&quot;:null}" fill-rule="evenodd" stroke="none" stroke-width="1"><path d="M224.433,163.77878c0.41566,1.77246 -2.13051,5.76321 -4.78229,8.26901c-5.25406,4.96538 -10.61304,4.76676 -15.86421,1.09444c-8.31426,-5.81229 -7.51574,-12.47802 -4.88527,-16.89219c3.22698,-5.41098 6.74362,-7.82531 8.62126,-6.4852c1.3375,0.9582 1.83305,1.82889 1.2953,4.01281c0.68739,-0.97642 2.10764,-3.77373 4.78262,-1.99418c2.85203,1.89689 2.07493,2.75308 1.21192,4.35427c1.32449,-1.17904 1.8874,-2.21089 4.65077,-0.31984c2.77465,1.89677 0.13686,6.05767 -1.7947,8.6234c2.80215,-2.71018 6.0871,-3.53911 6.7646,-0.66252z" fill="#000000"/><path d="M215.53875,166.32163c3.35956,-3.07473 8.19817,-5.26786 7.98083,-1.89798c-0.20339,3.16841 -2.62849,5.44332 -4.6918,7.5248c-4.74279,4.78637 -10.1881,4.02072 -15.12386,0.35839c-8.16215,-6.05413 -6.66427,-11.17505 -4.38678,-15.38672c2.6841,-4.96087 5.855,-7.87745 7.88655,-6.35697c2.15218,1.60922 0.14598,4.78881 -0.99176,7.54608c2.14785,-2.1613 3.30346,-7.49788 6.72287,-5.69482c3.69906,1.94942 0.23518,4.3096 -1.95932,8.8612c2.90404,-3.16455 4.35976,-7.84913 8.03799,-4.72725c2.45815,2.0848 -1.37473,6.97512 -3.47471,9.77327z" fill="#e8cdba"/></g><path d="M173.2455,165.94961c-5.39119,-6.20643 -0.02641,-18.63289 7.13628,-26.68244c5.65521,-6.356 5.55943,-6.34663 8.65044,-5.00508c1.56313,0.67616 1.30954,1.8216 1.00491,2.6836c0.63611,-0.73988 3.44836,-2.877 5.28683,-0.33836c1.17853,1.62467 0.61161,4.05425 -0.10939,4.9513c1.10173,-0.90544 2.38921,-2.64295 4.73672,0.14036c2.2366,2.65316 0.29654,3.9531 -0.65057,4.98708c1.29233,-0.83474 3.21338,-2.30129 5.44684,0.64304c3.70607,4.88208 -7.58335,11.19206 -12.48604,15.65503c-7.93687,6.92842 -15.10206,7.47123 -19.01601,2.96548z" data-paper-data="{&quot;index&quot;:null}" fill="#000000" fill-rule="evenodd" stroke="none" stroke-width="1"/><g data-paper-data="{&quot;index&quot;:null}" fill-rule="nonzero" stroke="none" stroke-width="1"><path d="M231.1627,194.17056c-0.45624,-1.55443 -0.8468,-3.13206 -1.14579,-4.72769c-1.597,-7.56681 0.09651,-15.38047 3.56243,-21.54658c4.82381,-8.86824 12.90672,-14.66666 21.58333,-17.55615c1.88832,0.12312 0.90894,-2.1574 1.81824,-3.36754c1.50819,-2.13102 4.01371,-2.93238 6.35335,-3.23776c2.257,-0.49508 3.47984,2.4807 3.85036,4.61145c3.16369,-0.04345 6.35191,0.29099 9.49302,1.02598c8.31895,1.88657 16.53185,6.88138 21.83751,14.9515c1.3299,1.36899 1.81123,4.27941 3.15165,5.05425c2.10241,0.92198 1.72592,-2.24417 3.56491,-1.97749c1.42182,1.21877 4.63786,0.5781 4.42764,3.32755c-0.1304,2.41112 -2.35455,2.32139 -3.53444,0.77018c-0.49399,0.85907 -1.61227,1.25906 -2.6872,1.0533c-1.4048,0.40138 -0.20251,2.66212 -0.25801,3.87607c1.03628,5.56269 0.4358,11.32178 -1.47953,16.33191c-3.63389,10.07597 -11.46564,17.18939 -20.12911,21.03907c-0.36808,1.55169 -0.21307,4.60348 -2.27906,5.34076c-1.43835,0.76666 -3.16252,1.29259 -4.77979,0.97032c-2.08192,0.12773 -2.79867,-2.46183 -4.44977,-3.23911c-7.61555,0.90299 -15.61843,-0.28372 -22.80415,-4.16926c-6.94355,-3.72548 -13.31118,-10.1041 -16.09558,-18.53074z" fill="#e8cdba"/><path d="M231.1627,194.17056c-0.45624,-1.55443 -0.8468,-3.13206 -1.14579,-4.72769c-1.597,-7.56681 0.09651,-15.38047 3.56243,-21.54658c4.82381,-8.86824 12.90672,-14.66666 21.58333,-17.55615c1.88832,0.12312 0.90894,-2.1574 1.81824,-3.36754c1.50819,-2.13102 4.01371,-2.93238 6.35335,-3.23776c2.257,-0.49508 3.47984,2.4807 3.85036,4.61145c3.16369,-0.04345 6.35191,0.29099 9.49302,1.02598c8.31895,1.88657 16.53185,6.88138 21.83751,14.9515c1.3299,1.36899 1.81123,4.27941 3.15165,5.05425c2.10241,0.92198 1.72592,-2.24417 3.56491,-1.97749c1.42182,1.21877 4.63786,0.5781 4.42764,3.32755c-0.1304,2.41112 -2.35455,2.32139 -3.53444,0.77018c-0.49399,0.85907 -1.61227,1.25906 -2.6872,1.0533c-1.4048,0.40138 -0.20251,2.66212 -0.25801,3.87607c1.03628,5.56269 0.4358,11.32178 -1.47953,16.33191c-3.63389,10.07597 -11.46564,17.18939 -20.12911,21.03907c-0.36808,1.55169 -0.21307,4.60348 -2.27906,5.34076c-1.43835,0.76666 -3.16252,1.29259 -4.77979,0.97032c-2.08192,0.12773 -2.79867,-2.46183 -4.44977,-3.23911c-7.61555,0.90299 -15.61843,-0.28372 -22.80415,-4.16926c-6.94355,-3.72548 -13.31118,-10.1041 -16.09558,-18.53074z" fill="url(#color-1)"/><path d="M231.1627,194.17056c-0.45624,-1.55443 -0.8468,-3.13206 -1.14579,-4.72769c-1.597,-7.56681 0.09651,-15.38047 3.56243,-21.54658c4.82381,-8.86824 12.90672,-14.66666 21.58333,-17.55615c1.88832,0.12312 0.90894,-2.1574 1.81824,-3.36754c1.50819,-2.13102 4.01371,-2.93238 6.35335,-3.23776c2.257,-0.49508 3.47984,2.4807 3.85036,4.61145c3.16369,-0.04345 6.35191,0.29099 9.49302,1.02598c8.31895,1.88657 16.53185,6.88138 21.83751,14.9515c1.3299,1.36899 1.81123,4.27941 3.15165,5.05425c2.10241,0.92198 1.72592,-2.24417 3.56491,-1.97749c1.42182,1.21877 4.63786,0.5781 4.42764,3.32755c-0.1304,2.41112 -2.35455,2.32139 -3.53444,0.77018c-0.49399,0.85907 -1.61227,1.25906 -2.6872,1.0533c-1.4048,0.40138 -0.20251,2.66212 -0.25801,3.87607c1.03628,5.56269 0.4358,11.32178 -1.47953,16.33191c-3.63389,10.07597 -11.46564,17.18939 -20.12911,21.03907c-0.36808,1.55169 -0.21307,4.60348 -2.27906,5.34076c-1.43835,0.76666 -3.16252,1.29259 -4.77979,0.97032c-2.08192,0.12773 -2.79867,-2.46183 -4.44977,-3.23911c-7.61555,0.90299 -15.61843,-0.28372 -22.80415,-4.16926c-6.94355,-3.72548 -13.31118,-10.1041 -16.09558,-18.53074zM230.14263,185.42979c0.30508,7.07591 3.22382,13.94531 7.71756,18.98635c6.48469,7.33897 15.40338,11.16022 24.09944,11.87603c2.64871,0.15044 5.3659,0.32175 7.92753,-0.29842c2.03238,0.46894 2.89008,3.84255 5.32151,3.46078c2.2027,0.06991 5.03063,-0.8257 5.4668,-3.65388c-0.64553,-2.18997 0.9526,-3.17852 2.55939,-3.587c4.66683,-2.4309 8.99955,-5.77264 12.46511,-10.10923c4.71616,-5.8575 7.83036,-13.83541 7.25821,-22.24035c-0.14309,-1.39802 -0.10573,-2.94992 -0.54305,-4.23691c-1.07262,1.83089 -4.47469,0.66151 -3.19272,-1.70478c1.46836,-0.68847 0.31119,-3.15886 1.39126,-4.31161c-1.27422,-2.96912 -2.98865,-5.69897 -4.99964,-8.08393c-6.71074,-7.87119 -16.1838,-11.78083 -25.3153,-12.35958c-1.25227,-0.4455 -3.08311,0.82563 -3.79125,-0.93843c-0.30997,-1.98648 -1.50587,-4.2296 -3.50537,-3.80915c-1.61199,0.42666 -3.30277,0.88426 -4.65223,1.99899c-1.74241,0.70114 -0.62499,3.63928 -1.91735,4.2554c-6.73186,2.09366 -13.09095,5.84568 -18.00418,11.46733c-5.2165,5.96958 -8.85829,14.33778 -8.2857,23.28838zM239.77427,188.68702c-0.12401,-0.32573 -0.21443,-0.66664 -0.27461,-1.01006c-0.29176,-2.53409 0.25954,-5.02965 0.68436,-7.45401c0.69965,-2.50755 1.27222,-5.14802 2.52241,-7.34846c2.3015,-2.53921 4.73413,-5.20031 7.8677,-6.34992c2.16371,-0.61232 4.37911,-1.22966 6.66112,-1.09124c0.70207,-0.98406 -0.55176,-3.46979 -0.49597,-5.05449c-0.23154,-0.7611 -0.23056,-4.10612 0.75736,-2.82438c-0.47967,1.92201 -0.04998,3.99651 0.42168,5.92718c0.17196,2.31908 1.9996,3.56278 3.64601,4.47999c1.67797,1.31602 -1.06206,0.46273 -1.63962,-0.19775c-1.22796,-1.22256 -2.72337,-1.85538 -4.30443,-1.67335c-2.05758,0.40784 -4.21906,0.68164 -6.13155,1.65647c-1.60549,0.96598 -3.07157,2.2169 -4.42162,3.58918c-1.46437,1.36385 -2.60101,3.07003 -3.07238,5.24268c-1.04875,2.82329 -1.64058,5.85712 -1.90418,8.96029c-0.23362,2.12421 0.77638,4.11383 1.57693,6.0056c1.20094,1.92635 2.25937,3.96136 3.69128,5.69301c1.51604,2.64356 4.14719,3.91812 6.59602,4.93504c1.66099,0.59685 3.29551,1.35679 5.0378,1.28036c1.78238,-0.05856 3.56392,-0.26284 5.3146,-0.55715c1.81,-0.53594 2.01491,-3.28262 3.68399,-4.16328c1.27975,-0.99291 0.83397,0.56547 0.07674,1.02321c-1.67304,1.15088 -2.29281,3.58095 -2.05127,5.80741c-0.39377,1.00413 1.72275,3.99304 0.16319,3.37626c-1.02244,-1.53925 -0.49506,-3.6577 -0.90877,-5.43501c-1.23649,-0.2684 -3.16046,0.72242 -4.73842,0.53315c-2.4126,0.4553 -4.86602,-0.33934 -7.18634,-1.26825c-1.57671,-1.06133 -3.52028,-1.26455 -4.8108,-2.87983c-1.36281,-1.5513 -2.62515,-3.17212 -3.67711,-5.01791c-1.28894,-1.89017 -2.3944,-3.92624 -3.08413,-6.18475zM258.59949,150.60685c-0.71559,-2.4422 1.82669,-3.32458 3.41741,-3.58402c2.07579,-1.00006 3.79773,1.63393 2.58625,3.69633c-1.19153,1.44924 -0.42392,-1.11458 -0.25832,-1.79069c-0.3809,-2.18363 -3.51099,-1.12051 -4.60575,-0.19141c-1.99681,0.51602 0.93771,3.17769 -0.40477,3.52392c-0.42124,-0.42348 -0.61693,-1.05433 -0.73482,-1.65413zM273.38686,216.74405c-0.69128,-0.42018 -0.59268,-2.55389 0.35794,-2.28079c-0.05623,0.48815 -0.33243,2.06812 0.91233,2.14783c1.39804,0.90424 4.45218,-0.26237 2.98383,-2.3953c0.19545,-1.4697 1.84118,1.25306 1.11042,2.14322c-1.33092,1.64826 -3.63165,1.3848 -5.36452,0.38505zM274.6808,175.6756c2.46424,0.336 0.95844,5.20385 -1.03313,3.29732c-1.52536,-0.95644 -0.55627,-3.73834 1.03313,-3.29732zM277.21531,181.87056c2.46424,0.336 0.95844,5.20385 -1.03313,3.29732c-1.52536,-0.95644 -0.55627,-3.73834 1.03313,-3.29732zM276.60254,170.57154c1.25938,0.10944 2.79474,2.57588 3.23536,4.20717c-0.86194,0.63964 -1.97258,-2.6139 -3.01337,-3.39786c-0.18613,-0.1951 -0.31935,-0.5379 -0.22199,-0.80931zM281.17595,186.63366c0.78951,-0.96349 -0.08144,-4.16632 1.44162,-3.63847c-0.29491,1.96121 -0.19308,4.34041 -1.44541,5.83764c-0.42812,-0.67441 -0.18327,-1.52055 0.00379,-2.19917zM299.61219,174.58029c-0.25374,0.27984 -0.1898,0.80615 0.14371,1.00661c2.828,1.52418 1.60354,-3.20178 3.14883,-3.84873c1.51631,1.26027 2.22747,-1.35252 3.5645,-0.98203c0.76475,2.11162 3.3175,0.88052 2.4242,-1.07369c-1.49031,0.45766 -3.2595,-2.66988 -4.62,-1.03812c0.27321,1.5166 -1.02101,1.69889 -2.04922,1.40329c-2.63005,-0.28626 -0.57847,4.02486 -2.61202,4.53266z" fill="#000000"/><path d="M239.77427,188.68702c-0.12401,-0.32573 -0.21443,-0.66664 -0.27461,-1.01006c-0.29176,-2.53409 0.25954,-5.02965 0.68436,-7.45401c0.69965,-2.50755 1.27222,-5.14802 2.52241,-7.34846c2.3015,-2.53921 4.73413,-5.20031 7.8677,-6.34992c2.16371,-0.61232 4.37911,-1.22966 6.66112,-1.09124c0.70207,-0.98406 -0.55176,-3.46979 -0.49597,-5.05449c-0.23154,-0.7611 -0.23056,-4.10612 0.75736,-2.82438c-0.47967,1.92201 -0.04998,3.99651 0.42168,5.92718c0.17196,2.31908 1.9996,3.56278 3.64601,4.47999c1.67797,1.31602 -1.06206,0.46273 -1.63962,-0.19775c-1.22796,-1.22256 -2.72337,-1.85538 -4.30443,-1.67335c-2.05758,0.40784 -4.21906,0.68164 -6.13155,1.65647c-1.60549,0.96598 -3.07157,2.2169 -4.42162,3.58918c-1.46437,1.36385 -2.60101,3.07003 -3.07238,5.24268c-1.04875,2.82329 -1.64058,5.85712 -1.90418,8.96029c-0.23362,2.12421 0.77638,4.11383 1.57693,6.0056c1.20094,1.92635 2.25937,3.96136 3.69128,5.69301c1.51604,2.64356 4.14719,3.91812 6.59602,4.93504c1.66099,0.59685 3.29551,1.35679 5.0378,1.28036c1.78238,-0.05856 3.56392,-0.26284 5.3146,-0.55715c1.81,-0.53594 2.01491,-3.28262 3.68399,-4.16328c1.27975,-0.99291 0.83397,0.56547 0.07674,1.02321c-1.67304,1.15088 -2.29281,3.58095 -2.05127,5.80741c-0.39377,1.00413 1.72275,3.99304 0.16319,3.37626c-1.02244,-1.53925 -0.49506,-3.6577 -0.90877,-5.43501c-1.23649,-0.2684 -3.16046,0.72242 -4.73842,0.53315c-2.4126,0.4553 -4.86602,-0.33934 -7.18634,-1.26825c-1.57671,-1.06133 -3.52028,-1.26455 -4.8108,-2.87983c-1.36281,-1.5513 -2.62515,-3.17212 -3.67711,-5.01791c-1.28894,-1.89017 -2.3944,-3.92624 -3.08413,-6.18475z" fill="#000000"/><path d="M258.59949,150.60685c-0.71559,-2.4422 1.82669,-3.32458 3.41741,-3.58402c2.07579,-1.00006 3.79773,1.63393 2.58625,3.69633c-1.19153,1.44924 -0.42392,-1.11458 -0.25832,-1.79069c-0.3809,-2.18363 -3.51099,-1.12051 -4.60575,-0.19141c-1.99681,0.51602 0.93771,3.17769 -0.40477,3.52392c-0.42124,-0.42348 -0.61693,-1.05433 -0.73482,-1.65413z" fill="#000000"/><path d="M273.38686,216.74405c-0.69128,-0.42018 -0.59268,-2.55389 0.35794,-2.28079c-0.05623,0.48815 -0.33243,2.06812 0.91233,2.14783c1.39804,0.90424 4.45218,-0.26237 2.98383,-2.3953c0.19545,-1.4697 1.84118,1.25306 1.11042,2.14322c-1.33092,1.64826 -3.63165,1.3848 -5.36452,0.38505z" fill="#000000"/><path d="M274.6808,175.6756c2.46424,0.336 0.95844,5.20385 -1.03313,3.29732c-1.52536,-0.95644 -0.55627,-3.73834 1.03313,-3.29732z" fill="#000000"/><path d="M277.21531,181.87056c2.46424,0.336 0.95844,5.20385 -1.03313,3.29732c-1.52536,-0.95644 -0.55627,-3.73834 1.03313,-3.29732z" fill="#000000"/><path d="M276.60254,170.57154c1.25938,0.10944 2.79474,2.57588 3.23536,4.20717c-0.86194,0.63964 -1.97258,-2.6139 -3.01337,-3.39786c-0.18613,-0.1951 -0.31935,-0.5379 -0.22199,-0.80931z" fill="#000000"/><path d="M281.17595,186.63366c0.78951,-0.96349 -0.08144,-4.16632 1.44162,-3.63847c-0.29491,1.96121 -0.19308,4.34041 -1.44541,5.83764c-0.42812,-0.67441 -0.18327,-1.52055 0.00379,-2.19917z" fill="#000000"/><path d="M299.7559,175.58688c-0.3335,-0.20046 -0.39744,-0.72677 -0.14371,-1.00661c2.03355,-0.5078 -0.01802,-4.81892 2.61202,-4.53266c1.02821,0.29561 2.32244,0.11331 2.04922,-1.40329c1.3605,-1.63176 3.12969,1.49578 4.62,1.03812c0.8933,1.95421 -1.65945,3.18531 -2.4242,1.07369c-1.33703,-0.37049 -2.04819,2.2423 -3.5645,0.98203c-1.54529,0.64695 -0.32083,5.37291 -3.14883,3.84873z" fill="#947968"/></g><path d="M232.96372,206.4402c-4.52695,3.56429 -14.56741,5.9149 -18.50363,4.06091c-8.57607,-4.04003 -16.68718,-8.57218 -17.6733,-20.35557c-0.53096,-6.33306 -1.28451,-13.04915 2.50311,-21.55722c3.47854,-7.81251 15.6272,-0.98431 15.57316,4.42934c-0.04429,4.31344 -1.41015,5.21604 4.11283,13.67444c3.51477,1.00706 11.38596,0.57584 13.86166,4.97877c3.9677,7.05225 3.68609,11.96426 0.12618,14.76934z" data-paper-data="{&quot;index&quot;:null}" fill="#e8cdba" fill-rule="evenodd" stroke="none" stroke-width="1"/><path d="M173.7593,209.09221c-4.67846,-5.75365 -4.75391,-13.44005 -1.90441,-21.94364c1.17333,-3.50258 3.51352,-6.03582 7.31793,-7.01204c-7.84209,-6.53229 -8.06345,-15.3497 -8.01272,-19.87523c0.06515,-5.67353 4.142,-0.06779 7.85622,-0.97426c4.73404,-1.15758 13.6648,4.13634 21.84062,8.25943c6.40908,3.23257 7.95834,14.48537 7.07575,19.19124c-1.69882,9.04428 -3.56805,13.04274 -14.50977,19.3211c-4.01837,2.30512 -15.83094,7.74669 -19.66362,3.0334z" data-paper-data="{&quot;index&quot;:null}" fill="#000000" fill-rule="evenodd" stroke="none" stroke-width="1"/><path d="M197.17919,203.17471c-3.36392,2.76143 -14.717,3.57746 -18.94305,-0.33885c-2.91826,-2.70625 -6.29441,-6.7403 -5.88574,-14.37782c0.24999,-4.67938 5.35444,-7.20786 8.89213,-8.13911c-7.70745,-2.80349 -9.62348,-13.9916 -9.57501,-18.30707c0.06025,-5.4115 4.06384,-0.73007 7.51554,-1.59568c4.40068,-1.10501 13.62186,3.68036 21.21942,7.61211c6.2158,3.21802 7.98851,12.06667 7.03872,18.37965c-1.38644,9.20156 -4.14694,11.749 -10.262,16.76677z" data-paper-data="{&quot;index&quot;:null}" fill="#e8cdba" fill-rule="evenodd" stroke="none" stroke-width="1"/><g data-paper-data="{&quot;index&quot;:null}" fill-rule="evenodd" stroke="#000000"><path d="M201.43216,207.10296c13.45583,-9.89756 14.16705,-15.30207 16.16547,-26.48137c7.94631,3.80238 16.2896,10.53559 19.84345,19.70914c-0.00489,3.5505 -1.14273,6.26722 -3.04955,9.50608c-1.87924,3.18923 -6.28761,4.42936 -13.49891,3.84431c-9.16061,-0.74536 -19.46045,-6.57816 -19.46045,-6.57816z" fill="#000000" stroke-width="0.56659"/><path d="M202.64093,206.883c14.03717,-9.21948 14.25562,-17.15648 14.90138,-25.75865c7.73109,3.70023 15.84962,10.25006 19.30631,19.17505c-0.00388,3.45691 -1.11181,6.09907 -2.96569,9.25114c-1.82839,3.10242 -6.11785,4.31055 -13.13379,3.74008c-8.9133,-0.72607 -18.10821,-6.40763 -18.10821,-6.40763z" fill="#87cdde" stroke-width="0.55128"/></g><path d="M173.35878,165.47454c-4.43521,-4.96896 -0.01283,-17.76748 6.97523,-25.05138c6.28754,-6.55096 5.39403,-6.63337 7.78613,-6.06269c2.82572,0.67309 0.96271,3.7065 -0.22485,6.21053c2.02523,-1.67759 3.87158,-6.83693 6.57408,-3.98948c2.7909,2.94408 -0.37757,5.71177 -1.78936,7.79115c2.20767,-1.23466 3.94849,-5.28442 6.50771,-2.84619c3.17488,3.021 -1.06628,5.15317 -2.34644,6.98436c2.00497,-0.76053 4.98266,-4.35603 7.36813,-1.03983c3.57824,4.97014 -7.85012,10.85431 -12.48321,15.00402c-7.76508,6.81379 -14.64746,7.17036 -18.36742,2.99949z" data-paper-data="{&quot;index&quot;:null}" fill="#e8cdba" fill-rule="evenodd" stroke="none" stroke-width="1"/><path d="M190.13866,220.31267c-19.21108,-1.91359 -21.65344,-14.44791 -18.69998,-29.72036c1.0975,8.38836 4.75224,13.01446 10.27172,14.63983c3.02307,0.89062 8.42404,1.54352 12.44581,0.08346z" data-paper-data="{&quot;index&quot;:null}" fill="#ffffff" fill-rule="evenodd" stroke="none" stroke-width="1"/></g></g></svg>