<svg version="1.0" width="140" height="88.425" xmlns="http://www.w3.org/2000/svg"><defs><linearGradient id="prefix__a" y2="546.78" gradientUnits="userSpaceOnUse" x2="445.02" y1="270" x1="450.18"><stop offset="0" stop-color="#d19b75"/><stop offset="1" stop-color="#e8cdba" stop-opacity="0"/></linearGradient></defs><path d="M116.705 88.311c12.91-1.564 18.462-5.869 20.895-10.298 2.434-4.427 3.59-11.002.045-24.33-1.917 7.636-2.32 8.668-8.829 15.606-6.066 2.784-12.017 2.236-17.79-3.376l5.68 22.399z" fill-rule="evenodd" stroke="#000" stroke-width=".22837302000000004"/><g fill-rule="evenodd" stroke="#000"><path d="M308.85 539.45c-4.84-84.7-30.03-183.15-87.01-246.99-26.07-12.31-49.3-11.51-78.59-5.61C114.4 292.66 92.512 328 75.895 394.9c-21.107 84.98-15.437 204.89-15.437 204.89 95.862-36.13 182.12-42.48 248.39-60.34z" stroke-width="1.028" transform="rotate(-90.616 60.775 40.644) scale(.2104 .16491)"/><path transform="rotate(-90.616 43.19 31.879) scale(.2104 .16491)" d="M178.87 591.09c-4.71-82.41-29.22-178.2-84.658-240.31-25.367-11.98-47.966-11.2-76.462-5.46-28.074 5.65-49.37 40.04-65.539 105.13-20.536 82.68-15.019 199.35-15.019 199.35 93.27-35.15 177.2-41.33 241.68-58.71z" fill="#87cdde"/></g><path d="M95.372 77.19c6.625-2.831 16.813-5.913 18.824-21.066.893-6.743 1.658-13.164-2.373-22.218-3.702-8.32-17.484-1.558-17.258 4.2.273 7-.874 9.094-3.587 13.446-3.743 1.072-9.679 5.782-12.316 10.468-4.22 7.508-1.927 12.111 1.862 15.1 3.805 3.003 10.173 2.068 14.848.07z" fill-rule="evenodd"/><g fill-rule="evenodd"><path d="M92 30.893c-1.93-2.566-4.569-6.727-1.794-8.623 2.763-1.891 3.326-.86 4.65.32-.862-1.602-1.64-2.458 1.213-4.355 2.675-1.78 4.095 1.018 4.782 1.994-.537-2.183-.042-3.054 1.296-4.012 1.877-1.34 5.394 1.074 8.62 6.485 2.631 4.414 3.43 11.08-4.884 16.892-5.251 3.672-10.61 3.871-15.865-1.094-2.651-2.506-5.197-6.497-4.782-8.27.678-2.876 3.963-2.047 6.765.663z"/><path d="M94.13 32.773c-2.1-2.798-5.932-7.688-3.474-9.773 3.678-3.122 5.134 1.563 8.038 4.727-2.195-4.551-5.659-6.911-1.96-8.86 3.42-1.804 4.575 3.533 6.723 5.694-1.138-2.757-3.144-5.937-.992-7.546 2.032-1.52 5.203 1.396 7.887 6.357 2.278 4.212 3.775 9.332-4.387 15.387-4.936 3.662-10.38 4.428-15.124-.359-2.063-2.081-4.488-4.356-4.691-7.525-.218-3.37 4.62-1.176 7.98 1.898z" fill="#e8cdba"/></g><path d="M136.424 32.401c-3.914 4.506-11.08 3.963-19.016-2.965-4.903-4.463-16.192-10.773-12.486-15.655 2.233-2.944 4.154-1.478 5.446-.643-.947-1.034-2.887-2.334-.65-4.987 2.347-2.784 3.635-1.046 4.737-.14-.721-.898-1.288-3.327-.11-4.952 1.839-2.539 4.65-.401 5.287.338-.305-.862-.558-2.007 1.005-2.683 3.091-1.342 2.995-1.351 8.65 5.005 7.163 8.05 12.528 20.476 7.137 26.682z" fill-rule="evenodd"/><path d="M78.506 60.622c-2.784 8.427-9.152 14.806-16.095 18.531-7.186 3.886-15.189 5.072-22.804 4.17-1.651.777-2.368 3.366-4.45 3.238-1.617.323-3.341-.203-4.78-.97-2.066-.737-1.91-3.789-2.279-5.34C19.435 76.4 11.603 69.286 7.97 59.21a30.541 30.541 0 01-1.48-16.332c-.055-1.214 1.147-3.474-.258-3.876-1.074.206-2.193-.194-2.687-1.053C2.364 39.501.14 39.591.01 37.18c-.21-2.75 3.006-2.109 4.427-3.328 1.84-.266 1.463 2.9 3.565 1.978 1.34-.775 1.822-3.685 3.152-5.054 5.306-8.07 13.519-13.065 21.838-14.952a39.29 39.29 0 019.493-1.026c.37-2.13 1.593-5.106 3.85-4.611 2.34.305 4.845 1.106 6.353 3.237.91 1.21-.07 3.491 1.819 3.368 8.676 2.89 16.759 8.688 21.583 17.556 3.466 6.166 5.16 13.98 3.562 21.547a48.564 48.564 0 01-1.146 4.727z" fill="#e8cdba"/><path d="M417.99 824.32c-52.29-7.71-96.75-42.66-126.41-85.11-30.87-43.89-46.95-96.99-50.41-150.25-6.42-10.24-22.33-11.66-23.97-26.06-3.73-10.62-2.64-23.11.18-33.97 1.93-15.11 19.89-18.15 28.51-22.75 12.51-64.38 44.99-127.46 99.54-165.83 27-19.82 59.87-31.66 93.47-32.05 7.01-2.01 21.56 3.17 22.29-6.97-2.43-7.07-1.38-15.25 3.06-19.78-10.39-5.98-13.46-21.06.44-25.19 15.78-5.13 15.73 17.71 24.46 25.79 3.66 12.21-15.22 13.89-7.44 27.02 6.05 8.12 23.56 7.5 33.06 14.75 53.1 25.42 91.61 74.84 112.13 129.16 7.88 20.48 13.48 41.82 16.85 63.5 12.84-.33 31.58 4.03 31.28 20.12.9 16.4-.9 34.6-11.59 47.77-6.01 7.84-20.42 4.21-17.54 16.95-6.9 63.18-31.43 126.21-77.58 171.09-31.96 31.97-75.55 54.04-121.47 53.29-9.64.1-19.28-.45-28.86-1.48z" fill="url(#prefix__a)" transform="matrix(.03248 -.16523 .14088 .02769 -51.198 106.865)"/><path d="M78.506 60.622c-2.784 8.427-9.152 14.806-16.095 18.531-7.186 3.886-15.189 5.072-22.804 4.17-1.651.777-2.368 3.366-4.45 3.238-1.617.323-3.341-.203-4.78-.97-2.066-.737-1.91-3.789-2.279-5.34C19.435 76.4 11.603 69.286 7.97 59.21a30.541 30.541 0 01-1.48-16.332c-.055-1.214 1.147-3.474-.258-3.876-1.074.206-2.193-.194-2.687-1.053C2.364 39.501.14 39.591.01 37.18c-.21-2.75 3.006-2.109 4.427-3.328 1.84-.266 1.463 2.9 3.565 1.978 1.34-.775 1.822-3.685 3.152-5.054 5.306-8.07 13.519-13.065 21.838-14.952a39.29 39.29 0 019.493-1.026c.37-2.13 1.593-5.106 3.85-4.611 2.34.305 4.845 1.106 6.353 3.237.91 1.21-.07 3.491 1.819 3.368 8.676 2.89 16.759 8.688 21.583 17.556 3.466 6.166 5.16 13.98 3.562 21.547a48.564 48.564 0 01-1.146 4.727zm1.02-8.74c.573-8.951-3.069-17.32-8.285-23.289-4.913-5.621-11.272-9.373-18.004-11.467-1.293-.616-.175-3.554-1.918-4.256-1.35-1.114-3.04-1.572-4.652-1.999-2-.42-3.195 1.823-3.505 3.81-.708 1.764-2.54.493-3.792.938-9.131.579-18.604 4.488-25.315 12.36a32.42 32.42 0 00-5 8.084c1.08 1.152-.077 3.623 1.392 4.311 1.282 2.366-2.12 3.536-3.193 1.705-.437 1.287-.4 2.839-.543 4.237-.572 8.405 2.542 16.383 7.258 22.24 3.466 4.337 7.798 7.679 12.465 10.11 1.607.408 3.205 1.396 2.56 3.586.436 2.829 3.264 3.724 5.466 3.654 2.432.382 3.29-2.992 5.322-3.46 2.562.62 5.279.448 7.928.298 8.696-.716 17.614-4.537 24.099-11.876 4.494-5.041 7.412-11.91 7.718-18.986zm-9.631 3.257c-.69 2.258-1.795 4.294-3.084 6.185-1.052 1.845-2.315 3.466-3.677 5.017-1.29 1.616-3.234 1.819-4.811 2.88-2.32.93-4.774 1.724-7.186 1.269-1.578.189-3.502-.802-4.739-.534-.414 1.778.114 3.896-.909 5.435-1.56.617.557-2.372.164-3.376.241-2.226-.379-4.656-2.052-5.807-.757-.458-1.203-2.016.077-1.023 1.67.88 1.874 3.627 3.684 4.163 1.75.294 3.532.498 5.315.557 1.742.076 3.376-.684 5.037-1.28 2.45-1.017 5.08-2.292 6.596-4.935 1.432-1.732 2.49-3.767 3.692-5.693.8-1.892 1.81-3.882 1.577-6.006-.264-3.103-.856-6.137-1.905-8.96-.47-2.173-1.608-3.88-3.072-5.243-1.35-1.372-2.816-2.623-4.422-3.59-1.912-.974-4.074-1.248-6.131-1.656-1.581-.182-3.077.451-4.305 1.674-.577.66-3.317 1.513-1.64.197 1.647-.917 3.475-2.16 3.647-4.48.472-1.93.901-4.005.422-5.927.987-1.281.988 2.064.757 2.825.056 1.584-1.198 4.07-.496 5.054 2.282-.138 4.497.479 6.661 1.091 3.134 1.15 5.566 3.811 7.868 6.35 1.25 2.2 1.823 4.841 2.522 7.349.425 2.424.976 4.92.685 7.454-.06.343-.151.684-.275 1.01zm-19.56-36.426c-1.343-.346 1.592-3.008-.405-3.524-1.095-.93-4.225-1.992-4.606.191.166.676.934 3.24-.258 1.79-1.211-2.061.51-4.695 2.586-3.695 1.591.26 4.133 1.141 3.418 3.584-.118.6-.314 1.23-.735 1.654zM36.282 83.196c-1.733 1-4.033 1.263-5.364-.385-.731-.89.915-3.613 1.11-2.143-1.468 2.133 1.586 3.3 2.984 2.395 1.245-.08.969-1.66.912-2.148.951-.273 1.05 1.86.358 2.28zm-.26-37.771c-1.992 1.906-3.498-2.962-1.034-3.298 1.59-.44 2.559 2.341 1.034 3.298zm-2.535 6.195c-1.992 1.906-3.497-2.962-1.033-3.298 1.59-.44 2.558 2.341 1.033 3.298zm-.642-13.787c-1.041.784-2.152 4.037-3.014 3.397.44-1.63 1.976-4.097 3.236-4.207.097.272-.036.615-.222.81zm-4.348 17.452c-1.252-1.498-1.15-3.877-1.445-5.838 1.523-.528.652 2.675 1.441 3.638.187.68.432 1.525.004 2.2zm-18.44-14.253c-2.034-.508.018-4.819-2.612-4.533-1.028.296-2.322.114-2.05-1.403-1.36-1.632-3.129 1.496-4.62 1.038-.893 1.954 1.66 3.186 2.425 1.074 1.337-.37 2.048 2.242 3.564.982 1.546.647.321 5.373 3.15 3.849.333-.2.397-.727.143-1.007z"/><path d="M69.895 55.139c-.69 2.258-1.795 4.294-3.084 6.185-1.052 1.845-2.315 3.466-3.677 5.017-1.29 1.616-3.234 1.819-4.811 2.88-2.32.93-4.774 1.724-7.186 1.269-1.578.189-3.502-.802-4.739-.534-.414 1.778.114 3.896-.909 5.435-1.56.617.557-2.372.164-3.376.241-2.226-.379-4.656-2.052-5.807-.757-.458-1.203-2.016.077-1.023 1.67.88 1.874 3.627 3.684 4.163 1.75.294 3.532.498 5.315.557 1.742.076 3.376-.684 5.037-1.28 2.45-1.017 5.08-2.292 6.596-4.935 1.432-1.732 2.49-3.767 3.692-5.693.8-1.892 1.81-3.882 1.577-6.006-.264-3.103-.856-6.137-1.905-8.96-.47-2.173-1.608-3.88-3.072-5.243-1.35-1.372-2.816-2.623-4.422-3.59-1.912-.974-4.074-1.248-6.131-1.656-1.581-.182-3.077.451-4.305 1.674-.577.66-3.317 1.513-1.64.197 1.647-.917 3.475-2.16 3.647-4.48.472-1.93.901-4.005.422-5.927.987-1.281.988 2.064.757 2.825.056 1.584-1.198 4.07-.496 5.054 2.282-.138 4.497.479 6.661 1.091 3.134 1.15 5.566 3.811 7.868 6.35 1.25 2.2 1.823 4.841 2.522 7.349.425 2.424.976 4.92.685 7.454-.06.343-.151.684-.275 1.01zM50.335 18.713c-1.343-.346 1.592-3.008-.405-3.524-1.095-.93-4.225-1.992-4.606.191.166.676.934 3.24-.258 1.79-1.211-2.061.51-4.695 2.586-3.695 1.591.26 4.133 1.141 3.418 3.584-.118.6-.314 1.23-.735 1.654zM36.282 83.196c-1.733 1-4.033 1.263-5.364-.385-.731-.89.915-3.613 1.11-2.143-1.468 2.133 1.586 3.3 2.984 2.395 1.245-.08.969-1.66.912-2.148.951-.273 1.05 1.86.358 2.28zM36.022 45.425c-1.992 1.906-3.498-2.962-1.034-3.298 1.59-.44 2.559 2.341 1.034 3.298zM33.487 51.62c-1.992 1.906-3.497-2.962-1.033-3.298 1.59-.44 2.558 2.341 1.033 3.298zM32.845 37.833c-1.041.784-2.152 4.037-3.014 3.397.44-1.63 1.976-4.097 3.236-4.207.097.272-.036.615-.222.81zM28.497 55.285c-1.252-1.498-1.15-3.877-1.445-5.838 1.523-.528.652 2.675 1.441 3.638.187.68.432 1.525.004 2.2z"/><path d="M10.057 41.032c-2.034-.508.018-4.819-2.612-4.533-1.028.296-2.322.114-2.05-1.403-1.36-1.632-3.129 1.496-4.62 1.038-.893 1.954 1.66 3.186 2.425 1.074 1.337-.37 2.048 2.242 3.564.982 1.546.647.321 5.373 3.15 3.849.333-.2.397-.727.143-1.007z" fill="#947968"/><path d="M95.21 76.953c8.575-4.04 16.686-8.572 17.672-20.356.531-6.333 1.285-13.049-2.503-21.557-3.478-7.812-15.627-.984-15.573 4.43.044 4.313 1.41 5.215-4.113 13.674-3.514 1.007-11.386.576-13.861 4.979-3.968 7.052-3.686 11.964-.127 14.769 4.527 3.564 14.568 5.915 18.504 4.06z" fill="#e8cdba" fill-rule="evenodd"/><path d="M116.246 72.51c-10.941-6.278-12.81-10.276-14.51-19.32-.882-4.706.667-15.96 7.076-19.192 8.176-4.123 17.107-9.417 21.84-8.26 3.715.907 7.792-4.698 7.857.975.05 4.526-.17 13.343-8.013 19.875 3.805.977 6.145 3.51 7.318 7.012 2.85 8.504 2.774 16.19-1.904 21.944-3.833 4.713-15.645-.728-19.664-3.033z" fill-rule="evenodd"/><path d="M112.49 69.627c-6.115-5.018-8.876-7.566-10.262-16.767-.95-6.313.823-15.162 7.039-18.38 7.597-3.932 16.818-8.717 21.22-7.612 3.45.866 7.454-3.816 7.515 1.596.048 4.315-1.868 15.503-9.575 18.307 3.537.931 8.642 3.46 8.892 8.139.408 7.637-2.968 11.671-5.886 14.378-4.226 3.916-15.58 3.1-18.943.339z" fill="#e8cdba" fill-rule="evenodd"/><g fill-rule="evenodd" stroke="#000"><path d="M92.072 47.073c-7.947 3.803-16.29 10.536-19.844 19.71.005 3.55 1.143 6.267 3.05 9.506 1.879 3.189 6.287 4.429 13.499 3.844 9.16-.745 19.46-6.578 19.46-6.578-13.456-9.898-14.167-15.302-16.165-26.482z" stroke-width=".11793033"/><path d="M92.127 47.576c-7.731 3.7-15.85 10.25-19.306 19.175.003 3.457 1.111 6.1 2.965 9.251 1.829 3.103 6.118 4.31 13.134 3.74 8.913-.726 18.108-6.407 18.108-6.407-14.037-9.22-14.255-17.157-14.901-25.759z" fill="#87cdde" stroke-width=".11460249000000002"/></g><path d="M136.31 31.926c-3.72 4.171-10.602 3.815-18.367-3-4.633-4.149-16.061-10.033-12.483-15.003 2.385-3.316 5.363.28 7.368 1.04-1.28-1.832-5.521-3.964-2.347-6.985 2.56-2.438 4.3 1.612 6.508 2.846-1.412-2.079-4.58-4.847-1.79-7.79 2.703-2.848 4.55 2.311 6.575 3.989-1.188-2.504-3.05-5.538-.225-6.21 2.392-.571 1.499-.489 7.786 6.062 6.988 7.284 11.41 20.082 6.975 25.051z" fill="#e8cdba" fill-rule="evenodd"/><path d="M119.53 86.764c19.212-1.913 21.654-14.447 18.7-29.72-1.097 8.388-4.752 13.015-10.271 14.64-3.023.89-8.424 1.543-12.446.083z" fill="#fff" fill-rule="evenodd"/></svg>