<svg version="1.0" width="100" height="100" xmlns:xlink="http://www.w3.org/1999/xlink" xmlns="http://www.w3.org/2000/svg"><defs><linearGradient id="prefix__a"><stop offset="0" stop-color="#fff"/><stop offset="1" stop-color="#fff" stop-opacity="0"/></linearGradient><linearGradient id="prefix__c" y2="312.36" gradientUnits="userSpaceOnUse" x2="814.5" y1="363.36" x1="814.5"><stop offset="0" stop-color="#862c2c"/><stop offset="1" stop-color="#621b1b"/></linearGradient><linearGradient id="prefix__e" y2="-3.347" xlink:href="#prefix__a" gradientUnits="userSpaceOnUse" x2="557.55" y1="-39.056" x1="557.55"/><linearGradient id="prefix__f" y2="25.597" xlink:href="#prefix__a" gradientUnits="userSpaceOnUse" x2="632.48" gradientTransform="matrix(.38102 -.14867 .14892 .38037 40.393 169.94)" y1="53.939" x1="629.33"/><radialGradient id="prefix__b" gradientUnits="userSpaceOnUse" cy="347.27" cx="814.5" r="25.5"><stop offset="0" stop-color="#ffdcdc"/><stop offset="1" stop-color="#cf7575"/></radialGradient><filter id="prefix__d" height="1.236" width="1.244" y="-.118" x="-.122"><feGaussianBlur stdDeviation=".758"/></filter></defs><g transform="translate(-782.772 -194.94) scale(2.94536)"><circle transform="translate(-270.24 -146.22) scale(.67892)" cx="814.5" cy="337.862" r="24" fill="url(#prefix__b)" stroke="url(#prefix__c)" stroke-width="2.008" stroke-linecap="round" stroke-linejoin="round"/><path transform="translate(-43.467 -13.083) scale(1.151)" opacity=".5" filter="url(#prefix__d)" d="M276.29 76.462h14.902v15.402H276.29z"/><path fill="#ffe4e4" stroke="#9f2b2b" stroke-width="1.5" stroke-linecap="round" stroke-linejoin="round" d="M275.29 75.462h14.902v15.402H275.29z"/><ellipse transform="matrix(.45298 0 0 .46321 30.183 86.293)" cx="557.554" cy="-21.201" rx="23.688" ry="17.854" fill="url(#prefix__e)"/><path d="M269.44 89.353c3.17 7.039 11.36 10.437 18.64 7.596 7.27-2.839 10.98-10.87 8.54-18.186a19.918 19.918 0 01-11.29 11.185c-5.36 2.092-11.07 1.711-15.89-.595z" fill="url(#prefix__f)"/></g></svg>