<svg xmlns="http://www.w3.org/2000/svg" width="96.024" height="140.379" viewBox="0 0 122.911 179.686" xmlns:v="https://vecta.io/nano"><path d="M110.364 9.656c6.926 0 12.546 5.621 12.546 12.546s-5.621 12.546-12.546 12.546h-3.714a12.21 12.21 0 0 1-8.451 5.52l3.332 74.476c0 4.818-1.365 9.415-3.935 13.43.02.181-2.048 47.215-2.048 47.215-.06 2.369-2.007 4.296-4.396 4.296h-7.849c-1.124 0-2.148-.422-2.911-1.124a3.96 3.96 0 0 1-2.349.763h-7.849c-2.208 0-3.995-1.767-4.035-3.955l-1.566-35.732H49.961l-1.586 35.752c-.06 2.369-2.007 4.296-4.396 4.296h-7.849c-1.124 0-2.148-.422-2.911-1.124a3.96 3.96 0 0 1-2.349.763h-7.849c-2.208 0-3.995-1.767-4.035-3.955l-2.65-60.625a24.83 24.83 0 0 1 2.73-11.362c-5.179 1.445-9.094 5.902-9.796 11.342.04.02.08.04.12.08 1.305.903 2.188 2.268 2.469 3.834.12.703.12 1.405 0 2.108l-.562 3.051c-.462 2.61-2.75 4.457-5.32 4.457-.321 0-.642-.02-.964-.08a5.43 5.43 0 0 1-4.356-4.356l-.562-3.071a5.94 5.94 0 0 1 .964-4.457c.482-.703 1.104-1.265 1.827-1.706.943-10.117 9.475-18.067 19.833-18.067h1.546c2.71-2.469 6.083-4.175 6.143-4.216 3.393-1.626 7.006-2.449 10.8-2.449h24.25l5.32-66.647c-2.489-.141-5.199-1.425-7.528-3.754-1.907-1.907-3.152-4.055-3.593-6.243-.542-2.59.141-5.059 1.847-6.765s4.175-2.369 6.765-1.847c2.188.442 4.356 1.686 6.243 3.593.943.943 1.726 1.947 2.309 2.991.662-.381 1.365-.683 2.088-.943V3.533A3.54 3.54 0 0 1 82.441 0a3.54 3.54 0 0 1 3.533 3.533v6.123h1.325V3.533A3.54 3.54 0 0 1 90.832 0a3.54 3.54 0 0 1 3.533 3.533v6.123z" fill="#633"/><path d="M110.364 16.019c3.413 0 6.203 2.79 6.203 6.203s-2.79 6.203-6.203 6.203h-5.641a3.17 3.17 0 0 0-2.931 1.967 5.99 5.99 0 0 1-5.541 3.714c-.301 0-.622-.02-.923-.08a3.15 3.15 0 0 0-2.63.783c-.723.642-1.084 1.586-1.024 2.549l.301 4.818c-5.34 1.887-9.074 6.946-9.074 12.787 0 6.464 4.597 11.904 10.72 13.249l1.586 46.552c0 4.015-1.265 7.809-3.633 11.021-2.79 3.754-6.845 6.303-11.422 7.167h-.04l-.1.02c-1.425.281-2.489 1.506-2.549 2.971l-1.626 37.037h-3.433l-1.606-36.656c-.08-1.706-1.465-3.031-3.172-3.031H33.399a3.18 3.18 0 0 0-3.172 3.031l-1.546 35.291h-3.553l-2.489-56.851a18.36 18.36 0 0 1 5.059-12.707c1.305 5.28 6.344 9.234 12.346 9.234 6.986 0 12.667-5.36 12.667-11.944a11.27 11.27 0 0 0-.422-3.091h16.059c.06 0 .12 0 .181-.02 7.367-.06 13.349-6.083 13.349-13.45 0-5.661-3.453-10.539-8.532-12.526l3.955-49.343a5.21 5.21 0 0 1 5.199-4.878z" fill="#fc6"/><path d="M92.077 18.529c1.907 0 3.453 1.546 3.453 3.453s-1.546 3.453-3.453 3.453-3.453-1.546-3.453-3.453 1.546-3.453 3.453-3.453z" fill="#633"/><path d="M92.398 49.022l.783 12.326c-2.349-1.204-3.935-3.633-3.935-6.404 0-2.429 1.225-4.617 3.152-5.922z" fill="#b88d5b"/><path d="M89.025 115.829c.642 3.373-.201 6.484-2.268 8.572-1.686 1.686-3.935 2.489-6.364 2.489-3.493 0-7.367-1.666-10.539-4.838-2.429-2.429-4.055-5.38-4.617-8.351-.642-3.373.201-6.484 2.268-8.572 2.088-2.088 5.199-2.911 8.572-2.268 1.486.281 2.971.823 4.376 1.606a18.21 18.21 0 0 1 3.975 3.011c2.409 2.409 4.035 5.38 4.597 8.351z" fill="#633"/><path d="M82.782 116.993c.12.602.281 2.088-.522 2.891-.823.823-2.288.642-2.891.522-1.706-.321-3.533-1.365-5.039-2.871s-2.549-3.332-2.871-5.039c-.12-.602-.281-2.088.522-2.891.502-.502 1.245-.622 1.887-.622.422 0 .783.06 1.024.1 1.706.321 3.533 1.365 5.039 2.871 1.486 1.506 2.529 3.352 2.851 5.039zm-9.977-39.828a7.1 7.1 0 0 1 2.73 5.601 7.08 7.08 0 0 1-3.674 6.203z" fill="#b88d5b"/><path d="M69.975 12.687c1.947 1.847 2.148 3.633 1.746 4.035s-2.148.161-4.035-1.746c-.984-.984-1.666-2.088-1.847-3.031-.06-.281-.12-.763.12-1.004.141-.12.341-.161.542-.161.161 0 1.445 0 3.473 1.907z" fill="#fc6"/><path d="M45.303 96.237c.683.903 1.064 1.967 1.064 3.091 0 3.091-2.83 5.601-6.323 5.601s-6.323-2.509-6.323-5.601c0-.562.1-1.124.281-1.646 2.268-.964 4.677-1.445 7.187-1.445z" fill="#b88d5b"/><path d="M42.874 139.637l-1.465 33.002h-2.73l-1.184-33.002zm47.396-4.035l-1.666 37.037h-2.73l-1.144-34.347a26.19 26.19 0 0 0 5.541-2.69z" fill="#fc6"/></svg>