<svg xmlns="http://www.w3.org/2000/svg" width="138.222" height="136.748" viewBox="0 -0.08 17.884 17.694" xmlns:v="https://vecta.io/nano"><defs><clipPath id="A"><circle cx="616.508" cy="91.962" r="51.203" fill="none"/></clipPath><clipPath id="B"><circle cx="615.404" cy="91.011" r="51.203" fill="none"/></clipPath><clipPath id="C"><path d="M2.488 0h16.4a2.49 2.49 0 0 1 2.488 2.488v.255a10.69 10.69 0 0 1-10.688 10.688h0A10.69 10.69 0 0 1 0 2.743v-.255A2.49 2.49 0 0 1 2.488 0z" transform="rotate(180 313.598 65.619)" fill="none"/></clipPath></defs><g transform="matrix(.172778 0 0 .172778 -97.481571 -6.95795)"><circle cx="615.404" cy="91.011" r="51.203" fill="#5baed1"/><g fill="#312449"><circle cx="598.773" cy="98.69" r="3.218"/><circle cx="632.033" cy="98.69" r="3.218"/></g><g fill="#fff"><circle cx="596.968" cy="97.845" r=".594"/><circle cx="630.228" cy="97.845" r=".594"/></g><g clip-path="url(#A)"><path d="M609.125 41.291s4.239 12.461 1.53 16.691S604.147 68.258 598.072 69s-8.483-3.428-12.7.762-5.718 9.971-4.514 13.25a106.367 106.367 0 0 0 5.417 10.586s.6 7.785-.3 9.267-.3 3.8-8.427 6.527-24.076-3.522-24.076-3.522l-9.931-47.884 42.437-27.976zm91.709 47.585s-11.357 6.653-16.043 4.849-11.374-4.314-13.316-10.117 1.656-9-3.294-12.285-10.916-3.6-13.886-1.764a106.35 106.35 0 0 0-9.284 7.431s-7.506 2.152-9.139 1.565-3.782.47-8.086-6.945-5.015-45.81-5.015-45.81l48.552 2.183 35.918 35.957zm-92.784 6.748c-1.141-1.394-1.834-5.168-1.383-7.07s1.075-4.62 2.6-5.153 2.4 1.159 3.239-.78a8.85 8.85 0 0 0 .384-5.818c-.505-1.357-2.027-4.325-2.027-4.325a23.51 23.51 0 0 1-.471-3.967 3.54 3.54 0 0 1 1.794-3.088c1.942-1.456 6.438.64 6.438.64s6.289 14.962 5.4 20.085c-.7 4.034-5.273 12.87-9.324 13.462-1.913.28-5.421-2.486-6.65-3.986z" opacity=".2" style="mix-blend-mode:darken"/></g><g clip-path="url(#B)" fill="#9ed32b"><path d="M608.021 40.339s4.239 12.461 1.53 16.691-6.508 10.277-12.583 11.015-8.483-3.429-12.7.761-5.718 9.971-4.514 13.25a106.467 106.467 0 0 0 5.417 10.586s.6 7.785-.3 9.267-.3 3.8-8.427 6.527-24.075-3.522-24.075-3.522L542.44 57.03l42.434-27.972zm91.709 47.585s-11.356 6.654-16.043 4.849-11.374-4.314-13.316-10.117 1.656-9-3.294-12.285-10.916-3.6-13.886-1.764a106.543 106.543 0 0 0-9.284 7.431s-7.507 2.152-9.139 1.562-3.782.47-8.085-6.945-5.016-45.814-5.016-45.814l48.552 2.183 35.919 35.957zm-92.784 6.748c-1.141-1.394-1.834-5.168-1.383-7.07s1.076-4.62 2.6-5.153 2.4 1.159 3.239-.78a8.858 8.858 0 0 0 .385-5.818c-.506-1.357-2.028-4.325-2.028-4.325a23.519 23.519 0 0 1-.47-3.967 3.535 3.535 0 0 1 1.794-3.088c1.941-1.456 6.437.64 6.437.64s6.289 14.962 5.4 20.085c-.7 4.034-5.273 12.87-9.324 13.462-1.913.28-5.421-2.486-6.65-3.986zm48.189 25.704c1.977 1.545 4.03 7.175 1.95 9.845s-4.994 6.484-10.015 7.268-7.192-1.559-10.524 1.173-4.349 6.258-3.215 8.14a59.8 59.8 0 0 0 4.933 5.992s.817 4.6.126 5.532-.094 2.277-6.74 4.362-38.325.056-38.325.056l7.965-28.716s24.531-17.272 34.142-19.052c5.022-.929 15.678 2.256 19.703 5.4z"/></g><path d="M615.4 142.213a51.2 51.2 0 0 0 34.33-89.19 51.01 51.01 0 0 1 13.215 34.33c0 28.279-26.649 54.332-54.928 54.332" opacity=".2" style="mix-blend-mode:darken"/><path d="M598.286 49.618a9.272 9.272 0 0 0-7.513 1.693c-3.991 2.765-2.809 4.967-1.4 5.7s4.582.225 5.8.62 1.868.171 3.725-.62-.657-2.058.895-3.569 3.03-2.057 1.552-3.053a4.763 4.763 0 0 0-3.059-.771z" fill="#5baed1"/><path d="M591.331 51.838a9.272 9.272 0 0 1 7.513-1.693 4.759 4.759 0 0 1 3.057.771l.018.014a1.547 1.547 0 0 0-.545-.541 4.763 4.763 0 0 0-3.056-.771 9.272 9.272 0 0 0-7.513 1.693c-3.629 2.514-2.979 4.558-1.776 5.46-.774-1.052-.736-2.829 2.302-4.933z" opacity=".2" style="mix-blend-mode:darken"/><path d="M624.707 131.237h-16.4a2.49 2.49 0 0 1-2.488-2.488v-.255a10.69 10.69 0 0 1 10.688-10.688h0a10.69 10.69 0 0 1 10.688 10.688v.255a2.49 2.49 0 0 1-2.488 2.488z" fill="#312449"/><path d="M616.507 117.806a10.73 10.73 0 0 0-.97.049 10.685 10.685 0 0 1 9.718 10.639v.255a2.488 2.488 0 0 1-2.488 2.488h1.94a2.488 2.488 0 0 0 2.488-2.488v-.255a10.688 10.688 0 0 0-10.688-10.688z" opacity=".2" style="mix-blend-mode:darken"/><g clip-path="url(#C)"><ellipse cx="616.507" cy="133.046" rx="7.16" ry="4.646" fill="#fd1a16"/></g></g></svg>