<svg class="icon" width="126.84" height="71.546" version="1.1" viewBox="0 0 324.72 183.16" xmlns="http://www.w3.org/2000/svg"><g stroke-width=".3614"><path d="m49.873 34.586c-2.8912 0-5.2403-2.3491-5.2403-5.2403v-22.009c0-2.8912 2.3491-5.2403 5.2403-5.2403s5.2403 2.3491 5.2403 5.2403v22.009c0 2.8912-2.3491 5.2403-5.2403 5.2403z" fill="#a4a9ad"/><path d="m49.873 2.06c-2.8912 0-5.2403 2.3491-5.2403 5.2403v9.2157h10.481v-9.2157c0-2.8912-2.3491-5.2403-5.2403-5.2403z" fill=""/><path d="m193.24 34.586c-2.8912 0-5.2403-2.3491-5.2403-5.2403v-22.009c0-2.8912 2.3491-5.2403 5.2403-5.2403 2.8912 0 5.2403 2.3491 5.2403 5.2403v22.009c0 2.8912-2.313 5.2403-5.2403 5.2403z" fill="#a4a9ad"/><path d="m193.24 2.06c-2.8912 0-5.2403 2.3491-5.2403 5.2403v9.2157h10.481v-9.2157c0-2.8912-2.313-5.2403-5.2403-5.2403z" fill=""/><path d="m206.9 10.481h-170.69c-2.8912 0-5.2403-2.3491-5.2403-5.2403 0-2.8912 2.3491-5.2403 5.2403-5.2403h170.69c2.8912 0 5.2403 2.3491 5.2403 5.2403 0 2.8912-2.3491 5.2403-5.2403 5.2403z" fill="#a4a9ad"/><path d="m280.84 47.632h10.481v33.104h-10.481z" fill="#333e48"/><path d="m280.88 47.632v10.553c1.6624.57824 3.3972.86736 5.2403.86736 1.8431 0 3.614-.32526 5.2403-.86736v-10.553z" fill=""/><path d="m286.12 42.97m-10.734 0a10.734 10.734 0 1021.467 0 10.734 10.734 0 10-21.467 0z" fill="#a4a9ad"/><path d="m303.18 79.436h-75.388l-7.3364-43.26c-1.1203-6.6136-7.5171-12.035-14.239-12.035h-164.22c-6.722 0-13.119 5.421-14.239 12.035l-16.913 99.71c-1.1203 6.6136 3.4333 12.035 10.155 12.035h282.18c6.722 0 12.215-5.4933 12.215-12.215v-44.091c0-6.6859-5.4933-12.179-12.215-12.179z" fill="#0071ce"/><path d="m290.35 110.99h25.045v16.986h-25.045z" fill="#ffb819"/><path d="m294.32 127.97h-5.7463c-1.3372 0-2.4575-1.0842-2.4575-2.4214v-12.143c0-1.3372 1.0842-2.4214 2.4575-2.4214h5.7463z" fill="#fff"/><path d="m15.07 110.99-2.8912 16.986h21.792v-16.986z" fill="#ffb819"/><path d="m30.032 127.97h5.7463c1.3372 0 2.4214-1.0842 2.4214-2.4214v-12.143c0-1.3372-1.0842-2.4214-2.4214-2.4214h-5.7463z" fill="#fff"/><path d="m123.16 147.92c0-23.708-19.226-42.934-42.934-42.934-23.708 0-42.934 19.226-42.934 42.934z" fill=""/><path d="m80.231 147.92m-35.236 0a35.236 35.236 0 1070.473 0 35.236 35.236 0 10-70.473 0z" fill="#333e48"/><path d="m80.231 147.92m-17.853 0a17.853 17.853 0 1035.706 0 17.853 17.853 0 10-35.706 0z" fill="#a4a9ad"/><path d="m278.21 147.92c0-23.708-19.226-42.934-42.934-42.934s-42.934 19.226-42.934 42.934z" fill=""/><path d="m235.27 147.92m-35.236 0a35.236 35.236 0 1070.473 0 35.236 35.236 0 10-70.473 0z" fill="#333e48"/><path d="m235.27 147.92m-17.853 0a17.853 17.853 0 1035.706 0 17.853 17.853 0 10-35.706 0z" fill="#a4a9ad"/><path d="m324.72 145.07c0 3.5778-2.9273 6.5052-6.5052 6.5052h-14.637c-3.5778 0-6.5052-2.9273-6.5052-6.5052v-10.553c0-3.5778 2.9273-6.5052 6.5052-6.5052h14.637c3.5779 0 6.5052 2.9273 6.5052 6.5052zm-297.07 0c0 3.5778-2.9273 6.5052-6.5052 6.5052h-14.637c-3.5779 0-6.5052-2.9273-6.5052-6.5052v-10.553c0-3.5778 2.9273-6.5052 6.5052-6.5052h14.637c3.5779 0 6.5052 2.9273 6.5052 6.5052z" fill="#a4a9ad"/><path d="m143.01 43.729c0-3.0719 2.5298-5.6017 5.6017-5.6017h45.862c3.0719 0 5.6017 2.5298 5.6017 5.6017v25.262c0 3.0719-2.5298 5.6017-5.6017 5.6017h-45.898c-3.0719 0-5.6017-2.5298-5.6017-5.6017v-25.262zm-93.53-.10842c.50596-3.0358 3.4694-5.5294 6.5413-5.5294h50.054c3.0719 0 5.6017 2.5298 5.6017 5.6017v25.262c0 3.0719-2.5298 5.6017-5.6017 5.6017h-56.234c-3.0719 0-5.168-2.4937-4.662-5.5294z" fill="#333e48"/><path d="m166.86 94.145h-18.973c-2.8912 0-5.2403-2.3491-5.2403-5.2403 0-2.8912 2.3491-5.2403 5.2403-5.2403h18.973c2.8912 0 5.2403 2.3491 5.2403 5.2403 0 2.8912-2.3491 5.2403-5.2403 5.2403zm-102.06 0h-18.973c-2.8912 0-5.2403-2.3491-5.2403-5.2403 0-2.8912 2.3491-5.2403 5.2403-5.2403h18.973c2.8912 0 5.2403 2.3491 5.2403 5.2403 0 2.8912-2.3491 5.2403-5.2403 5.2403z" fill="#00b3e3"/><path d="m194.47 38.128h-45.898c-3.0719 0-5.6017 2.5298-5.6017 5.6017v6.2522c0-3.0719 2.5298-5.6017 5.6017-5.6017h45.862c3.0719 0 5.6017 2.5298 5.6017 5.6017v-6.2522c0-3.108-2.4937-5.6017-5.5656-5.6017zm-88.434 0h-50.018c-3.0719 0-5.9992 2.4936-6.5413 5.5294l-1.0119 5.9631c.65052-2.8912 3.5056-5.2042 6.469-5.2042h51.138c3.0719 0 5.6017 2.5298 5.6017 5.6017v-6.2522c-.0361-3.1442-2.5298-5.6378-5.6378-5.6378z" fill=""/></g></svg>
