<svg class="icon" width="69.594" height="108.86" version="1.1" viewBox="0 0 178.16 278.68" xmlns="http://www.w3.org/2000/svg"><g stroke-width=".31141"><path d="m34.941 201.45h-26.844c-4.4844 0-8.0968-3.6435-8.0968-8.0968 0-4.4532 3.6435-8.0968 8.0968-8.0968h26.844zm0-79.006h-26.844c-4.4844 0-8.0968-3.6435-8.0968-8.0968 0-4.4844 3.6435-8.0968 8.0968-8.0968h26.844zm0-79.006h-26.844c-4.4844 0-8.0968-3.6435-8.0968-8.0968 0-4.4844 3.6435-8.0968 8.0968-8.0968h26.844z" fill="#a4a9ad"/><path d="m17.346 185.23h17.595v16.225h-17.595zm0-79.006h17.595v16.225h-17.595zm0-79.006h17.595v16.225h-17.595z" fill=""/><path d="m143.22 201.45h26.844c4.4844 0 8.0968-3.6435 8.0968-8.0968 0-4.4532-3.6435-8.0968-8.0968-8.0968h-26.844zm0-79.006h26.844c4.4844 0 8.0968-3.6435 8.0968-8.0968 0-4.4844-3.6435-8.0968-8.0968-8.0968h-26.844zm0-79.006h26.844c4.4844 0 8.0968-3.6435 8.0968-8.0968 0-4.4844-3.6435-8.0968-8.0968-8.0968h-26.844z" fill="#a4a9ad"/><path d="m143.22 185.23h17.595v16.225h-17.595zm0-79.006h17.595v16.225h-17.595zm0-79.006h17.595v16.225h-17.595z" fill=""/><path d="m152.65 20.74c0-11.398-9.3424-20.74-20.74-20.74h-85.67c-11.398 0-20.74 9.3424-20.74 20.74v237.2c0 11.398 9.3424 20.74 20.74 20.74h85.67c11.398 0 20.74-9.3424 20.74-20.74z" fill="#333e48"/><path d="m62.843 262.09c-11.398 0-20.74-9.3424-20.74-20.74v-204.01c0-11.398 9.3424-20.74 20.74-20.74h52.473c11.398 0 20.74 9.3424 20.74 20.74v204.01c0 11.398-9.3424 20.74-20.74 20.74z" fill=""/><path d="m89.064 216.71m-30.02 0a30.02 30.02 0 1060.041 0 30.02 30.02 0 10-60.041 0z" fill="#00ad68"/><path d="m89.064 186.69c-13.982 0-25.754 9.5604-29.086 22.515h58.141c-3.301-12.955-15.072-22.515-29.055-22.515z" fill=""/><path d="m117.09 185.04c4.2975 0 7.7542 3.4878 7.7542 7.7542 0 4.2975-3.4878 7.7542-7.7542 7.7542h-56.054c-4.2975 0-7.7542-3.4878-7.7542-7.7542 0-4.2975 3.4878-7.7542 7.7542-7.7542z" fill="#d1d3d3"/></g><g fill="#fff" stroke-width=".31141"><path d="m107.31 221.57m-3.955 0a3.955 3.955 0 107.9099 0 3.955 3.955 0 10-7.9099 0z"/><path d="m97.504 217.65m-3.955 0a3.955 3.955 0 107.9099 0 3.955 3.955 0 10-7.9099 0z"/><path d="m100.34 231.75m-3.955 0a3.955 3.955 0 107.9099 0 3.955 3.955 0 10-7.9099 0z"/></g><g stroke-width=".31141"><path d="m89.064 141.04m-30.02 0a30.02 30.02 0 1060.041 0 30.02 30.02 0 10-60.041 0z" fill="#ffb819"/><path d="m89.064 111.02c-13.982 0-25.754 9.5604-29.086 22.515h58.141c-3.301-12.955-15.072-22.515-29.055-22.515z" fill=""/><path d="m117.09 109.37c4.2975 0 7.7542 3.4878 7.7542 7.7542 0 4.2975-3.4878 7.7542-7.7542 7.7542h-56.054c-4.2975 0-7.7542-3.4878-7.7542-7.7542 0-4.2975 3.4878-7.7542 7.7542-7.7542z" fill="#d1d3d3"/></g><g fill="#fff" stroke-width=".31141"><path d="m107.31 145.93m-3.955 0a3.955 3.955 0 107.9099 0 3.955 3.955 0 10-7.9099 0z"/><path d="m97.504 141.97m-3.955 0a3.955 3.955 0 107.9099 0 3.955 3.955 0 10-7.9099 0z"/><path d="m100.34 156.08m-3.955 0a3.955 3.955 0 107.9099 0 3.955 3.955 0 10-7.9099 0z"/></g><g stroke-width=".31141"><path d="m89.064 65.397m-30.02 0a30.02 30.02 0 1060.041 0 30.02 30.02 0 10-60.041 0z" fill="#ff5959"/><path d="m89.064 35.345c-13.982 0-25.754 9.5604-29.086 22.515h58.141c-3.301-12.955-15.072-22.515-29.055-22.515z" fill=""/><path d="m117.09 33.695c4.2975 0 7.7542 3.4878 7.7542 7.7542 0 4.2975-3.4878 7.7542-7.7542 7.7542h-56.054c-4.2975 0-7.7542-3.4878-7.7542-7.7542 0-4.2975 3.4878-7.7542 7.7542-7.7542z" fill="#d1d3d3"/></g><g fill="#fff" stroke-width=".31141"><path d="m107.31 70.255m-3.955 0a3.955 3.955 0 107.9099 0 3.955 3.955 0 10-7.9099 0z"/><path d="m97.504 66.3m-3.955 0a3.955 3.955 0 107.9099 0 3.955 3.955 0 10-7.9099 0z"/><path d="m100.34 80.438m-3.955 0a3.955 3.955 0 107.9099 0 3.955 3.955 0 10-7.9099 0z"/></g></svg>
